<svg xmlns="http://www.w3.org/2000/svg" xmlns:xlink="http://www.w3.org/1999/xlink" width="376" height="387" viewBox="0 0 376 387">
    <defs>
        <path id="a" d="M.92.011h375v385H.92z"/>
        <linearGradient id="c" x1="50%" x2="50%" y1="0%" y2="100%">
            <stop offset="0%" stop-color="#82DBF4"/>
            <stop offset="100%" stop-color="#4BB4E6"/>
        </linearGradient>
        <path id="d" d="M333.18 70.63c24.142 27.393 38.85 158.53 39.717 186.43.94 27.829-25.45 25.363-29.714 60.8-4.192 35.366-43.402 41.538-60.46 66.468-17.059 24.857-56.958 30.582-90.57 21.813-33.538-8.769-60.716-32.104-84.424-54.86-23.78-22.683-67.92 26.917-68.715 3.437-.867-23.408-63.143-114.713-27.982-228.628 35.161-113.916 76.215-60.223 90.599-90.805C116.087 4.775 150.919 2.542 182 .875c31.08-1.667 126.966 42.36 151.18 69.754z"/>
        <path id="f" d="M1.167.926h8.227v4.777H1.167z"/>
        <path id="h" d="M.156.074h6.678V4.72H.156z"/>
        <path id="j" d="M0 .266h106.108v15.25H0z"/>
        <path id="l" d="M0 .474h106.108v15.25H0z"/>
        <path id="n" d="M0 .458h187.677v75.281H0z"/>
        <path id="p" d="M1.417 1.272h177.218v128.32H1.417z"/>
        <path id="r" d="M0 .743h147.337V108.13H0z"/>
        <path id="t" d="M0 .99h147.337v16.456H0z"/>
        <path id="v" d="M0 .403h147.337V117.12H0z"/>
        <path id="x" d="M0 .417h147.337v17.026H0z"/>
        <path id="z" d="M0 .365h147.337v14.817H.001z"/>
        <path id="B" d="M0 .36h147.337v17.118H0z"/>
        <path id="D" d="M0 222.237h147.337V1.127H0z"/>
    </defs>
    <g fill="none" fill-rule="evenodd" transform="translate(0 1)">
        <mask id="b" fill="#fff">
            <use xlink:href="#a"/>
        </mask>
        <use fill="#FFF" xlink:href="#a"/>
        <g mask="url(#b)">
            <path fill="url(#c)" fill-rule="nonzero" d="M274.555 105.825c24.142 27.394 40.26 56.164 41.128 84.065.94 27.829-13.228 54.715-17.492 90.153-4.193 35.365 1.59 79.355-15.468 104.285-17.059 24.857-56.958 30.582-90.57 21.813-33.538-8.769-60.716-32.104-84.424-54.86-23.78-22.683-44.02-44.786-44.815-68.267-.867-23.407 17.71-48.265 26.455-76.6 8.819-28.409 7.807-60.223 22.19-90.806 14.457-30.51 44.382-59.86 75.463-61.527 31.08-1.666 63.318 24.35 87.533 51.744z" transform="translate(12 -28)"/>
            <g transform="translate(12 -28)">
                <mask id="e" fill="#fff">
                    <use xlink:href="#d"/>
                </mask>
                <g mask="url(#e)">
                    <path fill="#FFF" stroke="#B5E8F7" stroke-width="4" d="M166.232 44.187c24.37-2.986 47.24 21.453 41.237 46.978-4.144 17.623-20.644 35.133-40.306 34.2-19.03-.901-33.404-11.897-36.503-30.057-2.942-17.265 2.697-31.464 17.153-42.953 6.12-4.864 12.377-7.43 18.419-8.168"/>
                    <path fill="#B5E8F7" d="M186.832 116.057l-4.06 1.777c-1.294-2.95-3.807-9.056-6.99-16.784-6.944-16.865-16.454-39.961-21.516-50.264l3.978-1.95c5.127 10.434 14.669 33.608 21.637 50.529 3.171 7.705 5.677 13.788 6.95 16.692"/>
                    <path fill="#B5E8F7" d="M139.239 107.443l-2.37-3.742c4.688-2.963 12.438-7.57 21.413-12.9 16.217-9.64 36.4-21.635 42.572-26.5l2.745 3.475c-6.398 5.045-25.871 16.618-43.05 26.826-8.575 5.097-16.673 9.909-21.31 12.84M134.858 91.062l-2.25-3.815c2.18-1.283 6.303-3.678 11.523-6.709 15.22-8.84 40.696-23.633 46.523-27.496l2.451 3.69c-5.935 3.934-30.495 18.196-46.749 27.635a2866.75 2866.75 0 0 0-11.498 6.695M153.822 119.19l-2.317-3.774c2.805-1.72 6.34-3.837 10.438-6.283 12.355-7.385 29.273-17.498 41.96-26.312l2.53 3.635c-12.813 8.9-29.808 19.058-42.214 26.477-4.085 2.44-7.612 4.55-10.397 6.256"/>
                    <path fill="#B5E8F7" d="M174.495 123.163c-10.098-1.762-21.82-13.653-28.508-28.916-7.662-17.494-.825-33.534 1.748-39.572.31-.728.578-1.358.735-1.787l4.16 1.524c-.194.535-.47 1.18-.816 1.997-2.593 6.08-8.662 20.32-1.766 36.063 6.029 13.76 16.63 24.833 25.209 26.33l-.762 4.361zM198.329 109.361l-4.383-.67c3.96-25.798-6.76-47.55-29.403-59.676l2.094-3.903c11.843 6.343 20.987 15.477 26.447 26.413 5.607 11.235 7.371 23.965 5.245 37.836M109.611 99.077c.344.731.559 2.115.574 3.082.018 1.17.777 2.197 2.01 2.274 1.1.07 2.292-.84 2.276-2.009-.028-1.795-.255-3.638-1.028-5.28-1.18-2.504-5.008-.566-3.832 1.933M117.867 70.946a2.168 2.168 0 0 0-2.71 1.366c-.519 1.572-1.035 3.143-1.554 4.714a2.163 2.163 0 0 0 1.367 2.706c1.112.366 2.345-.256 2.71-1.366l1.556-4.712a2.167 2.167 0 0 0-1.37-2.708M128.522 49.2c-1.134-.373-2.314.267-2.71 1.367-.005.013-.007.017-.01.03l-.019.032c-.095.156-.211.3-.32.447-.297.401-.523.858-.692 1.325-.397 1.1.28 2.35 1.368 2.708 1.134.373 2.314-.268 2.71-1.367l.011-.03c.007-.009.012-.02.018-.03.096-.157.21-.302.32-.45.298-.4.523-.856.693-1.324.395-1.1-.28-2.35-1.369-2.707"/>
                    <g transform="rotate(-20 170.202 -392.405)">
                        <mask id="g" fill="#fff">
                            <use xlink:href="#f"/>
                        </mask>
                        <path fill="#B5E8F7" d="M7.06.944l-4.066.482c-2.75.326-2.243 4.585.505 4.26l4.069-.484C10.318 4.877 9.81.618 7.06.944" mask="url(#g)"/>
                    </g>
                    <path fill="#B5E8F7" d="M207.798 38.335c-.97-.672-2.201-.502-3.2-.014-1.053.51-1.473 1.846-.951 2.88a2.15 2.15 0 0 0 1.91 1.167 2.168 2.168 0 0 0 2.81.82 2.164 2.164 0 0 0 .95-2.88c-.385-.76-.802-1.479-1.519-1.973M215.605 62.461l-.002-.012c-.06.23-.019.143.002.012"/>
                    <path fill="#B5E8F7" d="M216.189 58.677a2.166 2.166 0 0 0-.95 2.881c.058.116.117.231.172.35.036.074.111.266.154.368.014.057.025.115.037.173l.01-.035a.468.468 0 0 1-.008.047.084.084 0 0 1 .006.024c-.195 1.06.33 2.141 1.408 2.496 1.07.353 2.395-.24 2.71-1.364.39-1.406-.02-2.73-.656-3.992a2.17 2.17 0 0 0-2.883-.948"/>
                    <g transform="rotate(-20 474.72 -446.2)">
                        <mask id="i" fill="#fff">
                            <use xlink:href="#h"/>
                        </mask>
                        <path fill="#B5E8F7" d="M6.023.91C4.813.001 3.49-.014 2.049.158a2.162 2.162 0 0 0-1.878 2.38 2.164 2.164 0 0 0 2.384 1.877c.2-.023.404-.047.604-.066.067-.007.196-.01.309-.013.93.624 2.201.486 2.914-.418.71-.901.579-2.31-.36-3.01" mask="url(#i)"/>
                    </g>
                    <path fill="#B5E8F7" d="M207.583 121.361c-1.108-.366-2.254.24-2.676 1.294a8.263 8.263 0 0 1-.268.14 2.165 2.165 0 0 0-.95 2.88 2.166 2.166 0 0 0 2.885.948c1.123-.567 1.942-1.353 2.377-2.555.396-1.099-.28-2.35-1.368-2.707M124.832 122.78c-1.12-.613-2.32-.493-3.442.054-1.051.51-1.47 1.848-.95 2.879a2.14 2.14 0 0 0 1.938 1.166c.336.587.915 1 1.684 1.05 1.093.068 2.3-.84 2.275-2.01-.026-1.195-.361-2.514-1.505-3.14M146.102 136.906c-.63.01-1.259.056-1.881.14-.218.028-.435.063-.652.092-.072.01-.143.015-.213.023.176-.021-.36.018-.395.02-1.17.017-2.196.776-2.274 2.007-.069 1.099.84 2.29 2.01 2.273a16.16 16.16 0 0 0 1.883-.139c.215-.029.432-.064.652-.094.07-.009.14-.015.21-.023-.174.023.36-.017.395-.017 1.17-.017 2.198-.776 2.276-2.008.069-1.097-.842-2.292-2.011-2.274M217.828 77.501c-1.016.513-1.422 1.724-1.005 2.753-.46.628-.58 1.466-.198 2.222.513 1.015 1.857 1.512 2.882.949.758-.418 1.411-1.13 1.593-1.999.22-1.05.08-2.002-.387-2.976-.51-1.051-1.854-1.468-2.885-.949M124.214 109.92l2.266 4.488c1.219 2.414 4.964.526 3.745-1.886l-2.267-4.49c-1.217-2.412-4.964-.524-3.744 1.888M123.224 90.255c.346-1.089-.241-2.285-1.336-2.644-1.075-.354-2.303.245-2.648 1.334-.34 1.078-.608 2.27-.338 3.395.348 1.452 1.586 2.378 3.058 2.44 1.14.05 2.149-.808 2.222-1.962.05-.825-.42-1.606-1.123-1.983.007-.035.015-.073.029-.128.042-.151.087-.302.136-.452M123.83 70.074c-1.106-.07-2.195.822-2.223 1.96.002.129-.004.254-.017.379-.003.041-.004.073-.007.1-.007.027-.012.056-.022.094-.087.355-.21.699-.324 1.044-.245.748-.44 1.533-.46 2.324-.025 1.14.793 2.146 1.967 2.218 1.106.07 2.196-.82 2.221-1.962 0-.125.006-.25.02-.376a1.03 1.03 0 0 0 .004-.1c.009-.028.016-.057.026-.095.084-.355.207-.699.32-1.044.246-.747.443-1.532.46-2.322.026-1.142-.791-2.147-1.964-2.22M132.67 56.605c-1-.645-2.227-.302-2.9.62-1 1.365-1.802 2.861-2.799 4.226-.673.923-.298 2.305.62 2.898.998.646 2.227.303 2.9-.62 1-1.366 1.802-2.86 2.799-4.225.674-.923.3-2.307-.62-2.9M143.05 47.853c-1.033-.663-2.189-.272-2.902.62-.607.76-1.878 1.332-2.833 1.813-2.415 1.218-.525 4.96 1.89 3.74 1.682-.85 3.272-1.782 4.463-3.273.714-.893.268-2.326-.619-2.9M155.277 38.417l-3.93 1.98c-2.416 1.218-.526 4.96 1.89 3.742l3.93-1.981c2.415-1.218.525-4.958-1.89-3.741M173.467 34.864c-2.089-.63-4.402-.52-6.382.417-2.447 1.158-.552 4.898 1.888 3.741.1-.049.202-.094.306-.135l.148-.044c.308-.088.626-.136.942-.179.527-.074 1.207.004 1.787.18 2.587.781 3.904-3.196 1.31-3.98M189.835 38.918c-1.143-.027-2.148.79-2.221 1.962-.071 1.106.823 2.193 1.962 2.22.078.002.46.064.514.063l.04.013c-.003.006.242.11.302.147.054.041.09.066.113.081.041.042.086.08.126.125.026.03.052.062.077.094.003.013.154.22.188.285.537 1.009 1.778 1.451 2.817.928 1.003-.505 1.465-1.807.929-2.815-.97-1.814-2.758-3.054-4.847-3.103M204.108 50.165c-.9-.703-2.32-.276-2.9.62-.661 1.02-.278 2.195.62 2.898.132.102.511.518.754.826-.085-.1.205.335.243.401.09.158.17.32.25.48a2.12 2.12 0 0 0 2.818.925c1.02-.515 1.444-1.794.927-2.813-.67-1.325-1.54-2.423-2.712-3.337M208.737 65.207c.492.976 1.264 2.166.694 3.254-.528 1.013-.405 2.235.62 2.898.894.576 2.372.396 2.902-.62 1.358-2.601.792-4.917-.47-7.42-1.218-2.413-4.962-.525-3.746 1.888M140.865 122.395c-.531-.185-.966-.374-1.438-.679-.206-.165-.25-.19-.133-.077-.11-.097-.216-.2-.314-.31-.066-.072-.124-.149-.184-.227.002-.005-.03-.06-.1-.177-.543-1.007-1.775-1.454-2.817-.929-.999.504-1.471 1.81-.927 2.816.985 1.822 2.68 2.899 4.601 3.564 2.56.88 3.869-3.1 1.312-3.98M158.373 130.098a14.532 14.532 0 0 1-2.154-.176c-.47-.071-1.323-.389-1.622-.598-.94-.65-2.296-.317-2.902.618-.633.984-.32 2.249.622 2.9 1.632 1.13 3.854 1.429 5.798 1.438 1.141.007 2.147-.776 2.22-1.96.07-1.092-.821-2.218-1.962-2.222M171.927 129.986l-2.808 1.415a2.114 2.114 0 0 0-.928 2.814 2.117 2.117 0 0 0 2.816.926l2.809-1.415a2.114 2.114 0 0 0 .93-2.815 2.119 2.119 0 0 0-2.82-.925M195.361 120.745c-1.033-.668-2.183-.27-2.902.618-.798.993-2.294 1.542-3.393 2.097-2.413 1.216-.524 4.959 1.89 3.74 1.87-.944 3.691-1.902 5.026-3.557.717-.89.262-2.328-.62-2.898M208.766 104.36c-.445 1.3-1.214 2.313-2.217 3.332-.8.813-.945 2.074-.145 2.959.733.81 2.162.96 2.964.145 1.482-1.51 2.689-3.105 3.38-5.125.88-2.557-3.105-3.864-3.982-1.31M216.608 86.917a2.032 2.032 0 0 0-.551-.537c-.982-.635-2.25-.319-2.902.62-1.13 1.63-1.43 3.85-1.44 5.79-.006 1.143.777 2.147 1.965 2.223 1.09.066 2.215-.823 2.222-1.965a14.36 14.36 0 0 1 .1-1.506c.16-.187.289-.404.386-.645.088-.048.176-.093.266-.138a2.166 2.166 0 0 0 .951-2.883 2.116 2.116 0 0 0-.997-.959"/>
                    <g>
                        <path fill="#B5E8F7" d="M236.597 60.463c-3.888 4.697-7.08 10.18-9.314 16.317-9.676 26.586 2.278 55.345 26.702 64.234 24.424 8.89 52.069-5.456 61.745-32.042 2.234-6.137 3.312-12.39 3.353-18.486l-82.486-30.023z"/>
                        <path fill="#B5E8F7" d="M271.785 220.437c3.888-4.697 7.08-10.18 9.314-16.317 9.676-26.586-2.279-55.344-26.702-64.233-24.424-8.89-52.069 5.455-61.745 32.04-2.234 6.138-3.313 12.39-3.354 18.487l82.487 30.023z"/>
                        <path fill="#FF7900" d="M201.091 161.445a52.61 52.61 0 0 0-5.818 11.437 52.4 52.4 0 0 0-3.135 15.6l78.714 28.65a52.375 52.375 0 0 0 7.626-13.966 52.61 52.61 0 0 0 2.894-12.5c-17.114-4.993-23.76-17.603-35.561-24.252-9.179-5.17-15.632 7.818-44.72-4.969M254.939 138.396c18.012 6.556 37.969-.44 50.134-15.898-31.536-16.157-60.285-10.503-78.32-28.506-.618 19.661 10.172 37.848 28.186 44.404z"/>
                        <path fill="#FFF6B6" d="M243.273 170.446a2.221 2.221 0 0 1-1.329-2.846l11.928-32.77a2.222 2.222 0 0 1 4.176 1.52l-11.928 32.77a2.22 2.22 0 0 1-2.847 1.326"/>
                        <g transform="rotate(20 -35.648 677.43)">
                            <mask id="k" fill="#fff">
                                <use xlink:href="#j"/>
                            </mask>
                            <path fill="#4BB4E6" d="M98.475 15.516H7.633C3.417 15.516 0 12.102 0 7.891S3.417.266 7.633.266h90.842c4.216 0 7.633 3.414 7.633 7.625 0 4.21-3.417 7.625-7.633 7.625" mask="url(#k)"/>
                        </g>
                        <g transform="rotate(20 -401.728 612.88)">
                            <mask id="m" fill="#fff">
                                <use xlink:href="#l"/>
                            </mask>
                            <path fill="#2C89B5" d="M98.475 15.723H7.633C3.417 15.723 0 12.31 0 8.1 0 3.887 3.417.474 7.633.474h90.842c4.216 0 7.633 3.413 7.633 7.625 0 4.21-3.417 7.624-7.633 7.624" mask="url(#m)"/>
                        </g>
                    </g>
                    <g>
                        <g transform="rotate(-10 1587.82 -40.318)">
                            <mask id="o" fill="#fff">
                                <use xlink:href="#n"/>
                            </mask>
                            <path fill="#FF7900" d="M112.254 2.343C93.131 3.378 74.064 4.89 55.124 7.28c-8.982 1.132-18.132.514-27.008 2.484-7.196 1.598-13.866 4.024-17.002 10.944C8.487 26.51 7.673 32.7 5.953 38.762 4.727 43.09 1.456 46.425.537 50.687-1.546 60.304 2.515 68.683 11.463 72.9c9.163 4.32 18.093 2.44 27.725 2.392 8.05-.038 85.216-5.435 109.44-6.745 5.74-.31 40.27-.963 39.017-27.172-.323-6.713-2.131-13.135-3.519-19.657-1.147-5.381-2.43-13.854-6.837-17.619C172.216-.23 164.239.426 158.087.593c-15.29.409-30.58.929-45.833 1.75" mask="url(#o)"/>
                        </g>
                        <g transform="rotate(-10 867.957 2.816)">
                            <mask id="q" fill="#fff">
                                <use xlink:href="#p"/>
                            </mask>
                            <path fill="#4BB4E6" d="M5.876 40.791c.13-.817.262-1.634.395-2.451 3.789-23.214 26.778-24.361 45.858-28.316 23.84-4.94 48.198-5.96 72.406-7.823 11.386-.876 23.823-2.236 34.746 1.952 14.157 5.428 14.253 17.264 16.216 30.13 2.79 18.272 2.894 36.869 2.811 55.41-.032 6.615 1.009 15.304-.465 21.631-3.946 16.973-28.91 12.16-40.952 10.523-10.445-1.421-21.548.48-32.034 1.692-10.603 1.222-21.004 3.1-31.583 3.963-13.472 1.099-27.185 2.51-40.647.558-7.456-1.083-18.23 4.423-24.444-.652-7.081-5.793-6.934-16.643-6.68-24.937.326-10.61.48-21.38 1.002-32.084.482-9.868 1.814-19.82 3.37-29.596" mask="url(#q)"/>
                        </g>
                        <path fill="#FFF" d="M147.656 142.903c9.497-2.364 19.947-3.653 25.648 4.777 3.895 5.764 5.71 15.27 7.33 21.9 1.95 7.975 3.808 16.148 6.177 24.014 2.585 8.593 5.099 16.363 5.093 25.46-.004 9.086-6.919 10.98-14.666 13.683-9.336 3.257-82.11 22.583-98.399 27.28-8.864 2.554-20.21 7.672-28.787 1.213-7.509-5.65-6.047-18.468-7.775-26.656-2.286-10.827-2.162-21.991-4.128-32.863-1.188-6.58-1.47-13.116 1.155-19.37 2.706-6.466 8.82-7.936 14.895-10.795 11.739-5.524 25.718-8.288 38.167-12.486 14.778-4.985 29.639-9.789 44.825-13.386 3.104-.736 6.709-1.842 10.465-2.77"/>
                        <path fill="#B5E8F7" d="M138.714 249.373c-18.715 4.376-37.289 9.223-55.586 14.924-8.677 2.7-17.826 3.682-26.25 7.207-6.831 2.852-12.995 6.453-14.871 13.927-2.142 8.522-1.457 17.768-2.491 26.46-1.273 10.69.734 24.124 12.68 27.414 8.978 2.476 18.635-2.578 27.16-4.131 7.946-1.446 85.078-20.087 108.783-25.631 5.616-1.315 37.795-8.24 31.94-34.263-1.498-6.665-4.416-12.777-6.94-19.068-2.078-5.188-4.834-13.444-9.853-16.445-5.777-3.448-13.542-1.398-19.592-.16-15.036 3.085-30.052 6.276-44.98 9.766"/>
                        <path fill="#FFF" d="M71.42 276.776c-6.157 1.849-13.014 4.699-17.185 11.811-4.277 7.295-4.046 15.512-3.84 22.763.177 6.305.812 8.392 7.644 8.959 9.017.747 80.095-17.578 118.278-29.053l.008-.002c9.28-2.788 15.726-4.91 18.634-6.144 11.501-4.862 8.989-13.553 6.325-22.755a219.3 219.3 0 0 1-.845-2.986c-2.674-9.913-10.019-12.745-24.551-9.476-15.612 3.51-27.537 6.305-38.663 9.06-16.027 3.963-30.198 7.808-43.329 11.752-1.516.457-3.03.917-4.545 1.384l-.529.162c-2.996.9-6.053 1.634-9.007 2.344-2.93.704-5.7 1.37-8.396 2.18m105.968 17.992l-.008.001c-35.839 10.77-109.298 30.053-119.653 29.194-9.926-.822-10.827-5.7-11.022-12.499-.219-7.743-.468-16.515 4.343-24.716 4.819-8.214 12.467-11.426 19.31-13.484 2.798-.841 5.746-1.55 8.598-2.232 2.905-.698 5.908-1.42 8.805-2.292l.508-.153c1.518-.471 3.043-.93 4.569-1.39 13.186-3.962 27.416-7.82 43.504-11.804 11.152-2.76 23.1-5.557 38.74-9.076 10.384-2.334 24.68-3.623 28.925 12.094.259.958.542 1.934.825 2.923 2.71 9.364 6.081 21.015-8.432 27.153-3.83 1.619-12.45 4.307-19.012 6.28"/>
                        <path fill="#FFF" d="M67.337 321.161l-3.672-.42c.627-5.64 1.365-11.464 2.146-17.626 1.18-9.312 2.4-18.943 3.433-29.484l3.676.375c-1.036 10.593-2.262 20.25-3.447 29.589-.777 6.147-1.514 11.953-2.136 17.566M80.927 318.765l-3.683-.393c1.118-11.728 2.769-27.686 5.628-47.143l3.658.582c-2.847 19.374-4.489 35.27-5.603 46.954M97.704 314.059l-3.753-.166c.156-3.704.393-9.097.668-15.324.42-9.528.927-21.021 1.363-31.4l3.755.16c-.436 10.388-.943 21.879-1.363 31.411-.276 6.223-.513 11.614-.67 15.319M115.74 310.878l-4.755.394c-.863-10.322-1.2-18.932-1.532-27.263-.252-6.41-.494-12.47-.954-19.047l4.76-.33c.466 6.649.708 12.74.963 19.19.328 8.276.667 16.839 1.518 27.056M134.273 304.115l-5.166.785c-.728-4.97-1.286-9.986-1.828-14.834-1.034-9.297-2.106-18.91-4.435-29.17l5.106-1.112c2.384 10.494 3.468 20.227 4.518 29.643.56 5.034 1.09 9.793 1.805 14.688M151.118 300.733l-4.133 1.14c-3.547-12.323-6.734-25.747-10.34-43.523l4.21-.841c3.583 17.671 6.75 31.004 10.263 43.224"/>
                        <path fill="#FFF" d="M200.99 256.123c-7.433 1.488-34.405 8.974-62.96 16.901-33.793 9.383-72.094 20.012-85.641 22.806l-.792-3.836c13.42-2.766 51.653-13.379 85.388-22.743 28.628-7.949 55.665-15.456 63.238-16.967l.767 3.84zM208.213 277.243c-6.402 1.89-31.586 8.071-60.752 15.223-40.214 9.867-85.789 21.05-97.88 24.834l-1.126-3.436c12.207-3.82 57.85-15.023 98.121-24.902 29.115-7.143 54.26-13.312 60.571-15.176l1.066 3.457zM199.376 269.08c-15.323 4.67-49.073 12.81-81.802 20.703-29.141 7.031-56.667 13.671-66.423 16.753l-1.14-3.69c9.882-3.12 37.465-9.774 66.669-16.819 35.607-8.59 72.43-17.471 85.175-21.795l1.211 3.668c-1.07.363-2.306.758-3.69 1.18"/>
                        <path fill="#B5E8F7" d="M109.854 321.709c.473-.044.95-.121 1.403-.228 2.45-.585 4.962-1.11 7.392-1.618 4.033-.842 8.192-1.714 12.172-2.868-.06-.362-.12-.719-.181-1.075-3.096.607-6.207 1.364-9.227 2.098-3.817.926-7.745 1.884-11.717 2.562l.158 1.129zm23.452-1.19c-4.54 1.41-9.266 2.396-13.835 3.352-2.408.502-4.896 1.02-7.296 1.595a13.515 13.515 0 0 1-3.852.353 8.3 8.3 0 0 1-.249-.018l-1.553-.154-.21-1.652c-.191-1.49-.412-3.046-.679-4.76l-.202-1.31 1.028-.703c.068-.047.147-.094.225-.143l.32-.2.405-.079c4.381-.653 8.8-1.724 13.072-2.763 3.596-.876 7.315-1.78 11.047-2.444l.4-.073.395.107c.116.033.23.073.34.111l1.222.407.203 1.269c.09.544.183 1.086.275 1.63.176 1.034.357 2.108.507 3.18l.241 1.729-1.804.566z"/>
                        <path fill="#FFF" d="M56.241 319.622l-3.332-.344c.57-5.022 1.238-10.2 1.95-15.683 1.074-8.286 2.182-16.854 3.124-26.23l3.335.3c-.945 9.421-2.057 18.014-3.133 26.32-.71 5.473-1.378 10.64-1.944 15.637M166.073 296.245l-4.151 1.247c-1.356-4.791-2.58-9.65-3.764-14.345-2.271-9.008-4.621-18.327-8.108-28.159l4.051-1.563c3.569 10.053 5.947 19.488 8.247 28.612 1.227 4.874 2.388 9.483 3.725 14.208M180.59 290.704c-4.954-11.34-9.765-23.77-15.6-40.29l3.581-1.288c5.804 16.432 10.582 28.775 15.498 40.03l-3.48 1.548zM197.424 287.736c-6.328-14.536-11.592-29.193-15.47-40.34l3.722-1.286c3.855 11.079 9.085 25.647 15.362 40.057l-3.614 1.569z"/>
                        <path fill="#B5E8F7" d="M94.814 148.055c.965-2.17 5.576-2.673 6.57-.055 1.446 3.813-5.723 4.432-6.656 1.535a2.109 2.109 0 0 1 .086-1.48"/>
                        <path fill="#FF7900" d="M101.93 187.46c-.237.07-.51.186-.828.363-5.038 2.79-4.464 11.29-3.33 15.872 1.1 4.447 4.243 6.296 6.778 2.126 2.285-3.755 3.435-16.262-1.312-18.307-.233-.1-.611-.262-1.307-.054m2.499 29.203a10.326 10.326 0 0 1-4.686.307c-4.997-.817-9.32-5.26-10.751-11.06-2.234-9.02-1.364-20.464 7.762-25.518 3.425-1.899 7.11-2.167 10.382-.76 5.428 2.337 8.35 8.543 9.199 13.148l-2.028.396c1.106 5.76 1.634 12.087-3.11 18.444-1.894 2.557-4.238 4.28-6.768 5.043"/>
                        <path fill="#FF7900" d="M111.9 232.615c-11.713 3.522-19.703.522-24.412-2.72-9.034-6.213-12.678-17.8-12.281-26.527.95-20.988 13.048-35.423 31.564-37.673 10.434-1.24 18.714 4.482 22.157 15.309.613 1.94 5.692 19.125-3.684 26.95-3.955 3.31-7.22 3.252-9.267 2.619-11.391-3.53-8.324-23.95-5.839-31.831 2.475.203 4.618 1.583 6.965 2.196 1.742.454.322 13.167 1.057 15.13.37.981 1.578 2.483 2.748 1.554.844-.671.204-3.987.137-4.937-.236-3.235-.548-6.783-1.532-9.892-1.746-5.514-5.758-9.36-11.889-8.616-13.92 1.691-22.687 12.641-23.441 29.295-.288 6.28 2.32 15.044 8.714 19.443 4.692 3.23 10.728 3.6 17.945 1.103 8.336-2.888 17.903-12.053 17.744-19.544l8.981-.436c.272 12.781-13.698 24.475-23.887 28.003a47.32 47.32 0 0 1-1.78.574"/>
                    </g>
                    <g transform="rotate(20 -426.537 630.164)">
                        <g transform="translate(0 .383)">
                            <mask id="s" fill="#fff">
                                <use xlink:href="#r"/>
                            </mask>
                            <path fill="#150F0F" d="M65.078 103.833c23.752-9.381 57.83-14.265 82.26-2.283V6.374c0-3.097-2.537-5.631-5.637-5.631H5.637C2.537.743 0 3.277 0 6.373v97.629c17.411 3.474 46.17 7.299 65.078-.169" mask="url(#s)"/>
                        </g>
                        <g transform="translate(0 93.855)">
                            <mask id="u" fill="#fff">
                                <use xlink:href="#t"/>
                            </mask>
                            <path fill="#FF7900" d="M65.078 10.361C46.17 17.83 17.411 14.004 0 10.531v2.78c17.372 3.456 46.153 7.297 64.87-.095C90.843 2.958 123.785-.59 147.338 10.828v-2.75C122.907-3.903 88.83.98 65.078 10.362" mask="url(#u)"/>
                        </g>
                        <g transform="translate(0 105.116)">
                            <mask id="w" fill="#fff">
                                <use xlink:href="#v"/>
                            </mask>
                            <path fill="#FF7900" d="M129.466 95.358v1.126H16.738V94.23h112.728v1.127zm0 5.56H16.738v-2.252h112.728v2.253zM16.738 81.507h2.254v2.252h-2.254v-2.252zm0-7.639h2.254v2.252h-2.254v-2.252zm0-7.637h2.254v2.253h-2.254V66.23zm6.96 2.253h51.367V66.23H23.698v2.253zm0 15.275h51.367v-2.252H23.698v2.252zm0-7.639h51.367v-2.252H23.698v2.252zm-6.96-51.15h93.177V36.23H16.738V24.969zM65.7 9.667c-12.171 4.805-29.544 5.71-51.637 2.684-5.11-.7-9.896-1.54-14.063-2.368V111.49c0 3.097 2.536 5.63 5.636 5.63h136.066c3.1 0 5.636-2.533 5.636-5.63V7.724C138.364 3.158 127.431.659 114.982.42 99.307.125 81.334 3.49 65.7 9.667z" mask="url(#w)"/>
                        </g>
                        <g transform="translate(0 98.36)">
                            <mask id="y" fill="#fff">
                                <use xlink:href="#x"/>
                            </mask>
                            <path fill="#FF7900" d="M65.285 9.759C46.403 17.215 17.528 13.416 0 9.95v3.328c17.216 3.446 45.908 7.33 64.457.003 26.035-10.283 59.039-13.866 82.88-2.591V7.597C138.31 3.12 127.389.672 115.004.435c-15.826-.3-33.95 3.097-49.718 9.324" mask="url(#y)"/>
                        </g>
                        <g transform="translate(0 97.233)">
                            <mask id="A" fill="#fff">
                                <use xlink:href="#z"/>
                            </mask>
                            <path fill="#FFAE2C" d="M64.871 9.838c-18.717 7.392-47.5 3.55-64.87.094v1.145c17.527 3.465 46.402 7.265 65.284-.192 15.768-6.228 33.892-9.624 49.718-9.323 12.385.236 23.306 2.684 32.335 7.16V7.449C123.783-3.968 90.843-.42 64.87 9.838" mask="url(#A)"/>
                        </g>
                        <g transform="translate(0 101.738)">
                            <mask id="C" fill="#fff">
                                <use xlink:href="#B"/>
                            </mask>
                            <path fill="#FFAE2C" d="M64.457 9.903C45.909 17.23 17.216 13.345 0 9.899v3.463c4.168.827 8.953 1.668 14.063 2.367 22.093 3.025 39.466 2.122 51.637-2.684C81.335 6.87 99.307 3.503 114.982 3.8c12.45.238 23.382 2.738 32.355 7.302v-3.79c-23.84-11.276-56.844-7.692-82.88 2.59" mask="url(#C)"/>
                        </g>
                        <path stroke-linecap="round" stroke-linejoin="round" d="M109.915 135.715"/>
                        <path fill="#FFF" d="M109.915 135.715v-5.63H16.737v11.261h93.178z"/>
                        <mask id="E" fill="#fff">
                            <use xlink:href="#D"/>
                        </mask>
                        <path fill="#FFF" d="M23.698 173.598h51.367v-2.252H23.698zM23.698 181.236h51.367v-2.252H23.698zM23.698 188.874h51.367v-2.253H23.698z" mask="url(#E)"/>
                        <path stroke-linecap="round" stroke-linejoin="round" d="M18.992 172.472" mask="url(#E)"/>
                        <path fill="#FFF" d="M18.992 172.472v-1.126h-2.255v2.252h2.255z" mask="url(#E)"/>
                        <path stroke-linecap="round" stroke-linejoin="round" d="M18.992 180.11" mask="url(#E)"/>
                        <path fill="#FFF" d="M18.992 180.11v-1.126h-2.255v2.252h2.255z" mask="url(#E)"/>
                        <path stroke-linecap="round" stroke-linejoin="round" d="M18.992 187.748" mask="url(#E)"/>
                        <path fill="#FFF" d="M18.992 187.748v-1.126h-2.255v2.252h2.255z" mask="url(#E)"/>
                        <path fill="#000" d="M16.737 199.348v2.252h112.729v-2.252zM16.737 203.783v2.252h112.729v-2.252z" mask="url(#E)"/>
                    </g>
                </g>
            </g>
        </g>
    </g>
</svg>
