<svg xmlns="http://www.w3.org/2000/svg" width="47" height="47" viewBox="0 0 47 47">
    <g fill="none" fill-rule="evenodd">
        <g fill-rule="nonzero">
            <g>
                <g>
                    <g>
                        <path fill="#FFF" d="M18.621 34.583c-.314-1.16-1.509-1.847-2.67-1.533-1.16.314-1.845 1.51-1.531 2.67.256.948 1.114 1.608 2.096 1.612.192 0 .383-.024.569-.07.556-.152 1.03-.516 1.32-1.016.29-.498.368-1.093.216-1.65v-.013zM17.86 7.69c-.051-.218-.247-.369-.47-.363-.042-.004-.085-.004-.127 0L1.974 11.44c-.125.035-.231.118-.296.23-.068.111-.087.246-.052.371l5.762 21.503 16.239-4.348L17.86 7.69z" transform="translate(-44 -175) translate(15 160) translate(29 15) translate(2.82 2.82)"/>
                        <path fill="#FF7900" d="M39.175 5.64l-15.29-4.094c-.125-.035-.26-.016-.37.052-.115.062-.199.17-.231.296l-2.026 7.558 2.016 7.52c.25.16.47.324.729.47l.056.037c.23.165.47.33.668.498l.051.038c.442.343.856.696 1.25 1.048.668.597 1.288 1.203 1.918 1.81l.17.164.357.339.38.352.17.155.507.47.136.113c.165.141.334.282.508.418l.085.07c.192.156.39.306.596.47l.146.109c.212.15.428.3.653.47l.1.066c.206.136.427.268.648.4l.136.08c.245.145.503.281.766.417l.17.09c.281.14.563.277.869.413l5.17-19.227c.04-.125.027-.261-.038-.375-.064-.114-.173-.197-.3-.227zm-6.656 11.144l-.808.216c-.268.07-2.82.47-4.075-4.277-1.255-4.747 1.123-5.678 1.41-5.748l.813-.216c.249-.063.502.085.569.333l.432 1.603c.07.263 0 .71-.296.785l-.977.263c-.776.207-.104 2.491-.104 2.491s.56 2.313 1.335 2.106l.954-.24c.282-.075.578.268.649.531.07.263.37 1.377.427 1.603.052.241-.092.481-.329.55z" transform="translate(-44 -175) translate(15 160) translate(29 15) translate(2.82 2.82)"/>
                        <path fill="#000" d="M39.541 4.282L24.247.183c-.49-.135-1.013-.069-1.454.183-.442.253-.764.67-.896 1.162l-1.41 5.221c.029.069.052.14.07.212l.668 2.49 2.059-7.571c.032-.119.11-.22.216-.282.111-.068.246-.087.371-.052L39.175 5.64c.128.028.238.109.304.222.066.114.082.25.043.375l-5.17 19.228-2.138 8.05c-.028.13-.11.241-.224.307-.115.067-.252.082-.378.041l-4.108-1.104.395 1.471c.002.035.002.07 0 .104l3.351.916c.154.04.312.06.47.061.861 0 1.615-.578 1.838-1.41L40.89 6.608c.266-1.013-.334-2.051-1.344-2.326h-.005zM25.93 32.34l-4.371-16.318-2.35-8.7c-.265-1-1.287-1.598-2.289-1.339L1.607 10.077c-.49.132-.908.454-1.16.895-.251.442-.316.965-.18 1.455l7.305 27.26c.226.83.978 1.406 1.837 1.41.167-.001.333-.023.494-.066l15.289-4.108c.491-.13.91-.453 1.163-.894.252-.442.318-.966.181-1.456l-.606-2.232zM9.085 40.388l-1.824-6.806.127-.037L1.626 12.04c-.035-.125-.016-.26.052-.37.065-.113.171-.196.296-.231L17.268 7.34c.042-.004.085-.004.127 0 .222-.006.419.146.47.362l5.762 21.493.132-.037 1.823 6.81-16.497 4.418z" transform="translate(-44 -175) translate(15 160) translate(29 15) translate(2.82 2.82)"/>
                        <path fill="#000" d="M23.627 29.196L7.388 33.544l-.127.038 1.824 6.805 16.497-4.418-1.823-6.829-.132.056zm-5.222 7.05c-.29.5-.764.864-1.32 1.016-.186.046-.377.07-.57.07-1.106.012-2.046-.808-2.183-1.906-.137-1.099.572-2.125 1.648-2.385 1.161-.308 2.353.381 2.665 1.542.144.56.058 1.154-.24 1.65v.013zM32.43 14.608c-.07-.264-.367-.607-.649-.532l-.977.264c-.785.23-1.344-2.12-1.344-2.12s-.672-2.284.103-2.491l.987-.25c.282-.074.367-.52.296-.784l-.432-1.603c-.067-.248-.32-.396-.569-.333l-.813.216c-.263.07-2.66 1-1.41 5.748 1.25 4.747 3.807 4.347 4.075 4.277l.808-.216c.248-.069.395-.325.33-.574-.043-.23-.344-1.335-.405-1.602z" transform="translate(-44 -175) translate(15 160) translate(29 15) translate(2.82 2.82)"/>
                    </g>
                </g>
            </g>
        </g>
    </g>
</svg>
