<svg xmlns="http://www.w3.org/2000/svg" xmlns:xlink="http://www.w3.org/1999/xlink" width="47" height="47" viewBox="0 0 47 47">
    <defs>
        <path id="15fazjq28a" d="M0 0.082L28.751 0.082 28.751 37.6 0 37.6z"/>
    </defs>
    <g fill="none" fill-rule="evenodd">
        <g>
            <g>
                <g>
                    <g>
                        <path fill="#000" d="M35.329 19.542c1.858-1.826 2.893-4.265 2.916-6.87.023-2.604-.97-5.061-2.795-6.919-1.826-1.858-4.265-2.893-6.87-2.916-2.441-.021-4.746.86-6.556 2.473l.571 2.133c1.453-1.664 3.592-2.713 5.968-2.692l.064.001h.016l.027.001c4.26.095 7.68 3.598 7.661 7.867v.035c-.037 4.321-3.583 7.806-7.905 7.768-.863-.008-1.691-.16-2.467-.427l.574 2.143c.612.124 1.24.193 1.877.198 2.604.023 5.061-.97 6.919-2.795" transform="translate(-210 -566) translate(195 551) translate(15 15) translate(4.23 4.7)"/>
                        <path fill="#FF7900" d="M26.18 10.231c.227-.223.593-.22.816.008l1.506 1.532 2.973-2.921c.227-.223.593-.22.816.007.224.227.22.593-.007.816L28.899 13c-.109.107-.256.166-.409.165-.153-.001-.3-.063-.407-.172l-1.91-1.945c-.223-.227-.22-.592.007-.816zm1.686 8.276c.003-.318.264-.574.582-.571.319.003.575.263.572.582l-.006.731c3.237-.25 5.842-2.818 6.136-6.053l-.628-.006c-.318-.002-.574-.263-.572-.581.003-.32.264-.575.582-.572l.624.005c-.26-3.19-2.77-5.76-5.946-6.099l-.005.592c-.003.318-.263.574-.582.572-.319-.004-.575-.264-.572-.583l.005-.605c-2.112.137-3.959 1.266-5.086 2.923l2.615 9.76c.7.338 1.466.56 2.275.637l.006-.732z" transform="translate(-210 -566) translate(195 551) translate(15 15) translate(4.23 4.7)"/>
                        <g transform="translate(-210 -566) translate(195 551) translate(15 15) translate(4.23 4.7) translate(0 .389)">
                            <mask id="u2kcvitubb" fill="#fff">
                                <use xlink:href="#15fazjq28a"/>
                            </mask>
                            <path fill="#FFF" d="M26.905 27.678l.605 2.258c.13.489.064 1-.191 1.44-.254.441-.664.756-1.153.887l-15.29 4.098c-.165.043-.33.064-.492.064-.84 0-1.61-.56-1.836-1.409L1.24 7.745c-.131-.49-.064-1 .19-1.441.255-.44.664-.755 1.153-.886L17.876 1.32c1.012-.269 2.055.332 2.327 1.344l2.33 8.697 4.372 16.317zm-1.32-9.465l-2.615-9.76-.375-1.399-.571-2.133-.687-2.562C20.9.726 19.213-.25 17.571.185L2.28 4.283c-.791.213-1.454.722-1.865 1.433-.41.712-.52 1.54-.309 2.333L7.413 35.32c.359 1.342 1.581 2.28 2.971 2.28.266 0 .532-.035.795-.104l15.291-4.098c.792-.212 1.455-.721 1.866-1.433.412-.711.521-1.54.31-2.333l-2.113-7.881-.574-2.143-.374-1.395z" mask="url(#u2kcvitubb)"/>
                        </g>
                        <path fill="#FFF" d="M20.74 22.112l-4.066 1.092c-.062.017-.123.025-.184.025-.311 0-.596-.207-.68-.522-.102-.376.122-.763.497-.864l4.067-1.093c.377-.1.763.122.863.498.101.376-.121.763-.497.864zm-6.05-5.443c-.311 0-.596-.207-.68-.522-.102-.376.121-.762.497-.864l4.066-1.093c.378-.1.763.122.864.498.101.376-.121.763-.497.864l-4.066 1.093c-.062.016-.124.024-.184.024zm-2.122 9.746c-.224.058-.45.085-.673.085-1.214 0-2.341-.818-2.685-2.05-.407-1.457.436-2.94 1.883-3.311.225-.058.45-.085.673-.085 1.215 0 2.342.818 2.686 2.05.407 1.457-.437 2.94-1.884 3.31zm-5.24-8.48c-.388-1.454.47-2.945 1.916-3.334 1.448-.387 2.937.476 3.327 1.929.389 1.453-.469 2.945-1.917 3.333-1.447.388-2.936-.476-3.325-1.929zm-1.717-6.28c-.389-1.454.47-2.946 1.917-3.334 1.448-.388 2.937.476 3.326 1.929.389 1.453-.469 2.945-1.917 3.333-1.447.388-2.936-.476-3.326-1.929zm7.096-2.931l4.066-1.094c.378-.101.763.122.864.498.101.376-.122.763-.498.864l-4.066 1.093c-.061.016-.123.024-.183.024-.311 0-.596-.208-.68-.521-.102-.376.12-.764.497-.864zm6.133-5.306c-.058-.22-.257-.364-.473-.364-.042 0-.085.006-.126.017L2.949 7.168c-.125.034-.23.115-.296.23-.066.114-.084.245-.05.37l5.762 21.504 16.237-4.35L18.84 3.418z" transform="translate(-210 -566) translate(195 551) translate(15 15) translate(4.23 4.7)"/>
                        <path fill="#FFF" d="M11.766 22.464c-.108 0-.217.013-.322.04-.324.084-.593.287-.759.574-.172.297-.213.65-.117.993.168.6.713 1.02 1.327 1.02.108 0 .216-.014.322-.041.324-.084.594-.287.759-.574.171-.298.213-.65.118-.993-.168-.6-.714-1.02-1.328-1.02M16.407 32.755c.336.194.708.292 1.085.292.189 0 .378-.025.566-.074.561-.15 1.03-.51 1.32-1.014.291-.504.368-1.09.218-1.65-.31-1.159-1.506-1.847-2.664-1.54-.56.152-1.03.511-1.32 1.015-.291.503-.368 1.09-.218 1.65.15.561.51 1.03 1.013 1.321" transform="translate(-210 -566) translate(195 551) translate(15 15) translate(4.23 4.7)"/>
                        <path fill="#000" d="M10.06 36.117l-1.824-6.81.129-.035L2.602 7.768c-.033-.125-.015-.257.05-.37.067-.115.172-.196.297-.23L18.24 3.071c.043-.011.085-.017.127-.017.216 0 .415.145.474.364l5.76 21.504.13-.035 1.825 6.81-16.495 4.42zm12.473-24.368l-2.33-8.697c-.272-1.011-1.315-1.612-2.327-1.343L2.584 5.806c-.49.131-.898.446-1.152.887-.255.44-.322.951-.192 1.44l7.308 27.272c.227.848.996 1.409 1.836 1.409.162 0 .327-.022.491-.065l15.291-4.098c.49-.13.899-.445 1.153-.886.255-.44.322-.952.191-1.44l-.605-2.259-4.372-16.317z" transform="translate(-210 -566) translate(195 551) translate(15 15) translate(4.23 4.7)"/>
                        <path fill="#000" d="M15.611 29.784c.29-.503.76-.863 1.322-1.014 1.157-.309 2.352.38 2.664 1.538.15.562.072 1.148-.218 1.651-.291.503-.76.863-1.321 1.013-.187.05-.378.075-.567.075-.377 0-.748-.098-1.084-.292-.503-.29-.863-.76-1.013-1.32-.15-.562-.073-1.148.217-1.651zm9.12-4.897l-.129.034-16.238 4.351-.128.034 1.825 6.81 16.494-4.42-1.824-6.809z" transform="translate(-210 -566) translate(195 551) translate(15 15) translate(4.23 4.7)"/>
                        <path fill="#FF7900" d="M6.783 11.567c-.222-.135-.292-.424-.156-.645.135-.223.425-.293.646-.157l.766.468.79-1.45c.125-.228.411-.311.638-.187.228.124.312.41.188.637l-1.027 1.883c-.061.113-.167.196-.29.229-.04.01-.082.016-.123.016-.086 0-.17-.023-.244-.069l-1.188-.725zm2.154 2.016c1.448-.388 2.306-1.88 1.917-3.334-.39-1.453-1.879-2.316-3.326-1.927-1.448.387-2.306 1.88-1.916 3.332C6 13.107 7.49 13.97 8.937 13.583z" transform="translate(-210 -566) translate(195 551) translate(15 15) translate(4.23 4.7)"/>
                        <path fill="#FFF" d="M8.337 12.345c.125-.033.23-.116.29-.229l1.028-1.883c.124-.228.04-.513-.188-.638-.227-.123-.513-.04-.637.188l-.791 1.45-.767-.468c-.22-.136-.51-.066-.645.157-.136.22-.065.51.156.645l1.188.725c.074.045.159.069.244.069.041 0 .082-.006.122-.016" transform="translate(-210 -566) translate(195 551) translate(15 15) translate(4.23 4.7)"/>
                        <path fill="#FF7900" d="M8.5 17.848c-.221-.136-.291-.425-.156-.646.135-.222.425-.292.646-.157l.766.468.79-1.45c.124-.227.41-.312.638-.187.228.124.312.41.187.637l-1.026 1.883c-.061.113-.167.196-.29.229-.04.01-.082.016-.123.016-.086 0-.17-.023-.244-.069L8.5 17.848zm2.154 2.015c1.448-.388 2.306-1.88 1.917-3.333-.39-1.453-1.879-2.316-3.327-1.928-1.447.388-2.304 1.88-1.915 3.333.389 1.452 1.878 2.316 3.325 1.928z" transform="translate(-210 -566) translate(195 551) translate(15 15) translate(4.23 4.7)"/>
                        <path fill="#FFF" d="M10.054 18.625c.125-.033.23-.116.29-.229l1.027-1.883c.124-.228.04-.513-.188-.637s-.512-.04-.637.188l-.79 1.45-.767-.469c-.22-.135-.51-.065-.645.157-.136.22-.065.51.156.646l1.188.725c.074.045.159.068.244.068.041 0 .082-.005.122-.016" transform="translate(-210 -566) translate(195 551) translate(15 15) translate(4.23 4.7)"/>
                        <path fill="#000" d="M12.89 10.11c.06 0 .122-.009.183-.025l4.066-1.093c.376-.102.6-.488.498-.864-.101-.376-.486-.6-.864-.498l-4.066 1.094c-.376.1-.599.487-.497.863.084.315.368.522.68.522M19.437 14.688c-.101-.376-.486-.598-.864-.498l-4.066 1.093c-.376.101-.599.488-.498.864.085.314.37.522.68.522.061 0 .123-.008.184-.024l4.066-1.093c.376-.101.6-.488.498-.864M20.373 20.75l-4.066 1.093c-.376.101-.599.487-.497.864.084.314.369.522.68.522.06 0 .122-.008.184-.024l4.066-1.094c.376-.1.599-.487.497-.863-.1-.376-.486-.599-.864-.498" transform="translate(-210 -566) translate(195 551) translate(15 15) translate(4.23 4.7)"/>
                        <path fill="#FF7900" d="M12.976 24.476c-.166.287-.435.49-.759.574-.105.026-.214.04-.322.04-.613 0-1.16-.42-1.327-1.02-.096-.342-.054-.694.118-.992.165-.287.434-.49.758-.573.105-.028.214-.041.323-.041.613 0 1.16.419 1.327 1.02.095.342.053.694-.118.992m-1.21-3.422c-.223 0-.448.027-.673.084-1.448.372-2.29 1.855-1.884 3.312.345 1.231 1.471 2.05 2.686 2.05.223 0 .449-.027.673-.085 1.448-.372 2.291-1.854 1.884-3.312-.344-1.23-1.47-2.05-2.686-2.05" transform="translate(-210 -566) translate(195 551) translate(15 15) translate(4.23 4.7)"/>
                    </g>
                </g>
            </g>
        </g>
    </g>
</svg>
