<svg xmlns="http://www.w3.org/2000/svg" width="47" height="47" viewBox="0 0 47 47">
    <g fill="none" fill-rule="evenodd">
        <g fill-rule="nonzero">
            <g>
                <g>
                    <g>
                        <path fill="#FFF" d="M23.378 20.21l-6.044 10.702c-.065.113-.08.247-.043.371.033.127.116.234.23.296l11.337 6.411c.236.129.53.048.667-.183l3.511-6.214c-5.245-3.802-4.892-7.562-9.658-11.383z" transform="translate(-284 -175) translate(255 160) translate(29 15) translate(2.35 3.76)"/>
                        <path fill="#FF7900" d="M13.846 5.64c-.064-.028-.132-.042-.202-.042-.06.002-.118.013-.174.033l-11.75 4.6c-.12.047-.218.14-.268.26-.052.12-.052.256 0 .375l3.976 10.157c2.764-.601 4.809-.329 6.853-.056L14.57 7.102l-.47-1.194c-.048-.118-.139-.213-.254-.268zm-1.372 10.81l-.583.23c-.188.07-2.04.578-3.375-2.82-1.334-3.398.362-4.3.555-4.375l.578-.226c.184-.072.392.016.47.197l.47 1.152c.07.188.047.526-.155.606l-.705.277c-.555.217.132 1.852.132 1.852s.573 1.697 1.132 1.462l.7-.277c.207-.08.47.155.527.343.056.188.39.987.47 1.151.058.184-.037.381-.216.452v-.024z" transform="translate(-284 -175) translate(255 160) translate(29 15) translate(2.35 3.76)"/>
                        <path fill="#000" d="M12.22 14.87c-.075-.187-.32-.422-.526-.342l-.7.277c-.56.216-1.166-1.452-1.166-1.452s-.686-1.636-.132-1.852l.705-.277c.202-.08.226-.419.155-.607l-.47-1.151c-.078-.182-.286-.27-.47-.198l-.578.226c-.193.075-1.88.94-.555 4.376 1.326 3.435 3.187 2.904 3.375 2.82l.583-.23c.182-.078.269-.286.197-.47-.028-.132-.343-.95-.418-1.12z" transform="translate(-284 -175) translate(255 160) translate(29 15) translate(2.35 3.76)"/>
                        <path fill="#000" d="M15.139 30.55l-4.733 1.88c-.119.051-.253.051-.372 0-.12-.049-.216-.146-.263-.268L5.428 21.07 1.452 10.866c-.052-.12-.052-.256 0-.376.05-.119.147-.212.268-.258L13.47 5.63c.056-.02.115-.031.174-.033.07 0 .138.014.202.042.117.054.21.15.259.268l.47 1.194.395-2.379c-.531-.519-1.317-.677-2.007-.404L1.213 8.93c-.47.183-.845.547-1.044 1.01-.203.461-.214.984-.028 1.453L8.46 32.627c.182.471.547.849 1.01 1.048.241.104.5.158.762.16.236-.002.47-.047.69-.131l4.273-1.673c-.164-.478-.183-.993-.056-1.481z" transform="translate(-284 -175) translate(255 160) translate(29 15) translate(2.35 3.76)"/>
                        <path fill="#FF7900" d="M26.17 7.605l-3.99-.663c-.093-.024-.19.006-.254.077-.063.071-.081.172-.047.26.035.09.116.151.211.161l3.995.663c.065.01.133-.005.186-.044.054-.039.09-.097.1-.163.024-.136-.066-.265-.201-.291z" transform="translate(-284 -175) translate(255 160) translate(29 15) translate(2.35 3.76)"/>
                        <path fill="#FF7900" d="M31.232 3.76c-.074-.106-.188-.178-.315-.197L18.47 1.546h-.08c-.234.01-.43.183-.47.414l-1.758 10.763c3.102 1.034 4.78 2.575 6.679 4.037l2.684-4.742-2.567-.428-2.091 1.5.282-1.81-.7-.113c-.199-.033-.376-.144-.492-.308-.116-.164-.163-.368-.129-.566l.785-4.738L27.35 6.67c.414.07.693.46.625.875l-.145.888c.804-.569 1.864-.622 2.721-.136l.09.051.686-4.23c.015-.126-.019-.254-.095-.357z" transform="translate(-284 -175) translate(255 160) translate(29 15) translate(2.35 3.76)"/>
                        <path fill="#FF7900" d="M23.759 9.767l-1.993-.33c-.093-.024-.193.005-.256.078-.064.072-.082.174-.045.263.036.09.12.15.216.158l1.998.329c.093.026.194-.005.258-.078s.08-.176.043-.266c-.038-.09-.124-.15-.221-.154zM25.963 8.85l-3.99-.663c-.094-.025-.193.005-.257.078-.063.072-.08.174-.044.263.036.09.12.15.216.158l3.99.662c.066.013.135-.003.19-.042.054-.038.091-.098.102-.164.022-.138-.07-.268-.207-.292z" transform="translate(-284 -175) translate(255 160) translate(29 15) translate(2.35 3.76)"/>
                        <path fill="#000" d="M17.907 1.95c.04-.23.235-.403.47-.413h.08l12.445 2.03c.128.02.242.091.315.198.075.104.107.234.09.362l-.686 4.23 1.339.728.77-4.7c.087-.498-.03-1.01-.326-1.42-.295-.41-.743-.685-1.243-.76L18.697.154c-.498-.087-1.01.03-1.42.325-.41.294-.684.741-.761 1.24L12.84 24.243c-.081.495.039 1.003.334 1.41.293.41.738.686 1.236.766l2.703.441.747-1.301-3.215-.527c-.127-.02-.241-.09-.315-.197-.08-.105-.112-.237-.089-.367l1.918-11.75L17.907 1.95z" transform="translate(-284 -175) translate(255 160) translate(29 15) translate(2.35 3.76)"/>
                        <path fill="#000" d="M27.35 6.67l-6.736-1.115-.785 4.738c-.034.198.013.402.129.566.116.164.293.275.492.308l.7.113-.296 1.8 2.091-1.5 2.567.428 1.55-2.744c.19-.331.452-.616.767-.832l.145-.889c.068-.413-.211-.804-.625-.874zm-3.671 3.595l-1.998-.33c-.096-.006-.18-.067-.216-.157-.037-.089-.02-.191.045-.263.063-.073.163-.102.256-.077l1.993.329c.097.004.183.064.22.154.039.09.022.193-.042.266-.064.073-.165.104-.258.078zm2.2-.917l-3.991-.662c-.096-.007-.18-.068-.216-.158-.037-.089-.02-.191.044-.263.064-.073.163-.103.256-.078l3.99.663c.138.024.23.154.208.292-.01.066-.048.126-.102.164-.055.04-.124.055-.19.042zm.21-1.245L22.09 7.44c-.096-.007-.18-.068-.216-.157-.037-.09-.02-.192.044-.264.064-.072.163-.102.257-.077l3.99.663c.137.024.23.154.207.291-.022.134-.148.227-.282.207z" transform="translate(-284 -175) translate(255 160) translate(29 15) translate(2.35 3.76)"/>
                        <path fill="#FF7900" d="M32.815 19.585c-.049-.218-.19-.405-.385-.512-.166-.093-.355-.138-.545-.132-.193.005-.383.048-.56.127-.172.081-.33.19-.47.32-.14.125-.26.273-.352.437-.132.216-.178.474-.132.723.05.23.2.423.41.527.166.092.354.136.545.127.19-.011.378-.056.554-.132.183-.081.352-.192.498-.329.146-.136.268-.294.362-.47.111-.21.138-.456.075-.686z" transform="translate(-284 -175) translate(255 160) translate(29 15) translate(2.35 3.76)"/>
                        <path fill="#FF7900" d="M40.89 16.666L29.572 10.26c-.112-.066-.246-.083-.37-.047-.126.036-.232.118-.297.23l-5.527 9.767c4.766 3.802 4.413 7.562 9.658 11.365l8.06-14.241c.131-.237.048-.534-.187-.668h-.019zm-5.358 4.61c-.224.438-.546.817-.94 1.11-.332.238-.705.411-1.1.512-.33.086-.671.113-1.01.08-.24-.014-.474-.073-.691-.174-.18-.087-.323-.235-.404-.418-.07-.16-.07-.343 0-.503-.204.123-.44.184-.677.174-.46-.026-.885-.257-1.156-.63-.135-.183-.231-.393-.282-.615-.057-.228-.071-.464-.043-.696.034-.242.11-.476.226-.69.161-.305.373-.58.625-.814.247-.232.533-.418.846-.55.297-.127.617-.193.94-.193.34.003.673.092.968.259.213.117.399.277.545.47.165.226.237.507.203.785l.432-.433.78.428-1.936 2.148c-.059.056-.114.116-.165.179-.053.056-.099.12-.136.188-.032.054-.048.115-.047.178.002.058.037.109.09.132.144.073.307.106.47.094.195-.017.385-.073.559-.165.206-.11.395-.25.564-.413.469-.477.764-1.098.836-1.763.026-.35-.024-.703-.146-1.034-.131-.334-.326-.64-.573-.902-.274-.283-.591-.521-.94-.705-.37-.215-.782-.349-1.208-.395-.396-.043-.796-.001-1.175.122-.38.127-.73.33-1.03.597-.332.283-.61.626-.817 1.01-.22.386-.362.81-.418 1.25-.05.402-.015.808.103 1.195.117.388.314.749.578 1.057.287.331.63.608 1.015.818.389.213.812.355 1.25.418.412.063.832.037 1.232-.075l.799.437c-.574.32-1.223.482-1.88.47-.659-.016-1.304-.192-1.88-.512-.488-.27-.919-.633-1.269-1.067-.34-.407-.597-.876-.757-1.382-.333-1.041-.216-2.175.325-3.125.516-.958 1.403-1.661 2.453-1.946.508-.138 1.037-.18 1.56-.122.544.05 1.071.21 1.551.47.425.23.807.532 1.128.893.314.341.563.736.738 1.165.164.42.243.867.23 1.316-.01.479-.135.948-.366 1.368z" transform="translate(-284 -175) translate(255 160) translate(29 15) translate(2.35 3.76)"/>
                        <path fill="#000" d="M34.944 17.451c-.321-.36-.703-.662-1.128-.893-.48-.26-1.007-.42-1.55-.47-.524-.057-1.053-.015-1.56.122-1.05.286-1.937.989-2.454 1.946-.54.95-.658 2.084-.325 3.126.159.496.41.957.743 1.358.355.428.789.784 1.278 1.048.576.32 1.221.496 1.88.512.658.013 1.306-.15 1.88-.47l-.808-.418c-.398.11-.814.136-1.222.075-.438-.063-.862-.205-1.25-.418-.385-.21-.729-.487-1.015-.818-.264-.308-.461-.669-.579-1.057-.117-.387-.152-.793-.103-1.194.053-.44.192-.864.409-1.25.203-.384.475-.727.804-1.01.298-.268.649-.471 1.029-.598.379-.123.78-.165 1.175-.122.432.043.85.178 1.227.395.348.184.666.422.94.705.245.262.438.568.568.902.122.33.172.683.146 1.034-.072.665-.367 1.286-.837 1.763-.168.163-.357.302-.563.413-.174.092-.364.148-.56.165-.162.012-.325-.02-.47-.094-.052-.023-.087-.074-.09-.132 0-.063.016-.124.048-.178.037-.068.083-.132.136-.188.051-.063.106-.123.165-.179l1.946-2.124-.78-.428-.433.432c.03-.28-.05-.56-.221-.785-.147-.193-.333-.353-.545-.47-.287-.175-.614-.275-.95-.291-.323 0-.642.066-.94.193-.316.133-.606.322-.855.559-.255.23-.47.502-.634.804-.116.215-.192.449-.226.69-.029.233-.014.469.042.696.051.223.147.432.282.616.272.372.696.603 1.156.63.238.01.473-.051.677-.174-.07.16-.07.342 0 .503.081.183.224.33.404.418.218.1.452.16.691.174.34.032.681.005 1.01-.08.396-.101.769-.275 1.1-.512.395-.293.717-.672.94-1.11.233-.41.363-.872.381-1.344.012-.45-.066-.897-.23-1.316-.173-.425-.42-.816-.729-1.156zm-2.594 3.29c-.146.137-.315.248-.498.33-.176.075-.364.12-.555.13-.19.01-.379-.034-.545-.126-.21-.104-.36-.298-.409-.527-.047-.249 0-.507.132-.723.092-.164.212-.312.352-.438.14-.13.298-.238.47-.32.177-.078.367-.12.56-.126.19-.006.378.04.545.132.2.105.343.292.395.512.058.238.02.49-.104.7-.09.17-.205.323-.343.456z" transform="translate(-284 -175) translate(255 160) translate(29 15) translate(2.35 3.76)"/>
                        <path fill="#000" d="M41.604 15.44L30.268 9.029c-.914-.512-2.07-.191-2.59.719L16.107 30.22c-.512.914-.191 2.07.719 2.59l11.336 6.406c.287.162.611.246.94.244.682.005 1.314-.353 1.66-.94L42.324 18.03c.512-.914.19-2.07-.72-2.59zm-.507 1.88l-8.06 14.273-3.512 6.214c-.136.23-.431.312-.667.183l-11.336-6.41c-.115-.063-.198-.17-.23-.297-.039-.124-.023-.258.042-.371l6.044-10.702 5.527-9.767c.065-.112.171-.194.296-.23.125-.036.26-.02.371.047l11.318 6.406c.235.134.318.431.188.668l.019-.014z" transform="translate(-284 -175) translate(255 160) translate(29 15) translate(2.35 3.76)"/>
                    </g>
                </g>
            </g>
        </g>
    </g>
</svg>
