<svg xmlns="http://www.w3.org/2000/svg" width="47" height="47" viewBox="0 0 47 47">
    <g fill="none" fill-rule="evenodd">
        <g fill-rule="nonzero">
            <g>
                <g>
                    <path fill="#FFF" d="M9.438 40.392c.11.068.245.087.37.051l15.29-4.098c.13-.028.24-.11.307-.224.066-.114.08-.251.04-.378l-2.236-8.342C15.51 28.599 12.69 25.046 5.39 25.85l3.816 14.246c.033.126.116.233.23.296z" transform="translate(-44 -529) translate(44 529) translate(2.82 2.35)"/>
                    <path fill="#FF7900" d="M39.48 5.64L24.196 1.546c-.126-.035-.26-.016-.372.052-.112.063-.194.17-.225.296l-2.153 8.028 1.842 6.876c4.489 2.716 5.88 6.232 11.393 8.671l5.17-19.227c.031-.13.01-.266-.06-.378-.07-.113-.182-.194-.311-.224zm-4.85 6.763c-.14.565-.41 1.088-.79 1.528-.31.36-.682.659-1.1.883-.352.187-.734.314-1.128.376-.274.054-.557.054-.832 0-.229-.05-.433-.178-.578-.361-.121-.169-.166-.38-.122-.583-.198.197-.45.331-.724.385-.262.052-.532.042-.79-.028-.257-.067-.496-.19-.7-.362-.195-.175-.355-.385-.47-.62-.124-.243-.205-.505-.24-.776-.031-.285-.009-.574.066-.85.098-.387.257-.755.47-1.091.221-.329.494-.62.809-.86.311-.224.664-.384 1.038-.47.385-.089.786-.08 1.166.028.28.076.538.214.757.404.241.204.399.49.442.804l.376-.611 1 .268-1.616 2.956c-.05.079-.096.16-.136.245-.043.08-.078.166-.104.253-.02.071-.02.146 0 .217.02.062.073.108.137.122.184.053.38.053.563 0 .22-.072.421-.19.593-.343.203-.182.379-.393.521-.625.167-.272.292-.566.372-.875.13-.442.16-.907.089-1.363-.072-.405-.233-.79-.47-1.128-.238-.346-.543-.64-.898-.864-.384-.249-.806-.433-1.25-.546-.488-.14-1-.176-1.504-.108-.46.066-.902.226-1.297.47-.395.243-.737.562-1.006.94-.289.417-.502.882-.63 1.373-.142.499-.185 1.02-.127 1.537.059.468.21.92.447 1.33.239.405.559.757.94 1.034.416.3.885.518 1.382.644.5.138 1.02.183 1.537.131.48-.045.947-.19 1.367-.428l1.03.278c-.565.512-1.254.867-1.998 1.03-.749.164-1.526.143-2.265-.062-.632-.163-1.226-.447-1.749-.837-.497-.366-.918-.826-1.24-1.353-.668-1.092-.85-2.411-.503-3.643.164-.62.455-1.2.855-1.701.39-.476.869-.87 1.41-1.161.542-.295 1.133-.487 1.744-.569.629-.085 1.268-.042 1.88.127.55.136 1.073.365 1.546.677.45.299.844.676 1.16 1.114.303.423.516.902.626 1.41.115.548.096 1.116-.056 1.654z" transform="translate(-44 -529) translate(44 529) translate(2.82 2.35)"/>
                    <path fill="#FF7900" d="M30.489 10.768c-.215-.061-.443-.061-.658 0-.218.06-.422.163-.602.3-.182.14-.34.308-.47.499-.126.18-.22.38-.277.592-.092.283-.073.59.052.86.124.24.348.411.61.47.214.061.44.061.654 0 .214-.067.415-.172.592-.31.186-.14.345-.312.47-.508.13-.19.227-.399.287-.62.083-.274.056-.569-.075-.823-.123-.227-.334-.393-.583-.46z" transform="translate(-44 -529) translate(44 529) translate(2.82 2.35)"/>
                    <path fill="#000" d="M34.06 9.339c-.316-.438-.71-.815-1.16-1.114-.467-.32-.985-.559-1.532-.705-.612-.169-1.251-.212-1.88-.127-.618.089-1.214.291-1.758.597-.543.298-1.023.7-1.41 1.184-.399.504-.689 1.085-.85 1.707-.347 1.23-.165 2.55.502 3.642.322.527.744.987 1.241 1.354.523.39 1.117.673 1.748.836.74.205 1.517.226 2.266.061.744-.162 1.433-.517 1.997-1.029l-1.029-.277c-.42.237-.887.383-1.368.427-.516.052-1.037.008-1.537-.131-.497-.126-.966-.344-1.381-.644-.382-.276-.702-.628-.94-1.034-.237-.41-.388-.861-.447-1.33-.059-.516-.015-1.038.127-1.537.128-.491.34-.956.63-1.372.268-.378.61-.698 1.006-.94.395-.245.837-.405 1.297-.47.503-.069 1.015-.032 1.504.108.443.113.866.297 1.25.545.355.224.66.518.898.865.237.337.397.722.47 1.128.071.455.04.92-.09 1.363-.079.308-.204.603-.37.874-.144.232-.32.443-.523.625-.171.154-.373.27-.592.343-.184.054-.38.054-.564 0-.064-.014-.116-.06-.136-.122-.021-.07-.021-.146 0-.216.026-.088.06-.173.103-.254.04-.084.086-.166.137-.245l1.616-2.956-1-.268-.377.611c-.036-.326-.196-.625-.446-.836-.219-.19-.477-.329-.757-.405-.38-.107-.78-.116-1.165-.028-.375.086-.728.246-1.04.47-.314.24-.587.531-.808.86-.213.336-.372.704-.47 1.09-.075.278-.097.566-.065.851.023.274.095.541.211.79.115.235.275.446.47.62.204.172.443.295.7.362.258.07.528.08.79.028.286-.053.55-.194.752-.404-.04.2.007.409.127.574.145.184.35.312.578.362.275.053.557.053.832 0 .394-.063.775-.19 1.128-.376.414-.22.785-.513 1.095-.865.373-.442.637-.965.77-1.528.15-.533.17-1.093.057-1.635-.102-.513-.308-1-.606-1.43zm-2.908 2.721c-.06.225-.157.438-.287.63-.125.196-.284.368-.47.508-.177.138-.378.243-.592.31-.214.06-.44.06-.654 0-.263-.059-.486-.23-.61-.47-.126-.27-.144-.577-.052-.86.057-.212.15-.413.277-.593.129-.19.288-.358.47-.498.18-.138.384-.24.602-.3.215-.062.443-.062.658 0 .252.068.465.238.587.47.125.249.15.536.07.803z" transform="translate(-44 -529) translate(44 529) translate(2.82 2.35)"/>
                    <path fill="#000" d="M21.446 9.922L23.6 1.88c.03-.126.113-.233.225-.296.112-.068.246-.087.372-.052L39.48 5.64c.257.073.411.337.348.597l-5.17 19.228-2.13 8.05c-.027.13-.109.241-.223.307-.115.067-.252.082-.378.041l-4.38-1.175.423 1.575 3.59.94c.154.04.312.06.47.061.86-.002 1.614-.58 1.838-1.41l7.304-27.26c.132-.485.065-1.003-.188-1.438-.25-.439-.664-.759-1.151-.888L24.563.183c-.488-.128-1.007-.059-1.444.193-.437.25-.755.665-.883 1.151L20.68 7.276c.069.151.126.309.17.47l.596 2.176z" transform="translate(-44 -529) translate(44 529) translate(2.82 2.35)"/>
                    <path fill="#FF7900" d="M23.209 27.401L18.137 8.46c-.03-.126-.113-.233-.225-.296-.075-.046-.161-.07-.25-.07-.04-.005-.081-.005-.122 0L2.247 12.22c-.268.067-.432.338-.367.606L5.39 25.85c7.3-.804 10.12 2.75 17.819 1.551zM11.665 14.777l.738-.207c.226-.052.454.08.522.3.056.203.324 1.218.39 1.458s0 .644-.268.714l-.888.24c-.705.188-.094 2.26-.094 2.26s.508 2.106 1.213 1.918l.888-.24c.258-.07.526.245.592.47.066.226.334 1.25.39 1.457.039.224-.088.444-.3.522l-.748.221c-.24.061-2.547.423-3.704-3.892-1.156-4.314 1.03-5.16 1.27-5.221z" transform="translate(-44 -529) translate(44 529) translate(2.82 2.35)"/>
                    <path fill="#000" d="M14.1 23.89l.738-.197c.213-.079.34-.298.3-.522-.056-.207-.328-1.217-.39-1.457-.06-.24-.333-.555-.592-.47l-.888.24c-.705.188-1.213-1.918-1.213-1.918s-.61-2.073.095-2.26l.888-.24c.258-.07.333-.47.268-.715-.066-.244-.334-1.255-.39-1.457-.058-.226-.283-.369-.513-.324l-.738.197c-.24.062-2.415.908-1.26 5.222 1.157 4.315 3.465 3.981 3.695 3.901z" transform="translate(-44 -529) translate(44 529) translate(2.82 2.35)"/>
                    <path fill="#000" d="M9.682 41.868c.159-.002.316-.023.47-.062l15.29-4.098c.49-.132.908-.454 1.16-.895.252-.441.318-.965.183-1.455l-7.308-27.26c-.131-.491-.453-.91-.895-1.163-.441-.252-.965-.318-1.455-.181L1.88 10.862c-.495.125-.918.446-1.172.889-.253.443-.315.97-.172 1.46l7.304 27.26c.23.827.984 1.399 1.842 1.397zM1.88 12.826c-.065-.268.099-.539.367-.606L17.54 8.122c.041-.005.082-.005.123 0 .088 0 .174.024.249.07.112.064.194.17.225.296l5.072 18.913 2.237 8.342c.04.127.025.264-.041.378-.066.115-.178.196-.307.224l-15.29 4.099c-.26.066-.527-.089-.6-.348L5.39 25.85 1.88 12.826z" transform="translate(-44 -529) translate(44 529) translate(2.82 2.35)"/>
                </g>
            </g>
        </g>
    </g>
</svg>
