<svg xmlns="http://www.w3.org/2000/svg" width="47" height="47" viewBox="0 0 47 47">
    <g fill="none" fill-rule="evenodd">
        <g fill-rule="nonzero">
            <g>
                <g>
                    <g>
                        <g transform="translate(-30 -300) translate(15 285) translate(15 15) translate(1.88 1.41) translate(18.8)">
                            <ellipse cx="12.54" cy="18.265" fill="#FF7900" rx="4.935" ry="4.7" transform="rotate(-75.001 12.54 18.265)"/>
                            <path fill="#FFF" d="M11.703 20.398c-.047 0-.141 0-.188-.047-.188-.047-.329-.188-.423-.329l-1.175-2.115c-.188-.329-.047-.752.282-.94.329-.188.752-.047.94.282l.799 1.457 2.538-1.551c.329-.188.752-.094.987.235.188.329.094.752-.235.987l-3.149 1.927c-.141.047-.235.094-.376.094z"/>
                            <path fill="#000" d="M19.599 10.199l-.047-4.888c-.094-2.162-1.974-3.901-4.136-3.807-1.316.047-2.491.752-3.196 1.833l-2.491 4.23-1.269-.752 2.491-4.23c.94-1.504 2.585-2.444 4.371-2.538 2.961-.141 5.499 2.209 5.64 5.17l.047 4.935-1.41.047z"/>
                            <path fill="#000" d="M19.27 28.529c-.141 0-.282 0-.423-.047-.141 0-.235-.047-.376-.094L2.35 24.064C.705 23.641-.329 21.902.141 20.257c.047-.141.094-.235.141-.376L5.452 6.11c.141-.329.517-.517.846-.423l17.907 4.794c.329.094.564.423.517.799l-2.35 14.523c-.094.799-.564 1.551-1.222 2.068-.564.423-1.222.658-1.88.658zm-.47-1.457c.047 0 .141.047.188.047.47.047.893-.047 1.269-.329.376-.282.611-.658.658-1.128l2.256-13.912L6.486 7.285l-4.982 13.16c-.047.094-.047.141-.094.235-.235.893.282 1.833 1.222 2.115L18.8 27.072z"/>
                            <path fill="#000" d="M16.591 12.361c-.047 0-.141 0-.188-.047l-4.982-1.316c-.376-.094-.611-.47-.517-.846l.705-2.585 1.363.376-.517 1.88 3.619.987.517-1.88 1.363.376-.705 2.585c-.047.235-.329.47-.658.47z"/>
                        </g>
                        <g fill="#FFF">
                            <path d="M10.904 38.446c-1.457 0-2.82-.987-3.196-2.444L.329 8.601c-.47-1.786.564-3.572 2.35-4.089L18.048.376c1.786-.47 3.572.564 4.089 2.35l7.332 27.401c.235.846.094 1.739-.329 2.538-.423.799-1.175 1.316-2.021 1.551L11.75 38.305c-.282.094-.564.141-.846.141zM4.7 8.366l6.862 25.615 13.583-3.619-6.862-25.615L4.7 8.366z" transform="translate(-30 -300) translate(15 285) translate(15 15) translate(1.88 1.41) translate(0 4.7)"/>
                        </g>
                        <g>
                            <g>
                                <path fill="#FF7900" d="M1.833 5.17l15.369-4.136c.658-.188 1.316.188 1.457.846l7.332 27.401c.188.658-.188 1.316-.846 1.457L9.776 34.874c-.658.188-1.316-.188-1.457-.846L.987 6.627c-.188-.658.188-1.316.846-1.457z" transform="translate(-30 -300) translate(15 285) translate(15 15) translate(1.88 1.41) translate(1.41 6.11)"/>
                                <path fill="#000" d="M9.494 35.626c-.846 0-1.598-.564-1.833-1.41L.329 6.815c-.282-1.034.329-2.068 1.363-2.35L17.061.329c1.034-.282 2.068.329 2.35 1.363l7.332 27.401c.141.47.047.987-.188 1.457-.235.423-.658.752-1.175.893l-15.369 4.136c-.188 0-.376.047-.517.047zM2.021 5.828c-.282.047-.423.329-.329.611L9.024 33.84c.047.282.329.423.611.329l15.322-4.089c.141-.047.235-.094.282-.235.047-.094.094-.235.047-.376L18.001 2.068c-.047-.141-.094-.235-.235-.282-.094-.047-.235-.094-.376-.047L2.021 5.828z" transform="translate(-30 -300) translate(15 285) translate(15 15) translate(1.88 1.41) translate(1.41 6.11)"/>
                            </g>
                            <path fill="#000" d="M9.494 35.626c-.846 0-1.598-.564-1.833-1.41L.329 6.815c-.282-1.034.329-2.068 1.363-2.35l.141.705-.188-.705L17.014.329c1.034-.282 2.068.329 2.35 1.363l7.332 27.401c.141.47.047.987-.188 1.457-.235.423-.658.752-1.175.893L9.964 35.579c-.141 0-.329.047-.47.047zM2.021 5.828c-.282.047-.423.329-.329.611L9.024 33.84c.047.282.329.423.611.329l15.322-4.089c.141-.047.235-.094.282-.235.047-.094.094-.235.047-.376L18.001 2.068c-.047-.141-.094-.235-.235-.282-.094-.047-.235-.094-.376-.047L2.021 5.828z" transform="translate(-30 -300) translate(15 285) translate(15 15) translate(1.88 1.41) translate(1.41 6.11)"/>
                            <path fill="#000" d="M7.986 25.703L25.141 25.703 25.141 32.8 7.986 32.8z" transform="translate(-30 -300) translate(15 285) translate(15 15) translate(1.88 1.41) translate(1.41 6.11) rotate(-15.005 16.563 29.251)"/>
                            <g fill="#FFF">
                                <path d="M4.277 1.739c.282 1.034-.329 2.115-1.363 2.397C1.88 4.418.799 3.807.517 2.773.235 1.739.846.658 1.88.376 2.961.094 3.995.705 4.277 1.739z" transform="translate(-30 -300) translate(15 285) translate(15 15) translate(1.88 1.41) translate(1.41 6.11) translate(14.1 27.26)"/>
                                <path d="M2.444 4.418c-.94 0-1.833-.658-2.115-1.598C0 1.645.705.47 1.88.141 2.444 0 3.008.047 3.525.376c.517.282.846.752 1.034 1.316.329 1.175-.376 2.35-1.551 2.679-.235.047-.423.047-.564.047zm0-3.901c-.141 0-.282 0-.423.047C1.128.799.564 1.739.799 2.632c.235.893 1.175 1.457 2.068 1.222.893-.235 1.457-1.175 1.222-2.068v-.047C3.948 1.316 3.666.94 3.29.752 3.008.611 2.726.517 2.444.517z" transform="translate(-30 -300) translate(15 285) translate(15 15) translate(1.88 1.41) translate(1.41 6.11) translate(14.1 27.26)"/>
                            </g>
                            <path fill="#000" d="M10.951 13.254l-3.666.987c-.423.094-.705.47-.611.893.094.423.47.705.893.611.047 0 .047 0 .094-.047l1.88-.517-2.209 3.807c-.188.376-.047.846.329 1.034.329.188.799.047.987-.282l2.209-3.807.517 1.88c.094.423.517.658.94.564.423-.094.658-.517.564-.94l-.987-3.666c-.094-.376-.517-.611-.94-.517z" transform="translate(-30 -300) translate(15 285) translate(15 15) translate(1.88 1.41) translate(1.41 6.11)"/>
                            <path fill="#FFF" d="M14.57 17.813l3.666-.987c.423-.094.658-.517.564-.94-.094-.423-.517-.658-.94-.564l-1.88.517 2.209-3.807c.235-.329.188-.846-.188-1.081s-.846-.141-1.081.188c-.047.047-.047.094-.094.141l-2.209 3.807-.517-1.88c-.094-.423-.564-.658-.94-.517-.423.094-.658.564-.517.94l.987 3.666c.094.376.517.611.94.517z" transform="translate(-30 -300) translate(15 285) translate(15 15) translate(1.88 1.41) translate(1.41 6.11)"/>
                        </g>
                    </g>
                </g>
            </g>
        </g>
    </g>
</svg>
