<svg xmlns="http://www.w3.org/2000/svg" xmlns:xlink="http://www.w3.org/1999/xlink" width="47" height="47" viewBox="0 0 47 47">
    <defs>
        <path id="htdfw49pga" d="M0 0.2L25.194 0.2 25.194 25.394 0 25.394z"/>
        <path id="72k92hu6yc" d="M0 0.386L13.834 0.386 13.834 5.56 0 5.56z"/>
        <path id="bbyna1l91e" d="M0.369 0.093L12.042 0.093 12.042 6.446 0.369 6.446z"/>
    </defs>
    <g fill="none" fill-rule="evenodd">
        <g>
            <g>
                <g>
                    <g>
                        <path fill="#000" d="M26.418 13.068l.015-.015-.029-.029.014.044M30.706 17.326L30.706 8.779 26.433 13.053zM19.985 4.6l4.6-4.6H13.38l3.081 3.081c1.23.344 2.416.854 3.524 1.52M27.298 0l-5.715 5.715c1.026.827 1.957 1.806 2.75 2.938.341.488.646.992.92 1.51l5.453-5.453V0h-3.408zM4.373 5.134c2.69-1.883 5.808-2.709 8.86-2.569L10.668 0h-8.47v7.006c.649-.683 1.374-1.311 2.175-1.872M26.707 19.362c-.411 2.334-1.371 4.48-2.786 6.3h6.786v-5.623l-3.795-3.795c.043 1.033-.02 2.076-.205 3.118" transform="translate(-210 -1068) translate(195 1053) translate(15 15) translate(7.99 6.58)"/>
                        <g transform="translate(-210 -1068) translate(195 1053) translate(15 15) translate(7.99 6.58) translate(0 4.08)">
                            <mask id="lxizlx0neb" fill="#fff">
                                <use xlink:href="#htdfw49pga"/>
                            </mask>
                            <path fill="#000" d="M10.65 23.811c-2.943-.519-5.507-2.152-7.22-4.6C-.11 14.156 1.122 7.167 6.175 3.628c1.95-1.364 4.186-2.02 6.402-2.02 3.53 0 7.006 1.664 9.18 4.768 1.714 2.447 2.372 5.417 1.853 8.359-.519 2.943-2.153 5.508-4.6 7.222-2.449 1.714-5.415 2.372-8.36 1.853m8.863-1.133c.264-.185.609-.161.847.032 2.455-1.918 4.094-4.638 4.639-7.729.584-3.314-.157-6.657-2.087-9.413C18.929-.122 11.058-1.51 5.368 2.475-.322 6.458-1.71 14.329 2.274 20.019c1.93 2.757 4.818 4.596 8.132 5.18.74.13 1.48.195 2.214.195 2.34 0 4.622-.66 6.634-1.916-.097-.289-.001-.617.26-.8" mask="url(#lxizlx0neb)"/>
                        </g>
                        <path fill="#000" d="M21.381 28.195l-.885-1.264c-.038-.055-.085-.1-.135-.14-.238-.194-.583-.218-.847-.033-.261.183-.357.511-.26.8.02.063.047.124.087.182l.88 1.256 3.405 4.864c.138.196.356.3.578.3.14 0 .281-.041.404-.127.32-.224.397-.663.173-.982l-3.4-4.856z" transform="translate(-210 -1068) translate(195 1053) translate(15 15) translate(7.99 6.58)"/>
                        <path fill="#FF7900" d="M21.758 10.407c-2.173-3.104-5.65-4.767-9.18-4.767-2.216 0-4.452.655-6.401 2.02C1.124 11.198-.11 18.188 3.429 23.24c1.714 2.448 4.279 4.082 7.222 4.6 2.945.52 5.912-.139 8.36-1.853 2.448-1.713 4.082-4.278 4.6-7.221.52-2.943-.139-5.912-1.853-8.36" transform="translate(-210 -1068) translate(195 1053) translate(15 15) translate(7.99 6.58)"/>
                    </g>
                    <g>
                        <g transform="translate(-210 -1068) translate(195 1053) translate(15 15) translate(13.63 16.92) translate(0 .017)">
                            <mask id="v18il5uwjd" fill="#fff">
                                <use xlink:href="#72k92hu6yc"/>
                            </mask>
                            <path fill="#000" d="M10.547 4.044c-.448 1.114-1.002 1.533-1.912 1.478-.757-.045-1.334-.564-1.59-1.471-.32 1.022-.956 1.595-2.02 1.455-.798-.105-1.297-.608-1.479-1.484-.062.18-.098.293-.14.403-.251.676-.912 1.135-1.63 1.135C.994 5.56.31 5.1.066 4.411c-.099-.281-.099-.533.08-.806C.782 2.63 1.4 1.642 2.009.65c.122-.2.257-.265.484-.264 2.808.007 5.616 0 8.424.016.18 0 .42.114.53.255.77.98 1.528 1.971 2.25 2.986.133.186.166.514.113.746-.148.648-.78 1.102-1.471 1.134-.753.034-1.38-.348-1.65-1.014-.057-.136-.088-.282-.142-.465" mask="url(#v18il5uwjd)"/>
                        </g>
                        <g transform="translate(-210 -1068) translate(195 1053) translate(15 15) translate(13.63 16.92) translate(.806 5.657)">
                            <mask id="ag7nobwigf" fill="#fff">
                                <use xlink:href="#bbyna1l91e"/>
                            </mask>
                            <path fill="#000" d="M9.695.093c-1.248.89-2.064.89-3.47.01C5.082.99 3.926.975 2.774.093 2.06.675 1.27.902.369.657v5.79h11.673V.674C11.138.896 10.37.633 9.695.093" mask="url(#ag7nobwigf)"/>
                            <path fill="#FFF" d="M4.7 2.35H7.52V7.050000000000001H4.7z" mask="url(#ag7nobwigf)"/>
                        </g>
                    </g>
                </g>
            </g>
        </g>
    </g>
</svg>
