<svg xmlns="http://www.w3.org/2000/svg" width="47" height="47" viewBox="0 0 47 47">
    <g fill="none" fill-rule="evenodd">
        <g fill-rule="nonzero">
            <g>
                <g>
                    <path fill="#FFF" d="M13.63 23.387c.052.197.18.365.357.467.177.102.387.128.583.074l3.666-.978c.411-.11.656-.533.545-.945-.11-.411-.533-.655-.944-.545l-1.88.503 2.204-3.812c.173-.239.195-.556.056-.816-.14-.26-.415-.418-.71-.407-.296.012-.558.191-.676.462l-2.2 3.812-.503-1.88c-.075-.266-.285-.47-.552-.539-.267-.068-.55.012-.743.21-.192.197-.265.482-.19.747l.987 3.647zM17.023 37.487c1.036-.278 1.65-1.342 1.372-2.377-.278-1.036-1.342-1.65-2.377-1.372-1.036.277-1.65 1.341-1.373 2.377.133.497.459.921.905 1.179.446.257.976.327 1.473.193zM36.237 8.281c-.039.126-.023.262.043.375.066.113.177.194.305.222l2.942.79-2.496-4.348-.794 2.961zM28.153 17.672c.092.17.25.294.437.343.058.015.118.023.179.024.13.001.26-.035.371-.104l3.168-1.955c.316-.21.41-.631.213-.955-.198-.323-.616-.433-.946-.248l-2.538 1.55-.8-1.466c-.186-.342-.616-.468-.958-.282-.343.187-.47.617-.282.96l1.156 2.133z" transform="translate(-284 -529) translate(284 529) translate(2.82 2.82)"/>
                    <path fill="#000" d="M37.548 3.384L37.548 3.384 37.548 3.389zM41.445 10.175L37.548 3.39 25.765.23c-.49-.143-1.016-.081-1.459.171-.443.253-.765.675-.89 1.169l-2.21 8.244.729 2.726 2.843-10.604c.032-.125.113-.232.226-.296.076-.042.162-.064.25-.065.04-.005.08-.005.121 0L35.8 4.37l-.94 3.53c-.27 1.013.332 2.053 1.344 2.326l3.511.94-5.17 19.2c-.028.129-.11.24-.224.306-.114.067-.252.082-.378.042l-7.665-2.045.423 1.57 6.918 1.88c.154.04.311.063.47.066.86-.002 1.613-.58 1.838-1.41l5.527-20.591-.01-.01zm-4.86-1.297c-.128-.028-.239-.109-.305-.222s-.082-.25-.043-.375l.794-2.96 2.496 4.347-2.942-.79z" transform="translate(-284 -529) translate(284 529) translate(2.82 2.82)"/>
                    <path fill="#FF7900" d="M7.388 34.014l16.239-4.348L17.86 8.16c-.051-.217-.247-.368-.47-.362-.042-.004-.085-.004-.127 0L1.974 11.91c-.125.035-.231.118-.296.23-.068.111-.087.246-.052.371l5.762 21.503zm5.8-15.214c.197-.054.408-.027.585.075.176.103.305.272.355.47l.503 1.88 2.2-3.835c.135-.244.39-.395.67-.397.278-.001.536.147.674.39.137.241.134.539-.01.778l-2.185 3.802 1.88-.503c.411-.11.834.134.945.545.11.412-.134.835-.546.945l-3.689.978c-.196.054-.406.028-.583-.074-.177-.102-.305-.27-.357-.467l-.987-3.647c-.053-.197-.025-.407.077-.583.102-.177.27-.305.468-.357zm-5.894 1.56l3.662-.982c.41-.108.83.136.94.545l.982 3.662c.071.266-.005.55-.2.745-.194.194-.478.27-.744.2-.267-.072-.475-.28-.546-.546l-.498-1.88-2.204 3.812c-.212.367-.681.493-1.048.282-.368-.212-.494-.681-.282-1.048l2.2-3.812-1.88.498c-.273.094-.575.028-.783-.17-.209-.2-.29-.498-.209-.774.081-.277.309-.485.592-.541l.018.01z" transform="translate(-284 -529) translate(284 529) translate(2.82 2.82)"/>
                    <path fill="#000" d="M7.572 40.147c.226.83.978 1.407 1.837 1.41.167 0 .333-.023.494-.065l15.289-4.099c.491-.13.91-.453 1.163-.894.252-.442.318-.966.181-1.456l-7.308-27.26c-.13-.483-.445-.894-.878-1.144-.433-.25-.948-.316-1.43-.186L1.607 10.547c-.49.132-.908.454-1.16.895-.251.442-.316.965-.18 1.455l7.305 27.25zM1.678 12.14c.065-.112.171-.195.296-.23L17.268 7.81c.042-.004.085-.004.127 0 .222-.006.419.146.47.362l5.762 21.493.132-.037 1.823 6.81-16.497 4.418-1.824-6.806.127-.037L1.626 12.51c-.035-.125-.016-.26.052-.37z" transform="translate(-284 -529) translate(284 529) translate(2.82 2.82)"/>
                    <path fill="#000" d="M7.261 34.051l1.824 6.806 16.497-4.418-1.823-6.829-.132.038-16.239 4.366-.127.037zm8.757-.31c.76-.206 1.57.067 2.05.693.479.625.532 1.479.135 2.16-.397.68-1.167 1.053-1.947.942-.78-.11-1.417-.68-1.61-1.445-.261-1.026.35-2.072 1.372-2.35zM7.694 21.846l1.88-.499-2.2 3.812c-.211.367-.085.837.282 1.048.368.212.837.085 1.048-.282l2.205-3.812.498 1.88c.071.267.28.475.545.546.267.071.55-.005.745-.2.195-.195.271-.479.2-.745l-.982-3.661c-.11-.41-.53-.653-.94-.546l-3.662.983c-.282.055-.51.264-.59.54-.082.277-.001.575.207.774.209.199.51.265.783.171l-.02-.01z" transform="translate(-284 -529) translate(284 529) translate(2.82 2.82)"/>
                    <path fill="#FF7900" d="M28.332 20.708c2.587.625 5.192-.966 5.818-3.553.443-1.625-.017-3.363-1.207-4.555-1.19-1.193-2.926-1.658-4.552-1.219-1.626.44-2.893 1.715-3.321 3.344-.75 2.553.71 5.23 3.262 5.983zm-1.072-6.11c.338-.172.753-.048.94.282l.799 1.467 2.538-1.551c.327-.213.765-.12.978.206.212.327.12.765-.207.978l-3.168 1.955c-.111.07-.24.105-.371.104-.06-.001-.12-.009-.179-.024-.187-.05-.345-.173-.437-.343l-1.156-2.115c-.186-.338-.07-.763.263-.959z" transform="translate(-284 -529) translate(284 529) translate(2.82 2.82)"/>
                </g>
            </g>
        </g>
    </g>
</svg>
