<svg xmlns="http://www.w3.org/2000/svg" width="47" height="47" viewBox="0 0 47 47">
    <g fill="none" fill-rule="evenodd">
        <g fill-rule="nonzero">
            <g>
                <g>
                    <g>
                        <path fill="#FFF" d="M7.388 33.544l16.239-4.348L17.86 7.69c-.051-.217-.247-.368-.47-.362-.042-.004-.085-.004-.127 0L1.974 11.44c-.125.035-.231.118-.296.23-.068.111-.087.246-.052.371l5.762 21.503zM15.435 37.027c.328.19.701.29 1.08.291.193 0 .384-.024.57-.07.556-.152 1.03-.517 1.32-1.016.29-.499.368-1.093.216-1.65-.314-1.16-1.509-1.846-2.67-1.532-1.16.314-1.845 1.51-1.531 2.67.15.553.516 1.023 1.015 1.307z" transform="translate(-44 -307) translate(15 292) translate(29 15) translate(2.82 2.82)"/>
                        <path fill="#FF7900" d="M39.175 5.64l-15.29-4.094c-.125-.035-.26-.016-.37.052-.115.062-.199.17-.231.296l-2.026 7.558 2.016 7.52c.25.16.47.324.729.47l.056.037c.23.165.47.33.668.498l.051.038c.442.343.856.696 1.25 1.048.668.597 1.288 1.203 1.918 1.81l.17.164.357.339.38.352.17.155.507.47.136.113c.165.141.334.282.508.418l.085.07c.192.156.39.306.596.47l.146.109c.212.15.428.3.653.47l.1.066c.206.136.427.268.648.4l.136.08c.245.145.503.281.766.417l.17.09c.281.14.563.277.869.413l5.17-19.227c.04-.125.027-.261-.038-.375-.064-.114-.173-.197-.3-.227zM33.92 9.353l-1.64 2.19 1.56 4.63c.091.15.068.344-.056.47l-.658.658-2.473-4.141-3.026 2.467.775 1.805c.021.069.005.144-.042.198l-.179.178-3.835-3.802.179-.183c.055-.056.139-.073.211-.043l1.8.79 2.454-3.013-4.08-2.486.644-.649c.1-.099.246-.135.38-.094l4.7 1.575 2.186-1.64c.592-.47 1.297-.79 1.598-.583l.047.042c.24.338-.099 1.039-.545 1.631z" transform="translate(-44 -307) translate(15 292) translate(29 15) translate(2.82 2.82)"/>
                        <path fill="#000" d="M39.541 4.282L24.247.183c-.49-.135-1.013-.069-1.454.183-.442.253-.764.67-.896 1.162l-1.41 5.221c.029.069.052.14.07.212l.668 2.49 2.059-7.571c.032-.119.11-.22.216-.282.111-.068.246-.087.371-.052L39.175 5.64c.128.028.238.109.304.222.066.114.082.25.043.375l-5.17 19.228-2.138 8.05c-.028.13-.11.241-.224.307-.115.067-.252.082-.378.041l-4.108-1.104.395 1.471c.002.035.002.07 0 .104l3.351.916c.154.04.312.06.47.061.861 0 1.615-.578 1.838-1.41L40.89 6.608c.266-1.013-.334-2.051-1.344-2.326h-.005z" transform="translate(-44 -307) translate(15 292) translate(29 15) translate(2.82 2.82)"/>
                        <path fill="#000" d="M34.493 7.746l-.047-.043c-.3-.207-1.005.132-1.598.583l-2.185 1.64-4.7-1.574c-.135-.042-.281-.005-.38.094l-.673.625 4.084 2.468-2.458 3.031-1.795-.77c-.073-.031-.156-.014-.212.041l-.178.184 3.849 3.807.179-.179c.047-.054.063-.129.042-.197l-.776-1.805 3.008-2.491 2.444 4.108.658-.658c.125-.126.148-.32.057-.47l-1.542-4.63 1.64-2.19c.47-.592.785-1.292.583-1.598v.024zM7.572 39.677c.226.83.978 1.407 1.837 1.41.167 0 .333-.023.494-.065l15.289-4.099c.491-.13.91-.453 1.163-.894.252-.442.318-.966.181-1.456l-.606-2.256L21.559 16l-2.35-8.7c-.275-.99-1.295-1.577-2.289-1.316L1.607 10.077c-.49.132-.908.454-1.16.895-.251.442-.316.965-.18 1.455l7.305 27.25zM1.678 11.67c.065-.112.171-.195.296-.23L17.268 7.34c.042-.004.085-.004.127 0 .222-.006.419.146.47.362l5.762 21.493.132-.037 1.823 6.81-16.497 4.418-1.824-6.806.127-.037L1.626 12.04c-.035-.125-.016-.26.052-.37z" transform="translate(-44 -307) translate(15 292) translate(29 15) translate(2.82 2.82)"/>
                        <path fill="#000" d="M7.261 33.581l1.824 6.806 16.497-4.418-1.823-6.829-.132.038-16.239 4.366-.127.038zm7.375.47c.44-.761 1.296-1.182 2.168-1.067.873.115 1.59.744 1.817 1.594.152.557.074 1.15-.216 1.65-.29.499-.764.864-1.32 1.015-.186.046-.377.07-.57.07-.775-.002-1.491-.417-1.879-1.09-.387-.671-.387-1.5 0-2.172z" transform="translate(-44 -307) translate(15 292) translate(29 15) translate(2.82 2.82)"/>
                    </g>
                </g>
            </g>
        </g>
    </g>
</svg>
