<svg xmlns="http://www.w3.org/2000/svg" width="47" height="47" viewBox="0 0 47 47">
    <g fill="none" fill-rule="evenodd">
        <g fill-rule="nonzero">
            <g>
                <g>
                    <g>
                        <path fill="#FFF" d="M18.621 34.583c-.227-.85-.944-1.48-1.817-1.595-.872-.115-1.728.307-2.168 1.068-.387.673-.387 1.5 0 2.173.388.672 1.104 1.087 1.88 1.089.192 0 .383-.024.569-.07.556-.152 1.03-.517 1.32-1.016.29-.499.368-1.093.216-1.65zM17.86 7.69c-.051-.218-.247-.369-.47-.363-.042-.004-.085-.004-.127 0L1.974 11.44c-.125.035-.231.118-.296.23-.068.111-.087.246-.052.371l5.762 21.503 16.239-4.348L17.86 7.69z" transform="translate(-164 -175) translate(135 160) translate(29 15) translate(2.82 2.82)"/>
                        <path fill="#FF7900" d="M32.543 8.272l-.113.498c-.008.033-.003.068.014.098.018.029.047.05.08.057l.47.132c.068.02.108.091.09.16l-.1.371c-.018.067-.087.107-.154.09L31.716 9.4c-.074-.024-.153-.024-.226 0l-.714.418c-.068.044-.118.11-.141.188l-.132.494c-.018.067.022.137.09.155l1.226.329c.08.02.163.01.235-.028l.72-.419c.072-.034.155-.044.234-.028l.371.099c.068.018.108.088.09.155l-.099.371c-.018.068-.087.11-.155.094l-.371-.103c-.08-.015-.163-.004-.235.033l-.72.413c-.072.037-.155.049-.235.033l-1.245-.324c-.08-.015-.162-.003-.235.033l-.72.437c-.065.046-.115.112-.14.188l-.3 1.114c-.019.067.021.137.088.155l1.236.334c.078.023.145.073.188.14l.419.72c.037.072.047.156.028.235l-.493 1.814c-.02.08-.01.163.028.235l.211.362c.77-.179 1.492-.519 2.12-.997l.273-1.01c.023-.077.073-.144.14-.188l.564-.324c.067-.046.116-.112.142-.188l.136-.47c.015-.08.004-.163-.033-.235l-.324-.564c-.037-.073-.049-.155-.033-.235l.136-.47c.018-.068.088-.108.155-.09l.371.1c.078.025.144.076.188.145l.296.507c.373-1.541.063-3.168-.85-4.465l-1.302-.347c-.059-.025-.126 0-.155.056z" transform="translate(-164 -175) translate(135 160) translate(29 15) translate(2.82 2.82)"/>
                        <path fill="#FF7900" d="M39.175 5.64l-15.29-4.094c-.125-.035-.26-.016-.37.052-.115.062-.199.17-.231.296l-2.026 7.558 2.016 7.52c.25.16.47.324.729.47l.056.037c.23.165.47.33.668.498l.051.038c.442.343.856.696 1.25 1.048.668.597 1.288 1.203 1.918 1.81l.17.164.357.339.38.352.17.155.507.47.136.113c.165.141.334.282.508.418l.085.07c.192.156.39.306.596.47l.146.109c.212.15.428.3.653.47l.1.066c.206.136.427.268.648.4l.136.08c.245.145.503.281.766.417l.17.09c.281.14.563.277.869.413l5.17-19.227c.07-.26-.08-.527-.338-.602zm-3.662 7.708c-.909 3.306-4.316 5.258-7.628 4.371h-.038c-3.323-.909-5.281-4.34-4.373-7.663.909-3.324 4.34-5.282 7.663-4.374h.043c3.31.927 5.248 4.357 4.333 7.67v-.004z" transform="translate(-164 -175) translate(135 160) translate(29 15) translate(2.82 2.82)"/>
                        <path fill="#FF7900" d="M27.622 12.789l-.498-.132c-.075-.028-.14-.079-.184-.146l-.87-1.504c-.044-.067-.11-.116-.187-.14l-.371-.104c-.08-.015-.163-.003-.235.033l-.72.414c-.066.045-.115.111-.14.188l-.301 1.113c-.016.08-.004.163.033.235l.324.564c.037.071.047.153.028.23l-.075.287c.306.726.762 1.378 1.34 1.913l.427-.244c.066-.046.116-.112.141-.188l.122-.47c.024-.077.074-.143.141-.188l.658-.38c.07-.044.121-.11.146-.189l.329-1.137c.008-.035.001-.072-.02-.102-.02-.03-.052-.049-.088-.053zM28.914 7.99l-1.114-.3c-.032-.013-.058-.038-.07-.07-.014-.032-.014-.068 0-.1l.132-.493c.007-.034.028-.062.057-.08.03-.018.065-.023.098-.014l1.114.3c.08.015.162.004.235-.033l.714-.423c.066-.045.116-.111.141-.188l.09-.333c-2.285-.329-4.533.795-5.64 2.82l.347.094c.078.023.144.073.188.14l.315.56c.046.066.112.116.188.141l.498.136c.08.015.163.004.235-.033l.56-.324c.069-.043.12-.11.145-.188l.113-.484c.023-.079.075-.146.146-.188l.559-.324c.073-.037.155-.048.235-.033l.47.136c.07.015.14-.026.16-.094l.131-.47c.024-.056.004-.121-.047-.155z" transform="translate(-164 -175) translate(135 160) translate(29 15) translate(2.82 2.82)"/>
                        <path fill="#000" d="M39.541 4.282L24.247.183c-.49-.135-1.013-.069-1.454.183-.442.253-.764.67-.896 1.162l-1.41 5.221c.029.069.052.14.07.212l.668 2.49 2.059-7.571c.032-.119.11-.22.216-.282.111-.068.246-.087.371-.052L39.175 5.64c.259.071.413.336.347.597l-5.17 19.228-2.138 8.05c-.028.13-.11.241-.224.307-.115.067-.252.082-.378.041l-4.108-1.104.395 1.471c.002.035.002.07 0 .104l3.351.916c.154.04.312.06.47.061.861 0 1.615-.578 1.838-1.41L40.89 6.608c.266-1.013-.334-2.051-1.344-2.326h-.005zM25.93 32.34l-4.371-16.318-2.35-8.7c-.265-1-1.287-1.598-2.289-1.339L1.607 10.077c-.49.132-.908.454-1.16.895-.251.442-.316.965-.18 1.455l7.305 27.26c.224.83.977 1.408 1.837 1.41.167-.001.333-.023.494-.066l15.289-4.108c.491-.13.91-.453 1.163-.894.252-.442.318-.966.181-1.456l-.606-2.232zM9.085 40.388l-1.824-6.806.127-.037L1.626 12.04c-.035-.125-.016-.26.052-.37.065-.113.171-.196.296-.231L17.268 7.34c.042-.004.085-.004.127 0 .222-.006.419.146.47.362l5.762 21.493.132-.037 1.823 6.81-16.497 4.418z" transform="translate(-164 -175) translate(135 160) translate(29 15) translate(2.82 2.82)"/>
                        <path fill="#000" d="M23.627 29.196L7.388 33.544l-.127.038 1.824 6.805 16.497-4.418-1.823-6.829-.132.056zm-5.222 7.05c-.29.5-.764.864-1.32 1.016-.186.046-.377.07-.57.07-1.106.012-2.046-.808-2.183-1.906-.137-1.099.572-2.125 1.648-2.385 1.161-.308 2.353.381 2.665 1.542.144.56.058 1.154-.24 1.65v.013zM31.156 5.687h-.042c-3.324-.909-6.755 1.05-7.663 4.373-.909 3.324 1.05 6.755 4.373 7.664h.038c3.323.908 6.754-1.05 7.663-4.374.908-3.323-1.05-6.754-4.373-7.663h.004zM27.401 14.1c-.025.078-.076.145-.146.188l-.658.38c-.067.045-.117.112-.14.189l-.123.47c-.025.076-.075.142-.14.188l-.429.244c-.574-.542-1.026-1.2-1.325-1.932l.075-.286c.02-.078.01-.16-.028-.23l-.324-.565c-.037-.072-.049-.155-.033-.235l.31-1.113c.025-.077.075-.143.141-.188l.696-.4c.072-.036.155-.048.235-.033l.37.104c.078.024.144.073.189.14l.87 1.504c.043.067.108.118.183.146l.498.132c.067.018.107.087.09.155L27.4 14.1zm1.471-5.49c-.02.069-.09.11-.16.094l-.47-.136c-.08-.015-.162-.003-.235.033l-.583.329c-.07.042-.122.11-.145.188l-.132.493c-.024.079-.076.145-.145.188l-.56.325c-.072.036-.155.048-.235.033l-.498-.137c-.076-.025-.142-.074-.188-.14l-.324-.565c-.044-.068-.11-.118-.188-.14l-.348-.095c1.108-2.024 3.356-3.148 5.64-2.82l-.09.334c-.025.076-.074.142-.14.188l-.72.414c-.072.036-.155.048-.235.033l-1.113-.301c-.033-.009-.069-.003-.098.014-.029.018-.05.047-.058.08l-.117.498c-.018.067.022.137.09.155l1.113.3c.068.02.107.089.09.156l-.15.48zm5.978 4.38l-.296-.507c-.044-.068-.11-.12-.188-.146l-.37-.098c-.068-.018-.138.022-.156.09l-.136.47c-.016.079-.004.162.033.234l.324.564c.037.073.048.155.033.235l-.136.47c-.026.076-.075.142-.142.188l-.564.324c-.067.044-.117.11-.14.188l-.273 1.016c-.628.477-1.35.817-2.12.996l-.211-.362c-.038-.072-.048-.156-.028-.235l.493-1.856c.019-.08.009-.163-.028-.235l-.395-.668c-.044-.068-.11-.118-.188-.14l-1.236-.335c-.067-.018-.107-.087-.09-.155l.301-1.114c.026-.076.075-.142.141-.188l.72-.413c.072-.036.155-.048.235-.033l1.236.334c.08.015.162.004.235-.033l.719-.414c.072-.037.155-.048.235-.033l.371.104c.068.015.137-.027.155-.094l.099-.372c.018-.067-.022-.136-.09-.155l-.37-.098c-.08-.017-.163-.007-.236.028l-.719.418c-.072.037-.156.047-.235.028l-1.227-.329c-.067-.018-.107-.087-.089-.155l.132-.493c.023-.078.073-.144.14-.188l.701-.428c.073-.037.155-.048.235-.033l1.114.3c.067.019.137-.021.155-.088l.099-.372c.018-.068-.022-.14-.09-.16l-.47-.131c-.033-.008-.062-.029-.08-.058-.017-.03-.022-.064-.014-.097l.137-.498c.007-.033.028-.062.058-.079.03-.017.064-.02.097-.01l1.302.347c.905 1.304 1.203 2.935.817 4.474v-.004z" transform="translate(-164 -175) translate(135 160) translate(29 15) translate(2.82 2.82)"/>
                    </g>
                </g>
            </g>
        </g>
    </g>
</svg>
