<svg xmlns="http://www.w3.org/2000/svg" width="47" height="47" viewBox="0 0 47 47">
    <g fill="none" fill-rule="evenodd">
        <g fill-rule="nonzero">
            <g>
                <g>
                    <path fill="#FFF" d="M22.269 30.028L23.627 29.662 22.269 30.028zM7.393 34.014L16.727 31.514 16.727 31.514zM17.023 37.487c1.036-.278 1.65-1.342 1.372-2.377-.278-1.036-1.342-1.65-2.377-1.372-1.036.277-1.65 1.341-1.373 2.377.133.497.459.921.905 1.179.446.257.976.327 1.473.193z" transform="translate(-164 -529) translate(164 529) translate(3.29 2.82)"/>
                    <path fill="#000" d="M19.496 27.904H20.496V33.638H19.496zM39.452 4.437L24.158.343c-.486-.136-1.007-.07-1.445.181-.437.252-.755.67-.882 1.159l-1.41 5.273c.07.152.126.31.17.47l.582 2.171 2.022-7.552c.032-.127.115-.234.23-.297.074-.042.158-.065.244-.065h.127l15.29 4.098c.26.071.416.34.347.602l-5.762 21.52-8.183-2.19 2.106 7.864.037.127.212.79 3.318.888c.153.04.311.062.47.065.858-.007 1.606-.583 1.833-1.41l7.309-27.26c.266-1.013-.334-2.051-1.345-2.326l.024-.014z" transform="translate(-164 -529) translate(164 529) translate(3.29 2.82)"/>
                    <path fill="#000" d="M9.4 41.557c.167 0 .332-.023.493-.065l15.299-4.099c.491-.13.91-.453 1.163-.894.252-.442.318-.966.181-1.456l-.47-1.781-.033-.132-3.943-14.636c-.473.611-.782 1.333-.898 2.097l2.43 9.075-1.358.362-5.537 1.486-9.339 2.5L1.626 12.51c-.035-.125-.016-.26.052-.37.065-.113.171-.196.296-.231L17.268 7.81c.042-.004.085-.004.127 0 .222-.006.419.146.47.362L19.67 14.9c.374-.348.778-.662 1.207-.94l-1.65-6.166c-.126-.485-.441-.899-.874-1.15-.434-.252-.95-.32-1.433-.19L1.607 10.547c-.49.132-.908.454-1.16.895-.251.442-.316.965-.18 1.455l7.305 27.26c.228.822.974 1.394 1.828 1.4zm6.618-7.816c.76-.206 1.57.067 2.05.693.479.625.532 1.479.135 2.16-.397.68-1.167 1.053-1.947.942-.78-.11-1.417-.68-1.61-1.445-.261-1.026.35-2.072 1.372-2.35z" transform="translate(-164 -529) translate(164 529) translate(3.29 2.82)"/>
                    <path fill="#FF7900" d="M33.549 16.408l-2.21-4.907c-.142-.317-.462-.518-.81-.507-.347.01-.654.229-.778.554l-.611 1.668c-2.694-1.158-5.79-.884-8.24.729-.428.277-.833.592-1.207.94L17.86 8.159c-.051-.217-.247-.368-.47-.362-.042-.004-.085-.004-.127 0L1.974 11.91c-.125.035-.231.118-.296.23-.068.111-.087.246-.052.371l5.762 21.503 9.34-2.5 5.54-1.486 1.359-.362-2.43-9.075c.207-1.42 1.078-2.655 2.346-3.327 1.267-.672 2.778-.7 4.07-.076l-.56 1.476c-.117.321-.031.682.219.916.25.234.614.297.928.16l4.907-2.204c.43-.193.626-.695.442-1.128z" transform="translate(-164 -529) translate(164 529) translate(3.29 2.82)"/>
                </g>
            </g>
        </g>
    </g>
</svg>
