<svg xmlns="http://www.w3.org/2000/svg" width="47" height="47" viewBox="0 0 47 47">
    <g fill="none" fill-rule="evenodd">
        <g fill-rule="nonzero">
            <g>
                <g>
                    <path fill="#FFF" d="M15.454 40.707c.328.19.7.29 1.08.291.193-.002.384-.027.57-.075 1.002-.269 1.675-1.209 1.607-2.245-.068-1.036-.859-1.88-1.888-2.015-1.03-.135-2.011.477-2.344 1.46-.333.984.075 2.065.975 2.584zM14.039 7.215l-.94-3.563C10.273 5.53 8.473 8.607 8.22 11.99l3.582-.94c.347-1.473 1.126-2.809 2.237-3.836zM19.27 11.003l2.002 7.562c2.797-1.032 4.454-3.918 3.936-6.853-.519-2.936-3.065-5.08-6.046-5.09-.542 0-1.08.073-1.603.216-1.909.513-3.455 1.912-4.155 3.76l3.516-.94c.49-.143 1.017-.08 1.46.173.444.254.765.677.89 1.172zM22.936 6.232c.688.397 1.31.9 1.842 1.49l3.549-.94c-1.898-2.886-5.04-4.715-8.488-4.94l.94 3.554c.758.164 1.486.447 2.157.836z" transform="translate(-284 -661) translate(284 661) translate(7.52 .94)"/>
                    <path fill="#FFF" d="M19.9 18.894l-2.016-7.52c-.059-.213-.25-.362-.47-.367-.04-.007-.082-.007-.123 0l-4.253 1.138c-.213 1.867.446 3.729 1.786 5.047 1.34 1.317 3.212 1.945 5.076 1.702zM24.266 18.358l.94 3.563c2.836-1.887 4.637-4.982 4.874-8.38l-3.577.94c-.34 1.487-1.12 2.838-2.237 3.877zM13.63 17.954l-3.567.94c1.893 2.836 5 4.626 8.403 4.841l-.94-3.567c-1.49-.332-2.848-1.103-3.896-2.214z" transform="translate(-284 -661) translate(284 661) translate(7.52 .94)"/>
                    <path fill="#000" d="M17.39 11.003c.22.004.412.154.47.366l2.016 7.52c.285-.035.568-.088.846-.16.179-.046.355-.102.527-.169l-1.979-7.557c-.125-.495-.446-.918-.89-1.172-.443-.253-.97-.316-1.46-.172l-3.516.94c-.191.501-.316 1.026-.37 1.56l4.253-1.138c.033-.01.068-.017.103-.018zM11.802 11.03l-3.582.94v.175l3.553-.94c-.023-.052.015-.113.029-.174zM7.59 43.358c.225.83.978 1.408 1.838 1.41.16 0 .317-.023.47-.066l15.294-4.094c.49-.125.908-.443 1.161-.88.253-.438.32-.96.183-1.447l-3.341-12.553-.33.098c-.347.09-.695.165-1.043.23l1.824 6.816.131-.033 1.824 6.806-16.497 4.422-1.824-6.81.127-.033-5.762-21.507c-.039-.126-.023-.261.043-.375.066-.113.177-.194.305-.222L5.87 14.1c-.047-.48-.07-.961-.066-1.443l-4.178 1.119c-.489.126-.906.444-1.158.882-.252.437-.317.958-.181 1.444L7.59 43.358z" transform="translate(-284 -661) translate(284 661) translate(7.52 .94)"/>
                    <path fill="#000" d="M9.104 44.067L25.6 39.645l-1.824-6.806-.131.033-16.239 4.352-.127.033 1.824 6.81zm6.876-7.346c1.146-.274 2.303.414 2.608 1.552.306 1.139-.35 2.313-1.48 2.65-.186.048-.377.073-.569.075-1.09-.004-2.008-.813-2.15-1.894-.141-1.08.539-2.099 1.591-2.383z" transform="translate(-284 -661) translate(284 661) translate(7.52 .94)"/>
                    <path fill="#FF7900" d="M21.112 20.097c-.639.171-1.298.258-1.96.259h-.131l.902 3.379c1.406-.1 2.78-.468 4.047-1.086l-.94-3.379c-.598.362-1.244.64-1.918.827zM26.466 10.81c.186.703.27 1.43.249 2.157l3.389-.907c-.048-.72-.166-1.435-.353-2.134-.18-.654-.417-1.29-.71-1.903l-3.37.907c.347.589.615 1.22.795 1.88zM17.193 5.476c.677-.183 1.376-.269 2.077-.254l-.888-3.375c-1.401.096-2.77.461-4.033 1.076l.907 3.38c.604-.365 1.256-.644 1.937-.827zM11.84 14.744c-.173-.661-.257-1.343-.25-2.026l-3.374.912c.052.678.167 1.35.343 2.007.185.697.438 1.374.756 2.02l3.375-.916c-.377-.622-.663-1.294-.85-1.997z" transform="translate(-284 -661) translate(284 661) translate(7.52 .94)"/>
                    <path fill="#000" d="M12.69 16.741l-3.389.907c.218.437.467.858.743 1.26l3.567-.94c-.347-.377-.655-.788-.921-1.227zM25.671 8.93l3.37-.902c-.21-.439-.449-.862-.714-1.27l-3.549.94c.338.38.638.793.893 1.232zM23.03 19.27l.94 3.38c.437-.216.86-.46 1.264-.73l-.94-3.562c-.389.347-.812.653-1.264.912zM15.256 6.303l-.907-3.38c-.437.215-.86.459-1.264.729l.94 3.563c.377-.347.79-.653 1.231-.912zM11.59 12.718c.005-.505.06-1.01.165-1.504l-3.554.94c-.032.485-.032.972 0 1.457l3.39-.893zM20.793 5.396l-.94-3.554c-.485-.035-.972-.035-1.457 0l.874 3.38c.512.005 1.023.063 1.523.174zM26.522 14.5l3.577-.94c.033-.487.033-.976 0-1.462l-3.389.907c-.012.503-.075 1.004-.188 1.494zM17.512 20.168l.94 3.567c.485.035.972.035 1.457 0l-.888-3.384c-.508-.009-1.014-.07-1.509-.183z" transform="translate(-284 -661) translate(284 661) translate(7.52 .94)"/>
                    <path fill="#000" d="M6.82 13.823c.565 6.667 6.328 11.676 13.009 11.307 6.68-.37 11.857-5.984 11.683-12.673C31.338 5.768 25.878.43 19.187.407 12.496.387 7 5.688 6.782 12.376v.743c.005.235.019.47.038.705zm1.381-1.66v-.173c.254-3.384 2.056-6.462 4.884-8.338.405-.27.827-.514 1.264-.729 1.262-.615 2.632-.98 4.033-1.076.485-.035.972-.035 1.457 0 3.445.221 6.586 2.045 8.488 4.926.265.407.504.83.714 1.269.293.612.53 1.249.71 1.903.187.698.305 1.413.352 2.134.248 3.917-1.613 7.67-4.883 9.842-1.579 1.052-3.404 1.675-5.297 1.81-.485.035-.972.035-1.457 0-3.4-.21-6.51-1.993-8.408-4.823-.276-.402-.525-.823-.743-1.26-.318-.647-.571-1.324-.756-2.02-.175-.655-.29-1.323-.343-1.998-.038-.488-.043-.978-.014-1.466z" transform="translate(-284 -661) translate(284 661) translate(7.52 .94)"/>
                    <path fill="#000" d="M12.69 16.741c.273.435.587.84.94 1.213 1.046 1.109 2.4 1.88 3.887 2.214.495.113 1 .174 1.509.183h.131c.662 0 1.32-.088 1.96-.258.672-.186 1.316-.463 1.913-.823.435-.262.843-.568 1.217-.912 1.121-1.032 1.907-2.376 2.256-3.859.116-.496.181-1.003.193-1.513.03-.733-.048-1.466-.23-2.176-.18-.66-.448-1.291-.795-1.88-.66-1.126-1.603-2.06-2.735-2.712-2.38-1.384-5.326-1.357-7.68.07-.436.261-.844.567-1.217.912-1.108 1.022-1.887 2.35-2.237 3.817 0 .06-.033.122-.047.183-.105.495-.16.999-.165 1.504-.03 1.424.352 2.826 1.1 4.037zm.329-4.582c.31-3.025 2.783-5.37 5.82-5.52 3.038-.151 5.73 1.938 6.338 4.918.607 2.98-1.051 5.957-3.905 7.008-.172.066-.348.123-.526.17-.278.07-.561.124-.846.159-1.862.244-3.732-.381-5.073-1.696-1.34-1.315-2.002-3.173-1.794-5.04h-.014z" transform="translate(-284 -661) translate(284 661) translate(7.52 .94)"/>
                </g>
            </g>
        </g>
    </g>
</svg>
