<svg xmlns="http://www.w3.org/2000/svg" width="47" height="47" viewBox="0 0 47 47">
    <g fill="none" fill-rule="evenodd">
        <g fill-rule="nonzero">
            <g>
                <g>
                    <path fill="#FFF" d="M39.353 7.99c.672-.385 1.087-1.1 1.089-1.874.002-.774-.41-1.491-1.079-1.88-.67-.39-1.496-.391-2.167-.006-1.128.649-2.148 2.73-2.68 4.051 1.364.235 3.61.405 4.837-.291zM15.435 35.147c.328.19.701.29 1.08.291.193 0 .384-.024.57-.07.556-.152 1.03-.517 1.32-1.016.29-.499.368-1.093.216-1.65-.314-1.16-1.509-1.846-2.67-1.532-1.16.314-1.845 1.51-1.531 2.67.15.553.516 1.023 1.015 1.307zM29.662 1.65c-.774-.007-1.491.402-1.88 1.07-.389.669-.389 1.495 0 2.163.705 1.222 2.735 2.2 4.028 2.693.202-1.41.357-3.722-.292-4.85-.384-.662-1.09-1.072-1.856-1.076zM40.42 11.788l-3.901-1.049-4.343 16.239 3.896 1.043c.207.043.411-.08.47-.282l4.141-15.463c.028-.102.014-.212-.037-.305-.05-.087-.13-.153-.226-.183z" transform="translate(-164 -661) translate(164 661) translate(2.35 3.76)"/>
                    <path fill="#000" d="M40.791 10.425l-2.434-.654c.597-.087 1.173-.281 1.701-.573 1.14-.619 1.855-1.807 1.866-3.105.011-1.297-.682-2.498-1.812-3.136-1.129-.639-2.516-.614-3.621.065-1.565.907-2.717 3.332-3.257 4.7.206-1.443.423-4.122-.47-5.687C31.779.328 29.596-.257 27.89.728c-1.707.986-2.292 3.168-1.307 4.874.317.515.72.97 1.194 1.345l-2.44-.654c-.966-.254-1.956.319-2.218 1.283l-.94 3.46.729 2.72 1.56-5.813c.058-.204.263-.33.47-.287L28.84 8.7l-3.652 13.63.729 2.726 4.286-15.98 4.935 1.325-4.324 16.21-4.798-1.283.422 1.575 9.283 2.481c.153.042.311.062.47.062.821 0 1.54-.551 1.753-1.345l4.127-15.458c.126-.464.062-.959-.178-1.375-.24-.417-.636-.72-1.1-.843zm-8.967-2.849C30.55 7.083 28.5 6.11 27.796 4.883c-.596-1.038-.237-2.363.801-2.958 1.038-.596 2.363-.237 2.959.801.625 1.128.47 3.44.268 4.85zm2.693.72c.53-1.321 1.55-3.403 2.679-4.052.671-.385 1.498-.383 2.167.006.67.389 1.081 1.106 1.079 1.88-.002.774-.417 1.489-1.089 1.874-1.227.682-3.473.512-4.836.292zm6.19 3.98L36.566 27.73c-.06.202-.264.325-.47.282l-3.92-1.034 4.348-16.239 3.896 1.049c.103.026.19.092.244.183.054.092.069.202.043.305z" transform="translate(-164 -661) translate(164 661) translate(2.35 3.76)"/>
                    <path fill="#FF7900" d="M35.161 10.378L30.226 9.052 25.939 25.046 26.015 25.328 30.813 26.611zM17.86 5.81c-.051-.218-.247-.369-.47-.363-.042-.004-.085-.004-.127 0L1.974 9.56c-.125.035-.231.118-.296.23-.068.111-.087.246-.052.371l5.762 21.503 16.239-4.348L17.86 5.81z" transform="translate(-164 -661) translate(164 661) translate(2.35 3.76)"/>
                    <path fill="#000" d="M9.4 39.207c.167 0 .332-.023.493-.065l15.299-4.099c.491-.13.91-.453 1.163-.894.252-.442.318-.966.181-1.456l-7.308-27.26c-.13-.483-.445-.894-.878-1.144-.433-.25-.948-.316-1.43-.186L1.607 8.197c-.49.132-.908.454-1.16.895-.251.442-.316.965-.18 1.455l7.305 27.26c.228.822.974 1.394 1.828 1.4zM1.626 10.161c-.035-.125-.016-.26.052-.37.065-.113.171-.196.296-.231L17.268 5.46c.042-.004.085-.004.127 0 .222-.006.419.146.47.362l5.762 21.493.132-.037 1.823 6.81-16.497 4.418-1.824-6.805.127-.038L1.626 10.16z" transform="translate(-164 -661) translate(164 661) translate(2.35 3.76)"/>
                    <path fill="#000" d="M9.085 38.507l16.497-4.418-1.823-6.829-.132.038-16.239 4.366-.127.037 1.824 6.806zm5.55-6.33c.441-.762 1.297-1.184 2.17-1.069.872.116 1.589.745 1.816 1.595.152.556.074 1.15-.216 1.65-.29.498-.764.863-1.32 1.014-.186.047-.377.07-.57.071-.775-.002-1.491-.417-1.879-1.09-.387-.672-.387-1.5 0-2.172z" transform="translate(-164 -661) translate(164 661) translate(2.35 3.76)"/>
                </g>
            </g>
        </g>
    </g>
</svg>
