<svg xmlns="http://www.w3.org/2000/svg" xmlns:xlink="http://www.w3.org/1999/xlink" width="376" height="387" viewBox="0 0 376 387">
    <defs>
        <path id="a" d="M.92.011h375v385H.92z"/>
        <linearGradient id="c" x1="50%" x2="50%" y1="0%" y2="100%">
            <stop offset="0%" stop-color="#FFBEEC"/>
            <stop offset="100%" stop-color="#FF8AD4"/>
        </linearGradient>
        <path id="d" d="M295.242 84.873c22.868 25.144-11.46 76.195-3.973 101.135 7.554 24.94 3.198 53.286-3.608 82.86-6.738 29.574-16.062 60.442-36.752 87.63-20.759 27.189-52.883 50.834-86.097 52.333-33.213 1.432-67.447-19.215-96.782-43.61-29.333-24.463-53.767-52.606-59.28-83.542C3.237 250.674-7.536 87.18 10.704 62.24 28.876 37.37 71.882 35.917 94.546 10.704c22.664-25.212 99.523 3.599 123.82.805 24.366-2.862 17.808 10.472 40.676 35.684l36.2 37.68z"/>
        <path id="f" d="M0 .531h218.593v171.236H0z"/>
        <path id="h" d="M.394.551h145.915v135.58H.394z"/>
        <path id="j" d="M.603.67h33.365v9.8H.603z"/>
        <path id="l" d="M0 416.699h219.333V.716H0z"/>
    </defs>
    <g fill="none" fill-rule="evenodd" transform="translate(0 1)">
        <mask id="b" fill="#fff">
            <use xlink:href="#a"/>
        </mask>
        <use fill="#FFF" xlink:href="#a"/>
        <g mask="url(#b)">
            <path fill="url(#c)" d="M241.584 114.459c22.869 25.144 42.198 46.609 49.685 71.549 7.554 24.94 3.198 53.286-3.608 82.86-6.738 29.574-16.062 60.442-36.752 87.63-20.759 27.189-52.883 50.834-86.097 52.333-33.213 1.432-67.447-19.215-96.782-43.61-29.333-24.463-53.767-52.606-59.28-83.542-5.513-31.005 7.826-64.803 26.067-89.743 18.172-24.872 41.244-40.817 63.908-66.03 22.664-25.212 44.92-59.76 69.218-62.553 24.365-2.863 50.773 25.893 73.641 51.106" transform="translate(41 -26)"/>
            <g transform="translate(41 -26)">
                <mask id="e" fill="#fff">
                    <use xlink:href="#d"/>
                </mask>
                <g mask="url(#e)">
                    <g transform="translate(36.394 33.183)">
                        <path fill="#714E46" d="M193.558 270.55c-16.362-13.006-57.48-13.845-59.578-48.669-.418-10.07-.838-19.72-.838-19.72H83.354s-.42 9.65-.84 19.72c-2.097 34.824-43.214 35.663-59.577 48.67C8.074 282.364 1.52 299.72.444 339.278c4.406 43.485 41.126 77.42 85.773 77.42h131.491c.081-11.51-1.494-50.58-1.494-64.753 0-48.668-6.293-68.387-22.656-81.394"/>
                        <g transform="translate(0 244.932)">
                            <mask id="g" fill="#fff">
                                <use xlink:href="#f"/>
                            </mask>
                            <path fill="#000" d="M149.597.553c-.374-.724-9.288 16.616-41.63 16.616-32.34 0-41.253-17.34-41.627-16.616C33.645 12.343 5.548 28.832 0 46.681V85.55a86.21 86.21 0 0 0 3.617 24.767c11.456 5.706 27.156 3.97 30.649 3.97.199 15.205.209 29.448.164 40.197 14.419 10.851 29.146 17.401 51.787 17.284h95.427a2399.43 2399.43 0 0 1 .027-57.48c4.195 0 26.013 2.517 36.922-8.393 0 0-.84-33.563-1.678-53.703-.832-19.94-31.283-38.644-67.318-51.638" mask="url(#g)"/>
                        </g>
                        <path fill="#000" d="M146.657 74.124c9.579-2.625 18.454-15.298 9.324-28.175-9.131-12.877-15.498 11.073-15.498 11.073s4.316 12.505 6.174 17.102"/>
                        <path fill="#714E46" d="M135.702 54.118c18.578 15.417 18.79 45.44 19.292 67.81.5 22.37 5.859 64.15.079 71.07-5.78 6.92-44.541 43.334-93.023 4.363-6.869-7.641-13.44-28.35-16.896-38.133-9.085 7.45-24.89 2.335-26.425-21.346-.872-13.438 14.73-20.709 21.744-4.865-4.238-35.515-1.41-70.461 13.305-77.136 14.716-6.673 40.633-31.219 81.924-1.763"/>
                        <g transform="translate(13.598 .165)">
                            <mask id="i" fill="#fff">
                                <use xlink:href="#h"/>
                            </mask>
                            <path fill="#000" d="M22.296 64.663C8.911 54.606-5.354 72.63 2.766 93.471c8.119 20.84 12.546 29.844 14.633 30.604 12.543 4.568 10.34 13.52 12.87 11.851 2.529-1.669 14.047-11.176 8.52-62.996 14.482 1.351 19.383-3.054 19.383-3.054 24.298-7.404 43.158 2.306 54.084-6.583 29.448 4.04 51.662-46.45 14.686-43.141.402-25.175-26.1-23.747-35.808-8.967-13.446-7.823-44.64 4.713-48.567 21-3.926 16.286-22.357 9.07-20.27 32.478" mask="url(#i)"/>
                        </g>
                        <path fill="#563530" d="M84.339 138.255a1.544 1.544 0 0 1-1.456-1.03c-2.367-6.673-5.988-8.47-8.592-7.923-2.483.52-4.208 2.938-4.013 5.624a1.545 1.545 0 0 1-1.43 1.653 1.536 1.536 0 0 1-1.651-1.43c-.307-4.221 2.47-8.035 6.46-8.871 3.88-.815 9.106 1.365 12.138 9.915a1.544 1.544 0 0 1-1.456 2.062"/>
                        <path fill="#FF7900" d="M55.893 34.114C38.85 39.605 18.595 49.29 31.72 126.166c-10.322-.015-10.322 30.403 6.461 31.661 16.462 1.236 8.391-32.514-.01-31.483-7.88-65.548 8.401-81.21 11.66-82.362 3.29-2.144 6.06-9.868 6.06-9.868"/>
                        <path fill="#563530" d="M109.3 169.994a1.544 1.544 0 0 1-.817-2.857c7.465-4.638 4.41-16.797 1.174-29.67-1.633-6.501-3.324-13.224-3.506-18.944a1.545 1.545 0 0 1 1.494-1.593c.843-.016 1.566.642 1.594 1.495.173 5.387 1.82 11.946 3.415 18.29 3.363 13.38 6.84 27.218-2.54 33.046a1.534 1.534 0 0 1-.815.233M62.461 114.115a1.545 1.545 0 0 1-1.378-2.24c1.705-3.382 7.28-7.442 14.25-8.303a1.54 1.54 0 0 1 1.723 1.344 1.544 1.544 0 0 1-1.344 1.722c-5.618.695-10.535 3.981-11.87 6.628-.271.539-.816.85-1.38.85M129.905 132.06a1.545 1.545 0 0 1-1.54-1.69c.858-9.031 5.395-12.417 9.355-12.574 4.077-.172 7.697 2.86 8.43 7.029a1.544 1.544 0 1 1-3.043.534c-.467-2.653-2.724-4.574-5.264-4.476-2.655.105-5.733 2.73-6.402 9.778-.076.8-.749 1.4-1.536 1.4M145.24 103.318a1.54 1.54 0 0 1-1.17-.533c-1.941-2.243-7.51-4.232-13.127-3.536a1.544 1.544 0 1 1-.38-3.066c6.967-.862 13.364 1.715 15.844 4.58a1.545 1.545 0 0 1-1.168 2.555M105.549 185.674c-5.916 0-12.41-3.683-17.438-9.908a1.545 1.545 0 1 1 2.403-1.941c3.489 4.319 9.317 8.883 15.277 8.758 3.74-.083 7.056-2.049 9.856-5.845a1.545 1.545 0 1 1 2.487 1.835c-3.398 4.606-7.529 6.994-12.275 7.098-.103.003-.206.003-.31.003"/>
                        <path fill="#000" d="M65.086 188.986c-20.894 0-24.229-10.874-30.03-39.124a1.545 1.545 0 0 1 3.026-.622c6.457 31.44 8.97 38.763 34.888 36.226a1.544 1.544 0 0 1 .301 3.074c-2.995.294-5.713.446-8.185.446"/>
                        <path fill="#000" d="M80.846 185.543a4.336 4.336 0 1 1-8.629.845 4.336 4.336 0 0 1 8.63-.845"/>
                        <path fill="#D6D6D6" d="M34.685 363.874c-.64 0-1.158-.519-1.158-1.159 0-21.876-2.355-46.22-3.834-49.917a1.159 1.159 0 0 1 2.151-.861c1.746 4.365 4 29.773 4 50.778 0 .64-.519 1.159-1.16 1.159M107.608 272.206a72.864 72.864 0 0 1-17.256-2.068c-14.728-3.594-25.608-11.166-29.484-16.682a1.158 1.158 0 1 1 1.896-1.332c7.453 10.604 42.33 28.732 80.465 8.59a1.159 1.159 0 0 1 1.083 2.05c-13.53 7.146-26.116 9.442-36.704 9.442M147.688 259.262a1.158 1.158 0 0 1-.778-2.018l5.873-5.313a1.158 1.158 0 1 1 1.554 1.718l-5.873 5.314c-.222.2-.5.299-.776.299M181.644 390.993c-.64 0-1.159-.52-1.159-1.159 0-4.774-.05-11.297-.11-18.852-.246-31.407-.349-57.692.903-61.238a1.16 1.16 0 0 1 2.186.772c-1.219 3.45-.95 37.75-.772 60.448.06 7.56.11 14.087.11 18.87 0 .64-.518 1.159-1.158 1.159"/>
                        <path fill="#D6D6D6" d="M181.339 327.238c-.028 0-.056 0-.084-.004a1.158 1.158 0 0 1-1.073-1.238c.241-3.366 1.887-10.224 4.766-11.597a1.158 1.158 0 1 1 .997 2.092c-1.388.661-3.162 5.633-3.452 9.671a1.157 1.157 0 0 1-1.154 1.076M22.921 353.515c-10.692 0-16.177-2.32-20.445-4.913a1.16 1.16 0 0 1 1.203-1.981c4.764 2.894 11.193 5.42 25.884 4.308a1.16 1.16 0 0 1 .175 2.31c-2.485.189-4.75.276-6.817.276"/>
                        <g transform="translate(185.365 342.982)">
                            <mask id="k" fill="#fff">
                                <use xlink:href="#j"/>
                            </mask>
                            <path fill="#D6D6D6" d="M7.137 10.47a72.59 72.59 0 0 1-5.463-.213 1.16 1.16 0 0 1 .174-2.31c17.714 1.345 25.755-4.03 30.075-6.917l.244-.164a1.158 1.158 0 1 1 1.285 1.928l-.242.162C29.421 5.487 21.962 10.47 7.137 10.47" mask="url(#k)"/>
                        </g>
                        <mask id="m" fill="#fff">
                            <use xlink:href="#l"/>
                        </mask>
                        <path fill="#FF7900" d="M152.607 327.836h17.378v-17.379h-17.378z" mask="url(#m)"/>
                        <path fill="#FFF" d="M154.523 325.011h13.41v-2.326h-13.41zM50.342 276.835l1.975 6.94M49.307 277.12l1.974 6.94c.378 1.327 2.45.763 2.07-.571l-1.974-6.939c-.378-1.327-2.45-.763-2.07.57M54.125 291.147a15.603 15.603 0 0 1 1.159 6.566" mask="url(#m)"/>
                        <path fill="#FFF" d="M53.09 291.432c.8 2.03 1.177 4.098 1.12 6.28-.035 1.382 2.112 1.382 2.147 0a17.32 17.32 0 0 0-1.196-6.85c-.501-1.271-2.578-.718-2.071.57M56.745 303.126l.89 10.418M55.672 303.126c.296 3.473.592 6.945.89 10.418.116 1.367 2.264 1.378 2.147 0l-.89-10.418c-.117-1.366-2.265-1.379-2.147 0M58.534 321.658l.074 9.654M57.46 321.658l.075 9.654c.01 1.382 2.158 1.385 2.147 0l-.074-9.654c-.012-1.38-2.159-1.384-2.148 0M59.085 341.355l.358 9.656M58.011 341.355l.359 9.656c.051 1.378 2.198 1.385 2.147 0l-.359-9.656c-.05-1.377-2.198-1.384-2.147 0M59.053 361.817c-.119 2.317-.236 4.636-.353 6.953" mask="url(#m)"/>
                        <path fill="#FFF" d="M57.979 361.817l-.353 6.953c-.07 1.381 2.077 1.378 2.147 0l.353-6.953c.07-1.381-2.077-1.378-2.147 0M59.077 378.045l.389 7.724M58.003 378.045l.39 7.724c.069 1.376 2.216 1.384 2.146 0l-.388-7.724c-.07-1.375-2.217-1.383-2.148 0M66.483 274.54l2.318 5.021M65.557 275.082l2.317 5.02c.578 1.254 2.43.165 1.854-1.083L67.41 274c-.579-1.254-2.43-.164-1.854 1.083M70.806 286.12l.38 4.635M69.733 286.12l.38 4.635c.111 1.368 2.26 1.38 2.147 0l-.38-4.635c-.112-1.368-2.26-1.38-2.147 0M71.828 298.488l.365 6.567M70.755 298.488l.365 6.567c.076 1.374 2.224 1.382 2.147 0l-.365-6.567c-.077-1.374-2.224-1.383-2.147 0M74.594 315.864v3.475M73.52 315.864v3.475c0 1.382 2.147 1.384 2.147 0v-3.475c0-1.382-2.147-1.384-2.147 0M74.208 327.45v3.862M73.134 327.45v3.862c0 1.38 2.148 1.384 2.148 0v-3.862c0-1.382-2.148-1.384-2.148 0M73.821 342.511v5.408M72.748 342.511v5.408c0 1.38 2.147 1.383 2.147 0v-5.408c0-1.382-2.147-1.384-2.147 0M74.94 357.57l-.408 5.405M73.867 357.57l-.408 5.405c-.105 1.379 2.043 1.372 2.147 0l.408-5.405c.104-1.378-2.043-1.37-2.147 0M75.586 376.886l.115 8.108M74.513 376.886l.114 8.108c.02 1.381 2.167 1.385 2.147 0l-.114-8.108c-.02-1.38-2.167-1.385-2.147 0M82.01 276.835l1.975 6.94M80.975 277.12l1.975 6.94c.377 1.327 2.45.763 2.07-.571l-1.975-6.939c-.377-1.327-2.45-.763-2.07.57M85.794 291.147a15.614 15.614 0 0 1 1.158 6.566" mask="url(#m)"/>
                        <path fill="#FFF" d="M84.759 291.432c.8 2.03 1.176 4.098 1.12 6.28-.036 1.382 2.111 1.382 2.146 0 .062-2.36-.33-4.654-1.196-6.85-.5-1.271-2.578-.718-2.07.57M88.414 303.126l.89 10.418M87.34 303.126l.89 10.418c.116 1.367 2.265 1.378 2.147 0l-.89-10.418c-.117-1.366-2.264-1.379-2.147 0M90.202 321.658l.074 9.654M89.128 321.658l.075 9.654c.011 1.382 2.158 1.385 2.147 0l-.074-9.654c-.011-1.38-2.158-1.384-2.148 0M90.753 341.355l.36 9.656M89.68 341.355l.359 9.656c.05 1.378 2.197 1.385 2.147 0l-.36-9.656c-.05-1.377-2.198-1.384-2.147 0M90.72 361.817l-.352 6.953M89.647 361.817l-.353 6.953c-.07 1.381 2.077 1.378 2.147 0l.353-6.953c.071-1.381-2.077-1.378-2.147 0M90.746 378.045l.388 7.724M89.672 378.045l.388 7.724c.07 1.376 2.217 1.384 2.147 0l-.388-7.724c-.07-1.375-2.217-1.383-2.147 0M98.152 274.54l2.317 5.021M97.225 275.082l2.317 5.02c.58 1.254 2.43.165 1.855-1.083L99.079 274c-.578-1.254-2.43-.164-1.854 1.083M102.475 286.12l.38 4.635M101.402 286.12l.379 4.635c.112 1.368 2.26 1.38 2.147 0l-.38-4.635c-.112-1.368-2.26-1.38-2.146 0M103.496 298.488l.366 6.567M102.423 298.488l.365 6.567c.076 1.374 2.224 1.382 2.147 0l-.365-6.567c-.076-1.374-2.224-1.383-2.147 0M106.263 315.864v3.475M105.189 315.864v3.475c0 1.382 2.147 1.384 2.147 0v-3.475c0-1.382-2.147-1.384-2.147 0M105.876 327.45v3.862M104.802 327.45v3.862c0 1.38 2.148 1.384 2.148 0v-3.862c0-1.382-2.148-1.384-2.148 0M105.49 342.511v5.408M104.417 342.511v5.408c0 1.38 2.147 1.383 2.147 0v-5.408c0-1.382-2.147-1.384-2.147 0M106.609 357.57l-.408 5.405M105.535 357.57l-.408 5.405c-.104 1.379 2.043 1.372 2.147 0l.408-5.405c.105-1.378-2.043-1.37-2.147 0M107.254 376.886l.115 8.108M106.18 376.886c.04 2.702.077 5.405.115 8.108.02 1.381 2.167 1.385 2.147 0-.038-2.703-.075-5.406-.114-8.108-.02-1.38-2.167-1.385-2.147 0M147.127 276.835l-1.975 6.94M146.092 276.55l-1.975 6.94c-.378 1.33 1.692 1.899 2.07.57.66-2.314 1.317-4.627 1.975-6.94.379-1.33-1.692-1.9-2.07-.57M143.343 291.147a15.614 15.614 0 0 0-1.158 6.566" mask="url(#m)"/>
                        <path fill="#FFF" d="M142.308 290.862a17.309 17.309 0 0 0-1.197 6.85c.035 1.38 2.183 1.384 2.147 0-.056-2.183.321-4.25 1.12-6.28.507-1.286-1.569-1.844-2.07-.57M140.724 303.126l-.89 10.418M139.65 303.126l-.89 10.418c-.118 1.376 2.03 1.369 2.147 0l.89-10.418c.117-1.376-2.03-1.369-2.147 0M169.913 268.339l-1.975 6.94M168.877 268.053l-1.974 6.94c-.379 1.33 1.692 1.9 2.07.57l1.975-6.94c.379-1.33-1.693-1.899-2.07-.57M166.13 282.65a15.603 15.603 0 0 0-1.16 6.566" mask="url(#m)"/>
                        <path fill="#FFF" d="M165.094 282.365a17.31 17.31 0 0 0-1.197 6.85c.036 1.38 2.183 1.385 2.147 0-.057-2.182.32-4.249 1.12-6.28.507-1.286-1.569-1.843-2.07-.57M163.51 294.63l-.89 10.417M162.436 294.63l-.89 10.417c-.117 1.377 2.03 1.369 2.147 0l.89-10.417c.118-1.376-2.03-1.37-2.147 0M138.935 321.658a43393 43393 0 0 0-.074 9.654" mask="url(#m)"/>
                        <path fill="#FFF" d="M137.861 321.658l-.074 9.654c-.011 1.383 2.136 1.384 2.147 0l.075-9.654c.01-1.382-2.137-1.383-2.148 0M138.384 341.355l-.359 9.656M137.31 341.355l-.359 9.656c-.05 1.382 2.097 1.38 2.148 0l.359-9.656c.05-1.382-2.096-1.38-2.147 0M138.416 361.817l.353 6.953M137.343 361.817l.353 6.953c.07 1.375 2.217 1.383 2.147 0l-.353-6.953c-.07-1.376-2.218-1.384-2.147 0M138.391 378.045l-.388 7.724M137.318 378.045l-.388 7.724c-.07 1.381 2.077 1.378 2.147 0l.388-7.724c.07-1.381-2.077-1.377-2.147 0M158.08 341.355l-.359 9.656M157.006 341.355l-.358 9.656c-.051 1.382 2.096 1.38 2.147 0l.358-9.656c.052-1.382-2.095-1.38-2.147 0M158.113 361.817l.352 6.953M157.04 361.817c.116 2.317.234 4.636.352 6.953.07 1.375 2.217 1.383 2.147 0l-.353-6.953c-.07-1.376-2.218-1.384-2.147 0M158.088 378.045l-.388 7.724M157.014 378.045l-.388 7.724c-.07 1.381 2.078 1.378 2.147 0l.388-7.724c.07-1.381-2.078-1.377-2.147 0M176.64 303.126l-.89 10.418M175.567 303.126l-.89 10.418c-.118 1.376 2.03 1.369 2.147 0l.89-10.418c.117-1.376-2.03-1.369-2.147 0M174.852 321.658l-.075 9.654M173.778 321.658l-.075 9.654c-.01 1.383 2.136 1.384 2.147 0l.075-9.654c.011-1.382-2.136-1.383-2.147 0M174.3 341.355l-.358 9.656M173.227 341.355l-.359 9.656c-.051 1.382 2.097 1.38 2.147 0l.359-9.656c.051-1.382-2.096-1.38-2.147 0M174.333 361.817l.353 6.953M173.259 361.817c.118 2.317.235 4.636.354 6.953.07 1.375 2.217 1.383 2.147 0l-.354-6.953c-.07-1.376-2.217-1.384-2.147 0M174.308 378.045l-.388 7.724M173.235 378.045l-.388 7.724c-.07 1.381 2.077 1.378 2.147 0l.388-7.724c.07-1.381-2.078-1.377-2.147 0M130.985 274.54l-2.317 5.021M130.058 273.998c-.772 1.674-1.544 3.348-2.317 5.02-.576 1.247 1.275 2.34 1.854 1.084l2.317-5.02c.575-1.246-1.275-2.338-1.854-1.084M126.662 286.12l-.38 4.635M125.588 286.12l-.379 4.635c-.113 1.377 2.035 1.37 2.147 0l.38-4.635c.113-1.377-2.035-1.37-2.148 0M125.64 298.488c-.12 2.189-.243 4.378-.365 6.567" mask="url(#m)"/>
                        <path fill="#FFF" d="M124.567 298.488l-.365 6.567c-.077 1.38 2.07 1.376 2.147 0l.365-6.567c.077-1.38-2.07-1.376-2.147 0M122.874 315.864v3.475M121.801 315.864v3.475c0 1.382 2.147 1.384 2.147 0v-3.475c0-1.382-2.147-1.384-2.147 0M123.261 327.45v3.862M122.187 327.45v3.862c0 1.38 2.148 1.384 2.148 0v-3.862c0-1.382-2.148-1.384-2.148 0M123.647 342.511v5.408M122.573 342.511v5.408c0 1.38 2.147 1.383 2.147 0v-5.408c0-1.382-2.147-1.384-2.147 0M122.529 357.57l.407 5.405M121.455 357.57l.408 5.405c.104 1.37 2.252 1.38 2.147 0l-.408-5.405c-.104-1.369-2.252-1.38-2.147 0M121.883 376.886l-.115 8.108M120.81 376.886c-.04 2.702-.077 5.405-.115 8.108-.02 1.383 2.127 1.383 2.147 0l.114-8.108c.02-1.383-2.127-1.383-2.147 0" mask="url(#m)"/>
                    </g>
                </g>
            </g>
        </g>
    </g>
</svg>
