<svg xmlns="http://www.w3.org/2000/svg" xmlns:xlink="http://www.w3.org/1999/xlink" width="375" height="70" viewBox="0 0 375 70">
    <defs>
        <path id="gembnizdna" d="M0 0L120.333 0 120.333 37.001 0 37.001z"/>
        <path id="kfszrwyqsc" d="M10.918.002C9.774.02 8.732.39 7.833 1.216c-.953.873-1.56 1.961-1.912 3.192-.216.75-.398 1.506-.6 2.277-.494-.077-.953-.049-1.396.119-1.074.409-1.711 1.205-1.998 2.298-.602 2.293-1.2 4.583-1.794 6.877-.064.248-.108.505-.128.759-.011.12-.001.237.004.354.05 1.284.882 2.404 2.091 2.721.179.047.36.094.54.143 3.01.788 6.02 1.575 9.033 2.356l.549.143c.252.067.524.094.784.084.964-.032 1.841-.568 2.37-1.412.17-.271.306-.575.394-.903.643-2.38 1.275-4.763 1.866-7.154.307-1.236.001-2.339-.999-3.185-.237-.199-.529-.328-.821-.505l.055-.207c.162-.62.321-1.24.487-1.857.21-.79.282-1.592.22-2.405-.002-.036-.001-.073-.006-.11-.049-.537-.177-1.032-.348-1.504-.32-.887-.847-1.661-1.705-2.253-.63-.437-1.325-.716-2.058-.882-.227-.052-.456-.096-.689-.126-.219-.029-.43-.036-.639-.036l-.215.002zM7.979 7.365c.006-.054.008-.097.019-.137.224-.852.431-1.712.676-2.56.478-1.65 1.827-2.346 3.454-1.782.342.119.684.283.975.496.718.53.925 1.295.862 2.148-.016.234-.066.467-.124.693-.19.765-.394 1.524-.593 2.287-.018.069-.042.135-.067.215l-5.202-1.36zM6.7 18.183l.06-.225c.241-.926.479-1.852.728-2.774.044-.165.038-.28-.098-.406-.147-.141-.273-.308-.389-.478-.768-1.127-.569-2.373.535-3.181.861-.63 1.812-.714 2.776-.279.932.419 1.481 1.158 1.585 2.19.1 1.006-.405 1.801-1.414 2.26-.093.042-.188.099-.287.112-.35.046-.454.273-.527.586-.2.853-.436 1.696-.657 2.541l-.064.24-2.248-.586z"/>
        <path id="gch5bh619e" d="M10.918.002C9.774.02 8.732.39 7.833 1.216c-.953.873-1.56 1.961-1.912 3.192-.216.75-.398 1.506-.6 2.277-.494-.077-.953-.049-1.396.119-1.074.409-1.711 1.205-1.998 2.298-.602 2.293-1.2 4.583-1.794 6.877-.064.248-.108.505-.128.759-.011.12-.001.237.004.354.05 1.284.882 2.404 2.091 2.721.179.047.36.094.54.143 3.01.788 6.02 1.575 9.033 2.356l.549.143c.252.067.524.094.784.084.964-.032 1.841-.568 2.37-1.412.17-.271.306-.575.394-.903.643-2.38 1.275-4.763 1.866-7.154.307-1.236.001-2.339-.999-3.185-.237-.199-.529-.328-.821-.505l.055-.207c.162-.62.321-1.24.487-1.857.21-.79.282-1.592.22-2.405-.002-.036-.001-.073-.006-.11-.049-.537-.177-1.032-.348-1.504-.32-.887-.847-1.661-1.705-2.253-.63-.437-1.325-.716-2.058-.882-.227-.052-.456-.096-.689-.126-.219-.029-.43-.036-.639-.036l-.215.002zM7.979 7.365c.006-.054.008-.097.019-.137.224-.852.431-1.712.676-2.56.478-1.65 1.827-2.346 3.454-1.782.342.119.684.283.975.496.718.53.925 1.295.862 2.148-.016.234-.066.467-.124.693-.19.765-.394 1.524-.593 2.287-.018.069-.042.135-.067.215l-5.202-1.36zM6.7 18.183l.06-.225c.241-.926.479-1.852.728-2.774.044-.165.038-.28-.098-.406-.147-.141-.273-.308-.389-.478-.768-1.127-.569-2.373.535-3.181.861-.63 1.812-.714 2.776-.279.932.419 1.481 1.158 1.585 2.19.1 1.006-.405 1.801-1.414 2.26-.093.042-.188.099-.287.112-.35.046-.454.273-.527.586-.2.853-.436 1.696-.657 2.541l-.064.24-2.248-.586z"/>
        <path id="8jfmvnk8qg" d="M10.918.002C9.774.02 8.732.39 7.833 1.216c-.953.873-1.56 1.961-1.912 3.192-.216.75-.398 1.506-.6 2.277-.494-.077-.953-.049-1.396.119-1.074.409-1.711 1.205-1.998 2.298-.602 2.293-1.2 4.583-1.794 6.877-.064.248-.108.505-.128.759-.011.12-.001.237.004.354.05 1.284.882 2.404 2.091 2.721.179.047.36.094.54.143 3.01.788 6.02 1.575 9.033 2.356l.549.143c.252.067.524.094.784.084.964-.032 1.841-.568 2.37-1.412.17-.271.306-.575.394-.903.643-2.38 1.275-4.763 1.866-7.154.307-1.236.001-2.339-.999-3.185-.237-.199-.529-.328-.821-.505l.055-.207c.162-.62.321-1.24.487-1.857.21-.79.282-1.592.22-2.405-.002-.036-.001-.073-.006-.11-.049-.537-.177-1.032-.348-1.504-.32-.887-.847-1.661-1.705-2.253-.63-.437-1.325-.716-2.058-.882-.227-.052-.456-.096-.689-.126-.219-.029-.43-.036-.639-.036l-.215.002zM7.979 7.365c.006-.054.008-.097.019-.137.224-.852.431-1.712.676-2.56.478-1.65 1.827-2.346 3.454-1.782.342.119.684.283.975.496.718.53.925 1.295.862 2.148-.016.234-.066.467-.124.693-.19.765-.394 1.524-.593 2.287-.018.069-.042.135-.067.215l-5.202-1.36zM6.7 18.183l.06-.225c.241-.926.479-1.852.728-2.774.044-.165.038-.28-.098-.406-.147-.141-.273-.308-.389-.478-.768-1.127-.569-2.373.535-3.181.861-.63 1.812-.714 2.776-.279.932.419 1.481 1.158 1.585 2.19.1 1.006-.405 1.801-1.414 2.26-.093.042-.188.099-.287.112-.35.046-.454.273-.527.586-.2.853-.436 1.696-.657 2.541l-.064.24-2.248-.586z"/>
    </defs>
    <g fill="none" fill-rule="evenodd">
        <g>
            <g>
                <g>
                    <path fill="#FFF" d="M0 70L375 70 375 0 0 0z" transform="translate(0 -135) translate(0 45) translate(0 90)"/>
                    <g>
                        <path fill="#D9C2F0" d="M23.029 5.808s-3.547 1.969-2.064 7.67c1.482 5.702-1.298 9.383-9.789 12.63-8.489 3.246-16.001 16.654-7.311 23.117 8.69 6.462 24.261 2.984 28.839 2.547 4.577-.438 12.063-1.671 21.13 3.79 9.067 5.462 22.785 9.805 36.446 4.965 13.66-4.84 30.544-3.511 51.661 1.477 21.117 4.989 37.371-1.941 37.371-1.941s16.194-7.382 37.066-2.463c20.873 4.918 36.197 6.135 52.205.58 16.008-5.555 33.202-1.081 36.264-.54 3.062.54 33.141 5.044 41.773-4.813 8.631-9.858-11.498-9.54-11.04-17.487.459-7.95 10.013-25.778-4.589-28.86-14.603-3.08-43.533 10.11-64.017 6.087-20.483-4.024-16.232-12.008-49.53-7.422-33.298 4.587-46.019 9.223-60.33 7.27-14.311-1.95-29.694-16.47-58.197-7.134-6.7 2.194-36.093 4.772-55.424-1.14C36.175 1.906 25.278 2.4 23.029 5.809" transform="translate(0 -135) translate(0 45) translate(0 90) translate(13.114 2.592)"/>
                        <path stroke="#FF7900" stroke-linecap="round" stroke-linejoin="round" stroke-width="2" d="M38.029 53.587s8.695-1.628 16.115 5.25c7.419 6.878 16.873 6.458 16.873 6.458M339.419 32.475c-.11 1.782.992 3.454 2.399 4.553 1.408 1.098 3.104 1.744 4.73 2.48 1.627.737 3.259 1.62 4.342 3.039 1.113 1.458 1.533 3.424 1.112 5.209M194.239 4.815c11.123-1.961 22.335-3.426 33.589-4.39 7.747-.663 15.949-1.004 22.866 2.549" transform="translate(0 -135) translate(0 45) translate(0 90) translate(13.114 2.592)"/>
                    </g>
                    <g transform="translate(0 -135) translate(0 45) translate(0 90) translate(130.588 15.14)">
                        <mask id="5dkju4apib" fill="#fff">
                            <use xlink:href="#gembnizdna"/>
                        </mask>
                        <path stroke="#FFF" stroke-dasharray="6.006 6.006" stroke-linecap="round" stroke-width="1.5" d="M124 42.5C124 65.972 94.003 85 57 85c-37.004 0-67-19.028-67-42.5C-10 19.027 19.996 0 57 0c37.003 0 67 19.027 67 42.5z" mask="url(#5dkju4apib)"/>
                    </g>
                    <g>
                        <path stroke="#FFF" d="M266.592 22.167c2.562 0 4.674 2.184 4.674 4.745 0-2.56 2.112-4.745 4.674-4.745-2.562 0-4.674-2.184-4.674-4.746 0 2.562-2.112 4.746-4.674 4.746zM134.259 33.5c2.562 0 4.674 2.184 4.674 4.745 0-2.56 2.112-4.745 4.674-4.745-2.562 0-4.674-2.184-4.674-4.745 0 2.561-2.112 4.745-4.674 4.745zM56.804 48.307c2.562 0 4.674 2.184 4.674 4.745 0-2.56 2.112-4.745 4.674-4.745-2.562 0-4.674-2.184-4.674-4.745 0 2.561-2.112 4.745-4.674 4.745zM58.208 9.307L60.39 11.489M61.963 13.061L64.144 15.243M58.208 15.243L60.39 13.061M61.963 11.489L64.144 9.307M258.042 43.539L260.223 45.721M261.796 47.292L263.978 49.474M258.042 49.474L260.223 47.292M261.796 45.72L263.978 43.538M179.708 36.872L181.89 39.054M183.463 40.626L185.644 42.807M179.708 42.807L181.89 40.626M183.463 39.053L185.644 36.871" transform="translate(0 -135) translate(0 45) translate(0 90) translate(23.61 7)"/>
                        <path stroke="#FFD200" d="M319.621 44.307c2.792 0 5.095 2.381 5.095 5.173 0-2.792 2.302-5.173 5.094-5.173-2.792 0-5.094-2.38-5.094-5.172 0 2.792-2.303 5.172-5.095 5.172zM9.052 13.807c2.675 0 4.88 2.28 4.88 4.954 0-2.674 2.205-4.954 4.879-4.954-2.674 0-4.88-2.279-4.88-4.953 0 2.674-2.204 4.953-4.88 4.953z" transform="translate(0 -135) translate(0 45) translate(0 90) translate(23.61 7)"/>
                        <path stroke="#A885D8" d="M0 37.667L2.276 39.944M3.919 41.586L6.195 43.863M0 43.864L2.276 41.587M3.919 39.945L6.195 37.668M328.892 17.388L331.169 19.665M332.81 21.307L335.087 23.584M328.892 23.584L331.169 21.307M332.81 19.666L335.087 17.389" transform="translate(0 -135) translate(0 45) translate(0 90) translate(23.61 7)"/>
                        <path fill="#FF7900" d="M116.186 50.779l-26.214 7.023c-1.088.292-2.216-.36-2.508-1.448L74.935 9.602c-.29-1.088.36-2.217 1.448-2.508L102.6.07c1.088-.292 2.218.36 2.508 1.448l12.528 46.752c.291 1.088-.36 2.217-1.449 2.509" transform="translate(0 -135) translate(0 45) translate(0 90) translate(23.61 7)"/>
                        <path stroke="#000" stroke-linecap="round" stroke-linejoin="round" stroke-width="1.5" d="M116.186 50.779l-26.214 7.023c-1.088.292-2.216-.36-2.508-1.448L74.935 9.602c-.29-1.088.36-2.217 1.448-2.508L102.6.07c1.088-.292 2.218.36 2.508 1.448l12.528 46.752c.291 1.088-.36 2.217-1.449 2.509z" transform="translate(0 -135) translate(0 45) translate(0 90) translate(23.61 7)"/>
                        <path stroke="#000" stroke-width="2" d="M116.186 50.779l-26.214 7.023c-1.088.292-2.216-.36-2.508-1.448L74.935 9.602c-.29-1.088.36-2.217 1.448-2.508L102.6.07c1.088-.292 2.218.36 2.508 1.448l12.528 46.752c.291 1.088-.36 2.217-1.449 2.509z" transform="translate(0 -135) translate(0 45) translate(0 90) translate(23.61 7)"/>
                        <path fill="#000" d="M114.038 38.636L85.762 46.212 88.89 57.886 117.166 50.31z" transform="translate(0 -135) translate(0 45) translate(0 90) translate(23.61 7)"/>
                        <path fill="#FFF" d="M104.846 48.034c.476 1.774-.577 3.598-2.352 4.073-1.773.476-3.597-.577-4.073-2.351-.475-1.775.578-3.598 2.352-4.074 1.774-.475 3.598.578 4.073 2.352" transform="translate(0 -135) translate(0 45) translate(0 90) translate(23.61 7)"/>
                        <path stroke="#FFF" stroke-width=".5" d="M104.846 48.034c.476 1.774-.577 3.598-2.352 4.073-1.773.476-3.597-.577-4.073-2.351-.475-1.775.578-3.598 2.352-4.074 1.774-.475 3.598.578 4.073 2.352z" transform="translate(0 -135) translate(0 45) translate(0 90) translate(23.61 7)"/>
                        <path fill="#FFF" d="M240.067 57.803l-26.215-7.023c-1.088-.292-1.739-1.42-1.448-2.509L224.931 1.52c.292-1.088 1.421-1.74 2.51-1.448l26.213 7.024c1.088.291 1.74 1.42 1.448 2.508l-12.527 46.752c-.29 1.088-1.42 1.74-2.508 1.448" transform="translate(0 -135) translate(0 45) translate(0 90) translate(23.61 7)"/>
                        <path stroke="#000" stroke-linecap="round" stroke-linejoin="round" stroke-width="1.5" d="M240.067 57.803l-26.215-7.023c-1.088-.292-1.739-1.42-1.448-2.509L224.931 1.52c.292-1.088 1.421-1.74 2.51-1.448l26.213 7.024c1.088.291 1.74 1.42 1.448 2.508l-12.527 46.752c-.29 1.088-1.42 1.74-2.508 1.448z" transform="translate(0 -135) translate(0 45) translate(0 90) translate(23.61 7)"/>
                        <path stroke="#000" stroke-width="2" d="M240.067 57.803l-26.215-7.023c-1.088-.292-1.739-1.42-1.448-2.509L224.931 1.52c.292-1.088 1.421-1.74 2.51-1.448l26.213 7.024c1.088.291 1.74 1.42 1.448 2.508l-12.527 46.752c-.29 1.088-1.42 1.74-2.508 1.448z" transform="translate(0 -135) translate(0 45) translate(0 90) translate(23.61 7)"/>
                        <path fill="#000" d="M244.277 46.213L216.001 38.637 212.873 50.311 241.149 57.887z" transform="translate(0 -135) translate(0 45) translate(0 90) translate(23.61 7)"/>
                        <path fill="#FFF" d="M231.618 49.756c-.476 1.774-2.299 2.827-4.073 2.352-1.774-.476-2.827-2.299-2.352-4.074.476-1.774 2.3-2.827 4.073-2.35 1.775.474 2.828 2.298 2.352 4.072" transform="translate(0 -135) translate(0 45) translate(0 90) translate(23.61 7)"/>
                        <path stroke="#FFF" stroke-width=".5" d="M231.618 49.756c-.476 1.774-2.299 2.827-4.073 2.352-1.774-.476-2.827-2.299-2.352-4.074.476-1.774 2.3-2.827 4.073-2.35 1.775.474 2.828 2.298 2.352 4.072z" transform="translate(0 -135) translate(0 45) translate(0 90) translate(23.61 7)"/>
                        <path fill="#000" d="M91.787 20.971l-6.159 1.65c-.69.186-1.1.896-.915 1.586.184.691.894 1.101 1.585.915l3.14-.84-3.7 6.41c-.358.618-.145 1.41.474 1.767.62.358 1.41.145 1.767-.474l3.702-6.41.84 3.141c.186.691.896 1.101 1.586.915.691-.184 1.101-.894.915-1.585l-1.65-6.159c-.185-.69-.895-1.1-1.585-.916" transform="translate(0 -135) translate(0 45) translate(0 90) translate(23.61 7)"/>
                        <path fill="#FFF" d="M97.858 28.626l6.16-1.65c.69-.186 1.1-.895.914-1.586-.184-.69-.894-1.1-1.585-.915l-3.14.841 3.7-6.41c.357-.619.145-1.41-.474-1.767-.619-.358-1.41-.146-1.768.473l-3.7 6.41-.842-3.14c-.185-.692-.895-1.1-1.585-.916-.69.185-1.1.895-.915 1.586l1.65 6.158c.185.691.895 1.101 1.585.916" transform="translate(0 -135) translate(0 45) translate(0 90) translate(23.61 7)"/>
                    </g>
                    <g>
                        <g transform="translate(0 -135) translate(0 45) translate(0 90) translate(249.287 18.235)">
                            <mask id="9p9yjd4rid" fill="#fff">
                                <use xlink:href="#kfszrwyqsc"/>
                            </mask>
                            <path fill="#FF7900" d="M0.923 -8.447L27.085 -1.609 18.878 29.791 -7.285 22.952z" mask="url(#9p9yjd4rid)"/>
                        </g>
                        <g transform="translate(0 -135) translate(0 45) translate(0 90) translate(249.287 18.235)">
                            <mask id="6tvs7pnkif" fill="#fff">
                                <use xlink:href="#gch5bh619e"/>
                            </mask>
                            <path stroke="#FFF" stroke-width="5.243" d="M0.923 -8.447L27.085 -1.609 18.878 29.791 -7.285 22.952z" mask="url(#6tvs7pnkif)"/>
                        </g>
                    </g>
                    <path stroke="#FFF" stroke-width="5.243" d="M262.468 26.96l-5.202-1.36c.007-.053.009-.096.019-.137.224-.853.43-1.712.676-2.56.478-1.65 1.827-2.346 3.454-1.782.342.119.684.283.975.496.718.53.925 1.295.862 2.149-.016.234-.065.466-.123.693-.191.764-.394 1.523-.594 2.286-.017.069-.042.136-.067.216m-2.698 6.564c-.093.042-.188.099-.286.113-.35.046-.454.272-.528.586-.2.852-.436 1.695-.657 2.54l-.063.24-2.248-.586.059-.226c.24-.924.48-1.85.728-2.773.045-.165.039-.28-.097-.406-.148-.14-.274-.308-.39-.478-.768-1.127-.57-2.373.535-3.18.86-.63 1.812-.715 2.776-.28.932.419 1.48 1.158 1.585 2.19.1 1.007-.404 1.8-1.414 2.26m.435-15.288c-1.143.018-2.185.388-3.085 1.214-.953.873-1.56 1.96-1.912 3.193-.216.749-.398 1.505-.6 2.276-.494-.077-.953-.05-1.396.119-1.074.409-1.711 1.205-1.998 2.299-.601 2.292-1.2 4.583-1.794 6.877-.064.247-.108.505-.128.759-.011.119-.001.236.004.353.05 1.284.882 2.404 2.09 2.722l.54.14c3.01.79 6.02 1.578 9.034 2.358l.55.143c.252.067.523.094.783.084.964-.032 1.84-.568 2.37-1.412.17-.271.306-.575.395-.903.642-2.38 1.274-4.763 1.865-7.154.307-1.236 0-2.34-1-3.185-.235-.2-.528-.328-.82-.505l.055-.207c.163-.62.322-1.24.487-1.857.21-.79.282-1.592.22-2.404-.002-.037-.001-.074-.005-.111-.05-.537-.178-1.032-.35-1.504-.318-.886-.846-1.661-1.703-2.253-.631-.436-1.325-.715-2.06-.881-.225-.053-.455-.096-.688-.126-.293-.04-.572-.04-.854-.035" transform="translate(0 -135) translate(0 45) translate(0 90)"/>
                    <g transform="translate(0 -135) translate(0 45) translate(0 90) translate(249.287 18.235)">
                        <mask id="9bc1fftilh" fill="#fff">
                            <use xlink:href="#8jfmvnk8qg"/>
                        </mask>
                        <path fill="#FF7900" d="M0.923 -8.447L27.085 -1.609 18.878 29.791 -7.285 22.952z" mask="url(#9bc1fftilh)"/>
                    </g>
                    <g>
                        <path fill="#FFF" d="M41.392 18.177L13.608 37.478 4.051 23.72 31.835 4.419z" transform="translate(0 -135) translate(0 45) translate(0 90) translate(166.421 2.348)"/>
                        <path fill="#FF7900" d="M31.835 3.536c-.179 0-.354.055-.503.158L3.548 22.995c-.4.278-.5.828-.222 1.228l9.557 13.758c.134.192.338.324.568.365.052.01.105.014.156.014.18 0 .355-.054.504-.158l27.785-19.3c.4-.278.5-.828.22-1.228L32.56 3.916c-.133-.193-.337-.324-.568-.365-.053-.01-.104-.015-.157-.015m0 .883l9.557 13.758-27.785 19.3L4.051 23.72l27.784-19.3" transform="translate(0 -135) translate(0 45) translate(0 90) translate(166.421 2.348)"/>
                        <path fill="#FF7900" d="M11.115 20.775l-4.736 3.287 7.72 11.114 4.737-3.286c-2.215-.777-4.215-2.234-5.658-4.308-1.442-2.077-2.11-4.459-2.063-6.807M26.54 10.114l4.749-3.269 7.667 11.151-4.748 3.27c.057-2.348-.6-4.734-2.031-6.816-1.432-2.083-3.425-3.549-5.637-4.336M28.51 16.898c2.237 3.196 1.46 7.602-1.738 9.84-3.197 2.235-7.602 1.457-9.839-1.739-2.237-3.198-1.458-7.603 1.738-9.84 3.197-2.237 7.603-1.458 9.84 1.74" transform="translate(0 -135) translate(0 45) translate(0 90) translate(166.421 2.348)"/>
                        <path fill="#FFF" d="M26.157 18.51c-1.376-1.99-3.984-2.706-6.517-2.02-1.537 2.126-1.788 4.82-.412 6.81 1.375 1.99 3.985 2.708 6.517 2.023 1.537-2.127 1.788-4.822.412-6.812" transform="translate(0 -135) translate(0 45) translate(0 90) translate(166.421 2.348)"/>
                        <path fill="#FF7900" d="M25.87 23.295s-.18.73-.75 1.123c-.57.392-1.317.296-1.317.296s.178-.732.75-1.123c.57-.392 1.317-.296 1.317-.296M25.698 19.705L24.282 20.684 24.056 20.357 25.471 19.379zM26.149 20.358L24.734 21.337 24.507 21.01 25.923 20.032zM19.02 21.129s.628.286 1.232.097c.606-.19.959-.781.959-.781s-.627-.285-1.232-.096c-.605.189-.959.78-.959.78M24.064 17.643s.045.688-.346 1.188c-.39.5-1.068.622-1.068.622s-.046-.688.345-1.188c.39-.5 1.069-.622 1.069-.622M20.834 18.258L22.979 22.874 24.163 23.074 24.395 21.896zM21.887 22.339L20.471 23.318 20.245 22.991 21.66 22.013zM22.338 22.992L20.923 23.971 20.696 23.644 22.112 22.666z" transform="translate(0 -135) translate(0 45) translate(0 90) translate(166.421 2.348)"/>
                        <path fill="#FFF" d="M38.704 14.791L13.608 37.478 2.376 25.051 27.471 2.364z" transform="translate(0 -135) translate(0 45) translate(0 90) translate(166.421 2.348)"/>
                        <path fill="#FF7900" d="M27.47 1.481c-.218 0-.429.081-.592.23L1.783 24.395c-.362.327-.39.885-.063 1.246L12.953 38.07c.158.174.376.277.611.29l.044.001c.218 0 .43-.08.591-.229l25.096-22.686c.362-.327.39-.885.063-1.246L28.125 1.772c-.157-.174-.377-.278-.61-.29h-.045m0 .882l11.233 12.427-25.095 22.686L2.375 25.05 27.47 2.364" transform="translate(0 -135) translate(0 45) translate(0 90) translate(166.421 2.348)"/>
                        <path fill="#FF7900" d="M9.004 21.23l-4.277 3.864 9.075 10.038 4.277-3.863c-2.296-.488-4.465-1.679-6.16-3.553-1.695-1.875-2.66-4.153-2.915-6.486M22.944 8.688l4.293-3.848 9.027 10.082-4.293 3.848c-.243-2.334-1.198-4.617-2.883-6.5-1.686-1.883-3.85-3.082-6.144-3.582M25.764 15.165c2.626 2.886 2.416 7.354-.469 9.98-2.885 2.627-7.354 2.416-9.98-.468-2.627-2.886-2.417-7.355.47-9.981 2.884-2.627 7.352-2.417 9.98.469" transform="translate(0 -135) translate(0 45) translate(0 90) translate(166.421 2.348)"/>
                        <path fill="#FFF" d="M23.635 17.065c-1.618-1.799-4.298-2.178-6.722-1.174-1.253 2.305-1.158 5.01.46 6.808 1.618 1.8 4.298 2.177 6.722 1.174 1.253-2.305 1.158-5.01-.46-6.808" transform="translate(0 -135) translate(0 45) translate(0 90) translate(166.421 2.348)"/>
                        <path fill="#FF7900" d="M23.96 21.847s-.084.748-.6 1.209c-.516.462-1.269.462-1.269.462s.085-.748.6-1.21c.516-.461 1.27-.461 1.27-.461M23.332 18.309L22.053 19.459 21.788 19.164 23.066 18.014zM23.863 18.898L22.584 20.049 22.318 19.753 23.597 18.603zM16.891 20.572s.658.203 1.234-.062c.578-.264.852-.895.852-.895s-.658-.204-1.234.061c-.577.264-.852.896-.852.896M21.449 16.472s.132.677-.191 1.222c-.325.545-.981.752-.981.752s-.133-.676.19-1.221c.325-.546.982-.753.982-.753M18.323 17.493L21.039 21.798 22.239 21.846 22.318 20.647zM19.888 21.407L18.609 22.557 18.344 22.262 19.622 21.111zM20.419 21.997L19.14 23.147 18.874 22.852 20.153 21.702z" transform="translate(0 -135) translate(0 45) translate(0 90) translate(166.421 2.348)"/>
                        <path fill="#FFF" d="M35.605 11.775L13.608 37.477 0.882 26.585 22.878 0.882z" transform="translate(0 -135) translate(0 45) translate(0 90) translate(166.421 2.348)"/>
                        <path fill="#FF7900" d="M22.878 0c-.022 0-.046.001-.068.003-.234.018-.45.128-.602.306L.211 26.012c-.316.37-.273.926.097 1.244l12.726 10.891c.16.138.365.213.573.213l.07-.003c.232-.017.45-.128.601-.305l21.997-25.703c.317-.37.274-.927-.096-1.245L23.452.212C23.292.075 23.088 0 22.878 0m0 .883l12.727 10.892-21.998 25.703L.882 26.585 22.878.883" transform="translate(0 -135) translate(0 45) translate(0 90) translate(166.421 2.348)"/>
                        <path fill="#FF7900" d="M6.97 21.95l-3.75 4.378 10.281 8.8 3.75-4.378c-2.34-.193-4.642-1.096-6.563-2.738-1.92-1.643-3.168-3.78-3.718-6.062M19.196 7.732l3.768-4.363 10.239 8.847-3.767 4.365c-.54-2.286-1.778-4.428-3.69-6.08-1.912-1.653-4.211-2.567-6.55-2.769M22.819 13.797c2.973 2.526 3.335 6.985.808 9.959-2.528 2.973-6.986 3.334-9.96.808-2.972-2.528-3.334-6.986-.807-9.96 2.527-2.972 6.986-3.334 9.959-.807" transform="translate(0 -135) translate(0 45) translate(0 90) translate(166.421 2.348)"/>
                        <path fill="#FFF" d="M20.95 15.953c-1.835-1.578-4.54-1.61-6.816-.308-.95 2.447-.51 5.117 1.324 6.695 1.835 1.577 4.54 1.611 6.816.306.949-2.445.51-5.116-1.324-6.693" transform="translate(0 -135) translate(0 45) translate(0 90) translate(166.421 2.348)"/>
                        <path fill="#FF7900" d="M21.882 20.654s.012.752-.44 1.275c-.455.525-1.2.621-1.2.621s-.012-.753.441-1.276c.453-.524 1.2-.62 1.2-.62M20.807 17.225L19.686 18.53 19.385 18.271 20.506 16.966zM21.41 17.743L20.288 19.047 19.987 18.788 21.109 17.483zM14.708 20.292s.68.117 1.217-.219c.538-.336.73-.997.73-.997s-.678-.118-1.217.218c-.537.336-.73.998-.73.998M18.706 15.643s.218.654-.034 1.235c-.252.582-.877.872-.877.872s-.218-.654.034-1.235c.25-.583.877-.872.877-.872M15.735 17.055L18.979 20.979 20.174 20.872 20.1 19.674zM17.788 20.737L16.666 22.042 16.365 21.782 17.487 20.478zM18.389 21.255L17.267 22.56 16.966 22.301 18.088 20.996z" transform="translate(0 -135) translate(0 45) translate(0 90) translate(166.421 2.348)"/>
                    </g>
                </g>
            </g>
        </g>
    </g>
</svg>
