<svg xmlns="http://www.w3.org/2000/svg" width="135" height="134" viewBox="0 0 135 134">
    <g fill="none" fill-rule="evenodd">
        <g>
            <g>
                <g>
                    <path fill="#FF7900" d="M24.864 20.609C23.1 39.584-16.696 84.605 38.41 110.63c55.105 26.023 37.734-.693 63.514-10.496 25.781-9.803 45.089-67.347 4.401-75.29-40.687-7.943-79.695-23.212-81.46-4.236" opacity=".2" transform="translate(-120 -258) translate(15 228) translate(105.5 30)"/>
                    <g>
                        <path fill="#FF7900" d="M55.927 68.73l-35.481 9.507c-1.474.395-3.001-.488-3.396-1.96L.094 12.997C-.3 11.523.58 9.995 2.054 9.6L37.535.094c1.474-.395 3.003.488 3.396 1.96l16.956 63.28c.395 1.473-.487 3.002-1.96 3.395" transform="translate(-120 -258) translate(15 228) translate(105.5 30) translate(10.828 28.424)"/>
                        <path stroke="#000" stroke-linecap="round" stroke-linejoin="round" stroke-width="1.5" d="M55.927 68.73l-35.481 9.507c-1.474.395-3.001-.488-3.396-1.96L.094 12.997C-.3 11.523.58 9.995 2.054 9.6L37.535.094c1.474-.395 3.003.488 3.396 1.96l16.956 63.28c.395 1.473-.487 3.002-1.96 3.395z" transform="translate(-120 -258) translate(15 228) translate(105.5 30) translate(10.828 28.424)"/>
                        <path stroke="#000" stroke-width="2" d="M55.927 68.73l-35.481 9.507c-1.474.395-3.001-.488-3.396-1.96L.094 12.997C-.3 11.523.58 9.995 2.054 9.6L37.535.094c1.474-.395 3.003.488 3.396 1.96l16.956 63.28c.395 1.473-.487 3.002-1.96 3.395z" transform="translate(-120 -258) translate(15 228) translate(105.5 30) translate(10.828 28.424)"/>
                        <path fill="#000" d="M54.023 49.864L12.586 60.967 17.17 78.075 58.607 66.971z" transform="translate(-120 -258) translate(15 228) translate(105.5 30) translate(10.828 28.424)"/>
                        <path fill="#FFF" d="M40.577 65.015c.644 2.4-.78 4.87-3.183 5.513-2.4.643-4.87-.782-5.513-3.182-.643-2.402.782-4.871 3.183-5.514 2.401-.643 4.87.782 5.513 3.183" transform="translate(-120 -258) translate(15 228) translate(105.5 30) translate(10.828 28.424)"/>
                        <path stroke="#FFF" stroke-width=".5" d="M40.577 65.015c.644 2.4-.78 4.87-3.183 5.513-2.4.643-4.87-.782-5.513-3.182-.643-2.402.782-4.871 3.183-5.514 2.401-.643 4.87.782 5.513 3.183z" transform="translate(-120 -258) translate(15 228) translate(105.5 30) translate(10.828 28.424)"/>
                    </g>
                    <path fill="#000" stroke="#FFE4CC" stroke-width="4" d="M80.136 43.9L58.16 38.008c-2.465-.66-4.999.802-5.658 3.268-.66 2.464.803 4.996 3.266 5.657l11.205 3.002L44.1 63.142c-2.209 1.276-2.966 4.1-1.69 6.31 1.275 2.21 4.1 2.966 6.31 1.691l22.872-13.205-3.002 11.205c-.662 2.466.8 4.998 3.266 5.657 2.463.661 4.997-.8 5.657-3.266l5.888-21.977c.66-2.465-.801-4.999-3.266-5.658" transform="translate(-120 -258) translate(15 228) translate(105.5 30)"/>
                    <path fill="#000" d="M80.136 43.9L58.16 38.008c-2.465-.66-4.999.802-5.658 3.268-.66 2.464.803 4.996 3.266 5.657l11.205 3.002L44.1 63.142c-2.209 1.276-2.966 4.1-1.69 6.31 1.275 2.21 4.1 2.966 6.31 1.691l22.872-13.205-3.002 11.205c-.662 2.466.8 4.998 3.266 5.657 2.463.661 4.997-.8 5.657-3.266l5.888-21.977c.66-2.465-.801-4.999-3.266-5.658" transform="translate(-120 -258) translate(15 228) translate(105.5 30)"/>
                    <path fill="#FF7900" d="M85.242 78.388l21.978 5.89c2.466.66 4.998-.803 5.659-3.268.66-2.464-.803-4.997-3.266-5.657L98.407 72.35l22.87-13.205c2.21-1.275 2.968-4.1 1.693-6.31-1.276-2.21-4.102-2.966-6.31-1.69L93.785 64.348l3.003-11.204c.661-2.467-.802-4.999-3.266-5.66-2.464-.659-4.997.803-5.659 3.268L81.976 72.73c-.66 2.465.803 4.999 3.266 5.658" transform="translate(-120 -258) translate(15 228) translate(105.5 30)"/>
                </g>
            </g>
        </g>
    </g>
</svg>
