<svg xmlns="http://www.w3.org/2000/svg" xmlns:xlink="http://www.w3.org/1999/xlink" width="99" height="99" viewBox="0 0 99 99">
    <defs>
        <path id="o2u7akl9da" d="M0 0.173L56.169 0.173 56.169 75 0 75z"/>
        <path id="bv6exfrtec" d="M0.381 0.243L42.351 0.243 42.351 42.771 0.381 42.771z"/>
    </defs>
    <g fill="none" fill-rule="evenodd">
        <g>
            <g>
                <g>
                    <path fill="#FF7900" d="M18.37 15.226c-1.304 14.019-30.704 47.28 10.007 66.509 40.712 19.226 27.878-.512 46.925-7.755 19.047-7.243 33.312-49.756 3.252-55.625-30.06-5.867-58.88-17.148-60.184-3.13" opacity=".2" transform="translate(-138 -152) translate(0 112) translate(138 40)"/>
                    <g>
                        <path fill="#FF7900" d="M38.219 26.028l-4.683 8.109 3.974-1.064c.873-.234 1.77.284 2.006 1.158.234.873-.284 1.772-1.158 2.006l-7.792 2.088c-.874.233-1.773-.284-2.007-1.158l-2.088-7.792c-.233-.874.285-1.773 1.158-2.007.874-.234 1.773.285 2.006 1.158L30.7 32.5l4.682-8.11c.452-.783 1.454-1.051 2.237-.6.784.453 1.052 1.455.6 2.238m-12.4 13.568c-.873.235-1.772-.284-2.006-1.158l-1.065-3.972-4.681 8.109c-.452.783-1.454 1.052-2.238.599-.783-.453-1.051-1.454-.6-2.238l4.682-8.108-3.972 1.064c-.873.234-1.772-.284-2.006-1.158-.235-.874.284-1.772 1.158-2.006l7.792-2.088c.874-.234 1.773.284 2.006 1.159l2.088 7.792c.234.874-.284 1.77-1.157 2.005M36.577 4c-.088 0-.18.01-.27.036L3.775 12.754c-.556.148-.886.72-.738 1.277l12.26 45.752 34.549-9.257-2.783-10.39c-3.348-3.435-5.571-7.68-6.58-12.71-.17-.843-.25-1.63-.32-2.326-.024-.24-.048-.48-.077-.718l-.017-.105-.061-.38v-2.455l.022-.227.035-.377c.028-.314.057-.626.09-.94.12-1.141.32-2.257.586-3.351L37.585 4.773C37.46 4.307 37.038 4 36.577 4" transform="translate(-138 -152) translate(0 112) translate(138 40) translate(7 12)"/>
                        <g transform="translate(-138 -152) translate(0 112) translate(138 40) translate(7 12) translate(0 .828)">
                            <mask id="g1o64mdueb" fill="#fff">
                                <use xlink:href="#o2u7akl9da"/>
                            </mask>
                            <path fill="#000" d="M33.524 57.887c1.194-.32 2.44-.157 3.513.462 1.07.618 1.836 1.616 2.156 2.81.319 1.194.155 2.441-.463 3.512-.618 1.07-1.616 1.836-2.81 2.156-.4.107-.801.16-1.196.16-2.043 0-3.918-1.368-4.472-3.432-.66-2.465.808-5.007 3.272-5.668m22.508 3.306l-4.966-18.535c-1.48-1.01-2.813-2.127-4.004-3.349l2.783 10.39-34.548 9.255-12.26-45.752c-.15-.555.18-1.128.737-1.277l32.534-8.718c.09-.024.18-.036.27-.036.46 0 .884.308 1.008.774l3.155 11.773c.416-1.717 1.01-3.37 1.779-4.953l-2.036-7.598c-.578-2.152-2.801-3.43-4.952-2.858L2.997 9.027C.844 9.605-.438 11.825.137 13.98l15.55 58.024C16.17 73.807 17.807 75 19.593 75c.345 0 .696-.045 1.045-.137l32.535-8.718c2.153-.578 3.435-2.799 2.859-4.952" mask="url(#g1o64mdueb)"/>
                        </g>
                        <path fill="#000" d="M24.889 29.798c-.233-.874-1.132-1.393-2.006-1.158l-7.792 2.088c-.874.233-1.392 1.132-1.158 2.006.234.874 1.133 1.391 2.006 1.158l3.972-1.065-4.681 8.11c-.452.783-.184 1.784.599 2.236.784.453 1.786.185 2.238-.599l4.68-8.109 1.066 3.973c.234.874 1.133 1.392 2.007 1.158.873-.235 1.39-1.132 1.157-2.006l-2.088-7.792z" transform="translate(-138 -152) translate(0 112) translate(138 40) translate(7 12)"/>
                        <path fill="#FFF" d="M35.382 24.39L30.7 32.499l-1.065-3.973c-.233-.873-1.132-1.392-2.006-1.158-.873.234-1.392 1.132-1.158 2.006l2.088 7.792c.234.874 1.133 1.392 2.007 1.159l7.792-2.088c.874-.235 1.392-1.133 1.158-2.006-.235-.874-1.133-1.393-2.006-1.158l-3.974 1.064 4.683-8.109c.452-.784.184-1.785-.6-2.238-.783-.452-1.785-.183-2.237.6" transform="translate(-138 -152) translate(0 112) translate(138 40) translate(7 12)"/>
                        <g transform="translate(-138 -152) translate(0 112) translate(138 40) translate(7 12) translate(44 .828)">
                            <mask id="90918vysdd" fill="#fff">
                                <use xlink:href="#bv6exfrtec"/>
                            </mask>
                            <path fill="#000" d="M40.827 13.917c-.02-.052-.049-.102-.079-.152l-.216-.357-.409.117-2.34.966-.449.186.184.448c1.676 4.08 1.73 8.903.144 12.906-1.709 4.313-4.657 7.502-8.764 9.478-2.374 1.142-4.91 1.721-7.537 1.721-5.77 0-11.168-2.865-14.438-7.666-4.859-7.13-3.695-16.893 2.71-22.709 4.131-3.75 8.655-4.539 11.722-4.539 2.766 0 5.515.658 7.805 1.86l-.549.76-1.225 1.696-.468.65.792.115 8.951 1.314.82.12-.296-.773-.779-2.05-2.634-6.923-.32-.842-.527.73-1.298 1.794-.36.5C28.408 1.732 25.308.9 22.05.79c-.247-.008-.494-.013-.74-.013-2.499 0-4.926.44-7.217 1.302-4.669 1.76-8.325 4.833-10.865 9.136-1.495 2.532-2.412 5.33-2.724 8.311-.032.294-.059.588-.085.882l-.036.39-.002 1.886v.038l.006.038.011.072.021.134c.036.287.065.575.094.864.063.625.13 1.272.256 1.906 1.186 5.903 4.337 10.527 9.367 13.743 3.417 2.184 7.126 3.292 11.025 3.292 1.381 0 2.805-.14 4.233-.417 5.305-1.026 9.638-3.774 12.88-8.167 3.078-4.172 4.424-8.963 4.001-14.24-.163-2.027-.65-4.056-1.448-6.03" mask="url(#90918vysdd)"/>
                        </g>
                        <path fill="#FF7900" d="M67.858 20.08h-4.971c-.006-.05-.015-.089-.015-.128 0-.815-.015-1.632.006-2.447.042-1.588 1.086-2.527 2.673-2.402.334.026.678.093.988.216.766.306 1.13.942 1.274 1.72.039.213.05.433.052.65.007.727.003 1.454.003 2.182 0 .066-.006.132-.01.21m-.878 6.502c-.074.06-.145.132-.23.167-.302.123-.343.35-.335.648.02.81.006 1.618.006 2.426v.23h-2.148v-.215c0-.884-.004-1.768.003-2.65 0-.159-.031-.26-.182-.342-.165-.09-.317-.21-.46-.336-.951-.828-1.064-1.99-.265-2.97.622-.765 1.453-1.063 2.417-.899.932.157 1.596.69 1.93 1.59.325.875.059 1.704-.736 2.351m-3.185-13.777c-1.02.283-1.865.858-2.476 1.807-.648 1.004-.936 2.12-.964 3.303-.018.72-.004 1.44-.004 2.176-.46.047-.864.18-1.221.433-.865.617-1.25 1.478-1.25 2.524-.002 2.19-.002 4.38.003 6.57 0 .236.02.477.063.71.019.108.055.21.086.314.345 1.137 1.35 1.944 2.507 1.946h.516c2.877.002 5.754.002 8.63-.004h.526c.24 0 .49-.039.72-.109.855-.253 1.514-.938 1.79-1.816.089-.283.139-.586.142-.9.018-2.28.026-4.559-.004-6.836-.015-1.177-.546-2.092-1.638-2.615-.258-.123-.551-.17-.852-.26v-.198c0-.592-.002-1.183 0-1.775.005-.756-.12-1.49-.364-2.202l-.031-.097c-.17-.469-.4-.882-.663-1.264-.493-.719-1.146-1.288-2.051-1.617-.667-.243-1.353-.33-2.048-.307-.215.006-.43.021-.646.048-.271.034-.521.1-.771.17" transform="translate(-138 -152) translate(0 112) translate(138 40) translate(7 12)"/>
                    </g>
                </g>
            </g>
        </g>
    </g>
</svg>
