<svg xmlns="http://www.w3.org/2000/svg" xmlns:xlink="http://www.w3.org/1999/xlink" width="135" height="134" viewBox="0 0 135 134">
    <defs>
        <path id="u31rfaj75a" d="M0 0L75.124 0 75.124 67.582 0 67.582z"/>
        <path id="60pqdghodc" d="M0 0L73.181 0 73.181 71.57 0 71.57z"/>
        <path id="8bc9det3je" d="M0 0L70.095 0 70.095 74.444 0 74.444z"/>
    </defs>
    <g fill="none" fill-rule="evenodd">
        <g>
            <g>
                <g>
                    <path fill="#FF7900" d="M24.864 20.609C23.1 39.584-16.696 84.605 38.41 110.63c55.105 26.023 37.734-.693 63.514-10.496 25.781-9.803 45.089-67.347 4.401-75.29-40.687-7.943-79.695-23.212-81.46-4.236" opacity=".2" transform="translate(-120 -258) translate(15 228) translate(105.5 30)"/>
                    <g>
                        <path fill="#FFF" stroke="#FFE4CC" stroke-linejoin="round" stroke-width="4" d="M43.557-1.612l6.26 5.303 2.82-2.525 5.635 6.173 3.053-2.079 20.651 29.15-56.624 38.572-1.92-2.707-24.25-20.55L43.556-1.612z" transform="translate(-120 -258) translate(15 228) translate(105.5 30) rotate(-26 104.656 -52.97)"/>
                        <g>
                            <path fill="#FFF" d="M7.251 46.256L25.809 72.985 79.762 35.487 61.204 8.758z" transform="translate(-120 -258) translate(15 228) translate(105.5 30) rotate(-26 104.656 -52.97)"/>
                            <g>
                                <g transform="translate(-120 -258) translate(15 228) translate(105.5 30) rotate(-26 104.656 -52.97) translate(6.088 6.862)">
                                    <mask id="0qzwyxv4nb" fill="#fff">
                                        <use xlink:href="#u31rfaj75a"/>
                                    </mask>
                                    <path fill="#FF7900" d="M55.07 0c-.344 0-.68.107-.966.307L.729 37.764c-.768.54-.96 1.607-.427 2.383l18.36 26.7c.258.372.65.628 1.091.708.1.018.202.027.3.027.344 0 .682-.105.968-.306L74.398 29.82c.769-.539.959-1.606.423-2.383L56.463.737C56.208.363 55.816.11 55.372.03 55.27.01 55.172 0 55.07 0m0 1.714l18.36 26.7-53.377 37.455L1.695 39.17 55.07 1.714" mask="url(#0qzwyxv4nb)"/>
                                </g>
                                <path fill="#FF7900" d="M21.352 40.318l-9.098 6.38 14.83 21.568 9.1-6.377c-4.254-1.508-8.097-4.336-10.869-8.36-2.77-4.031-4.051-8.654-3.963-13.21M50.984 19.628l9.123-6.344 14.73 21.64-9.122 6.345c.11-4.555-1.153-9.185-3.902-13.226-2.75-4.042-6.58-6.887-10.829-8.415M54.77 32.794c4.298 6.203 2.803 14.753-3.339 19.095-6.141 4.34-14.604 2.83-18.901-3.373-4.298-6.206-2.801-14.755 3.339-19.096 6.141-4.342 14.606-2.83 18.901 3.374" transform="translate(-120 -258) translate(15 228) translate(105.5 30) rotate(-26 104.656 -52.97)"/>
                                <path fill="#FFF" d="M50.249 35.923c-2.643-3.862-7.654-5.253-12.52-3.922-2.952 4.126-3.435 9.354-.791 13.218 2.641 3.86 7.655 5.254 12.52 3.924 2.952-4.128 3.434-9.358.79-13.22" transform="translate(-120 -258) translate(15 228) translate(105.5 30) rotate(-26 104.656 -52.97)"/>
                                <path fill="#FF7900" d="M49.697 45.208s-.344 1.418-1.44 2.18c-1.095.76-2.53.574-2.53.574s.341-1.421 1.44-2.18c1.097-.76 2.53-.574 2.53-.574M49.367 38.241L46.647 40.141 46.213 39.506 48.931 37.608zM50.234 39.509L47.516 41.409 47.08 40.774 49.8 38.876zM36.539 41.004s1.206.555 2.367.188c1.164-.366 1.842-1.515 1.842-1.515s-1.205-.553-2.367-.187c-1.162.367-1.842 1.514-1.842 1.514M46.229 34.24s.086 1.334-.665 2.304c-.75.97-2.052 1.207-2.052 1.207s-.088-1.335.663-2.305c.75-.969 2.054-1.206 2.054-1.206M40.023 35.432L44.143 44.391 46.418 44.779 46.864 42.493zM42.047 43.352L39.327 45.252 38.892 44.618 41.611 42.72zM42.914 44.62L40.195 46.52 39.759 45.886 42.48 43.988z" transform="translate(-120 -258) translate(15 228) translate(105.5 30) rotate(-26 104.656 -52.97)"/>
                                <path fill="#FFF" d="M74.352 28.704L26.141 72.733 4.564 48.616 52.773 4.588z" transform="translate(-120 -258) translate(15 228) translate(105.5 30) rotate(-26 104.656 -52.97)"/>
                                <g transform="translate(-120 -258) translate(15 228) translate(105.5 30) rotate(-26 104.656 -52.97) translate(2.867 2.875)">
                                    <mask id="0zzbtr9tud" fill="#fff">
                                        <use xlink:href="#60pqdghodc"/>
                                    </mask>
                                    <path fill="#FF7900" d="M49.906 0c-.42 0-.825.157-1.138.444L.56 44.471c-.695.634-.75 1.717-.121 2.418l21.58 24.117c.303.337.722.537 1.173.562l.085.002c.418 0 .824-.157 1.135-.444L72.622 27.1c.696-.635.75-1.718.121-2.418L51.163.565c-.3-.338-.723-.54-1.171-.563L49.906 0m0 1.714L71.485 25.83l-48.21 44.027L1.697 45.74l48.21-44.026" mask="url(#0zzbtr9tud)"/>
                                </g>
                                <path fill="#FF7900" d="M17.298 41.201l-8.216 7.5 17.433 19.48 8.217-7.497c-4.41-.947-8.578-3.259-11.834-6.895-3.256-3.64-5.11-8.06-5.6-12.588M44.077 16.861l8.247-7.467L69.665 28.96l-8.247 7.467c-.467-4.531-2.301-8.962-5.538-12.616-3.24-3.654-7.396-5.981-11.803-6.95M49.495 29.43c5.045 5.601 4.641 14.272-.901 19.368-5.542 5.099-14.128 4.69-19.172-.908-5.047-5.6-4.644-14.274.9-19.37 5.543-5.098 14.126-4.69 19.173.91" transform="translate(-120 -258) translate(15 228) translate(105.5 30) rotate(-26 104.656 -52.97)"/>
                                <path fill="#FFF" d="M45.405 33.118c-3.108-3.49-8.257-4.226-12.914-2.278-2.407 4.473-2.224 9.721.884 13.212 3.108 3.492 8.257 4.225 12.914 2.279 2.407-4.474 2.224-9.723-.884-13.213" transform="translate(-120 -258) translate(15 228) translate(105.5 30) rotate(-26 104.656 -52.97)"/>
                                <path fill="#FF7900" d="M46.03 42.397s-.162 1.452-1.155 2.347c-.99.896-2.436.896-2.436.896s.163-1.452 1.153-2.346c.991-.897 2.438-.897 2.438-.897M44.821 35.531L42.364 37.763 41.855 37.19 44.31 34.958zM45.842 36.676L43.385 38.909 42.874 38.335 45.331 36.103zM32.449 39.924s1.264.394 2.37-.12c1.111-.513 1.637-1.737 1.637-1.737s-1.264-.396-2.37.118c-1.109.513-1.637 1.739-1.637 1.739M41.204 31.966s.254 1.314-.366 2.372c-.625 1.057-1.885 1.459-1.885 1.459s-.255-1.312.367-2.37c.622-1.06 1.884-1.46 1.884-1.46M35.199 33.948L40.417 42.303 42.722 42.396 42.874 40.069zM38.207 41.544L35.75 43.776 35.241 43.204 37.696 40.97zM39.227 42.689L36.77 44.921 36.259 44.348 38.716 42.117z" transform="translate(-120 -258) translate(15 228) translate(105.5 30) rotate(-26 104.656 -52.97)"/>
                                <path fill="#FFF" d="M68.4 22.852L26.142 72.731 1.694 51.594 43.95 1.712z" transform="translate(-120 -258) translate(15 228) translate(105.5 30) rotate(-26 104.656 -52.97)"/>
                                <g transform="translate(-120 -258) translate(15 228) translate(105.5 30) rotate(-26 104.656 -52.97)">
                                    <mask id="jvgqyczerf" fill="#fff">
                                        <use xlink:href="#8bc9det3je"/>
                                    </mask>
                                    <path fill="#FF7900" d="M43.951 0c-.042 0-.088.002-.13.006-.45.035-.867.248-1.157.593L.406 50.481c-.607.718-.524 1.797.187 2.414L25.04 74.031c.307.268.701.413 1.1.413.045 0 .09-.002.133-.006.448-.033.865-.248 1.157-.591l42.258-49.882c.609-.718.526-1.799-.185-2.416L45.053.411C44.745.145 44.355 0 43.952 0m0 1.713l24.45 21.138-42.26 49.882-24.446-21.14 42.256-49.88" mask="url(#jvgqyczerf)"/>
                                </g>
                                <path fill="#FF7900" d="M13.39 42.598l-7.206 8.496L25.937 68.17l7.204-8.494c-4.495-.374-8.918-2.127-12.608-5.314-3.689-3.188-6.086-7.335-7.143-11.764M36.877 15.006l7.238-8.467 19.67 17.169-7.237 8.471c-1.037-4.436-3.415-8.593-7.088-11.8-3.674-3.207-8.09-4.981-12.583-5.373M43.837 26.775c5.71 4.902 6.406 13.556 1.552 19.327-4.857 5.77-13.42 6.47-19.132 1.568-5.711-4.906-6.407-13.557-1.552-19.327 4.854-5.77 13.42-6.472 19.132-1.568" transform="translate(-120 -258) translate(15 228) translate(105.5 30) rotate(-26 104.656 -52.97)"/>
                                <path fill="#FFF" d="M40.246 30.96c-3.525-3.063-8.722-3.127-13.094-.598-1.825 4.749-.98 9.93 2.543 12.993 3.526 3.06 8.724 3.126 13.094.594 1.823-4.745.982-9.929-2.543-12.99" transform="translate(-120 -258) translate(15 228) translate(105.5 30) rotate(-26 104.656 -52.97)"/>
                                <path fill="#FF7900" d="M42.037 40.083s.024 1.46-.847 2.475c-.872 1.018-2.305 1.205-2.305 1.205s-.021-1.462.85-2.477c.87-1.017 2.302-1.203 2.302-1.203M39.972 33.427L37.818 35.96 37.24 35.457 39.394 32.925zM41.13 34.434L38.974 36.964 38.396 36.462 40.551 33.929zM28.254 39.38s1.307.227 2.338-.425c1.034-.652 1.403-1.935 1.403-1.935s-1.303-.229-2.338.423c-1.032.652-1.403 1.937-1.403 1.937M35.935 30.359s.419 1.27-.066 2.397c-.484 1.13-1.684 1.692-1.684 1.692s-.42-1.27.065-2.399c.482-1.13 1.685-1.69 1.685-1.69M30.228 33.098L36.46 40.713 38.756 40.505 38.613 38.18zM34.171 40.244L32.016 42.777 31.438 42.272 33.593 39.742zM35.327 41.249L33.172 43.781 32.593 43.279 34.749 40.746z" transform="translate(-120 -258) translate(15 228) translate(105.5 30) rotate(-26 104.656 -52.97)"/>
                            </g>
                        </g>
                    </g>
                    <g>
                        <g>
                            <path fill="#FF7900" d="M55.927 68.73l-35.481 9.507c-1.474.395-3.001-.488-3.396-1.96L.094 12.997C-.3 11.523.58 9.995 2.054 9.6L37.535.094c1.474-.395 3.003.488 3.396 1.96l16.956 63.28c.395 1.473-.487 3.002-1.96 3.395" transform="translate(-120 -258) translate(15 228) translate(105.5 30) translate(18.95 28.424)"/>
                            <path stroke="#000" stroke-linecap="round" stroke-linejoin="round" stroke-width="1.5" d="M55.927 68.73l-35.481 9.507c-1.474.395-3.001-.488-3.396-1.96L.094 12.997C-.3 11.523.58 9.995 2.054 9.6L37.535.094c1.474-.395 3.003.488 3.396 1.96l16.956 63.28c.395 1.473-.487 3.002-1.96 3.395z" transform="translate(-120 -258) translate(15 228) translate(105.5 30) translate(18.95 28.424)"/>
                            <path stroke="#000" stroke-width="2" d="M55.927 68.73l-35.481 9.507c-1.474.395-3.001-.488-3.396-1.96L.094 12.997C-.3 11.523.58 9.995 2.054 9.6L37.535.094c1.474-.395 3.003.488 3.396 1.96l16.956 63.28c.395 1.473-.487 3.002-1.96 3.395z" transform="translate(-120 -258) translate(15 228) translate(105.5 30) translate(18.95 28.424)"/>
                            <path fill="#000" d="M54.023 49.864L12.586 60.967 17.17 78.075 58.607 66.971z" transform="translate(-120 -258) translate(15 228) translate(105.5 30) translate(18.95 28.424)"/>
                            <path fill="#FFF" d="M40.577 65.015c.644 2.4-.78 4.87-3.183 5.513-2.4.643-4.87-.782-5.513-3.182-.643-2.402.782-4.871 3.183-5.514 2.401-.643 4.87.782 5.513 3.183" transform="translate(-120 -258) translate(15 228) translate(105.5 30) translate(18.95 28.424)"/>
                            <path stroke="#FFF" stroke-width=".5" d="M40.577 65.015c.644 2.4-.78 4.87-3.183 5.513-2.4.643-4.87-.782-5.513-3.182-.643-2.402.782-4.871 3.183-5.514 2.401-.643 4.87.782 5.513 3.183z" transform="translate(-120 -258) translate(15 228) translate(105.5 30) translate(18.95 28.424)"/>
                        </g>
                        <path fill="#FFF" d="M30.032 26.928h-6.726c-.008-.068-.02-.12-.02-.174.001-1.106-.02-2.214.008-3.32.057-2.154 1.47-3.428 3.616-3.259.452.036.918.126 1.337.293 1.037.416 1.529 1.278 1.724 2.334.053.289.068.587.07.88.01.988.004 1.975.004 2.962 0 .09-.008.18-.013.284m-1.524 8.803c-.1.085-.196.191-.31.242-.408.179-.464.509-.453.941.027 1.175.008 2.35.008 3.524v.334h-2.9v-.312c0-1.284-.005-2.568.005-3.85.001-.23-.042-.378-.246-.496-.223-.13-.428-.306-.62-.488-1.284-1.202-1.437-2.89-.358-4.313.84-1.111 1.96-1.544 3.262-1.306 1.258.228 2.154 1.002 2.605 2.308.439 1.272.08 2.476-.993 3.416M24.25 16.54c-1.38.383-2.524 1.16-3.351 2.445-.877 1.359-1.267 2.868-1.305 4.47-.024.974-.005 1.948-.005 2.944-.623.064-1.17.243-1.653.586-1.17.835-1.69 2-1.692 3.416-.003 2.963-.003 5.927.004 8.89 0 .32.029.646.085.96.026.147.075.285.117.426.467 1.539 1.828 2.63 3.393 2.634.233 0 .466-.002.699 0 3.894.002 7.788.002 11.682-.006h.71c.326 0 .663-.053.975-.147 1.157-.343 2.049-1.27 2.423-2.458.12-.383.188-.793.192-1.22.024-3.083.035-6.167-.006-9.248-.02-1.593-.739-2.831-2.217-3.539-.349-.166-.745-.23-1.153-.352v-.268c0-.8-.003-1.6.001-2.402.006-1.023-.162-2.016-.494-2.98-.014-.043-.025-.087-.042-.13-.228-.635-.54-1.194-.897-1.711-.667-.973-1.551-1.743-2.776-2.188-.903-.33-1.831-.447-2.772-.416-.291.008-.582.029-.874.065-.367.046-.705.134-1.044.229" transform="translate(-120 -258) translate(15 228) translate(105.5 30) translate(18.95 28.424) rotate(-15 26.394 29.778)"/>
                    </g>
                </g>
            </g>
        </g>
    </g>
</svg>
