<svg xmlns="http://www.w3.org/2000/svg" xmlns:xlink="http://www.w3.org/1999/xlink" width="135" height="134" viewBox="0 0 135 134">
    <defs>
        <path id="zy0m9c5lza" d="M1.214 24.692L25.166 11.619 7.743 0.207z"/>
        <path id="z87a8axpvc" d="M1.772 43.998L33.331 65.812 68.923 1.011z"/>
        <path id="p0gd8cj1ue" d="M3.197 1.254L3.167 1.254 3.133 1.256 3.103 1.258 3.073 1.26 3.041 1.264 3.01 1.268 2.98 1.272 2.95 1.278 2.918 1.284 2.888 1.29 2.858 1.298 2.827 1.306 2.797 1.314 2.771 1.324 2.739 1.334 2.707 1.344 2.681 1.358 2.653 1.367 2.623 1.379 2.596 1.395 2.568 1.407 2.54 1.421 2.512 1.437 2.486 1.453 2.46 1.469 2.434 1.485 2.375 1.529 2.307 1.57 2.247 1.612 2.182 1.656 2.122 1.7 2.058 1.742 1.935 1.827 1.815 1.915 1.698 2 1.578 2.088 1.463 2.172 1.346 2.257 1.23 2.343 1.005 2.51 0.894 2.594 0.782 2.675 0.673 2.757 0.561 2.838 0.535 2.856 0.512 2.876 0.486 2.896 0.462 2.916 0.44 2.936 0.416 2.958 0.392 2.98 0.37 3.002 0.352 3.026 0.33 3.047 0.313 3.071 0.291 3.097 0.271 3.119 0.251 3.145 0.237 3.169 0.217 3.197 0.201 3.223 0.185 3.248 0.169 3.276 0.155 3.304 0.139 3.33 0.127 3.36 0.113 3.386 0.102 3.416 0.088 3.444 0.078 3.473 0.068 3.503 0.06 3.531 0.048 3.563 0.042 3.593 0.034 3.623 0.028 3.653 0.02 3.682 0.014 3.714 0.01 3.744 0.006 3.776 0.002 3.806 -0.004 3.836 -0.004 3.868 -0.006 3.899 -0.006 3.929 -0.006 3.961 -0.006 3.993 -0.004 4.023 -0.002 4.055 0.002 4.084 0.004 4.116 0.008 4.146 0.014 4.178 0.018 4.208 0.028 4.24 0.032 4.27 0.04 4.297 0.048 4.329 0.056 4.359 0.066 4.387 0.078 4.419 0.088 4.447 0.1 4.477 0.111 4.504 0.125 4.532 0.137 4.56 0.155 4.588 0.167 4.616 0.181 4.642 0.199 4.67 0.215 4.696 0.231 4.721 0.251 4.745 0.269 4.773 0.289 4.797 0.305 4.821 0.326 4.845 0.346 4.869 0.368 4.891 0.39 4.915 0.41 4.936 0.434 4.958 0.458 4.978 0.482 4.996 0.506 5.018 0.529 5.036 0.553 5.056 0.581 5.074 0.603 5.092 0.631 5.108 0.657 5.124 0.685 5.141 0.711 5.155 0.738 5.171 0.766 5.185 0.794 5.197 0.824 5.211 0.852 5.223 0.88 5.233 0.91 5.245 0.942 5.255 0.969 5.265 0.999 5.273 1.031 5.283 1.059 5.289 1.089 5.295 1.121 5.301 1.149 5.307 1.182 5.313 1.212 5.317 1.242 5.319 1.276 5.321 1.306 5.323 1.336 5.323 1.369 5.325 1.399 5.325 1.429 5.323 1.463 5.321 1.493 5.319 1.523 5.317 1.555 5.313 1.584 5.307 1.616 5.303 1.648 5.299 1.678 5.291 1.708 5.283 1.74 5.275 1.768 5.267 1.797 5.257 1.827 5.245 1.855 5.237 1.885 5.225 1.911 5.213 1.945 5.201 1.971 5.187 1.998 5.175 2.026 5.157 2.054 5.143 2.078 5.128 2.106 5.112 2.134 5.096 2.158 5.078 2.184 5.06 2.301 4.976 2.414 4.889 2.532 4.803 2.645 4.719 2.872 4.552 2.984 4.471 3.095 4.387 3.205 4.307 3.312 4.228 3.422 4.15 3.529 4.071 3.641 3.995 3.694 3.957 3.746 3.919 3.802 3.885 3.854 3.85 3.909 3.812 3.965 3.774 3.991 3.758 4.015 3.738 4.041 3.72 4.063 3.7 4.088 3.68 4.114 3.661 4.134 3.639 4.156 3.617 4.18 3.597 4.202 3.573 4.222 3.551 4.244 3.527 4.264 3.505 4.282 3.479 4.301 3.455 4.321 3.43 4.339 3.404 4.355 3.38 4.371 3.352 4.385 3.326 4.403 3.298 4.419 3.27 4.431 3.243 4.445 3.215 4.457 3.187 4.473 3.157 4.485 3.131 4.493 3.099 4.504 3.071 4.514 3.041 4.524 3.012 4.53 2.982 4.538 2.952 4.544 2.922 4.552 2.89 4.556 2.86 4.562 2.828 4.566 2.799 4.568 2.769 4.572 2.737 4.574 2.705 4.578 2.675 4.576 2.643 4.576 2.614 4.574 2.582 4.576 2.55 4.574 2.52 4.568 2.488 4.566 2.456 4.562 2.426 4.556 2.397 4.55 2.365 4.544 2.335 4.538 2.305 4.528 2.273 4.522 2.243 4.51 2.215 4.502 2.186 4.493 2.156 4.481 2.128 4.471 2.098 4.457 2.07 4.443 2.04 4.429 2.014 4.417 1.985 4.403 1.959 4.387 1.933 4.369 1.905 4.351 1.877 4.335 1.853 4.317 1.827 4.297 1.803 4.28 1.778 4.26 1.754 4.24 1.73 4.22 1.706 4.2 1.682 4.176 1.662 4.154 1.64 4.132 1.618 4.108 1.598 4.084 1.576 4.061 1.557 4.039 1.539 4.011 1.521 3.985 1.503 3.961 1.483 3.935 1.467 3.909 1.451 3.881 1.435 3.856 1.419 3.826 1.405 3.798 1.393 3.774 1.377 3.742 1.365 3.712 1.354 3.686 1.342 3.655 1.334 3.627 1.324 3.597 1.314 3.567 1.306 3.537 1.296 3.505 1.288 3.477 1.282 3.444 1.276 3.414 1.27 3.384 1.268 3.354 1.262 3.32 1.26 3.29 1.258 3.26 1.256 3.227 1.254z"/>
        <path id="zdikqb66rg" d="M4.851 1.883L4.811 1.883 4.771 1.883 4.729 1.885 4.69 1.891 4.646 1.893 4.608 1.901 4.568 1.907 4.53 1.915 4.489 1.925 4.449 1.935 4.413 1.947 4.373 1.961 4.337 1.975 4.297 1.989 4.262 2.004 4.224 2.02 4.19 2.04 4.154 2.06 4.12 2.08 4.086 2.102 4.051 2.124 3.86 2.253 3.674 2.381 3.487 2.51 3.296 2.637 3.109 2.765 2.92 2.892 2.542 3.147 2.162 3.4 1.781 3.655 1.399 3.907 1.019 4.162 0.987 4.186 0.953 4.208 0.922 4.234 0.89 4.258 0.86 4.286 0.828 4.311 0.8 4.341 0.774 4.371 0.744 4.401 0.719 4.431 0.695 4.463 0.669 4.495 0.647 4.528 0.625 4.562 0.601 4.598 0.583 4.632 0.563 4.668 0.543 4.704 0.527 4.739 0.512 4.777 0.496 4.813 0.484 4.851 0.47 4.889 0.46 4.928 0.45 4.966 0.438 5.008 0.432 5.046 0.424 5.084 0.416 5.126 0.412 5.165 0.408 5.207 0.406 5.247 0.404 5.287 0.404 5.329 0.406 5.368 0.406 5.408 0.412 5.448 0.416 5.488 0.42 5.528 0.43 5.567 0.436 5.607 0.448 5.647 0.458 5.687 0.47 5.725 0.484 5.762 0.498 5.8 0.51 5.836 0.527 5.874 0.543 5.912 0.561 5.948 0.581 5.981 0.601 6.017 0.625 6.051 0.649 6.085 0.669 6.119 0.693 6.153 0.719 6.182 0.746 6.212 0.772 6.244 0.802 6.272 0.83 6.3 0.86 6.328 0.888 6.354 0.92 6.382 0.953 6.405 0.987 6.429 1.019 6.451 1.055 6.475 1.087 6.495 1.123 6.515 1.158 6.533 1.192 6.551 1.232 6.567 1.268 6.585 1.308 6.598 1.346 6.61 1.383 6.622 1.421 6.634 1.461 6.644 1.501 6.654 1.539 6.66 1.58 6.668 1.62 6.674 1.66 6.676 1.702 6.68 1.74 6.682 1.78 6.682 1.821 6.682 1.861 6.68 1.903 6.676 1.943 6.674 1.983 6.668 2.022 6.66 2.062 6.654 2.1 6.644 2.14 6.636 2.18 6.622 2.219 6.612 2.257 6.598 2.297 6.585 2.331 6.567 2.369 6.551 2.405 6.533 2.438 6.515 2.476 6.497 2.51 6.475 2.544 6.453 2.926 6.198 3.312 5.944 3.694 5.687 4.077 5.43 4.463 5.171 4.654 5.044 4.845 4.915 5.036 4.783 5.227 4.654 5.418 4.522 5.609 4.393 5.643 4.369 5.675 4.345 5.705 4.319 5.737 4.293 5.768 4.266 5.794 4.24 5.824 4.21 5.852 4.18 5.878 4.15 5.904 4.118 5.932 4.086 5.952 4.055 5.973 4.021 5.995 3.987 6.019 3.953 6.039 3.915 6.059 3.881 6.075 3.846 6.093 3.808 6.107 3.772 6.123 3.734 6.137 3.696 6.149 3.657 6.161 3.619 6.171 3.579 6.177 3.541 6.184 3.501 6.19 3.459 6.196 3.42 6.2 3.38 6.204 3.34 6.206 3.3 6.206 3.258 6.206 3.219 6.204 3.179 6.2 3.139 6.198 3.097 6.192 3.057 6.184 3.018 6.177 2.978 6.171 2.94 6.159 2.898 6.149 2.86 6.137 2.823 6.125 2.785 6.111 2.747 6.093 2.709 6.075 2.673 6.059 2.635 6.039 2.6 6.019 2.566 5.999 2.53 5.975 2.498 5.954 2.464 5.932 2.43 5.904 2.399 5.88 2.369 5.852 2.339 5.824 2.307 5.796 2.279 5.766 2.251 5.737 2.223 5.709 2.198 5.677 2.172 5.643 2.148 5.611 2.126 5.575 2.102 5.544 2.08 5.508 2.06 5.472 2.04 5.436 2.022 5.396 2.004 5.362 1.989 5.323 1.975 5.287 1.961 5.249 1.947 5.211 1.937 5.171 1.927 5.131 1.915 5.092 1.909 5.052 1.901 5.012 1.893 4.974 1.891 4.93 1.887 4.893 1.883z"/>
        <path id="6m3qb2r7bi" d="M5.217 1.224L5.183 1.224 5.153 1.224 5.12 1.226 5.086 1.23 5.056 1.234 5.024 1.238 4.992 1.242 4.958 1.248 4.928 1.256 4.899 1.262 4.865 1.27 4.835 1.28 4.803 1.29 4.773 1.3 4.743 1.312 4.711 1.324 4.682 1.334 4.654 1.35 4.624 1.361 4.596 1.375 4.568 1.391 4.538 1.407 4.483 1.439 4.427 1.473 4.313 1.535 4.2 1.598 4.086 1.664 3.969 1.726 3.85 1.791 3.611 1.921 3.368 2.05 3.241 2.118 3.119 2.186 2.994 2.255 2.868 2.325 2.737 2.397 2.616 2.468 2.588 2.484 2.56 2.5 2.532 2.518 2.506 2.536 2.48 2.556 2.454 2.574 2.428 2.596 2.405 2.616 2.381 2.637 2.357 2.657 2.335 2.681 2.309 2.705 2.287 2.727 2.265 2.751 2.247 2.777 2.223 2.801 2.205 2.827 2.186 2.852 2.168 2.878 2.148 2.906 2.13 2.932 2.114 2.96 2.098 2.988 2.082 3.016 2.07 3.043 2.052 3.073 2.038 3.103 2.026 3.133 2.016 3.161 2.002 3.193 1.994 3.223 1.983 3.252 1.973 3.284 1.967 3.316 1.957 3.346 1.951 3.378 1.945 3.41 1.939 3.442 1.933 3.473 1.929 3.505 1.927 3.537 1.925 3.571 1.925 3.603 1.923 3.635 1.923 3.666 1.921 3.698 1.923 3.73 1.925 3.762 1.927 3.796 1.931 3.828 1.937 3.86 1.943 3.891 1.945 3.923 1.951 3.955 1.961 3.985 1.967 4.019 1.977 4.049 1.985 4.079 1.998 4.108 2.004 4.14 2.018 4.17 2.03 4.2 2.046 4.23 2.056 4.258 2.072 4.288 2.088 4.317 2.102 4.343 2.118 4.373 2.136 4.399 2.154 4.427 2.174 4.453 2.19 4.479 2.211 4.504 2.231 4.53 2.251 4.554 2.271 4.578 2.295 4.604 2.315 4.628 2.339 4.648 2.361 4.672 2.385 4.694 2.412 4.715 2.436 4.735 2.462 4.753 2.488 4.773 2.512 4.791 2.542 4.809 2.568 4.827 2.594 4.843 2.625 4.859 2.651 4.877 2.679 4.891 2.711 4.905 2.737 4.917 2.767 4.932 2.797 4.944 2.828 4.954 2.858 4.966 2.89 4.974 2.922 4.986 2.952 4.992 2.982 5.002 3.014 5.006 3.043 5.014 3.077 5.02 3.109 5.024 3.141 5.028 3.173 5.032 3.207 5.036 3.239 5.036 3.27 5.038 3.304 5.038 3.338 5.038 3.366 5.036 3.4 5.034 3.434 5.03 3.463 5.026 3.497 5.022 3.527 5.018 3.559 5.012 3.591 5.004 3.625 4.998 3.655 4.99 3.684 4.982 3.716 4.972 3.746 4.962 3.776 4.95 3.808 4.94 3.838 4.928 3.866 4.915 3.897 4.901 3.923 4.887 3.953 4.871 3.981 4.857 4.098 4.789 4.208 4.727 4.325 4.662 4.439 4.6 4.56 4.536 4.676 4.471 4.919 4.341 5.165 4.21 5.287 4.142 5.412 4.073 5.538 4.003 5.665 3.931 5.792 3.862 5.858 3.824 5.92 3.788 5.948 3.77 5.975 3.754 6.003 3.736 6.027 3.718 6.055 3.698 6.081 3.678 6.105 3.661 6.129 3.639 6.155 3.619 6.175 3.595 6.2 3.573 6.222 3.551 6.244 3.527 6.266 3.501 6.288 3.477 6.308 3.452 6.326 3.426 6.346 3.402 6.366 3.374 6.384 3.348 6.399 3.32 6.417 3.292 6.435 3.266 6.447 3.237 6.463 3.209 6.477 3.179 6.491 3.151 6.503 3.121 6.515 3.089 6.527 3.059 6.535 3.03 6.547 2.998 6.555 2.968 6.563 2.936 6.573 2.906 6.577 2.874 6.585 2.842 6.591 2.811 6.595 2.779 6.598 2.747 6.6 2.713 6.604 2.681 6.604 2.649 6.606 2.617 6.606 2.586 6.604 2.552 6.602 2.522 6.602 2.488 6.6 2.456 6.595 2.424 6.589 2.391 6.585 2.361 6.581 2.329 6.575 2.299 6.567 2.265 6.559 2.235 6.549 2.203 6.539 2.174 6.529 2.142 6.517 2.112 6.507 2.082 6.495 2.052 6.481 2.022 6.467 1.994 6.453 1.965 6.435 1.937 6.421 1.909 6.405 1.881 6.387 1.853 6.37 1.827 6.352 1.799 6.334 1.774 6.312 1.748 6.292 1.724 6.272 1.698 6.25 1.674 6.226 1.65 6.204 1.628 6.18 1.604 6.157 1.582 6.135 1.563 6.111 1.541 6.085 1.521 6.061 1.501 6.033 1.481 6.007 1.463 5.981 1.443 5.956 1.427 5.924 1.411 5.898 1.395 5.87 1.381 5.838 1.365 5.812 1.35 5.782 1.338 5.753 1.326 5.725 1.314 5.693 1.302 5.661 1.292 5.631 1.282 5.599 1.272 5.567 1.264 5.538 1.258 5.506 1.25 5.476 1.244 5.442 1.238 5.408 1.234 5.378 1.23 5.346 1.226 5.313 1.224 5.279 1.224 5.249 1.222z"/>
        <path id="tx4qtvhy1k" d="M4.262 1.447L4.228 1.447 4.198 1.447 4.166 1.449 4.132 1.451 4.102 1.453 4.067 1.457 4.037 1.461 4.005 1.469 3.975 1.473 3.943 1.479 3.909 1.487 3.881 1.495 3.85 1.505 3.818 1.513 3.79 1.525 3.758 1.535 3.726 1.545 3.7 1.559 3.67 1.572 3.428 1.682 3.187 1.791 2.94 1.903 2.819 1.961 2.693 2.018 2.568 2.078 2.442 2.136 2.315 2.198 2.186 2.259 2.06 2.323 1.935 2.385 1.871 2.418 1.807 2.452 1.744 2.486 1.682 2.518 1.654 2.532 1.626 2.548 1.598 2.564 1.57 2.582 1.545 2.6 1.519 2.617 1.493 2.635 1.469 2.655 1.441 2.677 1.419 2.697 1.395 2.719 1.369 2.741 1.348 2.763 1.326 2.785 1.304 2.811 1.282 2.832 1.26 2.858 1.242 2.884 1.222 2.908 1.202 2.934 1.184 2.958 1.164 2.988 1.149 3.014 1.133 3.041 1.117 3.069 1.101 3.099 1.089 3.125 1.073 3.155 1.059 3.185 1.049 3.213 1.037 3.245 1.027 3.274 1.013 3.304 1.005 3.332 0.997 3.366 0.989 3.396 0.979 3.426 0.971 3.459 0.967 3.489 0.961 3.521 0.957 3.551 0.951 3.585 0.949 3.617 0.949 3.649 0.947 3.68 0.945 3.71 0.945 3.744 0.947 3.776 0.949 3.808 0.949 3.84 0.951 3.872 0.955 3.903 0.959 3.935 0.965 3.967 0.971 3.997 0.977 4.031 0.985 4.061 0.993 4.092 1.001 4.122 1.009 4.154 1.019 4.184 1.031 4.214 1.043 4.244 1.055 4.274 1.067 4.301 1.083 4.333 1.097 4.359 1.109 4.389 1.127 4.417 1.143 4.443 1.158 4.473 1.176 4.499 1.198 4.526 1.214 4.55 1.234 4.576 1.254 4.602 1.274 4.624 1.294 4.65 1.316 4.676 1.34 4.698 1.361 4.719 1.385 4.741 1.409 4.763 1.431 4.785 1.455 4.803 1.483 4.825 1.509 4.843 1.535 4.863 1.559 4.881 1.586 4.897 1.614 4.915 1.642 4.93 1.67 4.944 1.7 4.962 1.728 4.976 1.758 4.988 1.783 5 1.817 5.014 1.847 5.024 1.877 5.036 1.907 5.046 1.935 5.054 1.971 5.064 1.998 5.072 2.028 5.078 2.06 5.086 2.092 5.09 2.126 5.096 2.156 5.1 2.188 5.104 2.219 5.108 2.251 5.108 2.285 5.11 2.315 5.11 2.347 5.11 2.381 5.11 2.41 5.108 2.444 5.106 2.474 5.102 2.506 5.098 2.538 5.092 2.572 5.088 2.602 5.082 2.631 5.074 2.665 5.068 2.697 5.058 2.727 5.05 2.757 5.04 2.789 5.03 2.819 5.018 2.846 5.006 2.876 4.994 2.906 4.982 2.936 4.966 2.962 4.952 3.02 4.922 3.073 4.895 3.129 4.867 3.179 4.839 3.294 4.785 3.404 4.729 3.517 4.676 3.631 4.62 3.742 4.566 3.86 4.512 3.975 4.459 4.092 4.403 4.331 4.293 4.572 4.184 4.815 4.073 4.843 4.061 4.873 4.045 4.901 4.031 4.928 4.015 4.956 3.997 4.984 3.981 5.008 3.963 5.036 3.945 5.062 3.927 5.088 3.907 5.114 3.889 5.139 3.868 5.159 3.848 5.185 3.824 5.211 3.802 5.231 3.78 5.253 3.756 5.277 3.732 5.295 3.71 5.317 3.684 5.337 3.659 5.354 3.633 5.372 3.607 5.392 3.581 5.408 3.553 5.428 3.527 5.444 3.499 5.458 3.471 5.472 3.442 5.484 3.414 5.498 3.386 5.512 3.354 5.526 3.324 5.536 3.296 5.548 3.264 5.557 3.235 5.565 3.205 5.573 3.173 5.581 3.141 5.587 3.111 5.595 3.081 5.599 3.047 5.605 3.016 5.611 2.986 5.615 2.954 5.617 2.92 5.617 2.888 5.619 2.858 5.619 2.827 5.621 2.795 5.619 2.761 5.617 2.729 5.613 2.697 5.611 2.665 5.607 2.635 5.603 2.602 5.597 2.57 5.587 2.54 5.585 2.508 5.575 2.476 5.569 2.446 5.555 2.416 5.549 2.385 5.538 2.355 5.528 2.325 5.514 2.295 5.502 2.265 5.488 2.237 5.474 2.207 5.46 2.18 5.446 2.152 5.428 2.124 5.41 2.096 5.392 2.07 5.376 2.042 5.358 2.016 5.339 1.99 5.321 1.965 5.299 1.939 5.279 1.917 5.257 1.893 5.233 1.869 5.213 1.847 5.191 1.823 5.167 1.801 5.141 1.78 5.118 1.76 5.094 1.74 5.068 1.722 5.04 1.702 5.014 1.684 4.986 1.666 4.96 1.65 4.934 1.632 4.905 1.616 4.877 1.602 4.849 1.586 4.819 1.574 4.791 1.561 4.763 1.549 4.731 1.537 4.7 1.525 4.67 1.515 4.638 1.507 4.61 1.497 4.578 1.487 4.548 1.481 4.516 1.473 4.483 1.469 4.451 1.463 4.421 1.459 4.387 1.455 4.357 1.451 4.325 1.449 4.292 1.447z"/>
        <path id="9dml7fcn4m" d="M4.184 1.045L4.146 1.045 4.11 1.047 4.075 1.049 4.039 1.053 4.003 1.057 3.965 1.063 3.929 1.069 3.891 1.075 3.856 1.085 3.824 1.093 3.786 1.105 3.752 1.115 3.716 1.127 3.682 1.141 3.651 1.154 3.617 1.168 3.583 1.182 3.553 1.2 3.517 1.216 3.209 1.391 2.894 1.563 2.584 1.734 2.271 1.903 1.961 2.074 1.648 2.243 1.017 2.584 0.989 2.602 0.953 2.621 0.922 2.641 0.892 2.661 0.864 2.683 0.832 2.703 0.806 2.727 0.776 2.751 0.75 2.775 0.723 2.799 0.697 2.827 0.671 2.85 0.647 2.88 0.621 2.906 0.599 2.936 0.577 2.964 0.555 2.992 0.533 3.024 0.514 3.053 0.496 3.085 0.476 3.115 0.456 3.149 0.44 3.181 0.426 3.215 0.412 3.246 0.396 3.28 0.382 3.314 0.372 3.35 0.36 3.384 0.348 3.418 0.338 3.455 0.33 3.491 0.324 3.525 0.316 3.563 0.313 3.599 0.307 3.635 0.303 3.67 0.301 3.706 0.299 3.744 0.297 3.78 0.297 3.818 0.299 3.854 0.301 3.889 0.305 3.927 0.307 3.963 0.314 4.001 0.318 4.037 0.326 4.073 0.334 4.108 0.344 4.144 0.35 4.178 0.362 4.214 0.376 4.248 0.386 4.284 0.4 4.317 0.416 4.351 0.432 4.385 0.446 4.417 0.464 4.449 0.484 4.481 0.5 4.512 0.522 4.544 0.541 4.574 0.559 4.604 0.583 4.634 0.607 4.662 0.631 4.69 0.657 4.717 0.681 4.743 0.705 4.769 0.733 4.797 0.758 4.821 0.784 4.845 0.814 4.869 0.844 4.891 0.874 4.913 0.902 4.932 0.936 4.952 0.965 4.972 0.997 4.992 1.029 5.008 1.061 5.026 1.095 5.042 1.129 5.056 1.16 5.07 1.196 5.084 1.232 5.096 1.264 5.106 1.3 5.118 1.336 5.128 1.371 5.135 1.409 5.141 1.445 5.149 1.481 5.155 1.517 5.159 1.553 5.163 1.588 5.167 1.624 5.169 1.664 5.169 1.7 5.169 1.736 5.167 1.772 5.165 1.809 5.163 1.845 5.157 1.881 5.153 1.919 5.147 1.955 5.139 1.992 5.133 2.024 5.124 2.062 5.114 2.098 5.104 2.132 5.092 2.164 5.08 2.198 5.066 2.231 5.05 2.265 5.036 2.299 5.02 2.335 5.002 2.962 4.662 3.278 4.491 3.591 4.317 3.907 4.146 4.224 3.971 4.54 3.796 4.857 3.623 4.887 3.605 4.919 3.585 4.948 3.565 4.98 3.545 5.01 3.525 5.038 3.501 5.068 3.477 5.094 3.455 5.124 3.43 5.149 3.404 5.175 3.38 5.201 3.352 5.225 3.326 5.249 3.296 5.271 3.268 5.295 3.241 5.313 3.209 5.335 3.179 5.354 3.151 5.374 3.117 5.392 3.085 5.41 3.053 5.426 3.022 5.442 2.988 5.454 2.954 5.47 2.918 5.484 2.884 5.494 2.85 5.506 2.817 5.516 2.781 5.524 2.745 5.534 2.709 5.54 2.673 5.546 2.637 5.553 2.602 5.557 2.564 5.557 2.528 5.563 2.492 5.563 2.454 5.565 2.418 5.563 2.381 5.561 2.345 5.559 2.309 5.557 2.273 5.551 2.237 5.546 2.199 5.54 2.164 5.534 2.13 5.524 2.092 5.514 2.058 5.506 2.022 5.496 1.987 5.482 1.953 5.468 1.919 5.456 1.885 5.438 1.851 5.426 1.817 5.408 1.785 5.392 1.754 5.37 1.72 5.354 1.69 5.335 1.66 5.313 1.628 5.291 1.598 5.269 1.57 5.249 1.541 5.221 1.513 5.199 1.485 5.171 1.461 5.145 1.433 5.12 1.409 5.094 1.383 5.062 1.36 5.038 1.338 5.008 1.316 4.978 1.294 4.946 1.272 4.917 1.254 4.883 1.234 4.855 1.216 4.821 1.198 4.789 1.182 4.751 1.166 4.719 1.152 4.688 1.141 4.652 1.127 4.62 1.113 4.582 1.103 4.546 1.093 4.51 1.085 4.477 1.075 4.439 1.069 4.405 1.063 4.367 1.055 4.331 1.053 4.295 1.049 4.26 1.047 4.224 1.045z"/>
        <path id="5oruhfxwno" d="M4.516 1.688L4.479 1.688 4.447 1.69 4.409 1.692 4.373 1.696 4.339 1.698 4.303 1.704 4.272 1.71 4.238 1.714 4.202 1.724 4.168 1.732 4.132 1.742 4.098 1.752 4.067 1.764 4.033 1.776 4.001 1.787 3.969 1.801 3.935 1.815 3.903 1.831 3.875 1.847 3.844 1.863 3.812 1.881 3.782 1.899 3.752 1.917 3.613 2.01 3.477 2.1 3.342 2.188 3.205 2.277 3.067 2.363 2.932 2.448 2.793 2.536 2.655 2.621 2.512 2.707 2.375 2.791 2.233 2.876 2.092 2.96 1.949 3.043 1.807 3.127 1.664 3.209 1.519 3.292 1.489 3.31 1.461 3.328 1.429 3.348 1.403 3.368 1.373 3.39 1.346 3.412 1.32 3.434 1.29 3.455 1.266 3.481 1.242 3.503 1.216 3.529 1.192 3.557 1.17 3.581 1.145 3.609 1.123 3.637 1.105 3.664 1.081 3.69 1.063 3.72 1.043 3.752 1.023 3.78 1.009 3.81 0.989 3.842 0.973 3.873 0.957 3.903 0.945 3.935 0.93 3.971 0.918 4.003 0.908 4.035 0.894 4.069 0.884 4.1 0.874 4.134 0.866 4.168 0.86 4.204 0.854 4.24 0.844 4.274 0.84 4.307 0.838 4.343 0.838 4.377 0.832 4.413 0.83 4.449 0.83 4.483 0.832 4.518 0.834 4.554 0.836 4.588 0.838 4.624 0.842 4.658 0.848 4.694 0.852 4.727 0.86 4.761 0.868 4.795 0.874 4.829 0.884 4.865 0.894 4.899 0.906 4.932 0.916 4.964 0.93 4.998 0.945 5.03 0.957 5.062 0.973 5.094 0.989 5.126 1.005 5.155 1.023 5.187 1.039 5.217 1.061 5.245 1.081 5.275 1.103 5.303 1.123 5.331 1.145 5.358 1.168 5.386 1.192 5.412 1.214 5.438 1.238 5.462 1.264 5.488 1.29 5.512 1.318 5.534 1.344 5.555 1.373 5.579 1.399 5.599 1.427 5.619 1.459 5.637 1.487 5.655 1.517 5.675 1.551 5.691 1.58 5.709 1.61 5.725 1.642 5.741 1.676 5.753 1.708 5.766 1.74 5.778 1.774 5.79 1.809 5.8 1.841 5.81 1.875 5.818 1.911 5.828 1.945 5.834 1.981 5.84 2.012 5.846 2.048 5.85 2.084 5.854 2.118 5.856 2.154 5.858 2.19 5.86 2.223 5.86 2.259 5.858 2.295 5.856 2.329 5.854 2.365 5.85 2.397 5.846 2.434 5.842 2.468 5.834 2.504 5.828 2.538 5.82 2.572 5.812 2.606 5.8 2.637 5.79 2.671 5.78 2.705 5.766 2.739 5.755 2.771 5.741 2.805 5.725 2.832 5.709 2.864 5.693 2.896 5.675 3.043 5.591 3.195 5.504 3.344 5.414 3.495 5.327 3.647 5.239 3.796 5.147 3.945 5.058 4.096 4.966 4.242 4.875 4.393 4.781 4.542 4.688 4.692 4.592 4.839 4.497 4.988 4.401 5.135 4.303 5.281 4.208 5.309 4.186 5.335 4.168 5.368 4.146 5.392 4.122 5.42 4.1 5.444 4.079 5.472 4.053 5.498 4.029 5.524 4.005 5.546 3.977 5.565 3.951 5.591 3.923 5.609 3.895 5.633 3.868 5.655 3.84 5.673 3.81 5.693 3.78 5.709 3.75 5.729 3.718 5.745 3.688 5.757 3.657 5.774 3.625 5.786 3.593 5.798 3.559 5.812 3.525 5.822 3.493 5.836 3.459 5.844 3.426 5.852 3.392 5.86 3.358 5.868 3.324 5.874 3.29 5.878 3.254 5.884 3.219 5.888 3.183 5.89 3.149 5.892 3.113 5.892 3.079 5.892 3.043 5.892 3.01 5.89 2.974 5.888 2.94 5.884 2.904 5.88 2.868 5.874 2.834 5.87 2.801 5.862 2.765 5.852 2.731 5.842 2.697 5.836 2.663 5.824 2.629 5.812 2.598 5.798 2.564 5.788 2.532 5.774 2.5 5.757 2.466 5.743 2.436 5.727 2.405 5.709 2.375 5.691 2.345 5.673 2.315 5.651 2.285 5.631 2.255 5.609 2.229 5.591 2.199 5.567 2.174 5.546 2.146 5.522 2.122 5.494 2.096 5.472 2.07 5.444 2.046 5.42 2.022 5.39 2 5.366 1.981 5.335 1.959 5.307 1.937 5.279 1.917 5.247 1.897 5.217 1.879 5.189 1.861 5.159 1.845 5.126 1.829 5.094 1.815 5.064 1.801 5.03 1.785 4.998 1.774 4.966 1.764 4.93 1.75 4.897 1.742 4.865 1.732 4.829 1.724 4.795 1.714 4.759 1.71 4.725 1.702 4.69 1.698 4.654 1.696 4.62 1.692 4.584 1.69 4.552 1.688z"/>
        <path id="40vcjmpkqq" d="M3.85 1.939L3.818 1.939 3.788 1.939 3.76 1.943 3.728 1.943 3.694 1.945 3.666 1.949 3.637 1.955 3.603 1.959 3.575 1.965 3.545 1.971 3.513 1.977 3.483 1.987 3.455 1.994 3.426 2.002 3.394 2.012 3.368 2.022 3.336 2.034 3.308 2.046 3.28 2.058 3.25 2.07 3.225 2.084 3.195 2.098 3.171 2.114 3.143 2.128 3.087 2.16 3.039 2.19 2.932 2.251 2.825 2.313 2.715 2.375 2.492 2.5 2.377 2.566 2.257 2.631 2.142 2.699 2.022 2.767 1.961 2.803 1.901 2.838 1.841 2.874 1.778 2.914 1.718 2.95 1.652 2.99 1.592 3.03 1.529 3.069 1.465 3.109 1.403 3.151 1.342 3.193 1.284 3.233 1.254 3.25 1.23 3.268 1.204 3.286 1.182 3.306 1.158 3.326 1.137 3.348 1.113 3.37 1.091 3.39 1.069 3.412 1.047 3.434 1.029 3.457 1.005 3.481 0.987 3.503 0.967 3.529 0.949 3.553 0.932 3.577 0.916 3.603 0.898 3.629 0.88 3.657 0.864 3.68 0.848 3.708 0.836 3.736 0.824 3.764 0.808 3.792 0.796 3.82 0.784 3.848 0.77 3.877 0.76 3.905 0.75 3.933 0.74 3.965 0.734 3.993 0.723 4.023 0.717 4.055 0.711 4.083 0.705 4.112 0.699 4.144 0.695 4.174 0.691 4.206 0.687 4.236 0.685 4.268 0.681 4.297 0.681 4.327 0.679 4.359 0.681 4.391 0.681 4.421 0.683 4.451 0.685 4.483 0.687 4.512 0.691 4.542 0.697 4.574 0.701 4.606 0.707 4.634 0.713 4.666 0.719 4.696 0.727 4.725 0.734 4.755 0.744 4.785 0.754 4.813 0.764 4.845 0.774 4.873 0.788 4.901 0.8 4.928 0.81 4.956 0.824 4.986 0.84 5.012 0.852 5.04 0.87 5.066 0.884 5.092 0.902 5.118 0.918 5.145 0.936 5.169 0.953 5.193 0.973 5.219 0.993 5.243 1.011 5.267 1.035 5.291 1.055 5.313 1.075 5.335 1.099 5.356 1.119 5.378 1.145 5.398 1.166 5.418 1.19 5.438 1.214 5.456 1.238 5.476 1.262 5.494 1.29 5.512 1.316 5.528 1.344 5.544 1.369 5.561 1.397 5.577 1.423 5.591 1.451 5.603 1.479 5.617 1.507 5.631 1.533 5.643 1.563 5.653 1.592 5.665 1.622 5.675 1.652 5.685 1.68 5.693 1.708 5.703 1.742 5.707 1.77 5.715 1.803 5.723 1.831 5.727 1.863 5.731 1.891 5.737 1.921 5.739 1.955 5.741 1.985 5.743 2.014 5.745 2.044 5.745 2.078 5.745 2.108 5.745 2.138 5.743 2.168 5.741 2.203 5.739 2.233 5.735 2.263 5.731 2.293 5.725 2.323 5.721 2.355 5.713 2.383 5.705 2.414 5.699 2.44 5.691 2.472 5.683 2.504 5.671 2.53 5.661 2.562 5.651 2.588 5.639 2.616 5.627 2.647 5.615 2.671 5.599 2.703 5.587 2.725 5.571 2.755 5.557 2.781 5.542 2.807 5.524 2.832 5.508 2.884 5.472 2.926 5.442 2.974 5.412 3.02 5.382 3.067 5.352 3.115 5.323 3.165 5.293 3.213 5.261 3.262 5.233 3.312 5.203 3.362 5.173 3.412 5.143 3.517 5.082 3.623 5.022 3.732 4.96 3.844 4.899 4.069 4.771 4.184 4.706 4.303 4.638 4.425 4.568 4.485 4.534 4.544 4.499 4.57 4.483 4.596 4.467 4.622 4.449 4.646 4.433 4.672 4.413 4.696 4.393 4.719 4.375 4.745 4.355 4.767 4.333 4.787 4.311 4.813 4.29 4.833 4.27 4.855 4.246 4.875 4.224 4.895 4.2 4.917 4.176 4.934 4.152 4.954 4.128 4.97 4.102 4.988 4.077 5.004 4.051 5.02 4.025 5.036 3.999 5.052 3.971 5.066 3.945 5.082 3.917 5.094 3.889 5.108 3.86 5.118 3.832 5.131 3.804 5.141 3.774 5.151 3.746 5.161 3.716 5.167 3.686 5.179 3.657 5.185 3.627 5.191 3.597 5.195 3.567 5.203 3.537 5.207 3.505 5.211 3.475 5.213 3.446 5.215 3.414 5.219 3.382 5.221 3.352 5.221 3.322 5.219 3.29 5.221 3.258 5.219 3.229 5.215 3.197 5.213 3.167 5.211 3.137 5.205 3.107 5.199 3.075 5.195 3.045 5.187 3.016 5.181 2.984 5.175 2.954 5.165 2.926 5.155 2.894 5.145 2.866 5.135 2.838 5.124 2.809 5.112 2.781 5.1 2.751 5.088 2.723 5.074 2.695 5.06 2.667 5.044 2.641 5.028 2.616 5.014 2.588 4.996 2.562 4.98 2.536 4.962 2.51 4.944 2.486 4.924 2.462 4.907 2.438 4.887 2.414 4.867 2.391 4.843 2.369 4.821 2.347 4.799 2.323 4.779 2.303 4.755 2.281 4.731 2.263 4.71 2.243 4.686 2.223 4.658 2.205 4.634 2.188 4.608 2.17 4.582 2.154 4.554 2.138 4.528 2.122 4.501 2.104 4.475 2.092 4.447 2.078 4.419 2.064 4.391 2.05 4.363 2.038 4.335 2.028 4.305 2.016 4.276 2.006 4.246 1.998 4.216 1.99 4.186 1.981 4.158 1.975 4.126 1.967 4.096 1.961 4.067 1.957 4.035 1.953 4.005 1.947 3.973 1.943 3.943 1.943 3.911 1.941 3.883 1.939z"/>
        <path id="dbi1unf45s" d="M1.793 1.831L1.762 1.831 1.73 1.831 1.7 1.833 1.666 1.837 1.636 1.839 1.604 1.845 1.572 1.847 1.543 1.855 1.511 1.861 1.477 1.867 1.447 1.875 1.417 1.885 1.385 1.893 1.356 1.903 1.328 1.913 1.298 1.925 1.268 1.937 1.238 1.949 1.208 1.963 1.18 1.975 1.151 1.99 1.125 2.006 1.095 2.022 1.069 2.038 1.043 2.056 1.015 2.074 0.991 2.092 0.963 2.11 0.938 2.13 0.916 2.15 0.894 2.17 0.866 2.192 0.846 2.213 0.82 2.235 0.798 2.259 0.776 2.281 0.756 2.305 0.736 2.331 0.715 2.353 0.695 2.379 0.677 2.405 0.661 2.43 0.643 2.456 0.625 2.484 0.611 2.512 0.593 2.54 0.577 2.566 0.561 2.596 0.549 2.623 0.535 2.653 0.522 2.683 0.512 2.711 0.5 2.743 0.488 2.773 0.48 2.801 0.472 2.832 0.462 2.864 0.454 2.892 0.45 2.924 0.444 2.958 0.436 2.988 0.432 3.018 0.43 3.049 0.426 3.083 0.424 3.115 0.42 3.145 0.418 3.177 0.42 3.211 0.42 3.241 0.422 3.272 0.424 3.304 0.426 3.336 0.432 3.368 0.432 3.4 0.438 3.43 0.442 3.461 0.452 3.493 0.456 3.525 0.464 3.553 0.472 3.585 0.484 3.617 0.492 3.645 0.502 3.676 0.514 3.706 0.523 3.734 0.539 3.766 0.553 3.794 0.567 3.822 0.579 3.85 0.595 3.877 0.611 3.905 0.627 3.931 0.645 3.961 0.661 3.985 0.681 4.013 0.701 4.037 0.719 4.063 0.738 4.086 0.758 4.11 0.782 4.134 0.804 4.158 0.826 4.18 0.846 4.202 0.87 4.226 0.898 4.246 0.92 4.268 0.943 4.286 0.971 4.305 0.997 4.323 1.021 4.341 1.047 4.359 1.164 4.435 1.286 4.514 1.403 4.59 1.523 4.662 1.756 4.807 1.867 4.879 1.981 4.948 2.09 5.02 2.199 5.092 2.253 5.124 2.303 5.159 2.355 5.193 2.408 5.227 2.458 5.261 2.51 5.295 2.56 5.329 2.606 5.362 2.653 5.396 2.703 5.432 2.751 5.468 2.801 5.504 2.828 5.522 2.852 5.54 2.876 5.557 2.906 5.575 2.934 5.591 2.96 5.607 2.99 5.621 3.018 5.635 3.047 5.649 3.077 5.663 3.105 5.675 3.137 5.685 3.167 5.697 3.195 5.707 3.227 5.717 3.254 5.725 3.288 5.733 3.318 5.741 3.348 5.747 3.38 5.755 3.41 5.757 3.444 5.762 3.475 5.766 3.507 5.768 3.537 5.772 3.569 5.772 3.601 5.772 3.635 5.772 3.663 5.772 3.696 5.772 3.728 5.77 3.762 5.766 3.79 5.762 3.824 5.758 3.854 5.755 3.885 5.749 3.917 5.741 3.947 5.735 3.979 5.727 4.009 5.717 4.039 5.709 4.071 5.699 4.1 5.687 4.128 5.677 4.158 5.665 4.19 5.651 4.218 5.639 4.246 5.623 4.276 5.609 4.301 5.593 4.331 5.575 4.355 5.559 4.383 5.544 4.409 5.526 4.435 5.506 4.461 5.488 4.485 5.468 4.51 5.448 4.534 5.428 4.556 5.406 4.58 5.382 4.604 5.36 4.626 5.339 4.646 5.315 4.668 5.291 4.688 5.267 4.706 5.241 4.729 5.215 4.745 5.191 4.763 5.163 4.779 5.139 4.797 5.112 4.815 5.084 4.829 5.056 4.843 5.028 4.859 5 4.873 4.97 4.885 4.942 4.897 4.911 4.909 4.883 4.919 4.853 4.928 4.823 4.938 4.793 4.948 4.763 4.954 4.731 4.962 4.7 4.97 4.67 4.976 4.638 4.98 4.606 4.984 4.574 4.988 4.544 4.994 4.512 4.994 4.481 4.998 4.449 4.996 4.417 4.998 4.385 4.998 4.353 4.996 4.321 4.994 4.29 4.988 4.258 4.986 4.228 4.982 4.194 4.976 4.164 4.972 4.132 4.964 4.102 4.956 4.071 4.95 4.039 4.94 4.009 4.93 3.979 4.92 3.949 4.911 3.919 4.899 3.889 4.887 3.86 4.875 3.83 4.861 3.802 4.849 3.772 4.831 3.746 4.817 3.718 4.801 3.69 4.785 3.663 4.767 3.637 4.747 3.609 4.731 3.585 4.711 3.559 4.69 3.533 4.67 3.509 4.648 3.485 4.628 3.461 4.606 3.44 4.586 3.416 4.562 3.394 4.538 3.372 4.516 3.354 4.489 3.332 4.463 3.312 4.439 3.292 4.379 3.248 4.317 3.205 4.256 3.159 4.194 3.115 4.128 3.069 4.067 3.028 4.005 2.984 3.943 2.942 3.881 2.902 3.82 2.862 3.756 2.821 3.694 2.781 3.573 2.703 3.455 2.625 3.338 2.552 3.219 2.476 2.99 2.333 2.876 2.261 2.765 2.192 2.657 2.124 2.546 2.052 2.518 2.034 2.494 2.018 2.466 2.004 2.436 1.989 2.408 1.975 2.381 1.959 2.349 1.947 2.321 1.935 2.291 1.921 2.259 1.913 2.231 1.903 2.201 1.891 2.172 1.883 2.142 1.873 2.108 1.867 2.078 1.859 2.048 1.853 2.014 1.847 1.985 1.843 1.953 1.839 1.923 1.835 1.889 1.833 1.855 1.831 1.827 1.831z"/>
        <path id="4os4a8l7zu" d="M3.117 1.586L3.087 1.586 3.059 1.588 3.03 1.59 3.002 1.592 2.972 1.594 2.944 1.598 2.914 1.602 2.882 1.608 2.854 1.612 2.825 1.618 2.797 1.626 2.771 1.632 2.739 1.64 2.711 1.648 2.685 1.66 2.657 1.668 2.629 1.68 2.602 1.69 2.576 1.702 2.548 1.714 2.52 1.726 2.494 1.738 2.468 1.754 2.442 1.768 2.418 1.781 2.395 1.797 2.369 1.813 2.345 1.829 2.319 1.845 2.295 1.863 2.275 1.881 2.249 1.899 2.227 1.919 2.205 1.939 2.184 1.959 2.162 1.979 2.14 2 2.122 2.022 2.102 2.042 2.08 2.064 2.06 2.086 2.042 2.11 2.026 2.132 2.008 2.156 1.99 2.182 1.977 2.205 1.961 2.231 1.945 2.255 1.929 2.281 1.915 2.307 1.899 2.333 1.887 2.359 1.875 2.385 1.863 2.412 1.851 2.438 1.841 2.468 1.831 2.494 1.821 2.522 1.809 2.55 1.805 2.578 1.793 2.606 1.787 2.633 1.78 2.663 1.776 2.691 1.77 2.721 1.766 2.749 1.762 2.779 1.758 2.809 1.754 2.836 1.754 2.866 1.75 2.896 1.748 2.926 1.75 2.954 1.75 2.984 1.752 3.012 1.75 3.043 1.752 3.073 1.756 3.101 1.76 3.131 1.764 3.159 1.768 3.189 1.772 3.219 1.78 3.246 1.785 3.276 1.791 3.304 1.801 3.332 1.807 3.362 1.817 3.388 1.825 3.418 1.837 3.444 1.847 3.473 1.859 3.499 1.871 3.525 1.881 3.553 1.897 3.579 1.909 3.605 1.921 3.631 1.939 3.657 1.951 3.682 1.967 3.706 1.985 3.73 2.002 3.756 2.018 3.778 2.036 3.802 2.054 3.826 2.074 3.848 2.092 3.87 2.112 3.891 2.132 3.913 2.152 3.935 2.172 3.955 2.196 3.975 2.217 3.995 2.239 4.013 2.259 4.033 2.285 4.051 2.309 4.069 2.405 4.14 2.506 4.212 2.606 4.286 2.705 4.357 2.803 4.427 2.902 4.499 3.004 4.57 3.103 4.64 3.205 4.711 3.304 4.781 3.404 4.849 3.505 4.919 3.603 4.986 3.706 5.054 3.903 5.189 3.925 5.205 3.953 5.221 3.975 5.235 4.003 5.249 4.029 5.265 4.053 5.279 4.081 5.291 4.106 5.303 4.134 5.315 4.162 5.327 4.19 5.339 4.218 5.346 4.246 5.356 4.274 5.364 4.299 5.374 4.331 5.38 4.357 5.388 4.387 5.394 4.419 5.4 4.443 5.406 4.475 5.408 4.504 5.412 4.53 5.418 4.562 5.42 4.592 5.422 4.622 5.424 4.65 5.424 4.68 5.424 4.71 5.424 4.739 5.424 4.765 5.422 4.797 5.42 4.827 5.416 4.857 5.412 4.885 5.408 4.915 5.404 4.942 5.398 4.972 5.392 5 5.386 5.028 5.378 5.058 5.372 5.086 5.362 5.112 5.354 5.141 5.342 5.167 5.333 5.195 5.321 5.223 5.311 5.249 5.299 5.279 5.285 5.301 5.273 5.329 5.261 5.354 5.247 5.378 5.231 5.406 5.215 5.43 5.199 5.456 5.183 5.478 5.165 5.502 5.147 5.528 5.131 5.549 5.112 5.569 5.092 5.591 5.074 5.613 5.054 5.635 5.034 5.659 5.014 5.677 4.992 5.697 4.97 5.717 4.948 5.735 4.926 5.755 4.905 5.772 4.881 5.788 4.855 5.808 4.833 5.824 4.807 5.84 4.783 5.856 4.759 5.87 4.731 5.884 4.708 5.898 4.68 5.91 4.656 5.924 4.628 5.936 4.602 5.948 4.574 5.96 4.548 5.967 4.518 5.979 4.493 5.989 4.463 5.997 4.437 6.001 4.407 6.013 4.379 6.019 4.351 6.023 4.321 6.031 4.293 6.035 4.264 6.039 4.234 6.043 4.206 6.047 4.176 6.047 4.148 6.049 4.118 6.053 4.086 6.051 4.059 6.053 4.031 6.049 4.001 6.051 3.971 6.049 3.941 6.047 3.911 6.041 3.883 6.039 3.854 6.035 3.824 6.029 3.798 6.023 3.766 6.017 3.738 6.011 3.708 6.001 3.68 5.995 3.655 5.983 3.625 5.975 3.597 5.966 3.569 5.956 3.543 5.946 3.513 5.934 3.489 5.92 3.461 5.908 3.436 5.894 3.408 5.88 3.384 5.866 3.356 5.852 3.332 5.834 3.308 5.82 3.282 5.802 3.258 5.784 3.235 5.766 3.211 5.749 3.189 5.731 3.167 5.711 3.143 5.693 3.121 5.671 3.099 5.651 3.079 5.627 3.057 5.607 3.037 5.587 3.018 5.563 2.998 5.54 2.98 5.52 2.962 5.494 2.944 5.47 2.926 5.446 2.91 5.251 2.779 5.157 2.713 5.062 2.649 4.968 2.584 4.873 2.518 4.779 2.452 4.686 2.387 4.59 2.323 4.499 2.255 4.407 2.19 4.315 2.124 4.22 2.058 4.128 1.99 4.037 1.923 3.941 1.855 3.919 1.839 3.895 1.821 3.872 1.805 3.844 1.789 3.82 1.774 3.796 1.76 3.768 1.746 3.744 1.732 3.716 1.72 3.69 1.706 3.664 1.696 3.635 1.684 3.607 1.674 3.581 1.664 3.553 1.654 3.523 1.646 3.497 1.636 3.467 1.628 3.44 1.622 3.41 1.616 3.38 1.61 3.352 1.604 3.324 1.6 3.294 1.594 3.266 1.594 3.237 1.592 3.207 1.588 3.175 1.588 3.149 1.586z"/>
        <path id="1jmfd3czmw" d="M3.059 1.232L3.03 1.232 3 1.232 2.97 1.234 2.94 1.236 2.91 1.24 2.882 1.244 2.852 1.248 2.823 1.252 2.791 1.258 2.765 1.264 2.733 1.27 2.707 1.278 2.677 1.286 2.647 1.294 2.617 1.304 2.59 1.312 2.562 1.322 2.536 1.334 2.508 1.346 2.482 1.358 2.452 1.369 2.428 1.383 2.401 1.395 2.373 1.411 2.349 1.427 2.323 1.443 2.297 1.459 2.275 1.475 2.249 1.493 2.225 1.509 2.199 1.527 2.178 1.547 2.154 1.565 2.132 1.586 2.11 1.606 2.088 1.624 2.068 1.646 2.048 1.668 2.026 1.69 2.006 1.714 1.989 1.736 1.969 1.76 1.951 1.783 1.935 1.805 1.915 1.831 1.901 1.855 1.885 1.881 1.869 1.907 1.853 1.931 1.839 1.959 1.827 1.985 1.813 2.012 1.801 2.036 1.787 2.066 1.774 2.092 1.766 2.122 1.754 2.148 1.746 2.178 1.736 2.205 1.728 2.233 1.72 2.263 1.714 2.291 1.708 2.321 1.7 2.351 1.696 2.379 1.688 2.408 1.684 2.438 1.684 2.468 1.68 2.498 1.678 2.526 1.678 2.558 1.676 2.588 1.676 2.616 1.676 2.645 1.676 2.677 1.678 2.705 1.68 2.737 1.684 2.765 1.688 2.795 1.694 2.825 1.698 2.854 1.704 2.882 1.71 2.912 1.716 2.942 1.726 2.97 1.732 3 1.742 3.028 1.748 3.057 1.762 3.083 1.772 3.111 1.783 3.139 1.793 3.165 1.807 3.195 1.819 3.221 1.833 3.246 1.847 3.274 1.861 3.298 1.875 3.326 1.893 3.35 1.911 3.374 1.925 3.4 1.945 3.424 1.963 3.448 1.981 3.469 2 3.493 2.018 3.517 2.038 3.539 2.058 3.559 2.08 3.581 2.104 3.603 2.124 3.623 2.146 3.643 2.166 3.663 2.19 3.68 2.213 3.7 2.237 3.718 2.265 3.736 2.365 3.806 2.466 3.877 2.667 4.019 2.868 4.156 2.966 4.224 3.063 4.293 3.161 4.361 3.252 4.429 3.348 4.497 3.444 4.564 3.535 4.632 3.623 4.698 3.714 4.767 3.758 4.799 3.802 4.835 3.828 4.853 3.852 4.871 3.877 4.887 3.899 4.905 3.925 4.922 3.953 4.936 3.977 4.95 4.003 4.964 4.029 4.978 4.057 4.992 4.083 5.004 4.112 5.016 4.14 5.028 4.166 5.038 4.196 5.048 4.222 5.058 4.254 5.066 4.28 5.074 4.309 5.082 4.341 5.09 4.367 5.096 4.397 5.102 4.427 5.106 4.457 5.112 4.487 5.116 4.514 5.12 4.544 5.12 4.574 5.122 4.604 5.124 4.634 5.124 4.666 5.124 4.696 5.124 4.723 5.122 4.753 5.12 4.781 5.12 4.811 5.116 4.843 5.11 4.873 5.106 4.901 5.102 4.93 5.096 4.958 5.09 4.988 5.082 5.018 5.074 5.046 5.066 5.074 5.058 5.104 5.048 5.133 5.038 5.159 5.028 5.187 5.014 5.215 5.004 5.241 4.992 5.267 4.976 5.295 4.964 5.321 4.948 5.346 4.934 5.37 4.92 5.398 4.905 5.42 4.887 5.448 4.869 5.47 4.851 5.494 4.833 5.52 4.815 5.542 4.797 5.563 4.777 5.583 4.757 5.605 4.737 5.627 4.715 5.649 4.694 5.669 4.672 5.687 4.65 5.709 4.628 5.727 4.604 5.743 4.58 5.762 4.556 5.78 4.532 5.796 4.508 5.814 4.483 5.83 4.457 5.846 4.431 5.858 4.405 5.87 4.379 5.886 4.351 5.898 4.327 5.91 4.297 5.922 4.272 5.934 4.244 5.942 4.216 5.954 4.188 5.964 4.158 5.969 4.13 5.979 4.1 5.987 4.073 5.993 4.045 6.001 4.013 6.005 3.985 6.009 3.955 6.011 3.925 6.015 3.897 6.021 3.868 6.021 3.838 6.025 3.808 6.027 3.778 6.025 3.748 6.025 3.718 6.023 3.688 6.021 3.659 6.019 3.631 6.015 3.599 6.011 3.569 6.011 3.541 6.005 3.509 5.999 3.481 5.991 3.452 5.987 3.424 5.977 3.394 5.971 3.366 5.962 3.336 5.952 3.31 5.942 3.28 5.932 3.252 5.922 3.225 5.91 3.199 5.898 3.171 5.886 3.143 5.87 3.117 5.856 3.091 5.842 3.063 5.828 3.039 5.814 3.014 5.796 2.988 5.778 2.964 5.762 2.938 5.743 2.916 5.725 2.892 5.707 2.868 5.687 2.846 5.669 2.825 5.649 2.803 5.625 2.781 5.603 2.761 5.583 2.739 5.561 2.719 5.54 2.701 5.516 2.681 5.492 2.663 5.442 2.623 5.386 2.582 5.281 2.502 5.175 2.422 5.068 2.343 4.966 2.269 4.861 2.192 4.753 2.118 4.652 2.044 4.546 1.971 4.445 1.899 4.24 1.76 4.041 1.62 3.943 1.553 3.844 1.483 3.82 1.465 3.792 1.449 3.768 1.431 3.742 1.417 3.716 1.403 3.692 1.389 3.664 1.375 3.639 1.361 3.609 1.35 3.581 1.34 3.555 1.328 3.527 1.318 3.499 1.308 3.469 1.298 3.442 1.288 3.412 1.282 3.384 1.274 3.354 1.268 3.326 1.26 3.298 1.254 3.268 1.25 3.237 1.246 3.207 1.242 3.179 1.238 3.147 1.236 3.117 1.234 3.091 1.232z"/>
        <path id="b6xwre2yry" d="M2.408 1.28L2.383 1.28 2.353 1.282 2.325 1.282 2.295 1.284 2.267 1.286 2.237 1.29 2.209 1.294 2.18 1.3 2.154 1.304 2.126 1.31 2.096 1.316 2.066 1.322 2.04 1.33 2.012 1.338 1.987 1.346 1.957 1.354 1.931 1.365 1.903 1.375 1.877 1.387 1.851 1.397 1.823 1.409 1.799 1.423 1.772 1.435 1.746 1.447 1.724 1.463 1.698 1.479 1.672 1.493 1.65 1.509 1.624 1.525 1.602 1.541 1.578 1.559 1.557 1.574 1.531 1.594 1.509 1.612 1.487 1.632 1.467 1.652 1.447 1.672 1.425 1.692 1.405 1.71 1.387 1.732 1.367 1.754 1.35 1.778 1.332 1.799 1.314 1.821 1.296 1.845 1.278 1.869 1.262 1.891 1.246 1.917 1.23 1.941 1.218 1.965 1.204 1.99 1.188 2.014 1.174 2.042 1.162 2.068 1.151 2.094 1.141 2.12 1.131 2.146 1.119 2.176 1.111 2.201 1.101 2.229 1.091 2.255 1.083 2.283 1.077 2.311 1.069 2.339 1.061 2.369 1.057 2.395 1.051 2.424 1.047 2.452 1.043 2.482 1.041 2.51 1.037 2.538 1.035 2.568 1.035 2.596 1.033 2.625 1.033 2.653 1.031 2.681 1.033 2.711 1.035 2.739 1.037 2.769 1.039 2.797 1.041 2.825 1.047 2.854 1.051 2.882 1.057 2.912 1.061 2.94 1.067 2.966 1.075 2.996 1.083 3.022 1.093 3.051 1.099 3.077 1.109 3.105 1.119 3.133 1.127 3.161 1.139 3.185 1.151 3.213 1.164 3.239 1.174 3.264 1.188 3.29 1.2 3.316 1.216 3.34 1.232 3.366 1.246 3.39 1.26 3.414 1.278 3.44 1.294 3.463 1.314 3.485 1.332 3.507 1.348 3.531 1.365 3.553 1.385 3.575 1.405 3.595 1.425 3.615 1.443 3.637 1.463 3.657 1.487 3.676 1.509 3.694 1.531 3.714 1.551 3.732 1.576 3.75 1.598 3.766 1.622 3.784 1.646 3.8 1.67 3.814 1.694 3.83 1.72 3.844 1.905 3.953 2.09 4.061 2.182 4.114 2.273 4.166 2.363 4.22 2.454 4.274 2.544 4.327 2.631 4.381 2.719 4.437 2.809 4.491 2.898 4.544 2.982 4.6 3.071 4.656 3.159 4.711 3.185 4.727 3.209 4.741 3.235 4.757 3.258 4.771 3.284 4.783 3.312 4.795 3.336 4.809 3.362 4.819 3.39 4.829 3.416 4.841 3.446 4.851 3.471 4.861 3.499 4.869 3.527 4.877 3.553 4.885 3.583 4.893 3.609 4.899 3.641 4.905 3.666 4.911 3.694 4.915 3.724 4.919 3.754 4.92 3.782 4.924 3.812 4.926 3.838 4.928 3.87 4.93 3.893 4.93 3.927 4.93 3.957 4.928 3.983 4.928 4.015 4.926 4.041 4.922 4.069 4.919 4.098 4.917 4.124 4.913 4.156 4.907 4.182 4.901 4.21 4.897 4.24 4.889 4.27 4.881 4.295 4.873 4.321 4.865 4.349 4.857 4.377 4.847 4.405 4.837 4.429 4.827 4.457 4.813 4.485 4.803 4.508 4.791 4.536 4.777 4.562 4.763 4.586 4.749 4.61 4.735 4.636 4.721 4.66 4.704 4.684 4.688 4.706 4.67 4.731 4.654 4.751 4.636 4.777 4.618 4.799 4.6 4.821 4.582 4.841 4.562 4.861 4.542 4.883 4.522 4.901 4.501 4.922 4.481 4.942 4.459 4.962 4.437 4.98 4.415 4.996 4.393 5.014 4.369 5.03 4.345 5.046 4.321 5.062 4.297 5.078 4.272 5.094 4.248 5.108 4.222 5.12 4.198 5.135 4.172 5.145 4.146 5.159 4.12 5.171 4.094 5.181 4.069 5.191 4.041 5.201 4.013 5.211 3.987 5.219 3.959 5.229 3.933 5.235 3.903 5.241 3.875 5.249 3.846 5.255 3.82 5.259 3.79 5.263 3.762 5.271 3.734 5.271 3.704 5.275 3.676 5.275 3.647 5.279 3.619 5.281 3.591 5.283 3.561 5.279 3.533 5.281 3.503 5.279 3.475 5.277 3.448 5.275 3.418 5.271 3.39 5.267 3.36 5.263 3.332 5.257 3.304 5.253 3.274 5.243 3.248 5.239 3.219 5.231 3.191 5.221 3.163 5.215 3.137 5.205 3.109 5.195 3.081 5.187 3.055 5.175 3.03 5.163 3.002 5.153 2.976 5.139 2.948 5.128 2.924 5.114 2.898 5.1 2.874 5.086 2.848 5.072 2.823 5.054 2.801 5.038 2.775 5.022 2.751 5.004 2.729 4.986 2.705 4.968 2.683 4.948 2.661 4.93 2.641 4.913 2.617 4.891 2.598 4.871 2.576 4.851 2.556 4.829 2.536 4.809 2.518 4.787 2.5 4.763 2.482 4.741 2.464 4.717 2.446 4.696 2.428 4.672 2.412 4.646 2.397 4.554 2.337 4.455 2.275 4.357 2.213 4.26 2.154 4.162 2.092 4.065 2.032 3.967 1.975 3.872 1.915 3.772 1.857 3.676 1.801 3.581 1.744 3.481 1.686 3.29 1.574 3.097 1.463 3.073 1.449 3.047 1.437 3.024 1.423 2.996 1.409 2.97 1.399 2.944 1.387 2.918 1.375 2.888 1.365 2.862 1.356 2.836 1.348 2.809 1.338 2.781 1.33 2.753 1.322 2.727 1.316 2.695 1.31 2.669 1.304 2.641 1.3 2.612 1.294 2.584 1.29 2.554 1.286 2.524 1.284 2.496 1.282 2.466 1.282 2.44 1.28z"/>
        <path id="vtw9jf30sA" d="M1.451 0.804L1.439 0.804 1.425 0.804 1.413 0.804 1.399 0.804 1.385 0.804 1.373 0.804 1.361 0.804 1.346 0.804 1.334 0.804 1.322 0.806 1.306 0.806 1.294 0.808 1.28 0.81 1.268 0.81 1.254 0.812 1.238 0.812 1.228 0.812 1.216 0.814 1.2 0.818 1.188 0.818 1.176 0.822 1.162 0.824 1.149 0.826 1.137 0.828 1.123 0.83 1.109 0.832 1.097 0.836 1.085 0.838 1.073 0.842 1.057 0.846 1.045 0.848 1.033 0.852 1.019 0.856 1.009 0.86 0.993 0.862 0.983 0.866 0.969 0.87 0.957 0.876 0.945 0.88 0.934 0.884 0.922 0.888 0.908 0.892 0.894 0.898 0.88 0.902 0.872 0.906 0.86 0.912 0.846 0.918 0.836 0.922 0.822 0.928 0.81 0.934 0.798 0.938 0.786 0.945 0.774 0.951 0.762 0.955 0.75 0.963 0.74 0.969 0.729 0.975 0.715 0.981 0.703 0.989 0.695 0.995 0.681 1.003 0.669 1.009 0.661 1.015 0.647 1.023 0.637 1.029 0.625 1.037 0.613 1.045 0.605 1.053 0.591 1.061 0.583 1.067 0.571 1.075 0.561 1.083 0.553 1.093 0.539 1.099 0.529 1.109 0.518 1.117 0.508 1.125 0.5 1.135 0.49 1.143 0.482 1.152 0.468 1.158 0.46 1.168 0.448 1.176 0.442 1.188 0.43 1.196 0.422 1.204 0.412 1.214 0.402 1.224 0.392 1.234 0.384 1.242 0.374 1.254 0.366 1.262 0.358 1.272 0.35 1.282 0.34 1.294 0.33 1.302 0.324 1.314 0.316 1.324 0.309 1.334 0.301 1.346 0.289 1.356 0.285 1.365 0.275 1.375 0.267 1.385 0.263 1.397 0.251 1.407 0.247 1.419 0.239 1.431 0.231 1.441 0.225 1.453 0.217 1.463 0.211 1.475 0.205 1.487 0.197 1.497 0.193 1.509 0.185 1.521 0.179 1.533 0.173 1.545 0.165 1.557 0.159 1.567 0.153 1.58 0.149 1.592 0.143 1.602 0.137 1.616 0.133 1.628 0.125 1.638 0.121 1.654 0.117 1.666 0.111 1.676 0.105 1.69 0.102 1.702 0.098 1.714 0.094 1.726 0.09 1.74 0.084 1.752 0.082 1.764 0.078 1.778 0.074 1.789 0.07 1.801 0.068 1.813 0.064 1.827 0.06 1.841 0.056 1.851 0.054 1.867 0.05 1.879 0.046 1.891 0.046 1.905 0.042 1.919 0.038 1.931 0.036 1.943 0.036 1.957 0.032 1.969 0.032 1.983 0.028 1.994 0.028 2.01 0.024 2.022 0.024 2.034 0.022 2.048 0.022 2.062 0.018 2.076 0.018 2.088 0.018 2.102 0.018 2.114 0.018 2.128 0.016 2.14 0.016 2.154 0.016 2.168 0.016 2.18 0.016 2.194 0.018 2.207 0.018 2.219 0.016 2.231 0.016 2.245 0.018 2.261 0.018 2.273 0.022 2.285 0.02 2.299 0.024 2.313 0.022 2.325 0.026 2.339 0.028 2.353 0.032 2.365 0.032 2.377 0.034 2.391 0.036 2.405 0.038 2.418 0.042 2.43 0.044 2.442 0.046 2.456 0.05 2.468 0.052 2.48 0.054 2.496 0.056 2.508 0.058 2.52 0.066 2.532 0.068 2.546 0.07 2.558 0.072 2.572 0.078 2.584 0.082 2.596 0.086 2.608 0.088 2.619 0.094 2.635 0.102 2.647 0.104 2.659 0.107 2.671 0.113 2.683 0.117 2.695 0.123 2.709 0.127 2.721 0.133 2.731 0.139 2.745 0.145 2.757 0.149 2.767 0.157 2.781 0.161 2.793 0.167 2.803 0.173 2.817 0.179 2.827 0.183 2.838 0.193 2.85 0.197 2.862 0.205 2.872 0.213 2.884 0.219 2.896 0.225 2.908 0.233 2.918 0.239 2.928 0.249 2.942 0.255 2.952 0.263 2.962 0.271 2.974 0.277 2.984 0.285 2.996 0.295 3.006 0.303 3.016 0.307 3.028 0.316 3.036 0.324 3.047 0.334 3.057 0.342 3.067 0.352 3.077 0.358 3.087 0.368 3.097 0.376 3.107 0.386 3.117 0.394 3.127 0.404 3.137 0.414 3.145 0.424 3.155 0.432 3.163 0.442 3.175 0.45 3.183 0.462 3.193 0.47 3.201 0.482 3.211 0.492 3.219 0.5 3.227 0.514 3.235 0.522 3.245 0.533 3.25 0.541 3.26 0.553 3.266 0.561 3.276 0.573 3.284 0.585 3.292 0.593 3.3 0.607 3.306 0.619 3.314 0.627 3.322 0.94 3.531 0.951 3.537 0.963 3.545 0.971 3.553 0.983 3.559 0.997 3.567 1.007 3.573 1.019 3.579 1.031 3.587 1.039 3.591 1.053 3.599 1.065 3.607 1.075 3.611 1.089 3.619 1.099 3.625 1.111 3.629 1.125 3.635 1.135 3.641 1.147 3.645 1.162 3.651 1.174 3.657 1.186 3.661 1.198 3.666 1.21 3.67 1.222 3.676 1.234 3.678 1.246 3.684 1.26 3.688 1.272 3.694 1.284 3.696 1.296 3.7 1.312 3.704 1.324 3.71 1.336 3.714 1.348 3.714 1.361 3.72 1.373 3.722 1.385 3.726 1.397 3.728 1.413 3.732 1.425 3.734 1.437 3.736 1.451 3.738 1.465 3.742 1.475 3.744 1.491 3.746 1.503 3.748 1.519 3.748 1.531 3.75 1.541 3.754 1.557 3.754 1.569 3.756 1.58 3.758 1.596 3.758 1.608 3.76 1.62 3.76 1.634 3.762 1.646 3.762 1.662 3.762 1.674 3.764 1.69 3.764 1.7 3.764 1.714 3.764 1.728 3.764 1.74 3.762 1.754 3.762 1.768 3.762 1.78 3.762 1.793 3.76 1.807 3.76 1.819 3.758 1.835 3.758 1.845 3.756 1.859 3.754 1.873 3.754 1.885 3.75 1.897 3.748 1.913 3.748 1.925 3.746 1.937 3.744 1.951 3.74 1.965 3.738 1.977 3.736 1.989 3.734 2.004 3.732 2.016 3.728 2.028 3.724 2.04 3.722 2.056 3.718 2.068 3.714 2.08 3.712 2.092 3.708 2.104 3.704 2.118 3.7 2.132 3.696 2.146 3.692 2.156 3.688 2.168 3.682 2.182 3.678 2.194 3.676 2.203 3.67 2.217 3.664 2.229 3.661 2.241 3.655 2.255 3.649 2.265 3.643 2.277 3.639 2.291 3.633 2.303 3.629 2.315 3.623 2.327 3.615 2.337 3.609 2.349 3.605 2.363 3.599 2.375 3.591 2.385 3.587 2.397 3.579 2.408 3.571 2.418 3.565 2.43 3.557 2.44 3.551 2.452 3.543 2.464 3.537 2.474 3.529 2.484 3.521 2.496 3.515 2.506 3.507 2.518 3.499 2.526 3.491 2.54 3.483 2.55 3.475 2.56 3.465 2.572 3.459 2.58 3.45 2.59 3.442 2.602 3.434 2.612 3.426 2.619 3.416 2.629 3.408 2.639 3.398 2.651 3.39 2.661 3.38 2.669 3.372 2.681 3.362 2.687 3.352 2.699 3.344 2.707 3.334 2.717 3.324 2.723 3.314 2.733 3.304 2.741 3.294 2.753 3.284 2.761 3.274 2.767 3.264 2.777 3.254 2.783 3.245 2.793 3.233 2.801 3.223 2.809 3.213 2.817 3.201 2.825 3.191 2.832 3.179 2.838 3.169 2.846 3.159 2.856 3.147 2.862 3.137 2.868 3.123 2.874 3.115 2.884 3.103 2.89 3.091 2.898 3.081 2.902 3.069 2.91 3.057 2.916 3.045 2.922 3.032 2.928 3.024 2.936 3.01 2.938 2.998 2.946 2.986 2.952 2.976 2.958 2.962 2.964 2.95 2.968 2.938 2.974 2.926 2.978 2.914 2.984 2.902 2.988 2.89 2.994 2.878 2.998 2.866 3.004 2.854 3.008 2.84 3.01 2.827 3.014 2.815 3.02 2.803 3.026 2.791 3.028 2.779 3.03 2.765 3.034 2.751 3.037 2.739 3.041 2.727 3.043 2.713 3.047 2.701 3.051 2.689 3.051 2.675 3.055 2.661 3.059 2.649 3.061 2.637 3.061 2.623 3.065 2.61 3.065 2.598 3.069 2.584 3.071 2.57 3.073 2.558 3.075 2.546 3.075 2.532 3.079 2.518 3.079 2.506 3.079 2.492 3.081 2.478 3.083 2.466 3.083 2.452 3.083 2.44 3.083 2.424 3.083 2.412 3.085 2.401 3.081 2.387 3.081 2.373 3.083 2.361 3.083 2.347 3.081 2.335 3.081 2.319 3.081 2.307 3.081 2.295 3.081 2.281 3.077 2.267 3.077 2.255 3.075 2.241 3.075 2.227 3.073 2.215 3.071 2.203 3.067 2.19 3.067 2.176 3.065 2.162 3.061 2.15 3.061 2.138 3.059 2.124 3.055 2.112 3.051 2.098 3.049 2.084 3.047 2.072 3.043 2.06 3.039 2.046 3.037 2.032 3.034 2.02 3.032 2.008 3.026 1.994 3.024 1.983 3.018 1.971 3.016 1.959 3.008 1.945 3.008 1.933 3.002 1.921 2.998 1.907 2.992 1.895 2.988 1.883 2.982 1.871 2.976 1.859 2.972 1.847 2.968 1.833 2.962 1.821 2.956 1.811 2.952 1.797 2.946 1.785 2.938 1.776 2.934 1.762 2.928 1.752 2.918 1.74 2.914 1.726 2.908 1.716 2.902 1.706 2.894 1.692 2.888 1.682 2.882 1.672 2.874 1.658 2.868 1.648 2.86 1.636 2.854 1.626 2.846 1.614 2.836 1.602 2.83 1.592 2.823 1.582 2.815 1.572 2.809 1.563 2.799 1.551 2.791 1.541 2.781 1.529 2.777 1.519 2.767 1.509 2.757 1.499 2.751 1.489 2.741 1.479 2.733 1.471 2.723 1.459 2.715 1.451 2.703 1.439 2.695 1.431 2.687 1.421 2.677 1.411 2.667 1.401 2.659 1.393 2.649 1.385 2.639 1.375 2.631 1.367 2.617 1.358 2.61 1.35 2.598 1.34 2.59 1.332 2.578 1.324 2.568 1.314 2.558 1.308 2.548 1.298 2.536 1.292 2.526 1.282 2.516 1.276 2.504 1.268 2.494 1.26 2.482 1.252 2.472 1.244 2.162 1.037 2.148 1.027 2.138 1.021 2.126 1.015 2.116 1.009 2.106 1.001 2.094 0.993 2.08 0.987 2.07 0.981 2.058 0.973 2.046 0.969 2.034 0.961 2.022 0.955 2.01 0.949 1.998 0.943 1.987 0.938 1.975 0.934 1.963 0.926 1.951 0.922 1.939 0.916 1.927 0.912 1.915 0.906 1.903 0.9 1.893 0.896 1.877 0.892 1.863 0.886 1.853 0.884 1.841 0.878 1.827 0.874 1.817 0.87 1.803 0.866 1.789 0.862 1.778 0.858 1.768 0.854 1.752 0.85 1.738 0.848 1.728 0.846 1.712 0.842 1.7 0.838 1.688 0.834 1.678 0.832 1.662 0.83 1.648 0.828 1.634 0.826 1.622 0.822 1.61 0.82 1.598 0.818 1.584 0.816 1.57 0.814 1.557 0.812 1.545 0.812 1.533 0.812 1.519 0.81 1.505 0.808 1.489 0.808 1.479 0.806 1.467 0.804z"/>
    </defs>
    <g fill="none" fill-rule="evenodd">
        <g>
            <g>
                <g>
                    <g>
                        <path fill="#FF7900" d="M22.157 9.78c-1.765 18.976-41.56 63.997 13.546 90.022 55.104 26.024 37.733-.692 63.514-10.496 25.781-9.803 45.089-67.346 4.401-75.29C62.931 6.074 23.923-9.195 22.158 9.78" opacity=".2" transform="translate(-120 -250) translate(15 220) translate(105.5 30) translate(2.707 10.828)"/>
                        <path fill="#CCC" d="M1.286 46.271L29.135 61.637 114.545 22.86z" transform="translate(-120 -250) translate(15 220) translate(105.5 30) translate(2.707 10.828)"/>
                        <path fill="#333" d="M29.136 61.638L40.864 90.333 97.911 38.478 114.544 22.861z" transform="translate(-120 -250) translate(15 220) translate(105.5 30) translate(2.707 10.828)"/>
                        <path fill="#ECEDED" d="M41.006 21.362L40.864 90.333 92.492 51.66 91.14 0.711z" transform="translate(-120 -250) translate(15 220) translate(105.5 30) translate(2.707 10.828)"/>
                        <path fill="gray" d="M13.702 45.85L13.674 45.85 13.645 45.85 13.617 45.852 13.589 45.854 13.563 45.858 13.533 45.86 13.505 45.862 13.477 45.868 13.452 45.872 13.424 45.877 13.396 45.881 13.37 45.889 13.342 45.895 13.314 45.903 13.286 45.911 13.26 45.919 13.235 45.929 13.207 45.939 13.179 45.949 13.155 45.959 13.131 45.971 13.103 45.983 13.079 45.995 13.053 46.007 13.03 46.021 13.006 46.035 12.98 46.049 12.956 46.065 12.936 46.079 12.908 46.094 12.886 46.11 12.864 46.128 12.84 46.146 12.821 46.164 12.799 46.182 12.777 46.2 12.759 46.218 12.737 46.236 12.717 46.258 12.695 46.278 12.677 46.297 12.657 46.319 12.639 46.341 12.624 46.361 12.604 46.383 12.588 46.407 12.574 46.429 12.554 46.451 12.542 46.475 12.526 46.499 12.51 46.522 12.496 46.546 12.484 46.572 12.472 46.596 12.458 46.622 12.444 46.648 12.432 46.672 12.422 46.7 12.413 46.723 12.405 46.751 12.393 46.775 12.383 46.805 12.377 46.829 12.369 46.857 12.359 46.885 12.355 46.913 12.349 46.938 12.343 46.968 12.337 46.994 12.333 47.024 12.331 47.05 12.325 47.078 12.321 47.106 12.321 47.133 12.319 47.161 12.319 47.189 12.319 47.219 12.317 47.245 12.319 47.273 12.319 47.301 12.321 47.329 12.325 47.358 12.327 47.386 12.331 47.414 12.335 47.442 12.341 47.47 12.345 47.496 12.349 47.526 12.359 47.551 12.365 47.577 12.371 47.605 12.381 47.633 12.389 47.659 12.397 47.687 12.407 47.713 12.418 47.739 12.426 47.764 12.438 47.79 12.45 47.814 12.462 47.84 12.474 47.866 12.49 47.89 12.504 47.916 12.518 47.938 12.532 47.962 12.548 47.985 12.564 48.009 12.582 48.031 12.596 48.055 12.614 48.077 12.631 48.099 12.651 48.121 12.669 48.141 12.689 48.163 12.707 48.182 12.725 48.202 12.747 48.222 12.767 48.242 12.789 48.26 12.809 48.278 12.833 48.296 12.85 48.314 12.876 48.33 12.9 48.348 13.077 48.473 13.256 48.6 13.611 48.847 13.784 48.969 13.959 49.092 14.041 49.152 14.126 49.212 14.212 49.273 14.298 49.335 14.321 49.353 14.341 49.367 14.365 49.383 14.389 49.397 14.415 49.411 14.439 49.425 14.463 49.438 14.489 49.45 14.514 49.464 14.538 49.476 14.564 49.486 14.588 49.498 14.618 49.508 14.644 49.516 14.672 49.526 14.698 49.534 14.723 49.544 14.751 49.55 14.779 49.558 14.803 49.564 14.833 49.57 14.859 49.574 14.887 49.58 14.915 49.584 14.942 49.586 14.97 49.59 15 49.594 15.028 49.594 15.056 49.596 15.086 49.598 15.112 49.598 15.139 49.596 15.165 49.596 15.197 49.594 15.223 49.592 15.251 49.59 15.281 49.586 15.307 49.582 15.337 49.578 15.362 49.572 15.39 49.568 15.416 49.562 15.446 49.554 15.472 49.548 15.5 49.538 15.528 49.532 15.552 49.522 15.577 49.512 15.607 49.502 15.631 49.492 15.659 49.48 15.681 49.47 15.707 49.458 15.735 49.444 15.759 49.433 15.784 49.419 15.808 49.405 15.83 49.389 15.854 49.375 15.88 49.359 15.9 49.343 15.926 49.327 15.948 49.309 15.97 49.291 15.989 49.275 16.013 49.255 16.031 49.237 16.053 49.218 16.075 49.198 16.093 49.18 16.111 49.158 16.129 49.138 16.149 49.116 16.169 49.096 16.185 49.072 16.202 49.05 16.218 49.028 16.234 49.007 16.252 48.983 16.266 48.959 16.282 48.935 16.294 48.911 16.31 48.887 16.324 48.863 16.336 48.837 16.35 48.811 16.36 48.786 16.374 48.762 16.382 48.736 16.392 48.708 16.401 48.682 16.413 48.654 16.419 48.628 16.429 48.6 16.435 48.575 16.443 48.547 16.449 48.521 16.453 48.493 16.459 48.465 16.465 48.439 16.469 48.409 16.471 48.384 16.477 48.354 16.477 48.328 16.479 48.298 16.483 48.27 16.483 48.242 16.481 48.214 16.481 48.186 16.479 48.157 16.477 48.131 16.475 48.101 16.473 48.075 16.471 48.047 16.467 48.019 16.461 47.991 16.455 47.964 16.451 47.938 16.445 47.908 16.437 47.882 16.433 47.854 16.423 47.828 16.415 47.8 16.407 47.774 16.397 47.747 16.388 47.723 16.378 47.695 16.366 47.669 16.356 47.643 16.344 47.617 16.328 47.593 16.314 47.567 16.304 47.544 16.29 47.52 16.274 47.496 16.256 47.472 16.242 47.448 16.226 47.424 16.212 47.402 16.194 47.38 16.177 47.358 16.161 47.337 16.139 47.315 16.123 47.295 16.101 47.273 16.083 47.255 16.063 47.235 16.043 47.215 16.021 47.195 15.999 47.177 15.977 47.159 15.958 47.141 15.934 47.126 15.914 47.108 15.822 47.042 15.735 46.978 15.643 46.913 15.552 46.849 15.372 46.719 15.191 46.594 14.841 46.349 14.666 46.226 14.493 46.102 14.469 46.088 14.447 46.073 14.423 46.057 14.399 46.041 14.375 46.029 14.347 46.015 14.323 46.001 14.301 45.987 14.274 45.977 14.248 45.965 14.224 45.953 14.196 45.943 14.17 45.933 14.142 45.925 14.116 45.915 14.089 45.907 14.063 45.899 14.035 45.893 14.009 45.885 13.981 45.879 13.955 45.874 13.925 45.87 13.897 45.864 13.872 45.86 13.844 45.858 13.814 45.856 13.786 45.852 13.76 45.852 13.73 45.85zM18.53 49.538L18.5 49.538 18.473 49.538 18.443 49.54 18.413 49.542 18.381 49.546 18.353 49.548 18.323 49.55 18.291 49.556 18.262 49.562 18.234 49.566 18.204 49.574 18.176 49.582 18.146 49.588 18.114 49.598 18.088 49.606 18.061 49.616 18.031 49.626 18.003 49.636 17.975 49.65 17.949 49.66 17.919 49.674 17.895 49.687 17.867 49.699 17.842 49.713 17.816 49.729 17.79 49.745 17.764 49.763 17.738 49.779 17.714 49.797 17.69 49.813 17.666 49.831 17.645 49.851 17.623 49.871 17.597 49.889 17.575 49.908 17.553 49.928 17.535 49.95 17.513 49.972 17.489 49.996 17.471 50.018 17.451 50.04 17.434 50.064 17.414 50.088 17.396 50.111 17.38 50.137 17.364 50.161 17.348 50.187 17.334 50.211 17.316 50.239 17.304 50.265 17.286 50.291 17.274 50.318 17.262 50.346 17.25 50.372 17.238 50.402 17.229 50.428 17.219 50.458 17.209 50.486 17.199 50.514 17.189 50.543 17.181 50.571 17.177 50.601 17.167 50.631 17.163 50.659 17.157 50.689 17.153 50.719 17.149 50.746 17.145 50.778 17.143 50.808 17.143 50.838 17.141 50.868 17.143 50.898 17.141 50.928 17.141 50.957 17.143 50.987 17.143 51.017 17.145 51.049 17.151 51.079 17.153 51.107 17.159 51.139 17.163 51.166 17.167 51.196 17.177 51.226 17.185 51.254 17.193 51.284 17.199 51.312 17.209 51.34 17.215 51.369 17.229 51.397 17.238 51.425 17.25 51.453 17.264 51.481 17.276 51.507 17.288 51.537 17.304 51.561 17.318 51.588 17.332 51.614 17.346 51.64 17.362 51.664 17.38 51.69 17.398 51.714 17.416 51.738 17.432 51.764 17.453 51.787 17.469 51.807 17.489 51.831 17.511 51.853 17.531 51.875 17.555 51.895 17.575 51.917 17.599 51.937 17.621 51.957 17.645 51.977 17.666 51.994 17.69 52.014 17.714 52.03 17.74 52.048 17.941 52.186 18.142 52.323 18.343 52.46 18.449 52.53 18.552 52.598 18.654 52.667 18.761 52.737 18.867 52.807 18.972 52.874 19.08 52.944 19.189 53.012 19.299 53.079 19.404 53.147 19.428 53.161 19.454 53.175 19.482 53.191 19.508 53.203 19.535 53.217 19.561 53.229 19.589 53.241 19.619 53.252 19.645 53.262 19.675 53.274 19.703 53.282 19.733 53.29 19.76 53.3 19.79 53.308 19.818 53.314 19.848 53.322 19.878 53.328 19.908 53.332 19.938 53.336 19.965 53.34 19.995 53.344 20.027 53.346 20.057 53.346 20.087 53.348 20.117 53.348 20.147 53.348 20.176 53.348 20.206 53.346 20.238 53.346 20.266 53.342 20.296 53.34 20.328 53.334 20.356 53.328 20.385 53.324 20.415 53.318 20.445 53.31 20.473 53.306 20.505 53.296 20.531 53.288 20.559 53.28 20.59 53.27 20.618 53.258 20.644 53.248 20.672 53.237 20.7 53.225 20.726 53.213 20.754 53.199 20.78 53.183 20.807 53.169 20.833 53.155 20.859 53.139 20.883 53.123 20.909 53.105 20.933 53.089 20.959 53.071 20.983 53.053 21.004 53.034 21.026 53.014 21.05 52.994 21.072 52.974 21.094 52.952 21.118 52.932 21.136 52.91 21.156 52.888 21.176 52.864 21.194 52.842 21.211 52.819 21.231 52.795 21.247 52.771 21.267 52.745 21.281 52.721 21.299 52.695 21.315 52.669 21.327 52.643 21.345 52.617 21.357 52.59 21.371 52.564 21.383 52.536 21.395 52.508 21.407 52.482 21.419 52.452 21.428 52.424 21.438 52.397 21.444 52.367 21.454 52.339 21.462 52.309 21.47 52.281 21.476 52.253 21.48 52.221 21.486 52.192 21.49 52.162 21.496 52.132 21.496 52.102 21.5 52.072 21.5 52.042 21.502 52.012 21.504 51.983 21.504 51.953 21.5 51.923 21.498 51.893 21.496 51.861 21.496 51.833 21.494 51.803 21.488 51.774 21.484 51.744 21.478 51.716 21.474 51.684 21.464 51.656 21.458 51.626 21.448 51.596 21.442 51.569 21.432 51.539 21.422 51.513 21.415 51.483 21.403 51.455 21.391 51.429 21.377 51.399 21.367 51.375 21.353 51.346 21.337 51.322 21.323 51.294 21.309 51.266 21.291 51.242 21.275 51.216 21.261 51.192 21.243 51.168 21.223 51.143 21.206 51.121 21.188 51.097 21.168 51.073 21.148 51.051 21.128 51.029 21.106 51.007 21.084 50.985 21.064 50.965 21.042 50.943 21.018 50.926 20.995 50.908 20.973 50.888 20.949 50.872 20.923 50.852 20.899 50.836 20.875 50.82 20.847 50.802 20.75 50.74 20.654 50.681 20.559 50.623 20.463 50.561 20.368 50.498 20.272 50.436 20.172 50.372 20.081 50.311 19.981 50.245 19.884 50.179 19.689 50.048 19.492 49.912 19.295 49.779 19.269 49.763 19.245 49.745 19.219 49.729 19.191 49.713 19.165 49.699 19.137 49.687 19.112 49.674 19.084 49.66 19.06 49.65 19.03 49.636 19.002 49.626 18.974 49.616 18.944 49.606 18.916 49.598 18.889 49.588 18.859 49.582 18.831 49.574 18.801 49.566 18.771 49.562 18.741 49.556 18.711 49.55 18.682 49.548 18.65 49.546 18.62 49.542 18.592 49.54 18.56 49.538zM24.327 53.132L24.3 53.132 24.274 53.132 24.246 53.134 24.218 53.136 24.19 53.138 24.164 53.142 24.138 53.144 24.11 53.148 24.083 53.154 24.055 53.16 24.029 53.164 23.999 53.17 23.977 53.176 23.949 53.184 23.921 53.192 23.897 53.2 23.87 53.209 23.846 53.217 23.816 53.229 23.794 53.237 23.768 53.249 23.744 53.261 23.72 53.271 23.694 53.283 23.671 53.297 23.647 53.309 23.621 53.323 23.601 53.339 23.575 53.353 23.553 53.369 23.529 53.385 23.507 53.399 23.485 53.414 23.464 53.432 23.442 53.448 23.424 53.468 23.404 53.486 23.384 53.504 23.362 53.524 23.344 53.544 23.324 53.562 23.304 53.582 23.286 53.604 23.266 53.623 23.253 53.645 23.237 53.665 23.219 53.687 23.201 53.711 23.187 53.731 23.173 53.755 23.157 53.779 23.141 53.803 23.129 53.825 23.117 53.848 23.103 53.874 23.091 53.898 23.077 53.922 23.065 53.948 23.057 53.972 23.046 53.998 23.036 54.024 23.026 54.049 23.018 54.073 23.008 54.101 23.002 54.127 22.994 54.153 22.988 54.181 22.98 54.207 22.976 54.233 22.97 54.26 22.966 54.288 22.962 54.314 22.958 54.34 22.956 54.368 22.954 54.396 22.95 54.424 22.948 54.45 22.948 54.477 22.946 54.505 22.948 54.533 22.948 54.559 22.95 54.587 22.952 54.613 22.956 54.643 22.956 54.668 22.96 54.696 22.968 54.722 22.97 54.75 22.974 54.776 22.978 54.804 22.988 54.83 22.992 54.858 23 54.883 23.01 54.909 23.016 54.933 23.026 54.961 23.032 54.987 23.046 55.013 23.055 55.039 23.063 55.063 23.075 55.088 23.089 55.112 23.099 55.136 23.115 55.162 23.127 55.184 23.141 55.208 23.153 55.232 23.169 55.254 23.185 55.278 23.201 55.299 23.215 55.323 23.233 55.343 23.249 55.365 23.266 55.387 23.284 55.409 23.302 55.429 23.322 55.449 23.34 55.469 23.36 55.489 23.378 55.506 23.398 55.524 23.42 55.542 23.44 55.56 23.464 55.578 23.483 55.596 23.505 55.614 23.529 55.628 23.692 55.745 23.858 55.863 24.027 55.984 24.194 56.106 24.369 56.225 24.453 56.289 24.542 56.348 24.63 56.412 24.722 56.472 24.813 56.534 24.899 56.595 24.923 56.609 24.944 56.623 24.97 56.637 24.994 56.651 25.016 56.665 25.04 56.677 25.068 56.689 25.092 56.701 25.116 56.713 25.144 56.725 25.165 56.733 25.193 56.743 25.219 56.753 25.243 56.761 25.269 56.768 25.297 56.776 25.323 56.782 25.349 56.79 25.376 56.794 25.402 56.802 25.428 56.806 25.456 56.812 25.482 56.814 25.514 56.818 25.54 56.822 25.567 56.824 25.593 56.826 25.621 56.828 25.647 56.828 25.677 56.828 25.703 56.828 25.731 56.826 25.757 56.826 25.784 56.824 25.812 56.82 25.84 56.816 25.866 56.814 25.894 56.81 25.92 56.804 25.948 56.8 25.976 56.794 25.999 56.788 26.027 56.78 26.055 56.774 26.079 56.766 26.107 56.759 26.131 56.749 26.159 56.739 26.181 56.729 26.206 56.719 26.234 56.707 26.258 56.697 26.284 56.685 26.306 56.671 26.332 56.659 26.354 56.645 26.378 56.631 26.402 56.617 26.425 56.601 26.449 56.587 26.469 56.571 26.491 56.555 26.515 56.54 26.537 56.522 26.557 56.506 26.575 56.486 26.599 56.47 26.616 56.45 26.638 56.43 26.658 56.412 26.676 56.392 26.694 56.37 26.714 56.35 26.73 56.331 26.748 56.309 26.764 56.287 26.78 56.265 26.796 56.243 26.81 56.221 26.825 56.197 26.843 56.173 26.855 56.149 26.867 56.128 26.879 56.104 26.895 56.078 26.907 56.054 26.919 56.03 26.931 56.006 26.943 55.98 26.953 55.954 26.963 55.928 26.969 55.903 26.979 55.877 26.987 55.851 26.995 55.825 27.003 55.797 27.011 55.773 27.015 55.745 27.023 55.719 27.025 55.692 27.03 55.666 27.032 55.638 27.036 55.612 27.04 55.582 27.04 55.556 27.044 55.528 27.046 55.503 27.046 55.475 27.046 55.447 27.044 55.419 27.046 55.391 27.044 55.363 27.04 55.337 27.04 55.309 27.034 55.284 27.032 55.254 27.027 55.228 27.023 55.202 27.017 55.174 27.013 55.146 27.007 55.122 26.999 55.094 26.991 55.069 26.983 55.043 26.973 55.017 26.967 54.989 26.957 54.965 26.947 54.939 26.935 54.913 26.923 54.889 26.913 54.864 26.901 54.84 26.891 54.816 26.877 54.79 26.863 54.768 26.849 54.744 26.835 54.72 26.821 54.698 26.806 54.674 26.79 54.653 26.772 54.631 26.758 54.609 26.74 54.587 26.724 54.567 26.702 54.545 26.684 54.523 26.668 54.505 26.646 54.485 26.628 54.467 26.611 54.448 26.591 54.43 26.569 54.412 26.549 54.394 26.527 54.376 26.503 54.36 26.483 54.342 26.459 54.326 26.439 54.31 26.356 54.254 26.276 54.201 26.198 54.147 26.119 54.091 26.037 54.036 25.956 53.98 25.792 53.864 25.627 53.747 25.46 53.625 25.293 53.506 25.122 53.387 25.1 53.371 25.076 53.355 25.052 53.339 25.03 53.325 25.006 53.311 24.982 53.299 24.958 53.285 24.935 53.273 24.911 53.261 24.885 53.249 24.859 53.239 24.835 53.229 24.809 53.219 24.783 53.209 24.755 53.202 24.731 53.194 24.706 53.184 24.678 53.178 24.652 53.172 24.624 53.164 24.598 53.16 24.57 53.154 24.544 53.15 24.517 53.144 24.491 53.142 24.463 53.14 24.435 53.136 24.407 53.134 24.381 53.134 24.353 53.132zM28.761 56.161L28.733 56.161 28.709 56.161 28.686 56.163 28.66 56.165 28.634 56.167 28.61 56.171 28.586 56.173 28.558 56.177 28.534 56.181 28.51 56.187 28.485 56.189 28.463 56.197 28.437 56.203 28.411 56.209 28.389 56.215 28.363 56.223 28.339 56.231 28.315 56.239 28.293 56.247 28.27 56.257 28.246 56.265 28.224 56.277 28.2 56.287 28.178 56.297 28.154 56.308 28.132 56.318 28.11 56.332 28.09 56.344 28.069 56.356 28.047 56.368 28.023 56.384 28.001 56.396 27.983 56.412 27.963 56.426 27.941 56.44 27.921 56.456 27.903 56.472 27.881 56.488 27.864 56.506 27.846 56.521 27.826 56.539 27.812 56.555 27.792 56.573 27.772 56.591 27.758 56.611 27.738 56.629 27.724 56.649 27.708 56.669 27.692 56.689 27.676 56.707 27.66 56.726 27.647 56.746 27.631 56.768 27.619 56.79 27.605 56.812 27.593 56.832 27.581 56.852 27.569 56.876 27.555 56.898 27.545 56.922 27.533 56.941 27.521 56.965 27.513 56.989 27.503 57.013 27.493 57.035 27.483 57.059 27.477 57.083 27.467 57.105 27.461 57.129 27.453 57.154 27.446 57.178 27.44 57.202 27.434 57.228 27.428 57.25 27.424 57.276 27.418 57.3 27.414 57.326 27.41 57.351 27.408 57.375 27.406 57.401 27.402 57.425 27.402 57.451 27.402 57.477 27.4 57.501 27.4 57.527 27.398 57.551 27.4 57.576 27.4 57.602 27.402 57.626 27.404 57.652 27.406 57.674 27.408 57.7 27.414 57.728 27.416 57.75 27.42 57.775 27.424 57.801 27.428 57.825 27.434 57.851 27.442 57.873 27.446 57.899 27.455 57.923 27.461 57.947 27.469 57.971 27.477 57.994 27.485 58.016 27.493 58.04 27.505 58.064 27.515 58.086 27.525 58.11 27.535 58.134 27.549 58.156 27.559 58.178 27.571 58.199 27.585 58.221 27.595 58.243 27.609 58.265 27.623 58.285 27.637 58.307 27.651 58.327 27.664 58.349 27.678 58.369 27.696 58.389 27.712 58.408 27.728 58.428 27.744 58.446 27.76 58.464 27.778 58.482 27.796 58.5 27.814 58.518 27.83 58.536 27.852 58.554 27.987 58.679 28.128 58.805 28.409 59.061 28.686 59.316 28.825 59.445 28.968 59.573 28.986 59.591 29.004 59.607 29.024 59.623 29.046 59.639 29.064 59.652 29.084 59.668 29.106 59.682 29.125 59.698 29.145 59.71 29.165 59.724 29.189 59.736 29.211 59.75 29.233 59.762 29.255 59.774 29.279 59.786 29.301 59.796 29.325 59.806 29.346 59.818 29.368 59.828 29.392 59.836 29.416 59.844 29.44 59.854 29.464 59.861 29.488 59.869 29.512 59.877 29.536 59.883 29.559 59.891 29.587 59.895 29.611 59.901 29.633 59.907 29.659 59.911 29.683 59.913 29.709 59.919 29.735 59.921 29.756 59.925 29.784 59.927 29.81 59.929 29.832 59.931 29.86 59.933 29.884 59.933 29.908 59.933 29.934 59.931 29.96 59.931 29.983 59.929 30.009 59.927 30.035 59.925 30.059 59.921 30.087 59.919 30.111 59.913 30.135 59.911 30.159 59.907 30.184 59.901 30.206 59.895 30.232 59.889 30.256 59.881 30.28 59.877 30.306 59.869 30.33 59.861 30.354 59.854 30.376 59.844 30.399 59.836 30.423 59.826 30.445 59.818 30.471 59.806 30.491 59.796 30.515 59.786 30.537 59.772 30.559 59.762 30.579 59.75 30.602 59.736 30.624 59.722 30.646 59.71 30.668 59.696 30.686 59.682 30.706 59.666 30.728 59.651 30.748 59.637 30.77 59.621 30.788 59.605 30.805 59.589 30.825 59.571 30.843 59.555 30.863 59.537 30.881 59.519 30.897 59.501 30.915 59.483 30.931 59.465 30.947 59.445 30.961 59.426 30.977 59.406 30.993 59.386 31.01 59.366 31.026 59.344 31.038 59.324 31.05 59.304 31.066 59.282 31.08 59.26 31.092 59.238 31.104 59.217 31.116 59.197 31.128 59.173 31.136 59.149 31.15 59.127 31.16 59.105 31.17 59.081 31.178 59.057 31.186 59.035 31.196 59.012 31.204 58.986 31.212 58.964 31.219 58.94 31.225 58.914 31.233 58.892 31.235 58.866 31.243 58.84 31.245 58.816 31.251 58.793 31.257 58.769 31.261 58.743 31.261 58.717 31.265 58.693 31.267 58.667 31.271 58.643 31.273 58.617 31.273 58.592 31.273 58.568 31.275 58.542 31.273 58.518 31.273 58.492 31.271 58.466 31.267 58.442 31.265 58.416 31.263 58.391 31.259 58.367 31.257 58.343 31.251 58.317 31.245 58.293 31.241 58.267 31.235 58.243 31.229 58.219 31.225 58.193 31.218 58.172 31.212 58.148 31.204 58.124 31.196 58.1 31.188 58.074 31.176 58.052 31.168 58.028 31.16 58.004 31.148 57.982 31.136 57.961 31.126 57.937 31.114 57.915 31.102 57.891 31.092 57.871 31.078 57.849 31.064 57.829 31.05 57.807 31.036 57.785 31.022 57.764 31.008 57.746 30.993 57.726 30.975 57.706 30.961 57.684 30.943 57.666 30.931 57.646 30.913 57.628 30.895 57.61 30.877 57.59 30.861 57.572 30.841 57.557 30.821 57.539 30.684 57.411 30.543 57.286 30.264 57.031 29.985 56.774 29.844 56.645 29.703 56.517 29.683 56.5 29.665 56.484 29.645 56.468 29.627 56.454 29.607 56.438 29.585 56.422 29.563 56.406 29.543 56.394 29.524 56.38 29.504 56.368 29.48 56.352 29.458 56.34 29.436 56.328 29.414 56.316 29.394 56.304 29.368 56.295 29.344 56.283 29.325 56.275 29.301 56.263 29.277 56.255 29.253 56.245 29.229 56.237 29.205 56.229 29.183 56.221 29.159 56.213 29.133 56.207 29.11 56.201 29.086 56.195 29.058 56.189 29.036 56.185 29.012 56.179 28.986 56.175 28.96 56.171 28.936 56.169 28.913 56.167 28.885 56.165 28.861 56.163 28.837 56.161 28.809 56.161 28.787 56.159zM19.938 44.479L19.907 44.481 19.873 44.483 19.841 44.485 19.807 44.489 19.696 44.499 19.586 44.509 19.473 44.521 19.359 44.531 19.248 44.541 19.134 44.551 18.901 44.569 18.668 44.589 18.43 44.607 18.308 44.617 18.187 44.626 18.065 44.636 17.948 44.648 17.916 44.65 17.886 44.656 17.85 44.66 17.82 44.666 17.787 44.67 17.759 44.678 17.727 44.686 17.695 44.694 17.663 44.704 17.633 44.714 17.602 44.724 17.576 44.736 17.544 44.748 17.512 44.758 17.486 44.774 17.456 44.786 17.428 44.8 17.4 44.816 17.373 44.831 17.345 44.847 17.317 44.865 17.289 44.883 17.265 44.901 17.239 44.921 17.211 44.941 17.188 44.961 17.166 44.981 17.14 45.003 17.116 45.027 17.094 45.046 17.072 45.07 17.05 45.094 17.028 45.116 17.008 45.142 16.988 45.168 16.969 45.192 16.951 45.22 16.931 45.244 16.913 45.271 16.895 45.297 16.881 45.325 16.863 45.353 16.847 45.383 16.835 45.411 16.819 45.439 16.809 45.468 16.795 45.496 16.781 45.528 16.773 45.558 16.762 45.588 16.754 45.618 16.742 45.65 16.736 45.679 16.728 45.711 16.722 45.743 16.714 45.775 16.71 45.805 16.704 45.837 16.702 45.869 16.698 45.902 16.694 45.932 16.694 45.964 16.692 45.996 16.694 46.03 16.694 46.062 16.696 46.091 16.698 46.123 16.7 46.155 16.704 46.189 16.706 46.221 16.71 46.251 16.72 46.283 16.722 46.316 16.732 46.346 16.74 46.376 16.748 46.406 16.758 46.44 16.768 46.468 16.777 46.498 16.789 46.529 16.803 46.557 16.817 46.587 16.829 46.617 16.843 46.645 16.859 46.673 16.873 46.703 16.891 46.728 16.907 46.756 16.925 46.782 16.943 46.81 16.963 46.836 16.98 46.862 17 46.886 17.02 46.91 17.042 46.933 17.064 46.959 17.088 46.981 17.108 47.003 17.132 47.025 17.154 47.049 17.182 47.069 17.205 47.089 17.227 47.107 17.255 47.127 17.281 47.146 17.309 47.164 17.335 47.182 17.361 47.198 17.391 47.214 17.418 47.23 17.448 47.246 17.476 47.26 17.504 47.272 17.532 47.284 17.564 47.298 17.594 47.31 17.621 47.32 17.653 47.33 17.685 47.34 17.715 47.347 17.745 47.355 17.779 47.363 17.809 47.369 17.84 47.373 17.874 47.379 17.906 47.383 17.938 47.387 17.968 47.389 18 47.391 18.033 47.391 18.065 47.393 18.097 47.393 18.127 47.391 18.161 47.389 18.193 47.389 18.308 47.377 18.422 47.369 18.535 47.357 18.651 47.349 18.887 47.332 19.122 47.312 19.361 47.292 19.481 47.282 19.606 47.272 19.727 47.262 19.851 47.248 19.976 47.236 20.096 47.224 20.127 47.22 20.159 47.216 20.193 47.21 20.223 47.204 20.253 47.196 20.287 47.192 20.319 47.182 20.346 47.174 20.378 47.164 20.41 47.154 20.438 47.142 20.466 47.13 20.498 47.119 20.528 47.105 20.557 47.093 20.585 47.079 20.613 47.063 20.643 47.049 20.669 47.031 20.697 47.013 20.721 46.995 20.75 46.977 20.774 46.959 20.802 46.941 20.826 46.92 20.848 46.9 20.874 46.878 20.898 46.856 20.92 46.834 20.946 46.812 20.967 46.788 20.985 46.764 21.007 46.74 21.029 46.714 21.049 46.691 21.067 46.665 21.087 46.639 21.101 46.613 21.121 46.585 21.137 46.557 21.153 46.531 21.168 46.502 21.184 46.474 21.198 46.444 21.21 46.416 21.224 46.386 21.234 46.356 21.248 46.326 21.256 46.296 21.268 46.267 21.276 46.235 21.284 46.205 21.294 46.171 21.302 46.141 21.306 46.111 21.312 46.08 21.316 46.048 21.322 46.016 21.326 45.984 21.326 45.952 21.33 45.92 21.332 45.888 21.328 45.857 21.33 45.825 21.328 45.793 21.326 45.759 21.326 45.727 21.324 45.697 21.316 45.665 21.312 45.634 21.308 45.6 21.3 45.57 21.294 45.54 21.288 45.508 21.278 45.476 21.268 45.447 21.258 45.417 21.248 45.385 21.236 45.355 21.224 45.327 21.212 45.295 21.198 45.267 21.182 45.24 21.168 45.21 21.155 45.184 21.139 45.154 21.121 45.128 21.103 45.1 21.087 45.074 21.069 45.046 21.049 45.023 21.027 44.997 21.007 44.971 20.985 44.947 20.969 44.923 20.944 44.901 20.92 44.877 20.9 44.855 20.874 44.833 20.85 44.812 20.826 44.794 20.8 44.774 20.776 44.754 20.75 44.734 20.723 44.716 20.699 44.698 20.671 44.682 20.641 44.664 20.613 44.648 20.585 44.634 20.557 44.62 20.528 44.607 20.5 44.593 20.468 44.579 20.438 44.569 20.41 44.559 20.378 44.547 20.35 44.539 20.317 44.529 20.287 44.523 20.257 44.513 20.225 44.507 20.195 44.501 20.161 44.495 20.129 44.491 20.098 44.489 20.066 44.485 20.036 44.483 20 44.481 19.968 44.479zM28.016 43.698L27.974 43.7 27.932 43.704 27.889 43.708 27.692 43.73 27.496 43.75 27.096 43.796 26.696 43.837 26.493 43.861 26.29 43.883 26.091 43.905 25.886 43.931 25.681 43.957 25.476 43.981 25.375 43.995 25.269 44.011 25.168 44.023 25.064 44.036 24.959 44.052 24.855 44.066 24.752 44.082 24.65 44.098 24.61 44.104 24.568 44.112 24.529 44.122 24.489 44.134 24.449 44.144 24.409 44.156 24.369 44.172 24.33 44.188 24.294 44.204 24.254 44.222 24.216 44.24 24.18 44.259 24.146 44.279 24.109 44.301 24.075 44.325 24.041 44.351 24.007 44.375 23.977 44.401 23.943 44.429 23.914 44.456 23.884 44.484 23.854 44.514 23.828 44.546 23.798 44.578 23.774 44.61 23.748 44.642 23.724 44.675 23.701 44.709 23.679 44.745 23.659 44.781 23.635 44.817 23.619 44.855 23.601 44.892 23.585 44.93 23.571 44.97 23.555 45.01 23.541 45.05 23.531 45.087 23.521 45.127 23.512 45.169 23.504 45.211 23.496 45.251 23.494 45.29 23.488 45.334 23.484 45.374 23.482 45.416 23.48 45.458 23.482 45.499 23.484 45.539 23.486 45.583 23.49 45.623 23.498 45.665 23.504 45.707 23.512 45.746 23.521 45.786 23.531 45.826 23.543 45.868 23.555 45.908 23.569 45.947 23.583 45.983 23.601 46.021 23.619 46.059 23.637 46.097 23.657 46.132 23.681 46.168 23.701 46.204 23.724 46.238 23.748 46.272 23.772 46.306 23.798 46.339 23.828 46.369 23.852 46.399 23.884 46.429 23.916 46.461 23.943 46.487 23.977 46.515 24.009 46.541 24.041 46.566 24.077 46.59 24.109 46.612 24.144 46.634 24.18 46.656 24.218 46.676 24.254 46.694 24.294 46.714 24.332 46.73 24.371 46.744 24.409 46.757 24.447 46.769 24.487 46.783 24.529 46.793 24.568 46.803 24.608 46.809 24.652 46.817 24.692 46.823 24.732 46.827 24.775 46.831 24.817 46.833 24.857 46.833 24.899 46.833 24.941 46.831 24.982 46.827 25.026 46.823 25.064 46.817 25.162 46.803 25.255 46.787 25.353 46.775 25.446 46.761 25.544 46.75 25.637 46.736 25.733 46.724 25.828 46.712 26.022 46.686 26.217 46.662 26.41 46.638 26.607 46.616 26.804 46.594 27.001 46.572 27.397 46.531 27.795 46.485 27.998 46.465 28.199 46.441 28.241 46.435 28.279 46.429 28.323 46.421 28.362 46.411 28.402 46.403 28.444 46.391 28.48 46.377 28.522 46.363 28.561 46.349 28.599 46.334 28.635 46.316 28.673 46.298 28.709 46.278 28.747 46.258 28.78 46.234 28.818 46.214 28.852 46.19 28.886 46.164 28.918 46.138 28.948 46.111 28.979 46.085 29.011 46.055 29.039 46.025 29.065 45.995 29.095 45.963 29.121 45.931 29.149 45.9 29.17 45.866 29.194 45.832 29.218 45.796 29.236 45.76 29.26 45.724 29.28 45.687 29.296 45.651 29.312 45.611 29.328 45.573 29.344 45.535 29.358 45.496 29.368 45.456 29.377 45.414 29.387 45.374 29.399 45.334 29.403 45.294 29.409 45.251 29.415 45.211 29.419 45.169 29.421 45.127 29.421 45.085 29.419 45.046 29.419 45.002 29.417 44.96 29.411 44.92 29.405 44.878 29.403 44.839 29.395 44.799 29.385 44.757 29.372 44.715 29.362 44.675 29.352 44.638 29.338 44.598 29.322 44.558 29.304 44.52 29.288 44.482 29.27 44.445 29.25 44.409 29.228 44.373 29.208 44.337 29.186 44.303 29.163 44.269 29.135 44.236 29.109 44.204 29.083 44.172 29.053 44.14 29.027 44.11 28.995 44.08 28.967 44.052 28.936 44.025 28.904 43.999 28.868 43.975 28.838 43.949 28.802 43.925 28.766 43.905 28.731 43.883 28.695 43.861 28.659 43.841 28.621 43.825 28.581 43.808 28.545 43.792 28.506 43.778 28.466 43.764 28.428 43.754 28.384 43.742 28.344 43.732 28.305 43.724 28.263 43.716 28.223 43.71 28.183 43.706 28.139 43.702 28.098 43.7 28.056 43.698zM35.218 42.634L35.18 42.636 35.144 42.638 34.987 42.652 34.823 42.666 34.662 42.68 34.507 42.696 34.346 42.714 34.187 42.732 34.031 42.749 33.874 42.767 33.717 42.785 33.56 42.803 33.251 42.841 32.944 42.877 32.634 42.915 32.598 42.921 32.562 42.927 32.524 42.933 32.493 42.943 32.455 42.948 32.419 42.958 32.385 42.968 32.349 42.982 32.315 42.994 32.282 43.006 32.25 43.02 32.216 43.036 32.18 43.054 32.15 43.07 32.116 43.088 32.087 43.108 32.055 43.126 32.023 43.146 31.993 43.165 31.965 43.189 31.935 43.211 31.907 43.233 31.878 43.259 31.856 43.285 31.826 43.309 31.802 43.337 31.776 43.361 31.75 43.39 31.73 43.418 31.706 43.448 31.684 43.478 31.663 43.506 31.643 43.538 31.625 43.57 31.607 43.599 31.587 43.631 31.571 43.665 31.555 43.699 31.541 43.731 31.525 43.765 31.511 43.798 31.499 43.834 31.487 43.868 31.479 43.902 31.468 43.938 31.462 43.974 31.45 44.009 31.446 44.045 31.44 44.081 31.434 44.119 31.43 44.155 31.428 44.191 31.426 44.226 31.424 44.264 31.426 44.302 31.426 44.338 31.428 44.374 31.432 44.411 31.436 44.447 31.442 44.485 31.446 44.521 31.454 44.557 31.462 44.593 31.469 44.626 31.477 44.662 31.487 44.696 31.501 44.732 31.513 44.766 31.527 44.8 31.541 44.833 31.555 44.867 31.571 44.901 31.589 44.933 31.607 44.965 31.625 44.995 31.645 45.027 31.667 45.058 31.686 45.086 31.71 45.116 31.73 45.146 31.752 45.174 31.78 45.204 31.804 45.228 31.828 45.255 31.856 45.279 31.882 45.305 31.911 45.331 31.937 45.353 31.965 45.375 31.997 45.397 32.025 45.419 32.057 45.439 32.089 45.456 32.12 45.474 32.152 45.492 32.186 45.51 32.216 45.528 32.252 45.542 32.284 45.556 32.319 45.57 32.351 45.58 32.387 45.594 32.423 45.604 32.461 45.614 32.497 45.622 32.532 45.63 32.568 45.636 32.604 45.642 32.64 45.648 32.676 45.652 32.712 45.652 32.747 45.656 32.783 45.656 32.823 45.656 32.861 45.654 32.897 45.652 32.933 45.652 32.968 45.646 33.277 45.61 33.583 45.572 33.888 45.536 34.037 45.516 34.189 45.5 34.34 45.482 34.489 45.466 34.638 45.451 34.788 45.435 34.937 45.419 35.082 45.403 35.23 45.391 35.381 45.379 35.417 45.375 35.454 45.369 35.49 45.365 35.526 45.357 35.562 45.351 35.596 45.343 35.632 45.331 35.669 45.323 35.701 45.311 35.735 45.299 35.773 45.285 35.805 45.273 35.839 45.257 35.872 45.24 35.904 45.224 35.938 45.206 35.968 45.188 35.998 45.17 36.032 45.15 36.062 45.128 36.087 45.106 36.121 45.084 36.147 45.06 36.175 45.038 36.203 45.013 36.229 44.989 36.255 44.961 36.279 44.935 36.302 44.907 36.328 44.879 36.352 44.849 36.372 44.822 36.394 44.794 36.414 44.76 36.432 44.73 36.452 44.698 36.472 44.666 36.488 44.634 36.503 44.601 36.519 44.569 36.533 44.535 36.551 44.501 36.559 44.467 36.573 44.433 36.583 44.398 36.593 44.362 36.603 44.326 36.609 44.292 36.619 44.254 36.623 44.218 36.629 44.183 36.633 44.147 36.635 44.111 36.639 44.073 36.641 44.035 36.639 43.999 36.639 43.964 36.637 43.926 36.635 43.89 36.631 43.852 36.625 43.816 36.623 43.78 36.613 43.745 36.605 43.709 36.597 43.673 36.589 43.639 36.579 43.601 36.567 43.57 36.553 43.534 36.543 43.5 36.529 43.466 36.511 43.432 36.497 43.398 36.48 43.366 36.464 43.335 36.444 43.303 36.424 43.271 36.408 43.241 36.384 43.211 36.362 43.181 36.338 43.152 36.316 43.124 36.292 43.096 36.267 43.07 36.245 43.042 36.217 43.016 36.191 42.992 36.161 42.966 36.135 42.944 36.105 42.921 36.075 42.899 36.048 42.877 36.018 42.857 35.984 42.839 35.952 42.819 35.924 42.801 35.89 42.785 35.857 42.767 35.823 42.751 35.789 42.737 35.757 42.724 35.721 42.712 35.685 42.698 35.654 42.69 35.618 42.68 35.582 42.67 35.546 42.662 35.508 42.656 35.472 42.648 35.437 42.644 35.401 42.64 35.365 42.636 35.325 42.634 35.289 42.634 35.253 42.632zM39.329 42.213L39.319 42.213 39.311 42.213 39.301 42.213 39.293 42.213 39.285 42.213 39.275 42.213 39.267 42.213 39.257 42.213 39.249 42.213 39.239 42.213 39.231 42.213 39.223 42.213 39.214 42.215 39.206 42.215 39.196 42.215 39.188 42.215 39.064 42.223 39.054 42.225 39.046 42.225 39.04 42.225 39.03 42.227 39.02 42.227 39.012 42.229 39.003 42.229 38.995 42.231 38.985 42.233 38.977 42.233 38.967 42.235 38.959 42.237 38.949 42.237 38.941 42.239 38.929 42.241 38.925 42.241 38.915 42.241 38.907 42.245 38.897 42.247 38.889 42.249 38.877 42.249 38.871 42.251 38.861 42.253 38.851 42.257 38.845 42.259 38.837 42.259 38.827 42.261 38.817 42.263 38.807 42.267 38.799 42.269 38.794 42.271 38.784 42.273 38.776 42.277 38.766 42.277 38.758 42.281 38.75 42.283 38.742 42.287 38.732 42.289 38.724 42.293 38.714 42.293 38.708 42.297 38.7 42.299 38.69 42.303 38.68 42.307 38.676 42.311 38.666 42.313 38.658 42.315 38.646 42.318 38.64 42.322 38.632 42.326 38.622 42.33 38.616 42.332 38.606 42.336 38.598 42.34 38.592 42.344 38.585 42.348 38.575 42.35 38.569 42.354 38.559 42.358 38.551 42.362 38.543 42.366 38.533 42.37 38.529 42.374 38.519 42.378 38.513 42.384 38.503 42.386 38.495 42.39 38.487 42.396 38.479 42.4 38.473 42.404 38.463 42.408 38.459 42.414 38.447 42.418 38.443 42.422 38.435 42.428 38.425 42.432 38.421 42.438 38.409 42.442 38.405 42.446 38.395 42.452 38.389 42.456 38.383 42.462 38.374 42.466 38.37 42.474 38.358 42.476 38.354 42.482 38.346 42.488 38.336 42.492 38.332 42.498 38.324 42.504 38.318 42.508 38.31 42.514 38.302 42.52 38.296 42.525 38.29 42.531 38.28 42.535 38.276 42.543 38.268 42.547 38.262 42.553 38.254 42.559 38.246 42.565 38.242 42.571 38.234 42.577 38.228 42.583 38.222 42.589 38.216 42.595 38.21 42.601 38.204 42.607 38.196 42.615 38.19 42.619 38.18 42.627 38.174 42.635 38.169 42.639 38.163 42.647 38.161 42.653 38.155 42.659 38.147 42.665 38.141 42.671 38.135 42.679 38.129 42.685 38.121 42.691 38.117 42.699 38.109 42.705 38.103 42.713 38.101 42.719 38.095 42.725 38.087 42.733 38.083 42.74 38.079 42.746 38.071 42.754 38.067 42.76 38.061 42.766 38.055 42.776 38.049 42.782 38.043 42.788 38.041 42.796 38.035 42.804 38.029 42.812 38.025 42.818 38.017 42.826 38.015 42.832 38.009 42.84 38.005 42.848 37.999 42.854 37.995 42.864 37.991 42.87 37.985 42.878 37.979 42.886 37.977 42.894 37.971 42.902 37.967 42.91 37.96 42.916 37.96 42.924 37.956 42.932 37.948 42.94 37.946 42.947 37.942 42.957 37.936 42.963 37.934 42.971 37.928 42.979 37.926 42.987 37.924 42.995 37.916 43.003 37.914 43.011 37.91 43.019 37.906 43.029 37.904 43.035 37.9 43.045 37.896 43.051 37.89 43.061 37.886 43.069 37.884 43.077 37.88 43.085 37.878 43.093 37.872 43.101 37.87 43.109 37.868 43.117 37.864 43.127 37.864 43.137 37.86 43.143 37.856 43.152 37.854 43.16 37.85 43.17 37.848 43.176 37.844 43.186 37.844 43.194 37.84 43.204 37.836 43.21 37.836 43.22 37.834 43.228 37.83 43.236 37.826 43.244 37.826 43.254 37.822 43.262 37.822 43.27 37.82 43.28 37.816 43.288 37.816 43.298 37.814 43.306 37.812 43.314 37.81 43.324 37.81 43.332 37.804 43.342 37.804 43.35 37.802 43.358 37.8 43.367 37.8 43.377 37.798 43.385 37.796 43.393 37.796 43.403 37.796 43.411 37.794 43.421 37.794 43.429 37.79 43.439 37.79 43.447 37.79 43.457 37.79 43.463 37.788 43.475 37.788 43.481 37.786 43.493 37.784 43.501 37.784 43.509 37.784 43.517 37.784 43.527 37.784 43.535 37.784 43.545 37.784 43.553 37.782 43.563 37.782 43.571 37.782 43.58 37.78 43.588 37.78 43.598 37.78 43.606 37.78 43.616 37.784 43.624 37.784 43.634 37.784 43.642 37.782 43.652 37.782 43.66 37.786 43.67 37.786 43.678 37.784 43.688 37.784 43.696 37.788 43.706 37.788 43.714 37.786 43.724 37.79 43.732 37.79 43.742 37.792 43.748 37.792 43.758 37.796 43.766 37.796 43.778 37.796 43.783 37.796 43.793 37.798 43.801 37.798 43.811 37.802 43.819 37.8 43.829 37.804 43.837 37.804 43.847 37.806 43.855 37.81 43.863 37.81 43.871 37.812 43.881 37.816 43.889 37.816 43.899 37.816 43.907 37.82 43.915 37.822 43.923 37.826 43.933 37.824 43.941 37.828 43.951 37.832 43.961 37.834 43.967 37.836 43.977 37.838 43.985 37.842 43.994 37.844 44 37.848 44.01 37.85 44.018 37.852 44.028 37.854 44.034 37.858 44.044 37.86 44.052 37.864 44.062 37.868 44.068 37.868 44.078 37.87 44.086 37.878 44.094 37.88 44.104 37.884 44.11 37.886 44.12 37.888 44.126 37.89 44.136 37.896 44.144 37.9 44.152 37.904 44.16 37.908 44.168 37.912 44.176 37.914 44.184 37.92 44.194 37.924 44.199 37.928 44.209 37.93 44.215 37.934 44.225 37.94 44.231 37.942 44.239 37.948 44.247 37.95 44.255 37.958 44.263 37.96 44.271 37.963 44.279 37.967 44.285 37.973 44.295 37.975 44.301 37.981 44.309 37.987 44.319 37.991 44.325 37.995 44.333 38.003 44.339 38.005 44.349 38.011 44.355 38.015 44.363 38.021 44.371 38.025 44.377 38.031 44.385 38.037 44.391 38.043 44.399 38.045 44.407 38.051 44.414 38.057 44.42 38.063 44.426 38.069 44.434 38.075 44.442 38.081 44.448 38.085 44.456 38.091 44.462 38.095 44.468 38.101 44.476 38.105 44.482 38.111 44.49 38.119 44.498 38.123 44.502 38.129 44.51 38.139 44.516 38.143 44.524 38.151 44.532 38.157 44.536 38.161 44.544 38.167 44.55 38.174 44.556 38.178 44.564 38.184 44.57 38.19 44.576 38.198 44.582 38.204 44.588 38.21 44.594 38.216 44.6 38.226 44.606 38.23 44.612 38.236 44.618 38.244 44.623 38.248 44.629 38.258 44.635 38.264 44.639 38.27 44.647 38.28 44.653 38.284 44.659 38.294 44.663 38.298 44.669 38.304 44.675 38.314 44.681 38.318 44.685 38.326 44.693 38.336 44.695 38.34 44.703 38.35 44.707 38.354 44.713 38.364 44.717 38.372 44.723 38.379 44.729 38.385 44.731 38.393 44.739 38.399 44.743 38.407 44.747 38.413 44.753 38.423 44.759 38.427 44.763 38.439 44.767 38.443 44.771 38.453 44.777 38.461 44.783 38.467 44.785 38.477 44.789 38.481 44.795 38.491 44.799 38.499 44.803 38.507 44.807 38.515 44.811 38.523 44.817 38.531 44.821 38.539 44.823 38.547 44.828 38.553 44.832 38.563 44.836 38.571 44.838 38.581 44.842 38.585 44.846 38.594 44.85 38.602 44.854 38.608 44.856 38.62 44.86 38.626 44.864 38.636 44.868 38.644 44.872 38.65 44.874 38.66 44.878 38.67 44.88 38.678 44.884 38.684 44.888 38.692 44.892 38.702 44.894 38.71 44.896 38.72 44.9 38.73 44.902 38.734 44.904 38.744 44.908 38.752 44.91 38.762 44.912 38.77 44.914 38.78 44.918 38.79 44.92 38.796 44.924 38.803 44.926 38.813 44.928 38.819 44.93 38.831 44.932 38.839 44.934 38.849 44.936 38.857 44.938 38.867 44.94 38.875 44.942 38.881 44.944 38.889 44.944 38.899 44.946 38.907 44.948 38.917 44.95 38.927 44.952 38.935 44.954 38.945 44.956 38.953 44.956 38.963 44.958 38.971 44.96 38.981 44.96 38.989 44.962 38.997 44.962 39.003 44.964 39.014 44.964 39.022 44.964 39.032 44.966 39.04 44.966 39.05 44.968 39.058 44.968 39.068 44.968 39.076 44.97 39.086 44.97 39.094 44.97 39.104 44.97 39.112 44.97 39.122 44.97 39.13 44.972 39.14 44.972 39.148 44.972 39.158 44.972 39.168 44.972 39.176 44.972 39.184 44.972 39.194 44.972 39.204 44.97 39.212 44.97 39.217 44.97 39.227 44.97 39.235 44.97 39.247 44.968 39.253 44.968 39.377 44.96 39.389 44.96 39.397 44.96 39.405 44.958 39.415 44.958 39.421 44.956 39.428 44.956 39.438 44.954 39.446 44.954 39.456 44.952 39.466 44.952 39.476 44.95 39.482 44.948 39.494 44.946 39.502 44.944 39.512 44.944 39.516 44.944 39.526 44.942 39.536 44.94 39.546 44.938 39.554 44.936 39.562 44.934 39.572 44.932 39.582 44.93 39.59 44.928 39.596 44.928 39.606 44.926 39.616 44.922 39.624 44.92 39.632 44.918 39.643 44.916 39.647 44.912 39.657 44.91 39.665 44.91 39.675 44.908 39.685 44.904 39.691 44.9 39.699 44.898 39.709 44.896 39.717 44.892 39.729 44.89 39.733 44.888 39.743 44.884 39.751 44.88 39.761 44.878 39.767 44.874 39.777 44.872 39.787 44.868 39.795 44.864 39.801 44.862 39.809 44.856 39.821 44.854 39.825 44.852 39.835 44.848 39.843 44.844 39.848 44.84 39.858 44.836 39.868 44.834 39.874 44.83 39.882 44.827 39.892 44.821 39.898 44.819 39.908 44.815 39.914 44.809 39.924 44.805 39.928 44.803 39.938 44.797 39.948 44.793 39.954 44.789 39.964 44.785 39.968 44.781 39.98 44.775 39.984 44.771 39.994 44.767 40.002 44.763 40.008 44.757 40.016 44.751 40.024 44.747 40.032 44.743 40.036 44.737 40.048 44.731 40.053 44.729 40.061 44.723 40.069 44.717 40.073 44.713 40.083 44.707 40.089 44.703 40.095 44.695 40.105 44.693 40.109 44.685 40.117 44.681 40.125 44.675 40.133 44.671 40.139 44.663 40.145 44.659 40.155 44.655 40.161 44.647 40.167 44.641 40.173 44.637 40.179 44.629 40.189 44.623 40.195 44.619 40.201 44.614 40.207 44.606 40.215 44.602 40.219 44.594 40.225 44.588 40.233 44.584 40.241 44.576 40.249 44.57 40.253 44.566 40.261 44.558 40.266 44.552 40.27 44.546 40.278 44.538 40.284 44.532 40.288 44.526 40.294 44.518 40.3 44.512 40.306 44.506 40.312 44.498 40.32 44.492 40.324 44.486 40.332 44.48 40.338 44.472 40.34 44.464 40.348 44.458 40.354 44.452 40.36 44.444 40.366 44.438 40.37 44.43 40.376 44.424 40.382 44.416 40.386 44.408 40.392 44.403 40.396 44.395 40.402 44.389 40.408 44.381 40.414 44.373 40.416 44.367 40.424 44.359 40.428 44.353 40.432 44.343 40.44 44.335 40.442 44.329 40.448 44.321 40.452 44.315 40.454 44.305 40.462 44.299 40.466 44.291 40.472 44.283 40.473 44.275 40.481 44.267 40.485 44.261 40.485 44.251 40.493 44.245 40.497 44.237 40.499 44.227 40.505 44.221 40.509 44.211 40.513 44.205 40.517 44.198 40.521 44.19 40.525 44.18 40.529 44.174 40.533 44.166 40.535 44.158 40.537 44.148 40.541 44.14 40.545 44.132 40.553 44.124 40.555 44.116 40.557 44.108 40.561 44.1 40.565 44.09 40.567 44.084 40.573 44.074 40.575 44.066 40.577 44.058 40.581 44.05 40.581 44.04 40.585 44.032 40.589 44.024 40.591 44.014 40.595 44.008 40.597 43.998 40.599 43.99 40.601 43.981 40.605 43.973 40.609 43.965 40.609 43.957 40.611 43.947 40.615 43.939 40.615 43.929 40.619 43.921 40.619 43.913 40.623 43.905 40.625 43.895 40.627 43.887 40.629 43.879 40.629 43.871 40.633 43.861 40.633 43.853 40.637 43.843 40.637 43.833 40.641 43.825 40.641 43.815 40.641 43.809 40.645 43.799 40.645 43.791 40.647 43.781 40.647 43.774 40.647 43.764 40.647 43.756 40.651 43.746 40.653 43.738 40.653 43.728 40.653 43.72 40.653 43.71 40.657 43.702 40.657 43.692 40.657 43.684 40.657 43.674 40.657 43.666 40.657 43.656 40.659 43.65 40.659 43.64 40.659 43.63 40.659 43.62 40.659 43.612 40.659 43.604 40.659 43.596 40.661 43.586 40.661 43.576 40.661 43.569 40.661 43.561 40.659 43.551 40.659 43.543 40.659 43.533 40.659 43.525 40.659 43.515 40.657 43.507 40.657 43.497 40.657 43.489 40.655 43.479 40.655 43.471 40.655 43.461 40.653 43.453 40.653 43.443 40.649 43.435 40.649 43.425 40.647 43.417 40.647 43.409 40.647 43.401 40.645 43.391 40.643 43.381 40.643 43.371 40.641 43.365 40.641 43.356 40.637 43.348 40.637 43.338 40.635 43.33 40.633 43.32 40.633 43.312 40.629 43.302 40.627 43.296 40.627 43.286 40.625 43.278 40.623 43.268 40.619 43.26 40.615 43.252 40.615 43.244 40.613 43.234 40.611 43.224 40.609 43.216 40.607 43.206 40.603 43.2 40.601 43.19 40.597 43.182 40.595 43.172 40.593 43.164 40.589 43.156 40.587 43.149 40.585 43.141 40.581 43.133 40.577 43.123 40.575 43.117 40.573 43.107 40.571 43.099 40.565 43.091 40.561 43.083 40.557 43.073 40.557 43.065 40.553 43.057 40.551 43.047 40.545 43.041 40.541 43.033 40.539 43.025 40.533 43.015 40.531 43.009 40.527 42.999 40.521 42.993 40.519 42.983 40.517 42.975 40.511 42.967 40.507 42.959 40.503 42.953 40.499 42.943 40.493 42.938 40.491 42.93 40.485 42.92 40.483 42.914 40.477 42.904 40.473 42.898 40.468 42.89 40.466 42.882 40.46 42.874 40.454 42.868 40.45 42.858 40.446 42.852 40.44 42.844 40.436 42.836 40.43 42.83 40.426 42.822 40.42 42.814 40.416 42.808 40.412 42.798 40.406 42.794 40.4 42.784 40.396 42.778 40.392 42.772 40.384 42.762 40.378 42.756 40.374 42.75 40.368 42.742 40.36 42.736 40.356 42.729 40.352 42.723 40.346 42.715 40.34 42.707 40.336 42.703 40.328 42.695 40.322 42.689 40.318 42.681 40.312 42.673 40.306 42.669 40.3 42.661 40.29 42.653 40.288 42.649 40.28 42.641 40.274 42.635 40.27 42.629 40.264 42.621 40.257 42.615 40.253 42.609 40.243 42.603 40.235 42.597 40.231 42.591 40.225 42.583 40.219 42.579 40.211 42.571 40.203 42.565 40.199 42.561 40.193 42.555 40.183 42.547 40.179 42.543 40.173 42.537 40.163 42.531 40.157 42.525 40.151 42.522 40.143 42.514 40.137 42.508 40.127 42.504 40.123 42.498 40.117 42.492 40.107 42.488 40.101 42.482 40.091 42.476 40.087 42.472 40.081 42.466 40.073 42.462 40.063 42.456 40.057 42.452 40.052 42.446 40.042 42.44 40.036 42.436 40.028 42.432 40.018 42.426 40.014 42.42 40.004 42.418 39.998 42.412 39.99 42.408 39.982 42.402 39.974 42.4 39.966 42.394 39.96 42.39 39.95 42.384 39.942 42.382 39.936 42.376 39.928 42.372 39.918 42.368 39.912 42.366 39.904 42.36 39.894 42.356 39.888 42.352 39.878 42.348 39.87 42.344 39.864 42.34 39.856 42.338 39.846 42.332 39.839 42.33 39.833 42.326 39.823 42.324 39.815 42.318 39.805 42.315 39.801 42.313 39.789 42.311 39.781 42.307 39.773 42.303 39.765 42.299 39.757 42.295 39.751 42.293 39.739 42.291 39.731 42.287 39.721 42.285 39.715 42.281 39.707 42.279 39.697 42.277 39.689 42.275 39.679 42.271 39.671 42.269 39.661 42.267 39.655 42.263 39.647 42.261 39.639 42.259 39.63 42.259 39.622 42.255 39.612 42.253 39.604 42.251 39.594 42.249 39.586 42.247 39.578 42.245 39.57 42.241 39.56 42.241 39.552 42.239 39.542 42.237 39.534 42.235 39.524 42.235 39.516 42.233 39.506 42.231 39.498 42.229 39.488 42.227 39.48 42.227 39.47 42.225 39.462 42.223 39.452 42.223 39.446 42.223 39.436 42.223 39.428 42.221 39.421 42.219 39.411 42.219 39.401 42.217 39.393 42.217 39.385 42.217 39.375 42.215 39.365 42.215 39.357 42.215 39.347 42.215 39.339 42.213z" transform="translate(-120 -250) translate(15 220) translate(105.5 30) translate(2.707 10.828)"/>
                        <g>
                            <path fill="#F3CC30" d="M9.21 1.07l3.459 4.677c.055.075.147.121.243.117l5.814-.197c.239-.01.386.263.245.46l-3.378 4.733c-.056.078-.07.177-.038.269l1.984 5.466c.084.227-.129.45-.36.378l-5.547-1.751c-.092-.028-.19-.012-.267.047l-4.586 3.577c-.19.147-.468.014-.47-.227l-.048-5.816c-.002-.095-.05-.185-.13-.239L1.314 9.308c-.2-.136-.157-.442.072-.518L6.9 6.947c.092-.03.161-.103.187-.195l1.609-5.591c.067-.231.37-.285.513-.092" transform="translate(-120 -250) translate(15 220) translate(105.5 30) translate(2.707 10.828) translate(53.584 29.812)"/>
                            <path fill="#F7DB5E" d="M9.167 2.302L7.697 7.08c-.077.25-.276.446-.529.515l-4.823 1.33 5.223-.69c.333-.045.597-.297.655-.628l.944-5.306z" transform="translate(-120 -250) translate(15 220) translate(105.5 30) translate(2.707 10.828) translate(53.584 29.812)"/>
                            <path fill="#EDBD31" d="M6.304 17.95l.004.67c.002.24.28.373.47.226l4.588-3.577c.076-.057.175-.075.267-.047l5.545 1.751c.231.072.444-.151.363-.378l-1.985-5.466c-.034-.092-.02-.191.036-.269l3.38-4.733c.14-.197-.006-.47-.247-.46l-1.947.066c-2.076 6.06-6.254 9.807-10.474 12.217" transform="translate(-120 -250) translate(15 220) translate(105.5 30) translate(2.707 10.828) translate(53.584 29.812)"/>
                        </g>
                        <g transform="translate(-120 -250) translate(15 220) translate(105.5 30) translate(2.707 10.828) translate(39.65 65.64)">
                            <mask id="btrmdd37wb" fill="#fff">
                                <use xlink:href="#zy0m9c5lza"/>
                            </mask>
                            <path fill="#000" d="M-5.667 -8.185L33.723 -6.899 32.399 33.664 -6.991 32.378z" mask="url(#btrmdd37wb)"/>
                        </g>
                        <g transform="translate(-120 -250) translate(15 220) translate(105.5 30) translate(2.707 10.828) translate(45.622 21.85)">
                            <mask id="9lz7b4luxd" fill="#fff">
                                <use xlink:href="#z87a8axpvc"/>
                            </mask>
                            <path fill="#CCC" d="M-4.44 -9.339L77.128 -6.676 74.457 75.107 -7.112 72.444z" mask="url(#9lz7b4luxd)"/>
                        </g>
                        <g transform="translate(-120 -250) translate(15 220) translate(105.5 30) translate(2.707 10.828) translate(97.375 33.793)">
                            <mask id="ow48xncosf" fill="#fff">
                                <use xlink:href="#p0gd8cj1ue"/>
                            </mask>
                            <path fill="gray" d="M-7.601 -7.052L12.827 -6.386 12.172 13.631 -8.254 12.964z" mask="url(#ow48xncosf)"/>
                        </g>
                        <g transform="translate(-120 -250) translate(15 220) translate(105.5 30) translate(2.707 10.828) translate(89.413 37.774)">
                            <mask id="iwr8n3covh" fill="#fff">
                                <use xlink:href="#zdikqb66rg"/>
                            </mask>
                            <path fill="gray" d="M-7.165 -6.463L14.456 -5.759 13.777 15.028 -7.843 14.321z" mask="url(#iwr8n3covh)"/>
                        </g>
                        <g transform="translate(-120 -250) translate(15 220) translate(105.5 30) translate(2.707 10.828) translate(81.451 43.745)">
                            <mask id="8ianu7a61j" fill="#fff">
                                <use xlink:href="#6m3qb2r7bi"/>
                            </mask>
                            <path fill="gray" d="M-5.68 -7.088L14.855 -6.417 14.211 13.348 -6.327 12.677z" mask="url(#8ianu7a61j)"/>
                        </g>
                        <g transform="translate(-120 -250) translate(15 220) translate(105.5 30) translate(2.707 10.828) translate(75.48 47.726)">
                            <mask id="yygixs9lel" fill="#fff">
                                <use xlink:href="#tx4qtvhy1k"/>
                            </mask>
                            <path fill="gray" d="M-6.663 -6.864L13.867 -6.193 13.226 13.42 -7.304 12.751z" mask="url(#yygixs9lel)"/>
                        </g>
                        <g transform="translate(-120 -250) translate(15 220) translate(105.5 30) translate(2.707 10.828) translate(69.508 51.707)">
                            <mask id="n5in7800yn" fill="#fff">
                                <use xlink:href="#9dml7fcn4m"/>
                            </mask>
                            <path fill="gray" d="M-7.295 -7.285L13.812 -6.596 13.157 13.498 -7.952 12.809z" mask="url(#n5in7800yn)"/>
                        </g>
                        <g transform="translate(-120 -250) translate(15 220) translate(105.5 30) translate(2.707 10.828) translate(61.546 55.688)">
                            <mask id="v8g8wnlowp" fill="#fff">
                                <use xlink:href="#5oruhfxwno"/>
                            </mask>
                            <path fill="gray" d="M-6.761 -6.635L14.141 -5.953 13.484 14.181 -7.418 13.501z" mask="url(#v8g8wnlowp)"/>
                        </g>
                        <g transform="translate(-120 -250) translate(15 220) translate(105.5 30) translate(2.707 10.828) translate(55.575 59.669)">
                            <mask id="id9dflcr9r" fill="#fff">
                                <use xlink:href="#40vcjmpkqq"/>
                            </mask>
                            <path fill="gray" d="M-6.924 -6.368L13.471 -5.703 12.824 14.05 -7.568 13.386z" mask="url(#id9dflcr9r)"/>
                        </g>
                        <g transform="translate(-120 -250) translate(15 220) translate(105.5 30) translate(2.707 10.828) translate(53.584 63.65)">
                            <mask id="mzcw9t3iqt" fill="#fff">
                                <use xlink:href="#dbi1unf45s"/>
                            </mask>
                            <path fill="gray" d="M-7.221 -6.419L13.285 -5.75 12.64 14.022 -7.868 13.353z" mask="url(#mzcw9t3iqt)"/>
                        </g>
                        <g transform="translate(-120 -250) translate(15 220) translate(105.5 30) translate(2.707 10.828) translate(57.565 67.631)">
                            <mask id="drk2y5uiiv" fill="#fff">
                                <use xlink:href="#4os4a8l7zu"/>
                            </mask>
                            <path fill="gray" d="M-5.892 -6.663L14.337 -6.002 13.694 13.672 -6.535 13.013z" mask="url(#drk2y5uiiv)"/>
                        </g>
                        <g transform="translate(-120 -250) translate(15 220) translate(105.5 30) translate(2.707 10.828) translate(63.537 71.612)">
                            <mask id="m7dm9lwbhx" fill="#fff">
                                <use xlink:href="#1jmfd3czmw"/>
                            </mask>
                            <path fill="gray" d="M-5.963 -7.016L14.312 -6.353 13.667 13.374 -6.606 12.711z" mask="url(#m7dm9lwbhx)"/>
                        </g>
                        <g transform="translate(-120 -250) translate(15 220) translate(105.5 30) translate(2.707 10.828) translate(69.508 75.593)">
                            <mask id="ff0lmt1ngz" fill="#fff">
                                <use xlink:href="#b6xwre2yry"/>
                            </mask>
                            <path fill="gray" d="M-6.607 -6.97L13.557 -6.311 12.922 13.18 -7.244 12.521z" mask="url(#ff0lmt1ngz)"/>
                        </g>
                        <g transform="translate(-120 -250) translate(15 220) translate(105.5 30) translate(2.707 10.828) translate(75.48 79.574)">
                            <mask id="es6lorm4sB" fill="#fff">
                                <use xlink:href="#vtw9jf30sA"/>
                            </mask>
                            <path fill="gray" d="M-7.623 -7.446L11.34 -6.825 10.725 12.011 -8.238 11.392z" mask="url(#es6lorm4sB)"/>
                        </g>
                        <path stroke="#FF7900" stroke-linecap="round" stroke-linejoin="round" stroke-width="2" d="M21.602 6.674L33.639 14.439M31.433 4.748L25.235 15.737" transform="translate(-120 -250) translate(15 220) translate(105.5 30) translate(2.707 10.828)"/>
                        <path stroke="#FC0" stroke-linecap="round" stroke-linejoin="round" stroke-width="2" d="M96.4 98.619s-.662.685 7.174-2.789" transform="translate(-120 -250) translate(15 220) translate(105.5 30) translate(2.707 10.828)"/>
                    </g>
                </g>
            </g>
        </g>
    </g>
</svg>
