<svg xmlns="http://www.w3.org/2000/svg" xmlns:xlink="http://www.w3.org/1999/xlink" width="195" height="200" viewBox="0 0 195 200">
    <defs>
        <linearGradient id="a" x1="50%" x2="50%" y1="0%" y2="100%">
            <stop offset="0%" stop-color="#D3BBEE"/>
            <stop offset="100%" stop-color="#A885D8"/>
        </linearGradient>
        <path id="b" d="M156.454 29.203c7.279 5.22 3.62 25.545 3.21 40.91-.41 15.326 2.426 25.693 2.65 38.373.224 12.679-2.202 27.633-10.9 42.214-8.696 14.581-23.664 28.752-40.2 30.878-16.536 2.125-34.602-7.832-50.503-20.1-15.938-12.232-29.712-26.739-28.48-41.693 1.232-14.954 17.432-30.356 22.47-50.493 5.002-20.175-1.156-45.049 6.645-50.12 7.801-5.035 29.6 9.77 49.607 12.231 20.007 2.462 38.222-7.42 45.501-2.2z"/>
        <path id="c" d="M0 .228h33.352v21.693H0z"/>
        <path id="e" d="M.307.147h46.285v51.6H.307z"/>
        <path id="g" d="M0 0h13.25v19.895H0z"/>
    </defs>
    <g fill="none" fill-rule="evenodd">
        <g fill-rule="nonzero">
            <use fill="url(#a)" xlink:href="#b"/>
            <use fill="#FF7900" xlink:href="#b"/>
        </g>
        <path fill="#63362F" d="M164.348 65.72s11.063 1.443 17.938 9.034c6.876 7.59 3.146 15.646-18.197 16.43 0 0-17.549 1.077.259-25.464"/>
        <path fill="#EBEBEC" d="M127.525 141.29c-.71 0-13.412-36.876-17.247-41.015-7.084-7.646-13.09-17.655-18.935-26.262 13.091-8.799 20.58-7.159 29.51-7.638 20.946-1.123 41.597-1.594 41.597-1.594l-5.232 29.705-23.507 10.432c-13.788 4.934-6.186 36.373-6.186 36.373"/>
        <path fill="#F1F1F1" d="M162.928 94.534c-1.863.321-3.705.802-5.565 1.145-.243.045-.991.102-1.358.143a5.387 5.387 0 0 0-.82-.5 2.07 2.07 0 0 1-.232-1.296l4.779-28.992c.243-1.857 1.73-2.649 3.535-2.66 1.929-.014 2.845-.096 4.697.082 1.827.176 3.129 1.722 3.055 3.624-.207 5.36-2.088 22.98-4.205 27.908a68.88 68.88 0 0 0-3.886.546"/>
        <path fill="#EBEBEC" d="M74.485 153.927c.32-.633.59-1.29.748-1.973.131-.578.426-1.087.863-1.404.754-5.494-.72-11.555-1.69-16.853a96.737 96.737 0 0 0-4.492-16.275c-3.629-9.768-8.61-18.952-13.658-28.05-35.1 15.326-42.463 61.586-42.463 61.586l26.187 7.187 11.013-12.858c6.911-6.41 7.574-9.36 11.745-7.984l.57.597 11.177 16.027z"/>
        <path fill="#EBEBEC" d="M77.514 196.545c15.09-2.917 48.648-10.92 63.156-15.728l-22.093-68.672c-.614-.46-13.953-33.964-26.429-39.357-2.39 1.576-4.562 1.357-4.562 1.357s-5.3 1.252-8.163 2.934c-1.267.744-8.907 4.799-14.74 5.747-.035.016-.875.694-1.256 1.01-.573.989-1.158 2.404-1.158 2.404a55.55 55.55 0 0 1-2.226.307c-.235.182-.452.344-.68.519 2.348 4.232-.763 22.321 3.351 41.518 2.001 9.338 11.735 17.696 13.065 27.234 1 7.165-2.754 15.18-2 20.902.214 1.616 1.842 5.026 2.03 6.47 1.062 8.15 1.705 13.355 1.705 13.355"/>
        <path fill="#54BA86" d="M79.546 103.806L62.01 84.269c-2.698 2.177-5.888 3.89-8.714 5.94l3.065 7.178a93.005 93.005 0 0 1 7.459 34.602l-1.545 7.209 9.382 17.63.224 19.193s28.593 3.794 28.412-8.678c-.097-6.618-9.769-38.451-14.232-52.23a31.427 31.427 0 0 0-6.514-11.307M87.38 73.788s21.126 16.712 25.47 25.23c6.767 13.27 4.706 39.73 14.876 59.819 4.623 9.133 8.203.096 9.127-2.658.159-.47-4.881-23.986-4.957-24.476l-4.842-28.613a3.753 3.753 0 0 0-.328-1.017l-4.037-10.615c-8.042-11.605-14.597-14.046-26.246-20.524l-9.064 2.854z"/>
        <path fill="#FFF" d="M66.839 89.18L63.2 79.765c-.542-1.403.315-2.961 1.792-3.24 1.149-.217 2.272-.343 2.534-.081.575.576 12.417.675 12.417.675s6.752-8.62 8.223-7.505c1.47 1.115 4.331 7.207 4.331 7.207l8.555 11.747-11.336-2.663-2.056 1.522s-2.817 15.375-3.392 14.798c-.575-.576-17.43-13.045-17.43-13.045"/>
        <path fill="#63362F" d="M83.176 57.185s3.716 13.108 5.12 19.81c.364 1.736-1.032 8.18-1.032 8.18l-20.246-1.981s-2.96-9.732-6.46-20.612c0 0 21.582 7.418 22.618-5.397"/>
        <g transform="translate(9.854 145.17)">
            <mask id="d" fill="#fff">
                <use xlink:href="#c"/>
            </mask>
            <path fill="#F1F1F1" d="M29.076 18.704c1.128-1.516 2.389-2.94 3.535-4.444.15-.197.539-.838.741-1.147a5.315 5.315 0 0 1-.077-.956 2.07 2.07 0 0 0-1.051-.792L6.254.419C4.488-.203 3.11.764 2.283 2.369 1.4 4.082.914 4.861.236 6.593c-.668 1.708.125 3.567 1.856 4.36 4.88 2.235 19.385 10.63 24.741 10.968a69.509 69.509 0 0 1 2.243-3.217" mask="url(#d)"/>
        </g>
        <path fill="#000" d="M59.624 88.182l1.296 2.14c.277.457.865.69 1.419.444.497-.221.807-.855.528-1.314l-1.295-2.14a1.118 1.118 0 0 0-1.418-.445c-.498.223-.808.856-.53 1.315M63.75 94.076l1.626 2.121c.328.427 1.088.42 1.507.092.478-.374.476-.956.147-1.385l-1.626-2.12c-.327-.428-1.088-.42-1.507-.093-.477.374-.475.956-.146 1.385M68.954 101.085l2.153 2.837c.775 1.02 2.427-.277 1.655-1.293l-2.155-2.837c-.774-1.02-2.425.277-1.653 1.293M74.453 110.048c.371.465.744.929 1.116 1.393.336.42 1.08.425 1.506.091.471-.368.485-.961.148-1.383l-1.117-1.393c-.336-.421-1.08-.425-1.507-.092-.47.368-.485.962-.146 1.384M77.763 116.628c.408.524.572 1.126.602 1.77.025.53.703.87 1.226.778.627-.11.913-.617.888-1.148-.047-.995-.444-1.899-1.063-2.693-.33-.425-1.085-.421-1.506-.091-.476.372-.48.958-.147 1.384M81.253 124.92l1.32 2.55c.583 1.124 2.533.26 1.948-.87l-1.32-2.55c-.583-1.124-2.534-.26-1.948.87M84.85 133.035l1.183 1.778c.297.446.851.698 1.419.445.481-.214.828-.866.53-1.314l-1.184-1.779c-.297-.445-.85-.697-1.419-.444-.481.214-.828.866-.529 1.314M87.463 138.555l.49.311c.455.288 1.177.189 1.495-.263.32-.452.245-1.054-.239-1.361l-.49-.312c-.455-.288-1.177-.188-1.496.263-.319.452-.245 1.055.24 1.362M89.318 143.485l.271 1.541c.088.504.66.9 1.227.777.568-.124.982-.608.887-1.148l-.271-1.541c-.089-.504-.66-.902-1.226-.778-.569.124-.982.609-.888 1.149M92.061 154.124l.407 2.312c.218 1.24 2.332.87 2.113-.371-.135-.77-.272-1.541-.406-2.312-.218-1.24-2.333-.87-2.114.371M93.817 161.637c.26.525.289 1.076.073 1.633-.465 1.202 1.53 1.855 1.996.652.408-1.054.37-2.156-.12-3.155-.56-1.136-2.51-.27-1.949.87M93.764 168.8c.001.001.113.235.083.145-.033-.102.02.135.02.16-.006-.142-.009.024-.022.083-.039.163.09-.19-.03.089-.017.04-.066.14-.012.047 0 0-.157.205-.102.147.063-.066-.119.096-.142.11.144-.09-.12.04-.147.05-.542.199-.757.863-.53 1.314.255.504.875.644 1.419.444 1.43-.527 2.123-2.247 1.411-3.459-.27-.46-.87-.688-1.418-.444-.503.224-.802.852-.53 1.314M89.297 171.236l-1.826-.474c-.533-.139-1.191.07-1.385.599-.176.48.041 1.103.61 1.251l1.826.475c.534.139 1.192-.07 1.386-.6.176-.48-.04-1.103-.611-1.25M82.217 169.937l-1.335-.17c-.552-.07-1.145.393-1.181.9-.04.559.354.98.946 1.056l1.334.17c.553.072 1.146-.392 1.182-.9.04-.558-.355-.98-.946-1.056M75.742 168.895l-1.334-.17c-.552-.071-1.146.393-1.182.9-.04.558.355.98.947 1.055l1.334.171c.552.071 1.145-.393 1.182-.9.039-.559-.355-.98-.947-1.056"/>
        <path fill="#4F4F51" d="M42.283 102.974l1.536 1.321c.414.357 1.024.469 1.506.092.408-.32.565-1.025.147-1.384-.511-.441-1.023-.882-1.536-1.322-.414-.356-1.024-.469-1.507-.092-.407.32-.564 1.026-.146 1.385M46.952 107.89a4.9 4.9 0 0 0 1.914 2.114c1.13.691 2.387-.932 1.255-1.624a3.045 3.045 0 0 1-1.221-1.36c-.53-1.15-2.48-.282-1.948.87M50.372 112.448l1.78 2.875c.666 1.075 2.621.218 1.948-.869l-1.78-2.876c-.665-1.074-2.62-.216-1.948.87M54.25 119.163c.58.825 1.162 1.65 1.743 2.474.309.438 1.1.41 1.506.092.492-.384.458-.944.148-1.385l-1.743-2.473c-.31-.44-1.1-.41-1.507-.092-.492.384-.457.943-.147 1.384M57.441 124.961c.408.524.572 1.126.603 1.771.024.53.702.87 1.226.778.626-.11.912-.618.888-1.149-.048-.995-.445-1.899-1.063-2.692-.33-.425-1.086-.422-1.507-.092-.475.372-.479.958-.147 1.384M59.04 131.413c.409.524.573 1.125.603 1.77.024.53.702.87 1.226.778.627-.11.912-.617.887-1.148-.046-.995-.443-1.899-1.062-2.693-.33-.425-1.085-.422-1.507-.092-.475.372-.479.959-.147 1.385"/>
        <path fill="#000" d="M139.502 176.842s26.773 56.23-9.391 217.502l-17.804.48s-5.055-49.014-3.962-81.596c1.093-32.582.993-59.663.993-59.663s-7.082 39.61-14.173 71.663c-6.94 31.375-19.973 71.602-19.973 71.602H57.417s-3.845-166.329 18.066-209.14l64.02-10.848z"/>
        <path fill="#000" d="M138.142 177.636c.065.134.118.273.181.407.143.302-.194-.483-.055-.13.039.098.08.195.12.293.1.245.195.49.29.737a70.055 70.055 0 0 1 1.708 5.14c.863 2.923 1.59 5.887 2.232 8.866.92 4.278 1.659 8.596 2.27 12.929l.124.896.028.21.066.495a243.986 243.986 0 0 1 .731 6.199c.318 3.029.582 6.064.799 9.102.518 7.265.77 14.547.82 21.829.06 8.853-.178 17.706-.648 26.546-.564 10.614-1.462 21.21-2.62 31.776-1.354 12.354-3.069 24.666-5.066 36.932-2.326 14.28-5.032 28.5-8.038 42.652a1069.65 1069.65 0 0 1-2.493 11.41l1.52-1.155-17.804.48 1.575 1.574c-.454-4.408-.84-8.824-1.213-13.24a933.982 933.982 0 0 1-2.11-30.783c-.595-11.625-.982-23.28-.713-34.92.319-13.794.777-27.58.944-41.377.082-6.867.323-13.778.124-20.646-.003-.097 0-.195 0-.293-.007-1.716-2.774-2.215-3.096-.419a1886.984 1886.984 0 0 1-2.946 15.994c-2.251 11.987-4.58 23.96-7.029 35.908-2.63 12.829-5.396 25.622-8.69 38.298-3.024 11.64-6.33 23.208-9.793 34.725a1145.39 1145.39 0 0 1-3.719 12.129c-.615 1.97-1.392 3.947-1.885 5.952-.02.088-.055.174-.083.26l1.52-1.156H57.417l1.576 1.574c-.035-1.49-.06-2.981-.083-4.472-.065-4.113-.108-8.227-.137-12.342-.042-6.2-.051-12.4-.027-18.6.03-7.752.111-15.503.247-23.252.154-8.766.377-17.53.685-26.292.326-9.244.745-18.485 1.289-27.72.543-9.19 1.207-18.374 2.057-27.54.791-8.536 1.733-17.063 2.963-25.548 1.08-7.452 2.36-14.885 4.074-22.22.74-3.166 1.562-6.314 2.519-9.422.432-1.4.89-2.793 1.386-4.173a76.378 76.378 0 0 1 1.07-2.807c.061-.153.124-.305.187-.457l.08-.194c.1-.24-.143.336.031-.073a52.837 52.837 0 0 1 1.51-3.233l-.942.722 21.664-3.67 34.492-5.845 7.863-1.333c1.995-.338 1.15-3.372-.837-3.035l-18.225 3.088-32.13 5.445-11.043 1.871c-.793.135-1.608.226-2.392.406-1.334.303-1.817 2.042-2.325 3.18-3.57 8.015-5.648 16.664-7.358 25.238-2.23 11.176-3.718 22.499-4.92 33.827-1.353 12.727-2.297 25.498-3.018 38.276-.718 12.694-1.207 25.4-1.54 38.11a1648.22 1648.22 0 0 0-.525 33.952c-.046 8.435-.033 16.869.047 25.303.039 4.09.09 8.18.175 12.27l.012.54c.02.85.706 1.574 1.575 1.574h17.776c.717 0 1.304-.493 1.519-1.156 1.59-4.908 3.108-9.84 4.609-14.777 3.38-11.116 6.613-22.28 9.61-33.506 3.36-12.58 6.244-25.257 8.9-38.003 2.576-12.356 5.006-24.742 7.355-37.142.827-4.366 1.641-8.732 2.445-13.1.39-2.127.96-4.302 1.175-6.456.01-.093.034-.188.05-.281l-3.094-.418c.02 5.63-.023 11.26-.079 16.89a1819.92 1819.92 0 0 1-.841 40.59c-.378 11.746-.18 23.482.348 35.22.482 10.74 1.198 21.47 2.069 32.185.437 5.382.863 10.772 1.45 16.14.008.079.014.156.023.234.085.828.652 1.599 1.575 1.574l17.804-.48c.666-.018 1.366-.474 1.518-1.156 3.304-14.748 6.304-29.566 8.907-44.453 2.242-12.817 4.19-25.687 5.781-38.602 1.36-11.048 2.453-22.13 3.2-33.237.626-9.283 1.011-18.584 1.085-27.887.062-7.692-.087-15.387-.516-23.067-.342-6.142-.86-12.276-1.618-18.382-.592-4.767-1.313-9.519-2.238-14.232-.653-3.324-1.405-6.631-2.305-9.898a81.517 81.517 0 0 0-1.891-6.038c-.335-.929-.649-1.954-1.126-2.821-.017-.031-.03-.066-.045-.098-.87-1.829-3.587-.233-2.72 1.59"/>
        <path fill="#5A5B5B" d="M139.755 168.268c-.846-.247-1.81-.222-2.85.194-19.33 7.727-39.748 11.325-60.518 10.843-1.002-.023-1.8.234-2.412.67.314 2.69.643 5.385.904 8.083a4.79 4.79 0 0 0 2.562.789c21.55.5 42.88-3.441 62.928-11.455.228-.091.436-.198.635-.312-.445-2.933-.87-5.869-1.249-8.812"/>
        <path fill="#D7D7D6" d="M124.019 173.057a5.217 5.217 0 0 0-2.644.257c-4.249 1.53-8.608 2.532-13.06 3.16-.63.089-1.168.29-1.63.57.037 3.33.651 6.533 1.564 9.671.517.13 1.08.17 1.692.083 5.282-.745 10.397-2.096 15.432-3.91.284-.103.544-.246.783-.421-.068-3.363-.326-6.883-2.137-9.41"/>
        <path fill="#000" d="M85.984 179.78c-.231 3.316-.064 6.58.585 9.847.448 2.253 3.902 1.894 3.45-.381-.585-2.943-.812-5.889-.603-8.882.16-2.295-3.27-2.893-3.432-.584M131.007 171.743l2.282 9.803c.518 2.226 3.975 1.873 3.45-.38l-2.282-9.804c-.519-2.226-3.975-1.873-3.45.38"/>
        <path fill="#5A5B5B" d="M81.476 191.999l-.486 2.075c-.245 1.051 1.399 1.373 1.644.326l.485-2.075c.247-1.052-1.397-1.374-1.643-.326"/>
        <path fill="#D5D5D5" d="M15.606 154.538l1.469.823c.941.528 1.787-.917.845-1.445l-1.468-.823c-.941-.529-1.787.917-.846 1.445M20.081 156.883a6.737 6.737 0 0 1 1.967.622c.96.484 1.809-.96.845-1.446a8.18 8.18 0 0 0-2.367-.79c-.445-.074-.901.116-1.03.584-.11.4.136.956.585 1.03M26.565 158.849c.669.237 1.337.476 2.007.715.425.151.916-.172 1.03-.585.127-.464-.158-.877-.586-1.03l-2.006-.714c-.426-.152-.917.171-1.03.584-.128.464.157.877.585 1.03M32.28 160.846l1.362.278c.443.09.906-.128 1.031-.584.114-.414-.14-.939-.585-1.03l-1.362-.277c-.443-.09-.905.128-1.031.584-.114.414.14.939.585 1.03M37.28 161.793l1.402.449c1.03.328 1.47-1.287.446-1.615l-1.402-.448c-1.03-.328-1.47 1.286-.446 1.614M165.607 92.68l.157-1.495c.047-.45-.419-.838-.838-.838-.491 0-.79.386-.837.838l-.157 1.496c-.047.45.419.837.838.837.492 0 .79-.386.837-.837M166.314 87.583l.424-1.747c.253-1.046-1.362-1.493-1.616-.445l-.423 1.747c-.254 1.047 1.361 1.494 1.615.445M166.774 81.536l.13-1.5c.04-.45-.412-.837-.837-.837-.486 0-.798.385-.837.838l-.131 1.499c-.04.45.413.837.838.837.485 0 .798-.385.837-.837M166.874 76.485c-.084-.28-.112-.578.014-.858.186-.412.12-.9-.3-1.145-.358-.21-.96-.114-1.146.3-.311.69-.404 1.414-.183 2.148.31 1.029 1.927.59 1.615-.445M167.148 72.023l.091-1.859c.022-.452-.4-.837-.838-.837-.472 0-.815.384-.837.837l-.091 1.859c-.022.452.4.837.837.837.472 0 .816-.384.838-.837M167.637 67.13l.211-1.893c.05-.45-.42-.837-.838-.837-.494 0-.787.386-.838.837l-.21 1.894c-.05.45.42.837.837.837.495 0 .788-.386.838-.837"/>
        <path fill="#D5D5D5" d="M167.897 63.334l-.032-.18c-.078-.445-.624-.696-1.03-.585-.47.13-.664.583-.585 1.03.01.06.02.12.032.18.078.446.623.696 1.03.584.47-.129.663-.583.585-1.03"/>
        <path fill="#63362F" d="M52.452 46.313c-.5-1.849-2.888-2.762-4.897-2.188-.484.139-.973.363-1.284.75-.408.507-.425 1.18-.38 1.79.272 3.558 2.081 6.747 4.121 9.639.792 1.121 1.722 2.283 3.125 2.627.516.128 1.138.11 1.55-.25.248-.217.38-.522.492-.818a11.78 11.78 0 0 0 .764-3.796"/>
        <g transform="translate(40.1 1)">
            <mask id="f" fill="#fff">
                <use xlink:href="#e"/>
            </mask>
            <path fill="#020202" d="M10.163 51.748C7.61 44.094.203 19.578.308 17.28c.18-3.968 2.634-11.173 18.016-15.652C34.027-2.945 40.063 4.258 41.29 7.29c.503 1.244 5.177 28.83 5.302 36.535a195.507 195.507 0 0 0-26.546 7.86" mask="url(#f)"/>
        </g>
        <path fill="#725148" d="M73.678 72.43c2.078.541 6.233.63 7.644-1.135 5.075-6.344 7.24-23.091 6.97-24.43-.873-4.353-5.857-19.872-8.176-22.124-2.32-2.253-26.035 1.69-28.8 6.513 0 0 .37 21.013 1.647 24.19 2.681 6.669 8.853 13.895 20.715 16.986"/>
        <path fill="#63362F" d="M74.333 44.47l-.19-.234c-.125-.152-.314-.37-.529-.663a17.075 17.075 0 0 1-1.589-2.501 17.07 17.07 0 0 1-1.447-3.842 16.853 16.853 0 0 1-.39-2.29c-.046-.396-.06-.797-.083-1.206-.01-.405-.009-.806.128-1.19 0 0-.064.07-.156.226a2.887 2.887 0 0 0-.286.741 9.52 9.52 0 0 0-.24 2.88c.075 1.222.424 2.68 1.194 4.135a10.876 10.876 0 0 0 3.588 3.945"/>
        <path fill="#828383" d="M70.875 36.264c.093.743 1.178 8.707 4.728 9.354 3.736.682 10.796-1.963 12.946-4.338 1.89-2.086-1.2-8.99-1.584-9.825-11.261-1.086-15.678 4.27-16.09 4.809m4.663 9.654c-3.947-.72-4.964-9.314-5.005-9.68l-.005-.052.03-.044c.045-.064 1.116-1.577 3.7-2.959 2.376-1.27 6.532-2.651 12.84-2.024l.098.01.04.082c.151.32 3.705 7.871 1.573 10.226-2.004 2.213-8.17 4.653-12.153 4.55a7.244 7.244 0 0 1-1.118-.109M49.826 38.803c-.216.749-2.126 7.994 3.325 11.109 2.673 1.529 10.411.042 13.64-2.118 2.901-1.94.158-9.536-.118-10.275-.683-.312-7.44-3.162-16.847 1.284m3.147 11.369c-5.94-3.395-3.478-11.437-3.452-11.517l.02-.063.062-.03c10.071-4.79 17.217-1.32 17.288-1.285l.056.028.021.055c.135.347 3.258 8.518.022 10.682-2.434 1.628-7.392 2.872-10.939 2.78-1.265-.032-2.351-.235-3.078-.65"/>
        <path fill="#FFF" d="M87.08 31.312s3.69 7.757 1.599 10.066c-2.09 2.31-9.238 5.096-13.11 4.39-3.869-.706-4.868-9.544-4.868-9.544s4.255-6.117 16.38-4.912M49.682 38.698s-2.52 7.972 3.38 11.344c2.796 1.598 10.656-.002 13.83-2.124 3.171-2.122-.082-10.507-.082-10.507s-7.02-3.52-17.128 1.287" opacity=".3"/>
        <path fill="#020202" d="M88.686 32.262c-3.365-.48-7.011-.348-10.277.509-4.247 1.114-6.245 4.997-10.76 5.277-1.385.087-2.274-.516-3.683-.792-5.563-1.093-11.45 1.144-16.271 3.372-1.263.584-2.302-1.192-1.038-1.776 4.846-2.24 10.293-4.225 15.856-3.8 1.298.1 2.59.33 3.81.757.295.104.653.36.961.41.76.12-1.052-.013-.118-.132 2.132-.271 2.953-.943 4.363-2.201 1.724-1.536 4.105-2.487 6.397-3.076 3.442-.886 7.322-1.06 10.865-.554 1.386.198 1.3 2.207-.105 2.006M75.406 21.318c2.515-1.202.65-5.11-1.87-3.906-2.517 1.202-.65 5.11 1.87 3.906"/>
        <path fill="#232322" d="M50.152 33.003a.74.74 0 0 1-.127-.377c-.025-.689-1.105-.785-1.08-.09.016.453.132.805.388 1.176.396.573 1.212-.14.819-.71M49.565 29.599a1.621 1.621 0 0 1-.14-.915c.079-.694-1.002-.781-1.08-.09a2.717 2.717 0 0 0 .242 1.472c.292.634 1.27.166.978-.467M48.74 25.017a6.427 6.427 0 0 0-.36-1.645c-.23-.657-1.204-.185-.978.467.155.443.235.902.271 1.369.055.695 1.12.498 1.067-.19M47.858 20.07l.092-1.086c.058-.695-1.022-.784-1.08-.09l-.092 1.087c-.058.696 1.022.785 1.08.09M47.57 15.46l.185-1.236c.103-.691-.977-.776-1.08-.09l-.186 1.237c-.103.69.977.776 1.08.09M46.528 34.447a.742.742 0 0 1-.127-.377c-.025-.689-1.106-.784-1.08-.09.016.453.131.805.388 1.177.396.572 1.212-.141.819-.71M49.151 36.8a.735.735 0 0 1-.126-.377c-.026-.689-1.106-.784-1.08-.09.015.453.131.805.388 1.177.395.572 1.212-.141.818-.71M45.94 31.043a1.627 1.627 0 0 1-.14-.915c.08-.694-1.002-.78-1.08-.09a2.717 2.717 0 0 0 .243 1.472c.292.634 1.27.167.977-.467M45.116 26.461a6.427 6.427 0 0 0-.36-1.645c-.23-.657-1.205-.185-.978.467.155.443.235.903.271 1.37.054.694 1.12.497 1.067-.192M44.234 21.515c.03-.362.06-.724.092-1.087.058-.695-1.022-.784-1.08-.09l-.092 1.088c-.059.695 1.022.784 1.08.089M43.945 16.905c.062-.412.123-.825.186-1.237.103-.69-.978-.776-1.08-.09l-.186 1.237c-.104.691.977.776 1.08.09M50.019 10.279l.522-.773c.39-.577-.506-1.186-.897-.607l-.522.772c-.39.578.506 1.187.897.608M51.98 7.564l-.208.362c-.345.6.549 1.213.898.607l.208-.361c.346-.6-.549-1.214-.898-.608M50.649 13.132c-.15.412-.231.837-.234 1.276-.005.694 1.075.787 1.08.09.003-.356.054-.67.176-1.006.237-.656-.785-1.016-1.022-.36M49.955 19.361l.164 1.119c.103.691 1.169.497 1.067-.19l-.165-1.12c-.101-.69-1.167-.497-1.066.191M51.169 24.22c.223.366.38.737.467 1.157.142.682 1.209.492 1.067-.19a4.48 4.48 0 0 0-.556-1.435c-.36-.59-1.341-.128-.978.467M54.642 28.107l.363-.045c.694-.086.5-1.151-.19-1.066l-.364.045c-.693.086-.499 1.15.191 1.066M56.423 25.528a1.896 1.896 0 0 1-.446-1.008c-.1-.69-1.166-.497-1.066.191.082.577.318 1.083.694 1.528.45.532 1.27-.177.818-.71M55.511 20.605c-.121-.328-.11-.66.002-.988.224-.66-.797-1.021-1.021-.36-.21.614-.184 1.21.041 1.815.244.653 1.22.181.978-.467M55.9 15.452l.254-2.426c.073-.695-1.007-.782-1.08-.09l-.253 2.426c-.073.695 1.008.783 1.08.09M56.607 9.105l.059-.413c.099-.691-.983-.777-1.08-.09l-.06.414c-.098.692.982.777 1.08.09M59.06 5.317l.277-.507c.331-.606-.562-1.221-.896-.608l-.278.508c-.33.606.563 1.22.898.607M60.17 4.004l-.108.309c-.233.658.79 1.018 1.021.36l.11-.309c.231-.657-.79-1.018-1.022-.36M59.442 7.791c-.01.43-.018.862-.027 1.293-.014.695 1.066.787 1.08.09l.027-1.293c.014-.695-1.066-.787-1.08-.09M59.01 14.544c.02.334-.043.65-.154.963-.234.657.788 1.018 1.022.36.177-.499.23-.988.2-1.514-.041-.695-1.107-.496-1.068.191M58.733 20.99c.206.337.34.665.413 1.054.127.686 1.194.495 1.067-.19a3.897 3.897 0 0 0-.502-1.332c-.361-.589-1.342-.128-.978.467M60.274 25.55l.458.423c.506.467 1.331-.237.818-.71l-.458-.423c-.506-.467-1.331.237-.818.71M64.359 25.31c.628-.301.162-1.278-.468-.977-.629.3-.163 1.278.468.977M64.205 21.066a1.568 1.568 0 0 1-.102-1.195c.206-.665-.815-1.027-1.022-.36a2.68 2.68 0 0 0 .147 2.022c.307.625 1.284.16.977-.467M64.464 15.174a.97.97 0 0 1-.054-.83c.235-.657-.786-1.018-1.022-.361a2.06 2.06 0 0 0 .099 1.658c.314.621 1.293.156.977-.467M64.594 10.111c-.09-.267-.09-.536-.052-.813.096-.691-.984-.776-1.08-.089-.066.478.001.916.155 1.37.224.658 1.2.185.977-.468M64.366 5.864a1.196 1.196 0 0 1-.077-.554c.05-.696-1.031-.786-1.08-.09-.028.393.035.745.179 1.111.256.648 1.233.178.978-.467M71.493 3.719l.402.11c.674.187.875-.878.207-1.062l-.403-.11c-.673-.187-.874.877-.206 1.062M66.895 4.527l.1.209c.301.628 1.279.162.978-.467l-.1-.21c-.301-.628-1.279-.162-.978.468M67.333 7.39c.138.406.215.839.228 1.267.022.69 1.101.785 1.08.09a6.138 6.138 0 0 0-.33-1.824c-.223-.658-1.2-.185-.978.467M68.1 13.409c.05.535.098 1.069.146 1.604.064.695 1.13.498 1.068-.19l-.147-1.605c-.063-.695-1.13-.498-1.066.191M68.41 18.928c.147.36.224.737.225 1.127.002.693 1.082.787 1.08.09a4.42 4.42 0 0 0-.326-1.684c-.262-.647-1.238-.176-.978.467M69.34 22.812l-.067.412c-.112.69.969.773 1.08.09l.067-.412c.112-.69-.969-.773-1.08-.09M71.722 24.611l.626-.3c.63-.3.162-1.277-.467-.976l-.626.3c-.63.3-.164 1.277.467.976M74.56 21.678c.022-.25.093-.456.233-.666.384-.58-.51-1.19-.898-.608-.24.362-.377.752-.415 1.184-.062.696 1.02.784 1.08.09M75.34 18.485l.135-1.601c.058-.696-1.022-.785-1.08-.09l-.135 1.6c-.058.697 1.022.786 1.08.09M74.963 12.72a1.81 1.81 0 0 1-.092-.813c.064-.696-1.016-.784-1.08-.09-.044.48.03.92.195 1.37.241.654 1.217.182.977-.467M73.46 6.933a1.985 1.985 0 0 0-.292-.917c-.36-.588-1.341-.127-.978.467a1.3 1.3 0 0 1 .204.64c.046.696 1.113.498 1.067-.19M76.507 5.631l-.186-.18c-.5-.484-1.2.342-.701.826l.186.18c.5.484 1.201-.342.701-.826M73.136 3.377l.713.94c.42.555 1.239-.156.819-.71l-.713-.94c-.42-.555-1.238.156-.819.71M77.246 8.578l.796 1.16c.393.572 1.21-.14.818-.71l-.796-1.16c-.393-.573-1.21.14-.818.71M78.744 13.617c.264.425.313.851.122 1.317-.267.646.757 1.003 1.021.36.288-.698.235-1.5-.165-2.144-.365-.585-1.347-.125-.978.467M78.733 20.372c.044.488-.096.94-.373 1.34-.398.572.498 1.181.897.608.443-.64.614-1.37.542-2.138-.064-.695-1.13-.498-1.066.19M77.946 23.944c.629-.3.162-1.277-.467-.976-.63.3-.163 1.277.467.976M83.377 22.854l.372-.823c.288-.636-.736-.992-1.021-.36-.125.274-.249.548-.372.823-.287.636.736.991 1.021.36"/>
        <path fill="#000" d="M92.687 75.967l1.009.665c.377.248.926.075 1.146-.3.24-.41.078-.897-.301-1.146-.336-.22-.672-.442-1.008-.664-.379-.249-.927-.075-1.147.3-.239.409-.078.896.3 1.145M96.385 79.365l1.43 1.273c.338.3.851.333 1.184 0 .307-.306.34-.882 0-1.183l-1.429-1.273c-.338-.3-.853-.333-1.185 0-.306.306-.34.882 0 1.183M102.307 85.047l1.427 1.435c.762.765 1.946-.418 1.185-1.183l-1.427-1.435c-.761-.765-1.946.419-1.185 1.183M107.533 90.156l1.305 1.562c.29.347.885.3 1.185 0 .344-.344.29-.836 0-1.184l-1.305-1.562c-.29-.347-.885-.299-1.185 0-.344.344-.291.836 0 1.184M112.77 96.205l1.418 1.757c.284.353.889.296 1.185 0 .348-.347.285-.83 0-1.183l-1.42-1.758c-.283-.352-.888-.296-1.184 0-.348.348-.285.83 0 1.184M116.462 101.75l.955 1.59c.554.922 2.003.081 1.447-.846l-.955-1.589c-.554-.923-2.003-.081-1.447.845M118.565 107.92c.294.91.466 1.826.504 2.782.041 1.074 1.717 1.08 1.675 0-.042-1.1-.225-2.18-.564-3.228-.33-1.02-1.947-.584-1.615.446M119.688 116.496c.255.916.415 1.838.469 2.788.06 1.071 1.736 1.078 1.675 0a15.221 15.221 0 0 0-.53-3.233c-.288-1.037-1.904-.597-1.614.445M121.096 125.414c.199.344.277.718.193 1.111-.094.441.131.905.585 1.03.417.114.936-.141 1.031-.586.178-.831.066-1.66-.362-2.4-.54-.932-1.988-.09-1.447.845M122.05 132.404a3.91 3.91 0 0 1 .67 2.294c-.022 1.077 1.654 1.077 1.675 0a5.495 5.495 0 0 0-.897-3.139c-.59-.897-2.04-.06-1.447.845M123.293 139.256c.343.565.444 1.143.368 1.797-.053.45.423.837.837.837.497 0 .785-.387.838-.837a4.176 4.176 0 0 0-.596-2.641c-.557-.92-2.006-.08-1.447.844M124.737 145.446a6.679 6.679 0 0 1 1.028 2.345c.238 1.05 1.854.605 1.615-.446a7.977 7.977 0 0 0-1.196-2.744c-.605-.884-2.058-.047-1.447.845M126.652 152.432c.328.425.576.875.73 1.39.306 1.03 1.923.591 1.615-.445a5.477 5.477 0 0 0-.898-1.79c-.276-.357-.721-.548-1.146-.3-.353.206-.578.785-.3 1.145M129.33 157.84l1.447 1.253c.342.296.849.336 1.185 0 .302-.302.343-.886 0-1.183l-1.447-1.254c-.342-.296-.849-.335-1.185 0-.302.303-.343.886 0 1.184"/>
        <path fill="#000" d="M133.091 159.209c.596-.028 1.16-.255 1.551-.717.292-.345.339-.845 0-1.184-.3-.299-.891-.347-1.185 0-.14.167-.204.22-.366.227-.451.021-.837.37-.837.837 0 .437.383.858.837.837M136.633 155.514v-.159c0-1.077-1.675-1.079-1.675 0v.159c0 1.076 1.675 1.078 1.675 0"/>
        <path fill="#FFF" d="M90.456 93.738l.613 2.447c.213.85 1.213 1.443 2.06 1.17.881-.285 1.399-1.149 1.171-2.06-.205-.815-.409-1.63-.612-2.447-.213-.85-1.215-1.442-2.062-1.169-.88.285-1.397 1.149-1.17 2.06M94.91 105.152l2.314 3.753c1.129 1.831 4.027.152 2.893-1.689l-2.314-3.754c-1.129-1.83-4.029-.152-2.893 1.69M101.145 119.777L103 123.44c.408.808 1.545 1.037 2.292.601.821-.48 1.01-1.48.6-2.29l-1.852-3.662c-.408-.807-1.545-1.037-2.293-.601-.82.48-1.01 1.48-.6 2.29M105.934 133.292l1.837 3.059c.464.774 1.505 1.06 2.292.6.776-.453 1.069-1.512.601-2.29l-1.837-3.059c-.465-.774-1.505-1.06-2.292-.6-.776.454-1.068 1.512-.601 2.29M109.246 147.103c.635.57.81 1.062.763 1.863-.053.905.808 1.674 1.676 1.674.951 0 1.621-.768 1.675-1.674a5.344 5.344 0 0 0-1.744-4.23c-.674-.604-1.706-.663-2.37 0-.614.614-.675 1.76 0 2.367M112.06 161.392c.066.035.129.073.193.11.217.124-.073-.007-.077-.063.003.03.131.131.156.156.208.208-.106-.202-.03-.031a1.6 1.6 0 0 0 .108.192c.1.163-.074-.283-.046-.094.01.067.035.149.055.213.063.192-.03-.42-.017-.062.032.874.747 1.715 1.675 1.674.88-.04 1.71-.737 1.675-1.674-.05-1.365-.774-2.661-2-3.311-.774-.41-1.858-.221-2.292.6-.41.775-.226 1.852.6 2.29"/>
        <path fill="#020202" d="M62.304 34.15s-.267-.185-.76-.428a6.763 6.763 0 0 0-2.14-.627 6.393 6.393 0 0 0-3.043.37 6.924 6.924 0 0 0-2.95 2.151s.068-.295.328-.782c.256-.483.747-1.154 1.583-1.728a5.2 5.2 0 0 1 3.38-.893c1.323.103 2.744.775 3.602 1.937M80.797 28.837s-.287-.078-.784-.152a7.924 7.924 0 0 0-2.045-.025 7.4 7.4 0 0 0-2.692.837c-.91.496-1.807 1.22-2.451 2.24 0 0 .02-.276.196-.75.175-.468.544-1.135 1.233-1.751a5.297 5.297 0 0 1 2.908-1.295c1.19-.142 2.568.116 3.635.896"/>
        <path fill="#643730" d="M76.572 51.733l-.072.203c-.052.128-.125.327-.258.548-.251.457-.719 1.064-1.463 1.579a5.186 5.186 0 0 1-2.91.9 4.853 4.853 0 0 1-1.717-.33 4.301 4.301 0 0 1-1.511-1.034s.305-.13.762-.306c.46-.17 1.058-.423 1.702-.65.652-.227 1.344-.445 2.184-.571.846-.142 1.839-.174 3.283-.339"/>
        <path fill="#FFF" d="M81.953 55.192l-.196.39a9.497 9.497 0 0 1-.652 1.053 11.709 11.709 0 0 1-3.26 3.083 12.532 12.532 0 0 1-6.135 1.957c-2.375.127-4.97-.47-7.043-1.877l1.57-.042a35.857 35.857 0 0 0 3.943-.359 32.242 32.242 0 0 0 5.352-1.249c1.961-.648 4.102-1.512 6.421-2.956"/>
        <path fill="#643730" d="M79.136 62.972s-.074.285-.343.705c-.265.417-.755.95-1.414 1.384a6.772 6.772 0 0 1-1.069.58 5.41 5.41 0 0 1-1.365.39c-.517.07-1.1.076-1.697-.1-.589-.16-1.176-.539-1.497-1.062l.214-.058c.131-.033.32-.094.525-.18.422-.17.868-.466 1.388-.781.523-.308 1.166-.646 2.08-.817a6.94 6.94 0 0 1 1.41-.09c.509.008 1.07.056 1.768.03"/>
        <path fill="#040404" d="M64.533 42.526a1.527 1.527 0 0 0-.99-.655c-.206.29-.467.542-.78.74.37.228.462.588.378.654-.084.065-.153.193-.104.21.031.068-.065.243-.275.25-.21.009-.458-.137-.574-.297-.125-.166-.151-.323-.151-.323-.173.147-.278.4-.284.655-.004.26.06.508.216.747.304.483.956.77 1.543.612.587-.117 1.069-.685 1.198-1.145.16-.478.096-1.04-.177-1.448M83.928 38.392a1.535 1.535 0 0 0-1.346-.685c-.263.25-.578.455-.92.604.783.109.986.731.874.82-.085.066-.154.193-.105.212.031.066-.065.242-.275.248-.21.01-.458-.137-.574-.297-.125-.165-.152-.323-.152-.323-.172.147-.277.4-.283.656-.005.26.06.508.216.746.304.484.956.77 1.543.613.587-.117 1.069-.685 1.198-1.146a1.708 1.708 0 0 0-.176-1.448"/>
        <path fill="#643730" d="M81.977 56.147s-.212-.05-.481-.073c-.267-.025-.594 0-.792.073-.207.065-.272.158-.167.036.086-.12.374-.485.4-1.36 0 0 .115-.27.376-.557.255-.287.687-.565 1.152-.573.456-.019.927.265.994.808.074.524-.329 1.316-1.482 1.646M64.363 60.384s-.244-.035-.541-.153c-.3-.116-.645-.336-.83-.633-.186-.29-.2-.657.073-.877.271-.218.82-.26 1.586.178 0 0 .149.256.387.532.23.283.546.596.782.763.233.177.369.195.176.138a2.35 2.35 0 0 0-.54-.067 3.647 3.647 0 0 0-.457.019c-.182.02-.33.047-.636.1"/>
        <path fill="#643730" d="M81.542 55.296s-.43.36-1.244.911a22.738 22.738 0 0 1-3.574 1.975 24.005 24.005 0 0 1-5.57 1.683c-2.11.36-4.43.438-6.711.092 0 0 .508-.159 1.402-.399l3.711-.993 11.986-3.269"/>
        <path fill="#725148" d="M15.477 158.626s8.507-9.758 40.516-36.989c0 0 12.52-11.327 14.937-9.284 4.096 3.463 3.781 4.407 3.466 6.61-.802 5.61-34.343 52.254-41.275 56.032-6.931 3.777-20.48 4.721-17.644-16.369"/>
        <path fill="#725148" d="M68.41 112.668s8.507-15.424 13.863-20.146c5.356-4.722 24.89-8.814 26.466-9.443 1.575-.63 2.629 4.862-1.206 5.894-3.835 1.03-12.027 3.234-12.027 3.234s5.986 3.463 6.301 6.925c.316 3.463-2.835 4.407-2.835 4.407s1.26 6.296-4.726 5.666c0 0-.946 5.352-6.617 3.148 0 0-13.233 12.277-16.069 8.814-2.835-3.463-4.726-5.666-3.15-8.499M177.95 67.076c-1.555-.305-3.604.098-5.01-.648-4.173-2.213-8.236-4.626-11.923-7.434a520.527 520.527 0 0 1-1.762 3.88c-.705 1.53-1.545 3.007-2.267 4.53-.418.88-.121 1.833-.588 2.727-.556 1.063-1.615 1.755-2.087 2.85-.369.852-.816 1.905-.774 2.83.036.8.087 1.582-.112 2.377-.311 1.235-.574 2.435-1.094 3.546.341.68.72 1.337 1.146 1.963 1.23 1.805 3.2 4.037 5.624 3.685 1.302-.189 2.493-.354 3.782.026.643.189 1.272.47 1.938.569.675.1 1.38.058 2.05-.055a11.494 11.494 0 0 0 2.235-.638c1.18-.736 2.435-1.368 3.36-2.376 2.137-2.33 3.736-5.523 5.07-8.37 1.188-2.53 2.676-5.387 2.266-8.281-.111-.788-1.127-1.04-1.854-1.181"/>
        <path fill="#8F8F8F" d="M173.019 39.83c-1.4-.658-2.832-.302-4.485.059-1.69.37-3.92.82-5.614 1.16-1.638.33-3.38.67-5.011 1.034-1.452.324-3.924.807-4.981 1.926-.943.998-1.141 2.824-1.042 4.166.2 2.713 1.12 5.31 1.72 7.95.74 3.252 1.34 6.287 2.005 9.556.494 2.432 1.188 5.63 1.8 8.035.52 2.037.71 3.6 1.249 5.632.388 1.468.423 3.433 2.076 4.254 1.032.513 2.498.462 3.591.319 1.735-.228 3.415-.74 5.13-1.07 2-.384 3.963-.906 5.92-1.464 1.72-.491 3.944-.547 5.455-1.504 1.717-1.088 1.845-3.042 1.454-5.13-1.488-7.94-3.638-15.802-5.022-23.712-.38-2.182-1.081-4.402-1.663-6.579-.486-1.817-.64-3.72-2.582-4.633"/>
        <path fill="#000" d="M156.396 42.447c-.26-.078-.688-.11-1.4.127a1.758 1.758 0 0 0-.665.388c.04.185.05.423.312.515.206.073.723.04.955-.015.282-.067.493-.15.712-.307.322-.232.111-.463.086-.708"/>
        <path fill="#000" d="M154.837 42.544c-.357.134-.585.55-.03.562h.001c.707.016.99-.459.728-.616-.118-.07-.347-.077-.699.054"/>
        <path fill="#5A5B5B" d="M170.31 40.756c-3.407.739-12.556 2.632-15.279 3.224-3.606.782-2.488 5.27-2.265 6.527.082.457 2.685 12.437 4.576 21.127l1.937 8.905c.789 3.714 2.776 3.93 5.202 3.404l13.045-2.83c5.453-1.184 5.105-2.706 4.38-6.037-.233-1.074-1.449-6.851-2.743-12.99a3928.271 3928.271 0 0 0-3.222-15.198c-.073-.333-.133-.673-.194-1.012-.425-2.38-1.185-6.043-5.437-5.12"/>
        <path fill="#000" d="M166.542 42.502c-.78.181-1.16.31-1.747.418-.572.104-2.143.461-3.35.734-.278.063-3.124.44-2.003 1.105.322.192.958-.06 1.294-.114.843-.138 1.978-.412 2.988-.627 1.112-.236 1.722-.37 3.041-.659 1.114-.244.664-1.063-.223-.857"/>
        <path fill="#5A5B5B" d="M164.332 78.725c-1.146.37-2.125.539-3.364.391l-1.154-.325c-.36 1.639.505 3.718 1.905 4.674 1.18.806 2.917.376 4.181-.049 1.419-.477 2.936-.86 2.827-2.387-.07-.966.275-2.265.032-3.206-.032-.126-4.049.78-4.427.902"/>
        <path fill="#FFF" d="M180.51 73.49l-.92-4.301-1.574-7.36h-.003l-.63-2.94c-.342-1.6-2.098-9.933-2.441-11.532-.178-.833-.22-.993-.394-1.825-.48-2.29-1.88-2.238-3.295-1.957-1.687.337-2.452.484-4.14.818-2.469.49-4.938.98-7.407 1.472-1.147.228-2.124.414-3.27.645-1.005.2-3.008.727-2.609 2.628L156.5 61.85c.286 1.364.57 2.727.857 4.09h-.001a46375.704 46375.704 0 0 0 2.362 11.284c.176.853.376 2.845 3.95 2.133 1.427-.284 13.366-2.69 14.547-2.917 2.795-.535 2.398-2.468 2.295-2.95"/>
        <g transform="rotate(-10 386.463 -885.653)">
            <mask id="h" fill="#fff">
                <use xlink:href="#g"/>
            </mask>
            <path fill="#FF7900" d="M8.392 18.126h3.975v-6.631H8.392v6.631zm1.988 1.327a.442.442 0 1 1 .441-.443.442.442 0 0 1-.441.443zM12.7 10.5H8.06a.552.552 0 0 0-.551.553v8.29c0 .304.246.551.551.552h4.64a.552.552 0 0 0 .55-.553v-8.29a.552.552 0 0 0-.55-.552zM9.937 3.868a3.863 3.863 0 0 1-3.872 3.854 3.863 3.863 0 0 1-3.858-3.868A3.863 3.863 0 0 1 6.073 0a3.867 3.867 0 0 1 3.865 3.868zm-2.981 7.185c0-.61.493-1.105 1.104-1.106h3.569a4.991 4.991 0 0 0-2.337-2.29 4.965 4.965 0 0 1-6.44 0A4.974 4.974 0 0 0 0 12.157v4.422a2.21 2.21 0 0 0 2.208 2.21h4.749v-7.736z" mask="url(#h)"/>
        </g>
        <path fill="#F2DED6" d="M171.454 55.123l.032-.004a.563.563 0 0 1-.056.004h.024"/>
        <path fill="#9DA9BF" d="M168 76l-.004.012.003-.011"/>
        <path fill="#233143" d="M157.918 63.67zM158.068 63.522l-.002-.01-.001.009h.003zM162.788 58.458l.009-.016h-.002zM162.15 62.857l-.002-.01-.001.01zM172.202 59.76l.04.033-.04-.034M176.485 59.302v-.01l-.002.01h.002z"/>
        <path fill="#725148" d="M150.564 77.146c.603 1.997 1.358 4.016 2.444 5.814.686-.476 1.372-.958 2-1.52.706-.633 1.261-1.39 2.028-1.958.466-.346 1.15-.589 1.492-1.08.87-1.254-.012-3.608-.205-4.983-.31-2.233-.173-4.625-.652-6.822-.377-1.727-.316-3.03.547-4.684.078-.15.213-.288.358-.426.166-.157.344-.313.463-.482.52-.737.792-1.732.821-2.652.05-1.601.297-5.944-2.39-4.879-.438 1.8-1.61 3.278-2.772 4.696-.819 1-3.681 7.956-5.326 10.892-.169 2.729.407 5.485 1.192 8.084"/>
        <path fill="#63362F" d="M158.327 55.882c-.085.507-.386.937-.865 1.14-.45.19-.968.046-1.31-.283-.187-.18-.488.091-.3.274.458.44 1.1.618 1.707.402.664-.236 1.06-.835 1.173-1.51.043-.26-.364-.278-.405-.023"/>
        <path fill="#000" d="M173.756 79.047c-.54-.007-1.21.123-1.678.19-.432.061-1.605.343-2.507.557-.378.09-2.693.47-1.518 1.374.28.215.847.12 1.145.09.639-.064 1.483-.293 2.24-.451.833-.174 1.289-.275 2.275-.494.834-.186 1.2-1.252.043-1.266"/>
        <path fill="#725148" d="M176.5 47.663s7.488 3.262 7.46 4.172c-.03.911-.473 3.042-2.211 2.854-1.739-.19-4.082-1.604-4.082-1.604l-1.166-5.422zM182.057 65.745s3.376 2.14 3.218 3.834c-.158 1.695-4.064 5.85-4.064 5.85s-3.28-.549-2.644-2.983c.637-2.435 2.957-5.574 2.957-5.574l-.211-1.737.744.61z"/>
        <path fill="#63362F" d="M183.403 71.776c-.315-.557-.916-.889-1.562-.693-.59.18-.889.717-1.03 1.277-.084.332-.283.93.035 1.134.255.162.525.234.772.432.162.129-.066.355-.227.227-.397-.318-1.02-.271-1.047-.842-.031-.604.176-1.39.522-1.883.732-1.043 2.21-.886 2.815.186.102.18-.176.342-.278.162"/>
        <path fill="#725148" d="M180.354 60.258s3.375 2.14 3.218 3.834c-.158 1.694-4.063 5.85-4.063 5.85s-3.282-.55-2.645-2.984c.637-2.435 2.957-5.573 2.957-5.573l-.212-1.736.745.609z"/>
        <path fill="#63362F" d="M181.7 66.288c-.315-.557-.916-.888-1.562-.692-.591.18-.89.717-1.03 1.276-.084.333-.284.93.035 1.134.255.162.525.235.773.432.16.13-.068.355-.228.227-.397-.317-1.02-.27-1.048-.842-.03-.604.177-1.39.523-1.882.731-1.043 2.209-.885 2.814.185.103.18-.175.343-.277.162"/>
        <path fill="#725148" d="M178.651 54.77s3.376 2.14 3.218 3.835c-.158 1.694-4.064 5.849-4.064 5.849s-3.28-.549-2.644-2.983c.637-2.435 2.957-5.574 2.957-5.574l-.211-1.736.744.61z"/>
        <path fill="#63362F" d="M179.997 60.801c-.315-.558-.916-.888-1.562-.692-.59.178-.889.717-1.03 1.276-.084.333-.284.93.035 1.134.255.162.525.234.772.432.162.13-.067.355-.227.227-.397-.318-1.02-.271-1.048-.843-.03-.603.177-1.39.523-1.881.731-1.044 2.21-.886 2.815.185.102.18-.176.342-.278.162"/>
        <path fill="#020202" d="M56.887 45.18a60.945 60.945 0 0 1 7.73-2.232c.99-.216.572-1.733-.418-1.518a61.07 61.07 0 0 0-7.73 2.232c-.947.341-.539 1.862.418 1.517M75.629 40.43a60.943 60.943 0 0 1 7.73-2.231c.99-.216.571-1.734-.419-1.518a61.068 61.068 0 0 0-7.73 2.23c-.946.343-.539 1.864.419 1.519"/>
    </g>
</svg>
