<svg xmlns="http://www.w3.org/2000/svg" width="375" height="70" viewBox="0 0 375 70">
    <g fill="none" fill-rule="evenodd">
        <g>
            <g>
                <path fill="#FFF" d="M0 70L375 70 375 0 0 0z" transform="translate(0 -135) translate(0 135)"/>
                <g>
                    <path fill="#DCF0FA" d="M25.37 5.928s-3.338 1.853-1.942 7.22c1.395 5.366-1.222 8.83-9.213 11.886C6.225 28.09-.848 40.71 7.332 46.794c8.18 6.083 22.836 2.809 27.144 2.398 4.31-.412 11.356-1.574 19.89 3.567 8.534 5.14 21.447 9.229 34.305 4.673 12.858-4.555 28.75-3.305 48.627 1.39 19.877 4.697 35.176-1.827 35.176-1.827s15.242-6.947 34.888-2.318c19.646 4.629 34.07 5.775 49.138.547 15.068-5.23 31.252-1.018 34.135-.51 2.881.51 31.194 4.749 39.318-4.53 8.124-9.278-10.822-8.978-10.39-16.46.43-7.481 9.424-24.263-4.32-27.163-13.746-2.9-40.977 9.515-60.257 5.728-19.28-3.786-15.279-11.302-46.62-6.986-31.343 4.317-43.316 8.68-56.787 6.845-13.47-1.836-27.95-15.504-54.778-6.717-6.307 2.066-33.973 4.493-52.169-1.071-6.887-2.106-17.144-1.64-19.262 1.568" transform="translate(0 -135) translate(0 135) translate(20 4)"/>
                    <path stroke="#FF7900" stroke-width="2" d="M111.245 33c3.225-2.099 6.376 5.361 10.69 3.232 1.963-.968 1.038-9.342 3.734-10.443 2.19-.893 7.372 5.703 9.984 4.838 2.311-.764 2.53-9.17 5.133-9.835 2.395-.612 6.603 6.646 9.214 6.176 2.454-.441 3.885-8.722 6.505-8.989 2.493-.254 5.545 7.56 8.167 7.504 2.512-.052 5.25-7.996 7.861-7.83 2.511.159 4.21 8.374 6.795 8.768 2.487.378 6.56-6.968 9.101-6.345 2.441.598 2.655 8.985 5.132 9.834 2.375.814 7.686-5.691 10.082-4.625 2.291 1.018 1.034 9.315 3.335 10.583 2.194 1.209 8.528-4.304 10.722-2.851" transform="translate(0 -135) translate(0 135) translate(20 4)"/>
                    <path stroke="#00B6E9" stroke-linecap="round" stroke-linejoin="round" stroke-width="2" d="M16.604 20.02s-28.027 13.705-9.271 29.088" transform="translate(0 -135) translate(0 135) translate(20 4)"/>
                    <path stroke="#4BB4E6" stroke-linecap="round" stroke-linejoin="round" stroke-width="2" d="M39.49 50.9s8.184-1.533 15.167 4.941c6.984 6.474 15.882 6.08 15.882 6.08" transform="translate(0 -135) translate(0 135) translate(20 4)"/>
                    <path stroke="#FF7900" stroke-linecap="round" stroke-linejoin="round" stroke-width="2" d="M42.45 2.09s28.097 6.89 49.711 2.019c21.615-4.872 34.045-5.826 52.19 4.29" transform="translate(0 -135) translate(0 135) translate(20 4)"/>
                    <path stroke="#4BB4E6" stroke-linecap="round" stroke-linejoin="round" stroke-width="2" d="M172.538 7.74S207.251-2.604 225.625.63C244 3.864 251.336 8.11 251.336 8.11" transform="translate(0 -135) translate(0 135) translate(20 4)"/>
                    <path stroke="#00B6E9" stroke-linecap="round" stroke-linejoin="round" stroke-width="2" d="M284.866 7.472s-.333.344 3.604-1.401" transform="translate(0 -135) translate(0 135) translate(20 4)"/>
                    <path stroke="#FF7900" stroke-linecap="round" stroke-linejoin="round" stroke-width="2" d="M169.834 61.63s18.457-6.822 36.047-2.976c17.591 3.847 32.836 6.035 47.266.802 14.431-5.232 25.095-1.672 30.854-.802 5.758.87 13.807 0 13.807 0" transform="translate(0 -135) translate(0 135) translate(20 4)"/>
                    <path stroke="#FF7A00" stroke-linecap="round" stroke-linejoin="round" stroke-width="2" d="M8.807 9.33L14.854 13.231M13.746 8.362L10.632 13.883M328.748 27.429L334.795 31.33M333.687 26.461L330.574 31.982" transform="translate(0 -135) translate(0 135) translate(20 4)"/>
                    <path fill="#FFF" d="M242.334 48.036l-17.358-4.509c-.825-.214-1.319-1.055-1.105-1.879l8.031-30.919c.214-.824 1.055-1.318 1.878-1.104l17.359 4.51c.824.213 1.318 1.053 1.104 1.877l-8.03 30.92c-.215.823-1.056 1.318-1.879 1.104" transform="translate(0 -135) translate(0 135) translate(20 4)"/>
                    <path fill="#FF7A00" d="M245.54 41.82s1.584-6.097-8.587-8.738c-10.171-2.642-8.588-8.738-8.588-8.738l3.571-13.747c.195-.75.961-1.2 1.712-1.007l17.623 4.578c.75.194 1.202.961 1.006 1.712l-6.737 25.94z" transform="translate(0 -135) translate(0 135) translate(20 4)"/>
                    <path fill="#000" d="M233.587 10.37c-.411-.105-.833.142-.94.553l-8.03 30.919c-.107.41.14.833.552.94l17.358 4.508c.412.108.833-.141.94-.552l8.03-30.92c.108-.41-.14-.831-.552-.938l-17.358-4.51zm8.553 38.412l-17.36-4.51c-1.232-.32-1.974-1.583-1.654-2.818l8.03-30.918c.32-1.234 1.585-1.977 2.819-1.656l17.358 4.509c1.233.32 1.977 1.584 1.656 2.817l-8.031 30.919c-.32 1.234-1.585 1.977-2.818 1.657z" transform="translate(0 -135) translate(0 135) translate(20 4)"/>
                    <path fill="#000" d="M238.444 23.488c.107.237.292.389.553.456.211.055.414.058.61.009.194-.05.374-.132.54-.251.165-.117.306-.261.425-.43.117-.17.2-.344.246-.522.067-.261.034-.504-.098-.73-.132-.225-.325-.37-.577-.436-.195-.05-.388-.051-.579 0-.19.05-.367.133-.527.247-.16.115-.298.25-.412.408-.115.157-.195.32-.239.49-.07.27-.05.523.058.759zm4.578-2.354l-1.5 2.867c-.108.215-.176.375-.203.48-.043.164.018.267.181.309.122.032.27.015.442-.048.173-.064.346-.171.52-.321.173-.15.34-.346.498-.588.158-.241.278-.52.36-.838.105-.406.113-.803.023-1.192-.09-.388-.253-.748-.488-1.078-.236-.33-.53-.615-.886-.855-.354-.24-.743-.415-1.167-.525-.479-.124-.949-.146-1.409-.066-.459.08-.88.24-1.264.48-.383.239-.713.54-.99.902-.276.363-.47.764-.586 1.202-.12.465-.14.926-.06 1.386.081.459.237.882.472 1.269.234.386.538.72.912 1.005.373.284.792.486 1.255.606.562.146 1.08.196 1.551.149.472-.047.907-.127 1.3-.242l1.087.282c-.598.496-1.269.82-2.013.975-.743.155-1.579.112-2.507-.13-.626-.162-1.184-.428-1.674-.8-.49-.37-.888-.811-1.193-1.325-.305-.513-.505-1.075-.597-1.686-.094-.611-.059-1.23.103-1.856.163-.626.434-1.183.813-1.672.378-.487.826-.883 1.343-1.188.518-.304 1.082-.502 1.693-.596.61-.093 1.228-.058 1.855.105.611.158 1.167.396 1.671.714.504.317.92.692 1.246 1.124.325.432.553.906.68 1.42.126.516.116 1.054-.029 1.615-.113.432-.269.8-.47 1.109-.202.308-.429.569-.679.782-.25.213-.514.38-.789.505-.275.124-.542.213-.8.268-.257.055-.494.082-.71.082-.218 0-.392-.017-.522-.05-.488-.127-.696-.411-.625-.853l-.025-.007c-.208.129-.45.227-.727.293-.278.067-.58.058-.905-.026-.22-.057-.423-.16-.61-.31-.188-.147-.342-.333-.463-.554-.12-.224-.199-.477-.238-.76-.04-.284-.016-.59.067-.914.098-.374.254-.725.47-1.051.214-.326.472-.6.773-.821.3-.222.634-.378 1.001-.47.367-.092.75-.086 1.148.018.31.08.571.218.785.413.215.194.374.457.48.788l.326-.606 1.074.28z" transform="translate(0 -135) translate(0 135) translate(20 4)"/>
                    <path fill="#FFF" d="M235.707 49.613l-17.302 4.722c-.821.223-1.668-.26-1.892-1.08l-8.41-30.82c-.224-.82.26-1.668 1.081-1.892l17.302-4.722c.821-.224 1.668.26 1.892 1.082l8.41 30.817c.224.822-.26 1.67-1.081 1.893" transform="translate(0 -135) translate(0 135) translate(20 4)"/>
                    <path fill="#FF7A00" d="M235.398 42.626s-1.659-6.076-11.797-3.311c-10.137 2.767-11.794-3.309-11.794-3.309l-3.74-13.702c-.204-.748.237-1.52.986-1.725l17.565-4.793c.749-.204 1.52.237 1.724.985l7.055 25.855z" transform="translate(0 -135) translate(0 135) translate(20 4)"/>
                    <path fill="#000" d="M209.387 21.287c-.41.112-.652.536-.54.946l8.41 30.818c.11.41.536.653.945.54l17.302-4.721c.41-.111.653-.537.54-.946l-8.41-30.818c-.11-.41-.535-.652-.945-.541l-17.302 4.722zm26.523 29.07l-17.301 4.722c-1.23.334-2.503-.393-2.838-1.623l-8.41-30.817c-.336-1.23.39-2.503 1.62-2.838l17.302-4.722c1.23-.335 2.503.392 2.838 1.62l8.41 30.819c.336 1.229-.391 2.503-1.621 2.839z" transform="translate(0 -135) translate(0 135) translate(20 4)"/>
                    <path fill="#000" d="M222.722 34.096c-.058.08-.134.125-.228.135-.093.01-.178-.008-.254-.051-1.198-.685-2.14-1.62-2.824-2.804-.661-1.16-1.001-2.406-1.02-3.741-.013-1.368.323-2.651 1.008-3.85.043-.075.107-.133.193-.172.085-.04.174-.04.265 0l1.677.504c.087.025.159.078.212.16.055.08.075.168.06.26l-.228 1.988c-.01.083-.044.158-.101.226-.058.068-.133.107-.227.116l-1.255.21c-.063.707 0 1.402.19 2.084.19.683.488 1.31.892 1.88l1.203-.447c.08-.03.16-.034.243-.013.082.022.153.069.213.14l1.206 1.598c.049.066.072.148.066.246-.005.097-.04.179-.102.244l-1.19 1.287zM118.391 47.144l-18.737 5.113c-.928.253-1.885-.293-2.138-1.22L87.647 14.87c-.253-.927.294-1.884 1.221-2.137l18.737-5.113c.927-.253 1.884.294 2.137 1.22l9.87 36.167c.253.928-.294 1.884-1.22 2.137" transform="translate(0 -135) translate(0 135) translate(20 4)"/>
                    <path fill="#000" d="M89.046 13.618c-.447.122-.704.611-.573 1.09l9.837 36.047c.131.48.601.77 1.048.65l18.854-5.146c.447-.122.704-.612.573-1.09L108.948 9.12c-.13-.479-.6-.77-1.048-.649l-18.854 5.146zm29.641 34.38l-18.855 5.144c-1.34.366-2.749-.506-3.142-1.945l-9.836-36.046c-.393-1.439.378-2.906 1.717-3.272l18.855-5.145c1.34-.366 2.75.507 3.142 1.945l9.836 36.046c.393 1.44-.378 2.907-1.717 3.272z" transform="translate(0 -135) translate(0 135) translate(20 4)"/>
                    <path fill="#FFF" d="M115.937 38.676l-18.471 5.04c-.798.218-1.62-.252-1.838-1.05l-7.461-27.341c-.217-.797.252-1.62 1.05-1.838l18.471-5.04c.797-.218 1.62.252 1.837 1.049l7.462 27.342c.217.797-.253 1.62-1.05 1.838M110.393 44.754c.382 1.398-.442 2.842-1.84 3.224-1.4.38-2.843-.444-3.224-1.842-.382-1.4.442-2.842 1.841-3.223 1.398-.382 2.842.443 3.223 1.84" transform="translate(0 -135) translate(0 135) translate(20 4)"/>
                    <path stroke="#FFF" stroke-linecap="round" stroke-linejoin="round" stroke-width="1.548" d="M117.053 28.752L117.934 26.203" transform="translate(0 -135) translate(0 135) translate(20 4)"/>
                    <path stroke="#FFF" stroke-linecap="round" stroke-linejoin="round" stroke-width="1.844" d="M118.6 30.724L120.586 28.096M120.64 39.876L123.215 41.553" transform="translate(0 -135) translate(0 135) translate(20 4)"/>
                </g>
            </g>
        </g>
    </g>
</svg>
