<svg xmlns="http://www.w3.org/2000/svg" xmlns:xlink="http://www.w3.org/1999/xlink" width="366" height="287" viewBox="0 0 366 287">
    <defs>
        <filter id="a" width="108.3%" height="108%" x="-4.2%" y="-4%" filterUnits="objectBoundingBox">
            <feOffset dy="2" in="SourceAlpha" result="shadowOffsetOuter1"/>
            <feGaussianBlur in="shadowOffsetOuter1" result="shadowBlurOuter1" stdDeviation="4"/>
            <feColorMatrix in="shadowBlurOuter1" result="shadowMatrixOuter1" values="0 0 0 0 0 0 0 0 0 0 0 0 0 0 0 0 0 0 0.05 0"/>
            <feMerge>
                <feMergeNode in="shadowMatrixOuter1"/>
                <feMergeNode in="SourceGraphic"/>
            </feMerge>
        </filter>
        <path id="b" d="M6 0h338a6 6 0 0 1 6 6v264.667H0V6a6 6 0 0 1 6-6z"/>
        <filter id="d" width="180.5%" height="153.8%" x="-40.3%" y="-26.8%" filterUnits="objectBoundingBox">
            <feOffset dx="10" dy="22" in="SourceAlpha" result="shadowOffsetOuter1"/>
            <feGaussianBlur in="shadowOffsetOuter1" result="shadowBlurOuter1" stdDeviation="17.5"/>
            <feColorMatrix in="shadowBlurOuter1" result="shadowMatrixOuter1" values="0 0 0 0 0 0 0 0 0 0 0 0 0 0 0 0 0 0 0.5 0"/>
            <feMerge>
                <feMergeNode in="shadowMatrixOuter1"/>
                <feMergeNode in="SourceGraphic"/>
            </feMerge>
        </filter>
        <path id="e" d="M0 .372h271.488v407.83H0z"/>
        <path id="g" d="M0 408.628h271.488V.798H0z"/>
    </defs>
    <g fill="none" fill-rule="evenodd" filter="url(#a)" transform="translate(8 6)">
        <mask id="c" fill="#fff">
            <use xlink:href="#b"/>
        </mask>
        <use fill="#A885D8" xlink:href="#b"/>
        <g mask="url(#c)">
            <g filter="url(#d)" transform="translate(39 50)">
                <g transform="translate(0 .426)">
                    <mask id="f" fill="#fff">
                        <use xlink:href="#e"/>
                    </mask>
                    <path fill="#FFF" d="M249.909 408.202H21.579c-11.87 0-21.58-9.71-21.58-21.58V21.953C0 10.081 9.71.371 21.58.371h228.33c11.868 0 21.579 9.71 21.579 21.58v364.67c0 11.87-9.71 21.58-21.58 21.58" mask="url(#f)"/>
                </g>
                <mask id="h" fill="#fff">
                    <use xlink:href="#g"/>
                </mask>
                <path fill="#EFBC92" d="M29.948 66.578h210.395V47.441H29.948z" mask="url(#h)"/>
                <path fill="#9A9790" d="M29.948 114.99h210.395V73.154H29.948z" mask="url(#h)"/>
                <path fill="#EFBC92" d="M29.948 303.973h210.395V121.838H29.948z" mask="url(#h)"/>
                <path fill="#FF7900" d="M40.085 28.06h-6.168l-.82 4.4.043.043c.669-.755 1.813-1.1 2.846-1.1 2.718 0 4.94 1.748 4.94 5.24 0 2.588-1.789 5.09-5.348 5.09-2.652 0-4.81-1.616-4.875-4.378h1.833c.108 1.575 1.38 2.762 3.213 2.762 1.748 0 3.237-1.187 3.237-3.625 0-2.027-1.403-3.472-3.45-3.472-1.166 0-2.137.584-2.85 1.445l-1.573-.086 1.423-7.936h7.549v1.617zM53.94 40.117c3.127 0 3.149-3.883 3.149-6.168 0-2.264-.022-6.149-3.149-6.149-3.127 0-3.149 3.885-3.149 6.149 0 2.285.022 6.168 3.15 6.168m0-13.933c4.788 0 5.09 4.4 5.09 7.786 0 3.365-.302 7.763-5.09 7.763-4.79 0-5.09-4.398-5.09-7.763 0-3.386.3-7.786 5.09-7.786M65.939 40.117c3.127 0 3.149-3.883 3.149-6.168 0-2.264-.022-6.149-3.15-6.149-3.126 0-3.148 3.885-3.148 6.149 0 2.285.022 6.168 3.149 6.168m0-13.933c4.789 0 5.09 4.4 5.09 7.786 0 3.365-.301 7.763-5.09 7.763-4.787 0-5.09-4.398-5.09-7.763 0-3.386.303-7.786 5.09-7.786M77.937 40.117c3.127 0 3.148-3.883 3.148-6.168 0-2.264-.021-6.149-3.148-6.149-3.128 0-3.15 3.885-3.15 6.149 0 2.285.022 6.168 3.15 6.168m0-13.933c4.788 0 5.09 4.4 5.09 7.786 0 3.365-.302 7.763-5.09 7.763-4.787 0-5.09-4.398-5.09-7.763 0-3.386.303-7.786 5.09-7.786M91.62 26.076h10.115V27.8h-8.067v4.897h7.074v1.726h-7.074v7.051H91.62zM112.749 32.506c-.36-1.814-1.815-2.731-3.595-2.731-3.055 0-4.348 2.516-4.348 5.193 0 2.931 1.293 5.373 4.366 5.373 2.246 0 3.54-1.58 3.702-3.7h1.709c-.326 3.199-2.32 5.139-5.555 5.139-3.99 0-5.93-2.947-5.93-6.686 0-3.719 2.12-6.758 6.074-6.758 2.677 0 4.887 1.439 5.283 4.17h-1.706zM116.71 28.642h8.428v1.439h-6.722v4.078h5.896v1.439h-5.896v5.876h-1.707zM128.252 36.173h4.35l-2.14-5.984h-.036l-2.174 5.984zm1.277-7.53h1.886l5.016 12.831h-1.889l-1.4-3.864h-5.43l-1.436 3.864h-1.762l5.015-12.832z" mask="url(#h)"/>
                <path fill="#FFF" d="M234.302 109.598l-3.404-5.873-1.35 4.868-1.353 2.393-1.35-.724-1.35-1.897-1.351.185-1.352-.894-1.35-.032-1.351 1.917-1.353-5.699-1.35 1.15-1.352 2.545-1.35 2.21-1.353-5.813-1.352 2.44-1.353 1.185-1.352-2.05-1.352-1.12-1.354 6.675-1.354-4.174-1.354 3.559-1.356-2.86-1.354-3.853-1.356 5.438-1.358-3.406-1.358-1.984-1.357 4.631-1.358-.836-1.36-3.805-1.359.192-1.358 2.104-1.356.736-1.355 3.342-1.356.128-1.356-1.902-1.356.06-1.356.058-1.352-.852-1.356 1.54-1.354-2.675-1.354 2.667-1.354.766-1.354-4.666-1.354-.074-1.356 1.145-1.354 5.046-1.356-1.487-1.356-5.436-1.356 4.994-1.356-1.004-1.358 1.387-1.357-5.438-1.358 4.308-1.36-3.547-1.36 1.828-1.36-1.744-1.358 4.354-1.358-5.636-1.357 5.844-1.358-2.668-1.358-3.279-1.355-.066-1.356 3.062-1.358 3.073-1.356-5.736-1.356 3.29-1.357-2.245-1.356 4.09-1.358.672-1.36-4.248-1.357 5.093-1.361-5.63-1.36 3.057-1.36 1.64-1.36-.015-1.358.82-1.36-1.798-1.357-1.674-1.358.13-1.358.488-1.36 1.038-1.35-4.494-1.356 6.465-1.355-1.52-1.36-.577-1.361.773-1.36-1.767-1.36 1.375-1.355-2.071-1.356 2.63-1.354.999-1.354-5.969-1.354 6-1.352-6.768-1.355 5.354-1.352-3.588-1.354 4.415-1.354-1.131-1.354-4.501-1.358 5.285-1.357-5.978-1.362.614-1.36 5.233-1.364-1.506-1.361-2.469-1.36.619-1.36 2.201-1.357.85-1.356 1.776-1.36-.062-1.359-.404-1.361-6.897-1.361 6.492-1.367-4.25L76.278 108l-1.363-2.866-1.362 3.85-1.359-3.068-1.363-2.177-1.363 2.285-1.367.407-1.363 2.713-1.363 1.951-1.363-3.943-1.367-1.074-1.352-2.26-1.358 2.747-1.363-2.87-1.366 5.178-1.363 1.48-1.362-3.849-1.363 4.368-1.37.403-1.365.068-1.367-7.421-1.37.59-1.37 6.743-1.367-7.346-1.365 7.526-1.372-5.328-1.374-.128-1.379 3.742-2.83-.676-.578-2.832 1.926-1.347 1.682-1.336-1.933-1.34-2.41-1.345 3.38-1.349-1.85-1.345-.437-1.343 4.724-1.345-6.71-1.35 3.146-1.35-.167-1.348-1.455-1.352.076-1.35.937-1.35.3-1.346 2.669-1.356-1.91-1.356-1.473-1.36.68-2.208 2.206-1.445 1.352 3.594 1.351-2.785 1.352.498 1.35 1.658 1.353.115 1.35-2.81 1.351-1.112 1.352.734 1.35 1.05 1.351 5.137 1.35-6.995 1.353 6.772 1.352-2.026 1.353-.844 1.352-.012 1.352-1.922 1.352 1.494 1.354-.41 1.355-1.065 1.354 3.034 1.354.86 1.356-1.856 1.355 2.208 1.358.46 1.356-5.252 1.36 2.62 1.359-3.575 1.358 4.087 1.357-2.89 1.358 4.018 1.358-1.166 1.356-1.992 1.357-.388 1.354-.932 1.356.865 1.354 3.767 1.356-3.443 1.354-.79 1.354-2.1 1.354.423 1.354-.61 1.355 3.71 1.354 1.415 1.355 1.462 1.355-.896 1.354.027 1.355-.54 1.356 2.155 1.358-2.13 1.358.175 1.356-5.37 1.36.294 1.359 6.017 1.36-2.476 1.358.11 1.36-1.955 1.36 1.456 1.355.34 1.358-1.348 1.358 1.426 1.356-3.775 1.355 3.285 1.356 1.347 1.358 2.88 1.356-2.538 1.358-1.234 1.355 1.396 1.358 2.222 1.358-.201 1.36-1.942 1.36-1.471 1.36-2.88 1.361 6.174 1.36-6.748 1.357 5.811 1.36-1.672 1.358-3.438 1.357.834 1.358 4.776 1.358.846 1.352-3.023 1.356 1.433 1.356 1.368 1.357-2.63 1.362-2.678 1.36 1.958 1.359 1.108 1.357-3.838 1.356 2.574 1.356 3.632 1.354-6.213 1.352 5.5 1.353-3.13 1.352 1.131 1.354-.836 1.354 1.153 1.354-3.726 1.354 6.087 1.358-.18 1.358-5.513 1.359.832 1.363 2.664 1.363-.887 1.361.06 1.36-1.565 1.358-.674 1.357-.687 1.36 4.78 1.357-5.796 1.358 6.87 1.361-1.984 1.363 1.68 1.365.371 1.363-1.915 1.363-.106 1.36-3.918 1.361-.723 1.363 5.326 1.363-5.69 1.367.648 1.363.872 1.363-.3 1.363 4.567 1.365-2.992 1.354-2.428 1.358 3.329 1.363-3.794 1.368 4.734 1.362.027 1.36.707 1.364-1.271 1.368 2.289 1.367-4.49 1.367-.378 1.37 2.848 1.368-3.862 1.369 4.677 1.365 1.849 1.372-4.57 1.376-1.87 1.377.75 2.136 1.397-4.614 2.122 2.37 1.347 1.075 1.336-1.37 1.34.897 1.345.768 1.349-2.391 1.345 5.29 1.343-4.762 1.345 5.003 1.35-3.976 1.35-.018 1.348 3.563 1.352-4.25 1.35-1.7 1.35 6.683 1.346-1.25 1.356-3.19 1.356-1.77 2.602z" mask="url(#h)"/>
                <path fill="#000" d="M69.194 100.388h-7.736c.01-.94.237-1.76.68-2.46.442-.702 1.046-1.311 1.812-1.83.367-.269.75-.531 1.15-.783.398-.254.765-.527 1.1-.818.334-.292.61-.606.825-.948.216-.34.33-.73.34-1.173 0-.205-.023-.422-.072-.654a1.757 1.757 0 0 0-.284-.65c-.14-.199-.335-.364-.583-.5-.248-.136-.572-.202-.97-.202-.368 0-.672.073-.914.217a1.633 1.633 0 0 0-.583.599 2.993 2.993 0 0 0-.324.9c-.07.344-.111.717-.122 1.116h-1.845c0-.626.085-1.207.252-1.74.167-.535.417-.995.752-1.384a3.557 3.557 0 0 1 1.222-.915c.479-.22 1.038-.33 1.675-.33.69 0 1.267.112 1.731.339.464.227.84.512 1.126.858.284.345.487.72.606 1.125.119.403.178.79.178 1.157 0 .453-.07.863-.21 1.23-.14.367-.33.703-.567 1.01a5.731 5.731 0 0 1-.81.85c-.301.26-.614.503-.938.73-.323.226-.647.442-.97.647-.324.205-.623.41-.9.615a5.37 5.37 0 0 0-.72.638 1.818 1.818 0 0 0-.42.705h5.519v1.65zM74.971 90.288c-.496 0-.917.15-1.262.446-.345.297-.518.725-.518 1.286 0 .54.167.953.502 1.239.334.286.76.428 1.278.428s.944-.142 1.279-.428c.334-.286.501-.7.501-1.239 0-.561-.172-.989-.517-1.286-.346-.296-.766-.446-1.263-.446m0 8.87c.615 0 1.128-.184 1.538-.551.41-.367.615-.885.615-1.554 0-.625-.205-1.113-.615-1.463-.41-.351-.923-.527-1.538-.527s-1.127.176-1.537.527c-.41.35-.615.838-.615 1.463 0 .67.205 1.187.615 1.554.41.367.922.55 1.537.55m0 1.457c-.572 0-1.102-.081-1.593-.243a3.668 3.668 0 0 1-1.271-.703 3.238 3.238 0 0 1-.835-1.126 3.61 3.61 0 0 1-.298-1.489c0-.712.185-1.31.557-1.796.372-.486.878-.81 1.514-.971v-.033c-.518-.194-.915-.492-1.188-.897-.275-.406-.414-.883-.414-1.433 0-.971.306-1.728.914-2.273.61-.545 1.481-.818 2.614-.818 1.133 0 2.003.273 2.615.818.608.545.913 1.302.913 2.273 0 .55-.136 1.027-.413 1.433-.274.405-.671.703-1.189.897v.033c.637.162 1.142.485 1.514.97.372.486.558 1.085.558 1.797 0 .55-.101 1.047-.299 1.49a3.238 3.238 0 0 1-.834 1.125 3.676 3.676 0 0 1-1.27.703 5.077 5.077 0 0 1-1.595.243M84.488 90.978l-1.807-2.286.53 2.532-2.238.108 1.266 1.352-.955 1.28 2.802-.444-1.155 2.597 1.557-.34.159-2.402.138.023 1.243.068 3.024-.782-.805-1.437-1.194-.985-1.405-.203-1.16.919zm-1.616 5.948l-1.147 3.215 2.65-1.332 2.354 1.176-.22-2.187 1.484-1.181-2.645-1.424.146-.85-.168 1.191-1.08 2.678-2.077-.505-.81-1.95 1.952-2.354-.702-.703-.444-1.075-.063-1.29.606-1.737 1.861 2.061 3.032-3.147 1.252 2.44-.657 2.522 1.617 2.282.563 2.483-4.106.656-.145 1.905-1.83.66-1.143-.435-2.532 1.253-.13-2.127 1.067-.369 1.315-1.856z" mask="url(#h)"/>
                <path fill="#000" d="M91.692 96.243l4.391.743-2.41-5.719 2.409.729-4.39 4.247zm6.601 1.54l-2.686-.705 2.267 4.037-3.98-.002-.067-1.279-3.514-2.559.203-1.199 2.838-8.62 1.88 1.972 3.49 6.416-1.164 1.054.733.884zM109.169 101.633l-.33-4.97 1.6 1.51-1.42-1.15 3.626-.309-3.153-.43 1.71-1.607-.13-2.055-1.903-.788-1.196 2.111 1.366 2.53-2.096-.656-1.381.895 2.97.407-.075.372-1.221 2.861 1.633 1.279zm2.442-12.407l-3.09 3.507.777-2.05.173 1.903-2.904-2.556 2.474 2.356-2.606.04-1.816.802-.451 1.138 3.461.349-.692-3.563 2.49 1.81.952 1.535 3.005-1.661.82 1.904-2.994 2.007 3.715 2.357-4.143-.73-.952-.302-.597 1.122-1.778.491-1.255-.953-3.118-1.354 1.463-2.687-.884-2.406 3.663-.78.618-1.255 1.437-1.889.8 1.964.62.408 2.77-.636.818.998-2.776-1.869zM118.702 99.077c.399 0 .733-.115 1.003-.347.27-.232.484-.547.64-.94a5.71 5.71 0 0 0 .331-1.384c.065-.528.097-1.09.097-1.683s-.032-1.153-.097-1.676a5.8 5.8 0 0 0-.33-1.383c-.157-.399-.371-.715-.64-.946-.27-.232-.605-.348-1.004-.348-.41 0-.748.116-1.011.348-.264.23-.476.547-.633.946a5.8 5.8 0 0 0-.33 1.383 13.678 13.678 0 0 0-.098 1.676c0 .594.032 1.155.097 1.683.065.529.176.99.331 1.385.157.392.369.707.633.939.263.232.6.347 1.01.347m0-10.245c.81 0 1.47.187 1.984.558.513.372.91.847 1.198 1.424.284.579.48 1.212.582 1.902.101.69.153 1.36.153 2.007 0 .648-.052 1.316-.153 2.007a6.389 6.389 0 0 1-.582 1.9 3.84 3.84 0 0 1-1.198 1.425c-.514.372-1.174.56-1.983.56-.81 0-1.47-.188-1.984-.56a3.84 3.84 0 0 1-1.197-1.424 6.284 6.284 0 0 1-.581-1.901 13.67 13.67 0 0 1-.155-2.007c0-.647.052-1.316.155-2.007.1-.69.295-1.323.58-1.902a3.854 3.854 0 0 1 1.198-1.424c.514-.37 1.174-.558 1.984-.558M127.538 93.752c.302.01.604-.01.906-.065.302-.054.572-.149.809-.282.237-.137.43-.322.575-.56.146-.237.218-.528.218-.873 0-.486-.164-.874-.493-1.165-.33-.292-.753-.437-1.271-.437-.324 0-.604.064-.842.194a1.71 1.71 0 0 0-.59.527 2.342 2.342 0 0 0-.348.744 2.787 2.787 0 0 0-.097.849h-1.845c.021-.55.124-1.061.307-1.529.184-.47.435-.877.754-1.222a3.339 3.339 0 0 1 1.156-.81 3.868 3.868 0 0 1 1.537-.29c.443 0 .876.064 1.304.193.426.13.81.319 1.15.567.339.248.61.563.816.946.205.383.307.823.307 1.32 0 .571-.13 1.07-.388 1.496-.26.428-.664.737-1.214.931v.033c.647.129 1.15.45 1.514.963.361.511.541 1.135.541 1.869a3.158 3.158 0 0 1-1.197 2.532 4.048 4.048 0 0 1-1.279.688 4.83 4.83 0 0 1-1.537.243c-.659 0-1.232-.095-1.723-.284a3.274 3.274 0 0 1-1.23-.8c-.33-.345-.581-.76-.754-1.246a5.084 5.084 0 0 1-.275-1.619h1.845c-.021.69.148 1.266.51 1.725.362.457.904.687 1.627.687.615 0 1.13-.177 1.546-.527.415-.35.622-.849.622-1.496 0-.443-.086-.793-.259-1.052a1.69 1.69 0 0 0-.68-.592 2.798 2.798 0 0 0-.945-.25c-.351-.032-.71-.043-1.077-.032v-1.376zM137.993 90.288c-.496 0-.917.15-1.262.446-.345.297-.518.725-.518 1.286 0 .54.167.953.502 1.239.334.286.76.428 1.278.428s.944-.142 1.279-.428c.334-.286.501-.7.501-1.239 0-.561-.172-.989-.517-1.286-.346-.296-.766-.446-1.263-.446m0 8.87c.615 0 1.128-.184 1.538-.551.41-.367.615-.885.615-1.554 0-.625-.205-1.113-.615-1.463-.41-.351-.923-.527-1.538-.527s-1.127.176-1.537.527c-.41.35-.615.838-.615 1.463 0 .67.205 1.187.615 1.554.41.367.922.55 1.537.55m0 1.457c-.572 0-1.102-.081-1.593-.243a3.668 3.668 0 0 1-1.271-.703 3.238 3.238 0 0 1-.835-1.126 3.61 3.61 0 0 1-.298-1.489c0-.712.185-1.31.557-1.796.372-.486.878-.81 1.514-.971v-.033c-.518-.194-.915-.492-1.188-.897-.275-.406-.414-.883-.414-1.433 0-.971.306-1.728.914-2.273.61-.545 1.481-.818 2.614-.818 1.133 0 2.003.273 2.615.818.608.545.913 1.302.913 2.273 0 .55-.136 1.027-.413 1.433-.274.405-.671.703-1.189.897v.033c.637.162 1.142.485 1.514.97.373.486.558 1.085.558 1.797 0 .55-.101 1.047-.299 1.49a3.238 3.238 0 0 1-.834 1.125 3.676 3.676 0 0 1-1.27.703 5.077 5.077 0 0 1-1.595.243M150.276 89.059h5.859v1.65h-4.483l-.583 2.882.033.032c.248-.28.563-.495.946-.64a3.196 3.196 0 0 1 1.141-.218c.562 0 1.063.094 1.506.283.442.188.814.453 1.116.793.302.34.533.742.687 1.206.157.464.236.966.236 1.505 0 .453-.072.92-.218 1.4-.145.48-.38.918-.696 1.31a3.701 3.701 0 0 1-1.222.971c-.497.254-1.09.382-1.78.382-.551 0-1.06-.074-1.531-.22a3.643 3.643 0 0 1-1.237-.654 3.214 3.214 0 0 1-.85-1.078c-.21-.426-.326-.924-.348-1.496h1.845c.054.615.264 1.086.631 1.416.367.329.853.494 1.457.494.388 0 .717-.065.987-.194.27-.13.487-.308.656-.534.166-.227.285-.491.355-.793.07-.302.106-.626.106-.971 0-.313-.043-.614-.13-.898a2.203 2.203 0 0 0-.388-.753 1.851 1.851 0 0 0-.67-.518 2.25 2.25 0 0 0-.965-.194c-.388 0-.751.072-1.091.217-.34.146-.586.42-.737.819h-1.845l1.213-6.199zM166.3 100.388h-7.737c.01-.94.237-1.76.68-2.46.442-.702 1.046-1.311 1.812-1.83.367-.269.75-.531 1.15-.783.399-.254.766-.527 1.1-.818.334-.292.61-.606.825-.948.216-.34.33-.73.34-1.173 0-.205-.023-.422-.072-.654a1.757 1.757 0 0 0-.284-.65c-.14-.199-.334-.364-.582-.5-.249-.136-.572-.202-.971-.202-.367 0-.671.073-.914.217a1.633 1.633 0 0 0-.583.599 2.993 2.993 0 0 0-.323.9c-.07.344-.112.717-.123 1.116h-1.845c0-.626.085-1.207.252-1.74.167-.535.417-.995.752-1.384a3.557 3.557 0 0 1 1.223-.915c.478-.22 1.037-.33 1.674-.33.69 0 1.268.112 1.732.339.463.227.84.512 1.125.858.284.345.488.72.606 1.125.119.403.178.79.178 1.157 0 .453-.07.863-.21 1.23-.14.367-.33.703-.567 1.01a5.731 5.731 0 0 1-.809.85c-.302.26-.615.503-.938.73-.324.226-.648.442-.972.647-.323.205-.622.41-.899.615a5.37 5.37 0 0 0-.719.638 1.818 1.818 0 0 0-.42.705h5.518v1.65z" mask="url(#h)"/>
                <path stroke="#32C832" stroke-width="2" d="M113 86h55v17h-55z" mask="url(#h)"/>
                <path fill="#000" d="M171.267 93.752c.302.01.604-.01.906-.065.302-.054.572-.149.81-.282.237-.137.43-.322.575-.56.146-.237.217-.528.217-.873 0-.486-.163-.874-.492-1.165-.331-.292-.754-.437-1.272-.437-.323 0-.604.064-.841.194a1.71 1.71 0 0 0-.59.527 2.342 2.342 0 0 0-.349.744 2.787 2.787 0 0 0-.097.849h-1.845c.022-.55.124-1.061.307-1.529.184-.47.436-.877.754-1.222a3.339 3.339 0 0 1 1.156-.81 3.868 3.868 0 0 1 1.538-.29c.442 0 .875.064 1.303.193.427.13.81.319 1.15.567.34.248.61.563.816.946.205.383.307.823.307 1.32 0 .571-.129 1.07-.388 1.496-.259.428-.664.737-1.214.931v.033c.648.129 1.151.45 1.514.963.362.511.542 1.135.542 1.869a3.158 3.158 0 0 1-1.198 2.532 4.048 4.048 0 0 1-1.279.688 4.83 4.83 0 0 1-1.537.243c-.658 0-1.232-.095-1.723-.284a3.274 3.274 0 0 1-1.23-.8c-.329-.345-.58-.76-.753-1.246a5.084 5.084 0 0 1-.275-1.619h1.845c-.022.69.147 1.266.51 1.725.362.457.903.687 1.626.687.615 0 1.131-.177 1.546-.527.416-.35.623-.849.623-1.496 0-.443-.087-.793-.26-1.052a1.69 1.69 0 0 0-.68-.592 2.798 2.798 0 0 0-.945-.25 8.88 8.88 0 0 0-1.077-.032v-1.376zM181.594 90.37c-.335 0-.626.061-.874.187a1.68 1.68 0 0 0-.615.509 2.283 2.283 0 0 0-.365.744c-.081.28-.12.572-.12.874 0 .313.039.612.12.898.08.286.203.537.365.753a1.803 1.803 0 0 0 1.489.728c.345 0 .647-.064.906-.194s.471-.304.638-.527a2.4 2.4 0 0 0 .382-.76 3.085 3.085 0 0 0 0-1.772 2.224 2.224 0 0 0-.382-.737c-.167-.21-.38-.38-.638-.509a2.002 2.002 0 0 0-.906-.194zm-1.764 7.153c.043.464.206.838.492 1.126.286.284.673.428 1.158.428.497 0 .892-.131 1.189-.397.297-.265.527-.592.689-.988a5.11 5.11 0 0 0 .332-1.262c.058-.446.105-.86.137-1.237l-.032-.033a2.518 2.518 0 0 1-1.02 1.011 2.96 2.96 0 0 1-1.424.349c-.54 0-1.029-.092-1.466-.275a3.286 3.286 0 0 1-1.124-.77 3.406 3.406 0 0 1-.728-1.197 4.54 4.54 0 0 1-.259-1.578c0-.55.087-1.059.26-1.53.172-.47.425-.877.76-1.23.334-.35.744-.622 1.23-.816.485-.194 1.036-.292 1.65-.292.799 0 1.457.153 1.975.46a3.3 3.3 0 0 1 1.221 1.265c.297.532.505 1.162.624 1.885.119.722.178 1.494.178 2.314 0 .68-.072 1.365-.22 2.055a6.186 6.186 0 0 1-.719 1.885 4.157 4.157 0 0 1-1.32 1.384c-.544.357-1.215.535-2.014.535-.453 0-.879-.076-1.278-.227a3.44 3.44 0 0 1-1.061-.631 3.259 3.259 0 0 1-.752-.971 3.034 3.034 0 0 1-.323-1.263h1.845zM193.828 96.244h3.431V91.26h-.032l-3.399 4.985zm6.636 1.457h-1.457v2.686h-1.748v-2.686h-4.855v-1.83l4.855-6.813h1.748v7.186h1.457v1.457zM203.474 96.244h3.43V91.26h-.031l-3.4 4.985zm6.635 1.457h-1.456v2.686h-1.748v-2.686h-4.855v-1.83l4.855-6.813h1.748v7.186h1.456v1.457z" mask="url(#h)"/>
            </g>
        </g>
    </g>
</svg>
