<?xml version="1.0" encoding="UTF-8"?>
<svg width="350px" height="271px" viewBox="0 0 350 271" version="1.1" xmlns="http://www.w3.org/2000/svg" xmlns:xlink="http://www.w3.org/1999/xlink">
    <!-- Generator: Sketch 53 (72520) - https://sketchapp.com -->
    <title>Illustrations/5ChiffresConsecutifs</title>
    <desc>Created with Sketch.</desc>
    <defs>
        <path d="M6,0 L344,0 C347.313708,-6.08718376e-16 350,2.6862915 350,6 L350,271 L0,271 L0,6 C-4.05812251e-16,2.6862915 2.6862915,6.08718376e-16 6,0 Z" id="path-1"></path>
        <filter x="-40.3%" y="-26.8%" width="180.5%" height="153.8%" filterUnits="objectBoundingBox" id="filter-3">
            <feOffset dx="10" dy="22" in="SourceAlpha" result="shadowOffsetOuter1"></feOffset>
            <feGaussianBlur stdDeviation="17.5" in="shadowOffsetOuter1" result="shadowBlurOuter1"></feGaussianBlur>
            <feColorMatrix values="0 0 0 0 0   0 0 0 0 0   0 0 0 0 0  0 0 0 0.5 0" type="matrix" in="shadowBlurOuter1" result="shadowMatrixOuter1"></feColorMatrix>
            <feMerge>
                <feMergeNode in="shadowMatrixOuter1"></feMergeNode>
                <feMergeNode in="SourceGraphic"></feMergeNode>
            </feMerge>
        </filter>
        <polygon id="path-4" points="0 0.372236842 271.487614 0.372236842 271.487614 408.201754 0 408.201754"></polygon>
        <polygon id="path-6" points="0 408.627763 271.488333 408.627763 271.488333 0.798245614 0 0.798245614"></polygon>
    </defs>
    <g id="Illustrations/5ChiffresConsecutifs" stroke="none" stroke-width="1" fill="none" fill-rule="evenodd">
        <g>
            <mask id="mask-2" fill="white">
                <use xlink:href="#path-1"></use>
            </mask>
            <use id="Component/CardOption/Image" fill="#A885D8" xlink:href="#path-1"></use>
            <g id="Group-2" mask="url(#mask-2)">
                <g transform="translate(39.000000, 50.000000)" id="Group-69">
                    <g filter="url(#filter-3)">
                        <g id="Group-3" transform="translate(0.000000, 0.426009)">
                            <mask id="mask-5" fill="white">
                                <use xlink:href="#path-4"></use>
                            </mask>
                            <g id="Clip-2"></g>
                            <path d="M249.908667,408.201754 L21.5782281,408.201754 C9.70980702,408.201754 -0.000719298246,398.491228 -0.000719298246,386.622807 L-0.000719298246,21.9511842 C-0.000719298246,10.0827632 9.70980702,0.372236842 21.5782281,0.372236842 L249.908667,0.372236842 C261.777088,0.372236842 271.487614,10.0827632 271.487614,21.9511842 L271.487614,386.622807 C271.487614,398.491228 261.777088,408.201754 249.908667,408.201754" id="Fill-1" fill="#FFFFFF" mask="url(#mask-5)"></path>
                        </g>
                        <mask id="mask-7" fill="white">
                            <use xlink:href="#path-6"></use>
                        </mask>
                        <g id="Clip-5"></g>
                        <polygon id="Fill-4" fill="#EFBC92" mask="url(#mask-7)" points="29.9479825 66.5780702 240.342719 66.5780702 240.342719 47.4411404 29.9479825 47.4411404"></polygon>
                        <polygon id="Fill-6" fill="#9A9790" mask="url(#mask-7)" points="29.9479825 114.990439 240.342719 114.990439 240.342719 73.1542544 29.9479825 73.1542544"></polygon>
                        <polygon id="Fill-7" fill="#EFBC92" mask="url(#mask-7)" points="29.9479825 303.973465 240.342719 303.973465 240.342719 121.838158 29.9479825 121.838158"></polygon>
                        <path d="M40.084693,28.0600088 L33.9167105,28.0600088 L33.0967105,32.4603158 L33.1398684,32.5034737 C33.8088158,31.7482105 34.9525,31.4029474 35.9864912,31.4029474 C38.7036404,31.4029474 40.9262719,33.1508421 40.9262719,36.6430351 C40.9262719,39.2307105 39.1370175,41.7338684 35.5782895,41.7338684 C32.9258772,41.7338684 30.7679825,40.1172456 30.7032456,37.3551404 L32.5356579,37.3551404 C32.6435526,38.9304035 33.9167105,40.1172456 35.7491228,40.1172456 C37.4970175,40.1172456 38.9859649,38.9304035 38.9859649,36.4919825 C38.9859649,34.4653596 37.5833333,33.0195702 35.5351316,33.0195702 C34.3698684,33.0195702 33.3988158,33.604 32.6867105,34.4653596 L31.1132456,34.3790439 L32.5356579,26.443386 L40.084693,26.443386 L40.084693,28.0600088 Z" id="Fill-8" fill="#FF7900" mask="url(#mask-7)"></path>
                        <path d="M53.9401754,40.1165263 C57.0673246,40.1165263 57.0889035,36.234114 57.0889035,33.9485439 C57.0889035,31.6845526 57.0673246,27.8003421 53.9401754,27.8003421 C50.8130263,27.8003421 50.7914474,31.6845526 50.7914474,33.9485439 C50.7914474,36.234114 50.8130263,40.1165263 53.9401754,40.1165263 M53.9401754,26.1837193 C58.7289035,26.1837193 59.0310088,30.5840263 59.0310088,33.9701228 C59.0310088,37.3346404 58.7289035,41.7331491 53.9401754,41.7331491 C49.1514474,41.7331491 48.8511404,37.3346404 48.8511404,33.9701228 C48.8511404,30.5840263 49.1514474,26.1837193 53.9401754,26.1837193" id="Fill-9" fill="#FF7900" mask="url(#mask-7)"></path>
                        <path d="M65.9387895,40.1165263 C69.0659386,40.1165263 69.0875175,36.234114 69.0875175,33.9485439 C69.0875175,31.6845526 69.0659386,27.8003421 65.9387895,27.8003421 C62.8116404,27.8003421 62.7900614,31.6845526 62.7900614,33.9485439 C62.7900614,36.234114 62.8116404,40.1165263 65.9387895,40.1165263 M65.9387895,26.1837193 C70.7275175,26.1837193 71.0296228,30.5840263 71.0296228,33.9701228 C71.0296228,37.3346404 70.7275175,41.7331491 65.9387895,41.7331491 C61.1518596,41.7331491 60.8497544,37.3346404 60.8497544,33.9701228 C60.8497544,30.5840263 61.1518596,26.1837193 65.9387895,26.1837193" id="Fill-10" fill="#FF7900" mask="url(#mask-7)"></path>
                        <path d="M77.9365044,40.1165263 C81.0636535,40.1165263 81.0852325,36.234114 81.0852325,33.9485439 C81.0852325,31.6845526 81.0636535,27.8003421 77.9365044,27.8003421 C74.8093553,27.8003421 74.7877763,31.6845526 74.7877763,33.9485439 C74.7877763,36.234114 74.8093553,40.1165263 77.9365044,40.1165263 M77.9365044,26.1837193 C82.7252325,26.1837193 83.0273377,30.5840263 83.0273377,33.9701228 C83.0273377,37.3346404 82.7252325,41.7331491 77.9365044,41.7331491 C73.1495746,41.7331491 72.8474693,37.3346404 72.8474693,33.9701228 C72.8474693,30.5840263 73.1495746,26.1837193 77.9365044,26.1837193" id="Fill-11" fill="#FF7900" mask="url(#mask-7)"></path>
                        <polygon id="Fill-12" fill="#FF7900" mask="url(#mask-7)" points="91.6198947 26.0756447 101.735026 26.0756447 101.735026 27.8001623 93.6680965 27.8001623 93.6680965 32.6967851 100.742395 32.6967851 100.742395 34.4231009 93.6680965 34.4231009 93.6680965 41.4740219 91.6198947 41.4740219"></polygon>
                        <path d="M112.748561,32.5063509 C112.388912,30.6919211 110.934132,29.7748158 109.153868,29.7748158 C106.098649,29.7748158 104.805711,32.2905614 104.805711,34.9681491 C104.805711,37.8992895 106.098649,40.341307 109.171851,40.341307 C111.41786,40.341307 112.712596,38.7606491 112.874439,36.6405175 L114.582772,36.6405175 C114.257289,39.8395965 112.263035,41.7799035 109.027991,41.7799035 C105.037684,41.7799035 103.097377,38.8325789 103.097377,35.0940263 C103.097377,31.3752544 105.217509,28.3362193 109.171851,28.3362193 C111.849439,28.3362193 114.059482,29.7748158 114.455096,32.5063509 L112.748561,32.5063509 Z" id="Fill-13" fill="#FF7900" mask="url(#mask-7)"></path>
                        <polygon id="Fill-14" fill="#FF7900" mask="url(#mask-7)" points="116.709377 28.6421009 125.137754 28.6421009 125.137754 30.0806974 118.415912 30.0806974 118.415912 34.1591184 124.31236 34.1591184 124.31236 35.5977149 118.415912 35.5977149 118.415912 41.4743816 116.709377 41.4743816"></polygon>
                        <path d="M128.252136,36.1731535 L132.602092,36.1731535 L130.46218,30.1885921 L130.426215,30.1885921 L128.252136,36.1731535 Z M129.52889,28.6421009 L131.41525,28.6421009 L136.430557,41.4743816 L134.542399,41.4743816 L133.141566,37.6099518 L127.712662,37.6099518 L126.275864,41.4743816 L124.513583,41.4743816 L129.52889,28.6421009 Z" id="Fill-15" fill="#FF7900" mask="url(#mask-7)"></path>
                        <polygon id="Fill-54" fill="#FFFFFF" mask="url(#mask-7)" points="234.302232 109.598219 230.898154 103.725149 229.547671 108.593 228.19539 110.986465 226.844908 110.261772 225.494425 108.364623 224.143943 108.549842 222.791662 107.656114 221.44118 107.623746 220.090697 109.540675 218.738417 103.842035 217.387934 104.991114 216.035654 107.53743 214.685171 109.747474 213.33289 103.933746 211.98061 106.373965 210.628329 107.559009 209.276048 105.509009 207.923768 104.388702 206.569689 111.063789 205.21561 106.890061 203.861531 110.448789 202.505654 107.589579 201.151575 103.735939 199.795697 109.173833 198.438022 105.767956 197.080346 103.784491 195.722671 108.414974 194.364996 107.578789 193.005522 103.773702 191.646048 103.966114 190.288373 106.070061 188.932496 106.805544 187.576618 110.148482 186.220741 110.276158 184.864864 108.373614 183.508987 108.434754 182.15311 108.492298 180.800829 107.63993 179.444952 109.179228 178.090873 106.505237 176.736794 109.172035 175.382715 109.938088 174.028636 105.27164 172.674557 105.197912 171.31868 106.343395 169.964601 111.389272 168.608724 109.902123 167.252846 104.466026 165.896969 109.459754 164.541092 108.456333 163.183417 109.842781 161.825741 104.404886 160.468066 108.713482 159.108592 105.165544 157.74732 106.99436 156.387846 105.250061 155.030171 109.603614 153.672496 103.967912 152.31482 109.812211 150.957145 107.143614 149.599469 103.865412 148.243592 103.798877 146.887715 106.861289 145.530039 109.934491 144.174162 104.198088 142.818285 107.488877 141.46061 105.242868 140.104732 109.332079 138.747057 110.004623 137.387583 105.757167 136.029908 110.849798 134.668636 105.219491 133.309162 108.276509 131.949689 109.916509 130.588417 109.902123 129.230741 110.722123 127.871268 108.923877 126.513592 107.249711 125.155917 107.379184 123.798241 107.868307 122.438768 108.905895 121.088285 104.412079 119.732408 110.876772 118.376531 109.357254 117.017057 108.780018 115.655785 109.553263 114.296311 107.785588 112.936838 109.161246 111.580961 107.089667 110.225083 109.7205 108.871004 110.718526 107.516925 104.750149 106.162846 110.749096 104.810566 103.982298 103.456487 109.335675 102.104206 105.748175 100.750127 110.162868 99.3960482 109.031772 98.0419693 104.530763 96.6842939 109.815807 95.3266184 103.838439 93.9653465 104.45164 92.6040746 109.684535 91.2410044 108.179404 89.8797325 105.710412 88.5202588 106.329009 87.1607851 108.530061 85.8031096 109.380632 84.4472325 111.1555 83.0877588 111.09436 81.7282851 110.689754 80.3670132 103.793482 79.0057412 110.285149 77.6390746 106.034096 76.2778026 108.001377 74.9147325 105.134974 73.5534605 108.985018 72.1939868 105.917211 70.8309167 103.739535 69.4678465 106.025105 68.1011798 106.431509 66.7381096 109.145061 65.3750395 111.096158 64.0119693 107.152605 62.6453026 106.079053 61.2930219 103.818658 59.9353465 106.566377 58.5722763 103.696377 57.2056096 108.873526 55.8425395 110.353482 54.4812675 106.505237 53.1181974 110.873175 51.7479342 111.275982 50.3830658 111.344316 49.0163991 103.922956 47.646136 104.512781 46.2758728 111.256202 44.9092061 103.910368 43.5443377 111.436026 42.1722763 106.107825 40.7984167 105.980149 39.4191623 109.722298 36.5887237 109.046158 36.0114868 106.213921 37.9374079 104.867035 39.6187675 103.530939 37.6856535 102.191246 35.2760044 100.846158 38.6567061 99.4974737 36.8063114 98.152386 36.3693377 96.8090965 41.0933289 95.4640088 34.3822763 94.1135263 37.5292061 92.7648421 37.3619693 91.4161579 35.9071886 90.0638772 35.9827149 88.7133947 36.9196009 87.3647105 37.2199079 86.0178246 39.8885044 84.6619474 37.9787675 83.3060702 36.5060044 81.9465965 37.1857412 79.7383509 39.3921886 78.2925614 40.7444693 81.8872544 42.0949518 79.1017719 43.4472325 79.599886 44.7977149 81.2578684 46.1499956 81.3729561 47.5004781 78.5622982 48.8509605 77.4509825 50.2032412 78.1846667 51.5537237 79.2348421 52.9042061 84.3724298 54.2546886 77.3772544 55.6069693 84.1494474 56.95925 82.1228246 58.3115307 81.2794474 59.6638114 81.2668596 61.0160921 79.3445351 62.3683728 80.8388772 63.7224518 80.4288772 65.0765307 79.3643158 66.4306096 82.3979561 67.7846886 83.2575175 69.1405658 81.4017281 70.496443 83.6099737 71.8541184 84.0703246 73.2099956 78.8176491 74.5694693 81.437693 75.928943 77.8627807 77.2866184 81.950193 78.6442939 79.0604123 80.0019693 83.077693 81.3596447 81.9124298 82.7155219 79.9199737 84.0731974 79.5315526 85.4272763 78.6000614 86.7831535 79.4650175 88.1372325 83.2323421 89.4931096 79.7887018 90.8471886 78.9992719 92.2012675 76.8989211 93.5553465 77.3215088 94.9094254 76.7119035 96.2635044 80.4216842 97.6175833 81.8369035 98.9734605 83.2988772 100.327539 82.4033509 101.681618 82.4303246 103.037496 81.8890526 104.393373 84.0451491 105.751048 81.9142281 107.108724 82.0904561 108.464601 76.7190965 109.824075 77.0140088 111.183548 83.0309386 112.54482 80.5547544 113.902496 80.6644474 115.261969 78.7097544 116.621443 80.1663333 117.97732 80.5062018 119.334996 79.1575175 120.692671 80.5835263 122.048548 76.8090088 123.404425 80.0944035 124.760303 81.4412895 126.117978 84.3202807 127.473855 81.7829561 128.831531 80.5493596 130.187408 81.9447982 131.545083 84.1674298 132.902759 83.9660263 134.262232 82.0239211 135.623504 80.5529561 136.982978 77.6721667 138.34425 83.8473421 139.703724 77.0985263 141.061399 82.9104561 142.420873 81.2380877 143.778548 77.7998421 145.136224 78.6342281 146.493899 83.4103684 147.851575 84.2555439 149.203855 81.232693 150.559732 82.6658947 151.91561 84.0343596 153.273285 81.4035263 154.634557 78.7259386 155.995829 80.6842281 157.353504 81.7919474 158.71118 77.9544912 160.067057 80.5277807 161.422934 84.1602368 162.777013 77.9472982 164.129294 83.4463333 165.481575 80.317386 166.833855 81.4484825 168.187934 80.6122982 169.542013 81.7649737 170.896092 78.0390088 172.250171 84.1260702 173.607846 83.9462456 174.965522 78.4328246 176.324996 79.2654123 177.688066 81.928614 179.051136 81.0420789 180.412408 81.1014211 181.771882 79.5369474 183.129557 78.8626053 184.487232 78.1756754 185.846706 82.9554123 187.204382 77.1596667 188.562057 84.0307632 189.923329 82.0455 191.286399 83.7250614 192.651268 84.0972982 194.014338 82.1821667 195.377408 82.0760702 196.736882 78.157693 198.098154 77.4347982 199.461224 82.7612018 200.824294 77.0715526 202.190961 77.7189211 203.554031 78.5910702 204.917101 78.2907632 206.280171 82.858307 207.645039 79.8660263 208.999118 77.4383947 210.356794 80.7669474 211.719864 76.9726491 213.088329 81.7074298 214.449601 81.7344035 215.810873 82.441114 217.173943 81.1697544 218.542408 83.4589211 219.909075 78.9687018 221.275741 78.5910702 222.646004 81.4394912 224.014469 77.5768596 225.382934 82.2540965 226.747803 84.102693 228.119864 79.5333509 229.495522 77.6631754 230.872978 78.4130439 233.009294 79.8102807 228.394996 81.9322105 230.765083 83.2790965 231.840434 84.615193 230.470171 85.954886 231.367496 87.2999737 232.135346 88.6486579 229.74368 89.9937456 235.034118 91.3370351 230.272364 92.6821228 235.275083 94.0326053 231.299162 95.3812895 231.28118 96.7299737 234.843504 98.0822544 230.59425 99.4327368 228.894908 100.781421 235.577189 102.128307 234.327408 103.484184 231.13732 104.840061 229.367846 107.442123"></polygon>
                        <path d="M69.1937939,100.387605 L61.4577412,100.387605 C61.4685307,99.4489211 61.6951096,98.6289211 62.1374781,97.9276053 C62.5798465,97.2262895 63.184057,96.6166842 63.9501096,96.0987895 C64.3169518,95.8290526 64.6999781,95.5665088 65.0991886,95.3147544 C65.4983991,95.0612018 65.8652412,94.7878684 66.1997149,94.4965526 C66.5341886,94.2052368 66.8093202,93.8905439 67.0251096,93.5488772 C67.2408991,93.2090088 67.3541886,92.8187895 67.3649781,92.3764211 C67.3649781,92.1714211 67.3416009,91.9538333 67.2930482,91.7218596 C67.2444956,91.489886 67.1491886,91.2740965 67.0089254,91.072693 C66.8686623,90.8730877 66.6744518,90.7076491 66.4262939,90.5727807 C66.178136,90.436114 65.8544518,90.3695789 65.4552412,90.3695789 C65.0883991,90.3695789 64.7844956,90.443307 64.5417325,90.5871667 C64.2989693,90.7328246 64.1029605,90.9342281 63.9591009,91.1859825 C63.813443,91.4395351 63.7055482,91.7398421 63.6354167,92.0851053 C63.5652851,92.4303684 63.5239254,92.8026053 63.513136,93.2018158 L61.668136,93.2018158 C61.668136,92.5760263 61.7526535,91.995193 61.9198904,91.4629123 C62.0871272,90.9270351 62.3370833,90.4666842 62.671557,90.0782632 C63.0060307,89.6898421 63.4142325,89.3841404 63.894364,89.1629561 C64.3726974,88.9435702 64.9319518,88.8320789 65.5685307,88.8320789 C66.259057,88.8320789 66.8362939,88.9453684 67.3002412,89.1719474 C67.7641886,89.3985263 68.1400219,89.6844474 68.425943,90.0297105 C68.7100658,90.3749737 68.9132675,90.750807 69.0319518,91.1554123 C69.150636,91.5582193 69.2099781,91.9448421 69.2099781,92.3116842 C69.2099781,92.7648421 69.1398465,93.1748421 68.9995833,93.5416842 C68.8593202,93.9085263 68.6705044,94.2447982 68.433136,94.5522982 C68.1957675,94.8597982 67.9260307,95.1439211 67.6239254,95.4028684 C67.3218202,95.6618158 67.0089254,95.9045789 66.6852412,96.1311579 C66.361557,96.3577368 66.0378728,96.5735263 65.7141886,96.7785263 C65.3905044,96.9835263 65.0919956,97.1885263 64.8150658,97.3935263 C64.5417325,97.5985263 64.3007675,97.8107193 64.0957675,98.0319035 C63.8907675,98.2530877 63.7505044,98.4886579 63.6749781,98.7368158 L69.1937939,98.7368158 L69.1937939,100.387605 Z" id="Fill-55" fill="#000000" mask="url(#mask-7)"></path>
                        <path d="M74.9711974,90.2882982 C74.4748816,90.2882982 74.0540921,90.4375526 73.7088289,90.7342632 C73.3635658,91.0309737 73.1909342,91.4589561 73.1909342,92.0200088 C73.1909342,92.5594825 73.3581711,92.9730789 73.6926447,93.259 C74.0271184,93.5449211 74.4533026,93.6869825 74.9711974,93.6869825 C75.4890921,93.6869825 75.9152763,93.5449211 76.24975,93.259 C76.5842237,92.9730789 76.7514605,92.5594825 76.7514605,92.0200088 C76.7514605,91.4589561 76.5788289,91.0309737 76.2335658,90.7342632 C75.8883026,90.4375526 75.4675132,90.2882982 74.9711974,90.2882982 M74.9711974,99.1572456 C75.5861974,99.1572456 76.0986974,98.9738246 76.5086974,98.6069825 C76.9186974,98.2401404 77.1236974,97.7222456 77.1236974,97.0532982 C77.1236974,96.4275088 76.9186974,95.9401842 76.5086974,95.5895263 C76.0986974,95.2388684 75.5861974,95.0626404 74.9711974,95.0626404 C74.3561974,95.0626404 73.8436974,95.2388684 73.4336974,95.5895263 C73.0236974,95.9401842 72.8186974,96.4275088 72.8186974,97.0532982 C72.8186974,97.7222456 73.0236974,98.2401404 73.4336974,98.6069825 C73.8436974,98.9738246 74.3561974,99.1572456 74.9711974,99.1572456 M74.9711974,100.613825 C74.3993553,100.613825 73.8688728,100.532904 73.3779518,100.371061 C72.8852325,100.209219 72.4626447,99.9754474 72.1065921,99.6679474 C71.7505395,99.3604474 71.4736096,98.984614 71.2722061,98.5422456 C71.0743991,98.0998772 70.9736974,97.6035614 70.9736974,97.0532982 C70.9736974,96.341193 71.1589167,95.7423772 71.5311535,95.2568509 C71.9033904,94.7713246 72.4086974,94.4476404 73.0452763,94.2857982 L73.0452763,94.2534298 C72.5273816,94.0592193 72.1299693,93.7607105 71.856636,93.3561053 C71.5815044,92.9497018 71.4430395,92.4731667 71.4430395,91.9229035 C71.4430395,90.9518509 71.7487412,90.1947895 72.3565482,89.6499211 C72.9661535,89.1050526 73.8383026,88.8317193 74.9711974,88.8317193 C76.1040921,88.8317193 76.974443,89.1050526 77.5858465,89.6499211 C78.1936535,90.1947895 78.4993553,90.9518509 78.4993553,91.9229035 C78.4993553,92.4731667 78.3626886,92.9497018 78.0857588,93.3561053 C77.8124254,93.7607105 77.4150132,94.0592193 76.8971184,94.2534298 L76.8971184,94.2857982 C77.5336974,94.4476404 78.0390044,94.7713246 78.4112412,95.2568509 C78.7834781,95.7423772 78.9686974,96.341193 78.9686974,97.0532982 C78.9686974,97.6035614 78.8679956,98.0998772 78.6701886,98.5422456 C78.4687851,98.984614 78.1918553,99.3604474 77.8358026,99.6679474 C77.47975,99.9754474 77.0571623,100.209219 76.5662412,100.371061 C76.0735219,100.532904 75.5430395,100.613825 74.9711974,100.613825" id="Fill-56" fill="#000000" mask="url(#mask-7)"></path>
                        <path d="M84.4884123,90.9775658 L82.6811754,88.6919956 L83.2116579,91.2239254 L80.9728421,91.3318202 L82.238807,92.6841009 L81.2839386,93.9644518 L84.0856053,93.5202851 L82.9311316,96.1169518 L84.4884123,95.7770833 L84.6466579,93.3746272 L84.7851228,93.3980044 L86.0277105,93.4663377 L89.0523596,92.6841009 L88.2467456,91.2473026 L87.0527105,90.261864 L85.6482807,90.0586623 L84.4884123,90.9775658 Z M82.8717895,96.9261623 L81.7245088,100.141425 L84.3751228,98.8089254 L86.7290263,99.9849781 L86.5096404,97.7983114 L87.993193,96.616864 L85.3479737,95.1926535 L85.4936316,94.3438816 L85.3263947,95.5343202 L84.2456491,98.2119079 L82.1686754,97.7066009 L81.3594649,95.7573026 L83.3105614,93.4033991 L82.6092456,92.7002851 L82.1650789,91.6249342 L82.1021404,90.3355921 L82.7081491,88.5984868 L84.5693333,90.6592763 L87.6011754,87.5123465 L88.8527544,89.9525658 L88.1963947,92.4737061 L89.8130175,94.7556798 L90.3758684,97.239057 L86.2704737,97.8954167 L86.1248158,99.7997588 L84.2942018,100.459715 L83.1523158,100.024539 L80.620386,101.277917 L80.4909123,99.1505921 L81.5572719,98.7819518 L82.8717895,96.9261623 Z" id="Fill-57" fill="#000000" mask="url(#mask-7)"></path>
                        <path d="M91.6920044,96.2431886 L96.0833202,96.985864 L93.6736711,91.267443 L96.0815219,91.9957325 L91.6920044,96.2431886 Z M98.293364,97.7824868 L95.6067851,97.0775746 L97.8743728,101.114636 L93.893057,101.112838 L93.8265219,99.8342851 L90.31275,97.2753816 L90.5159518,96.0759518 L93.3535833,87.4551623 L95.2345482,89.4278377 L98.724943,95.8439781 L97.5596798,96.89775 L98.293364,97.7824868 Z" id="Fill-58" fill="#000000" mask="url(#mask-7)"></path>
                        <path d="M109.168614,101.632531 L108.839535,96.6621798 L110.438175,98.1727061 L109.01936,97.0236272 L112.644623,96.7143289 L109.492298,96.2845482 L111.20243,94.6769167 L111.071158,92.6215219 L109.168614,91.8338904 L107.972781,93.9450307 L109.339447,96.4751623 L107.242693,95.8188026 L105.86164,96.7143289 L108.832342,97.1207325 L108.756816,97.4929693 L107.535807,100.353978 L109.168614,101.632531 Z M111.610632,89.2264342 L108.521246,92.7330132 L109.298088,90.6830132 L109.470719,92.585557 L106.566553,90.03025 L109.040939,92.3859518 L106.435281,92.4255132 L104.619053,93.2275307 L104.167693,94.3658202 L107.629316,94.7146798 L106.936991,91.1523553 L109.427561,92.9613904 L110.378833,94.4970921 L113.383702,92.8355132 L114.203702,94.7398553 L111.209623,96.7466974 L114.924798,99.1041974 L110.78164,98.3741096 L109.830368,98.0720044 L109.233351,99.1941096 L107.454886,99.6850307 L106.199711,98.7319605 L103.081553,97.3778816 L104.545325,94.6913026 L103.660588,92.28525 L107.323614,91.5048114 L107.942211,90.249636 L109.379009,88.3614781 L110.179228,90.3251623 L110.799623,90.733364 L113.568921,90.0967851 L114.387123,91.0948114 L111.610632,89.2264342 Z" id="Fill-59" fill="#000000" mask="url(#mask-7)"></path>
                        <path d="M118.701654,99.0766842 C119.100864,99.0766842 119.435338,98.9615965 119.705075,98.7296228 C119.974811,98.4976491 120.188803,98.1829561 120.34525,97.7909386 C120.499899,97.3953246 120.61139,96.9349737 120.676127,96.4062895 C120.740864,95.8776053 120.773232,95.3165526 120.773232,94.7231316 C120.773232,94.1297105 120.740864,93.5704561 120.676127,93.0471667 C120.61139,92.5238772 120.499899,92.0635263 120.34525,91.6643158 C120.188803,91.2651053 119.974811,90.948614 119.705075,90.7184386 C119.435338,90.4864649 119.100864,90.3695789 118.701654,90.3695789 C118.291654,90.3695789 117.953583,90.4864649 117.691039,90.7184386 C117.426697,90.948614 117.214504,91.2651053 117.058057,91.6643158 C116.903408,92.0635263 116.791917,92.5238772 116.72718,93.0471667 C116.662443,93.5704561 116.630075,94.1297105 116.630075,94.7231316 C116.630075,95.3165526 116.662443,95.8776053 116.72718,96.4062895 C116.791917,96.9349737 116.903408,97.3953246 117.058057,97.7909386 C117.214504,98.1829561 117.426697,98.4976491 117.691039,98.7296228 C117.953583,98.9615965 118.291654,99.0766842 118.701654,99.0766842 M118.701654,88.8320789 C119.510864,88.8320789 120.17082,89.0190965 120.685118,89.3895351 C121.197618,89.7617719 121.595031,90.2365088 121.88275,90.8137456 C122.166873,91.3927807 122.362882,92.0257632 122.465382,92.7162895 C122.566083,93.4068158 122.618232,94.0757632 122.618232,94.7231316 C122.618232,95.3705 122.566083,96.0394474 122.465382,96.7299737 C122.362882,97.4205 122.166873,98.0552807 121.88275,98.6307193 C121.595031,99.2097544 121.197618,99.682693 120.685118,100.05493 C120.17082,100.427167 119.510864,100.614184 118.701654,100.614184 C117.892443,100.614184 117.232487,100.427167 116.718189,100.05493 C116.205689,99.682693 115.808276,99.2097544 115.520557,98.6307193 C115.234636,98.0552807 115.040425,97.4205 114.939724,96.7299737 C114.837224,96.0394474 114.785075,95.3705 114.785075,94.7231316 C114.785075,94.0757632 114.837224,93.4068158 114.939724,92.7162895 C115.040425,92.0257632 115.234636,91.3927807 115.520557,90.8137456 C115.808276,90.2365088 116.205689,89.7617719 116.718189,89.3895351 C117.232487,89.0190965 117.892443,88.8320789 118.701654,88.8320789" id="Fill-60" fill="#000000" mask="url(#mask-7)"></path>
                        <path d="M127.537513,93.7520789 C127.839618,93.7628684 128.141724,93.7412895 128.443829,93.6873421 C128.745934,93.6333947 129.015671,93.5380877 129.253039,93.4050175 C129.490408,93.2683509 129.68282,93.0831316 129.828478,92.8457632 C129.974136,92.6083947 130.046066,92.3170789 130.046066,91.9718158 C130.046066,91.4862895 129.882425,91.0978684 129.553346,90.8065526 C129.222469,90.5152368 128.799882,90.3695789 128.281987,90.3695789 C127.958303,90.3695789 127.677776,90.4343158 127.440408,90.5637895 C127.203039,90.6932632 127.007031,90.867693 126.850583,91.0906754 C126.694136,91.3118596 126.57725,91.5582193 126.501724,91.8351491 C126.426197,92.1084825 126.393829,92.3926053 126.404618,92.6839211 L124.559618,92.6839211 C124.581197,92.1336579 124.683697,91.6229561 124.867118,91.1554123 C125.050539,90.6842719 125.302294,90.2778684 125.620583,89.9326053 C125.938873,89.5873421 126.323697,89.3176053 126.776855,89.1233947 C127.230013,88.9291842 127.742513,88.8320789 128.314355,88.8320789 C128.756724,88.8320789 129.190101,88.8968158 129.618083,89.0262895 C130.044268,89.1557632 130.427294,89.3445789 130.767162,89.5927368 C131.107031,89.8408947 131.378566,90.1555877 131.583566,90.538614 C131.788566,90.9216404 131.891066,91.3622105 131.891066,91.8585263 C131.891066,92.4303684 131.761592,92.9284825 131.502645,93.3546667 C131.243697,93.7826491 130.839092,94.0919474 130.288829,94.2861579 L130.288829,94.3185263 C130.936197,94.448 131.439706,94.7680877 131.802952,95.282386 C132.164399,95.7930877 132.344224,96.4170789 132.344224,97.1507632 C132.344224,97.6902368 132.236329,98.1721667 132.020539,98.5983509 C131.80475,99.0263333 131.513434,99.3859825 131.146592,99.682693 C130.77975,99.9794035 130.353566,100.209579 129.868039,100.371421 C129.382513,100.533263 128.870013,100.614184 128.330539,100.614184 C127.672382,100.614184 127.098741,100.518877 126.60782,100.330061 C126.115101,100.143044 125.706899,99.8751053 125.37782,99.5298421 C125.048741,99.1845789 124.796987,98.7691842 124.624355,98.2836579 C124.451724,97.7981316 124.360013,97.2586579 124.349224,96.6652368 L126.194224,96.6652368 C126.172645,97.3557632 126.34168,97.9312018 126.704925,98.3897544 C127.066373,98.8465088 127.607645,99.0766842 128.330539,99.0766842 C128.945539,99.0766842 129.461636,98.9004561 129.877031,98.5497982 C130.292425,98.2009386 130.499224,97.7010263 130.499224,97.0536579 C130.499224,96.6112895 130.412908,96.2606316 130.240276,96.0016842 C130.067645,95.7427368 129.841066,95.5467281 129.560539,95.4100614 C129.280013,95.2769912 128.963522,95.1924737 128.614662,95.1601053 C128.264004,95.1277368 127.904355,95.1169474 127.537513,95.1277368 L127.537513,93.7520789 Z" id="Fill-61" fill="#000000" mask="url(#mask-7)"></path>
                        <path d="M137.993232,90.2882982 C137.496917,90.2882982 137.076127,90.4375526 136.730864,90.7342632 C136.385601,91.0309737 136.212969,91.4589561 136.212969,92.0200088 C136.212969,92.5594825 136.380206,92.9730789 136.71468,93.259 C137.049154,93.5449211 137.475338,93.6869825 137.993232,93.6869825 C138.511127,93.6869825 138.937311,93.5449211 139.271785,93.259 C139.606259,92.9730789 139.773496,92.5594825 139.773496,92.0200088 C139.773496,91.4589561 139.600864,91.0309737 139.255601,90.7342632 C138.910338,90.4375526 138.489548,90.2882982 137.993232,90.2882982 M137.993232,99.1572456 C138.608232,99.1572456 139.120732,98.9738246 139.530732,98.6069825 C139.940732,98.2401404 140.145732,97.7222456 140.145732,97.0532982 C140.145732,96.4275088 139.940732,95.9401842 139.530732,95.5895263 C139.120732,95.2388684 138.608232,95.0626404 137.993232,95.0626404 C137.378232,95.0626404 136.865732,95.2388684 136.455732,95.5895263 C136.045732,95.9401842 135.840732,96.4275088 135.840732,97.0532982 C135.840732,97.7222456 136.045732,98.2401404 136.455732,98.6069825 C136.865732,98.9738246 137.378232,99.1572456 137.993232,99.1572456 M137.993232,100.613825 C137.42139,100.613825 136.890908,100.532904 136.399987,100.371061 C135.907268,100.209219 135.48468,99.9754474 135.128627,99.6679474 C134.772575,99.3604474 134.495645,98.984614 134.294241,98.5422456 C134.096434,98.0998772 133.995732,97.6035614 133.995732,97.0532982 C133.995732,96.341193 134.180952,95.7423772 134.553189,95.2568509 C134.925425,94.7713246 135.430732,94.4476404 136.067311,94.2857982 L136.067311,94.2534298 C135.549417,94.0592193 135.152004,93.7607105 134.878671,93.3561053 C134.603539,92.9497018 134.465075,92.4731667 134.465075,91.9229035 C134.465075,90.9518509 134.770776,90.1947895 135.378583,89.6499211 C135.988189,89.1050526 136.860338,88.8317193 137.993232,88.8317193 C139.126127,88.8317193 139.996478,89.1050526 140.607882,89.6499211 C141.215689,90.1947895 141.52139,90.9518509 141.52139,91.9229035 C141.52139,92.4731667 141.384724,92.9497018 141.107794,93.3561053 C140.834461,93.7607105 140.437048,94.0592193 139.919154,94.2534298 L139.919154,94.2857982 C140.555732,94.4476404 141.061039,94.7713246 141.433276,95.2568509 C141.805513,95.7423772 141.990732,96.341193 141.990732,97.0532982 C141.990732,97.6035614 141.890031,98.0998772 141.692224,98.5422456 C141.49082,98.984614 141.21389,99.3604474 140.857838,99.6679474 C140.501785,99.9754474 140.079197,100.209219 139.588276,100.371061 C139.095557,100.532904 138.565075,100.613825 137.993232,100.613825" id="Fill-62" fill="#000000" mask="url(#mask-7)"></path>
                        <path d="M150.276329,89.0590175 L156.135013,89.0590175 L156.135013,90.709807 L151.651987,90.709807 L151.069355,93.5905965 L151.101724,93.6229649 C151.349882,93.3424386 151.664575,93.1284474 152.047601,92.9827895 C152.430627,92.8371316 152.811855,92.7652018 153.189487,92.7652018 C153.750539,92.7652018 154.25225,92.8587105 154.694618,93.0475263 C155.136987,93.2363421 155.509224,93.5006842 155.811329,93.8405526 C156.113434,94.1804211 156.34361,94.5832281 156.498259,95.0471754 C156.654706,95.5111228 156.733829,96.0128333 156.733829,96.552307 C156.733829,97.0054649 156.661899,97.4712105 156.516241,97.9513421 C156.370583,98.4314737 156.136811,98.8702456 155.82032,99.2622632 C155.502031,99.6578772 155.093829,99.9797632 154.597513,100.233316 C154.101197,100.486868 153.507776,100.614544 152.81725,100.614544 C152.266987,100.614544 151.758083,100.540816 151.286943,100.395158 C150.819399,100.2495 150.405803,100.031912 150.04975,99.7405965 C149.693697,99.4492807 149.411373,99.0914298 149.19918,98.6634474 C148.990583,98.2372632 148.873697,97.7391491 148.852118,97.167307 L150.697118,97.167307 C150.751066,97.782307 150.961461,98.2534474 151.328303,98.5825263 C151.695145,98.9116053 152.180671,99.0770439 152.784882,99.0770439 C153.173303,99.0770439 153.502382,99.012307 153.772118,98.8828333 C154.041855,98.7533596 154.259443,98.5753333 154.428478,98.3487544 C154.593917,98.1221754 154.712601,97.8578333 154.782732,97.5557281 C154.852864,97.2536228 154.888829,96.9299386 154.888829,96.5846754 C154.888829,96.2717807 154.845671,95.9714737 154.759355,95.6873509 C154.673039,95.3996316 154.543566,95.1496754 154.370934,94.933886 C154.198303,94.7180965 153.97532,94.5454649 153.700189,94.4159912 C153.423259,94.2865175 153.103171,94.2217807 152.736329,94.2217807 C152.347908,94.2217807 151.984662,94.2937105 151.644794,94.4393684 C151.304925,94.5850263 151.058566,94.8583596 150.907513,95.2575702 L149.062513,95.2575702 L150.276329,89.0590175 Z" id="Fill-63" fill="#000000" mask="url(#mask-7)"></path>
                        <path d="M166.299057,100.387605 L158.563004,100.387605 C158.573794,99.4489211 158.800373,98.6289211 159.242741,97.9276053 C159.68511,97.2262895 160.28932,96.6166842 161.055373,96.0987895 C161.422215,95.8290526 161.805241,95.5665088 162.204452,95.3147544 C162.603662,95.0612018 162.970504,94.7878684 163.304978,94.4965526 C163.639452,94.2052368 163.914583,93.8905439 164.130373,93.5488772 C164.346162,93.2090088 164.459452,92.8187895 164.470241,92.3764211 C164.470241,92.1714211 164.446864,91.9538333 164.398311,91.7218596 C164.349759,91.489886 164.254452,91.2740965 164.114189,91.072693 C163.973925,90.8730877 163.779715,90.7076491 163.531557,90.5727807 C163.283399,90.436114 162.959715,90.3695789 162.560504,90.3695789 C162.193662,90.3695789 161.889759,90.443307 161.646996,90.5871667 C161.404232,90.7328246 161.208224,90.9342281 161.064364,91.1859825 C160.918706,91.4395351 160.810811,91.7398421 160.74068,92.0851053 C160.670548,92.4303684 160.629189,92.8026053 160.618399,93.2018158 L158.773399,93.2018158 C158.773399,92.5760263 158.857917,91.995193 159.025154,91.4629123 C159.19239,90.9270351 159.442346,90.4666842 159.77682,90.0782632 C160.111294,89.6898421 160.519496,89.3841404 160.999627,89.1629561 C161.477961,88.9435702 162.037215,88.8320789 162.673794,88.8320789 C163.36432,88.8320789 163.941557,88.9453684 164.405504,89.1719474 C164.869452,89.3985263 165.245285,89.6844474 165.531206,90.0297105 C165.815329,90.3749737 166.018531,90.750807 166.137215,91.1554123 C166.255899,91.5582193 166.315241,91.9448421 166.315241,92.3116842 C166.315241,92.7648421 166.24511,93.1748421 166.104846,93.5416842 C165.964583,93.9085263 165.775768,94.2447982 165.538399,94.5522982 C165.301031,94.8597982 165.031294,95.1439211 164.729189,95.4028684 C164.427083,95.6618158 164.114189,95.9045789 163.790504,96.1311579 C163.46682,96.3577368 163.143136,96.5735263 162.819452,96.7785263 C162.495768,96.9835263 162.197259,97.1885263 161.920329,97.3935263 C161.646996,97.5985263 161.406031,97.8107193 161.201031,98.0319035 C160.996031,98.2530877 160.855768,98.4886579 160.780241,98.7368158 L166.299057,98.7368158 L166.299057,100.387605 Z" id="Fill-64" fill="#000000" mask="url(#mask-7)"></path>
                        <rect id="Rectangle" stroke="#32C832" stroke-width="2" mask="url(#mask-7)" x="113" y="86" width="55" height="17"></rect>
                        <path d="M171.26689,93.7520789 C171.568996,93.7628684 171.871101,93.7412895 172.173206,93.6873421 C172.475311,93.6333947 172.745048,93.5380877 172.982417,93.4050175 C173.219785,93.2683509 173.412197,93.0831316 173.557855,92.8457632 C173.703513,92.6083947 173.775443,92.3170789 173.775443,91.9718158 C173.775443,91.4862895 173.611803,91.0978684 173.282724,90.8065526 C172.951846,90.5152368 172.529259,90.3695789 172.011364,90.3695789 C171.68768,90.3695789 171.407154,90.4343158 171.169785,90.5637895 C170.932417,90.6932632 170.736408,90.867693 170.579961,91.0906754 C170.423513,91.3118596 170.306627,91.5582193 170.231101,91.8351491 C170.155575,92.1084825 170.123206,92.3926053 170.133996,92.6839211 L168.288996,92.6839211 C168.310575,92.1336579 168.413075,91.6229561 168.596496,91.1554123 C168.779917,90.6842719 169.031671,90.2778684 169.349961,89.9326053 C169.66825,89.5873421 170.053075,89.3176053 170.506232,89.1233947 C170.95939,88.9291842 171.47189,88.8320789 172.043732,88.8320789 C172.486101,88.8320789 172.919478,88.8968158 173.347461,89.0262895 C173.773645,89.1557632 174.156671,89.3445789 174.496539,89.5927368 C174.836408,89.8408947 175.107943,90.1555877 175.312943,90.538614 C175.517943,90.9216404 175.620443,91.3622105 175.620443,91.8585263 C175.620443,92.4303684 175.490969,92.9284825 175.232022,93.3546667 C174.973075,93.7826491 174.568469,94.0919474 174.018206,94.2861579 L174.018206,94.3185263 C174.665575,94.448 175.169083,94.7680877 175.532329,95.282386 C175.893776,95.7930877 176.073601,96.4170789 176.073601,97.1507632 C176.073601,97.6902368 175.965706,98.1721667 175.749917,98.5983509 C175.534127,99.0263333 175.242811,99.3859825 174.875969,99.682693 C174.509127,99.9794035 174.082943,100.209579 173.597417,100.371421 C173.11189,100.533263 172.59939,100.614184 172.059917,100.614184 C171.401759,100.614184 170.828118,100.518877 170.337197,100.330061 C169.844478,100.143044 169.436276,99.8751053 169.107197,99.5298421 C168.778118,99.1845789 168.526364,98.7691842 168.353732,98.2836579 C168.181101,97.7981316 168.08939,97.2586579 168.078601,96.6652368 L169.923601,96.6652368 C169.902022,97.3557632 170.071057,97.9312018 170.434303,98.3897544 C170.79575,98.8465088 171.337022,99.0766842 172.059917,99.0766842 C172.674917,99.0766842 173.191013,98.9004561 173.606408,98.5497982 C174.021803,98.2009386 174.228601,97.7010263 174.228601,97.0536579 C174.228601,96.6112895 174.142285,96.2606316 173.969654,96.0016842 C173.797022,95.7427368 173.570443,95.5467281 173.289917,95.4100614 C173.00939,95.2769912 172.692899,95.1924737 172.344039,95.1601053 C171.993382,95.1277368 171.633732,95.1169474 171.26689,95.1277368 L171.26689,93.7520789 Z" id="Fill-65" fill="#000000" mask="url(#mask-7)"></path>
                        <path d="M181.593675,90.3699386 C181.259202,90.3699386 180.967886,90.4310789 180.719728,90.5569561 C180.469772,90.6792368 180.26657,90.8500702 180.104728,91.0658596 C179.942886,91.2816491 179.820605,91.529807 179.739684,91.8103333 C179.658763,92.0908596 179.619202,92.3821754 179.619202,92.6842807 C179.619202,92.9971754 179.658763,93.2956842 179.739684,93.5816053 C179.820605,93.8675263 179.942886,94.1192807 180.104728,94.3350702 C180.26657,94.5508596 180.469772,94.7252895 180.719728,94.8601579 C180.967886,94.9950263 181.259202,95.0633596 181.593675,95.0633596 C181.938939,95.0633596 182.241044,94.9986228 182.499991,94.8691491 C182.758939,94.7396754 182.971132,94.5652456 183.138368,94.3422632 C183.305605,94.1210789 183.433281,93.8675263 183.519596,93.5816053 C183.605912,93.2956842 183.64907,92.9971754 183.64907,92.6842807 C183.64907,92.3821754 183.605912,92.0908596 183.519596,91.8103333 C183.433281,91.529807 183.305605,91.2834474 183.138368,91.0730526 C182.971132,90.8626579 182.758939,90.6936228 182.499991,90.5641491 C182.241044,90.4346754 181.938939,90.3699386 181.593675,90.3699386 L181.593675,90.3699386 Z M179.829596,97.5233596 C179.872754,97.987307 180.036395,98.3613421 180.322316,98.6490614 C180.608237,98.9331842 180.99486,99.0770439 181.480386,99.0770439 C181.976702,99.0770439 182.372316,98.9457719 182.669026,98.6796316 C182.965737,98.4152895 183.195912,98.0880088 183.357754,97.6923947 C183.519596,97.3003772 183.629289,96.8777895 183.69043,96.4300263 C183.747974,95.9840614 183.794728,95.5704649 183.827096,95.1928333 L183.794728,95.1604649 C183.54657,95.6028333 183.206702,95.9391053 182.775123,96.1710789 C182.343544,96.4030526 181.868807,96.5199386 181.350912,96.5199386 C180.811439,96.5199386 180.322316,96.4282281 179.885342,96.244807 C179.448368,96.061386 179.074333,95.8042368 178.761439,95.4751579 C178.446746,95.1460789 178.205781,94.7468684 178.033149,94.2775263 C177.860518,93.8081842 177.774202,93.2830965 177.774202,92.7004649 C177.774202,92.1502018 177.860518,91.6412982 178.033149,91.1701579 C178.205781,90.7008158 178.459333,90.292614 178.793807,89.9401579 C179.128281,89.5895 179.538281,89.3179649 180.023807,89.1237544 C180.509333,88.9295439 181.059596,88.8324386 181.674596,88.8324386 C182.473018,88.8324386 183.131175,88.9852895 183.64907,89.2927895 C184.166965,89.6002895 184.573368,90.0210789 184.870079,90.5569561 C185.166789,91.0892368 185.375386,91.7186228 185.49407,92.4415175 C185.612754,93.1644123 185.672096,93.9358596 185.672096,94.7558596 C185.672096,95.4355965 185.600167,96.1207281 185.452711,96.8112544 C185.307053,97.5017807 185.067886,98.1293684 184.733412,98.6958158 C184.398939,99.2622632 183.958368,99.7244123 183.4135,100.080465 C182.868632,100.436518 182.197886,100.614544 181.399465,100.614544 C180.946307,100.614544 180.520123,100.539018 180.120912,100.387965 C179.721702,100.236912 179.367447,100.026518 179.059947,99.7567807 C178.752447,99.4870439 178.502491,99.1633596 178.308281,98.7857281 C178.11407,98.4080965 178.006175,97.987307 177.984596,97.5233596 L179.829596,97.5233596 Z" id="Fill-66" fill="#000000" mask="url(#mask-7)"></path>
                        <path d="M193.828399,96.2440877 L197.259452,96.2440877 L197.259452,91.2593509 L197.227083,91.2593509 L193.828399,96.2440877 Z M200.463925,97.7006667 L199.007346,97.7006667 L199.007346,100.387246 L197.259452,100.387246 L197.259452,97.7006667 L192.404189,97.7006667 L192.404189,95.8718509 L197.259452,89.0582982 L199.007346,89.0582982 L199.007346,96.2440877 L200.463925,96.2440877 L200.463925,97.7006667 Z" id="Fill-67" fill="#000000" mask="url(#mask-7)"></path>
                        <path d="M203.473829,96.2440877 L206.904882,96.2440877 L206.904882,91.2593509 L206.872513,91.2593509 L203.473829,96.2440877 Z M210.109355,97.7006667 L208.652776,97.7006667 L208.652776,100.387246 L206.904882,100.387246 L206.904882,97.7006667 L202.049618,97.7006667 L202.049618,95.8718509 L206.904882,89.0582982 L208.652776,89.0582982 L208.652776,96.2440877 L210.109355,96.2440877 L210.109355,97.7006667 Z" id="Fill-68" fill="#000000" mask="url(#mask-7)"></path>
                    </g>
                </g>
            </g>
        </g>
    </g>
</svg>