<svg xmlns="http://www.w3.org/2000/svg" xmlns:xlink="http://www.w3.org/1999/xlink" width="80" height="80" viewBox="0 0 80 80">
    <defs>
        <path id="a" d="M11.173.213A39.737 39.737 0 0 0 .166 13.584v35.683C6.69 62.155 20.057 70.99 35.49 70.99c15.605 0 29.099-9.034 35.54-22.156V14.017A39.728 39.728 0 0 0 59.805.213"/>
        <path id="c" d="M11.173.213A39.737 39.737 0 0 0 .166 13.584v35.683C6.69 62.155 20.057 70.99 35.49 70.99c15.605 0 29.099-9.034 35.54-22.156V14.017A39.728 39.728 0 0 0 59.805.213"/>
        <path id="e" d="M11.173.213A39.737 39.737 0 0 0 .166 13.584v35.683C6.69 62.155 20.057 70.99 35.49 70.99c15.605 0 29.099-9.034 35.54-22.156V14.017A39.728 39.728 0 0 0 59.805.213"/>
        <path id="g" d="M11.173.213A39.737 39.737 0 0 0 .166 13.584v35.683C6.69 62.155 20.057 70.99 35.49 70.99c15.605 0 29.099-9.034 35.54-22.156V14.017A39.728 39.728 0 0 0 59.805.213"/>
        <path id="i" d="M11.173.213A39.737 39.737 0 0 0 .166 13.584v35.683C6.69 62.155 20.057 70.99 35.49 70.99c15.605 0 29.099-9.034 35.54-22.156V14.017A39.728 39.728 0 0 0 59.805.213"/>
        <path id="k" d="M11.173.213A39.737 39.737 0 0 0 .166 13.584v35.683C6.69 62.155 20.057 70.99 35.49 70.99c15.605 0 29.099-9.034 35.54-22.156V14.017A39.728 39.728 0 0 0 59.805.213"/>
        <path id="m" d="M11.173.213A39.737 39.737 0 0 0 .166 13.584v35.683C6.69 62.155 20.057 70.99 35.49 70.99c15.605 0 29.099-9.034 35.54-22.156V14.017A39.728 39.728 0 0 0 59.805.213"/>
        <path id="o" d="M11.173.213A39.737 39.737 0 0 0 .166 13.584v35.683C6.69 62.155 20.057 70.99 35.49 70.99c15.605 0 29.099-9.034 35.54-22.156V14.017A39.728 39.728 0 0 0 59.805.213"/>
        <path id="q" d="M11.173.213A39.737 39.737 0 0 0 .166 13.584v35.683C6.69 62.155 20.057 70.99 35.49 70.99c15.605 0 29.099-9.034 35.54-22.156V14.017A39.728 39.728 0 0 0 59.805.213"/>
        <path id="s" d="M11.173.213A39.737 39.737 0 0 0 .166 13.584v35.683C6.69 62.155 20.057 70.99 35.49 70.99c15.605 0 29.099-9.034 35.54-22.156V14.017A39.728 39.728 0 0 0 59.805.213"/>
        <path id="u" d="M11.173.213A39.737 39.737 0 0 0 .166 13.584v35.683C6.69 62.155 20.057 70.99 35.49 70.99c15.605 0 29.099-9.034 35.54-22.156V14.017A39.728 39.728 0 0 0 59.805.213"/>
        <path id="w" d="M11.173.213A39.737 39.737 0 0 0 .166 13.584v35.683C6.69 62.155 20.057 70.99 35.49 70.99c15.605 0 29.099-9.034 35.54-22.156V14.017A39.728 39.728 0 0 0 59.805.213"/>
        <path id="y" d="M11.173.213A39.737 39.737 0 0 0 .166 13.584v35.683C6.69 62.155 20.057 70.99 35.49 70.99c15.605 0 29.099-9.034 35.54-22.156V14.017A39.728 39.728 0 0 0 59.805.213"/>
        <path id="A" d="M11.173.213A39.737 39.737 0 0 0 .166 13.584v35.683C6.69 62.155 20.057 70.99 35.49 70.99c15.605 0 29.099-9.034 35.54-22.156V14.017A39.728 39.728 0 0 0 59.805.213"/>
        <path id="C" d="M11.173.213A39.737 39.737 0 0 0 .166 13.584v35.683C6.69 62.155 20.057 70.99 35.49 70.99c15.605 0 29.099-9.034 35.54-22.156V14.017A39.728 39.728 0 0 0 59.805.213"/>
        <path id="E" d="M11.173.213A39.737 39.737 0 0 0 .166 13.584v35.683C6.69 62.155 20.057 70.99 35.49 70.99c15.605 0 29.099-9.034 35.54-22.156V14.017A39.728 39.728 0 0 0 59.805.213"/>
        <path id="G" d="M11.173.213A39.737 39.737 0 0 0 .166 13.584v35.683C6.69 62.155 20.057 70.99 35.49 70.99c15.605 0 29.099-9.034 35.54-22.156V14.017A39.728 39.728 0 0 0 59.805.213"/>
        <path id="I" d="M11.173.213A39.737 39.737 0 0 0 .166 13.584v35.683C6.69 62.155 20.057 70.99 35.49 70.99c15.605 0 29.099-9.034 35.54-22.156V14.017A39.728 39.728 0 0 0 59.805.213"/>
        <path id="K" d="M11.173.213A39.737 39.737 0 0 0 .166 13.584v35.683C6.69 62.155 20.057 70.99 35.49 70.99c15.605 0 29.099-9.034 35.54-22.156V14.017A39.728 39.728 0 0 0 59.805.213"/>
        <path id="M" d="M11.173.213A39.737 39.737 0 0 0 .166 13.584v35.683C6.69 62.155 20.057 70.99 35.49 70.99c15.605 0 29.099-9.034 35.54-22.156V14.017A39.728 39.728 0 0 0 59.805.213"/>
        <path id="O" d="M11.173.213A39.737 39.737 0 0 0 .166 13.584v35.683C6.69 62.155 20.057 70.99 35.49 70.99c15.605 0 29.099-9.034 35.54-22.156V14.017A39.728 39.728 0 0 0 59.805.213"/>
        <path id="Q" d="M11.173.213A39.737 39.737 0 0 0 .166 13.584v35.683C6.69 62.155 20.057 70.99 35.49 70.99c15.605 0 29.099-9.034 35.54-22.156V14.017A39.728 39.728 0 0 0 59.805.213"/>
        <path id="S" d="M11.173.213A39.737 39.737 0 0 0 .166 13.584v35.683C6.69 62.155 20.057 70.99 35.49 70.99c15.605 0 29.099-9.034 35.54-22.156V14.017A39.728 39.728 0 0 0 59.805.213"/>
        <path id="U" d="M11.173.213A39.737 39.737 0 0 0 .166 13.584v35.683C6.69 62.155 20.057 70.99 35.49 70.99c15.605 0 29.099-9.034 35.54-22.156V14.017A39.728 39.728 0 0 0 59.805.213"/>
        <path id="W" d="M11.173.213A39.737 39.737 0 0 0 .166 13.584v35.683C6.69 62.155 20.057 70.99 35.49 70.99c15.605 0 29.099-9.034 35.54-22.156V14.017A39.728 39.728 0 0 0 59.805.213"/>
        <path id="Y" d="M11.173.213A39.737 39.737 0 0 0 .166 13.584v35.683C6.69 62.155 20.057 70.99 35.49 70.99c15.605 0 29.099-9.034 35.54-22.156V14.017A39.728 39.728 0 0 0 59.805.213"/>
        <path id="aa" d="M11.173.213A39.737 39.737 0 0 0 .166 13.584v35.683C6.69 62.155 20.057 70.99 35.49 70.99c15.605 0 29.099-9.034 35.54-22.156V14.017A39.728 39.728 0 0 0 59.805.213"/>
        <path id="ac" d="M11.173.213A39.737 39.737 0 0 0 .166 13.584v35.683C6.69 62.155 20.057 70.99 35.49 70.99c15.605 0 29.099-9.034 35.54-22.156V14.017A39.728 39.728 0 0 0 59.805.213"/>
        <path id="ae" d="M11.173.213A39.737 39.737 0 0 0 .166 13.584v35.683C6.69 62.155 20.057 70.99 35.49 70.99c15.605 0 29.099-9.034 35.54-22.156V14.017A39.728 39.728 0 0 0 59.805.213"/>
        <path id="ag" d="M11.173.213A39.737 39.737 0 0 0 .166 13.584v35.683C6.69 62.155 20.057 70.99 35.49 70.99c15.605 0 29.099-9.034 35.54-22.156V14.017A39.728 39.728 0 0 0 59.805.213"/>
        <path id="ai" d="M11.173.213A39.737 39.737 0 0 0 .166 13.584v35.683C6.69 62.155 20.057 70.99 35.49 70.99c15.605 0 29.099-9.034 35.54-22.156V14.017A39.728 39.728 0 0 0 59.805.213"/>
        <path id="ak" d="M11.173.213A39.737 39.737 0 0 0 .166 13.584v35.683C6.69 62.155 20.057 70.99 35.49 70.99c15.605 0 29.099-9.034 35.54-22.156V14.017A39.728 39.728 0 0 0 59.805.213"/>
        <path id="am" d="M11.173.213A39.737 39.737 0 0 0 .166 13.584v35.683C6.69 62.155 20.057 70.99 35.49 70.99c15.605 0 29.099-9.034 35.54-22.156V14.017A39.728 39.728 0 0 0 59.805.213"/>
        <path id="ao" d="M39.607.096C17.757.096.043 17.81.043 39.661s17.713 39.564 39.564 39.564c21.85 0 39.565-17.713 39.565-39.564"/>
        <path id="aq" d="M39.607.096C17.757.096.043 17.81.043 39.661s17.713 39.564 39.564 39.564c21.85 0 39.565-17.713 39.565-39.564"/>
        <path id="as" d="M39.607.096C17.757.096.043 17.81.043 39.661s17.713 39.564 39.564 39.564c21.85 0 39.565-17.713 39.565-39.564"/>
        <path id="au" d="M39.607.096C17.757.096.043 17.81.043 39.661s17.713 39.564 39.564 39.564c21.85 0 39.565-17.713 39.565-39.564"/>
        <path id="aw" d="M39.607.096C17.757.096.043 17.81.043 39.661s17.713 39.564 39.564 39.564c21.85 0 39.565-17.713 39.565-39.564"/>
        <path id="ay" d="M39.607.096C17.757.096.043 17.81.043 39.661s17.713 39.564 39.564 39.564c21.85 0 39.565-17.713 39.565-39.564"/>
        <path id="aA" d="M39.607.096C17.757.096.043 17.81.043 39.661s17.713 39.564 39.564 39.564c21.85 0 39.565-17.713 39.565-39.564"/>
        <path id="aC" d="M39.607.096C17.757.096.043 17.81.043 39.661s17.713 39.564 39.564 39.564c21.85 0 39.565-17.713 39.565-39.564"/>
        <path id="aE" d="M39.607.096C17.757.096.043 17.81.043 39.661s17.713 39.564 39.564 39.564c21.85 0 39.565-17.713 39.565-39.564"/>
        <path id="aG" d="M39.607.096C17.757.096.043 17.81.043 39.661s17.713 39.564 39.564 39.564c21.85 0 39.565-17.713 39.565-39.564"/>
        <path id="aI" d="M39.607.096C17.757.096.043 17.81.043 39.661s17.713 39.564 39.564 39.564c21.85 0 39.565-17.713 39.565-39.564"/>
        <path id="aK" d="M39.607.096C17.757.096.043 17.81.043 39.661s17.713 39.564 39.564 39.564c21.85 0 39.565-17.713 39.565-39.564"/>
        <path id="aM" d="M39.607.096C17.757.096.043 17.81.043 39.661s17.713 39.564 39.564 39.564c21.85 0 39.565-17.713 39.565-39.564"/>
        <path id="aO" d="M39.607.096C17.757.096.043 17.81.043 39.661s17.713 39.564 39.564 39.564c21.85 0 39.565-17.713 39.565-39.564"/>
        <path id="aQ" d="M9.817.413L2.434 2.655A3.202 3.202 0 0 0 .301 6.649l3.927 12.927A3.201 3.201 0 0 0 8.22 21.71l7.383-2.242a3.2 3.2 0 0 0 2.133-3.993L13.811 2.546A3.202 3.202 0 0 0 10.749.274c-.308 0-.622.045-.932.139z"/>
        <path id="aS" d="M39.607.096C17.757.096.043 17.81.043 39.661s17.713 39.564 39.564 39.564c21.85 0 39.565-17.713 39.565-39.564S61.458.096 39.607.096z"/>
    </defs>
    <g fill="none" fill-rule="evenodd">
        <path fill="#D9C2F0" d="M16.356 22.914c-5.696.83-11.087 3.574-15.133 7.673-.39.39-.789.855-.868 1.417-.211 1.567 1.927 2.173 3.5 2.204 2.67.022 5.309.056 7.968.046-.395 3.303-3.783 5.21-6.618 6.882C2.37 42.806-.72 45.634.149 48.797c.599 2.231 2.999 3.559 5.304 3.749 2.306.19 4.565-.526 6.83-1.031 2.255-.536 4.694-.856 6.817.004A48.894 48.894 0 0 0 9.228 67.89c-.481 1.31-.905 2.778-.489 4.118.636 2.04 2.922 3.054 5.022 3.46 4.497.848 9.16.003 13.616-1.015a151.556 151.556 0 0 0 34.082-12.37c3.747-1.896 7.488-4.003 10.39-7.047.565-.596 1.115-1.328 1.04-2.118-.128-1.621-2.374-1.94-4.015-1.768a30.283 30.283 0 0 0 10.42-12.135c.34-.727.652-1.622.253-2.328-.3-.53-.918-.766-1.47-.92-5.25-1.355-10.384 2.68-15.781 2.869-.77.03-1.836-.362-1.645-1.106.085-.35.47-.561.823-.76 5.975-2.992 11.146-7.607 14.824-13.205 1.438-2.192 2.714-4.928 1.781-7.393-.764-2.1-2.996-3.453-5.23-3.74-2.234-.287-4.477.28-6.62 1.025.65-1.727 2.385-2.714 3.7-3.974 1.306-1.29 2.183-3.562.872-4.824-.716-.698-1.785-.806-2.756-.843-13.902-.549-26.883 6.306-39.09 12.95.798-.54 1.257-1.523 1.126-2.47-5.99.513-11.843 2.572-16.815 5.979-.621.439-1.262.92-1.421 1.653-.16.733.519 1.622 1.208 1.37"/>
        <g transform="translate(4.706 4.433)">
            <mask id="b" fill="#fff">
                <use xlink:href="#a"/>
            </mask>
            <path fill="#FFF" d="M38.253 70.614l.884-.47c.42-.224.585-.844.327-1.246a.93.93 0 0 0-1.245-.326l-.885.47c-.42.225-.585.844-.326 1.246a.93.93 0 0 0 1.245.326" mask="url(#b)"/>
        </g>
        <g transform="translate(4.706 4.433)">
            <mask id="d" fill="#fff">
                <use xlink:href="#c"/>
            </mask>
            <path fill="#725048" d="M22.57 40.518c1.413-.42 3.346-.228 4.583-1.044 3.667-2.418 7.215-5.015 10.38-7.941.689 1.21 1.389 2.432 1.974 3.44.788 1.354 1.697 2.649 2.5 3.996.664 1.114.476 2.23 1.438 3.249 1.227 1.299 3.54 1.574 4.586 2.903.697.885.474 1.945.608 3.034.62 5.016 8.458 10.136 2.514 14.635-2.367 1.792-5.296 2.926-8.025 4.039-2.207.9-4.577.99-5.754-1.33-1.004-1.973-1.106-4.113-2.825-5.723-1.546-1.45-3.793-1.836-5.325-3.218-2.185-1.97-3.947-4.788-5.435-7.307-1.323-2.24-2.953-4.756-2.83-7.475.033-.74.95-1.062 1.611-1.258" mask="url(#d)"/>
        </g>
        <g transform="translate(4.706 4.433)">
            <mask id="f" fill="#fff">
                <use xlink:href="#e"/>
            </mask>
            <path fill="#FF7900" d="M34.681 64.655c.346-.608 15.65-10.588 17.587-10.698 1.288-.073 2.562 1.937 3.143 2.632 2.351 2.815 25.094 30.123 25.648 35.764H51.15c-5.609-5.145-13.851-21.315-16.223-25.84-.44-.839-.51-1.39-.245-1.858" mask="url(#f)"/>
        </g>
        <g transform="translate(4.706 4.433)">
            <mask id="h" fill="#fff">
                <use xlink:href="#g"/>
            </mask>
            <path fill="#725048" d="M17.407 35.829c-.381.038-.766.184-1.141.466-.174.13 3.2 6.047 4.69 4.805 1.89-1.58-1.677-5.46-3.55-5.271" mask="url(#h)"/>
        </g>
        <g transform="translate(4.706 4.433)">
            <mask id="j" fill="#fff">
                <use xlink:href="#i"/>
            </mask>
            <path fill="#725048" d="M20.761 31.194c.872.358 1.89 1.03 2.434.724.784-.443-1.405-2.105-1.8-2.484-.646-.619-1.391-1.19-1.996-1.855-.384-.42-.85-1.048-.475-1.625.391-.605 1.076-.071 1.52.198 2.193 1.326 4.208 2.95 6.234 4.512 1.082.835 2.215 1.646 3.318 2.444.762.551 1.514 1.398 2.463 1.165.696-.171 1.515-1.045 2.025-.062.294.567.428 1.284.528 2.008.089.643.15 1.291.272 1.844.202.917.089 1.839-.032 2.757-.134 1.02.458 4.233.458 4.233-.435 1.477-.353 2.817-2.07 2.996-1.456.152-3.147-.285-4.379-1.081-.721-.467-.849-1.04-1.772-.854-.753.152-1.44.742-2.247.605-.66-.113-1.122-1.126-1.48-1.634-.893-1.268-3.503-3.792-2.808-5.469.595-1.438.895-1.482.261-3.124-.537-1.392-2.017-2.722-2.005-4.3.01-1.394.713-1.342 1.551-.998" mask="url(#j)"/>
        </g>
        <g transform="translate(4.706 4.433)">
            <mask id="l" fill="#fff">
                <use xlink:href="#k"/>
            </mask>
            <path fill="#725048" d="M20.649 22.254c.245.305.461.612.634.89.415.666.6 1.94 1.485 2.191.94.264 1.394-1.466 1.547-2.122.36-1.544-1.067-2.627-2.264-3.35-1.32-.799-2.524-.577-3.199.816.631.3 1.278.931 1.797 1.575" mask="url(#l)"/>
        </g>
        <g transform="translate(4.706 4.433)">
            <mask id="n" fill="#fff">
                <use xlink:href="#m"/>
            </mask>
            <path fill="#725048" d="M20.18 31.103l.398.71c-.012.16-.386 2.072-.51 2.022-1.037-.42-2.126-1.73-1.696-2.872.191-.509 1.136-1.762 1.76-1.077.31.34-.142.872.049 1.217" mask="url(#n)"/>
        </g>
        <g transform="translate(4.706 4.433)">
            <mask id="p" fill="#fff">
                <use xlink:href="#o"/>
            </mask>
            <path fill="#000" d="M24.605 15.506c1.147-.68 2.405-.492 3.853-.317 1.48.179 3.43.384 4.912.537 1.433.149 2.956.299 4.385.477 1.273.16 3.433.373 4.432 1.247.89.78 1.211 2.332 1.236 3.492.05 2.348-.525 4.653-.825 6.97-.368 2.854-.633 5.51-.936 8.372-.225 2.13-.558 4.933-.887 7.049-.278 1.791-.314 3.15-.609 4.94-.213 1.291-.081 2.982-1.432 3.822-.845.526-2.106.602-3.056.569-1.507-.053-2.99-.356-4.49-.499-1.747-.166-3.474-.453-5.2-.772-1.516-.281-3.429-.147-4.805-.846-1.562-.793-1.832-2.461-1.667-4.286.626-6.942 1.826-13.871 2.364-20.778.149-1.906.567-3.869.888-5.787.268-1.6.245-3.247 1.837-4.19" mask="url(#p)"/>
        </g>
        <g transform="translate(4.706 4.433)">
            <mask id="r" fill="#fff">
                <use xlink:href="#q"/>
            </mask>
            <path fill="#FFF" d="M26.53 15.952c2.617.38 5.273.515 7.882.939 1.976.32 4.09.057 5.994.771 2.429.91 2.112 5.35 1.84 7.634L41.76 29.4l-1.148 9.67-.637 5.372c-.174 1.467-.218 5.238-1.112 6.515a1.944 1.944 0 0 1-.348.382c-.959.798-2.383.234-3.59.091-3.23-.383-6.482-.565-9.712-.948-1.717-.204-2.913-.33-4.63-.534.001-.008-.496-.293-.495-.301.501-4.225 1.308-10.392 1.81-14.617.577-4.868 1.125-9.725 1.546-14.604.154-1.784 1.25-4.74 3.086-4.474" mask="url(#r)"/>
        </g>
        <g transform="translate(4.706 4.433)">
            <mask id="t" fill="#fff">
                <use xlink:href="#s"/>
            </mask>
            <path fill="#000" d="M30.788 16.515c2.134.252 4.182.086 6.316.34.992.12 1.835.213 2.827.333.868.105 2.698.932 2.44 2.978-.14 1.104-1.744 11.763-1.876 12.869l-.221 1.865-.195 1.643-.893 7.518c-.082.688-.281 4.304-.383 5.175-.053.458.112 2.952-3.25 2.542-1.232-.15-11.554-1.403-12.574-1.518-2.415-.27-2.148-1.972-2.098-2.385.152-1.23 2.681-24.506 2.851-25.878.088-.714.743-3.324.828-4.038.234-1.965 1.341-2.431 2.564-2.286m-4.365 5.25c-.024.295-.048.593-.083.884-.26 2.176-.908 7.907-1.519 13.318-.608 5.379-1.177 10.44-1.29 11.381-.347 2.921-.522 4.257 4.255 4.827 2.315.275 9.111 1.086 11.426 1.363 2.124.253 3.812-.096 4.184-3.35l.933-7.808c.91-7.618 2.162-18.121 2.194-18.52.089-1.099.68-5.045-2.478-5.421-2.386-.285-10.392-1.162-13.377-1.518-3.724-.444-4.075 2.765-4.245 4.843" mask="url(#t)"/>
        </g>
        <g transform="translate(4.706 4.433)">
            <mask id="v" fill="#fff">
                <use xlink:href="#u"/>
            </mask>
            <path fill="#000" d="M29.545 16.113c.922.123 1.374.232 2.065.291.671.058 2.526.297 3.95.479.329.042 3.658.164 2.436 1.057-.351.257-1.112.037-1.508.01-.988-.065-2.33-.257-3.52-.395-1.31-.15-2.03-.237-3.586-.426-1.313-.16-.884-1.156.163-1.016" mask="url(#v)"/>
        </g>
        <g transform="translate(4.706 4.433)">
            <mask id="x" fill="#fff">
                <use xlink:href="#w"/>
            </mask>
            <path fill="#81C8A6" d="M39.255 44.544l-.018.178h-.004a.69.69 0 0 0 .014-.135v-.044l.008.001" mask="url(#x)"/>
        </g>
        <g transform="translate(4.706 4.433)">
            <mask id="z" fill="#fff">
                <use xlink:href="#y"/>
            </mask>
            <path fill="#725048" d="M23.536 25.178a2.492 2.492 0 0 0-.016-1.337c-1.414.131-5.847.876-4.584 3.233 1.055 1.97 4.239-.487 4.6-1.896" mask="url(#z)"/>
        </g>
        <g transform="translate(4.706 4.433)">
            <mask id="B" fill="#fff">
                <use xlink:href="#A"/>
            </mask>
            <path fill="#725048" d="M23.061 30.138a2.492 2.492 0 0 0-.016-1.338c-1.414.132-5.847.877-4.584 3.234 1.055 1.97 4.24-.487 4.6-1.896" mask="url(#B)"/>
        </g>
        <g transform="translate(4.706 4.433)">
            <mask id="D" fill="#fff">
                <use xlink:href="#C"/>
            </mask>
            <path fill="#66413E" d="M21.39 24.775c.516.943 1.555-.251 1.926-.74.147-.194.449.033.301.227-.333.438-.732.864-1.226 1.119-.226.116-.493.171-.74.102-.285-.08-.47-.308-.606-.557-.118-.215.23-.363.345-.151" mask="url(#D)"/>
        </g>
        <g transform="translate(4.706 4.433)">
            <mask id="F" fill="#fff">
                <use xlink:href="#E"/>
            </mask>
            <path fill="#66413E" d="M21.197 30.045c.425.505 1.268-.185 1.586-.514.167-.172.47.053.301.227-.505.523-1.555 1.27-2.183.52-.157-.186.14-.42.296-.233" mask="url(#F)"/>
        </g>
        <g transform="translate(4.706 4.433)">
            <mask id="H" fill="#fff">
                <use xlink:href="#G"/>
            </mask>
            <path fill="#725048" d="M40.328 26.104c.565 1.629 1.78 2.896 2.982 4.106.91.918 2.363 1.74 3.087 2.834.266 2.663 1.531 5.178 3.184 7.307a2.905 2.905 0 0 1 .194 1.207c-.052 2.755-.018 6.953-.18 9.713-2.042 1.065-2.156 1.186-3.923 2.235-.242-.154-.359-1.534-.59-1.705-.71-.523-1.29-1.176-2.051-1.635-.463-.28-1.116-.444-1.477-.87-.917-1.084-.308-3.344-.252-4.634.09-2.097-.248-4.302 0-6.38.197-1.633.025-2.835-.92-4.292-.086-.132-.223-.248-.369-.363-.167-.131-.346-.26-.471-.406-.548-.637-.887-1.535-.995-2.385-.187-1.48.016-4.173 1.78-4.732" mask="url(#H)"/>
        </g>
        <g transform="translate(4.706 4.433)">
            <mask id="J" fill="#fff">
                <use xlink:href="#I"/>
            </mask>
            <path fill="#66413E" d="M39.748 28.41c.123.464.44.835.9.98.435.138.902-.042 1.19-.377.157-.184.459.041.3.227-.383.449-.962.67-1.544.523-.635-.16-1.056-.68-1.22-1.295-.062-.236.313-.29.374-.057" mask="url(#J)"/>
        </g>
        <g transform="translate(4.706 4.433)">
            <mask id="L" fill="#fff">
                <use xlink:href="#K"/>
            </mask>
            <path fill="#404041" d="M36.87 67.443l.223-.225c.336-.338.363-.954 0-1.287-.363-.333-.929-.36-1.287 0l-.224.225c-.336.338-.362.953 0 1.287.363.332.929.36 1.287 0" mask="url(#L)"/>
        </g>
        <g transform="translate(4.706 4.433)">
            <mask id="N" fill="#fff">
                <use xlink:href="#M"/>
            </mask>
            <path fill="#404041" d="M38.482 66.451a2.534 2.534 0 0 0 1.32-.994c.274-.39.083-1.028-.327-1.245-.466-.246-.952-.09-1.245.326a.787.787 0 0 0 .043-.053 1.485 1.485 0 0 1-.154.155c.106-.079.132-.098.076-.058-.053.035-.109.067-.162.1-.087.044-.065.036.068-.022a1.38 1.38 0 0 1-.103.036c-.452.148-.792.636-.636 1.12.146.45.635.794 1.12.635" mask="url(#N)"/>
        </g>
        <g transform="translate(4.706 4.433)">
            <mask id="P" fill="#fff">
                <use xlink:href="#O"/>
            </mask>
            <path fill="#404041" d="M41.716 64.661l.664-.46c.39-.27.607-.81.326-1.245-.25-.388-.826-.616-1.245-.326l-.664.46c-.39.27-.607.81-.326 1.245.25.388.826.616 1.245.326" mask="url(#P)"/>
        </g>
        <g transform="translate(4.706 4.433)">
            <mask id="R" fill="#fff">
                <use xlink:href="#Q"/>
            </mask>
            <path fill="#404041" d="M45.04 62.328c-.064.128-.078.163-.043.102.037-.06.015-.03-.064.087l-.104.082c-.143.051-.169.064-.077.04.462-.114.784-.662.635-1.12a.928.928 0 0 0-1.119-.636c-.484.118-.836.495-.982.96-.143.455.168 1.014.635 1.12a.93.93 0 0 0 1.12-.635" mask="url(#R)"/>
        </g>
        <g transform="translate(4.706 4.433)">
            <mask id="T" fill="#fff">
                <use xlink:href="#S"/>
            </mask>
            <path fill="#404041" d="M47.415 60.974c-.022.03-.128.144-.04.066-.052.046-.144.127-.038.034.066-.059-.163.046-.076.028.067-.014.195-.037-.064-.006.25-.03.458-.081.643-.266.158-.158.277-.417.267-.644-.02-.444-.404-.97-.91-.91-.285.035-.525.08-.779.227-.243.141-.409.331-.574.553-.132.177-.148.498-.092.7.058.212.222.44.418.544.212.112.467.168.702.093.239-.078.394-.218.543-.419" mask="url(#T)"/>
        </g>
        <g transform="translate(4.706 4.433)">
            <mask id="V" fill="#fff">
                <use xlink:href="#U"/>
            </mask>
            <path fill="#404041" d="M50.007 59.623l.902-.436c.43-.208.578-.855.326-1.245-.284-.441-.785-.549-1.245-.326l-.901.435c-.43.208-.579.855-.327 1.245.284.441.786.549 1.245.327" mask="url(#V)"/>
        </g>
        <g transform="translate(4.706 4.433)">
            <mask id="X" fill="#fff">
                <use xlink:href="#W"/>
            </mask>
            <path fill="#404041" d="M52.693 58.162l.671-.338c.426-.214.581-.85.327-1.245-.28-.435-.79-.555-1.245-.326l-.671.338c-.426.214-.582.85-.327 1.245.281.435.79.555 1.245.326" mask="url(#X)"/>
        </g>
        <g transform="translate(4.706 4.433)">
            <mask id="Z" fill="#fff">
                <use xlink:href="#Y"/>
            </mask>
            <path fill="#404041" d="M54.59 57.285c1.17 0 1.173-1.82 0-1.82-1.171 0-1.173 1.82 0 1.82" mask="url(#Z)"/>
        </g>
        <g transform="translate(4.706 4.433)">
            <mask id="ab" fill="#fff">
                <use xlink:href="#aa"/>
            </mask>
            <path fill="#FFF" d="M41.35 68.563l.223-.225c.336-.338.363-.954 0-1.287-.362-.333-.928-.36-1.287 0l-.223.225c-.336.338-.363.954 0 1.287.362.332.928.36 1.287 0" mask="url(#ab)"/>
        </g>
        <g transform="translate(4.706 4.433)">
            <mask id="ad" fill="#fff">
                <use xlink:href="#ac"/>
            </mask>
            <path fill="#FFF" d="M43.62 67.234l.671-.336c.427-.213.581-.85.327-1.245-.282-.436-.789-.554-1.245-.326l-.672.336c-.427.213-.58.85-.326 1.245.28.436.788.554 1.244.326" mask="url(#ad)"/>
        </g>
        <g transform="translate(4.706 4.433)">
            <mask id="af" fill="#fff">
                <use xlink:href="#ae"/>
            </mask>
            <path fill="#FFF" d="M46.754 65.443l.57-.435c.197-.15.35-.295.419-.544.06-.217.033-.508-.092-.7-.24-.374-.84-.636-1.245-.327l-.57.434c-.197.15-.35.296-.418.544-.06.218-.033.508.091.701.24.373.84.636 1.245.327" mask="url(#af)"/>
        </g>
        <g transform="translate(4.706 4.433)">
            <mask id="ah" fill="#fff">
                <use xlink:href="#ag"/>
            </mask>
            <path fill="#FFF" d="M48.764 63.86l.566-.325c.413-.238.592-.834.326-1.245-.268-.416-.803-.58-1.245-.326l-.566.325c-.412.238-.591.834-.326 1.246.269.416.804.58 1.245.326" mask="url(#ah)"/>
        </g>
        <g transform="translate(4.706 4.433)">
            <mask id="aj" fill="#fff">
                <use xlink:href="#ai"/>
            </mask>
            <path fill="#FFF" d="M51.336 62.396l1.263-.73c.413-.237.592-.832.327-1.244-.268-.416-.804-.581-1.245-.327l-1.264.73c-.412.238-.592.833-.326 1.245.268.416.803.581 1.245.326" mask="url(#aj)"/>
        </g>
        <g transform="translate(4.706 4.433)">
            <mask id="al" fill="#fff">
                <use xlink:href="#ak"/>
            </mask>
            <path fill="#FFF" d="M54.03 60.842l.333-.229c.391-.27.606-.81.326-1.245-.25-.39-.825-.615-1.245-.326l-.332.228c-.392.27-.607.811-.327 1.246.251.389.826.614 1.245.326" mask="url(#al)"/>
        </g>
        <g transform="translate(4.706 4.433)">
            <mask id="an" fill="#fff">
                <use xlink:href="#am"/>
            </mask>
            <path fill="#FFF" d="M56.281 59.513l.224-.112c.427-.213.58-.85.327-1.245-.282-.436-.79-.554-1.245-.326l-.224.112c-.427.213-.581.85-.327 1.245.282.436.789.554 1.245.326" mask="url(#an)"/>
        </g>
        <g>
            <g transform="translate(.588 -3.802)">
                <mask id="ap" fill="#fff">
                    <use xlink:href="#ao"/>
                </mask>
                <path fill="#D6D6D6" d="M39.727 51.14a.56.56 0 0 1-.07-.004l-10.333-1.222a.587.587 0 1 1 .138-1.166l10.333 1.222a.587.587 0 0 1-.068 1.17" mask="url(#ap)"/>
            </g>
            <g transform="translate(.588 -3.802)">
                <mask id="ar" fill="#fff">
                    <use xlink:href="#aq"/>
                </mask>
                <path fill="#D6D6D6" d="M39.126 53.95a.562.562 0 0 1-.07-.005l-10.333-1.222a.587.587 0 1 1 .139-1.166l10.333 1.222a.587.587 0 0 1-.069 1.17" mask="url(#ar)"/>
            </g>
            <g transform="translate(.588 -3.802)">
                <mask id="at" fill="#fff">
                    <use xlink:href="#as"/>
                </mask>
                <path fill="#D6D6D6" d="M39.443 57.115a.562.562 0 0 1-.07-.005L29.04 55.888a.586.586 0 1 1 .138-1.166l10.333 1.222a.587.587 0 0 1-.068 1.17" mask="url(#at)"/>
            </g>
            <g transform="translate(.588 -3.802)">
                <mask id="av" fill="#fff">
                    <use xlink:href="#au"/>
                </mask>
                <path fill="#D6D6D6" d="M37.872 47.933l-6.202-.856a1.736 1.736 0 0 1-1.482-1.957l.848-6.152a1.736 1.736 0 0 1 1.958-1.483l6.201.855a1.737 1.737 0 0 1 1.483 1.958l-.849 6.152a1.736 1.736 0 0 1-1.957 1.483" mask="url(#av)"/>
            </g>
            <g transform="translate(.588 -3.802)">
                <mask id="ax" fill="#fff">
                    <use xlink:href="#aw"/>
                </mask>
                <path fill="#FFF" d="M54.045 39.564c1.273-1.012 2.802-1.67 4.002-2.778.394-.365-.13-1.018-.527-.651-1.2 1.108-2.728 1.765-4.002 2.778-.423.336.104.988.527.651" mask="url(#ax)"/>
            </g>
            <g transform="translate(.588 -3.802)">
                <mask id="az" fill="#fff">
                    <use xlink:href="#ay"/>
                </mask>
                <path fill="#FFF" d="M57.774 36.374c0 .002-.008.006-.018.016-.697.643-1.5 1.14-2.276 1.62-.59.365-1.201.742-1.745 1.175-.027.02-.026.03-.025.038a.126.126 0 0 0 .07.085c.01.003.02.008.049-.016.575-.458 1.204-.846 1.81-1.22.784-.485 1.524-.943 2.172-1.541.028-.026.034-.045.025-.077a.13.13 0 0 0-.062-.08m-3.98 3.632a.732.732 0 0 1-.269-.052.818.818 0 0 1-.502-.629.722.722 0 0 1 .28-.684c.575-.459 1.204-.847 1.811-1.222.783-.485 1.523-.941 2.17-1.54.309-.285.742-.266 1.03.046.266.288.327.784-.031 1.116-.697.644-1.5 1.14-2.278 1.621-.59.365-1.2.742-1.744 1.174a.75.75 0 0 1-.467.17" mask="url(#az)"/>
            </g>
            <g transform="translate(.588 -3.802)">
                <mask id="aB" fill="#fff">
                    <use xlink:href="#aA"/>
                </mask>
                <path fill="#FFF" d="M57.438 43.376c.511-.162.315-.977-.202-.813-.624.198-1.22.47-1.86.621-.525.125-.325.939.202.814.64-.152 1.235-.424 1.86-.622" mask="url(#aB)"/>
            </g>
            <g transform="translate(.588 -3.802)">
                <mask id="aD" fill="#fff">
                    <use xlink:href="#aC"/>
                </mask>
                <path fill="#FFF" d="M57.365 42.887c-.001.002-.01.003-.023.007-.231.073-.466.16-.692.243-.383.141-.778.287-1.194.385-.032.008-.035.016-.037.024a.127.127 0 0 0 .026.106c.008.008.016.016.052.008.375-.089.733-.221 1.112-.36.234-.087.477-.177.724-.255.035-.011.05-.026.055-.059a.13.13 0 0 0-.023-.099m-1.895 1.471a.718.718 0 0 1-.53-.229.818.818 0 0 1-.187-.782.721.721 0 0 1 .543-.501c.375-.089.734-.221 1.113-.36.234-.087.476-.176.723-.254.4-.128.785.074.913.478.119.375-.036.85-.502.997-.232.074-.467.16-.694.244-.382.141-.776.286-1.191.385a.801.801 0 0 1-.188.022" mask="url(#aD)"/>
            </g>
            <g transform="translate(.588 -3.802)">
                <mask id="aF" fill="#fff">
                    <use xlink:href="#aE"/>
                </mask>
                <path fill="#FFF" d="M20.173 35.555c-1.087-1.21-2.485-2.112-3.484-3.404-.329-.426.297-.984.628-.555.999 1.292 2.397 2.194 3.484 3.404.362.402-.267.957-.628.555" mask="url(#aF)"/>
            </g>
            <g transform="translate(.588 -3.802)">
                <mask id="aH" fill="#fff">
                    <use xlink:href="#aG"/>
                </mask>
                <path fill="#FFF" d="M17.021 31.788a.155.155 0 0 0-.069.07c-.014.03-.01.05.012.08.54.698 1.193 1.272 1.885 1.88.537.47 1.091.958 1.583 1.505.025.027.036.025.046.023a.126.126 0 0 0 .082-.072c.003-.008.006-.016-.017-.042-.465-.517-1.004-.99-1.526-1.449-.686-.602-1.395-1.225-1.975-1.975-.013-.016-.02-.02-.02-.02m3.444 4.254a.736.736 0 0 1-.551-.255c-.464-.516-1.003-.99-1.524-1.447-.687-.603-1.397-1.226-1.977-1.977-.299-.387-.156-.866.154-1.106.337-.26.766-.207 1.023.126.54.697 1.193 1.27 1.885 1.878.536.472 1.091.96 1.583 1.507a.722.722 0 0 1 .162.721.817.817 0 0 1-.755.553" mask="url(#aH)"/>
            </g>
            <g transform="translate(.588 -3.802)">
                <mask id="aJ" fill="#fff">
                    <use xlink:href="#aI"/>
                </mask>
                <path fill="#FFF" d="M17.09 40.053c-.51-.162-.314-.977.202-.814.625.198 1.221.47 1.86.622.526.124.326.938-.2.813-.64-.151-1.236-.423-1.861-.621" mask="url(#aJ)"/>
            </g>
            <g transform="translate(.588 -3.802)">
                <mask id="aL" fill="#fff">
                    <use xlink:href="#aK"/>
                </mask>
                <path fill="#FFF" d="M17.196 39.722c.247.078.49.167.724.254.38.14.737.271 1.111.36.037.009.045 0 .052-.008a.124.124 0 0 0 .027-.106c-.002-.007-.005-.016-.037-.023-.416-.099-.811-.244-1.194-.386-.226-.083-.46-.17-.692-.243-.02-.006-.028-.005-.028-.005a.154.154 0 0 0-.018.098c.006.033.02.048.055.059m1.863 1.313a.819.819 0 0 1-.188-.023c-.415-.098-.81-.244-1.191-.384-.227-.084-.462-.17-.694-.244-.466-.148-.62-.623-.502-.997.128-.405.512-.606.914-.48.245.079.488.169.722.255.38.14.738.272 1.113.36a.721.721 0 0 1 .543.5c.08.27.007.578-.187.784a.718.718 0 0 1-.53.229" mask="url(#aL)"/>
            </g>
            <g transform="translate(.588 -3.802)">
                <mask id="aN" fill="#fff">
                    <use xlink:href="#aM"/>
                </mask>
                <path fill="#FF7900" d="M37.684 41.013l1.388-6c.045-.278-.117-.538-.341-.545l-6.39-.186c-.224-.006-.4.241-.374.52l1.048 6.08c.027.279-.15.526-.372.52l-1.13-.033c-.312-.009-.491.456-.29.756l3.634 5.458c.136.205.384.214.534.02l4.06-5.233c.223-.287.073-.768-.243-.777l-1.183-.034c-.224-.007-.387-.267-.341-.546" mask="url(#aN)"/>
            </g>
            <g transform="translate(.588 -3.802)">
                <mask id="aP" fill="#fff">
                    <use xlink:href="#aO"/>
                </mask>
                <path fill="#FF7900" d="M32.957 31.82l-7.383 2.242a3.201 3.201 0 0 1-3.993-2.133l-3.927-12.928a3.201 3.201 0 0 1 2.133-3.993l7.383-2.242a3.201 3.201 0 0 1 3.994 2.133l3.926 12.928a3.2 3.2 0 0 1-2.133 3.993" mask="url(#aP)"/>
            </g>
        </g>
        <g transform="translate(17.941 8.55)">
            <mask id="aR" fill="#fff">
                <use xlink:href="#aQ"/>
            </mask>
            <path fill="#000" d="M16.916 10.647c-7.345 2.23-8.342-1.052-15.688 1.179l3.876 12.762 14.691-4.462-2.879-9.48z" mask="url(#aR)"/>
        </g>
        <g transform="translate(.588 -3.802)">
            <mask id="aT" fill="#fff">
                <use xlink:href="#aS"/>
            </mask>
            <path fill="#FF7900" d="M50.624 26.346c.216.491.603.816 1.16.976.388.111.758.14 1.112.086a2.663 2.663 0 0 0 1.74-1.008c.218-.276.373-.583.47-.92.17-.592.126-1.124-.131-1.6-.256-.476-.688-.8-1.295-.974a2.13 2.13 0 0 0-1.016-.044c-.339.068-.648.193-.93.377-.281.184-.53.415-.745.69a2.555 2.555 0 0 0-.456.87 2.22 2.22 0 0 0 .091 1.547zm6.503.973l-.295.6c-.11.224-.182.396-.216.513-.106.372-.017.6.27.681.22.063.479.056.776-.025.296-.078.603-.242.92-.49.318-.246.625-.6.922-1.063.297-.463.548-1.05.75-1.758.262-.912.328-1.765.2-2.56a5.132 5.132 0 0 0-.885-2.172c-.462-.652-1.066-1.223-1.811-1.71a9.389 9.389 0 0 0-2.562-1.146c-1.064-.305-2.076-.407-3.036-.308-.96.1-1.834.378-2.624.838a6.869 6.869 0 0 0-2.047 1.837c-.575.767-1.014 1.673-1.314 2.72-.314 1.097-.415 2.133-.3 3.106a6.47 6.47 0 0 0 .896 2.654 6.961 6.961 0 0 0 1.955 2.068c.82.582 1.77 1.028 2.85 1.337.963.275 1.89.4 2.784.373a7.844 7.844 0 0 0 2.507-.473l2.784.798c-1.273 1.005-2.67 1.623-4.189 1.854-1.518.231-3.299.056-5.341-.53a9.825 9.825 0 0 1-3.456-1.758 9.575 9.575 0 0 1-3.583-6.384 9.538 9.538 0 0 1 .315-3.868c.372-1.3.967-2.45 1.783-3.45a9.86 9.86 0 0 1 2.87-2.41 9.859 9.859 0 0 1 3.564-1.156 9.525 9.525 0 0 1 3.87.314c1.249.357 2.388.876 3.417 1.554 1.029.679 1.88 1.472 2.552 2.376a7.845 7.845 0 0 1 1.375 2.996c.243 1.094.199 2.222-.135 3.387-.304 1.064-.79 1.962-1.457 2.692-.666.733-1.399 1.3-2.199 1.7-.8.4-1.625.65-2.474.743-.85.095-1.611.046-2.286-.148-.389-.11-.69-.303-.904-.574-.216-.271-.297-.592-.246-.96l-.1-.03a3.158 3.158 0 0 1-1.36.486 4.003 4.003 0 0 1-1.644-.14 3.966 3.966 0 0 1-2.424-2.01 4.493 4.493 0 0 1-.465-1.629c-.06-.592.006-1.217.195-1.875.212-.742.54-1.424.983-2.046a6.24 6.24 0 0 1 1.568-1.551 5.234 5.234 0 0 1 1.99-.828c.726-.139 1.476-.098 2.253.125a4.358 4.358 0 0 1 1.655.871c.46.397.826.927 1.093 1.588l.471-.88 2.33.669-2.545 5.052z" mask="url(#aT)"/>
        </g>
    </g>
</svg>
