<svg xmlns="http://www.w3.org/2000/svg" xmlns:xlink="http://www.w3.org/1999/xlink" width="288" height="218" viewBox="0 0 288 218">
    <defs>
        <path id="a" d="M.187.329h71.638v96.884H.187z"/>
        <path id="c" d="M.266.343h83.279v72.113H.265z"/>
    </defs>
    <g fill="none" fill-rule="evenodd">
        <path fill="#B5E8F7" d="M22.591 95.708c5.226-3.987 101.406-72.963 112.535-51.94 11.13 21.024-118.718 76.054-.618 35.245 118.1-40.81 148.398-45.756 129.848-22.26-18.55 23.497-34.626 50.085-13.603 50.085 21.023 0 48.847 22.26 31.535 33.389-17.313 11.13-42.665 21.023-29.062 29.061 13.603 8.039.618 16.077-6.183 19.787-6.802 3.71-142.215 25.97-175.604 22.878-33.39-3.092-83.474.618-51.32-16.695 32.152-17.313 59.977-43.283 37.098-35.863-22.877 7.42-55.648-3.091-32.152-20.404 23.496-17.314-62.451 2.473-2.474-43.283"/>
        <g transform="translate(189)">
            <circle cx="35" cy="35" r="35" fill="#CD3C14"/>
            <g fill="#FFF">
                <path d="M20.187 14l34.648 34.648-6.187 6.187L14 20.187z"/>
                <path d="M48.648 14L14 48.648l6.187 6.187 34.648-34.648z"/>
            </g>
        </g>
        <g>
            <path fill="#FFF" d="M196.56 88.792c3.412-1.293 6.712-2.864 10.125-4.156 1.253-.475 1.786 1.53.547 1.999-3.413 1.292-6.711 2.863-10.125 4.156-1.253.474-1.786-1.532-.547-2"/>
            <path fill="#FFF" d="M207.03 85.427a.439.439 0 0 0-.041.012c-1.69.64-3.389 1.365-5.03 2.066-1.658.707-3.372 1.438-5.095 2.09-.073.028-.126.067-.143.167a.363.363 0 0 0 .041.238.409.409 0 0 0 .041-.013c1.69-.64 3.388-1.365 5.03-2.065 1.658-.708 3.372-1.439 5.095-2.091.073-.028.125-.067.143-.167a.358.358 0 0 0-.041-.237m-10.293 6.295a1.64 1.64 0 0 1-1.049-.374c-.519-.425-.78-1.155-.664-1.86a1.921 1.921 0 0 1 1.231-1.5c1.69-.64 3.387-1.364 5.029-2.065 1.658-.707 3.373-1.438 5.096-2.091.619-.234 1.246-.144 1.724.246.519.425.78 1.155.664 1.86a1.922 1.922 0 0 1-1.232 1.501c-1.689.64-3.386 1.363-5.028 2.064-1.658.707-3.373 1.439-5.096 2.091a1.901 1.901 0 0 1-.675.128M188.877 80.13c2.277-2.31 4.922-4.24 7.585-6.077 1.103-.761 2.166 1.02 1.072 1.775-2.523 1.74-5.013 3.56-7.172 5.746-.938.952-2.425-.491-1.485-1.444"/>
            <path fill="#FFF" d="M197.001 74.726c.005.003-.018.011-.051.035-2.952 2.037-5.35 3.832-7.461 5.973-.06.06-.054.082-.05.101a.31.31 0 0 0 .195.188c.026.006.052.013.116-.052 2.225-2.254 4.822-4.144 7.296-5.85.075-.052.096-.097.085-.178-.016-.118-.097-.204-.13-.217m-7.336 8.02c-.153 0-.309-.02-.464-.06a2.021 2.021 0 0 1-1.419-1.394c-.174-.635.002-1.278.483-1.766 2.335-2.368 5.085-4.37 7.708-6.18.859-.593 1.916-.394 2.515.473.55.798.527 2.032-.465 2.717-2.406 1.659-4.925 3.49-7.049 5.642a1.827 1.827 0 0 1-1.309.568M177.658 72.175a39.068 39.068 0 0 0 4.666-6.754c.641-1.174 2.34.016 1.706 1.178a39.094 39.094 0 0 1-4.666 6.754c-.863 1.003-2.577-.165-1.706-1.178"/>
            <path fill="#FFF" d="M178.29 72.761a.365.365 0 0 0 .21.112c.102.017.16-.02.212-.08a38.34 38.34 0 0 0 4.564-6.605c.038-.07.052-.136 0-.228a.362.362 0 0 0-.18-.156l-.017.03a40.05 40.05 0 0 1-4.768 6.901.355.355 0 0 0-.021.026m.264 1.837c-.499 0-.988-.189-1.356-.505-.774-.665-.854-1.707-.192-2.478a38.305 38.305 0 0 0 4.564-6.605c.488-.894 1.492-1.187 2.387-.698.872.475 1.419 1.615.828 2.699a40.062 40.062 0 0 1-4.769 6.902 1.899 1.899 0 0 1-1.462.685"/>
            <path fill="#714F47" d="M60.786 147.816l-.137-10.559c-.042-3.187-.046-6.517 1.643-9.432 1.65-2.85 5.195-7.027 7.774-9.349 3.309-2.979 5.447-4.39 7.205-8.168.556-1.196 1.495-2.689 2.968-2.54.742.075 1.296.584 1.685 1.116 1.826 2.496 1.251 5.912-.51 8.58-1.76 2.668-4.525 4.756-7.216 6.805-1.307.995-3.615 6.175-3.506 7.542.46 5.78-.874 11.725-3.832 17.08"/>
            <g transform="translate(21 120.25)">
                <mask id="b" fill="#fff">
                    <use xlink:href="#a"/>
                </mask>
                <path fill="#714F47" d="M69.47 1.125c-1.648-3.278-9.143 4.572-14.718 5.352-3.999.56-10.187 10.123-12.8 13.254-2.611 3.13-3.109 8-3.792 11.994-1.59 9.285-1.304 19.168-4.676 28.072-1.616 4.267-42.844 67.241-37.694 68.849 4.45 1.39 23.36 1.32 27.476 3.818 2.5 1.518 3.757 3.185 5.888.485 1.37-1.736 27.027-64.174 28.112-66.089 1.334-2.354 2.444-4.266 4.315-6.268 4.625-4.95 8.438-11.382 9.687-17.984 1.284-6.79.68-10.786-5.366-16.507-3.69-3.492 5.846-20.441 3.568-24.976" mask="url(#b)"/>
            </g>
            <path fill="#62342D" d="M65.558 138l6.697-8.148c.582-.71-.429-1.732-1.017-1.017l-6.697 8.15c-.582.708.43 1.73 1.017 1.015M71.011 139.933c3.304-3.032 6.044-6.276 7.728-10.464 1.528-3.8 6.04-3.84 8.498-6.759.593-.703-.419-1.724-1.016-1.016-2.249 2.67-6.434 2.83-8.242 5.991-.533.932-.815 1.99-1.278 2.957a19.48 19.48 0 0 1-1.72 2.878c-1.428 2-3.181 3.74-4.986 5.396-.683.627.336 1.641 1.016 1.017"/>
            <path fill="#62342D" d="M78.943 142.667a73.301 73.301 0 0 1 2.95-8.816c1.102-2.69 2.22-5.847 4.53-7.742.716-.587-.305-1.598-1.015-1.016-2.305 1.89-3.434 4.88-4.56 7.553a74.527 74.527 0 0 0-3.29 9.639c-.24.894 1.146 1.276 1.385.382"/>
            <path fill="#806059" d="M74.877 114.202s-.691 2.864 1.383.988c2.074-1.877 4.402-6.152 3.979-7.422-.424-1.27-5.362 6.434-5.362 6.434"/>
            <g transform="translate(193.42 145.006)">
                <mask id="d" fill="#fff">
                    <use xlink:href="#c"/>
                </mask>
                <path fill="#714F47" d="M6.78 4.29c.6-3.62 1.206-4.88 4.856-3.237 3.682 1.658 7.855 2.342 11.28 4.557 3.423 2.213 5.343 6.715 7.182 10.326 4.275 8.395 6.109 20.565 11.974 28.066 2.81 3.594 61.706 48.837 57.266 51.901-3.837 2.648-21.915 8.198-25.103 11.805-1.936 2.192-2.642 4.157-5.479 2.212-1.824-1.251-44.863-53.254-46.468-54.76-1.973-1.852-3.6-3.348-5.982-4.704-5.887-3.353-7.4-12.618-10.552-18.552C2.51 25.802-2.233 22.978 1.84 15.72 4.328 11.29 5.95 9.295 6.78 4.29" mask="url(#d)"/>
            </g>
            <path fill="#C2796C" d="M149.629 72.76c-.204.086-.817.344.072-.03a6.58 6.58 0 0 1-.072.03"/>
            <path fill="#6FBBBB" d="M154.66 65.324c.02.007.047.012.065.018l-.121-.13a.552.552 0 0 1 .057.112M154.495 65.096l.109.117a.42.42 0 0 0-.109-.117"/>
            <path fill="#141819" d="M145.788 65.352l-.04-.028.04.028zM145.747 65.324"/>
            <path fill="#595959" d="M193.773 92.548c-5.882-1.902-12.945-1.811-21.048-1.805-8.283.007-19.169-.056-27.445-.108-8-.05-16.498-.123-24.499-.101-7.121.019-19.175-.083-25.258 1.679-5.424 1.572-8.21 5.103-9.106 7.801-1.813 5.46-.148 10.995-.014 16.48.163 6.757-.115 13.022-.32 19.781-.153 5.028-.153 11.656.276 16.682.362 4.255-.33 7.433.123 11.687.328 3.071-1.503 6.978 5.395 9.31 4.315 1.46 11.222 1.987 16.485 2.173 8.346.294 16.727-.003 25.085.08 9.75.097 19.464-.095 29.192-.362 8.544-.235 19.007.608 27.054-.64 9.134-1.418 11.718-5.232 12.005-9.532 1.092-16.362-.99-32.85.566-49.107.429-4.484-.593-9.177-1.109-13.738-.43-3.806.781-7.64-7.382-10.28"/>
            <path fill="#000" d="M180.16 93.22c-16.697.004-61.424-.167-74.77-.164-17.664.003-16.991 9.368-17.22 11.954-.083.94-.055 25.777-.026 43.793.015 10.15.032 18.135.027 18.465-.077 7.69 9.004 8.97 20.885 8.968 12.948-.003 50.967-.01 63.915-.014 26.72-.005 26.631-3.168 26.624-10.076-.003-2.225.17-14.186.343-26.895.174-12.787.349-26.33.343-31.475 0-.689.06-1.39.121-2.087.427-4.893.588-12.473-20.243-12.468"/>
            <path fill="#FFF" d="M194.668 162.41c.022-2.97.041-5.941.062-8.912.034-5.083.068-10.166.1-15.25h-.012c.014-2.03.025-4.06.038-6.09.02-3.314.26-20.568.278-23.882.013-1.723-.017-2.058.01-3.781.075-4.742-6.528-5.238-13.437-5.286-8.234-.059-11.965-.094-20.198-.155-12.052-.09-24.103-.178-36.153-.261-5.6-.04-10.36-.09-15.961-.126-4.902-.031-14.808.152-14.87 4.086-.042 2.666-.351 23.652-.396 26.318-.044 2.823-.095 5.644-.141 8.466h-.003l-.304 18.14c-.025 1.66-.046 3.113-.094 5.213-.04 1.766-1.127 5.795 16.323 5.918 6.965.05 65.269.4 71.026.46 13.625.138 13.725-3.86 13.732-4.858"/>
            <path fill="#9DAAC0" d="M108.888 165.363l-.014.023.014-.023"/>
            <path fill="#233143" d="M92.057 132.353c.027.029.054.06.082.088-.028-.029-.055-.06-.081-.089zM92.47 132.09v-.023l-.006.021.006.002zM136.399 131.562l.002-.023-.008.02.006.003z"/>
            <path fill="#714F47" d="M93.392 140.39c-5.707 4.11-4.648 12.753-12.827 14.777-1.452.36-3.642-.046-5.062-.455-1.707-.491-2.41-2.026-3.473-3.311.434.525-.323 3.817-.408 4.547-.144 1.234-.357 2.378-.87 3.516-.947 2.106-1.653 3.697-1.542 6.106.209 4.53 2.142 9.96 6.268 12.335 6.102 3.511 10.859-.08 13.736-5.624.658-1.267 1.075-2.6 1.388-3.96.68-2.948.914-6.072 1.774-8.962 1.317-4.43 2.506-9.711 4.644-13.776 2.791-5.305-.013-7.796-3.628-5.193M186.16 156.16c6.67 2.23 9.778 12.35 18.188 11.854 1.494-.088 3.143.157 4.378-.655 1.484-.976 1.7-2.65 2.333-4.193-.259.63 1.442 3.55 1.74 4.22.504 1.137 1.047 2.165 1.874 3.1 1.53 1.73 2.677 3.04 3.286 5.373 1.146 4.387 9.084 15.811 5.85 19.304-4.784 5.165-14.88 1.504-19.274-2.936-1.004-1.015-5.483-6.183-6.186-7.389-1.524-2.613-3.41-7.231-4.918-9.843-3.428-5.932-11.3-13.28-13.53-16.082-1.543-1.94 2.034-4.166 6.259-2.753"/>
            <path fill="#806059" d="M181.152 156.89c2.25 1.039 4.494 2.421 5.675 4.6.253.468.457.987.425 1.518-.032.531-.35 1.073-.858 1.231-.527.165-1.083-.106-1.556-.39a17.08 17.08 0 0 1-5.285-5.002c-.296-.435-.572-1.021-.274-1.454.263-.382.81-.397 1.273-.374M97.9 142.696l-.587 1.428c-.326.793-.66 1.6-1.196 2.268-.536.669-1.314 1.195-2.171 1.227-.857.031-1.756-.543-1.908-1.387-.115-.642.192-1.277.504-1.85.749-1.377 1.424-2.597 2.326-3.88.359-.511.89-1.136 1.388-1.512.232-.173.508-.294.797-.285.63.019 1.117.566 1.26.87.258.556-.228 2.64-.413 3.121"/>
            <path fill="#595959" d="M112.329 91.99h13.041c2.228 0 2.232-3.462 0-3.462h-13.041c-2.229 0-2.233 3.462 0 3.462M145.458 173.832c2.228 0 2.232-3.462 0-3.462-2.228 0-2.232 3.462 0 3.462"/>
            <path fill="#FF7900" d="M135.075 59.323c1.201 1.316 2.765 1.926 4.688 1.839 1.34-.063 2.537-.364 3.594-.912a9.213 9.213 0 0 0 2.707-2.097 8.855 8.855 0 0 0 1.7-2.928 8.852 8.852 0 0 0 .5-3.396c-.096-2.042-.8-3.67-2.115-4.897-1.312-1.223-3.017-1.786-5.114-1.69a7.08 7.08 0 0 0-3.242.944 8.657 8.657 0 0 0-2.526 2.177 10.253 10.253 0 0 0-1.615 2.964c-.387 1.1-.556 2.172-.508 3.222.086 1.869.732 3.457 1.93 4.774zm21.505-3.853l-.29 2.205c-.107.822-.153 1.439-.133 1.844.061 1.285.584 1.902 1.576 1.855.758-.037 1.562-.334 2.412-.903.849-.56 1.642-1.402 2.379-2.52.735-1.113 1.326-2.557 1.77-4.329.443-1.774.608-3.887.492-6.332-.145-3.15-.844-5.904-2.094-8.27a17.054 17.054 0 0 0-5.096-5.895c-2.148-1.563-4.654-2.718-7.521-3.461-2.87-.74-5.962-1.036-9.283-.88-3.673.172-6.967.924-9.884 2.257-2.916 1.335-5.37 3.14-7.37 5.428-1.995 2.283-3.491 4.938-4.49 7.961-.996 3.026-1.412 6.343-1.244 9.959.178 3.79.963 7.157 2.357 10.1 1.391 2.943 3.276 5.411 5.647 7.4 2.37 1.993 5.155 3.472 8.352 4.431 3.202.96 6.666 1.351 10.395 1.177 3.324-.157 6.374-.748 9.159-1.783 2.785-1.038 5.25-2.42 7.388-4.157l9.615-.448c-2.941 4.516-6.68 7.949-11.215 10.29-4.536 2.344-10.328 3.683-17.38 4.011-4.49.21-8.738-.409-12.747-1.857-4.012-1.448-7.558-3.56-10.636-6.34-3.081-2.774-5.557-6.091-7.432-9.948-1.872-3.855-2.914-8.024-3.122-12.513-.211-4.487.437-8.739 1.943-12.752s3.664-7.558 6.469-10.643c2.806-3.076 6.137-5.556 9.992-7.428 3.855-1.876 8.027-2.92 12.516-3.128 4.313-.202 8.45.22 12.413 1.259 3.96 1.043 7.483 2.633 10.56 4.765a26.063 26.063 0 0 1 7.512 7.972c1.931 3.184 2.99 6.783 3.179 10.803.172 3.674-.403 7.017-1.724 10.025-1.32 3.014-3.023 5.58-5.116 7.69-2.093 2.112-4.424 3.771-6.995 4.97-2.575 1.201-5.026 1.857-7.357 1.964-1.34.066-2.494-.22-3.456-.846-.967-.624-1.563-1.547-1.794-2.762l-.35.016c-.939 1.212-2.19 2.204-3.76 2.975-1.571.776-3.348 1.213-5.326 1.304-1.808.086-3.558-.2-5.256-.853a13.172 13.172 0 0 1-4.515-2.898c-1.316-1.28-2.382-2.827-3.193-4.628-.817-1.801-1.275-3.837-1.381-6.11-.12-2.564.185-5.06.917-7.488.736-2.433 1.828-4.613 3.287-6.55a17.365 17.365 0 0 1 5.387-4.722c2.136-1.21 4.542-1.877 7.223-2.002 2.216-.102 4.262.229 6.136.983 1.875.76 3.587 2.04 5.129 3.835l.55-3.268 8.044-.376-2.639 18.61z"/>
            <path fill="#50BE87" d="M104.437 104.34a2.865 2.865 0 1 1-5.73 0 2.865 2.865 0 0 1 5.73 0"/>
            <path fill="#FFB400" d="M112.46 104.34a2.865 2.865 0 1 1-5.73 0 2.865 2.865 0 0 1 5.73 0"/>
            <path fill="#FF7900" d="M120.483 104.34a2.865 2.865 0 1 1-5.73 0 2.865 2.865 0 0 1 5.73 0"/>
            <path fill="#D6D6D6" d="M118.649 141.475h49.856v-24.757H118.65zM119.336 151.06a1.29 1.29 0 0 1-.008-2.578l48.48-.343h.01a1.29 1.29 0 0 1 .009 2.577l-48.481.344h-.01M119.336 158.58a1.289 1.289 0 0 1-.036-2.577l48.481-1.375a1.29 1.29 0 0 1 .073 2.576l-48.48 1.376h-.038"/>
            <path fill="#FFF" d="M99.104 77.314c-1.19-4.123-3.403-7.814-5.742-11.377-.733-1.118.973-2.295 1.706-1.177 2.43 3.701 4.752 7.571 5.988 11.854.369 1.28-1.582 1.984-1.952.7"/>
            <path fill="#FFF" d="M94.281 65.169h-.004a.31.31 0 0 0-.221.155c-.015.03-.03.059.025.142 2.676 4.076 4.694 7.61 5.849 11.61a.21.21 0 0 0 .028.065.376.376 0 0 0 .226-.095c.06-.056.072-.105.046-.194-1.139-3.943-3.174-7.497-5.88-11.62-.038-.058-.057-.063-.069-.063m5.691 13.685c-.148 0-.295-.018-.439-.053-.612-.152-1.07-.607-1.255-1.249-1.095-3.792-3.044-7.197-5.635-11.143-.38-.58-.425-1.257-.123-1.858a2.02 2.02 0 0 1 1.659-1.098c.652-.035 1.235.267 1.608.836 2.416 3.68 4.826 7.692 6.095 12.086a1.862 1.862 0 0 1-.45 1.853c-.385.4-.926.626-1.46.626M87.854 84.93c-1.985-3.5-4.885-6.424-6.612-10.076-.568-1.203 1.24-2.218 1.812-1.007 1.727 3.652 4.627 6.574 6.61 10.076.661 1.164-1.151 2.172-1.81 1.008"/>
            <path fill="#FFF" d="M82.238 74.154a.384.384 0 0 0-.205.132c-.05.066-.053.117-.014.201.933 1.972 2.208 3.707 3.558 5.543 1.046 1.423 2.127 2.894 3.024 4.476v.001c.047.082.074.072.101.08a.31.31 0 0 0 .236-.13c.01-.017.021-.036-.02-.11-.848-1.496-1.9-2.927-2.917-4.31-1.338-1.82-2.721-3.702-3.724-5.823-.022-.046-.039-.06-.039-.06m6.464 12.153h-.015c-.665-.006-1.242-.353-1.581-.953-.847-1.494-1.898-2.924-2.915-4.306-1.338-1.821-2.722-3.704-3.726-5.826-.517-1.094.083-2.177.96-2.591.95-.449 1.96-.091 2.405.848.933 1.972 2.207 3.704 3.556 5.539 1.047 1.424 2.129 2.896 3.027 4.481.337.596.34 1.263.007 1.83a2.023 2.023 0 0 1-1.718.978M73.813 94.119c-1.023-.846.182-2.534 1.216-1.681 1.25 1.032 2.366 2.208 3.693 3.148 1.09.771-.122 2.454-1.214 1.68-1.328-.94-2.444-2.116-3.695-3.147"/>
            <path fill="#FFF" d="M74.361 93.456c.494.408.969.838 1.428 1.254.74.67 1.439 1.304 2.215 1.854.076.054.102.042.126.031a.31.31 0 0 0 .16-.22c.001-.019.004-.04-.064-.088-.864-.61-1.636-1.311-2.383-1.99-.443-.4-.9-.815-1.362-1.196a.201.201 0 0 0-.06-.039.383.383 0 0 0-.13.208c-.018.08 0 .128.07.186m3.733 4.87c-.375 0-.748-.121-1.083-.359-.861-.609-1.632-1.308-2.377-1.983-.445-.403-.904-.82-1.368-1.202-.931-.77-.848-2.004-.23-2.752.67-.81 1.737-.917 2.54-.255.493.407.965.835 1.422 1.25.742.673 1.443 1.308 2.22 1.86.559.394.844.996.783 1.65a2.023 2.023 0 0 1-1.153 1.622c-.244.113-.5.169-.754.169"/>
        </g>
    </g>
</svg>
