<svg xmlns="http://www.w3.org/2000/svg" xmlns:xlink="http://www.w3.org/1999/xlink" width="288" height="218" viewBox="0 0 288 218">
    <defs>
        <path id="a" d="M.163.173H106.55v49.898H.163z"/>
        <path id="c" d="M28.303.73L6.785 7.266A9.33 9.33 0 0 0 .569 18.904l11.443 37.678a9.33 9.33 0 0 0 11.638 6.216l21.518-6.535a9.33 9.33 0 0 0 6.216-11.638L39.94 6.946a9.333 9.333 0 0 0-8.924-6.62c-.898 0-1.81.13-2.714.405z"/>
    </defs>
    <g fill="none" fill-rule="evenodd">
        <path fill="#B5E8F7" d="M22.591 95.708c5.226-3.987 101.406-72.963 112.535-51.94 11.13 21.024-118.718 76.054-.618 35.245 118.1-40.81 148.398-45.756 129.848-22.26-18.55 23.497-34.626 50.085-13.603 50.085 21.023 0 48.847 22.26 31.535 33.389-17.313 11.13-42.665 21.023-29.062 29.061 13.603 8.039.618 16.077-6.183 19.787-6.802 3.71-142.215 25.97-175.604 22.878-33.39-3.092-83.474.618-51.32-16.695 32.152-17.313 59.977-43.283 37.098-35.863-22.877 7.42-55.648-3.091-32.152-20.404 23.496-17.314-62.451 2.473-2.474-43.283"/>
        <path fill="#FFF" d="M134.477 216.419l2.577-1.372c1.226-.653 1.706-2.457.951-3.628-.803-1.247-2.316-1.65-3.628-.952l-2.576 1.372c-1.227.653-1.707 2.458-.952 3.629.803 1.246 2.317 1.65 3.628.95"/>
        <path fill="#714F47" d="M88.772 128.704c4.115-1.225 9.75-.664 13.354-3.041 10.688-7.05 21.029-14.615 30.253-23.146 2.008 3.528 4.048 7.09 5.755 10.025 2.296 3.95 4.944 7.723 7.284 11.649 1.935 3.247 1.389 6.5 4.191 9.467 3.576 3.787 10.319 4.59 13.367 8.461 2.031 2.58 1.38 5.67 1.771 8.844 1.805 14.617 24.65 29.539 7.329 42.653-6.9 5.223-15.436 8.526-23.391 11.77-6.43 2.623-13.339 2.884-16.77-3.872-2.925-5.755-3.223-11.989-8.233-16.684-4.506-4.224-11.054-5.35-15.52-9.377-6.367-5.742-11.503-13.955-15.84-21.297-3.856-6.53-8.606-13.861-8.248-21.784.097-2.156 2.773-3.095 4.698-3.668"/>
        <g transform="translate(123.451 167.692)">
            <mask id="b" fill="#fff">
                <use xlink:href="#a"/>
            </mask>
            <path fill="#FF7900" d="M.617 31.359C1.626 29.587 46.229.499 51.874.179c3.752-.212 7.465 5.645 9.16 7.673 6.851 8.203 73.134 87.79 74.75 104.232H48.612C32.264 97.089 8.242 49.962 1.33 36.772.049 34.33-.16 32.722.617 31.359" mask="url(#b)"/>
        </g>
        <path fill="#714F47" d="M73.722 115.038c-1.11.113-2.233.538-3.326 1.358-.507.38 9.327 17.625 13.668 14.004 5.51-4.602-4.885-15.91-10.342-15.362"/>
        <path fill="#714F47" d="M83.498 101.53c2.54 1.043 5.51 3.005 7.094 2.11 2.284-1.29-4.097-6.135-5.247-7.239-1.882-1.804-4.054-3.471-5.817-5.406-1.118-1.227-2.475-3.055-1.385-4.736 1.142-1.763 3.136-.209 4.434.577 6.387 3.863 12.262 8.597 18.166 13.15 3.153 2.432 6.455 4.796 9.67 7.121 2.222 1.608 4.412 4.075 7.178 3.396 2.028-.498 4.417-3.044 5.9-.181.859 1.654 1.25 3.744 1.54 5.852.26 1.875.438 3.764.793 5.376.589 2.67.26 5.359-.093 8.034-.39 2.975 1.335 12.338 1.335 12.338-1.266 4.305-1.028 8.21-6.032 8.732-4.245.444-9.173-.83-12.764-3.153-2.102-1.36-2.473-3.03-5.163-2.487-2.196.444-4.2 2.163-6.549 1.763-1.922-.327-3.271-3.281-4.314-4.761-2.602-3.696-10.21-11.053-8.185-15.94 1.737-4.192 2.61-4.32.763-9.104-1.566-4.058-5.88-7.935-5.844-12.533.03-4.063 2.077-3.912 4.52-2.91M83.17 75.475a26.965 26.965 0 0 1 1.85 2.592c1.209 1.943 1.75 5.658 4.328 6.387 2.74.77 4.063-4.272 4.508-6.184 1.047-4.502-3.11-7.657-6.598-9.766-3.847-2.324-7.355-1.679-9.324 2.38 1.84.875 3.726 2.715 5.236 4.59"/>
        <path fill="#714F47" d="M81.807 101.264l1.159 2.07c-.037.467-1.127 6.039-1.488 5.893-3.02-1.224-6.195-5.043-4.943-8.369.557-1.483 3.311-5.135 5.132-3.14.902.99-.415 2.54.14 3.546"/>
        <path fill="#000" d="M94.7 55.807c3.343-1.98 7.01-1.432 11.231-.923 4.315.521 9.996 1.118 14.316 1.566 4.176.433 8.615.87 12.78 1.39 3.709.465 10.004 1.085 12.916 3.634 2.596 2.272 3.531 6.797 3.603 10.178.146 6.841-1.532 13.56-2.404 20.311-1.074 8.319-1.846 16.058-2.728 24.402-.657 6.206-1.627 14.376-2.586 20.543-.811 5.221-.915 9.181-1.774 14.396-.62 3.766-.238 8.693-4.174 11.143-2.462 1.531-6.138 1.753-8.907 1.656-4.393-.154-8.716-1.037-13.084-1.453-5.094-.483-10.128-1.321-15.157-2.252-4.418-.818-9.993-.427-14.003-2.463-4.553-2.313-5.341-7.174-4.86-12.491 1.824-20.233 5.323-40.428 6.891-60.56.433-5.552 1.652-11.274 2.588-16.863.782-4.665.712-9.465 5.352-12.214"/>
        <path fill="#FFF" d="M100.311 57.108c7.627 1.11 15.368 1.502 22.971 2.736 5.758.935 11.92.168 17.47 2.249 7.078 2.653 6.155 15.59 5.366 22.249a70357.1 70357.1 0 0 1-1.419 11.959l-3.344 28.183-1.858 15.659c-.507 4.272-.635 15.265-3.242 18.985-.312.445-.651.813-1.012 1.114-2.796 2.326-6.948.683-10.465.266-9.414-1.117-18.893-1.647-28.306-2.763-5.003-.594-8.49-.964-13.492-1.557.003-.023-1.446-.855-1.444-.877 1.46-12.314 3.813-30.288 5.275-42.6 1.683-14.189 3.278-28.344 4.505-42.564.45-5.198 3.642-13.817 8.995-13.04"/>
        <path fill="#000" d="M112.72 58.748c6.22.737 12.19.251 18.409.993 2.89.347 5.35.62 8.24.968 2.529.305 7.864 2.719 7.109 8.68-.408 3.218-5.082 34.284-5.465 37.505l-.646 5.435-.569 4.79h.001c-.73 6.157-2.48 20.879-2.603 21.911-.239 2.005-.82 12.544-1.114 15.082-.156 1.334.325 8.604-9.472 7.409-3.593-.438-33.675-4.09-36.649-4.422-7.038-.789-6.26-5.749-6.112-6.954.44-3.585 7.813-71.42 8.308-75.42.256-2.081 2.165-9.686 2.412-11.767.683-5.727 3.91-7.087 7.475-6.662M89.322 71.594c-.07.863-.142 1.73-.243 2.58-.755 6.34-2.647 23.042-4.427 38.814-1.77 15.675-3.43 30.428-3.758 33.169-1.014 8.514-1.524 12.408 12.4 14.066l33.3 3.972c6.191.738 11.11-.278 12.195-9.76.047-.408 1.224-10.249 2.717-22.757 2.652-22.204 6.302-52.814 6.395-53.978.26-3.201 1.982-14.7-7.223-15.799-6.953-.829-30.285-3.385-38.984-4.423-10.854-1.294-11.878 8.058-12.372 14.116"/>
        <path fill="#000" d="M109.1 57.577c2.685.36 4.002.676 6.016.849 1.957.167 7.362.866 11.513 1.395.958.123 10.66.478 7.1 3.082-1.024.749-3.243.107-4.394.03-2.881-.192-6.79-.75-10.26-1.151-3.821-.44-5.916-.694-10.451-1.244-3.828-.465-2.577-3.37.475-2.961"/>
        <path fill="#81C8A6" d="M137.399 140.44l-.054.516-.01-.002c.025-.12.04-.251.04-.39l.001-.128.023.003"/>
        <path fill="#714F47" d="M91.586 83.997c.324-1.269.339-2.608-.047-3.897-4.12.384-17.041 2.554-13.359 9.424 3.075 5.738 12.353-1.42 13.406-5.527M90.201 98.45c.325-1.268.34-2.607-.046-3.896-4.12.383-17.041 2.554-13.36 9.424 3.076 5.739 12.355-1.42 13.406-5.527"/>
        <path fill="#66413E" d="M85.332 82.822c1.504 2.749 4.53-.732 5.613-2.158.427-.564 1.307.098.877.663-.971 1.277-2.134 2.518-3.574 3.26-.657.339-1.437.5-2.158.298-.83-.232-1.369-.897-1.766-1.624-.34-.624.671-1.056 1.008-.44M84.768 98.181c1.238 1.474 3.696-.539 4.624-1.498.486-.502 1.37.153.877.663-1.473 1.522-4.532 3.698-6.365 1.516-.456-.544.409-1.223.864-.68"/>
        <path fill="#714F47" d="M140.525 86.696c1.648 4.746 5.19 8.439 8.69 11.967 2.655 2.677 6.887 5.072 8.997 8.257.776 7.762 4.463 15.093 9.28 21.297.348.94.566 1.908.57 2.918 0 .198-.002.4-.005.601-.15 8.03-.051 20.263-.523 28.309-5.953 3.101-6.284 3.454-11.435 6.511-.704-.446-1.044-4.468-1.72-4.966-2.069-1.526-3.76-3.428-5.977-4.766-1.347-.814-3.253-1.293-4.303-2.534-2.673-3.16-.898-9.747-.735-13.509.263-6.11-.723-12.536.002-18.592.572-4.762.072-8.263-2.684-12.51-.25-.385-.649-.724-1.073-1.057-.489-.383-1.01-.758-1.376-1.184-1.595-1.857-2.585-4.473-2.899-6.95-.546-4.313.048-12.162 5.19-13.792"/>
        <path fill="#66413E" d="M138.835 93.419c.357 1.348 1.284 2.43 2.626 2.855 1.264.4 2.626-.124 3.462-1.102.46-.536 1.34.123.879.663-1.12 1.308-2.806 1.954-4.501 1.526-1.85-.468-3.078-1.982-3.554-3.777-.181-.686.909-.842 1.088-.165"/>
        <path fill="#000" d="M130.445 207.176l.651-.656c.98-.984 1.057-2.78 0-3.75-1.056-.97-2.705-1.05-3.75 0l-.652.655c-.979.985-1.057 2.78 0 3.75 1.057.97 2.706 1.052 3.751 0M135.144 204.286c1.622-.533 2.87-1.504 3.847-2.897.799-1.14.243-2.997-.952-3.629-1.358-.717-2.775-.264-3.628.952-.162.227-.12.175.125-.156a4.189 4.189 0 0 1-.45.451c.311-.229.385-.285.223-.168-.156.1-.318.193-.473.294-.254.124-.188.101.199-.067a4.31 4.31 0 0 1-.301.105c-1.316.432-2.309 1.854-1.853 3.263.426 1.312 1.851 2.315 3.263 1.852M144.57 199.068l1.935-1.34c1.138-.788 1.769-2.36.952-3.628-.73-1.132-2.41-1.796-3.63-.951l-1.934 1.34c-1.138.788-1.769 2.36-.951 3.628.729 1.132 2.408 1.796 3.628.951M154.26 192.268c-.188.376-.23.476-.126.298.105-.172.043-.087-.187.253l-.303.24c-.419.148-.494.186-.226.114 1.349-.33 2.285-1.927 1.853-3.262-.454-1.4-1.818-2.205-3.263-1.853-1.41.345-2.436 1.443-2.863 2.8-.416 1.324.49 2.952 1.852 3.262 1.444.33 2.816-.434 3.262-1.852M161.18 188.324c-.064.087-.375.42-.118.192a31.3 31.3 0 0 0-.11.1c.194-.173-.475.133-.22.079.195-.041.567-.107-.187-.016.728-.088 1.335-.237 1.875-.776.46-.46.806-1.215.777-1.876-.059-1.293-1.177-2.83-2.652-2.652-.832.101-1.532.233-2.27.66-.71.411-1.192.966-1.674 1.612-.385.515-.43 1.452-.267 2.043.17.615.645 1.282 1.219 1.585.615.325 1.36.488 2.043.267.698-.225 1.149-.635 1.585-1.218M168.735 184.385l2.628-1.271c1.252-.605 1.686-2.49.952-3.628-.829-1.285-2.29-1.6-3.629-.952l-2.628 1.271c-1.252.605-1.686 2.49-.952 3.629.828 1.284 2.29 1.598 3.629.951M176.563 180.128l1.956-.985c1.242-.625 1.694-2.476.951-3.628-.818-1.269-2.3-1.62-3.628-.951l-1.956.984c-1.242.625-1.694 2.477-.951 3.629.818 1.269 2.3 1.62 3.628.95"/>
        <path fill="#000" d="M182.09 177.572c3.413 0 3.419-5.304 0-5.304-3.412 0-3.418 5.304 0 5.304"/>
        <path fill="#FFF" d="M143.504 210.44l.65-.655c.98-.985 1.058-2.78 0-3.75-1.056-.97-2.705-1.051-3.75 0l-.651.655c-.98.985-1.057 2.78 0 3.75 1.056.97 2.705 1.051 3.75 0M150.118 206.568l1.959-.979c1.244-.622 1.693-2.479.951-3.628-.82-1.272-2.298-1.616-3.628-.951l-1.959.979c-1.243.621-1.692 2.479-.951 3.628.82 1.272 2.298 1.616 3.628.951M159.255 201.347l1.662-1.266c.573-.438 1.019-.86 1.218-1.585.175-.635.096-1.48-.267-2.044-.7-1.086-2.448-1.85-3.628-.951l-1.662 1.267c-.574.437-1.02.86-1.22 1.585-.174.634-.095 1.48.269 2.043.7 1.087 2.448 1.851 3.628.951M165.112 196.737l1.65-.95c1.201-.693 1.723-2.43.95-3.628-.782-1.214-2.341-1.694-3.628-.952-.55.317-1.099.634-1.65.95-1.202.693-1.723 2.43-.95 3.629.782 1.213 2.341 1.692 3.628.951M172.607 192.469c1.227-.71 2.455-1.418 3.682-2.127 1.202-.694 1.725-2.429.952-3.628-.782-1.213-2.343-1.694-3.629-.951l-3.682 2.126c-1.202.694-1.725 2.429-.952 3.628.782 1.213 2.343 1.694 3.629.952"/>
        <path fill="#FFF" d="M180.46 187.938l.97-.667c1.14-.785 1.766-2.364.95-3.628-.731-1.135-2.405-1.793-3.628-.952l-.97.667c-1.14.785-1.767 2.364-.95 3.629.73 1.134 2.406 1.792 3.628.95M187.02 184.066l.653-.327c1.243-.621 1.692-2.479.951-3.628-.82-1.272-2.298-1.616-3.628-.951l-.653.326c-1.243.622-1.693 2.479-.951 3.628.82 1.272 2.298 1.617 3.628.952"/>
        <g>
            <path fill="#D6D6D6" d="M126.774 135.66c-.067 0-.135-.004-.203-.012l-30.116-3.562a1.71 1.71 0 1 1 .402-3.398l30.115 3.562a1.71 1.71 0 0 1-.198 3.41M125.023 143.848c-.067 0-.135-.004-.203-.012l-30.116-3.562a1.71 1.71 0 1 1 .402-3.398l30.116 3.562a1.71 1.71 0 0 1-.2 3.41M125.945 153.073c-.067 0-.135-.004-.203-.012L95.626 149.5a1.71 1.71 0 1 1 .403-3.398l30.115 3.562a1.71 1.71 0 0 1-.199 3.41M121.366 126.313l-18.074-2.494a5.06 5.06 0 0 1-4.321-5.705l2.473-17.93a5.061 5.061 0 0 1 5.706-4.321l18.073 2.494a5.061 5.061 0 0 1 4.322 5.705l-2.474 17.93a5.06 5.06 0 0 1-5.705 4.321"/>
            <path fill="#FFF" d="M168.503 111.923c3.71-2.95 8.166-4.866 11.662-8.096 1.15-1.064-.377-2.97-1.535-1.9-3.497 3.23-7.951 5.145-11.662 8.098-1.234.98.302 2.88 1.535 1.898"/>
            <path fill="#FFF" d="M179.372 102.626c-.003.005-.024.017-.055.046-2.03 1.875-4.37 3.321-6.634 4.72-1.72 1.064-3.5 2.164-5.085 3.425-.078.062-.074.088-.071.11.014.096.108.211.201.248.03.012.06.023.144-.044 1.678-1.334 3.508-2.466 5.278-3.56 2.283-1.41 4.44-2.744 6.328-4.488.08-.074.099-.131.073-.225a.379.379 0 0 0-.18-.232m-11.602 10.585c-.261 0-.525-.05-.783-.151a2.381 2.381 0 0 1-1.462-1.833c-.114-.766.182-1.493.813-1.995 1.68-1.336 3.51-2.467 5.281-3.562 2.283-1.41 4.438-2.743 6.325-4.486.9-.83 2.16-.776 3.001.132.776.84.955 2.287-.091 3.254-2.032 1.877-4.374 3.324-6.638 4.724-1.72 1.063-3.498 2.162-5.082 3.422a2.182 2.182 0 0 1-1.364.495M178.392 123.034c1.49-.473.917-2.85-.588-2.372-1.82.577-3.558 1.37-5.422 1.812-1.532.363-.947 2.735.587 2.37 1.864-.441 3.602-1.234 5.423-1.81"/>
            <path fill="#FFF" d="M178.18 121.61c-.005.002-.03.005-.07.017-.673.214-1.356.466-2.017.71-1.114.41-2.266.835-3.478 1.122-.094.023-.102.046-.108.069a.365.365 0 0 0 .077.31c.023.023.045.046.151.022 1.09-.259 2.134-.644 3.239-1.05.684-.253 1.391-.514 2.111-.742.103-.032.143-.076.16-.171a.377.377 0 0 0-.066-.288m-5.525 4.287c-.587 0-1.13-.231-1.543-.668a2.383 2.383 0 0 1-.545-2.281c.222-.741.799-1.273 1.582-1.459 1.093-.258 2.138-.644 3.244-1.052.683-.251 1.388-.512 2.106-.739 1.168-.371 2.289.217 2.663 1.396.345 1.09-.107 2.475-1.463 2.906-.676.214-1.361.466-2.024.71-1.112.41-2.262.834-3.471 1.12a2.356 2.356 0 0 1-.549.067M69.784 90.238c-3.168-3.526-7.243-6.156-10.154-9.922-.958-1.24.864-2.865 1.829-1.617 2.912 3.766 6.986 6.394 10.155 9.922 1.053 1.172-.777 2.79-1.83 1.617"/>
            <path fill="#FFF" d="M60.599 79.259a.455.455 0 0 0-.202.204c-.042.089-.033.148.034.235 1.572 2.033 3.477 3.706 5.494 5.477 1.563 1.372 3.18 2.792 4.612 4.386h.001c.072.082.104.074.135.068a.365.365 0 0 0 .239-.21c.007-.022.015-.047-.051-.12-1.354-1.508-2.926-2.889-4.447-4.224-1.999-1.755-4.066-3.57-5.756-5.756a.229.229 0 0 0-.06-.06m10.041 12.4c-.604 0-1.173-.26-1.608-.744-1.353-1.505-2.923-2.885-4.442-4.219-2-1.756-4.07-3.572-5.76-5.76-.872-1.128-.456-2.525.45-3.225.979-.755 2.232-.6 2.981.369 1.571 2.032 3.475 3.704 5.49 5.474 1.565 1.374 3.183 2.794 4.617 4.39.539.6.71 1.366.47 2.103a2.383 2.383 0 0 1-1.746 1.564 2.197 2.197 0 0 1-.452.048M60.8 103.347c-1.49-.472-.917-2.848.588-2.37 1.82.576 3.558 1.369 5.422 1.81 1.531.364.947 2.736-.587 2.371-1.864-.442-3.602-1.234-5.423-1.81"/>
            <path fill="#FFF" d="M61.107 102.382c.72.228 1.427.49 2.111.741 1.105.407 2.148.792 3.239 1.05.106.025.129.002.15-.022a.365.365 0 0 0 .078-.31c-.007-.022-.014-.046-.108-.068-1.212-.288-2.364-.712-3.478-1.123-.661-.244-1.344-.495-2.017-.709-.058-.018-.083-.015-.083-.015a.45.45 0 0 0-.052.285c.017.095.057.139.16.171m5.43 3.828c-.18 0-.363-.022-.548-.066-1.21-.287-2.36-.71-3.471-1.12-.663-.245-1.348-.497-2.024-.711-1.356-.43-1.809-1.816-1.463-2.906.375-1.18 1.494-1.768 2.663-1.396.717.227 1.423.488 2.105.739 1.106.408 2.152.793 3.244 1.052.784.186 1.36.717 1.582 1.459.235.786.022 1.68-.545 2.28a2.09 2.09 0 0 1-1.543.669"/>
            <path fill="#FF7900" d="M120.817 106.146l4.047-17.486c.133-.812-.341-1.57-.994-1.589l-18.626-.541c-.65-.02-1.165.702-1.086 1.516l3.054 17.717c.079.814-.437 1.535-1.086 1.516l-3.29-.096c-.913-.026-1.434 1.328-.85 2.205l10.593 15.907c.397.597 1.119.625 1.558.06L125.97 110.1c.65-.837.211-2.238-.708-2.265l-3.45-.1c-.653-.02-1.128-.777-.995-1.59M107.042 79.353l-21.518 6.535a9.33 9.33 0 0 1-11.638-6.216L62.443 41.994a9.33 9.33 0 0 1 6.217-11.638l21.517-6.535a9.33 9.33 0 0 1 11.639 6.216l11.442 37.678a9.33 9.33 0 0 1-6.216 11.638"/>
        </g>
        <g transform="translate(61.874 23.09)">
            <mask id="d" fill="#fff">
                <use xlink:href="#c"/>
            </mask>
            <path fill="#000" d="M48.992 30.557C27.584 37.058 24.68 27.49 3.27 33.992l11.296 37.195 42.816-13.003-8.39-27.627z" mask="url(#d)"/>
        </g>
        <g fill="#FF7900">
            <path d="M155.532 66.4c.628 1.43 1.757 2.377 3.38 2.844 1.13.323 2.21.41 3.243.25a8.084 8.084 0 0 0 2.838-.983c.86-.5 1.604-1.15 2.234-1.955a7.763 7.763 0 0 0 1.368-2.682c.494-1.724.367-3.274-.382-4.662-.747-1.385-2.006-2.332-3.776-2.84a6.215 6.215 0 0 0-2.958-.126 7.614 7.614 0 0 0-2.71 1.1 8.995 8.995 0 0 0-2.175 2.01c-.63.806-1.072 1.649-1.326 2.535-.453 1.576-.363 3.078.264 4.508zm18.953 2.834c-.253.514-.54 1.097-.86 1.752-.32.652-.532 1.152-.63 1.494-.309 1.085-.048 1.745.79 1.984.64.182 1.392.16 2.258-.073.862-.227 1.758-.704 2.684-1.426.924-.719 1.82-1.753 2.686-3.1.866-1.35 1.596-3.06 2.187-5.124.763-2.658.955-5.143.58-7.46a14.96 14.96 0 0 0-2.58-6.33c-1.345-1.901-3.103-3.565-5.277-4.987-2.177-1.42-4.664-2.534-7.467-3.338-3.101-.888-6.05-1.187-8.847-.898-2.798.29-5.345 1.102-7.648 2.442-2.3 1.337-4.288 3.123-5.966 5.355-1.677 2.235-2.954 4.875-3.83 7.926-.916 3.2-1.208 6.218-.876 9.055.33 2.836 1.203 5.416 2.615 7.734 1.41 2.322 3.31 4.332 5.697 6.027 2.391 1.696 5.16 2.994 8.307 3.896 2.806.803 5.508 1.167 8.112 1.089 2.606-.08 5.041-.538 7.306-1.38l8.116 2.326c-3.712 2.928-7.783 4.73-12.209 5.403-4.426.675-9.615.162-15.567-1.545-3.79-1.085-7.147-2.793-10.072-5.122-2.927-2.33-5.28-5.08-7.059-8.253-1.781-3.17-2.907-6.622-3.383-10.354-.474-3.728-.17-7.486.918-11.274 1.084-3.788 2.816-7.14 5.194-10.051 2.378-2.913 5.166-5.253 8.363-7.029 3.196-1.768 6.66-2.894 10.39-3.368 3.729-.476 7.489-.173 11.278.914 3.64 1.043 6.96 2.556 9.961 4.53 2.998 1.98 5.48 4.29 7.438 6.925a22.872 22.872 0 0 1 4.005 8.734c.71 3.187.58 6.475-.392 9.87-.888 3.1-2.304 5.717-4.247 7.846-1.942 2.134-4.077 3.787-6.409 4.953-2.332 1.169-4.735 1.893-7.208 2.167-2.477.276-4.698.132-6.666-.433-1.13-.321-2.01-.883-2.633-1.673-.628-.79-.865-1.725-.716-2.799l-.295-.085c-1.12.744-2.439 1.217-3.96 1.417-1.523.203-3.122.068-4.792-.411a11.224 11.224 0 0 1-4.128-2.185 11.555 11.555 0 0 1-2.938-3.675c-.734-1.434-1.186-3.018-1.355-4.742-.172-1.727.018-3.547.568-5.466a19.42 19.42 0 0 1 2.865-5.964c1.293-1.816 2.813-3.32 4.57-4.52a15.23 15.23 0 0 1 5.802-2.412c2.114-.405 4.3-.285 6.564.364 1.87.537 3.477 1.386 4.823 2.539 1.344 1.157 2.408 2.702 3.185 4.626l1.375-2.561 6.79 1.946-7.417 14.724zM124.316 26.614l-1.408 19.246c-.185 2.524 3.748 2.512 3.931 0l1.408-19.246c.184-2.524-3.748-2.512-3.931 0"/>
            <path d="M117.525 38.18c5.378-.208 10.755-.13 16.124.232 2.526.17 2.516-3.761 0-3.931-5.369-.363-10.746-.44-16.124-.232-2.521.098-2.534 4.03 0 3.931"/>
        </g>
        <g transform="translate(189)">
            <circle cx="35" cy="35" r="35" fill="#32C832"/>
            <path fill="#FFF" fill-rule="nonzero" d="M20.581 28.354L14 34.936l16.83 16.83a1 1 0 0 0 1.44-.026l25.913-27.907-6.82-6.333-20.047 21.589-10.735-10.735z"/>
        </g>
    </g>
</svg>
