<svg xmlns="http://www.w3.org/2000/svg" xmlns:xlink="http://www.w3.org/1999/xlink" width="375" height="70" viewBox="0 0 375 70">
    <defs>
        <path id="prefix__a" d="M0 0H375V70H0z"/>
        <path id="prefix__c" d="M0.089 0.014L31.645 0.014 31.645 47.417 0.089 47.417z"/>
        <path id="prefix__e" d="M0 84.755L57.671 84.755 57.671 0.744 0 0.744z"/>
        <path id="prefix__g" d="M0.263 0.198L8.028 0.198 8.028 7.754 0.263 7.754z"/>
        <path id="prefix__i" d="M13.633.047L.108 2.25l2.729 5.466 13.05-2.126 3.57 21.916 3.84 7.69-5.103-31.327c-.364-2.236-2.11-3.866-4.02-3.866-.18 0-.36.015-.54.044"/>
        <path id="prefix__l" d="M6.492 8.073c-.27-.268-.71-.268-.98 0l-3.187 3.221h1.85v6.188c0 .76-.634 1.342-1.4 1.342h-.758C2.567 19.52 3.875 20 4.837 20c1.659 0 2.988-1.344 2.988-2.988v-5.718h1.873l-3.206-3.22zM10.402 0H1.598C.994-.002.502.482.5 1.082v16.064c-.001.288.113.565.318.77.204.203.482.319.773.32h1.185c.446-.12.756-.523.755-.981v-1.02h-1.94V1.765h8.818v14.47H8.42v.683c0 .515-.089.85-.288 1.31h2.27c.607 0 1.099-.554 1.099-1.152V1.082c-.002-.6-.494-1.084-1.099-1.082zM6.935 1.176H5.158c-.163 0-.296-.131-.296-.294 0-.162.133-.294.296-.294h1.778c.164 0 .297.132.297.294 0 .163-.133.294-.297.294z"/>
        <path id="prefix__n" d="M0 0.232L30.607 0.232 30.607 59.306 0 59.306z"/>
        <linearGradient id="prefix__j" x1="40.682%" x2="72.6%" y1="-.304%" y2="69.461%">
            <stop offset="0%" stop-color="#515151"/>
            <stop offset="100%" stop-color="#101010"/>
        </linearGradient>
    </defs>
    <g fill="none" fill-rule="evenodd">
        <mask id="prefix__b" fill="#fff">
            <use xlink:href="#prefix__a"/>
        </mask>
        <use fill="#E5E5F9" xlink:href="#prefix__a"/>
        <path stroke="#FFF" stroke-dasharray="0 5" stroke-linecap="round" stroke-linejoin="round" stroke-width="2" d="M-14 10c31.333 38.667 58.333 46.667 81 24 10.667-24.667 33.333-27 68-7 52 30 77 38 113 11s54-43 72-11c12 21.333 33 26 63 14" mask="url(#prefix__b)"/>
        <g style="mix-blend-mode:overlay" mask="url(#prefix__b)">
            <g>
                <path stroke="#000" d="M183.395 54.448c-1.602-3.668-5.89-5.347-9.577-3.754l-.6.259-.261-.598c-1.602-3.666-5.891-5.347-9.577-3.754-3.687 1.594-5.377 5.858-3.775 9.523l.26.598L165.667 70l13.353-5.77.6-.259c3.688-1.593 5.377-5.856 3.775-9.523M140.179 80.995c-3.291-1.298-7.01.319-8.308 3.61l-.211.535-.537-.21c-3.291-1.298-7.012.319-8.309 3.61-1.296 3.291.32 7.01 3.61 8.308l.537.212 11.918 4.698 4.7-11.92.21-.535c1.298-3.291-.319-7.01-3.61-8.308" transform="translate(-1 -35)"/>
                <path stroke="#000" d="M367.613 55.28c-1.025-2.292-3.77-3.342-6.13-2.346l-.383.162-.168-.374c-1.025-2.291-3.77-3.342-6.13-2.346-2.358.996-3.44 3.66-2.415 5.952l.167.374L356.267 65l8.546-3.606.384-.162c2.36-.995 3.441-3.66 2.416-5.952M37.486 42.829c-2.743-1.082-5.843.266-6.925 3.01l-.176.445-.448-.176c-2.743-1.08-5.844.267-6.925 3.01-1.08 2.743.266 5.844 3.01 6.925l.446.177 9.935 3.916L40.32 50.2l.176-.446c1.082-2.743-.266-5.843-3.01-6.925" transform="translate(-1 -35)"/>
                <g>
                    <path stroke="#000" d="M.134 10.943L6.261 16.452 8.097 14.409 1.971 8.9zM4.38 7.42h0s-.723-2.355-.787-3.548c-.055-1.04-1.219-2.286-1.518-2.59-.039-.039-.04-.101-.002-.143.535-.594 1.452-.644 2.047-.108l2.43 2.186 1.918-2.133C9.1.382 10.18.324 10.882.955L14.99 4.65c.702.631.759 1.711.127 2.413L10.14 12.6c-.26.29-.705.313-.995.053L4.433 8.415c-.29-.26-.313-.705-.053-.994" transform="translate(-1 -35) rotate(30 -68.024 223.004)"/>
                </g>
                <g>
                    <path stroke="#000" d="M.397 18.218L11.169 26.972 14.397 23.726 3.626 14.972zM7.3 11.683h0S6.112 7.878 6.007 5.95c-.09-1.679-2.003-3.692-2.494-4.182-.064-.064-.065-.165-.004-.232.88-.96 2.385-1.04 3.363-.175l3.993 3.53 3.151-3.445C15.053.312 16.828.22 17.981 1.24l6.75 5.968c1.153 1.02 1.247 2.765.21 3.899l-8.179 8.943c-.426.468-1.159.506-1.634.086l-7.742-6.846c-.475-.42-.514-1.139-.086-1.606" transform="translate(-1 -35) rotate(60 -57.643 60.374)"/>
                </g>
                <g>
                    <path stroke="#000" d="M.027 14.538L8.491 21.834 11.027 19.129 2.565 11.834zM5.364 10.12h0S4.328 6.896 4.237 5.26c-.08-1.423-1.746-3.13-2.174-3.545-.056-.054-.056-.14-.004-.196.767-.815 2.08-.882 2.932-.15l3.48 2.994 2.747-2.921c.904-.961 2.451-1.04 3.457-.176l5.884 5.06c1.005.864 1.087 2.344.183 3.305l-7.13 7.582c-.371.396-1.01.429-1.424.072l-6.749-5.803c-.414-.356-.448-.966-.075-1.361" transform="translate(-1 -35) rotate(30 6.673 582.16)"/>
                </g>
            </g>
        </g>
        <g mask="url(#prefix__b)">
            <g>
                <path fill="#FF7900" stroke="#FFF" d="M43.112 32.337C37.76 43.64 24.26 48.463 12.958 43.111 1.656 37.761-3.168 24.261 2.184 12.958 7.534 1.655 21.034-3.168 32.338 2.183c11.3 5.351 16.126 18.852 10.774 30.154" transform="translate(297 4.295)"/>
                <path fill="#FFF" d="M37.069 18.132L18.233 7.257l-7.875 13.64c-.622 1.076-.253 2.452.823 3.074l2.598 1.5-2.625 4.546 7.172-1.921 11.691 6.75 7.875-13.64c.622-1.076.253-2.452-.823-3.074zm-7.699-.506c1.145-.103 2.183.673 2.409 1.8.225 1.127-.436 2.242-1.532 2.587-1.096.345-2.276-.193-2.736-1.246 1.18-.594 1.906-1.82 1.86-3.141zm-2.061-2.15c1.256.725 1.686 2.33.96 3.586-.724 1.256-2.33 1.686-3.585.961s-1.686-2.33-.96-3.586c.724-1.255 2.33-1.685 3.585-.96zm-3.756-1.683c.387.223.699.556.895.957-1.196.62-1.91 1.889-1.82 3.232-.966.087-1.88-.456-2.265-1.347-.386-.89-.157-1.928.568-2.573.724-.646 1.781-.754 2.622-.27zm-5.575 8.906l-1.43-.825c-.31-.18-.535-.474-.628-.82-.093-.346-.044-.715.135-1.025l1.35-2.338c.437-.758 1.215-1.258 2.087-1.338.202.972.872 1.782 1.79 2.161-.76.315-1.395.873-1.804 1.586l-1.5 2.599zm6.395 5.424l-5.197-3c-.717-.415-.963-1.332-.549-2.05l1.5-2.598c.559-.967 1.61-1.545 2.726-1.497.578 1.48 2.112 2.357 3.682 2.104.62.947.654 2.163.088 3.143l-2.25 3.898zm3.997.576l-2.598-1.5 1.5-2.599c.413-.711.58-1.54.472-2.355.787.605 1.824.78 2.767.47.366.795.323 1.718-.116 2.476L28.37 28.7z" transform="translate(297 4.295)"/>
            </g>
        </g>
        <g mask="url(#prefix__b)">
            <g>
                <path fill="#FF7900" stroke="#FFF" d="M29.415 8.865c3.633 7.715.325 16.915-7.39 20.55-7.715 3.634-16.915.325-20.549-7.39-3.634-7.715-.326-16.916 7.39-20.55 7.714-3.633 16.914-.325 20.549 7.39" transform="translate(40 26)"/>
                <path fill="#FFF" d="M13.592 16.427c-1.541-1.541-3.015-3.326-2.309-4.032 1.771-1.77 1.89-1.633.1-3.86-1.79-2.227-1.719-1.826-3.963.462-1.18 1.271-.059 5.34 4.102 9.5 4.161 4.16 8.338 5.232 9.501 4.101 2.391-2.374 2.579-2.241.462-3.961-2.227-1.79-2.097-1.663-3.86.1-.706.705-2.49-.768-4.033-2.31z" transform="translate(40 26)"/>
            </g>
        </g>
        <g mask="url(#prefix__b)">
            <g transform="rotate(-20 113.02 -284.885)">
                <g transform="translate(26.026 .73)">
                    <mask id="prefix__d" fill="#fff">
                        <use xlink:href="#prefix__c"/>
                    </mask>
                    <path fill="#FFF" d="M29.136 47.417H2.597c-1.38 0-2.508-1.13-2.508-2.508V2.522c0-1.38 1.129-2.508 2.508-2.508h26.54c1.379 0 2.508 1.129 2.508 2.508V44.91c0 1.379-1.13 2.508-2.509 2.508" mask="url(#prefix__d)"/>
                </g>
                <mask id="prefix__f" fill="#fff">
                    <use xlink:href="#prefix__e"/>
                </mask>
                <path fill="#FFBD91" d="M29.596 8.389L54.05 8.389 54.05 6.165 29.596 6.165z" mask="url(#prefix__f)"/>
                <path fill="#9D9891" d="M29.596 14.016L54.05 14.016 54.05 9.153 29.596 9.153z" mask="url(#prefix__f)"/>
                <path fill="#FFBD91" d="M29.596 35.982L54.05 35.982 54.05 14.812 29.596 14.812z" mask="url(#prefix__f)"/>
                <path fill="#FFF" d="M53.348 13.39L52.953 12.707 52.796 13.273 52.638 13.551 52.481 13.467 52.324 13.246 52.167 13.268 52.01 13.163 51.854 13.16 51.696 13.383 51.539 12.72 51.382 12.854 51.225 13.15 51.068 13.407 50.911 12.731 50.754 13.015 50.596 13.152 50.439 12.914 50.282 12.784 50.125 13.56 49.968 13.075 49.81 13.488 49.653 13.156 49.495 12.708 49.337 13.34 49.18 12.944 49.022 12.714 48.864 13.252 48.706 13.155 48.548 12.712 48.391 12.735 48.232 12.979 48.075 13.065 47.917 13.453 47.759 13.468 47.602 13.247 47.445 13.254 47.287 13.261 47.13 13.162 46.972 13.341 46.814 13.03 46.657 13.34 46.5 13.429 46.342 12.887 46.185 12.878 46.028 13.011 45.87 13.598 45.712 13.424 45.555 12.792 45.398 13.374 45.239 13.256 45.082 13.418 44.924 12.786 44.766 13.287 44.608 12.874 44.45 13.087 44.292 12.884 44.134 13.39 43.976 12.735 43.818 13.414 43.661 13.104 43.503 12.723 43.345 12.715 43.188 13.071 43.03 13.429 42.872 12.762 42.715 13.144 42.557 12.883 42.399 13.358 42.241 13.436 42.084 12.943 41.926 13.535 41.768 12.88 41.609 13.236 41.451 13.427 41.293 13.424 41.135 13.52 40.977 13.311 40.819 13.117 40.662 13.131 40.504 13.188 40.347 13.309 40.189 12.786 40.031 13.538 39.874 13.361 39.716 13.294 39.558 13.384 39.4 13.179 39.242 13.339 39.084 13.098 38.926 13.404 38.769 13.52 38.612 12.826 38.454 13.523 38.297 12.737 38.14 13.358 37.983 12.942 37.825 13.455 37.668 13.323 37.51 12.801 37.353 13.415 37.194 12.72 37.036 12.791 36.878 13.4 36.72 13.224 36.562 12.937 36.403 13.01 36.246 13.265 36.088 13.364 35.93 13.57 35.772 13.564 35.614 13.516 35.456 12.715 35.298 13.469 35.139 12.975 34.981 13.204 34.822 12.87 34.664 13.318 34.506 12.961 34.347 12.708 34.189 12.974 34.03 13.021 33.872 13.337 33.714 13.564 33.555 13.105 33.396 12.981 33.239 12.718 33.081 13.037 32.923 12.704 32.763 13.305 32.605 13.477 32.447 13.03 32.289 13.537 32.129 13.584 31.971 13.593 31.812 12.73 31.652 12.798 31.493 13.582 31.335 12.728 31.176 13.603 31.017 12.984 30.857 12.969 30.696 13.404 30.368 13.326 30.3 12.996 30.524 12.839 30.719 12.684 30.495 12.528 30.215 12.372 30.608 12.215 30.393 12.059 30.342 11.903 30.891 11.747 30.111 11.59 30.477 11.433 30.458 11.276 30.288 11.119 30.297 10.962 30.405 10.805 30.44 10.649 30.751 10.491 30.529 10.333 30.358 10.176 30.437 9.918 30.693 9.75 30.85 10.168 31.008 9.845 31.165 9.903 31.322 10.095 31.478 10.109 31.635 9.782 31.793 9.653 31.95 9.738 32.107 9.86 32.264 10.458 32.421 9.644 32.578 10.432 32.735 10.196 32.892 10.098 33.05 10.096 33.207 9.873 33.364 10.046 33.521 9.999 33.679 9.875 33.836 10.228 33.993 10.327 34.151 10.113 34.309 10.369 34.466 10.422 34.624 9.811 34.782 10.116 34.94 9.701 35.098 10.176 35.256 9.84 35.414 10.307 35.571 10.171 35.729 9.94 35.886 9.895 36.044 9.786 36.202 9.887 36.359 10.324 36.516 9.924 36.674 9.833 36.832 9.589 36.989 9.638 37.146 9.567 37.304 9.998 37.461 10.163 37.618 10.333 37.776 10.229 37.934 10.231 38.091 10.168 38.249 10.419 38.406 10.171 38.564 10.192 38.722 9.567 38.879 9.602 39.038 10.301 39.196 10.014 39.354 10.026 39.512 9.799 39.67 9.968 39.827 10.008 39.985 9.852 40.143 10.017 40.3 9.579 40.459 9.96 40.616 10.117 40.773 10.451 40.931 10.156 41.089 10.013 41.247 10.175 41.405 10.434 41.562 10.41 41.72 10.184 41.878 10.013 42.037 9.678 42.194 10.397 42.353 9.612 42.51 10.287 42.669 10.092 42.826 9.693 42.984 9.791 43.142 10.346 43.3 10.444 43.457 10.092 43.615 10.259 43.772 10.418 43.93 10.113 44.088 9.801 44.247 10.028 44.404 10.157 44.562 9.712 44.72 10.011 44.877 10.433 45.034 9.71 45.192 10.35 45.349 9.986 45.506 10.118 45.664 10.02 45.821 10.154 45.978 9.721 46.135 10.429 46.294 10.408 46.451 9.767 46.609 9.863 46.767 10.173 46.926 10.07 47.084 10.077 47.243 9.895 47.4 9.817 47.558 9.737 47.716 10.292 47.874 9.619 48.032 10.417 48.19 10.187 48.348 10.382 48.507 10.426 48.666 10.202 48.824 10.191 48.982 9.735 49.14 9.651 49.299 10.27 49.457 9.609 49.615 9.684 49.774 9.785 49.933 9.75 50.091 10.281 50.25 9.934 50.407 9.651 50.565 10.038 50.723 9.597 50.882 10.147 51.041 10.151 51.198 10.233 51.358 10.085 51.517 10.351 51.675 9.829 51.834 9.785 51.993 10.116 52.152 9.668 52.311 10.211 52.47 10.426 52.63 9.895 52.79 9.678 52.95 9.765 53.198 9.927 52.662 10.173 52.937 10.33 53.062 10.486 52.903 10.641 53.007 10.797 53.096 10.954 52.818 11.111 53.433 11.267 52.88 11.423 53.461 11.58 52.999 11.737 52.997 11.893 53.411 12.051 52.917 12.208 52.72 12.365 53.496 12.522 53.351 12.679 52.98 12.836 52.775 13.139z" mask="url(#prefix__f)"/>
                <path fill="#FF7A00" d="M50.716 44.703L54.05 44.703 54.05 41.369 50.716 41.369z" mask="url(#prefix__f)"/>
                <path fill="#7D4D44" d="M40.9 23.098c-3.669-.542-5.086 4.723-5.725 7.683-.243 1.136-.847 4.913-.916 6.122-.359 6.226-3.96 10.263-5.681 11.043-2.37 1.073-2.045-4.209-2.09-4.428-.231-1.206-.62-24.371-.62-24.371v-7.672c-1.278-.44-2.46.243-3.167.448-3.654 1.06-3.708 7.357-5.536 10.617-1.321 2.352-7.786 9.109-8.65 12.935-.742 3.285.15 20.522-.41 24.11C7.45 63.783 0 73.701 0 73.701l13.785 11.054S20.601 73.327 25.78 70.99c2.114-.955 5.893-4.967 7.867-8.072 3.612-5.683 10.119-14.906 10.33-22.088.045-1.577-.774-6.57-.511-8.675.163-.867-.13-8.696-2.565-9.057" mask="url(#prefix__f)"/>
                <path fill="#AF7D5D" d="M40.847 23.709c-2.314-.153-2.416 2.071-2.416 2.071s-.364 2.086.188 2.695c.433.476 1.818.272 3.47.28 1.417.006 1.287.351 1.287.351-.175-1.777-.559-3.876-1.295-5.067l-1.234-.33z" mask="url(#prefix__f)"/>
            </g>
        </g>
        <g mask="url(#prefix__b)">
            <g>
                <g>
                    <path fill="#7D4D44" d="M38.911 26.573c-.282.851-.023 2.037.573 2.635 0 0 1.894 1.894 5.659-.894 3.767-2.788 2.23-5.526 1.415-5.6l-4.694-.427c-.813-.075-1.711.56-1.997 1.412l-.956 2.874z" transform="scale(-1 1) rotate(-10 -79.64 1532.407) translate(3.433 .309)"/>
                    <g transform="scale(-1 1) rotate(-10 -79.64 1532.407) translate(3.433 .309) translate(43.075 30.277)">
                        <mask id="prefix__h" fill="#fff">
                            <use xlink:href="#prefix__g"/>
                        </mask>
                        <path fill="#7D4D44" d="M.379 4.626C.095 5.477.352 6.662.95 7.26c0 0 1.578 1.58 4.949-.914C9.27 3.85 7.827 1.395 7.01 1.32L3.123.967C2.308.893 1.1-.358.817.493L.379 4.626z" mask="url(#prefix__h)"/>
                    </g>
                    <path fill="#7D4D44" d="M43.14 42.927c-.282.85-.026 2.036.573 2.634 0 0 1.252 1.252 4.207-.936 2.957-2.187 1.606-4.35.79-4.424l-3.042-.276c-.816-.074-1.715.56-1.997 1.413l-.53 1.589z" transform="scale(-1 1) rotate(-10 -79.64 1532.407) translate(3.433 .309)"/>
                    <path fill="#623A33" d="M30.59 38.624s2.606 29.526-7.81 38.658c-6.83 5.988-5.37-5.968-5.37-5.968l-5.927-28.111 19.107-4.58z" transform="scale(-1 1) rotate(-10 -79.64 1532.407) translate(3.433 .309)"/>
                    <path fill="#623A33" d="M3.915 74.52L.228 40.87C.004 38.6.67 35.084 1.707 33.053L5.822 18.38c1.037-2.03 4.648-3.92 6.51-5.235l4.005.408c1.864-1.314 3.57-.532 3.793 1.737l1.29 13.153c.221 2.268-.086 5.924-.684 8.124l-2.87 10.552c-.597 2.2-.963 5.862-.81 8.136l.532 7.951c.15 2.274-1.46 4.817-3.583 5.65l-10.09 5.666z" transform="scale(-1 1) rotate(-10 -79.64 1532.407) translate(3.433 .309)"/>
                    <path fill="#101010" d="M47.68 50.756c.398 2.444-1.001 4.727-3.112 5.07l-22.83 3.718c-2.109.344-4.162-1.375-4.56-3.82L9.54 8.837c-.399-2.445 1.003-4.728 3.112-5.071L35.483.047c2.111-.344 4.162 1.376 4.56 3.822l7.637 46.887z" transform="scale(-1 1) rotate(-10 -79.64 1532.407) translate(3.433 .309)"/>
                </g>
                <g transform="scale(-1 1) rotate(-10 -79.64 1532.407) translate(25.283 .309)">
                    <mask id="prefix__k" fill="#fff">
                        <use xlink:href="#prefix__i"/>
                    </mask>
                    <path fill="url(#prefix__j)" d="M13.633.047L.108 2.25l2.729 5.466 13.05-2.126 3.57 21.916 3.84 7.69-5.103-31.327c-.364-2.236-2.11-3.866-4.02-3.866-.18 0-.36.015-.54.044" mask="url(#prefix__k)"/>
                </g>
                <g>
                    <path fill="#FFF" d="M48.38 47.358L22.918 51.505 15.708 7.24 41.17 3.093z" transform="scale(-1 1) rotate(-10 -79.64 1532.407) translate(0 2.806)"/>
                    <g transform="scale(-1 1) rotate(-10 -79.64 1532.407) translate(0 2.806) rotate(-9 72.446 -145.135)">
                        <mask id="prefix__m" fill="#fff">
                            <use xlink:href="#prefix__l"/>
                        </mask>
                        <g fill="#FF7900" mask="url(#prefix__m)">
                            <path d="M0 0H20V20H0z" transform="translate(-4)"/>
                        </g>
                    </g>
                    <g fill="#000" opacity=".1">
                        <path d="M17 2.325c-.032.011-.065.02-.1.027L1.995 5.52c-.464.098-.92-.2-1.02-.665-.097-.465.199-.92.664-1.02L16.544.666c.465-.099.921.199 1.02.664.091.431-.158.856-.564.994M17 7.215c-.032.011-.065.02-.1.028L1.995 10.41c-.464.098-.92-.199-1.02-.664-.098-.465.198-.923.664-1.021l14.906-3.168c.465-.098.921.199 1.02.664.091.432-.158.856-.564.994M18.874 11.164c-.032.01-.064.02-.098.027L4.061 14.322c-.459.098-.909-.196-1.006-.656-.097-.46.194-.913.654-1.01l14.715-3.131c.459-.098.91.196 1.007.656.09.426-.156.846-.557.983" transform="scale(-1 1) rotate(-10 -79.64 1532.407) translate(0 2.806) translate(24.306 29.001)"/>
                    </g>
                    <path fill="#101010" d="M32.405.834c.063.386-.157.744-.491.798L24.809 2.79c-.334.054-.656-.215-.719-.601-.063-.388.156-.745.49-.8L31.687.232c.334-.054.656.215.719.602" transform="scale(-1 1) rotate(-10 -79.64 1532.407) translate(0 2.806)"/>
                    <path fill="#000" d="M24.612 1.58c-.229.037-.377.296-.332.577.046.281.27.48.498.442l7.105-1.157c.228-.037.377-.296.331-.577-.045-.281-.269-.48-.497-.443L24.612 1.58zm7.333.243L24.839 2.98c-.437.071-.86-.27-.94-.76-.079-.492.213-.95.65-1.02L31.656.041c.438-.071.86.27.94.761.08.49-.212.948-.65 1.02z" transform="scale(-1 1) rotate(-10 -79.64 1532.407) translate(0 2.806)"/>
                    <g transform="scale(-1 1) rotate(-10 -79.64 1532.407) translate(0 2.806) translate(0 25.907)">
                        <mask id="prefix__o" fill="#fff">
                            <use xlink:href="#prefix__n"/>
                        </mask>
                        <path fill="#7D4D44" d="M30.445 2.2c-.003-.008-.008-.014-.011-.02-.05-.101-.106-.197-.176-.285-.016-.023-.038-.04-.057-.06-.06-.07-.12-.138-.19-.198-.043-.034-.093-.06-.138-.09-.056-.038-.109-.08-.168-.11-.077-.04-.162-.067-.246-.095-.039-.013-.074-.032-.114-.043-.127-.034-.262-.055-.403-.063l-2.34-.123c-.198-.01-.422-.028-.656-.048l-.102-.01c-.24-.022-.49-.047-.746-.077v.001c-.915-.105-1.897-.253-2.593-.4 0 0-3.756-.787-4.828.01-3.824 2.851-9.992 12.02-9.992 12.02-.637.944-1.277 2.643-1.423 3.773L3.48 37.974 0 49.456c3.628 8.468 9.68 11.25 17.788 9.21.734-1.746 1.414-3.322 1.898-4.347 1.346-2.848 4.368-3.172 6.08-4.972.169-.136.324-.288.447-.469 0 0 .822-1.204.675-8.379-.348-17.188-8.434-22.563-8.434-22.563-.95-.631-1.405-2.023-1.013-3.094l1.845-5.028c.392-1.07 1.646-1.983 2.783-2.029 0 0 4.636-.187 6.456-1.83 1.83-1.654 2.037-2.586 2.037-2.586.004-.016.003-.03.005-.046h.002l.003-.041c.022-.123.036-.243.035-.36l-.001-.006c-.004-.258-.059-.5-.161-.717" mask="url(#prefix__o)"/>
                    </g>
                    <path fill="#AF7D5D" d="M26.094 28.268c1.087.163 3.136-.04 3.136-.04s.829.095-.27-1.082l-.018-.002-2.34-.123c-.198-.01-.422-.029-.656-.05l-.102-.008c-.24-.022-.49-.048-.746-.078v.002l-.449-.057c.263.553.75 1.334 1.445 1.438" transform="scale(-1 1) rotate(-10 -79.64 1532.407) translate(0 2.806)"/>
                </g>
            </g>
        </g>
    </g>
</svg>
