<svg xmlns="http://www.w3.org/2000/svg" xmlns:xlink="http://www.w3.org/1999/xlink" width="288" height="218" viewBox="0 0 288 218">
    <defs>
        <path id="a" d="M.04.21h94.936v37.124H.04z"/>
        <path id="c" d="M.063.087h3.169v1.116H.062z"/>
        <path id="e" d="M.06.1h2.814v3.228H.06z"/>
        <path id="g" d="M.039.33H2.52v1.581H.04z"/>
        <path id="i" d="M33.388.354L9.15 2.922C3.596 3.51-.43 8.49.159 14.044l4.497 42.442c.588 5.553 5.567 9.578 11.121 8.99l24.239-2.569c5.553-.588 9.578-5.567 8.99-11.12L44.51 9.344C43.96 4.152 39.572.297 34.465.297c-.356 0-.715.019-1.077.057z"/>
    </defs>
    <g fill="none" fill-rule="evenodd">
        <path fill="#B5E8F7" d="M22.591 95.708c5.226-3.987 101.406-72.963 112.535-51.94 11.13 21.024-118.718 76.054-.618 35.245 118.1-40.81 148.398-45.756 129.848-22.26-18.55 23.497-34.626 50.085-13.603 50.085 21.023 0 48.847 22.26 31.535 33.389-17.313 11.13-42.665 21.023-29.062 29.061 13.603 8.039.618 16.077-6.183 19.787-6.802 3.71-142.215 25.97-175.604 22.878-33.39-3.092-83.474.618-51.32-16.695 32.152-17.313 59.977-43.283 37.098-35.863-22.877 7.42-55.648-3.091-32.152-20.404 23.496-17.314-62.451 2.473-2.474-43.283"/>
        <path fill="#C2796C" d="M129.82 75.475c.255.106 1.025.431-.092-.039l.092.039"/>
        <path fill="#6FBBBB" d="M123.497 66.13c-.025.009-.058.015-.08.022l.152-.162a.684.684 0 0 0-.072.14M123.705 65.844l-.136.146a.516.516 0 0 1 .136-.146"/>
        <path fill="#141819" d="M134.645 66.165l.051-.035-.051.035zM134.696 66.13"/>
        <g fill="#FFF">
            <path d="M101.04 110.92c-2.016-3.934-4.98-7.23-8.048-10.372-.962-.986.532-2.513 1.494-1.527 3.185 3.264 6.296 6.72 8.39 10.807.625 1.222-1.209 2.318-1.836 1.092"/>
            <path d="M93.776 99.589c-.004 0-.007 0-.01.002a.318.318 0 0 0-.193.2c-.01.032-.019.065.053.138 3.51 3.595 6.247 6.772 8.202 10.587.02.04.036.057.041.06a.38.38 0 0 0 .21-.14c.05-.068.052-.12.008-.204-2.042-3.987-5.165-7.447-8.235-10.592-.042-.043-.063-.051-.076-.051m8.083 12.752c-.03 0-.061 0-.091-.002-.65-.033-1.203-.403-1.517-1.016-1.853-3.617-4.495-6.676-7.893-10.157-.5-.511-.678-1.187-.49-1.854a2.083 2.083 0 0 1 1.46-1.438c.65-.165 1.303.027 1.791.529 3.168 3.244 6.395 6.825 8.545 11.021.331.647.3 1.362-.088 1.962-.38.587-1.046.955-1.717.955M95.7 127.996c-3.36-2.426-7.331-3.92-10.516-6.599-1.049-.882.208-2.608 1.263-1.72 3.187 2.678 7.156 4.17 10.518 6.599 1.118.806-.148 2.527-1.264 1.72"/>
            <path d="M85.816 120.314a.395.395 0 0 0-.135.212c-.019.083 0 .132.073.194 1.72 1.447 3.658 2.524 5.71 3.664 1.59.884 3.235 1.797 4.755 2.894.077.056.103.044.128.033a.318.318 0 0 0 .166-.224c.002-.02.004-.043-.067-.094-1.436-1.037-3.035-1.925-4.581-2.785-2.034-1.13-4.138-2.298-5.987-3.854a.2.2 0 0 0-.062-.04m10.494 8.78a1.92 1.92 0 0 1-1.128-.38c-1.435-1.036-3.033-1.923-4.577-2.782-2.036-1.13-4.14-2.3-5.992-3.857-.953-.802-.856-2.073-.212-2.839.696-.827 1.796-.927 2.616-.238 1.72 1.446 3.657 2.522 5.708 3.662 1.592.885 3.237 1.799 4.758 2.898.572.412.86 1.035.791 1.71a2.081 2.081 0 0 1-1.203 1.66 1.85 1.85 0 0 1-.761.165M87.712 140.136c-1.32-.353-.917-2.452.417-2.096 1.614.43 3.164 1.052 4.81 1.362 1.353.255.94 2.351-.416 2.095-1.646-.31-3.196-.932-4.81-1.361"/>
            <path d="M87.94 139.28c.639.17 1.267.369 1.875.561.982.31 1.909.604 2.872.786.095.019.114-.004.132-.025a.319.319 0 0 0 .055-.274c-.007-.02-.014-.04-.098-.055-1.07-.202-2.094-.526-3.083-.84a41.01 41.01 0 0 0-1.792-.537c-.05-.014-.073-.01-.073-.01a.397.397 0 0 0-.033.25c.018.084.055.12.146.144m4.808 3.124c-.128 0-.258-.012-.39-.036-1.068-.202-2.09-.525-3.078-.838-.59-.187-1.198-.38-1.796-.539h-.001c-1.202-.32-1.654-1.512-1.396-2.479.28-1.046 1.233-1.603 2.27-1.328.636.17 1.263.369 1.87.56.982.312 1.91.606 2.875.788.693.13 1.218.571 1.442 1.21a2.085 2.085 0 0 1-.383 2.015 1.832 1.832 0 0 1-1.413.647"/>
        </g>
        <g fill="#FFF">
            <path d="M189.016 109.333c3.215-1.95 6.262-4.16 9.477-6.11 1.18-.715 2.097 1.217.93 1.923-3.214 1.95-6.261 4.16-9.477 6.11-1.18.715-2.096-1.216-.93-1.923"/>
            <path d="M198.992 103.96a.426.426 0 0 0-.04.021c-1.592.965-3.177 2.019-4.71 3.037-1.545 1.027-3.144 2.088-4.766 3.073-.07.041-.115.09-.114.195 0 .104.05.195.086.233a.336.336 0 0 0 .04-.02c1.592-.966 3.177-2.019 4.71-3.037 1.545-1.027 3.144-2.09 4.766-3.073.069-.042.115-.091.114-.196a.372.372 0 0 0-.086-.233zm-9.561 8.338c-.282 0-.56-.07-.818-.212-.605-.332-1.006-1.023-1.022-1.759a1.98 1.98 0 0 1 .967-1.751c1.59-.965 3.174-2.016 4.705-3.034 1.547-1.028 3.147-2.09 4.771-3.076.582-.352 1.235-.379 1.792-.073.605.332 1.006 1.022 1.022 1.759a1.98 1.98 0 0 1-.966 1.751c-1.59.965-3.174 2.017-4.705 3.034-1.547 1.028-3.147 2.091-4.772 3.076-.312.19-.646.285-.974.285zM183.37 92.28c2.018-2.664 4.46-4.989 6.935-7.222 1.025-.926 2.35.751 1.333 1.67-2.344 2.115-4.645 4.306-6.557 6.828-.832 1.098-2.544-.177-1.711-1.276"/>
            <path d="M190.946 85.673c.005.002-.016.014-.048.042-2.742 2.475-4.952 4.63-6.822 7.1-.053.07-.044.09-.037.11a.318.318 0 0 0 .224.165c.027.003.055.006.112-.068 1.97-2.598 4.37-4.877 6.67-6.952.07-.063.085-.111.063-.193-.032-.118-.127-.195-.162-.204m-6.662 9.19a2.081 2.081 0 0 1-1.877-1.25c-.263-.625-.17-1.306.257-1.868 2.07-2.732 4.61-5.144 7.048-7.345.797-.72 1.904-.657 2.632.148.668.74.809 2.004-.113 2.837-2.584 2.331-4.669 4.364-6.445 6.706-.376.498-.914.771-1.502.771M138.303 71.666c.13-3.627-.086-7.266.235-10.886.122-1.372 2.246-1.151 2.125.222-.322 3.62-.106 7.26-.235 10.887-.049 1.377-2.174 1.149-2.125-.223M173.973 77.152a40.257 40.257 0 0 0 3.205-7.826c.386-1.323 2.358-.5 1.976.81a40.267 40.267 0 0 1-3.205 7.825c-.647 1.2-2.63.403-1.976-.809"/>
            <path d="M174.737 77.602c.042.032.129.08.237.067.108-.006.157-.056.196-.128a39.494 39.494 0 0 0 3.134-7.653c.023-.08.024-.149-.05-.23a.378.378 0 0 0-.214-.117 41.244 41.244 0 0 1-3.288 8.031.453.453 0 0 0-.015.03zm.221 1.839c-.359 0-.715-.09-1.026-.257-.925-.499-1.236-1.53-.739-2.452a39.48 39.48 0 0 0 3.135-7.654c.294-1.006 1.239-1.522 2.249-1.229.981.286 1.784 1.312 1.428 2.534a41.283 41.283 0 0 1-3.276 7.998 1.968 1.968 0 0 1-1.77 1.06z"/>
        </g>
        <path fill="#714F47" d="M168.019 145.249c-3.549-1.057-8.408-.572-11.515-2.622-9.215-6.079-18.132-12.603-26.085-19.958-1.732 3.043-3.49 6.113-4.962 8.644-1.98 3.405-4.264 6.659-6.281 10.044-1.668 2.8-1.198 5.604-3.614 8.164-3.083 3.264-8.897 3.956-11.525 7.294-1.752 2.225-1.19 4.89-1.528 7.626-1.556 12.604-21.254 25.47-6.318 36.777 5.948 4.504 13.309 7.351 20.168 10.15 5.545 2.26 11.501 2.486 14.46-3.34 2.522-4.961 2.779-10.337 7.098-14.385 3.887-3.643 9.532-4.613 13.383-8.086 5.49-4.95 9.918-12.032 13.657-18.363 3.325-5.63 7.422-11.951 7.113-18.783-.084-1.858-2.391-2.668-4.051-3.162"/>
        <g transform="translate(43 178.805)">
            <mask id="b" fill="#fff">
                <use xlink:href="#a"/>
            </mask>
            <path fill="#000" d="M94.585 27.1C93.715 25.572 55.256.492 50.389.215c-3.235-.183-6.437 4.868-7.899 6.616-5.907 7.073-63.059 75.697-64.452 89.873H53.2C67.297 83.775 88.01 43.141 93.97 31.768c1.104-2.106 1.282-3.493.614-4.668" mask="url(#b)"/>
        </g>
        <path fill="#FF7900" d="M93.283 182.847a1.138 1.138 0 0 0-.833-1.36 1.138 1.138 0 0 0-1.359.833c-.039.164-.083.327-.132.488-.02.045-.083.211-.105.257a4.542 4.542 0 0 1-.214.383c-.32.524-.058 1.248.46 1.525.565.302 1.207.064 1.527-.46.314-.516.515-1.081.656-1.666M98.087 186.901c.29-.362.354-.869.094-1.294-.312-.509-1.038-.712-1.55-.372-.223.15-.43.34-.545.59-.037.08-.064.159-.088.236-.29.362-.354.87-.094 1.294.312.51 1.038.713 1.55.372.223-.15.43-.34.544-.589.038-.082.065-.16.089-.237M95.034 191.996l.025-.026-.006.005c.362-.367.474-.92.185-1.393-.308-.502-1.044-.72-1.55-.372-.586.406-.802 1.017-.961 1.681a1.137 1.137 0 0 0 .832 1.36 1.138 1.138 0 0 0 1.36-.834c.033-.141.07-.282.115-.42M103.974 190.953c.324-.521.053-1.251-.46-1.526-.569-.304-1.202-.06-1.527.46a13.76 13.76 0 0 1-1.153 1.631c-.392.472-.415 1.155.053 1.593.429.401 1.2.42 1.594-.053a19.017 19.017 0 0 0 1.493-2.105M99.944 194.87c-.606-.146-1.2.239-1.358.832a1.437 1.437 0 0 0-.015.062 2.89 2.89 0 0 1-.16.304c-.01.018-.022.034-.032.051a1.863 1.863 0 0 1-.074.083c-.45.357-.61.98-.295 1.493.31.506 1.04.716 1.55.372.613-.415 1.03-1.13 1.217-1.838.157-.594-.245-1.219-.833-1.36M108.133 196.563v-.003c.05-.117.105-.233.158-.348.14-.302.278-.61.364-.933.156-.594-.247-1.218-.833-1.359-.607-.145-1.202.24-1.359.833-.01.038-.021.076-.033.113l-.001.003c-.049.118-.104.233-.157.348-.14.302-.278.61-.363.933-.157.594.246 1.217.832 1.359.608.145 1.202-.24 1.359-.833.01-.038.02-.076.033-.113M106.039 202.375c.319-.524.057-1.248-.462-1.526-.563-.301-1.206-.063-1.526.46a9.737 9.737 0 0 0-1.11 2.651c-.357 1.41 1.834 1.936 2.191.526.19-.75.496-1.44.907-2.11M114.091 199.96l.001-.002c.05-.118.104-.233.158-.348.14-.302.278-.611.363-.933.156-.594-.246-1.218-.833-1.359-.607-.146-1.202.24-1.359.833-.01.038-.02.075-.032.113l-.001.003c-.05.117-.104.232-.157.348-.14.301-.279.61-.364.933-.156.593.246 1.217.833 1.358.607.146 1.201-.239 1.36-.833.008-.037.02-.075.031-.112M111.132 206.801c.16-.593-.248-1.218-.832-1.359-.61-.146-1.2.24-1.36.833-.006.03-.017.059-.025.088l-.02.044c-.055.124-.121.244-.187.364-.148.268-.313.527-.475.788-.325.521-.054 1.25.46 1.526.568.304 1.201.06 1.526-.461.36-.576.734-1.16.913-1.823M118.23 203.178a1.137 1.137 0 0 0-.833-1.359 1.138 1.138 0 0 0-1.359.833l-.297 1.24a1.138 1.138 0 0 0 .832 1.358 1.138 1.138 0 0 0 1.359-.832l.298-1.24zM116.025 211.908c.046-.092.099-.18.154-.269a2.67 2.67 0 0 0 .3-.713c.16-.593-.247-1.219-.833-1.36-.609-.145-1.198.241-1.358.834v.002c-.048.092-.1.18-.155.268-.136.219-.233.464-.3.713-.16.593.248 1.219.832 1.358.61.147 1.2-.239 1.36-.832v-.001z"/>
        <g transform="translate(110.658 214.936)">
            <mask id="d" fill="#fff">
                <use xlink:href="#c"/>
            </mask>
            <path fill="#FF7900" d="M3.224 1.19C3.18.579 2.709.076 2.074.088 1.481.1.927.625.97 1.237c.008.116.01.229.006.344l-.003.01c-.014.095-.041.188-.068.28.07-.24-.145.187-.092.155-.032.037-.063.075-.098.11a.925.925 0 0 0-.03.034.733.733 0 0 0-.086.05c-.515.336-.7 1.015-.373 1.55.314.513 1.036.708 1.55.372 1-.654 1.529-1.761 1.448-2.951" mask="url(#d)"/>
        </g>
        <path fill="#FF7900" d="M126.608 203.823c-.036-.613-.52-1.116-1.15-1.103-.597.01-1.14.537-1.104 1.15.005.06.007.12.006.18v.008l-.012.053a2.04 2.04 0 0 1-.044.168l-.004.014a.884.884 0 0 0-.02.044c-.121.276-.287.531-.445.787-.325.521-.054 1.25.46 1.525.568.304 1.202.062 1.526-.46.448-.72.838-1.492.787-2.366M123.214 210.894c.38-1.405-1.813-1.927-2.192-.525-.219.807-.803 1.515-1.162 2.267-.265.553-.1 1.226.46 1.526.523.28 1.261.094 1.526-.46.451-.944 1.09-1.786 1.368-2.808M131.277 209.737c.387-.477.42-1.15-.052-1.594-.425-.397-1.207-.425-1.594.054-.72.89-1.213 1.898-1.691 2.931-.257.557-.105 1.223.46 1.526.518.277 1.268.097 1.527-.46.389-.841.763-1.733 1.35-2.457M108.047 212.996a1.856 1.856 0 0 0-.29-.832 1.137 1.137 0 0 0-1.55-.372 1.138 1.138 0 0 0-.453 1.386c-.13.591.245 1.198.836 1.34a1.138 1.138 0 0 0 1.36-.833c.053-.222.117-.461.097-.69M87.3 187.61a.962.962 0 0 0-1.15.705c-.047.2-.097.397-.158.593-.018.04-.038.079-.059.117-.375.305-.513.823-.245 1.258.26.426.882.611 1.31.315.63-.434.836-1.129 1.007-1.838a.963.963 0 0 0-.705-1.15M90.562 196.585c.133-.502-.208-1.03-.704-1.15-.514-.124-1.016.203-1.15.705l-.01.036c-.003-.004-.04.094-.058.126l-.035.055c-.021.033-.051.078-.063.093-.226.297-.45.594-.649.91-.279.437-.042 1.059.39 1.29.483.259 1.012.048 1.29-.39.29-.454.81-.996.99-1.675M95.557 200.592c-.54-.289-1.156-.062-1.463.442-.159.26-.3.531-.45.797-.117.208-.211.322-.389.438-.493.323-.671.972-.356 1.486.3.49.992.68 1.485.357.792-.519 1.14-1.277 1.615-2.057.306-.503.056-1.197-.442-1.463M101.223 210.768c.031-.432-.236-.848-.451-1.201a1.09 1.09 0 0 0-1.486-.357 1.091 1.091 0 0 0-.357 1.486l.05.082c-.044.073-.089.145-.134.216-.31.5-.052 1.2.442 1.463.544.291 1.152.059 1.463-.441.248-.399.438-.77.473-1.248M78.049 209.82a1.138 1.138 0 0 0-.833-1.359 1.138 1.138 0 0 0-1.36.833c-.038.164-.082.326-.132.487-.02.045-.082.211-.104.257a4.7 4.7 0 0 1-.214.383c-.32.524-.058 1.248.46 1.526.564.3 1.206.063 1.526-.461.315-.516.516-1.081.657-1.666M82.852 213.874c.29-.362.355-.869.095-1.293-.312-.51-1.038-.714-1.55-.373-.223.15-.43.34-.545.59-.037.08-.064.159-.088.236-.29.362-.355.87-.094 1.294.311.509 1.038.713 1.55.372.223-.15.43-.34.544-.588.037-.082.064-.16.088-.238M94.8 209.845v-.004c.05-.117.104-.232.158-.347.14-.302.278-.611.363-.934.157-.594-.246-1.217-.832-1.358-.607-.146-1.203.24-1.36.833a2.96 2.96 0 0 1-.032.113l-.001.003c-.05.117-.104.233-.158.347-.139.302-.278.611-.362.933-.157.594.245 1.218.832 1.36.607.145 1.202-.24 1.359-.834.01-.038.02-.076.032-.112"/>
        <g transform="translate(90.112 212.81)">
            <mask id="f" fill="#fff">
                <use xlink:href="#e"/>
            </mask>
            <path fill="#FF7900" d="M2.317 2.773l.001-.003c.05-.117.104-.232.158-.348.14-.302.278-.61.364-.933.156-.594-.247-1.217-.833-1.36C1.4-.014.804.37.647.964c-.01.038-.02.076-.032.113v.003c-.05.117-.105.233-.158.348a5.76 5.76 0 0 0-.363.933c-.157.593.246 1.218.832 1.359.607.145 1.202-.24 1.359-.833.01-.038.02-.076.032-.113" mask="url(#f)"/>
        </g>
        <path fill="#FF7900" d="M85.586 209.443l.001-.003c.05-.117.104-.233.158-.348.14-.302.278-.61.363-.933.157-.594-.246-1.218-.832-1.359-.608-.146-1.203.24-1.36.833a2.43 2.43 0 0 1-.032.113l-.001.003c-.05.118-.104.233-.157.348-.14.302-.279.61-.364.933-.156.594.246 1.218.833 1.359.607.145 1.202-.24 1.359-.833.009-.038.02-.076.032-.113M84.429 201.06l.001-.003c.05-.117.104-.233.158-.348.14-.302.278-.611.363-.933.157-.594-.246-1.218-.832-1.36-.607-.144-1.203.24-1.36.834-.01.038-.02.076-.032.113l-.001.003c-.049.117-.105.233-.157.348-.14.302-.279.61-.364.933-.156.593.246 1.217.833 1.359.607.145 1.202-.24 1.358-.833.01-.038.021-.076.033-.113M78.202 204.606l.001-.003c.05-.117.104-.232.158-.348.14-.302.278-.61.363-.933.157-.594-.246-1.217-.832-1.36-.607-.144-1.203.24-1.36.834-.01.038-.02.077-.032.113l-.001.003c-.049.117-.105.233-.157.348-.14.302-.279.61-.364.933-.156.593.246 1.218.833 1.359.607.145 1.202-.24 1.359-.833.009-.038.02-.076.032-.113M81.102 196.376l.001-.003c.05-.117.105-.232.158-.348.14-.302.278-.61.364-.933.156-.594-.247-1.217-.833-1.359-.607-.145-1.203.24-1.36.833-.009.038-.02.076-.032.113v.003c-.05.118-.105.233-.158.348-.14.302-.278.61-.363.933-.157.594.245 1.218.832 1.359.607.145 1.202-.24 1.36-.833.008-.038.02-.076.031-.113"/>
        <g transform="translate(70.276 214.228)">
            <mask id="h" fill="#fff">
                <use xlink:href="#g"/>
            </mask>
            <path fill="#FF7900" d="M1.79.356a.962.962 0 0 0-1.15.705 9.233 9.233 0 0 1-.158.592c-.018.04-.038.08-.059.117-.375.305-.512.823-.245 1.26.26.425.882.61 1.31.314.63-.435.836-1.129 1.007-1.838A.963.963 0 0 0 1.79.356" mask="url(#h)"/>
        </g>
        <path fill="#714F47" d="M180.995 133.465c.957.097 1.926.464 2.868 1.171.437.328-8.042 15.197-11.785 12.075-4.751-3.969 4.212-13.718 8.917-13.246"/>
        <path fill="#714F47" d="M172.566 121.818c-2.19.9-4.75 2.59-6.117 1.82-1.97-1.113 3.533-5.291 4.524-6.242 1.623-1.556 3.496-2.993 5.016-4.661.964-1.058 2.134-2.635 1.195-4.085-.985-1.52-2.705-.18-3.824.498-5.507 3.332-10.573 7.413-15.663 11.339-2.72 2.097-5.566 4.135-8.338 6.14-1.916 1.386-3.804 3.513-6.19 2.928-1.748-.43-3.808-2.625-5.088-.156-.74 1.426-1.077 3.228-1.328 5.046-.222 1.617-.376 3.246-.682 4.635-.507 2.302-.224 4.62.08 6.928.337 2.565-1.151 10.637-1.151 10.637 1.092 3.713.886 7.08 5.201 7.53 3.66.382 7.909-.716 11.005-2.719 1.813-1.172 2.133-2.613 4.453-2.144 1.893.383 3.62 1.864 5.646 1.52 1.657-.282 2.82-2.83 3.72-4.105 2.244-3.187 8.803-9.531 7.057-13.745-1.497-3.614-2.25-3.724-.657-7.85 1.35-3.498 5.069-6.841 5.039-10.805-.027-3.505-1.791-3.374-3.898-2.509M172.849 99.352c-.617.766-1.161 1.54-1.595 2.236-1.043 1.675-1.51 4.878-3.732 5.507-2.362.664-3.503-3.684-3.887-5.333-.903-3.88 2.682-6.602 5.689-8.42 3.317-2.005 6.342-1.448 8.04 2.051-1.587.756-3.213 2.342-4.515 3.96"/>
        <path fill="#714F47" d="M174.024 121.59l-1 1.784c.033.403.973 5.206 1.284 5.08 2.604-1.055 5.341-4.347 4.262-7.215-.48-1.28-2.855-4.428-4.425-2.707-.778.853.357 2.19-.12 3.057"/>
        <path fill="#838080" d="M162.907 82.394c-2.882-1.708-6.043-1.235-9.684-.796-3.72.45-8.619.964-12.344 1.35-3.6.373-7.428.75-11.02 1.199-3.197.4-8.625.935-11.136 3.133-2.238 1.96-3.044 5.86-3.106 8.776-.126 5.9 1.32 11.693 2.072 17.513.927 7.173 1.592 13.846 2.353 21.04.566 5.351 1.403 12.396 2.229 17.713.7 4.503.79 7.917 1.53 12.413.535 3.247.205 7.496 3.6 9.608 2.122 1.32 5.292 1.512 7.68 1.428 3.787-.133 7.515-.894 11.28-1.253 4.393-.416 8.733-1.139 13.07-1.941 3.81-.706 8.616-.368 12.074-2.124 3.925-1.994 4.605-6.186 4.19-10.77-1.573-17.446-4.589-34.86-5.941-52.218-.373-4.787-1.425-9.721-2.232-14.54-.674-4.023-.614-8.161-4.615-10.531"/>
        <path fill="#FFF" d="M159.106 89.098c-6.576.957-13.25 1.295-19.807 2.36-4.964.806-10.271.135-15.057 1.93-6.103 2.288-6.35 7.868-5.67 13.61l1.224 10.311 2.884 24.3 1.601 13.503c.437 3.683-.221 8.28 2.027 11.49.269.383.561.7.873.96 2.41 2.005 5.991.588 9.023.228 8.117-.962 16.234-1.925 24.35-2.889l12.942-1.535a3.994 3.994 0 0 1-.007-.057l-3.779-31.85c-1.452-12.234-2.827-24.44-3.885-36.7-.387-4.483-2.104-6.332-6.719-5.66"/>
        <path fill="#1B2734" d="M126.524 84.622c-.546-.222-1.463-.38-3.043-.015-.61.14-1.165.407-1.518.701.049.407.02.924.567 1.177.429.198 1.55.233 2.063.163.621-.085 1.093-.22 1.6-.517.742-.434.333-.974.33-1.509"/>
        <path fill="#000" d="M123.14 84.511c-.795.215-1.374 1.064-.179 1.205h.002c1.521.18 2.23-.785 1.696-1.179-.24-.177-.733-.238-1.518-.026M166.532 160.942c-2.564.287-28.501 3.435-31.6 3.813-8.447 1.03-8.033-5.238-8.167-6.389-.254-2.188-.294-2.485-.5-4.214l-2.244-18.892a8197.9 8197.9 0 0 1-.49-4.13c-.185-1.562-.37-3.124-.557-4.687-.33-2.777-2.771-23.353-3.123-26.127-.652-5.14 3.733-6.166 5.914-6.429 2.492-.3 4.613-.536 7.105-.834 5.361-.64 10.725-1.277 16.088-1.912 3.665-.433 5.326-.623 8.99-1.06 3.074-.366 6.072-.248 6.66 4.69.214 1.795.272 2.14.492 3.934.426 3.45 6.323 53.15 6.702 56.241.128 1.039.798 5.316-5.27 5.996m-9.655-77.107c-7.501.895-27.619 3.098-33.614 3.814-7.936.946-6.452 10.862-6.228 13.623.08 1.003 3.228 27.396 5.514 46.541 1.288 10.785 2.302 19.27 2.342 19.622.936 8.175 5.178 9.052 10.515 8.416l28.715-3.425c12.004-1.43 11.564-4.788 10.69-12.129-.283-2.363-1.714-15.083-3.24-28.6-1.535-13.598-3.166-28-3.817-33.467-.087-.732-.149-1.48-.21-2.224-.426-5.224-1.309-13.286-10.667-12.171"/>
        <path fill="#000" d="M148.39 86.828c-1.72.23-2.563.433-3.853.544-1.254.107-4.716.554-7.375.893-.613.079-6.827.306-4.547 1.975.656.478 2.077.068 2.815.019 1.845-.123 4.348-.482 6.571-.738 2.447-.282 3.79-.444 6.694-.796 2.451-.298 1.65-2.158-.305-1.897"/>
        <path fill="#81C8A6" d="M126.09 155.367c.015.15.03.297.047.446l.009-.001a1.71 1.71 0 0 1-.035-.337v-.11l-.02.002"/>
        <path fill="#838080" d="M156.97 166.162c-1.152-.167-2.606-.03-3.62.004-.933.03-3.489.403-5.452.681-.826.118-5.842.415-3.472 2.99.565.615 1.793.537 2.436.546 1.377.02 3.22-.315 4.866-.496 1.81-.199 2.802-.323 4.947-.59 1.815-.228 2.77-2.777.296-3.135"/>
        <path fill="#714F47" d="M165.593 106.7c-.28-1.094-.293-2.249.04-3.36 3.552.33 14.693 2.202 11.518 8.126-2.651 4.948-10.65-1.224-11.558-4.766M166.786 119.163c-.28-1.094-.293-2.249.04-3.36 3.553.33 14.693 2.202 11.52 8.126-2.652 4.948-10.653-1.224-11.56-4.766"/>
        <path fill="#66413E" d="M170.984 105.687c-1.296 2.37-3.905-.631-4.84-1.86-.368-.487-1.126.083-.755.571.837 1.101 1.84 2.172 3.082 2.811.565.292 1.238.432 1.86.257.715-.2 1.18-.773 1.523-1.4.294-.538-.58-.91-.87-.38M171.47 118.93c-1.066 1.27-3.185-.464-3.986-1.29-.419-.434-1.182.131-.757.57 1.271 1.313 3.908 3.189 5.489 1.308.393-.47-.353-1.055-.745-.587"/>
        <path fill="#714F47" d="M123.395 109.028c-1.42 4.092-4.475 7.276-7.493 10.318-2.29 2.308-5.938 4.373-7.757 7.12-.67 6.693-3.849 13.013-8.002 18.362-.3.811-.488 1.646-.492 2.516 0 .171.002.345.005.52.13 6.924.044 17.47.45 24.408 5.133 2.674 5.419 2.978 9.86 5.615.608-.385.9-3.853 1.483-4.283 1.785-1.316 3.243-2.955 5.154-4.11 1.161-.7 2.805-1.114 3.71-2.184 2.305-2.725.775-8.404.634-11.648-.226-5.268.624-10.81-.002-16.03-.493-4.107-.061-7.126 2.315-10.788.215-.33.559-.623.925-.911.421-.33.87-.654 1.186-1.021 1.375-1.601 2.23-3.857 2.5-5.992.47-3.72-.041-10.487-4.476-11.892"/>
        <path fill="#66413E" d="M124.852 114.824c-.308 1.163-1.107 2.096-2.264 2.462-1.09.345-2.264-.107-2.985-.95-.396-.462-1.156.106-.758.572.965 1.127 2.42 1.684 3.882 1.315 1.595-.403 2.652-1.709 3.063-3.256.157-.592-.783-.726-.938-.143"/>
        <path fill="#FF7900" d="M154.644 155.739c-3.853 3.852-10.099 3.852-13.95 0-3.853-3.853-3.853-10.098 0-13.95 3.851-3.853 10.097-3.853 13.95 0 3.852 3.852 3.852 10.097 0 13.95"/>
        <path fill="#D6D6D6" d="M132.322 120.971a1.328 1.328 0 0 1-.182-2.643l23.31-3.246a1.328 1.328 0 0 1 .368 2.63l-23.312 3.246a1.363 1.363 0 0 1-.184.013M132.617 127.463a1.328 1.328 0 0 1-.182-2.643l23.311-3.246a1.329 1.329 0 0 1 .367 2.63l-23.311 3.246a1.363 1.363 0 0 1-.185.013"/>
        <path fill="#FFF" d="M144.502 141.916c.81-.023 2.555 2.34 2.612 2.881.056.54-1.689 1.441-1.711 1.801-.023.36 4.446 4.998 4.863 5.043.416.045 1.148-1.947 1.71-1.98.563-.034 2.927 2.453 3.063 2.88.134.429-2.072 3.603-6.034 1.352-2.413-1.372-5.715-4.784-6.292-7.812-.371-1.945 1.472-4.156 1.79-4.165"/>
        <path fill="#FF7900" d="M150.225 103.414l2.256-18.24c.049-.84-.515-1.561-1.182-1.511l-19.026 1.435c-.663.05-1.112.84-.944 1.66l5 17.717c.167.82-.282 1.61-.945 1.66l-3.361.254c-.932.07-1.318 1.504-.63 2.335l12.484 15.07c.469.566 1.207.517 1.593-.105l10.424-16.797c.572-.922-.023-2.302-.963-2.231l-3.524.266c-.667.05-1.23-.672-1.182-1.513M154.216 79.121l-24.239 2.569c-5.553.588-10.533-3.437-11.121-8.99l-4.497-42.442c-.588-5.554 3.437-10.534 8.99-11.122l24.239-2.568c5.554-.588 10.533 3.437 11.121 8.99L163.206 68c.588 5.554-3.437 10.533-8.99 11.121"/>
        <g transform="translate(114.2 16.214)">
            <mask id="j" fill="#fff">
                <use xlink:href="#i"/>
            </mask>
            <path fill="#000" d="M49.33 36.323c-24.116 2.555-25.258-8.222-49.372-5.667l4.439 41.898 48.23-5.11-3.298-31.12z" mask="url(#j)"/>
        </g>
        <g transform="translate(194 1)">
            <circle cx="35" cy="35" r="35" fill="#CD3C14"/>
            <g fill="#FFF">
                <path d="M20.187 14l34.648 34.648-6.187 6.187L14 20.187z"/>
                <path d="M48.648 14L14 48.648l6.187 6.187 34.648-34.648z"/>
            </g>
        </g>
    </g>
</svg>
