<svg xmlns="http://www.w3.org/2000/svg" xmlns:xlink="http://www.w3.org/1999/xlink" width="50" height="50" viewBox="0 0 50 50">
    <defs>
        <circle id="a" cx="25" cy="25" r="25"/>
        <path id="c" d="M0 0h30.864v57.407H0z"/>
        <path id="e" d="M.617 0h25.926v38.272H.617z"/>
    </defs>
    <g fill="none" fill-rule="evenodd">
        <mask id="b" fill="#fff">
            <use xlink:href="#a"/>
        </mask>
        <use fill="#EEE" fill-rule="nonzero" xlink:href="#a"/>
        <g mask="url(#b)">
            <g transform="translate(-3.086 16.05)">
                <mask id="d" fill="#fff">
                    <use xlink:href="#c"/>
                </mask>
                <path fill="#714E46" d="M13.396 1.14c.184-.747 3.094-3.652 6.002 4.237 2.907 7.89 1.814 8.669 2.21 11.92.395 3.253 9.188 7.607 9.188 7.607s.512.32-1.267 2.191c-1.778 1.873-3.63 4.356-6.576 10.577-3.104 6.56-10.304 19.735-10.304 19.735H0v-4.32s14.68-25.283 14.684-27.28c.004-1.998.302-3.776.844-9.05.337-3.265.504-2.954-.275-8.239-.774-5.246-2.175-6.085-1.857-7.379" mask="url(#d)"/>
            </g>
            <g transform="translate(12.346 6.173)">
                <mask id="f" fill="#fff">
                    <use xlink:href="#e"/>
                </mask>
                <path fill="#000" d="M7.12 35.91c.361 1.636 2.013 2.66 3.684 2.283l13.294-2.996c1.673-.377 2.737-2.012 2.374-3.652l-6.431-29.18C19.678.727 18.03-.298 16.357.078L3.064 3.074C1.39 3.452.325 5.09.688 6.73L7.12 35.91z" mask="url(#f)"/>
            </g>
            <path fill="#707070" d="M30.21 39.478a1.547 1.547 0 0 1-1.174 1.843 1.541 1.541 0 0 1-1.838-1.171 1.542 1.542 0 1 1 3.012-.672M24.067 9.519a.343.343 0 0 1-.245.401l-2.44.565c-.176.042-.346-.074-.388-.254a.337.337 0 0 1 .246-.398l2.442-.565a.324.324 0 0 1 .385.25M20.363 10.118a.309.309 0 1 1-.603.134.309.309 0 0 1 .603-.134"/>
            <path fill="#714E46" d="M12.667 32.641c.276-2.548.276-4.9-.275-8.165-.876-5.183-2.166-6.031-1.85-7.313.185-.74 2.96-3.572 5.978 4.2 1.398 3.604 1.358 14.305 1.963 17.766.38 2.18-2.388.12-2.444-.044-.056-.164-3.372-6.444-3.372-6.444"/>
            <path fill="#FAEB4F" d="M35.802 34.906L30.038 9.26l-3.622.8-3.643.805-7.958 1.76 5.765 25.648 3.346-.74.806-.178v.002z"/>
            <path fill="#469751" d="M30.224 27.074a5.804 5.804 0 0 1-1.564 1.58 5.645 5.645 0 0 1-6.407-.049 5.791 5.791 0 0 1-1.545-1.6 5.902 5.902 0 0 1-.855-2.158 6.072 6.072 0 0 1-.1-1.086c.048.005.099.005.151.022.027.033.045.026.09.023.094.018.19.056.285.038.116-.055.15-.11.247-.024.087.078.273.088.382.088.063 0 .118-.014.174.018.05.028.084.082.128.118a.484.484 0 0 0 .292.13c.078.004.16-.005.24 0l.126-.189c-.218.005-.398-.122-.583-.225a.951.951 0 0 0-.324-.13c.003 0-.017-.305-.074-.338-.143-.084-.243.178-.34.24-.232.152-.416-.019-.482-.261-.158-.569.691-.867 1.103-.653.042.021.202.188.243.166.068-.036-.025-.255-.031-.303-.018-.146-.02-.21.102-.319a.447.447 0 0 0 .132-.231c.015-.059.018-.11.049-.154a.58.58 0 0 1-.11-.468.565.565 0 0 1 .443-.446l.418-.08c-.01-.005-.018-.01-.027-.012a.399.399 0 0 0-.03-.01.33.33 0 0 0-.124-.021c-.01 0-.019.004-.028.004-.005 0-.02 0-.014-.007.003-.003.012-.004.016-.005l.023-.01a.477.477 0 0 1 .048-.015c.059-.013.118-.007.177-.006.03 0 .059 0 .087-.003a.135.135 0 0 0 .045-.01c.01-.005.042-.001.037-.011-.007-.01-.032-.015-.028-.032.003-.01.018-.02.026-.026.01-.008.022-.015.035-.022.054-.03.105-.062.161-.087a.424.424 0 0 1 .12-.032c.01-.001.029-.005.039.001.01.007.002.022-.003.03-.006.013-.013.026-.017.04a.347.347 0 0 0-.018.124l.001.009.428-.083c-.057-.041-.165-.061-.21-.117-.054-.069-.04-.173-.112-.238-.077-.067-.178-.047-.266-.08-.126-.048-.21-.17-.333-.222-.186-.078-.245.047-.422.066-.11.012-.184-.059-.276-.103a.69.69 0 0 0-.541-.042c.053-.063.107-.123.164-.183h.008c.164-.009.319.052.478.072.034.004.268-.02.247-.03-.045-.02-.218-.026-.097-.064.056.002.2.023.213-.038.065-.074.101-.08.2-.099.08-.084.16-.152.156-.266-.037-.056-.016-.108-.042-.157-.13-.009-.12-.077-.12-.161a.343.343 0 0 0-.126-.041 5.509 5.509 0 0 1 .416-.26c.095.036.168.097.162.186.052 0 .11-.008.156-.036.01-.007.018-.025.03-.025.016 0 .025.022.033.032l.012.015.039-.015a.246.246 0 0 1 .039-.006c.023 0 .047.002.068.015.008.004.036.016.032.029-.003.01-.023.012-.03.014l-.03.008-.047.016c-.014.005-.028.011-.043.012-.02.02.054.008.08.015.02.006.043.004.062.012.035.015-.027.04-.037.046a.942.942 0 0 0-.055.045.26.26 0 0 0-.057.069.125.125 0 0 0-.016.07.159.159 0 0 0 .033.077.65.65 0 0 0 .082.09l.01.01c.162.138.514.312.729.243.235-.074.157-.384.37-.515.214-.132.441-.24.671-.336.064-.028.125-.064.185-.097.085-.049.173-.086.262-.124l.047-.015c.005-.002.041-.016.023-.022-.012-.004-.027-.002-.04-.002l-.045.001c-.027.001-.055.003-.082-.004-.007-.002-.02-.002-.02-.011 0-.012.017-.013.025-.013.032-.004.064-.014.096-.02.033-.006.067-.013.099-.024l.046-.016c.008-.003.02-.003.018-.014a.074.074 0 0 0-.03-.04c-.005-.004-.014-.006-.02-.01-.009-.008-.006-.014-.002-.025.005-.015.012-.03.013-.047.001-.017-.002-.036-.003-.054-.002-.04.069-.062.095-.073.037-.016.098-.047.103-.094.006-.05-.045-.062-.057-.102a5.649 5.649 0 0 1 2.386.638c-.107.128-.154.303.136.361.11.022.173-.118.266-.13.053.034.106.069.158.105.012.023.018.048.006.074-.013.032-.058.08-.096.064-.048-.022-.01-.13-.091-.129a.15.15 0 0 0-.13.096c-.026.068.084.139.056.207-.036.088-.174.051-.24.097-.133.094-.233.26-.375.361-.065.046-.15.056-.224.08-.048.014-.128.036-.147.09-.021.066.171.106.21.124.102.047.16.121.072.222-.11.126-.383-.024-.509.1a.096.096 0 0 0-.015.021h.001a.58.58 0 0 1 .21.515.53.53 0 0 1 .326-.051l.004-.005c.02-.015.043-.024.057-.045.025-.034.003-.079.01-.117.005-.04.03-.065.05-.096.014-.022.022-.05.04-.069.029-.029.075-.03.109-.053.053-.04.006-.11.051-.156.033-.032.08-.025.12-.02.11.011.166-.066.264-.093.01-.003.024-.024.034-.03.03-.02.073-.031.107-.011.026.015.04.047.064.067.036.032.088.04.13.058.049.02.078.023.127.027.054.004.107.044.16.06.04.012.105.03.113.08.015.09-.136.094-.187.107-.018.004-.093.024-.095.045-.005.031.134.053.155.053.058-.001.075-.046.107-.088.027-.035.067-.061.083-.104.015-.035-.013-.064-.014-.099-.002-.029.02-.033.025-.056.008-.045-.089-.064-.116-.069a.467.467 0 0 0-.078-.007c-.017 0-.051.008-.067.002-.054-.024-.07-.076-.124-.105-.183-.052-.065-.191.029-.106.118-.018.17.103.302.088.076.069.144.011.207.104.032.131.057.125.188.185.045.022.055.166.134.128.025-.014.05-.053.069-.074.01-.012.036-.032.041-.048.017-.048-.06-.036-.08-.06-.092-.108.07-.176.155-.188a.073.073 0 0 1 .064.021l.024.032c.018.029.03.065.043.092a.198.198 0 0 0 .063.082c.013.01.027.016.041.021a5.812 5.812 0 0 1 .284.436c-.05.025-.1.048-.158.04a.423.423 0 0 0-.127-.003c-.08.015-.142-.011-.219-.017-.06-.004-.131-.026-.19-.018-.076.009-.136.06-.14.137-.002.031.002.069-.027.09-.047.034-.115-.005-.167-.005-.04 0-.082.003-.122-.006a.17.17 0 0 1-.05-.02c-.013-.01-.03-.039-.043-.042a.452.452 0 0 0-.199-.012.28.28 0 0 1-.173-.02c-.092-.046 0-.085-.027-.152-.005-.011-.035-.036-.035-.043.007-.117-.107-.067-.187-.03-.154.044-.361.027-.484.115a.852.852 0 0 0-.163.057c.018.01.036.02.053.032l.788.552c.55.385.732 1.117.457 1.715l.014.01c.072.064.042.225.061.31a.51.51 0 0 0 .169.285c.149.148.332.296.337.527.005.194-.154.351-.047.545.094.168.24.253.32.442.065.157.11.19.214.298.113.118.34.676.559.31a.138.138 0 0 1 .046-.017 5.878 5.878 0 0 1-.64 1.259zm-9.188-6.327c.108-.13.225-.256.348-.377.036.079.128.221.135.232.095.174-.061.079-.12.2-.026.05.055.081.04.122-.06.175-.25-.062-.375-.103a.375.375 0 0 0-.076-.015l.048-.06zm10.95 1.822a6.48 6.48 0 1 0-12.738 2.394 6.48 6.48 0 0 0 12.738-2.394zm-4.116-.964l-.796 1.133-1.365 1.945-1.635 2.328c.014.01.027.02.041.028l.013.009a.245.245 0 0 0 .028.017l.015.009.024.013.016.008.025.011.014.007.027.01.013.004a.479.479 0 0 0 .043.013l.034.008a.308.308 0 0 0 .039.007l.015.001a.272.272 0 0 0 .023.003h.04l.015.001h.038l.038-.004.008-.001.031-.004.015-.003.023-.004c.005 0 .01-.002.014-.003l.018-.003h.014l.048-.01 4.115-.752-1.507-1 1.488-2.12.031-.045a.76.76 0 0 0-.206-1.076l-.797-.53zm-4.512 4.32c.139-.196.95-1.354 1.425-2.032l.347-.495s2.039-2.888 2.03-2.895c-.013-.01-.027-.019-.04-.027l-.012-.009a.624.624 0 0 1-.041-.024l-.027-.014-.012-.006-.038-.016h-.003l-.035-.013-.012-.003-.026-.006-.013-.003a.475.475 0 0 0-.026-.005l-.012-.001a.37.37 0 0 0-.037-.004h-.003l-.034-.002h-.012l-.026.001-.013.001-.026.002c-.004 0-.007.004-.01.004-.013.002-.025.007-.037.008l-.005.001c-.01.002-.021 0-.032.002l-.06.01-.012.004c-.02.005-.04.011-.06.014l-4.112.754 1.5.97-.881 1.253-.64.911a.78.78 0 0 0-.099.701.76.76 0 0 0 .299.389l.694.463.101.068zm-.076.618a.844.844 0 0 1-.37.05c.015.105.044.207.047.311.004.139-.057.272-.092.406-.01.04-.024.09-.003.128.033.061.125.058.096.138-.022.058-.063.112-.094.167-.018.03-.033.064-.024.098.006.024.032.043.034.068.003.035-.032.064-.033.097 0 .042.04.088.07.121.13.139.574.335.803.245.084-.032.11-.148.087-.21-.033-.086-.089-.03-.174-.04-.155-.017.046-.283.016-.355-.012-.031-.052-.052-.062-.085-.026-.09.169-.276.26-.322.095-.048.156-.117.231-.177a1.704 1.704 0 0 1-.544-.204c-.184-.107-.27-.273-.248-.436zm3.992-7.152c.03-.003.065-.01.094.002.01.003.064.05.043.06-.025.011-.064.008-.072.039-.003.016.009.03.002.047-.005.012-.027.021-.028.034 0 .033.05 0 .06.023.01.026-.068.064-.063.104.005.033.01.066.051.048.048-.021.074-.071.117-.099.014-.008.046-.012.055-.02.048-.045.125-.024.182-.042.051-.015.075-.077.056-.125-.009-.025-.019-.02-.046-.02-.056.003-.07-.014-.103-.053-.037-.043-.107-.055-.152-.09-.019-.012-.04-.034-.038-.056.001-.025.045-.066-.004-.076-.026-.006-.05.011-.076.013-.036 0-.017-.034-.043-.043-.02-.007-.062.015-.078.024a.157.157 0 0 0-.065.065c-.015.037.006.047.019.076.032.074.056-.012.089.09z"/>
            <path fill="#714E46" d="M36.377 22.344c.206.939-.354 1.878-1.252 2.093l-3.455.827c-.898.215-1.793-.373-1.998-1.312-.206-.939.355-1.876 1.252-2.091l3.454-.829c.897-.215 1.794.372 1.999 1.312M37.613 29.11c.198.923-.338 1.843-1.196 2.057l-3.603.888c-.857.213-1.713-.365-1.91-1.286-.196-.924.341-1.846 1.198-2.057l3.602-.89c.858-.212 1.713.364 1.91 1.288"/>
            <path fill="#714E46" d="M38.846 32.076c.208.839-.363 1.675-1.278 1.869l-2.77.583c-.916.193-1.829-.332-2.038-1.17-.212-.84.36-1.679 1.278-1.87l2.77-.584c.914-.192 1.826.333 2.038 1.172M36.993 25.406a1.716 1.716 0 0 1-1.306 2.055l-3.932.89c-.936.212-1.868-.365-2.08-1.288a1.711 1.711 0 0 1 1.303-2.055l3.931-.89a1.742 1.742 0 0 1 2.084 1.288"/>
        </g>
    </g>
</svg>
