<svg xmlns="http://www.w3.org/2000/svg" xmlns:xlink="http://www.w3.org/1999/xlink" width="40" height="40" viewBox="0 0 40 40">
    <defs>
        <circle id="a" cx="20" cy="20" r="20"/>
        <path id="c" d="M0 .04h39.288v51.842H0z"/>
        <path id="e" d="M.312.306h21.936v35.097H.312z"/>
        <path id="g" d="M.167.306h26.932v16.722H.167z"/>
    </defs>
    <g fill="none" fill-rule="evenodd">
        <mask id="b" fill="#fff">
            <use xlink:href="#a"/>
        </mask>
        <use fill="#4BB4E7" fill-rule="nonzero" xlink:href="#a"/>
        <g mask="url(#b)">
            <g transform="translate(-13 34.812)">
                <mask id="d" fill="#fff">
                    <use xlink:href="#c"/>
                </mask>
                <path fill="#595959" d="M38.87 50.596c1.231-17.22-.572-31.292-1.38-38.383-.807-7.092-4.406-8.97-4.406-8.97L25.34.146 20.283.04l-5.068.106-7.734 3.099s-3.574.82-4.78 8.874c-1.056 7.059-4.845 27.041-1.048 39.764l6.264-1.286h30.952z" mask="url(#d)"/>
            </g>
            <path fill="#664939" d="M11.209 32.439v1.492c0 2.145-1.755 2.94-3.9 2.94-2.146 0-3.901-.795-3.901-2.94v-1.492h7.8z"/>
            <path fill="#775742" d="M20.804 15.608c0 9.79-6.042 17.728-13.496 17.728-7.453 0-13.496-7.937-13.496-17.728S-.145 1.019 7.308 1.019c7.454 0 13.496 4.798 13.496 14.589"/>
            <path fill="#775742" d="M23.355 17.107c0 2.129-1.374 3.854-3.07 3.854-1.694 0-3.068-1.725-3.068-3.854s1.374-3.147 3.069-3.147c1.695 0 3.069 1.018 3.069 3.147M-2.6 17.107c0 2.129-1.374 3.854-3.069 3.854-1.695 0-3.069-1.725-3.069-3.854s1.374-3.147 3.07-3.147c1.694 0 3.068 1.018 3.068 3.147"/>
            <path fill="#A885D8" d="M10.291 36.871l-3.04 7.192-3.039-7.192z"/>
            <path fill="#A885D8" d="M10.836 73.74L8.493 41.082H6.01L3.667 73.74l3.65 4.238z"/>
            <path fill="#FFF" d="M7.299 36.87l-3.37 3.597-1.86-5.477 1.34-1.477s.95 2.663 3.9 3.357"/>
            <path fill="#FFF" d="M7.308 36.87l3.37 3.597 1.86-5.438-1.339-1.516s-.951 2.663-3.9 3.357"/>
            <path fill="#000" d="M1.186 15.28a1.205 1.205 0 1 1-2.411.001 1.205 1.205 0 0 1 2.41 0M15.842 15.28a1.205 1.205 0 1 1-2.411.001 1.205 1.205 0 0 1 2.411 0"/>
            <path fill="#664939" d="M7.313 20.908l-1.88-.404a.69.69 0 0 0 .652.92h2.628c.476 0 .81-.471.652-.92l-2.052.404z"/>
            <path fill="#FFF" d="M10.963 24.862s-1.97 1.201-3.708 1.201c-1.738 0-3.708-1.201-3.708-1.201h7.416z"/>
            <g transform="translate(11.706 30.93)">
                <mask id="f" fill="#fff">
                    <use xlink:href="#e"/>
                </mask>
                <path fill="#595959" d="M18.354 35.403c-2.968 0-7.377-3.984-18.042-16.309l5.986-5.178a247.267 247.267 0 0 0 6.551 7.268C11.401 15.064 9.474 9.44 7.424 2.168L14.032.306c9.543 33.852 9.073 32.164 6.96 33.956-.837.709-1.66 1.141-2.638 1.141" mask="url(#f)"/>
            </g>
            <g transform="translate(-6.294 -2.953)">
                <mask id="h" fill="#fff">
                    <use xlink:href="#g"/>
                </mask>
                <path fill="#000" d="M13.602.306C5.474.306.167 6.236.167 16.913l.8-2.389s3.125-2.24 7.75-4.13l-.675 2.114s9.461-4.907 14.978-4.555l4.079 9.075C27.099 6.351 21.73.306 13.602.306" mask="url(#h)"/>
            </g>
            <path fill="#FF7900" d="M19.192 31.045l-3.504-.734c-.178-.038-.258-.268-.178-.516l5.469-16.79c.08-.247.28-.385.447-.309l3.255 1.495c.151.07.212.317.135.551l-5.191 15.939c-.077.235-.27.398-.433.364"/>
            <path fill="#775742" d="M19.161 33.225s-3.402-11.705 1.284-12.549c3.353-.64 5.324 10.687 5.324 10.687l-6.608 1.862z"/>
        </g>
    </g>
</svg>
