<svg xmlns="http://www.w3.org/2000/svg" width="16" height="16" viewBox="0 0 16 16">
    <path fill="#333" fill-rule="evenodd" d="M9.07 14.895l-.808.773a.814.814 0 0 1-.598.246.814.814 0 0 1-.598-.246l-6.82-6.82A.814.814 0 0 1 0 8.25c0-.234.082-.434.246-.598l6.82-6.82a.814.814 0 0 1 .598-.246c.234 0 .434.082.598.246l.808.774c.164.164.24.363.229.597a.88.88 0 0 1-.264.598L4.816 6.844h10.09c.235 0 .434.082.598.246a.814.814 0 0 1 .246.598v1.125a.814.814 0 0 1-.246.597.814.814 0 0 1-.598.246H4.816l4.22 4.043a.88.88 0 0 1 .263.598.756.756 0 0 1-.229.598z"/>
</svg>
