<svg xmlns="http://www.w3.org/2000/svg" width="15" height="15" viewBox="0 0 15 15">
    <path fill="#FFF" fill-rule="evenodd" d="M8.638 14.002l-.77.757A.765.765 0 0 1 7.3 15a.765.765 0 0 1-.57-.24L.235 8.084A.807.807 0 0 1 0 7.5c0-.23.078-.424.234-.585L6.73.241A.765.765 0 0 1 7.3 0c.222 0 .412.08.568.24l.77.758c.157.16.23.355.218.585a.872.872 0 0 1-.251.584L4.587 6.124h9.61c.223 0 .412.08.569.24.156.161.234.356.234.586v1.1c0 .23-.078.425-.234.585a.765.765 0 0 1-.57.241H4.587l4.018 3.957c.156.16.24.355.251.584a.751.751 0 0 1-.218.585z"/>
</svg>
