<svg xmlns="http://www.w3.org/2000/svg" xmlns:xlink="http://www.w3.org/1999/xlink" width="39" height="39" viewBox="0 0 39 39">
    <defs>
        <path id="a" d="M1.165 6.335C.522 6.335 0 6.868 0 7.525v5.95c0 .657.522 1.19 1.165 1.19H6.41l5.244 4.76V1.575L6.41 6.335H1.165zm17.108-3.013l-1.316 1.175c3.035 3.402 3.035 8.604 0 12.006l1.316 1.175c3.606-4.077 3.606-10.279 0-14.356zm-4.387 3.92l-1.317 1.176a3.02 3.02 0 0 1 0 4.165l1.317 1.177a4.834 4.834 0 0 0 0-6.518zm2.193-1.96l-1.316 1.175c2.073 2.28 2.073 5.806 0 8.086l1.316 1.176c2.645-2.955 2.645-7.483 0-10.438z"/>
    </defs>
    <g fill="none" fill-rule="evenodd">
        <circle cx="19.5" cy="19.5" r="19.5" fill="#4BB4E7" fill-rule="nonzero"/>
        <g transform="translate(9 9)">
            <mask id="b" fill="#fff">
                <use xlink:href="#a"/>
            </mask>
            <g fill="#FFF" mask="url(#b)">
                <path d="M0 0h21v21H0z"/>
            </g>
        </g>
    </g>
</svg>
