<svg xmlns="http://www.w3.org/2000/svg" xmlns:xlink="http://www.w3.org/1999/xlink" width="64" height="64" viewBox="0 0 64 64">
    <defs>
        <circle id="a" cx="30" cy="30" r="30"/>
        <path id="c" d="M0 .005h17.03v13.364H0z"/>
        <path id="e" d="M.036.188h26.193v27.67H.036z"/>
        <path id="g" d="M.266.343h12.598v2.504H.266z"/>
        <path id="i" d="M0 .015h3.188V5.43H0z"/>
        <path id="k" d="M.153.053H5.84V3.36H.153z"/>
    </defs>
    <g fill="none" fill-rule="evenodd">
        <circle cx="30" cy="30" r="30" fill="#FFF" transform="translate(2 2)"/>
        <g transform="translate(2 2)">
            <mask id="b" fill="#fff">
                <use xlink:href="#a"/>
            </mask>
            <circle cx="30" cy="30" r="31" stroke="#FAFAFA" stroke-width="2"/>
            <path fill="#FFF" fill-rule="nonzero" d="M40.256 22.64H34.4c.12-5.697 3.864-9.84 9.68-9.84 7.53 0 9.92 4.621 9.92 7.689 0 3.864-1.633 5.418-3.346 6.732-1.713 1.275-3.546 2.31-3.904 4.661v1.514h-5.378v-1.793c.239-3.466 1.872-5.02 3.465-6.254 1.554-1.235 2.909-2.151 2.909-4.303 0-2.43-1.275-3.585-3.387-3.585-2.868 0-4.063 2.35-4.103 5.179zm.558 19.281v-6.135h6.254v6.135h-6.254z" mask="url(#b)" transform="rotate(10 44.2 27.36)"/>
            <g mask="url(#b)">
                <path fill="#EEEEEA" d="M61.865 236.538c-20.524 3.619-37.708 3.455-38.382-.365-.674-3.82 15.418-9.851 35.943-13.47 20.524-3.619 37.708-3.456 38.382.364.673 3.82-15.419 9.852-35.943 13.47"/>
                <path fill="#725048" d="M63.34 51.74s13.898 2.617 21.149 1.105c10.78-2.249 17.008-5.624 17.008-5.624s1.27-7.928 3.209-9.76c1.937-1.832 2.827-3.387 3.485-4.417.658-1.029 1.389 1.844.08 3.694-1.31 1.85-1.71 1.823-.716 3.737.994 1.914 7.085 1.456 8.144 1.067 1.058-.39 7.312-3.455 8.521-1.744 1.21 1.71-5.742 2.982-5.742 2.982l-4.105 5.786s-9.189 1.693-9.852 2.931c-.664 1.239-10.641 14.676-29.861 15.107-3.664.082-15.922-3.393-17.196-5.587-1.274-2.195 3.973-8.702 5.875-9.277"/>
                <path fill="#BFBFBF" d="M49.375 76.442a4.607 4.607 0 0 1-1.012-.483c-.263-.173-.563-.26-.847-.22-2.309-1.832-3.973-4.7-5.548-7.09a51.505 51.505 0 0 1-4.262-7.895c-2.2-5.082-3.666-10.436-5.076-15.782 17.73-3.32 38.907 7.118 38.907 7.118l-8.956 13.25-12.545-3.491c-4.156-1.105-5.023-.129-4.271 4l3.61 10.593z"/>
                <path fill="#F1F2F2" d="M65.09 67.153c-.99-.167-1.997-.251-2.99-.407-.13-.02-.514-.124-.706-.168a2.821 2.821 0 0 0-.322-.395 1.105 1.105 0 0 1 .112-.69L68.691 51.8c.45-.888 1.333-1.023 2.24-.711.969.333 1.442.453 2.339.87.883.41 1.262 1.414.89 2.354-1.049 2.65-5.098 11.154-7.028 13.25a36.72 36.72 0 0 0-2.043-.41"/>
                <path fill="#D6D6D6" d="M73.463 53.476l-.716.98c-.18.245-.583.253-.784.088-.239-.197-.205-.506-.025-.753l.715-.98c.18-.245.583-.253.785-.088.238.197.205.507.025.753M72.579 56.007l-.748 1.75c-.117.276-.504.387-.75.28-.285-.124-.344-.43-.227-.705l.747-1.751c.118-.275.505-.387.752-.28.284.125.343.43.226.706M70.793 59.637c-.138.512-2.255 4.328-2.636 4.728-.503.528-1.313-.135-.809-.665.248-.26 2.276-3.89 2.367-4.226.182-.68 1.26-.518 1.078.163"/>
                <path fill="#4F4F51" d="M42.988 45.06l-.103 1.07c-.027.29-.22.557-.544.59-.273.027-.593-.187-.565-.478l.103-1.071c.028-.289.22-.556.544-.589.273-.027.594.186.565.477M43.005 48.661c.165.478.179 1.005.044 1.515-.18.68-1.258.519-1.078-.162.089-.34.077-.655-.033-.971-.219-.636.848-1.018 1.067-.382M43.37 51.667l.375 1.757c.14.657-.926 1.046-1.067.382l-.375-1.757c-.14-.657.926-1.046 1.067-.382M44.352 55.668l.242 1.59c.042.282-.271.56-.544.588-.33.034-.523-.194-.566-.477l-.241-1.59c-.043-.281.27-.56.544-.588.33-.033.522.194.565.477M45.26 59.066c.036.35.195.642.42.9.185.213.05.592-.184.75-.28.187-.577.097-.762-.116-.349-.398-.528-.89-.583-1.423-.03-.284.261-.56.544-.588.319-.032.536.19.565.477"/>
                <path fill="#725048" d="M37.475 219.295l.526 10.575 6.98-1.23-3.149-11.217zM65.036 220.016l.648-5.816-2.043-5.894 7.142-1.259.294 5.466 4.992 6.477-6.336 2.037z"/>
                <path fill="#000" d="M72.991 213.41s3.222 5.745 9.14 6.623c5.916.878 5.571.877 6.077 2.251.506 1.375.288 1.78.288 1.78s-5.99 3.508-12.303 1.528c-4.861-1.525-6.447-1.05-8.207-.864-.87.091-2.871.776-3.11-1.198-.223-1.838-.78-4.977.294-7.094l5.296 1.72s-1.711-1.803-1.487-2.758c.225-.954 1.547-2.011 4.012-1.988M44.184 225.175s-.75-2.574-1.86-2.973c-.771-.277-2.688.284-3.787.653-.487.164-.832.564-.875 1.02-.05.53-.118 1.26-.181 1.887-.114 1.144-2.475 5.788-3.232 6.648-.757.86-.693 3.28.231 3.771 2.023 1.075 7.687.086 11.1-2.366 0 0 .357-1.946.077-3.218-.28-1.272-.07-1.067-.142-1.516-.073-.45.361-1.861-1.331-3.906"/>
                <path fill="#5A5A5A" d="M82.982 226.824c3.118-.55 5.77-2.097 5.919-2.186.367-.218.484-.65.26-.967-.223-.317-.703-.398-1.07-.181-.045.026-4.488 2.612-8.202 2.054-2.07-.31-3.463-.663-4.583-.947-1.07-.271-1.916-.485-2.837-.525-.688-.03-1.657.05-2.683.136-1.26.104-3.371.28-3.834.029a.862.862 0 0 0-1.081.248.635.635 0 0 0 .219.953c.82.444 2.416.35 4.755.156.97-.08 1.886-.156 2.463-.132.747.033 1.481.22 2.497.476 1.154.293 2.591.657 4.744.98 1.142.172 2.317.103 3.433-.094"/>
                <path fill="#BFBFBF" d="M21.997 88.544a4.63 4.63 0 0 0 .396-1.049c.07-.307.227-.578.459-.746.398-2.92-.387-6.141-.903-8.957a51.485 51.485 0 0 0-2.39-8.648c-1.93-5.19-4.579-10.07-7.262-14.903-15.039 8.106-22.526 32.745-22.526 32.745l13.907 3.811 7.32-11.538c2.235-3.674 3.956-4.36 6.271-.86l4.728 10.145z"/>
                <path fill="#BFBFBF" d="M23.62 111.193c8.011-1.556 25.826-5.82 33.528-8.38L45.395 66.324c-.326-.245-1.42-.5-1.735-.756-1.906-1.545-3.617-3.295-5.057-5.222-1.545-2.07-2.658-4.331-3.746-6.632-.708-1.498-1.47-2.982-2.151-4.49-.557-1.235-.826-2.569-1.357-3.808-1.268.839-2.421.722-2.421.722s-2.813.667-4.333 1.562c-.673.397-4.729 2.554-7.826 3.06-.018.008-.463.369-.666.537a13.006 13.006 0 0 0-.614 1.278c-.384.062-.78.115-1.182.164l-.36.276c3.167 5.706 9.673 58.178 9.673 58.178"/>
                <path fill="#50BE87" d="M25.871 65.488l-10.41-13.664c-1.433 1.158-2.92 2.263-4.42 3.353l5.35 24.7 4.218 18.649s14.73 5.964 15.095-2.86c.186-4.515-9.833-30.178-9.833-30.178M28.818 45.95l1.776 4.354 5.301 15.376s9.79 24.743 11.982 27.104c4.312 4.65 7.001-3.745 7.001-3.745l-7.417-20.083L33.63 44.43l-4.811 1.52z"/>
                <path fill="#FFF" d="M17.916 54.136l-.278-5.31s1.02-.313 1.327-.007c.305.306 5.906-1.097 5.906-1.097s2.68-3.406 3.461-2.814c.781.592 2.873 7.517 2.873 7.517l3.236 9.995-4.886-4.06-1.991.722s-1.415 6.992-1.721 6.686c-.306-.306-7.927-11.632-7.927-11.632"/>
                <path fill="#62352E" d="M26.58 37.127s1.638 8.532 2.386 12.094c.194.922-.93 8.482-.93 8.482l-8.546-3.819s-2.54-8.86-4.917-13.882c0 0 11.462 3.936 12.008-2.875"/>
                <g transform="rotate(-10 477.03 116.357)">
                    <mask id="d" fill="#fff">
                        <use xlink:href="#c"/>
                    </mask>
                    <path fill="#F1F2F2" d="M14.232 11.89c.729-.69 1.52-1.319 2.257-2 .097-.09.359-.39.493-.533 0-.174.019-.343.048-.507a1.103 1.103 0 0 0-.477-.512L3.979.222C3.112-.265 2.302.114 1.722.878c-.62.816-.945 1.18-1.459 2.024-.507.832-.263 1.878.57 2.452 2.346 1.619 9.16 7.345 11.93 8.015.475-.504.962-1 1.469-1.479" mask="url(#d)"/>
                </g>
                <path fill="#62352E" d="M11.631 29.071c.008-1.018-1.084-1.826-2.193-1.818-.267.002-.55.048-.763.202-.281.201-.386.543-.45.862-.368 1.86.103 3.75.734 5.522.245.686.555 1.414 1.224 1.79.245.138.566.218.829.093.157-.076.268-.213.368-.349.413-.563.729-1.186.931-1.835M29.4 31.177a5.013 5.013 0 0 1 1.463-2.063c.137-.116.29-.23.473-.258a.83.83 0 0 1 .457.083c.563.25.925.786 1.062 1.35.137.563.077 1.156-.026 1.733-.3 1.688-.96 3.332-1.932 4.81-.21.32-.446.642-.789.846-.343.204-.819.257-1.132.034-.338-.241-.373-.692-.38-1.09"/>
                <g transform="rotate(-10 60.228 -33.648)">
                    <mask id="f" fill="#fff">
                        <use xlink:href="#e"/>
                    </mask>
                    <path fill="#020202" d="M.036 21.785C.907 17.586 4.049 4.345 4.71 3.316 5.852 1.541 8.901-1.117 17.16.926c8.43 2.086 9.28 7.006 9.034 8.727-.101.706-5.318 14.63-7.317 18.204A103.682 103.682 0 0 0 4.59 24.392" mask="url(#f)"/>
                </g>
                <path fill="#725048" d="M17.35 46.179c.837.774 2.468 1.017 3.537.47 4.49-2.295 8.858-11.096 8.939-11.817.265-2.345.267-11.006-.54-12.523-.807-1.516-13.437-3.369-15.619-1.377 0 0-3.09 9.895-2.991 11.71.134 2.45 3.657 10.74 6.675 13.537"/>
                <path fill="#62352E" d="M18.439 30.582s.028-.05.081-.138c.054-.09.136-.219.225-.39.187-.338.43-.83.637-1.44.214-.61.384-1.338.458-2.133a8.87 8.87 0 0 0 .024-1.234c-.006-.212-.031-.424-.051-.64-.027-.214-.059-.425-.161-.616 0 0 .04.031.1.107.06.074.137.197.208.366.134.337.302.844.353 1.495a5.481 5.481 0 0 1-.301 2.267 5.783 5.783 0 0 1-1.573 2.356"/>
                <path fill="#848484" d="M10.78 24.735c-.136.47-1.214 4.342-.058 5.29 1.316 1.078 5.232 1.913 7.14 1.26 1.813-.62 1.755-4.89 1.746-5.289-.259-.25-3-2.718-8.828-1.26m6.561 6.847c-2.083.367-5.513-.43-6.74-1.435-1.305-1.07-.034-5.318.021-5.499l.014-.046.05-.013c3.264-.826 5.555-.427 6.902.054 1.466.523 2.148 1.233 2.176 1.263l.02.021.001.028c.007.196.15 4.793-1.865 5.482-.177.06-.371.109-.579.145M21.913 26.325c-.086.41-.93 4.619.748 5.41 1.865.881 6.046 1.053 7.329.04 2.617-2.066 1.043-5.724.871-6.1-5.29-1.597-8.614.433-8.948.65m6.626 6.156c-1.855.327-4.557.064-5.964-.6-1.869-.883-.873-5.423-.83-5.616l.007-.03.028-.02c.034-.024 3.513-2.41 9.178-.685l.036.01.015.032c.02.04 1.946 4.074-.905 6.325-.35.276-.904.468-1.565.584"/>
                <path fill="#FFF" d="M10.708 24.67s-1.326 4.367-.046 5.416c1.28 1.05 5.252 1.951 7.229 1.275 1.977-.675 1.805-5.4 1.805-5.4s-2.716-2.88-8.988-1.292M30.928 25.608s1.951 3.991-.882 6.228c-1.341 1.06-5.595.838-7.428-.028-1.833-.865-.785-5.529-.785-5.529s3.409-2.403 9.095-.671" opacity=".3"/>
                <path fill="#020202" d="M9.94 25.295c1.73-.518 3.654-.735 5.436-.541 2.318.251 3.674 2.135 6.066 1.927.734-.064 1.154-.45 1.872-.707 2.835-1.012 6.103-.3 8.81.492.709.207 1.114-.808.405-1.015-2.721-.797-5.738-1.41-8.626-.75a7.958 7.958 0 0 0-1.94.698c-.148.078-.316.241-.473.29-.39.124.551-.088.052-.077-1.142.025-1.626-.264-2.465-.814-1.026-.672-2.352-.984-3.601-1.113-1.878-.195-3.928.02-5.75.564-.711.213-.508 1.262.214 1.046"/>
                <path fill="#62352E" d="M32.507 25.486a30.27 30.27 0 0 0-2.886-.707c-.038.335-.073.672-.107 1.01.235.406.387.855.456 1.317.256 1.723-.146 3.556-1.268 5.008-.02.101-.038.203-.06.304.578-.115 1.063-.294 1.383-.546 2.166-1.71 1.535-4.445 1.117-5.638.327.086.647.176.96.268.709.207 1.114-.808.405-1.016" opacity=".3"/>
                <path fill="#000" d="M31.079 50.477l.036.205c.047.268.35.479.651.413.302-.066.522-.324.471-.61l-.036-.206c-.047-.267-.35-.478-.651-.412-.302.066-.522.323-.471.61M32.59 53.8l.217 1.228c.116.659 1.238.462 1.122-.198l-.217-1.228c-.116-.659-1.238-.462-1.122.198M34.02 58.196l.585 1.793c.088.27.32.468.652.413.273-.046.557-.344.47-.611l-.585-1.792c-.088-.27-.32-.469-.65-.413-.275.045-.56.343-.472.61M35.486 62.297c.335.996.672 1.991 1.008 2.987.213.632 1.245.165 1.034-.463l-1.008-2.987c-.214-.632-1.246-.165-1.034.463M37.858 69.052l.37.78c.116.247.484.369.752.235.28-.139.407-.434.281-.698l-.369-.78c-.117-.247-.484-.37-.753-.236-.28.14-.406.434-.28.699M40.208 72.849l.75 1.772c.262.619 1.296.155 1.034-.463l-.75-1.772c-.261-.619-1.295-.155-1.034.463M42.133 77.294c.242.342.336.74.35 1.148.008.282.376.462.65.413.336-.059.48-.328.471-.61-.018-.604-.242-1.144-.594-1.638-.165-.233-.583-.218-.8-.049-.26.204-.244.503-.077.736M43.98 81.265l.713 1.569c.277.612 1.312.15 1.034-.463l-.712-1.57c-.278-.611-1.313-.15-1.034.464M45.886 85.795l.947 1.748c.32.592 1.357.133 1.034-.462l-.947-1.748c-.321-.592-1.357-.133-1.034.462M47.993 89.856l.665 1.15c.337.581 1.374.124 1.034-.463l-.665-1.15c-.337-.581-1.374-.124-1.034.463M50.264 92.56c.558.008 1.095-.158 1.517-.514.229-.193.278-.518.077-.736a.608.608 0 0 0-.8-.048 1 1 0 0 1-.67.258c-.306-.004-.592.186-.627.48a.52.52 0 0 0 .503.56M52.939 90.777l.6-.528c.218-.191.292-.524.079-.736-.196-.194-.567-.253-.8-.048l-.602.528c-.217.191-.29.524-.077.736.195.194.566.253.8.048M53.617 88.407l.225-.04c.293-.05.532-.336.47-.61a.556.556 0 0 0-.65-.413l-.225.04c-.294.052-.534.336-.471.61a.556.556 0 0 0 .651.413M14.085 53.608l.69 1.137c.146.242.459.367.752.236.265-.119.429-.455.281-.7l-.689-1.136a.593.593 0 0 0-.753-.236c-.264.118-.429.455-.28.699M16.278 56.739l.864 1.127c.174.227.578.222.8.048.254-.199.253-.508.078-.736l-.864-1.127c-.174-.226-.578-.223-.8-.048-.254.199-.252.508-.078.736M19.043 60.462l1.145 1.507c.412.542 1.288-.148.878-.687l-1.145-1.508c-.412-.541-1.288.148-.878.688M21.966 65.224l.593.74c.179.223.574.225.8.048.25-.196.257-.511.078-.735l-.593-.74c-.18-.224-.575-.226-.8-.049-.25.196-.258.512-.078.736M23.725 68.72c.218.278.305.598.321.941.013.281.373.462.651.413.333-.059.484-.329.471-.61-.025-.53-.236-1.01-.565-1.432-.175-.225-.576-.223-.8-.048-.252.198-.254.51-.078.736M25.581 73.126l.702 1.354c.31.598 1.345.138 1.034-.463l-.701-1.354c-.31-.597-1.346-.138-1.035.463M27.494 77.437l.629.945c.158.237.452.37.753.236.256-.114.44-.46.281-.699l-.63-.944c-.157-.237-.45-.37-.752-.236-.256.114-.44.46-.281.698M28.883 80.37l.261.165c.24.153.624.1.793-.14.17-.24.13-.56-.127-.723l-.26-.166c-.242-.152-.625-.1-.794.14-.17.24-.13.56.127.724M29.87 82.99l.144.818c.048.268.35.48.652.414.302-.067.521-.324.47-.611l-.144-.82c-.047-.267-.35-.478-.651-.412-.302.066-.522.324-.471.61M31.33 88.643l.216 1.228c.116.66 1.238.462 1.122-.198l-.216-1.228c-.117-.659-1.239-.462-1.122.198M32.265 92.635c.138.28.153.572.039.868-.247.639.813.985 1.06.346a2.052 2.052 0 0 0-.065-1.677c-.297-.603-1.333-.143-1.034.463M32.239 96.442s.06.125.044.077c-.018-.054.01.072.01.086-.002-.076-.004.012-.011.043-.02.087.047-.1-.016.047-.01.022-.036.074-.006.026 0 0-.084.108-.054.078.033-.035-.063.05-.076.059.076-.049-.064.02-.078.026a.52.52 0 0 0-.28.698c.134.268.464.343.752.236.76-.28 1.127-1.195.749-1.839a.593.593 0 0 0-.753-.235c-.267.119-.426.453-.281.698M29.868 97.738l-.97-.251c-.283-.074-.633.037-.735.319-.094.256.022.586.324.665l.97.25c.283.075.633-.037.736-.318.093-.256-.023-.586-.325-.665M25.323 96.387l-.709-.09c-.293-.038-.608.21-.627.479-.02.296.189.52.503.56l.708.09c.294.038.608-.209.627-.479.021-.296-.188-.52-.502-.56"/>
                <path fill="#D6D6D6" d="M-11.284 88.644l1.194.211c.3.053.596-.22.627-.479.037-.307-.202-.507-.503-.56l-1.194-.212c-.3-.053-.596.221-.627.48-.036.306.202.507.503.56M-8.894 89.858l1.751.747c.275.117.632-.07.735-.32.12-.285-.049-.547-.324-.664l-1.752-.746c-.275-.118-.631.07-.735.318-.12.286.049.548.325.665M-5.093 91.242c.454.274.974.437 1.525.462.729.034.854-1.006.124-1.04a2.037 2.037 0 0 1-.983-.286c-.602-.364-1.27.5-.666.864"/>
                <path fill="#4F4F51" d="M4.882 61.475l.817.702c.22.189.544.248.8.048.216-.17.299-.545.077-.736l-.816-.702c-.22-.189-.544-.248-.8-.048-.216.17-.3.545-.078.736M7.363 64.086c.212.459.567.848 1.018 1.123.6.367 1.267-.496.665-.863a1.62 1.62 0 0 1-.649-.723c-.282-.61-1.316-.149-1.034.463M9.18 66.507l.947 1.528c.353.57 1.392.115 1.034-.463l-.946-1.528c-.354-.57-1.392-.114-1.034.463M11.242 70.075l.926 1.314c.164.233.584.218.8.048.26-.204.243-.501.078-.735l-.926-1.315c-.165-.233-.585-.217-.8-.048-.261.205-.243.502-.078.736M12.938 73.155c.217.279.305.598.32.941.014.282.374.462.652.413.333-.058.484-.329.47-.61-.024-.53-.235-1.01-.564-1.431-.176-.226-.576-.224-.8-.048-.253.197-.254.509-.078.735"/>
                <path fill="#5A5A5A" d="M44.05 218.929l-8.494 1.497a.715.715 0 0 1-.829-.58l-.496-2.812a.715.715 0 0 1 .58-.828l8.494-1.498a.715.715 0 0 1 .828.58l.496 2.812a.715.715 0 0 1-.58.829M72.162 212.16l-8.23 1.451a.849.849 0 0 1-.984-.688l-.45-2.549a.849.849 0 0 1 .69-.983l8.23-1.452a.85.85 0 0 1 .983.69l.45 2.548a.849.849 0 0 1-.69.983"/>
                <path fill="#725048" d="M37 78.43c-.592-1.362-4.267.935-10.88-3.522-1.315-.886-1.69-1.658-1.244-1.977 3.596-2.577 2.446-3.972 1.549-4.542-.301-.191-.69-.04-.813.295-.788 2.127-2.623 2.863-4.257 3.038-4.151.444-4.718 4.079-5.334 4.64-.616.56-14.173 11.887-23.661 13.9-.445.094-.907.59-1.358 1.343 0 .01.002.02.001.032-.34 6.06 4.523 11.56 10.76 8.439 2.942-1.472 5.318-3.833 7.604-6.251 5.764-6.958 8.924-13.593 9.18-13.943.403-.553 7.377 2.146 8.229 2.162 1.359.025 11.367-.986 10.224-3.613"/>
                <path fill="#000" d="M55.365 98.494s16.041 23.7 16.857 110.587l-9.25 1.89s-8.639-24.927-12.053-41.908c-3.414-16.982-6.779-31.003-6.779-31.003s1.142 21.174 1.355 38.435c.209 16.895-1.686 38.938-1.686 38.938l-9.295 1.639S14.794 130.788 22.3 106.36l33.065-7.867z"/>
                <path fill="#020202" d="M23.435 28.247c.548-.636 2.039-.747 2.79-.618.757.131 1.403.615 2.012 1.052.362.259.758-.307.396-.566-.948-.68-1.888-1.25-3.096-1.207-.942.035-2.027.2-2.668.943-.29.336.278.73.566.396"/>
                <path fill="#020202" d="M26.991 27.305c-.504-.217-1.097-.027-1.436.39-.373.456-.336 1.1-.022 1.575.327.495.973.805 1.545.54.612-.282.752-.936.72-1.546-.018-.31-.387-.516-.667-.467-.337.06-.484.355-.467.667.004.083.003.215-.044.29-.003.022.013.027.048.017a.134.134 0 0 1-.1-.048c-.036-.039-.072-.068-.098-.116-.04-.077-.05-.146-.02-.196.045-.075.08-.053.142-.027.682.295 1.077-.787.399-1.079M13.809 27.345c.934-.931 2.927-.306 3.765.43.335.294.727-.274.396-.565-1.078-.947-3.46-1.536-4.608-.392-.312.311.131.84.447.527"/>
                <path fill="#020202" d="M16.85 26.71c-1.125-.426-2.157.856-1.493 1.858.291.44.831.688 1.353.556.568-.144.958-.608 1.042-1.18.11-.734-1.037-.839-1.145-.109-.03.2-.222.199-.289.113-.082-.106.006-.206.132-.158.694.263 1.093-.817.4-1.08"/>
                <path fill="#62352E" d="M18.056 33.741c.84.64 1.942.86 2.96.564.702-.205.51-1.34-.2-1.133-.754.22-1.473.104-2.1-.374-.591-.449-1.25.495-.66.943M14.926 36.785c2.277 1.596 6.732 1.585 9.303.457.659-.29.038-1.093-.618-.805-2.056.903-6.067.918-7.902-.369-.562-.394-1.347.32-.783.717M17.324 40.755c1.23.446 2.744.338 3.976-.28.637-.319.197-1.108-.449-.784-1.004.503-2.085.576-3.087.213-.642-.233-1.075.62-.44.85"/>
                <path fill="#020202" d="M26.935 19.544c1.459-.258 1.062-2.525-.4-2.267-1.458.257-1.06 2.524.4 2.267"/>
                <path fill="#232322" d="M12.352 21.929a.388.388 0 0 1-.011-.21c.085-.357-.454-.56-.54-.2-.056.233-.047.43.031.657.12.35.64.1.52-.247M12.537 20.103a.862.862 0 0 1 .058-.489c.14-.344-.4-.542-.54-.2-.102.255-.128.518-.085.789.06.365.626.266.567-.1M12.769 17.64a3.43 3.43 0 0 0 .05-.894c-.024-.37-.59-.266-.567.1.016.248-.008.495-.057.74-.071.363.503.413.574.054M13.023 14.981l.201-.543c.13-.348-.41-.547-.54-.2l-.2.544c-.13.347.41.547.539.2M13.532 12.58l.27-.607c.152-.34-.388-.536-.539-.2l-.27.607c-.152.34.388.536.539.2M15.524 10.276l.377-.321c.282-.24-.09-.68-.372-.44l-.378.322c-.281.24.09.68.373.439M16.914 9.165l-.158.156c-.262.258.107.7.372.439l.158-.156c.262-.258-.107-.7-.372-.439M15.439 11.826a2.02 2.02 0 0 0-.302.62c-.1.355.438.556.54.2a1.55 1.55 0 0 1 .233-.49c.216-.302-.256-.631-.471-.33M14.196 14.917l-.075.596c-.047.368.526.421.573.054l.075-.596c.047-.368-.527-.421-.573-.054M14.124 17.577c.062.219.09.432.074.66-.024.368.548.423.573.053a2.375 2.375 0 0 0-.08-.813c-.1-.353-.667-.257-.567.1M15.347 20.062l.192.029c.367.054.42-.519.055-.573l-.193-.029c-.367-.055-.42.518-.054.573M16.626 18.995a1.008 1.008 0 0 1-.085-.58c.048-.367-.526-.42-.573-.053-.04.306.01.6.137.88.155.337.675.091.52-.247M16.86 16.345a.764.764 0 0 1 .143-.506c.209-.306-.262-.636-.472-.33a1.39 1.39 0 0 0-.237.936c.032.368.598.266.567-.1M17.795 13.762l.475-1.206c.136-.345-.404-.544-.54-.2l-.475 1.207c-.136.345.404.544.54.2M19.06 10.613l.09-.203c.149-.34-.392-.537-.54-.2l-.089.204c-.15.34.391.537.54.2M20.856 9.023l.214-.22c.255-.263-.114-.705-.372-.439l-.214.22c-.256.264.113.706.372.44M21.61 8.51l-.099.142c-.213.304.259.634.471.33l.1-.143c.213-.303-.259-.634-.471-.33M20.698 10.344l-.198.658c-.106.354.433.555.54.2l.198-.658c.106-.354-.433-.555-.54-.2M19.515 13.74a1.28 1.28 0 0 1-.216.47c-.214.304.257.634.47.331.163-.23.26-.473.319-.747.078-.361-.496-.411-.573-.054M18.454 17c.058.202.08.39.06.6-.032.369.541.423.574.054a2.055 2.055 0 0 0-.067-.753c-.1-.353-.668-.257-.567.1M18.592 19.555l.174.282c.192.31.715.068.52-.247l-.174-.282c-.193-.311-.715-.068-.52.247M20.716 20.014c.364-.065.265-.631-.1-.567-.365.064-.266.631.1.567M21.242 17.819a.833.833 0 0 1 .118-.626c.2-.311-.27-.642-.471-.33-.206.32-.283.68-.213 1.056.067.364.634.265.566-.1M22.215 14.84a.517.517 0 0 1 .09-.434c.215-.302-.257-.632-.471-.33-.18.256-.247.556-.186.863.073.363.64.264.567-.1M23.003 12.266a.919.919 0 0 1 .09-.423c.147-.341-.394-.539-.54-.2-.103.235-.13.47-.117.723.021.369.587.266.567-.1M23.492 10.059a.64.64 0 0 1 .04-.295c.124-.35-.416-.549-.54-.2a1.31 1.31 0 0 0-.067.595c.038.368.605.267.567-.1M24.165 8.87l.201.093c.337.156.534-.385.2-.54l-.201-.092c-.337-.156-.534.385-.2.54M24.976 9.735l.021.12c.065.365.631.266.567-.1l-.021-.12c-.065-.365-.631-.265-.567.1M24.792 11.263c.012.228-.01.46-.064.68-.088.357.451.56.54.2.08-.327.109-.643.09-.98-.02-.369-.586-.266-.566.1M24.326 14.454l-.153.842c-.067.365.506.416.572.054l.154-.842c.067-.365-.507-.416-.573-.054M23.698 17.324c.024.205.01.409-.046.609-.098.355.441.556.54.2.083-.303.108-.597.073-.91-.042-.367-.608-.266-.567.1M23.62 19.445l-.093.2c-.156.338.385.535.54.2l.092-.2c.156-.338-.385-.535-.54-.2M24.582 20.705l.363-.064c.364-.064.265-.631-.1-.567l-.363.064c-.365.065-.266.631.1.567M26.452 19.607a.723.723 0 0 1 .213-.308c.28-.242-.09-.682-.372-.439-.174.151-.3.332-.381.547-.13.348.41.547.54.2M27.306 18.084l.297-.8c.129-.349-.411-.548-.54-.2l-.297.8c-.129.348.411.547.54.2M27.935 15.079a.967.967 0 0 1 .069-.43c.132-.347-.409-.546-.54-.2-.09.24-.117.476-.096.73.03.369.597.266.567-.1M27.991 11.902c.036-.172.03-.342-.019-.511-.1-.353-.668-.257-.566.1.036.127.039.228.012.356-.075.363.499.413.573.055M27.394 9.036l-.082-.11c-.22-.298-.659.075-.438.372l.081.11c.22.298.66-.075.439-.372M28.332 10.035l.23.583c.137.343.657.096.52-.247l-.23-.583c-.136-.344-.656-.097-.52.247M29.693 13.283l.242.707c.12.35.638.1.52-.247l-.242-.707c-.12-.35-.639-.101-.52.247M29.74 16.076c.076.255.04.48-.125.692-.228.293.244.621.472.33.246-.317.333-.735.22-1.122-.103-.351-.67-.255-.566.1M28.772 19.533a1.058 1.058 0 0 1-.381.633c-.286.236.086.676.371.439.318-.264.51-.614.583-1.017.066-.365-.508-.417-.573-.055M27.86 21.25c.365-.064.266-.631-.1-.567-.364.065-.265.631.1.567M30.794 21.465l.307-.368c.238-.285-.235-.613-.47-.33l-.308.368c-.238.285.235.613.471.33M31.774 19.154l.344-1.101c.11-.353-.43-.554-.54-.2l-.343 1.102c-.11.353.429.553.54.2M32.554 16.083l-.018-.8c-.009-.366-.582-.423-.573-.053l.018.798c.008.367.58.424.573.055M32.342 13.665l-.132-.414c-.048-.15-.256-.195-.383-.137-.157.073-.184.236-.137.384l.132.414c.047.149.256.195.384.136.156-.072.183-.236.136-.383M31.186 11.425l-.256-.392c-.085-.131-.296-.124-.405-.034-.132.11-.118.277-.033.406l.256.392c.085.131.296.123.405.033.132-.11.118-.276.033-.405M30.215 10.538c.364-.064.265-.63-.1-.566-.365.064-.266.63.1.566M32.603 12.21l.39.806c.16.333.68.088.52-.247l-.39-.806c-.16-.332-.681-.087-.52.248M33.325 15.314c.071.344.094.683.065 1.034-.031.37.542.423.573.054.033-.399.01-.796-.071-1.188-.075-.362-.642-.263-.567.1M32.585 19.98l-.116.593c-.071.364.502.415.573.055l.116-.593c.072-.364-.502-.415-.573-.055M31.674 22.518c-.02.108-.043.216-.064.325-.073.363.501.413.573.053l.065-.324c.072-.363-.502-.414-.574-.054M30.912 24.242c-.006-.028-.02-.017-.043.033-.246.275.227.603.472.33.158-.177.162-.395.09-.61-.117-.35-.636-.1-.52.247"/>
                <path fill="#5A5A5A" d="M55.292 94.102c-.457-.102-.967-.056-1.504.2-9.977 4.76-20.673 7.369-31.694 7.825-.533.022-.946.186-1.256.438.26 1.416.526 2.834.757 4.256.393.224.856.352 1.385.33 11.435-.473 22.601-3.294 32.949-8.23a2.76 2.76 0 0 0 .327-.188c-.337-1.54-.663-3.083-.964-4.63"/>
                <path fill="#D6D6D6" d="M44.92 97.901a2.767 2.767 0 0 0-1.401.162c-2.24.855-4.545 1.43-6.902 1.807a2.267 2.267 0 0 0-.86.32c.052 1.768.41 3.464.925 5.122.275.065.575.08.9.028 2.795-.448 5.498-1.216 8.154-2.229.149-.057.285-.136.41-.23-.068-1.788-.24-3.655-1.226-4.98"/>
                <path fill="#000" d="M27.195 102.05a19.665 19.665 0 0 0 .647 5.202c.315 1.18 2.133.871 1.816-.32a17.755 17.755 0 0 1-.625-4.69c.007-1.223-1.832-1.422-1.838-.192M50.775 96.245l1.545 5.121c.352 1.163 2.17.857 1.816-.32l-1.546-5.121c-.351-1.163-2.17-.858-1.815.32"/>
                <path fill="#020202" d="M24.207 24.012c1.155-.942 3.044-1.035 4.12.07.198.204.54-.081.339-.287-1.25-1.283-3.391-1.227-4.747-.122-.222.18.065.52.288.339M14.276 22.754c.537-.345 1.448-.22 2.063-.119.756.125 1.424.434 1.915 1.04.18.223.52-.065.339-.288-.5-.618-1.173-.982-1.95-1.146-.749-.159-1.872-.329-2.558.11-.237.153-.05.557.191.403M14.814 77.397c.366 1.65 1.704 3.044 3.337 3.478-.24.647-.52 1.278-.839 1.89a14.007 14.007 0 0 1-1.12-.389c-.676-.266-1.348-.597-1.846-1.128-.76-.809-1.009-1.957-1.228-3.045l.978-.981"/>
                <path fill="#FFF" d="M16.36 79.985c-.247-.129-.558-.09-.799.05-.24.141-.417.371-.547.618-.2.379-.302.838-.148 1.239.245.636 1.05.89 1.722.776.35-.06.695-.201.95-.45.253-.249.405-.614.348-.965-.038-.232-.161-.44-.293-.635-.166-.246-.355-.484-.604-.645-.249-.16-.568-.234-.847-.134"/>
                <path fill="#020202" d="M16.438 79.776c-.958-.355-1.732.586-1.85 1.467-.135 1.008.715 1.667 1.661 1.673.863.005 1.885-.554 1.868-1.526-.017-.945-1.051-1.995-2.014-1.77-.277.064-.202.503.077.438.66-.154 1.394.592 1.487 1.233.103.713-.677 1.136-1.275 1.177-.548.039-1.223-.187-1.358-.79-.149-.663.459-1.778 1.25-1.484.268.1.422-.318.154-.418"/>
                <g transform="rotate(-10 1360.16 -71.56)">
                    <mask id="h" fill="#fff">
                        <use xlink:href="#g"/>
                    </mask>
                    <path fill="#5A5A5A" d="M.563 1.663c1.608 1.119 3.48 1.276 5.392 1.145C8.1 2.66 10.55 2.466 12.52 1.563c.78-.358.102-1.509-.674-1.153-1.751.803-3.992.933-5.89 1.063-1.686.116-3.288.033-4.718-.963C.53.02-.138 1.175.563 1.663" mask="url(#h)"/>
                </g>
                <path fill="#5A5A5A" d="M23.405 109.369l-.145 1.123c-.036.284.407.326.443.042l.145-1.124c.036-.284-.407-.325-.443-.041M22.86 114.557l-.024 1.65c-.004.285.438.328.442.042l.024-1.65c.004-.285-.438-.329-.442-.042M22.64 119.567c.174.63.234 1.261.176 1.912-.026.285.417.327.442.042a5.644 5.644 0 0 0-.18-2.03c-.075-.274-.514-.2-.438.076M22.984 125.453l-.067 1.476c-.013.285.43.328.443.041l.067-1.475c.013-.285-.43-.328-.443-.042M22.959 131.813l-.02 1.65c-.004.285.438.33.442.043l.02-1.65c.004-.285-.439-.33-.442-.043M23.783 137.485a3.578 3.578 0 0 0 .166 1.736c.093.27.495.077.402-.191a3.101 3.101 0 0 1-.125-1.503c.043-.284-.4-.324-.443-.042M24.297 143.644l.13 2.172c.016.286.454.206.437-.077l-.13-2.172c-.016-.286-.454-.206-.437.077M25.243 149.85c.227.8.329 1.608.295 2.439-.011.285.432.328.443.042a8.09 8.09 0 0 0-.3-2.558c-.078-.273-.517-.198-.438.077M25.616 156.826c-.062.59.03 1.16.266 1.702.115.262.517.072.402-.19a2.859 2.859 0 0 1-.225-1.47c.03-.285-.413-.326-.443-.042M26.8 162.056c.03.784.063 1.569.094 2.353.012.282.455.327.443.042l-.095-2.354c-.011-.282-.455-.327-.443-.041M27.564 168.176l.566 1.896c.08.271.52.197.438-.077l-.566-1.896c-.08-.27-.52-.197-.438.077M29.022 175.138l.006 1.826c0 .285.443.329.443.042l-.006-1.826c0-.284-.443-.328-.443-.042M29.279 180.907a5.808 5.808 0 0 0 .179 2.031c.074.274.513.2.438-.077a5.452 5.452 0 0 1-.174-1.912c.025-.285-.419-.327-.443-.042M29.689 186.23c.307.77.495 1.561.577 2.386.028.285.466.206.438-.077a9.115 9.115 0 0 0-.613-2.5c-.106-.266-.509-.075-.402.19M31.421 191.649a4.048 4.048 0 0 0 .219 2.079c.1.267.501.076.402-.191a3.584 3.584 0 0 1-.178-1.846c.045-.284-.399-.324-.443-.042M32.478 197.587c.433.493.63 1.094.57 1.747-.026.285.416.327.443.042a2.726 2.726 0 0 0-.673-2.077c-.189-.214-.53.072-.34.288M33.668 203.957l.084 2.355c.01.283.453.327.443.042L34.111 204c-.01-.283-.453-.328-.443-.043M34.43 210.075c.033.633.197 1.233.485 1.796.13.254.533.065.402-.19a4.108 4.108 0 0 1-.45-1.683c-.015-.285-.452-.205-.438.077M46.106 138.667c.367.198.635.491.791.878.107.265.509.075.402-.19a2.07 2.07 0 0 0-.938-1.052c-.25-.134-.508.229-.255.364M47.762 142.489c.293.77.5 1.556.632 2.368.045.283.483.206.438-.077a12.54 12.54 0 0 0-.668-2.482c-.102-.267-.504-.076-.402.19M49.663 148.999l.28 1.587c.05.282.488.206.438-.077l-.28-1.587c-.05-.282-.488-.206-.438.077M50.967 155.573c.585 1.185.931 2.427 1.05 3.742.025.285.463.206.438-.078a10.821 10.821 0 0 0-1.086-3.855c-.126-.257-.529-.067-.402.19M52.61 162.543c.416.735.67 1.515.765 2.354.032.284.47.206.438-.077a6.428 6.428 0 0 0-.801-2.467c-.14-.248-.544-.06-.402.19M54.826 169.778c.282-.05.205-.488-.077-.438-.282.05-.206.488.077.438M54.937 172.743a3.728 3.728 0 0 0 .125 1.678c.084.27.523.196.438-.077a3.437 3.437 0 0 1-.12-1.56c.043-.283-.4-.323-.443-.041M56.32 178.443c.395.741.65 1.52.77 2.352.04.283.478.206.438-.077a7.484 7.484 0 0 0-.806-2.466c-.133-.252-.536-.063-.402.19M57.386 184.627c.365.94.594 1.902.7 2.903.03.285.468.207.438-.077a11.672 11.672 0 0 0-.736-3.017c-.103-.267-.505-.075-.402.19M59.463 192.2l.498 2.822c.05.282.488.205.438-.077l-.498-2.823c-.05-.282-.488-.205-.438.077M60.946 199.578l.498 2.823c.05.281.487.204.438-.078l-.498-2.822c-.05-.282-.488-.205-.438.077M62.205 205.412l.358 1.03c.094.269.495.076.402-.192l-.359-1.029c-.094-.27-.495-.077-.401.19M63.85 209.004l.015 1.09c.004.283.446.327.443.041l-.016-1.09c-.003-.283-.446-.327-.443-.041"/>
            </g>
        </g>
        <g transform="rotate(-30 25.417 -54.982)">
            <mask id="j" fill="#fff">
                <use xlink:href="#i"/>
            </mask>
            <path fill="#FFF" d="M1.554 4.942l1.535-3.464C3.579.372 2.126-.606 1.634.503L.1 3.968c-.49 1.106.963 2.084 1.455.974" mask="url(#j)"/>
        </g>
        <g transform="rotate(-30 39.247 -61.887)">
            <mask id="l" fill="#fff">
                <use xlink:href="#k"/>
            </mask>
            <path fill="#FFF" d="M1.559 3.269a20.65 20.65 0 0 1 3.626-1.28c1.147-.293.662-2.2-.487-1.905A23.155 23.155 0 0 0 .633 1.562c-1.08.505-.147 2.208.926 1.707" mask="url(#l)"/>
        </g>
    </g>
</svg>
