<svg xmlns="http://www.w3.org/2000/svg" xmlns:xlink="http://www.w3.org/1999/xlink" width="150" height="150" viewBox="0 0 150 150">
    <defs>
        <path id="a" d="M0 .35h10.448v24.787H0z"/>
        <path id="c" d="M.278.386h61.953V71.44H.278z"/>
    </defs>
    <g fill="none" fill-rule="evenodd" transform="translate(-34 1)">
        <circle cx="110.814" cy="74.578" r="74.422" fill="#FF7900"/>
        <path stroke="#FFF" stroke-linecap="round" stroke-width="2" d="M162.816 33.44c-12.144-15.33-30.925-25.165-52.002-25.165M173.856 51.519a66.469 66.469 0 0 0-4.585-8.446"/>
        <path fill="#63362F" d="M134.982 83.224c.215-2.748 3.35-4.676 6.342-4.397.722.068 1.473.256 2.014.72.712.61.917 1.556 1.013 2.432.562 5.109-1.147 10.1-3.263 14.736-.82 1.797-1.828 3.688-3.72 4.548-.695.317-1.58.457-2.259.057-.407-.24-.676-.637-.913-1.026a16.988 16.988 0 0 1-2.088-5.17"/>
        <g transform="translate(76.986 77.667)">
            <mask id="b" fill="#fff">
                <use xlink:href="#a"/>
            </mask>
            <path fill="#63362F" d="M9.54 7.11C8.943 4.935 7.737 2.88 6.074 1.204 5.729.857 5.342.513 4.857.396c-.42-.102-.859-.018-1.255.119C2.023 1.06.925 2.42.424 3.909-.078 5.398-.054 7.014.089 8.594c.417 4.626 1.817 9.217 4.097 13.432.495.915 1.057 1.84 1.934 2.47.878.628 2.152.884 3.048.354.967-.572 1.166-1.783 1.28-2.856" mask="url(#b)"/>
        </g>
        <g transform="translate(76.986 21.95)">
            <mask id="d" fill="#fff">
                <use xlink:href="#c"/>
            </mask>
            <path fill="#030303" d="M60.304 67.79c.649-11.597 2.66-51.424 1.646-54.578C60.2 7.768 54.844-.706 31.647.502 8.148 1.728.845 13.106.287 17.783c-.228 1.917 3.716 42.01 6.455 52.763a280.967 280.967 0 0 1 39.82.894" mask="url(#d)"/>
        </g>
        <path fill="#725148" d="M115.568 128.074c-2.438 1.897-6.898 2.173-9.656.45-11.587-7.242-21.331-32.013-21.383-33.978-.17-6.39 1.84-29.773 4.37-33.678 2.53-3.905 37.054-5.971 42.48-.086 0 0 6.044 27.426 5.352 32.305-.932 6.58-12.369 28.142-21.163 34.987"/>
        <path fill="#848484" d="M114.165 73.07c-.118 1.073-1.266 12.587 3.483 14.682 4.999 2.205 15.763.863 19.566-1.744 3.342-2.29 1.332-12.991 1.073-14.29-15.391-5.288-23.365.737-24.122 1.353m3.292 15.08c-5.281-2.328-3.826-14.704-3.761-15.23l.01-.075.058-.052c.083-.075 2.088-1.835 6.167-2.906 3.749-.983 10.027-1.528 18.642 1.46l.134.047.027.128c.106.5 2.55 12.263-1.222 14.846-3.544 2.43-12.99 3.784-18.528 2.308a10.41 10.41 0 0 1-1.527-.526"/>
        <path fill="#848484" d="M114.419 73.21c-.133 1.3-1.108 12.261 3.293 14.278l.044.02c4.934 2.177 15.553.853 19.308-1.72 2.576-1.766 1.848-9.474.992-13.868-14.699-4.997-22.45.363-23.637 1.29m2.872 15.159c-5.392-2.47-3.924-14.948-3.859-15.48l.02-.176.136-.119c.082-.074 2.106-1.87 6.275-2.963 3.786-.993 10.12-1.545 18.798 1.466l.275.095.059.276c.107.507 2.586 12.437-1.332 15.122-3.749 2.568-13.385 3.773-18.747 2.344-.573-.152-1.1-.334-1.567-.54l-.058-.025M83.864 69.585c-.551.977-5.65 10.484.934 16.67 3.227 3.035 14.553 3.54 19.793 1.597 4.71-1.748 3.414-13.302 3.275-14.43-.85-.664-9.351-6.917-24.002-3.837m.598 16.975c-7.174-6.741-1.037-17.18-.974-17.285l.048-.081.1-.021c15.693-3.339 24.528 3.91 24.616 3.983l.07.059.01.084c.073.531 1.707 13.018-3.545 14.967-3.951 1.466-11.305 1.548-16.237.234-1.758-.469-3.21-1.115-4.088-1.94"/>
        <path fill="#848484" d="M84.038 69.821c-.793 1.444-5.302 10.372.942 16.24 2.708 2.545 13.451 3.792 19.518 1.541 4.4-1.632 3.267-12.723 3.117-14.037-1.262-.955-9.526-6.656-23.577-3.744m2.093 18.117c-.767-.352-1.386-.747-1.851-1.184-7.33-6.887-1.085-17.51-1.021-17.616l.108-.18.213-.045c15.835-3.37 24.756 3.966 24.843 4.04l.149.124.025.187c.073.539 1.735 13.23-3.717 15.25-3.989 1.481-11.346 1.59-16.398.243a14.876 14.876 0 0 1-2.351-.819"/>
        <path fill="#FFF" d="M138.498 71.556s2.564 12.098-1.135 14.633c-3.698 2.535-14.631 4.045-19.81 1.762-5.178-2.283-3.618-14.994-3.618-14.994s8.002-7.144 24.563-1.4M83.7 69.39s-6.197 10.322.93 17.018c3.376 3.172 14.91 3.56 20.059 1.65 5.149-1.91 3.405-14.74 3.405-14.74s-8.643-7.28-24.394-3.928" opacity=".361"/>
        <path fill="#030303" d="M140.426 73.425c-4.548-1.8-9.694-2.833-14.548-2.726-6.317.14-10.413 4.91-16.823 3.792-1.966-.343-3.01-1.484-4.888-2.343-7.417-3.39-16.404-2.228-23.895-.72-1.962.395-2.821-2.439-.858-2.834 7.53-1.517 15.817-2.474 23.458-.017 1.783.573 3.514 1.329 5.076 2.334.38.244.794.724 1.208.895 1.023.423-1.468-.37-.122-.223 3.076.333 4.449-.335 6.844-1.623 2.926-1.575 6.575-2.11 9.978-2.17 5.114-.088 10.6.966 15.387 2.86 1.873.741 1.08 3.525-.817 2.775"/>
        <path fill="#63362F" d="M116.677 96.33c-2.418 1.53-5.442 1.872-8.12.836-1.85-.717-1.068-3.737.804-3.013 1.982.768 3.949.621 5.754-.52 1.699-1.076 3.256 1.625 1.562 2.697"/>
        <path fill="#030303" d="M95.886 53.949c-3.877-1.033-2.278-7.06 1.605-6.025 3.877 1.033 2.278 7.06-1.605 6.025"/>
        <path fill="#666" d="M134.696 63.778a1.06 1.06 0 0 0 .08-.567c-.148-.982 1.354-1.405 1.503-.414a2.976 2.976 0 0 1-.237 1.768c-.406.915-1.75.122-1.346-.787M134.622 58.805a2.334 2.334 0 0 0-.045-1.332c-.297-.962 1.208-1.371 1.503-.414.22.712.23 1.426.048 2.147-.244.974-1.751.573-1.506-.401M134.57 52.102a9.295 9.295 0 0 1 .072-2.424c.15-.99 1.654-.582 1.506.401a7.767 7.767 0 0 0-.02 2.01c.11.997-1.45 1.002-1.559.013M134.501 44.868l-.418-1.514c-.267-.968 1.236-1.38 1.504-.413l.418 1.513c.267.969-1.237 1.381-1.504.414M133.685 38.267a2157.2 2157.2 0 0 0-.591-1.701c-.33-.95 1.176-1.358 1.503-.414l.591 1.701c.33.95-1.175 1.357-1.503.414M128.844 31.584l-.944-.954c-.704-.714.4-1.814 1.107-1.098l.944.954c.704.714-.4 1.814-1.107 1.098M125.349 28.264l.39.456c.648.757-.452 1.863-1.107 1.098l-.39-.456c-.648-.757.453-1.863 1.107-1.098M128.712 35.79c.32.543.549 1.123.67 1.743.19.98-1.311 1.4-1.504.414a4.18 4.18 0 0 0-.515-1.376c-.51-.866.839-1.646 1.35-.782M131.349 44.42l.064 1.628c.04 1.004-1.52 1.014-1.559.013l-.064-1.627c-.04-1.005 1.52-1.014 1.559-.013M130.924 51.617a5.149 5.149 0 0 0-.353 1.763c-.019 1.003-1.578 1.017-1.56.013.015-.75.141-1.475.406-2.177.352-.93 1.862-.538 1.507.401M127.046 58.042l-.525.032c-1.004.063-1.012-1.497-.014-1.559.176-.01.351-.021.526-.033 1.003-.063 1.011 1.497.013 1.56M123.843 54.866c.282-.5.386-.973.363-1.545-.043-1.005 1.517-1.015 1.559-.014a4.305 4.305 0 0 1-.577 2.346c-.494.873-1.841.088-1.345-.787M123.823 47.656c.086-.496-.02-.964-.265-1.397-.493-.875.855-1.658 1.349-.782.458.813.58 1.665.423 2.58-.17.989-1.675.581-1.507-.401M121.903 40.468L120.9 37.1c-.288-.964 1.217-1.374 1.503-.413l1.003 3.366c.287.964-1.217 1.375-1.503.414M119.218 31.673l-.193-.568c-.324-.953 1.181-1.36 1.503-.414l.193.569c.324.952-1.182 1.36-1.503.413M114.742 26.964l-.526-.644c-.63-.77.47-1.877 1.106-1.099l.527.645c.629.77-.471 1.877-1.107 1.098M112.823 25.401l.236.408c.504.869-.845 1.65-1.35.78l-.235-.407c-.503-.869.846-1.65 1.349-.78M114.86 30.566l.382 1.822c.204.98-1.299 1.397-1.504.414l-.38-1.822c-.205-.98 1.297-1.397 1.503-.414M117.265 40.008c.061.477.234.909.474 1.321.506.868-.843 1.65-1.348.782-.384-.659-.589-1.337-.685-2.09-.128-.994 1.433-.997 1.559-.013M119.371 49.056a4.316 4.316 0 0 0-.303 1.602c.002 1.005-1.557 1.017-1.56.013a5.587 5.587 0 0 1 .357-2.016c.352-.93 1.863-.538 1.506.4M118.405 55.92l-.535.718c-.592.796-1.946.02-1.346-.787l.535-.72c.592-.795 1.946-.018 1.346.788M112.566 56.663c-.97-.258-.57-1.765.401-1.506.97.258.57 1.765-.401 1.506M111.654 50.617c.165-.597.118-1.168-.172-1.718-.468-.886.878-1.67 1.348-.78.483.912.606 1.9.33 2.9-.267.966-1.774.567-1.506-.402M109.721 42.348c.127-.437.088-.796-.143-1.19-.508-.867.84-1.648 1.349-.781a2.97 2.97 0 0 1 .3 2.372c-.279.963-1.786.565-1.506-.4M108.192 35.218c.057-.402-.014-.783-.142-1.164-.32-.953 1.185-1.361 1.503-.413.22.658.242 1.296.145 1.978-.14.992-1.646.582-1.506-.4M107.386 29.146a1.733 1.733 0 0 0-.038-.804c-.255-.972 1.248-1.385 1.503-.414.143.55.148 1.064.042 1.62-.19.985-1.695.58-1.507-.402M105.844 25.782l-.564.203c-.946.342-1.352-1.164-.414-1.503l.565-.204c.945-.341 1.352 1.165.413 1.504M103.454 27.927l-.085.321c-.258.97-1.765.57-1.506-.4l.085-.323c.258-.969 1.765-.57 1.506.402M103.596 32.095a6.341 6.341 0 0 0 .015 1.853c.153.982-1.35 1.404-1.504.414a8.867 8.867 0 0 1-.016-2.668c.14-.992 1.645-.581 1.505.401M104.111 40.816l.22 2.309c.096 1-1.464 1.005-1.559.013l-.22-2.308c-.095-1 1.465-1.005 1.56-.014M105.14 48.709c-.111.55-.12 1.102-.018 1.654.182.981-1.32 1.4-1.503.414a6.36 6.36 0 0 1 .014-2.47c.199-.984 1.704-.579 1.507.402M104.86 54.452l.203.565c.342.945-1.165 1.351-1.503.413l-.204-.564c-.342-.946 1.164-1.352 1.503-.414M101.97 57.63l-.965-.257c-.97-.258-.57-1.765.4-1.506l.966.257c.969.258.57 1.765-.402 1.506M97.177 54.233a1.965 1.965 0 0 0-.506-.88c-.699-.72.406-1.82 1.107-1.098.435.447.734.963.902 1.564.271.969-1.232 1.38-1.503.414M95.225 49.922l-.615-2.23c-.267-.969 1.236-1.381 1.503-.413l.615 2.229c.268.97-1.236 1.381-1.503.414M94.225 41.664a2.596 2.596 0 0 0-.085-1.176c-.276-.967 1.228-1.378 1.503-.414.19.667.205 1.311.089 1.991-.168.99-1.673.582-1.507-.4M94.812 33.075c-.056-.472.001-.93.17-1.374.352-.929 1.862-.538 1.506.4a1.868 1.868 0 0 0-.117.96c.119.997-1.442 1-1.56.014M97.09 25.479l.247-.279c.664-.752 1.76.357 1.097 1.107l-.246.279c-.665.751-1.761-.357-1.098-1.107M94.325 27.956l-.758 1.52c-.447.897-1.792.108-1.346-.787l.758-1.52c.447-.897 1.793-.108 1.346.787M89.898 36.407l-.817 1.854c-.404.915-1.748.123-1.346-.788l.817-1.853c.403-.915 1.747-.123 1.346.787M89.119 43.937c-.261.672-.218 1.288.177 1.896.548.843-.803 1.62-1.349.781a3.404 3.404 0 0 1-.334-3.079c.36-.924 1.87-.533 1.506.402M90.93 53.494c.066.703.386 1.305.884 1.796.714.705-.39 1.805-1.107 1.099-.797-.787-1.231-1.774-1.335-2.882-.094-1 1.466-1.005 1.559-.013M92.993 58.34c-.97-.258-.57-1.765.401-1.506.97.258.57 1.764-.401 1.506M85.023 58.24c-.248-.356-.497-.711-.744-1.067-.575-.823.777-1.599 1.35-.78l.743 1.065c.575.824-.778 1.6-1.349.781M82.914 51.773l-.672-3.053c-.215-.978 1.288-1.394 1.503-.413l.672 3.052c.215.979-1.287 1.396-1.503.414M81.525 43.3l.233-2.151c.108-.988 1.668-1.01 1.56-.014l-.234 2.152c-.108.987-1.667 1.01-1.56.014M82.659 36.823c.15-.362.3-.725.452-1.087.163-.392.736-.467 1.066-.279.406.232.44.68.28 1.067l-.453 1.086c-.163.392-.737.468-1.066.28-.406-.232-.44-.68-.28-1.067M86.298 31.045l.782-.998c.262-.335.83-.265 1.103.004.33.325.253.773-.005 1.103l-.782.998c-.261.334-.83.264-1.102-.004-.33-.326-.253-.774.004-1.103M89.126 28.878c-.969-.258-.57-1.765.402-1.506.969.258.57 1.765-.402 1.506M79.62 41.046a9.723 9.723 0 0 0-.414 2.776c-.003 1.004-1.562 1.017-1.559.013.004-1.083.158-2.151.467-3.19.286-.96 1.793-.562 1.506.401M80.533 53.814l.177 1.629c.108.998-1.452 1.002-1.56.013l-.176-1.628c-.108-.998 1.452-1.002 1.56-.014M82.402 60.876c.032.297.066.594.099.89.111.998-1.449 1.002-1.56.015l-.098-.892c-.111-.997 1.449-1 1.559-.013M84.06 65.708c.022-.076.057-.043.106.098.603.802-.752 1.575-1.348.782-.387-.515-.347-1.105-.103-1.667.398-.917 1.742-.124 1.346.787"/>
        <path fill="#63362F" d="M115.864 86.942c-.962-2.29-1.979-4.559-2.897-6.867-.541-1.362-.942-3.027-1.76-4.29-1.06.408-1.873 1.44-1.498 2.854l1.92 7.255c.607 2.296 1.88 5.186 1.534 7.56-.454 3.103 4.704 4.421 5.162 1.292.126-.86-.264-1.71-.31-2.523-.7-1.766-1.414-3.527-2.15-5.28"/>
        <path fill="#050505" d="M99.912 62.507s-.19.31-.611.778a9.094 9.094 0 0 1-1.995 1.649c-1.823 1.145-4.573 1.935-7.49 1.502 0 0 1.026-1.033 2.783-1.93a16.075 16.075 0 0 1 3.112-1.21c1.2-.334 2.54-.564 4.201-.79M119.75 62.107s.272.216.795.44c.52.218 1.36.544 2.277.955 1.876.831 4.171 1.917 6.655 3.638 0 0-.351.12-.976.196a8.323 8.323 0 0 1-2.593-.097 8.754 8.754 0 0 1-3.433-1.468 8.62 8.62 0 0 1-1.626-1.507c-.461-.576-1.044-1.324-1.1-2.157M104.637 80.974l-.29-.24a8.797 8.797 0 0 0-.844-.59c-.746-.465-1.87-.96-3.308-1.366-1.45-.408-3.086-.81-4.597-.41-1.57.356-3.236 1.674-5.05 2.96 0 0 .161-.494.573-1.308.433-.794 1.067-1.993 2.5-3.054a5.769 5.769 0 0 1 2.776-1.079c1.09-.12 2.22.07 3.26.453 1.035.388 2.037.925 2.96 1.692.912.757 1.702 1.789 2.02 2.942M131.302 81.436l-.188-.33a7.01 7.01 0 0 0-.576-.86 7.666 7.666 0 0 0-2.67-2.167c-1.25-.611-2.772-.91-4.415-.51a7.87 7.87 0 0 0-4.635 3.181l.011-.368a4.23 4.23 0 0 1 .202-1.054c.264-.894.973-2.203 2.47-3.209a6.448 6.448 0 0 1 2.757-1.036 6.222 6.222 0 0 1 3.376.513 6.447 6.447 0 0 1 2.745 2.348c.683 1.027 1.035 2.3.923 3.492"/>
        <path fill="#FFF" d="M94.858 100.14c3.773 2.863 8.652 3.896 13.386 4.033 6.735.195 13.918-1.516 18.52-6.437a102.193 102.193 0 0 1-7.93 13.118c-1.07 1.502-2.252 3.034-3.932 3.792-2.657 1.2-5.786.14-8.3-1.333a27.225 27.225 0 0 1-11.311-12.978"/>
        <path fill="#63362F" d="M118.173 118.487s-.157.391-.61.985a6.633 6.633 0 0 1-2.449 1.938c-1.187.567-2.849.867-4.503.458-1.64-.381-3.234-1.476-4.052-3.016l1.049.3c.647.173 1.544.36 2.567.465a16.51 16.51 0 0 0 3.45-.002c1.296-.145 2.779-.396 4.548-1.128"/>
    </g>
</svg>
