<svg xmlns="http://www.w3.org/2000/svg" xmlns:xlink="http://www.w3.org/1999/xlink" width="375" height="155" viewBox="0 0 375 155">
    <defs>
        <path id="a" d="M0 0h375v155H0z"/>
        <path id="c" d="M0 .23h83.214v14.915H0z"/>
        <path id="e" d="M0 .07h25.28v4.531H0z"/>
        <path id="g" d="M0 .1h35.814v6.418H0z"/>
        <path id="i" d="M0 .1h35.814v6.418H0z"/>
        <path id="k" d="M.794.459h43.85v61.96H.793z"/>
        <path id="m" d="M0 .06h21.837v3.914H0z"/>
        <path id="o" d="M.358.207h19.787v27.96H.358z"/>
        <path id="q" d="M.139.08h7.672v10.842H.14z"/>
        <path id="s" d="M.139.08h7.672v10.842H.14z"/>
        <path id="u" d="M.393.227h21.723v30.695H.393z"/>
        <path id="w" d="M.139.08h7.672v10.842H.14z"/>
    </defs>
    <g fill="none" fill-rule="evenodd">
        <mask id="b" fill="#fff">
            <use xlink:href="#a"/>
        </mask>
        <use fill="#000" xlink:href="#a"/>
        <g mask="url(#b)" opacity=".632" style="mix-blend-mode:luminosity">
            <path fill="#FF7900" d="M212.676 8.113c-11.907 16.266 15.271 29.069 15.271 29.069 9.923-17.954-3.366-45.334-15.27-29.069m7.566 17.14c-2.81-2.55-4.564-5.114-5.069-7.415-.298-1.356-.435-3.512 1.805-6.575 1.53-2.087 2.83-2.377 4.394-2.105 1.942.334 3.595 3.823 4.525 9.056.666 3.73.517 7.543-.386 11.008-1.674-1.067-3.544-2.408-5.27-3.969"/>
            <path fill="#FF7900" d="M226.446 36.122s18.09 23.772 32.022 9.202c13.93-14.569-16.085-22.114-32.022-9.202m28.167 5.516c-2.62 2.744-4.771 2.984-6.156 2.93-2.354-.096-5.186-1.373-8.187-3.692-1.84-1.427-3.488-3.032-4.831-4.494 3.255-1.495 6.98-2.31 10.769-2.309 5.318.003 9.039 1.018 9.71 2.872.54 1.49.485 2.825-1.305 4.693"/>
            <path fill="#FFF" d="M232.178 40.85c-1.904 2.273-5.694 2.233-8.464-.087-2.768-2.32-3.469-6.043-1.564-8.316"/>
            <path fill="#FF7900" d="M212.059 113.49l40.792-48.684a1.08 1.08 0 0 0-.132-1.52l-56.168-47.062a1.08 1.08 0 0 0-1.52.134l-40.793 48.685 57.82 48.447z"/>
            <g transform="rotate(40 84.693 273.536)">
                <mask id="d" fill="#fff">
                    <use xlink:href="#c"/>
                </mask>
                <path fill="#FFD203" d="M83.214 13.641c0 .798-.647 1.448-1.448 1.448l-80.31.056a1.445 1.445 0 0 1-1.448-1.444L0 1.737A1.444 1.444 0 0 1 1.444.287L81.755.23c.801 0 1.45.647 1.45 1.448l.009 11.963z" mask="url(#d)"/>
            </g>
            <path fill="#FF7900" d="M231.001 39.362l-9.64 11.506-7.183-6.018 9.64-11.506zM328.507 14.952c-1.709 5.88 7.38 6.712 7.38 6.712.967-6.157-5.671-12.592-7.38-6.712m3.941 4.107c-1.067-.436-1.834-.986-2.217-1.59-.226-.357-.49-.958-.168-2.065.22-.755.56-.973 1.036-1.057.589-.107 1.423.717 2.232 2.115a7.88 7.88 0 0 1 1.034 3.182 12.13 12.13 0 0 1-1.917-.585"/>
            <path fill="#FF7900" d="M335.349 21.517s7.634 4.907 10.097-.7c2.463-5.607-6.89-4.642-10.097.7m8.614-1.352c-.463 1.056-1.052 1.348-1.453 1.476-.682.217-1.623.147-2.721-.203a12.117 12.117 0 0 1-1.846-.781 7.889 7.889 0 0 1 2.834-1.778c1.519-.552 2.686-.649 3.07-.19.31.37.432.757.116 1.476"/>
            <path fill="#FFF" d="M337.476 22.271c-.307.847-1.393 1.23-2.425.855-1.031-.375-1.618-1.365-1.31-2.212"/>
            <path fill="#FF7900" d="M339.28 45.099l6.587-18.137a.328.328 0 0 0-.196-.42l-20.924-7.6a.328.328 0 0 0-.42.197l-6.587 18.137 21.54 7.823z"/>
            <g transform="rotate(20 113.311 926.73)">
                <mask id="f" fill="#fff">
                    <use xlink:href="#e"/>
                </mask>
                <path fill="#FFD203" d="M25.28 4.144a.44.44 0 0 1-.44.44L.442 4.6a.439.439 0 0 1-.44-.439L0 .528c0-.244.196-.44.439-.44L24.837.07a.44.44 0 0 1 .44.44l.003 3.634z" mask="url(#f)"/>
            </g>
            <path fill="#FF7900" d="M336.986 21.969l-1.557 4.286-2.676-.972 1.557-4.286z"/>
            <g>
                <path fill="#FF7900" d="M10.972 21.264c-2.42 8.331 10.455 9.508 10.455 9.508 1.37-8.721-8.034-17.838-10.455-9.508m5.583 5.818c-1.512-.618-2.598-1.396-3.14-2.253-.321-.504-.694-1.356-.239-2.925.312-1.069.795-1.377 1.468-1.498.834-.15 2.016 1.017 3.162 2.997a11.163 11.163 0 0 1 1.465 4.509 17.185 17.185 0 0 1-2.716-.83"/>
                <path fill="#FF7900" d="M20.664 30.565s10.815 6.95 14.305-.992c3.489-7.943-9.76-6.576-14.305.992m12.203-1.916c-.656 1.496-1.49 1.91-2.058 2.091-.966.308-2.3.208-3.855-.288a17.166 17.166 0 0 1-2.615-1.106 11.176 11.176 0 0 1 4.016-2.519c2.15-.782 3.805-.919 4.35-.268.437.524.611 1.071.162 2.09"/>
                <path fill="#FFF" d="M23.678 31.633c-.435 1.2-1.974 1.741-3.436 1.21-1.46-.53-2.292-1.933-1.856-3.132"/>
                <path fill="#FF7900" d="M26.234 63.972l9.331-25.694a.465.465 0 0 0-.277-.595L5.645 26.918a.465.465 0 0 0-.595.278L-4.281 52.89l30.515 11.082z"/>
                <g transform="rotate(20 -66.915 24.356)">
                    <mask id="h" fill="#fff">
                        <use xlink:href="#g"/>
                    </mask>
                    <path fill="#FFD203" d="M35.814 5.87a.623.623 0 0 1-.623.624L.627 6.518a.622.622 0 0 1-.624-.622L0 .748C0 .403.277.124.622.124L35.186.099c.345 0 .624.278.624.623l.004 5.149z" mask="url(#h)"/>
                </g>
                <path fill="#FF7900" d="M22.983 31.204l-2.205 6.073-3.79-1.377 2.204-6.072z"/>
            </g>
            <g>
                <path fill="#FF7900" d="M299.176 147.127c-2.422 8.331 10.455 9.508 10.455 9.508 1.37-8.721-8.035-17.838-10.455-9.508m5.583 5.818c-1.512-.618-2.599-1.396-3.142-2.253-.32-.504-.693-1.356-.238-2.925.312-1.069.795-1.377 1.468-1.498.834-.15 2.016 1.017 3.163 2.997a11.163 11.163 0 0 1 1.464 4.509 17.185 17.185 0 0 1-2.715-.83"/>
                <path fill="#FF7900" d="M308.867 156.428s10.816 6.95 14.306-.992c3.488-7.943-9.76-6.576-14.306.992m12.204-1.916c-.656 1.496-1.49 1.91-2.059 2.091-.966.308-2.299.209-3.854-.288a17.166 17.166 0 0 1-2.615-1.106 11.176 11.176 0 0 1 4.015-2.519c2.151-.782 3.805-.919 4.35-.268.437.524.611 1.071.163 2.09M314.437 189.835l9.331-25.694a.465.465 0 0 0-.277-.595l-29.643-10.765a.465.465 0 0 0-.595.278l-9.331 25.694 30.515 11.082z"/>
                <g transform="rotate(20 -279.715 904.529)">
                    <mask id="j" fill="#fff">
                        <use xlink:href="#i"/>
                    </mask>
                    <path fill="#FFD203" d="M35.814 5.87a.623.623 0 0 1-.623.624L.627 6.518a.622.622 0 0 1-.624-.622L0 .748C0 .403.277.124.622.124L35.186.099c.345 0 .624.278.624.623l.004 5.149z" mask="url(#j)"/>
                </g>
            </g>
            <g>
                <path fill="#FFF" d="M88.226 147.182a1.4 1.4 0 0 0 1.781.867l20.456-7.445-10.953-30.092-21.75 7.916 10.466 28.754zM118.873 137.543l20.455-7.445a1.4 1.4 0 0 0 .808-1.809L129.67 99.535l-21.75 7.916 10.953 30.092zM70.703 108.86l2.538 6.974a1.4 1.4 0 0 0 1.781.867l23.613-8.595-3.512-9.65-23.613 8.595a1.398 1.398 0 0 0-.807 1.809M127.145 86.802l-23.612 8.594 3.512 9.65 23.612-8.595a1.4 1.4 0 0 0 .807-1.809l-2.538-6.974a1.398 1.398 0 0 0-1.78-.866"/>
                <g transform="rotate(-20 286.06 -159.99)">
                    <mask id="l" fill="#fff">
                        <use xlink:href="#k"/>
                    </mask>
                    <path fill="#FF7900" d="M44.089 9.63a5.673 5.673 0 0 0-.71-6.015C41.181.58 36.007-.818 31.812 1.943c-4.141 2.726-7.33 7.18-9.093 10.037-1.765-2.861-4.952-7.315-9.093-10.037C9.434-.817 4.26.581 2.058 3.615a5.673 5.673 0 0 0-.71 6.016c2.335 4.826 11.528 7.576 19.65 7.924v44.863h3.442V17.555c8.121-.344 17.314-3.098 19.649-7.924zM4.429 8.04c-.251-.524-.406-1.206.383-2.292v.004A4.771 4.771 0 0 1 8.66 4.009a5.64 5.64 0 0 1 3.119.94c3.585 2.359 6.457 6.4 8.046 8.974-7.218-.553-14.034-3.066-15.397-5.884zm36.584 0c-1.363 2.817-8.179 5.327-15.397 5.88 1.589-2.575 4.46-6.612 8.046-8.975l-.004.003a5.64 5.64 0 0 1 3.12-.94 4.771 4.771 0 0 1 3.847 1.744c.789 1.086.638 1.767.384 2.287h.004z" mask="url(#l)"/>
                </g>
            </g>
            <g>
                <path fill="#FF7900" d="M128.535 38.597c1.261 5.137 8.42 1.833 8.42 1.833-1.936-5.023-9.682-6.97-8.42-1.833m4.722 1.37c-.987.135-1.798.055-2.346-.232-.323-.169-.78-.505-1.017-1.472-.161-.66 0-.97.318-1.238.395-.334 1.375-.078 2.584.618a6.806 6.806 0 0 1 2.147 1.934c-.496.157-1.081.307-1.686.39"/>
                <path fill="#FF7900" d="M136.488 40.554s7.83.373 7.251-4.885c-.579-5.258-7.158-.497-7.251 4.885m5.86-4.732c.11.99-.205 1.462-.45 1.731-.416.458-1.15.811-2.123 1.024-.597.129-1.198.19-1.718.213a6.814 6.814 0 0 1 1.353-2.555c.897-1.068 1.729-1.645 2.215-1.467.39.143.65.379.723 1.054"/>
                <path fill="#FFF" d="M138.405 40.199c.136.766-.511 1.521-1.445 1.686-.933.166-1.8-.321-1.935-1.088"/>
                <path fill="#FF7900" d="M149.614 56.496l-2.906-16.412a.283.283 0 0 0-.328-.23l-18.935 3.353a.283.283 0 0 0-.229.328l2.906 16.412 19.492-3.451z"/>
                <g transform="rotate(-10 304.521 -698.682)">
                    <mask id="n" fill="#fff">
                        <use xlink:href="#m"/>
                    </mask>
                    <path fill="#FFD203" d="M21.837 3.58c0 .209-.17.38-.38.38L.382 3.974a.38.38 0 0 1-.38-.379L0 .455c0-.21.169-.38.379-.38L21.454.06c.21 0 .38.17.38.38l.003 3.14z" mask="url(#n)"/>
                </g>
                <path fill="#FF7900" d="M137.908 40.184l.686 3.88-2.42.428-.688-3.879z"/>
            </g>
            <g>
                <path fill="#FFF" d="M337.174 94.896a.632.632 0 0 0-.246.86l4.912 8.506 12.514-7.225-5.222-9.045-11.958 6.904zM343.859 107.76l4.911 8.507c.181.3.568.397.868.217l11.958-6.904-5.222-9.045-12.515 7.225zM352.831 84.106l-2.9 1.674a.632.632 0 0 0-.246.86l5.67 9.82 4.013-2.317-5.67-9.82a.631.631 0 0 0-.867-.217M367.057 107.46l-5.67-9.82-4.013 2.317 5.67 9.82c.18.3.569.396.867.217l2.9-1.675a.631.631 0 0 0 .246-.859"/>
                <g transform="rotate(60 109.135 355.127)">
                    <mask id="p" fill="#fff">
                        <use xlink:href="#o"/>
                    </mask>
                    <path fill="#FF7900" d="M19.895 4.346a2.56 2.56 0 0 0-.32-2.715c-.992-1.369-3.327-2-5.22-.754-1.868 1.23-3.307 3.24-4.103 4.529-.796-1.291-2.235-3.301-4.103-4.53C4.257-.368 1.922.263.929 1.632a2.56 2.56 0 0 0-.32 2.715C1.662 6.524 5.81 7.765 9.475 7.922v20.244h1.554V7.922c3.665-.156 7.813-1.398 8.866-3.576zM1.998 3.628c-.113-.236-.182-.544.173-1.034v.001a2.153 2.153 0 0 1 1.737-.786c.501 0 .99.147 1.407.424 1.618 1.065 2.914 2.888 3.631 4.05-3.257-.25-6.333-1.384-6.948-2.655zm16.51 0c-.616 1.271-3.691 2.404-6.949 2.653.717-1.162 2.013-2.983 3.631-4.05l-.002.002a2.545 2.545 0 0 1 1.408-.424c.67-.023 1.31.269 1.736.786.356.49.288.798.174 1.033h.001z" mask="url(#p)"/>
                </g>
            </g>
            <g>
                <path fill="#FFF" d="M85.8 39.338c.086.106.24.122.345.036l2.918-2.448-3.602-4.292-3.102 2.603 3.441 4.101zM90.263 35.92l2.917-2.449a.245.245 0 0 0 .025-.346l-3.442-4.101-3.102 2.603 3.602 4.293zM80.626 34.086l.834.995c.085.105.24.121.345.036l3.368-2.826-1.155-1.377-3.368 2.826a.245.245 0 0 0-.024.346M88.586 27.081l-3.368 2.827 1.155 1.376 3.368-2.826a.245.245 0 0 0 .024-.346l-.834-.995a.245.245 0 0 0-.345-.036"/>
                <g transform="rotate(-40 81.85 -94.04)">
                    <mask id="r" fill="#fff">
                        <use xlink:href="#q"/>
                    </mask>
                    <path fill="#FF7900" d="M7.714 1.685A.993.993 0 0 0 7.59.632C7.206.102 6.3-.143 5.566.34c-.724.477-1.282 1.256-1.59 1.756-.31-.5-.867-1.28-1.592-1.756C1.651-.143.745.102.36.632a.993.993 0 0 0-.124 1.053c.408.845 2.017 1.326 3.438 1.387v7.85h.602v-7.85c1.421-.06 3.03-.542 3.438-1.387zm-6.94-.278c-.043-.092-.07-.211.068-.401a.835.835 0 0 1 .673-.305c.195 0 .384.058.546.165.627.413 1.13 1.12 1.408 1.57C2.206 2.34 1.013 1.9.775 1.406zm6.402 0c-.238.493-1.43.932-2.694 1.029.278-.451.78-1.157 1.408-1.57A.987.987 0 0 1 6.434.7a.835.835 0 0 1 .673.305c.138.19.112.31.068.4z" mask="url(#r)"/>
                </g>
            </g>
            <g>
                <path fill="#FFF" d="M298.078 132.666c.085.105.24.121.345.036l2.918-2.449-3.602-4.292-3.103 2.603 3.442 4.102zM302.54 129.247l2.918-2.448a.245.245 0 0 0 .024-.346l-3.441-4.102-3.103 2.604 3.602 4.292zM292.903 127.413l.835.995c.085.105.24.121.345.036l3.368-2.826-1.155-1.376-3.368 2.826a.245.245 0 0 0-.025.345M300.864 120.409l-3.369 2.826 1.155 1.376 3.369-2.826a.245.245 0 0 0 .024-.346l-.835-.994a.245.245 0 0 0-.344-.036"/>
                <g transform="rotate(-40 316.197 -338.99)">
                    <mask id="t" fill="#fff">
                        <use xlink:href="#s"/>
                    </mask>
                    <path fill="#FF7900" d="M7.714 1.685A.993.993 0 0 0 7.59.632C7.206.102 6.3-.143 5.566.34c-.724.477-1.282 1.256-1.59 1.756-.31-.5-.867-1.28-1.592-1.756C1.651-.143.745.102.36.632a.993.993 0 0 0-.124 1.053c.408.845 2.017 1.326 3.438 1.387v7.85h.602v-7.85c1.421-.06 3.03-.542 3.438-1.387zm-6.94-.278c-.043-.092-.07-.211.068-.401a.835.835 0 0 1 .673-.305c.195 0 .384.058.546.165.627.413 1.13 1.12 1.408 1.57C2.206 2.34 1.013 1.9.775 1.406zm6.402 0c-.238.493-1.43.932-2.694 1.029.278-.451.78-1.157 1.408-1.57A.987.987 0 0 1 6.434.7a.835.835 0 0 1 .673.305c.138.19.112.31.068.4z" mask="url(#t)"/>
                </g>
            </g>
            <g>
                <path fill="#FFF" d="M288.89 99.365a.693.693 0 0 0 .944.27l9.34-5.392-7.933-13.739-9.93 5.733 7.58 13.128zM303.013 92.026l9.339-5.392a.693.693 0 0 0 .238-.952l-7.58-13.128-9.93 5.733 7.933 13.74zM277.045 82.176l1.838 3.184a.694.694 0 0 0 .943.27l10.78-6.224L288.064 75l-10.78 6.224a.693.693 0 0 0-.238.952M302.684 66.56l-10.781 6.223 2.544 4.406 10.78-6.224a.694.694 0 0 0 .238-.952l-1.838-3.184a.693.693 0 0 0-.943-.27"/>
                <g transform="rotate(-30 272.265 -478.817)">
                    <mask id="v" fill="#fff">
                        <use xlink:href="#u"/>
                    </mask>
                    <path fill="#FF7900" d="M21.841 4.771a2.81 2.81 0 0 0-.351-2.98C20.4.288 17.838-.405 15.76.963c-2.052 1.35-3.631 3.556-4.505 4.972C10.38 4.517 8.8 2.31 6.75.963 4.673-.405 2.11.288 1.02 1.79a2.81 2.81 0 0 0-.352 2.98c1.157 2.391 5.71 3.753 9.734 3.926v22.225h1.705V8.697c4.024-.17 8.578-1.535 9.734-3.926zM2.194 3.983c-.124-.26-.2-.598.19-1.135v.001a2.364 2.364 0 0 1 1.906-.863c.55 0 1.087.162 1.545.465 1.776 1.17 3.2 3.17 3.986 4.446C6.245 6.624 2.87 5.38 2.194 3.983zm18.124 0c-.676 1.396-4.052 2.639-7.628 2.913.787-1.276 2.21-3.276 3.986-4.446l-.002.001a2.794 2.794 0 0 1 1.545-.465 2.364 2.364 0 0 1 1.907.863c.39.538.316.876.19 1.134h.002z" mask="url(#v)"/>
                </g>
            </g>
            <g>
                <path fill="#FFF" d="M30.757 109.828a.245.245 0 0 0 .194.287l3.751.661.973-5.518-3.988-.703-.93 5.273zM36.244 111.048l3.751.661c.134.021.26-.07.28-.203l.93-5.273-3.988-.703-.973 5.518zM31.454 102.487l-.225 1.28a.245.245 0 0 0 .194.286l4.33.764.312-1.77-4.33-.763a.245.245 0 0 0-.28.203M41.937 104.083l-4.33-.764-.312 1.77 4.33.763c.134.021.26-.07.28-.203l.226-1.28a.245.245 0 0 0-.194-.286"/>
                <g transform="rotate(10 -551.724 240.928)">
                    <mask id="x" fill="#fff">
                        <use xlink:href="#w"/>
                    </mask>
                    <path fill="#FF7900" d="M7.714 1.685A.993.993 0 0 0 7.59.632C7.206.102 6.3-.143 5.566.34c-.724.477-1.282 1.256-1.59 1.756-.31-.5-.867-1.28-1.592-1.756C1.651-.143.745.102.36.632a.993.993 0 0 0-.124 1.053c.408.845 2.017 1.326 3.438 1.387v7.85h.602v-7.85c1.421-.06 3.03-.542 3.438-1.387zm-6.94-.278c-.043-.092-.07-.211.068-.401a.835.835 0 0 1 .673-.305c.195 0 .384.058.546.165.627.413 1.13 1.12 1.408 1.57C2.206 2.34 1.013 1.9.775 1.406zm6.402 0c-.238.493-1.43.932-2.694 1.029.278-.451.78-1.157 1.408-1.57A.987.987 0 0 1 6.434.7a.835.835 0 0 1 .673.305c.138.19.112.31.068.4z" mask="url(#x)"/>
                </g>
            </g>
            <g>
                <path fill="#FF7900" d="M29.997 162.74s9.065.432 8.395-5.655c-.67-6.087-8.287-.575-8.395 5.655m6.784-5.478c.127 1.146-.237 1.693-.52 2.005-.482.53-1.332.939-2.458 1.184-.691.15-1.387.22-1.99.247a7.889 7.889 0 0 1 1.566-2.957c1.04-1.237 2.003-1.905 2.565-1.699.452.166.752.439.837 1.22"/>
            </g>
        </g>
    </g>
</svg>
