<svg xmlns="http://www.w3.org/2000/svg" xmlns:xlink="http://www.w3.org/1999/xlink" width="1030" height="310" viewBox="0 0 1030 310">
    <defs>
        <path id="a" d="M0 0h880v180H0z"/>
        <path id="c" d="M.251.577H69.65v48.636H.251z"/>
        <path id="e" d="M0 .258h2.62v26.55H0z"/>
        <path id="g" d="M.056.09h68.193v67.28H.056z"/>
        <path id="i" d="M.226.577h16.02v14.77H.226z"/>
        <path id="k" d="M0 .577h48.932v18.074H0z"/>
        <path id="m" d="M.076.221h19.23v52.16H.075z"/>
        <path id="o" d="M0 .369h59.468v62.697H0z"/>
        <path id="q" d="M.347.577H74.26v48.188H.347z"/>
        <path id="s" d="M.523.577h80.683v31.204H.523z"/>
        <path id="u" d="M.277.328h1.157v16.479H.277z"/>
        <path id="w" d="M0 .497h90.211v88.781H0z"/>
        <path id="y" d="M.468.577h79.088v44.167H.468z"/>
        <path id="A" d="M.002.083h67.2v75.156H.002z"/>
        <path id="C" d="M.852.577h70.946v25.055H.852z"/>
        <path id="E" d="M.388.577h72.75v70.436H.389z"/>
    </defs>
    <g fill="none" fill-rule="evenodd">
        <path fill="#F3F3F8" d="M-250 0h1280v755H-250z"/>
        <g opacity=".06" style="mix-blend-mode:luminosity" transform="translate(100 30)">
            <mask id="b" fill="#fff">
                <use xlink:href="#a"/>
            </mask>
            <use fill="#F9F9F9" xlink:href="#a"/>
            <g mask="url(#b)" style="mix-blend-mode:luminosity">
                <path fill="#085EBD" d="M462.767-40.985c-6.104-1.246-12.77-.058-19.416 4.58-5.33 3.716-9.962 10.448-11.542 16.689-3.912 15.472 5.977 35.54 20.23 41.977 13.878 6.267 32.193-.76 36.875-15.973 5.425-17.636-7.418-43.453-26.147-47.273"/>
                <path fill="#C19372" d="M677.915 350.422c-13.09-8.213-32.687-4.438-42.535 7.835-2.173 2.71-3.902 5.768-5.157 9.008-11.817 30.537 19.364 51.151 46.133 39.13 23.957-10.755 24.136-41.809 1.559-55.973"/>
                <path fill="#FFD200" d="M847.359 588.678c-17.998-11.269-41.844 1.719-48.544 19.479-8.406 22.28 11.868 44.336 35.03 40.023 10.485-1.952 25.618-13.957 28.116-24.888 1.81-7.93.943-15.342-2.336-21.703-2.609-5.058-6.743-9.452-12.266-12.91"/>
                <path fill="#085EBD" d="M463.426 159.953c-16.309-9.953-43.34.186-51.424 16.777-6.973 14.312 1.621 31.92 16.053 36.781 14.821 4.995 35.767-2.95 43.479-16.93 3.11-5.638 4.32-13.715 2.964-20.06-1.692-7.915-5.755-13.322-11.072-16.568"/>
                <g transform="translate(352.827 -204.05)">
                    <mask id="d" fill="#fff">
                        <use xlink:href="#c"/>
                    </mask>
                    <path fill="#C19372" d="M42.442 48.785C66.418 45.327 76.21 20.48 65.062.575H5.07c-15.448 25.88 8.72 52.342 37.37 48.21" mask="url(#d)"/>
                </g>
                <path fill="#C19372" d="M368.241 677.57c-2.94 2.079-5.533 4.631-7.71 7.5a42.308 42.308 0 0 0-2.632 3.894h59.99a39.476 39.476 0 0 0-5.059-7.076c-10.682-11.907-31.273-13.731-44.589-4.318"/>
                <path fill="#085EBD" d="M678.17 54.065c-14.881-9.889-40.358-7.301-53.015 5.854-5.102 5.306-8.834 13.866-9.216 21.272-.479 9.236 2.406 16.404 7.312 21.556 15.053 15.803 47.9 12.59 61.74-3.338 11.94-13.742 7.67-35.715-6.82-45.344"/>
                <path fill="#FFD200" d="M77.798 443.192c-8.712-7.081-28.041-7.243-37.509-2.337-20.91 10.834-23.285 40.671-2.915 53.063 16.234 9.88 43.038 5.46 50.27-14.479 2.219-6.121 2.766-12.122 1.7-17.71-1.34-7.029-5.228-13.403-11.546-18.537M434.305 439.681c-7.324 10.662-9.989 33.94-2.728 45.466 5.266 8.361 12.387 13.982 20.675 16.633 6.59 2.108 13.92 2.337 21.641.574 25.146-5.747 34.45-37.335 24.924-58.325-11.951-26.336-48.333-27.899-64.512-4.348"/>
                <path fill="#50BE87" d="M172.18-158.396c-15.688-3.09-35.248 7.815-40.943 22.357-5.544 14.162 2.445 32.05 17.912 35.919 17.929 4.483 43.089-9.667 45.932-28.534.927-6.15-.612-12.732-5.598-19.115-3.998-5.115-10.978-9.382-17.303-10.627"/>
                <path fill="#FFD200" d="M692.793-38.265c-10.66-7.494-33.057-6.118-43.622.325-23.331 14.237-23.658 48.976.931 61.68 19.599 10.125 50.277 2.842 57.031-20.829 2.073-7.266 2.22-14.26.534-20.646-2.121-8.03-7.14-15.094-14.874-20.53"/>
                <path fill="#085EBD" d="M713.229 448.392c-5.14-4.161-13.039-6.796-19.599-6.587-16.267.519-33.165 15.807-35.476 31.53-2.25 15.311 9.776 31.227 26.004 31.529 18.811.351 40.516-19.434 39.008-38.795-.492-6.312-3.528-12.49-9.937-17.677M223.215 201.162c-19.33-10.724-52.795-2.145-61.934 18.779-2.98 6.822-3.245 14.903.539 23.82 3.033 7.149 9.775 14.236 16.699 17.631 17.17 8.417 43.16 1.86 54.253-13.186 10.8-14.651 7.117-37.792-9.557-47.044"/>
                <path fill="#C19372" d="M295.875-11.947c-3.132-1.515-6.486-2.576-9.927-3.079-15.59-2.273-32.502 8.306-36.463 23.222-6.83 25.728 14.52 48.316 39.387 39.877 27.794-9.43 36.512-45.731 7.003-60.02"/>
                <path fill="#FFD200" d="M387.047-110.359c-7.343 16.343.17 38.214 15.896 47.53 3.472 2.056 7.27 3.545 11.208 4.46 37.074 8.625 55.777-30.477 37.61-59.247-16.257-25.74-52.047-20.932-64.714 7.257"/>
                <path fill="#085EBD" d="M777.863 262.094c-15.514 10.029-22.303 38.045-10.417 52.987 3.875 4.87 9.749 8.237 17.826 8.95 6.474.57 14.36-1.614 19.588-5.381 12.962-9.344 18.312-31.06 11.538-45.135-6.595-13.703-25.15-20.072-38.535-11.421M204.53 385.842c-5.97-2.979-13.202-3.594-21.368-.635-6.546 2.372-13.213 8.057-16.58 14.079-8.349 14.93-3.69 38.435 9.271 49.04 12.623 10.328 33.53 8.126 42.602-6.324 10.515-16.75 4.397-47.023-13.924-56.16M224.398 56.168c-13.503-12.597-42.38-12.394-54.032 2.73-3.8 4.931-5.65 11.433-4.39 19.427 1.012 6.41 5.044 13.517 9.972 17.668 12.22 10.293 34.626 10.22 46.67.257 11.727-9.703 13.43-29.214 1.78-40.082"/>
                <g transform="translate(0 -141.943)">
                    <mask id="f" fill="#fff">
                        <use xlink:href="#e"/>
                    </mask>
                    <path fill="#FFD200" d="M2.564 10.838A29.101 29.101 0 0 0 0 .258v26.55c1.965-4.764 2.86-10.137 2.564-15.97" mask="url(#f)"/>
                </g>
                <g transform="translate(825.92 -162.834)">
                    <mask id="h" fill="#fff">
                        <use xlink:href="#g"/>
                    </mask>
                    <path fill="#FFD200" d="M23.853 1.177C-.907 7.507-7.841 38.821 10.183 56.46c8.16 7.985 28.02 13.862 39.168 9.333 8.084-3.286 14.07-8.602 17.647-15.384.463-.876.868-1.786 1.25-2.71V21.15C61.05 5.212 40.265-3.02 23.854 1.177" mask="url(#h)"/>
                </g>
                <path fill="#C19372" d="M493.18 228.065c-12.897 24.436 7.134 50.334 35.086 47.479 16.203-1.655 30.02-17.477 30.22-34.043.045-3.658-.51-7.314-1.573-10.818-10.035-33.002-49.318-29.931-63.734-2.618"/>
                <g transform="translate(877.922 -204.05)">
                    <mask id="j" fill="#fff">
                        <use xlink:href="#i"/>
                    </mask>
                    <path fill="#50BE87" d="M.226.576c2.822 5.598 7.617 10.53 14.79 14.185.401.204.814.397 1.232.586V.577H.226z" mask="url(#j)"/>
                </g>
                <g transform="translate(0 -204.05)">
                    <mask id="l" fill="#fff">
                        <use xlink:href="#k"/>
                    </mask>
                    <path fill="#50BE87" d="M24.357 17.72C33.802 15.398 42.534 8.894 48.932.577H0v14.77c7.232 3.269 16.852 4.217 24.357 2.373" mask="url(#l)"/>
                </g>
                <g transform="translate(874.863 636.582)">
                    <mask id="n" fill="#fff">
                        <use xlink:href="#m"/>
                    </mask>
                    <path fill="#50BE87" d="M19.306.221C5.584 11.941-3.421 31.36 1.381 47.595a28.94 28.94 0 0 0 1.904 4.786h16.021V.22z" mask="url(#n)"/>
                </g>
                <g transform="translate(0 625.897)">
                    <mask id="p" fill="#fff">
                        <use xlink:href="#o"/>
                    </mask>
                    <path fill="#50BE87" d="M59.4 32.624C58.17 13.387 39.386-2.895 19.536.93 12.63 2.262 5.884 5.88 0 10.906v52.16h48.933C55.869 54.049 60.058 42.9 59.4 32.624" mask="url(#p)"/>
                </g>
                <path fill="#FFD200" d="M877.391 430.537c-9.22-6.075-29.149-7.996-38.89-1.645-7.066 4.605-11.762 10.75-13.904 17.845-1.704 5.642-1.79 11.882-.169 18.43 5.285 21.316 32.415 28.765 50.209 20.345 22.326-10.565 23.116-41.555 2.754-54.975M507.965 295.144c-10.073-7.618-31.813-7.042-42.266-1.158-23.083 13.002-24.577 46.642-1.188 59.776 18.64 10.472 48.604 4.451 55.948-18.25 2.256-6.967 2.634-13.738 1.218-19.98-1.784-7.848-6.407-14.862-13.712-20.388"/>
                <path fill="#50BE87" d="M818.576 498.04c-6.52-3.041-15.553-3.748-22.42-1.805-17.031 4.822-30.836 25.394-29.13 42.596 1.663 16.75 18.553 30.389 35.76 26.446 19.945-4.57 37.636-31.152 30.94-51.19-2.183-6.531-7.016-12.254-15.15-16.048"/>
                <path fill="#C19372" d="M599.6 127.086c-4.288-.745-8.682-.865-12.99-.285-19.517 2.63-36.187 21.156-35.797 40.44.673 33.265 34.125 53.062 61.092 34.371 30.14-20.89 28.085-67.505-12.304-74.526"/>
                <path fill="#FFD200" d="M604.988 398.944c-5.445-3.789-11.212-5.908-16.998-6.335-7.276-.538-14.58 1.598-21.303 6.446-9.269 6.683-14.521 25.61-12.184 36.191 5.165 23.374 33.933 33.564 51.507 16.84 14.007-13.327 16.716-40.794-1.022-53.142"/>
                <path fill="#C19372" d="M771.978-97.229c-3.701-.434-7.467-.263-11.128.44-34.512 6.62-35.573 46.6-9.43 64.054 23.392 15.615 51.763-1.852 51.842-30.369.044-16.533-14.52-32.162-31.284-34.125"/>
                <path fill="#085EBD" d="M393.034 224.968c-18.44-10.174-42.315-.072-49.743 18.6-7.628 19.175 1.43 47.312 19.378 58.434 7.24 4.485 17.837 6.64 26.32 5.293 10.582-1.68 18.012-6.662 22.67-13.438 14.288-20.79 2.753-57.095-18.625-68.889"/>
                <path fill="#FFD200" d="M157.195 473.327c-28.076-8.872-56.598 15.41-49.57 44.332 5.6 23.054 33.208 42.791 57.254 31.547 7.383-3.453 13.183-8.275 17.19-14.154 5.041-7.393 7.248-16.457 6.211-26.57-1.431-13.942-18.372-31.14-31.085-35.155"/>
                <path fill="#C19372" d="M647.43 666.107c-16.437.796-29.771 10.414-35.424 22.857h69.255c-4.4-13.583-16.852-23.678-33.831-22.857"/>
                <g transform="translate(608.734 -204.05)">
                    <mask id="r" fill="#fff">
                        <use xlink:href="#q"/>
                    </mask>
                    <path fill="#C19372" d="M12.892 39.463c2.87 2.568 6.114 4.718 9.624 6.3 15.896 7.167 37.13 1.06 45.906-13.607 6.287-10.512 7.23-21.926 4.105-31.58H3.272c-5.514 12.13-3.727 26.944 9.62 38.887" mask="url(#r)"/>
                </g>
                <path fill="#085EBD" d="M389.121 4.391c-18.697-2.344-40.797 12.083-46.294 29.647-5.352 17.103 5.514 37.479 24.02 40.758 21.445 3.801 49.862-14.9 51.65-37.316.582-7.306-1.768-14.92-8.157-22.012-5.122-5.688-13.678-10.13-21.219-11.077"/>
                <path fill="#50BE87" d="M273.527-190.743c-7.855-3.176-18.52-3.45-26.475-.742-19.728 6.716-34.689 31.753-31.62 51.874 2.99 19.594 23.69 34.59 43.678 28.897 23.169-6.6 42.33-38.943 33.219-62.093-2.97-7.545-9.006-13.977-18.802-17.936"/>
                <path fill="#C19372" d="M440.235 85.316c-1.594 3.435-2.689 7.1-3.17 10.85-2.183 16.99 9.681 35.172 26.034 39.194 28.204 6.937 52.446-16.7 42.766-43.571-10.82-30.033-50.598-38.82-65.63-6.473"/>
                <path fill="#FFD200" d="M354.298 609.622c-4.919-7.627-12.523-13.277-22.394-16.317-13.611-4.194-36.411 4.778-45.206 15.033-19.426 22.649-8.014 58.849 21.826 63.763 23.785 3.915 53.19-13.985 52.203-40.852-.305-8.246-2.518-15.561-6.429-21.627"/>
                <g transform="translate(443.55 -204.05)">
                    <mask id="t" fill="#fff">
                        <use xlink:href="#s"/>
                    </mask>
                    <path fill="#C19372" d="M6.62 12.938C29.325 45.447 69.553 32.34 81.206.576H.523C.531.6.533.621.542.642c1.367 4.38 3.447 8.529 6.078 12.296" mask="url(#t)"/>
                </g>
                <path fill="#C19372" d="M466.92 636.734c-18.666 8.234-29 32.406-22.848 52.23h80.684a52.402 52.402 0 0 0 2.453-9.169c5.893-34.136-28.057-57.28-60.29-43.061"/>
                <path fill="#085EBD" d="M641.18 507.701c-16.337 2.975-31.689 21.113-31.64 38.058.02 6.83 3.06 14.955 7.592 20.15 5.655 6.48 12.218 9.412 18.827 9.695 20.276.865 40.149-22.439 39.098-41.995-.906-16.873-17.967-28.807-33.877-25.908"/>
                <path fill="#C19372" d="M519.524 10.626c-17.936 31.286 7.01 65.975 43.595 63.52 21.21-1.42 39.954-21.428 40.97-43.026.225-4.768-.33-9.562-1.559-14.182-11.58-43.5-62.96-41.278-83.006-6.312"/>
                <path fill="#FFD200" d="M15.338 524.853C.695 536.96-3.845 563.691 12.69 577.005c5.076 4.088 10.584 6.558 16.225 7.372 7.095 1.024 14.4-.57 21.32-4.859 9.543-5.918 15.991-24.107 14.427-34.638-3.457-23.26-30.95-35.212-49.323-20.027M307.85 94.236c-8.945 2.586-15.887 7.558-20.44 14.355-3.62 5.404-5.731 11.962-6.135 19.392-1.314 24.197 24.906 40.793 46.405 37.636 26.972-3.96 37.827-36.406 20.675-57.124-7.764-9.38-28.173-17.823-40.505-14.259"/>
                <g transform="translate(892.734 13.762)">
                    <mask id="v" fill="#fff">
                        <use xlink:href="#u"/>
                    </mask>
                    <path fill="#50BE87" d="M1.435 16.807V.327c-1.028 5.576-1.068 11.415 0 16.48" mask="url(#v)"/>
                </g>
                <g transform="translate(0 -17.815)">
                    <mask id="x" fill="#fff">
                        <use xlink:href="#w"/>
                    </mask>
                    <path fill="#50BE87" d="M53.13 89.238c21.738-1.007 40.486-21.806 36.557-44.202C85.134 19.078 52.01-5.47 25.689 1.788c-8.58 2.368-16.295 8.196-21.742 18.4C2.104 23.639.775 27.697 0 31.904V48.38c.036.172.065.35.104.519 5.075 22.23 30.703 41.372 53.025 40.338" mask="url(#x)"/>
                </g>
                <path fill="#C19372" d="M542.602 499.128c-22.636.333-43.686 20.567-45.975 43.478-.504 5.059-.182 10.188.868 15.168 9.886 46.907 64.65 47.403 87.922 11.33 20.82-32.274-3.77-70.55-42.815-69.976"/>
                <path fill="#085EBD" d="M365.265 391.015c-20.65-9.763-48.305.297-55.723 22.993-8.6 26.307 9.984 65.362 37.972 71.58 9.123 2.028 19.154.42 29.242-6.359 8.09-5.436 15.214-15.413 17.745-24.73 6.274-23.103-8.03-53.46-29.236-63.484"/>
                <path fill="#C19372" d="M776.66 655.256c-18.47-1.017-36.783 14.28-39.956 32.825-.049.291-.09.59-.131.882h78.467c-1.877-17.413-16.965-32.528-38.38-33.707"/>
                <g transform="translate(735.68 -204.05)">
                    <mask id="z" fill="#fff">
                        <use xlink:href="#y"/>
                    </mask>
                    <path fill="#C19372" d="M.864 12.105C6.244 50.9 50.854 54.42 71.881 26.343c6.167-8.236 8.394-17.274 7.478-25.766H.893a40.714 40.714 0 0 0-.029 11.528" mask="url(#z)"/>
                </g>
                <path fill="#FFD200" d="M151.678 595.2c-25.726 18.91-19.071 58.44 10.096 70.46 13.204 5.442 38.974 2.972 49.77-7.488 7.83-7.587 12.273-16.544 13.237-26.077.768-7.58-.664-15.525-4.34-23.433-11.98-25.758-48.257-28.532-68.763-13.462M80.043-155.993c-24.582-8.98-49.991 12.77-53.507 35.887-4.411 29.004 25.686 50.4 52.493 39.282 12.137-5.033 27.294-23.372 27.499-37.186.148-10.018-2.8-18.732-8.387-25.558-4.441-5.43-10.551-9.668-18.098-12.425"/>
                <path fill="#085EBD" d="M578.422-118.878c-6.532 2.83-11.995 8.302-15.17 16.99-2.547 6.968-2.463 16.302.159 23.176 6.5 17.045 28.936 29.363 46.507 26.063 17.108-3.212 29.64-21.773 24.03-39.08-6.504-20.058-35.483-35.825-55.526-27.149M262.749 281.813c-9.442.568-18.749 4.926-26.668 14.328-6.348 7.54-10.49 19.227-10.349 28.995.354 24.22 22.75 49.764 46.18 53.613 22.815 3.746 46.903-13.737 47.778-37.88 1.012-27.98-27.979-60.796-56.941-59.056"/>
                <path fill="#C19372" d="M705.588 125.72c-4.156 2.938-7.824 6.547-10.901 10.603-28.982 38.221 6.569 79.797 49.113 73.66 38.066-5.489 50.877-49.124 24.828-78.159-15.102-16.831-44.213-19.412-63.04-6.104M343.903-96.88c-3.552-1.494-7.32-2.474-11.155-2.83-17.367-1.61-35.453 11.065-38.965 27.785-6.06 28.839 18.857 52.579 45.861 41.811 30.182-12.035 37.714-52.676 4.259-66.765"/>
                <path fill="#FFD200" d="M658.202 248.675c-18.259-6.405-44.008 3.658-46.98 25.034-.911 6.564-.183 12.655 2.062 17.995 2.825 6.715 8.048 12.24 15.426 16.017 10.175 5.207 29.455 1.286 37.841-5.596 18.52-15.204 14.558-45.412-8.35-53.45"/>
                <path fill="#50BE87" d="M9.794 371.504c6.035-8.305 7.691-16.714 6.245-24.466C14.287 337.653 8.156 329.363 0 323.15v57.42c3.858-2.519 7.324-5.667 9.794-9.066"/>
                <g transform="translate(826.967 311.434)">
                    <mask id="B" fill="#fff">
                        <use xlink:href="#A"/>
                    </mask>
                    <path fill="#50BE87" d="M23.778 1.478C4.351 7.064-4.98 30.082 2.674 47.78c7.859 18.175 33.128 31.13 52.87 26.522 3.896-.911 7.958-2.75 11.66-5.166v-57.42C54.691 2.186 37.408-2.44 23.777 1.478" mask="url(#B)"/>
                </g>
                <path fill="#FF7900" d="M873.082 446.923c-.324 5.32-3.718 10.616-8.827 12.496-6.396 2.354-15.077.206-17.616-6.65-4.607-12.436 6.79-24.744 19.291-18.01 4.332 2.334 7.487 6.675 7.152 12.164m-35.33-12.624c-6.94 11.525-3.202 26.482 8.344 33.405 11.546 6.926 26.532 3.196 33.47-8.329 5.591-9.287 3.836-19.533-2.354-27.955-9.846-13.401-31.026-11.128-39.46 2.879"/>
                <path fill="#50BE87" d="M162.634 172.095a11.493 11.493 0 0 1-8.466-4.751 11.41 11.41 0 0 1-2.092-8.055c.614-5.177 5.105-9.648 9.9-11.307 2.706-.936 5.49-.864 7.86.86 2.59 1.884 6.3 7.29 6.587 10.5.676 7.523-6.999 13.265-13.79 12.753m20.642-26.62c-5.887-7.889-16.148-12.256-26.118-9.124-11.207 3.52-17.961 14.604-17.383 25.998.679 13.368 12.31 22.765 25.382 21.84 7.684-.542 16.2-5.527 20.44-11.853 3.898-5.818 3.583-12.635 1.61-19.121a25.237 25.237 0 0 0-3.93-7.74"/>
                <path fill="#FF7900" d="M375.84 387.763c-5.961.692-12.157-1.442-15.67-7.16-3.405-5.539-3.726-13.2.06-18.642 4.74-6.818 14.918-10.735 22.26-5.66 13.317 9.21 10.556 29.46-6.65 31.462m-3.277-46.76c-16.387 1.143-28.743 15.33-27.598 31.686.924 13.183 9.86 22.192 21.945 26.285 19.227 6.51 38.795-10.544 37.402-30.427-1.145-16.356-15.36-28.687-31.749-27.544M788.02 605.422c-15.313 12.988-34.71-.698-32.003-19.258 1.494-10.231 12.873-15.751 22.419-14.371 7.623 1.099 13.878 7.432 15.894 14.7 2.08 7.495-1.005 14.43-6.31 18.93m-37.154-39.767c-13.937 12.971-14.7 34.764-1.704 48.673 15.8 16.91 45.774 13.835 55.453-7.599 6.08-13.468 5.49-28.164-4.982-39.375-12.997-13.908-34.83-14.67-48.767-1.699"/>
                <path fill="#50BE87" d="M194.986 344.038c-2.74 2.302-6.118 2.626-9.49 1.716-5.975-1.61-11.82-6.67-13.009-12.914a13.92 13.92 0 0 1 1.858-9.98 14.019 14.019 0 0 1 9.896-6.498c8.216-1.2 18.042 5.134 17.863 14.344-.078 3.929-4.128 10.82-7.118 13.332m-8.708-42.603c-15.984-.014-29.33 12.406-29.016 28.724.268 13.911 9.428 26.823 23.36 30.152 12.398 2.966 24.509-3.218 30.998-13.316a30.778 30.778 0 0 0 4.124-9.75c1.847-8.058 1.649-16.378-3.59-23.125-5.697-7.335-16.483-12.676-25.876-12.685"/>
                <path fill="#FF7900" d="M543.45 180.375c-7.246 5.796-18.089 2.471-23.504-4.26-4.323-5.371-4.546-13.341-1.417-19.336 3.229-6.185 9.501-8.849 15.736-8.562 17.998.83 22.335 21.64 9.186 32.158m-19.266-43.143c-12.239 5.12-20.854 15.116-20.853 28.86 0 17.049 13.848 30.873 30.934 30.873 17.084 0 30.935-13.824 30.935-30.874 0-20.73-21.54-37.007-41.016-28.859"/>
                <g transform="translate(7.647 -204.05)">
                    <mask id="D" fill="#fff">
                        <use xlink:href="#C"/>
                    </mask>
                    <path fill="#FFF" d="M13.46 17.034a38.26 38.26 0 0 0 11.487 6.386c14.065 4.921 30.628 1.737 40.475-10.605A35.998 35.998 0 0 0 71.798.577H50.684a22.356 22.356 0 0 1-1.158 1.726c-2.6 3.456-6.149 5.714-10.586 5.554-4.703-.171-13.528-3.618-16.855-7.28H.852C3.176 7.066 7.87 12.499 13.46 17.034" mask="url(#D)"/>
                </g>
                <path fill="#FFF" d="M72.833 653.94c-12.176-16.187-34.717-18.154-50.324-5.96-9.173 7.164-15.625 20.602-15.581 32.112.012 3.16.581 6.11 1.57 8.87h21.235c-.1-.106-.21-.214-.299-.324-7.219-8.859-2.464-22.536 6.484-27.623 4.636-2.636 9.987-2.9 14.638-1.19a17.298 17.298 0 0 1 9.45 8.333c3.293 6.382 2.05 14.735-1.674 20.805h21.113c3.498-11.776.97-24.945-6.612-35.023"/>
                <path fill="#FF7900" d="M291.38 180.52c-3.424 20.115-27.504 22.11-37.555 5.878-5.54-8.948-.287-20.675 8.055-25.83 6.66-4.117 15.684-3.265 22.015 1.082 6.532 4.485 8.672 11.903 7.485 18.87m-15.89-37.241c-19.239-2.359-36.751 11.297-39.114 30.501-2.364 19.204 11.32 36.682 30.56 39.04 23.39 2.866 44.734-19.093 38.233-42.111-4.084-14.464-14.171-25.53-29.679-27.43"/>
                <path fill="#50BE87" d="M728.062 301.552c-.495 5.955-5.462 11.258-10.89 13.35-3.062 1.18-6.252 1.209-9.039-.674-3.044-2.054-7.508-8.1-7.967-11.766-1.075-8.59 7.485-15.477 15.287-15.16a13.177 13.177 0 0 1 9.89 5.105 13.08 13.08 0 0 1 2.72 9.145m-15.985-28.007c-8.78.93-18.337 6.982-22.941 14.398-4.234 6.82-3.6 14.617-1.078 21.97a29.003 29.003 0 0 0 4.813 8.71c7.06 8.802 18.99 13.397 30.29 9.41 12.697-4.48 19.989-17.448 18.87-30.479-1.313-15.288-15.014-25.589-29.954-24.009M532.716-36.463c-3.838-.412-10.232-4.948-12.435-8.076-2.016-2.865-2.043-6.185-.867-9.392 2.086-5.685 7.534-10.947 13.744-11.573a13.698 13.698 0 0 1 9.6 2.664c3.139 2.342 5.266 5.996 5.513 10.196.472 8.11-6.563 17.142-15.555 16.18m4.363-43.646c-13.629-.926-27.04 6.896-31.489 20.189-3.958 11.826 1.057 24.154 10.38 31.34a30.247 30.247 0 0 0 9.186 4.849c7.722 2.49 15.876 3.006 22.923-1.522 7.665-4.925 13.809-14.977 14.62-24.13 1.379-15.573-9.629-29.637-25.62-30.726"/>
                <path fill="#FF7900" d="M72.608 480.92c-6.111 7.87-18.552 11.927-27.03 5.384-15.38-11.869-10.798-35.965 9.948-37.282 7.187-.458 14.476 2.488 18.324 9.559 3.732 6.854 3.638 16.054-1.242 22.339m-5.675-44.776c-22.634-9.008-47.156 10.203-46.737 34.118.346 19.672 16.603 35.342 36.313 34.998 19.71-.343 35.41-16.569 35.065-36.242-.277-15.855-10.419-27.212-24.641-32.874"/>
                <path fill="#FFF" d="M764.449-115.442a13.1 13.1 0 0 1-5.956 7.462c-3.247 1.888-7.276 2.393-11.084 1.035-7.35-2.622-12.704-12.208-8.484-19.77 1.8-3.229 8.212-7.164 11.801-7.932 3.293-.704 6.239.517 8.636 2.755 4.247 3.97 6.86 10.742 5.087 16.45m5.394-26.386c-8.98-7.921-21.764-8.121-31.617-2.6a28.998 28.998 0 0 0-7.73 6.277c-5.098 5.874-8.611 12.866-7.247 20.772 1.485 8.6 8.076 17.784 15.868 21.927 13.258 7.05 29.827 2.622 36.783-11.061 5.928-11.663 4.035-26.414-6.057-35.315"/>
                <path fill="#50BE87" d="M464.522 78.998c-6.766 6.37-19.857 6.86-25.618-1.705-2.458-3.654-3.18-12.574-2.053-16.796 1.032-3.867 3.925-6.33 7.602-7.659 6.52-2.353 15.137-1.459 20.248 3.508a15.592 15.592 0 0 1 4.717 10.347c.25 4.462-1.391 9.005-4.896 12.305m-24.968-42.64c-13.282 5.23-20.413 18.668-19.867 32.092.16 3.934.978 7.866 2.493 11.59 3.49 8.577 9.027 16.081 18.177 18.913 9.949 3.078 23.283 1.063 31.906-4.952 14.671-10.235 18.923-30.187 8.13-44.959-9.197-12.59-25.913-18.56-40.84-12.684"/>
                <path fill="#FF7900" d="M326.744 688.191c-.845.225-1.67.489-2.486.773h23.796a36.18 36.18 0 0 0-21.31-.773"/>
                <g transform="translate(299.296 -204.05)">
                    <mask id="F" fill="#fff">
                        <use xlink:href="#E"/>
                    </mask>
                    <path fill="#FF7900" d="M50.27 20.064c8.781 6.436 8.297 19.707 2.301 27.874-4.787 6.52-13.768 9.193-21.524 7.473-8.003-1.773-12.93-8.057-14.498-15.195-4.521-20.605 17.788-31.827 33.72-20.152M7.138 54.95c9.53 12.287 23.493 18.996 39.095 14.822 19.359-5.176 30.848-25.036 25.66-44.358C68.661 13.378 59.72 4.391 48.758.576H24.964C3.095 8.196-7.481 36.1 7.138 54.95" mask="url(#F)"/>
                </g>
                <path fill="#FF7900" d="M142.19-13.508c-4.028 5.436-11.302 8.73-18.036 7.207-8.434-1.907-16.182-10.176-14.139-19.218 3.71-16.405 24.35-21.638 32.987-5.857 2.991 5.466 3.342 12.26-.813 17.868m-28.844-37.785c-15.356 7.476-21.732 25.959-14.243 41.287 7.489 15.324 26.01 21.689 41.365 14.215 12.375-6.024 17.6-18.135 16.846-31.36-1.2-21.043-25.3-33.229-43.968-24.142"/>
                <path fill="#50BE87" d="M557.798 395.904c-2.83 3.021-10.362 6.917-14.536 6.78-9.775-.321-15.95-11.052-14.22-19.667.897-4.462 3.728-8.057 7.44-10.095a14.839 14.839 0 0 1 10.688-1.41c6.558 1.603 11.598 8.06 12.975 14.462.777 3.61.246 7.164-2.347 9.93m-12.626-40.624c-17.292-1.238-31.204 12.173-32.076 29.062-.512 9.924 4.555 21.616 12.02 28.041 6.865 5.91 15.678 6.58 24.325 5.076a32.789 32.789 0 0 0 10.569-3.815c11.072-6.297 18.302-18.747 15.845-32.011-2.759-14.904-15.944-25.3-30.683-26.353"/>
                <path fill="#FF7900" d="M745.397 64.08c-4.08 6.702-13.667 7.19-19.923 3.403-4.995-3.024-7.483-9.296-6.734-14.967.774-5.851 4.99-9.78 10.03-11.353 14.552-4.538 24.032 10.756 16.627 22.916M717.57 35.34c-8.247 7.607-12.2 18.044-8.215 28.97 4.945 13.56 19.964 20.55 33.55 15.614 13.586-4.934 20.59-19.926 15.646-33.484-6.013-16.484-27.858-23.203-40.981-11.1"/>
                <path fill="#FFF" d="M301.95 526.192a15.091 15.091 0 0 1-10.472 3.302c-6.865-.45-13.067-6.037-15.584-12.22-1.418-3.485-1.516-7.142.595-10.377 2.303-3.53 9.172-8.77 13.383-9.37 9.866-1.404 17.964 8.274 17.754 17.224-.107 4.634-2.31 8.74-5.676 11.441m4.411-41.6c-7.936-4.718-16.896-3.835-25.308-.796a33.328 33.328 0 0 0-9.93 5.693c-9.99 8.272-15.037 22.042-10.223 34.916 5.412 14.468 20.485 22.57 35.46 21.026 17.569-1.812 29.152-17.728 27.033-34.826-1.246-10.048-8.403-20.884-17.032-26.014"/>
                <path fill="#50BE87" d="M835 388.039c-8.987-2.93-14.184-12.68-11.679-21.645 2.512-8.965 12.047-14.447 21.353-12.384 9.306 2.065 14.638 11.607 11.81 21.443-2.831 9.83-12.498 15.518-21.484 12.586"/>
                <path fill="#FF7900" d="M853.03 337.738c-6.72-.957-10.798-7.092-10.1-13.824.521-6.768 6.315-11.812 12.966-11.331 6.654.48 11.586 6.666 10.984 13.88-.412 7.25-7.417 12.176-13.85 11.275"/>
                <path fill="#085EBD" d="M809.011 465.283c-6.521-3.402-9.073-11.514-5.755-18.04 3.32-6.532 11.486-9.393 18.29-6.47 6.804 2.927 9.458 10.929 5.854 17.939-3.602 7.008-11.869 9.977-18.389 6.571M851.387 248.41c-4.75.177-8.718-3.49-8.868-8.155-.148-4.665 3.582-8.745 8.336-9.148 4.755-.403 8.733 3.206 8.879 8.098.145 4.893-3.598 9.03-8.347 9.205M871.753 295.783c-11.562.43-21.217-8.494-21.578-19.843-.361-11.355 8.716-21.28 20.284-22.265 11.57-.977 21.25 7.804 21.604 19.708.353 11.904-8.75 21.973-20.31 22.4M683.616 588.736c-5.553-7.602-3.792-18.24 3.8-23.687 7.46-5.645 17.948-5.259 24.312 1.892 6.263 7.01 5.15 18.167-2.785 24.75-8.363 5.957-19.776 4.65-25.327-2.955"/>
                <path fill="#50BE87" d="M742.403 532.222c-4.777-4.578-4.797-12.316-.107-17.246 4.692-4.926 12.586-5.427 17.696-1.158 5.108 4.273 5.238 11.955.215 17.194-5.024 5.236-13.028 5.79-17.804 1.21"/>
                <path fill="#FF7900" d="M619.212 620.418c-3.322-6.685-.29-14.086 6.153-17.717 6.426-3.694 14.608-1.574 18.37 4.706 3.757 6.279 1.256 14.539-5.683 18.46-6.818 4.19-15.659.92-18.84-5.45M772.014 501.655c-3.934-2.606-5.055-7.957-2.528-11.92 2.526-3.962 7.857-5.188 11.93-2.763 4.076 2.425 5.238 7.73 2.572 11.878-2.666 4.146-8.04 5.412-11.974 2.805"/>
                <path fill="#085EBD" d="M423.11 633.666c.036-9.35 7.809-17.15 17.215-17.444 9.408-.32 17.63 7.144 18.514 16.383.88 9.52-6.654 17.275-16.983 17.567-10.326.261-18.784-7.16-18.745-16.506"/>
                <path fill="#50BE87" d="M500.707 657.261c-1.136-6.582 3.52-12.223 10.197-13.974 6.7-1.532 13.351 2.41 14.931 8.808 1.577 6.398-2.881 12.887-10.036 14.478-7.137 1.797-13.957-2.732-15.092-9.312"/>
                <path fill="#FF7900" d="M378.368 628.718c1.257-7.184 8.255-11.985 15.54-10.753 7.234 1.493 12.69 7.456 11.985 14.759-.655 7.03-7.758 13.099-15.544 11.49-7.839-1.35-13.24-8.31-11.98-15.496"/>
                <path fill="#50BE87" d="M574.3 627.18c-1.635-4.407.691-9.227 5.157-10.756 4.523-1.36 9.414.27 11.283 4.642 1.813 4.19-.235 9.696-4.954 11.205-4.694 1.595-9.85-.681-11.486-5.091"/>
                <path fill="#085EBD" d="M316.565 602.82c5.775-7.731 15.98-8.653 24.18-3.945 7.992 4.96 10.436 15.45 5.574 23.526-4.864 8.074-15.806 10.25-24.533 4.728-8.92-5.282-10.851-16.753-5.221-24.308"/>
                <path fill="#50BE87" d="M257.142 588.519c2.952-5.906 10.348-8.2 16.462-5.174 5.995 3.243 9.299 9.787 6.725 15.957-2.446 5.934-10.239 9.185-16.696 5.834-6.514-3.244-9.445-10.713-6.491-16.617"/>
                <path fill="#FF7900" d="M167.88 511.094c5.276-5.064 13.985-5.056 19.396-.052 5.413 5.006 5.779 13.443.873 18.918-4.906 5.474-13.542 5.592-19.328.177-5.784-5.416-6.222-13.981-.942-19.043M38.653 327.04c9.036-2.843 18.88 2.079 21.963 10.844 1.55 4.416 1.146 9.072-.73 13.142-1.607 3.98-4.712 7.385-9.084 9.212-8.718 3.708-19.406-.705-22.48-10.446-3.338-9.655 1.295-19.915 10.33-22.753"/>
                <path fill="#50BE87" d="M76.447 388.54c5.878-3.064 13.455-.739 16.907 5.118 3.454 5.86 1.627 13.368-4.055 16.844-5.68 3.471-13.239 1.267-16.888-5.004-3.648-6.27-1.843-13.896 4.036-16.958"/>
                <path fill="#085EBD" d="M32.17 285.242c7.322-1.03 14.047 4.059 15.024 11.278.996 7.217-2.97 14.167-10.335 15.757-7.144 1.564-14.625-3.314-16.098-11.04-1.032-7.764 4.086-14.966 11.409-15.995M135.537 471.595c3.736-2.899 8.963-2.126 12.217 1.32 3.142 3.524 2.769 8.842-.815 11.917-3.583 3.071-9.134 2.583-12.409-1.124-3.372-3.644-2.826-9.153 1.007-12.113"/>
                <path fill="#50BE87" d="M66.645 65.515c8.987 2.928 14.186 12.679 11.68 21.643-2.51 8.965-12.047 14.447-21.354 12.386-9.305-2.065-14.637-11.608-11.807-21.443 2.83-9.83 12.495-15.52 21.481-12.586"/>
                <path fill="#FF7900" d="M50.839 140.213c6.72.954 10.796 7.09 10.099 13.822-.522 6.77-6.314 11.813-12.967 11.333-6.652-.48-11.586-6.666-10.982-13.882.412-7.25 7.417-12.175 13.85-11.273"/>
                <path fill="#085EBD" d="M112.206 6.158c6.521 3.402 9.072 11.513 5.753 18.042-3.319 6.53-11.484 9.39-18.29 6.466-6.802-2.925-9.453-10.927-5.85-17.937 3.601-7.008 11.866-9.977 18.387-6.571"/>
                <path fill="#50BE87" d="M42.338 211.069c4.75-.177 8.719 3.49 8.867 8.154.15 4.667-3.582 8.744-8.336 9.149-4.753.403-8.732-3.206-8.878-8.099-.146-4.89 3.597-9.029 8.347-9.204"/>
                <path fill="#085EBD" d="M256.991-129.938c5.555 7.604 3.792 18.24-3.8 23.687-7.46 5.643-17.946 5.257-24.309-1.891-6.265-7.012-5.151-18.17 2.784-24.751 8.365-5.957 19.774-4.65 25.325 2.955"/>
                <path fill="#50BE87" d="M186.836-83.43c4.778 4.58 4.798 12.318.109 17.245-4.692 4.93-12.588 5.429-17.698 1.157-5.108-4.27-5.237-11.952-.212-17.191 5.021-5.235 13.025-5.79 17.801-1.21M313.618-142.73c3.32 6.684.29 14.084-6.157 17.715-6.42 3.694-14.606 1.575-18.366-4.705-3.76-6.278-1.257-14.54 5.68-18.461 6.82-4.19 15.66-.92 18.843 5.45M480.188-170.973c-.034 9.348-7.807 17.149-17.213 17.442-9.41.32-17.63-7.144-18.514-16.383-.881-9.52 6.654-17.275 16.983-17.568 10.324-.258 18.782 7.159 18.744 16.509"/>
                <path fill="#FF7900" d="M422.205-189.788c1.138 6.583-3.518 12.223-10.197 13.976-6.7 1.53-13.35-2.41-14.93-8.808-1.576-6.4 2.882-12.889 10.037-14.48 7.135-1.798 13.955 2.734 15.09 9.312"/>
                <path fill="#085EBD" d="M559.486-168.1c-1.257 7.184-8.253 11.985-15.538 10.753-7.234-1.493-12.69-7.454-11.985-14.758.653-7.03 7.755-13.1 15.544-11.49 7.837 1.349 13.24 8.31 11.98 15.495"/>
                <path fill="#FF7900" d="M377.552-164.764c1.635 4.407-.69 9.226-5.158 10.754-4.52 1.362-9.412-.267-11.283-4.642-1.809-4.189.238-9.695 4.958-11.202 4.689-1.596 9.85.681 11.483 5.09M753.48-86.83c-5.774 7.732-15.98 8.653-24.18 3.946-7.992-4.96-10.437-15.451-5.575-23.528 4.864-8.072 15.807-10.247 24.533-4.726 8.921 5.28 10.853 16.752 5.221 24.308"/>
                <path fill="#085EBD" d="M643.124-138.493c-2.952 5.905-10.347 8.2-16.46 5.172-5.996-3.242-9.301-9.786-6.727-15.957 2.445-5.933 10.24-9.185 16.697-5.834 6.516 3.244 9.445 10.713 6.49 16.62M786.174-53.575c-5.279 5.065-13.987 5.056-19.4.054-5.412-5.006-5.777-13.444-.87-18.92 4.904-5.474 13.54-5.59 19.326-.176 5.784 5.415 6.222 13.98.944 19.042"/>
                <path fill="#FF7900" d="M607.737-159.603c-1.299 4.507-6.082 7.139-10.649 5.894-4.567-1.245-7.367-5.956-6.292-10.537 1.077-4.58 5.806-7.24 10.596-5.922 4.788 1.32 7.645 6.06 6.345 10.565"/>
                <path fill="#085EBD" d="M877.587 112.138c-9.035 2.842-18.881-2.081-21.963-10.845-1.551-4.416-1.144-9.072.728-13.142 1.609-3.98 4.714-7.385 9.086-9.214 8.718-3.708 19.406.706 22.48 10.446 3.34 9.656-1.295 19.917-10.33 22.755"/>
                <path fill="#50BE87" d="M860.28 43.588c-5.878 3.062-13.456.739-16.908-5.12-3.452-5.859-1.626-13.368 4.056-16.842 5.682-3.473 13.24-1.267 16.889 5.002 3.647 6.271 1.843 13.898-4.037 16.96"/>
                <path fill="#FFD200" d="M862.382 184.04c-7.322 1.031-14.05-4.06-15.024-11.276-.997-7.219 2.968-14.167 10.334-15.757 7.143-1.566 14.624 3.313 16.1 11.039 1.03 7.764-4.089 14.966-11.41 15.995"/>
                <path fill="#50BE87" d="M799.908-14.113c-3.737 2.899-8.963 2.126-12.216-1.32-3.145-3.522-2.77-8.842.813-11.915 3.585-3.073 9.134-2.586 12.409 1.122 3.371 3.645 2.826 9.151-1.006 12.113"/>
                <path fill="#FFD200" d="M181.335-52.821c-7.294-3.432-15.678-4.114-24.539-1.77-12.216 3.232-25.147 20.685-26.934 32.528-3.947 26.16 21.693 48.045 46.463 37.738 19.744-8.215 33.437-35.487 20.036-55.238-4.113-6.064-9.226-10.53-15.026-13.258"/>
                <path fill="#C19372" d="M532.995-144.854c-12.191-9.963-32.147-9.589-43.238 1.161-19.133 18.541-12.489 48.878 13.184 54.428 28.688 6.203 54.894-20.432 36.973-47.847-1.902-2.911-4.229-5.544-6.919-7.742"/>
                <path fill="#FFD200" d="M681.116-119.489c-6.522-.102-12.387 1.336-17.334 4.16-6.222 3.552-10.994 9.297-13.8 16.93-3.873 10.528 2.268 28.823 9.998 36.16 17.07 16.205 46.11 8.731 51.22-14.527 4.072-18.537-8.841-42.391-30.084-42.723"/>
                <path fill="#085EBD" d="M812.294-4.258c-7.367-2.83-17.304-2.913-24.67-.263-18.264 6.577-31.79 30.139-28.605 48.828 3.104 18.2 22.628 31.832 41.151 26.204 21.47-6.523 38.79-36.957 29.929-58.368-2.89-6.98-8.616-12.872-17.805-16.401"/>
                <path fill="#FFD200" d="M836.51 94.126c-6.654-3.564-14.462-4.613-22.862-2.854-11.584 2.425-24.535 18.115-26.789 29.103-4.975 24.272 17.93 45.994 41.6 37.566 18.868-6.718 33.014-31.553 21.453-50.68-3.55-5.873-8.113-10.3-13.401-13.135"/>
                <path fill="#C19372" d="M783.609 359.754c-37.096-9.384-72.448 24.125-50.352 60.654 2.346 3.878 5.258 7.415 8.663 10.402 15.426 13.53 41.443 13.95 56.381.449 25.772-23.287 18.498-63.11-14.692-71.505"/>
                <path fill="#FF7900" d="M502.92 606.35c-6.38-3.582-10.961-10.123-10.32-18.28.62-7.905 5.806-15.696 13.453-18.359 9.578-3.335 22.436.084 26.035 10.347 6.53 18.62-10.746 36.632-29.167 26.293m30.363-48.498c-16.997-10.598-39.384-5.44-50.006 11.522-8.56 13.672-6.213 28.962 2.774 41.652 14.3 20.188 45.865 17.36 58.775-3.264 10.622-16.963 5.453-39.308-11.543-49.91"/>
                <path fill="#C19372" d="M427.806 529.724c-35.599-21.45-68.252 12.87-59.108 48.879 8.182 32.217 46.99 39.277 69.681 14.26 13.157-14.501 12.748-39.754-.439-54.73-2.909-3.305-6.355-6.132-10.134-8.41M225.408 500.785c-3.26 1.206-6.32 2.939-9.068 5.071-25.888 20.1-9.798 53.798 19.352 57.256 26.083 3.094 42.261-23.43 30.218-47.177-6.98-13.77-25.726-20.607-40.502-15.15M71.778 334.253c-.957 3.598-1.39 7.337-1.214 11.05.792 16.83 15.395 32.42 31.925 33.528 28.508 1.91 47.944-25.118 33.97-49.498-15.621-27.245-55.657-28.976-64.68 4.92"/>
                <path fill="#FFD200" d="M63.356 172.297c-12.56 1.572-22.94 6.776-30.502 14.935-6.014 6.488-10.243 14.846-12.368 24.733-6.92 32.21 24.747 60.058 54.285 60.383 37.059.407 58.545-40.853 39.931-72.31-8.426-14.24-34.029-29.91-51.346-27.741"/>
                <path fill="#FF7900" d="M241.084-56.24c-4.157-2.628-7.002-7.18-6.283-12.631.694-5.285 4.449-10.332 9.677-11.852 6.546-1.902 15.056.844 17.108 7.86 3.728 12.726-8.502 24.21-20.502 16.623m22.089-31.484c-11.034-7.714-26.245-5.036-33.97 5.978-6.228 8.875-5.193 19.22.393 28.051 8.886 14.053 30.173 13.263 39.566-.125 7.727-11.014 5.046-26.194-5.99-33.904"/>
                <path fill="#FFD200" d="M120.337 95.933c-5.047-5.08-11.843-8.193-19.958-8.924-11.189-1.006-27.306 9.647-32.407 18.997-11.265 20.652 3.486 46.713 27.315 45.62 18.995-.871 38.74-19.497 33.563-40.06-1.59-6.314-4.498-11.594-8.513-15.633"/>
                <path fill="#50BE87" d="M828.823 216.251c-1.392 10.035-13.16 15.23-21.881 12.515-4.517-1.408-7.924-4.713-9.63-8.76a15.312 15.312 0 0 1-.3-11.16c2.37-6.58 9.592-11.073 16.361-11.797 3.82-.408 7.437.524 10.016 3.493 2.815 3.242 6.029 11.426 5.434 15.71m13.149-16.064c-5.31-12.084-17.401-20.883-31.382-19.792-15.711 1.226-27.89 13.68-30.58 28.746-3.154 17.677 9.205 33.463 26.573 36.192 10.207 1.605 22.845-2.346 30.302-9.339 6.853-6.43 8.502-15.435 7.884-24.507a33.83 33.83 0 0 0-2.797-11.3M314.173 563.565c-3.837-.412-10.234-4.946-12.434-8.074-2.016-2.867-2.044-6.187-.868-9.392 2.087-5.685 7.533-10.949 13.744-11.573 3.572-.36 6.949.682 9.6 2.664 3.14 2.342 5.267 5.994 5.512 10.194.474 8.11-6.563 17.143-15.554 16.181m4.364-43.646c-13.63-.927-27.041 6.897-31.49 20.188-3.957 11.826 1.058 24.154 10.38 31.341a30.223 30.223 0 0 0 9.184 4.848c7.724 2.492 15.878 3.007 22.926-1.522 7.663-4.924 13.808-14.976 14.62-24.13 1.378-15.571-9.63-29.637-25.62-30.725"/>
                <path fill="#FFD200" d="M236.18 485.633c-7.324 1.03-14.05-4.059-15.026-11.276-.994-7.217 2.97-14.168 10.334-15.757 7.145-1.564 14.625 3.313 16.1 11.04 1.032 7.762-4.087 14.965-11.409 15.993"/>
            </g>
        </g>
    </g>
</svg>
