<svg xmlns="http://www.w3.org/2000/svg" xmlns:xlink="http://www.w3.org/1999/xlink" width="375" height="175" viewBox="0 0 375 175">
    <defs>
        <path id="a" d="M0 0h375v175H0z"/>
        <path id="c" d="M0 .18h39.22v32.173H0z"/>
        <path id="e" d="M.456.41h29.216v27.235H.456z"/>
    </defs>
    <g fill="none" fill-rule="evenodd">
        <mask id="b" fill="#fff">
            <use xlink:href="#a"/>
        </mask>
        <use fill="#333" xlink:href="#a"/>
        <g mask="url(#b)" opacity=".032" style="mix-blend-mode:luminosity">
            <path fill="#085EBD" d="M193.193 2.77c-2.654-.452-5.553-.022-8.442 1.659-2.317 1.347-4.33 3.787-5.018 6.048-1.7 5.607 2.599 12.88 8.795 15.212 6.034 2.27 13.997-.275 16.032-5.788 2.359-6.391-3.225-15.747-11.367-17.132"/>
            <path fill="#C19372" d="M286.73 144.609c-5.69-2.976-14.21-1.608-18.492 2.84a12.02 12.02 0 0 0-2.242 3.264c-5.138 11.066 8.419 18.536 20.057 14.18 10.415-3.898 10.493-15.151.677-20.284"/>
            <path fill="#085EBD" d="M193.48 75.586c-7.091-3.607-18.844.068-22.358 6.08-3.032 5.186.705 11.567 6.98 13.329 6.443 1.81 15.55-1.07 18.902-6.136 1.352-2.043 1.879-4.97 1.289-7.269-.736-2.868-2.502-4.828-4.814-6.004M286.841 37.214c-6.47-3.583-17.546-2.646-23.048 2.122-2.219 1.922-3.841 5.024-4.007 7.708-.209 3.347 1.046 5.945 3.179 7.812 6.544 5.726 20.825 4.562 26.841-1.21 5.192-4.98 3.335-12.942-2.965-16.432"/>
            <path fill="#FFD200" d="M180.819 176.955c-3.185 3.863-4.343 12.299-1.187 16.476 2.29 3.03 5.386 5.067 8.99 6.028 2.865.764 6.051.847 9.408.208 10.932-2.083 14.977-13.53 10.836-21.136-5.196-9.544-21.013-10.11-28.047-1.576M293.199 3.755c-4.635-2.715-14.372-2.217-18.966.118-10.143 5.16-10.285 17.748.405 22.352 8.521 3.669 21.859 1.03 24.795-7.548.901-2.633.965-5.168.232-7.482-.922-2.91-3.104-5.47-6.466-7.44"/>
            <path fill="#085EBD" d="M89.045 90.52c-8.404-3.887-22.953-.778-26.926 6.805-1.296 2.472-1.411 5.4.234 8.632 1.318 2.59 4.25 5.159 7.26 6.389 7.465 3.05 18.764.674 23.587-4.778 4.695-5.31 3.094-13.696-4.155-17.048"/>
            <path fill="#C19372" d="M120.635 13.293a17.092 17.092 0 0 0-4.316-1.116c-6.778-.824-14.13 3.01-15.853 8.415-2.97 9.323 6.312 17.509 17.124 14.45 12.084-3.417 15.874-16.572 3.045-21.75"/>
            <path fill="#085EBD" d="M330.184 112.6c-6.745 3.635-9.697 13.787-4.53 19.202 1.686 1.765 4.24 2.985 7.75 3.243 2.816.207 6.244-.584 8.517-1.95 5.635-3.386 7.961-11.255 5.016-16.356-2.867-4.966-10.934-7.274-16.753-4.139M80.922 157.444c-2.596-1.079-5.74-1.302-9.29-.23-2.846.86-5.745 2.92-7.208 5.102-3.63 5.411-1.605 13.928 4.03 17.772 5.488 3.742 14.578 2.945 18.522-2.292 4.571-6.07 1.911-17.04-6.054-20.352M89.56 37.976c-5.871-4.565-18.426-4.491-23.492.99-1.652 1.787-2.456 4.143-1.908 7.04.44 2.322 2.193 4.898 4.335 6.402 5.313 3.73 15.054 3.704 20.29.093 5.099-3.516 5.84-10.586.774-14.525"/>
            <path fill="#C19372" d="M206.415 100.269c-5.607 8.855 3.102 18.24 15.254 17.205 7.044-.6 13.052-6.333 13.138-12.336.02-1.326-.221-2.65-.684-3.92-4.362-11.96-21.441-10.847-27.708-.95"/>
            <path fill="#FFD200" d="M373.455 173.641c-4.009-2.201-12.673-2.897-16.908-.596-3.072 1.669-5.114 3.896-6.045 6.467-.741 2.044-.778 4.306-.074 6.678 2.298 7.725 14.093 10.425 21.829 7.373 9.706-3.828 10.05-15.059 1.198-19.922M212.843 124.577c-4.38-2.76-13.831-2.552-18.376-.42-10.035 4.712-10.685 16.903-.516 21.662 8.103 3.795 21.13 1.613 24.324-6.613.98-2.525 1.145-4.979.53-7.24-.776-2.845-2.786-5.387-5.962-7.389"/>
            <path fill="#C19372" d="M252.682 63.676a22.24 22.24 0 0 0-5.648-.104c-8.485.953-15.732 7.667-15.562 14.655.292 12.055 14.835 19.23 26.56 12.456 13.104-7.57 12.21-24.463-5.35-27.007"/>
            <path fill="#FFD200" d="M255.025 162.192c-2.368-1.373-4.875-2.14-7.39-2.295-3.164-.195-6.34.579-9.262 2.336-4.03 2.422-6.313 9.28-5.297 13.115 2.245 8.47 14.752 12.163 22.393 6.103 6.09-4.83 7.267-14.784-.444-19.259"/>
            <path fill="#C19372" d="M327.625-17.612a19.04 19.04 0 0 0-4.838.159c-15.004 2.4-15.466 16.887-4.1 23.212 10.17 5.659 22.505-.67 22.54-11.005.018-5.991-6.313-11.655-13.602-12.366"/>
            <path fill="#085EBD" d="M162.875 99.147c-8.017-3.687-18.396-.026-21.626 6.74-3.316 6.949.622 17.145 8.425 21.176 3.147 1.625 7.755 2.406 11.443 1.917 4.6-.609 7.83-2.414 9.856-4.87 6.212-7.533 1.197-20.69-8.098-24.963M161.174 19.213c-8.129-.85-17.737 4.379-20.126 10.744-2.327 6.198 2.397 13.581 10.442 14.77 9.324 1.377 21.678-5.4 22.456-13.523.253-2.647-.77-5.407-3.547-7.977-2.227-2.061-5.946-3.67-9.225-4.014"/>
            <path fill="#C19372" d="M183.397 48.54c-.693 1.244-1.17 2.572-1.379 3.93-.949 6.158 4.21 12.747 11.32 14.204 12.26 2.514 22.8-6.052 18.592-15.79-4.705-10.883-21.998-14.067-28.533-2.345M217.868 21.473c-7.798 11.337 3.048 23.908 18.954 23.018 9.221-.515 17.37-7.765 17.812-15.592a14.261 14.261 0 0 0-.678-5.139c-5.035-15.763-27.372-14.959-36.088-2.287"/>
            <path fill="#FFD200" d="M125.84 51.771c-3.888.938-6.906 2.74-8.886 5.203-1.574 1.958-2.491 4.334-2.667 7.027-.571 8.768 10.828 14.782 20.175 13.639 11.726-1.435 16.446-13.193 8.989-20.701-3.375-3.4-12.249-6.46-17.61-5.168"/>
            <g transform="translate(-8 11.166)">
                <mask id="d" fill="#fff">
                    <use xlink:href="#c"/>
                </mask>
                <path fill="#50BE87" d="M23.098 32.338c9.452-.365 17.603-7.902 15.894-16.018C37.012 6.913 22.612-1.982 11.168.648c-3.73.858-7.084 2.97-9.452 6.668C.915 8.566.337 10.036 0 11.56v5.971c.016.063.028.127.045.189 2.206 8.055 13.348 14.992 23.053 14.617" mask="url(#d)"/>
            </g>
            <path fill="#085EBD" d="M150.803 159.319c-8.979-3.538-21.002.108-24.227 8.333-3.739 9.533 4.341 23.685 16.51 25.94 3.966.734 8.326.151 12.713-2.306 3.516-1.97 6.614-5.585 7.714-8.961 2.728-8.373-3.49-19.373-12.71-23.006M106.233 119.746c-4.105.206-8.151 1.785-11.595 5.192-2.76 2.733-4.56 6.968-4.499 10.508.154 8.777 9.891 18.034 20.077 19.428 9.92 1.358 20.392-4.978 20.772-13.727.44-10.14-12.164-22.031-24.755-21.4"/>
            <path fill="#C19372" d="M298.761 63.18a20.459 20.459 0 0 0-4.739 3.843c-12.6 13.85 2.856 28.917 21.353 26.693 16.549-1.989 22.119-17.802 10.794-28.323-6.566-6.1-19.222-7.035-27.408-2.212M141.515-17.486a19.162 19.162 0 0 0-4.85-1.025c-7.55-.584-15.413 4.01-16.94 10.068-2.635 10.451 8.198 19.054 19.939 15.152 13.121-4.361 16.396-19.089 1.851-24.195"/>
            <path fill="#FFD200" d="M278.16 107.738c-7.938-2.321-19.133 1.325-20.425 9.071-.396 2.38-.08 4.586.896 6.521 1.229 2.434 3.5 4.436 6.707 5.805 4.423 1.887 12.806.466 16.452-2.028 8.052-5.51 6.329-16.457-3.63-19.37"/>
            <g transform="translate(351.077 130.1)">
                <mask id="f" fill="#fff">
                    <use xlink:href="#e"/>
                </mask>
                <path fill="#50BE87" d="M10.793.915C2.347 2.939-1.71 11.28 1.618 17.695c3.416 6.585 14.402 11.28 22.985 9.61 1.694-.33 3.46-.996 5.07-1.872V4.625c-5.44-3.453-12.954-5.13-18.88-3.71" mask="url(#f)"/>
            </g>
            <path fill="#FF7900" d="M371.581 179.58c-.14 1.927-1.616 3.846-3.837 4.528-2.781.853-6.555.074-7.66-2.41-2.002-4.507 2.953-8.967 8.388-6.527 1.883.846 3.255 2.42 3.11 4.408m-15.361-4.574c-3.017 4.176-1.392 9.596 3.628 12.105 5.02 2.51 11.535 1.158 14.55-3.018 2.432-3.366 1.669-7.079-1.022-10.13-4.28-4.857-13.49-4.033-17.156 1.043"/>
            <path fill="#50BE87" d="M62.707 79.986c-1.53-.096-2.848-.76-3.681-1.721-.705-.814-1.063-1.84-.91-2.92.268-1.875 2.22-3.496 4.305-4.097 1.176-.34 2.386-.313 3.417.312 1.126.683 2.739 2.641 2.864 3.805.294 2.726-3.043 4.807-5.995 4.621m8.974-9.646c-2.56-2.86-7.02-4.442-11.356-3.307-4.872 1.276-7.808 5.293-7.557 9.422.295 4.844 5.352 8.25 11.035 7.914 3.34-.196 7.043-2.003 8.887-4.296 1.695-2.108 1.558-4.578.7-6.929a8.689 8.689 0 0 0-1.71-2.804"/>
            <path fill="#FF7900" d="M155.4 158.14c-2.591.251-5.285-.522-6.813-2.594-1.48-2.007-1.62-4.784.026-6.756 2.062-2.47 6.486-3.89 9.678-2.05 5.79 3.337 4.59 10.675-2.891 11.4m-1.424-16.944c-7.125.414-12.497 5.555-11.999 11.482.402 4.777 4.287 8.042 9.54 9.525 8.36 2.36 16.868-3.82 16.262-11.026-.498-5.927-6.678-10.396-13.803-9.981"/>
            <path fill="#50BE87" d="M76.772 142.296c-1.191.834-2.66.951-4.125.621-2.598-.583-5.14-2.416-5.657-4.68-.297-1.3.034-2.576.808-3.616.916-1.229 2.452-2.129 4.303-2.355 3.572-.434 7.843 1.86 7.766 5.198-.034 1.424-1.795 3.921-3.095 4.832m-3.786-15.44c-6.95-.004-12.752 4.496-12.615 10.41.117 5.041 4.1 9.72 10.156 10.927 5.39 1.074 10.656-1.167 13.477-4.826.827-1.072 1.444-2.266 1.793-3.533.803-2.92.717-5.935-1.56-8.38-2.478-2.658-7.167-4.594-11.25-4.597"/>
            <path fill="#FF7900" d="M228.27 82.987c-3.15 2.1-7.864.895-10.219-1.544-1.879-1.946-1.976-4.835-.615-7.007 1.403-2.241 4.13-3.207 6.84-3.103 7.826.301 9.711 7.842 3.995 11.654m-8.376-15.634c-5.321 1.855-9.067 5.477-9.066 10.458 0 6.178 6.02 11.188 13.448 11.188 7.428 0 13.45-5.01 13.45-11.188 0-7.513-9.365-13.411-17.832-10.458M118.68 83.04c-1.488 7.288-11.957 8.011-16.327 2.13-2.408-3.243-.125-7.493 3.502-9.361 2.896-1.492 6.819-1.183 9.571.392 2.84 1.625 3.77 4.313 3.254 6.838m-6.908-13.495c-8.364-.855-15.978 4.094-17.005 11.053-1.028 6.959 4.921 13.293 13.286 14.147 10.17 1.039 19.449-6.919 16.622-15.26-1.775-5.242-6.16-9.252-12.903-9.94"/>
            <path fill="#50BE87" d="M308.532 126.9c-.215 2.157-2.374 4.08-4.734 4.837-1.331.428-2.719.438-3.93-.244-1.323-.745-3.264-2.936-3.464-4.264-.467-3.113 3.254-5.609 6.646-5.494 1.756.06 3.299.775 4.3 1.85.846.909 1.307 2.074 1.182 3.314m-6.95-10.149c-3.816.337-7.971 2.53-9.973 5.218-1.84 2.471-1.565 5.296-.469 7.961.476 1.156 1.194 2.222 2.093 3.157 3.07 3.19 8.256 4.854 13.169 3.41 5.52-1.624 8.69-6.323 8.204-11.045-.571-5.54-6.528-9.273-13.023-8.7M223.603 4.408c-1.668-.15-4.448-1.793-5.406-2.926-.876-1.038-.888-2.242-.377-3.404.907-2.06 3.276-3.967 5.976-4.194 1.552-.13 3.02.248 4.174.966 1.364.848 2.289 2.173 2.396 3.694.206 2.94-2.853 6.213-6.763 5.864m1.898-15.816c-5.926-.336-11.757 2.498-13.69 7.315-1.721 4.286.459 8.753 4.512 11.358a14.204 14.204 0 0 0 3.994 1.757c3.357.902 6.902 1.089 9.966-.552 3.332-1.784 6.003-5.427 6.356-8.744.6-5.644-4.186-10.74-11.138-11.134"/>
            <path fill="#FF7900" d="M23.567 191.9c-2.657 2.851-8.066 4.321-11.752 1.95-6.686-4.3-4.694-13.033 4.325-13.51 3.125-.166 6.294.902 7.967 3.464 1.623 2.484 1.581 5.818-.54 8.095M21.1 175.673C11.26 172.41.598 179.371.78 188.037.93 195.166 8 200.844 16.568 200.72c8.57-.125 15.394-6.005 15.245-13.134-.12-5.745-4.53-9.861-10.713-11.913"/>
            <path fill="#50BE87" d="M193.956 46.25c-2.942 2.308-8.633 2.485-11.138-.618-1.069-1.325-1.383-4.557-.893-6.087.45-1.401 1.707-2.294 3.305-2.775 2.835-.853 6.581-.53 8.804 1.27 1.277 1.036 1.959 2.383 2.05 3.75.109 1.617-.605 3.264-2.128 4.46M183.1 30.797c-5.774 1.896-8.874 6.765-8.637 11.63.07 1.426.425 2.85 1.084 4.2 1.518 3.108 3.925 5.828 7.902 6.854 4.326 1.115 10.123.385 13.872-1.795 6.378-3.709 8.227-10.939 3.535-16.292-3.999-4.562-11.266-6.726-17.756-4.597"/>
            <path fill="#FF7900" d="M53.818 12.727c-1.75 1.97-4.913 3.163-7.84 2.611-3.667-.69-7.036-3.687-6.148-6.964C41.443 2.43 50.416.533 54.171 6.252c1.301 1.98 1.453 4.442-.353 6.475M41.278-.966c-6.676 2.71-9.449 9.407-6.192 14.962 3.255 5.553 11.307 7.86 17.984 5.151 5.38-2.183 7.651-6.572 7.323-11.364-.522-7.626-11-12.042-19.115-8.749"/>
            <path fill="#50BE87" d="M234.508 161.091c-1.23 1.095-4.505 2.506-6.32 2.457-4.25-.117-6.934-4.005-6.181-7.127.39-1.617 1.62-2.92 3.234-3.658a7.599 7.599 0 0 1 4.647-.511c2.85.58 5.042 2.92 5.64 5.24.338 1.309.107 2.597-1.02 3.599m-5.489-14.721c-7.518-.449-13.566 4.41-13.945 10.531-.223 3.596 1.98 7.833 5.226 10.162 2.984 2.141 6.815 2.384 10.575 1.839a16.175 16.175 0 0 0 4.595-1.382c4.814-2.282 7.957-6.794 6.889-11.6-1.2-5.402-6.932-9.169-13.34-9.55"/>
            <path fill="#FF7900" d="M316.069 40.843c-1.774 2.43-5.942 2.606-8.662 1.234-2.172-1.096-3.253-3.37-2.928-5.424.337-2.12 2.17-3.545 4.361-4.114 6.327-1.645 10.448 3.897 7.229 8.304M303.97 30.428c-3.586 2.757-5.304 6.539-3.572 10.498 2.15 4.914 8.68 7.447 14.587 5.659 5.906-1.788 8.95-7.221 6.802-12.135-2.614-5.973-12.112-8.408-17.817-4.022"/>
            <path fill="#50BE87" d="M355.025 158.24c-3.908-1.06-6.167-4.595-5.078-7.843 1.092-3.249 5.237-5.235 9.284-4.488 4.045.749 6.363 4.207 5.134 7.77-1.231 3.563-5.434 5.624-9.34 4.562"/>
            <path fill="#FF7900" d="M362.863 140.013c-2.921-.347-4.694-2.57-4.391-5.01.227-2.453 2.746-4.28 5.637-4.106 2.893.173 5.038 2.415 4.776 5.03-.18 2.627-3.225 4.412-6.022 4.086"/>
            <path fill="#085EBD" d="M362.15 107.642c-2.066.064-3.791-1.265-3.856-2.956-.065-1.69 1.557-3.169 3.624-3.315 2.067-.146 3.797 1.162 3.86 2.935.063 1.773-1.564 3.272-3.629 3.336M371.003 124.809c-5.026.156-9.224-3.078-9.381-7.191-.157-4.115 3.79-7.712 8.819-8.068 5.03-.354 9.239 2.828 9.392 7.141.154 4.314-3.804 7.963-8.83 8.118"/>
            <path fill="#FF7900" d="M8.805 136.135c3.928-1.03 8.208.754 9.549 3.93.673 1.6.498 3.288-.318 4.763-.699 1.442-2.048 2.676-3.95 3.338-3.79 1.344-8.436-.255-9.773-3.785-1.451-3.5.563-7.217 4.492-8.246"/>
            <path fill="#50BE87" d="M25.236 158.422c2.556-1.11 5.85-.267 7.35 1.855 1.502 2.123.708 4.844-1.762 6.104-2.47 1.258-5.756.46-7.343-1.813-1.586-2.272-.8-5.036 1.755-6.146"/>
            <path fill="#085EBD" d="M5.986 120.989c3.183-.374 6.107 1.47 6.532 4.087.433 2.615-1.291 5.134-4.493 5.71-3.106.567-6.358-1.201-6.999-4-.449-2.814 1.776-5.424 4.96-5.797"/>
            <path fill="#50BE87" d="M20.975 41.363c3.907 1.061 6.167 4.595 5.078 7.843-1.092 3.25-5.238 5.236-9.284 4.489-4.046-.749-6.364-4.206-5.134-7.77 1.23-3.563 5.433-5.625 9.34-4.562"/>
            <path fill="#FF7900" d="M14.103 68.433c2.921.345 4.694 2.57 4.39 5.009-.226 2.453-2.745 4.28-5.637 4.107-2.892-.175-5.037-2.416-4.775-5.031.18-2.627 3.225-4.412 6.022-4.085"/>
            <path fill="#085EBD" d="M40.782 19.853c2.836 1.233 3.945 4.172 2.502 6.538-1.443 2.367-4.993 3.404-7.952 2.344-2.957-1.06-4.11-3.96-2.544-6.5 1.566-2.54 5.16-3.616 7.994-2.382"/>
            <path fill="#50BE87" d="M10.407 94.11c2.065-.065 3.79 1.265 3.855 2.955.065 1.69-1.557 3.168-3.624 3.315-2.067.146-3.796-1.162-3.86-2.935-.063-1.772 1.564-3.272 3.63-3.335"/>
            <path fill="#085EBD" d="M373.54 58.259c-3.928 1.03-8.21-.754-9.55-3.93-.673-1.6-.496-3.288.317-4.762.7-1.443 2.05-2.677 3.951-3.34 3.79-1.343 8.437.256 9.773 3.786 1.452 3.499-.563 7.217-4.491 8.246"/>
            <path fill="#50BE87" d="M366.015 33.417c-2.555 1.11-5.85.268-7.35-1.855-1.502-2.123-.708-4.844 1.763-6.103 2.47-1.259 5.756-.46 7.342 1.813 1.586 2.272.801 5.036-1.755 6.145"/>
            <path fill="#FFD200" d="M366.93 84.315c-3.184.374-6.11-1.471-6.533-4.086-.433-2.616 1.29-5.134 4.493-5.71 3.106-.568 6.358 1.2 7 4 .448 2.813-1.778 5.423-4.96 5.796"/>
            <path fill="#50BE87" d="M339.768 12.507c-1.625 1.051-3.897.771-5.311-.478-1.367-1.276-1.204-3.204.354-4.318 1.558-1.113 3.97-.937 5.394.407 1.466 1.32 1.23 3.316-.437 4.39"/>
            <path fill="#FFD200" d="M70.837-1.52c-3.17-1.243-6.816-1.49-10.668-.64-5.311 1.17-10.933 7.495-11.71 11.787-1.716 9.48 9.431 17.41 20.2 13.675 8.584-2.977 14.537-12.86 8.71-20.017-1.787-2.197-4.01-3.816-6.532-4.805"/>
            <path fill="#085EBD" d="M345.153 16.079c-3.203-1.026-7.523-1.056-10.726-.095-7.94 2.383-13.82 10.921-12.436 17.694 1.35 6.596 9.838 11.535 17.89 9.496 9.335-2.364 16.866-13.393 13.013-21.152-1.257-2.53-3.746-4.664-7.741-5.943"/>
            <path fill="#FFD200" d="M355.681 51.732c-2.893-1.292-6.288-1.672-9.94-1.035-5.036.88-10.666 6.565-11.646 10.547-2.163 8.795 7.795 16.667 18.086 13.613 8.203-2.434 14.353-11.434 9.327-18.366-1.544-2.128-3.527-3.732-5.827-4.76"/>
            <path fill="#C19372" d="M332.682 147.99c-16.128-3.4-31.498 8.743-21.891 21.98a17.201 17.201 0 0 0 3.766 3.77c6.707 4.903 18.018 5.055 24.512.163 11.205-8.439 8.042-22.87-6.387-25.912M23.206 138.75a11.101 11.101 0 0 0-.528 4.004c.345 6.099 6.694 11.749 13.88 12.15 12.394.692 20.844-9.102 14.769-17.937-6.792-9.874-24.198-10.5-28.12 1.783"/>
            <path fill="#FFD200" d="M19.545 80.06c-5.46.57-9.974 2.455-13.262 5.412-2.614 2.35-4.453 5.38-5.376 8.962-3.01 11.673 10.759 21.764 23.6 21.882 16.112.148 25.454-14.804 17.361-26.204-3.663-5.16-14.795-10.839-22.323-10.053"/>
            <path fill="#FF7900" d="M96.814-2.758c-1.808-.953-3.045-2.603-2.732-4.578.302-1.915 1.934-3.744 4.207-4.295 2.846-.69 6.546.306 7.438 2.848 1.62 4.612-3.696 8.774-8.913 6.025m9.603-11.41c-4.797-2.795-11.41-1.825-14.769 2.166-2.708 3.217-2.257 6.966.171 10.166 3.863 5.092 13.118 4.806 17.202-.046 3.36-3.99 2.194-9.492-2.604-12.286"/>
            <path fill="#FFD200" d="M44.318 52.386c-2.195-1.84-5.15-2.969-8.677-3.234-4.865-.364-11.872 3.496-14.09 6.885-4.897 7.484 1.516 16.928 11.876 16.532 8.258-.316 16.843-7.066 14.592-14.518-.691-2.288-1.956-4.201-3.701-5.665"/>
            <path fill="#50BE87" d="M352.339 95.988c-.605 3.636-5.721 5.519-9.513 4.535-1.964-.51-3.445-1.708-4.187-3.174-.626-1.24-.721-2.673-.13-4.045 1.03-2.385 4.17-4.013 7.113-4.275 1.66-.148 3.233.19 4.354 1.266 1.225 1.175 2.622 4.14 2.363 5.693m5.717-5.821c-2.31-4.38-7.566-7.568-13.644-7.173-6.83.445-12.126 4.958-13.295 10.417-1.371 6.406 4.002 12.127 11.553 13.116 4.438.581 9.932-.85 13.174-3.384 2.98-2.33 3.696-5.594 3.428-8.881a10.639 10.639 0 0 0-1.216-4.095"/>
        </g>
    </g>
</svg>
