<svg xmlns="http://www.w3.org/2000/svg" xmlns:xlink="http://www.w3.org/1999/xlink" width="375" height="150" viewBox="0 0 375 150">
    <defs>
        <path id="a" d="M0 0h375v150H0z"/>
        <path id="c" d="M.108.248h29.833v20.908H.108z"/>
        <path id="d" d="M.024.039h29.314V28.96H.024z"/>
        <path id="f" d="M.097.248h6.887v6.35H.097z"/>
        <path id="h" d="M0 .248h21.035v7.77H0z"/>
        <path id="j" d="M.149.248h31.774v20.715H.149z"/>
        <path id="k" d="M.225.248h34.684v13.414H.225z"/>
        <path id="l" d="M0 .214h38.78v38.165H0z"/>
        <path id="n" d="M.201.248H34.2v18.986H.201z"/>
        <path id="o" d="M.366.248h30.498v10.77H.366z"/>
        <path id="q" d="M.167.248H31.44v30.279H.167z"/>
    </defs>
    <g fill="none" fill-rule="evenodd" opacity=".06">
        <mask id="b" fill="#fff">
            <use xlink:href="#a"/>
        </mask>
        <use fill="#FFF" xlink:href="#a"/>
        <g mask="url(#b)" style="mix-blend-mode:luminosity">
            <path fill="#085EBD" d="M192.932 71.137c-2.624-.536-5.49-.025-8.346 1.968-2.292 1.598-4.283 4.492-4.962 7.175-1.682 6.651 2.57 15.278 8.696 18.045 5.966 2.694 13.84-.327 15.852-6.867 2.332-7.581-3.189-18.679-11.24-20.321M285.529 111.996c-6.398-4.25-17.35-3.138-22.79 2.517-2.193 2.281-3.798 5.96-3.962 9.144-.206 3.97 1.034 7.052 3.143 9.267 6.471 6.793 20.592 5.412 26.54-1.435 5.134-5.908 3.298-15.353-2.931-19.493"/>
            <path fill="#50BE87" d="M68.016 20.664c-6.744-1.328-15.152 3.36-17.6 9.611-2.384 6.088 1.05 13.778 7.7 15.441 7.707 1.927 18.522-4.156 19.745-12.266.398-2.644-.263-5.473-2.407-8.217-1.719-2.199-4.72-4.033-7.438-4.569"/>
            <path fill="#FFD200" d="M291.815 72.306c-4.583-3.221-14.21-2.63-18.752.14-10.03 6.12-10.17 21.053.4 26.515 8.425 4.352 21.613 1.221 24.516-8.954.891-3.124.954-6.13.23-8.876-.912-3.451-3.07-6.488-6.394-8.825"/>
            <path fill="#C19372" d="M121.497 83.495a14.696 14.696 0 0 0-4.268-1.324c-6.702-.977-13.972 3.57-15.675 9.982-2.936 11.06 6.242 20.77 16.932 17.143 11.948-4.054 15.695-19.66 3.01-25.801"/>
            <path fill="#FFD200" d="M160.382 41.315c-3.157 7.025.073 16.427 6.833 20.432a17.032 17.032 0 0 0 4.818 1.917c15.938 3.708 23.978-13.101 16.168-25.469-6.989-11.065-22.374-8.998-27.819 3.12"/>
            <path fill="#085EBD" d="M90.463 112.9c-5.804-5.415-18.218-5.328-23.227 1.174-1.633 2.12-2.429 4.915-1.887 8.351.435 2.756 2.168 5.811 4.287 7.595 5.252 4.425 14.885 4.394 20.062.11 5.041-4.17 5.773-12.557.765-17.23"/>
            <g transform="translate(349.043 18.757)">
                <mask id="e" fill="#fff">
                    <use xlink:href="#d"/>
                </mask>
                <path fill="#FFD200" d="M10.254.506C-.39 3.226-3.371 16.688 4.377 24.271c3.508 3.432 12.045 5.959 16.838 4.012 3.475-1.413 6.048-3.698 7.586-6.613.199-.377.373-.768.537-1.165V9.09C26.244 2.241 17.308-1.298 10.254.506" mask="url(#e)"/>
            </g>
            <g transform="translate(371.397 1.039)">
                <mask id="g" fill="#fff">
                    <use xlink:href="#f"/>
                </mask>
                <path fill="#50BE87" d="M.097.248C1.31 2.654 3.372 4.774 6.455 6.345c.172.088.35.17.53.252V.247H.096z" mask="url(#g)"/>
            </g>
            <g transform="translate(-6 1.039)">
                <mask id="i" fill="#fff">
                    <use xlink:href="#h"/>
                </mask>
                <path fill="#50BE87" d="M10.47 7.617c4.06-.998 7.814-3.794 10.565-7.369H0v6.349C3.11 8.003 7.244 8.41 10.47 7.617" mask="url(#i)"/>
            </g>
            <path fill="#C19372" d="M251.754 143.386a18.366 18.366 0 0 0-5.585-.122c-8.39 1.13-15.555 9.094-15.388 17.384.29 14.3 14.67 22.81 26.262 14.775 12.957-8.98 12.073-29.019-5.29-32.037M325.854 46.959a15.732 15.732 0 0 0-4.783.189c-14.836 2.846-15.292 20.032-4.054 27.535 10.056 6.713 22.251-.796 22.286-13.055.019-7.107-6.242-13.825-13.449-14.67"/>
            <path fill="#085EBD" d="M161.274 90.643c-8.038-1.008-17.538 5.194-19.901 12.744-2.3 7.352 2.37 16.112 10.325 17.521 9.22 1.634 21.435-6.405 22.203-16.041.251-3.14-.76-6.414-3.506-9.463-2.202-2.445-5.88-4.354-9.121-4.761"/>
            <path fill="#50BE87" d="M111.583 6.76c-3.377-1.366-7.962-1.484-11.382-.32-8.48 2.888-14.911 13.65-13.592 22.3 1.285 8.423 10.183 14.87 18.776 12.422 9.96-2.838 18.197-16.74 14.28-26.692-1.277-3.244-3.871-6.008-8.082-7.71"/>
            <path fill="#C19372" d="M183.246 125.43a15.936 15.936 0 0 0-1.363 4.664c-.938 7.304 4.162 15.12 11.192 16.85 12.124 2.981 22.545-7.18 18.384-18.731-4.652-12.91-21.75-16.688-28.213-2.782M217.33 93.323c-7.71 13.45 3.014 28.361 18.741 27.306 9.118-.611 17.175-9.211 17.612-18.496.097-2.05-.142-4.11-.67-6.096-4.978-18.7-27.065-17.745-35.682-2.714"/>
            <path fill="#FFD200" d="M126.337 129.265c-3.845 1.112-6.83 3.249-8.787 6.171-1.556 2.323-2.463 5.142-2.637 8.336-.564 10.402 10.707 17.536 19.948 16.179 11.595-1.702 16.261-15.65 8.888-24.556-3.337-4.033-12.11-7.662-17.412-6.13"/>
            <g transform="translate(-6 81.097)">
                <mask id="m" fill="#fff">
                    <use xlink:href="#l"/>
                </mask>
                <path fill="#50BE87" d="M22.839 38.361c9.345-.433 17.404-9.374 15.715-19.001C36.597 8.201 22.358-2.351 11.043.769c-3.688 1.018-7.005 3.523-9.346 7.91C.905 10.161.333 11.905 0 13.714v7.083c.016.074.028.15.045.223 2.181 9.556 13.198 17.785 22.794 17.34" mask="url(#m)"/>
            </g>
            <path fill="#FFD200" d="M28.409 21.698c-10.568-3.86-21.49 5.489-23.002 15.427C3.511 49.593 16.45 58.79 27.973 54.01c5.217-2.163 11.733-10.047 11.82-15.985.064-4.307-1.203-8.053-3.604-10.987-1.91-2.334-4.536-4.156-7.78-5.341"/>
            <path fill="#085EBD" d="M242.65 37.653c-2.808 1.216-5.157 3.568-6.522 7.303-1.095 2.995-1.059 7.008.068 9.963 2.795 7.327 12.44 12.622 19.993 11.203 7.354-1.38 12.742-9.36 10.33-16.799-2.796-8.622-15.254-15.4-23.87-11.67"/>
            <path fill="#C19372" d="M297.315 142.799a21.465 21.465 0 0 0-4.686 4.558c-12.459 16.43 2.824 34.303 21.112 31.665 16.364-2.36 21.871-21.118 10.673-33.599-6.492-7.235-19.006-8.345-27.1-2.624M141.835 47.11a16.267 16.267 0 0 0-4.795-1.218c-7.466-.692-15.24 4.757-16.75 11.944-2.605 12.397 8.106 22.603 19.715 17.974 12.974-5.174 16.212-22.644 1.83-28.7"/>
            <path fill="#50BE87" d="M63.912 162.734a4.94 4.94 0 0 1-3.639-2.042 4.905 4.905 0 0 1-.9-3.463c.265-2.225 2.195-4.147 4.256-4.86 1.164-.402 2.36-.372 3.38.37 1.113.81 2.707 3.133 2.831 4.513.29 3.234-3.009 5.703-5.928 5.482m8.874-11.443c-2.531-3.391-6.942-5.268-11.228-3.922-4.818 1.513-7.721 6.278-7.473 11.176.292 5.747 5.292 9.786 10.911 9.389 3.304-.233 6.964-2.377 8.787-5.096 1.676-2.5 1.54-5.431.692-8.22a10.849 10.849 0 0 0-1.69-3.327"/>
            <path fill="#FF7900" d="M227.616 166.294c-3.115 2.492-7.776 1.062-10.104-1.83-1.858-2.31-1.954-5.736-.609-8.313 1.388-2.66 4.084-3.804 6.764-3.68 7.738.356 9.601 9.302 3.95 13.823m-8.283-18.546c-5.26 2.2-8.964 6.498-8.964 12.406 0 7.329 5.953 13.272 13.298 13.272 7.344 0 13.298-5.943 13.298-13.272 0-8.912-9.26-15.909-17.632-12.406"/>
            <g transform="translate(-2.713 1.039)">
                <mask id="p" fill="#fff">
                    <use xlink:href="#o"/>
                </mask>
                <path fill="#FFF" d="M5.786 7.323a16.447 16.447 0 0 0 4.938 2.744c6.046 2.116 13.166.747 17.4-4.558a15.475 15.475 0 0 0 2.74-5.261h-9.076a9.61 9.61 0 0 1-.498.742c-1.118 1.486-2.643 2.456-4.55 2.387-2.022-.073-5.816-1.555-7.246-3.13H.366c1 2.79 3.017 5.126 5.42 7.076" mask="url(#p)"/>
            </g>
            <path fill="#50BE87" d="M223.001 73.08c-1.65-.177-4.398-2.126-5.345-3.47-.866-1.233-.878-2.66-.373-4.039.897-2.443 3.24-4.705 5.908-4.974a5.888 5.888 0 0 1 4.128 1.145 5.89 5.89 0 0 1 2.37 4.383c.202 3.486-2.822 7.369-6.688 6.956m1.876-18.763c-5.859-.398-11.624 2.964-13.536 8.678-1.702 5.084.454 10.384 4.462 13.473a13.002 13.002 0 0 0 3.948 2.084c3.32 1.07 6.825 1.292 9.855-.654 3.295-2.117 5.936-6.438 6.285-10.373.592-6.694-4.14-12.74-11.014-13.208"/>
            <path fill="#FFF" d="M322.618 39.13a5.632 5.632 0 0 1-2.56 3.207 5.67 5.67 0 0 1-4.765.445c-3.16-1.127-5.461-5.248-3.647-8.499.773-1.388 3.53-3.08 5.073-3.41 1.415-.302 2.682.223 3.712 1.185 1.826 1.706 2.95 4.618 2.187 7.071m2.319-11.342c-3.86-3.405-9.356-3.491-13.592-1.118a12.466 12.466 0 0 0-3.323 2.699c-2.191 2.525-3.701 5.53-3.115 8.929.638 3.697 3.472 7.645 6.821 9.426 5.7 3.03 12.822 1.127 15.812-4.755 2.549-5.014 1.735-11.355-2.603-15.181"/>
            <path fill="#50BE87" d="M193.687 122.715c-2.909 2.738-8.536 2.948-11.013-.733-1.057-1.571-1.367-5.406-.882-7.22.443-1.663 1.687-2.722 3.267-3.293 2.803-1.012 6.507-.627 8.705 1.508a6.702 6.702 0 0 1 2.027 4.448 6.73 6.73 0 0 1-2.104 5.29m-10.734-18.33c-5.71 2.248-8.774 8.025-8.54 13.795.069 1.691.42 3.382 1.072 4.982 1.5 3.687 3.88 6.913 7.814 8.13 4.276 1.324 10.008.457 13.715-2.128 6.307-4.4 8.135-12.977 3.496-19.327-3.955-5.412-11.14-7.979-17.557-5.452"/>
            <path fill="#FF7900" d="M55.124 82.948c-1.731 2.337-4.858 3.753-7.753 3.098-3.626-.82-6.957-4.374-6.078-8.26 1.594-7.053 10.467-9.303 14.18-2.519 1.286 2.35 1.436 5.27-.35 7.681M42.725 66.706c-6.6 3.213-9.342 11.159-6.122 17.748 3.219 6.587 11.18 9.323 17.781 6.11 5.32-2.589 7.566-7.795 7.242-13.48-.516-9.046-10.876-14.285-18.9-10.378M314.428 116.301c-1.754 2.882-5.875 3.091-8.564 1.464-2.148-1.3-3.217-3.997-2.895-6.435.332-2.515 2.144-4.204 4.312-4.88 6.255-1.95 10.33 4.624 7.147 9.851m-11.962-12.354c-3.545 3.27-5.244 7.756-3.532 12.453 2.126 5.829 8.583 8.834 14.423 6.712 5.84-2.12 8.85-8.565 6.725-14.394-2.584-7.086-11.975-9.974-17.616-4.771"/>
            <path fill="#50BE87" d="M22.65 116.918c3.863 1.259 6.097 5.45 5.02 9.304-1.08 3.854-5.179 6.21-9.18 5.325-4-.888-6.292-4.99-5.075-9.218 1.216-4.226 5.371-6.672 9.234-5.41"/>
            <path fill="#FF7900" d="M15.854 149.03c2.89.41 4.642 3.047 4.342 5.941-.224 2.91-2.714 5.078-5.574 4.872-2.86-.207-4.98-2.866-4.721-5.968.177-3.116 3.188-5.234 5.953-4.846"/>
            <path fill="#085EBD" d="M42.234 91.402c2.804 1.463 3.9 4.95 2.474 7.756-1.427 2.807-4.937 4.037-7.862 2.78-2.925-1.258-4.064-4.697-2.516-7.71s5.102-4.29 7.904-2.826M104.474 32.898c2.388 3.269 1.63 7.841-1.633 10.182-3.207 2.426-7.715 2.26-10.45-.813-2.693-3.014-2.215-7.81 1.196-10.64 3.596-2.56 8.501-1.998 10.887 1.271"/>
            <path fill="#50BE87" d="M74.316 52.89c2.054 1.97 2.063 5.296.047 7.414-2.017 2.119-5.411 2.333-7.608.497-2.196-1.835-2.25-5.138-.091-7.39 2.158-2.25 5.6-2.489 7.652-.52M128.817 27.399c1.427 2.874.124 6.054-2.647 7.615-2.76 1.588-6.279.678-7.895-2.022-1.616-2.7-.54-6.25 2.442-7.936 2.931-1.802 6.731-.395 8.1 2.343M200.42 15.258c-.014 4.019-3.355 7.372-7.398 7.498-4.045.138-7.58-3.071-7.96-7.043-.378-4.092 2.861-7.426 7.301-7.552 4.438-.11 8.074 3.078 8.058 7.097"/>
            <path fill="#FF7900" d="M175.495 7.17c.49 2.83-1.512 5.254-4.383 6.008-2.88.658-5.739-1.036-6.418-3.787-.678-2.75 1.239-5.54 4.315-6.224 3.067-.773 5.999 1.175 6.486 4.003"/>
            <path fill="#085EBD" d="M234.51 16.493c-.541 3.088-3.548 5.152-6.68 4.623-3.11-.642-5.455-3.205-5.152-6.345.28-3.022 3.333-5.63 6.682-4.939 3.369.58 5.691 3.572 5.15 6.661"/>
            <path fill="#FF7900" d="M156.3 17.927c.703 1.895-.296 3.966-2.217 4.623-1.943.586-4.046-.115-4.85-1.995-.778-1.801.102-4.168 2.13-4.816 2.017-.686 4.235.293 4.937 2.188M317.902 51.43c-2.482 3.323-6.868 3.719-10.394 1.696-3.435-2.133-4.487-6.643-2.396-10.115 2.09-3.47 6.795-4.405 10.546-2.031 3.835 2.27 4.665 7.201 2.244 10.45"/>
            <path fill="#085EBD" d="M270.463 29.22c-1.269 2.539-4.448 3.525-7.076 2.224-2.577-1.394-3.998-4.207-2.891-6.86 1.05-2.55 4.401-3.948 7.177-2.508 2.801 1.395 4.06 4.606 2.79 7.145M331.957 65.725c-2.27 2.177-6.013 2.173-8.34.023-2.326-2.152-2.483-5.78-.374-8.133 2.109-2.354 5.82-2.404 8.308-.076 2.487 2.328 2.675 6.01.406 8.186"/>
            <path fill="#FF7900" d="M255.251 20.146c-.558 1.937-2.614 3.068-4.577 2.534-1.964-.536-3.168-2.56-2.705-4.53.463-1.969 2.496-3.113 4.555-2.546 2.058.567 3.286 2.605 2.727 4.542"/>
            <path fill="#085EBD" d="M371.253 136.96c-3.884 1.222-8.117-.894-9.441-4.661-.667-1.899-.492-3.9.313-5.65a7.176 7.176 0 0 1 3.906-3.96c3.747-1.594 8.342.303 9.663 4.49 1.436 4.15-.556 8.562-4.44 9.781"/>
            <path fill="#50BE87" d="M363.813 107.493c-2.526 1.316-5.784.317-7.268-2.201-1.484-2.519-.699-5.747 1.744-7.24 2.442-1.493 5.69-.545 7.26 2.15 1.568 2.696.792 5.974-1.736 7.29M337.86 82.688c-1.606 1.246-3.852.914-5.25-.567a3.574 3.574 0 0 1 .35-5.122c1.54-1.321 3.926-1.112 5.333.482 1.45 1.567 1.215 3.934-.432 5.207"/>
            <path fill="#FFD200" d="M71.952 66.049c-3.136-1.476-6.74-1.769-10.55-.76-5.25 1.388-10.81 8.89-11.577 13.982-1.697 11.245 9.325 20.653 19.973 16.223 8.487-3.532 14.374-15.255 8.613-23.746-1.768-2.607-3.966-4.527-6.46-5.7"/>
            <path fill="#C19372" d="M223.122 26.486c-5.241-4.283-13.82-4.122-18.588.5-8.224 7.97-5.368 21.01 5.668 23.396 12.332 2.667 23.598-8.783 15.894-20.568a14.629 14.629 0 0 0-2.974-3.328"/>
            <path fill="#FFD200" d="M286.795 37.39c-2.804-.044-5.325.574-7.451 1.788-2.675 1.527-4.726 3.996-5.933 7.278-1.665 4.525.975 12.39 4.298 15.544 7.338 6.966 19.821 3.753 22.018-6.245 1.751-7.968-3.8-18.223-12.932-18.365"/>
            <path fill="#085EBD" d="M343.185 86.925c-3.167-1.217-7.438-1.252-10.605-.113-7.85 2.827-13.666 12.956-12.296 20.99 1.334 7.824 9.727 13.684 17.69 11.264 9.229-2.804 16.675-15.887 12.865-25.09-1.242-3.002-3.703-5.534-7.654-7.051"/>
            <path fill="#FFD200" d="M353.595 129.218c-2.86-1.532-6.217-1.983-9.828-1.227-4.98 1.042-10.546 7.787-11.516 12.51-2.138 10.434 7.708 19.772 17.883 16.15 8.111-2.889 14.192-13.565 9.222-21.787-1.526-2.525-3.487-4.428-5.76-5.646"/>
            <path fill="#FF7900" d="M97.636 64.58c-1.787-1.13-3.01-3.088-2.701-5.431.299-2.272 1.913-4.441 4.16-5.095 2.814-.817 6.472.363 7.355 3.379 1.602 5.47-3.655 10.408-8.814 7.146m9.495-13.534c-4.743-3.316-11.281-2.165-14.602 2.57-2.678 3.815-2.233 8.262.169 12.058 3.82 6.041 12.97 5.701 17.008-.054 3.322-4.734 2.17-11.26-2.575-14.574"/>
            <path fill="#FFD200" d="M45.73 129.994c-2.17-2.183-5.091-3.522-8.58-3.836-4.81-.432-11.738 4.147-13.93 8.167-4.843 8.878 1.498 20.08 11.742 19.61 8.165-.374 16.653-8.38 14.427-17.22-.683-2.715-1.933-4.984-3.66-6.72"/>
        </g>
    </g>
</svg>
