<svg xmlns="http://www.w3.org/2000/svg" xmlns:xlink="http://www.w3.org/1999/xlink" width="375" height="305" viewBox="0 0 375 305">
    <defs>
        <path id="a" d="M0 0h375v305H0z"/>
        <path id="c" d="M.564.25h30.172V21.4H.564z"/>
        <path id="e" d="M0 .567h1.139v11.546H0z"/>
        <path id="g" d="M.024.04h29.648v29.257H.024z"/>
        <path id="i" d="M.098.25h6.965v6.424H.098z"/>
        <path id="k" d="M0 .25h21.274v7.86H0z"/>
        <path id="m" d="M.033.551h8.36v22.683H.033z"/>
        <path id="o" d="M0 .616h25.854V27.88H0z"/>
        <path id="q" d="M.15.25h32.136v20.956H.15z"/>
        <path id="s" d="M.227.25h35.078v13.57H.227z"/>
        <path id="u" d="M.576.598h.503v7.166H.576z"/>
        <path id="w" d="M0 .216h39.22v38.608H0z"/>
        <path id="y" d="M.204.25h34.384v19.207H.204z"/>
        <path id="A" d="M.456.491h29.216v32.683H.456z"/>
        <path id="C" d="M.37.25h30.845v10.896H.37z"/>
        <path id="E" d="M.624.25h31.629v30.63H.623z"/>
    </defs>
    <g fill="none" fill-rule="evenodd">
        <mask id="b" fill="#fff">
            <use xlink:href="#a"/>
        </mask>
        <use fill="#F9F9F9" xlink:href="#a"/>
        <g mask="url(#b)" opacity=".06" style="mix-blend-mode:luminosity">
            <path fill="#085EBD" d="M193.193 3.323c-2.654-.541-5.553-.025-8.442 1.992-2.317 1.616-4.33 4.544-5.018 7.257-1.7 6.729 2.599 15.456 8.795 18.255 6.034 2.725 13.997-.33 16.032-6.946 2.359-7.67-3.225-18.896-11.367-20.558"/>
            <path fill="#C19372" d="M286.73 173.53c-5.69-3.57-14.21-1.93-18.492 3.408a14.816 14.816 0 0 0-2.242 3.917c-5.138 13.28 8.419 22.244 20.057 17.016 10.415-4.677 10.493-18.18.677-24.34"/>
            <path fill="#FFD200" d="M360.398 277.139c-7.825-4.9-18.192.747-21.105 8.47-3.655 9.69 5.16 19.28 15.23 17.405 4.558-.85 11.137-6.07 12.223-10.823.787-3.449.41-6.671-1.015-9.438-1.135-2.2-2.932-4.11-5.333-5.614"/>
            <path fill="#085EBD" d="M193.48 90.704c-7.091-4.329-18.844.08-22.358 7.295-3.032 6.224.705 13.88 6.98 15.995 6.443 2.172 15.55-1.283 18.902-7.363 1.352-2.451 1.879-5.964 1.289-8.723-.736-3.442-2.502-5.793-4.814-7.204"/>
            <g transform="translate(144.94 -67.587)">
                <mask id="d" fill="#fff">
                    <use xlink:href="#c"/>
                </mask>
                <path fill="#C19372" d="M18.907 21.215C29.331 19.71 33.588 8.905 28.741.25H2.66c-6.717 11.254 3.79 22.761 16.247 20.965" mask="url(#d)"/>
            </g>
            <path fill="#C19372" d="M152.097 315.794a15.35 15.35 0 0 0-3.352 3.262 18.399 18.399 0 0 0-1.145 1.693h26.081a17.166 17.166 0 0 0-2.199-3.077c-4.644-5.178-13.596-5.971-19.385-1.878"/>
            <path fill="#085EBD" d="M286.841 44.657c-6.47-4.3-17.546-3.175-23.048 2.546-2.219 2.307-3.841 6.03-4.007 9.25-.209 4.016 1.046 7.134 3.179 9.374 6.544 6.872 20.825 5.474 26.841-1.452 5.192-5.976 3.335-15.53-2.965-19.718"/>
            <path fill="#FFD200" d="M25.824 213.873c-3.788-3.08-12.192-3.15-16.308-1.017-9.091 4.712-10.123 17.687-1.267 23.076 7.058 4.296 18.71 2.374 21.855-6.297.965-2.662 1.203-5.271.74-7.701-.583-3.057-2.274-5.829-5.02-8.061M180.819 212.346c-3.185 4.636-4.343 14.759-1.187 19.771 2.29 3.636 5.386 6.08 8.99 7.233 2.865.917 6.051 1.017 9.408.25 10.932-2.5 14.977-16.236 10.836-25.363-5.196-11.453-21.013-12.132-28.047-1.89"/>
            <path fill="#50BE87" d="M66.857-47.734c-6.82-1.344-15.325 3.399-17.8 9.722-2.41 6.159 1.062 13.937 7.787 15.62 7.795 1.95 18.733-4.204 19.97-12.408.402-2.675-.267-5.537-2.434-8.312-1.739-2.225-4.773-4.08-7.523-4.622"/>
            <path fill="#FFD200" d="M293.199 4.506c-4.635-3.258-14.372-2.66-18.966.142-10.143 6.19-10.285 21.297.405 26.822 8.521 4.403 21.859 1.236 24.795-9.058.901-3.16.965-6.201.232-8.978-.922-3.492-3.104-6.564-6.466-8.928"/>
            <path fill="#085EBD" d="M302.083 216.134c-2.234-1.81-5.668-2.955-8.52-2.864-7.073.225-14.42 6.873-15.424 13.71-.978 6.659 4.25 13.58 11.306 13.711 8.178.153 17.614-8.45 16.959-16.87-.214-2.745-1.534-5.431-4.32-7.687M89.045 108.623c-8.404-4.663-22.953-.932-26.926 8.167-1.296 2.966-1.411 6.48.234 10.358 1.318 3.109 4.25 6.19 7.26 7.667 7.465 3.66 18.764.809 23.587-5.734 4.695-6.371 3.094-16.434-4.155-20.458"/>
            <path fill="#C19372" d="M120.635 15.951a14.86 14.86 0 0 0-4.316-1.339c-6.778-.988-14.13 3.612-15.853 10.098-2.97 11.188 6.312 21.011 17.124 17.341 12.084-4.1 15.874-19.886 3.045-26.1"/>
            <path fill="#FFD200" d="M160.272-26.844c-3.192 7.107.074 16.617 6.911 20.668a17.223 17.223 0 0 0 4.873 1.94c16.119 3.75 24.25-13.253 16.351-25.764-7.067-11.194-22.627-9.102-28.135 3.156"/>
            <path fill="#085EBD" d="M330.184 135.12c-6.745 4.362-9.697 16.545-4.53 23.042 1.686 2.119 4.24 3.582 7.75 3.892 2.816.248 6.244-.701 8.517-2.34 5.635-4.063 7.961-13.507 5.016-19.627-2.867-5.96-10.934-8.729-16.753-4.967M80.922 188.933c-2.596-1.295-5.74-1.562-9.29-.276-2.846 1.032-5.745 3.504-7.208 6.123-3.63 6.493-1.605 16.713 4.03 21.326 5.488 4.49 14.578 3.533 18.522-2.75 4.571-7.285 1.911-20.449-6.054-24.423M89.56 45.571c-5.871-5.478-18.426-5.39-23.492 1.188-1.652 2.144-2.456 4.971-1.908 8.448.44 2.787 2.193 5.878 4.335 7.683 5.313 4.476 15.054 4.444 20.29.111 5.099-4.219 5.84-12.703.774-17.43"/>
            <g transform="translate(-8 -41.034)">
                <mask id="f" fill="#fff">
                    <use xlink:href="#e"/>
                </mask>
                <path fill="#FFD200" d="M1.115 5.168A12.657 12.657 0 0 0 0 .568v11.545c.854-2.072 1.243-4.408 1.115-6.945" mask="url(#f)"/>
            </g>
            <g transform="translate(351.077 -49.664)">
                <mask id="h" fill="#fff">
                    <use xlink:href="#g"/>
                </mask>
                <path fill="#FFD200" d="M10.37.512C-.394 3.264-3.41 16.882 4.427 24.552c3.548 3.473 12.182 6.028 17.029 4.059 3.515-1.43 6.117-3.74 7.672-6.69.201-.381.378-.777.544-1.178V9.197C26.542 2.267 17.505-1.313 10.37.512" mask="url(#h)"/>
            </g>
            <path fill="#C19372" d="M206.415 120.322c-5.607 10.627 3.102 21.889 15.254 20.647 7.044-.72 13.052-7.6 13.138-14.804.02-1.59-.221-3.18-.684-4.704-4.362-14.351-21.441-13.016-27.708-1.139"/>
            <g transform="translate(373.685 -67.587)">
                <mask id="j" fill="#fff">
                    <use xlink:href="#i"/>
                </mask>
                <path fill="#50BE87" d="M.098.25C1.325 2.686 3.41 4.83 6.528 6.42c.175.089.354.172.536.255V.25H.098z" mask="url(#j)"/>
            </g>
            <g transform="translate(-8 -67.587)">
                <mask id="l" fill="#fff">
                    <use xlink:href="#k"/>
                </mask>
                <path fill="#50BE87" d="M10.59 7.706c4.106-1.01 7.902-3.839 10.684-7.455H0v6.422c3.144 1.422 7.327 1.835 10.59 1.033" mask="url(#l)"/>
            </g>
            <g transform="translate(372.356 297.515)">
                <mask id="n" fill="#fff">
                    <use xlink:href="#m"/>
                </mask>
                <path fill="#50BE87" d="M8.393.551C2.427 5.648-1.487 14.092.6 21.152c.212.713.489 1.408.828 2.082h6.965V.55z" mask="url(#n)"/>
            </g>
            <g transform="translate(-8 292.869)">
                <mask id="p" fill="#fff">
                    <use xlink:href="#o"/>
                </mask>
                <path fill="#50BE87" d="M25.825 14.642C25.29 6.277 17.123-.804 8.493.86 5.491 1.439 2.558 3.013 0 5.198V27.88h21.274c3.015-3.921 4.837-8.77 4.55-13.238" mask="url(#p)"/>
            </g>
            <path fill="#FFD200" d="M373.455 208.37c-4.009-2.642-12.673-3.477-16.908-.716-3.072 2.003-5.114 4.675-6.045 7.76-.741 2.454-.778 5.167-.074 8.014 2.298 9.27 14.093 12.51 21.829 8.848 9.706-4.594 10.05-18.07 1.198-23.906M212.843 149.492c-4.38-3.312-13.831-3.062-18.376-.503-10.035 5.654-10.685 20.283-.516 25.994 8.103 4.554 21.13 1.936 24.324-7.936.98-3.03 1.145-5.974.53-8.689-.776-3.412-2.786-6.463-5.962-8.866"/>
            <path fill="#50BE87" d="M347.884 237.724c-2.834-1.323-6.762-1.63-9.747-.785-7.405 2.097-13.407 11.043-12.664 18.523.722 7.284 8.065 13.215 15.546 11.5 8.671-1.987 16.363-13.546 13.452-22.26-.95-2.84-3.05-5.329-6.587-6.978"/>
            <path fill="#C19372" d="M252.682 76.41a18.57 18.57 0 0 0-5.648-.123c-8.485 1.144-15.732 9.2-15.562 17.586.292 14.465 14.835 23.074 26.56 14.946 13.104-9.084 12.21-29.355-5.35-32.408"/>
            <path fill="#FFD200" d="M255.025 194.631c-2.368-1.648-4.875-2.569-7.39-2.755-3.164-.234-6.34.695-9.262 2.803-4.03 2.907-6.313 11.137-5.297 15.738 2.245 10.165 14.752 14.596 22.393 7.324 6.09-5.796 7.267-17.74-.444-23.11"/>
            <path fill="#C19372" d="M327.625-21.135a15.907 15.907 0 0 0-4.838.191c-15.004 2.88-15.466 20.265-4.1 27.855 10.17 6.79 22.505-.805 22.54-13.206.018-7.19-6.313-13.986-13.602-14.84"/>
            <path fill="#085EBD" d="M162.875 118.976c-8.017-4.424-18.396-.031-21.626 8.089-3.316 8.338.622 20.573 8.425 25.41 3.147 1.95 7.755 2.888 11.443 2.302 4.6-.731 7.83-2.897 9.856-5.844 6.212-9.04 1.197-24.828-8.098-29.957"/>
            <path fill="#FFD200" d="M60.342 226.977c-12.206-3.858-24.607 6.701-21.551 19.278 2.435 10.025 14.437 18.609 24.892 13.719 3.21-1.502 5.731-3.599 7.473-6.155 2.192-3.215 3.152-7.157 2.7-11.554-.622-6.063-7.987-13.542-13.514-15.288"/>
            <path fill="#C19372" d="M273.477 310.81c-7.147.345-12.944 4.528-15.401 9.939h30.109c-1.913-5.907-7.327-10.297-14.708-9.94"/>
            <g transform="translate(256.653 -67.587)">
                <mask id="r" fill="#fff">
                    <use xlink:href="#q"/>
                </mask>
                <path fill="#C19372" d="M5.605 17.16A16.398 16.398 0 0 0 9.79 19.9c6.91 3.117 16.142.461 19.958-5.917C32.481 9.413 32.89 4.45 31.532.251H1.422C-.975 5.525-.198 11.967 5.605 17.16" mask="url(#r)"/>
            </g>
            <path fill="#085EBD" d="M161.174 23.056c-8.129-1.02-17.737 5.254-20.126 12.892-2.327 7.437 2.397 16.298 10.442 17.724 9.324 1.653 21.678-6.48 22.456-16.227.253-3.177-.77-6.488-3.547-9.572-2.227-2.474-5.946-4.406-9.225-4.817"/>
            <path fill="#50BE87" d="M110.919-61.8c-3.416-1.381-8.052-1.5-11.51-.323-8.577 2.92-15.082 13.808-13.748 22.558 1.3 8.52 10.3 15.042 18.99 12.566 10.072-2.87 18.403-16.935 14.442-27.001-1.291-3.282-3.915-6.078-8.174-7.8"/>
            <path fill="#C19372" d="M183.397 58.247a16.123 16.123 0 0 0-1.379 4.718c-.949 7.388 4.21 15.295 11.32 17.044 12.26 3.016 22.8-7.262 18.592-18.947-4.705-13.06-21.998-16.882-28.533-2.815"/>
            <path fill="#FFD200" d="M146.035 286.246c-2.139-3.316-5.445-5.773-9.737-7.095-5.917-1.824-15.83 2.077-19.653 6.537-8.446 9.85-3.484 25.591 9.489 27.728 10.34 1.703 23.125-6.081 22.696-17.765-.133-3.586-1.095-6.767-2.795-9.405"/>
            <g transform="translate(184.838 -67.587)">
                <mask id="t" fill="#fff">
                    <use xlink:href="#s"/>
                </mask>
                <path fill="#C19372" d="M2.878 5.626c9.871 14.137 27.361 8.437 32.427-5.375H.227C.231.26.232.27.235.279a19.543 19.543 0 0 0 2.643 5.347" mask="url(#t)"/>
            </g>
            <path fill="#C19372" d="M194.998 298.036c-8.115 3.58-12.608 14.092-9.933 22.713h35.078a22.792 22.792 0 0 0 1.066-3.987c2.562-14.844-12.198-24.909-26.211-18.726"/>
            <path fill="#085EBD" d="M270.76 241.925c-7.103 1.294-13.778 9.181-13.756 16.55.008 2.97 1.33 6.503 3.3 8.762 2.459 2.818 5.312 4.093 8.185 4.216 8.816.377 17.456-9.757 16.999-18.262-.394-7.337-7.812-12.527-14.728-11.266"/>
            <path fill="#C19372" d="M217.868 25.767c-7.798 13.605 3.048 28.69 18.954 27.623 9.221-.619 17.37-9.319 17.812-18.711a20.325 20.325 0 0 0-.678-6.167c-5.035-18.916-27.372-17.95-36.088-2.745"/>
            <path fill="#FFD200" d="M-1.332 249.384c-6.366 5.264-8.34 16.889-1.151 22.679 2.207 1.778 4.601 2.852 7.054 3.205 3.084.446 6.26-.247 9.27-2.113 4.148-2.573 6.951-10.483 6.27-15.062-1.502-10.115-13.455-15.313-21.443-8.709M125.84 62.126c-3.888 1.124-6.906 3.286-8.886 6.242-1.574 2.35-2.491 5.202-2.667 8.433-.571 10.522 10.828 17.74 20.175 16.366 11.726-1.722 16.446-15.831 8.989-24.84-3.375-4.08-12.249-7.751-17.61-6.201"/>
            <g transform="translate(379.67 26.676)">
                <mask id="v" fill="#fff">
                    <use xlink:href="#u"/>
                </mask>
                <path fill="#50BE87" d="M1.079 7.764V.598c-.447 2.424-.464 4.963 0 7.166" mask="url(#v)"/>
            </g>
            <g transform="translate(-8 13.4)">
                <mask id="x" fill="#fff">
                    <use xlink:href="#w"/>
                </mask>
                <path fill="#50BE87" d="M23.098 38.806c9.452-.438 17.603-9.483 15.894-19.222C37.012 8.296 22.612-2.379 11.168.778c-3.73 1.03-7.084 3.564-9.452 8C.915 10.28.337 12.045 0 13.875v7.165c.016.075.028.152.045.226 2.206 9.666 13.348 17.99 23.053 17.541" mask="url(#x)"/>
            </g>
            <path fill="#C19372" d="M227.902 238.197c-9.842.145-18.993 8.944-19.988 18.907-.22 2.2-.08 4.43.377 6.596 4.298 20.398 28.107 20.613 38.225 4.927 9.052-14.035-1.64-30.68-18.614-30.43"/>
            <path fill="#085EBD" d="M150.803 191.183c-8.979-4.245-21.002.13-24.227 9.999-3.739 11.44 4.341 28.423 16.51 31.127 3.966.882 8.326.183 12.713-2.765 3.516-2.364 6.614-6.703 7.714-10.754 2.728-10.047-3.49-23.248-12.71-27.607"/>
            <path fill="#C19372" d="M329.66 306.09c-8.03-.441-15.991 6.21-17.37 14.275-.022.127-.04.256-.058.384h34.115c-.816-7.572-7.376-14.146-16.686-14.658"/>
            <g transform="translate(311.844 -67.587)">
                <mask id="z" fill="#fff">
                    <use xlink:href="#y"/>
                </mask>
                <path fill="#C19372" d="M.376 5.264c2.338 16.87 21.733 18.401 30.875 6.191C33.932 7.875 34.9 3.944 34.5.251H.389a17.709 17.709 0 0 0-.012 5.013" mask="url(#z)"/>
            </g>
            <path fill="#FFD200" d="M57.943 279.975c-11.184 8.223-8.29 25.413 4.39 30.64 5.74 2.366 16.944 1.292 21.638-3.256 3.404-3.3 5.336-7.195 5.755-11.34.334-3.296-.289-6.751-1.887-10.19-5.208-11.201-20.98-12.407-29.896-5.854M26.8-46.689C16.112-50.594 5.065-41.136 3.537-31.083 1.619-18.47 14.704-9.166 26.359-14c5.276-2.188 11.866-10.163 11.955-16.17.064-4.357-1.218-8.146-3.646-11.115-1.931-2.361-4.588-4.204-7.868-5.403"/>
            <path fill="#085EBD" d="M243.475-30.549c-2.84 1.23-5.215 3.61-6.596 7.389-1.107 3.03-1.07 7.089.07 10.078 2.825 7.412 12.58 12.768 20.219 11.333 7.438-1.397 12.887-9.468 10.447-16.994-2.828-8.722-15.426-15.579-24.14-11.806M106.233 143.696c-4.105.246-8.151 2.142-11.595 6.23-2.76 3.279-4.56 8.361-4.499 12.609.154 10.532 9.891 21.64 20.077 23.314 9.92 1.629 20.392-5.974 20.772-16.472.44-12.168-12.164-26.438-24.755-25.681"/>
            <path fill="#C19372" d="M298.761 75.817a21.71 21.71 0 0 0-4.739 4.61c-12.6 16.621 2.856 34.701 21.353 32.033 16.549-2.387 22.119-21.363 10.794-33.989-6.566-7.319-19.222-8.441-27.408-2.654M141.515-20.983a16.449 16.449 0 0 0-4.85-1.23c-7.55-.7-15.413 4.81-16.94 12.082-2.635 12.54 8.198 22.864 19.939 18.182 13.121-5.234 16.396-22.907 1.851-29.034"/>
            <path fill="#FFD200" d="M278.16 129.285c-7.938-2.785-19.133 1.59-20.425 10.886-.396 2.855-.08 5.503.896 7.825 1.229 2.92 3.5 5.323 6.707 6.966 4.423 2.264 12.806.559 16.452-2.434 8.052-6.611 6.329-19.748-3.63-23.243"/>
            <path fill="#50BE87" d="M-3.742 182.698c2.624-3.61 3.344-7.268 2.715-10.639-.761-4.08-3.427-7.686-6.973-10.388v24.97c1.677-1.096 3.184-2.464 4.258-3.943"/>
            <g transform="translate(351.077 156.121)">
                <mask id="B" fill="#fff">
                    <use xlink:href="#A"/>
                </mask>
                <path fill="#50BE87" d="M10.793 1.098C2.347 3.527-1.71 13.537 1.618 21.233 5.034 29.136 16.02 34.77 24.603 32.766c1.694-.396 3.46-1.195 5.07-2.246V5.55c-5.44-4.144-12.954-6.156-18.88-4.452" mask="url(#B)"/>
            </g>
            <path fill="#FF7900" d="M371.581 215.495c-.14 2.314-1.616 4.617-3.837 5.434-2.781 1.024-6.555.09-7.66-2.891-2.002-5.408 2.953-10.76 8.388-7.833 1.883 1.015 3.255 2.903 3.11 5.29m-15.361-5.49c-3.017 5.012-1.392 11.516 3.628 14.527 5.02 3.012 11.535 1.39 14.55-3.622 2.432-4.039 1.669-8.494-1.022-12.156-4.28-5.828-13.49-4.84-17.156 1.251"/>
            <path fill="#50BE87" d="M62.707 95.983a4.997 4.997 0 0 1-3.681-2.066 4.963 4.963 0 0 1-.91-3.503c.268-2.25 2.22-4.195 4.305-4.916 1.176-.407 2.386-.376 3.417.374 1.126.82 2.739 3.17 2.864 4.566.294 3.271-3.043 5.768-5.995 5.545m8.974-11.575c-2.56-3.431-7.02-5.33-11.356-3.968-4.872 1.53-7.808 6.35-7.557 11.305.295 5.814 5.352 9.9 11.035 9.498 3.34-.236 7.043-2.404 8.887-5.155 1.695-2.53 1.558-5.494.7-8.315a10.975 10.975 0 0 0-1.71-3.365"/>
            <path fill="#FF7900" d="M155.4 189.769c-2.591.3-5.285-.627-6.813-3.113-1.48-2.41-1.62-5.741.026-8.108 2.062-2.964 6.486-4.668 9.678-2.46 5.79 4.004 4.59 12.81-2.891 13.681m-1.424-20.334c-7.125.497-12.497 6.667-11.999 13.779.402 5.733 4.287 9.65 9.54 11.43 8.36 2.831 16.868-4.585 16.262-13.231-.498-7.113-6.678-12.475-13.803-11.978M334.6 284.42c-6.658 5.648-15.091-.303-13.914-8.375.65-4.449 5.597-6.849 9.747-6.249 3.314.478 6.034 3.232 6.91 6.393.904 3.259-.437 6.275-2.744 8.231m-16.153-17.293c-6.059 5.641-6.39 15.118-.74 21.166 6.869 7.354 19.9 6.017 24.108-3.304 2.644-5.857 2.387-12.248-2.166-17.123-5.65-6.048-15.143-6.379-21.202-.739"/>
            <path fill="#50BE87" d="M76.772 170.755c-1.191 1-2.66 1.142-4.125.746-2.598-.7-5.14-2.9-5.657-5.616a6.054 6.054 0 0 1 .808-4.34 6.095 6.095 0 0 1 4.303-2.825c3.572-.522 7.843 2.232 7.766 6.237-.034 1.709-1.795 4.705-3.095 5.798m-3.786-18.527c-6.95-.006-12.752 5.395-12.615 12.491.117 6.05 4.1 11.664 10.156 13.112 5.39 1.29 10.656-1.4 13.477-5.79a13.386 13.386 0 0 0 1.793-4.24c.803-3.505.717-7.122-1.56-10.057-2.478-3.19-7.167-5.512-11.25-5.516"/>
            <path fill="#FF7900" d="M228.27 99.584c-3.15 2.52-7.864 1.075-10.219-1.852-1.879-2.336-1.976-5.802-.615-8.409 1.403-2.69 4.13-3.848 6.84-3.723 7.826.361 9.711 9.41 3.995 13.984m-8.376-18.76c-5.321 2.226-9.067 6.572-9.066 12.549 0 7.414 6.02 13.425 13.448 13.425 7.428 0 13.45-6.011 13.45-13.425 0-9.015-9.365-16.093-17.832-12.55"/>
            <g transform="translate(-4.675 -67.587)">
                <mask id="D" fill="#fff">
                    <use xlink:href="#C"/>
                </mask>
                <path fill="#FFF" d="M5.852 7.407a16.633 16.633 0 0 0 4.994 2.777c6.115 2.14 13.316.756 17.597-4.611A15.655 15.655 0 0 0 31.215.25h-9.18a9.722 9.722 0 0 1-.503.75c-1.13 1.503-2.673 2.485-4.602 2.416-2.045-.075-5.882-1.574-7.328-3.166H.37c1.011 2.822 3.052 5.184 5.482 7.156" mask="url(#D)"/>
            </g>
            <path fill="#FFF" d="M23.665 305.518c-5.294-7.039-15.094-7.894-21.88-2.591-3.987 3.115-6.792 8.959-6.773 13.964a11.48 11.48 0 0 0 .683 3.858h9.232c-.044-.047-.092-.094-.13-.142-3.139-3.852-1.071-9.8 2.819-12.012a7.564 7.564 0 0 1 6.364-.518 7.52 7.52 0 0 1 4.108 3.624c1.432 2.776.892 6.408-.727 9.048h9.179c1.52-5.121.421-10.848-2.875-15.23"/>
            <path fill="#FF7900" d="M118.68 99.647c-1.488 8.747-11.957 9.615-16.327 2.556-2.408-3.891-.125-8.99 3.502-11.232 2.896-1.79 6.819-1.42 9.571.47 2.84 1.95 3.77 5.176 3.254 8.206m-6.908-16.195c-8.364-1.025-15.978 4.913-17.005 13.264-1.028 8.351 4.921 15.952 13.286 16.977 10.17 1.246 19.449-8.303 16.622-18.312-1.775-6.29-6.16-11.102-12.903-11.929"/>
            <path fill="#50BE87" d="M308.532 152.28c-.215 2.589-2.374 4.895-4.734 5.804-1.331.513-2.719.526-3.93-.292-1.323-.894-3.264-3.523-3.464-5.117-.467-3.735 3.254-6.73 6.646-6.593a5.729 5.729 0 0 1 4.3 2.22 5.689 5.689 0 0 1 1.182 3.977m-6.95-12.179c-3.816.404-7.971 3.036-9.973 6.261-1.84 2.966-1.565 6.356-.469 9.554a12.613 12.613 0 0 0 2.093 3.788c3.07 3.827 8.256 5.825 13.169 4.092 5.52-1.949 8.69-7.588 8.204-13.254-.571-6.649-6.528-11.128-13.023-10.44M223.603 5.29c-1.668-.18-4.448-2.152-5.406-3.512-.876-1.246-.888-2.69-.377-4.084.907-2.472 3.276-4.76 5.976-5.033a5.954 5.954 0 0 1 4.174 1.159 5.96 5.96 0 0 1 2.396 4.433c.206 3.527-2.853 7.455-6.763 7.037m1.898-18.98c-5.926-.403-11.757 2.998-13.69 8.779-1.721 5.143.459 10.504 4.512 13.629a13.149 13.149 0 0 0 3.994 2.108c3.357 1.083 6.902 1.307 9.966-.662 3.332-2.141 6.003-6.512 6.356-10.493.6-6.772-4.186-12.888-11.138-13.361"/>
            <path fill="#FF7900" d="M23.567 230.279c-2.657 3.423-8.066 5.186-11.752 2.341-6.686-5.16-4.694-15.64 4.325-16.212 3.125-.2 6.294 1.082 7.967 4.157 1.623 2.98 1.581 6.981-.54 9.714M21.1 210.808C11.26 206.89.598 215.245.78 225.644.93 234.2 8 241.013 16.568 240.864c8.57-.15 15.394-7.205 15.245-15.76-.12-6.895-4.53-11.834-10.713-14.296"/>
            <path fill="#FFF" d="M324.352-29.055a5.697 5.697 0 0 1-2.59 3.245 5.732 5.732 0 0 1-4.819.45c-3.195-1.14-5.523-5.309-3.688-8.597.783-1.404 3.57-3.116 5.13-3.45 1.432-.305 2.713.226 3.755 1.199 1.847 1.726 2.983 4.671 2.212 7.153m2.345-11.474c-3.904-3.445-9.462-3.532-13.746-1.13-1.254.703-2.4 1.62-3.36 2.73-2.217 2.554-3.744 5.594-3.151 9.032.645 3.74 3.51 7.733 6.899 9.535 5.764 3.066 12.967 1.14 15.991-4.81 2.578-5.072 1.754-11.486-2.633-15.357"/>
            <path fill="#50BE87" d="M193.956 55.5c-2.942 2.77-8.633 2.982-11.138-.742-1.069-1.59-1.383-5.468-.893-7.304.45-1.681 1.707-2.753 3.305-3.33 2.835-1.024 6.581-.635 8.804 1.525a6.78 6.78 0 0 1 2.05 4.5 6.81 6.81 0 0 1-2.128 5.35M183.1 36.958c-5.774 2.274-8.874 8.118-8.637 13.956.07 1.71.425 3.42 1.084 5.04 1.518 3.73 3.925 6.993 7.902 8.224 4.326 1.338 10.123.462 13.872-2.153 6.378-4.451 8.227-13.128 3.535-19.551-3.999-5.475-11.266-8.072-17.756-5.516"/>
            <path fill="#FF7900" d="M134.055 320.413c-.367.098-.726.212-1.08.336h10.345a15.726 15.726 0 0 0-9.265-.336"/>
            <g transform="translate(121.667 -67.587)">
                <mask id="F" fill="#fff">
                    <use xlink:href="#E"/>
                </mask>
                <path fill="#FF7900" d="M22.31 8.725c3.818 2.799 3.608 8.57 1 12.121-2.08 2.836-5.985 3.998-9.357 3.25-3.48-.77-5.622-3.504-6.303-6.608-1.966-8.96 7.733-13.84 14.66-8.763M3.558 23.895c4.144 5.343 10.214 8.261 16.997 6.446 8.417-2.251 13.412-10.887 11.156-19.29C30.306 5.818 26.42 1.91 21.653.252H11.308C1.801 3.564-2.797 15.698 3.558 23.895" mask="url(#F)"/>
            </g>
            <path fill="#FF7900" d="M53.818 15.272c-1.75 2.364-4.913 3.797-7.84 3.134-3.667-.83-7.036-4.425-6.148-8.357C41.443 2.915 50.416.64 54.171 7.502c1.301 2.377 1.453 5.331-.353 7.77m-12.54-16.43c-6.676 3.25-9.449 11.288-6.192 17.953 3.255 6.664 11.307 9.432 17.984 6.181 5.38-2.619 7.651-7.886 7.323-13.636-.522-9.151-11-14.45-19.115-10.499"/>
            <path fill="#50BE87" d="M234.508 193.31c-1.23 1.313-4.505 3.007-6.32 2.947-4.25-.14-6.934-4.806-6.181-8.552a6.453 6.453 0 0 1 3.234-4.39 6.45 6.45 0 0 1 4.647-.613c2.85.697 5.042 3.505 5.64 6.289.338 1.57.107 3.115-1.02 4.318m-5.489-17.665c-7.518-.539-13.566 5.293-13.945 12.637-.223 4.316 1.98 9.4 5.226 12.194 2.984 2.57 6.815 2.861 10.575 2.207a14.253 14.253 0 0 0 4.595-1.659c4.814-2.738 7.957-8.152 6.889-13.92-1.2-6.48-6.932-11.001-13.34-11.46"/>
            <path fill="#FF7900" d="M316.069 49.012c-1.774 2.915-5.942 3.126-8.662 1.48-2.172-1.315-3.253-4.043-2.928-6.509.337-2.544 2.17-4.253 4.361-4.937 6.327-1.973 10.448 4.678 7.229 9.966M303.97 36.514c-3.586 3.308-5.304 7.846-3.572 12.597 2.15 5.897 8.68 8.937 14.587 6.79 5.906-2.145 8.95-8.664 6.802-14.56-2.614-7.168-12.112-10.09-17.817-4.827"/>
            <path fill="#FFF" d="M123.276 249.966a6.56 6.56 0 0 1-4.553 1.436c-2.984-.196-5.68-2.625-6.775-5.314-.617-1.515-.66-3.106.258-4.513 1.002-1.534 3.988-3.813 5.819-4.074 4.29-.61 7.81 3.598 7.718 7.49a6.563 6.563 0 0 1-2.467 4.975m1.918-18.09c-3.45-2.052-7.346-1.668-11.004-.346a14.489 14.489 0 0 0-4.316 2.475c-4.344 3.597-6.538 9.586-4.445 15.184 2.353 6.292 8.906 9.814 15.416 9.143 7.639-.788 12.674-7.709 11.753-15.144-.541-4.37-3.653-9.082-7.404-11.312"/>
            <path fill="#50BE87" d="M355.025 189.889c-3.908-1.274-6.167-5.514-5.078-9.412 1.092-3.9 5.237-6.283 9.284-5.386 4.045.898 6.363 5.048 5.134 9.325-1.231 4.275-5.434 6.748-9.34 5.473"/>
            <path fill="#FF7900" d="M362.863 168.015c-2.921-.416-4.694-3.084-4.391-6.011.227-2.944 2.746-5.137 5.637-4.928 2.893.209 5.038 2.899 4.776 6.036-.18 3.153-3.225 5.295-6.022 4.903"/>
            <path fill="#085EBD" d="M343.726 223.48c-2.836-1.48-3.945-5.008-2.503-7.846 1.444-2.84 4.994-4.084 7.953-2.813 2.957 1.273 4.111 4.752 2.544 7.8-1.566 3.048-5.16 4.34-7.994 2.858M362.15 129.17c-2.066.077-3.791-1.518-3.856-3.546-.065-2.029 1.557-3.803 3.624-3.979 2.067-.175 3.797 1.394 3.86 3.522.063 2.128-1.564 3.927-3.629 4.003M371.003 149.77c-5.026.188-9.224-3.693-9.381-8.629-.157-4.937 3.79-9.253 8.819-9.681 5.03-.425 9.239 3.393 9.392 8.57.154 5.176-3.804 9.555-8.83 9.74M289.209 277.164c-2.415-3.306-1.649-7.932 1.652-10.3 3.243-2.455 7.803-2.287 10.57.822 2.723 3.048 2.239 7.9-1.211 10.763-3.636 2.59-8.598 2.022-11.011-1.285"/>
            <path fill="#50BE87" d="M314.767 252.588c-2.077-1.99-2.085-5.355-.047-7.5 2.04-2.142 5.472-2.36 7.694-.503 2.22 1.858 2.277 5.199.094 7.477-2.185 2.277-5.664 2.518-7.741.526"/>
            <path fill="#FF7900" d="M261.209 290.941c-1.445-2.907-.127-6.125 2.675-7.704 2.793-1.607 6.35-.685 7.986 2.046 1.634 2.73.546 6.322-2.47 8.028-2.965 1.822-6.808.4-8.191-2.37M327.64 239.296c-1.71-1.133-2.197-3.46-1.098-5.183 1.098-1.724 3.415-2.257 5.186-1.202 1.772 1.054 2.278 3.362 1.119 5.165-1.16 1.803-3.496 2.354-5.206 1.22"/>
            <path fill="#085EBD" d="M175.952 296.702c.015-4.066 3.394-7.457 7.484-7.585 4.09-.14 7.665 3.106 8.049 7.124.382 4.14-2.893 7.512-7.384 7.639-4.489.114-8.166-3.113-8.15-7.178"/>
            <path fill="#50BE87" d="M209.687 306.963c-.494-2.863 1.53-5.315 4.434-6.077 2.912-.666 5.804 1.048 6.491 3.83.686 2.783-1.253 5.604-4.363 6.296-3.103.781-6.068-1.188-6.562-4.05"/>
            <path fill="#FF7900" d="M156.5 294.55c.546-3.123 3.588-5.211 6.755-4.675 3.146.649 5.517 3.242 5.21 6.417-.284 3.057-3.372 5.697-6.757 4.997-3.408-.587-5.756-3.614-5.209-6.738"/>
            <path fill="#50BE87" d="M241.683 293.882c-.711-1.917.3-4.013 2.242-4.678 1.966-.591 4.093.118 4.905 2.019.788 1.822-.102 4.217-2.153 4.872-2.041.694-4.283-.296-4.994-2.213"/>
            <path fill="#085EBD" d="M129.63 283.289c2.51-3.362 6.947-3.763 10.512-1.716 3.475 2.157 4.538 6.718 2.424 10.23-2.115 3.512-6.872 4.458-10.666 2.057-3.878-2.297-4.718-7.286-2.27-10.571"/>
            <path fill="#50BE87" d="M103.795 277.07c1.283-2.569 4.499-3.566 7.157-2.25 2.607 1.41 4.043 4.255 2.924 6.939-1.064 2.58-4.452 3.994-7.259 2.537-2.832-1.41-4.106-4.659-2.822-7.227"/>
            <path fill="#FF7900" d="M64.987 243.4c2.294-2.201 6.08-2.198 8.433-.022 2.353 2.177 2.512 5.846.38 8.227-2.133 2.38-5.888 2.431-8.403.077-2.515-2.356-2.705-6.08-.41-8.281M8.805 163.363c3.928-1.236 8.208.904 9.549 4.715.673 1.92.498 3.945-.318 5.715a7.252 7.252 0 0 1-3.95 4.006c-3.79 1.613-8.436-.306-9.773-4.542-1.451-4.199.563-8.66 4.492-9.894"/>
            <path fill="#50BE87" d="M25.236 190.107c2.556-1.333 5.85-.322 7.35 2.226 1.502 2.547.708 5.813-1.762 7.324-2.47 1.51-5.756.551-7.343-2.176-1.586-2.726-.8-6.043 1.755-7.374"/>
            <path fill="#085EBD" d="M5.986 145.187c3.183-.449 6.107 1.765 6.532 4.904.433 3.138-1.291 6.16-4.493 6.852-3.106.68-6.358-1.441-6.999-4.8-.449-3.377 1.776-6.509 4.96-6.956M50.926 226.224c1.624-1.26 3.897-.925 5.312.574a3.618 3.618 0 0 1-.355 5.182c-1.558 1.336-3.97 1.123-5.395-.488-1.466-1.585-1.228-3.98.438-5.268"/>
            <path fill="#50BE87" d="M20.975 49.636c3.907 1.273 6.167 5.514 5.078 9.412-1.092 3.898-5.238 6.282-9.284 5.386-4.046-.898-6.364-5.048-5.134-9.325 1.23-4.275 5.433-6.749 9.34-5.473"/>
            <path fill="#FF7900" d="M14.103 82.12c2.921.414 4.694 3.083 4.39 6.01-.226 2.944-2.745 5.137-5.637 4.928-2.892-.209-5.037-2.899-4.775-6.036.18-3.153 3.225-5.295 6.022-4.903"/>
            <path fill="#085EBD" d="M40.782 23.824c2.836 1.48 3.945 5.007 2.502 7.846-1.443 2.84-4.993 4.084-7.952 2.812-2.957-1.272-4.11-4.752-2.544-7.8 1.566-3.048 5.16-4.339 7.994-2.858"/>
            <path fill="#50BE87" d="M10.407 112.932c2.065-.077 3.79 1.518 3.855 3.546.065 2.029-1.557 3.802-3.624 3.978-2.067.175-3.796-1.394-3.86-3.522-.063-2.127 1.564-3.926 3.63-4.002"/>
            <path fill="#085EBD" d="M103.73-35.359c2.415 3.307 1.648 7.932-1.652 10.3-3.244 2.455-7.803 2.287-10.57-.822-2.723-3.048-2.239-7.9 1.211-10.763 3.637-2.59 8.597-2.022 11.01 1.285"/>
            <path fill="#50BE87" d="M73.229-15.134c2.077 1.991 2.086 5.356.047 7.5-2.04 2.143-5.472 2.36-7.694.502-2.221-1.856-2.277-5.197-.092-7.476 2.183-2.276 5.662-2.518 7.739-.526M128.348-40.921c1.444 2.907.127 6.124-2.676 7.703-2.792 1.607-6.35.685-7.985-2.046-1.634-2.73-.546-6.323 2.47-8.028 2.964-1.822 6.808-.4 8.191 2.37M200.766-53.203c-.014 4.065-3.394 7.457-7.483 7.585-4.09.14-7.665-3.107-8.05-7.124-.382-4.14 2.894-7.513 7.384-7.64 4.489-.112 8.166 3.113 8.15 7.179"/>
            <path fill="#FF7900" d="M175.558-61.385c.494 2.863-1.53 5.315-4.434 6.077-2.912.666-5.803-1.048-6.49-3.83-.686-2.783 1.253-5.604 4.363-6.296 3.102-.782 6.067 1.189 6.56 4.05"/>
            <path fill="#085EBD" d="M235.242-51.954c-.546 3.124-3.588 5.212-6.755 4.676-3.145-.649-5.517-3.241-5.21-6.417.283-3.057 3.37-5.697 6.757-4.997 3.407.587 5.756 3.614 5.208 6.738"/>
            <path fill="#FF7900" d="M156.144-50.503c.711 1.916-.3 4.012-2.242 4.677-1.965.592-4.092-.117-4.905-2.02-.787-1.82.103-4.215 2.155-4.87 2.039-.695 4.282.296 4.992 2.213M319.583-16.612c-2.51 3.362-6.947 3.762-10.513 1.716-3.474-2.158-4.537-6.72-2.423-10.232 2.114-3.51 6.872-4.456 10.666-2.055 3.878 2.296 4.718 7.285 2.27 10.57"/>
            <path fill="#085EBD" d="M271.604-39.079c-1.283 2.568-4.498 3.566-7.156 2.25-2.606-1.41-4.043-4.256-2.924-6.94 1.063-2.58 4.452-3.994 7.259-2.537 2.833 1.41 4.106 4.659 2.821 7.227M333.797-2.151c-2.295 2.202-6.081 2.198-8.435.023-2.352-2.177-2.511-5.846-.378-8.227 2.133-2.38 5.887-2.431 8.403-.077 2.514 2.355 2.705 6.08.41 8.28"/>
            <path fill="#FF7900" d="M256.22-48.258c-.565 1.96-2.644 3.104-4.63 2.563-1.985-.542-3.203-2.59-2.736-4.583.469-1.991 2.525-3.148 4.607-2.575 2.082.574 3.324 2.635 2.759 4.595"/>
            <path fill="#085EBD" d="M373.54 69.91c-3.928 1.236-8.21-.904-9.55-4.715-.673-1.92-.496-3.945.317-5.715a7.258 7.258 0 0 1 3.951-4.007c3.79-1.612 8.437.307 9.773 4.543 1.452 4.198-.563 8.66-4.491 9.894"/>
            <path fill="#50BE87" d="M366.015 40.101c-2.555 1.332-5.85.321-7.35-2.226-1.502-2.548-.708-5.814 1.763-7.324 2.47-1.51 5.756-.551 7.342 2.175 1.586 2.727.801 6.043-1.755 7.375"/>
            <path fill="#FFD200" d="M366.93 101.178c-3.184.448-6.11-1.766-6.533-4.903-.433-3.14 1.29-6.161 4.493-6.852 3.106-.682 6.358 1.44 7 4.8.448 3.376-1.778 6.508-4.96 6.955"/>
            <path fill="#50BE87" d="M339.768 15.009c-1.625 1.26-3.897.925-5.311-.574a3.616 3.616 0 0 1 .354-5.181c1.558-1.337 3.97-1.125 5.394.488 1.466 1.585 1.23 3.98-.437 5.267"/>
            <path fill="#FFD200" d="M70.837-1.824c-3.17-1.492-6.816-1.789-10.668-.769-5.311 1.405-10.933 8.995-11.71 14.145-1.716 11.376 9.431 20.893 20.2 16.41 8.584-3.572 14.537-15.431 8.71-24.02-1.787-2.637-4.01-4.58-6.532-5.766"/>
            <path fill="#C19372" d="M223.725-41.845c-5.3-4.332-13.976-4.17-18.798.505-8.318 8.063-5.43 21.255 5.731 23.669 12.473 2.697 23.866-8.886 16.075-20.807a14.798 14.798 0 0 0-3.008-3.367"/>
            <path fill="#FFD200" d="M288.122-30.815c-2.835-.044-5.386.581-7.536 1.81-2.705 1.544-4.78 4.042-6 7.362-1.684 4.578.986 12.533 4.347 15.724 7.421 7.047 20.046 3.797 22.268-6.317 1.77-8.061-3.844-18.435-13.08-18.579"/>
            <path fill="#085EBD" d="M345.153 19.295c-3.203-1.231-7.523-1.267-10.726-.115-7.94 2.86-13.82 13.106-12.436 21.234 1.35 7.914 9.838 13.842 17.89 11.395 9.335-2.837 16.866-16.071 13.013-25.382-1.257-3.036-3.746-5.598-7.741-7.132"/>
            <path fill="#FFD200" d="M355.681 62.078c-2.893-1.55-6.288-2.006-9.94-1.241-5.036 1.055-10.666 7.877-11.646 12.656-2.163 10.554 7.795 20 18.086 16.336 8.203-2.922 14.353-13.722 9.327-22.04-1.544-2.553-3.527-4.478-5.827-5.71"/>
            <path fill="#C19372" d="M332.682 177.589c-16.128-4.08-31.498 10.49-21.891 26.376a19.32 19.32 0 0 0 3.766 4.523c6.707 5.884 18.018 6.066 24.512.195 11.205-10.126 8.042-27.443-6.387-31.094"/>
            <path fill="#FF7900" d="M210.65 284.824c-2.774-1.558-4.766-4.403-4.487-7.95.269-3.437 2.524-6.825 5.849-7.983 4.164-1.45 9.754.036 11.319 4.5 2.838 8.097-4.672 15.929-12.681 11.433m13.2-21.09c-7.39-4.609-17.122-2.366-21.74 5.01-3.721 5.946-2.701 12.595 1.206 18.113 6.217 8.78 19.94 7.55 25.553-1.419 4.618-7.376 2.37-17.093-5.018-21.704"/>
            <path fill="#C19372" d="M177.993 251.502c-15.477-9.328-29.673 5.597-25.698 21.255 3.557 14.01 20.43 17.08 30.295 6.202 5.72-6.306 5.542-17.288-.191-23.8a18.778 18.778 0 0 0-4.406-3.657M89.998 238.918a14.86 14.86 0 0 0-3.942 2.205c-11.255 8.74-4.26 23.394 8.414 24.898 11.34 1.346 18.373-10.19 13.137-20.515-3.035-5.988-11.184-8.961-17.609-6.588M23.206 166.5a15.821 15.821 0 0 0-.528 4.805c.345 7.319 6.694 14.098 13.88 14.58 12.394.83 20.844-10.923 14.769-21.525-6.792-11.848-24.198-12.6-28.12 2.14"/>
            <path fill="#FFD200" d="M19.545 96.071c-5.46.684-9.974 2.947-13.262 6.495-2.614 2.821-4.453 6.456-5.376 10.755-3.01 14.007 10.759 26.117 23.6 26.258 16.112.178 25.454-17.765 17.361-31.444-3.663-6.193-14.795-13.007-22.323-12.064"/>
            <path fill="#FF7900" d="M96.814-3.31c-1.808-1.143-3.045-3.123-2.732-5.493.302-2.298 1.934-4.493 4.207-5.154 2.846-.827 6.546.367 7.438 3.418 1.62 5.534-3.696 10.528-8.913 7.229m9.603-13.691c-4.797-3.355-11.41-2.19-14.769 2.6-2.708 3.859-2.257 8.357.171 12.198 3.863 6.11 13.118 5.767 17.202-.055 3.36-4.79 2.194-11.39-2.604-14.743"/>
            <path fill="#FFD200" d="M44.318 62.864c-2.195-2.209-5.15-3.563-8.677-3.881-4.865-.438-11.872 4.195-14.09 8.261-4.897 8.98 1.516 20.314 11.876 19.838 8.258-.379 16.843-8.478 14.592-17.42-.691-2.746-1.956-5.042-3.701-6.798"/>
            <path fill="#50BE87" d="M352.339 115.185c-.605 4.364-5.721 6.623-9.513 5.442a6.7 6.7 0 0 1-4.187-3.809 6.66 6.66 0 0 1-.13-4.853c1.03-2.862 4.17-4.815 7.113-5.13 1.66-.177 3.233.228 4.354 1.519 1.225 1.41 2.622 4.969 2.363 6.831m5.717-6.985c-2.31-5.255-7.566-9.081-13.644-8.607-6.83.533-12.126 5.949-13.295 12.5-1.371 7.688 4.002 14.552 11.553 15.74 4.438.697 9.932-1.02 13.174-4.062 2.98-2.796 3.696-6.712 3.428-10.657a14.714 14.714 0 0 0-1.216-4.914M128.59 266.218c-1.668-.18-4.45-2.15-5.406-3.51-.877-1.248-.889-2.691-.377-4.085.907-2.472 3.275-4.761 5.975-5.033a5.95 5.95 0 0 1 4.174 1.159 5.955 5.955 0 0 1 2.396 4.433c.206 3.526-2.853 7.454-6.762 7.036m1.897-18.98c-5.925-.403-11.756 3-13.69 8.78-1.721 5.142.46 10.503 4.512 13.628a13.139 13.139 0 0 0 3.993 2.108c3.358 1.084 6.903 1.308 9.967-.661 3.332-2.142 6.004-6.513 6.357-10.493.599-6.772-4.187-12.889-11.139-13.362"/>
            <path fill="#FFD200" d="M94.681 232.329c-3.184.448-6.108-1.765-6.532-4.904-.432-3.138 1.291-6.16 4.493-6.852 3.106-.68 6.358 1.44 7 4.8.448 3.376-1.778 6.508-4.96 6.956"/>
        </g>
    </g>
</svg>
