<svg xmlns="http://www.w3.org/2000/svg" xmlns:xlink="http://www.w3.org/1999/xlink" width="302" height="91" viewBox="0 0 302 91">
    <defs>
        <path id="a" d="M0 0h302v91H0z"/>
    </defs>
    <g fill="none" fill-rule="evenodd">
        <mask id="b" fill="#fff">
            <use xlink:href="#a"/>
        </mask>
        <use fill="#FFF" fill-rule="nonzero" xlink:href="#a"/>
        <g fill="#000" mask="url(#b)" opacity=".04">
            <path d="M8.544 25.395l-.86 7-.777 7.124a419.637 419.637 0 0 0-.67 8.251C5.4 58.986 5.111 69.882 5.111 69.882s-2.505-1.04-6.231-2.408c-3.741-1.39-8.79-3.199-13.937-4.924-5.13-1.714-10.407-3.414-14.323-4.535-3.938-1.098-6.563-1.828-6.563-1.828l1.813-1.466a99.254 99.254 0 0 1 4.855-3.758c4.098-3.002 9.5-7.097 15.052-10.966 5.625-3.759 11.259-7.509 15.518-10.261l7.249-4.34"/>
            <path d="M29.076 52.772l-.557 7.01c-.136 2.088-.296 4.521-.468 7.13-.133 2.63-.231 5.46-.317 8.255-.358 11.22-.173 22.092-.173 22.092s-2.407-1.156-5.989-2.69A442.524 442.524 0 0 0 8.16 89.028C3.22 87.089-1.875 85.16-5.655 83.87l-6.334-2.108 1.673-1.382a85.399 85.399 0 0 1 4.482-3.54c3.787-2.818 8.77-6.682 13.895-10.326 5.197-3.53 10.393-7.066 14.322-9.663l6.693-4.08M45.756 86.992l-.247 6.482-.153 6.585c-.017 2.43.006 5.044.042 7.625.129 10.361.788 20.373.788 20.373s-2.284-1.177-5.684-2.755a423.63 423.63 0 0 0-12.752-5.723c-4.703-2.009-9.56-4.013-13.164-5.368l-6.042-2.22s.55-.435 1.515-1.194a71.644 71.644 0 0 1 4.061-3.053c3.438-2.424 7.949-5.763 12.591-8.908 4.719-3.03 9.438-6.06 12.977-8.334l6.068-3.51M46.186-32.78l-.576 1.898c-.365 1.208-.887 2.915-1.463 5.04A566.915 566.915 0 0 0 40.13-10.47a544.23 544.23 0 0 0-3.513 15.193l-1.362 6.984S25.6 6.793 15.422 2.231L11.62.537 7.95-1.002 1.367-3.674l-6.511-2.54 7.767-4.647c2.31-1.432 5.118-2.893 8.098-4.512l9.369-5.009c1.605-.832 3.18-1.725 4.788-2.485l4.71-2.253 8.37-3.955c2.456-1.141 4.49-2.123 5.94-2.746l2.288-.958"/>
            <path d="M59.875-1.981l-.494 1.9c-.312 1.21-.758 2.92-1.243 5.047a549.68 549.68 0 0 0-3.353 15.382A523.607 523.607 0 0 0 51.94 35.53l-1.061 6.976s-9.265-5.29-19.075-10.239L28.14 30.43c-1.205-.57-2.39-1.132-3.537-1.677l-6.349-2.919-6.287-2.783 7.25-4.382c2.153-1.355 4.777-2.724 7.56-4.248l8.744-4.721c1.498-.784 2.964-1.632 4.467-2.344l4.398-2.118 7.81-3.726c2.293-1.076 4.19-2.006 5.543-2.591l2.137-.901M96.552 25.395l-5.488-3.923c-3.32-2.343-7.835-5.476-12.388-8.343-9.11-5.856-18.801-11.433-18.801-11.433l7.878-3.114 8.09-3.155 9.423-3.216 9.44-3.162c3.04-.926 5.9-1.713 8.343-2.417l8.156-2.301s-4.292 10.3-7.953 20.468c-1.868 5.03-3.523 10.308-4.737 14.156l-1.963 6.44M165.958-25.935l-3.534 6.327-3.503 6.477c-1.257 2.391-2.561 5.016-3.842 7.598-5.152 10.372-9.646 20.662-9.646 20.662l-1.387-1.365a154.048 154.048 0 0 0-3.683-3.526A498.45 498.45 0 0 0 128.861-.168a516.897 516.897 0 0 0-12.043-10.24c-3.341-2.696-5.613-4.438-5.613-4.438l2.313-.665c1.463-.46 3.598-.927 6.146-1.552l8.719-2.074c1.596-.375 3.246-.761 4.922-1.153l2.533-.58 2.571-.486c6.868-1.278 13.74-2.562 18.904-3.425l8.645-1.154M220.711-29.357s-6.884 9.323-13.13 18.681c-3.142 4.707-6.159 9.294-8.358 12.934l-3.617 6.027S188.792-.405 181.34-9c-3.706-4.305-7.523-8.338-10.453-11.461l-4.928-5.141 8.53-1.102c1.28-.148 2.664-.37 4.133-.488l4.627-.381 10.058-.788 5.11-.38c1.685-.116 3.344-.122 4.95-.183 3.212-.086 6.21-.168 8.78-.238l8.565-.194"/>
            <path d="M275.464-25.603l-4.93 5.14c-2.928 3.124-6.746 7.157-10.452 11.462-7.452 8.597-14.266 17.286-14.266 17.286l-3.617-6.027c-2.2-3.64-5.216-8.227-8.357-12.934-6.248-9.358-13.131-18.681-13.131-18.681l8.566.194 8.779.238c1.606.06 3.265.067 4.95.182l5.11.381 10.058.788 4.626.38c1.47.119 2.854.34 4.135.489l8.529 1.102"/>
            <path d="M326.795-14.846s-2.273 1.742-5.613 4.439A516.774 516.774 0 0 0 309.138-.168a500.494 500.494 0 0 0-11.502 10.406 153.702 153.702 0 0 0-3.682 3.526l-1.387 1.365s-4.494-10.29-9.647-20.662c-1.281-2.582-2.585-5.207-3.841-7.598l-3.504-6.477-3.533-6.327s3.458.46 8.644 1.154c5.165.863 12.037 2.147 18.905 3.425l2.57.486 2.534.58c1.676.392 3.326.778 4.921 1.153l8.72 2.074c2.548.625 4.683 1.094 6.146 1.552l2.313.665M73.563 32.24l-.41 1.757c-.256 1.118-.627 2.696-1.019 4.664a451.856 451.856 0 0 0-2.675 14.21 435.46 435.46 0 0 0-2.168 14.002l-.753 6.431s-8.886-5.245-18.334-10.186l-3.53-1.836-3.407-1.681-6.122-2.933-6.069-2.803 6.732-3.79c1.997-1.177 4.437-2.352 7.021-3.667 2.592-1.302 5.357-2.69 8.12-4.08 1.39-.676 2.751-1.415 4.147-2.028l4.086-1.824 7.252-3.218c2.129-.93 3.887-1.739 5.145-2.244l1.984-.774M108.781 56.194l-5.25-4.11c-3.18-2.453-7.51-5.737-11.88-8.757-8.743-6.158-18.088-12.054-18.088-12.054l7.356-2.89 7.547-2.941 8.797-2.983 8.81-2.948c2.836-.859 5.508-1.584 7.788-2.24l7.61-2.142s-3.808 10.32-6.978 20.485c-1.623 5.029-3.03 10.307-4.06 14.148-.99 3.86-1.652 6.432-1.652 6.432M169.38 4.863l-3.03 6.337-2.992 6.483c-1.07 2.393-2.177 5.02-3.262 7.601-4.365 10.374-8.107 20.644-8.107 20.644l-1.23-1.4a150.186 150.186 0 0 0-3.271-3.616 459.39 459.39 0 0 0-10.236-10.691 479.678 479.678 0 0 0-10.757-10.54 294.325 294.325 0 0 0-5.024-4.579l2.023-.618c1.278-.428 3.148-.854 5.377-1.43l7.629-1.912 4.304-1.07c.735-.177 1.473-.358 2.216-.54l2.25-.443c6.012-1.17 12.023-2.364 16.542-3.167l7.568-1.059M220.711 1.441s-6.46 9.343-12.266 18.7c-2.923 4.707-5.718 9.29-7.748 12.926l-3.332 6.017s-6.384-8.745-13.424-17.417c-3.5-4.343-7.109-8.417-9.885-11.574-2.805-3.12-4.676-5.198-4.676-5.198l7.99-1.016c1.201-.135 2.496-.345 3.875-.451l4.336-.343 9.428-.722c1.605-.12 3.21-.24 4.79-.356 1.58-.108 3.137-.108 4.643-.162l8.235-.216 8.034-.188"/>
            <path d="M272.042 4.895l-4.676 5.198c-2.776 3.157-6.386 7.232-9.886 11.574-7.039 8.672-13.423 17.417-13.423 17.417l-3.332-6.017c-2.029-3.635-4.826-8.218-7.747-12.924-5.807-9.358-12.267-18.702-12.267-18.702l8.034.189 8.235.215c1.506.055 3.064.055 4.643.163 1.581.117 3.185.235 4.79.355l9.427.722 4.337.344c1.38.106 2.675.315 3.874.451l7.99 1.015"/>
            <path d="M316.529 15.102s-2.036 1.798-5.024 4.579a477.795 477.795 0 0 0-10.757 10.54 459.456 459.456 0 0 0-10.236 10.69 152.157 152.157 0 0 0-3.27 3.617l-1.23 1.4s-3.742-10.27-8.108-20.643c-1.084-2.582-2.192-5.21-3.263-7.602l-2.99-6.483-3.031-6.337 7.568 1.06c4.519.802 10.53 1.996 16.542 3.167l2.25.443 2.215.54 4.304 1.068 7.629 1.915c2.23.575 4.099 1 5.377 1.43l2.024.616M87.251 63.038l-.322 1.76c-.203 1.119-.495 2.7-.793 4.67a436.134 436.134 0 0 0-1.98 14.22 415.64 415.64 0 0 0-1.473 13.992c-.295 3.86-.436 6.423-.436 6.423s-8.517-5.624-17.616-10.956l-3.4-1.982-3.282-1.82-5.903-3.184-5.86-3.048L52.4 79.59c1.84-1.099 4.099-2.18 6.485-3.4l7.495-3.788c1.284-.628 2.536-1.321 3.826-1.887l3.774-1.687 6.694-2.987c1.964-.864 3.584-1.62 4.745-2.087l1.833-.716M121.057 90.414l-5.02-4.3c-3.042-2.568-7.191-6.01-11.385-9.185-8.39-6.472-17.401-12.696-17.401-12.696l6.832-2.661 7.006-2.721 8.172-2.74 8.177-2.725c2.634-.79 5.117-1.453 7.233-2.057l7.067-1.98s-3.315 10.342-5.983 20.504c-1.372 5.027-2.525 10.304-3.364 14.14l-1.334 6.421"/>
            <path d="M172.802 42.506l-2.743 5.818-2.696 5.948c-.962 2.195-1.951 4.604-2.918 6.971-3.896 9.51-7.156 18.905-7.156 18.905s-.423-.477-1.161-1.314a147.15 147.15 0 0 0-3.09-3.4 420.1 420.1 0 0 0-9.697-10.066c-3.62-3.639-7.368-7.25-10.234-9.942-2.848-2.627-4.791-4.33-4.791-4.33l1.876-.52c1.186-.365 2.924-.715 4.994-1.197l7.083-1.604 3.994-.901 2.057-.457 2.09-.368c5.585-.973 11.164-1.983 15.36-2.662 4.22-.53 7.032-.881 7.032-.881M217.289 39.084s-5.604 9.363-10.586 18.72c-2.508 4.707-4.898 9.285-6.623 12.915l-2.827 6.007s-5.528-8.799-11.683-17.55c-3.06-4.38-6.22-8.496-8.658-11.686l-4.11-5.256 6.92-.927c1.039-.124 2.16-.32 3.355-.414l3.758-.306 8.17-.657c1.39-.11 2.78-.22 4.149-.33 1.37-.1 2.721-.093 4.026-.143l7.142-.192c4.18-.11 6.967-.181 6.967-.181M261.776 42.234l-4.11 5.256c-2.438 3.19-5.599 7.306-8.657 11.687-6.156 8.75-11.683 17.55-11.683 17.55l-2.828-6.008c-1.725-3.63-4.114-8.209-6.622-12.916-4.982-9.355-10.587-18.72-10.587-18.72s2.787.074 6.967.182l7.142.193c1.306.05 2.658.042 4.026.142 1.368.11 2.76.22 4.15.33l8.169.657c1.303.106 2.563.21 3.758.306 1.195.094 2.316.29 3.355.414l6.92.927M309.684 51.096s-1.943 1.703-4.79 4.33a440.197 440.197 0 0 0-10.235 9.942 418.019 418.019 0 0 0-9.696 10.066 145.369 145.369 0 0 0-3.09 3.4l-1.162 1.314s-3.26-9.394-7.156-18.905c-.967-2.367-1.956-4.776-2.918-6.971l-2.695-5.948-2.744-5.818 7.031.88c4.197.68 9.776 1.69 15.36 2.663l2.092.368 2.056.457 3.995.901 7.081 1.604c2.071.482 3.81.832 4.994 1.196l1.877.521M133.398 128.057l-4.797-4.498c-2.911-2.688-6.888-6.29-10.913-9.628-8.05-6.796-16.749-13.362-16.749-13.362s2.523-.97 6.31-2.423c1.89-.73 4.099-1.58 6.463-2.491 2.408-.796 4.977-1.643 7.546-2.491l7.544-2.496c2.433-.717 4.726-1.316 6.68-1.867l6.522-1.809s-2.81 10.362-4.958 20.522c-1.115 5.025-2.005 10.3-2.646 14.132-.6 3.846-1.002 6.411-1.002 6.411M183.068 76.726l-2.453 5.828-2.395 5.954c-.85 2.196-1.72 4.607-2.568 6.973-3.416 9.513-6.183 18.888-6.183 18.888l-1.093-1.348a146.76 146.76 0 0 0-2.912-3.485 395.465 395.465 0 0 0-9.169-10.335 414.693 414.693 0 0 0-9.726-10.23c-2.711-2.708-4.565-4.465-4.565-4.465l1.73-.475c1.093-.337 2.7-.644 4.61-1.08l6.537-1.45 3.685-.823c.628-.137 1.26-.277 1.897-.417l1.93-.329 14.18-2.416 6.495-.79"/>
            <path d="M217.289 76.726s-5.18 9.383-9.72 18.739c-2.288 4.706-4.457 9.282-6.01 12.906-1.526 3.598-2.542 5.998-2.542 5.998s-5.097-8.856-10.84-17.682c-2.854-4.42-5.808-8.577-8.094-11.8l-3.859-5.314 6.381-.84c.959-.111 1.99-.295 3.094-.376l3.469-.269 7.54-.591 3.83-.304c1.263-.093 2.512-.079 3.718-.123l6.597-.17 6.436-.174M261.776 79.573l-3.859 5.313c-2.287 3.224-5.24 7.383-8.093 11.8-5.744 8.827-10.84 17.683-10.84 17.683l-2.542-5.997c-1.554-3.625-3.723-8.2-6.01-12.907-4.54-9.355-9.721-18.739-9.721-18.739l6.436.174 6.597.17c1.205.044 2.455.031 3.719.123l3.83.305 7.538.59 3.469.269c1.104.081 2.136.265 3.095.377l6.38.839M302.84 84.506s-1.854 1.757-4.564 4.464a414.433 414.433 0 0 0-9.727 10.23 399.121 399.121 0 0 0-9.17 10.336 146.329 146.329 0 0 0-2.91 3.485l-1.095 1.348s-2.766-9.375-6.182-18.888c-.847-2.366-1.717-4.777-2.568-6.973l-2.395-5.954c-1.473-3.496-2.453-5.828-2.453-5.828l6.495.79 14.18 2.416 1.93.33 1.897.416 3.686.823c2.392.53 4.623 1.026 6.536 1.451 1.912.435 3.517.742 4.61 1.08l1.73.474"/>
            <path d="M337.06 100.57s-8.699 6.564-16.75 13.361c-4.022 3.336-8 6.939-10.91 9.627l-4.798 4.499-1.002-6.412c-.64-3.83-1.531-9.106-2.646-14.13-2.149-10.16-4.958-20.523-4.958-20.523s2.609.723 6.521 1.81c1.955.55 4.248 1.149 6.68 1.867l7.546 2.495 7.545 2.491 6.464 2.491 6.309 2.423"/>
        </g>
    </g>
</svg>
