<svg width="375" height="71" viewBox="0 0 375 71" xmlns="http://www.w3.org/2000/svg" xmlns:xlink="http://www.w3.org/1999/xlink">
    <defs>
        <path id="uhhqyxsfja" d="M.588.25h120.333v37.001H.588z"/>
    </defs>
    <g fill="none" fill-rule="evenodd">
        <path fill="#FFF" d="M0 70.939h375v-70H0z"/>
        <path d="M36.143 9.34s-3.547 1.968-2.064 7.67c1.482 5.701-1.298 9.382-9.79 12.63-8.488 3.245-16 16.653-7.31 23.116 8.69 6.462 24.26 2.984 28.839 2.547 4.577-.438 12.063-1.67 21.13 3.79 9.067 5.462 22.785 9.805 36.446 4.965 13.66-4.84 30.544-3.51 51.66 1.477 21.118 4.99 37.372-1.94 37.372-1.94s16.194-7.383 37.066-2.464c20.873 4.918 36.197 6.135 52.205.58 16.008-5.555 33.202-1.08 36.264-.54 3.062.54 33.14 5.044 41.773-4.813 8.63-9.858-11.498-9.539-11.04-17.487.459-7.949 10.013-25.778-4.59-28.859-14.602-3.08-43.532 10.11-64.016 6.086-20.483-4.024-16.232-12.008-49.53-7.422-33.298 4.587-46.02 9.223-60.33 7.271-14.311-1.95-29.694-16.47-58.197-7.135-6.7 2.194-36.093 4.772-55.424-1.139-7.318-2.237-18.215-1.742-20.464 1.666" fill="#FFCC9E"/>
        <path d="M309.18 11.347c11.525.17 22.512-5.896 34.027-5.42 3.166.132 6.45.827 8.898 2.841 2.447 2.014 3.79 5.605 2.468 8.485M13.967 33.37c.222-2.814 2.914-4.779 5.559-5.759 2.645-.979 5.562-1.42 7.839-3.085 2.106-1.539 3.444-4.078 3.524-6.684M188.817 67.885c8.828-4.22 18.897-5.209 28.668-4.675 9.77.533 19.395 2.513 29.072 3.96" stroke="#FF7900" stroke-width="2" stroke-linecap="round" stroke-linejoin="round"/>
        <g transform="translate(130 15.829)">
            <mask id="7ctat6hedb" fill="#fff">
                <use xlink:href="#uhhqyxsfja"/>
            </mask>
            <path d="M124.588 42.75c0 23.472-29.997 42.5-67 42.5-37.004 0-67-19.028-67-42.5 0-23.473 29.996-42.5 67-42.5 37.003 0 67 19.027 67 42.5z" stroke="#FFF" stroke-width="1.5" stroke-linecap="round" stroke-dasharray="6.006,6.006" mask="url(#7ctat6hedb)"/>
        </g>
        <g>
            <path d="M323.702 18.106c2.562 0 4.674 2.184 4.674 4.745 0-2.561 2.112-4.745 4.674-4.745-2.562 0-4.674-2.184-4.674-4.746 0 2.562-2.112 4.746-4.674 4.746z" stroke="#FF7900"/>
            <path d="M157.87 41.439c2.561 0 4.673 2.184 4.673 4.745 0-2.561 2.112-4.745 4.674-4.745-2.562 0-4.674-2.184-4.674-4.745 0 2.56-2.112 4.745-4.674 4.745zM90.414 56.245c2.562 0 4.674 2.184 4.674 4.745 0-2.56 2.112-4.745 4.674-4.745-2.562 0-4.674-2.183-4.674-4.744 0 2.56-2.112 4.745-4.674 4.745zM85.667 10.565l2.182 2.181M89.421 14.319l2.182 2.181M85.667 16.499l2.182-2.181M89.421 12.746l2.182-2.181M289.152 51.477l2.181 2.182M292.906 55.231l2.182 2.182M289.152 57.413l2.181-2.183M292.906 53.659l2.182-2.182M203.318 44.81l2.182 2.182M207.073 48.565l2.181 2.181M203.318 50.745l2.182-2.18M207.073 46.992l2.181-2.182" stroke="#FFF"/>
            <path d="m228.626 17.81-2.63-2.084c-.528-.42-1.252-.516-1.767 0-.435.435-.533 1.347 0 1.768l2.629 2.084c.529.419 1.252.515 1.768 0 .436-.435.532-1.346 0-1.768M235.126 15.796l-1.182-3.696c-.487-1.527-2.902-.874-2.41.665l1.182 3.696c.487 1.526 2.902.874 2.41-.665M224.175 28.383l-3.58-.388c-.672-.072-1.25.627-1.25 1.25 0 .737.576 1.178 1.25 1.25 1.193.13 2.387.26 3.58.388.672.072 1.25-.627 1.25-1.25 0-.736-.576-1.178-1.25-1.25" fill="#FFF"/>
            <path d="M343.231 52.245c2.792 0 5.095 2.382 5.095 5.174 0-2.792 2.302-5.173 5.094-5.173-2.792 0-5.094-2.38-5.094-5.172 0 2.791-2.303 5.172-5.095 5.172zM52.662 30.745c2.675 0 4.88 2.28 4.88 4.954 0-2.673 2.205-4.953 4.88-4.953-2.675 0-4.88-2.28-4.88-4.953 0 2.674-2.205 4.953-4.88 4.953z" stroke="#FF7900"/>
            <path stroke="#FFB4E6" d="m23.61 45.606 2.276 2.277M27.529 49.525l2.276 2.277M23.61 51.802l2.276-2.277M27.529 47.883l2.276-2.277M352.502 25.326l2.277 2.277M356.421 29.245l2.277 2.278M352.502 31.523l2.277-2.277M356.421 27.604l2.277-2.277"/>
            <path d="m236.42 22.58-3.666 8.832 14 21.167 13-9.167z"/>
            <path d="m140.297 58.642-26.214 7.024a2.054 2.054 0 0 1-2.51-1.448L99.048 17.466a2.055 2.055 0 0 1 1.448-2.51l26.214-7.022a2.054 2.054 0 0 1 2.509 1.448l12.527 46.752a2.053 2.053 0 0 1-1.448 2.508" fill="#FF7900"/>
            <path d="m140.297 58.642-26.214 7.024a2.054 2.054 0 0 1-2.51-1.448L99.048 17.466a2.055 2.055 0 0 1 1.448-2.51l26.214-7.022a2.054 2.054 0 0 1 2.509 1.448l12.527 46.752a2.053 2.053 0 0 1-1.448 2.508z" stroke="#000" stroke-width="1.5" stroke-linecap="round" stroke-linejoin="round"/>
            <path d="m140.297 58.642-26.214 7.024a2.054 2.054 0 0 1-2.51-1.448L99.048 17.466a2.055 2.055 0 0 1 1.448-2.51l26.214-7.022a2.054 2.054 0 0 1 2.509 1.448l12.527 46.752a2.053 2.053 0 0 1-1.448 2.508z" stroke="#000" stroke-width="2"/>
            <path fill="#000" d="m138.148 46.5-28.276 7.576L113 65.75l28.276-7.577z"/>
            <path d="M128.956 55.898a3.325 3.325 0 1 1-6.425 1.722 3.327 3.327 0 0 1 6.425-1.722" fill="#FFF"/>
            <path d="M128.956 55.898a3.325 3.325 0 1 1-6.425 1.722 3.327 3.327 0 0 1 6.425-1.722z" stroke="#FFF" stroke-width=".5"/>
            <path d="m250.183 28.297-16.237-4.352a3.413 3.413 0 0 0-1.767 6.594l8.278 2.218-16.897 9.757a3.413 3.413 0 0 0 3.413 5.911l16.898-9.756-2.218 8.278a3.413 3.413 0 1 0 6.593 1.767l4.35-16.237a3.412 3.412 0 0 0-2.413-4.18" fill="#000"/>
            <path d="m253.955 53.778 16.237 4.35a3.414 3.414 0 0 0 1.768-6.592l-8.279-2.22 16.897-9.755a3.413 3.413 0 1 0-3.412-5.911l-16.899 9.756 2.22-8.278a3.414 3.414 0 1 0-6.595-1.767l-4.35 16.237a3.413 3.413 0 0 0 2.413 4.18" fill="#FF7900"/>
        </g>
    </g>
</svg>
