<svg xmlns="http://www.w3.org/2000/svg" xmlns:xlink="http://www.w3.org/1999/xlink" width="80" height="80" viewBox="0 0 80 80">
    <defs>
        <path id="a" d="M0 .022h3.35v20.232H0z"/>
        <path id="c" d="M.078.048h6.36v1.304H.077z"/>
        <path id="e" d="M.048.033h47.986v4.492H.048z"/>
    </defs>
    <g fill="none" fill-rule="evenodd">
        <path fill="#EE8031" d="M45.634 59.64c-5.776.375-11.642-1.123-16.59-4.123-5.138-3.114-9.36-7.99-10.89-13.795-.58-2.195-.772-4.472-.873-6.739-.221-4.752-.027-9.691 2.057-13.968a18.748 18.748 0 0 1 2.332-3.62c.099-.123.202-.24.304-.36-.164.14-.33.28-.49.425-.09.079-.18.16-.268.245a23.927 23.927 0 0 0-2.423 2.562 18.745 18.745 0 0 0-2.332 3.621c-2.084 4.276-2.278 9.215-2.057 13.968.102 2.267.294 4.544.873 6.74 1.53 5.804 5.753 10.68 10.89 13.794 4.948 3 10.814 4.498 16.59 4.124 5.777-.375 11.43-2.638 15.791-6.438a24.967 24.967 0 0 0 2.58-2.62c-4.32 3.647-9.847 5.818-15.494 6.185"/>
        <path fill="#4BB4E6" d="M43.895 6.489c-1.108-.69-2.773-.52-4.02-.453-1.446.078-2.89.26-4.311.533a29.681 29.681 0 0 0-8.414 2.968c-4.958 2.653-9.081 6.584-12.015 11.378a30.118 30.118 0 0 0-2.061 4.003c-.577 1.367-1.263 2.878-1.3 4.382-.006.29.41.403.55.148.586-1.06.872-2.271 1.331-3.39a30.848 30.848 0 0 1 1.84-3.734 29.348 29.348 0 0 1 4.795-6.196c3.966-3.923 8.997-6.587 14.423-7.855a29.449 29.449 0 0 1 4.843-.719c1.382-.087 3.053.172 4.339-.395.281-.124.224-.53 0-.67M67.23 47.308c-.02-.199-.243-.317-.401-.167-.95.9-1.401 2.479-2.041 3.616a28.455 28.455 0 0 1-2.539 3.767 26.87 26.87 0 0 1-6.374 5.811c-2.659 1.723-5.64 2.911-8.733 3.586a27.652 27.652 0 0 1-7.243.598c-.811-.041-1.62-.209-2.417-.004-.464.12-.551.787-.134 1.022 1.323.744 3.356.547 4.829.499a27.778 27.778 0 0 0 5.036-.633 28.087 28.087 0 0 0 9.329-3.93 28.133 28.133 0 0 0 6.797-6.274 26.373 26.373 0 0 0 2.48-3.84c.606-1.14 1.554-2.72 1.412-4.051"/>
        <path fill="#44ADAC" d="M60.537 14.085c-1.597-2.029-4.08-3.647-6.353-4.814a29.63 29.63 0 0 0-3.528-1.53c-1.06-.381-2.496-.996-3.629-.678-.208.059-.314.357-.135.51.792.678 2.035.864 3 1.214a21.68 21.68 0 0 1 3.587 1.688 26.395 26.395 0 0 1 3.12 2.142c1.003.803 1.867 1.733 2.829 2.576.775.68 1.724-.326 1.109-1.108M35.008 63.642c-1.344-.288-2.762-.23-4.124-.508a21.43 21.43 0 0 1-4.155-1.282c-2.6-1.115-4.878-2.821-7.108-4.532-.273-.209-.627.19-.459.458 1.626 2.587 4.186 4.405 6.933 5.672 1.379.636 2.81 1.147 4.294 1.478 1.433.32 3.162.669 4.62.394.843-.159.82-1.505 0-1.68"/>
        <path fill="#50BE87" d="M53.998 5.842c-.263-1.332-2.442-1.813-3.54-2.154a27.009 27.009 0 0 0-4.888-1.011 26.015 26.015 0 0 0-4.911-.105c-1.482.109-3.366.154-4.592 1.083-.262.198-.3.704.102.782.324.064.655.087.99.087-.004.071.04.145.131.145.094 0 .136-.077.13-.15 1.026-.037 2.078-.273 3.075-.325a24.988 24.988 0 0 1 4.84.213c1.515.219 3.01.58 4.46 1.067 1.107.371 2.823 1.492 3.986.901.196-.1.257-.335.217-.533M45.422 68.772c-1.416-.408-3.016-.19-4.477-.22a33.693 33.693 0 0 1-4.599-.393 39.328 39.328 0 0 1-4.424-.954c-1.5-.42-2.965-.99-4.503-1.256-.425-.073-.913.486-.481.826 2.465 1.943 6.036 2.727 9.087 3.176 1.628.239 3.273.388 4.92.396 1.502.008 3.246.027 4.59-.712.363-.2.27-.753-.113-.863M17.193 53.697c-.155-.76-.833-1.34-1.282-1.946a21.72 21.72 0 0 1-3.38-6.846c-.963-3.315-1.044-6.672-.744-10.086.036-.402-.576-.456-.685-.092-1.038 3.437-.793 7.251.18 10.675a23.185 23.185 0 0 0 2.048 4.945c.433.775.912 1.525 1.437 2.242.489.667.976 1.474 1.795 1.737.396.128.705-.268.631-.63M69.796 30.095c-.903-3.641-2.632-7.824-5.638-10.242-.163-.132-.405.029-.299.23.868 1.639 1.906 3.167 2.706 4.849a27.617 27.617 0 0 1 1.961 5.513c.437 1.848.676 3.74.694 5.64.008.903-.03 1.807-.12 2.705-.092.929-.37 1.864-.167 2.792.086.396.591.382.792.103.532-.742.58-1.712.678-2.595.111-.997.161-2.001.152-3.004a26.028 26.028 0 0 0-.76-5.99"/>
        <path fill="#FFD200" d="M68.448 18.08c-.535-1.058-1.19-2.064-1.901-3.012-1.331-1.776-2.994-3.68-5.063-4.592-.33-.146-.836.19-.565.563 1.288 1.779 3.073 3.143 4.365 4.944.634.884 1.19 1.813 1.698 2.774.44.833.828 1.939 1.63 2.485.215.146.53-.001.591-.24.249-.969-.326-2.073-.755-2.922M21.242 63.325c-.768-1.149-2.233-1.896-3.261-2.81a28.406 28.406 0 0 1-3.192-3.34 32.573 32.573 0 0 1-2.6-3.752c-.787-1.31-1.408-2.735-2.263-3.999-.18-.266-.714-.204-.673.182.324 3.021 2.267 6.032 4.101 8.372a28.832 28.832 0 0 0 3.238 3.502c1.06.969 2.492 2.47 3.958 2.745.482.09 1.014-.42.692-.9M13.25 18.802c-1.23.664-2.04 2.122-2.705 3.297a22.72 22.72 0 0 0-1.731 3.834 22.458 22.458 0 0 0-.98 4.219c-.172 1.272-.471 2.883.052 4.096.163.376.667.197.782-.102.457-1.185.28-2.693.493-3.948a22.872 22.872 0 0 1 1.031-3.886 22.454 22.454 0 0 1 1.745-3.76c.63-1.077 1.534-2.086 1.919-3.285.114-.356-.303-.63-.606-.465M73.673 39.06c-.048-.469-.804-.672-.902-.121-.497 2.789-.999 5.591-1.83 8.304a33.052 33.052 0 0 1-1.58 4.095c-.552 1.203-1.376 2.435-1.568 3.757-.038.266.22.55.493.378 1.17-.738 1.865-2.115 2.482-3.313.682-1.329 1.246-2.735 1.724-4.15.975-2.884 1.487-5.91 1.18-8.95"/>
        <path fill="#EE8031" d="M71.66 26.054c-.326-.916-.644-1.86-1.127-2.708-.228-.4-.74-.104-.686.289.142 1.05.507 2.073.829 3.08.267.835.482 1.75 1.097 2.4.22.232.55.034.579-.24.1-.96-.375-1.931-.692-2.82M23.854 8.345c-.868.307-1.624.969-2.359 1.513-.8.591-1.588 1.203-2.348 1.846-1.602 1.354-2.977 2.82-4.289 4.448-.176.218.096.504.313.312 1.457-1.292 2.98-2.546 4.498-3.769a54.699 54.699 0 0 1 2.408-1.843c.747-.536 1.647-.981 2.275-1.652.327-.35.01-1.034-.498-.855M60.938 62.02c-.915.314-1.67.994-2.488 1.498a18.212 18.212 0 0 1-2.792 1.41c-1.86.744-3.92 1.175-5.881 1.532-.389.07-.255.611.087.643 2.242.209 4.326-.236 6.42-1.083 1.69-.684 4.186-1.738 5.095-3.427.151-.281-.103-.69-.44-.573M8.944 46.401a6.176 6.176 0 0 1-.576-1.591c-.087-.433 0-.96-.334-1.29a.255.255 0 0 0-.355 0c-.396.372-.217 1.038-.11 1.51.145.632.401 1.194.777 1.72.256.36.804.053.598-.349"/>
        <path fill="#FFB4E6" d="M76.612 33.895c-.226-2.55-.756-5.46-2.183-7.638-.228-.349-.762-.13-.67.282.566 2.535 1.396 4.906 1.6 7.523a24.3 24.3 0 0 1 .008 3.687c-.087 1.172-.458 2.404-.178 3.565.051.21.378.327.525.138.741-.953.804-2.202.903-3.369a24.17 24.17 0 0 0-.005-4.188M16.9 9.018c-1.265.395-2.437 1.477-3.391 2.362-1.031.957-1.966 2.026-2.826 3.137-1.712 2.21-3.202 4.69-3.8 7.432-.062.284.331.476.484.204 1.357-2.403 2.611-4.861 4.35-7.027a29.795 29.795 0 0 1 2.667-2.872c.944-.903 2.112-1.695 2.9-2.737.182-.24-.119-.582-.384-.499M27.744 70.547c-1.04-.787-2.204-1.172-3.395-1.689-1.215-.527-2.417-1.087-3.568-1.743-2.049-1.167-4.193-2.623-5.64-4.516-.23-.303-.75-.024-.526.308 1.421 2.1 3.107 3.778 5.29 5.097 1.22.737 2.503 1.37 3.811 1.934 1.276.55 2.472 1.087 3.863 1.218.362.034.39-.438.165-.609M33.362 2.217c-1.468-.943-3.78-.417-5.355 0-.872.231-1.719.56-2.531.95-.75.36-1.847.829-2.187 1.632-.099.233.01.547.31.537.708-.022 1.316-.501 1.94-.807a14.906 14.906 0 0 1 2.668-.99c.867-.235 1.742-.37 2.636-.45.829-.074 1.673-.046 2.452-.364.219-.09.282-.37.067-.508M66.749 60.264c-.013-.23-.274-.43-.492-.282-.712.484-1.129 1.285-1.602 1.987a18.058 18.058 0 0 1-1.919 2.4c-1.408 1.474-3.06 2.592-4.756 3.703-.458.3-.178 1.15.395.936 1.994-.743 3.742-2.06 5.222-3.57a19.236 19.236 0 0 0 1.997-2.409c.559-.795 1.21-1.757 1.155-2.765M58.703 6.918c-.441-.477-.982-.8-1.583-1.034-.583-.227-1.004.758-.429 1.016.563.253.97.62 1.396 1.054.246.25.78 1.05 1.157.55.325-.431-.252-1.273-.541-1.586"/>
        <path fill="#A885D8" d="M62.494 5.717a19.84 19.84 0 0 0-3.002-2.34C57.463 2.085 54.74.738 52.269.915c-.317.023-.534.508-.18.666 1.05.47 2.174.756 3.25 1.16a18.93 18.93 0 0 1 3.37 1.683 18.15 18.15 0 0 1 2.864 2.211c.78.738 1.466 1.913 2.482 2.308.222.086.508-.137.487-.37-.1-1.14-1.264-2.113-2.048-2.857M71.849 19.247c-.385-.41-1.079.112-.883.602.222.554.509 1.076.689 1.648.172.548.245 1.07.646 1.505.197.213.549.084.666-.135.574-1.068-.38-2.836-1.118-3.62"/>
        <g transform="translate(4 29.749)">
            <mask id="b" fill="#fff">
                <use xlink:href="#a"/>
            </mask>
            <path fill="#A885D8" d="M2.725 17.519a31.692 31.692 0 0 1-.649-2.242 30.09 30.09 0 0 1-.823-4.934C.989 7.048 1.173 3.57 1.836.328c.063-.31-.38-.436-.477-.131C.822 1.858.396 3.437.185 5.18a27.405 27.405 0 0 0-.102 5.33c.128 1.713.39 3.426.8 5.095.353 1.431.719 3.46 1.795 4.539.24.24.674.063.672-.278-.005-.819-.371-1.58-.625-2.347" mask="url(#b)"/>
        </g>
        <g transform="translate(38.882 .037)">
            <mask id="d" fill="#fff">
                <use xlink:href="#c"/>
            </mask>
            <path fill="#A885D8" d="M6.366.85C5.681.135 4.369.136 3.43.075 2.324.003 1.208.058.183.505c-.21.091-.069.357.102.378 1.043.132 2.099.058 3.145.143.89.072 1.954.503 2.825.245a.254.254 0 0 0 .111-.42" mask="url(#d)"/>
        </g>
        <path fill="#A885D8" d="M6.635 24.628c-.055-.192-.288-.46-.52-.43-.623.08-.727.706-.862 1.23-.123.478-.218 1.057.089 1.482.103.142.266.197.429.112.547-.283.692-.94.792-1.495.049-.274.152-.622.072-.9M51.602 70.53c-.763-.133-1.481.282-2.204.496-.946.28-1.916.526-2.89.686-.978.162-1.973.244-2.964.253-.901.009-1.82-.083-2.702.141-.219.056-.254.365-.063.476 1.605.932 3.974.611 5.724.348 1.037-.155 2.058-.389 3.042-.755.768-.286 1.773-.542 2.202-1.288.072-.125.013-.329-.145-.357M64.796 57.063c-.039-.163-.222-.21-.357-.145-.527.255-.785.766-1.112 1.22-.342.473-.765.853-.927 1.428-.066.233.15.402.364.364.664-.118 1.081-.656 1.466-1.169.375-.498.72-1.051.566-1.698M31.888 4.51c-.652-.036-1.221.223-1.804.484-.598.267-1.305.486-1.757.975-.218.235-.07.641.265.64.634 0 1.231-.333 1.804-.578.622-.267 1.248-.504 1.692-1.04.158-.189.057-.468-.2-.481M8.138 36.03c-.123-.144-.403-.144-.525 0-.358.422-.343 1.016-.344 1.546-.002.494.006 1.077.44 1.387a.322.322 0 0 0 .334 0c.432-.31.44-.894.439-1.387-.002-.53.014-1.124-.344-1.546"/>
        <path fill="#4BB4E6" d="M54.256 49.262c.808-.188 1.479-1.01 2.009-1.6a20.28 20.28 0 0 0 1.695-2.171 18.788 18.788 0 0 0 2.443-5.105 19.976 19.976 0 0 0-.595-13.215c-.356-.873-.727-1.858-1.387-2.55-.127-.133-.364.003-.313.18.213.738.63 1.41.926 2.118.341.812.625 1.65.853 2.501.434 1.617.64 3.26.633 4.932-.017 3.54-1.078 6.99-2.944 9.992a18.641 18.641 0 0 1-1.851 2.494c-.581.66-1.448 1.292-1.77 2.123-.071.181.138.339.301.3M25.43 41.399c.099.08.252.032.255-.106.022-.829-.485-1.74-.709-2.538a18.05 18.05 0 0 1-.554-2.83 17.02 17.02 0 0 1 .25-5.466c.419-1.965 1.223-3.835 2.308-5.525a17.496 17.496 0 0 1 2.983-3.515c.382-.345.82-.633 1.087-1.082.154-.261-.107-.6-.4-.519-.928.26-1.752 1.26-2.392 1.941a17.594 17.594 0 0 0-1.976 2.542 17.78 17.78 0 0 0-2.652 11.81c.12.962.326 1.91.612 2.836.241.784.525 1.918 1.188 2.452"/>
        <path fill="#44ADAC" d="M43.37 53.312c1.629.195 3.471-.192 5.016-.687a18.796 18.796 0 0 0 2.272-.894c.648-.305 1.568-.672 1.934-1.323.067-.12-.02-.301-.17-.29-.66.051-1.3.525-1.891.8-.764.357-1.553.639-2.37.85-.776.202-1.566.35-2.363.438-.811.09-1.618.059-2.428.112-.654.042-.627.92 0 .994M32.553 19.62c.732-.473 1.343-1.135 2.08-1.621a13.587 13.587 0 0 1 2.441-1.287c1.669-.665 3.458-.92 5.228-1.153.217-.028.196-.366 0-.41-1.892-.433-3.86-.102-5.662.561-.904.333-1.777.745-2.592 1.262-.787.499-1.72 1.117-2.251 1.894-.307.45.308 1.043.756.754"/>
        <path fill="#50BE87" d="M50.011 54.082c.717.48 1.912-.281 2.558-.62a17.135 17.135 0 0 0 2.649-1.738 16.482 16.482 0 0 0 2.252-2.155c.616-.713 1.441-1.578 1.574-2.545.029-.206-.182-.45-.397-.305a3.254 3.254 0 0 0-.484.405c-.03-.034-.083-.048-.124-.006-.042.042-.026.095.009.125-.443.477-.81 1.055-1.234 1.525a15.84 15.84 0 0 1-2.269 2.074 16.146 16.146 0 0 1-2.481 1.52c-.664.33-1.938.596-2.195 1.383-.043.132.036.265.142.337M25.571 21.986c.82-.452 1.44-1.268 2.109-1.909a21.35 21.35 0 0 1 2.241-1.885 24.943 24.943 0 0 1 2.416-1.555c.862-.484 1.776-.885 2.585-1.455.224-.158.192-.628-.155-.587-1.98.233-3.936 1.482-5.507 2.648a22.263 22.263 0 0 0-2.387 2.028c-.678.67-1.47 1.443-1.74 2.378-.074.252.217.458.438.337M45.021 16.098c.411.272.976.228 1.45.299a13.84 13.84 0 0 1 4.595 1.558c1.923 1.056 3.469 2.527 4.868 4.194.165.197.464-.053.35-.266-1.08-2.008-2.904-3.61-4.88-4.711a14.76 14.76 0 0 0-3.142-1.302 13.787 13.787 0 0 0-1.654-.362c-.52-.08-1.1-.224-1.587.024-.235.12-.195.437 0 .566M32.016 50.276c2.042 1.23 4.7 2.332 7.136 2.07.132-.014.168-.194.03-.237-1.126-.346-2.28-.567-3.394-.963a17.587 17.587 0 0 1-3.36-1.596 16.3 16.3 0 0 1-2.846-2.222c-.41-.401-.798-.824-1.162-1.267-.376-.458-.672-1.003-1.18-1.329-.217-.139-.438.094-.402.309.094.572.51 1.03.862 1.47.399.497.827.97 1.283 1.416a16.561 16.561 0 0 0 3.033 2.349"/>
        <path fill="#FFD200" d="M38.022 55.066a13 13 0 0 0 2.208.5c1.396.2 2.998.31 4.338-.209.213-.083.29-.46 0-.506-1.378-.22-2.793-.033-4.183-.262a15.238 15.238 0 0 1-2.009-.485c-.572-.176-1.243-.499-1.849-.384-.162.03-.237.238-.157.372.324.547 1.078.785 1.652.974M38.875 13.59c.861.172 1.855-.15 2.727-.2.978-.057 1.96-.033 2.935.069.963.101 1.915.284 2.853.518.943.235 1.863.597 2.814.781.201.039.413-.228.22-.383-1.503-1.212-3.729-1.692-5.604-1.92a18.355 18.355 0 0 0-3.028-.12c-.911.04-2.23.008-3.01.541-.258.176-.268.643.093.715M62.478 29.995c.254-.848-.038-1.867-.268-2.692-.238-.857-.553-1.7-.946-2.498-.406-.823-.901-1.602-1.457-2.333-.494-.648-1.084-1.506-1.865-1.815-.242-.096-.388.21-.305.396.328.737 1.085 1.334 1.554 1.993.493.696.92 1.436 1.283 2.207.377.796.684 1.618.907 2.47.202.766.25 1.625.616 2.335.11.211.419.147.481-.063M26.245 47.989c.233.19.663-.058.46-.35-1.031-1.474-2.065-2.957-2.912-4.548a20.994 20.994 0 0 1-1.131-2.547c-.294-.787-.477-1.71-.986-2.39-.102-.135-.346-.147-.39.052-.194.856.113 1.786.375 2.6.29.903.67 1.787 1.09 2.636.86 1.732 1.99 3.32 3.494 4.547"/>
        <path fill="#EE8031" d="M32.996 52.926c.558.265 1.126.546 1.723.71.282.078.38-.285.178-.437-.536-.408-1.159-.703-1.756-1.011-.496-.255-1.003-.57-1.572-.586-.203-.005-.262.232-.152.367.387.477 1.037.7 1.579.957M62.419 39.444c.251-.527.293-1.163.379-1.737.093-.624.172-1.252.224-1.881.11-1.326.069-2.6-.075-3.92-.019-.177-.27-.183-.28 0a79.61 79.61 0 0 1-.325 3.709 34.72 34.72 0 0 1-.253 1.907c-.094.575-.298 1.178-.278 1.761.01.304.46.469.608.16M21.64 31.973c.27-.552.304-1.196.445-1.789.152-.642.358-1.276.619-1.884.501-1.168 1.232-2.285 1.951-3.324.143-.206-.16-.389-.328-.25-1.1.912-1.835 2.046-2.394 3.364-.452 1.066-1.099 2.657-.747 3.824.058.193.355.263.455.06M52.004 15.675c.34.109.676.258.974.456.233.155.431.43.73.429a.162.162 0 0 0 .159-.159c.01-.344-.369-.563-.63-.726a2.998 2.998 0 0 0-1.121-.425c-.277-.046-.385.337-.112.425"/>
        <path fill="#FFB4E6" d="M27.248 51.626c1.248 1.043 2.794 2.112 4.414 2.45.259.054.4-.284.174-.427-1.394-.884-2.833-1.577-4.1-2.66a15.442 15.442 0 0 1-1.662-1.652c-.488-.565-.874-1.284-1.522-1.68-.118-.071-.317.023-.298.174.095.76.63 1.349 1.109 1.917a15.368 15.368 0 0 0 1.885 1.878M65.238 36.024c.39-.744.43-1.755.46-2.58a16.41 16.41 0 0 0-.141-2.676c-.225-1.76-.67-3.54-1.635-5.04-.1-.155-.363-.065-.31.126.472 1.686 1.014 3.353 1.207 5.104.091.827.112 1.654.094 2.486-.018.828-.187 1.707-.072 2.528.027.19.315.208.397.052M32.71 13.263c.82-.113 1.516-.462 2.283-.764a23.293 23.293 0 0 1 2.385-.817c1.445-.394 3.062-.702 4.562-.5.24.032.348-.326.098-.375-1.582-.305-3.093-.303-4.667.084-.879.216-1.739.506-2.58.84-.82.325-1.598.62-2.281 1.185-.178.147.021.372.2.347M60.905 46.457c1.083-.234 1.885-1.507 2.404-2.4a9.09 9.09 0 0 0 .71-1.562c.174-.497.456-1.2.247-1.712-.06-.15-.25-.242-.38-.103-.308.328-.366.815-.509 1.233a9.425 9.425 0 0 1-.752 1.64 9.613 9.613 0 0 1-.981 1.384c-.339.405-.73.77-.938 1.262-.057.139.04.293.2.258M19.822 35.366c.109.098.316.07.348-.094.102-.536-.072-1.083-.175-1.61a11.445 11.445 0 0 1-.218-1.938c-.03-1.293.21-2.535.471-3.794.07-.34-.436-.596-.598-.243-.561 1.227-.754 2.602-.74 3.943.008.663.073 1.325.187 1.977.107.608.247 1.332.725 1.76M47.416 55.708c.412.016.8-.081 1.175-.246.363-.159.11-.79-.264-.648-.367.139-.714.157-1.1.153-.224-.003-.822-.122-.767.272.047.339.685.458.956.469"/>
        <path fill="#A885D8" d="M46.253 57.947c.806-.021 1.614-.122 2.4-.296 1.491-.33 3.319-.946 4.349-2.133.132-.152.011-.467-.218-.38-.683.259-1.317.635-1.981.937-.727.33-1.492.576-2.27.755-.749.172-1.511.27-2.28.291-.681.018-1.517-.201-2.151.077-.139.06-.166.289-.052.384.557.466 1.517.382 2.203.365M35.972 56.066c.356.011.433-.533.125-.666-.349-.15-.712-.255-1.05-.43-.324-.17-.591-.371-.967-.387-.184-.007-.284.208-.238.36.223.736 1.445 1.102 2.13 1.123M52.61 14.29c.443.223.875.463 1.3.717a19.152 19.152 0 0 1 2.587 1.846 23.072 23.072 0 0 1 4.241 4.757c.111.168.366.026.273-.155-.506-.986-1.025-1.887-1.713-2.763a17.435 17.435 0 0 0-2.35-2.439 19.729 19.729 0 0 0-2.65-1.928c-.802-.485-1.878-1.232-2.846-1.233-.216 0-.331.273-.177.425.37.366.877.543 1.336.774M56.166 52.383c.63.015 1.219-.574 1.667-.968.529-.463 1.005-.988 1.265-1.649.053-.134-.13-.19-.217-.124-.527.409-.967.915-1.475 1.346-.432.367-1.104.65-1.379 1.157a.161.161 0 0 0 .14.238M62.829 24.415c.11.061.335.077.426-.04.244-.316.01-.643-.166-.94-.159-.27-.377-.572-.705-.625-.11-.017-.208.031-.244.142-.118.372.112.732.317 1.026.101.145.211.348.372.437M22.007 23.967c.402-.283.538-.79.766-1.21a15.2 15.2 0 0 1 .989-1.605c.366-.51.776-.994 1.217-1.442.4-.408.855-.778 1.15-1.275.073-.123-.05-.277-.186-.241-1.14.3-2.059 1.507-2.726 2.41a9.578 9.578 0 0 0-1.026 1.702c-.217.473-.553 1.038-.41 1.566.024.088.142.153.226.095M22.137 35.928c.091.055.195-.005.226-.095.122-.351.008-.696-.049-1.046-.06-.366-.04-.726-.226-1.057-.075-.134-.248-.113-.327 0-.245.35-.19.779-.133 1.182.056.391.15.794.51 1.016M60.536 44.768c.309-.277.448-.648.592-1.027.148-.388.367-.803.35-1.226-.007-.202-.256-.318-.406-.168-.285.284-.403.702-.55 1.068-.16.4-.334.786-.293 1.226.015.155.186.235.307.127M57.028 19.97c.12.01.246-.117.236-.236-.029-.35-.303-.61-.54-.848-.222-.223-.487-.481-.821-.426a.204.204 0 0 0-.15.15c-.055.333.204.599.426.82.239.237.499.51.85.54"/>
        <path fill="#EE8031" d="M34.643 31.684c1.474-1.677 3.485-2.867 5.655-3.396 2.254-.551 4.738-.371 6.743.796.758.442 1.433 1.01 2.08 1.602 1.36 1.237 2.656 2.638 3.256 4.373.183.526.295 1.07.353 1.624.007.06.01.12.016.18.006-.083.013-.166.017-.249a9.211 9.211 0 0 0-.033-1.5 7.234 7.234 0 0 0-.353-1.624c-.6-1.735-1.897-3.136-3.256-4.373-.647-.59-1.322-1.16-2.08-1.601-2.005-1.167-4.49-1.347-6.743-.797-2.17.53-4.18 1.72-5.655 3.396-1.474 1.677-2.399 3.836-2.55 6.062-.032.46-.027.935.012 1.417.182-2.172 1.097-4.271 2.538-5.91"/>
        <path fill="#4BB4E6" d="M49.645 45.717c.49-.114.899-.614 1.22-.972.374-.416.719-.859 1.032-1.32a11.422 11.422 0 0 0 1.485-3.104 12.145 12.145 0 0 0-.362-8.035c-.216-.53-.442-1.13-.843-1.55-.077-.081-.222.001-.19.11.13.448.382.857.563 1.287.207.494.38 1.004.518 1.52.264.984.39 1.983.385 3-.01 2.15-.655 4.249-1.79 6.074a11.34 11.34 0 0 1-1.125 1.516c-.354.401-.88.786-1.076 1.29-.043.111.083.207.183.184M32.12 40.936c.06.049.152.02.155-.064.013-.504-.296-1.058-.432-1.543-.158-.562-.27-1.14-.336-1.72a10.347 10.347 0 0 1 .151-3.323 10.164 10.164 0 0 1 1.404-3.36 10.648 10.648 0 0 1 1.813-2.137c.233-.21.5-.384.66-.658.095-.159-.064-.365-.242-.315-.564.158-1.065.766-1.454 1.18-.447.476-.85.996-1.202 1.545a10.81 10.81 0 0 0-1.612 7.18c.073.585.198 1.161.372 1.725.147.476.32 1.166.722 1.49"/>
        <path fill="#44ADAC" d="M43.026 48.18c.99.118 2.11-.117 3.05-.418.47-.15.935-.334 1.381-.544.394-.185.954-.409 1.176-.804.04-.073-.012-.183-.103-.176-.401.03-.791.319-1.15.486a8.365 8.365 0 0 1-1.44.517c-.472.122-.953.212-1.438.266-.493.054-.983.036-1.476.068-.397.026-.381.559 0 .604M36.45 27.696c.445-.288.816-.69 1.264-.986a8.262 8.262 0 0 1 1.485-.783c1.014-.404 2.102-.56 3.178-.7.132-.018.12-.223 0-.25-1.15-.263-2.346-.062-3.442.341-.55.203-1.08.453-1.576.767-.478.304-1.046.68-1.369 1.152-.187.273.188.634.46.459"/>
        <path fill="#50BE87" d="M47.064 48.647c.436.292 1.162-.17 1.555-.377a10.42 10.42 0 0 0 2.98-2.366c.374-.434.876-.96.957-1.547.017-.126-.11-.274-.242-.186a1.978 1.978 0 0 0-.294.246c-.018-.02-.05-.029-.075-.004-.026.026-.016.058.005.077-.27.29-.492.64-.75.926-.418.463-.88.889-1.38 1.262-.473.353-.98.662-1.508.924-.404.2-1.178.362-1.335.84-.026.08.022.162.087.205M32.205 29.134c.498-.275.875-.77 1.282-1.16.43-.411.881-.798 1.363-1.147.472-.342.96-.66 1.468-.945.524-.294 1.08-.538 1.572-.885.136-.096.117-.381-.094-.356-1.204.141-2.393.9-3.348 1.61-.51.378-1 .786-1.451 1.232-.413.408-.893.878-1.059 1.446-.044.153.133.279.267.205M44.03 25.554c.25.165.594.139.882.182a8.407 8.407 0 0 1 2.794.947c1.168.642 2.108 1.536 2.959 2.55.1.12.282-.032.213-.162-.657-1.22-1.766-2.195-2.968-2.864a8.974 8.974 0 0 0-1.91-.791 8.371 8.371 0 0 0-1.005-.22c-.316-.05-.67-.137-.965.014-.143.073-.119.266 0 .344M36.124 46.333c1.241.748 2.856 1.418 4.338 1.26.08-.01.102-.12.018-.145-.684-.21-1.385-.345-2.063-.586-.712-.253-1.4-.573-2.043-.97a9.696 9.696 0 0 1-2.437-2.121c-.229-.279-.409-.61-.717-.808-.132-.084-.266.057-.245.188.058.347.31.625.524.893a10.076 10.076 0 0 0 2.624 2.29"/>
        <path fill="#FFD200" d="M39.775 49.245a7.9 7.9 0 0 0 1.343.304c.848.122 1.822.189 2.636-.126.13-.05.177-.28 0-.308-.837-.134-1.697-.02-2.542-.16a9.273 9.273 0 0 1-1.222-.294c-.348-.107-.755-.303-1.124-.234-.098.019-.144.145-.096.227.198.332.656.477 1.005.591M40.294 24.03c.523.104 1.127-.091 1.658-.122a10.98 10.98 0 0 1 1.784.042c.585.061 1.164.172 1.735.315.572.143 1.132.363 1.71.475.122.023.251-.14.134-.233-.914-.737-2.267-1.029-3.407-1.168-.61-.074-1.227-.1-1.841-.073-.554.024-1.356.005-1.83.33-.157.106-.163.39.057.434M54.644 34.003c.154-.516-.023-1.135-.163-1.637a8.773 8.773 0 0 0-.576-1.518 8.67 8.67 0 0 0-.886-1.418c-.3-.395-.659-.916-1.133-1.104-.147-.059-.236.128-.186.24.2.449.66.812.945 1.213.3.422.559.873.78 1.341.23.484.416.984.552 1.502.122.466.151.988.374 1.42.066.128.255.089.293-.039M32.615 44.943c.141.115.403-.035.28-.212-.627-.897-1.256-1.799-1.77-2.766-.267-.5-.49-1.017-.689-1.548-.178-.479-.29-1.04-.599-1.453-.062-.083-.21-.09-.237.031-.118.52.068 1.086.228 1.581.177.549.407 1.086.663 1.602.522 1.054 1.21 2.02 2.124 2.765"/>
        <path fill="#EE8031" d="M36.719 47.944c.34.162.685.333 1.048.432.171.047.23-.173.108-.266-.326-.247-.705-.427-1.068-.614-.3-.155-.61-.347-.955-.356-.124-.004-.16.14-.093.223.235.29.63.425.96.581M54.607 39.748c.153-.32.179-.707.23-1.056.057-.38.105-.761.137-1.144.067-.806.042-1.58-.045-2.383-.012-.108-.164-.111-.17 0-.045.75-.119 1.507-.198 2.255-.042.387-.091.774-.154 1.16-.057.349-.181.716-.17 1.07.007.185.28.285.37.098M29.816 35.206c.164-.336.184-.727.27-1.088.092-.39.217-.776.376-1.145.305-.71.749-1.39 1.186-2.021.087-.126-.097-.237-.199-.152-.669.554-1.116 1.243-1.456 2.045-.275.648-.668 1.615-.454 2.325.035.117.216.16.277.036M48.276 25.297c.206.066.41.157.592.277.142.095.262.262.443.26a.098.098 0 0 0 .097-.096c.007-.21-.224-.342-.382-.441a1.821 1.821 0 0 0-.683-.258c-.168-.028-.233.204-.067.258"/>
        <path fill="#FFB4E6" d="M33.225 47.154c.758.634 1.698 1.284 2.683 1.49.158.033.243-.173.106-.26-.848-.537-1.722-.958-2.493-1.617a9.384 9.384 0 0 1-1.01-1.004c-.297-.344-.532-.781-.926-1.022-.071-.043-.192.014-.18.106.057.462.382.82.674 1.165.348.413.731.796 1.146 1.142M56.321 37.669c.238-.453.262-1.068.28-1.57a9.988 9.988 0 0 0-.086-1.626c-.136-1.07-.407-2.152-.994-3.064-.06-.094-.22-.04-.188.076.287 1.026.616 2.039.734 3.104.055.503.068 1.005.057 1.51-.011.504-.114 1.039-.044 1.538.016.115.192.126.241.032M36.545 23.83c.5-.068.922-.28 1.388-.464.476-.187.957-.362 1.45-.496.879-.24 1.862-.427 2.774-.305.146.02.212-.198.06-.227-.962-.186-1.881-.185-2.838.05-.534.132-1.057.308-1.568.511-.498.198-.972.377-1.387.72-.108.09.013.227.12.212M53.687 44.012c.659-.143 1.146-.917 1.462-1.46.174-.3.316-.621.43-.949.107-.303.278-.73.152-1.041-.037-.091-.152-.147-.232-.063-.187.2-.222.496-.309.75a5.724 5.724 0 0 1-1.054 1.838c-.206.246-.444.469-.57.768-.035.084.024.178.121.157M28.71 37.269c.066.059.192.042.211-.057.062-.327-.043-.659-.106-.98a6.96 6.96 0 0 1-.132-1.178c-.018-.786.127-1.541.286-2.306.043-.207-.265-.363-.364-.148-.34.746-.458 1.582-.45 2.397.005.403.044.806.114 1.202.065.37.15.81.44 1.07M45.486 49.636c.25.01.486-.05.715-.15.22-.096.066-.48-.161-.394-.223.085-.434.096-.67.093-.135-.001-.499-.074-.465.165.029.207.417.28.581.286"/>
        <path fill="#A885D8" d="M44.78 50.997a7.66 7.66 0 0 0 1.458-.18c.907-.2 2.018-.575 2.644-1.297.08-.092.007-.284-.133-.23-.415.157-.8.386-1.204.569a7.316 7.316 0 0 1-2.766.636c-.414.011-.922-.122-1.308.047-.084.037-.1.175-.031.233.338.284.922.232 1.34.222M38.528 49.854c.217.006.264-.325.076-.405-.211-.091-.432-.155-.638-.262-.197-.103-.36-.226-.588-.235-.112-.004-.172.127-.145.219.136.447.88.67 1.295.683M48.644 24.455a12.248 12.248 0 0 1 2.363 1.558 14.032 14.032 0 0 1 2.579 2.892c.067.102.222.016.166-.094-.308-.6-.623-1.147-1.042-1.68a10.6 10.6 0 0 0-1.429-1.482 11.995 11.995 0 0 0-1.611-1.173c-.487-.294-1.142-.749-1.73-.75-.131 0-.201.167-.108.26.226.221.533.33.812.47M50.806 47.615c.383.008.74-.35 1.014-.589.321-.282.61-.601.768-1.003.032-.081-.078-.116-.131-.075-.32.248-.589.556-.897.818-.263.223-.671.396-.838.703a.098.098 0 0 0 .084.146M54.857 30.61c.067.038.204.047.259-.024.148-.192.006-.39-.1-.571-.098-.164-.23-.348-.43-.38-.067-.01-.126.019-.148.086-.072.227.068.445.193.624.061.088.128.212.226.265M30.038 30.338c.245-.171.327-.48.466-.736a9.23 9.23 0 0 1 .601-.975c.223-.31.472-.604.74-.877.244-.248.52-.473.7-.775.043-.075-.031-.168-.114-.147-.693.183-1.252.916-1.657 1.465-.24.325-.456.667-.624 1.035-.132.288-.336.632-.25.952.015.054.087.094.138.058M30.118 37.61c.055.034.118-.003.137-.058.074-.213.005-.423-.03-.636-.036-.222-.025-.441-.138-.642-.045-.082-.15-.07-.198 0-.15.213-.116.473-.081.718.034.238.09.484.31.618M53.463 42.984c.187-.168.272-.393.36-.623.09-.236.223-.489.213-.746-.005-.123-.156-.194-.248-.102-.172.173-.244.427-.334.65-.097.242-.203.477-.178.744.01.095.113.143.187.077M51.33 27.908c.073.006.15-.07.144-.143-.018-.213-.185-.37-.33-.516-.134-.135-.295-.292-.498-.259a.124.124 0 0 0-.091.091c-.034.203.124.365.259.499.145.144.303.31.516.328"/>
        <path fill="#EE8031" d="M39.561 33.641a6.493 6.493 0 0 1 3.81-.668c1.35.174 2.671.795 3.521 1.856.322.4.571.854.8 1.313.483.963.897 2.003.859 3.078a4.232 4.232 0 0 1-.15.963l-.03.102.063-.132.033-.076c.106-.244.197-.496.265-.752.085-.314.139-.636.15-.963.038-1.075-.376-2.115-.858-3.077-.23-.46-.479-.913-.8-1.314-.85-1.061-2.172-1.682-3.521-1.856-1.3-.166-2.65.061-3.81.668a6.068 6.068 0 0 0-2.676 2.78 5.65 5.65 0 0 0-.292.777 6.074 6.074 0 0 1 2.636-2.699"/>
        <path fill="#4BB4E6" d="M44.806 44.476c.293.041.622-.146.874-.275.292-.148.573-.318.842-.505a6.706 6.706 0 0 0 1.468-1.385 7.124 7.124 0 0 0 1.498-4.472c-.006-.336-.003-.711-.134-1.026-.025-.06-.122-.046-.127.02-.024.273.028.55.036.823.009.314-.004.63-.037.941a6.632 6.632 0 0 1-.423 1.722 6.831 6.831 0 0 1-2.261 2.946 6.657 6.657 0 0 1-.936.593c-.278.145-.647.245-.861.48-.047.051.002.13.061.138M36.227 38.172c.023.039.08.043.099-.002.114-.274.062-.642.09-.936.032-.34.092-.68.178-1.011a6.07 6.07 0 0 1 .785-1.787c.391-.6.9-1.119 1.477-1.542a6.25 6.25 0 0 1 1.443-.788c.172-.065.354-.105.5-.22.085-.068.042-.214-.066-.224-.342-.033-.744.194-1.045.34a6.286 6.286 0 0 0-2.552 2.26c-.38.589-.66 1.24-.829 1.92a5.962 5.962 0 0 0-.16 1.022c-.02.292-.072.706.08.968"/>
        <path fill="#44ADAC" d="M40.666 44.43c.516.274 1.179.38 1.756.414.29.017.582.014.87-.007.255-.018.609-.023.814-.192.037-.032.032-.103-.02-.118-.225-.068-.5.008-.731.024-.3.02-.599.013-.897-.02a5.962 5.962 0 0 1-.843-.158c-.281-.074-.545-.187-.822-.273-.223-.07-.326.225-.127.33M41.391 31.84c.305-.064.593-.206.9-.274.32-.07.65-.112.977-.115.64-.008 1.269.136 1.887.286.076.018.112-.097.053-.137-.574-.386-1.27-.528-1.955-.538a4.831 4.831 0 0 0-1.024.088c-.326.065-.716.151-.992.342-.16.11-.032.386.154.348"/>
        <path fill="#50BE87" d="M42.776 45.536c.177.252.672.151.93.121a6.113 6.113 0 0 0 2.13-.667c.296-.158.682-.34.85-.645.036-.065-.003-.173-.093-.153a1.164 1.164 0 0 0-.213.073c-.005-.015-.021-.026-.04-.018-.02.009-.021.029-.013.043-.209.102-.405.247-.606.35a5.651 5.651 0 0 1-2.042.587c-.263.025-.72-.05-.907.179-.031.039-.022.093.004.13M38.766 31.733c.33-.045.64-.237.946-.365.321-.135.65-.251.987-.34.331-.088.664-.16 1.003-.209.349-.05.705-.066 1.047-.153.095-.023.144-.184.024-.215-.689-.175-1.5-.01-2.172.177-.359.1-.713.22-1.054.369-.312.136-.674.292-.884.568-.057.074.013.18.103.168M45.99 32.264c.102.142.296.2.445.285a4.921 4.921 0 0 1 1.328 1.106c.504.597.83 1.284 1.08 2.018.03.086.162.042.151-.044-.101-.806-.502-1.572-1.018-2.191a5.256 5.256 0 0 0-.878-.836 4.93 4.93 0 0 0-.504-.332c-.162-.093-.337-.215-.53-.195-.095.01-.122.12-.074.189M37.279 41.967c.521.671 1.264 1.378 2.108 1.602.045.013.08-.043.04-.074-.33-.26-.685-.481-1.005-.756a6.26 6.26 0 0 1-.913-.96 5.804 5.804 0 0 1-.885-1.674c-.067-.2-.095-.42-.222-.593-.055-.074-.158-.024-.174.052-.042.202.038.407.099.599a5.899 5.899 0 0 0 .952 1.805"/>
        <path fill="#FFD200" d="M38.662 44.33c.208.17.436.317.67.448.439.245.958.487 1.47.486.081 0 .155-.116.065-.168-.43-.25-.925-.369-1.358-.623a5.42 5.42 0 0 1-.606-.418c-.168-.132-.35-.325-.566-.365-.057-.01-.109.05-.1.104.038.223.258.4.425.535M44.268 30.643c.264.167.636.188.933.282.332.107.656.24.967.399.307.157.6.34.883.537.283.2.543.437.836.62.061.039.166-.023.122-.1-.345-.594-1.024-1.039-1.618-1.355a6.534 6.534 0 0 0-.992-.428c-.308-.103-.742-.282-1.07-.205-.109.026-.172.18-.061.25M50.014 39.12c.193-.25.227-.626.256-.93.03-.315.034-.636.006-.952a5.08 5.08 0 0 0-.186-.962c-.08-.279-.167-.64-.387-.843-.068-.062-.156.02-.152.093.014.287.19.583.26.862.076.294.123.595.145.898.023.313.02.626-.016.938-.03.28-.125.572-.094.856.009.084.12.102.168.04M35.653 40.468c.053.093.228.066.198-.057-.154-.623-.308-1.248-.385-1.886-.04-.33-.054-.66-.05-.992.004-.299.061-.63-.02-.92-.017-.059-.097-.094-.137-.033-.174.26-.192.608-.21.912-.018.338-.006.68.025 1.017.064.686.236 1.359.579 1.96"/>
        <path fill="#EE8031" d="M37.265 42.974c.151.16.304.326.482.457.084.062.162-.046.115-.123-.126-.204-.295-.382-.454-.56-.132-.149-.261-.319-.448-.397-.067-.027-.117.044-.098.103.068.208.255.365.403.52M48.781 42.255c.152-.143.247-.349.35-.529.11-.196.217-.394.315-.597.207-.427.357-.856.478-1.313.017-.062-.066-.096-.093-.036-.183.4-.382.8-.584 1.192a12.39 12.39 0 0 1-.329.602c-.105.18-.25.354-.318.55-.036.102.093.215.181.131M36.177 34.552c.16-.15.254-.36.377-.538.133-.195.283-.38.447-.548.317-.324.703-.602 1.076-.856.074-.05-.003-.15-.077-.125-.483.163-.873.446-1.228.813-.287.296-.706.743-.74 1.176-.005.072.085.133.145.078M48.367 33.016c.1.08.192.173.266.277.058.081.088.198.188.236a.058.058 0 0 0 .073-.033c.048-.113-.05-.234-.116-.322a1.067 1.067 0 0 0-.319-.285c-.086-.05-.171.063-.092.127"/>
        <path fill="#FFB4E6" d="M35.52 41.806c.28.507.658 1.06 1.153 1.38.08.051.17-.043.113-.12-.35-.472-.74-.886-1.023-1.41a5.499 5.499 0 0 1-.34-.761c-.09-.25-.126-.54-.291-.754-.03-.039-.108-.033-.121.02-.066.265.036.529.123.78.103.298.232.589.386.865M50.158 41.479c.225-.198.368-.53.484-.8.126-.292.22-.6.297-.908.15-.614.23-1.263.102-1.886-.013-.064-.112-.068-.119.003-.06.621-.093 1.245-.253 1.852a6.724 6.724 0 0 1-.288.839c-.112.273-.281.544-.348.832-.016.066.078.109.125.068M42.26 29.745c.287.068.563.04.857.038.3-.002.6.004.898.034.531.053 1.108.158 1.582.417.075.041.157-.064.08-.112a3.784 3.784 0 0 0-1.563-.57 7.108 7.108 0 0 0-.966-.05c-.314.003-.61.002-.91.102-.079.026-.041.126.021.141M47.378 44.394c.39.06.82-.26 1.108-.49a3.24 3.24 0 0 0 .436-.43c.122-.142.306-.34.302-.537 0-.057-.052-.112-.113-.083-.145.07-.226.225-.328.345a3.364 3.364 0 0 1-.964.784c-.165.091-.342.163-.474.3-.037.039-.024.103.033.111M35.136 35.448c.024.046.096.064.128.013.103-.165.115-.37.148-.558.041-.229.098-.453.177-.672.156-.434.395-.817.643-1.202.067-.104-.068-.254-.167-.158-.345.337-.585.77-.753 1.217-.082.222-.146.45-.191.682-.043.216-.09.474.015.678M41.704 45.745a.94.94 0 0 0 .422.069c.142-.007.139-.249-.004-.25-.14 0-.258-.04-.386-.09-.074-.03-.258-.146-.29-.007-.027.118.17.24.258.278"/>
        <path fill="#A885D8" d="M41.03 46.34c.27.097.552.167.836.21.539.08 1.225.11 1.72-.153.064-.034.064-.154-.023-.155-.26 0-.52.043-.78.058a4.275 4.275 0 0 1-1.647-.234c-.229-.08-.479-.26-.726-.25-.053.003-.092.075-.066.122.125.226.456.32.686.403M37.851 44.4c.118.049.213-.122.128-.206-.097-.094-.204-.176-.294-.278-.086-.097-.15-.199-.272-.252-.06-.026-.122.033-.126.09-.02.273.34.551.564.646M48.747 32.634a7.138 7.138 0 0 1 .964 1.35c.357.657.64 1.393.8 2.124.015.07.118.056.11-.016a5.918 5.918 0 0 0-.215-1.139 6.212 6.212 0 0 0-.468-1.111 7.037 7.037 0 0 0-.634-.981c-.205-.264-.467-.65-.789-.774-.071-.028-.145.048-.113.119.076.169.222.292.345.428M45.041 45.759c.208.085.48-.035.679-.109.235-.086.461-.2.632-.386.035-.038-.019-.08-.056-.07-.228.07-.44.181-.663.26-.191.066-.45.075-.607.208a.057.057 0 0 0 .015.097M50.846 37.309c.03.034.102.068.147.04.122-.073.086-.212.066-.333-.019-.11-.052-.238-.155-.298-.034-.02-.073-.016-.099.016-.087.109-.057.258-.026.382.015.061.025.143.067.193M37.326 31.936c.17-.043.28-.194.41-.305.17-.145.348-.284.535-.407.187-.123.385-.231.59-.324.185-.084.384-.15.545-.277.04-.031.02-.098-.03-.104-.418-.046-.878.238-1.216.453-.2.127-.39.269-.56.435-.133.13-.317.274-.337.468-.003.033.027.07.063.06M35.834 35.93c.023.03.066.024.088-.002.085-.101.092-.23.117-.354.028-.13.08-.247.06-.38-.007-.055-.067-.07-.108-.042-.126.085-.163.234-.196.376-.031.137-.052.283.04.403M47.472 43.785c.138-.052.232-.158.329-.265.099-.11.225-.22.274-.363.023-.069-.045-.14-.114-.109-.131.059-.224.182-.32.285-.104.113-.212.22-.255.37-.015.054.032.103.086.082M49.488 35.088c.038.019.096-.007.108-.048.035-.12-.022-.242-.07-.352-.046-.102-.101-.222-.22-.246a.072.072 0 0 0-.068.03c-.061.104-.01.226.036.328.05.11.1.233.214.288"/>
        <path fill="#FF7900" d="M18.62 16.464c-.655.54-1.003 1.329-1.046 2.365l-3.88 55.73c.04 1.09.297 1.852.769 2.289.47.435 1.227.609 2.268.52l47.581-6.934c1.019-.302 1.753-.79 2.205-1.463.452-.673.594-1.493.427-2.461l-6.992-42.351c-.174-1.02-.53-1.773-1.07-2.257-.808-.727-1.013-.831-2.626-1.065l-34.979-5.068a5.897 5.897 0 0 0-.41-.015c-.926 0-1.675.237-2.247.71"/>
        <g transform="translate(16.397 75.427)">
            <mask id="f" fill="#fff">
                <use xlink:href="#e"/>
            </mask>
            <path fill="#D6D6D6" d="M48.034 2.279c0 1.24-10.742 2.246-23.993 2.246C10.791 4.525.048 3.52.048 2.28S10.79.033 24.041.033c13.251 0 23.993 1.005 23.993 2.246" mask="url(#f)"/>
        </g>
        <path fill="#BBE0D1" d="M30.217 61.09c1.042-.61 2.566-1.903 3.667-2.4.696-.315.949.129 1.66-.15-.442-3.946-1.392-9.592-1.291-10.917l-3.87.605-6.744 7.155 4.163 7.34c.813-.532 1.574-1.141 2.415-1.633M45.527 49.492c-.242 3.688-.279 6.52-.182 8.71 2.314 1.592 4.798 2.903 7.305 4.175l.622-11.198-6.327-3.427-1.868-.098c.146.614.492 1.209.45 1.838"/>
        <path fill="#BBE0D1" d="M44.8 64.133c-.069-.664-.174-1.323-.26-1.985a71.232 71.232 0 0 1-.471-4.742 47.017 47.017 0 0 1-.042-4.75 73.83 73.83 0 0 1 .352-4.738c.048-.461.099-.922.152-1.383l-4.694-2.214-2.217.146-3.206 1.806.107.593c.347 1.931.68 3.865.943 5.81.263 1.953.453 3.918.511 5.889.05 1.7-.049 3.397-.067 5.097-.007.731-.027 1.465-.124 2.19a7.92 7.92 0 0 1-.12.684l.822 4.18s7.004.399 8.927-.52l-.372-5.016c-.152-.324-.203-.69-.24-1.047"/>
        <path fill="#FFF" d="M53.12 62.615l.152-11.436-.984-.587-1.856 10.638c.89.472 1.787.93 2.687 1.385"/>
        <path fill="#010101" d="M42.78 34.696s1.177-5.048.337-6.446c-.818-1.361-5.201-3.742-9.401.19-.303.283-.814 1.264-.29 2.648l1.881 5.782 7.474-2.174z"/>
        <path fill="#62352E" d="M41.234 40.727s-.105 2.973.29 4.13c.064.188-.686 1.662-.99 2.733-.176.62-.999.665-1.375.094l-2.34-3.191s.638-2.702-.63-6.484c0 0 2.855 4.915 5.045 2.718"/>
        <path fill="#725048" d="M42.529 31.706s1.805 7.805-2.31 10.445c0 0-2.38-.134-4.69-4.678 0 0-1.108.977-1.453-1.437-.366-2.566 1.39-.971 1.39-.971s.723-.99.639-1.379c-.084-.388-.42-1.825-.42-1.825s4.87-1.63 6.844-.155"/>
        <path fill="#808282" d="M35.83 34.653c-.025.195-.22 1.813.295 2.151.586.385 2.185.564 2.901.22.68-.325.401-2.059.373-2.219-.116-.09-1.349-.982-3.569-.152m2.006 2.616c-.68-.018-1.396-.177-1.75-.41-.581-.381-.333-2.158-.322-2.234l.002-.019.02-.007c1.24-.469 2.171-.4 2.733-.26.611.152.923.413.936.424l.01.008.001.01c.015.08.348 1.94-.408 2.303-.3.144-.752.198-1.222.185M40.33 34.844c-.01.17-.09 1.914.621 2.168.791.281 2.456.18 2.903-.284.912-.947.068-2.369-.022-2.514-2.188-.432-3.383.529-3.502.63m1.6 2.386c-.38-.01-.74-.062-1.003-.156-.793-.282-.671-2.167-.666-2.247l.001-.013.01-.008c.012-.012 1.244-1.123 3.59-.654l.014.003.008.012c.01.016 1.014 1.575.021 2.606-.311.323-1.189.478-1.975.457"/>
        <path fill="#FFF" d="M35.798 34.63s-.262 1.828.307 2.202c.57.374 2.195.578 2.937.222.741-.355.39-2.266.39-2.266s-1.248-1.06-3.634-.158M43.854 34.185s1.012 1.541.026 2.566c-.468.485-2.164.568-2.941.292-.777-.277-.643-2.214-.643-2.214s1.205-1.115 3.558-.644" opacity=".2"/>
        <path fill="#010101" d="M35.532 34.915a5.374 5.374 0 0 1 2.118-.442c.932.008 1.582.717 2.516.535.286-.056.43-.23.698-.363 1.06-.527 2.396-.372 3.515-.16.293.055.392-.374.1-.43-1.125-.212-2.356-.338-3.458.049-.258.09-.505.208-.726.362-.054.038-.11.111-.17.138-.146.066.213-.059.016-.034-.45.057-.659-.04-1.024-.23-.446-.23-.99-.303-1.491-.305a5.771 5.771 0 0 0-2.241.464c-.269.116-.126.534.147.416"/>
        <path fill="#62352E" d="M44.472 34.071a12.07 12.07 0 0 0-1.185-.17l.019.415c.117.156.204.332.259.516.205.69.156 1.45-.2 2.086l-.006.126c.221-.07.403-.162.514-.278.754-.783.34-1.868.104-2.336.134.022.266.046.395.07.293.055.393-.374.1-.429" opacity=".2"/>
        <path fill="#62352E" d="M40.698 44.755l-.021-.007a9.566 9.566 0 0 1-.036-.255l.057.262z"/>
        <path fill="#50BE87" d="M29.806 48.728s2.29 4.13 3.697 10.445l.283 10.86 13.453-.568-.504-4.122a38.208 38.208 0 0 1 .368-11.66l.438-2.343c.304-1.213.481-3.41-.658-3.93L41.82 45.1c-.175-.08-.287.008-.247.197.503 2.37-.446 6.714-1.059 7.067-.233.134-.073 1.963-.122 3.654-.006.204-.304.214-.324.012-.17-1.66-.093-3.494-.303-3.616-1.363-.794-3.13-7.111-3.313-7.466-.21-.404-2.86.661-4.415 1.655-1.039.665-2.4 1.706-2.231 2.125"/>
        <path fill="#50BE87" d="M57.87 64.73c-2.202-.855-8.09-.03-8.944 0-1.673.057-1.78-.833-2.407-2.01l-12.122.404c-.221 1.104-.706 3.565-3.418 3.083-1.58-.28-7.657-2.82-9.9-2.073-2.241.746-4.3 5.551-2.668 7.357 13.45 14.893 38.637 3.075 40.05 1.134 1.469-2.019 3.219-6.418-.59-7.896"/>
        <path fill="#FFF" d="M28.791 62.04l-4.22-7.546-1.543 1.394 4.522 6.997c.425-.265.833-.555 1.241-.845"/>
        <path fill="#FAB431" d="M45.628 55.968h-3.226a.39.39 0 0 1-.39-.39v-.46a.39.39 0 0 1 .39-.39h3.226a.39.39 0 0 1 .39.39v.46a.39.39 0 0 1-.39.39"/>
        <path fill="#725048" d="M23.537 56.275s-2.021 1.476-1.824 6.94c.197 5.464 1.676 1.772 1.676 1.772s1.506-4.425 2.07-4.922c.252-.222-1.282-3.643-1.922-3.79"/>
        <path fill="#D6D6D6" d="M53.065 61.268l.637-9.04-.43-1.05-1.582 10.709.01.005a.955.955 0 0 0 1.365-.624"/>
        <path fill="#725048" d="M56.468 37.152c-3.916-1.799-2.378.756-2.843.447-.584-.388-1.426-.097-1.361 2.2.024.87 1.308 1.684 1.508 1.825.395 1.52.631 6.627.732 8.807.147 3.185-1.382 2.001-1.382 2.001-.123.587-.73 4.24-.647 4.27 1.805.657 3.888 1.315 4.704.894a2.02 2.02 0 0 0 .922-.943c1.275-2.797-1.174-10.89-2.08-13.648a2.106 2.106 0 0 1 .117-1.612c.65-1.279 1.442-3.73.33-4.241"/>
        <path fill="#725048" d="M52.92 38.526s.816-5.976 1.744-5.38c.814.525.111-.205-.643 5.199 0 0-.235 1.677-1.101.181M24.024 63.476c-.296-.148-1.233-.54-1.752-.281-.52.26-.545-.255-1.064.153-.52.407-.653-.033-.913.45-.26.48-.497.143-.682.44-.186.295-.149 1.926.037 2.296.185.37.853 1.408 1.076 1.593.222.185.408-.407.222-.926 0 0 .334 1.037.705.926.371-.11.186-1.148.186-1.148s.111.778.593.704c.483-.075.149-1.26.149-1.26s.148 1.115.593.926c.497-.211-.004-1.204.122-1.933.11-.636.372-1.227.372-1.227l.677.168s-.024-.733-.32-.881"/>
        <path fill="#62352E" d="M22.606 63.844s.022.09.036.255a2.39 2.39 0 0 1-.048.699c-.032.146-.083.295-.11.445a.968.968 0 0 0-.017.228c.004.08.016.165.032.255.062.368.112.775.133 1.203 0 0-.127-.27-.27-.79a7.406 7.406 0 0 1-.107-.438 1.11 1.11 0 0 1 .016-.582c.06-.2.144-.378.202-.588.06-.209.108-.437.133-.687M21.435 63.964s.031.087.06.25c.029.163.054.405.018.7-.017.15-.055.303-.068.455a.966.966 0 0 0 .006.228c.011.08.031.163.055.251.097.36.185.761.246 1.186 0 0-.152-.257-.343-.761a7.437 7.437 0 0 1-.148-.427 1.109 1.109 0 0 1-.039-.581c.04-.205.108-.39.145-.605.04-.212.067-.445.068-.696M20.586 64.19s.03.086.06.25c.028.162.053.404.017.7-.017.148-.054.302-.068.453a.966.966 0 0 0 .006.229c.011.079.032.162.055.25.097.361.186.762.246 1.186 0 0-.151-.256-.342-.76a7.436 7.436 0 0 1-.149-.428 1.109 1.109 0 0 1-.039-.581c.041-.204.108-.39.146-.604.04-.213.066-.445.068-.696"/>
        <path fill="#50BE87" d="M39.972 48.29c-.018 0-.037 0-.055-.002-.359-.021-1.094-.18-2.227-1.75a26.495 26.495 0 0 1-1.06-1.592l.105-.518c.01-.046.075-.055.1-.014.872 1.479 2.464 2.905 3.021 2.94.386.02 1.385-.94 1.659-2.64.006-.037.055-.048.078-.019l.325.425c-.11.782-.721 3.17-1.946 3.17"/>
        <path fill="#50BE87" d="M40.749 51.779h-.893l-1.084-4.147 2.169.084z"/>
        <path fill="#FAB431" d="M40.274 60.86l-1.311-7.873c-1.537-.782-3.598-7.19-3.82-7.913l.815-.217c.14-.045.717.04.758.17.864 2.758 2.516 7.066 3.49 7.338l.147.041.02.474.006-.498.099-.059c.011-.007 1.67-1.25 1.41-7.182-.004-.079.082-.135.16-.104l.991.237c.276 5.577-1.252 7.258-1.624 7.584l-.71 7.996-.431.005z"/>
        <path fill="#725048" d="M27.927 77.274c-.727-.373-1.31-.846-1.937-1.355-.13-.105-.265-.215-.406-.324l-1.126-.496a1.85 1.85 0 0 0-1.136-.117c-.58.125-1.414.286-1.581.22-.262-.105-1.361-.21-1.309.47.052.68.995.68.995.68s-.89.104-.576.68c.21.384.56.394.77.359-.178.063-.4.202-.194.477.195.26.492.257.688.218-.19.072-.418.208-.217.409.177.177.454.17.662.132-.152.076-.275.22-.093.495.106.16.447.205.662.022.023-.02 1.098-.003 2.157-.131 1.114-.135 2.213-.414 2.213-.414l4.212-.178c-1.31-.176-2.584-.532-3.784-1.147M54.24 75.201c-.166.067-1-.094-1.58-.219a1.85 1.85 0 0 0-1.136.117s-5.283 2.49-6.397 2.762c-.685.168-1.38.296-2.08.392l-.226.106 5.662.24s1.099.28 2.213.414c1.058.128 2.134.111 2.157.131.214.183.556.139.662-.022.181-.274.059-.42-.093-.495.208.039.485.045.662-.132.201-.201-.027-.337-.217-.41.196.04.493.043.688-.217.206-.275-.017-.414-.194-.477.21.035.56.025.77-.36.314-.575-.576-.68-.576-.68s.942 0 .995-.68c.052-.679-1.047-.574-1.31-.47"/>
        <path fill="#010101" d="M37.96 33.434c.437-.009.795-.09 1.215-.153-.003.285-.49.495-.7.584a.473.473 0 0 1-.23.035c-.314-.031-1.05-.11-1.445-.136-.159-.011-.262-.014-.265-.002.098-.367.996-.32 1.424-.328M42.122 33.427c.346.044.587.029.522.384.011-.06-.853.05-.92.05a.705.705 0 0 1-.269-.04c-.196-.08-.202-.272-.173-.525-.023.22.285.063.84.13"/>
        <path fill="#DFB3A8" d="M37.212 36.025l-.002-.002.004.002z"/>
        <path fill="#010101" d="M37.736 34.722c.304-.2.692-.239.964-.094.171.09.446.333.375.945l-.287-.028c.04-.343-.043-.588-.232-.69-.176-.092-.438-.06-.651.081-.223.147-.326.371-.274.597l-.283.055c-.075-.332.07-.655.388-.866M41.37 34.925c.272-.18.619-.213.864-.084.153.081.4.299.335.847l-.256-.024c.036-.309-.039-.528-.21-.619-.156-.083-.391-.054-.582.072-.2.133-.293.333-.246.536l-.253.048c-.068-.297.062-.587.347-.776"/>
        <path fill="#010101" d="M38.068 34.803c.195.01.345.167.333.352-.012.184-.18.326-.375.318-.196-.01-.346-.166-.332-.352.01-.184.178-.327.374-.318M41.698 35.046c.182.013.315.152.3.31-.017.158-.177.274-.359.261-.182-.014-.315-.153-.298-.31.016-.159.176-.275.357-.261"/>
        <path fill="#62352E" d="M39.96 35.617c.172.312.186.692.34 1.018.05.107.144.197.242.28.13.111.266.21.314.32.295.683-.688.613-.998.25-.234-.275-.556-1.862.102-1.868"/>
        <path fill="#F2DED5" d="M39.06 36.059l-.05-.011a.98.98 0 0 0 .05.011"/>
        <path fill="#62352E" d="M34.99 35.473c.045.39.098.785.128 1.176-.427.333-.449-.45-.42-.942l.293-.234zM38.669 38.601a.128.128 0 0 0-.093.042c-.115.12-.382.452-.151.578.127.07.244-.063.204-.163a.612.612 0 0 1 .047-.096.726.726 0 0 1 .076-.103.255.255 0 0 1-.083-.258M41.736 38.441a.176.176 0 0 0-.091-.035c.085.108.08.27-.015.358a.23.23 0 0 1 .006.074c-.005.07.07.131.143.131a.14.14 0 0 0 .142-.131.46.46 0 0 0-.185-.397M39.47 39.762c.453.2.982.148 1.414-.073.16-.081.017-.31-.144-.227-.336.172-.768.231-1.126.073-.164-.073-.309.154-.144.227"/>
        <path fill="#50BE87" d="M48.295 49.993l.556.362c.234.152.451-.222.219-.373l-.557-.363c-.234-.152-.45.222-.218.374M49.776 50.779l.558.296c.246.13.465-.242.219-.373l-.558-.296c-.246-.13-.465.242-.219.373M51.243 51.47l.25.114c.102.047.237.033.296-.078.05-.095.032-.245-.078-.295l-.25-.114c-.102-.047-.238-.033-.296.077-.05.095-.032.246.078.296M48.046 51.964a.67.67 0 0 1 .4.19c.197.196.504-.11.306-.306a1.046 1.046 0 0 0-.59-.3c-.116-.017-.233.027-.267.15-.028.101.035.25.151.266M49.578 52.77l.57.27c.106.05.234.03.296-.077.055-.094.029-.245-.077-.295l-.57-.27c-.106-.05-.234-.03-.297.077-.055.094-.028.245.078.296M51.068 53.474l.246.123c.1.05.239.03.296-.078.052-.098.03-.241-.078-.296l-.246-.122c-.1-.05-.239-.03-.296.077-.052.098-.03.242.078.296M47.511 53.522l.425.195c.106.049.233.03.296-.077.055-.094.03-.247-.077-.296l-.425-.195c-.107-.048-.233-.03-.297.078-.054.093-.029.246.078.295M49.1 54.46l.43.245c.242.139.46-.235.218-.373l-.43-.245c-.242-.138-.46.235-.218.373M50.571 55.2l.246.184c.091.068.246.018.296-.078.06-.113.02-.223-.077-.295l-.246-.184c-.091-.068-.246-.018-.296.078-.06.113-.02.223.077.295M47.201 55.124l.366.19c.104.053.235.026.296-.078.057-.097.027-.242-.077-.296l-.366-.189c-.104-.053-.235-.027-.296.078-.057.097-.027.242.077.295M48.41 55.845c.171.068.33.17.466.295.206.187.512-.118.306-.306a2.127 2.127 0 0 0-.658-.406c-.108-.043-.237.047-.266.151-.034.123.042.223.151.266M49.647 56.617l.555.364c.233.154.45-.22.218-.373l-.555-.365c-.233-.153-.45.221-.218.374M47.016 56.662l.37.242c.098.064.24.02.297-.078.061-.105.02-.231-.078-.295l-.37-.243c-.098-.064-.24-.02-.297.078-.061.105-.02.231.078.296M48.301 57.528l.553.245c.107.048.232.031.296-.077.054-.092.03-.248-.078-.296l-.552-.245c-.107-.048-.233-.031-.296.077-.054.092-.03.248.077.296M49.716 58.26l.498.296c.24.143.457-.23.218-.373l-.497-.296c-.24-.143-.458.23-.219.373M46.705 58.14l.307.184c.097.059.242.025.296-.077a.22.22 0 0 0-.078-.296l-.307-.184c-.097-.058-.242-.025-.296.078a.22.22 0 0 0 .078.295M47.87 58.82l.368.184c.104.052.234.027.296-.078.056-.096.027-.243-.078-.296l-.368-.184c-.105-.052-.235-.027-.296.078-.056.096-.028.243.077.295M49.344 59.615l.37.245c.097.064.239.019.295-.078.062-.106.02-.231-.077-.296l-.37-.244c-.097-.064-.239-.02-.296.078-.062.105-.02.23.078.295M29.689 50.16l-.368.246c-.097.064-.14.19-.078.295.056.096.198.143.296.078l.368-.246c.097-.065.14-.19.078-.296-.057-.096-.199-.143-.296-.077M28.405 51.333l-.433.303c-.096.067-.14.189-.078.295.055.095.2.145.296.078l.433-.302c.096-.067.14-.19.078-.296-.056-.094-.2-.145-.296-.078M27.053 52.745a1.213 1.213 0 0 0-.454.436.22.22 0 0 0 .078.296.22.22 0 0 0 .296-.078.754.754 0 0 1 .298-.28c.103-.057.135-.198.078-.296a.22.22 0 0 0-.296-.078M26.083 53.875l-.675.552c-.216.177.092.48.306.306l.675-.552c.216-.176-.092-.48-.306-.306M26.18 56.286a.966.966 0 0 1 .284-.24.22.22 0 0 0 .077-.295.22.22 0 0 0-.296-.078c-.176.1-.317.234-.439.395-.07.093-.015.242.078.296.11.064.225.016.296-.078M27.35 55.183a1.32 1.32 0 0 1 .412-.41c.235-.149.018-.523-.219-.374-.23.146-.421.336-.567.566-.15.236.225.453.374.218M28.66 53.995l.44-.482c.187-.205-.118-.512-.307-.306l-.44.482c-.187.205.118.512.307.306M29.875 52.819l.391-.472c.075-.09.088-.218 0-.306-.076-.076-.231-.09-.306 0l-.39.472c-.075.09-.089.218 0 .306.076.077.23.09.305 0M27.054 57.913l.374-.425c.077-.087.086-.219 0-.305-.079-.079-.229-.088-.306 0l-.374.425c-.077.087-.086.219 0 .305.079.079.229.088.306 0M28.223 56.627l.363-.434c.075-.09.088-.218 0-.305-.077-.077-.23-.09-.306 0l-.363.434c-.075.09-.088.217 0 .305.077.077.23.09.306 0M29.617 55.242l.185-.246c.068-.09.017-.245-.078-.295-.114-.06-.223-.02-.296.077l-.184.245c-.069.091-.018.246.077.296.114.06.224.02.296-.077M30.508 54.307l.25-.24c.083-.078.086-.228 0-.305a.221.221 0 0 0-.305 0l-.251.24c-.082.077-.085.227 0 .305.088.08.218.083.306 0M31.173 53.5l.121-.125c.08-.081.088-.226 0-.306-.085-.078-.221-.086-.306 0l-.12.125c-.08.081-.088.226 0 .306.085.078.221.086.305 0M28.044 59.239a.906.906 0 0 1 .248-.398c.202-.192-.105-.498-.306-.305a1.35 1.35 0 0 0-.359.588c-.08.267.337.38.417.115M28.861 58.075a.979.979 0 0 0 .415-.49c.043-.106-.047-.243-.152-.267-.125-.028-.22.039-.266.151a.63.63 0 0 1-.063.104c.017-.022-.009.01-.015.017a.716.716 0 0 1-.071.07c.017-.015-.002.001-.01.006a.99.99 0 0 1-.056.036.22.22 0 0 0-.078.295.22.22 0 0 0 .296.078M30.132 56.998l.496-.424c.089-.076.078-.228 0-.306-.088-.088-.217-.076-.306 0l-.496.424c-.089.076-.078.228 0 .306.088.088.217.076.306 0M31.364 55.774l.364-.311c.089-.076.078-.228 0-.306-.088-.088-.217-.076-.306 0l-.365.312c-.088.076-.078.227 0 .305.088.088.217.077.307 0M32.136 54.996l.123-.184c.063-.094.021-.243-.078-.295a.222.222 0 0 0-.296.077l-.123.184c-.063.094-.021.243.078.296a.222.222 0 0 0 .296-.078M28.724 60.622l.43-.43c.197-.196-.11-.502-.306-.305l-.43.43c-.198.196.108.502.306.305M29.937 59.235c-.012.031.005-.011.008-.017a.69.69 0 0 1 .026-.046l.02-.031c-.01.014.024-.028.024-.028a.63.63 0 0 1 .068-.065l.018-.012.055-.032c.103-.055.136-.197.078-.296a.22.22 0 0 0-.296-.077.923.923 0 0 0-.418.489c-.042.106.045.242.15.266.125.028.223-.038.267-.151M30.96 58.18l.251-.364c.067-.097.018-.24-.077-.296-.108-.063-.23-.019-.296.078l-.252.364c-.066.096-.018.24.078.296.107.062.23.018.296-.078M32.008 57.018a.973.973 0 0 1 .285-.375c.09-.074.077-.229 0-.306-.09-.089-.216-.074-.306 0a1.27 1.27 0 0 0-.353.463c-.047.107-.03.232.078.296.092.054.249.03.296-.078M29.366 61.41l.422-.26c.236-.146.019-.52-.219-.373l-.421.26c-.237.145-.02.52.218.372M30.75 60.131l.246-.245c.08-.08.086-.227 0-.306a.22.22 0 0 0-.306 0l-.245.246c-.08.08-.087.226 0 .305a.22.22 0 0 0 .306 0M31.872 59.12c.16-.121.295-.263.395-.439a.22.22 0 0 0-.077-.295.22.22 0 0 0-.296.077.901.901 0 0 1-.218.264c-.003.003-.038.03-.022.02-.093.07-.142.186-.078.295.054.092.202.148.296.078M32.861 58.055l.127-.181c.064-.094.02-.244-.078-.296-.11-.058-.227-.022-.296.077l-.126.182c-.065.093-.02.244.077.296.11.058.227.022.296-.078"/>
        <path fill="#FCD182" d="M35.832 45.426a.7.7 0 0 0 .103.608c.092.124.278.191.426.103.134-.08.21-.26.112-.394-.01-.014-.053-.1-.029-.036-.008-.023-.013-.046-.02-.07.019.056.003.006.001-.017.003-.034.001-.032-.004.005a.396.396 0 0 1 .012-.046.29.29 0 0 0-.218-.354c-.163-.035-.338.045-.383.2M36.318 47.192l.085.384c.032.148.23.247.383.201.17-.05.252-.196.217-.354l-.085-.384c-.032-.148-.23-.247-.383-.201-.17.05-.253.196-.217.354M36.86 48.87l.248.462c.075.14.288.178.426.104.154-.084.187-.255.112-.395l-.248-.461c-.074-.14-.288-.179-.426-.104-.154.083-.187.254-.112.394M37.477 50.3l.25.384c.083.13.283.188.426.103.14-.084.201-.256.112-.394l-.25-.384c-.083-.13-.283-.189-.426-.104-.14.084-.201.256-.112.395M38.161 51.527c.085.236.243.426.467.563.137.084.351.03.427-.103.082-.144.033-.305-.112-.394a1.092 1.092 0 0 1-.043-.027c.052.034.004 0-.006-.009a.765.765 0 0 1-.037-.034c-.01-.009-.047-.053-.01-.005a.749.749 0 0 1-.055-.081c-.004-.007-.036-.066-.018-.03.017.035-.011-.032-.012-.033-.051-.143-.217-.25-.383-.201-.154.046-.273.201-.218.354M39.25 52.934l.416.23c.14.078.349.033.427-.103a.281.281 0 0 0-.112-.394l-.416-.23c-.14-.078-.348-.034-.426.103a.282.282 0 0 0 .112.394M40.759 52.855c.055-.077.463-.362.519-.439"/>
        <path fill="#FCD182" d="M41.028 53c-.007.009-.062.06-.024.031.008-.005.014-.013.021-.02.02-.018.041-.035.063-.052.055-.046.112-.09.17-.134.104-.082.208-.16.289-.264.099-.125.023-.32-.112-.394-.158-.085-.327-.023-.426.104.006-.009.062-.06.023-.032l-.02.02-.063.053c-.056.046-.113.09-.17.134-.104.082-.208.16-.289.263-.099.126-.023.322.112.395.157.085.327.023.426-.104M41.91 51.552l.167-.384c.06-.14-.067-.323-.218-.355a.325.325 0 0 0-.383.202l-.166.384c-.061.14.066.322.217.354a.325.325 0 0 0 .383-.201M42.533 49.86c.01.054.003-.05.005-.064-.007.05.01-.021.015-.033-.016.046.015-.027.019-.034.02-.028.022-.031.004-.01a.484.484 0 0 1 .042-.04.277.277 0 0 0 0-.408.335.335 0 0 0-.44 0 .787.787 0 0 0-.246.741c.026.15.236.246.384.202.175-.053.244-.195.217-.355M42.624 48.162c-.007-.03-.007-.023 0 .023a.31.31 0 0 1-.002-.036c-.006-.054-.019.06-.001.004a.241.241 0 0 1 .008-.027c.007-.02.003-.012-.014.026-.01 0 .082-.1.006-.017.106-.115.131-.297 0-.408-.116-.098-.328-.122-.44 0a.607.607 0 0 0-.158.589c.04.146.226.248.384.2.163-.048.26-.197.217-.354M42.763 46.807v-.461a.304.304 0 0 0-.311-.288c-.17.007-.312.126-.312.288v.46c0 .152.143.296.312.289.168-.007.311-.127.311-.288M42.667 45.359l-.084-.154c-.073-.135-.29-.184-.426-.103a.283.283 0 0 0-.112.394l.084.154c.073.135.29.184.426.103.149-.089.19-.25.112-.394M39.969 53.569v.46c0 .151.143.296.312.289.168-.007.311-.127.311-.288v-.461a.304.304 0 0 0-.311-.289c-.17.007-.312.127-.312.289M39.969 55.156v.384c0 .15.143.295.312.288.168-.007.311-.126.311-.288v-.384a.304.304 0 0 0-.311-.288c-.17.007-.312.126-.312.288M39.969 56.576v.538c0 .371.623.371.623 0v-.538c0-.37-.623-.371-.623 0M40.057 58.174v.384c0 .15.143.295.311.288.17-.007.312-.127.312-.288v-.384a.304.304 0 0 0-.312-.289c-.169.007-.311.127-.311.289M40.057 59.408v.538c0 .371.623.372.623 0v-.538c0-.37-.623-.371-.623 0"/>
        <path fill="#010101" d="M33.575 29.49v.068c0 .138.121.27.264.263a.268.268 0 0 0 .264-.263v-.069c0-.138-.122-.27-.264-.263a.268.268 0 0 0-.264.263M33.809 30.316l.099.313c.041.131.185.229.324.184.132-.043.23-.183.185-.324l-.1-.313c-.041-.131-.185-.23-.324-.184-.132.042-.229.183-.184.324"/>
        <path fill="#FCD182" d="M33.702 63.648l.308.153c.135.067.319.04.395-.103.069-.13.04-.323-.104-.395l-.308-.153c-.135-.067-.318-.04-.395.104-.069.13-.04.322.104.394M35.153 64.153h.385c.15 0 .295-.132.288-.288a.293.293 0 0 0-.288-.288h-.385c-.15 0-.295.132-.288.288a.293.293 0 0 0 .288.288M36.615 64.23h.77c.37 0 .372-.576 0-.576h-.77c-.371 0-.372.576 0 .576M38.693 64.307h.384c.151 0 .296-.133.289-.288a.293.293 0 0 0-.289-.288h-.384c-.151 0-.296.132-.289.288a.293.293 0 0 0 .289.288M40.695 64.137c.26.05.524.04.772-.06.145-.057.246-.192.202-.354-.038-.137-.21-.26-.355-.201a.819.819 0 0 1-.466.06c-.153-.03-.311.042-.355.2-.039.141.048.325.202.355M42.616 63.988l.462-.077c.15-.025.246-.217.201-.355-.052-.161-.194-.228-.354-.201l-.462.077c-.15.025-.246.217-.202.355.053.16.195.227.355.2M43.84 63.73l.307-.154c.136-.068.185-.27.104-.394a.296.296 0 0 0-.395-.104l-.308.154c-.135.068-.184.27-.103.394.09.138.25.176.395.104M45.227 63.35c.103-.05.205-.102.308-.153.136-.067.184-.27.104-.394a.296.296 0 0 0-.395-.103c-.103.05-.206.102-.308.153-.136.067-.184.269-.104.394.09.138.25.175.395.103M46.225 62.884l.154-.076c.135-.068.184-.27.103-.395a.296.296 0 0 0-.394-.103l-.154.077c-.136.067-.185.27-.104.394.09.138.25.176.395.103M18.61 70.838c.372 0 .372-.576 0-.576-.371 0-.372.576 0 .576M20.223 70.512l.54-.153a.293.293 0 0 0 .2-.355.292.292 0 0 0-.354-.201l-.539.153a.293.293 0 0 0-.202.355c.042.15.205.244.355.2M21.842 70.377h.77c.37 0 .371-.576 0-.576h-.77c-.371 0-.372.576 0 .576M24.301 70.617l.924.15c.154.024.31-.04.355-.202.038-.137-.047-.33-.201-.354l-.924-.15c-.154-.025-.311.04-.355.201-.038.138.046.33.201.355M27.694 71.113c.324.203.69.309 1.073.317.371.009.371-.568 0-.576a1.503 1.503 0 0 1-.782-.239c-.315-.198-.605.3-.291.498M29.773 71.647c.285.166.593.28.918.33.154.024.31-.039.355-.201.038-.137-.047-.33-.201-.354a2.19 2.19 0 0 1-.78-.272c-.322-.187-.613.31-.292.497M32.308 72.36c.346.12.709.177 1.076.171.37-.006.372-.582 0-.576-.32.005-.621-.046-.923-.15-.351-.121-.503.435-.153.556M35.307 72.838l1.078.143c.156.021.287-.147.289-.288.002-.172-.135-.267-.289-.288l-1.078-.144c-.156-.02-.287.148-.289.289-.002.172.135.267.289.288M39.156 73.126c.34.047.67.036 1.003-.055.357-.098.206-.654-.154-.556a1.74 1.74 0 0 1-.696.056c-.154-.022-.31.037-.355.2-.037.135.046.334.202.355M41.767 73.12l.618-.142c.152-.035.242-.21.202-.355a.294.294 0 0 0-.355-.2l-.618.14c-.152.035-.242.21-.202.355a.294.294 0 0 0 .355.201M43.928 72.763l1.228-.319c.36-.093.207-.649-.153-.555l-1.228.319c-.36.093-.207.649.153.555M46.388 72.215l.687-.174c.36-.091.207-.647-.153-.556l-.688.174c-.36.091-.207.647.154.556M48.688 71.652l.552-.193c.146-.052.244-.197.201-.355-.04-.142-.207-.253-.355-.2l-.552.192c-.147.052-.244.197-.201.355.04.142.207.253.355.201M50.842 71.107l.468-.218c.14-.066.177-.269.103-.394-.085-.145-.253-.17-.395-.103l-.467.218c-.141.065-.177.268-.104.394.085.144.253.17.395.103M52.768 70.267l.62-.3c.14-.068.177-.267.103-.394-.084-.143-.254-.172-.395-.104l-.62.3c-.14.068-.177.268-.103.394.084.143.254.172.395.104M55.226 69.028l.462-.23c.14-.069.178-.266.103-.394-.083-.142-.255-.173-.394-.103l-.463.23c-.139.069-.178.266-.103.394.083.142.255.173.395.103M56.992 68.407a.516.516 0 0 1 .32-.034c.153.032.312-.045.355-.201.04-.144-.048-.322-.201-.355a1.165 1.165 0 0 0-.765.093c-.14.066-.177.268-.103.394.084.144.253.17.394.103M58.547 68.531a.367.367 0 0 1 .05-.013c-.035.004-.035.005 0 .003a.418.418 0 0 1 .052.01c.015.008.03.017.043.027-.047-.033.025.032.034.043.094.119.31.106.408 0 .116-.125.1-.28 0-.407a.71.71 0 0 0-.74-.219c-.145.043-.25.205-.202.355.047.146.2.247.355.201M59.353 69.05l.154.155c.107.106.302.114.408 0a.293.293 0 0 0 0-.408l-.154-.154c-.107-.107-.303-.114-.408 0a.293.293 0 0 0 0 .408"/>
        <path fill="#010101" d="M18.698 69.768c.371 0 .372-.576 0-.576-.371 0-.372.576 0 .576M33.675 64.82a21.088 21.088 0 0 0 13.063-.879c.34-.137.191-.695-.153-.555a20.56 20.56 0 0 1-12.756.878c-.36-.092-.514.464-.154.555M19.902 69.405a.791.791 0 0 1 .106-.066c.043-.022-.003-.006.047-.018.03-.007.06-.017.092-.02-.039.004.067.002.079.003a.29.29 0 0 0 .288-.288.295.295 0 0 0-.288-.288.985.985 0 0 0-.616.18c-.125.09-.187.25-.103.393.073.125.268.196.395.104M21.38 69.148h.539c.371 0 .372-.577 0-.577h-.539c-.371 0-.372.577 0 .577M22.918 69.144l.615.083c.154.02.31-.037.355-.201.037-.134-.046-.334-.201-.355l-.615-.082c-.154-.021-.31.037-.355.201-.037.134.046.333.201.354M24.92 69.453c.21-.032.42-.011.623.043.359.097.512-.459.153-.556a2.216 2.216 0 0 0-.929-.043c-.154.024-.239.217-.201.355.045.164.2.225.355.201M26.786 69.684c.17.196.423.255.672.218.15-.022.245-.219.201-.354-.052-.164-.194-.226-.354-.202.105-.015-.09 0 .016.001-.008 0-.092-.022-.054-.01a.426.426 0 0 1-.047-.028c.056.034-.013-.018-.026-.032-.1-.114-.308-.11-.408 0a.295.295 0 0 0 0 .407M28.844 70.37l.923.15c.154.025.31-.04.355-.201.038-.138-.047-.33-.201-.354l-.924-.151c-.154-.026-.31.04-.355.2-.038.139.047.33.202.355M31.006 70.8c.257.158.539.241.839.265.155.012.288-.141.288-.288 0-.166-.132-.276-.288-.289a1.216 1.216 0 0 1-.548-.186c-.317-.196-.607.303-.291.497M33.079 71.43l.84.18c.363.077.517-.478.154-.556l-.84-.18c-.363-.078-.518.477-.154.555M35 71.917c.264-.03.515-.014.77.058.359.1.511-.455.154-.556a2.395 2.395 0 0 0-.924-.078c-.155.018-.289.12-.289.288 0 .142.133.306.289.288M37.846 72.067h.77c.371 0 .372-.576 0-.576h-.77c-.371 0-.372.576 0 .576M40.464 72.08l.767-.095c.155-.02.289-.12.289-.288 0-.141-.133-.308-.289-.289l-.767.095c-.155.02-.289.119-.289.288 0 .141.133.308.289.288M42.992 71.796a.857.857 0 0 1 .548-.12c.154.022.31-.038.355-.202.037-.135-.046-.332-.202-.354-.35-.05-.683-.001-.992.179-.32.186-.03.684.291.497M45.08 71.448l.924-.228c.36-.09.208-.645-.153-.556l-.924.228c-.36.089-.208.645.153.556M47.528 70.636l.55-.288c.137-.072.179-.264.103-.394a.294.294 0 0 0-.395-.103l-.549.288c-.138.072-.18.264-.103.394.081.14.256.176.394.103M49.146 69.948l.621-.295c.141-.067.178-.268.104-.394-.084-.144-.253-.17-.395-.104l-.621.295c-.14.067-.178.268-.104.394.085.144.254.17.395.104M50.847 69.438l.688-.244c.147-.052.245-.197.201-.354-.039-.142-.207-.254-.355-.202l-.687.244c-.147.052-.245.197-.202.354.04.142.207.254.355.202M52.84 68.644a2.31 2.31 0 0 1 .704-.348c.355-.105.204-.661-.154-.556a2.784 2.784 0 0 0-.841.407c-.127.09-.188.25-.104.394.073.124.268.195.395.103M54.917 67.719l.625-.286c.142-.064.177-.27.104-.394-.085-.145-.253-.168-.395-.103l-.626.285c-.141.065-.176.27-.103.395.085.145.252.168.395.103M56.544 67.227h.615c.372 0 .372-.577 0-.577h-.615c-.372 0-.372.577 0 .577M58.376 67.385c.023-.022.019-.02-.013.007.028-.015.022-.014-.016.003a.278.278 0 0 1 .038-.011c-.041.004-.05.005-.028.004.073-.004-.042-.016.012 0 .03.009.025.006-.015-.009.027.017.024.013-.01-.011.117.095.296.122.409 0 .097-.106.124-.306 0-.408-.234-.19-.562-.201-.785.017-.108.106-.114.303 0 .408a.294.294 0 0 0 .408 0M59.33 67.79c.126.08.253.158.38.237.129.08.323.032.395-.103a.294.294 0 0 0-.104-.395l-.38-.236c-.129-.08-.324-.032-.395.103a.294.294 0 0 0 .103.394M23.879 55.747a.293.293 0 0 0-.016-.012c.009.007.018.015.026.024l.024.024c-.032-.034.011.02.017.03.006.01.012.02.017.032a.237.237 0 0 0-.009-.02c.052.141.198.252.355.201.138-.045.257-.203.201-.354a.86.86 0 0 0-.324-.422c-.124-.088-.326-.027-.395.103-.078.148-.028.301.104.394M24.373 56.395a.719.719 0 0 0 .46.448.291.291 0 0 0 .356-.201.295.295 0 0 0-.202-.355c-.037-.012.013.005.022.011-.011-.007-.026-.012-.038-.019l-.028-.018c-.026-.016.05.048.013.008l-.024-.025c-.03-.03.015.011.014.019 0 .003-.059-.13-.017-.021a.312.312 0 0 0-.133-.172.295.295 0 0 0-.222-.03c-.137.045-.259.204-.201.355M25.127 57.578a.76.76 0 0 0 .33.566c.124.087.326.026.395-.103.078-.149.028-.302-.104-.395.067.047 0-.004-.013-.016-.02-.024-.018-.019.009.014a.433.433 0 0 1-.039-.066c.016.04.019.045.008.016-.005-.02-.018-.104-.009-.016a.313.313 0 0 0-.084-.204.294.294 0 0 0-.204-.085c-.143.007-.306.128-.289.289M25.783 58.995l.192.25c.047.063.094.111.172.133.07.019.161.01.223-.03.118-.075.201-.265.103-.393l-.191-.251c-.048-.063-.094-.111-.173-.133a.295.295 0 0 0-.222.03c-.118.076-.201.265-.104.394M26.433 60.054l.251.569c.063.142.271.175.395.103.147-.086.166-.251.103-.394l-.25-.568c-.064-.143-.272-.176-.395-.104-.148.086-.167.251-.104.394M27.01 61.5l.181.32c.074.13.265.186.395.103a.294.294 0 0 0 .103-.394l-.181-.32c-.075-.131-.265-.187-.395-.104a.293.293 0 0 0-.103.395M27.5 62.77l.125.19c.083.125.259.19.395.103.125-.081.192-.26.103-.394l-.125-.19c-.083-.126-.259-.191-.395-.104-.125.081-.192.26-.103.395M52.503 51.312l-.064.126c-.067.135-.04.319.104.395.13.069.322.04.395-.104l.063-.126c.068-.134.04-.318-.104-.394-.13-.07-.322-.04-.394.103M52.09 52.407v.315c0 .15.133.295.289.288a.293.293 0 0 0 .289-.288v-.315c0-.151-.133-.296-.289-.289a.293.293 0 0 0-.289.289M52.027 53.794v.252c0 .151.133.295.289.288a.293.293 0 0 0 .288-.288v-.252c0-.15-.132-.295-.288-.288a.293.293 0 0 0-.289.288M51.906 55.196a.357.357 0 0 1 .01.038c-.006-.044-.007-.05-.005-.018v.02c-.003.032-.002.026.003-.019a.46.46 0 0 0-.016.057c.017-.039.019-.044.004-.016a.357.357 0 0 1-.02.033c-.086.125-.029.325.103.394.146.077.304.03.395-.103a.665.665 0 0 0 .083-.539c-.039-.146-.208-.249-.355-.201a.293.293 0 0 0-.202.354M51.522 56.695v.315c0 .15.133.295.289.288a.293.293 0 0 0 .288-.288v-.315c0-.15-.132-.295-.288-.288a.293.293 0 0 0-.289.288M51.332 58.145c.003.03.006.06.007.09l-.002.082a.408.408 0 0 0-.014.065c-.003.01-.032.096-.016.058-.06.139-.046.316.104.395.124.065.33.044.394-.104a1.13 1.13 0 0 0 .104-.586c-.018-.149-.12-.295-.289-.288-.141.007-.308.128-.288.288M51.179 59.448a.688.688 0 0 0-.084.538c.035.147.21.249.355.202a.294.294 0 0 0 .201-.355c-.015-.061-.005.053-.002-.005v-.041c-.006.038-.007.047-.003.025.003-.009.018-.078.007-.035-.01.04.017-.028.024-.039.083-.126.03-.324-.103-.394a.295.295 0 0 0-.395.104M50.906 60.837a.54.54 0 0 0-.125.535c.05.142.2.252.355.202.14-.046.255-.203.202-.355a.174.174 0 0 1-.008-.024c-.006-.022-.005-.011.003.034l-.001-.026c0-.022-.001-.011-.006.034l.004-.016c.01-.03.006-.023-.01.02l.008-.015a.201.201 0 0 0-.014.018c.101-.112.12-.298 0-.407-.11-.101-.3-.12-.408 0M42.235 56.132c1.179.111 2.356.122 3.537.033.368-.028.37-.605 0-.576-1.18.089-2.358.078-3.537-.033-.37-.035-.367.541 0 .576"/>
        <path fill="#62352E" d="M53.208 37.75a1.63 1.63 0 0 1 1.726.353c.097.093.226.214.259.343.094.369-.153.404-.387.393-.354-.017-.751-.167-1.097-.243-.157-.035-.256.177-.111.263.522.312.837.785.938 1.38.03.183.309.106.278-.076a2.188 2.188 0 0 0-1.07-1.553l-.112.264c.366.08.731.164 1.098.243.18.039.413.118.598.047.35-.135.276-.535.146-.804-.41-.848-1.484-1.214-2.342-.887-.172.065-.098.344.076.278M38.682 38.994a25.854 25.854 0 0 0 1.817-.075c.439-.034.877-.054 1.269-.27.074-.04.008-.155-.067-.113-.476.262-1.073.247-1.605.28-.47.029-.942.042-1.414.046-.084 0-.085.133 0 .132"/>
        <path fill="#404041" d="M33.503 29.291c.01.044.008.091-.013.134-.03.065-.018.142.048.18.057.034.15.018.18-.047a.507.507 0 0 0 .04-.337c-.016-.069-.097-.11-.163-.091a.134.134 0 0 0-.092.161M33.534 30.36l.066.167c.025.066.088.112.162.092.063-.017.118-.095.092-.162l-.065-.167c-.026-.067-.089-.113-.162-.092-.064.017-.118.095-.093.162M33.87 31.293l.096.235c.028.066.088.112.163.092.062-.017.12-.096.092-.162l-.097-.235c-.028-.065-.088-.112-.163-.092-.062.017-.12.096-.092.162M34.274 32.492l.134.333c.027.066.088.113.163.092.062-.017.119-.095.092-.162l-.135-.333c-.026-.066-.088-.112-.162-.092-.063.017-.119.096-.092.162M34.757 33.79l.1.167c.086.145.315.013.227-.133l-.1-.167c-.086-.146-.314-.014-.227.133M35.601 33.925v-.067c0-.17-.263-.17-.263 0v.067c0 .17.263.17.263 0M35.387 32.991l-.055-.269c-.014-.07-.097-.11-.162-.092-.073.02-.107.092-.092.162l.054.27c.014.07.097.11.162.091.073-.02.107-.092.093-.162M35.096 31.555l-.067-.2a.135.135 0 0 0-.162-.092c-.066.018-.115.094-.092.162l.066.2c.023.068.091.112.163.092.066-.018.114-.094.092-.162M34.689 30.09l-.064-.335c-.013-.07-.098-.11-.162-.092-.074.02-.106.092-.092.162l.063.334c.013.07.098.11.162.092.074-.02.106-.092.093-.162M34.558 28.89l.034-.134c.04-.164-.213-.234-.255-.07l-.033.134c-.042.164.213.234.254.07M35.303 27.441l-.067.034c-.064.031-.082.121-.047.18.037.065.116.08.18.047l.067-.033c.064-.032.081-.122.047-.18-.038-.065-.116-.08-.18-.048M35.137 28.289v.267c0 .17.264.17.264 0v-.267c0-.17-.264-.17-.264 0M35.273 29.458l.097.434c.038.166.292.096.255-.07l-.098-.434c-.037-.165-.291-.095-.254.07M35.551 30.557c.018.12.062.237.128.34.09.143.318.01.227-.133a.692.692 0 0 1-.1-.277c-.01-.07-.1-.11-.162-.092-.076.02-.103.091-.093.162M36.471 31.389c.17 0 .17-.264 0-.264s-.17.264 0 .264M36.79 30.556l-.06-.334c-.012-.07-.098-.11-.162-.092-.074.02-.105.091-.092.162l.06.334c.012.07.098.11.162.092.074-.02.105-.091.092-.162M36.398 29.221l-.063-.201c-.05-.162-.305-.093-.254.07l.062.201c.05.161.305.093.255-.07M36.27 28.222v-.2c0-.17-.265-.17-.265 0v.2c0 .17.264.17.264 0M36.536 27.422v-.034c0-.17-.263-.17-.263 0v.034c0 .17.263.17.263 0M37.271 27.065l.067-.033c.063-.032.081-.122.047-.18-.038-.065-.117-.08-.18-.048l-.067.034c-.064.032-.082.122-.048.18.038.065.117.08.181.047M37.2 27.416c-.03.09-.058.18-.086.271-.051.162.204.232.254.07l.085-.271c.051-.162-.203-.232-.254-.07M37.076 28.322c-.016.17-.003.337.032.503.036.166.29.095.255-.07a1.429 1.429 0 0 1-.023-.433c.015-.169-.249-.167-.264 0M37.295 29.621l.166.334c.076.152.304.019.228-.133l-.166-.334c-.075-.152-.303-.019-.228.133M37.657 30.491l.232.302c.044.056.114.086.18.047.056-.032.092-.123.048-.18l-.232-.302c-.043-.056-.113-.086-.18-.047-.056.033-.091.124-.048.18M38.908 30.825l-.067-.067c-.12-.12-.307.066-.187.186l.067.067c.12.12.307-.066.187-.186M38.64 30.153l-.075-.264c-.046-.163-.3-.094-.254.07l.074.264c.046.163.3.094.255-.07M38.45 29.259a.66.66 0 0 1-.072-.27c-.008-.169-.272-.17-.264 0a.979.979 0 0 0 .108.403c.078.15.306.018.228-.133M38.306 28.389v-.234c0-.17-.263-.17-.263 0v.234c0 .17.263.17.263 0M38.328 27.152a.76.76 0 0 1-.06-.23c-.007-.07-.056-.132-.132-.132-.066 0-.139.06-.132.132.013.128.044.245.097.363.029.065.123.08.18.047.067-.039.076-.115.047-.18M38.644 26.717c.026-.006.037-.003.066.016.06.038.146.013.18-.047a.134.134 0 0 0-.046-.18.349.349 0 0 0-.27-.043c-.07.016-.11.096-.092.162.02.072.093.108.162.092M39.027 27.056c.04.063.055.126.052.199-.003.071.063.132.132.132.074 0 .13-.06.132-.132a.588.588 0 0 0-.088-.332c-.09-.144-.318-.012-.228.133M39.218 28.023c.02.145.042.29.063.434.01.07.1.11.162.092.076-.02.102-.09.092-.162l-.063-.434c-.01-.07-.1-.11-.162-.092-.076.022-.103.091-.092.162M39.34 29.29l.04.332c.009.071.055.132.132.132.065 0 .14-.06.132-.132l-.04-.332c-.01-.07-.055-.132-.132-.132-.065 0-.141.06-.132.132M39.48 30.325a.406.406 0 0 1-.017.2c-.052.163.203.232.254.07a.688.688 0 0 0 .017-.34c-.013-.07-.098-.11-.162-.092-.074.02-.105.092-.092.162M37.306 31.188c.17 0 .17-.263 0-.263s-.17.263 0 .263M34.969 30.688c.17 0 .17-.263 0-.263s-.17.263 0 .263M34.021 28.543l.067-.067c.12-.12-.067-.306-.187-.186l-.066.067c-.12.12.066.306.186.186M40.592 30.99l.1-.134c.043-.057.01-.147-.047-.18-.067-.04-.138-.01-.18.047l-.1.133c-.044.057-.01.148.047.18.067.04.137.01.18-.047M40.775 30.087a.609.609 0 0 1 .026-.264c.05-.163-.205-.232-.255-.07a.915.915 0 0 0-.025.405c.01.07.1.109.162.092.076-.021.103-.092.092-.163M40.701 29.088l-.062-.3c-.015-.07-.097-.11-.163-.093-.072.02-.107.093-.092.163l.063.3c.014.07.097.11.162.092.072-.02.107-.092.092-.162M40.545 28.086l-.035-.233c-.01-.07-.099-.11-.162-.092-.075.02-.102.091-.092.162l.035.233c.01.07.1.11.162.092.076-.02.103-.091.092-.162M40.257 27.056l-.067-.1c-.039-.06-.116-.085-.18-.047-.059.034-.087.12-.047.18l.066.1c.04.06.117.085.18.047.06-.034.088-.12.048-.18M39.978 26.62c.17 0 .17-.264 0-.264s-.17.264 0 .264M40.913 27.085c.016 0 .019 0 .007-.002a.082.082 0 0 1 .011.004c-.015-.015.01.017 0 .002.09.143.318.011.228-.133a.274.274 0 0 0-.246-.134c-.071.004-.132.058-.132.132 0 .068.06.135.132.131M41.186 27.623l.067.2a.135.135 0 0 0 .162.093c.066-.019.115-.095.093-.163l-.067-.2c-.023-.067-.091-.111-.163-.092-.066.018-.114.095-.092.162M41.42 28.49l.038.2c.013.07.098.11.162.092.074-.02.106-.092.093-.162l-.038-.2c-.013-.07-.097-.11-.162-.092-.074.02-.105.092-.092.162M41.482 29.39v.266c0 .17.264.17.264 0v-.267c0-.17-.264-.17-.264 0M41.451 30.459a.187.187 0 0 1-.03.138c-.043.056-.054.132 0 .187.046.045.143.056.187 0a.472.472 0 0 0 .098-.395c-.014-.07-.098-.11-.162-.093-.074.02-.106.092-.093.163M42.108 31.283l.134-.166c.044-.056.054-.133 0-.187-.046-.046-.142-.056-.187 0l-.133.167c-.045.056-.055.132 0 .186.046.046.141.056.186 0M42.38 30.556v-.2c0-.17-.263-.17-.263 0v.2c0 .17.264.17.264 0M42.547 29.423v-.3c0-.17-.263-.17-.263 0v.3c0 .17.263.17.263 0M42.507 28.388l-.099-.267c-.024-.067-.089-.112-.162-.092-.064.017-.117.095-.092.162l.098.267c.025.067.09.112.163.092.064-.018.117-.095.092-.162M42.113 27.488v-.033c0-.17-.263-.17-.263 0v.033c0 .17.263.17.263 0M42.736 28.255l.067.134c.031.063.121.081.18.047.065-.038.08-.117.047-.18l-.066-.134c-.032-.063-.122-.081-.18-.047-.066.038-.08.116-.048.18M42.854 29.191l.04.3c.01.07.1.108.163.091.076-.02.101-.09.092-.162l-.04-.299c-.01-.07-.101-.109-.163-.092-.076.021-.102.091-.092.162M42.954 30.292a.348.348 0 0 1-.026.198c-.027.066.029.145.092.162.075.02.136-.025.162-.092a.598.598 0 0 0 .026-.338c-.013-.07-.098-.11-.162-.092-.074.02-.106.092-.092.162M42.87 31.224a.672.672 0 0 0-.087.3c-.005.07.063.131.132.131.075 0 .127-.06.131-.131a.376.376 0 0 1 .052-.167c.085-.147-.143-.28-.228-.133M42.851 32.224v.233c0 .17.264.17.264 0v-.233c0-.17-.264-.17-.264 0"/>
    </g>
</svg>
