<?xml version="1.0" encoding="UTF-8"?>
<svg width="375px" height="71px" viewBox="0 0 375 71" version="1.1" xmlns="http://www.w3.org/2000/svg" xmlns:xlink="http://www.w3.org/1999/xlink">
    <title>10 - Illustration / AchatDeCredit</title>
    <defs>
        <polygon id="path-1" points="0.8574 0.145 255.899579 0.145 255.899579 70.163 0.8574 70.163"></polygon>
    </defs>
    <g id="Page-3" stroke="none" stroke-width="1" fill="none" fill-rule="evenodd">
        <g id="OrangeEtMoi_Mobile-/-16---Mes-factures---04---Recap---01" transform="translate(0.000000, -136.000000)">
            <g id="Group-104" transform="translate(0.000000, 136.000000)">
                <polygon id="Fill-1" fill="#DEC2DE" points="0 70.239 374.999 70.239 374.999 0.221 0 0.221"></polygon>
                <polygon id="Fill-2" fill="#FFFFFF" points="229.001 42.391 278.055 42.391 278.055 0.221 229.001 0.221"></polygon>
                <g id="Group-103" transform="translate(50.000000, 0.076000)">
                    <mask id="mask-2" fill="white">
                        <use xlink:href="#path-1"></use>
                    </mask>
                    <g id="Clip-4"></g>
                    <path d="M179.001,42.315 L228.056,42.315 L228.056,-18.39 L179.001,-18.39 L179.001,42.315 Z M229.566,-19.146 L229.566,43.071 C229.566,43.488 229.228,43.827 228.81,43.827 L178.245,43.827 C177.828,43.827 177.489,43.488 177.489,43.071 L177.489,-19.146 C177.489,-19.563 177.828,-19.901 178.245,-19.901 L228.81,-19.901 C229.228,-19.901 229.566,-19.563 229.566,-19.146 L229.566,-19.146 Z" id="Fill-3" fill="#93CAEB" mask="url(#mask-2)"></path>
                    <polygon id="Fill-5" fill="#FF7A25" mask="url(#mask-2)" points="187.219 36.096 219.837 36.096 219.837 -12.168 187.219 -12.168"></polygon>
                    <polygon id="Fill-6" fill="#FFFFFF" opacity="0.6" style="mix-blend-mode: soft-light;" mask="url(#mask-2)" points="219.8365 36.0957 219.8365 32.1677 187.2185 2.3267 187.2185 20.0017 208.1055 36.0957"></polygon>
                    <polygon id="Fill-7" fill="#FFFFFF" opacity="0.6" style="mix-blend-mode: soft-light;" mask="url(#mask-2)" points="219.8365 20.1884 219.8365 8.7304 201.2195 -12.1676 187.2185 -12.1676 187.2185 -10.1646"></polygon>
                    <polygon id="Fill-8" fill="#FFFFFF" mask="url(#mask-2)" points="41.754 42.315 90.809 42.315 90.809 -18.39 41.754 -18.39"></polygon>
                    <path d="M41.754,42.315 L90.809,42.315 L90.809,-18.39 L41.754,-18.39 L41.754,42.315 Z M92.32,-19.146 L92.32,43.071 C92.32,43.488 91.982,43.827 91.564,43.827 L40.999,43.827 C40.582,43.827 40.243,43.488 40.243,43.071 L40.243,-19.146 C40.243,-19.563 40.582,-19.901 40.999,-19.901 L91.564,-19.901 C91.982,-19.901 92.32,-19.563 92.32,-19.146 L92.32,-19.146 Z" id="Fill-9" fill="#93CAEB" mask="url(#mask-2)"></path>
                    <polygon id="Fill-10" fill="#FF7A25" mask="url(#mask-2)" points="49.972 36.096 82.59 36.096 82.59 -12.168 49.972 -12.168"></polygon>
                    <polygon id="Fill-11" fill="#FFFFFF" opacity="0.6" style="mix-blend-mode: soft-light;" mask="url(#mask-2)" points="82.5904 36.0957 82.5904 32.1677 49.9724 2.3267 49.9724 20.0017 70.8594 36.0957"></polygon>
                    <polygon id="Fill-12" fill="#FFFFFF" opacity="0.6" style="mix-blend-mode: soft-light;" mask="url(#mask-2)" points="82.5904 20.1884 82.5904 8.7304 63.9734 -12.1676 49.9724 -12.1676 49.9724 -10.1646"></polygon>
                    <path d="M224.9234,93.6165 C224.5014,93.6165 224.1374,93.3015 224.0854,92.8725 C222.1264,76.5935 223.0434,56.9395 226.8114,34.4555 C226.9734,33.4865 227.1134,32.6455 227.1304,32.4385 C227.1144,32.0125 227.4234,31.6335 227.8564,31.5715 C228.3184,31.5075 228.7464,31.8275 228.8134,32.2895 C228.8454,32.5165 228.8194,32.6985 228.4784,34.7345 C224.7374,57.0595 223.8244,76.5515 225.7644,92.6695 C225.8194,93.1335 225.4894,93.5545 225.0264,93.6105 C224.9914,93.6145 224.9574,93.6165 224.9234,93.6165" id="Fill-13" fill="#C390C4" mask="url(#mask-2)"></path>
                    <path d="M209.4879,37.4174 C211.1449,39.0144 213.0399,40.3904 214.8919,41.3544 C215.3669,41.6014 215.8999,41.4634 216.1469,41.0424 L216.4579,40.5124 C216.7679,39.9804 216.5019,39.2204 215.8969,38.9214 C215.8919,38.9194 215.8879,38.9174 215.8839,38.9154 C211.7269,36.8594 210.7319,33.9364 212.0679,31.0964 C212.5659,30.0374 213.6929,28.7244 214.2759,27.7904 C215.2369,30.1654 216.7489,32.3884 219.2229,33.6014 C219.8889,33.9274 220.5999,33.5744 220.7199,32.8784 C220.8109,32.3544 220.5339,31.7804 220.0459,31.5004 C217.0879,29.8024 216.0249,25.6794 218.1249,23.2514 C218.5559,22.7514 218.9899,22.2764 219.4239,21.8264 C219.9569,23.1144 221.7519,24.7874 222.7439,25.6464 C223.1389,25.9884 223.6669,26.0704 224.0699,25.8474 C224.7219,25.4884 224.7639,24.5254 224.1539,23.9364 L223.9399,23.7294 C222.0299,21.8874 222.9409,18.5564 225.4329,18.2764 C227.5339,18.0404 229.9429,17.0024 231.3829,14.9644 L224.9059,51.5524 C224.8789,51.5324 223.2219,52.0524 223.1949,52.0324 C212.2219,51.8394 206.9849,47.1244 209.4879,37.4174" id="Fill-14" fill="#C390C4" mask="url(#mask-2)"></path>
                    <path d="M243.8404,45.8212 C241.7784,46.5082 239.5734,46.8822 237.5484,46.8962 C237.0284,46.9002 236.5864,46.5242 236.5034,46.0232 L236.3994,45.3912 C236.2934,44.7572 236.7964,44.1852 237.4524,44.1952 C237.4574,44.1952 237.4614,44.1952 237.4664,44.1952 C241.9764,44.2592 243.8804,42.0462 243.6194,38.8152 C243.5224,37.6102 242.9344,35.8782 242.7164,34.7482 C241.0294,36.4752 238.8884,37.8052 236.2074,37.7562 C235.4864,37.7432 234.9544,37.0862 235.0804,36.3922 C235.1754,35.8682 235.6234,35.4722 236.1674,35.4442 C239.4564,35.2742 241.8284,31.9922 240.7284,28.7812 C240.5014,28.1202 240.2654,27.4812 240.0204,26.8652 C239.0944,27.7962 236.8804,28.4882 235.6794,28.8112 C235.2004,28.9392 234.6894,28.7662 234.3954,28.3732 C233.9184,27.7382 234.2064,26.8352 234.9674,26.5812 L235.2334,26.4922 C237.6104,25.6982 237.9044,22.2172 235.7144,20.7922 C233.8684,19.5902 232.0114,17.5082 231.3824,14.9642 L224.9054,51.5522 C224.9374,51.5462 226.2784,52.8002 226.3114,52.7942 C236.4384,57.7632 242.8404,55.8952 243.8404,45.8212" id="Fill-15" fill="#C390C4" mask="url(#mask-2)"></path>
                    <path d="M225.4771,98.3984 C225.0671,98.3984 224.7061,98.0994 224.6421,97.6814 C222.4251,83.2744 232.8721,59.3424 233.3181,58.3314 C233.5061,57.9034 234.0051,57.7094 234.4321,57.8984 C234.8601,58.0854 235.0531,58.5854 234.8661,59.0124 C234.7581,59.2554 224.1721,83.5064 226.3141,97.4234 C226.3851,97.8854 226.0691,98.3174 225.6071,98.3884 C225.5631,98.3954 225.5201,98.3984 225.4771,98.3984" id="Fill-16" fill="#C390C4" mask="url(#mask-2)"></path>
                    <path d="M225.0855,85.1069 C224.6295,85.1069 224.2545,84.7449 224.2405,84.2859 C223.6605,64.6769 219.7075,58.8089 217.4025,57.0559 C215.9455,55.9479 214.8405,56.2019 214.7935,56.2129 C214.3485,56.3239 213.8855,56.0569 213.7675,55.6119 C213.6485,55.1669 213.8995,54.7109 214.3435,54.5839 C214.5305,54.5299 216.2315,54.1039 218.3145,55.6259 C221.4715,57.9329 225.3555,64.7689 225.9315,84.2359 C225.9445,84.7029 225.5775,85.0929 225.1105,85.1069 C225.1025,85.1069 225.0935,85.1069 225.0855,85.1069" id="Fill-17" fill="#C390C4" mask="url(#mask-2)"></path>
                    <path d="M226.7213,52.6108 C227.0803,54.5208 227.7423,56.3478 228.6013,57.8338 C228.8213,58.2148 229.2993,58.3148 229.7183,58.0778 L230.2463,57.7808 C230.7773,57.4828 230.9983,56.7778 230.7093,56.3048 C230.7073,56.3008 230.7053,56.2978 230.7033,56.2948 C228.7173,53.0458 229.5923,50.3468 232.1773,48.6258 C233.1413,47.9848 234.7193,47.3878 235.6773,46.8778 C235.0803,49.1298 234.9833,51.4768 236.1713,53.4028 C236.4923,53.9208 237.2233,53.9198 237.7003,53.4168 C238.0603,53.0378 238.1703,52.4768 237.9583,52.0648 C236.6753,49.5668 238.1683,45.8948 241.0983,44.7978 C241.7003,44.5708 242.2913,44.3648 242.8683,44.1788 C242.5533,45.4048 242.9753,47.4288 243.2433,48.4948 C243.3513,48.9208 243.7033,49.1908 244.1303,49.1728 C244.8223,49.1438 245.3883,48.3998 245.2563,47.6948 L245.2103,47.4488 C244.7963,45.2458 247.3343,42.9718 249.3663,43.7248 C251.0783,44.3598 253.4693,44.4818 255.6863,43.4348 L230.4693,69.8048 C230.4603,69.7778 228.9243,69.5418 228.9153,69.5148 C220.7623,65.0728 219.4413,59.2998 226.7213,52.6108" id="Fill-18" fill="#C390C4" mask="url(#mask-2)"></path>
                    <path d="M247.9098,72.6806 C245.9748,72.4176 244.1078,71.8506 242.5758,71.0706 C242.1818,70.8696 242.0578,70.3996 242.2748,69.9716 L242.5478,69.4306 C242.8198,68.8896 243.5168,68.6346 244.0058,68.8986 C244.0088,68.9006 244.0128,68.9026 244.0158,68.9036 C247.3748,70.7186 250.0388,69.7136 251.6388,67.0596 C252.2348,66.0696 252.7558,64.4726 253.2198,63.4936 C250.9898,64.1986 248.6388,64.4116 246.6468,63.3256 C246.1118,63.0336 246.0768,62.3056 246.5568,61.8066 C246.9208,61.4306 247.4778,61.2926 247.9018,61.4836 C250.4728,62.6346 254.0838,60.9696 255.0398,58.0036 C255.2368,57.3926 255.4148,56.7946 255.5728,56.2126 C254.3578,56.5856 252.3058,56.2676 251.2228,56.0526 C250.7908,55.9666 250.5018,55.6306 250.4988,55.2046 C250.4938,54.5156 251.2128,53.9156 251.9268,54.0126 L252.1758,54.0466 C254.4058,54.3486 256.5638,51.7136 255.7078,49.7316 C254.9848,48.0606 254.7448,45.6896 255.6858,43.4346 L230.4698,69.8046 C230.4968,69.8126 230.8098,71.3276 230.8368,71.3356 C235.6978,79.2196 241.5568,80.2476 247.9098,72.6806" id="Fill-19" fill="#C390C4" mask="url(#mask-2)"></path>
                    <path d="M188.1021,48.247 C188.5711,47.538 189.9121,47.599 191.0981,48.383 C192.2841,49.168 192.8651,50.378 192.3961,51.087 C191.9271,51.796 190.5851,51.735 189.4001,50.951 C188.2141,50.166 187.6331,48.955 188.1021,48.247 M180.8121,51.633 C182.9841,52.924 184.2841,55.175 184.7591,57.162 C185.3231,59.518 188.7061,60.259 190.2971,58.376 L190.4751,58.165 C190.9851,57.563 191.9361,57.567 192.3661,58.173 C192.6311,58.548 192.6131,59.053 192.3211,59.441 C191.5911,60.415 190.1531,62.184 188.9471,62.738 C189.4401,63.133 189.9571,63.527 190.4991,63.919 C193.1311,65.822 197.0641,64.66 198.3931,61.787 C198.6131,61.311 199.1441,61.027 199.6711,61.094 C200.3691,61.182 200.7991,61.844 200.5551,62.488 C199.6491,64.885 197.6351,66.404 195.4111,67.405 C196.3971,67.925 197.8191,68.946 198.9181,69.379 C201.8681,70.543 204.6281,69.488 206.1691,65.462 C206.1711,65.458 206.1721,65.454 206.1741,65.45 C206.3991,64.865 207.1161,64.583 207.6741,64.858 L208.2321,65.134 C208.6751,65.352 208.8721,65.853 208.6841,66.314 C207.9511,68.109 206.8161,69.961 205.4361,71.595 C215.2761,73.61 219.3091,68.458 218.2291,58.028 C218.2461,58.001 217.5421,56.447 217.5591,56.421 C217.5491,56.392 218.6271,55.069 218.6191,55.039 C222.3351,45.234 219.7561,39.221 209.7291,38.647 C210.6441,40.58 211.2661,42.661 211.5151,44.584 C211.5791,45.078 211.2601,45.512 210.7771,45.61 L210.1661,45.732 C209.5561,45.856 208.9351,45.399 208.8691,44.776 C208.8681,44.772 208.8681,44.768 208.8671,44.763 C208.4091,40.476 206.0101,38.75 202.8621,39.119 C201.6881,39.256 200.0511,39.879 198.9641,40.128 C200.8591,41.666 202.4151,43.651 202.6771,46.199 C202.7481,46.884 202.1631,47.414 201.4651,47.321 C200.9391,47.25 200.4981,46.839 200.4081,46.324 C199.8601,43.205 196.3561,41.074 193.3251,42.24 C192.7011,42.48 192.0981,42.727 191.5211,42.984 C192.5441,43.828 193.4821,45.906 193.9381,47.035 C194.1201,47.485 194.0091,47.977 193.6561,48.271 C193.0851,48.747 192.1641,48.507 191.8271,47.795 L191.7081,47.545 C190.6521,45.317 187.1931,45.167 186.0441,47.3 C185.0761,49.099 183.2431,50.941 180.8121,51.633" id="Fill-20" fill="#C390C4" mask="url(#mask-2)"></path>
                    <path d="M28.2331,65.0189 C27.9711,65.0189 27.7451,64.8229 27.7121,64.5569 C26.4971,54.4549 27.0661,42.2569 29.4041,28.3039 C29.5041,27.7029 29.5921,27.1809 29.6021,27.0529 C29.5921,26.7879 29.7841,26.5529 30.0521,26.5149 C30.3391,26.4749 30.6051,26.6729 30.6461,26.9599 C30.6661,27.1009 30.6511,27.2139 30.4391,28.4779 C28.1181,42.3319 27.5501,54.4289 28.7541,64.4319 C28.7901,64.7189 28.5841,64.9799 28.2961,65.0149 C28.2751,65.0179 28.2531,65.0189 28.2331,65.0189" id="Fill-21" fill="#C390C4" mask="url(#mask-2)"></path>
                    <path d="M18.6529,30.142 C19.6819,31.133 20.8579,31.987 22.0069,32.585 C22.3019,32.739 22.6329,32.653 22.7859,32.392 L22.9779,32.063 C23.1719,31.733 23.0059,31.261 22.6309,31.076 C22.6289,31.074 22.6259,31.073 22.6229,31.072 C20.0429,29.796 19.4249,27.982 20.2549,26.219 C20.5639,25.562 21.2629,24.747 21.6249,24.168 C22.2209,25.642 23.1599,27.021 24.6949,27.774 C25.1079,27.976 25.5489,27.757 25.6249,27.326 C25.6799,27 25.5079,26.644 25.2059,26.47 C23.3699,25.416 22.7109,22.858 24.0129,21.351 C24.2819,21.041 24.5499,20.746 24.8199,20.466 C25.1499,21.266 26.2639,22.304 26.8799,22.837 C27.1259,23.05 27.4529,23.1 27.7039,22.962 C28.1079,22.739 28.1339,22.142 27.7559,21.776 L27.6229,21.648 C26.4369,20.504 27.0029,18.437 28.5489,18.264 C29.8529,18.117 31.3479,17.473 32.2419,16.208 L28.2209,38.914 C28.2049,38.902 27.1769,39.225 27.1599,39.212 C20.3509,39.092 17.0999,36.166 18.6529,30.142" id="Fill-22" fill="#C390C4" mask="url(#mask-2)"></path>
                    <path d="M39.9723,35.3579 C38.6933,35.7839 37.3253,36.0159 36.0683,36.0249 C35.7453,36.0269 35.4703,35.7939 35.4193,35.4829 L35.3543,35.0899 C35.2883,34.6969 35.6013,34.3419 36.0083,34.3479 L36.0173,34.3479 C38.8153,34.3879 39.9973,33.0149 39.8353,31.0089 C39.7753,30.2619 39.4103,29.1869 39.2753,28.4849 C38.2283,29.5579 36.8993,30.3829 35.2363,30.3529 C34.7883,30.3439 34.4573,29.9369 34.5353,29.5059 C34.5953,29.1809 34.8733,28.9349 35.2103,28.9179 C37.2513,28.8119 38.7243,26.7749 38.0403,24.7829 C37.9003,24.3729 37.7533,23.9759 37.6023,23.5939 C37.0273,24.1709 35.6533,24.6009 34.9083,24.8009 C34.6113,24.8809 34.2933,24.7739 34.1113,24.5299 C33.8153,24.1349 33.9933,23.5749 34.4653,23.4179 L34.6303,23.3619 C36.1063,22.8699 36.2883,20.7089 34.9293,19.8249 C33.7843,19.0789 32.6313,17.7869 32.2423,16.2079 L28.2213,38.9139 C28.2413,38.9109 29.0743,39.6889 29.0933,39.6849 C35.3783,42.7689 39.3523,41.6089 39.9723,35.3579" id="Fill-23" fill="#C390C4" mask="url(#mask-2)"></path>
                    <path d="M28.5768,67.9863 C28.3218,67.9863 28.0978,67.8003 28.0578,67.5413 C26.6818,58.6013 33.1658,43.7483 33.4418,43.1213 C33.5588,42.8553 33.8688,42.7353 34.1348,42.8523 C34.3988,42.9693 34.5188,43.2783 34.4028,43.5443 C34.3368,43.6943 27.7658,58.7443 29.0958,67.3823 C29.1398,67.6683 28.9428,67.9363 28.6568,67.9803 C28.6298,67.9843 28.6028,67.9863 28.5768,67.9863" id="Fill-24" fill="#C390C4" mask="url(#mask-2)"></path>
                    <path d="M28.3336,59.7377 C28.0506,59.7377 27.8166,59.5127 27.8096,59.2287 C27.4486,47.0587 24.9956,43.4177 23.5646,42.3297 C22.6606,41.6417 21.9756,41.7997 21.9466,41.8067 C21.6696,41.8757 21.3826,41.7097 21.3096,41.4337 C21.2356,41.1567 21.3916,40.8737 21.6666,40.7957 C21.7826,40.7617 22.8386,40.4977 24.1316,41.4417 C26.0906,42.8737 28.5006,47.1157 28.8576,59.1977 C28.8666,59.4877 28.6386,59.7287 28.3496,59.7377 L28.3336,59.7377 Z" id="Fill-25" fill="#C390C4" mask="url(#mask-2)"></path>
                    <path d="M22.7144,78.4687 L35.0284,78.4687 C37.3184,78.4687 39.1744,76.6127 39.1744,74.3227 L39.1744,66.4437 C39.1744,65.6567 38.5364,65.0187 37.7494,65.0187 L19.9934,65.0187 C19.2064,65.0187 18.5684,65.6567 18.5684,66.4437 L18.5684,74.3227 C18.5684,76.6127 20.4254,78.4687 22.7144,78.4687" id="Fill-26" fill="#C390C4" mask="url(#mask-2)"></path>
                    <path d="M29.3482,39.5708 C29.5722,40.7558 29.9822,41.8908 30.5152,42.8128 C30.6522,43.0488 30.9482,43.1108 31.2082,42.9638 L31.5362,42.7788 C31.8652,42.5938 32.0022,42.1568 31.8242,41.8638 C31.8222,41.8618 31.8212,41.8598 31.8202,41.8578 C30.5862,39.8408 31.1302,38.1668 32.7352,37.0978 C33.3322,36.6998 34.3122,36.3298 34.9072,36.0128 C34.5352,37.4108 34.4752,38.8678 35.2132,40.0628 C35.4112,40.3838 35.8662,40.3828 36.1612,40.0708 C36.3852,39.8358 36.4532,39.4878 36.3222,39.2318 C35.5262,37.6818 36.4522,35.4028 38.2702,34.7218 C38.6452,34.5818 39.0112,34.4538 39.3692,34.3388 C39.1732,35.0988 39.4352,36.3558 39.6022,37.0168 C39.6682,37.2808 39.8872,37.4488 40.1532,37.4378 C40.5812,37.4198 40.9332,36.9578 40.8512,36.5208 L40.8232,36.3678 C40.5662,35.0008 42.1402,33.5888 43.4012,34.0558 C44.4642,34.4508 45.9482,34.5268 47.3242,33.8768 L31.6742,50.2408 C31.6682,50.2248 30.7152,50.0778 30.7092,50.0618 C25.6502,47.3048 24.8302,43.7218 29.3482,39.5708" id="Fill-27" fill="#C390C4" mask="url(#mask-2)"></path>
                    <path d="M42.4977,52.0263 C41.2977,51.8623 40.1387,51.5113 39.1867,51.0263 C38.9437,50.9023 38.8667,50.6103 39.0007,50.3443 L39.1697,50.0093 C39.3397,49.6733 39.7717,49.5153 40.0747,49.6793 L40.0817,49.6823 C42.1657,50.8083 43.8187,50.1853 44.8117,48.5373 C45.1827,47.9233 45.5057,46.9323 45.7937,46.3253 C44.4097,46.7623 42.9497,46.8953 41.7147,46.2203 C41.3827,46.0393 41.3597,45.5883 41.6587,45.2783 C41.8837,45.0443 42.2297,44.9593 42.4927,45.0773 C44.0887,45.7923 46.3297,44.7583 46.9227,42.9173 C47.0447,42.5383 47.1547,42.1683 47.2537,41.8063 C46.4997,42.0383 45.2267,41.8403 44.5547,41.7073 C44.2857,41.6533 44.1057,41.4443 44.1037,41.1803 C44.1017,40.7533 44.5477,40.3803 44.9897,40.4413 L45.1447,40.4623 C46.5297,40.6493 47.8687,39.0143 47.3367,37.7843 C46.8897,36.7473 46.7397,35.2763 47.3237,33.8763 L31.6747,50.2413 C31.6907,50.2463 31.8867,51.1863 31.9027,51.1913 C34.9197,56.0843 38.5557,56.7223 42.4977,52.0263" id="Fill-28" fill="#C390C4" mask="url(#mask-2)"></path>
                    <path d="M5.3814,36.8627 C5.6724,36.4227 6.5044,36.4607 7.2404,36.9477 C7.9764,37.4347 8.3374,38.1857 8.0464,38.6257 C7.7554,39.0657 6.9224,39.0277 6.1874,38.5407 C5.4504,38.0537 5.0904,37.3027 5.3814,36.8627 M0.8574,38.9647 C2.2054,39.7657 3.0124,41.1617 3.3074,42.3957 C3.6564,43.8577 5.7564,44.3177 6.7434,43.1487 L6.8544,43.0177 C7.1704,42.6447 7.7614,42.6467 8.0274,43.0237 C8.1934,43.2557 8.1814,43.5687 7.9994,43.8097 C7.5474,44.4147 6.6534,45.5117 5.9054,45.8557 C6.2114,46.1007 6.5334,46.3457 6.8694,46.5887 C8.5024,47.7697 10.9434,47.0487 11.7684,45.2647 C11.9034,44.9707 12.2344,44.7947 12.5614,44.8357 C12.9944,44.8897 13.2614,45.3007 13.1104,45.7007 C12.5474,47.1877 11.2984,48.1317 9.9174,48.7527 C10.5294,49.0747 11.4114,49.7087 12.0944,49.9777 C13.9244,50.6997 15.6374,50.0447 16.5944,47.5467 C16.5954,47.5447 16.5964,47.5417 16.5974,47.5387 C16.7354,47.1757 17.1814,47.0007 17.5274,47.1717 L17.8744,47.3427 C18.1494,47.4777 18.2714,47.7897 18.1544,48.0747 C17.6994,49.1897 16.9954,50.3387 16.1394,51.3527 C22.2454,52.6027 24.7484,49.4057 24.0774,42.9327 C24.0884,42.9167 23.6524,41.9517 23.6614,41.9357 C23.6564,41.9177 24.3254,41.0967 24.3194,41.0787 C26.6264,34.9927 25.0264,31.2617 18.8034,30.9057 C19.3704,32.1047 19.7574,33.3957 19.9114,34.5897 C19.9514,34.8957 19.7534,35.1657 19.4524,35.2257 L19.0744,35.3027 C18.6954,35.3787 18.3104,35.0957 18.2694,34.7087 C18.2694,34.7057 18.2684,34.7037 18.2684,34.7007 C17.9844,32.0407 16.4954,30.9687 14.5414,31.1977 C13.8134,31.2827 12.7974,31.6697 12.1224,31.8247 C13.2984,32.7787 14.2644,34.0097 14.4274,35.5917 C14.4714,36.0167 14.1084,36.3457 13.6754,36.2877 C13.3484,36.2437 13.0744,35.9887 13.0184,35.6697 C12.6784,33.7347 10.5034,32.4117 8.6224,33.1347 C8.2354,33.2837 7.8614,33.4377 7.5034,33.5967 C8.1384,34.1207 8.7204,35.4097 9.0034,36.1107 C9.1154,36.3897 9.0474,36.6957 8.8284,36.8777 C8.4744,37.1737 7.9024,37.0247 7.6934,36.5827 L7.6194,36.4277 C6.9644,35.0447 4.8174,34.9517 4.1044,36.2757 C3.5034,37.3917 2.3654,38.5347 0.8574,38.9647" id="Fill-29" fill="#C390C4" mask="url(#mask-2)"></path>
                    <path d="M132.4156,27.5795 C129.1156,28.7435 124.0576,29.3575 122.8496,30.7705 C119.5656,34.6135 115.5036,41.9945 111.7496,45.3785 C109.8136,47.1245 107.8236,48.9425 106.7586,51.3225 C105.4376,54.2715 105.7186,57.6655 106.1686,60.8655 C106.4836,63.1025 106.8686,65.3295 107.3236,67.5405 C107.4866,68.3385 107.7576,69.2525 108.5146,69.5495 C109.2926,69.8545 110.1286,69.3325 110.8006,68.8365 C114.7466,65.9235 118.6936,63.0105 122.6406,60.0975 C124.1656,58.9705 125.7146,57.8225 126.8546,56.3085 C131.0546,50.7355 128.4276,42.4825 131.2506,36.1015" id="Fill-30" fill="#FFF7B6" mask="url(#mask-2)"></path>
                    <path d="M132.2691,27.0478 C129.5191,27.9878 126.5241,28.2918 123.8581,29.4678 C122.7851,29.9408 122.1791,30.6888 121.4721,31.6058 C120.5631,32.7848 119.7131,34.0078 118.8711,35.2358 C116.9701,38.0028 115.1451,40.8648 112.9201,43.3888 C110.8071,45.7848 108.0711,47.5988 106.5531,50.4918 C104.8831,53.6768 105.1331,57.3458 105.6071,60.7938 C105.8911,62.8638 106.2411,64.9258 106.6481,66.9758 C106.8711,68.0958 107.0921,69.5688 108.3021,70.0538 C109.8241,70.6648 111.3571,69.1078 112.4591,68.2938 C114.1701,67.0308 115.8801,65.7688 117.5901,64.5058 C119.3001,63.2438 121.0111,61.9818 122.7211,60.7188 C124.1681,59.6498 125.6571,58.5828 126.8321,57.2068 C131.8191,51.3748 128.9071,43.0128 131.7271,36.3808 C132.0011,35.7348 131.0511,35.1728 130.7751,35.8238 C128.4951,41.1848 129.7891,47.1258 128.1011,52.6018 C127.0241,56.0948 124.4031,58.1138 121.5731,60.2038 C118.5461,62.4368 115.5211,64.6708 112.4951,66.9038 C111.7521,67.4528 110.9941,68.1848 110.1731,68.6068 C108.8171,69.3058 108.2491,68.9118 107.9221,67.6978 C107.4381,65.9008 107.1971,63.9948 106.9131,62.1558 C106.3631,58.5988 105.7431,54.5918 107.4111,51.2298 C108.8051,48.4178 111.4241,46.6888 113.4761,44.4208 C115.3501,42.3478 116.9321,40.0168 118.5071,37.7158 C119.4361,36.3598 120.3531,34.9958 121.3121,33.6608 C122.0511,32.6318 122.8201,31.2618 123.9551,30.6378 C125.1881,29.9578 126.6941,29.6828 128.0451,29.3478 C129.5611,28.9718 131.0821,28.6168 132.5621,28.1108 C133.2301,27.8828 132.9431,26.8178 132.2691,27.0478" id="Fill-31" fill="#000000" mask="url(#mask-2)"></path>
                    <path d="M108.4644,48.7846 C109.1454,53.8816 109.8254,58.9786 110.5064,64.0756 C110.7644,66.0086 111.0124,68.0366 110.3174,69.8576 C109.5324,71.9106 107.6934,73.3406 105.9394,74.6616 C105.0954,75.2976 104.1744,75.9606 103.1184,75.9816 C101.3014,76.0166 100.0504,74.2096 99.2584,72.5736 C98.0164,70.0056 97.0264,67.3146 96.3074,64.5526 C95.8824,62.9186 95.5514,61.2226 95.7684,59.5496 C96.1294,56.7656 97.9894,54.3556 100.2574,52.7006 C102.5244,51.0466 105.1864,50.0386 107.8134,49.0496" id="Fill-32" fill="#FFFFFF" mask="url(#mask-2)"></path>
                    <path d="M107.9137,48.7846 C108.5067,53.2236 109.0997,57.6626 109.6917,62.1026 C109.9697,64.1816 110.4607,66.3966 110.1047,68.4926 C109.7527,70.5646 108.3607,72.0346 106.7867,73.3146 C105.2327,74.5786 103.1857,76.3686 101.3167,74.6316 C99.9287,73.3426 99.2037,71.2536 98.5207,69.5406 C97.0607,65.8836 95.1857,61.1126 97.0097,57.2966 C99.0627,52.9966 103.7827,51.1556 107.9597,49.5816 C108.6177,49.3336 108.3327,48.2666 107.6667,48.5176 C103.5177,50.0816 99.0937,51.8316 96.6107,55.7426 C94.0297,59.8096 95.5177,64.6036 97.0557,68.7826 C98.0717,71.5446 99.9727,77.5716 104.0327,76.3876 C105.8407,75.8606 107.7347,74.1176 109.0177,72.7856 C110.5107,71.2356 111.2837,69.3886 111.3197,67.2336 C111.3697,64.3106 110.6857,61.2936 110.3007,58.4036 C109.8727,55.1966 109.4437,51.9906 109.0167,48.7846 C108.9237,48.0916 107.8197,48.0816 107.9137,48.7846" id="Fill-33" fill="#000000" mask="url(#mask-2)"></path>
                    <path d="M110.5592,43.8891 C110.3302,52.9181 108.7842,61.9131 105.9832,70.5001 C105.3202,72.5351 104.3842,74.7681 102.4002,75.5731 C100.9012,76.1811 99.1562,75.7801 97.7472,74.9841 C95.0782,73.4741 93.3162,70.6391 92.6582,67.6441 C91.9982,64.6491 98.6632,46.6531 103.7872,42.6981" id="Fill-34" fill="#FFFFFF" mask="url(#mask-2)"></path>
                    <path d="M110.0074,43.8891 C109.8194,50.6571 108.9234,57.3871 107.2874,63.9581 C106.5644,66.8611 105.9034,70.0961 104.4784,72.7501 C103.7684,74.0731 102.7344,75.1491 101.1634,75.2901 C99.5024,75.4391 97.8734,74.5981 96.6464,73.5381 C94.9404,72.0661 93.3474,69.5831 93.1664,67.2821 C93.0784,66.1531 93.4674,64.9191 93.7504,63.8431 C94.7254,60.1371 96.1384,56.5171 97.7384,53.0401 C99.3144,49.6181 101.1464,45.4921 104.1764,43.0881 C104.7324,42.6471 103.9464,41.8711 103.3964,42.3081 C100.3664,44.7121 98.5034,48.7931 96.9134,52.2101 C95.1294,56.0421 93.5264,60.0571 92.5284,64.1731 C92.2574,65.2911 91.9274,66.5531 92.1114,67.7101 C92.5014,70.1761 93.9874,72.6971 95.8664,74.3191 C97.8504,76.0311 100.8534,77.2361 103.3024,75.7301 C105.7304,74.2371 106.4714,70.9021 107.2234,68.3781 C109.5924,60.4281 110.8794,52.1791 111.1104,43.8891 C111.1304,43.1791 110.0274,43.1801 110.0074,43.8891" id="Fill-35" fill="#000000" mask="url(#mask-2)"></path>
                    <path d="M163.3922,26.7841 C168.8402,30.4121 174.2892,34.0411 179.7382,37.6701 C172.0192,60.2841 164.2772,82.9831 159.7032,106.4351 C148.7092,107.8661 137.4612,107.3061 126.6642,104.7911 C128.8852,81.2201 131.1052,57.6481 133.3252,34.0761 C133.5242,31.9601 133.7992,29.6711 135.2692,28.1341 C136.3962,26.9551 138.0322,26.4381 139.6052,26.0071 C143.5232,24.9321 147.5142,24.1201 151.5402,23.5771" id="Fill-36" fill="#FFF7B6" mask="url(#mask-2)"></path>
                    <path d="M163.1139,27.2602 C168.5619,30.8892 174.0109,34.5172 179.4599,38.1462 C179.3749,37.9392 179.2909,37.7312 179.2059,37.5242 C173.1979,55.1272 167.1809,72.7582 162.6419,90.8102 C161.3519,95.9392 160.1879,101.0982 159.1709,106.2882 C159.3479,106.1542 159.5249,106.0182 159.7029,105.8842 C148.7299,107.2832 137.5929,106.7412 126.8119,104.2592 L127.2169,104.7912 C128.3959,92.2632 129.5759,79.7362 130.7569,67.2082 C131.3389,61.0272 131.9209,54.8462 132.5029,48.6642 C132.7899,45.6152 133.0769,42.5662 133.3639,39.5162 C133.6309,36.6912 133.5909,33.5892 134.4029,30.8532 C135.3959,27.5092 138.5569,26.8202 141.5649,26.0612 C144.8999,25.2202 148.2799,24.5772 151.6869,24.1092 C152.3869,24.0132 152.0899,22.9502 151.3939,23.0462 C148.2969,23.4712 145.2219,24.0412 142.1819,24.7732 C139.8349,25.3392 137.0019,25.7982 135.1479,27.4842 C133.4089,29.0652 133.0359,31.4812 132.8099,33.7012 C132.4789,36.9562 132.1959,40.2162 131.8879,43.4722 C130.6629,56.4942 129.4359,69.5162 128.2099,82.5382 C127.5109,89.9562 126.8119,97.3732 126.1139,104.7912 C126.0929,105.0212 126.2999,105.2722 126.5179,105.3232 C137.3919,107.8262 148.6339,108.3982 159.7029,106.9872 C159.9309,106.9572 160.1839,106.8372 160.2339,106.5822 C163.8149,88.3152 169.2849,70.4992 175.1729,52.8622 C176.8479,47.8392 178.5589,42.8282 180.2689,37.8172 C180.3509,37.5772 180.2119,37.3242 180.0159,37.1942 C174.5679,33.5652 169.1189,29.9362 163.6709,26.3072 C163.0789,25.9132 162.5259,26.8682 163.1139,27.2602" id="Fill-37" fill="#000000" mask="url(#mask-2)"></path>
                    <path d="M145.9478,24.8466 C136.3688,48.5956 135.1148,70.8316 132.1238,94.2486 C129.5578,94.6956 126.8268,90.7706 124.4528,86.7136 C123.9548,68.0786 130.5758,28.1236 132.4158,27.5796 C137.1588,26.1766 141.2118,24.8716 146.1688,24.7636" id="Fill-38" fill="#FF7A25" mask="url(#mask-2)"></path>
                    <path d="M145.4166,24.7001 C138.4516,42.0571 135.5856,60.4131 133.4076,78.8821 C132.8036,84.0051 132.2236,89.1311 131.5716,94.2481 C131.7556,94.0651 131.9386,93.8811 132.1236,93.6971 C130.3096,93.9111 128.8846,92.1871 127.8726,90.9071 C127.2486,90.1171 126.6846,89.2821 126.1436,88.4331 C125.6326,87.6321 125.0016,86.8641 124.9866,85.8951 C124.9476,83.3891 125.0236,80.8831 125.1496,78.3811 C125.4526,72.3971 126.0436,66.4281 126.7566,60.4811 C127.4606,54.6171 128.2966,48.7661 129.2856,42.9431 C129.9796,38.8491 130.6906,34.7271 131.7606,30.7121 C131.9606,29.9571 132.2536,28.4901 132.6986,28.0401 C132.4876,28.2531 133.0086,27.9791 133.2456,27.9081 C133.8406,27.7321 134.4356,27.5541 135.0296,27.3801 C136.1806,27.0431 137.3346,26.7151 138.4976,26.4251 C141.0206,25.7971 143.5666,25.3921 146.1686,25.3141 C146.8766,25.2931 146.8796,24.1901 146.1686,24.2117752 C141.5376,24.3501 137.1366,25.5931 132.7266,26.9121 C131.6886,27.2221 131.4706,27.9061 131.1446,28.8871 C129.8986,32.6321 129.2806,36.6411 128.5926,40.5151 C126.3966,52.8701 124.7346,65.4141 124.0696,77.9501 C123.9846,79.5561 123.9216,81.1641 123.8926,82.7721 C123.8696,83.9981 123.5856,85.6761 123.9206,86.8601 C124.2126,87.8941 125.2146,89.0551 125.8156,89.9431 C126.4316,90.8511 127.0856,91.7471 127.8266,92.5601 C128.9226,93.7631 130.3856,95.0051 132.1236,94.8001 C132.4496,94.7621 132.6336,94.5751 132.6746,94.2481 C134.9656,76.2551 136.4086,58.0831 141.2436,40.5311 C142.6966,35.2571 144.4426,30.0701 146.4796,24.9931 C146.7436,24.3351 145.6786,24.0491 145.4166,24.7001" id="Fill-39" fill="#000000" mask="url(#mask-2)"></path>
                    <path d="M164.5191,27.8203 C161.1651,50.2083 156.9601,72.4693 151.9191,94.5393 C154.6931,95.8133 157.9121,96.0333 160.8161,95.0933 C162.4861,94.5523 165.6391,91.4693 165.9541,90.2833 C170.9201,71.5923 175.0221,55.6943 179.9881,37.0043 C174.8731,33.8883 169.7571,30.7723 164.6431,27.6563" id="Fill-40" fill="#FF7A25" mask="url(#mask-2)"></path>
                    <path d="M163.9869,27.6738 C161.3689,45.1128 158.2459,62.4758 154.6079,79.7318 C153.5759,84.6278 152.5009,89.5148 151.3879,94.3928 C151.3389,94.6078 151.4159,94.9158 151.6409,95.0148 C155.1409,96.5478 159.7249,96.9248 162.9129,94.4918 C164.1219,93.5688 165.3919,92.4358 166.1719,91.1108 C166.5909,90.3978 166.7189,89.5508 166.9289,88.7598 C167.2829,87.4268 167.6349,86.0938 167.9879,84.7608 C170.6399,74.7348 173.2609,64.6998 175.8949,54.6698 C177.4289,48.8278 178.9689,42.9878 180.5199,37.1508 C180.5839,36.9108 180.4769,36.6558 180.2659,36.5278 C175.1509,33.4118 170.0359,30.2968 164.9219,27.1808 C164.3129,26.8108 163.7579,27.7638 164.3649,28.1328 C169.4789,31.2488 174.5939,34.3638 179.7099,37.4798 C179.6259,37.2728 179.5409,37.0648 179.4569,36.8568 C176.9809,46.1748 174.5359,55.5018 172.0909,64.8278 C170.8779,69.4558 169.6629,74.0848 168.4439,78.7118 C167.8149,81.0978 167.1849,83.4848 166.5529,85.8708 C166.0719,87.6908 165.8819,89.8488 164.6489,91.3318 C163.6129,92.5798 162.2139,93.9808 160.6689,94.5618 C157.9799,95.5728 154.7769,95.1918 152.1979,94.0628 C152.2829,94.2708 152.3669,94.4778 152.4519,94.6858 C156.3739,77.4918 159.7969,60.1858 162.7019,42.7918 C163.5259,37.8568 164.3079,32.9148 165.0499,27.9668 C165.1549,27.2728 164.0919,26.9728 163.9869,27.6738" id="Fill-41" fill="#000000" mask="url(#mask-2)"></path>
                    <path d="M179.9889,38.2998 C174.2379,46.1298 171.2849,55.6098 168.4279,64.8958 C167.5329,67.8048 166.6279,70.8488 167.1559,73.8458 C167.6299,76.5388 169.2089,78.8868 170.7489,81.1448 C172.3989,83.5628 174.6529,86.2768 177.5599,85.9388 C179.2479,85.7428 180.6629,84.4838 181.4839,82.9978 C182.3059,81.5118 182.6329,79.8108 182.9329,78.1398 C184.1619,71.3308 185.6459,63.1858 187.1159,56.4258 C189.7329,44.3928 186.2339,41.7498 180.6499,37.4348" id="Fill-42" fill="#FFF7B6" mask="url(#mask-2)"></path>
                    <path d="M179.5133,38.0214 C174.5103,44.9014 171.5953,52.9544 169.0593,61.0004 C167.8163,64.9444 165.9963,69.2564 166.5453,73.4694 C167.0313,77.1924 169.5353,80.8674 171.9573,83.6434 C174.0933,86.0894 177.3723,87.6504 180.2373,85.3424 C183.2423,82.9194 183.4353,78.4364 184.0743,74.9264 C184.8803,70.4924 185.7023,66.0604 186.5903,61.6414 C187.3583,57.8234 188.4213,53.9944 188.5413,50.0824 C188.6233,47.3694 188.1683,44.6154 186.6283,42.3294 C185.1803,40.1794 183.0653,38.6104 181.0393,37.0444 C180.4853,36.6164 179.6993,37.3914 180.2593,37.8244 C183.6793,40.4674 186.8863,43.1134 187.3643,47.6954 C187.7013,50.9294 187.0353,54.1564 186.3643,57.3034 C185.5403,61.1604 184.7903,65.0324 184.0653,68.9084 C183.3703,72.6164 182.8803,76.4174 181.9783,80.0804 C181.5213,81.9344 180.7043,83.8834 178.9713,84.8844 C177.0963,85.9664 175.1253,85.1804 173.6563,83.8164 C172.3483,82.6024 171.3523,81.0904 170.3773,79.6074 C169.3003,77.9714 168.2863,76.2504 167.8223,74.3304 C166.8373,70.2644 168.6633,65.9614 169.8613,62.1274 C172.4373,53.8834 175.3413,45.6264 180.4653,38.5784 C180.8833,38.0034 179.9263,37.4524 179.5133,38.0214" id="Fill-43" fill="#000000" mask="url(#mask-2)"></path>
                    <path d="M148.566,50.771 C149.696,49.67 151.119,48.807 152.425,47.932 L152.001,47.988 C151.997,47.986 152.22,48.128 152.295,48.186 C152.481,48.328 152.65,48.494 152.817,48.657 C153.245,49.076 153.645,49.524 154.035,49.979 C154.716,50.771 155.366,51.59 156.003,52.417 C156.222,52.702 156.769,52.843 156.956,52.417 C157.647,50.839 158.337,49.261 159.029,47.682 C159.311,47.038 158.361,46.476 158.077,47.125 C157.385,48.704 156.695,50.282 156.003,51.861 L156.956,51.861 C156.248,50.941 155.531,50.028 154.772,49.148 C154.138,48.414 153.392,47.404 152.476,47 C152.099,46.834 151.886,46.967 151.589,47.168 C151.202,47.432 150.815,47.698 150.431,47.967 C149.533,48.597 148.575,49.223 147.786,49.991 C147.277,50.487 148.057,51.267 148.566,50.771" id="Fill-44" fill="#1F191A" mask="url(#mask-2)"></path>
                    <path d="M144.7525,48.9057 C144.1675,47.8797 143.5825,46.8547 142.9975,45.8287 C142.8135,45.5057 142.3925,45.4857 142.1315,45.7177 C141.1915,46.5517 140.2035,47.3327 139.2645,48.1687 C139.0405,48.3657 139.0625,48.7457 139.2645,48.9477 C139.4845,49.1697 139.8195,49.1467 140.0435,48.9477 C140.9835,48.1127 141.9715,47.3317 142.9115,46.4967 C142.6225,46.4597 142.3335,46.4227 142.0455,46.3847 C142.6305,47.4107 143.2155,48.4367 143.8005,49.4627 C144.1515,50.0787 145.1055,49.5237 144.7525,48.9057" id="Fill-45" fill="#1F191A" mask="url(#mask-2)"></path>
                    <path d="M177.358,67.0942 C180.713,70.5602 183.263,75.0442 183.462,79.8652 C183.661,84.6862 181.108,89.7682 176.665,91.6492 C174.671,92.4932 169.144,89.5212 168.714,88.5232 C166.564,83.5222 166.617,77.6202 168.855,72.6582" id="Fill-46" fill="#FFFFFF" mask="url(#mask-2)"></path>
                    <path d="M176.9674,67.4838 C181.9054,72.6618 185.1394,80.5398 180.9784,87.1738 C180.0954,88.5818 178.8984,89.8008 177.4564,90.6368 C176.2344,91.3458 175.2884,91.3158 173.9594,90.9038 C172.7414,90.5258 171.5664,89.9668 170.4834,89.2958 C169.2764,88.5488 168.9464,87.7848 168.5284,86.4118 C167.1804,81.9918 167.4804,77.1658 169.3304,72.9368 C169.6134,72.2928 168.6624,71.7308 168.3784,72.3798 C166.5714,76.5068 166.1054,81.0968 167.1374,85.4938 C167.4604,86.8708 167.7804,88.6078 168.9264,89.5498 C169.9684,90.4068 171.2384,91.0268 172.4804,91.5338 C173.6354,92.0058 175.0214,92.5138 176.2924,92.3108 C177.8184,92.0668 179.3414,90.8068 180.3804,89.7238 C182.9644,87.0288 184.2394,83.1698 183.9914,79.4648 C183.6634,74.5738 181.0674,70.1848 177.7474,66.7038 C177.2564,66.1898 176.4774,66.9698 176.9674,67.4838" id="Fill-47" fill="#000000" mask="url(#mask-2)"></path>
                    <path d="M144.5826,53.3647 C140.6746,68.5967 138.5206,84.2457 138.1676,99.9677 C138.1516,100.6777 139.2546,100.6777 139.2706,99.9677 C139.6206,84.3407 141.7616,68.7987 145.6456,53.6577 C145.8226,52.9697 144.7596,52.6767 144.5826,53.3647" id="Fill-48" fill="#1F191A" mask="url(#mask-2)"></path>
                    <path d="M166.485,16.4453 C163.177,21.2803 165.299,28.1763 162.022,33.0303 C161.327,34.0603 160.419,34.9423 159.517,35.8163 C154.945,40.2503 150.373,44.6843 145.799,49.1183 C145.672,39.7393 147.822,30.3403 152.035,21.8573" id="Fill-49" fill="#FFFFFF" mask="url(#mask-2)"></path>
                    <path d="M166.0201,16.1743 C162.7131,21.2323 164.9311,28.0093 161.4391,32.9283 C160.4101,34.3773 159.0001,35.5693 157.7301,36.8003 C156.3821,38.1083 155.0341,39.4153 153.6851,40.7233 C150.9301,43.3943 148.1751,46.0663 145.4191,48.7383 C145.7251,48.8643 146.0311,48.9913 146.3371,49.1183 C146.2461,39.7623 148.3701,30.5223 152.4991,22.1293 C152.8031,21.5103 151.8761,20.9653 151.5711,21.5863 C147.3581,30.1503 145.1681,39.5703 145.2621,49.1183 C145.2671,49.5873 145.8451,49.8223 146.1791,49.4983 C148.9941,46.7693 151.8071,44.0413 154.6221,41.3123 C157.1161,38.8933 160.0101,36.5743 162.1211,33.8033 C165.9211,28.8113 163.5801,21.8683 166.9491,16.7163 C167.3291,16.1363 166.3981,15.5963 166.0201,16.1743" id="Fill-50" fill="#000000" mask="url(#mask-2)"></path>
                    <path d="M148.0943,-9.1988 C143.4433,2.1452 145.4353,12.2582 146.5123,16.9892 C146.9583,18.9522 147.5863,21.0482 149.2043,22.2462 C150.7883,23.4202 152.9473,23.4502 154.8873,23.1072 C159.6753,22.2602 164.0013,19.4142 167.0333,15.6132 C170.0663,11.8122 171.8553,7.1082 172.5723,2.2992 C173.1153,-1.3458 173.0343,-5.2038 171.4773,-8.5438 C169.4373,-12.9148 164.8103,-15.9538 159.9883,-16.0898 C155.1653,-16.2248 150.3753,-13.4488 148.0943,-9.1988" id="Fill-51" fill="#FFFFFF" mask="url(#mask-2)"></path>
                    <path d="M147.5621,-9.3457 C144.6681,-2.1597 143.9881,5.5903 145.2081,13.2143 C145.6421,15.9313 146.0351,19.2063 147.6881,21.4743 C149.8811,24.4823 153.9741,24.0993 157.1351,23.1313 C164.6521,20.8303 169.8901,14.2623 172.1051,6.9243 C174.2771,-0.2727 174.2761,-9.1197 167.6481,-13.9687 C161.0371,-18.8047 151.5861,-16.6047 147.6181,-9.4767 C147.2721,-8.8567 148.2241,-8.2997 148.5701,-8.9207 C151.9301,-14.9557 159.6641,-17.3317 165.7261,-13.8987 C172.6291,-9.9887 173.1771,-1.7567 171.4291,5.2213 C169.7031,12.1143 165.4001,18.4713 158.7351,21.3733 C155.6661,22.7093 150.6531,24.0013 148.4291,20.6133 C147.0881,18.5703 146.7411,15.7193 146.3391,13.3363 C145.0641,5.7773 145.7551,-1.9237 148.6251,-9.0527 C148.8911,-9.7107 147.8251,-9.9967 147.5621,-9.3457" id="Fill-52" fill="#000000" mask="url(#mask-2)"></path>
                    <path d="M148.0943,-9.1988 C149.2463,-15.6198 155.6683,-27.2798 156.7103,-27.2808113 C161.2503,-27.2878 174.6473,-24.0458 181.6103,-15.5158 C182.4783,-14.4528 169.9673,13.7252 168.1573,14.0782 C169.7353,7.7232 169.0413,2.6102 169.1433,-1.2218 C169.1853,-2.8078 170.5603,-4.1708 170.3923,-5.3178 C170.2703,-6.1538 170.0953,-6.8728 169.8723,-7.4728 C169.6913,-7.9638 169.8323,-8.5648 169.4903,-8.9598 C169.1703,-9.3278 155.7013,-10.4278 151.4333,-13.1168" id="Fill-53" fill="#000000" mask="url(#mask-2)"></path>
                    <path d="M148.8033,-9.0035 C149.4473,-12.4295 150.8763,-15.7205 152.3753,-18.8485 C153.5613,-21.3215 154.8003,-24.0665 156.5653,-26.1945 C156.6633,-26.3135 156.7773,-26.4205 156.8743,-26.5375 C157.0603,-26.7605 156.7183,-26.5415 156.7823,-26.5455 C157.2513,-26.5705 157.7413,-26.5075 158.2083,-26.4605 C159.5223,-26.3275 160.8243,-26.0675 162.1073,-25.7615 C165.5693,-24.9365 168.9483,-23.6995 172.0993,-22.0455 C173.7913,-21.1565 175.4263,-20.1455 176.9443,-18.9825 C178.4533,-17.8255 179.6633,-16.4695 180.9883,-15.1255 C180.9043,-15.2105 180.9343,-15.4855 180.9153,-15.2555 C180.9043,-15.0995 180.9483,-15.3305 180.9013,-15.1405 C180.8393,-14.8875 180.7853,-14.6335 180.7143,-14.3815 C180.4983,-13.6095 180.2263,-12.8525 179.9503,-12.1005 C178.1623,-7.2005 176.0193,-2.4165 173.8203,2.3115 C172.6193,4.8925 171.3893,7.4635 170.0403,9.9705 C169.5803,10.8255 169.1123,11.6805 168.5813,12.4935 C168.4363,12.7165 168.2573,12.9785 168.1183,13.1535 C167.9193,13.4035 167.7853,13.4165 167.9623,13.3695 C168.2633,13.6705 168.5653,13.9725 168.8663,14.2735 C169.8083,10.3615 170.0033,6.4095 169.9143,2.4005 C169.8763,0.6925 169.6133,-1.1485 170.3293,-2.7435 C171.0423,-4.3305 171.2753,-5.3035 170.7873,-7.0285 C170.5343,-7.9265 170.5763,-9.3535 169.5503,-9.7265 C168.9723,-9.9375 168.2703,-9.9595 167.6663,-10.0465 C165.1453,-10.4135 162.6203,-10.7625 160.1153,-11.2345 C157.3503,-11.7555 154.2433,-12.2645 151.8043,-13.7525 C150.9943,-14.2465 150.2543,-12.9745 151.0623,-12.4825 C152.9683,-11.3195 155.2573,-10.7735 157.4123,-10.2905 C159.9913,-9.7115 162.6053,-9.3025 165.2183,-8.9235 C166.1343,-8.7905 167.0503,-8.6675 167.9643,-8.5265 C168.2303,-8.4855 168.6063,-8.4865 168.8563,-8.3785 C169.3203,-8.1775 169.0643,-8.3745 169.0603,-7.7775 C169.0573,-7.1065 169.4633,-6.3915 169.5803,-5.7255 C169.7643,-4.6775 169.2303,-3.9245 168.8413,-2.9945 C168.2953,-1.6855 168.3863,-0.3205 168.4143,1.0695 C168.4993,5.4025 168.4693,9.6395 167.4493,13.8835 C167.3183,14.4245 167.7993,14.9365 168.3533,14.7875 C169.4603,14.4895 170.2253,12.6605 170.7253,11.7765 C171.9993,9.5235 173.1323,7.1895 174.2433,4.8535 C176.7203,-0.3555 179.0923,-5.6465 181.1233,-11.0465 C181.5883,-12.2835 182.4683,-13.9595 182.3883,-15.3285 C182.3213,-16.4795 180.7833,-17.5735 180.0153,-18.2965 C178.4643,-19.7555 176.7363,-21.0305 174.9193,-22.1385 C171.6113,-24.1575 167.9713,-25.6685 164.2443,-26.7235 C162.7273,-27.1525 161.1843,-27.5095 159.6243,-27.7475 C158.7203,-27.8855 157.3803,-28.2435 156.4733,-27.9845 C155.6183,-27.7405 155.0103,-26.5845 154.5653,-25.9045 C153.5973,-24.4275 152.7523,-22.8665 151.9493,-21.2955 C150.0393,-17.5575 148.1643,-13.5455 147.3853,-9.3945 C147.2113,-8.4695 148.6283,-8.0735 148.8033,-9.0035" id="Fill-54" fill="#000000" mask="url(#mask-2)"></path>
                    <path d="M158.8883,1.2324 C158.7903,1.5754 158.6923,1.9184 158.5943,2.2614 C158.5553,2.3984 158.5783,2.5644 158.6503,2.6864 C158.7163,2.8004 158.8483,2.9104 158.9793,2.9404 C159.1203,2.9724 159.2793,2.9654 159.4043,2.8844 C159.5263,2.8064 159.6173,2.6964 159.6583,2.5544 C159.7553,2.2114 159.8543,1.8684 159.9513,1.5254 C159.9913,1.3884 159.9673,1.2234 159.8963,1.1004 C159.8293,0.9864 159.6983,0.8774 159.5673,0.8474 C159.4253,0.8154 159.2673,0.8214 159.1423,0.9024 C159.0203,0.9814 158.9283,1.0904 158.8883,1.2324" id="Fill-55" fill="#1F191A" mask="url(#mask-2)"></path>
                    <path d="M147.8912,-0.2242 L147.8912,0.8048 C147.8912,0.9468 147.9532,1.0948 148.0522,1.1948 C148.1482,1.2908 148.3052,1.3628 148.4432,1.3568 C148.5852,1.3508 148.7332,1.3038 148.8322,1.1948 C148.9312,1.0878 148.9942,0.9548 148.9942,0.8048 L148.9942,-0.2242 C148.9942,-0.3652 148.9322,-0.5142 148.8322,-0.6142 C148.7372,-0.7092 148.5792,-0.7822 148.4432,-0.7752 C148.3002,-0.7692 148.1522,-0.7222 148.0522,-0.6142 C147.9532,-0.5062 147.8912,-0.3732 147.8912,-0.2242" id="Fill-56" fill="#1F191A" mask="url(#mask-2)"></path>
                    <path d="M150.2203,7.4619 C150.9913,7.9729 151.9513,8.1289 152.8503,7.9409 C153.1333,7.8809 153.3243,7.5329 153.2363,7.2619 C153.1393,6.9629 152.8603,6.8139 152.5573,6.8769 C152.5093,6.8869 152.4613,6.8949 152.4133,6.9039 C152.3533,6.9129 152.3663,6.9119 152.4513,6.8999 C152.4273,6.9019 152.4033,6.9049 152.3783,6.9069 C152.2933,6.9159 152.2083,6.9199 152.1223,6.9199 C152.0253,6.9199 151.9273,6.9159 151.8303,6.9069 C151.8183,6.9049 151.8063,6.9039 151.7943,6.9029 C151.7333,6.8959 151.7453,6.8979 151.8313,6.9089 C151.8273,6.8989 151.7033,6.8869 151.6873,6.8839 C151.6033,6.8669 151.5203,6.8469 151.4383,6.8229 C151.3913,6.8099 151.3453,6.7949 151.2983,6.7789 C151.2763,6.7709 151.1723,6.7479 151.1613,6.7279 C151.2373,6.7599 151.2473,6.7639 151.1933,6.7399 C151.1813,6.7349 151.1703,6.7299 151.1583,6.7249 C151.1153,6.7039 151.0713,6.6829 151.0283,6.6599 C150.9423,6.6139 150.8583,6.5639 150.7773,6.5089 C150.5353,6.3499 150.1563,6.4539 150.0223,6.7069 C149.8763,6.9839 149.9633,7.2909 150.2203,7.4619" id="Fill-57" fill="#1F191A" mask="url(#mask-2)"></path>
                    <path d="M168.4713,4.3911 C169.0163,3.6411 169.6403,2.9061 170.4803,2.5131 C171.3193,2.1201 172.4233,2.1581 173.0643,2.8271 C173.7343,3.5261 173.6993,4.6301 173.5233,5.5821 C173.1943,7.3601 172.5203,9.0731 171.5493,10.5991 C170.9493,11.5441 170.1703,12.4621 169.1013,12.7971 C168.0333,13.1311 166.6483,12.6341 166.3733,11.5471" id="Fill-58" fill="#FFFFFF" mask="url(#mask-2)"></path>
                    <path d="M168.9478,4.6694 C169.6688,3.6894 171.2508,2.0304 172.5688,3.1164 C173.1378,3.5864 173.1268,4.4574 173.0418,5.1224 C172.9418,5.9084 172.7188,6.6964 172.4638,7.4444 C171.9618,8.9104 171.2038,10.5204 170.0528,11.5914 C169.5518,12.0594 168.9018,12.4154 168.1968,12.3394 C167.6298,12.2774 167.0758,11.9724 166.9058,11.4004 C166.7048,10.7224 165.6388,11.0114 165.8428,11.6934 C166.2358,13.0214 167.6968,13.6484 168.9968,13.3914 C170.5578,13.0814 171.6098,11.6284 172.3528,10.3354 C173.2278,8.8124 173.8708,7.0944 174.1148,5.3504 C174.3178,3.8984 173.9658,2.2294 172.3498,1.8024 C170.4738,1.3074 169.0098,2.7334 167.9958,4.1124 C167.5748,4.6854 168.5308,5.2364 168.9478,4.6694" id="Fill-59" fill="#000000" mask="url(#mask-2)"></path>
                    <path d="M150.5826,13.6796 C152.1396,12.1856 154.3916,11.4356 156.5336,11.7566 C156.8286,11.8006 157.1266,11.6826 157.2126,11.3706 C157.2836,11.1106 157.1236,10.7376 156.8276,10.6926 C154.2786,10.3116 151.6686,11.1096 149.8036,12.8996 C149.2896,13.3916 150.0706,14.1716 150.5826,13.6796" id="Fill-60" fill="#1F191A" mask="url(#mask-2)"></path>
                    <path d="M167.9439,8.707 C168.7199,8.115 169.5429,7.584 170.4059,7.128 C170.7449,6.949 171.1789,6.661 171.5819,6.707 C171.7119,6.721 171.7509,6.747 171.8399,6.86 C171.8369,6.856 171.8439,6.888 171.8609,6.927 C171.8379,6.873 171.8549,6.937 171.8629,6.929 C171.8669,6.925 171.9289,6.802 171.8529,6.936 C171.4969,7.551 172.4499,8.107 172.8049,7.492 C173.1049,6.973 172.9349,6.332 172.4899,5.953 C171.9649,5.506 171.2619,5.543 170.6549,5.79 C169.4859,6.265 168.3859,6.993 167.3869,7.755 C167.1509,7.935 167.0259,8.23 167.1889,8.509 C167.3249,8.742 167.7059,8.889 167.9439,8.707" id="Fill-61" fill="#1F191A" mask="url(#mask-2)"></path>
                    <path d="M142.3297,-2.1749 C144.0327,-2.2369 145.7377,-2.1799 147.4327,-1.9879 C148.1957,-1.9019 148.9557,-1.7849 149.7117,-1.6429 C150.1127,-1.5669 150.5137,-1.4849 150.9127,-1.3939 C151.0817,-1.3549 151.2587,-1.3219 151.4247,-1.2669 C151.4737,-1.2509 151.8977,-1.0389 151.7687,-1.1939 C151.8267,-1.1249 151.7807,-0.6959 151.7617,-0.4829 C151.7207,-0.0609 151.6417,0.3571 151.5527,0.7711 C151.3527,1.7001 151.1077,2.6861 150.6277,3.5141 C150.3457,4.0001 150.0337,4.0881 149.4147,4.2121 C148.6197,4.3701 147.7917,4.3861 146.9837,4.3631 C146.0507,4.3371 145.1157,4.2401 144.2057,4.0241 C143.5937,3.8781 142.8537,3.6931 142.3837,3.2461 C141.8087,2.7001 142.0147,1.3551 142.0887,0.6111 C142.1967,-0.4569 142.4577,-1.5139 142.5237,-2.5849 C142.5667,-3.2939 141.4637,-3.2919 141.4207,-2.5849 C141.3547,-1.5149 141.0937,-0.4569 140.9857,0.6111 C140.8877,1.5881 140.7637,2.8611 141.3477,3.7221 C141.7957,4.3831 142.6347,4.7161 143.3667,4.9401 C144.3657,5.2451 145.4247,5.3821 146.4647,5.4431 C147.4727,5.5031 148.4917,5.4801 149.4887,5.3151 C150.1767,5.2001 150.9047,5.0061 151.3427,4.4261 C151.9597,3.6091 152.2637,2.5241 152.5057,1.5441 C152.7197,0.6791 152.9697,-0.3119 152.8787,-1.2109 C152.8177,-1.8169 152.3477,-2.1199 151.7947,-2.3059 C150.8097,-2.6359 149.7177,-2.7749 148.6937,-2.9249 C146.5857,-3.2359 144.4597,-3.3559 142.3297,-3.2779 C141.6217,-3.2519 141.6187,-2.1489 142.3297,-2.1749" id="Fill-62" fill="#1F191A" mask="url(#mask-2)"></path>
                    <path d="M155.6539,-1.273 C155.0869,-0.137 154.9859,1.361 154.9419,2.603 C154.8989,3.824 154.9129,5.911 156.1309,6.631 C156.6799,6.956 157.3609,7.1 157.9769,7.236 C158.7869,7.416 159.6079,7.548 160.4299,7.658 C162.0399,7.874 163.8789,8.23 165.1849,7.033 C165.9769,6.307 166.5219,5.235 166.6789,4.176 C166.8579,2.969 167.0649,1.706 167.085965,0.485 C167.0899,0.227 166.9079,0.037 166.6799,-0.047 C164.9359,-0.684 163.0509,-0.988 161.2179,-1.242 C159.5989,-1.467 157.8829,-1.732 156.2459,-1.575 C155.5459,-1.507 155.5379,-0.404 156.2459,-0.472 C157.8309,-0.625 159.4989,-0.382 161.0659,-0.159 C162.8519,0.094 164.6859,0.395 166.3869,1.017 C166.2529,0.839 166.1169,0.662 165.9819,0.485 C165.9669,1.431 165.7879,2.368 165.6749,3.305 C165.5629,4.228 165.3919,5.051 164.8129,5.81 C164.2249,6.582 163.5529,6.8 162.6169,6.757 C162.0439,6.731 161.4749,6.686 160.9049,6.616 C159.6129,6.459 158.2269,6.289 157.0039,5.823 C156.5799,5.662 156.4559,5.494 156.2949,5.003 C156.0799,4.353 156.0339,3.663 156.0369,2.983 C156.0399,2.225 156.1109,1.465 156.2429,0.718 C156.2979,0.404 156.3619,0.09 156.4449,-0.218 C156.4729,-0.325 156.5049,-0.43 156.5379,-0.535 C156.5519,-0.583 156.5699,-0.63 156.5879,-0.677 C156.6299,-0.792 156.5579,-0.621 156.6059,-0.716 C156.9229,-1.35 155.9709,-1.909 155.6539,-1.273" id="Fill-63" fill="#1F191A" mask="url(#mask-2)"></path>
                    <path d="M152.4234,2.3564 C152.5144,2.3124 152.2924,2.3944 152.3944,2.3684 C152.4124,2.3634 152.4314,2.3564 152.4484,2.3504 C152.5034,2.3344 152.5594,2.3234 152.6144,2.3124 C152.7114,2.2934 152.6144,2.3254 152.5814,2.3154 C152.6054,2.3224 152.6444,2.3104 152.6674,2.3084 C152.7334,2.3034 152.7984,2.3014 152.8634,2.3024 C152.9914,2.3024 153.1184,2.3144 153.2454,2.3254 C153.3524,2.3354 153.1664,2.3124 153.2374,2.3234 C153.2714,2.3284 153.3044,2.3334 153.3374,2.3384 C153.4104,2.3514 153.4844,2.3654 153.5574,2.3804 C153.8234,2.4364 154.0874,2.5124 154.3414,2.6104 C154.3704,2.6214 154.3994,2.6334 154.4284,2.6444 C154.4934,2.6684 154.3214,2.5954 154.4124,2.6384 C154.4654,2.6634 154.5174,2.6864 154.5684,2.7124 C154.6674,2.7634 154.7624,2.8194 154.8534,2.8844 C155.0874,3.0534 155.4774,2.9334 155.6074,2.6864 C155.7574,2.4014 155.6594,2.1124 155.4094,1.9324 C154.9414,1.5954 154.3304,1.4094 153.7714,1.3004 C153.1424,1.1784 152.4604,1.1214 151.8664,1.4034 C151.6054,1.5284 151.5174,1.9224 151.6684,2.1584 C151.8414,2.4264 152.1444,2.4894 152.4234,2.3564" id="Fill-64" fill="#1F191A" mask="url(#mask-2)"></path>
                    <path d="M166.4107,1.7348 L169.3817,3.0238 C169.6447,3.1388 169.9847,3.1108 170.1357,2.8258 C170.2617,2.5888 170.2207,2.1938 169.9377,2.0718 L166.9677,0.7828 C166.7037,0.6678 166.3627,0.6958 166.2127,0.9808 C166.0877,1.2178 166.1287,1.6118 166.4107,1.7348" id="Fill-65" fill="#1F191A" mask="url(#mask-2)"></path>
                    <path d="M142.4947,-0.3536 C143.0317,-0.1606 143.5677,0.0314 144.1047,0.2244 C144.2327,0.2704 144.4157,0.2354 144.5297,0.1684 C144.6437,0.1024 144.7537,-0.0296 144.7827,-0.1606 C144.8537,-0.4706 144.6887,-0.7346 144.3977,-0.8396 C143.8617,-1.0316 143.3247,-1.2246 142.7887,-1.4166 C142.6597,-1.4626 142.4777,-1.4286 142.3637,-1.3616 C142.2487,-1.2946 142.1407,-1.1636 142.1097,-1.0316 C142.0397,-0.7216 142.2037,-0.4576 142.4947,-0.3536" id="Fill-66" fill="#1F191A" mask="url(#mask-2)"></path>
                    <path d="M158.2682,21.4467 C154.9612,18.5977 151.6632,15.7737 144.5302,18.2377 C143.3342,20.8417 150.4982,19.5787 153.5722,22.2787 C151.7152,22.9827 149.8182,23.7097 148.3062,24.9977 C146.7942,26.2847 146.2372,31.6067 147.0422,32.6487 C147.5902,33.3567 148.9892,35.1117 149.7892,35.5117 C150.5892,35.9117 151.6562,35.9157 152.2942,35.2887 C152.9332,34.6627 152.8072,33.3637 151.9622,33.0677 C153.0912,36.2527 157.3042,43.6757 159.4482,41.9557 C159.4482,41.9557 159.6062,43.9437 159.7502,46.1067 C162.4512,86.4477 174.4202,86.9677 175.9072,86.6807 C180.2052,85.8187 180.5862,76.4437 179.2202,72.5647 C176.0622,63.5947 166.9682,40.0477 165.2212,36.3247 C163.4422,32.5327 159.5202,24.9007 158.2682,21.4467" id="Fill-67" fill="#FFFFFF" mask="url(#mask-2)"></path>
                    <path d="M158.6578,21.0566 C156.8948,19.5386 155.0828,18.0256 152.8448,17.2706 C151.5988,16.8516 150.2658,16.6936 148.9578,16.7576 C148.1438,16.7976 147.3288,16.9176 146.5338,17.0926 C145.8778,17.2376 144.6808,17.3556 144.1958,17.8046 C142.8078,19.0886 144.9688,20.2516 145.9648,20.4936 C148.3608,21.0746 151.1888,21.0196 153.1808,22.6686 C153.2628,22.3616 153.3448,22.0546 153.4258,21.7466 C151.0858,22.6366 148.0118,23.5836 146.9658,26.0866 C146.2258,27.8586 145.7328,30.4576 146.3058,32.3446 C146.5658,33.2016 147.3468,33.9376 147.9308,34.5856 C148.6928,35.4306 149.4958,36.2306 150.6918,36.3236 C151.6888,36.4006 152.7418,35.9806 153.1178,34.9926 C153.4668,34.0776 153.1138,33.0336 152.2408,32.5916 C151.8488,32.3926 151.2548,32.7286 151.4308,33.2146 C152.3248,35.6726 153.6408,38.0686 155.2308,40.1436 C156.1338,41.3216 158.0228,43.6376 159.7258,42.4316 L158.8968,41.9556 C159.8038,53.4506 160.4238,65.4326 164.8508,76.2426 C166.4948,80.2536 168.9878,85.0486 173.2608,86.7866 C174.0388,87.1036 174.9238,87.3386 175.7708,87.2526 C179.7218,86.8496 180.4168,81.0146 180.4708,77.9986 C180.5538,73.5186 178.7268,69.5226 177.1918,65.4026 C175.2718,60.2536 173.3088,55.1196 171.3198,49.9976 C169.7288,45.9046 168.1448,41.8046 166.4418,37.7556 C164.5968,33.3696 162.2928,29.1836 160.3098,24.8586 C159.7728,23.6876 159.2458,22.5096 158.7998,21.3006 C158.5558,20.6396 157.4898,20.9256 157.7358,21.5936 C159.5708,26.5666 162.1978,31.2516 164.4738,36.0296 C165.8988,39.0216 167.0598,42.1476 168.2748,45.2276 C171.8438,54.2716 175.4658,63.3356 178.6258,72.5326 C179.3518,74.6486 179.4778,76.9466 179.3158,79.1646 C179.1638,81.2546 178.7518,84.0286 177.0688,85.4916 C176.1398,86.2986 175.3538,86.2826 174.2938,85.9836 C170.6328,84.9496 168.2498,80.9636 166.7188,77.7596 C164.8908,73.9366 163.7418,69.7966 162.8498,65.6676 C161.4108,59.0036 160.7238,52.2136 160.2558,45.4216 C160.1758,44.2656 160.0908,43.1106 159.9998,41.9556 C159.9698,41.5776 159.5398,41.2176 159.1698,41.4796 C157.8718,42.3986 155.9238,39.2746 155.3838,38.4686 C154.2298,36.7456 153.2038,34.8716 152.4948,32.9206 C152.2238,33.1286 151.9548,33.3356 151.6838,33.5436 C152.5508,33.9816 152.0818,35.0216 151.2858,35.2086 C150.6458,35.3586 150.0728,35.0816 149.5958,34.7016 C149.0218,34.2426 148.5418,33.6286 148.0768,33.0656 C147.2418,32.0556 147.1668,31.2166 147.2548,29.9026 C147.3408,28.6146 147.5578,26.9946 148.2898,25.8846 C149.3808,24.2276 151.9748,23.4736 153.7188,22.8106 C154.0658,22.6786 154.3118,22.1796 153.9618,21.8896 C152.4648,20.6496 150.5678,20.2106 148.6938,19.8776 C147.9528,19.7466 144.5738,19.5966 145.0618,18.3846 C144.9328,18.5126 144.8048,18.6406 144.6768,18.7696 C147.2768,17.9026 150.0398,17.4436 152.6868,18.3826 C154.6758,19.0886 156.3028,20.4796 157.8788,21.8366 C158.4138,22.2976 159.1968,21.5206 158.6578,21.0566" id="Fill-68" fill="#000000" mask="url(#mask-2)"></path>
                    <path d="M107.7105,32.541 C105.7345,25.649 101.7555,8.83 101.3005,8.335 C101.3005,8.335 82.3375,11.448 75.0225,12.502 C79.0645,28.946 83.1065,45.39 87.1475,61.833 C96.4515,59.882 105.5675,57.031 114.3255,53.332 C112.1075,46.814 110.1555,40.206 108.4775,33.528" id="Fill-69" fill="#FFFFFF" mask="url(#mask-2)"></path>
                    <path d="M108.2418,32.394 C106.8568,27.543 105.6688,22.635 104.4288,17.745 C103.8688,15.531 103.3108,13.316 102.7208,11.11 C102.4838,10.226 102.3458,8.816 101.7758,8.057 C101.6128,7.839 101.4208,7.76 101.1528,7.803 C92.4028,9.24 83.6518,10.702 74.8758,11.97 C74.5758,12.014 74.4278,12.389 74.4908,12.648 C78.5328,29.092 82.5738,45.536 86.6158,61.98 C86.6898,62.282 87.0088,62.425 87.2938,62.365 C96.6028,60.397 105.7008,57.552 114.4718,53.864 C114.7348,53.753 114.9638,53.497 114.8578,53.186 C112.6448,46.664 110.6948,40.059 109.0098,33.381 C108.8358,32.694 107.7708,32.985 107.9458,33.675 C109.6318,40.352 111.5818,46.957 113.7948,53.478 C113.9228,53.252 114.0518,53.026 114.1788,52.8 C105.4078,56.488 96.3098,59.334 87.0008,61.302 C87.2258,61.43 87.4528,61.558 87.6798,61.686 C83.6378,45.243 79.5958,28.799 75.5538,12.355 C75.4268,12.582 75.2978,12.808 75.1698,13.034 C83.9458,11.766 92.6968,10.303 101.4468,8.867 C101.2388,8.782 101.0318,8.698 100.8238,8.613 C101.3048,9.252 101.5088,10.841 101.7388,11.708 C102.3238,13.912 102.8818,16.123 103.4408,18.334 C104.6538,23.125 105.8218,27.934 107.1788,32.687 C107.3738,33.369 108.4378,33.079 108.2418,32.394" id="Fill-70" fill="#000000" mask="url(#mask-2)"></path>
                    <path d="M111.3619,40.957 C111.9219,39.194 112.2769,37.366 112.4209,35.522 C112.4549,35.083 112.4739,34.628 112.3189,34.216 C112.1209,33.692 111.6609,33.306 111.1669,33.041 C109.7999,32.307 108.1209,32.355 106.6419,32.824 C105.1629,33.292 103.8409,34.144 102.5369,34.985 C102.2589,35.165 101.9659,35.362 101.8379,35.665 C101.5739,36.288 102.1349,36.961 102.7369,37.269 C103.8109,37.818 105.1629,37.781 106.2059,37.173 C106.8609,36.791 107.4589,36.182 108.2169,36.182 C109.3119,36.182 109.9549,37.416 110.1719,38.49 C110.3889,39.563 110.5129,40.803 111.4019,41.443" id="Fill-71" fill="#FFFFFF" mask="url(#mask-2)"></path>
                    <path d="M111.8932,41.1035 C112.3082,39.7775 112.6152,38.4245 112.8052,37.0485 C112.9672,35.8745 113.2782,34.4435 112.4932,33.4275 C110.9732,31.4615 107.8352,31.7245 105.7962,32.5445 C104.6242,33.0165 103.5522,33.6765 102.4942,34.3575 C102.0622,34.6355 101.5982,34.9115 101.3622,35.3875 C101.1112,35.8935 101.2262,36.4745 101.5312,36.9285 C102.1552,37.8565 103.4132,38.2355 104.4832,38.2065 C105.0192,38.1915 105.5482,38.0775 106.0412,37.8665 C106.6062,37.6245 107.0542,37.2135 107.5912,36.9275 C108.8062,36.2805 109.4282,37.6465 109.6402,38.6365 C109.8862,39.7835 110.0182,41.0575 111.0112,41.8325 C111.5652,42.2655 112.3502,41.4895 111.7912,41.0535 C111.0462,40.4715 110.9282,39.5135 110.7612,38.6395 C110.6062,37.8265 110.3442,37.0165 109.7872,36.3855 C109.2342,35.7605 108.4132,35.4795 107.6032,35.7265 C106.6462,36.0165 105.9932,36.8475 104.9892,37.0475 C104.5222,37.1405 104.0322,37.1225 103.5732,36.9995 C103.1622,36.8905 102.4142,36.6025 102.3372,36.0955 C102.2692,35.6425 102.9672,35.3615 103.2862,35.1585 C103.7832,34.8405 104.2852,34.5275 104.8012,34.2415 C106.6332,33.2255 109.0612,32.4335 111.0222,33.5925 C111.5572,33.9085 111.8662,34.3215 111.8922,34.9535 C111.9202,35.6105 111.8072,36.3025 111.7132,36.9515 C111.5272,38.2605 111.2242,39.5485 110.8302,40.8105 C110.6182,41.4895 111.6822,41.7795 111.8932,41.1035" id="Fill-72" fill="#000000" mask="url(#mask-2)"></path>
                    <path d="M166.3678,43.6752 C164.4878,44.4732 162.6068,45.2702 160.7258,46.0682 C160.4138,46.2012 160.0948,46.3372 159.8448,46.5432 C158.9108,47.3112 159.3078,48.6112 159.7678,49.6352 C162.2728,48.4792 164.7778,47.3232 167.2828,46.1672" id="Fill-73" fill="#000000" mask="url(#mask-2)"></path>
                    <path d="M165.9967,43.0405 C164.0207,43.8785 162.0117,44.6635 160.0627,45.5615 C159.2107,45.9545 158.6447,46.6445 158.5537,47.5895 C158.4727,48.4285 158.8007,49.2555 159.1337,50.0065 C159.3057,50.3935 159.8127,50.4215 160.1397,50.2705 C162.6437,49.1145 165.1487,47.9585 167.6537,46.8025 C168.0147,46.6355 168.1037,46.1155 167.9177,45.7965 C167.7007,45.4265 167.2727,45.3655 166.9117,45.5325 L159.3967,49.0005 C159.7327,49.0885 160.0677,49.1765 160.4037,49.2645 C160.1877,48.7785 159.9447,48.1765 160.0197,47.6385 C160.1187,46.9365 161.0307,46.7315 161.5797,46.4985 C163.2997,45.7695 165.0187,45.0395 166.7387,44.3105 C167.1037,44.1545 167.1847,43.6155 167.0027,43.3045 C166.7807,42.9255 166.3637,42.8845 165.9967,43.0405" id="Fill-74" fill="#000000" mask="url(#mask-2)"></path>
                    <path d="M167.5787,41.2773 C166.8717,41.3013 166.3297,41.9833 166.2157,42.6803 C166.1007,43.3783 166.3087,44.0843 166.5147,44.7603 C166.7127,45.4123 166.9267,46.0903 167.4037,46.5753 C167.8817,47.0613 168.7087,47.2753 169.2497,46.8623 C169.5757,46.6133 169.7287,46.1993 169.8097,45.7983 C170.2097,43.8083 169.0317,41.6163 167.1507,40.8533" id="Fill-75" fill="#FFFFFF" mask="url(#mask-2)"></path>
                    <path d="M167.5787,40.7255 C166.1427,40.8285 165.5037,42.2805 165.6667,43.5635 C165.7527,44.2415 165.9597,44.9185 166.1947,45.5595 C166.4317,46.2005 166.7557,46.8115 167.3197,47.2205 C167.7997,47.5675 168.4477,47.7255 169.0267,47.5735 C169.6697,47.4055 170.0747,46.8535 170.2657,46.2455 C170.6047,45.1575 170.4307,43.9485 169.9757,42.9235 C169.4507,41.7385 168.4877,40.8195 167.2977,40.3215 C167.0227,40.2055 166.6907,40.4455 166.6197,40.7055 C166.5317,41.0245 166.7287,41.2685 167.0047,41.3845 C168.4357,41.9835 169.3687,43.5695 169.3357,45.0975 C169.3207,45.7555 169.1227,46.7775 168.2427,46.4705 C167.3997,46.1765 167.1667,45.0435 166.9497,44.2914995 C166.7937,43.7485 166.6287,43.1365 166.8067,42.5785 C166.9147,42.2375 167.1927,41.8565 167.5787,41.8285 C167.8757,41.8075 168.1307,41.5905 168.1307,41.2775 C168.1307,40.9955 167.8777,40.7045 167.5787,40.7255" id="Fill-76" fill="#000000" mask="url(#mask-2)"></path>
                    <path d="M147.4693,28.6835 C149.1533,27.2355 151.2333,26.3245 153.4273,26.0125 C153.7223,25.9705 153.8833,25.5955 153.8123,25.3335 C153.7253,25.0165 153.4293,24.9065 153.1333,24.9495 C150.7483,25.2885 148.5133,26.3355 146.6903,27.9035 C146.1513,28.3675 146.9333,29.1445 147.4693,28.6835" id="Fill-77" fill="#000000" mask="url(#mask-2)"></path>
                    <path d="M147.276,32.0927 C148.532,30.8097 150.291,30.1347 152.081,30.2287 C152.791,30.2657 152.788,29.1637 152.081,29.1267 C150.014,29.0177 147.943,29.8357 146.497,31.3127 C146,31.8207 146.779,32.6007 147.276,32.0927" id="Fill-78" fill="#000000" mask="url(#mask-2)"></path>
                    <path d="M168.3346,48.1406 C169.6716,51.5206 170.9616,54.9186 172.2506,58.3166 C173.4776,61.5496 174.8376,64.7486 175.9736,68.0146 C177.8296,73.3506 180.1686,80.8856 176.0146,85.7186 C175.5546,86.2546 176.3306,87.0376 176.7946,86.4986 C181.0066,81.5976 179.2106,74.6266 177.4806,69.0756 C176.4236,65.6806 174.9766,62.3966 173.7126,59.0746 C172.2886,55.3276 170.8726,51.5766 169.3976,47.8476 C169.1406,47.1956 168.0726,47.4796 168.3346,48.1406" id="Fill-79" fill="#00B5E6" mask="url(#mask-2)"></path>
                    <path d="M164.4381,29.7939 C168.1171,31.9999 171.7971,34.2069 175.3721,36.5809 C177.1461,37.7599 178.9001,38.9749 180.6001,40.2599 C182.1691,41.4459 183.7561,42.7429 184.7401,44.4809 C186.6371,47.8359 186.1091,52.0749 185.5121,55.7119 C184.9341,59.2359 184.3751,62.7769 183.7531,66.2929 C183.3481,68.5889 182.4431,70.8149 182.3521,73.1579 C182.3251,73.8679 183.4281,73.8669 183.4561,73.1579 C183.5421,70.9239 184.4301,68.7779 184.8171,66.5859 C185.4721,62.8769 186.0911,59.1369 186.6701,55.4139 C187.2131,51.9279 187.5751,48.1329 186.1281,44.8089 C184.6271,41.3579 181.0681,39.1649 178.0951,37.0999 C173.8541,34.1539 169.4221,31.4969 164.9951,28.8419 C164.3851,28.4759 163.8301,29.4289 164.4381,29.7939" id="Fill-80" fill="#00B5E6" mask="url(#mask-2)"></path>
                    <path d="M156.2525,21.9409 C158.7215,28.6609 161.6765,35.1919 165.1005,41.4799 C165.4405,42.1039 166.3925,41.5469 166.0525,40.9229 C162.6735,34.7189 159.7525,28.2799 157.3155,21.6479 C157.0725,20.9869 156.0065,21.2730601 156.2525,21.9409" id="Fill-81" fill="#00B5E6" mask="url(#mask-2)"></path>
                    <path d="M180.359,-14.4595 C178.688,-8.6475 176.309,-3.0765 173.269,2.1505 C172.912,2.7655 173.864,3.3205 174.221,2.7075 C177.307,-2.5985 179.726,-8.2685 181.422,-14.1665 C181.619,-14.8495 180.555,-15.1415 180.359,-14.4595" id="Fill-82" fill="#00B5E6" mask="url(#mask-2)"></path>
                    <path d="M165.8219,13.5039 C164.1629,16.2999 161.5079,18.4429 158.4169,19.4579 C157.7459,19.6789 158.0329,20.7439 158.7109,20.5219 C162.0739,19.4169 164.9669,17.1069 166.7739,14.0609 C167.1369,13.4489 166.1839,12.8939 165.8219,13.5039" id="Fill-83" fill="#00B5E6" mask="url(#mask-2)"></path>
                    <path d="M129.3121,30.1787 C125.5681,28.8387 122.9341,33.0477 120.9861,35.4837 C118.2981,38.8457 115.6111,42.2067 112.9231,45.5687 C112.4851,46.1167 113.2601,46.9027 113.7041,46.3477 C116.1281,43.3147 118.5541,40.2817 120.9791,37.2477 C122.0991,35.8467 123.1711,34.3837 124.3751,33.0537 C125.5541,31.7497 127.1951,30.5897 129.0181,31.2417 C129.6881,31.4817 129.9761,30.4167 129.3121,30.1787" id="Fill-84" fill="#00B5E6" mask="url(#mask-2)"></path>
                    <path d="M107.5719,57.1518 C107.1199,60.7148 106.6339,64.3098 105.6279,67.7668 C104.9199,70.1998 103.7989,73.5988 101.1529,74.5508 C100.4909,74.7898 100.7769,75.8558 101.4469,75.6138 C104.2939,74.5888 105.6259,71.4398 106.4749,68.7688 C107.6719,65.0108 108.1799,61.0508 108.6749,57.1518 C108.7629,56.4498 107.6599,56.4558 107.5719,57.1518" id="Fill-85" fill="#00B5E6" mask="url(#mask-2)"></path>
                    <path d="M105.7555,8.1767 C106.2765,6.8437 106.7995,5.5097 107.3205,4.1767 C107.4085,3.9517 107.2255,3.6867 107.0095,3.6277 C106.7575,3.5587 106.5495,3.7147 106.4615,3.9397 C105.9395,5.2727 105.4175,6.6067 104.8955,7.9397 C104.8075,8.1637 104.9915,8.4287 105.2065,8.4887 C105.4595,8.5577 105.6675,8.4017 105.7555,8.1767" id="Fill-86" fill="#00B5E6" mask="url(#mask-2)"></path>
                    <path d="M109.273,12.1167 C110.34,11.5937 111.409,11.0697 112.476,10.5467 C112.692,10.4407 112.752,10.1337 112.636,9.9367 C112.506,9.7157 112.243,9.6697 112.026,9.7767 C110.959,10.2997 109.89,10.8237 108.823,11.3457 C108.607,11.4527 108.547,11.7597 108.663,11.9567 C108.793,12.1777 109.056,12.2227 109.273,12.1167" id="Fill-87" fill="#00B5E6" mask="url(#mask-2)"></path>
                    <path d="M108.7447,17.7304 C109.9187,18.0354 111.0927,18.3404 112.2657,18.6454 C112.8217,18.7904 113.0587,17.9304 112.5037,17.7854 C111.3297,17.4804 110.1557,17.1754 108.9817,16.8704 C108.4267,16.7264 108.1887,17.5864 108.7447,17.7304" id="Fill-88" fill="#00B5E6" mask="url(#mask-2)"></path>
                    <polygon id="Fill-89" fill="#000000" mask="url(#mask-2)" points="82.1529 14.9545 82.2429 15.4835 81.4179 15.6225 81.4889 16.0465 82.2619 15.9165 82.3469 16.4255 81.5749 16.5555 81.7469 17.5775 81.0989 17.6865 80.6809 15.2025"></polygon>
                    <path d="M83.1227,15.3139 L83.1227,16.3979 L83.4847,16.3369 L83.1307,15.3129 L83.1227,15.3139 Z M83.4477,14.7369 L84.4727,17.1199 L83.7817,17.2349 L83.6437,16.8119 L83.1277,16.8979 L83.1357,17.3439 L82.4567,17.4579 L82.6337,14.8739 L83.4477,14.7369 Z" id="Fill-90" fill="#000000" mask="url(#mask-2)"></path>
                    <path d="M85.19,14.9228 C85.154,14.8768 85.104,14.8598 85.042,14.8698 C84.993,14.8778 84.957,14.8968 84.931,14.9268 C84.907,14.9588 84.892,15.0068 84.888,15.0738 C84.884,15.1418 84.889,15.2318 84.903,15.3418 C84.917,15.4528 84.938,15.5918 84.965,15.7588 C84.994,15.9258 85.02,16.0648 85.043,16.1738 C85.066,16.2828 85.09,16.3688 85.117,16.4328 C85.143,16.4948 85.172,16.5358 85.206,16.5558 C85.239,16.5768 85.28,16.5828 85.329,16.5748 C85.368,16.5688 85.399,16.5528 85.421,16.5288 C85.443,16.5058 85.458,16.4688 85.464,16.4208 C85.469,16.3708 85.469,16.3068 85.461,16.2288 C85.454,16.1498 85.441,16.0518 85.42,15.9338 L86.047,15.8278 L86.079,16.0118 C86.108,16.1868 86.109,16.3328 86.081,16.4518 C86.053,16.5708 86.006,16.6688 85.941,16.7458 C85.875,16.8218 85.794,16.8808 85.7,16.9178 C85.604,16.9568 85.504,16.9858 85.401,17.0038 C85.219,17.0338 85.067,17.0358 84.944,17.0118 C84.82,16.9858 84.717,16.9298 84.635,16.8368 C84.553,16.7428 84.486,16.6178 84.434,16.4588 C84.382,16.2988 84.336,16.1038 84.297,15.8718 C84.258,15.6348 84.239,15.4328 84.24,15.2628 C84.241,15.0928 84.268,14.9508 84.321,14.8378 C84.373,14.7228 84.453,14.6338 84.558,14.5698 C84.665,14.5058 84.801,14.4598 84.968,14.4308 C85.115,14.4068 85.242,14.4038 85.35,14.4238 C85.458,14.4438 85.55,14.4828 85.625,14.5408 C85.701,14.5978 85.76,14.6728 85.806,14.7638 C85.851,14.8558 85.884,14.9618 85.905,15.0828 L85.93,15.2378 L85.304,15.3438 L85.281,15.2048 C85.257,15.0638 85.227,14.9698 85.19,14.9228" id="Fill-91" fill="#000000" mask="url(#mask-2)"></path>
                    <polygon id="Fill-92" fill="#000000" mask="url(#mask-2)" points="85.9703 14.8784 85.8773 14.3284 87.4923 14.0564 87.5853 14.6064 87.0983 14.6884 87.4233 16.6234 86.7753 16.7324 86.4493 14.7974"></polygon>
                    <path d="M88.5602,15.7202 C88.5802,15.8412 88.6112,15.9182 88.6522,15.9532 C88.6942,15.9882 88.7452,16.0002 88.8052,15.9902 C88.8662,15.9802 88.9102,15.9512 88.9382,15.9062 C88.9652,15.8592 88.9692,15.7762 88.9492,15.6552 L88.6472,13.8632 L89.2952,13.7542 L89.5692,15.3832 C89.5982,15.5562 89.6042,15.7042 89.5862,15.8262 C89.5692,15.9492 89.5312,16.0512 89.4712,16.1322 C89.4132,16.2132 89.3322,16.2772 89.2332,16.3192 C89.1322,16.3622 89.0142,16.3952 88.8772,16.4192 C88.7432,16.4412 88.6202,16.4482 88.5102,16.4402 C88.4012,16.4332 88.3042,16.3992 88.2222,16.3422 C88.1392,16.2842 88.0702,16.2012 88.0132,16.0912 C87.9562,15.9812 87.9142,15.8402 87.8842,15.6662 L87.6102,14.0372 L88.2582,13.9282 L88.5602,15.7202 Z" id="Fill-93" fill="#000000" mask="url(#mask-2)"></path>
                    <path d="M90.5269,14.6269 C90.6189,14.6119 90.6829,14.5729 90.7179,14.5109 C90.7529,14.4499 90.7629,14.3739 90.7489,14.2859 C90.7309,14.1809 90.6969,14.1099 90.6469,14.0739 C90.5959,14.0369 90.5219,14.0259 90.4249,14.0429 L90.2989,14.0639 L90.3969,14.6489 L90.5269,14.6269 Z M90.5869,13.5369 C90.7099,13.5159 90.8169,13.5149 90.9099,13.5319 C91.0029,13.5499 91.0809,13.5839 91.1449,13.6339 C91.2099,13.6839 91.2599,13.7479 91.2979,13.8249 C91.3369,13.9009 91.3639,13.9879 91.3799,14.0829 C91.4079,14.2499 91.3969,14.3909 91.3459,14.5039 C91.2979,14.6169 91.1989,14.6979 91.0539,14.7459 L91.0549,14.7529 C91.2139,14.7409 91.3299,14.7769 91.4039,14.8629 C91.4769,14.9479 91.5289,15.0739 91.5569,15.2409 L91.5919,15.4539 C91.5979,15.4859 91.6039,15.5199 91.6099,15.5549 C91.6159,15.5899 91.6219,15.6229 91.6299,15.6529 C91.6369,15.6849 91.6449,15.7109 91.6549,15.7369 C91.6629,15.7619 91.6729,15.7799 91.6819,15.7929 C91.6929,15.8059 91.7049,15.8179 91.7159,15.8279 C91.7279,15.8389 91.7449,15.8499 91.7679,15.8569 L91.7739,15.8919 L91.0849,16.0079 C91.0629,15.9779 91.0439,15.9419 91.0289,15.8989 C91.0129,15.8569 90.9999,15.8129 90.9889,15.7699 C90.9779,15.7269 90.9679,15.6849 90.9609,15.6449 C90.9529,15.6029 90.9459,15.5709 90.9419,15.5449 L90.9139,15.3779 C90.9019,15.3089 90.8889,15.2509 90.8749,15.2059 C90.8599,15.1609 90.8409,15.1259 90.8199,15.1029 C90.7979,15.0789 90.7719,15.0639 90.7439,15.0579 C90.7149,15.0519 90.6809,15.0519 90.6419,15.0589 L90.4709,15.0869 L90.6379,16.0829 L89.9919,16.1909 L89.5739,13.7069 L90.5869,13.5369 Z" id="Fill-94" fill="#000000" mask="url(#mask-2)"></path>
                    <polygon id="Fill-95" fill="#000000" mask="url(#mask-2)" points="93.0435 13.1235 93.1315 13.6525 92.3075 13.7915 92.3785 14.2155 93.1515 14.0855 93.2365 14.5945 92.4645 14.7245 92.5475 15.2185 93.4025 15.0745 93.4915 15.6025 91.9885 15.8555 91.5705 13.3715"></polygon>
                    <line x1="79.4771" y1="22.7006" x2="100.6521" y2="18.4506" id="Stroke-96" stroke="#000000" stroke-width="0.882" mask="url(#mask-2)"></line>
                    <line x1="80.2125" y1="25.4809" x2="96.9835" y2="21.7939" id="Stroke-97" stroke="#000000" stroke-width="0.882" mask="url(#mask-2)"></line>
                    <line x1="83.4478" y1="35.0844" x2="104.3888" y2="29.6624" id="Stroke-98" stroke="#000000" stroke-width="0.882" mask="url(#mask-2)"></line>
                    <line x1="83.4478" y1="35.0844" x2="87.7118" y2="52.0054" id="Stroke-99" stroke="#000000" stroke-width="0.882" mask="url(#mask-2)"></line>
                    <line x1="87.7115" y1="52.0053" x2="109.4025" y2="45.0673" id="Stroke-100" stroke="#000000" stroke-width="0.882" mask="url(#mask-2)"></line>
                    <line x1="90.065" y1="56.4257" x2="110.063" y2="50.3607" id="Stroke-101" stroke="#000000" stroke-width="0.882" mask="url(#mask-2)"></line>
                    <path d="M151.941,16.25 C152.432,16.007 152.923,15.764 153.415,15.521 C153.534,15.462 153.634,15.316 153.669,15.192 C153.705,15.06 153.688,14.884 153.613,14.767 C153.442,14.501 153.135,14.432 152.858,14.569 C152.367,14.812 151.876,15.055 151.384,15.297 C151.265,15.356 151.166,15.503 151.13,15.627 C151.094,15.759 151.111,15.935 151.186,16.052 C151.358,16.317 151.664,16.387 151.941,16.25" id="Fill-102" fill="#1F191A" mask="url(#mask-2)"></path>
                </g>
            </g>
        </g>
    </g>
</svg>