<svg xmlns="http://www.w3.org/2000/svg" xmlns:xlink="http://www.w3.org/1999/xlink" width="20" height="24" viewBox="0 0 20 24">
    <defs>
        <path id="a" d="M14.849 5.647H19.3L13.577 0v4.235c0 .78.57 1.412 1.272 1.412zm-2.703-1.412V0H.7v22.588c0 .78.64 1.412 1.43 1.412H19.3V7.059h-4.292c-1.58 0-2.862-1.264-2.862-2.824zM7.09 6.53c-.155-.08-.473-.189-.952-.326a9.823 9.823 0 0 1-.84-.262 1.688 1.688 0 0 1-.927-.916 1.73 1.73 0 0 1-.14-.678 2.151 2.151 0 0 1 .289-1.073c.097-.163.216-.313.353-.446.316-.293.741-.498 1.274-.612v-.59a.583.583 0 0 1 .137-.39.46.46 0 0 1 .37-.164.448.448 0 0 1 .36.16c.092.11.14.25.136.393v.58c.974.154 1.461.47 1.461.948a.695.695 0 0 1-.222.52.742.742 0 0 1-.534.215.888.888 0 0 1-.188-.02 2.714 2.714 0 0 1-.24-.067l-.214-.066a1.78 1.78 0 0 0-.559-.102.96.96 0 0 0-.508.143.506.506 0 0 0-.26.397c0 .158.057.277.171.356.115.08.265.145.451.195.322.088.612.179.87.273a3.9 3.9 0 0 1 .91.424c.239.155.434.367.568.616.134.248.2.555.2.92 0 .57-.172 1.048-.518 1.437-.306.347-.769.592-1.387.734v.652a.598.598 0 0 1-.132.394.447.447 0 0 1-.364.16.46.46 0 0 1-.37-.163.583.583 0 0 1-.138-.39v-.59a4.242 4.242 0 0 1-1.13-.235c-.53-.2-.796-.48-.796-.836 0-.192.067-.377.19-.525a.582.582 0 0 1 .472-.239c.12-.003.238.014.352.05l.55.184c.322.094.574.141.756.141.22.005.437-.06.617-.184a.596.596 0 0 0 .263-.518c0-.217-.11-.384-.331-.5zM10 21.176H4.992a.71.71 0 0 1-.715-.705c0-.39.32-.706.715-.706H10a.71.71 0 0 1 .715.706.71.71 0 0 1-.715.705zm5.008-3.529H4.992a.71.71 0 0 1-.715-.706c0-.39.32-.706.715-.706h10.016a.71.71 0 0 1 .715.706.71.71 0 0 1-.715.706zm.715-4.235a.71.71 0 0 1-.715.706H4.992a.71.71 0 0 1-.715-.706c0-.39.32-.706.715-.706h10.016a.71.71 0 0 1 .715.706z"/>
    </defs>
    <g fill="none" fill-rule="evenodd">
        <mask id="b" fill="#fff">
            <use xlink:href="#a"/>
        </mask>
        <g fill="#FF7900" mask="url(#b)">
            <path d="M-2 0h24v24H-2z"/>
        </g>
    </g>
</svg>
