<svg xmlns="http://www.w3.org/2000/svg" xmlns:xlink="http://www.w3.org/1999/xlink" width="160" height="160" viewBox="0 0 160 160">
    <defs>
        <path id="a" d="M0 .33h159.668v159.126H0z"/>
        <path id="c" d="M0 0h8.663v23.102H0z"/>
    </defs>
    <g fill="none" fill-rule="evenodd">
        <g transform="translate(0 .213)">
            <mask id="b" fill="#fff">
                <use xlink:href="#a"/>
            </mask>
            <path fill="#50BE87" d="M159.668 79.893c0 43.941-35.743 79.563-79.834 79.563C35.744 159.456 0 123.834 0 79.893S35.743.331 79.834.331s79.834 35.62 79.834 79.562" mask="url(#b)"/>
        </g>
        <path fill="#725048" d="M64.691 82.563c-.571-3.435-1.149-4.631-4.625-3.07-3.506 1.573-7.48 2.222-10.74 4.323-3.26 2.1-5.09 6.373-6.84 9.8-4.071 7.967-6.605 17.003-12.19 24.122-2.676 3.41-4.773 5.766-.546 8.673 3.654 2.513 7.704 3.797 10.74 7.22 1.844 2.08 2.515 3.946 5.217 2.099 1.737-1.186 2.688-3.46 4.216-4.89 1.879-1.758 3.429-3.177 5.697-4.464 5.605-3.183 10.892-7.937 13.893-13.568 3.088-5.79 3.76-12.509-.12-19.397-2.368-4.205-3.913-6.097-4.702-10.848"/>
        <path fill="#9CAAC1" d="M86.875 110.025l-.012.019c0 .003.004-.005.012-.019"/>
        <path fill="#FFF" d="M129.193 132.098c-2.454 1.937-62.095 2.399-64.02.48-2.118-2.11-9.633-106.735-8.425-107.939 1.816-1.81 64.263-4.557 66.188-2.878 2.765 2.411 8.595 108.493 6.257 110.337"/>
        <path fill="#BBE0D1" d="M53.536 134.872c-.44-.963-24.295-19.577-27.392-20.081-2.058-.336-4.493 2.424-5.562 3.354-1.206 1.05-3.625 3.791-6.54 7.153 12.041 16.427 22.108 21.219 29.17 25.56 2.4-3.14 8.835-12.274 9.576-13.27.867-1.167 1.088-1.974.748-2.716"/>
        <path fill="#725048" d="M76.89 92.765c-6.353 2.117-7.834 10.247-15.843 9.777-1.422-.084-3.299-1.068-4.474-1.839-1.414-.927-1.619-2.515-2.223-3.98.247.598-1.373 3.369-1.656 4.006-.48 1.078-.998 2.054-1.785 2.941-1.457 1.642-2.548 2.885-3.13 5.099-1.09 4.164-.868 9.63 2.212 12.944 4.556 4.902 9.896 2.989 14.08-1.225.957-.963 1.713-2.053 2.383-3.198 1.451-2.48 2.548-5.244 4.147-7.621 2.45-3.644 6.545-7.108 8.118-11.175.849-2.195 2.193-7.069-1.83-5.729"/>
        <path fill="#62352E" d="M78.096 97.8c-.26-.3-.361-.411-.44-.544-.482.857-1.584 1.043-2.452.545-1.114-.64-.582-1.816.064-2.615l-.166-.066a6.37 6.37 0 0 1-.669-.36c-.46.573-.802 1.228-.815 1.964-.013.743.429 1.383 1.056 1.797 1.149.76 2.814.498 3.61-.547a1.263 1.263 0 0 1-.188-.173"/>
        <path fill="#6CBBBB" d="M56.133 61.37c.01-.022.017-.05.027-.07l-.237.15a2.19 2.19 0 0 1 .21-.08M55.923 61.45a.587.587 0 0 0-.159.102l.16-.102z"/>
        <path fill="#50BE87" d="M20.77 124.041c-.328-.191-.806-.09-.989.259a3.209 3.209 0 0 1-.195.324c-.087.129-.072.101-.173.22a8.665 8.665 0 0 1-.48.509.724.724 0 0 0 0 1.017.73.73 0 0 0 1.02 0c.405-.403.809-.835 1.076-1.344.182-.348.092-.78-.26-.985M25.248 119.356a.73.73 0 0 0-1.02 0l-.723.72a.724.724 0 0 0 0 1.017.731.731 0 0 0 1.021 0l.722-.719a.725.725 0 0 0 0-1.018M23.804 127.032a.73.73 0 0 0-1.021 0c-.14.144-.256.308-.376.468l-.01.013a2.093 2.093 0 0 1-.073.082.702.702 0 0 0-.475.666c0 .37.329.746.722.719.334-.023.6-.17.82-.418.106-.12.198-.25.294-.377l.01-.012a.726.726 0 0 0 .11-1.141M27.895 121.755a.73.73 0 0 0-1.02 0 6.233 6.233 0 0 1-.269.255l-.042.026c-.348.06-.623.334-.623.707 0 .377.328.741.722.72.518-.028.882-.342 1.232-.69a.724.724 0 0 0 0-1.018M25.343 130.997c-.326-.19-.809-.09-.988.259a4.28 4.28 0 0 1-.172.304c-.018.03-.128.177-.13.184-.096.114-.202.22-.308.325a.725.725 0 0 0 0 1.018.73.73 0 0 0 1.022 0c.33-.33.621-.69.835-1.105.18-.35.094-.779-.26-.985M29.193 126.44c-.324-.19-.808-.091-.987.258-.05.098-.104.194-.163.287l-.044.06-.055.06a1.454 1.454 0 0 1-.104.097c-.002.003-.005.004-.008.006a2.695 2.695 0 0 1-.33.191c-.35.178-.45.661-.259.985.207.352.637.436.988.258.54-.274.947-.68 1.222-1.218.178-.35.094-.778-.26-.984M32.71 123.194a.73.73 0 0 0-1.022 0 5.654 5.654 0 0 1-.269.255c-.013.009-.027.018-.042.026-.347.06-.622.335-.622.707 0 .377.328.742.721.72.518-.028.883-.341 1.233-.69a.725.725 0 0 0 0-1.018M28.712 133.636c-.325-.19-.809-.092-.988.258a3.597 3.597 0 0 1-.155.275c-.012.02-.027.04-.04.06l-.027.032-.013.013a.722.722 0 0 0-.586.703c0 .381.329.733.723.72.652-.024 1.07-.54 1.345-1.077.179-.35.095-.777-.259-.984M33.526 128.838c-.325-.19-.809-.09-.988.259a3.285 3.285 0 0 1-.135.241c-.007.012-.024.034-.038.054a3.816 3.816 0 0 1-.047.047l-.012.007-.014.004c-.024.003-.07.01-.094.01a.728.728 0 0 0-.721.72c0 .386.328.726.721.719.743-.014 1.26-.436 1.587-1.076.179-.35.094-.778-.26-.985M36.56 125.353a.73.73 0 0 0-1.021 0l-.481.48a.724.724 0 0 0 0 1.017.73.73 0 0 0 1.02 0l.482-.48a.724.724 0 0 0 0-1.017M33.431 135.907a.731.731 0 0 0-1.02 0l-.723.72a.725.725 0 0 0 0 1.017.73.73 0 0 0 1.021 0l.722-.72a.725.725 0 0 0 0-1.017M37.858 129.798c-.328-.192-.806-.09-.988.258-.22.419-.524.722-.944.94-.349.183-.45.66-.26.986.207.35.64.44.989.257a3.538 3.538 0 0 0 1.463-1.457c.182-.347.092-.78-.26-.984M35.598 139.505a.73.73 0 0 0-1.022 0c-.122.125-.224.269-.341.399a1.472 1.472 0 0 1-.098.096l-.007.004a.098.098 0 0 1-.018.01c-.388.021-.71.32-.71.72 0 .38.329.733.722.719.407-.015.73-.17 1.03-.432.17-.146.289-.34.444-.499a.726.726 0 0 0 0-1.017M40.265 135.075c-.33-.193-.803-.088-.988.258-.012.023-.108.158-.108.166-.013.015-.027.028-.041.04.015-.018-.089.067-.103.075a1.11 1.11 0 0 0-.055.029c-.026.01-.05.018-.076.026l-.071.016c.024-.008-.104.01-.126.011a.729.729 0 0 0-.722.72c0 .385.328.728.722.72.76-.018 1.463-.399 1.827-1.077.185-.346.09-.78-.26-.984M43.51 129.22c-.372 0-.646.272-.709.616l-.035.057c-.078.09-.163.174-.247.257a.724.724 0 0 0 0 1.018.73.73 0 0 0 1.021 0c.35-.35.665-.712.693-1.229.021-.391-.345-.72-.722-.72M38.801 143.883c0-.38-.328-.734-.721-.72-.92.035-1.429.826-1.445 1.68-.006.392.334.72.722.72a.73.73 0 0 0 .723-.72c0-.032.001-.064.003-.095a1.678 1.678 0 0 1 .033-.127.059.059 0 0 0 .007-.013l.005-.006.002-.004h.011c.366-.043.66-.333.66-.715M41.806 147.178c0-.382-.328-.735-.721-.72-.92.034-1.429.825-1.445 1.68-.006.391.334.719.722.719a.73.73 0 0 0 .723-.72c0-.032.001-.063.003-.095l.006-.028c.008-.033.017-.067.028-.1l.007-.011.004-.007.002-.003h.004l.007-.001c.366-.042.66-.333.66-.714M30.462 139.466c0-.381-.329-.734-.722-.72-.919.034-1.428.825-1.444 1.68-.007.391.335.719.722.719.4 0 .715-.328.722-.72 0-.032.002-.063.004-.095l.006-.028c.008-.033.017-.066.028-.1l.006-.011.004-.006.003-.004h.005l.006-.001c.365-.042.66-.332.66-.714M20.77 129.358c0-.381-.328-.734-.721-.719-.92.034-1.429.825-1.444 1.679-.007.392.334.72.721.72a.73.73 0 0 0 .723-.72c0-.032.002-.064.004-.096l.006-.028c.007-.033.017-.066.027-.099l.007-.012.004-.006.003-.004h.011c.365-.043.66-.333.66-.715M17.39 124.791c0-.38-.329-.734-.721-.72-.92.034-1.429.826-1.445 1.68-.007.391.334.719.722.719.4 0 .715-.328.722-.72 0-.032.002-.063.004-.095l.006-.028c.008-.033.017-.066.028-.099l.006-.012.004-.006a.017.017 0 0 0 .003-.004h.011c.365-.043.66-.333.66-.715M21.673 119.775c0-.381-.33-.735-.722-.72-.92.034-1.429.825-1.445 1.68-.007.39.335.719.722.719a.73.73 0 0 0 .723-.72c0-.032 0-.064.003-.095l.006-.028c.008-.034.017-.066.028-.1a.108.108 0 0 0 .006-.011c.001-.003.003-.004.005-.006 0-.002.001-.003.003-.004h.004l.006-.001c.365-.042.66-.332.66-.714M42.096 140.464a.73.73 0 0 0-1.021 0l-.722.72a.724.724 0 0 0 0 1.017.73.73 0 0 0 1.021 0l.722-.72a.725.725 0 0 0 0-1.017M45.648 133.988c-.555.553-1.185 1.127-1.558 1.825-.436.818.81 1.545 1.248.726.315-.591.861-1.066 1.33-1.533.66-.657-.361-1.675-1.02-1.018M44.262 143.822a.73.73 0 0 0-1.02 0c-.251.256-.467.53-.59.869-.097.266-.104.559-.104.84-.001.928 1.443.927 1.444 0 0-.081 0-.161.003-.242l.001-.019c.003-.017.009-.074.016-.099a1.96 1.96 0 0 0 .01-.033c.018-.032.037-.063.057-.095l.018-.026c.052-.062.108-.12.165-.177a.725.725 0 0 0 0-1.018M47.46 136.772c-.481.93-1.203 1.708-1.684 2.639-.427.823.82 1.55 1.246.726.482-.93 1.203-1.708 1.685-2.639.426-.823-.82-1.551-1.247-.726"/>
        <path fill="#FF7900" d="M70.793 36.763l-9.121.673-.676-9.09 9.121-.673z"/>
        <path fill="#D6D6D6" d="M112.851 44.348l-43.62 2.782-.083-1.3 43.62-2.781zM113.135 47.747l-43.62 2.782-.083-1.3 43.62-2.781zM121.278 63.928L67.1 67.384l-.084-1.3 54.178-3.456zM121.278 68.035L67.1 71.491l-.084-1.3 54.178-3.455zM121.704 72.001l-54.178 3.456-.083-1.3 54.178-3.455zM121.704 82.34l-54.178 3.456-.083-1.3 54.178-3.455zM121.704 86.022L67.526 89.48l-.083-1.3 54.178-3.456zM124.39 110.114l-54.178 3.455-.084-1.3 54.179-3.455zM122.857 118.236l-24.274 1.548-.083-1.3 24.273-1.549z"/>
        <path fill="#FFF" d="M31.893 32.634l6.4 3.168c1.845.913 3.473-1.846 1.62-2.763l-6.399-3.169c-1.845-.913-3.474 1.846-1.62 2.764M29.141 52.355l8.008 1.493c2.02.377 2.885-2.707.853-3.086l-8.007-1.493c-2.02-.376-2.886 2.707-.854 3.086M31.178 71.986l7.98-.632c2.047-.162 2.065-3.364 0-3.2l-7.98.631c-2.046.162-2.063 3.364 0 3.2M44.44 15.24l3.763 4.75c.537.68 1.708.561 2.27 0 .673-.67.54-1.582 0-2.263l-3.762-4.75c-.537-.68-1.708-.56-2.27 0-.673.67-.54 1.582 0 2.263M67.482 7.632l1.055 2.658c.319.804 1.074 1.365 1.975 1.118.767-.21 1.442-1.16 1.121-1.968L70.58 6.782c-.319-.804-1.075-1.365-1.975-1.118-.768.21-1.442 1.16-1.122 1.968"/>
        <g transform="translate(120 11)">
            <circle cx="20" cy="20" r="20" fill="#527EDB"/>
            <g transform="translate(16 8)">
                <mask id="d" fill="#fff">
                    <use xlink:href="#c"/>
                </mask>
                <path fill="#FFF" d="M8.465 22.105c-.652-.04-1.05-.184-1.255-.43-.146-.174-.472-.644-.472-1.892V7.7H0v1.002l.197.012c.642.039 1.072.183 1.278.43.146.174.32.644.32 1.891v8.748c0 1.311-.17 1.7-.268 1.815-.28.317-.724.487-1.323.507L0 22.11v.992h8.663v-.985l-.198-.012zM3.851 5.775A2.888 2.888 0 1 0 3.85 0a2.888 2.888 0 0 0 0 5.777z" mask="url(#d)"/>
            </g>
        </g>
    </g>
</svg>
