<svg xmlns="http://www.w3.org/2000/svg" xmlns:xlink="http://www.w3.org/1999/xlink" width="40" height="40" viewBox="0 0 40 40">
    <defs>
        <circle id="a" cx="20" cy="20" r="20"/>
        <path id="c" d="M.194.161h14.619v7.225H.194z"/>
        <path id="e" d="M0 43.042h31.94V.153H0z"/>
        <path id="g" d="M.048.05h15.726v27.744H.048z"/>
        <path id="i" d="M0 43.042h31.94V.153H0z"/>
    </defs>
    <g fill="none" fill-rule="evenodd">
        <mask id="b" fill="#fff">
            <use xlink:href="#a"/>
        </mask>
        <use fill="#FFB400" fill-rule="nonzero" xlink:href="#a"/>
        <g mask="url(#b)">
            <g transform="rotate(-10 44.989 24.964)">
                <g transform="translate(17.127 14.423)">
                    <mask id="d" fill="#fff">
                        <use xlink:href="#c"/>
                    </mask>
                    <path fill="#684A3A" d="M14.772 1.873s.613 2.19-2.888 3.047L1.93 7.357S.85 7.622.548 6.549L.235 5.432s-.613-2.19 2.888-3.047L11.966.22s2.192-.537 2.801 1.637l.005.016z" mask="url(#d)"/>
                </g>
                <path fill="#684A3A" d="M31.34 23.302s.215 2.172-3.235 2.398l-9.813.645s-1.067.07-1.172-.994l-.11-1.108s-.214-2.171 3.237-2.398l8.732-.573s2.147-.141 2.359 2l.003.03zM30.944 28.639s.226 2.286-3.407 2.524l-10.325.678s-1.127.074-1.238-1.05l-.115-1.162s-.225-2.286 3.407-2.524l9.184-.603s2.268-.15 2.491 2.112l.003.025zM26.94 35.712s-.193 2.049-3.427 1.638l-9.197-1.17s-1-.126-.907-1.13l.099-1.045s.191-2.048 3.426-1.637l8.182 1.04s2.016.256 1.826 2.279l-.002.025z"/>
                <mask id="f" fill="#fff">
                    <use xlink:href="#e"/>
                </mask>
                <path fill="#595959" d="M11.56 31.4h17.942V3.654H11.56z" mask="url(#f)"/>
            </g>
            <g transform="rotate(-10 59.285 -48.961)">
                <mask id="h" fill="#fff">
                    <use xlink:href="#g"/>
                </mask>
                <path fill="#FFF" d="M.048 27.794h15.726V.048H.048z" mask="url(#h)"/>
            </g>
            <g transform="rotate(-10 44.989 24.964)">
                <path fill="#535353" d="M11.555 31.424v2.338s0 2.068 3.43 2.068h11.08s3.43.156 3.43-2.846v-1.56h-17.94zM29.495 3.68v-.773s0-2.748-3.43-2.748h-11.08s-3.43-.258-3.43 2.748v.773h17.94z"/>
                <mask id="j" fill="#fff">
                    <use xlink:href="#i"/>
                </mask>
                <path fill="#EDEDED" d="M19.085 2.27h4.001v-.503h-4.001zM17.98 2.27h.669v-.503h-.668z" mask="url(#j)"/>
                <path fill="#FF7900" d="M13.938 28.243v-2.196s0-1.268 1.141-1.268H27.12l-1.27 1.172.001.096v2.196s0 1.269-1.141 1.269h-9.63s-1.141 0-1.141-1.269" mask="url(#j)"/>
                <path fill="#FFF" d="M15.036 26.303h9.787v-.282h-9.787zM15.036 28.21h8v-.347h-8zM15.036 27.212h9.787v-.282h-9.787z" mask="url(#j)"/>
                <path fill="#775742" d="M17.751 35.903s6.952-5.515 3.488-8.312c-2.124-1.716-3.443 1.69-5.457 2.58-3.245 1.435-4.227 2.485-4.227 2.485V21.173c-.507.142-2.757 1.22-3.624 2.473-.867 1.252-5.34 13.604-5.611 14.436-.13.397-1.86 4.388-2.32 4.96h14.075c1.116-.951 2.902-3.184 3.676-7.14" mask="url(#j)"/>
                <path fill="#EFCFB9" d="M18.469 30.539s-1.505-.887-.812-1.817c0 0 1.538-2.267 2.852-1.097.164.146 1.292.905.418 2.153l-.292.418s-.874 1.248-2.122.374l-.044-.031z" mask="url(#j)" opacity=".282"/>
                <path fill="#FF7900" d="M13.938 12.343V7.469s0-1.268 1.141-1.268H27.12l-1.27 1.172.001.096v4.874s0 1.268-1.141 1.268h-9.63s-1.141 0-1.141-1.268" mask="url(#j)"/>
                <path fill="#FFF" d="M15.036 7.726h9.787v-.282h-9.787zM15.036 10.451h9.787v-.282h-9.787zM15.036 9.543h9.787V9.26h-9.787zM15.036 11.36h9.787v-.282h-9.787zM15.036 12.268h8v-.282h-8zM15.036 8.634h9.787v-.282h-9.787z" mask="url(#j)"/>
                <path fill="#EEE" d="M27.119 21.65v-4.874s0-1.268-1.142-1.268H13.938l1.27 1.172a2.224 2.224 0 0 0-.002.096v4.873s0 1.269 1.142 1.269h9.63s1.14 0 1.14-1.269" mask="url(#j)"/>
                <path fill="#FFF" d="M16.233 17.032h9.787v-.281h-9.787zM16.233 19.758h9.787v-.282h-9.787zM16.233 18.85h9.787v-.283h-9.787zM16.233 20.666h9.787v-.282h-9.787zM18.021 21.575h8v-.282h-8zM16.233 17.94h9.787v-.281h-9.787z" mask="url(#j)"/>
            </g>
        </g>
    </g>
</svg>
