<svg xmlns="http://www.w3.org/2000/svg" xmlns:xlink="http://www.w3.org/1999/xlink" width="40" height="40" viewBox="0 0 40 40">
    <defs>
        <path id="a" d="M28.081 9.412H35.5L25.962 0v7.059c0 1.3.949 2.353 2.119 2.353zm-4.504-2.353V0H4.5V37.647C4.5 38.947 5.568 40 6.885 40H35.5V11.765h-7.154c-2.634 0-4.77-2.107-4.77-4.706zm-8.43 3.825c-.258-.135-.786-.316-1.585-.544a16.372 16.372 0 0 1-1.401-.437 2.678 2.678 0 0 1-.879-.565 2.813 2.813 0 0 1-.665-.962 2.884 2.884 0 0 1-.234-1.129c0-.313.04-.625.122-.927.08-.302.2-.592.36-.862a3.57 3.57 0 0 1 .588-.742c.528-.49 1.235-.83 2.123-1.02v-.984a.971.971 0 0 1 .23-.652.768.768 0 0 1 .617-.272.747.747 0 0 1 .598.268.974.974 0 0 1 .227.654v.966c1.624.257 2.436.784 2.436 1.58.005.329-.13.643-.371.868a1.237 1.237 0 0 1-.89.357 1.48 1.48 0 0 1-.314-.033 4.523 4.523 0 0 1-.398-.11 16.877 16.877 0 0 0-.358-.11 2.966 2.966 0 0 0-.931-.171 1.6 1.6 0 0 0-.847.239c-.261.159-.406.38-.434.661 0 .263.095.46.286.594.19.132.442.24.752.323.537.147 1.02.299 1.45.457.604.202 1.11.437 1.516.706.398.259.723.612.947 1.027.223.413.334.925.334 1.533 0 .949-.288 1.747-.864 2.395-.51.578-1.282.986-2.313 1.223v1.087a.996.996 0 0 1-.219.656c-.146.177-.349.266-.607.266a.768.768 0 0 1-.617-.27.971.971 0 0 1-.23-.651v-.984a7.07 7.07 0 0 1-1.883-.39c-.885-.334-1.327-.8-1.327-1.394 0-.32.113-.628.318-.875.212-.266.474-.398.786-.398.199-.006.397.022.586.082l.918.307c.537.157.957.236 1.26.236.367.008.727-.1 1.028-.307.292-.205.439-.492.439-.863-.001-.362-.185-.64-.553-.833zM20 35.294h-8.346a1.184 1.184 0 0 1-1.192-1.176c0-.65.533-1.177 1.192-1.177H20c.658 0 1.192.527 1.192 1.177s-.534 1.176-1.192 1.176zm8.346-5.882H11.654a1.184 1.184 0 0 1-1.192-1.177c0-.65.533-1.176 1.192-1.176h16.692c.659 0 1.192.527 1.192 1.176 0 .65-.533 1.177-1.192 1.177zm1.192-7.06c0 .65-.533 1.177-1.192 1.177H11.654a1.184 1.184 0 0 1-1.192-1.176c0-.65.533-1.177 1.192-1.177h16.692c.659 0 1.192.527 1.192 1.177z"/>
    </defs>
    <g fill="none" fill-rule="evenodd">
        <mask id="b" fill="#fff">
            <use xlink:href="#a"/>
        </mask>
        <g fill="#000" mask="url(#b)">
            <path d="M0 0h40v40H0z"/>
        </g>
    </g>
</svg>
