<svg xmlns="http://www.w3.org/2000/svg" xmlns:xlink="http://www.w3.org/1999/xlink" width="150" height="150" viewBox="0 0 150 150">
    <defs>
        <path id="a" d="M0 0h150v150H0z"/>
        <path id="c" d="M.238 22.97l37.675 49.036L67.74 49.09 30.063.054"/>
        <path id="e" d="M.238 22.97l37.675 49.036L67.74 49.09 30.063.054"/>
        <path id="g" d="M.238 22.97l37.675 49.036L67.74 49.09 30.063.054"/>
        <path id="i" d="M.238 22.97l37.675 49.036L67.74 49.09 30.063.054"/>
        <path id="k" d="M.238 22.97l37.675 49.036L67.74 49.09 30.063.054"/>
        <path id="m" d="M.238 22.97l37.675 49.036L67.74 49.09 30.063.054"/>
        <path id="o" d="M.238 22.97l37.675 49.036L67.74 49.09 30.063.054"/>
        <path id="q" d="M.238 22.97l37.675 49.036L67.74 49.09 30.063.054"/>
        <path id="s" d="M.238 22.97l37.675 49.036L67.74 49.09 30.063.054"/>
        <path id="u" d="M.238 22.97l37.675 49.036L67.74 49.09 30.063.054"/>
        <path id="w" d="M.238 22.97l37.675 49.036L67.74 49.09 30.063.054"/>
        <path id="y" d="M.238 22.97l37.675 49.036L67.74 49.09 30.063.054"/>
        <path id="A" d="M.238 22.97l37.675 49.036L67.74 49.09 30.063.054"/>
        <path id="C" d="M.238 22.97l37.675 49.036L67.74 49.09 30.063.054"/>
        <path id="E" d="M.238 22.97l37.675 49.036L67.74 49.09 30.063.054"/>
        <path id="G" d="M.238 22.97l37.675 49.036L67.74 49.09 30.063.054"/>
        <path id="I" d="M.238 22.97l37.675 49.036L67.74 49.09 30.063.054"/>
        <path id="K" d="M.238 22.97l37.675 49.036L67.74 49.09 30.063.054"/>
        <path id="M" d="M.238 22.97l37.675 49.036L67.74 49.09 30.063.054"/>
        <path id="O" d="M.238 22.97l37.675 49.036L67.74 49.09 30.063.054"/>
        <path id="Q" d="M.238 22.97l37.675 49.036L67.74 49.09 30.063.054"/>
        <path id="S" d="M.238 22.97l37.675 49.036L67.74 49.09 30.063.054"/>
        <path id="U" d="M.238 22.97l37.675 49.036L67.74 49.09 30.063.054"/>
        <path id="W" d="M.238 22.97l37.675 49.036L67.74 49.09 30.063.054"/>
        <path id="Y" d="M.238 22.97l37.675 49.036L67.74 49.09 30.063.054"/>
        <path id="aa" d="M.238 22.97l37.675 49.036L67.74 49.09 30.063.054"/>
        <path id="ac" d="M.238 22.97l37.675 49.036L67.74 49.09 30.063.054"/>
        <path id="ae" d="M.238 22.97l37.675 49.036L67.74 49.09 30.063.054"/>
        <path id="ag" d="M.238 22.97l37.675 49.036L67.74 49.09 30.063.054"/>
        <path id="ai" d="M.238 22.97l37.675 49.036L67.74 49.09 30.063.054"/>
        <path id="ak" d="M.238 22.97l37.675 49.036L67.74 49.09 30.063.054"/>
        <path id="am" d="M.238 22.97l37.675 49.036L67.74 49.09 30.063.054"/>
        <path id="ao" d="M.238 22.97l37.675 49.036L67.74 49.09 30.063.054"/>
        <path id="aq" d="M.238 22.97l37.675 49.036L67.74 49.09 30.063.054"/>
        <path id="as" d="M0 .056h19.745v3.62H0z"/>
    </defs>
    <g fill="none" fill-rule="evenodd">
        <path fill="#D6D6D6" d="M148.773 77.438c0 37.915-30.737 68.652-68.652 68.652-37.916 0-68.652-30.737-68.652-68.652 0-37.915 30.736-68.652 68.652-68.652 37.915 0 68.652 30.737 68.652 68.652"/>
        <mask id="b" fill="#fff">
            <use xlink:href="#a"/>
        </mask>
        <g mask="url(#b)">
            <path fill="#724F47" d="M112.41 64.482c-.342-.315-7.555-7.807-7.512-5.502.035 1.891 3.634 4.902 1.824 6.615-1.46 1.383-3.19-1.064-4.239-1.941-1.29-1.079-2.994-2.412-4.212-.46-1.587 2.543 2.355 5.547 3.45 7.398 2.461 4.164-.126 3.606-2.458.735-1.097-1.35-9.06-9.697-9.404-4.724-.18 2.598 1.953 4.036 3.065 6.096 1.023 1.895 3.23 3.834 3.122 6.112-3.964-2.994-6.196-8.134-10.54-10.694-1.732-1.021-3.71-1.239-3.224 1.432.493 2.704 9.4 13.615 11.56 17.089a11.946 11.946 0 0 1 1.422 3.32c.736 2.813.492 5.777.157 8.826-.447 4.064-1.209 8.339-1.142 12.355.048 2.893 1.545 5.058 3.12 7.344.3.437 4.23 7.252 3.156 7.288 4.971-.167 9.943-.325 14.915-.489 1.939-.063 7.73.716 8.562-1.473.574-1.509-1.12-4.928-1.534-6.425-.634-2.298-1.226-4.628-1.269-7.025-.137-7.77 3.68-15.091 4.536-22.719.618-5.496 1.834-9.137-2.36-13.561-3.359-3.542-7.42-6.294-10.996-9.597"/>
            <path fill="#141819" d="M101.319 95.658c-.015.021-.03.041-.044.063.014-.022.029-.042.044-.063M101.231 95.781l-.05.064.05-.064M101.133 95.901l-.052.06.052-.06M101.46 95.402l-.001.005zM101.395 95.53c-.01.019-.022.037-.033.056.011-.019.023-.037.033-.057M98.027 96.465l.042.018-.042-.018zM101.023 96.019l-.052.05.052-.05M100.718 96.273zM101.098 95.943l-.092.093.092-.093"/>
            <path fill="#9EABC0" d="M89.257 69.109l-.013.031a.19.19 0 0 0 .013-.031"/>
            <path fill="#FFF" d="M121.555 6.214c-1.747 1.434-3.691 2.6-5.51 3.938-.69.508.172 1.519.86 1.013 1.818-1.338 3.762-2.504 5.509-3.938.661-.544-.197-1.557-.86-1.013M22.143 39.507L20.435 39c-.347-.103-.721.037-.853.393-.12.322.046.75.392.853l1.708.508c.347.103.721-.037.853-.392.12-.323-.045-.75-.392-.854M33.208 21.705c-1.253-.625-2.562-1.13-3.816-1.755-.767-.383-1.218.868-.46 1.246 1.253.625 2.562 1.13 3.815 1.755.768.382 1.218-.868.461-1.246M97.968 124.16l.248 1.41c.134.759 1.31.551 1.176-.207l-.249-1.41c-.133-.759-1.309-.551-1.175.207M98.724 129.48l.249 1.41c.133.759 1.309.551 1.175-.207l-.248-1.41c-.134-.758-1.31-.551-1.176.207M99.356 134.096l.249 1.41c.133.758 1.309.55 1.175-.207l-.248-1.41c-.134-.759-1.31-.551-1.176.207M100.133 138.503l.218 1.235c.133.757 1.31.55 1.176-.207l-.218-1.235c-.134-.758-1.31-.55-1.176.207M101.872 142.863a.603.603 0 0 0-.484.692l.186 1.057c.057.32.371.54.692.484a.602.602 0 0 0 .484-.691l-.187-1.058a.603.603 0 0 0-.691-.484M102.113 148.699l.28 1.586c.133.759 1.309.551 1.175-.207l-.28-1.587c-.133-.758-1.31-.55-1.175.208M105.629 146.988l.249 1.41c.133.758 1.309.551 1.175-.207l-.248-1.41c-.134-.758-1.31-.551-1.176.207M105.481 141.681a.602.602 0 0 0-.484.691l.187 1.059c.056.32.37.54.691.483.32-.056.54-.37.484-.69l-.187-1.059a.602.602 0 0 0-.69-.484M104.21 136.875l.248 1.411c.134.759 1.31.551 1.176-.207l-.25-1.411c-.133-.758-1.308-.55-1.175.207M104.328 130.674c-.134-.758-1.31-.55-1.176.207.104.588.23 1.173.505 1.708.351.682 1.432.174 1.078-.512-.228-.445-.32-.914-.407-1.403M101.504 124.627l.28 1.587c.134.758 1.31.55 1.176-.208l-.28-1.586c-.134-.759-1.31-.552-1.176.207M108.815 147.972l.217 1.234c.134.758 1.31.55 1.176-.208l-.217-1.234c-.134-.758-1.31-.55-1.176.208M108.037 143.563l.218 1.235c.134.758 1.31.551 1.176-.207l-.218-1.235c-.133-.758-1.31-.55-1.176.207M107.627 137.455c-.134-.758-1.31-.55-1.176.207l.249 1.41c.042.239.187.381.361.442.117.143.3.23.538.188.578-.102.594-.809.233-1.08l-.205-1.167zM106.096 132.21a.603.603 0 0 0-.484.692l.124.705c.057.32.372.54.692.484a.602.602 0 0 0 .484-.691l-.125-.705a.602.602 0 0 0-.69-.485M105.495 127.772a.602.602 0 0 0-.484.691c.015.086.027.172.036.26-.006-.027-.002.143-.003.165a1.743 1.743 0 0 1-.015.128c-.01.071-.015.088-.01.049-.086.313.027.646.352.767.284.105.681-.04.767-.353.111-.408.121-.807.049-1.223a.603.603 0 0 0-.692-.484"/>
            <path fill="#000" d="M128.678 115.026c-1.018-.316-29.022 3.67-31.406 5.4-1.586 1.15-1.062 4.5-1.045 5.793.059 4.513 2.764 26.852 2.884 33.522l39.58-6.979c-.178.032-7.316-31.047-8.433-35.529-.326-1.31-.797-1.964-1.58-2.207"/>
            <path fill="#FFF" d="M99.245 121.082c-.264-.098-.625.036-.706.324a3.84 3.84 0 0 0-.122 1.643c.108.702 1.19.51 1.083-.19a2.525 2.525 0 0 1 .07-1.07c.081-.289-.028-.597-.325-.707M99.717 126.58c.046-.076.02-.044 0 0"/>
            <path fill="#FFF" d="M98.756 125.944c-.211.334-.205.712-.139 1.089a.555.555 0 0 0 .637.446.555.555 0 0 0 .446-.637 4.226 4.226 0 0 1-.018-.109l-.012-.117c0-.024.003-.047.005-.07v-.002-.006c.136-.248.089-.56-.153-.73-.237-.165-.606-.117-.766.136M99.056 130.472c.049.276.128.632.064.88-.076.29.024.594.325.706.26.096.63-.035.706-.325.127-.485.073-.964-.012-1.452-.123-.699-1.205-.507-1.083.19M99.499 134.767c-.07.55.006 1.095.1 1.637.124.699 1.207.507 1.084-.19-.08-.451-.147-.886-.09-1.343.09-.705-1.005-.805-1.094-.104M100.392 139.949c.086.547.036 1.104.124 1.653.113.7 1.195.508 1.083-.191-.088-.55-.039-1.105-.124-1.653-.11-.701-1.192-.509-1.083.19M100.736 144.745c.07.403.115.771.06 1.18-.094.705 1.001.804 1.095.104.067-.5.014-.983-.072-1.475-.123-.7-1.206-.507-1.083.19M100.668 149.11c.065.37.084.64.032 1.018-.096.705 1 .804 1.095.104a4.24 4.24 0 0 0-.044-1.313c-.123-.698-1.206-.507-1.083.191M103.388 147.009c-.262.646-.182 1.3-.064 1.968.123.698 1.205.507 1.083-.191-.084-.479-.176-.931.012-1.395.268-.66-.765-1.036-1.03-.382M104.162 142.319c-.26-.097-.629.035-.707.325-.116.436-.093.848-.016 1.29a.555.555 0 0 0 .637.445.555.555 0 0 0 .446-.637c-.042-.242-.099-.478-.035-.717.077-.29-.025-.595-.325-.706M102.733 138.029l.287 1.624c.123.698 1.206.507 1.083-.19l-.287-1.625c-.123-.698-1.206-.507-1.083.19M103.313 133.77c0-.034 0-.069.002-.103.004-.096.017-.191.03-.286.041-.297-.207-.572-.496-.6a.557.557 0 0 0-.599.496c-.073.532-.054 1.12.404 1.477.237.183.6.1.766-.135.165-.236.109-.534-.089-.723a1.083 1.083 0 0 1-.014-.082l-.004-.044M101.588 128.686l.2 1.137c.123.698 1.206.507 1.083-.191l-.2-1.137c-.123-.698-1.206-.507-1.083.19M105.75 147.544l.23 1.3c.123.698 1.206.507 1.082-.191l-.229-1.3c-.123-.698-1.205-.507-1.082.191M106.207 142.217a.556.556 0 0 0-.446.637c.014.08.025.159.033.238-.005-.022-.002.133-.003.154a2.019 2.019 0 0 1-.024.162c-.078.29.026.595.325.707.262.097.628-.036.707-.325a2.53 2.53 0 0 0 .045-1.127.555.555 0 0 0-.637-.446M105.778 136.934a.555.555 0 0 0-.446.637l.143.812a.555.555 0 0 0 .637.446.555.555 0 0 0 .446-.637l-.144-.812a.555.555 0 0 0-.636-.446M104.625 131.667l.287 1.624c.123.698 1.206.507 1.083-.19l-.287-1.625c-.123-.698-1.206-.507-1.083.19M104.063 126.575c.033.192.064.385.087.58.015.136.02.406.005.462-.075.29.023.594.325.706.259.096.632-.034.706-.325.137-.533.053-1.08-.04-1.614-.123-.698-1.206-.507-1.083.191M107.062 128.39l.286 1.624c.123.699 1.206.508 1.083-.19l-.286-1.625c-.123-.698-1.206-.507-1.083.191M107.377 133.024c.05.343-.02.78.038 1.166.103.702 1.186.509 1.083-.191-.051-.344.018-.78-.038-1.166-.105-.702-1.187-.51-1.083.19M107.452 138.201l.23 1.3c.122.698 1.205.507 1.082-.191l-.229-1.3c-.123-.698-1.206-.507-1.083.191M108.566 142.303a.555.555 0 0 0-.445.637l.143.812a.555.555 0 0 0 .636.446.555.555 0 0 0 .446-.637l-.143-.812a.555.555 0 0 0-.637-.446M109.272 146.609c-.26-.097-.629.035-.706.325-.117.436-.094.848-.016 1.289a.555.555 0 0 0 .636.446.555.555 0 0 0 .446-.637c-.042-.242-.099-.478-.035-.717.078-.29-.024-.594-.325-.706M111.463 149.551c.113.71.096 1.431.21 2.14.112.7 1.195.509 1.082-.19-.113-.71-.095-1.432-.21-2.14-.111-.701-1.194-.51-1.082.19M111.196 144.24l.23 1.299c.122.698 1.205.507 1.082-.191l-.229-1.3c-.123-.697-1.206-.506-1.083.192M110.78 137.968c-.01.83.101 1.635.245 2.45.123.699 1.206.508 1.083-.19-.126-.716-.242-1.427-.233-2.155.008-.706-1.086-.813-1.095-.105M110.147 133.54l.229 1.3c.123.698 1.206.507 1.083-.192l-.23-1.298c-.123-.7-1.205-.508-1.082.19M109.69 128.095l.343 1.949c.123.698 1.206.507 1.083-.191l-.344-1.95c-.123-.698-1.206-.507-1.083.192M113.393 127.888a.555.555 0 0 0-.446.637l.172.974a.555.555 0 0 0 .636.446.555.555 0 0 0 .446-.636l-.171-.975a.555.555 0 0 0-.637-.446M113.609 133.116c-.042.825.101 1.64.244 2.45.123.698 1.206.507 1.083-.191-.125-.71-.269-1.43-.232-2.155.035-.707-1.06-.812-1.095-.104M114.273 139.846l.2 1.136c.124.699 1.207.508 1.084-.19l-.2-1.137c-.124-.699-1.207-.508-1.084.19M115.444 144.272a.555.555 0 0 0-.445.637l.171.975a.555.555 0 0 0 .637.445.555.555 0 0 0 .446-.636l-.172-.975a.555.555 0 0 0-.637-.446M115.313 149.542l.2 1.137c.124.698 1.206.507 1.083-.19l-.2-1.138c-.124-.698-1.206-.507-1.083.191M118.179 148.702l.229 1.3c.123.698 1.206.507 1.082-.192l-.229-1.3c-.123-.697-1.205-.506-1.082.192M117.83 143.759c-.07.55.006 1.095.101 1.638.123.698 1.206.507 1.083-.191-.08-.451-.147-.886-.09-1.343.09-.706-1.005-.805-1.094-.104M117.073 137.678l.314 1.786c.124.698 1.206.507 1.083-.19l-.315-1.787c-.123-.699-1.206-.508-1.082.19M116.898 131.624a.554.554 0 0 0-.446.637l.172.974a.554.554 0 0 0 .637.446.554.554 0 0 0 .445-.636l-.172-.975a.554.554 0 0 0-.636-.446M115.937 126.49l.2 1.138c.124.698 1.207.507 1.083-.191l-.2-1.137c-.123-.699-1.206-.508-1.083.19M119.223 127.083c.086.548.039 1.106.124 1.653.11.701 1.192.509 1.083-.19-.086-.548-.038-1.106-.124-1.654-.11-.7-1.192-.508-1.083.191M120.213 132.38a.555.555 0 0 0-.446.636l.172.974a.555.555 0 0 0 .637.446.555.555 0 0 0 .445-.637l-.171-.974a.555.555 0 0 0-.637-.446M120.406 137.592l.23 1.3c.123.697 1.206.506 1.082-.192l-.229-1.299c-.123-.698-1.206-.507-1.083.191M121.52 141.694a.555.555 0 0 0-.445.636l.086.488a.555.555 0 0 0 .636.446.555.555 0 0 0 .446-.637l-.086-.488a.555.555 0 0 0-.636-.445M121.705 145.903l.229 1.3c.123.698 1.206.507 1.082-.191l-.229-1.3c-.123-.697-1.205-.507-1.082.191M122.895 149.49a.555.555 0 0 0-.446.636l.115.65a.554.554 0 0 0 .636.445.555.555 0 0 0 .446-.637l-.114-.649a.555.555 0 0 0-.637-.446M124.481 147.721l.286 1.624c.124.698 1.206.507 1.083-.191l-.286-1.624c-.124-.699-1.206-.508-1.083.191M124.399 144.089l.315 1.786c.123.698 1.206.507 1.083-.19l-.315-1.787c-.124-.698-1.206-.508-1.083.19M123.282 137.755l.43 2.436c.123.698 1.205.507 1.082-.19l-.43-2.437c-.122-.698-1.205-.508-1.082.19M122.394 132.72l.315 1.787c.123.698 1.206.507 1.083-.191l-.315-1.787c-.123-.698-1.206-.507-1.083.191M122.335 127.316a.555.555 0 0 0-.446.637l.143.812a.555.555 0 0 0 .637.447.555.555 0 0 0 .445-.637l-.143-.813a.555.555 0 0 0-.636-.446M124.363 125.842l.229 1.3c.123.698 1.206.507 1.083-.191l-.23-1.3c-.123-.698-1.205-.507-1.082.191M125.06 130.743l.229 1.3c.123.697 1.206.506 1.083-.191l-.23-1.3c-.122-.698-1.205-.507-1.082.191M125.642 134.994l.229 1.3c.123.698 1.206.507 1.083-.191l-.23-1.3c-.122-.698-1.205-.507-1.082.191M126.358 139.055l.2 1.136c.123.698 1.206.507 1.083-.19l-.2-1.137c-.123-.699-1.206-.508-1.083.19M127.959 143.07a.555.555 0 0 0-.446.637l.172.974a.555.555 0 0 0 .637.446.554.554 0 0 0 .446-.637l-.172-.974a.554.554 0 0 0-.637-.446M128.18 148.445l.259 1.462c.123.698 1.205.507 1.082-.19l-.257-1.463c-.123-.698-1.206-.507-1.083.191M131.42 146.87l.229 1.299c.123.698 1.206.507 1.083-.191l-.23-1.3c-.123-.697-1.205-.507-1.082.192M131.284 141.982a.554.554 0 0 0-.446.636l.172.975a.554.554 0 0 0 .636.446.555.555 0 0 0 .446-.637l-.172-.975a.555.555 0 0 0-.636-.445M130.112 137.555l.23 1.3c.123.698 1.205.507 1.082-.192l-.23-1.3c-.122-.697-1.205-.506-1.082.192M130.221 131.842c-.123-.698-1.206-.507-1.082.191.096.542.21 1.08.464 1.574.324.628 1.32.16.994-.472-.211-.41-.296-.842-.376-1.293M127.62 126.273l.258 1.462c.123.698 1.206.507 1.083-.191l-.258-1.462c-.123-.699-1.206-.508-1.082.19M126.675 120.913l.258 1.462c.123.698 1.206.507 1.083-.191l-.258-1.462c-.123-.698-1.206-.507-1.083.191M126.654 116.675a.555.555 0 0 0-.446.637l.057.324a.555.555 0 0 0 .637.446.555.555 0 0 0 .446-.637l-.057-.324a.555.555 0 0 0-.637-.446M135.582 146.415a.555.555 0 0 0-.446.637l.143.812a.555.555 0 0 0 .637.446.555.555 0 0 0 .446-.637l-.143-.812a.555.555 0 0 0-.637-.446M134.086 142.045l.23 1.3c.122.698 1.204.507 1.081-.19l-.229-1.3c-.123-.699-1.205-.508-1.082.19M132.93 137.393l.201 1.137c.123.698 1.206.507 1.083-.19l-.2-1.137c-.124-.7-1.207-.508-1.083.19M132.215 133.333l.2 1.137c.123.698 1.206.507 1.083-.19l-.2-1.138c-.124-.698-1.206-.507-1.083.191M131.837 127.706c-.124-.698-1.206-.507-1.083.191l.229 1.3a.5.5 0 0 0 .332.406.5.5 0 0 0 .496.173c.532-.094.547-.745.215-.995l-.19-1.075zM130.426 122.875a.555.555 0 0 0-.445.637l.114.65a.555.555 0 0 0 .637.446.555.555 0 0 0 .446-.637l-.115-.65a.555.555 0 0 0-.637-.446M129.873 118.787a.555.555 0 0 0-.446.636c.014.08.025.16.033.24-.005-.025-.001.132-.002.153a1.526 1.526 0 0 1-.024.162c-.08.289.025.595.324.706.262.097.628-.036.707-.325.102-.376.112-.743.045-1.126a.555.555 0 0 0-.637-.446M128.756 115.3a.555.555 0 0 0-.446.636l.086.488a.555.555 0 0 0 .637.446.555.555 0 0 0 .446-.637l-.086-.488a.555.555 0 0 0-.637-.445M104.282 123.985a.603.603 0 0 0-.484.692l.093.53c.057.32.372.54.692.483.32-.056.54-.37.484-.69l-.093-.53a.603.603 0 0 0-.692-.485M101.245 123.89l.2 1.137c.123.698 1.206.507 1.083-.19l-.2-1.138c-.123-.698-1.206-.507-1.083.191M101.367 120.464a.555.555 0 0 0-.447.637l.086.487a.555.555 0 0 0 .637.446.555.555 0 0 0 .446-.637l-.086-.487a.555.555 0 0 0-.636-.446M103.605 121.13l.286 1.624c.123.698 1.206.507 1.083-.191l-.287-1.624c-.123-.698-1.205-.507-1.082.19M106.152 119.117a.555.555 0 0 0-.445.637l.143.812a.555.555 0 0 0 .637.447.555.555 0 0 0 .446-.637l-.144-.813a.555.555 0 0 0-.637-.446M106.983 123.827a.555.555 0 0 0-.446.637l.172.974a.555.555 0 0 0 .637.446.555.555 0 0 0 .446-.637l-.172-.974a.555.555 0 0 0-.637-.446M108.907 122.706l.258 1.463c.123.697 1.205.507 1.082-.191l-.257-1.462c-.124-.698-1.206-.508-1.083.19M109.353 119.223a.555.555 0 0 0-.446.637l.086.487a.555.555 0 0 0 .637.446.555.555 0 0 0 .446-.637l-.086-.487a.555.555 0 0 0-.637-.446M111.448 119.077l.23 1.3c.122.697 1.205.506 1.082-.192l-.229-1.3c-.123-.697-1.206-.506-1.083.192M112.413 123.596l.229 1.299c.123.698 1.206.507 1.083-.191l-.23-1.3c-.123-.698-1.206-.507-1.082.192M115.467 120.657c-.288.05-.508.344-.446.637.07.328.269.638.335.946a.556.556 0 0 0 .636.445c.287-.05.508-.343.446-.636-.07-.33-.27-.638-.334-.946a.557.557 0 0 0-.637-.446M115.17 118.03a.554.554 0 0 0-.444.636l.057.325a.555.555 0 0 0 .636.447.555.555 0 0 0 .446-.638l-.057-.324a.555.555 0 0 0-.637-.446M117.77 117.572a.555.555 0 0 0-.446.636l.171.975a.555.555 0 0 0 .637.446.555.555 0 0 0 .446-.637l-.172-.974a.555.555 0 0 0-.637-.446M118.173 122.078l.258 1.461c.123.699 1.206.508 1.083-.19l-.258-1.462c-.123-.699-1.206-.508-1.083.19M121.125 121.725l.23 1.299c.123.698 1.205.507 1.082-.191l-.23-1.3c-.122-.698-1.205-.507-1.082.192M120.884 117.19a.555.555 0 0 0-.446.637l.115.65a.554.554 0 0 0 .636.445.554.554 0 0 0 .446-.637l-.114-.65a.555.555 0 0 0-.637-.445M124.196 116.662c-.123-.699-1.206-.508-1.083.19.095.542.199 1.07.513 1.532.17.247.565.242.775.063.246-.209.233-.527.064-.775-.189-.276-.213-.692-.27-1.01M123.829 120.913l.258 1.461c.123.699 1.205.508 1.082-.19l-.258-1.462c-.123-.699-1.205-.508-1.082.19M97.688 56.068c.062-.005.123-.01.186-.013a4.851 4.851 0 0 0-.186.013M109.082 70.04c-.656.419-1.194.533-1.61 1.292-.128.234-.29 1.944-.244 1.92 1.429-.774 2.667-2.177 4.14-3.011.903-.512 2.606-.768 3.066-1.78-1.919.221-3.7.522-5.352 1.579"/>
            <path fill="#FF7900" d="M112.36 58.414l.275.253 1.173-1.283-55.77-51.04-1.411 1.543.275.252c.438.401.37 1.19-.155 1.763-.523.572-1.304.711-1.742.31l-.276-.252-1.764 1.927.276.253c.438.4.369 1.19-.155 1.763-.524.572-1.304.71-1.742.31l-.276-.253-1.764 1.928.275.252c.439.402.37 1.191-.155 1.763-.523.573-1.304.711-1.742.31l-.275-.252-1.765 1.928.276.252c.438.401.37 1.19-.155 1.763-.524.573-1.304.711-1.742.31l-.276-.252-1.764 1.928.276.252c.438.4.369 1.19-.155 1.763-.524.572-1.304.711-1.743.31l-.275-.252-1.764 1.927.275.252c.439.402.37 1.19-.155 1.763-.523.573-1.304.712-1.742.31l-.276-.252-1.764 1.928.276.252c.438.402.369 1.19-.155 1.763s-1.304.711-1.742.31l-.276-.252-1.764 1.928.275.252c.439.401.37 1.19-.154 1.763-.524.572-1.304.711-1.743.31l-.275-.252-1.174 1.282 55.77 51.04 1.412-1.542-.276-.253c-.438-.4-.368-1.19.155-1.762.524-.573 1.304-.712 1.743-.31l.275.252 1.764-1.928-.275-.252c-.439-.402-.37-1.19.155-1.763.524-.573 1.304-.711 1.742-.31l.276.252 1.764-1.928-.276-.252c-.438-.401-.369-1.19.155-1.763.524-.572 1.304-.711 1.742-.31l.276.252 1.764-1.927-.275-.253c-.439-.4-.37-1.19.155-1.763.523-.572 1.303-.711 1.742-.31l.275.253 1.765-1.928-.276-.252c-.438-.402-.369-1.191.155-1.763.524-.573 1.304-.712 1.742-.31l.276.252 1.764-1.928-.276-.252c-.438-.401-.368-1.19.155-1.763.524-.573 1.304-.711 1.743-.31l.275.252 1.764-1.928-.275-.252c-.439-.401-.37-1.19.155-1.763.523-.572 1.304-.711 1.742-.31l.276.252 1.764-1.928-.276-.252c-.438-.4-.369-1.19.155-1.762.524-.573 1.304-.712 1.742-.31"/>
            <path fill="#F3F3F3" d="M80.262 28.698a1.487 1.487 0 1 1-2.194-2.008 1.487 1.487 0 0 1 2.194 2.008M52.157 59.407a1.487 1.487 0 1 1-2.194-2.007 1.487 1.487 0 0 1 2.194 2.007M35.017 40.999L60.41 13.252l41.522 38.001-1.195 9.53-20.102 21.964z"/>
            <g>
                <g transform="rotate(-10 120.663 -166.779)">
                    <mask id="d" fill="#fff">
                        <use xlink:href="#c"/>
                    </mask>
                    <path fill="#FF7900" d="M17.657-1.667a.884.884 0 1 1-.842 1.556.884.884 0 0 1 .842-1.556" mask="url(#d)"/>
                </g>
                <g transform="rotate(-10 120.663 -166.779)">
                    <mask id="f" fill="#fff">
                        <use xlink:href="#e"/>
                    </mask>
                    <path fill="#FFD450" d="M38.711 9.58a.622.622 0 1 1 .184 1.229.622.622 0 0 1-.184-1.23" mask="url(#f)"/>
                </g>
                <g transform="rotate(-10 120.663 -166.779)">
                    <mask id="h" fill="#fff">
                        <use xlink:href="#g"/>
                    </mask>
                    <path fill="#FFD450" d="M54.551 36.85a.622.622 0 1 1-.751.99.622.622 0 0 1 .751-.99" mask="url(#h)"/>
                </g>
                <g transform="rotate(-10 120.663 -166.779)">
                    <mask id="j" fill="#fff">
                        <use xlink:href="#i"/>
                    </mask>
                    <path fill="#FF7900" d="M23.367 36.435a.885.885 0 1 1-1.588-.782.885.885 0 0 1 1.588.782" mask="url(#j)"/>
                </g>
                <g transform="rotate(-10 120.663 -166.779)">
                    <mask id="l" fill="#fff">
                        <use xlink:href="#k"/>
                    </mask>
                    <path fill="#FFD450" d="M27.13-1.876a.885.885 0 1 1-1.675-.57.885.885 0 0 1 1.675.57" mask="url(#l)"/>
                </g>
                <g transform="rotate(-10 120.663 -166.779)">
                    <mask id="n" fill="#fff">
                        <use xlink:href="#m"/>
                    </mask>
                    <path fill="#FF7900" d="M57.088 25.868a.885.885 0 1 1-1.675-.572.885.885 0 0 1 1.675.572" mask="url(#n)"/>
                </g>
                <g transform="rotate(-10 120.663 -166.779)">
                    <mask id="p" fill="#fff">
                        <use xlink:href="#o"/>
                    </mask>
                    <path fill="#FFD450" d="M20.961 44.584a.622.622 0 1 1-1.101-.576.622.622 0 0 1 1.101.576" mask="url(#p)"/>
                </g>
                <g transform="rotate(-10 120.663 -166.779)">
                    <mask id="r" fill="#fff">
                        <use xlink:href="#q"/>
                    </mask>
                    <path fill="#FFD450" d="M32.683-.778a.442.442 0 1 1-.794-.391.442.442 0 0 1 .794.39" mask="url(#r)"/>
                </g>
                <g transform="rotate(-10 120.663 -166.779)">
                    <mask id="t" fill="#fff">
                        <use xlink:href="#s"/>
                    </mask>
                    <path fill="#FF7900" d="M44.581 47.816a.442.442 0 1 1-.793-.39.442.442 0 0 1 .793.39" mask="url(#t)"/>
                </g>
                <g transform="rotate(-10 120.663 -166.779)">
                    <mask id="v" fill="#fff">
                        <use xlink:href="#u"/>
                    </mask>
                    <path fill="#FFD450" d="M42.432 34.522a.526.526 0 1 1 1.036.18.526.526 0 0 1-1.036-.18" mask="url(#v)"/>
                </g>
                <g transform="rotate(-10 120.663 -166.779)">
                    <mask id="x" fill="#fff">
                        <use xlink:href="#w"/>
                    </mask>
                    <path fill="#FFD450" d="M30.973 36.27a.565.565 0 1 1 .167 1.117.565.565 0 0 1-.167-1.117" mask="url(#x)"/>
                </g>
                <g transform="rotate(-10 120.663 -166.779)">
                    <mask id="z" fill="#fff">
                        <use xlink:href="#y"/>
                    </mask>
                    <path fill="#FF7900" d="M46.648 26.222a.884.884 0 1 1-.841 1.556.884.884 0 0 1 .841-1.556" mask="url(#z)"/>
                </g>
                <g transform="rotate(-10 120.663 -166.779)">
                    <mask id="B" fill="#fff">
                        <use xlink:href="#A"/>
                    </mask>
                    <path fill="#FFD450" d="M15.788 13.93a.621.621 0 1 1-.751.99.621.621 0 0 1 .75-.99" mask="url(#B)"/>
                </g>
                <g transform="rotate(-10 120.663 -166.779)">
                    <mask id="D" fill="#fff">
                        <use xlink:href="#C"/>
                    </mask>
                    <path fill="#FF7900" d="M6.734 37.68a.526.526 0 1 1 .349-.992.526.526 0 0 1-.35.993" mask="url(#D)"/>
                </g>
                <g transform="rotate(-10 120.663 -166.779)">
                    <mask id="F" fill="#fff">
                        <use xlink:href="#E"/>
                    </mask>
                    <path fill="#FFD450" d="M50.309 17.176a.526.526 0 1 1 .349-.992.526.526 0 0 1-.35.992" mask="url(#F)"/>
                </g>
                <g transform="rotate(-10 120.663 -166.779)">
                    <mask id="H" fill="#fff">
                        <use xlink:href="#G"/>
                    </mask>
                    <path fill="#FF7900" d="M33.842 9.219a.885.885 0 1 1-1.675-.572.885.885 0 0 1 1.675.572" mask="url(#H)"/>
                </g>
                <g transform="rotate(-10 120.663 -166.779)">
                    <mask id="J" fill="#fff">
                        <use xlink:href="#I"/>
                    </mask>
                    <path fill="#FF7900" d="M29.59 28.949a.443.443 0 1 1-.838-.286.443.443 0 0 1 .838.286" mask="url(#J)"/>
                </g>
                <g transform="rotate(-10 120.663 -166.779)">
                    <mask id="L" fill="#fff">
                        <use xlink:href="#K"/>
                    </mask>
                    <path fill="#FFD450" d="M18.973 28.227a.885.885 0 1 1 1.639.67.885.885 0 0 1-1.639-.67" mask="url(#L)"/>
                </g>
                <g transform="rotate(-10 120.663 -166.779)">
                    <mask id="N" fill="#fff">
                        <use xlink:href="#M"/>
                    </mask>
                    <path fill="#FFD450" d="M27.089 2.164a.622.622 0 1 1 .183 1.23.622.622 0 0 1-.183-1.23" mask="url(#N)"/>
                </g>
                <g transform="rotate(-10 120.663 -166.779)">
                    <mask id="P" fill="#fff">
                        <use xlink:href="#O"/>
                    </mask>
                    <path fill="#FF7900" d="M43.22 9.213a.622.622 0 1 1-1.103-.576.622.622 0 0 1 1.102.576" mask="url(#P)"/>
                </g>
                <g transform="rotate(-10 120.663 -166.779)">
                    <mask id="R" fill="#fff">
                        <use xlink:href="#Q"/>
                    </mask>
                    <path fill="#FF7900" d="M38.364 44.89a.622.622 0 1 1-1.102-.577.622.622 0 0 1 1.102.577" mask="url(#R)"/>
                </g>
                <g transform="rotate(-10 120.663 -166.779)">
                    <mask id="T" fill="#fff">
                        <use xlink:href="#S"/>
                    </mask>
                    <path fill="#FF7900" d="M20.915 15.245a.526.526 0 1 1 .35-.992.526.526 0 0 1-.35.992" mask="url(#T)"/>
                </g>
                <g transform="rotate(-10 120.663 -166.779)">
                    <mask id="V" fill="#fff">
                        <use xlink:href="#U"/>
                    </mask>
                    <path fill="#FF7900" d="M36.143 34.743a.622.622 0 1 1 .183 1.23.622.622 0 0 1-.183-1.23" mask="url(#V)"/>
                </g>
                <g transform="rotate(-10 120.663 -166.779)">
                    <mask id="X" fill="#fff">
                        <use xlink:href="#W"/>
                    </mask>
                    <path fill="#FFD450" d="M41.036.737a.885.885 0 1 1-1.571.813.885.885 0 0 1 1.57-.813" mask="url(#X)"/>
                </g>
                <g transform="rotate(-10 120.663 -166.779)">
                    <mask id="Z" fill="#fff">
                        <use xlink:href="#Y"/>
                    </mask>
                    <path fill="#FF7900" d="M63.082 39.913a.622.622 0 1 1-1.102-.576.622.622 0 0 1 1.102.576" mask="url(#Z)"/>
                </g>
                <g transform="rotate(-10 120.663 -166.779)">
                    <mask id="ab" fill="#fff">
                        <use xlink:href="#aa"/>
                    </mask>
                    <path fill="#FFD450" d="M38.621 27.177a1.216 1.216 0 1 1-2.396.41 1.216 1.216 0 0 1 2.396-.41" mask="url(#ab)"/>
                </g>
                <g transform="rotate(-10 120.663 -166.779)">
                    <mask id="ad" fill="#fff">
                        <use xlink:href="#ac"/>
                    </mask>
                    <path fill="#FF7900" d="M-4.097 22.74a.622.622 0 1 1-.752.99.622.622 0 0 1 .752-.99" mask="url(#ad)"/>
                </g>
                <g transform="rotate(-10 120.663 -166.779)">
                    <mask id="af" fill="#fff">
                        <use xlink:href="#ae"/>
                    </mask>
                    <path fill="#FF7900" d="M14.343 8.591a.885.885 0 1 1-1.675-.572.885.885 0 0 1 1.675.572" mask="url(#af)"/>
                </g>
                <g transform="rotate(-10 120.663 -166.779)">
                    <mask id="ah" fill="#fff">
                        <use xlink:href="#ag"/>
                    </mask>
                    <path fill="#FF7900" d="M28.886 43.857a.885.885 0 1 1-1.675-.571.885.885 0 0 1 1.675.57" mask="url(#ah)"/>
                </g>
                <g transform="rotate(-10 120.663 -166.779)">
                    <mask id="aj" fill="#fff">
                        <use xlink:href="#ai"/>
                    </mask>
                    <path fill="#FF7900" d="M58.66 48.784a.442.442 0 1 1-.794-.39.442.442 0 0 1 .794.39" mask="url(#aj)"/>
                </g>
                <g transform="rotate(-10 120.663 -166.779)">
                    <mask id="al" fill="#fff">
                        <use xlink:href="#ak"/>
                    </mask>
                    <path fill="#FF7900" d="M8.218 29.47a.526.526 0 1 1 1.037.18.526.526 0 0 1-1.037-.18" mask="url(#al)"/>
                </g>
                <g transform="rotate(-10 120.663 -166.779)">
                    <mask id="an" fill="#fff">
                        <use xlink:href="#am"/>
                    </mask>
                    <path fill="#FF7900" d="M3.9 9.537a1.129 1.129 0 1 1 .333 2.232A1.129 1.129 0 0 1 3.9 9.537" mask="url(#an)"/>
                </g>
                <g transform="rotate(-10 120.663 -166.779)">
                    <mask id="ap" fill="#fff">
                        <use xlink:href="#ao"/>
                    </mask>
                    <path fill="#FFD450" d="M26.603 8.525a.885.885 0 1 1-.842 1.556.885.885 0 0 1 .842-1.556" mask="url(#ap)"/>
                </g>
                <g transform="rotate(-10 120.663 -166.779)">
                    <mask id="ar" fill="#fff">
                        <use xlink:href="#aq"/>
                    </mask>
                    <use fill="#FFF" xlink:href="#aq"/>
                    <g mask="url(#ar)">
                        <path fill="#FF7900" d="M35.782 25.137c-3.57 3.09 2.054 7.572 2.054 7.572 3.197-3.592 1.515-10.662-2.054-7.572m.88 4.384c-.52-.747-.795-1.437-.795-1.997 0-.33.077-.836.749-1.418.458-.396.773-.39 1.12-.24.431.186.636 1.085.586 2.346a6.097 6.097 0 0 1-.645 2.521 9.793 9.793 0 0 1-1.015-1.212"/>
                        <path fill="#FF7900" d="M37.347 32.413s2.932 6.519 6.98 3.86c4.047-2.659-2.554-6.025-6.98-3.86m6.28 2.793c-.762.5-1.277.442-1.598.355-.544-.148-1.136-.597-1.711-1.3a9.502 9.502 0 0 1-.884-1.307 6.235 6.235 0 0 1 2.641.036c1.242.285 2.056.72 2.112 1.19.045.376-.04.685-.56 1.026"/>
                        <path fill="#FFF" d="M38.392 33.972c-.518.391-1.35.161-1.86-.513-.508-.674-.5-1.538.018-1.929"/>
                        <path fill="#FF7900" d="M29.98 49.662l11.994-9.051a.256.256 0 0 0 .05-.357L31.568 26.396a.256.256 0 0 0-.358-.05l-11.994 9.051L29.98 49.662z"/>
                        <g transform="rotate(53 -8.92 44.265)">
                            <mask id="at" fill="#fff">
                                <use xlink:href="#as"/>
                            </mask>
                            <path fill="#FFD203" d="M19.745 3.312a.348.348 0 0 1-.343.351L.345 3.677a.347.347 0 0 1-.343-.35L0 .421C0 .227.153.07.343.07L19.399.056c.19 0 .344.157.344.351l.002 2.905z" mask="url(#at)"/>
                        </g>
                        <path fill="#FF7900" d="M38.2 33.415l-2.816 2.125-1.274-1.688 2.816-2.125z"/>
                    </g>
                    <path fill="#FFD450" d="M10.964 23.245a1.216 1.216 0 1 1-2.396.409 1.216 1.216 0 0 1 2.396-.41" mask="url(#ar)"/>
                </g>
            </g>
            <g>
                <path fill="#FFF" d="M95.06 65.99c.282 1.429.58 2.832.846 4.222.509 2.664.92 5.37.837 8.089-.084 2.768-1.237 5.36-1.283 8.074-.085 4.95-1.18 9.83-1.602 14.74-.262 3.047-1.04 5.666-.52 8.76a21.313 21.313 0 0 0 1.553 5.163c.892 1.978 2.53 3.057 3.444 4.978.649-.148 1.257-.423 1.883-.714-.717-2.063-2.711-4.28-3.796-6.249-.958-1.736-1.244-3.326-1.517-5.26-.855-6.07.68-12.159 1.516-18.135.641-4.581 2.269-9.024 1.944-13.713-.179-2.597-6.463-19.37-.698-19.91-4.404.345-3.19 7.003-2.607 9.955"/>
                <path fill="#724F47" d="M105.978 71.611c-2.638-3.63-2.908-8.648-5.655-12.276-1.748-2.308-4.415-4.92-5.541-.547-.601 2.334.528 5.27 1.027 7.543 1.441 6.566 1.898 12.676 1.152 19.475-.452 4.12-.673 8.286.42 12.323 1.053 3.893 4.828 1.666 7.853-.814 1.544-1.267 2.893-2.6 3.584-3.22 3.346-2.994 8.605-9.09 6.473-13.91-1.791-4.047-6.815-5.14-9.313-8.574"/>
                <path fill="#FFF" d="M116.532 75.958c-3.43-.187-5.139 3.939-7.867.105-2.35-3.303-3.515-6.892-4.75-10.723-.715-2.217-3.55-9.378-6.662-8.95l-.763-.053c1.862.078 3.609 3.822 4.327 5.254 1.275 2.545 2.109 5.379 2.941 8.198.874 2.953 1.873 6.477 4.162 8.672 1.347 1.292 2.489 1.783 4.281 1.358.854-.203 7.265-3.7 4.331-3.86"/>
            </g>
        </g>
        <g fill="#FFF">
            <path d="M41.378 67.571c-3.219-.735-6.528-.621-9.798-.375-1.026.078-1.182-1.51-.156-1.587 3.396-.256 6.867-.376 10.21.388 1 .228.746 1.804-.256 1.574"/>
            <path d="M31.408 66.287a.024.024 0 0 0-.004.007.238.238 0 0 0 .022.207c.014.02.028.042.104.036 3.742-.282 6.874-.324 9.995.39.032.007.05.006.054.005a.283.283 0 0 0 .02-.188c-.014-.06-.043-.087-.112-.103-3.262-.745-6.74-.62-10.014-.372-.044.003-.059.01-.065.018m11.176 1.498l-.045.051c-.33.356-.808.495-1.31.38-2.958-.676-5.977-.633-9.6-.36a1.4 1.4 0 0 1-1.296-.61 1.556 1.556 0 0 1-.121-1.526c.217-.45.64-.732 1.162-.77 3.377-.255 6.975-.382 10.407.402.53.12.923.482 1.08.992a1.56 1.56 0 0 1-.277 1.441M48.584 78.823c-3.002.759-5.762 2.313-8.824 2.85-1.008.176-1.393-1.372-.378-1.55 3.062-.536 5.821-2.091 8.824-2.849.998-.252 1.376 1.298.378 1.55"/>
            <path d="M39.444 80.79a.295.295 0 0 0 .056.18c.039.05.076.063.146.051 1.653-.29 3.2-.881 4.838-1.508 1.269-.486 2.58-.988 3.938-1.331.069-.017.074-.038.08-.057a.238.238 0 0 0-.048-.202c-.011-.011-.023-.023-.086-.008-1.283.324-2.559.812-3.793 1.285-1.623.62-3.3 1.263-5.08 1.574a.15.15 0 0 0-.051.017M49.504 79a1.433 1.433 0 0 1-.758.464c-1.282.323-2.557.811-3.79 1.283-1.624.622-3.303 1.264-5.082 1.576-.917.16-1.598-.505-1.726-1.241-.14-.796.332-1.473 1.12-1.611 1.652-.29 3.198-.882 4.835-1.508 1.27-.486 2.583-.988 3.941-1.331.51-.13 1.006.005 1.358.368.374.384.52.967.372 1.485a1.382 1.382 0 0 1-.27.515M51.694 89.221c-.836.586-1.843-.652-.999-1.244 1.021-.717 2.121-1.305 3.089-2.098.795-.652 1.795.59.999 1.244-.968.793-2.068 1.38-3.089 2.098"/>
            <path d="M51.314 88.68c.404-.284.82-.548 1.221-.803.65-.413 1.262-.802 1.828-1.266.057-.045.053-.067.049-.087a.238.238 0 0 0-.13-.163c-.015-.006-.03-.011-.079.03-.629.514-1.306.944-1.96 1.36-.389.247-.79.502-1.168.767-.032.022-.04.037-.04.037a.296.296 0 0 0 .127.14c.056.029.095.025.152-.015m4.096-1.251c-.061.073-.13.142-.208.205-.628.514-1.304.944-1.957 1.36-.39.247-.792.502-1.17.768h-.001c-.76.534-1.66.22-2.088-.391-.465-.662-.326-1.475.33-1.936.402-.282.817-.546 1.218-.8.65-.413 1.264-.803 1.83-1.268.407-.333.912-.422 1.385-.244.5.19.881.655.968 1.187.068.41-.043.805-.307 1.119"/>
        </g>
        <g fill="#FFF">
            <path d="M123.018 64.043c2.4-1.456 4.677-3.107 7.078-4.563.881-.535 1.565.908.694 1.436-2.4 1.456-4.676 3.107-7.077 4.563-.882.534-1.566-.908-.695-1.436"/>
            <path d="M130.468 60.03a.318.318 0 0 0-.03.016c-1.189.72-2.372 1.507-3.517 2.267-1.155.767-2.348 1.56-3.56 2.295-.052.032-.086.068-.085.146 0 .078.038.146.065.174a.251.251 0 0 0 .029-.015c1.19-.721 2.373-1.507 3.517-2.268 1.155-.767 2.349-1.56 3.56-2.295.052-.031.086-.068.085-.146a.278.278 0 0 0-.064-.174zm-7.14 6.227a1.26 1.26 0 0 1-.611-.158c-.452-.249-.752-.764-.763-1.314a1.479 1.479 0 0 1 .721-1.308c1.189-.72 2.37-1.506 3.514-2.265 1.156-.768 2.351-1.562 3.564-2.298.434-.263.922-.283 1.338-.055.452.249.752.764.764 1.314a1.478 1.478 0 0 1-.722 1.308c-1.188.72-2.37 1.506-3.514 2.266-1.156.768-2.35 1.562-3.564 2.297a1.401 1.401 0 0 1-.727.213zM118.801 51.307c1.507-1.99 3.332-3.726 5.18-5.394.765-.691 1.754.561.995 1.247-1.75 1.58-3.469 3.216-4.897 5.1-.621.82-1.9-.132-1.278-.953"/>
            <path d="M124.46 46.373c.003.001-.013.01-.036.03-2.049 1.85-3.699 3.459-5.096 5.303-.04.052-.033.068-.027.082a.237.237 0 0 0 .167.124c.02.002.041.005.084-.051 1.47-1.94 3.263-3.642 4.98-5.192.053-.047.065-.083.048-.144-.024-.088-.095-.146-.12-.152m-4.976 6.862a1.554 1.554 0 0 1-1.402-.934c-.196-.466-.126-.974.192-1.394 1.545-2.04 3.443-3.842 5.263-5.485.596-.538 1.423-.491 1.966.11.5.553.604 1.497-.084 2.119-1.93 1.741-3.487 3.26-4.813 5.009a1.392 1.392 0 0 1-1.122.575M111.783 40.009a30.065 30.065 0 0 0 2.394-5.845c.288-.988 1.76-.374 1.476.604a30.073 30.073 0 0 1-2.394 5.845c-.483.896-1.964.301-1.476-.604"/>
            <path d="M112.354 40.345c.03.023.096.06.177.05.08-.005.117-.042.146-.096a29.496 29.496 0 0 0 2.34-5.716c.018-.059.018-.11-.036-.17a.282.282 0 0 0-.16-.089 30.802 30.802 0 0 1-2.455 5.998.338.338 0 0 0-.012.023zm.165 1.373c-.268 0-.535-.067-.766-.192-.691-.372-.924-1.143-.552-1.83a29.485 29.485 0 0 0 2.341-5.717c.22-.751.925-1.137 1.68-.918.732.213 1.332.98 1.066 1.892a30.832 30.832 0 0 1-2.446 5.973 1.47 1.47 0 0 1-1.323.792z"/>
        </g>
    </g>
</svg>
