<svg xmlns="http://www.w3.org/2000/svg" xmlns:xlink="http://www.w3.org/1999/xlink" width="150" height="150" viewBox="0 0 150 150">
    <defs>
        <path id="a" d="M33.033 2.68A8.11 8.11 0 0 0 27.21.004a8.118 8.118 0 0 0-5.955 2.375l-.006.005a8.982 8.982 0 0 0-.27.284L.75 24v38c0 4.418 3.616 8 8.077 8h36.346c4.46 0 8.077-3.582 8.077-8V24L33.033 2.68zM27 9c2.788 0 5.048 2.239 5.048 5s-2.26 5-5.048 5c-2.788 0-5.048-2.239-5.048-5S24.212 9 27 9zm17.483 27.534L24.34 61.624a3.145 3.145 0 0 1-2.457 1.176 3.145 3.145 0 0 1-2.457-1.177L9.355 49.08a3.127 3.127 0 0 1 .232-4.176l1.26-1.255a3.154 3.154 0 0 1 4.272-.16l6.138 6.771 18.616-17.971a3.141 3.141 0 0 1 2.15-.848 3.172 3.172 0 0 1 2.837 1.786 3.115 3.115 0 0 1-.38 3.308h.003z"/>
    </defs>
    <g fill="none" fill-rule="evenodd">
        <circle cx="75" cy="75" r="75" fill="#000"/>
        <use fill="#8F8F8F" fill-rule="nonzero" transform="translate(48 40)" xlink:href="#a"/>
    </g>
</svg>
