<svg xmlns="http://www.w3.org/2000/svg" xmlns:xlink="http://www.w3.org/1999/xlink" width="70" height="70" viewBox="0 0 70 70">
    <defs>
        <path id="a" d="M.042 34.948c0 19.29 15.638 34.927 34.927 34.927 19.29 0 34.927-15.638 34.927-34.927C69.896 15.658 54.26.02 34.97.02S.042 15.658.042 34.948z"/>
    </defs>
    <g fill="none" fill-rule="evenodd">
        <mask id="b" fill="#fff">
            <use xlink:href="#a"/>
        </mask>
        <path fill="#B5E8F7" d="M-6.533 77.815h82.66V-7.933h-82.66z" mask="url(#b)"/>
        <path fill="#AFAFAF" d="M30.836 32.99c.25.038.476.253.329.507-.094.16-.326.23-.501.25-.29.033-.57-.112-.44-.432.086-.216.36-.365.612-.326" mask="url(#b)"/>
        <path fill="#FFF" d="M-9.048-2.554l39.33-16.256 22.991 55.625-39.33 16.256z" mask="url(#b)"/>
        <g mask="url(#b)">
            <path fill="#FF7900" d="M16.566 48.606l4.629-1.87-1.87-4.629-4.63 1.87z"/>
            <path fill="#FFF" d="M16.96 47.678l3.306-1.336L20 45.68l-3.306 1.335z"/>
        </g>
        <path fill="#AFAFAF" d="M-3.047 1.147l31.693-13.1 1.035 2.505L-2.012 3.65zM-1.038 6.006L30.654-7.093l.277.669L-.762 6.675zM-.541 7.21L31.15-5.89l.277.669L-.265 7.878zM-.044 8.412L31.65-4.687l.276.668L.232 9.081zM.453 9.615L32.146-3.484l.276.669L.73 10.284zM.95 10.818L32.643-2.28l.277.668-31.693 13.1zM1.448 12.021l20.178-8.34.276.669-20.178 8.34zM2.442 14.427L34.135 1.328l.276.668-31.693 13.1zM2.94 15.63L34.631 2.531l.276.668L3.215 16.3zM3.436 16.833L35.13 3.734l.277.668-31.693 13.1zM3.934 18.036L35.626 4.937l.277.668-31.693 13.1zM4.43 19.239L36.124 6.14l.277.668-31.693 13.1zM4.928 20.442L36.621 7.343l.276.668-31.693 13.1zM5.425 21.645l31.693-13.1.276.67L5.702 22.312zM5.922 22.848L37.615 9.749l.276.668L6.2 23.517zM6.42 24.051l31.692-13.099.277.668-31.693 13.1zM6.917 25.254l14.663-6.06.276.668-14.663 6.06zM7.911 27.66l31.693-13.1.276.67L8.188 28.327zM8.409 28.863l31.692-13.1.277.67L8.685 29.53zM8.906 30.066l31.692-13.1.277.67L9.182 30.733zM9.403 31.269l31.693-13.1.276.67L9.679 31.936zM9.9 32.472l21.929-9.064.276.669-21.928 9.063zM10.895 34.878l31.692-13.1.277.669L11.17 35.546zM11.392 36.08l31.693-13.098.276.668-31.693 13.099zM11.889 37.284l31.693-13.1.276.669-31.693 13.099zM12.386 38.487l9.061-3.745.277.668-9.062 3.745zM32.125 37.422v-.438c-.89.332-1.735.707-2.449 1.116-.931.535-1.64 1.135-1.937 1.786a.204.204 0 1 0 .372.17c.258-.566.908-1.107 1.769-1.602.653-.375 1.426-.721 2.245-1.032zm-6.618-1.05a.205.205 0 0 1-.113-.394c.2-.057.829-.689 1.515-1.44 1-1.096 2.088-2.42 2.188-2.642.063-.146.187-.168.303-.091a.205.205 0 0 1 .06.278l-.01.018a7.67 7.67 0 0 1-.122.802c-.14.768-.352 1.929-.548 3.061.237-.64.482-1.158.673-1.201.174-.04.297.048.354.298.026.116.008.353-.012.621-.028.36-.063.786-.061.787.037.02-.005-.138.15-.42l.003-.007.314-.74.177-.42c.11-.262.22-.344.357-.287.165.068.135.233.094.478-.058.337-.162.94-.052 1.134.009.015.046.007.132-.042.093-.053.29-.34.434-.553.14-.205.249-.364.392-.347.067.008.117.03.148.07a.42.42 0 0 1 .242-.085v.409c-.014 0-.029.009-.044.023l.044-.005v.562a.31.31 0 0 1-.114-.158.671.671 0 0 1-.029-.248c-.054.109-.105.24-.131.31-.052.135-.082.218-.249.194-.099-.014-.155-.059-.172-.14-.11.143-.222.269-.319.324-.345.196-.56.117-.69-.112a.89.89 0 0 1-.092-.368l-.07.162a.244.244 0 0 1-.017.042c-.297.544-.524.681-.704.583-.232-.127-.188-.696-.152-1.176l.02-.267c-.242.55-.664 1.98-.89 2.745-.055.188-.102.347-.153.463 0 .007 0 .015-.002.023a.205.205 0 0 1-.226.18c-.136-.015-.2-.096-.18-.246.187-1.43.706-4.27.97-5.719a1.06 1.06 0 0 1 .006-.027 42.5 42.5 0 0 1-1.719 2.009c-.73.8-1.424 1.479-1.705 1.56zm6.618-1.122a.39.39 0 0 1 .057.004c.17.021.216.134.222.28.085-.116.19-.217.33-.25.468-.107 1.231-.246 1.983-.36a20.404 20.404 0 0 1 1.75-.201c.446-.024 1.344 0 2.093.156.53.112.996.294 1.215.583a.204.204 0 0 1-.04.287l-.01.007a.203.203 0 0 1-.106.034c-.032.005-.07.009-.115.013-.635.066-3.504.36-5.785 1.07-.537.168-1.075.351-1.594.549v-.438c.482-.18.978-.348 1.472-.502 1.976-.615 4.377-.923 5.442-1.04a3.453 3.453 0 0 0-.562-.162 8.746 8.746 0 0 0-1.99-.148c-.426.022-1.063.101-1.71.198-.746.113-1.498.25-1.951.354-.056.013-.142.164-.21.283-.074.13-.135.237-.242.277-.107.04-.188.034-.25-.005v-.562c.045-.006.069-.01.006-.018h-.005v-.409z" mask="url(#b)"/>
        <path fill="#725048" d="M33.942 30.948c.712-.832 1.466-1.543 1.962-2.733.497-1.19 1.41-6.125 3.258-6.65 1.848-.524 4.29 2.188 5.052 2.732.762.544 1.286.897 2.05.984.765.088 1.604.653 3.415.41 1.81-.245 4.77.162 6.175 3.914 1.407 3.752 1.974 5.446 3.368 7.451 1.393 2.006 3.45 6.105 4.035 7.139.585 1.034 4.089 3.21 6.088 4.679 2 1.468-10.974 9.776-13.035 8.083-2.062-1.693-3.892-3.322-6.112-4.146-2.22-.824-7.982-3.088-10.786-4.946-2.805-1.858-7.056-4.782-8.006-5.544-.951-.762-.82-1.68-.41-2.562.412-.882.435-1.415 1.448-1.922 1.012-.508 1.048-.788 1.15-1.3.1-.511.553-.833.988-.754a2.456 2.456 0 0 1 1.707 1.241c.5.886.731 1.668 1.262 2.148.531.48 1.573 1.06 2.564.63.992-.431 1.163-1.047 1.807-2.321.644-1.274.527-3.091.426-4.074-.1-.982-.835-2.97-.96-3.42-.123-.45-.355-.514-.817-.642-.462-.129-1.475 1.873-2.342 2.752-.867.88-1.948 1.037-2.98 1.165-2.89.36-2.026-1.474-1.307-2.314" mask="url(#b)"/>
        <path stroke="#000" stroke-width=".254" d="M37.254 36.527l.332.092c.17.048.219.065.245-.061a1.456 1.456 0 0 1 .512-2.456c.018-.11-.036-.13-.225-.165l-.308-.056c-.942.313-1.45 1.788-.556 2.646z" mask="url(#b)"/>
        <path fill="#5E433D" d="M36.118 36.759zm.171.265c.308.545.514 1.05.75 1.47-.26-.452-.48-.991-.75-1.47zm3.843-7.427c-.52.55-1.253 1.84-1.903 2.5.598-.606 1.364-1.938 1.903-2.5zm2.143 3.104c-.161-1.276-.612-2.512-.704-2.895-.092-.383-.452-.8-1.343-1.167-.89-.366-1.62-2.315-1.742-3.302-.123-.987-.354-.297-.184.663.17.96.755 1.996 1.095 2.488.34.49-.117 1.714-.73 2.496-.615.782-1.51 1.562-2.04 1.794-1.013.444-1.784.504-3.12.246.401.15.788.24 1.157.283a2.653 2.653 0 0 1-.782-.081l1.102 2.668c.357.133.784.386 1.13.86a2.35 2.35 0 0 0-1.626-.957c1.006.636.531 1.439.004 1.49-.527.05 1.757.25 1.988.988.231.74-1.255 1.517.033 1.597 1.287.08 2.573.506 3.497.142.924-.364 3.402-2.116 2.265-7.313z" mask="url(#b)"/>
        <path fill="#000" d="M32.987 35.218c.288.094 19.263 5.303 19.263 5.303 1.69.296 2.62-3.164.472-3.587l-19.177-3.775c-1.144-.225-1.79 1.652-.558 2.059" mask="url(#b)"/>
        <path fill="#0D1D24" d="M30.763 33.774l.96.512c.555.296.86-.92.271-.935l-1.144-.03c-.253-.006-.349.314-.087.453" mask="url(#b)"/>
        <path fill="#BFBFBF" d="M51.04 40.098c.041-.076-.188-.253-.268-.076l-.272.605s-1.657-.108-2.833-.61c-1.175-.503-2.904-1.552-3.296-1.66-.392-.108-1.154.09-1.117.346.037.255.365.346.764.29.398-.056 1.02.068 1.566.435s1.15.594 1.976.941c.826.347 3.13 1.164 3.622 1.193.493.029.618-.223.934-1.077l-.198-.055c-.13.329-.416.828-.416.828s-.257.007-.444-.133c-.186-.14-.334-.456-.334-.456l.316-.571zM32.929 35.321l4.657 1.298c.17.047.219.065.244-.061a1.456 1.456 0 0 1 .513-2.456c.018-.11-.036-.13-.225-.165l-4.756-.871c-1.24-.228-1.856 1.859-.433 2.255" mask="url(#b)"/>
        <path fill="#BFBFBF" d="M51.104 40.207l1.146.314c1.69.296 2.62-3.164.472-3.587l-.893-.176c-.63-.029-1.269.57-1.485 1.432-.23.918.103 1.797.746 2.009l.014.008z" mask="url(#b)"/>
        <path fill="#000" d="M52.951 37.246c.605.152.925.953.715 1.79-.21.836-.87 1.391-1.474 1.24-.605-.152-.925-.953-.715-1.79.21-.836.87-1.391 1.474-1.24" mask="url(#b)"/>
        <path fill="#AB826D" d="M54.366 55.364c-.53-.842 5.087-9.049 8.891-11.17 3.804-2.12-4.244 17.479-8.89 11.17" mask="url(#b)"/>
        <path fill="#FF7900" d="M50.377 54.323c.226-.588 12.512-11.528 14.222-11.886 1.136-.238 2.54 1.38 3.152 1.922 2.47 2.19 26.385 23.449 27.637 28.397l-26.63 4.016c-5.685-3.827-15.194-17.117-17.914-20.828-.503-.687-.641-1.169-.467-1.62" mask="url(#b)"/>
        <path fill="#000" d="M52.7 56.512l.168-.23c.254-.347.195-.898-.173-1.146-.367-.248-.874-.197-1.145.172l-.169.23c-.254.346-.195.899.173 1.146.367.248.874.197 1.145-.172M54.002 55.412a2.282 2.282 0 0 0 1.041-1.062c.192-.385-.063-.927-.458-1.065-.448-.156-.86.047-1.064.458a.746.746 0 0 0 .03-.053 1.25 1.25 0 0 1-.116.159c.085-.085.105-.106.06-.063-.042.038-.087.075-.13.112-.072.05-.053.04.057-.03a1.383 1.383 0 0 1-.087.047c-.382.192-.62.672-.415 1.082.19.381.672.622 1.082.415M56.64 53.384l.53-.498c.311-.293.432-.803.124-1.153-.275-.312-.819-.437-1.153-.123l-.529.498c-.311.294-.432.803-.123 1.153.274.312.818.437 1.152.123M59.287 50.86c-.04.124-.047.156-.024.097.024-.057.01-.029-.046.086l-.081.087c-.121.065-.142.08-.064.045.397-.162.61-.694.416-1.082a.837.837 0 0 0-1.082-.415c-.415.17-.678.553-.746.987-.066.424.286.88.716.911a.837.837 0 0 0 .911-.716M61.22 49.336c-.016.03-.095.146-.027.065-.04.048-.11.132-.03.035.052-.062-.138.063-.063.034.057-.021.168-.058-.058.004.219-.06.397-.134.537-.323a.834.834 0 0 0 .151-.609c-.077-.392-.49-.81-.932-.688-.25.069-.457.142-.663.306-.198.158-.32.35-.437.57-.094.175-.065.463.012.636.08.18.256.362.446.428.203.071.438.087.636-.012.203-.101.322-.247.428-.446M63.346 47.785l.745-.51c.354-.242.4-.837.123-1.151-.312-.355-.773-.383-1.152-.124l-.744.51c-.355.242-.4.838-.124 1.152.312.354.773.383 1.152.123M65.542 46.124l.552-.391c.35-.248.403-.834.123-1.152-.308-.35-.777-.389-1.152-.124l-.552.391c-.35.249-.404.835-.124 1.153.309.35.778.388 1.153.123" mask="url(#b)"/>
        <path fill="#000" d="M67.112 45.089c1.043-.158.8-1.778-.244-1.62-1.042.156-.8 1.777.244 1.62" mask="url(#b)"/>
        <path fill="#FFF" d="M56.839 56.907l.169-.23c.253-.346.195-.898-.173-1.145-.368-.248-.875-.197-1.146.172l-.169.23c-.253.346-.195.898.173 1.146.367.248.875.196 1.146-.173M58.681 55.42l.553-.39c.352-.247.403-.835.124-1.152-.31-.35-.777-.388-1.152-.123l-.554.389c-.35.247-.402.835-.123 1.152.31.35.777.388 1.152.124M61.232 53.404l.45-.464c.154-.16.27-.31.298-.54a.837.837 0 0 0-.175-.612c-.264-.3-.834-.453-1.153-.124l-.449.464c-.155.16-.272.31-.3.54a.836.836 0 0 0 .177.612c.264.3.833.453 1.152.124M62.809 51.725l.46-.366c.335-.267.414-.821.123-1.152-.295-.335-.793-.41-1.152-.123l-.46.366c-.335.267-.415.821-.124 1.152.295.335.794.41 1.153.123M64.901 50.076l1.027-.819c.336-.267.416-.822.124-1.152-.295-.335-.794-.41-1.152-.124l-1.027.82c-.336.267-.415.821-.124 1.152.295.334.794.41 1.152.123" mask="url(#b)"/>
        <path fill="#FFF" d="M67.092 48.33l.265-.248c.313-.292.431-.803.124-1.152-.276-.313-.818-.437-1.153-.124l-.265.249c-.312.292-.431.803-.124 1.152.276.313.818.437 1.153.123M68.917 46.845l.185-.13c.351-.247.403-.835.123-1.152-.309-.35-.776-.388-1.152-.123l-.184.13c-.352.247-.403.835-.124 1.152.31.35.777.387 1.152.123M57.541 18.525l-2.07 2.328c-.597.671.381 1.674.98 1l2.071-2.328c.597-.671-.38-1.674-.98-1M49.532 15.1l-1.548 3.198c-.39.806.813 1.525 1.205.713l1.548-3.196c.39-.807-.813-1.526-1.205-.714M63.447 25.803L61.01 26.84c-.348.148-.432.654-.26.955.206.36.607.409.956.26l2.436-1.036c.348-.149.432-.655.26-.956-.206-.36-.606-.408-.955-.26M64.018 36.371l-1.243.138c-.375.042-.699.295-.698.703.001.347.325.74.703.698l1.243-.138c.375-.042.699-.295.698-.703-.001-.347-.325-.74-.703-.698M19.771 53.271l-1.137 3.054c-.315.844 1.038 1.207 1.35.368l1.138-3.054c.315-.844-1.038-1.206-1.35-.368M9.262 48.362L7.86 49.895c-.607.664.372 1.666.98 1l1.401-1.533c.607-.664-.372-1.666-.98-1M12.162 55.57l-1.072 1.78c-.464.77.692 1.559 1.158.786l1.073-1.778c.464-.77-.693-1.56-1.159-.788" mask="url(#b)"/>
    </g>
</svg>
