<svg xmlns="http://www.w3.org/2000/svg" xmlns:xlink="http://www.w3.org/1999/xlink" width="71" height="71" viewBox="0 0 71 71">
    <defs>
        <path id="a" d="M35.712.011C16.307.011.577 15.585.577 34.796c0 19.21 15.73 34.784 35.135 34.784 19.406 0 35.136-15.574 35.136-34.784C70.848 15.584 55.118.01 35.712.01z"/>
        <path id="c" d="M35.712.011C16.307.011.577 15.585.577 34.796c0 19.21 15.73 34.784 35.135 34.784 19.406 0 35.136-15.574 35.136-34.784C70.848 15.584 55.118.01 35.712.01z"/>
        <path id="e" d="M35.712.011C16.307.011.577 15.585.577 34.796c0 19.21 15.73 34.784 35.135 34.784 19.406 0 35.136-15.574 35.136-34.784C70.848 15.584 55.118.01 35.712.01z"/>
        <path id="g" d="M35.712.011C16.307.011.577 15.585.577 34.796c0 19.21 15.73 34.784 35.135 34.784 19.406 0 35.136-15.574 35.136-34.784C70.848 15.584 55.118.01 35.712.01z"/>
        <path id="i" d="M35.712.011C16.307.011.577 15.585.577 34.796c0 19.21 15.73 34.784 35.135 34.784 19.406 0 35.136-15.574 35.136-34.784C70.848 15.584 55.118.01 35.712.01z"/>
        <path id="k" d="M35.712.011C16.307.011.577 15.585.577 34.796c0 19.21 15.73 34.784 35.135 34.784 19.406 0 35.136-15.574 35.136-34.784C70.848 15.584 55.118.01 35.712.01z"/>
        <path id="m" d="M35.712.011C16.307.011.577 15.585.577 34.796c0 19.21 15.73 34.784 35.135 34.784 19.406 0 35.136-15.574 35.136-34.784C70.848 15.584 55.118.01 35.712.01z"/>
        <path id="o" d="M35.712.011C16.307.011.577 15.585.577 34.796c0 19.21 15.73 34.784 35.135 34.784 19.406 0 35.136-15.574 35.136-34.784C70.848 15.584 55.118.01 35.712.01z"/>
        <path id="q" d="M35.712.011C16.307.011.577 15.585.577 34.796c0 19.21 15.73 34.784 35.135 34.784 19.406 0 35.136-15.574 35.136-34.784C70.848 15.584 55.118.01 35.712.01z"/>
        <path id="s" d="M35.712.011C16.307.011.577 15.585.577 34.796c0 19.21 15.73 34.784 35.135 34.784 19.406 0 35.136-15.574 35.136-34.784"/>
    </defs>
    <g fill="none" fill-rule="evenodd">
        <path fill="#A885D8" d="M70.848 35.494C70.848 16.284 55.118.71 35.712.71 16.307.71.576 16.283.576 35.494S16.307 70.28 35.712 70.28s35.136-15.574 35.136-34.785"/>
        <g transform="translate(0 .699)">
            <mask id="b" fill="#fff">
                <use xlink:href="#a"/>
            </mask>
            <path fill="#7A573F" d="M25.264 35.834l-8.654 5.84-3.76 2.032 5.517 10.115 2.374-1.156.84-.447 3.895-.042 4.233-2.147z" mask="url(#b)"/>
        </g>
        <g transform="translate(0 .699)">
            <mask id="d" fill="#fff">
                <use xlink:href="#c"/>
            </mask>
            <path fill="#515151" d="M13.884 42.319L0 47.249 9.654 60.15l10.092-4.84z" mask="url(#d)"/>
        </g>
        <g transform="translate(0 .699)">
            <mask id="f" fill="#fff">
                <use xlink:href="#e"/>
            </mask>
            <path fill="#FFF" d="M40.98 14.161l-22.262 4.326 8.056 40.641 30.779-5.98-6.385-32.21z" mask="url(#f)"/>
        </g>
        <g transform="translate(0 .699)">
            <mask id="h" fill="#fff">
                <use xlink:href="#g"/>
            </mask>
            <path fill="#CCC" d="M42.65 22.595l8.518-1.655-10.19-6.779z" mask="url(#h)"/>
        </g>
        <g transform="translate(0 .699)">
            <mask id="j" fill="#fff">
                <use xlink:href="#i"/>
            </mask>
            <path fill="#CCC" d="M53.597 43.425l-26.873 5.22.481 2.43 26.873-5.22z" mask="url(#j)"/>
        </g>
        <g transform="translate(0 .699)">
            <mask id="l" fill="#fff">
                <use xlink:href="#k"/>
            </mask>
            <path fill="#CCC" d="M52.64 38.591l-26.874 5.22.481 2.43L53.12 41.02z" mask="url(#l)"/>
        </g>
        <g transform="translate(0 .699)">
            <mask id="n" fill="#fff">
                <use xlink:href="#m"/>
            </mask>
            <path fill="#CCC" d="M51.681 33.757l-26.873 5.221.481 2.429 26.873-5.22z" mask="url(#n)"/>
        </g>
        <g transform="translate(0 .699)">
            <mask id="p" fill="#fff">
                <use xlink:href="#o"/>
            </mask>
            <path fill="#CCC" d="M50.673 28.673L23.8 33.893l.481 2.43 26.873-5.22z" mask="url(#p)"/>
        </g>
        <g transform="translate(0 .699)">
            <mask id="r" fill="#fff">
                <use xlink:href="#q"/>
            </mask>
            <path fill="#CCC" d="M41.01 25.53l-18.168 3.53.481 2.429 18.169-3.53z" mask="url(#r)"/>
        </g>
        <g transform="translate(0 .699)">
            <mask id="t" fill="#fff">
                <use xlink:href="#s"/>
            </mask>
            <path fill="#7A573F" d="M18.714 32.173l6.085-4.251s.858-.78 1.287-.114c.252.39.936 2.546-1.245 4.121-.65.47-2.583 2.173-2.583 2.173s.536 4.237-.353 6.508l-6.095 1.55.783-4.168s1.851-5.109 2.121-5.82" mask="url(#t)"/>
        </g>
        <g>
            <path fill="#FF7900" d="M25.326 24.8l-3.349.62-.626-3.315 3.348-.62z"/>
            <path fill="#FFF" d="M24.707 24.583l-2.232.413-.077-.407 2.233-.413z"/>
        </g>
    </g>
</svg>
