<svg xmlns="http://www.w3.org/2000/svg" xmlns:xlink="http://www.w3.org/1999/xlink" width="71" height="71" viewBox="0 0 71 71">
    <defs>
        <path id="a" d="M35.481.011C16.077.011.346 15.585.346 34.796c0 19.21 15.73 34.784 35.135 34.784 19.405 0 35.136-15.574 35.136-34.784S54.886.01 35.481.01z"/>
        <path id="c" d="M35.481.011C16.077.011.346 15.585.346 34.796c0 19.21 15.73 34.784 35.135 34.784 19.405 0 35.136-15.574 35.136-34.784S54.886.01 35.481.01z"/>
        <path id="e" d="M35.481.011C16.077.011.346 15.585.346 34.796c0 19.21 15.73 34.784 35.135 34.784 19.405 0 35.136-15.574 35.136-34.784S54.886.01 35.481.01z"/>
        <path id="g" d="M35.481.011C16.077.011.346 15.585.346 34.796c0 19.21 15.73 34.784 35.135 34.784 19.405 0 35.136-15.574 35.136-34.784S54.886.01 35.481.01z"/>
        <path id="i" d="M35.481.011C16.077.011.346 15.585.346 34.796c0 19.21 15.73 34.784 35.135 34.784 19.405 0 35.136-15.574 35.136-34.784S54.886.01 35.481.01z"/>
        <path id="k" d="M35.481.011C16.077.011.346 15.585.346 34.796c0 19.21 15.73 34.784 35.135 34.784 19.405 0 35.136-15.574 35.136-34.784S54.886.01 35.481.01z"/>
    </defs>
    <g fill="none" fill-rule="evenodd">
        <path fill="#FC0" d="M70.617 35.495C70.617 16.283 54.886.71 35.48.71 16.077.71.346 16.283.346 35.495c0 19.21 15.73 34.783 35.135 34.783 19.405 0 35.136-15.573 35.136-34.783"/>
        <g transform="translate(0 .698)">
            <mask id="b" fill="#fff">
                <use xlink:href="#a"/>
            </mask>
            <path fill="#7A573F" d="M27.34 31.623l-7.306-7.137L7.176 46.609c.184.21.37.428.576.663 1.169 1.33 1.33 1.44 2.776 2.481 1.575 1.133 4.833 2.99 6.378 4.156l4.139-4.725 3.19-1.431.893-2.074-.094-11.23 2.305-2.826z" mask="url(#b)"/>
        </g>
        <g transform="translate(0 .698)">
            <mask id="d" fill="#fff">
                <use xlink:href="#c"/>
            </mask>
            <path fill="#7A573F" d="M27.34 31.623l-7.306-7.137L7.985 45.208c.929.125 2.735-3.728 3.607-3.26 1.619.866 3.184 1.74 4.653 2.845a76.484 76.484 0 0 0 4.954 3.44l3.93-2.554-.095-11.23 2.305-2.826z" mask="url(#d)"/>
        </g>
        <g transform="translate(0 .698)">
            <mask id="f" fill="#fff">
                <use xlink:href="#e"/>
            </mask>
            <path fill="#7A573F" d="M20.034 24.486l11.946-4.384 7.73.698s4.312.867 5.385 1.892c.542.519.627 2.374-1.879 2.591-1.543.134-4.569-.492-4.569-.492l-4.285.37L29.6 27.56l-2.26 4.064-15.028 6.092 7.723-13.23z" mask="url(#f)"/>
        </g>
        <g transform="translate(0 .698)">
            <mask id="h" fill="#fff">
                <use xlink:href="#g"/>
            </mask>
            <path fill="#7A573F" d="M33.69 44.454s7.039-.998 8.07-1.657c2.226-1.425 1.383-3.55-.666-3.662a5637.11 5637.11 0 0 0-12.235-.554l-2.568-5.033 1.049-1.925-10.792 3.62-1.103 9.991 5.6 3.95 12.645-4.73z" mask="url(#h)"/>
        </g>
        <g transform="translate(0 .698)">
            <mask id="j" fill="#fff">
                <use xlink:href="#i"/>
            </mask>
            <path fill="#CCC" d="M5.91 43.311l-7.344 9.734L11.988 68.02l8.964-14.333z" mask="url(#j)"/>
        </g>
        <g transform="translate(0 .698)">
            <mask id="l" fill="#fff">
                <use xlink:href="#k"/>
            </mask>
            <path fill="#FFF" d="M60.05 37.263c0 .92-.762 1.674-1.691 1.674H39.886c-.93 0-1.69-.753-1.69-1.674V27.007c0-.92.76-1.675 1.69-1.675H58.36c.93 0 1.69.754 1.69 1.675v10.256z" mask="url(#l)"/>
        </g>
        <g>
            <path fill="#CCC" d="M39.826 33.39h6.27v-5.506h-6.27zM47.314 28.197H58.24v-.313H47.314zM39.826 34.198H58.24v-.313H39.826zM47.314 28.891H58.24v-.12H47.314zM47.314 29.216H58.24v-.12H47.314zM47.314 29.542H58.24v-.12H47.314zM47.314 29.867H58.24v-.12H47.314zM47.314 30.192H58.24v-.12H47.314zM47.314 31.138H58.24v-.12H47.314zM47.314 31.468H58.24v-.12H47.314zM47.314 31.798H58.24v-.12H47.314zM47.314 32.129H58.24v-.12H47.314zM47.314 32.459H58.24v-.12H47.314zM47.313 30.517h4.816v-.12h-4.816zM47.313 33.45h4.816v-.12h-4.816zM47.314 32.79H58.24v-.12H47.314zM47.314 33.12H58.24V33H47.314z"/>
            <path fill="#3D3D3D" d="M42.572 30.85s-.208.146-.632.28c0 0-.205.056-.4.134a.462.462 0 0 0-.224.19c-.05.084-.104.209-.135.387 0 0-.075.31-.059.784 0 0 .356.336 1.879.368l-.006-1.925-.423-.219z"/>
            <path fill="#D1D1D1" d="M43.116 32.518l-.114.253-.436-1.702h.917z"/>
            <path fill="#7F5C44" d="M43.404 30.518c-.003.015.013.438.013.438l-.294.3-.528-.314.022-.424h.787z"/>
            <path fill="#6B4B36" d="M43.414 30.87l-.801-.26.005-.092h.01c.404.012.556.016.768 0h.008c-.002.011.005.227.01.352"/>
            <path fill="#3D3D3D" d="M43.43 30.85s.209.146.632.28c0 0 .206.056.4.134a.459.459 0 0 1 .224.19c.05.084.104.209.136.387 0 0 .075.31.058.784 0 0-.355.336-1.879.368l.007-1.925.422-.219z"/>
            <path fill="#D1D1D1" d="M42.887 32.518l.114.253.436-1.702h-.917z"/>
            <path fill="#D42222" d="M43.104 31.244c-.005.007-.022.014-.04.014h-.117c-.018 0-.035-.007-.039-.014l-.067-.13c-.014-.025.005-.049.041-.049h.247c.037 0 .054.024.041.049l-.066.13z"/>
            <path fill="#D42222" d="M43.193 32.463l-.187.309-.19-.281.024-.333.067-.917h.197l.07.949z"/>
            <path fill="#F9F9F9" d="M43.413 30.838l-.109.485-.305-.258z"/>
            <path fill="#F9F9F9" d="M42.59 30.838l.108.485.305-.258z"/>
            <path fill="#6B6B6B" d="M43.413 30.838l.24.133.079.444-.187.12.152.082-.695 1.376v-.312zM42.59 30.838l-.24.133-.08.444.188.12-.152.082.695 1.376v-.312z"/>
            <path fill="#6B4B36" d="M42.243 29.606c.004.11-.019.205-.076.207-.057.002-.099-.086-.103-.195-.004-.11.04-.201.098-.203.057-.002.077.082.081.19M43.734 29.584c-.004.109.018.205.075.207.058.002.1-.086.104-.195.003-.11-.041-.201-.098-.203-.057-.002-.077.081-.08.19"/>
            <path fill="#7F5C44" d="M43.779 29.63c0 .604-.348 1.094-.778 1.094-.43 0-.778-.49-.778-1.095 0-.604.348-1.094.778-1.094.43 0 .778.49.778 1.094"/>
            <path fill="#7F5C44" d="M43.008 28.535v2.189c-.431.004-.786-.478-.786-1.08 0-.615.328-1.098.786-1.109"/>
            <path fill="#000" d="M42.263 29.98s-.177-.657.203-.986c0 0 .285.227.63.147 0 0 .115-.024.253-.11 0 0 .27-.113.359.15.094.278.046.562.051.731 0 0 .127-.282.13-.713 0 0 .022.077.03.17 0 0 .047-.327-.04-.52 0 0-.062-.208-.303-.314 0 0-.143-.225-.712-.18 0 0-.01-.039.079-.074 0 0-.439-.028-.538.267 0 0-.355.078-.322.689l.038-.114s-.07.575.142.857"/>
            <path fill="#CCC" d="M39.826 38.057H58.24v-3.363H39.826z"/>
        </g>
    </g>
</svg>
