<svg xmlns="http://www.w3.org/2000/svg" xmlns:xlink="http://www.w3.org/1999/xlink" width="14" height="14" viewBox="0 0 14 14">
    <defs>
        <path id="a" d="M7 0a7 7 0 1 0 0 14A7 7 0 0 0 7 0zm2.842 9.726a.618.618 0 0 1-.873 0L6.555 7.313v-.001a.91.91 0 0 1-.02-.021l-.01-.011-.01-.012-.012-.015-.007-.009-.012-.016-.005-.008-.011-.017-.005-.008-.01-.017-.005-.009-.009-.016-.005-.012a.6.6 0 0 1-.007-.015l-.005-.013a.328.328 0 0 1-.006-.013l-.005-.015-.004-.012a1.04 1.04 0 0 0-.006-.017l-.003-.01-.005-.019-.002-.01a.684.684 0 0 1-.005-.02c0-.003 0-.006-.002-.01l-.003-.019-.001-.011-.002-.019c0-.006 0-.01-.002-.015v-.015V2.348a.618.618 0 0 1 1.235 0v4.273l2.23 2.232a.618.618 0 0 1 0 .873z"/>
    </defs>
    <g fill="none" fill-rule="evenodd">
        <mask id="b" fill="#fff">
            <use xlink:href="#a"/>
        </mask>
        <g fill="#FF7900" mask="url(#b)">
            <path d="M0 0h14v14H0z"/>
        </g>
    </g>
</svg>
