<svg xmlns="http://www.w3.org/2000/svg" width="40" height="40" viewBox="0 0 40 40">
    <g fill="none" fill-rule="evenodd">
        <g>
            <g transform="translate(-320 -70) translate(320 70)">
                <circle cx="20" cy="20" r="20" fill="#F3F3F8"/>
                <path fill="#000" fill-rule="nonzero" d="M25.578 28.5c.219 0 .39-.078.516-.234l1.172-1.172c.156-.125.234-.297.234-.516 0-.219-.078-.39-.234-.515L22.25 21l5.016-5.062c.156-.125.234-.297.234-.516 0-.219-.078-.39-.234-.516l-1.172-1.172c-.125-.156-.297-.234-.516-.234-.219 0-.39.078-.516.234L20 18.75l-5.063-5.016c-.125-.156-.296-.234-.515-.234-.219 0-.39.078-.516.234l-1.172 1.172c-.156.125-.234.297-.234.516 0 .219.078.39.234.516L17.75 21l-5.016 5.063c-.156.125-.234.296-.234.515 0 .219.078.39.234.516l1.172 1.172c.125.156.297.234.516.234.219 0 .39-.078.515-.234L20 23.25l5.062 5.016c.125.156.297.234.516.234z"/>
            </g>
        </g>
    </g>
</svg>
