<svg xmlns="http://www.w3.org/2000/svg" width="11" height="12" viewBox="0 0 11 12">
    <path fill="#FFF" fill-rule="evenodd" d="M9.593.89l.628.628a.305.305 0 0 1 .085.276.567.567 0 0 1-.174.315L6.273 5.968l3.859 3.859c.099.099.157.204.174.315a.305.305 0 0 1-.085.276l-.628.628a.305.305 0 0 1-.277.085.567.567 0 0 1-.315-.174L5.142 7.098l-3.858 3.86c-.1.098-.205.156-.316.173a.305.305 0 0 1-.276-.085l-.628-.628a.305.305 0 0 1-.085-.276.567.567 0 0 1 .174-.315l3.859-3.859L.153 2.109a.567.567 0 0 1-.174-.315.305.305 0 0 1 .085-.276L.692.89A.305.305 0 0 1 .968.805c.111.016.216.074.316.174l3.858 3.858L9.002.979c.098-.1.204-.158.314-.174a.305.305 0 0 1 .277.085z"/>
</svg>
