<svg xmlns="http://www.w3.org/2000/svg" xmlns:xlink="http://www.w3.org/1999/xlink" width="71" height="71" viewBox="0 0 71 71">
    <defs>
        <path id="a" d="M0 1.11h40.303v25.34H0z"/>
        <path id="c" d="M0 26.452h40.303V1.11H0z"/>
    </defs>
    <g fill="none" fill-rule="evenodd">
        <circle cx="35.5" cy="35.5" r="35.5" fill="#FC0"/>
        <g transform="translate(15 22.213)">
            <mask id="b" fill="#fff">
                <use xlink:href="#a"/>
            </mask>
            <path fill="#FFF" d="M40.303 23.333a3.127 3.127 0 0 1-3.119 3.118H3.12a3.127 3.127 0 0 1-3.12-3.118V4.23a3.129 3.129 0 0 1 3.12-3.12h34.065a3.13 3.13 0 0 1 3.119 3.12v19.104z" mask="url(#b)"/>
        </g>
        <path fill="#CCC" d="M18.008 37.031H29.57V26.773H18.008zM31.815 27.357h20.15v-.584h-20.15zM18.006 38.536h33.959v-.584H18.006zM31.815 28.65h20.15v-.222h-20.15zM31.815 29.256h20.15v-.222h-20.15zM31.815 29.862h20.15v-.224h-20.15zM31.815 30.467h20.15v-.223h-20.15zM31.815 31.073h20.15v-.225h-20.15zM31.815 32.836h20.15v-.225h-20.15zM31.815 33.451h20.15v-.223h-20.15zM31.815 34.066h20.15v-.223h-20.15zM31.815 34.682h20.15v-.224h-20.15zM31.815 35.296h20.15v-.223h-20.15zM31.815 31.679h8.881v-.225h-8.88zM31.815 37.142h8.881v-.223h-8.88zM31.815 35.912h20.15v-.224h-20.15zM31.815 36.527h20.15v-.224h-20.15z"/>
        <g transform="translate(15 22.213)">
            <path fill="#3D3D3D" d="M8.071 10.084s-.383.274-1.165.524c0 0-.378.103-.738.25a.854.854 0 0 0-.412.353 2.12 2.12 0 0 0-.25.72s-.14.579-.109 1.461c0 0 .658.627 3.465.686l-.012-3.585-.779-.409z"/>
            <path fill="#D1D1D1" d="M9.074 13.193l-.21.472-.805-3.171h1.692z"/>
            <path fill="#7F5C44" d="M9.606 9.468c-.005.028.024.816.024.816l-.543.56-.973-.588.041-.788h1.45z"/>
            <path fill="#6B4B36" d="M9.624 10.123l-1.477-.484.009-.17h.017c.747.022 1.028.028 1.418 0h.014c-.004.02.01.421.019.654"/>
            <path fill="#3D3D3D" d="M9.654 10.084s.385.274 1.165.524c0 0 .38.103.738.25.172.07.319.193.412.353.093.156.192.389.252.72 0 0 .139.579.107 1.461 0 0-.656.627-3.465.686l.012-3.585.779-.409z"/>
            <path fill="#D1D1D1" d="M8.651 13.193l.21.472.806-3.171H7.976z"/>
            <path fill="#D42222" d="M9.052 10.82c-.008.014-.04.026-.073.026h-.217c-.032 0-.065-.012-.071-.027l-.125-.242c-.025-.046.01-.09.077-.09h.455c.069 0 .1.044.077.09l-.123.242z"/>
            <path fill="#D42222" d="M9.216 13.091l-.344.575-.352-.523.045-.62.124-1.71h.363l.128 1.769z"/>
            <path fill="#F9F9F9" d="M9.621 10.064l-.2.903-.563-.48z"/>
            <path fill="#F9F9F9" d="M8.105 10.064l.198.903.564-.48z"/>
            <path fill="#6B6B6B" d="M9.621 10.064l.443.247.146.828-.345.222.281.153-1.282 2.564v-.581zM8.105 10.064l-.443.247-.147.828.345.222-.28.153 1.282 2.564v-.581z"/>
            <path fill="#6B4B36" d="M7.464 7.768c.007.204-.034.383-.14.387-.106.004-.182-.16-.189-.364-.008-.205.074-.374.18-.378.106-.003.141.152.15.355M10.214 7.727c-.008.204.033.382.139.386.107.004.183-.16.19-.363.007-.205-.075-.375-.18-.377-.105-.004-.142.15-.149.354"/>
            <path fill="#7F5C44" d="M10.297 7.812c0 1.127-.642 2.038-1.435 2.038-.792 0-1.435-.91-1.435-2.038 0-1.126.643-2.038 1.435-2.038.793 0 1.435.912 1.435 2.038"/>
            <path fill="#7F5C44" d="M8.875 5.774V9.85c-.795.008-1.448-.89-1.448-2.01 0-1.145.604-2.046 1.448-2.066"/>
            <path fill="#000" d="M7.502 8.465s-.328-1.224.374-1.836c0 0 .525.423 1.163.274 0 0 .21-.045.465-.204 0 0 .497-.212.661.276.175.52.085 1.05.096 1.364 0 0 .234-.525.24-1.328 0 0 .039.143.053.318 0 0 .088-.611-.071-.971 0 0-.116-.386-.56-.583 0 0-.264-.421-1.313-.336 0 0-.018-.073.144-.14 0 0-.808-.05-.992.5 0 0-.654.143-.593 1.282l.07-.213s-.129 1.073.263 1.597"/>
            <mask id="d" fill="#fff">
                <use xlink:href="#c"/>
            </mask>
            <path fill="#CCC" d="M3.006 23.51h33.959v-6.264H3.006z" mask="url(#d)"/>
        </g>
    </g>
</svg>
