<svg xmlns="http://www.w3.org/2000/svg" xmlns:xlink="http://www.w3.org/1999/xlink" width="195" height="200" viewBox="0 0 195 200">
    <defs>
        <linearGradient id="a" x1="50%" x2="50%" y1="0%" y2="100%">
            <stop offset="0%" stop-color="#D3BBEE"/>
            <stop offset="100%" stop-color="#A885D8"/>
        </linearGradient>
        <path id="b" d="M156.454 29.203c7.279 5.22 3.62 25.545 3.21 40.91-.41 15.326 2.426 25.693 2.65 38.373.224 12.679-2.202 27.633-10.9 42.214-8.696 14.581-23.664 28.752-40.2 30.878-16.536 2.125-34.602-7.832-50.503-20.1-15.938-12.232-29.712-26.739-28.48-41.693 1.232-14.954 17.432-30.356 22.47-50.493 5.002-20.175-1.156-45.049 6.645-50.12 7.801-5.035 29.6 9.77 49.607 12.231 20.007 2.462 38.222-7.42 45.501-2.2z"/>
        <path id="c" d="M.056.193h10.957v9.318H.056z"/>
    </defs>
    <g fill="none" fill-rule="evenodd">
        <g fill-rule="nonzero">
            <use fill="url(#a)" xlink:href="#b"/>
            <use fill="#FF7900" xlink:href="#b"/>
        </g>
        <path fill="#997055" d="M27.371 125.475l15.327-11.726-5.82.872-9.894 6.687z"/>
        <path fill="#997055" d="M17.508 112.827l.93 14.676c.034.528.068 1.063.232 1.566.229.708.697 1.31 1.156 1.895l3.135 3.995c.558.712 1.984 2.157 1.984 2.157.88-.152 1.613.204 2.21-.476-1.156-6.664.138-13.607.264-20.368.006-.32.002-.662-.182-.923-.203-.287-.57-.396-.91-.488l-4.6-1.237"/>
        <path fill="#C19372" d="M27.272 136.814c-.785.413-1.44.312-2.327.302.624-7.2-1.3-14.48-.323-21.64.862-.045 1.985-.325 2.847-.37.021 7.157-.218 14.55-.197 21.708M20.413 131.733l.75-2.371c.35 1.409.57 2.85.653 4.301-.186-.477-.512-.743-.985-1.362.118 0-.028.029.09.03"/>
        <path fill="#997055" d="M51.265 109.047l.93 14.676c.033.529.068 1.064.23 1.567.23.707.698 1.309 1.158 1.895l3.134 3.995c.558.711 1.984 2.156 1.984 2.156.88-.151 1.613.204 2.21-.476-1.155-6.664.138-13.606.264-20.368.006-.319.003-.662-.182-.922-.203-.287-.57-.397-.91-.488l-4.6-1.237"/>
        <path fill="#C19372" d="M61.028 133.035c-.784.412-1.44.311-2.327.301.624-7.199-1.3-14.48-.322-21.639.861-.045 1.984-.326 2.846-.371.021 7.157-.218 14.551-.197 21.709"/>
        <path fill="#C19372" d="M14.77 109.448c-.48.82-.215 1.912.38 2.652.596.74 1.459 1.208 2.297 1.656l5.06 2.704c.441.237.892.476 1.386.565.562.1 1.139-.002 1.7-.104a496.616 496.616 0 0 1 37.415-5.299l-.323-3.275a796.958 796.958 0 0 0-40.41.582"/>
        <path fill="#F4CFB2" d="M32.607 106.583a67.52 67.52 0 0 0-17.99 2.656 45.456 45.456 0 0 0 5.853 3.646c.818.426 1.656.831 2.552 1.052 1.867.46 3.825.091 5.715-.266 11.393-2.151 22.873-3.813 34.371-5.306l-4.705-1.963c-2.181-.91-4.4-1.829-6.75-2.076-3.389-.355-6.748.711-9.984 1.775"/>
        <path fill="#C19372" d="M54.17 127.954l.75-2.372c.35 1.41.569 2.851.652 4.301-.186-.476-.511-.742-.984-1.362.117 0-.029.03.088.03"/>
        <path fill="#725148" d="M54.49 127.42l.75-2.371h-.35a23.57 23.57 0 0 1 .646 4.253h.364a2.77 2.77 0 0 0-.962-1.807l-.129.31.352.002c.234 0 .235-.362 0-.364l-.352-.001c-.148-.001-.252.205-.128.31.468.393.782.94.855 1.55.027.226.378.238.364 0a24.141 24.141 0 0 0-.66-4.35c-.044-.18-.298-.165-.35 0l-.75 2.372c-.071.223.28.32.35.096M53.478 140.887l.55-3.303-1.997-4.157 4.067-1.1.992 4.31 2.574 3.69-3.6 1.144z"/>
        <path fill="#000" d="M58.128 137.15s1.61 3.27 4.882 3.782c3.27.51 3.078.51 3.316 1.291.238.782.103 1.012.103 1.012s-3.455 1.98-6.91.842c-2.661-.876-3.561-.61-4.549-.508-.487.05-1.626.436-1.696-.686-.064-1.045-.272-2.83.395-4.03l2.898.988s-.896-1.028-.74-1.57c.156-.542.927-1.14 2.301-1.121"/>
        <path fill="#5A5B5B" d="M63.264 144.791c1.757-.306 3.286-1.18 3.372-1.23.212-.122.291-.368.177-.548-.114-.18-.38-.228-.591-.105-.026.014-2.588 1.475-4.64 1.15a22.888 22.888 0 0 1-2.525-.548c-.588-.156-1.053-.28-1.566-.304-.382-.018-.925.026-1.5.072-.707.057-1.889.152-2.14.008-.193-.111-.467-.048-.61.14-.144.187-.103.43.091.541.444.254 1.336.204 2.647.099.543-.044 1.057-.085 1.377-.07.416.02.82.127 1.378.275.634.169 1.423.378 2.613.567.631.1 1.29.063 1.917-.047"/>
        <path fill="#63352F" d="M55.457 71.11s10.678.668 8.638 5.042c-2.336 5.008-14.277 2.245-14.277 2.245l5.64-7.287z"/>
        <path fill="#EDA09B" d="M28.535 81.773a.198.198 0 0 0-.007-.039.261.261 0 0 0 .007.039"/>
        <path fill="#69B5B5" d="M27.867 81.155l.016.032-.011-.043-.005.01"/>
        <path fill="#EDA09B" d="M27.693 88.974l-.006-.03c0 .01.003.02.006.03"/>
        <path fill="#69B5B5" d="M28.022 88.359a.17.17 0 0 1 .003-.029l-.007-.007.004.036z"/>
        <path fill="#E7AA83" d="M30.32 87.262h.001v-.001"/>
        <path fill="#FFB400" d="M46.234 66.914c-1.125-.897-8.947-1.222-9.075-1.56-.154-.077.192-.47.04-.359-5.112 3.754-5.983 2.537-6.92 2.04-.165-.088-.393-.007-.446.158-.047.142-12.075 1.812-9.134 6.505 10.408 16.608 6.19 26.409 8.41 27.81 1.013.638 9.236.55 16.314-1.68.945-.298 6.23-2.257 5.44-3.948-2.894-6.193-3.575-12.488-3.878-17.144-.449-6.902.336-10.954-.751-11.822"/>
        <path fill="#63352F" d="M30.434 67.762c.366.032 3.106 2.12 3.246 2.094 1.055-.204 2.236-3.33 3.45-4.275.028-.076.2.444.044-.137-.393-1.466-.707-5.976-.649-6.802-1.367-.62-3.977-3.547-3.977-3.547l-4.249 3.99c.798 1.23 2.08 7.724 2.135 8.677"/>
        <path fill="#FFF" d="M36.714 57.687l-.12-.162c-.113-.155-.343.036-.23.191l.12.163c.114.154.343-.037.23-.192"/>
        <path fill="#63352F" d="M27.561 56.324c-.27-.988-.994-1.746-1.742-1.827-.246-.026-.514.03-.666.28-.228.37-.1.966.081 1.422.313.79.76 1.487 1.29 2.017.36.36.777.649 1.207.668M35.762 54.34c.027-.727.299-1.404.722-1.801.147-.138.318-.246.502-.24.304.01.587.337.718.729.13.391.133.831.085 1.24-.175 1.493-1.04 2.72-2.117 3.003"/>
        <path fill="#725148" d="M36.807 57.116l-1.827-9.393c-.299-.166-.604-.32-.916-.465-.122-.057-.145-.17-.11-.264-.675-.038-1.382.047-2.058.111-1.62.155-3.177.497-4.64 1.173a.185.185 0 0 1-.191-.012c-.94.729-2.175 1.127-1.843 2.293.031.11.523.728.447.778l1.616 7.429c.781 2.893 3.926 4.722 4.223 4.878.577.305 1.236.25 1.879.132 1.287-.3 3.821-4.461 3.42-6.66"/>
        <g transform="translate(24.997 45.175)">
            <mask id="d" fill="#fff">
                <use xlink:href="#c"/>
            </mask>
            <path fill="#010101" d="M10.23 2.287C9.68 1.551 9.15.317 7.005.21 5.43.132 3.235.293 1.881 1.316c-3.897 2.943-.342 8.195-.342 8.195l-.26-3.84c-.13-.03-.26-.06-.388-.1-.23-.072-.515-.173-.62-.41-.026-.057 0-.136.063-.136.213-.002.5.097 1.135.128 1.044.034 5.476.07 8.005-1.656.261-.284 1.54 4.437 1.54 4.437l-.348-4.494a2.214 2.214 0 0 0-.436-1.153" mask="url(#d)"/>
        </g>
        <path fill="#010101" d="M34.21 62.397c-.653.683-1.76.92-2.674.585a1.1 1.1 0 0 1-.075.056c.298.383.672.71 1.042 1.033.154.134.317.272.517.32.307.075.63-.092.816-.333.187-.241.264-.545.327-.842.058-.27.105-.543.117-.82-.024.002-.047 0-.07 0M27.925 55.93c.65-.365 1.461-.789 2.153-.266.128.097.272-.106.144-.203-.763-.577-1.666-.17-2.4.243-.14.078-.037.305.103.226M32.685 54.935c.584-.441 1.39-.924 2.062-.359.122.104.266-.1.144-.203-.76-.64-1.694-.136-2.366.37-.128.097.032.288.16.192"/>
        <path fill="#63352F" d="M30.886 55.585c.24.939-.176 3.207-.102 3.357a.417.417 0 0 0 .23.193c.26.101 1.158-.147 1.306-.384.02-.03-.503.054-.536.039-.566-.259-.404-.916-.431-1.306a6.682 6.682 0 0 0-.386-1.817"/>
        <path fill="#010101" d="M33.994 54.338c-.152.143-.132.424.038.546.17.122.44.056.537-.129a.394.394 0 0 0-.19-.523"/>
        <path fill="#010101" d="M33.914 54.243c-.32.33-.057.908.418.818.493-.093.514-.743.09-.945-.145-.069-.231.164-.088.233.21.1.19.414-.041.466-.214.048-.377-.218-.219-.381.11-.114-.048-.307-.16-.191M29.78 55.239a1.792 1.792 0 0 1-.144.05c-.032.009-.065.015-.097.022l-.003.013-.048-.001c-.129.027-.257.04-.383.041-.21.38.047.916.55.824a.49.49 0 0 0 .414-.465.528.528 0 0 0-.289-.484"/>
        <path fill="#63352F" d="M31.635 62.265c.632.185 1.526.105 1.956-.453.126-.164-.107-.39-.236-.224-.361.469-1.112.516-1.64.361-.201-.059-.28.257-.08.316"/>
        <path fill="#000" d="M29.824 68.469c1.029.839 4.08 3.797 4.85 3.342.79-.466 3.977-4.888 3.808-6.1-.023-.164-1.43-1.506-1.739-.677-.553 1.485-2.48 4.6-2.886 4.508-.31-.07-2.939-2.722-3.64-3.428-.485-.487-1.326 1.238-1.094 1.51l.7.845zM38.912 79.052a15.645 15.645 0 0 0 5.229-1.062c.814-.318.443-1.636-.38-1.315-1.57.613-3.178.953-4.864 1.008-.882.029-.867 1.397.015 1.369M56.091 70.86c-4.008-3.323-10.657-4.311-10.657-4.311-.237.436 1.069 4.207 1.237 7.26.085 1.557.181 3.018.245 3.939.041.615.07.988.07.988l6.968.94c2.797-2.042 2.3-6.386 2.137-8.816"/>
        <path fill="#725148" d="M42.864 67.97s-5.127-4.512-6.147-4.808c-1.02-.295-4.533.3-4.302 1.03.23.73 1.382.953 1.382.953s-1.095.876-.265 1.448c0 0-1.069 1.547.215 1.697 0 0-.15 2.344 1.256 1.845 0 0 1.924.635 1.916.119-.009-.517.863-.243 1.177-.107.315.135 3.386 2.66 4.392 1.559 1.005-1.101.376-3.736.376-3.736"/>
        <path fill="#000" d="M23.234 69.85l.22.42c.085.165.311.248.478.152a.36.36 0 0 0 .152-.478l-.22-.42c-.085-.164-.311-.248-.478-.152a.361.361 0 0 0-.152.478M23.93 71.266a1.25 1.25 0 0 0 .324.922c.305.34.832-.137.525-.477a.514.514 0 0 1-.14-.402c.029-.457-.68-.498-.709-.043M24.613 73.44c.064.3.128.598.19.897.095.447.79.3.695-.147l-.19-.897c-.095-.446-.79-.3-.695.147M25.274 75.88l.09 1.034c.016.19.25.31.42.273.208-.043.291-.229.274-.42l-.09-1.035c-.016-.19-.25-.31-.42-.273-.207.044-.291.229-.274.42M25.45 78.44l-.232 1.221c-.035.189.16.366.334.376.211.012.34-.144.376-.333l.232-1.22c.036-.189-.16-.366-.334-.376-.212-.013-.34.144-.375.333M25.08 80.347l-.258.523c-.082.167-.075.386.104.491.15.089.404.074.491-.104l.258-.523c.082-.166.074-.385-.104-.49-.15-.089-.404-.074-.491.103M43.875 66.9l.143.672c.095.446.79.3.695-.148l-.143-.672c-.095-.447-.79-.3-.695.147M44.445 69.004l.12.56c.037.182.234.322.42.274a.36.36 0 0 0 .274-.421l-.12-.56c-.038-.182-.234-.322-.42-.274a.361.361 0 0 0-.274.42M45.012 71.09l.337.861c.07.179.321.233.479.152.184-.095.221-.299.152-.478l-.337-.861c-.07-.179-.322-.233-.48-.152-.184.096-.221.3-.151.478M45.702 73.189l.167.784c.094.447.79.3.694-.147l-.166-.784c-.095-.447-.79-.3-.695.147M46.215 75.446l.046.81c.011.19.126.363.334.376.173.01.386-.14.375-.333l-.046-.81c-.011-.191-.126-.363-.333-.376-.174-.01-.387.14-.376.333M28.951 100.452l.535.25c.169.08.4-.055.449-.225.057-.203-.046-.364-.226-.448l-.534-.25c-.17-.08-.401.055-.449.225-.058.203.045.363.225.448M31.053 101.213l.778.186c.186.044.384-.033.448-.226.056-.17-.038-.403-.225-.448l-.778-.186c-.186-.044-.385.033-.448.225-.057.17.038.404.225.449M33.524 101.427l.848-.05c.19-.012.363-.126.376-.334.01-.173-.14-.387-.334-.375l-.848.051c-.19.012-.363.126-.375.333-.01.173.14.387.333.375M36.63 101.126l.942-.2c.447-.094.3-.788-.148-.694l-.94.2c-.448.095-.3.789.147.694M39.696 100.674c.267-.15.555-.25.863-.268.191-.01.364-.126.376-.333.01-.173-.14-.386-.333-.375-.439.025-.849.13-1.233.346-.397.223-.073.855.327.63M42.81 99.873a.657.657 0 0 1 .43-.154.363.363 0 0 0 .376-.333c.011-.184-.14-.373-.333-.375a1.432 1.432 0 0 0-.95.337c-.148.123-.15.364-.025.501a.362.362 0 0 0 .502.024M45.405 99.03c.316-.03.625-.14.888-.319.158-.108.247-.293.151-.478-.08-.155-.319-.26-.478-.152-.22.15-.443.23-.708.255-.191.019-.31.249-.274.421.044.205.23.292.421.273M48.537 97.855l.644-.473c.154-.114.143-.37.024-.501-.14-.154-.347-.138-.502-.024l-.644.473c-.155.114-.144.37-.024.501.14.154.347.138.502.024M50.409 96.67l.329-.186c.161-.092.25-.308.152-.478-.093-.162-.306-.25-.479-.152l-.329.187c-.161.091-.25.307-.152.478.093.161.306.25.479.152"/>
        <path fill="#48484A" d="M25.615 49.487l.155.04c.124.033.258-.023.3-.15.038-.115-.026-.266-.15-.298-.053-.014-.105-.028-.156-.04-.124-.033-.258.022-.3.15-.038.115.026.266.15.298M26.706 49.773c.14.073.272.097.43.08.127-.013.207-.164.182-.28-.029-.135-.153-.196-.28-.182a.299.299 0 0 1-.074-.015c-.113-.059-.253-.044-.327.07-.065.099-.045.267.07.327M27.997 50.096l.242-.003c.128-.001.243-.088.25-.222.008-.12-.093-.252-.221-.25l-.243.002c-.127.002-.242.089-.25.222-.007.12.094.252.222.25M29.437 49.946l.233-.05c.298-.062.2-.525-.098-.462l-.233.05c-.298.063-.2.525.098.462M31.123 49.646l.408-.134c.122-.04.212-.146.183-.28-.024-.115-.158-.223-.28-.183l-.41.134c-.12.04-.21.146-.182.28.025.115.159.223.28.183M33.087 49.008l.13-.076c.11-.065.161-.201.1-.32-.056-.108-.208-.165-.319-.1l-.13.076c-.11.064-.161.2-.1.319.056.108.208.166.319.1M34.423 48.17c.04-.04.078-.082.117-.123.089-.093.107-.235.016-.334-.08-.09-.245-.11-.334-.016l-.118.124c-.088.092-.106.235-.016.334.082.089.246.109.335.016M34.38 47.153l-.01-.046c-.063-.298-.527-.2-.463.098l.01.046c.063.298.526.2.463-.098M33.466 46.206l-.179-.156c-.096-.084-.232-.11-.335-.016-.086.078-.112.25-.015.334l.179.156c.096.084.232.11.334.016.086-.078.113-.25.016-.334M32.029 45.793l-.206-.053c-.124-.032-.257.023-.299.15-.038.115.026.267.15.298l.206.054c.124.032.257-.023.299-.15.038-.115-.026-.267-.15-.299M30.657 45.917a1.172 1.172 0 0 0-.895.139c-.256.16-.041.582.217.42.16-.101.341-.152.53-.11.124.028.255-.02.299-.15.037-.112-.025-.27-.15-.299M28.168 46.483a1.615 1.615 0 0 0-.562.172c-.27.14-.054.56.217.42.142-.072.286-.112.443-.13.127-.014.207-.164.183-.28-.03-.135-.154-.197-.281-.182M26.52 47.265a.946.946 0 0 0-.514.524c-.05.118.036.26.15.299.13.043.25-.033.3-.15a.48.48 0 0 1 .282-.253c.119-.047.156-.213.102-.319-.064-.123-.2-.148-.32-.1M26.238 48.829l.093-.02c.298-.063.2-.526-.098-.462l-.093.02c-.298.062-.2.525.098.462M27.416 48.974l.158.066c.117.05.26-.036.299-.15.043-.13-.032-.25-.15-.299a43.474 43.474 0 0 1-.158-.066c-.118-.05-.262.036-.3.15-.042.13.033.25.15.299M29.299 48.888l.251.047c.126.024.244-.106.251-.222.008-.14-.096-.226-.222-.25l-.251-.048c-.126-.023-.244.106-.251.222-.008.141.096.227.222.25M31.727 48.53l.222-.095c.117-.05.157-.211.101-.319-.062-.12-.201-.152-.319-.101l-.222.096c-.118.05-.157.21-.102.318.063.12.202.152.32.102M33.453 47.972l.223-.096c.117-.05.157-.21.101-.318-.062-.12-.201-.152-.319-.102l-.222.096c-.117.05-.157.211-.102.319.063.12.202.152.32.101M32.565 46.938l-.274-.13c-.116-.056-.263.04-.3.15-.044.134.035.243.15.298l.275.131c.116.056.263-.04.3-.15.044-.134-.035-.243-.15-.299M30.82 46.96a.556.556 0 0 0-.476-.066c-.12.042-.212.144-.183.28.024.113.16.226.281.183.057-.02.073-.03.12 0 .258.162.517-.235.258-.397M29.087 47.064a1.149 1.149 0 0 0-.551.079c-.12.045-.155.215-.101.319.064.124.199.147.319.101a.64.64 0 0 1 .305-.027c.127.015.243-.1.25-.222.008-.134-.095-.236-.222-.25M27.206 48.02l.057.036c.255.166.514-.23.258-.397l-.057-.036c-.255-.166-.513.23-.258.396M28.342 48.522c.04-.002.02-.003.002-.02.095.087.234.108.335.016.087-.08.11-.247.016-.334-.09-.082-.198-.142-.324-.134-.128.008-.242.084-.25.222-.008.115.093.258.221.25M30.198 48.145l.103.028c.123.033.257-.024.3-.15.038-.116-.027-.266-.151-.3l-.103-.026c-.123-.034-.257.024-.299.15-.038.116.027.265.15.298M35.016 48.086l.02.092c.063.298.526.2.463-.098l-.02-.092c-.063-.298-.526-.2-.463.098M35.17 48.946a.345.345 0 0 0-.055.291c.028.12.115.197.223.247.116.054.262-.038.299-.15.044-.133-.034-.245-.15-.299.062.023.092.066.09.127-.03.06-.034.074-.01.041.08-.1.03-.262-.07-.327-.115-.075-.247-.03-.327.07M25.196 51.234l.098.464c.064.298.527.2.463-.098l-.098-.464c-.063-.298-.527-.2-.463.098M26.238 52.03c.298-.062.2-.525-.098-.462-.298.063-.2.526.098.463M25.84 52.893l.009.046c.063.298.526.2.463-.098l-.01-.047c-.063-.297-.526-.2-.463.099M30.713 49.093c.298-.063.2-.525-.098-.462-.298.063-.2.526.098.462M28.865 46.332c.298-.063.2-.526-.099-.463-.298.063-.2.526.099.463"/>
        <path fill="#725148" d="M41.94 67.88s2.294.53 4.634.639c3.962.184 9.418.23 14.02 2.226 6.685 2.899 6.356 12.46-13.484 3.56l-7.92-3.75 2.75-2.674z"/>
        <path fill="#040404" d="M29.594 53.722s-.083-.025-.223-.056a2.89 2.89 0 0 0-.57-.068c-.467-.01-1.046.108-1.645.474 0 0 .024-.08.103-.205.078-.125.219-.295.45-.437.227-.141.553-.248.91-.214.354.028.733.2.975.506M34.681 52.834l-.036-.044a.627.627 0 0 0-.114-.102.98.98 0 0 0-.485-.157c-.424-.027-1 .102-1.538.513 0 0 .013-.08.077-.21.064-.128.188-.31.409-.462.217-.15.536-.269.895-.231.181.019.366.082.523.201.156.116.276.306.27.492"/>
        <path fill="#63352F" d="M34.488 58.677l-.052.103a2.442 2.442 0 0 1-.166.286 3.469 3.469 0 0 1-.818.867c-.398.3-.94.571-1.565.678a3.453 3.453 0 0 1-.973.03c-.321-.042-.677-.114-.943-.338 0 0 .145.066.405.085.258.018.637-.002 1.077-.076.88-.164 2.04-.6 3.035-1.635"/>
        <path fill="#63352F" d="M34.807 58.87s-.14-.054-.281-.093c-.156-.038-.267-.102-.535-.236 0 0 .015-.04.061-.09a.424.424 0 0 1 .241-.125.462.462 0 0 1 .369.1.433.433 0 0 1 .145.444M29.85 60.568s-.081-.095-.072-.233c.003-.131.127-.308.375-.26 0 0 .033.144.035.25-.003.116-.04.16-.338.243"/>
        <path fill="#000" d="M21.842 69.654s-3.608 1.74-4.947 5.524c-.828 2.342-2.473 15.845-2.182 16.717.29.872 7.566 1.018 9.457.436 1.892-.581 1.892-1.453 1.892-1.453l-.645-9.62s-.665-8.26-3.575-11.604"/>
        <path fill="#FFB400" d="M29.582 101.434a25.747 25.747 0 0 0 2.401 7.279c.974 1.925 2.342 3.847 4.391 4.528 1.58.525 3.31.222 4.91-.237 7.437-2.137 13.583-7.487 18.341-13.585 1.316-1.687 2.593-3.96 1.568-5.837-.323-.591-.909-1.083-1.582-1.113-.58-.025-1.116.282-1.613.58-4.301 2.586-8.563 5.315-13.262 7.081-4.699 1.767-9.956 2.515-14.75 1.026"/>
        <path fill="#FFF6B6" d="M35.792 104.452l7.988-6.64c4.957-4.12 9.96-8.27 15.658-11.277.797-.42 1.649-.827 2.55-.796 1.393.048 2.558 1.157 3.17 2.414a6.58 6.58 0 0 1 .198 5.232c-1.184 2.989-4.322 4.64-7.24 5.976a237.635 237.635 0 0 1-19.767 7.998 15.043 15.043 0 0 1-2.705-2.663"/>
        <path fill="#FFF6B6" d="M29.296 101.182c.275-2.536 5.063.556 7.558.012s4.969-1.317 7.521-1.365c.754-.014 1.525.039 2.225.318 2.02.806 2.862 3.153 3.467 5.24a823.228 823.228 0 0 1 6.486 23.691s1.579 2.841-.466 4.163c-2.044 1.321-5.05 1.682-5.05 1.682s-9.74-23.548-10.222-24.268c0 0 0 2.162-.842 2.402-.841.24-4.45.961-6.012-.12-1.564-1.081-5.242-6.45-4.665-11.755"/>
        <path fill="#F4CFB2" d="M37.354 94.098c-.692 0-2.538-.46-3.807-.807-1.269-.346-2.076-2.074-.577-1.959 1.5.115 1.5.115 2.077-.922.576-1.037.807-.807 1.615-.46.807.345 2.191-1.614 2.883-1.614.692 0 2.423.691 3.23.922.808.23 1.846-1.96 2.769-1.96.922 0 1.5.922 2.191.807.693-.115 2.538-1.729 3-1.383.461.346.922 2.075.922 2.075l-2.422 2.765c-.807.923-1.038 2.882-2.653 3.458-1.615.576-1.615-.346-2.307.46-.692.808-1.154 1.268-3 1.038-1.845-.23-2.768-.576-4.037-.346-1.269.23-3.807-.46-3.576-.922.231-.46 3.692-1.152 3.692-1.152"/>
        <path fill="#C19372" d="M37.007 94.559c-.46 0-2.883.115-3.46-.115s-.923-1.153.346-1.614c1.269-.46-1.153-.345-.923-.691.23-.346 1.154-1.73 2.077-1.73.922 0 .576-.46 1.615-.46 1.038 0 1.384-1.729 2.999-1.037 1.615.691 2.999.807 3.806.115.808-.691 1.039-1.844 1.961-1.268.923.577 2.077.692 3 .116.922-.576 1.5-.692 2.307-.23.807.46 1.615 1.036.346 1.267-1.27.23-2.192.807-2.423 1.613-.23.807-.807 1.499-1.96 1.037-1.154-.46-.924-.691-1.5-.115-.577.577-.577 1.383-1.961 1.153-1.385-.23-1.385-.922-1.961-.23-.577.69-3.923 2.189-4.269 2.189"/>
        <path fill="#725148" d="M16.377 92.257c-.203 4.464 2.501 9.94 4.396 10.424 7.047 1.796 15.767-5.054 16.884-5.099.935-.037 4.637-.286 5.233-.385 1.228-.205 2.175-2.18 2.69-3.696.34-1-.016-2.126-.912-2.687-.288-.18-.538-.247-.682-.008a6.403 6.403 0 0 1-4.542 2.973c-.95-1.153 1.014-1.286.379-3.303-.27-.753-.7-1.075-.915.323-.203 1.32-1.567 1.955-2.314 3.064-.304.452.066.919-.377 1.237-.293.21-10.317 1.85-10.918 1.66-1.243-.394-1.883-2.42-1.955-4.393-2.14.258-5.183.341-7.325.099M37.19 104.24l-5.456 2.53 2.304 3.256 5.172-3.99z"/>
        <path fill="#000" d="M35.677 108.882s1.181-.93 1.129-1.575c-.037-.448-.788-1.294-1.243-1.769-.202-.21-.495-.3-.746-.223-.29.088-.692.21-1.039.313-.63.187-3.64-.009-4.274-.207-.633-.197-1.895.353-1.935.925-.087 1.25 1.778 3.894 3.88 5.09 0 0 1.112-.237 1.717-.65.604-.414.546-.264.766-.397.22-.132 1.068-.216 1.745-1.507"/>
        <path fill="#5A5B5B" d="M27.207 106.184c-.013 1.09.534 1.996 1.207 2.821.775.95 1.666 2.012 2.728 2.641.415.246.724-.439.311-.683-.945-.56-1.74-1.55-2.425-2.391-.593-.728-1.083-1.482-1.072-2.453.006-.484-.743-.415-.749.065"/>
        <path fill="#FFB400" d="M36.27 103.529a10.685 10.685 0 0 0 2.918 3.198c.143.104.397.118.56.073a.74.74 0 0 0 .435-.334c.2-.379.069-.754-.26-.995a8.734 8.734 0 0 1-.1-.073c-.08-.06-.054-.034.01.01-.067-.046-.13-.103-.192-.154a9.558 9.558 0 0 1-1.357-1.355c-.05-.062-.111-.124-.154-.192.041.065.07.09.01.01l-.074-.099a9.99 9.99 0 0 1-.54-.823c-.193-.328-.665-.474-.996-.26-.33.212-.467.643-.26.994M51.19 135.265c1.464.267 2.986.193 4.334-.49 1.138-.577 2.037-1.597 2.413-2.819.276-.896-1.128-1.279-1.403-.386-.263.855-.924 1.534-1.745 1.95-.975.494-2.155.536-3.213.343-.386-.07-.784.106-.895.508-.097.353.12.823.508.894"/>
        <g>
            <path fill="#D5D5D5" d="M140.635 130.316c-.592 0-11.182-30.746-14.38-34.197-5.905-6.375-10.913-14.72-15.787-21.896 10.916-7.336 17.159-5.969 24.604-6.368 17.465-.936 34.682-1.33 34.682-1.33l-4.362 24.768-19.599 8.697c-11.497 4.114-5.158 30.326-5.158 30.326"/>
            <path fill="#F1F1F1" d="M170.153 91.333c-1.553.268-3.089.668-4.64.954-.203.038-.826.085-1.133.119a4.44 4.44 0 0 0-.683-.417 1.727 1.727 0 0 1-.194-1.08l3.984-24.172c.204-1.548 1.443-2.209 2.949-2.219 1.608-.01 2.37-.079 3.916.07 1.523.147 2.608 1.435 2.547 3.02-.173 4.469-1.74 19.16-3.506 23.27-1.08.123-2.161.269-3.24.455"/>
            <path fill="#D5D5D5" d="M96.413 140.852c.267-.528.493-1.076.623-1.646.11-.481.356-.905.72-1.17.629-4.58-.6-9.634-1.41-14.051a80.659 80.659 0 0 0-3.744-13.57c-3.026-8.144-7.18-15.8-11.388-23.386-29.263 12.778-35.403 51.347-35.403 51.347l21.833 5.993 9.182-10.721c5.763-5.344 6.316-7.805 9.793-6.656l.475.497 9.319 13.363z"/>
            <path fill="#D5D5D5" d="M98.939 176.384c12.582-2.432 40.56-9.104 52.656-13.113l-18.42-57.255c-.511-.384-11.634-28.318-22.036-32.815-1.992 1.315-3.803 1.132-3.803 1.132s-4.418 1.044-6.805 2.446c-1.057.621-7.428 4.002-12.291 4.792-.029.013-.728.578-1.046.842-.478.825-.966 2.004-.966 2.004-.604.098-1.224.18-1.856.257-.196.151-.377.286-.567.432 1.958 3.528-.636 18.61 2.794 34.616 1.669 7.785 9.784 14.754 10.893 22.706.833 5.974-2.296 12.657-1.666 17.427.178 1.348 1.534 4.19 1.691 5.395.886 6.795 1.422 11.134 1.422 11.134"/>
            <path fill="#54BA86" d="M100.633 99.063L86.012 82.774c-2.25 1.815-4.91 3.244-7.266 4.953l2.556 5.983a77.556 77.556 0 0 1 6.218 28.85l-1.287 6.011 7.822 14.7.186 16.002s23.84 3.163 23.688-7.235c-.08-5.519-8.144-32.06-11.865-43.547a26.211 26.211 0 0 0-5.431-9.428M107.164 74.036S124.779 87.969 128.4 95.07c5.642 11.064 3.924 33.125 12.403 49.874 3.855 7.615 6.84.08 7.61-2.216.132-.392-4.07-19.997-4.134-20.407l-4.037-23.856a3.09 3.09 0 0 0-.273-.848l-3.365-8.85c-6.706-9.676-12.171-11.711-21.883-17.112l-7.557 2.38z"/>
            <path fill="#FFF" d="M90.038 86.868l-3.033-7.85a2.01 2.01 0 0 1 1.494-2.7c.957-.181 1.895-.287 2.112-.068.48.48 10.354.563 10.354.563s5.63-7.188 6.855-6.258c1.227.93 3.611 6.01 3.611 6.01l7.133 9.793-9.452-2.22-1.713 1.27s-2.348 12.818-2.828 12.338c-.48-.481-14.533-10.878-14.533-10.878"/>
            <path fill="#63362F" d="M103.66 60.193s3.097 10.928 4.268 16.516c.304 1.448-.86 6.82-.86 6.82l-16.88-1.651s-2.468-8.114-5.386-17.185c0 0 17.993 6.184 18.857-4.5"/>
            <path fill="#F1F1F1" d="M66.769 149.145c.94-1.263 1.992-2.452 2.948-3.705.125-.164.449-.699.617-.956a4.39 4.39 0 0 1-.063-.797c-.2-.29-.484-.523-.877-.661L47.742 133.9c-1.474-.518-2.623.288-3.312 1.626-.736 1.428-1.142 2.078-1.707 3.522-.557 1.424.104 2.973 1.548 3.635 4.069 1.863 16.162 8.862 20.628 9.144a57.227 57.227 0 0 1 1.87-2.682"/>
            <path fill="#000" d="M84.023 86.036l1.08 1.784c.23.381.722.577 1.182.371.416-.185.674-.713.442-1.096l-1.08-1.784a.932.932 0 0 0-1.183-.37c-.415.185-.673.713-.441 1.095M87.463 90.95l1.356 1.769c.273.356.906.35 1.256.076.399-.311.396-.796.123-1.154l-1.356-1.768c-.273-.356-.907-.35-1.256-.077-.398.312-.396.797-.123 1.154M91.801 96.794l1.796 2.366c.646.85 2.022-.23 1.38-1.078l-1.797-2.365c-.646-.851-2.022.23-1.379 1.077M96.386 104.267l.93 1.162c.281.35.902.354 1.257.077.392-.308.404-.803.122-1.155l-.93-1.161c-.28-.35-.901-.354-1.256-.077-.393.307-.405.803-.123 1.154M99.146 109.754c.34.436.477.938.503 1.476.02.441.585.725 1.021.648.523-.091.761-.515.74-.958-.038-.83-.37-1.582-.885-2.244-.276-.355-.905-.351-1.257-.077-.396.31-.399.8-.122 1.155M102.056 116.668l1.1 2.125c.486.937 2.113.217 1.625-.726l-1.101-2.125c-.486-.937-2.112-.217-1.624.726M105.055 123.433l.987 1.482c.247.372.709.582 1.182.371.401-.178.691-.722.442-1.095l-.987-1.483c-.248-.372-.709-.582-1.182-.37-.402.178-.691.72-.442 1.095M107.234 128.035l.408.26c.38.24.981.157 1.247-.219.266-.377.204-.88-.2-1.136l-.409-.26c-.379-.24-.98-.156-1.246.22-.266.377-.204.879.2 1.135M108.78 132.145c.076.429.15.857.227 1.285.073.42.55.752 1.022.649.473-.104.819-.508.74-.958l-.227-1.285c-.073-.42-.55-.751-1.021-.649-.474.104-.82.508-.74.958M111.067 141.016l.339 1.928c.182 1.033 1.944.726 1.762-.31l-.34-1.927c-.18-1.034-1.943-.726-1.76.31M112.532 147.28c.216.438.24.897.06 1.361-.387 1.002 1.276 1.547 1.664.544.34-.878.31-1.798-.1-2.63-.467-.948-2.092-.226-1.624.725M112.487 153.252c0 .001.094.196.07.12-.028-.084.016.113.016.135-.005-.118-.007.02-.018.068-.033.137.074-.158-.025.075-.015.033-.056.116-.01.04 0 0-.131.17-.086.121.053-.055-.098.08-.118.093.12-.076-.1.032-.122.04-.452.167-.63.72-.442 1.096.212.42.729.538 1.182.37 1.194-.439 1.77-1.873 1.178-2.883a.93.93 0 0 0-1.183-.37c-.42.187-.668.71-.442 1.095M108.763 155.283l-1.523-.395c-.444-.116-.993.059-1.154.5-.148.4.033.92.508 1.043l1.523.395c.445.116.993-.058 1.155-.5.147-.4-.034-.92-.51-1.043M102.86 154.2l-1.114-.142c-.46-.059-.954.328-.984.751-.033.465.296.817.789.88l1.112.143c.46.059.956-.328.985-.752.033-.465-.296-.816-.789-.88M97.462 153.332l-1.113-.143c-.46-.06-.955.327-.985.751-.033.465.295.817.79.88l1.111.142c.461.06.955-.327.985-.75.034-.466-.296-.817-.788-.88"/>
            <path fill="#4F4F51" d="M69.564 98.37l1.281 1.1c.346.298.854.392 1.256.078.34-.266.471-.855.123-1.155l-1.28-1.101c-.346-.297-.855-.391-1.257-.077-.34.266-.47.855-.123 1.154M73.457 102.468c.333.72.89 1.33 1.597 1.763.942.576 1.99-.777 1.046-1.354a2.537 2.537 0 0 1-1.018-1.135c-.443-.958-2.068-.234-1.625.726M76.31 106.269l1.483 2.397c.555.896 2.185.18 1.624-.725l-1.484-2.398c-.554-.896-2.185-.18-1.624.726M79.542 111.867l1.453 2.063c.258.366.917.342 1.256.076.41-.32.382-.787.123-1.154l-1.453-2.063c-.258-.365-.917-.342-1.257-.076-.41.32-.38.787-.122 1.154M82.202 116.701c.341.438.478.94.503 1.477.02.44.586.725 1.022.648.522-.092.76-.515.74-.957-.038-.83-.37-1.583-.886-2.245-.276-.354-.904-.352-1.256-.077-.396.31-.4.799-.123 1.154M83.536 122.08c.34.438.478.94.502 1.477.021.441.586.725 1.023.649.522-.093.76-.516.74-.958-.039-.83-.37-1.583-.886-2.245-.276-.354-.905-.352-1.256-.077-.396.31-.4.799-.123 1.154"/>
            <path fill="#000" d="M150.622 159.957s22.321 46.883-7.831 181.343l-14.844.4s-4.214-40.865-3.303-68.03c.912-27.166.828-49.745.828-49.745s-5.905 33.026-11.817 59.75c-5.787 26.158-16.652 59.698-16.652 59.698h-14.82s-3.206-138.678 15.062-174.371l53.377-9.045z"/>
            <path fill="#5A5B5B" d="M150.832 152.809c-.705-.206-1.51-.186-2.375.16-16.118 6.443-33.14 9.444-50.458 9.042-.836-.02-1.501.195-2.011.559.262 2.242.536 4.49.754 6.738a3.991 3.991 0 0 0 2.136.658c17.967.417 35.75-2.87 52.465-9.55.192-.077.365-.166.53-.26-.37-2.446-.726-4.893-1.04-7.347"/>
            <path fill="#D7D7D6" d="M137.712 156.802a4.348 4.348 0 0 0-2.205.214c-3.542 1.276-7.176 2.11-10.888 2.635a3.545 3.545 0 0 0-1.36.476c.031 2.774.544 5.445 1.305 8.062.431.109.9.141 1.411.07 4.403-.622 8.669-1.749 12.867-3.262.236-.085.453-.204.652-.35-.056-2.804-.272-5.739-1.782-7.845"/>
            <path fill="#000" d="M106.001 162.407c-.193 2.764-.054 5.486.487 8.21.373 1.878 3.253 1.579 2.876-.318-.487-2.453-.676-4.91-.502-7.405.134-1.914-2.727-2.413-2.861-.487M143.538 155.706l1.903 8.173c.432 1.856 3.314 1.562 2.877-.317l-1.903-8.173c-.432-1.856-3.314-1.562-2.877.317"/>
            <path fill="#5A5B5B" d="M102.242 172.594l-.404 1.73c-.206.877 1.165 1.145 1.37.272l.405-1.73c.205-.877-1.167-1.145-1.37-.272M99.481 181.093c-.21.848-.422 1.696-.633 2.543-.219.878 1.106 1.254 1.326.371l.633-2.543c.219-.878-1.106-1.253-1.326-.371M98.894 189.498a8.184 8.184 0 0 1-.404 2.908c-.285.868 1.04 1.238 1.325.37a9.313 9.313 0 0 0 .475-3.278c-.033-.886-1.43-.895-1.396 0M97.311 198.592l-.637 2.261c-.246.875 1.08 1.248 1.326.371l.637-2.26c.246-.876-1.078-1.249-1.326-.372"/>
            <path fill="#D5D5D5" d="M44.48 140.165l.705.494c.31.216.777.056.956-.25.204-.35.059-.739-.25-.955l-.706-.495c-.309-.216-.776-.056-.955.25-.204.35-.06.739.25.956M47.323 141.36l1.224.687c.785.44 1.49-.765.706-1.205a1454.6 1454.6 0 0 1-1.225-.686c-.785-.44-1.49.765-.705 1.205M51.054 143.316c.573.094 1.12.257 1.64.519.8.404 1.507-.8.705-1.206a6.829 6.829 0 0 0-1.974-.659c-.372-.06-.751.097-.859.487-.092.334.114.797.488.859M56.46 144.955l1.672.596c.355.127.764-.143.86-.487.106-.387-.132-.732-.489-.859l-1.672-.596c-.356-.126-.765.143-.86.488-.106.386.132.73.488.858M61.225 146.62l1.135.232c.37.076.756-.106.86-.487.095-.345-.116-.783-.488-.858l-1.136-.232c-.37-.075-.754.107-.859.487-.095.345.116.783.488.859M65.393 147.41l1.17.374c.858.274 1.225-1.073.37-1.346l-1.168-.373c-.858-.275-1.225 1.072-.372 1.345M172.387 89.787l.13-1.247c.04-.375-.349-.698-.698-.698-.41 0-.659.322-.698.698l-.13 1.247c-.04.376.348.698.697.698.41 0 .66-.32.7-.698M172.976 85.537l.353-1.457c.212-.872-1.135-1.244-1.347-.37l-.353 1.456c-.211.873 1.135 1.245 1.347.371M173.36 80.495l.108-1.25c.033-.376-.344-.698-.698-.698-.405 0-.666.321-.698.698l-.11 1.25c-.032.376.345.698.699.698.405 0 .666-.32.698-.698M173.443 76.284c-.07-.234-.094-.482.011-.715.155-.344.1-.75-.25-.955-.298-.175-.8-.095-.955.25-.26.576-.337 1.179-.153 1.79.258.859 1.607.494 1.347-.37M173.671 72.563l.076-1.549c.019-.377-.334-.698-.698-.698-.394 0-.68.32-.699.698l-.075 1.55c-.019.377.334.697.698.697.393 0 .68-.32.698-.698M174.08 68.485c.057-.527.116-1.053.175-1.579.041-.375-.351-.698-.7-.698-.411 0-.655.322-.697.698l-.175 1.579c-.042.375.35.698.698.698.412 0 .656-.322.698-.698"/>
            <path fill="#D5D5D5" d="M174.295 65.32l-.026-.15c-.065-.372-.52-.58-.859-.488-.392.108-.553.486-.487.858l.026.15c.065.372.52.58.859.488.392-.108.553-.486.487-.859"/>
            <path fill="#63362F" d="M78.043 51.128c-.417-1.541-2.408-2.303-4.082-1.824-.404.115-.812.302-1.071.625-.34.423-.355.983-.317 1.492.227 2.967 1.735 5.625 3.436 8.037.66.935 1.436 1.903 2.605 2.19.43.107.949.092 1.293-.208.207-.18.317-.435.41-.682a9.805 9.805 0 0 0 .636-3.165"/>
            <path fill="#020202" d="M76.218 56.493c-2.127-6.381-8.303-26.821-8.216-28.737.15-3.308 2.196-9.316 15.02-13.05 13.094-3.813 18.126 2.193 19.15 4.721.419 1.037 4.315 24.038 4.419 30.462a162.984 162.984 0 0 0-22.132 6.553"/>
            <path fill="#725148" d="M95.74 72.903c1.733.451 5.198.525 6.374-.946 4.23-5.29 6.036-19.252 5.811-20.369-.728-3.629-4.883-16.568-6.817-18.446-1.934-1.878-21.706 1.409-24.013 5.43 0 0 .31 17.52 1.374 20.169 2.235 5.56 7.381 11.585 17.272 14.162"/>
            <path fill="#63362F" d="M96.287 49.592l-.16-.195c-.103-.127-.261-.308-.44-.553-.368-.481-.86-1.187-1.325-2.086a14.053 14.053 0 0 1-1.532-5.11c-.038-.332-.05-.667-.068-1.007-.009-.339-.008-.672.106-.994 0 0-.054.059-.13.19-.077.13-.168.338-.239.618a7.938 7.938 0 0 0-.199 2.4 8.594 8.594 0 0 0 .994 3.448 9.079 9.079 0 0 0 2.993 3.289"/>
            <path fill="#828383" d="M93.403 42.75c.078.62.983 7.259 3.942 7.799 3.115.568 9.001-1.637 10.794-3.617 1.575-1.74-1-7.496-1.32-8.192-9.39-.906-13.072 3.561-13.416 4.01m3.888 8.05c-3.29-.601-4.138-7.766-4.172-8.071l-.006-.044.026-.037c.038-.054.93-1.315 3.085-2.467 1.98-1.058 5.446-2.211 10.705-1.688l.082.009.032.068c.127.267 3.09 6.563 1.313 8.526-1.67 1.845-6.812 3.88-10.133 3.794a6.106 6.106 0 0 1-.932-.09M75.853 44.867c-.18.624-1.772 6.664 2.773 9.262 2.228 1.274 8.68.034 11.372-1.766 2.42-1.618.132-7.95-.098-8.567-.57-.26-6.204-2.636-14.047 1.07m2.625 9.48c-4.952-2.83-2.9-9.536-2.879-9.603l.016-.053.054-.025c8.396-3.993 14.353-1.1 14.413-1.071l.046.024.018.046c.112.29 2.716 7.101.02 8.906-2.03 1.357-6.165 2.394-9.122 2.318-1.055-.027-1.96-.196-2.566-.542"/>
            <path fill="#FFF" d="M106.915 38.62s3.076 6.468 1.333 8.394c-1.744 1.925-7.703 4.248-10.93 3.66-3.227-.589-4.06-7.958-4.06-7.958s3.548-5.1 13.657-4.095M75.734 44.779s-2.102 6.647 2.818 9.458c2.33 1.332 8.884-.002 11.53-1.77 2.644-1.77-.068-8.76-.068-8.76s-5.853-2.936-14.28 1.072" opacity=".3"/>
            <path fill="#020202" d="M108.253 39.413c-2.805-.4-5.845-.29-8.568.424-3.541.93-5.207 4.167-8.97 4.4-1.156.072-1.897-.43-3.072-.66-4.638-.91-9.547.953-13.567 2.811-1.052.487-1.918-.994-.865-1.48 4.04-1.868 8.582-3.523 13.22-3.169 1.083.083 2.16.276 3.176.632.247.086.546.3.802.34.633.101-.877-.01-.099-.108 1.778-.227 2.463-.788 3.64-1.836 1.436-1.28 3.421-2.073 5.332-2.565 2.87-.739 6.104-.883 9.058-.461 1.156.165 1.085 1.84-.087 1.672M103.157 43.572c-1.028 1.688-4.205 1.907-5.72 1.387-.604-.207-.97.732-.372.937 1.95.67 5.687.202 6.95-1.872.344-.565-.51-1.022-.858-.452M87.486 46.883c-1.028 1.688-4.205 1.907-5.721 1.386-.603-.207-.969.732-.37.938 1.949.669 5.686.202 6.949-1.872.343-.566-.51-1.023-.858-.452"/>
            <path fill="#63362F" d="M92.614 55.43c1.54.613 4.686.81 5.626-.563 1.36-1.986-8.582-16.042-2.678-2.07.478 1.133-1.197 1.388-2.347.93-1.083-.43-1.681 1.274-.601 1.703"/>
            <path fill="#020202" d="M97.181 30.289c2.098-1.003.542-4.261-1.56-3.257-2.097 1.002-.541 4.26 1.56 3.257"/>
            <path fill="#232322" d="M76.125 40.03a.62.62 0 0 1-.105-.313c-.021-.575-.922-.655-.9-.075.013.377.109.67.323.981.33.477 1.01-.118.682-.592M75.636 37.193a1.35 1.35 0 0 1-.118-.763c.067-.579-.834-.651-.9-.075-.049.428.022.837.203 1.227.243.528 1.058.139.815-.39M74.948 33.373a5.335 5.335 0 0 0-.3-1.372c-.19-.548-1.005-.154-.815.39.129.368.196.752.226 1.14.044.58.934.416.89-.158M74.213 29.249l.076-.907c.049-.58-.851-.653-.9-.074l-.076.906c-.05.58.851.654.9.075M73.972 25.405l.155-1.031c.086-.576-.815-.647-.9-.075l-.155 1.031c-.087.576.814.647.9.075M73.104 41.235a.615.615 0 0 1-.106-.314c-.02-.575-.922-.655-.9-.075.013.377.11.67.324.981.329.477 1.01-.118.682-.592M75.291 43.197a.615.615 0 0 1-.106-.314c-.02-.575-.921-.655-.9-.075.014.377.11.67.324.981.329.477 1.01-.118.682-.592M72.614 38.397a1.355 1.355 0 0 1-.117-.763c.066-.579-.835-.651-.9-.074-.05.428.022.835.202 1.226.243.528 1.059.139.815-.39M71.927 34.577a5.388 5.388 0 0 0-.3-1.372c-.192-.548-1.006-.154-.816.39.13.368.196.752.226 1.141.045.58.934.415.89-.16M71.191 30.453l.076-.907c.05-.58-.851-.653-.9-.074l-.076.906c-.049.58.852.654.9.075M70.95 26.61l.155-1.032c.086-.577-.815-.647-.9-.075l-.155 1.031c-.087.576.815.647.9.075M76.014 21.084l.436-.644c.325-.48-.422-.99-.748-.506l-.435.644c-.326.481.421.99.747.506M77.65 18.821l-.173.301c-.289.501.456 1.012.747.507l.174-.3c.288-.501-.457-1.013-.748-.508M76.54 23.463a3.175 3.175 0 0 0-.195 1.065c-.005.578.896.656.9.074.002-.297.045-.559.147-.838.197-.547-.654-.847-.852-.3M75.961 28.657l.138.933c.084.576.974.415.889-.159l-.137-.933c-.085-.576-.974-.414-.89.16M76.973 32.707c.186.306.317.615.39.966.118.569 1.007.41.89-.16a3.713 3.713 0 0 0-.465-1.195c-.3-.491-1.118-.107-.815.39M79.87 35.949l.302-.038c.578-.071.416-.96-.16-.889l-.302.038c-.578.072-.416.96.16.889M81.354 33.799a1.58 1.58 0 0 1-.372-.84c-.083-.577-.973-.415-.89.159.07.48.267.902.58 1.273.375.444 1.058-.147.682-.592M80.594 29.694a1.198 1.198 0 0 1 .001-.824c.187-.55-.664-.852-.852-.3a2.178 2.178 0 0 0 .036 1.513c.202.544 1.016.152.815-.39M80.919 25.398l.21-2.023c.06-.58-.84-.652-.9-.075l-.21 2.023c-.061.58.84.652.9.075M81.507 20.106l.05-.344c.082-.577-.82-.648-.902-.075l-.048.344c-.083.577.818.648.9.075M83.553 16.948l.23-.423c.277-.506-.468-1.018-.747-.507l-.23.423c-.277.506.468 1.018.747.507M84.478 15.853l-.09.257c-.194.549.658.85.852.3l.09-.256c.194-.549-.658-.85-.852-.3M83.87 19.01l-.021 1.078c-.012.58.888.657.9.075l.022-1.078c.012-.58-.889-.656-.9-.075M83.511 24.64c.016.279-.036.543-.129.803-.195.548.658.849.853.3.148-.415.191-.823.166-1.261-.034-.58-.923-.414-.89.159M83.28 30.014c.172.281.284.555.344.88.106.572.996.413.89-.159a3.214 3.214 0 0 0-.42-1.11c-.3-.49-1.118-.106-.814.39M84.564 33.817l.382.353c.422.389 1.11-.198.683-.593l-.383-.352c-.421-.39-1.11.197-.682.592M87.97 33.616c.525-.25.136-1.065-.39-.814-.524.25-.135 1.066.39.814M87.842 30.078a1.307 1.307 0 0 1-.085-.996c.172-.554-.68-.856-.852-.3a2.24 2.24 0 0 0 .123 1.686c.255.52 1.07.133.814-.39M88.059 25.166a.807.807 0 0 1-.046-.692c.196-.548-.656-.849-.852-.3-.166.461-.14.943.083 1.38.262.52 1.078.131.815-.388M88.167 20.945a1.44 1.44 0 0 1-.044-.677c.08-.578-.82-.649-.9-.076-.056.398 0 .764.129 1.142.186.55 1 .155.815-.39M87.976 17.403a1.003 1.003 0 0 1-.064-.462c.041-.58-.86-.654-.9-.074-.023.328.028.62.15.925.212.541 1.027.15.814-.389M93.919 15.615l.335.092c.562.156.729-.732.172-.886l-.335-.092c-.562-.155-.73.732-.172.886M90.085 16.289l.083.174c.251.524 1.067.135.815-.39L90.9 15.9c-.25-.525-1.066-.136-.815.389M90.45 18.676c.115.339.18.7.19 1.056.018.576.919.655.901.075a5.165 5.165 0 0 0-.276-1.52c-.186-.55-.999-.155-.815.39M91.09 23.694l.122 1.338c.053.579.942.415.89-.16l-.122-1.337c-.053-.579-.942-.415-.89.16M91.35 28.296c.12.3.185.614.186.94.001.577.902.655.9.074a3.67 3.67 0 0 0-.272-1.403c-.218-.54-1.033-.148-.815.389M92.123 31.534l-.056.343c-.093.575.808.645.9.075l.057-.343c.093-.575-.808-.645-.901-.075M94.11 33.034l.522-.25c.524-.25.135-1.065-.39-.814l-.523.25c-.524.25-.135 1.065.39.814M96.476 30.588c.018-.208.077-.38.193-.555.321-.483-.425-.992-.747-.506-.2.3-.315.627-.346.986-.052.58.849.654.9.075M97.126 27.926l.112-1.334c.05-.58-.852-.654-.9-.075l-.112 1.335c-.049.58.852.653.9.074M96.812 23.12a1.502 1.502 0 0 1-.077-.679c.053-.579-.847-.653-.9-.074-.038.4.024.768.162 1.143.201.544 1.015.152.815-.39M95.56 18.295a1.656 1.656 0 0 0-.245-.764c-.3-.491-1.119-.107-.815.39.108.176.156.328.17.533.038.58.928.414.89-.16M98.964 15.05l-.155-.15c-.417-.405-1.002.284-.585.688l.155.15c.418.404 1.002-.285.585-.688M95.289 15.33l.594.784c.35.462 1.033-.13.682-.592l-.594-.784c-.35-.463-1.033.13-.682.592M98.715 19.666l.663.967c.328.478 1.01-.116.683-.591l-.664-.968c-.328-.478-1.008.117-.682.592M99.964 23.868c.22.354.262.71.102 1.098-.222.538.63.836.852.3a1.967 1.967 0 0 0-.14-1.787c-.303-.489-1.122-.105-.814.389M99.954 29.5c.038.407-.079.785-.31 1.117-.332.477.415.985.748.506.37-.532.511-1.14.452-1.782-.054-.58-.943-.415-.89.16M99.299 32.478c.524-.25.135-1.065-.39-.814-.525.25-.136 1.065.39.814M103.827 31.57l.31-.687c.24-.53-.614-.827-.852-.3l-.31.686c-.239.53.614.827.852.3"/>
            <path fill="#725148" d="M92.217 183.322a215.1 215.1 0 0 1 1.448-5.256c.187-.65.438-1.27.737-1.857-1.418-2.967-2.49-5.854-4.043-6.571-.939-.434-15.46-10.352-25.067-21.073-5.734-1.608-13.528-3.746-18.975-6.176-3.83 4.103-2.804 10.854 2.048 16.103 3.505 3.792 8.103 6.343 12.748 8.733 13.012 5.652 24.397 7.521 25.039 7.754.349.127 1.022 1.949 1.752 4.264a7.935 7.935 0 0 1 2.65 1.884 7.937 7.937 0 0 1 1.663 2.195"/>
            <path fill="#000" d="M111.59 75.852l.84.554c.315.208.772.063.956-.25.2-.34.065-.747-.251-.955l-.84-.554c-.316-.207-.773-.062-.956.251-.2.34-.066.747.25.954M114.672 78.685l1.193 1.062c.281.25.71.277.987 0 .256-.255.283-.736 0-.987l-1.192-1.062c-.282-.25-.71-.277-.988 0-.255.256-.283.736 0 .987M119.61 83.423l1.19 1.196c.635.638 1.622-.349.987-.987l-1.19-1.195c-.634-.639-1.622.348-.987.986M123.967 87.682l1.088 1.303c.241.29.738.25.988 0 .287-.287.242-.697 0-.987l-1.088-1.303c-.242-.289-.738-.249-.988 0-.287.287-.242.697 0 .987M128.332 92.725l1.183 1.466c.237.294.742.247.988 0 .29-.29.238-.692 0-.986-.394-.49-.788-.977-1.183-1.466-.237-.294-.74-.247-.988 0-.29.29-.237.692 0 .986M131.412 97.349l.795 1.325c.462.77 1.67.068 1.207-.704l-.796-1.325c-.462-.77-1.67-.069-1.206.704M133.165 102.493c.245.759.389 1.523.42 2.32.035.895 1.432.9 1.397 0a9.992 9.992 0 0 0-.47-2.691c-.275-.852-1.624-.487-1.347.37M134.101 109.643c.213.765.346 1.533.391 2.325.051.893 1.449.899 1.397 0a12.722 12.722 0 0 0-.44-2.696c-.241-.864-1.59-.497-1.348.371M135.275 117.079c.166.287.231.598.162.926-.08.368.108.755.487.858.348.096.78-.117.86-.487a2.765 2.765 0 0 0-.303-2.001c-.45-.778-1.657-.076-1.206.704M136.071 122.907c.386.587.572 1.208.558 1.912-.018.898 1.379.898 1.397 0a4.577 4.577 0 0 0-.748-2.617c-.492-.747-1.702-.05-1.207.705M137.107 128.62c.286.471.37.953.306 1.498-.044.375.353.698.699.698.414 0 .654-.322.698-.698a3.483 3.483 0 0 0-.496-2.202c-.464-.768-1.673-.067-1.207.704M138.311 133.78c.415.606.694 1.24.857 1.955.198.876 1.546.506 1.346-.37a6.653 6.653 0 0 0-.997-2.289c-.504-.736-1.715-.04-1.206.705M139.908 139.605c.272.355.48.73.607 1.159.256.859 1.605.493 1.348-.371a4.581 4.581 0 0 0-.75-1.492c-.229-.298-.6-.458-.955-.25-.293.172-.482.654-.25.954M142.14 144.114l1.206 1.045c.286.247.708.28.988 0 .253-.252.287-.739 0-.987l-1.206-1.045c-.285-.247-.707-.28-.987 0-.253.253-.287.739 0 .987"/>
            <path fill="#000" d="M145.277 145.255c.496-.023.966-.212 1.292-.598.243-.287.283-.704 0-.986-.25-.25-.743-.29-.987 0-.118.138-.17.182-.305.19-.377.017-.699.307-.699.696 0 .365.32.717.699.698M148.23 142.175v-.133c0-.898-1.397-.9-1.397 0v.133c0 .898 1.396.9 1.396 0"/>
            <path fill="#FFF" d="M109.73 90.67l.51 2.04c.177.708 1.012 1.202 1.718.974.734-.237 1.165-.957.976-1.717l-.511-2.04c-.177-.708-1.012-1.203-1.718-.974-.734.237-1.166.957-.976 1.716M113.442 100.185l1.93 3.13c.94 1.527 3.358.127 2.412-1.409l-1.93-3.13c-.94-1.527-3.358-.126-2.412 1.409M118.641 112.38l1.545 3.053c.341.672 1.289.864 1.911.5.685-.4.843-1.234.502-1.909l-1.546-3.054c-.34-.672-1.288-.864-1.91-.5-.685.4-.843 1.234-.502 1.91M122.634 123.647l1.531 2.55c.388.646 1.255.885 1.912.501.647-.378.89-1.26.5-1.91l-1.531-2.55c-.388-.645-1.255-.884-1.911-.5-.648.378-.89 1.26-.501 1.91M125.395 135.162c.53.475.676.886.637 1.554-.045.753.673 1.395 1.396 1.395.793 0 1.352-.64 1.397-1.395a4.456 4.456 0 0 0-1.454-3.527c-.56-.504-1.422-.553-1.976 0-.512.511-.563 1.467 0 1.973M127.742 147.076c.054.029.107.06.16.09.182.104-.06-.005-.064-.05.002.024.11.109.13.129.173.173-.088-.169-.025-.026.024.052.06.111.09.16.084.136-.062-.235-.038-.078.009.056.03.124.046.178.052.16-.026-.35-.015-.052.028.728.623 1.43 1.397 1.395.734-.033 1.426-.614 1.397-1.395-.042-1.139-.646-2.219-1.668-2.76-.645-.343-1.55-.185-1.911.5-.342.646-.188 1.544.5 1.909"/>
            <path fill="#020202" d="M90.094 169.508c-6.522 2.437-2.174 5.453-4.861 8.907-1.34-.136-2.486-1.366-3.798-1.669.042-1.117.012-1.567.317-3.27.12-.665.295-1.33.582-1.941 1.044-2.228 2.836-3.314 4.877-4.326a.813.813 0 0 1 .872.09c.697.565 2.271 1.233 2.137 1.85"/>
            <path fill="#FFF" d="M86.327 173.419c.121-.53-.273-.615-.657-1s-.906-.607-1.435-.733c-.815-.194-1.734-.16-2.416.327-1.084.775-1.17 2.419-.624 3.634.285.633.72 1.215 1.316 1.574.595.358 1.36.467 1.996.186.42-.186.995-.343 1.299-.687.383-.434.5-1.085.682-1.634.182-.549.166-1.189-.161-1.667"/>
            <path fill="#020202" d="M86.676 173.43c.093-1.65-2.662-2.372-3.932-2.15-1.957.34-2.583 2.42-2.012 4.133.564 1.695 2.15 2.915 3.938 2.303.938-.321 1.53-.719 1.883-1.667.355-.956.574-1.856.084-2.792-.209-.399-.828-.075-.62.324.657 1.252-.2 2.933-1.404 3.408-1.509.593-2.725-.378-3.202-1.78-.425-1.25-.151-2.883 1.336-3.225.574-.131 1.23-.052 1.778.15.353.129 1.486.7 1.453 1.274-.025.447.673.472.698.023"/>
            <path fill="#643730" d="M88.058 60.165l.246.167c.163.102.41.242.743.364.664.263 1.687.379 2.925.288a40.145 40.145 0 0 0 2.014-.212c.71-.091 1.42-.218 2.064-.58.65-.357 1.347-.9 2.163-1.225a7.46 7.46 0 0 1 1.25-.399c.204-.05.46-.092.691-.05.118.02.238.055.345.128a.429.429 0 0 1 .187.326c-.005.01-.012-.136-.187-.24-.17-.097-.459-.097-.77.018a9.675 9.675 0 0 0-2.49 1.441c-.482.366-1.077.822-1.841 1.045-.751.23-1.542.284-2.354.34-.818.05-1.7.054-2.593-.12-.885-.17-1.8-.576-2.393-1.291"/>
            <path fill="#643730" d="M88.081 61.576s-.06-.077-.121-.237a1.41 1.41 0 0 1-.075-.707 1.61 1.61 0 0 1 .46-.907c.268-.266.68-.445 1.081-.392l-.153.206a5.9 5.9 0 0 0-.316.484l-.38.631c-.141.24-.322.5-.496.922M98.205 61.358l.015.128c.005.083.006.21-.03.368-.064.313-.299.778-.84 1.069-.265.14-.633.212-.974.157-.343-.05-.66-.188-.943-.342a10.024 10.024 0 0 1-1.649-1.14s.651.057 1.577.382c.47.16.966.42 1.433.415a1.612 1.612 0 0 0 1.41-1.037M97.892 61.054c.015.003-.323-.166-.424-.667-.048-.24-.02-.544.133-.817.15-.27.445-.5.783-.522 0 0-.088.337-.13.667-.028.168-.056.338-.12.534-.059.2-.166.422-.242.805"/>
            <path fill="#020202" d="M86.258 40.987s-.222-.155-.634-.358a5.63 5.63 0 0 0-1.784-.526 5.327 5.327 0 0 0-2.54.308 5.765 5.765 0 0 0-2.458 1.798s.058-.246.275-.65c.215-.402.624-.961 1.32-1.439a4.343 4.343 0 0 1 2.817-.743c1.102.085 2.285.643 3.004 1.61M101.675 36.557s-.238-.065-.653-.128a6.58 6.58 0 0 0-1.705-.023 6.142 6.142 0 0 0-2.246.698c-.76.414-1.508 1.02-2.043 1.87 0 0 .017-.23.165-.623a3.79 3.79 0 0 1 1.03-1.458 4.43 4.43 0 0 1 2.424-1.079c.99-.119 2.138.095 3.028.743"/>
            <path fill="#643730" d="M99.314 64.815l.035.126c.02.084.04.211.034.378-.01.329-.17.827-.602 1.238a2.23 2.23 0 0 1-.82.497 2.424 2.424 0 0 1-1.059.094c-.727-.09-1.404-.485-1.89-1.023l.444.116a7.01 7.01 0 0 0 1.133.206c.459.036.98.025 1.478-.202.49-.234 1.068-.625 1.247-1.43"/>
            <path fill="#725148" d="M138.663 73.672s-13.786-6.596-16.162-6.612c-2.376-.016-9.575 3.403-8.634 4.833.94 1.43 3.556 1.21 3.556 1.21s-1.823 2.553.311 3.279c0 0-1.357 3.98 1.498 3.523 0 0 1.106 5.136 3.828 3.207 0 0 4.53.197 4.196-.91-.333-1.106 1.71-1.045 2.47-.945.76.1 8.91 3.667 10.403.686 1.493-2.982-1.466-8.271-1.466-8.271"/>
            <path fill="#725148" d="M136.62 74.04s24.207-7.56 41.904-5.178c16.155 2.175 20.135 22.357-28 15.263l-18.195-2.656 4.29-7.428z"/>
            <path fill="#000" d="M137.637 72.992c3.319 1.635 4.022 6.675 2.162 9.81a1.51 1.51 0 0 0-.048.398c.032.445 3.515.732 4.117.29 1.253-3.44.433-8.241-1.702-11.156-.017-.608-5.01-.02-4.53.658"/>
            <path fill="#FFF" d="M142.723 74.387c1.755.472 2.857 2.043 2.461 3.51-.395 1.466-2.137 2.272-3.892 1.8-1.755-.473-2.857-2.044-2.462-3.51.395-1.466 2.138-2.272 3.893-1.8"/>
            <path stroke="#000" stroke-width="2" d="M142.723 74.387c1.755.472 2.857 2.043 2.461 3.51-.395 1.466-2.137 2.272-3.892 1.8-1.755-.473-2.857-2.044-2.462-3.51.395-1.466 2.138-2.272 3.893-1.8z"/>
            <path fill="#482E26" d="M101.607 68.602c.768-4.06 3.903-7.582 7.848-8.82 1.316-.412 2.873-.545 3.964.298.47.362.8.868 1.124 1.365 3.477 5.339 11.489 17.654 11.679 18.596.4 1.982-.87 4.004-2.576 5.092-1.706 1.087-6.784 1.846-7.258 1.687-.52-.173-10.332-11.22-14.532-16.598"/>
            <path fill="#C19372" d="M101.74 70.057c.259-2.696 1.775-5.053 3.73-6.86 2.058-1.903 5.008-3.808 7.936-3.275.409.074.583-.55.173-.624-3.13-.57-6.193 1.295-8.43 3.315-2.158 1.95-3.776 4.508-4.057 7.444-.04.415.609.412.648 0M126.542 80.546c-.638-.555-1.207-.897-2.083-.771-.881.126-1.741.456-2.55.818-1.742.78-3.334 1.938-4.58 3.387-.273.32-.531.651-.771.996-.238.342-.591.767-.576 1.21.026.797 1.013 1.19 1.678 1.26 1.896.2 3.836-1.061 5.33-2.07.946-.636 1.942-1.274 2.71-2.126.583-.646 1.245-1.433 1.058-2.36-.082-.408-.707-.235-.625.172.138.69-.583 1.41-1.01 1.86-.575.607-1.272 1.075-1.955 1.55-1.313.912-2.742 1.881-4.324 2.242-.34.078-.69.12-1.038.097-.304-.02-.917-.127-1.071-.44-.196-.4.253-.89.473-1.196.228-.318.475-.623.735-.915a12.597 12.597 0 0 1 3.552-2.748c.724-.38 1.484-.694 2.27-.92.381-.11.798-.23 1.199-.206.46.027.789.33 1.12.618.313.273.773-.184.458-.458"/>
            <path fill="#725148" d="M121.595 68.093a32.991 32.991 0 0 0-16.307 5.53c-.482.324-.981.695-1.176 1.242-.195.546.09 1.294.666 1.36.27.03.53-.09.776-.204a49.883 49.883 0 0 1 10.176-3.453c-1.99 1.454-3.982 2.907-5.974 4.36-1.217.889-2.48 1.83-3.137 3.186-.656 1.355-.469 3.246.812 4.04.893.553 2.03.438 3.073.304l17.68-2.266c1.325-.17 3.003-.703 3.042-2.037.015-.51-.242-.983-.492-1.428l-4.01-7.139M90.109 194.074c.573-4.964 1.804-9.808 3.167-14.632-.263-2.502-.578-4.472-.578-4.472l-5.858.585-.781 1.3 2.669 12.81s-1.303-3.706-2.865-3.576c-1.561.13.651 2.731.781 3.121.13.39 2.67 5.007 3.19 5.072.057.007.155-.073.275-.208"/>
        </g>
    </g>
</svg>
