<svg xmlns="http://www.w3.org/2000/svg" xmlns:xlink="http://www.w3.org/1999/xlink" width="160" height="160" viewBox="0 0 160 160">
    <defs>
        <path id="a" d="M.294 79.81c0 43.94 35.744 79.561 79.833 79.561 44.09 0 79.833-35.621 79.833-79.562 0-43.941-35.742-79.562-79.833-79.562C36.037.247.294 35.867.294 79.809z"/>
        <path id="c" d="M12.574 11.173L.282 88.52c2.457.227 4.948.343 7.464.343 43.778 0 79.327-35.115 79.828-78.627L27.06.684a12.748 12.748 0 0 0-1.997-.157c-6.118 0-11.501 4.432-12.489 10.646"/>
        <path id="e" d="M12.574 11.173L.282 88.52c2.457.227 4.948.343 7.464.343 43.778 0 79.327-35.115 79.828-78.627L27.06.684a12.748 12.748 0 0 0-1.997-.157c-6.118 0-11.501 4.432-12.489 10.646z"/>
        <path id="g" d="M.294 79.81c0 43.94 35.744 79.561 79.833 79.561 44.09 0 79.833-35.621 79.833-79.562 0-43.941-35.742-79.562-79.833-79.562C36.037.247.294 35.867.294 79.809z"/>
        <path id="i" d="M.294 79.81c0 43.94 35.744 79.561 79.833 79.561 44.09 0 79.833-35.621 79.833-79.562 0-43.941-35.742-79.562-79.833-79.562C36.037.247.294 35.867.294 79.809z"/>
        <path id="k" d="M.294 79.81c0 43.94 35.744 79.561 79.833 79.561 44.09 0 79.833-35.621 79.833-79.562 0-43.941-35.742-79.562-79.833-79.562C36.037.247.294 35.867.294 79.809z"/>
        <path id="m" d="M.294 79.81c0 43.94 35.744 79.561 79.833 79.561 44.09 0 79.833-35.621 79.833-79.562 0-43.941-35.742-79.562-79.833-79.562C36.037.247.294 35.867.294 79.809z"/>
        <path id="o" d="M.294 79.81c0 43.94 35.744 79.561 79.833 79.561 44.09 0 79.833-35.621 79.833-79.562 0-43.941-35.742-79.562-79.833-79.562C36.037.247.294 35.867.294 79.809z"/>
        <path id="q" d="M.294 79.81c0 43.94 35.744 79.561 79.833 79.561 44.09 0 79.833-35.621 79.833-79.562 0-43.941-35.742-79.562-79.833-79.562C36.037.247.294 35.867.294 79.809"/>
        <path id="s" d="M.294 79.81c0 43.94 35.744 79.561 79.833 79.561 44.09 0 79.833-35.621 79.833-79.562 0-43.941-35.742-79.562-79.833-79.562C36.037.247.294 35.867.294 79.809"/>
        <path id="u" d="M.294 79.81c0 43.94 35.744 79.561 79.833 79.561 44.09 0 79.833-35.621 79.833-79.562 0-43.941-35.742-79.562-79.833-79.562C36.037.247.294 35.867.294 79.809z"/>
        <path id="w" d="M.294 79.81c0 43.94 35.744 79.561 79.833 79.561 44.09 0 79.833-35.621 79.833-79.562 0-43.941-35.742-79.562-79.833-79.562C36.037.247.294 35.867.294 79.809z"/>
        <path id="y" d="M.294 79.81c0 43.94 35.744 79.561 79.833 79.561 44.09 0 79.833-35.621 79.833-79.562 0-43.941-35.742-79.562-79.833-79.562C36.037.247.294 35.867.294 79.809"/>
        <path id="A" d="M.294 79.81c0 43.94 35.744 79.561 79.833 79.561 44.09 0 79.833-35.621 79.833-79.562 0-43.941-35.742-79.562-79.833-79.562C36.037.247.294 35.867.294 79.809"/>
        <path id="C" d="M.294 79.81c0 43.94 35.744 79.561 79.833 79.561 44.09 0 79.833-35.621 79.833-79.562 0-43.941-35.742-79.562-79.833-79.562C36.037.247.294 35.867.294 79.809"/>
        <path id="E" d="M.294 79.81c0 43.94 35.744 79.561 79.833 79.561 44.09 0 79.833-35.621 79.833-79.562 0-43.941-35.742-79.562-79.833-79.562C36.037.247.294 35.867.294 79.809z"/>
        <path id="G" d="M.294 79.81c0 43.94 35.744 79.561 79.833 79.561 44.09 0 79.833-35.621 79.833-79.562 0-43.941-35.742-79.562-79.833-79.562C36.037.247.294 35.867.294 79.809"/>
        <path id="I" d="M.294 79.81c0 43.94 35.744 79.561 79.833 79.561 44.09 0 79.833-35.621 79.833-79.562 0-43.941-35.742-79.562-79.833-79.562C36.037.247.294 35.867.294 79.809"/>
        <path id="K" d="M4.63 14.129L.293 44.885a41.711 41.711 0 0 0 11.244 9.384c20.027 11.473 45.594 4.594 57.106-15.366 5.68-9.848 6.878-21.038 4.228-31.229L22.6.634a16.017 16.017 0 0 0-2.235-.157C12.562.477 5.747 6.205 4.63 14.129"/>
        <path id="M" d="M4.63 14.129L.293 44.885a41.711 41.711 0 0 0 11.244 9.384c20.027 11.473 45.594 4.594 57.106-15.366 5.68-9.848 6.878-21.038 4.228-31.229L22.6.634a16.017 16.017 0 0 0-2.235-.157C12.562.477 5.747 6.205 4.63 14.129z"/>
        <path id="O" d="M5.915 21.22c-11.512 19.959-4.61 45.44 15.418 56.913 20.026 11.473 45.594 4.595 57.106-15.365 11.513-19.96 4.61-45.44-15.417-56.913A41.734 41.734 0 0 0 42.216.303C27.734.303 13.651 7.809 5.915 21.22z"/>
        <path id="Q" d="M5.915 21.22c-11.512 19.959-4.61 45.44 15.418 56.913 20.026 11.473 45.594 4.595 57.106-15.365 11.513-19.96 4.61-45.44-15.417-56.913A41.734 41.734 0 0 0 42.216.303C27.734.303 13.651 7.809 5.915 21.22z"/>
        <path id="S" d="M5.915 21.22c-11.512 19.959-4.61 45.44 15.418 56.913 20.026 11.473 45.594 4.595 57.106-15.365 11.513-19.96 4.61-45.44-15.417-56.913A41.734 41.734 0 0 0 42.216.303C27.734.303 13.651 7.809 5.915 21.22z"/>
        <path id="U" d="M5.915 21.22c-11.512 19.959-4.61 45.44 15.418 56.913 20.026 11.473 45.594 4.595 57.106-15.365 11.513-19.96 4.61-45.44-15.417-56.913A41.734 41.734 0 0 0 42.216.303C27.734.303 13.651 7.809 5.915 21.22z"/>
        <path id="W" d="M5.915 21.22c-11.512 19.959-4.61 45.44 15.418 56.913 20.026 11.473 45.594 4.595 57.106-15.365 11.513-19.96 4.61-45.44-15.417-56.913A41.734 41.734 0 0 0 42.216.303C27.734.303 13.651 7.809 5.915 21.22z"/>
        <path id="Y" d="M5.915 21.22c-11.512 19.959-4.61 45.44 15.418 56.913 20.026 11.473 45.594 4.595 57.106-15.365 11.513-19.96 4.61-45.44-15.417-56.913A41.734 41.734 0 0 0 42.216.303C27.734.303 13.651 7.809 5.915 21.22"/>
        <path id="aa" d="M5.915 21.22c-11.512 19.959-4.61 45.44 15.418 56.913 20.026 11.473 45.594 4.595 57.106-15.365 11.513-19.96 4.61-45.44-15.417-56.913A41.734 41.734 0 0 0 42.216.303C27.734.303 13.651 7.809 5.915 21.22"/>
        <path id="ac" d="M5.915 21.22c-11.512 19.959-4.61 45.44 15.418 56.913 20.026 11.473 45.594 4.595 57.106-15.365 11.513-19.96 4.61-45.44-15.417-56.913A41.734 41.734 0 0 0 42.216.303C27.734.303 13.651 7.809 5.915 21.22z"/>
        <path id="ae" d="M5.915 21.22c-11.512 19.959-4.61 45.44 15.418 56.913 20.026 11.473 45.594 4.595 57.106-15.365 11.513-19.96 4.61-45.44-15.417-56.913A41.734 41.734 0 0 0 42.216.303C27.734.303 13.651 7.809 5.915 21.22z"/>
        <path id="ag" d="M5.915 21.22c-11.512 19.959-4.61 45.44 15.418 56.913 20.026 11.473 45.594 4.595 57.106-15.365 11.513-19.96 4.61-45.44-15.417-56.913A41.734 41.734 0 0 0 42.216.303C27.734.303 13.651 7.809 5.915 21.22z"/>
        <path id="ai" d="M5.915 21.22c-11.512 19.959-4.61 45.44 15.418 56.913 20.026 11.473 45.594 4.595 57.106-15.365 11.513-19.96 4.61-45.44-15.417-56.913A41.734 41.734 0 0 0 42.216.303C27.734.303 13.651 7.809 5.915 21.22z"/>
        <path id="ak" d="M5.915 21.22c-11.512 19.959-4.61 45.44 15.418 56.913 20.026 11.473 45.594 4.595 57.106-15.365 11.513-19.96 4.61-45.44-15.417-56.913A41.734 41.734 0 0 0 42.216.303C27.734.303 13.651 7.809 5.915 21.22z"/>
        <path id="am" d="M5.915 21.22c-11.512 19.959-4.61 45.44 15.418 56.913 20.026 11.473 45.594 4.595 57.106-15.365 11.513-19.96 4.61-45.44-15.417-56.913A41.734 41.734 0 0 0 42.216.303C27.734.303 13.651 7.809 5.915 21.22z"/>
        <path id="ao" d="M.294 79.81c0 43.94 35.744 79.561 79.833 79.561 44.09 0 79.833-35.621 79.833-79.562 0-43.941-35.742-79.562-79.833-79.562C36.037.247.294 35.867.294 79.809"/>
        <path id="aq" d="M.294 79.81c0 43.94 35.744 79.561 79.833 79.561 44.09 0 79.833-35.621 79.833-79.562 0-43.941-35.742-79.562-79.833-79.562C36.037.247.294 35.867.294 79.809"/>
        <path id="as" d="M.294 79.81c0 43.94 35.744 79.561 79.833 79.561 44.09 0 79.833-35.621 79.833-79.562 0-43.941-35.742-79.562-79.833-79.562C36.037.247.294 35.867.294 79.809"/>
    </defs>
    <g fill="none" fill-rule="evenodd">
        <g transform="translate(0 .11)">
            <mask id="b" fill="#fff">
                <use xlink:href="#a"/>
            </mask>
            <path fill="#A885D8" d="M-3.81 174.088h170.478V-13.127H-3.81z" mask="url(#b)"/>
            <path fill="#FFF" d="M147.872 67.55l-5.305 5.211c-1.466 1.44.986 3.49 2.444 2.06l5.305-5.21c1.467-1.44-.986-3.491-2.444-2.06M143.267 51.104l-4.383 1.818c-1.898.788-.836 3.798 1.067 3.008l4.383-1.818c1.898-.788.837-3.798-1.067-3.008M9.582 90.53l6.959-1.51c2.006-.435 1.548-3.592-.467-3.156l-6.958 1.51c-2.007.435-1.548 3.593.466 3.156M19.772 107.578l7.162-3.81c1.806-.962.552-3.899-1.266-2.932l-7.161 3.813c-1.807.96-.552 3.897 1.265 2.93M33.63 121.582l5.813-5.447c1.49-1.397-.498-3.898-2.001-2.49l-5.813 5.448c-1.49 1.396.498 3.898 2.001 2.489M8.466 69.21l5.897 1.358c.842.194 1.679-.624 1.766-1.41.104-.94-.57-1.566-1.415-1.76L8.818 66.04c-.843-.195-1.679.624-1.767 1.41-.103.939.57 1.565 1.415 1.76M21.632 48.984l2.483 1.412c.749.427 1.688.395 2.234-.357.465-.64.396-1.798-.359-2.227l-2.482-1.413c-.75-.426-1.688-.394-2.234.357-.466.64-.397 1.798.358 2.228" mask="url(#b)"/>
        </g>
        <g transform="translate(72.381 70.619)">
            <mask id="d" fill="#fff">
                <use xlink:href="#c"/>
            </mask>
            <path fill="#FF7900" d="M66.78 148.097l-61.213-9.662c-7.121-1.125-11.98-7.79-10.852-14.887L12.512 11.562C13.64 4.464 20.328-.378 27.45.746l61.213 9.662c7.121 1.124 11.98 7.789 10.852 14.886L81.717 137.282c-1.128 7.097-7.816 11.939-14.937 10.815" mask="url(#d)"/>
        </g>
        <g transform="translate(72.381 70.619)">
            <mask id="f" fill="#fff">
                <use xlink:href="#e"/>
            </mask>
            <path fill="#000" d="M-8.33 61.968S17.513 60.51 43.93 78.073c27.304 18.152 96.952-12.406 96.952-12.406s-34.975 96.221-38.707 95.963c-3.734-.259-113.422-12.153-113.422-12.153l2.916-87.51z" mask="url(#f)"/>
        </g>
        <g transform="translate(0 .11)">
            <mask id="h" fill="#fff">
                <use xlink:href="#g"/>
            </mask>
            <path fill="#FFF" d="M158.019 110.478L93.54 100.3l1.806-11.363 64.479 10.178z" mask="url(#h)"/>
        </g>
        <g transform="translate(0 .11)">
            <mask id="j" fill="#fff">
                <use xlink:href="#i"/>
            </mask>
            <path fill="#000" d="M98.953 95.899l-3.345 2.079 2.272-3.122 1.198 3.665-2.557-2.985 4.067.585-3.82-1.61 4.135-.356-4.045-.688 3.296-2.12-2.222 3.183-1.122-3.714 2.457 3.053-4.054-.619 3.819 1.62-4.131.36 4.052.669zm2.862-3.995l-3.732 1.934 3.94 1.503-4.213.214 2.947 2.991-2.922-2.696-.746 3.982.527-4.016L94 97.479l3.73-1.936-3.94-1.501 4.214-.216-2.95-2.99 2.93 2.688.74-3.981-.529 4.015 3.62-1.654z" mask="url(#j)"/>
        </g>
        <g transform="translate(0 .11)">
            <mask id="l" fill="#fff">
                <use xlink:href="#k"/>
            </mask>
            <path fill="#000" d="M98.901 95.842l3.524 2.115-1.313-3.914 2.496 3.27-1.619-3.742 3.283 2.35-3.534-1.878 4.02-.337-3.87 1.016 2.526-3.03-1.674 3.636-.753-3.908 1.927 3.354-3.764-1.417 2.008 3.006-.433-4.11-1.959 3.637 3.136-1.654-3.224-2.5 3.06 2.55.74-3.98-.428 4.056 3.175-2.52-3.253 2.386 4.005.684-4.01-.63 2.805 2.92-2.943-2.836 1.446 3.823-2.069-3.498 1.534 3.762-2.188-3.436 1.663 3.708-2.578-3.121 1.591-.295.602 4.192 2.688-3.531-3.125 1.953 2.107 2.86-1.96-4.346-2.934 3.626 2.579-1.802z" mask="url(#l)"/>
        </g>
        <g transform="translate(0 .11)">
            <mask id="n" fill="#fff">
                <use xlink:href="#m"/>
            </mask>
            <path fill="#000" d="M108.72 94.09l-2.377 3.16 1.57-3.693.344 3.998-1.293-3.727 3.214 2.347-3.7-1.565 4.018-.314-3.777 1.208 2.347-3.177-1.547 3.708-.326-4.001 1.235 3.755-3.196-2.338 3.716 1.548-4.001.366 3.773-1.275zm-.498 2.79l-2.392 3.154 1.638-3.664.421 3.99-1.295-3.737 3.307 2.19-3.725-1.567 4.03-.338-3.803 1.085 2.358-3.189-1.627 3.67-.41-3.99 1.255 3.757-3.283-2.202 3.73 1.563-4.028.34 3.824-1.061zm-4.282-1.854l3.068 2.616-2.66-2.378 3.345-.992-3.837 1.185 3.969-.874-4.021-.534 3.935.822-2.383-3.235 2.129 3.419.821-3.986-.454 4.044 3.085-2.596-3.27 2.344 3.998.43-3.99-.73 3.505 2.049-3.223-2.36 2.821 2.004-3.307 1.405 3.77-1.469-3.835 1.32 4.01.646-3.975-.717 2.338 3.289-2.248-3.368-.903 3.986.4-4.06-3.21 2.443 3.34-2.28-4.007-.598 4.014.628-3.225-2.453z" mask="url(#n)"/>
        </g>
        <g transform="translate(0 .11)">
            <mask id="p" fill="#fff">
                <use xlink:href="#o"/>
            </mask>
            <path fill="#000" d="M116.744 95.896l-3.773-1.754 2.41 3.317-3.581-2.073 2.796 3.045-3.879-1.391 3.363 2.39-4.045-.792 2.053 3.312-.604-4.101-2.56 3.126 4.033-2.012-2.363-3.737 3.677 1.97-1.318-.095-.641-4.185-2.814 3.537 3.068-1.967-2.084-2.902 2.019 4.358 3.214-3.545-2.184 3.849z" mask="url(#p)"/>
        </g>
        <g transform="translate(0 .11)">
            <mask id="r" fill="#fff">
                <use xlink:href="#q"/>
            </mask>
            <path fill="#000" d="M117.414 99.607c.236-.38.71-.746 1.42-1.1.617-.307 1.02-.534 1.21-.678.293-.227.465-.499.515-.816a.978.978 0 0 0-.113-.677c-.116-.194-.307-.311-.575-.354-.365-.058-.636.04-.812.29-.1.145-.185.387-.253.727l-1.169-.184c.103-.516.264-.92.483-1.213.417-.557 1.036-.772 1.855-.641.648.102 1.134.361 1.46.779.326.418.443.92.35 1.51-.073.45-.271.83-.597 1.138-.215.204-.548.417-.998.64l-.537.264a9.456 9.456 0 0 0-.692.365 1.362 1.362 0 0 0-.334.287l2.67.422-.167 1.055-4.189-.66c.08-.436.239-.82.473-1.154" mask="url(#r)"/>
        </g>
        <g transform="translate(0 .11)">
            <mask id="t" fill="#fff">
                <use xlink:href="#s"/>
            </mask>
            <path fill="#000" d="M123.874 97.911c.114.162.293.262.536.3.245.04.446-.001.602-.12a.76.76 0 0 0 .287-.51c.038-.242.001-.44-.111-.598-.112-.157-.291-.255-.536-.293-.244-.039-.444 0-.602.114-.159.114-.256.291-.295.532a.753.753 0 0 0 .12.575m-.518 2.763c.13.19.332.306.608.35.275.043.504-.005.687-.146.182-.14.297-.36.345-.66.049-.312.007-.56-.126-.746-.133-.187-.335-.302-.605-.344-.27-.043-.497.004-.681.14-.185.136-.302.36-.351.671-.048.3-.007.545.123.735m-1.005-1.744a1.49 1.49 0 0 1 .781-.52c-.265-.242-.424-.485-.476-.728a1.781 1.781 0 0 1-.032-.662 1.51 1.51 0 0 1 .684-1.053c.384-.26.882-.341 1.494-.245.612.097 1.06.328 1.346.693.285.365.393.77.323 1.213-.031.198-.11.406-.234.62-.126.214-.35.382-.671.504.276.216.467.474.576.775.108.302.135.624.081.966a1.756 1.756 0 0 1-.78 1.22c-.439.3-1 .395-1.684.287-.684-.108-1.174-.37-1.468-.785a1.825 1.825 0 0 1-.32-1.394c.054-.34.181-.639.38-.891" mask="url(#t)"/>
        </g>
        <g transform="translate(0 .11)">
            <mask id="v" fill="#fff">
                <use xlink:href="#u"/>
            </mask>
            <path fill="#000" d="M129.287 100.403l.417-2.625-1.944 2.384 1.527.241zm1.72 1.232l-.692-.109-.208 1.312-1.178-.186.21-1.311-2.422-.382.166-1.047 2.836-3.345 1.35.213-.605 3.81.692.108-.15.937z" mask="url(#v)"/>
        </g>
        <g transform="translate(0 .11)">
            <mask id="x" fill="#fff">
                <use xlink:href="#w"/>
            </mask>
            <path fill="#000" d="M136.448 98.634c-.208.147-.51.423-.902.824a8.397 8.397 0 0 0-1.03 1.275 8.43 8.43 0 0 0-.686 1.314c-.225.525-.365.962-.42 1.313l-1.25-.197c.211-1.088.752-2.168 1.623-3.24.559-.661 1.01-1.113 1.354-1.355l-3.048-.48.189-1.074 4.319.682-.15.938z" mask="url(#x)"/>
        </g>
        <g transform="translate(0 .11)">
            <mask id="z" fill="#fff">
                <use xlink:href="#y"/>
            </mask>
            <path fill="#000" d="M139.545 102.797c.205-.33.617-.649 1.236-.957.537-.267.887-.464 1.053-.59.255-.198.404-.434.448-.71a.85.85 0 0 0-.098-.59c-.102-.168-.269-.27-.5-.307-.319-.05-.554.034-.707.252-.087.126-.161.337-.22.633l-1.018-.16c.09-.45.229-.8.42-1.056.364-.484.902-.671 1.615-.558.563.088.987.315 1.27.678.284.364.385.801.304 1.314a1.685 1.685 0 0 1-.52.99c-.187.178-.476.364-.868.557l-.467.23c-.292.144-.492.25-.602.318-.11.067-.207.15-.29.25l2.323.367-.145.918-3.646-.575c.07-.38.208-.714.412-1.004" mask="url(#z)"/>
        </g>
        <g transform="translate(0 .11)">
            <mask id="B" fill="#fff">
                <use xlink:href="#A"/>
            </mask>
            <path fill="#000" d="M145.167 101.322c.1.14.255.227.465.26.214.035.389 0 .525-.104a.66.66 0 0 0 .25-.444c.033-.21 0-.383-.097-.52s-.253-.222-.467-.256c-.211-.033-.386 0-.523.1-.138.099-.224.254-.257.463-.03.194.003.36.104.5m-.45 2.405c.112.165.288.267.529.304.24.038.439-.004.597-.126.159-.123.26-.314.3-.576.043-.27.008-.487-.109-.649-.116-.162-.291-.261-.526-.299-.235-.037-.433.004-.593.123-.16.118-.263.313-.306.583-.042.26-.006.474.108.64m-.874-1.518c.173-.22.399-.371.679-.451-.231-.213-.37-.424-.414-.635a1.549 1.549 0 0 1-.028-.576c.06-.385.259-.69.595-.917.334-.225.768-.296 1.3-.212.533.084.923.285 1.171.603.249.318.343.67.281 1.055a1.56 1.56 0 0 1-.204.54c-.109.186-.303.332-.583.438.24.188.406.413.501.675.094.262.118.543.07.84-.07.446-.296.8-.678 1.061-.381.261-.87.344-1.466.251-.595-.094-1.021-.322-1.277-.683a1.586 1.586 0 0 1-.278-1.213c.047-.297.157-.556.33-.776" mask="url(#B)"/>
        </g>
        <g transform="translate(0 .11)">
            <mask id="D" fill="#fff">
                <use xlink:href="#C"/>
            </mask>
            <path fill="#000" d="M149.348 101.982c.1.14.255.227.465.26.214.035.389 0 .525-.104a.66.66 0 0 0 .25-.444c.033-.21.001-.383-.097-.52-.097-.137-.253-.222-.467-.256-.211-.033-.386 0-.523.1-.138.099-.224.254-.257.463-.03.194.003.36.104.5m-.45 2.405c.112.165.289.267.529.304.24.038.439-.004.597-.126.159-.123.26-.314.3-.576.043-.27.008-.487-.109-.649-.116-.162-.291-.261-.526-.299-.235-.037-.433.004-.593.123-.16.118-.263.313-.306.583-.042.26-.006.474.108.64m-.874-1.518c.173-.22.399-.371.679-.452-.231-.212-.37-.423-.414-.634a1.549 1.549 0 0 1-.028-.576c.06-.385.259-.69.595-.917.334-.225.768-.296 1.3-.212.533.084.923.285 1.171.603.249.318.343.67.281 1.055a1.56 1.56 0 0 1-.204.54c-.109.186-.303.332-.583.438.24.188.406.413.501.675.094.262.118.543.07.84-.07.446-.296.8-.678 1.061-.381.261-.87.344-1.466.251-.595-.094-1.021-.322-1.277-.683a1.586 1.586 0 0 1-.278-1.213c.047-.297.157-.556.33-.776" mask="url(#D)"/>
        </g>
        <g transform="translate(0 .11)">
            <mask id="F" fill="#fff">
                <use xlink:href="#E"/>
            </mask>
            <path fill="#000" d="M154.058 104.15l.363-2.285-1.691 2.075 1.328.21zm1.497 1.073l-.602-.095-.182 1.141-1.024-.162.181-1.14-2.106-.333.144-.911 2.468-2.91 1.175.185-.527 3.314.602.095-.13.816z" mask="url(#F)"/>
        </g>
        <g transform="translate(0 .11)">
            <mask id="H" fill="#fff">
                <use xlink:href="#G"/>
            </mask>
            <path fill="#D9C2F0" d="M14.987 188.718c-3.737-2.141-5.025-6.895-2.877-10.619l34.676-60.118 13.53 7.752-34.675 60.118c-2.147 3.724-6.918 5.007-10.654 2.867" mask="url(#H)"/>
        </g>
        <g transform="translate(0 .11)">
            <mask id="J" fill="#fff">
                <use xlink:href="#I"/>
            </mask>
            <path fill="#492191" d="M118.167 93.14c-11.512 19.96-37.08 26.839-57.107 15.366C41.034 97.032 34.13 71.55 45.643 51.592c11.512-19.958 37.08-26.838 57.107-15.364 20.027 11.472 26.929 36.954 15.417 56.913m-9.949-66.394c-25.28-14.483-57.556-5.8-72.088 19.396-13.015 22.566-7.382 50.72 12.1 66.757a4.101 4.101 0 0 0-4.563 1.918 4.075 4.075 0 0 0 1.51 5.574l14.206 8.139a4.105 4.105 0 0 0 5.593-1.505 4.074 4.074 0 0 0-.85-5.104c23.61 8.445 50.615-.899 63.554-23.331 14.532-25.196 5.82-57.361-19.462-71.844" mask="url(#J)"/>
        </g>
        <g>
            <g transform="translate(49.524 54.347)">
                <mask id="L" fill="#fff">
                    <use xlink:href="#K"/>
                </mask>
                <path fill="#FF7900" d="M75.754 184.99l-77.127-10.803c-8.973-1.257-15.224-9.525-13.964-18.468L4.561 14.618C5.822 5.676 14.118-.555 23.091.7l77.128 10.803c8.972 1.257 15.224 9.525 13.963 18.468L94.284 171.074c-1.262 8.942-9.558 15.172-18.53 13.915" mask="url(#L)"/>
            </g>
            <g transform="translate(49.524 54.347)">
                <mask id="N" fill="#fff">
                    <use xlink:href="#M"/>
                </mask>
                <path fill="#000" d="M-20.518 78.41s32.44-2.395 66.02 19.094c34.708 22.21 121.549-17.708 121.549-17.708s-41.828 121.667-46.525 121.424c-4.696-.243-142.782-12.79-142.782-12.79l1.738-110.02z" mask="url(#N)"/>
            </g>
        </g>
        <g>
            <g transform="translate(39.728 30.483)">
                <mask id="P" fill="#fff">
                    <use xlink:href="#O"/>
                </mask>
                <path fill="#FFF" d="M106.866 72.578L25.623 61.2l2.019-14.316 81.243 11.379z" mask="url(#P)"/>
            </g>
            <g transform="translate(39.728 30.483)">
                <mask id="R" fill="#fff">
                    <use xlink:href="#Q"/>
                </mask>
                <path fill="#000" d="M31.813 55.635l-3.257 2.25 2.329-3.105 1.384 3.621-2.531-3.036 4.14.314-3.809-1.75 4.15-.642-4.063-.83 3.209-2.287-2.277 3.17-1.308-3.676 2.43 3.101-4.13-.345 3.808 1.763-4.145.643 4.07.809zm3.54-4.974l-3.642 2.304 3.945 1.746-4.275.592 2.86 3.216-3.171-2.506-.924 4.006.22-4.105-3.743 1.538 3.639-2.306-3.946-1.743 4.276-.594-2.863-3.215 3.179 2.497.92-4.006-.223 4.103 3.747-1.527z" mask="url(#R)"/>
            </g>
            <g transform="translate(39.728 30.483)">
                <mask id="T" fill="#fff">
                    <use xlink:href="#S"/>
                </mask>
                <path fill="#000" d="M32.702 55.759l3.721 1.887-1.182-4.014 2.71 3.142-1.534-3.807 3.409 2.197-3.523-1.934 4.013-.496-3.883 1 2.407-3.135-1.695 3.638-.936-3.888 1.894 3.39-3.827-1.26 2.038 3.068-.656-4.123-2.045 3.65 3.149-1.872-3.192-2.593 3.315 2.34.934-4.01-.15 4.123 3.3-2.44-3.12 2.624 4.023.818-4.07-.401 2.758 3.006-3.113-2.691 1.38 3.872-2.199-3.426 1.53 3.77-2.336-3.35 1.641 3.728-2.677-3.042 1.547-.281 1.019 4.23 2.97-3.53-3.111 2.143 2.137 2.96-2.575-4.389-3.408 3.602 2.589-2.003z" mask="url(#T)"/>
            </g>
            <g transform="translate(39.728 30.483)">
                <mask id="V" fill="#fff">
                    <use xlink:href="#U"/>
                </mask>
                <path fill="#000" d="M44.14 53.372l-2.26 3.252 1.582-3.696.493 3.99-1.283-3.736 3.304 2.231-3.705-1.574 4.012-.461-3.786 1.199 2.229-3.268-1.559 3.712-.475-3.995 1.226 3.765-3.287-2.221 3.719 1.56-3.992.512 3.782-1.27zm-.57 3.51l-2.266 3.255 1.661-3.665.583 3.98L42.27 56.7l3.406 2.052-3.726-1.593 4.025-.507-3.821 1.059 2.232-3.289-1.65 3.671-.57-3.981 1.237 3.774-3.38-2.068 3.729 1.593-4.023.508 3.841-1.037zm-4.58-2.223l3.202 2.477-2.591-2.383 3.25-1.133-3.864 1.15 3.939-1.027-4.027-.549 4.005.598-2.325-3.312 2.372 3.31.951-3.998-.192 4.105 3.196-2.53-3.151 2.545 4.015.525-4.023-.578 3.505 2.066-3.338-2.223 2.76 2.006-3.193 1.55 3.805-1.425-3.782 1.509 4.018.7-4.051-.468 2.264 3.385-2.513-3.246-1.058 4 .118-4.126-3.336 2.363 3.218-2.505-4.023-.717 4.055.437-3.206-2.506z" mask="url(#V)"/>
            </g>
            <g transform="translate(39.728 30.483)">
                <mask id="X" fill="#fff">
                    <use xlink:href="#W"/>
                </mask>
                <path fill="#000" d="M54.189 54.994l-3.922-1.585 2.358 3.388-3.754-1.851 2.727 3.167-3.995-1.156 3.327 2.505-4.12-.555 2.07 3.448-.837-4.113-2.665 3.148 4.146-2.526-2.175-4.09 3.873 1.72-1.14-.24-1.106-4.229-3.144 3.531 3.054-2.157-2.112-3.004 2.65 4.4 3.708-3.523-2.251 3.894z" mask="url(#X)"/>
            </g>
            <g transform="translate(39.728 30.483)">
                <mask id="Z" fill="#fff">
                    <use xlink:href="#Y"/>
                </mask>
                <path fill="#000" d="M55.606 59.807c.288-.482.875-.953 1.76-1.413.769-.4 1.27-.693 1.506-.88.363-.291.572-.636.629-1.035.045-.325-.006-.608-.157-.848-.15-.241-.394-.385-.73-.432-.461-.064-.799.063-1.014.382-.123.185-.224.49-.303.919l-1.472-.207c.117-.649.31-1.16.58-1.534.512-.708 1.284-.992 2.317-.847.816.115 1.433.43 1.852.948.419.518.576 1.148.471 1.89a2.435 2.435 0 0 1-.725 1.443c-.265.262-.678.537-1.24.826l-.668.344c-.418.214-.705.372-.862.473a1.73 1.73 0 0 0-.412.368l3.364.472-.187 1.33-5.278-.74a3.64 3.64 0 0 1 .57-1.46" mask="url(#Z)"/>
            </g>
            <g transform="translate(39.728 30.483)">
                <mask id="ab" fill="#fff">
                    <use xlink:href="#aa"/>
                </mask>
                <path fill="#000" d="M63.686 57.535c.147.2.374.323.68.366.308.043.56-.012.753-.165.194-.153.31-.37.35-.648.042-.304-.008-.553-.153-.748-.144-.195-.371-.314-.68-.357-.306-.043-.557.009-.754.156-.196.147-.316.373-.359.677a.946.946 0 0 0 .163.719m-.59 3.483c.168.236.424.378.772.426.347.05.634-.017.86-.198.226-.18.366-.46.42-.837.054-.393-.004-.704-.176-.936-.171-.23-.427-.37-.767-.417-.34-.048-.625.016-.853.19-.23.176-.371.46-.426.851-.054.378.003.685.17.92m-1.3-2.169c.245-.323.567-.546.97-.67-.339-.299-.544-.6-.615-.903a2.252 2.252 0 0 1-.055-.832c.08-.558.357-1.004.836-1.338.477-.336 1.102-.449 1.873-.34.77.108 1.34.387 1.705.84.368.453.513.96.434 1.517-.036.25-.13.512-.282.785-.152.272-.429.487-.831.647.351.265.598.586.74.962.144.377.185.781.124 1.212-.091.646-.409 1.162-.954 1.548-.544.387-1.247.52-2.109.4-.862-.121-1.482-.44-1.862-.955a2.291 2.291 0 0 1-.432-1.744c.06-.43.213-.807.458-1.129" mask="url(#ab)"/>
            </g>
            <g transform="translate(39.728 30.483)">
                <mask id="ad" fill="#fff">
                    <use xlink:href="#ac"/>
                </mask>
                <path fill="#000" d="M70.542 60.548l.466-3.309-2.39 3.04 1.924.27zm2.188 1.51l-.872-.12-.233 1.651-1.483-.207.233-1.652-3.05-.428.185-1.319L71 55.718l1.702.239-.677 4.799.871.122-.166 1.18z" mask="url(#ad)"/>
            </g>
            <g transform="translate(39.728 30.483)">
                <mask id="af" fill="#fff">
                    <use xlink:href="#ae"/>
                </mask>
                <path fill="#000" d="M79.5 58.167c-.258.191-.63.543-1.115 1.057a10.62 10.62 0 0 0-1.266 1.624 10.564 10.564 0 0 0-.832 1.667c-.272.663-.438 1.216-.5 1.658l-1.574-.22c.241-1.371.896-2.74 1.967-4.106.688-.844 1.244-1.42 1.672-1.732l-3.84-.538.213-1.353 5.442.762-.166 1.181z" mask="url(#af)"/>
            </g>
            <g transform="translate(39.728 30.483)">
                <mask id="ah" fill="#fff">
                    <use xlink:href="#ag"/>
                </mask>
                <path fill="#000" d="M82.826 62.916l2.55-.124.463-2.06 1.806-.188-1.57-.436.134-1.555-.342 1.533-1.022-.4-1.587 1.244 1.553-1.536 1.493-1.96.896 2.08 1.788 1.265-1.948.594-.175 1.962-1.297-1.08.03 1.755-.927.431 3.459-1.028-.632 1.06-4.698.882z" mask="url(#ah)"/>
            </g>
            <g transform="translate(39.728 30.483)">
                <mask id="aj" fill="#fff">
                    <use xlink:href="#ai"/>
                </mask>
                <path fill="#000" d="M91.144 60.896l-.146 1.546.28-1.52 1.56.152-1.53-.298.142-1.541-.295 1.526-1.552-.14 1.54.275zm-.506 3.041l-.073 1.588.37-1.546 1.623-.016-1.55-.459.067-1.595-.376 1.552-1.617.015 1.556.461zM88.25 62.03h2.235l-2.064-.724 1.483-.792-.493-1.909 1.97 1.108 2.199-.524-1.001 1.7 1.207 1.168-2.177.094 2.146.655-1.393 1.22.394 2.088-2.18-1.053-2.356.396 1.024-1.868-.994-1.56z" mask="url(#aj)"/>
            </g>
            <g transform="translate(39.728 30.483)">
                <mask id="al" fill="#fff">
                    <use xlink:href="#ak"/>
                </mask>
                <path fill="#000" d="M96.412 61.635l-.147 1.545.282-1.521 1.559.153-1.53-.298.142-1.54-.295 1.525-1.552-.14 1.54.276zm-.506 3.04l-.072 1.588.368-1.546 1.624-.016-1.55-.46.067-1.594-.376 1.551-1.617.016 1.556.461zm-2.388-1.908h2.235l-2.064-.724 1.482-.792-.491-1.909 1.968 1.108 2.2-.524-1.001 1.699 1.206 1.169-2.176.093 2.146.656-1.392 1.22.393 2.088-2.18-1.054-2.356.397 1.023-1.868-.993-1.56z" mask="url(#al)"/>
            </g>
            <g transform="translate(39.728 30.483)">
                <mask id="an" fill="#fff">
                    <use xlink:href="#am"/>
                </mask>
                <path fill="#000" d="M101.136 64.236l1.128-3.17-1.472 3.717.344-.547zm3.074 2.336l-1.948-1.102.933 2.484-1.146-1.205-.908-.382-1.785-1.658-.896-.912 4.167-2.672 1.765-.56-2.131 4.36 2.176-.367-.227 2.014z" mask="url(#an)"/>
            </g>
        </g>
        <g>
            <g transform="translate(0 .11)">
                <mask id="ap" fill="#fff">
                    <use xlink:href="#ao"/>
                </mask>
                <path fill="#FFF" d="M51.93 55.194l-1.887-1.08c10.1-17.51 32.609-23.566 50.178-13.5l-1.086 1.88c-16.527-9.468-37.703-3.77-47.204 12.7" mask="url(#ap)"/>
            </g>
            <g transform="translate(0 .11)">
                <mask id="ar" fill="#fff">
                    <use xlink:href="#aq"/>
                </mask>
                <path fill="#FFF" d="M56.657 34.202L55.46 32.39c8.634-5.664 19.07-8.441 29.39-7.816l-.132 2.165c-9.852-.594-19.817 2.056-28.061 7.463" mask="url(#ar)"/>
            </g>
            <g transform="translate(0 .11)">
                <mask id="at" fill="#fff">
                    <use xlink:href="#as"/>
                </mask>
                <path fill="#FFF" d="M118.167 93.14c-11.512 19.96-37.08 26.839-57.107 15.366C41.034 97.032 34.13 71.55 45.643 51.592c11.512-19.958 37.08-26.838 57.107-15.364 20.027 11.472 26.929 36.954 15.417 56.913" mask="url(#at)" opacity=".3"/>
            </g>
        </g>
        <g transform="translate(120 11)">
            <circle cx="20" cy="20" r="20" fill="#32C832"/>
            <path fill="#FFF" fill-rule="nonzero" d="M11.76 16.202L8 19.963l9.303 9.303a1 1 0 0 0 1.44-.026l14.505-15.621L29.35 10 17.895 22.337l-6.134-6.135z"/>
        </g>
    </g>
</svg>
