<svg xmlns="http://www.w3.org/2000/svg" xmlns:xlink="http://www.w3.org/1999/xlink" width="160" height="160" viewBox="0 0 160 160">
    <defs>
        <path id="a" d="M0 .326h159.666V159.45H0z"/>
        <path id="c" d="M79.833.325C35.743.325 0 35.947 0 79.888c0 43.94 35.743 79.563 79.833 79.563 44 0 79.685-35.471 79.833-79.286v-.554"/>
        <path id="e" d="M79.833.325C35.743.325 0 35.947 0 79.888c0 43.94 35.743 79.563 79.833 79.563 44 0 79.685-35.471 79.833-79.286v-.554"/>
        <path id="g" d="M79.833.325C35.743.325 0 35.947 0 79.888c0 43.94 35.743 79.563 79.833 79.563 44 0 79.685-35.471 79.833-79.286v-.554"/>
        <path id="i" d="M79.833.325C35.743.325 0 35.947 0 79.888c0 43.94 35.743 79.563 79.833 79.563 44 0 79.685-35.471 79.833-79.286v-.554"/>
        <path id="k" d="M79.833.325C35.743.325 0 35.947 0 79.888c0 43.94 35.743 79.563 79.833 79.563 44 0 79.685-35.471 79.833-79.286v-.554"/>
        <path id="m" d="M79.833.325C35.743.325 0 35.947 0 79.888c0 43.94 35.743 79.563 79.833 79.563 44 0 79.685-35.471 79.833-79.286v-.554"/>
        <path id="o" d="M79.833.325C35.743.325 0 35.947 0 79.888c0 43.94 35.743 79.563 79.833 79.563 44 0 79.685-35.471 79.833-79.286v-.554"/>
        <path id="q" d="M79.833.325C35.743.325 0 35.947 0 79.888c0 43.94 35.743 79.563 79.833 79.563 44 0 79.685-35.471 79.833-79.286v-.554"/>
        <path id="s" d="M79.833.325C35.743.325 0 35.947 0 79.888c0 43.94 35.743 79.563 79.833 79.563 44 0 79.685-35.471 79.833-79.286v-.554"/>
        <path id="u" d="M79.833.325C35.743.325 0 35.947 0 79.888c0 43.94 35.743 79.563 79.833 79.563 44 0 79.685-35.471 79.833-79.286v-.554"/>
        <path id="w" d="M79.833.325C35.743.325 0 35.947 0 79.888c0 43.94 35.743 79.563 79.833 79.563 44 0 79.685-35.471 79.833-79.286v-.554"/>
        <path id="y" d="M79.833.325C35.743.325 0 35.947 0 79.888c0 43.94 35.743 79.563 79.833 79.563 44 0 79.685-35.471 79.833-79.286v-.554"/>
        <path id="A" d="M79.833.325C35.743.325 0 35.947 0 79.888c0 43.94 35.743 79.563 79.833 79.563 44 0 79.685-35.471 79.833-79.286v-.554"/>
        <path id="C" d="M79.833.325C35.743.325 0 35.947 0 79.888c0 43.94 35.743 79.563 79.833 79.563 44 0 79.685-35.471 79.833-79.286v-.554"/>
        <path id="E" d="M79.833.325C35.743.325 0 35.947 0 79.888c0 43.94 35.743 79.563 79.833 79.563 44 0 79.685-35.471 79.833-79.286v-.554"/>
        <path id="G" d="M79.833.325C35.743.325 0 35.947 0 79.888c0 43.94 35.743 79.563 79.833 79.563 44 0 79.685-35.471 79.833-79.286v-.554"/>
        <path id="I" d="M79.833.325C35.743.325 0 35.947 0 79.888c0 43.94 35.743 79.563 79.833 79.563 44 0 79.685-35.471 79.833-79.286v-.554"/>
        <path id="K" d="M79.833.325C35.743.325 0 35.947 0 79.888c0 43.94 35.743 79.563 79.833 79.563 44 0 79.685-35.471 79.833-79.286v-.554"/>
        <path id="M" d="M79.833.325C35.743.325 0 35.947 0 79.888c0 43.94 35.743 79.563 79.833 79.563 44 0 79.685-35.471 79.833-79.286v-.554"/>
        <path id="O" d="M79.833.325C35.743.325 0 35.947 0 79.888c0 43.94 35.743 79.563 79.833 79.563 44 0 79.685-35.471 79.833-79.286v-.554"/>
        <path id="Q" d="M79.833.325C35.743.325 0 35.947 0 79.888c0 43.94 35.743 79.563 79.833 79.563 44 0 79.685-35.471 79.833-79.286v-.554"/>
        <path id="S" d="M79.833.325C35.743.325 0 35.947 0 79.888c0 43.94 35.743 79.563 79.833 79.563 44 0 79.685-35.471 79.833-79.286v-.554"/>
        <path id="U" d="M79.833.325C35.743.325 0 35.947 0 79.888c0 43.94 35.743 79.563 79.833 79.563 44 0 79.685-35.471 79.833-79.286v-.554"/>
        <path id="W" d="M79.833.325C35.743.325 0 35.947 0 79.888c0 43.94 35.743 79.563 79.833 79.563 44 0 79.685-35.471 79.833-79.286v-.554"/>
        <path id="Y" d="M79.833.325C35.743.325 0 35.947 0 79.888c0 43.94 35.743 79.563 79.833 79.563 44 0 79.685-35.471 79.833-79.286v-.554"/>
        <path id="aa" d="M79.833.325C35.743.325 0 35.947 0 79.888c0 43.94 35.743 79.563 79.833 79.563 44 0 79.685-35.471 79.833-79.286v-.554"/>
        <path id="ac" d="M79.833.325C35.743.325 0 35.947 0 79.888c0 43.94 35.743 79.563 79.833 79.563 44 0 79.685-35.471 79.833-79.286v-.554"/>
        <path id="ae" d="M79.833.325C35.743.325 0 35.947 0 79.888c0 43.94 35.743 79.563 79.833 79.563 44 0 79.685-35.471 79.833-79.286v-.554"/>
        <path id="ag" d="M79.833.325C35.743.325 0 35.947 0 79.888c0 43.94 35.743 79.563 79.833 79.563 44 0 79.685-35.471 79.833-79.286v-.554"/>
        <path id="ai" d="M79.833.325C35.743.325 0 35.947 0 79.888c0 43.94 35.743 79.563 79.833 79.563 44 0 79.685-35.471 79.833-79.286v-.554"/>
        <path id="ak" d="M79.833.325C35.743.325 0 35.947 0 79.888c0 43.94 35.743 79.563 79.833 79.563 44 0 79.685-35.471 79.833-79.286v-.554"/>
        <path id="am" d="M79.833.325C35.743.325 0 35.947 0 79.888c0 43.94 35.743 79.563 79.833 79.563 44 0 79.685-35.471 79.833-79.286v-.554"/>
        <path id="ao" d="M79.833.325C35.743.325 0 35.947 0 79.888c0 43.94 35.743 79.563 79.833 79.563 44 0 79.685-35.471 79.833-79.286v-.554"/>
        <path id="aq" d="M79.833.325C35.743.325 0 35.947 0 79.888c0 43.94 35.743 79.563 79.833 79.563 44 0 79.685-35.471 79.833-79.286v-.554"/>
        <path id="as" d="M79.833.325C35.743.325 0 35.947 0 79.888c0 43.94 35.743 79.563 79.833 79.563 44 0 79.685-35.471 79.833-79.286v-.554"/>
        <path id="au" d="M79.833.325C35.743.325 0 35.947 0 79.888c0 43.94 35.743 79.563 79.833 79.563 44 0 79.685-35.471 79.833-79.286v-.554"/>
        <path id="aw" d="M79.833.325C35.743.325 0 35.947 0 79.888c0 43.94 35.743 79.563 79.833 79.563 44 0 79.685-35.471 79.833-79.286v-.554"/>
        <path id="ay" d="M79.833.325C35.743.325 0 35.947 0 79.888c0 43.94 35.743 79.563 79.833 79.563 44 0 79.685-35.471 79.833-79.286v-.554"/>
        <path id="aA" d="M79.833.325C35.743.325 0 35.947 0 79.888c0 43.94 35.743 79.563 79.833 79.563 44 0 79.685-35.471 79.833-79.286v-.554"/>
        <path id="aC" d="M79.833.325C35.743.325 0 35.947 0 79.888c0 43.94 35.743 79.563 79.833 79.563 44 0 79.685-35.471 79.833-79.286v-.554"/>
        <path id="aE" d="M79.833.325C35.743.325 0 35.947 0 79.888c0 43.94 35.743 79.563 79.833 79.563 44 0 79.685-35.471 79.833-79.286v-.554"/>
        <path id="aG" d="M79.833.325C35.743.325 0 35.947 0 79.888c0 43.94 35.743 79.563 79.833 79.563 44 0 79.685-35.471 79.833-79.286v-.554"/>
        <path id="aI" d="M79.833.325C35.743.325 0 35.947 0 79.888c0 43.94 35.743 79.563 79.833 79.563 44 0 79.685-35.471 79.833-79.286v-.554"/>
        <path id="aK" d="M79.833.325C35.743.325 0 35.947 0 79.888c0 43.94 35.743 79.563 79.833 79.563 44 0 79.685-35.471 79.833-79.286v-.554"/>
        <path id="aM" d="M79.833.325C35.743.325 0 35.947 0 79.888c0 43.94 35.743 79.563 79.833 79.563 44 0 79.685-35.471 79.833-79.286v-.554"/>
        <path id="aO" d="M79.833.325C35.743.325 0 35.947 0 79.888c0 43.94 35.743 79.563 79.833 79.563 44 0 79.685-35.471 79.833-79.286v-.554"/>
        <path id="aQ" d="M79.833.325C35.743.325 0 35.947 0 79.888c0 43.94 35.743 79.563 79.833 79.563 44 0 79.685-35.471 79.833-79.286v-.554"/>
        <path id="aS" d="M79.833.325C35.743.325 0 35.947 0 79.888c0 43.94 35.743 79.563 79.833 79.563 44 0 79.685-35.471 79.833-79.286v-.554"/>
        <path id="aU" d="M79.833.325C35.743.325 0 35.947 0 79.888c0 43.94 35.743 79.563 79.833 79.563 44 0 79.685-35.471 79.833-79.286v-.554"/>
        <path id="aW" d="M79.833.325C35.743.325 0 35.947 0 79.888c0 43.94 35.743 79.563 79.833 79.563 44 0 79.685-35.471 79.833-79.286v-.554"/>
        <path id="aY" d="M79.833.325C35.743.325 0 35.947 0 79.888c0 43.94 35.743 79.563 79.833 79.563 44 0 79.685-35.471 79.833-79.286v-.554"/>
        <path id="ba" d="M79.833.325C35.743.325 0 35.947 0 79.888c0 43.94 35.743 79.563 79.833 79.563 44 0 79.685-35.471 79.833-79.286v-.554"/>
        <path id="bc" d="M79.833.325C35.743.325 0 35.947 0 79.888c0 43.94 35.743 79.563 79.833 79.563 44 0 79.685-35.471 79.833-79.286v-.554"/>
        <path id="be" d="M79.833.325C35.743.325 0 35.947 0 79.888c0 43.94 35.743 79.563 79.833 79.563 44 0 79.685-35.471 79.833-79.286v-.554"/>
        <path id="bg" d="M79.833.325C35.743.325 0 35.947 0 79.888c0 43.94 35.743 79.563 79.833 79.563 44 0 79.685-35.471 79.833-79.286v-.554"/>
        <path id="bi" d="M79.833.325C35.743.325 0 35.947 0 79.888c0 43.94 35.743 79.563 79.833 79.563 44 0 79.685-35.471 79.833-79.286v-.554"/>
        <path id="bk" d="M79.833.325C35.743.325 0 35.947 0 79.888c0 43.94 35.743 79.563 79.833 79.563 44 0 79.685-35.471 79.833-79.286v-.554"/>
        <path id="bm" d="M79.833.325C35.743.325 0 35.947 0 79.888c0 43.94 35.743 79.563 79.833 79.563 44 0 79.685-35.471 79.833-79.286v-.554"/>
        <path id="bo" d="M79.833.325C35.743.325 0 35.947 0 79.888c0 43.94 35.743 79.563 79.833 79.563 44 0 79.685-35.471 79.833-79.286v-.554"/>
        <path id="bq" d="M79.833.325C35.743.325 0 35.947 0 79.888c0 43.94 35.743 79.563 79.833 79.563 44 0 79.685-35.471 79.833-79.286v-.554"/>
        <path id="bs" d="M79.833.325C35.743.325 0 35.947 0 79.888c0 43.94 35.743 79.563 79.833 79.563 44 0 79.685-35.471 79.833-79.286v-.554"/>
        <path id="bu" d="M79.833.325C35.743.325 0 35.947 0 79.888c0 43.94 35.743 79.563 79.833 79.563 44 0 79.685-35.471 79.833-79.286v-.554"/>
        <path id="bw" d="M79.833.325C35.743.325 0 35.947 0 79.888c0 43.94 35.743 79.563 79.833 79.563 44 0 79.685-35.471 79.833-79.286v-.554"/>
        <path id="by" d="M79.833.325C35.743.325 0 35.947 0 79.888c0 43.94 35.743 79.563 79.833 79.563 44 0 79.685-35.471 79.833-79.286v-.554"/>
        <path id="bA" d="M0 .326h159.666V159.45H0z"/>
        <path id="bC" d="M79.833.325C35.743.325 0 35.947 0 79.888c0 43.94 35.743 79.563 79.833 79.563 44 0 79.685-35.471 79.833-79.286v-.554"/>
        <path id="bE" d="M79.833.325C35.743.325 0 35.947 0 79.888c0 43.94 35.743 79.563 79.833 79.563 44 0 79.685-35.471 79.833-79.286v-.554"/>
        <path id="bG" d="M79.833.325C35.743.325 0 35.947 0 79.888c0 43.94 35.743 79.563 79.833 79.563 44 0 79.685-35.471 79.833-79.286v-.554"/>
        <path id="bI" d="M79.833.325C35.743.325 0 35.947 0 79.888c0 43.94 35.743 79.563 79.833 79.563 44 0 79.685-35.471 79.833-79.286v-.554"/>
        <path id="bK" d="M79.833.325C35.743.325 0 35.947 0 79.888c0 43.94 35.743 79.563 79.833 79.563 44 0 79.685-35.471 79.833-79.286v-.554"/>
        <path id="bM" d="M79.833.325C35.743.325 0 35.947 0 79.888c0 43.94 35.743 79.563 79.833 79.563 44 0 79.685-35.471 79.833-79.286v-.554"/>
        <path id="bO" d="M79.833.325C35.743.325 0 35.947 0 79.888c0 43.94 35.743 79.563 79.833 79.563 44 0 79.685-35.471 79.833-79.286v-.554"/>
        <path id="bQ" d="M79.833.325C35.743.325 0 35.947 0 79.888c0 43.94 35.743 79.563 79.833 79.563 44 0 79.685-35.471 79.833-79.286v-.554"/>
        <path id="bS" d="M79.833.325C35.743.325 0 35.947 0 79.888c0 43.94 35.743 79.563 79.833 79.563 44 0 79.685-35.471 79.833-79.286v-.554"/>
        <path id="bU" d="M79.833.325C35.743.325 0 35.947 0 79.888c0 43.94 35.743 79.563 79.833 79.563 44 0 79.685-35.471 79.833-79.286v-.554"/>
        <path id="bW" d="M79.833.325C35.743.325 0 35.947 0 79.888c0 43.94 35.743 79.563 79.833 79.563 44 0 79.685-35.471 79.833-79.286v-.554"/>
        <path id="bY" d="M79.833.325C35.743.325 0 35.947 0 79.888c0 43.94 35.743 79.563 79.833 79.563 44 0 79.685-35.471 79.833-79.286v-.554"/>
        <path id="ca" d="M79.833.325C35.743.325 0 35.947 0 79.888c0 43.94 35.743 79.563 79.833 79.563 44 0 79.685-35.471 79.833-79.286v-.554"/>
        <path id="cc" d="M79.833.325C35.743.325 0 35.947 0 79.888c0 43.94 35.743 79.563 79.833 79.563 44 0 79.685-35.471 79.833-79.286v-.554C159.518 35.796 123.832.325 79.833.325z"/>
        <path id="ce" d="M79.833.325C35.743.325 0 35.947 0 79.888c0 43.94 35.743 79.563 79.833 79.563 44 0 79.685-35.471 79.833-79.286v-.554"/>
        <path id="cg" d="M79.833.325C35.743.325 0 35.947 0 79.888c0 43.94 35.743 79.563 79.833 79.563 44 0 79.685-35.471 79.833-79.286v-.554"/>
        <path id="ci" d="M79.833.325C35.743.325 0 35.947 0 79.888c0 43.94 35.743 79.563 79.833 79.563 44 0 79.685-35.471 79.833-79.286v-.554C159.518 35.796 123.832.325 79.833.325z"/>
        <path id="ck" d="M79.833.325C35.743.325 0 35.947 0 79.888c0 43.94 35.743 79.563 79.833 79.563 44 0 79.685-35.471 79.833-79.286v-.554C159.518 35.796 123.832.325 79.833.325z"/>
        <path id="cm" d="M79.833.325C35.743.325 0 35.947 0 79.888c0 43.94 35.743 79.563 79.833 79.563 44 0 79.685-35.471 79.833-79.286v-.554C159.518 35.796 123.832.325 79.833.325z"/>
        <path id="co" d="M79.833.325C35.743.325 0 35.947 0 79.888c0 43.94 35.743 79.563 79.833 79.563 44 0 79.685-35.471 79.833-79.286v-.554C159.518 35.796 123.832.325 79.833.325z"/>
        <path id="cq" d="M79.833.325C35.743.325 0 35.947 0 79.888c0 43.94 35.743 79.563 79.833 79.563 44 0 79.685-35.471 79.833-79.286v-.554C159.518 35.796 123.832.325 79.833.325z"/>
        <path id="cs" d="M79.833.325C35.743.325 0 35.947 0 79.888c0 43.94 35.743 79.563 79.833 79.563 44 0 79.685-35.471 79.833-79.286v-.554C159.518 35.796 123.832.325 79.833.325z"/>
        <path id="cu" d="M79.833.325C35.743.325 0 35.947 0 79.888c0 43.94 35.743 79.563 79.833 79.563 44 0 79.685-35.471 79.833-79.286v-.554C159.518 35.796 123.832.325 79.833.325z"/>
        <path id="cw" d="M79.833.325C35.743.325 0 35.947 0 79.888c0 43.94 35.743 79.563 79.833 79.563 44 0 79.685-35.471 79.833-79.286v-.554"/>
        <path id="cy" d="M79.833.325C35.743.325 0 35.947 0 79.888c0 43.94 35.743 79.563 79.833 79.563 44 0 79.685-35.471 79.833-79.286v-.554"/>
        <path id="cA" d="M79.833.325C35.743.325 0 35.947 0 79.888c0 43.94 35.743 79.563 79.833 79.563 44 0 79.685-35.471 79.833-79.286v-.554"/>
        <path id="cC" d="M79.833.325C35.743.325 0 35.947 0 79.888c0 43.94 35.743 79.563 79.833 79.563 44 0 79.685-35.471 79.833-79.286v-.554"/>
        <path id="cE" d="M79.833.325C35.743.325 0 35.947 0 79.888c0 43.94 35.743 79.563 79.833 79.563 44 0 79.685-35.471 79.833-79.286v-.554"/>
        <path id="cG" d="M79.833.325C35.743.325 0 35.947 0 79.888c0 43.94 35.743 79.563 79.833 79.563 44 0 79.685-35.471 79.833-79.286v-.554"/>
        <path id="cI" d="M79.833.325C35.743.325 0 35.947 0 79.888c0 43.94 35.743 79.563 79.833 79.563 44 0 79.685-35.471 79.833-79.286v-.554"/>
        <path id="cK" d="M79.833.325C35.743.325 0 35.947 0 79.888c0 43.94 35.743 79.563 79.833 79.563 44 0 79.685-35.471 79.833-79.286v-.554"/>
        <path id="cM" d="M79.833.325C35.743.325 0 35.947 0 79.888c0 43.94 35.743 79.563 79.833 79.563 44 0 79.685-35.471 79.833-79.286v-.554"/>
        <path id="cO" d="M79.833.325C35.743.325 0 35.947 0 79.888c0 43.94 35.743 79.563 79.833 79.563 44 0 79.685-35.471 79.833-79.286v-.554"/>
        <path id="cQ" d="M79.833.325C35.743.325 0 35.947 0 79.888c0 43.94 35.743 79.563 79.833 79.563 44 0 79.685-35.471 79.833-79.286v-.554"/>
        <path id="cS" d="M79.833.325C35.743.325 0 35.947 0 79.888c0 43.94 35.743 79.563 79.833 79.563 44 0 79.685-35.471 79.833-79.286v-.554"/>
        <path id="cU" d="M79.833.325C35.743.325 0 35.947 0 79.888c0 43.94 35.743 79.563 79.833 79.563 44 0 79.685-35.471 79.833-79.286v-.554"/>
        <path id="cW" d="M79.833.325C35.743.325 0 35.947 0 79.888c0 43.94 35.743 79.563 79.833 79.563 44 0 79.685-35.471 79.833-79.286v-.554"/>
        <path id="cY" d="M79.833.325C35.743.325 0 35.947 0 79.888c0 43.94 35.743 79.563 79.833 79.563 44 0 79.685-35.471 79.833-79.286v-.554"/>
        <path id="da" d="M79.833.325C35.743.325 0 35.947 0 79.888c0 43.94 35.743 79.563 79.833 79.563 44 0 79.685-35.471 79.833-79.286v-.554"/>
        <path id="dc" d="M79.833.325C35.743.325 0 35.947 0 79.888c0 43.94 35.743 79.563 79.833 79.563 44 0 79.685-35.471 79.833-79.286v-.554"/>
        <path id="de" d="M79.833.325C35.743.325 0 35.947 0 79.888c0 43.94 35.743 79.563 79.833 79.563 44 0 79.685-35.471 79.833-79.286v-.554"/>
        <path id="dg" d="M79.833.325C35.743.325 0 35.947 0 79.888c0 43.94 35.743 79.563 79.833 79.563 44 0 79.685-35.471 79.833-79.286v-.554"/>
        <path id="di" d="M79.833.325C35.743.325 0 35.947 0 79.888c0 43.94 35.743 79.563 79.833 79.563 44 0 79.685-35.471 79.833-79.286v-.554"/>
        <path id="dk" d="M79.833.325C35.743.325 0 35.947 0 79.888c0 43.94 35.743 79.563 79.833 79.563 44 0 79.685-35.471 79.833-79.286v-.554"/>
        <path id="dm" d="M79.833.325C35.743.325 0 35.947 0 79.888c0 43.94 35.743 79.563 79.833 79.563 44 0 79.685-35.471 79.833-79.286v-.554"/>
        <path id="do" d="M79.833.325C35.743.325 0 35.947 0 79.888c0 43.94 35.743 79.563 79.833 79.563 44 0 79.685-35.471 79.833-79.286v-.554"/>
        <path id="dq" d="M79.833.325C35.743.325 0 35.947 0 79.888c0 43.94 35.743 79.563 79.833 79.563 44 0 79.685-35.471 79.833-79.286v-.554"/>
        <path id="ds" d="M79.833.325C35.743.325 0 35.947 0 79.888c0 43.94 35.743 79.563 79.833 79.563 44 0 79.685-35.471 79.833-79.286v-.554"/>
        <path id="du" d="M79.833.325C35.743.325 0 35.947 0 79.888c0 43.94 35.743 79.563 79.833 79.563 44 0 79.685-35.471 79.833-79.286v-.554"/>
        <path id="dw" d="M79.833.325C35.743.325 0 35.947 0 79.888c0 43.94 35.743 79.563 79.833 79.563 44 0 79.685-35.471 79.833-79.286v-.554"/>
        <path id="dy" d="M79.833.325C35.743.325 0 35.947 0 79.888c0 43.94 35.743 79.563 79.833 79.563 44 0 79.685-35.471 79.833-79.286v-.554"/>
        <path id="dA" d="M79.833.325C35.743.325 0 35.947 0 79.888c0 43.94 35.743 79.563 79.833 79.563 44 0 79.685-35.471 79.833-79.286v-.554"/>
        <path id="dC" d="M79.833.325C35.743.325 0 35.947 0 79.888c0 43.94 35.743 79.563 79.833 79.563 44 0 79.685-35.471 79.833-79.286v-.554"/>
        <path id="dE" d="M79.833.325C35.743.325 0 35.947 0 79.888c0 43.94 35.743 79.563 79.833 79.563 44 0 79.685-35.471 79.833-79.286v-.554"/>
        <path id="dG" d="M79.833.325C35.743.325 0 35.947 0 79.888c0 43.94 35.743 79.563 79.833 79.563 44 0 79.685-35.471 79.833-79.286v-.554"/>
        <path id="dI" d="M79.833.325C35.743.325 0 35.947 0 79.888c0 43.94 35.743 79.563 79.833 79.563 44 0 79.685-35.471 79.833-79.286v-.554"/>
        <path id="dK" d="M79.833.325C35.743.325 0 35.947 0 79.888c0 43.94 35.743 79.563 79.833 79.563 44 0 79.685-35.471 79.833-79.286v-.554"/>
        <path id="dM" d="M79.833.325C35.743.325 0 35.947 0 79.888c0 43.94 35.743 79.563 79.833 79.563 44 0 79.685-35.471 79.833-79.286v-.554"/>
        <path id="dO" d="M79.833.325C35.743.325 0 35.947 0 79.888c0 43.94 35.743 79.563 79.833 79.563 44 0 79.685-35.471 79.833-79.286v-.554"/>
        <path id="dQ" d="M79.833.325C35.743.325 0 35.947 0 79.888c0 43.94 35.743 79.563 79.833 79.563 44 0 79.685-35.471 79.833-79.286v-.554C159.518 35.796 123.832.325 79.833.325z"/>
        <path id="dS" d="M79.833.325C35.743.325 0 35.947 0 79.888c0 43.94 35.743 79.563 79.833 79.563 44 0 79.685-35.471 79.833-79.286v-.554"/>
        <path id="dU" d="M79.833.325C35.743.325 0 35.947 0 79.888c0 43.94 35.743 79.563 79.833 79.563 44 0 79.685-35.471 79.833-79.286v-.554"/>
        <path id="dW" d="M79.833.325C35.743.325 0 35.947 0 79.888c0 43.94 35.743 79.563 79.833 79.563 44 0 79.685-35.471 79.833-79.286v-.554"/>
        <path id="dY" d="M79.833.325C35.743.325 0 35.947 0 79.888c0 43.94 35.743 79.563 79.833 79.563 44 0 79.685-35.471 79.833-79.286v-.554"/>
        <path id="ea" d="M79.833.325C35.743.325 0 35.947 0 79.888c0 43.94 35.743 79.563 79.833 79.563 44 0 79.685-35.471 79.833-79.286v-.554"/>
        <path id="ec" d="M79.833.325C35.743.325 0 35.947 0 79.888c0 43.94 35.743 79.563 79.833 79.563 44 0 79.685-35.471 79.833-79.286v-.554"/>
        <path id="ee" d="M79.833.325C35.743.325 0 35.947 0 79.888c0 43.94 35.743 79.563 79.833 79.563 44 0 79.685-35.471 79.833-79.286v-.554"/>
        <path id="eg" d="M79.833.325C35.743.325 0 35.947 0 79.888c0 43.94 35.743 79.563 79.833 79.563 44 0 79.685-35.471 79.833-79.286v-.554"/>
        <path id="ei" d="M79.833.325C35.743.325 0 35.947 0 79.888c0 43.94 35.743 79.563 79.833 79.563 44 0 79.685-35.471 79.833-79.286v-.554"/>
        <path id="ek" d="M79.833.325C35.743.325 0 35.947 0 79.888c0 43.94 35.743 79.563 79.833 79.563 44 0 79.685-35.471 79.833-79.286v-.554"/>
        <path id="em" d="M79.833.325C35.743.325 0 35.947 0 79.888c0 43.94 35.743 79.563 79.833 79.563 44 0 79.685-35.471 79.833-79.286v-.554"/>
        <path id="eo" d="M79.833.325C35.743.325 0 35.947 0 79.888c0 43.94 35.743 79.563 79.833 79.563 44 0 79.685-35.471 79.833-79.286v-.554"/>
        <path id="eq" d="M79.833.325C35.743.325 0 35.947 0 79.888c0 43.94 35.743 79.563 79.833 79.563 44 0 79.685-35.471 79.833-79.286v-.554"/>
        <path id="es" d="M79.833.325C35.743.325 0 35.947 0 79.888c0 43.94 35.743 79.563 79.833 79.563 44 0 79.685-35.471 79.833-79.286v-.554"/>
        <path id="eu" d="M79.833.325C35.743.325 0 35.947 0 79.888c0 43.94 35.743 79.563 79.833 79.563 44 0 79.685-35.471 79.833-79.286v-.554"/>
        <path id="ew" d="M79.833.325C35.743.325 0 35.947 0 79.888c0 43.94 35.743 79.563 79.833 79.563 44 0 79.685-35.471 79.833-79.286v-.554"/>
        <path id="ey" d="M79.833.325C35.743.325 0 35.947 0 79.888c0 43.94 35.743 79.563 79.833 79.563 44 0 79.685-35.471 79.833-79.286v-.554"/>
    </defs>
    <g fill="none" fill-rule="evenodd">
        <g transform="translate(0 .216)">
            <mask id="b" fill="#fff">
                <use xlink:href="#a"/>
            </mask>
            <path fill="#50BE87" d="M79.833.326c44.09 0 79.833 35.621 79.833 79.562 0 43.94-35.742 79.562-79.833 79.562S0 123.83 0 79.888C0 35.947 35.742.326 79.833.326" mask="url(#b)"/>
        </g>
        <g transform="translate(0 .216)">
            <mask id="d" fill="#fff">
                <use xlink:href="#c"/>
            </mask>
            <path fill="#725048" d="M110.163 85.315c-3.815-.945-8.925-.047-12.093-1.914-9.965-5.924-19.606-12.309-28.53-19.224-1.481 3.088-3.286 6.637-4.835 9.333-1.804 3.548-4.001 7.166-6.198 10.783-1.226 2.236-.418 4.517-1.643 6.752-1.55 2.697-4.163 3.964-5.32 6.59-.832 2.166-2.058 4.402-2.035 6.822-.047 2.027-.093 4.056-.602 5.76-1.203 4.655-2.475 8.918-5.852 12.743-2.404 2.443-4.14 6.383-5.62 9.471-2.452 4.47-6.869 9.286-2.245 12.513 7.006 5.232 16.37 10.05 24.532 12.654 6.058 2.168 12.093 1.915 15.054-4.26 2.313-5.254 2.129-10.877 6.615-15.3 3.77-3.895 9.597-5.323 13.366-9.217 5.528-5.415 9.853-13.042 13.067-20.07 2.961-6.176 7.032-12.95 6.177-20.07.37-2.49-2.196-3.25-3.838-3.366" mask="url(#d)"/>
        </g>
        <g transform="translate(0 .216)">
            <mask id="f" fill="#fff">
                <use xlink:href="#e"/>
            </mask>
            <path fill="#725048" d="M120.686 73.771c.855.254 2.104.438 3.028 1.084.463.322-7.655 16.291-11.817 13.387-5.156-3.941 3.54-14.356 8.789-14.47" mask="url(#f)"/>
        </g>
        <g transform="translate(0 .216)">
            <mask id="h" fill="#fff">
                <use xlink:href="#g"/>
            </mask>
            <path fill="#725048" d="M110.86 61.763c-1.04.991-4.625 3.64-6.012 2.673-2.243-1.222 3.423-5.853 4.463-6.843 1.69-1.913 3.446-3.434 5.134-5.347 1.042-.99 1.943-2.765.88-4.193-1.063-1.43-2.82.091-3.931.69-5.412 3.779-10.684 8.341-15.563 12.834-2.799 2.512-5.666 4.631-8.534 6.751-1.757 1.52-3.77 3.894-6.267 3.525-1.711-.508-4.092-2.513-5.248.114-.58 1.314-1.019 3.411-1.065 5.438l-.348 4.91c-.37 2.488.046 4.838.462 7.19.485 2.741-.487 10.991-.487 10.991 1.479 3.78 1.317 7.444 5.78 7.468 3.676.161 8.324-1.06 11.516-3.64 1.757-1.52 1.942-2.765 4.44-2.396 2.103.438 3.952 1.729 5.919 1.383 1.571-.276 2.66-3.295 3.63-4.677 1.874-3.157 4.14-6.383 5.482-10.254.833-2.166 2.058-4.401 2.498-6.498.44-2.097 1.272-4.263 1.25-6.683-.023-2.42-1.942-4.102-1.965-6.522-.023-2.42 2.128-4.01 2.036-6.82-.138-.784-.347-1.96-1.202-2.213-1.573.276-2.151 1.59-2.868 2.12" mask="url(#h)"/>
        </g>
        <g transform="translate(0 .216)">
            <mask id="j" fill="#fff">
                <use xlink:href="#i"/>
            </mask>
            <path fill="#725048" d="M110.054 38.88c-.647.922-1.295 1.843-1.62 2.304-.9 1.775-1.133 5.047-3.422 5.853-2.29.806-3.907-3.757-4.578-5.255-1.086-3.848 2.43-6.89 5.297-9.01 3.26-2.188 6.544-1.957 8.416 1.753-1.11.6-2.798 2.512-4.093 4.355" mask="url(#j)"/>
        </g>
        <g transform="translate(0 .216)">
            <mask id="l" fill="#fff">
                <use xlink:href="#k"/>
            </mask>
            <path fill="#725048" d="M112.502 61.879l-.902 1.774c.07.392 1.363 5.416 1.756 5.347 2.614-1.267 5.204-4.954 3.863-7.95-.601-1.106-3.19-4.287-4.879-2.374-.647.921.81 2.281.162 3.203" mask="url(#l)"/>
        </g>
        <g transform="translate(0 .216)">
            <mask id="n" fill="#fff">
                <use xlink:href="#m"/>
            </mask>
            <path fill="#8F8F8F" d="M101.016 19.867c-3.098-1.475-6.243-.923-10.174-.232l-12.973 2.28-11.4 2.003c-3.145.553-9.041 1.589-11.446 4.031-2.081 1.982-2.96 6.176-2.799 9.38.254 6.014 2.149 12.144 3.188 18.02l3.882 21.94L62.552 95.7l2.287 12.929c.624 3.526.6 7.973 4.16 9.77 2.243 1.223 5.527 1.454 8.279.97 4-.299 7.861-1.381 11.793-2.072 4.717-.83 9.04-1.589 13.689-2.81 3.862-1.082 9.18-.805 12.44-2.994 4.047-2.326 4.464-6.843 3.632-11.545-2.795-18.09-6.839-36.365-9.172-54.133-.508-5.162-2.195-10.117-3.096-15.21-.763-4.309-1.132-8.687-5.548-10.74" mask="url(#n)"/>
        </g>
        <g transform="translate(0 .216)">
            <mask id="p" fill="#fff">
                <use xlink:href="#o"/>
            </mask>
            <path fill="#595959" d="M63.256 24.079c-.787.138-1.642-.116-3.215.16-.786.139-1.11.6-1.503.669.07.391.139.783.602 1.106.462.323 1.641.116 2.034.046.786-.138 1.18-.207 1.504-.668.785-.138.323-.46.578-1.313" mask="url(#p)"/>
        </g>
        <g transform="translate(0 .216)">
            <mask id="r" fill="#fff">
                <use xlink:href="#q"/>
            </mask>
            <path fill="#242B37" d="M59.648 24.309c-.786.138-1.434 1.06-.185 1.244 1.642.116 2.289-.806 1.758-1.52l-1.573.276" mask="url(#r)"/>
        </g>
        <g transform="translate(0 .216)">
            <mask id="t" fill="#fff">
                <use xlink:href="#s"/>
            </mask>
            <path fill="#8F8F8F" d="M62.793 23.756l-.717.53-.393.069-.786.138-.787.139.07.391-.07-.391-.392.068.392-.068.787-.139.786-.138.393-.069.717-.53s-.462-.323-.855-.253l-.787.138-.786.138-.786.138c-.393.07-.324.46-.717.53 0 0-.393.07-.324.461l.07.392.07.391.461.323s.393-.069.463.323l.392-.07-.069-.391.07.391 1.179-.206c.786-.139 1.179-.208 1.503-.668.393-.07.324-.461.324-.461l.324-.461c-.07-.392-.07-.392-.532-.715" mask="url(#t)"/>
        </g>
        <g transform="translate(0 .216)">
            <mask id="v" fill="#fff">
                <use xlink:href="#u"/>
            </mask>
            <path fill="#000" d="M94.865 21.756l-34.986 6.148c-8.255 1.45-6.06 11.567-5.899 14.77l8.526 48.188 3.604 20.372c1.525 8.619 6.058 9.034 11.56 8.067l29.877-5.25c12.579-2.21 11.955-5.736 10.638-13.18l-5.268-29.774a1111204.056 1111204.056 0 0 0-6.585-37.218c-.185-5.623-1.64-13.85-11.467-12.123" mask="url(#v)"/>
        </g>
        <g transform="translate(0 .216)">
            <mask id="x" fill="#fff">
                <use xlink:href="#w"/>
            </mask>
            <path fill="#8F8F8F" d="M86.17 25.304l-3.931.69-7.862 1.382c-.786.138-7.145.852-4.44 2.396.856.253 2.035.046 2.82-.092l6.684-1.174 7.076-1.244c2.751-.483 1.618-2.304-.347-1.958" mask="url(#x)"/>
        </g>
        <g transform="translate(0 .216)">
            <mask id="z" fill="#fff">
                <use xlink:href="#y"/>
            </mask>
            <path fill="#000" d="M77.95 107.134c-2.683.875-4.717.828-7.608.529l-2.566-.762c-.948 3.803.67 8.366 3.906 10.625 2.775 1.936 6.706 1.245 9.388.37 3.076-.944 6.614-1.566 6.776-5.23.047-2.028.74-4.978.324-7.329l-10.22 1.797" mask="url(#z)"/>
        </g>
        <g transform="translate(0 .216)">
            <mask id="B" fill="#fff">
                <use xlink:href="#A"/>
            </mask>
            <path fill="#FFF" d="M115.064 96.976l-1.733-9.794-2.98-16.846-1.179-6.66-4.644-26.248-.762-4.31c-.902-5.093-4.185-5.324-7.33-4.771l-9.434 1.658c-5.504.967-11.4 2.003-16.973 2.578l-7.469 1.313c-2.359.414-7.076 1.243-6.244 5.945l5.13 28.99 1.663 9.402 3.535 19.981 1.04 5.876c.346 1.96.716 6.338 8.647 5.348 3.144-.553 30.731-4.997 33.483-5.48 6.22-1.497 5.388-6.199 5.25-6.982" mask="url(#B)"/>
        </g>
        <g transform="translate(0 .216)">
            <mask id="D" fill="#fff">
                <use xlink:href="#C"/>
            </mask>
            <path fill="#9FA8BE" d="M86.622 101.166c.07.392 0 0 0 0" mask="url(#D)"/>
        </g>
        <g transform="translate(0 .216)">
            <mask id="F" fill="#fff">
                <use xlink:href="#E"/>
            </mask>
            <path fill="#2B3445" d="M64.567 72.726c.393-.069.393-.069 0 0 .393-.069.393-.069 0 0" mask="url(#F)"/>
        </g>
        <g transform="translate(0 .216)">
            <mask id="H" fill="#fff">
                <use xlink:href="#G"/>
            </mask>
            <path fill="#725048" d="M61.333 49.866c-1.273 4.263-4.256 8.019-7.31 11.382-2.404 2.443-5.989 5.093-7.538 7.789-.394 6.936-3.216 13.895-7.426 19.886-.254.853-.508 1.705-.37 2.489l.07.391c.53 7.582.668 15.233 1.592 22.746.832 4.701 1.015 10.324-1.898 14.472 3.562-5.07 9.643-7.35 14.269-10.99 1.757-1.521 3.052-3.364 5.272-4.562 1.11-.6 3.006-1.337 3.584-2.65 2.336-2.835.44-8.965-.114-12.1-.576-5.553.025-11.314-.945-16.798-.762-4.31-.531-7.582 1.666-11.2.324-.46.717-.53 1.041-.991.323-.46.717-.53 1.04-.99 1.296-1.844 2.128-4.01 2.106-6.43.486-4.124-.369-11.246-5.04-12.444" mask="url(#H)"/>
        </g>
        <g transform="translate(0 .216)">
            <mask id="J" fill="#fff">
                <use xlink:href="#I"/>
            </mask>
            <path fill="#725048" d="M102.978 46.99c-.209-1.174-.417-2.35-.231-3.594 3.676.162 15.63 1.292 12.74 7.86-2.706 5.323-11.493-.808-12.51-4.265" mask="url(#J)"/>
        </g>
        <g transform="translate(0 .216)">
            <mask id="L" fill="#fff">
                <use xlink:href="#K"/>
            </mask>
            <path fill="#725048" d="M104.872 59.988c-.208-1.175-.417-2.35-.231-3.595 3.677.162 15.63 1.293 12.74 7.86-2.706 5.323-11.493-.808-12.51-4.265" mask="url(#L)"/>
        </g>
        <g transform="translate(0 .216)">
            <mask id="N" fill="#fff">
                <use xlink:href="#M"/>
            </mask>
            <path fill="#714E46" d="M63.228 55.996c-.186 1.244-1.226 2.235-2.336 2.834-1.11.599-2.428.023-3.353-.623-.462-.323-1.18.207-.717.53.995 1.037 2.705 1.544 4.278 1.268 1.503-.668 2.475-2.05 2.983-3.756.255-.852-.994-1.037-.855-.253" mask="url(#N)"/>
        </g>
        <g transform="translate(0 .216)">
            <mask id="P" fill="#fff">
                <use xlink:href="#O"/>
            </mask>
            <path fill="#714E46" d="M108.48 46.024c-1.156 2.626-4.138-.485-5.132-1.522-.463-.322-1.18.208-.717.53.994 1.037 1.988 2.074 3.306 2.65.463.323 1.318.577 2.034.047.787-.138 1.042-.991 1.365-1.451.324-.461-.531-.715-.855-.254" mask="url(#P)"/>
        </g>
        <g transform="translate(0 .216)">
            <mask id="R" fill="#fff">
                <use xlink:href="#Q"/>
            </mask>
            <path fill="#714E46" d="M110.375 59.021c-.971 1.383-3.283-.231-4.277-1.268-.463-.323-1.18.207-.717.53 1.456 1.36 4.231 3.296 5.85.992.393-.07-.14-.784-.856-.254" mask="url(#R)"/>
        </g>
        <g transform="translate(0 .216)">
            <mask id="T" fill="#fff">
                <use xlink:href="#S"/>
            </mask>
            <path fill="#D6D6D6" d="M99.292 108.635c-1.249-.185-2.82.091-4 .298l-5.897 1.037c-.786.138-6.358.713-3.515 3.041.532.715 2.105.438 2.498.37l5.11-.899 5.11-.898c2.36-.414 3.585-2.65.694-2.95" mask="url(#T)"/>
        </g>
        <g transform="translate(0 .216)">
            <mask id="V" fill="#fff">
                <use xlink:href="#U"/>
            </mask>
            <path fill="#FF7900" d="M85.76 142.117c-1.063-1.43-43.027-25.563-48.277-25.448-3.213.16-6.313 5.552-8.001 7.465-2.915 4.147-8.372 9.954-9.575 14.609-2.8 9.378 7.559 15.233 14.75 19.221 8.578 4.955 20.117 3.736 29.689 2.862 7.215-.46 28.142-8.177 21.415-18.71" mask="url(#V)"/>
        </g>
        <g transform="translate(0 .216)">
            <mask id="X" fill="#fff">
                <use xlink:href="#W"/>
            </mask>
            <path fill="#000" d="M25.41 137.776c-.647.921-.902 1.774-1.619 2.304-.97 1.383.879 2.673 1.85 1.291.647-.922.902-1.775 1.619-2.305.647-.921-1.202-2.212-1.85-1.29" mask="url(#X)"/>
        </g>
        <g transform="translate(0 .216)">
            <mask id="Z" fill="#fff">
                <use xlink:href="#Y"/>
            </mask>
            <path fill="#000" d="M31.239 129.48c-.717.53-.972 1.383-1.227 2.236-.323.46.208 1.175.67 1.498.464.322 1.18-.208 1.504-.669 0 0-.07-.391.324-.46l.647-.922c.324-.461.186-1.244-.277-1.567-.532-.714-1.318-.577-1.641-.115" mask="url(#Z)"/>
        </g>
        <g transform="translate(0 .216)">
            <mask id="ab" fill="#fff">
                <use xlink:href="#aa"/>
            </mask>
            <path fill="#000" d="M36.095 122.568c-.393.069-.717.53-.647.921l-.324.461.07.392c-.324.461-.186 1.244.277 1.567.462.323 1.248.185 1.572-.276l.323-.461.325-.461s-.07-.392.323-.46c.324-.462.579-1.314.116-1.637-.925-.645-1.711-.507-2.035-.046" mask="url(#ab)"/>
        </g>
        <g transform="translate(0 .216)">
            <mask id="ad" fill="#fff">
                <use xlink:href="#ac"/>
            </mask>
            <path fill="#87B2D3" d="M29.825 146.695c-.462-.323-1.179.207-1.503.667 0 0 .07.392-.323.462l.07.391s-.394.07-.325.46c-.323.462-.578 1.314-.116 1.637.462.323 1.319.576 1.642.116.717-.53 1.364-1.452 1.619-2.304-.07-.392-.601-1.107-1.064-1.43" mask="url(#ad)"/>
        </g>
        <g transform="translate(0 .216)">
            <mask id="af" fill="#fff">
                <use xlink:href="#ae"/>
            </mask>
            <path fill="#000" d="M33.619 138.353c-.463-.323-1.18.207-1.504.668-.253.853-.901 1.774-1.549 2.696-.324.461.208 1.175.67 1.498.463.323 1.18-.207 1.504-.669.254-.852.902-1.773 1.549-2.695.255-.853-.207-1.175-.67-1.498" mask="url(#af)"/>
        </g>
        <g transform="translate(0 .216)">
            <mask id="ah" fill="#fff">
                <use xlink:href="#ag"/>
            </mask>
            <path fill="#000" d="M36.718 132.96c-.393.07-.717.531-1.04.992-.394.069-.324.46-.324.46-.324.461-.186 1.245.277 1.567.463.323 1.249.185 1.572-.275l.324-.461c.324-.461.254-.853.185-1.245.324-.461-.6-1.106-.994-1.037" mask="url(#ah)"/>
        </g>
        <g transform="translate(0 .216)">
            <mask id="aj" fill="#fff">
                <use xlink:href="#ai"/>
            </mask>
            <path fill="#000" d="M41.39 127.292c-.393.07-.393.07-.717.53l-.393.07c-.394.069-.717.53-.579 1.313.07.392.602 1.106 1.388.969.393-.07.393-.07.717-.53l.393-.07c.393-.07.717-.53.578-1.313-.138-.784-.67-1.498-1.387-.969" mask="url(#aj)"/>
        </g>
        <g transform="translate(0 .216)">
            <mask id="al" fill="#fff">
                <use xlink:href="#ak"/>
            </mask>
            <path fill="#87B2D3" d="M32.97 153.01l-.325.46c-.392.07-.323.46-.647.922-.324.46-.185 1.244.278 1.567.462.322 1.248.184 1.571-.277 0 0 .394-.068.324-.46.394-.07.325-.462.648-.922.324-.461.185-1.244-.277-1.567-.463-.323-1.249-.185-1.572.276" mask="url(#al)"/>
        </g>
        <g transform="translate(0 .216)">
            <mask id="an" fill="#fff">
                <use xlink:href="#am"/>
            </mask>
            <path fill="#000" d="M38.867 145.106c-.393.069-.717.53-1.04.99 0 0 .069.393-.325.461-.323.46-.185 1.245.278 1.567.462.323 1.248.185 1.572-.276.323-.46.648-.922.509-1.705.255-.853-.6-1.106-.994-1.037" mask="url(#an)"/>
        </g>
        <g transform="translate(0 .216)">
            <mask id="ap" fill="#fff">
                <use xlink:href="#ao"/>
            </mask>
            <path fill="#000" d="M45.852 134.183c-.463-.322-1.18.208-1.504.669 0 0 .07.391-.323.46l-.324.462s-.394.068-.324.46c-.324.461-.578 1.314-.116 1.636.463.323 1.318.576 1.642.116.717-.53 1.364-1.452 1.619-2.304-.139-.784-.208-1.175-.67-1.499" mask="url(#ap)"/>
        </g>
        <g transform="translate(0 .216)">
            <mask id="ar" fill="#fff">
                <use xlink:href="#aq"/>
            </mask>
            <path fill="#87B2D3" d="M41.363 152.342c-.324.461-.97 1.383-.902 1.774-.324.461.208 1.176.67 1.498.463.323 1.18-.207 1.504-.668 0 0-.07-.391.324-.46l.647-.922c.323-.461.185-1.244-.277-1.567-.856-.253-1.642-.116-1.966.345" mask="url(#ar)"/>
        </g>
        <g transform="translate(0 .216)">
            <mask id="at" fill="#fff">
                <use xlink:href="#as"/>
            </mask>
            <path fill="#000" d="M45.619 144.323l-.578 1.314c-.324.46-.186 1.244.276 1.567.464.322 1.25.184 1.573-.276l.648-.922c.324-.461.185-1.245-.277-1.567-.532-.715-1.318-.577-1.642-.116" mask="url(#at)"/>
        </g>
        <g transform="translate(0 .216)">
            <mask id="av" fill="#fff">
                <use xlink:href="#au"/>
            </mask>
            <path fill="#000" d="M49.296 137.618l-.647.921c-.324.461-.185 1.245.277 1.568.463.322 1.248.184 1.572-.277l.648-.921c.324-.461.185-1.245-.277-1.568-.463-.322-.856-.253-1.573.277" mask="url(#av)"/>
        </g>
        <g transform="translate(0 .216)">
            <mask id="ax" fill="#fff">
                <use xlink:href="#aw"/>
            </mask>
            <path fill="#000" d="M54.8 129.783c-.392.07-1.11.6-1.04.99 0 0-.324.462-.255.853.139.784.602 1.107 1.388.97.393-.07 1.11-.6 1.04-.992-.07-.392.255-.853.186-1.245 0 0-.925-.645-1.319-.576" mask="url(#ax)"/>
        </g>
        <g transform="translate(0 .216)">
            <mask id="az" fill="#fff">
                <use xlink:href="#ay"/>
            </mask>
            <path fill="#000" d="M48.812 128.008c-1.572.277-1.157 2.627.416 2.35 1.572-.276 1.157-2.627-.416-2.35" mask="url(#az)"/>
        </g>
        <g transform="translate(0 .216)">
            <mask id="aB" fill="#fff">
                <use xlink:href="#aA"/>
            </mask>
            <path fill="#000" d="M52.879 148.702c.07.393.07.393 0 0l-.324.461c-.393.07-.323.461-.647.922-.325.461-.186 1.245.277 1.567.462.323 1.249.185 1.572-.276 0 0 .394-.07.324-.46.393-.07.324-.462.647-.923.324-.46.186-1.244-.277-1.567-.462-.322-.856-.253-1.572.276" mask="url(#aB)"/>
        </g>
        <g transform="translate(0 .216)">
            <mask id="aD" fill="#fff">
                <use xlink:href="#aC"/>
            </mask>
            <path fill="#000" d="M60.094 141.376c-.462-.324-1.179.207-1.503.667l-.324.461-.647.922c-.324.46.208 1.175.67 1.498.462.323 1.18-.207 1.503-.668l.324-.46.647-.922c.324-.461-.207-1.176-.67-1.498" mask="url(#aD)"/>
        </g>
        <g transform="translate(0 .216)">
            <mask id="aF" fill="#fff">
                <use xlink:href="#aE"/>
            </mask>
            <path fill="#000" d="M63.124 135.592c-.393.069-.393.069-.716.53l-.394.069c-.393.068-.717.53-.578 1.313.07.392.6 1.106 1.387.968.393-.069.393-.069.717-.53l.393-.069c.393-.069.717-.53.578-1.313-.138-.784-.6-1.107-1.387-.968" mask="url(#aF)"/>
        </g>
        <g transform="translate(0 .216)">
            <mask id="aH" fill="#fff">
                <use xlink:href="#aG"/>
            </mask>
            <path fill="#87B2D3" d="M58.867 157.345c-.325.461-1.041.99-1.365 1.452-.324.46-.185 1.245.277 1.567.463.322 1.249.184 1.573-.276l.323-.461.393-.07s.394-.069.325-.46c.323-.461.578-1.313.116-1.637-.533-.713-.926-.645-1.642-.115" mask="url(#aH)"/>
        </g>
        <g transform="translate(0 .216)">
            <mask id="aJ" fill="#fff">
                <use xlink:href="#aI"/>
            </mask>
            <path fill="#000" d="M62.405 149.856c-.324.461-.578 1.314-.902 1.774-.323.461.208 1.175.67 1.498.463.323 1.18-.207 1.504-.667-.07-.393.324-.461.254-.854 0 0-.069-.39.324-.46.324-.461.185-1.244-.277-1.567-.463-.323-1.248-.185-1.573.276" mask="url(#aJ)"/>
        </g>
        <g transform="translate(0 .216)">
            <mask id="aL" fill="#fff">
                <use xlink:href="#aK"/>
            </mask>
            <path fill="#000" d="M68.28 139.533c-.463-.323-1.18.207-1.503.668.069.392-.323.461-.254.853-.324.46-.579 1.313-.116 1.636.462.323 1.317.576 1.641.115.717-.53.972-1.382 1.226-2.235-.393.07-.531-.714-.994-1.037" mask="url(#aL)"/>
        </g>
        <g transform="translate(0 .216)">
            <mask id="aN" fill="#fff">
                <use xlink:href="#aM"/>
            </mask>
            <path fill="#000" d="M67.838 155.365c-.716.53-1.433 1.06-1.688 1.912-.324.46.208 1.175.67 1.498.463.323 1.18-.207 1.504-.668.393-.07.324-.46.716-.53.324-.461.578-1.313.116-1.636-.138-.784-.993-1.038-1.318-.576" mask="url(#aN)"/>
        </g>
        <g transform="translate(0 .216)">
            <mask id="aP" fill="#fff">
                <use xlink:href="#aO"/>
            </mask>
            <path fill="#000" d="M70.73 148.797c.07.392.07.392 0 0-.717.53-1.041.991-.902 1.774.07.392.6 1.107 1.387.969.786-.138 1.11-.6 1.433-1.06.325-.46.186-1.245-.276-1.567-.532-.715-1.318-.577-1.642-.116" mask="url(#aP)"/>
        </g>
        <g transform="translate(0 .216)">
            <mask id="aR" fill="#fff">
                <use xlink:href="#aQ"/>
            </mask>
            <path fill="#000" d="M74.153 142.944l-.647.922c-.324.461-.186 1.244.277 1.567.462.323 1.248.185 1.572-.276l.647-.922c.324-.46.185-1.244-.277-1.567-.462-.322-1.248-.185-1.572.276" mask="url(#aR)"/>
        </g>
        <g transform="translate(0 .216)">
            <mask id="aT" fill="#fff">
                <use xlink:href="#aS"/>
            </mask>
            <path fill="#000" d="M76.672 152.6c-.393.07-.717.53-1.04.991 0 0 .068.392-.325.461-.323.46-.185 1.245.277 1.567.464.323 1.25.184 1.573-.276.323-.461.648-.922.509-1.705.255-.853-.6-1.107-.994-1.037" mask="url(#aT)"/>
        </g>
        <g transform="translate(0 .216)">
            <mask id="aV" fill="#fff">
                <use xlink:href="#aU"/>
            </mask>
            <path fill="#000" d="M78.453 146.632s-.393.07 0 0c-.647.922-.51 1.706-.047 2.028.463.323 1.25.184 1.573-.277l.323-.46c.324-.461.186-1.244-.277-1.567-.462-.323-1.248-.185-1.572.276" mask="url(#aV)"/>
        </g>
        <g transform="translate(0 .216)">
            <mask id="aX" fill="#fff">
                <use xlink:href="#aW"/>
            </mask>
            <path fill="#87B2D3" d="M48.485 155.938s-.394.07 0 0l-.324.461c-.393.07-.324.46-.648.922-.324.46-.185 1.244.278 1.567.462.322 1.248.184 1.571-.276 0 0 .394-.07.325-.461.393-.07.324-.462.647-.922.324-.461.185-1.245-.277-1.567-.925-.645-1.318-.576-1.572.276" mask="url(#aX)"/>
        </g>
        <g transform="translate(0 .216)">
            <mask id="aZ" fill="#fff">
                <use xlink:href="#aY"/>
            </mask>
            <path fill="#FFB327" d="M90.823 83.234l-1.207-6.848a.733.733 0 0 0-.846-.592l-2.279.4a.73.73 0 0 0-.594.843l.609 3.451-2.502.438.32 1.82 2.503-.438.277 1.577a5.032 5.032 0 0 0-2.307 5.148c.482 2.74 3.103 4.572 5.852 4.09 2.75-.48 4.587-3.092 4.104-5.832a5.046 5.046 0 0 0-3.93-4.057" mask="url(#aZ)"/>
        </g>
        <path fill="#B7B7B7" d="M94.865 57.889s-1.395-14.22-11.987-13.414c-10.592.806-8.63 10.787-8.63 10.787l1.819-.414s-2.015-7.092 5.081-8.854c7.223-1.793 10.432 3.848 11.77 12.235l1.947-.34z"/>
        <g transform="translate(0 .216)">
            <mask id="bb" fill="#fff">
                <use xlink:href="#ba"/>
            </mask>
            <path fill="#B7B7B7" d="M79.057 45.831c-1.109.506-2.01 1.207-2.695 2.102-1.679 2.192-1.664 5.032-1.552 6.31l.477-.108c-.196-1.141-.39-3.527.837-5.637.667-1.147 1.65-2.039 2.933-2.667m14.402 11.42l.669-.117c-.176-1.14-.68-3.723-1.891-6.214-1.33-2.732-3.08-4.545-5.23-5.422.318.15.626.322.923.518 2.712 1.788 4.523 5.467 5.53 11.235m1.52 1.068l-1.948.34a.658.658 0 0 1-.765-.543c-.438-2.749-1.064-5.05-1.858-6.84-.854-1.923-1.932-3.325-3.206-4.165-1.601-1.055-3.53-1.283-5.895-.695-1.9.471-3.26 1.393-4.044 2.74-1.373 2.361-.571 5.267-.563 5.297a.653.653 0 0 1-.488.819l-1.818.414a.654.654 0 0 1-.506-.09.653.653 0 0 1-.287-.424c-.038-.188-.877-4.646 1.705-8.027 1.598-2.092 4.128-3.283 7.521-3.54 4.625-.353 8.293 1.99 10.61 6.773 1.704 3.519 2.068 7.08 2.083 7.23a.658.658 0 0 1-.542.711" mask="url(#bb)"/>
        </g>
        <g transform="translate(0 .216)">
            <mask id="bd" fill="#fff">
                <use xlink:href="#bc"/>
            </mask>
            <path fill="#4E251C" d="M97.12 77.009L78.8 80.216c-2.15.376-4.217-1.07-4.595-3.211l-2.543-14.43c-.377-2.142 1.072-4.203 3.223-4.579l18.32-3.207c2.149-.376 4.217 1.069 4.594 3.211l2.543 14.43c.377 2.142-1.073 4.203-3.222 4.579" mask="url(#bd)"/>
        </g>
        <g transform="translate(0 .216)">
            <mask id="bf" fill="#fff">
                <use xlink:href="#be"/>
            </mask>
            <path fill="#CE4A37" d="M97.632 76.92l-17.418 3.048c-2.15.376-4.217-1.069-4.595-3.211l-2.543-14.43c-.377-2.142 1.073-4.202 3.222-4.579L93.716 54.7c2.149-.377 4.217 1.068 4.594 3.211l2.543 14.43c.377 2.142-1.072 4.202-3.221 4.579" mask="url(#bf)"/>
        </g>
        <g transform="translate(0 .216)">
            <mask id="bh" fill="#fff">
                <use xlink:href="#bg"/>
            </mask>
            <path fill="#DC891A" d="M93.606 66.968c.608 3.446-1.703 6.729-5.16 7.334-3.457.606-6.752-1.697-7.358-5.142-.608-3.446 1.702-6.73 5.16-7.334 3.456-.605 6.751 1.697 7.358 5.142" mask="url(#bh)"/>
        </g>
        <g transform="translate(0 .216)">
            <mask id="bj" fill="#fff">
                <use xlink:href="#bi"/>
            </mask>
            <path fill="#FFB327" d="M92.836 67.103c.606 3.446-1.704 6.729-5.16 7.334-3.457.605-6.752-1.697-7.36-5.142-.606-3.446 1.704-6.73 5.161-7.334 3.457-.605 6.751 1.697 7.359 5.142" mask="url(#bj)"/>
        </g>
        <g transform="translate(0 .216)">
            <mask id="bl" fill="#fff">
                <use xlink:href="#bk"/>
            </mask>
            <path fill="#DC891A" d="M93.104 87.435a3.197 3.197 0 0 1-2.605 3.701 3.206 3.206 0 0 1-3.713-2.595 3.197 3.197 0 0 1 2.604-3.701 3.205 3.205 0 0 1 3.714 2.595" mask="url(#bl)"/>
        </g>
        <g transform="translate(0 .216)">
            <mask id="bn" fill="#fff">
                <use xlink:href="#bm"/>
            </mask>
            <path fill="#F1F1F1" d="M92.714 87.503a3.197 3.197 0 0 1-2.604 3.7 3.205 3.205 0 0 1-3.713-2.594 3.196 3.196 0 0 1 2.604-3.701 3.205 3.205 0 0 1 3.713 2.595" mask="url(#bn)"/>
        </g>
        <g transform="translate(0 .216)">
            <mask id="bp" fill="#fff">
                <use xlink:href="#bo"/>
            </mask>
            <path fill="#F1F1F1" d="M89.006 84.94a3.168 3.168 0 0 0-2.576 3.663 3.177 3.177 0 0 0 3.675 2.569 3.167 3.167 0 0 0 2.577-3.664 3.176 3.176 0 0 0-3.676-2.568m1.11 6.296a3.242 3.242 0 0 1-3.751-2.622 3.233 3.233 0 0 1 2.63-3.739 3.243 3.243 0 0 1 3.752 2.623 3.233 3.233 0 0 1-2.63 3.738" mask="url(#bp)"/>
        </g>
        <g transform="translate(0 .216)">
            <mask id="br" fill="#fff">
                <use xlink:href="#bq"/>
            </mask>
            <path fill="#FFDD4D" d="M96.556 94.415a8.972 8.972 0 0 1-2.073-1.522c-.276-.272-.744.117-.465.393a9.504 9.504 0 0 0 2.188 1.626c.342.183.695-.311.35-.497" mask="url(#br)"/>
        </g>
        <g transform="translate(0 .216)">
            <mask id="bt" fill="#fff">
                <use xlink:href="#bs"/>
            </mask>
            <path fill="#FFDD4D" d="M98.256 91.033a17.963 17.963 0 0 1-2.258-.563c-.374-.12-.587.45-.213.569.791.252 1.596.451 2.413.599.387.07.441-.535.058-.605" mask="url(#bt)"/>
        </g>
        <g transform="translate(0 .216)">
            <mask id="bv" fill="#fff">
                <use xlink:href="#bu"/>
            </mask>
            <path fill="#FFDD4D" d="M98.034 86.105l-2.14.483c-.381.085-.278.683.105.597l2.14-.481c.381-.087.278-.685-.105-.599" mask="url(#bv)"/>
        </g>
        <g transform="translate(0 .216)">
            <mask id="bx" fill="#fff">
                <use xlink:href="#bw"/>
            </mask>
            <path fill="#FFDD4D" d="M85.74 93.15a9.212 9.212 0 0 0-2.426 1.865c-.262.283.127.75.394.463a8.73 8.73 0 0 1 2.293-1.78c.343-.183.086-.733-.261-.547" mask="url(#bx)"/>
        </g>
        <g transform="translate(0 .216)">
            <mask id="bz" fill="#fff">
                <use xlink:href="#by"/>
            </mask>
            <path fill="#FFDD4D" d="M83.523 90.125c-.772.023-1.539.098-2.3.232-.316.055-.23.544.086.488.716-.125 1.44-.204 2.166-.226.317-.01.368-.504.048-.494" mask="url(#bz)"/>
        </g>
        <path fill="#FFDD4D" d="M83.724 86.59c-.332-.213-.726-.32-1.094-.454l-1.25-.455c-.368-.134-.579.435-.21.57l1.14.415c.348.126.75.22 1.064.42.329.212.68-.284.35-.496M95.845 82.34a16.054 16.054 0 0 0-2.189 1.64c-.29.26.101.725.394.463a15.255 15.255 0 0 1 2.056-1.554c.327-.205.07-.757-.261-.549M93.36 97.044l-.76-2.34c-.128-.398-.718-.116-.59.278l.759 2.342c.128.397.718.115.59-.28M88.962 94.945l-.079 2.299c-.014.418.637.481.652.062l.078-2.3c.014-.416-.637-.48-.651-.061"/>
        <g fill="#FFF">
            <path d="M28.394 39.346l6.378 3.158c1.839.91 3.462-1.84 1.616-2.754l-6.378-3.158c-1.839-.91-3.462 1.84-1.616 2.754M25.651 59l7.98 1.489c2.014.375 2.876-2.699.852-3.076l-7.981-1.487c-2.013-.376-2.876 2.697-.85 3.075M27.682 78.565l7.953-.63c2.04-.161 2.057-3.352 0-3.19l-7.953.63c-2.04.161-2.057 3.352 0 3.19M40.898 22.011l3.75 4.735c.536.676 1.702.558 2.263 0 .67-.669.537-1.578 0-2.256l-3.75-4.734c-.535-.677-1.702-.559-2.263 0-.67.668-.537 1.577 0 2.255M63.862 14.43l1.051 2.649c.318.8 1.07 1.36 1.969 1.113.764-.21 1.436-1.156 1.118-1.961l-1.052-2.649c-.317-.8-1.07-1.36-1.968-1.114-.765.21-1.438 1.156-1.118 1.962M128.473 108.423l7.418.673c2.05.186 2.038-3.005 0-3.19l-7.418-.673c-2.05-.186-2.037 3.005 0 3.19M118.845 122.546l4.223 2.162c1.829.936 3.45-1.815 1.615-2.754l-4.222-2.162c-1.83-.936-3.45 1.816-1.616 2.754"/>
        </g>
        <g>
            <g transform="translate(0 .216)">
                <mask id="bB" fill="#fff">
                    <use xlink:href="#bA"/>
                </mask>
                <path fill="#50BE87" d="M79.833.326c44.09 0 79.833 35.621 79.833 79.562 0 43.94-35.742 79.562-79.833 79.562S0 123.83 0 79.888C0 35.947 35.742.326 79.833.326" mask="url(#bB)"/>
            </g>
            <g transform="translate(0 .216)">
                <mask id="bD" fill="#fff">
                    <use xlink:href="#bC"/>
                </mask>
                <path fill="#725048" d="M110.163 85.315c-3.815-.945-8.925-.047-12.093-1.914-9.965-5.924-19.606-12.309-28.53-19.224-1.481 3.088-3.286 6.637-4.835 9.333-1.804 3.548-4.001 7.166-6.198 10.783-1.226 2.236-.418 4.517-1.643 6.752-1.55 2.697-4.163 3.964-5.32 6.59-.832 2.166-2.058 4.402-2.035 6.822-.047 2.027-.093 4.056-.602 5.76-1.203 4.655-2.475 8.918-5.852 12.743-2.404 2.443-4.14 6.383-5.62 9.471-2.452 4.47-6.869 9.286-2.245 12.513 7.006 5.232 16.37 10.05 24.532 12.654 6.058 2.168 12.093 1.915 15.054-4.26 2.313-5.254 2.129-10.877 6.615-15.3 3.77-3.895 9.597-5.323 13.366-9.217 5.528-5.415 9.853-13.042 13.067-20.07 2.961-6.176 7.032-12.95 6.177-20.07.37-2.49-2.196-3.25-3.838-3.366" mask="url(#bD)"/>
            </g>
            <g transform="translate(0 .216)">
                <mask id="bF" fill="#fff">
                    <use xlink:href="#bE"/>
                </mask>
                <path fill="#725048" d="M120.686 73.771c.855.254 2.104.438 3.028 1.084.463.322-7.655 16.291-11.817 13.387-5.156-3.941 3.54-14.356 8.789-14.47" mask="url(#bF)"/>
            </g>
            <g transform="translate(0 .216)">
                <mask id="bH" fill="#fff">
                    <use xlink:href="#bG"/>
                </mask>
                <path fill="#725048" d="M110.86 61.763c-1.04.991-4.625 3.64-6.012 2.673-2.243-1.222 3.423-5.853 4.463-6.843 1.69-1.913 3.446-3.434 5.134-5.347 1.042-.99 1.943-2.765.88-4.193-1.063-1.43-2.82.091-3.931.69-5.412 3.779-10.684 8.341-15.563 12.834-2.799 2.512-5.666 4.631-8.534 6.751-1.757 1.52-3.77 3.894-6.267 3.525-1.711-.508-4.092-2.513-5.248.114-.58 1.314-1.019 3.411-1.065 5.438l-.348 4.91c-.37 2.488.046 4.838.462 7.19.485 2.741-.487 10.991-.487 10.991 1.479 3.78 1.317 7.444 5.78 7.468 3.676.161 8.324-1.06 11.516-3.64 1.757-1.52 1.942-2.765 4.44-2.396 2.103.438 3.952 1.729 5.919 1.383 1.571-.276 2.66-3.295 3.63-4.677 1.874-3.157 4.14-6.383 5.482-10.254.833-2.166 2.058-4.401 2.498-6.498.44-2.097 1.272-4.263 1.25-6.683-.023-2.42-1.942-4.102-1.965-6.522-.023-2.42 2.128-4.01 2.036-6.82-.138-.784-.347-1.96-1.202-2.213-1.573.276-2.151 1.59-2.868 2.12" mask="url(#bH)"/>
            </g>
            <g transform="translate(0 .216)">
                <mask id="bJ" fill="#fff">
                    <use xlink:href="#bI"/>
                </mask>
                <path fill="#725048" d="M110.054 38.88c-.647.922-1.295 1.843-1.62 2.304-.9 1.775-1.133 5.047-3.422 5.853-2.29.806-3.907-3.757-4.578-5.255-1.086-3.848 2.43-6.89 5.297-9.01 3.26-2.188 6.544-1.957 8.416 1.753-1.11.6-2.798 2.512-4.093 4.355" mask="url(#bJ)"/>
            </g>
            <g transform="translate(0 .216)">
                <mask id="bL" fill="#fff">
                    <use xlink:href="#bK"/>
                </mask>
                <path fill="#725048" d="M112.502 61.879l-.902 1.774c.07.392 1.363 5.416 1.756 5.347 2.614-1.267 5.204-4.954 3.863-7.95-.601-1.106-3.19-4.287-4.879-2.374-.647.921.81 2.281.162 3.203" mask="url(#bL)"/>
            </g>
            <g transform="translate(0 .216)">
                <mask id="bN" fill="#fff">
                    <use xlink:href="#bM"/>
                </mask>
                <path fill="#8F8F8F" d="M101.016 19.867c-3.098-1.475-6.243-.923-10.174-.232l-12.973 2.28-11.4 2.003c-3.145.553-9.041 1.589-11.446 4.031-2.081 1.982-2.96 6.176-2.799 9.38.254 6.014 2.149 12.144 3.188 18.02l3.882 21.94L62.552 95.7l2.287 12.929c.624 3.526.6 7.973 4.16 9.77 2.243 1.223 5.527 1.454 8.279.97 4-.299 7.861-1.381 11.793-2.072 4.717-.83 9.04-1.589 13.689-2.81 3.862-1.082 9.18-.805 12.44-2.994 4.047-2.326 4.464-6.843 3.632-11.545-2.795-18.09-6.839-36.365-9.172-54.133-.508-5.162-2.195-10.117-3.096-15.21-.763-4.309-1.132-8.687-5.548-10.74" mask="url(#bN)"/>
            </g>
            <g transform="translate(0 .216)">
                <mask id="bP" fill="#fff">
                    <use xlink:href="#bO"/>
                </mask>
                <path fill="#595959" d="M63.256 24.079c-.787.138-1.642-.116-3.215.16-.786.139-1.11.6-1.503.669.07.391.139.783.602 1.106.462.323 1.641.116 2.034.046.786-.138 1.18-.207 1.504-.668.785-.138.323-.46.578-1.313" mask="url(#bP)"/>
            </g>
            <g transform="translate(0 .216)">
                <mask id="bR" fill="#fff">
                    <use xlink:href="#bQ"/>
                </mask>
                <path fill="#242B37" d="M59.648 24.309c-.786.138-1.434 1.06-.185 1.244 1.642.116 2.289-.806 1.758-1.52l-1.573.276" mask="url(#bR)"/>
            </g>
            <g transform="translate(0 .216)">
                <mask id="bT" fill="#fff">
                    <use xlink:href="#bS"/>
                </mask>
                <path fill="#8F8F8F" d="M62.793 23.756l-.717.53-.393.069-.786.138-.787.139.07.391-.07-.391-.392.068.392-.068.787-.139.786-.138.393-.069.717-.53s-.462-.323-.855-.253l-.787.138-.786.138-.786.138c-.393.07-.324.46-.717.53 0 0-.393.07-.324.461l.07.392.07.391.461.323s.393-.069.463.323l.392-.07-.069-.391.07.391 1.179-.206c.786-.139 1.179-.208 1.503-.668.393-.07.324-.461.324-.461l.324-.461c-.07-.392-.07-.392-.532-.715" mask="url(#bT)"/>
            </g>
            <g transform="translate(0 .216)">
                <mask id="bV" fill="#fff">
                    <use xlink:href="#bU"/>
                </mask>
                <path fill="#000" d="M94.865 21.756l-34.986 6.148c-8.255 1.45-6.06 11.567-5.899 14.77l8.526 48.188 3.604 20.372c1.525 8.619 6.058 9.034 11.56 8.067l29.877-5.25c12.579-2.21 11.955-5.736 10.638-13.18l-5.268-29.774a1111204.056 1111204.056 0 0 0-6.585-37.218c-.185-5.623-1.64-13.85-11.467-12.123" mask="url(#bV)"/>
            </g>
            <g transform="translate(0 .216)">
                <mask id="bX" fill="#fff">
                    <use xlink:href="#bW"/>
                </mask>
                <path fill="#8F8F8F" d="M86.17 25.304l-3.931.69-7.862 1.382c-.786.138-7.145.852-4.44 2.396.856.253 2.035.046 2.82-.092l6.684-1.174 7.076-1.244c2.751-.483 1.618-2.304-.347-1.958" mask="url(#bX)"/>
            </g>
            <g transform="translate(0 .216)">
                <mask id="bZ" fill="#fff">
                    <use xlink:href="#bY"/>
                </mask>
                <path fill="#000" d="M77.95 107.134c-2.683.875-4.717.828-7.608.529l-2.566-.762c-.948 3.803.67 8.366 3.906 10.625 2.775 1.936 6.706 1.245 9.388.37 3.076-.944 6.614-1.566 6.776-5.23.047-2.028.74-4.978.324-7.329l-10.22 1.797" mask="url(#bZ)"/>
            </g>
            <g transform="translate(0 .216)">
                <mask id="cb" fill="#fff">
                    <use xlink:href="#ca"/>
                </mask>
                <path fill="#FFF" d="M115.064 96.976l-1.733-9.794-2.98-16.846-1.179-6.66-4.644-26.248-.762-4.31c-.902-5.093-4.185-5.324-7.33-4.771l-9.434 1.658c-5.504.967-11.4 2.003-16.973 2.578l-7.469 1.313c-2.359.414-7.076 1.243-6.244 5.945l5.13 28.99 1.663 9.402 3.535 19.981 1.04 5.876c.346 1.96.716 6.338 8.647 5.348 3.144-.553 30.731-4.997 33.483-5.48 6.22-1.497 5.388-6.199 5.25-6.982" mask="url(#cb)"/>
            </g>
            <g transform="translate(0 .216)">
                <mask id="cd" fill="#fff">
                    <use xlink:href="#cc"/>
                </mask>
            </g>
            <g transform="translate(0 .216)">
                <mask id="cf" fill="#fff">
                    <use xlink:href="#ce"/>
                </mask>
                <path fill="#9FA8BE" d="M86.622 101.166c.07.392 0 0 0 0" mask="url(#cf)"/>
            </g>
            <g transform="translate(0 .216)">
                <mask id="ch" fill="#fff">
                    <use xlink:href="#cg"/>
                </mask>
                <path fill="#2B3445" d="M64.567 72.726c.393-.069.393-.069 0 0 .393-.069.393-.069 0 0" mask="url(#ch)"/>
            </g>
            <g transform="translate(0 .216)">
                <mask id="cj" fill="#fff">
                    <use xlink:href="#ci"/>
                </mask>
            </g>
            <g transform="translate(0 .216)">
                <mask id="cl" fill="#fff">
                    <use xlink:href="#ck"/>
                </mask>
            </g>
            <g transform="translate(0 .216)">
                <mask id="cn" fill="#fff">
                    <use xlink:href="#cm"/>
                </mask>
            </g>
            <g transform="translate(0 .216)">
                <mask id="cp" fill="#fff">
                    <use xlink:href="#co"/>
                </mask>
            </g>
            <g transform="translate(0 .216)">
                <mask id="cr" fill="#fff">
                    <use xlink:href="#cq"/>
                </mask>
            </g>
            <g transform="translate(0 .216)">
                <mask id="ct" fill="#fff">
                    <use xlink:href="#cs"/>
                </mask>
            </g>
            <g transform="translate(0 .216)">
                <mask id="cv" fill="#fff">
                    <use xlink:href="#cu"/>
                </mask>
            </g>
            <g transform="translate(0 .216)">
                <mask id="cx" fill="#fff">
                    <use xlink:href="#cw"/>
                </mask>
                <path fill="#725048" d="M61.333 49.866c-1.273 4.263-4.256 8.019-7.31 11.382-2.404 2.443-5.989 5.093-7.538 7.789-.394 6.936-3.216 13.895-7.426 19.886-.254.853-.508 1.705-.37 2.489l.07.391c.53 7.582.668 15.233 1.592 22.746.832 4.701 1.015 10.324-1.898 14.472 3.562-5.07 9.643-7.35 14.269-10.99 1.757-1.521 3.052-3.364 5.272-4.562 1.11-.6 3.006-1.337 3.584-2.65 2.336-2.835.44-8.965-.114-12.1-.576-5.553.025-11.314-.945-16.798-.762-4.31-.531-7.582 1.666-11.2.324-.46.717-.53 1.041-.991.323-.46.717-.53 1.04-.99 1.296-1.844 2.128-4.01 2.106-6.43.486-4.124-.369-11.246-5.04-12.444" mask="url(#cx)"/>
            </g>
            <g transform="translate(0 .216)">
                <mask id="cz" fill="#fff">
                    <use xlink:href="#cy"/>
                </mask>
                <path fill="#725048" d="M102.978 46.99c-.209-1.174-.417-2.35-.231-3.594 3.676.162 15.63 1.292 12.74 7.86-2.706 5.323-11.493-.808-12.51-4.265" mask="url(#cz)"/>
            </g>
            <g transform="translate(0 .216)">
                <mask id="cB" fill="#fff">
                    <use xlink:href="#cA"/>
                </mask>
                <path fill="#725048" d="M104.872 59.988c-.208-1.175-.417-2.35-.231-3.595 3.677.162 15.63 1.293 12.74 7.86-2.706 5.323-11.493-.808-12.51-4.265" mask="url(#cB)"/>
            </g>
            <g transform="translate(0 .216)">
                <mask id="cD" fill="#fff">
                    <use xlink:href="#cC"/>
                </mask>
                <path fill="#714E46" d="M63.228 55.996c-.186 1.244-1.226 2.235-2.336 2.834-1.11.599-2.428.023-3.353-.623-.462-.323-1.18.207-.717.53.995 1.037 2.705 1.544 4.278 1.268 1.503-.668 2.475-2.05 2.983-3.756.255-.852-.994-1.037-.855-.253" mask="url(#cD)"/>
            </g>
            <g transform="translate(0 .216)">
                <mask id="cF" fill="#fff">
                    <use xlink:href="#cE"/>
                </mask>
                <path fill="#714E46" d="M108.48 46.024c-1.156 2.626-4.138-.485-5.132-1.522-.463-.322-1.18.208-.717.53.994 1.037 1.988 2.074 3.306 2.65.463.323 1.318.577 2.034.047.787-.138 1.042-.991 1.365-1.451.324-.461-.531-.715-.855-.254" mask="url(#cF)"/>
            </g>
            <g transform="translate(0 .216)">
                <mask id="cH" fill="#fff">
                    <use xlink:href="#cG"/>
                </mask>
                <path fill="#714E46" d="M110.375 59.021c-.971 1.383-3.283-.231-4.277-1.268-.463-.323-1.18.207-.717.53 1.456 1.36 4.231 3.296 5.85.992.393-.07-.14-.784-.856-.254" mask="url(#cH)"/>
            </g>
            <g transform="translate(0 .216)">
                <mask id="cJ" fill="#fff">
                    <use xlink:href="#cI"/>
                </mask>
                <path fill="#D6D6D6" d="M99.292 108.635c-1.249-.185-2.82.091-4 .298l-5.897 1.037c-.786.138-6.358.713-3.515 3.041.532.715 2.105.438 2.498.37l5.11-.899 5.11-.898c2.36-.414 3.585-2.65.694-2.95" mask="url(#cJ)"/>
            </g>
            <g transform="translate(0 .216)">
                <mask id="cL" fill="#fff">
                    <use xlink:href="#cK"/>
                </mask>
                <path fill="#BBE0D1" d="M85.76 142.117c-1.063-1.43-43.027-25.563-48.277-25.448-3.213.16-6.313 5.552-8.001 7.465-2.915 4.147-8.372 9.954-9.575 14.609-2.8 9.378 7.559 15.233 14.75 19.221 8.578 4.955 20.117 3.736 29.689 2.862 7.215-.46 28.142-8.177 21.415-18.71" mask="url(#cL)"/>
            </g>
            <g transform="translate(0 .216)">
                <mask id="cN" fill="#fff">
                    <use xlink:href="#cM"/>
                </mask>
                <path fill="#50BE87" d="M25.41 137.776c-.647.921-.902 1.774-1.619 2.304-.97 1.383.879 2.673 1.85 1.291.647-.922.902-1.775 1.619-2.305.647-.921-1.202-2.212-1.85-1.29" mask="url(#cN)"/>
            </g>
            <g transform="translate(0 .216)">
                <mask id="cP" fill="#fff">
                    <use xlink:href="#cO"/>
                </mask>
                <path fill="#50BE87" d="M31.239 129.48c-.717.53-.972 1.383-1.227 2.236-.323.46.208 1.175.67 1.498.464.322 1.18-.208 1.504-.669 0 0-.07-.391.324-.46l.647-.922c.324-.461.186-1.244-.277-1.567-.532-.714-1.318-.577-1.641-.115" mask="url(#cP)"/>
            </g>
            <g transform="translate(0 .216)">
                <mask id="cR" fill="#fff">
                    <use xlink:href="#cQ"/>
                </mask>
                <path fill="#50BE87" d="M36.095 122.568c-.393.069-.717.53-.647.921l-.324.461.07.392c-.324.461-.186 1.244.277 1.567.462.323 1.248.185 1.572-.276l.323-.461.325-.461s-.07-.392.323-.46c.324-.462.579-1.314.116-1.637-.925-.645-1.711-.507-2.035-.046" mask="url(#cR)"/>
            </g>
            <g transform="translate(0 .216)">
                <mask id="cT" fill="#fff">
                    <use xlink:href="#cS"/>
                </mask>
                <path fill="#87B2D3" d="M29.825 146.695c-.462-.323-1.179.207-1.503.667 0 0 .07.392-.323.462l.07.391s-.394.07-.325.46c-.323.462-.578 1.314-.116 1.637.462.323 1.319.576 1.642.116.717-.53 1.364-1.452 1.619-2.304-.07-.392-.601-1.107-1.064-1.43" mask="url(#cT)"/>
            </g>
            <g transform="translate(0 .216)">
                <mask id="cV" fill="#fff">
                    <use xlink:href="#cU"/>
                </mask>
                <path fill="#50BE87" d="M33.619 138.353c-.463-.323-1.18.207-1.504.668-.253.853-.901 1.774-1.549 2.696-.324.461.208 1.175.67 1.498.463.323 1.18-.207 1.504-.669.254-.852.902-1.773 1.549-2.695.255-.853-.207-1.175-.67-1.498" mask="url(#cV)"/>
            </g>
            <g transform="translate(0 .216)">
                <mask id="cX" fill="#fff">
                    <use xlink:href="#cW"/>
                </mask>
                <path fill="#50BE87" d="M36.718 132.96c-.393.07-.717.531-1.04.992-.394.069-.324.46-.324.46-.324.461-.186 1.245.277 1.567.463.323 1.249.185 1.572-.275l.324-.461c.324-.461.254-.853.185-1.245.324-.461-.6-1.106-.994-1.037" mask="url(#cX)"/>
            </g>
            <g transform="translate(0 .216)">
                <mask id="cZ" fill="#fff">
                    <use xlink:href="#cY"/>
                </mask>
                <path fill="#50BE87" d="M41.39 127.292c-.393.07-.393.07-.717.53l-.393.07c-.394.069-.717.53-.579 1.313.07.392.602 1.106 1.388.969.393-.07.393-.07.717-.53l.393-.07c.393-.07.717-.53.578-1.313-.138-.784-.67-1.498-1.387-.969" mask="url(#cZ)"/>
            </g>
            <g transform="translate(0 .216)">
                <mask id="db" fill="#fff">
                    <use xlink:href="#da"/>
                </mask>
                <path fill="#87B2D3" d="M32.97 153.01l-.325.46c-.392.07-.323.46-.647.922-.324.46-.185 1.244.278 1.567.462.322 1.248.184 1.571-.277 0 0 .394-.068.324-.46.394-.07.325-.462.648-.922.324-.461.185-1.244-.277-1.567-.463-.323-1.249-.185-1.572.276" mask="url(#db)"/>
            </g>
            <g transform="translate(0 .216)">
                <mask id="dd" fill="#fff">
                    <use xlink:href="#dc"/>
                </mask>
                <path fill="#50BE87" d="M38.867 145.106c-.393.069-.717.53-1.04.99 0 0 .069.393-.325.461-.323.46-.185 1.245.278 1.567.462.323 1.248.185 1.572-.276.323-.46.648-.922.509-1.705.255-.853-.6-1.106-.994-1.037" mask="url(#dd)"/>
            </g>
            <g transform="translate(0 .216)">
                <mask id="df" fill="#fff">
                    <use xlink:href="#de"/>
                </mask>
                <path fill="#50BE87" d="M45.852 134.183c-.463-.322-1.18.208-1.504.669 0 0 .07.391-.323.46l-.324.462s-.394.068-.324.46c-.324.461-.578 1.314-.116 1.636.463.323 1.318.576 1.642.116.717-.53 1.364-1.452 1.619-2.304-.139-.784-.208-1.175-.67-1.499" mask="url(#df)"/>
            </g>
            <g transform="translate(0 .216)">
                <mask id="dh" fill="#fff">
                    <use xlink:href="#dg"/>
                </mask>
                <path fill="#87B2D3" d="M41.363 152.342c-.324.461-.97 1.383-.902 1.774-.324.461.208 1.176.67 1.498.463.323 1.18-.207 1.504-.668 0 0-.07-.391.324-.46l.647-.922c.323-.461.185-1.244-.277-1.567-.856-.253-1.642-.116-1.966.345" mask="url(#dh)"/>
            </g>
            <g transform="translate(0 .216)">
                <mask id="dj" fill="#fff">
                    <use xlink:href="#di"/>
                </mask>
                <path fill="#50BE87" d="M45.619 144.323l-.578 1.314c-.324.46-.186 1.244.276 1.567.464.322 1.25.184 1.573-.276l.648-.922c.324-.461.185-1.245-.277-1.567-.532-.715-1.318-.577-1.642-.116" mask="url(#dj)"/>
            </g>
            <g transform="translate(0 .216)">
                <mask id="dl" fill="#fff">
                    <use xlink:href="#dk"/>
                </mask>
                <path fill="#50BE87" d="M49.296 137.618l-.647.921c-.324.461-.185 1.245.277 1.568.463.322 1.248.184 1.572-.277l.648-.921c.324-.461.185-1.245-.277-1.568-.463-.322-.856-.253-1.573.277" mask="url(#dl)"/>
            </g>
            <g transform="translate(0 .216)">
                <mask id="dn" fill="#fff">
                    <use xlink:href="#dm"/>
                </mask>
                <path fill="#50BE87" d="M54.8 129.783c-.392.07-1.11.6-1.04.99 0 0-.324.462-.255.853.139.784.602 1.107 1.388.97.393-.07 1.11-.6 1.04-.992-.07-.392.255-.853.186-1.245 0 0-.925-.645-1.319-.576" mask="url(#dn)"/>
            </g>
            <g transform="translate(0 .216)">
                <mask id="dp" fill="#fff">
                    <use xlink:href="#do"/>
                </mask>
                <path fill="#50BE87" d="M48.812 128.008c-1.572.277-1.157 2.627.416 2.35 1.572-.276 1.157-2.627-.416-2.35" mask="url(#dp)"/>
            </g>
            <g transform="translate(0 .216)">
                <mask id="dr" fill="#fff">
                    <use xlink:href="#dq"/>
                </mask>
                <path fill="#50BE87" d="M52.879 148.702c.07.393.07.393 0 0l-.324.461c-.393.07-.323.461-.647.922-.325.461-.186 1.245.277 1.567.462.323 1.249.185 1.572-.276 0 0 .394-.07.324-.46.393-.07.324-.462.647-.923.324-.46.186-1.244-.277-1.567-.462-.322-.856-.253-1.572.276" mask="url(#dr)"/>
            </g>
            <g transform="translate(0 .216)">
                <mask id="dt" fill="#fff">
                    <use xlink:href="#ds"/>
                </mask>
                <path fill="#50BE87" d="M60.094 141.376c-.462-.324-1.179.207-1.503.667l-.324.461-.647.922c-.324.46.208 1.175.67 1.498.462.323 1.18-.207 1.503-.668l.324-.46.647-.922c.324-.461-.207-1.176-.67-1.498" mask="url(#dt)"/>
            </g>
            <g transform="translate(0 .216)">
                <mask id="dv" fill="#fff">
                    <use xlink:href="#du"/>
                </mask>
                <path fill="#50BE87" d="M63.124 135.592c-.393.069-.393.069-.716.53l-.394.069c-.393.068-.717.53-.578 1.313.07.392.6 1.106 1.387.968.393-.069.393-.069.717-.53l.393-.069c.393-.069.717-.53.578-1.313-.138-.784-.6-1.107-1.387-.968" mask="url(#dv)"/>
            </g>
            <g transform="translate(0 .216)">
                <mask id="dx" fill="#fff">
                    <use xlink:href="#dw"/>
                </mask>
                <path fill="#87B2D3" d="M58.867 157.345c-.325.461-1.041.99-1.365 1.452-.324.46-.185 1.245.277 1.567.463.322 1.249.184 1.573-.276l.323-.461.393-.07s.394-.069.325-.46c.323-.461.578-1.313.116-1.637-.533-.713-.926-.645-1.642-.115" mask="url(#dx)"/>
            </g>
            <g transform="translate(0 .216)">
                <mask id="dz" fill="#fff">
                    <use xlink:href="#dy"/>
                </mask>
                <path fill="#50BE87" d="M62.405 149.856c-.324.461-.578 1.314-.902 1.774-.323.461.208 1.175.67 1.498.463.323 1.18-.207 1.504-.667-.07-.393.324-.461.254-.854 0 0-.069-.39.324-.46.324-.461.185-1.244-.277-1.567-.463-.323-1.248-.185-1.573.276" mask="url(#dz)"/>
            </g>
            <g transform="translate(0 .216)">
                <mask id="dB" fill="#fff">
                    <use xlink:href="#dA"/>
                </mask>
                <path fill="#50BE87" d="M68.28 139.533c-.463-.323-1.18.207-1.503.668.069.392-.323.461-.254.853-.324.46-.579 1.313-.116 1.636.462.323 1.317.576 1.641.115.717-.53.972-1.382 1.226-2.235-.393.07-.531-.714-.994-1.037" mask="url(#dB)"/>
            </g>
            <g transform="translate(0 .216)">
                <mask id="dD" fill="#fff">
                    <use xlink:href="#dC"/>
                </mask>
                <path fill="#50BE87" d="M67.838 155.365c-.716.53-1.433 1.06-1.688 1.912-.324.46.208 1.175.67 1.498.463.323 1.18-.207 1.504-.668.393-.07.324-.46.716-.53.324-.461.578-1.313.116-1.636-.138-.784-.993-1.038-1.318-.576" mask="url(#dD)"/>
            </g>
            <g transform="translate(0 .216)">
                <mask id="dF" fill="#fff">
                    <use xlink:href="#dE"/>
                </mask>
                <path fill="#50BE87" d="M70.73 148.797c.07.392.07.392 0 0-.717.53-1.041.991-.902 1.774.07.392.6 1.107 1.387.969.786-.138 1.11-.6 1.433-1.06.325-.46.186-1.245-.276-1.567-.532-.715-1.318-.577-1.642-.116" mask="url(#dF)"/>
            </g>
            <g transform="translate(0 .216)">
                <mask id="dH" fill="#fff">
                    <use xlink:href="#dG"/>
                </mask>
                <path fill="#50BE87" d="M74.153 142.944l-.647.922c-.324.461-.186 1.244.277 1.567.462.323 1.248.185 1.572-.276l.647-.922c.324-.46.185-1.244-.277-1.567-.462-.322-1.248-.185-1.572.276" mask="url(#dH)"/>
            </g>
            <g transform="translate(0 .216)">
                <mask id="dJ" fill="#fff">
                    <use xlink:href="#dI"/>
                </mask>
                <path fill="#50BE87" d="M76.672 152.6c-.393.07-.717.53-1.04.991 0 0 .068.392-.325.461-.323.46-.185 1.245.277 1.567.464.323 1.25.184 1.573-.276.323-.461.648-.922.509-1.705.255-.853-.6-1.107-.994-1.037" mask="url(#dJ)"/>
            </g>
            <g transform="translate(0 .216)">
                <mask id="dL" fill="#fff">
                    <use xlink:href="#dK"/>
                </mask>
                <path fill="#50BE87" d="M78.453 146.632s-.393.07 0 0c-.647.922-.51 1.706-.047 2.028.463.323 1.25.184 1.573-.277l.323-.46c.324-.461.186-1.244-.277-1.567-.462-.323-1.248-.185-1.572.276" mask="url(#dL)"/>
            </g>
            <g transform="translate(0 .216)">
                <mask id="dN" fill="#fff">
                    <use xlink:href="#dM"/>
                </mask>
                <path fill="#87B2D3" d="M48.485 155.938s-.394.07 0 0l-.324.461c-.393.07-.324.46-.648.922-.324.46-.185 1.244.278 1.567.462.322 1.248.184 1.571-.276 0 0 .394-.07.325-.461.393-.07.324-.462.647-.922.324-.461.185-1.245-.277-1.567-.925-.645-1.318-.576-1.572.276" mask="url(#dN)"/>
            </g>
            <g transform="translate(0 .216)">
                <mask id="dP" fill="#fff">
                    <use xlink:href="#dO"/>
                </mask>
                <path fill="#FFB327" d="M90.823 83.234l-1.207-6.848a.733.733 0 0 0-.846-.592l-2.279.4a.73.73 0 0 0-.594.843l.609 3.451-2.502.438.32 1.82 2.503-.438.277 1.577a5.032 5.032 0 0 0-2.307 5.148c.482 2.74 3.103 4.572 5.852 4.09 2.75-.48 4.587-3.092 4.104-5.832a5.046 5.046 0 0 0-3.93-4.057" mask="url(#dP)"/>
            </g>
            <g transform="translate(0 .216)">
                <mask id="dR" fill="#fff">
                    <use xlink:href="#dQ"/>
                </mask>
                <path fill="#B7B7B7" d="M94.865 57.672S93.47 43.453 82.878 44.26c-10.592.805-8.63 10.787-8.63 10.787l1.819-.414s-2.015-7.092 5.081-8.854c7.223-1.793 10.432 3.848 11.77 12.235l1.947-.34z" mask="url(#dR)"/>
            </g>
            <g transform="translate(0 .216)">
                <mask id="dT" fill="#fff">
                    <use xlink:href="#dS"/>
                </mask>
                <path fill="#B7B7B7" d="M79.057 45.831c-1.109.506-2.01 1.207-2.695 2.102-1.679 2.192-1.664 5.032-1.552 6.31l.477-.108c-.196-1.141-.39-3.527.837-5.637.667-1.147 1.65-2.039 2.933-2.667m14.402 11.42l.669-.117c-.176-1.14-.68-3.723-1.891-6.214-1.33-2.732-3.08-4.545-5.23-5.422.318.15.626.322.923.518 2.712 1.788 4.523 5.467 5.53 11.235m1.52 1.068l-1.948.34a.658.658 0 0 1-.765-.543c-.438-2.749-1.064-5.05-1.858-6.84-.854-1.923-1.932-3.325-3.206-4.165-1.601-1.055-3.53-1.283-5.895-.695-1.9.471-3.26 1.393-4.044 2.74-1.373 2.361-.571 5.267-.563 5.297a.653.653 0 0 1-.488.819l-1.818.414a.654.654 0 0 1-.506-.09.653.653 0 0 1-.287-.424c-.038-.188-.877-4.646 1.705-8.027 1.598-2.092 4.128-3.283 7.521-3.54 4.625-.353 8.293 1.99 10.61 6.773 1.704 3.519 2.068 7.08 2.083 7.23a.658.658 0 0 1-.542.711" mask="url(#dT)"/>
            </g>
            <g transform="translate(0 .216)">
                <mask id="dV" fill="#fff">
                    <use xlink:href="#dU"/>
                </mask>
                <path fill="#4E251C" d="M97.12 77.009L78.8 80.216c-2.15.376-4.217-1.07-4.595-3.211l-2.543-14.43c-.377-2.142 1.072-4.203 3.223-4.579l18.32-3.207c2.149-.376 4.217 1.069 4.594 3.211l2.543 14.43c.377 2.142-1.073 4.203-3.222 4.579" mask="url(#dV)"/>
            </g>
            <g transform="translate(0 .216)">
                <mask id="dX" fill="#fff">
                    <use xlink:href="#dW"/>
                </mask>
                <path fill="#CE4A37" d="M97.632 76.92l-17.418 3.048c-2.15.376-4.217-1.069-4.595-3.211l-2.543-14.43c-.377-2.142 1.073-4.202 3.222-4.579L93.716 54.7c2.149-.377 4.217 1.068 4.594 3.211l2.543 14.43c.377 2.142-1.072 4.202-3.221 4.579" mask="url(#dX)"/>
            </g>
            <g transform="translate(0 .216)">
                <mask id="dZ" fill="#fff">
                    <use xlink:href="#dY"/>
                </mask>
                <path fill="#DC891A" d="M93.606 66.968c.608 3.446-1.703 6.729-5.16 7.334-3.457.606-6.752-1.697-7.358-5.142-.608-3.446 1.702-6.73 5.16-7.334 3.456-.605 6.751 1.697 7.358 5.142" mask="url(#dZ)"/>
            </g>
            <g transform="translate(0 .216)">
                <mask id="eb" fill="#fff">
                    <use xlink:href="#ea"/>
                </mask>
                <path fill="#FFB327" d="M92.836 67.103c.606 3.446-1.704 6.729-5.16 7.334-3.457.605-6.752-1.697-7.36-5.142-.606-3.446 1.704-6.73 5.161-7.334 3.457-.605 6.751 1.697 7.359 5.142" mask="url(#eb)"/>
            </g>
            <g transform="translate(0 .216)">
                <mask id="ed" fill="#fff">
                    <use xlink:href="#ec"/>
                </mask>
                <path fill="#DC891A" d="M93.104 87.435a3.197 3.197 0 0 1-2.605 3.701 3.206 3.206 0 0 1-3.713-2.595 3.197 3.197 0 0 1 2.604-3.701 3.205 3.205 0 0 1 3.714 2.595" mask="url(#ed)"/>
            </g>
            <g transform="translate(0 .216)">
                <mask id="ef" fill="#fff">
                    <use xlink:href="#ee"/>
                </mask>
                <path fill="#F1F1F1" d="M92.714 87.503a3.197 3.197 0 0 1-2.604 3.7 3.205 3.205 0 0 1-3.713-2.594 3.196 3.196 0 0 1 2.604-3.701 3.205 3.205 0 0 1 3.713 2.595" mask="url(#ef)"/>
            </g>
            <g transform="translate(0 .216)">
                <mask id="eh" fill="#fff">
                    <use xlink:href="#eg"/>
                </mask>
                <path fill="#F1F1F1" d="M89.006 84.94a3.168 3.168 0 0 0-2.576 3.663 3.177 3.177 0 0 0 3.675 2.569 3.167 3.167 0 0 0 2.577-3.664 3.176 3.176 0 0 0-3.676-2.568m1.11 6.296a3.242 3.242 0 0 1-3.751-2.622 3.233 3.233 0 0 1 2.63-3.739 3.243 3.243 0 0 1 3.752 2.623 3.233 3.233 0 0 1-2.63 3.738" mask="url(#eh)"/>
            </g>
            <g transform="translate(0 .216)">
                <mask id="ej" fill="#fff">
                    <use xlink:href="#ei"/>
                </mask>
                <path fill="#FFDD4D" d="M96.556 94.415a8.972 8.972 0 0 1-2.073-1.522c-.276-.272-.744.117-.465.393a9.504 9.504 0 0 0 2.188 1.626c.342.183.695-.311.35-.497" mask="url(#ej)"/>
            </g>
            <g transform="translate(0 .216)">
                <mask id="el" fill="#fff">
                    <use xlink:href="#ek"/>
                </mask>
                <path fill="#FFDD4D" d="M98.256 91.033a17.963 17.963 0 0 1-2.258-.563c-.374-.12-.587.45-.213.569.791.252 1.596.451 2.413.599.387.07.441-.535.058-.605" mask="url(#el)"/>
            </g>
            <g transform="translate(0 .216)">
                <mask id="en" fill="#fff">
                    <use xlink:href="#em"/>
                </mask>
                <path fill="#FFDD4D" d="M98.034 86.105l-2.14.483c-.381.085-.278.683.105.597l2.14-.481c.381-.087.278-.685-.105-.599" mask="url(#en)"/>
            </g>
            <g transform="translate(0 .216)">
                <mask id="ep" fill="#fff">
                    <use xlink:href="#eo"/>
                </mask>
                <path fill="#FFDD4D" d="M85.74 93.15a9.212 9.212 0 0 0-2.426 1.865c-.262.283.127.75.394.463a8.73 8.73 0 0 1 2.293-1.78c.343-.183.086-.733-.261-.547" mask="url(#ep)"/>
            </g>
            <g transform="translate(0 .216)">
                <mask id="er" fill="#fff">
                    <use xlink:href="#eq"/>
                </mask>
                <path fill="#FFDD4D" d="M83.523 90.125c-.772.023-1.539.098-2.3.232-.316.055-.23.544.086.488.716-.125 1.44-.204 2.166-.226.317-.01.368-.504.048-.494" mask="url(#er)"/>
            </g>
            <g transform="translate(0 .216)">
                <mask id="et" fill="#fff">
                    <use xlink:href="#es"/>
                </mask>
                <path fill="#FFDD4D" d="M83.724 86.374c-.332-.213-.726-.321-1.094-.454-.416-.152-.832-.304-1.25-.455-.368-.134-.579.435-.21.569l1.14.415c.348.127.75.22 1.064.421.329.212.68-.284.35-.496" mask="url(#et)"/>
            </g>
            <g transform="translate(0 .216)">
                <mask id="ev" fill="#fff">
                    <use xlink:href="#eu"/>
                </mask>
                <path fill="#FFDD4D" d="M95.845 82.124a16.054 16.054 0 0 0-2.189 1.64c-.29.26.101.725.394.463a15.255 15.255 0 0 1 2.056-1.555c.327-.205.07-.757-.261-.548" mask="url(#ev)"/>
            </g>
            <g transform="translate(0 .216)">
                <mask id="ex" fill="#fff">
                    <use xlink:href="#ew"/>
                </mask>
                <path fill="#FFDD4D" d="M93.36 96.828l-.76-2.34c-.128-.398-.718-.116-.59.278l.759 2.341c.128.397.718.116.59-.279" mask="url(#ex)"/>
            </g>
            <g transform="translate(0 .216)">
                <mask id="ez" fill="#fff">
                    <use xlink:href="#ey"/>
                </mask>
                <path fill="#FFDD4D" d="M88.962 94.728l-.079 2.3c-.014.417.637.48.652.061l.078-2.299c.014-.417-.637-.48-.651-.062" mask="url(#ez)"/>
            </g>
            <g fill="#FFF">
                <path d="M28.394 39.346l6.378 3.158c1.839.91 3.462-1.84 1.616-2.754l-6.378-3.158c-1.839-.91-3.462 1.84-1.616 2.754M25.651 59l7.98 1.489c2.014.375 2.876-2.699.852-3.076l-7.981-1.487c-2.013-.376-2.876 2.697-.85 3.075M27.682 78.565l7.953-.63c2.04-.161 2.057-3.352 0-3.19l-7.953.63c-2.04.161-2.057 3.352 0 3.19M40.898 22.011l3.75 4.735c.536.676 1.702.558 2.263 0 .67-.669.537-1.578 0-2.256l-3.75-4.734c-.535-.677-1.702-.559-2.263 0-.67.668-.537 1.577 0 2.255M63.862 14.43l1.051 2.649c.318.8 1.07 1.36 1.969 1.113.764-.21 1.436-1.156 1.118-1.961l-1.052-2.649c-.317-.8-1.07-1.36-1.968-1.114-.765.21-1.438 1.156-1.118 1.962M128.473 108.423l7.418.673c2.05.186 2.038-3.005 0-3.19l-7.418-.673c-2.05-.186-2.037 3.005 0 3.19M118.845 122.546l4.223 2.162c1.829.936 3.45-1.815 1.615-2.754l-4.222-2.162c-1.83-.936-3.45 1.816-1.616 2.754"/>
            </g>
        </g>
        <g transform="translate(120 11)">
            <circle cx="20" cy="20" r="20" fill="#32C832"/>
            <path fill="#FFF" fill-rule="nonzero" d="M11.76 16.202L8 19.963l9.303 9.303a1 1 0 0 0 1.44-.026l14.505-15.621L29.35 10 17.895 22.337l-6.134-6.135z"/>
        </g>
    </g>
</svg>
