<svg xmlns="http://www.w3.org/2000/svg" width="99" height="99" viewBox="0 0 99 99">
    <g fill="none" fill-rule="evenodd">
        <g>
            <g>
                <g transform="translate(-138 -259) translate(15 209) translate(123 50)">
                    <circle cx="49.5" cy="49.5" r="49.5" fill="#32C832"/>
                    <path fill="#FFF" fill-rule="nonzero" d="M42.853 63.719c.267 0 .481-.08.641-.24l24.023-24.024c.214-.213.32-.454.32-.72 0-.267-.106-.481-.32-.641l-2.242-2.322c-.213-.16-.453-.24-.72-.24-.267 0-.48.08-.641.24l-21.06 21.14-7.768-7.767c-.16-.214-.374-.32-.64-.32-.268 0-.508.106-.721.32l-2.243 2.242c-.213.213-.32.454-.32.72 0 .267.107.48.32.641l10.65 10.73c.214.16.455.24.721.24z"/>
                </g>
            </g>
        </g>
    </g>
</svg>
