<svg xmlns="http://www.w3.org/2000/svg" xmlns:xlink="http://www.w3.org/1999/xlink" width="25" height="25" viewBox="0 0 25 25">
    <defs>
        <path id="a" d="M22.059 8.088h-.613C20.083 3.362 16.591 0 12.5 0 8.409 0 4.917 3.362 3.554 8.088H2.94A2.941 2.941 0 0 0 0 11.03v2.942a2.941 2.941 0 0 0 2.941 2.94h.613C4.917 21.639 8.409 25 12.5 25c4.091 0 7.583-3.362 8.946-8.088h.613A2.941 2.941 0 0 0 25 13.97v-2.942a2.941 2.941 0 0 0-2.941-2.94zm-2.15 8.824c-.162.501-.354.993-.577 1.47H14.58a2.206 2.206 0 1 0 0 1.47h3.932c-.134.204-.275.402-.421.594-.754.985-1.622 1.754-2.582 2.285-.96.53-1.97.798-3.009.798s-2.05-.268-3.009-.798c-.958-.53-1.828-1.3-2.582-2.285-.776-1.015-1.388-2.204-1.817-3.533a14.314 14.314 0 0 1-.68-4.413c0-1.534.229-3.018.68-4.412.119-.368.252-.726.399-1.072.178-.42.616-.667 1.068-.602 1.14.162 3.185.786 5.941 2.968 3.337 2.643 6.882 1.915 7.976 1.286.075.608.112 1.22.112 1.832a14.31 14.31 0 0 1-.68 4.412z"/>
    </defs>
    <g fill="none" fill-rule="evenodd">
        <mask id="b" fill="#fff">
            <use xlink:href="#a"/>
        </mask>
        <g fill="#FFF" mask="url(#b)">
            <path d="M0 0h25v25H0z"/>
        </g>
    </g>
</svg>
