<svg xmlns="http://www.w3.org/2000/svg" width="18" height="21" viewBox="0 0 18 21">
    <path fill="#FF7900" fill-rule="nonzero" d="M17.281 6.75H16.5v2.5h.781c.13 0 .241.046.332.137a.452.452 0 0 1 .137.332v1.562c0 .13-.046.241-.137.332a.452.452 0 0 1-.332.137H16.5v2.5h.781c.13 0 .241.046.332.137a.452.452 0 0 1 .137.332v1.562c0 .13-.046.241-.137.332a.452.452 0 0 1-.332.137H16.5v1.875c0 .52-.182.964-.547 1.328a1.808 1.808 0 0 1-1.328.547h-12.5c-.52 0-.964-.182-1.328-.547a1.808 1.808 0 0 1-.547-1.328V2.375c0-.52.182-.964.547-1.328A1.808 1.808 0 0 1 2.125.5h12.5c.52 0 .964.182 1.328.547.365.364.547.807.547 1.328V4.25h.781c.13 0 .241.046.332.137a.452.452 0 0 1 .137.332V6.28c0 .13-.046.241-.137.332a.452.452 0 0 1-.332.137zM8.375 5.5c-.677 0-1.263.247-1.758.742-.495.495-.742 1.08-.742 1.758 0 .677.247 1.263.742 1.758.495.495 1.08.742 1.758.742.677 0 1.263-.247 1.758-.742.495-.495.742-1.08.742-1.758 0-.677-.247-1.263-.742-1.758-.495-.495-1.08-.742-1.758-.742zm4.375 9.258v-.742c0-.625-.254-1.16-.762-1.602-.508-.443-1.126-.664-1.855-.664h-.196a3.986 3.986 0 0 1-1.562.313 3.986 3.986 0 0 1-1.563-.313h-.195c-.729 0-1.347.221-1.855.664-.508.443-.762.977-.762 1.602v.742c0 .208.085.384.254.527.17.143.371.215.605.215h7.032a.907.907 0 0 0 .605-.215.665.665 0 0 0 .254-.527z"/>
</svg>
