<svg xmlns="http://www.w3.org/2000/svg" width="40" height="40" viewBox="0 0 40 40">
    <path fill="#595959" fill-rule="nonzero" d="M29.558 31.25V14.27H16.269v16.98h13.289zm0-19.366c.644 0 1.212.237 1.704.71S32 13.626 32 14.269v16.98c0 .644-.246 1.212-.738 1.704s-1.06.738-1.704.738H16.269c-.643 0-1.211-.246-1.704-.738-.492-.492-.738-1.06-.738-1.704V14.27c0-.643.246-1.202.738-1.675.493-.473 1.06-.71 1.704-.71h13.289zM25.923 7v2.442H11.385v16.98H9V9.442c0-.644.237-1.212.71-1.704S10.742 7 11.385 7h14.538z"/>
</svg>
