<svg xmlns="http://www.w3.org/2000/svg" xmlns:xlink="http://www.w3.org/1999/xlink" width="129" height="109" viewBox="0 0 129 109">
    <defs>
        <circle id="a" cx="62" cy="59" r="50"/>
        <path id="c" d="M.008 0h76.834v74.133H.008z"/>
        <path id="e" d="M.019.182h76.833v74.132H.02z"/>
        <path id="g" d="M0 220h119.796V.182H0z"/>
        <path id="h" d="M.024 13.632l16.11 12.986 10.83-13.436L10.854.196"/>
        <path id="j" d="M.024 13.632l16.11 12.986 10.83-13.436L10.854.196"/>
        <path id="l" d="M.024 13.632l16.11 12.986 10.83-13.436L10.854.196"/>
        <path id="n" d="M.024 13.632l16.11 12.986 10.83-13.436L10.854.196z"/>
        <path id="p" d="M.024 13.632l16.11 12.986 10.83-13.436L10.854.196z"/>
        <path id="r" d="M.024 13.632l16.11 12.986 10.83-13.436L10.854.196z"/>
        <path id="t" d="M.024 13.632l16.11 12.986 10.83-13.436L10.854.196z"/>
        <path id="v" d="M.024 13.632l16.11 12.986 10.83-13.436L10.854.196z"/>
        <path id="x" d="M.024 13.632l16.11 12.986 10.83-13.436L10.854.196"/>
        <path id="z" d="M.024 13.632l16.11 12.986 10.83-13.436L10.854.196z"/>
        <path id="B" d="M.024 13.632l16.11 12.986 10.83-13.436L10.854.196z"/>
        <path id="D" d="M.024 13.632l16.11 12.986 10.83-13.436L10.854.196z"/>
        <path id="F" d="M0 0h129v84H0z"/>
        <path id="H" d="M.009.137h46.28v54.82H.01z"/>
        <path id="J" d="M0 .259h42.867v54.36H0z"/>
        <path id="L" d="M0 229h119.796V9.182H0z"/>
    </defs>
    <g fill="none" fill-rule="evenodd">
        <mask id="b" fill="#fff">
            <use xlink:href="#a"/>
        </mask>
        <use fill="#A885D8" fill-rule="nonzero" xlink:href="#a"/>
        <g mask="url(#b)">
            <path fill="#8F8F8F" d="M90.035 94.422l-.007.009.007-.009z"/>
            <path fill="#3F403F" d="M106.896 63.731a2.385 2.385 0 1 1-4.771 0 2.385 2.385 0 0 1 4.77 0"/>
            <path fill="#714F47" d="M25.158 88.034c-.12-1.064-6.116-1.107-6.116-1.107s-1.754 12.817-2.298 17.222c-.759.52-2.352 1.634-2.95 1.867-1.795.699-3.706 1.504-4.876 2.174-.873.5-2.117 1.552-2.564 2.213-.94 1.394-.384 2.373.293 2.064.998-.457 3.774-1.798 3.774-1.798-1.46 1.12-3.346 3.148-2.934 3.724.127.176.864-.231 2.424-1.546 4.644-3.912 7.347-4.367 7.347-4.367s-.308 1.327-.727 2.393c-.293.745.507 1.063.724 1.016.465-.099 1.35-3.94 1.942-5.161.355-.734-.03-1.44-.395-1.889 1.3-3.18 6.46-15.874 6.356-16.805"/>
            <path fill="#FFD200" d="M37.494 98.629l-5.675 53.294 7.612 1.21 8.09-38.365c.246-.613 1.158-.43 1.149.23l-2.666 39s3.473.702 6.4-.518c2.927-1.22 8.995-57.29 8.995-57.29s-18.295-3.66-23.905 2.439"/>
            <path fill="#000" d="M45.658 127.879l12.282-1.903c4.318-.532 4.487-28.405 3.906-32.717-3.215-23.848 1.288-20.495.748-25.448 0 0-4.827-11.756-10.634-11.143l-7.284.689-9.76 2.89-7.104 5.72c-5.11 4.155-.783 13.446-.783 13.446s8.423 16.119 3.926 45.871c-.555 3.669 11.02 3.049 14.703 2.595"/>
            <path fill="#62352D" d="M31.351 53.587c1.77 3.608 3.839 10.507 4.005 10.727.163.217 3.272 2.077 5.081 3.44.455.343 1.304.118 1.636-.436 1.165-1.945 1.042-2.677 2.556-5.468-.498-1.849-2.83-9.01-3.831-11.565a20.475 20.475 0 0 1-7.377 3.191M24.52 47.617c-.438-.964-1.75-1.319-2.72-.897-.234.102-.462.25-.582.475-.16.295-.102.657-.018.981.489 1.894 1.728 3.502 3.056 4.938.514.557 1.105 1.127 1.856 1.233.276.039.593-.005.768-.222.106-.13.143-.301.172-.466a6.527 6.527 0 0 0 .016-2.08M41.041 42.97a5.014 5.014 0 0 1 .383-2.493c.07-.161.155-.326.302-.42a.75.75 0 0 1 .439-.092c.604.026 1.154.396 1.52.877.367.48.574 1.062.736 1.645a13.69 13.69 0 0 1 .404 5.26c-.045.382-.11.775-.323 1.095-.212.32-.607.548-.979.454-.402-.101-.63-.514-.81-.887"/>
            <path fill="#020202" d="M24.608 50.204c-1.759-4.093-4.746-10.766-4.792-11.985-.093-2.416.167-6.856 7.261-10.075 4.397-1.995 10.805.095 12.108 2.649.337.66 3.318 10.493 3.823 14.646a91.525 91.525 0 0 0-13.288 4.598"/>
            <path fill="#714F47" d="M39.571 37.821c-.877-1.655-.584-.861-2.504-3.177-.565-.681-3.974-.11-7.236.819-3.292.937-6.554 2.36-7.08 3.713 0 0 .468 1.94.397 3.468-.146 3.148 1.002 7.387 1.576 8.402.282.496 1.36 2.043 2.857 3.951 1.085.882 4.055 3.546 9.19 5.14.448-.047.898-.097 1.342-.196.936-.21 1.92-.713 2.738-1.321 1.324-2.648 2.388-5.393 2.69-8.412-.126-1.894-.332-3.37-.53-3.947-.503-1.471-1.906-5.547-3.44-8.44"/>
            <path fill="#62352D" d="M29.282 44.579s-.018-.026-.058-.07a1.096 1.096 0 0 0-.203-.175c-.194-.132-.557-.281-1.058-.253a2.302 2.302 0 0 0-.773.176c-.257.108-.5.268-.739.45-.467.375-1.037.76-1.244 1.262l.007-.082a.969.969 0 0 1 .074-.238c.09-.207.317-.497.665-.81.172-.155.362-.327.613-.496.246-.166.573-.33.952-.401.372-.073.78-.062 1.111.055.33.114.573.329.653.582M39.348 41.294s-.012-.029-.046-.073a.586.586 0 0 0-.195-.157c-.202-.102-.551-.215-.998-.264a2.62 2.62 0 0 0-1.602.355 2.347 2.347 0 0 0-.684.663c-.094.131-.186.27-.277.407-.086.134-.167.276-.127.392.004.005-.102-.085 0-.333.048-.12.115-.26.202-.426a2.5 2.5 0 0 1 .399-.561c.384-.417 1.128-.743 1.799-.735.335 0 .648.07.923.185.262.114.569.262.606.547M31.812 49.308c1.692.356 3.56-.325 4.626-1.687a2.38 2.38 0 0 1-.471 2.111c-.174.206-.382.38-.604.532-.386.261-.826.456-1.29.5-.932.091-1.89-.499-2.227-1.372M31.92 48.184l.011-.161c.008-.105.024-.257.028-.452a9.478 9.478 0 0 0-.07-1.598 9.975 9.975 0 0 0-1.047-3.357c-.099-.197-.213-.388-.325-.585-.117-.192-.237-.379-.41-.521 0 0 .048.015.134.063.086.048.207.135.343.269.265.268.633.683.963 1.279.333.59.62 1.365.726 2.252a5.83 5.83 0 0 1-.353 2.81"/>
            <path fill="#020202" d="M28.034 40.317l-.112.034c-.035.009-.079.024-.128.043l-.08.029-.086.038c-.244.104-.555.297-.9.569-.346.272-.73.624-1.163 1.01-.43.39-.921.801-1.455 1.228 0 0 0-.166.072-.446.072-.279.21-.67.477-1.093a3.73 3.73 0 0 1 1.25-1.231c.29-.173.636-.309 1.01-.364a2.13 2.13 0 0 1 .575 0c.19.03.377.09.54.183M33.199 39.033l.118-.054c.037-.018.084-.038.14-.059l.087-.035.101-.034c.282-.098.687-.179 1.18-.228.495-.049 1.083-.067 1.738-.097a40.19 40.19 0 0 0 2.146-.148s-.128-.118-.403-.267a4.542 4.542 0 0 0-1.234-.445 4.724 4.724 0 0 0-1.979.002 3.468 3.468 0 0 0-1.114.451c-.174.115-.338.25-.475.404-.135.156-.242.33-.305.51M36.771 60.138s2.215 1.395 2.752 1.211c.665-.227.513-.67 1.334-2.428.043-.092.072-.24-.006-.302-1.06-.825-4.184 1.297-4.08 1.519"/>
            <path fill="#FDD230" d="M41.758 42.12c.129.953.297 3.003-2.71 4.095-3.007 1.093-3.978-.486-4.89-1.866-.911-1.38.34-2.189.34-2.189 3.457-2.464 6.496-1.95 6.496-1.95.347.035.635.954.764 1.91m-10.235 3.02c-.003 1.654.056 3.506-3.055 4.25-3.11.744-4.098-1.06-4.516-1.928-.417-.867-.685-1.795-.413-2.014 0 0 2.253-2.101 6.496-1.95 0 0 1.491-.014 1.488 1.641m1.82-3.423s-.133 1.009-1.036 1.254c-.887.291-1.55-.477-1.55-.477-5.681-.05-9.197 3.092-9.197 3.092l.238.792c.294.626 1.057.728 1.057.728.667 1.606 2.017 4.274 6.083 3.055 4.067-1.22 3.277-3.675 3.297-4.572.02-.898.564-.984.564-.984s.503-.227 1.012.51c.51.739 1.204 3.224 5.27 2.003 4.066-1.22 3.724-4.193 3.395-5.9 0 0 .583-.506.482-1.187l-.239-.796s-4.664-.686-9.375 2.482"/>
            <path fill="#000" d="M41.759 42.12c.128.953.296 3.003-2.71 4.095-3.007 1.093-3.978-.486-4.89-1.866-.912-1.38.34-2.189.34-2.189 3.456-2.464 6.495-1.95 6.495-1.95.348.035.635.954.765 1.91m-10.236 3.02c-.002 1.654.056 3.506-3.054 4.25-3.11.744-4.1-1.06-4.517-1.928-.417-.867-.685-1.795-.413-2.014 0 0 2.253-2.101 6.496-1.95 0 0 1.491-.014 1.488 1.641"/>
            <path fill="#FFF" d="M30.819 53.082s5.288.519 8.096-1.672c0 0-.15 7.879-8.096 1.672"/>
            <path fill="#62352D" d="M39.044 55.47l-.015.126a1.988 1.988 0 0 1-.082.353 2.456 2.456 0 0 1-.756 1.081 2.604 2.604 0 0 1-1.817.607 2.48 2.48 0 0 1-1.04-.309 4.006 4.006 0 0 1-.841-.633s.169 0 .452.027c.282.022.68.079 1.104.074.416-.01.873-.085 1.38-.276.252-.095.516-.217.788-.382.272-.166.554-.374.827-.667"/>
            <path fill="#020202" d="M20.012 38.497s-3.764-3.295-2.017-3.55c1.747-.253-.573-3.012 1.279-2.958 1.852.054.558-3.056 2.483-2.454 1.925.601 1.176-2.924 2.793-2.217 1.618.707 2.24-2.83 3.725-1.505 1.486 1.325 2.273-3.07 3.456-.954 1.183 2.117 2.693-1.839 3.876.278 1.183 2.116 2.63-1.36 3.13 1.106.5 2.464 2.872-.983 2.349 2.175-.524 3.159-1.764 6.563-1.314 7.21.451.649-3.359-4.12-4.49-4.077-1.13.043-9.064 2.645-9.064 2.645l-6.206 4.301z"/>
            <path fill="#000" d="M48.945 57.388s10.612-8.724 13.59-8.985c2.978-.26 10.478.079 10.076 4.61-.403 4.53 2.03 10.555 2.03 10.555s-20.559 11.136-20.98 11.71c-.421.574-6.806-15.413-4.716-17.89"/>
            <path fill="#62352D" d="M52.844 53.944l8.593-3.773 19.216-36.949 19.807 10.665 6.577-3.22 3.71 4.012s-7.203 8.908-8.873 11.3c-1.67 2.391-25.604 23.475-25.604 23.475l-11.685 2.551s-11.317-1.448-11.741-8.06"/>
            <g transform="translate(42.955 6.636)">
                <mask id="d" fill="#fff">
                    <use xlink:href="#c"/>
                </mask>
                <path fill="#595A5A" d="M75.973 42.436L27.759.616a2.52 2.52 0 0 0-3.547.245L.632 27.814a2.52 2.52 0 0 0 .238 3.557l48.226 42.14a2.52 2.52 0 0 0 3.565-.25l23.567-27.274a2.52 2.52 0 0 0-.255-3.551" mask="url(#d)"/>
            </g>
            <g transform="translate(42.727 5.045)">
                <mask id="f" fill="#fff">
                    <use xlink:href="#e"/>
                </mask>
                <path fill="#8F8F8F" d="M75.983 42.617L27.77.798a2.52 2.52 0 0 0-3.548.244L.642 27.997a2.52 2.52 0 0 0 .239 3.557l48.225 42.139a2.52 2.52 0 0 0 3.565-.25L76.24 46.169a2.52 2.52 0 0 0-.256-3.552" mask="url(#f)"/>
            </g>
            <path fill="#000" d="M112.11 46.223L71.953 11.392a2.1 2.1 0 0 0-2.955.204l-19.64 22.449c-.764.873-.675 2.2.199 2.963l40.167 35.097a2.1 2.1 0 0 0 2.97-.208l19.629-22.716a2.1 2.1 0 0 0-.213-2.958"/>
            <path fill="#714F47" d="M79.362 20.222l-1.321-.79a3.653 3.653 0 0 1-1.255-4.997l3.257-5.44A3.653 3.653 0 0 1 85.04 7.74l1.32.791a3.653 3.653 0 0 1 1.255 4.997l-3.257 5.44a3.653 3.653 0 0 1-4.996 1.254"/>
            <path fill="#91766F" d="M80.402 11.941l-.067.006h-.002c-.134.01-.25.058-.307.153l-1.29 2.157c-.163.271.012.677.388.902l3.605 2.158c.376.226.817.188.979-.083l1.263-2.11c.109-.182-.008-.452-.26-.603l-4.309-2.58z"/>
            <path fill="#714F47" d="M87.586 24.76l-1.321-.791a3.653 3.653 0 0 1-1.255-4.997l3.257-5.44a3.653 3.653 0 0 1 4.996-1.255l1.322.791a3.653 3.653 0 0 1 1.254 4.996l-3.257 5.44a3.653 3.653 0 0 1-4.996 1.255"/>
            <path fill="#91766F" d="M88.626 16.478l-.067.006h-.002c-.135.01-.25.058-.307.153l-1.29 2.157c-.163.271.012.677.388.902l3.605 2.158c.376.225.817.188.979-.083l1.263-2.11c.109-.182-.008-.452-.26-.604l-4.309-2.579z"/>
            <path fill="#714F47" d="M94.851 28.986l-1.32-.79a3.653 3.653 0 0 1-1.255-4.998l3.257-5.44a3.653 3.653 0 0 1 4.996-1.254l1.321.79a3.653 3.653 0 0 1 1.255 4.997l-3.257 5.44a3.653 3.653 0 0 1-4.997 1.255"/>
            <path fill="#91766F" d="M95.892 20.705l-.067.005h-.003c-.134.01-.25.058-.306.154l-1.291 2.156c-.163.272.012.677.388.902l3.606 2.159c.376.225.816.187.978-.084l1.263-2.11c.11-.182-.007-.452-.26-.603l-4.308-2.58z"/>
            <path fill="#714F47" d="M104.846 28.557l-1.32-.79a3.653 3.653 0 0 1-1.255-4.997l3.256-5.44a3.653 3.653 0 0 1 4.997-1.255l1.321.791a3.653 3.653 0 0 1 1.254 4.996l-3.256 5.44a3.653 3.653 0 0 1-4.997 1.255"/>
            <path fill="#91766F" d="M105.886 20.276l-.067.006h-.002c-.134.01-.25.058-.306.153l-1.292 2.157c-.162.271.013.677.389.902l3.605 2.158c.377.226.817.188.98-.083l1.262-2.11c.11-.182-.007-.452-.26-.604l-4.309-2.579z"/>
            <path fill="#714F47" d="M69.361 60.306l-.373 1.494a3.653 3.653 0 0 1-4.417 2.652l-10.679-2.667a3.653 3.653 0 0 1-2.651-4.416l.373-1.494a3.653 3.653 0 0 1 4.416-2.652l10.68 2.667a3.653 3.653 0 0 1 2.651 4.416"/>
            <path fill="#91766F" d="M59.945 61.42l.038.065.002.002c.076.133.19.238.336.274l3.314.828a.79.79 0 0 0 .95-.584l1.018-4.077a.791.791 0 0 0-.564-.962l-3.242-.81a.528.528 0 0 0-.636.391l-1.216 4.872z"/>
            <path fill="#3F403F" d="M53.01 26.651l8.566-9.433M53.442 27.082l8.565-9.432c.527-.58-.333-1.445-.863-.863L52.58 26.22c-.526.58.334 1.445.863.862"/>
            <path fill="#000" d="M25.785 68.625s-4.953 9.639-7.36 17.127a3.88 3.88 0 0 0 1.37 4.288c2.225 1.673 4.136 1.709 7.406-2.213l7.122-8.183-8.538-11.02z"/>
            <path fill="#FFD200" d="M46.425 61.278c-.32-1.44-.978-2.822-2.02-3.84l-1.056.308c.004.014 1.006 2.732 1.003 3.847-.002.694-1.607 4.675-2.33 5.277-.42.523-3.707-.754-4.622-1.34-.862-.552-1.626-.902-2.26-1.789-.08-.112-.68-1.941-.995-2.917l-.94.8c-.295.529-.527 1.08-.527 1.584.01.165.035.324.08.48.08.233.196.46.338.678.082.11.178.222.29.334.281.279.579.54.883.794 2.672 1.552 6.205 4.142 8.08 4.538.353-.212.649-.535.892-.905.801-1.216 1.423-2.626 2.021-3.951.519-1.148.953-2.334 1.227-3.563-.019-.11-.04-.222-.064-.335M21.099 87.564c-1.019-.82-1.757-1.923-2.231-3.133-.155.447-.304.888-.443 1.321a3.88 3.88 0 0 0 1.37 4.288c2.015 1.515 3.772 1.687 6.513-1.205-1.866.312-3.703-.057-5.21-1.271"/>
            <path fill="#FFD200" d="M39.805 68.916l5.374 20.92 3.647-.959-4.798-21.496zM49.594 74.674l.767 2.111 6.718-1.535-.576-2.495z"/>
            <path fill="#000" d="M43.452 70.548a.864.864 0 1 1-1.728 0 .864.864 0 0 1 1.728 0M44.7 75.634a.864.864 0 1 1-1.728 0 .864.864 0 0 1 1.727 0M45.85 80.432a.864.864 0 1 1-1.727 0 .864.864 0 0 1 1.728 0M46.81 85.038a.864.864 0 1 1-1.727 0 .864.864 0 0 1 1.728 0"/>
            <g>
                <g transform="translate(65.682 27.773)">
                    <mask id="i" fill="#fff">
                        <use xlink:href="#h"/>
                    </mask>
                    <path fill="#FFF" d="M5.125 8.675l-3.233 4.011a1.045 1.045 0 1 0 1.625 1.31l1.649-2.044.631 5.94c.062.574.576.989 1.15.927.574-.063.99-.578.928-1.152l-.632-5.94 2.041 1.645a1.045 1.045 0 0 0 1.313-1.629L6.594 8.516a1.045 1.045 0 0 0-1.47.16" mask="url(#i)"/>
                </g>
                <g transform="translate(65.682 27.773)">
                    <mask id="k" fill="#fff">
                        <use xlink:href="#j"/>
                    </mask>
                    <path fill="#FF7900" d="M12.723 10.77l3.233-4.011a1.045 1.045 0 1 0-1.626-1.31l-1.648 2.044-.632-5.94A1.043 1.043 0 0 0 10.9.627c-.573.062-.989.577-.928 1.151l.632 5.94-2.04-1.645a1.045 1.045 0 0 0-1.314 1.63l4.004 3.226c.448.362 1.106.29 1.469-.16" mask="url(#k)"/>
                </g>
                <g transform="translate(65.682 27.773)">
                    <mask id="m" fill="#fff">
                        <use xlink:href="#l"/>
                    </mask>
                    <path fill="#FFF" d="M9.766 19.135c.723-.897 1.816-.886 2.675-.194.834.673 1.077 1.74.354 2.636-.723.896-1.816.885-2.65.213-.859-.692-1.102-1.758-.379-2.655m2.495 2.01c.46-.571.148-1.178-.334-1.567-.506-.408-1.165-.584-1.626-.012-.462.572-.149 1.179.357 1.587.482.388 1.141.565 1.603-.007" mask="url(#m)"/>
                </g>
                <g transform="translate(65.682 27.773)">
                    <mask id="o" fill="#fff">
                        <use xlink:href="#n"/>
                    </mask>
                    <path fill="#FFF" d="M11.999 18.139l.441-.548.39.314.006-.009a.953.953 0 0 1 .094-1.029.552.552 0 0 1 .122-.109l.534.43a1.384 1.384 0 0 0-.187.192c-.34.422-.154.812.214 1.11l.944.76-.464.577-2.094-1.688z" mask="url(#o)"/>
                </g>
                <g transform="translate(65.682 27.773)">
                    <mask id="q" fill="#fff">
                        <use xlink:href="#p"/>
                    </mask>
                    <path fill="#FFF" d="M13.813 17.206c-.512-.467-.285-1.08.095-1.551.336-.418.835-.846 1.337-.441l1.09.878c.19.153.397.286.524.302l-.47.584a1.083 1.083 0 0 1-.236-.122c.043.336-.104.66-.31.915-.32.397-.774.554-1.203.208-.474-.382-.3-.83-.06-1.227.232-.395.509-.714.274-.903-.247-.2-.42-.059-.585.144-.176.22-.202.433.009.636l-.465.577zm1.498-.989c.007.166-.152.372-.264.577-.108.208-.178.42.033.59.215.172.401.048.552-.138.363-.45.02-.755-.106-.856l-.215-.173z" mask="url(#q)"/>
                </g>
                <g transform="translate(65.682 27.773)">
                    <mask id="s" fill="#fff">
                        <use xlink:href="#r"/>
                    </mask>
                    <path fill="#FFF" d="M14.979 14.442l.441-.548.292.235.01-.012a.961.961 0 0 1 .168-.922c.494-.613.963-.49 1.481-.072l1.288 1.039-.465.576-1.182-.953c-.344-.278-.596-.314-.812-.046-.252.313-.186.587.24.93l1.097.884-.465.577-2.093-1.688z" mask="url(#s)"/>
                </g>
                <g transform="translate(65.682 27.773)">
                    <mask id="u" fill="#fff">
                        <use xlink:href="#t"/>
                    </mask>
                    <path fill="#FFF" d="M20.395 11.735c.344.277.829.869.05 1.835-.333.414-.917.74-1.417.383l.46-.572c.258.12.471.005.635-.199.258-.32.157-.642-.145-.88l-.276-.222-.007.008c.118.302.02.639-.182.89-.507.63-1.201.512-1.776.048-.543-.437-.785-1.148-.31-1.736.222-.276.485-.412.839-.354l.007-.008-.28-.226.442-.547 1.96 1.58zm-1.381-.21c-.34-.274-.74-.401-1.04-.028-.262.325-.093.695.22.946.299.242.719.393 1.003.04.265-.329.116-.716-.183-.958z" mask="url(#u)"/>
                </g>
                <g transform="translate(65.682 27.773)">
                    <mask id="w" fill="#fff">
                        <use xlink:href="#v"/>
                    </mask>
                    <path fill="#FFF" d="M20.279 10.295c.378.278.687.233.946-.087.186-.232.195-.533.095-.674l.409-.507c.363.56.296 1.075-.087 1.55-.533.661-1.317.706-1.965.184-.628-.507-.756-1.326-.242-1.963.575-.714 1.453-.576 2.064-.016l-1.22 1.513zm.391-1.23c-.334-.183-.59-.181-.815.099-.294.365-.096.699.06.837l.755-.937z" mask="url(#w)"/>
                </g>
            </g>
            <path fill="#FFF" d="M79.98 49.242l1.471 2.244-.007.008-2.534-.926-.723.897 2.892 2.331.48-.597-2.028-1.635.006-.008 2.601.925.396-.49-1.477-2.363.007-.008 2.05 1.652.48-.596-2.892-2.331z"/>
            <g>
                <g transform="translate(65.682 27.773)">
                    <mask id="y" fill="#fff">
                        <use xlink:href="#x"/>
                    </mask>
                    <path fill="#FFF" d="M16.84 19.832c.533-.661 1.313-.735 1.982-.196.664.535.758 1.314.225 1.975-.53.658-1.311.731-1.975.196-.668-.539-.762-1.317-.232-1.975m1.773 1.43c.318-.394.077-.782-.256-1.05-.336-.271-.767-.424-1.084-.03-.314.389-.073.778.263 1.048.332.268.763.421 1.077.032" mask="url(#y)"/>
                </g>
                <g transform="translate(65.682 27.773)">
                    <mask id="A" fill="#fff">
                        <use xlink:href="#z"/>
                    </mask>
                    <path fill="#FFF" d="M17.972 18.543l.442-.548.292.235.01-.012a.961.961 0 0 1 .168-.922c.494-.613.962-.49 1.48-.071l1.288 1.038-.464.576-1.183-.953c-.344-.278-.596-.314-.811-.046-.252.313-.186.587.24.93l1.097.885-.465.576-2.094-1.688z" mask="url(#A)"/>
                </g>
                <g transform="translate(65.682 27.773)">
                    <mask id="C" fill="#fff">
                        <use xlink:href="#B"/>
                    </mask>
                    <path fill="#FFF" d="M21.388 16.734c.378.277.688.232.946-.088.187-.231.195-.532.095-.673l.409-.507c.363.56.296 1.075-.087 1.55-.533.66-1.317.705-1.965.183-.628-.506-.755-1.325-.242-1.963.576-.713 1.453-.575 2.064-.016l-1.22 1.514zm.391-1.231c-.334-.183-.59-.18-.815.1-.294.364-.096.698.06.837l.755-.937z" mask="url(#C)"/>
                </g>
                <g transform="translate(65.682 27.773)">
                    <mask id="E" fill="#fff">
                        <use xlink:href="#D"/>
                    </mask>
                    <path fill="#FFF" d="M24.768 14.936c.235.397.212.707-.108 1.104a4.35 4.35 0 0 1-.305.337l-.474-.382c.096-.103.204-.204.292-.32.14-.216-.014-.447-.233-.516l-2.56-.845.498-.616 1.816.68.007-.008-1.064-1.614.48-.596 1.651 2.776z" mask="url(#E)"/>
                </g>
            </g>
        </g>
        <mask id="G" fill="#fff">
            <use xlink:href="#F"/>
        </mask>
        <g mask="url(#G)">
            <path fill="#8F8F8F" d="M90.035 94.422l-.007.009.007-.009z"/>
            <path fill="#3F403F" d="M106.896 63.731a2.385 2.385 0 1 1-4.771 0 2.385 2.385 0 0 1 4.77 0"/>
            <path fill="#714F47" d="M25.158 88.034c-.12-1.064-6.116-1.107-6.116-1.107s-1.754 12.817-2.298 17.222c-.759.52-2.352 1.634-2.95 1.867-1.795.699-3.706 1.504-4.876 2.174-.873.5-2.117 1.552-2.564 2.213-.94 1.394-.384 2.373.293 2.064.998-.457 3.774-1.798 3.774-1.798-1.46 1.12-3.346 3.148-2.934 3.724.127.176.864-.231 2.424-1.546 4.644-3.912 7.347-4.367 7.347-4.367s-.308 1.327-.727 2.393c-.293.745.507 1.063.724 1.016.465-.099 1.35-3.94 1.942-5.161.355-.734-.03-1.44-.395-1.889 1.3-3.18 6.46-15.874 6.356-16.805"/>
            <path fill="#FFD200" d="M37.494 98.629l-5.675 53.294 7.612 1.21 8.09-38.365c.246-.613 1.158-.43 1.149.23l-2.666 39s3.473.702 6.4-.518c2.927-1.22 8.995-57.29 8.995-57.29s-18.295-3.66-23.905 2.439"/>
            <path fill="#000" d="M45.658 127.879l12.282-1.903c4.318-.532 4.487-28.405 3.906-32.717-3.215-23.848 1.288-20.495.748-25.448 0 0-4.827-11.756-10.634-11.143l-7.284.689-9.76 2.89-7.104 5.72c-5.11 4.155-.783 13.446-.783 13.446s8.423 16.119 3.926 45.871c-.555 3.669 11.02 3.049 14.703 2.595"/>
            <path fill="#62352D" d="M31.351 53.587c1.77 3.608 3.839 10.507 4.005 10.727.163.217 3.272 2.077 5.081 3.44.455.343 1.304.118 1.636-.436 1.165-1.945 1.042-2.677 2.556-5.468-.498-1.849-2.83-9.01-3.831-11.565a20.475 20.475 0 0 1-7.377 3.191M24.52 47.617c-.438-.964-1.75-1.319-2.72-.897-.234.102-.462.25-.582.475-.16.295-.102.657-.018.981.489 1.894 1.728 3.502 3.056 4.938.514.557 1.105 1.127 1.856 1.233.276.039.593-.005.768-.222.106-.13.143-.301.172-.466a6.527 6.527 0 0 0 .016-2.08M41.041 42.97a5.014 5.014 0 0 1 .383-2.493c.07-.161.155-.326.302-.42a.75.75 0 0 1 .439-.092c.604.026 1.154.396 1.52.877.367.48.574 1.062.736 1.645a13.69 13.69 0 0 1 .404 5.26c-.045.382-.11.775-.323 1.095-.212.32-.607.548-.979.454-.402-.101-.63-.514-.81-.887"/>
            <path fill="#020202" d="M24.608 50.204c-1.759-4.093-4.746-10.766-4.792-11.985-.093-2.416.167-6.856 7.261-10.075 4.397-1.995 10.805.095 12.108 2.649.337.66 3.318 10.493 3.823 14.646a91.525 91.525 0 0 0-13.288 4.598"/>
            <path fill="#714F47" d="M39.571 37.821c-.877-1.655-.584-.861-2.504-3.177-.565-.681-3.974-.11-7.236.819-3.292.937-6.554 2.36-7.08 3.713 0 0 .468 1.94.397 3.468-.146 3.148 1.002 7.387 1.576 8.402.282.496 1.36 2.043 2.857 3.951 1.085.882 4.055 3.546 9.19 5.14.448-.047.898-.097 1.342-.196.936-.21 1.92-.713 2.738-1.321 1.324-2.648 2.388-5.393 2.69-8.412-.126-1.894-.332-3.37-.53-3.947-.503-1.471-1.906-5.547-3.44-8.44"/>
            <path fill="#62352D" d="M29.282 44.579s-.018-.026-.058-.07a1.096 1.096 0 0 0-.203-.175c-.194-.132-.557-.281-1.058-.253a2.302 2.302 0 0 0-.773.176c-.257.108-.5.268-.739.45-.467.375-1.037.76-1.244 1.262l.007-.082a.969.969 0 0 1 .074-.238c.09-.207.317-.497.665-.81.172-.155.362-.327.613-.496.246-.166.573-.33.952-.401.372-.073.78-.062 1.111.055.33.114.573.329.653.582M39.348 41.294s-.012-.029-.046-.073a.586.586 0 0 0-.195-.157c-.202-.102-.551-.215-.998-.264a2.62 2.62 0 0 0-1.602.355 2.347 2.347 0 0 0-.684.663c-.094.131-.186.27-.277.407-.086.134-.167.276-.127.392.004.005-.102-.085 0-.333.048-.12.115-.26.202-.426a2.5 2.5 0 0 1 .399-.561c.384-.417 1.128-.743 1.799-.735.335 0 .648.07.923.185.262.114.569.262.606.547M31.812 49.308c1.692.356 3.56-.325 4.626-1.687a2.38 2.38 0 0 1-.471 2.111c-.174.206-.382.38-.604.532-.386.261-.826.456-1.29.5-.932.091-1.89-.499-2.227-1.372M31.92 48.184l.011-.161c.008-.105.024-.257.028-.452a9.478 9.478 0 0 0-.07-1.598 9.975 9.975 0 0 0-1.047-3.357c-.099-.197-.213-.388-.325-.585-.117-.192-.237-.379-.41-.521 0 0 .048.015.134.063.086.048.207.135.343.269.265.268.633.683.963 1.279.333.59.62 1.365.726 2.252a5.83 5.83 0 0 1-.353 2.81"/>
            <path fill="#020202" d="M28.034 40.317l-.112.034c-.035.009-.079.024-.128.043l-.08.029-.086.038c-.244.104-.555.297-.9.569-.346.272-.73.624-1.163 1.01-.43.39-.921.801-1.455 1.228 0 0 0-.166.072-.446.072-.279.21-.67.477-1.093a3.73 3.73 0 0 1 1.25-1.231c.29-.173.636-.309 1.01-.364a2.13 2.13 0 0 1 .575 0c.19.03.377.09.54.183M33.199 39.033l.118-.054c.037-.018.084-.038.14-.059l.087-.035.101-.034c.282-.098.687-.179 1.18-.228.495-.049 1.083-.067 1.738-.097a40.19 40.19 0 0 0 2.146-.148s-.128-.118-.403-.267a4.542 4.542 0 0 0-1.234-.445 4.724 4.724 0 0 0-1.979.002 3.468 3.468 0 0 0-1.114.451c-.174.115-.338.25-.475.404-.135.156-.242.33-.305.51M36.771 60.138s2.215 1.395 2.752 1.211c.665-.227.513-.67 1.334-2.428.043-.092.072-.24-.006-.302-1.06-.825-4.184 1.297-4.08 1.519"/>
            <path fill="#FDD230" d="M41.758 42.12c.129.953.297 3.003-2.71 4.095-3.007 1.093-3.978-.486-4.89-1.866-.911-1.38.34-2.189.34-2.189 3.457-2.464 6.496-1.95 6.496-1.95.347.035.635.954.764 1.91m-10.235 3.02c-.003 1.654.056 3.506-3.055 4.25-3.11.744-4.098-1.06-4.516-1.928-.417-.867-.685-1.795-.413-2.014 0 0 2.253-2.101 6.496-1.95 0 0 1.491-.014 1.488 1.641m1.82-3.423s-.133 1.009-1.036 1.254c-.887.291-1.55-.477-1.55-.477-5.681-.05-9.197 3.092-9.197 3.092l.238.792c.294.626 1.057.728 1.057.728.667 1.606 2.017 4.274 6.083 3.055 4.067-1.22 3.277-3.675 3.297-4.572.02-.898.564-.984.564-.984s.503-.227 1.012.51c.51.739 1.204 3.224 5.27 2.003 4.066-1.22 3.724-4.193 3.395-5.9 0 0 .583-.506.482-1.187l-.239-.796s-4.664-.686-9.375 2.482"/>
            <path fill="#000" d="M41.759 42.12c.128.953.296 3.003-2.71 4.095-3.007 1.093-3.978-.486-4.89-1.866-.912-1.38.34-2.189.34-2.189 3.456-2.464 6.495-1.95 6.495-1.95.348.035.635.954.765 1.91m-10.236 3.02c-.002 1.654.056 3.506-3.054 4.25-3.11.744-4.1-1.06-4.517-1.928-.417-.867-.685-1.795-.413-2.014 0 0 2.253-2.101 6.496-1.95 0 0 1.491-.014 1.488 1.641"/>
            <path fill="#FFF" d="M30.819 53.082s5.288.519 8.096-1.672c0 0-.15 7.879-8.096 1.672"/>
            <path fill="#62352D" d="M39.044 55.47l-.015.126a1.988 1.988 0 0 1-.082.353 2.456 2.456 0 0 1-.756 1.081 2.604 2.604 0 0 1-1.817.607 2.48 2.48 0 0 1-1.04-.309 4.006 4.006 0 0 1-.841-.633s.169 0 .452.027c.282.022.68.079 1.104.074.416-.01.873-.085 1.38-.276.252-.095.516-.217.788-.382.272-.166.554-.374.827-.667"/>
            <path fill="#020202" d="M20.012 38.497s-3.764-3.295-2.017-3.55c1.747-.253-.573-3.012 1.279-2.958 1.852.054.558-3.056 2.483-2.454 1.925.601 1.176-2.924 2.793-2.217 1.618.707 2.24-2.83 3.725-1.505 1.486 1.325 2.273-3.07 3.456-.954 1.183 2.117 2.693-1.839 3.876.278 1.183 2.116 2.63-1.36 3.13 1.106.5 2.464 2.872-.983 2.349 2.175-.524 3.159-1.764 6.563-1.314 7.21.451.649-3.359-4.12-4.49-4.077-1.13.043-9.064 2.645-9.064 2.645l-6.206 4.301z"/>
            <path fill="#000" d="M48.945 57.388s10.612-8.724 13.59-8.985c2.978-.26 10.478.079 10.076 4.61-.403 4.53 2.03 10.555 2.03 10.555s-20.559 11.136-20.98 11.71c-.421.574-6.806-15.413-4.716-17.89"/>
            <path fill="#62352D" d="M52.844 53.944l8.593-3.773 19.216-36.949 19.807 10.665 6.577-3.22 3.71 4.012s-7.203 8.908-8.873 11.3c-1.67 2.391-25.604 23.475-25.604 23.475l-11.685 2.551s-11.317-1.448-11.741-8.06"/>
            <path fill="#000" d="M112.11 46.223L71.953 11.392a2.1 2.1 0 0 0-2.955.204l-19.64 22.449c-.764.873-.675 2.2.199 2.963l40.167 35.097a2.1 2.1 0 0 0 2.97-.208l19.629-22.716a2.1 2.1 0 0 0-.213-2.958"/>
            <path fill="#EA7E31" d="M67.805 4.64L54.278 20.274l-4.96 5.732zM84.767 53.851a2.644 2.644 0 0 0-.408-.574 6.06 6.06 0 0 0-.488-.476 6.072 6.072 0 0 0-.539-.412 2.582 2.582 0 0 0-.626-.322 1.346 1.346 0 0 0-.643-.062c-.214.031-.411.15-.59.358-.18.207-.269.418-.27.635 0 .217.051.425.155.627.103.201.239.393.407.574.169.182.33.34.486.475.158.137.34.275.542.414.202.14.411.246.626.32.216.076.432.098.646.066.214-.032.411-.15.59-.357.179-.208.27-.42.27-.636 0-.217-.053-.427-.158-.63M81.597 57.533a2.452 2.452 0 0 0-.388-.577 7.046 7.046 0 0 0-.518-.524 5.821 5.821 0 0 0-.592-.473 2.392 2.392 0 0 0-.605-.317 1.165 1.165 0 0 0-.595-.044c-.192.035-.376.149-.547.338a.914.914 0 0 0-.255.557c-.015.193.023.389.114.587.09.195.217.39.383.587.165.197.346.384.54.559.227.207.448.381.663.523.211.138.413.236.606.286.193.05.373.054.549.006.172-.047.34-.156.495-.326.171-.193.262-.393.274-.593.012-.197-.029-.4-.124-.59M89.746 48.097a2.651 2.651 0 0 0-.407-.574 6.06 6.06 0 0 0-.488-.477 6.096 6.096 0 0 0-.54-.412 2.58 2.58 0 0 0-.626-.32 1.347 1.347 0 0 0-.643-.063c-.214.03-.411.15-.59.357s-.269.419-.27.636c0 .217.051.425.155.627.103.2.24.393.408.574.168.182.33.34.485.474.158.138.34.276.542.415.202.139.411.246.627.32.215.076.43.098.645.066.214-.032.411-.15.59-.358.18-.207.27-.419.27-.636a1.35 1.35 0 0 0-.158-.63"/>
            <g transform="rotate(26 .956 194.22)">
                <mask id="I" fill="#fff">
                    <use xlink:href="#H"/>
                </mask>
                <path fill="#EA7E31" d="M20.689 12.843a1.047 1.047 0 0 1-.023.105.475.475 0 0 1-.08.177.256.256 0 0 1-.118.084.34.34 0 0 1-.15.014 1.19 1.19 0 0 1-.18-.034l-.003.01c.066.075.123.15.17.223a.84.84 0 0 1 .14.49c0 .094-.017.202-.05.325-.03.115-.072.22-.126.314a.758.758 0 0 1-.2.23c-.08.06-.171.1-.274.119a.786.786 0 0 1-.342-.022c-.174-.046-.299-.12-.376-.224a.758.758 0 0 1-.143-.365 1.806 1.806 0 0 1 .005-.457c.022-.165.044-.331.069-.5.01-.066.017-.124.02-.175a.313.313 0 0 0-.018-.134.249.249 0 0 0-.08-.101.45.45 0 0 0-.156-.07.576.576 0 0 0-.266-.016.416.416 0 0 0-.194.098.59.59 0 0 0-.135.186 1.515 1.515 0 0 0-.088.247.796.796 0 0 0 .012.508c.059.147.189.25.39.31l-.081.303a1.039 1.039 0 0 1-.352-.19.74.74 0 0 1-.204-.28.917.917 0 0 1-.067-.35 1.771 1.771 0 0 1 .175-.727.814.814 0 0 1 .196-.262c.08-.072.18-.12.3-.147a.91.91 0 0 1 .428.026l1.32.35c.122.033.199-.01.23-.13a.243.243 0 0 0 .007-.101l.254.068c-.003.037-.006.07-.01.098zM19.856 16l-2.23-.593-.113.424-.255-.067.113-.424-.226-.06a1.699 1.699 0 0 1-.288-.103.58.58 0 0 1-.207-.152.452.452 0 0 1-.1-.225.762.762 0 0 1 .027-.315 2.271 2.271 0 0 1 .087-.25l.26.069a8.86 8.86 0 0 0-.047.111.916.916 0 0 0-.036.104.411.411 0 0 0-.012.203c.013.051.04.093.077.126a.425.425 0 0 0 .142.077c.057.018.12.036.186.054l.217.058.13-.492.256.068-.13.491 2.23.592-.081.304zm-.361 1.63c-.05.19-.13.349-.237.477a1.112 1.112 0 0 1-.38.293 1.268 1.268 0 0 1-.477.116c-.172.009-.348-.01-.528-.058a1.707 1.707 0 0 1-.488-.212 1.27 1.27 0 0 1-.355-.337 1.125 1.125 0 0 1-.16-.975c.071-.267.202-.473.392-.62.19-.147.433-.2.728-.16l-.08.303a.864.864 0 0 0-.5.115c-.136.084-.23.227-.284.43a.79.79 0 0 0-.01.405.855.855 0 0 0 .169.335c.08.099.179.184.295.254a1.42 1.42 0 0 0 .775.206 1.13 1.13 0 0 0 .384-.073.8.8 0 0 0 .523-.844.755.755 0 0 0-.27-.479.85.85 0 0 0-.264-.152l.08-.303c.291.121.497.295.618.52.121.224.143.477.069.76zm-1.017 3.56l-3.439-.913.58-2.18.279.074-.492 1.853 1.242.33.437-1.647.28.074-.437 1.647 1.637.435-.087.327zm-.976 4.049c-.09.335-.235.589-.436.762a1.548 1.548 0 0 1-.693.343c-.26.056-.537.068-.83.035a5.906 5.906 0 0 1-.845-.157 5.908 5.908 0 0 1-.816-.284 2.559 2.559 0 0 1-.704-.442 1.582 1.582 0 0 1-.434-.642c-.091-.251-.093-.544-.004-.88.09-.339.237-.594.44-.764.203-.17.435-.283.696-.34.26-.055.537-.067.83-.034.293.034.575.085.843.157.274.072.546.167.817.284.271.116.506.264.704.442.198.177.343.39.432.639.09.247.09.542 0 .88zm-.977 3.677c-.089.336-.234.59-.436.763a1.545 1.545 0 0 1-.693.343c-.26.056-.537.067-.83.034a5.839 5.839 0 0 1-.844-.156 5.91 5.91 0 0 1-.816-.284 2.56 2.56 0 0 1-.704-.442 1.578 1.578 0 0 1-.435-.643c-.09-.25-.093-.544-.004-.879.09-.34.238-.594.44-.764.204-.17.436-.284.696-.34.26-.056.537-.067.83-.034.294.033.575.085.844.156.273.073.545.168.817.285.27.116.506.264.704.441.197.178.342.391.432.64.09.247.09.541 0 .88zm-.976 3.677c-.089.336-.234.59-.436.763a1.552 1.552 0 0 1-.693.343c-.26.056-.537.068-.83.034a5.844 5.844 0 0 1-.844-.156 5.885 5.885 0 0 1-.817-.284 2.555 2.555 0 0 1-.703-.442 1.584 1.584 0 0 1-.435-.643c-.091-.25-.093-.544-.004-.879.09-.339.237-.594.44-.764.204-.17.436-.284.696-.34.26-.056.537-.067.83-.034.293.033.575.085.844.157.273.072.545.167.816.284.271.116.506.263.704.441.198.178.343.391.433.64.089.247.089.541 0 .88zm-1.3 4.65c-.093.318-.228.56-.413.726a1.371 1.371 0 0 1-.65.327c-.25.055-.523.065-.823.021a6.39 6.39 0 0 1-.925-.193 6.09 6.09 0 0 1-.838-.31 2.451 2.451 0 0 1-.682-.439 1.418 1.418 0 0 1-.395-.63c-.077-.239-.064-.531.03-.86.064-.228.156-.414.271-.563.114-.145.247-.255.4-.34.148-.078.315-.133.494-.159.176-.028.358-.033.544-.024.188.013.38.038.571.082.19.038.374.085.554.138.303.087.59.191.856.318.264.124.49.276.668.452.182.175.305.386.374.623.068.238.057.511-.036.832zm-1.043 3.479c-.094.317-.229.56-.413.725a1.371 1.371 0 0 1-.651.327c-.25.055-.523.065-.822.022a6.39 6.39 0 0 1-.925-.193 6.09 6.09 0 0 1-.838-.31 2.451 2.451 0 0 1-.683-.44 1.418 1.418 0 0 1-.395-.63c-.076-.239-.064-.531.03-.86.065-.228.156-.413.272-.563.113-.145.246-.255.4-.34.148-.078.315-.133.493-.158.177-.03.358-.033.545-.025.188.013.38.038.57.083.19.038.375.085.554.137.304.087.591.191.857.318.264.124.49.276.668.452.181.176.304.386.373.624.069.237.057.51-.035.83zM43.939 8.776L11.402.137C10.042 1.6 5.732 7.333 6.181 20.93 6.647 35.1 1.308 44.392.009 46.434l.628.167 31.07 8.25a3.162 3.162 0 0 0 3.866-2.245l5.305-19.982 5.305-19.982a3.161 3.161 0 0 0-2.244-3.866z" mask="url(#I)"/>
            </g>
            <path fill="#EA7E31" d="M97.334 39.856a.774.774 0 0 0-.21-.277l-.308-.267-.006.007c.014.04.01.086-.016.14a1.16 1.16 0 0 1-.07.135 8.43 8.43 0 0 1-.223.352 2.323 2.323 0 0 0-.19.346.754.754 0 0 0-.069.32c.003.1.052.192.147.274a.462.462 0 0 0 .395.112.558.558 0 0 0 .198-.073.666.666 0 0 0 .167-.14c.078-.09.139-.189.183-.296a.781.781 0 0 0 .002-.634M87.257 50.974a2.63 2.63 0 0 0-.408-.573 6.065 6.065 0 0 0-.488-.477 6.072 6.072 0 0 0-.54-.412 2.582 2.582 0 0 0-.626-.321 1.346 1.346 0 0 0-.642-.063c-.215.031-.412.15-.59.358-.18.207-.27.418-.27.636-.001.216.05.424.154.626.104.201.24.393.408.575.168.181.33.34.485.474.158.137.34.275.542.414.202.14.412.246.627.321.216.075.43.097.645.066.214-.032.411-.152.59-.358.18-.208.27-.42.27-.636 0-.217-.053-.426-.157-.63M79.134 60.201a2.452 2.452 0 0 0-.388-.576 7.046 7.046 0 0 0-.518-.525 5.821 5.821 0 0 0-.592-.472 2.392 2.392 0 0 0-.605-.318 1.165 1.165 0 0 0-.595-.043c-.192.035-.375.148-.546.338a.914.914 0 0 0-.255.556c-.016.194.022.39.113.588.091.195.218.39.383.587.166.196.346.384.54.559.227.207.448.381.663.523.212.138.413.235.606.286.193.05.373.053.549.006.173-.048.341-.156.496-.326.17-.194.26-.393.273-.593.012-.198-.028-.401-.124-.59"/>
            <path fill="#FFF" d="M81.617 40.757c5.558-12.416 11.945-15.68 13.809-16.398l-.377-.327c-1.865.719-8.25 3.983-13.809 16.4-5.792 12.94-14.664 18.951-16.727 20.218l.377.326c2.063-1.267 10.935-7.278 16.727-20.219"/>
            <path fill="#EA7E31" d="M81.24 40.431c5.558-12.416 11.945-15.68 13.809-16.398l-.754-.653c-1.864.718-8.25 3.983-13.808 16.4-5.792 12.94-14.664 18.951-16.728 20.218l.754.652c2.063-1.266 10.936-7.278 16.728-20.219"/>
            <path fill="#FFF" d="M80.487 39.78c5.558-12.418 11.944-15.682 13.808-16.4l-.377-.326c-1.864.719-8.25 3.982-13.808 16.4-5.792 12.94-14.664 18.951-16.728 20.217l.377.327c2.064-1.266 10.936-7.278 16.728-20.219"/>
            <g transform="rotate(26 36.484 126.25)">
                <mask id="K" fill="#fff">
                    <use xlink:href="#J"/>
                </mask>
                <path fill="#100E0B" d="M37.646 29.113c-.448-13.596 3.86-19.33 5.221-20.792L12.556.273a.435.435 0 0 0-.531.308l-.7 2.636-7.25 27.308-4.06 15.291a.434.434 0 0 0 .308.532l31.15 8.27c1.3-2.042 6.64-11.335 6.173-25.505" mask="url(#K)"/>
            </g>
            <path fill="#FFF" d="M84.655 55.116c-.179.207-.376.326-.59.358-.214.032-.43.01-.645-.065a2.62 2.62 0 0 1-.627-.32 6.116 6.116 0 0 1-.542-.415 6.185 6.185 0 0 1-.486-.475 2.556 2.556 0 0 1-.407-.574 1.342 1.342 0 0 1-.155-.627c.001-.217.09-.428.27-.635.179-.207.376-.327.59-.358.214-.032.428-.011.643.062.213.074.422.18.627.322.204.14.383.277.539.411.158.138.32.297.487.477.167.18.303.372.408.574.105.203.158.413.157.63 0 .216-.09.428-.269.635m.547-1.322a2.559 2.559 0 0 0-.439-.706 5.903 5.903 0 0 0-.61-.614 5.878 5.878 0 0 0-.689-.51 2.564 2.564 0 0 0-.761-.333 1.586 1.586 0 0 0-.774 0c-.257.064-.5.229-.73.494-.228.262-.354.526-.383.792-.027.265.01.522.11.768.1.247.246.482.438.706.193.223.396.428.61.613.21.182.44.352.69.51.248.159.502.27.76.334.259.064.517.062.774-.005s.499-.232.726-.494c.23-.265.359-.53.387-.792a1.562 1.562 0 0 0-.109-.763M87.144 52.24c-.179.206-.376.325-.59.357-.214.032-.43.01-.645-.065a2.62 2.62 0 0 1-.627-.32 6.2 6.2 0 0 1-.542-.415 6.185 6.185 0 0 1-.485-.475 2.556 2.556 0 0 1-.407-.574 1.338 1.338 0 0 1-.155-.627c0-.217.09-.428.27-.635.178-.207.375-.327.59-.358.214-.032.427-.01.642.062.214.074.423.181.627.322.204.14.384.277.539.412.159.137.321.296.488.477.167.18.302.371.408.573.105.203.157.413.157.63 0 .216-.09.428-.27.635m.548-1.322a2.557 2.557 0 0 0-.44-.706 5.877 5.877 0 0 0-.609-.613 5.878 5.878 0 0 0-.69-.51 2.554 2.554 0 0 0-.76-.334 1.588 1.588 0 0 0-.775 0c-.257.064-.5.229-.73.494-.227.263-.354.527-.382.792-.028.265.008.522.109.769.1.246.247.481.439.705.192.223.395.428.609.613.21.182.44.352.69.51.249.16.502.27.76.334.26.064.518.062.774-.005.257-.067.5-.232.726-.494.23-.265.359-.53.387-.792a1.562 1.562 0 0 0-.108-.763M89.634 49.362c-.179.207-.376.326-.59.358-.215.032-.43.01-.645-.065a2.623 2.623 0 0 1-.627-.321 6.109 6.109 0 0 1-.542-.414 6.185 6.185 0 0 1-.485-.475 2.55 2.55 0 0 1-.408-.574 1.342 1.342 0 0 1-.155-.627c.002-.217.09-.429.27-.635.179-.207.376-.327.59-.359.214-.031.428-.01.643.063.213.074.422.18.626.322.205.14.384.277.54.411.158.137.321.297.488.477.166.18.302.372.407.574.105.203.158.413.158.63 0 .216-.09.428-.27.635m.548-1.323a2.559 2.559 0 0 0-.44-.705 5.907 5.907 0 0 0-.61-.614 5.873 5.873 0 0 0-.688-.51 2.563 2.563 0 0 0-.762-.333 1.584 1.584 0 0 0-.774 0c-.257.063-.5.229-.73.494-.227.262-.354.526-.382.792-.028.265.008.522.109.768.1.247.246.482.439.705.192.224.395.429.609.614.21.182.44.352.69.51.248.159.502.27.76.334.26.063.517.062.774-.005.257-.068.499-.232.726-.494.23-.266.359-.53.387-.792a1.562 1.562 0 0 0-.108-.764M92.61 43.73l-.218-.189-1.115 1.289-.972-.841 1.255-1.45-.219-.19-1.477 1.707 2.69 2.328.223-.257-1.281-1.108zM94.974 42.18l-.205.236a.851.851 0 0 1 .238.529.74.74 0 0 1-.173.516.797.797 0 0 1-.33.236.867.867 0 0 1-.372.05 1.13 1.13 0 0 1-.377-.103 1.421 1.421 0 0 1-.606-.525 1.128 1.128 0 0 1-.155-.357.865.865 0 0 1-.004-.376.79.79 0 0 1 .186-.36c.137-.158.285-.245.444-.262a.866.866 0 0 1 .499.116l.205-.237c-.247-.166-.489-.224-.724-.175a1.116 1.116 0 0 0-.623.385 1.185 1.185 0 0 0-.259.466 1.12 1.12 0 0 0-.026.48c.025.159.083.312.172.46.09.147.205.282.346.404.14.121.29.216.449.283.16.068.32.103.479.105.16.003.317-.03.47-.097.153-.068.293-.176.422-.324.19-.221.282-.459.271-.713-.01-.255-.119-.501-.327-.738M94.862 40.191l-.199-.172-.332.384-.17-.147c-.053-.045-.1-.089-.144-.13a.422.422 0 0 1-.094-.132.245.245 0 0 1-.014-.147.403.403 0 0 1 .1-.177.85.85 0 0 1 .077-.078 8.86 8.86 0 0 1 .092-.079l-.204-.176a2.269 2.269 0 0 0-.188.187.763.763 0 0 0-.162.271.453.453 0 0 0-.009.246c.02.079.06.155.12.228.059.073.13.147.213.218l.177.153-.287.332.2.172.287-.33 1.744 1.509.205-.238-1.744-1.51.332-.384zM97.332 40.49a1.08 1.08 0 0 1-.183.296.668.668 0 0 1-.167.139.52.52 0 0 1-.402.064.468.468 0 0 1-.191-.103c-.095-.082-.144-.174-.147-.275a.75.75 0 0 1 .069-.32c.049-.111.112-.227.19-.345a8.43 8.43 0 0 0 .222-.352 1.16 1.16 0 0 0 .071-.136c.026-.053.03-.1.016-.139l.006-.007.309.267a.77.77 0 0 1 .274.59.853.853 0 0 1-.067.32m.673-.807c-.08.093-.169.098-.264.016l-1.032-.894a.908.908 0 0 0-.374-.211.658.658 0 0 0-.334 0 .816.816 0 0 0-.291.151 1.793 1.793 0 0 0-.476.576.91.91 0 0 0-.093.344.738.738 0 0 0 .061.34c.048.112.126.22.232.326l.205-.237c-.153-.142-.225-.291-.214-.449a.793.793 0 0 1 .213-.462c.06-.07.123-.132.188-.184a.583.583 0 0 1 .202-.108.416.416 0 0 1 .217-.003.577.577 0 0 1 .232.132.45.45 0 0 1 .11.131.25.25 0 0 1 .027.125.308.308 0 0 1-.042.128 1.747 1.747 0 0 1-.095.15c-.096.14-.19.28-.281.418-.09.139-.16.275-.206.41a.756.756 0 0 0-.031.39c.024.126.104.248.24.366.098.084.197.14.298.169.1.028.2.033.298.014a.752.752 0 0 0 .281-.12c.09-.06.174-.136.252-.226.082-.096.145-.185.187-.27a.849.849 0 0 0 .09-.502 2.119 2.119 0 0 0-.056-.275l.006-.008c.05.043.1.08.147.11.046.03.093.047.141.053a.257.257 0 0 0 .143-.024.477.477 0 0 0 .15-.124.993.993 0 0 0 .119-.168l-.2-.173a.25.25 0 0 1-.05.089M81.447 58.715a1.06 1.06 0 0 1-.495.326 1.048 1.048 0 0 1-.55-.006 2.115 2.115 0 0 1-.605-.286 5.583 5.583 0 0 1-.664-.523 5.853 5.853 0 0 1-.539-.559 2.686 2.686 0 0 1-.383-.587 1.177 1.177 0 0 1-.114-.588.912.912 0 0 1 .255-.556c.171-.19.355-.304.547-.338.192-.035.39-.026.595.043.201.07.402.174.605.318.204.144.403.298.592.473.18.162.351.338.518.524.166.19.297.382.388.576.095.19.136.392.124.59-.012.2-.103.4-.274.593m.604-1.212a2.368 2.368 0 0 0-.402-.699 5.504 5.504 0 0 0-.63-.661 6.52 6.52 0 0 0-.437-.366 3.533 3.533 0 0 0-.478-.325 2.592 2.592 0 0 0-.5-.216 1.502 1.502 0 0 0-.513-.074 1.283 1.283 0 0 0-.509.13c-.169.083-.332.21-.49.387-.23.254-.368.511-.404.76-.04.25-.014.498.078.74.09.237.234.47.421.694.187.227.393.442.618.645.248.224.496.412.746.579.25.17.5.281.748.341.245.064.487.06.729-.008.239-.069.466-.227.69-.471.223-.248.353-.488.395-.732a1.393 1.393 0 0 0-.062-.724M78.985 61.384a1.06 1.06 0 0 1-.496.326 1.048 1.048 0 0 1-.55-.006 2.115 2.115 0 0 1-.605-.286 5.583 5.583 0 0 1-.664-.523 5.854 5.854 0 0 1-.539-.559 2.686 2.686 0 0 1-.383-.587 1.177 1.177 0 0 1-.114-.588.912.912 0 0 1 .256-.556c.17-.19.354-.304.546-.338.192-.035.39-.027.595.043.201.07.402.174.606.318.203.144.402.298.591.472.18.163.351.339.519.525.166.19.296.382.387.576.096.189.136.392.124.59-.012.2-.102.4-.273.593m.603-1.212a2.368 2.368 0 0 0-.402-.699 5.504 5.504 0 0 0-.63-.661 6.52 6.52 0 0 0-.437-.366 3.533 3.533 0 0 0-.477-.325 2.592 2.592 0 0 0-.5-.217 1.502 1.502 0 0 0-.514-.073 1.283 1.283 0 0 0-.508.13c-.17.083-.333.21-.491.387-.229.254-.368.511-.404.76-.04.25-.014.498.079.739.09.237.233.47.42.694.187.227.393.443.618.646.248.223.496.412.747.579.25.17.5.28.748.341.245.063.486.06.728-.009.239-.068.466-.226.69-.47.223-.248.354-.488.396-.732a1.393 1.393 0 0 0-.063-.724"/>
            <path fill="#714F47" d="M79.362 20.222l-1.321-.79a3.653 3.653 0 0 1-1.255-4.997l3.257-5.44A3.653 3.653 0 0 1 85.04 7.74l1.32.791a3.653 3.653 0 0 1 1.255 4.997l-3.257 5.44a3.653 3.653 0 0 1-4.996 1.254"/>
            <path fill="#91766F" d="M80.402 11.941l-.067.006h-.002c-.134.01-.25.058-.307.153l-1.29 2.157c-.163.271.012.677.388.902l3.605 2.158c.376.226.817.188.979-.083l1.263-2.11c.109-.182-.008-.452-.26-.603l-4.309-2.58z"/>
            <path fill="#714F47" d="M87.586 24.76l-1.321-.791a3.653 3.653 0 0 1-1.255-4.997l3.257-5.44a3.653 3.653 0 0 1 4.996-1.255l1.322.791a3.653 3.653 0 0 1 1.254 4.996l-3.257 5.44a3.653 3.653 0 0 1-4.996 1.255"/>
            <path fill="#91766F" d="M88.626 16.478l-.067.006h-.002c-.135.01-.25.058-.307.153l-1.29 2.157c-.163.271.012.677.388.902l3.605 2.158c.376.225.817.188.979-.083l1.263-2.11c.109-.182-.008-.452-.26-.604l-4.309-2.579z"/>
            <path fill="#714F47" d="M94.851 28.986l-1.32-.79a3.653 3.653 0 0 1-1.255-4.998l3.257-5.44a3.653 3.653 0 0 1 4.996-1.254l1.321.79a3.653 3.653 0 0 1 1.255 4.997l-3.257 5.44a3.653 3.653 0 0 1-4.997 1.255"/>
            <path fill="#91766F" d="M95.892 20.705l-.067.005h-.003c-.134.01-.25.058-.306.154l-1.291 2.156c-.163.272.012.677.388.902l3.606 2.159c.376.225.816.187.978-.084l1.263-2.11c.11-.182-.007-.452-.26-.603l-4.308-2.58z"/>
            <path fill="#714F47" d="M104.846 28.557l-1.32-.79a3.653 3.653 0 0 1-1.255-4.997l3.256-5.44a3.653 3.653 0 0 1 4.997-1.255l1.321.791a3.653 3.653 0 0 1 1.254 4.996l-3.256 5.44a3.653 3.653 0 0 1-4.997 1.255"/>
            <path fill="#91766F" d="M105.886 20.276l-.067.006h-.002c-.134.01-.25.058-.306.153l-1.292 2.157c-.162.271.013.677.389.902l3.605 2.158c.377.226.817.188.98-.083l1.262-2.11c.11-.182-.007-.452-.26-.604l-4.309-2.579z"/>
            <path fill="#714F47" d="M69.361 60.306l-.373 1.494a3.653 3.653 0 0 1-4.417 2.652l-10.679-2.667a3.653 3.653 0 0 1-2.651-4.416l.373-1.494a3.653 3.653 0 0 1 4.416-2.652l10.68 2.667a3.653 3.653 0 0 1 2.651 4.416"/>
            <path fill="#91766F" d="M59.945 61.42l.038.065.002.002c.076.133.19.238.336.274l3.314.828a.79.79 0 0 0 .95-.584l1.018-4.077a.791.791 0 0 0-.564-.962l-3.242-.81a.528.528 0 0 0-.636.391l-1.216 4.872z"/>
            <path fill="#000" d="M25.785 68.625s-4.953 9.639-7.36 17.127a3.88 3.88 0 0 0 1.37 4.288c2.225 1.673 4.136 1.709 7.406-2.213l7.122-8.183-8.538-11.02z"/>
            <path fill="#FFD200" d="M46.425 61.278c-.32-1.44-.978-2.822-2.02-3.84l-1.056.308c.004.014 1.006 2.732 1.003 3.847-.002.694-1.607 4.675-2.33 5.277-.42.523-3.707-.754-4.622-1.34-.862-.552-1.626-.902-2.26-1.789-.08-.112-.68-1.941-.995-2.917l-.94.8c-.295.529-.527 1.08-.527 1.584.01.165.035.324.08.48.08.233.196.46.338.678.082.11.178.222.29.334.281.279.579.54.883.794 2.672 1.552 6.205 4.142 8.08 4.538.353-.212.649-.535.892-.905.801-1.216 1.423-2.626 2.021-3.951.519-1.148.953-2.334 1.227-3.563-.019-.11-.04-.222-.064-.335M21.099 87.564c-1.019-.82-1.757-1.923-2.231-3.133-.155.447-.304.888-.443 1.321a3.88 3.88 0 0 0 1.37 4.288c2.015 1.515 3.772 1.687 6.513-1.205-1.866.312-3.703-.057-5.21-1.271"/>
            <path fill="#FFD200" d="M39.805 68.916l5.374 20.92 3.647-.959-4.798-21.496zM49.594 74.674l.767 2.111 6.718-1.535-.576-2.495z"/>
            <path fill="#000" d="M43.452 70.548a.864.864 0 1 1-1.728 0 .864.864 0 0 1 1.728 0M44.7 75.634a.864.864 0 1 1-1.728 0 .864.864 0 0 1 1.727 0M45.85 80.432a.864.864 0 1 1-1.727 0 .864.864 0 0 1 1.728 0M46.81 85.038a.864.864 0 1 1-1.727 0 .864.864 0 0 1 1.728 0"/>
        </g>
    </g>
</svg>
