<svg xmlns="http://www.w3.org/2000/svg" xmlns:xlink="http://www.w3.org/1999/xlink" width="81" height="81" viewBox="0 0 81 81">
    <defs>
        <circle id="a" cx="40.5" cy="40.5" r="40.5"/>
        <path id="c" d="M0 0h81v65H0z"/>
        <path id="e" d="M0 0h48v90H0z"/>
        <path id="g" d="M0 0h24v94H0z"/>
    </defs>
    <g fill="none" fill-rule="evenodd">
        <mask id="b" fill="#fff">
            <use xlink:href="#a"/>
        </mask>
        <use fill="#EEE" fill-rule="nonzero" xlink:href="#a"/>
        <g mask="url(#b)">
            <g transform="translate(-6 11)">
                <mask id="d" fill="#fff">
                    <use xlink:href="#c"/>
                </mask>
                <path fill="#000" d="M80.93 47.144a3.007 3.007 0 0 1-2.301 3.58L13.408 64.93a3.008 3.008 0 0 1-3.584-2.3L.069 17.852a3.008 3.008 0 0 1 2.306-3.58L67.596.07a3.007 3.007 0 0 1 3.58 2.296l9.754 44.778z" mask="url(#d)"/>
            </g>
            <path fill="#707070" d="M65.97 35.059a2.493 2.493 0 0 1 2.972 1.909 2.502 2.502 0 0 1-1.91 2.975 2.5 2.5 0 0 1-1.062-4.884"/>
            <path fill="#FF7900" d="M66.981 59.482L57.781 17l-16.778 3.673-.003.002-40 8.762L10.225 72 67 59.565z"/>
            <path fill="#FFF" d="M49.415 39.698a.94.94 0 1 0-1.815.504c.344 1.237.519 2.514.518 3.798 0 9.08-8.573 16.159-18.068 13.582-4.154-1.13-8.507-5.479-9.633-9.633C17.841 38.455 24.92 29.882 34 29.882c1.29 0 2.573.175 3.816.522a.941.941 0 1 0 .505-1.813A16.01 16.01 0 0 0 34 28c-10.229 0-18.216 9.598-15.445 20.28 1.261 4.862 6.303 9.904 11.165 11.165C40.402 62.215 50 54.23 50 44a16.007 16.007 0 0 0-.585-4.302M45 34a1 1 0 1 0 0-2 1 1 0 0 0 0 2m-3-2a1 1 0 1 0 0-2 1 1 0 0 0 0 2m5 5a1 1 0 1 0 0-2 1 1 0 0 0 0 2M36.996 48.17c-.795.795-2.806-.865-4.543-2.604-1.737-1.738-3.397-3.75-2.602-4.547 1.995-1.996 2.129-1.841.112-4.353-2.017-2.511-1.937-2.06-4.465.521-1.33 1.434-.066 6.021 4.622 10.713 4.688 4.692 9.395 5.9 10.705 4.625 2.694-2.677 2.906-2.528.52-4.467-2.508-2.02-2.363-1.875-4.349.112"/>
            <g transform="translate(44 42)">
                <mask id="f" fill="#fff">
                    <use xlink:href="#e"/>
                </mask>
                <path fill="#C19372" d="M48 89.99c-.151-1.16-10.893-41.194-11.947-48.27-.285-1.907-.804-3.898-.553-5.625.53-3.638.57-4.149.64-8.228.073-4.144.045-10.82-2.14-11.39-2.184-.574-2.871 1.332-3.978 1.382-1.511.065-1.424-2.276-3.466-2.15-2.438.157-2.176 2.285-3.763 2.358-1.288.06-1.275-2.095-3.502-2.009-2.441.095-1.907 2.467-4.21 2.826-1.17.181-1.357-.708-5.216-8.046C6.858 5.114 4.387-1.062.97.155c-2.82 1.48.916 8.08 5.897 19.542 1.059 2.44 2.176 4.906 1.864 5.129-2.134 1.589-1.92 5.005-.488 7.063 1.705 2.445 6.326 8.41 8.192 10.934 1.803 2.44 11.138 40.966 12.585 47.168 0 .029 18.992-.021 18.979 0" mask="url(#f)"/>
            </g>
            <g transform="translate(-10 38)">
                <mask id="h" fill="#fff">
                    <use xlink:href="#g"/>
                </mask>
                <path fill="#C19372" d="M17.962 9.59c-1.392.29-.796 9.777-2.37 15.773-.947 3.606-1.929 3.917-3.23 3-.127-.091-4.92-23.803-4.92-23.803S5.115-1.83 2.527.518C1.305 1.626 3.96 12.272 3.75 23.244c-.21 10.972-.236 21.628-.745 32.469C2.495 66.552.21 89.167 0 94h17.192s2.793-47.626 3.54-50.275c.994-3.544 1.841-5.527 2.54-10.678.858-6.381.863-7.131.499-11.214-.48-5.371-1.763-13.08-5.809-12.243" mask="url(#h)"/>
            </g>
        </g>
    </g>
</svg>
