<svg xmlns="http://www.w3.org/2000/svg" xmlns:xlink="http://www.w3.org/1999/xlink" width="50" height="50" viewBox="0 0 50 50">
    <defs>
        <circle id="a" cx="25" cy="25" r="25"/>
        <path id="c" d="M.062.041H49.96v40.045H.062z"/>
        <path id="e" d="M.05.043h29.475v55.545H.05z"/>
        <path id="g" d="M0 .028h14.846v58.106H0z"/>
    </defs>
    <g fill="none" fill-rule="evenodd">
        <mask id="b" fill="#fff">
            <use xlink:href="#a"/>
        </mask>
        <use fill="#EEE" fill-rule="nonzero" xlink:href="#a"/>
        <g mask="url(#b)">
            <g transform="translate(-3.63 7.063)">
                <mask id="d" fill="#fff">
                    <use xlink:href="#c"/>
                </mask>
                <path fill="#000" d="M49.917 29.086c.22 1-.418 1.989-1.417 2.205L8.322 40.043a1.853 1.853 0 0 1-2.208-1.418L.104 11.04a1.853 1.853 0 0 1 1.421-2.205L41.703.084c1-.218 1.988.415 2.206 1.415l6.008 27.587z" mask="url(#d)"/>
            </g>
            <path fill="#707070" d="M40.425 21.884c.777-.17 1.542.32 1.711 1.098a1.44 1.44 0 0 1-2.811.614 1.438 1.438 0 0 1 1.1-1.712"/>
            <path fill="#FF7900" d="M40.739 36.476L35.088 10.52l-10.306 2.244-.001.002L.212 18.12l5.666 26.003 34.872-7.597z"/>
            <path fill="#FFF" d="M29.944 24.681a.578.578 0 1 0-1.114.31c.211.759.318 1.543.318 2.331 0 5.575-5.263 9.92-11.092 8.338-2.55-.693-5.222-3.363-5.914-5.913-1.58-5.829 2.764-11.092 8.339-11.092.792 0 1.58.107 2.342.32a.578.578 0 1 0 .31-1.112 9.829 9.829 0 0 0-2.652-.363c-6.28 0-11.183 5.892-9.482 12.45.775 2.985 3.87 6.08 6.855 6.854 6.557 1.701 12.45-3.202 12.45-9.482 0-.892-.12-1.78-.36-2.64M27 21.381a.578.578 0 1 0 0-1.155.578.578 0 0 0 0 1.155m-1.802-1.41a.578.578 0 1 0 0-1.155.578.578 0 0 0 0 1.155m3.235 3.236a.578.578 0 1 0 0-1.156.578.578 0 0 0 0 1.156m-5.903 6.52c-.491.49-1.733-.533-2.805-1.604-1.073-1.072-2.098-2.311-1.607-2.802 1.232-1.23 1.315-1.135.069-2.682-1.246-1.548-1.196-1.27-2.757.32-.821.884-.041 3.71 2.854 6.602 2.895 2.891 5.801 3.635 6.61 2.85 1.664-1.65 1.795-1.558.322-2.753-1.55-1.244-1.46-1.155-2.686.07"/>
            <g transform="translate(26.71 25.908)">
                <mask id="f" fill="#fff">
                    <use xlink:href="#e"/>
                </mask>
                <path fill="#C19372" d="M29.525 55.582c-.093-.716-6.689-25.424-7.336-29.792-.175-1.176-.494-2.405-.34-3.47.326-2.246.35-2.561.394-5.079.044-2.557.027-6.678-1.315-7.03-1.341-.354-1.763.823-2.443.853-.928.04-.874-1.404-2.128-1.326-1.497.097-1.336 1.41-2.31 1.455-.792.037-.784-1.293-2.152-1.24-1.499.059-1.17 1.523-2.584 1.744-.72.112-.834-.437-3.204-4.966C4.261 3.2 2.743-.613.645.138c-1.73.913.563 4.987 3.622 12.06.65 1.507 1.336 3.029 1.144 3.166-1.31.981-1.178 3.09-.299 4.36 1.047 1.508 3.885 5.19 5.03 6.748 1.108 1.506 6.84 25.283 7.729 29.11 0 .018 11.662-.013 11.654 0" mask="url(#f)"/>
            </g>
            <g transform="translate(-6.25 23.361)">
                <mask id="h" fill="#fff">
                    <use xlink:href="#g"/>
                </mask>
                <path fill="#C19372" d="M11.111 5.956c-.861.18-.492 6.044-1.466 9.75-.586 2.23-1.193 2.421-1.998 1.854-.079-.056-3.043-14.714-3.043-14.714S3.164-1.103 1.564.348c-.756.685.886 7.266.756 14.048-.13 6.783-.146 13.37-.46 20.071-.316 6.7-1.731 20.68-1.86 23.667h10.635s1.728-29.44 2.19-31.078c.614-2.19 1.138-3.416 1.57-6.6.531-3.945.535-4.408.309-6.932-.296-3.32-1.09-8.085-3.593-7.568" mask="url(#h)"/>
            </g>
        </g>
    </g>
</svg>
