<svg xmlns="http://www.w3.org/2000/svg" xmlns:xlink="http://www.w3.org/1999/xlink" width="15" height="9" viewBox="0 0 15 9">
    <defs>
        <path id="a" d="M6.004 4.202H1.602c-.535 0-.968.45-.968 1.005 0 .555.433 1.005.968 1.005h2.064L.3 9.704a1.03 1.03 0 0 0-.256.973c.09.349.352.62.688.714a.945.945 0 0 0 .938-.266l3.364-3.492v2.142c0 .555.434 1.005.969 1.005.534 0 .968-.45.968-1.005V5.207c0-.555-.434-1.005-.968-1.005zm8.695-.345a.944.944 0 0 0-1.37 0L9.965 7.349V5.207c0-.555-.434-1.005-.969-1.005-.534 0-.968.45-.968 1.005v4.568c0 .555.434 1.005.968 1.005h4.402c.535 0 .968-.45.968-1.005 0-.555-.433-1.005-.968-1.005h-2.064L14.7 5.278a1.032 1.032 0 0 0 0-1.421z"/>
    </defs>
    <g fill="none" fill-rule="evenodd" transform="translate(0 -3)">
        <mask id="b" fill="#fff">
            <use xlink:href="#a"/>
        </mask>
        <g fill="#FFF" mask="url(#b)">
            <path d="M0 0h15v15H0z"/>
        </g>
    </g>
</svg>
