<svg xmlns="http://www.w3.org/2000/svg" xmlns:xlink="http://www.w3.org/1999/xlink" width="15" height="15" viewBox="0 0 15 15">
    <defs>
        <path id="a" d="M14.71 5.478a.44.44 0 1 0-.85.236c.162.58.244 1.177.244 1.778 0 4.253-4.015 7.567-8.461 6.36-1.946-.528-3.984-2.565-4.511-4.51C-.074 4.896 3.24.882 7.492.882c.604-.001 1.206.081 1.787.244a.44.44 0 1 0 .237-.85A7.498 7.498 0 0 0 7.492 0C2.702 0-1.038 4.495.26 9.497c.59 2.276 2.952 4.637 5.228 5.228 5.002 1.297 9.497-2.443 9.497-7.233 0-.68-.092-1.358-.274-2.014zM12.465 2.96a.44.44 0 1 0 0-.881.44.44 0 0 0 0 .881zM11.09 1.886a.44.44 0 1 0 0-.881.44.44 0 0 0 0 .881zm2.468 2.468a.44.44 0 1 0 0-.882.44.44 0 0 0 0 .882zM9.055 9.328c-.375.374-1.322-.407-2.14-1.224-.818-.817-1.6-1.763-1.226-2.137.94-.939 1.003-.866.053-2.046-.95-1.18-.912-.969-2.103.244-.626.674-.031 2.83 2.177 5.036 2.208 2.205 4.425 2.773 5.042 2.174 1.27-1.259 1.369-1.189.245-2.1-1.181-.949-1.113-.882-2.048.053z"/>
    </defs>
    <g fill="none" fill-rule="evenodd">
        <mask id="b" fill="#fff">
            <use xlink:href="#a"/>
        </mask>
        <g fill="#FFF" mask="url(#b)">
            <path d="M0 0h15v15H0z"/>
        </g>
    </g>
</svg>
