<svg xmlns="http://www.w3.org/2000/svg" xmlns:xlink="http://www.w3.org/1999/xlink" width="44" height="44" viewBox="0 0 44 44">
    <defs>
        <path id="a" d="M30.32 8.706c.116.007.255.008.357.07.03.02.202.248.115.27-.098.024-.246-.015-.298.103-.026.058.01.125-.028.185-.027.043-.12.063-.131.115-.028.129.188.032.207.132.02.11-.303.203-.31.366-.008.134-.014.263.154.221.198-.049.332-.226.518-.304.058-.024.18-.015.223-.043.21-.138.487-.005.716-.032.204-.025.34-.25.306-.453-.018-.103-.058-.094-.162-.108-.214-.03-.255-.108-.352-.283-.107-.195-.362-.293-.507-.457-.058-.066-.122-.162-.1-.254.023-.092.217-.223.042-.298-.097-.041-.2.01-.297-.005-.134-.02-.04-.144-.13-.197-.072-.041-.246.015-.315.041-.107.04-.23.108-.294.207-.084.133-.01.187.017.31.068.315.22-.01.27.414zM13.228 32.612a1.898 1.898 0 0 1-.405-1.806 1.894 1.894 0 0 1-1.107-.006c-.03.407-.018.81-.087 1.216-.09.533-.362 1.007-.558 1.501-.057.145-.135.329-.103.488.052.253.322.29.179.58-.104.21-.262.397-.393.59-.072.104-.14.224-.138.357 0 .099.061.185.052.282-.016.135-.138.226-.165.357-.032.159.052.358.118.5.276.601 1.417 1.593 2.147 1.375.267-.08.423-.509.4-.759-.032-.344-.236-.162-.472-.244-.438-.155.335-1.063.302-1.356-.014-.123-.114-.224-.119-.356-.012-.357.684-.966.984-1.093.31-.131.534-.362.795-.55a4.326 4.326 0 0 1-1.43-1.076zm-.88-3.676l5.984-5.984 1.457-1.457s8.55-8.498 8.526-8.525a3.155 3.155 0 0 0-.114-.12l-.035-.034c-.027-.025-.052-.051-.08-.073l-.04-.034a1.59 1.59 0 0 0-.08-.063l-.036-.028-.115-.077-.008-.005a1.915 1.915 0 0 0-.108-.062l-.04-.019c-.026-.013-.05-.026-.08-.038l-.042-.018a1.619 1.619 0 0 0-.083-.032l-.037-.013a1.96 1.96 0 0 0-.119-.036l-.011-.003a2.108 2.108 0 0 0-.11-.025l-.04-.006a1.562 1.562 0 0 0-.086-.014l-.042-.005a3.608 3.608 0 0 0-.09-.01c-.012 0-.024.01-.036.008-.042-.003-.084.004-.126.004h-.013c-.037 0-.073-.012-.11-.012-.066 0-.133-.003-.2 0h-.046c-.07.004-.138.012-.208.012H12.15l4.328 4.208-3.697 3.69-2.686 2.68a2.738 2.738 0 0 0-.77 2.307c.075.568.333 1.095.736 1.502l1.992 1.992.295.29zM27.28 18.691l-5.73 5.73-6.857 6.858c.039.043.078.084.116.123l.039.037c.026.026.051.052.078.074l.045.04.073.06.047.036c.024.02.05.037.074.052l.045.031.08.052.04.023c.039.023.078.044.118.063l.016.008.103.047.043.016.08.03.049.014.076.023.052.013.079.017.048.01.089.014.039.005c.042.006.085.01.128.013h.025c.035 0 .07.004.106.006h.244c.015 0 .03.009.045.008h14.185l-4.328-4.309 6.245-6.25.133-.137a2.658 2.658 0 0 0 0-3.763l-2.285-2.286-3.34 3.342zM22 0C9.85 0 0 9.85 0 22s9.85 22 22 22 22-9.85 22-22S34.15 0 22 0zM8.274 8.274c.466-.465.955-.907 1.464-1.324.064.343.262.987.274 1.036.19.769-.263.28-.559.74-.124.194.127.37.045.53-.342.678-.798-.417-1.187-.661a1.06 1.06 0 0 0-.243-.11c.068-.07.136-.142.206-.21zm31.37 6.975a1.328 1.328 0 0 0-.42-.085c-.274-.004-.462-.127-.716-.194-.197-.051-.422-.167-.621-.18-.26-.016-.486.108-.55.362-.026.1-.036.225-.141.275-.178.084-.383-.085-.554-.12a1.99 1.99 0 0 1-.402-.094.507.507 0 0 1-.155-.104c-.036-.036-.077-.141-.118-.161a1.526 1.526 0 0 0-.65-.16c-.208-.012-.398-.05-.57-.176-.276-.207.052-.274.004-.513-.007-.037-.093-.134-.087-.16.092-.374-.317-.286-.606-.218-.538.052-1.216-.137-1.68.077a2.88 2.88 0 0 0-.576.082c.054.043.106.089.155.137l2.286 2.289a4.555 4.555 0 0 1 .47 5.867.318.318 0 0 1 .04.04c.202.254 0 .757.016 1.045.022.452.13.673.385 1.035.407.574.923 1.17.802 1.922-.104.637-.73 1.049-.491 1.745.207.606.641.97.792 1.64.123.548.254.686.532 1.102.305.455.717 2.412 1.67 1.356a.451.451 0 0 1 .165-.023A19.421 19.421 0 0 1 2.918 18.409c.159.045.325.077.49.163.068.126.133.115.287.129.299.12.597.304.923.304.419-.103.57-.264.837.078.241.307.856.454 1.217.523.207.04.4.028.566.168.148.125.232.318.355.466.25.295.508.508.89.602.258.064.537.086.8.15l.534-.534c-.729-.119-1.247-.646-1.8-1.095-.308-.25-.618-.496-1-.622.009.003.13-1.005-.04-1.149-.425-.362-.918.429-1.275.57-.868.347-1.373-.324-1.449-1.154-.177-1.947 2.832-2.387 4.07-1.434.125.096.556.74.707.693.247-.075.071-.847.082-1.007.03-.484.06-.693.533-.971.266-.156.449-.396.58-.673.085-.182.127-.347.258-.47a1.885 1.885 0 0 1 1.667-2.767h1.44l-.084-.055-.09-.051a1.19 1.19 0 0 0-.4-.147c-.035-.004-.067 0-.098-.006-.014-.003-.066-.012-.043-.028a.155.155 0 0 1 .057-.01l.082-.013a1.11 1.11 0 0 1 .171-.02c.2-.005.397.049.592.09.096.02.193.036.292.046a.442.442 0 0 0 .155-.005c.04-.011.139.02.13-.015-.019-.037-.097-.068-.074-.12.015-.035.07-.052.1-.07a.946.946 0 0 1 .131-.051c.197-.063.389-.137.59-.183.097-.024.195-.036.294-.038.042 0 .083.002.125.007.036.004.1.003.128.028.03.026-.006.072-.026.097a.866.866 0 0 0-.082.12 1.175 1.175 0 0 0-.136.394v.026h1.471c-.161-.172-.51-.301-.624-.51-.14-.259-.029-.59-.231-.844-.213-.267-.562-.266-.834-.43-.39-.233-.595-.683-.972-.93-.57-.372-.844 0-1.446-.05-.37-.029-.574-.305-.853-.508-.518-.377-1.147-.579-1.776-.478.215-.167.434-.33.656-.487l.03.003c.548.074 1.027.368 1.546.533.108.034.903.1.838.056-.136-.091-.708-.219-.283-.267.188.04.65.199.732.006.262-.2.385-.194.725-.194.318-.219.629-.386.685-.761-.09-.207.009-.362-.046-.537-.428-.112-.354-.325-.302-.6-.047-.062-.21-.143-.394-.213l.12-.051c.47-.199.944-.378 1.425-.538.293.184.5.425.424.711.175.03.372.044.541-.02.038-.015.074-.07.118-.062.045.008.068.088.089.126.01.017.02.035.029.054 0 0 .126-.022.139-.023a.596.596 0 0 1 .131.004c.08.008.157.04.22.09.022.02.11.077.088.116-.017.03-.084.025-.111.026-.028.001-.067 0-.1.007l-.168.024a.57.57 0 0 1-.15.013c-.076.049.175.057.254.097.065.033.142.04.203.08.104.068-.117.11-.151.126a2.58 2.58 0 0 0-.212.112.873.873 0 0 0-.234.188.398.398 0 0 0-.095.215.523.523 0 0 0 .062.273c.063.12.136.234.22.342l.03.043c.45.547 1.518 1.331 2.272 1.245.828-.095.76-1.149 1.55-1.445.79-.296 1.61-.504 2.433-.673.227-.054.452-.121.672-.2.312-.098.629-.176.95-.236.051-.01.109-.014.163-.021.017-.003.148-.025.092-.058a.414.414 0 0 0-.132-.033c-.052-.009-.1-.015-.15-.023a.994.994 0 0 1-.274-.063c-.021-.01-.065-.02-.058-.052.007-.032.066-.03.092-.027.109.007.221-.005.33-.005.115.003.23-.003.344-.016.055-.008.11-.011.164-.023.027-.005.07 0 .066-.036a.242.242 0 0 0-.07-.144c-.02-.018-.045-.029-.062-.051-.026-.03-.012-.05.005-.08a.629.629 0 0 0 .073-.146c.011-.058.02-.118.024-.177.02-.135.264-.158.362-.18.132-.028.353-.091.399-.24.052-.161-.112-.232-.127-.367a19.343 19.343 0 0 1 7.548 3.566c-.436.35-.699.888.23 1.257.354.14.65-.273.965-.254.155.142.31.288.46.435a.272.272 0 0 1-.02.249c-.063.093-.245.225-.363.145-.147-.1.047-.427-.227-.473a.507.507 0 0 0-.49.229c-.13.207.197.503.062.708-.176.266-.612.06-.859.17-.5.22-.935.695-1.47.936-.243.11-.532.088-.79.118-.17.02-.45.041-.545.207-.112.197.504.449.62.529.315.218.464.496.107.769-.445.34-1.26-.316-1.75.006a.358.358 0 0 0-.067.059l.004.003c.43.495.575 1.178.382 1.805.368-.103.758-.09 1.12.035l.015-.01c.073-.036.156-.052.217-.112.104-.094.059-.254.1-.377.041-.122.14-.19.229-.28.06-.06.103-.147.175-.197.112-.079.269-.052.393-.107.201-.092.09-.354.27-.473.126-.084.277-.034.41.007.362.108.591-.11.934-.136.035-.003.093-.061.13-.076.113-.046.265-.055.362.028.08.068.106.183.172.263.103.123.268.184.399.269.148.097.242.121.404.164.177.048.328.212.493.296.128.066.333.16.33.333-.005.302-.51.222-.687.23-.063.002-.325.02-.347.086-.034.099.414.26.485.27.194.033.276-.104.408-.22.11-.097.259-.155.343-.284.07-.103-.003-.22.012-.331.012-.094.09-.094.118-.169.052-.14-.259-.262-.344-.295a1.731 1.731 0 0 0-.255-.072c-.055-.012-.176-.006-.222-.037-.166-.111-.188-.29-.349-.418-.58-.285-.103-.663.158-.328.406.018.504.444.95.478.213.27.472.125.625.466.027.446.117.44.515.72.136.095.08.573.367.496.092-.025.199-.137.272-.195.043-.034.144-.083.17-.13.085-.145-.18-.156-.23-.243-.238-.414.341-.533.629-.518.08.003.154.043.2.108.02.04.04.079.061.117.04.108.059.233.085.327a.6.6 0 0 0 .285.404 19.525 19.525 0 0 1 .678 1.597c-.179.052-.357.095-.548.033h-.002z"/>
    </defs>
    <g fill="none" fill-rule="evenodd">
        <mask id="b" fill="#fff">
            <use xlink:href="#a"/>
        </mask>
        <g fill="#FFF" mask="url(#b)">
            <path d="M0 0h44v44H0z"/>
        </g>
    </g>
</svg>
