<svg xmlns="http://www.w3.org/2000/svg" xmlns:xlink="http://www.w3.org/1999/xlink" width="150" height="150" viewBox="0 0 150 150">
    <defs>
        <path id="a" d="M48.237 13.85c.184.012.406.012.568.112.048.03.321.394.183.428-.157.04-.392-.022-.476.165-.04.092.018.199-.043.294-.044.07-.191.101-.21.183-.043.205.3.052.33.21.033.174-.48.324-.494.583-.01.213-.02.418.247.352.315-.078.528-.36.824-.484.09-.038.287-.024.354-.068.336-.22.775-.008 1.139-.052.325-.04.541-.398.487-.72-.028-.165-.092-.15-.257-.173-.34-.046-.407-.17-.56-.45-.17-.31-.576-.465-.807-.727-.093-.104-.194-.257-.159-.403.036-.147.344-.355.066-.474-.153-.066-.316.016-.473-.008-.212-.034-.062-.23-.206-.314-.115-.066-.392.024-.5.065-.17.065-.368.172-.469.33-.133.21-.015.297.028.494.108.5.35-.017.428.657zM21.044 51.882a3.02 3.02 0 0 1-.646-2.872 3.013 3.013 0 0 1-1.76-.01c-.05.647-.03 1.29-.138 1.934-.143.848-.577 1.602-.888 2.389-.091.23-.215.523-.165.775.083.404.513.462.285.924-.164.334-.416.631-.625.938-.115.165-.223.357-.22.569 0 .156.097.294.083.449-.026.214-.22.359-.262.566-.051.254.082.57.187.797.44.956 2.255 2.534 3.416 2.186.425-.128.673-.809.636-1.207-.05-.547-.374-.257-.75-.388-.697-.247.532-1.69.48-2.157-.023-.195-.182-.357-.19-.567-.019-.568 1.089-1.536 1.565-1.738.495-.21.851-.577 1.265-.876a6.883 6.883 0 0 1-2.273-1.712zm-1.4-5.847l9.519-9.52 2.318-2.318s13.602-13.52 13.564-13.563c-.06-.067-.12-.13-.18-.19l-.058-.054c-.042-.04-.082-.083-.126-.116l-.065-.055a2.53 2.53 0 0 0-.126-.101l-.058-.044c-.061-.043-.121-.082-.182-.123l-.013-.008a3.046 3.046 0 0 0-.172-.098l-.062-.03c-.043-.021-.083-.042-.129-.061l-.066-.029a2.576 2.576 0 0 0-.133-.05l-.058-.02a3.119 3.119 0 0 0-.19-.057l-.018-.005a3.354 3.354 0 0 0-.175-.04l-.063-.01a2.486 2.486 0 0 0-.137-.022l-.067-.01a5.74 5.74 0 0 0-.143-.014c-.02 0-.038.014-.057.012-.067-.005-.135.007-.201.007h-.02c-.058 0-.116-.019-.175-.019-.105 0-.212-.005-.32 0h-.072c-.11.006-.22.019-.33.019H19.33l6.885 6.694-5.883 5.87-4.272 4.266a4.356 4.356 0 0 0-1.225 3.67 4.16 4.16 0 0 0 1.17 2.388l3.17 3.17.47.461zm23.756-16.3l-9.116 9.117-10.908 10.91c.06.069.123.133.184.196l.061.06c.041.04.083.081.125.117l.072.062.116.097.074.057c.04.03.079.058.118.083l.072.05c.043.027.082.054.128.082l.061.037c.063.036.126.07.19.1l.024.012.165.075.068.026c.042.016.082.032.127.046l.078.024.121.035.083.02c.041.01.082.02.125.028l.077.016.141.022.062.009c.068.009.136.016.204.02h.04c.056 0 .113.007.17.01h.386c.024 0 .048.014.072.013h22.567l-6.884-6.855 9.935-9.945.211-.216a4.228 4.228 0 0 0 0-5.988l-3.636-3.636-5.313 5.316zM35 0C15.67 0 0 15.67 0 35s15.67 35 35 35 35-15.67 35-35S54.33 0 35 0zM13.163 13.163c.741-.74 1.519-1.443 2.33-2.105.1.545.417 1.57.436 1.647.301 1.223-.419.447-.89 1.178-.197.307.201.588.072.843-.544 1.078-1.27-.664-1.89-1.052a1.686 1.686 0 0 0-.386-.176c.11-.112.217-.224.328-.335zM63.07 24.26a2.113 2.113 0 0 0-.669-.135c-.434-.006-.733-.202-1.138-.309-.313-.082-.67-.266-.988-.287-.412-.025-.773.172-.875.577-.04.16-.056.357-.224.437-.283.133-.609-.136-.88-.19a3.166 3.166 0 0 1-.64-.151.807.807 0 0 1-.247-.165c-.057-.057-.123-.225-.188-.257a2.428 2.428 0 0 0-1.035-.255c-.33-.018-.631-.077-.906-.278-.439-.33.083-.437.007-.817-.012-.058-.148-.214-.138-.253.145-.596-.505-.456-.965-.349-.856.083-1.934-.217-2.673.123a4.58 4.58 0 0 0-.916.13c.087.069.169.142.247.22l3.636 3.64a7.247 7.247 0 0 1 .75 9.334c.022.02.043.04.062.063.32.406 0 1.205.025 1.663.035.72.206 1.07.614 1.647.646.913 1.468 1.861 1.274 3.058-.164 1.013-1.16 1.668-.78 2.775.33.965 1.02 1.545 1.26 2.61.196.872.404 1.092.846 1.753.485.723 1.14 3.838 2.658 2.157a.718.718 0 0 1 .26-.037c-7.732 12.777-23.496 18.194-37.449 12.87-13.952-5.326-22.1-19.868-19.354-34.548.252.073.516.124.78.26.107.2.21.183.455.206.476.19.95.484 1.47.484.665-.165.905-.42 1.33.123.384.489 1.362.723 1.936.833.33.063.637.044.901.267.236.198.369.505.565.741.396.47.807.809 1.414.958.412.102.856.136 1.275.237l.848-.847c-1.158-.19-1.983-1.03-2.864-1.744-.488-.397-.981-.788-1.588-.988.013.004.205-1.6-.064-1.828-.677-.577-1.462.682-2.029.906-1.381.552-2.185-.516-2.306-1.836-.28-3.097 4.505-3.797 6.476-2.28.198.152.883 1.175 1.124 1.101.392-.119.113-1.348.13-1.601.048-.77.095-1.103.849-1.546.423-.247.713-.63.921-1.07.137-.289.203-.552.412-.747a3 3 0 0 1 2.652-4.402h2.29c-.044-.03-.087-.06-.132-.088l-.145-.082a1.894 1.894 0 0 0-.637-.234c-.054-.007-.105 0-.155-.009-.021-.004-.104-.019-.067-.044a.247.247 0 0 1 .09-.015l.13-.022c.09-.017.18-.028.272-.032.319-.008.63.078.941.142.154.034.309.059.465.075a.702.702 0 0 0 .247-.01c.063-.017.22.032.208-.023-.031-.059-.156-.108-.12-.191.025-.055.111-.083.161-.11.068-.032.137-.06.208-.082.313-.1.618-.218.94-.292.153-.037.31-.057.467-.06.066 0 .132.004.197.01.059.008.16.006.205.047.046.041-.01.115-.042.154-.048.06-.092.124-.13.191a1.87 1.87 0 0 0-.216.626v.041h2.34c-.257-.272-.813-.478-.993-.81-.224-.412-.046-.939-.368-1.344-.338-.424-.894-.422-1.327-.682-.62-.371-.945-1.089-1.546-1.482-.906-.59-1.342 0-2.3-.078-.588-.047-.914-.486-1.358-.81-.823-.599-1.824-.92-2.825-.76.343-.265.69-.524 1.044-.774l.048.005c.87.117 1.633.585 2.459.847.173.055 1.436.16 1.333.09-.216-.145-1.127-.349-.45-.425.298.063 1.033.316 1.165.009.416-.316.612-.308 1.153-.308.506-.348 1-.614 1.09-1.21-.142-.33.014-.577-.074-.856-.681-.177-.562-.517-.48-.955-.075-.097-.334-.226-.626-.337.063-.027.126-.056.19-.082.747-.316 1.503-.601 2.267-.856.466.293.795.676.675 1.132.278.048.591.07.86-.033.061-.023.118-.11.19-.098.07.012.106.14.14.2a.817.817 0 0 1 .046.086s.2-.034.22-.036a.949.949 0 0 1 .21.007c.128.012.25.062.35.143.035.031.174.122.14.185-.028.046-.134.04-.177.04-.044.002-.106 0-.158.011-.09.014-.179.028-.269.038a.906.906 0 0 1-.238.022c-.122.077.279.09.404.153.103.053.226.065.323.128.165.108-.186.174-.24.2a4.103 4.103 0 0 0-.337.18 1.39 1.39 0 0 0-.373.298.632.632 0 0 0-.15.341.833.833 0 0 0 .098.435c.1.191.216.373.349.543.016.024.032.048.05.07.715.87 2.414 2.118 3.613 1.98 1.317-.151 1.209-1.827 2.465-2.298 1.257-.471 2.561-.802 3.87-1.07.363-.087.72-.194 1.071-.32.496-.155 1-.28 1.51-.374.082-.018.174-.022.261-.035.027-.004.235-.04.146-.091a.659.659 0 0 0-.211-.053c-.082-.014-.159-.025-.238-.036a1.582 1.582 0 0 1-.436-.101c-.033-.017-.103-.032-.092-.083.012-.05.105-.046.147-.043.173.012.351-.007.525-.007.183.004.365-.005.547-.026.087-.013.174-.018.26-.036.043-.008.11 0 .106-.058a.385.385 0 0 0-.113-.228c-.03-.03-.07-.047-.097-.083-.042-.047-.02-.077.007-.127a1 1 0 0 0 .117-.231 2.54 2.54 0 0 0 .037-.282c.031-.215.42-.252.576-.285.21-.047.562-.147.635-.384.083-.256-.178-.368-.201-.584a30.774 30.774 0 0 1 12.007 5.674c-.694.556-1.111 1.412.368 2 .561.224 1.032-.434 1.533-.405.247.226.494.458.734.693.053.13.04.277-.035.395-.1.148-.388.358-.576.232-.233-.159.075-.68-.36-.752a.807.807 0 0 0-.78.363c-.207.33.313.801.098 1.126-.28.424-.973.097-1.366.27-.796.35-1.488 1.107-2.34 1.49-.386.174-.846.14-1.257.188-.27.031-.716.065-.867.33-.177.313.802.713.989.84.5.347.737.79.17 1.224-.709.542-2.005-.502-2.787.01a.57.57 0 0 0-.104.093l.005.006c.685.787.915 1.874.607 2.871a2.979 2.979 0 0 1 1.782.056c.009-.005.015-.012.025-.017.116-.057.247-.082.345-.177.165-.15.093-.405.16-.6.065-.194.223-.303.363-.445.096-.097.165-.235.279-.314.178-.125.428-.082.625-.17.32-.146.142-.563.429-.753.201-.134.442-.053.652.01.576.174.941-.172 1.487-.215.055-.004.148-.097.205-.12.18-.074.424-.088.577.043.127.108.17.291.274.419.165.196.427.292.635.428.235.155.385.193.643.261.28.076.521.338.783.471.205.105.53.255.526.529-.008.48-.812.353-1.092.366-.1.004-.518.033-.554.138-.053.156.66.412.772.429.31.053.44-.165.65-.35.176-.155.411-.247.546-.451.11-.165-.006-.351.018-.528.02-.15.143-.149.188-.268.083-.223-.411-.417-.546-.47a2.754 2.754 0 0 0-.407-.115c-.088-.018-.28-.01-.353-.058-.264-.177-.299-.462-.555-.666-.924-.452-.165-1.054.251-.52.646.027.802.705 1.512.76.339.428.75.199.994.74.043.71.186.7.819 1.145.217.153.127.913.585.79.145-.04.315-.218.432-.31.068-.054.228-.132.27-.207.135-.23-.286-.247-.367-.386-.378-.66.544-.848 1.001-.824a.402.402 0 0 1 .318.172l.098.186c.065.172.094.37.135.52.044.182.132.35.258.488.058.06.124.112.195.154a31.062 31.062 0 0 1 1.079 2.542c-.284.082-.568.151-.872.052h-.002z"/>
    </defs>
    <g fill="none" fill-rule="evenodd">
        <circle cx="75" cy="75" r="75" fill="#000"/>
        <use fill="#8F8F8F" fill-rule="nonzero" transform="translate(40 40)" xlink:href="#a"/>
    </g>
</svg>
