<svg xmlns="http://www.w3.org/2000/svg" xmlns:xlink="http://www.w3.org/1999/xlink" width="24" height="24" viewBox="0 0 24 24">
    <defs>
        <path id="a" d="M9.647 2.77c.037.002.082.002.114.022.01.007.064.08.037.086-.032.008-.079-.004-.096.033-.008.018.004.04-.008.059-.009.014-.038.02-.042.036-.009.041.06.01.066.042.006.035-.096.065-.099.117-.002.043-.004.084.05.07.062-.015.105-.072.164-.096.018-.008.058-.005.07-.014.068-.044.156-.002.229-.01.065-.008.108-.08.097-.144-.005-.033-.018-.03-.051-.035-.068-.01-.082-.034-.112-.09-.034-.062-.115-.093-.162-.145-.018-.021-.038-.052-.031-.081.007-.03.068-.071.013-.095-.03-.013-.063.003-.095-.001-.042-.007-.012-.046-.041-.063-.023-.013-.078.005-.1.013a.192.192 0 0 0-.094.066c-.026.042-.003.06.006.099.021.1.07-.004.085.131zM4.21 10.376a.604.604 0 0 1-.13-.574.602.602 0 0 1-.351-.002c-.01.13-.006.258-.028.387-.029.17-.115.32-.178.478-.018.045-.043.104-.033.155.017.08.103.092.057.184-.032.066-.083.127-.125.188a.201.201 0 0 0-.044.114c0 .031.02.059.017.09-.005.042-.044.071-.052.113-.01.05.016.114.037.16.088.19.451.506.683.436.085-.025.135-.161.127-.24-.01-.11-.074-.052-.15-.079-.14-.05.107-.338.096-.43-.004-.04-.036-.072-.038-.114-.004-.114.218-.308.313-.348.1-.042.17-.115.253-.175a1.377 1.377 0 0 1-.454-.343zM7 0a7 7 0 1 0 0 14A7 7 0 0 0 7 0zm5.653 4.837a.426.426 0 0 0-.135-.027c-.087-.001-.148-.04-.229-.062-.063-.017-.135-.054-.2-.058-.082-.005-.155.035-.176.115-.008.033-.01.072-.045.088-.057.027-.122-.027-.177-.038a.638.638 0 0 1-.129-.03.163.163 0 0 1-.05-.033c-.012-.012-.025-.046-.038-.052a.489.489 0 0 0-.208-.051.317.317 0 0 1-.181-.056c-.089-.066.016-.088.001-.165-.002-.012-.03-.043-.028-.05.03-.121-.101-.093-.194-.071-.173.016-.39-.044-.538.025a.922.922 0 0 0-.185.026.623.623 0 0 1 .05.044l.732.733c.503.505.567 1.3.151 1.88a.102.102 0 0 1 .013.012c.064.083 0 .243.005.335a.532.532 0 0 0 .123.332c.13.183.296.374.257.615-.033.205-.234.336-.157.56.067.194.205.31.254.525.04.176.081.22.17.353.098.146.23.773.535.434.065-.021.117.009.175.023A6.347 6.347 0 0 1 7 13.343 6.35 6.35 0 0 1 .772 5.796c.08.062.177.056.271.106.022.04.043.036.092.041.096.038.191.098.297.098.134-.034.182-.085.268.024.077.1.274.146.39.168.066.013.128.009.18.054.048.04.075.102.115.148.08.095.162.163.284.193.084.02.173.027.257.048l.17-.17c-.233-.038-.4-.207-.576-.351a1.042 1.042 0 0 0-.32-.2c.003.001.041-.322-.013-.368-.136-.116-.294.138-.408.183-.278.111-.44-.104-.464-.37-.058-.624.906-.765 1.304-.459.04.03.178.237.226.222.08-.024.023-.271.026-.322.01-.155.02-.222.171-.312a.475.475 0 0 0 .186-.215c.028-.058.04-.11.082-.15a.604.604 0 0 1 .534-.886h.461L4.28 3.26l-.03-.016a.38.38 0 0 0-.128-.048l-.031-.001c-.005-.001-.021-.004-.014-.01a.05.05 0 0 1 .018-.002l.027-.005a.356.356 0 0 1 .054-.006c.065-.002.127.016.19.029.03.006.062.011.094.015a.142.142 0 0 0 .049-.002c.013-.004.044.006.042-.005-.006-.012-.032-.022-.024-.038.005-.011.022-.017.033-.022a.3.3 0 0 1 .042-.017c.062-.02.124-.044.189-.059a.43.43 0 0 1 .134-.01c.011.002.032.002.04.01.01.008-.001.023-.008.03a.377.377 0 0 0-.07.164v.01h.472c-.052-.055-.164-.097-.2-.164-.045-.083-.01-.189-.074-.27-.068-.086-.18-.085-.268-.138-.124-.074-.19-.219-.31-.297-.183-.12-.271 0-.464-.016-.118-.01-.184-.098-.273-.163-.201-.147-.456-.21-.699-.119-.03.012.084.379.089.4.06.247-.084.09-.18.237-.039.062.041.118.015.17-.11.217-.255-.134-.38-.212-.07-.044-.144-.052-.218-.064.24-.254.502-.488.78-.7.074.005.175-.03.243-.02.176.023.33.117.496.17.034.011.289.033.268.018-.043-.029-.227-.07-.09-.085.06.013.208.063.234.002.084-.064.123-.063.232-.063.102-.072.201-.125.22-.246-.029-.065.003-.115-.015-.172-.137-.035-.113-.104-.097-.192-.035-.046-.27-.126-.327-.111.176-.082.356-.155.54-.221.159.06.328.165.292.303.056.01.119.014.173-.007.013-.004.024-.022.038-.02.015.003.022.029.028.04a.158.158 0 0 1 .01.018l.044-.007a.19.19 0 0 1 .042.001c.026.003.05.013.07.03.008.006.036.024.029.036-.006.01-.027.008-.036.009-.009 0-.021 0-.032.002l-.054.007a.181.181 0 0 1-.048.005c-.024.015.056.018.081.03.021.011.046.014.066.026.033.022-.037.035-.048.04a.829.829 0 0 0-.068.037.28.28 0 0 0-.075.06.128.128 0 0 0-.03.068c-.002.03.005.061.02.088.02.039.043.075.07.11l.01.014c.144.175.486.426.728.399.265-.031.243-.368.496-.463.253-.095.516-.162.78-.217a2.03 2.03 0 0 0 .216-.064c.1-.031.201-.056.304-.075.017-.004.035-.005.053-.007.005-.001.047-.008.029-.019a.133.133 0 0 0-.043-.01l-.047-.008a.318.318 0 0 1-.088-.02c-.007-.004-.02-.007-.019-.017.002-.01.022-.009.03-.008.035.002.07-.002.106-.002.036.001.073 0 .11-.005l.052-.007c.009-.002.022 0 .021-.012a.077.077 0 0 0-.022-.046c-.006-.006-.014-.01-.02-.017-.008-.01-.004-.015.002-.025a.202.202 0 0 0 .023-.047.507.507 0 0 0 .008-.057c.006-.043.085-.05.115-.057.042-.01.113-.03.128-.077.016-.054-.04-.076-.041-.124 0-.034.057-.036.08-.049.022-.01.042-.006.063-.031L8.525.839c.868.216 1.68.613 2.384 1.165-.184.095-.404.325-.033.473.153.06.273-.205.42-.009.03.04.061.099.03.146-.02.03-.079.072-.116.047-.047-.032.015-.137-.073-.152a.162.162 0 0 0-.157.074c-.041.065.064.161.02.226-.056.086-.196.02-.275.055-.16.07-.3.223-.471.3-.078.035-.17.028-.254.038-.054.006-.144.013-.174.066-.036.064.162.144.198.17.1.07.148.159.034.247-.143.109-.404-.101-.561.002a.114.114 0 0 0-.021.019.608.608 0 0 1 .123.579.6.6 0 0 1 .359.011l.005-.003c.023-.012.05-.018.07-.036.032-.03.018-.082.031-.12.014-.039.045-.062.074-.09.019-.02.033-.048.056-.063.036-.026.086-.017.126-.035.064-.029.028-.113.086-.151.04-.027.09-.01.132.002.115.035.19-.035.3-.044.01 0 .029-.02.04-.024.037-.015.086-.018.117.01.026.02.034.058.055.083.033.04.086.06.128.087.047.03.078.038.13.052.056.015.105.068.158.095.04.021.106.051.105.106-.001.097-.163.072-.22.074-.02.001-.104.007-.11.028-.012.031.132.082.155.086.062.01.088-.033.13-.07.036-.031.084-.05.11-.09.023-.035 0-.072.004-.107.004-.03.029-.03.038-.054.017-.045-.082-.084-.11-.095a.555.555 0 0 0-.082-.023c-.018-.004-.057-.002-.071-.012-.054-.035-.06-.093-.112-.134-.186-.09-.033-.212.05-.105.13.006.162.143.305.154.07.089.151.042.2.152.01.143.038.141.166.231.043.03.025.184.117.16.03-.009.064-.045.087-.063.014-.011.046-.027.055-.042.027-.046-.058-.05-.074-.078-.077-.131.11-.17.201-.166.087.005.094.114.111.177.009.037.027.07.052.099a.196.196 0 0 0 .052.038c.03.016.063.02.093.04.02.018.044.032.07.04.058.131.113.265.164.4h-.004c-.1.004-.193.065-.295.032zm-3.95 1.04L6.867 7.715 4.66 9.919c.058.058.326.22.715.257.408.052 4.237.036 4.237.036L8.33 8.929l2.136-2.136c.482-.482.503-1.05.169-1.384l-.732-.731-1.2 1.2zm-4.624 3.46l1.2-1.2L7.115 6.3l2.206-2.205c-.059-.058-.325-.22-.713-.256-.409-.052-4.237-.034-4.237-.034l1.28 1.28-2.135 2.136c-.482.482-.5 1.05-.167 1.385l.73.73z"/>
    </defs>
    <g fill="none" fill-rule="evenodd">
        <circle cx="12" cy="12" r="12" fill="#FF7900"/>
        <g transform="translate(5 5)">
            <mask id="b" fill="#fff">
                <use xlink:href="#a"/>
            </mask>
            <g fill="#FFF" mask="url(#b)">
                <path d="M0 0h14v14H0z"/>
            </g>
        </g>
    </g>
</svg>
