<svg xmlns="http://www.w3.org/2000/svg" xmlns:xlink="http://www.w3.org/1999/xlink" width="81" height="81" viewBox="0 0 81 81">
    <defs>
        <path id="a" d="M18.363 35.843c-9.529 0-17.26-7.73-17.26-17.26 0-9.536 7.731-17.267 17.26-17.267 9.537 0 17.268 7.73 17.268 17.268 0 9.529-7.731 17.26-17.268 17.26"/>
        <path id="c" d="M0 .307h33.882v62.73H0z"/>
        <path id="e" d="M.512.087h28.32v41.339H.512z"/>
        <path id="g" d="M0 0h48.392v58.07H0z"/>
        <path id="i" d="M0 .307h33.882v62.73H0z"/>
        <path id="k" d="M.512.087h28.32v41.339H.512z"/>
    </defs>
    <g fill="none" fill-rule="evenodd">
        <path fill="#595959" d="M44.234 5.497V22.42a19.101 19.101 0 0 0-6.651 0V5.497h6.65zM44.293 62.926V79.69h-6.65V62.926a19.08 19.08 0 0 0 6.651 0M20.333 42.589c0 1.11.092 2.189.276 3.245H3.777v-6.651H20.64a18.498 18.498 0 0 0-.306 3.406M78.03 39.183v6.65H60.61c.184-1.055.276-2.135.276-3.244 0-1.163-.1-2.304-.306-3.406h17.45z"/>
        <path fill="#FF7900" d="M40.727 59.819c-9.529 0-17.26-7.73-17.26-17.26 0-9.537 7.731-17.267 17.26-17.267 9.537 0 17.267 7.73 17.267 17.267 0 9.53-7.73 17.26-17.267 17.26m0-52.27C21.4 7.55 5.725 23.226 5.725 42.56c0 19.327 15.675 35.002 35.002 35.002 19.334 0 35.01-15.675 35.01-35.002 0-19.334-15.676-35.01-35.01-35.01"/>
        <path fill="#FDCC00" d="M33.955 58.44L20.96 71.435a35.199 35.199 0 0 1-9.116-9.108l13.004-13.004a17.305 17.305 0 0 0 9.108 9.115M69.615 22.78L56.62 35.776a17.358 17.358 0 0 0-9.116-9.108l13.004-12.996a35.052 35.052 0 0 1 9.108 9.108M33.955 26.668a17.333 17.333 0 0 0-9.108 9.116L11.85 22.787a34.856 34.856 0 0 1 9.109-9.115l12.996 12.996zM69.615 62.328a34.817 34.817 0 0 1-9.108 9.108L47.503 58.439a17.357 17.357 0 0 0 9.116-9.108l12.996 12.997z"/>
        <path fill="#4BB4E6" d="M40.73 5.666c-20.34 0-36.889 16.548-36.889 36.89 0 20.34 16.549 36.889 36.89 36.889 20.34 0 36.89-16.549 36.89-36.89 0-20.34-16.55-36.89-36.89-36.89m0 74.621C19.926 80.286 3 63.36 3 42.556 3 21.75 19.926 4.823 40.73 4.823c20.806 0 37.732 16.927 37.732 37.731 0 20.805-16.926 37.731-37.731 37.731"/>
        <g>
            <g transform="translate(22.357 23.97)">
                <mask id="b" fill="#fff">
                    <use xlink:href="#a"/>
                </mask>
                <g mask="url(#b)">
                    <g transform="translate(-1.626 -12.732)">
                        <mask id="d" fill="#fff">
                            <use xlink:href="#c"/>
                        </mask>
                        <path fill="#835F45" d="M14.705 1.552c.203-.815 3.397-3.989 6.59 4.631 3.19 8.622 1.991 9.472 2.426 13.026.433 3.553 10.086 8.311 10.086 8.311s.561.35-1.392 2.395c-1.95 2.046-3.985 4.759-7.218 11.557-3.407 7.168-11.311 21.565-11.311 21.565H0v-4.72s16.115-27.628 16.12-29.811c.004-2.183.33-4.125.926-9.889.37-3.567.553-3.227-.302-9.002-.85-5.732-2.387-6.649-2.039-8.063" mask="url(#d)"/>
                    </g>
                    <g transform="translate(15.367 -23.695)">
                        <mask id="f" fill="#fff">
                            <use xlink:href="#e"/>
                        </mask>
                        <path fill="#000" d="M7.615 38.874c.394 1.768 2.199 2.875 4.024 2.467l14.522-3.236c1.827-.407 2.99-2.173 2.594-3.945L21.729 2.642C21.333.872 19.532-.235 17.704.17L3.184 3.408C1.355 3.816.194 5.584.59 7.357l7.026 31.517z" mask="url(#f)"/>
                    </g>
                    <path fill="#FDCC00" d="M35.138 12.687a1.724 1.724 0 0 1-1.308 2.053 1.717 1.717 0 0 1-2.048-1.305 1.718 1.718 0 1 1 3.356-.748M27.888-20.022a.328.328 0 0 1-.246.385l-2.437.543a.324.324 0 0 1-.387-.245.323.323 0 0 1 .246-.381l2.439-.543c.17-.04.344.07.385.241M24.151-19.094a.484.484 0 1 1-.945.211.484.484 0 0 1 .945-.21"/>
                    <path fill="#714E46" d="M15.432 5.885c.303-2.81.303-5.403-.304-9.002-.965-5.714-2.388-6.65-2.038-8.063.203-.816 3.26-3.937 6.588 4.63 1.541 3.974 1.497 15.772 2.164 19.587.419 2.404-2.633.133-2.693-.049-.062-.18-3.717-7.103-3.717-7.103"/>
                    <path fill="#FF7900" d="M41.233 8.514l-6.315-28.33-3.969.884-3.992.89L18.24-16.1l6.316 28.331 3.666-.817.883-.197v.002z"/>
                    <path fill="#FFF" d="M34.812-.653a6.134 6.134 0 0 1-3.945 2.575 6.129 6.129 0 0 1-4.61-.968 6.141 6.141 0 0 1-2.683-5.084c.052.005.106.006.163.023.028.035.047.028.096.024.1.02.204.06.306.04.124-.058.161-.116.265-.025.093.081.293.092.41.092.067 0 .126-.015.186.019.053.03.091.086.138.124a.525.525 0 0 0 .313.136c.084.004.172-.005.258 0l.135-.198c-.234.006-.427-.128-.625-.236a1.034 1.034 0 0 0-.348-.136c.003 0-.018-.32-.08-.355-.154-.089-.261.187-.364.252-.25.16-.447-.02-.519-.274-.169-.597.743-.91 1.185-.686.044.022.216.198.26.175.074-.039-.026-.268-.033-.32-.019-.151-.022-.219.11-.333a.466.466 0 0 0 .14-.243c.017-.061.02-.116.054-.161a.599.599 0 0 1 .357-.96l.449-.085-.03-.011a.435.435 0 0 0-.031-.01.362.362 0 0 0-.133-.023c-.01 0-.02.004-.03.004-.006 0-.022 0-.016-.007.004-.003.013-.004.018-.006.008-.002.016-.006.024-.01l.052-.015c.063-.014.127-.008.19-.007.031 0 .063 0 .094-.003a.148.148 0 0 0 .048-.01c.011-.006.044-.002.04-.012-.009-.011-.035-.016-.03-.033.002-.012.018-.021.027-.028.011-.009.024-.015.037-.023.058-.031.113-.065.174-.092a.462.462 0 0 1 .128-.033c.012 0 .031-.006.042.001.011.008.002.023-.003.032-.007.014-.014.027-.018.042a.356.356 0 0 0-.02.13l.001.009.46-.087c-.06-.043-.178-.064-.225-.122-.059-.073-.043-.182-.121-.25-.082-.07-.19-.05-.285-.085-.135-.05-.225-.178-.357-.232-.2-.083-.263.049-.453.07-.118.012-.198-.063-.296-.11a.756.756 0 0 0-.582-.044 5.25 5.25 0 0 1 .176-.191h.01c.175-.01.341.054.512.075.037.005.288-.021.265-.032-.048-.02-.234-.026-.104-.067.06.002.214.025.229-.04.07-.077.108-.083.214-.103.086-.088.172-.16.168-.28-.04-.059-.017-.113-.045-.165-.14-.008-.13-.08-.13-.169a.373.373 0 0 0-.134-.043l.033-.023c.135-.09.273-.173.413-.25.102.04.18.102.174.196a.326.326 0 0 0 .167-.038c.011-.007.02-.026.034-.026.016 0 .026.023.035.034l.012.015.042-.015a.27.27 0 0 1 .042-.007c.024 0 .05.002.073.016.008.004.039.017.034.03-.003.01-.024.013-.033.015l-.03.008-.052.018c-.015.004-.03.011-.046.012-.021.02.058.008.085.015.022.007.047.005.068.014.037.015-.03.04-.04.048-.02.015-.04.03-.059.047a.274.274 0 0 0-.062.072.129.129 0 0 0-.017.073c.003.03.018.058.036.081a.687.687 0 0 0 .087.094l.013.012c.172.144.55.326.78.255.253-.078.17-.403.399-.541.229-.139.472-.252.72-.353.068-.029.133-.067.197-.102.092-.05.186-.09.282-.13l.05-.015c.005-.002.045-.017.025-.023-.013-.005-.03-.003-.043-.003l-.048.001c-.03.002-.06.004-.088-.004-.008-.002-.022-.002-.022-.012 0-.012.019-.012.028-.013.034-.004.068-.015.102-.02.036-.008.072-.014.106-.026.017-.006.034-.01.05-.017.008-.003.021-.003.019-.015a.078.078 0 0 0-.031-.04c-.007-.006-.016-.008-.022-.013-.01-.007-.007-.014-.003-.025.005-.016.013-.032.014-.05.001-.018-.002-.038-.003-.056-.002-.043.074-.065.102-.077.04-.017.105-.049.11-.099.007-.053-.048-.065-.06-.106a6.15 6.15 0 0 1 2.561.67c-.116.134-.166.317.145.378.118.023.186-.123.286-.136.057.035.113.072.169.11.013.023.02.05.007.078-.014.033-.062.084-.103.066-.052-.023-.01-.136-.098-.135a.161.161 0 0 0-.14.1c-.028.073.09.147.06.218-.038.093-.186.054-.257.102-.143.098-.25.273-.403.379-.07.048-.161.058-.24.083-.052.016-.138.038-.157.096-.024.069.183.11.224.129.11.05.173.128.078.234-.119.132-.411-.025-.546.104a.1.1 0 0 0-.017.022l.002.001c.15.12.251.322.225.54a.576.576 0 0 1 .35-.054l.005-.005c.02-.015.045-.025.06-.047.027-.035.004-.083.01-.123.006-.042.033-.068.054-.1.016-.024.025-.053.043-.073.031-.03.082-.031.117-.056.057-.041.007-.115.056-.163.035-.034.085-.027.129-.022.118.012.177-.069.282-.097.011-.003.026-.025.037-.031.032-.021.079-.033.114-.013.03.017.044.05.07.072.038.032.094.042.14.06.051.022.082.024.135.028.058.005.115.047.171.064.044.012.113.03.123.084.016.094-.147.099-.201.112-.02.004-.1.025-.103.047-.005.033.145.056.167.056.063-.002.08-.049.114-.093.03-.036.072-.064.09-.109.016-.037-.014-.068-.015-.104-.002-.03.022-.034.027-.059.009-.047-.095-.067-.124-.072a.512.512 0 0 0-.084-.007c-.018 0-.055.008-.072.001-.058-.025-.075-.079-.133-.11-.197-.054-.07-.2.03-.11.128-.02.183.108.324.092.082.072.155.012.223.109.034.137.061.13.202.194.048.023.059.174.143.134.028-.014.054-.055.074-.078.01-.012.04-.033.045-.05.018-.05-.065-.037-.087-.062-.098-.114.076-.186.167-.198a.079.079 0 0 1 .068.022c.01.01.017.022.027.033.018.031.032.069.045.097a.209.209 0 0 0 .069.086.18.18 0 0 0 .043.023 6.096 6.096 0 0 1 .305.457c-.054.026-.107.05-.17.042a.464.464 0 0 0-.136-.003c-.085.016-.152-.012-.234-.018-.065-.005-.142-.027-.205-.02-.081.01-.146.063-.15.145-.002.033.002.072-.029.094-.05.036-.124-.005-.179-.005-.043 0-.088.004-.13-.006a.186.186 0 0 1-.056-.022c-.012-.01-.032-.04-.045-.044a.496.496 0 0 0-.213-.012.307.307 0 0 1-.187-.021c-.098-.048.001-.089-.029-.16-.004-.011-.036-.037-.036-.044.006-.123-.116-.071-.202-.033-.164.047-.387.029-.519.122a.928.928 0 0 0-.175.06c.02.01.038.02.057.033l.846.579c.59.405.785 1.173.49 1.8l.015.011c.078.068.045.236.066.325.034.14.08.202.18.3.161.155.357.31.363.552.005.204-.166.37-.05.572.1.177.256.266.342.465.07.164.12.199.23.312.122.124.365.71.6.325a.15.15 0 0 1 .05-.017 6.12 6.12 0 0 1-.687 1.321zM24.65-7.603c.118-.172.245-.338.379-.497.04.104.14.292.146.306.104.23-.066.104-.13.265-.028.067.06.107.044.162-.066.231-.273-.083-.409-.137a.344.344 0 0 0-.082-.02l.052-.078zm11.938 2.187a6.977 6.977 0 1 0-13.714 2.579 6.977 6.977 0 0 0 13.714-2.579zm-4.559-1.288l-.845 1.236-1.45 2.12-1.737 2.54.044.031.014.01a.26.26 0 0 0 .029.018l.016.01.026.015.017.008a.468.468 0 0 0 .026.013l.015.007a.66.66 0 0 1 .029.01l.013.005a.5.5 0 0 0 .046.015l.037.008.014.002a.319.319 0 0 0 .043.007.281.281 0 0 0 .025.003h.016a.307.307 0 0 0 .041.002l.028-.001h.013a.814.814 0 0 0 .04-.004l.009-.001.033-.005.016-.003a.398.398 0 0 0 .024-.004l.014-.003.02-.004h.015l.05-.01 4.371-.821-1.6-1.09 1.58-2.313.034-.05a.844.844 0 0 0-.22-1.173l-.846-.578zm-4.9 5.304l1.514-2.216.368-.54S31.18-7.303 31.17-7.31l-.042-.03-.014-.01a.66.66 0 0 1-.029-.017l-.014-.009-.03-.015-.012-.006a1.043 1.043 0 0 0-.04-.018h-.003l-.038-.014-.012-.003-.028-.007-.014-.003-.027-.006-.013-.001a.385.385 0 0 0-.04-.005h-.003a.654.654 0 0 0-.036-.001h-.04l-.014.002-.028.002c-.004 0-.007.005-.011.005-.013.001-.026.006-.039.008l-.005.001c-.01.003-.023 0-.035.003-.02.003-.041.006-.062.011l-.014.004c-.022.005-.042.012-.064.015l-4.371.821 1.594 1.058-.936 1.366-.68.993a.869.869 0 0 0-.105.764.826.826 0 0 0 .317.424l.738.504.108.075zm.257.554a.627.627 0 0 1-.346.062c.015.13.042.255.045.385.003.17-.054.335-.086.501-.01.048-.023.11-.003.158.031.076.117.072.09.17-.02.072-.059.14-.088.207a.208.208 0 0 0-.022.12c.006.03.03.054.032.085.003.043-.03.078-.031.12 0 .052.038.109.066.15.121.17.535.413.75.302.078-.04.102-.183.08-.26-.03-.106-.082-.036-.162-.049-.145-.021.043-.35.015-.44-.011-.037-.048-.063-.058-.103-.024-.11.157-.341.243-.398.089-.06.146-.144.216-.219a1.378 1.378 0 0 1-.509-.252.601.601 0 0 1-.232-.539zm4.16-7.911c.036-.005.08-.013.115 0 .01.005.077.065.052.077-.03.014-.077.011-.087.05-.004.02.01.038.002.06-.006.015-.033.026-.034.043-.001.041.06 0 .072.029.013.032-.082.08-.075.132.006.041.011.082.061.06.059-.027.09-.09.143-.125.017-.011.056-.015.067-.026.058-.056.152-.03.222-.053.062-.02.091-.098.068-.158-.01-.032-.023-.026-.056-.025-.068.003-.086-.018-.126-.068-.045-.054-.13-.07-.185-.113-.022-.016-.048-.043-.047-.072.002-.03.055-.083-.004-.096-.032-.007-.061.015-.093.016-.043.001-.02-.043-.052-.054-.024-.008-.075.02-.095.031a.196.196 0 0 0-.08.082c-.018.046.008.06.024.097.04.093.068-.016.108.113z"/>
                    <path fill="#714E46" d="M41.528-6.13a1.78 1.78 0 0 1-1.336 2.134l-3.685.843a1.78 1.78 0 0 1-.797-3.47l3.685-.843a1.78 1.78 0 0 1 2.133 1.337M43.161 1.39a1.78 1.78 0 0 1-1.336 2.134l-4.023.92a1.779 1.779 0 1 1-.795-3.467l4.022-.923a1.78 1.78 0 0 1 2.132 1.337M43.822 5.065a1.783 1.783 0 0 1-1.338 2.133l-2.897.665a1.778 1.778 0 1 1-.796-3.468l2.898-.667c.956-.22 1.911.38 2.133 1.337M42.503-2.407a1.89 1.89 0 0 1-1.418 2.263l-4.27.98a1.884 1.884 0 0 1-2.26-1.419 1.885 1.885 0 0 1 1.414-2.262l4.271-.981a1.891 1.891 0 0 1 2.263 1.42"/>
                </g>
            </g>
            <g transform="translate(24.293 -7)">
                <mask id="h" fill="#fff">
                    <use xlink:href="#g"/>
                </mask>
                <g mask="url(#h)">
                    <g transform="translate(-3.561 18.239)">
                        <mask id="j" fill="#fff">
                            <use xlink:href="#i"/>
                        </mask>
                        <path fill="#835F45" d="M14.705 1.552c.203-.815 3.397-3.989 6.59 4.631 3.19 8.622 1.991 9.472 2.426 13.026.433 3.553 10.086 8.311 10.086 8.311s.561.35-1.392 2.395c-1.95 2.046-3.985 4.759-7.218 11.557-3.407 7.168-11.311 21.565-11.311 21.565H0v-4.72s16.115-27.628 16.12-29.811c.004-2.183.33-4.125.926-9.889.37-3.567.553-3.227-.302-9.002-.85-5.732-2.387-6.649-2.039-8.063" mask="url(#j)"/>
                    </g>
                    <g transform="translate(13.431 7.276)">
                        <mask id="l" fill="#fff">
                            <use xlink:href="#k"/>
                        </mask>
                        <path fill="#000" d="M7.615 38.874c.394 1.768 2.199 2.875 4.024 2.467l14.522-3.236c1.827-.407 2.99-2.173 2.594-3.945L21.729 2.642C21.333.872 19.532-.235 17.704.17L3.184 3.408C1.355 3.816.194 5.584.59 7.357l7.026 31.517z" mask="url(#l)"/>
                    </g>
                    <path fill="#FDCC00" d="M33.202 43.657a1.724 1.724 0 0 1-1.307 2.054 1.717 1.717 0 0 1-2.048-1.305 1.718 1.718 0 1 1 3.355-.749M25.952 10.949a.328.328 0 0 1-.246.385l-2.437.542a.324.324 0 0 1-.387-.244.323.323 0 0 1 .246-.382l2.44-.542c.17-.04.343.07.384.241M22.215 11.877a.484.484 0 1 1-.945.211.484.484 0 0 1 .945-.21"/>
                    <path fill="#835F45" d="M13.496 36.856c.304-2.81.304-5.403-.304-9.002-.965-5.714-2.388-6.65-2.038-8.063.203-.816 3.261-3.937 6.588 4.63 1.542 3.974 1.497 15.772 2.164 19.587.42 2.404-2.632.133-2.693-.049-.062-.18-3.717-7.103-3.717-7.103"/>
                    <path fill="#333" d="M39.298 39.485l-6.316-28.33-3.969.883-3.991.89-8.72 1.944 6.317 28.33 3.667-.816.882-.197v.002z"/>
                    <path fill="#835F45" d="M39.592 24.842a1.78 1.78 0 0 1-1.335 2.132l-3.686.844a1.78 1.78 0 0 1-.796-3.47l3.684-.843a1.78 1.78 0 0 1 2.133 1.337M41.226 32.362a1.78 1.78 0 0 1-1.337 2.133l-4.023.92a1.779 1.779 0 1 1-.795-3.467l4.023-.923a1.78 1.78 0 0 1 2.132 1.337M41.886 36.036a1.783 1.783 0 0 1-1.338 2.133l-2.897.665a1.778 1.778 0 1 1-.796-3.468l2.898-.667c.957-.22 1.911.38 2.133 1.337M40.568 28.564a1.89 1.89 0 0 1-1.419 2.263l-4.27.98a1.884 1.884 0 0 1-2.26-1.419 1.885 1.885 0 0 1 1.415-2.262l4.27-.981a1.891 1.891 0 0 1 2.264 1.42"/>
                </g>
            </g>
        </g>
    </g>
</svg>
