<svg xmlns="http://www.w3.org/2000/svg" xmlns:xlink="http://www.w3.org/1999/xlink" width="160" height="160" viewBox="0 0 160 160">
    <defs>
        <path id="a" d="M.294 79.92c0 43.94 35.743 79.561 79.833 79.561 44.09 0 79.833-35.62 79.833-79.562 0-43.94-35.742-79.562-79.833-79.562C36.037.357.294 35.978.294 79.919z"/>
    </defs>
    <g fill="none" fill-rule="evenodd">
        <g>
            <mask id="b" fill="#fff">
                <use xlink:href="#a"/>
            </mask>
            <path fill="#A885D8" d="M-3.81 174.198h170.478V-13.017H-3.81z" mask="url(#b)"/>
            <path fill="#FFF" d="M21.622 70.31l-7.408.772c-2.048.214-1.415 3.341.62 3.13l7.408-.773c2.047-.213 1.414-3.341-.62-3.129M28.32 54.594l-4.563-1.304c-1.976-.566-3.03 2.446-1.048 3.014l4.563 1.304c1.976.566 3.031-2.447 1.049-3.014M136.464 49.553l-6.911 1.708c-1.993.493-1.444 3.636.558 3.141l6.911-1.707c1.993-.493 1.444-3.636-.558-3.142M125.788 32.803l-7.048 4.015c-1.779 1.013-.44 3.912 1.349 2.893l7.048-4.015c1.778-1.012.44-3.911-1.349-2.893M111.533 19.202l-5.653 5.611c-1.45 1.439.61 3.882 2.071 2.431l5.654-5.611c1.45-1.439-.61-3.882-2.072-2.431M138.194 70.833l-5.933-1.189c-.848-.17-1.66.672-1.724 1.46-.078.942.615 1.548 1.465 1.719l5.932 1.189c.848.17 1.66-.672 1.725-1.46.077-.942-.615-1.549-1.465-1.72M125.617 91.427l-2.522-1.341c-.762-.405-1.7-.345-2.224.421-.447.653-.344 1.809.422 2.216l2.522 1.341c.762.405 1.7.346 2.224-.42.447-.654.344-1.81-.422-2.217" mask="url(#b)"/>
            <path fill="#D5D5D5" d="M33.05 107.204s18.478 12.731 19.457 13.017c.978.284 77.992 0 77.992 0l-20.68-13.49-75.091-3.178-1.678 3.65z" mask="url(#b)"/>
            <path fill="#AAA" d="M46.955 105.56l13.684 10.906 1.27-5.582-13.379-7.152z" mask="url(#b)"/>
            <path fill="#085EBD" d="M113.524 106.245c7.479 4.945 14.966 9.877 22.426 14.85 1.039.692 1.635 1.736 1.548 3.059-.654.62-1.488.532-2.277.532-29.213.012-58.426.014-87.639.003-.573 0-1.147-.01-1.7-.18-1.111-1.078-1.083-1.813.127-3.125 1.207-1.31 1.215-1.322-.244-2.291-6.859-4.562-13.725-9.113-20.576-13.685-.69-.46-1.543-.795-1.778-1.723.31-.432.745-.278 1.117-.278 6.07-.01 12.14-.016 18.21.003.7.002 1.84-.352 1.327 1.131h-8.033c-.123.689.402.738.683.93 5.857 3.99 11.732 7.953 17.582 11.954.79.542 1.572.792 2.54.79 22.105-.02 44.21-.014 66.315-.02.255 0 .562.158.914-.31l-9.464-6.341c-2.397-.73-4.185-2.459-6.208-3.798-.25-.165-.205-.51-.072-.79 1.61-1.143 3.4-.98 5.202-.71" mask="url(#b)"/>
            <path fill="#000" d="M45.4 124.114c7.903.013 15.807.034 23.71.036 22.797.006 45.592.003 68.387.004.194.876-.369 1.55-.625 2.305-.263 1.178-1.14 1.65-2.21 1.871-.79.165-1.598.127-2.4.127-27.167.003-54.334 0-81.5.006-1.864 0-3.693-.044-5.07-1.573-.56-.875-1.018-1.765-.293-2.776" mask="url(#b)"/>
            <path fill="#000" d="M45.965 126.523c1.062 1.098 2.352 1.445 3.878 1.443 27.672-.027 55.344-.028 83.015.005 1.592.001 2.92-.363 4.014-1.512.492 1.087 1.994 1.895 1.271 3.308-.779 1.525-2.364.841-3.589.843-27.338.035-54.677-.032-82.015.089-4.225.018-7.763-1.06-11.115-3.567-6.527-4.884-13.194-9.584-19.817-14.34-1.106-.795-1.727-1.67-.963-3.022.682-.313 1.057.26 1.499.555 6.91 4.602 13.829 9.19 20.75 13.775 1.095.726 2.15 1.487 3.072 2.423" mask="url(#b)"/>
            <path fill="#FE7702" d="M47.488 105.562c-.279.046-.753.072-.669-.24.488-1.827-.574-2.727-2.011-3.364.104-.209.163-.381.19-.376 1.959.365 2.504-.6 2.68-2.404.214-2.205.83-4.37 1.199-6.564.16-.957.624-1.29 1.57-1.426 13.634-1.97 26.963-5.175 39.888-9.957 1.036-.383 1.524-.12 2.142.624 2.013 2.417 4.146 4.736 6.109 7.192.872 1.093 1.802 1.507 3.064 1.02 1.878-.727 2.857-.053 3.853 1.666 2.544 4.396 5.375 8.626 8.046 12.95.2.323 1.396.9-.005 1.31-3.94.551-7.829 1.516-11.844 1.437-.386-.058-.744-.17-.953-.539.254-.732.906-.517 1.428-.573 2.774-.301 5.543-.64 8.319-.922 1.623-.165 1.706-.365.829-1.754a299.806 299.806 0 0 1-6.95-11.583c-.669-1.175-1.448-1.39-2.482-1.055.709-.151 1.587-.362 2.101.537 2.488 4.352 5.281 8.523 7.65 12.946-.122.653-.506.55-.934.323-.745-.657-1.161-1.546-1.653-2.378-.444-.751-.893-.827-1.404-.086-.851 1.232-1.965 2.224-3.003 3.29-.377.3-.783.537-1.261.637-5.254.78-10.561.902-15.846 1.092-5.76.206-11.541.432-17.302-.184-1.42-.152-2.862.123-4.274-.214-.547-.327-1.138-.63-.878-1.445 1.856-.646 3.82-.56 5.734-.814 2.892-.386 5.781-.799 8.69-1.038.27-.065.543-.074.816-.035.968.305 1.965.593 2.864 1.036 2.266 1.118 4.022.378 5.631-1.25.397-.401.78-.822 1.283-1.105.15-.08.309-.138.471-.187 4.031-.816 8.122-1.283 12.163-2.04.487-.092 1.157.086 1.388-.452.25-.58-.47-.819-.71-1.238-1.193-2.081-2.942-1.456-4.665-.968-2.284.382-4.5 1.043-6.734 1.625a3.49 3.49 0 0 1-.513.162c-1.956.686-4.004.972-6.021 1.388-.692.128-1.377.296-2.076.383-1.928.917-4.019 1.056-6.094 1.273-1.567.258-3.111.658-4.71.716-.469-.075-.964-.112-1.114-.695.974-1.15 2.422-.908 3.661-1.128 8.4-1.492 16.696-3.425 24.923-5.662 1.731-.472 1.734-.553.53-1.986-2.717-3.232-5.533-6.379-8.124-9.717-.706-.908-1.415-1.668-2.873-1.133-11.802 4.328-24.018 7.046-36.382 9.166-.396.11-.794.209-1.193.304-.528.19-1.24-.348-1.622.416-1.018 3.668-1.175 7.473-1.88 11.189-.276.649-.195 1.503-1.042 1.83" mask="url(#b)"/>
            <path fill="#BCBCBC" d="M114.83 112.051c.366 4.545.366 4.545-4.08 4.545-16.244 0-32.486-.029-48.73.042-1.743.007-2.414-.43-2.153-2.174.118-.782.044-1.592.058-2.39.802-.637 1.755-.414 2.648-.415 16.189-.014 32.377-.015 48.567 0 1.235.002 2.525-.343 3.69.392" mask="url(#b)"/>
            <path fill="#4BB3E5" d="M45.965 126.523c-4.877-3.196-9.763-6.378-14.628-9.592-3.579-2.365-7.13-4.772-10.693-7.16-.996-1.406-1.402-2.901-.465-4.475.903-1.515 2.344-2.072 4.073-2.068 6.246.014 12.493.004 18.739.007.88 0 1.889-.085 1.073 1.307.08-.73-.234-1.004-.98-1.001-6.443.018-12.885.01-19.847.01l25.017 16.657c-1.476 1.04-3.146 1.817-2.854 3.906-.308.919.238 1.638.565 2.409" mask="url(#b)"/>
            <path fill="#FE7002" d="M80.834 51.137c.604-.516 1.002-.062 1.453.283a104.574 104.574 0 0 0 10.667 7.169c1.13.662 1.012 1.115.368 2.056-9.24 13.502-22.12 21.512-37.955 25.088-1.227.277-2.504.38-3.694.763-1.365.439-2.177-.027-3.05-1.054-5.074-5.972-9.895-12.125-13.929-18.856-.227-.38-.439-.769-.741-1.3 2.753-.212 5.35-.349 7.93-.624 6.322-.675 12.293-2.572 18.011-5.3l.216.134c.451 1.18-.605 1.35-1.233 1.654-4.62 2.235-9.496 3.687-14.57 4.44-2.598.386-5.193.853-7.936.692.056.921.61 1.464.988 2.053 3.621 5.634 7.755 10.88 12.148 15.932.696.8 1.378.952 2.393.756 11.05-2.141 21.188-6.305 29.776-13.681 3.463-2.975 6.667-6.273 9.354-10.006 1.035-1.438 1.017-1.466-.496-2.47-2.86-1.9-5.761-3.744-8.458-5.874-.556-.44-1.346-.73-1.367-1.633l.125-.222z" mask="url(#b)"/>
            <path fill="#FE6F04" d="M59.894 59.362c-2.87-1.727-5.88-3.218-8.61-5.19-1.202-.87-1.057-1.298-.032-2.183C57.505 46.59 63.257 40.73 67.62 33.651c2.717-4.409 4.713-9.112 5.617-14.23.16-.912.31-1.251 1.373-.925 5.633 1.73 11.428 2.362 17.296 2.032 1.82-.103 1.755.63 1.55 1.949-1.566 10.033-5.933 18.85-11.71 27.068-.35.498-.904.895-.912 1.592l.032-.036c-.352.479-.531 1.054-.854 1.55-.772 1.24-1.64 2.405-2.696 3.422-.596.577-1.228 1.122-1.655 1.852a3.202 3.202 0 0 1-.275.374c-.823.936-1.847 1.69-2.502 2.778-.087.14-.187.27-.294.396-1.23 1.792-2.737 2.021-4.741 1.19-2.209-.914-4.532-1.56-6.737-2.512-.501-.149-.828-.564-1.26-.82l.042.03z" mask="url(#b)"/>
            <path fill="#F5892E" d="M114.83 112.051l-54.905.023c-3.105-2.093-6.213-4.18-9.312-6.282-1.006-.682-2.102.098-3.124-.23l.64-1.662c.837.644 1.803.703 2.764.475.903-.214 1.808-.228 2.72-.265a4.84 4.84 0 0 0 1.664-.232c4.935-.373 9.802-1.276 14.709-1.866.558-.068 1.127-.293 1.59.238.282.356.684.254 1.054.276-.163.94-.994.82-1.605.926-2.7.474-5.42.805-8.136 1.144-1.018.214-2.124-.056-3.161.462.077.064 1.748 1.425 1.746 1.428-.95.453-1.933.313-2.914.169-.853-.008-.345-1.306-1.234-1.284-1.32.436-2.703.297-4.031.486 2.163 1.865 4.653 3.225 6.996 4.799.508.34 1.09.312 1.66.312 16.203.01 32.406.011 48.608.003.12 0 .229-.014.35-.082-.456-.405-.992-.676-1.481-1.012-.779-.582-1.616-1.084-2.394-1.667-.4-.298-1.007-.636-.662-1.2.23-.376.842-.21 1.288-.093.286.076.515.242.642.522l6.303 4.106.225.506" mask="url(#b)"/>
            <path fill="#DFD8CF" d="M108.302 107.439c-.564-.188-1.064-.715-1.88-.265l3.014 2.205c-.089.276-.266.449-.564.484a1.525 1.525 0 0 1-.927-.368c-1.666-1.454-3.634-1.905-5.784-1.788-.329-.123-.735-.176-.637-.689l12.02-1.025c.001.084-.005.169-.019.253-1.237.155-2.479.275-3.706.484-.546.093-1.326-.183-1.517.709" mask="url(#b)"/>
            <path fill="#FE7900" d="M51.97 91.869c.257-.36.643-.29 1.005-.297a191.43 191.43 0 0 0 35.808-8.737c2.466-.86 2.478-.84 4.083 1.225 2.588 3.328 5.446 6.436 8.088 9.72.032.277-.06.497-.302.647-1.258.134-1.532-1.03-2.165-1.686-.598-.619-.962-.656-1.411.13-.681 1.188-1.376 2.374-2.25 3.442-.308.446-.668.831-1.2 1.015-10.914 2.785-21.991 4.707-33.15 6.183-1.015.134-2.036.28-3.057.372-1.658-.592-3.199-1.491-4.891-1.988-.56-.165-1.308-1.24-1.81.01-.412 1.026.054 1.59 1.194 1.67.366.026 1.115.138.448.846-.917-.048-1.81.168-2.722.205-.855.035-1.194-.313-1.096-1.07.488-3.798.639-7.655 1.942-11.312.878-.407 1.284-.157 1.23.838-.033.61-.416 1.188-.142 1.947 1.466-.852 2.789-1.833 4.165-2.74-.818.061-1.614.405-2.442.346-.528-.037-1.314.217-1.326-.766" mask="url(#b)"/>
            <path fill="#FEF5ED" d="M100.814 93.955c-2.978-3.543-5.993-7.054-8.903-10.65-.693-.857-1.27-.823-2.152-.505-11.166 4.013-22.656 6.776-34.346 8.737-.765.128-1.624.57-2.438.035 2.612-1 5.41-1.128 8.12-1.654 9.78-1.902 19.38-4.447 28.755-7.81 1.128-.404 1.691-.228 2.399.682 3.26 4.192 6.758 8.19 10.476 12.38-10.354 3.093-20.714 5.248-31.15 7.08-4.737.644-9.474 1.295-14.214 1.922-.732.098-1.48.081-2.22.118-.262.117-.575.214-.72-.096-.15-.32.164-.457.405-.573.758-.366 1.525-.015 2.288-.02 12.405-1.414 24.67-3.604 36.78-6.64 1.701-.977 3.637-1.24 5.47-1.817.568-.179 1.67.036 1.45-1.19" mask="url(#b)"/>
            <path fill="#9B4700" d="M98.859 97.041c3.084-1.076 4.495-.545 6.09 2.352.62 1.128-.502.94-.944 1.023-2.067.389-4.15.695-6.23 1.008-2.417.364-4.837.704-7.255 1.054.242-1.263.368-2.56 1.085-3.686l.144-.017c2.39-.496 4.756-1.089 7.11-1.734" mask="url(#b)"/>
            <path fill="#FEF5ED" d="M58.259 106.25l3.452.09c1.31-.258 2.612-.323 3.886.178 7.379.58 14.77.585 22.156.316 5.378-.195 10.748-.62 16.122-.942 2.26-.877 4.632-.901 7.004-.927.306-.003.725.193.626-.411-2.408-4.009-4.867-7.988-7.193-12.044-.646-1.127-1.311-1.607-2.564-1.213-.348.109-.753.387-1.088-.061 2.303-1.245 2.925-1.071 4.184 1.046 2.59 4.358 5.206 8.702 7.921 13.235-4.018.54-7.95.985-11.912 1.186-1.06.658-2.278.73-3.45.764-4.45.128-8.89.469-13.35.373-5.2-.112-10.412.17-15.606-.067-3.575-.164-7.185-.071-10.719-.84a.603.603 0 0 1-.342-.518c.24-.321.543-.316.873-.164" mask="url(#b)"/>
            <path fill="#FBB477" d="M57.487 106.634c11.193.927 22.408.821 33.62.614 3.252-.06 6.498-.357 9.746-.545l.67.315.692.387c-.11.572-.594.716-1.027.706-2.214-.055-4.39.693-6.616.284-1.06-.344-2.172-.345-3.233-.203-4.734.633-9.482.3-14.224.313-.689.003-1.373.005-2.035.224-3.995.293-7.968-.257-11.953-.387-1.013-.033-2.036-.164-3.058-.152-.527.117-1.058.034-1.588.029-.819-.252-1.643-.492-2.494-.631a.753.753 0 0 1-.33-.315c.26-1.202 1.09-.792 1.83-.639" mask="url(#b)"/>
            <path fill="#9B4702" d="M62.733 104.216c2.992-.453 5.983-.91 8.975-1.355.335-.05.678-.047.922-.335l4.729-.686c.97.538 2.166.801 2.532 2.072-1.88.664-3.875.65-5.813.886-2.967.36-5.925.922-8.936.852-1.212.205-2.155-.038-2.409-1.434" mask="url(#b)"/>
            <path fill="#9B93AC" d="M79.891 103.912c-.839-.697-1.887-1.14-2.532-2.072 2.01-.357 4.09-.384 5.987-1.271.8.553 1.612 1.167 2.034-.367l6.223-1.41c.198 1.393-.264 2.592-1.084 3.686l-.352.134a22.56 22.56 0 0 1-9.665 1.369l-.61-.069" mask="url(#b)"/>
            <path fill="#FDFBFA" d="M80.502 103.98c3.222-.456 6.443-.913 9.665-1.368-3.024 3.552-5.119 3.849-9.665 1.369" mask="url(#b)"/>
            <path fill="#FEFCFA" d="M104.545 105.27c1.08-1.25 2.21-2.461 3.223-3.764.622-.803.889-.554 1.275.15.547.997 1.159 1.958 1.742 2.935-.662 1.036-1.796.54-2.67.685-1.145.19-2.39.664-3.57-.007" mask="url(#b)"/>
            <path fill="#FEEFE2" d="M51.97 91.869c.94.817 1.915.139 2.875.062.603-.049 1.204-.113 2.197-.208-2.067 1.676-3.941 2.977-6.013 4.202-.262-1.148.132-2.111.297-3.076.08-.468.004-.609-.413-.657-.23-.115-.555-.002-.712-.294.576-.797 1.184.29 1.768-.03" mask="url(#b)"/>
            <path fill="#AA969E" d="M62.733 104.216a5.044 5.044 0 0 0 2.409 1.433c.097.32.74.353.458.87-1.308.13-2.613.263-3.89-.18-.582-.498-1.288-.26-1.944-.32-.391-.036-.832.002-.888-.539-.053-.5.134-.841.677-.988 1.047-.283 2.112-.27 3.178-.276" mask="url(#b)"/>
            <path fill="#FEF5ED" d="M50.201 91.898l.712.294c-.81.53-.617 1.42-.738 2.168-.462 2.862-.844 5.736-1.294 8.6-.166 1.055-.034 1.618 1.267 1.327.764-.17 1.59-.06 2.389-.076.479-.255.926-.398 1.123.323-1.504.136-3.012.236-4.51.42-.894.111-1.046-.353-1.02-1.054.47-3.72.91-7.443 1.69-11.115.068-.318 0-.7.381-.887" mask="url(#b)"/>
            <path fill="#FEF7F1" d="M101.267 92.11c2.232-.586 2.457-.375 3.965 3.478-1.858-.581-2.504-2.284-3.965-3.479" mask="url(#b)"/>
            <path fill="#FEA051" d="M104.545 105.27c2.117.111 4.192-.163 6.24-.679.246.091.504.43.72-.037.514.549.09.66-.353.701-2.424.221-4.85.426-7.276.636l.67-.622" mask="url(#b)"/>
            <path fill="#B67143" d="M98.859 97.041c-2.28.94-4.643 1.544-7.109 1.734 2.313-.805 4.667-1.448 7.109-1.734" mask="url(#b)"/>
            <path fill="#9C4707" d="M85.38 100.202c-.05.426 1.103.932.05 1.22-.747.206-1.957.765-2.086-.853l2.036-.367" mask="url(#b)"/>
            <path fill="#FDFDFD" d="M59.851 59.332l1.358.425c.143.384-.05.663-.292.926-3.99 2.487-8.429 3.803-12.957 4.876-3.441.816-6.973 1.064-10.62 1.524 2.362 3.981 5.097 7.49 7.806 11.013 1.498 1.948 3.155 3.769 4.727 5.659.524.628 1.028.752 1.78.61C62.72 82.28 72.807 78.123 81.438 70.72c3.28-2.814 6.134-5.973 8.745-9.388.778-1.017.715-1.59-.44-2.261-2.626-1.525-5.065-3.34-7.48-5.174-.848-.644-1.718-1.109-2.785-1.177.447-.555.608-1.352 1.39-1.62.053.677.642.904 1.08 1.244 3.027 2.352 6.17 4.551 9.46 6.514 1.183.706 1.134 1.148.398 2.16-9.457 13.022-22.33 20.6-37.916 24.087-2.771.62-4.398.111-6.167-2.116-4.301-5.415-8.607-10.808-12.364-17.008 3.076-.118 5.945-.34 8.79-.792 5.233-.831 10.262-2.304 15.018-4.65.455-.226 1.375-.294.685-1.208" mask="url(#b)"/>
            <path fill="#FE7900" d="M79.478 52.72c.698-.566 1.255-.574 2.04.059a78.503 78.503 0 0 0 9.002 6.258c1.176.703 1.098 1.175.348 2.186-9.277 12.518-21.823 19.775-36.88 23.218-2.742.627-4.304.064-6.004-2.12-3.613-4.64-7.336-9.19-10.507-14.154-.296-.462-.767-.856-.741-1.57 8.471-.495 16.644-2.13 24.156-6.263.454-.275.855-.087 1.295.086 1.908.753 3.837 1.453 5.789 2.088 2.763.9 2.759.914 4.627-1.455l-.016.018c.777-1.166 2.01-1.927 2.772-3.106l-.02.022c.471-.836 1.437-1.294 1.74-2.259.955-.88 1.744-1.89 2.399-3.007" mask="url(#b)"/>
            <path fill="#FEF9F5" d="M74.044 18.935c5.783 1.981 11.63 2.505 17.556 2.31 1.136-.037 1.287.266 1.115 1.355-1.744 11.072-6.921 20.557-13.568 29.367-2.446 3.241-5.099 6.313-7.838 9.312-.567.621-1.017.834-1.894.55-5.967-1.93-11.604-4.523-16.85-7.967-.971-.637-1.067-.984-.144-1.809C58.327 46.78 63.8 41.112 68.008 34.351c2.95-4.738 5.046-9.822 6.036-15.416" mask="url(#b)"/>
            <path fill="#FED7B6" d="M72.603 61.053c-1.224 2.434-1.734 2.675-4.133 1.87-2.53-.848-5.053-1.724-7.578-2.589.105-.192.21-.385.317-.577 2.44.882 4.902 1.71 7.312 2.668 1.38.548 2.455.496 3.3-.843.16-.257.362-.591.782-.53" mask="url(#b)"/>
            <path fill="#FEDFC4" d="M75.358 57.965c-.604 1.318-1.556 2.328-2.77 3.106.624-1.3 1.587-2.301 2.77-3.106" mask="url(#b)"/>
            <path fill="#FEE1C8" d="M77.079 55.728c-.123 1.103-.873 1.726-1.74 2.26.21-1.036 1.064-1.58 1.74-2.26" mask="url(#b)"/>
            <path fill="#FDFCFB" d="M109.063 109.648l.374-.268c.297.166.607.315.892.502.62.408 1.227.834 1.909 1.3-.463.454-.99.244-1.44.244-16.276.016-32.552.008-48.828.03-.96.002-1.76-.205-2.554-.756-2.536-1.76-5.113-3.46-7.688-5.193.53-.488.856.038 1.248.155 1.198.111 2.01.843 2.747 1.696l-.002-.009c.585.365 1.347.362 1.868.832 2.202 1.987 4.825 2.172 7.654 2.141 14.068-.149 28.136-.078 42.204-.067.532 0 1.457.563 1.616-.607" mask="url(#b)"/>
            <path fill="#FEECDD" d="M53.66 104.534c-.3-.366-.743-.236-1.123-.322-.035-.046-.064-.124-.105-.131-2.569-.451-2.57-.45-2.033-3.681 2.195 1.258 4.742 1.585 6.716 3.201-.69.614-1.541.178-2.298.355-.223.051-.283.17-.065.126.11-.023.258.132.39.208-.46.285-.97.275-1.482.244" mask="url(#b)"/>
            <path fill="#FA7706" d="M55.723 107.358c-1.094-.278-1.886-1.043-2.747-1.696 1.49-.676 3.158-.218 4.675-.728.529.53.057.934-.175 1.368l.01.332c-.454.564-1.533-.384-1.763.724" mask="url(#b)"/>
            <path fill="#AA969E" d="M57.476 106.302l.175-1.368c.333-.283.725-.55.73.176.001.366-.239.739-.123 1.14l-.782.052" mask="url(#b)"/>
            <path fill="#FA7706" d="M109.063 109.648l1.236.919c-.319.545-.83.3-1.231.3-15.72.013-31.44.004-47.16.017-.838.001-1.553-.166-2.224-.683-1.29-.993-2.814-1.663-3.963-2.852.973.028 1.972-.05 2.777.672 2.726 1.407 5.647 1.93 8.717 1.766-2.081.04-4.041-.533-6.012-1.042-.59-.152-1.26-.193-1.627-.808 1.17-.45 2.347-.112 3.528-.062 3.984.17 7.97.288 11.957.426 2.933-.055 5.733.89 8.632 1.14 1.786.154 3.534.157 5.285-.199.393-.08.859-.095 1.117-.391 1.268-1.457 2.896-.979 4.456-.89 2.573.063 5.126-.152 7.664-.556 2.788-.786 4.767.886 6.848 2.243" mask="url(#b)"/>
            <path fill="#FEFDFD" d="M73.679 88.772c2.722.734 5.48 1.343 7.673 3.235 1.346 1.162 1.487 2.41.511 3.962-1.088 1.733-2.708 2.91-4.416 3.966-.267.165-.668.268-.966.205-2.694-.572-5.336-1.315-7.524-3.088-1.205-.976-1.541-2.237-.764-3.656 1.109-2.025 2.962-3.274 4.832-4.492.175-.114.438-.092.654-.132" mask="url(#b)"/>
            <path fill="#FEFDFB" d="M94.53 96.004l3.094-4.737 2.799 3.071c.26.338.23.66-.193.767-1.74.436-3.451.97-5.195 1.386-.303.073-.52-.132-.504-.487" mask="url(#b)"/>
            <path fill="#FEFAF7" d="M86.016 84.743c1.758-.623 3.072-1.057 4.359-1.563.479-.189.74-.046 1.009.302.722.931 1.452 1.856 2.303 2.942-1.476.045-2.63-.438-3.82-.689-1.137-.239-2.253-.575-3.851-.992" mask="url(#b)"/>
            <path fill="#FEA358" d="M94.53 96.004c2.14.058 4.129-.409 5.893-1.666l.39-.383c1.062.647.75 1.072-.24 1.327-2.223.573-4.452 1.121-6.68 1.68l.638-.958" mask="url(#b)"/>
            <path fill="#E5E5E4" d="M94.551 107.96c-.628.014-1.259.013-1.886.045-.675.034-1.36-.193-1.621.913-.154.651-1.201.731-1.94.85-3.977.636-7.856.011-11.713-.898-.778-.184-1.553-.379-2.33-.57.25-.296.594-.299.938-.292 5.75.113 11.495-.033 17.24-.253.441-.016.916-.127 1.312.205" mask="url(#b)"/>
            <path fill="#FEF4EC" d="M59.576 107.937l7.897 1.832c-3.226.446-6.403.709-8.974-1.748.321-.499.725.034 1.077-.084" mask="url(#b)"/>
            <path fill="#9B5323" d="M82.402 103.13c1.547-1.12 2.76-1.026 4.231-.846-1.351.62-2.582.581-4.231.847" mask="url(#b)"/>
            <path fill="#FEFEFE" d="M67.816 77.26c-2.189-.037-4.05-.302-5.817-1.051-2.84-1.206-4.11-3.357-3.706-6.406a18.73 18.73 0 0 1 .704-3.167c1.273-4.04 1.853-4.382 6.085-3.787 6.518.918 8.577 4.17 6.593 10.423-.172.543-.388 1.073-.553 1.618-.539 1.79-1.483 2.948-3.306 2.37" mask="url(#b)"/>
            <path fill="#FEFCFB" d="M46.3 78.92c3.881 1.33 7.329 2.512 10.773 3.7.095.034.163.147.293.268-1.876.607-3.774.924-5.679 1.234-.602.098-.961-.094-1.325-.52-1.255-1.472-2.534-2.925-4.062-4.683" mask="url(#b)"/>
            <path fill="#FEFDFB" d="M85.645 56.75c1.704 1.096 3.167 2.053 4.648 2.983.432.27.495.51.194.938-1.007 1.425-1.998 2.859-3.4 4.327l-1.442-8.249" mask="url(#b)"/>
            <path fill="#FEFDFC" d="M37.862 67.263l6.388-.522c-.984 1.916-1.872 3.641-2.902 5.643l-3.486-5.12" mask="url(#b)"/>
            <path fill="#FE7900" d="M80.205 21.252c3.52.483 7.052.813 10.608.685 1.048-.038 1.331.146 1.13 1.301-1.355 7.755-4.443 14.805-8.575 21.447-3.572 5.74-7.804 10.97-12.37 15.945-.394.428-.69.774-1.43.535-6.015-1.94-11.704-4.534-17.061-8.187 1.264-1.196 2.463-2.317 3.647-3.454 5.007-4.803 9.577-9.96 13.108-15.972 2.326-3.962 4.066-8.15 5.052-12.64.09-.412-.042-.987.678-.961.117.113.21.242.278.39.195 1.08-.428 2.036-.517 3.131 1.666-.673 3.147-1.6 4.743-2.29.245-.056.483-.057.71.07" mask="url(#b)"/>
            <path fill="#FEA960" d="M80.205 21.252l-.82.06c-1.66.663-3.065.193-4.314-.967l-.08-.394 5.214 1.3" mask="url(#b)"/>
            <path fill="#F3EDE8" d="M108.802 110.385h-6.04c1.77-2.803 2.786-2.83 6.04 0" mask="url(#b)"/>
            <path fill="#FEBB82" d="M72.816 96.683c-1.068-.139-2.446 1.333-3.099-.711-.145-.453-.328-.839.507-1.063 1.622-.434 2.512-.096 2.592 1.774" mask="url(#b)"/>
            <path fill="#FE7A0C" d="M74.621 92.489c.543.775 1.097 1.543 1.624 2.33.173.257.606.553.342.843-.451.496-1.159.297-1.758.383-.478.068-.547-.272-.548-.635-.004-.944-.002-1.888-.002-2.832l.342-.09" mask="url(#b)"/>
            <path fill="#FEB679" d="M79.113 94.327c.4-.016.8-.025 1.2-.051.623-.04-.073.794.6.886.19.027-.282.453-.593.493-.667.087-1.34.134-2.084.204 0-.782.704-.423.994-.728l-1.5-.213 1.415-.616-.032.025z" mask="url(#b)"/>
            <path fill="#FE903B" d="M75.854 92.367c.953-.776 1.675-.952 2.76-.46-.822.779-1.587.794-2.76.46" mask="url(#b)"/>
            <path fill="#FE801F" d="M77.574 96.825c-1.502.287-2.603.59-4.005.527 1.263-.902 2.409-.892 4.005-.527" mask="url(#b)"/>
            <path fill="#FEAD69" d="M79.145 94.302h-1.804c1.141-.79 2.067-.722 3.04-.679-.254.647-1.014.195-1.269.704l.033-.025" mask="url(#b)"/>
            <path fill="#FE770D" d="M73.03 92.605c-.835.96-1.604.725-2.597.635.828-.952 1.6-.7 2.597-.635" mask="url(#b)"/>
            <path fill="#FE7B0F" d="M64 67.147c.988 1.1 1.978 2.198 2.962 3.301.207.232.703.484.373.794a5.498 5.498 0 0 1-1.719 1.082c-.376.148-.478-.371-.59-.676-.508-1.377-1.008-2.758-1.511-4.137l.485-.364" mask="url(#b)"/>
            <path fill="#FE7D1D" d="M65.89 74.387c.49-1.565 1.591-2.223 3.231-2.07l-3.232 2.07" mask="url(#b)"/>
            <path fill="#FE801E" d="M67.194 65.283c0 .086.011.144-.003.193-.279.957-.972 1.353-1.914 1.314-.217-.009-.316-.317-.175-.548.478-.782 1.092-1.284 2.092-.96" mask="url(#b)"/>
            <path fill="#FE801F" d="M62.467 68.338c-.289 1.068-.95 1.498-1.894 1.522-.263.007-.409-.244-.29-.478.42-.827 1.04-1.32 2.184-1.044" mask="url(#b)"/>
            <path fill="#FE913B" d="M63.5 72.446c-.604.838-1.409 1.355-2.366 1.613.56-.897 1.462-1.253 2.365-1.613" mask="url(#b)"/>
            <path fill="#FE923C" d="M61.329 75.148c1.023-.932 1.792-1.525 2.81-1.706-.64.803-1.405 1.403-2.81 1.706" mask="url(#b)"/>
            <path fill="#FE8F36" d="M68.92 70.721c.394-1.04 1.273-1.458 2.347-1.613l-2.348 1.613" mask="url(#b)"/>
            <path fill="#FE8B31" d="M68.087 69.319c.767-.51 1.533-1.022 2.3-1.533l.263.375-2.308 1.557-.255-.4" mask="url(#b)"/>
            <path fill="#FE8D33" d="M67.419 68.375l2.402-1.57c-.447 1.067-1.32 1.5-2.19 1.94l-.212-.37M62.884 71.462c-.498.906-1.365 1.251-2.245 1.575.514-.882 1.398-1.2 2.245-1.575" mask="url(#b)"/>
            <path fill="#FEFEFD" d="M80.863 42.907c.005 2.796.002 2.8-2.71 3.639-6.391 1.975-9.599-.36-9.629-7.011-.013-2.891-.013-2.891 2.808-3.747 6.384-1.938 9.52.405 9.531 7.12" mask="url(#b)"/>
            <path fill="#FEFCFB" d="M75.37 54.911c-1.708 1.891-3.105 3.417-4.474 4.967-.383.433-.77.35-1.226.2-1.51-.502-3.025-.985-4.896-1.59l10.597-3.577" mask="url(#b)"/>
            <path fill="#FEFDFC" d="M58.473 47.735c0 2.607-.015 4.635.008 6.663.01.878-.253.91-.999.551-3.907-1.881-3.929-1.975-.936-4.907.638-.624 1.153-1.372 1.927-2.307" mask="url(#b)"/>
            <path fill="#FEFBF8" d="M86.157 22.357c.967 0 1.54-.007 2.112 0 3.385.046 3.387.047 2.588 3.406-.075.314.025.7-.503 1.028l-4.197-4.434M75.07 20.345c1.422.396 2.785 1.052 4.315.966-1.257 1.626-3.344 1.744-5.316 3.18l1.002-4.146" mask="url(#b)"/>
            <path fill="#FE7A0D" d="M75.494 43.174l-3.375-3.812c1.258.512 2.078.84 2.894 1.178 1.987.825 1.986.826.48 2.634" mask="url(#b)"/>
            <path fill="#FE862B" d="M76.437 44.434c-.002-1.319.668-2.187 1.983-2.844-.377 1.278-1.32 1.968-1.983 2.844" mask="url(#b)"/>
            <path fill="#FE872C" d="M74.773 36.719c.123 1.016-.278 1.576-1.087 1.883-.076.028-.331-.148-.332-.23-.005-.89.47-1.387 1.419-1.653" mask="url(#b)"/>
            <path fill="#FE7811" d="M70.614 42.548c-.28-.895.168-1.384.873-1.722.085-.04.375.101.38.168.046.844-.39 1.33-1.253 1.554" mask="url(#b)"/>
            <path fill="#FE9642" d="M76.075 39.35c.193-.819.62-1.476 1.56-2.252-.334 1.188-.914 1.745-1.56 2.253" mask="url(#b)"/>
            <path fill="#FE9542" d="M72.638 45.647c.225-.828.674-1.474 1.679-2.293-.452 1.232-1.02 1.803-1.68 2.293" mask="url(#b)"/>
            <path fill="#FE9139" d="M77.61 40.412c.317-.73.673-1.433 1.658-2.14-.444 1.107-.834 1.783-1.657 2.14" mask="url(#b)"/>
            <path fill="#FE943F" d="M74.783 44.362c-.202.81-.671 1.435-1.646 2.263.412-1.216.992-1.762 1.646-2.263" mask="url(#b)"/>
        </g>
        <g transform="translate(120 11)">
            <circle cx="20" cy="20" r="20" fill="#32C832"/>
            <path fill="#FFF" fill-rule="nonzero" d="M11.76 16.202L8 19.963l9.303 9.303a1 1 0 0 0 1.44-.026l14.505-15.621L29.35 10 17.895 22.337l-6.134-6.135z"/>
        </g>
    </g>
</svg>
