<svg xmlns="http://www.w3.org/2000/svg" xmlns:xlink="http://www.w3.org/1999/xlink" width="76" height="76" viewBox="0 0 76 76">
    <defs>
        <path id="a" d="M.14 37.962c0 20.872 16.978 37.792 37.92 37.792 20.943 0 37.921-16.92 37.921-37.792S59.003.17 38.061.17C17.117.17.14 17.09.14 37.962z"/>
    </defs>
    <g fill="none" fill-rule="evenodd">
        <mask id="b" fill="#fff">
            <use xlink:href="#a"/>
        </mask>
        <path fill="#A885D8" d="M-1.81 82.744h80.977V-6.183H-1.81z" mask="url(#b)"/>
        <path fill="#FFF" d="M10.27 33.397l-3.518.367c-.973.101-.673 1.587.294 1.486l3.519-.366c.972-.102.672-1.587-.295-1.487M13.452 25.932l-2.167-.62c-.939-.268-1.44 1.163-.498 1.432l2.167.62c.939.268 1.44-1.162.498-1.432M64.82 23.538l-3.282.811c-.947.234-.686 1.727.265 1.492l3.283-.81c.946-.235.685-1.728-.265-1.493M59.75 15.582L56.4 17.488c-.844.482-.209 1.859.641 1.375l3.348-1.907c.845-.481.209-1.858-.64-1.374M52.978 9.121l-2.685 2.665c-.689.684.29 1.844.984 1.155l2.685-2.665c.689-.684-.29-1.844-.984-1.155M65.642 33.646l-2.818-.565c-.403-.081-.789.32-.82.693-.036.448.293.736.697.817l2.818.565c.402.08.788-.32.819-.694.037-.447-.292-.735-.696-.816M59.668 43.428l-1.198-.637c-.362-.193-.807-.164-1.056.2-.212.31-.164.859.2 1.053l1.198.636c.362.193.808.165 1.057-.2.212-.31.163-.859-.201-1.052" mask="url(#b)"/>
        <path fill="#D5D5D5" d="M15.699 50.922s8.777 6.047 9.242 6.183c.464.135 37.046 0 37.046 0l-9.823-6.408-35.668-1.51-.797 1.735z" mask="url(#b)"/>
        <path fill="#AAA" d="M22.304 50.14l6.5 5.181.602-2.651-6.354-3.397z" mask="url(#b)"/>
        <path fill="#085EBD" d="M53.924 50.467c3.552 2.348 7.109 4.691 10.652 7.053.494.329.777.825.735 1.453-.31.295-.706.253-1.08.253-13.877.006-27.753.007-41.63.001-.272 0-.544-.005-.807-.085-.528-.512-.514-.862.06-1.485.573-.622.577-.627-.116-1.088-3.258-2.167-6.519-4.329-9.773-6.5-.328-.219-.733-.378-.845-.818.148-.206.354-.133.531-.133 2.883-.005 5.766-.007 8.65.002.332 0 .874-.167.63.537h-3.816c-.058.327.191.35.325.441 2.782 1.896 5.572 3.779 8.35 5.679.377.257.748.376 1.208.375 10.5-.01 21-.006 31.499-.01.121 0 .267.076.434-.147l-4.495-3.012c-1.139-.347-1.988-1.167-2.949-1.804-.119-.078-.097-.241-.034-.375.765-.543 1.615-.466 2.471-.337" mask="url(#b)"/>
        <path fill="#000" d="M21.565 58.954c3.754.006 7.508.016 11.263.017 10.828.003 21.656.002 32.483.002.092.416-.175.736-.297 1.095-.125.56-.542.784-1.05.889-.375.078-.759.06-1.14.06-12.904.001-25.808 0-38.712.003-.886 0-1.754-.02-2.409-.747-.265-.416-.483-.839-.138-1.319" mask="url(#b)"/>
        <path fill="#000" d="M21.834 60.098c.504.522 1.117.687 1.841.686 13.145-.013 26.289-.014 39.433.002.756 0 1.387-.172 1.906-.718.234.516.947.9.604 1.572-.37.723-1.123.399-1.705.4-12.985.016-25.971-.016-38.957.042-2.007.009-3.688-.503-5.28-1.694-3.1-2.32-6.267-4.553-9.413-6.812-.525-.378-.82-.793-.457-1.435.324-.149.502.124.712.263 3.282 2.186 6.569 4.365 9.856 6.544.52.345 1.021.706 1.46 1.15" mask="url(#b)"/>
        <path fill="#FE7702" d="M22.557 50.142c-.133.022-.358.034-.318-.114.232-.868-.272-1.295-.955-1.598.049-.1.077-.181.09-.178.93.173 1.19-.286 1.273-1.142.102-1.048.395-2.076.57-3.118.076-.455.296-.613.746-.678 6.475-.935 12.807-2.458 18.946-4.73.492-.181.724-.056 1.018.297.956 1.148 1.969 2.25 2.901 3.416.415.52.856.716 1.456.485.892-.345 1.357-.025 1.83.791 1.208 2.088 2.553 4.098 3.822 6.152.095.153.663.427-.003.622-1.87.262-3.718.72-5.626.682-.183-.028-.353-.08-.452-.256.12-.348.43-.245.678-.272 1.318-.143 2.633-.304 3.951-.438.772-.078.81-.173.394-.833a142.408 142.408 0 0 1-3.3-5.502c-.319-.558-.689-.66-1.18-.5.337-.073.754-.173.998.254 1.182 2.067 2.509 4.048 3.634 6.15-.058.31-.24.26-.444.153-.354-.312-.551-.735-.785-1.13-.21-.357-.424-.393-.667-.04-.404.584-.933 1.056-1.426 1.562a1.438 1.438 0 0 1-.6.303c-2.495.37-5.016.428-7.526.518-2.736.098-5.482.206-8.218-.087-.675-.072-1.36.059-2.03-.101-.26-.156-.541-.3-.417-.687.881-.307 1.814-.266 2.723-.387 1.374-.183 2.746-.38 4.127-.493a1.02 1.02 0 0 1 .388-.016c.46.144.934.281 1.36.492 1.077.531 1.911.18 2.676-.594.188-.19.37-.39.609-.525.071-.037.146-.065.224-.089 1.915-.387 3.858-.609 5.777-.969.231-.043.55.041.66-.214.118-.276-.224-.39-.338-.588-.567-.989-1.397-.692-2.216-.46-1.085.181-2.137.495-3.198.772-.08.032-.161.056-.244.076-.929.326-1.902.462-2.86.66-.329.06-.654.14-.986.182-.916.435-1.909.502-2.895.604-.744.123-1.478.313-2.237.34-.223-.035-.458-.053-.53-.33.463-.546 1.151-.43 1.74-.535 3.99-.71 7.93-1.627 11.838-2.69.822-.224.824-.262.252-.943-1.29-1.535-2.628-3.03-3.86-4.616-.335-.431-.671-.792-1.364-.538-5.606 2.056-11.408 3.347-17.281 4.354-.188.052-.377.099-.567.144-.25.09-.589-.165-.77.198-.484 1.742-.558 3.55-.893 5.315-.131.308-.093.713-.495.869" mask="url(#b)"/>
        <path fill="#BCBCBC" d="M54.544 53.224c.174 2.16.174 2.16-1.938 2.16-7.716 0-15.43-.014-23.146.019-.829.004-1.147-.204-1.023-1.033.056-.37.02-.756.027-1.135.381-.303.834-.197 1.258-.197 7.69-.007 15.38-.007 23.07 0 .586 0 1.2-.163 1.752.186" mask="url(#b)"/>
        <path fill="#4BB3E5" d="M21.834 60.098c-2.317-1.518-4.638-3.03-6.949-4.556-1.7-1.123-3.386-2.267-5.08-3.401-.472-.668-.665-1.378-.22-2.125.429-.72 1.113-.985 1.935-.983 2.966.007 5.934.002 8.9.004.419 0 .898-.04.51.62.038-.346-.11-.476-.466-.475-3.06.009-6.12.005-9.426.005l11.883 7.912c-.702.494-1.495.863-1.356 1.855-.146.436.113.778.269 1.144" mask="url(#b)"/>
        <path fill="#FE7002" d="M38.396 24.29c.287-.245.476-.03.69.134a49.672 49.672 0 0 0 5.067 3.406c.537.314.48.53.175.977-4.39 6.413-10.507 10.217-18.029 11.916-.583.132-1.19.18-1.754.362-.649.209-1.034-.012-1.45-.5-2.41-2.837-4.699-5.76-6.615-8.957-.108-.18-.209-.365-.352-.617 1.307-.1 2.54-.166 3.767-.296 3.002-.321 5.839-1.222 8.555-2.518l.102.063c.215.562-.287.642-.586.786a23.85 23.85 0 0 1-6.92 2.11c-1.234.183-2.467.405-3.77.328.027.438.29.695.47.975 1.72 2.676 3.683 5.168 5.77 7.568.33.38.654.452 1.136.359 5.25-1.017 10.065-2.995 14.144-6.499 1.645-1.413 3.167-2.98 4.443-4.752.492-.684.483-.697-.236-1.174-1.358-.902-2.736-1.778-4.017-2.79-.264-.209-.64-.347-.65-.775l.06-.106z" mask="url(#b)"/>
        <path fill="#FE6F04" d="M28.45 28.197c-1.364-.82-2.793-1.528-4.09-2.466-.571-.412-.502-.616-.015-1.036 2.97-2.565 5.702-5.348 7.774-8.71 1.291-2.095 2.24-4.33 2.669-6.76.076-.433.147-.594.652-.44 2.676.822 5.428 1.123 8.216.966.864-.049.833.3.735.925-.743 4.766-2.817 8.954-5.562 12.858-.166.236-.43.425-.433.756l.016-.017c-.168.227-.253.5-.406.736-.367.59-.779 1.143-1.28 1.626-.284.274-.584.533-.787.88a1.521 1.521 0 0 1-.13.177c-.391.445-.878.803-1.189 1.32-.042.066-.09.127-.14.188-.584.851-1.3.96-2.252.565-1.049-.434-2.152-.741-3.2-1.193-.238-.07-.393-.268-.599-.39l.02.015z" mask="url(#b)"/>
        <path fill="#F5892E" d="M54.544 53.224l-26.08.011c-1.474-.994-2.95-1.986-4.423-2.984-.478-.324-.998.047-1.484-.11l.305-.789c.397.306.856.334 1.312.226.43-.101.859-.108 1.292-.126a2.3 2.3 0 0 0 .79-.11c2.345-.177 4.657-.606 6.987-.886.265-.032.536-.14.755.113.134.169.326.12.501.13-.077.447-.472.39-.762.44-1.282.226-2.575.383-3.865.544-.483.102-1.009-.026-1.501.22.036.03.83.676.83.678-.452.215-.92.149-1.385.08-.405-.004-.164-.62-.586-.61-.627.207-1.284.141-1.915.23 1.027.887 2.21 1.533 3.323 2.28.242.162.518.149.79.149 7.695.004 15.391.005 23.088.001a.316.316 0 0 0 .166-.039c-.217-.192-.471-.32-.704-.48-.37-.277-.767-.515-1.137-.792-.19-.142-.478-.302-.314-.57.11-.179.4-.1.612-.044a.443.443 0 0 1 .305.247l2.994 1.95c.034.08.07.16.106.241" mask="url(#b)"/>
        <path fill="#DFD8CF" d="M51.444 51.033c-.269-.089-.506-.34-.894-.125l1.432 1.047c-.042.131-.126.213-.268.23a.724.724 0 0 1-.44-.175c-.791-.69-1.726-.905-2.748-.85-.156-.058-.349-.083-.302-.326l5.71-.487c0 .04-.003.08-.01.12-.587.074-1.177.13-1.76.23-.26.044-.63-.087-.72.336" mask="url(#b)"/>
        <path fill="#FE7900" d="M24.685 43.638c.123-.171.306-.138.478-.141a90.929 90.929 0 0 0 17.01-4.15c1.17-.409 1.176-.4 1.938.581 1.23 1.581 2.587 3.058 3.842 4.617.016.132-.028.237-.143.308-.598.063-.728-.49-1.029-.801-.284-.294-.457-.312-.67.062-.323.564-.653 1.127-1.068 1.634-.147.212-.318.395-.57.483-5.185 1.323-10.447 2.235-15.747 2.937-.482.064-.967.133-1.452.177-.788-.282-1.52-.709-2.323-.945-.267-.078-.622-.588-.86.005-.196.487.026.755.567.793.174.013.53.066.213.402-.436-.023-.86.08-1.293.097-.406.017-.567-.148-.52-.508.231-1.804.303-3.636.922-5.373.417-.193.61-.075.584.398-.015.29-.198.564-.067.925.696-.405 1.324-.87 1.978-1.302-.388.03-.766.193-1.16.165-.25-.018-.624.103-.63-.364" mask="url(#b)"/>
        <path fill="#FEF5ED" d="M47.887 44.628c-1.415-1.682-2.847-3.35-4.23-5.059-.328-.406-.602-.39-1.021-.24-5.304 1.907-10.762 3.22-16.315 4.151-.363.061-.771.27-1.158.017 1.24-.476 2.57-.536 3.857-.786 4.646-.903 9.206-2.112 13.659-3.71.535-.192.803-.108 1.14.324 1.548 1.991 3.21 3.89 4.975 5.88-4.918 1.47-9.839 2.494-14.796 3.364-2.25.305-4.5.615-6.751.913-.348.046-.703.038-1.055.056-.125.055-.273.101-.342-.046-.071-.152.078-.217.192-.272.36-.174.725-.007 1.087-.01a134.373 134.373 0 0 0 17.47-3.153c.809-.464 1.728-.59 2.6-.864.269-.085.792.018.688-.565" mask="url(#b)"/>
        <path fill="#9B4700" d="M46.958 46.094c1.465-.51 2.135-.258 2.892 1.118.295.535-.238.446-.448.486-.981.184-1.97.33-2.959.479-1.148.172-2.297.334-3.446.5.115-.6.175-1.216.515-1.75l.069-.009a55.43 55.43 0 0 0 3.377-.824" mask="url(#b)"/>
        <path fill="#FEF5ED" d="M27.673 50.47l1.64.041c.622-.122 1.24-.153 1.846.085 3.505.276 7.015.278 10.524.15 2.554-.092 5.105-.294 7.658-.447 1.073-.417 2.2-.428 3.327-.44.145-.002.344.091.297-.196-1.144-1.904-2.312-3.794-3.417-5.72-.306-.536-.623-.764-1.218-.577-.165.052-.357.184-.517-.029 1.095-.591 1.39-.509 1.988.497 1.23 2.07 2.473 4.133 3.762 6.287-1.908.256-3.776.468-5.658.563-.503.312-1.082.347-1.639.363-2.113.06-4.222.223-6.34.177-2.471-.053-4.946.081-7.414-.032-1.698-.078-3.413-.034-5.091-.4a.287.287 0 0 1-.163-.245c.114-.152.258-.15.415-.078" mask="url(#b)"/>
        <path fill="#FBB477" d="M27.306 50.651c5.317.44 10.644.39 15.97.292 1.544-.029 3.086-.17 4.63-.26l.318.15.328.185c-.052.27-.282.34-.488.335-1.051-.027-2.085.329-3.143.135-.503-.164-1.03-.164-1.535-.097-2.248.3-4.504.143-6.757.15-.327 0-.651.001-.966.105-1.898.14-3.785-.122-5.678-.184-.48-.015-.967-.078-1.452-.072-.25.056-.503.016-.754.014a8.96 8.96 0 0 0-1.185-.3.358.358 0 0 1-.157-.15c.124-.57.518-.375.87-.303" mask="url(#b)"/>
        <path fill="#9B4702" d="M29.798 49.503c1.421-.216 2.842-.432 4.263-.644.16-.024.322-.022.438-.159l2.246-.326c.46.256 1.03.38 1.203.984-.892.316-1.84.31-2.761.42-1.41.172-2.814.439-4.244.406-.576.097-1.024-.018-1.145-.681" mask="url(#b)"/>
        <path fill="#9B93AC" d="M37.948 49.358c-.398-.33-.896-.54-1.202-.984.954-.17 1.942-.182 2.843-.604.38.263.766.555.966-.174l2.957-.67c.094.662-.126 1.231-.516 1.751l-.167.064c-1.482.55-3.012.77-4.59.65l-.29-.033" mask="url(#b)"/>
        <path fill="#FDFBFA" d="M38.239 49.39l4.59-.65c-1.436 1.688-2.431 1.829-4.59.65" mask="url(#b)"/>
        <path fill="#FEFCFA" d="M49.659 50.003c.513-.594 1.05-1.169 1.53-1.788.296-.381.423-.263.607.072.26.473.55.93.827 1.394-.315.492-.853.256-1.268.325-.544.09-1.136.316-1.696-.003" mask="url(#b)"/>
        <path fill="#FEEFE2" d="M24.685 43.638c.447.388.91.066 1.367.03.286-.024.571-.055 1.043-.1a22.944 22.944 0 0 1-2.856 1.996c-.125-.545.063-1.002.14-1.46.039-.223.003-.29-.195-.313-.11-.055-.264 0-.338-.14.273-.378.562.138.84-.013" mask="url(#b)"/>
        <path fill="#AA969E" d="M29.798 49.503c.316.336.699.56 1.144.68.046.152.352.168.218.413-.621.062-1.241.125-1.848-.085-.276-.237-.612-.124-.923-.152-.186-.017-.395.001-.422-.256-.025-.238.064-.4.321-.47.498-.134 1.004-.127 1.51-.13" mask="url(#b)"/>
        <path fill="#FEF5ED" d="M23.846 43.652l.338.14c-.385.25-.294.674-.35 1.03-.22 1.358-.402 2.724-.616 4.084-.078.501-.016.768.602.63.363-.08.756-.028 1.135-.036.227-.12.44-.189.534.153-.715.065-1.431.113-2.143.2-.425.053-.497-.167-.484-.5.223-1.767.432-3.536.803-5.28.032-.151 0-.333.18-.421" mask="url(#b)"/>
        <path fill="#FEF7F1" d="M48.102 43.752c1.06-.278 1.167-.178 1.883 1.652-.882-.276-1.189-1.085-1.883-1.652" mask="url(#b)"/>
        <path fill="#FEA051" d="M49.659 50.003c1.006.053 1.991-.077 2.964-.322.117.043.24.204.342-.018.244.26.043.314-.168.333-1.151.105-2.304.203-3.456.302l.318-.295" mask="url(#b)"/>
        <path fill="#B67143" d="M46.958 46.094a11.053 11.053 0 0 1-3.377.824c1.099-.382 2.217-.688 3.377-.824" mask="url(#b)"/>
        <path fill="#9C4707" d="M40.555 47.596c-.023.202.525.443.025.58-.356.098-.93.363-.991-.406l.966-.174" mask="url(#b)"/>
        <path fill="#FDFDFD" d="M28.43 28.182l.644.203c.068.182-.023.314-.138.44-1.896 1.18-4.004 1.806-6.155 2.316-1.635.387-3.312.505-5.044.723 1.121 1.891 2.42 3.558 3.707 5.232.712.925 1.5 1.79 2.246 2.687.248.299.488.358.846.29 5.256-.99 10.047-2.965 14.146-6.48 1.559-1.337 2.914-2.838 4.155-4.46.369-.483.34-.755-.21-1.074-1.247-.724-2.405-1.586-3.553-2.457-.402-.306-.816-.527-1.322-.56.212-.263.288-.642.66-.77.025.323.305.43.512.592a44.447 44.447 0 0 0 4.494 3.094c.562.335.539.545.19 1.026C39.114 35.17 33 38.77 25.597 40.425c-1.317.295-2.09.053-2.93-1.005-2.043-2.572-4.088-5.134-5.873-8.079 1.461-.056 2.824-.16 4.176-.376 2.485-.395 4.874-1.094 7.133-2.209.216-.107.653-.14.325-.574" mask="url(#b)"/>
        <path fill="#FE7900" d="M37.752 25.042c.332-.269.596-.273.969.028a37.289 37.289 0 0 0 4.276 2.973c.559.334.521.558.165 1.038-4.406 5.946-10.366 9.393-17.518 11.028-1.302.298-2.044.031-2.851-1.006-1.717-2.205-3.485-4.366-4.992-6.724-.14-.22-.364-.406-.351-.745 4.023-.236 7.906-1.012 11.474-2.975.215-.131.406-.042.615.04.906.358 1.822.69 2.75.992 1.312.428 1.31.434 2.198-.69l-.008.008c.369-.554.955-.916 1.316-1.476l-.009.01c.224-.396.682-.614.826-1.072a6.154 6.154 0 0 0 1.14-1.429" mask="url(#b)"/>
        <path fill="#FEF9F5" d="M35.17 8.994c2.748.941 5.525 1.19 8.34 1.098.54-.018.611.126.53.643-.829 5.26-3.288 9.765-6.445 13.95-1.162 1.539-2.422 2.998-3.723 4.423-.27.295-.483.396-.9.26-2.834-.916-5.512-2.148-8.004-3.783-.46-.303-.506-.468-.068-.86 2.805-2.505 5.404-5.197 7.404-8.408 1.401-2.25 2.397-4.666 2.867-7.323" mask="url(#b)"/>
        <path fill="#FED7B6" d="M34.487 29c-.582 1.156-.824 1.271-1.964.889-1.202-.403-2.4-.82-3.6-1.23l.151-.274c1.16.419 2.329.811 3.474 1.267.655.26 1.166.235 1.567-.4.076-.123.172-.281.372-.252" mask="url(#b)"/>
        <path fill="#FEDFC4" d="M35.795 27.533c-.287.626-.74 1.106-1.316 1.476.297-.618.754-1.093 1.316-1.476" mask="url(#b)"/>
        <path fill="#FEE1C8" d="M36.612 26.47c-.058.525-.414.82-.826 1.074.1-.492.506-.75.826-1.073" mask="url(#b)"/>
        <path fill="#FDFCFB" d="M51.805 52.083l.177-.128c.142.08.29.15.424.24.295.193.583.395.907.617-.22.215-.47.115-.684.116-7.731.007-15.462.003-23.193.014-.456 0-.837-.098-1.213-.36-1.205-.836-2.43-1.643-3.652-2.466.252-.232.407.018.592.073.57.053.956.4 1.306.806l-.002-.004c.278.173.64.172.888.395 1.046.944 2.292 1.031 3.636 1.017 6.682-.07 13.364-.037 20.046-.032.253 0 .693.268.768-.288" mask="url(#b)"/>
        <path fill="#FEECDD" d="M25.489 49.653c-.143-.173-.353-.111-.534-.152-.017-.022-.03-.06-.05-.063-1.22-.214-1.22-.213-.965-1.748 1.042.598 2.252.753 3.19 1.52-.328.292-.732.085-1.092.17-.106.024-.134.08-.031.059.053-.011.123.063.185.099-.218.135-.46.13-.703.115" mask="url(#b)"/>
        <path fill="#FA7706" d="M26.469 50.995c-.52-.132-.897-.495-1.306-.806.709-.32 1.5-.103 2.221-.345.251.252.027.443-.083.65l.005.157c-.216.268-.729-.182-.837.344" mask="url(#b)"/>
        <path fill="#AA969E" d="M27.301 50.493l.083-.65c.158-.134.345-.26.347.084 0 .174-.113.351-.059.542l-.371.024" mask="url(#b)"/>
        <path fill="#FA7706" d="M51.805 52.083l.587.436c-.151.26-.394.142-.585.143-7.467.006-14.934.002-22.4.008-.399 0-.739-.079-1.057-.324-.613-.472-1.337-.79-1.883-1.355.463.013.937-.024 1.32.32 1.295.667 2.682.916 4.14.838-.988.019-1.92-.253-2.856-.495-.28-.072-.598-.092-.772-.384.555-.214 1.114-.053 1.675-.03 1.893.081 3.786.137 5.68.203 1.393-.026 2.723.423 4.1.542.849.073 1.679.074 2.51-.095.187-.038.408-.045.531-.186.602-.692 1.376-.465 2.117-.423 1.222.03 2.434-.072 3.64-.263 1.325-.374 2.264.42 3.253 1.065" mask="url(#b)"/>
        <path fill="#FEFDFD" d="M34.998 42.167c1.293.348 2.603.638 3.644 1.536.64.552.707 1.145.243 1.882-.517.823-1.286 1.382-2.098 1.884a.694.694 0 0 1-.458.098c-1.28-.272-2.535-.625-3.575-1.467-.572-.464-.732-1.063-.362-1.737.526-.962 1.407-1.555 2.295-2.134.083-.054.208-.043.31-.062" mask="url(#b)"/>
        <path fill="#FEFDFB" d="M44.902 45.602l1.47-2.25 1.329 1.459c.123.16.11.313-.092.364-.826.207-1.639.46-2.467.658-.144.035-.248-.063-.24-.23" mask="url(#b)"/>
        <path fill="#FEFAF7" d="M40.857 40.253c.836-.296 1.46-.502 2.071-.743.228-.09.352-.021.48.144.342.442.69.882 1.093 1.397-.701.022-1.25-.208-1.814-.327-.54-.113-1.07-.273-1.83-.47" mask="url(#b)"/>
        <path fill="#FEA358" d="M44.902 45.602c1.016.028 1.96-.194 2.799-.791l.186-.182c.503.307.356.509-.115.63-1.056.272-2.115.532-3.173.798l.303-.455" mask="url(#b)"/>
        <path fill="#E5E5E4" d="M44.912 51.281c-.299.006-.598.006-.896.021-.32.017-.646-.091-.77.434-.073.31-.57.347-.922.404-1.889.302-3.731.005-5.563-.427-.37-.087-.738-.18-1.107-.27.119-.141.282-.142.445-.14 2.731.054 5.46-.015 8.19-.12.21-.007.435-.06.623.098" mask="url(#b)"/>
        <path fill="#FEF4EC" d="M28.299 51.27l3.75.87c-1.532.212-3.04.337-4.262-.83.153-.237.344.016.512-.04" mask="url(#b)"/>
        <path fill="#9B5323" d="M39.14 48.987c.736-.533 1.312-.487 2.01-.402-.641.294-1.226.276-2.01.402" mask="url(#b)"/>
        <path fill="#FEFEFE" d="M32.213 36.698c-1.04-.017-1.924-.143-2.763-.499-1.35-.573-1.953-1.594-1.761-3.042.067-.508.18-1.016.335-1.505.604-1.919.88-2.081 2.89-1.799 3.096.436 4.074 1.98 3.132 4.951-.082.258-.185.51-.263.769-.256.85-.704 1.4-1.57 1.125" mask="url(#b)"/>
        <path fill="#FEFCFB" d="M21.992 37.487c1.844.632 3.482 1.193 5.118 1.758.045.016.077.07.139.127-.891.288-1.793.439-2.698.586-.285.047-.456-.045-.629-.247-.596-.7-1.204-1.39-1.93-2.224" mask="url(#b)"/>
        <path fill="#FEFDFB" d="M40.682 26.956c.809.52 1.504.975 2.207 1.417.205.129.235.243.092.446-.478.677-.949 1.358-1.615 2.055l-.684-3.918" mask="url(#b)"/>
        <path fill="#FEFDFC" d="M17.984 31.95l3.035-.248-1.379 2.68-1.656-2.432" mask="url(#b)"/>
        <path fill="#FE7900" d="M38.098 10.094c1.671.23 3.35.387 5.038.326.498-.018.633.07.537.618-.643 3.684-2.11 7.033-4.073 10.187-1.697 2.726-3.707 5.211-5.876 7.574-.187.204-.327.368-.68.254-2.856-.921-5.559-2.154-8.103-3.888.6-.568 1.17-1.101 1.732-1.64 2.378-2.283 4.55-4.732 6.226-7.588 1.105-1.882 1.932-3.87 2.4-6.004.043-.195-.02-.469.322-.456.056.053.1.115.132.185.093.513-.203.967-.245 1.487.791-.32 1.495-.76 2.253-1.088a.454.454 0 0 1 .337.033" mask="url(#b)"/>
        <path fill="#FEA960" d="M38.098 10.094l-.39.029c-.789.315-1.456.092-2.05-.459l-.037-.187 2.477.617" mask="url(#b)"/>
        <path fill="#F3EDE8" d="M51.68 52.433h-2.868c.84-1.332 1.323-1.344 2.869 0" mask="url(#b)"/>
        <path fill="#FEBB82" d="M34.588 45.925c-.508-.067-1.162.633-1.472-.338-.07-.215-.156-.399.24-.505.77-.206 1.194-.046 1.232.843" mask="url(#b)"/>
        <path fill="#FE7A0C" d="M35.445 43.932c.258.368.521.733.771 1.107.082.122.288.263.163.4-.215.236-.55.141-.835.182-.227.033-.26-.129-.26-.301-.003-.449-.002-.897-.002-1.345l.163-.043" mask="url(#b)"/>
        <path fill="#FEB679" d="M37.579 44.805c.19-.007.38-.012.57-.024.296-.019-.035.377.285.421.09.013-.134.215-.282.234-.317.041-.637.064-.99.097 0-.371.334-.2.472-.346l-.712-.1.672-.294-.015.012z" mask="url(#b)"/>
        <path fill="#FE903B" d="M36.03 43.874c.453-.368.796-.452 1.311-.218-.39.37-.753.377-1.31.218" mask="url(#b)"/>
        <path fill="#FE801F" d="M36.847 45.992c-.713.136-1.236.28-1.902.25.6-.428 1.145-.423 1.902-.25" mask="url(#b)"/>
        <path fill="#FEAD69" d="M37.594 44.793h-.857c.542-.375.982-.343 1.444-.322-.12.307-.482.092-.603.334l.016-.012" mask="url(#b)"/>
        <path fill="#FE770D" d="M34.69 43.987c-.397.456-.763.345-1.234.302.393-.452.76-.332 1.233-.302" mask="url(#b)"/>
        <path fill="#FE7B0F" d="M30.4 31.895c.47.522.94 1.044 1.407 1.568.098.11.334.23.177.377-.232.217-.52.398-.816.514-.179.07-.227-.176-.28-.321-.242-.654-.48-1.31-.718-1.965l.23-.173" mask="url(#b)"/>
        <path fill="#FE7D1D" d="M31.297 35.334c.234-.743.757-1.056 1.536-.983l-1.536.983" mask="url(#b)"/>
        <path fill="#FE801E" d="M31.917 31.01c0 .04.006.068-.001.091-.133.455-.462.643-.91.624-.102-.004-.15-.15-.083-.26.227-.372.52-.61.994-.456" mask="url(#b)"/>
        <path fill="#FE801F" d="M29.672 32.46c-.137.508-.451.712-.9.724-.125.003-.194-.116-.138-.228.2-.392.494-.626 1.038-.495" mask="url(#b)"/>
        <path fill="#FE913B" d="M30.162 34.412a1.973 1.973 0 0 1-1.123.766c.265-.426.694-.595 1.123-.766" mask="url(#b)"/>
        <path fill="#FE923C" d="M29.131 35.695c.486-.442.851-.724 1.335-.81-.304.382-.667.667-1.335.81" mask="url(#b)"/>
        <path fill="#FE8F36" d="M32.737 33.593c.187-.494.605-.693 1.115-.767-.372.256-.744.51-1.115.767" mask="url(#b)"/>
        <path fill="#FE8B31" d="M32.342 32.926l1.092-.727.125.177-1.096.74-.121-.19" mask="url(#b)"/>
        <path fill="#FE8D33" d="M32.024 32.478l1.141-.746c-.212.507-.627.713-1.04.922l-.101-.176M29.87 33.944c-.237.431-.648.595-1.066.749.244-.42.664-.57 1.066-.749" mask="url(#b)"/>
        <path fill="#FEFEFD" d="M38.41 20.381c.002 1.328 0 1.33-1.287 1.728-3.036.939-4.56-.17-4.574-3.33-.006-1.373-.006-1.373 1.334-1.78 3.032-.92 4.522.193 4.527 3.382" mask="url(#b)"/>
        <path fill="#FEFCFB" d="M35.801 26.083c-.812.898-1.475 1.623-2.126 2.36-.181.205-.365.166-.582.094-.717-.238-1.437-.468-2.325-.755l5.033-1.7" mask="url(#b)"/>
        <path fill="#FEFDFC" d="M27.775 22.674c0 1.238-.008 2.202.003 3.165.005.417-.12.432-.474.262-1.856-.894-1.866-.938-.445-2.331.303-.297.548-.652.916-1.096" mask="url(#b)"/>
        <path fill="#FEFBF8" d="M40.925 10.62c.459 0 .73-.004 1.003 0 1.608.021 1.609.022 1.23 1.617-.037.15.011.333-.24.489l-1.993-2.107M35.659 9.664c.675.188 1.322.5 2.05.459-.598.772-1.59.828-2.526 1.51l.476-1.97" mask="url(#b)"/>
        <path fill="#FE7A0D" d="M35.86 20.508l-1.604-1.811c.598.243.988.399 1.375.56.944.391.944.392.229 1.25" mask="url(#b)"/>
        <path fill="#FE862B" d="M36.307 21.106c0-.626.318-1.039.942-1.35-.178.606-.627.934-.942 1.35" mask="url(#b)"/>
        <path fill="#FE872C" d="M35.517 17.441c.058.483-.132.75-.516.895-.036.013-.158-.07-.158-.11-.002-.422.224-.658.674-.785" mask="url(#b)"/>
        <path fill="#FE7811" d="M33.542 20.21c-.133-.425.08-.657.414-.818.04-.02.179.048.18.08.023.401-.185.632-.594.738" mask="url(#b)"/>
        <path fill="#FE9642" d="M36.136 18.692c.091-.39.294-.702.74-1.07-.158.564-.433.828-.74 1.07" mask="url(#b)"/>
        <path fill="#FE9542" d="M34.503 21.682c.107-.393.32-.7.797-1.089-.214.585-.484.857-.797 1.09" mask="url(#b)"/>
        <path fill="#FE9139" d="M36.865 19.196c.15-.347.32-.68.787-1.016-.21.525-.396.846-.787 1.016" mask="url(#b)"/>
        <path fill="#FE943F" d="M35.522 21.072c-.096.385-.319.682-.782 1.075.196-.578.471-.837.782-1.075" mask="url(#b)"/>
    </g>
</svg>
