<svg xmlns="http://www.w3.org/2000/svg" xmlns:xlink="http://www.w3.org/1999/xlink" width="60" height="60" viewBox="0 0 60 60">
    <defs>
        <path id="a" d="M21.357 8.398a2.68 2.68 0 0 0-2.672-2.38h-7.4A2.674 2.674 0 0 0 8.62 8.405L6.852 24.992h16.265l-1.76-16.594zm-10.42.176l-1.26 11.96a.505.505 0 0 1-.556.442.5.5 0 0 1-.45-.545l1.26-11.96a.504.504 0 0 1 .555-.443.5.5 0 0 1 .451.546zm-1.174-5.35c.226.492.808.719 1.315.513a.993.993 0 0 0 .563-1.275L10.863.616A1.024 1.024 0 0 0 9.544.098a.993.993 0 0 0-.559 1.283l.778 1.844zM2.42 9.422l1.878.764c.338.15.732.107 1.028-.112a.99.99 0 0 0-.25-1.732l-1.877-.766a1.032 1.032 0 0 0-1.008.13.991.991 0 0 0 .23 1.716zm25.421 8.668l-1.877-.764a1.032 1.032 0 0 0-1.028.112.99.99 0 0 0 .25 1.732l1.878.764c.338.15.732.107 1.028-.111a.99.99 0 0 0-.25-1.733zm-22.467-.223a1.023 1.023 0 0 0-1.327-.541l-1.878.764a.99.99 0 1 0-.25 1.733c.296.218.69.261 1.028.111l1.878-.764a.993.993 0 0 0 .55-1.304h-.001zm20.338-7.68l1.878-.765a.99.99 0 1 0 .23-1.716 1.032 1.032 0 0 0-1.008-.13l-1.878.764a.99.99 0 1 0-.25 1.733c.296.218.69.261 1.028.112v.001zm-6.79-6.421a1.023 1.023 0 0 0 1.327-.54l.778-1.844a.993.993 0 0 0-.56-1.283 1.024 1.024 0 0 0-1.318.518l-.78 1.846a.993.993 0 0 0 .55 1.303h.002zm5.212 22.226H5.836a1.011 1.011 0 0 0-1.017.998v1.998c.002.55.456.996 1.017.998h18.298a1.011 1.011 0 0 0 1.017-.998v-1.998a1.011 1.011 0 0 0-1.017-.998z"/>
    </defs>
    <g fill="none" fill-rule="evenodd">
        <circle cx="30" cy="30" r="30" fill="#FFF"/>
        <g transform="translate(15 15)">
            <mask id="b" fill="#fff">
                <use xlink:href="#a"/>
            </mask>
            <g fill="#FF7900" mask="url(#b)">
                <path d="M0 0h30v30H0z"/>
            </g>
        </g>
    </g>
</svg>
