<svg xmlns="http://www.w3.org/2000/svg" xmlns:xlink="http://www.w3.org/1999/xlink" width="76" height="76" viewBox="0 0 76 76">
    <defs>
        <path id="a" d="M.215 37.87c0 20.801 16.92 37.664 37.792 37.664S75.8 58.671 75.8 37.87C75.8 17.068 58.88.205 38.007.205S.215 17.068.215 37.87z"/>
        <path id="c" d="M.055 26.85V48.89c3.2 10.442 10.834 18.958 20.712 23.37h30.874c9.878-4.412 17.51-12.928 20.712-23.37V26.85C67.624 11.426 53.229.206 36.204.206 19.18.205 4.784 11.425.054 26.851"/>
        <path id="e" d="M.055 26.85V48.89c3.2 10.442 10.834 18.958 20.712 23.37h30.874c9.878-4.412 17.51-12.928 20.712-23.37V26.85C67.624 11.426 53.229.206 36.204.206 19.18.205 4.784 11.425.054 26.851"/>
        <path id="g" d="M.055 26.85V48.89c3.2 10.442 10.834 18.958 20.712 23.37h30.874c9.878-4.412 17.51-12.928 20.712-23.37V26.85C67.624 11.426 53.229.206 36.204.206 19.18.205 4.784 11.425.054 26.851"/>
        <path id="i" d="M.055 26.85V48.89c3.2 10.442 10.834 18.958 20.712 23.37h30.874c9.878-4.412 17.51-12.928 20.712-23.37V26.85C67.624 11.426 53.229.206 36.204.206 19.18.205 4.784 11.425.054 26.851"/>
        <path id="k" d="M.055 26.85V48.89c3.2 10.442 10.834 18.958 20.712 23.37h30.874c9.878-4.412 17.51-12.928 20.712-23.37V26.85C67.624 11.426 53.229.206 36.204.206 19.18.205 4.784 11.425.054 26.851"/>
        <path id="m" d="M.055 26.85V48.89c3.2 10.442 10.834 18.958 20.712 23.37h30.874c9.878-4.412 17.51-12.928 20.712-23.37V26.85C67.624 11.426 53.229.206 36.204.206 19.18.205 4.784 11.425.054 26.851"/>
        <path id="o" d="M.055 26.85V48.89c3.2 10.442 10.834 18.958 20.712 23.37h30.874c9.878-4.412 17.51-12.928 20.712-23.37V26.85C67.624 11.426 53.229.206 36.204.206 19.18.205 4.784 11.425.054 26.851"/>
        <path id="q" d="M.055 26.85V48.89c3.2 10.442 10.834 18.958 20.712 23.37h30.874c9.878-4.412 17.51-12.928 20.712-23.37V26.85C67.624 11.426 53.229.206 36.204.206 19.18.205 4.784 11.425.054 26.851"/>
        <path id="s" d="M.055 26.85V48.89c3.2 10.442 10.834 18.958 20.712 23.37h30.874c9.878-4.412 17.51-12.928 20.712-23.37V26.85C67.624 11.426 53.229.206 36.204.206 19.18.205 4.784 11.425.054 26.851"/>
        <path id="u" d="M.055 26.85V48.89c3.2 10.442 10.834 18.958 20.712 23.37h30.874c9.878-4.412 17.51-12.928 20.712-23.37V26.85C67.624 11.426 53.229.206 36.204.206 19.18.205 4.784 11.425.054 26.851"/>
        <path id="w" d="M.055 26.85V48.89c3.2 10.442 10.834 18.958 20.712 23.37h30.874c9.878-4.412 17.51-12.928 20.712-23.37V26.85C67.624 11.426 53.229.206 36.204.206 19.18.205 4.784 11.425.054 26.851"/>
        <path id="y" d="M.055 26.85V48.89c3.2 10.442 10.834 18.958 20.712 23.37h30.874c9.878-4.412 17.51-12.928 20.712-23.37V26.85C67.624 11.426 53.229.206 36.204.206 19.18.205 4.784 11.425.054 26.851"/>
        <path id="A" d="M.055 26.85V48.89c3.2 10.442 10.834 18.958 20.712 23.37h30.874c9.878-4.412 17.51-12.928 20.712-23.37V26.85C67.624 11.426 53.229.206 36.204.206 19.18.205 4.784 11.425.054 26.851"/>
        <path id="C" d="M.055 26.85V48.89c3.2 10.442 10.834 18.958 20.712 23.37h30.874c9.878-4.412 17.51-12.928 20.712-23.37V26.85C67.624 11.426 53.229.206 36.204.206 19.18.205 4.784 11.425.054 26.851"/>
        <path id="E" d="M.055 26.85V48.89c3.2 10.442 10.834 18.958 20.712 23.37h30.874c9.878-4.412 17.51-12.928 20.712-23.37V26.85C67.624 11.426 53.229.206 36.204.206 19.18.205 4.784 11.425.054 26.851"/>
        <path id="G" d="M.055 26.85V48.89c3.2 10.442 10.834 18.958 20.712 23.37h30.874c9.878-4.412 17.51-12.928 20.712-23.37V26.85C67.624 11.426 53.229.206 36.204.206 19.18.205 4.784 11.425.054 26.851"/>
        <path id="I" d="M.055 26.85V48.89c3.2 10.442 10.834 18.958 20.712 23.37h30.874c9.878-4.412 17.51-12.928 20.712-23.37V26.85C67.624 11.426 53.229.206 36.204.206 19.18.205 4.784 11.425.054 26.851"/>
        <path id="K" d="M.055 26.85V48.89c3.2 10.442 10.834 18.958 20.712 23.37h30.874c9.878-4.412 17.51-12.928 20.712-23.37V26.85C67.624 11.426 53.229.206 36.204.206 19.18.205 4.784 11.425.054 26.851"/>
        <path id="M" d="M.055 26.85V48.89c3.2 10.442 10.834 18.958 20.712 23.37h30.874c9.878-4.412 17.51-12.928 20.712-23.37V26.85C67.624 11.426 53.229.206 36.204.206 19.18.205 4.784 11.425.054 26.851"/>
        <path id="O" d="M.055 26.85V48.89c3.2 10.442 10.834 18.958 20.712 23.37h30.874c9.878-4.412 17.51-12.928 20.712-23.37V26.85C67.624 11.426 53.229.206 36.204.206 19.18.205 4.784 11.425.054 26.851"/>
        <path id="Q" d="M.055 26.85V48.89c3.2 10.442 10.834 18.958 20.712 23.37h30.874c9.878-4.412 17.51-12.928 20.712-23.37V26.85C67.624 11.426 53.229.206 36.204.206 19.18.205 4.784 11.425.054 26.851"/>
        <path id="S" d="M.055 26.85V48.89c3.2 10.442 10.834 18.958 20.712 23.37h30.874c9.878-4.412 17.51-12.928 20.712-23.37V26.85C67.624 11.426 53.229.206 36.204.206 19.18.205 4.784 11.425.054 26.851"/>
        <path id="U" d="M.055 26.85V48.89c3.2 10.442 10.834 18.958 20.712 23.37h30.874c9.878-4.412 17.51-12.928 20.712-23.37V26.85C67.624 11.426 53.229.206 36.204.206 19.18.205 4.784 11.425.054 26.851"/>
        <path id="W" d="M.055 26.85V48.89c3.2 10.442 10.834 18.958 20.712 23.37h30.874c9.878-4.412 17.51-12.928 20.712-23.37V26.85C67.624 11.426 53.229.206 36.204.206 19.18.205 4.784 11.425.054 26.851"/>
        <path id="Y" d="M.055 26.85V48.89c3.2 10.442 10.834 18.958 20.712 23.37h30.874c9.878-4.412 17.51-12.928 20.712-23.37V26.85C67.624 11.426 53.229.206 36.204.206 19.18.205 4.784 11.425.054 26.851"/>
        <path id="aa" d="M.055 26.85V48.89c3.2 10.442 10.834 18.958 20.712 23.37h30.874c9.878-4.412 17.51-12.928 20.712-23.37V26.85C67.624 11.426 53.229.206 36.204.206 19.18.205 4.784 11.425.054 26.851"/>
        <path id="ac" d="M.055 26.85V48.89c3.2 10.442 10.834 18.958 20.712 23.37h30.874c9.878-4.412 17.51-12.928 20.712-23.37V26.85C67.624 11.426 53.229.206 36.204.206 19.18.205 4.784 11.425.054 26.851"/>
        <path id="ae" d="M.055 26.85V48.89c3.2 10.442 10.834 18.958 20.712 23.37h30.874c9.878-4.412 17.51-12.928 20.712-23.37V26.85C67.624 11.426 53.229.206 36.204.206 19.18.205 4.784 11.425.054 26.851"/>
        <path id="ag" d="M.055 26.85V48.89c3.2 10.442 10.834 18.958 20.712 23.37h30.874c9.878-4.412 17.51-12.928 20.712-23.37V26.85C67.624 11.426 53.229.206 36.204.206 19.18.205 4.784 11.425.054 26.851"/>
        <path id="ai" d="M.055 26.85V48.89c3.2 10.442 10.834 18.958 20.712 23.37h30.874c9.878-4.412 17.51-12.928 20.712-23.37V26.85C67.624 11.426 53.229.206 36.204.206 19.18.205 4.784 11.425.054 26.851"/>
        <path id="ak" d="M.055 26.85V48.89c3.2 10.442 10.834 18.958 20.712 23.37h30.874c9.878-4.412 17.51-12.928 20.712-23.37V26.85C67.624 11.426 53.229.206 36.204.206 19.18.205 4.784 11.425.054 26.851"/>
        <path id="am" d="M.055 26.85V48.89c3.2 10.442 10.834 18.958 20.712 23.37h30.874c9.878-4.412 17.51-12.928 20.712-23.37V26.85C67.624 11.426 53.229.206 36.204.206 19.18.205 4.784 11.425.054 26.851"/>
        <path id="ao" d="M.055 26.85V48.89c3.2 10.442 10.834 18.958 20.712 23.37h30.874c9.878-4.412 17.51-12.928 20.712-23.37V26.85C67.624 11.426 53.229.206 36.204.206 19.18.205 4.784 11.425.054 26.851"/>
        <path id="aq" d="M.055 26.85V48.89c3.2 10.442 10.834 18.958 20.712 23.37h30.874c9.878-4.412 17.51-12.928 20.712-23.37V26.85C67.624 11.426 53.229.206 36.204.206 19.18.205 4.784 11.425.054 26.851"/>
        <path id="as" d="M.055 26.85V48.89c3.2 10.442 10.834 18.958 20.712 23.37h30.874c9.878-4.412 17.51-12.928 20.712-23.37V26.85C67.624 11.426 53.229.206 36.204.206 19.18.205 4.784 11.425.054 26.851"/>
        <path id="au" d="M.055 26.85V48.89c3.2 10.442 10.834 18.958 20.712 23.37h30.874c9.878-4.412 17.51-12.928 20.712-23.37V26.85C67.624 11.426 53.229.206 36.204.206 19.18.205 4.784 11.425.054 26.851"/>
        <path id="aw" d="M.055 26.85V48.89c3.2 10.442 10.834 18.958 20.712 23.37h30.874c9.878-4.412 17.51-12.928 20.712-23.37V26.85C67.624 11.426 53.229.206 36.204.206 19.18.205 4.784 11.425.054 26.851"/>
        <path id="ay" d="M.055 26.85V48.89c3.2 10.442 10.834 18.958 20.712 23.37h30.874c9.878-4.412 17.51-12.928 20.712-23.37V26.85C67.624 11.426 53.229.206 36.204.206 19.18.205 4.784 11.425.054 26.851"/>
        <path id="aA" d="M.055 26.85V48.89c3.2 10.442 10.834 18.958 20.712 23.37h30.874c9.878-4.412 17.51-12.928 20.712-23.37V26.85C67.624 11.426 53.229.206 36.204.206 19.18.205 4.784 11.425.054 26.851"/>
        <path id="aC" d="M.055 26.85V48.89c3.2 10.442 10.834 18.958 20.712 23.37h30.874c9.878-4.412 17.51-12.928 20.712-23.37V26.85C67.624 11.426 53.229.206 36.204.206 19.18.205 4.784 11.425.054 26.851"/>
        <path id="aE" d="M.055 26.85V48.89c3.2 10.442 10.834 18.958 20.712 23.37h30.874c9.878-4.412 17.51-12.928 20.712-23.37V26.85C67.624 11.426 53.229.206 36.204.206 19.18.205 4.784 11.425.054 26.851"/>
        <path id="aG" d="M.055 26.85V48.89c3.2 10.442 10.834 18.958 20.712 23.37h30.874c9.878-4.412 17.51-12.928 20.712-23.37V26.85C67.624 11.426 53.229.206 36.204.206 19.18.205 4.784 11.425.054 26.851"/>
        <path id="aI" d="M.055 26.85V48.89c3.2 10.442 10.834 18.958 20.712 23.37h30.874c9.878-4.412 17.51-12.928 20.712-23.37V26.85C67.624 11.426 53.229.206 36.204.206 19.18.205 4.784 11.425.054 26.851"/>
        <path id="aK" d="M.055 26.85V48.89c3.2 10.442 10.834 18.958 20.712 23.37h30.874c9.878-4.412 17.51-12.928 20.712-23.37V26.85C67.624 11.426 53.229.206 36.204.206 19.18.205 4.784 11.425.054 26.851"/>
        <path id="aM" d="M.055 26.85V48.89c3.2 10.442 10.834 18.958 20.712 23.37h30.874c9.878-4.412 17.51-12.928 20.712-23.37V26.85C67.624 11.426 53.229.206 36.204.206 19.18.205 4.784 11.425.054 26.851"/>
        <path id="aO" d="M.055 26.85V48.89c3.2 10.442 10.834 18.958 20.712 23.37h30.874c9.878-4.412 17.51-12.928 20.712-23.37V26.85C67.624 11.426 53.229.206 36.204.206 19.18.205 4.784 11.425.054 26.851z"/>
        <path id="aQ" d="M.055 26.85V48.89c3.2 10.442 10.834 18.958 20.712 23.37h30.874c9.878-4.412 17.51-12.928 20.712-23.37V26.85C67.624 11.426 53.229.206 36.204.206 19.18.205 4.784 11.425.054 26.851z"/>
        <path id="aS" d="M.055 26.85V48.89c3.2 10.442 10.834 18.958 20.712 23.37h30.874c9.878-4.412 17.51-12.928 20.712-23.37V26.85C67.624 11.426 53.229.206 36.204.206 19.18.205 4.784 11.425.054 26.851z"/>
        <path id="aU" d="M.055 26.85V48.89c3.2 10.442 10.834 18.958 20.712 23.37h30.874c9.878-4.412 17.51-12.928 20.712-23.37V26.85C67.624 11.426 53.229.206 36.204.206 19.18.205 4.784 11.425.054 26.851"/>
        <path id="aW" d="M.055 26.85V48.89c3.2 10.442 10.834 18.958 20.712 23.37h30.874c9.878-4.412 17.51-12.928 20.712-23.37V26.85C67.624 11.426 53.229.206 36.204.206 19.18.205 4.784 11.425.054 26.851"/>
        <path id="aY" d="M.055 26.85V48.89c3.2 10.442 10.834 18.958 20.712 23.37h30.874c9.878-4.412 17.51-12.928 20.712-23.37V26.85C67.624 11.426 53.229.206 36.204.206 19.18.205 4.784 11.425.054 26.851"/>
        <path id="ba" d="M.055 26.85V48.89c3.2 10.442 10.834 18.958 20.712 23.37h30.874c9.878-4.412 17.51-12.928 20.712-23.37V26.85C67.624 11.426 53.229.206 36.204.206 19.18.205 4.784 11.425.054 26.851"/>
        <path id="bc" d="M.055 26.85V48.89c3.2 10.442 10.834 18.958 20.712 23.37h30.874c9.878-4.412 17.51-12.928 20.712-23.37V26.85C67.624 11.426 53.229.206 36.204.206 19.18.205 4.784 11.425.054 26.851"/>
        <path id="be" d="M.055 26.85V48.89c3.2 10.442 10.834 18.958 20.712 23.37h30.874c9.878-4.412 17.51-12.928 20.712-23.37V26.85C67.624 11.426 53.229.206 36.204.206 19.18.205 4.784 11.425.054 26.851"/>
        <path id="bg" d="M.215 37.87c0 20.801 16.92 37.664 37.792 37.664S75.8 58.671 75.8 37.87C75.8 17.068 58.88.205 38.007.205S.215 17.068.215 37.87z"/>
        <path id="bi" d="M.055 26.85V48.89c3.2 10.442 10.834 18.958 20.712 23.37h30.874c9.878-4.412 17.51-12.928 20.712-23.37V26.85C67.624 11.426 53.229.206 36.204.206 19.18.205 4.784 11.425.054 26.851"/>
        <path id="bk" d="M.055 26.85V48.89c3.2 10.442 10.834 18.958 20.712 23.37h30.874c9.878-4.412 17.51-12.928 20.712-23.37V26.85C67.624 11.426 53.229.206 36.204.206 19.18.205 4.784 11.425.054 26.851"/>
        <path id="bm" d="M.055 26.85V48.89c3.2 10.442 10.834 18.958 20.712 23.37h30.874c9.878-4.412 17.51-12.928 20.712-23.37V26.85C67.624 11.426 53.229.206 36.204.206 19.18.205 4.784 11.425.054 26.851"/>
        <path id="bo" d="M.055 26.85V48.89c3.2 10.442 10.834 18.958 20.712 23.37h30.874c9.878-4.412 17.51-12.928 20.712-23.37V26.85C67.624 11.426 53.229.206 36.204.206 19.18.205 4.784 11.425.054 26.851"/>
        <path id="bq" d="M.055 26.85V48.89c3.2 10.442 10.834 18.958 20.712 23.37h30.874c9.878-4.412 17.51-12.928 20.712-23.37V26.85C67.624 11.426 53.229.206 36.204.206 19.18.205 4.784 11.425.054 26.851"/>
        <path id="bs" d="M.055 26.85V48.89c3.2 10.442 10.834 18.958 20.712 23.37h30.874c9.878-4.412 17.51-12.928 20.712-23.37V26.85C67.624 11.426 53.229.206 36.204.206 19.18.205 4.784 11.425.054 26.851"/>
        <path id="bu" d="M.055 26.85V48.89c3.2 10.442 10.834 18.958 20.712 23.37h30.874c9.878-4.412 17.51-12.928 20.712-23.37V26.85C67.624 11.426 53.229.206 36.204.206 19.18.205 4.784 11.425.054 26.851"/>
        <path id="bw" d="M.055 26.85V48.89c3.2 10.442 10.834 18.958 20.712 23.37h30.874c9.878-4.412 17.51-12.928 20.712-23.37V26.85C67.624 11.426 53.229.206 36.204.206 19.18.205 4.784 11.425.054 26.851"/>
        <path id="by" d="M.055 26.85V48.89c3.2 10.442 10.834 18.958 20.712 23.37h30.874c9.878-4.412 17.51-12.928 20.712-23.37V26.85C67.624 11.426 53.229.206 36.204.206 19.18.205 4.784 11.425.054 26.851"/>
        <path id="bA" d="M.055 26.85V48.89c3.2 10.442 10.834 18.958 20.712 23.37h30.874c9.878-4.412 17.51-12.928 20.712-23.37V26.85C67.624 11.426 53.229.206 36.204.206 19.18.205 4.784 11.425.054 26.851"/>
        <path id="bC" d="M.055 26.85V48.89c3.2 10.442 10.834 18.958 20.712 23.37h30.874c9.878-4.412 17.51-12.928 20.712-23.37V26.85C67.624 11.426 53.229.206 36.204.206 19.18.205 4.784 11.425.054 26.851"/>
        <path id="bE" d="M.055 26.85V48.89c3.2 10.442 10.834 18.958 20.712 23.37h30.874c9.878-4.412 17.51-12.928 20.712-23.37V26.85C67.624 11.426 53.229.206 36.204.206 19.18.205 4.784 11.425.054 26.851"/>
        <path id="bG" d="M.055 26.85V48.89c3.2 10.442 10.834 18.958 20.712 23.37h30.874c9.878-4.412 17.51-12.928 20.712-23.37V26.85C67.624 11.426 53.229.206 36.204.206 19.18.205 4.784 11.425.054 26.851"/>
        <path id="bI" d="M.055 26.85V48.89c3.2 10.442 10.834 18.958 20.712 23.37h30.874c9.878-4.412 17.51-12.928 20.712-23.37V26.85C67.624 11.426 53.229.206 36.204.206 19.18.205 4.784 11.425.054 26.851"/>
        <path id="bK" d="M.055 26.85V48.89c3.2 10.442 10.834 18.958 20.712 23.37h30.874c9.878-4.412 17.51-12.928 20.712-23.37V26.85C67.624 11.426 53.229.206 36.204.206 19.18.205 4.784 11.425.054 26.851"/>
        <path id="bM" d="M.055 26.85V48.89c3.2 10.442 10.834 18.958 20.712 23.37h30.874c9.878-4.412 17.51-12.928 20.712-23.37V26.85C67.624 11.426 53.229.206 36.204.206 19.18.205 4.784 11.425.054 26.851"/>
        <path id="bO" d="M.055 26.85V48.89c3.2 10.442 10.834 18.958 20.712 23.37h30.874c9.878-4.412 17.51-12.928 20.712-23.37V26.85C67.624 11.426 53.229.206 36.204.206 19.18.205 4.784 11.425.054 26.851"/>
        <path id="bQ" d="M.055 26.85V48.89c3.2 10.442 10.834 18.958 20.712 23.37h30.874c9.878-4.412 17.51-12.928 20.712-23.37V26.85C67.624 11.426 53.229.206 36.204.206 19.18.205 4.784 11.425.054 26.851"/>
        <path id="bS" d="M.055 26.85V48.89c3.2 10.442 10.834 18.958 20.712 23.37h30.874c9.878-4.412 17.51-12.928 20.712-23.37V26.85C67.624 11.426 53.229.206 36.204.206 19.18.205 4.784 11.425.054 26.851"/>
        <path id="bU" d="M.055 26.85V48.89c3.2 10.442 10.834 18.958 20.712 23.37h30.874c9.878-4.412 17.51-12.928 20.712-23.37V26.85C67.624 11.426 53.229.206 36.204.206 19.18.205 4.784 11.425.054 26.851"/>
        <path id="bW" d="M.055 26.85V48.89c3.2 10.442 10.834 18.958 20.712 23.37h30.874c9.878-4.412 17.51-12.928 20.712-23.37V26.85C67.624 11.426 53.229.206 36.204.206 19.18.205 4.784 11.425.054 26.851"/>
        <path id="bY" d="M.055 26.85V48.89c3.2 10.442 10.834 18.958 20.712 23.37h30.874c9.878-4.412 17.51-12.928 20.712-23.37V26.85C67.624 11.426 53.229.206 36.204.206 19.18.205 4.784 11.425.054 26.851"/>
        <path id="ca" d="M.055 26.85V48.89c3.2 10.442 10.834 18.958 20.712 23.37h30.874c9.878-4.412 17.51-12.928 20.712-23.37V26.85C67.624 11.426 53.229.206 36.204.206 19.18.205 4.784 11.425.054 26.851"/>
        <path id="cc" d="M.055 26.85V48.89c3.2 10.442 10.834 18.958 20.712 23.37h30.874c9.878-4.412 17.51-12.928 20.712-23.37V26.85C67.624 11.426 53.229.206 36.204.206 19.18.205 4.784 11.425.054 26.851"/>
        <path id="ce" d="M.055 26.85V48.89c3.2 10.442 10.834 18.958 20.712 23.37h30.874c9.878-4.412 17.51-12.928 20.712-23.37V26.85C67.624 11.426 53.229.206 36.204.206 19.18.205 4.784 11.425.054 26.851"/>
        <path id="cg" d="M.055 26.85V48.89c3.2 10.442 10.834 18.958 20.712 23.37h30.874c9.878-4.412 17.51-12.928 20.712-23.37V26.85C67.624 11.426 53.229.206 36.204.206 19.18.205 4.784 11.425.054 26.851"/>
        <path id="ci" d="M.055 26.85V48.89c3.2 10.442 10.834 18.958 20.712 23.37h30.874c9.878-4.412 17.51-12.928 20.712-23.37V26.85C67.624 11.426 53.229.206 36.204.206 19.18.205 4.784 11.425.054 26.851"/>
        <path id="ck" d="M.055 26.85V48.89c3.2 10.442 10.834 18.958 20.712 23.37h30.874c9.878-4.412 17.51-12.928 20.712-23.37V26.85C67.624 11.426 53.229.206 36.204.206 19.18.205 4.784 11.425.054 26.851"/>
        <path id="cm" d="M.055 26.85V48.89c3.2 10.442 10.834 18.958 20.712 23.37h30.874c9.878-4.412 17.51-12.928 20.712-23.37V26.85C67.624 11.426 53.229.206 36.204.206 19.18.205 4.784 11.425.054 26.851"/>
        <path id="co" d="M.055 26.85V48.89c3.2 10.442 10.834 18.958 20.712 23.37h30.874c9.878-4.412 17.51-12.928 20.712-23.37V26.85C67.624 11.426 53.229.206 36.204.206 19.18.205 4.784 11.425.054 26.851"/>
        <path id="cq" d="M.055 26.85V48.89c3.2 10.442 10.834 18.958 20.712 23.37h30.874c9.878-4.412 17.51-12.928 20.712-23.37V26.85C67.624 11.426 53.229.206 36.204.206 19.18.205 4.784 11.425.054 26.851"/>
        <path id="cs" d="M.055 26.85V48.89c3.2 10.442 10.834 18.958 20.712 23.37h30.874c9.878-4.412 17.51-12.928 20.712-23.37V26.85C67.624 11.426 53.229.206 36.204.206 19.18.205 4.784 11.425.054 26.851"/>
        <path id="cu" d="M.055 26.85V48.89c3.2 10.442 10.834 18.958 20.712 23.37h30.874c9.878-4.412 17.51-12.928 20.712-23.37V26.85C67.624 11.426 53.229.206 36.204.206 19.18.205 4.784 11.425.054 26.851"/>
        <path id="cw" d="M.055 26.85V48.89c3.2 10.442 10.834 18.958 20.712 23.37h30.874c9.878-4.412 17.51-12.928 20.712-23.37V26.85C67.624 11.426 53.229.206 36.204.206 19.18.205 4.784 11.425.054 26.851"/>
        <path id="cy" d="M.055 26.85V48.89c3.2 10.442 10.834 18.958 20.712 23.37h30.874c9.878-4.412 17.51-12.928 20.712-23.37V26.85C67.624 11.426 53.229.206 36.204.206 19.18.205 4.784 11.425.054 26.851"/>
        <path id="cA" d="M.055 26.85V48.89c3.2 10.442 10.834 18.958 20.712 23.37h30.874c9.878-4.412 17.51-12.928 20.712-23.37V26.85C67.624 11.426 53.229.206 36.204.206 19.18.205 4.784 11.425.054 26.851"/>
        <path id="cC" d="M.055 26.85V48.89c3.2 10.442 10.834 18.958 20.712 23.37h30.874c9.878-4.412 17.51-12.928 20.712-23.37V26.85C67.624 11.426 53.229.206 36.204.206 19.18.205 4.784 11.425.054 26.851"/>
        <path id="cE" d="M.055 26.85V48.89c3.2 10.442 10.834 18.958 20.712 23.37h30.874c9.878-4.412 17.51-12.928 20.712-23.37V26.85C67.624 11.426 53.229.206 36.204.206 19.18.205 4.784 11.425.054 26.851"/>
        <path id="cG" d="M.055 26.85V48.89c3.2 10.442 10.834 18.958 20.712 23.37h30.874c9.878-4.412 17.51-12.928 20.712-23.37V26.85C67.624 11.426 53.229.206 36.204.206 19.18.205 4.784 11.425.054 26.851"/>
        <path id="cI" d="M.055 26.85V48.89c3.2 10.442 10.834 18.958 20.712 23.37h30.874c9.878-4.412 17.51-12.928 20.712-23.37V26.85C67.624 11.426 53.229.206 36.204.206 19.18.205 4.784 11.425.054 26.851"/>
        <path id="cK" d="M.055 26.85V48.89c3.2 10.442 10.834 18.958 20.712 23.37h30.874c9.878-4.412 17.51-12.928 20.712-23.37V26.85C67.624 11.426 53.229.206 36.204.206 19.18.205 4.784 11.425.054 26.851"/>
        <path id="cM" d="M.055 26.85V48.89c3.2 10.442 10.834 18.958 20.712 23.37h30.874c9.878-4.412 17.51-12.928 20.712-23.37V26.85C67.624 11.426 53.229.206 36.204.206 19.18.205 4.784 11.425.054 26.851"/>
        <path id="cO" d="M.055 26.85V48.89c3.2 10.442 10.834 18.958 20.712 23.37h30.874c9.878-4.412 17.51-12.928 20.712-23.37V26.85C67.624 11.426 53.229.206 36.204.206 19.18.205 4.784 11.425.054 26.851"/>
        <path id="cQ" d="M.055 26.85V48.89c3.2 10.442 10.834 18.958 20.712 23.37h30.874c9.878-4.412 17.51-12.928 20.712-23.37V26.85C67.624 11.426 53.229.206 36.204.206 19.18.205 4.784 11.425.054 26.851"/>
        <path id="cS" d="M.055 26.85V48.89c3.2 10.442 10.834 18.958 20.712 23.37h30.874c9.878-4.412 17.51-12.928 20.712-23.37V26.85C67.624 11.426 53.229.206 36.204.206 19.18.205 4.784 11.425.054 26.851"/>
        <path id="cU" d="M.055 26.85V48.89c3.2 10.442 10.834 18.958 20.712 23.37h30.874c9.878-4.412 17.51-12.928 20.712-23.37V26.85C67.624 11.426 53.229.206 36.204.206 19.18.205 4.784 11.425.054 26.851z"/>
        <path id="cW" d="M.055 26.85V48.89c3.2 10.442 10.834 18.958 20.712 23.37h30.874c9.878-4.412 17.51-12.928 20.712-23.37V26.85C67.624 11.426 53.229.206 36.204.206 19.18.205 4.784 11.425.054 26.851z"/>
        <path id="cY" d="M.055 26.85V48.89c3.2 10.442 10.834 18.958 20.712 23.37h30.874c9.878-4.412 17.51-12.928 20.712-23.37V26.85C67.624 11.426 53.229.206 36.204.206 19.18.205 4.784 11.425.054 26.851z"/>
        <path id="da" d="M.055 26.85V48.89c3.2 10.442 10.834 18.958 20.712 23.37h30.874c9.878-4.412 17.51-12.928 20.712-23.37V26.85C67.624 11.426 53.229.206 36.204.206 19.18.205 4.784 11.425.054 26.851"/>
        <path id="dc" d="M.055 26.85V48.89c3.2 10.442 10.834 18.958 20.712 23.37h30.874c9.878-4.412 17.51-12.928 20.712-23.37V26.85C67.624 11.426 53.229.206 36.204.206 19.18.205 4.784 11.425.054 26.851"/>
        <path id="de" d="M.055 26.85V48.89c3.2 10.442 10.834 18.958 20.712 23.37h30.874c9.878-4.412 17.51-12.928 20.712-23.37V26.85C67.624 11.426 53.229.206 36.204.206 19.18.205 4.784 11.425.054 26.851"/>
        <path id="dg" d="M.055 26.85V48.89c3.2 10.442 10.834 18.958 20.712 23.37h30.874c9.878-4.412 17.51-12.928 20.712-23.37V26.85C67.624 11.426 53.229.206 36.204.206 19.18.205 4.784 11.425.054 26.851"/>
        <path id="di" d="M.055 26.85V48.89c3.2 10.442 10.834 18.958 20.712 23.37h30.874c9.878-4.412 17.51-12.928 20.712-23.37V26.85C67.624 11.426 53.229.206 36.204.206 19.18.205 4.784 11.425.054 26.851"/>
    </defs>
    <g fill="none" fill-rule="evenodd">
        <g transform="translate(0 .22)">
            <mask id="b" fill="#fff">
                <use xlink:href="#a"/>
            </mask>
            <path fill="#FF7900" d="M-1.728 82.5h80.703V-6.125H-1.728z" mask="url(#b)"/>
        </g>
        <g transform="translate(1.803 .22)">
            <mask id="d" fill="#fff">
                <use xlink:href="#c"/>
            </mask>
            <path fill="#725048" d="M45.632 43.503c1.023-.304 2.424-.165 3.32-.754 2.656-1.746 5.227-3.62 7.52-5.734.5.874 1.006 1.756 1.43 2.484.571.978 1.23 1.913 1.811 2.886.48.804.345 1.61 1.042 2.345.888.938 2.565 1.137 3.323 2.096.504.64.342 1.405.44 2.191.449 3.621 6.127 7.318 1.821 10.567-1.714 1.294-3.837 2.112-5.814 2.916-1.598.65-3.316.715-4.169-.96-.727-1.425-.8-2.97-2.046-4.133-1.12-1.046-2.748-1.325-3.858-2.323-1.583-1.422-2.86-3.457-3.938-5.276-.958-1.617-2.14-3.434-2.05-5.397.024-.534.69-.766 1.168-.908" mask="url(#d)"/>
        </g>
        <g transform="translate(1.803 .22)">
            <mask id="f" fill="#fff">
                <use xlink:href="#e"/>
            </mask>
            <path fill="#50BE87" d="M54.406 60.93c.25-.438 11.338-7.645 12.741-7.724.933-.053 1.856 1.398 2.277 1.9 1.703 2.033 18.18 21.75 18.582 25.823h-21.67c-4.063-3.714-10.035-15.39-11.753-18.657-.319-.605-.37-1.004-.177-1.342" mask="url(#f)"/>
        </g>
        <g transform="translate(1.803 .22)">
            <mask id="h" fill="#fff">
                <use xlink:href="#g"/>
            </mask>
            <path fill="#725048" d="M41.89 40.117a1.65 1.65 0 0 0-.826.337c-.126.094 2.318 4.366 3.398 3.469 1.37-1.14-1.215-3.941-2.571-3.806" mask="url(#h)"/>
        </g>
        <g transform="translate(1.803 .22)">
            <mask id="j" fill="#fff">
                <use xlink:href="#i"/>
            </mask>
            <path fill="#725048" d="M44.32 36.77c.632.259 1.37.745 1.764.523.568-.319-1.018-1.52-1.304-1.793-.468-.447-1.008-.86-1.446-1.34-.278-.303-.615-.756-.345-1.173.285-.436.78-.051 1.103.143 1.587.958 3.048 2.13 4.516 3.258.784.603 1.604 1.188 2.403 1.764.553.398 1.097 1.01 1.785.842.504-.124 1.098-.755 1.466-.045.214.41.311.927.383 1.45.064.464.109.932.197 1.331.146.662.065 1.328-.023 1.991-.097.737.332 3.056.332 3.056-.315 1.067-.256 2.034-1.5 2.164-1.055.11-2.28-.206-3.172-.781-.523-.337-.615-.751-1.284-.616-.546.11-1.044.535-1.627.436-.478-.081-.814-.813-1.073-1.18-.647-.915-2.538-2.738-2.035-3.948.432-1.039.649-1.07.19-2.256-.39-1.005-1.462-1.965-1.453-3.104.008-1.007.517-.97 1.124-.721" mask="url(#j)"/>
        </g>
        <g transform="translate(1.803 .22)">
            <mask id="l" fill="#fff">
                <use xlink:href="#k"/>
            </mask>
            <path fill="#725048" d="M44.24 30.316c.177.22.334.442.459.642.3.481.435 1.402 1.076 1.582.681.191 1.01-1.058 1.12-1.532.26-1.115-.772-1.897-1.64-2.42-.956-.575-1.828-.415-2.317.59.457.217.926.673 1.301 1.138" mask="url(#l)"/>
        </g>
        <g transform="translate(1.803 .22)">
            <mask id="n" fill="#fff">
                <use xlink:href="#m"/>
            </mask>
            <path fill="#725048" d="M43.9 36.705l.289.513c-.01.115-.28 1.496-.37 1.46-.751-.304-1.54-1.25-1.229-2.074.138-.367.823-1.272 1.275-.778.225.246-.102.63.036.879" mask="url(#n)"/>
        </g>
        <g transform="translate(1.803 .22)">
            <mask id="p" fill="#fff">
                <use xlink:href="#o"/>
            </mask>
            <path fill="#838080" d="M47.105 25.443c.832-.49 1.743-.354 2.792-.228 1.073.129 2.485.277 3.559.387 1.038.108 2.141.216 3.177.345.922.115 2.487.269 3.21.9.646.563.878 1.684.896 2.522.036 1.695-.38 3.36-.597 5.032-.268 2.06-.46 3.978-.679 6.045-.163 1.537-.404 3.562-.642 5.089-.202 1.294-.228 2.275-.441 3.567-.155.933-.06 2.154-1.038 2.76-.612.38-1.526.435-2.214.41-1.092-.038-2.167-.256-3.253-.36-1.266-.12-2.517-.327-3.767-.557-1.099-.203-2.484-.106-3.481-.61-1.132-.574-1.328-1.778-1.209-3.095.454-5.013 1.324-10.016 1.714-15.003.107-1.376.41-2.793.643-4.178.194-1.156.177-2.345 1.33-3.026" mask="url(#p)"/>
        </g>
        <g transform="translate(1.803 .22)">
            <mask id="r" fill="#fff">
                <use xlink:href="#q"/>
            </mask>
            <path fill="#FFF" d="M48.201 27.37c1.896.274 3.82.372 5.71.678 1.432.231 2.962.038 4.341.554 1.76.657 1.831 2.26 1.635 3.91l-.353 2.963-.831 6.982-.462 3.88c-.126 1.058.064 2.379-.584 3.3-.078.11-.162.202-.252.277-.695.576-1.727.169-2.601.066a34724.777 34724.777 0 0 0-10.751-1.272l.002-.016 1.09-9.151c.418-3.516.814-7.022 1.12-10.545.11-1.288.606-1.819 1.936-1.626" mask="url(#r)"/>
        </g>
        <g transform="translate(1.803 .22)">
            <mask id="t" fill="#fff">
                <use xlink:href="#s"/>
            </mask>
            <path fill="#1B2734" d="M57.595 26.083c.157-.063.421-.109.877-.004a1.1 1.1 0 0 1 .437.201c-.014.117-.006.266-.163.339-.124.057-.447.067-.595.047a1.16 1.16 0 0 1-.46-.149c-.215-.125-.097-.28-.096-.434" mask="url(#t)"/>
        </g>
        <g transform="translate(1.803 .22)">
            <mask id="v" fill="#fff">
                <use xlink:href="#u"/>
            </mask>
            <path fill="#000" d="M58.57 26.052c.23.061.396.305.052.346-.44.051-.644-.226-.49-.339.07-.05.211-.068.438-.007" mask="url(#v)"/>
        </g>
        <g transform="translate(1.803 .22)">
            <mask id="x" fill="#fff">
                <use xlink:href="#w"/>
            </mask>
            <path fill="#000" d="M44.541 46.289c.11-.888 1.81-15.168 1.932-16.16.064-.515.08-.614.142-1.13.17-1.419 1.034-1.452 1.92-1.347 1.057.126 1.536.18 2.592.304l4.638.55c.718.086 1.33.153 2.048.24.63.075 1.893.37 1.705 1.847-.101.797-.805 6.709-.9 7.507l-.16 1.346-.142 1.187-.647 5.428-.144 1.21c-.039.331.08 2.132-2.354 1.836-.894-.108-8.371-1.013-9.11-1.095-1.75-.196-1.557-1.425-1.52-1.723m1.228-16.935c-.018.214-.036.429-.06.64-.188 1.57-.659 5.708-1.101 9.615-.44 3.883-.853 7.538-.934 8.217-.253 2.11-.38 3.074 3.082 3.485l8.278.985c1.538.182 2.761-.07 3.031-2.419l.675-5.637c.66-5.501 1.567-13.085 1.59-13.373.065-.793.493-3.642-1.795-3.914-1.729-.205-7.529-.839-9.691-1.096-2.698-.32-2.953 1.996-3.075 3.497" mask="url(#x)"/>
        </g>
        <g transform="translate(1.803 .22)">
            <mask id="z" fill="#fff">
                <use xlink:href="#y"/>
            </mask>
            <path fill="#000" d="M51.29 26.717c.497.066.74.125 1.112.156.361.031 1.36.16 2.126.257.176.023 1.968.088 1.31.567-.189.138-.598.02-.811.006-.532-.035-1.254-.138-1.895-.212-.705-.081-1.092-.128-1.93-.229-.706-.085-.475-.62.089-.545" mask="url(#z)"/>
        </g>
        <g transform="translate(1.803 .22)">
            <mask id="B" fill="#fff">
                <use xlink:href="#A"/>
            </mask>
            <path fill="#81C8A6" d="M57.72 46.41l-.014.128h-.002a.499.499 0 0 0 .01-.097v-.032l.006.001" mask="url(#B)"/>
        </g>
        <g transform="translate(1.803 .22)">
            <mask id="D" fill="#fff">
                <use xlink:href="#C"/>
            </mask>
            <path fill="#838080" d="M48.817 49.512c.332-.048.751-.01 1.044 0 .269.01 1.005.117 1.571.196.239.034 1.684.12 1.002.86-.163.176-.518.154-.703.157-.397.005-.928-.091-1.402-.143a83.485 83.485 0 0 1-1.427-.17c-.523-.065-.798-.798-.085-.9" mask="url(#D)"/>
        </g>
        <g transform="translate(1.803 .22)">
            <mask id="F" fill="#fff">
                <use xlink:href="#E"/>
            </mask>
            <path fill="#725048" d="M46.331 32.427c.08-.314.085-.646-.011-.966-1.025.095-4.236.633-3.321 2.335.764 1.422 3.07-.351 3.332-1.369" mask="url(#F)"/>
        </g>
        <g transform="translate(1.803 .22)">
            <mask id="H" fill="#fff">
                <use xlink:href="#G"/>
            </mask>
            <path fill="#725048" d="M45.987 36.008c.08-.315.084-.646-.011-.966-1.025.095-4.236.633-3.321 2.335.764 1.422 3.07-.351 3.332-1.37" mask="url(#H)"/>
        </g>
        <g transform="translate(1.803 .22)">
            <mask id="J" fill="#fff">
                <use xlink:href="#I"/>
            </mask>
            <path fill="#66413E" d="M44.777 32.136c.373.681 1.126-.182 1.395-.535.106-.14.325.024.218.165-.241.316-.53.624-.889.807a.75.75 0 0 1-.536.074c-.206-.057-.34-.222-.439-.402-.085-.155.167-.262.25-.11" mask="url(#J)"/>
        </g>
        <g transform="translate(1.803 .22)">
            <mask id="L" fill="#fff">
                <use xlink:href="#K"/>
            </mask>
            <path fill="#66413E" d="M44.637 35.941c.307.365.918-.133 1.149-.371.12-.124.34.038.218.164-.366.377-1.126.916-1.582.376-.114-.135.102-.303.215-.169" mask="url(#L)"/>
        </g>
        <g transform="translate(1.803 .22)">
            <mask id="N" fill="#fff">
                <use xlink:href="#M"/>
            </mask>
            <path fill="#725048" d="M58.496 33.096c.41 1.175 1.29 2.09 2.16 2.964.66.664 1.713 1.257 2.237 2.046.193 1.923 1.11 3.74 2.307 5.276a2.096 2.096 0 0 1 .14.872c-.037 1.99-.012 5.02-.13 7.013-1.48.768-1.562.856-2.842 1.613-.175-.11-.26-1.106-.427-1.23-.515-.378-.935-.849-1.486-1.18-.335-.203-.809-.321-1.07-.629-.664-.783-.223-2.414-.183-3.346.066-1.514-.18-3.106 0-4.606.143-1.18.019-2.047-.666-3.1a1.18 1.18 0 0 0-.267-.261c-.121-.095-.251-.188-.342-.294-.397-.46-.643-1.108-.72-1.722-.136-1.068.011-3.013 1.29-3.416" mask="url(#N)"/>
        </g>
        <g transform="translate(1.803 .22)">
            <mask id="P" fill="#fff">
                <use xlink:href="#O"/>
            </mask>
            <path fill="#66413E" d="M58.077 34.761c.088.334.319.602.652.707.315.1.653-.03.86-.273.115-.132.334.03.22.165-.279.324-.698.484-1.12.378-.46-.116-.764-.491-.883-.936-.045-.17.226-.208.27-.04" mask="url(#P)"/>
        </g>
        <g transform="translate(1.803 .22)">
            <mask id="R" fill="#fff">
                <use xlink:href="#Q"/>
            </mask>
            <path fill="#000" d="M55.99 62.943l.163-.162c.243-.244.262-.688 0-.93-.263-.24-.673-.26-.932 0l-.162.163c-.244.244-.263.689 0 .93.262.24.672.26.932 0" mask="url(#R)"/>
        </g>
        <g transform="translate(1.803 .22)">
            <mask id="T" fill="#fff">
                <use xlink:href="#S"/>
            </mask>
            <path fill="#000" d="M57.159 62.228c.403-.133.714-.373.956-.718.199-.283.06-.743-.236-.9-.338-.177-.69-.065-.902.236a.552.552 0 0 0 .031-.038 1.15 1.15 0 0 1-.112.112.857.857 0 0 0 .055-.042c-.038.025-.078.048-.117.073-.063.03-.047.025.05-.017a.92.92 0 0 1-.075.026c-.328.107-.574.46-.46.809.105.325.46.573.81.459" mask="url(#T)"/>
        </g>
        <g transform="translate(1.803 .22)">
            <mask id="V" fill="#fff">
                <use xlink:href="#U"/>
            </mask>
            <path fill="#000" d="M59.502 60.935l.481-.332c.283-.195.44-.585.237-.899-.182-.28-.6-.445-.902-.236l-.481.332c-.283.196-.44.585-.237.9.181.28.599.444.902.235" mask="url(#V)"/>
        </g>
        <g transform="translate(1.803 .22)">
            <mask id="X" fill="#fff">
                <use xlink:href="#W"/>
            </mask>
            <path fill="#000" d="M61.91 59.25c-.046.093-.056.118-.03.074.026-.042.01-.022-.047.063l-.076.06c-.103.036-.122.045-.055.027.335-.081.568-.477.46-.808a.673.673 0 0 0-.81-.459c-.351.086-.606.358-.713.694-.103.328.122.731.461.808.359.081.7-.108.81-.459" mask="url(#X)"/>
        </g>
        <g transform="translate(1.803 .22)">
            <mask id="Z" fill="#fff">
                <use xlink:href="#Y"/>
            </mask>
            <path fill="#000" d="M63.631 58.273c-.016.022-.093.104-.029.048-.038.033-.104.092-.028.024.049-.043-.118.033-.054.02.048-.01.14-.026-.047-.004.181-.022.332-.059.466-.192a.667.667 0 0 0 .193-.465c-.014-.32-.292-.701-.659-.657-.207.025-.38.058-.564.164-.176.101-.296.239-.416.399-.096.128-.107.36-.067.506a.67.67 0 0 0 .303.393c.153.08.339.12.508.066a.769.769 0 0 0 .394-.302" mask="url(#Z)"/>
        </g>
        <g transform="translate(1.803 .22)">
            <mask id="ab" fill="#fff">
                <use xlink:href="#aa"/>
            </mask>
            <path fill="#000" d="M65.509 57.297l.653-.315c.312-.15.42-.617.237-.899-.206-.318-.57-.396-.902-.235l-.653.315c-.312.15-.42.616-.237.899.206.318.57.396.902.235" mask="url(#ab)"/>
        </g>
        <g transform="translate(1.803 .22)">
            <mask id="ad" fill="#fff">
                <use xlink:href="#ac"/>
            </mask>
            <path fill="#000" d="M67.455 56.243l.486-.244c.309-.155.421-.614.237-.9-.204-.314-.572-.4-.902-.235l-.486.244c-.31.155-.422.614-.237.899.203.314.572.401.902.236" mask="url(#ad)"/>
        </g>
        <g transform="translate(1.803 .22)">
            <mask id="af" fill="#fff">
                <use xlink:href="#ae"/>
            </mask>
            <path fill="#000" d="M68.829 55.61c.848 0 .85-1.315 0-1.315-.848 0-.85 1.315 0 1.315" mask="url(#af)"/>
        </g>
        <g transform="translate(1.803 .22)">
            <mask id="ah" fill="#fff">
                <use xlink:href="#ag"/>
            </mask>
            <path fill="#FFF" d="M56.993 65.233l.64-.34c.306-.161.425-.608.237-.898a.675.675 0 0 0-.902-.236l-.64.34c-.305.162-.424.609-.237.899.2.308.576.408.902.235" mask="url(#ah)"/>
        </g>
        <g transform="translate(1.803 .22)">
            <mask id="aj" fill="#fff">
                <use xlink:href="#ai"/>
            </mask>
            <path fill="#FFF" d="M59.237 63.752l.162-.162c.243-.244.263-.689 0-.93-.263-.24-.673-.26-.932 0l-.162.163c-.244.244-.263.689 0 .93.262.24.672.26.932 0" mask="url(#aj)"/>
        </g>
        <g transform="translate(1.803 .22)">
            <mask id="al" fill="#fff">
                <use xlink:href="#ak"/>
            </mask>
            <path fill="#FFF" d="M60.881 62.793l.487-.242c.31-.155.42-.615.237-.9-.204-.315-.571-.4-.902-.235l-.487.242c-.31.154-.42.614-.237.9.204.315.572.4.902.235" mask="url(#al)"/>
        </g>
        <g transform="translate(1.803 .22)">
            <mask id="an" fill="#fff">
                <use xlink:href="#am"/>
            </mask>
            <path fill="#FFF" d="M63.153 61.5l.413-.314c.142-.109.253-.214.303-.393a.669.669 0 0 0-.067-.506c-.174-.27-.608-.459-.902-.236l-.413.314c-.143.108-.253.213-.303.393a.67.67 0 0 0 .067.506c.174.269.608.458.902.236" mask="url(#an)"/>
        </g>
        <g transform="translate(1.803 .22)">
            <mask id="ap" fill="#fff">
                <use xlink:href="#ao"/>
            </mask>
            <path fill="#FFF" d="M64.609 60.357l.41-.235c.298-.172.428-.602.236-.9a.673.673 0 0 0-.902-.235l-.41.236c-.299.171-.429.602-.236.899.194.3.582.42.902.235" mask="url(#ap)"/>
        </g>
        <g transform="translate(1.803 .22)">
            <mask id="ar" fill="#fff">
                <use xlink:href="#aq"/>
            </mask>
            <path fill="#FFF" d="M66.472 59.3l.915-.527c.299-.172.429-.602.236-.899-.194-.3-.582-.42-.902-.236l-.915.527c-.299.172-.429.602-.236.9.194.3.582.419.902.235" mask="url(#ar)"/>
        </g>
        <g transform="translate(1.803 .22)">
            <mask id="at" fill="#fff">
                <use xlink:href="#as"/>
            </mask>
            <path fill="#FFF" d="M68.424 58.178l.24-.166c.284-.194.44-.585.237-.899-.182-.28-.598-.444-.902-.235l-.24.165c-.284.194-.44.585-.237.899.182.28.598.444.902.236" mask="url(#at)"/>
        </g>
        <g transform="translate(1.803 .22)">
            <mask id="av" fill="#fff">
                <use xlink:href="#au"/>
            </mask>
            <path fill="#FFF" d="M70.054 57.218l.163-.08c.309-.155.42-.615.236-.9-.204-.315-.571-.4-.902-.235l-.162.08c-.31.155-.42.615-.237.9.204.315.572.4.902.235" mask="url(#av)"/>
        </g>
        <g transform="translate(1.803 .22)">
            <mask id="ax" fill="#fff">
                <use xlink:href="#aw"/>
            </mask>
            <path fill="#725048" d="M14.297 35.994c-.684-1.146-2.826.663-3.848 1.702-1.031 1.047-2.358 1.83-3.228 3.032-.87 1.202-.926 2.98-1.072 4.445-.34 3.406.65 7.77-.348 11.083C5.322 57.844-8.691 80.94-6.776 81.391c1.654.39 8.53-.119 10.092.682.948.486 1.448 1.058 2.154.025.454-.664 8.185-23.955 8.53-24.677.425-.887.78-1.609 1.409-2.382 1.555-1.913.842-5.25 1.126-7.675.293-2.494 1.53-4.077-.815-5.996-1.432-1.172-.478-3.788-1.423-5.374" mask="url(#ax)"/>
        </g>
        <g transform="translate(1.803 .22)">
            <mask id="az" fill="#fff">
                <use xlink:href="#ay"/>
            </mask>
            <path fill="#595959" d="M14.808 19.529c.86-.657 1.894-.625 3.08-.623 1.212.002 2.806-.02 4.017-.037 1.17-.018 2.414-.043 3.585-.035 1.042.006 2.806-.029 3.697.58.794.541 1.202 1.76 1.332 2.69.266 1.885.022 3.794.003 5.686-.024 2.332.016 4.493.047 6.825.022 1.735.022 4.022-.04 5.756-.054 1.468.047 2.564-.02 4.032-.047 1.06.221 2.407-.788 3.212-.632.504-1.643.686-2.413.75-1.222.1-2.448-.001-3.672.027-1.427.034-2.848-.032-4.272-.125-1.25-.08-2.782.21-3.96-.22-1.336-.49-1.715-1.806-1.756-3.29-.16-5.644.144-11.333-.083-16.942-.063-1.547.087-3.166.162-4.74.063-1.313-.114-2.636 1.08-3.546" mask="url(#az)"/>
        </g>
        <g transform="translate(1.803 .22)">
            <mask id="aB" fill="#fff">
                <use xlink:href="#aA"/>
            </mask>
            <path fill="#000" d="M26.58 18.86c.166-.093.455-.179.977-.122.2.022.39.087.514.167 0 .133.029.297-.137.398-.13.08-.49.134-.657.131a1.303 1.303 0 0 1-.533-.105c-.255-.11-.145-.299-.164-.47" mask="url(#aB)"/>
        </g>
        <g transform="translate(1.803 .22)">
            <mask id="aD" fill="#fff">
                <use xlink:href="#aC"/>
            </mask>
            <path fill="#595959" d="M27.662 18.695c.264.038.482.288.104.379-.483.115-.747-.167-.59-.313.07-.066.226-.104.486-.066" mask="url(#aD)"/>
        </g>
        <g transform="translate(1.803 .22)">
            <mask id="aF" fill="#fff">
                <use xlink:href="#aE"/>
            </mask>
            <path fill="#000" d="M16.8 19.76c2.443.002 8.99-.057 10.943-.056 2.585.001 2.486 3.232 2.52 4.124.012.325.008 8.894.004 15.11-.002 3.501-.005 6.256-.004 6.37.011 2.653-1.318 3.095-3.057 3.094l-9.354-.004c-3.91-.002-3.898-1.093-3.897-3.477 0-.768-.025-4.894-.05-9.279-.025-4.412-.051-9.084-.05-10.86 0-.237-.009-.479-.018-.72-.062-1.688-.086-4.303 2.963-4.301" mask="url(#aF)"/>
        </g>
        <g transform="translate(1.803 .22)">
            <mask id="aH" fill="#fff">
                <use xlink:href="#aG"/>
            </mask>
            <path fill="#595959" d="M19.64 20.396c.561.009.84.041 1.259.028.406-.013 1.536-.002 2.402.006.2.002 2.205-.162 1.536.459-.192.178-.664.1-.903.113-.597.03-1.415.011-2.14.014-.796.002-1.233.001-2.18 0-.798-.003-.612-.63.026-.62" mask="url(#aH)"/>
        </g>
        <g transform="translate(1.803 .22)">
            <mask id="aJ" fill="#fff">
                <use xlink:href="#aI"/>
            </mask>
            <path fill="#000" d="M26.533 44.816c.84.083 1.536.054 2.362-.23l.742-.393c.49 1.066.206 2.614-.61 3.474-.689.726-1.943.69-2.871.586-1.043-.116-2.139-.153-2.29-1.214-.097-.67-.525-1.506-.499-2.185.004-.09 2.89-.065 3.166-.038" mask="url(#aJ)"/>
        </g>
        <g transform="translate(1.803 .22)">
            <mask id="aL" fill="#fff">
                <use xlink:href="#aK"/>
            </mask>
            <path fill="#FFF" d="M14.676 43.632l-.009-3.075-.015-5.26h.003l-.006-2.102c-.003-1.144-.038-7.096-.04-8.24-.003-.595.002-.71-.002-1.304-.011-1.636.955-1.808 1.966-1.824 1.206-.02 1.751-.032 2.956-.054l5.292-.09c.82-.013 1.516-.03 2.336-.043.717-.01 2.167.052 2.176 1.41.006.92.051 8.16.058 9.08l.02 2.92.045 6.26c.004.572.007 1.073.014 1.798.006.609.165 1.999-2.389 2.041-1.02.018-9.552.139-10.395.159-1.994.048-2.009-1.332-2.01-1.676" mask="url(#aL)"/>
        </g>
        <g transform="translate(1.803 .22)">
            <mask id="aN" fill="#fff">
                <use xlink:href="#aM"/>
            </mask>
            <path fill="#9DAAC0" d="M23.617 43.497l.004.007-.004-.007" mask="url(#aN)"/>
        </g>
        <g transform="translate(1.803 .22)">
            <mask id="aP" fill="#fff">
                <use xlink:href="#aO"/>
            </mask>
            <path fill="#233143" d="M28.69 33.582l-.025.026.024-.026z" mask="url(#aP)"/>
        </g>
        <g transform="translate(1.803 .22)">
            <mask id="aR" fill="#fff">
                <use xlink:href="#aQ"/>
            </mask>
            <path fill="#233143" d="M28.565 33.503v-.007l.002.006-.002.001z" mask="url(#aR)"/>
        </g>
        <g transform="translate(1.803 .22)">
            <mask id="aT" fill="#fff">
                <use xlink:href="#aS"/>
            </mask>
            <path fill="#233143" d="M15.326 33.344l-.001-.007.002.007h-.001z" mask="url(#aT)"/>
        </g>
        <g transform="translate(1.803 .22)">
            <mask id="aV" fill="#fff">
                <use xlink:href="#aU"/>
            </mask>
            <path fill="#8F8F8F" d="M20.127 46.43c.369-.085.846-.095 1.178-.12.304-.021 1.15-.002 1.798.01.273.006 1.915-.077 1.245.715-.16.189-.563.207-.771.231-.447.05-1.06.018-1.601.023-.597.004-.924.002-1.631-.001-.6-.004-1.008-.678-.218-.859" mask="url(#aV)"/>
        </g>
        <g transform="translate(1.803 .22)">
            <mask id="aX" fill="#fff">
                <use xlink:href="#aW"/>
            </mask>
            <path fill="#FF7900" d="M10.403 56.455c-.02.01-.037.02 0 0" mask="url(#aX)"/>
        </g>
        <g transform="translate(1.803 .22)">
            <mask id="aZ" fill="#fff">
                <use xlink:href="#aY"/>
            </mask>
            <path fill="#50BE87" d="M3.61 57.203c.49-.736 1.43-1.05 2.273-1.126 1.569-.142 3.174.331 4.624.874 1.02.382 2.115.79 2.972 1.478.824.66 1.482 1.575 1.797 2.584.193.617.318 1.308.076 1.93-.168.436-.521.791-.902 1.05-.787.535-2.178.892-3.108 1.062-.075.014-.129.007-.169-.015.223-.433.374-.9.497-1.37l.2-.04.097-.021.005-.001c.184-.055.37-.1.552-.16a6.745 6.745 0 0 0 .856-.35c.018-.01.148-.086.077-.043.127-.077.252-.155.37-.248l.104-.089c.052-.06.098-.138.155-.19.01-.026.023-.05.034-.075l.016-.055c.006-.042.02-.13.02-.121 0-.004.004-.07.006-.072a2.894 2.894 0 0 0-.084-.578l-.05-.166a4.476 4.476 0 0 0-.307-.731 1.267 1.267 0 0 1-.024-.046 2.93 2.93 0 0 0-.831-1.037 3.908 3.908 0 0 0-1.002-.68 23.88 23.88 0 0 0-1.472-.642 19.19 19.19 0 0 0-1.303-.468l-.125-.039-.102-.03-.098-.029-.118-.033c-.187-.05-.374-.097-.564-.139a9.616 9.616 0 0 0-1.008-.172 7.845 7.845 0 0 0-.403-.035l-.144-.006h-.136a4.588 4.588 0 0 0-.693.061l-.141.027-.01.001c-.089.026-.178.053-.265.086-.074.027-.144.06-.216.093l-.003.001-.07.043c-.059.039-.115.08-.169.126l-.028.026c-.013.014-.027.027-.043.037l.025-.016c-.038.045-.07.092-.106.138l-.028.058c-.01.021-.017.044-.026.066l-.021.121a.256.256 0 0 0-.005-.044c.004.017.003.037.003.055l-.002.013-.003.019c-.118.306-.17.638-.321.936-.08.159-.167.314-.255.47-.109-.034-.247-.157-.443-.44-.418-.64-.38-1.42.039-2.048" mask="url(#aZ)"/>
        </g>
        <g transform="translate(1.803 .22)">
            <mask id="bb" fill="#fff">
                <use xlink:href="#ba"/>
            </mask>
            <path fill="#FF7900" d="M9.005 58.02c-.022.01-.038.019 0 0" mask="url(#bb)"/>
        </g>
        <g transform="translate(1.803 .22)">
            <mask id="bd" fill="#fff">
                <use xlink:href="#bc"/>
            </mask>
            <path fill="#725048" d="M18.207 38.62c-1.97 1.636-1.686 5.473-4.608 6.416-.52.167-1.047.468-1.574.356-.634-.135-.929-.673-1.348-1.112.171.18-.02 1.393-.032 1.66-.021.45-.07.87-.226 1.296-.29.788-.507 1.382-.405 2.253.192 1.637-.99 6.553.571 7.308 2.31 1.117 5.254-1.455 6.159-3.54.207-.475 1.043-2.816 1.122-3.318.172-1.086.2-2.898.367-3.981.378-2.462 2.079-5.99 2.465-7.232.267-.86-1.243-1.142-2.491-.106" mask="url(#bd)"/>
        </g>
        <g transform="translate(1.803 .22)">
            <mask id="bf" fill="#fff">
                <use xlink:href="#be"/>
            </mask>
            <path fill="#80615A" d="M20.005 38.206c-.627.649-1.206 1.413-1.318 2.307-.025.192-.025.394.056.57.081.176.261.317.455.304.2-.014.354-.18.477-.338a6.203 6.203 0 0 0 1.132-2.392c.043-.186.06-.421-.1-.528-.139-.094-.327-.028-.481.042" mask="url(#bf)"/>
        </g>
        <g>
            <path fill="#FFB400" d="M53.202 34.679l-4.337 6.173a1.121 1.121 0 0 0 .823 1.76l7.534.657a1.122 1.122 0 0 0 1.118-1.59l-3.196-6.831a1.127 1.127 0 0 0-1.942-.17"/>
            <path fill="#000" d="M53.209 40.223l.962.084-.08.927-.963-.085.081-.926zm.31-3.787l1.007.087-.105 1.199-.454 2.182-.48-.042-.073-2.228.105-1.198zM35.5 17.042l-7.192 1.413s.182-6.768 10.518-8.404c3.485-.552 9.04 2.151 11.237 8.377l1.624-.494-2.349 5.146-4.142-2.982 1.277-.432s-4.856-9.638-9.511-8.595c-1.304.292-2.039 2.233-1.462 5.971"/>
            <path fill="#FFF" d="M43.246 23.795l-2.137-1.42c-.542-.36-1.065.5-.525.86l2.137 1.42c.541.36 1.065-.501.525-.86M44.093 20.767l-1.457-1.847c-.4-.508-1.125.193-.726.699l1.456 1.847c.401.509 1.126-.193.727-.699M54.467 20.321l.466-1.97c.149-.63-.818-.92-.968-.29l-.466 1.972c-.148.629.819.92.968.288M55.943 23.272c.56-.423 1.16-.785 1.786-1.103.58-.295.089-1.175-.49-.88-.707.36-1.365.782-1.997 1.258-.517.39.188 1.112.701.725"/>
        </g>
        <g>
            <g transform="translate(0 .22)">
                <mask id="bh" fill="#fff">
                    <use xlink:href="#bg"/>
                </mask>
                <path fill="#FF7900" d="M-1.728 82.5h80.703V-6.125H-1.728z" mask="url(#bh)"/>
            </g>
            <g transform="translate(1.803 .22)">
                <mask id="bj" fill="#fff">
                    <use xlink:href="#bi"/>
                </mask>
                <path fill="#725048" d="M45.632 43.503c1.023-.304 2.424-.165 3.32-.754 2.656-1.746 5.227-3.62 7.52-5.734.5.874 1.006 1.756 1.43 2.484.571.978 1.23 1.913 1.811 2.886.48.804.345 1.61 1.042 2.345.888.938 2.565 1.137 3.323 2.096.504.64.342 1.405.44 2.191.449 3.621 6.127 7.318 1.821 10.567-1.714 1.294-3.837 2.112-5.814 2.916-1.598.65-3.316.715-4.169-.96-.727-1.425-.8-2.97-2.046-4.133-1.12-1.046-2.748-1.325-3.858-2.323-1.583-1.422-2.86-3.457-3.938-5.276-.958-1.617-2.14-3.434-2.05-5.397.024-.534.69-.766 1.168-.908" mask="url(#bj)"/>
            </g>
            <g transform="translate(1.803 .22)">
                <mask id="bl" fill="#fff">
                    <use xlink:href="#bk"/>
                </mask>
                <path fill="#50BE87" d="M54.406 60.93c.25-.438 11.338-7.645 12.741-7.724.933-.053 1.856 1.398 2.277 1.9 1.703 2.033 18.18 21.75 18.582 25.823h-21.67c-4.063-3.714-10.035-15.39-11.753-18.657-.319-.605-.37-1.004-.177-1.342" mask="url(#bl)"/>
            </g>
            <g transform="translate(1.803 .22)">
                <mask id="bn" fill="#fff">
                    <use xlink:href="#bm"/>
                </mask>
                <path fill="#725048" d="M41.89 40.117a1.65 1.65 0 0 0-.826.337c-.126.094 2.318 4.366 3.398 3.469 1.37-1.14-1.215-3.941-2.571-3.806" mask="url(#bn)"/>
            </g>
            <g transform="translate(1.803 .22)">
                <mask id="bp" fill="#fff">
                    <use xlink:href="#bo"/>
                </mask>
                <path fill="#725048" d="M44.32 36.77c.632.259 1.37.745 1.764.523.568-.319-1.018-1.52-1.304-1.793-.468-.447-1.008-.86-1.446-1.34-.278-.303-.615-.756-.345-1.173.285-.436.78-.051 1.103.143 1.587.958 3.048 2.13 4.516 3.258.784.603 1.604 1.188 2.403 1.764.553.398 1.097 1.01 1.785.842.504-.124 1.098-.755 1.466-.045.214.41.311.927.383 1.45.064.464.109.932.197 1.331.146.662.065 1.328-.023 1.991-.097.737.332 3.056.332 3.056-.315 1.067-.256 2.034-1.5 2.164-1.055.11-2.28-.206-3.172-.781-.523-.337-.615-.751-1.284-.616-.546.11-1.044.535-1.627.436-.478-.081-.814-.813-1.073-1.18-.647-.915-2.538-2.738-2.035-3.948.432-1.039.649-1.07.19-2.256-.39-1.005-1.462-1.965-1.453-3.104.008-1.007.517-.97 1.124-.721" mask="url(#bp)"/>
            </g>
            <g transform="translate(1.803 .22)">
                <mask id="br" fill="#fff">
                    <use xlink:href="#bq"/>
                </mask>
                <path fill="#725048" d="M44.24 30.316c.177.22.334.442.459.642.3.481.435 1.402 1.076 1.582.681.191 1.01-1.058 1.12-1.532.26-1.115-.772-1.897-1.64-2.42-.956-.575-1.828-.415-2.317.59.457.217.926.673 1.301 1.138" mask="url(#br)"/>
            </g>
            <g transform="translate(1.803 .22)">
                <mask id="bt" fill="#fff">
                    <use xlink:href="#bs"/>
                </mask>
                <path fill="#725048" d="M43.9 36.705l.289.513c-.01.115-.28 1.496-.37 1.46-.751-.304-1.54-1.25-1.229-2.074.138-.367.823-1.272 1.275-.778.225.246-.102.63.036.879" mask="url(#bt)"/>
            </g>
            <g transform="translate(1.803 .22)">
                <mask id="bv" fill="#fff">
                    <use xlink:href="#bu"/>
                </mask>
                <path fill="#838080" d="M47.105 25.443c.832-.49 1.743-.354 2.792-.228 1.073.129 2.485.277 3.559.387 1.038.108 2.141.216 3.177.345.922.115 2.487.269 3.21.9.646.563.878 1.684.896 2.522.036 1.695-.38 3.36-.597 5.032-.268 2.06-.46 3.978-.679 6.045-.163 1.537-.404 3.562-.642 5.089-.202 1.294-.228 2.275-.441 3.567-.155.933-.06 2.154-1.038 2.76-.612.38-1.526.435-2.214.41-1.092-.038-2.167-.256-3.253-.36-1.266-.12-2.517-.327-3.767-.557-1.099-.203-2.484-.106-3.481-.61-1.132-.574-1.328-1.778-1.209-3.095.454-5.013 1.324-10.016 1.714-15.003.107-1.376.41-2.793.643-4.178.194-1.156.177-2.345 1.33-3.026" mask="url(#bv)"/>
            </g>
            <g transform="translate(1.803 .22)">
                <mask id="bx" fill="#fff">
                    <use xlink:href="#bw"/>
                </mask>
                <path fill="#FFB400" d="M48.201 27.37c1.896.274 3.82.372 5.71.678 1.432.231 2.962.038 4.341.554 1.76.657 1.831 2.26 1.635 3.91l-.353 2.963-.831 6.982-.462 3.88c-.126 1.058.064 2.379-.584 3.3-.078.11-.162.202-.252.277-.695.576-1.727.169-2.601.066a34724.777 34724.777 0 0 0-10.751-1.272l.002-.016 1.09-9.151c.418-3.516.814-7.022 1.12-10.545.11-1.288.606-1.819 1.936-1.626" mask="url(#bx)"/>
            </g>
            <g transform="translate(1.803 .22)">
                <mask id="bz" fill="#fff">
                    <use xlink:href="#by"/>
                </mask>
                <path fill="#1B2734" d="M57.595 26.083c.157-.063.421-.109.877-.004a1.1 1.1 0 0 1 .437.201c-.014.117-.006.266-.163.339-.124.057-.447.067-.595.047a1.16 1.16 0 0 1-.46-.149c-.215-.125-.097-.28-.096-.434" mask="url(#bz)"/>
            </g>
            <g transform="translate(1.803 .22)">
                <mask id="bB" fill="#fff">
                    <use xlink:href="#bA"/>
                </mask>
                <path fill="#000" d="M58.57 26.052c.23.061.396.305.052.346-.44.051-.644-.226-.49-.339.07-.05.211-.068.438-.007" mask="url(#bB)"/>
            </g>
            <g transform="translate(1.803 .22)">
                <mask id="bD" fill="#fff">
                    <use xlink:href="#bC"/>
                </mask>
                <path fill="#000" d="M44.541 46.289c.11-.888 1.81-15.168 1.932-16.16.064-.515.08-.614.142-1.13.17-1.419 1.034-1.452 1.92-1.347 1.057.126 1.536.18 2.592.304l4.638.55c.718.086 1.33.153 2.048.24.63.075 1.893.37 1.705 1.847-.101.797-.805 6.709-.9 7.507l-.16 1.346-.142 1.187-.647 5.428-.144 1.21c-.039.331.08 2.132-2.354 1.836-.894-.108-8.371-1.013-9.11-1.095-1.75-.196-1.557-1.425-1.52-1.723m1.228-16.935c-.018.214-.036.429-.06.64-.188 1.57-.659 5.708-1.101 9.615-.44 3.883-.853 7.538-.934 8.217-.253 2.11-.38 3.074 3.082 3.485l8.278.985c1.538.182 2.761-.07 3.031-2.419l.675-5.637c.66-5.501 1.567-13.085 1.59-13.373.065-.793.493-3.642-1.795-3.914-1.729-.205-7.529-.839-9.691-1.096-2.698-.32-2.953 1.996-3.075 3.497" mask="url(#bD)"/>
            </g>
            <g transform="translate(1.803 .22)">
                <mask id="bF" fill="#fff">
                    <use xlink:href="#bE"/>
                </mask>
                <path fill="#000" d="M51.29 26.717c.497.066.74.125 1.112.156.361.031 1.36.16 2.126.257.176.023 1.968.088 1.31.567-.189.138-.598.02-.811.006-.532-.035-1.254-.138-1.895-.212-.705-.081-1.092-.128-1.93-.229-.706-.085-.475-.62.089-.545" mask="url(#bF)"/>
            </g>
            <g transform="translate(1.803 .22)">
                <mask id="bH" fill="#fff">
                    <use xlink:href="#bG"/>
                </mask>
                <path fill="#81C8A6" d="M57.72 46.41l-.014.128h-.002a.499.499 0 0 0 .01-.097v-.032l.006.001" mask="url(#bH)"/>
            </g>
            <g transform="translate(1.803 .22)">
                <mask id="bJ" fill="#fff">
                    <use xlink:href="#bI"/>
                </mask>
                <path fill="#838080" d="M48.817 49.512c.332-.048.751-.01 1.044 0 .269.01 1.005.117 1.571.196.239.034 1.684.12 1.002.86-.163.176-.518.154-.703.157-.397.005-.928-.091-1.402-.143a83.485 83.485 0 0 1-1.427-.17c-.523-.065-.798-.798-.085-.9" mask="url(#bJ)"/>
            </g>
            <g transform="translate(1.803 .22)">
                <mask id="bL" fill="#fff">
                    <use xlink:href="#bK"/>
                </mask>
                <path fill="#725048" d="M46.331 32.427c.08-.314.085-.646-.011-.966-1.025.095-4.236.633-3.321 2.335.764 1.422 3.07-.351 3.332-1.369" mask="url(#bL)"/>
            </g>
            <g transform="translate(1.803 .22)">
                <mask id="bN" fill="#fff">
                    <use xlink:href="#bM"/>
                </mask>
                <path fill="#725048" d="M45.987 36.008c.08-.315.084-.646-.011-.966-1.025.095-4.236.633-3.321 2.335.764 1.422 3.07-.351 3.332-1.37" mask="url(#bN)"/>
            </g>
            <g transform="translate(1.803 .22)">
                <mask id="bP" fill="#fff">
                    <use xlink:href="#bO"/>
                </mask>
                <path fill="#66413E" d="M44.777 32.136c.373.681 1.126-.182 1.395-.535.106-.14.325.024.218.165-.241.316-.53.624-.889.807a.75.75 0 0 1-.536.074c-.206-.057-.34-.222-.439-.402-.085-.155.167-.262.25-.11" mask="url(#bP)"/>
            </g>
            <g transform="translate(1.803 .22)">
                <mask id="bR" fill="#fff">
                    <use xlink:href="#bQ"/>
                </mask>
                <path fill="#66413E" d="M44.637 35.941c.307.365.918-.133 1.149-.371.12-.124.34.038.218.164-.366.377-1.126.916-1.582.376-.114-.135.102-.303.215-.169" mask="url(#bR)"/>
            </g>
            <g transform="translate(1.803 .22)">
                <mask id="bT" fill="#fff">
                    <use xlink:href="#bS"/>
                </mask>
                <path fill="#725048" d="M58.496 33.096c.41 1.175 1.29 2.09 2.16 2.964.66.664 1.713 1.257 2.237 2.046.193 1.923 1.11 3.74 2.307 5.276a2.096 2.096 0 0 1 .14.872c-.037 1.99-.012 5.02-.13 7.013-1.48.768-1.562.856-2.842 1.613-.175-.11-.26-1.106-.427-1.23-.515-.378-.935-.849-1.486-1.18-.335-.203-.809-.321-1.07-.629-.664-.783-.223-2.414-.183-3.346.066-1.514-.18-3.106 0-4.606.143-1.18.019-2.047-.666-3.1a1.18 1.18 0 0 0-.267-.261c-.121-.095-.251-.188-.342-.294-.397-.46-.643-1.108-.72-1.722-.136-1.068.011-3.013 1.29-3.416" mask="url(#bT)"/>
            </g>
            <g transform="translate(1.803 .22)">
                <mask id="bV" fill="#fff">
                    <use xlink:href="#bU"/>
                </mask>
                <path fill="#66413E" d="M58.077 34.761c.088.334.319.602.652.707.315.1.653-.03.86-.273.115-.132.334.03.22.165-.279.324-.698.484-1.12.378-.46-.116-.764-.491-.883-.936-.045-.17.226-.208.27-.04" mask="url(#bV)"/>
            </g>
            <g transform="translate(1.803 .22)">
                <mask id="bX" fill="#fff">
                    <use xlink:href="#bW"/>
                </mask>
                <path fill="#000" d="M55.99 62.943l.163-.162c.243-.244.262-.688 0-.93-.263-.24-.673-.26-.932 0l-.162.163c-.244.244-.263.689 0 .93.262.24.672.26.932 0" mask="url(#bX)"/>
            </g>
            <g transform="translate(1.803 .22)">
                <mask id="bZ" fill="#fff">
                    <use xlink:href="#bY"/>
                </mask>
                <path fill="#000" d="M57.159 62.228c.403-.133.714-.373.956-.718.199-.283.06-.743-.236-.9-.338-.177-.69-.065-.902.236a.552.552 0 0 0 .031-.038 1.15 1.15 0 0 1-.112.112.857.857 0 0 0 .055-.042c-.038.025-.078.048-.117.073-.063.03-.047.025.05-.017a.92.92 0 0 1-.075.026c-.328.107-.574.46-.46.809.105.325.46.573.81.459" mask="url(#bZ)"/>
            </g>
            <g transform="translate(1.803 .22)">
                <mask id="cb" fill="#fff">
                    <use xlink:href="#ca"/>
                </mask>
                <path fill="#000" d="M59.502 60.935l.481-.332c.283-.195.44-.585.237-.899-.182-.28-.6-.445-.902-.236l-.481.332c-.283.196-.44.585-.237.9.181.28.599.444.902.235" mask="url(#cb)"/>
            </g>
            <g transform="translate(1.803 .22)">
                <mask id="cd" fill="#fff">
                    <use xlink:href="#cc"/>
                </mask>
                <path fill="#000" d="M61.91 59.25c-.046.093-.056.118-.03.074.026-.042.01-.022-.047.063l-.076.06c-.103.036-.122.045-.055.027.335-.081.568-.477.46-.808a.673.673 0 0 0-.81-.459c-.351.086-.606.358-.713.694-.103.328.122.731.461.808.359.081.7-.108.81-.459" mask="url(#cd)"/>
            </g>
            <g transform="translate(1.803 .22)">
                <mask id="cf" fill="#fff">
                    <use xlink:href="#ce"/>
                </mask>
                <path fill="#000" d="M63.631 58.273c-.016.022-.093.104-.029.048-.038.033-.104.092-.028.024.049-.043-.118.033-.054.02.048-.01.14-.026-.047-.004.181-.022.332-.059.466-.192a.667.667 0 0 0 .193-.465c-.014-.32-.292-.701-.659-.657-.207.025-.38.058-.564.164-.176.101-.296.239-.416.399-.096.128-.107.36-.067.506a.67.67 0 0 0 .303.393c.153.08.339.12.508.066a.769.769 0 0 0 .394-.302" mask="url(#cf)"/>
            </g>
            <g transform="translate(1.803 .22)">
                <mask id="ch" fill="#fff">
                    <use xlink:href="#cg"/>
                </mask>
                <path fill="#000" d="M65.509 57.297l.653-.315c.312-.15.42-.617.237-.899-.206-.318-.57-.396-.902-.235l-.653.315c-.312.15-.42.616-.237.899.206.318.57.396.902.235" mask="url(#ch)"/>
            </g>
            <g transform="translate(1.803 .22)">
                <mask id="cj" fill="#fff">
                    <use xlink:href="#ci"/>
                </mask>
                <path fill="#000" d="M67.455 56.243l.486-.244c.309-.155.421-.614.237-.9-.204-.314-.572-.4-.902-.235l-.486.244c-.31.155-.422.614-.237.899.203.314.572.401.902.236" mask="url(#cj)"/>
            </g>
            <g transform="translate(1.803 .22)">
                <mask id="cl" fill="#fff">
                    <use xlink:href="#ck"/>
                </mask>
                <path fill="#000" d="M68.829 55.61c.848 0 .85-1.315 0-1.315-.848 0-.85 1.315 0 1.315" mask="url(#cl)"/>
            </g>
            <g transform="translate(1.803 .22)">
                <mask id="cn" fill="#fff">
                    <use xlink:href="#cm"/>
                </mask>
                <path fill="#FFF" d="M56.993 65.233l.64-.34c.306-.161.425-.608.237-.898a.675.675 0 0 0-.902-.236l-.64.34c-.305.162-.424.609-.237.899.2.308.576.408.902.235" mask="url(#cn)"/>
            </g>
            <g transform="translate(1.803 .22)">
                <mask id="cp" fill="#fff">
                    <use xlink:href="#co"/>
                </mask>
                <path fill="#FFF" d="M59.237 63.752l.162-.162c.243-.244.263-.689 0-.93-.263-.24-.673-.26-.932 0l-.162.163c-.244.244-.263.689 0 .93.262.24.672.26.932 0" mask="url(#cp)"/>
            </g>
            <g transform="translate(1.803 .22)">
                <mask id="cr" fill="#fff">
                    <use xlink:href="#cq"/>
                </mask>
                <path fill="#FFF" d="M60.881 62.793l.487-.242c.31-.155.42-.615.237-.9-.204-.315-.571-.4-.902-.235l-.487.242c-.31.154-.42.614-.237.9.204.315.572.4.902.235" mask="url(#cr)"/>
            </g>
            <g transform="translate(1.803 .22)">
                <mask id="ct" fill="#fff">
                    <use xlink:href="#cs"/>
                </mask>
                <path fill="#FFF" d="M63.153 61.5l.413-.314c.142-.109.253-.214.303-.393a.669.669 0 0 0-.067-.506c-.174-.27-.608-.459-.902-.236l-.413.314c-.143.108-.253.213-.303.393a.67.67 0 0 0 .067.506c.174.269.608.458.902.236" mask="url(#ct)"/>
            </g>
            <g transform="translate(1.803 .22)">
                <mask id="cv" fill="#fff">
                    <use xlink:href="#cu"/>
                </mask>
                <path fill="#FFF" d="M64.609 60.357l.41-.235c.298-.172.428-.602.236-.9a.673.673 0 0 0-.902-.235l-.41.236c-.299.171-.429.602-.236.899.194.3.582.42.902.235" mask="url(#cv)"/>
            </g>
            <g transform="translate(1.803 .22)">
                <mask id="cx" fill="#fff">
                    <use xlink:href="#cw"/>
                </mask>
                <path fill="#FFF" d="M66.472 59.3l.915-.527c.299-.172.429-.602.236-.899-.194-.3-.582-.42-.902-.236l-.915.527c-.299.172-.429.602-.236.9.194.3.582.419.902.235" mask="url(#cx)"/>
            </g>
            <g transform="translate(1.803 .22)">
                <mask id="cz" fill="#fff">
                    <use xlink:href="#cy"/>
                </mask>
                <path fill="#FFF" d="M68.424 58.178l.24-.166c.284-.194.44-.585.237-.899-.182-.28-.598-.444-.902-.235l-.24.165c-.284.194-.44.585-.237.899.182.28.598.444.902.236" mask="url(#cz)"/>
            </g>
            <g transform="translate(1.803 .22)">
                <mask id="cB" fill="#fff">
                    <use xlink:href="#cA"/>
                </mask>
                <path fill="#FFF" d="M70.054 57.218l.163-.08c.309-.155.42-.615.236-.9-.204-.315-.571-.4-.902-.235l-.162.08c-.31.155-.42.615-.237.9.204.315.572.4.902.235" mask="url(#cB)"/>
            </g>
            <g transform="translate(1.803 .22)">
                <mask id="cD" fill="#fff">
                    <use xlink:href="#cC"/>
                </mask>
                <path fill="#725048" d="M14.297 35.994c-.684-1.146-2.826.663-3.848 1.702-1.031 1.047-2.358 1.83-3.228 3.032-.87 1.202-.926 2.98-1.072 4.445-.34 3.406.65 7.77-.348 11.083C5.322 57.844-8.691 80.94-6.776 81.391c1.654.39 8.53-.119 10.092.682.948.486 1.448 1.058 2.154.025.454-.664 8.185-23.955 8.53-24.677.425-.887.78-1.609 1.409-2.382 1.555-1.913.842-5.25 1.126-7.675.293-2.494 1.53-4.077-.815-5.996-1.432-1.172-.478-3.788-1.423-5.374" mask="url(#cD)"/>
            </g>
            <g transform="translate(1.803 .22)">
                <mask id="cF" fill="#fff">
                    <use xlink:href="#cE"/>
                </mask>
                <path fill="#595959" d="M14.808 19.529c.86-.657 1.894-.625 3.08-.623 1.212.002 2.806-.02 4.017-.037 1.17-.018 2.414-.043 3.585-.035 1.042.006 2.806-.029 3.697.58.794.541 1.202 1.76 1.332 2.69.266 1.885.022 3.794.003 5.686-.024 2.332.016 4.493.047 6.825.022 1.735.022 4.022-.04 5.756-.054 1.468.047 2.564-.02 4.032-.047 1.06.221 2.407-.788 3.212-.632.504-1.643.686-2.413.75-1.222.1-2.448-.001-3.672.027-1.427.034-2.848-.032-4.272-.125-1.25-.08-2.782.21-3.96-.22-1.336-.49-1.715-1.806-1.756-3.29-.16-5.644.144-11.333-.083-16.942-.063-1.547.087-3.166.162-4.74.063-1.313-.114-2.636 1.08-3.546" mask="url(#cF)"/>
            </g>
            <g transform="translate(1.803 .22)">
                <mask id="cH" fill="#fff">
                    <use xlink:href="#cG"/>
                </mask>
                <path fill="#000" d="M26.58 18.86c.166-.093.455-.179.977-.122.2.022.39.087.514.167 0 .133.029.297-.137.398-.13.08-.49.134-.657.131a1.303 1.303 0 0 1-.533-.105c-.255-.11-.145-.299-.164-.47" mask="url(#cH)"/>
            </g>
            <g transform="translate(1.803 .22)">
                <mask id="cJ" fill="#fff">
                    <use xlink:href="#cI"/>
                </mask>
                <path fill="#595959" d="M27.662 18.695c.264.038.482.288.104.379-.483.115-.747-.167-.59-.313.07-.066.226-.104.486-.066" mask="url(#cJ)"/>
            </g>
            <g transform="translate(1.803 .22)">
                <mask id="cL" fill="#fff">
                    <use xlink:href="#cK"/>
                </mask>
                <path fill="#000" d="M16.8 19.76c2.443.002 8.99-.057 10.943-.056 2.585.001 2.486 3.232 2.52 4.124.012.325.008 8.894.004 15.11-.002 3.501-.005 6.256-.004 6.37.011 2.653-1.318 3.095-3.057 3.094l-9.354-.004c-3.91-.002-3.898-1.093-3.897-3.477 0-.768-.025-4.894-.05-9.279-.025-4.412-.051-9.084-.05-10.86 0-.237-.009-.479-.018-.72-.062-1.688-.086-4.303 2.963-4.301" mask="url(#cL)"/>
            </g>
            <g transform="translate(1.803 .22)">
                <mask id="cN" fill="#fff">
                    <use xlink:href="#cM"/>
                </mask>
                <path fill="#595959" d="M19.64 20.396c.561.009.84.041 1.259.028.406-.013 1.536-.002 2.402.006.2.002 2.205-.162 1.536.459-.192.178-.664.1-.903.113-.597.03-1.415.011-2.14.014-.796.002-1.233.001-2.18 0-.798-.003-.612-.63.026-.62" mask="url(#cN)"/>
            </g>
            <g transform="translate(1.803 .22)">
                <mask id="cP" fill="#fff">
                    <use xlink:href="#cO"/>
                </mask>
                <path fill="#000" d="M26.533 44.816c.84.083 1.536.054 2.362-.23l.742-.393c.49 1.066.206 2.614-.61 3.474-.689.726-1.943.69-2.871.586-1.043-.116-2.139-.153-2.29-1.214-.097-.67-.525-1.506-.499-2.185.004-.09 2.89-.065 3.166-.038" mask="url(#cP)"/>
            </g>
            <g transform="translate(1.803 .22)">
                <mask id="cR" fill="#fff">
                    <use xlink:href="#cQ"/>
                </mask>
                <path fill="#FFF" d="M14.676 43.632l-.009-3.075-.015-5.26h.003l-.006-2.102c-.003-1.144-.038-7.096-.04-8.24-.003-.595.002-.71-.002-1.304-.011-1.636.955-1.808 1.966-1.824 1.206-.02 1.751-.032 2.956-.054l5.292-.09c.82-.013 1.516-.03 2.336-.043.717-.01 2.167.052 2.176 1.41.006.92.051 8.16.058 9.08l.02 2.92.045 6.26c.004.572.007 1.073.014 1.798.006.609.165 1.999-2.389 2.041-1.02.018-9.552.139-10.395.159-1.994.048-2.009-1.332-2.01-1.676" mask="url(#cR)"/>
            </g>
            <g transform="translate(1.803 .22)">
                <mask id="cT" fill="#fff">
                    <use xlink:href="#cS"/>
                </mask>
                <path fill="#9DAAC0" d="M23.617 43.497l.004.007-.004-.007" mask="url(#cT)"/>
            </g>
            <g transform="translate(1.803 .22)">
                <mask id="cV" fill="#fff">
                    <use xlink:href="#cU"/>
                </mask>
                <path fill="#233143" d="M28.69 33.582l-.025.026.024-.026z" mask="url(#cV)"/>
            </g>
            <g transform="translate(1.803 .22)">
                <mask id="cX" fill="#fff">
                    <use xlink:href="#cW"/>
                </mask>
                <path fill="#233143" d="M28.565 33.503v-.007l.002.006-.002.001z" mask="url(#cX)"/>
            </g>
            <g transform="translate(1.803 .22)">
                <mask id="cZ" fill="#fff">
                    <use xlink:href="#cY"/>
                </mask>
                <path fill="#233143" d="M15.326 33.344l-.001-.007.002.007h-.001z" mask="url(#cZ)"/>
            </g>
            <g transform="translate(1.803 .22)">
                <mask id="db" fill="#fff">
                    <use xlink:href="#da"/>
                </mask>
                <path fill="#8F8F8F" d="M20.127 46.43c.369-.085.846-.095 1.178-.12.304-.021 1.15-.002 1.798.01.273.006 1.915-.077 1.245.715-.16.189-.563.207-.771.231-.447.05-1.06.018-1.601.023-.597.004-.924.002-1.631-.001-.6-.004-1.008-.678-.218-.859" mask="url(#db)"/>
            </g>
            <g transform="translate(1.803 .22)">
                <mask id="dd" fill="#fff">
                    <use xlink:href="#dc"/>
                </mask>
                <path fill="#FF7900" d="M10.403 56.455c-.02.01-.037.02 0 0" mask="url(#dd)"/>
            </g>
            <g transform="translate(1.803 .22)">
                <mask id="df" fill="#fff">
                    <use xlink:href="#de"/>
                </mask>
                <path fill="#FF7900" d="M9.005 58.02c-.022.01-.038.019 0 0" mask="url(#df)"/>
            </g>
            <g transform="translate(1.803 .22)">
                <mask id="dh" fill="#fff">
                    <use xlink:href="#dg"/>
                </mask>
                <path fill="#725048" d="M18.207 38.62c-1.97 1.636-1.686 5.473-4.608 6.416-.52.167-1.047.468-1.574.356-.634-.135-.929-.673-1.348-1.112.171.18-.02 1.393-.032 1.66-.021.45-.07.87-.226 1.296-.29.788-.507 1.382-.405 2.253.192 1.637-.99 6.553.571 7.308 2.31 1.117 5.254-1.455 6.159-3.54.207-.475 1.043-2.816 1.122-3.318.172-1.086.2-2.898.367-3.981.378-2.462 2.079-5.99 2.465-7.232.267-.86-1.243-1.142-2.491-.106" mask="url(#dh)"/>
            </g>
            <g transform="translate(1.803 .22)">
                <mask id="dj" fill="#fff">
                    <use xlink:href="#di"/>
                </mask>
                <path fill="#80615A" d="M20.005 38.206c-.627.649-1.206 1.413-1.318 2.307-.025.192-.025.394.056.57.081.176.261.317.455.304.2-.014.354-.18.477-.338a6.203 6.203 0 0 0 1.132-2.392c.043-.186.06-.421-.1-.528-.139-.094-.327-.028-.481.042" mask="url(#dj)"/>
            </g>
            <g>
                <path fill="#000" d="M53.202 34.679l-4.337 6.173a1.121 1.121 0 0 0 .823 1.76l7.534.657a1.122 1.122 0 0 0 1.118-1.59l-3.196-6.831a1.127 1.127 0 0 0-1.942-.17"/>
                <path fill="#FFB400" d="M53.209 40.223l.962.084-.08.927-.963-.085.081-.926zm.31-3.787l1.007.087-.105 1.199-.454 2.182-.48-.042-.073-2.228.105-1.198z"/>
                <path fill="#000" d="M35.5 17.042l-7.192 1.413s.182-6.768 10.518-8.404c3.485-.552 9.04 2.151 11.237 8.377l1.624-.494-2.349 5.146-4.142-2.982 1.277-.432s-4.856-9.638-9.511-8.595c-1.304.292-2.039 2.233-1.462 5.971"/>
                <path fill="#FFF" d="M43.246 23.795l-2.137-1.42c-.542-.36-1.065.5-.525.86l2.137 1.42c.541.36 1.065-.501.525-.86M44.093 20.767l-1.457-1.847c-.4-.508-1.125.193-.726.699l1.456 1.847c.401.509 1.126-.193.727-.699M54.467 20.321l.466-1.97c.149-.63-.818-.92-.968-.29l-.466 1.972c-.148.629.819.92.968.288M55.943 23.272c.56-.423 1.16-.785 1.786-1.103.58-.295.089-1.175-.49-.88-.707.36-1.365.782-1.997 1.258-.517.39.188 1.112.701.725"/>
                <path fill="#000" d="M22.676 31.151l-3.517.073a.713.713 0 1 0 .03 1.423l1.793-.037-2.827 2.937a.71.71 0 0 0 .021 1.006.716.716 0 0 0 1.01-.02l2.827-2.937.037 1.787a.713.713 0 0 0 1.428-.03l-.073-3.505a.713.713 0 0 0-.729-.697"/>
                <path fill="#F60" d="M24.921 36.035l3.517-.073a.713.713 0 1 0-.03-1.423l-1.793.037 2.827-2.937a.71.71 0 0 0-.02-1.006.716.716 0 0 0-1.01.021l-2.827 2.937-.038-1.787a.714.714 0 0 0-1.428.03l.073 3.505a.713.713 0 0 0 .73.696"/>
            </g>
        </g>
    </g>
</svg>
