<svg xmlns="http://www.w3.org/2000/svg" xmlns:xlink="http://www.w3.org/1999/xlink" width="368" height="275" viewBox="0 0 368 275">
    <defs>
        <filter id="a" width="131.8%" height="126.2%" x="-15.9%" y="-13.1%" filterUnits="objectBoundingBox">
            <feOffset in="SourceAlpha" result="shadowOffsetOuter1"/>
            <feGaussianBlur in="shadowOffsetOuter1" result="shadowBlurOuter1" stdDeviation="8"/>
            <feColorMatrix in="shadowBlurOuter1" result="shadowMatrixOuter1" values="0 0 0 0 0 0 0 0 0 0 0 0 0 0 0 0 0 0 0.1 0"/>
            <feMerge>
                <feMergeNode in="shadowMatrixOuter1"/>
                <feMergeNode in="SourceGraphic"/>
            </feMerge>
        </filter>
        <path id="b" d="M.007.328h166.606v16.34H.007z"/>
    </defs>
    <g fill="none" fill-rule="evenodd">
        <path fill="#FFF" d="M24 23h312v237H24z"/>
        <g opacity=".231" style="mix-blend-mode:luminosity">
            <path fill="#000" d="M219 239c-64.618 0-117-4.701-117-10.5S154.382 218 219 218c64.616 0 117 4.701 117 10.5S283.616 239 219 239" opacity=".083"/>
            <path fill="#D6D6D6" d="M100.69 135.504h234.942v-6.005H100.69z"/>
            <path fill="#595959" d="M109.797 230.623h3.523v-95.12h-3.523zM323.003 230.623h3.523v-95.12h-3.523z"/>
            <path fill="#D6D6D6" d="M161.694 113.559c0 14.497 10.336 15.07 10.336 15.07h-31.095s10.336-.573 10.336-15.07h10.423z"/>
            <path fill="#8F8F8F" d="M183.679 114.52h-54.393c-.822 0-1.49-.663-1.49-1.48V75.06c0-.816.668-1.479 1.49-1.479h54.393c.822 0 1.489.663 1.489 1.48v37.98c0 .816-.667 1.478-1.49 1.478"/>
            <path fill="#000" d="M182.43 112.565h-51.895a.671.671 0 0 1-.674-.669V76.204c0-.37.302-.669.674-.669h51.895c.372 0 .674.3.674.67v35.691c0 .37-.302.67-.674.67"/>
            <path fill="#8F8F8F" d="M140.935 129.514h31.095v-.884h-31.095z"/>
            <path fill="#595959" d="M300.184 129.499h-48.266v-21.404c0-.703.574-1.271 1.28-1.271h45.706c.707 0 1.28.568 1.28 1.271v21.404z"/>
            <path fill="#000" d="M255.486 112.832h41.13v-2.084h-41.13z"/>
            <path fill="#D6D6D6" d="M286.31 126.532h4.14v-1.935h-4.14z"/>
            <path fill="#FF7900" d="M291.585 125.565c0 .534.436.967.974.967a.97.97 0 0 0 .975-.967.97.97 0 0 0-.975-.968.971.971 0 0 0-.974.968"/>
            <path fill="#FFF" d="M294.668 125.565a.97.97 0 0 0 .974.967.97.97 0 0 0 .974-.967.97.97 0 0 0-.974-.968.97.97 0 0 0-.974.968"/>
            <path fill="#8F8F8F" d="M291.027 106.824h-29.951v-11.01c0-.604.494-1.094 1.102-1.094h27.747c.608 0 1.102.49 1.102 1.094v11.01z"/>
            <path fill="#595959" d="M179.634 230.623h-3.12c-.634 0-1.147-.51-1.147-1.138v-3.329c0-.629.513-1.138 1.147-1.138h3.12c.633 0 1.147.51 1.147 1.138v3.329c0 .629-.514 1.138-1.147 1.138"/>
            <path fill="#8F8F8F" d="M175.58 215.418h4.986V174.74h-4.985z"/>
            <path fill="#8F8F8F" d="M187.806 180.542h-19.464c-1.29 0-2.343-1.047-2.343-2.326 0-1.28 1.054-2.327 2.343-2.327h19.464a2.34 2.34 0 0 1 2.343 2.327 2.34 2.34 0 0 1-2.343 2.326"/>
            <path fill="#595959" d="M144.544 227.782c0 1.57-1.28 2.842-2.861 2.842a2.851 2.851 0 0 1-2.862-2.842 2.852 2.852 0 0 1 2.862-2.84 2.851 2.851 0 0 1 2.861 2.84M139.844 141.711h12.68c1.446 0 2.63-1.175 2.63-2.61 0-1.437-1.184-2.612-2.63-2.612h-12.68c-1.447 0-2.63 1.175-2.63 2.611 0 1.436 1.183 2.611 2.63 2.611M203.624 141.711h12.68c1.446 0 2.63-1.175 2.63-2.61 0-1.437-1.184-2.612-2.63-2.612h-12.68c-1.447 0-2.63 1.175-2.63 2.611 0 1.436 1.183 2.611 2.63 2.611"/>
            <path fill="#595959" d="M196.198 178.393H159.95c-7.603 0-13.767-6.119-13.767-13.667v-61.838c0-5.032 4.11-9.111 9.178-9.111h45.425c5.07 0 9.178 4.079 9.178 9.11v61.839c0 7.548-6.163 13.667-13.766 13.667"/>
            <path fill="#8F8F8F" d="M175.581 209.721l-33.898 14.464v2.478l33.898-11.245z"/>
            <path fill="#595959" d="M211.603 227.782a2.851 2.851 0 0 0 2.862 2.842 2.851 2.851 0 0 0 2.861-2.842 2.852 2.852 0 0 0-2.861-2.84 2.852 2.852 0 0 0-2.862 2.84"/>
            <path fill="#8F8F8F" d="M180.566 209.721l33.899 14.464v2.478l-33.899-11.245z"/>
            <path fill="#8F8F8F" d="M175.581 215.418l1.543 11.245h1.899l1.544-11.245z"/>
            <path fill="#000" d="M156.476 167.004c-.237 0-.428-.097-.428-.216v-63.34c0-.12.191-.217.428-.217s.429.096.429.216v63.341c0 .119-.192.216-.429.216M167.38 167.004c-.236 0-.428-.097-.428-.216v-63.34c0-.12.192-.217.429-.217.236 0 .428.096.428.216v63.341c0 .119-.192.216-.428.216M178.285 167.004c-.237 0-.428-.097-.428-.216v-63.34c0-.12.191-.217.428-.217s.428.096.428.216v63.341c0 .119-.191.216-.428.216M189.19 167.004c-.238 0-.43-.097-.43-.216v-63.34c0-.12.192-.217.43-.217.236 0 .428.096.428.216v63.341c0 .119-.192.216-.429.216M200.093 167.004c-.237 0-.428-.097-.428-.216v-63.34c0-.12.191-.217.428-.217s.428.096.428.216v63.341c0 .119-.191.216-.428.216"/>
            <g>
                <path fill="#D6D6D6" d="M24.009 232.625h75.868V109.11H24.01z"/>
                <path fill="#595959" d="M29.472 165.002h64.943v-48.087H29.472v48.087zm-.447.447h65.836v-48.981H29.025v48.981z"/>
                <path fill="#8F8F8F" d="M69.055 128.74H54.816c-.714 0-1.3-.586-1.3-1.302 0-.716.586-1.302 1.3-1.302h14.239c.715 0 1.3.586 1.3 1.302 0 .716-.585 1.302-1.3 1.302"/>
                <path fill="#595959" d="M29.472 221.071h64.943v-48.088H29.472v48.088zm-.447.447h65.836v-48.982H29.025v48.982z"/>
                <path fill="#8F8F8F" d="M69.055 184.809H54.816c-.714 0-1.3-.586-1.3-1.302 0-.716.586-1.302 1.3-1.302h14.239c.715 0 1.3.586 1.3 1.302 0 .716-.585 1.302-1.3 1.302"/>
                <path fill="#FF7900" d="M70.815 94.002v11.025c0 1.118.17 2.195.484 3.21.162.523.658.873 1.205.873h18.28c.547 0 1.042-.35 1.204-.874.315-1.014.485-2.091.485-3.209V94.002H70.815z"/>
                <path fill="#50BE87" d="M90.903 94.002c2.82-1.994 5.612-4.382 5.408-5.376-.21-1.017-3.462-.222-6.764 1.013 2.486-2.832 5.088-6.387 4.582-7.396-.513-1.02-3.964.996-7.033 3.275 1.727-3.671 3.56-8.608 2.703-9.449-.82-.807-3.71 2.572-5.98 5.84-.193-4.187-1-9.5-2.175-9.495-1.175-.005-1.982 5.308-2.175 9.495-2.27-3.268-5.16-6.647-5.981-5.84-.855.84.977 5.778 2.704 9.449-3.07-2.28-6.52-4.296-7.033-3.275-.506 1.01 2.095 4.564 4.582 7.396-3.302-1.235-6.555-2.03-6.764-1.013-.204.994 2.587 3.382 5.408 5.376h18.518z"/>
            </g>
        </g>
        <g filter="url(#a)" transform="translate(83 23)">
            <path fill="#01B877" d="M123.46 152.955c-.467 1.829-.08 3.678-.081 5.513-.001 3.385.205 6.77.237 10.157.012 1.174.287 2.175 1.03 3.069a73.815 73.815 0 0 1 1.62 2.016c2.71 3.503 5.914 4.646 10.5 3.648 9.554-2.078 19.207-3.79 29.017-4.251 1.97-.093 3.93.033 5.899.275 3.579.44 5.833 2.406 7.034 5.702 1.496 4.108 1.338 8.371.99 12.614-.315 3.866-1.1 7.67-2 11.445-.286 1.685-1.297 2.868-2.612 3.87-4.831 3.687-10.308 6.188-15.803 8.658-.948.426-1.875.897-2.812 1.348-2.451.43-4.902.769-7.384.207-1.601-.362-3.238-.544-4.837-.908-.865-.68-.15-1.195.24-1.654.708-.828 1.483-1.597 1.894-2.147-7.268 5.765-15.747 9.726-25.302 11.364-3.207.55-6.478.946-9.267 2.873-.558.386-1.15.726-1.444 1.385-1.26 1.018-2.87 1.457-4.113 2.508-2.145.667-4.379.726-6.582.888-7.243.534-14.466 1.31-21.768.693-3.74-.315-7.506-.39-11.237-.873-1.216-.157-2.466-.176-3.601-.723-.496-.516-.118-.728.333-.878.762-.253 1.571-.05 2.497-.22-1.67-.948-3.37-1.614-4.736-2.821-1.02-1.587-2.787-1.99-4.355-2.635-3.883-1.594-7.24-3.917-10.206-6.865-3.105-3.086-6.17-6.204-8.895-9.677 1.943 3.716 4.103 7.25 6.896 10.373 1.664 1.86 3.703 3.233 5.732 4.635.458.317 1.392.439.942 1.411-2.013.196-3.881-.462-5.723-1.088-1.898-.646-3.688-1.598-5.647-2.088.018-.865-.643-1.25-1.204-1.721-2.434-2.039-5.361-3.209-8.139-4.642-.972-.502-1.997-.94-2.515-1.954.278.83.721 1.646 1.225 2.44.244.385.668.793.176 1.3-1.525.227-3.008 1.29-4.6.244-5.55-3.508-10.473-7.765-15.164-12.346-3.435-3.355-4.608-7.24-3.903-11.908.829-5.487 2.863-10.409 6.403-14.694.716.468.803 1.223.811 1.962.035 3.235 2.263 5.367 3.9 7.79.328.487.822.597 1.114-.104.544-1.307 1.163-.725 1.74-.06.86.99 1.403.766 1.793-.387.263-.775.651-1.356 1.622-.873.78.387 1.31.167 1.508-.709.187-.825.562-1.17 1.434-.72 1.097.564 1.45-.064 1.494-1.055.035-.803.01-1.604-.166-2.393-.219-.973-.232-1.962-.164-2.947.225-3.246 2.058-4.588 5.81-4.287 4.459 1.014 8.623 2.882 12.9 4.421 3.123 1.123 6.24 2.256 9.428 3.203 2.57.763 4.838.532 6.904-1.242.652-.56 1.363-1.048 2.02-1.607 3.053-2.603 5.06-5.334 4.484-9.922-.623-4.955-.14-10.057-.522-15.086.234-3.95-.379-7.87-.389-11.812-.002-1.072-.382-2.05-.77-3.027a3697.71 3697.71 0 0 0-10.013-24.874c-.338-.832-.91-1.645-.57-2.638-.928-2.76-.935-2.772 1.531-4.31 5.891-3.677 11.74-7.428 17.967-10.529.546-.272 1.128-.474 1.693-.708.882.542.981 1.521 1.31 2.368 3.165 8.165 6.424 16.286 11.231 23.672.47.724.887 1.527 1.558 2.057 2.23 1.764 2.635 4.227 2.637 6.8.008 8.377.797 16.728.782 25.106-.002.903-.03 1.847.68 2.775.608-.737.443-1.546.445-2.286.013-8.321.007-16.642.009-24.963 0-1.047.05-2.09.153-3.135.173-1.776.802-3.24 2.014-4.622 1.895-2.157 2.953-4.813 3.708-7.576 1.459-5.332 1.947-10.775 1.911-16.284-.006-1.017-.274-2.112.494-3.016 8.17 3.723 16.342 7.442 24.506 11.177.744.34 1.735.533 1.476 1.747.45.932.043 1.818-.177 2.698-2.169 8.663-4.306 17.334-6.502 25.99-.338 1.33-.372 2.639-.342 4.01.08 3.616.413 7.246-.187 10.853"/>
            <g transform="translate(26.9 219.713)">
                <mask id="c" fill="#fff">
                    <use xlink:href="#b"/>
                </mask>
                <path fill="#D5D5D5" d="M35.964 10.413c3.343.852 6.783 1.042 10.19 1.308 10.88.851 21.727.215 32.543-1.087.36-.044.703-.21 1.055-.318 2.27-.882 4.643-.582 6.938-.366 4.173.392 8.362.39 12.535.54 3.931.14 7.632 1.333 11.484 1.76 3.367.372 6.753.44 10.116.818.435.048.981.067 1.208-.303 1.352-2.221 3.944-3.526 4.592-6.271.153-.65.885-.813 1.347-1.204.673-.57 1.167-1.265.466-2.045-1.067-1.188-.549-1.801.64-2.286.55-.224.982-.789 1.68-.59 10.317.886 20.659 1.584 30.755 4.098 1.245.31 2.447.812 3.64 1.297.745.303 1.502.72 1.458 1.7-.042.92-.753 1.418-1.47 1.752-1.844.858-3.797 1.45-5.786 1.842-7.521 1.48-15.113 2.429-22.758 3.033-7.892.623-15.783 1.182-23.697 1.524-7.187.312-14.377.44-21.56.736-12.444.512-24.883.257-37.323.234-8.481-.015-16.964-.38-25.44-.721-6.13-.247-12.265-.57-18.372-1.135-3.4-.314-6.86-.202-10.198-1.108.393-.973 1.286-.824 2.045-.846 4.871-.144 9.662-.834 14.416-1.894 3.135-.7 6.365-.31 9.546-.662 2.552-.282 5.155.035 7.725-.361.769-.119 1.614-.146 2.225.555" mask="url(#c)"/>
            </g>
            <path fill="#7C5346" d="M62.865 230.127c-8.873.336-17.764.375-26.516 2.26-2.198.473-4.512.398-6.77.604-.893.082-1.84-.221-2.672.344-.714-.062-1.4.785-2.134.068-1.017-1.367-2.382-2.409-3.474-3.737-1.07-1.3-1.59-3-3.07-4.037-1.58-1.107-1.3-2.696.459-3.706-.257-.64-.976-.614-1.424-.988-.806-.673-1.32-1.465-1.062-2.542.25-1.042 1.123-1.45 2.05-1.574.836-.111 1.745-.15 2.547.061 1.445.381 2.756.182 4.058-.434 1.62.28 3.116-.63 4.72-.485.12-.04.265-.098.357-.042 3.154 1.91 6.573 3.236 9.995 4.56 3.937.728 7.416 3.051 11.492 3.297 1.792-.299 3.317.715 4.986 1.033 1.721.33 3.585.331 4.994 1.647l5.64 3.255c-.018.138-.034.277-.05.416h-4.126zM157.66 220.083c-.722.791-1.584 1.349-2.76 1.588.595.741 1.833 1.048 1.484 2.258-.293 1.013-.976 1.691-1.991 2.017-.175.056-.346.12-.52.181.87 1.835-1.335 2.064-1.6 3.056-.318 1.19-.797 1.679-1.819 1.905-.612.136-.5.58-.538.996-.101 1.11-.85 1.546-1.804 1.345-3.626-.765-7.37-.29-10.983-1.078-10.054-2.19-20.287-1.975-30.477-2.322.91-1.247 2.484-1.342 3.666-2.117 2.338-2.067 5.292-2.224 8.138-2.357 8.682-.408 16.452-3.13 23.24-8.594.651-.524 1.24-1.246 2.245-1.008 1.154.142 2.316.247 3.463.434 2.165.354 4.289.998 6.538.401.803-.213 1.716-.114 2.538.231 1.635.542 1.382 1.813 1.18 3.064"/>
            <path fill="#D5D5D5" d="M18.688 221.922c-1.653 1.645-1.452 2.898.701 3.937.475.23.957.233.499.924-.104.156-.06.62.055.681 1.504.794 1.54 2.993 3.274 3.49 1.32.38.485 1.994 1.556 2.449l-18.517-2.626c-.992-.93-2.41-.796-3.529-1.412-1.034-.57-2.673-.728-2.595-2.223.073-1.395 1.594-1.745 2.715-2.162 3.116-1.158 6.378-1.757 9.647-2.279 2.054-.327 4.095-.8 6.194-.779"/>
            <path fill="#FFF" d="M112.016 44.712a3.542 3.542 0 0 0-.608-.528c-.616-.334-1.277-.237-1.931-.21.045 4.783.145 9.569-.306 14.342l.718.025 1.506-.699c.24-.176.449-.37.633-.58 1.79-4.114 1.781-8.231-.012-12.35"/>
            <path fill="#FFF" d="M114.71 44.652c-.92-.505-1.943-.367-2.927-.468.083.176.157.352.233.528 1.793 4.119 1.802 8.236.012 12.35-.083.194-.166.387-.258.58 2.073-.442 3.2-1.845 3.893-3.744 1.185-3.247.21-6.252-.954-9.246"/>
            <path fill="#000" d="M69.279 43.996c-2.192-7.306-4.312-14.636-6.609-21.909-.968-3.067-.384-5.424 1.952-7.653 5.565-5.314 11.416-10.17 18.75-12.871 12.502-4.603 22.321 1.498 27.599 11.293 1.503 2.788 1.326 5.992 1.29 9.053-.073 6.106-.847 12.154-1.966 18.154-.23 1.232.161 1.587 1.378 1.659 1.651.098 3.286.47 4.932.683.987.129 1.729.474 1.465 1.626-.25 1.096-1.07.985-1.908.74-.23-.066-.487-.04-.732-.057-.243.179-.515.266-.816.264-.94-.15-1.895-.191-2.834-.351a7.163 7.163 0 0 0-1.962-.205c-4.566-.377-8.684.849-12.413 3.47-.19.078-.388.13-.59.164-1.027.115-2.056.095-3.085.046a4.373 4.373 0 0 1-.904-.145c-.702-.21-1.428-.393-2.072-.73-4.745-2.487-9.556-2.057-14.404-.391a8.77 8.77 0 0 0-1.003.447c-1.03.683-1.935.537-2.734-.403-.642-.755-1.447-1.304-2.346-1.699-.543-.238-.912-.577-.988-1.185"/>
            <path fill="#B7EAD5" d="M56.564 111.131c3.885 9.629 7.831 19.234 11.607 28.905.894 2.289.246 4.867.555 7.308.253 1.999.053 4.055.054 6.086-.403.58-1.013.871-1.619 1.176-5.32 2.675-10.698 5.245-15.543 8.764-.494.358-1.024.697-1.695.584-.65-.318-.988-.927-1.31-1.513-5.065-9.168-10.273-18.255-15.287-27.451-.258-.473-.657-.924-.429-1.54 6.528-6.207 13.052-12.418 19.59-18.616 1.331-1.262 2.717-2.47 4.077-3.703"/>
            <path fill="#7C5346" d="M148.598 119.794c1.443-7.632 2.134-15.337 2.5-23.092.197-4.192.249-8.357-.09-12.539-.133-1.615-.606-2.829-2.018-3.856-5.222-3.802-5.446-6.628-3.578-13.304.346-1.236 1.164-2.29 2.571-2.33 1.22-.037 1.2-.687 1.173-1.554-.12-3.938-.6-7.872-.3-11.814.187-2.443.139-4.935 1.009-7.284.297-.803.555-1.736 1.76-1.435 1.168.292 2.065.793 1.866 2.265-.606 4.481-.263 8.984-.265 13.48-.001.94.063 1.852.722 2.604-1.706.99-2.84 2.178-2.27 4.438.225.891-.072.964.78 1.559.753.526 1.55.99 2.273 1.56.539.424 1.08.903.797 1.69-.25.698-.842 1.031-1.554 1.132-1.262.178-2.498.034-3.91-.567 2.044 2.22 5.382 1.092 6.766-1.999.658-.775.9-1.857 1.92-2.38 1.1-.566 2.16-.856 3.503-.03-2.216-1.462-3.77-1.033-4.75 1.108-.2.438-.242.96-.656 1.291-2.07-.485-2.531-1.35-1.508-3.042.751-1.24 1.649-2.382 2.839-2.593-1.287.084-2.563.75-3.195 2.462-.262.711-.393 1.668-1.548 1.433-1.122-.227-1.691-.95-1.688-2.08.007-1.843.943-3.115 2.541-3.948 2.761.23 5.294 1.276 7.596 2.661 2.111 1.27 2.147 3.63 1.895 5.819-.426 3.702-1.412 7.336-3.339 10.485-1.656 2.706-1.69 5.316-1.262 8.239 1.791 12.21 2.545 24.494 2.083 36.831-.107 2.876-.57 5.737-1.22 8.572-.726 3.168-2.495 4.974-5.75 5.274-.376.364-.808.612-1.345.643-1.34.067-2.685.165-4.002-.197-1.412-.389-2.594-1.073-3.114-2.558-.449-1.676.073-3.316.288-4.943.45-3.42 1.075-6.816 1.672-10.214.116-.659.149-1.368.808-1.787M69.279 43.996c1.48.982 3.145 1.695 4.27 3.185.529.7 2.056-.663 2.6-.715.584.603-.581 1.852-.556 2.571.042 1.224-.05 2.45.084 3.673.295 2.681 1.46 4.65 4.301 5.24 2.982.723 5.94 1.406 9.06.67 1.91-.45 3.294-1.272 3.69-3.308.555-1.71.307-3.472.373-5.213.03-.828-.165-1.708.475-2.42l3.365-.044c.876 1.882.477 3.962.916 5.91 1.07 3.906 2.488 4.96 6.568 5.07 1.7.046 3.42-.32 5.101.191-.69 4.605-1.507 9.174-3.283 13.518-1.84 4.498-4.373 8.483-8.27 11.497-.283.219-.49.538-.731.81-.496.484-1.116.504-1.718.364-3.618-.84-6.683-2.587-8.976-5.568a71.789 71.789 0 0 1-10.602-16.145c-.181-.38-.335-.863-.928-.59-2.163.996-3.41-.45-4.147-1.969-2.208-4.556-3.059-9.437-2.806-14.508.048-.974 1.006-1.375 1.214-2.219"/>
            <path fill="#B7EAD5" d="M123.46 152.955c-.534-2.988.01-6.026-.35-9.007-.582-4.808 1.253-9.168 2.321-13.661 1.661-6.981 3.483-13.924 5.236-20.883l14.362 8.47c-1.266 8.073-2.785 16.1-4.153 24.154-.905 5.33-1.858 10.65-2.765 15.98-.16.945-.099 1.987-.862 2.755-4.689-2.44-9.27-5.069-13.79-7.808"/>
            <path fill="#7C5346" d="M32.901 174.057c-1.33.249-2.836-.798-3.991.891-1.262 1.844-1.34 3.75-1.043 5.802.113.786.219 1.58.242 2.372.022.772.213 1.654-.713 2.11-.915.45-1.441-.32-2.074-.804-.361 2.65-.893 2.907-2.932 1.5-.731.728-.091 2.31-1.338 2.572-1.247.263-1.498-1.213-2.26-1.83-.426.162-.256.517-.297.78-.08.506-.186.994-.774 1.116-.542.112-.747-.36-.977-.697-1.914-2.806-4.487-5.302-4.279-9.115.022-.413-.175-.837-.27-1.256l.208-2.94c.094-1.314.922-1.856 1.913-2.706 1.927-1.654 4.218-2.236 6.335-3.305.837-.423.48-1.19.488-1.801.056-5.11.417-10.17 1.697-15.15.98-3.811 2.542-7.302 5.005-10.38.445-1.136 1.17-1.114 2.013-.46.738.571 1.266 1.334 1.742 2.12 2.292 3.782 4.347 7.673 5.424 12.005.05.643-.177 1.206-.489 1.752-2.242 3.926-3.806 8.148-5.443 12.343-.525 1.347-.42 2.33.695 3.272.54.456 1.185.937 1.118 1.809"/>
            <path fill="#FFF7AE" d="M104.686 96.48c-.003 5.418.018 10.838-1.087 16.18-.96 4.631-2.412 9.025-5.829 12.542-1.122 1.155-.727 2.804-.746 4.22-.123 9.242-.151 18.485-.211 27.729-.003.43 0 .862-.018 1.293-.027.644-.439.81-1.003.8-.556-.01-.73-.318-.757-.825-.042-.797-.154-1.59-.186-2.388-.376-9.47-.745-18.941-1.108-28.412-.026-.678.022-1.324-.599-1.84-2.616-2.181-4.243-5.11-5.802-8.041-3.788-7.123-7.106-14.46-9.587-22.153 1.38-.67 2.786-1.217 4.37-.916 1.806 5.814 3.616 11.627 5.888 17.282 1.469 3.655 2.986 7.297 5.18 10.587 1.409 2.113 2.288 2.012 3.564-.192 2.214-3.827 2.819-8.091 3.384-12.371.534-4.042.326-8.104.38-12.159.012-.837-.198-1.746.529-2.438 1.402-.26 2.493.512 3.638 1.102"/>
            <path fill="#FFD200" d="M101.048 95.378c.058 7.079.238 14.166-1.507 21.117-.632 2.518-1.42 4.977-2.93 7.122-1.141 1.62-1.843 1.637-3.162.13-1.518-1.735-2.5-3.805-3.454-5.87-3.251-7.053-5.7-14.4-7.91-21.832-.142-.479-.35-.927.038-1.376l1.807-.836c.886.266 1.143 1.08 1.481 1.784.989 2.056 2.155 4.014 3.237 6.019.703 1.301 1.382 2.703 2.535 3.61 1.925 1.513 2.38 3.415 2.226 5.701a41.813 41.813 0 0 0 .007 5.355c.062 1.007-.607 2.745.618 2.83.928.064.48-1.765.513-2.74.08-2.4.05-4.803.018-7.205-.018-1.34.32-2.48 1.111-3.61 1.773-2.529 2.348-5.52 2.921-8.49.162-.834.143-1.743.94-2.32l1.51.61"/>
            <path fill="#FEFEFE" d="M36.637 154.89c-1.528-4.611-3.436-9.04-6.343-12.97-.597-.807-1.243-1.855-2.453-.703-1.372-1.56-1.073-2.737.616-3.933 1.589-1.125 2.969-2.544 4.44-3.834 3.343 5.951 6.689 11.9 10.028 17.854 2.347 4.183 4.685 8.372 7.026 12.559-.947 2.066-2.93 2.76-4.81 3.541-.554.231-1.045-.275-1.355-.755-2.232-3.453-4.459-6.912-6.675-10.377-.269-.42-.222-.954-.474-1.383M137.249 160.762c.337-4.215 1.287-8.335 1.982-12.494 1.623-9.706 3.382-19.39 5.07-29.087.095-.544-.003-1.14.729-1.306l3.569 1.92c-.764 4.915-1.538 9.83-2.282 14.75-.11.725-.082 1.47-.118 2.206.434 1.148.224 2.323.046 3.462-1.054 6.74-2.05 13.488-3.072 20.233-.148.982.05 2.332-1.45 2.65l-4.474-2.334"/>
            <path fill="#DEDDDD" d="M141.724 163.096c1.476-1.938 1.027-4.324 1.426-6.495.98-5.324 1.73-10.691 2.558-16.043.195-1.264.33-2.538.49-3.806.9 1.747 2.497 2.159 4.27 2.223.908.033 1.817.046 2.727.068.306.603.11 1.205-.026 1.797-1.448 6.346-3.116 12.64-4.561 18.986-.29 1.274-.777 2.463-1.762 3.38-.924.859-2.028 1.09-3.246.895-.667-.257-1.35-.483-1.876-1.005"/>
            <path fill="#7C5346" d="M97.22 87.583l.52 6.267c.691 1.147.105 2.298-.087 3.402-.356 2.06-.952 4.072-2.112 5.856-1.147 1.763-2.135 1.906-3.741.508-1.602-1.392-2.742-3.163-3.7-5.016-.976-1.886-2.299-3.639-2.575-5.84 1.382-3.072 1.084-6.344 1.138-9.574 1.084.342 1.439 1.436 2.157 2.15 1.984 1.97 4.163 3.027 6.995 2.163.453-.138.96-.302 1.405.084"/>
            <path fill="#FFF7AE" d="M85.525 92.76c1.731 2.949 2.921 6.21 5.12 8.888.882 1.075 1.692 2.696 3.183 2.441 1.44-.246 1.83-1.989 2.34-3.283.88-2.232 1.238-4.594 1.572-6.956l1.797.917c-.537 3.025-1.004 6.068-2.22 8.924-.145.34-.196.776-.441 1.007-2.34 2.191-1.806 5.038-1.82 7.76-.01 2.095-.02 4.19.006 6.287.011.841-.089 1.417-1.172 1.395-1.026-.02-1.027-.618-1.025-1.342.009-3.144-.035-6.288.023-9.43.022-1.176-.224-1.991-1.218-2.823-2.415-2.018-3.604-4.949-5.098-7.631-.929-1.667-1.764-3.386-2.642-5.08l1.595-1.074"/>
            <path fill="#6C382D" d="M97.22 87.583c-5.196 2.102-8.506-.904-10.557-4.398l-.116-3.758c2.445 1.645 4.501 3.89 7.49 4.696 1.061.286 2.093.606 3.205.509l-.022 2.951"/>
            <path fill="#FEFDFC" d="M143.6 164.1c4.254-.49 4.402-3.975 5.15-7.04 1.469-6.009 2.962-12.012 4.444-18.018l1.096-.193c-1.997 8.816-3.997 17.631-5.988 26.448-.178.793-.494 1.007-1.26.57-1.12-.639-2.293-1.182-3.442-1.766"/>
            <path fill="#6C392E" d="M154.288 60.97c-.587.93-1.515 1.603-1.913 2.69-.22.601-.35 1.184-.265 1.799.116.84.894.977 1.494 1.191.833.299.616-.493.758-.889.918-2.578 1.789-3.107 5.173-2.836-1.423.447-2.277 1.089-3.024 1.9-1.778 1.932-1.741 2.428.387 3.893l-.008-.006c-.046 2.693-1.891 4.084-4.472 3.375-.119-.033-.26-.113-.355-.077-1.965.75-2.495-.374-2.634-2.184 1.34.97 2.796 1.232 4.348 1.118.685-.05 1.25-.313 1.46-.926.228-.66-.402-.945-.842-1.258-1.494-1.062-2.995-2.113-4.487-3.177-.09-.063-.12-.206-.201-.351.65-.266 1.08.474 1.684.381-.801-2.97-.31-3.857 2.557-4.678a.666.666 0 0 1 .34.034"/>
            <path fill="#6FC090" d="M117.23 186.45c-18.878 7.086-37.793 5.412-57.635-2.861 4.795.434 9.48 1.564 14.184 2.508 4.756.956 9.539 1.454 14.364 1.88 4.927.436 9.849.408 14.744.174 4.799-.23 9.613-.754 14.342-1.701M143.94 215.953c-2.366 1.55-4.47 3.463-6.954 4.864-5.686 3.206-11.764 4.965-18.282 5.176-2.928.095-5.683.876-8.386 1.919.26-.947 1.715-2.067 3.373-2.735 3.445-1.386 7.154-1.584 10.715-2.45 8.306-2.021 15.79-5.66 22.35-11.165.274-.23.625-.368 1.303-.758-1.16 2.227-2.81 3.556-4.118 5.15M88.888 181.404c12.021-.538 23.537-3 33.795-9.88-5.182 9.956-27.411 13.593-33.795 9.88M61.4 226.457c-3.287-1.04-6.803-1.23-9.979-2.681-7.088-3.939-11.33-10.282-14.963-17.792 1.3.84 1.919 1.662 2.56 2.513.662.88 1.525 1.605 2.25 2.443 5.026 5.817 10.392 11.177 17.964 13.649.954.311 1.76.879 2.169 1.868M108.069 184.404c7.542-3.962 15.698-5.157 24.03-5.582-7.613 3.568-15.666 5.274-24.03 5.582"/>
            <path fill="#F8D304" d="M115.032 139.457c-1.908.001-3.818-.03-5.725.015-.911.022-1.18-.372-1.157-1.214.02-.76.117-1.335 1.08-1.331 3.878.016 7.758.013 11.637.006 1.066-.002.89.754.93 1.419.043.755-.213 1.13-1.038 1.115-1.909-.034-3.818-.01-5.727-.01"/>
            <path fill="#6FC090" d="M39.928 220.479c-3.909-.454-7.18-2.368-10.35-4.518-.913-1.2-2.044-2.306-1.745-4.356.97 1.674 2.492 2.197 3.893 2.884 2.635 1.294 5.292 2.54 7.583 4.422.857.703.968.963.62 1.568"/>
            <path fill="#7C5346" d="M106.944 41.661c-3.731.003-7.107 1.045-10.12 3.3-1.261.942-2.6.454-3.817-.219-3.093-1.71-6.406-2.478-9.913-2.246-1.825.122-3.66.346-5.426.891-.654.202-1.246.185-.988-.665.706-2.328-.222-4.478-.585-6.687-.169-1.024-.318-2.078-.692-3.034-.582-1.483-.03-2.024 1.371-2.446 7.216-2.17 14.508-3.751 22.106-3.302 2.798.165 5.434.943 7.88 2.315 2.256 1.266 1.566 3.67 1.997 5.593.45 2.01.516 4.106.75 6.165-.808.463-1.749-.082-2.563.335"/>
            <path fill="#8C695E" d="M75.832 46.59c4.835-1.921 9.673-2.548 14.536-.07.807.411 1.67.715 2.507 1.07.64.394.546 1.034.542 1.64-.01 2.134.126 4.276-.389 6.379-.702 2.267-2.453 2.998-4.608 3.322-2.608.392-5.136-.068-7.685-.43-.641-.211-1.245-.528-1.897-.707-1.909-.525-2.85-1.95-3.101-3.739-.349-2.475-.606-4.986.095-7.465M109.546 58.316c-2.241.355-4.451.568-6.737.078-3.25-.697-4.195-1.526-4.765-4.85-.97-1.928-.898-3.988-.76-6.056 3.719-2.85 7.927-3.956 12.567-3.514.172.258.343.53.37.837.394 4.362.456 8.715-.38 13.04-.034.181-.185.317-.295.465"/>
            <path fill="#4E362D" d="M106.944 42.706c.785-2.513 1.713-.76 2.563-1.321-.778 2.754-1.708.917-2.563 1.321"/>
            <path fill="#6C392E" d="M160.493 71.165c.268 1.33.022 2.368-.576 3.35-.532.875-1.171 1.697-2.299 1.36-1.285-.382-1.417-1.57-1.378-2.693.015-.45.313-.891.524-1.447.923.677.137 2.596 1.524 2.381 1.234-.19 1.482-1.76 2.205-2.95"/>
            <path fill="#6D3A2F" d="M151.984 74.213c-.84 6.106-.642 6.911 2.012 8.765-2.1-.29-3.22-1.258-3.646-3.406-.38-1.913-.013-3.67 1.634-5.36"/>
            <path fill="#6C392E" d="M156.898 68.719c.032-1.628.44-3.071 2.184-3.62 1.675-.527 2.675-.052 3.972 1.892-1.516-.74-2.981-1.205-4.487-.057-.677.516-.59 1.698-1.677 1.778l.008.007zM91.743 62.033c3.212 1.028 6.08 1.11 8.887-.295-.112 1.96-1.712 2.338-3.942 2.846-1.897.433-3.81-.583-4.945-2.55"/>
            <path fill="#6D3A2F" d="M102.143 70.57c-3.036-2.395-9.227-2.552-12.659.154 4.487-1.01 8.574-1.154 12.66-.154"/>
            <path fill="#6C392E" d="M98.924 74.18c-2.258 2.284-3.256 2.26-5.302-.12 1.834-.227 3.376-.294 5.302.12"/>
            <path fill="#6D3A2F" d="M17.013 173.118c.406 3.83-.661 7.782 1.19 11.45-2.92-3.553-2.55-7.46-1.19-11.45M20.435 172.294c.157 3.715-.378 7.484 1.016 11.065-2.88-3.41-2.15-7.223-1.016-11.065M25.534 172.03c-.421 3.672-1.332 7.35.095 11.034-2.62-2.616-2.654-5.073-.095-11.034"/>
            <path fill="#1C1711" d="M81.33 41.191c1.912-2.37 5.046-2.14 7.556.67-2.635-.766-5.013-1.729-7.555-.67M103.492 39.014c-1.709.455-2.926 1.551-3.607 3.162 1.922-.885 3.692-1.996 5.868-2.009l1.61.007h-.001.001c.389-.065.842.23 1.249-.31-1.515-1.531-3.33-1.327-5.12-.85"/>
            <path fill="#32312C" d="M85.523 53.631l-.793-.103c-.093-.02-.185-.038-.279-.055-.362-.16-.639-.42-.868-.737-.611-1.217-.625-2.43.034-3.637a3.186 3.186 0 0 1 1.084-.956c.36-.155.744-.137 1.123-.135.483 0 .901.164 1.26.485.936 1.386.92 3.484-.037 4.882-.468.325-.97.441-1.524.256"/>
            <path fill="#F8F8F8" d="M86.91 53.147c.528-.665 1.248-1.328-.27-1.717-.366-.093-.263-.6.048-.673 2.004-.47.444-1.308.233-2.004-.14-.177-.127-.343.037-.498.608-.186 1.135-.125 1.476.492 2.366 1.632 1.925 4.298-1.098 4.817-.392.115-.494-.064-.425-.417"/>
            <path fill="#45413C" d="M88.434 48.747l-1.49-.43c-.334-.018-.665-.295-1-.008l-1.197.047c-.32.26-.754.334-1.045.642-1.891 1.7-1.892 2.193-.002 3.902.29.305.716.392 1.041.64l-.01-.012c-.993.674-2.654-.067-3.29-1.47-.684-1.504-.027-2.955 1.759-3.887 2-1.043 4.406-.778 5.234.576"/>
            <path fill="#8F8F8D" d="M87.046 53.147l.467 1.039c-.643 1.28-1.31 1.199-1.99.166l1.523-1.205"/>
            <path fill="#34332F" d="M103.653 52.88l-1.182-.042c-1.697-.683-1.97-1.695-1.145-4.238.355-.657.996-.766 1.649-.857.461-.049.874.095 1.265.322.878.923 1.293 3.243.728 4.228-.282.491-.652.894-1.315.588"/>
            <path fill="#FAFAFA" d="M103.653 52.88c.66-.534 2.165-.88.417-1.947a.33.33 0 0 1 .056-.593c1.99-.803.225-1.36-.12-2.01-.088-.416.2-.537.506-.644.898-.067 1.661.257 2.362.793 1.538 1.176 1.656 2.762.194 4.004-1.09.926-2.346 1.509-3.85 1.064-.26-.486.544-.278.435-.666"/>
            <path fill="#48443F" d="M103.218 53.547c.842-.162 1.727-.212 2.515-.515 1.054-.405 1.996-1.07 2.017-2.376.02-1.311-.87-1.966-1.962-2.388-.453-.175-.945-.248-1.419-.367-.497.01-1.001-.226-1.49.048l-1.147.416c-.441.345-.719 1.006-1.467.758-.435-.59.184-.75.455-.949 1.373-1.002 2.934-1.175 4.544-.802 2.314.536 3.632 2.29 3.072 3.99-.613 1.856-3.038 2.892-5.118 2.185"/>
            <path fill="#F0F0EF" d="M100.265 49.123c.48-.269.818-.814 1.467-.758-.442 1.605-1.25 3.27.738 4.473-.943.737-1.59-.046-2.089-.575-.888-.94-.797-2.065-.116-3.14"/>
            <path fill="#F0F0F0" d="M83.628 53.27c-2.452-1.641-2.464-2.997-.041-4.582.388-.105.496.061.408.42-.67 1.242-.732 2.476.049 3.699.06.333-.086.48-.416.463"/>
            <path fill="#A1A19F" d="M84.287 50.334l-.7-1.095c.497-1.171 1.274-.852 1.99-.863l-1.29 1.958z"/>
            <path fill="#999997" d="M85.944 48.807c.67-.964 1.333-1.147 1.99.022l-.044 1.178-1.946-1.2"/>
            <path fill="#8C695E" d="M83.628 53.983l.743-1.176c.596.375 1.066.923 1.247 1.86-.726.135-1.472.4-1.99-.684"/>
            <path fill="#8F8F8D" d="M102.88 48.545c.645-1.197 1.308-1.246 1.99-.132l-.486 1.188-1.505-1.056"/>
            <path fill="#8C695E" d="M91.007 50.9c0 2.123-2.37 3.845-5.294 3.845-2.925 0-5.295-1.722-5.295-3.846s2.37-3.845 5.295-3.845c2.924 0 5.294 1.721 5.294 3.845M109.511 50.9c0 2.123-2.37 3.845-5.294 3.845-2.924 0-5.294-1.722-5.294-3.846s2.37-3.845 5.294-3.845c2.924 0 5.294 1.721 5.294 3.845"/>
            <path fill="#FFF" d="M90.64 50.622s-1.276-2.54-4.16-2.631c-2.884-.091-4.352 2.092-4.352 2.865 0 .773.974 2.683 4.257 2.683 3.282 0 4.256-2.013 4.256-2.917"/>
            <path fill="#000" d="M90.64 50.622c.025.463-.135.926-.373 1.331-.24.409-.578.764-.971 1.042-.823.508-1.784.7-2.717.722-.933.027-1.89-.101-2.762-.501-.859-.399-1.639-1.126-1.85-2.128a1.185 1.185 0 0 1-.006-.404 1.8 1.8 0 0 1 .113-.366 3.1 3.1 0 0 1 .361-.633c.283-.388.631-.722 1.019-1 .386-.28.822-.488 1.274-.635.224-.082.46-.121.692-.173.235-.024.47-.072.707-.066.474-.03.95.043 1.414.142.459.127.904.306 1.313.551.394.269.738.597 1.04.952.302.355.56.746.747 1.166m0 0a5.512 5.512 0 0 0-1.98-1.799 4.87 4.87 0 0 0-1.21-.511c-.43-.09-.868-.16-1.311-.13-.222-.007-.44.039-.659.06-.214.048-.432.084-.639.16-.417.135-.819.326-1.174.585a4.125 4.125 0 0 0-.933.915 2.74 2.74 0 0 0-.318.557c-.044.096-.07.194-.091.288a.816.816 0 0 0 .006.279c.069.401.307.785.59 1.102.292.316.655.57 1.053.753.797.366 1.702.493 2.594.466.89-.02 1.787-.205 2.53-.666.764-.402 1.414-1.143 1.542-2.059"/>
            <path fill="#34332F" d="M88.265 50.658c0 1.4-.912 2.533-2.037 2.533s-2.037-1.134-2.037-2.533.912-2.533 2.037-2.533 2.037 1.134 2.037 2.533"/>
            <path fill="#FFF" d="M88.537 50.502a.995.995 0 1 1-.001 1.99.995.995 0 0 1 0-1.99M99.75 50.622s1.34-2.54 4.368-2.631c3.026-.091 4.566 2.092 4.566 2.865 0 .773-1.021 2.683-4.467 2.683-3.445 0-4.466-2.013-4.466-2.917"/>
            <path fill="#000" d="M99.75 50.622c.134.951.847 1.684 1.646 2.079.786.451 1.715.626 2.636.646.924.026 1.858-.098 2.696-.455a3.64 3.64 0 0 0 1.113-.747c.305-.316.562-.708.639-1.119a.777.777 0 0 0 .005-.284 1.509 1.509 0 0 0-.1-.295 2.693 2.693 0 0 0-.347-.565 4.237 4.237 0 0 0-.995-.914 4.419 4.419 0 0 0-1.232-.574c-.215-.076-.442-.107-.664-.156-.228-.019-.453-.064-.683-.057-.46-.028-.914.041-1.36.129a5.333 5.333 0 0 0-1.264.504 5.652 5.652 0 0 0-2.09 1.808m0 0c.204-.429.48-.825.804-1.182a5.615 5.615 0 0 1 1.1-.95c.428-.242.89-.414 1.365-.54.478-.096.968-.168 1.456-.139.244-.006.486.04.729.062.24.052.482.085.714.167.47.137.922.344 1.33.62.408.272.778.605 1.083.996.152.196.288.406.392.64.055.116.095.243.126.376.025.146.022.289-.005.42-.234 1.04-1.08 1.747-1.968 2.14-.908.386-1.891.511-2.853.485-.961-.022-1.95-.202-2.814-.696a3.661 3.661 0 0 1-1.04-1.035c-.26-.41-.442-.885-.418-1.364"/>
            <path fill="#34332F" d="M106.098 50.658c0 1.4-.912 2.533-2.037 2.533-1.126 0-2.037-1.134-2.037-2.533s.911-2.533 2.037-2.533c1.125 0 2.037 1.134 2.037 2.533"/>
            <path fill="#FFF" d="M106.37 50.502a.995.995 0 1 1-.002 1.99.995.995 0 0 1 .001-1.99"/>
            <path fill="#91837E" d="M75.832 46.344c-.134 1.503-.101 2.99.093 4.441.165 1.453.524 2.864.996 4.213l.087.248c.03.042.038.084.074.128.059.088.132.182.232.272.189.185.436.367.712.526.557.317 1.202.574 1.866.782 1.336.412 2.756.668 4.178.799 1.42.136 2.86.144 4.244-.023.686-.095 1.36-.223 1.95-.446.581-.235 1.069-.554 1.446-1.02.374-.469.646-1.073.825-1.75.193-.668.312-1.387.398-2.116.196-1.46.265-2.963.413-4.47.301 1.485.497 2.979.578 4.512.03.767.012 1.545-.093 2.344a5.786 5.786 0 0 1-.833 2.388c-.476.768-1.231 1.374-2.018 1.744-.789.376-1.592.553-2.38.709-1.58.266-3.16.282-4.719.139-1.559-.154-3.102-.457-4.607-1-.75-.283-1.495-.61-2.205-1.096a5.014 5.014 0 0 1-1.016-.898 3.086 3.086 0 0 1-.416-.641c-.062-.116-.103-.258-.15-.386l-.07-.291a16.211 16.211 0 0 1-.478-4.627c.078-1.538.323-3.072.893-4.481M97.265 47.485a20.716 20.716 0 0 0 2.444 8.656c.199.305.808.63 1.45.817.654.196 1.37.32 2.094.393 1.453.15 2.951.137 4.43.012.742-.057 1.478-.16 2.204-.284.363-.063.724-.137 1.078-.223l.53-.133c.15-.052.309-.084.452-.15 1.188-.44 2.102-1.467 2.655-2.76.546-1.293.787-2.784.797-4.281.026-1.506-.183-3.03-.576-4.542.793 1.352 1.29 2.888 1.535 4.474.221 1.585.213 3.258-.31 4.883-.253.809-.642 1.612-1.21 2.312-.284.35-.613.669-.972.955-.37.27-.762.522-1.184.7-.208.103-.426.166-.64.249-.196.06-.392.124-.59.175-.396.108-.793.202-1.191.285-.796.17-1.599.272-2.402.35a21.291 21.291 0 0 1-4.85-.105c-.812-.131-1.628-.296-2.44-.607a6.23 6.23 0 0 1-1.214-.612c-.394-.266-.799-.629-1.068-1.167a16.393 16.393 0 0 1-1.25-4.674c-.158-1.587-.148-3.194.228-4.723"/>
        </g>
        <g transform="translate(213 23)">
            <circle cx="20" cy="20" r="20" fill="#CD3C14"/>
            <g fill="#FFF" fill-rule="nonzero">
                <path d="M12.105 25.707l4.562 4.07 12.497-13.756L24.834 12 12.105 25.707z"/>
                <path d="M29.164 25.707l-4.561 4.07-12.498-13.756L16.435 12l12.73 13.707z"/>
            </g>
        </g>
        <path stroke="#000" d="M0 2h182.535L177 14l17.855-12.864h172.962"/>
    </g>
</svg>
