<svg xmlns="http://www.w3.org/2000/svg" width="50" height="58" viewBox="0 0 50 58">
    <path fill="#999" fill-rule="evenodd" d="M16.067 20.982h17.857V13.11c0-4.767-4.005-8.646-8.928-8.646-4.923 0-8.929 3.879-8.929 8.646v7.872zM45.536 38.17v-8.26a4.47 4.47 0 0 0-4.465-4.464H8.93a4.47 4.47 0 0 0-4.465 4.465v18.303A4.47 4.47 0 0 0 8.93 52.68H41.07a4.47 4.47 0 0 0 4.465-4.465 2.232 2.232 0 1 1 4.464 0c0 4.924-4.005 8.929-8.929 8.929H8.93C4.005 57.143 0 53.138 0 48.214V29.911c0-4.924 4.005-8.929 8.929-8.929h2.674V13.11C11.603 5.881 17.611 0 24.996 0c7.385 0 13.393 5.881 13.393 13.11v7.872h2.682c4.924 0 8.929 4.006 8.929 8.929v8.259a2.232 2.232 0 1 1-4.464 0zm-10.045.446a2.232 2.232 0 1 0 4.464 0 2.232 2.232 0 0 0-4.464 0zm-8.482 0a2.232 2.232 0 1 0 4.464 0 2.232 2.232 0 0 0-4.464 0zm-8.37 0a2.232 2.232 0 1 0 4.464 0 2.232 2.232 0 0 0-4.465 0zM12.5 36.384a2.232 2.232 0 1 1 0 4.464 2.232 2.232 0 0 1 0-4.464z"/>
</svg>
