<svg xmlns="http://www.w3.org/2000/svg" xmlns:xlink="http://www.w3.org/1999/xlink" width="40" height="41" viewBox="0 0 40 41">
    <defs>
        <path id="a" d="M0 .085h39.917V40.86H0z"/>
    </defs>
    <g fill="none" fill-rule="evenodd">
        <g transform="translate(0 .055)">
            <mask id="b" fill="#fff">
                <use xlink:href="#a"/>
            </mask>
            <path fill="#B5E8F7" d="M19.958 40.86C8.936 40.86 0 31.734 0 20.474S8.936.085 19.958.085c11.023 0 19.959 9.128 19.959 20.388 0 11.26-8.936 20.388-19.959 20.388z" mask="url(#b)"/>
        </g>
        <path fill="#4BB4E6" d="M6.154 26.699c-.234-1.492-.012-2.538-.118-4.045a47.858 47.858 0 0 1-.082-2.34c-.006-.37 10.69-2.508 13.346-2.823 1.204-.142 2.412-.285 3.623-.257 2.604.06 5.123.901 7.596 1.735.954.321 4.597 1.448 6.005 2.46.04.81.057 1.623.054 2.435-.001.123-.004.253-.07.356-.068.105-.189.16-.303.208a65.677 65.677 0 0 1-7.022 2.526c-2.745.814-5.538 1.447-8.332 2.062-.738.163-1.48.324-2.235.347-.739.022-1.474-.09-2.203-.213a71.494 71.494 0 0 1-10.15-2.488"/>
        <path fill="#085EBD" d="M5.952 20.274l.21.92 11.976 5.71.699-.028c3.888-.726 7.749-1.609 11.57-2.646l6.117-2.801s.286 2.583-.016 2.79c-.303.209-10.237 4.628-17.954 5.44 0 0-11.377-1.95-12.57-3.25l-.032-6.135z"/>
        <path fill="#000" d="M17.506 18.654c1.837 1.229 3.893 2.068 5.933 2.898l5.517 2.246"/>
        <path fill="#000" d="M17.355 18.917c1.688 1.113 3.534 1.917 5.392 2.679 2.042.837 4.087 1.664 6.13 2.495.357.146.512-.444.159-.587-1.976-.804-3.952-1.606-5.926-2.412-1.88-.769-3.747-1.576-5.453-2.702-.324-.213-.623.314-.302.527M21.626 19.455l2.383-1.073s-1.405-.765-1.72-.568c-.99.619-.663 1.641-.663 1.641"/>
        <path fill="#085EBD" d="M18.071 17.947c-.322-.315-.09-1.842.206-2.183.296-.34 4.337-.998 5.314-.987.796.01 10.093 3.928 10.77 4.522a3.718 3.718 0 0 1 1.237 2.878c-.008.256-.048.522-.19.733-.146.214-.38.345-.608.462-.804.411-1.647.743-2.514.988-.267.075-.546.143-.819.093-.25-.046-.472-.187-.687-.325-.874-.561-1.721-.753-1.737-1.807-.008-.494-.077-1.57-.276-1.692-1.54-.948-6.146-2.941-6.478-2.815-.333.126-.856 1.336-.63 1.616-1.327.11-2.485-.634-3.588-1.483"/>
        <path fill="#4BB4E6" d="M19.006 15.994c2.621.783 5.271 1.563 7.75 2.75 2.017.964 4.332 2.329 5.076 4.622.12.37.696.211.575-.163-.762-2.35-2.974-3.81-5.048-4.839-2.61-1.296-5.417-2.128-8.194-2.957-.37-.11-.527.477-.159.587M31.802 20.625c.713-.276 1.41-.594 2.087-.953"/>
        <path fill="#4BB4E6" d="M31.881 20.919a21.449 21.449 0 0 0 2.159-.984c.341-.18.04-.705-.301-.526-.657.345-1.327.652-2.016.922-.355.139-.201.728.158.588"/>
        <path fill="#000" d="M8.878 21.015s7.07 4.601 9.338 4.815c0 0 6.116-1.829 6.504-2.164.388-.335-9.309-4.602-9.577-4.632-.269-.031-6.534 1.737-6.265 1.98"/>
        <path fill="#B5E8F7" d="M18.007 21.968a91.138 91.138 0 0 0 1.621-.391l-1.942-.965a158.034 158.034 0 0 1-1.744.368c.695.315 1.383.645 2.065.988M15.335 21.107a26.224 26.224 0 0 0-1.893.468l2.134.928c.626-.13 1.25-.265 1.874-.407a55.255 55.255 0 0 0-2.115-.99M12.883 21.727c-.551.146-1.104.282-1.667.379.539.296 1.13.603 1.739.905.669-.121 1.336-.25 2.002-.383l-2.074-.901M15.54 22.882c-.677.139-1.355.271-2.034.397.813.39 1.638.76 2.392 1.066a25.643 25.643 0 0 1 1.56-.626c-.64-.28-1.278-.56-1.918-.837M19.857 22.943a55.631 55.631 0 0 1 1.634-.44l-1.362-.677c-.538.138-1.079.27-1.62.399.453.233.902.472 1.348.718M17.965 22.353c-.603.139-1.207.273-1.812.401.6.261 1.2.524 1.798.787.468-.162.94-.31 1.415-.453-.464-.251-.93-.497-1.401-.735M22.034 24.198c.717-.239 1.349-.466 1.652-.606l-1.695-.842c-.564.14-1.127.286-1.686.44.582.327 1.158.663 1.73 1.008M19.81 23.333c-.46.133-.919.271-1.373.422.693.307 1.386.614 2.078.926.344-.104.707-.218 1.063-.333a63.744 63.744 0 0 0-1.768-1.015M17.934 23.93c-.526.184-1.048.383-1.563.602 1.068.41 1.945.663 2.364.619.188-.02.66-.142 1.247-.312-.682-.306-1.365-.609-2.048-.91M15.202 20.652c.055.024.11.05.167.074.435-.092.87-.178 1.304-.27l.49-.104-1.09-.54c-.242-.121-.488-.242-.753-.29a1.658 1.658 0 0 0-.267-.024c-.568.145-1.135.292-1.7.445.616.249 1.263.454 1.849.709M12.789 20.098l-.292.082c-.44.126-.877.267-1.314.41l1.725.753c.33-.089.66-.181.992-.271.285-.078.572-.147.86-.213-.64-.257-1.332-.472-1.971-.76M10.665 20.756c-.378.121-.756.238-1.138.341.333.224.748.477 1.22.747a.152.152 0 0 1 .092-.045 15.023 15.023 0 0 0 1.504-.308c-.56-.244-1.12-.489-1.678-.735"/>
        <path fill="#FFF" d="M6.841 15.396a2.775 2.775 0 0 0-2.039 1.278c-.213.332.308.64.52.31a2.124 2.124 0 0 1 1.52-.973c.379-.047.384-.662 0-.615M3.55 16.144c.47-.922 1.252-1.58 2.232-1.86.373-.108.214-.701-.16-.594a4.186 4.186 0 0 0-2.591 2.144c-.179.35.34.662.52.31M18.168 10.72c.814-.242 1.693-.42 2.542-.32.756.09 1.499.476 2.207.744.364.138.521-.457.16-.593-.789-.299-1.605-.718-2.454-.78-.875-.066-1.779.107-2.615.357-.371.11-.213.704.16.593M17.422 7.867c1.182-.848 2.571-.482 3.856-.111.374.108.533-.485.16-.593-1.437-.415-3.006-.77-4.32.173-.315.226-.014.76.304.53M31.77 14.093a9.263 9.263 0 0 1 2.542 2.213c.246.306.67-.131.426-.435a9.717 9.717 0 0 0-2.663-2.31c-.336-.198-.64.334-.304.532M33.871 12.086c.51.233.9.611 1.15 1.124.171.354.69.043.52-.31a2.839 2.839 0 0 0-1.366-1.345c-.351-.16-.658.37-.304.53"/>
    </g>
</svg>
