<svg xmlns="http://www.w3.org/2000/svg" xmlns:xlink="http://www.w3.org/1999/xlink" width="70" height="103" viewBox="0 0 70 103">
    <defs>
        <path id="a" d="M77.002 51a25.778 25.778 0 0 0-12.141-11.745c-9.644 8.103-23.814 8.103-33.458 0-9.052 4.206-14.83 13.198-14.828 23.078V85c0 6.26 5.138 11.333 11.475 11.333h24.671V56.667c0-3.13 2.569-5.667 5.738-5.667h18.543zm-28.87-11.333c11.09 0 20.08-8.88 20.08-19.834C68.213 8.88 59.223 0 48.133 0 37.04 0 28.05 8.88 28.05 19.833c0 10.954 8.99 19.834 20.081 19.834zm34.424 14.166H58.46c-1.585 0-2.869 1.269-2.869 2.834v42.5c0 1.564 1.284 2.833 2.869 2.833h24.097c1.585 0 2.869-1.269 2.869-2.833v-42.5c0-1.565-1.284-2.834-2.869-2.834zm-12.049 45.9c-1.267 0-2.294-1.014-2.294-2.266S69.24 95.2 70.507 95.2c1.268 0 2.295 1.015 2.295 2.267s-1.027 2.266-2.295 2.266zm10.328-6.8H60.18v-34h20.655v34z"/>
    </defs>
    <g fill="none" fill-rule="evenodd" transform="translate(-16 .5)">
        <mask id="b" fill="#fff">
            <use xlink:href="#a"/>
        </mask>
        <g fill="#000" mask="url(#b)">
            <path d="M0 0h102v102H0z"/>
        </g>
    </g>
</svg>
