<svg xmlns="http://www.w3.org/2000/svg" xmlns:xlink="http://www.w3.org/1999/xlink" width="102" height="90" viewBox="0 0 102 90">
    <defs>
        <path id="a" d="M0 .272h36.32v48.84H0z"/>
        <path id="c" d="M.86.165h22.008V35.7H.86z"/>
    </defs>
    <g fill="none" fill-rule="evenodd">
        <g transform="translate(0 38.307)">
            <mask id="b" fill="#fff">
                <use xlink:href="#a"/>
            </mask>
            <path fill="#000" d="M0 21.899v27.213h31.533V21.9a27.702 27.702 0 0 1 4.506-15.186c.09-.137.186-.272.28-.41A27.54 27.54 0 0 1 13.844.273C5.41 4.132-.003 12.588 0 21.898" mask="url(#b)"/>
        </g>
        <path fill="#000" d="M46.857 32.398a23.89 23.89 0 0 1 0-24.899C41.087.331 31.152-1.887 22.9 2.152c-8.25 4.037-12.635 13.263-10.572 22.246 2.063 8.986 10.026 15.349 19.206 15.349a19.631 19.631 0 0 0 15.323-7.35M86.717 19.949C86.717 9.015 77.892.151 67.008.151 56.125.15 47.3 9.015 47.3 19.949c0 10.934 8.826 19.798 19.71 19.798 10.883 0 19.708-8.864 19.708-19.798"/>
        <g transform="translate(79.05 53.607)">
            <mask id="d" fill="#fff">
                <use xlink:href="#c"/>
            </mask>
            <path fill="#000" d="M4.245 3.929h15.24V29.01H4.244V3.93zm5.927 28.425c0-.923.757-1.67 1.693-1.67.933 0 1.69.747 1.69 1.67 0 .926-.757 1.675-1.69 1.675-.936 0-1.693-.75-1.693-1.675zM.859 2.256V33.611c0 1.153.949 2.088 2.117 2.088h17.778c1.168 0 2.117-.935 2.117-2.088V2.256c0-1.152-.949-2.09-2.117-2.09H2.976c-1.168 0-2.117.938-2.117 2.09z" mask="url(#d)"/>
        </g>
        <path fill="#000" d="M49.32 38.738a27.498 27.498 0 0 0 35.379 0c5.75 2.634 10.044 7.428 12.224 13.147H80.341c-1.168 0-2.117.936-2.117 2.091V87.42H35.476V60.363c-.002-9.31 5.409-17.764 13.844-21.624"/>
    </g>
</svg>
