<svg xmlns="http://www.w3.org/2000/svg" xmlns:xlink="http://www.w3.org/1999/xlink" width="80" height="80" viewBox="0 0 80 80">
    <defs>
        <path id="a" d="M36.96.245C16.566.245.03 16.78.03 37.175s16.535 36.93 36.93 36.93c20.397 0 36.93-16.534 36.93-36.93"/>
        <path id="c" d="M36.96.245C16.566.245.03 16.78.03 37.175s16.535 36.93 36.93 36.93c20.397 0 36.93-16.534 36.93-36.93"/>
        <path id="e" d="M36.96.245C16.566.245.03 16.78.03 37.175s16.535 36.93 36.93 36.93c20.397 0 36.93-16.534 36.93-36.93"/>
        <path id="g" d="M36.96.245C16.566.245.03 16.78.03 37.175s16.535 36.93 36.93 36.93c20.397 0 36.93-16.534 36.93-36.93"/>
        <path id="i" d="M36.96.245C16.566.245.03 16.78.03 37.175s16.535 36.93 36.93 36.93c20.397 0 36.93-16.534 36.93-36.93"/>
        <path id="k" d="M36.96.245C16.566.245.03 16.78.03 37.175s16.535 36.93 36.93 36.93c20.397 0 36.93-16.534 36.93-36.93"/>
        <path id="m" d="M36.96.245C16.566.245.03 16.78.03 37.175s16.535 36.93 36.93 36.93c20.397 0 36.93-16.534 36.93-36.93"/>
        <path id="o" d="M36.96.245C16.566.245.03 16.78.03 37.175s16.535 36.93 36.93 36.93c20.397 0 36.93-16.534 36.93-36.93"/>
        <path id="q" d="M36.96.245C16.566.245.03 16.78.03 37.175s16.535 36.93 36.93 36.93c20.397 0 36.93-16.534 36.93-36.93"/>
        <path id="s" d="M36.96.245C16.566.245.03 16.78.03 37.175s16.535 36.93 36.93 36.93c20.397 0 36.93-16.534 36.93-36.93"/>
        <path id="u" d="M36.96.245C16.566.245.03 16.78.03 37.175s16.535 36.93 36.93 36.93c20.397 0 36.93-16.534 36.93-36.93"/>
        <path id="w" d="M36.96.245C16.566.245.03 16.78.03 37.175s16.535 36.93 36.93 36.93c20.397 0 36.93-16.534 36.93-36.93"/>
        <path id="y" d="M36.96.245C16.566.245.03 16.78.03 37.175s16.535 36.93 36.93 36.93c20.397 0 36.93-16.534 36.93-36.93S57.358.245 36.96.245z"/>
        <path id="A" d="M36.96.245C16.566.245.03 16.78.03 37.175s16.535 36.93 36.93 36.93c20.397 0 36.93-16.534 36.93-36.93"/>
        <path id="C" d="M36.96.245C16.566.245.03 16.78.03 37.175s16.535 36.93 36.93 36.93c20.397 0 36.93-16.534 36.93-36.93S57.358.245 36.96.245z"/>
        <path id="E" d="M36.96.245C16.566.245.03 16.78.03 37.175s16.535 36.93 36.93 36.93c20.397 0 36.93-16.534 36.93-36.93"/>
        <path id="G" d="M36.96.245C16.566.245.03 16.78.03 37.175s16.535 36.93 36.93 36.93c20.397 0 36.93-16.534 36.93-36.93"/>
        <path id="I" d="M36.96.245C16.566.245.03 16.78.03 37.175s16.535 36.93 36.93 36.93c20.397 0 36.93-16.534 36.93-36.93"/>
        <path id="K" d="M36.96.245C16.566.245.03 16.78.03 37.175s16.535 36.93 36.93 36.93c20.397 0 36.93-16.534 36.93-36.93"/>
        <path id="M" d="M36.96.245C16.566.245.03 16.78.03 37.175s16.535 36.93 36.93 36.93c20.397 0 36.93-16.534 36.93-36.93"/>
        <path id="O" d="M36.96.245C16.566.245.03 16.78.03 37.175s16.535 36.93 36.93 36.93c20.397 0 36.93-16.534 36.93-36.93"/>
        <path id="Q" d="M36.96.245C16.566.245.03 16.78.03 37.175s16.535 36.93 36.93 36.93c20.397 0 36.93-16.534 36.93-36.93S57.358.245 36.96.245z"/>
        <path id="R" d="M36.96.245C16.566.245.03 16.78.03 37.175s16.535 36.93 36.93 36.93c20.397 0 36.93-16.534 36.93-36.93"/>
        <path id="T" d="M36.96.245C16.566.245.03 16.78.03 37.175s16.535 36.93 36.93 36.93c20.397 0 36.93-16.534 36.93-36.93"/>
        <path id="V" d="M36.96.245C16.566.245.03 16.78.03 37.175s16.535 36.93 36.93 36.93c20.397 0 36.93-16.534 36.93-36.93"/>
        <path id="X" d="M36.96.245C16.566.245.03 16.78.03 37.175s16.535 36.93 36.93 36.93c20.397 0 36.93-16.534 36.93-36.93"/>
        <path id="Z" d="M36.96.245C16.566.245.03 16.78.03 37.175s16.535 36.93 36.93 36.93c20.397 0 36.93-16.534 36.93-36.93"/>
        <path id="ab" d="M36.96.245C16.566.245.03 16.78.03 37.175s16.535 36.93 36.93 36.93c20.397 0 36.93-16.534 36.93-36.93"/>
        <path id="ad" d="M36.96.245C16.566.245.03 16.78.03 37.175s16.535 36.93 36.93 36.93c20.397 0 36.93-16.534 36.93-36.93"/>
        <path id="af" d="M36.96.245C16.566.245.03 16.78.03 37.175s16.535 36.93 36.93 36.93c20.397 0 36.93-16.534 36.93-36.93"/>
        <path id="ah" d="M36.96.245C16.566.245.03 16.78.03 37.175s16.535 36.93 36.93 36.93c20.397 0 36.93-16.534 36.93-36.93"/>
        <path id="aj" d="M36.96.245C16.566.245.03 16.78.03 37.175s16.535 36.93 36.93 36.93c20.397 0 36.93-16.534 36.93-36.93"/>
        <path id="al" d="M36.96.245C16.566.245.03 16.78.03 37.175s16.535 36.93 36.93 36.93c20.397 0 36.93-16.534 36.93-36.93"/>
        <path id="an" d="M36.96.245C16.566.245.03 16.78.03 37.175s16.535 36.93 36.93 36.93c20.397 0 36.93-16.534 36.93-36.93"/>
        <path id="ap" d="M36.96.245C16.566.245.03 16.78.03 37.175s16.535 36.93 36.93 36.93c20.397 0 36.93-16.534 36.93-36.93"/>
        <path id="ar" d="M36.96.245C16.566.245.03 16.78.03 37.175s16.535 36.93 36.93 36.93c20.397 0 36.93-16.534 36.93-36.93"/>
        <path id="at" d="M36.96.245C16.566.245.03 16.78.03 37.175s16.535 36.93 36.93 36.93c20.397 0 36.93-16.534 36.93-36.93"/>
        <path id="av" d="M36.96.245C16.566.245.03 16.78.03 37.175s16.535 36.93 36.93 36.93c20.397 0 36.93-16.534 36.93-36.93"/>
        <path id="ax" d="M36.96.245C16.566.245.03 16.78.03 37.175s16.535 36.93 36.93 36.93c20.397 0 36.93-16.534 36.93-36.93"/>
        <path id="az" d="M36.96.245C16.566.245.03 16.78.03 37.175s16.535 36.93 36.93 36.93c20.397 0 36.93-16.534 36.93-36.93"/>
        <path id="aB" d="M36.96.245C16.566.245.03 16.78.03 37.175s16.535 36.93 36.93 36.93c20.397 0 36.93-16.534 36.93-36.93"/>
        <path id="aD" d="M36.96.245C16.566.245.03 16.78.03 37.175s16.535 36.93 36.93 36.93c20.397 0 36.93-16.534 36.93-36.93"/>
        <path id="aF" d="M36.96.245C16.566.245.03 16.78.03 37.175s16.535 36.93 36.93 36.93c20.397 0 36.93-16.534 36.93-36.93"/>
        <path id="aH" d="M36.96.245C16.566.245.03 16.78.03 37.175s16.535 36.93 36.93 36.93c20.397 0 36.93-16.534 36.93-36.93"/>
        <path id="aJ" d="M36.96.245C16.566.245.03 16.78.03 37.175s16.535 36.93 36.93 36.93c20.397 0 36.93-16.534 36.93-36.93"/>
        <path id="aL" d="M36.96.245C16.566.245.03 16.78.03 37.175s16.535 36.93 36.93 36.93c20.397 0 36.93-16.534 36.93-36.93S57.358.245 36.96.245z"/>
        <path id="aM" d="M36.96.245C16.566.245.03 16.78.03 37.175s16.535 36.93 36.93 36.93c20.397 0 36.93-16.534 36.93-36.93S57.358.245 36.96.245z"/>
        <path id="aN" d="M36.96.245C16.566.245.03 16.78.03 37.175s16.535 36.93 36.93 36.93c20.397 0 36.93-16.534 36.93-36.93"/>
        <path id="aP" d="M36.96.245C16.566.245.03 16.78.03 37.175s16.535 36.93 36.93 36.93c20.397 0 36.93-16.534 36.93-36.93"/>
        <path id="aR" d="M36.96.245C16.566.245.03 16.78.03 37.175s16.535 36.93 36.93 36.93c20.397 0 36.93-16.534 36.93-36.93"/>
        <path id="aT" d="M36.96.245C16.566.245.03 16.78.03 37.175s16.535 36.93 36.93 36.93c20.397 0 36.93-16.534 36.93-36.93"/>
        <path id="aV" d="M36.96.245C16.566.245.03 16.78.03 37.175s16.535 36.93 36.93 36.93c20.397 0 36.93-16.534 36.93-36.93"/>
        <path id="aX" d="M36.96.245C16.566.245.03 16.78.03 37.175s16.535 36.93 36.93 36.93c20.397 0 36.93-16.534 36.93-36.93"/>
        <path id="aZ" d="M36.96.245C16.566.245.03 16.78.03 37.175s16.535 36.93 36.93 36.93c20.397 0 36.93-16.534 36.93-36.93"/>
        <path id="bb" d="M36.96.245C16.566.245.03 16.78.03 37.175s16.535 36.93 36.93 36.93c20.397 0 36.93-16.534 36.93-36.93"/>
        <path id="bd" d="M36.96.245C16.566.245.03 16.78.03 37.175s16.535 36.93 36.93 36.93c20.397 0 36.93-16.534 36.93-36.93S57.358.245 36.96.245z"/>
        <path id="bf" d="M36.96.245C16.566.245.03 16.78.03 37.175s16.535 36.93 36.93 36.93c20.397 0 36.93-16.534 36.93-36.93"/>
        <path id="bh" d="M36.96.245C16.566.245.03 16.78.03 37.175s16.535 36.93 36.93 36.93c20.397 0 36.93-16.534 36.93-36.93"/>
        <path id="bj" d="M36.96.245C16.566.245.03 16.78.03 37.175s16.535 36.93 36.93 36.93c20.397 0 36.93-16.534 36.93-36.93"/>
        <path id="bl" d="M36.96.245C16.566.245.03 16.78.03 37.175s16.535 36.93 36.93 36.93c20.397 0 36.93-16.534 36.93-36.93"/>
        <path id="bn" d="M36.96.245C16.566.245.03 16.78.03 37.175s16.535 36.93 36.93 36.93c20.397 0 36.93-16.534 36.93-36.93"/>
        <path id="bp" d="M36.96.245C16.566.245.03 16.78.03 37.175s16.535 36.93 36.93 36.93c20.397 0 36.93-16.534 36.93-36.93"/>
        <path id="br" d="M36.96.245C16.566.245.03 16.78.03 37.175s16.535 36.93 36.93 36.93c20.397 0 36.93-16.534 36.93-36.93"/>
        <path id="bt" d="M36.96.245C16.566.245.03 16.78.03 37.175s16.535 36.93 36.93 36.93c20.397 0 36.93-16.534 36.93-36.93"/>
        <path id="bv" d="M36.96.245C16.566.245.03 16.78.03 37.175s16.535 36.93 36.93 36.93c20.397 0 36.93-16.534 36.93-36.93"/>
        <path id="bx" d="M36.96.245C16.566.245.03 16.78.03 37.175s16.535 36.93 36.93 36.93c20.397 0 36.93-16.534 36.93-36.93"/>
        <path id="bz" d="M36.96.245C16.566.245.03 16.78.03 37.175s16.535 36.93 36.93 36.93c20.397 0 36.93-16.534 36.93-36.93"/>
        <path id="bB" d="M36.96.245C16.566.245.03 16.78.03 37.175s16.535 36.93 36.93 36.93c20.397 0 36.93-16.534 36.93-36.93"/>
        <path id="bD" d="M36.96.245C16.566.245.03 16.78.03 37.175s16.535 36.93 36.93 36.93c20.397 0 36.93-16.534 36.93-36.93"/>
        <path id="bF" d="M36.96.245C16.566.245.03 16.78.03 37.175s16.535 36.93 36.93 36.93c20.397 0 36.93-16.534 36.93-36.93"/>
        <path id="bH" d="M36.96.245C16.566.245.03 16.78.03 37.175s16.535 36.93 36.93 36.93c20.397 0 36.93-16.534 36.93-36.93"/>
        <path id="bJ" d="M36.96.245C16.566.245.03 16.78.03 37.175s16.535 36.93 36.93 36.93c20.397 0 36.93-16.534 36.93-36.93"/>
        <path id="bL" d="M36.96.245C16.566.245.03 16.78.03 37.175s16.535 36.93 36.93 36.93c20.397 0 36.93-16.534 36.93-36.93"/>
        <path id="bN" d="M36.96.245C16.566.245.03 16.78.03 37.175s16.535 36.93 36.93 36.93c20.397 0 36.93-16.534 36.93-36.93"/>
        <path id="bP" d="M36.96.245C16.566.245.03 16.78.03 37.175s16.535 36.93 36.93 36.93c20.397 0 36.93-16.534 36.93-36.93"/>
        <path id="bR" d="M36.96.245C16.566.245.03 16.78.03 37.175s16.535 36.93 36.93 36.93c20.397 0 36.93-16.534 36.93-36.93S57.358.245 36.96.245z"/>
        <path id="bT" d="M36.96.245C16.566.245.03 16.78.03 37.175s16.535 36.93 36.93 36.93c20.397 0 36.93-16.534 36.93-36.93"/>
        <path id="bV" d="M36.96.245C16.566.245.03 16.78.03 37.175s16.535 36.93 36.93 36.93c20.397 0 36.93-16.534 36.93-36.93"/>
        <path id="bX" d="M36.96.245C16.566.245.03 16.78.03 37.175s16.535 36.93 36.93 36.93c20.397 0 36.93-16.534 36.93-36.93"/>
        <path id="bZ" d="M36.96.245C16.566.245.03 16.78.03 37.175s16.535 36.93 36.93 36.93c20.397 0 36.93-16.534 36.93-36.93"/>
        <path id="cb" d="M36.96.245C16.566.245.03 16.78.03 37.175s16.535 36.93 36.93 36.93c20.397 0 36.93-16.534 36.93-36.93"/>
        <path id="cd" d="M36.96.245C16.566.245.03 16.78.03 37.175s16.535 36.93 36.93 36.93c20.397 0 36.93-16.534 36.93-36.93"/>
        <path id="cf" d="M36.96.245C16.566.245.03 16.78.03 37.175s16.535 36.93 36.93 36.93c20.397 0 36.93-16.534 36.93-36.93"/>
        <path id="ch" d="M36.96.245C16.566.245.03 16.78.03 37.175s16.535 36.93 36.93 36.93c20.397 0 36.93-16.534 36.93-36.93"/>
        <path id="cj" d="M36.96.245C16.566.245.03 16.78.03 37.175s16.535 36.93 36.93 36.93c20.397 0 36.93-16.534 36.93-36.93"/>
        <path id="cl" d="M36.96.245C16.566.245.03 16.78.03 37.175s16.535 36.93 36.93 36.93c20.397 0 36.93-16.534 36.93-36.93"/>
        <path id="cn" d="M36.96.245C16.566.245.03 16.78.03 37.175s16.535 36.93 36.93 36.93c20.397 0 36.93-16.534 36.93-36.93"/>
        <path id="cp" d="M36.96.245C16.566.245.03 16.78.03 37.175s16.535 36.93 36.93 36.93c20.397 0 36.93-16.534 36.93-36.93"/>
        <path id="cr" d="M36.96.245C16.566.245.03 16.78.03 37.175s16.535 36.93 36.93 36.93c20.397 0 36.93-16.534 36.93-36.93"/>
        <path id="ct" d="M36.96.245C16.566.245.03 16.78.03 37.175s16.535 36.93 36.93 36.93c20.397 0 36.93-16.534 36.93-36.93"/>
        <path id="cv" d="M36.96.245C16.566.245.03 16.78.03 37.175s16.535 36.93 36.93 36.93c20.397 0 36.93-16.534 36.93-36.93"/>
        <path id="cx" d="M36.96.245C16.566.245.03 16.78.03 37.175s16.535 36.93 36.93 36.93c20.397 0 36.93-16.534 36.93-36.93"/>
        <path id="cz" d="M36.96.245C16.566.245.03 16.78.03 37.175s16.535 36.93 36.93 36.93c20.397 0 36.93-16.534 36.93-36.93"/>
        <path id="cB" d="M36.96.245C16.566.245.03 16.78.03 37.175s16.535 36.93 36.93 36.93c20.397 0 36.93-16.534 36.93-36.93"/>
        <path id="cD" d="M36.96.245C16.566.245.03 16.78.03 37.175s16.535 36.93 36.93 36.93c20.397 0 36.93-16.534 36.93-36.93"/>
        <path id="cF" d="M36.96.245C16.566.245.03 16.78.03 37.175s16.535 36.93 36.93 36.93c20.397 0 36.93-16.534 36.93-36.93"/>
        <path id="cH" d="M36.96.245C16.566.245.03 16.78.03 37.175s16.535 36.93 36.93 36.93c20.397 0 36.93-16.534 36.93-36.93"/>
        <path id="cJ" d="M36.96.245C16.566.245.03 16.78.03 37.175s16.535 36.93 36.93 36.93c20.397 0 36.93-16.534 36.93-36.93"/>
        <path id="cL" d="M36.96.245C16.566.245.03 16.78.03 37.175s16.535 36.93 36.93 36.93c20.397 0 36.93-16.534 36.93-36.93"/>
        <path id="cN" d="M36.96.245C16.566.245.03 16.78.03 37.175s16.535 36.93 36.93 36.93c20.397 0 36.93-16.534 36.93-36.93"/>
        <path id="cP" d="M36.96.245C16.566.245.03 16.78.03 37.175s16.535 36.93 36.93 36.93c20.397 0 36.93-16.534 36.93-36.93"/>
        <path id="cR" d="M36.96.245C16.566.245.03 16.78.03 37.175s16.535 36.93 36.93 36.93c20.397 0 36.93-16.534 36.93-36.93"/>
        <path id="cT" d="M36.96.245C16.566.245.03 16.78.03 37.175s16.535 36.93 36.93 36.93c20.397 0 36.93-16.534 36.93-36.93S57.358.245 36.96.245z"/>
        <path id="cV" d="M36.96.245C16.566.245.03 16.78.03 37.175s16.535 36.93 36.93 36.93c20.397 0 36.93-16.534 36.93-36.93"/>
        <path id="cX" d="M36.96.245C16.566.245.03 16.78.03 37.175s16.535 36.93 36.93 36.93c20.397 0 36.93-16.534 36.93-36.93"/>
        <path id="cZ" d="M36.96.245C16.566.245.03 16.78.03 37.175s16.535 36.93 36.93 36.93c20.397 0 36.93-16.534 36.93-36.93"/>
        <path id="db" d="M36.96.245C16.566.245.03 16.78.03 37.175s16.535 36.93 36.93 36.93c20.397 0 36.93-16.534 36.93-36.93"/>
        <path id="dd" d="M36.96.245C16.566.245.03 16.78.03 37.175s16.535 36.93 36.93 36.93c20.397 0 36.93-16.534 36.93-36.93"/>
        <path id="df" d="M36.96.245C16.566.245.03 16.78.03 37.175s16.535 36.93 36.93 36.93c20.397 0 36.93-16.534 36.93-36.93"/>
        <path id="dh" d="M36.96.245C16.566.245.03 16.78.03 37.175s16.535 36.93 36.93 36.93c20.397 0 36.93-16.534 36.93-36.93"/>
        <path id="dj" d="M36.96.245C16.566.245.03 16.78.03 37.175s16.535 36.93 36.93 36.93c20.397 0 36.93-16.534 36.93-36.93"/>
        <path id="dl" d="M36.96.245C16.566.245.03 16.78.03 37.175s16.535 36.93 36.93 36.93c20.397 0 36.93-16.534 36.93-36.93"/>
        <path id="dn" d="M36.96.245C16.566.245.03 16.78.03 37.175s16.535 36.93 36.93 36.93c20.397 0 36.93-16.534 36.93-36.93"/>
        <path id="dp" d="M36.96.245C16.566.245.03 16.78.03 37.175s16.535 36.93 36.93 36.93c20.397 0 36.93-16.534 36.93-36.93"/>
        <path id="dr" d="M36.96.245C16.566.245.03 16.78.03 37.175s16.535 36.93 36.93 36.93c20.397 0 36.93-16.534 36.93-36.93"/>
        <path id="dt" d="M36.96.245C16.566.245.03 16.78.03 37.175s16.535 36.93 36.93 36.93c20.397 0 36.93-16.534 36.93-36.93"/>
        <path id="dv" d="M36.96.245C16.566.245.03 16.78.03 37.175s16.535 36.93 36.93 36.93c20.397 0 36.93-16.534 36.93-36.93"/>
        <path id="dx" d="M36.96.245C16.566.245.03 16.78.03 37.175s16.535 36.93 36.93 36.93c20.397 0 36.93-16.534 36.93-36.93"/>
        <path id="dz" d="M36.96.245C16.566.245.03 16.78.03 37.175s16.535 36.93 36.93 36.93c20.397 0 36.93-16.534 36.93-36.93"/>
        <path id="dB" d="M36.96.245C16.566.245.03 16.78.03 37.175s16.535 36.93 36.93 36.93c20.397 0 36.93-16.534 36.93-36.93"/>
        <path id="dD" d="M36.96.245C16.566.245.03 16.78.03 37.175s16.535 36.93 36.93 36.93c20.397 0 36.93-16.534 36.93-36.93"/>
        <path id="dF" d="M36.96.245C16.566.245.03 16.78.03 37.175s16.535 36.93 36.93 36.93c20.397 0 36.93-16.534 36.93-36.93"/>
        <path id="dH" d="M36.96.245C16.566.245.03 16.78.03 37.175s16.535 36.93 36.93 36.93c20.397 0 36.93-16.534 36.93-36.93"/>
        <path id="dJ" d="M36.96.245C16.566.245.03 16.78.03 37.175s16.535 36.93 36.93 36.93c20.397 0 36.93-16.534 36.93-36.93"/>
        <path id="dL" d="M36.96.245C16.566.245.03 16.78.03 37.175s16.535 36.93 36.93 36.93c20.397 0 36.93-16.534 36.93-36.93"/>
        <path id="dN" d="M36.96.245C16.566.245.03 16.78.03 37.175s16.535 36.93 36.93 36.93c20.397 0 36.93-16.534 36.93-36.93"/>
        <path id="dP" d="M36.96.245C16.566.245.03 16.78.03 37.175s16.535 36.93 36.93 36.93c20.397 0 36.93-16.534 36.93-36.93"/>
        <path id="dR" d="M36.96.245C16.566.245.03 16.78.03 37.175s16.535 36.93 36.93 36.93c20.397 0 36.93-16.534 36.93-36.93"/>
        <path id="dT" d="M36.96.245C16.566.245.03 16.78.03 37.175s16.535 36.93 36.93 36.93c20.397 0 36.93-16.534 36.93-36.93"/>
        <path id="dV" d="M36.96.245C16.566.245.03 16.78.03 37.175s16.535 36.93 36.93 36.93c20.397 0 36.93-16.534 36.93-36.93"/>
        <path id="dX" d="M36.96.245C16.566.245.03 16.78.03 37.175s16.535 36.93 36.93 36.93c20.397 0 36.93-16.534 36.93-36.93"/>
        <path id="dZ" d="M36.96.245C16.566.245.03 16.78.03 37.175s16.535 36.93 36.93 36.93c20.397 0 36.93-16.534 36.93-36.93"/>
        <path id="eb" d="M36.96.245C16.566.245.03 16.78.03 37.175s16.535 36.93 36.93 36.93c20.397 0 36.93-16.534 36.93-36.93"/>
        <path id="ed" d="M36.96.245C16.566.245.03 16.78.03 37.175s16.535 36.93 36.93 36.93c20.397 0 36.93-16.534 36.93-36.93"/>
        <path id="ef" d="M36.96.245C16.566.245.03 16.78.03 37.175s16.535 36.93 36.93 36.93c20.397 0 36.93-16.534 36.93-36.93S57.358.245 36.96.245z"/>
        <path id="eg" d="M36.96.245C16.566.245.03 16.78.03 37.175s16.535 36.93 36.93 36.93c20.397 0 36.93-16.534 36.93-36.93"/>
        <path id="ei" d="M36.96.245C16.566.245.03 16.78.03 37.175s16.535 36.93 36.93 36.93c20.397 0 36.93-16.534 36.93-36.93"/>
        <path id="ek" d="M36.96.245C16.566.245.03 16.78.03 37.175s16.535 36.93 36.93 36.93c20.397 0 36.93-16.534 36.93-36.93"/>
        <path id="em" d="M36.96.245C16.566.245.03 16.78.03 37.175s16.535 36.93 36.93 36.93c20.397 0 36.93-16.534 36.93-36.93"/>
        <path id="eo" d="M36.96.245C16.566.245.03 16.78.03 37.175s16.535 36.93 36.93 36.93c20.397 0 36.93-16.534 36.93-36.93"/>
        <path id="eq" d="M36.96.245C16.566.245.03 16.78.03 37.175s16.535 36.93 36.93 36.93c20.397 0 36.93-16.534 36.93-36.93"/>
        <path id="es" d="M36.96.245C16.566.245.03 16.78.03 37.175s16.535 36.93 36.93 36.93c20.397 0 36.93-16.534 36.93-36.93"/>
        <path id="eu" d="M36.96.245C16.566.245.03 16.78.03 37.175s16.535 36.93 36.93 36.93c20.397 0 36.93-16.534 36.93-36.93"/>
        <path id="ew" d="M36.96.245C16.566.245.03 16.78.03 37.175s16.535 36.93 36.93 36.93c20.397 0 36.93-16.534 36.93-36.93"/>
        <path id="ey" d="M36.96.245C16.566.245.03 16.78.03 37.175s16.535 36.93 36.93 36.93c20.397 0 36.93-16.534 36.93-36.93"/>
        <path id="eA" d="M36.96.245C16.566.245.03 16.78.03 37.175s16.535 36.93 36.93 36.93c20.397 0 36.93-16.534 36.93-36.93"/>
        <path id="eC" d="M36.96.245C16.566.245.03 16.78.03 37.175s16.535 36.93 36.93 36.93c20.397 0 36.93-16.534 36.93-36.93"/>
        <path id="eE" d="M36.96.245C16.566.245.03 16.78.03 37.175s16.535 36.93 36.93 36.93c20.397 0 36.93-16.534 36.93-36.93"/>
        <path id="eG" d="M36.96.245C16.566.245.03 16.78.03 37.175s16.535 36.93 36.93 36.93c20.397 0 36.93-16.534 36.93-36.93"/>
        <path id="eI" d="M36.96.245C16.566.245.03 16.78.03 37.175s16.535 36.93 36.93 36.93c20.397 0 36.93-16.534 36.93-36.93"/>
        <path id="eK" d="M36.96.245C16.566.245.03 16.78.03 37.175s16.535 36.93 36.93 36.93c20.397 0 36.93-16.534 36.93-36.93"/>
        <path id="eM" d="M36.96.245C16.566.245.03 16.78.03 37.175s16.535 36.93 36.93 36.93c20.397 0 36.93-16.534 36.93-36.93"/>
        <path id="eO" d="M36.96.245C16.566.245.03 16.78.03 37.175s16.535 36.93 36.93 36.93c20.397 0 36.93-16.534 36.93-36.93"/>
        <path id="eQ" d="M36.96.245C16.566.245.03 16.78.03 37.175s16.535 36.93 36.93 36.93c20.397 0 36.93-16.534 36.93-36.93"/>
    </defs>
    <g fill="none" fill-rule="evenodd">
        <path fill="#FFF6B6" d="M16.357 23.13c-5.697.83-11.088 3.574-15.134 7.673-.39.39-.789.856-.868 1.417-.211 1.567 1.927 2.174 3.5 2.205 2.67.022 5.31.055 7.968.046-.395 3.303-3.783 5.21-6.618 6.882C2.37 43.023-.719 45.852.15 49.015c.599 2.231 2.999 3.559 5.304 3.749 2.306.19 4.566-.526 6.832-1.031 2.254-.537 4.693-.856 6.817.004A48.898 48.898 0 0 0 9.228 68.11c-.48 1.31-.905 2.779-.488 4.118.636 2.04 2.922 3.054 5.022 3.461 4.498.848 9.16.003 13.617-1.015a151.56 151.56 0 0 0 34.085-12.37c3.747-1.897 7.488-4.004 10.391-7.049.565-.596 1.114-1.328 1.04-2.118-.129-1.621-2.375-1.94-4.016-1.768A30.285 30.285 0 0 0 79.3 39.233c.34-.727.653-1.622.253-2.328-.299-.53-.917-.767-1.47-.92-5.25-1.355-10.385 2.679-15.783 2.869-.77.031-1.835-.362-1.644-1.106.085-.35.47-.561.823-.76 5.976-2.992 11.147-7.608 14.824-13.206 1.439-2.192 2.715-4.929 1.782-7.394-.764-2.1-2.996-3.453-5.23-3.74-2.235-.287-4.477.28-6.62 1.025.649-1.727 2.384-2.714 3.7-3.974 1.305-1.292 2.182-3.563.871-4.825-.716-.698-1.784-.806-2.756-.843-13.902-.549-26.885 6.306-39.092 12.95.798-.538 1.256-1.522 1.125-2.468-5.99.512-11.844 2.571-16.816 5.978-.621.44-1.262.921-1.422 1.654-.159.732.52 1.621 1.21 1.37"/>
        <g transform="translate(2.647 3.049)">
            <mask id="b" fill="#fff">
                <use xlink:href="#a"/>
            </mask>
            <path fill="#D6D6D6" d="M67.032 38.854c-.316 0-.527.212-.527.528v.528c-.106.21-.106.527.105.738.211.106.528.106.74-.105.21-.317.21-.633.21-1.056 0-.316-.316-.633-.528-.633" mask="url(#b)"/>
        </g>
        <g transform="translate(2.647 3.049)">
            <mask id="d" fill="#fff">
                <use xlink:href="#c"/>
            </mask>
            <path fill="#8F8F8F" d="M31.263 70.087c.633-4.115 1.055-8.23 1.583-12.346.317-2.004 0-8.019 1.9-9.285.949-.633 3.27.633 4.325.844 2.005.422 3.693.739 5.487 1.9 1.055.738 2.849.738 3.587 1.899 1.794 2.638-.844 7.703-1.899 10.551-1.899 4.854-4.115 9.708-6.12 14.456-.844 2.004-1.371 3.904-3.693 4.326-1.793.316-4.959-.106-5.803-1.689-.527-.949-.21-2.532-.105-3.587.105-2.427.422-4.748.738-7.07" mask="url(#d)"/>
        </g>
        <g transform="translate(2.647 3.049)">
            <mask id="f" fill="#fff">
                <use xlink:href="#e"/>
            </mask>
            <path fill="#FFF" d="M36.539 72.408c.105-.317.527-.211.422.105-.106.528-.211 1.161-.422 1.689-.106.316-.528.21-.422-.106.21-.527.316-1.055.422-1.688" mask="url(#f)"/>
        </g>
        <g transform="translate(2.647 3.049)">
            <mask id="h" fill="#fff">
                <use xlink:href="#g"/>
            </mask>
            <path fill="#8F8F8F" d="M44.663 74.835c3.377-1.583 5.487.95 6.859 4.959 2.532 7.702 2.321 21.103 2.321 24.268-.105 3.587-5.276 4.115-8.125 3.27-.105-.104-1.477-9.6-1.793-12.871-.317-2.85-.739-5.699-.95-8.653-.105-2.32-.844-5.275-.422-7.597.211-1.055 1.055-2.954 2.11-3.376" mask="url(#h)"/>
        </g>
        <g transform="translate(2.647 3.049)">
            <mask id="j" fill="#fff">
                <use xlink:href="#i"/>
            </mask>
            <path fill="#8F8F8F" d="M40.97 49.406c.423-.422 1.056-1.372 1.689-1.688.844-.422.633-.317 1.793-.106 1.267.211 2.11.317 3.377.211 2.11-.105 5.276.317 5.803 2.85.739 3.27-.527 7.807-.95 11.078-.633 4.432-1.582 8.758-2.32 13.19-.423 2.848-1.162 7.596-4.327 8.546-7.175 2.321-5.803-10.13-6.436-14.139-.95-5.698-1.794-12.45-1.16-18.254 0 .211 2.32-1.477 2.532-1.688" mask="url(#j)"/>
        </g>
        <g transform="translate(2.647 3.049)">
            <mask id="l" fill="#fff">
                <use xlink:href="#k"/>
            </mask>
            <path fill="#FFF" d="M46.88 66.605c.105-.211.527 0 .421.21-.105.212-.105.528-.316.845-.106.211-.528 0-.422-.211.105-.317.21-.633.316-.844" mask="url(#l)"/>
        </g>
        <g transform="translate(2.647 3.049)">
            <mask id="n" fill="#fff">
                <use xlink:href="#m"/>
            </mask>
            <path fill="#FFF" d="M46.563 69.981c.105 0 .21.106.21.211v.106c0 .105-.105.21-.21.21a.227.227 0 0 1-.211-.21v-.106c0-.105 0-.21.21-.21" mask="url(#n)"/>
        </g>
        <g transform="translate(2.647 3.049)">
            <mask id="p" fill="#fff">
                <use xlink:href="#o"/>
            </mask>
            <path fill="#FFF" d="M46.668 73.885c-.105.105-.105.211-.105.422 0 .317-.422.317-.422 0 0-.21 0-.527.21-.633.212-.317.528 0 .317.211" mask="url(#p)"/>
        </g>
        <g transform="translate(2.647 3.049)">
            <mask id="r" fill="#fff">
                <use xlink:href="#q"/>
            </mask>
            <path fill="#B5E8F7" d="M51.944 21.023c-1.266-.633-2.216-.95-3.693-.95-1.688-.106-3.482-.739-5.17-.317-.633.106-1.266.423-1.9.528-.738.106-1.582.106-2.426.211-2.005.105-6.753.211-7.28 2.85-.528 3.27 1.793 6.646 2.215 9.812.422 3.27.21 6.436.21 9.707 0 3.165-.21 5.803 2.533 8.019 2.216 1.794 5.276 2.638 8.02 2.533 2.637-.106 5.697-.106 7.807-2.11 1.478-1.478 1.267-2.428 1.056-4.327-.212-2.216.316-4.326.316-6.542.106-3.27.528-6.541.739-9.813.105-1.16.21-2.426.21-3.692.106-2.427-.316-4.749-2.637-5.91" mask="url(#r)"/>
        </g>
        <g transform="translate(2.647 3.049)">
            <mask id="t" fill="#fff">
                <use xlink:href="#s"/>
            </mask>
            <path fill="#714E46" d="M43.608 17.646c-.105-.844-.105-1.266-.21-2.004-.212-1.794-.317-3.588-.212-5.487-.422.844-1.16 2.426-1.477 3.376-.317 1.16-1.16 2.427-2.321 2.532-1.266.106-2.85-1.477-3.166.528-.21 1.055-.316 3.904.106 4.854.633 1.477 2.532 1.266 3.693 1.16 1.055-.105 2.11-.422 2.954-.95.528-.316 1.055-.738 1.266-1.265.317-.633.211-.95-.21-1.372-.212-.317-.317-.844-.423-1.372" mask="url(#t)"/>
        </g>
        <g transform="translate(2.647 3.049)">
            <mask id="v" fill="#fff">
                <use xlink:href="#u"/>
            </mask>
            <path fill="#714E46" d="M39.81 7.833c-1.055-.21-2.005-.105-3.06.212-.633.21-1.477.105-1.794.738-.422.844-.527 2.11-.422 3.06.106 1.266.317 3.166 1.055 4.22l.95 1.267c.316.527.738 1.055 1.371 1.266 1.794.422 3.272-1.583 4.221-2.85.528-.737.317-1.476.422-2.426.106-1.055.422-2.11 0-3.06-.527-1.266-1.583-2.215-2.743-2.427" mask="url(#v)"/>
        </g>
        <g transform="translate(2.647 3.049)">
            <mask id="x" fill="#fff">
                <use xlink:href="#w"/>
            </mask>
            <path fill="#000" d="M39.704 10.893c-.316.106-.633 0-.95 0 .106.422.317.739.74.633.105 0 .738-.316 1.16-.422.105 0 .21-.105.21 0-.21-.422-.843-.21-1.16-.21" mask="url(#x)"/>
        </g>
        <g transform="translate(2.647 3.049)">
            <mask id="z" fill="#fff">
                <use xlink:href="#y"/>
            </mask>
            <path fill="#000" d="M35.695 11.21c-.317 0-.633-.106-.633.316 0-.105.844.211.844.211h.316c.211-.105.317-.316.422-.527h-.95z" mask="url(#z)"/>
        </g>
        <g transform="translate(2.647 3.049)">
            <mask id="B" fill="#fff">
                <use xlink:href="#A"/>
            </mask>
            <path fill="#664640" d="M37.594 12.476c-.211.316-.106.844-.316 1.16 0 .106-.106.212-.317.317-.105.106-.317.211-.317.422-.316.844.95.633 1.267.211.316-.316.527-2.11-.317-2.11" mask="url(#B)"/>
        </g>
        <g transform="translate(2.647 3.049)">
            <mask id="D" fill="#fff">
                <use xlink:href="#C"/>
            </mask>
            <path fill="#664640" d="M39.704 15.325c0-.211-.21-.106-.105 0l.105.422c0 .21.211.105.106 0l-.106-.422z" mask="url(#D)"/>
        </g>
        <g transform="translate(2.647 3.049)">
            <mask id="F" fill="#fff">
                <use xlink:href="#E"/>
            </mask>
            <path fill="#000" d="M41.71 3.507c.105.211.21.528.105.739 0-.106-.844-.633-.95-.739-.739-.316-1.688-.422-2.427-.21-.738.21-1.266.949-2.005 1.054-.21 0-.844-.421-1.055-.21-.422.421.317.844.528 1.054-.317-.105-1.688 0-1.9.212-.527.422.212.422.106.738 0 .317-.422.317-.316.844.105 1.372 3.165 1.9 4.115 1.9.316 0 .633-.106.95 0 .316.105.421.316.738.316.844-.211 1.372-1.055 1.582-1.794.317-.844 1.161-1.582 1.267-2.637 0-.423-.212-1.583-.739-1.267" mask="url(#F)"/>
        </g>
        <g transform="translate(2.647 3.049)">
            <mask id="H" fill="#fff">
                <use xlink:href="#G"/>
            </mask>
            <path fill="#000" d="M36.644 6.778c-.21-.21-.633-.844-1.055-.844-.105 0-.21 0-.316.106-.317.21-.106.844-.528.95-.422.105-.95-.74-1.16 0-.106.316.316 1.055.527 1.265.633.739 1.688 1.055 2.638 1.267.844.105 4.326-.106 3.693-1.583-1.477.316-2.849 0-3.799-1.16" mask="url(#H)"/>
        </g>
        <g transform="translate(2.647 3.049)">
            <mask id="J" fill="#fff">
                <use xlink:href="#I"/>
            </mask>
            <path fill="#000" d="M42.342 5.195c-.738 0-1.055 1.478-1.266 1.9-.21.422-.528.738-.633 1.16-.211.634-.106.634.422.95.95.528 1.055 1.794 1.055 2.743.422-.105 1.055-1.266 1.583-1.055.422.211.21 1.16 0 1.478 1.583-1.583 1.266-4.749 0-6.437-.317-.21-.739-.739-1.16-.739" mask="url(#J)"/>
        </g>
        <g transform="translate(2.647 3.049)">
            <mask id="L" fill="#fff">
                <use xlink:href="#K"/>
            </mask>
            <path fill="#714E46" d="M43.503 10.788c-.95-.739-1.266 1.583-1.055 2.11.105.316.95-.633 1.055-.739.21-.316.422-1.055 0-1.371" mask="url(#L)"/>
        </g>
        <g transform="translate(2.647 3.049)">
            <mask id="N" fill="#fff">
                <use xlink:href="#M"/>
            </mask>
            <path fill="#664640" d="M43.292 11.42c-.106.212-.106.317-.211.528h.21c.106-.105.317-.422 0-.527" mask="url(#N)"/>
        </g>
        <g transform="translate(2.647 3.049)">
            <mask id="P" fill="#fff">
                <use xlink:href="#O"/>
            </mask>
            <path fill="#664640" d="M35.695 15.325v.316c0 .106.105.106.105 0v-.316c.106-.106-.105-.106-.105 0" mask="url(#P)"/>
        </g>
        <g transform="translate(2.647 3.049)">
            <mask id="S" fill="#fff">
                <use xlink:href="#R"/>
            </mask>
            <path fill="#D6D6D6" d="M36.011 42.02a.454.454 0 0 0-.422.422v.106c0 .105-.105.21-.21.316-.106.211-.106.528.21.633.211.106.528.106.633-.21.106-.317.317-.528.317-.845-.106-.21-.317-.422-.528-.422" mask="url(#S)"/>
        </g>
        <g transform="translate(2.647 3.049)">
            <mask id="U" fill="#fff">
                <use xlink:href="#T"/>
            </mask>
            <path fill="#D6D6D6" d="M36.328 38.644c-.211 0-.422.21-.422.422v.633c0 .21.21.422.422.422.211 0 .422-.211.422-.422v-.633c.105-.212-.106-.422-.422-.422" mask="url(#U)"/>
        </g>
        <g transform="translate(2.647 3.049)">
            <mask id="W" fill="#fff">
                <use xlink:href="#V"/>
            </mask>
            <path fill="#D6D6D6" d="M35.695 34.423c-.211.105-.317.422-.211.633.105.211.105.317.105.527 0 .212.211.423.422.423a.454.454 0 0 0 .422-.423c0-.316 0-.738-.21-1.055 0-.21-.317-.21-.528-.105" mask="url(#W)"/>
        </g>
        <g transform="translate(2.647 3.049)">
            <mask id="Y" fill="#fff">
                <use xlink:href="#X"/>
            </mask>
            <path fill="#D6D6D6" d="M35.167 30.519c-.21.211-.21.422 0 .633v.211c0 .211.211.422.422.422s.422-.21.422-.422c0-.316 0-.633-.316-.844-.106-.105-.422-.105-.528 0" mask="url(#Y)"/>
        </g>
        <g transform="translate(2.647 3.049)">
            <mask id="aa" fill="#fff">
                <use xlink:href="#Z"/>
            </mask>
            <path fill="#D6D6D6" d="M34.218 25.665c-.317-.527-1.055 0-.739.422.21.317.316.739.528 1.161.21.528 1.055.316.843-.211-.21-.422-.316-.95-.632-1.372" mask="url(#aa)"/>
        </g>
        <g transform="translate(2.647 3.049)">
            <mask id="ac" fill="#fff">
                <use xlink:href="#ab"/>
            </mask>
            <path fill="#D6D6D6" d="M36.117 24.188s-.106 0 0 0c-.106-.211-.106-.316-.106-.316-.105-.211-.316-.317-.633-.317a.454.454 0 0 0-.422.422c0 .211.106.316.317.422v.106c0 .105.105.21.105.21a.507.507 0 0 0 .633.212c.106-.211.211-.422.106-.739 0 .105 0 0 0 0" mask="url(#ac)"/>
        </g>
        <g transform="translate(2.647 3.049)">
            <mask id="ae" fill="#fff">
                <use xlink:href="#ad"/>
            </mask>
            <path fill="#D6D6D6" d="M37.066 26.826c-.105-.317-.21-.422-.422-.422a.454.454 0 0 0-.422.422c0 .105 0 .21.106.317v.21c0 .212.211.423.422.423a.454.454 0 0 0 .422-.423c0-.105 0-.316-.106-.422.106 0 0 0 0-.105" mask="url(#ae)"/>
        </g>
        <g transform="translate(2.647 3.049)">
            <mask id="ag" fill="#fff">
                <use xlink:href="#af"/>
            </mask>
            <path fill="#D6D6D6" d="M37.488 29.675a.454.454 0 0 0-.422.422c0 .21.106.317.212.422v.105c0 .211.21.423.422.423.21 0 .422-.212.422-.423 0-.21-.106-.316-.106-.527 0-.317-.211-.422-.528-.422" mask="url(#ag)"/>
        </g>
        <g transform="translate(2.647 3.049)">
            <mask id="ai" fill="#fff">
                <use xlink:href="#ah"/>
            </mask>
            <path fill="#D6D6D6" d="M37.91 32.735c-.21.21-.21.422 0 .633v.21c0 .212.212.423.423.423.21 0 .422-.211.422-.422 0-.317 0-.633-.317-.844-.105-.106-.422-.106-.527 0" mask="url(#ai)"/>
        </g>
        <g transform="translate(2.647 3.049)">
            <mask id="ak" fill="#fff">
                <use xlink:href="#aj"/>
            </mask>
            <path fill="#D6D6D6" d="M38.544 36.217a.454.454 0 0 0-.422.422v.527c0 .211.21.422.422.422a.454.454 0 0 0 .422-.422v-.527c.105-.211-.106-.422-.422-.422" mask="url(#ak)"/>
        </g>
        <g transform="translate(2.647 3.049)">
            <mask id="am" fill="#fff">
                <use xlink:href="#al"/>
            </mask>
            <path fill="#D6D6D6" d="M38.333 40.12a.454.454 0 0 0-.422.423v.528c0 .21.21.421.422.421.21 0 .422-.21.422-.421v-.528a.454.454 0 0 0-.422-.422" mask="url(#am)"/>
        </g>
        <g transform="translate(2.647 3.049)">
            <mask id="ao" fill="#fff">
                <use xlink:href="#an"/>
            </mask>
            <path fill="#D6D6D6" d="M38.333 43.392c-.212-.106-.528-.106-.633.21-.106.317-.317.528-.317.845 0 .21.211.422.422.422s.422-.211.422-.422c0-.106.106-.211.211-.317.105-.316.105-.633-.105-.738" mask="url(#ao)"/>
        </g>
        <g transform="translate(2.647 3.049)">
            <mask id="aq" fill="#fff">
                <use xlink:href="#ap"/>
            </mask>
            <path fill="#D6D6D6" d="M40.443 44.869c-.211 0-.422.21-.422.422v.106c-.105.105-.211.316-.105.527.105.211.316.316.422.316.21 0 .421-.21.527-.421v-.528a.454.454 0 0 0-.422-.422" mask="url(#aq)"/>
        </g>
        <g transform="translate(2.647 3.049)">
            <mask id="as" fill="#fff">
                <use xlink:href="#ar"/>
            </mask>
            <path fill="#D6D6D6" d="M40.548 41.914c-.21.317-.316.633-.316.95 0 .211.21.422.422.422.21 0 .422-.21.422-.422v-.422a.674.674 0 0 0 0-.633c0-.106-.317-.106-.528.105" mask="url(#as)"/>
        </g>
        <g transform="translate(2.647 3.049)">
            <mask id="au" fill="#fff">
                <use xlink:href="#at"/>
            </mask>
            <path fill="#D6D6D6" d="M41.181 37.166c-.21 0-.422.211-.422.422v.528c0 .211.212.422.422.422.212 0 .422-.211.422-.422v-.528a.454.454 0 0 0-.422-.422" mask="url(#au)"/>
        </g>
        <g transform="translate(2.647 3.049)">
            <mask id="aw" fill="#fff">
                <use xlink:href="#av"/>
            </mask>
            <path fill="#D6D6D6" d="M43.714 36.006c-.211 0-.422.21-.422.422 0 .21.105.527.105.738 0 .211.211.422.422.422a.454.454 0 0 0 .422-.422c0-.21-.105-.527-.105-.738a.454.454 0 0 0-.422-.422" mask="url(#aw)"/>
        </g>
        <g transform="translate(2.647 3.049)">
            <mask id="ay" fill="#fff">
                <use xlink:href="#ax"/>
            </mask>
            <path fill="#D6D6D6" d="M43.714 40.12c-.211 0-.422.212-.422.423v.633c0 .211.21.422.422.422.21 0 .422-.211.422-.422v-.633a.454.454 0 0 0-.422-.422" mask="url(#ay)"/>
        </g>
        <g transform="translate(2.647 3.049)">
            <mask id="aA" fill="#fff">
                <use xlink:href="#az"/>
            </mask>
            <path fill="#D6D6D6" d="M42.975 44.236c0 .316 0 .633-.105.95-.211.527.738.844.844.21.105-.422.105-.738.105-1.16 0-.633-.844-.633-.844 0" mask="url(#aA)"/>
        </g>
        <g transform="translate(2.647 3.049)">
            <mask id="aC" fill="#fff">
                <use xlink:href="#aB"/>
            </mask>
            <path fill="#000" d="M40.443 12.054c-.317-.211-.633-.211-.95-.105-.21.105-.422.316-.316.949h.316c0-.317 0-.633.211-.739.212-.105.422-.105.633.106.211.106.317.422.211.633h.317c0-.317-.211-.633-.422-.844" mask="url(#aC)"/>
        </g>
        <g transform="translate(2.647 3.049)">
            <mask id="aE" fill="#fff">
                <use xlink:href="#aD"/>
            </mask>
            <path fill="#000" d="M36.539 12.265c-.211-.211-.633-.211-.844-.105-.106.105-.422.316-.317.844h.211c0-.317 0-.528.211-.633.106-.106.317-.106.528.105.21.105.316.317.21.528h.212c.105-.211 0-.528-.211-.74" mask="url(#aE)"/>
        </g>
        <g transform="translate(2.647 3.049)">
            <mask id="aG" fill="#fff">
                <use xlink:href="#aF"/>
            </mask>
            <path fill="#FFF" d="M36.433 15.325c.317.95.422 1.266.739 1.266.95 0 1.794-.633 1.9-1.372-.317.106-2.533.211-2.639.106" mask="url(#aG)"/>
        </g>
        <g transform="translate(2.647 3.049)">
            <mask id="aI" fill="#fff">
                <use xlink:href="#aH"/>
            </mask>
            <path fill="#A44C57" d="M36.644 15.852c.106.317.317.74.422.74.317 0 .844 0 1.267-.212.316-.211.633-.633.633-.633-.422.105-2.005.105-2.322.105" mask="url(#aI)"/>
        </g>
        <g transform="translate(2.647 3.049)">
            <mask id="aK" fill="#fff">
                <use xlink:href="#aJ"/>
            </mask>
            <path fill="#B65F67" d="M37.805 16.063c-.316 0-.739.317-.739.528 0 .105.634 0 .634 0 .316-.105.527-.211.844-.422-.106-.106-.528-.106-.739-.106" mask="url(#aK)"/>
        </g>
        <g transform="translate(2.647 3.049)">
            <mask id="aO" fill="#fff">
                <use xlink:href="#aN"/>
            </mask>
            <path fill="#D6D6D6" d="M46.035 46.452c-.21-.106-.527-.106-.633.21-.211.317-.211.74-.211 1.161 0 .633.95.633.95 0v-.422c0-.105 0-.21.105-.317 0-.316 0-.527-.21-.633" mask="url(#aO)"/>
        </g>
        <g transform="translate(2.647 3.049)">
            <mask id="aQ" fill="#fff">
                <use xlink:href="#aP"/>
            </mask>
            <path fill="#D6D6D6" d="M45.719 42.02v.95c0 .633.95.633.95 0v-.95c-.106-.633-.95-.633-.95 0" mask="url(#aQ)"/>
        </g>
        <g transform="translate(2.647 3.049)">
            <mask id="aS" fill="#fff">
                <use xlink:href="#aR"/>
            </mask>
            <path fill="#D6D6D6" d="M46.14 37.588c-.632 0-.632.95 0 .95.634 0 .634-.95 0-.95" mask="url(#aS)"/>
        </g>
        <g transform="translate(2.647 3.049)">
            <mask id="aU" fill="#fff">
                <use xlink:href="#aT"/>
            </mask>
            <path fill="#D6D6D6" d="M48.99 37.272c-.211-.105-.528-.105-.633.211-.106.21-.106.527.21.633h.106c-.106.211 0 .422.21.633.212.105.529.105.634-.211.105-.21.105-.528.105-.739-.21-.21-.421-.422-.633-.527" mask="url(#aU)"/>
        </g>
        <g transform="translate(2.647 3.049)">
            <mask id="aW" fill="#fff">
                <use xlink:href="#aV"/>
            </mask>
            <path fill="#D6D6D6" d="M48.462 42.548a.454.454 0 0 0-.422.422v.844c0 .21.21.422.422.422.21 0 .422-.211.422-.422v-.739c.105-.316-.106-.527-.422-.527" mask="url(#aW)"/>
        </g>
        <g transform="translate(2.647 3.049)">
            <mask id="aY" fill="#fff">
                <use xlink:href="#aX"/>
            </mask>
            <path fill="#D6D6D6" d="M50.678 41.703v1.056c0 .633.95.633.95 0v-1.056c-.106-.527-.95-.527-.95 0" mask="url(#aY)"/>
        </g>
        <g transform="translate(2.647 3.049)">
            <mask id="ba" fill="#fff">
                <use xlink:href="#aZ"/>
            </mask>
            <path fill="#085EBD" d="M44.452 19.229c-.738 1.477-2.32 2.005-3.903 2.321-.845.211-1.9.211-2.744-.105-.422-.106-.844-.317-1.055-.633-.317-.422-.633-.528-1.055 0 .21.633.95 1.477 1.688 1.793 1.477.739 4.326.317 5.909-.422.527-.316 1.055-.738 1.372-1.16.21-.211.632-1.055.422-1.266-.106-.212-.528-.634-.634-.528" mask="url(#ba)"/>
        </g>
        <g transform="translate(2.647 3.049)">
            <mask id="bc" fill="#fff">
                <use xlink:href="#bb"/>
            </mask>
            <path fill="#D6D6D6" d="M37.172 21.445c-.633.105-.528.95.106.95.632 0 .527-.95-.106-.95" mask="url(#bc)"/>
        </g>
        <g transform="translate(2.647 3.049)">
            <mask id="be" fill="#fff">
                <use xlink:href="#bd"/>
            </mask>
            <path fill="#D6D6D6" d="M39.493 22.078c0-.106-.105-.211-.21-.211-.106-.211-.317-.211-.423-.211-.21 0-.422.21-.422.527 0 .211.106.317.211.317.106.105.211.21.422.21s.422-.21.422-.527v-.105z" mask="url(#be)"/>
        </g>
        <g transform="translate(2.647 3.049)">
            <mask id="bg" fill="#fff">
                <use xlink:href="#bf"/>
            </mask>
            <path fill="#D6D6D6" d="M41.393 22.183c0-.105-.106-.105-.106-.21v-.106c0-.211-.21-.317-.422-.317-.211 0-.422.211-.422.422 0 .317.105.528.211.739.105.21.422.21.633.105.21-.21.21-.421.106-.633" mask="url(#bg)"/>
        </g>
        <g transform="translate(2.647 3.049)">
            <mask id="bi" fill="#fff">
                <use xlink:href="#bh"/>
            </mask>
            <path fill="#D6D6D6" d="M42.659 21.234h-.106c-.21 0-.422.21-.422.527 0 .211.211.422.528.422h.105c.211 0 .422-.21.422-.527 0-.317-.21-.422-.527-.422" mask="url(#bi)"/>
        </g>
        <g transform="translate(2.647 3.049)">
            <mask id="bk" fill="#fff">
                <use xlink:href="#bj"/>
            </mask>
            <path fill="#D6D6D6" d="M44.558 20.284c-.106-.21-.317-.422-.527-.317-.212 0-.423.212-.423.528 0 .105 0 .211.106.317 0 .105.105.105.211.21.21.212.527.106.633-.105.211-.105.211-.422 0-.633" mask="url(#bk)"/>
        </g>
        <g transform="translate(2.647 3.049)">
            <mask id="bm" fill="#fff">
                <use xlink:href="#bl"/>
            </mask>
            <path fill="#085EBD" d="M52.05 50.25c-4.116 1.794-9.602.422-13.717-.528-.528-.105-4.326-1.688-3.904-2.321-1.372 2.427.422 3.799 2.532 4.432 2.954.844 6.014 1.688 9.18 1.793 2.426 0 5.17-.316 7.386-1.371 1.371-.633.738-2.005.422-3.166-.633.528-1.267.845-1.9 1.161" mask="url(#bm)"/>
        </g>
        <g transform="translate(2.647 3.049)">
            <mask id="bo" fill="#fff">
                <use xlink:href="#bn"/>
            </mask>
            <path fill="#D6D6D6" d="M50.889 50.883a.454.454 0 0 0-.422.422v.317c0 .105 0 .21-.106.316-.105.211 0 .422.317.528.21.105.527 0 .527-.317.106-.21.106-.527.106-.738 0-.317-.211-.528-.422-.528" mask="url(#bo)"/>
        </g>
        <g transform="translate(2.647 3.049)">
            <mask id="bq" fill="#fff">
                <use xlink:href="#bp"/>
            </mask>
            <path fill="#D6D6D6" d="M48.779 51.094c-.212-.105-.528 0-.528.317a1.463 1.463 0 0 0 0 .95c0 .21.316.421.528.316.21 0 .422-.317.316-.528v-.422c0-.316-.106-.633-.316-.633" mask="url(#bq)"/>
        </g>
        <g transform="translate(2.647 3.049)">
            <mask id="bs" fill="#fff">
                <use xlink:href="#br"/>
            </mask>
            <path fill="#D6D6D6" d="M45.824 51.41c-.105.212-.105.423-.105.634 0 .21.316.422.527.316.211 0 .422-.316.317-.527v-.106c.105-.211 0-.422-.106-.527-.21 0-.422 0-.633.21" mask="url(#bs)"/>
        </g>
        <g transform="translate(2.647 3.049)">
            <mask id="bu" fill="#fff">
                <use xlink:href="#bt"/>
            </mask>
            <path fill="#D6D6D6" d="M44.874 50.672c-.21-.105-.527 0-.527.316 0 .106-.105.212-.105.423v.316c-.106.211 0 .422.316.528.211.105.528 0 .528-.317 0-.105.105-.21.105-.422V51.2a.58.58 0 0 0-.317-.528" mask="url(#bu)"/>
        </g>
        <g transform="translate(2.647 3.049)">
            <mask id="bw" fill="#fff">
                <use xlink:href="#bv"/>
            </mask>
            <path fill="#D6D6D6" d="M42.237 50.672c-.211 0-.422.316-.317.528v.105c-.105.211 0 .422.106.528.21.105.527.105.633-.106.105-.21.105-.422.105-.633-.105-.316-.316-.422-.527-.422" mask="url(#bw)"/>
        </g>
        <g transform="translate(2.647 3.049)">
            <mask id="by" fill="#fff">
                <use xlink:href="#bx"/>
            </mask>
            <path fill="#D6D6D6" d="M39.915 50.883c-.105.211-.105.528-.105.739 0 .21.316.422.527.316.211 0 .422-.316.317-.527V51.2c.105-.212 0-.422-.211-.528-.106-.105-.422 0-.528.211" mask="url(#by)"/>
        </g>
        <g transform="translate(2.647 3.049)">
            <mask id="bA" fill="#fff">
                <use xlink:href="#bz"/>
            </mask>
            <path fill="#D6D6D6" d="M38.544 49.828c-.211 0-.422.211-.422.422l-.106.844c0 .211.211.422.422.422s.422-.21.422-.422l.106-.844c0-.105-.211-.317-.422-.422" mask="url(#bA)"/>
        </g>
        <g transform="translate(2.647 3.049)">
            <mask id="bC" fill="#fff">
                <use xlink:href="#bB"/>
            </mask>
            <path fill="#FF7900" d="M45.297 52.15c-.106.527-.211 1.16-.317 1.687-.316 3.905 5.487 13.084-2.11 11.502-5.593-1.161-6.542-9.813-13.19-5.487-2.11 1.372-10.34 9.285-12.45 5.381-1.477-2.849.21-5.698.95-8.336 1.266-4.537.738-7.386-3.377-9.39-3.06-1.583-7.914-2.85-8.546-6.859-.423-2.426 3.481-3.27 5.17-3.693 2.954-.738 7.175-1.266 9.601-3.376 2.216-1.794 3.166-5.065 4.115-7.703 1.688-4.642 5.91-11.606 9.708-4.22 4.01 7.808 2.638 13.928 12.134 14.56 6.436.423 12.978 2.638 4.642 7.914-2.743 1.9-5.38 4.643-6.33 8.02" mask="url(#bC)"/>
        </g>
        <g transform="translate(2.647 3.049)">
            <mask id="bE" fill="#fff">
                <use xlink:href="#bD"/>
            </mask>
            <path fill="#714E46" d="M22.189 51.622a.227.227 0 0 0-.211-.211c-.106 0-.106-.106-.211-.106-1.055-.316-3.377 1.16-3.377-.738-.422.422-.738.95-.95 1.477-.421.95-.527 2.005-.21 3.06.527 1.583 1.477 1.371 2.743.844.844-.317 2.005-2.005 2.216-2.955v-1.16c.105-.106 0-.106 0-.211" mask="url(#bE)"/>
        </g>
        <g transform="translate(2.647 3.049)">
            <mask id="bG" fill="#fff">
                <use xlink:href="#bF"/>
            </mask>
            <path fill="#664640" d="M22.083 51.41c-.105 0-.105 0 0 0l-.105-.105c-.95.844-2.427 1.266-4.22 1.372v.528c1.793-.106 3.27-.634 4.325-1.478-.105-.105-.105-.211 0-.316" mask="url(#bG)"/>
        </g>
        <g transform="translate(2.647 3.049)">
            <mask id="bI" fill="#fff">
                <use xlink:href="#bH"/>
            </mask>
            <path fill="#664640" d="M22.083 52.993c-1.055.844-2.321 1.372-4.326 1.583v-.527c2.005-.212 3.588-.844 4.537-1.794-.105.422-.105.422-.21.738" mask="url(#bI)"/>
        </g>
        <g transform="translate(2.647 3.049)">
            <mask id="bK" fill="#fff">
                <use xlink:href="#bJ"/>
            </mask>
            <path fill="#664640" d="M19.762 54.998c.95-.422 1.9-.95 2.005-1.16-.105.422-.528.844-.844 1.055-.317.21-.633.316-.844.422-.211.105-2.11.527-2.11.422v-.528c-.106.106 1.582-.21 1.793-.21" mask="url(#bK)"/>
        </g>
        <g transform="translate(2.647 3.049)">
            <mask id="bM" fill="#fff">
                <use xlink:href="#bL"/>
            </mask>
            <path fill="#714E46" d="M56.27 52.993c-.317-.95-.738-1.899-1.794-2.215-2.004-.528-3.693.738-5.592 1.16-.844.211-1.688.211-2.638.422s-1.9.211-2.849.211c-.422 0-1.266-.316-1.582 0-.422.211-.317.95-.211 1.372 0 .106 0 .21.105.21.211.74 1.055 1.373 1.794 1.795 1.477.844 3.165.844 4.748.739a17.416 17.416 0 0 0 3.376-.634c.739-.21 1.583-.422 2.322-.633.633-.105 1.16 0 1.793-.316 1.161-.528.845-1.267.528-2.11" mask="url(#bM)"/>
        </g>
        <g transform="translate(2.647 3.049)">
            <mask id="bO" fill="#fff">
                <use xlink:href="#bN"/>
            </mask>
            <path fill="#664640" d="M41.71 52.677v.422c.949.633 2.32.95 3.903.844v-.422c-1.688.105-2.954-.211-3.904-.844" mask="url(#bO)"/>
        </g>
        <g transform="translate(2.647 3.049)">
            <mask id="bQ" fill="#fff">
                <use xlink:href="#bP"/>
            </mask>
            <path fill="#664640" d="M41.71 53.837c.105.317.105.317.316.528 1.055.633 2.215.844 4.009.739v-.528c-1.9.211-3.376-.106-4.326-.739" mask="url(#bQ)"/>
        </g>
        <g transform="translate(2.647 3.049)">
            <mask id="bS" fill="#fff">
                <use xlink:href="#bR"/>
            </mask>
            <path fill="#664640" d="M46.774 55.631c0 .106-1.689.211-1.794.106-1.055-.106-2.005-.422-2.11-.528.21.317.633.633 1.055.739.316.106.633.21.844.21.21 0 2.11 0 2.11-.104l-.105-.423z" mask="url(#bS)"/>
        </g>
        <g transform="translate(2.647 3.049)">
            <mask id="bU" fill="#fff">
                <use xlink:href="#bT"/>
            </mask>
            <path fill="#085EBD" d="M67.454 35.056c-1.266-4.537-6.014-9.074-9.812-11.712-2.005-1.372-4.22-3.27-6.648-1.9a8.793 8.793 0 0 0-2.321 2.11 7.368 7.368 0 0 0-1.266 3.483c-.422 4.854 6.647 7.28 9.074 10.868 2.427 3.587-.633 7.702-2.743 10.657-.211.21-2.427 2.216-2.427 2.216.633.316 1.477 2.11 1.793 2.743-.105-.105-.21-.317-.21-.422.422.95.738 1.9.527 2.955 1.477.21 3.482-.634 4.643-1.056 4.431-2.005 8.652-7.28 9.602-11.712a16.703 16.703 0 0 0-.212-8.23" mask="url(#bU)"/>
        </g>
        <g transform="translate(2.647 3.049)">
            <mask id="bW" fill="#fff">
                <use xlink:href="#bV"/>
            </mask>
            <path fill="#B5E8F7" d="M54.265 55.631c-.316-1.582-.844-4.22-1.9-5.592-.21-.21-1.37.739-1.582.95-.316.527 0 1.16.106 1.688.21.95.316 2.004.844 2.849.738 1.16 1.688.738 2.532.105.106 0 .106 0 0 0" mask="url(#bW)"/>
        </g>
        <g transform="translate(2.647 3.049)">
            <mask id="bY" fill="#fff">
                <use xlink:href="#bX"/>
            </mask>
            <path fill="#D6D6D6" d="M56.587 51.938c-.106 0-.212.106-.317.106a1.452 1.452 0 0 0-.422.316.51.51 0 0 0 0 .739c.21.21.527.106.739-.106.105 0 .21-.105.21-.105.317-.106.423-.422.317-.633.106-.211-.21-.422-.527-.317" mask="url(#bY)"/>
        </g>
        <g transform="translate(2.647 3.049)">
            <mask id="ca" fill="#fff">
                <use xlink:href="#bZ"/>
            </mask>
            <path fill="#D6D6D6" d="M60.174 49.828c-.21-.211-.528-.211-.739.105-.21.212-.316.317-.527.422-.317.106-.422.423-.317.633.106.317.422.423.633.317.422-.105.74-.422 1.056-.738.105-.212.105-.634-.106-.739" mask="url(#ca)"/>
        </g>
        <g transform="translate(2.647 3.049)">
            <mask id="cc" fill="#fff">
                <use xlink:href="#cb"/>
            </mask>
            <path fill="#D6D6D6" d="M62.179 46.452c-.317-.106-.528.105-.633.422v.105l-.106.105a.51.51 0 0 0 0 .74c.211.21.528.21.739-.106.105-.106.21-.211.21-.317.106-.105.106-.21.212-.422.105-.211-.211-.527-.422-.527" mask="url(#cc)"/>
        </g>
        <g transform="translate(2.647 3.049)">
            <mask id="ce" fill="#fff">
                <use xlink:href="#cd"/>
            </mask>
            <path fill="#D6D6D6" d="M52.577 24.61l-.633-.422c-.211-.106-.528-.106-.739.106-.105.21-.105.527.106.738l.633.422c.21.106.528.106.739-.105.21-.317.21-.634-.106-.739" mask="url(#ce)"/>
        </g>
        <g transform="translate(2.647 3.049)">
            <mask id="cg" fill="#fff">
                <use xlink:href="#cf"/>
            </mask>
            <path fill="#D6D6D6" d="M55.637 26.404l-.527-.317c-.212-.105-.528-.105-.74.106-.105.21-.105.527.106.738l.528.317c.21.106.528.106.738-.105.211-.317.106-.634-.105-.74" mask="url(#cg)"/>
        </g>
        <g transform="translate(2.647 3.049)">
            <mask id="ci" fill="#fff">
                <use xlink:href="#ch"/>
            </mask>
            <path fill="#D6D6D6" d="M58.17 28.83l-.106-.105h-.106c-.105-.21-.316-.422-.633-.316-.316.105-.422.316-.422.633.106.316.316.527.633.738.211.106.528.106.739-.105.21-.422.105-.739-.106-.844" mask="url(#ci)"/>
        </g>
        <g transform="translate(2.647 3.049)">
            <mask id="ck" fill="#fff">
                <use xlink:href="#cj"/>
            </mask>
            <path fill="#D6D6D6" d="M61.44 32.313l-.21-.106c-.212-.106-.528-.106-.74.106-.105.21-.105.527.106.738l.211.106c.211.105.528.105.739-.106.21-.316.105-.633-.106-.738" mask="url(#ck)"/>
        </g>
        <g transform="translate(2.647 3.049)">
            <mask id="cm" fill="#fff">
                <use xlink:href="#cl"/>
            </mask>
            <path fill="#D6D6D6" d="M63.656 36.533c-.211-.105-.528-.105-.739.106-.105.21-.105.527.106.738h.105c.106.211.317.423.633.423.317-.106.422-.317.422-.634-.105-.316-.21-.527-.527-.633" mask="url(#cm)"/>
        </g>
        <g transform="translate(2.647 3.049)">
            <mask id="co" fill="#fff">
                <use xlink:href="#cn"/>
            </mask>
            <path fill="#D6D6D6" d="M64.711 41.492v-.422c0-.316-.316-.422-.633-.422-.317.106-.422.317-.422.633v.422c0 .317.317.422.633.422.317-.105.527-.422.422-.633" mask="url(#co)"/>
        </g>
        <g transform="translate(2.647 3.049)">
            <mask id="cq" fill="#fff">
                <use xlink:href="#cp"/>
            </mask>
            <path fill="#D6D6D6" d="M64.395 43.814c-.106-.317-.317-.422-.634-.422-.316.105-.422.316-.422.633-.105.211 0 .527.212.633.21.105.527.105.738-.106.106-.105.106-.21.106-.422.105-.105 0-.211 0-.316" mask="url(#cq)"/>
        </g>
        <g transform="translate(2.647 3.049)">
            <mask id="cs" fill="#fff">
                <use xlink:href="#cr"/>
            </mask>
            <path fill="#D6D6D6" d="M59.646 52.993c-.105-.21-.422-.316-.633-.21-.105.105-.316.21-.422.316l-.105.106c-.211.105-.422.316-.317.632.106.212.317.423.633.423.211 0 .317-.106.422-.211l.106-.106.105-.106s.106-.105.106 0c.105-.316.211-.527.105-.844" mask="url(#cs)"/>
        </g>
        <g transform="translate(2.647 3.049)">
            <mask id="cu" fill="#fff">
                <use xlink:href="#ct"/>
            </mask>
            <path fill="#D6D6D6" d="M63.34 49.406c-.106-.211-.423-.317-.634-.211-.316.21-.527.527-.738.844-.106.211-.106.527.105.739.211.105.528.105.739-.106a.823.823 0 0 1 .422-.422c.105-.316.211-.633.105-.844" mask="url(#cu)"/>
        </g>
        <g transform="translate(2.647 3.049)">
            <mask id="cw" fill="#fff">
                <use xlink:href="#cv"/>
            </mask>
            <path fill="#D6D6D6" d="M65.766 44.763c-.316 0-.527.211-.527.528 0 .211-.106.316-.317.528-.105.21-.105.527.106.738.21.106.527.106.738-.106.211-.316.422-.633.422-1.055.106-.316-.105-.633-.422-.633" mask="url(#cw)"/>
        </g>
        <g transform="translate(2.647 3.049)">
            <mask id="cy" fill="#fff">
                <use xlink:href="#cx"/>
            </mask>
            <path fill="#D6D6D6" d="M66.188 34.212c-.21-.106-.527-.106-.738.105-.106.106-.106.317-.211.422a.58.58 0 0 0 .316.528c.211.211.528.106.739-.105.105-.106.105-.211.105-.423.106-.105 0-.422-.21-.527" mask="url(#cy)"/>
        </g>
        <g transform="translate(2.647 3.049)">
            <mask id="cA" fill="#fff">
                <use xlink:href="#cz"/>
            </mask>
            <path fill="#D6D6D6" d="M63.656 30.941a2.49 2.49 0 0 0-.844-.95c-.528-.316-1.055.528-.528.845.211.21.422.316.528.632a.507.507 0 0 0 .633.212c.211-.212.316-.528.211-.739" mask="url(#cA)"/>
        </g>
        <g transform="translate(2.647 3.049)">
            <mask id="cC" fill="#fff">
                <use xlink:href="#cB"/>
            </mask>
            <path fill="#D6D6D6" d="M60.174 27.46c-.316-.423-.633-.95-1.055-1.267-.528-.422-1.055.527-.528.844.317.21.528.527.633.844.422.633 1.266.105.95-.422" mask="url(#cC)"/>
        </g>
        <g transform="translate(2.647 3.049)">
            <mask id="cE" fill="#fff">
                <use xlink:href="#cD"/>
            </mask>
            <path fill="#D6D6D6" d="M56.164 24.188c-.21-.105-.527-.105-.738.105-.106.212-.106.528.106.739h.21c.106.211.317.422.633.317.212-.106.422-.317.422-.633a1.08 1.08 0 0 0-.633-.528" mask="url(#cE)"/>
        </g>
        <g transform="translate(2.647 3.049)">
            <mask id="cG" fill="#fff">
                <use xlink:href="#cF"/>
            </mask>
            <path fill="#664640" d="M47.407 51.41c-.422-.21-.739-.422-1.16-.632-.106-.106-.317-.211-.423-.317-.211.422-.316.844-.422 1.16.21.317.528.528.739.74-.211.105-.317.105-.528.21 1.688.317 3.376-.21 4.96-.316-.95-.106-2.11-.317-3.166-.844" mask="url(#cG)"/>
        </g>
        <g transform="translate(2.647 3.049)">
            <mask id="cI" fill="#fff">
                <use xlink:href="#cH"/>
            </mask>
            <path fill="#D6D6D6" d="M55.215 48.773c-.211-.211-.528-.105-.739.105l-.105.106c-.106 0-.106.105-.211.105h-.106c-.316.106-.422.422-.316.634.105.21.422.422.633.316.316-.106.633-.316.844-.528a.51.51 0 0 0 0-.738" mask="url(#cI)"/>
        </g>
        <g transform="translate(2.647 3.049)">
            <mask id="cK" fill="#fff">
                <use xlink:href="#cJ"/>
            </mask>
            <path fill="#D6D6D6" d="M57.853 45.818c-.211-.105-.633 0-.739.212-.105.21-.316.421-.422.633a.51.51 0 0 0 0 .738c.211.211.528.211.739-.105.21-.317.527-.528.633-.95.105-.105 0-.422-.211-.528" mask="url(#cK)"/>
        </g>
        <g transform="translate(2.647 3.049)">
            <mask id="cM" fill="#fff">
                <use xlink:href="#cL"/>
            </mask>
            <path fill="#D6D6D6" d="M58.908 42.02c-.317 0-.528.316-.528.528v.211a.51.51 0 0 0 0 .738c.211.211.528.211.739-.105.21-.212.316-.633.316-.95 0-.317-.21-.527-.527-.422" mask="url(#cM)"/>
        </g>
        <g transform="translate(2.647 3.049)">
            <mask id="cO" fill="#fff">
                <use xlink:href="#cN"/>
            </mask>
            <path fill="#D6D6D6" d="M61.018 44.025c0-.106.105-.106.105-.211a.51.51 0 0 0 0-.739c-.21-.21-.527-.21-.738.106-.21.21-.422.527-.422.844 0 .316.317.527.528.527.316 0 .527-.21.527-.527" mask="url(#cO)"/>
        </g>
        <g transform="translate(2.647 3.049)">
            <mask id="cQ" fill="#fff">
                <use xlink:href="#cP"/>
            </mask>
            <path fill="#D6D6D6" d="M59.752 46.24c-.21-.21-.527-.21-.739.106-.21.317-.527.528-.633.95-.105.316.106.527.422.633.317.105.528-.106.633-.422V47.4l.317-.317c.316-.316.211-.632 0-.844" mask="url(#cQ)"/>
        </g>
        <g transform="translate(2.647 3.049)">
            <mask id="cS" fill="#fff">
                <use xlink:href="#cR"/>
            </mask>
            <path fill="#D6D6D6" d="M56.692 49.406c-.316.105-.633.316-.95.633a.51.51 0 0 0 0 .739c.211.21.528.21.74-.106l.105-.106.105-.105.106-.105h.105c.317-.106.422-.422.317-.634.105-.316-.211-.421-.528-.316" mask="url(#cS)"/>
        </g>
        <g transform="translate(2.647 3.049)">
            <mask id="cU" fill="#fff">
                <use xlink:href="#cT"/>
            </mask>
            <path fill="#D6D6D6" d="M59.646 38.749c-.105-.316-.316-.422-.633-.422-.316.106-.422.317-.422.633l.106.422c.105.317.316.422.633.422.316-.105.422-.316.422-.633l-.106-.422z" mask="url(#cU)"/>
        </g>
        <g transform="translate(2.647 3.049)">
            <mask id="cW" fill="#fff">
                <use xlink:href="#cV"/>
            </mask>
            <path fill="#D6D6D6" d="M62.6 40.332c-.105-.106-.21-.211-.21-.317-.106-.316-.317-.422-.633-.422-.317.106-.422.317-.422.633 0 .211.105.317.21.422l.106.106v.105c.106.211.422.317.633.211.317-.21.422-.527.317-.738" mask="url(#cW)"/>
        </g>
        <g transform="translate(2.647 3.049)">
            <mask id="cY" fill="#fff">
                <use xlink:href="#cX"/>
            </mask>
            <path fill="#D6D6D6" d="M50.467 29.78l-.844-.527c-.528-.317-1.056.527-.528.844l.844.527c.528.317 1.16-.527.528-.844" mask="url(#cY)"/>
        </g>
        <g transform="translate(2.647 3.049)">
            <mask id="da" fill="#fff">
                <use xlink:href="#cZ"/>
            </mask>
            <path fill="#D6D6D6" d="M53.632 32.102l-.95-.633c-.527-.317-1.055.527-.527.844l.95.633c.527.422 1.055-.422.527-.844" mask="url(#da)"/>
        </g>
        <g transform="translate(2.647 3.049)">
            <mask id="dc" fill="#fff">
                <use xlink:href="#db"/>
            </mask>
            <path fill="#D6D6D6" d="M56.164 34.106l-.632-.422c-.212-.105-.528-.105-.74.106-.105.211-.105.528.106.739l.634.421c.21.106.527.106.738-.105.211-.316.105-.633-.106-.739" mask="url(#dc)"/>
        </g>
        <g transform="translate(2.647 3.049)">
            <mask id="de" fill="#fff">
                <use xlink:href="#dd"/>
            </mask>
            <path fill="#D6D6D6" d="M58.17 36.006l-.317-.211c-.211-.106-.528-.106-.739.105-.105.211-.105.528.105.739l.317.21c.211.106.528.106.739-.105.21-.21.105-.527-.106-.738" mask="url(#de)"/>
        </g>
        <g transform="translate(2.647 3.049)">
            <mask id="dg" fill="#fff">
                <use xlink:href="#df"/>
            </mask>
            <path fill="#D6D6D6" d="M50.889 27.037c-.106-.105-.211-.105-.317-.211l-.21-.211c-.106-.211-.423-.317-.634-.211-.211.105-.422.422-.211.633.211.422.633.633.95.844.422.422.95-.422.422-.844" mask="url(#dg)"/>
        </g>
        <g transform="translate(2.647 3.049)">
            <mask id="di" fill="#fff">
                <use xlink:href="#dh"/>
            </mask>
            <path fill="#D6D6D6" d="M54.054 28.62c-.317-.211-.633-.423-1.055-.317-.317 0-.422.317-.422.633.105.211.317.422.528.422h.105c.105 0 .211.106.317.211.21.106.527.106.738-.105 0-.422 0-.739-.21-.844" mask="url(#di)"/>
        </g>
        <g transform="translate(2.647 3.049)">
            <mask id="dk" fill="#fff">
                <use xlink:href="#dj"/>
            </mask>
            <path fill="#D6D6D6" d="M56.587 30.73l-.528-.316c-.21-.106-.527-.106-.739.105-.105.211-.105.527.106.739l.527.316c.212.106.528.106.739-.105.211-.211.105-.528-.105-.739" mask="url(#dk)"/>
        </g>
        <g transform="translate(2.647 3.049)">
            <mask id="dm" fill="#fff">
                <use xlink:href="#dl"/>
            </mask>
            <path fill="#D6D6D6" d="M59.013 33.051l-.21-.105c-.212-.106-.528-.106-.74.105-.105.211-.105.528.106.739l.211.105c.211.106.528.106.739-.105.21-.317.21-.633-.106-.739" mask="url(#dm)"/>
        </g>
        <g transform="translate(2.647 3.049)">
            <mask id="do" fill="#fff">
                <use xlink:href="#dn"/>
            </mask>
            <path fill="#D6D6D6" d="M61.44 36.006l-.317-.317c-.21-.106-.527-.106-.738.106-.105.21-.105.527.106.633.105.316.316.422.632.422.317-.106.423-.317.423-.633-.106 0-.106-.106-.106-.211" mask="url(#do)"/>
        </g>
        <g transform="translate(2.647 3.049)">
            <mask id="dq" fill="#fff">
                <use xlink:href="#dp"/>
            </mask>
            <path fill="#FFF" d="M9.738 38.432c-.422 0-.844.106-1.055.528-.105.211-.105.527.211.633.211.106.528.106.633-.21h.211a.454.454 0 0 0 .422-.423c0-.316-.21-.528-.422-.528" mask="url(#dq)"/>
        </g>
        <g transform="translate(2.647 3.049)">
            <mask id="ds" fill="#fff">
                <use xlink:href="#dr"/>
            </mask>
            <path fill="#FFF" d="M13.01 37.483h-.634a.454.454 0 0 0-.422.422c0 .21.211.422.422.422h.633a.454.454 0 0 0 .422-.422.454.454 0 0 0-.422-.422" mask="url(#ds)"/>
        </g>
        <g transform="translate(2.647 3.049)">
            <mask id="du" fill="#fff">
                <use xlink:href="#dt"/>
            </mask>
            <path fill="#FFF" d="M17.335 36.639c-.105-.211-.422-.317-.633-.211-.105 0-.21.105-.316.105-.211 0-.317.106-.422.211-.211.106-.317.422-.211.633.105.211.422.317.633.211.105 0 .21-.105.316-.105.211 0 .317-.106.422-.211.211-.106.317-.422.211-.633" mask="url(#du)"/>
        </g>
        <g transform="translate(2.647 3.049)">
            <mask id="dw" fill="#fff">
                <use xlink:href="#dv"/>
            </mask>
            <path fill="#FFF" d="M20.5 35.584c-.21-.211-.527-.211-.632 0h-.106a.454.454 0 0 0-.422.422c0 .21.211.422.422.422.317 0 .528-.106.739-.317.21 0 .21-.316 0-.527" mask="url(#dw)"/>
        </g>
        <g transform="translate(2.647 3.049)">
            <mask id="dy" fill="#fff">
                <use xlink:href="#dx"/>
            </mask>
            <path fill="#FFF" d="M23.666 33.157c-.105 0-.21.105-.317.105a.454.454 0 0 0-.421.422c0 .212.21.422.421.422.106 0 .317 0 .423-.105a.58.58 0 0 0 .316-.528c.106-.105-.105-.316-.422-.316" mask="url(#dy)"/>
        </g>
        <g transform="translate(2.647 3.049)">
            <mask id="dA" fill="#fff">
                <use xlink:href="#dz"/>
            </mask>
            <path fill="#FFF" d="M25.67 29.464c-.21 0-.421.21-.421.422 0 0 0 .105-.105.105-.212.211-.212.528 0 .633.21.211.527.211.633 0 .21-.21.422-.527.422-.844 0-.105-.212-.316-.528-.316" mask="url(#dA)"/>
        </g>
        <g transform="translate(2.647 3.049)">
            <mask id="dC" fill="#fff">
                <use xlink:href="#dB"/>
            </mask>
            <path fill="#FFF" d="M27.57 25.56c-.21-.106-.527-.106-.633.21-.105.317-.317.529-.317.95 0 .211.212.423.423.423.316 0 .422-.212.422-.423v-.105c.105-.106.105-.211.21-.316.212-.423.106-.634-.105-.74" mask="url(#dC)"/>
        </g>
        <g transform="translate(2.647 3.049)">
            <mask id="dE" fill="#fff">
                <use xlink:href="#dD"/>
            </mask>
            <path fill="#FFF" d="M28.52 21.34a.454.454 0 0 0-.422.421l-.106.106c-.21.21-.21.527 0 .633.211.211.528.211.633 0 .212-.211.422-.528.422-.844 0-.106-.21-.317-.527-.317" mask="url(#dE)"/>
        </g>
        <g transform="translate(2.647 3.049)">
            <mask id="dG" fill="#fff">
                <use xlink:href="#dF"/>
            </mask>
            <path fill="#FFF" d="M31.158 19.334h-.422c-.211.106-.422.317-.422.528 0 .211.21.422.422.422.105 0 .21 0 .316-.105h.106a.454.454 0 0 0 .422-.422.454.454 0 0 0-.422-.423" mask="url(#dG)"/>
        </g>
        <g transform="translate(2.647 3.049)">
            <mask id="dI" fill="#fff">
                <use xlink:href="#dH"/>
            </mask>
            <path fill="#FFF" d="M33.795 21.656c-.105-.317-.422-.528-.527-.844-.105-.212-.422-.317-.633-.212-.211.106-.317.423-.211.634.105.316.422.527.527.844.106.21.422.317.634.21.316-.105.422-.421.21-.632" mask="url(#dI)"/>
        </g>
        <g transform="translate(2.647 3.049)">
            <mask id="dK" fill="#fff">
                <use xlink:href="#dJ"/>
            </mask>
            <path fill="#FFF" d="M35.167 25.243v-.211c0-.21-.21-.422-.422-.422-.21 0-.528.211-.422.422 0 .106 0 .317.106.422v.212c0 .21.21.421.422.421.21 0 .527-.21.422-.421 0-.106 0-.317-.106-.423" mask="url(#dK)"/>
        </g>
        <g transform="translate(2.647 3.049)">
            <mask id="dM" fill="#fff">
                <use xlink:href="#dL"/>
            </mask>
            <path fill="#FFF" d="M36.117 28.936c-.106-.21-.106-.316-.106-.527a.454.454 0 0 0-.422-.422c-.21 0-.422.21-.422.422 0 .422 0 .738.211 1.055.106.21.422.316.633.21.211-.21.211-.527.106-.738" mask="url(#dM)"/>
        </g>
        <g transform="translate(2.647 3.049)">
            <mask id="dO" fill="#fff">
                <use xlink:href="#dN"/>
            </mask>
            <path fill="#FFF" d="M37.805 32.313l-.422-.845c-.105-.21-.422-.316-.633-.21-.211.105-.317.422-.211.633l.422.844c.105.21.422.316.633.21.211-.105.317-.421.211-.632" mask="url(#dO)"/>
        </g>
        <g transform="translate(2.647 3.049)">
            <mask id="dQ" fill="#fff">
                <use xlink:href="#dP"/>
            </mask>
            <path fill="#FFF" d="M39.915 34.845c-.105 0-.105-.106-.21-.106 0 0-.106 0-.106-.105-.106 0-.106-.105-.211-.211-.211-.21-.528-.21-.633 0-.211.21-.211.527 0 .633.21.211.422.317.633.528.21.105.527.105.633-.211.21-.106.105-.423-.106-.528" mask="url(#dQ)"/>
        </g>
        <g transform="translate(2.647 3.049)">
            <mask id="dS" fill="#fff">
                <use xlink:href="#dR"/>
            </mask>
            <path fill="#FFF" d="M43.714 36.533c-.211 0-.317-.105-.528-.105h-.21s-.212-.106-.106 0c-.211-.106-.528-.106-.633.21-.106.212-.106.528.21.634.317.21.74.21 1.056.316.528.106.844-.844.21-1.055" mask="url(#dS)"/>
        </g>
        <g transform="translate(2.647 3.049)">
            <mask id="dU" fill="#fff">
                <use xlink:href="#dT"/>
            </mask>
            <path fill="#FFF" d="M47.196 37.06h-.739a.454.454 0 0 0-.422.423c0 .21.211.422.422.422h.844c.211 0 .422-.211.422-.422s-.21-.422-.527-.422" mask="url(#dU)"/>
        </g>
        <g transform="translate(2.647 3.049)">
            <mask id="dW" fill="#fff">
                <use xlink:href="#dV"/>
            </mask>
            <path fill="#FFF" d="M51.627 37.8h-.844c-.21 0-.422.21-.422.422 0 .21.211.422.422.422h.844c.211 0 .422-.212.422-.422a.454.454 0 0 0-.422-.423" mask="url(#dW)"/>
        </g>
        <g transform="translate(2.647 3.049)">
            <mask id="dY" fill="#fff">
                <use xlink:href="#dX"/>
            </mask>
            <path fill="#FFF" d="M54.054 38.854c-.21-.21-.527-.21-.633 0-.21.212-.21.423 0 .633 0 0-.105.106 0 .106-.105.211-.105.528.211.633.211.105.528.105.633-.211.106-.316.106-.844-.21-1.16" mask="url(#dY)"/>
        </g>
        <g transform="translate(2.647 3.049)">
            <mask id="ea" fill="#fff">
                <use xlink:href="#dZ"/>
            </mask>
            <path fill="#FFF" d="M8.156 40.12c-.211 0-.423.212-.423.423v.528c0 .21.212.421.423.421.21 0 .422-.21.422-.421v-.528a.454.454 0 0 0-.422-.422" mask="url(#ea)"/>
        </g>
        <g transform="translate(2.647 3.049)">
            <mask id="ec" fill="#fff">
                <use xlink:href="#eb"/>
            </mask>
            <path fill="#FFF" d="M9.95 42.97c0-.106-.106-.106-.106-.211-.211-.212-.528-.212-.633 0-.211.21-.211.527 0 .633 0 .105.105.105.105.21.106.212.211.212.422.212a.454.454 0 0 0 .422-.422c0-.211-.105-.317-.21-.423" mask="url(#ec)"/>
        </g>
        <g transform="translate(2.647 3.049)">
            <mask id="ee" fill="#fff">
                <use xlink:href="#ed"/>
            </mask>
            <path fill="#FFF" d="M13.853 45.08c-.316-.317-.738-.528-1.16-.528a.454.454 0 0 0-.422.422c0 .317.21.422.422.422h.105c.106.106.211.106.317.211.21.212.527.212.633 0 .316 0 .316-.316.105-.527" mask="url(#ee)"/>
        </g>
        <g transform="translate(2.647 3.049)">
            <mask id="eh" fill="#fff">
                <use xlink:href="#eg"/>
            </mask>
            <path fill="#FFF" d="M17.124 46.557c-.21-.211-.527-.317-.844-.317a.454.454 0 0 0-.422.422c0 .212.211.423.422.423h.317c.21.105.422.105.633 0 .105 0 .105-.317-.106-.528" mask="url(#eh)"/>
        </g>
        <g transform="translate(2.647 3.049)">
            <mask id="ej" fill="#fff">
                <use xlink:href="#ei"/>
            </mask>
            <path fill="#FFF" d="M19.235 48.878c-.211-.316-.423-.633-.845-.633-.21 0-.422.211-.422.422s.106.422.317.422l.105.106c.106.21.422.316.634.21.21-.104.316-.316.21-.527" mask="url(#ej)"/>
        </g>
        <g transform="translate(2.647 3.049)">
            <mask id="el" fill="#fff">
                <use xlink:href="#ek"/>
            </mask>
            <path fill="#FFF" d="M18.707 57.214c-.106.422-.106.844-.106 1.16 0 .634.95.634.95 0 0-.316 0-.633.106-.949.21-.528-.74-.844-.95-.21" mask="url(#el)"/>
        </g>
        <g transform="translate(2.647 3.049)">
            <mask id="en" fill="#fff">
                <use xlink:href="#em"/>
            </mask>
            <path fill="#FFF" d="M18.39 60.274c-.316 0-.422.211-.422.422 0 .21-.105.528-.105.844 0 .21.211.422.422.422.316 0 .422-.211.422-.422s.106-.528.106-.844c.105-.21-.106-.422-.422-.422" mask="url(#en)"/>
        </g>
        <g transform="translate(2.647 3.049)">
            <mask id="ep" fill="#fff">
                <use xlink:href="#eo"/>
            </mask>
            <path fill="#FFF" d="M19.446 64.389c-.106 0-.106-.105-.212-.105 0 0-.105 0-.105-.106-.105 0-.105-.106-.211-.211-.21-.211-.527-.211-.633 0-.211.21-.211.527 0 .633.21.211.422.317.633.527.211.106.528.106.633-.21.211-.106.106-.423-.105-.528" mask="url(#ep)"/>
        </g>
        <g transform="translate(2.647 3.049)">
            <mask id="er" fill="#fff">
                <use xlink:href="#eq"/>
            </mask>
            <path fill="#FFF" d="M22.928 62.912c-.212-.211-.528-.211-.634 0l-.316.316h-.106c-.105 0-.105.106-.21.106-.212.105-.317.422-.212.633.106.21.422.316.634.21.316-.105.527-.421.738-.632.317-.106.317-.422.106-.633" mask="url(#er)"/>
        </g>
        <g transform="translate(2.647 3.049)">
            <mask id="et" fill="#fff">
                <use xlink:href="#es"/>
            </mask>
            <path fill="#FFF" d="M26.304 59.746l-1.266.95c-.422.422.21 1.055.633.633l1.266-.95c.528-.422-.211-1.055-.633-.633" mask="url(#et)"/>
        </g>
        <g transform="translate(2.647 3.049)">
            <mask id="ev" fill="#fff">
                <use xlink:href="#eu"/>
            </mask>
            <path fill="#FFF" d="M29.258 57.847c-.21-.211-.527-.211-.633 0l-.105.105-.317.317c-.21.211-.21.528 0 .633.211.211.528.211.633 0l.106-.105.316-.317c.212-.21.212-.528 0-.633" mask="url(#ev)"/>
        </g>
        <g transform="translate(2.647 3.049)">
            <mask id="ex" fill="#fff">
                <use xlink:href="#ew"/>
            </mask>
            <path fill="#FFF" d="M32.213 56.37h-.528a.454.454 0 0 0-.422.422c0 .21.211.422.422.422h.528a.454.454 0 0 0 .422-.422c.105-.211-.211-.422-.422-.422" mask="url(#ex)"/>
        </g>
        <g transform="translate(2.647 3.049)">
            <mask id="ez" fill="#fff">
                <use xlink:href="#ey"/>
            </mask>
            <path fill="#FFF" d="M35.167 56.897c-.316-.316-.527-.422-.95-.422a.454.454 0 0 0-.422.422c0 .211.212.423.422.423l.106.105c.211.211.528.211.633 0 .317-.105.317-.422.211-.528" mask="url(#ez)"/>
        </g>
        <g transform="translate(2.647 3.049)">
            <mask id="eB" fill="#fff">
                <use xlink:href="#eA"/>
            </mask>
            <path fill="#FFF" d="M37.594 59.43c-.211-.422-.528-.633-.95-.633-.21 0-.422.21-.422.422 0 .21.211.422.422.422l.106.105c.105.211.422.317.633.211.317 0 .422-.316.211-.527" mask="url(#eB)"/>
        </g>
        <g transform="translate(2.647 3.049)">
            <mask id="eD" fill="#fff">
                <use xlink:href="#eC"/>
            </mask>
            <path fill="#FFF" d="M39.915 61.329c-.105-.211-.21-.317-.422-.317-.21 0-.527.212-.422.422 0 .422.317.739.739.739.21 0 .422-.21.422-.422 0-.105-.106-.317-.317-.422" mask="url(#eD)"/>
        </g>
        <g transform="translate(2.647 3.049)">
            <mask id="eF" fill="#fff">
                <use xlink:href="#eE"/>
            </mask>
            <path fill="#FFF" d="M42.237 62.806h-.422c-.211 0-.423.211-.423.422s.212.422.422.422h.423c.21 0 .422-.21.422-.422.105-.21-.211-.422-.422-.422" mask="url(#eF)"/>
        </g>
        <g transform="translate(2.647 3.049)">
            <mask id="eH" fill="#fff">
                <use xlink:href="#eG"/>
            </mask>
            <path fill="#FFF" d="M44.663 62.384a.454.454 0 0 0-.422.422c-.105.106-.105.211-.105.317v.21c0 .106.105.212.211.317.105 0 .105.106.21.106.106 0 .212 0 .212-.106.105 0 .105-.105.21-.21.107-.212.107-.423.107-.528.105-.317-.106-.528-.423-.528" mask="url(#eH)"/>
        </g>
        <g transform="translate(2.647 3.049)">
            <mask id="eJ" fill="#fff">
                <use xlink:href="#eI"/>
            </mask>
            <path fill="#FFF" d="M44.558 59.219c-.211-.211-.527-.211-.633 0-.211.21-.211.527 0 .633v.105c0 .211.21.422.422.422.21 0 .422-.21.422-.422.105-.316 0-.527-.211-.738" mask="url(#eJ)"/>
        </g>
        <g transform="translate(2.647 3.049)">
            <mask id="eL" fill="#fff">
                <use xlink:href="#eK"/>
            </mask>
            <path fill="#FFF" d="M44.874 49.934a.454.454 0 0 0-.422-.423c-.21 0-.422.106-.422.317 0 0 0 .106-.105.106-.106.105-.106.21-.106.316 0 .211.211.422.422.422s.423-.106.423-.316c0 0 0-.106.105-.106.105-.105.105-.211.105-.316" mask="url(#eL)"/>
        </g>
        <g transform="translate(2.647 3.049)">
            <mask id="eN" fill="#fff">
                <use xlink:href="#eM"/>
            </mask>
            <path fill="#FFF" d="M47.407 46.98c-.211-.212-.528-.212-.633 0l-.106.104a.454.454 0 0 0-.422.423c0 .21.211.527.422.422.317 0 .528-.211.739-.422.21 0 .21-.317 0-.528" mask="url(#eN)"/>
        </g>
        <g transform="translate(2.647 3.049)">
            <mask id="eP" fill="#fff">
                <use xlink:href="#eO"/>
            </mask>
            <path fill="#FFF" d="M49.306 43.603a4.57 4.57 0 0 1-.738.633c-.212.105-.317.422-.212.633.106.21.423.316.634.21.316-.21.633-.527.95-.738.527-.527-.106-1.16-.634-.738" mask="url(#eP)"/>
        </g>
        <g transform="translate(2.647 3.049)">
            <mask id="eR" fill="#fff">
                <use xlink:href="#eQ"/>
            </mask>
            <path fill="#FFF" d="M52.366 42.02c-.21-.211-.528-.211-.633 0l-.106.105c-.21.211-.21.528 0 .634.211.21.528.21.633 0l.106-.106c.106-.211.106-.528 0-.633" mask="url(#eR)"/>
        </g>
        <g fill="#FFF">
            <path d="M53.207 16.74c.976-1.302 2.29-2.325 3.17-3.7.29-.453-.382-.953-.674-.498-.881 1.376-2.194 2.398-3.17 3.7-.325.433.35.93.674.497"/>
            <path d="M56.01 12.71c0 .002-.007.008-.015.02-.511.799-1.163 1.482-1.793 2.143-.479.502-.974 1.021-1.391 1.578-.02.027-.017.035-.014.042.013.03.054.06.088.065.011.001.022.003.044-.027.442-.589.951-1.123 1.444-1.64.635-.666 1.236-1.296 1.712-2.039.02-.031.021-.052.004-.08a.13.13 0 0 0-.08-.062m-2.934 4.52a.729.729 0 0 1-.273.018.817.817 0 0 1-.644-.481.722.722 0 0 1 .097-.733c.442-.59.951-1.124 1.445-1.641.635-.666 1.235-1.296 1.71-2.038.227-.354.65-.445 1.008-.216.33.211.515.676.252 1.088-.512.8-1.164 1.483-1.794 2.144-.48.502-.974 1.021-1.39 1.577a.749.749 0 0 1-.41.282M57.454 19.57c.454-.286.057-1.025-.4-.736-.555.35-1.063.763-1.644 1.072-.477.253-.077.99.4.736.581-.308 1.09-.722 1.644-1.072"/>
            <path d="M57.26 19.116c-.001.001-.01.004-.022.012-.204.129-.41.272-.608.41-.334.233-.68.474-1.057.675-.03.015-.03.024-.03.032a.125.125 0 0 0 .052.096c.01.006.02.012.053-.006.34-.18.652-.398.984-.63.205-.142.417-.29.636-.428.032-.02.041-.038.038-.071a.13.13 0 0 0-.046-.09m-1.463 1.902a.718.718 0 0 1-.57-.088.817.817 0 0 1-.379-.71.722.722 0 0 1 .4-.621c.34-.18.653-.4.985-.63.205-.143.416-.291.635-.429.355-.225.778-.126 1.005.233.21.332.18.831-.234 1.091-.206.13-.411.274-.61.412-.334.232-.679.473-1.055.673a.819.819 0 0 1-.177.07M22.291 29.56c-1.358-.896-2.939-1.415-4.232-2.413-.425-.329.04-1.026.468-.695 1.293.997 2.873 1.517 4.231 2.413.452.298-.016.994-.467.695"/>
            <path d="M18.29 26.712a.157.157 0 0 0-.05.085c-.006.033.002.052.032.075.698.539 1.476.929 2.299 1.342.638.32 1.297.651 1.912 1.056.03.021.04.016.05.011a.125.125 0 0 0 .062-.09c0-.008 0-.017-.028-.036-.58-.383-1.222-.705-1.842-1.016-.816-.41-1.66-.833-2.41-1.412-.017-.013-.026-.015-.026-.015m4.41 3.246a.736.736 0 0 1-.6-.107c-.579-.383-1.22-.705-1.84-1.016-.816-.41-1.66-.833-2.412-1.413-.387-.299-.37-.799-.13-1.11.26-.335.689-.392 1.022-.136.697.539 1.475.929 2.297 1.342.639.32 1.3.651 1.914 1.057.23.153.354.392.338.657a.818.818 0 0 1-.444.671.77.77 0 0 1-.146.055"/>
        </g>
    </g>
</svg>
