<svg xmlns="http://www.w3.org/2000/svg" width="294" height="210" viewBox="0 0 294 210">
    <g fill="none" fill-rule="evenodd">
        <path fill="#B5E8F7" d="M152.034 34.488c-10.488 0-22.567 1.122-36.709 3.712C44.614 51.157 21.208 29.296 7.111 81.506-6.986 133.716.063 149.346 26.6 180.17c26.536 30.823 102.459 26.227 157.511 27.5 11.097.257 26.787 1.762 42.823 1.762 33.483 0 68.502-6.557 66.562-44.737-2.302-45.267-9.35-76.57-42.218-88.431-33.45-12.071-45.274-41.776-99.244-41.776"/>
        <path fill="#333" d="M253.233 158.41s-3.814 2.191-7 5.114c-4.696 4.305-9.112 9.737-12.792 16.21-4.598 8.087-7.918 17.345-10.001 27.452h4.535c2.435-8.05 5.607-15.518 9.332-21.775 3.41-5.73 7.35-10.427 11.646-14.16 2.037-1.77 6.32-4.497 6.32-4.497l-2.04-8.343z"/>
        <path fill="#DAB755" d="M259.12 39s-20.384 27.197-37.591 75.31c-16.234 45.391-17.327 58.43-24.529 93.704l15.24.986c5.81-25.321 9.337-41.19 22.877-76.762 12.294-32.298 37.77-72.175 37.77-72.175L259.12 39zM266.141 191.595s-4.473-.41-7.217 3.782c-3.408 5.204-3.478 9.568-3.478 9.568 1.157-1.998 2.753-3.934 4.127-5.347 3.414-3.51 8.085-3.868 8.085-3.868l-1.517-4.135z"/>
        <path fill="#333" d="M89.832 181.622s9.212-3.223 18.647 1.938c12.403 6.785 16.985 16.73 16.985 16.73-4.426-3.148-9.686-5.82-13.952-7.602-10.6-4.428-19.422-1.692-19.422-1.692l-2.258-9.374z"/>
        <path fill="#FFF" d="M77 2.16S86.631.586 95.027 7.307c11.036 8.836 13.822 19.426 13.822 19.426-3.813-3.87-8.529-7.414-12.42-9.91-9.67-6.2-18.833-5.038-18.833-5.038L77 2.16z"/>
        <path fill="#DAB755" d="M33.172 165.495c-2.285.952-2.94 1.64-4.306 3.367-.187-.603-.787-2.732-.787-2.732s1.26-3.806 3.776-6.136c.361 1.573.923 3.757 1.317 5.501M278.6 130.222c-3.707-4.235-5.027-4.907-7.958-5.916.117-1.242.608-5.478.608-5.478s4.067-1.975 8.942 1.008c-.476 2.932-1.055 7.15-1.591 10.386"/>
        <path fill="#333" d="M99.42 160.628l-1.947-4.157 2.217-8.512 4.15 2.998z"/>
        <path fill="#666" d="M250.942 116.286l-1.946-4.157 2.216-8.512 4.15 2.998z"/>
        <path fill="#DAB755" d="M237.26 38.288l.471-1.335a1.094 1.094 0 0 1 1.053-.719l1.459.02c1.061.014 1.522-1.294.671-1.908l-1.168-.845a1.04 1.04 0 0 1-.381-1.19l.47-1.335c.342-.972-.803-1.8-1.67-1.207l-1.192.813a1.128 1.128 0 0 1-1.29-.017l-1.168-.845c-.85-.615-2.018.182-1.704 1.163l.432 1.346c.14.44-.027.915-.415 1.18l-1.192.812c-.868.593-.445 1.912.617 1.926l1.459.02c.474.006.891.307 1.032.746l.431 1.347c.315.98 1.744 1 2.086.028M29.077 99.099l.47-1.335a1.094 1.094 0 0 1 1.053-.719l1.458.02c1.062.014 1.523-1.294.672-1.909l-1.168-.844a1.039 1.039 0 0 1-.381-1.19l.47-1.335c.342-.972-.803-1.8-1.67-1.208l-1.193.814a1.127 1.127 0 0 1-1.288-.018l-1.169-.844c-.85-.615-2.018.181-1.704 1.162l.432 1.347c.14.439-.027.915-.415 1.18l-1.192.812c-.868.593-.445 1.911.616 1.926l1.46.02c.474.006.89.307 1.032.746l.43 1.347c.316.98 1.744 1 2.087.028"/>
        <path fill="#BA9D4F" d="M77.1 36.472c.653 0 1.339-.283 1.8-.742.441-.44.774-1.16.746-1.792-.062-1.372-1.118-2.533-2.545-2.533a2.63 2.63 0 0 0-1.8.742c-.441.44-.774 1.16-.745 1.791.062 1.373 1.118 2.534 2.545 2.534"/>
        <path fill="#666" d="M56.091 72.579c1.697 0 1.7-2.534 0-2.534-1.696 0-1.699 2.534 0 2.534"/>
        <path fill="#DBDBDB" d="M146.933 22.7a5.55 5.55 0 0 0 .034-.1c.451-1.346-.062-2.952-1.044-3.928-.981-.977-2.594-1.488-3.948-1.039l-.102.034c-1.382.46-2.476 1.426-2.872 2.858a4.11 4.11 0 0 0 1.057 3.982 4.161 4.161 0 0 0 4.002 1.052c1.44-.394 2.412-1.483 2.873-2.858"/>
        <path fill="#333" d="M267.14 128.955c2.97 0 2.974-4.434 0-4.434-2.968 0-2.973 4.434 0 4.434M38.583 56.742c2.12 0 2.124-3.167 0-3.167-2.12 0-2.123 3.167 0 3.167M65.641 97.151l22.52 28.004 30.35-5.7 22.255-29.408-23.727-29.504-22.49 28.45z"/>
        <path fill="#666" d="M118.511 119.454L93.654 88.436l24.745-29.139 22.603 30.776z"/>
        <path fill="#000" d="M95.316 90.087L65.64 97.283l24.265-24.28 28.577-13.727z"/>
        <path fill="#DAB755" d="M82.515 92.849l-8.495 2.406 6.145 8.362c3.005-.845 6.024-1.637 9.032-2.472l-6.682-8.296zM109.155 71.66l-5.056 6.736 6.56 8.118c1.567-2.315 3.51-4.447 5.277-6.586l-6.781-8.267z"/>
        <path fill="#FFF6B6" d="M82.686 93.157l23.374-27.952-7.695 2.909-24.342 27.142z"/>
        <path fill="#FFF6B6" d="M104.133 78.393L77.1 85.881l6.228-6.26 25.833-7.953z"/>
        <path fill="#DAB755" d="M84.418 79.347s-13.16-.091-13.77 1.224c-.609 1.315.195 6.477 1.612 6.175 1.417-.302 7.708-6.519 12.158-7.399M61.444 76.31c1.53-9.51 31.573 2.164 31.573 2.164S73.872 92.921 69.669 92.849c-4.202-.072-9.755-7.029-8.225-16.54z"/>
        <path fill="#DAB755" d="M95.014 68.948s-3.6-.405-4.202.898c-.602 1.304-1.007 4.915-1.007 4.915 4.906-3.104 5.21-5.813 5.21-5.813m-6.29 9.965c-.675.061-6.613-12.79-2.607-15.995 4.006-3.206 9.908-2.998 12.806-.386 2.898 2.613.233 15.43-10.198 16.38"/>
        <g>
            <path fill="#333" d="M175.781 93.476l10.191 19.93 19.467.347 16.818-15.255-10.736-20.852-17.182 14.547z"/>
            <path fill="#000" d="M205.492 113.753l-11.248-21.967 18.373-14.773 9.64 21.448z"/>
            <path fill="#666" d="M194.765 92.771l-18.984.711L193.584 81.8l19.123-4.786z"/>
            <path fill="#DAB755" d="M187.241 93.063l-6.362.213 2.947 5.274c1.99-.252 3.958-.283 5.962-.194l-2.547-5.293zM206.042 82.869l-4.16 3.645 2.658 5.068c1.164-1.301 2.412-2.48 3.71-3.664l-2.208-5.049z"/>
            <path fill="#F0D895" d="M187.241 93.065l17.938-14.152-6.23 1.49-18.065 12.878z"/>
            <path fill="#F0D895" d="M201.89 86.514l-17.832 1.267 4.659-3.154 17.344-1.75z"/>
            <path fill="#DAB755" d="M189.538 84.548s-7.999-1.675-8.532-.953c-.533.722-.682 3.948.218 3.94.9-.01 5.497-3.002 8.314-2.987M175.93 79.88c1.404-3.716 7.622-2.2 18.652 4.55-8.76 4.695-13.99 6.856-15.69 6.483-2.549-.56-5.068-5.459-2.962-11.033z"/>
            <path fill="#DAB755" d="M197.14 79.314s-2.116-.689-2.637.025c-.52.715-1.204 2.85-1.204 2.85 3.33-1.274 3.842-2.875 3.842-2.875m-4.997 5.253c-.414-.046-2.42-8.55.38-9.996 2.799-1.446 6.324-.593 7.75 1.344 1.424 1.937-1.739 9.36-8.13 8.652"/>
        </g>
        <g>
            <path fill="#BA9D4F" d="M137.847 117.386l-27.196 33.222 14.365 34.508 39.946 17.785 28.652-35.002-38.974-18.972z"/>
            <path fill="#DAB755" d="M125.572 185.094l30.131-36.828 40.299 21.047-30.456 33.588z"/>
            <path fill="#FFF6B6" d="M154.02 150.04l-15.914-32.654 34.588 22.105 23.308 30.154z"/>
            <path fill="#333" d="M147.656 136.2l-5.231-9.906-6.11 7.434a278.654 278.654 0 0 0 3.881 11.57l7.46-9.099zM179.29 161.835l-9.538-4.449-5.98 7.114c3.347 1 6.556 2.37 9.663 3.958l5.855-6.623z"/>
            <path fill="#666" d="M147.164 136.46l38.691 20.12-5.462-8.732-38.109-21.554z"/>
            <path fill="#666" d="M169.756 157.396l-15.534-29.914 8.869 5.784 16.199 28.57z"/>
            <path fill="#333" d="M164.327 135.038s-3.212-15.143-4.909-15.518c-1.696-.375-7.55 1.823-6.838 3.377.711 1.554 9.592 7.246 11.747 12.141m-19.562-13.61c-.976-4.847 5.786-12.945 17.332-13.537 11.545-.591 5.426 36.812 5.426 36.812s-21.782-18.428-22.758-23.275"/>
            <path fill="#333" d="M179.292 145.164s-.43-4.359-2.092-4.74c-1.663-.38-5.953.056-5.953.056 4.828 5.012 8.045 4.684 8.045 4.684m-13.13-4.908c-.24-.782 13.18-11.056 17.9-7.135 4.72 3.923 5.955 10.951 3.65 15.038s-17.838 4.185-21.55-7.903"/>
        </g>
        <g>
            <path fill="#BA9D4F" d="M152.862 35.061V51.82l12.85 6.824 16.12-4.526.316-17.428-16.436 3.857z"/>
            <path fill="#DAB755" d="M165.595 58.643V40.067l17.826-3.543-1.526 17.624z"/>
            <path fill="#AB8A30" d="M165.872 40.906l-13.01-5.847 16.036-1.754 14.523 3.216z"/>
            <path fill="#333" d="M159.984 38.37l-3.939-1.898v4.864c1.4.507 2.723 1.15 3.82 2.104l.119-5.07zM176.418 42.63v-3.942l-3.907.943.107 4.442c.58-.168 1.67-.632 2.253-.783a90.64 90.64 0 0 0 1.547-.66z"/>
            <path fill="#666" d="M159.986 38.372l16.968-3.28-3.952-1.154-17.001 2.534z"/>
            <path fill="#666" d="M172.504 39.64l-12.002-5.245 4.097-.457 11.819 4.751z"/>
            <path fill="#333" d="M164.826 33.718s-4.668-3.753-5.26-3.46c-.59.294-1.773 2.35-1.182 2.644.592.293 4.605-.13 6.442.816m-7.329-7.572c2.168-1.957 5.716 1.164 10.643 9.364-7.293.024-11.432-.37-12.417-1.179-1.479-1.213-1.479-5.247 1.774-8.185z"/>
            <path fill="#333" d="M172.326 33.087s-1.252-1.213-1.878-.91c-.625.303-1.876 1.516-1.876 1.516 2.815.303 3.754-.606 3.754-.606m-5.427 1.818c-.277-.176 1.36-6.668 3.863-6.668 2.502 0 4.693 1.819 5.005 3.637.313 1.819-4.598 5.759-8.868 3.031"/>
        </g>
        <path fill="#DAB755" d="M49.077 9.099l.47-1.335a1.094 1.094 0 0 1 1.053-.719l1.458.02c1.062.014 1.523-1.294.672-1.909l-1.168-.844a1.039 1.039 0 0 1-.381-1.19l.47-1.335c.342-.972-.803-1.8-1.67-1.208l-1.193.814a1.127 1.127 0 0 1-1.288-.018L46.33.531c-.85-.615-2.018.181-1.704 1.162l.432 1.347c.14.439-.027.915-.415 1.18l-1.192.812c-.868.593-.445 1.911.616 1.926l1.46.02c.474.006.89.307 1.032.746l.43 1.347c.316.98 1.744 1 2.087.028M208.6 20.222c-3.707-4.235-5.027-4.907-7.958-5.916.117-1.242.608-5.478.608-5.478s4.067-1.975 8.942 1.008c-.476 2.932-1.055 7.15-1.591 10.386"/>
    </g>
</svg>
