<svg xmlns="http://www.w3.org/2000/svg" width="24" height="24" viewBox="0 0 24 24">
    <path fill="#FFF" fill-rule="evenodd" d="M3 12.6v7.8c0 .663.537 1.2 1.2 1.2h7.2v-9H3zm9.6 0v9h7.2c.663 0 1.2-.537 1.2-1.2v-7.8h-8.4zm7.8-5.4h-4.728c.374-.023.789-.127 1.12-.317.743-.425 1.204-1.215 1.208-2.073.003-.857-.45-1.651-1.192-2.083-.74-.432-1.655-.436-2.4-.01-.39.224-.676.508-.881.874L12 6.185l-1.527-2.593c-.205-.366-.49-.651-.882-.875-.744-.425-1.659-.422-2.4.01-.74.432-1.194 1.226-1.19 2.083.003.858.464 1.648 1.208 2.074.33.189.745.293 1.119.316H3.6c-.663 0-1.2.537-1.2 1.2v3h9V7.204h1.2V11.4h9v-3c0-.663-.537-1.2-1.2-1.2zM7.359 4.204c.214-.373.612-.604 1.043-.604.209 0 .413.054.594.159.199.114.332.243.43.42l.007.01.006.011 1.062 1.804h-2.02c-.234 0-.506-.065-.676-.162-.575-.33-.774-1.062-.446-1.638zM14.56 4.2l.006-.01.006-.011c.1-.177.232-.306.431-.42.18-.104.386-.16.594-.159.544 0 1.021.365 1.161.891.14.526-.09 1.08-.564 1.35-.17.098-.442.164-.676.164H13.5L14.56 4.2zm2.227 3.271c.077 0 .077-.12 0-.12s-.077.12 0 .12z"/>
</svg>
