<svg xmlns="http://www.w3.org/2000/svg" xmlns:xlink="http://www.w3.org/1999/xlink" width="341" height="338" viewBox="0 0 341 338">
    <defs>
        <path id="a" d="M.372 5.22h17.387v2.8H.377z"/>
        <path id="c" d="M0 5.099h10.575v3.337H0z"/>
        <path id="e" d="M.12.473h175.065v185.794H.121z"/>
    </defs>
    <g fill="none" fill-rule="evenodd">
        <path fill="#724F47" d="M108.802 144.273c.594-.782 12.825-18.976 13.583-14.177.618 3.94-5.75 11.507-1.366 14.404 3.539 2.337 6.228-3.38 8.087-5.582 2.284-2.714 5.336-6.103 8.576-2.496 4.23 4.698-2.859 12.375-4.452 16.62-3.588 9.55 1.579 7.44 5.37.627 1.786-3.206 15.263-23.447 17.798-13.254 1.323 5.33-2.579 9.097-4.134 13.78-1.429 4.313-5.301 9.146-4.244 13.834 7.137-7.667 9.889-19.154 17.967-26.06 3.226-2.752 7.253-3.93 7.219 1.787-.034 5.795-14.534 31.714-17.745 39.715a25.2 25.2 0 0 0-1.738 7.417c-.493 6.108 1.096 12.173 2.906 18.382 2.415 8.276 5.563 16.871 6.896 25.234.96 6.026-1.352 11.067-3.786 16.389-.464 1.014-6.132 16.61-3.887 16.291-10.382 1.473-20.763 2.96-31.144 4.442-4.052.58-15.79 4.317-18.32.078-1.743-2.922.522-10.642.83-13.907.479-4.997.855-10.053.068-15.045-2.559-16.186-13.167-29.986-17.735-45.51-3.298-11.187-7.156-18.3-.063-29.02 5.674-8.585 13.1-15.789 19.314-23.95"/>
        <path fill="#9EABC0" d="M158.648 145.326l.029.048-.03-.048"/>
        <path fill="#FFF" fill-rule="nonzero" d="M68.479 26.64c4.152 2.336 8.619 4.046 12.883 6.16 1.617.802.198 3.216-1.415 2.415-4.264-2.11-8.73-3.82-12.878-6.157-1.574-.888-.164-3.307 1.41-2.419M56.272 51.58a56.784 56.784 0 0 1 17.509 4.669c1.651.724.227 3.139-1.41 2.42a52.55 52.55 0 0 0-16.094-4.289c-1.786-.173-1.8-2.974 0-2.8m-6.721 22.4c5.65.038 11.202 1.105 16.803 1.68 1.772.183 1.792 2.984 0 2.8-5.601-.579-11.154-1.641-16.803-1.68-1.806-.01-1.806-2.81 0-2.8"/>
        <g transform="matrix(-1 0 0 1 63.042 87.798)">
            <mask id="b" fill="#fff">
                <use xlink:href="#a"/>
            </mask>
            <path fill="#FFF" d="M16.398 5.22H1.738c-1.82 0-1.82 2.8 0 2.8h14.66c1.82 0 1.82-2.8 0-2.8" mask="url(#b)"/>
        </g>
        <path fill="#FFF" fill-rule="nonzero" d="M54.447 118.411c3.356-1.651 6.876-2.878 10.415-4.06 1.72-.575 2.448 2.129.749 2.703-3.317 1.101-6.61 2.231-9.75 3.776-1.612.792-3.031-1.622-1.414-2.414m1.439 22.41c4.22-2.545 8.228-5.433 12.448-7.973 1.555-.932 2.748 1.603 1.212 2.526-4.22 2.54-8.228 5.427-12.453 7.967-1.545.937-2.742-1.603-1.207-2.52m12.564 20.709c3.438-2.303 6.837-4.713 9.797-7.624 1.285-1.265 3.27.71 1.98 1.98-3.124 3.075-6.731 5.63-10.362 8.063-1.507 1.004-2.907-1.424-1.415-2.419m174.23 3.94c1.182 5.674 3.79 10.864 6.58 15.905.87 1.58-1.545 2.994-2.418 1.41-2.898-5.229-5.63-10.68-6.862-16.571-.367-1.763 2.332-2.511 2.7-.749m19.241-2.834c3.873 3.815 8.725 6.538 12.318 10.642 1.188 1.352-.787 3.341-1.98 1.98-3.597-4.104-8.445-6.828-12.318-10.642-1.289-1.265.69-3.245 1.98-1.98m10.58-17.18c2.124.56 4.094 1.52 6.16 2.24 1.696.585.967 3.293-.743 2.7-2.066-.72-4.036-1.68-6.161-2.24-1.738-.464-1-3.164.744-2.705m-4.076-26.07c7.562.049 14.892 2.183 22.405 2.801 1.782.145 1.796 2.946 0 2.8-7.509-.617-14.848-2.752-22.405-2.8-1.806-.014-1.806-2.815 0-2.8"/>
        <g transform="matrix(-1 0 0 1 297.822 99.435)">
            <mask id="d" fill="#fff">
                <use xlink:href="#c"/>
            </mask>
            <path fill="#FFF" d="M9.565 5.707C6.842 5.191 4.12 5.1 1.357 5.1c-1.81 0-1.81 2.8 0 2.8 2.51 0 4.993.04 7.465.508 1.762.338 2.52-2.362.743-2.7" mask="url(#d)"/>
        </g>
        <path fill="#FFF" fill-rule="nonzero" d="M274.514 86.093c6.987-1.738 14.206-3.273 20.386-7.141 1.536-.956 2.946 1.463 1.415 2.42-6.388 3.992-13.839 5.624-21.053 7.42-1.752.435-2.496-2.264-.748-2.703v.004zm12.564-26.72l3.356-1.686c.68-.338 1.511-.184 1.917.507.367.628.178 1.574-.502 1.912l-3.361 1.68c-.686.338-1.511.194-1.917-.502-.367-.627-.179-1.574.502-1.912h.005zM272.254 48.02c4.732-1.579 9.542-3.138 13.665-6.021 1.483-1.033 2.883 1.395 1.415 2.419-4.312 3.013-9.392 4.655-14.336 6.301-1.72.575-2.448-2.13-.744-2.699zM257.58 26.46c2.376-1.757 4.906-3.283 7.282-5.04 1.453-1.077 2.849 1.352 1.415 2.414-2.376 1.757-4.911 3.283-7.282 5.04-1.453 1.078-2.849-1.351-1.415-2.413zm-96.948 236.427v3.022c0 1.623-2.51 1.623-2.51 0v-3.022c0-1.623 2.51-1.623 2.51 0zm.377 11.328v3.017c0 1.623-2.511 1.623-2.511 0v-3.017c0-1.628 2.51-1.628 2.51 0zm.381 9.811v3.023c0 1.617-2.52 1.617-2.52 0v-3.023c0-1.622 2.52-1.622 2.52 0zm0 9.435v2.646c0 1.618-2.52 1.618-2.52 0v-2.646c0-1.622 2.52-1.622 2.52 0zm-2.013 9.691c.685 0 1.255.57 1.255 1.256v2.27c0 .68-.57 1.254-1.255 1.254a1.27 1.27 0 0 1-1.26-1.255v-2.27c0-.685.574-1.255 1.255-1.255h.005zm1.637 12.202v3.4c0 1.622-2.52 1.622-2.52 0v-3.4c0-1.622 2.52-1.622 2.52 0zm-7.929-2.265v3.023c0 1.622-2.516 1.622-2.516 0v-3.023c0-1.622 2.511-1.622 2.511 0h.005zm-1.637-11.072c.686 0 1.256.575 1.256 1.256v2.27c0 .685-.57 1.255-1.256 1.255a1.27 1.27 0 0 1-1.255-1.256v-2.27c0-.68.57-1.255 1.255-1.255zm.88-10.444v3.023c0 1.622-2.512 1.622-2.512 0v-3.023c0-1.622 2.511-1.622 2.511 0zm-2.517-12.83c0-1.622 2.52-1.622 2.516 0 0 1.256-.048 2.516-.42 3.733-.483 1.545-2.907.884-2.429-.676.314-1.004.338-2.008.338-3.056h-.005zm3.65-13.592v3.4c0 1.622-2.515 1.622-2.515 0v-3.4c0-1.622 2.516-1.622 2.516 0zm-7.387 62.096v3.018c0 1.622-2.516 1.622-2.516 0v-3.018c0-1.623 2.516-1.623 2.516 0zm.758-10.947v2.642c0 1.622-2.52 1.622-2.52 0V316.3c0-1.622 2.52-1.622 2.52 0zm0-9.44v2.647c0 1.622-2.52 1.622-2.52 0v-2.646c0-1.623 2.52-1.623 2.52 0zm-1.386-12.829c0-1.622 2.516-1.622 2.516 0v3.018c.018.432-.21.838-.59 1.048a1.14 1.14 0 0 1-1.047.589c-1.236 0-1.53-1.463-.879-2.159v-2.496zm1.256-11.453c.69 0 1.26.574 1.26 1.26v1.511c0 .686-.57 1.256-1.255 1.256a1.27 1.27 0 0 1-1.26-1.256v-1.511c0-.686.57-1.256 1.255-1.256v-.004zm-.377-9.435c.69 0 1.256.574 1.256 1.26 0 .183.01.367.024.55 0-.058.058.3.067.343.033.121.072.24.116.357.295.619.179 1.352-.449 1.724-.55.324-1.43.164-1.719-.454a5.794 5.794 0 0 1-.55-2.52c0-.686.57-1.256 1.255-1.256v-.004z"/>
        <path fill="#000" d="M93.525 255.17c1.999-1.033 61.603-3.008 67.184-.289 3.718 1.806 3.854 8.957 4.293 11.646 1.53 9.392 4.09 56.76 6.282 70.657H86.552c.387 0 3.824-67.141 4.5-76.856.198-2.84.937-4.365 2.473-5.157"/>
        <path fill="#FFF" fill-rule="nonzero" d="M156.851 256.967c.517-.3 1.314-.155 1.589.415.512 1.062.826 2.178.855 3.366.029 1.497-2.29 1.497-2.318 0a5.321 5.321 0 0 0-.54-2.197c-.271-.57-.16-1.246.42-1.584M159.652 266.88c.56.618.686 1.405.686 2.211 0 .628-.531 1.16-1.16 1.16a1.169 1.169 0 0 1-1.158-1.16v-.231l-.024-.247a2.385 2.385 0 0 0-.034-.144v-.015a1.164 1.164 0 0 1 .048-1.574c.435-.43 1.212-.464 1.642 0zm1.033 9.512c0 .594-.033 1.362.189 1.85.265.579.169 1.245-.416 1.588-.507.29-1.323.155-1.588-.42-.435-.956-.502-1.975-.502-3.018 0-1.497 2.317-1.497 2.317 0zm.657 9.083c.338 1.11.386 2.274.386 3.433 0 1.497-2.317 1.497-2.317 0 0-.966-.02-1.893-.31-2.82-.444-1.43 1.797-2.038 2.236-.613h.005zm.039 11.081c.024 1.169.328 2.308.347 3.477.02 1.497-2.298 1.497-2.317 0-.02-1.169-.324-2.303-.348-3.477-.03-1.496 2.289-1.492 2.318 0zm1.043 10.087c0 .865.043 1.642.304 2.472.454 1.43-1.787 2.033-2.236.619a10.034 10.034 0 0 1-.386-3.09c0-1.498 2.318-1.498 2.318 0zm1.738 9.04c0 .791.058 1.351.304 2.124.459 1.43-1.782 2.033-2.236.618a8.938 8.938 0 0 1-.386-2.743c0-1.497 2.318-1.497 2.318 0zm1.39 8.69v2.434c0 1.497-2.317 1.497-2.317 0v-2.433c0-1.497 2.318-1.497 2.318 0zm-5.562-3.128v2.781c0 1.497-2.318 1.497-2.318 0v-2.781c0-1.497 2.318-1.497 2.318 0zm-2.245-8.933c.782 1.246.854 2.636.854 4.066 0 1.497-2.317 1.497-2.317 0 0-1.024.024-2-.541-2.893-.797-1.27 1.207-2.433 2.004-1.168v-.005zm-3.327-9.454c.507-.295 1.323-.155 1.588.415.401.87.503 1.729.507 2.675 0 .628-.53 1.159-1.158 1.159a1.172 1.172 0 0 1-1.16-1.16c0-.52.03-1.028-.192-1.5-.266-.575-.165-1.247.415-1.59zm1.4-9.426v3.477c0 1.497-2.318 1.497-2.318 0v-3.477c0-1.497 2.318-1.497 2.318 0zm-2.767-8.633a4.64 4.64 0 0 0-.038-.213 9.807 9.807 0 0 0-.17-.584c-.192-.599.223-1.265.812-1.424a1.173 1.173 0 0 1 1.424.81c.348 1.078.522 2.304-.299 3.212-.42.468-1.207.434-1.642 0a1.159 1.159 0 0 1-.077-1.53v-.184a.345.345 0 0 0-.01-.092v.005zm1.724-11.188v2.434c0 1.496-2.318 1.496-2.318 0v-2.434c0-1.497 2.318-1.497 2.318 0zm0 50.415v2.781c0 1.497-2.318 1.497-2.318 0v-2.78c0-1.498 2.318-1.498 2.318 0zm-1.738-9.734v2.781c0 1.497-2.318 1.497-2.318 0v-2.781c0-1.497 2.318-1.497 2.318 0zm-2.897-10.894c.627 0 1.159.527 1.159 1.16 0 .168 0 .337.019.506 0-.048.048.276.058.319.032.111.069.22.11.328.271.57.165 1.241-.414 1.584-.512.3-1.319.155-1.589-.415a5.34 5.34 0 0 1-.502-2.323c0-.632.526-1.159 1.159-1.159zm-1.048-11.125c.632 0 1.159.527 1.159 1.16v1.738c0 .627-.527 1.158-1.16 1.158a1.175 1.175 0 0 1-1.158-1.158v-1.739c0-.632.531-1.159 1.159-1.159zm.468-11.361v3.476c0 1.497-2.317 1.497-2.317 0v-3.476c0-1.497 2.317-1.497 2.317 0zm-.695-10.778c0 .41 0 .821.029 1.237.02.29.106.85.16.965.26.57.168 1.236-.416 1.58-.502.294-1.328.163-1.589-.416-.478-1.053-.502-2.221-.502-3.366 0-1.496 2.318-1.496 2.318 0zm-5.563 4.868v3.476c0 1.497-2.317 1.497-2.317 0v-3.476c0-1.497 2.317-1.497 2.317 0zm1.043 9.739c.02.724.324 1.608.348 2.433.039 1.497-2.279 1.488-2.318 0-.024-.733-.328-1.617-.347-2.438-.044-1.497 2.274-1.492 2.317 0v.005zm1.739 10.772v2.786c0 1.497-2.318 1.497-2.318 0v-2.79c0-1.497 2.318-1.497 2.318 0v.004zm-.811 8.928c.627 0 1.158.527 1.158 1.16v1.738c0 .627-.53 1.158-1.158 1.158a1.172 1.172 0 0 1-1.16-1.158V305.6c0-.632.527-1.159 1.16-1.159zm.106 9.194c.507-.29 1.323-.154 1.588.42.401.864.503 1.724.503 2.67 0 .628-.527 1.16-1.16 1.16a1.175 1.175 0 0 1-1.158-1.16c0-.516.034-1.028-.189-1.501-.265-.575-.164-1.246.416-1.589zm1.632 10.623c.628 0 1.159.526 1.159 1.159v1.043c0 .627-.531 1.159-1.16 1.159a1.172 1.172 0 0 1-1.158-1.16v-1.042c0-.633.526-1.16 1.159-1.16zm-5.1-3.708c.025 1.51.324 3.003.348 4.52.02 1.496-2.298 1.496-2.317 0-.03-1.517-.329-3.01-.353-4.52-.019-1.497 2.299-1.497 2.318 0h.005zm-1.395-11.125v2.78c0 1.498-2.317 1.498-2.317 0v-2.78c0-1.497 2.317-1.497 2.317 0zm-1.434-13.173c.329 1.72.391 3.428.391 5.176 0 1.497-2.317 1.497-2.317 0 0-1.535-.02-3.051-.305-4.563-.275-1.458 1.956-2.08 2.236-.613h-.005zm-.304-9.425v2.776c0 1.497-2.318 1.497-2.318 0v-2.776c0-1.497 2.318-1.497 2.318 0zm-1.038-11.478v4.172c0 1.497-2.318 1.497-2.318 0v-4.172c0-1.497 2.318-1.497 2.318 0zm-7.77.927c.633 0 1.16.532 1.16 1.16v2.085c0 .633-.527 1.159-1.16 1.159a1.172 1.172 0 0 1-1.158-1.159v-2.086c0-.627.531-1.159 1.159-1.159zm1.469 10.937c.386 1.695.386 3.443.386 5.171 0 1.497-2.318 1.497-2.318 0 0-1.52.034-3.066-.304-4.558-.338-1.453 1.902-2.076 2.236-.613zm1.081 14.215v2.434c0 1.497-2.317 1.497-2.317 0v-2.434c0-1.496 2.317-1.496 2.317 0zm-.81 9.619c.632 0 1.158.526 1.158 1.159v2.086c0 .627-.526 1.159-1.159 1.159a1.169 1.169 0 0 1-1.159-1.16v-2.085c0-.633.531-1.16 1.16-1.16zm2.206 10.893v2.434c0 1.497-2.318 1.497-2.318 0v-2.434c0-1.497 2.318-1.497 2.318 0zm-6.263-.695v2.781c0 1.497-2.318 1.497-2.318 0v-2.781c0-1.497 2.318-1.497 2.318 0zm-1.082-10.391c.343 1.115.387 2.274.387 3.438 0 1.497-2.318 1.497-2.318 0 0-.966-.02-1.893-.304-2.82-.444-1.434 1.791-2.043 2.235-.618zm-.656-12.902v3.824c0 1.497-2.318 1.497-2.318 0v-3.824c0-1.497 2.318-1.497 2.318 0zm-1.85-12.632c.628 0 1.16.527 1.16 1.16v2.08c0 .633-.532 1.16-1.16 1.16a1.169 1.169 0 0 1-1.158-1.16v-2.086c0-.627.521-1.159 1.158-1.159v.005zm.111-11.009v2.429c0 1.497-2.317 1.497-2.317 0v-2.434c0-1.497 2.317-1.497 2.317 0v.005zm-6.605 2.429c.024 1.168.324 2.308.348 3.476.029 1.497-2.29 1.497-2.318 0-.024-1.168-.324-2.308-.348-3.476-.029-1.497 2.289-1.492 2.318 0zm-.116 11.362c.633 0 1.159.526 1.159 1.158v2.082c0 .632-.526 1.158-1.159 1.158a1.172 1.172 0 0 1-1.159-1.158v-2.082c0-.632.531-1.158 1.16-1.158zm1.507 10.893v2.781c0 1.492-2.318 1.492-2.318 0v-2.781c0-1.497 2.318-1.497 2.318 0zm-.812 8.923c.633 0 1.16.526 1.16 1.159v1.043c0 .628-.527 1.159-1.16 1.159a1.175 1.175 0 0 1-1.158-1.16v-1.042c0-.633.53-1.159 1.158-1.159zm1.16 8.807v2.782c0 1.496-2.318 1.496-2.318 0v-2.782c0-1.497 2.317-1.497 2.317 0zm-1.16 7.88c.633 0 1.16.532 1.16 1.16v1.39c0 .628-.527 1.159-1.16 1.159a1.169 1.169 0 0 1-1.158-1.159v-1.39c0-.628.53-1.16 1.158-1.16zm-3.935-3.09v3.477c0 1.497-2.318 1.497-2.318 0v-3.477c0-1.497 2.318-1.497 2.318 0zm-1.164-7.57v3.823c0 1.497-2.317 1.497-2.317 0v-3.824c0-1.497 2.317-1.497 2.317 0zm0-13.56v5.215c0 1.497-2.317 1.497-2.317 0v-5.215c0-1.496 2.317-1.496 2.317 0zm0-10.782v3.824c0 1.497-2.317 1.497-2.317 0v-3.824c0-1.497 2.317-1.497 2.317 0zm-1.854-11.236c.628 0 1.16.522 1.16 1.159v1.738c0 .628-.532 1.16-1.16 1.16a1.175 1.175 0 0 1-1.159-1.16v-1.738c0-.637.532-1.159 1.16-1.159zm-4.751-2.318v2.777c0 1.497-2.318 1.497-2.318 0v-2.781c0-1.497 2.318-1.497 2.318 0v.004zm.348 10.43v2.781c0 1.492-2.318 1.492-2.318 0v-2.786c0-1.497 2.318-1.497 2.318 0v.005zm.347 9.034v2.786c0 1.497-2.317 1.497-2.317 0v-2.79c0-1.497 2.317-1.497 2.317 0v.004zm0 8.697v2.433c0 1.497-2.317 1.497-2.317 0v-2.433c0-1.497 2.317-1.497 2.317 0zm-1.859 8.923a1.17 1.17 0 0 1 1.164 1.159v2.086c0 .627-.531 1.159-1.159 1.159a1.172 1.172 0 0 1-1.159-1.16v-2.085c0-.633.527-1.16 1.16-1.16h-.006zm1.512 11.24v3.13c0 1.497-2.318 1.497-2.318 0v-3.13c0-1.496 2.318-1.496 2.318 0zm-7.306-2.085v2.781c0 1.497-2.318 1.497-2.318 0v-2.781c0-1.497 2.318-1.497 2.318 0zm-1.502-10.198c.628 0 1.16.526 1.16 1.159v2.086c0 .627-.532 1.159-1.16 1.159a1.169 1.169 0 0 1-1.159-1.16v-2.085c0-.633.527-1.16 1.16-1.16zm.812-9.623v2.786c0 1.496-2.318 1.496-2.318 0v-2.786c0-1.492 2.318-1.492 2.318 0zm-2.318-11.82c0-1.493 2.318-1.498 2.318 0 0 1.158-.044 2.317-.387 3.437-.444 1.425-2.684.821-2.24-.613.29-.932.309-1.86.309-2.825zm3.36-12.516v3.128c0 1.497-2.317 1.497-2.317 0v-3.128c0-1.497 2.317-1.497 2.317 0zm0-11.473v3.129c0 1.497-2.317 1.497-2.317 0v-3.13c0-1.496 2.317-1.496 2.317 0zm-1.51-8.807c.637 0 1.158.53 1.158 1.158v.696c0 .627-.521 1.159-1.159 1.159a1.175 1.175 0 0 1-1.159-1.16v-.695c0-.627.531-1.158 1.16-1.158zm-7.644 65.016c.627 0 1.158.527 1.158 1.16v1.737c0 .633-.53 1.16-1.158 1.16a1.169 1.169 0 0 1-1.16-1.16v-1.738c0-.632.527-1.159 1.16-1.159zm1.506-9.618v2.781c0 1.497-2.318 1.497-2.318 0v-2.781c0-1.497 2.318-1.497 2.318 0zm.695-10.082v2.433c0 1.497-2.317 1.497-2.317 0v-2.433c0-1.497 2.317-1.497 2.317 0zm0-8.697v2.439c0 1.492-2.317 1.492-2.317 0v-2.439c0-1.496 2.317-1.496 2.317 0zm-1.274-11.82c0-1.497 2.317-1.497 2.317 0v2.781c.017.399-.192.773-.54.966a1.053 1.053 0 0 1-.966.54c-1.14 0-1.41-1.341-.811-1.979v-2.308zm1.158-10.546c.628 0 1.16.532 1.16 1.16v1.39c0 .633-.532 1.159-1.16 1.159a1.169 1.169 0 0 1-1.158-1.159v-1.39c0-.628.526-1.16 1.158-1.16zm-.347-8.69c.628 0 1.159.53 1.159 1.158 0 .169.004.338.019.507 0-.048.048.275.058.319.031.111.068.22.111.328.27.57.164 1.246-.415 1.584-.507.3-1.318.16-1.589-.416a5.336 5.336 0 0 1-.502-2.317c0-.638.526-1.16 1.159-1.16v-.004zm1.043-7.65c.627 0 1.159.532 1.159 1.16v1.042c0 .628-.532 1.16-1.16 1.16a1.172 1.172 0 0 1-1.158-1.16v-1.043c0-.627.526-1.158 1.159-1.158zm37.373 76.466v2.438c0 1.497-2.318 1.497-2.318 0v-2.438c0-1.497 2.318-1.497 2.318 0zm23.732-.478c.628 0 1.16.531 1.16 1.159v2.086c0 .632-.532 1.158-1.16 1.158a1.172 1.172 0 0 1-1.159-1.158v-2.086c0-.628.532-1.16 1.16-1.16zm-30.743-1.217v2.434c0 1.496-2.318 1.496-2.318 0v-2.434c0-1.497 2.318-1.497 2.318 0zm16.687.227v2.781c0 1.497-2.317 1.497-2.317 0v-2.781c0-1.497 2.317-1.497 2.317 0zm19.73-2.564c.348 1.11.386 2.27.386 3.428 0 1.497-2.318 1.497-2.318 0 0-.96-.014-1.888-.304-2.815-.444-1.434 1.797-2.042 2.236-.618v.005zm-25.171 2.042v3.825c0 1.497-2.318 1.497-2.318 0v-3.825c0-1.496 2.318-1.496 2.318 0zm-23.178-1.738v5.215c0 1.497-2.322 1.497-2.322 0v-5.215c0-1.497 2.318-1.497 2.318 0h.004zm-7.305 3.033v2.433c0 1.497-2.318 1.497-2.318 0v-2.433c0-1.497 2.318-1.497 2.318 0zm59.937-.285a1.17 1.17 0 0 1 1.164 1.159v2.08c0 .633-.532 1.16-1.16 1.16a1.169 1.169 0 0 1-1.158-1.16v-2.08c0-.633.526-1.16 1.159-1.16h-.005zm-18.682-1.97c.633 0 1.159.53 1.159 1.158v2.086c0 .633-.526 1.16-1.159 1.16a1.169 1.169 0 0 1-1.159-1.16v-2.086c0-.627.531-1.158 1.16-1.158zm-48.73 3.993v2.781c0 1.497-2.318 1.497-2.318 0v-2.781c0-1.497 2.318-1.497 2.318 0zm-5.91.7v2.434c0 1.492-2.318 1.492-2.318 0v-2.434c0-1.497 2.318-1.497 2.318 0zm56.253-69.136c.686 0 1.255.575 1.255 1.256v1.14c0 .685-.57 1.255-1.255 1.255a1.27 1.27 0 0 1-1.256-1.256v-1.134c0-.686.57-1.256 1.256-1.256v-.005zm6.272-1.308v2.434c0 1.496-2.318 1.496-2.318 0v-2.434c0-1.497 2.318-1.497 2.318 0zm-1.511-7.07c.632 0 1.159.527 1.159 1.16v1.043c0 .627-.527 1.159-1.16 1.159a1.175 1.175 0 0 1-1.158-1.16v-1.042c0-.633.531-1.16 1.159-1.16zm-4.399 2.203v3.476c0 1.497-2.318 1.497-2.318 0v-3.476c0-1.497 2.318-1.497 2.318 0zm-6.026-3.245c.628 0 1.159.531 1.159 1.159v1.738c0 .628-.531 1.159-1.16 1.159a1.172 1.172 0 0 1-1.158-1.159v-1.738c0-.628.526-1.16 1.159-1.16zm0 10.082c.628 0 1.159.531 1.159 1.159v2.086c0 .628-.531 1.159-1.16 1.159a1.172 1.172 0 0 1-1.158-1.16v-2.085c0-.628.526-1.159 1.159-1.159zm-4.404-1.622v3.129c0 1.496-2.317 1.496-2.317 0v-3.13c0-1.496 2.317-1.496 2.317 0zm-2.206-7.07c.632 0 1.158.532 1.158 1.16v1.042c0 .628-.526 1.16-1.158 1.16a1.175 1.175 0 0 1-1.16-1.16v-1.043c0-.627.532-1.158 1.16-1.158zm-4.404.46v2.785c0 1.497-2.318 1.497-2.318 0v-2.78c0-1.498 2.318-1.498 2.318 0v-.006zm-.343 9.739v2.78c0 1.498-2.318 1.498-2.318 0v-2.78c0-1.497 2.318-1.497 2.318 0zm-7.421-4.984c.618 0 1.183.532 1.158 1.16-.024.71-.323 1.424-.347 2.085a1.173 1.173 0 0 1-1.159 1.16c-.613 0-1.178-.532-1.159-1.16.024-.71.324-1.424.348-2.086a1.173 1.173 0 0 1 1.159-1.159zm-.348-5.562c.633 0 1.159.526 1.159 1.159v.695c0 .628-.526 1.159-1.159 1.159a1.175 1.175 0 0 1-1.159-1.159v-.695c0-.633.531-1.16 1.159-1.16zm-5.558 0c.628 0 1.16.526 1.16 1.159v2.086c0 .627-.532 1.159-1.16 1.159a1.169 1.169 0 0 1-1.159-1.16v-2.085c0-.633.522-1.16 1.16-1.16zm.807 9.503v3.128c0 1.497-2.318 1.497-2.318 0v-3.128c0-1.497 2.318-1.497 2.318 0zm-6.258.347v2.781c0 1.497-2.318 1.497-2.318 0v-2.78c0-1.498 2.318-1.498 2.318 0zm-1.159-9.502c.628 0 1.159.53 1.159 1.158v1.391c0 .628-.531 1.159-1.159 1.159a1.169 1.169 0 0 1-1.159-1.159v-1.39c0-.628.531-1.16 1.159-1.16zm-7.07.115c0-1.496 2.319-1.496 2.319 0 0 1.16-.02 2.294-.507 3.366-.261.58-1.082.71-1.584.415-.59-.338-.676-1.009-.415-1.584.29-.642.188-1.516.188-2.197zm2.319 8.692v3.129c0 1.497-2.318 1.497-2.318 0v-3.13c0-1.496 2.318-1.496 2.318 0zm11.994-111.023c1.516.627 2.675.666 3.814 2.09.353.44 1.314 3.936 1.208 3.902-3.245-1.087-6.33-3.544-9.696-4.737-2.062-.734-5.693-.642-7.016-2.574 4.066-.241 7.87-.27 11.69 1.319z"/>
        <g transform="matrix(-1 0 0 1 262.911 .029)">
            <mask id="f" fill="#fff">
                <use xlink:href="#e"/>
            </mask>
            <path fill="#FFF" d="M96.953 183.312l73.264-59.087c5.653-4.56 6.62-12.804 2.173-18.547L94.862 5.645A13.337 13.337 0 0 0 75.65 3.679L4.79 64.302c-5.375 4.6-6.223 12.598-1.93 18.223l75.118 98.493a13.337 13.337 0 0 0 18.976 2.294" mask="url(#f)"/>
        </g>
        <path fill="#FF7900" d="M253.693 76.35c-7.112-3.366-13.645-7.939-20.188-12.285a532.998 532.998 0 0 1-19.744-13.867c-12.854-9.406-25.268-19.329-37.58-29.425l5.977-2.478c2.805 26.476 1.304 53.13 3.829 79.624.179 1.883-1.912 4.085-3.829 3.829-27.9-3.68-55.036 5.934-82.583 8.56l3.235-7.817c5.418 5.944 11.927 10.618 18.43 15.283a736.741 736.741 0 0 1 20.88 15.572 714.556 714.556 0 0 1 39.748 33.105c4.423 3.959-2.1 10.444-6.504 6.508a693.19 693.19 0 0 0-39.633-32.906 772.137 772.137 0 0 0-20.666-15.273c-6.663-4.77-13.279-9.638-18.73-15.814-2.723-3.09-.773-7.494 3.235-7.812 13.993-1.11 27.692-4.056 41.56-6.046 14.031-2.013 27.947-2.78 42.047-.883l-4.848 3.694c-2.453-26.485-1.01-53.12-3.172-79.624-.27-3.273 3.882-4.278 5.977-2.472 11.96 10.3 24.481 20 37.204 29.339 6.365 4.669 12.815 9.217 19.276 13.747 6.383 4.47 13.037 8.623 19.04 13.602 2.273 1.883-.624 4.944-2.96 3.838"/>
        <path fill="#FFF" d="M145.374 141.047c-.063 3.071-.164 6.094-.208 9.078-.082 5.717.053 11.492 1.222 17.103 1.188 5.717 4.53 10.671 5.62 16.292 1.985 10.246 6.05 19.98 8.72 30.019 1.662 6.229 4.235 11.38 4.289 17.996a44.954 44.954 0 0 1-1.338 11.289c-1.125 4.433-4.133 7.272-5.326 11.598-1.4-.072-2.762-.42-4.172-.796.734-4.544 4.061-9.88 5.597-14.36 1.352-3.96 1.366-7.364 1.221-11.483-.444-12.912-5.862-24.993-9.787-37.093-3.009-9.28-8.016-17.904-9.054-27.764-.58-5.457 6.326-42.584-5.842-41.589 9.27-.898 9.188 13.37 9.058 19.71"/>
        <path fill="#724F47" d="M124.76 156.716c4.153-8.498 2.874-19.02 7.253-27.557 2.782-5.432 7.364-11.83 11.3-3.162 2.104 4.626.834 11.134.632 16.03-.59 14.163.7 27.016 4.736 40.86 2.449 8.392 4.433 16.958 3.641 25.736-.763 8.474-9.415 5.234-16.6 1.188-3.67-2.062-6.963-4.34-8.624-5.37-8.045-4.992-21.193-15.726-18.532-26.508 2.24-9.063 12.27-13.168 16.195-21.217"/>
        <path fill="#FFF" d="M104.442 169.608c7.05-1.646 12.11 6.297 16.369-2.665 3.67-7.716 4.78-15.596 5.94-23.998.675-4.867 3.94-20.772 10.554-21.024l1.565-.386c-3.834.84-6.094 9.252-7.06 12.487-1.714 5.75-2.409 11.94-3.104 18.097-.734 6.456-1.516 14.134-5.466 19.532-2.323 3.172-4.515 4.611-8.392 4.384-1.845-.106-16.437-5.021-10.406-6.427"/>
    </g>
</svg>
