<svg xmlns="http://www.w3.org/2000/svg" xmlns:xlink="http://www.w3.org/1999/xlink" width="330" height="228" viewBox="0 0 330 228">
    <defs>
        <path id="a" d="M6 0h318a6 6 0 0 1 6 6v222H0V6a6 6 0 0 1 6-6z"/>
        <linearGradient id="d" x1="50%" x2="50%" y1="0%" y2="100%">
            <stop offset="0%" stop-color="#09203F"/>
            <stop offset="100%" stop-color="#537895"/>
        </linearGradient>
        <path id="c" d="M0 0h445v236.147H0z"/>
        <path id="f" d="M0 .19h318.281v41.615H0z"/>
        <path id="h" d="M0 152.925h328.894V0H0z"/>
        <path id="j" d="M.007.217H41.83v81.966H.007z"/>
        <path id="l" d="M.219.016h61.317v23.202H.22z"/>
        <path id="n" d="M.043.115H61.36V22.9H.043z"/>
        <path id="p" d="M.316.106H76.07v43.51H.316z"/>
        <path id="r" d="M.062.225h74.23v41.48H.063z"/>
    </defs>
    <g fill="none" fill-rule="evenodd">
        <mask id="b" fill="#fff">
            <use xlink:href="#a"/>
        </mask>
        <use fill="#A885D8" xlink:href="#a"/>
        <g mask="url(#b)">
            <g transform="translate(-58 -7)">
                <mask id="e" fill="#fff">
                    <use xlink:href="#c"/>
                </mask>
                <use fill="url(#d)" xlink:href="#c"/>
                <path fill="#FFF" fill-rule="nonzero" d="M145.564 47.734h2.736c0 1.71 1.332 2.376 2.844 2.376.99 0 2.502-.288 2.502-1.602 0-1.386-1.926-1.62-3.816-2.124-1.908-.504-3.834-1.242-3.834-3.654 0-2.628 2.484-3.888 4.806-3.888 2.682 0 5.148 1.17 5.148 4.14h-2.736c-.09-1.548-1.188-1.944-2.538-1.944-.9 0-1.944.378-1.944 1.458 0 .99.612 1.116 3.834 1.944.936.234 3.816.828 3.816 3.744 0 2.358-1.854 4.122-5.346 4.122-2.844 0-5.508-1.404-5.472-4.572zm18.018.666v-.954c-.432.378-1.332.396-2.124.54-.792.162-1.512.432-1.512 1.368 0 .954.738 1.188 1.566 1.188 1.998 0 2.07-1.584 2.07-2.142zm-3.348-2.844h-2.556c.144-2.394 2.286-3.114 4.374-3.114 1.854 0 4.086.414 4.086 2.646v4.842c0 .846.09 1.692.324 2.07h-2.592a3.802 3.802 0 0 1-.18-.9c-.81.846-1.998 1.152-3.132 1.152-1.764 0-3.168-.882-3.168-2.79 0-2.106 1.584-2.61 3.168-2.826 1.566-.234 3.024-.18 3.024-1.224 0-1.098-.756-1.26-1.656-1.26-.972 0-1.602.396-1.692 1.404zm16.182-2.862L173.266 52h-2.844l-3.186-9.306h2.682l1.962 6.354h.036l1.962-6.354h2.538zM177.55 52v-9.306h2.556V52h-2.556zm2.556-12.852v2.106h-2.556v-2.106h2.556zm10.836 8.82h-6.714c.072 1.62.864 2.358 2.286 2.358 1.026 0 1.854-.63 2.016-1.206h2.25c-.72 2.196-2.25 3.132-4.356 3.132-2.934 0-4.752-2.016-4.752-4.896 0-2.79 1.926-4.914 4.752-4.914 3.168 0 4.698 2.664 4.518 5.526zm-6.714-1.62h4.158c-.234-1.296-.792-1.98-2.034-1.98-1.62 0-2.088 1.26-2.124 1.98zm7.65 5.652v-1.926l4.842-5.454h-4.482v-1.926h7.848v1.926l-4.842 5.454h5.184V52h-8.55zm9.9-3.816v-2.196h5.418v2.196h-5.418zm15.642-5.49L214.27 52h-2.844l-3.186-9.306h2.682l1.962 6.354h.036l1.962-6.354h2.538zm.774 4.662c0-2.97 1.89-4.914 4.806-4.914 2.934 0 4.824 1.944 4.824 4.914 0 2.952-1.89 4.896-4.824 4.896-2.916 0-4.806-1.944-4.806-4.896zm2.556 0c0 1.476.522 2.97 2.25 2.97 1.746 0 2.268-1.494 2.268-2.97 0-1.494-.522-2.988-2.268-2.988-1.728 0-2.25 1.494-2.25 2.988zm17.46-4.662V52h-2.43v-1.296h-.054c-.648 1.044-1.764 1.548-2.844 1.548-2.718 0-3.402-1.53-3.402-3.834v-5.724h2.556v5.256c0 1.53.45 2.286 1.638 2.286 1.386 0 1.98-.774 1.98-2.664v-4.878h2.556zm1.494 6.282h2.43c.018 1.116.954 1.566 1.962 1.566.738 0 1.674-.288 1.674-1.188 0-.774-1.062-1.044-2.898-1.44-1.476-.324-2.952-.846-2.952-2.484 0-2.376 2.052-2.988 4.05-2.988 2.034 0 3.906.684 4.104 2.97h-2.43c-.072-.99-.828-1.26-1.746-1.26-.576 0-1.422.108-1.422.864 0 .918 1.44 1.044 2.898 1.386 1.494.342 2.952.882 2.952 2.61 0 2.448-2.124 3.24-4.248 3.24-2.16 0-4.266-.81-4.374-3.276zm24.192-6.282v12.582h-2.556V50.83h-.036c-.594 1.008-1.818 1.422-2.934 1.422-1.71 0-3.942-1.242-3.942-4.842 0-2.556 1.35-4.968 4.176-4.968 1.152 0 2.25.414 2.826 1.44h.036v-1.188h2.43zm-6.912 4.662c0 1.494.54 2.97 2.214 2.97 1.656 0 2.232-1.404 2.232-2.934 0-1.458-.576-3.024-2.178-3.024-1.656 0-2.268 1.476-2.268 2.988zm17.568-4.662V52h-2.43v-1.296h-.054c-.648 1.044-1.764 1.548-2.844 1.548-2.718 0-3.402-1.53-3.402-3.834v-5.724h2.556v5.256c0 1.53.45 2.286 1.638 2.286 1.386 0 1.98-.774 1.98-2.664v-4.878h2.556zm10.764 5.274h-6.714c.072 1.62.864 2.358 2.286 2.358 1.026 0 1.854-.63 2.016-1.206h2.25c-.72 2.196-2.25 3.132-4.356 3.132-2.934 0-4.752-2.016-4.752-4.896 0-2.79 1.926-4.914 4.752-4.914 3.168 0 4.698 2.664 4.518 5.526zm-6.714-1.62h4.158c-.234-1.296-.792-1.98-2.034-1.98-1.62 0-2.088 1.26-2.124 1.98zm15.48-3.06h-2.646c.054-2.574 1.746-4.446 4.374-4.446 3.402 0 4.482 2.088 4.482 3.474 0 1.746-.738 2.448-1.512 3.042-.774.576-1.602 1.044-1.764 2.106v.684h-2.43v-.81c.108-1.566.846-2.268 1.566-2.826.702-.558 1.314-.972 1.314-1.944 0-1.098-.576-1.62-1.53-1.62-1.296 0-1.836 1.062-1.854 2.34zm.252 8.712v-2.772h2.826V52h-2.826z" mask="url(#e)"/>
                <path stroke="#FFF" d="M112 65.864h122.92l-2.882 12L247.239 65h86.074" mask="url(#e)"/>
                <g mask="url(#e)">
                    <g opacity=".5">
                        <g transform="translate(203.01 192)">
                            <mask id="g" fill="#fff">
                                <use xlink:href="#f"/>
                            </mask>
                            <path fill="#50BE87" d="M287.717 5.96a8.998 8.998 0 0 0-3.249-.037l-26.948 6.133a9.002 9.002 0 0 1-2.77.042L231.988 8.91a9.01 9.01 0 0 0-2.438-.008l-31.013 4.13c-.966.128-1.948.098-2.903-.087L166.86 7.352a8.962 8.962 0 0 0-.463-.077l-22.073-3.099a8.976 8.976 0 0 0-4.126.385l-18.642 6.332c-.88.298-4.47-2.243-5.407-2.23L103.02.947C101.708.965 81.725 11.61 80.55 11.08l-6.365-2.866a8.867 8.867 0 0 0-2.931-.75l-6.808-.545c-2.412-.192-4.613-1.345-6.031-3.157-1.51-1.93-3.904-3.106-6.48-3.183L39.041.194c-2.1-.063-4.148.61-5.734 1.884L27.59 6.67c-1.974 1.585-10.046 22.544-12.604 22.042L3.43 32.649l-.98 9.156H318.28L287.717 5.96z" mask="url(#g)"/>
                        </g>
                        <path fill="#C19372" d="M387.686 180.898a.55.55 0 0 1-.83.465l-9.685-5.743a6.884 6.884 0 0 0-3.316-.942l-2.834-.067a.584.584 0 0 1-.44-.216l-4.778-5.918a.583.583 0 0 0-.454-.216h-5.715a.583.583 0 0 1-.437-.196l-1.557-1.853a.562.562 0 0 0-.456-.196c-.764.06-.989.815-.603 1.25l1.934 2.28c.11.123.27.195.437.195h5.673c.177 0 .344.08.454.216l2.941 3.643c.307.38.025.94-.468.928l-4.45-.105a.572.572 0 0 1-.095-.01l-6.47-1.23a.583.583 0 0 1-.268-.127l-2.218-1.874c-.445-.375-1.207-.15-1.263.604a.547.547 0 0 0 .203.45l2.518 2.127c.132.112.292.187.462.22l4.46.847a.57.57 0 0 1 .256 1.007l-1.607 1.28a.554.554 0 0 0-.218.454c.028.518.398.794.774.794a.755.755 0 0 0 .47-.164l2.554-2.033c.071.015.144.026.219.029l11.352.381a.586.586 0 0 1 .365.145l4.684 4.106a.57.57 0 0 1-.278.99l-5.969 1.1a.587.587 0 0 1-.315-.028l-7.413-2.824c-.546-.208-1.189.256-.986.985.046.166.18.295.343.357l7.867 2.997a.763.763 0 0 0 .408.037l8.165-1.506c.304-.056.617.03.849.233l3.144 2.757a.98.98 0 0 1 .336.737v5.014a.58.58 0 0 1-.885.487l-5.801-3.534a.584.584 0 0 0-.147-.064l-15.25-4.251a.58.58 0 0 1-.334-.247l-2.681-4.23a.58.58 0 0 0-.37-.256l-5.294-1.134a.582.582 0 0 1-.307-.176l-2.7-2.95a.584.584 0 0 0-.421-.19l-6.203-.098a.578.578 0 0 1-.563-.48l-.541-3.275a.575.575 0 0 0-.346-.437c-.608-.25-1.12.225-1.035.74l.718 4.344a.578.578 0 0 0 .563.48l6.77.109c.16.002.313.07.421.188l2.593 2.835c.081.089.189.15.307.175l5.157 1.105a.58.58 0 0 1 .37.255l.861 1.36c.282.445-.139.997-.65.855l-2.219-.619a4.05 4.05 0 0 0-1.089-.149H342.44a.58.58 0 0 1-.547-.382l-2.265-6.35a.576.576 0 0 0-.344-.347l-7.35-2.705a.582.582 0 0 1-.18-.107l-3.3-2.87a.564.564 0 0 0-.478-.136c-.75.157-.873.934-.433 1.316l3.426 2.981a.58.58 0 0 0 .18.107l6.952 2.559c.161.059.287.186.345.346l1.242 3.485a.572.572 0 0 1-.488.759l-5.192.527a.582.582 0 0 0-.359.173l-2.973 3.047a.586.586 0 0 1-.51.168l-4.658-.739a.527.527 0 0 0-.607.433.523.523 0 0 0 .439.598l5.23.83a.533.533 0 0 0 .466-.153l3.107-3.185a.582.582 0 0 1 .36-.172l5.335-.542a.58.58 0 0 1 .607.38l.447 1.253a.99.99 0 0 0 .046.128l.002.006c.004.01.012.019.016.03.019.036.036.072.059.106a.709.709 0 0 0 .099.127c.01.011.023.022.035.033.027.023.05.05.08.07.153.123.344.204.556.22l9.681.715c.45.034.691.538.43.902l-2.77 3.856a.581.581 0 0 1-.33.223l-9.149-.221a.739.739 0 0 0 .186 1.457.76.76 0 0 0 .186-.023l9.625.287a.58.58 0 0 0 .33-.223l3.313-4.732a.586.586 0 0 1 .892-.065l1.793 1.84a4 4 0 0 0 1.12.808l8.76 4.25c.043.021.083.047.12.078l10.849 9.106a.57.57 0 0 1 .204.436v13.749h25.17l-.699-19.075a.574.574 0 0 1 .464-.582l18.592-3.741c.297-.06.577-.186.818-.368l1.885-1.427a.587.587 0 0 1 .546-.086l7.846 2.721a.762.762 0 0 0 .57-.03l7.16-3.351a.552.552 0 0 0 .315-.381c.147-.742-.53-1.158-1.058-.91l-6.565 3.074a.588.588 0 0 1-.441.023l-5.69-1.974a.569.569 0 0 1-.161-.993l4.151-3.141a.587.587 0 0 1 .217-.103l5.015-1.196a.59.59 0 0 1 .256-.004l4.88 1.116a.746.746 0 0 0 .311 0l5.383-1.13c.573-.121.853-.857.279-1.357a.563.563 0 0 0-.485-.113l-5.214 1.095a.59.59 0 0 1-.24 0l-3.574-.845a.572.572 0 0 1-.446-.687l.794-3.421a.576.576 0 0 1 .456-.434l2.853-.552a.557.557 0 0 0 .4-.289c.334-.68-.214-1.256-.792-1.144l-3.706.715a.576.576 0 0 0-.456.434l-1.13 4.87a.576.576 0 0 1-.43.429l-4.71 1.123a.768.768 0 0 0-.34.094l-.007.004-.037.02-7.785 4.325c-.216.12-.452.2-.697.234l-20.961 2.975a1.706 1.706 0 0 1-1.82-1.03l-.8-4.607a.538.538 0 0 1 .245-.654l1.798-1.144a.588.588 0 0 1 .507-.06l7.494 2.6a.76.76 0 0 0 .571-.03l7.158-3.353a.55.55 0 0 0 .316-.38c.147-.742-.53-1.158-1.058-.91l-6.565 3.074a.588.588 0 0 1-.441.023l-5.031-1.745a.569.569 0 0 1-.122-1.02l5.809-3.699a.812.812 0 0 0 .149-.108.552.552 0 0 1 .267-.13l7.844-1.54c.23-.045.463.05.594.241l2.482 3.619a.582.582 0 0 0 .481.251h6.129a.56.56 0 0 0 .45-.21c.457-.606.027-1.27-.559-1.27h-5.223a.583.583 0 0 1-.48-.251l-1.998-2.912a.565.565 0 0 1 .018-.666l3.469-4.517a.544.544 0 0 0 .102-.48c-.216-.725-1.011-.788-1.365-.327l-3.673 4.782a.58.58 0 0 1-.349.216l-8.955 1.757a.75.75 0 0 0-.253.101l-2.877 1.163c-.475.191-.95-.274-.759-.743l1.089-2.67a.576.576 0 0 1 .303-.31l5.228-2.29a.573.573 0 0 0 .343-.478l.393-4.873a.55.55 0 0 0-.196-.477c-.582-.46-1.264-.097-1.31.472l-.313 3.884a.573.573 0 0 1-.343.477l-4.968 2.177a.576.576 0 0 0-.303.31l-2.36 5.788c-.004.008-.005.018-.008.026l-4.3 1.736a.58.58 0 0 1-.8-.516l-.579-13.347.02-.162 1.044-3.822a.582.582 0 0 1 .761-.388l4.224 1.536a.763.763 0 0 0 .346.04l7.785-.882a.558.558 0 0 0 .423-.26c.383-.654-.12-1.263-.702-1.198l-7.363.835a.59.59 0 0 1-.267-.032l-2.593-.943a.57.57 0 0 1-.03-1.06l4.48-1.926a.586.586 0 0 1 .264-.047l8.791.476c.07.004.141-.002.21-.018l5.31-1.208a.558.558 0 0 0 .39-.305c.307-.693-.263-1.242-.833-1.113l-5.02 1.142a.592.592 0 0 1-.163.014l-8.918-.483a.742.742 0 0 0-.341.06l-4.764 2.048c-.446.191-.919-.21-.792-.673l.419-2.735a.576.576 0 0 1 .351-.385l5.503-2.092a.587.587 0 0 1 .228-.038l3.156.101a.9.9 0 0 0 .583-.192l2.48-1.975a.587.587 0 0 1 .405-.125l5.805.404c.7.051 1.27-.727.732-1.486a.58.58 0 0 0-.434-.238l-6.553-.456a.882.882 0 0 0-.617.191l-2.504 1.994a.586.586 0 0 1-.383.127l-2.97-.096a.59.59 0 0 0-.228.038l-4.785 1.819a.582.582 0 0 1-.768-.38l-.866-3.056a.566.566 0 0 1 .014-.35l1.14-3.078a.575.575 0 0 1 .272-.308l4.509-2.375a.59.59 0 0 1 .322-.066l4.937.411c.586.05 1.069-.578.665-1.22a.56.56 0 0 0-.43-.245l-5.437-.453a.75.75 0 0 0-.417.085l-3.41 1.796a.58.58 0 0 1-.854-.5l-.054-5.905c-.007-.72-.926-1.226-1.606-.532a.572.572 0 0 0-.16.404l.074 8.021a.563.563 0 0 1-.035.202l-1.369 3.692a.564.564 0 0 0-.014.35l1.24 4.37a.565.565 0 0 1-.064.452l-3.25 4.552a.553.553 0 0 1-.856.2l-7.988-6.457a.569.569 0 0 1-.212-.443v-2.159c0-.079.017-.157.049-.23l3.517-7.915a.58.58 0 0 1 .531-.343h3.742a.561.561 0 0 0 .45-.21c.457-.607.028-1.27-.558-1.27h-4.615a.581.581 0 0 0-.532.343l-3.239 7.292a.585.585 0 0 1-.942.174l-4.366-4.314a.583.583 0 0 0-.406-.168l-6.065-.056h-.115a.561.561 0 0 0-.448.207c-.459.602-.036 1.267.55 1.273l5.45.05a.586.586 0 0 1 .405.168l4.921 4.863c.109.107.17.253.17.404v1.284c0 .28-.205.518-.484.564l-6.145 1.016a.582.582 0 0 1-.613-.304l-1.929-3.736a2.001 2.001 0 0 0-1.588-1.069l-6.09-.588a.588.588 0 0 1-.297-.115l-2.4-1.808c-.466-.35-1.212-.083-1.227.671a.546.546 0 0 0 .228.44l2.828 2.129a.583.583 0 0 0 .295.115l6.243.603a1 1 0 0 1 .794.534l1.425 2.76a.571.571 0 0 1-.42.823l-4.016.664a.588.588 0 0 1-.344-.047l-5.21-2.429c-.011-.005-.023-.005-.034-.009a.534.534 0 0 0-.329-.035l-6.961 1.502c-.272.06-.487.302-.456.575a.527.527 0 0 0 .64.454l6.536-1.41a.587.587 0 0 1 .413.063l5.009 2.84c.088.05.188.076.29.076h10.983c.555 0 1.085.227 1.463.627l7.516 7.948c.094.1.147.232.147.37l-1.106 13.2z"/>
                        <path fill="#0A6E31" d="M394.6 144.399l-8.136-4.312a.951.951 0 0 0-1.014.079l-3.378 2.532a.951.951 0 0 1-.696.18l-5.771-.778a.945.945 0 0 0-.942.456l-1.178 2.016a.938.938 0 0 1-.508.414l-3.96 1.348a.933.933 0 0 0-.593.61.93.93 0 0 0 .946 1.191l10.823-.52c.06-.002.12 0 .18.009l8.997 1.273a.95.95 0 0 0 .619-.124l4.65-2.764a.92.92 0 0 0-.04-1.61M337.347 175.29l5.946.868c.415.06.837-.053 1.163-.313l5.028-4.004c.364-.29.845-.396 1.3-.286l9.049 2.178c.228.055.467.057.697.004l12.394-2.851c1.452-.335 1.574-2.327.173-2.831l-12.24-4.403a1.52 1.52 0 0 0-.896-.04l-8.156 2.115a1.522 1.522 0 0 1-.667.022l-5.9-1.126a1.508 1.508 0 0 0-1.59.723l-3.188 5.546a1.497 1.497 0 0 1-.82.671l-2.559.863c-1.488.502-1.29 2.636.266 2.864M353.278 157.316l4.38.516c.324.039.647-.082.865-.323l1.858-2.055c.206-.228.508-.349.817-.327l1.69.117c.859.06 1.388-.905.868-1.58l-.682-.884a1.006 1.006 0 0 0-.87-.387l-5.75.424a1.01 1.01 0 0 0-.561.221l-3.131 2.536c-.681.551-.359 1.638.516 1.742M336.156 169.067l-4.277-1.06c-.318-.08-.654 0-.9.211l-2.108 1.806c-.234.2-.549.282-.853.222l-1.662-.328c-.843-.166-1.493.725-1.063 1.46l.561.961c.17.29.476.476.815.493l5.757.3c.206.01.41-.041.585-.15l3.432-2.122c.746-.462.567-1.58-.287-1.793M339.871 182.086l-5.329-2.014a.827.827 0 0 0-.8.12l-3.996 3.116a.827.827 0 0 1-.618.166l-4.712-.638a.824.824 0 0 0-.73.272l-1.812 2.065c-.484.552-.035 1.404.702 1.33l8.419-.847a.831.831 0 0 1 .19.002l7.402.96c.4.052.778-.19.891-.572l.885-2.981a.803.803 0 0 0-.492-.98M359.64 181.325l3.242 2.887c.318.284.785.336 1.16.129l3.64-2.01c.096-.053.2-.09.308-.11l5.724-1.04a.99.99 0 0 0 .82-.97v-2.89a.994.994 0 0 0-1.001-.986h-5.377a1.01 1.01 0 0 0-.594.193l-3.57 2.6a1.008 1.008 0 0 1-.503.19l-3.27.293c-.868.078-1.227 1.138-.58 1.714M349.136 190.46l-1.819-2.524a.725.725 0 0 0-.793-.27l-2.874.852a.728.728 0 0 1-.233.03l-4.182-.151a.718.718 0 0 0-.728.555l-.458 2.028a.71.71 0 0 0 .547.847l3.773.826a.73.73 0 0 0 .448-.044l2.916-1.277a.729.729 0 0 1 .384-.055l2.34.297c.623.08 1.042-.61.679-1.114M359.592 151.244l2.825-1.248a.827.827 0 0 1 .741.036l2.03 1.145c.157.089.34.124.52.099l2.592-.36c.783-.109.969-1.142.271-1.51l-2.163-1.139a.827.827 0 0 0-.188-.071l-4.237-1.038a.826.826 0 0 0-.687.137l-2.915 2.155a.826.826 0 0 1-.303.14l-.577.134a.813.813 0 0 0-.59.535.808.808 0 0 0 .778 1.055h1.57c.114 0 .228-.024.333-.07"/>
                        <path fill="#C19372" d="M270.245 158.987h.723c.298 0 .578.143.75.383l4.241 5.903a.92.92 0 0 0 .49.345l5.241 1.533a.925.925 0 0 0 1.086-.467l2.948-5.871a.896.896 0 0 0 .095-.402v-1.198c0-.501.412-.907.92-.907h.096c.507 0 .92.406.92.907v1.54a.894.894 0 0 1-.044.277l-1.89 5.817a.907.907 0 0 0 .782 1.18l4.351.433c.4.04.779-.18.937-.543l2.658-6.073a.895.895 0 0 0 .054-.552l-.386-1.75a.91.91 0 0 1 .899-1.1h.448a.92.92 0 0 1 .854.57l.42 1.037c.227.56.936.75 1.419.379l2.518-1.931a.93.93 0 0 1 .565-.191h.005c.88 0 1.258 1.1.559 1.627l-5.177 3.898a.904.904 0 0 0-.338.518l-.694 2.993c-.154.664.46 1.252 1.129 1.08l10.548-2.719a.926.926 0 0 0 .277-.122l5.11-3.359a.918.918 0 0 0 .255-.251l2.39-3.534a.923.923 0 0 1 .765-.404h.317c.696 0 1.14.733.81 1.337l-2.068 3.787a.913.913 0 0 1-.286.315l-7.408 5.067a.908.908 0 0 1-.174.093l-10.869 4.418a.907.907 0 0 0-.57.856l.966 48.37h-13.76l.967-48.451a.905.905 0 0 0-.475-.812l-8.797-4.786a.915.915 0 0 1-.324-.296l-5.022-7.54c-.401-.602.037-1.404.769-1.404"/>
                        <path fill="#0A6E31" d="M276.663 165.637h-15.766c-.458 0-.882-.237-1.117-.624l-.441-.724a1.304 1.304 0 0 0-.933-.611l-2.536-.357a1.287 1.287 0 0 1-1.106-1.445l.074-.54a1.293 1.293 0 0 1 1.082-1.094l3.398-.543c.22-.036.426-.125.6-.261l2.418-1.887c.23-.18.515-.278.809-.278h11.873c.298 0 .587.101.819.286l2.734 2.177c.132.105.283.183.445.231l4.143 1.226c.421.124.75.45.875.867v.001c.227.761-.293 1.541-1.091 1.638l-4.068.49a1.305 1.305 0 0 0-.941.586l-.172.267c-.24.37-.654.595-1.1.595"/>
                        <path fill="#0A6E31" d="M266.409 148.193l10.131-2.791c.142-.04.29-.06.437-.06h17.398c.34 0 .671.106.947.301l5.304 3.755c.276.195.607.3.947.3h9.575c.585 0 1.124.31 1.413.811l1.749 3.044c.288.501.828.811 1.412.811h3.461c.672 0 1.274.408 1.515 1.026l.33.843c.408 1.049-.377 2.175-1.516 2.175h-12.063a1.64 1.64 0 0 0-.76.186l-1.96 1.023a1.64 1.64 0 0 1-.78.186l-23.314-.293a1.624 1.624 0 0 1-1.463-.95l-.411-.912a1.625 1.625 0 0 0-1.484-.95h-10.263c-.43 0-.843-.17-1.147-.47l-3.461-3.426a1.142 1.142 0 0 1 .109-1.722l3.489-2.686c.12-.092.258-.16.405-.201"/>
                        <path fill="#0A6E31" d="M328.911 164.103h-22.474c-.423 0-.826-.176-1.11-.485l-.566-.613a1.51 1.51 0 0 0-1.111-.484h-1.67c-1.128 0-1.853-1.182-1.33-2.167l.033-.061c.259-.488.771-.793 1.33-.793h4.811c.267 0 .53-.07.76-.203l3.528-2.04c.23-.133.492-.203.759-.203h11.712c.37 0 .726.134 1.001.377l1.917 1.692c.276.243.632.377 1.002.377h5.415c.371 0 .729.135 1.005.38l.46.409c.88.78.541 2.211-.599 2.525l-4.468 1.234a1.524 1.524 0 0 1-.405.055"/>
                        <path fill="#8F8F8F" d="M382.28 228.356h-48.392v-13.675l4.742-.45 5.087.252 5.774-.054 3.825.219 7.395-.417 7.676.252 7.967-.252 5.926.085z"/>
                        <path fill="#FFF" d="M382.28 228.356h34.083v-25.529H382.28z"/>
                        <path fill="#FF7900" d="M404.196 191.104h-9.75l-15.44 11.92h40.63z"/>
                        <path fill="#FFB400" d="M395.032 191.656l-13.3 10.816h1.356zM396.26 191.656l-10.145 10.816h1.616z"/>
                        <path fill="#0A6E31" d="M339.731 208.617l-.498 18.92h1.039z"/>
                        <path fill="#50BE87" d="M342.886 216.04l-2.966-.81-.687 12.307h1.038l-.325-11.402z"/>
                        <path fill="#B8EBD6" d="M336.62 218.235l2.882-.912.77 10.214h-1.04l.247-9.301z"/>
                        <path fill="#0A6E31" d="M343.13 221.73l-3.055-1.03-.842 6.837h1.038l-.17-5.934zM344.06 211.359l-.426 16.178h.889z"/>
                        <path fill="#B8EBD6" d="M346.758 217.706l-2.536-.692-.588 10.523h.889l-.279-9.75z"/>
                        <path fill="#50BE87" d="M341.4 219.583l2.464-.78.659 8.734h-.889l.21-7.954z"/>
                        <path fill="#0A6E31" d="M346.968 222.571l-2.614-.88-.72 5.846h.889l-.146-5.074zM349.397 208.617l.499 18.92h-1.04z"/>
                        <path fill="#50BE87" d="M346.242 216.04l2.966-.81.688 12.307h-1.04l.326-11.402z"/>
                        <path fill="#B8EBD6" d="M352.509 218.235l-2.882-.912-.77 10.214h1.039l-.246-9.301z"/>
                        <path fill="#0A6E31" d="M345.998 221.73l3.056-1.03.842 6.837h-1.04l.172-5.934zM353.438 211.359l-.426 16.178h.888z"/>
                        <path fill="#B8EBD6" d="M356.136 217.706l-2.536-.692-.588 10.523h.888l-.278-9.75z"/>
                        <path fill="#50BE87" d="M350.778 219.583l2.464-.78.658 8.734h-.888l.21-7.954z"/>
                        <path fill="#0A6E31" d="M356.345 222.571l-2.613-.88-.72 5.846h.889l-.147-5.074zM358.487 208.617l-.499 18.92h1.04z"/>
                        <path fill="#50BE87" d="M361.642 216.04l-2.966-.81-.688 12.307h1.04l-.326-11.402z"/>
                        <path fill="#B8EBD6" d="M355.375 218.235l2.883-.912.77 10.214h-1.04l.247-9.301z"/>
                        <path fill="#0A6E31" d="M361.887 221.73l-3.056-1.03-.843 6.837h1.04l-.172-5.934zM363.063 211.359l.426 16.178h-.888z"/>
                        <path fill="#B8EBD6" d="M360.365 217.706l2.536-.692.588 10.523h-.888l.278-9.75z"/>
                        <path fill="#50BE87" d="M365.723 219.583l-2.464-.78-.658 8.734h.888l-.21-7.954z"/>
                        <path fill="#0A6E31" d="M360.156 222.571l2.613-.88.72 5.846h-.888l.146-5.074zM367.865 208.617l-.499 18.92h1.04z"/>
                        <path fill="#50BE87" d="M371.02 216.04l-2.966-.81-.688 12.307h1.04l-.326-11.402z"/>
                        <path fill="#B8EBD6" d="M364.753 218.235l2.882-.912.77 10.214h-1.039l.247-9.301z"/>
                        <path fill="#0A6E31" d="M371.265 221.73l-3.057-1.03-.842 6.837h1.04l-.172-5.934zM372.194 211.359l-.426 16.178h.888z"/>
                        <path fill="#B8EBD6" d="M374.892 217.706l-2.536-.692-.588 10.523h.888l-.278-9.75z"/>
                        <path fill="#50BE87" d="M369.534 219.583l2.464-.78.658 8.734h-.888l.21-7.954z"/>
                        <path fill="#0A6E31" d="M375.101 222.571l-2.613-.88-.72 5.846h.888l-.146-5.074zM377.53 208.617l.5 18.92h-1.04z"/>
                        <path fill="#50BE87" d="M374.376 216.04l2.966-.81.688 12.307h-1.04l.326-11.402z"/>
                        <path fill="#B8EBD6" d="M380.643 218.235l-2.883-.912-.77 10.214h1.04l-.247-9.301z"/>
                        <path fill="#0A6E31" d="M374.131 221.73l3.056-1.03.843 6.837h-1.04l.172-5.934z"/>
                        <path fill="#FFF" d="M333.888 228.356h48.392v-3.972l-4.743-.45-5.086.252-5.774-.055-3.826.22-7.395-.417-7.675.252-7.967-.252-5.926.084z"/>
                        <path fill="#0A6E31" d="M280.935 229.53l1.92-1.842a5.085 5.085 0 0 0-3.377.118l.036-2.725a4.26 4.26 0 0 0-2.754 3.957l.008-.635a5.27 5.27 0 0 0-3.279-4.986l-.045 3.374a6.294 6.294 0 0 0-4.176-.256l2.315 2.343c-1.506.62-2.494 1.637-3.1 2.715l8.24.108 6.655.087a4.984 4.984 0 0 0-2.443-2.257"/>
                        <path fill="#FFF" d="M287.667 231.797h48.46v-36.004h-48.46z"/>
                        <path fill="#FF7900" d="M318.828 179.26h-13.862l-21.954 16.812h57.77z"/>
                        <path fill="#000" d="M314.03 231.802h-16.808v-21.154c0-4.574 3.76-8.282 8.4-8.282h.007c4.64 0 8.401 3.708 8.401 8.282v21.154z"/>
                        <path fill="#FFB400" d="M305.302 180.093l-18.583 14.989h1.896zM307.017 180.093l-14.173 14.989h2.257zM308.703 180.258l-8.773 14.824h2.348zM310.177 180.258l-4.063 14.824h2.589zM311.897 180.258l.43 14.824h2.2zM313.969 180.258l5.358 14.824h2.771zM315.955 180.093l9.752 14.989h2.076zM317.94 180.093l15.5 14.989h2.109z"/>
                    </g>
                    <g opacity=".396" transform="translate(-46.28 83.067)">
                        <path fill="#B5E8F7" d="M194.512 40.85h-3.418c0-1.44-1.082-2.619-2.406-2.619h-5.383c0-1.44-1.083-2.618-2.406-2.618h-8.545c-1.323 0-2.405 1.178-2.405 2.618h-1.312c-1.323 0-2.405 1.179-2.405 2.619h-2.522c-1.323 0-2.405 1.178-2.405 2.618s1.082 2.62 2.405 2.62h30.802c1.323 0 2.405-1.18 2.405-2.62 0-1.44-1.082-2.618-2.405-2.618"/>
                        <mask id="i" fill="#fff">
                            <use xlink:href="#h"/>
                        </mask>
                        <path fill="#000" d="M127.787 150.83h14.664v-43.992h-14.664zM207.392 152.925h33.518V58.656h-33.518z" mask="url(#i)"/>
                        <path fill="#595959" d="M211.581 62.846h6.285v-2.095h-6.285zM211.581 69.13h6.285v-2.094h-6.285zM211.581 71.225h6.285v-2.094h-6.285zM211.581 77.51h6.285v-2.095h-6.285zM211.581 79.605h6.285V77.51h-6.285zM211.581 85.89h6.285v-2.095h-6.285zM211.581 90.08h6.285v-2.096h-6.285zM211.581 94.269h6.285v-2.095h-6.285zM211.581 100.554h6.285v-2.095h-6.285zM211.581 102.648h6.285v-2.094h-6.285zM211.581 106.838h6.285v-2.095h-6.285zM211.581 111.028h6.285v-2.095h-6.285zM211.581 115.218h6.285v-2.095h-6.285zM211.581 121.502h6.285v-2.095h-6.285zM217.866 62.846h6.285v-2.095h-6.285zM217.866 69.13h6.285v-2.094h-6.285zM217.866 71.225h6.285v-2.094h-6.285zM217.866 77.51h6.285v-2.095h-6.285zM217.866 79.605h6.285V77.51h-6.285zM217.866 85.89h6.285v-2.095h-6.285zM217.866 90.08h6.285v-2.096h-6.285zM217.866 94.269h6.285v-2.095h-6.285zM217.866 100.554h6.285v-2.095h-6.285zM217.866 102.648h6.285v-2.094h-6.285zM217.866 106.838h6.285v-2.095h-6.285zM217.866 111.028h6.285v-2.095h-6.285zM217.866 115.218h6.285v-2.095h-6.285zM217.866 121.502h6.285v-2.095h-6.285z" mask="url(#i)"/>
                        <path fill="#595959" d="M224.15 62.846h6.285v-2.095h-6.284zM224.15 69.13h6.285v-2.094h-6.284zM224.15 71.225h6.285v-2.094h-6.284zM224.15 77.51h6.285v-2.095h-6.284zM224.15 79.605h6.285V77.51h-6.284zM224.15 85.89h6.285v-2.095h-6.284zM224.15 90.08h6.285v-2.096h-6.284zM224.15 94.269h6.285v-2.095h-6.284zM224.15 100.554h6.285v-2.095h-6.284zM224.15 102.648h6.285v-2.094h-6.284zM224.15 106.838h6.285v-2.095h-6.284zM224.15 111.028h6.285v-2.095h-6.284zM224.15 115.218h6.285v-2.095h-6.284zM224.15 121.502h6.285v-2.095h-6.284zM232.53 62.846h6.285v-2.095h-6.285zM232.53 69.13h6.285v-2.094h-6.285zM232.53 71.225h6.285v-2.094h-6.285zM232.53 77.51h6.285v-2.095h-6.285zM232.53 79.605h6.285V77.51h-6.285zM232.53 85.89h6.285v-2.095h-6.285zM232.53 90.08h6.285v-2.096h-6.285zM232.53 94.269h6.285v-2.095h-6.285zM232.53 100.554h6.285v-2.095h-6.285zM232.53 102.648h6.285v-2.094h-6.285zM232.53 106.838h6.285v-2.095h-6.285zM232.53 111.028h6.285v-2.095h-6.285zM232.53 115.218h6.285v-2.095h-6.285zM232.53 121.502h6.285v-2.095h-6.285zM211.581 123.597h6.285v-2.095h-6.285zM211.581 127.787h6.285v-2.095h-6.285zM217.866 123.597h6.285v-2.095h-6.285zM217.866 127.787h6.285v-2.095h-6.285z" mask="url(#i)"/>
                        <path fill="#595959" d="M224.15 123.597h6.285v-2.095h-6.284zM224.15 127.787h6.285v-2.095h-6.284zM232.53 123.597h6.285v-2.095h-6.285zM232.53 127.787h6.285v-2.095h-6.285zM211.581 134.071h6.285v-2.094h-6.285zM211.581 138.261h6.285v-2.095h-6.285zM217.866 134.071h6.285v-2.094h-6.285zM217.866 138.261h6.285v-2.095h-6.285z" mask="url(#i)"/>
                        <path fill="#595959" d="M224.15 134.071h6.285v-2.094h-6.284zM224.15 138.261h6.285v-2.095h-6.284zM232.53 134.071h6.285v-2.094h-6.285zM232.53 138.261h6.285v-2.095h-6.285z" mask="url(#i)"/>
                        <path fill="#0A6E31" d="M318.42 142.45c1.457 0 2.905-.584 3.845-1.522.357.293.818.471 1.322.471 1.128 0 2.043-.885 2.043-1.976 0-.02-.003-.04-.004-.06 1.914-.734 3.268-2.54 3.268-4.653a4.86 4.86 0 0 0-.714-2.537c.453-.744.714-1.61.714-2.537 0-2.12-1.363-3.931-3.287-4.66.015-.113.023-.228.023-.344 0-1.578-1.322-2.857-2.952-2.857-.049 0-.097.001-.146.003-.848-1.417-2.298-2.37-4.112-2.37v23.043z" mask="url(#i)"/>
                        <path fill="#482E26" d="M318.42 133.442v19.483h2.74l-.719-11.823 3.176-3.013 3.182-1.68-.232-.502-2.897.99.431-2.795-.703-.017-.789 2.974-2.613 2.15-.35-5.746 1.477-3.156-.609-.425z" mask="url(#i)"/>
                        <path fill="#000" d="M128.95 74.551h4.711l1.211 5.772-5.923-5.772zm-.383-1.764l3.914-3.864 1.052 5.018h-5.208l.242-1.154zm3.143-3.97l-2.914 2.876.604-2.875h2.31zm.618-.61h-2.8l1.401-6.68 1.401 6.678-.002.002zm3.832 15.221l-4.85-23.124a.588.588 0 0 0 .227-.46.598.598 0 0 0-.374-.55v-1.345a.716.716 0 0 0 .496-.673.724.724 0 0 0-.73-.715.724.724 0 0 0-.73.715c0 .312.21.577.496.673v1.345a.598.598 0 0 0-.374.55c0 .186.09.35.228.46l-4.85 23.124a.306.306 0 0 0 .242.36.312.312 0 0 0 .368-.237l1.866-8.894 6.924 6.749.45 2.145c.035.164.2.271.368.237a.306.306 0 0 0 .243-.36z" mask="url(#i)"/>
                        <path fill="#FFF" d="M60.751 150.83h75.415V87.984H60.751z" mask="url(#i)"/>
                        <path fill="#D6D6D6" d="M71.225 121.502h62.846V94.27H71.225z" mask="url(#i)"/>
                        <path fill="#595959" d="M71.225 119.407h60.752V96.364H71.225z" mask="url(#i)"/>
                        <path fill="#8F8F8F" d="M71.225 150.83h62.846v-29.328H71.225z" mask="url(#i)"/>
                        <path fill="#595959" d="M71.225 121.983h62.846v-.962H71.225zM71.225 124.078h62.846v-.962H71.225zM71.225 126.173h62.846v-.962H71.225zM71.225 130.363h62.846v-.962H71.225zM71.225 132.457h62.846v-.961H71.225zM71.225 136.647h62.846v-.962H71.225z" mask="url(#i)"/>
                        <path fill="#595959" d="M71.225 136.647h62.846v-.962H71.225zM71.225 138.742h62.846v-.962H71.225z" mask="url(#i)"/>
                        <path fill="#595959" d="M71.225 138.742h62.846v-.962H71.225zM71.225 142.932h62.846v-.962H71.225zM71.225 147.122h62.846v-.962H71.225z" mask="url(#i)"/>
                        <path fill="#595959" d="M71.225 147.122h62.846v-.962H71.225zM71.225 151.311h62.846v-.962H71.225zM83.795 85.89h52.371v-2.095H83.795z" mask="url(#i)"/>
                        <path fill="#000" d="M83.795 83.795h52.371V81.7H83.795zM60.751 90.08h75.415v-2.096H60.751z" mask="url(#i)"/>
                        <path fill="#714E46" d="M115.696 152.925l-.187-18.854h-.73l-.04 18.854z" mask="url(#i)"/>
                        <path fill="#0A6E31" d="M120.58 133.153a2.22 2.22 0 0 0 .73-1.669c0-1.184-.878-2.144-1.961-2.144l-.042.002c-.074-.703-.583-1.26-1.226-1.342-.376-1.337-1.515-2.308-2.861-2.308-1.113 0-2.084.665-2.6 1.65a1.483 1.483 0 0 0-.154-.008c-.87 0-1.576.772-1.576 1.723 0 .274.06.533.164.763-.024-.001-.047-.004-.071-.004-.915 0-1.656.81-1.656 1.81 0 .565.237 1.069.608 1.4l-.002.017c-.607.499-1 1.293-1 2.188 0 1.51 1.12 2.735 2.502 2.735.144 0 .285-.014.423-.04.008 1.344 1.006 2.43 2.237 2.43.537 0 1.03-.207 1.415-.552a1.57 1.57 0 0 0 1.12.482c.878 0 1.593-.747 1.647-1.69.112.014.225.022.34.022 1.594 0 2.885-1.412 2.885-3.154 0-.913-.355-1.735-.922-2.311" mask="url(#i)"/>
                        <path fill="#8F8F8F" d="M106.838 81.7h8.38v-8.38h-8.38z" mask="url(#i)"/>
                        <path fill="#D6D6D6" d="M115.218 75.415a4.19 4.19 0 1 1-8.38 0 4.19 4.19 0 0 1 8.38 0" mask="url(#i)"/>
                        <path fill="#595959" d="M115.218 75.415a4.19 4.19 0 1 1-8.38 0 4.19 4.19 0 0 1 8.38 0" mask="url(#i)"/>
                        <path fill="#D6D6D6" d="M115.106 82.18h-8.156c-.061 0-.112-.216-.112-.48 0-.265.05-.481.112-.481h8.156c.061 0 .112.216.112.481 0 .264-.05.48-.112.48" mask="url(#i)"/>
                        <path fill="#000" d="M115.218 75.415a4.19 4.19 0 1 1-8.38 0 4.19 4.19 0 0 1 8.38 0M284.902 14.664c-.263 0-.478-.084-.478-.187V.187c0-.103.215-.187.478-.187s.478.084.478.187v14.29c0 .103-.215.187-.478.187M276.522 77.51h18.854V27.233h-18.854zM280.712 27.233h10.474V14.664h-10.474z" mask="url(#i)"/>
                        <path fill="#595959" d="M285.95 8.38l5.236 8.379h-10.474z" mask="url(#i)"/>
                        <path fill="#595959" d="M280.712 17.24h8.38v-.962h-8.38z" mask="url(#i)"/>
                        <path fill="#595959" d="M280.712 17.24h8.38v-.962h-8.38zM280.712 21.43h8.38v-.962h-8.38zM280.712 23.524h8.38v-.961h-8.38zM280.712 27.714h8.38v-.962h-8.38zM278.617 33.518h2.095v-2.095h-2.095zM278.617 81.7h2.095V35.613h-2.095zM284.902 33.518h2.095v-2.095h-2.095zM284.902 81.7h2.095V35.613h-2.095zM289.092 33.518h2.094v-2.095h-2.094zM289.092 81.7h2.094V35.613h-2.094zM286.997 117.312h23.043V90.08h-23.043z" mask="url(#i)"/>
                        <path fill="#B5E8F7" d="M310.04 90.08h-23.043V77.51h15.81z" mask="url(#i)"/>
                        <path fill="#8F8F8F" d="M305.064 79.124h-15.972v.962h16.758z" mask="url(#i)"/>
                        <path fill="#D6D6D6" d="M289.092 117.312h8.379V90.08h-8.38z" mask="url(#i)"/>
                        <path fill="#D6D6D6" d="M295.376 117.312h8.38V90.08h-8.38z" mask="url(#i)"/>
                        <path fill="#D6D6D6" d="M303.756 117.312h8.379V90.08h-8.38z" mask="url(#i)"/>
                        <path fill="#8F8F8F" d="M289.092 94.75h20.948v-.962h-20.948zM289.092 90.56h20.948v-.962h-20.948zM289.092 101.034h20.948v-.961h-20.948zM289.092 107.32h20.948v-.963h-20.948zM289.092 111.509h20.948v-.962h-20.948z" mask="url(#i)"/>
                        <path fill="#FFB400" d="M270.238 43.992h16.759v-8.38h-16.76z" mask="url(#i)"/>
                        <path fill="#D9C2F0" d="M251.384 152.925h35.613V46.087h-35.613z" mask="url(#i)"/>
                        <path fill="#FF7900" d="M286.997 43.992h-35.613v-8.38h17.806z" mask="url(#i)"/>
                        <path fill="#FFB400" d="M253.479 43.992h16.759v-8.38z" mask="url(#i)"/>
                        <path fill="#B5E8F7" d="M259.763 152.925h16.76v-18.854h-16.76z" mask="url(#i)"/>
                        <path fill="#4BB4E6" d="M270.162 152.925h.152v-18.854h-.152z" mask="url(#i)"/>
                        <path fill="#8F8F8F" d="M259.763 152.925h2.095v-18.854h-2.095zM278.617 152.925h2.095v-18.854h-2.095z" mask="url(#i)"/>
                        <path fill="#FF7900" d="M259.763 131.977l8.941-4.086c.306-.139.667-.139.972 0l8.941 4.086h-18.854z" mask="url(#i)"/>
                        <path fill="#D9C2F0" d="M259.763 148.735c-.057 0-.104-.038-.104-.086v-16.585c0-.049.047-.087.104-.087.058 0 .105.038.105.087v16.585c0 .048-.047.086-.105.086" mask="url(#i)"/>
                        <path fill="#D9C2F0" d="M259.763 148.735c-.057 0-.104-.038-.104-.086v-16.585c0-.049.047-.087.104-.087.058 0 .105.038.105.087v16.585c0 .048-.047.086-.105.086M263.953 148.735c-.058 0-.105-.038-.105-.086v-16.585c0-.049.047-.087.105-.087.058 0 .105.038.105.087v16.585c0 .048-.047.086-.105.086" mask="url(#i)"/>
                        <path fill="#D9C2F0" d="M263.953 148.735c-.058 0-.105-.038-.105-.086v-16.585c0-.049.047-.087.105-.087.058 0 .105.038.105.087v16.585c0 .048-.047.086-.105.086M276.522 148.735c-.057 0-.104-.038-.104-.086v-16.585c0-.049.047-.087.104-.087.058 0 .105.038.105.087v16.585c0 .048-.047.086-.105.086M278.617 148.735c-.058 0-.105-.038-.105-.086v-16.585c0-.049.047-.087.105-.087.058 0 .105.038.105.087v16.585c0 .048-.047.086-.105.086" mask="url(#i)"/>
                        <path fill="#D9C2F0" d="M278.617 148.735c-.058 0-.105-.038-.105-.086v-16.585c0-.049.047-.087.105-.087.058 0 .105.038.105.087v16.585c0 .048-.047.086-.105.086M280.712 148.735c-.058 0-.105-.038-.105-.086v-16.585c0-.049.047-.087.105-.087.058 0 .105.038.105.087v16.585c0 .048-.047.086-.105.086" mask="url(#i)"/>
                        <path fill="#492191" d="M259.763 134.071h18.854v-2.094h-18.854zM253.479 150.83h10.474v-2.095H253.48zM278.617 150.83h10.475v-2.095h-10.475z" mask="url(#i)"/>
                        <path fill="#FFF" d="M272.333 144.546c-.265 0-.478-.041-.478-.091v-1.913c0-.05.213-.091.478-.091.264 0 .478.04.478.091v1.913c0 .05-.214.09-.478.09M270.238 144.546c-.264 0-.478-.041-.478-.091v-1.913c0-.05.214-.091.478-.091s.478.04.478.091v1.913c0 .05-.214.09-.478.09" mask="url(#i)"/>
                        <path fill="#D9C2F0" d="M273.023 29.328l5.594 8.38h-18.854l5.595-8.38z" mask="url(#i)"/>
                        <path fill="#8F8F8F" d="M251.384 46.087h35.613v-2.095h-35.613z" mask="url(#i)"/>
                        <path fill="#000" d="M251.384 46.087h35.613v-2.095h-35.613z" mask="url(#i)"/>
                        <path fill="#FFF" d="M286.997 152.925h31.423v-37.707h-31.423z" mask="url(#i)"/>
                        <path fill="#000" d="M289.092 152.925h23.043v-18.854h-23.043z" mask="url(#i)"/>
                        <path fill="#8F8F8F" d="M291.186 152.925h23.044v-18.854h-23.044z" mask="url(#i)"/>
                        <path fill="#000" d="M286.997 115.699h31.423v-.962h-31.423zM291.186 129.882h8.38v-10.475h-8.38z" mask="url(#i)"/>
                        <path fill="#595959" d="M289.092 123.597h2.094v-2.095h-2.094zM295.376 123.597h2.095v-2.095h-2.095zM289.092 125.692h2.094v-2.095h-2.094zM295.376 125.692h2.095v-2.095h-2.095z" mask="url(#i)"/>
                        <path fill="#000" d="M297.471 129.882h8.38v-10.475h-8.38z" mask="url(#i)"/>
                        <path fill="#595959" d="M299.566 123.597h2.095v-2.095h-2.095zM303.756 123.597h2.094v-2.095h-2.094zM299.566 125.692h2.095v-2.095h-2.095zM303.756 125.692h2.094v-2.095h-2.094z" mask="url(#i)"/>
                        <path fill="#000" d="M310.04 129.882h8.38v-10.475h-8.38z" mask="url(#i)"/>
                        <path fill="#595959" d="M310.04 123.597h2.095v-2.095h-2.095z" mask="url(#i)"/>
                        <path fill="#595959" d="M312.135 123.597h2.095v-2.095h-2.095zM310.04 125.692h2.095v-2.095h-2.095z" mask="url(#i)"/>
                        <path fill="#595959" d="M312.135 125.692h2.095v-2.095h-2.095z" mask="url(#i)"/>
                        <path fill="#8F8F8F" d="M289.092 130.363h8.379v-.962h-8.38zM299.566 130.363h8.38v-.962h-8.38z" mask="url(#i)"/>
                        <path fill="#8F8F8F" d="M307.945 130.363h8.38v-.962h-8.38z" mask="url(#i)"/>
                        <path fill="#000" d="M297.321 150.83h-1.795a.154.154 0 0 1-.15-.158v-1.937h2.095v1.937c0 .087-.067.158-.15.158M311.986 150.83h-1.796a.154.154 0 0 1-.15-.158v-1.937h2.095v1.937c0 .087-.067.158-.15.158" mask="url(#i)"/>
                        <path fill="#000" d="M311.7 140.677h-1.367l-.554-3.087c-.149-.826-.822-1.424-1.605-1.424h-10.91c-.78 0-1.451.593-1.603 1.415l-.57 3.096h-1.375c-.244 0-.435.283-.435.63 0 .346.191.655.435.686l1.1.143-.708 2.312a6.263 6.263 0 0 0-.22 1.644v4.153c0 .323.245.585.546.585h16.548c.301 0 .545-.262.545-.585v-4.153c0-.557-.073-1.11-.219-1.644l-.708-2.312 1.1-.143c.244-.031.435-.34.435-.686 0-.347-.191-.63-.435-.63" mask="url(#i)"/>
                        <path fill="#B5E8F7" d="M308.663 138.261h-11.905c-.236 0-.468.163-.515.363l-.864 3.683c-.018.074.049.144.137.144H309.9c.089 0 .155-.07.137-.144l-.864-3.688c-.047-.197-.276-.358-.51-.358" mask="url(#i)"/>
                        <path fill="#595959" d="M309.732 151.311h-14.047c-.17 0-.309-.216-.309-.48 0-.265.139-.482.309-.482h14.047c.17 0 .308.217.308.481 0 .265-.139.481-.308.481" mask="url(#i)"/>
                        <path fill="#FFF6B6" d="M295.426 146.64h1.995c.028 0 .05-.037.05-.082v-1.93c0-.045-.022-.082-.05-.082h-1.945c-.055 0-.1.074-.1.166v1.846c0 .045.023.083.05.083" mask="url(#i)"/>
                        <path fill="#FF7900" d="M295.426 146.16h1.995c.028 0 .05.059.05.13v.7c0 .073-.022.132-.05.132h-1.945c-.055 0-.1-.118-.1-.262v-.57c0-.071.023-.13.05-.13" mask="url(#i)"/>
                        <path fill="#FFF6B6" d="M312.085 146.64h-1.995c-.027 0-.05-.037-.05-.082v-1.93c0-.045.023-.082.05-.082h1.945c.055 0 .1.074.1.166v1.846c0 .045-.022.083-.05.083" mask="url(#i)"/>
                        <path fill="#FF7900" d="M312.085 146.16h-1.995c-.027 0-.05.059-.05.13v.7c0 .073.023.132.05.132h1.945c.055 0 .1-.118.1-.262v-.57c0-.071-.022-.13-.05-.13" mask="url(#i)"/>
                        <path fill="#8F8F8F" d="M307.878 148.735h-8.245c-.037 0-.067-.02-.067-.043v-2.008c0-.024.03-.043.067-.043h8.245c.037 0 .067.02.067.043v2.008c0 .024-.03.043-.067.043" mask="url(#i)"/>
                        <path fill="#595959" d="M299.566 144.66h8.38v-.23h-8.38z" mask="url(#i)"/>
                        <path fill="#595959" d="M299.566 144.66h8.38v-.23h-8.38z" mask="url(#i)"/>
                        <path fill="#595959" d="M299.566 144.66h8.38v-.23h-8.38zM299.566 146.756h8.38v-.23h-8.38z" mask="url(#i)"/>
                        <path fill="#595959" d="M299.566 146.756h8.38v-.23h-8.38zM299.566 148.85h8.38v-.23h-8.38z" mask="url(#i)"/>
                        <path fill="#FF7900" d="M207.392 150.83h43.992V85.89h-43.992z" mask="url(#i)"/>
                        <path fill="#8F8F8F" d="M234.625 85.89h18.854v-8.38h-18.854z" mask="url(#i)"/>
                        <path fill="#FFD200" d="M233.165 85.89h-.635v-1.232c0-.477.322-.863.72-.863h1.375v.76h-1.27c-.104 0-.19.104-.19.23v1.105z" mask="url(#i)"/>
                        <path fill="#FFB400" d="M227.837 87.984h-1.591v-4.55c0-.957.808-1.734 1.804-1.734h6.575v1.53h-6.31a.47.47 0 0 0-.478.459v4.295z" mask="url(#i)"/>
                        <path fill="#FFD200" d="M234.58 85.89h.523v-2.095h-.524c-.239 0-.432.354-.432.79v.514c0 .436.193.79.432.79" mask="url(#i)"/>
                        <path fill="#FFD200" d="M234.455 86.37h.34c.17 0 .308-.216.308-.48 0-.265-.139-.481-.308-.481h-.34c-.17 0-.308.216-.308.48 0 .265.138.481.308.481" mask="url(#i)"/>
                        <path fill="#FF7900" d="M234.625 85.89c-.058 0-.105-.04-.105-.087v-1.921c0-.048.047-.087.105-.087.057 0 .105.039.105.087v1.92c0 .048-.048.088-.105.088" mask="url(#i)"/>
                        <path fill="#595959" d="M236.72 83.795h6.284V77.51h-6.284z" mask="url(#i)"/>
                        <path fill="#000" d="M234.625 79.67h6.285v-.131h-6.285z" mask="url(#i)"/>
                        <path fill="#000" d="M234.625 79.67h6.285v-.131h-6.285z" mask="url(#i)"/>
                        <path fill="#000" d="M234.625 79.67h6.285v-.131h-6.285z" mask="url(#i)"/>
                        <path fill="#000" d="M234.625 79.67h6.285v-.131h-6.285z" mask="url(#i)"/>
                        <path fill="#000" d="M234.625 79.67h6.285v-.131h-6.285z" mask="url(#i)"/>
                        <path fill="#000" d="M234.625 79.67h6.285v-.131h-6.285zM234.625 81.766h6.285v-.132h-6.285z" mask="url(#i)"/>
                        <path fill="#000" d="M234.625 81.766h6.285v-.132h-6.285z" mask="url(#i)"/>
                        <path fill="#000" d="M234.625 81.766h6.285v-.132h-6.285z" mask="url(#i)"/>
                        <path fill="#000" d="M234.625 81.766h6.285v-.132h-6.285z" mask="url(#i)"/>
                        <path fill="#000" d="M234.625 81.766h6.285v-.132h-6.285z" mask="url(#i)"/>
                        <path fill="#000" d="M234.625 81.766h6.285v-.132h-6.285z" mask="url(#i)"/>
                        <path fill="#000" d="M234.625 81.766h6.285v-.132h-6.285z" mask="url(#i)"/>
                        <path fill="#000" d="M234.625 81.766h6.285v-.132h-6.285z" mask="url(#i)"/>
                        <path fill="#000" d="M234.625 81.766h6.285v-.132h-6.285z" mask="url(#i)"/>
                        <path fill="#000" d="M234.625 81.766h6.285v-.132h-6.285z" mask="url(#i)"/>
                        <path fill="#000" d="M234.625 81.766h6.285v-.132h-6.285z" mask="url(#i)"/>
                        <path fill="#000" d="M234.625 81.766h6.285v-.132h-6.285z" mask="url(#i)"/>
                        <path fill="#000" d="M234.625 81.766h6.285v-.132h-6.285zM234.625 83.86h6.285v-.131h-6.285z" mask="url(#i)"/>
                        <path fill="#000" d="M234.625 83.86h6.285v-.131h-6.285z" mask="url(#i)"/>
                        <path fill="#000" d="M234.625 83.86h6.285v-.131h-6.285z" mask="url(#i)"/>
                        <path fill="#000" d="M234.625 83.86h6.285v-.131h-6.285z" mask="url(#i)"/>
                        <path fill="#000" d="M234.625 83.86h6.285v-.131h-6.285z" mask="url(#i)"/>
                        <path fill="#000" d="M234.625 83.86h6.285v-.131h-6.285z" mask="url(#i)"/>
                        <path fill="#000" d="M234.625 83.86h6.285v-.131h-6.285z" mask="url(#i)"/>
                        <path fill="#000" d="M234.625 83.86h6.285v-.131h-6.285z" mask="url(#i)"/>
                        <path fill="#000" d="M234.625 83.86h6.285v-.131h-6.285z" mask="url(#i)"/>
                        <path fill="#8F8F8F" d="M236.803 79.605a.083.083 0 1 1-.166 0 .083.083 0 0 1 .166 0M236.803 83.795a.083.083 0 1 1-.166 0 .083.083 0 0 1 .166 0M240.993 79.605a.083.083 0 1 1-.166 0 .083.083 0 0 1 .166 0M240.993 83.795a.083.083 0 1 1-.166 0 .083.083 0 0 1 .166 0" mask="url(#i)"/>
                        <path fill="#595959" d="M243.004 83.795h6.285V77.51h-6.285z" mask="url(#i)"/>
                        <path fill="#8F8F8F" d="M243.087 79.605a.083.083 0 1 1-.165 0 .083.083 0 0 1 .165 0M243.087 83.795a.083.083 0 1 1-.165 0 .083.083 0 0 1 .165 0M249.372 79.605a.083.083 0 1 1-.166 0 .083.083 0 0 1 .166 0M249.372 83.795a.083.083 0 1 1-.166 0 .083.083 0 0 1 .166 0M247.194 80.652a1.047 1.047 0 1 1-2.095 0 1.047 1.047 0 0 1 2.095 0" mask="url(#i)"/>
                        <path fill="#000" d="M247.194 80.652a1.047 1.047 0 1 1-2.095 0 1.047 1.047 0 0 1 2.095 0" mask="url(#i)"/>
                        <path fill="#8F8F8F" d="M245.577 81.7a.48.48 0 0 1-.478.48.48.48 0 0 1-.478-.48.48.48 0 0 1 .478-.481.48.48 0 0 1 .478.48" mask="url(#i)"/>
                        <path fill="#8F8F8F" d="M245.1 81.805h2.094v-.21H245.1z" mask="url(#i)"/>
                        <path fill="#8F8F8F" d="M244.995 81.7h.21v-2.095h-.21zM249.29 77.51h2.094v-2.095h-2.095z" mask="url(#i)"/>
                        <path fill="#595959" d="M249.29 75.896h2.094v-.962h-2.095z" mask="url(#i)"/>
                        <path fill="#8F8F8F" d="M251.384 75.896h-2.095l.495-.962h1.105zM245.1 77.51h2.094v-2.095H245.1z" mask="url(#i)"/>
                        <path fill="#595959" d="M245.1 75.896h2.094v-.962H245.1z" mask="url(#i)"/>
                        <path fill="#8F8F8F" d="M247.194 75.896H245.1l.495-.962h1.106z" mask="url(#i)"/>
                        <path fill="#FFD200" d="M207.392 87.984h43.992V85.89h-43.992z" mask="url(#i)"/>
                        <path fill="#000" d="M213.676 129.882h33.518v-2.095h-33.518z" mask="url(#i)"/>
                        <path fill="#D6D6D6" d="M225.25 77.51v9.477h-17.858v.997h18.854V77.51z" mask="url(#i)"/>
                        <path fill="#D6D6D6" d="M207.392 83.795l3.88-8.38h14.974l-3.88 8.38z" mask="url(#i)"/>
                        <path fill="#FFF" d="M228.34 77.51H213.442l-.17.45-3.397 8.995-.388 1.03H224.385l.17-.45 3.397-8.996.388-1.029zm-.992.74l-3.397 8.995H210.48l3.397-8.995h13.472z" mask="url(#i)"/>
                        <path fill="#000" d="M215.044 79.605h-1.368l.728-2.095h1.367zM217.139 79.605h-1.368l.727-2.095h1.368zM223.423 79.605h-1.367l.727-2.095h1.368zM215.044 83.795h-1.368l.728-2.095h1.367z" mask="url(#i)"/>
                        <path fill="#000" d="M215.044 83.795h-1.368l.728-2.095h1.367zM221.329 83.795h-1.368l.727-2.095h1.368zM223.423 79.605h-1.367l.727-2.095h1.368zM223.423 83.795h-1.367l.727-2.095h1.368z" mask="url(#i)"/>
                        <path fill="#D6D6D6" d="M238.815 77.51V63.533c0-.378.471-.687 1.047-.687s1.048.31 1.048.687V77.51h-2.095z" mask="url(#i)"/>
                        <path fill="#595959" d="M239.183 65.248a.476.476 0 0 1-.673.063.483.483 0 0 1-.063-.677.476.476 0 0 1 .673-.064c.203.17.231.473.063.678" mask="url(#i)"/>
                        <path fill="#D6D6D6" d="M235.877 67.929c2.064-2.77 2.647-3.146 2.87-2.941.22.204-.002.91-2.067 3.68 0 0-3.918 4.85-4.14 4.646-.222-.204 3.337-5.385 3.337-5.385" mask="url(#i)"/>
                        <path fill="#8F8F8F" d="M232.54 73.32c-.224-.204 3.374-5.389 3.374-5.389 2.087-2.772 2.676-3.148 2.9-2.943l-6.274 8.332z" mask="url(#i)"/>
                        <path fill="#D6D6D6" d="M242.072 64.367c-2.787-.586-3.297-.95-3.255-1.258.042-.307.62-.442 3.407.144 0 0 5.012 1.31 4.97 1.618-.042.308-5.122-.504-5.122-.504" mask="url(#i)"/>
                        <path fill="#8F8F8F" d="M247.194 66.956c-.042.352-5.122-.577-5.122-.577-2.787-.67-3.297-1.086-3.255-1.438l8.377 2.015zM235.554 61.77c.662 2.783.92 3.252 1.079 3.16.159-.092.158-.71-.505-3.493 0 0-1.328-4.966-1.487-4.874-.159.092.913 5.207.913 5.207" mask="url(#i)"/>
                        <path fill="#D6D6D6" d="M234.642 56.561c-.166.092.952 5.208.952 5.208.691 2.784.96 3.253 1.126 3.161l-2.078-8.369z" mask="url(#i)"/>
                        <path fill="#FFF" d="M239.183 65.248a.476.476 0 0 1-.673.063.483.483 0 0 1-.063-.677.476.476 0 0 1 .673-.063c.203.169.231.472.063.677M213.676 152.925H245.1v-23.043h-31.423z" mask="url(#i)"/>
                        <path fill="#000" d="M213.198 152.925h.956v-23.043h-.956zM244.621 152.925h.956v-23.043h-.956z" mask="url(#i)"/>
                        <path fill="#FFD200" d="M230.435 118.8v-1.488h-6.284v6.285h6.284v-1.487h-4.797v-3.31z" mask="url(#i)"/>
                        <path fill="#FFD200" d="M233.138 119.407h-4.798v1.487h4.798v3.311h-4.798v1.487h6.285v-6.285z" mask="url(#i)"/>
                        <path fill="#FFF6B6" d="M136.166 83.795h8.38V69.13h-8.38z" mask="url(#i)"/>
                        <path fill="#FFB400" d="M144.292 69.611h-7.872c-.14 0-.254-.216-.254-.48 0-.265.115-.481.254-.481h7.872c.14 0 .254.216.254.48 0 .265-.115.481-.254.481" mask="url(#i)"/>
                        <path fill="#FFF6B6" d="M196.917 83.795h8.38V69.13h-8.38z" mask="url(#i)"/>
                        <path fill="#FFB400" d="M205.043 69.611h-7.872c-.14 0-.254-.216-.254-.48 0-.265.115-.481.254-.481h7.872c.14 0 .254.216.254.48 0 .265-.114.481-.254.481" mask="url(#i)"/>
                        <path fill="#D6D6D6" d="M136.166 152.925h71.226V94.27h-71.226z" mask="url(#i)"/>
                        <path fill="#4BB4E6" d="M144.546 131.977h10.474v-2.095h-10.474z" mask="url(#i)"/>
                        <path fill="#FFF" d="M144.546 134.071h10.474v-2.094h-10.474z" mask="url(#i)"/>
                        <path fill="#595959" d="M205.259 83.795L198.17 73.32h-54.878l-7.089 10.475-2.133 10.474h73.32z" mask="url(#i)"/>
                        <path fill="#000" d="M205.297 81.7L198.2 71.225h-54.939L136.166 81.7z" mask="url(#i)"/>
                        <path fill="#FF7900" d="M180.158 152.925h-18.853v-23.618l8.686-5.5c.442-.28.995-.28 1.437-.001l8.73 5.5v23.62z" mask="url(#i)"/>
                        <path fill="#B5E8F7" d="M163.4 150.83h14.664v-20.948H163.4z" mask="url(#i)"/>
                        <path fill="#8F8F8F" d="M161.305 125.692l8.687-6.054a1.235 1.235 0 0 1 1.436-.001l8.73 6.055h-18.853zM136.166 150.83h23.044v-6.284h-23.044zM182.253 150.83h23.044v-6.284h-23.044z" mask="url(#i)"/>
                        <path fill="#595959" d="M136.166 147.122h23.044v-.962h-23.044zM182.253 147.122h23.044v-.962h-23.044z" mask="url(#i)"/>
                        <path fill="#000" d="M161.305 129.882h20.948v-2.095h-20.948z" mask="url(#i)"/>
                        <path fill="#FFF" d="M161.305 152.925h20.948v-2.095h-20.948z" mask="url(#i)"/>
                        <path fill="#8F8F8F" d="M136.166 94.75h71.226v-.962h-71.226z" mask="url(#i)"/>
                        <path fill="#000" d="M186.443 142.45h10.474v-14.663h-10.474z" mask="url(#i)"/>
                        <path fill="#FFF" d="M188.538 142.45h8.38v-12.568h-8.38z" mask="url(#i)"/>
                        <path fill="#B5E8F7" d="M188.538 136.166h2.095v-6.284h-2.095zM192.728 136.166h2.095v-6.284h-2.095z" mask="url(#i)"/>
                        <path fill="#B5E8F7" d="M188.538 140.356h2.095v-6.285h-2.095zM192.728 140.356h2.095v-6.285h-2.095z" mask="url(#i)"/>
                        <path fill="#595959" d="M188.538 140.837h10.474v-.962h-10.474z" mask="url(#i)"/>
                        <path fill="#D6D6D6" d="M171.779 122.55a1.047 1.047 0 1 1-2.095 0 1.047 1.047 0 0 1 2.095 0" mask="url(#i)"/>
                        <path fill="#8F8F8F" d="M171.779 122.55a1.047 1.047 0 1 1-2.095 0 1.047 1.047 0 0 1 2.095 0" mask="url(#i)"/>
                        <path fill="#D6D6D6" d="M171.779 122.55a1.047 1.047 0 1 1-2.095 0 1.047 1.047 0 0 1 2.095 0" mask="url(#i)"/>
                        <path fill="#595959" d="M170.823 125.334a.89.89 0 0 0 .154-.013.425.425 0 0 0 .13-.044.242.242 0 0 0 .089-.084.25.25 0 0 0 .033-.135c0-.107-.036-.184-.108-.23a.532.532 0 0 0-.288-.07h-.599v.576h.589zm-.032-.889c.098 0 .179-.02.242-.059.063-.039.095-.102.095-.19a.212.212 0 0 0-.032-.12.217.217 0 0 0-.084-.074.396.396 0 0 0-.121-.037.943.943 0 0 0-.142-.01h-.515v.49h.557zm.07-.848c.12 0 .228.009.326.027a.794.794 0 0 1 .252.086c.07.04.125.094.163.16a.485.485 0 0 1 .058.246.405.405 0 0 1-.086.264.613.613 0 0 1-.254.174c.154.037.27.102.345.195a.515.515 0 0 1 .114.336.501.501 0 0 1-.073.274.577.577 0 0 1-.198.19.97.97 0 0 1-.284.108 1.525 1.525 0 0 1-.328.035h-1.212v-2.095h1.177z" mask="url(#i)"/>
                        <path fill="#8F8F8F" d="M150.83 92.174h10.475V77.51H150.83z" mask="url(#i)"/>
                        <path fill="#FFF" d="M152.925 90.08h8.38V77.51h-8.38z" mask="url(#i)"/>
                        <path fill="#D6D6D6" d="M150.83 77.51l5.238-2.095 5.237 2.095z" mask="url(#i)"/>
                        <path fill="#595959" d="M150.83 75.896h10.475v-.962H150.83z" mask="url(#i)"/>
                        <path fill="#B5E8F7" d="M152.925 83.795h2.095V77.51h-2.095zM155.02 83.795h2.095V77.51h-2.095zM152.925 90.08h2.095v-6.285h-2.095zM155.02 90.08h2.095v-6.285h-2.095z" mask="url(#i)"/>
                        <path fill="#8F8F8F" d="M182.253 92.174h10.475V77.51h-10.475z" mask="url(#i)"/>
                        <path fill="#FFF" d="M184.348 90.08h8.38V77.51h-8.38z" mask="url(#i)"/>
                        <path fill="#D6D6D6" d="M182.253 77.51l5.238-2.095 5.237 2.095z" mask="url(#i)"/>
                        <path fill="#595959" d="M182.253 75.896h10.475v-.962h-10.475z" mask="url(#i)"/>
                        <path fill="#B5E8F7" d="M184.348 83.795h2.095V77.51h-2.095zM188.538 83.795h2.095V77.51h-2.095zM184.348 90.08h2.095v-6.285h-2.095zM188.538 90.08h2.095v-6.285h-2.095z" mask="url(#i)"/>
                        <path fill="#000" d="M144.546 115.218h10.474v-14.664h-10.474z" mask="url(#i)"/>
                        <path fill="#FFF" d="M146.64 113.123h8.38v-12.57h-8.38z" mask="url(#i)"/>
                        <path fill="#B5E8F7" d="M146.64 106.838h2.095v-6.284h-2.094zM150.83 106.838h2.095v-6.284h-2.095z" mask="url(#i)"/>
                        <path fill="#B5E8F7" d="M146.64 111.028h2.095v-6.285h-2.094zM150.83 111.028h2.095v-6.285h-2.095z" mask="url(#i)"/>
                        <path fill="#FF7900" d="M157.115 115.218h4.19v-14.664h-4.19z" mask="url(#i)"/>
                        <path fill="#D6D6D6" d="M157.115 100.658h2.095v-.21h-2.095z" mask="url(#i)"/>
                        <path fill="#D6D6D6" d="M157.115 100.658h2.095v-.21h-2.095z" mask="url(#i)"/>
                        <path fill="#D6D6D6" d="M157.115 100.658h2.095v-.21h-2.095zM157.115 102.753h2.095v-.21h-2.095z" mask="url(#i)"/>
                        <path fill="#D6D6D6" d="M157.115 102.753h2.095v-.21h-2.095z" mask="url(#i)"/>
                        <path fill="#D6D6D6" d="M157.115 102.753h2.095v-.21h-2.095zM157.115 104.848h2.095v-.21h-2.095z" mask="url(#i)"/>
                        <path fill="#D6D6D6" d="M157.115 104.848h2.095v-.21h-2.095z" mask="url(#i)"/>
                        <path fill="#D6D6D6" d="M157.115 104.848h2.095v-.21h-2.095z" mask="url(#i)"/>
                        <path fill="#D6D6D6" d="M157.115 104.848h2.095v-.21h-2.095z" mask="url(#i)"/>
                        <path fill="#D6D6D6" d="M157.115 104.848h2.095v-.21h-2.095z" mask="url(#i)"/>
                        <path fill="#D6D6D6" d="M157.115 104.848h2.095v-.21h-2.095z" mask="url(#i)"/>
                        <path fill="#D6D6D6" d="M157.115 104.848h2.095v-.21h-2.095zM157.115 106.943h2.095v-.21h-2.095z" mask="url(#i)"/>
                        <path fill="#D6D6D6" d="M157.115 106.943h2.095v-.21h-2.095z" mask="url(#i)"/>
                        <path fill="#D6D6D6" d="M157.115 106.943h2.095v-.21h-2.095z" mask="url(#i)"/>
                        <path fill="#D6D6D6" d="M157.115 106.943h2.095v-.21h-2.095z" mask="url(#i)"/>
                        <path fill="#D6D6D6" d="M157.115 106.943h2.095v-.21h-2.095z" mask="url(#i)"/>
                        <path fill="#D6D6D6" d="M157.115 106.943h2.095v-.21h-2.095z" mask="url(#i)"/>
                        <path fill="#D6D6D6" d="M157.115 106.943h2.095v-.21h-2.095z" mask="url(#i)"/>
                        <path fill="#D6D6D6" d="M157.115 106.943h2.095v-.21h-2.095zM157.115 109.038h2.095v-.21h-2.095z" mask="url(#i)"/>
                        <path fill="#D6D6D6" d="M157.115 109.038h2.095v-.21h-2.095z" mask="url(#i)"/>
                        <path fill="#D6D6D6" d="M157.115 109.038h2.095v-.21h-2.095z" mask="url(#i)"/>
                        <path fill="#D6D6D6" d="M157.115 109.038h2.095v-.21h-2.095z" mask="url(#i)"/>
                        <path fill="#D6D6D6" d="M157.115 109.038h2.095v-.21h-2.095z" mask="url(#i)"/>
                        <path fill="#D6D6D6" d="M157.115 109.038h2.095v-.21h-2.095zM157.115 111.133h2.095v-.21h-2.095z" mask="url(#i)"/>
                        <path fill="#D6D6D6" d="M157.115 111.133h2.095v-.21h-2.095z" mask="url(#i)"/>
                        <path fill="#FF7900" d="M142.45 115.218h4.19v-14.664h-4.19z" mask="url(#i)"/>
                        <path fill="#D6D6D6" d="M142.45 100.658h2.096v-.21h-2.095z" mask="url(#i)"/>
                        <path fill="#D6D6D6" d="M142.45 100.658h2.096v-.21h-2.095z" mask="url(#i)"/>
                        <path fill="#D6D6D6" d="M142.45 100.658h2.096v-.21h-2.095zM142.45 102.753h2.096v-.21h-2.095z" mask="url(#i)"/>
                        <path fill="#D6D6D6" d="M142.45 102.753h2.096v-.21h-2.095z" mask="url(#i)"/>
                        <path fill="#D6D6D6" d="M142.45 102.753h2.096v-.21h-2.095zM142.45 104.848h2.096v-.21h-2.095z" mask="url(#i)"/>
                        <path fill="#D6D6D6" d="M142.45 104.848h2.096v-.21h-2.095z" mask="url(#i)"/>
                        <path fill="#D6D6D6" d="M142.45 104.848h2.096v-.21h-2.095z" mask="url(#i)"/>
                        <path fill="#D6D6D6" d="M142.45 104.848h2.096v-.21h-2.095z" mask="url(#i)"/>
                        <path fill="#D6D6D6" d="M142.45 104.848h2.096v-.21h-2.095z" mask="url(#i)"/>
                        <path fill="#D6D6D6" d="M142.45 104.848h2.096v-.21h-2.095z" mask="url(#i)"/>
                        <path fill="#D6D6D6" d="M142.45 104.848h2.096v-.21h-2.095zM142.45 106.943h2.096v-.21h-2.095z" mask="url(#i)"/>
                        <path fill="#D6D6D6" d="M142.45 106.943h2.096v-.21h-2.095z" mask="url(#i)"/>
                        <path fill="#D6D6D6" d="M142.45 106.943h2.096v-.21h-2.095z" mask="url(#i)"/>
                        <path fill="#D6D6D6" d="M142.45 106.943h2.096v-.21h-2.095z" mask="url(#i)"/>
                        <path fill="#D6D6D6" d="M142.45 106.943h2.096v-.21h-2.095z" mask="url(#i)"/>
                        <path fill="#D6D6D6" d="M142.45 106.943h2.096v-.21h-2.095z" mask="url(#i)"/>
                        <path fill="#D6D6D6" d="M142.45 106.943h2.096v-.21h-2.095z" mask="url(#i)"/>
                        <path fill="#D6D6D6" d="M142.45 106.943h2.096v-.21h-2.095zM142.45 109.038h2.096v-.21h-2.095z" mask="url(#i)"/>
                        <path fill="#D6D6D6" d="M142.45 109.038h2.096v-.21h-2.095z" mask="url(#i)"/>
                        <path fill="#D6D6D6" d="M142.45 109.038h2.096v-.21h-2.095z" mask="url(#i)"/>
                        <path fill="#D6D6D6" d="M142.45 109.038h2.096v-.21h-2.095z" mask="url(#i)"/>
                        <path fill="#D6D6D6" d="M142.45 109.038h2.096v-.21h-2.095z" mask="url(#i)"/>
                        <path fill="#D6D6D6" d="M142.45 109.038h2.096v-.21h-2.095zM142.45 111.133h2.096v-.21h-2.095z" mask="url(#i)"/>
                        <path fill="#D6D6D6" d="M142.45 111.133h2.096v-.21h-2.095z" mask="url(#i)"/>
                        <path fill="#000" d="M165.494 115.218h10.475v-14.664h-10.475z" mask="url(#i)"/>
                        <path fill="#FFF" d="M167.59 113.123h8.379v-12.57h-8.38z" mask="url(#i)"/>
                        <path fill="#B5E8F7" d="M167.59 106.838h2.094v-6.284h-2.095zM171.779 106.838h2.095v-6.284h-2.095z" mask="url(#i)"/>
                        <path fill="#B5E8F7" d="M167.59 111.028h2.094v-6.285h-2.095zM171.779 111.028h2.095v-6.285h-2.095z" mask="url(#i)"/>
                        <path fill="#FF7900" d="M175.969 115.218h4.19v-14.664h-4.19z" mask="url(#i)"/>
                        <path fill="#D6D6D6" d="M178.064 100.658h2.094v-.21h-2.094z" mask="url(#i)"/>
                        <path fill="#D6D6D6" d="M178.064 100.658h2.094v-.21h-2.094z" mask="url(#i)"/>
                        <path fill="#D6D6D6" d="M178.064 100.658h2.094v-.21h-2.094zM178.064 102.753h2.094v-.21h-2.094z" mask="url(#i)"/>
                        <path fill="#D6D6D6" d="M178.064 102.753h2.094v-.21h-2.094z" mask="url(#i)"/>
                        <path fill="#D6D6D6" d="M178.064 102.753h2.094v-.21h-2.094zM178.064 104.848h2.094v-.21h-2.094z" mask="url(#i)"/>
                        <path fill="#D6D6D6" d="M178.064 104.848h2.094v-.21h-2.094z" mask="url(#i)"/>
                        <path fill="#D6D6D6" d="M178.064 104.848h2.094v-.21h-2.094z" mask="url(#i)"/>
                        <path fill="#D6D6D6" d="M178.064 104.848h2.094v-.21h-2.094z" mask="url(#i)"/>
                        <path fill="#D6D6D6" d="M178.064 104.848h2.094v-.21h-2.094z" mask="url(#i)"/>
                        <path fill="#D6D6D6" d="M178.064 104.848h2.094v-.21h-2.094z" mask="url(#i)"/>
                        <path fill="#D6D6D6" d="M178.064 104.848h2.094v-.21h-2.094zM178.064 106.943h2.094v-.21h-2.094z" mask="url(#i)"/>
                        <path fill="#D6D6D6" d="M178.064 106.943h2.094v-.21h-2.094z" mask="url(#i)"/>
                        <path fill="#D6D6D6" d="M178.064 106.943h2.094v-.21h-2.094z" mask="url(#i)"/>
                        <path fill="#D6D6D6" d="M178.064 106.943h2.094v-.21h-2.094z" mask="url(#i)"/>
                        <path fill="#D6D6D6" d="M178.064 106.943h2.094v-.21h-2.094z" mask="url(#i)"/>
                        <path fill="#D6D6D6" d="M178.064 106.943h2.094v-.21h-2.094z" mask="url(#i)"/>
                        <path fill="#D6D6D6" d="M178.064 106.943h2.094v-.21h-2.094z" mask="url(#i)"/>
                        <path fill="#D6D6D6" d="M178.064 106.943h2.094v-.21h-2.094zM178.064 109.038h2.094v-.21h-2.094z" mask="url(#i)"/>
                        <path fill="#D6D6D6" d="M178.064 109.038h2.094v-.21h-2.094z" mask="url(#i)"/>
                        <path fill="#D6D6D6" d="M178.064 109.038h2.094v-.21h-2.094z" mask="url(#i)"/>
                        <path fill="#D6D6D6" d="M178.064 109.038h2.094v-.21h-2.094z" mask="url(#i)"/>
                        <path fill="#D6D6D6" d="M178.064 109.038h2.094v-.21h-2.094z" mask="url(#i)"/>
                        <path fill="#D6D6D6" d="M178.064 109.038h2.094v-.21h-2.094zM178.064 111.133h2.094v-.21h-2.094z" mask="url(#i)"/>
                        <path fill="#D6D6D6" d="M178.064 111.133h2.094v-.21h-2.094z" mask="url(#i)"/>
                        <path fill="#FF7900" d="M161.305 115.218h4.19v-14.664h-4.19z" mask="url(#i)"/>
                        <path fill="#D6D6D6" d="M163.4 100.658h2.094v-.21H163.4z" mask="url(#i)"/>
                        <path fill="#D6D6D6" d="M163.4 100.658h2.094v-.21H163.4z" mask="url(#i)"/>
                        <path fill="#D6D6D6" d="M163.4 100.658h2.094v-.21H163.4zM163.4 102.753h2.094v-.21H163.4z" mask="url(#i)"/>
                        <path fill="#D6D6D6" d="M163.4 102.753h2.094v-.21H163.4z" mask="url(#i)"/>
                        <path fill="#D6D6D6" d="M163.4 102.753h2.094v-.21H163.4zM163.4 104.848h2.094v-.21H163.4z" mask="url(#i)"/>
                        <path fill="#D6D6D6" d="M163.4 104.848h2.094v-.21H163.4z" mask="url(#i)"/>
                        <path fill="#D6D6D6" d="M163.4 104.848h2.094v-.21H163.4z" mask="url(#i)"/>
                        <path fill="#D6D6D6" d="M163.4 104.848h2.094v-.21H163.4z" mask="url(#i)"/>
                        <path fill="#D6D6D6" d="M163.4 104.848h2.094v-.21H163.4z" mask="url(#i)"/>
                        <path fill="#D6D6D6" d="M163.4 104.848h2.094v-.21H163.4z" mask="url(#i)"/>
                        <path fill="#D6D6D6" d="M163.4 104.848h2.094v-.21H163.4zM163.4 106.943h2.094v-.21H163.4z" mask="url(#i)"/>
                        <path fill="#D6D6D6" d="M163.4 106.943h2.094v-.21H163.4z" mask="url(#i)"/>
                        <path fill="#D6D6D6" d="M163.4 106.943h2.094v-.21H163.4z" mask="url(#i)"/>
                        <path fill="#D6D6D6" d="M163.4 106.943h2.094v-.21H163.4z" mask="url(#i)"/>
                        <path fill="#D6D6D6" d="M163.4 106.943h2.094v-.21H163.4z" mask="url(#i)"/>
                        <path fill="#D6D6D6" d="M163.4 106.943h2.094v-.21H163.4z" mask="url(#i)"/>
                        <path fill="#D6D6D6" d="M163.4 106.943h2.094v-.21H163.4z" mask="url(#i)"/>
                        <path fill="#D6D6D6" d="M163.4 106.943h2.094v-.21H163.4zM163.4 109.038h2.094v-.21H163.4z" mask="url(#i)"/>
                        <path fill="#D6D6D6" d="M163.4 109.038h2.094v-.21H163.4z" mask="url(#i)"/>
                        <path fill="#D6D6D6" d="M163.4 109.038h2.094v-.21H163.4z" mask="url(#i)"/>
                        <path fill="#D6D6D6" d="M163.4 109.038h2.094v-.21H163.4z" mask="url(#i)"/>
                        <path fill="#D6D6D6" d="M163.4 109.038h2.094v-.21H163.4z" mask="url(#i)"/>
                        <path fill="#D6D6D6" d="M163.4 109.038h2.094v-.21H163.4zM163.4 111.133h2.094v-.21H163.4z" mask="url(#i)"/>
                        <path fill="#D6D6D6" d="M163.4 111.133h2.094v-.21H163.4z" mask="url(#i)"/>
                        <path fill="#8F8F8F" d="M144.546 144.546h10.474v-12.57h-10.474z" mask="url(#i)"/>
                        <path fill="#595959" d="M146.64 142.45h8.38v-10.473h-8.38z" mask="url(#i)"/>
                        <path fill="#D6D6D6" d="M155.02 144.546h-8.38l.434-2.095h7.513zM146.64 134.071h8.38l-.433 2.095h-7.513z" mask="url(#i)"/>
                        <path fill="#8F8F8F" d="M146.64 142.45h8.38v-8.379h-8.38z" mask="url(#i)"/>
                        <path fill="#000" d="M146.64 138.261h4.19v-2.095h-4.19z" mask="url(#i)"/>
                        <path fill="#595959" d="M146.64 140.837h2.095v-.962h-2.094z" mask="url(#i)"/>
                        <path fill="#D6D6D6" d="M152.925 138.742h2.095v-.962h-2.095z" mask="url(#i)"/>
                        <path fill="#595959" d="M152.447 138.331h.956v-.14h-.956z" mask="url(#i)"/>
                        <path fill="#0A6E31" d="M146.64 131.977h2.095v-2.095h-2.094z" mask="url(#i)"/>
                        <path fill="#50BE87" d="M146.64 131.977h2.095v-2.095h-2.094z" mask="url(#i)"/>
                        <path fill="#0A6E31" d="M149.214 131.496a.959.959 0 0 1-.957.961v-.961h.957z" mask="url(#i)"/>
                        <path fill="#0A6E31" d="M148.257 131.496c.528 0 .957.43.957.961h-.957v-.961zM150.352 132.457c0-.53.428-.961.956-.961v.961h-.956z" mask="url(#i)"/>
                        <path fill="#0A6E31" d="M151.308 132.457a.959.959 0 0 1-.956-.961h.956v.961zM149.214 131.977a.48.48 0 0 1-.478.48.48.48 0 0 1-.479-.48.48.48 0 0 1 .479-.481.48.48 0 0 1 .478.48" mask="url(#i)"/>
                        <path fill="#0A6E31" d="M148.633 129.882h-1.992v.163h1.992v1.932h.102V129.882zM150.728 129.882h-1.993v.163h1.993v1.932h.102V129.882z" mask="url(#i)"/>
                        <path fill="#595959" d="M146.64 113.604h10.475v-.962H146.64zM165.494 113.604h10.475v-.962h-10.475z" mask="url(#i)"/>
                        <path fill="#000" d="M186.443 115.218h10.474v-14.664h-10.474z" mask="url(#i)"/>
                        <path fill="#FFF" d="M188.538 113.123h8.38v-12.57h-8.38z" mask="url(#i)"/>
                        <path fill="#B5E8F7" d="M188.538 106.838h2.095v-6.284h-2.095zM192.728 106.838h2.095v-6.284h-2.095z" mask="url(#i)"/>
                        <path fill="#B5E8F7" d="M188.538 111.028h2.095v-6.285h-2.095zM192.728 111.028h2.095v-6.285h-2.095z" mask="url(#i)"/>
                        <path fill="#FF7900" d="M196.917 115.218h4.19v-14.664h-4.19z" mask="url(#i)"/>
                        <path fill="#D6D6D6" d="M196.917 100.658h2.095v-.21h-2.095z" mask="url(#i)"/>
                        <path fill="#D6D6D6" d="M196.917 100.658h2.095v-.21h-2.095z" mask="url(#i)"/>
                        <path fill="#D6D6D6" d="M196.917 100.658h2.095v-.21h-2.095zM196.917 102.753h2.095v-.21h-2.095z" mask="url(#i)"/>
                        <path fill="#D6D6D6" d="M196.917 102.753h2.095v-.21h-2.095z" mask="url(#i)"/>
                        <path fill="#D6D6D6" d="M196.917 102.753h2.095v-.21h-2.095zM196.917 104.848h2.095v-.21h-2.095z" mask="url(#i)"/>
                        <path fill="#D6D6D6" d="M196.917 104.848h2.095v-.21h-2.095z" mask="url(#i)"/>
                        <path fill="#D6D6D6" d="M196.917 104.848h2.095v-.21h-2.095z" mask="url(#i)"/>
                        <path fill="#D6D6D6" d="M196.917 104.848h2.095v-.21h-2.095z" mask="url(#i)"/>
                        <path fill="#D6D6D6" d="M196.917 104.848h2.095v-.21h-2.095z" mask="url(#i)"/>
                        <path fill="#D6D6D6" d="M196.917 104.848h2.095v-.21h-2.095z" mask="url(#i)"/>
                        <path fill="#D6D6D6" d="M196.917 104.848h2.095v-.21h-2.095zM196.917 106.943h2.095v-.21h-2.095z" mask="url(#i)"/>
                        <path fill="#D6D6D6" d="M196.917 106.943h2.095v-.21h-2.095z" mask="url(#i)"/>
                        <path fill="#D6D6D6" d="M196.917 106.943h2.095v-.21h-2.095z" mask="url(#i)"/>
                        <path fill="#D6D6D6" d="M196.917 106.943h2.095v-.21h-2.095z" mask="url(#i)"/>
                        <path fill="#D6D6D6" d="M196.917 106.943h2.095v-.21h-2.095z" mask="url(#i)"/>
                        <path fill="#D6D6D6" d="M196.917 106.943h2.095v-.21h-2.095z" mask="url(#i)"/>
                        <path fill="#D6D6D6" d="M196.917 106.943h2.095v-.21h-2.095z" mask="url(#i)"/>
                        <path fill="#D6D6D6" d="M196.917 106.943h2.095v-.21h-2.095zM196.917 109.038h2.095v-.21h-2.095z" mask="url(#i)"/>
                        <path fill="#D6D6D6" d="M196.917 109.038h2.095v-.21h-2.095z" mask="url(#i)"/>
                        <path fill="#D6D6D6" d="M196.917 109.038h2.095v-.21h-2.095z" mask="url(#i)"/>
                        <path fill="#D6D6D6" d="M196.917 109.038h2.095v-.21h-2.095z" mask="url(#i)"/>
                        <path fill="#D6D6D6" d="M196.917 109.038h2.095v-.21h-2.095z" mask="url(#i)"/>
                        <path fill="#D6D6D6" d="M196.917 109.038h2.095v-.21h-2.095zM196.917 111.133h2.095v-.21h-2.095z" mask="url(#i)"/>
                        <path fill="#D6D6D6" d="M196.917 111.133h2.095v-.21h-2.095z" mask="url(#i)"/>
                        <path fill="#FF7900" d="M182.253 115.218h4.19v-14.664h-4.19z" mask="url(#i)"/>
                        <path fill="#D6D6D6" d="M184.348 100.658h2.095v-.21h-2.095z" mask="url(#i)"/>
                        <path fill="#D6D6D6" d="M184.348 100.658h2.095v-.21h-2.095z" mask="url(#i)"/>
                        <path fill="#D6D6D6" d="M184.348 100.658h2.095v-.21h-2.095zM184.348 102.753h2.095v-.21h-2.095z" mask="url(#i)"/>
                        <path fill="#D6D6D6" d="M184.348 102.753h2.095v-.21h-2.095z" mask="url(#i)"/>
                        <path fill="#D6D6D6" d="M184.348 102.753h2.095v-.21h-2.095zM184.348 104.848h2.095v-.21h-2.095z" mask="url(#i)"/>
                        <path fill="#D6D6D6" d="M184.348 104.848h2.095v-.21h-2.095z" mask="url(#i)"/>
                        <path fill="#D6D6D6" d="M184.348 104.848h2.095v-.21h-2.095z" mask="url(#i)"/>
                        <path fill="#D6D6D6" d="M184.348 104.848h2.095v-.21h-2.095z" mask="url(#i)"/>
                        <path fill="#D6D6D6" d="M184.348 104.848h2.095v-.21h-2.095z" mask="url(#i)"/>
                        <path fill="#D6D6D6" d="M184.348 104.848h2.095v-.21h-2.095z" mask="url(#i)"/>
                        <path fill="#D6D6D6" d="M184.348 104.848h2.095v-.21h-2.095zM184.348 106.943h2.095v-.21h-2.095z" mask="url(#i)"/>
                        <path fill="#D6D6D6" d="M184.348 106.943h2.095v-.21h-2.095z" mask="url(#i)"/>
                        <path fill="#D6D6D6" d="M184.348 106.943h2.095v-.21h-2.095z" mask="url(#i)"/>
                        <path fill="#D6D6D6" d="M184.348 106.943h2.095v-.21h-2.095z" mask="url(#i)"/>
                        <path fill="#D6D6D6" d="M184.348 106.943h2.095v-.21h-2.095z" mask="url(#i)"/>
                        <path fill="#D6D6D6" d="M184.348 106.943h2.095v-.21h-2.095z" mask="url(#i)"/>
                        <path fill="#D6D6D6" d="M184.348 106.943h2.095v-.21h-2.095z" mask="url(#i)"/>
                        <path fill="#D6D6D6" d="M184.348 106.943h2.095v-.21h-2.095zM184.348 109.038h2.095v-.21h-2.095z" mask="url(#i)"/>
                        <path fill="#D6D6D6" d="M184.348 109.038h2.095v-.21h-2.095z" mask="url(#i)"/>
                        <path fill="#D6D6D6" d="M184.348 109.038h2.095v-.21h-2.095z" mask="url(#i)"/>
                        <path fill="#D6D6D6" d="M184.348 109.038h2.095v-.21h-2.095z" mask="url(#i)"/>
                        <path fill="#D6D6D6" d="M184.348 109.038h2.095v-.21h-2.095z" mask="url(#i)"/>
                        <path fill="#D6D6D6" d="M184.348 109.038h2.095v-.21h-2.095zM184.348 111.133h2.095v-.21h-2.095z" mask="url(#i)"/>
                        <path fill="#D6D6D6" d="M184.348 111.133h2.095v-.21h-2.095z" mask="url(#i)"/>
                        <path fill="#595959" d="M188.538 113.604h10.474v-.962h-10.474z" mask="url(#i)"/>
                        <path fill="#8F8F8F" d="M136.166 98.94h71.226v-.962h-71.226zM136.166 115.699h71.226v-.962h-71.226z" mask="url(#i)"/>
                        <path fill="#595959" d="M136.166 100.554h2.095v-2.095h-2.095zM134.071 100.554h2.095v-2.095h-2.095zM136.166 102.648h2.095v-2.094h-2.095zM134.071 104.743h2.095v-2.095h-2.095zM136.166 106.838h2.095v-2.095h-2.095zM134.071 106.838h2.095v-2.095h-2.095zM136.166 108.933h2.095v-2.095h-2.095zM134.071 108.933h2.095v-2.095h-2.095zM136.166 111.028h2.095v-2.095h-2.095zM134.071 113.123h2.095v-2.095h-2.095zM136.166 115.218h2.095v-2.095h-2.095zM134.071 115.218h2.095v-2.095h-2.095zM136.166 119.407h2.095v-2.095h-2.095zM134.071 121.502h2.095v-2.095h-2.095zM136.166 121.502h2.095v-2.095h-2.095zM134.071 125.692h2.095v-2.095h-2.095zM136.166 125.692h2.095v-2.095h-2.095zM134.071 127.787h2.095v-2.095h-2.095zM136.166 129.882h2.095v-2.095h-2.095zM134.071 129.882h2.095v-2.095h-2.095zM136.166 131.977h2.095v-2.095h-2.095zM134.071 134.071h2.095v-2.094h-2.095zM136.166 136.166h2.095v-2.095h-2.095zM134.071 138.261h2.095v-2.095h-2.095zM136.166 138.261h2.095v-2.095h-2.095zM134.071 140.356h2.095v-2.095h-2.095zM136.166 142.45h2.095v-2.094h-2.095zM134.071 142.45h2.095v-2.094h-2.095zM136.166 144.546h2.095v-2.095h-2.095zM134.071 146.64h2.095v-2.094h-2.095zM203.202 100.554h2.095v-2.095h-2.095zM205.297 100.554h2.095v-2.095h-2.095zM203.202 102.648h2.095v-2.094h-2.095zM205.297 104.743h2.095v-2.095h-2.095zM203.202 106.838h2.095v-2.095h-2.095zM205.297 106.838h2.095v-2.095h-2.095zM203.202 108.933h2.095v-2.095h-2.095zM205.297 108.933h2.095v-2.095h-2.095zM203.202 111.028h2.095v-2.095h-2.095zM205.297 113.123h2.095v-2.095h-2.095zM203.202 115.218h2.095v-2.095h-2.095zM205.297 115.218h2.095v-2.095h-2.095zM203.202 119.407h2.095v-2.095h-2.095zM205.297 121.502h2.095v-2.095h-2.095zM203.202 121.502h2.095v-2.095h-2.095zM205.297 125.692h2.095v-2.095h-2.095zM203.202 125.692h2.095v-2.095h-2.095zM205.297 127.787h2.095v-2.095h-2.095zM203.202 129.882h2.095v-2.095h-2.095zM205.297 129.882h2.095v-2.095h-2.095zM203.202 131.977h2.095v-2.095h-2.095zM205.297 134.071h2.095v-2.094h-2.095zM203.202 136.166h2.095v-2.095h-2.095zM205.297 138.261h2.095v-2.095h-2.095zM203.202 138.261h2.095v-2.095h-2.095zM205.297 140.356h2.095v-2.095h-2.095zM203.202 142.45h2.095v-2.094h-2.095zM205.297 142.45h2.095v-2.094h-2.095zM203.202 144.546h2.095v-2.095h-2.095zM205.297 146.64h2.095v-2.094h-2.095z" mask="url(#i)"/>
                        <path fill="#0A6E31" d="M213.65 131.588c-.187-1.883-1.309-3.394-2.789-4.017 0-.017 0-.033-.002-.05-.104-1.044-.868-1.823-1.773-1.876-.829-2.662-3.208-4.43-5.81-4.104-2.115.263-3.815 1.837-4.534 3.92-1.026.136-1.764 1.176-1.65 2.331-1.498.87-2.44 2.71-2.243 4.703.184 1.864 1.316 3.353 2.796 3.929.451 1.563 1.832 2.61 3.344 2.42.11-.013.216-.032.32-.058.837 1.09 2.121 1.713 3.49 1.542 1.163-.145 2.154-.834 2.795-1.815.255.098.532.138.817.103.838-.105 1.485-.81 1.64-1.693 2.258-.417 3.854-2.752 3.598-5.335" mask="url(#i)"/>
                        <path fill="#714E46" d="M203.01 152.925l.007-13.045-2.778-3.996-3.322-2.318.39-.197 2.86 1.659-.584-2.09h.471l.863 2.53 2.315 3.252-.064-4.034-1.203-4.804h.402l1.14 3.777.893-1.907.36.263-.948 2.57.356 3.966 2.119-3.94.61-3.308.482.243-.487 2.96 2.461-.245.134.4-2.76.563-2.377 4.58.587 13.121z" mask="url(#i)"/>
                        <path fill="#085EBD" d="M155.498 129.882l-.956.176v1.743l.956.176zM144.068 131.977l.956-.176v-1.743l-.956-.176z" mask="url(#i)"/>
                    </g>
                    <g>
                        <path fill="#FFF" d="M202.635 201.186l.2.824c1.002-1.516 1.634-3.303 2.075-5.04 1.364-5.365 1.09-10.988 1.174-16.474.094-6.229.15-12.652-1.573-18.685-7.527 4.326-10.45 4.687-17.292 10.174-8.107 12.783-24.492 34.844-24.492 34.844l16.365 7.399 13.714-14.94c3.965-4.952 7.492-4.002 9.829 1.898M242.503 201.604l-.2.823c-1.002-1.516-1.634-3.302-2.075-5.04-1.364-5.364-1.09-10.987-1.174-16.473-.094-6.23-.15-12.653 1.573-18.686 7.527 4.327 10.45 4.687 17.292 10.174 8.108 12.784 24.492 34.845 24.492 34.845l-15.472 7.406-14.607-14.947c-3.965-4.952-7.492-4.003-9.829 1.898"/>
                        <g transform="translate(200.85 151.732)">
                            <mask id="k" fill="#fff">
                                <use xlink:href="#j"/>
                            </mask>
                            <path fill="#FFF" d="M37.108 25.614c-.934-3.778-1.203-7.608-1.42-11.48-.12-2.125-.29-4.254-.402-6.38-3.44-2.163-6.745-4.539-9.85-7.226a2.798 2.798 0 0 1-.306-.311c-1.095.19-3.872.584-6.773.624-2.886 1.837-5.8 3.662-8.76 5.41a52.064 52.064 0 0 1-.463 5.603c-.49 3.67-1.265 7.292-2.013 10.915-.569 2.75-1.041 5.524-1.777 8.237-.988 3.646-2.447 8.039-5.337 10.77l2.096 41.2.848 24.442 32.23 1.019 6.65-71.11a45.609 45.609 0 0 1-4.723-11.712" mask="url(#k)"/>
                        </g>
                        <path fill="#4BB4E7" d="M203.844 161.686l-4.966 32.19-.048 29.771s11.884 15.461 16.955 2.965c2.594-6.393 1.077-45.85 1.077-45.85l-3.732-24.39c-3.046 1.858-6.135 3.654-9.286 5.314M232.759 157.257l.009 1.49-1.113 24.86s-.15 40.657 1.471 45.19c3.19 8.924 11.062-1.744 11.062-1.744L245 194.33l-3.927-31.926c-2.85-1.588-5.632-3.288-8.313-5.146"/>
                        <path fill="#FFF" d="M214.421 157.197l1.79-4.86s1.492.08 1.73.678c.238.6 5.075 13.001 5.075 13.001s4.762-6.741 4.571-7.678l-.922-6.276s2.188-1.29 2.896-.033c.709 1.258 1.924 5.774 1.924 5.774l.476 2.132-2.792 18.383-4.35-8.819-2.687.21s-3.365 9.398-3.604 8.8c-.208-.523-2.993-13.571-3.824-17.157-.126-.545-.444-3.62-.283-4.155"/>
                        <path fill="#62352E" d="M229.594 140.92s-1.059 13.267-1.028 16.937c.01 1.033-2.04 4.704-3.541 7.253a1.987 1.987 0 0 1-3.315.169l-5.258-7.156s1.01-9.211.534-17.664c0 0 8.349 9.967 12.608.46"/>
                        <path fill="#010101" d="M233.308 159.25l-.06.312c-.078.41.207.87.632.932.428.062.848-.194.931-.633l.06-.313c.078-.41-.207-.87-.633-.932-.426-.062-.847.194-.93.633M233.544 167.042l-.358 1.878c-.193 1.008 1.37 1.308 1.563.299l.358-1.879c.192-1.007-1.371-1.307-1.563-.298M233.12 178.304l-.359 1.878c-.192 1.007 1.371 1.308 1.563.299l.358-1.879c.193-1.007-1.37-1.307-1.563-.298M233.013 183.828l-.358 1.88c-.192 1.006 1.37 1.307 1.563.298l.359-1.879c.191-1.007-1.372-1.308-1.564-.299M233.756 162.048l-.358 1.879c-.192 1.007 1.37 1.308 1.563.298l.358-1.878c.192-1.007-1.37-1.308-1.563-.299M233.114 171.874l-.173 2.881c-.026.433.172.839.633.932.38.077.905-.204.93-.633l.173-2.88c.026-.434-.172-.84-.632-.933-.38-.077-.906.204-.931.633M232.453 189.474l.074 1.312c.023.417.437.783.857.73a.812.812 0 0 0 .73-.857l-.074-1.312c-.024-.417-.438-.784-.857-.73a.813.813 0 0 0-.73.857M233.533 196.154l.052 2.938c.019 1.024 1.605.895 1.587-.129l-.052-2.937c-.019-1.025-1.605-.896-1.587.128M233.721 203.544c.138.618.053 1.24-.143 1.833-.136.41.25.859.632.932.468.09.795-.223.93-.633.291-.877.281-1.77.081-2.664-.094-.42-.645-.616-1.016-.485-.444.158-.578.596-.484 1.017M234.057 210.213l.11 2.625c.042 1.025 1.629.898 1.586-.127l-.109-2.626c-.042-1.025-1.63-.898-1.587.128M234.176 217.716l.322 3.005c.109 1.017 1.697.896 1.587-.128l-.322-3.005c-.11-1.017-1.697-.896-1.587.128M234.803 224.648l.267 1.998c.135 1.012 1.723.893 1.586-.128l-.267-1.997c-.135-1.012-1.723-.893-1.586.127M236.35 229.716c.722.302 1.507.342 2.241.05.399-.16.632-.601.484-1.018-.139-.394-.614-.645-1.015-.485-.34.136-.68.159-1.007.023-.396-.166-.868-.04-1.066.363-.18.368-.035.9.363 1.067M240.759 228.543l1.057-.446c.383-.162.652-.602.485-1.018-.154-.38-.606-.658-1.016-.485l-1.057.447c-.383.162-.653.602-.485 1.017.154.38.605.659 1.016.485M242.876 225.49l.313.059c.409.078.87-.207.93-.633.063-.428-.194-.848-.632-.932l-.312-.06c-.41-.078-.87.207-.931.633-.062.428.194.849.632.932M210.786 160.557l.537 2.068c.108.417.636.621 1.016.486.434-.154.593-.6.484-1.017l-.537-2.07c-.108-.416-.636-.62-1.016-.484-.434.153-.593.599-.484 1.017M212.444 167.346l.705 2.762c.253.993 1.752.456 1.5-.532l-.705-2.762c-.253-.993-1.752-.457-1.5.532M213.554 173.267l.386 1.372c.117.414.63.622 1.016.485.427-.151.602-.602.485-1.017-.13-.457-.258-.915-.386-1.372-.117-.414-.63-.622-1.016-.485-.427.151-.602.601-.485 1.017M213.873 178.154l.386 1.372c.116.415.63.623 1.016.485.427-.151.6-.601.484-1.017l-.386-1.372c-.117-.414-.63-.622-1.016-.485-.427.152-.602.602-.484 1.017M214.077 183.186c.137.513.085 1.018-.073 1.52-.13.41.245.857.632.931.464.089.801-.22.931-.633.243-.773.218-1.573.01-2.35-.11-.416-.633-.621-1.016-.485-.43.153-.596.6-.484 1.017M214.355 188.95l.207 2.31c.092 1.02 1.68.897 1.587-.127l-.208-2.311c-.091-1.02-1.678-.898-1.586.127M214.597 196.141l.327 1.685c.082.422.395.767.857.73.392-.03.812-.433.73-.858l-.327-1.685c-.082-.422-.395-.768-.857-.73-.392.03-.812.433-.73.858M214.878 201.079l.252.373c.235.345.761.468 1.106.211.346-.258.46-.738.21-1.107l-.252-.373c-.234-.345-.76-.468-1.105-.211-.346.258-.462.738-.211 1.107M214.797 205.357l-.239 1.253c-.078.41.207.87.633.932.427.062.846-.195.93-.633l.239-1.253c.078-.41-.207-.87-.633-.932-.426-.062-.847.194-.93.633M213.75 214.243l-.357 1.879c-.192 1.007 1.37 1.307 1.563.298l.358-1.878c.192-1.007-1.37-1.308-1.563-.299M212.888 220.467c.033.474-.098.902-.401 1.269-.654.79.545 1.839 1.199 1.048a3.411 3.411 0 0 0 .789-2.444c-.073-1.022-1.66-.898-1.587.127M210.87 225.927c0 .001.014.21.018.133.005-.086-.024.11-.03.129.035-.11-.013.015-.038.056-.072.115.114-.12-.046.06-.022.026-.084.088-.021.033 0 0-.165.113-.111.084.062-.033-.109.04-.13.046.126-.03-.092-.004-.114-.004-.43.003-.762.452-.73.859.037.455.427.733.858.73 1.135-.008 2.089-1.132 1.932-2.254-.06-.426-.411-.766-.858-.73-.41.032-.789.43-.73.858M207.11 226.558l-1.13-.866c-.33-.253-.843-.274-1.124.076-.254.32-.276.854.077 1.125l1.13.866c.33.252.843.274 1.123-.077.255-.32.277-.854-.076-1.124M201.9 222.253l-.875-.498c-.363-.207-.9-.016-1.066.362-.181.416-.025.847.363 1.068l.875.498c.362.206.9.015 1.065-.363.182-.416.026-.847-.362-1.067"/>
                        <path fill="#D6D6D6" d="M165.108 202.847l14.606 8.369c1.116.688.944 2.215.443 3.428-.693 1.678-1.433 2.953-3.335 4.216-2.558 1.699-11.962-5.007-16.108-8.146a2.935 2.935 0 0 1-.796-3.76c.717-1.295 1.173-1.851 2.038-3.102.81-1.171 1.94-1.753 3.152-1.005"/>
                        <g transform="translate(151.516 210.698)">
                            <mask id="m" fill="#fff">
                                <use xlink:href="#l"/>
                            </mask>
                            <path fill="#725048" d="M9.198.016S-.475 13.681.258 18.64c.409 2.76 6.434 14.316 40.95-9 0 0 .975 1.172 7.352 2.148 7.352 1.125 4.8 1.33 4.8 1.33s-.511 2.863 3.777 2.76c2.842-.067 4.844-3.217 2.932-4.366 0 0 3.28-3.803.03-5.144 0 0-2.472-2.184-1.94-4.602l-17.156-.613S23.52 8.442 18.626 9.458l2.438-1.545L9.198.016z" mask="url(#m)"/>
                        </g>
                        <path fill="#D6D6D6" d="M189.7 172.335l.953 1.277c.257.344.688.52 1.089.286.338-.199.544-.744.285-1.09l-.952-1.277c-.257-.345-.689-.52-1.09-.286-.338.198-.543.743-.284 1.09M192.48 176.937c.18.75.574 1.432 1.127 1.968.736.713 1.863-.413 1.125-1.127a2.525 2.525 0 0 1-.718-1.264c-.24-.997-1.774-.575-1.534.423M194.393 181.078l.93 2.558c.349.956 1.887.543 1.535-.423l-.93-2.559c-.348-.956-1.887-.543-1.535.424M196.362 187.013l.956 2.23c.17.396.75.485 1.088.287.409-.24.456-.693.286-1.09l-.956-2.231c-.169-.396-.75-.484-1.088-.286-.408.239-.456.693-.286 1.09"/>
                        <path fill="#505052" d="M197.949 192.116c.23.478.273.983.212 1.506-.05.428.402.796.796.796.472 0 .746-.367.796-.796.094-.806-.08-1.586-.43-2.311-.187-.387-.739-.49-1.09-.286-.394.232-.472.701-.284 1.09"/>
                        <path fill="#D6D6D6" d="M280.03 203.264l-14.606 8.369c-1.116.688-.944 2.216-.443 3.429.694 1.678 1.433 2.952 3.335 4.216 2.558 1.699 11.962-5.008 16.108-8.146a2.935 2.935 0 0 0 .796-3.76c-.717-1.295-1.173-1.852-2.038-3.102-.81-1.172-1.94-1.753-3.152-1.006"/>
                        <g transform="translate(232.043 211.016)">
                            <mask id="o" fill="#fff">
                                <use xlink:href="#n"/>
                            </mask>
                            <path fill="#725048" d="M52.381.115s9.673 13.664 8.94 18.623c-.409 2.76-6.434 14.316-40.95-9 0 0-.974 1.172-7.352 2.148-7.352 1.125-4.8 1.33-4.8 1.33s.511 2.863-3.777 2.76C1.6 15.91-.403 12.758 1.51 11.61c0 0-3.28-3.803-.03-5.144 0 0 2.472-2.184 1.94-4.602l17.156-.613S38.06 8.54 42.953 9.557l-2.438-1.545L52.38.115z" mask="url(#o)"/>
                        </g>
                        <path fill="#D6D6D6" d="M255.438 172.753l-.953 1.277c-.257.344-.688.52-1.089.285-.339-.198-.544-.743-.285-1.09l.953-1.276c.256-.345.688-.521 1.088-.287.339.199.544.744.286 1.09M252.658 177.355a4.065 4.065 0 0 1-1.127 1.967c-.736.714-1.863-.412-1.125-1.126a2.52 2.52 0 0 0 .717-1.264c.24-.997 1.775-.575 1.535.423M250.745 181.496l-.93 2.558c-.349.956-1.887.543-1.535-.424l.93-2.558c.349-.956 1.887-.543 1.535.424M248.776 187.43l-.956 2.231c-.169.396-.75.484-1.088.286-.409-.239-.456-.693-.286-1.09l.956-2.23c.169-.397.75-.485 1.088-.287.409.24.456.693.286 1.09"/>
                        <path fill="#505052" d="M247.19 192.533c-.232.478-.274.984-.213 1.506.05.428-.402.797-.796.797-.472 0-.746-.368-.796-.797-.094-.805.08-1.586.43-2.31.188-.388.739-.491 1.089-.286.395.231.473.701.285 1.09"/>
                        <path fill="#62352E" d="M206.874 122.313c-.178-1.835-2.136-3.16-3.97-3.012-.443.036-.9.15-1.226.454-.428.397-.538 1.025-.583 1.607-.261 3.397.871 6.745 2.248 9.86.533 1.209 1.183 2.482 2.36 3.08.433.22.978.325 1.389.066.247-.154.405-.415.544-.671a11.371 11.371 0 0 0 1.199-3.418M236.678 123.976a8.736 8.736 0 0 1 2.035-3.892c.205-.226.438-.45.734-.522.256-.062.527 0 .773.096.979.383 1.676 1.304 2.009 2.303.332.999.344 2.074.282 3.126a23.88 23.88 0 0 1-2.298 8.897c-.289.603-.619 1.212-1.148 1.62-.529.408-1.307.561-1.867.197-.604-.394-.746-1.203-.833-1.92"/>
                        <path fill="#171717" d="M205.562 126.625c-.589-7.736-4.397-37.011-3.414-38.894 1.58-3.024 12.854-5.542 20.397-5.542 6.581 0 20.12 6.691 20.737 8.167.498 1.192-3.25 31.67-4.758 38.799a158.881 158.881 0 0 0-24.456.08"/>
                        <path fill="#725048" d="M218.432 151.537c1.327 1.503 5.63 1.571 7.174.292 8.493-7.039 13.046-19.424 13.046-20.732 0-4.256-1.551-24.383-3.17-27.018-.866-1.41-7.424 1.934-13.765 1.733-5.509-.174-11.068-3.523-12.573-1.733 0 0-3.886 21.343-3.279 24.586.183.978-.697 7.86 12.567 22.872"/>
                        <path fill="#62352E" d="M231.277 138.332l-.154-.224a9.39 9.39 0 0 0-.382-.516c-.33-.4-.671-.847-1.214-1.477 0 0 .095-.041.268-.057.173-.018.426.006.703.142.275.133.564.396.743.78.18.378.232.893.036 1.352M214.144 138.174c.012.013-.231-.303-.092-.826.068-.247.237-.516.503-.678.26-.163.632-.198.913 0 0 0-.24.283-.401.556a1.83 1.83 0 0 1-.319.389c-.136.133-.34.247-.604.56M227.26 140.984l-.165.19c-.11.123-.268.309-.493.516a7.356 7.356 0 0 1-2.114 1.425 6.35 6.35 0 0 1-1.657.454 5.935 5.935 0 0 1-1.92-.064 6.293 6.293 0 0 1-3.568-2.117s.075.037.212.099c.138.061.34.148.598.247.516.196 1.26.446 2.166.603a9.042 9.042 0 0 0 3.14.004c1.17-.198 2.443-.666 3.8-1.357M217.13 122.167l-.568-.33c-.36-.206-.875-.512-1.524-.726a3.751 3.751 0 0 0-1.066-.186c-.388-.013-.81.027-1.256.073a8.744 8.744 0 0 0-1.338.221c-.441.119-.88.302-1.23.638l.081-.137c.059-.087.152-.215.304-.352.297-.281.838-.58 1.543-.753a8.47 8.47 0 0 1 1.154-.2c.42-.043.894-.052 1.378.066.482.115.944.345 1.36.643.42.297.796.657 1.162 1.043M233.741 122.167l-.568-.33c-.36-.206-.875-.512-1.524-.726a3.751 3.751 0 0 0-1.066-.186c-.388-.013-.81.027-1.255.073a8.734 8.734 0 0 0-1.339.221c-.44.119-.88.302-1.23.638l.081-.137c.06-.087.153-.215.304-.352.297-.281.839-.58 1.543-.753.353-.089.734-.154 1.154-.2.42-.043.894-.052 1.378.066.482.115.944.345 1.36.643.42.297.796.657 1.162 1.043M221.392 124.202c.048-.346-.445-.46-.556-.13a544.382 544.382 0 0 1-1.465 4.307c-.578 1.671-1.03 4.726-.393 5.363.636.638 2.03 1.929 4.823-.115 1.84-1.345-2.027-.567-2.876-1.098-.545-.342.004-5.022.467-8.327"/>
                        <g transform="translate(183.345 190.299)">
                            <mask id="q" fill="#fff">
                                <use xlink:href="#p"/>
                            </mask>
                            <path fill="#656464" d="M71.545 43.667H4.84a4.527 4.527 0 0 1-4.524-4.53v-34.5A4.526 4.526 0 0 1 4.84.106h66.705a4.526 4.526 0 0 1 4.524 4.53v34.5a4.527 4.527 0 0 1-4.524 4.53" mask="url(#q)"/>
                        </g>
                        <g transform="translate(184.3 192.211)">
                            <mask id="s" fill="#fff">
                                <use xlink:href="#r"/>
                            </mask>
                            <path fill="#9B9B9B" d="M69.77 41.754H4.584a4.527 4.527 0 0 1-4.523-4.53V4.755A4.527 4.527 0 0 1 4.585.225H69.77a4.527 4.527 0 0 1 4.524 4.53v32.47a4.527 4.527 0 0 1-4.524 4.53" mask="url(#s)"/>
                        </g>
                        <path stroke="#FFF" stroke-width="3" d="M229.366 212.47c0 3.585-3.468 6.49-7.745 6.49-4.278 0-7.745-2.905-7.745-6.49 0-3.584 3.467-6.489 7.745-6.489 4.277 0 7.745 2.905 7.745 6.49z"/>
                        <path fill="#62352E" d="M214.666 137.679c2.732.774 5.173 1.314 8.034 1.161 2.533-.136 5.334-.57 7.636-1.66.23-.11.062-.448-.167-.397-1.233.273-2.342.671-3.6.878-1.382.226-2.754.435-4.154.49-2.647.103-5.036-.44-7.588-1.056-.378-.091-.536.477-.16.584"/>
                        <path fill="#725048" d="M239.436 129.268c.195-1.183.451-2.36.814-3.503.109-.34.312-1.548.763-1.114.382.368.059 1.666.055 2.147 0 .206.296.296.397.107.358-.674.642-3.805-.822-3.323-.697.23-.882 1.413-1.057 2a18.839 18.839 0 0 0-.692 3.613c-.03.307.491.381.542.073M206.42 128.402c-.417-1.344-.725-2.745-1.3-4.035-.273-.612-.729-1.39-1.481-1.464-1.972-.193-.974 3.5-.675 4.369.108.316.665.293.623-.084-.072-.642-.23-1.266-.335-1.903-.05-.296-.178-.668-.14-.962.127-.994.871-.8 1.29-.113.76 1.245 1.236 2.913 1.5 4.335.063.337.622.192.518-.143"/>
                        <path stroke="#848484" d="M204.713 118.144s-1.377 8.028.937 9.764c2.315 1.737 9.06 2.885 12.205 1.431 3.144-1.454 1.977-9.944 1.977-9.944s-5.035-4.864-15.119-1.251zM238.355 117.41s3.977 6.957-.293 11.327c-2.022 2.07-9.104 2.18-12.3.84-3.196-1.34-2.334-9.866-2.334-9.866s5.192-4.738 14.927-2.301z"/>
                        <path fill="#FFF" d="M204.713 118.144s-1.377 8.028.937 9.764c2.315 1.737 9.06 2.885 12.205 1.431 3.144-1.454 1.977-9.944 1.977-9.944s-5.035-4.864-15.119-1.251M238.355 117.41s3.977 6.957-.293 11.327c-2.022 2.07-9.104 2.18-12.3.84-3.196-1.34-2.334-9.866-2.334-9.866s5.192-4.738 14.927-2.301" opacity=".3"/>
                        <path fill="#030303" d="M203.56 119.364c2.765-1.14 5.91-1.762 8.896-1.628 3.883.174 6.479 3.406 10.4 2.744 1.203-.203 1.825-.95 2.966-1.497 4.503-2.163 10.045-1.273 14.673-.17 1.212.288 1.694-1.59.481-1.878-4.653-1.108-9.761-1.853-14.417-.315-1.086.358-2.137.84-3.081 1.489-.23.158-.477.472-.728.58-.622.27.896-.226.071-.146-1.884.182-2.74-.28-4.232-1.17-1.824-1.088-4.076-1.491-6.168-1.575-3.144-.125-6.499.506-9.41 1.706-1.139.47-.606 2.335.548 1.86"/>
                        <path fill="#030303" d="M227.116 116.064c1.274-1.84 4.709-2.696 6.612-1.327.625.449 1.221-.588.602-1.032-2.479-1.783-6.606-.61-8.244 1.755-.44.634.595 1.232 1.03.604M209.523 114.995c2.267-1.306 4.842-1.017 6.73.793.556.531 1.4-.312.845-.846-2.275-2.179-5.448-2.552-8.178-.98-.665.384-.065 1.417.603 1.033M216.63 124.375c-.494.094-.998.257-1.502.255-1.356.25-4.967-.58-5.335-.749-.347.21-.47.807 0 1.066 2 1.098 5.572 1.283 7.473-.194.293-.228.382-.358.23-.607a5.495 5.495 0 0 1-.866.23"/>
                        <path fill="#030303" d="M212.02 125.992c.236.529.672.855 1.26.893.575.037 1.186-.014 1.65-.413.58-.5.352-1.403-.371-1.136-.193.072-1.264.6-1.405.286-.133-.297-.421-.487-.752-.383-.283.09-.514.46-.383.753M232.948 124.048c-.982.731-5.172.507-5.742.368a6.805 6.805 0 0 1-1.34-.454c-.203.264-.09.628.284.844 1.977 1.14 5.507 1.689 7.438.252.613-.456-.021-1.47-.64-1.01"/>
                        <path fill="#030303" d="M228.254 125.933c.217.537.641.878 1.227.937.573.058 1.17-.013 1.664-.352.631-.434.402-1.39-.33-1.149-.195.065-1.284.554-1.414.235-.122-.302-.403-.502-.738-.41-.286.079-.53.44-.41.739"/>
                        <g>
                            <path stroke="#000" stroke-linecap="round" stroke-width="3" d="M148.333 234.845h149.17"/>
                            <path fill="#FFF" d="M161.433 208.336l1.591.638c.4.16.874-.175.979-.557.125-.454-.155-.82-.556-.98l-1.591-.637c-.4-.16-.874.174-.979.556-.125.454.155.82.556.98M164.426 210.806a9648.5 9648.5 0 0 1 2.228 1.594c.35.25.885.061 1.088-.286.234-.4.065-.84-.285-1.09l-2.228-1.594c-.35-.25-.886-.062-1.089.285-.234.401-.065.84.286 1.09M169.319 213.907a4.374 4.374 0 0 0 1.985 1.104c.995.245 1.419-1.292.423-1.537a2.75 2.75 0 0 1-1.282-.694c-.74-.71-1.867.416-1.126 1.127M173.313 216.911l1.917.942c.385.19.86.105 1.089-.285.205-.351.101-.9-.286-1.09l-1.916-.943c-.386-.19-.861-.104-1.09.286-.204.351-.101.9.286 1.09M283.87 208.595l-1.592.637c-.399.16-.874-.175-.979-.556-.124-.455.155-.82.556-.98l1.592-.638c.399-.16.874.174.978.556.125.454-.155.82-.555.98M280.877 211.064l-2.228 1.594c-.35.25-.886.061-1.089-.286-.234-.4-.065-.84.286-1.09l2.228-1.594c.35-.25.885-.062 1.088.286.234.4.066.84-.285 1.09M275.983 214.165A4.372 4.372 0 0 1 274 215.27c-.995.245-1.42-1.292-.424-1.536a2.753 2.753 0 0 0 1.283-.694c.74-.71 1.867.416 1.125 1.126M271.99 217.17l-1.917.942c-.386.19-.861.104-1.09-.286-.204-.351-.101-.9.286-1.09l1.917-.942c.386-.19.86-.105 1.089.286.205.35.101.899-.286 1.09"/>
                        </g>
                    </g>
                </g>
            </g>
        </g>
    </g>
</svg>
