<svg xmlns="http://www.w3.org/2000/svg" xmlns:xlink="http://www.w3.org/1999/xlink" width="170" height="170" viewBox="0 0 170 170">
    <defs>
        <circle id="a" cx="85" cy="85" r="85"/>
    </defs>
    <g fill="none" fill-rule="evenodd">
        <mask id="b" fill="#fff">
            <use xlink:href="#a"/>
        </mask>
        <use fill="#4BB4E7" fill-rule="nonzero" xlink:href="#a"/>
        <g mask="url(#b)">
            <g transform="translate(44.625 36.125)">
                <path fill="#EDC5A4" d="M69.94 69.704c-3.075.904-6.312-.826-7.228-3.865-.916-3.04.834-6.237 3.909-7.143l8.134-2.394c3.072-.905 6.308.824 7.225 3.864.917 3.04-.836 6.238-3.91 7.14l-8.13 2.398M69.94 82.517c-3.075.905-6.312-.823-7.228-3.862-.916-3.041.834-6.238 3.909-7.145l8.134-2.394c3.072-.905 6.308.824 7.225 3.866.917 3.038-.836 6.236-3.91 7.142l-8.13 2.393M69.94 96.4c-3.075.904-6.312-.827-7.228-3.864-.916-3.042.834-6.238 3.909-7.144l8.134-2.394c3.072-.905 6.308.823 7.225 3.865.917 3.037-.836 6.237-3.91 7.14L69.94 96.4"/>
                <path fill="#714E46" d="M60.691 86.566c0 4.14 8.185 5.083 8.185 11.599 0 0-14.029 17.696-61.402 17.696-3.933 0-7.474-3.358-7.474-7.5V79.046c0-4.143 3.348-7.5 7.474-7.5h36.133c4.129 0 7.474 3.358 7.474 7.5l9.61 7.52"/>
                <path fill="#714E46" d="M12.29 71.583L0 68.876V97.07c0 5.069 4.17 9.179 9.315 9.179h17.318a27.526 27.526 0 0 0 1.665-9.444c0-11.07-6.53-20.701-16.008-25.223"/>
                <path fill="#714E46" d="M11.746 70.86c0 3.328-2.629 6.024-5.873 6.024S0 74.188 0 70.861V44.468c0-3.33 2.629-6.026 5.873-6.026s5.873 2.698 5.873 6.026v26.393M7.697 133.511c7.222.716 30.842.623 35.017 0L41.13 106.25l-34.724 2.047 1.29 20.975v4.239z"/>
                <path fill="#000105" d="M11.746 100.377h53.392V0H11.746z"/>
                <path fill="#50BE86" d="M14.95 87.029h46.985V6.407H14.95z"/>
                <path fill="#595959" d="M14.95 20.289h46.985V6.407H14.95z"/>
                <path fill="#E67533" d="M35.818 97.66h7.385v-7.383h-7.385v7.384zm-.58.581h8.543v-8.543H35.24v8.543z"/>
                <circle cx="38.442" cy="14.416" r="5.873" fill="#FFB401"/>
                <g transform="translate(14.95 19.755)">
                    <path fill="#FFF" stroke="#000" stroke-width=".5" d="M0 13.768h46.384V0H0z"/>
                    <ellipse cx="39.395" cy="6.941" fill="#A885D8" rx="3.976" ry="4.018"/>
                </g>
                <g transform="translate(14.95 33.637)">
                    <path fill="#FFF" stroke="#000" stroke-width=".5" d="M0 13.768h46.384V0H0z"/>
                    <ellipse cx="39.395" cy="6.941" fill="#A885D8" rx="3.976" ry="4.018"/>
                </g>
                <g transform="translate(14.95 47.519)">
                    <path fill="#FFF" stroke="#000" stroke-width=".5" d="M0 13.768h46.384V0H0z"/>
                    <ellipse cx="39.395" cy="6.941" fill="#A885D8" rx="3.976" ry="4.018"/>
                </g>
                <g transform="translate(14.95 61.935)">
                    <path fill="#FFF" stroke="#000" stroke-width=".5" d="M0 13.768h46.384V0H0z"/>
                    <ellipse cx="39.395" cy="6.941" fill="#A885D8" rx="3.976" ry="4.018"/>
                </g>
                <g fill="#714E46">
                    <path d="M59.281 65.106c.508 3.084-1.6 5.99-4.705 6.494-3.11.504-6.038-1.585-6.547-4.666l-7.316-44.348c-.51-3.083 1.597-5.989 4.706-6.493 3.106-.505 6.039 1.583 6.547 4.666l7.315 44.347M72.86 62.302c.507 3.082-1.6 5.987-4.707 6.492-3.106.504-6.038-1.585-6.545-4.666l-1.428-8.649c-.507-3.082 1.597-5.99 4.705-6.494 3.109-.504 6.038 1.585 6.548 4.669l1.427 8.648M86.56 60.156c.51 3.081-1.599 5.988-4.706 6.493-3.107.503-6.038-1.588-6.546-4.667l-1.428-8.65c-.509-3.081 1.598-5.986 4.707-6.492 3.106-.505 6.04 1.585 6.546 4.667l1.427 8.649M100.26 58.012c.506 3.08-1.603 5.988-4.707 6.49-3.108.507-6.04-1.584-6.549-4.666l-1.425-8.647c-.51-3.084 1.599-5.99 4.708-6.494 3.104-.505 6.034 1.586 6.544 4.668l1.428 8.65"/>
                    <path d="M89.424 50.462l-33.793 5.483c-5.058.82-8.486 5.55-7.661 10.566l4.404 26.696 15.261 15.943 30.651-4.971c5.056-.82 8.487-5.554 7.658-10.568l-5.863-35.553c-.829-5.016-5.598-8.416-10.657-7.596"/>
                    <path d="M62.384 68.146a20.594 20.594 0 0 0-12.85 7.509L32.628 57.988c-2.362-2.473-6.298-2.58-8.795-.239a6.133 6.133 0 0 0-.239 8.72l38.702 40.437c1.398 1.468 3.357 2.062 5.236 1.837l.002.005.065-.01c.156-.023.314-.048.47-.08l.96-.16c11.254-1.825 18.905-12.287 17.065-23.45-1.841-11.161-12.455-18.727-23.71-16.902"/>
                    <path d="M67.315 132.946h33.26V91.813h-33.26z"/>
                </g>
            </g>
        </g>
    </g>
</svg>
