<svg xmlns="http://www.w3.org/2000/svg" xmlns:xlink="http://www.w3.org/1999/xlink" width="300" height="202" viewBox="0 0 300 202">
    <defs>
        <path id="a" d="M.38 1.036h25.762v83.88H.38z"/>
        <path id="c" d="M.233.287h115.562v44.001H.233z"/>
        <path id="e" d="M81.337.057L.62 20.715a.518.518 0 0 0-.374.631L14.108 75.51a.519.519 0 0 0 .631.374l80.718-20.658a.518.518 0 0 0 .373-.63L81.968.43a.518.518 0 0 0-.631-.374"/>
        <path id="g" d="M81.337.057L.62 20.715a.518.518 0 0 0-.374.631L14.108 75.51a.519.519 0 0 0 .631.374l80.718-20.658a.518.518 0 0 0 .373-.63L81.968.43a.518.518 0 0 0-.631-.374z"/>
        <path id="i" d="M81.337.057L.62 20.715a.518.518 0 0 0-.374.631L14.108 75.51a.519.519 0 0 0 .631.374l80.718-20.658a.518.518 0 0 0 .373-.63L81.968.43a.518.518 0 0 0-.631-.374z"/>
        <path id="k" d="M81.337.057L.62 20.715a.518.518 0 0 0-.374.631L14.108 75.51a.519.519 0 0 0 .631.374l80.718-20.658a.518.518 0 0 0 .373-.63L81.968.43a.518.518 0 0 0-.631-.374z"/>
        <path id="m" d="M81.337.057L.62 20.715a.518.518 0 0 0-.374.631L14.108 75.51a.519.519 0 0 0 .631.374l80.718-20.658a.518.518 0 0 0 .373-.63L81.968.43a.518.518 0 0 0-.631-.374z"/>
        <path id="o" d="M81.337.057L.62 20.715a.518.518 0 0 0-.374.631L14.108 75.51a.519.519 0 0 0 .631.374l80.718-20.658a.518.518 0 0 0 .373-.63L81.968.43a.518.518 0 0 0-.631-.374z"/>
        <path id="q" d="M81.337.057L.62 20.715a.518.518 0 0 0-.374.631L14.108 75.51a.519.519 0 0 0 .631.374l80.718-20.658a.518.518 0 0 0 .373-.63L81.968.43a.518.518 0 0 0-.631-.374"/>
        <path id="s" d="M81.337.057L.62 20.715a.518.518 0 0 0-.374.631L14.108 75.51a.519.519 0 0 0 .631.374l80.718-20.658a.518.518 0 0 0 .373-.63L81.968.43a.518.518 0 0 0-.631-.374"/>
        <path id="u" d="M81.337.057L.62 20.715a.518.518 0 0 0-.374.631L14.108 75.51a.519.519 0 0 0 .631.374l80.718-20.658a.518.518 0 0 0 .373-.63L81.968.43a.518.518 0 0 0-.631-.374"/>
        <path id="w" d="M81.337.057L.62 20.715a.518.518 0 0 0-.374.631L14.108 75.51a.519.519 0 0 0 .631.374l80.718-20.658a.518.518 0 0 0 .373-.63L81.968.43a.518.518 0 0 0-.631-.374z"/>
        <path id="y" d="M81.337.057L.62 20.715a.518.518 0 0 0-.374.631L14.108 75.51a.519.519 0 0 0 .631.374l80.718-20.658a.518.518 0 0 0 .373-.63L81.968.43a.518.518 0 0 0-.631-.374"/>
        <path id="A" d="M81.337.057L.62 20.715a.518.518 0 0 0-.374.631L14.108 75.51a.519.519 0 0 0 .631.374l80.718-20.658a.518.518 0 0 0 .373-.63L81.968.43a.518.518 0 0 0-.631-.374z"/>
        <path id="C" d="M81.337.057L.62 20.715a.518.518 0 0 0-.374.631L14.108 75.51a.519.519 0 0 0 .631.374l80.718-20.658a.518.518 0 0 0 .373-.63L81.968.43a.518.518 0 0 0-.631-.374z"/>
    </defs>
    <g fill="none" fill-rule="evenodd">
        <path fill="#B5E8F7" d="M34.591 81.708c5.226-3.987 101.406-72.963 112.535-51.94 11.13 21.024-118.718 76.054-.618 35.245 118.1-40.81 148.398-45.756 129.848-22.26-18.55 23.497-34.626 50.085-13.603 50.085 21.023 0 48.847 22.26 31.535 33.389-17.313 11.13-42.665 21.023-29.062 29.061 13.603 8.039.618 16.077-6.183 19.787-6.802 3.71-142.215 25.97-175.604 22.878-33.39-3.092-83.474.618-51.32-16.695 32.152-17.313 59.977-43.283 37.098-35.863-22.877 7.42-55.648-3.091-32.152-20.404 23.496-17.314-62.451 2.473-2.474-43.283"/>
        <g transform="translate(14.127 -.883)">
            <mask id="b" fill="#fff">
                <use xlink:href="#a"/>
            </mask>
            <text fill="#FFF" font-family="LucidaGrande, Lucida Grande" font-size="72.131" mask="url(#b)">
                <tspan x=".38" y="51.188">@</tspan>
            </text>
        </g>
        <path fill="#C19371" d="M277.341 39.98L213.86 186.396l-2.939-6.621 62.34-142.089z"/>
        <path fill="#595A5A" d="M230.47 142.079l-21.795 48.552s16.033 2.948 21.033-8.19l10.03-22.344-11.644-5.227 5.287-11.485-2.91-1.306z"/>
        <path fill="#908F8F" d="M210.352 186.896s2.86-.048 8.149-9.48c5.29-9.432 9.147-17.73 9.723-18.132.576-.402 10.232 3.669 10.232 3.669l1.282-2.856-14.445-6.485-14.941 33.284z"/>
        <path fill="#595A5A" d="M230.47 142.079l-21.795 48.552s-12.857-10.02-7.857-21.16l10.03-22.343 11.644 5.227 5.067-11.584 2.911 1.308z"/>
        <path fill="#908F8F" d="M210.352 186.896s-1.864-2.168 1.668-12.39c3.532-10.22 7.17-18.618 7.086-19.315-.082-.697-9.54-5.207-9.54-5.207l1.281-2.856 14.446 6.484-14.941 33.284z"/>
        <path fill="#FFD200" d="M178.71 41.455l40.89 20.946-41.952-15.573zM175.714 21.715l53.483-11.182-52.111 18.407zM52.158 27.69L12.48 21.123l40.375 11.03zM59.64 71.353l-31.712 47.112 35.505-44.659zM53.396 51.067L0 66.13l55.604-9.43z"/>
        <path fill="#C19371" d="M112.423 189.323s1.089-3.734-2.904-6.276c-3.994-2.54-7.988-1.07-7.988-1.07s-7.503-8.49-17.064-6.553c-9.56 1.936-14.401 6.806-14.401 6.806s-9.076-8.601-12.768-8.067c-3.691.534-7.685.533-7.685.533s-4.193-6.326-10.529-4.84c-6.336 1.486-9.48 4.307-9.48 4.307s-14.24-1.644-18.234 2.955c-3.994 4.598-3.025 9.197-3.025 9.197s-6.898-.02-7.503 4.226c-.605 4.245 10.65 5.665 10.65 5.665s9.44 2.212 13.917 1.727c4.477-.484 13.191-2.904 13.191-2.904l73.823-5.706z"/>
        <g transform="translate(184.072 151.194)">
            <mask id="d" fill="#fff">
                <use xlink:href="#c"/>
            </mask>
            <path fill="#C19371" d="M7.257 34.758s5.567-7.504 10.65-7.988c5.082-.484 5.324 2.179 7.018 0 1.695-2.178 1.937-6.378 5.81-6.457 3.872-.077 6.05 0 6.05 0S52.788 5.381 58.583 4.336c5.796-1.044 12.147 0 12.147 0S77.933-.959 84.468.561c6.535 1.521 11.376 10.835 11.376 10.835s7.503 1.578 12.344 7.63c4.841 6.05 3.873 11.757 3.873 11.757s5.083 8.652 3.388 11.396c-1.694 2.745-46.956 2.024-46.956 2.024L.233 42.179l7.024-7.421z" mask="url(#d)"/>
        </g>
        <path fill="#5B8" d="M29.604 195.397c0 3.355 51.69 6.074 115.454 6.074 63.764 0 115.454-2.72 115.454-6.074 0-3.355-51.69-6.074-115.454-6.074-63.763 0-115.454 2.72-115.454 6.074"/>
        <path fill="#5B8" d="M29.604 195.397s3.547-5.37 10.237-6.074c6.69-.704 7.57 1.057 7.57 1.057s3.169-2.817 8.626-1.937c5.457.88 6.711 2.695 6.711 2.695s13.886-6.568 34.483-5.16c20.597 1.409 23.062 4.61 23.062 4.61s1.056-4.081 8.098-4.081c7.042 0 7.922 2.816 7.922 2.816s1.232-2.64 4.225-2.64c2.993 0 4.52 1.584 4.52 1.584s3.05-3.565 29.809-2.487c26.758 1.078 30.625 4.44 30.625 4.44s2.823-6.53 5.816-6.002c2.993.528 5.105 5.105 5.105 5.105s.88-4.401 10.74-3.697c9.857.704 12.146 5.105 12.146 5.105s5.985-4.049 13.203-2.992c7.218 1.056 8.01 7.658 8.01 7.658H29.604z"/>
        <path fill="#0E6F3B" d="M238.43 193.077s-.462-4.357 2.046-12.543c2.51-8.186 9.639-13.072 9.639-13.072s-5.546 9.705-7.922 15.646c-2.377 5.942-2.905 9.969-2.905 9.969s1.188-4.027 6.14-7.592c4.95-3.565 9.374-3.961 9.374-3.961s-7.13 4.489-10.629 7.328c-3.499 2.838-4.687 4.819-4.687 4.819h-1.584s-1.98-1.386-1.98-5.942c0-4.555 2.178-7.46 2.178-7.46s-3.037 7.725.33 12.808M100.838 189.352s1.376-2.36 1.376-3.932c0-1.573-.688-2.409-.688-2.409s.639 1.608 0 3.188c-.64 1.58-1.573 2.71-1.573 2.71s.246-2.211-.442-7.323c-.689-5.112-4.523-7.423-4.523-7.423s2.36 3.883 3.097 7.914c.737 4.03 1.327 6.685 1.327 6.685s-.988-.076-2.116-1.88c-1.128-1.806-2.308-4.608-2.308-4.608s.246 2.556 1.13 4.326c.885 1.77 2.704 2.752 2.704 2.752s-.983.197-2.605-.614c-1.622-.811-2.728-2.68-2.728-2.68s.492 1.992 1.77 2.827c1.277.836 4.08 1.303 5.579.467"/>
        <path fill="#000" d="M70.814 193.67s9.982-1.828 30.313-1.667c20.332.161 65.048-1.613 76.414-1.452 11.367.161 33.64 2.42 40.092 2.42 6.452 0 15.327.479 11.616 1.453-3.712.973-72.129.973-72.129.973s-102.581 2.684-86.306-1.726"/>
        <path fill="#714F47" d="M152.139 120.873s7-12.552 5.073-27.258c-1.926-14.706-10.533-28.306-10.533-28.306l6.68-3.06s11.333 12.43 14.392 32.109c3.06 19.678-7.252 44.16-7.252 44.16l-8.36-17.645zM137.117 128.216s-17.038-6.351-24.895-21.748c-7.857-15.396-6.95-32.773-6.95-32.773h-7.253s-3.826 18.405 3.928 39.561c5.031 13.726 28.456 31.155 28.456 31.155l6.714-16.195z"/>
        <path fill="#085EBD" d="M165.938 178.408l2.564 16.962s-4.903.984-17.353.758c-12.449-.227-16.09-.252-16.09-.252l2.058-17.468h28.821z"/>
        <path fill="#FF7900" d="M130.703 127.525s5.96 2.38 13.118-.907c7.159-3.286 12.031-9.749 12.031-9.749s5.78 13.716 8.726 35.248c2.947 21.532 1.36 26.291 1.36 26.291l-30.089 2.493s-3.016-18.472-5.162-29.464c-2.146-10.993-4.872-21.002-4.019-22.23.853-1.229 4.035-1.682 4.035-1.682"/>
        <path fill="#714F47" d="M144.355 118.42l2.988 6.702s-.094 2.565-3.867 3.7c-3.774 1.136-6.359-.606-6.359-.606l-2.177-9.191 9.415-.606z"/>
        <path fill="#62352D" d="M136.416 125.254s3.174.3 6.172-1.31c2.999-1.61 3.081-2.576 3.081-2.576l-.138-.485-10.293-.815 1.178 5.186z"/>
        <path fill="#714F47" d="M148.715 102.64l1.411 4.936s2.537 11.085-2.058 13.358c-4.595 2.272-10.706.444-12.83-.866-2.123-1.31-3.814-4.267-3.814-4.267s-2.1 1.334-4.373-1.682c-2.272-3.017-.952-4.183-.952-4.183s.86-.81 2.135-.686c1.276.124 1.619.402 1.619.402s-4.024-6.445-3.925-10.308c.098-3.863 6.649-9.026 13.929-7.498 7.28 1.527 8.858 10.795 8.858 10.795"/>
        <path fill="#62352D" d="M127.155 112.905s-.738-1.463-.398-1.917c.34-.454 2.153-.428 3.09 1.335.935 1.763.228 1.984-.221 2.056-.45.072-1.055-.47-1.12-1.353-.065-.884.325-.901.325-.901s-.939-1.167-1.537-.84c-.598.328-.009 1.613-.009 1.613l-.13.007zM145.937 109.27c-.307-.816-1.41-1.249-2.027-1.784-.39-.339-.763-.705-1.051-1.137-.342-.51-.452-1.06-.654-1.625-.014-.04-.077-.045-.086 0-.259 1.196.7 2.563 1.522 3.335.216.203.448.391.686.569.319.238 1.03.574 1.013 1.05-.01.32-.476.662-.715.811-.343.214-.653.213-1.041.21-.117-.001-.165.122-.12.215.32.665 1.214.38 1.669.05.556-.407 1.08-.963.804-1.695"/>
        <path fill="#000" d="M132.848 97.31s-3.78 1.503-3.982 4.277c-.203 2.774 2.105 6.519 2.612 6.917.506.398 1.459.88 1.459.88l-1.267 1.69-1.817-1.423s-1.517-.498-2.06-.408c-.544.09-1.3.41-1.3.41s-1.558-2.718-2.115-6.088c-.558-3.372-.022-5.414-.022-5.414l8.492-.841z"/>
        <path fill="#363436" d="M143.754 94.592s2.007 1.5 3.386 4.001c1.38 2.503 1.668 4.371 1.668 4.371s-.18-3.348-1.862-6.668c-1.684-3.32-5.145-4.551-5.145-4.551l1.953 2.847z"/>
        <path fill="#363436" d="M136.052 90.42c-3.44.323-7.208 1.455-9.656 3.195 0 0-2.515 2.78-1.24 4.145 1.276 1.365 2.009-.012 5.845-.666 3.836-.655 6.16-.027 6.16-.027.88-.097 1.696-.232 2.22-.419 1.717-.611 4.601-1.859 4.655-2.417.052-.558-2.636-4.315-7.984-3.812"/>
        <path fill="#000" d="M131 97.094c-3.835.654-4.568 2.031-5.844.666-1.275-1.366 1.24-4.145 1.24-4.145-1.357.964-2.308 2.115-2.573 3.42-.565 2.772.393 5.315.393 5.315s1.82-1.583 4.25-3.003c2.431-1.419 4.381-2.037 4.381-2.037s2.32-.024 4.314-.243c0 0-2.324-.627-6.16.027"/>
        <path fill="#FFF" d="M145.482 114.246l1.876-.687-.036-1.66-7.1 2.029s1.38 3.67 4.866 2.673c1.243-.355 1.943-1.073 2.332-1.849l-.005-.938-1.933.432z"/>
        <path fill="#62352D" d="M147.322 111.898l.036 1.661-1.876.687 1.933-.432.005.938c.702-1.4.384-2.992.384-2.992l-.482.138z"/>
        <path fill="#FF7900" d="M166.49 174.84l1.34 10.887c-1.512 1.133-21.308.818-23.877 1.698-2.568.88-4.08.125-6.12.502-2.039.378-2.794 1.663-3.701.454s2.525-2.776 1.12-11.092c-1.405-8.314 31.238-2.45 31.238-2.45"/>
        <path fill="#714F47" d="M135.85 127.687s15.97 22.953 15.89 21.199c-.08-1.756-.156-12.56-1.138-17.243-.982-4.684-2.726-7.04-2.726-7.04l-1.197.478-10.83 2.606z"/>
        <path fill="#FFB400" d="M147.876 124.604s1.872 3.993 2.707 9.437c.834 5.444 1.157 14.845 1.157 14.845s1.166-12.351.656-14.788c-.51-2.437-1.983-5.327-1.87-5.723.113-.397 1.02-1.7 1.756-1.87.737-.17 1.474.86 1.19-.477-.283-1.336-.878-3.008-1.473-3.914-.595-.907-1.061-1.097-1.061-1.097s-1.745 3.017-3.062 3.587"/>
        <path fill="#FF7900" d="M151.637 121.334s3.498-13.64 4.253-15.379c.756-1.737 1.455-2.94 1.455-2.94s4.816-.322 8.14-.05c3.324.27 4.306 1.592 4.306 2.065 0 .472-8.208 36.501-8.208 36.501l-8.79-19.181-1.156-1.016zM133.66 126.035s-7.508-5.813-10.016-7.394c-2.507-1.58-1.45-2.12-4.018-4.306-2.569-2.184-3.47-3.098-3.928-3.017-.459.08-6.724 3.25-8.387 4.988-1.662 1.738-2.04 4.608-2.04 5.817 0 1.21 25.432 24.327 25.432 24.327s3.58-18.283 3.504-18.51a133.77 133.77 0 0 1-.547-1.905"/>
        <path fill="#FFB400" d="M135.85 127.687l15.509 21.073s-11.744-11.036-13.031-12.849c-1.288-1.813.171-2.123-1.522-2.493-1.692-.37-3.87.453-3.87.453s-1.724-6.573 0-7.593c1.725-1.02 2.913 1.409 2.913 1.409M156.57 103.794s-.264-.95 0-1.246c.265-.295.605-.445.605-.445s-.636-.644.324-1.229c.96-.585 9.157-.472 11.272.624 2.116 1.095 1.89 1.797 1.7 2.296-.188.5-.302.898-.302.898s.402 1.797-.075 2.321c-.478.524-1.587 0-1.587 0s-4.068-1.662-6.737-1.511c-2.669.152-6.144 1.398-6.9-.075-.755-1.474 1.7-1.633 1.7-1.633M115.674 110.24s1.374-.369 2.085.295c.71.662.589 1.635.589 1.635s.81.074 1.012.423c.202.35 0 .96 0 .96s1.257.313 1.135.873c-.122.56-5.023.786-8.263 2.618-3.24 1.832-5.707 6.705-6.318 7.571-.612.866-1.215.634-1.66 0-.447-.634-.163-1.546-.163-1.546s-.688-.004-.729-.571c-.04-.568.162-.891.162-.891s-1.053-.64-.972-1.904c.08-1.263 1.255-5.371 6.075-7.505 4.82-2.134 7.047-1.958 7.047-1.958"/>
        <path fill="#714F47" d="M105.272 73.696s1.624-2.805-2.002-3.697c-3.627-.893-7.31 2.96-9.86 3.016-2.55.057-6.285-1.303-6.288.68-.002 1.984 2.548 3.967 5.722 3.4 3.173-.567 6.572-1.19 6.742-1.246.17-.057 5.686-2.153 5.686-2.153M146.68 65.31s-2.18-2.521-1.593-3.797c.586-1.276 1.893-1.586 3.983-2.081l10.901-2.583s1.282-2.929 2.01-2.022c.727.906-.35 3.91-.802 4.703-.453.793-8.103 3.796-8.443 3.91-.34.113-6.057 1.87-6.057 1.87"/>
        <g>
            <g transform="translate(68.56 .779)">
                <mask id="f" fill="#fff">
                    <use xlink:href="#e"/>
                </mask>
                <path fill="#EA7E31" d="M1.054 24.502L13.3 72.354a3.776 3.776 0 0 0 4.594 2.722L92.3 56.034a3.776 3.776 0 0 0 2.722-4.595L82.776 3.587A3.777 3.777 0 0 0 78.18.865L3.776 19.907a3.776 3.776 0 0 0-2.722 4.595" mask="url(#f)"/>
            </g>
            <g transform="translate(68.56 .779)">
                <mask id="h" fill="#fff">
                    <use xlink:href="#g"/>
                </mask>
                <path fill="#EF6D30" d="M58.395 65.311s3.463-8.873-6.493-25.37c-9.957-16.498-8.396-30.802-8.396-30.802L81.119-.487l14.407 56.295-37.131 9.503z" mask="url(#h)"/>
            </g>
            <g transform="translate(68.56 .779)">
                <mask id="j" fill="#fff">
                    <use xlink:href="#i"/>
                </mask>
                <path fill="#FFF" d="M56.665 65.754s3.463-8.873-6.493-25.37c-9.957-16.498-8.396-30.802-8.396-30.802L79.388-.044 93.796 56.25l-37.131 9.503z" mask="url(#j)"/>
            </g>
            <g transform="translate(68.56 .779)">
                <mask id="l" fill="#fff">
                    <use xlink:href="#k"/>
                </mask>
                <path fill="#EA7E31" d="M57.241 65.606s3.464-8.873-6.492-25.37c-9.957-16.498-8.397-30.802-8.397-30.802L79.965-.192l14.408 56.295-37.132 9.503z" mask="url(#l)"/>
            </g>
            <g transform="translate(68.56 .779)">
                <mask id="n" fill="#fff">
                    <use xlink:href="#m"/>
                </mask>
                <path fill="#FFF" d="M58.395 65.311s3.463-8.873-6.493-25.37c-9.957-16.498-8.396-30.802-8.396-30.802L81.119-.487l14.407 56.295-37.131 9.503z" mask="url(#n)"/>
            </g>
            <g transform="translate(68.56 .779)">
                <mask id="p" fill="#fff">
                    <use xlink:href="#o"/>
                </mask>
                <path fill="#100E0B" d="M58.972 65.163s3.463-8.872-6.494-25.37c-9.956-16.498-8.396-30.801-8.396-30.801L81.695-.635 96.103 55.66l-37.131 9.503z" mask="url(#p)"/>
            </g>
            <g transform="translate(68.56 .779)">
                <mask id="r" fill="#fff">
                    <use xlink:href="#q"/>
                </mask>
                <path fill="#FFF" d="M38.443 31.636a1.607 1.607 0 0 0-.72-.275 3.076 3.076 0 0 0-.842.009 7.385 7.385 0 0 0-.796.153 7.206 7.206 0 0 0-.776.25 3.118 3.118 0 0 0-.742.396c-.22.16-.389.357-.503.588-.115.233-.132.507-.051.824.08.316.228.549.44.697.212.148.454.24.725.275.27.034.55.032.84-.01.291-.04.558-.091.8-.153a7.4 7.4 0 0 0 .772-.249c.277-.104.525-.237.742-.396.219-.16.385-.356.5-.588.115-.232.132-.506.05-.823-.08-.316-.227-.549-.44-.698m.847 1.644c-.112.296-.288.55-.526.76-.24.21-.521.384-.846.52a7.027 7.027 0 0 1-.97.329 7.077 7.077 0 0 1-1.018.18c-.35.036-.68.02-.992-.05a1.858 1.858 0 0 1-.822-.414c-.238-.206-.41-.513-.514-.92-.103-.4-.1-.75.01-1.048.11-.298.283-.552.522-.762.238-.21.52-.384.846-.52.325-.137.649-.247.97-.33a7.018 7.018 0 0 1 1.017-.179c.35-.036.681-.02.992.05.31.07.586.209.828.416.241.209.414.513.517.915.104.405.1.758-.014 1.053" mask="url(#r)"/>
            </g>
            <g transform="translate(68.56 .779)">
                <mask id="t" fill="#fff">
                    <use xlink:href="#s"/>
                </mask>
                <path fill="#FFF" d="M39.57 36.04a1.607 1.607 0 0 0-.72-.276 3.076 3.076 0 0 0-.842.009 7.37 7.37 0 0 0-.796.152 7.214 7.214 0 0 0-.776.25 3.132 3.132 0 0 0-.742.397c-.22.16-.389.357-.504.588-.114.233-.131.506-.05.823.08.317.227.55.44.698.212.148.454.24.724.274.27.035.551.032.841-.009.29-.04.558-.092.8-.153a7.4 7.4 0 0 0 .772-.249c.277-.104.525-.237.742-.396.219-.16.385-.356.5-.588.115-.232.132-.506.05-.823-.08-.317-.227-.549-.44-.698m.847 1.644c-.112.296-.288.55-.527.76-.238.21-.52.384-.845.52a6.975 6.975 0 0 1-.97.329 7.135 7.135 0 0 1-1.018.18c-.35.036-.68.02-.992-.05a1.858 1.858 0 0 1-.822-.415c-.239-.205-.41-.512-.514-.918-.103-.402-.1-.751.01-1.05.11-.297.283-.551.522-.762.238-.21.52-.383.845-.52.326-.136.65-.246.971-.328a7.076 7.076 0 0 1 1.017-.18c.35-.037.681-.02.992.05.31.07.586.208.828.416.241.209.414.513.516.914.105.406.1.759-.013 1.054" mask="url(#t)"/>
            </g>
            <g transform="translate(68.56 .779)">
                <mask id="v" fill="#fff">
                    <use xlink:href="#u"/>
                </mask>
                <path fill="#FFF" d="M40.696 40.443a1.608 1.608 0 0 0-.72-.275 3.06 3.06 0 0 0-.841.008 7.29 7.29 0 0 0-.796.153 7.236 7.236 0 0 0-.776.25 3.13 3.13 0 0 0-.742.397c-.22.16-.389.356-.504.587-.114.233-.131.507-.05.824.08.317.227.55.44.697.212.149.453.24.724.275.27.034.551.032.841-.01.291-.04.558-.091.8-.153a7.4 7.4 0 0 0 .772-.248c.277-.105.525-.237.742-.396.218-.161.385-.357.5-.588.115-.232.132-.507.05-.824-.08-.316-.227-.548-.44-.697m.847 1.644c-.112.295-.288.549-.527.76-.239.21-.52.383-.845.52a6.977 6.977 0 0 1-.97.328 7 7 0 0 1-1.018.18c-.35.037-.681.02-.992-.05a1.864 1.864 0 0 1-.823-.414c-.238-.206-.41-.512-.513-.919-.103-.401-.1-.75.01-1.049.11-.298.283-.552.522-.762.239-.21.52-.384.845-.52.326-.136.65-.246.971-.329a7.086 7.086 0 0 1 1.017-.18c.35-.036.681-.02.991.05.31.07.587.209.829.417.241.208.414.513.516.914.104.406.1.758-.013 1.054" mask="url(#v)"/>
            </g>
            <g transform="translate(68.56 .779)">
                <mask id="x" fill="#fff">
                    <use xlink:href="#w"/>
                </mask>
                <path fill="#FFF" d="M41.984 48.84l-.335.086-.568-2.22-1.487.38.505 1.973-.335.085-.505-1.972-1.96.502-.1-.392 4.117-1.054z" mask="url(#x)"/>
            </g>
            <g transform="translate(68.56 .779)">
                <mask id="z" fill="#fff">
                    <use xlink:href="#y"/>
                </mask>
                <path fill="#FFF" d="M41.006 51.474c.092-.167.107-.371.045-.613a.94.94 0 0 0-.226-.428 1.036 1.036 0 0 0-.372-.252 1.338 1.338 0 0 0-.456-.092 1.692 1.692 0 0 0-.928.238c-.141.082-.26.183-.357.3a1.04 1.04 0 0 0-.205.4.954.954 0 0 0 .152.784.887.887 0 0 0 .244.22 1.017 1.017 0 0 0 .68.126l.093.364c-.374.042-.69-.018-.947-.182-.256-.163-.428-.414-.514-.752a1.455 1.455 0 0 1-.031-.635c.038-.196.113-.371.225-.527.111-.156.254-.289.43-.399.173-.11.369-.192.583-.248.216-.055.426-.076.633-.063.206.013.395.06.567.143.174.083.324.201.454.354.129.154.222.343.281.57.082.32.066.61-.047.875-.112.264-.334.462-.665.591l-.093-.363c.21-.107.361-.244.454-.41" mask="url(#z)"/>
            </g>
            <g transform="translate(68.56 .779)">
                <mask id="B" fill="#fff">
                    <use xlink:href="#A"/>
                </mask>
                <path fill="#FFF" d="M41.553 53.177l-2.67.684-.093-.364 2.67-.683-.13-.507.304-.078.13.507.271-.07c.128-.032.248-.052.36-.06a.705.705 0 0 1 .305.038c.09.034.169.093.235.176a.91.91 0 0 1 .156.344 2.915 2.915 0 0 1 .055.312l-.311.08c-.006-.052-.01-.1-.016-.144a.969.969 0 0 0-.023-.13.487.487 0 0 0-.106-.218.292.292 0 0 0-.154-.086.496.496 0 0 0-.193.003c-.07.014-.145.031-.226.052l-.26.066.15.588-.304.079-.15-.589z" mask="url(#B)"/>
            </g>
            <g transform="translate(68.56 .779)">
                <mask id="D" fill="#fff">
                    <use xlink:href="#C"/>
                </mask>
                <path fill="#FFF" d="M41.232 56.27c-.049-.013-.091-.048-.127-.11a1.372 1.372 0 0 1-.084-.162c-.066-.147-.131-.3-.194-.457a2.695 2.695 0 0 0-.21-.422.9.9 0 0 0-.266-.286c-.1-.066-.225-.08-.37-.043a.554.554 0 0 0-.379.311.668.668 0 0 0-.063.244.818.818 0 0 0 .023.259c.035.139.09.265.166.381a1 1 0 0 0 .269.284.929.929 0 0 0 .351.15.92.92 0 0 0 .414-.017l.473-.12-.003-.012zm.423-2.044c.142.03.268.087.375.172.109.085.2.193.274.326.075.132.134.285.18.458.032.13.054.265.061.401a.972.972 0 0 1-.05.388.784.784 0 0 1-.227.329 1.081 1.081 0 0 1-.462.222l-1.58.404c-.146.038-.2.128-.164.27.01.042.028.079.053.11l-.307.078a1.308 1.308 0 0 1-.084-.231.57.57 0 0 1-.018-.232.304.304 0 0 1 .073-.156.415.415 0 0 1 .15-.103c.06-.026.13-.049.206-.068l-.003-.012a2.545 2.545 0 0 1-.308-.133 1.03 1.03 0 0 1-.432-.43 1.593 1.593 0 0 1-.137-.367 1.555 1.555 0 0 1-.051-.402.901.901 0 0 1 .075-.357.768.768 0 0 1 .216-.283.937.937 0 0 1 .37-.177c.207-.053.381-.049.522.014a.9.9 0 0 1 .362.297c.1.136.187.296.26.48.075.184.148.371.22.56.029.076.055.14.082.196a.364.364 0 0 0 .097.128c.04.03.086.05.142.06a.526.526 0 0 0 .204-.02.682.682 0 0 0 .287-.137.496.496 0 0 0 .145-.215.702.702 0 0 0 .031-.273 1.722 1.722 0 0 0-.052-.309c-.059-.23-.162-.405-.309-.523s-.342-.15-.586-.096l-.093-.363c.176-.033.335-.035.478-.006z" mask="url(#D)"/>
            </g>
        </g>
        <g>
            <path fill="#FFF" d="M104.083 23.662l-.334-1.438.332-.078c.064.202.13.389.197.554.067.166.15.307.253.414a.94.94 0 0 0 .395.252c.162.058.363.072.613.062l.092.406-5.58 1.295-.116-.506 4.148-.961zM103.982 29.573c.3-.067.587-.157.867-.259.28-.101.52-.226.725-.377.208-.154.351-.342.447-.554.098-.212.11-.47.04-.766-.065-.277-.188-.487-.371-.63a1.403 1.403 0 0 0-.654-.29 3.193 3.193 0 0 0-.837-.023 6.946 6.946 0 0 0-.916.148c-.358.083-.68.181-.965.295-.28.114-.512.245-.694.4-.18.154-.307.33-.38.534-.07.202-.08.441-.017.709.073.3.206.524.395.672.186.147.413.246.663.28.253.044.53.047.83.013.296-.037.585-.086.867-.152m2.51-2.038c.066.277.079.523.045.746-.034.217-.108.41-.218.587-.11.168-.251.323-.422.454a3.105 3.105 0 0 1-.554.343 4.191 4.191 0 0 1-.643.247c-.22.071-.44.13-.657.18a6.552 6.552 0 0 1-1.079.167 2.837 2.837 0 0 1-.96-.081 1.668 1.668 0 0 1-.753-.432c-.21-.207-.357-.5-.447-.887-.088-.386-.088-.717.007-.998.098-.283.259-.524.488-.72.229-.203.507-.373.845-.502a7.674 7.674 0 0 1 1.076-.338 7.19 7.19 0 0 1 1.055-.166c.347-.031.673-.014.967.06.3.073.56.218.78.427.219.204.376.516.47.913"/>
            <path fill="#010101" d="M137.579 101.385s-.207-.066-.478-.021c-.265.034-.639.164-1.012.31-.373.158-.744.328-1.202.517-.456.2-1.023.36-1.77.867 0 0-.033-.05-.08-.15a1.656 1.656 0 0 1-.138-.454c-.071-.396-.027-1.023.37-1.634.198-.298.479-.587.84-.81a2.68 2.68 0 0 1 1.293-.382c.482-.018 1.001.11 1.44.4.22.148.427.342.574.58.148.237.223.525.163.777M147.464 99.579s-.21-.044-.51-.125c-.291-.079-.707-.168-.9-.078-.096.039-.124.09-.21.123-.082.036-.205.071-.365.118-.313.073-.882.358-1.701.632 0 0-.084-.225-.135-.58-.044-.354-.069-.863.25-1.433.156-.28.434-.579.805-.78a2.08 2.08 0 0 1 1.421-.215c.56.11 1.025.505 1.217.934.205.436.205.897.128 1.404M148.02 103.966l-.118-.012a.928.928 0 0 0-.277.019c-.213.044-.42.184-.589.314-.193.144-.218.207-.534.292-.295.075-.802.223-1.562.312 0 0-.083-.208-.132-.527-.047-.318-.065-.758.17-1.224.118-.23.305-.465.582-.65.26-.18.684-.33 1.086-.298.403.02.824.19 1.13.522.31.318.46.848.243 1.252M139.27 106.855s-.21-.022-.5-.012c-.29.007-.654.07-.977.164-.162.046-.314.101-.457.148-.142.046-.282.09-.462.136-.353.108-.864.185-1.566.64 0 0-.037-.045-.09-.135a1.473 1.473 0 0 1-.168-.414c-.096-.367-.087-.964.3-1.546a2.248 2.248 0 0 1 2.164-.96c.459.063.91.277 1.243.63.333.346.545.841.512 1.349"/>
        </g>
        <g transform="translate(169 19)">
            <circle cx="35" cy="35" r="35" fill="#32C832"/>
            <path fill="#FFF" fill-rule="nonzero" d="M20.581 28.354L14 34.936l16.83 16.83a1 1 0 0 0 1.44-.026l25.913-27.907-6.82-6.333-20.047 21.589-10.735-10.735z"/>
        </g>
    </g>
</svg>
