<svg xmlns="http://www.w3.org/2000/svg" width="71" height="71" viewBox="0 0 71 71">
    <g fill="none" fill-rule="evenodd">
        <circle cx="35.5" cy="35.5" r="35.5" fill="#FC0"/>
        <path fill="#BC3326" d="M45.536 12.029L16 19.854 26.461 59.34l29.536-7.826z"/>
        <path fill="#A52622" d="M28.173 56.292L53 49.714l-9.177-34.639-24.829 6.578 9.178 34.64zM54 50.295l-26.408 6.997-9.596-36.22 26.408-6.996L54 50.295z"/>
        <g fill="#F0B04D">
            <path d="M34.539 23.486a.517.517 0 0 1-.588-.264.828.828 0 0 1-.063-.17l-.096-.364a.642.642 0 0 1-.023-.151.537.537 0 0 1 .384-.55c.37-.099.646.172.758.597.12.451-.013.807-.372.902m-.263-2.226c-.387.103-.652.33-.774.666l-.01.003-.137-.36-.718.19c.076.242.166.539.258.887l.754 2.847.828-.22-.35-1.322.01-.003c.166.142.451.206.772.121.593-.157 1.087-.777.83-1.746-.224-.849-.881-1.217-1.463-1.063M37.742 22.684c-.354.094-.636-.199-.757-.656-.104-.392-.064-.838.333-.944.375-.1.635.263.74.66.127.48.005.855-.316.94m-.558-2.194c-.854.226-1.275.927-1.047 1.786.227.86.961 1.213 1.74 1.007.713-.189 1.286-.818 1.028-1.792-.212-.8-.905-1.217-1.721-1M26.92 25.085c.013.049.02.1.021.146a.467.467 0 0 1-.35.419c-.184.049-.353-.017-.41-.23-.085-.32.226-.513.662-.623l.077.288zm.645-.817c-.166-.626-.587-1.074-1.474-.839-.485.128-.814.356-.972.508l.294.493c.145-.155.409-.323.681-.396.408-.108.538.073.575.215l.01.038c-.943.244-1.475.74-1.292 1.432.112.424.537.73 1.076.588.316-.084.558-.27.676-.528l.016-.005.12.254.746-.197a4.197 4.197 0 0 1-.21-.638l-.246-.925zM29.343 23.738c-.357-.027-.477-.065-.51-.19-.036-.137.056-.249.258-.302.228-.06.48-.034.617 0l-.005-.61a1.849 1.849 0 0 0-.791.046c-.659.174-.983.662-.852 1.157.078.318.369.561.968.6.338.022.437.065.473.201.036.136-.044.25-.295.317-.245.065-.59.04-.766-.012l.01.632c.23.055.56.05.909-.043.762-.202 1.057-.67.926-1.166-.11-.39-.39-.59-.942-.63M23.31 25.01a1.3 1.3 0 0 1-.283.052l-.287-1.083c.055-.032.165-.079.334-.124.414-.109.701.03.79.368.1.376-.113.67-.554.787m.754-1.772c-.297-.13-.688-.132-1.199.003a7.093 7.093 0 0 0-1.101.373l.96 3.62.82-.217-.347-1.313c.08-.009.178-.03.288-.058.49-.13.877-.36 1.089-.703.163-.264.202-.6.107-.96a1.11 1.11 0 0 0-.617-.745M31.707 23.112c-.357-.028-.478-.065-.51-.191-.037-.136.056-.248.257-.3.229-.062.48-.035.617-.002l-.005-.61a1.846 1.846 0 0 0-.79.046c-.66.175-.984.663-.853 1.158.078.318.37.56.968.6.338.021.437.065.473.2.036.137-.044.252-.294.318-.245.065-.59.04-.767-.012l.01.632c.23.055.56.05.91-.043.761-.202 1.056-.67.925-1.166-.109-.39-.39-.59-.941-.63M41.98 18.468l-.761.4.153.577-.354.094.161.61.354-.095.288 1.089c.1.376.244.611.438.729.167.101.414.135.681.064.234-.062.423-.141.52-.214l-.17-.624a1.428 1.428 0 0 1-.24.087c-.25.066-.366-.061-.45-.382l-.256-.963.594-.158-.162-.61-.594.158-.201-.762zM39.943 20.348l-.021.005-.157-.482-.713.189c.071.225.15.479.253.87l.473 1.786.828-.22-.358-1.35a.997.997 0 0 1-.032-.19c-.014-.27.15-.487.455-.568.092-.025.166-.032.229-.038l-.206-.778a.872.872 0 0 0-.178.035c-.256.068-.539.318-.573.74M42.266 45.311c.104-.783.299-1.553.406-2.348.01-.041.02-.083.032-.123.466-.065.936-.115 1.412-.14-.435.988-1.02 1.915-1.85 2.611m-1.674 1.061c-.16.402-.612.466-.982.6l-.92-3.475c.919-.258 1.868-.408 2.806-.538-.146 1.168-.428 2.34-.904 3.413M37.816 40.2c1.152-.305 2.301-.62 3.458-.905.21.763.317 1.552.293 2.347a26.742 26.742 0 0 0-3.204.626l-.547-2.068m-.852-3.214c.996-.264 1.967-.626 2.935-1 .419.674.796 1.398 1.04 2.159l-3.427.908-.548-2.067m-1.248-4.71c.221-.025.46-.084.697-.11.086.021.166.06.24.129.95.766 1.808 1.63 2.52 2.624-.819.344-1.663.64-2.531.851l-.926-3.494m6.004 1.492c-.352.191-.709.368-1.07.53-.496-.613-1.023-1.206-1.519-1.835.95.248 1.83.705 2.59 1.305m1.018.91a8.046 8.046 0 0 1 1.514 2.574 112.3 112.3 0 0 1-1.963.535 13.334 13.334 0 0 0-.968-2.42c.462-.226.94-.457 1.417-.689m1.932 4.569l.011.187.006.136a9.997 9.997 0 0 1-.145 1.821c-.588.069-1.171.108-1.754.148-.032-.876-.065-1.74-.207-2.602l1.97-.522c.06.275.099.553.12.832m-9.275-3.163c-.92.257-1.868.407-2.807.538.147-1.169.43-2.34.906-3.413.159-.402.61-.466.98-.602l.921 3.477m.874 3.297c-1.152.305-2.3.62-3.458.905a7.911 7.911 0 0 1-.293-2.347 26.524 26.524 0 0 0 3.203-.626l.548 2.068m.852 3.214c-.997.264-1.967.626-2.934.999-.42-.673-.797-1.397-1.042-2.157l3.428-.908.548 2.066m1.248 4.71c-.22.025-.46.084-.697.11a.524.524 0 0 1-.24-.129c-.951-.766-1.807-1.63-2.52-2.623a16.77 16.77 0 0 1 2.53-.852c.31 1.164.618 2.329.927 3.494m-6.005-1.492c.353-.19.71-.368 1.07-.53.497.614 1.024 1.206 1.52 1.835a7.083 7.083 0 0 1-2.59-1.305m-1.018-.91a8.017 8.017 0 0 1-1.513-2.574c.66-.187 1.311-.362 1.962-.534.238.838.57 1.638.969 2.418-.464.227-.941.459-1.418.69m-1.933-4.569l-.01-.187-.005-.136a5.59 5.59 0 0 1-.003-.188c-.001-.547.058-1.096.147-1.633.588-.07 1.171-.108 1.753-.147.033.876.066 1.739.209 2.6l-1.97.523a5.998 5.998 0 0 1-.12-.832m2.404-6.065c-.103.783-.298 1.554-.405 2.349a2.28 2.28 0 0 1-.032.123c-.466.063-.935.115-1.413.14.436-.99 1.022-1.916 1.85-2.612m13.63 9.174a9.225 9.225 0 0 0 .742-3.91 8.695 8.695 0 0 0-.022-.501 9.313 9.313 0 0 0-.221-1.332 8.01 8.01 0 0 0-.073-.296l-.008-.03a11.55 11.55 0 0 0-.111-.367l-.018-.057c-.032-.097-.064-.195-.1-.29a9.708 9.708 0 0 0-.356-.863c-.615-1.303-1.556-2.43-2.688-3.312-1.346-1.02-2.978-1.648-4.646-1.85a9.23 9.23 0 0 0-2.9.21l-.055.007.002.005c-1.125.267-2.204.73-3.18 1.358-1.365 1.005-2.503 2.354-3.179 3.923a9.212 9.212 0 0 0-.742 3.91c.003.167.01.334.023.502a9.215 9.215 0 0 0 .294 1.626l.008.03c.034.124.071.247.11.368l.018.057a10.104 10.104 0 0 0 .456 1.153c.615 1.303 1.556 2.43 2.688 3.312 1.346 1.019 2.978 1.649 4.646 1.85.975.086 1.952.01 2.9-.21l.054-.007a.011.011 0 0 1 0-.005 10.262 10.262 0 0 0 3.18-1.358c1.363-1.005 2.502-2.354 3.178-3.923"/>
        </g>
    </g>
</svg>
