<svg xmlns="http://www.w3.org/2000/svg" xmlns:xlink="http://www.w3.org/1999/xlink" width="192" height="130" viewBox="0 0 192 130">
    <defs>
        <path id="a" d="M.204.23h92.814v37.188H.204z"/>
        <path id="c" d="M.044.072H3.23v3.261H.044z"/>
        <path id="e" d="M.25.01h2.745v2.32H.249z"/>
        <path id="g" d="M.034.016H2.5V2.58H.034z"/>
        <path id="i" d="M.162.088H3.42v3.245H.16z"/>
        <path id="k" d="M.198.94h2.564V1.3H.198z"/>
        <path id="m" d="M.048.01h2.564v2.32H.048z"/>
        <path id="o" d="M.248.087h81.1v64.148H.249z"/>
    </defs>
    <g fill="none" fill-rule="evenodd">
        <path fill="#F4CFB2" d="M15.061 37.384c3.484-2.657 67.603-48.641 75.023-34.626 7.42 14.015-79.145 50.703-.412 23.496 78.733-27.206 98.932-30.504 86.565-14.84-12.366 15.665-23.084 33.39-9.068 33.39 14.015 0 32.565 14.84 21.023 22.26-11.542 7.42-28.443 14.015-19.374 19.374 9.068 5.359.412 10.718-4.122 13.19-4.535 2.474-94.81 17.314-117.07 15.253-22.26-2.061-55.65.412-34.214-11.13 21.435-11.542 39.985-28.855 24.733-23.908-15.252 4.946-37.1-2.062-21.435-13.604 15.664-11.542-41.634 1.65-1.649-28.855"/>
        <path fill="#714F47" d="M112.393 60.365c-3.234-.963-7.661-.521-10.493-2.39-8.396-5.538-16.52-11.482-23.767-18.184-1.579 2.772-3.181 5.57-4.522 7.876-1.804 3.103-3.885 6.067-5.723 9.152-1.52 2.551-1.091 5.107-3.293 7.438-2.809 2.975-8.107 3.606-10.502 6.648-1.595 2.026-1.083 4.455-1.391 6.948-1.418 11.484-19.367 23.208-5.758 33.51 5.42 4.104 12.127 6.699 18.377 9.248 5.052 2.06 10.48 2.266 13.176-3.042 2.298-4.522 2.532-9.42 6.468-13.108 3.54-3.32 8.685-4.203 12.194-7.367 5.001-4.511 9.037-10.964 12.444-16.733 3.03-5.13 6.762-10.89 6.481-17.114-.077-1.694-2.179-2.432-3.691-2.882"/>
        <g transform="translate(-8 90.903)">
            <mask id="b" fill="#fff">
                <use xlink:href="#a"/>
            </mask>
            <path fill="#000" d="M92.662 24.731C91.869 23.34 56.826.486 52.392.234c-2.949-.167-5.866 4.435-7.198 6.029-5.382 6.444-57.458 68.973-58.728 81.89h68.487c12.844-11.78 31.718-48.806 37.15-59.169 1.005-1.918 1.168-3.182.559-4.253" mask="url(#b)"/>
        </g>
        <path fill="#FF7900" d="M44.295 94.624a1.037 1.037 0 0 0-.76-1.239 1.037 1.037 0 0 0-1.237.759 7.32 7.32 0 0 1-.121.444c-.018.041-.076.193-.096.235-.057.12-.126.234-.194.349-.292.477-.053 1.137.42 1.39.513.274 1.098.058 1.39-.42.286-.47.47-.985.598-1.518M48.672 98.318c.264-.33.323-.792.086-1.18-.284-.463-.946-.648-1.412-.338-.204.136-.393.31-.497.536a1.828 1.828 0 0 0-.08.217c-.264.33-.323.792-.086 1.178.284.464.945.65 1.412.34.203-.137.392-.31.496-.537.034-.075.06-.145.08-.216M45.89 102.96l.023-.024-.006.006c.33-.335.432-.84.169-1.27-.28-.457-.95-.657-1.412-.339-.535.37-.73.927-.876 1.532-.131.544.215 1.108.758 1.238a1.037 1.037 0 0 0 1.239-.759c.03-.128.065-.257.105-.384M54.036 102.01c.296-.475.049-1.14-.42-1.39-.517-.277-1.094-.056-1.39.42-.345.553-.64.99-1.05 1.485-.358.43-.379 1.052.048 1.451.39.366 1.094.383 1.451-.048.503-.605.945-1.251 1.361-1.918M50.364 105.579c-.552-.133-1.094.217-1.237.758l-.014.057a2.597 2.597 0 0 1-.146.277l-.03.046a1.774 1.774 0 0 1-.066.076c-.41.325-.556.892-.27 1.36.283.461.949.653 1.413.339.559-.378.94-1.03 1.11-1.675.143-.54-.224-1.11-.76-1.238M57.825 107.122l.001-.003c.045-.107.095-.212.144-.317.127-.275.253-.557.331-.85.143-.541-.224-1.11-.758-1.238-.554-.133-1.096.218-1.24.758a1.96 1.96 0 0 1-.029.104v.002c-.045.107-.096.213-.144.317a5.24 5.24 0 0 0-.33.85c-.143.541.223 1.11.758 1.238.553.133 1.095-.218 1.238-.758.008-.035.019-.07.03-.103M55.917 112.418c.291-.478.053-1.138-.42-1.39-.513-.276-1.099-.058-1.39.419a8.876 8.876 0 0 0-1.012 2.415c-.326 1.285 1.672 1.763 1.997.48a6.897 6.897 0 0 1 .825-1.924M63.255 110.218v-.003c.046-.107.095-.212.144-.317.127-.275.254-.556.331-.85.142-.541-.224-1.11-.759-1.238-.553-.133-1.095.218-1.238.758a1.3 1.3 0 0 1-.03.103v.003c-.045.107-.095.212-.144.318a5.177 5.177 0 0 0-.33.85c-.144.54.223 1.109.758 1.237.553.133 1.095-.218 1.238-.759l.03-.102M60.559 116.45c.146-.54-.227-1.11-.759-1.237-.556-.134-1.093.218-1.238.758-.007.027-.016.054-.024.08l-.017.04c-.051.113-.112.223-.171.332-.135.244-.285.48-.433.718-.296.475-.05 1.14.42 1.39.516.277 1.094.055 1.39-.42.327-.525.668-1.056.832-1.66M67.026 113.15a1.036 1.036 0 0 0-.759-1.239 1.037 1.037 0 0 0-1.238.76l-.271 1.128c-.13.544.214 1.108.758 1.238a1.037 1.037 0 0 0 1.238-.758l.272-1.13zM65.017 121.103c.042-.083.09-.164.14-.244.124-.2.213-.423.273-.65.146-.54-.225-1.11-.758-1.238-.555-.134-1.092.218-1.238.759v.001c-.043.084-.091.164-.141.244-.124.2-.213.424-.274.65-.145.54.226 1.11.759 1.238.555.134 1.093-.218 1.238-.758v-.002zM63.064 124.948c-.04-.558-.47-1.017-1.049-1.006-.539.012-1.043.49-1.005 1.049.007.105.008.208.005.312l-.002.01c-.013.087-.038.171-.062.255.064-.22-.132.17-.084.14-.029.035-.057.07-.09.1a.609.609 0 0 0-.027.032.68.68 0 0 0-.078.046c-.47.307-.638.925-.34 1.412.287.467.944.645 1.412.34.912-.597 1.393-1.605 1.32-2.69M74.66 113.737c-.033-.56-.474-1.017-1.048-1.006-.544.01-1.038.49-1.006 1.048.005.055.007.11.006.165v.007L72.6 114a1.903 1.903 0 0 1-.04.154l-.004.013-.018.04c-.11.25-.262.484-.406.716-.296.475-.05 1.14.42 1.39.517.277 1.094.056 1.39-.42.408-.655.764-1.359.717-2.155M71.567 120.18c.347-1.28-1.652-1.756-1.997-.479-.2.736-.732 1.38-1.059 2.066-.241.504-.09 1.117.42 1.39.476.255 1.148.087 1.39-.42.411-.859.994-1.626 1.246-2.557"/>
        <g transform="translate(65.183 124.988)">
            <mask id="d" fill="#fff">
                <use xlink:href="#c"/>
            </mask>
            <path fill="#FF7900" d="M2.961 1.798c.35-.436.384-1.047-.048-1.452-.385-.36-1.101-.388-1.452.049C.846 1.162.553 2.04.154 2.923c-.23.51-.1 1.113.419 1.39.468.251 1.16.091 1.39-.42.312-.69.519-1.498.998-2.095" mask="url(#d)"/>
        </g>
        <path fill="#FF7900" d="M78.914 119.125c.353-.434.383-1.048-.047-1.452-.387-.361-1.1-.387-1.453.049-.656.81-1.105 1.73-1.54 2.671-.235.507-.096 1.115.419 1.39.471.253 1.155.09 1.39-.419.355-.766.696-1.579 1.231-2.239M57.747 122.095a1.69 1.69 0 0 0-.264-.758 1.036 1.036 0 0 0-1.412-.34c-.43.264-.596.81-.412 1.264a1.036 1.036 0 0 0 .76 1.22 1.037 1.037 0 0 0 1.24-.758c.048-.202.106-.42.088-.628M38.843 98.965a.877.877 0 0 0-1.047.642 8.354 8.354 0 0 1-.145.54 1.27 1.27 0 0 1-.053.106c-.343.278-.467.75-.224 1.147.237.388.804.556 1.195.287.573-.396.76-1.029.916-1.675a.878.878 0 0 0-.642-1.047M41.816 107.142c.121-.458-.19-.94-.642-1.048a.879.879 0 0 0-1.048.642l-.01.033c-.001-.004-.036.085-.052.115l-.031.05c-.02.03-.047.071-.058.085-.206.27-.41.541-.591.828-.255.4-.039.966.355 1.176.44.236.922.044 1.176-.355.263-.414.737-.908.9-1.526M46.367 110.793c-.492-.264-1.054-.057-1.333.402-.145.238-.274.485-.41.727-.107.19-.193.293-.354.4-.45.293-.612.885-.326 1.353.274.447.905.619 1.354.325.722-.472 1.039-1.163 1.472-1.875.278-.457.05-1.09-.403-1.332M51.53 120.066c.028-.395-.215-.774-.412-1.095a.994.994 0 0 0-1.354-.326.994.994 0 0 0-.325 1.354l.046.075c-.04.067-.081.132-.122.197-.283.455-.047 1.093.402 1.333.496.265 1.05.054 1.334-.402.225-.363.399-.701.43-1.136"/>
        <g transform="translate(71.95 125.99)">
            <mask id="f" fill="#fff">
                <use xlink:href="#e"/>
            </mask>
            <path fill="#FF7900" d="M2.155 2.468c.094-.154.178-.314.266-.47.012-.022.026-.044.04-.065.011-.014.025-.026.038-.04l.016-.01c.46-.302.627-.91.333-1.39-.28-.46-.927-.635-1.389-.334C.932.505.69.994.374 1.513.088 1.983.322 2.63.787 2.88c.505.27 1.082.058 1.368-.412" mask="url(#f)"/>
        </g>
        <path fill="#FF7900" d="M30.413 119.201a1.037 1.037 0 0 0-.758-1.238 1.036 1.036 0 0 0-1.238.758 7.45 7.45 0 0 1-.122.445c-.017.04-.075.193-.095.234-.057.12-.126.235-.195.35-.291.476-.052 1.136.42 1.389.514.275 1.099.058 1.39-.42.287-.47.47-.985.598-1.518M34.79 122.895c.265-.33.324-.791.087-1.179-.285-.463-.946-.65-1.413-.34-.203.137-.392.311-.496.538a1.8 1.8 0 0 0-.08.216 1.02 1.02 0 0 0-.086 1.179c.284.464.945.65 1.412.339.203-.136.392-.31.496-.537.034-.074.059-.145.08-.216"/>
        <g transform="translate(29.845 125.74)">
            <mask id="h" fill="#fff">
                <use xlink:href="#g"/>
            </mask>
            <path fill="#FF7900" d="M2.164 1.798l.023-.024-.005.005c.33-.334.431-.839.168-1.27C2.07.053 1.4-.146.938.172c-.534.37-.73.926-.876 1.532A1.036 1.036 0 0 0 .821 2.94a1.037 1.037 0 0 0 1.238-.759c.031-.129.065-.257.105-.384" mask="url(#h)"/>
        </g>
        <g transform="translate(36.862 124.988)">
            <mask id="j" fill="#fff">
                <use xlink:href="#i"/>
            </mask>
            <path fill="#FF7900" d="M3.293 1.6c.295-.475.049-1.14-.42-1.39-.518-.277-1.095-.056-1.39.42-.346.553-.64.99-1.051 1.485-.358.43-.378 1.052.048 1.451.39.366 1.094.382 1.452-.048.503-.605.945-1.252 1.36-1.918" mask="url(#j)"/>
        </g>
        <g transform="translate(54.155 127.995)">
            <mask id="l" fill="#fff">
                <use xlink:href="#k"/>
            </mask>
            <path fill="#FF7900" d="M2.255 10.662l.001-.012c.045-.425.095-.845.144-1.264.127-1.097.253-2.22.331-3.393.143-2.159-.224-4.427-.758-4.94C1.42.523.877 1.923.734 4.08c-.009.138-.019.28-.03.413v.01C.659 4.93.609 5.35.56 5.766A68.783 68.783 0 0 0 .23 9.16c-.143 2.159.223 4.428.758 4.94.553.53 1.095-.87 1.238-3.027.008-.14.019-.276.03-.41" mask="url(#l)"/>
        </g>
        <g transform="translate(47.64 125.99)">
            <mask id="n" fill="#fff">
                <use xlink:href="#m"/>
            </mask>
            <path fill="#FF7900" d="M2.105 2.447v-.003c.046-.107.096-.212.144-.317a5.25 5.25 0 0 0 .332-.85C2.723.736 2.356.167 1.822.039 1.27-.094.726.257.584.798A1.96 1.96 0 0 1 .554.9L.553.903c-.045.107-.095.213-.144.317a5.253 5.253 0 0 0-.33.85c-.143.541.224 1.11.758 1.238.554.133 1.095-.218 1.238-.759l.03-.102" mask="url(#n)"/>
        </g>
        <path fill="#FF7900" d="M45.676 119.224l.001-.003c.045-.107.095-.212.144-.317.127-.275.253-.557.331-.85.143-.542-.225-1.11-.759-1.239-.553-.132-1.095.219-1.238.76a1.96 1.96 0 0 1-.03.103v.002c-.045.107-.096.213-.144.317a5.25 5.25 0 0 0-.331.85c-.142.541.224 1.11.759 1.238.553.133 1.095-.218 1.238-.759.008-.034.019-.069.03-.102M43.517 124.453l.001-.003c.045-.106.095-.212.144-.317.127-.275.253-.556.331-.85.143-.541-.225-1.11-.759-1.238-.553-.133-1.096.218-1.238.759a1.96 1.96 0 0 1-.03.103v.002c-.045.108-.096.213-.144.317a5.271 5.271 0 0 0-.33.85c-.144.541.223 1.11.758 1.239.553.133 1.095-.219 1.238-.76.008-.034.019-.068.03-.102M37.281 118.858l.001-.003c.045-.107.095-.212.144-.317.127-.275.253-.557.331-.85.143-.542-.224-1.11-.758-1.239-.554-.132-1.096.219-1.239.76a1.96 1.96 0 0 1-.03.103v.002c-.045.107-.096.212-.144.317a5.271 5.271 0 0 0-.33.85c-.143.541.223 1.11.758 1.238.553.133 1.095-.218 1.238-.758.008-.035.019-.07.03-.103M36.227 111.22l.001-.004c.045-.106.095-.211.144-.316.127-.275.253-.557.331-.85.143-.542-.225-1.11-.759-1.239-.553-.133-1.096.218-1.238.759a1.96 1.96 0 0 1-.03.103v.003c-.045.107-.096.212-.144.316a5.271 5.271 0 0 0-.331.85c-.143.542.224 1.11.759 1.239.553.133 1.095-.218 1.237-.759.009-.035.02-.07.03-.103M30.553 114.45l.001-.003c.045-.106.095-.211.144-.316.127-.276.253-.557.33-.85.143-.542-.224-1.11-.758-1.239-.553-.133-1.096.219-1.238.76a1.96 1.96 0 0 1-.03.102v.003c-.046.107-.096.212-.144.317a5.262 5.262 0 0 0-.33.85c-.143.54.223 1.11.758 1.238.553.133 1.095-.218 1.238-.759.008-.035.019-.07.03-.103M33.196 106.951l.001-.003c.045-.106.095-.211.144-.316.127-.275.253-.557.331-.85.142-.542-.225-1.11-.759-1.239-.553-.133-1.096.219-1.238.76a1.96 1.96 0 0 1-.03.102v.003c-.045.107-.096.212-.144.317a5.26 5.26 0 0 0-.331.85c-.143.54.224 1.11.759 1.238.553.133 1.095-.218 1.237-.759.009-.035.02-.07.03-.103M24.962 123.542a.876.876 0 0 0-1.047.642 8.567 8.567 0 0 1-.145.54 1.268 1.268 0 0 1-.053.106c-.343.278-.468.75-.224 1.147.237.388.804.557 1.195.287.572-.396.76-1.028.916-1.675a.878.878 0 0 0-.642-1.047"/>
        <path fill="#714F47" d="M124.217 49.628c.871.089 1.754.423 2.613 1.067.398.3-7.328 13.847-10.739 11.002-4.329-3.615 3.838-12.5 8.126-12.069"/>
        <path fill="#714F47" d="M116.536 39.015c-1.996.82-4.329 2.36-5.573 1.658-1.795-1.013 3.218-4.82 4.122-5.687 1.478-1.418 3.185-2.727 4.57-4.247.879-.965 1.944-2.401 1.088-3.722-.897-1.385-2.463-.163-3.483.454-5.019 3.035-9.634 6.755-14.272 10.332-2.478 1.91-5.072 3.767-7.597 5.594-1.746 1.263-3.467 3.202-5.64 2.668-1.594-.39-3.47-2.392-4.637-.142-.674 1.3-.981 2.941-1.21 4.598-.202 1.473-.343 2.957-.621 4.223-.463 2.098-.205 4.21.072 6.312.307 2.338-1.049 9.693-1.049 9.693.996 3.383.808 6.451 4.74 6.861 3.335.349 7.206-.653 10.027-2.477 1.652-1.068 1.943-2.381 4.057-1.954 1.726.349 3.3 1.7 5.145 1.385 1.51-.257 2.57-2.578 3.39-3.74 2.044-2.904 8.021-8.685 6.43-12.524-1.364-3.293-2.05-3.393-.599-7.153 1.23-3.187 4.619-6.233 4.592-9.846-.025-3.193-1.632-3.074-3.552-2.286M116.793 18.545a21.232 21.232 0 0 0-1.452 2.037c-.95 1.526-1.376 4.445-3.401 5.018-2.152.605-3.192-3.357-3.542-4.86-.822-3.536 2.444-6.015 5.184-7.672 3.023-1.826 5.78-1.319 7.325 1.87-1.445.688-2.927 2.133-4.114 3.607"/>
        <path fill="#714F47" d="M117.865 38.807l-.91 1.626c.028.367.885 4.744 1.168 4.63 2.373-.962 4.867-3.962 3.884-6.575-.438-1.166-2.602-4.035-4.032-2.467-.709.778.325 1.995-.11 2.786"/>
        <path fill="#838080" d="M107.735 3.093c-2.626-1.556-5.507-1.125-8.824-.725-3.39.409-7.853.878-11.247 1.23-3.281.34-6.768.683-10.042 1.092-2.912.365-7.859.852-10.146 2.854-2.04 1.786-2.775 5.341-2.831 7.997-.115 5.375 1.203 10.654 1.888 15.958.845 6.536 1.45 12.616 2.144 19.171.516 4.876 1.278 11.296 2.031 16.14.638 4.103.72 7.214 1.395 11.31.487 2.96.186 6.831 3.279 8.755 1.934 1.203 4.822 1.378 6.998 1.302 3.45-.121 6.847-.815 10.279-1.142 4.002-.38 7.957-1.038 11.908-1.77 3.472-.642 7.852-.335 11.002-1.935 3.577-1.816 4.196-5.635 3.819-9.813-1.434-15.897-4.182-31.763-5.415-47.58-.34-4.362-1.298-8.857-2.033-13.249-.614-3.665-.56-7.436-4.205-9.595"/>
        <path fill="#FFF" d="M104.272 9.202c-5.993.871-12.075 1.18-18.048 2.15-4.524.734-9.36.123-13.72 1.758-5.56 2.085-5.786 7.17-5.166 12.402l1.115 9.395 2.627 22.142 1.46 12.303c.398 3.356-.202 7.546 1.847 10.469.245.35.51.638.795.875 2.196 1.827 5.459.536 8.222.209l22.187-2.633 11.792-1.399-.006-.051-3.443-29.022c-1.323-11.148-2.576-22.27-3.54-33.44-.353-4.085-1.917-5.77-6.122-5.158"/>
        <path fill="#1B2734" d="M74.583 5.123c-.497-.203-1.333-.347-2.773-.014-.555.128-1.061.372-1.382.639.044.371.018.842.516 1.072.39.18 1.413.213 1.88.15.566-.078.995-.2 1.457-.472.676-.396.304-.888.302-1.375"/>
        <path fill="#000" d="M71.5 5.022c-.725.196-1.252.97-.163 1.098h.001c1.387.164 2.033-.716 1.546-1.074-.219-.161-.668-.217-1.383-.024M111.038 74.664c-2.336.261-25.97 3.13-28.794 3.474-7.696.939-7.319-4.772-7.441-5.82-.232-1.995-.267-2.265-.455-3.84l-2.045-17.214-.447-3.764-.507-4.27c-.3-2.53-2.526-21.279-2.846-23.807-.593-4.684 3.402-5.618 5.389-5.858 2.27-.273 4.203-.488 6.474-.76 4.885-.584 9.772-1.163 14.659-1.742 3.339-.395 4.853-.567 8.191-.965 2.801-.334 5.533-.227 6.07 4.272.194 1.636.246 1.95.447 3.585.389 3.143 5.761 48.43 6.107 51.246.117.946.728 4.844-4.802 5.463M102.24 4.406c-6.834.815-25.165 2.823-30.628 3.475-7.232.862-5.88 9.897-5.675 12.413.074.914 2.941 24.962 5.024 42.408 1.174 9.826 2.098 17.558 2.135 17.878.853 7.45 4.717 8.249 9.58 7.67 5.3-.633 20.864-2.49 26.165-3.121 10.938-1.304 10.537-4.363 9.74-11.052-.257-2.154-1.56-13.744-2.952-26.06-1.398-12.39-2.884-25.514-3.478-30.495-.08-.667-.135-1.348-.19-2.026-.389-4.76-1.194-12.107-9.72-11.09"/>
        <path fill="#000" d="M94.508 7.133c-1.568.21-2.337.395-3.512.495-1.142.098-4.297.506-6.72.815-.558.071-6.22.278-4.143 1.798.598.437 1.893.063 2.565.018 1.68-.112 3.962-.438 5.988-.672 2.23-.257 3.452-.405 6.099-.726 2.234-.271 1.504-1.966-.277-1.728"/>
        <path fill="#81C8A6" d="M74.188 69.585l.043.405h.008a1.558 1.558 0 0 1-.032-.307v-.1a.397.397 0 0 0-.019.002"/>
        <path fill="#838080" d="M102.326 79.421c-1.051-.152-2.375-.028-3.3.003-.85.029-3.178.368-4.967.62-.753.108-5.323.379-3.164 2.726.515.56 1.635.489 2.22.497 1.254.018 2.934-.287 4.433-.452 1.65-.181 2.554-.294 4.508-.538 1.654-.208 2.524-2.53.27-2.856"/>
        <path fill="#714F47" d="M110.182 25.24c-.255-.997-.267-2.049.037-3.062 3.236.302 13.388 2.007 10.495 7.405-2.416 4.508-9.705-1.115-10.532-4.342M111.27 36.596c-.256-.997-.267-2.049.036-3.061 3.237.3 13.388 2.006 10.496 7.404-2.416 4.509-9.706-1.115-10.532-4.343"/>
        <path fill="#66413E" d="M115.095 24.317c-1.181 2.16-3.558-.575-4.41-1.695-.336-.444-1.026.076-.689.52.763 1.004 1.677 1.98 2.808 2.562.516.266 1.13.393 1.696.235.651-.183 1.075-.706 1.387-1.277.268-.49-.527-.83-.792-.345M115.538 36.384c-.972 1.158-2.903-.423-3.632-1.176-.382-.395-1.077.12-.69.52 1.158 1.197 3.561 2.906 5 1.191.36-.427-.32-.96-.678-.535"/>
        <path fill="#714F47" d="M71.733 27.361c-1.295 3.729-4.079 6.63-6.829 9.402-2.085 2.103-5.41 3.985-7.068 6.487-.61 6.099-3.506 11.858-7.29 16.732-.274.739-.445 1.5-.449 2.292 0 .156.002.315.004.473.119 6.31.04 15.92.412 22.241 4.676 2.437 4.936 2.714 8.983 5.116.554-.35.82-3.51 1.351-3.902 1.626-1.2 2.955-2.693 4.696-3.744 1.059-.64 2.556-1.017 3.38-1.991 2.101-2.483.707-7.658.58-10.614-.208-4.8.567-9.849-.003-14.606-.449-3.742-.056-6.493 2.109-9.83.196-.301.51-.568.843-.83.384-.3.794-.595 1.08-.93 1.254-1.459 2.032-3.514 2.278-5.46.43-3.388-.037-9.556-4.077-10.836"/>
        <path fill="#66413E" d="M73.06 32.643c-.281 1.06-1.009 1.91-2.063 2.243-.994.314-2.063-.097-2.72-.866-.36-.42-1.053.096-.69.521.879 1.027 2.204 1.535 3.536 1.199 1.454-.368 2.417-1.557 2.791-2.967.143-.54-.713-.662-.854-.13"/>
        <g transform="translate(99.519 64.085)">
            <mask id="p" fill="#fff">
                <use xlink:href="#o"/>
            </mask>
            <path fill="#714F47" d="M47.32 94.428h18.91c1.952-.915 3.874-1.771 5.759-2.314 3.407-.983 6.33-.897 9.268-3.018.03-.022.06-.042.092-.063a339.029 339.029 0 0 1-.29-9.866 34.214 34.214 0 0 1-.105-1.756c-.165-.2-.244-.473-.245-.76-.006-1.181-.047-2.366-.074-3.552-3.75-7.779-7.812-16.603-10.525-24.74-2.101-6.302-4.41-13.16-7.869-18.817-1.07-1.75-2.15-2.57-4.221-2.797-1.491-.164-2.456.24-3.72-.761-.792-.627-1.772-1.866-2.65-2.455-2.218-1.487-4.37.39-6.67.75-2.745.428-3.43-2.076-6.31-1.786-3.221.325-5.383 3.047-8.748 2.293-3.09-.692-5.228-3.283-7.17-5.615-2.088-2.51-6.152-8.575-8.321-11.013-.54-.607-4.642-8.134-4.885-8.07C5.2 1.226 5.863 8.718 6.372 12.003c.868 5.606 4.743 10.9 7.733 15.6 3.658 5.75 10.255 14.366 10.42 21.431.212 9.047-9.687.638-13.514.624C6.862 49.643.56 49.695.248 55.942c3.368.608 6.669.906 9.124 3.435 4.358 4.489 8.46 9.38 14.124 12.357 4.368 2.297 9.353 3.516 13.352 6.502 4.78 3.567 7.772 10.173 10.16 15.468.113.25.214.49.311.724" mask="url(#p)"/>
        </g>
        <path fill="#66413E" d="M110.476 70.759c-1.047.696-2.263-.324-2.587-1.344-.175-.552-1.044-.312-.868.243.494 1.552 2.356 2.913 3.912 1.877.481-.32.028-1.1-.457-.776M105.675 119.662c-.083-1.292-1.781-1.468-2.89-.973a.454.454 0 0 1-.361-.829c1.687-.753 4.111-.336 4.233 1.585.038.593-.944.816-.982.217"/>
        <g>
            <path fill="#B7B7B7" d="M95.53 57.62l-.79-7.286a.77.77 0 0 0-.846-.68l-2.416.261a.77.77 0 0 0-.68.846l.397 3.672-2.652.287.209 1.937 2.653-.287.182 1.677a5.31 5.31 0 1 0 3.942-.427M101.541 31.018s-.473-15.049-11.63-14.935c-11.159.114-9.795 10.746-9.795 10.746l1.935-.31s-1.62-7.597 5.94-8.958c7.695-1.386 10.666 4.768 11.486 13.681l2.064-.224z"/>
            <path fill="#B7B7B7" d="M85.796 17.472c-1.197.455-2.19 1.13-2.97 2.024-1.913 2.188-2.094 5.176-2.065 6.529l.507-.081c-.126-1.215-.164-3.737 1.269-5.871.778-1.16 1.87-2.03 3.259-2.601m14.3 13.006l.71-.076c-.106-1.211-.453-3.962-1.55-6.666-1.204-2.966-2.913-4.993-5.106-6.064.324.179.634.382.932.608 2.719 2.069 4.362 6.063 5.014 12.198m1.52 1.229l-2.065.223a.692.692 0 0 1-.764-.625c-.268-2.92-.763-5.384-1.472-7.321-.76-2.082-1.794-3.63-3.071-4.602-1.604-1.22-3.61-1.594-6.13-1.14-2.023.365-3.513 1.24-4.428 2.603-1.603 2.387-.965 5.499-.958 5.53a.693.693 0 0 1-.567.828l-1.936.31a.689.689 0 0 1-.795-.596c-.026-.2-.596-4.946 2.345-8.323 1.82-2.089 4.554-3.167 8.128-3.203 4.87-.05 8.553 2.667 10.649 7.858 1.541 3.818 1.676 7.59 1.68 7.748a.692.692 0 0 1-.616.71"/>
            <path fill="#4E251C" d="M102.561 51.51l-19.423 2.103a4.18 4.18 0 0 1-4.592-3.695l-1.663-15.35a4.18 4.18 0 0 1 3.695-4.593L100 27.872a4.18 4.18 0 0 1 4.592 3.694l1.663 15.35a4.18 4.18 0 0 1-3.695 4.593"/>
            <path fill="#CE4A37" d="M103.103 51.45l-18.466 2a4.18 4.18 0 0 1-4.592-3.694l-1.663-15.35a4.18 4.18 0 0 1 3.695-4.593l18.466-2a4.18 4.18 0 0 1 4.592 3.695l1.663 15.35a4.18 4.18 0 0 1-3.695 4.592"/>
            <path fill="#DC891A" d="M99.576 40.707a6.675 6.675 0 1 1-13.273 1.438 6.675 6.675 0 0 1 13.273-1.438"/>
            <path fill="#FFB327" d="M98.759 40.796a6.675 6.675 0 1 1-13.273 1.437 6.675 6.675 0 0 1 13.273-1.437"/>
            <path fill="#DC891A" d="M97.627 62.195a3.369 3.369 0 1 1-6.698.726 3.369 3.369 0 0 1 6.698-.726"/>
            <path fill="#F1F1F1" d="M97.215 62.24a3.369 3.369 0 1 1-6.699.725 3.369 3.369 0 0 1 6.699-.725"/>
            <path fill="#F1F1F1" d="M93.507 59.288a3.337 3.337 0 0 0-2.956 3.673 3.337 3.337 0 0 0 3.674 2.956 3.338 3.338 0 0 0 2.956-3.674 3.338 3.338 0 0 0-3.674-2.955m.725 6.698a3.407 3.407 0 0 1-3.75-3.017 3.407 3.407 0 0 1 3.017-3.75 3.407 3.407 0 0 1 3.75 3.017 3.407 3.407 0 0 1-3.017 3.75"/>
            <path fill="#FFDD4D" d="M100.76 69.775a9.423 9.423 0 0 1-2.066-1.744c-.27-.306-.788.071-.515.38a9.983 9.983 0 0 0 2.18 1.862c.346.216.75-.28.402-.498M102.777 66.336a18.769 18.769 0 0 1-2.328-.75c-.383-.15-.645.433-.262.585.812.32 1.642.585 2.488.797.4.1.499-.533.102-.632M102.887 61.138l-2.277.359c-.405.064-.339.7.07.636l2.275-.359c.406-.064.34-.7-.068-.636M89.513 67.696a9.684 9.684 0 0 0-2.672 1.792c-.295.28.082.798.38.514a9.18 9.18 0 0 1 2.527-1.712c.373-.169.14-.766-.235-.594M87.4 64.36a16.841 16.841 0 0 0-2.427.085c-.335.036-.279.557.056.52.76-.083 1.523-.115 2.287-.088.332.011.42-.505.084-.517M87.87 60.43c-.332-.247-.738-.388-1.114-.554l-1.277-.564c-.377-.167-.639.417-.262.584l1.166.515c.356.157.772.284 1.086.517.33.245.733-.253.401-.499M100.87 56.8c-.847.458-1.651.978-2.408 1.572-.323.254.055.77.38.515a16.004 16.004 0 0 1 2.263-1.492c.357-.194.127-.791-.236-.595M97.243 72.09l-.633-2.514c-.107-.427-.745-.171-.638.253l.632 2.514c.108.427.746.171.639-.253M92.78 69.578l-.242 2.412c-.044.439.634.55.678.11l.242-2.412c.044-.438-.634-.55-.678-.11"/>
        </g>
    </g>
</svg>
