<svg xmlns="http://www.w3.org/2000/svg" xmlns:xlink="http://www.w3.org/1999/xlink" width="162" height="170" viewBox="0 0 162 170">
    <defs>
        <path id="a" d="M10.435 1.502c-1.355 1.12-2.076 2.754-2.164 4.9L.24 121.88c.085 2.258.615 3.84 1.59 4.743.976.903 2.54 1.263 4.695 1.077l98.457-14.367c2.108-.625 3.628-1.635 4.563-3.03.934-1.395 1.228-3.095.882-5.1L95.962 17.446c-.36-2.113-1.098-3.672-2.213-4.677-1.674-1.506-2.1-1.722-5.436-2.206L15.933.063c-.29-.02-.574-.03-.85-.03-1.915 0-3.464.49-4.648 1.469z"/>
    </defs>
    <g fill="none" fill-rule="evenodd">
        <path fill="#EE8031" d="M92.774 133.089c-12.87.836-25.941-2.508-36.966-9.202-11.45-6.95-20.857-17.827-24.27-30.781-1.29-4.9-1.718-9.98-1.944-15.038-.492-10.605-.06-21.626 4.584-31.168 1.407-2.899 3.172-5.584 5.197-8.08.22-.272.45-.536.677-.803-.366.315-.734.627-1.092.95-.201.176-.4.357-.596.546a53.309 53.309 0 0 0-5.4 5.718c-2.025 2.496-3.79 5.18-5.197 8.08-4.643 9.542-5.076 20.563-4.584 31.168.227 5.059.656 10.138 1.946 15.038 3.411 12.953 12.819 23.831 24.268 30.78 11.025 6.694 24.097 10.039 36.966 9.202 12.874-.836 25.47-5.886 35.19-14.365a55.721 55.721 0 0 0 5.746-5.844c-9.625 8.136-21.942 12.982-34.525 13.799"/>
        <path fill="#4BB4E6" d="M88.899 14.486c-2.47-1.54-6.179-1.162-8.959-1.01a71.29 71.29 0 0 0-9.605 1.189c-6.553 1.262-12.867 3.47-18.749 6.623-11.047 5.92-20.236 14.69-26.773 25.387a67.266 67.266 0 0 0-4.593 8.935c-1.286 3.05-2.814 6.421-2.895 9.777-.016.647.91.899 1.223.331 1.306-2.366 1.945-5.069 2.967-7.565a68.846 68.846 0 0 1 4.099-8.332A65.47 65.47 0 0 1 36.3 35.995c8.837-8.754 20.047-14.699 32.139-17.528a65.544 65.544 0 0 1 10.792-1.604c3.08-.195 6.803.383 9.668-.88.627-.277.5-1.186 0-1.497M140.9 105.569c-.047-.443-.544-.706-.897-.372-2.115 2.007-3.122 5.531-4.548 8.07a63.506 63.506 0 0 1-5.656 8.404c-4.007 5.038-8.802 9.461-14.204 12.967-5.924 3.844-12.57 6.496-19.461 8.002a61.493 61.493 0 0 1-16.14 1.333c-1.806-.091-3.609-.465-5.386-.008-1.032.266-1.228 1.757-.298 2.28 2.95 1.66 7.48 1.22 10.76 1.114a61.82 61.82 0 0 0 11.224-1.413c7.384-1.62 14.463-4.627 20.786-8.767a62.712 62.712 0 0 0 15.147-14.002 58.88 58.88 0 0 0 5.528-8.566c1.349-2.546 3.462-6.07 3.145-9.042"/>
        <path fill="#44ADAC" d="M125.983 31.437c-3.557-4.528-9.093-8.138-14.157-10.743a65.953 65.953 0 0 0-7.86-3.416c-2.365-.85-5.562-2.221-8.087-1.51-.464.13-.7.796-.301 1.138 1.764 1.512 4.535 1.926 6.684 2.707a48.275 48.275 0 0 1 7.993 3.769 58.838 58.838 0 0 1 6.953 4.78c2.236 1.79 4.16 3.866 6.303 5.747 1.728 1.516 3.842-.728 2.472-2.472M69.097 142.016c-2.995-.642-6.155-.51-9.19-1.131-3.162-.646-6.294-1.586-9.26-2.861-5.792-2.49-10.869-6.296-15.84-10.113-.607-.467-1.395.425-1.02 1.022 3.621 5.772 9.328 9.83 15.447 12.656 3.073 1.418 6.263 2.56 9.569 3.298 3.193.712 7.047 1.493 10.294.88 1.88-.355 1.83-3.358 0-3.75"/>
        <path fill="#5B8" d="M111.413 13.043c-.586-2.973-5.442-4.046-7.89-4.807-3.55-1.103-7.2-1.826-10.89-2.257a57.879 57.879 0 0 0-10.944-.233c-3.303.242-7.502.344-10.234 2.417-.583.442-.667 1.57.229 1.746.722.141 1.46.194 2.206.193-.009.159.086.324.292.324.209 0 .303-.173.29-.335 2.285-.083 4.63-.61 6.852-.725a55.624 55.624 0 0 1 10.786.475 56.64 56.64 0 0 1 9.936 2.38c2.467.83 6.29 3.33 8.883 2.012.436-.222.571-.749.484-1.19M92.303 153.465c-3.155-.912-6.722-.423-9.977-.491-3.431-.072-6.857-.336-10.247-.877-3.328-.531-6.615-1.22-9.86-2.13-3.342-.937-6.607-2.21-10.033-2.801-.947-.164-2.036 1.083-1.073 1.843 5.493 4.336 13.452 6.085 20.248 7.085 3.63.535 7.295.866 10.965.886 3.347.018 7.232.059 10.228-1.59.81-.444.6-1.68-.251-1.925M29.399 119.825c-.345-1.694-1.856-2.989-2.858-4.342a47.715 47.715 0 0 1-3.064-4.704 48.5 48.5 0 0 1-4.468-10.572c-2.145-7.395-2.326-14.887-1.656-22.504.079-.9-1.284-1.02-1.528-.207-2.313 7.67-1.767 16.18.403 23.82a51.762 51.762 0 0 0 4.562 11.034 48.372 48.372 0 0 0 3.203 5.003c1.09 1.49 2.175 3.289 4 3.878.883.284 1.57-.6 1.406-1.406M146.615 67.162c-2.01-8.127-5.865-17.46-12.563-22.856-.363-.293-.902.065-.665.513 1.933 3.658 4.246 7.068 6.029 10.82 1.872 3.94 3.37 8.055 4.37 12.302a57.219 57.219 0 0 1 1.546 12.587 56.016 56.016 0 0 1-.267 6.035c-.205 2.072-.823 4.16-.373 6.23.192.882 1.318.852 1.764.23 1.187-1.656 1.294-3.822 1.513-5.792.247-2.225.359-4.465.337-6.703a58.15 58.15 0 0 0-1.691-13.366"/>
        <path fill="#FFD200" d="M143.613 40.35c-1.193-2.361-2.653-4.604-4.238-6.721-2.966-3.962-6.67-8.21-11.282-10.246-.736-.325-1.862.423-1.258 1.257 2.87 3.968 6.848 7.013 9.727 11.031 1.413 1.973 2.65 4.047 3.783 6.19.982 1.86 1.845 4.326 3.634 5.546.477.326 1.18-.004 1.316-.535.553-2.163-.726-4.628-1.682-6.521M38.422 141.31c-1.712-2.563-4.977-4.232-7.268-6.27a63.394 63.394 0 0 1-7.112-7.455c-2.139-2.64-4.046-5.459-5.794-8.37-1.753-2.922-3.139-6.104-5.044-8.924-.401-.594-1.59-.455-1.498.406.72 6.742 5.052 13.46 9.139 18.682a64.28 64.28 0 0 0 7.215 7.815c2.362 2.16 5.553 5.512 8.818 6.124 1.076.202 2.26-.935 1.544-2.008M20.611 41.96c-2.738 1.482-4.546 4.737-6.027 7.358a50.725 50.725 0 0 0-3.857 8.556c-1.04 3.054-1.747 6.218-2.182 9.414-.386 2.838-1.051 6.433.115 9.14.361.838 1.486.44 1.743-.228 1.018-2.645.621-6.008 1.098-8.81a51.103 51.103 0 0 1 2.297-8.67 50.17 50.17 0 0 1 3.888-8.389c1.405-2.404 3.42-4.657 4.275-7.332.255-.795-.675-1.404-1.35-1.038M155.254 87.167c-.106-1.048-1.79-1.5-2.009-.272-1.107 6.223-2.226 12.476-4.078 18.529-.958 3.134-2.157 6.16-3.521 9.14-1.229 2.683-3.065 5.43-3.493 8.382-.086.593.49 1.227 1.097.843 2.606-1.648 4.158-4.718 5.53-7.393 1.522-2.965 2.779-6.103 3.844-9.258 2.173-6.438 3.312-13.191 2.63-19.97"/>
        <path fill="#EE8031" d="M150.77 58.144c-.727-2.043-1.436-4.153-2.512-6.043-.508-.892-1.649-.233-1.53.645.319 2.344 1.13 4.625 1.848 6.872.595 1.864 1.074 3.906 2.446 5.356.49.518 1.225.076 1.289-.533.224-2.146-.835-4.312-1.54-6.297M44.24 18.628c-1.932.685-3.616 2.161-5.255 3.375a102.3 102.3 0 0 0-5.233 4.12c-3.57 3.021-6.632 6.29-9.556 9.925-.392.488.213 1.125.696.696 3.248-2.883 6.642-5.68 10.023-8.41a121.962 121.962 0 0 1 5.367-4.111c1.664-1.197 3.67-2.19 5.069-3.688.728-.78.021-2.307-1.11-1.907M126.878 138.398c-2.04.701-3.724 2.219-5.546 3.344a40.565 40.565 0 0 1-6.22 3.146c-4.147 1.659-8.736 2.622-13.106 3.418-.865.158-.567 1.364.194 1.434 4.996.466 9.64-.527 14.304-2.416 3.769-1.527 9.33-3.878 11.356-7.649.337-.626-.229-1.536-.982-1.277M11.016 103.547c-.572-1.116-1.037-2.32-1.283-3.552-.193-.965 0-2.141-.745-2.876a.569.569 0 0 0-.789 0c-.884.829-.484 2.314-.244 3.366a10.51 10.51 0 0 0 1.73 3.84c.57.801 1.791.118 1.331-.778"/>
        <path fill="#FFB4E6" d="M161.803 75.64c-.504-5.69-1.684-12.184-4.863-17.044-.509-.778-1.699-.288-1.494.63 1.263 5.656 3.11 10.947 3.566 16.787.213 2.737.22 5.489.017 8.227-.193 2.616-1.02 5.363-.395 7.954.113.47.841.73 1.169.309 1.652-2.127 1.79-4.915 2.012-7.517.265-3.107.264-6.24-.012-9.346M28.745 20.13c-2.819.88-5.43 3.295-7.556 5.27-2.298 2.135-4.38 4.52-6.298 7-3.814 4.93-7.135 10.464-8.467 16.584-.138.634.738 1.061 1.08.455 3.022-5.361 5.818-10.847 9.692-15.68 1.828-2.282 3.833-4.388 5.943-6.41 2.103-2.014 4.707-3.781 6.462-6.106.406-.537-.265-1.298-.856-1.113M52.91 157.426c-2.318-1.757-4.913-2.616-7.566-3.77-2.707-1.176-5.385-2.426-7.95-3.89-4.565-2.604-9.344-5.852-12.567-10.075-.515-.676-1.674-.055-1.173.685 3.167 4.687 6.923 8.432 11.789 11.375 2.719 1.645 5.576 3.059 8.492 4.316 2.841 1.226 5.508 2.424 8.607 2.717.806.076.87-.977.368-1.358M65.428 4.954c-3.27-2.105-8.424-.931-11.933 0-1.942.516-3.83 1.25-5.64 2.12-1.67.804-4.115 1.849-4.873 3.64-.22.521.022 1.221.69 1.2 1.58-.049 2.933-1.119 4.325-1.801a33.144 33.144 0 0 1 5.944-2.21c1.932-.524 3.883-.827 5.875-1.004 1.846-.165 3.728-.101 5.464-.811.487-.2.628-.825.148-1.134M139.826 134.479c-.029-.513-.612-.96-1.097-.63-1.587 1.08-2.515 2.869-3.569 4.435a40.276 40.276 0 0 1-4.276 5.357c-3.14 3.288-6.82 5.781-10.598 8.261-1.021.67-.398 2.565.88 2.088 4.443-1.657 8.338-4.595 11.636-7.965a42.887 42.887 0 0 0 4.45-5.376c1.245-1.774 2.698-3.92 2.574-6.17M121.896 15.443c-.983-1.064-2.187-1.785-3.527-2.307-1.298-.507-2.238 1.69-.956 2.268 1.254.563 2.162 1.382 3.111 2.351.548.559 1.736 2.342 2.578 1.226.724-.96-.562-2.84-1.206-3.538"/>
        <path fill="#A885D8" d="M130.344 12.764a44.223 44.223 0 0 0-6.69-5.223c-4.52-2.88-10.587-5.885-16.094-5.49-.706.05-1.19 1.132-.403 1.486 2.34 1.05 4.846 1.687 7.244 2.588 2.622.984 5.136 2.27 7.509 3.755a40.465 40.465 0 0 1 6.383 4.935c1.737 1.646 3.265 4.267 5.53 5.15.495.192 1.131-.306 1.085-.827-.224-2.541-2.817-4.715-4.564-6.374M151.19 42.954c-.858-.913-2.403.25-1.967 1.344.494 1.236 1.133 2.4 1.534 3.676.385 1.225.547 2.39 1.441 3.36.44.476 1.222.188 1.485-.302 1.277-2.383-.847-6.328-2.494-8.078M6.072 105.48a70.869 70.869 0 0 1-1.446-5.002 67.22 67.22 0 0 1-1.834-11.01c-.588-7.352-.18-15.114 1.299-22.348.141-.693-.844-.973-1.064-.293C1.832 70.534.882 74.06.412 77.947c-.476 3.935-.523 7.94-.227 11.892.286 3.824.867 7.646 1.784 11.371.786 3.193 1.6 7.721 4 10.127.533.535 1.5.14 1.496-.62-.011-1.827-.827-3.525-1.393-5.237M91.915 1.987C90.39.387 87.465.391 85.373.255c-2.464-.16-4.95-.035-7.236.961-.466.204-.153.796.229.844 2.322.295 4.675.129 7.007.318 1.984.16 4.354 1.123 6.295.547a.568.568 0 0 0 .247-.938M5.873 54.961c-.124-.428-.642-1.024-1.16-.958-1.388.178-1.62 1.574-1.921 2.746-.275 1.064-.487 2.357.198 3.304.23.318.593.44.956.251 1.219-.632 1.543-2.097 1.764-3.336.11-.611.34-1.39.163-2.007M106.072 157.388c-1.7-.297-3.3.628-4.91 1.106-2.109.626-4.27 1.173-6.441 1.532-2.178.36-4.395.543-6.603.564-2.009.019-4.057-.187-6.022.315-.487.124-.565.813-.139 1.061 3.576 2.08 8.854 1.364 12.754.777 2.31-.347 4.586-.868 6.777-1.684 1.713-.639 3.952-1.21 4.908-2.875.16-.279.029-.734-.324-.796M135.474 127.337c-.087-.363-.495-.47-.796-.324-1.174.57-1.75 1.71-2.478 2.722-.76 1.057-1.703 1.905-2.065 3.187-.147.52.333.897.812.812 1.479-.264 2.408-1.464 3.267-2.608.834-1.111 1.604-2.345 1.26-3.79M62.145 10.07c-1.454-.08-2.723.498-4.021 1.08-1.332.596-2.908 1.086-3.916 2.177-.484.523-.154 1.43.592 1.429 1.411-.002 2.743-.745 4.018-1.292 1.388-.594 2.783-1.124 3.772-2.319.35-.423.126-1.045-.445-1.076M9.22 80.404c-.273-.322-.897-.321-1.17 0-.797.94-.763 2.267-.766 3.45-.003 1.102.013 2.402.979 3.094.195.14.55.14.745 0 .963-.69.982-1.994.98-3.094-.004-1.184.03-2.509-.767-3.45"/>
        <path fill="#EE8031" d="M57.003 58.424c5.403-6.153 12.772-10.52 20.726-12.464 8.26-2.02 17.367-1.36 24.714 2.924 2.779 1.62 5.251 3.708 7.624 5.877 4.982 4.54 9.735 9.682 11.935 16.05.67 1.934 1.083 3.931 1.294 5.96.023.222.038.444.056.665.023-.305.049-.61.064-.916.012-.17.02-.34.023-.513.07-1.67.032-3.34-.143-4.99-.211-2.03-.625-4.028-1.294-5.961-2.2-6.368-6.953-11.51-11.935-16.05-2.373-2.17-4.845-4.258-7.624-5.878-7.347-4.284-16.454-4.944-24.714-2.924-7.954 1.945-15.323 6.312-20.726 12.465-5.404 6.154-8.791 14.077-9.348 22.246a35.352 35.352 0 0 0 .044 5.203c.668-7.973 4.022-15.678 9.304-21.694"/>
        <path fill="#4BB4E6" d="M111.988 109.93c1.799-.419 3.295-2.253 4.475-3.569a45.26 45.26 0 0 0 3.778-4.846 41.95 41.95 0 0 0 5.444-11.39c2.301-7.618 2.49-15.68.622-23.417a42.7 42.7 0 0 0-1.95-6.073c-.791-1.946-1.619-4.146-3.089-5.689-.283-.297-.812.006-.698.401.476 1.648 1.403 3.148 2.065 4.728a43.7 43.7 0 0 1 1.9 5.58 41.571 41.571 0 0 1 1.41 11.005c-.038 7.897-2.401 15.598-6.56 22.297a41.63 41.63 0 0 1-4.124 5.565c-1.295 1.47-3.227 2.882-3.945 4.735-.158.406.308.757.672.672M47.753 92.384c.22.178.56.073.57-.236.048-1.85-1.082-3.884-1.581-5.664a40.327 40.327 0 0 1-1.235-6.312c-.462-4.061-.296-8.199.556-12.198.934-4.385 2.726-8.56 5.144-12.33a39.045 39.045 0 0 1 6.647-7.843c.852-.77 1.83-1.411 2.422-2.414.344-.584-.238-1.34-.89-1.158-2.07.579-3.906 2.81-5.33 4.33a39.26 39.26 0 0 0-4.405 5.673A39.713 39.713 0 0 0 44.255 67.5a39.821 39.821 0 0 0-.514 13.086c.27 2.146.728 4.26 1.364 6.327.538 1.749 1.171 4.28 2.648 5.471"/>
        <path fill="#44ADAC" d="M87.73 118.968c3.63.435 7.735-.43 11.178-1.533a41.905 41.905 0 0 0 5.062-1.995c1.443-.68 3.494-1.5 4.308-2.953.15-.267-.043-.672-.376-.646-1.47.113-2.9 1.171-4.216 1.786a30.653 30.653 0 0 1-5.28 1.896c-1.73.45-3.49.778-5.266.976-1.808.2-3.604.131-5.41.25-1.457.094-1.398 2.05 0 2.219M63.625 43.787c1.633-1.056 2.993-2.534 4.634-3.618a30.25 30.25 0 0 1 5.441-2.872c3.718-1.483 7.706-2.053 11.65-2.57.483-.064.436-.818 0-.918-4.217-.965-8.6-.225-12.616 1.253-2.016.743-3.961 1.663-5.777 2.816-1.753 1.113-3.833 2.493-5.016 4.225-.685 1.004.686 2.33 1.684 1.684"/>
        <path fill="#5B8" d="M102.528 120.684c1.598 1.072 4.26-.626 5.7-1.384 2.09-1.098 4.052-2.412 5.902-3.876a36.766 36.766 0 0 0 5.018-4.808c1.374-1.591 3.213-3.522 3.509-5.68.063-.46-.406-1.004-.886-.68a7.266 7.266 0 0 0-1.078.903c-.067-.075-.184-.106-.276-.014-.094.094-.059.214.02.28-.988 1.064-1.804 2.353-2.75 3.402a35.301 35.301 0 0 1-5.056 4.629 35.952 35.952 0 0 1-5.528 3.392c-1.48.735-4.32 1.329-4.892 3.085-.096.295.08.592.317.751M48.068 49.065c1.825-1.007 3.207-2.828 4.7-4.258 1.572-1.508 3.228-2.928 4.993-4.207a55.559 55.559 0 0 1 5.382-3.47c1.921-1.08 3.958-1.974 5.762-3.246.499-.352.427-1.4-.346-1.31-4.412.52-8.77 3.308-12.27 5.91-1.87 1.39-3.664 2.886-5.32 4.524-1.511 1.495-3.274 3.221-3.88 5.306-.162.563.486 1.023.979.751M91.409 35.928c.915.606 2.175.508 3.232.666 1.176.176 2.34.424 3.488.736a30.805 30.805 0 0 1 6.752 2.74c4.282 2.358 7.727 5.64 10.846 9.36.368.44 1.033-.119.779-.593-2.406-4.482-6.471-8.057-10.875-10.513a32.861 32.861 0 0 0-7.001-2.905 30.704 30.704 0 0 0-3.684-.809c-1.158-.179-2.453-.5-3.537.056-.524.268-.435.973 0 1.262M62.43 112.192c4.55 2.745 10.47 5.205 15.9 4.62.295-.031.375-.433.068-.528-2.51-.774-5.08-1.267-7.564-2.151-2.61-.928-5.129-2.103-7.485-3.56a36.333 36.333 0 0 1-6.344-4.958 35.592 35.592 0 0 1-2.59-2.829c-.838-1.022-1.498-2.237-2.629-2.964-.483-.31-.975.21-.895.689.21 1.276 1.134 2.296 1.92 3.279a35.508 35.508 0 0 0 2.859 3.16 36.933 36.933 0 0 0 6.76 5.242"/>
        <path fill="#FFD200" d="M75.813 122.88c1.596.525 3.259.877 4.92 1.116 3.11.447 6.68.69 9.665-.466.476-.184.646-1.025 0-1.129-3.07-.492-6.222-.074-9.319-.585a33.955 33.955 0 0 1-4.476-1.081c-1.277-.394-2.771-1.114-4.122-.858-.36.068-.528.532-.35.831.722 1.22 2.403 1.751 3.682 2.172M77.713 30.333c1.92.382 4.134-.334 6.078-.447a40.182 40.182 0 0 1 6.54.153c2.145.225 4.266.634 6.358 1.157 2.099.524 4.149 1.33 6.27 1.742.447.086.918-.51.49-.855-3.35-2.703-8.31-3.775-12.49-4.284a40.809 40.809 0 0 0-6.746-.27c-2.03.09-4.968.019-6.708 1.21-.574.392-.595 1.435.208 1.594M130.31 66.938c.563-1.894-.085-4.167-.598-6.008a32.2 32.2 0 0 0-2.109-5.572 31.823 31.823 0 0 0-3.247-5.206c-1.1-1.448-2.416-3.36-4.155-4.052-.538-.214-.864.47-.68.885.73 1.644 2.419 2.976 3.462 4.447a32.43 32.43 0 0 1 2.861 4.924 31.855 31.855 0 0 1 2.021 5.512c.449 1.71.556 3.625 1.373 5.21.242.471.932.328 1.072-.14M49.57 107.089c.518.423 1.478-.13 1.024-.78-2.297-3.29-4.602-6.6-6.488-10.148-.976-1.838-1.797-3.735-2.521-5.684-.654-1.757-1.063-3.814-2.196-5.331-.227-.305-.77-.332-.871.114-.43 1.91.252 3.984.837 5.802.647 2.014 1.492 3.986 2.43 5.88 1.915 3.867 4.435 7.41 7.785 10.147"/>
        <path fill="#EE8031" d="M64.612 118.105c1.244.592 2.509 1.22 3.84 1.586.63.172.846-.636.398-.977-1.195-.91-2.583-1.569-3.914-2.255-1.104-.57-2.236-1.271-3.503-1.307-.453-.012-.584.516-.34.818.863 1.064 2.311 1.561 3.519 2.135M130.176 88.021c.56-1.175.654-2.594.845-3.874.208-1.394.383-2.794.5-4.199.245-2.96.153-5.802-.166-8.746-.043-.395-.601-.409-.625 0-.164 2.753-.432 5.532-.725 8.275a77.02 77.02 0 0 1-.563 4.256c-.21 1.284-.664 2.63-.62 3.93.023.677 1.026 1.046 1.354.358M39.31 71.351c.601-1.23.675-2.668.988-3.99.34-1.435.8-2.85 1.38-4.205 1.117-2.607 2.745-5.1 4.35-7.418.317-.46-.358-.867-.732-.557-2.451 2.033-4.09 4.564-5.336 7.506-1.007 2.378-2.448 5.93-1.665 8.532.13.432.793.587 1.015.132M106.97 34.983c.757.244 1.506.576 2.17 1.018.52.347.961.962 1.625.957a.361.361 0 0 0 .354-.354c.025-.769-.82-1.256-1.4-1.621a6.68 6.68 0 0 0-2.501-.947c-.617-.103-.857.752-.249.947"/>
        <path fill="#FFB4E6" d="M51.804 115.204c2.78 2.328 6.227 4.714 9.836 5.469.577.12.89-.634.388-.954-3.107-1.972-6.312-3.518-9.138-5.935a34.478 34.478 0 0 1-3.7-3.686c-1.088-1.261-1.95-2.866-3.394-3.748-.262-.16-.706.05-.664.386.213 1.696 1.403 3.01 2.472 4.278a34.284 34.284 0 0 0 4.2 4.19M136.459 80.39c.87-1.66.958-3.917 1.026-5.757.073-1.99-.063-3.996-.315-5.97-.502-3.926-1.495-7.9-3.644-11.247-.223-.346-.808-.145-.69.281 1.05 3.764 2.258 7.482 2.689 11.39.203 1.845.249 3.691.21 5.546-.04 1.848-.416 3.81-.16 5.642.058.424.701.464.884.116M63.974 29.602c1.83-.251 3.38-1.03 5.089-1.704 1.743-.687 3.506-1.328 5.315-1.823 3.219-.88 6.822-1.567 10.165-1.118.535.072.776-.727.219-.834-3.526-.683-6.894-.678-10.399.185-1.959.483-3.876 1.13-5.75 1.875-1.826.726-3.56 1.385-5.083 2.645-.397.327.047.829.444.774M126.804 103.672c2.412-.524 4.199-3.364 5.356-5.358a20.308 20.308 0 0 0 1.58-3.483c.39-1.11 1.018-2.678.554-3.822-.135-.333-.558-.539-.848-.23-.687.732-.814 1.82-1.133 2.751a21.045 21.045 0 0 1-1.676 3.66c-.632 1.103-1.373 2.115-2.187 3.089-.755.903-1.629 1.72-2.089 2.817-.13.308.088.653.443.576M35.257 78.923c.242.218.705.157.774-.21.228-1.197-.158-2.416-.388-3.592a25.578 25.578 0 0 1-.486-4.325c-.066-2.885.467-5.657 1.05-8.467.157-.759-.973-1.33-1.333-.542-1.25 2.739-1.68 5.806-1.648 8.8.016 1.478.16 2.955.415 4.41.238 1.356.55 2.972 1.616 3.926M96.744 124.313c.92.036 1.784-.18 2.62-.547.81-.356.245-1.765-.59-1.448-.815.31-1.59.35-2.452.341-.496-.005-1.83-.272-1.707.607.106.756 1.527 1.023 2.13 1.047"/>
        <path fill="#A885D8" d="M94.155 129.308a28.06 28.06 0 0 0 5.348-.658c3.322-.737 7.394-2.111 9.69-4.76.294-.34.025-1.043-.487-.849-1.522.579-2.933 1.418-4.414 2.09a26.774 26.774 0 0 1-5.057 1.685 25.698 25.698 0 0 1-5.08.65c-1.52.041-3.382-.449-4.795.172-.308.135-.37.645-.116.857 1.241 1.04 3.381.852 4.91.813M71.243 125.113c.795.025.967-1.19.28-1.486-.777-.334-1.587-.569-2.34-.962-.722-.377-1.318-.827-2.155-.861-.41-.016-.632.464-.53.802.496 1.643 3.22 2.46 4.745 2.507M108.321 31.895c.985.496 1.949 1.031 2.895 1.597a42.685 42.685 0 0 1 5.766 4.12c3.565 3.036 6.865 6.704 9.45 10.615.247.375.815.058.608-.346-1.127-2.2-2.283-4.21-3.818-6.165-1.552-1.981-3.33-3.8-5.236-5.441a43.999 43.999 0 0 0-5.906-4.305c-1.786-1.08-4.185-2.747-6.342-2.75-.48 0-.737.61-.393.95.825.815 1.953 1.211 2.976 1.725M116.244 116.894c1.404.033 2.715-1.281 3.715-2.16 1.178-1.034 2.239-2.206 2.817-3.679.118-.3-.289-.426-.482-.276-1.174.91-2.156 2.04-3.288 3.003-.963.818-2.459 1.45-3.072 2.58a.36.36 0 0 0 .31.532M131.09 54.485c.247.137.748.172.95-.09.544-.703.021-1.433-.37-2.095-.354-.6-.84-1.277-1.572-1.395-.246-.04-.463.07-.542.317-.263.831.25 1.634.706 2.29.225.324.471.776.828.973M40.125 53.486c.896-.63 1.2-1.764 1.708-2.7.666-1.229 1.39-2.444 2.204-3.58a27.282 27.282 0 0 1 2.71-3.218c.894-.91 1.906-1.737 2.563-2.845.162-.274-.112-.619-.415-.539-2.54.672-4.587 3.363-6.074 5.377-.881 1.194-1.67 2.448-2.286 3.799-.483 1.056-1.23 2.317-.913 3.494.053.197.317.342.503.212M40.416 80.176c.202.124.433-.011.503-.212.271-.783.018-1.553-.11-2.335-.133-.815-.09-1.62-.503-2.357-.167-.3-.552-.253-.729 0-.546.782-.424 1.738-.296 2.637.125.873.333 1.773 1.135 2.267M125.98 99.901c.689-.617 1-1.446 1.321-2.29.33-.866.818-1.793.78-2.735-.017-.453-.572-.711-.906-.376-.634.634-.898 1.566-1.225 2.384-.356.89-.744 1.754-.652 2.734.032.347.413.526.683.283M118.165 44.567c.267.022.547-.26.525-.525-.064-.781-.675-1.361-1.204-1.894-.494-.496-1.085-1.072-1.83-.95a.454.454 0 0 0-.334.335c-.122.742.454 1.336.95 1.829.533.53 1.112 1.14 1.893 1.205"/>
        <path fill="#EE8031" d="M68.283 70.705c3.285-3.74 7.765-6.395 12.601-7.578 5.022-1.228 10.559-.826 15.025 1.778 1.69.985 3.193 2.255 4.636 3.573 3.028 2.76 5.918 5.887 7.255 9.758a16.14 16.14 0 0 1 .787 3.624c.014.134.023.27.035.404.013-.185.028-.37.038-.557.007-.103.012-.206.014-.312.042-1.015.02-2.03-.087-3.034a16.138 16.138 0 0 0-.787-3.624c-1.337-3.871-4.227-6.998-7.255-9.758-1.443-1.319-2.947-2.588-4.636-3.573-4.466-2.605-10.003-3.006-15.025-1.778-4.836 1.183-9.316 3.837-12.6 7.578-3.286 3.742-5.346 8.559-5.684 13.525-.07 1.027-.06 2.088.026 3.164.407-4.848 2.446-9.532 5.657-13.19"/>
        <path fill="#4BB4E6" d="M101.712 102.019c1.094-.254 2.003-1.37 2.721-2.17a27.557 27.557 0 0 0 2.297-2.946 25.502 25.502 0 0 0 3.31-6.925c1.399-4.63 1.513-9.532.378-14.236a25.943 25.943 0 0 0-1.185-3.692c-.482-1.184-.985-2.521-1.879-3.459-.172-.181-.493.003-.424.243.29 1.003.853 1.915 1.255 2.875a26.54 26.54 0 0 1 1.155 3.393c.588 2.193.868 4.422.858 6.69-.023 4.801-1.46 9.483-3.988 13.556a25.308 25.308 0 0 1-2.508 3.384c-.787.893-1.961 1.752-2.398 2.879-.096.246.187.46.408.408M62.66 91.352c.133.108.34.044.345-.143.03-1.125-.657-2.362-.96-3.444a24.488 24.488 0 0 1-.751-3.838 23.116 23.116 0 0 1 .338-7.416c.567-2.666 1.657-5.203 3.127-7.495a23.754 23.754 0 0 1 4.041-4.77c.518-.467 1.112-.857 1.473-1.467.209-.355-.144-.815-.541-.704-1.258.352-2.375 1.709-3.24 2.633a23.874 23.874 0 0 0-2.679 3.449 24.14 24.14 0 0 0-3.593 16.022 22.74 22.74 0 0 0 .83 3.847c.326 1.063.711 2.602 1.61 3.326"/>
        <path fill="#44ADAC" d="M86.964 107.514c2.206.265 4.703-.26 6.796-.932a25.452 25.452 0 0 0 3.078-1.213c.877-.414 2.124-.912 2.619-1.795.091-.162-.026-.408-.229-.393-.894.07-1.763.712-2.563 1.086a18.653 18.653 0 0 1-3.21 1.153 22.692 22.692 0 0 1-3.202.593c-1.099.122-2.191.08-3.29.152-.885.057-.85 1.247 0 1.349M72.309 61.806c.993-.642 1.82-1.54 2.817-2.2a18.394 18.394 0 0 1 3.308-1.745c2.26-.902 4.685-1.248 7.083-1.563.294-.039.266-.497 0-.558-2.564-.587-5.229-.137-7.67.762a18.377 18.377 0 0 0-3.512 1.711c-1.066.678-2.33 1.516-3.05 2.57-.416.61.417 1.416 1.024 1.023"/>
        <path fill="#5B8" d="M95.961 108.558c.971.651 2.59-.381 3.465-.842a23.237 23.237 0 0 0 3.589-2.356 22.382 22.382 0 0 0 3.05-2.923c.836-.968 1.954-2.142 2.134-3.453.038-.28-.247-.611-.54-.414a4.432 4.432 0 0 0-.654.549c-.04-.046-.112-.065-.168-.009-.057.057-.036.13.012.17-.6.647-1.097 1.431-1.672 2.069a21.473 21.473 0 0 1-3.074 2.814 21.87 21.87 0 0 1-3.361 2.062c-.9.447-2.626.808-2.974 1.876-.058.18.049.36.193.457M62.85 65.016c1.11-.613 1.95-1.72 2.858-2.59a28.862 28.862 0 0 1 3.036-2.557 33.752 33.752 0 0 1 3.272-2.11c1.168-.656 2.406-1.2 3.503-1.973.303-.214.26-.852-.21-.796-2.683.315-5.332 2.01-7.46 3.592a30.17 30.17 0 0 0-3.235 2.751c-.918.909-1.99 1.958-2.358 3.225-.1.343.295.623.594.458M89.2 57.028c.557.369 1.323.31 1.966.405a18.726 18.726 0 0 1 6.225 2.114c2.604 1.433 4.698 3.428 6.594 5.69.224.267.629-.072.474-.36-1.463-2.725-3.934-4.899-6.612-6.392a19.975 19.975 0 0 0-4.256-1.766 18.698 18.698 0 0 0-2.24-.492c-.704-.109-1.491-.303-2.15.034-.319.163-.265.592 0 .767M71.582 103.395c2.767 1.669 6.366 3.164 9.667 2.809.18-.02.228-.264.042-.322-1.526-.47-3.089-.77-4.6-1.307a23.819 23.819 0 0 1-4.55-2.165 22.091 22.091 0 0 1-3.857-3.014 21.675 21.675 0 0 1-1.574-1.72c-.51-.621-.91-1.36-1.599-1.802-.293-.188-.593.127-.544.419.128.776.69 1.396 1.168 1.993a21.54 21.54 0 0 0 1.737 1.922 22.448 22.448 0 0 0 4.11 3.187"/>
        <path fill="#FFD200" d="M79.719 109.893c.97.32 1.981.533 2.991.678 1.891.272 4.062.42 5.876-.283.29-.112.393-.623 0-.686-1.866-.3-3.783-.045-5.665-.356a20.614 20.614 0 0 1-2.722-.657c-.776-.24-1.685-.677-2.506-.522-.219.041-.321.323-.213.505.44.741 1.461 1.065 2.239 1.32M80.874 53.627c1.167.232 2.513-.203 3.695-.272a24.452 24.452 0 0 1 3.976.093c1.304.137 2.594.386 3.866.703 1.276.32 2.522.81 3.812 1.06.271.052.558-.31.298-.52-2.037-1.644-5.053-2.295-7.593-2.605a24.808 24.808 0 0 0-4.102-.164c-1.235.055-3.02.011-4.079.735-.348.239-.361.873.127.97M112.851 75.882c.343-1.152-.051-2.534-.363-3.653a19.582 19.582 0 0 0-1.282-3.388 19.34 19.34 0 0 0-1.974-3.165c-.67-.88-1.469-2.043-2.526-2.464-.328-.13-.526.286-.414.538.444 1 1.47 1.81 2.105 2.704a19.742 19.742 0 0 1 1.74 2.994c.509 1.08.925 2.196 1.228 3.35.273 1.04.338 2.205.834 3.169.148.286.568.199.652-.085M63.764 100.292c.315.257.898-.079.622-.474-1.396-2-2.797-4.013-3.944-6.17a28.407 28.407 0 0 1-1.533-3.456c-.397-1.067-.646-2.319-1.335-3.24-.138-.186-.468-.202-.53.068-.261 1.162.154 2.423.51 3.528a26.113 26.113 0 0 0 1.477 3.576c1.164 2.35 2.696 4.504 4.733 6.168"/>
        <path fill="#EE8031" d="M72.909 106.99c.756.36 1.525.741 2.335.964.382.105.514-.387.242-.594-.727-.553-1.571-.954-2.38-1.371-.672-.347-1.36-.773-2.13-.795-.275-.007-.355.314-.206.498.524.647 1.405.949 2.139 1.298M112.77 88.7c.34-.715.398-1.578.514-2.356.126-.847.233-1.699.304-2.553.15-1.799.093-3.527-.101-5.317-.026-.24-.366-.249-.38 0-.1 1.674-.263 3.363-.441 5.03a46.97 46.97 0 0 1-.342 2.588c-.128.78-.404 1.6-.377 2.39.014.412.624.636.823.218M57.526 78.565c.365-.749.41-1.623.601-2.427.206-.872.486-1.732.839-2.556.679-1.585 1.669-3.1 2.644-4.51.193-.28-.217-.527-.445-.339-1.49 1.237-2.487 2.775-3.244 4.564-.612 1.446-1.488 3.605-1.012 5.187.079.263.482.357.617.08M98.661 56.454c.46.148.916.35 1.32.619.316.21.584.585.988.582a.22.22 0 0 0 .215-.216c.015-.467-.499-.763-.852-.985a4.053 4.053 0 0 0-1.52-.576c-.375-.063-.521.457-.15.576"/>
        <path fill="#FFB4E6" d="M65.123 105.226c1.69 1.415 3.785 2.866 5.979 3.325.351.073.542-.386.236-.58-1.889-1.2-3.837-2.139-5.556-3.609a20.953 20.953 0 0 1-2.25-2.24c-.66-.767-1.185-1.743-2.063-2.28-.159-.096-.429.031-.403.236.13 1.03.853 1.83 1.502 2.6a20.84 20.84 0 0 0 2.555 2.548M116.59 84.06c.529-1.01.583-2.381.624-3.5.044-1.21-.039-2.43-.192-3.63-.305-2.387-.909-4.803-2.215-6.837-.136-.211-.492-.088-.42.17.639 2.289 1.373 4.549 1.635 6.925a25.67 25.67 0 0 1 .127 3.372c-.024 1.124-.252 2.316-.097 3.43.036.258.427.282.538.07M72.521 53.183c1.112-.154 2.055-.627 3.094-1.037 1.06-.417 2.132-.807 3.232-1.108 1.956-.535 4.147-.952 6.18-.68.324.044.471-.441.133-.507-2.144-.415-4.192-.412-6.323.113-1.19.293-2.356.687-3.496 1.14-1.11.44-2.164.842-3.09 1.608-.241.199.029.504.27.47M110.72 98.215c1.467-.319 2.553-2.045 3.257-3.257.389-.671.704-1.387.96-2.118.237-.676.619-1.628.337-2.324-.083-.202-.34-.328-.516-.14-.418.445-.495 1.107-.689 1.673a12.811 12.811 0 0 1-1.019 2.225 13.05 13.05 0 0 1-1.33 1.878c-.458.549-.99 1.045-1.27 1.713-.078.187.054.396.27.35M55.062 83.168c.147.132.428.095.47-.127.14-.728-.096-1.47-.235-2.185a15.528 15.528 0 0 1-.295-2.629c-.041-1.754.283-3.44.638-5.147.095-.462-.592-.809-.81-.33-.761 1.665-1.022 3.53-1.003 5.35.01.898.098 1.797.253 2.682.144.823.334 1.806.982 2.386M92.445 110.764c.558.022 1.084-.11 1.592-.333.492-.216.15-1.072-.358-.88-.496.188-.967.213-1.49.207-.303-.003-1.114-.165-1.04.37.065.459.93.621 1.296.636"/>
        <path fill="#A885D8" d="M90.87 113.801a17.08 17.08 0 0 0 3.251-.4c2.02-.448 4.496-1.284 5.892-2.895.179-.206.015-.634-.296-.515-.925.351-1.783.862-2.683 1.27-.985.448-2.022.782-3.075 1.025a15.62 15.62 0 0 1-3.089.395c-.923.025-2.056-.273-2.915.104-.187.083-.225.392-.07.522.754.632 2.055.518 2.985.494M76.94 111.25c.484.015.588-.724.17-.903-.472-.203-.964-.346-1.422-.585-.439-.23-.801-.503-1.31-.523-.25-.01-.385.282-.323.487.302 1 1.959 1.496 2.886 1.524M99.483 54.577a27.19 27.19 0 0 1 1.76.97c1.235.74 2.41 1.571 3.505 2.505 2.167 1.846 4.174 4.076 5.745 6.454.15.228.496.035.37-.21-.685-1.338-1.388-2.56-2.32-3.749a23.642 23.642 0 0 0-3.184-3.308 26.73 26.73 0 0 0-3.59-2.617c-1.087-.657-2.545-1.67-3.856-1.672-.292 0-.448.371-.24.577.502.496 1.188.737 1.81 1.05M104.3 106.254c.853.02 1.65-.78 2.258-1.313.717-.63 1.361-1.342 1.713-2.237.072-.183-.176-.26-.293-.169-.714.554-1.31 1.242-2 1.826-.584.498-1.494.882-1.866 1.569a.22.22 0 0 0 .188.324M113.326 68.31c.15.084.454.105.577-.054.331-.427.013-.872-.224-1.274-.216-.365-.511-.776-.956-.848-.15-.024-.282.042-.33.193-.16.505.152.993.43 1.392.136.197.286.471.503.592M58.021 67.703c.545-.383.73-1.072 1.039-1.642a20.61 20.61 0 0 1 1.34-2.176 16.588 16.588 0 0 1 1.648-1.956c.543-.554 1.158-1.057 1.558-1.73.099-.167-.068-.376-.252-.328-1.544.409-2.79 2.045-3.694 3.27a13.002 13.002 0 0 0-1.39 2.309c-.293.642-.747 1.409-.554 2.124.032.12.192.208.305.129M58.199 83.93c.122.075.263-.007.305-.129.165-.476.011-.944-.066-1.42-.081-.495-.055-.984-.307-1.433-.101-.182-.335-.154-.442 0-.332.476-.259 1.057-.18 1.604.075.53.202 1.078.69 1.378M110.22 95.922c.418-.375.607-.88.802-1.392.2-.527.497-1.09.475-1.663-.011-.275-.348-.433-.552-.229-.385.386-.545.952-.744 1.45-.217.54-.453 1.066-.397 1.662.02.211.251.32.416.172M105.468 62.28c.162.014.332-.157.319-.319-.04-.475-.41-.827-.732-1.151-.3-.302-.66-.652-1.112-.577a.276.276 0 0 0-.204.203c-.074.451.277.812.578 1.112.324.322.676.693 1.15.732"/>
        <path fill="#EE8031" d="M79.242 75.073c2.586-1.354 5.596-1.862 8.491-1.49 3.007.387 5.95 1.774 7.846 4.14.716.895 1.271 1.906 1.783 2.932 1.075 2.149 1.997 4.468 1.912 6.868a9.494 9.494 0 0 1-.333 2.148c-.02.077-.044.153-.066.229.046-.099.094-.197.138-.297a12.107 12.107 0 0 0 .665-1.846c.19-.702.31-1.42.334-2.148.085-2.4-.838-4.72-1.913-6.868-.511-1.026-1.066-2.037-1.783-2.932-1.894-2.367-4.839-3.753-7.845-4.14-2.895-.372-5.906.136-8.491 1.49-2.587 1.355-4.728 3.555-5.96 6.201-.255.548-.473 1.13-.653 1.737 1.244-2.567 3.347-4.7 5.875-6.024"/>
        <path fill="#4BB4E6" d="M90.93 99.251c.653.092 1.385-.327 1.947-.613.65-.332 1.278-.711 1.877-1.128 1.24-.863 2.343-1.9 3.27-3.091a15.912 15.912 0 0 0 3.338-9.979c-.014-.749-.007-1.586-.299-2.288-.056-.135-.27-.102-.283.044-.053.609.063 1.227.081 1.837.02.7-.01 1.403-.083 2.1a14.805 14.805 0 0 1-.942 3.84c-1.024 2.623-2.797 4.881-5.039 6.576-.657.498-1.354.941-2.085 1.323-.619.323-1.442.545-1.919 1.07-.104.114.006.29.137.309M71.813 85.184c.05.087.178.096.22-.006.253-.609.138-1.43.2-2.086.072-.761.206-1.519.398-2.258.367-1.41.953-2.765 1.748-3.986a13.307 13.307 0 0 1 3.291-3.442 13.938 13.938 0 0 1 3.216-1.757c.383-.147.79-.235 1.115-.493.19-.15.093-.476-.147-.499-.763-.073-1.66.434-2.328.757-.77.372-1.504.817-2.192 1.323a14.159 14.159 0 0 0-5.343 8.008c-.185.748-.304 1.51-.357 2.28-.046.65-.16 1.573.18 2.159"/>
        <path fill="#44ADAC" d="M81.704 99.149c1.151.61 2.628.848 3.914.922.644.037 1.296.032 1.94-.015.567-.04 1.354-.05 1.81-.43.085-.07.073-.229-.041-.263-.504-.15-1.115.018-1.631.054-.669.046-1.334.03-2-.046a13.309 13.309 0 0 1-1.876-.35c-.627-.165-1.216-.418-1.832-.61-.497-.156-.728.503-.284.738M83.32 71.053c.679-.142 1.32-.459 2.005-.61a10.78 10.78 0 0 1 2.178-.257c1.427-.017 2.826.304 4.205.638.168.04.25-.216.117-.306-1.279-.861-2.831-1.177-4.357-1.2-.765-.011-1.53.046-2.282.197-.726.145-1.595.338-2.21.762-.356.246-.07.863.344.776"/>
        <path fill="#5B8" d="M86.406 101.616c.394.561 1.497.338 2.073.27a13.608 13.608 0 0 0 2.46-.533c.79-.245 1.556-.566 2.285-.956.661-.353 1.52-.76 1.895-1.44.08-.144-.006-.385-.207-.34-.163.038-.32.094-.475.163-.012-.034-.047-.059-.09-.04-.043.02-.047.063-.029.096-.465.227-.901.551-1.35.779-.727.368-1.491.671-2.275.892a12.84 12.84 0 0 1-2.274.42c-.586.054-1.607-.112-2.022.398-.07.087-.05.208.009.291M77.47 70.815c.736-.1 1.428-.53 2.108-.814.717-.3 1.45-.56 2.2-.76.737-.195 1.48-.354 2.235-.464.777-.113 1.57-.149 2.332-.341.212-.053.322-.411.053-.48-1.534-.393-3.34-.024-4.838.393-.8.223-1.589.49-2.35.823-.694.304-1.501.652-1.97 1.268-.126.166.03.403.23.375M93.569 72c.227.319.658.448.99.636a10.966 10.966 0 0 1 2.96 2.468c1.122 1.333 1.848 2.866 2.408 4.503.066.193.36.093.335-.097-.225-1.8-1.12-3.51-2.27-4.89a11.726 11.726 0 0 0-1.956-1.864 10.95 10.95 0 0 0-1.122-.741c-.362-.208-.752-.48-1.183-.435-.209.022-.27.268-.162.42M74.157 93.653c1.161 1.496 2.816 3.073 4.696 3.574.102.027.18-.096.09-.167-.735-.579-1.527-1.072-2.24-1.685a13.94 13.94 0 0 1-2.033-2.143 12.94 12.94 0 0 1-1.475-2.462 12.63 12.63 0 0 1-.499-1.273c-.147-.447-.211-.936-.494-1.322-.121-.165-.352-.056-.386.114-.094.451.083.909.218 1.337.153.482.336.956.546 1.417.422.926.953 1.806 1.577 2.61"/>
        <path fill="#FFD200" d="M77.239 98.923c.463.379.971.71 1.493 1.002.977.547 2.134 1.085 3.274 1.083.182 0 .347-.258.145-.375-.958-.558-2.06-.822-3.024-1.39-.474-.278-.92-.593-1.35-.932-.375-.295-.78-.726-1.262-.814-.129-.024-.244.11-.223.232.084.498.575.89.947 1.194M89.73 68.384c.59.373 1.418.418 2.08.63.74.237 1.462.535 2.155.889.685.35 1.338.757 1.966 1.2.632.443 1.21.974 1.863 1.382.137.086.37-.052.273-.221-.768-1.329-2.281-2.32-3.606-3.026a14.552 14.552 0 0 0-2.21-.954c-.686-.23-1.654-.63-2.386-.457-.24.056-.381.4-.135.557M102.534 87.3c.43-.558.506-1.397.571-2.076.068-.703.076-1.419.013-2.123a11.35 11.35 0 0 0-.413-2.148c-.18-.623-.373-1.427-.863-1.88-.151-.14-.348.045-.34.207.033.64.424 1.3.582 1.923.167.657.271 1.328.32 2.004.052.699.044 1.397-.033 2.093-.07.626-.28 1.277-.212 1.909.02.187.269.228.375.09M70.533 90.307c.118.208.508.147.44-.128-.341-1.388-.684-2.785-.856-4.206-.09-.737-.12-1.473-.111-2.214.008-.668.135-1.405-.047-2.055-.037-.13-.214-.209-.304-.074-.388.58-.427 1.358-.466 2.037-.042.753-.014 1.518.055 2.268.142 1.531.526 3.033 1.29 4.372"/>
        <path fill="#EE8031" d="M74.125 95.9c.338.355.678.727 1.074 1.019.187.138.363-.103.257-.274-.28-.456-.658-.853-1.012-1.252-.295-.33-.581-.71-.998-.883-.15-.062-.26.097-.218.228.15.465.569.816.897 1.161M99.788 94.295c.337-.32.55-.78.778-1.18.247-.437.485-.881.703-1.333a16.13 16.13 0 0 0 1.066-2.93c.037-.137-.147-.213-.208-.08a63.035 63.035 0 0 1-1.301 2.659c-.233.454-.475.903-.733 1.343-.234.4-.558.79-.71 1.228-.079.228.208.48.405.293M71.7 77.106c.358-.333.567-.801.84-1.201.297-.434.631-.846.998-1.222.706-.724 1.567-1.344 2.398-1.91.164-.112-.008-.334-.172-.279-1.076.363-1.946.994-2.737 1.813-.64.662-1.574 1.659-1.647 2.625-.012.16.188.296.32.174M98.866 73.68c.22.178.427.384.59.616.13.182.198.443.42.527a.129.129 0 0 0 .162-.072c.107-.253-.112-.524-.258-.72a2.377 2.377 0 0 0-.71-.635c-.192-.113-.382.14-.204.284"/>
        <path fill="#FFB4E6" d="M70.237 93.293c.626 1.13 1.467 2.366 2.57 3.08.177.114.378-.097.251-.268-.78-1.054-1.648-1.979-2.278-3.145a12.285 12.285 0 0 1-.759-1.7c-.2-.56-.281-1.204-.648-1.682-.067-.087-.241-.074-.27.043-.147.592.08 1.181.273 1.74.23.667.519 1.315.86 1.932M102.855 92.562c.503-.44.821-1.18 1.08-1.784.279-.653.49-1.337.66-2.026.336-1.37.515-2.82.23-4.208-.03-.143-.251-.151-.266.005-.133 1.387-.208 2.778-.566 4.133-.169.64-.39 1.26-.64 1.872-.251.61-.627 1.214-.777 1.856-.035.149.174.244.28.152M85.254 66.38c.641.15 1.257.09 1.911.085.668-.005 1.337.008 2.002.075 1.183.12 2.47.353 3.524.93.169.093.351-.142.18-.249-1.085-.678-2.206-1.108-3.483-1.27-.713-.091-1.434-.121-2.153-.114-.7.007-1.362.004-2.03.228-.173.059-.09.282.05.315M96.66 99.068c.87.135 1.828-.58 2.469-1.095a7.23 7.23 0 0 0 .972-.957c.272-.319.681-.76.674-1.2-.003-.128-.117-.25-.253-.185-.322.156-.504.501-.73.77-.309.369-.653.7-1.026 1.003a7.676 7.676 0 0 1-1.123.747c-.367.203-.762.363-1.056.669-.082.086-.054.228.074.248M69.382 79.105c.053.103.214.142.285.03.228-.37.256-.825.33-1.246.091-.51.218-1.011.393-1.5.348-.968.88-1.822 1.434-2.682.15-.232-.153-.567-.374-.351-.766.75-1.302 1.716-1.676 2.716a9.732 9.732 0 0 0-.426 1.52c-.095.481-.199 1.059.034 1.513M84.017 102.082c.301.13.616.168.941.153.315-.014.308-.555-.01-.557-.31-.001-.574-.087-.86-.2-.164-.066-.573-.325-.645-.017-.062.265.377.536.574.62"/>
        <path fill="#A885D8" d="M82.515 103.412c.604.214 1.23.37 1.864.466 1.2.18 2.73.245 3.833-.342.141-.075.142-.343-.053-.344-.58-.003-1.158.096-1.736.13a9.564 9.564 0 0 1-1.898-.088 9.173 9.173 0 0 1-1.774-.435c-.51-.181-1.067-.583-1.616-.558-.12.006-.206.168-.149.271.28.505 1.016.717 1.53.9M75.432 99.08c.262.11.475-.272.284-.458-.216-.211-.455-.393-.655-.62-.192-.218-.332-.444-.607-.563-.134-.058-.27.074-.279.2-.045.61.756 1.23 1.257 1.441M99.711 72.826a16.047 16.047 0 0 1 2.148 3.01 18.361 18.361 0 0 1 1.783 4.743c.034.156.264.123.247-.037-.094-.877-.22-1.693-.48-2.54-.263-.858-.62-1.691-1.045-2.481a15.654 15.654 0 0 0-1.413-2.189c-.455-.588-1.039-1.45-1.756-1.727-.16-.062-.324.108-.253.265.17.377.495.653.769.956M91.454 102.113c.462.191 1.067-.078 1.512-.242.524-.193 1.028-.447 1.409-.863.077-.085-.042-.179-.125-.154-.508.153-.98.403-1.479.578-.425.149-1.003.167-1.352.464a.129.129 0 0 0 .035.217M104.39 83.257c.064.078.226.153.327.092.271-.164.19-.474.146-.744-.041-.246-.116-.532-.345-.665-.077-.045-.163-.037-.22.035-.195.243-.127.576-.06.852.034.137.058.319.151.43M74.26 71.268c.38-.095.626-.433.915-.68.379-.323.775-.634 1.192-.908.417-.274.86-.516 1.314-.723.414-.188.856-.334 1.217-.618.089-.07.042-.22-.07-.232-.93-.102-1.956.53-2.709 1.01-.446.284-.869.6-1.247.97-.296.29-.706.614-.751 1.046-.008.072.061.154.14.135M70.937 80.183c.052.067.146.052.195-.006.19-.226.205-.515.263-.791.06-.288.177-.55.134-.849-.017-.12-.151-.155-.242-.093-.282.19-.364.524-.437.84-.07.306-.116.632.087.899M96.87 97.709c.308-.117.517-.353.733-.593.22-.245.501-.491.61-.81.052-.152-.1-.31-.254-.24-.292.13-.499.405-.713.635-.232.25-.472.488-.567.826-.034.12.07.228.191.182M101.361 78.302c.087.042.216-.016.242-.108.079-.267-.05-.538-.158-.784-.1-.228-.223-.495-.486-.55a.163.163 0 0 0-.155.069c-.135.23-.02.502.082.73.11.244.224.521.475.643"/>
        <g transform="translate(30.372 39.2)">
            <mask id="b" fill="#fff">
                <use xlink:href="#a"/>
            </mask>
            <path fill="#FF7900" d="M-1.762 129.751h114.334V-1.97H-1.762z" mask="url(#b)"/>
        </g>
        <g>
            <path fill="#01B877" d="M99.015 128.043c-.232.91-.04 1.828-.04 2.74 0 1.682.102 3.365.118 5.047.006.584.143 1.081.511 1.525.274.33.543.664.805 1.002 1.347 1.741 2.94 2.31 5.219 1.813 4.747-1.032 9.544-1.883 14.42-2.112.979-.046 1.952.016 2.93.136 1.78.22 2.9 1.196 3.496 2.834.743 2.041.665 4.16.493 6.269-.157 1.92-.547 3.811-.994 5.687-.143.837-.645 1.425-1.299 1.923-2.4 1.832-5.122 3.075-7.853 4.303-.47.211-.932.445-1.397.67-1.218.213-2.436.382-3.67.102-.795-.18-1.609-.27-2.403-.451-.43-.338-.075-.594.12-.822.35-.411.736-.793.94-1.067-3.612 2.865-7.825 4.833-12.573 5.647-1.594.274-3.22.47-4.606 1.428-.277.192-.571.36-.717.688-.626.506-1.426.724-2.044 1.247-1.066.331-2.176.36-3.271.441-3.6.265-7.189.65-10.817.345-1.859-.157-3.73-.194-5.584-.434-.605-.079-1.226-.088-1.79-.36-.246-.256-.059-.361.165-.436.38-.126.781-.025 1.241-.11-.83-.47-1.674-.802-2.353-1.401-.507-.789-1.385-.99-2.164-1.31-1.93-.792-3.598-1.946-5.072-3.411-1.543-1.534-3.066-3.083-4.42-4.809.965 1.846 2.039 3.603 3.427 5.155.826.924 1.84 1.606 2.848 2.303.228.158.692.218.468.701-1 .098-1.929-.23-2.844-.54-.943-.321-1.833-.794-2.806-1.038.009-.43-.32-.622-.598-.855-1.21-1.013-2.665-1.595-4.045-2.307-.483-.25-.993-.467-1.25-.971.138.413.359.818.609 1.212.121.192.332.394.088.647-.759.112-1.495.64-2.287.12-2.757-1.742-5.204-3.858-7.535-6.134-1.707-1.668-2.29-3.599-1.94-5.918.412-2.727 1.423-5.173 3.182-7.302.356.233.4.608.403.975.018 1.607 1.125 2.667 1.938 3.87.163.243.409.298.554-.05.27-.65.578-.361.864-.03.428.491.698.38.892-.193.13-.385.323-.673.806-.434.387.193.65.083.749-.352.093-.41.28-.581.713-.358.545.28.72-.032.742-.524.018-.4.005-.797-.083-1.189-.108-.484-.115-.975-.08-1.465.11-1.613 1.022-2.28 2.887-2.13 2.215.504 4.284 1.432 6.41 2.197 1.552.558 3.1 1.121 4.685 1.592 1.277.379 2.404.264 3.431-.617.324-.279.677-.521 1.003-.8 1.518-1.293 2.515-2.65 2.23-4.93-.31-2.462-.07-4.998-.26-7.497.116-1.962-.189-3.911-.194-5.87 0-.532-.19-1.018-.383-1.504a1842.842 1842.842 0 0 0-4.975-12.36c-.168-.414-.453-.818-.283-1.311-.462-1.372-.465-1.378.76-2.143 2.928-1.827 5.834-3.69 8.929-5.232.271-.135.56-.235.84-.352.44.27.489.756.652 1.177 1.573 4.058 3.193 8.093 5.581 11.764.234.36.441.758.775 1.022 1.108.877 1.31 2.1 1.31 3.38.004 4.162.396 8.312.389 12.475-.001.45-.015.918.338 1.38.302-.367.22-.77.22-1.137.007-4.135.004-8.27.005-12.405 0-.52.025-1.038.076-1.558.086-.882.399-1.61 1.001-2.296.941-1.072 1.467-2.393 1.843-3.766.725-2.65.967-5.354.95-8.091-.004-.506-.137-1.05.245-1.5 4.06 1.851 8.12 3.7 12.178 5.555.37.17.862.265.733.868.224.463.022.904-.088 1.34-1.077 4.306-2.14 8.615-3.23 12.917-.169.66-.185 1.31-.17 1.992.039 1.797.205 3.6-.094 5.393"/>
            <path fill="#D5D5D5" d="M68.903 166.393c1.661.424 3.37.518 5.064.65 5.407.423 10.797.107 16.172-.54.178-.022.35-.104.524-.158 1.128-.439 2.307-.29 3.448-.182 2.074.195 4.155.194 6.229.268 1.954.07 3.793.663 5.707.875 1.673.185 3.356.219 5.027.406.216.024.487.034.6-.15.672-1.104 1.96-1.752 2.282-3.117.076-.323.44-.403.67-.598.334-.283.58-.628.23-1.016-.53-.59-.272-.895.32-1.136.273-.112.487-.392.834-.293 5.127.44 10.266.787 15.283 2.036.619.154 1.216.404 1.81.645.37.15.746.358.724.844-.021.458-.374.705-.73.871-.917.426-1.888.721-2.876.916-3.738.735-7.51 1.207-11.31 1.507-3.922.31-7.843.587-11.775.757-3.572.155-7.145.22-10.714.366-6.184.254-12.366.128-18.548.116-4.214-.008-8.43-.189-12.642-.358-3.047-.123-6.095-.284-9.13-.564-1.689-.156-3.408-.1-5.068-.55.196-.484.64-.41 1.017-.421 2.42-.072 4.801-.415 7.163-.941 1.558-.348 3.164-.155 4.744-.33 1.268-.14 2.562.018 3.84-.179.381-.059.801-.072 1.105.276"/>
            <path fill="#7C5346" d="M68.903 166.393c-4.41.167-8.827.187-13.176 1.123-1.093.236-2.243.198-3.365.3-.444.041-.914-.11-1.328.171-.355-.03-.695.39-1.06.034-.506-.68-1.184-1.197-1.727-1.857-.531-.646-.79-1.49-1.526-2.006-.784-.55-.645-1.34.229-1.842-.128-.318-.485-.305-.708-.49-.4-.335-.656-.728-.527-1.264.124-.518.558-.72 1.018-.782.416-.055.867-.075 1.266.03.718.19 1.37.09 2.017-.216.804.14 1.548-.312 2.345-.24.06-.02.132-.049.177-.021 1.568.949 3.267 1.608 4.967 2.266 1.957.361 3.686 1.516 5.711 1.638.89-.148 1.649.355 2.478.514.855.163 1.782.164 2.482.818l2.802 1.618-.025.206h-2.05zM116.01 161.402c-.358.393-.786.67-1.371.789.296.368.911.521.738 1.122-.146.504-.485.84-.99 1.002-.087.028-.172.06-.258.09.432.913-.663 1.026-.795 1.519-.158.592-.396.834-.904.947-.305.067-.249.288-.268.495-.05.551-.422.768-.896.668-1.802-.38-3.662-.144-5.458-.535-4.996-1.089-10.081-.982-15.145-1.154.452-.62 1.234-.668 1.822-1.052 1.162-1.028 2.63-1.106 4.044-1.172 4.314-.202 8.175-1.555 11.548-4.27.324-.261.617-.62 1.116-.501.574.07 1.151.122 1.721.215 1.076.176 2.131.496 3.249.2.4-.106.853-.057 1.261.115.813.269.687.9.586 1.522"/>
            <path fill="#D5D5D5" d="M46.95 162.316c-.821.817-.722 1.44.348 1.957.236.113.476.115.248.458-.051.078-.03.309.028.339.747.395.764 1.487 1.627 1.735.656.188.24.99.773 1.216l-9.202-1.305c-.493-.462-1.198-.395-1.754-.701-.514-.284-1.328-.362-1.29-1.105.037-.693.793-.867 1.35-1.074 1.548-.576 3.17-.874 4.794-1.133 1.02-.162 2.035-.397 3.078-.387"/>
            <path fill="#FFF" d="M93.329 74.253a1.76 1.76 0 0 0-.303-.262c-.306-.167-.635-.118-.96-.105.023 2.377.073 4.755-.152 7.127l.358.013.748-.347c.119-.088.223-.184.315-.288.889-2.045.884-4.091-.006-6.138" opacity=".344"/>
            <path fill="#FFF" d="M94.667 74.223c-.457-.251-.965-.182-1.454-.232.04.087.078.175.116.262.89 2.047.895 4.093.006 6.138-.042.096-.083.192-.129.288 1.03-.22 1.59-.917 1.935-1.86.589-1.614.104-3.108-.474-4.596" opacity=".344"/>
            <path fill="#000" d="M72.09 73.897c-1.089-3.63-2.142-7.273-3.283-10.887-.482-1.525-.191-2.696.97-3.804 2.765-2.64 5.673-5.054 9.317-6.396 6.213-2.287 11.092.745 13.715 5.613.747 1.385.659 2.977.641 4.498-.036 3.034-.42 6.04-.977 9.022-.114.612.08.788.685.824.82.05 1.633.234 2.45.34.491.064.86.235.73.808-.125.544-.533.49-.95.368-.114-.033-.241-.02-.363-.03a.657.657 0 0 1-.406.132c-.467-.074-.941-.095-1.408-.174a3.56 3.56 0 0 0-.975-.102c-2.269-.187-4.315.422-6.168 1.724a1.39 1.39 0 0 1-.294.082 9.622 9.622 0 0 1-1.533.023 2.173 2.173 0 0 1-.449-.072c-.349-.105-.71-.196-1.03-.364-2.357-1.235-4.748-1.021-7.157-.194-.17.066-.338.136-.499.223-.512.339-.961.266-1.359-.2a3.184 3.184 0 0 0-1.165-.845c-.27-.118-.454-.287-.491-.589"/>
            <path fill="#B7EAD5" d="M65.772 107.26c1.93 4.784 3.892 9.557 5.768 14.363.444 1.138.122 2.419.276 3.632.125.993.026 2.015.027 3.024-.2.289-.504.434-.805.585-2.644 1.329-5.316 2.606-7.724 4.355-.245.178-.509.346-.842.29-.323-.158-.49-.46-.652-.751-2.516-4.557-5.104-9.072-7.596-13.642-.128-.235-.326-.46-.213-.765 3.244-3.085 6.486-6.172 9.735-9.251.662-.628 1.35-1.228 2.026-1.84"/>
            <path fill="#7C5346" d="M111.508 111.564c.717-3.792 1.06-7.621 1.242-11.475.098-2.083.124-4.153-.045-6.231-.066-.803-.301-1.406-1.003-1.917-2.595-1.889-2.706-3.293-1.778-6.61.172-.615.579-1.139 1.278-1.159.606-.018.596-.341.583-.772-.06-1.957-.299-3.912-.15-5.87.093-1.215.07-2.453.502-3.62.148-.4.276-.863.874-.714.581.145 1.027.395.928 1.126-.301 2.227-.13 4.465-.132 6.698 0 .468.031.921.36 1.295-.849.492-1.412 1.082-1.129 2.205.112.443-.036.48.388.775.374.261.77.492 1.13.775.267.21.536.449.395.84-.124.347-.418.513-.772.562-.627.09-1.241.018-1.943-.28 1.016 1.102 2.674.542 3.362-.994.327-.386.448-.923.954-1.183.547-.282 1.074-.425 1.741-.015-1.101-.727-1.873-.514-2.36.55-.1.218-.12.477-.326.642-1.03-.241-1.258-.67-.75-1.512.374-.616.82-1.184 1.411-1.288-.64.041-1.273.373-1.588 1.223-.13.354-.195.829-.769.713-.558-.113-.84-.473-.839-1.034.004-.916.469-1.548 1.263-1.962 1.372.114 2.63.634 3.775 1.322 1.049.631 1.067 1.804.942 2.892-.212 1.84-.702 3.645-1.66 5.21-.823 1.345-.84 2.642-.627 4.094.89 6.069 1.265 12.173 1.035 18.304-.053 1.429-.283 2.85-.606 4.259-.36 1.575-1.24 2.472-2.857 2.621-.188.18-.402.304-.669.32-.666.033-1.334.082-1.989-.098-.701-.194-1.288-.534-1.547-1.272-.223-.833.036-1.648.143-2.456.224-1.7.534-3.387.83-5.076.058-.327.075-.68.403-.888M72.09 73.897c.737.488 1.564.842 2.123 1.583.262.347 1.021-.33 1.291-.355.291.3-.288.92-.276 1.278.021.608-.025 1.217.042 1.824.146 1.333.726 2.311 2.137 2.605 1.482.359 2.952.698 4.503.333.949-.224 1.636-.633 1.834-1.645.275-.849.152-1.725.185-2.59.015-.411-.082-.849.236-1.202l1.672-.023c.435.936.237 1.97.455 2.938.531 1.94 1.237 2.465 3.264 2.52.845.022 1.7-.16 2.535.094-.343 2.288-.75 4.559-1.631 6.717-.915 2.236-2.173 4.216-4.11 5.714-.141.109-.243.267-.364.403-.246.24-.554.25-.853.18-1.798-.417-3.321-1.285-4.46-2.767a35.675 35.675 0 0 1-5.27-8.023c-.09-.188-.166-.429-.46-.293-1.076.495-1.695-.223-2.061-.978-1.098-2.265-1.52-4.69-1.395-7.21.024-.484.5-.683.604-1.103"/>
            <path fill="#B7EAD5" d="M99.015 128.043c-.265-1.485.006-2.994-.173-4.475-.29-2.39.622-4.557 1.153-6.79.825-3.469 1.73-6.919 2.602-10.377l7.137 4.21c-.63 4.01-1.384 8-2.064 12.002-.45 2.649-.923 5.293-1.374 7.941-.08.47-.05.988-.428 1.37a120.52 120.52 0 0 1-6.853-3.88"/>
            <path fill="#7C5346" d="M54.013 138.53c-.661.124-1.41-.397-1.983.443-.628.916-.666 1.863-.519 2.883.057.39.11.785.12 1.179.012.383.107.822-.354 1.048-.455.224-.716-.16-1.03-.4-.18 1.317-.444 1.445-1.457.746-.364.362-.046 1.148-.665 1.278-.62.13-.745-.603-1.123-.91-.212.081-.128.258-.148.388-.04.252-.092.494-.385.555-.269.056-.37-.179-.485-.346-.951-1.395-2.23-2.635-2.126-4.53.01-.205-.088-.416-.135-.624l.104-1.461c.046-.653.458-.922.95-1.345.958-.822 2.096-1.111 3.148-1.642.416-.21.24-.592.243-.895.028-2.54.207-5.054.843-7.53.487-1.893 1.263-3.628 2.487-5.157.222-.565.582-.554 1-.23.368.285.63.664.866 1.055 1.14 1.879 2.16 3.813 2.696 5.966.025.319-.088.599-.243.87-1.114 1.951-1.892 4.049-2.705 6.134-.26.67-.21 1.158.345 1.626.269.226.59.466.556.899"/>
            <path fill="#FFF7AE" d="M89.686 99.979c-.002 2.692.009 5.386-.54 8.04-.477 2.302-1.199 4.485-2.897 6.233-.558.574-.361 1.393-.37 2.097-.062 4.593-.076 9.186-.106 13.78-.001.213 0 .428-.009.642-.013.32-.218.403-.498.398-.276-.005-.363-.159-.376-.41-.021-.396-.077-.79-.093-1.187-.187-4.706-.37-9.413-.55-14.12-.013-.336.01-.657-.298-.914-1.3-1.083-2.108-2.539-2.883-3.995-1.883-3.54-3.532-7.186-4.764-11.01.686-.332 1.384-.604 2.17-.454.899 2.889 1.798 5.777 2.927 8.588.73 1.816 1.484 3.626 2.574 5.261.7 1.05 1.137 1 1.772-.096 1.1-1.901 1.4-4.02 1.681-6.147.265-2.009.162-4.027.19-6.042.005-.416-.1-.868.262-1.212.697-.129 1.239.254 1.808.548"/>
            <path fill="#FFD200" d="M87.878 99.431c.029 3.518.118 7.04-.75 10.494-.313 1.251-.705 2.473-1.455 3.539-.567.805-.916.814-1.571.065-.755-.862-1.243-1.891-1.717-2.917-1.615-3.505-2.832-7.156-3.93-10.85-.07-.237-.174-.46.018-.683l.898-.416c.44.133.568.537.736.887.492 1.021 1.071 1.995 1.609 2.99.35.648.687 1.344 1.26 1.794.956.753 1.182 1.698 1.106 2.834-.06.884-.051 1.777.003 2.66.031.501-.301 1.365.308 1.407.46.032.238-.877.254-1.362.04-1.192.025-2.386.01-3.58a2.905 2.905 0 0 1 .552-1.794c.88-1.256 1.166-2.743 1.45-4.219.081-.414.072-.866.468-1.153l.75.304"/>
            <path fill="#FEFEFE" d="M55.87 129.005c-.76-2.292-1.708-4.492-3.153-6.446-.296-.4-.617-.921-1.219-.349-.681-.775-.533-1.36.306-1.954.79-.56 1.476-1.264 2.207-1.905 1.661 2.957 3.324 5.914 4.983 8.872 1.166 2.079 2.328 4.16 3.492 6.24-.47 1.028-1.456 1.373-2.39 1.76-.276.115-.52-.136-.674-.374-1.11-1.717-2.216-3.435-3.317-5.157-.133-.209-.11-.474-.236-.687M105.868 131.923c.167-2.094.64-4.142.985-6.209.806-4.823 1.68-9.636 2.52-14.454.046-.27-.003-.567.361-.65.591.319 1.183.637 1.774.954-.38 2.444-.764 4.886-1.134 7.33-.055.36-.04.731-.059 1.097.216.57.112 1.154.023 1.72-.524 3.35-1.018 6.703-1.526 10.055-.074.488.025 1.159-.72 1.317l-2.224-1.16"/>
            <path fill="#DEDDDD" d="M108.091 133.083c.734-.963.511-2.149.71-3.228.486-2.646.86-5.313 1.27-7.972.097-.628.164-1.261.244-1.892.447.868 1.24 1.073 2.122 1.105.451.016.903.023 1.355.034.152.3.054.599-.013.893-.72 3.154-1.548 6.281-2.267 9.435-.144.633-.386 1.224-.875 1.68-.46.426-1.008.54-1.613.444-.332-.128-.672-.24-.933-.499"/>
            <path fill="#7C5346" d="M85.976 95.558l.258 3.114c.344.57.052 1.142-.043 1.69-.177 1.024-.473 2.024-1.05 2.91-.57.877-1.06.948-1.859.253-.796-.692-1.362-1.572-1.839-2.493-.485-.937-1.142-1.808-1.28-2.902.687-1.526.54-3.152.566-4.758.539.17.715.714 1.073 1.069.985.979 2.068 1.504 3.476 1.075.224-.069.476-.15.698.042"/>
            <path fill="#FFF7AE" d="M80.164 98.13c.86 1.465 1.452 3.086 2.544 4.417.438.534.841 1.34 1.582 1.213.715-.123.91-.989 1.162-1.631.438-1.11.616-2.283.782-3.457l.893.455c-.267 1.504-.5 3.016-1.103 4.435-.072.169-.097.386-.22.5-1.162 1.09-.897 2.504-.904 3.856-.005 1.042-.01 2.083.003 3.125.006.418-.044.704-.582.693-.51-.01-.51-.307-.51-.667.005-1.562-.017-3.124.012-4.686.01-.584-.111-.99-.606-1.402-1.2-1.003-1.79-2.46-2.533-3.793-.461-.828-.877-1.682-1.313-2.525l.793-.533"/>
            <path fill="#6C382D" d="M85.976 95.558c-2.582 1.044-4.227-.45-5.247-2.186l-.057-1.867c1.215.817 2.237 1.933 3.722 2.333.527.142 1.04.301 1.592.253l-.01 1.467"/>
            <path fill="#FEFDFC" d="M109.024 133.582c2.114-.244 2.187-1.975 2.56-3.498.729-2.987 1.47-5.97 2.208-8.954.181-.032.362-.065.544-.096-.992 4.38-1.986 8.761-2.975 13.143-.09.394-.246.5-.627.282-.556-.317-1.139-.587-1.71-.877"/>
            <path fill="#6C392E" d="M114.335 82.332c-.292.462-.753.797-.95 1.337-.11.299-.175.588-.133.894.058.417.445.485.743.592.414.148.306-.245.377-.442.456-1.281.889-1.544 2.57-1.409-.706.222-1.13.54-1.502.944-.884.96-.865 1.207.192 1.935l-.004-.003c-.023 1.338-.94 2.03-2.222 1.677-.06-.017-.13-.056-.177-.038-.976.372-1.24-.186-1.308-1.086.665.482 1.389.612 2.16.556.34-.025.621-.156.726-.46.113-.328-.2-.47-.419-.625-.742-.528-1.488-1.05-2.23-1.58-.044-.03-.06-.102-.1-.174.324-.132.538.236.837.19-.398-1.476-.154-1.917 1.271-2.325a.33.33 0 0 1 .17.017"/>
            <path fill="#6FC090" d="M95.919 144.688c-9.38 3.522-18.78 2.69-28.64-1.422 2.382.217 4.71.778 7.048 1.247 2.363.475 4.74.722 7.138.934 2.448.217 4.894.203 7.327.087 2.384-.114 4.777-.375 7.127-.846M109.193 159.35c-1.176.77-2.222 1.72-3.456 2.417-2.826 1.593-5.846 2.467-9.085 2.572-1.455.047-2.824.435-4.167.954.128-.471.852-1.028 1.676-1.36 1.712-.688 3.555-.787 5.325-1.217 4.127-1.004 7.846-2.812 11.106-5.548.136-.114.31-.183.648-.377-.577 1.107-1.397 1.767-2.047 2.559M81.835 142.181c5.974-.267 11.697-1.49 16.794-4.91-2.575 4.948-13.622 6.755-16.794 4.91M68.176 164.57c-1.634-.517-3.381-.611-4.96-1.333-3.522-1.957-5.63-5.11-7.435-8.841.646.417.953.826 1.272 1.248.329.438.758.798 1.118 1.214 2.497 2.891 5.164 5.555 8.927 6.783.474.155.875.437 1.078.928M91.367 143.672c3.748-1.97 7.8-2.563 11.942-2.774-3.784 1.773-7.786 2.62-11.942 2.774"/>
            <path fill="#F8D304" d="M94.827 121.336c-.948 0-1.897-.016-2.845.007-.453.01-.586-.185-.575-.603.01-.378.058-.664.537-.662 1.927.009 3.855.007 5.783.003.53 0 .442.375.462.705.021.376-.106.562-.516.555-.948-.017-1.897-.005-2.846-.005"/>
            <path fill="#6FC090" d="M57.505 161.599c-1.942-.226-3.569-1.177-5.144-2.245-.453-.597-1.015-1.146-.866-2.165.481.832 1.238 1.092 1.934 1.433 1.31.643 2.63 1.262 3.768 2.197.426.35.482.479.308.78"/>
            <path fill="#7C5346" d="M90.808 72.737c-1.854.001-3.532.52-5.03 1.64-.626.468-1.291.225-1.896-.109-1.537-.85-3.183-1.232-4.926-1.116-.907.06-1.819.172-2.697.443-.324.1-.619.092-.49-.331.35-1.157-.11-2.225-.291-3.323-.084-.509-.158-1.033-.344-1.507-.29-.738-.015-1.007.681-1.216 3.586-1.079 7.21-1.864 10.985-1.641 1.39.082 2.701.468 3.916 1.15 1.122.63.779 1.825.993 2.78.223.999.256 2.04.372 3.063-.401.23-.869-.04-1.273.167"/>
            <path fill="#8C695E" d="M75.347 75.187c2.403-.955 4.807-1.267 7.223-.036.402.205.83.356 1.246.532.319.196.272.514.27.815-.005 1.06.062 2.125-.193 3.17-.35 1.127-1.22 1.49-2.29 1.651-1.297.195-2.553-.034-3.82-.214-.318-.105-.618-.262-.942-.351-.949-.26-1.416-.97-1.541-1.858-.174-1.23-.301-2.478.047-3.71M92.1 81.013c-1.113.177-2.211.283-3.347.04-1.615-.347-2.084-.76-2.368-2.41-.482-.96-.446-1.983-.378-3.01 1.849-1.417 3.94-1.966 6.246-1.747.085.128.17.263.184.416.195 2.168.226 4.331-.19 6.48-.017.09-.091.158-.146.231"/>
            <path fill="#4E362D" d="M90.808 72.912c.39-.631.851-.19 1.273-.332-.386.692-.848.23-1.273.332"/>
            <path fill="#6C392E" d="M117.419 87.399c.133.66.01 1.176-.287 1.664-.264.435-.582.844-1.142.677-.638-.19-.704-.78-.685-1.34.007-.223.155-.442.26-.718.459.336.069 1.29.758 1.183.613-.095.736-.874 1.096-1.466"/>
            <path fill="#6D3A2F" d="M113.19 88.913c-.417 3.034-.32 3.435 1 4.356-1.044-.144-1.6-.625-1.812-1.693-.189-.95-.006-1.823.812-2.663"/>
            <path fill="#6C392E" d="M115.632 86.183c.016-.809.219-1.526 1.085-1.799.833-.262 1.33-.025 1.974.94-.753-.368-1.481-.598-2.23-.028-.336.257-.293.844-.833.884l.004.003zM83.254 82.86c1.596.512 3.02.552 4.416-.146-.056.974-.85 1.162-1.959 1.414-.942.215-1.893-.29-2.457-1.267"/>
            <path fill="#6D3A2F" d="M88.422 86.36c-1.509 1.07-4.585 1.14-6.29-.07 2.23.452 4.26.516 6.29.07"/>
            <path fill="#6C392E" d="M86.822 88.855c-1.121.812-1.617.804-2.635-.043.912-.08 1.678-.105 2.635.043"/>
            <path fill="#6D3A2F" d="M46.117 138.063c.202 1.904-.328 3.867.592 5.69-1.452-1.766-1.267-3.707-.592-5.69M47.818 137.654c.078 1.846-.188 3.719.505 5.499-1.431-1.695-1.069-3.59-.505-5.5M50.14 137.522c-.162 1.825-.513 3.653.036 5.484-1.008-1.3-1.021-2.521-.036-5.484"/>
            <path fill="#1C1711" d="M78.08 72.503c.95-1.177 2.507-1.063 3.754.334-1.31-.381-2.491-.86-3.754-.334M89.092 71.421c-.849.226-1.454.771-1.792 1.572.955-.44 1.835-.992 2.916-.998.267 0 .534.002.8.003.193-.033.418.115.62-.154-.752-.761-1.654-.66-2.544-.423"/>
            <path fill="#32312C" d="M80.163 78.685l-.394-.051c-.046-.01-.092-.019-.139-.027a1.063 1.063 0 0 1-.431-.367c-.304-.604-.31-1.207.017-1.807.145-.197.32-.36.538-.475.18-.077.37-.068.559-.067.24 0 .447.081.625.24.466.69.458 1.732-.018 2.427-.232.162-.482.22-.757.127"/>
            <path fill="#F8F8F8" d="M80.852 78.445c.262-.33.62-.66-.134-.853-.182-.047-.13-.299.024-.335.996-.234.22-.65.116-.996-.07-.088-.064-.17.018-.247.302-.093.564-.062.734.244 1.175.811.956 2.136-.546 2.394-.195.057-.246-.032-.212-.207"/>
            <path fill="#45413C" d="M81.61 76.258l-.741-.213c-.166-.01-.33-.147-.497-.004l-.595.023c-.159.13-.375.166-.519.319-.94.845-.94 1.09-.001 1.939.144.151.356.195.517.318l-.005-.006c-.493.335-1.318-.033-1.635-.73-.34-.748-.013-1.469.874-1.932.994-.518 2.19-.387 2.602.286"/>
            <path fill="#8F8F8D" d="M80.852 78.445l.212.26c-.291.323-.593.302-.901.042l.69-.302"/>
            <path fill="#34332F" d="M89.173 78.312l-.588-.02c-.843-.34-.978-.843-.569-2.107.177-.326.495-.38.82-.426.229-.024.434.047.628.16.436.46.643 1.612.362 2.101-.14.244-.324.445-.653.292"/>
            <path fill="#FAFAFA" d="M89.173 78.312c.327-.265 1.075-.437.206-.967a.164.164 0 0 1 .029-.295c.989-.399.112-.676-.06-.999-.044-.207.1-.267.251-.32.447-.033.826.128 1.174.394.764.584.823 1.373.097 1.99-.542.46-1.166.75-1.914.529-.129-.242.27-.139.217-.332"/>
            <path fill="#48443F" d="M88.956 78.644c.419-.081.859-.106 1.25-.256.524-.201.992-.532 1.002-1.18.01-.653-.432-.978-.975-1.188-.225-.087-.47-.123-.705-.182-.247.005-.497-.113-.74.023l-.57.208c-.22.17-.357.5-.729.376-.216-.293.091-.373.226-.471.682-.498 1.458-.584 2.258-.399 1.15.266 1.805 1.138 1.527 1.983-.305.922-1.51 1.437-2.544 1.086"/>
            <path fill="#F0F0EF" d="M87.49 76.445c.238-.133.405-.404.728-.376-.22.797-.621 1.624.367 2.222-.469.366-.79-.023-1.038-.285-.442-.468-.397-1.027-.058-1.56"/>
            <path fill="#F0F0F0" d="M79.221 78.506c-1.218-.816-1.224-1.49-.02-2.277.193-.052.247.03.203.209-.333.617-.364 1.23.024 1.838.03.165-.043.238-.207.23"/>
            <path fill="#A1A19F" d="M79.403 76.558a97.824 97.824 0 0 1-.202-.275c.144-.294.369-.214.576-.217l-.374.492z"/>
            <path fill="#999997" d="M80.372 76.094c.168-.242.335-.288.5.005l-.01.297-.49-.302"/>
            <path fill="#8C695E" d="M79.221 78.571c.07-.098.138-.197.207-.295a.67.67 0 0 1 .347.467c-.202.034-.41.1-.554-.172"/>
            <path fill="#8F8F8D" d="M88.788 75.928c.24-.3.487-.313.74-.033l-.18.299-.56-.266"/>
            <path fill="#8C695E" d="M82.888 77.328c0 1.055-1.178 1.91-2.63 1.91-1.454 0-2.632-.855-2.632-1.91 0-1.056 1.178-1.911 2.631-1.911 1.453 0 2.631.855 2.631 1.91M92.084 77.328c0 1.055-1.178 1.91-2.631 1.91-1.453 0-2.631-.855-2.631-1.91 0-1.056 1.178-1.911 2.63-1.911 1.454 0 2.632.855 2.632 1.91"/>
            <path fill="#FFF" d="M82.706 77.19s-.634-1.262-2.067-1.308c-1.434-.045-2.163 1.04-2.163 1.424 0 .384.484 1.334 2.115 1.334 1.631 0 2.115-1 2.115-1.45"/>
            <path fill="#000" d="M82.706 77.19c.012.23-.067.46-.186.662-.12.203-.287.38-.482.517-.409.253-.886.348-1.35.359-.464.014-.94-.05-1.373-.25-.427-.197-.814-.558-.92-1.057a.589.589 0 0 1-.002-.2.895.895 0 0 1 .056-.182 1.54 1.54 0 0 1 .18-.314 2.253 2.253 0 0 1 1.14-.813c.11-.04.227-.06.343-.086.117-.012.234-.036.351-.033.235-.015.472.021.703.07.228.064.45.153.652.275.196.133.367.296.517.472.15.177.278.371.371.58m0 0a2.74 2.74 0 0 0-.984-.894 2.42 2.42 0 0 0-.601-.254 2.416 2.416 0 0 0-.652-.065c-.11-.003-.218.02-.327.03-.106.024-.215.042-.317.08a2.068 2.068 0 0 0-1.047.745c-.063.088-.12.18-.159.277a.712.712 0 0 0-.045.143.406.406 0 0 0 .003.139c.034.199.153.39.294.547.145.158.325.284.522.374.397.183.847.246 1.29.232.442-.01.888-.102 1.257-.33.38-.2.703-.569.766-1.024"/>
            <path fill="#34332F" d="M81.526 77.208c0 .695-.454 1.259-1.013 1.259-.559 0-1.012-.564-1.012-1.259s.453-1.259 1.012-1.259c.56 0 1.013.564 1.013 1.259"/>
            <path fill="#FFF" d="M81.416 77.13a.25.25 0 1 1 0 .5.25.25 0 0 1 0-.5M87.233 77.19s.666-1.262 2.17-1.308c1.504-.045 2.27 1.04 2.27 1.424 0 .384-.508 1.334-2.22 1.334-1.712 0-2.22-1-2.22-1.45"/>
            <path fill="#000" d="M87.233 77.19c.066.473.42.837.818 1.033.39.224.852.311 1.31.321.459.013.923-.049 1.34-.226.206-.09.396-.215.553-.371.151-.157.279-.352.317-.556.01-.05.01-.098.003-.142a.75.75 0 0 0-.05-.146 1.338 1.338 0 0 0-.172-.28 2.196 2.196 0 0 0-1.106-.74c-.108-.038-.22-.053-.331-.078-.113-.01-.225-.032-.34-.028a2.663 2.663 0 0 0-.675.064c-.22.056-.43.14-.629.25a2.809 2.809 0 0 0-1.038.9m0 0a2.79 2.79 0 0 1 .946-1.06c.213-.12.442-.206.678-.269.238-.048.482-.083.724-.069.121-.003.241.02.362.03.12.026.24.043.355.084.234.068.458.17.66.308.204.135.388.3.54.495.075.097.142.202.194.318.027.057.047.12.063.187a.562.562 0 0 1-.003.208c-.116.517-.537.869-.978 1.064-.45.192-.94.254-1.418.241-.477-.01-.969-.1-1.398-.346a1.82 1.82 0 0 1-.517-.514c-.129-.204-.22-.44-.208-.678"/>
            <path fill="#34332F" d="M90.387 77.208c0 .695-.453 1.259-1.012 1.259-.56 0-1.012-.564-1.012-1.259s.453-1.259 1.012-1.259c.56 0 1.012.564 1.012 1.259"/>
            <path fill="#FFF" d="M90.278 77.13a.25.25 0 1 1 0 .5.25.25 0 0 1 0-.5"/>
            <path fill="#767676" d="M75.347 75.064a9.971 9.971 0 0 0 .047 2.207c.081.722.26 1.423.494 2.093l.043.124c.015.02.02.041.037.063.03.044.066.09.115.136.094.091.217.182.354.26.277.158.598.286.927.39.665.204 1.37.332 2.077.397a9.869 9.869 0 0 0 2.11-.012c.34-.047.675-.11.968-.221.289-.117.531-.276.718-.507a2.35 2.35 0 0 0 .41-.87c.096-.332.156-.689.198-1.051.098-.726.132-1.473.205-2.222.15.738.248 1.48.288 2.242.014.381.006.768-.046 1.165a2.875 2.875 0 0 1-.415 1.187 2.383 2.383 0 0 1-1.002.866c-.392.187-.791.275-1.183.353-.785.132-1.57.14-2.345.069a9.404 9.404 0 0 1-2.29-.497 5.052 5.052 0 0 1-1.095-.544 2.492 2.492 0 0 1-.505-.447 1.533 1.533 0 0 1-.207-.318c-.03-.058-.051-.129-.074-.192l-.035-.145a8.056 8.056 0 0 1-.238-2.3c.039-.764.16-1.526.444-2.226M85.998 75.631a10.294 10.294 0 0 0 1.215 4.301c.098.152.401.314.72.407.325.097.681.158 1.04.195.723.075 1.467.068 2.203.006.368-.029.734-.08 1.094-.141.181-.032.36-.068.536-.111l.263-.066c.075-.026.154-.042.225-.075.59-.219 1.045-.729 1.32-1.37.27-.644.39-1.385.396-2.129a8.411 8.411 0 0 0-.287-2.257c.394.672.641 1.436.763 2.223.11.788.106 1.62-.154 2.427a3.46 3.46 0 0 1-.601 1.149 3.17 3.17 0 0 1-.483.475 2.976 2.976 0 0 1-.589.347c-.103.052-.212.083-.318.124-.097.03-.195.062-.293.087a10.39 10.39 0 0 1-1.785.315c-.8.07-1.604.062-2.411-.051a6.029 6.029 0 0 1-1.212-.302 3.096 3.096 0 0 1-.604-.304 1.525 1.525 0 0 1-.53-.58 8.146 8.146 0 0 1-.622-2.323c-.078-.788-.073-1.587.114-2.347"/>
        </g>
    </g>
</svg>
