<svg xmlns="http://www.w3.org/2000/svg" width="69" height="72" viewBox="0 0 69 72">
    <g fill="none" fill-rule="evenodd">
        <path fill="#725048" d="M52.49 43.804c-2.278-.566-5.329-.028-7.22-1.147-5.95-3.549-11.706-7.374-17.034-11.516-.883 1.85-1.96 3.976-2.886 5.59-1.077 2.127-2.389 4.294-3.7 6.461-.732 1.339-.25 2.706-.981 4.045-.925 1.615-2.485 2.374-3.176 3.947-.497 1.298-1.229 2.637-1.215 4.087-.028 1.214-.056 2.43-.36 3.45-.718 2.79-1.477 5.343-3.493 7.635-1.436 1.463-2.472 3.823-3.356 5.673-1.463 2.678-4.1 5.563-1.34 7.496 4.183 3.134 9.773 6.02 14.646 7.58 3.617 1.299 7.22 1.147 8.988-2.552 1.38-3.147 1.27-6.516 3.949-9.166 2.25-2.333 5.73-3.188 7.98-5.52 3.3-3.244 5.882-7.814 7.801-12.024 1.768-3.7 4.198-7.758 3.688-12.023.221-1.491-1.311-1.947-2.291-2.016"/>
        <path fill="#725048" d="M58.772 36.888c.51.152 1.256.263 1.808.65.276.193-4.57 9.759-7.055 8.02-3.078-2.362 2.113-8.601 5.247-8.67"/>
        <path fill="#725048" d="M52.906 29.695c-.621.594-2.762 2.181-3.59 1.601-1.339-.732 2.044-3.506 2.665-4.1 1.008-1.145 2.057-2.056 3.065-3.202.622-.594 1.16-1.656.525-2.512-.635-.856-1.684.055-2.347.413-3.23 2.264-6.378 4.997-9.291 7.688-1.671 1.505-3.383 2.775-5.095 4.045-1.05.91-2.25 2.332-3.741 2.111-1.022-.304-2.444-1.505-3.134.069-.346.787-.608 2.043-.636 3.258l-.207 2.94c-.22 1.491.027 2.9.276 4.307.289 1.643-.292 6.585-.292 6.585.884 2.264.787 4.46 3.451 4.474 2.195.096 4.97-.635 6.875-2.18 1.05-.912 1.16-1.657 2.651-1.436 1.256.263 2.36 1.036 3.534.829.939-.166 1.588-1.974 2.168-2.802 1.118-1.891 2.471-3.824 3.272-6.143.497-1.298 1.23-2.637 1.492-3.893.262-1.256.76-2.554.746-4.003-.014-1.45-1.16-2.458-1.173-3.907-.014-1.45 1.27-2.402 1.216-4.086-.083-.47-.207-1.173-.718-1.326-.939.166-1.284.953-1.712 1.27M52.425 15.987l-.967 1.38c-.538 1.063-.677 3.023-2.044 3.507-1.366.482-2.332-2.251-2.733-3.148-.648-2.306 1.45-4.128 3.163-5.398 1.946-1.31 3.906-1.173 5.024 1.05-.662.359-1.67 1.505-2.443 2.609"/>
        <path fill="#725048" d="M53.886 29.764l-.538 1.063c.04.235.813 3.245 1.048 3.203 1.56-.759 3.107-2.967 2.306-4.762-.359-.663-1.904-2.568-2.913-1.423-.386.552.483 1.367.097 1.92"/>
        <path fill="#8F8F8F" d="M47.028 4.597c-1.85-.884-3.727-.553-6.074-.139L33.21 5.824l-6.807 1.2c-1.877.33-5.397.952-6.833 2.415-1.243 1.187-1.768 3.7-1.671 5.618.15 3.603 1.283 7.276 1.903 10.796l2.317 13.143 1.945 11.03 1.366 7.745c.373 2.112.358 4.776 2.484 5.853 1.34.732 3.3.87 4.942.58 2.388-.178 4.694-.827 7.04-1.24 2.817-.497 5.399-.953 8.174-1.684 2.305-.648 5.48-.482 7.427-1.793 2.416-1.395 2.665-4.1 2.168-6.916-1.669-10.837-4.083-21.785-5.476-32.429-.303-3.092-1.31-6.06-1.849-9.111-.454-2.582-.675-5.205-3.312-6.434"/>
        <path fill="#595959" d="M24.484 7.12c-.469.083-.98-.069-1.918.096-.47.083-.663.36-.898.4.042.235.083.47.36.664.275.193.98.069 1.214.027.47-.083.704-.124.897-.4.47-.083.194-.276.345-.787"/>
        <path fill="#242B37" d="M22.331 7.258c-.47.083-.856.635-.11.745.98.07 1.366-.482 1.049-.91-.235.04-.47.082-.939.165"/>
        <path fill="#8F8F8F" d="M24.208 6.927l-.427.317-.235.042-.47.082-.469.083.042.235-.042-.235-.235.042.235-.042c.235-.04.235-.04.47-.083l.469-.082.235-.042.427-.317s-.276-.193-.51-.152l-.47.083-.469.083-.47.082c-.234.042-.193.276-.427.318 0 0-.235.041-.194.276l.042.235.041.234.276.194s.235-.042.276.193l.235-.041-.041-.235.04.235.705-.125c.47-.082.704-.124.897-.4.235-.041.194-.276.194-.276l.193-.276c-.041-.235-.041-.235-.318-.428"/>
        <path fill="#000" d="M43.356 5.729L22.47 9.41c-4.929.87-3.618 6.93-3.522 8.85.125.703 3.021 17.131 5.09 28.866l2.152 12.204c.91 5.163 3.616 5.412 6.902 4.832l17.836-3.145c7.51-1.324 7.138-3.436 6.352-7.895l-3.145-17.837L50.45 14.4l-.249-1.408c-.11-3.369-.979-8.297-6.846-7.262"/>
        <path fill="#8F8F8F" d="M38.165 7.854l-2.347.413-4.693.828c-.47.083-4.266.51-2.651 1.435.51.153 1.214.028 1.684-.054l3.99-.704 4.224-.745c1.643-.29.967-1.38-.207-1.173"/>
        <path fill="#000" d="M33.258 56.874c-1.602.525-2.817.497-4.542.317l-1.532-.455c-.567 2.277.4 5.01 2.331 6.364 1.657 1.16 4.004.746 5.605.221 1.836-.565 3.949-.938 4.046-3.133.027-1.214.442-2.982.194-4.39l-6.102 1.076"/>
        <path fill="#FFF" d="M55.415 50.79l-1.034-5.868-1.78-10.091-.703-3.99-2.773-15.724-.455-2.582c-.538-3.05-2.498-3.19-4.376-2.858l-5.632.993c-3.286.58-6.806 1.2-10.133 1.545l-4.46.786c-1.407.248-4.224.745-3.727 3.561.33 1.878 2.772 15.724 3.062 17.367l.993 5.633 2.11 11.969.621 3.52c.207 1.174.428 3.797 5.163 3.204 1.878-.331 18.347-2.993 19.99-3.283 3.714-.897 3.217-3.713 3.134-4.182"/>
        <path fill="#9FA8BE" d="M38.435 53.3c.041.234 0 0 0 0"/>
        <path fill="#2B3445" d="M25.268 36.263c.234-.042.234-.042 0 0 .234-.042.234-.042 0 0"/>
        <path fill="#725048" d="M23.337 22.568c-.76 2.554-2.54 4.804-4.364 6.819-1.436 1.463-3.576 3.05-4.5 4.665-.236 4.156-1.92 8.324-4.434 11.913-.152.511-.304 1.022-.22 1.491l.04.235c.317 4.542.4 9.125.951 13.626.497 2.816.607 6.184-1.133 8.669 2.127-3.037 5.757-4.403 8.518-6.584 1.05-.91 1.823-2.015 3.149-2.733.662-.359 1.794-.8 2.14-1.587 1.394-1.698.263-5.37-.069-7.248-.344-3.327.015-6.778-.564-10.064-.455-2.581-.317-4.541.995-6.709.193-.276.428-.317.62-.593.194-.276.43-.318.622-.594.773-1.104 1.27-2.402 1.257-3.851.29-2.471-.22-6.737-3.008-7.455M48.2 20.846c-.125-.704-.249-1.408-.138-2.154 2.195.097 9.332.774 7.605 4.708-1.615 3.19-6.86-.483-7.468-2.554M49.33 28.632c-.124-.704-.248-1.408-.137-2.154 2.195.097 9.332.775 7.605 4.709-1.615 3.189-6.86-.484-7.467-2.555"/>
        <path fill="#714E46" d="M24.468 26.24c-.11.745-.732 1.339-1.395 1.698-.662.359-1.449.014-2.001-.373-.276-.194-.704.124-.428.317.594.622 1.615.925 2.554.76.897-.4 1.477-1.228 1.78-2.25.153-.51-.593-.621-.51-.152M51.485 20.266c-.69 1.574-2.47-.29-3.065-.911-.275-.193-.704.124-.427.317.593.621 1.186 1.243 1.973 1.588.277.193.787.345 1.215.028.47-.083.622-.594.815-.87.193-.276-.317-.428-.51-.152M52.616 28.052c-.58.829-1.96-.138-2.554-.76-.276-.193-.704.125-.428.318.87.815 2.526 1.975 3.493.594.235-.041-.083-.47-.51-.152"/>
        <path fill="#D6D6D6" d="M46 57.774c-.746-.11-1.685.054-2.39.179l-3.52.62c-.469.083-3.795.428-2.098 1.822.318.428 1.257.263 1.49.221l3.052-.538 3.051-.538c1.408-.248 2.14-1.587.414-1.766"/>
        <path fill="#BBE0D1" d="M37.92 77.83c-.634-.855-25.688-15.312-28.822-15.244-1.919.097-3.769 3.327-4.777 4.472-1.74 2.485-4.998 5.964-5.716 8.752-1.671 5.618 4.513 9.126 8.806 11.514 5.12 2.97 12.01 2.238 17.725 1.715 4.307-.276 16.8-4.899 12.785-11.208"/>
        <path fill="#50BE87" d="M5.37 70.261c-.428.318-.58.829-.732 1.34-.193.275.124.703.4.897.276.193.704-.124.897-.4 0 0-.04-.235.194-.277l.386-.552c.194-.276.11-.745-.165-.938-.317-.428-.787-.346-.98-.07M8.27 66.12c-.235.041-.428.318-.387.552l-.193.276.041.235c-.194.276-.11.746.165.939.276.193.746.11.94-.166l.192-.276.194-.276s-.041-.235.193-.276c.193-.276.345-.787.07-.98-.553-.387-1.022-.304-1.216-.028M11.43 68.95c-.235.042-.235.042-.428.318l-.234.041c-.235.042-.428.318-.346.787.042.235.36.663.829.58.234-.04.234-.04.428-.317l.234-.041c.235-.042.428-.318.346-.787-.083-.47-.4-.898-.829-.58M19.437 70.443c-.235.04-.662.358-.621.593 0 0-.194.276-.152.511.083.47.359.663.828.58.235-.041.663-.359.621-.594-.041-.234.152-.51.11-.745 0 0-.551-.387-.786-.345M15.862 69.38c-.94.165-.69 1.573.248 1.407.939-.165.69-1.573-.248-1.408"/>
        <path fill="#FFB327" d="M40.943 42.557l-.72-4.102a.437.437 0 0 0-.505-.354l-1.361.239a.437.437 0 0 0-.355.505l.363 2.067-1.493.263.191 1.09 1.494-.262.166.944a3.018 3.018 0 1 0 2.22-.39"/>
        <path fill="#B7B7B7" d="M43.357 27.244s-.833-8.517-7.157-8.035c-6.324.483-5.152 6.462-5.152 6.462l1.086-.248s-1.204-4.249 3.033-5.304c4.312-1.074 6.228 2.305 7.027 7.33l1.163-.205z"/>
        <path fill="#B7B7B7" d="M33.918 20.151c-.662.303-1.2.723-1.608 1.259-1.003 1.313-.994 3.015-.927 3.78l.285-.064c-.118-.684-.234-2.114.5-3.377.398-.687.984-1.222 1.75-1.598m8.6 6.841l.398-.07c-.105-.683-.405-2.23-1.129-3.722-.794-1.637-1.839-2.723-3.123-3.249.19.09.375.193.552.31 1.619 1.072 2.7 3.276 3.301 6.731m.908.64l-1.163.204a.393.393 0 0 1-.457-.326c-.261-1.646-.635-3.025-1.11-4.097-.509-1.152-1.152-1.992-1.913-2.495-.956-.633-2.107-.769-3.52-.417-1.134.283-1.946.835-2.414 1.642-.82 1.414-.341 3.155-.336 3.173a.391.391 0 0 1-.291.49l-1.086.248a.39.39 0 0 1-.474-.308c-.022-.112-.523-2.783 1.019-4.808.954-1.253 2.464-1.966 4.49-2.121 2.761-.211 4.951 1.192 6.334 4.058 1.018 2.108 1.235 4.241 1.244 4.331a.394.394 0 0 1-.323.426"/>
        <path fill="#4E251C" d="M44.703 38.828l-10.938 1.921a2.376 2.376 0 0 1-2.743-1.924l-1.518-8.643a2.376 2.376 0 0 1 1.923-2.744l10.938-1.92a2.376 2.376 0 0 1 2.743 1.923l1.518 8.644a2.376 2.376 0 0 1-1.923 2.743"/>
        <path fill="#CE4A37" d="M45.008 38.775L34.609 40.6a2.376 2.376 0 0 1-2.743-1.924l-1.518-8.644a2.376 2.376 0 0 1 1.924-2.743l10.398-1.826a2.376 2.376 0 0 1 2.743 1.923l1.519 8.644a2.376 2.376 0 0 1-1.924 2.744"/>
        <path fill="#DC891A" d="M42.605 32.813a3.795 3.795 0 1 1-7.475 1.313 3.795 3.795 0 0 1 7.475-1.313"/>
        <path fill="#FFB327" d="M42.145 32.894a3.794 3.794 0 1 1-7.474 1.312 3.794 3.794 0 0 1 7.474-1.312"/>
        <path fill="#DC891A" d="M42.305 45.074a1.915 1.915 0 1 1-3.772.662 1.915 1.915 0 0 1 3.772-.662"/>
        <path fill="#F1F1F1" d="M42.072 45.115a1.915 1.915 0 1 1-3.771.662 1.915 1.915 0 0 1 3.771-.662"/>
        <path fill="#F1F1F1" d="M39.859 43.58a1.897 1.897 0 0 0-1.54 2.194 1.897 1.897 0 0 0 2.195 1.538 1.897 1.897 0 0 0 1.54-2.194 1.897 1.897 0 0 0-2.195-1.539m.662 3.772a1.937 1.937 0 0 1-2.24-1.57 1.937 1.937 0 0 1 1.57-2.24 1.936 1.936 0 0 1 2.24 1.57 1.936 1.936 0 0 1-1.57 2.24"/>
        <path fill="#FFDD4D" d="M44.366 49.255a5.367 5.367 0 0 1-1.238-.91c-.164-.165-.444.069-.277.234.389.386.823.714 1.306.974.204.11.415-.187.209-.298M45.38 47.23a10.7 10.7 0 0 1-1.348-.338c-.222-.071-.35.27-.126.34.472.152.953.27 1.44.36.231.042.264-.321.035-.362M45.248 44.277l-1.278.29c-.227.05-.165.409.063.357l1.278-.289c.227-.05.166-.41-.063-.358M37.908 48.498a5.497 5.497 0 0 0-1.448 1.117c-.156.17.076.45.235.277.396-.43.854-.79 1.369-1.066.205-.11.051-.44-.156-.328M36.585 46.685a9.55 9.55 0 0 0-1.374.14c-.188.032-.137.325.052.292.428-.075.86-.122 1.294-.136.188-.006.219-.302.028-.296M36.704 44.438c-.197-.127-.433-.192-.652-.272l-.746-.272c-.22-.08-.346.26-.126.34l.68.25c.208.075.449.131.636.252.196.126.406-.171.208-.298M43.941 41.892c-.462.292-.9.617-1.306.983-.174.156.06.434.235.277a9.105 9.105 0 0 1 1.227-.931c.196-.123.043-.454-.156-.329M42.457 50.7l-.453-1.402c-.077-.238-.429-.069-.352.167l.452 1.403c.077.238.43.07.353-.167M39.832 49.443l-.047 1.377c-.008.25.38.289.389.037l.047-1.377c.008-.25-.38-.288-.389-.037"/>
        <path fill="#FFF" d="M3.672 16.136l3.808 1.892c1.097.545 2.066-1.102.964-1.65-1.27-.63-2.539-1.26-3.808-1.892-1.097-.545-2.067 1.103-.964 1.65M2.034 27.91l4.765.892c1.202.225 1.717-1.616.508-1.843l-4.765-.89c-1.202-.225-1.717 1.616-.508 1.842M3.246 39.63c1.583-.125 3.166-.25 4.749-.377 1.217-.096 1.228-2.008 0-1.91-1.583.125-3.166.25-4.749.377-1.217.096-1.227 2.008 0 1.91M11.137 5.752l2.239 2.836c.32.405 1.016.335 1.35 0 .401-.4.321-.945 0-1.351L12.489 4.4c-.32-.405-1.016-.335-1.35 0-.401.4-.322.945 0 1.351M24.847 1.21l.628 1.587c.189.48.639.815 1.175.667.456-.125.858-.692.667-1.175L26.69.702c-.19-.48-.639-.814-1.175-.667-.457.125-.858.693-.667 1.175M63.421 57.517l4.429.403c1.224.112 1.216-1.8 0-1.91l-4.429-.404c-1.224-.111-1.216 1.8 0 1.91M57.673 65.978l2.52 1.294c1.093.561 2.06-1.087.966-1.65-.841-.43-1.681-.862-2.522-1.294-1.092-.561-2.06 1.087-.964 1.65"/>
    </g>
</svg>
