<svg xmlns="http://www.w3.org/2000/svg" xmlns:xlink="http://www.w3.org/1999/xlink" width="40" height="40" viewBox="0 0 40 40">
    <defs>
        <path id="a" d="M20.12.006C9.187.006.325 8.78.325 19.603.325 30.426 9.187 39.2 20.12 39.2c10.932 0 19.794-8.774 19.794-19.597C39.914 8.78 31.052.006 20.12.006z"/>
        <path id="c" d="M20.12.006C9.187.006.325 8.78.325 19.603.325 30.426 9.187 39.2 20.12 39.2c10.932 0 19.794-8.774 19.794-19.597C39.914 8.78 31.052.006 20.12.006z"/>
        <path id="e" d="M20.12.006C9.187.006.325 8.78.325 19.603.325 30.426 9.187 39.2 20.12 39.2c10.932 0 19.794-8.774 19.794-19.597C39.914 8.78 31.052.006 20.12.006z"/>
        <path id="g" d="M20.12.006C9.187.006.325 8.78.325 19.603.325 30.426 9.187 39.2 20.12 39.2c10.932 0 19.794-8.774 19.794-19.597C39.914 8.78 31.052.006 20.12.006z"/>
        <path id="i" d="M20.12.006C9.187.006.325 8.78.325 19.603.325 30.426 9.187 39.2 20.12 39.2c10.932 0 19.794-8.774 19.794-19.597C39.914 8.78 31.052.006 20.12.006z"/>
        <path id="k" d="M20.12.006C9.187.006.325 8.78.325 19.603.325 30.426 9.187 39.2 20.12 39.2c10.932 0 19.794-8.774 19.794-19.597C39.914 8.78 31.052.006 20.12.006z"/>
        <path id="m" d="M20.12.006C9.187.006.325 8.78.325 19.603.325 30.426 9.187 39.2 20.12 39.2c10.932 0 19.794-8.774 19.794-19.597C39.914 8.78 31.052.006 20.12.006z"/>
        <path id="o" d="M20.12.006C9.187.006.325 8.78.325 19.603.325 30.426 9.187 39.2 20.12 39.2c10.932 0 19.794-8.774 19.794-19.597C39.914 8.78 31.052.006 20.12.006z"/>
        <path id="q" d="M20.12.006C9.187.006.325 8.78.325 19.603.325 30.426 9.187 39.2 20.12 39.2c10.932 0 19.794-8.774 19.794-19.597C39.914 8.78 31.052.006 20.12.006z"/>
        <path id="s" d="M20.12.006C9.187.006.325 8.78.325 19.603.325 30.426 9.187 39.2 20.12 39.2c10.932 0 19.794-8.774 19.794-19.597"/>
    </defs>
    <g fill="none" fill-rule="evenodd">
        <path fill="#A885D8" d="M39.914 19.997C39.914 9.174 31.052.4 20.12.4 9.187.4.325 9.174.325 19.997c0 10.823 8.862 19.597 19.794 19.597 10.933 0 19.795-8.774 19.795-19.597"/>
        <g transform="translate(0 .394)">
            <mask id="b" fill="#fff">
                <use xlink:href="#a"/>
            </mask>
            <path fill="#7A573F" d="M14.233 20.188l-4.875 3.29-2.118 1.145 3.107 5.699 1.338-.652.474-.252 2.194-.023 2.385-1.21z" mask="url(#b)"/>
        </g>
        <g transform="translate(0 .394)">
            <mask id="d" fill="#fff">
                <use xlink:href="#c"/>
            </mask>
            <path fill="#515151" d="M7.822 23.841L0 26.62l5.439 7.269 5.685-2.727z" mask="url(#d)"/>
        </g>
        <g transform="translate(0 .394)">
            <mask id="f" fill="#fff">
                <use xlink:href="#e"/>
            </mask>
            <path fill="#FFF" d="M23.088 7.978l-12.542 2.437 4.538 22.897 17.34-3.369-3.597-18.147z" mask="url(#f)"/>
        </g>
        <g transform="translate(0 .394)">
            <mask id="h" fill="#fff">
                <use xlink:href="#g"/>
            </mask>
            <path fill="#CCC" d="M24.028 12.73l4.8-.933-5.741-3.819z" mask="url(#h)"/>
        </g>
        <g transform="translate(0 .394)">
            <mask id="j" fill="#fff">
                <use xlink:href="#i"/>
            </mask>
            <path fill="#CCC" d="M30.196 24.465l-15.14 2.94.27 1.37 15.14-2.942z" mask="url(#j)"/>
        </g>
        <g transform="translate(0 .394)">
            <mask id="l" fill="#fff">
                <use xlink:href="#k"/>
            </mask>
            <path fill="#CCC" d="M29.656 21.741l-15.14 2.942.271 1.368 15.14-2.941z" mask="url(#l)"/>
        </g>
        <g transform="translate(0 .394)">
            <mask id="n" fill="#fff">
                <use xlink:href="#m"/>
            </mask>
            <path fill="#CCC" d="M29.116 19.018l-15.14 2.942.271 1.368 15.14-2.941z" mask="url(#n)"/>
        </g>
        <g transform="translate(0 .394)">
            <mask id="p" fill="#fff">
                <use xlink:href="#o"/>
            </mask>
            <path fill="#CCC" d="M28.548 16.154l-15.14 2.94.272 1.37 15.14-2.942z" mask="url(#p)"/>
        </g>
        <g transform="translate(0 .394)">
            <mask id="r" fill="#fff">
                <use xlink:href="#q"/>
            </mask>
            <path fill="#CCC" d="M23.105 14.383l-10.236 1.989.27 1.368 10.237-1.988z" mask="url(#r)"/>
        </g>
        <g transform="translate(0 .394)">
            <mask id="t" fill="#fff">
                <use xlink:href="#s"/>
            </mask>
            <path fill="#7A573F" d="M10.543 18.125l3.428-2.394s.484-.44.726-.064c.141.219.526 1.434-.702 2.321-.366.265-1.455 1.225-1.455 1.225s.302 2.386-.2 3.666l-3.433.873.44-2.348s1.044-2.878 1.196-3.279" mask="url(#t)"/>
        </g>
        <g>
            <path fill="#FF7900" d="M14.268 13.971l-1.886.35-.353-1.868 1.886-.35z"/>
            <path fill="#FFF" d="M13.92 13.85l-1.258.232-.043-.229 1.257-.233z"/>
        </g>
    </g>
</svg>
