<svg xmlns="http://www.w3.org/2000/svg" xmlns:xlink="http://www.w3.org/1999/xlink" width="150" height="134" viewBox="0 0 150 134">
    <defs>
        <path id="a" d="M.21.15h52.263v28.147H.21z"/>
        <path id="c" d="M0 .163h32.002v26.485H0z"/>
        <path id="e" d="M.127.219h62.098v41.654H.127z"/>
    </defs>
    <g fill="none" fill-rule="evenodd">
        <g transform="translate(97.527 104.726)">
            <mask id="b" fill="#fff">
                <use xlink:href="#a"/>
            </mask>
            <path fill="#50BD86" d="M1.416 20.88c-.256-.425-.551-.832-.76-1.28-.776-1.655-.574-2.412.887-3.494.587-.435 1.178-.865 1.768-1.297.246-.514.672-.843 1.134-1.15 6.57-4.365 13.194-8.644 20.126-12.421.743-.405 1.448-.985 2.387-.906 2.15-.613 3.58.388 4.693 2.097-.167.536-.662.86-.882 1.366-.148.341-.43.367-.793.34-1.887-.145-2.354.15-3.25 1.944-.519.339-1.068.01-1.603.072-1.034.12-2.095.888-2.157 1.616-.043.508.158.894.657 1.072.646.23 2.391-.56 2.744-1.204.21-.381-.022-.957.528-1.182 1.326.225 2.554.154 3.408-1.099.198-.291.518-.425.842-.336.86.238 1.487-.245 2.152-.628l1.266 1.5c-1.032.316-2.127.427-2.164 1.757-.02.734.322 1.263 1.047 1.401 1.23.236 1.947-.45 2.427-1.672 4.149 5.158 8.226 10.202 12.273 15.27 1.48 1.854 2.887 3.765 4.327 5.65H5.22l-1.083-2.15c1.038.08 2.057.128 2.969-.552.572-.425.973-.908.632-1.61-.325-.668-.961-.58-1.561-.408-1.072.308-1.81 1.01-2.315 1.981-.807-1.236-1.553-2.503-1.988-3.927 1.636.051 2.455-.841 2.73-2.361.386-.264.685.06 1.02.146 1.027.264 2.312-.41 2.66-1.398.144-.41.17-.817-.172-1.142-.378-.358-.828-.341-1.274-.146-1.103.481-1.799 1.318-2.118 2.474-.04.022-.09.075-.116.064-1.643-.606-2.56.218-3.188 1.614" mask="url(#b)"/>
        </g>
        <g transform="translate(0 106.375)">
            <mask id="d" fill="#fff">
                <use xlink:href="#c"/>
            </mask>
            <path fill="#714F47" d="M28.011 17.316c-.942 3.13-2.22 6.153-3.011 9.332H0L11.824 5.513c.298-1.155.879-2.193 1.362-3.27.63-1.408 1.762-1.986 3.267-2.061 3.569-.178 6.842.925 10.064 2.25 1.305.536 2.646 1.02 3.796 1.873.693.514 1.433.996 1.689 1.903-.656 2.658-1.532 5.245-2.57 7.777-.815.963-1.15 2.134-1.42 3.33" mask="url(#d)"/>
        </g>
        <path fill="#714F47" d="M42.59 87.192c-.15 3.421-1.298 6.585-2.484 9.744-.584 1.554-1.305 3.058-2.48 4.207-2.32 2.272-3.661 5.066-4.707 8.057-.504.21-.879-.1-1.259-.335-3.417-2.102-7.154-3.375-11.036-4.275a12.595 12.595 0 0 0-2.981-.327c-.575.006-1.201.126-1.668-.384 1.202-4.587.913-9.257.662-13.903-.278-5.172-.273-10.315.649-15.429.41-2.274 1.393-4.257 3.107-5.813 2.774-2.517 5.559-5.022 8.41-7.45 1.095-.934 2.283-1.847 3.847-1.92.792.106.673.755.68 1.252.017 1.316-.134 2.637-.16 3.94-.09 4.769-.314 9.55.31 14.296.898.348 1.239-.54 1.843-.837 1.786-1.693 2.595-3.954 3.533-6.13 1.068-2.479 1.996-5.034 4.3-6.719a5.834 5.834 0 0 1 3.097-1.15c.487-.038.994-.058 1.344.4.156.619-.397.742-.724 1.016-1.383 1.158-2.325 2.582-2.541 4.398-.156 1.314.08 1.514 1.437 1.365.35-.038.509.103.59.407-.135 1.523-.911 2.844-1.366 4.265-.305.953-.57 1.92-.915 2.858-.305.832-.015 1.177.854 1.202.46.014 1.04-.12 1.27.519-.319.513-.856.512-1.34.487-1.148-.06-1.552.571-1.564 1.583-.013 1.142-.217 2.264-.311 3.397-.038.46-.084.909-.397 1.28M124.485 105.058c-8.19 4.322-15.943 9.36-23.647 14.477-1.017-3.648-3.149-6.35-6.732-7.745-3.91-1.522-6.682-4.352-9.039-7.682-.736-1.04-1.44-2.102-2.159-3.154.41-.475.939-.255 1.414-.206 5.095.535 10.186 1.112 15.263 1.792 1.967.264 3.62-.13 5.065-1.46 1.49-.949 1.294-2.562 1.567-3.99.285-2.236.598-4.468.815-6.711.311-3.034.96-6.033.903-9.102.301-1.006.256-2.026.109-3.05.114-1.613-.29-3.062-1.374-4.295-.223-.344-.432-.693-.71-1-2.564-2.817-3.087-7.184-1.267-10.517.152-.28.304-.562.514-.804.953-1.097 1.86-1.023 2.538.234.175.324.388.612.596.908.329.957 1.375 1.554 1.36 2.686-1.493 1.348-2.168 1.337-3.618-.06 1.35 1.436 1.795 1.472 3.692.292.322-.116.502.023.589.33 1.14 1.387 2.532 2.497 3.944 3.588 1.367 1.056 2.284 2.26 2.57 4.136.495 3.245 2.06 6.129 4.027 8.75.673.896.945 1.824.93 2.917-.063 4.204-.008 8.412-.172 12.61-.067 1.698.302 3.127 1.249 4.487.573.823 1.052 1.71 1.573 2.57"/>
        <g transform="translate(45.055 .056)">
            <mask id="f" fill="#fff">
                <use xlink:href="#e"/>
            </mask>
            <path fill="#000" d="M62.225 29.618l-9.616 12.255-9.113-10.676c1.173-.103 2.067-.191 2.962-.255.517-.038.711-.206.554-.772-2.282-8.218-4.989-16.248-10.44-23.016-1.74-2.16-3.827-3.926-6.575-4.739-3.065-.905-5.063-.199-6.802 2.5-1.695 2.63-2.333 5.624-2.852 8.648-.183 1.068.029 2.486-.585 3.122-.664.69-2.08.101-3.165.06-5.117-.189-10.23-.462-15.347-.616-1.212-.036-1.337-.325-.86-1.367 2.358-5.136 6.241-8.735 11.25-11.157C17.016 1.005 22.77.317 28.685.223c5.69-.09 10.847 1.223 15.408 4.702 5.628 4.294 9.426 9.87 11.676 16.54.819 2.43 1.41 4.918 1.653 7.474.07.75.289 1.035 1.104.92 1.12-.156 2.263-.156 3.7-.24" mask="url(#f)"/>
        </g>
        <path fill="#000" d="M42.59 87.192c-.079-1.812.28-3.593.379-5.393.056-1.012.537-1.407 1.562-1.29.515.058 1.083.168 1.585-.147.553-.674 1.333-.501 2.039-.504 4.165-.021 8.33-.018 12.496-.005a15.388 15.388 0 0 0 3.54-.391c1.875-.435 2.724-1.402 2.915-3.326.108-1.094.119-2.202.03-3.293-.526-6.445-.19-12.9-.24-19.35-.047-6.222-.078-12.447-.017-18.67.002-.23.001-.458 0-.687-.02-4.154-1.097-5.328-5.27-5.037-5.766.403-11.528.117-17.291.227-1.968.037-3.92.295-5.89.333-1.646.031-2.574.953-2.94 2.568-.194.857-.189 1.73-.166 2.598.363 13.908.253 27.82.273 41.731 0 .594.054 1.192-.147 1.77-.608.403-1.076 1.054-1.9 1.082-.603-1.571-.397-3.232-.41-4.839-.071-9.501.327-19.007.046-28.504-.123-4.145.134-8.281-.07-12.418-.02-.406-.068-.823.08-1.223.01-.444.018-.888.027-1.333.313-.46.137-.977.156-1.466.097-2.58 1.629-4.506 4.13-5.157 1.158-.302 2.336-.4 3.532-.395 7.59.022 15.181-.03 22.771.041 2.381.022 4.2 1.418 5.026 3.917 1.058 3.193.843 6.49.733 9.773-.017.5-.063 1.002-.063 1.504 0 12.392-.004 24.784.001 37.175.059 2.07.128 4.135-.248 6.196a6.913 6.913 0 0 1-.84 2.26c-1.276 1.648-3.022 2.25-5.035 2.25-6.931.002-13.863.002-20.794.003M109.684 65.414c-.416-.857-1.356-1.401-1.455-2.446-.33-.493-.285-1.027-.225-1.587.192-1.774.447-3.54.623-5.315.264-2.665-.801-3.92-3.467-4.215-6.728-.745-13.445-1.583-20.167-2.38-2.11-.25-3.197.568-3.511 2.674-.25 1.67-.248 3.38-.786 5.006-.118.23-.292.4-.523.514-.866.252-1.508.097-1.674-.922-.156-1.039.175-2.041.239-3.064.018-.464 0-.93.14-1.382.404-.499.342-1.132.486-1.705l.038-.531c.206-.552.24-1.142.408-1.708.684-2.302 2.173-3.542 4.561-3.619 2.663-.086 5.286.392 7.922.665 4.41.456 8.8 1.129 13.217 1.509 4.679.402 6.118 2.484 5.942 7.089-.145 3.788-.874 7.518-1.385 11.27-.081.17-.21.218-.383.147"/>
        <path fill="#FE7900" d="M15.975 103.88c6.228-.076 11.745 2.117 16.944 5.32 1.957 1.97 3.529 4.15 3.964 6.994.363 2.371-.382 4.053-2.439 5.297-1.984 1.2-4.244 1.596-6.433 2.2-.355-.741.299-2.602 1.174-3.338.897-.638 2-.836 2.938-1.392 1.597-.948 1.805-1.631 1.217-3.365-.366-1.081-1.201-1.914-1.47-3.028-.488-.476-.902-1.085-1.476-1.408-4.242-2.393-8.666-4.235-13.654-4.269-1.621-.01-2.742.586-3.412 2.16-.414.973-.541 2.141-1.503 2.837-2.335-1.89-1.851-5.745 1.273-7.184.922-.424 1.906-.592 2.877-.825"/>
        <path fill="#714F47" d="M78.764 56.671c.015 1.177.852.712 1.45.727-.293 1.514-1.534 2.362-3.106 2.05.958.483 1.594.054 2.25-.502.35-.297.61-.999 1.3-.526.334.871.127 1.659-.365 2.404-.73.661-1.439 1.346-2.13 2.049-.425.68-.619 1.38-.196 2.132.509.03.865-.204 1.156-.602.173-.235.35-.62.723-.196.19.945.723 1.873.128 2.85-.519-.142-1.012-.19-1.484.187-.4.321-.885.436-1.586.325 1.177.525 1.818-.808 2.782-.469.435.573.023.978-.272 1.408-.155.208-.3.423-.45.636-.493.617-1.086 1.136-1.674 1.659-.451.81-.447 1.715-.59 2.597-.123.772.12 1.738-.853 2.197-.996-1.357-1.834-2.81-2.95-4.103-1.646-1.91-1.043-3.951 1.27-4.981.664-.296 1.356-.527 2.193-.848-.85-.784-1.633-1.496-2.404-2.222-1.744-1.642-1.55-3.366.554-4.529a8.536 8.536 0 0 1 2.155-.855c.79-.185.832-.517.505-1.136-.868-1.645-1.992-3.085-3.546-4.115-.614-.408-.524-.7-.18-1.184 1.048-1.479 2.671-1.741 4.622-.558.796.483 1.127.407 1.299-.475.061.577.126 1.154-.217 1.679-.365.331-.04.8-.232 1.166-.098 1.03-.337 2.038-.447 3.068-.047.442.24.045.295.167"/>
        <path fill="#595959" d="M69.215 76.7c-.003-14.457-.009-28.914-.009-43.371 0-1.84-.2-3.653-.813-5.39-.826-2.34-2.406-3.433-4.872-3.431-7.686.005-15.372.038-23.058.017-4.157-.011-6.795 1.747-7.02 6.09-.008.162-.145.317-.222.476.021-1.043-.052-2.099.081-3.128.385-2.984 2.516-4.983 5.676-5.099 7.342-.27 14.688-.328 22.034-.23 1.258 1.198 1.722 1.257 3.346.426 2.25.075 3.563 1.414 4.415 3.325 1.326 2.972 1.383 6.149 1.21 9.294-.378 6.901-.18 13.8-.164 20.702.017 6.674-.016 13.35-.026 20.024.015.506-.259.444-.578.295"/>
        <path fill="#838080" d="M109.835 65.386c.418-3.717.826-7.435 1.261-11.15.119-1.016-.005-2.017-.19-2.992-.432-2.272-1.625-3.44-3.949-3.725-6.16-.752-12.327-1.43-18.492-2.13-1.088-.123-2.178-.275-3.27-.305-2.978-.081-4.575 1.11-5.44 3.958-.103.343-.235.68-.353 1.019.05-3.656 1.472-5.847 4.26-6.477 1.165-.263 2.363-.17 3.539-.041 5.475.598 10.946 1.234 16.42 1.83.808.088 1.63.034 2.445.046a.299.299 0 0 1-.045.34c-.585.358-.533.647.1.858.657.22 1.212-.14 1.796-.331 2.515.811 3.767 2.76 3.904 5.897.165 3.813-.72 7.503-1.21 11.24-.111.855-.166 1.718-.247 2.577l-.454-.31c-.086-.05-.126-.112-.12-.185.008-.079.023-.119.045-.119"/>
        <path fill="#714F47" d="M69.215 76.7c.242-.002.459-.052.578-.295 2.586-.68 4.116 1.05 5.758 2.524.705.786.183 1.638.106 2.451-.108 1.144-.034 2.336-.682 3.374-2.358-1.192-3.513-3.49-5.123-5.65-.33 2.091.26 4.273-1.432 5.834.823-2.54 1.056-5.125.585-7.766-.025-.14.136-.314.21-.472"/>
        <path fill="#575757" d="M33.194 32.425c.425 3.31.11 6.634.177 9.95.252 12.344.085 24.69.177 37.033-.932.434-.537-.389-.566-.66-.377-3.49-.206-6.997-.31-10.495-.075-2.555.427-5.076.291-7.625-.023-.439.132-.928-.313-1.264.436-.463.252-1.037.27-1.567.21-6.43-.238-12.855-.154-19.282.026-2.029.027-4.08.428-6.09"/>
        <path fill="#F17931" d="M81.535 40.694c-.087.634-.32 1.125-.86 1.377-.536.25-1.086.223-1.513-.235-1.617-1.733-3.247-3.456-4.815-5.234-.557-.633-.42-1.384.17-1.973.53-.53 1.244-.568 1.729-.067 1.709 1.768 3.35 3.603 4.997 5.43.17.19.21.496.292.702M85.449 32.765c-.022.9-.375 1.442-1.14 1.634-.734.184-1.217-.142-1.522-.825-.821-1.835-1.671-3.658-2.494-5.493-.422-.942-.223-1.744.75-2.164.909-.391 1.447.113 1.81.939.752 1.715 1.543 3.414 2.31 5.124.13.287.217.592.286.785M114.345 46.767c-.738-.069-1.24-.48-1.426-1.218-.172-.681.148-1.13.777-1.403a38.154 38.154 0 0 1 5.943-1.993c.858-.213 1.447.21 1.713.978.25.723.057 1.438-.744 1.663-1.972.556-3.928 1.147-5.823 1.93-.12.05-.27.028-.44.043M115.659 32.64c-.256.525-.586 1.221-.931 1.909-.531 1.058-1.078 2.107-1.608 3.165-.36.718-.924 1.024-1.681.74-.778-.292-1.269-.96-.928-1.724.834-1.867 1.79-3.682 2.765-5.48.298-.551.94-.537 1.478-.326.663.26.965.795.905 1.717"/>
        <path fill="#010202" d="M124.162 110.738c.095-1.377 1.665-2.74 2.925-2.383.647.182.954.245 1.15-.477.115-.424.6-.511.94-.723 1.27.048 1.736.772 1.648 1.961-.174.502-.57 1.078-1.006.952-1.257-.363-1.836.533-2.637 1.108-.87.625-1.817.748-2.747.057-.255-.075-.44-.188-.273-.495"/>
        <path fill="#817D7D" d="M74.975 84.754l.576-5.824c.273-1.096.54-2.192.296-3.333.68-1.319.408-2.815.77-4.198.107-.409.142-.793.552-1.008.454.448.35.998.287 1.542-.841 7.33-1.599 14.668-2.528 21.986-.123.962.26 2.032-.525 2.876-.505-.825-.465-1.803-.408-2.65.212-3.14.448-6.283.98-9.391"/>
        <path fill="#070707" d="M64.358 23.06c-.36 1.142-1.321.92-2.136.867-.727-.048-1.318-.385-1.21-1.293.44-.115.846-.379 1.33-.282.453.526 1.1.376 1.673.481l.343.227"/>
        <path fill="#222D38" d="M107.917 46.286c-.457.866-1.223.822-1.994.625-.414-.107-.972-.199-.96-.783.013-.707.636-.446 1.03-.54.488.438 1.125.464 1.716.617.075.013.144.04.208.08"/>
        <path fill="#0F0F10" d="M107.71 46.205c-.781.373-1.486.537-1.718-.617a.457.457 0 0 0 .075-.169c.676-.008 1.418-.151 1.642.786"/>
        <path fill="#585858" d="M64.015 22.833c-.727.43-1.432.784-1.673-.48.586.061 1.362-.538 1.673.48"/>
        <path fill="#000" d="M74.403 96.795c.154-5.165 1.057-10.254 1.553-15.383.356-3.679.805-7.348 1.213-11.021l1.669-1.353c.28.225.338.546.382.874-.009 3.027-.627 5.992-.939 8.99-.34 3.272-.704 6.544-1.184 9.8-.06.408-.049.822-.045 1.234.015 1.92.826 2.865 2.733 3.104 6.667.833 13.341 1.605 20.008 2.44 2.914.364 4.306-.988 4.58-3.554a820.132 820.132 0 0 1 1.837-15.66c.101-.802.055-1.66.694-2.306 1.471 1.042 1.51 2.574 1.417 4.15.156 1.03-.046 2.036-.208 3.044-.076 2.636-.495 5.237-.804 7.848-.318 2.337-.538 4.685-.842 7.022-.204 1.114-.174 2.269-.528 3.353-.207.637-.32 1.346-.949 1.766-1.189 1.595-2.853 2.096-4.725 1.883-5.79-.66-11.572-1.377-17.357-2.072-1.994-.24-4.001-.398-5.907-1.121-1.432-.543-2.426-1.432-2.598-3.038"/>
        <path fill="#FCFDFC" d="M101.39 130.284c.248-1.4 1.679-2.582 3.024-2.52.548.024.975.239 1.21.732.25.523.228 1.058-.113 1.546-.763 1.094-2.636 1.495-3.846.831-.018-.231-.053-.454-.276-.59"/>
        <path fill="#020303" d="M102.18 123.94c.137 2.18-.718 2.925-2.777 2.417l-.459-.75c.244-2.187 1.514-2.827 3.259-1.643l-.022-.024z"/>
        <path fill="#FDFDFD" d="M129.817 114.029c.018.883-1.027 1.933-2.015 1.926-.505-.004-.708.085-1.015.534-.688 1.006-1.843 1.474-2.948 1.877-.652.239-1.266-.12-1.575-.776-.302-.641-.254-1.361.346-1.728 1.021-.624 1.919-1.649 3.277-1.468.69.092.501-.515.756-.758.612-.583 1.213-1.173 2.145-.883.613.19.962.666 1.029 1.276"/>
        <path fill="#020303" d="M124.162 110.738l.273.495c-.147 1.583-1.024 2.496-2.678 2.767-.707.116-1.29-.134-1.588-.78-.318-.686-.206-1.366.447-1.817 1.072-.741 2.216-1.234 3.546-.665"/>
        <path fill="#010202" d="M102.203 123.964c-.037-1.383 1.013-2.786 2.315-3.042.554-.109 1.108-.053 1.488.447.394.519.427 1.077.118 1.66-.832 1.572-2.522 1.965-3.943.91l.022.025"/>
        <path fill="#020303" d="M109.375 118.318c.82.076 1.442.479 1.55 1.388.096.81-1.454 2.28-2.42 2.283-.884.002-1.48-.463-1.577-1.375-.089-.84 1.416-2.245 2.447-2.296"/>
        <path fill="#FBFDFC" d="M112.559 122.591c.828.08 1.332.615 1.382 1.494.048.84-1.599 2.057-2.623 1.948-.89-.095-1.407-.62-1.38-1.549.024-.848 1.486-1.921 2.62-1.893"/>
        <path fill="#FCFDFC" d="M118.696 120.692c.11 1.428-.95 1.957-1.965 2.452-.596.291-1.169-.022-1.559-.51-.404-.506-.482-1.154-.057-1.638.771-.879 1.58-1.831 2.987-1.215.425.156.76.37.594.911"/>
        <path fill="#010202" d="M119.228 114.64c-.02.892-1.423 2.07-2.36 2.032-.894-.037-1.45-.528-1.471-1.458-.022-1.004 1.235-2.011 2.405-1.968.973.036 1.292.691 1.426 1.394"/>
        <path fill="#FDFDFD" d="M118.696 120.692l-.594-.911c-.243-1.401.693-1.98 1.756-2.374.68-.253 1.386-.118 1.782.592.41.738.231 1.406-.409 1.945-.733.618-1.586.852-2.535.748"/>
        <path fill="#010202" d="M111.527 117.876c0-1.16.932-2.142 1.908-2.148.992-.007 1.512.565 1.545 1.52.029.817-1.161 1.931-2.018 1.898-.907-.034-1.396-.55-1.435-1.27"/>
        <path fill="#FBFDFC" d="M107.32 128.344c-.716-.127-1.324-.597-1.245-1.51.087-1.013.753-1.697 1.774-1.738.869-.036 1.447.503 1.482 1.434.033.882-.978 1.85-2.01 1.814"/>
        <path fill="#FE7900" d="M35.448 78.325c-.332-.59-.282-1.237-.283-1.877-.015-7.781-.02-15.563-.047-23.345-.023-6.452-.08-12.904-.106-19.356-.016-3.604.968-4.558 4.52-4.62 7.363-.132 14.726-.302 22.089-.455.366-.007.733-.01 1.099 0 3.48.087 4.455 1.092 4.47 4.553.05 12.22.103 24.44.165 36.66.01 2.012.097 4.024.102 6.036.005 2.557-1.074 3.79-3.642 4.075-3.19.354-6.399.202-9.599.273-2.699.06-5.399.064-8.1.093-.227-.02-.454-.054-.681-.055-2.267-.005-2.35.298-1.564-2.091.74-2.252 1.525-4.488 2.29-6.73.083-1.214.54-2.2 1.685-2.77 2.556-.333 2.555-.333 2.556-2.96.002-2.288-.021-4.575.01-6.862.023-1.797.31-2.076 2.075-2.111 1.875-.038 3.75.013 5.625-.066.98-.04 1.42-.426 1.364-1.422-.044-.775.015-1.555-.02-2.332-.058-1.305-.321-1.59-1.66-1.64-1.828-.066-3.66.018-5.488-.037-1.525-.046-1.82-.364-1.896-1.886-.179-3.538-.113-3.596 3.393-3.618 1.601-.01 3.202-.05 4.801.006.977.034 1.436-.372 1.411-1.37-.024-.96 0-1.92-.01-2.881-.008-.768-.328-1.23-1.142-1.204-4.574.15-9.133-.503-13.71-.252-1.511.083-1.594.148-1.596 1.716-.011 7.135 0 14.271-.01 21.407-.002.766.13 1.568-.385 2.252-2.15 1.866-3.119 4.428-4.163 6.96-.883 2.143-1.72 4.33-3.553 5.91"/>
        <path fill="#FEFEFE" d="M43.164 65.456c-.01-8.284-.012-16.57-.048-24.854-.003-.743.25-.886.936-.878 5.124.063 10.248.106 15.372.103.841 0 1.121.222 1.078 1.076a40.848 40.848 0 0 0 0 4.118c.046.892-.219 1.196-1.14 1.165-2.513-.083-5.03-.048-7.544-.114-.745-.02-1.09.127-1.009.96.123 1.267-.513 2.916.244 3.714.764.805 2.422.202 3.687.245 1.372.047 2.746.021 4.12.017.68-.001 1.092.16 1.05 1.006a45.323 45.323 0 0 0-.002 4.255c.032.723-.263.813-.874.807-2.334-.025-4.67.041-7.002-.02-.946-.025-1.25.23-1.23 1.207.06 3.157-.026 6.318.049 9.474.026 1.097-.278 1.468-1.364 1.292-.625-.1-1.278-.032-1.92-.04-.34-.87.274-1.557.48-2.312.227-.83.17-1.503-.518-2.063-1.659-.774-2.974.23-4.365.842"/>
        <path fill="#7F6059" d="M47.529 64.614c1.112-.105 1.25.591 1.037 1.397-.268 1.01-.66 1.987-.998 2.979l-1.407 2.495c-.166-.203-.295-.06-.458.026-1.214.64-1.766.329-1.737-1.073.054-2.615 1.328-4.523 3.563-5.824"/>
        <path fill="#FEFEFE" d="M106.903 73.96c-.74 6.301-1.475 12.604-2.224 18.904-.224 1.89-1.544 3.061-3.574 3.058-2.838-.005-5.627-.581-8.439-.885-4.266-.46-8.52-1.04-12.779-1.56-2.594-.316-3.545-1.423-3.25-4.002.681-5.942 1.412-11.879 2.115-17.818.07-.589.088-1.184.13-1.776.25-.44-.044-.965.217-1.404.339-.4.645-.815.579-1.385l-.002.007c.63-1.017-.27-2.014-.04-3.026-.5-1.16-.144-2.237.324-3.303.436-.768.669-1.583.578-2.474-.289-.347-.184-.725-.087-1.102.207-1.723.398-3.448.626-5.168.312-2.359 1.486-3.262 3.85-2.985 6.803.8 13.608 1.575 20.405 2.423 2.626.328 4.164 1.399 3.728 4.568-.318 2.307-.557 4.624-.831 6.936-.572-.08-.613-.612-.81-.988-.613-1.175-.88-1.246-1.803-.264-1.53 1.629-1.668 3.693-1.599 5.756.071 2.103.627 4.053 2.43 5.403.377.282.41.679.456 1.085"/>
        <path fill="#7C7878" d="M107.128 89.026c.115-2.66.567-5.281.876-7.919.081-.091.167-.095.257-.012.207 3.158-.542 6.227-.86 9.336-.714-.347-.344-.905-.273-1.405"/>
        <path fill="#7B7676" d="M107.128 89.026c.093.468-.17 1.006.273 1.405l-.821 6.87c-.73-.242-.317-.764-.293-1.19.109-2.382.404-4.742.841-7.085"/>
        <path fill="#66423E" d="M109.835 65.386l.075.304c-.689 1.087-1.683 1.448-2.824.916-.82-.383-1.72-.887-1.492-2.119.158.022.288.002.321.05 1.247 1.78 1.413 1.82 3.768.877.05-.016.1-.025.152-.028"/>
        <path fill="#797372" d="M106.287 96.11c.089.4-.11.869.293 1.19-.187.917-.33 1.847-.578 2.747-.136.493-.302 1.079-1.012 1.096.895-1.558.893-3.348 1.297-5.032"/>
        <path fill="#6A6564" d="M108.26 81.095a6.178 6.178 0 0 0-.256.012c-.169-1.028.28-1.99.316-2.997.304 1.002.372 1.999-.06 2.985"/>
        <path fill="#8B8B8B" d="M50.884 84.834c-1.095 0-2.192.039-3.284-.014-.642-.032-1.364-.193-1.443-.984-.088-.896.71-.99 1.316-1.05 2.633-.264 5.274-.346 7.913-.056.53.058 1.197.087 1.195.832 0 .716-.573.988-1.195 1.097-1.491.264-2.999.177-4.502.175"/>
        <path fill="#545454" d="M51.122 27.464c-1.689 0-3.378.027-5.065-.017-.463-.012-1.163 0-1.211-.628-.054-.716.652-.847 1.178-.855 2.086-.029 4.194-.164 6.253.082 1.425.17 2.811-.452 4.204.032.404.14 1.079-.02 1.078.582 0 .712-.714.78-1.234.793-1.733.043-3.468.016-5.203.016v-.005z"/>
        <path fill="#66423E" d="M80.45 57.194c.022.368.39.708.088 1.102-.93.566-1.428 1.821-2.818 1.669-.565-.063-.974-.208-1.145-.769-.034-.11-.017-.287.052-.361.063-.066.285-.089.345-.033 1.443 1.375 2.034-.192 2.877-.84.167-.128.245-.372.364-.564l.238-.204"/>
        <path fill="#76706F" d="M78.764 56.671l-.387.959c-.214-1.482.024-2.899.452-4.294.12.06.202.153.247.279l-.312 3.056"/>
        <path fill="#827E7F" d="M79.076 53.615l-.247-.28c.15-.341-.274-.855.32-1.065-.025.448-.05.897-.073 1.345"/>
        <path fill="#060505" d="M79.96 60.77l-.324 3.302c-.166 1.067-.916 1.339-1.85 1.358-.43-.956-.037-1.843.23-2.74a11.318 11.318 0 0 1 1.944-1.92"/>
        <path fill="#6A4642" d="M79.678 67.092c-.601.301-1.212.586-1.801.909-.525.287-.966.095-1.385-.197-.127-.089-.265-.29-.251-.426.032-.32.343-.306.519-.205.878.5 1.48-.106 2.075-.539.718-.523.836-.186.841.465l.002-.007z"/>
        <path fill="#767171" d="M78.016 62.69l-.23 2.74c-.65-.51-.52-2.047.23-2.74"/>
        <path fill="#4B3E3E" d="M79.116 68.477c.011.481.11.974-.231 1.404l-.047-.843c.01-.223.046-.434.278-.56"/>
        <path fill="#827F7F" d="M87.53 96.669c1.717.225 3.439.416 5.146.695.64.105 1.54.225 1.415 1.14-.103.76-.832 1.067-1.587.994-2.087-.2-4.172-.423-6.253-.67-.726-.087-1.41-.396-1.324-1.264.086-.864.874-.778 1.497-.825.363-.027.73-.005 1.095-.005l.011-.065"/>
        <path fill="#FE7900" d="M86.52 82.529c.531-7.223 1.026-13.735 1.474-20.25.066-.95.299-1.358 1.364-1.253 3.683.36 7.373.647 11.064.922.89.066 1.389.304 1.106 1.311-.086.302-.078.632-.105.95-.239 2.811-.238 2.811-3.09 2.554-1.225-.11-2.455-.197-3.677-.341-.653-.078-.953-.002-1.007.8-.205 3.008-.244 2.997 2.8 3.17 1.094.062 2.184.202 3.278.26.583.03.8.225.726.84a30.47 30.47 0 0 0-.209 3.005c-.014.754-.363.924-1.04.86-1.683-.157-3.38-.2-5.05-.435-.902-.126-1.092.172-1.137.966-.128 2.28-.387 4.554-.448 6.834-.034 1.24-.49 1.58-1.644 1.372-.851-.153-1.724-.192-2.59-.243-1.875-.112-1.876-.102-1.815-1.322"/>
    </g>
</svg>
