<svg xmlns="http://www.w3.org/2000/svg" xmlns:xlink="http://www.w3.org/1999/xlink" width="170" height="169" viewBox="0 0 170 169">
    <defs>
        <circle id="a" cx="84.5" cy="84.5" r="84.5"/>
        <path id="c" d="M0 179.563h109.85V0H0z"/>
    </defs>
    <g fill="none" fill-rule="evenodd" transform="translate(.096)">
        <mask id="b" fill="#fff">
            <use xlink:href="#a"/>
        </mask>
        <use fill="#A885D8" fill-rule="nonzero" xlink:href="#a"/>
        <g mask="url(#b)">
            <g transform="translate(31.688 21.125)">
                <path fill="#6C382D" d="M50.7 107.484c0 2.473 2.365 4.479 5.281 4.479 2.916 0 5.282-2.006 5.282-4.48V69.968c0-2.474-2.366-4.48-5.282-4.48s-5.281 2.006-5.281 4.48v37.517z"/>
                <path fill="#62342D" d="M92.95 53.869c0 5.25-3.31 9.506-7.394 9.506-4.083 0-7.394-4.256-7.394-9.506s3.311-9.507 7.394-9.507 7.394 4.256 7.394 9.507"/>
                <path fill="#7C5346" d="M86.612 48.587c0 19.834-13.713 35.913-30.63 35.913-16.918 0-30.632-16.079-30.632-35.913 0-19.833 13.714-35.912 30.631-35.912 16.918 0 30.631 16.079 30.631 35.912"/>
                <path fill="#6C382D" d="M31.688 53.869c0 5.25-3.311 9.506-7.394 9.506-4.084 0-7.394-4.256-7.394-9.506s3.31-9.507 7.394-9.507c4.083 0 7.393 4.256 7.393 9.507"/>
                <path fill="#000" d="M57.819 17.107c-9.387 5.694-30.36 19.45-35.502 25.143 0 0-10.644-38.025 31.677-38.025 0 0 36.651 0 29.607 38.025 0 0-3.998-15.538-18.414-29.183l-7.368 4.04zM56.695 144.002l-4.75-49.817-10.67-1.235-13.813 5.682v80.93H86.613v-80.93L72.8 92.95l-11.36.426z"/>
                <path fill="#000" d="M90.832 179.563c-2.886-10.98-7.313-22.852-10.41-33.793-2.095-7.412-3.384-15.031-5.132-22.529a157.332 157.332 0 0 0-2.902-10.782c-1.179-3.806-1.904-5.769-3.692-9.067-5.118-9.437 9.066-17.86 14.18-8.429 7.427 13.692 10.27 29.576 14.13 44.467 1.554 5.985 2.436 11.748 4.598 17.523 2.573 6.877 4.579 15.425 6.133 22.61H90.832zM16.905 179.563c2.886-10.98 7.313-22.852 10.41-33.793 2.096-7.412 3.385-15.031 5.132-22.529a157.115 157.115 0 0 1 2.903-10.782c1.178-3.806 1.903-5.769 3.692-9.067 5.117-9.437-9.066-17.86-14.181-8.429-7.427 13.692-10.27 29.576-14.131 44.467-1.552 5.985-2.435 11.748-4.597 17.523C3.56 163.83 1.554 172.378 0 179.563h16.905z"/>
                <path fill="#000" d="M58.587 88.909l-4.952 19.897-4.017-20.081-13.706 5.886 17.523 63.016.23.81.236-.833L71.825 94.82z"/>
                <path fill="#A5A5A5" d="M53.139 122.852c-.327 0-.327 0-.327-.327M53.139 137.64c-.327 0-.327 0-.327-.327"/>
                <path fill="#000" d="M68.783 12.803c-2.135 1.694-4.25 3.262-6.293 5.092-2.158 1.933-4.258 3.936-6.434 5.846-2.17 1.904-4.415 3.726-6.687 5.495-2.276 1.773-4.774 3.257-6.877 5.254-.608.577.034 1.598.775 1.397 5.268-1.434 10.097-5.672 14.17-9.305 2.074-1.848 4.126-3.745 6.057-5.756 2.155-2.244 4.04-4.616 6.062-6.973.454-.53-.164-1.533-.773-1.05M38.025 51.756c0 2.917-.946 5.282-2.113 5.282-1.166 0-2.112-2.365-2.112-5.282 0-2.916.946-5.281 2.112-5.281 1.167 0 2.113 2.365 2.113 5.281M34.85 40.033c.917-.62 2.536-1.03 4.244-1.174 1.795-.151 3.276.145 4.736.538.263.071.601-.046.52-.166-.655-.973-3.1-1.333-5.337-1.167-2.407.178-4.26.858-5.173 1.792-.243.248.694.391 1.01.177"/>
                <path fill="#000" d="M33.82 46.707c.448.804 1.068 1.752 1.928 1.88.136.02.224-.233.116-.333-.316-.294-.686-.473-1.005-.767a6.67 6.67 0 0 1-.836-.965c-.096-.131-.284.04-.203.185M63.375 51.756c0 2.917.946 5.282 2.112 5.282 1.167 0 2.113-2.365 2.113-5.282 0-2.916-.946-5.281-2.113-5.281-1.166 0-2.112 2.365-2.112 5.281M73.897 39.856c-.912-.933-2.766-1.614-5.173-1.792-2.236-.166-4.681.194-5.337 1.167-.08.12.257.237.52.166 1.469-.395 2.93-.686 4.736-.537 1.707.14 3.33.555 4.244 1.174.312.211 1.256.073 1.01-.178M69.49 46.522a6.72 6.72 0 0 1-.837.965c-.318.295-.689.473-1.005.767-.107.1-.02.353.117.332.86-.127 1.48-1.075 1.928-1.879.08-.143-.106-.317-.203-.185"/>
                <path fill="#6C382D" d="M51.831 50.898c.193 2.881-.333 6.38-2.517 7.518-1.44.75-.513 3.654.815 2.63 1.3-1.004 2.315-2.491 2.595-4.54.285-2.084-.173-3.717-.596-5.662-.046-.213-.313-.185-.297.054M84.24 46.48c-1.162.33-1.653 2.788-1.807 5.037-.105 1.531-.117 5.47.971 5.52.08.004.173-.163.163-.348-.088-1.5-.44-2.742-.411-4.34.03-1.665.31-4.161 1.157-4.728.275-.184.243-1.23-.072-1.14"/>
                <path fill="#F6A152" d="M19.2 47.621c.848.567 1.126 3.06 1.157 4.728.029 1.605-.324 2.837-.411 4.34-.01.185.083.352.162.348 1.088-.049 1.076-3.99.971-5.52-.154-2.25-.644-4.707-1.807-5.037-.312-.088-.35.955-.072 1.141"/>
                <path fill="#000" d="M25.35 62.99a4.609 4.609 0 0 1-4.609 4.61h-3.457a4.61 4.61 0 0 1-4.609-4.61V46.86a4.61 4.61 0 0 1 4.61-4.61h3.456a4.609 4.609 0 0 1 4.609 4.61v16.13zM84.5 62.99a4.609 4.609 0 0 0 4.61 4.61h3.456a4.61 4.61 0 0 0 4.609-4.61V46.86a4.61 4.61 0 0 0-4.61-4.61H89.11a4.609 4.609 0 0 0-4.609 4.61v16.13z"/>
                <path stroke="#000" stroke-width="4.75" d="M16.9 46.475C16.9 20.807 33.451 0 53.869 0c20.417 0 36.969 20.807 36.969 46.475"/>
                <path stroke="#000" stroke-width="3.712" d="M86.612 50.7c0 12.834-9.457 23.237-21.124 23.237"/>
                <path fill="#000" d="M69.713 71.825c0 1.167-1.892 2.112-4.226 2.112-2.333 0-4.224-.945-4.224-2.112 0-1.167 1.89-2.112 4.224-2.112 2.334 0 4.226.945 4.226 2.112"/>
                <path fill="#6C382D" d="M46.588 71.412c2.57 3.84 10.697 3.086 12.503-.807.415-.893-1.488-1.276-1.899-.39-1.292 2.786-7.144 3.086-8.903.458-.565-.843-2.265-.102-1.701.74"/>
                <mask id="d" fill="#fff">
                    <use xlink:href="#c"/>
                </mask>
                <path fill="#FF7900" d="M31.688 126.75h14.787v-14.787H31.687z" mask="url(#d)"/>
            </g>
        </g>
    </g>
</svg>
