<svg xmlns="http://www.w3.org/2000/svg" xmlns:xlink="http://www.w3.org/1999/xlink" width="94" height="80" viewBox="0 0 94 80">
    <defs>
        <path id="a" d="M.186 50.449c0 27.738 22.562 50.224 50.394 50.224 27.832 0 50.395-22.486 50.395-50.224C100.975 22.711 78.412.225 50.58.225 22.748.225.186 22.711.186 50.45z"/>
    </defs>
    <g fill="none" fill-rule="evenodd" transform="translate(-7)">
        <mask id="b" fill="#fff">
            <use xlink:href="#a"/>
        </mask>
        <path fill="#A885D8" d="M-2.405 109.963H105.21V-8.217H-2.405z" mask="url(#b)"/>
        <path fill="#FFF" d="M13.649 44.383l-4.677.488c-1.292.134-.893 2.109.392 1.975l4.676-.488c1.293-.134.893-2.109-.391-1.975M17.877 34.463l-2.88-.824c-1.247-.357-1.914 1.544-.662 1.903l2.88.823c1.248.357 1.914-1.544.662-1.902M86.143 31.28L81.78 32.36c-1.258.31-.911 2.295.352 1.982l4.363-1.077c1.258-.311.912-2.296-.352-1.983M79.404 20.707l-4.45 2.534c-1.122.64-.277 2.47.852 1.826l4.45-2.534c1.122-.639.277-2.469-.852-1.826M70.405 12.121l-3.569 3.542c-.915.908.385 2.45 1.308 1.535l3.569-3.542c.915-.909-.385-2.45-1.308-1.535M87.235 44.713l-3.745-.75c-.535-.108-1.048.424-1.089.921-.049.595.388.978.925 1.085l3.745.75c.535.108 1.048-.423 1.089-.92.048-.595-.388-.978-.925-1.086M79.296 57.713l-1.592-.846c-.481-.256-1.073-.218-1.404.266-.282.412-.218 1.141.266 1.399l1.592.846c.481.256 1.073.218 1.404-.266.282-.412.218-1.141-.266-1.399" mask="url(#b)"/>
        <path fill="#D5D5D5" d="M20.863 67.672s11.664 8.037 12.282 8.217c.617.18 49.232 0 49.232 0l-13.054-8.516-47.401-2.005-1.059 2.304z" mask="url(#b)"/>
        <path fill="#AAA" d="M29.64 66.634l8.639 6.885.8-3.523-8.444-4.515z" mask="url(#b)"/>
        <path fill="#085EBD" d="M71.662 67.067c4.721 3.122 9.447 6.235 14.156 9.374.656.437 1.032 1.096.977 1.931-.412.392-.939.336-1.437.336-18.44.008-36.881.009-55.322.002-.361 0-.724-.007-1.072-.114-.703-.68-.684-1.144.079-1.973.762-.826.767-.834-.154-1.446-4.33-2.88-8.664-5.752-12.988-8.638-.436-.29-.975-.502-1.123-1.088.196-.272.47-.175.706-.176 3.831-.006 7.662-.01 11.494.002.443.002 1.162-.222.838.715h-5.07c-.079.434.253.466.43.586 3.698 2.52 7.406 5.021 11.099 7.547.5.341.993.5 1.603.499 13.954-.014 27.908-.01 41.861-.014.162 0 .355.1.578-.195l-5.974-4.003c-1.514-.461-2.642-1.552-3.92-2.397-.157-.105-.128-.322-.045-.5 1.017-.72 2.146-.618 3.284-.448" mask="url(#b)"/>
        <path fill="#000" d="M28.658 78.347c4.99.008 9.979.022 14.968.023 14.39.003 28.78.002 43.17.002.121.553-.234.978-.396 1.455-.166.744-.72 1.042-1.394 1.182-.5.103-1.01.08-1.516.08-17.149.001-34.298 0-51.446.003-1.177 0-2.332-.027-3.201-.993-.353-.552-.643-1.114-.185-1.752" mask="url(#b)"/>
        <path fill="#000" d="M29.016 79.868c.67.693 1.484.912 2.447.91 17.469-.016 34.936-.017 52.404.003 1.005.001 1.843-.228 2.533-.954.311.686 1.26 1.196.803 2.089-.492.962-1.492.53-2.266.531-17.257.023-34.515-.02-51.771.057-2.668.011-4.901-.67-7.017-2.252-4.12-3.083-8.329-6.05-12.51-9.053-.697-.501-1.09-1.053-.607-1.907.43-.197.667.165.946.35 4.362 2.905 8.73 5.802 13.098 8.696.691.459 1.357.94 1.94 1.53" mask="url(#b)"/>
        <path fill="#FE7702" d="M29.977 66.636c-.176.029-.475.045-.422-.152.307-1.153-.363-1.721-1.27-2.123.065-.132.103-.24.12-.237 1.236.23 1.58-.38 1.691-1.518.136-1.392.525-2.758.757-4.143.102-.605.395-.814.992-.9 8.606-1.244 17.02-3.267 25.18-6.286.653-.241.96-.075 1.351.394 1.27 1.526 2.617 2.99 3.856 4.54.55.69 1.138.951 1.934.644 1.186-.459 1.804-.034 2.433 1.052 1.606 2.774 3.393 5.445 5.08 8.174.125.204.88.569-.004.827-2.487.348-4.942.957-7.477.907-.244-.037-.47-.107-.601-.34.16-.462.572-.326.9-.362 1.752-.19 3.5-.404 5.252-.582 1.025-.104 1.077-.23.524-1.107a189.253 189.253 0 0 1-4.388-7.312c-.422-.742-.914-.877-1.567-.665.448-.096 1.003-.23 1.327.338 1.57 2.747 3.334 5.38 4.829 8.172-.077.412-.32.347-.59.204-.47-.414-.733-.975-1.043-1.5-.28-.475-.564-.523-.887-.055-.537.777-1.24 1.404-1.895 2.077-.238.189-.495.339-.796.402-3.317.492-6.667.57-10.003.689-3.635.13-7.285.273-10.922-.116-.896-.096-1.806.078-2.697-.135-.346-.207-.719-.398-.555-.912 1.172-.408 2.411-.353 3.62-.514 1.825-.244 3.649-.504 5.485-.655.17-.041.343-.047.516-.022.61.192 1.24.374 1.808.654 1.43.706 2.538.238 3.554-.79.25-.253.493-.518.81-.697a1.69 1.69 0 0 1 .297-.118c2.545-.515 5.127-.81 7.678-1.288.307-.058.73.054.876-.285.158-.367-.297-.517-.449-.782-.752-1.313-1.856-.919-2.944-.61-1.442.24-2.84.658-4.25 1.025a2.203 2.203 0 0 1-.324.102c-1.235.434-2.528.614-3.801.877-.437.08-.87.186-1.31.242-1.218.578-2.537.666-3.848.803-.989.163-1.964.415-2.972.452-.297-.047-.61-.071-.704-.439.615-.726 1.529-.573 2.311-.712 5.303-.942 10.54-2.162 15.733-3.574 1.093-.298 1.095-.349.334-1.254-1.715-2.04-3.493-4.026-5.128-6.133-.446-.574-.894-1.054-1.814-.716-7.45 2.733-15.161 4.448-22.966 5.786-.25.07-.501.132-.753.192-.333.12-.782-.22-1.024.263-.643 2.315-.741 4.717-1.186 7.063-.175.41-.124.948-.658 1.155" mask="url(#b)"/>
        <path fill="#BCBCBC" d="M72.486 70.732c.232 2.87.232 2.87-2.575 2.87-10.254 0-20.507-.019-30.76.026-1.101.004-1.525-.272-1.36-1.373.074-.493.028-1.005.036-1.508.507-.403 1.108-.262 1.672-.262 10.22-.01 20.438-.01 30.658 0 .78 0 1.594-.217 2.33.247" mask="url(#b)"/>
        <path fill="#4BB3E5" d="M29.016 79.868c-3.08-2.018-6.163-4.027-9.235-6.056-2.259-1.492-4.5-3.012-6.75-4.52-.628-.887-.884-1.83-.293-2.824.57-.956 1.48-1.308 2.57-1.306 3.944.01 7.887.003 11.83.005.555 0 1.192-.054.678.825.05-.46-.148-.633-.62-.632-4.067.012-8.133.007-12.528.007L30.461 75.88c-.932.657-1.987 1.147-1.802 2.466-.194.58.15 1.034.357 1.52" mask="url(#b)"/>
        <path fill="#FE7002" d="M51.026 32.28c.382-.325.633-.04.917.179a66.012 66.012 0 0 0 6.734 4.525c.714.418.64.704.232 1.298-5.832 8.523-13.963 13.58-23.959 15.837-.774.175-1.58.24-2.331.481-.862.278-1.374-.016-1.926-.665-3.203-3.77-6.246-7.653-8.792-11.903-.144-.24-.278-.485-.468-.82 1.738-.134 3.377-.22 5.006-.394 3.99-.426 7.76-1.624 11.37-3.346l.136.085c.284.745-.382.852-.78 1.044-2.916 1.41-5.993 2.327-9.196 2.803-1.64.243-3.278.538-5.01.436.036.582.385.924.624 1.296 2.286 3.557 4.895 6.868 7.668 10.057.44.506.87.602 1.51.478 6.976-1.352 13.376-3.98 18.797-8.637 2.186-1.877 4.208-3.96 5.905-6.316.653-.908.641-.925-.314-1.56-1.805-1.198-3.636-2.362-5.339-3.707-.35-.277-.85-.46-.863-1.03l.08-.14z" mask="url(#b)"/>
        <path fill="#FE6F04" d="M37.808 37.472c-1.812-1.09-3.711-2.03-5.435-3.276-.759-.549-.667-.82-.02-1.378 3.947-3.408 7.578-7.107 10.332-11.576C44.4 18.46 45.66 15.49 46.23 12.26c.101-.576.196-.79.867-.584 3.556 1.092 7.214 1.49 10.918 1.282 1.148-.065 1.107.398.978 1.23-.988 6.334-3.745 11.9-7.392 17.087-.22.314-.57.565-.576 1.005l.02-.023c-.222.303-.335.666-.538.98-.488.782-1.035 1.517-1.702 2.159-.377.364-.775.709-1.045 1.17-.052.083-.111.16-.174.235-.519.591-1.166 1.067-1.579 1.754-.055.088-.118.17-.185.25-.777 1.131-1.728 1.276-2.994.751-1.394-.577-2.86-.985-4.252-1.586-.317-.094-.523-.355-.796-.517l.027.02z" mask="url(#b)"/>
        <path fill="#F5892E" d="M72.486 70.732l-34.659.015c-1.96-1.321-3.921-2.64-5.877-3.966-.636-.43-1.327.062-1.973-.145l.405-1.05c.528.407 1.138.444 1.744.3.57-.134 1.141-.143 1.717-.167.359.012.708-.035 1.05-.146 3.116-.236 6.188-.805 9.286-1.178.352-.043.711-.185 1.003.15.178.225.432.16.666.174-.103.593-.628.518-1.014.585-1.703.3-3.421.508-5.135.722-.643.135-1.341-.035-1.996.292l1.103.901c-.6.286-1.22.198-1.84.107-.539-.005-.218-.824-.779-.81-.833.274-1.706.187-2.545.306 1.366 1.177 2.938 2.036 4.417 3.03.32.215.688.197 1.048.197 10.227.006 20.456.007 30.683.001a.42.42 0 0 0 .221-.051c-.287-.256-.626-.427-.935-.639-.491-.367-1.02-.684-1.511-1.052-.253-.189-.636-.402-.417-.758.145-.237.531-.133.812-.058.18.048.325.152.406.329l3.979 2.592.141.32" mask="url(#b)"/>
        <path fill="#DFD8CF" d="M68.366 67.82c-.357-.118-.672-.45-1.188-.166l1.904 1.392c-.057.174-.169.283-.357.305a.962.962 0 0 1-.585-.232c-1.051-.918-2.294-1.203-3.651-1.13-.207-.077-.464-.11-.402-.434l7.587-.647a.885.885 0 0 1-.011.16c-.781.098-1.565.173-2.34.305-.344.059-.837-.115-.957.448" mask="url(#b)"/>
        <path fill="#FE7900" d="M32.806 57.992c.162-.227.406-.182.634-.187a120.84 120.84 0 0 0 22.605-5.515c1.556-.543 1.564-.53 2.577.773 1.634 2.1 3.437 4.063 5.105 6.135.02.176-.038.314-.19.409-.795.084-.967-.65-1.367-1.064-.377-.39-.608-.414-.891.082-.43.75-.868 1.498-1.42 2.172-.195.282-.422.525-.757.642-6.89 1.757-13.883 2.97-20.926 3.902-.641.085-1.286.178-1.93.235-1.047-.373-2.02-.941-3.088-1.255-.354-.104-.825-.782-1.142.006-.26.648.034 1.005.754 1.055.23.016.703.087.282.534-.579-.03-1.143.106-1.718.13-.54.021-.754-.198-.692-.676.308-2.398.403-4.833 1.226-7.141.554-.257.81-.1.776.53-.02.384-.262.749-.09 1.228.926-.538 1.761-1.157 2.63-1.73-.516.04-1.019.256-1.542.219-.333-.024-.83.137-.836-.484" mask="url(#b)"/>
        <path fill="#FEF5ED" d="M63.639 59.309c-1.88-2.236-3.783-4.453-5.62-6.723-.437-.54-.801-.519-1.359-.319-7.048 2.534-14.301 4.278-21.68 5.516-.483.08-1.026.36-1.54.022 1.65-.632 3.416-.712 5.126-1.044 6.174-1.2 12.234-2.807 18.152-4.93.712-.255 1.068-.144 1.514.43 2.058 2.646 4.266 5.17 6.613 7.815-6.536 1.953-13.075 3.313-19.663 4.47-2.99.406-5.98.817-8.973 1.213-.462.061-.934.05-1.4.074-.167.074-.364.135-.456-.06-.094-.203.104-.289.256-.362.479-.231.963-.01 1.444-.013a178.575 178.575 0 0 0 23.217-4.191c1.075-.617 2.297-.783 3.454-1.148.358-.112 1.053.024.915-.75" mask="url(#b)"/>
        <path fill="#9B4700" d="M62.404 61.257c1.948-.679 2.838-.344 3.845 1.485.392.712-.317.593-.596.646-1.304.245-2.62.439-3.932.636-1.526.23-3.054.444-4.58.665.153-.797.232-1.616.684-2.326l.092-.011a73.663 73.663 0 0 0 4.487-1.095" mask="url(#b)"/>
        <path fill="#FEF5ED" d="M36.776 67.07c.726.02 1.453.038 2.179.057.827-.163 1.649-.204 2.453.113 4.658.366 9.324.369 13.986.2 3.395-.124 6.785-.392 10.177-.596 1.426-.553 2.924-.569 4.421-.585.194-.002.458.122.396-.26-1.52-2.53-3.072-5.042-4.54-7.602-.409-.712-.829-1.015-1.62-.766-.219.069-.475.245-.687-.038 1.455-.786 1.847-.677 2.642.66 1.635 2.751 3.286 5.493 5 8.355-2.537.34-5.019.622-7.52.748-.668.416-1.438.461-2.177.482-2.81.082-5.612.297-8.427.236-3.283-.07-6.573.108-9.852-.042-2.256-.104-4.536-.045-6.766-.53a.38.38 0 0 1-.216-.328c.152-.202.343-.199.55-.103" mask="url(#b)"/>
        <path fill="#FBB477" d="M36.289 67.313c7.065.585 14.145.518 21.223.387 2.052-.038 4.101-.225 6.152-.344l.423.2c.145.08.29.163.436.244-.069.36-.375.452-.648.445-1.397-.035-2.772.437-4.177.18-.669-.218-1.37-.219-2.04-.129-2.988.4-5.986.19-8.98.198-.434.001-.866.003-1.284.141-2.522.185-5.03-.162-7.545-.244-.64-.02-1.285-.104-1.93-.096-.333.074-.668.021-1.003.018-.517-.159-1.037-.31-1.574-.398a.475.475 0 0 1-.209-.199c.165-.759.69-.5 1.156-.403" mask="url(#b)"/>
        <path fill="#9B4702" d="M39.6 65.787c1.889-.287 3.777-.575 5.666-.856.211-.032.428-.03.582-.211l2.985-.433c.612.34 1.367.505 1.598 1.307-1.186.42-2.446.411-3.67.56-1.872.227-3.74.582-5.64.537-.765.13-1.36-.024-1.52-.904" mask="url(#b)"/>
        <path fill="#9B93AC" d="M50.431 65.595c-.53-.44-1.191-.72-1.598-1.308 1.269-.226 2.582-.243 3.78-.803.504.35 1.017.737 1.283-.232l3.929-.89c.125.88-.167 1.636-.685 2.327l-.222.085a14.241 14.241 0 0 1-6.1.864l-.387-.043" mask="url(#b)"/>
        <path fill="#FDFBFA" d="M50.817 65.638l6.1-.864c-1.908 2.242-3.23 2.43-6.1.864" mask="url(#b)"/>
        <path fill="#FEFCFA" d="M65.994 66.451c.682-.789 1.396-1.553 2.034-2.376.393-.506.562-.35.806.096.344.629.73 1.236 1.1 1.852-.419.654-1.134.34-1.687.432-.722.12-1.508.42-2.253-.004" mask="url(#b)"/>
        <path fill="#FEEFE2" d="M32.806 57.992c.594.516 1.21.088 1.815.04.38-.031.76-.072 1.387-.132a30.491 30.491 0 0 1-3.796 2.653c-.165-.725.083-1.333.188-1.942.05-.296.002-.384-.26-.415-.146-.073-.352-.001-.45-.185.363-.503.747.183 1.116-.019" mask="url(#b)"/>
        <path fill="#AA969E" d="M39.6 65.787c.42.446.929.744 1.52.904.062.202.468.223.29.549-.826.082-1.65.166-2.456-.113-.367-.315-.813-.165-1.226-.203-.248-.022-.526.002-.561-.34-.033-.316.084-.53.427-.623.66-.18 1.333-.17 2.007-.174" mask="url(#b)"/>
        <path fill="#FEF5ED" d="M31.69 58.01l.45.186c-.512.334-.39.897-.467 1.369-.291 1.806-.533 3.62-.817 5.429-.104.666-.022 1.02.8.837.482-.107 1.004-.038 1.508-.048.302-.16.584-.25.709.204-.95.086-1.902.15-2.847.266-.565.07-.66-.223-.644-.666.297-2.348.575-4.699 1.067-7.017.043-.2 0-.442.24-.56" mask="url(#b)"/>
        <path fill="#FEF7F1" d="M63.925 58.144c1.409-.37 1.551-.237 2.503 2.196-1.173-.367-1.58-1.442-2.503-2.196" mask="url(#b)"/>
        <path fill="#FEA051" d="M65.994 66.451c1.337.07 2.646-.102 3.94-.428.154.058.317.272.454-.023.324.346.056.417-.223.442-1.53.14-3.062.27-4.593.402l.422-.393" mask="url(#b)"/>
        <path fill="#B67143" d="M62.404 61.257c-1.439.593-2.93.975-4.487 1.095 1.46-.508 2.946-.914 4.487-1.095" mask="url(#b)"/>
        <path fill="#9C4707" d="M53.896 63.253c-.032.268.697.588.032.77-.472.13-1.236.482-1.317-.539l1.285-.231" mask="url(#b)"/>
        <path fill="#FDFDFD" d="M37.781 37.453l.857.269c.09.242-.031.418-.184.584-2.52 1.57-5.32 2.4-8.18 3.078-2.172.515-4.4.672-6.703.962 1.49 2.513 3.218 4.728 4.927 6.952.946 1.23 1.992 2.38 2.984 3.572.33.397.649.475 1.124.385 6.986-1.315 13.353-3.94 18.8-8.612 2.072-1.777 3.873-3.771 5.522-5.927.49-.641.451-1.003-.278-1.427-1.658-.962-3.198-2.108-4.722-3.266-.535-.406-1.085-.7-1.758-.743.282-.35.384-.853.877-1.023.034.428.405.571.681.786 1.912 1.485 3.895 2.873 5.972 4.111.747.446.716.725.252 1.365-5.97 8.22-14.096 13.003-23.934 15.204-1.75.392-2.777.07-3.893-1.335-2.716-3.419-5.434-6.823-7.805-10.737 1.941-.074 3.753-.214 5.549-.5 3.303-.525 6.477-1.454 9.48-2.936.287-.142.868-.185.432-.762" mask="url(#b)"/>
        <path fill="#FE7900" d="M50.17 33.28c.441-.358.793-.363 1.288.036a49.555 49.555 0 0 0 5.683 3.951c.742.444.693.742.22 1.38-5.857 7.902-13.777 12.483-23.282 14.656-1.73.396-2.716.04-3.789-1.337-2.28-2.93-4.631-5.802-6.633-8.935-.186-.292-.484-.541-.467-.992 5.347-.312 10.506-1.344 15.248-3.953.286-.174.54-.055.817.054 1.205.476 2.422.917 3.655 1.318 1.744.568 1.741.577 2.92-.918l-.01.011c.491-.736 1.27-1.216 1.75-1.96l-.012.013c.297-.527.907-.817 1.098-1.426a8.178 8.178 0 0 0 1.514-1.898" mask="url(#b)"/>
        <path fill="#FEF9F5" d="M46.74 11.952c3.651 1.251 7.341 1.582 11.082 1.46.718-.024.813.167.704.855-1.1 6.989-4.369 12.976-8.565 18.537-1.544 2.046-3.218 3.985-4.947 5.878-.358.393-.642.527-1.196.348-3.767-1.219-7.325-2.855-10.636-5.03-.613-.402-.674-.62-.091-1.141 3.728-3.33 7.182-6.907 9.839-11.175 1.862-2.99 3.185-6.2 3.81-9.732" mask="url(#b)"/>
        <path fill="#FED7B6" d="M45.83 38.54c-.772 1.536-1.094 1.689-2.608 1.18-1.598-.535-3.19-1.088-4.784-1.634l.2-.364c1.54.556 3.094 1.079 4.616 1.684.87.346 1.55.313 2.082-.532.102-.162.23-.374.495-.334" mask="url(#b)"/>
        <path fill="#FEDFC4" d="M47.57 36.59c-.382.832-.983 1.47-1.75 1.961.395-.821 1.003-1.453 1.75-1.96" mask="url(#b)"/>
        <path fill="#FEE1C8" d="M48.656 35.178c-.077.697-.55 1.09-1.098 1.427.132-.654.672-.997 1.098-1.427" mask="url(#b)"/>
        <path fill="#FDFCFB" d="M68.846 69.215l.236-.17c.188.106.384.2.563.318.392.257.775.527 1.205.82-.292.287-.625.155-.909.155-10.274.01-20.548.005-30.822.019-.606 0-1.112-.13-1.613-.478-1.6-1.11-3.227-2.184-4.853-3.278.335-.308.54.025.788.098.756.07 1.27.532 1.734 1.07l-.001-.005c.369.23.85.228 1.18.525 1.389 1.254 3.045 1.371 4.83 1.352 8.881-.094 17.762-.05 26.642-.043.336 0 .92.356 1.02-.383" mask="url(#b)"/>
        <path fill="#FEECDD" d="M33.873 65.987c-.19-.23-.469-.149-.709-.203-.022-.029-.04-.078-.067-.083-1.62-.285-1.621-.284-1.282-2.324 1.385.795 2.993 1.001 4.239 2.021-.435.388-.973.113-1.45.224-.141.033-.18.108-.042.08.07-.015.163.083.246.13-.29.18-.612.174-.935.155" mask="url(#b)"/>
        <path fill="#FA7706" d="M35.175 67.77c-.69-.176-1.19-.659-1.734-1.071.94-.427 1.994-.138 2.951-.46.334.336.036.59-.11.864l.007.21c-.287.356-.969-.243-1.114.457" mask="url(#b)"/>
        <path fill="#AA969E" d="M36.282 67.103l.11-.863c.21-.18.458-.347.46.11.002.231-.15.467-.077.72-.164.012-.329.022-.493.033" mask="url(#b)"/>
        <path fill="#FA7706" d="M68.846 69.215l.78.58c-.201.345-.524.19-.777.19-9.923.008-19.847.002-29.77.01-.528.001-.98-.104-1.403-.43-.815-.628-1.777-1.05-2.502-1.8.614.017 1.245-.032 1.753.424 1.72.888 3.564 1.218 5.503 1.114-1.314.025-2.552-.336-3.796-.657-.372-.097-.794-.122-1.027-.51.739-.285 1.482-.072 2.227-.04 2.515.107 5.032.182 7.548.269 1.852-.035 3.62.562 5.45.72 1.127.097 2.23.098 3.336-.126.248-.05.541-.06.705-.247.8-.92 1.827-.618 2.812-.562 1.625.04 3.236-.095 4.838-.35 1.76-.497 3.01.559 4.323 1.415" mask="url(#b)"/>
        <path fill="#FEFDFD" d="M46.51 56.038c1.718.462 3.46.847 4.843 2.042.85.733.94 1.52.323 2.5-.687 1.094-1.71 1.837-2.787 2.504-.169.104-.422.17-.61.13-1.7-.362-3.369-.83-4.75-1.95-.76-.616-.973-1.412-.482-2.308.7-1.278 1.87-2.067 3.05-2.836.11-.071.276-.057.413-.082" mask="url(#b)"/>
        <path fill="#FEFDFB" d="M59.673 60.603l1.952-2.99 1.767 1.938c.164.213.146.417-.122.484-1.098.275-2.178.613-3.279.875-.191.046-.329-.084-.318-.307" mask="url(#b)"/>
        <path fill="#FEFAF7" d="M54.297 53.494c1.11-.394 1.94-.667 2.752-.987.303-.119.467-.029.637.19.456.589.917 1.173 1.454 1.858-.932.029-1.66-.276-2.411-.435-.718-.15-1.423-.362-2.432-.626" mask="url(#b)"/>
        <path fill="#FEA358" d="M59.673 60.603c1.35.036 2.605-.258 3.719-1.052l.247-.242c.67.409.473.677-.152.838-1.403.362-2.81.707-4.217 1.06l.403-.604" mask="url(#b)"/>
        <path fill="#E5E5E4" d="M59.685 68.15c-.396.008-.794.008-1.19.028-.426.022-.859-.121-1.024.577-.097.41-.758.461-1.224.536-2.51.402-4.96.007-7.394-.567-.491-.116-.98-.24-1.47-.36.157-.187.374-.188.591-.184 3.63.071 7.256-.02 10.883-.16.279-.01.579-.08.828.13" mask="url(#b)"/>
        <path fill="#FEF4EC" d="M37.607 68.135l4.985 1.157c-2.036.281-4.042.447-5.665-1.104.203-.315.458.022.68-.053" mask="url(#b)"/>
        <path fill="#9B5323" d="M52.016 65.101c.977-.708 1.742-.648 2.671-.534-.853.391-1.63.367-2.67.534" mask="url(#b)"/>
        <path fill="#FEFEFE" d="M42.809 48.77c-1.382-.023-2.557-.19-3.672-.663-1.793-.761-2.594-2.119-2.34-4.044.09-.675.24-1.35.445-2 .804-2.55 1.17-2.765 3.841-2.39 4.115.58 5.414 2.633 4.162 6.58-.109.343-.245.677-.35 1.021-.34 1.13-.935 1.862-2.086 1.496" mask="url(#b)"/>
        <path fill="#FEFCFB" d="M29.227 49.818c2.45.84 4.626 1.586 6.8 2.336.06.021.103.093.185.17-1.184.382-2.382.582-3.584.778-.38.062-.607-.06-.837-.328-.792-.93-1.6-1.847-2.564-2.956" mask="url(#b)"/>
        <path fill="#FEFDFB" d="M54.064 35.823c1.075.692 1.999 1.296 2.933 1.883.273.171.313.323.123.592-.635.9-1.261 1.805-2.147 2.732a57042.1 57042.1 0 0 1-.91-5.207" mask="url(#b)"/>
        <path fill="#FEFDFC" d="M23.9 42.46l4.033-.33-1.832 3.563-2.2-3.233" mask="url(#b)"/>
        <path fill="#FE7900" d="M50.63 13.415c2.221.305 4.451.513 6.696.433.662-.024.84.092.713.821-.855 4.895-2.805 9.346-5.413 13.538-2.255 3.623-4.926 6.925-7.809 10.066-.248.27-.435.488-.902.337-3.797-1.224-7.388-2.862-10.77-5.168.798-.754 1.555-1.462 2.302-2.18 3.16-3.032 6.046-6.287 8.274-10.082 1.469-2.501 2.567-5.144 3.19-7.98.057-.26-.027-.622.428-.606a.803.803 0 0 1 .175.247c.123.682-.27 1.284-.326 1.976 1.052-.425 1.986-1.01 2.994-1.446a.603.603 0 0 1 .448.044" mask="url(#b)"/>
        <path fill="#FEA960" d="M50.63 13.415l-.518.038c-1.048.418-1.935.122-2.724-.61l-.05-.249 3.292.821" mask="url(#b)"/>
        <path fill="#F3EDE8" d="M68.681 69.68H64.87c1.117-1.769 1.758-1.785 3.812 0" mask="url(#b)"/>
        <path fill="#FEBB82" d="M45.965 61.031c-.674-.088-1.544.842-1.956-.449-.091-.286-.207-.529.32-.67 1.024-.274 1.586-.061 1.636 1.12" mask="url(#b)"/>
        <path fill="#FE7A0C" d="M47.105 58.383c.342.49.692.975 1.024 1.47.11.164.383.35.217.534-.285.313-.732.187-1.11.241-.302.043-.345-.172-.346-.4-.003-.596-.001-1.192-.001-1.788l.216-.057" mask="url(#b)"/>
        <path fill="#FEB679" d="M49.94 59.544c.252-.01.505-.016.757-.032.394-.025-.046.5.38.56.12.016-.179.285-.375.31-.421.055-.846.085-1.315.13 0-.495.444-.268.627-.46l-.947-.135.893-.389-.02.016z" mask="url(#b)"/>
        <path fill="#FE903B" d="M47.883 58.307c.602-.49 1.057-.601 1.742-.29-.519.49-1.002.5-1.742.29" mask="url(#b)"/>
        <path fill="#FE801F" d="M48.968 61.121c-.948.18-1.642.372-2.527.333.797-.57 1.52-.563 2.527-.333" mask="url(#b)"/>
        <path fill="#FEAD69" d="M49.96 59.528h-1.139c.72-.499 1.305-.456 1.92-.428-.16.408-.64.122-.801.444l.02-.016" mask="url(#b)"/>
        <path fill="#FE770D" d="M46.1 58.457c-.527.606-1.012.458-1.64.4.523-.6 1.01-.441 1.64-.4" mask="url(#b)"/>
        <path fill="#FE7B0F" d="M40.4 42.386c.624.695 1.249 1.388 1.87 2.084.13.147.443.306.235.501a3.47 3.47 0 0 1-1.085.684c-.237.093-.301-.235-.372-.427-.321-.87-.637-1.74-.954-2.612l.306-.23" mask="url(#b)"/>
        <path fill="#FE7D1D" d="M41.593 46.957c.31-.988 1.004-1.403 2.04-1.307l-2.04 1.307" mask="url(#b)"/>
        <path fill="#FE801E" d="M42.416 41.21c0 .054.007.09-.001.122-.177.604-.614.854-1.209.83-.137-.006-.2-.2-.11-.347.301-.494.689-.81 1.32-.605" mask="url(#b)"/>
        <path fill="#FE801F" d="M39.432 43.138c-.182.674-.6.946-1.195.961-.166.004-.258-.154-.184-.302.266-.521.657-.833 1.38-.659" mask="url(#b)"/>
        <path fill="#FE913B" d="M40.084 45.731c-.38.53-.889.856-1.493 1.02.353-.568.923-.793 1.493-1.02" mask="url(#b)"/>
        <path fill="#FE923C" d="M38.714 47.437c.646-.588 1.131-.962 1.774-1.077-.405.507-.887.886-1.774 1.077" mask="url(#b)"/>
        <path fill="#FE8F36" d="M43.505 44.643c.25-.656.804-.92 1.483-1.019l-1.483 1.019" mask="url(#b)"/>
        <path fill="#FE8B31" d="M42.98 43.757l1.452-.967.166.236-1.457.983-.16-.252" mask="url(#b)"/>
        <path fill="#FE8D33" d="M42.558 43.162c.506-.33 1.01-.661 1.517-.991-.283.673-.834.947-1.383 1.225l-.134-.234M39.695 45.11c-.314.573-.861.79-1.417.995.325-.557.883-.758 1.417-.995" mask="url(#b)"/>
        <path fill="#FEFEFD" d="M51.045 27.085c.003 1.765.001 1.768-1.71 2.297-4.035 1.247-6.06-.227-6.08-4.426-.007-1.825-.007-1.825 1.773-2.365 4.03-1.223 6.01.256 6.017 4.494" mask="url(#b)"/>
        <path fill="#FEFCFB" d="M47.578 34.663c-1.079 1.193-1.96 2.156-2.825 3.135-.241.273-.486.222-.774.126-.952-.316-1.91-.621-3.09-1.004l6.689-2.257" mask="url(#b)"/>
        <path fill="#FEFDFC" d="M36.911 30.132c0 1.646-.01 2.926.005 4.207.007.554-.16.574-.63.348-2.467-1.188-2.48-1.247-.591-3.098.402-.394.728-.866 1.216-1.457" mask="url(#b)"/>
        <path fill="#FEFBF8" d="M54.387 14.113c.61 0 .971-.004 1.333 0 2.137.029 2.138.03 1.634 2.15-.048.198.015.442-.318.649l-2.65-2.8M47.388 12.843c.898.25 1.758.664 2.724.61-.794 1.026-2.111 1.1-3.356 2.007l.632-2.617" mask="url(#b)"/>
        <path fill="#FE7A0D" d="M47.656 27.254l-2.131-2.407c.794.324 1.312.53 1.827.744 1.254.52 1.254.521.304 1.663" mask="url(#b)"/>
        <path fill="#FE862B" d="M48.25 28.049c0-.832.423-1.38 1.253-1.795-.238.806-.834 1.242-1.252 1.795" mask="url(#b)"/>
        <path fill="#FE872C" d="M47.2 23.179c.078.64-.175.995-.685 1.188-.049.018-.21-.093-.21-.145-.004-.562.297-.875.895-1.043" mask="url(#b)"/>
        <path fill="#FE7811" d="M44.575 26.859c-.176-.566.106-.874.551-1.088.054-.025.237.064.24.107.03.532-.246.84-.79.98" mask="url(#b)"/>
        <path fill="#FE9642" d="M48.023 24.84c.121-.517.39-.932.984-1.422-.21.75-.577 1.101-.984 1.422" mask="url(#b)"/>
        <path fill="#FE9542" d="M45.853 28.814c.142-.522.425-.93 1.06-1.447-.286.778-.644 1.139-1.06 1.447" mask="url(#b)"/>
        <path fill="#FE9139" d="M48.992 25.51c.2-.461.424-.904 1.046-1.35-.28.698-.527 1.125-1.046 1.35" mask="url(#b)"/>
        <path fill="#FE943F" d="M47.207 28.003c-.127.512-.424.906-1.04 1.429.26-.767.627-1.112 1.04-1.429" mask="url(#b)"/>
    </g>
</svg>
