<svg xmlns="http://www.w3.org/2000/svg" xmlns:xlink="http://www.w3.org/1999/xlink" width="88" height="80" viewBox="0 0 88 80">
    <defs>
        <path id="a" d="M0 .152h71.445v82.404H0z"/>
        <path id="c" d="M.077.189H51.76v39.39H.077z"/>
    </defs>
    <g fill="none" fill-rule="evenodd">
        <path fill="#AFAFAF" d="M33.04 33.344c.268.108.466.406.236.65-.146.156-.424.174-.624.151-.333-.038-.607-.271-.381-.596.152-.218.497-.314.769-.205"/>
        <g transform="rotate(13 154.317 -9.222)">
            <mask id="b" fill="#fff">
                <use xlink:href="#a"/>
            </mask>
            <path fill="#FFF" d="M0 18.788L45.088.152 71.445 63.92 26.356 82.556z" mask="url(#b)"/>
        </g>
        <path fill="#AFAFAF" d="M3.403-10.963l38.78-6.459.51 3.064-38.78 6.46zM4.393-5.017l38.78-6.459.136.818L4.53-4.199zM4.638-3.545l38.78-6.459.136.818-38.78 6.459zM4.884-2.073l38.78-6.459.135.818L5.02-1.255zM5.129-.6l38.78-6.46.136.818L5.265.217zM5.374.871l38.78-6.459.136.818L5.51 1.689zM5.62 2.343l24.689-4.112.136.818L5.755 3.16zM6.11 5.287l38.779-6.459.136.818-38.78 6.459zM6.355 6.759L45.134.3l.136.818L6.49 7.577zM6.6 8.23l38.78-6.458.135.818-38.78 6.459zM6.845 9.703l38.78-6.459.136.818L6.98 10.52zM7.09 11.175l38.78-6.459.136.818-38.78 6.459zM7.335 12.647l38.78-6.459.136.818-38.78 6.459zM7.58 14.119L46.36 7.66l.136.818-38.78 6.459zM7.826 15.59l38.779-6.458.136.818-38.78 6.458zM8.07 17.063l38.78-6.46.137.819-38.78 6.459zM8.316 18.535l17.942-2.989.136.818-17.942 2.989zM8.806 21.479l38.78-6.46.136.819-38.78 6.458zM9.051 22.95l38.78-6.458.136.818-38.78 6.458zM9.297 24.423l38.779-6.46.136.819-38.78 6.458zM9.542 25.895l38.78-6.46.136.819-38.78 6.458zM9.787 27.367l26.832-4.47.136.818-26.832 4.47zM10.277 30.31l38.78-6.458.136.817-38.78 6.46zM10.522 31.783l38.78-6.46.136.818-38.78 6.46zM10.768 33.254l38.779-6.458.136.817-38.78 6.46zM11.013 34.726L22.1 32.88l.136.818-11.087 1.846zM33.336 38.627l.113-.489c-1.08.142-2.121.342-3.023.616-1.178.357-2.125.844-2.625 1.495a.235.235 0 0 0 .372.286c.434-.567 1.3-1.003 2.389-1.333.826-.251 1.78-.439 2.774-.575zm-7.122-2.878a.235.235 0 0 1-.024-.47c.237-.013 1.103-.556 2.064-1.219 1.4-.966 2.956-2.163 3.125-2.386.107-.147.252-.14.361-.024a.236.236 0 0 1-.004.327l-.015.017c-.062.212-.188.504-.344.865-.355.821-.89 2.063-1.402 3.278.43-.654.837-1.17 1.062-1.17.204.001.319.132.319.425 0 .136-.082.397-.174.691-.124.395-.273.862-.272.863.037.032.03-.155.276-.43l.006-.007.541-.746.306-.423c.19-.265.334-.329.474-.229.166.119.09.296-.02.558-.15.362-.422 1.009-.35 1.254.006.019.05.019.159-.013.118-.035.41-.306.628-.506.209-.193.371-.343.526-.287.073.027.123.065.148.117a.48.48 0 0 1 .292-.032l-.106.456c-.015-.003-.034.003-.055.015l.05.005-.144.628a.352.352 0 0 1-.087-.206.77.77 0 0 1 .032-.284c-.09.107-.18.24-.227.312-.092.137-.147.222-.327.153-.107-.042-.159-.106-.156-.2-.16.13-.318.242-.44.278-.436.13-.656-.013-.742-.302a1.013 1.013 0 0 1-.008-.435l-.12.163a.271.271 0 0 1-.03.042c-.472.532-.761.626-.936.47-.227-.202-.032-.827.133-1.353.033-.106.065-.206.09-.293-.412.553-1.251 2.04-1.7 2.836-.111.196-.204.362-.291.478a.235.235 0 0 1-.308.169c-.148-.053-.198-.16-.137-.322.578-1.548 1.89-4.589 2.559-6.138l.013-.028a48.584 48.584 0 0 1-2.438 1.8c-1.021.705-1.972 1.285-2.307 1.303zm7.682.453a.44.44 0 0 1 .062.018c.186.069.207.206.177.37.124-.107.268-.193.433-.193.55 0 1.439.042 2.307.11.755.058 1.502.137 2.006.225.506.089 1.503.346 2.299.715.563.26 1.036.585 1.207.964a.234.234 0 0 1-.014.218.231.231 0 0 1-.105.092l-.013.006a.23.23 0 0 1-.127.01 2.172 2.172 0 0 1-.132-.014c-.727-.092-4.007-.503-6.738-.297-.643.048-1.29.114-1.922.2l.113-.488a32.39 32.39 0 0 1 1.774-.18c2.366-.179 5.127.097 6.346.24a3.982 3.982 0 0 0-.586-.325 10.04 10.04 0 0 0-2.184-.68c-.481-.083-1.213-.16-1.96-.218a33.542 33.542 0 0 0-2.272-.108c-.066 0-.201.147-.307.261-.116.126-.213.23-.343.247-.129.017-.218-.01-.276-.069l.145-.628c.05.005.078.007.01-.018l-.006-.002.106-.456z"/>
        <path fill="#725048" d="M37.035 31.865c1.01-.746 2.035-1.346 2.897-2.548.862-1.2 3.155-6.477 5.354-6.586 2.198-.11 4.227 3.55 4.938 4.353.711.804 1.206 1.334 2.037 1.629.831.295 1.622 1.142 3.708 1.337 2.086.194 5.286 1.411 5.89 5.965.602 4.554.8 6.592 1.84 9.192 1.038 2.6 2.28 7.709 2.666 9.014.386 1.306 3.739 4.641 5.593 6.797 1.855 2.156-14.779 8.09-16.645 5.668-1.866-2.423-3.49-4.715-5.758-6.208-2.267-1.493-8.12-5.508-10.773-8.307-2.653-2.798-6.648-7.16-7.513-8.257-.865-1.096-.483-2.088.204-2.967.686-.88.85-1.469 2.112-1.774 1.262-.306 1.375-.61 1.619-1.155.244-.546.834-.788 1.299-.588.465.201 1.256.708 1.587 1.827.33 1.119.386 2.052.855 2.725.47.672 1.485 1.59 2.703 1.364 1.218-.225 1.568-.87 2.616-2.126 1.048-1.257 1.386-3.317 1.526-4.44.141-1.124-.166-3.535-.189-4.069-.023-.534-.264-.665-.748-.928-.483-.263-2.13 1.712-3.325 2.471-1.196.76-2.444.655-3.63.532-3.32-.343-1.882-2.169-.863-2.921"/>
        <path stroke="#000" stroke-width=".254" d="M39.296 38.95l.347.19c.177.096.227.128.289-.006-.777-1.19.072-2.505 1.205-2.611.05-.12-.006-.155-.208-.243l-.33-.142c-1.132.107-2.08 1.623-1.303 2.812z"/>
        <path fill="#5E433D" d="M38.089999999999996 39.256c.203.689.303 1.307.458 1.837-.172-.573-.28-1.231-.458-1.836m6.207-7.305c-.723.48-1.873 1.733-2.77 2.302.825-.523 2.024-1.814 2.77-2.302m1.595 4.02c.148-1.467-.036-2.964-.04-3.416-.005-.451-.3-1.01-1.2-1.65-.9-.639-1.212-3.004-1.095-4.138.118-1.133-.318-.423-.376.694-.058 1.116.329 2.424.582 3.06.253.637-.573 1.885-1.46 2.6-.888.716-2.088 1.356-2.74 1.48-1.247.234-2.124.101-3.549-.53.409.27.818.47 1.22.613a3.04 3.04 0 0 1-.853-.292l.543 3.265c.364.24.775.633 1.04 1.252a2.695 2.695 0 0 0-1.569-1.488c.959.969.222 1.744-.38 1.665-.602-.08 1.898.732 1.965 1.617.068.885-1.792 1.37-.375 1.792 1.418.421 2.744 1.228 3.87 1.06 1.126-.168 4.346-1.486 4.417-7.585"/>
        <path fill="#000" d="M34.868 36.387c.296.18 20.148 10.893 20.148 10.893 1.813.766 3.744-2.86 1.454-3.886L36.02 34.233c-1.22-.547-2.425 1.383-1.153 2.154"/>
        <path fill="#0D1D24" d="M32.755 34.202l.94.819c.544.474 1.198-.806.545-.975l-1.271-.327c-.28-.073-.47.26-.214.483"/>
        <path fill="#BFBFBF" d="M53.774 46.494c.066-.073-.145-.33-.28-.154l-.46.606s-1.823-.547-3.006-1.412c-1.183-.865-2.844-2.483-3.255-2.704-.41-.221-1.311-.197-1.336.098-.024.295.319.481.778.521.46.04 1.123.34 1.638.89.514.551 1.13.96 1.964 1.561.833.6 3.196 2.107 3.739 2.266.543.16.747-.09 1.32-.962l-.206-.111c-.23.332-.679.817-.679.817s-.289-.059-.461-.263c-.172-.205-.256-.596-.256-.596l.5-.557zM34.776 36.488l4.867 2.651c.177.097.228.129.289-.005-.777-1.19.072-2.505 1.205-2.612.05-.118-.006-.154-.208-.242l-5.088-2.2c-1.327-.573-2.553 1.598-1.065 2.408"/>
        <path fill="#BFBFBF" d="M53.818 46.633l1.198.647c1.813.766 3.744-2.86 1.453-3.886l-.953-.427c-.695-.194-1.563.31-2.027 1.217-.494.966-.349 2.034.315 2.436l.014.013z"/>
        <path fill="#000" d="M56.644 43.802c.637.325.788 1.302.338 2.183-.45.88-1.33 1.33-1.967 1.005-.637-.326-.787-1.303-.337-2.183.45-.88 1.33-1.33 1.966-1.005"/>
        <path fill="#AB826D" d="M53.553 64.405c-.376-1.077 8.016-8.796 12.812-10.184 4.795-1.387-9.248 18.429-12.812 10.184"/>
        <g transform="rotate(13 -187.51 253.965)">
            <mask id="d" fill="#fff">
                <use xlink:href="#c"/>
            </mask>
            <path fill="#FF7900" d="M.16 13.843C.418 13.169 14.502.626 16.462.216c1.303-.273 2.913 1.583 3.614 2.203C22.909 4.93 50.325 29.301 51.76 34.974L21.23 39.578C14.714 35.19 3.812 19.955.695 15.701c-.578-.788-.735-1.34-.536-1.858" mask="url(#d)"/>
        </g>
        <path fill="#000" d="M51.395 65.257l.248-.214c.372-.32.449-.953.102-1.324-.346-.371-.926-.445-1.324-.103l-.248.214c-.373.32-.45.953-.102 1.324.346.371.926.445 1.324.103M53.133 64.364a2.615 2.615 0 0 0 1.438-.917c.313-.38.167-1.052-.237-1.308-.46-.29-.973-.169-1.307.237a.883.883 0 0 0 .048-.051 1.437 1.437 0 0 1-.171.147c.116-.072.144-.09.083-.054l-.175.091c-.093.037-.069.031.072-.018-.036.011-.072.02-.11.029-.475.117-.865.591-.742 1.101.114.475.59.869 1.101.743M56.604 62.78l.72-.42c.423-.248.689-.786.435-1.256-.227-.42-.801-.7-1.255-.435l-.72.42c-.424.248-.69.786-.435 1.256.226.42.801.7 1.255.435M60.211 60.643c-.076.128-.093.162-.052.102.042-.058.018-.03-.073.084l-.114.076c-.151.041-.179.053-.082.034.485-.079.859-.618.743-1.1a.958.958 0 0 0-1.101-.744c-.508.083-.9.443-1.088.91-.183.456.092 1.056.565 1.203a.96.96 0 0 0 1.202-.565M62.763 59.44c-.025.028-.144.138-.047.064l-.042.032c.074-.055-.171.034-.08.022.07-.01.203-.022-.065-.01.26-.012.478-.048.683-.224.175-.15.318-.406.326-.64.014-.459-.339-1.032-.864-1.01-.297.014-.547.04-.82.172-.262.125-.447.308-.635.523-.15.172-.191.501-.15.714.043.222.193.47.387.593.209.132.467.21.714.15.253-.06.423-.193.593-.387M65.538 58.255l.963-.377c.459-.18.663-.833.435-1.255-.257-.477-.765-.627-1.255-.435l-.963.376c-.459.18-.663.834-.435 1.256.257.476.765.627 1.255.435M68.419 56.965l.717-.294c.456-.187.666-.828.436-1.255-.255-.47-.769-.635-1.256-.435l-.717.294c-.456.187-.666.828-.436 1.255.255.47.768.635 1.256.435"/>
        <path fill="#000" d="M70.44 56.214c1.205.093 1.352-1.78.145-1.873-1.205-.093-1.352 1.78-.145 1.873"/>
        <path fill="#FFF" d="M55.917 66.766l.248-.213c.372-.321.45-.953.102-1.325-.346-.37-.926-.445-1.324-.102l-.248.213c-.373.321-.45.953-.103 1.325.347.37.927.445 1.325.102M58.358 65.58l.719-.293c.456-.185.665-.829.435-1.255-.255-.471-.767-.634-1.255-.435l-.719.292c-.456.186-.665.83-.435 1.255.255.472.768.634 1.255.436M61.727 63.986l.622-.402c.214-.14.383-.277.474-.527.079-.22.074-.52-.04-.729-.217-.402-.813-.72-1.255-.435l-.62.402c-.215.139-.384.276-.474.527-.08.219-.075.52.038.728.218.403.814.72 1.255.436M63.921 62.518l.609-.291c.443-.212.675-.81.435-1.255-.243-.45-.78-.662-1.255-.435l-.609.29c-.443.212-.675.811-.435 1.255.243.45.781.662 1.255.436M66.685 61.215l1.358-.65c.444-.212.676-.81.435-1.255-.243-.45-.78-.662-1.255-.436l-1.359.65c-.443.213-.675.811-.435 1.256.243.45.781.662 1.256.435"/>
        <path fill="#FFF" d="M69.581 59.83l.36-.21c.425-.245.69-.785.436-1.255-.227-.42-.8-.698-1.255-.434l-.36.208c-.425.246-.69.787-.436 1.256.227.42.801.698 1.255.435M72.004 58.642l.24-.098c.455-.185.664-.829.434-1.255-.255-.471-.767-.634-1.255-.435l-.24.097c-.456.186-.665.83-.435 1.255.255.472.768.634 1.256.436"/>
        <path fill="#000" d="M14.777 41.153l-2.126.386a.439.439 0 1 0 .157.864l1.084-.198-1.427 2.063a.438.438 0 1 0 .721.5l1.428-2.063.197 1.084a.439.439 0 1 0 .863-.157l-.387-2.126a.439.439 0 0 0-.51-.353"/>
        <path fill="#F60" d="M16.616 43.907l2.126-.387a.439.439 0 0 0-.157-.863l-1.084.197 1.428-2.063a.439.439 0 1 0-.722-.5l-1.427 2.063-.198-1.084a.439.439 0 0 0-.863.157l.387 2.126a.438.438 0 0 0 .51.354"/>
        <path fill="#FFF" d="M66.6 24.074l-2.913 2.067c-.84.595-.006 1.967.838 1.369l2.913-2.066c.84-.596.005-1.968-.838-1.37M58.536 18.183l-2.553 3.172c-.644.8.514 1.913 1.162 1.108l2.553-3.172c.644-.8-.515-1.913-1.162-1.108M71.32 33.726l-2.99.53c-.427.076-.651.62-.537 1 .138.456.572.613 1 .537l2.99-.53c.426-.075.65-.619.536-1-.137-.455-.572-.613-1-.537M69.232 45.679l-1.424-.166c-.43-.05-.856.149-.96.604-.09.388.171.91.604.96l1.424.167c.43.05.857-.15.961-.605.088-.387-.172-.91-.605-.96M15.45 53.146l-2.059 3.117c-.57.862.848 1.616 1.414.76l2.059-3.118c.568-.862-.85-1.616-1.415-.76M4.976 44.952l-1.96 1.35c-.85.586-.014 1.958.837 1.37l1.96-1.35c.85-.586.014-1.957-.837-1.37M6.357 53.751l-1.656 1.71c-.718.741.37 1.922 1.09 1.179l1.657-1.71c.717-.74-.371-1.921-1.09-1.179"/>
    </g>
</svg>
