<svg xmlns="http://www.w3.org/2000/svg" xmlns:xlink="http://www.w3.org/1999/xlink" width="170" height="170" viewBox="0 0 170 170">
    <defs>
        <circle id="a" cx="85" cy="85" r="85"/>
        <path id="c" d="M27.72.106C23.311 9.326 14.598 20.383.233 29.716h232.69c-14.365-9.333-23.078-20.39-27.487-29.61"/>
        <path id="e" d="M27.72.106C23.311 9.326 14.598 20.383.233 29.716h232.69c-14.365-9.333-23.078-20.39-27.487-29.61"/>
        <path id="g" d="M27.72.106C23.311 9.326 14.598 20.383.233 29.716h232.69c-14.365-9.333-23.078-20.39-27.487-29.61"/>
        <path id="i" d="M27.72.106C23.311 9.326 14.598 20.383.233 29.716h232.69c-14.365-9.333-23.078-20.39-27.487-29.61"/>
        <path id="k" d="M27.72.106C23.311 9.326 14.598 20.383.233 29.716h232.69c-14.365-9.333-23.078-20.39-27.487-29.61"/>
        <path id="m" d="M27.72.106C23.311 9.326 14.598 20.383.233 29.716h232.69c-14.365-9.333-23.078-20.39-27.487-29.61"/>
        <path id="o" d="M27.72.106C23.311 9.326 14.598 20.383.233 29.716h232.69c-14.365-9.333-23.078-20.39-27.487-29.61"/>
        <path id="q" d="M27.72.106C23.311 9.326 14.598 20.383.233 29.716h232.69c-14.365-9.333-23.078-20.39-27.487-29.61"/>
        <path id="s" d="M27.72.106C23.311 9.326 14.598 20.383.233 29.716h232.69c-14.365-9.333-23.078-20.39-27.487-29.61"/>
    </defs>
    <g fill="none" fill-rule="evenodd">
        <mask id="b" fill="#fff">
            <use xlink:href="#a"/>
        </mask>
        <use fill="#FFD200" xlink:href="#a"/>
        <g mask="url(#b)">
            <path fill="#2888D1" d="M-85 182.75h208.25V55.25H-85z"/>
            <path fill="#B5E8F7" d="M-68 182.75h46.75V85H-68zM-17 182.75h80.75V119H-17zM63.75 182.75h46.75V85H63.75z"/>
            <path fill="#085EBD" d="M-17 182.75h80.75V153H-17z"/>
            <path fill="#FF7900" d="M19.125 34L-85 55.25h208.25z"/>
            <path fill="#000" d="M-85 55.25h208.25V51H-85zM-68 85v97.75h2.37V87.39h173.76v95.36h2.37V85z"/>
            <path fill="#000" d="M-21.25 97.75v85h2.729v-82.616H56.77v82.616H59.5v-85z"/>
            <path fill="#FFD200" d="M-68.26 124.377c.22-.292-.456-1.208-1.035-2.483.51.34.935.443 1.034.281.26-.346-.732-1.557-1.336-3.212-.544-1.673-.737-1.846-1.257-1.795a.773.773 0 0 0-.186.03.773.773 0 0 0-.186-.03c-.52-.05-.713.122-1.257 1.795-.604 1.655-1.597 2.866-1.337 3.212.1.162.525.06 1.035-.281-.58 1.275-1.254 2.19-1.035 2.483.1.162.525.06 1.035-.282-.58 1.275-1.254 2.191-1.035 2.484.1.161.525.06 1.035-.282-.58 1.275-1.254 2.191-1.035 2.484.1.161.525.06 1.035-.282-.58 1.275-1.254 2.191-1.035 2.484.1.16.525.06 1.035-.282-.58 1.275-1.254 2.19-1.035 2.483.1.162.525.06 1.035-.281-.58 1.275-1.254 2.19-1.035 2.483.1.162.525.06 1.035-.281-.58 1.275-1.254 2.19-1.035 2.483.1.162.525.06 1.035-.282-.58 1.275-1.254 2.191-1.035 2.484.154.248 1.06-.108 1.89-1.05v.001c-.279 1.74-1.023 3.117-.701 3.408.141.153.606-.064 1.092-.598.265 1.47 1.045 2.372 1.321 2.2.28-.14.177-.978.17-2.089.442.442.847.628.977.487.292-.264-.291-1.427-.61-2.94.673.581 1.296.782 1.42.58.22-.292-.455-1.208-1.034-2.483.51.342.935.444 1.034.282.22-.292-.455-1.208-1.034-2.483.51.34.935.443 1.034.281.22-.292-.455-1.208-1.034-2.483.51.341.935.443 1.034.281.22-.292-.455-1.208-1.034-2.483.51.341.935.443 1.034.282.22-.293-.455-1.209-1.034-2.484.51.341.935.443 1.034.282.22-.293-.455-1.209-1.034-2.484.51.342.935.443 1.034.282.22-.293-.455-1.209-1.034-2.483.51.34.935.443 1.034.281"/>
            <path fill="#0A6E31" d="M119.983 123.965c.183-.244-.38-1.008-.862-2.071.425.284.779.37.862.235.217-.289-.61-1.299-1.114-2.679-.454-1.394-.615-1.539-1.048-1.496a.654.654 0 0 0-.155.025.649.649 0 0 0-.156-.025c-.433-.043-.594.102-1.047 1.496-.504 1.38-1.331 2.39-1.115 2.679.084.134.438.05.862-.235-.482 1.063-1.045 1.827-.862 2.07.084.135.438.05.862-.234-.482 1.063-1.045 1.827-.862 2.07.084.135.438.05.862-.234-.482 1.063-1.045 1.827-.862 2.07.084.135.438.05.862-.234-.482 1.063-1.045 1.827-.862 2.07.084.135.438.05.862-.234-.482 1.063-1.045 1.826-.862 2.07.084.135.438.05.862-.234-.482 1.063-1.045 1.826-.862 2.07.084.135.438.05.862-.235-.482 1.064-1.045 1.827-.862 2.071.084.135.438.05.862-.235-.482 1.064-1.045 1.827-.862 2.071.128.207.883-.09 1.575-.875-.232 1.45-.852 2.6-.584 2.842.118.128.506-.053.91-.499.221 1.226.872 1.978 1.102 1.835.233-.116.147-.816.143-1.742.367.37.705.523.814.406.243-.22-.243-1.19-.509-2.45.561.483 1.08.65 1.184.483.183-.244-.38-1.007-.862-2.07.425.284.779.369.862.234.183-.244-.38-1.007-.862-2.07.425.284.779.369.862.234.183-.244-.38-1.007-.862-2.07.425.284.779.369.862.234.183-.244-.38-1.007-.862-2.07.425.284.779.369.862.234.183-.243-.38-1.007-.862-2.07.425.284.779.369.862.235.183-.244-.38-1.008-.862-2.071.425.284.779.37.862.235.183-.244-.38-1.008-.862-2.071.425.284.779.37.862.235"/>
            <path fill="#50BE87" d="M114.37 122.147c.152-.202-.314-.835-.715-1.716.353.236.646.306.715.195.18-.24-.506-1.077-.924-2.22-.375-1.156-.509-1.275-.868-1.24a.544.544 0 0 0-.128.021.538.538 0 0 0-.13-.021c-.358-.035-.492.084-.867 1.24-.418 1.143-1.104 1.98-.924 2.22.07.111.363.04.715-.195-.4.881-.867 1.514-.715 1.716.07.111.363.041.715-.195-.4.881-.867 1.514-.715 1.716.07.112.363.042.715-.194-.4.88-.867 1.514-.715 1.716.07.11.363.04.715-.195-.4.88-.867 1.514-.715 1.716.07.111.363.041.715-.195-.4.881-.867 1.514-.715 1.716.07.112.363.041.715-.194-.4.88-.867 1.513-.715 1.715.07.112.363.042.715-.194-.4.88-.867 1.514-.715 1.716.07.111.363.04.715-.195-.4.881-.867 1.514-.715 1.716.106.171.732-.074 1.305-.725-.192 1.202-.706 2.154-.484 2.355.098.106.42-.044.755-.413.183 1.015.722 1.639.913 1.52.192-.097.121-.676.118-1.443.304.306.584.433.674.336.202-.182-.201-.986-.421-2.03.465.4.895.54.98.4.153-.202-.313-.835-.714-1.716.353.236.646.306.715.195.152-.202-.314-.835-.715-1.716.353.236.646.306.715.194.152-.202-.314-.834-.715-1.715.353.235.646.306.715.194.152-.202-.314-.835-.715-1.716.353.236.646.306.715.195.152-.202-.314-.835-.715-1.716.353.236.646.306.715.195.152-.202-.314-.835-.715-1.716.353.236.646.306.715.194.152-.202-.314-.835-.715-1.716.353.236.646.306.715.195"/>
            <path fill="#FFB400" d="M-81.122 129.17a1.62 1.62 0 0 1-1.621 1.617 1.619 1.619 0 0 1-1.621-1.617 1.62 1.62 0 0 1 1.62-1.617c.896 0 1.622.724 1.622 1.617"/>
            <path fill="#FF7900" d="M-82.47 131.277c0 .893-.726 1.616-1.622 1.616a1.619 1.619 0 0 1-1.62-1.616c0-.893.725-1.617 1.62-1.617.896 0 1.621.724 1.621 1.617"/>
            <path fill="#FF7900" d="M-80.223 132.588c0 .893-.725 1.617-1.62 1.617-.896 0-1.622-.724-1.622-1.617s.726-1.617 1.621-1.617c.896 0 1.621.724 1.621 1.617"/>
            <path fill="#FF7900" d="M-79.501 130.4c0 .894-.726 1.618-1.621 1.618-.896 0-1.621-.724-1.621-1.617s.725-1.617 1.62-1.617c.896 0 1.622.724 1.622 1.617"/>
            <path fill="#FF7900" d="M-76.799 130.787c0 .893-.726 1.617-1.621 1.617s-1.62-.724-1.62-1.617.725-1.617 1.62-1.617c.895 0 1.621.724 1.621 1.617"/>
            <path fill="#FF7900" d="M-78.084 129.17c0 .893-.726 1.617-1.62 1.617-.896 0-1.622-.724-1.622-1.617a1.62 1.62 0 0 1 1.621-1.617c.895 0 1.621.724 1.621 1.617"/>
            <path fill="#FF7900" d="M-75.434 130.955a1.62 1.62 0 0 1-3.177.642 1.621 1.621 0 0 1 3.177-.642"/>
            <path fill="#FFB400" d="M-78.42 132.755c0 .893-.726 1.617-1.62 1.617-.896 0-1.622-.724-1.622-1.617s.726-1.617 1.621-1.617 1.621.724 1.621 1.617"/>
            <path fill="#FF7900" d="M-75.735 133.38c0 .893-.726 1.617-1.621 1.617s-1.621-.724-1.621-1.617.726-1.617 1.62-1.617c.896 0 1.622.724 1.622 1.617"/>
            <path fill="#FFB400" d="M-76.799 134.783c0 .893-.726 1.617-1.621 1.617s-1.62-.724-1.62-1.617.725-1.617 1.62-1.617c.895 0 1.621.724 1.621 1.617"/>
            <path fill="#FF7900" d="M-78.977 135.546c0 .893-.726 1.617-1.62 1.617-.896 0-1.622-.724-1.622-1.617s.726-1.617 1.621-1.617 1.621.724 1.621 1.617"/>
            <path fill="#FFB400" d="M-80.598 135.088c0 .893-.726 1.617-1.62 1.617-.896 0-1.622-.724-1.622-1.617s.726-1.617 1.621-1.617 1.621.724 1.621 1.617"/>
            <path fill="#FF7900" d="M-82.219 133.569c0 .893-.726 1.617-1.62 1.617a1.62 1.62 0 0 1-1.622-1.617 1.62 1.62 0 0 1 1.621-1.617c.895 0 1.621.724 1.621 1.617"/>
            <path fill="#000" d="M-77.804 136.137v-.75h.884c-.266.281-.56.534-.884.75zm-6.472-.75h.77v.668a5.072 5.072 0 0 1-.77-.669zm-1.19-4.789l.05-.136h1.91v2.15h-2.095c-.03-.22-.05-.444-.05-.673 0-.446.063-.9.185-1.34zm4.677-12.98l3.926 10.074h-7.555l3.629-10.075zm2.985 15.317h2.16a5.016 5.016 0 0 1-1.023 2.166h-1.137v-2.166zm-2.696 2.166h2.399v-2.166h-2.4v2.166zm0 .285h2.399v.93a5.027 5.027 0 0 1-2.4.66v-1.59zm-.31 0v1.584a5.025 5.025 0 0 1-2.4-.723v-.86h2.4zm-2.4-2.774h2.4v-2.15h-2.4v2.15zm2.71 0h2.399v-2.15h-2.4v2.15zm0-2.466h2.399v-2.169h-2.4v2.17zm4.593 0h-1.897v-2.169h1.052l.845 2.17zm-7.6 0h-1.795l.78-2.169h1.016v2.17zm.298 0h2.399v-2.169h-2.4v2.17zm0 4.955h2.399v-2.166h-2.4v2.166zm-2.343-2.166h2.046v2.166h-1.023a5.016 5.016 0 0 1-1.023-2.166zm10.008-.996c0 .23-.021.452-.05.673h-2.21v-2.15h2.02l.052.133c.125.448.188.9.188 1.344zm.086-1.427l-5.342-13.71-4.938 13.71c-.132.475-.2.955-.2 1.427 0 2.938 2.396 5.327 5.34 5.327s5.34-2.39 5.34-5.327a5.33 5.33 0 0 0-.2-1.427z"/>
            <path fill="#FFF" d="M-92.32 116.94a.475.475 0 0 1-.264-.866c16.61-11.161 24.129-23.722 27.131-30.216a.475.475 0 0 1 .432-.275h176.49c.185 0 .353.107.43.275 3.004 6.494 10.521 19.055 27.133 30.216a.473.473 0 0 1-.266.867H-92.319z"/>
            <path fill="#000" d="M111.469 85.11h-176.49a.95.95 0 0 0-.863.55c-2.982 6.449-10.45 18.924-26.966 30.021a.946.946 0 0 0 .53 1.733h231.086a.946.946 0 1 0 .53-1.733c-16.515-11.097-23.983-23.572-26.965-30.021a.95.95 0 0 0-.862-.55m0 .946c4.378 9.47 13.031 20.825 27.297 30.41H-92.319c14.266-9.585 22.919-20.94 27.298-30.41h176.49"/>
            <g>
                <g transform="translate(-93.5 85)">
                    <mask id="d" fill="#fff">
                        <use xlink:href="#c"/>
                    </mask>
                    <path fill="#FF7900" d="M22.897 31.701H8.59C23.844 21.62 32.677 9.09 36.76-.993h10.574C43.792 9.089 36.13 21.619 22.897 31.701" mask="url(#d)"/>
                </g>
                <g transform="translate(-93.5 85)">
                    <mask id="f" fill="#fff">
                        <use xlink:href="#e"/>
                    </mask>
                    <path fill="#FF7900" d="M48.105 31.701H33.8C45.492 21.62 52.262 9.09 55.394-.993h10.574c-2.59 10.082-8.19 22.612-17.863 32.694" mask="url(#f)"/>
                </g>
                <g transform="translate(-93.5 85)">
                    <mask id="h" fill="#fff">
                        <use xlink:href="#g"/>
                    </mask>
                    <path fill="#FF7900" d="M73.314 31.701H59.008C67.14 21.62 71.848 9.09 74.026-.993H84.6c-1.636 10.082-5.174 22.612-11.286 32.694" mask="url(#h)"/>
                </g>
                <g transform="translate(-93.5 85)">
                    <mask id="j" fill="#fff">
                        <use xlink:href="#i"/>
                    </mask>
                    <path fill="#FF7900" d="M98.523 31.701H84.216C88.788 21.62 91.434 9.09 92.658-.993h10.575c-.683 10.082-2.16 22.612-4.71 32.694" mask="url(#j)"/>
                </g>
                <g transform="translate(-93.5 85)">
                    <mask id="l" fill="#fff">
                        <use xlink:href="#k"/>
                    </mask>
                    <path fill="#FF7900" d="M123.731 31.701h-14.306c1.01-10.082 1.595-22.611 1.866-32.694h10.574c.27 10.082.856 22.612 1.866 32.694" mask="url(#l)"/>
                </g>
                <g transform="translate(-93.5 85)">
                    <mask id="n" fill="#fff">
                        <use xlink:href="#m"/>
                    </mask>
                    <path fill="#FF7900" d="M148.94 31.701h-14.307c-2.55-10.082-4.026-22.611-4.71-32.694h10.575c1.224 10.082 3.87 22.612 8.442 32.694" mask="url(#n)"/>
                </g>
                <g transform="translate(-93.5 85)">
                    <mask id="p" fill="#fff">
                        <use xlink:href="#o"/>
                    </mask>
                    <path fill="#FF7900" d="M174.149 31.701h-14.307C153.73 21.62 150.192 9.09 148.556-.993h10.574c2.178 10.082 6.886 22.612 15.019 32.694" mask="url(#p)"/>
                </g>
                <g transform="translate(-93.5 85)">
                    <mask id="r" fill="#fff">
                        <use xlink:href="#q"/>
                    </mask>
                    <path fill="#FF7900" d="M199.357 31.701H185.05C175.378 21.62 169.78 9.09 167.188-.993h10.574c3.132 10.082 9.902 22.612 21.595 32.694" mask="url(#r)"/>
                </g>
                <g transform="translate(-93.5 85)">
                    <mask id="t" fill="#fff">
                        <use xlink:href="#s"/>
                    </mask>
                    <path fill="#FF7900" d="M224.566 31.701h-14.307C197.026 21.62 189.364 9.09 185.821-.993h10.574c4.085 10.082 12.917 22.612 28.17 32.694" mask="url(#t)"/>
                </g>
            </g>
            <g>
                <path fill="#000" d="M-97.75 115.28h237.896v-2.897H-97.75z"/>
                <path fill="#085EBD" d="M-67.654 82.045h178.557v-18.29H-67.654z"/>
                <path fill="#4BB4E6" d="M-60.57 72.965a.713.713 0 1 1-1.426.001.713.713 0 0 1 1.426 0M-53.029 72.965a.713.713 0 1 1-1.426.001.713.713 0 0 1 1.426 0M-45.488 72.965a.713.713 0 1 1-1.426.001.713.713 0 0 1 1.426 0M-37.947 72.965a.713.713 0 1 1-1.426 0 .713.713 0 0 1 1.426 0M-30.406 72.965a.713.713 0 1 1-1.426 0 .713.713 0 0 1 1.426 0M-22.865 72.965a.713.713 0 1 1-1.426.001.713.713 0 0 1 1.426 0M-15.324 72.965a.713.713 0 1 1-1.426.001.713.713 0 0 1 1.426 0M-7.783 72.965a.713.713 0 1 1-1.426 0 .713.713 0 0 1 1.426 0M-.242 72.965a.713.713 0 1 1-1.426.001.713.713 0 0 1 1.426 0M7.299 72.965a.713.713 0 1 1-1.426 0 .713.713 0 0 1 1.426 0M14.84 72.965a.713.713 0 1 1-1.426.001.713.713 0 0 1 1.426 0M22.38 72.965a.713.713 0 1 1-1.425.001.713.713 0 0 1 1.426 0M29.922 72.965a.713.713 0 1 1-1.427 0 .713.713 0 0 1 1.427 0M37.463 72.965a.713.713 0 1 1-1.427 0 .713.713 0 0 1 1.427 0M45.004 72.965a.713.713 0 1 1-1.426.001.713.713 0 0 1 1.426 0M52.545 72.965a.713.713 0 1 1-1.426.001.713.713 0 0 1 1.426 0M60.086 72.965a.713.713 0 1 1-1.426 0 .713.713 0 0 1 1.426 0M67.627 72.965a.713.713 0 1 1-1.426 0 .713.713 0 0 1 1.426 0M75.168 72.965a.713.713 0 1 1-1.426 0 .713.713 0 0 1 1.426 0M82.709 72.965a.713.713 0 1 1-1.426.001.713.713 0 0 1 1.426 0M90.25 72.965a.713.713 0 1 1-1.426.001.713.713 0 0 1 1.426 0M97.79 72.965a.713.713 0 1 1-1.426 0 .713.713 0 0 1 1.427 0M105.332 72.965a.713.713 0 1 1-1.426 0 .713.713 0 0 1 1.426 0"/>
            </g>
        </g>
    </g>
</svg>
