<svg xmlns="http://www.w3.org/2000/svg" xmlns:xlink="http://www.w3.org/1999/xlink" width="50" height="50" viewBox="0 0 50 50">
    <defs>
        <circle id="a" cx="25" cy="25" r="25"/>
        <path id="c" d="M11.858 23.146C5.705 23.146.712 18.154.712 12.001.713 5.842 5.706.85 11.859.85 18.017.85 23.01 5.842 23.01 12c0 6.154-4.992 11.146-11.15 11.146"/>
        <path id="e" d="M0 .198h21.88v40.51H0z"/>
        <path id="g" d="M.33.056H18.62v26.695H.33z"/>
        <path id="i" d="M0 0h31.25v37.5H0z"/>
        <path id="k" d="M0 .198h21.88v40.51H0z"/>
        <path id="m" d="M.33.056H18.62v26.695H.33z"/>
        <path id="o" d="M.035.009h2.248v4.747H.035z"/>
        <path id="p" d="M.021.015h15.885V26.47H.02z"/>
        <path id="r" d="M0 .02h23.374v31.933H0z"/>
    </defs>
    <g fill="none" fill-rule="evenodd">
        <mask id="b" fill="#fff">
            <use xlink:href="#a"/>
        </mask>
        <use fill="#ECECEC" fill-rule="nonzero" xlink:href="#a"/>
        <g mask="url(#b)">
            <g transform="translate(-3.75 26.25)">
                <mask id="d" fill="#fff">
                    <use xlink:href="#c"/>
                </mask>
                <g mask="url(#d)">
                    <g transform="translate(-1.05 -8.222)">
                        <mask id="f" fill="#fff">
                            <use xlink:href="#e"/>
                        </mask>
                        <path fill="#C19372" d="M9.496 1.002c.131-.526 2.194-2.576 4.255 2.99 2.06 5.569 1.286 6.118 1.567 8.412.28 2.295 6.513 5.368 6.513 5.368s.363.226-.898 1.546c-1.26 1.322-2.574 3.073-4.661 7.464-2.201 4.628-7.305 13.925-7.305 13.925H0V37.66s10.406-17.841 10.41-19.25c.002-1.41.213-2.665.598-6.387.239-2.303.357-2.084-.195-5.813-.549-3.702-1.542-4.294-1.317-5.207" mask="url(#f)"/>
                    </g>
                    <g transform="translate(9.923 -15.302)">
                        <mask id="h" fill="#fff">
                            <use xlink:href="#g"/>
                        </mask>
                        <path fill="#000" d="M4.918 25.104c.254 1.142 1.42 1.856 2.598 1.593l9.378-2.09c1.18-.263 1.93-1.404 1.675-2.548L14.032 1.706C13.776.564 12.613-.152 11.433.11L2.056 2.2C.875 2.465.124 3.607.38 4.75l4.538 20.354z" mask="url(#h)"/>
                    </g>
                    <path fill="#FDCC00" d="M22.691 8.193a1.109 1.109 0 1 1-2.167.483 1.11 1.11 0 1 1 2.167-.483M18.009-12.93a.212.212 0 0 1-.159.25l-1.574.35a.21.21 0 0 1-.25-.158.209.209 0 0 1 .16-.247l1.574-.35a.21.21 0 0 1 .249.156M15.596-12.33a.313.313 0 1 1-.61.136.313.313 0 0 1 .61-.136"/>
                    <path fill="#714E46" d="M9.965 3.8c.196-1.814.196-3.489-.196-5.813-.623-3.69-1.542-4.294-1.316-5.207.131-.526 2.106-2.542 4.254 2.99.996 2.566.967 10.185 1.398 12.649.27 1.552-1.7.086-1.74-.031-.04-.117-2.4-4.588-2.4-4.588"/>
                    <path fill="#FF7900" d="M26.627 5.498L22.55-12.796l-2.563.57-2.578.575-5.63 1.255L15.857 7.9l2.367-.528.57-.126z"/>
                    <path fill="#FFF" d="M22.48-.422a3.96 3.96 0 0 1-2.547 1.663 3.958 3.958 0 0 1-2.977-.625 3.966 3.966 0 0 1-1.733-3.283c.034.003.069.004.105.015.019.022.031.018.063.015.064.013.131.039.197.026.08-.037.104-.075.171-.016.06.052.19.06.265.06.043 0 .081-.01.12.012.035.02.059.055.09.08a.34.34 0 0 0 .201.087c.055.003.112-.003.167 0l.087-.127c-.151.003-.275-.083-.404-.153a.668.668 0 0 0-.224-.087c.002 0-.012-.207-.052-.23-.099-.057-.168.121-.235.163-.161.103-.288-.013-.335-.177-.109-.386.48-.588.765-.443.029.015.14.128.168.113.048-.025-.017-.173-.021-.206-.012-.098-.014-.142.07-.216a.301.301 0 0 0 .092-.157c.01-.04.012-.074.034-.104a.387.387 0 0 1 .23-.62l.29-.054-.018-.008-.02-.006a.233.233 0 0 0-.087-.015c-.007 0-.013.003-.02.003-.003 0-.013 0-.01-.004a.231.231 0 0 0 .027-.01c.012-.004.023-.008.035-.01.04-.01.081-.006.122-.005.02 0 .04 0 .06-.002.01 0 .022-.002.032-.006.007-.004.028-.002.025-.009-.005-.007-.022-.01-.02-.02.002-.008.013-.014.019-.019.007-.005.015-.01.024-.014.037-.02.073-.043.112-.06a.298.298 0 0 1 .082-.021c.008 0 .02-.004.028 0 .007.005.001.015-.002.02-.005.01-.01.018-.012.028a.23.23 0 0 0-.012.084v.006l.297-.056c-.04-.028-.115-.042-.145-.08-.038-.046-.028-.117-.079-.16-.052-.046-.123-.033-.184-.055-.087-.032-.145-.115-.23-.15-.13-.054-.17.031-.293.044-.076.009-.127-.04-.191-.07a.488.488 0 0 0-.375-.028 3.39 3.39 0 0 1 .113-.124h.006c.113-.006.22.035.331.049a.69.69 0 0 0 .171-.02c-.03-.014-.15-.018-.067-.044.04.001.138.016.148-.026.045-.05.07-.054.138-.067.056-.057.111-.103.109-.18-.026-.038-.012-.073-.03-.107-.09-.005-.083-.052-.083-.109a.241.241 0 0 0-.087-.028l.022-.014c.087-.059.176-.112.266-.163.066.026.117.067.112.127a.21.21 0 0 0 .108-.024c.008-.005.013-.017.022-.017.01 0 .017.015.023.022l.007.01s.025-.01.028-.01a.174.174 0 0 1 .027-.004c.016 0 .032 0 .047.01.005.003.025.01.022.02-.002.006-.016.008-.021.009l-.02.005-.033.011c-.01.004-.02.008-.03.008-.014.013.038.005.055.01.014.005.03.003.044.009.024.01-.02.026-.026.031a.65.65 0 0 0-.038.03.177.177 0 0 0-.04.047.083.083 0 0 0-.011.047c.002.02.012.037.023.053a.444.444 0 0 0 .057.06l.007.008c.112.093.356.21.505.164.163-.05.11-.26.257-.35.148-.088.305-.162.465-.227.044-.018.086-.043.127-.065.06-.033.12-.059.182-.084l.033-.01c.003-.002.029-.011.016-.015-.009-.003-.02-.002-.028-.002h-.031c-.019.002-.039.003-.057-.002-.005-.001-.014-.001-.014-.008s.012-.008.018-.008c.022-.003.044-.01.066-.014.023-.004.046-.008.069-.016.01-.004.021-.006.032-.011.005-.002.013-.002.012-.01a.05.05 0 0 0-.02-.026c-.005-.003-.01-.004-.015-.008-.006-.004-.004-.009-.001-.016.003-.01.008-.02.009-.032l-.002-.036c-.001-.028.047-.042.066-.05.026-.01.068-.032.071-.064.004-.034-.031-.042-.04-.069a3.972 3.972 0 0 1 1.654.433c-.074.087-.106.205.094.244.077.015.12-.08.185-.087.037.022.073.046.11.07.008.016.012.033.004.05-.01.022-.04.055-.067.044-.033-.015-.006-.088-.063-.088a.104.104 0 0 0-.09.065c-.019.047.058.095.039.14-.025.06-.12.036-.166.067-.093.063-.162.176-.26.244-.046.031-.105.038-.156.054-.033.01-.089.025-.101.062-.016.044.118.071.144.083.071.032.112.083.05.151-.076.085-.265-.016-.352.068a.065.065 0 0 0-.01.014.388.388 0 0 1 .145.35.372.372 0 0 1 .227-.036l.003-.003c.013-.01.03-.016.04-.03.016-.023.001-.054.005-.08.004-.027.022-.044.035-.065.01-.015.016-.034.028-.046.02-.02.053-.02.076-.037.036-.026.004-.074.036-.105.022-.022.055-.017.083-.014.076.008.114-.045.182-.063.007-.002.017-.016.024-.02.02-.014.05-.021.074-.008.018.01.028.033.044.046.026.021.061.027.091.04.033.013.053.015.088.017.037.003.074.03.11.041.028.008.073.02.079.055.01.06-.095.063-.13.072-.012.003-.064.016-.066.03-.003.021.093.036.107.036.041 0 .053-.031.075-.06.018-.023.046-.04.058-.07.01-.024-.01-.044-.01-.067-.002-.02.014-.022.017-.038.006-.03-.061-.043-.08-.047a.33.33 0 0 0-.054-.004c-.012 0-.036.005-.047 0-.037-.015-.048-.05-.086-.07-.127-.036-.045-.13.02-.072.082-.012.118.07.21.06.052.046.099.007.143.07.022.089.04.085.13.125.031.015.038.113.093.087.018-.01.035-.036.048-.05.007-.008.025-.022.029-.032.011-.033-.042-.025-.056-.04-.063-.074.049-.12.107-.129a.051.051 0 0 1 .045.015l.016.021c.013.02.021.044.03.062.01.022.024.042.044.056.009.006.018.01.028.015a3.936 3.936 0 0 1 .197.295c-.035.017-.069.032-.11.027a.3.3 0 0 0-.088-.002c-.055.01-.098-.007-.15-.011-.042-.003-.092-.018-.133-.013-.052.006-.094.04-.097.093-.001.022.001.047-.018.06-.033.024-.08-.002-.116-.003-.028 0-.057.003-.085-.003a.12.12 0 0 1-.035-.014c-.008-.006-.02-.026-.03-.028a.32.32 0 0 0-.137-.009.198.198 0 0 1-.12-.013c-.064-.03 0-.057-.02-.103-.002-.008-.023-.024-.023-.029.004-.08-.074-.046-.13-.021-.106.03-.25.019-.335.079a.6.6 0 0 0-.113.038.384.384 0 0 1 .036.022l.547.374a.933.933 0 0 1 .317 1.162l.01.007c.049.044.028.153.042.21.021.09.051.13.116.194.104.1.23.2.234.356.004.132-.107.239-.033.37.065.114.166.171.222.3.045.106.077.128.149.201.078.08.235.459.387.21a.097.097 0 0 1 .032-.01c-.112.3-.26.584-.443.852zm-6.562-4.487c.076-.112.158-.219.245-.322.025.067.09.189.094.198.067.148-.042.067-.084.17-.018.044.04.07.029.105-.043.15-.177-.053-.264-.088a.222.222 0 0 0-.054-.013l.034-.05zm7.71 1.412a4.505 4.505 0 1 0-8.857 1.665 4.505 4.505 0 0 0 8.856-1.665zm-2.945-.832l-.545.798-.937 1.37-1.121 1.64.028.02.009.006a591.488 591.488 0 0 1 .029.018l.017.01.01.005a.303.303 0 0 0 .018.008l.01.005a.427.427 0 0 1 .018.006l.008.004a.322.322 0 0 0 .03.009l.024.005.009.002a.206.206 0 0 0 .028.004l.016.002h.01a.198.198 0 0 0 .027 0h.026a.526.526 0 0 0 .026-.002l.006-.001.021-.003.01-.002.016-.003.01-.001.012-.003h.01l.032-.007 2.823-.53-1.034-.704 1.02-1.493.023-.032a.545.545 0 0 0-.142-.758l-.547-.373zM17.518-.904l.979-1.43.238-.35s1.4-2.032 1.393-2.037l-.027-.02-.008-.006a.426.426 0 0 1-.02-.011l-.009-.006-.018-.01c-.003 0-.006-.002-.009-.004a.673.673 0 0 0-.026-.01l-.001-.001-.025-.009-.008-.002-.018-.004-.009-.003a.32.32 0 0 0-.017-.003l-.009-.001a.248.248 0 0 0-.025-.003H19.838l-.018.002c-.002 0-.004.003-.007.003-.008 0-.017.004-.025.005h-.003c-.007.003-.015.001-.022.003l-.04.007-.01.002c-.014.004-.027.008-.04.01l-2.824.53 1.03.684-.605.882-.439.641a.56.56 0 0 0-.068.493.533.533 0 0 0 .205.274l.477.326.07.048zm.167.358a.413.413 0 0 1-.223.04c.01.083.027.164.029.248.002.11-.035.216-.056.324-.006.031-.015.071-.002.102.02.049.076.046.058.11-.013.046-.038.09-.057.133a.134.134 0 0 0-.014.078c.004.02.02.035.02.055.003.027-.019.05-.02.077 0 .034.025.07.043.097.079.11.346.267.484.195.051-.026.067-.118.052-.168-.019-.068-.053-.023-.104-.031-.094-.014.027-.226.01-.284-.008-.025-.032-.041-.038-.067-.016-.072.102-.22.157-.257.057-.039.094-.093.14-.142a.89.89 0 0 1-.33-.162.388.388 0 0 1-.149-.348zm2.686-5.11c.024-.002.052-.008.075.002.007.002.05.041.033.049-.019.01-.05.007-.056.032-.003.013.007.025.002.038-.004.01-.022.018-.023.028 0 .027.04 0 .047.019.008.02-.053.052-.049.085.004.027.008.054.04.04.038-.018.058-.06.092-.082.011-.007.036-.01.043-.017.038-.036.099-.019.144-.033.04-.013.059-.064.044-.103-.007-.02-.015-.017-.036-.016-.045.002-.056-.011-.082-.043-.029-.035-.084-.046-.12-.073-.014-.011-.03-.028-.03-.047.002-.02.036-.053-.002-.062-.02-.005-.04.01-.06.01-.028.001-.013-.027-.034-.034-.016-.006-.049.012-.061.02a.126.126 0 0 0-.052.052c-.011.03.005.039.015.063.026.06.045-.01.07.073z"/>
                    <path fill="#714E46" d="M26.817-3.958a1.15 1.15 0 0 1-.862 1.377l-2.38.545a1.15 1.15 0 0 1-.515-2.24l2.38-.545a1.15 1.15 0 0 1 1.377.863M27.872.898a1.15 1.15 0 0 1-.863 1.378l-2.598.594a1.149 1.149 0 1 1-.513-2.239l2.597-.596a1.149 1.149 0 0 1 1.377.863M28.298 3.271a1.152 1.152 0 0 1-.863 1.377l-1.871.43a1.148 1.148 0 1 1-.514-2.24l1.871-.43a1.151 1.151 0 0 1 1.377.863M27.447-1.554a1.22 1.22 0 0 1-.916 1.461L23.773.54c-.656.15-1.31-.26-1.46-.916a1.217 1.217 0 0 1 .915-1.461l2.758-.634c.656-.15 1.31.26 1.461.917"/>
                </g>
            </g>
            <g transform="translate(-2.5 6.25)">
                <mask id="j" fill="#fff">
                    <use xlink:href="#i"/>
                </mask>
                <g mask="url(#j)">
                    <g transform="translate(-2.3 11.778)">
                        <mask id="l" fill="#fff">
                            <use xlink:href="#k"/>
                        </mask>
                        <path fill="#C19372" d="M9.496 1.002c.131-.526 2.194-2.576 4.255 2.99 2.06 5.569 1.286 6.118 1.567 8.412.28 2.295 6.513 5.368 6.513 5.368s.363.226-.898 1.546c-1.26 1.322-2.574 3.073-4.661 7.464-2.201 4.628-7.305 13.925-7.305 13.925H0V37.66s10.406-17.841 10.41-19.25c.002-1.41.213-2.665.598-6.387.239-2.303.357-2.084-.195-5.813-.549-3.702-1.542-4.294-1.317-5.207" mask="url(#l)"/>
                    </g>
                    <g transform="translate(8.673 4.698)">
                        <mask id="n" fill="#fff">
                            <use xlink:href="#m"/>
                        </mask>
                        <path fill="#292929" d="M4.918 25.104c.254 1.142 1.42 1.856 2.598 1.593l9.378-2.09c1.18-.263 1.93-1.404 1.675-2.548L14.032 1.706C13.776.564 12.613-.152 11.433.11L2.056 2.2C.875 2.465.124 3.607.38 4.75l4.538 20.354z" mask="url(#n)"/>
                    </g>
                    <path fill="#707070" d="M21.441 28.193a1.109 1.109 0 1 1-2.167.483 1.11 1.11 0 1 1 2.167-.483M16.759 7.07a.212.212 0 0 1-.159.25l-1.574.35a.21.21 0 0 1-.25-.158.209.209 0 0 1 .16-.247l1.574-.35a.21.21 0 0 1 .249.156M14.346 7.67a.313.313 0 1 1-.61.136.313.313 0 0 1 .61-.136"/>
                    <path fill="#C19372" d="M8.715 23.8c.196-1.814.196-3.489-.196-5.813-.623-3.69-1.542-4.294-1.316-5.207.131-.526 2.106-2.542 4.254 2.99.996 2.566.967 10.185 1.398 12.649.27 1.552-1.7.086-1.74-.031-.04-.117-2.4-4.588-2.4-4.588"/>
                    <path fill="#469751" d="M25.377 25.498L21.3 7.204l-2.563.57-2.578.575-5.63 1.255L14.607 27.9l2.367-.528.57-.126z"/>
                    <path fill="#FFF" d="M20.116 18.843a3.498 3.498 0 0 1-2.25 1.469 3.495 3.495 0 0 1-2.629-.552 3.502 3.502 0 0 1-1.53-2.9c.03.003.06.004.093.014.016.02.027.015.055.013.057.011.116.034.174.023.07-.033.092-.066.151-.014.054.046.168.052.234.052.038 0 .072-.008.107.01.03.018.051.05.078.072a.3.3 0 0 0 .178.077c.049.003.099-.003.148 0l.077-.112c-.134.003-.244-.074-.357-.135a.59.59 0 0 0-.198-.078c.001 0-.01-.182-.046-.202-.087-.05-.149.106-.207.144-.143.09-.255-.012-.296-.157-.097-.34.423-.519.675-.39.026.012.124.112.149.099.042-.022-.015-.153-.02-.182-.01-.087-.011-.125.063-.19a.266.266 0 0 0 .08-.14c.01-.034.012-.065.031-.091a.341.341 0 0 1 .204-.547l.256-.049c-.006-.002-.011-.005-.017-.006l-.018-.006a.206.206 0 0 0-.076-.013l-.017.002c-.003 0-.012 0-.009-.003.002-.002.007-.003.01-.004l.014-.005.03-.01c.035-.007.072-.004.108-.003.018 0 .036 0 .053-.002.01 0 .02-.002.028-.005.006-.004.025-.002.022-.008-.004-.006-.02-.009-.017-.019.002-.006.01-.011.016-.015.006-.005.014-.009.021-.013.033-.018.065-.038.1-.053a.263.263 0 0 1 .072-.019c.007 0 .018-.003.024.001.007.004.001.013-.001.018-.004.008-.008.015-.011.024a.203.203 0 0 0-.01.074v.005l.261-.05c-.034-.024-.1-.036-.127-.07-.034-.04-.025-.103-.07-.142-.046-.04-.108-.028-.162-.048-.077-.028-.128-.101-.204-.132-.114-.047-.15.028-.258.04-.067.007-.113-.036-.169-.063a.431.431 0 0 0-.331-.025c.032-.037.065-.073.1-.11h.005c.1-.004.195.032.293.044a.609.609 0 0 0 .15-.018c-.027-.012-.133-.016-.059-.038.035 0 .122.013.13-.023.04-.044.063-.048.123-.06.049-.05.098-.09.096-.159-.023-.033-.01-.064-.026-.094-.08-.005-.074-.046-.074-.096a.213.213 0 0 0-.077-.025l.02-.013c.076-.051.155-.098.235-.143.058.023.103.059.099.112a.186.186 0 0 0 .095-.022c.007-.003.011-.014.02-.014.009 0 .014.013.02.02l.006.008.024-.009a.154.154 0 0 1 .024-.004c.014 0 .03.001.042.009.005.003.022.01.02.018-.003.005-.015.007-.02.008l-.017.005-.03.01c-.008.002-.016.006-.026.006-.011.012.034.005.049.01.013.003.027.002.039.007.02.009-.017.023-.023.028a.574.574 0 0 0-.034.026.156.156 0 0 0-.035.041.073.073 0 0 0-.01.042c.002.017.01.033.02.046.015.02.033.037.05.054l.008.006c.098.083.314.187.445.146.144-.045.096-.23.227-.309.13-.079.27-.143.41-.2.04-.017.076-.039.113-.059.052-.029.106-.051.161-.074.01-.003.02-.005.029-.009.002-.001.025-.01.014-.013-.008-.003-.017-.001-.025-.001h-.027c-.017.001-.034.002-.05-.002-.005-.001-.013-.001-.013-.007 0-.007.01-.007.016-.007.02-.003.039-.009.058-.012.02-.004.041-.008.06-.015.01-.003.02-.005.029-.01.005-.001.012-.001.01-.008a.045.045 0 0 0-.017-.023c-.004-.003-.009-.004-.012-.007-.006-.004-.004-.008-.002-.014.003-.01.007-.019.008-.029l-.001-.032c-.002-.024.041-.037.057-.044.023-.01.06-.028.063-.056.004-.03-.027-.037-.034-.06a3.507 3.507 0 0 1 1.46.382c-.066.076-.094.18.083.215.068.013.106-.07.163-.077.032.02.065.04.096.062.008.013.011.029.005.044-.009.02-.036.048-.06.038-.029-.013-.005-.077-.055-.077a.092.092 0 0 0-.08.058c-.016.04.052.083.035.123-.023.054-.107.031-.147.059-.082.056-.143.155-.23.216-.04.027-.092.033-.137.047-.03.01-.079.022-.09.055-.013.04.105.063.128.074.063.028.099.072.045.133-.068.075-.235-.014-.312.06a.057.057 0 0 0-.01.012h.002a.343.343 0 0 1 .128.309.329.329 0 0 1 .2-.031l.002-.003c.012-.009.026-.015.035-.027.015-.02.002-.047.005-.07.004-.024.02-.039.031-.058.01-.013.014-.03.025-.04.018-.018.046-.019.067-.033.032-.023.003-.066.031-.093.02-.019.049-.015.074-.012.067.007.1-.04.161-.056.006-.002.015-.014.02-.018.019-.011.046-.018.066-.006.017.009.025.028.04.04.022.019.053.024.08.035.029.012.047.013.077.016.033.002.065.026.097.036.025.007.065.017.07.048.01.053-.083.056-.114.064-.011.002-.057.014-.059.027-.003.018.082.031.095.031.036 0 .046-.027.065-.053.017-.02.041-.036.052-.062.009-.02-.008-.038-.01-.059 0-.017.014-.02.016-.034.005-.026-.054-.038-.07-.04a.292.292 0 0 0-.048-.005c-.01 0-.032.005-.041.001-.034-.014-.043-.045-.076-.063-.113-.03-.04-.114.017-.063.073-.01.105.062.185.053.047.04.088.006.127.062.02.078.035.075.115.11.027.014.034.1.082.077.015-.008.03-.031.042-.044.006-.007.022-.02.025-.029.01-.028-.037-.021-.049-.035-.056-.065.043-.106.095-.113a.045.045 0 0 1 .04.013l.014.018c.01.018.018.04.026.055a.12.12 0 0 0 .04.05c.007.005.015.009.024.012a3.476 3.476 0 0 1 .174.261c-.03.015-.061.029-.097.024a.264.264 0 0 0-.078-.001c-.048.008-.086-.007-.133-.01-.037-.003-.081-.016-.117-.012-.046.006-.083.036-.086.082-.001.02.001.041-.016.054-.029.02-.07-.003-.102-.003-.025 0-.05.002-.075-.003a.106.106 0 0 1-.031-.013c-.007-.005-.019-.023-.026-.025a.283.283 0 0 0-.122-.007.175.175 0 0 1-.106-.012c-.056-.027 0-.05-.016-.09-.003-.007-.021-.022-.021-.026.003-.07-.066-.04-.115-.019-.094.027-.221.017-.296.07a.53.53 0 0 0-.1.034.339.339 0 0 1 .032.019l.483.33c.336.23.448.669.28 1.027l.008.006c.044.038.026.134.037.185.02.08.046.115.103.17.092.09.204.178.207.316.003.116-.094.21-.029.326.057.101.147.152.196.265.04.094.068.114.131.178.07.071.208.405.342.185a.086.086 0 0 1 .028-.01 3.49 3.49 0 0 1-.391.754zM14.32 14.88a3.72 3.72 0 0 1 .216-.284c.022.06.08.167.083.175.06.131-.037.06-.075.151-.015.038.035.061.026.092-.038.132-.156-.047-.233-.077a.196.196 0 0 0-.047-.012l.03-.045zm6.807 1.247a3.979 3.979 0 1 0-7.82 1.47 3.979 3.979 0 0 0 7.82-1.47zm-2.6-.735c-.032.049-.223.328-.481.705l-.827 1.21-.99 1.448.024.018.008.005.017.01.01.006.014.009.01.004.014.007.01.005a.377.377 0 0 1 .015.005l.008.003a.285.285 0 0 0 .026.009l.021.004.008.002.015.002.01.001a.16.16 0 0 0 .014.002h.01a.175.175 0 0 0 .023.001h.023a.464.464 0 0 0 .028-.003l.019-.003.009-.002.014-.002.008-.002c.004 0 .007 0 .011-.002h.009l.028-.006 2.493-.468-.913-.621.901-1.32.02-.028a.481.481 0 0 0-.126-.669l-.482-.33zm-2.794 3.025l.864-1.263.21-.308s1.236-1.795 1.23-1.8l-.023-.017-.008-.005a.377.377 0 0 1-.017-.01l-.008-.005-.016-.009c-.003 0-.005-.002-.008-.003l-.023-.01h-.001l-.022-.008-.007-.002-.016-.004-.008-.002-.015-.003h-.008a.22.22 0 0 0-.022-.004h-.053l-.016.002c-.003 0-.004.003-.007.003-.007 0-.014.004-.022.005h-.002c-.007.002-.013 0-.02.002l-.036.006-.008.002-.036.009-2.493.468.91.603-.535.78-.387.566a.495.495 0 0 0-.06.435.47.47 0 0 0 .18.242l.421.288.062.042zm.147.316a.365.365 0 0 1-.197.036c.008.073.024.145.025.219.002.097-.03.19-.049.286-.005.027-.013.063-.002.09.018.043.067.04.052.097-.012.04-.034.08-.05.118a.118.118 0 0 0-.013.068c.003.018.017.03.018.049.002.024-.017.044-.017.068 0 .03.021.062.037.085.07.098.306.236.428.173.045-.023.058-.104.046-.149-.018-.06-.047-.02-.093-.027-.082-.012.025-.2.009-.25-.007-.023-.028-.037-.033-.06-.014-.063.09-.195.139-.227.05-.034.083-.082.122-.125a.786.786 0 0 1-.29-.143.343.343 0 0 1-.132-.308zm2.372-4.511c.02-.003.046-.008.066 0 .006.003.044.037.03.044-.017.008-.045.006-.05.028-.003.011.006.022.001.034-.003.009-.019.015-.02.025 0 .024.035 0 .042.016.007.019-.047.047-.043.076.003.023.006.047.035.034.033-.015.051-.052.081-.071.01-.007.032-.009.038-.015.034-.032.087-.018.127-.03.035-.011.052-.056.04-.09-.007-.019-.014-.015-.033-.015-.04.002-.05-.01-.072-.038-.026-.031-.074-.04-.106-.065-.012-.01-.027-.025-.026-.041.001-.018.031-.047-.002-.055-.019-.004-.036.009-.054.01-.024 0-.011-.025-.03-.031-.013-.005-.042.011-.053.017a.111.111 0 0 0-.046.047c-.01.027.005.034.013.055.023.053.04-.009.062.065z"/>
                    <path fill="#C19372" d="M25.567 16.042a1.15 1.15 0 0 1-.862 1.377l-2.38.545a1.15 1.15 0 0 1-.515-2.24l2.38-.545a1.15 1.15 0 0 1 1.377.863M26.622 20.898a1.15 1.15 0 0 1-.863 1.378l-2.598.594a1.149 1.149 0 1 1-.513-2.239l2.597-.596a1.149 1.149 0 0 1 1.377.863M27.048 23.271a1.152 1.152 0 0 1-.863 1.377l-1.871.43a1.148 1.148 0 1 1-.514-2.24l1.871-.43a1.151 1.151 0 0 1 1.377.863M26.197 18.446a1.22 1.22 0 0 1-.916 1.461l-2.758.633c-.656.15-1.31-.26-1.46-.916a1.217 1.217 0 0 1 .915-1.461l2.758-.634c.656-.15 1.31.26 1.461.917"/>
                </g>
            </g>
            <g>
                <g transform="matrix(-1 0 0 1 42.727 17.776)">
                    <mask id="q" fill="#fff">
                        <use xlink:href="#p"/>
                    </mask>
                    <path fill="#292929" d="M13.462.512L8.078.265 2.697.018A2.56 2.56 0 0 0 .02 2.458l.774 21a2.562 2.562 0 0 0 2.44 2.674l3.65.168 3.65.167a2.56 2.56 0 0 0 2.675-2.44l2.693-20.84A2.562 2.562 0 0 0 13.462.512" mask="url(#q)"/>
                </g>
                <path fill="#707070" d="M37.65 35.122a.904.904 0 0 0 .944.861l.668-.03a.901.901 0 0 0 .86-.943l-.002-.042a.904.904 0 0 0-.944-.86l-.667.031a.902.902 0 0 0-.86.943l.002.04zM34.295 35.276a.903.903 0 0 0 .943.86l.668-.03a.903.903 0 0 0 .86-.943l-.002-.041a.903.903 0 0 0-.943-.86l-.667.031a.902.902 0 0 0-.86.943l.001.04zM30.94 35.43a.903.903 0 0 0 .942.86l.668-.03a.903.903 0 0 0 .86-.943l-.001-.04a.902.902 0 0 0-.943-.86l-.669.03a.902.902 0 0 0-.86.943l.002.04zM37.625 32.108c.025.524.47.93.994.906l.703-.032a.95.95 0 0 0 .906-.994l-.002-.042a.95.95 0 0 0-.993-.907l-.703.032a.95.95 0 0 0-.906.994l.001.043zM34.09 32.27c.025.524.47.93.994.906l.703-.032a.95.95 0 0 0 .907-.994l-.002-.042a.95.95 0 0 0-.993-.907l-.704.033a.95.95 0 0 0-.906.993l.002.042zM30.556 32.431c.025.525.47.93.994.906l.703-.032a.95.95 0 0 0 .907-.993l-.004-.043a.95.95 0 0 0-.993-.906l-.702.033a.952.952 0 0 0-.907.993l.002.042zM37.688 38.138a.876.876 0 0 0 .916.834l.648-.03a.875.875 0 0 0 .834-.914l-.002-.04a.875.875 0 0 0-.915-.834l-.648.03a.875.875 0 0 0-.834.915l.001.039zM34.433 38.287a.876.876 0 0 0 .915.835l.647-.03a.876.876 0 0 0 .835-.915l-.002-.04a.875.875 0 0 0-.915-.835l-.648.03a.877.877 0 0 0-.834.915l.002.04zM31.177 38.436a.875.875 0 0 0 .915.834l.648-.029a.875.875 0 0 0 .834-.916l-.002-.038a.876.876 0 0 0-.915-.835l-.647.03a.877.877 0 0 0-.835.914l.002.04zM37.692 41.063c.021.459.41.814.869.792l.615-.027a.833.833 0 0 0 .794-.87l-.003-.036a.833.833 0 0 0-.868-.795l-.615.03a.833.833 0 0 0-.794.868l.002.038zM34.598 41.205c.022.458.411.813.87.793l.616-.029a.832.832 0 0 0 .792-.869l-.001-.036a.832.832 0 0 0-.869-.794l-.616.029a.831.831 0 0 0-.792.869v.037zM31.507 41.347c.022.458.41.813.868.792l.616-.028a.83.83 0 0 0 .792-.869v-.037a.832.832 0 0 0-.87-.793l-.615.028a.833.833 0 0 0-.793.869l.002.038z"/>
                <g transform="matrix(-1 0 0 1 57.5 27.735)">
                    <mask id="s" fill="#fff">
                        <use xlink:href="#r"/>
                    </mask>
                    <path fill="#714E46" d="M15.342.02s-3.194 3.418-3.903 4.42c-.366.515-.71 1.42-1.058 3.307-.603 3.284-1.164 6.793-1.344 7.24C8.86 15.433 0 31.953 0 31.953h10.273s4.333-13.668 5.05-14.652c.715-.984 1.82-2.123 2.682-3.845.996-1.993 1.115-2.562 2.656-4.555 2.047-2.65 2.802-2.923 2.705-3.79-.174-1.567-2.506-.827-4.525.874-1.727 1.454-2.487 2.513-3.193 2.59L15.342.022z" mask="url(#s)"/>
                </g>
                <path fill="#FFF" d="M29.545 20.882l4.595-.21 5.906-.27a.45.45 0 0 1 .471.43l-.299 8.279a.45.45 0 0 1-.43.47l-2.139.099-6.969.32a.45.45 0 0 1-.47-.43l-1.096-8.216a.454.454 0 0 1 .431-.472"/>
                <g transform="translate(31.875 21.25)">
                    <circle cx="3.438" cy="3.438" r="3.438" fill="#32C832"/>
                    <path fill="#FFF" d="M5.5 1.963a.357.357 0 0 0-.356-.359.352.352 0 0 0-.243.097L2.797 3.758l-.693-.775a.352.352 0 0 0-.483.019l-.142.143a.36.36 0 0 0-.026.479L2.59 5.06a.353.353 0 0 0 .555 0l2.276-2.872a.36.36 0 0 0 .078-.225"/>
                </g>
            </g>
        </g>
        <path stroke="#333" stroke-dasharray="1,1" stroke-linecap="round" stroke-linejoin="round" stroke-width=".5" d="M12.19 10.806c8.91-6.07 16.034-4.422 21.374 4.943" mask="url(#b)"/>
    </g>
</svg>
