<svg xmlns="http://www.w3.org/2000/svg" xmlns:xlink="http://www.w3.org/1999/xlink" width="46" height="48" viewBox="0 0 46 48">
    <defs>
        <path id="a" d="M11.498 22C5.702 22 1 17.298 1 11.502 1 5.702 5.702 1 11.498 1 17.298 1 22 5.702 22 11.502 22 17.298 17.298 22 11.498 22"/>
        <path id="c" d="M0 0h21v39H0z"/>
        <path id="e" d="M0 0h18v25H0z"/>
        <path id="g" d="M0 0h29v36H0z"/>
        <path id="i" d="M0 0h21v40H0z"/>
        <path id="k" d="M0 0h18v26H0z"/>
    </defs>
    <g fill="none" fill-rule="evenodd">
        <path fill="#595959" d="M25 3v10a11.686 11.686 0 0 0-4 0V3h4zM25 37v10h-4V37a11.565 11.565 0 0 0 4 0M9.818 25.048c0 .668.055 1.317.164 1.952H0v-4h10a11.277 11.277 0 0 0-.182 2.048M46 23v4H35.02c.115-.635.173-1.284.173-1.952 0-.7-.063-1.385-.193-2.048h11z"/>
        <path fill="#FF7900" d="M23.498 36C17.702 36 13 31.298 13 25.502 13 19.702 17.702 15 23.498 15 29.298 15 34 19.702 34 25.502 34 31.298 29.298 36 23.498 36m0-32C11.628 4 2 13.628 2 25.502 2 37.372 11.627 47 23.498 47 35.372 47 45 37.372 45 25.502 45 13.628 35.372 4 23.498 4"/>
        <path fill="#FDCC00" d="M18 34.36L10.36 42A20.694 20.694 0 0 1 5 36.645L12.645 29A10.173 10.173 0 0 0 18 34.36M40 13.357L32.36 21A10.207 10.207 0 0 0 27 15.643L34.645 8A20.611 20.611 0 0 1 40 13.357M18 15.64A10.192 10.192 0 0 0 12.643 21L5 13.36A20.496 20.496 0 0 1 10.357 8L18 15.64zM40 36.644A20.473 20.473 0 0 1 34.645 42L27 34.357A10.206 10.206 0 0 0 32.36 29L40 36.644z"/>
        <path fill="#4BB4E6" d="M23.5 3C11.093 3 1 13.093 1 25.5S11.093 48 23.5 48 46 37.907 46 25.5 35.907 3 23.5 3M23 48C10.318 48 0 37.682 0 25S10.318 2 23 2s23 10.318 23 23-10.318 23-23 23"/>
        <g>
            <g transform="translate(12 14)">
                <mask id="b" fill="#fff">
                    <use xlink:href="#a"/>
                </mask>
                <g mask="url(#b)">
                    <g transform="translate(-1 -7)">
                        <mask id="d" fill="#fff">
                            <use xlink:href="#c"/>
                        </mask>
                        <path fill="#835F45" d="M9.114.774c.126-.507 2.106-2.48 4.084 2.88 1.978 5.36 1.235 5.888 1.504 8.097.269 2.21 6.252 5.168 6.252 5.168s.348.217-.863 1.488c-1.209 1.273-2.47 2.96-4.474 7.186C13.505 30.049 8.607 39 8.607 39H0v-2.935S9.988 18.89 9.99 17.531c.004-1.357.206-2.564.575-6.147.23-2.218.343-2.007-.187-5.597-.526-3.564-1.48-4.134-1.264-5.013" mask="url(#d)"/>
                    </g>
                    <g transform="translate(9 -14)">
                        <mask id="f" fill="#fff">
                            <use xlink:href="#e"/>
                        </mask>
                        <path fill="#000" d="M4.515 23.457c.25 1.07 1.397 1.738 2.558 1.492l9.23-1.958c1.16-.246 1.9-1.314 1.648-2.385L13.485 1.545C13.234.475 12.09-.195 10.928.05l-9.23 1.957C.537 2.255-.201 3.324.05 4.396l4.466 19.06z" mask="url(#f)"/>
                    </g>
                    <path fill="#FDCC00" d="M20.976 8.782a.999.999 0 1 1-1.953.438.999.999 0 0 1 1.953-.438M16.996-11.79c.023.147-.049.293-.16.325l-1.581.458c-.113.034-.224-.06-.25-.206-.023-.145.046-.29.159-.322l1.582-.458c.11-.034.223.059.25.203M14.988-10.61a.5.5 0 1 1-.976.219.5.5 0 0 1 .976-.218"/>
                    <path fill="#714E46" d="M9.354 4.027C9.526 2.333 9.526.77 9.183-1.4c-.546-3.444-1.35-4.008-1.152-4.86.114-.492 1.843-2.374 3.724 2.791.871 2.396.846 9.508 1.223 11.808.237 1.449-1.488.08-1.523-.03-.035-.108-2.1-4.282-2.1-4.282"/>
                    <path fill="#FF7900" d="M25 6.68L21.155-11l-2.416.551-2.43.555L11-8.68 14.846 9l2.232-.51.537-.123v.002z"/>
                    <path fill="#FFF" d="M20.597 1.257a3.827 3.827 0 0 1-.986 1.078c-.402.295-.85.495-1.33.595-.48.1-.962.093-1.434-.021a3.448 3.448 0 0 1-1.272-.608 3.83 3.83 0 0 1-.973-1.091 4.224 4.224 0 0 1-.539-1.473 4.475 4.475 0 0 1-.063-.74c.03.003.062.004.095.015.017.023.028.018.057.015.059.013.12.04.18.027.072-.038.094-.076.155-.017.055.053.172.06.24.06.04 0 .075-.01.11.012.031.02.053.056.081.081.056.05.11.083.184.088.05.003.1-.003.151 0l.08-.128c-.138.003-.251-.083-.368-.154a.574.574 0 0 0-.204-.088c.002 0-.01-.208-.047-.23-.09-.059-.153.12-.213.163-.147.103-.263-.013-.305-.178-.1-.388.436-.592.696-.446.026.015.126.129.152.114.043-.025-.015-.174-.02-.207-.01-.1-.012-.143.065-.218a.311.311 0 0 0 .083-.158c.01-.04.012-.075.031-.104a.42.42 0 0 1-.07-.32.372.372 0 0 1 .28-.304l.263-.055a.239.239 0 0 0-.036-.014.194.194 0 0 0-.077-.015c-.007 0-.013.003-.019.003-.002 0-.012 0-.008-.005.002-.002.007-.003.01-.003a.198.198 0 0 0 .014-.007l.03-.01c.038-.009.075-.005.112-.004.019 0 .037 0 .055-.002a.08.08 0 0 0 .029-.007c.006-.004.026-.001.023-.008-.005-.007-.02-.01-.018-.021.002-.008.011-.014.016-.018.007-.006.014-.01.022-.015.034-.02.066-.043.102-.06a.253.253 0 0 1 .052-.019.143.143 0 0 1 .023-.003c.007 0 .019-.003.025.001.007.005.001.015-.002.02-.004.01-.008.018-.01.028a.255.255 0 0 0-.012.085v.006l.27-.057c-.035-.028-.104-.042-.131-.08-.035-.047-.026-.118-.072-.162-.048-.046-.112-.032-.167-.055-.08-.032-.132-.115-.21-.15-.117-.054-.154.031-.266.044-.069.009-.115-.04-.173-.07a.405.405 0 0 0-.342-.03 3.31 3.31 0 0 1 .104-.124h.005c.103-.006.2.036.301.05a.57.57 0 0 0 .155-.021c-.028-.013-.137-.018-.06-.044.035.002.125.016.134-.026.04-.05.064-.054.125-.067.051-.057.102-.104.1-.182-.024-.038-.011-.073-.028-.107-.081-.006-.075-.052-.075-.11a.205.205 0 0 0-.08-.028l.02-.015c.08-.058.16-.112.243-.163.06.026.106.067.102.128.033 0 .07-.005.098-.025.006-.004.011-.017.02-.017.01 0 .015.016.02.022l.007.01.025-.01a.144.144 0 0 1 .024-.004c.015 0 .03.001.043.01.005.003.023.011.02.02-.002.007-.014.009-.019.01l-.018.005-.03.011c-.01.003-.018.008-.027.008-.012.013.034.005.05.01.013.005.027.003.04.009.021.01-.018.027-.024.031a.605.605 0 0 0-.034.03.174.174 0 0 0-.037.048.09.09 0 0 0-.01.047c.002.02.01.038.021.053a.432.432 0 0 0 .052.061l.007.007c.101.094.323.213.458.166.149-.05.1-.262.234-.351.134-.09.277-.164.422-.23.04-.018.079-.043.117-.066.053-.033.109-.058.165-.084l.03-.01c.002-.002.026-.011.014-.015-.008-.003-.017-.002-.025-.002h-.028c-.018.002-.035.003-.052-.002-.005-.001-.013-.001-.013-.008s.011-.008.016-.008c.02-.003.04-.01.06-.014.021-.004.043-.008.063-.016.01-.004.02-.006.029-.011.005-.002.012-.002.01-.01a.05.05 0 0 0-.017-.026c-.004-.004-.01-.005-.013-.008-.006-.005-.004-.01-.002-.016.003-.01.008-.021.008-.033.001-.012 0-.025-.001-.036-.001-.028.043-.043.06-.05.023-.011.061-.032.064-.065.004-.034-.028-.042-.035-.069a3.313 3.313 0 0 1 1.503.435c-.068.088-.097.207.085.246.07.015.11-.08.168-.088l.1.07a.06.06 0 0 1 .004.052c-.009.021-.037.054-.061.043-.03-.015-.006-.088-.058-.088-.035.001-.069.03-.082.066-.016.047.054.095.036.14-.023.061-.11.036-.151.067-.084.064-.147.178-.237.246-.04.032-.094.038-.14.055-.031.01-.082.024-.093.062-.014.044.107.072.132.084.064.032.101.083.045.151-.07.086-.24-.016-.32.069a.065.065 0 0 0-.01.014.411.411 0 0 1 .133.351.316.316 0 0 1 .206-.035l.002-.003c.012-.01.027-.016.036-.03.015-.024.002-.055.006-.08.003-.028.019-.045.032-.066.009-.015.014-.034.025-.047.018-.02.047-.02.068-.036.034-.027.004-.075.033-.106.02-.022.05-.018.076-.014.069.007.104-.045.166-.064.006-.002.015-.016.02-.02.02-.014.047-.021.068-.008.017.01.026.033.04.046.024.022.056.028.083.04.03.014.049.015.08.018.034.003.067.03.1.041.026.008.066.02.072.055.01.06-.086.064-.118.073-.011.002-.059.016-.06.03-.003.022.084.036.097.036.038 0 .048-.031.068-.06.017-.023.042-.041.053-.07.009-.024-.009-.045-.01-.068 0-.02.014-.022.016-.038.005-.031-.056-.044-.073-.047a.273.273 0 0 0-.049-.005c-.01 0-.032.005-.042 0-.034-.015-.044-.05-.078-.07-.116-.036-.041-.131.018-.073.075-.012.107.07.19.06.048.047.09.008.13.071.02.09.037.085.12.126.027.015.034.114.083.088.017-.01.032-.036.044-.051.006-.008.023-.022.026-.032.01-.033-.038-.025-.05-.04-.058-.075.044-.122.097-.13a.044.044 0 0 1 .04.015l.016.021c.01.02.018.045.026.063.01.022.022.042.04.056.008.006.017.01.026.015a3.997 3.997 0 0 1 .179.297c-.031.017-.063.032-.1.027a.246.246 0 0 0-.08-.002c-.05.01-.089-.007-.137-.011-.038-.003-.083-.018-.12-.013a.097.097 0 0 0-.089.094c0 .021.002.047-.016.06-.03.024-.073-.002-.105-.003-.026 0-.052.003-.077-.003a.103.103 0 0 1-.032-.014c-.008-.007-.02-.027-.027-.029a.264.264 0 0 0-.125-.008.164.164 0 0 1-.11-.014c-.057-.03 0-.057-.017-.103-.002-.008-.021-.024-.021-.03.004-.08-.068-.045-.118-.02-.097.03-.228.018-.305.079a.51.51 0 0 0-.103.038.343.343 0 0 1 .033.022l.497.376c.346.263.461.763.288 1.17l.009.008c.045.043.026.153.038.21.02.091.047.132.106.195.095.101.21.202.213.36.003.132-.097.24-.03.371.06.115.151.173.201.302.042.107.07.13.136.203.07.08.214.462.352.211.01-.006.02-.009.029-.01a4.145 4.145 0 0 1-.403.858zM15.03-3.39c.068-.212.14-.414.217-.61.023.127.08.358.084.375.06.281-.038.128-.075.324-.016.082.035.131.026.198-.038.283-.157-.101-.235-.167A.122.122 0 0 0 15-3.294a6.9 6.9 0 0 0 .03-.096zm6.9 1.06c-.407-2.443-2.498-4.05-4.668-3.592-2.171.459-3.6 2.81-3.193 5.252.408 2.443 2.499 4.05 4.67 3.592 2.17-.459 3.6-2.81 3.192-5.253zM19.307-3l-.483.816-.83 1.4L17 .892c.008.007.017.015.025.02l.008.007.017.012.009.007.015.01.01.005.014.008.01.005a.346.346 0 0 1 .023.01.259.259 0 0 0 .026.01l.021.005.008.001a.16.16 0 0 0 .016.004h.009a.14.14 0 0 0 .014.003h.024l.009.001h.023a.405.405 0 0 0 .023-.003l.005-.001.02-.003.008-.002c.005 0 .01-.002.014-.003l.008-.002.012-.002h.008l.03-.007 2.499-.542-.916-.72.904-1.526.02-.033c.15-.254.094-.6-.126-.774L19.306-3zM16.69 0l.866-1.463.21-.357S19.005-3.9 19-3.904c-.008-.008-.017-.014-.024-.02l-.008-.006a.371.371 0 0 1-.025-.018l-.016-.01c-.003 0-.005-.003-.008-.004l-.023-.011h-.001l-.022-.01-.007-.002-.016-.004-.008-.003-.015-.003-.008-.001a.192.192 0 0 0-.022-.003h-.002L18.775-4h-.024a.05.05 0 0 0-.008.001l-.016.002-.006.003c-.008 0-.015.004-.022.006h-.003c-.006.002-.013 0-.02.002l-.035.007-.008.002c-.013.004-.025.008-.037.01l-2.498.543.911.699-.535.902-.388.656a.65.65 0 0 0-.06.505c.031.11.092.21.18.28l.422.333.062.049zm-.332 1a.971.971 0 0 1-.3.027c.013.057.037.111.039.168.003.075-.047.146-.075.22-.008.02-.02.047-.003.068.028.033.102.032.078.075-.017.031-.05.06-.076.09-.014.016-.026.034-.019.053.005.013.026.023.028.037.002.018-.026.034-.027.052 0 .023.033.048.057.065.106.075.465.181.65.133.068-.018.09-.08.07-.114-.026-.046-.072-.016-.14-.021-.126-.01.036-.153.013-.192-.01-.017-.042-.028-.05-.046-.022-.048.136-.149.21-.174.077-.026.126-.063.187-.095-.154-.02-.3-.056-.441-.11-.148-.058-.219-.148-.2-.236zm2.72-5.586c.022-.006.047-.016.067.002.006.005.044.082.03.098-.017.018-.045.014-.05.062-.003.026.006.05.001.077-.003.02-.019.034-.02.056 0 .053.035-.001.042.037.008.04-.047.104-.043.169.003.053.006.105.035.077.034-.034.052-.116.082-.16.01-.014.032-.02.038-.034.034-.071.088-.039.128-.067.035-.025.052-.125.039-.203-.007-.04-.014-.033-.033-.031-.039.004-.049-.024-.072-.087-.026-.069-.075-.09-.106-.144a.182.182 0 0 1-.027-.093c.002-.04.032-.106-.002-.123-.018-.01-.035.02-.053.02-.025.003-.012-.054-.03-.068-.014-.011-.044.025-.055.04a.262.262 0 0 0-.045.104c-.01.06.004.076.013.124.023.12.04-.02.062.144z"/>
                    <path fill="#714E46" d="M24.975-3.058c.121.652-.209 1.304-.738 1.453l-2.035.574c-.529.15-1.056-.259-1.177-.91-.121-.653.209-1.303.737-1.453l2.035-.575c.529-.15 1.057.258 1.178.91M26.97 1.925c.145.64-.25 1.28-.881 1.428l-2.653.616a1.172 1.172 0 0 1-1.406-.892 1.193 1.193 0 0 1 .882-1.429l2.652-.618a1.173 1.173 0 0 1 1.406.895"/>
                    <path fill="#714E46" d="M26.972 3.982c.135.679-.235 1.356-.828 1.513l-1.795.473c-.594.156-1.185-.27-1.32-.948-.138-.68.233-1.36.827-1.514l1.795-.474c.593-.156 1.184.27 1.321.95M25.97-1.075c.145.64-.25 1.28-.881 1.427L22.435.97A1.17 1.17 0 0 1 21.03.075a1.19 1.19 0 0 1 .879-1.426l2.654-.619a1.175 1.175 0 0 1 1.406.895"/>
                </g>
            </g>
            <g transform="translate(13 -5)">
                <mask id="h" fill="#fff">
                    <use xlink:href="#g"/>
                </mask>
                <g mask="url(#h)">
                    <g transform="translate(-2 12)">
                        <mask id="j" fill="#fff">
                            <use xlink:href="#i"/>
                        </mask>
                        <path fill="#835F45" d="M9.114.794c.126-.52 2.106-2.544 4.084 2.953 1.978 5.497 1.235 6.04 1.504 8.306.269 2.266 6.252 5.3 6.252 5.3s.348.223-.863 1.526c-1.209 1.305-2.47 3.035-4.474 7.37C13.505 30.82 8.607 40 8.607 40H0v-3.01S9.988 19.373 9.99 17.98c.004-1.392.206-2.63.575-6.306.23-2.274.343-2.058-.187-5.74-.526-3.655-1.48-4.24-1.264-5.141" mask="url(#j)"/>
                    </g>
                    <g transform="translate(8 5)">
                        <mask id="l" fill="#fff">
                            <use xlink:href="#k"/>
                        </mask>
                        <path fill="#000" d="M4.515 24.395c.25 1.112 1.397 1.808 2.558 1.552l9.23-2.036c1.16-.256 1.9-1.367 1.648-2.48L13.485 1.606C13.234.494 12.09-.203 10.928.053l-9.23 2.036C.537 2.345-.201 3.457.05 4.572l4.466 19.823z" mask="url(#l)"/>
                    </g>
                    <path fill="#FDCC00" d="M19.976 27.782a.999.999 0 1 1-1.953.438.999.999 0 0 1 1.953-.438M15.996 7.21c.023.147-.049.293-.16.325l-1.581.458c-.113.034-.224-.06-.25-.206-.023-.145.046-.29.159-.322l1.582-.458c.11-.034.223.059.25.203M13.988 8.39a.5.5 0 1 1-.976.219.5.5 0 0 1 .976-.218"/>
                    <path fill="#835F45" d="M8.354 23.717c.172-1.8.172-3.461-.171-5.767-.546-3.66-1.35-4.258-1.152-5.164.114-.522 1.843-2.522 3.724 2.966.871 2.545.846 10.102 1.223 12.546.237 1.54-1.488.085-1.523-.032-.035-.115-2.1-4.55-2.1-4.55"/>
                    <path fill="#333" d="M24 25.68L20.155 8l-2.416.551-2.43.555L10 10.32 13.846 28l2.232-.51.537-.123v.002z"/>
                    <path fill="#835F45" d="M23.975 15.942c.121.652-.209 1.304-.738 1.453l-2.035.574c-.529.15-1.056-.259-1.177-.91-.121-.653.209-1.303.737-1.453l2.035-.575c.529-.15 1.057.258 1.178.91M25.97 20.925c.145.64-.25 1.28-.881 1.428l-2.653.616a1.172 1.172 0 0 1-1.406-.892 1.193 1.193 0 0 1 .882-1.429l2.652-.618a1.173 1.173 0 0 1 1.406.895"/>
                    <path fill="#835F45" d="M25.972 22.982c.135.679-.235 1.356-.828 1.513l-1.795.473c-.594.156-1.185-.27-1.32-.948-.138-.68.233-1.36.827-1.514l1.795-.474c.593-.156 1.184.27 1.321.95M24.97 18.925c.145.64-.25 1.28-.881 1.427l-2.654.618a1.17 1.17 0 0 1-1.404-.895 1.19 1.19 0 0 1 .879-1.426l2.654-.619a1.175 1.175 0 0 1 1.406.895"/>
                </g>
            </g>
        </g>
    </g>
</svg>
