<svg xmlns="http://www.w3.org/2000/svg" xmlns:xlink="http://www.w3.org/1999/xlink" width="83" height="72" viewBox="0 0 83 72">
    <defs>
        <path id="a" d="M0 .191h4.53v2.292H0z"/>
        <path id="c" d="M9.26 5.583L.334 61.926a6.305 6.305 0 0 0 5.241 7.214l30.87 4.889a6.305 6.305 0 0 0 7.213-5.24l8.924-56.344a6.305 6.305 0 0 0-5.24-7.214L16.472.342a6.307 6.307 0 0 0-7.213 5.24"/>
        <path id="e" d="M9.26 5.583L.334 61.926a6.305 6.305 0 0 0 5.241 7.214l30.87 4.889a6.305 6.305 0 0 0 7.213-5.24l8.924-56.344a6.305 6.305 0 0 0-5.24-7.214L16.472.342a6.307 6.307 0 0 0-7.213 5.24z"/>
        <path id="g" d="M2.322 7.06L.162 22.427a20.782 20.782 0 0 0 5.6 4.689c9.972 5.733 22.704 2.296 28.437-7.678a20.76 20.76 0 0 0 2.105-15.604L11.271.317A7.926 7.926 0 0 0 2.322 7.06"/>
        <path id="i" d="M2.322 7.06L.162 22.427a20.782 20.782 0 0 0 5.6 4.689c9.972 5.733 22.704 2.296 28.437-7.678a20.76 20.76 0 0 0 2.105-15.604L11.271.317A7.926 7.926 0 0 0 2.322 7.06z"/>
        <path id="k" d="M2.962 10.602C-2.77 20.575.667 33.307 10.64 39.04c9.972 5.733 22.704 2.296 28.437-7.677C44.81 21.39 41.373 8.658 31.4 2.925A20.73 20.73 0 0 0 21.039.151C13.827.15 6.814 3.9 2.962 10.602z"/>
        <path id="m" d="M2.962 10.602C-2.77 20.575.667 33.307 10.64 39.04c9.972 5.733 22.704 2.296 28.437-7.677C44.81 21.39 41.373 8.658 31.4 2.925A20.73 20.73 0 0 0 21.039.151C13.827.15 6.814 3.9 2.962 10.602z"/>
        <path id="o" d="M2.962 10.602C-2.77 20.575.667 33.307 10.64 39.04c9.972 5.733 22.704 2.296 28.437-7.677C44.81 21.39 41.373 8.658 31.4 2.925A20.73 20.73 0 0 0 21.039.151C13.827.15 6.814 3.9 2.962 10.602z"/>
        <path id="q" d="M2.962 10.602C-2.77 20.575.667 33.307 10.64 39.04c9.972 5.733 22.704 2.296 28.437-7.677C44.81 21.39 41.373 8.658 31.4 2.925A20.73 20.73 0 0 0 21.039.151C13.827.15 6.814 3.9 2.962 10.602z"/>
        <path id="s" d="M2.962 10.602C-2.77 20.575.667 33.307 10.64 39.04c9.972 5.733 22.704 2.296 28.437-7.677C44.81 21.39 41.373 8.658 31.4 2.925A20.73 20.73 0 0 0 21.039.151C13.827.15 6.814 3.9 2.962 10.602z"/>
        <path id="u" d="M2.962 10.602C-2.77 20.575.667 33.307 10.64 39.04c9.972 5.733 22.704 2.296 28.437-7.677C44.81 21.39 41.373 8.658 31.4 2.925A20.73 20.73 0 0 0 21.039.151C13.827.15 6.814 3.9 2.962 10.602"/>
        <path id="w" d="M2.962 10.602C-2.77 20.575.667 33.307 10.64 39.04c9.972 5.733 22.704 2.296 28.437-7.677C44.81 21.39 41.373 8.658 31.4 2.925A20.73 20.73 0 0 0 21.039.151C13.827.15 6.814 3.9 2.962 10.602"/>
        <path id="y" d="M2.962 10.602C-2.77 20.575.667 33.307 10.64 39.04c9.972 5.733 22.704 2.296 28.437-7.677C44.81 21.39 41.373 8.658 31.4 2.925A20.73 20.73 0 0 0 21.039.151C13.827.15 6.814 3.9 2.962 10.602z"/>
        <path id="A" d="M2.962 10.602C-2.77 20.575.667 33.307 10.64 39.04c9.972 5.733 22.704 2.296 28.437-7.677C44.81 21.39 41.373 8.658 31.4 2.925A20.73 20.73 0 0 0 21.039.151C13.827.15 6.814 3.9 2.962 10.602z"/>
        <path id="C" d="M2.962 10.602C-2.77 20.575.667 33.307 10.64 39.04c9.972 5.733 22.704 2.296 28.437-7.677C44.81 21.39 41.373 8.658 31.4 2.925A20.73 20.73 0 0 0 21.039.151C13.827.15 6.814 3.9 2.962 10.602z"/>
        <path id="E" d="M2.962 10.602C-2.77 20.575.667 33.307 10.64 39.04c9.972 5.733 22.704 2.296 28.437-7.677C44.81 21.39 41.373 8.658 31.4 2.925A20.73 20.73 0 0 0 21.039.151C13.827.15 6.814 3.9 2.962 10.602z"/>
        <path id="G" d="M2.962 10.602C-2.77 20.575.667 33.307 10.64 39.04c9.972 5.733 22.704 2.296 28.437-7.677C44.81 21.39 41.373 8.658 31.4 2.925A20.73 20.73 0 0 0 21.039.151C13.827.15 6.814 3.9 2.962 10.602z"/>
        <path id="I" d="M2.962 10.602C-2.77 20.575.667 33.307 10.64 39.04c9.972 5.733 22.704 2.296 28.437-7.677C44.81 21.39 41.373 8.658 31.4 2.925A20.73 20.73 0 0 0 21.039.151C13.827.15 6.814 3.9 2.962 10.602z"/>
    </defs>
    <g fill="none" fill-rule="evenodd">
        <path fill="#FFF" d="M70.13 24.161l-2.642 2.603c-.73.72.49 1.745 1.216 1.03l2.642-2.604c.73-.72-.49-1.744-1.217-1.029M67.836 15.944l-2.182.908c-.946.393-.417 1.898.531 1.502l2.183-.908c.945-.393.416-1.897-.532-1.502M1.266 35.643l3.465-.754c.999-.218.77-1.795-.233-1.577l-3.465.754c-1 .218-.77 1.796.233 1.577M6.34 44.161l3.566-1.904c.9-.48.275-1.948-.63-1.464L5.71 42.697c-.9.48-.275 1.948.63 1.464M13.24 51.159l2.895-2.722c.742-.698-.248-1.948-.996-1.244l-2.895 2.722c-.742.697.248 1.947.997 1.244"/>
        <g transform="translate(0 23.2)">
            <mask id="b" fill="#fff">
                <use xlink:href="#a"/>
            </mask>
            <path fill="#FFF" d="M.71 1.79l2.936.679c.42.097.836-.312.88-.705.051-.469-.284-.782-.705-.88L.885.207C.465.109.049.518.005.91c-.052.469.284.782.705.88" mask="url(#b)"/>
        </g>
        <path fill="#FFF" d="M7.266 14.884l1.236.706c.373.213.84.197 1.113-.179.231-.32.197-.898-.179-1.113L8.2 13.593c-.373-.214-.84-.197-1.113.178-.232.32-.197.899.179 1.113"/>
        <g>
            <g transform="translate(29.54 25.639)">
                <mask id="d" fill="#fff">
                    <use xlink:href="#c"/>
                </mask>
                <path fill="#FF7900" d="M36.252 73.998L5.77 69.17a6.502 6.502 0 0 1-5.404-7.438L9.229 5.777A6.501 6.501 0 0 1 16.667.373L47.148 5.2a6.501 6.501 0 0 1 5.404 7.438L43.69 68.594a6.5 6.5 0 0 1-7.438 5.404" mask="url(#d)"/>
            </g>
            <g transform="translate(29.54 25.639)">
                <mask id="f" fill="#fff">
                    <use xlink:href="#e"/>
                </mask>
                <path fill="#000" d="M-1.15 30.963s12.869-.728 26.024 8.047c13.596 9.07 48.279-6.199 48.279-6.199S55.737 80.89 53.878 80.761c-1.86-.13-56.48-6.073-56.48-6.073l1.452-43.725z" mask="url(#f)"/>
            </g>
        </g>
        <g>
            <path fill="#FFF" d="M75.182 45.61l-32.108-5.085.899-5.678 32.108 5.086z"/>
            <path fill="#000" d="M45.77 38.326l-1.666 1.038 1.13-1.56.597 1.832-1.273-1.492 2.025.292-1.901-.804 2.058-.178-2.014-.343 1.641-1.06-1.106 1.59-.559-1.855 1.223 1.525-2.018-.309 1.901.81-2.057.18 2.018.334zm1.425-1.997l-1.86.967 1.963.751-2.098.107 1.467 1.494-1.455-1.347-.37 1.99.261-2.007-1.8.831 1.857-.967-1.961-.75 2.097-.108-1.469-1.494 1.46 1.343.369-1.99-.264 2.007 1.803-.827z"/>
            <path fill="#000" d="M45.743 38.297l1.755 1.057-.654-1.956 1.243 1.634-.806-1.87 1.635 1.174-1.76-.938 2.002-.168-1.927.507 1.257-1.513-.833 1.816-.375-1.952.96 1.675-1.875-.707 1 1.501-.215-2.053-.976 1.817 1.562-.826-1.606-1.25 1.524 1.275.369-1.989-.214 2.026L49.39 36.3l-1.62 1.192 1.995.342-1.997-.316 1.397 1.46L47.7 37.56l.72 1.91-1.03-1.748.763 1.88-1.09-1.717.828 1.853-1.283-1.56.792-.147.3 2.095 1.339-1.765-1.557.976 1.049 1.43-.976-2.173-1.46 1.812 1.284-.9z"/>
            <path fill="#000" d="M50.633 37.422L49.45 39l.782-1.845.171 1.997-.644-1.862 1.601 1.173-1.842-.783 2-.156-1.88.603 1.168-1.587-.77 1.853-.162-2 .615 1.877-1.592-1.169 1.85.774-1.992.183 1.88-.637zm-.248 1.394l-1.191 1.576.816-1.83.21 1.992-.646-1.867 1.647 1.094L49.366 39l2.007-.169-1.894.542 1.174-1.593-.81 1.833-.204-1.994.625 1.878-1.635-1.1 1.857.78-2.005.17 1.904-.53zm-2.132-.927l1.528 1.307-1.325-1.188 1.665-.495-1.91.592 1.976-.437-2.002-.266 1.96.41-1.188-1.616 1.06 1.708.41-1.992-.226 2.021 1.536-1.297-1.629 1.17 1.99.216-1.986-.365 1.746 1.024-1.605-1.179 1.405 1.001-1.647.702 1.877-.734-1.91.66 1.998.322-1.98-.358 1.164 1.643-1.12-1.682-.449 1.991.2-2.028-1.6 1.22 1.664-1.139-1.995-.298 1.998.313-1.605-1.226z"/>
            <path fill="#000" d="M54.629 38.324l-1.88-.876 1.2 1.657-1.783-1.035 1.393 1.52-1.932-.694 1.675 1.194-2.014-.396 1.022 1.655-.3-2.05-1.275 1.563 2.008-1.005-1.177-1.867 1.831.984-.656-.048-.32-2.09-1.4 1.766 1.527-.982-1.038-1.45 1.005 2.177 1.601-1.771-1.087 1.923zM54.962 40.178c.118-.19.354-.372.707-.549.307-.154.508-.267.603-.34a.633.633 0 0 0 .256-.406.489.489 0 0 0-.056-.339.383.383 0 0 0-.286-.177c-.182-.029-.317.02-.405.145-.05.072-.092.194-.126.363l-.582-.092c.051-.257.131-.46.24-.606.209-.278.517-.385.925-.32.322.05.564.18.727.39.162.208.22.46.173.753a.971.971 0 0 1-.297.57 2.055 2.055 0 0 1-.497.319l-.267.132a4.703 4.703 0 0 0-.345.182.679.679 0 0 0-.166.144l1.33.21-.084.528-2.085-.33c.04-.218.118-.41.235-.577M58.18 39.331c.056.081.145.13.266.15.122.02.222 0 .3-.06a.38.38 0 0 0 .143-.255.39.39 0 0 0-.056-.299.384.384 0 0 0-.267-.146.388.388 0 0 0-.3.057.386.386 0 0 0-.146.266.377.377 0 0 0 .06.287m-.259 1.38a.427.427 0 0 0 .303.175.427.427 0 0 0 .342-.072c.091-.07.149-.18.172-.33.025-.156.004-.28-.062-.373a.433.433 0 0 0-.302-.172.433.433 0 0 0-.34.07c-.091.068-.15.18-.174.335a.497.497 0 0 0 .061.368m-.5-.872a.742.742 0 0 1 .39-.26c-.133-.12-.212-.242-.238-.363a.893.893 0 0 1-.016-.331.757.757 0 0 1 .34-.527c.192-.13.44-.17.745-.122.304.049.527.164.67.347a.757.757 0 0 1 .16.606.896.896 0 0 1-.116.31c-.063.106-.174.19-.334.251a.855.855 0 0 1 .287.388c.054.15.067.311.04.482a.88.88 0 0 1-.388.61c-.219.15-.498.197-.839.143-.34-.054-.584-.185-.73-.392a.914.914 0 0 1-.16-.696c.027-.171.09-.32.19-.446M60.875 40.576l.207-1.312-.968 1.192.76.12zm.856.616l-.345-.055-.103.656-.586-.093.103-.655-1.206-.191.083-.523 1.413-1.671.672.106-.302 1.903.345.055-.074.468zM64.44 39.692a3.794 3.794 0 0 0-.449.412c-.196.201-.367.413-.513.637a4.217 4.217 0 0 0-.341.657c-.112.262-.182.48-.21.656l-.621-.099c.104-.543.373-1.083.808-1.618.278-.331.502-.557.674-.677l-1.518-.24.093-.537 2.151.34-.074.469zM65.983 41.772c.102-.165.307-.324.615-.478a3.93 3.93 0 0 0 .525-.295.551.551 0 0 0 .222-.354.426.426 0 0 0-.048-.295.332.332 0 0 0-.25-.153c-.158-.026-.275.016-.351.125a.892.892 0 0 0-.11.317l-.507-.08c.045-.225.114-.4.21-.528.18-.242.449-.335.804-.279.28.044.49.158.632.34.142.18.192.4.151.656a.843.843 0 0 1-.258.494 1.774 1.774 0 0 1-.433.278l-.232.116a4.161 4.161 0 0 0-.3.158.596.596 0 0 0-.145.125l1.158.184-.073.458-1.815-.287c.035-.19.103-.357.205-.502M68.782 41.035c.05.07.127.114.232.13.107.018.194 0 .261-.052a.33.33 0 0 0 .124-.222.339.339 0 0 0-.048-.26c-.048-.068-.126-.11-.232-.127a.338.338 0 0 0-.26.05.335.335 0 0 0-.128.231.327.327 0 0 0 .051.25m-.224 1.201a.37.37 0 0 0 .263.153.371.371 0 0 0 .298-.064.43.43 0 0 0 .15-.287c.02-.135.003-.244-.055-.325a.378.378 0 0 0-.262-.149.377.377 0 0 0-.295.061c-.08.06-.131.157-.152.292a.43.43 0 0 0 .053.32m-.435-.76a.645.645 0 0 1 .338-.225.626.626 0 0 1-.206-.316.777.777 0 0 1-.014-.288.657.657 0 0 1 .296-.458c.166-.113.382-.149.647-.107.266.042.46.143.584.302.124.159.17.334.14.527a.776.776 0 0 1-.102.27.539.539 0 0 1-.29.219c.119.093.202.206.249.337.047.131.06.271.035.42a.765.765 0 0 1-.338.53c-.19.13-.433.172-.73.125-.296-.047-.508-.16-.635-.341a.794.794 0 0 1-.14-.606.825.825 0 0 1 .166-.388M70.864 41.365c.05.07.127.114.232.13.107.017.194 0 .261-.052a.33.33 0 0 0 .124-.222.339.339 0 0 0-.048-.26c-.048-.068-.126-.11-.232-.127a.337.337 0 0 0-.26.05.334.334 0 0 0-.128.231.327.327 0 0 0 .051.25m-.224 1.201a.37.37 0 0 0 .263.152.371.371 0 0 0 .298-.063.43.43 0 0 0 .15-.287c.021-.136.003-.244-.055-.325a.378.378 0 0 0-.262-.15.377.377 0 0 0-.295.062c-.08.06-.131.156-.152.292a.43.43 0 0 0 .053.32m-.435-.76a.645.645 0 0 1 .338-.225.626.626 0 0 1-.206-.317.777.777 0 0 1-.014-.288.657.657 0 0 1 .296-.458c.167-.112.383-.148.648-.106.265.042.46.143.583.301.124.16.17.335.14.528a.776.776 0 0 1-.102.27.539.539 0 0 1-.29.218c.119.094.202.207.25.338.046.13.058.27.035.42a.764.764 0 0 1-.339.53c-.19.13-.433.172-.73.125-.296-.047-.508-.161-.635-.342a.795.795 0 0 1-.139-.605.825.825 0 0 1 .165-.388M73.21 42.448l.18-1.141-.842 1.036.662.105zm.745.536l-.3-.047-.09.57-.51-.08.09-.57-1.05-.167.073-.455 1.229-1.454.585.092-.262 1.656.3.048-.065.407z"/>
            <path fill="#D9C2F0" d="M3.957 84.704a3.886 3.886 0 0 1-1.433-5.306l17.268-30.039 6.737 3.874L9.262 83.27a3.886 3.886 0 0 1-5.305 1.433"/>
            <path fill="#492191" d="M55.337 36.948c-5.733 9.972-18.465 13.41-28.437 7.677-9.973-5.733-13.41-18.465-7.678-28.438C24.955 6.215 37.687 2.777 47.66 8.51c9.973 5.733 13.41 18.465 7.677 28.438M50.383 3.773c-12.59-7.237-28.66-2.897-35.897 9.691C8.004 24.74 10.81 38.807 20.51 46.82a2.04 2.04 0 0 0-1.52 3.744l7.075 4.067a2.04 2.04 0 0 0 2.362-3.302c11.757 4.219 25.204-.45 31.647-11.658 7.237-12.59 2.898-28.661-9.69-35.898"/>
        </g>
        <g>
            <g transform="translate(21.138 17.509)">
                <mask id="h" fill="#fff">
                    <use xlink:href="#g"/>
                </mask>
                <path fill="#FF7900" d="M37.74 92.432L-.667 87.034a8.17 8.17 0 0 1-6.953-9.227L2.288 7.304A8.17 8.17 0 0 1 11.516.35l38.406 5.397a8.17 8.17 0 0 1 6.954 9.228l-9.909 70.503a8.17 8.17 0 0 1-9.227 6.953" mask="url(#h)"/>
            </g>
            <g transform="translate(21.138 17.509)">
                <mask id="j" fill="#fff">
                    <use xlink:href="#i"/>
                </mask>
                <path fill="#000" d="M-10.2 39.178s16.154-1.196 32.876 9.541c17.283 11.098 60.527-8.848 60.527-8.848s-20.83 60.792-23.168 60.67c-2.339-.12-71.1-6.39-71.1-6.39l.864-54.973z" mask="url(#j)"/>
            </g>
        </g>
        <g>
            <g transform="translate(16.26 5.585)">
                <mask id="l" fill="#fff">
                    <use xlink:href="#k"/>
                </mask>
                <path fill="#FFF" d="M53.232 36.265l-40.456-5.686 1.006-7.154 40.456 5.686z" mask="url(#l)"/>
            </g>
            <g transform="translate(16.26 5.585)">
                <mask id="n" fill="#fff">
                    <use xlink:href="#m"/>
                </mask>
                <path fill="#000" d="M15.859 27.798l-1.622 1.125 1.16-1.552.689 1.81-1.26-1.518 2.061.157-1.897-.874 2.067-.32-2.023-.415 1.597-1.143-1.134 1.584-.65-1.837 1.209 1.55-2.057-.173 1.897.881-2.064.322 2.027.403zm1.762-2.485l-1.813 1.152 1.964.872-2.128.296 1.424 1.607-1.58-1.252-.46 2.001.11-2.05-1.864.768 1.812-1.152-1.964-.871 2.129-.297-1.426-1.607 1.583 1.248.458-2.002-.11 2.05 1.865-.763z" mask="url(#n)"/>
            </g>
            <g transform="translate(16.26 5.585)">
                <mask id="p" fill="#fff">
                    <use xlink:href="#o"/>
                </mask>
                <path fill="#000" d="M16.301 27.86l1.853.943-.588-2.005 1.35 1.57-.765-1.902 1.698 1.097-1.754-.966 1.998-.248-1.934.5 1.199-1.567-.844 1.818-.466-1.942.943 1.694-1.906-.63 1.015 1.533-.326-2.06-1.02 1.823 1.569-.935-1.59-1.296 1.651 1.17.465-2.004-.074 2.06 1.643-1.219-1.553 1.31 2.003.41-2.027-.2 1.373 1.501-1.55-1.344.687 1.934-1.094-1.712.762 1.884-1.164-1.674.817 1.863-1.333-1.52.77-.14.508 2.113 1.479-1.763-1.55 1.07 1.065 1.48-1.282-2.194-1.698 1.8 1.29-1z" mask="url(#p)"/>
            </g>
            <g transform="translate(16.26 5.585)">
                <mask id="r" fill="#fff">
                    <use xlink:href="#q"/>
                </mask>
                <path fill="#000" d="M21.997 26.668l-1.126 1.625.789-1.847.245 1.994-.639-1.867 1.645 1.115-1.845-.787 1.998-.23-1.885.599 1.11-1.633-.776 1.855-.237-1.996.61 1.88-1.636-1.109 1.852.78-1.988.255 1.883-.634zm-.284 1.754l-1.128 1.626.827-1.831.29 1.988-.636-1.874 1.696 1.025-1.855-.796 2.004-.253-1.903.529 1.112-1.643-.822 1.834-.284-1.99.616 1.886-1.683-1.033 1.857.796-2.003.254 1.912-.518zm-2.28-1.111l1.594 1.238-1.29-1.19 1.618-.567-1.924.574 1.961-.513-2.005-.274 1.995.299-1.158-1.655 1.18 1.654.475-1.998-.096 2.051 1.592-1.264-1.57 1.272 2 .262-2.003-.289 1.745 1.032-1.662-1.11 1.374 1.002-1.59.774 1.895-.712-1.884.754 2.001.35-2.017-.234 1.127 1.692-1.251-1.622-.527 1.999.059-2.062-1.661 1.18 1.602-1.251-2.003-.358 2.019.218-1.596-1.252z" mask="url(#r)"/>
            </g>
            <g transform="translate(16.26 5.585)">
                <mask id="t" fill="#fff">
                    <use xlink:href="#s"/>
                </mask>
                <path fill="#000" d="M27 27.478l-1.952-.792 1.174 1.693-1.87-.925 1.359 1.583-1.99-.578 1.657 1.252-2.05-.277 1.03 1.722-.417-2.055-1.327 1.573 2.064-1.262-1.083-2.043 1.929.859-.568-.12-.55-2.113-1.566 1.764 1.52-1.078-1.051-1.5 1.32 2.198 1.846-1.76-1.121 1.945z" mask="url(#t)"/>
            </g>
            <g transform="translate(16.26 5.585)">
                <mask id="v" fill="#fff">
                    <use xlink:href="#u"/>
                </mask>
                <path fill="#000" d="M27.707 29.883c.143-.24.435-.476.876-.706.383-.2.633-.346.75-.44a.796.796 0 0 0 .313-.517.614.614 0 0 0-.078-.423c-.075-.121-.196-.193-.364-.216-.229-.032-.397.031-.504.19-.062.093-.112.246-.151.46l-.733-.103c.058-.325.154-.58.288-.767.256-.354.64-.496 1.154-.423.407.057.714.215.923.474.208.258.287.573.234.943-.04.284-.16.525-.36.722-.133.13-.338.268-.618.412l-.333.172c-.208.107-.351.186-.43.237a.868.868 0 0 0-.204.184l1.675.236-.093.664-2.629-.37c.046-.274.14-.517.284-.729" mask="url(#v)"/>
            </g>
            <g transform="translate(16.26 5.585)">
                <mask id="x" fill="#fff">
                    <use xlink:href="#w"/>
                </mask>
                <path fill="#000" d="M31.73 28.748a.48.48 0 0 0 .339.183.474.474 0 0 0 .375-.083.478.478 0 0 0 .174-.323.49.49 0 0 0-.076-.374c-.072-.098-.185-.157-.339-.178a.487.487 0 0 0-.375.078.485.485 0 0 0-.179.338c-.02.139.008.259.081.359m-.293 1.74a.537.537 0 0 0 .384.213.536.536 0 0 0 .428-.099c.113-.09.182-.23.209-.418.027-.196-.001-.352-.087-.467a.546.546 0 0 0-.382-.21.545.545 0 0 0-.425.096c-.114.088-.185.23-.212.425-.027.19.001.342.085.46m-.648-1.084a.933.933 0 0 1 .483-.334c-.168-.15-.27-.3-.306-.452a1.134 1.134 0 0 1-.027-.416.949.949 0 0 1 .416-.668c.237-.168.549-.224.933-.17.383.054.666.194.849.42a.95.95 0 0 1 .216.758 1.135 1.135 0 0 1-.14.392c-.076.136-.214.243-.415.323.175.133.298.293.37.481.07.188.091.39.06.605-.045.323-.203.581-.474.774-.271.193-.621.26-1.05.2-.43-.06-.739-.22-.928-.478a1.148 1.148 0 0 1-.215-.87 1.19 1.19 0 0 1 .228-.565" mask="url(#x)"/>
            </g>
            <g transform="translate(16.26 5.585)">
                <mask id="z" fill="#fff">
                    <use xlink:href="#y"/>
                </mask>
                <path fill="#000" d="M35.144 30.254l.233-1.654-1.19 1.519.957.135zm1.09.754l-.434-.06-.116.825-.739-.103.116-.826-1.519-.214.093-.659 1.738-2.13.847.118-.337 2.398.434.061-.083.59z" mask="url(#z)"/>
            </g>
            <g transform="translate(16.26 5.585)">
                <mask id="B" fill="#fff">
                    <use xlink:href="#A"/>
                </mask>
                <path fill="#000" d="M39.606 29.064a4.843 4.843 0 0 0-.556.528 5.304 5.304 0 0 0-.63.811c-.142.224-.28.5-.415.833a3.634 3.634 0 0 0-.249.829l-.783-.11c.12-.685.446-1.37.98-2.052.341-.421.619-.71.832-.865l-1.912-.269.106-.676 2.71.38-.083.591z" mask="url(#B)"/>
            </g>
            <g transform="translate(16.26 5.585)">
                <mask id="D" fill="#fff">
                    <use xlink:href="#C"/>
                </mask>
                <path fill="#000" d="M41.262 31.437l1.27-.062.23-1.03.899-.094-.781-.217.066-.777-.17.766-.51-.2-.79.621.774-.767.743-.98.447 1.04.89.632-.97.297-.087.98-.646-.54.014.877-.46.216 1.722-.514-.315.53-2.34.44z" mask="url(#D)"/>
            </g>
            <g transform="translate(16.26 5.585)">
                <mask id="F" fill="#fff">
                    <use xlink:href="#E"/>
                </mask>
                <path fill="#000" d="M45.403 30.427l-.072.773.14-.76.776.076-.762-.148.07-.77-.146.762-.773-.07.767.137zm-.251 1.52l-.036.793.183-.772.809-.008-.772-.23.033-.796-.187.775-.805.008.775.23zm-1.19-.954h1.113l-1.027-.361.738-.396-.245-.954.98.554 1.095-.262-.498.849.601.584-1.084.047 1.069.327-.694.61.196 1.043-1.085-.526-1.173.198.51-.934-.496-.779z" mask="url(#F)"/>
            </g>
            <g transform="translate(16.26 5.585)">
                <mask id="H" fill="#fff">
                    <use xlink:href="#G"/>
                </mask>
                <path fill="#000" d="M48.027 30.796l-.073.773.14-.76.776.076-.762-.149.071-.77-.147.763-.773-.07.768.137zm-.252 1.52l-.036.793.183-.772.81-.009-.772-.229.033-.797-.188.775-.805.008.775.23zm-1.19-.954H47.7L46.67 31l.738-.395-.245-.954.98.554 1.096-.262-.499.849.601.584-1.084.047 1.07.327-.694.61.196 1.043-1.086-.527-1.173.198.51-.933-.495-.779z" mask="url(#H)"/>
            </g>
            <g transform="translate(16.26 5.585)">
                <mask id="J" fill="#fff">
                    <use xlink:href="#I"/>
                </mask>
                <path fill="#000" d="M50.38 32.096l.56-1.583-.732 1.857.171-.274zm1.53 1.168l-.97-.551.464 1.241-.57-.602-.452-.191-.89-.829-.445-.455 2.075-1.335.879-.28-1.062 2.179 1.084-.184-.113 1.007z" mask="url(#J)"/>
            </g>
        </g>
        <g fill="#FFF">
            <path d="M22.354 17.987l-.94-.54C26.443 8.7 37.652 5.672 46.4 10.702l-.54.94c-8.23-4.731-18.775-1.885-23.506 6.345M24.707 7.498l-.596-.905a24.123 24.123 0 0 1 14.635-3.906l-.065 1.082A23.044 23.044 0 0 0 24.707 7.5"/>
            <path d="M55.337 36.948c-5.733 9.972-18.465 13.41-28.437 7.677-9.973-5.733-13.41-18.465-7.678-28.438C24.955 6.215 37.687 2.777 47.66 8.51c9.973 5.733 13.41 18.465 7.677 28.438" opacity=".3"/>
        </g>
    </g>
</svg>
