<svg xmlns="http://www.w3.org/2000/svg" xmlns:xlink="http://www.w3.org/1999/xlink" width="211" height="210" viewBox="0 0 211 210">
    <defs>
        <circle id="a" cx="105" cy="105" r="105"/>
        <path id="c" d="M50.428 98.43C24.26 98.43 3.03 77.2 3.03 51.033c0-26.19 21.23-47.418 47.398-47.418 26.189 0 47.418 21.229 47.418 47.418 0 26.168-21.23 47.397-47.418 47.397"/>
        <path id="e" d="M0 .844h93.043v172.264H0z"/>
        <path id="g" d="M1.405.24h77.771v113.52H1.405z"/>
        <path id="i" d="M0 0h132.891v159.469H0z"/>
        <path id="k" d="M0 .844h93.043v172.264H0z"/>
        <path id="m" d="M1.405.24h77.771v113.52H1.405z"/>
        <path id="o" d="M.15.036h9.558v20.187H.15z"/>
        <path id="p" d="M.09.065h67.548v112.498H.09z"/>
        <path id="r" d="M0 .089h99.397v135.79H0z"/>
    </defs>
    <g fill="none" fill-rule="evenodd" transform="translate(.882)">
        <mask id="b" fill="#fff">
            <use xlink:href="#a"/>
        </mask>
        <use fill="#50BE87" xlink:href="#a"/>
        <g mask="url(#b)">
            <g transform="translate(-15.75 100.8)">
                <mask id="d" fill="#fff">
                    <use xlink:href="#c"/>
                </mask>
                <g mask="url(#d)">
                    <g transform="translate(-4.464 -34.964)">
                        <mask id="f" fill="#fff">
                            <use xlink:href="#e"/>
                        </mask>
                        <path fill="#C19372" d="M40.383 4.263c.556-2.24 9.328-10.955 18.095 12.717 8.762 23.676 5.468 26.011 6.662 35.77 1.19 9.759 27.697 22.824 27.697 22.824s1.543.96-3.82 6.575c-5.358 5.621-10.944 13.07-19.822 31.74-9.358 19.682-31.063 59.219-31.063 59.219H0v-12.964s44.253-75.87 44.266-81.863c.012-5.994.91-11.329 2.546-27.155 1.014-9.797 1.517-8.864-.83-24.722-2.333-15.742-6.557-18.259-5.6-22.14" mask="url(#f)"/>
                    </g>
                    <g transform="translate(42.2 -65.07)">
                        <mask id="h" fill="#fff">
                            <use xlink:href="#g"/>
                        </mask>
                        <path fill="#000" d="M20.912 106.753c1.083 4.856 6.038 7.895 11.05 6.775l39.879-8.888c5.018-1.117 8.21-5.967 7.123-10.832L59.67 7.254C58.584 2.396 53.637-.646 48.62.47L8.745 9.358C3.721 10.48.53 15.334 1.618 20.202l19.294 86.551z" mask="url(#h)"/>
                    </g>
                    <path fill="#FDCC00" d="M96.494 34.839c.566 2.545-1.048 5.068-3.592 5.639-2.532.567-5.058-1.037-5.624-3.584a4.719 4.719 0 0 1 3.572-5.633 4.731 4.731 0 0 1 5.644 3.578M76.583-54.983a.902.902 0 0 1-.674 1.059l-6.694 1.488a.89.89 0 0 1-1.061-.671.888.888 0 0 1 .674-1.048l6.698-1.489a.89.89 0 0 1 1.057.661M66.322-52.434a1.33 1.33 0 1 1-2.596.58 1.33 1.33 0 0 1 2.596-.58"/>
                    <path fill="#714E46" d="M42.377 16.161c.834-7.716.834-14.838-.834-24.721-2.65-15.691-6.557-18.26-5.597-22.141.557-2.24 8.955-10.813 18.092 12.716 4.233 10.91 4.111 43.31 5.942 53.787 1.151 6.6-7.229.364-7.396-.134-.17-.497-10.207-19.507-10.207-19.507"/>
                    <path fill="#FF7900" d="M113.232 23.382L95.889-54.416l-10.9 2.425-10.96 2.443-23.944 5.34L67.431 33.59l10.068-2.245 2.424-.539v.005z"/>
                    <path fill="#FFF" d="M95.599-1.793a16.917 16.917 0 0 1-4.611 4.554 16.843 16.843 0 0 1-6.221 2.518 16.83 16.83 0 0 1-6.713-.09 16.93 16.93 0 0 1-5.95-2.568 16.865 16.865 0 0 1-7.072-10.834 17.127 17.127 0 0 1-.294-3.128c.142.013.29.015.446.063.077.096.13.076.265.065.275.053.56.164.839.11.34-.158.444-.319.728-.068.256.223.805.252 1.126.252.184 0 .346-.04.512.052.146.083.25.236.378.341.262.212.516.352.859.372.232.013.474-.013.71 0l.37-.542c-.643.015-1.172-.352-1.718-.648-.302-.164-.608-.325-.954-.373.007 0-.05-.88-.22-.977-.422-.243-.717.515-.999.693-.687.437-1.227-.055-1.425-.753-.464-1.639 2.039-2.5 3.254-1.882.121.06.593.542.715.479.2-.105-.074-.735-.092-.875-.052-.419-.06-.603.3-.918.203-.174.32-.41.389-.668.044-.167.053-.317.146-.442a1.644 1.644 0 0 1-.327-1.35 1.646 1.646 0 0 1 1.307-1.286l1.233-.232c-.028-.01-.053-.024-.081-.031a1.194 1.194 0 0 0-.087-.03.993.993 0 0 0-.365-.06c-.029.001-.057.01-.084.01-.013 0-.057 0-.04-.018.008-.01.034-.013.047-.016l.066-.026c.048-.017.096-.033.144-.044.172-.037.347-.023.522-.019.085.002.171.002.256-.007a.406.406 0 0 0 .133-.028c.031-.017.121-.005.108-.035-.022-.03-.094-.042-.083-.09.008-.032.052-.057.076-.076.031-.024.066-.042.103-.062.159-.087.31-.181.476-.253.08-.033.16-.063.245-.08a.734.734 0 0 1 .107-.012c.033-.002.086-.015.116.004.031.02.005.062-.007.086-.02.039-.04.074-.052.116a.979.979 0 0 0-.052.358l.002.024 1.26-.238c-.165-.12-.486-.177-.615-.337-.162-.2-.12-.5-.333-.686-.225-.193-.524-.136-.784-.232-.37-.137-.617-.489-.98-.638-.548-.227-.723.135-1.244.19-.323.035-.542-.17-.813-.299-.501-.24-1.075-.31-1.596-.121.156-.179.317-.354.483-.526l.025-.001c.481-.024.939.15 1.409.208.1.013.788-.06.726-.087-.131-.055-.642-.073-.286-.184.168.005.588.066.629-.11.191-.213.298-.23.588-.284.237-.242.473-.437.462-.767-.109-.162-.048-.312-.125-.454-.384-.024-.354-.22-.354-.464-.052-.044-.203-.087-.37-.118.03-.022.06-.044.092-.063a16.3 16.3 0 0 1 1.133-.69c.28.11.496.283.478.541.154-.002.326-.022.459-.105.03-.019.053-.072.092-.072.046 0 .072.065.096.094.012.015.023.026.033.042l.116-.042a.74.74 0 0 1 .114-.018.364.364 0 0 1 .201.042c.024.013.107.048.094.085-.01.027-.066.035-.09.04-.028.008-.057.013-.085.022l-.14.048c-.043.013-.083.032-.127.034-.058.055.16.022.234.042.06.018.129.013.186.037.101.042-.081.112-.109.132-.055.041-.11.085-.162.13a.753.753 0 0 0-.17.197.353.353 0 0 0-.048.2c.008.084.05.16.098.224.07.095.157.178.242.258l.033.031c.473.396 1.513.898 2.145.7.693-.213.465-1.105 1.093-1.485.629-.38 1.298-.691 1.976-.968.188-.079.367-.184.544-.28.25-.14.51-.247.774-.356.046-.016.092-.027.138-.044.013-.005.122-.046.068-.063-.037-.012-.08-.007-.118-.007-.044 0-.088.002-.132.004-.082.003-.164.009-.244-.011-.02-.006-.059-.006-.059-.033.002-.034.052-.036.076-.037.094-.011.188-.04.282-.057.098-.019.197-.037.291-.07.046-.015.092-.026.136-.047.023-.007.06-.009.052-.04a.214.214 0 0 0-.085-.113c-.018-.012-.042-.018-.06-.033-.026-.02-.019-.038-.008-.068.015-.044.035-.088.039-.136.003-.05-.006-.105-.008-.155-.005-.118.201-.179.279-.212.11-.046.29-.135.304-.271.016-.146-.133-.179-.168-.293a17.06 17.06 0 0 1 2.938.372c1.43.312 2.8.806 4.096 1.467-.317.369-.456.872.398 1.04.326.062.512-.34.785-.372.156.095.311.195.464.298.037.066.054.14.02.216-.038.09-.17.23-.283.182-.142-.062-.028-.374-.27-.37a.442.442 0 0 0-.383.276c-.077.197.25.4.166.596-.107.256-.512.149-.706.282-.394.269-.69.748-1.108 1.04-.191.132-.442.16-.658.228-.143.042-.38.105-.433.263-.064.188.504.304.616.354.302.136.475.35.214.641-.326.364-1.128-.068-1.499.288a.276.276 0 0 0-.046.06c.002 0 .004.003.004.003.415.328.691.883.617 1.483a1.583 1.583 0 0 1 .962-.149c.006-.004.008-.01.013-.013.058-.042.126-.07.168-.13.072-.096.01-.227.026-.338.016-.114.09-.186.15-.276.042-.063.066-.144.117-.198.085-.084.223-.086.32-.154.158-.113.02-.317.154-.448.096-.092.234-.074.354-.06.324.034.486-.19.776-.267.03-.009.07-.068.1-.086.088-.057.217-.09.314-.033.08.044.12.138.19.195.107.09.26.116.385.168.142.059.227.064.373.075.158.013.315.127.47.175.12.034.31.083.335.23.044.259-.402.272-.55.309-.054.01-.276.07-.283.129-.015.09.396.153.457.153.173-.004.221-.133.315-.255.08-.1.198-.175.247-.298.043-.102-.038-.187-.042-.286-.006-.083.06-.094.074-.162.024-.13-.262-.185-.341-.197a1.407 1.407 0 0 0-.23-.02c-.05-.003-.152.021-.198.003-.16-.068-.206-.218-.365-.302-.542-.15-.193-.551.083-.304.35-.052.503.296.89.254.225.197.424.031.61.299.094.377.17.359.555.532.133.063.162.48.395.369.075-.039.147-.151.202-.214.03-.033.11-.092.124-.136.05-.139-.179-.104-.238-.172-.269-.313.208-.51.457-.544a.217.217 0 0 1 .188.061c.024.028.046.06.072.09.052.085.089.189.125.266a.574.574 0 0 0 .188.236.495.495 0 0 0 .12.063 16.74 16.74 0 0 1 .837 1.257c-.147.07-.293.136-.466.114a1.274 1.274 0 0 0-.374-.007c-.235.042-.417-.034-.644-.05-.177-.013-.389-.076-.562-.054-.223.026-.4.172-.413.397-.005.09.006.197-.077.258-.138.1-.341-.013-.492-.015-.12 0-.242.01-.36-.015a.51.51 0 0 1-.15-.06c-.036-.026-.09-.111-.126-.12a1.362 1.362 0 0 0-.584-.036c-.18.026-.347.024-.513-.057-.269-.13.002-.243-.08-.438-.012-.032-.1-.102-.1-.122.018-.337-.317-.195-.553-.09-.452.129-1.064.079-1.425.335-.162.039-.326.09-.481.162.053.028.105.06.155.093l2.324 1.59a3.966 3.966 0 0 1 1.347 4.945l.04.03c.213.184.124.647.181.89.093.383.22.555.496.824.44.426.979.853.995 1.517.015.56-.455 1.014-.14 1.572.277.485.706.728.942 1.275.194.45.328.546.634.857.332.341 1.001 1.95 1.646.893a.412.412 0 0 1 .137-.047 16.804 16.804 0 0 1-1.886 3.628zM67.692-20.877c.325-.474.673-.929 1.04-1.368.108.286.383.804.401.843.286.63-.18.285-.359.726-.076.184.168.295.124.444-.183.636-.75-.227-1.123-.374a.946.946 0 0 0-.227-.055c.048-.07.096-.142.144-.216zm32.782 6.005C98.52-25.27 88.507-32.115 78.11-30.162 67.71-28.21 60.863-18.196 62.817-7.799 64.771 2.6 74.785 9.448 85.182 7.494 95.58 5.541 102.428-4.47 100.474-14.872zm-12.518-3.539l-2.321 3.395c-1.161 1.698-2.604 3.81-3.983 5.824l-4.768 6.975c.04.03.08.059.12.085l.038.025a.712.712 0 0 0 .08.05l.044.028.072.04.046.023.072.035c.014.007.03.012.042.02l.077.027c.013.006.026.012.037.015a1.37 1.37 0 0 0 .128.039c.033.007.066.016.1.022a.876.876 0 0 0 .157.026.773.773 0 0 0 .067.007l.046.002c.022.002.046.002.068.002.015.002.03.002.044.002l.078-.002c.01-.002.022-.002.035-.002.037-.002.074-.005.11-.01.008-.001.015-.003.023-.003.03-.004.06-.007.092-.013l.042-.007.068-.013c.013-.002.026-.006.039-.007.018-.004.037-.006.055-.011.013-.002.028.003.04 0 .047-.012.093-.019.14-.028L90.845-4.12 86.45-7.113l4.34-6.351.092-.136a2.317 2.317 0 0 0-.602-3.222l-2.324-1.589zM74.497-3.845l4.16-6.084 1.012-1.482s5.951-8.646 5.927-8.666c-.04-.031-.079-.057-.116-.083l-.037-.026a1.813 1.813 0 0 1-.079-.048l-.04-.024-.08-.04-.035-.019a2.864 2.864 0 0 0-.11-.048l-.008-.001c-.035-.013-.068-.026-.103-.037l-.035-.01c-.026-.005-.052-.012-.075-.018l-.04-.01-.075-.014c-.013-.002-.024-.004-.035-.004a1.057 1.057 0 0 0-.107-.013h-.01a1.797 1.797 0 0 0-.098-.003h-.035l-.076.002a.275.275 0 0 0-.039.003c-.026 0-.051.004-.077.006-.011.002-.019.013-.03.013-.036.003-.071.018-.107.024-.003.002-.007.002-.012.002-.03.007-.063.001-.096.007-.056.01-.115.018-.172.031l-.038.01c-.06.014-.116.033-.175.042L71.65-18.08l4.38 2.905-2.572 3.75-1.867 2.728a2.385 2.385 0 0 0-.29 2.098c.154.459.447.872.873 1.163L74.2-4.05l.297.204zm.71 1.523a1.758 1.758 0 0 1-.454.155c-.164.03-.332.035-.496.016.04.354.115.699.122 1.054.01.47-.147.92-.236 1.377-.026.133-.063.303-.01.433.088.209.323.198.248.469-.055.197-.16.381-.242.567-.044.103-.083.216-.06.33.016.083.08.148.088.232.007.118-.083.216-.085.33-.002.142.104.299.18.411.335.47 1.472 1.136 2.06.832.215-.111.282-.504.22-.716-.082-.289-.226-.099-.443-.132-.398-.06.116-.962.04-1.207-.031-.106-.132-.176-.158-.286-.068-.304.431-.936.667-1.093.243-.164.4-.396.592-.601a3.784 3.784 0 0 1-1.398-.691 1.651 1.651 0 0 1-.635-1.48zM86.628-24.05c.1-.013.22-.035.318.004.029.01.211.177.141.21-.08.038-.212.03-.24.134-.01.056.03.107.008.164-.016.043-.092.074-.094.12-.003.114.166-.002.197.08.037.088-.224.222-.206.362.017.115.031.227.17.166.16-.073.247-.248.392-.344.046-.03.153-.04.183-.072.16-.153.418-.083.61-.144.17-.053.25-.27.188-.435-.032-.088-.065-.072-.155-.068-.188.01-.236-.05-.347-.186-.123-.148-.357-.192-.508-.31-.061-.046-.131-.12-.128-.199.006-.085.152-.227-.01-.264-.09-.02-.17.041-.257.045-.118.003-.055-.118-.142-.148-.068-.024-.208.054-.261.085a.537.537 0 0 0-.22.225c-.05.127.022.162.065.265.108.256.188-.044.296.31z"/>
                    <path fill="#714E46" d="M114.04-16.832a4.886 4.886 0 0 1-3.667 5.857L100.252-8.66a4.889 4.889 0 0 1-5.854-3.672 4.885 4.885 0 0 1 3.667-5.853l10.118-2.318a4.888 4.888 0 0 1 5.857 3.671M118.526 3.819a4.89 4.89 0 0 1-3.67 5.858l-11.047 2.53a4.884 4.884 0 0 1-5.857-3.663 4.894 4.894 0 0 1 3.673-5.86L112.672.148a4.886 4.886 0 0 1 5.854 3.67M120.34 13.91a4.897 4.897 0 0 1-3.674 5.856l-7.957 1.827a4.884 4.884 0 0 1-5.854-3.666 4.878 4.878 0 0 1 3.67-5.857l7.957-1.832a4.897 4.897 0 0 1 5.857 3.672M116.72-6.61a5.191 5.191 0 0 1-3.896 6.214l-11.728 2.692A5.175 5.175 0 0 1 94.89-1.6a5.177 5.177 0 0 1 3.886-6.214l11.728-2.693a5.193 5.193 0 0 1 6.215 3.898"/>
                </g>
            </g>
            <g transform="translate(-10.434 15.75)">
                <mask id="j" fill="#fff">
                    <use xlink:href="#i"/>
                </mask>
                <g mask="url(#j)">
                    <g transform="translate(-9.78 50.086)">
                        <mask id="l" fill="#fff">
                            <use xlink:href="#k"/>
                        </mask>
                        <path fill="#C19372" d="M40.383 4.263c.556-2.24 9.328-10.955 18.095 12.717 8.762 23.676 5.468 26.011 6.662 35.77 1.19 9.759 27.697 22.824 27.697 22.824s1.543.96-3.82 6.575c-5.358 5.621-10.944 13.07-19.822 31.74-9.358 19.682-31.063 59.219-31.063 59.219H0v-12.964s44.253-75.87 44.266-81.863c.012-5.994.91-11.329 2.546-27.155 1.014-9.797 1.517-8.864-.83-24.722-2.333-15.742-6.557-18.259-5.6-22.14" mask="url(#l)"/>
                    </g>
                    <g transform="translate(36.884 19.98)">
                        <mask id="n" fill="#fff">
                            <use xlink:href="#m"/>
                        </mask>
                        <path fill="#292929" d="M20.912 106.753c1.083 4.856 6.038 7.895 11.05 6.775l39.879-8.888c5.018-1.117 8.21-5.967 7.123-10.832L59.67 7.254C58.584 2.396 53.637-.646 48.62.47L8.745 9.358C3.721 10.48.53 15.334 1.618 20.202l19.294 86.551z" mask="url(#n)"/>
                    </g>
                    <path fill="#707070" d="M91.178 119.889c.566 2.545-1.048 5.068-3.592 5.639-2.531.567-5.057-1.037-5.623-3.584a4.719 4.719 0 0 1 3.572-5.633 4.731 4.731 0 0 1 5.643 3.578M71.268 30.067a.902.902 0 0 1-.675 1.059L63.9 32.614a.89.89 0 0 1-1.061-.671.888.888 0 0 1 .674-1.048l6.699-1.489a.89.89 0 0 1 1.057.661M61.006 32.616a1.33 1.33 0 1 1-2.596.58 1.33 1.33 0 0 1 2.596-.58"/>
                    <path fill="#C19372" d="M37.061 101.211c.834-7.716.834-14.838-.834-24.721-2.65-15.691-6.557-18.26-5.596-22.141.557-2.24 8.955-10.813 18.092 12.716 4.233 10.91 4.11 43.31 5.941 53.787 1.152 6.6-7.228.364-7.395-.134-.17-.497-10.208-19.507-10.208-19.507"/>
                    <path fill="#FF7900" d="M107.916 108.432L90.574 30.634l-10.9 2.425-10.961 2.443-23.943 5.34 17.345 77.799 10.069-2.245 2.423-.539v.005z"/>
                    <path fill="#FFF" d="M85.543 80.13a14.939 14.939 0 0 1-4.073 4.022 14.874 14.874 0 0 1-5.493 2.224 14.862 14.862 0 0 1-5.927-.08 14.95 14.95 0 0 1-5.254-2.267 14.893 14.893 0 0 1-6.245-9.567 15.124 15.124 0 0 1-.26-2.762c.124.011.256.013.393.055.068.085.116.067.234.057.243.047.495.145.74.098.302-.14.393-.282.644-.06.226.196.711.222.994.222.163 0 .306-.036.453.046.128.073.22.208.333.301.232.187.456.31.759.329.205.011.418-.012.627 0l.327-.479c-.568.013-1.035-.31-1.517-.573-.267-.145-.537-.286-.843-.328.006 0-.044-.778-.194-.863-.373-.215-.633.454-.882.612-.607.386-1.084-.049-1.258-.666-.41-1.447 1.8-2.207 2.872-1.662.108.054.524.479.632.424.177-.093-.065-.65-.081-.774-.046-.369-.053-.532.265-.81a1.13 1.13 0 0 0 .343-.59c.04-.147.047-.28.129-.39a1.452 1.452 0 0 1-.288-1.191 1.453 1.453 0 0 1 1.154-1.136l1.089-.205c-.025-.01-.048-.022-.072-.028-.024-.01-.05-.018-.077-.026a.877.877 0 0 0-.322-.054c-.026.002-.05.01-.075.01-.011 0-.05 0-.035-.016.008-.008.03-.012.042-.015a1.26 1.26 0 0 1 .186-.062c.15-.032.305-.02.46-.016.075.001.151.001.226-.007a.359.359 0 0 0 .117-.024c.028-.015.108-.005.096-.031-.02-.026-.083-.037-.073-.08.007-.027.046-.05.067-.066.028-.022.059-.038.091-.056.14-.076.274-.16.42-.223.07-.03.142-.055.216-.07a.648.648 0 0 1 .095-.011c.03-.002.076-.013.102.003.028.018.005.055-.006.077-.018.034-.034.065-.046.102a.864.864 0 0 0-.045.316l.001.021 1.114-.21c-.147-.106-.43-.156-.544-.298-.143-.176-.106-.44-.295-.605-.198-.171-.462-.12-.691-.205-.327-.12-.546-.432-.866-.563-.484-.2-.638.118-1.099.167-.285.031-.478-.15-.718-.263-.442-.212-.948-.274-1.41-.108.14-.158.28-.312.427-.464l.023-.001c.425-.022.829.133 1.244.184.088.01.696-.053.64-.077-.115-.049-.566-.065-.251-.163.148.005.519.059.555-.097.169-.188.263-.202.519-.251.21-.213.418-.386.408-.677-.096-.143-.042-.275-.11-.4-.339-.022-.313-.196-.313-.41-.045-.04-.179-.077-.327-.105.028-.02.054-.039.081-.055.328-.218.661-.42 1.001-.609.248.096.438.25.422.477.137-.002.288-.02.405-.093.028-.016.047-.063.082-.063.04 0 .063.057.084.083.012.013.021.023.03.037l.102-.037a.653.653 0 0 1 .101-.017.322.322 0 0 1 .177.038c.022.011.095.042.083.075-.008.024-.058.03-.08.036-.024.006-.05.011-.074.02-.04.012-.082.027-.124.041-.037.012-.073.028-.112.03-.05.049.141.02.206.037.054.016.114.012.165.033.09.037-.072.099-.096.117a2.442 2.442 0 0 0-.143.114.665.665 0 0 0-.15.174.312.312 0 0 0-.042.177.4.4 0 0 0 .086.197c.062.085.138.158.213.228l.03.028c.418.35 1.336.792 1.894.618.612-.188.41-.976.965-1.312.555-.335 1.146-.61 1.745-.854.166-.07.324-.163.48-.247.221-.124.45-.218.684-.315.04-.014.08-.024.122-.039.011-.004.107-.04.06-.055-.033-.011-.072-.006-.104-.006-.04 0-.078.001-.118.003-.071.003-.144.008-.214-.01-.018-.005-.052-.005-.052-.03.001-.029.045-.03.066-.032.083-.01.166-.036.25-.05.086-.017.173-.033.256-.062.041-.013.082-.023.12-.04.02-.007.053-.009.046-.037a.19.19 0 0 0-.074-.099c-.017-.011-.038-.016-.054-.03-.023-.017-.016-.033-.007-.06.013-.038.031-.078.035-.12.003-.044-.005-.093-.007-.137-.005-.104.177-.157.246-.187.097-.04.255-.119.268-.239.015-.129-.117-.158-.148-.259a14.915 14.915 0 0 1 6.21 1.624c-.279.326-.4.77.353.919.288.055.452-.3.693-.33.138.085.275.173.41.264.033.059.047.124.018.19-.034.08-.151.204-.25.162-.126-.055-.025-.33-.238-.327a.39.39 0 0 0-.339.244c-.068.174.22.353.147.526-.095.226-.453.132-.624.249-.348.237-.608.66-.978.918-.169.117-.39.141-.58.202-.128.037-.336.092-.383.232-.057.166.444.269.543.313.267.12.42.309.19.566-.289.32-.997-.06-1.324.254a.244.244 0 0 0-.04.054l.002.001c.367.29.61.78.546 1.31a1.398 1.398 0 0 1 .85-.131c.004-.003.006-.008.01-.012.051-.037.111-.061.149-.115.063-.085.008-.2.023-.298.014-.1.08-.164.131-.244.038-.055.06-.127.105-.174.075-.075.197-.077.283-.137.138-.1.016-.28.135-.396.085-.08.207-.065.312-.052.287.03.43-.167.686-.236.026-.008.061-.06.088-.076.078-.05.192-.08.278-.03.07.04.106.123.167.173.095.08.23.103.34.148.126.052.2.057.33.067.14.011.278.112.414.155.106.029.274.073.297.203.039.228-.355.24-.487.272-.047.01-.242.062-.249.114-.013.08.35.135.404.135.153-.003.195-.117.278-.225.07-.088.174-.154.218-.263.038-.09-.034-.165-.037-.253-.005-.073.053-.083.065-.143.02-.114-.231-.163-.301-.174a1.243 1.243 0 0 0-.204-.018c-.044-.002-.133.02-.174.003-.142-.06-.182-.192-.322-.267-.479-.131-.171-.486.073-.268.31-.046.444.262.786.224.199.175.375.028.539.264.083.334.15.317.49.47.117.056.143.424.348.326.067-.034.13-.133.18-.189.025-.03.095-.081.108-.12.044-.122-.158-.091-.21-.152-.237-.276.184-.45.404-.48.07-.01.122.013.166.054.021.024.04.052.063.08.046.075.078.166.111.234a.507.507 0 0 0 .166.208c.033.025.068.041.106.056a14.783 14.783 0 0 1 .739 1.11c-.13.062-.259.12-.412.1a1.125 1.125 0 0 0-.33-.006c-.207.038-.368-.03-.568-.044-.157-.011-.344-.067-.497-.047-.197.023-.353.151-.364.35-.005.08.004.174-.069.228-.122.088-.3-.012-.434-.013-.106 0-.214.01-.318-.013a.45.45 0 0 1-.133-.054c-.031-.023-.078-.098-.11-.106a1.203 1.203 0 0 0-.517-.03.744.744 0 0 1-.452-.051c-.238-.116.001-.215-.07-.387-.012-.028-.09-.09-.09-.108.016-.298-.28-.172-.488-.08-.399.114-.94.07-1.258.297a2.25 2.25 0 0 0-.425.143c.047.024.093.052.137.081l2.052 1.405a3.502 3.502 0 0 1 1.19 4.367c.013.008.024.018.036.026.187.162.109.571.16.786.08.338.193.49.437.727.389.376.864.754.879 1.34.013.495-.402.895-.124 1.388.244.428.624.643.832 1.127.17.397.29.481.56.756.293.301.884 1.722 1.453.788a.364.364 0 0 1 .12-.04 14.84 14.84 0 0 1-1.664 3.203zM60.899 63.279c.287-.418.594-.82.918-1.207.096.252.339.71.355.743.252.557-.16.253-.317.642-.067.163.148.26.109.392-.162.562-.663-.2-.992-.33a.835.835 0 0 0-.2-.05 9.67 9.67 0 0 0 .127-.19zm28.949 5.303C88.122 59.4 79.28 53.355 70.098 55.08c-9.183 1.725-15.23 10.568-13.504 19.749 1.725 9.183 10.568 15.23 19.75 13.504 9.182-1.725 15.229-10.566 13.504-19.75zm-11.055-3.125c-.14.207-.95 1.392-2.05 2.998l-3.516 5.143-4.211 6.16c.036.025.07.051.106.074l.034.023a8340.904 8340.904 0 0 1 .109.068c.021.012.042.025.064.036l.04.02.064.03.037.018a1.603 1.603 0 0 1 .101.038 1.21 1.21 0 0 0 .112.034c.03.006.059.015.088.02a.773.773 0 0 0 .1.018l.039.004c.02.004.039.005.06.007l.04.001c.02.002.041.002.06.002.014.002.027.002.04.002l.068-.002c.01-.002.02-.002.031-.002.033-.001.065-.004.098-.008a.082.082 0 0 1 .02-.003c.025-.003.053-.006.08-.011l.038-.007a.965.965 0 0 0 .06-.011l.034-.007c.017-.003.033-.005.05-.01.01-.001.024.004.035 0 .04-.01.081-.016.122-.024l10.6-1.99-3.883-2.644 3.833-5.608.082-.12a2.046 2.046 0 0 0-.533-2.846l-2.052-1.403zM66.908 78.32c.357-.52 2.448-3.58 3.674-5.373l.893-1.308s5.256-7.635 5.235-7.653c-.036-.028-.07-.05-.103-.074l-.032-.022a1.601 1.601 0 0 1-.07-.043l-.036-.02-.07-.037c-.01-.004-.02-.011-.031-.016a2.529 2.529 0 0 0-.098-.042c-.001 0-.005 0-.006-.002-.031-.011-.06-.023-.091-.032-.01-.004-.022-.005-.031-.008l-.067-.017-.034-.008a1.198 1.198 0 0 0-.067-.013l-.03-.003a.933.933 0 0 0-.095-.012h-.01l-.086-.003h-.031l-.067.002c-.011 0-.023.001-.034.003-.023 0-.046.003-.069.005-.01.002-.016.011-.026.011-.032.004-.063.017-.094.021-.003.002-.007.002-.011.002-.026.007-.056.002-.085.007-.049.008-.1.016-.151.027-.012.004-.023.005-.035.008-.052.013-.102.03-.154.038l-10.6 1.992 3.866 2.565-2.27 3.312-1.649 2.41a2.106 2.106 0 0 0-.255 1.851c.135.406.394.77.77 1.027l1.788 1.224.262.181zm.627 1.344c-.125.064-.26.11-.4.137a1.52 1.52 0 0 1-.438.015c.034.312.1.617.107.93.008.416-.13.813-.208 1.217-.023.117-.056.267-.008.382.076.184.284.174.218.413-.05.175-.142.337-.213.502a.504.504 0 0 0-.054.291c.014.073.071.13.078.205.006.104-.073.19-.075.292-.002.125.091.263.16.363.294.415 1.298 1.002 1.818.734.19-.098.249-.445.195-.632-.073-.255-.2-.088-.392-.117-.352-.052.102-.85.035-1.066-.027-.093-.117-.155-.14-.253-.06-.268.381-.826.59-.965.215-.145.353-.35.522-.53a3.341 3.341 0 0 1-1.234-.61 1.458 1.458 0 0 1-.561-1.308zM77.62 60.477c.088-.011.194-.03.28.004.026.01.187.156.125.185-.071.034-.187.026-.211.119-.01.049.026.094.006.145-.014.037-.081.065-.083.106-.003.1.147-.002.174.07.033.078-.198.196-.182.32.015.101.028.2.15.147.142-.065.218-.22.347-.305.04-.026.135-.036.16-.063.142-.135.37-.073.54-.127.15-.047.22-.238.165-.384-.027-.078-.056-.064-.136-.06-.166.008-.209-.044-.306-.165-.11-.13-.316-.17-.45-.273-.053-.041-.115-.106-.112-.176.005-.075.134-.2-.01-.233-.078-.018-.15.036-.226.04-.104.002-.049-.105-.125-.131-.06-.021-.184.047-.231.075a.474.474 0 0 0-.194.198c-.044.113.02.144.057.235.096.226.166-.04.262.273z"/>
                    <path fill="#C19372" d="M108.725 68.218a4.886 4.886 0 0 1-3.667 5.857L94.936 76.39a4.889 4.889 0 0 1-5.854-3.672 4.885 4.885 0 0 1 3.667-5.853l10.119-2.318a4.888 4.888 0 0 1 5.857 3.671M113.21 88.869a4.89 4.89 0 0 1-3.67 5.858l-11.047 2.53a4.884 4.884 0 0 1-5.857-3.663 4.894 4.894 0 0 1 3.673-5.86l11.047-2.536a4.886 4.886 0 0 1 5.854 3.67M115.024 98.96a4.897 4.897 0 0 1-3.673 5.856l-7.957 1.827a4.884 4.884 0 0 1-5.854-3.666 4.878 4.878 0 0 1 3.67-5.857l7.957-1.832a4.897 4.897 0 0 1 5.857 3.672M111.404 78.44a5.191 5.191 0 0 1-3.896 6.214L95.78 87.346a5.175 5.175 0 0 1-6.206-3.896 5.177 5.177 0 0 1 3.887-6.214l11.727-2.693a5.193 5.193 0 0 1 6.216 3.898"/>
                </g>
            </g>
            <g>
                <g transform="matrix(-1 0 0 1 181.894 64.765)">
                    <mask id="q" fill="#fff">
                        <use xlink:href="#p"/>
                    </mask>
                    <path fill="#292929" d="M57.247 2.176L34.353 1.128 11.468.076C5.458-.199.365 4.446.09 10.452l3.29 89.301c-.272 6.002 4.374 11.098 10.378 11.375l15.522.711 15.52.712c6.007.276 11.102-4.37 11.374-10.38l11.453-88.62c.27-6.003-4.373-11.099-10.38-11.375" mask="url(#q)"/>
                </g>
                <path fill="#707070" d="M160.306 138.528a3.845 3.845 0 0 0 4.012 3.663l2.838-.132a3.833 3.833 0 0 0 3.656-4.009l-.004-.176a3.845 3.845 0 0 0-4.014-3.659l-2.839.135a3.836 3.836 0 0 0-3.655 4.008l.006.17zM146.036 139.185a3.839 3.839 0 0 0 4.011 3.658l2.84-.13a3.839 3.839 0 0 0 3.658-4.01l-.01-.175a3.84 3.84 0 0 0-4.008-3.658l-2.839.134a3.835 3.835 0 0 0-3.658 4.009l.006.172zM131.766 139.838a3.839 3.839 0 0 0 4.011 3.657l2.839-.128a3.839 3.839 0 0 0 3.658-4.009l-.005-.17a3.837 3.837 0 0 0-4.012-3.66l-2.842.13a3.834 3.834 0 0 0-3.655 4.008l.006.172zM160.197 125.71a4.05 4.05 0 0 0 4.227 3.855l2.988-.138a4.043 4.043 0 0 0 3.854-4.224l-.009-.182a4.04 4.04 0 0 0-4.222-3.856l-2.99.137a4.04 4.04 0 0 0-3.851 4.225l.003.183zM145.168 126.397a4.049 4.049 0 0 0 4.226 3.856l2.989-.137a4.043 4.043 0 0 0 3.854-4.227l-.01-.18a4.044 4.044 0 0 0-4.222-3.855l-2.993.142a4.04 4.04 0 0 0-3.85 4.22l.006.18zM130.138 127.086a4.044 4.044 0 0 0 4.226 3.853l2.99-.139a4.04 4.04 0 0 0 3.854-4.22l-.013-.183a4.043 4.043 0 0 0-4.223-3.854l-2.989.14a4.046 4.046 0 0 0-3.854 4.224l.01.18zM160.466 151.353a3.724 3.724 0 0 0 3.893 3.55l2.756-.13a3.722 3.722 0 0 0 3.546-3.888l-.007-.168a3.722 3.722 0 0 0-3.892-3.548l-2.752.125a3.72 3.72 0 0 0-3.55 3.893l.006.166zM146.622 151.989a3.727 3.727 0 0 0 3.893 3.55l2.752-.13a3.726 3.726 0 0 0 3.55-3.89l-.01-.166a3.72 3.72 0 0 0-3.89-3.553l-2.755.126a3.73 3.73 0 0 0-3.549 3.892l.01.17zM132.778 152.62a3.722 3.722 0 0 0 3.89 3.55l2.755-.126a3.721 3.721 0 0 0 3.547-3.894l-.006-.161a3.725 3.725 0 0 0-3.893-3.553l-2.752.126a3.728 3.728 0 0 0-3.55 3.89l.01.168zM160.482 163.79a3.535 3.535 0 0 0 3.695 3.37l2.617-.115a3.543 3.543 0 0 0 3.373-3.696l-.009-.158a3.543 3.543 0 0 0-3.694-3.378l-2.615.123a3.543 3.543 0 0 0-3.376 3.696l.01.159zM147.327 164.397a3.544 3.544 0 0 0 3.7 3.37l2.615-.12a3.539 3.539 0 0 0 3.37-3.696l-.006-.156a3.54 3.54 0 0 0-3.694-3.374l-2.618.12a3.535 3.535 0 0 0-3.37 3.697l.003.159zM134.178 164.998a3.544 3.544 0 0 0 3.695 3.371l2.618-.12a3.532 3.532 0 0 0 3.37-3.695l-.003-.157a3.54 3.54 0 0 0-3.698-3.375l-2.618.12a3.543 3.543 0 0 0-3.37 3.696l.006.16z"/>
                <g transform="matrix(-1 0 0 1 244.716 107.114)">
                    <mask id="s" fill="#fff">
                        <use xlink:href="#r"/>
                    </mask>
                    <path fill="#714E46" d="M65.241.089s-13.58 14.53-16.597 18.791c-1.557 2.192-3.02 6.037-4.498 14.063-2.566 13.967-4.953 28.887-5.715 30.789C37.67 65.63 0 135.879 0 135.879h43.687s18.427-58.123 21.47-62.307c3.044-4.184 7.745-9.028 11.41-16.35 4.235-8.474 4.741-10.896 11.294-19.372 8.704-11.268 11.914-12.428 11.5-16.115-.735-6.666-10.655-3.52-19.242 3.714-7.342 6.184-10.575 10.69-13.575 11.02L65.241.088z" mask="url(#s)"/>
                </g>
                <path fill="#FFF" d="M125.838 77.972l19.541-.892 25.112-1.15a1.916 1.916 0 0 1 2.006 1.828l-1.273 35.207a1.917 1.917 0 0 1-1.826 2.002l-9.098.418-29.636 1.359a1.915 1.915 0 0 1-2.003-1.829l-4.658-34.937a1.929 1.929 0 0 1 1.835-2.006"/>
                <g transform="translate(135.745 79.538)">
                    <circle cx="14.618" cy="14.618" r="14.618" fill="#32C832"/>
                    <path fill="#FFF" d="M23.389 8.349a1.52 1.52 0 0 0-1.512-1.527c-.4 0-.764.157-1.035.413l-8.946 8.747-2.947-3.296a1.498 1.498 0 0 0-2.054.08l-.605.61a1.53 1.53 0 0 0-.443 1.08c0 .36.125.692.332.953l4.839 6.107a1.503 1.503 0 0 0 2.361 0l9.678-12.214c.207-.261.332-.593.332-.953"/>
                </g>
            </g>
        </g>
    </g>
</svg>
