<svg xmlns="http://www.w3.org/2000/svg" xmlns:xlink="http://www.w3.org/1999/xlink" width="341" height="338" viewBox="0 0 341 338">
    <defs>
        <path id="a" d="M.014.304H85.13v166.528H.014z"/>
        <path id="c" d="M.445.544h124.787v47.138H.445z"/>
        <path id="e" d="M.088.097h124.787v46.289H.088z"/>
        <path id="g" d="M.643.079h154.165v88.398H.643z"/>
        <path id="i" d="M.126.32h151.067v84.273H.126z"/>
    </defs>
    <g fill="none" fill-rule="evenodd">
        <path fill="#FF7900" d="M59.2 3.526C62.452.836 66.856-.315 72.411.073l173.901 25.2c8.019 1.161 9.04 1.68 13.062 5.294 2.68 2.408 4.453 6.149 5.317 11.223l34.758 210.577c.832 4.812.124 8.891-2.12 12.239-2.244 3.348-5.9 5.772-10.962 7.272l-236.56 34.475c-5.175.444-8.935-.418-11.28-2.586-2.342-2.168-3.616-5.961-3.82-11.381L54 15.286c.212-5.15 1.945-9.07 5.2-11.76z"/>
        <path fill="#FFF" fill-rule="nonzero" d="M128.705 264.819l.409 1.673c2.037-3.08 3.325-6.71 4.222-10.239 2.774-10.9 2.219-22.324 2.388-33.47.192-12.655.306-25.706-3.2-37.963-15.319 8.79-21.268 9.522-35.192 20.67-16.5 25.972-49.845 70.794-49.845 70.794l33.306 15.03 27.91-30.352c8.069-10.062 15.247-8.131 20.002 3.857zm81.137.848l-.41 1.672c-2.036-3.08-3.324-6.71-4.222-10.238-2.774-10.899-2.218-22.324-2.387-33.47-.193-12.655-.306-25.706 3.2-37.963 15.319 8.79 21.268 9.523 35.192 20.67 16.5 25.972 49.844 70.793 49.844 70.793l-31.487 15.047-29.728-30.368c-8.07-10.061-15.248-8.13-20.002 3.857z"/>
        <g transform="translate(125.074 164.48)">
            <mask id="b" fill="#fff">
                <use xlink:href="#a"/>
            </mask>
            <path fill="#FFF" d="M75.518 51.902c-1.899-7.676-2.448-15.457-2.89-23.325-.243-4.316-.59-8.64-.816-12.961-7-4.394-13.727-9.222-20.048-14.68a5.69 5.69 0 0 1-.62-.632c-2.23.388-7.881 1.187-13.787 1.267-5.87 3.733-11.803 7.44-17.828 10.993-.093 3.806-.437 7.609-.941 11.382-.995 7.454-2.574 14.815-4.096 22.175-1.157 5.59-2.119 11.224-3.616 16.736C8.866 70.266 5.896 79.19.014 84.74l4.265 83.705 1.727 49.657 65.592 2.069L85.13 75.698a97.652 97.652 0 0 1-1.76-3.202c-3.41-6.526-6.084-13.445-7.853-20.593" mask="url(#b)"/>
        </g>
        <path fill="#58BC89" fill-rule="nonzero" d="M131.166 184.566l-10.106 65.402-.098 60.484s24.184 31.41 34.504 6.023c5.281-12.99 2.194-93.154 2.194-93.154l-7.596-49.55c-6.198 3.774-12.485 7.423-18.898 10.795m58.845-8.997l.018 3.028-2.266 50.506s-.303 82.601 2.995 91.813c6.492 18.13 22.513-3.545 22.513-3.545l1.65-66.485-7.993-64.863c-5.8-3.226-11.46-6.68-16.918-10.455"/>
        <path fill="#FFF" d="M152.691 175.445l3.641-9.874s3.037.162 3.522 1.38c.486 1.216 10.33 26.414 10.33 26.414s9.691-13.698 9.302-15.6l-1.876-12.752s4.452-2.621 5.893-.066c1.442 2.554 3.914 11.73 3.914 11.73l.97 4.332-5.682 37.348-8.852-17.917-5.47.424s-6.848 19.097-7.333 17.88c-.423-1.061-6.091-27.572-7.783-34.857-.257-1.106-.903-7.354-.576-8.442"/>
        <path fill="#62352E" d="M183.57 142.376s-2.155 26.954-2.092 34.413c.018 2.099-4.151 9.554-7.207 14.732-1.475 2.502-5.024 2.683-6.745.345l-10.702-14.54s2.055-18.712 1.087-35.886c0 0 16.99 20.25 25.658.936"/>
        <path fill="#010101" fill-rule="nonzero" d="M191.128 179.616l-.122.636c-.16.831.421 1.768 1.287 1.894.87.126 1.725-.395 1.894-1.287l.122-.636c.16-.832-.42-1.769-1.287-1.894-.869-.125-1.725.394-1.894 1.287m.48 15.832l-.73 3.816c-.39 2.047 2.791 2.657 3.182.607l.73-3.816c.39-2.047-2.791-2.657-3.183-.607m-.863 22.88l-.729 3.817c-.39 2.047 2.79 2.657 3.182.607l.728-3.817c.391-2.046-2.79-2.656-3.18-.607m-.217 11.224l-.729 3.818c-.39 2.046 2.79 2.656 3.181.606l.73-3.816c.39-2.047-2.79-2.657-3.182-.608m1.512-44.25l-.73 3.817c-.39 2.046 2.79 2.657 3.182.607l.729-3.816c.391-2.047-2.79-2.657-3.18-.607m-1.309 19.963l-.35 5.853c-.053.879.35 1.705 1.287 1.893.772.156 1.842-.414 1.895-1.287l.35-5.851c.053-.88-.35-1.705-1.288-1.894-.772-.157-1.84.413-1.894 1.286m-1.344 35.758l.15 2.665c.05.847.892 1.59 1.744 1.484.89-.11 1.538-.837 1.485-1.744l-.15-2.665c-.048-.847-.89-1.591-1.744-1.485-.889.112-1.536.838-1.485 1.745m2.198 13.57l.106 5.968c.038 2.083 3.266 1.82 3.23-.26l-.107-5.968c-.036-2.083-3.266-1.82-3.23.26m.384 15.016c.281 1.254.108 2.517-.292 3.723-.275.83.508 1.744 1.287 1.893.953.182 1.617-.454 1.894-1.287.592-1.781.57-3.595.164-5.41-.191-.854-1.314-1.254-2.067-.986-.905.32-1.178 1.21-.986 2.067m.684 13.547l.223 5.334c.086 2.082 3.316 1.823 3.228-.259l-.222-5.335c-.086-2.081-3.316-1.823-3.229.26m.241 15.244l.657 6.105c.221 2.067 3.452 1.82 3.228-.26l-.655-6.105c-.222-2.067-3.452-1.82-3.23.26m1.276 14.084c.18 1.354.363 2.706.544 4.06.275 2.055 3.507 1.814 3.229-.26l-.544-4.06c-.276-2.054-3.507-1.813-3.23.26m3.149 10.296c1.47.613 3.069.695 4.562.1.811-.322 1.286-1.22.986-2.066-.284-.8-1.252-1.31-2.067-.985-.693.276-1.386.323-2.05.045-.805-.335-1.765-.08-2.167.738-.369.748-.074 1.83.736 2.168m8.973-2.383l2.152-.907c.779-.33 1.328-1.223.986-2.068-.313-.772-1.232-1.337-2.067-.985l-2.152.909c-.778.328-1.327 1.221-.986 2.066.312.774 1.232 1.338 2.067.985m4.31-6.204l.636.121c.832.16 1.769-.42 1.894-1.286.126-.869-.394-1.724-1.287-1.894l-.635-.12c-.833-.16-1.77.42-1.895 1.286-.126.868.395 1.723 1.287 1.893m-65.308-131.921l1.093 4.202c.22.847 1.294 1.26 2.067.986.883-.312 1.208-1.217.987-2.067l-1.094-4.202c-.22-.848-1.293-1.26-2.067-.987-.883.314-1.207 1.217-.985 2.068m3.374 13.794l1.432 5.61c.517 2.017 3.568.927 3.055-1.081l-1.434-5.61c-.516-2.018-3.568-.929-3.053 1.08m2.26 12.03l.785 2.786c.236.842 1.282 1.266 2.067.987.87-.309 1.225-1.222.985-2.068l-.785-2.786c-.236-.842-1.281-1.265-2.067-.986-.87.308-1.224 1.222-.986 2.067m.648 9.929l.785 2.787c.238.842 1.282 1.265 2.068.986.87-.308 1.224-1.222.986-2.066l-.786-2.788c-.236-.842-1.282-1.265-2.067-.986-.87.308-1.225 1.222-.985 2.067m.415 10.222c.28 1.042.172 2.069-.148 3.087-.264.836.498 1.744 1.286 1.894.943.18 1.63-.45 1.895-1.287.494-1.57.444-3.196.02-4.774-.226-.845-1.289-1.262-2.067-.987-.877.312-1.213 1.22-.986 2.067m.565 11.71l.424 4.695c.186 2.072 3.415 1.823 3.228-.26l-.424-4.696c-.186-2.071-3.415-1.822-3.228.26m.494 14.612l.665 3.423c.166.858.803 1.56 1.744 1.485.797-.064 1.653-.881 1.484-1.745l-.664-3.423c-.166-.857-.803-1.559-1.744-1.484-.798.063-1.653.881-1.485 1.744m.57 10.032c.172.253.344.505.515.759.477.7 1.547.95 2.25.428.704-.524.938-1.5.43-2.248l-.516-.76c-.476-.699-1.547-.95-2.249-.428-.705.524-.938 1.5-.43 2.249m-.164 8.692l-.486 2.545c-.159.831.42 1.768 1.287 1.893.87.127 1.724-.395 1.894-1.286l.486-2.545c.16-.831-.421-1.768-1.287-1.894-.87-.125-1.725.395-1.894 1.287m-2.129 18.053l-.729 3.817c-.39 2.046 2.79 2.656 3.182.607l.73-3.817c.39-2.047-2.791-2.657-3.183-.607m-1.756 12.646c.07.962-.199 1.833-.816 2.577-1.33 1.606 1.109 3.736 2.44 2.128a6.92 6.92 0 0 0 1.606-4.964c-.148-2.077-3.378-1.824-3.23.26m-4.105 11.091c0 .002.026.428.036.27.01-.175-.05.222-.062.262.071-.224-.026.032-.078.114-.146.233.232-.244-.093.123-.046.052-.172.178-.043.067 0 0-.335.23-.225.17.125-.067-.222.083-.263.093.253-.061-.191-.008-.234-.007-.875.006-1.55.918-1.485 1.744.074.924.867 1.49 1.744 1.484 2.311-.018 4.253-2.3 3.932-4.58-.122-.865-.835-1.556-1.744-1.483-.834.066-1.607.874-1.485 1.744m-7.653 1.28l-2.302-1.758c-.672-.514-1.714-.558-2.286.155-.518.647-.562 1.734.157 2.284l2.3 1.759c.673.514 1.715.558 2.287-.155.517-.648.562-1.735-.157-2.285m-10.603-8.746l-1.78-1.012c-.738-.42-1.833-.031-2.17.737-.369.844-.052 1.72.738 2.168l1.78 1.012c.737.42 1.833.031 2.168-.737.37-.843.052-1.72-.736-2.168"/>
        <path fill="#D6D6D6" d="M52.334 268.192l29.725 17.002c2.27 1.4 1.92 4.503.9 6.967-1.41 3.408-2.914 5.997-6.787 8.565-5.205 3.451-24.343-10.173-32.78-16.55a5.955 5.955 0 0 1-1.62-7.64c1.46-2.63 2.387-3.761 4.147-6.302 1.648-2.38 3.95-3.56 6.415-2.042"/>
        <g transform="translate(24.673 283.632)">
            <mask id="d" fill="#fff">
                <use xlink:href="#c"/>
            </mask>
            <path fill="#725048" d="M18.718.544S-.966 28.305.528 38.378c.83 5.61 13.09 29.086 83.333-18.282 0 0 1.986 2.38 14.963 4.362 14.964 2.285 9.768 2.7 9.768 2.7s-1.039 5.818 7.689 5.61c5.784-.138 9.858-6.537 5.967-8.871 0 0 6.676-7.726.06-10.45 0 0-5.03-4.437-3.949-9.349L83.446 2.852s-35.583 14.81-45.54 16.875l4.963-3.14L18.719.544z" mask="url(#d)"/>
        </g>
        <path fill="#D6D6D6" fill-rule="nonzero" d="M102.382 206.202l1.939 2.594c.522.7 1.399 1.058 2.215.582.69-.404 1.108-1.512.581-2.217l-1.939-2.593c-.522-.7-1.4-1.058-2.215-.582-.69.404-1.108 1.511-.582 2.216m5.658 9.35a8.255 8.255 0 0 0 2.293 3.997c1.499 1.449 3.792-.837 2.29-2.289a5.131 5.131 0 0 1-1.46-2.568c-.488-2.025-3.612-1.168-3.123.86m3.892 8.412l1.895 5.198c.709 1.942 3.84 1.104 3.124-.86l-1.896-5.198c-.708-1.942-3.838-1.104-3.123.86m4.009 12.059l1.944 4.532c.345.804 1.527.983 2.215.58.832-.485.928-1.408.582-2.214l-1.945-4.533c-.344-.803-1.527-.983-2.215-.58-.831.485-.926 1.407-.581 2.215"/>
        <path fill="#505052" d="M119.168 246.39c.47.97.557 1.999.433 3.059-.102.87.818 1.619 1.619 1.619.96 0 1.517-.746 1.62-1.62.19-1.635-.163-3.221-.875-4.694-.382-.786-1.503-.997-2.216-.58-.804.47-.963 1.425-.58 2.215"/>
        <path fill="#D6D6D6" d="M286.213 269.04l-29.725 17.003c-2.27 1.399-1.92 4.502-.901 6.967 1.411 3.407 2.915 5.997 6.788 8.565 5.205 3.45 24.343-10.174 32.78-16.551a5.955 5.955 0 0 0 1.62-7.64c-1.46-2.63-2.387-3.76-4.147-6.301-1.649-2.38-3.95-3.561-6.415-2.043"/>
        <g transform="translate(188.553 284.927)">
            <mask id="f" fill="#fff">
                <use xlink:href="#e"/>
            </mask>
            <path fill="#725048" d="M106.602.097s19.685 27.762 18.19 37.834c-.829 5.609-13.09 29.086-83.333-18.283 0 0-1.985 2.381-14.963 4.363-14.963 2.286-9.767 2.7-9.767 2.7s1.038 5.818-7.69 5.61c-5.784-.137-9.858-6.536-5.966-8.87 0 0-6.677-7.727-.06-10.451 0 0 5.03-4.437 3.948-9.349l34.914-1.247s35.582 14.812 45.54 16.876L82.45 16.14 106.603.098l-.001-.001z" mask="url(#f)"/>
        </g>
        <path fill="#D6D6D6" fill-rule="nonzero" d="M236.164 207.05l-1.938 2.595c-.522.7-1.4 1.057-2.215.581-.69-.404-1.108-1.511-.582-2.216l1.939-2.594c.522-.7 1.4-1.057 2.215-.581.69.404 1.108 1.51.581 2.215m-5.656 9.35a8.255 8.255 0 0 1-2.293 3.998c-1.499 1.448-3.792-.838-2.29-2.29a5.131 5.131 0 0 0 1.46-2.567c.488-2.026 3.61-1.168 3.123.86m-3.892 8.411l-1.896 5.198c-.708 1.943-3.839 1.104-3.123-.86l1.896-5.198c.707-1.941 3.838-1.104 3.123.86m-4.01 12.059l-1.943 4.533c-.345.803-1.528.982-2.217.58-.83-.485-.926-1.408-.581-2.215.65-1.51 1.297-3.021 1.945-4.533.345-.803 1.528-.982 2.215-.581.831.487.927 1.409.582 2.216"/>
        <path fill="#505052" d="M219.379 247.238c-.47.971-.557 2-.434 3.06.103.87-.817 1.618-1.619 1.618-.96 0-1.518-.746-1.619-1.619-.191-1.635.163-3.222.875-4.694.381-.787 1.503-.997 2.215-.582.804.471.964 1.426.582 2.217"/>
        <path fill="#62352E" fill-rule="nonzero" d="M137.33 104.573c-.36-3.727-4.345-6.418-8.077-6.12-.902.074-1.833.308-2.496.922-.87.808-1.094 2.083-1.185 3.266-.533 6.9 1.772 13.704 4.573 20.033 1.087 2.455 2.41 5.043 4.804 6.257.88.446 1.99.66 2.827.136.502-.316.825-.845 1.107-1.365a23.067 23.067 0 0 0 2.44-6.943l-3.992-16.187m60.656 3.38a17.75 17.75 0 0 1 4.14-7.907c.418-.458.892-.913 1.494-1.06.522-.126 1.074-.001 1.573.194 1.993.778 3.412 2.65 4.089 4.678.677 2.03.7 4.217.575 6.352a48.463 48.463 0 0 1-4.676 18.076c-.589 1.224-1.26 2.463-2.337 3.292-1.077.827-2.66 1.14-3.8.399-1.23-.8-1.518-2.444-1.695-3.9l.637-20.124"/>
        <path fill="#030303" d="M134.662 113.334c-1.198-15.717-9.642-65.596-7.641-69.42 3.213-6.145 26.853-20.859 42.203-20.859 13.393 0 40.949 13.594 42.203 16.592 1.013 2.422-6.615 64.343-9.682 78.825a323.968 323.968 0 0 0-49.774.163l-17.31-5.3"/>
        <path fill="#725048" d="M160.853 163.948c2.701 3.052 11.459 3.19 14.6.593 17.285-14.301 26.55-39.463 26.55-42.122 0-8.647-3.156-49.537-6.45-54.89-1.01-1.642-5.822-.113-12.175 1.415-4.735 1.14-10.327 2.278-15.839 2.105-11.21-.353-22.524-7.157-25.588-3.52 0 0-7.908 43.36-6.671 49.95.372 1.986-1.42 15.969 25.573 46.469"/>
        <path fill="#62352E" fill-rule="nonzero" d="M186.996 137.119l-.315-.455c-.187-.28-.463-.648-.778-1.05-.67-.812-1.365-1.719-2.47-2.999 0 0 .194-.085.545-.117.352-.036.868.013 1.431.29.56.27 1.148.803 1.513 1.583.364.769.47 1.813.074 2.748m-34.87-.32c.026.026-.47-.618-.185-1.679a2.379 2.379 0 0 1 1.022-1.378c.53-.33 1.287-.401 1.859 0 0 0-.488.575-.816 1.13-.184.276-.363.538-.649.79-.278.27-.69.503-1.23 1.136m26.692 5.709l-.335.387c-.223.249-.544.626-1.005 1.048a14.959 14.959 0 0 1-4.3 2.893 12.96 12.96 0 0 1-3.373.924c-1.236.16-2.571.138-3.908-.13-2.674-.534-5.351-2.006-7.26-4.302 0 0 .152.076.432.202.28.124.69.3 1.216.501 1.051.4 2.565.907 4.409 1.225 1.844.32 4.01.43 6.388.01 2.38-.404 4.974-1.355 7.736-2.758m-20.614-38.23l-1.157-.672c-.735-.416-1.781-1.038-3.1-1.474a7.646 7.646 0 0 0-2.17-.378c-.79-.025-1.648.055-2.556.149-.9.095-1.823.208-2.723.45-.897.24-1.79.61-2.505 1.294l.167-.278c.119-.177.309-.437.618-.714.603-.571 1.705-1.18 3.139-1.53.72-.181 1.494-.315 2.35-.408.854-.087 1.818-.105 2.804.134.98.236 1.921.703 2.769 1.307.852.604 1.618 1.336 2.364 2.12m33.805 0l-1.157-.672c-.735-.416-1.781-1.038-3.1-1.474a7.646 7.646 0 0 0-2.17-.378c-.789-.025-1.648.055-2.556.149-.9.095-1.822.208-2.723.45-.897.24-1.79.61-2.504 1.294l.166-.278c.12-.177.31-.437.62-.714.602-.571 1.704-1.18 3.138-1.53a17.098 17.098 0 0 1 2.349-.408c.854-.087 1.818-.105 2.804.134.98.236 1.922.703 2.77 1.307.85.604 1.618 1.336 2.363 2.12m-25.133 4.134c.099-.701-.906-.936-1.132-.265-.963 2.862-2.084 6.17-2.979 8.753-1.177 3.395-2.097 9.6-.802 10.895 1.296 1.294 4.13 3.918 9.817-.234 3.744-2.734-4.126-1.153-5.854-2.232-1.108-.694.01-10.203.95-16.917"/>
        <g transform="translate(89.449 242.836)">
            <mask id="h" fill="#fff">
                <use xlink:href="#g"/>
            </mask>
            <path fill="#7E7B7C" d="M145.602 88.58H9.85c-5.084 0-9.206-4.121-9.206-9.204V9.282C.643 4.199 4.765.078 9.85.078h135.753c5.085 0 9.206 4.12 9.206 9.204v70.093a9.204 9.204 0 0 1-9.206 9.204" mask="url(#h)"/>
        </g>
        <g transform="translate(91.391 246.72)">
            <mask id="j" fill="#fff">
                <use xlink:href="#i"/>
            </mask>
            <path fill="#5A5A5A" d="M141.989 84.693H9.33c-5.084 0-9.205-4.12-9.205-9.203V9.523C.126 4.44 4.247.32 9.332.32h132.657a9.204 9.204 0 0 1 9.205 9.204V75.49c0 5.083-4.122 9.204-9.205 9.204" mask="url(#j)"/>
        </g>
        <path fill="#FFF" d="M183.105 287.743h-.971c-.001 3.32-1.6 6.343-4.27 8.58-2.664 2.23-6.389 3.636-10.52 3.634-4.133.002-7.857-1.403-10.522-3.634-2.667-2.237-4.268-5.26-4.269-8.579.001-3.318 1.602-6.342 4.269-8.579 2.665-2.23 6.389-3.636 10.521-3.635 4.132 0 7.857 1.405 10.522 3.636 2.668 2.237 4.267 5.26 4.269 8.578h1.943c0-3.963-1.928-7.532-4.965-10.069-3.04-2.54-7.196-4.086-11.769-4.087-4.572 0-8.73 1.547-11.769 4.087-3.037 2.537-4.966 6.106-4.964 10.07-.002 3.962 1.927 7.531 4.964 10.067 3.04 2.54 7.196 4.087 11.77 4.088 4.572-.001 8.728-1.547 11.768-4.088 3.037-2.536 4.967-6.105 4.965-10.068h-.972z"/>
        <path fill="#62352E" d="M153.19 135.791c5.559 1.573 10.526 2.67 16.349 2.36 5.155-.276 10.856-1.158 15.54-3.375.47-.222.126-.906-.339-.804-2.51.554-4.765 1.364-7.329 1.784-2.81.46-5.602.883-8.45.995-5.389.21-10.25-.894-15.443-2.145-.769-.185-1.09.97-.327 1.185"/>
        <path fill="#725048" fill-rule="nonzero" d="M203.6 118.704c.394-2.403.917-4.795 1.657-7.119.22-.69.634-3.143 1.552-2.261.778.748.119 3.384.113 4.36-.004.42.601.602.805.219.73-1.37 1.309-7.73-1.67-6.751-1.42.467-1.797 2.87-2.151 4.062a38.237 38.237 0 0 0-1.41 7.341c-.06.624 1 .775 1.104.149m-67.192-1.76c-.847-2.73-1.474-5.577-2.646-8.197-.556-1.243-1.482-2.826-3.013-2.976-4.014-.39-1.983 7.111-1.375 8.878.222.64 1.354.595 1.268-.171-.146-1.303-.465-2.573-.682-3.866-.1-.601-.361-1.357-.285-1.954.259-2.021 1.773-1.627 2.627-.231 1.545 2.53 2.515 5.918 3.053 8.808.128.685 1.265.391 1.054-.29"/>
        <path fill="#848484" fill-rule="nonzero" d="M132.935 96.102l-.319-.055c-.002.01-.833 4.839-.833 9.837 0 2.1.146 4.232.57 6.062.426 1.826 1.12 3.368 2.295 4.254 1.667 1.246 4.344 2.312 7.422 3.083 3.077.77 6.55 1.234 9.786 1.235 3.029-.002 5.849-.404 7.958-1.375.986-.456 1.769-1.224 2.384-2.181 1.832-2.874 2.254-7.473 2.26-11.361 0-3.848-.434-6.992-.434-7l-.016-.112-.081-.079c-.035-.034-5.564-5.344-16.58-5.344-4.09 0-8.932.732-14.521 2.732l-.177.064-.033.185.32.055.108.306c5.525-1.976 10.29-2.693 14.302-2.693 5.401 0 9.44 1.298 12.128 2.594a19.97 19.97 0 0 1 3.017 1.777c.322.232.632.478.93.74l.045.04.012.011.224-.233-.32.045s.027.191.066.542c.121 1.052.363 3.52.362 6.37 0 2.558-.195 5.424-.84 7.835-.32 1.205-.753 2.296-1.318 3.176-.566.88-1.259 1.55-2.11 1.941-1.97.912-4.716 1.319-7.686 1.318-3.175 0-6.604-.46-9.628-1.216-3.025-.754-5.65-1.815-7.192-2.973-.975-.726-1.648-2.126-2.052-3.883-.407-1.754-.553-3.845-.552-5.915 0-2.464.205-4.9.41-6.716.084-.731.178-1.46.285-2.189.076-.526.127-.82.127-.821l-.319-.056.109.306-.109-.306M201.4 94.61l-.281.162.036.064c.366.657 3.353 6.277 3.348 12.387-.002 3.501-.966 7.144-3.931 10.175-1.097 1.127-3.06 1.998-5.455 2.562-2.395.569-5.215.843-8.029.843-4.237.002-8.466-.626-11.192-1.77-.978-.409-1.768-1.18-2.408-2.217-.96-1.552-1.557-3.69-1.906-5.936-.35-2.247-.454-4.6-.453-6.59.001-1.535.061-3.07.18-4.6.02-.242.033-.37.033-.371l-.322-.033.218.24.017-.015c.368-.325 6.954-5.991 19.16-5.991 3.24 0 6.88.399 10.907 1.406l.079-.316-.282.162.28-.16.08-.315c-4.078-1.019-7.77-1.425-11.065-1.425-12.815 0-19.577 6.142-19.612 6.175l-.091.084-.013.123c0 .008-.217 2.142-.217 5.035 0 2.687.184 6.023.909 8.938.361 1.458.858 2.812 1.547 3.929.686 1.115 1.573 2 2.71 2.474 2.86 1.196 7.139 1.818 11.441 1.82 2.857 0 5.72-.276 8.18-.859 2.457-.586 4.517-1.467 5.767-2.74 3.106-3.17 4.118-7.013 4.115-10.627-.005-6.737-3.459-12.749-3.469-12.773l-.069-.12-.134-.034-.078.314"/>
        <path fill="#FFF" d="M132.94 98.347c-.027.222-.055.456-.083.703l.187.08-.104-.783"/>
        <path fill="#764F49" fill-rule="nonzero" d="M132.857 99.05l-.014.118c-.206 1.816-.412 4.251-.412 6.716 0 .255.002.511.007.765.585.598 1.013 1.402 1.324 2.098.227.507.433 1.021.624 1.542-.313-3.08-.785-6.908-1.342-11.158l-.187-.081m-.313 9.79c.076.996.223 1.984.44 2.96.404 1.753 1.074 3.152 2.047 3.878-.535-2.332-1.342-4.819-2.487-6.839"/>
        <path fill="#242424" d="M137.385 95.064a51.092 51.092 0 0 0-4.16 1.28c-.106.666-.2 1.335-.284 2.004l.103.783c.557 4.25 1.028 8.077 1.342 11.158.313.868.599 1.747.855 2.634.276-4.418 1.132-11.037 2.144-17.86"/>
        <path fill="#846760" fill-rule="nonzero" d="M147.346 93.714c-2.92 0-6.24.38-9.961 1.35-1.012 6.823-1.868 13.44-2.144 17.859.347 1.178.667 2.368 1.02 3.537 1.543.85 3.636 1.614 5.966 2.195 3.025.757 6.454 1.216 9.628 1.216h.016c2.964 0 5.706-.407 7.672-1.317.85-.393 1.543-1.061 2.109-1.942.564-.88.998-1.97 1.32-3.176.643-2.411.839-5.277.838-7.835a58.209 58.209 0 0 0-.413-6.798 13.047 13.047 0 0 0-.907-.717 19.924 19.924 0 0 0-3.015-1.777c-2.69-1.295-6.727-2.594-12.129-2.595m-3.352 9.933l.167-.28c.12-.176.309-.436.618-.714.602-.571 1.705-1.18 3.139-1.528.72-.182 1.494-.315 2.35-.41.347-.034.711-.058 1.089-.058.552 0 1.13.051 1.715.193.98.237 1.921.703 2.769 1.307.852.604 1.618 1.336 2.364 2.12l-1.157-.67c-.734-.418-1.781-1.04-3.1-1.476a7.669 7.669 0 0 0-2.478-.382c-.703 0-1.457.07-2.248.153-.9.094-1.823.208-2.724.449-.897.241-1.79.613-2.503 1.296"/>
        <path fill="#764F49" d="M151.357 100.657c-.377 0-.742.024-1.09.06-.855.092-1.63.226-2.35.408-1.432.349-2.535.957-3.137 1.528-.235.212-.443.451-.62.714l-.166.279c.714-.682 1.607-1.054 2.504-1.295.901-.24 1.823-.355 2.724-.45.79-.081 1.545-.153 2.248-.153.104 0 .207.002.308.006a7.663 7.663 0 0 1 2.17.377c1.319.435 2.366 1.058 3.1 1.474l1.157.671c-.745-.783-1.512-1.515-2.364-2.12-.848-.602-1.789-1.07-2.77-1.306a7.258 7.258 0 0 0-1.714-.193"/>
        <path fill="#846760" d="M132.438 106.65c.014.738.047 1.474.106 2.19 1.145 2.02 1.951 4.506 2.487 6.838l.005.004a10.4 10.4 0 0 0 1.224.78c-.352-1.171-.672-2.36-1.019-3.54a41.893 41.893 0 0 0-.856-2.633c-.19-.521-.398-1.035-.623-1.542-.311-.696-.739-1.5-1.324-2.098"/>
        <path fill="#949494" fill-rule="nonzero" d="M147.346 93.39c-4.05 0-8.854.726-14.41 2.712 0 0-2.805 16.311 1.906 19.839 3.209 2.404 10.603 4.254 17.014 4.254 3 0 5.782-.405 7.823-1.347 6.4-2.954 4.023-20.203 4.023-20.203s-5.45-5.255-16.356-5.255m-9.961 1.674c3.722-.97 7.04-1.35 9.962-1.35 5.4 0 9.439 1.3 12.127 2.595a19.903 19.903 0 0 1 3.017 1.777c.313.225.616.464.907.717l.05.427c.237 2.116.357 4.242.362 6.37 0 2.559-.195 5.425-.839 7.837-.321 1.205-.755 2.296-1.32 3.175-.565.882-1.258 1.55-2.108 1.942-1.967.91-4.709 1.317-7.672 1.317h-.016c-3.174 0-6.603-.46-9.628-1.216-2.33-.582-4.423-1.344-5.966-2.194-.426-.23-.835-.491-1.225-.78l-.005-.003c-.973-.726-1.643-2.125-2.048-3.879a20.864 20.864 0 0 1-.439-2.96 34.098 34.098 0 0 1-.106-2.19c-.005-.255-.007-.51-.007-.765 0-2.464.206-4.9.412-6.716l.014-.118c.103-.905.225-1.808.367-2.707a51.092 51.092 0 0 1 4.16-1.28"/>
        <path fill="#764F49" d="M204.206 103.737c-.657 4.448-1.276 8.35-1.813 11.355.387-.617.711-1.251.981-1.894.158-.664.334-1.325.532-1.985.128-.426.256-1.007.436-1.6.11-.798.16-1.598.16-2.39a21.334 21.334 0 0 0-.296-3.486"/>
        <path fill="#242424" d="M200.103 94.637c.77 7.82 1.36 15.727 1.667 21.365.224-.299.43-.602.624-.91.536-3.003 1.155-6.908 1.812-11.354-.742-4.491-2.64-8.151-3.021-8.846-.36-.09-.72-.174-1.082-.256"/>
        <path fill="#846760" fill-rule="nonzero" d="M190.414 93.52c-11.707 0-18.243 5.212-19.084 5.925l-.021.245a60.157 60.157 0 0 0-.18 4.6c0 1.99.104 4.344.453 6.59.349 2.247.946 4.385 1.906 5.936.641 1.037 1.43 1.808 2.408 2.217 2.722 1.142 6.942 1.77 11.173 1.77h.02c2.813 0 5.633-.274 8.029-.843 2.394-.564 4.357-1.435 5.455-2.562.443-.453.84-.918 1.197-1.396-.305-5.638-.897-13.545-1.667-21.365-3.547-.795-6.778-1.117-9.689-1.117M177.8 103.646l.166-.28c.12-.175.309-.435.62-.712.6-.571 1.704-1.18 3.138-1.53a17.072 17.072 0 0 1 2.349-.408c.347-.035.712-.059 1.09-.059.552 0 1.128.051 1.714.193.98.236 1.922.703 2.77 1.307.85.604 1.618 1.336 2.363 2.12l-1.157-.672c-.735-.416-1.781-1.038-3.1-1.474a7.623 7.623 0 0 0-2.477-.382c-.703 0-1.458.07-2.249.153-.9.095-1.822.208-2.723.449-.897.241-1.79.613-2.504 1.295"/>
        <path fill="#764F49" d="M185.163 100.657c-.378 0-.743.024-1.09.06a16.92 16.92 0 0 0-2.35.408c-1.433.349-2.535.957-3.138 1.528a3.832 3.832 0 0 0-.619.714l-.167.279c.715-.682 1.608-1.054 2.505-1.295.901-.24 1.823-.355 2.723-.45.792-.081 1.546-.153 2.25-.153.103 0 .205.002.306.006.789.017 1.507.167 2.17.377 1.32.435 2.365 1.058 3.1 1.474l1.157.671c-.745-.783-1.512-1.515-2.364-2.12-.847-.602-1.79-1.07-2.769-1.306a7.258 7.258 0 0 0-1.714-.193"/>
        <path fill="#846760" d="M204.342 109.613c-.18.592-.31 1.174-.436 1.6-.198.66-.374 1.321-.533 1.985.492-1.172.8-2.376.97-3.585"/>
        <path fill="#949494" fill-rule="nonzero" d="M190.414 93.195c-12.706.001-19.393 6.091-19.393 6.091s-1.754 17.324 4.75 20.046c2.793 1.17 7.047 1.795 11.317 1.795 5.67 0 11.368-1.103 13.715-3.502 8.69-8.878.597-23.014.597-23.014l-.281.161.28-.16c-4.052-1.014-7.717-1.417-10.985-1.417m-19.084 6.25c.841-.713 7.378-5.926 19.084-5.925 2.911 0 6.142.322 9.689 1.117.358.08.72.165 1.083.254.38.696 2.28 4.356 3.02 8.847.185 1.12.298 2.293.297 3.486 0 .792-.05 1.591-.16 2.39a14.374 14.374 0 0 1-.969 3.584 13.084 13.084 0 0 1-1.604 2.804c-.357.478-.755.944-1.197 1.396-1.098 1.127-3.06 1.998-5.456 2.562-2.395.569-5.214.843-8.029.843h-.02c-4.23 0-8.45-.628-11.172-1.77-.978-.409-1.768-1.18-2.408-2.217-.96-1.552-1.557-3.69-1.905-5.936-.35-2.247-.454-4.6-.454-6.59.001-1.535.061-3.07.18-4.6l.021-.245"/>
        <path fill="#030303" d="M130.586 98.58c5.629-2.315 12.03-3.58 18.104-3.306 7.905.354 13.187 6.92 21.167 5.576 2.448-.412 3.715-1.93 6.036-3.043 9.163-4.394 20.443-2.586 29.862-.346 2.467.587 3.446-3.227.979-3.813-9.47-2.253-19.866-3.766-29.341-.642-2.21.73-4.35 1.708-6.27 3.026-.468.32-.97.96-1.482 1.18-1.265.545 1.823-.46.145-.299-3.835.37-5.574-.57-8.612-2.377-3.712-2.209-8.295-3.03-12.555-3.2-6.397-.253-13.224 1.03-19.148 3.468-2.318.953-1.233 4.743 1.115 3.777"/>
        <path fill="#030303" fill-rule="nonzero" d="M178.527 91.877c2.594-3.737 9.582-5.477 13.456-2.696 1.271.912 2.486-1.193 1.226-2.097-5.046-3.623-13.444-1.238-16.779 3.567-.894 1.287 1.211 2.503 2.097 1.226m-35.804-2.173c4.613-2.652 9.854-2.064 13.698 1.611 1.13 1.081 2.85-.633 1.718-1.716-4.63-4.428-11.086-5.185-16.642-1.991-1.354.779-.133 2.877 1.226 2.096m14.464 19.06c-1.005.188-2.03.52-3.057.516-2.76.509-10.11-1.176-10.859-1.521-.704.428-.955 1.64.002 2.166 4.07 2.232 11.339 2.607 15.208-.394.598-.463.778-.727.468-1.232-.565.205-1.153.349-1.763.463"/>
        <path fill="#030303" fill-rule="nonzero" d="M147.803 112.048c.481 1.075 1.37 1.737 2.565 1.814 1.17.076 2.414-.03 3.357-.838 1.183-1.015.717-2.85-.753-2.309-.394.146-2.573 1.22-2.86.582-.27-.604-.857-.99-1.531-.779-.575.181-1.046.933-.779 1.53m42.593-3.95c-1.999 1.487-10.525 1.03-11.685.75-.943-.23-1.862-.513-2.727-.925-.414.538-.184 1.278.578 1.716 4.023 2.316 11.206 3.43 15.136.51 1.247-.926-.042-2.985-1.3-2.05"/>
        <path fill="#030303" d="M180.843 111.928c.441 1.09 1.304 1.784 2.497 1.904 1.167.118 2.382-.027 3.386-.715 1.285-.882.819-2.824-.67-2.335-.399.131-2.615 1.126-2.878.477-.248-.613-.822-1.02-1.503-.833-.581.16-1.079.894-.832 1.502"/>
        <path fill="#000" d="M18.561 337.898h303.483a3.554 3.554 0 0 0 3.561-3.548 3.554 3.554 0 0 0-3.561-3.547H18.56A3.553 3.553 0 0 0 15 334.351a3.554 3.554 0 0 0 3.561 3.547"/>
        <path fill="#FFF" fill-rule="nonzero" d="M44.888 279.562l3.238 1.29c.812.324 1.779-.353 1.99-1.126.255-.918-.315-1.658-1.13-1.983l-3.237-1.29c-.812-.323-1.779.353-1.99 1.127-.255.918.315 1.658 1.129 1.982m6.09 4.997c1.51 1.075 3.021 2.15 4.533 3.224.71.506 1.801.125 2.213-.579.476-.809.133-1.697-.58-2.205l-4.532-3.224c-.713-.507-1.803-.125-2.216.578-.476.81-.133 1.698.582 2.206m9.955 6.275a8.913 8.913 0 0 0 4.038 2.233c2.023.495 2.887-2.614.861-3.11-1-.244-1.863-.692-2.61-1.404-1.505-1.435-3.797.842-2.29 2.28m8.126 6.079l3.9 1.906c.784.384 1.75.21 2.215-.579.417-.71.207-1.82-.582-2.205l-3.898-1.906c-.784-.384-1.752-.212-2.215.578-.417.71-.207 1.82.581 2.206m224.923-16.827l-3.238 1.29c-.812.324-1.778-.354-1.99-1.126-.255-.92.315-1.658 1.13-1.983l3.237-1.29c.812-.323 1.778.353 1.991 1.126.255.918-.315 1.659-1.13 1.983m-6.089 4.997c-1.51 1.074-3.022 2.148-4.533 3.224-.711.506-1.802.124-2.214-.578-.476-.81-.133-1.698.58-2.206l4.532-3.224c.713-.507 1.803-.125 2.216.578.475.81.133 1.698-.582 2.206m-9.955 6.274a8.913 8.913 0 0 1-4.038 2.233c-2.023.496-2.887-2.613-.861-3.108 1-.245 1.864-.693 2.61-1.405 1.505-1.435 3.798.841 2.29 2.28m-8.127 6.078l-3.9 1.907c-.783.383-1.75.21-2.214-.579-.417-.71-.207-1.82.581-2.205 1.3-.637 2.599-1.271 3.899-1.907.784-.384 1.752-.21 2.215.579.417.71.207 1.82-.581 2.205"/>
    </g>
</svg>
