<svg xmlns="http://www.w3.org/2000/svg" xmlns:xlink="http://www.w3.org/1999/xlink" width="313" height="367" viewBox="0 0 313 367">
    <defs>
        <path id="a" d="M.29.21h145.793v312.72H.29z"/>
        <path id="c" d="M.022.03h78.22v86.507H.023z"/>
        <path id="e" d="M.103.211h58.204V116.26H.103z"/>
    </defs>
    <g fill="none" fill-rule="evenodd">
        <g opacity=".231" style="mix-blend-mode:luminosity">
            <path fill="#000" d="M196 333c-64.618 0-117-4.701-117-10.5S131.382 312 196 312c64.616 0 117 4.701 117 10.5S260.616 333 196 333" opacity=".083"/>
            <path fill="#B5E8F7" d="M0 133h144V36.448H0z"/>
            <path fill="#8F8F8F" d="M0 36.448h144V33H0z"/>
            <path fill="#FFF" d="M144 51.39H91.865c-1.374 0-1.786-1.928-.54-2.525l2.677-1.284a8.716 8.716 0 0 1 5.757-.634l5.405 1.262a8.701 8.701 0 0 0 4.671-.2l16.897-5.488c2.628-.854 5.496.005 7.274 2.178l1.44 1.76c1.045 1.277 2.754 1.741 4.274 1.16l4.28-1.637v5.409zM0 59.437h25.199c1.3 0 1.99-1.429 1.129-2.335l-.52-.546c-1.624-1.708-4.248-2.245-6.492-1.328a6.01 6.01 0 0 1-5.183-.313l-2.88-1.619a6 6 0 0 0-5.945.065L3.435 54.47a3.142 3.142 0 0 1-3.434-.168H0v5.135z"/>
            <g>
                <path fill="#D6D6D6" d="M77.69 229.504h234.942v-6.005H77.69z"/>
                <path fill="#595959" d="M86.797 324.623h3.523v-95.12h-3.523zM300.003 324.623h3.523v-95.12h-3.523z"/>
                <path fill="#D6D6D6" d="M138.694 207.559c0 14.497 10.336 15.07 10.336 15.07h-31.095s10.336-.573 10.336-15.07h10.423z"/>
                <path fill="#8F8F8F" d="M160.679 208.52h-54.393c-.822 0-1.49-.663-1.49-1.48v-37.98c0-.816.668-1.479 1.49-1.479h54.393c.822 0 1.489.663 1.489 1.48v37.98c0 .816-.667 1.478-1.49 1.478"/>
                <path fill="#000" d="M159.43 206.565h-51.895a.671.671 0 0 1-.674-.669v-35.692c0-.37.302-.669.674-.669h51.895c.372 0 .674.3.674.67v35.691c0 .37-.302.67-.674.67"/>
                <path fill="#8F8F8F" d="M117.935 223.514h31.095v-.884h-31.095z"/>
                <path fill="#595959" d="M277.184 223.499h-48.266v-21.404c0-.703.574-1.271 1.28-1.271h45.706c.707 0 1.28.568 1.28 1.271v21.404z"/>
                <path fill="#000" d="M232.486 206.832h41.13v-2.084h-41.13z"/>
                <path fill="#D6D6D6" d="M263.31 220.532h4.14v-1.935h-4.14z"/>
                <path fill="#FF7900" d="M268.585 219.565c0 .534.436.967.974.967a.97.97 0 0 0 .975-.967.97.97 0 0 0-.975-.968.971.971 0 0 0-.974.968"/>
                <path fill="#FFF" d="M271.668 219.565a.97.97 0 0 0 .974.967.97.97 0 0 0 .974-.967.97.97 0 0 0-.974-.968.97.97 0 0 0-.974.968"/>
                <path fill="#8F8F8F" d="M268.027 200.824h-29.951v-11.01c0-.604.494-1.094 1.102-1.094h27.747c.608 0 1.102.49 1.102 1.094v11.01z"/>
                <path fill="#595959" d="M156.634 324.623h-3.12c-.634 0-1.147-.51-1.147-1.138v-3.329c0-.629.513-1.138 1.147-1.138h3.12c.633 0 1.147.51 1.147 1.138v3.329c0 .629-.514 1.138-1.147 1.138"/>
                <path fill="#8F8F8F" d="M152.58 309.418h4.986V268.74h-4.985z"/>
                <path fill="#8F8F8F" d="M164.806 274.542h-19.464c-1.29 0-2.343-1.047-2.343-2.326 0-1.28 1.054-2.327 2.343-2.327h19.464a2.34 2.34 0 0 1 2.343 2.327 2.34 2.34 0 0 1-2.343 2.326"/>
                <path fill="#595959" d="M121.544 321.782c0 1.57-1.28 2.842-2.861 2.842a2.851 2.851 0 0 1-2.862-2.842 2.852 2.852 0 0 1 2.862-2.84 2.851 2.851 0 0 1 2.861 2.84M116.844 235.711h12.68c1.446 0 2.63-1.175 2.63-2.61 0-1.437-1.184-2.612-2.63-2.612h-12.68c-1.447 0-2.63 1.175-2.63 2.611 0 1.436 1.183 2.611 2.63 2.611M180.624 235.711h12.68c1.446 0 2.63-1.175 2.63-2.61 0-1.437-1.184-2.612-2.63-2.612h-12.68c-1.447 0-2.63 1.175-2.63 2.611 0 1.436 1.183 2.611 2.63 2.611"/>
                <path fill="#595959" d="M173.198 272.393H136.95c-7.603 0-13.767-6.119-13.767-13.667v-61.838c0-5.032 4.11-9.111 9.178-9.111h45.425c5.07 0 9.178 4.079 9.178 9.11v61.839c0 7.548-6.163 13.667-13.766 13.667"/>
                <path fill="#8F8F8F" d="M152.581 303.721l-33.898 14.464v2.478l33.898-11.245z"/>
                <path fill="#595959" d="M188.603 321.782a2.851 2.851 0 0 0 2.862 2.842 2.851 2.851 0 0 0 2.861-2.842 2.852 2.852 0 0 0-2.861-2.84 2.852 2.852 0 0 0-2.862 2.84"/>
                <path fill="#8F8F8F" d="M157.566 303.721l33.899 14.464v2.478l-33.899-11.245z"/>
                <path fill="#8F8F8F" d="M152.581 309.418l1.543 11.245h1.899l1.544-11.245z"/>
                <path fill="#000" d="M133.476 261.004c-.237 0-.428-.097-.428-.216v-63.34c0-.12.191-.217.428-.217s.429.096.429.216v63.341c0 .119-.192.216-.429.216M144.38 261.004c-.236 0-.428-.097-.428-.216v-63.34c0-.12.192-.217.429-.217.236 0 .428.096.428.216v63.341c0 .119-.192.216-.428.216M155.285 261.004c-.237 0-.428-.097-.428-.216v-63.34c0-.12.191-.217.428-.217s.428.096.428.216v63.341c0 .119-.191.216-.428.216M166.19 261.004c-.238 0-.43-.097-.43-.216v-63.34c0-.12.192-.217.43-.217.236 0 .428.096.428.216v63.341c0 .119-.192.216-.429.216M177.093 261.004c-.237 0-.428-.097-.428-.216v-63.34c0-.12.191-.217.428-.217s.428.096.428.216v63.341c0 .119-.191.216-.428.216"/>
            </g>
            <g>
                <path fill="#D6D6D6" d="M1.009 326.625h75.868V203.11H1.01z"/>
                <path fill="#595959" d="M6.472 259.002h64.943v-48.087H6.472v48.087zm-.447.447h65.836v-48.981H6.025v48.981z"/>
                <path fill="#8F8F8F" d="M46.055 222.74H31.816c-.714 0-1.3-.586-1.3-1.302 0-.716.586-1.302 1.3-1.302h14.239c.715 0 1.3.586 1.3 1.302 0 .716-.585 1.302-1.3 1.302"/>
                <path fill="#595959" d="M6.472 315.071h64.943v-48.088H6.472v48.088zm-.447.447h65.836v-48.982H6.025v48.982z"/>
                <path fill="#8F8F8F" d="M46.055 278.809H31.816c-.714 0-1.3-.586-1.3-1.302 0-.716.586-1.302 1.3-1.302h14.239c.715 0 1.3.586 1.3 1.302 0 .716-.585 1.302-1.3 1.302"/>
                <path fill="#FF7900" d="M47.815 188.002v11.025c0 1.118.17 2.195.484 3.21.162.523.658.873 1.205.873h18.28c.547 0 1.042-.35 1.204-.874.315-1.014.485-2.091.485-3.209v-11.025H47.815z"/>
                <path fill="#50BE87" d="M67.903 188.002c2.82-1.994 5.612-4.382 5.408-5.376-.21-1.017-3.462-.222-6.764 1.013 2.486-2.832 5.088-6.387 4.582-7.396-.513-1.02-3.964.996-7.033 3.275 1.727-3.671 3.56-8.608 2.703-9.449-.82-.807-3.71 2.572-5.98 5.84-.193-4.187-1-9.5-2.175-9.495-1.175-.005-1.982 5.308-2.175 9.495-2.27-3.268-5.16-6.647-5.981-5.84-.855.84.977 5.778 2.704 9.449-3.07-2.28-6.52-4.296-7.033-3.275-.506 1.01 2.095 4.564 4.582 7.396-3.302-1.235-6.555-2.03-6.764-1.013-.204.994 2.587 3.382 5.408 5.376h18.518z"/>
            </g>
        </g>
        <path fill="#EEEEEA" d="M174.435 366.384c-33.235 0-60.177-5.015-60.177-11.202 0-6.186 26.942-11.2 60.177-11.2s60.177 5.014 60.177 11.2c0 6.187-26.942 11.202-60.177 11.202"/>
        <g transform="translate(138.985 49.742)">
            <mask id="b" fill="#fff">
                <use xlink:href="#a"/>
            </mask>
            <path fill="#4A4A47" d="M45.63 291.478a3.915 3.915 0 0 0-.5-.465c-.082.467-.157.937-.226 1.41.354.14.656.296 1.087.466.78.311.444 1.73-.346 1.419-.297-.118-.62-.266-.935-.4-.053.44-.103.88-.148 1.324l.05.025c.23.042.458.083.686.146.807.232.465 1.651-.346 1.419a5.933 5.933 0 0 0-.528-.117 175.302 175.302 0 0 0-.235 3.103c-.034.402-.055.796-.083 1.198a17.13 17.13 0 0 0-1.13-.725c-.034-.016-.075-.04-.11-.055-.34-.205-.687-.386-1.033-.552v-.007c-.2-.355-.499-.607-.908-.576a.17.17 0 0 0-.152.087 13.143 13.143 0 0 0-1.13-.473h-.013a.524.524 0 0 0-.028-.142c-.153-.56-.61-1.253-1.178-1.111-.104.031-.153.134-.166.26-.014.205.055.378.152.552-.333-.103-.63-.19-.887-.26a27.837 27.837 0 0 1-.922-.166c-.235-.615-.568-1.143-1.047-1.481-.443-.323-.859.118-.859.583h-.007c.603-4.8 2.273-10.915 3.985-16.974a53.76 53.76 0 0 0 4.775 3.695c.36.26.72.497 1.102.733.63.426 1.289.828 1.933 1.206a32.406 32.406 0 0 0-1.06 3.89c.424.285.772.55 1.123.948.589.674-.326 1.715-.915 1.04zm-14.164-44.894c-6.93-9.315-12.966-19.236-15.565-32.617-1.621-9.937 0-20.229 2.91-29.796 1.518-4.483 4.166-16.083 8.76-18.416h.014a7.706 7.706 0 0 1 2.827.07c4.769 18.717 5.163 39.884 3.597 58.804-.575 7.274-1.455 14.626-2.543 21.955zm29.39 35.982c-.617-1.616-1.781-3.247-3.195-4.263-1.15-.867-2.453-1.324-3.749-1.072l-.015.016c-.382-.326-.942-.624-1.198-1.01-.312-.448-.61-.921-.887-1.41-.658-1.111-1.247-2.308-1.947-3.483a119.097 119.097 0 0 0-3.562-5.327c-.991-1.41-2.017-2.79-3.042-4.161 1.885-8.259 3.894-16.604 5.731-24.957 2.384-10.828 4.428-21.687 5.398-32.499.943-11.742 1.435-55.013 1.15-66.793l.638-.016a543.764 543.764 0 0 0-.194-5.927l-1.712.056v-.883c0-1.67-2.286-1.67-2.286 0v.977l-2.994.11-6.036.229v-.859a1.152 1.152 0 0 0-2.294 0v.937l-5.357.198-4.241.165v-.551c0-1.68-2.287-1.68-2.287 0v.622l-5.1.19-2.8.101v-.354c0-1.678-2.287-1.678-2.287 0v.442l-2.017.07-5.488.229-2.585.087h-.083v-.828c0-1.678-2.287-1.678-2.287 0v.922l-3.645.142a514.07 514.07 0 0 1-1.158 5.958c-.242 2.592-.485 5.177-.734 7.77l.367.039c-1.005 10.402-.582 22.301-.582 32.325 0 6.998-.132 14.997.256 22.964.479 9.614 1.733 19.22 4.914 27.061a141.249 141.249 0 0 0 2.093 4.98 155.11 155.11 0 0 0 2.924 6.304c4.622 9.418 10.457 19.142 17.138 27.424-.402 2.073-.818 4.13-1.247 6.179a569.534 569.534 0 0 1-1.99 9.37c-1.233 5.602-2.55 11.323-4.268 16.658-.478 1.521-2.107 3.224-2.682 4.665.054-.004.11-.015.165-.02l-.006.06c-.596 5.611 1.664 5.745 6.542 6.486 5.926.543 12.419.165 18.863-3.46.07-.032.132-.07.18-.102-.006.118-.02.22-.034.339-.284 3.294 1.088 4.373 2.862 4.255 1.2-.063 2.592-.662 3.777-1.49 4.359-3.112 6.632-8.644 8.573-13.98 1.773-4.767 4.531-9.74 2.418-14.885z" mask="url(#b)"/>
            <path fill="#6A473F" d="M120.848 10.637c10.539.198 19.904-4.62 24.245-2.654 5.422 2.455-13.106 11.487-14.632 12.435-.957.594-14.396.273-14.447 1.176-.05.903-5.047 40.193-5.97 43.416-.923 3.222-6.725 7.831-9.403 6.822-2.678-1.01-5.657-6.763-5.365-10.113.293-3.349 15.127-41.155 15.408-42.218.281-1.064-2.865-6.614 1.423-10.087 1.834-1.485 5.522-5.54 4.157-9.09 0 0 5.425-1.451 2.477 6.04-.265.673-.961.944-1.365 1.778-.895 1.848 1.378 2.456 3.472 2.495" mask="url(#b)"/>
        </g>
        <path fill="#5D3835" d="M261.846 63.853l-1.118-.252c-.71-.16-1.72-.408-2.926-.55-1.201-.143-2.62-.127-4 .403-.681.264-1.347.65-1.882 1.215-.534.554-.956 1.283-1.027 2.12 0 0-.027-.09-.048-.272a2.747 2.747 0 0 1 .03-.81c.115-.694.594-1.729 1.673-2.507 1.057-.785 2.643-1.243 4.325-1.08 1.686.15 3.355.852 4.973 1.733M282.228 62.931s-.03-.118-.13-.314a1.963 1.963 0 0 0-.624-.693 2.59 2.59 0 0 0-1.345-.461c-.559-.043-1.2.06-1.905.248a23.803 23.803 0 0 0-4.694 1.799c-.831.413-1.635.917-2.507 1.436-.867.506-1.849.993-2.9 1.078l.317-.122c.205-.084.498-.223.85-.433.717-.407 1.58-1.187 2.8-2.062a15.128 15.128 0 0 1 4.742-2.186c.944-.23 1.97-.486 3.09-.35.55.071 1.11.28 1.541.647.433.356.746.878.765 1.413"/>
        <path fill="#5D3835" d="M284.025 60.59c-.022.026.018-.604-.684-1.173-.338-.276-.848-.505-1.447-.567-.59-.062-1.277.108-1.982.432-.71.318-1.442.804-2.3 1.256-.852.453-1.786.86-2.774 1.208-1.975.709-4.141 1.195-6.323 1.683 0 0 .452-.228 1.285-.585.832-.361 2.052-.836 3.533-1.418 1.49-.586 3.192-1.288 5.023-2.295.934-.472 2.048-1.004 3.31-.876.616.076 1.205.33 1.665.742.462.4.767 1.01.694 1.593"/>
        <path fill="#5D3835" d="M284.792 58.44l-.302-.183a4.547 4.547 0 0 0-.91-.376c-.807-.244-2.045-.322-3.45.038-1.417.34-2.97 1.145-4.81 1.797-1.855.641-3.912.93-5.971 1.093 0 0 .442-.156 1.24-.406.797-.254 1.955-.59 3.328-1.074a34.812 34.812 0 0 0 2.203-.88c.79-.337 1.648-.71 2.604-.998.948-.29 2.026-.472 3.115-.36 1.081.103 2.207.532 2.953 1.349"/>
        <path fill="#5D3835" d="M269.418 67.644l-.1-.163a4.275 4.275 0 0 1-.259-.478 6.733 6.733 0 0 1-.552-1.876c-.118-.804-.122-1.757.012-2.75a14.64 14.64 0 0 1 .288-1.512c.051-.236.142-.578.32-.815.09-.125.199-.246.35-.329a.48.48 0 0 1 .49.006c.001.005-.075-.02-.197.013-.124.034-.244.16-.309.352-.068.192-.101.429-.081.713.01.307.013.655.008 1.034-.007.76-.055 1.645-.088 2.61-.028.968-.053 2.017.118 3.195"/>
        <path fill="#D3D3CC" d="M173.117 95.79s19.817-6.577 22.564-2.896c2.745 3.682 35.178 12.316 35.178 12.316l-2.972 15.85-34.34-4.293c-3.2-.4-4.15 5.018-4.372 8.235l4.928 56.088-45.053 27.252-6.69-20.716 2.058-57.244-11.6 26.682-15.046-3.291s15.941-54.858 19.847-56.644c6.322-2.893 12.864-2.592 18.156-1.637 0 0 1.082-1.379 1.557-1.28 4.594.963 7.941 3.835 9.118 3.566 2.591-.593 6.667-1.989 6.667-1.989"/>
        <path fill="#1C1A19" d="M185.43 182.557l-37.923-.218.358 4.774 37.134.103.431-4.659"/>
        <path fill="#FFFFFE" d="M175.295 187.35l-8.13-.057a.461.461 0 0 1-.458-.464l.03-4.211a.46.46 0 0 1 .463-.457l8.13.056c.255.002.46.21.459.464l-.03 4.211a.461.461 0 0 1-.464.458"/>
        <path fill="#525350" d="M182.88 187.327l-1.663-.012.034-4.807 1.662.012-.033 4.807M158.945 187.149l-1.663-.012.034-4.806 1.663.011-.034 4.807"/>
        <path fill="#24AC79" d="M148.924 94.285l-4.19 43.831.259 34.025s10.897 14.695 15.974 1.266c2.597-6.871 1.849-51.673 1.849-51.673l-7.533-26.58-6.36-.87"/>
        <g transform="translate(113 92.431)">
            <mask id="d" fill="#fff">
                <use xlink:href="#c"/>
            </mask>
            <path fill="#24AC79" d="M64.44 1.946l-.154 6.375-.536 26.48s.906 43.264 2.751 48.046c3.633 9.411 11.742-2.146 11.742-2.146l-2.729-32.93L70.858.03l-6.419 1.915" mask="url(#d)"/>
            <path fill="#FFFFFE" d="M3.832 60.636l17.631 3.291c1.364.301 1.725 1.897 1.646 3.292-.11 1.93-.408 3.47-1.88 5.407-1.98 2.604-13.793-.84-19.066-2.542a3.12 3.12 0 0 1-2.117-3.5c.269-1.553.532-2.272.965-3.832.405-1.461 1.34-2.442 2.821-2.116" mask="url(#d)"/>
        </g>
        <path fill="#FFFFFE" d="M238.94 105.988l-4.03 17.477c-.358 1.35-1.967 1.644-3.357 1.506-1.923-.192-3.45-.554-5.323-2.107-2.519-2.087 1.419-13.745 3.34-18.941a3.12 3.12 0 0 1 3.587-1.968c1.54.334 2.247.627 3.788 1.125 1.443.467 2.384 1.442 1.995 2.908"/>
        <g transform="translate(118.197)">
            <mask id="f" fill="#fff">
                <use xlink:href="#e"/>
            </mask>
            <path fill="#FFFFFE" d="M38.815 94.165l.851-4.896s1.357-.206 1.627.425 9.844 15.228 9.844 15.228 3.644-9.271 3.416-10.263l-2.681-6.782s1.234-1.684 2.021-.365c.788 1.32 2.327 4.779 2.327 4.779l2.087 6.131-1.534 15.524-3.214-7.927-3.796.786s-5.6 10.056-5.869 9.425c-.27-.631-5.08-22.065-5.08-22.065" mask="url(#f)"/>
            <path fill="#0B0B09" d="M53.182 41.63s-.61-26.993-6.32-33.152C41.305 2.483 22.255-12.174.94 22.298a5.627 5.627 0 0 0-.055 5.813l19.428 33.016 32.87-19.497" mask="url(#f)"/>
        </g>
        <path fill="#592E2A" d="M167.567 77.357s2.922 12.988 5.183 17.302c.705 1.345-3.416 10.263-3.416 10.263l-9.99-10.329s1.443-5.3-4.166-19.284c0 0 8.1 12.275 12.39 2.048"/>
        <path fill="#6A473F" d="M166.51 26.713s18.171 37.642 1.847 55.715c0 0-9.896 3.603-26.459-16.887 0 0-3.723 5.907-9.715-8.756-5.127-12.544 4.914-3.255 4.914-3.255s2.172-7.614 1.296-9.493c-.877-1.88-4.239-8.805-4.239-8.805s21.158-13.792 32.355-8.52"/>
        <path fill="#0B0B09" d="M169.965 36.258s-.314-.062-.78-.19c-.234-.063-.53-.053-.825-.103-.31.037-.63.026-.958.14-1.302.316-2.82 1.756-4.706 3.406 0 0-.02-.302.08-.823a5.7 5.7 0 0 1 .83-2.048c.512-.766 1.354-1.694 2.74-2.023.173-.034.347-.064.522-.089.175-.021.364.004.544.012.366 0 .72.14 1.055.273.334.133.61.394.88.603.238.265.44.559.618.842M142.055 44.263s.044-.32.198-.896a4.274 4.274 0 0 1 1.439-2.105c.876-.725 2.31-1.066 3.627-.8 1.324.249 2.544.976 3.437 2.022l-.867-.09c-.536-.053-1.283-.137-2.12-.179-.845-.037-1.744-.028-2.65.2-.245.026-.447.161-.705.23-.242.097-.471.247-.75.37-.233.179-.507.347-.784.548-.249.222-.523.453-.825.7"/>
        <path fill="#592E2A" d="M167.129 59.713s-3.14 3.445-7.301 2.71c-2.871-.508 1.025 1.04 1.888 1.147 1.659.207 4.354-.746 5.413-3.857"/>
        <path fill="#FFFFFE" d="M164.575 51.239a4.772 4.772 0 0 1-1.248-2.248c-.599-2.477.833-4.94 3.197-5.502 2.365-.561 4.767.992 5.365 3.468.598 2.478-.833 4.94-3.198 5.502-1.519.361-3.054-.151-4.116-1.22"/>
        <path fill="#0B0B09" d="M164.609 51.206s.154.153.481.39c.327.232.845.544 1.574.713a4.072 4.072 0 0 0 2.603-.248c.933-.403 1.817-1.268 2.23-2.453.42-1.17.32-2.648-.428-3.869-.726-1.219-2.165-2.13-3.731-2.073-1.567.016-3.104 1.11-3.683 2.698-.609 1.567-.261 3.53.954 4.842 0 0-.156-.127-.406-.416a4.666 4.666 0 0 1-.843-1.447 4.917 4.917 0 0 1-.182-2.662c.223-1.028.86-2.184 2.028-2.914 1.144-.724 2.821-.941 4.284-.226.733.333 1.38.894 1.883 1.58.48.7.824 1.536.898 2.429a4.877 4.877 0 0 1-.483 2.655c-.417.826-1.09 1.553-1.94 1.987-.84.45-1.845.594-2.787.411a4.45 4.45 0 0 1-2.452-1.397"/>
        <path fill="#0B0B09" d="M167.735 48.82c.192 1.365 1.203 2.353 2.259 2.206 1.055-.146 1.755-1.372 1.563-2.736-.192-1.365-1.203-2.353-2.258-2.207-1.056.147-1.756 1.372-1.564 2.737"/>
        <path fill="#FFFFFE" d="M170.202 48.118c.032.222.389.356.797.3.41-.057.716-.283.684-.506-.031-.222-.388-.356-.797-.3-.409.057-.715.283-.684.506M146.67 56.274a4.768 4.768 0 0 1-1.25-2.248c-.598-2.477.834-4.94 3.198-5.502 2.364-.561 4.766.992 5.365 3.469.598 2.477-.834 4.94-3.198 5.502-1.52.36-3.054-.152-4.116-1.221"/>
        <path fill="#0B0B09" d="M146.702 56.24s.155.154.482.391c.327.232.845.545 1.573.713a4.07 4.07 0 0 0 2.603-.248c.934-.403 1.818-1.268 2.231-2.452.42-1.17.32-2.649-.428-3.87-.727-1.219-2.166-2.13-3.732-2.072-1.566.016-3.103 1.11-3.683 2.698-.609 1.567-.26 3.53.954 4.84 0 0-.156-.126-.406-.415a4.662 4.662 0 0 1-.842-1.447 4.917 4.917 0 0 1-.183-2.662c.224-1.028.86-2.184 2.029-2.913 1.144-.724 2.82-.942 4.283-.227.734.333 1.38.894 1.884 1.58.48.701.823 1.537.897 2.429a4.872 4.872 0 0 1-.482 2.655c-.418.826-1.09 1.554-1.94 1.987-.841.45-1.845.594-2.787.412a4.45 4.45 0 0 1-2.453-1.398"/>
        <path fill="#0B0B09" d="M149.829 53.855c.192 1.365 1.203 2.353 2.258 2.206 1.056-.146 1.756-1.371 1.564-2.736-.192-1.365-1.203-2.353-2.259-2.207-1.055.147-1.755 1.372-1.563 2.737"/>
        <path fill="#FFFFFE" d="M152.296 53.153c.031.222.388.356.797.3.409-.057.715-.283.684-.506-.032-.222-.388-.356-.797-.3-.41.057-.715.283-.684.506M169.026 66.389a27.141 27.141 0 0 1-8.305 2.303c-.944.099-1.768.143-2.457.154.03.036.058.075.089.11l.34.4c1.104.138 2.208.16 3.257.059a16.271 16.271 0 0 0 4.928-1.297c.872-.391 1.592-.811 2.184-1.205-.01-.175-.025-.35-.036-.524"/>
        <path fill="#592E2A" d="M168.654 71.242s-1.402 1.743-1.879 2.051a3.69 3.69 0 0 1-1.836.575c-.713.028-2.05-.698-2.648-1.19 0 0 4.367.093 6.363-1.436"/>
        <path fill="#7C7D7A" d="M138.16 49.774l-.183.024c0 .005.316 2.402 1.045 4.952.364 1.275.83 2.588 1.419 3.666.589 1.075 1.296 1.927 2.186 2.244.906.319 2.14.466 3.533.467 1.908 0 4.108-.281 6.123-.817 2.015-.536 3.844-1.322 5.013-2.362.87-.778 1.17-2 1.171-3.35 0-1.903-.598-4.096-1.191-5.823a32.335 32.335 0 0 0-1.19-2.986l-.027-.058-.057-.028c-.019-.01-1.874-.93-5-.93-3.2 0-7.728.968-12.952 4.851l-.088.066.015.108.184-.024.11.148c5.167-3.838 9.606-4.777 12.731-4.778 1.526 0 2.739.225 3.569.449.414.112.733.224.947.307.107.041.187.075.24.1l.06.027.018.008.083-.166-.168.079s.036.076.1.219a33.7 33.7 0 0 1 1.293 3.388c.506 1.583.953 3.445.952 5.042 0 1.302-.296 2.408-1.047 3.074-1.093.976-2.88 1.756-4.862 2.28-1.98.528-4.156.804-6.027.804-1.365 0-2.57-.148-3.41-.445-.742-.257-1.417-1.03-1.984-2.072-.851-1.558-1.461-3.687-1.853-5.419a41.14 41.14 0 0 1-.535-2.835 14.118 14.118 0 0 1-.033-.235l-.184.025.11.148-.11-.148M176.432 37.106l-.126.137.05.046a17.658 17.658 0 0 1 2.423 2.977c1.057 1.63 2.045 3.778 2.044 6.075a7.693 7.693 0 0 1-.883 3.591c-.345.669-1.046 1.343-1.974 1.964-2.785 1.87-7.594 3.257-10.774 3.253-.303 0-.591-.012-.86-.037-.958-.09-1.823-.742-2.58-1.71-1.133-1.448-1.995-3.573-2.566-5.331a34.522 34.522 0 0 1-.802-2.904c-.036-.158-.053-.243-.053-.243l-.182.037.16.095.01-.018c.247-.392 4.562-7.1 16.124-7.746l-.01-.186-.127.137.126-.137-.01-.185c-6.042.336-10.15 2.315-12.746 4.214-2.595 1.899-3.677 3.716-3.686 3.731l-.037.062.014.07c.002.006.51 2.5 1.542 5.054.517 1.277 1.163 2.57 1.951 3.58.788 1.006 1.726 1.742 2.836 1.849.283.027.583.04.896.04 2.187-.001 5.058-.623 7.584-1.603 1.262-.49 2.437-1.071 3.396-1.713.958-.643 1.704-1.345 2.097-2.101a8.066 8.066 0 0 0 .925-3.763c-.002-2.566-1.165-4.904-2.32-6.603-1.156-1.7-2.31-2.762-2.316-2.768l-.058-.054-.078.005.01.185"/>
        <path fill="#876961" d="M146.152 60.755c-1.361 0-2.563-.149-3.401-.445-.743-.257-1.418-1.03-1.985-2.072-.851-1.558-1.461-3.687-1.853-5.419a41.14 41.14 0 0 1-.431-2.186l-.001-.007c2.513-1.824 5.427-3.267 8.403-4.038a9.99 9.99 0 0 1 2.532-.303c1.118 0 2.217.146 3.306.292 1.09.147 2.169.293 3.246.293.062 0 .124 0 .186-.002a34 34 0 0 1 .99 2.687c.506 1.583.953 3.445.952 5.042 0 1.302-.296 2.408-1.047 3.074-1.093.976-2.88 1.756-4.862 2.28-1.98.527-4.154.804-6.025.804h-.01m1.302-3.846a4.358 4.358 0 0 0 1.701.73c.265.051.536.076.806.076.689 0 1.377-.165 1.98-.488.852-.433 1.523-1.16 1.94-1.987a4.872 4.872 0 0 0 .483-2.655c-.074-.892-.417-1.728-.897-2.429-.503-.686-1.15-1.247-1.884-1.58a4.363 4.363 0 0 0-1.922-.44c-.868 0-1.703.25-2.361.667-1.168.73-1.805 1.885-2.029 2.913a4.917 4.917 0 0 0 .183 2.662c.192.523.433.916.646 1.202a4.729 4.729 0 0 0 1.354 1.329"/>
        <path fill="#FFFFFE" d="M149.696 57.453a4.07 4.07 0 0 1-.939-.109 4.422 4.422 0 0 1-1.573-.713c-.327-.237-.482-.39-.482-.39.225.249.477.473.752.668a4.642 4.642 0 0 1-1.354-1.33c.07.093.136.175.196.246.25.29.406.416.406.416-1.215-1.312-1.563-3.274-.954-4.841.58-1.589 2.117-2.682 3.683-2.698.047-.002.093-.003.14-.003 1.511 0 2.887.893 3.592 2.075.748 1.221.847 2.7.428 3.87-.413 1.184-1.297 2.05-2.23 2.452a4.026 4.026 0 0 1-1.665.357m1.905-6.349c-.07 0-.139.005-.209.014-1.055.147-1.755 1.372-1.563 2.737.18 1.275 1.073 2.22 2.05 2.22.069 0 .138-.004.208-.014 1.056-.146 1.756-1.371 1.564-2.736a3.388 3.388 0 0 0-.014-.092c.1-.085.154-.186.14-.286-.017-.118-.125-.211-.285-.264-.339-.938-1.087-1.579-1.891-1.579"/>
        <path fill="#2B2C2A" d="M149.96 57.715c-.27 0-.54-.025-.805-.076a4.358 4.358 0 0 1-1.701-.73 4.544 4.544 0 0 1-.752-.668s.155.153.482.39c.327.232.845.545 1.573.713a4.07 4.07 0 0 0 2.603-.248c.934-.403 1.818-1.268 2.231-2.452.42-1.17.32-2.649-.428-3.87-.705-1.182-2.081-2.075-3.593-2.075-.046 0-.092 0-.139.003-1.566.016-3.103 1.11-3.683 2.698-.609 1.567-.26 3.53.954 4.84 0 0-.156-.126-.406-.415a4.697 4.697 0 0 1-.842-1.447 4.917 4.917 0 0 1-.183-2.662c.224-1.028.86-2.184 2.029-2.913a4.465 4.465 0 0 1 2.361-.666c.642 0 1.301.135 1.922.44.734.332 1.38.893 1.884 1.579.48.701.823 1.537.897 2.429a4.872 4.872 0 0 1-.482 2.655c-.418.826-1.09 1.554-1.94 1.987a4.216 4.216 0 0 1-1.981.488"/>
        <path fill="#2B2C2A" d="M151.879 56.076c-.977 0-1.87-.946-2.05-2.22-.192-1.366.508-2.59 1.563-2.738.07-.01.14-.014.209-.014.804 0 1.552.641 1.891 1.58a1.04 1.04 0 0 0-.327-.05c-.06 0-.122.005-.185.014-.41.056-.715.282-.684.505.027.188.285.313.612.313.06 0 .122-.004.185-.013.226-.032.42-.114.544-.22l.014.092c.192 1.365-.508 2.59-1.564 2.736-.07.01-.139.015-.208.015"/>
        <path fill="#FFFFFE" d="M152.908 53.466c-.327 0-.585-.125-.612-.313-.031-.223.275-.449.684-.505.063-.01.125-.013.185-.013.121 0 .233.017.327.048.16.053.268.146.285.264.014.1-.04.2-.14.286a1.083 1.083 0 0 1-.544.22 1.335 1.335 0 0 1-.185.013"/>
        <path fill="#92938F" d="M146.16 60.941c-1.379 0-2.599-.148-3.471-.455-2.623-.923-3.953-7.273-4.376-9.737l.168-.123v.007c.094.55.236 1.32.432 2.186.392 1.732 1.002 3.86 1.853 5.419.567 1.041 1.242 1.815 1.985 2.072.838.296 2.04.445 3.401.445h.01c1.87 0 4.045-.277 6.025-.803 1.982-.525 3.769-1.305 4.862-2.281.75-.666 1.047-1.772 1.047-3.074 0-1.597-.446-3.46-.952-5.042a34 34 0 0 0-.99-2.687c.066-.001.132-.002.199-.005 1.016 2.453 3.284 8.75.82 10.947-2.263 2.015-7.234 3.131-11.013 3.131"/>
        <path fill="#FFFFFE" d="M174.58 53.596c-.707-5.165-1.97-10.134-3.288-14.363l-.008-.178a36.035 36.035 0 0 1 2.728-.54 8.778 8.778 0 0 1 1.92 2.233c1.942 3.212 2.76 7.114 1.918 10.783.028.128.059.255.089.383-.94.627-2.105 1.199-3.36 1.682"/>
        <path fill="#2B2C2A" d="M171.31 39.296l-.071-.227.06-.014.011.24"/>
        <path fill="#876961" d="M167.205 55.15h-.013c-.303 0-.591-.013-.86-.038-.958-.09-1.823-.742-2.58-1.71-1.133-1.448-1.995-3.573-2.566-5.331a34.522 34.522 0 0 1-.706-2.492c.807-.637 1.271-1.474 2.154-2.284 2.375-2.18 5.414-3.456 8.605-4.23l.053.168c1.319 4.229 2.581 9.198 3.288 14.363-2.466.948-5.274 1.553-7.375 1.553m-1.847-3.277a4.355 4.355 0 0 0 2.51.808c.688 0 1.376-.165 1.98-.488.85-.434 1.523-1.16 1.94-1.987a4.877 4.877 0 0 0 .483-2.655c-.074-.893-.418-1.728-.898-2.43-.503-.685-1.15-1.246-1.883-1.579a4.361 4.361 0 0 0-1.922-.44c-.869 0-1.703.25-2.362.666-1.168.73-1.805 1.886-2.028 2.914a4.917 4.917 0 0 0 .182 2.662c.192.522.433.915.647 1.2a4.688 4.688 0 0 0 1.351 1.33"/>
        <path fill="#FFFFFE" d="M167.602 52.418c-.339 0-.656-.041-.938-.109a4.422 4.422 0 0 1-1.574-.713c-.327-.237-.481-.39-.481-.39.223.248.475.472.75.666a4.606 4.606 0 0 1-1.352-1.328c.069.093.135.174.196.246.25.29.406.416.406.416-1.215-1.312-1.563-3.275-.954-4.842.58-1.588 2.116-2.682 3.683-2.698a4.35 4.35 0 0 1 .138-.003c1.512 0 2.888.893 3.593 2.076.748 1.221.848 2.699.429 3.87-.414 1.184-1.298 2.05-2.231 2.452a4.026 4.026 0 0 1-1.665.357m1.905-6.35c-.07 0-.138.006-.208.015-1.056.147-1.756 1.372-1.564 2.737.18 1.275 1.073 2.22 2.05 2.22.07 0 .139-.004.209-.014 1.055-.146 1.755-1.372 1.563-2.736a2.48 2.48 0 0 0-.014-.092c.1-.086.154-.186.14-.286-.017-.118-.125-.211-.284-.264-.34-.938-1.088-1.58-1.892-1.58"/>
        <path fill="#2B2C2A" d="M167.867 52.68a4.355 4.355 0 0 1-2.509-.808 4.524 4.524 0 0 1-.75-.666s.155.153.482.39c.327.232.845.544 1.574.713a4.066 4.066 0 0 0 2.603-.248c.933-.403 1.817-1.268 2.23-2.453.42-1.17.32-2.648-.428-3.869-.705-1.183-2.08-2.076-3.593-2.076a4.35 4.35 0 0 0-.138.003c-1.567.016-3.104 1.11-3.683 2.698-.609 1.567-.261 3.53.954 4.842 0 0-.156-.127-.406-.416a4.705 4.705 0 0 1-.843-1.447 4.917 4.917 0 0 1-.182-2.662c.223-1.028.86-2.184 2.028-2.914a4.465 4.465 0 0 1 2.362-.665c.64 0 1.3.135 1.922.44.733.332 1.38.893 1.883 1.579.48.7.824 1.536.898 2.429a4.877 4.877 0 0 1-.483 2.655c-.417.826-1.09 1.553-1.94 1.987a4.216 4.216 0 0 1-1.98.488"/>
        <path fill="#2B2C2A" d="M169.785 51.04c-.977 0-1.87-.945-2.05-2.22-.192-1.365.508-2.59 1.564-2.737.07-.01.139-.014.208-.014.804 0 1.552.641 1.892 1.579a1.052 1.052 0 0 0-.327-.049c-.06 0-.123.005-.186.013-.409.057-.715.283-.684.506.027.187.286.313.612.313.06 0 .122-.005.185-.013.226-.032.42-.115.544-.22l.014.092c.192 1.364-.508 2.59-1.563 2.736-.07.01-.14.015-.209.015"/>
        <path fill="#FFFFFE" d="M170.814 48.43c-.326 0-.585-.125-.612-.312-.03-.223.275-.45.684-.506.063-.008.125-.013.186-.013.12 0 .232.018.327.049.159.053.267.146.284.264.014.1-.04.2-.14.286a1.083 1.083 0 0 1-.544.22 1.33 1.33 0 0 1-.185.013"/>
        <path fill="#92938F" d="M167.192 55.335c-.308 0-.602-.013-.878-.039-3.445-.325-5.43-7.284-5.995-9.596.055-.04.109-.08.161-.121.02.08.04.165.064.257.142.568.356 1.355.642 2.235.57 1.758 1.433 3.883 2.567 5.332.756.967 1.62 1.62 2.578 1.709.27.025.558.037.861.037h.013c2.1 0 4.91-.605 7.375-1.553 1.254-.483 2.42-1.055 3.359-1.682.015.065.03.13.043.194-2.84 1.867-7.593 3.227-10.79 3.227m13.76-8.043c.422-3.901-2.142-7.447-3.589-9.106l.08-.007c1.469 1.705 3.97 5.24 3.51 9.113"/>
        <path fill="#0B0B09" d="M137.27 51.56c2.764-2.263 6.147-4.073 9.614-4.972 2.008-.52 3.939-.266 5.838-.01 2.366.317 4.684.634 7.045-.546 1.306-.653 1.755-1.716 2.867-2.737 4.392-4.03 11.054-4.973 16.746-5.356 1.49-.1 1.377-2.392-.114-2.292-5.721.384-11.836 1.34-16.624 4.716-1.117.788-2.15 1.703-3.002 2.77-.207.258-.378.7-.628.912-.323.273-.05.104.154-.065.185-.154.313-.308-.125-.127-2.094.87-3.236.648-5.261.166-2.474-.588-5.196-.252-7.622.39-3.645.965-7.263 2.859-10.173 5.24-1.139.932.132 2.854 1.285 1.91"/>
        <path fill="#DED2CB" d="M177.67 38.158l-.07-.08a80.924 80.924 0 0 1 1.78-.139c.63-.042.974-.477 1.048-.957-.044.513-.39.999-1.058 1.044-.558.037-1.127.081-1.7.132"/>
        <path fill="#6E6864" d="M177.997 52.173l-.015-.065c.986-.648 1.742-1.356 2.123-2.09.474-.914.74-1.83.847-2.726a7.901 7.901 0 0 1-.857 2.812c-.378.728-1.125 1.428-2.098 2.07m-.554-13.995c-.023-.028-.047-.054-.07-.08l.228-.021.068.08-.226.02"/>
        <path fill="#DED2CC" d="M177.939 51.914l-.09-.383c.842-3.669.025-7.57-1.917-10.783a8.778 8.778 0 0 0-1.92-2.234c1.05-.167 2.1-.294 3.133-.394a18.306 18.306 0 0 1 1.634 2.146c1.057 1.63 2.045 3.778 2.044 6.075a7.693 7.693 0 0 1-.883 3.591c-.345.669-1.046 1.343-1.974 1.964l-.027.018"/>
        <path fill="#817B77" d="M177.982 52.108a12.068 12.068 0 0 0-.043-.194l.027-.018c.928-.62 1.629-1.295 1.974-1.964a7.693 7.693 0 0 0 .883-3.59c0-2.298-.987-4.445-2.044-6.076a18.306 18.306 0 0 0-1.634-2.146l.228-.022.07.08-.08.008c1.447 1.66 4.011 5.205 3.59 9.106a7.906 7.906 0 0 1-.848 2.726c-.381.734-1.137 1.442-2.123 2.09"/>
        <path fill="#0B0B09" d="M174.012 38.514a3.835 3.835 0 0 0-.045-.036c-.225-.69-.447-1.379-.663-2.067 1.985-.342 3.99-.546 5.952-.677.032-.003.063-.004.094-.004.758 0 1.13.645 1.078 1.252-.074.48-.418.915-1.048.957-.584.04-1.178.085-1.78.139l-.227.02-.228.022c-1.033.1-2.083.227-3.133.394"/>
        <path fill="#6A473F" d="M117.94 161.99s10.8-8.03 19.384-12.737c8.584-4.708 15.23-11.354 15.23-11.354s1.384-10.523 3.876-13.015c2.493-2.492 6.092-7.476 6.923-8.86.83-1.385 2.77 2.492 1.108 4.984s-5.538 5.261-4.154 7.753c1.385 2.492 9.415 1.662 10.8 1.108 1.384-.554 14.953-5.261 16.614-3.046 1.661 2.215-7.476 4.153-7.476 4.153l-8.862 9.692s-13.845 1.108-14.676 2.77c-.83 1.66-22.152 24.644-26.306 27.136-4.153 2.492-14.192 6.813-15.957 3.96-1.765-2.852 1.004-11.713 3.496-12.544"/>
        <path fill="#525350" d="M167.928 350.551c-2.209 1.39-6.283 3.472-9.75 4.268 3.558-.533 7.301-2.726 9.75-4.268M149.93 241.518c1.053-5.81 4.937-16.648 10.103-23.109-5.582 5.634-8.945 16.72-10.102 23.109M164.835 214.107c.74-.408 1.566-.743 2.305-.835-.79-.069-1.56.231-2.305.835"/>
        <path fill="#633121" d="M199.84 332.308c-.616-1.616-1.78-3.247-3.194-4.263-5.156 3.798-6.438 13.12-8.551 18.905-1.94 5.65-3.022 9.81-3.022 15.697v.016c1.199-.063 2.592-.662 3.776-1.49 4.36-3.112 6.633-8.644 8.573-13.979 1.774-4.768 4.532-9.74 2.419-14.886"/>
        <path fill="#B24F2D" d="M194.511 187.349h.014l.638-.016a543.764 543.764 0 0 0-.194-5.927l-1.712.056v5.934l1.254-.047"/>
        <path fill="#4A4A47" d="M193.257 187.396v.969c0 1.67-2.287 1.67-2.287 0v-.883l-.908.024-1.92.079-.346.015c-.956 5.24.492 13.176.299 18.606-.216 7.108-.216 14.216-.216 21.34 0 13.727-.221 27.952-2.591 41.427-2.301 12.42-5.434 24.595-7.193 37.227a349.535 349.535 0 0 1 4.15 5.398c1.885-8.259 3.895-16.604 5.732-24.957 2.383-10.828 4.428-21.687 5.398-32.498.942-11.743 1.434-55.014 1.15-66.794h-.014l-1.254.047"/>
        <path fill="#422218" d="M188.095 346.95c2.113-5.784 3.395-15.107 8.55-18.905-1.15-.867-2.452-1.324-3.748-1.072l-.015.016c.063.055.123.11.174.165-1.712 2.057-2.751 6.32-3.908 10.016-.34.953-.686 1.923-1.068 2.876a53.798 53.798 0 0 1-1.989 4.768 71.678 71.678 0 0 0-1.51 3.948 34.28 34.28 0 0 0-.832 2.483 43.074 43.074 0 0 0-.929 3.514c0 .079-.013.134-.013.197l-.035.024c-3.991 2.852-8.815 3.562-11.99 3.388-3.997-.118-11.42.41-13.907-3.278l-.215.055c-.596 5.611 1.663 5.745 6.542 6.486 5.925.543 12.418.165 18.863-3.46.07-.032.131-.07.18-.102-.006.118-.02.22-.034.339-.284 3.294 1.088 4.373 2.862 4.255v-.016c0-5.886 1.081-10.047 3.022-15.697"/>
        <path fill="#633121" d="M190.97 188.365c0 1.67 2.287 1.67 2.287 0v-.97-5.933-.883c0-1.67-2.287-1.67-2.287 0V188.365"/>
        <path fill="#B24F2D" d="M187.796 187.6l.347-.015 1.92-.08.907-.023v-5.926l-2.993.11-6.036.229v5.926l5.855-.22"/>
        <path fill="#6A6A67" d="M169.273 215.095c.055.166.09.307.124.473 4.768 18.716 5.163 39.883 3.597 58.803-.575 7.274-1.455 14.626-2.543 21.955 2.003 2.703 4.088 5.351 6.195 8.015.485.614.956 1.237 1.449 1.859 1.76-12.632 4.892-24.807 7.193-37.227 2.37-13.475 2.591-27.7 2.591-41.426 0-7.125 0-14.233.216-21.341.193-5.43-1.255-13.365-.299-18.606l-5.855.221v1.017c0 1.67-2.294 1.67-2.294 0v-.93l-5.191.189-4.407.165v1.308c0 1.679-2.287 1.679-2.287 0v-1.221l-4.934.19.048 1.717 4.685-.173.337 23.194c.734.125 1.277.642 1.375 1.818"/>
        <path fill="#723522" d="M170.783 358.368c3.174.174 7.998-.536 11.99-3.388l.034-.024c0-.063.013-.118.013-.197.257-1.174.569-2.348.93-3.514.249-.836.518-1.671.83-2.483a71.678 71.678 0 0 1 1.511-3.948c.742-1.56 1.4-3.144 1.99-4.768.38-.953.727-1.923 1.067-2.876.554-3.688 1.808-7.864 3.513-9.914a1.69 1.69 0 0 1 .22-.267c-.382-.326-.941-.624-1.197-1.01a17.04 17.04 0 0 0-1.268 1.199c-2.356 2.395-3.895 5.17-4.948 8.164a32.425 32.425 0 0 0-1.06 3.89c.423.285.772.55 1.122.948.59.674-.326 1.715-.914 1.04a3.915 3.915 0 0 0-.502-.465c-.08.467-.156.937-.225 1.41.353.14.655.296 1.087.466.78.311.443 1.73-.347 1.419-.296-.117-.619-.266-.935-.4-.052.44-.103.88-.148 1.324l.05.025c.23.042.459.083.687.146.807.233.464 1.651-.347 1.419a5.933 5.933 0 0 0-.527-.117 175.302 175.302 0 0 0-.235 3.103c-.035.402-.056.796-.083 1.198a16.892 16.892 0 0 0-1.13-.725l-.11-.055c-.34-.205-.687-.386-1.033-.552.18.316.263.718.277 1.104.014.417-.062.835-.222 1.118-.09.166-.304.134-.346-.055-.056-.205-.09-.41-.139-.63-.083-.284-.159-.544-.284-.78-.166-.331-.409-.591-.444-.97-.013-.126.014-.236.098-.283a13.143 13.143 0 0 0-1.13-.473c.153.63.153 1.205-.146 1.812h-.076c-.256-.496-.36-1.071-.61-1.568-.11-.22-.284-.45-.402-.685a31.66 31.66 0 0 0-.887-.26 26.9 26.9 0 0 1-.921-.166c.443 1.064.554 2.372.54 3.389 0 .149-.18.18-.208.047-.166-.757-.464-1.939-.887-2.522-.34-.457-.755-.812-1.088-1.237-.415-.07-.845-.134-1.282-.19-.041.182-.076.324-.11.497l.034-.007c-.131.196-.381.449-.728.764-.2.204-.45.418-.727.654-.832.434-1.823 1.229-3.202 1.576-2.449 1.542-6.192 3.735-9.75 4.268-.521.12-1.027.21-1.513.265l-.005.061.215-.055c2.488 3.688 9.91 3.16 13.908 3.278"/>
        <path fill="#723522" d="M189.148 337.17c1.157-3.696 2.196-7.96 3.908-10.016a2.026 2.026 0 0 0-.174-.165 1.69 1.69 0 0 0-.22.267c-1.706 2.05-2.96 6.226-3.514 9.914"/>
        <path fill="#633121" d="M179.647 188.838c0 1.67 2.294 1.67 2.294 0v-1.017-5.926-.859a1.152 1.152 0 0 0-2.294 0V188.837"/>
        <path fill="#9A6044" d="M179.91 348.833a.17.17 0 0 0-.152.087c-.084.047-.111.157-.098.283.035.379.278.639.444.97.125.236.2.496.284.78.049.22.083.425.139.63.042.19.256.22.346.055.16-.283.236-.7.222-1.118-.014-.386-.097-.788-.277-1.104v-.007c-.201-.355-.5-.607-.908-.576"/>
        <path fill="#B24F2D" d="M174.456 188.097l5.19-.19v-5.933l-5.356.197-4.241.166v5.925l4.407-.165"/>
        <path fill="#9A6044" d="M178.586 348.305c-.152-.56-.61-1.253-1.178-1.111-.104.032-.152.134-.166.26-.014.205.056.378.152.552.118.236.291.465.402.685.25.497.354 1.072.61 1.568h.076c.299-.607.299-1.182.146-1.812h-.014a.527.527 0 0 0-.028-.142"/>
        <path fill="#575754" d="M174.394 326.752c.194.19.402.378.596.56.88.835 1.76 1.639 2.668 2.396a53.83 53.83 0 0 0 4.774 3.696c.36.259.721.496 1.102.732.07-.796.153-1.616.23-2.459 1.364-1.718 2.605-3.514 2.605-5.563 0-.41-.714-1.568-1.775-3.042-1.039-1.474-2.432-3.254-3.797-4.87-1.303-1.56-2.571-2.986-3.493-3.853-.381-.363-.79-.726-1.178-1.104-2.446-2.3-4.871-4.767-7.173-7.423-5.647-6.422-10.637-13.822-13.845-22.136a105.744 105.744 0 0 1-4.172-14.413c-1.913-9.078-2.543-18.575-1.005-27.755 1.157-6.388 4.52-17.475 10.102-23.109 1.504-1.88 3.115-3.393 4.797-4.3l.005-.002c.746-.604 1.515-.904 2.305-.835.267-.033.522-.035.758.005l-.337-23.194-.082-1.53-4.651-.015-2.967.118v1.474c0 1.678-2.286 1.678-2.286 0v-1.395l-1.837.071-4.06.15-4.027.142-.25.015v1.017c0 .883-.63 1.292-1.226 1.26-1.497 8.157-3.063 22.578-4.29 35.447.007.56.021 1.119.063 1.678 1.296 15.446 0 31.395 2.806 46.59a306.663 306.663 0 0 0 1.872 9.4 155.11 155.11 0 0 0 2.924 6.304c4.622 9.418 10.457 19.142 17.138 27.424 2.453 3.058 5.03 5.942 7.706 8.52"/>
        <path fill="#9A6044" d="M174.54 346.099c-.445-.323-.86.118-.86.583 0 .165.055.323.16.457.027.047.062.078.103.118.333.425.749.78 1.088 1.237.423.583.72 1.765.887 2.522.028.134.208.102.208-.047.014-1.017-.097-2.325-.54-3.389-.236-.615-.568-1.143-1.047-1.481"/>
        <path fill="#4A4A47" d="M156.875 354.76c-.014.078-.028.133-.035.18.256 0 .513-.015.776-.047.187-.018.374-.045.562-.074 3.467-.796 7.541-2.877 9.75-4.268 1.379-.347 2.37-1.142 3.202-1.576.277-.236.526-.45.727-.654.347-.315.597-.568.728-.764l-.034.007c.034-.173.069-.315.11-.496.437.055.867.118 1.282.19-.041-.04-.076-.072-.104-.119a.742.742 0 0 1-.159-.457h-.007c.603-4.8 2.273-10.915 3.985-16.974a55.75 55.75 0 0 1-2.668-2.396c-.194-.182-.402-.37-.596-.56-2.675-2.577-5.253-5.461-7.706-8.519-.402 2.073-.818 4.13-1.248 6.179 1.843 2.68 5.385 5.603 8.178 6.942-1.975 8.787-7.166 20.143-14.436 19.087-.478 1.52-2.106 3.223-2.681 4.665.053-.005.11-.016.164-.022.007-.075.016-.151.016-.239.07-.023.131-.039.194-.086"/>
        <path fill="#4A4A47" d="M157.616 354.94c-.263.042-.52.063-.776.063.007-.063.021-.138.035-.244-.063.064-.125.085-.194.116 0 .118-.009.221-.016.322.486-.074.992-.195 1.513-.357a8.594 8.594 0 0 1-.562.1"/>
        <path fill="#633121" d="M167.762 189.57c0 1.679 2.287 1.679 2.287 0v-1.308-5.925-.552c0-1.68-2.287-1.68-2.287 0v7.785"/>
        <path fill="#6A6A67" d="M173.618 331.354c-2.793-1.34-6.335-4.263-8.178-6.942a569.535 569.535 0 0 1-1.989 9.37c-1.233 5.602-2.55 11.324-4.269 16.659 7.27 1.056 12.46-10.3 14.436-19.087"/>
        <path fill="#B24F2D" d="M162.828 188.538l4.934-.189v-5.942l-5.1.19-2.8.101v5.958l2.966-.118"/>
        <path fill="#633121" d="M157.575 190.13c0 1.678 2.286 1.678 2.286 0v-1.474-5.958-.354c0-1.678-2.286-1.678-2.286 0V190.13"/>
        <path fill="#B24F2D" d="M147.65 189.098l4.027-.142 4.061-.15 1.837-.07v-5.95l-2.017.07-5.488.229-2.585.087h-.084v5.941l.25-.015"/>
        <path fill="#633121" d="M145.115 190.13c0 .646.34 1.04.748 1.206.111.023.215.04.312.055.596.031 1.226-.378 1.226-1.26v-1.018-5.941-.828c0-1.678-2.286-1.678-2.286 0v7.786"/>
        <path fill="#4A4A47" d="M141.948 228.515a27.28 27.28 0 0 1-.063-1.678c1.227-12.869 2.793-27.29 4.29-35.446-.097-.016-.2-.032-.312-.055-.409-.166-.748-.56-.748-1.206v-.93l-4.643.166h-.16c-.242 2.592-.485 5.177-.735 7.77l.368.039c-1.005 10.402-.582 22.301-.582 32.325 0 6.998-.132 14.997.256 22.964.478 9.614 1.732 19.22 4.913 27.061a141.974 141.974 0 0 0 2.094 4.98 306.663 306.663 0 0 1-1.872-9.4c-2.806-15.195-1.51-31.144-2.806-46.59"/>
        <path fill="#B24F2D" d="M145.115 189.2v-5.934l-3.645.142a522.035 522.035 0 0 1-1.158 5.958h.16l4.643-.166"/>
        <path fill="#4A4A47" d="M176.646 304.34c-2.107-2.663-4.192-5.31-6.195-8.014-6.93-9.315-12.966-19.236-15.565-32.617-1.622-9.937 0-20.229 2.91-29.796 1.518-4.483 4.165-16.083 8.76-18.416h.014a7.706 7.706 0 0 1 2.827.07 3.968 3.968 0 0 0-.124-.472c-.056-.236-.118-.465-.18-.701-.132-.134-.27-.237-.403-.34l.077-.133a4.272 4.272 0 0 0-.867-.473 2.73 2.73 0 0 0-.76-.176c-.739.092-1.564.427-2.305.835-.575.466-1.136 1.11-1.682 1.902-1.108.597-2.147 1.418-3.12 2.4-5.166 6.46-9.05 17.298-10.102 23.109-1.538 9.18-.908 18.677 1.005 27.755a105.744 105.744 0 0 0 4.172 14.413c3.208 8.314 8.198 15.714 13.845 22.136 2.302 2.656 4.727 5.122 7.173 7.423.388.378.797.74 1.178 1.104.922.867 2.19 2.293 3.493 3.853 1.365 1.616 2.758 3.396 3.797 4.87 1.06 1.474 1.775 2.632 1.775 3.042 0 2.049-1.24 3.845-2.606 5.563-.076.843-.16 1.663-.229 2.459.63.426 1.29.828 1.934 1.206 1.053-2.995 2.592-5.769 4.948-8.164.395-.41.81-.812 1.268-1.198a18.16 18.16 0 0 1-.887-1.41c-.659-1.112-1.248-2.31-1.948-3.484a119.098 119.098 0 0 0-3.561-5.327 173.09 173.09 0 0 0-3.043-4.161 349.535 349.535 0 0 0-4.15-5.398c-.493-.622-.964-1.245-1.449-1.86"/>
        <path fill="#4A4A47" d="M168.767 213.92l-.077.135c.132.102.27.205.402.339.063.236.125.465.18.701-.097-1.176-.64-1.693-1.374-1.818l.002.171c.284.11.569.268.867.473M164.835 214.107l-.005.002c-1.682.907-3.293 2.42-4.797 4.3.973-.982 2.012-1.803 3.12-2.4.546-.791 1.107-1.436 1.682-1.902M167.898 213.287a1.965 1.965 0 0 0-.758-.007c.251.03.505.104.76.238l-.002-.23"/>
        <path fill="#9A6244" d="M182.897 345.153l-.014.02c-.295.37-.229 1.134.284 1.229l.242.045c.178.033.354.068.527.117.811.232 1.154-1.186.347-1.42-.228-.062-.456-.103-.686-.145l-.05-.025c-.207-.1-.451-.073-.65.179M183.126 343.435c.181.057.374.134.568.216.316.133.639.282.935.399.79.31 1.126-1.108.347-1.419-.432-.17-.734-.326-1.087-.466a5.71 5.71 0 0 0-.417-.148c-.808-.252-1.147 1.166-.346 1.418M183.721 340.476c.138.082.267.179.393.279.177.14.346.291.502.465.588.675 1.503-.366.914-1.04-.35-.398-.699-.663-1.123-.949l-.034-.024c-.717-.485-1.369.784-.652 1.269"/>
    </g>
</svg>
