<svg xmlns="http://www.w3.org/2000/svg" xmlns:xlink="http://www.w3.org/1999/xlink" width="146" height="157" viewBox="0 0 146 157">
    <defs>
        <path id="a" d="M.258.082h60.054v47.022H.258z"/>
        <path id="c" d="M.023.272h2.58v11.263H.023z"/>
    </defs>
    <g fill="none" fill-rule="evenodd">
        <g transform="translate(45.25 109.099)">
            <mask id="b" fill="#fff">
                <use xlink:href="#a"/>
            </mask>
            <path fill="#A885D8" d="M15.931 16.328l-6.265 4.457c-1.396.992-2.907 2.164-3.173 3.856-.266 1.692 1.758 3.563 3.107 2.51-2.633 2.874-5.954 5.182-7.947 8.533-1.993 3.35-2.066 8.383 1.206 10.503 2.917 1.89 6.815.546 9.807-1.222 2.993-1.768 6.052-4.01 9.523-3.812-1.822 1.05-1.265 4.16.595 5.14 1.86.98 4.194.323 5.951-.832 3.569-2.346 5.602-6.405 8.71-9.33.945-.89 2.636-1.6 3.365-.527.42.619.192 1.478.468 2.173.612 1.541 2.897 1.18 4.374.428 6.017-3.062 11.003-8.11 13.991-14.163.389-.787.753-1.64.652-2.512-.186-1.609-1.947-2.652-3.566-2.626-1.62.027-3.109.835-4.525 1.622 1.136-2.408 2.278-5.233 1.11-7.626-1.215-2.492-5.007-3.201-7.042-1.318-.096-2.066 1.447-3.782 2.486-5.57 1.038-1.789 1.383-4.516-.405-5.554-.804-.466-1.799-.417-2.717-.286-9.02 1.291-15.704 8.76-21.542 15.755" mask="url(#b)"/>
        </g>
        <path fill="#000" d="M105.287 52.032a10.754 10.754 0 0 1 3.139 3.08c.916 1.376 3.151.086 2.227-1.301a13.853 13.853 0 0 0-4.064-4.007c-1.4-.9-2.695 1.331-1.302 2.228"/>
        <path fill="#5A5B5B" d="M59.882 134.875s-6.224 4.285-5.959 6.679c.251 2.264 6.305-2.46 7.521-5.217.07-.159.124-.31.16-.454.662-2.647-1.722-1.008-1.722-1.008M85.564 131.696s5.305 3.395 5.438 5.746c.114 2.025-7.03-1.698-7.56-5.094-.53-3.395 2.122-.652 2.122-.652"/>
        <path fill="#010101" d="M70.664 108.205s-11.657 12.897-11.657 26.786c0 0 1.736 1.488 3.596-.992s11.285-19.097 16.618-19.718c5.332-.62 2.852 15.75 4.34 17.114 1.488 1.363 2.48-.124 3.348-1.86.868-1.737 5.457-19.966.745-25.546l-16.99 4.216z"/>
        <path fill="#010101" d="M59.875 133.75s-5.828 4.217-5.58 6.573c.234 2.229 5.904-2.42 7.043-5.134.065-.155.116-.305.15-.446.62-2.605-1.613-.992-1.613-.992M85.545 130.775s4.96 3.224 5.084 5.456c.107 1.922-6.572-1.612-7.068-4.836-.496-3.225 1.984-.62 1.984-.62"/>
        <path fill="#D7D7D6" d="M57.04 82.473c-2.883.72-9.673 2.733-13.038 6.386-4.34 4.713-27.406 16.618-24.43 23.438 3.173 7.272 7.8 8.27 28.646-7.564 3.272-2.485 6.6-2.888 9.178-3.46.701-.156 1.591.015 2.577.395-.861-6.415-1.91-12.803-2.932-19.195M114.191 74.226c-5.952-2.232-27.654-1.612-31.622-.62-3.968.992-24.182 8.557-24.182 8.557s-.128.026-.352.075c1.06 6.631 2.15 13.259 3.034 19.915 4.491 2.229 10.215 7.664 10.215 7.664s12.029 3.844 16.741-5.58c0 0-1.612-12.774 2.729-14.881 5.237-2.545 20.556-1.85 24.277-3.09 3.72-1.24 5.113-9.807-.84-12.04"/>
        <path fill="#FFF" d="M71.036 94.068l-3.472 4.96-10.789-12.897 23.81-10.045L81.7 92.208l-6.696-.744z"/>
        <path fill="#5A5B5B" d="M69.816 109.672c3.318 2.48 7.56 2.325 11.36 1.17 3.764-1.142 5.812-3.326 7.243-6.946.389-.984-1.2-1.41-1.583-.437-.547 1.383-1.21 2.803-2.296 3.851-1.194 1.152-2.802 1.683-4.368 2.116-3.269.904-6.713.932-9.527-1.172-.847-.633-1.666.791-.829 1.418M69.57 110.794l-.382.255c-.22.146-.014.501.207.354l.382-.255c.22-.146.014-.501-.207-.354M68.105 112.915l-.375.516c-.155.214.201.419.355.207l.374-.515c.156-.214-.2-.42-.354-.208M66.692 114.947l-.51.766c-.148.22.208.426.354.207l.51-.766c.147-.22-.208-.426-.354-.207M65.311 116.951c-.293.307-.463.708-.756 1.014-.182.191.108.482.29.29.294-.306.464-.708.756-1.013.183-.191-.107-.482-.29-.29M63.214 120.338a.506.506 0 0 1-.186.563c-.207.164.085.452.29.29a.902.902 0 0 0 .292-.962c-.076-.252-.472-.145-.396.109M62.453 122.454l-.468.914c-.12.235.235.443.355.207l.467-.914c.12-.235-.234-.443-.354-.207M61.452 124.69l-.258.636c-.1.245.298.352.396.11l.258-.637c.1-.245-.298-.35-.396-.11M60.664 126.968a.538.538 0 0 1-.064.494c-.147.221.209.427.354.207a.934.934 0 0 0 .106-.81c-.084-.25-.48-.142-.396.11M60.296 128.894l-.128.637c-.051.258.344.369.396.11l.128-.638c.051-.258-.344-.368-.396-.109M59.79 131.229a.582.582 0 0 1 .009.475c-.093.248.303.355.395.11a.985.985 0 0 0-.05-.793c-.115-.237-.47-.03-.354.208M58.594 133.66c.335.843.812 1.295 1.752 1.338.945.042 2.18-.197 2.803-.964.33-.407-.247-.991-.58-.581-.383.471-1.028.622-1.61.692-.696.084-1.272.055-1.574-.704-.193-.485-.987-.274-.791.218M82.723 129.81c.307.836 1.038 1.297 1.914 1.358.842.058 1.91-.126 2.378-.9.274-.453-.436-.866-.71-.414-.514.85-2.458.644-2.79-.261-.182-.492-.976-.28-.792.218M81.63 114.754c.064-.003.112.011.148.067.143.222.498.016.354-.207a.56.56 0 0 0-.502-.27c-.263.01-.264.42 0 .41M82.512 115.644l.246.493c.118.237.473.029.355-.207l-.246-.493c-.118-.236-.473-.028-.355.207M83.076 117.233l.141.499c.072.254.468.146.396-.11a222.03 222.03 0 0 1-.142-.498c-.072-.254-.468-.146-.395.109M83.469 119.208l.17.573c.075.253.472.145.396-.109l-.17-.573c-.075-.252-.471-.145-.396.11M83.653 121.009c.078.226.099.447.068.685-.014.11.104.204.206.205.122.001.19-.096.205-.205a1.75 1.75 0 0 0-.083-.794c-.086-.249-.483-.142-.396.109M83.816 123.226c.077.226.098.448.071.685-.03.262.38.26.41 0 .032-.27.002-.538-.085-.794-.084-.25-.48-.143-.396.109M83.821 125.226l-.078.985c-.021.264.39.262.41 0l.079-.985c.02-.264-.39-.262-.41 0M83.642 127.934v.575c0 .264.41.264.41 0v-.575c0-.264-.41-.265-.41 0"/>
        <path fill="#5A5B5B" d="M83.56 129.494v.328c0 .265.41.265.41 0v-.328c0-.264-.41-.265-.41 0"/>
        <path fill="#D7D7D6" d="M77.523 109.848c.183.622.339 1.251.466 1.885a11.222 11.222 0 0 0 3.21-.56c.087-.749.155-1.505.276-2.25-.02-.007-.042-.01-.063-.015-1.17.572-2.548.878-3.89.94"/>
        <path fill="#54BB87" d="M85.173 73.11s3.472 10.417 3.845 16.617c.371 6.201-.62 12.774-.62 12.774l-3.473 4.216-1.736-4.34-4.216-28.15 6.2-1.117zM57.147 82.039l14.137 23.934-.992 2.604-4.216-2.356-9.177-5.209-4.588-17.857z"/>
        <path fill="#63362F" d="M76.752 62.843c-.585-1.595.677-3.48 2.426-4.092.422-.147.89-.235 1.313-.114.556.16.914.637 1.192 1.103 1.627 2.719 1.95 5.956 1.955 9.096.001 1.218-.078 2.537-.917 3.505-.308.355-.768.661-1.251.611-.29-.03-.543-.183-.775-.34a10.466 10.466 0 0 1-2.498-2.361M49.995 76.155c-.894-1.066-2.098-1.908-3.46-2.42-.281-.106-.587-.2-.889-.14-.261.05-.486.21-.673.388-.744.711-1.01 1.755-.91 2.719.102.963.53 1.862 1.016 2.711 1.421 2.486 3.385 4.7 5.745 6.476.512.386 1.065.76 1.718.887.653.128 1.433-.056 1.799-.583.395-.57.196-1.3-.016-1.93"/>
        <path fill="#030303" d="M79.719 65.903c-2.614-6.666-11.712-29.503-13.09-31.01-2.38-2.602-7.556-5.976-20.247.657-12.855 6.72-14.027 14.972-13.138 17.735.364 1.134 12.869 22.591 17.164 27.914a173.17 173.17 0 0 1 22.546-9.723"/>
        <path fill="#725148" d="M77.387 92.963c-.88 1.689-3.308 2.99-5.296 2.731-8.353-1.083-20.174-12.464-20.708-13.552-1.736-3.537-6.613-17.158-6.197-19.996.415-2.838 19.233-12.86 23.785-10.955 0 0 10.428 13.819 11.294 16.73 1.167 3.927.293 18.948-2.878 25.042"/>
        <path fill="#848484" d="M62.479 62.498c.21.63 2.522 7.38 5.721 7.333 3.368-.047 9.056-3.563 10.518-6 1.285-2.142-2.59-7.623-3.067-8.285-9.985.989-12.906 6.412-13.172 6.952m5.717 7.606c-3.558.051-5.92-7.258-6.018-7.57l-.015-.044.02-.045c.027-.063.699-1.564 2.71-3.211 1.848-1.514 5.227-3.431 10.823-3.968l.086-.009.049.065c.187.253 4.577 6.218 3.127 8.635-1.363 2.27-6.309 5.455-9.791 6.05a6.514 6.514 0 0 1-.991.097"/>
        <path fill="#848484" d="M62.656 62.51c.26.764 2.528 7.157 5.512 7.157h.03c3.324-.047 8.936-3.515 10.38-5.921.99-1.651-1.397-5.784-3.006-8.027-9.52.973-12.488 5.967-12.916 6.791m5.503 7.758c-3.657 0-6.038-7.369-6.138-7.684l-.033-.104.045-.101c.027-.063.7-1.588 2.757-3.272 1.866-1.528 5.273-3.464 10.91-4.005l.179-.017.104.14c.19.256 4.643 6.305 3.136 8.816-1.442 2.402-6.533 5.552-9.905 6.128-.36.061-.702.095-1.016.1h-.04M44.602 68.324c-.058.69-.475 7.326 4.804 9.103 2.587.872 9.065-1.752 11.502-4.187 2.19-2.189-1.502-8.332-1.869-8.928-.648-.154-7.017-1.476-14.437 4.012m4.694 9.36c-5.751-1.936-4.993-9.362-4.985-9.437l.007-.058.05-.037c7.938-5.9 14.75-4.107 14.819-4.088l.054.015.028.045c.177.278 4.298 6.857 1.855 9.297-1.837 1.836-5.938 3.77-9.04 4.3-1.105.19-2.085.2-2.788-.037"/>
        <path fill="#848484" d="M44.76 68.412c-.074 1.012-.308 7.174 4.698 8.86 2.17.73 8.512-1.33 11.334-4.148 2.047-2.044-1.436-7.97-1.857-8.667-.953-.212-7.048-1.285-14.175 3.955m5.825 9.615c-.52 0-.969-.062-1.341-.188-5.877-1.978-5.104-9.534-5.096-9.61l.015-.129.107-.08c8.01-5.954 14.893-4.133 14.96-4.114l.116.031.062.099c.18.283 4.368 6.969 1.833 9.501-1.856 1.854-5.951 3.804-9.129 4.346a9.146 9.146 0 0 1-1.527.144"/>
        <path fill="#FFF" d="M75.727 55.402s4.543 6.122 3.121 8.491c-1.422 2.37-7.162 6.024-10.65 6.075-3.489.05-5.877-7.475-5.877-7.475s2.65-6.058 13.406-7.091M44.46 68.257s-.823 7.375 4.89 9.298c2.707.912 9.271-1.832 11.666-4.224 2.395-2.393-1.876-9.136-1.876-9.136s-6.714-1.86-14.68 4.062" opacity=".3"/>
        <path fill="#030303" d="M77.287 55.954c-3.01.159-6.16.9-8.853 2.208-3.504 1.7-4.575 5.424-8.454 6.444-1.19.312-2.068-.06-3.341-.058-5.027.004-9.766 2.962-13.577 5.731-.998.726-2.207-.642-1.208-1.368 3.83-2.783 8.229-5.447 13.142-6.032 1.146-.137 2.31-.157 3.444.005.276.039.63.201.907.19.682-.025-.917.171-.126-.093 1.81-.603 2.407-1.33 3.419-2.667 1.235-1.634 3.143-2.87 5.035-3.777 2.843-1.363 6.188-2.18 9.358-2.348 1.24-.066 1.51 1.698.254 1.765"/>
        <path fill="#63362F" d="M69.859 74.888c-.962 1.479-2.57 2.447-4.336 2.553-1.221.074-1.559-1.82-.324-1.894 1.308-.08 2.373-.666 3.091-1.77.676-1.039 2.243.075 1.569 1.111"/>
        <path fill="#030303" d="M47.325 56.475c-2.438.416-3.09-3.372-.647-3.79 2.438-.416 3.089 3.373.647 3.79"/>
        <path fill="#232322" d="M71.6 52.018a.653.653 0 0 0-.102-.338c-.335-.512.398-1.134.736-.618.22.336.317.651.322 1.052.006.617-.95.518-.957-.096M70.28 49.25a1.442 1.442 0 0 0-.366-.735c-.414-.462.324-1.078.736-.617.305.342.494.74.578 1.19.112.609-.835.77-.947.162M68.53 45.507a5.704 5.704 0 0 1-.582-1.377c-.17-.593.778-.75.947-.162.116.4.293.775.506 1.131.317.532-.556.935-.87.408M66.635 41.47l-.623-.74c-.399-.475.338-1.092.736-.618l.623.74c.399.475-.338 1.092-.736.619M64.482 37.98l-.768-.8c-.429-.448.31-1.063.737-.619l.768.802c.429.448-.31 1.062-.737.618M60.054 35.479a745.91 745.91 0 0 1-.774-.293c-.578-.219-.242-1.119.338-.9l.774.293c.578.219.242 1.12-.338.9M57.242 34.515l.336.155c.558.258.225 1.16-.338.9l-.336-.155c-.557-.259-.225-1.16.338-.9M61.06 37.87c.32.222.595.488.823.805.358.5-.376 1.12-.737.617a2.575 2.575 0 0 0-.642-.639c-.508-.354.047-1.138.556-.784M64.753 42.03l.454.895c.28.552-.591.958-.87.407l-.454-.895c-.28-.553.59-.959.87-.408M66.363 46.172c.026.38.102.729.255 1.078.247.567-.623.976-.87.408a3.968 3.968 0 0 1-.332-1.324c-.042-.612.905-.78.947-.162M65.839 50.768l-.286.153c-.546.293-.951-.58-.408-.87l.286-.154c.547-.293.951.58.408.87M63.228 49.81a1.68 1.68 0 0 0-.193-.959c-.282-.552.59-.958.87-.407.235.46.324.948.28 1.462-.053.616-1.01.522-.957-.096M61.366 45.774c-.079-.3-.259-.534-.507-.715-.501-.363.054-1.148.555-.784.466.339.753.784.9 1.338.158.597-.79.755-.948.161M58.445 42.24l-1.427-1.63c-.408-.466.33-1.083.737-.617l1.426 1.628c.408.467-.33 1.083-.736.618M54.682 38l-.254-.27c-.427-.45.313-1.065.736-.617l.254.27c.426.45-.313 1.064-.736.617M50.964 36.51l-.46-.226c-.55-.27-.219-1.173.338-.9l.46.227c.55.27.219 1.172-.338.9M49.487 36.127l.238.167c.505.359-.05 1.143-.556.785l-.237-.168c-.505-.358.05-1.143.555-.784M51.955 38.498l.682.924c.366.496-.369 1.116-.737.618l-.68-.924c-.367-.496.368-1.116.735-.618M55.727 43.172c.157.252.364.45.606.62.506.356-.05 1.14-.556.783a3.328 3.328 0 0 1-.92-.995c-.327-.524.547-.926.87-.408M59.23 47.702c.024.35.095.657.242.976.26.563-.611.97-.87.408a3.448 3.448 0 0 1-.319-1.222c-.04-.61.906-.78.947-.162M60.451 51.797l-.115.54c-.127.598-1.086.51-.956-.095l.115-.54c.127-.599 1.085-.51.956.095M57.37 53.713c-.61.104-.772-.843-.162-.947.61-.104.772.843.162.947M55.306 50.559a1.39 1.39 0 0 0-.537-.919c-.49-.376.064-1.161.555-.784.505.388.828.91.93 1.54.098.611-.849.774-.948.163M52.1 46.42a.862.862 0 0 0-.386-.63c-.507-.355.049-1.14.556-.784.428.3.7.735.777 1.253.091.61-.856.775-.947.162M49.413 42.818a1.538 1.538 0 0 0-.379-.616c-.424-.453.315-1.067.736-.618.293.312.469.664.59 1.072.175.591-.774.748-.947.162M47.402 39.622a1.068 1.068 0 0 0-.228-.441c-.392-.48.344-1.097.736-.618.222.27.357.558.44.897.146.6-.802.76-.948.162M45.674 38.132l-.264.259c-.442.434-1.056-.306-.618-.736l.264-.26c.442-.434 1.057.306.618.737M44.885 39.947l.035.203c.104.61-.843.772-.947.162a43.496 43.496 0 0 0-.035-.203c-.104-.61.843-.772.947-.162M46.035 42.247c.109.365.274.718.484 1.035.338.511-.395 1.133-.736.618a5.454 5.454 0 0 1-.695-1.49c-.176-.592.773-.749.947-.163M48.563 47.003l.716 1.237c.31.536-.563.939-.87.408l-.717-1.237c-.31-.537.563-.94.87-.408M51.166 51.162c.079.336.215.648.415.932.353.503-.38 1.124-.737.617a3.921 3.921 0 0 1-.626-1.387c-.14-.603.807-.762.948-.162M52.483 54.453l.26.264c.434.442-.306 1.056-.737.617l-.26-.264c-.433-.442.307-1.056.737-.617M51.68 56.976l-.607.103c-.61.104-.773-.843-.162-.947l.607-.104c.61-.104.772.844.162.948M48.121 56.302c-.144-.17-.3-.282-.51-.363-.575-.224-.24-1.124.34-.9.358.139.658.352.907.645.4.473-.337 1.09-.737.618M45.92 54.387c-.305-.364-.61-.728-.917-1.091-.398-.475.338-1.092.737-.618.305.364.61.728.917 1.091.399.475-.338 1.092-.737.618M43.24 50.016a1.602 1.602 0 0 0-.35-.637c-.403-.472.335-1.088.737-.618.277.325.45.682.56 1.093.16.597-.788.755-.947.162M41.364 45.052a1.762 1.762 0 0 1-.258-.814c-.04-.611.906-.78.947-.162.015.22.067.381.181.568.322.528-.551.93-.87.408M40.69 40.21l.067-.22c.18-.592 1.078-.252.9.339l-.068.22c-.18.591-1.078.252-.9-.34M39.776 42.308l-.034 1.046c-.02.618-.977.521-.956-.096.01-.348.022-.697.034-1.045.02-.618.977-.522.956.095M39.465 48.181l.018 1.248c.009.617-.948.518-.956-.095l-.018-1.249c-.01-.616.948-.517.956.096M40.962 52.6c.026.444.209.778.586 1.018.524.332-.034 1.115-.555.784a2.098 2.098 0 0 1-.978-1.64c-.036-.61.911-.779.947-.161M44.431 57.492c.217.377.551.632.956.78.581.211.244 1.111-.338.9-.649-.236-1.145-.678-1.488-1.272-.31-.537.563-.94.87-.408M46.83 59.678c-.609.104-.771-.843-.161-.947.61-.104.772.843.162.947M42.339 61.668l-.691-.406c-.534-.314.025-1.096.555-.785l.691.407c.534.314-.025 1.096-.555.784M39.496 58.586l-1.16-1.539c-.372-.493.363-1.112.736-.617l1.16 1.538c.372.493-.363 1.112-.736.618M36.543 54.194l-.422-1.266c-.193-.58.675-.994.87-.408l.422 1.266c.193.58-.675.994-.87.408M35.515 50.273l-.026-.725c-.01-.262.293-.451.526-.43.287.025.421.267.43.525l.026.725c.01.262-.293.451-.526.43-.287-.025-.421-.267-.43-.525M36.071 46.1l.182-.76c.06-.255.397-.361.619-.28.269.097.34.367.28.618l-.181.76c-.061.255-.397.362-.62.28-.268-.097-.34-.367-.28-.618M37.1 44.16c-.61.104-.772-.843-.162-.948.61-.104.772.843.162.948M34.285 48.133l-.158 1.486c-.066.614-1.022.521-.957-.096l.158-1.486c.066-.614 1.022-.52.957.096M34.896 53.42c.082.58.239 1.127.481 1.662.256.563-.614.97-.87.407a6.95 6.95 0 0 1-.558-1.907c-.086-.612.86-.776.947-.162M38.686 60.34l.517.868c.317.532-.556.935-.87.408l-.517-.867c-.317-.532.557-.935.87-.408M41.546 63.819l.285.474c.319.53-.555.933-.87.407l-.285-.473c-.318-.531.555-.934.87-.408M43.717 66.1c-.008-.047.02-.037.085.029.543.294-.018 1.076-.556.784-.348-.189-.478-.53-.486-.908-.012-.616.945-.517.957.096"/>
        <path fill="#63362F" d="M66.993 69.836c-1.128-1.037-2.28-2.047-3.387-3.106-.653-.623-1.306-1.454-2.089-1.952-.489.501-.68 1.288-.106 1.985l2.939 3.573c.93 1.13 2.386 2.423 2.8 3.843.543 1.855 3.772 1.27 3.225-.602-.15-.514-.587-.89-.822-1.334-.845-.81-1.697-1.614-2.56-2.407"/>
        <path fill="#000" d="M86.219 108.232l-.498-1.548c-.135-.422-.57-.695-1.01-.574-.414.114-.709.587-.573 1.01l.497 1.549c.136.422.57.694 1.01.573.415-.114.71-.586.574-1.01M73.995 111.513v-1.532c0-1.057-1.642-1.059-1.642 0v1.532c0 1.057 1.642 1.059 1.642 0"/>
        <path fill="#010101" d="M60.883 91.872l.252.381c.122.185.363.264.561.147.184-.107.27-.375.148-.561l-.252-.381c-.121-.185-.362-.264-.561-.147-.184.107-.27.375-.148.561M61.782 94.017l.47.781c.273.452.983.04.71-.414l-.471-.781c-.273-.452-.983-.04-.71.414M63.159 96.56c.165.255.33.51.494.767a.42.42 0 0 0 .562.147c.186-.108.268-.375.148-.562-.166-.255-.33-.511-.495-.767a.42.42 0 0 0-.562-.147c-.185.108-.268.375-.147.561M64.814 99.213l.506.76c.123.184.362.263.562.147.182-.107.27-.376.147-.562l-.507-.76c-.123-.184-.362-.263-.561-.147-.183.107-.271.377-.147.562M66.326 101.498l.759 1.013c.133.177.355.268.561.147.175-.102.281-.383.148-.561l-.76-1.014c-.132-.177-.354-.268-.561-.147-.175.102-.28.383-.147.562M68.363 104.402l.633.886c.128.18.357.266.56.147.18-.104.278-.38.148-.561-.21-.296-.421-.591-.633-.887-.128-.18-.357-.266-.561-.147-.178.104-.277.38-.147.562M69.464 106.71l.13.378c.07.21.282.349.504.287.205-.056.359-.294.287-.505l-.129-.379c-.072-.21-.282-.348-.505-.286-.205.056-.359.294-.287.505M80.582 81.011l.136.758c.039.219.305.342.505.287.23-.063.326-.286.287-.505l-.136-.758c-.04-.218-.306-.341-.505-.287-.23.063-.326.287-.287.505M81.143 83.895c.146.251.212.513.207.803-.01.529.811.529.821 0a2.32 2.32 0 0 0-.32-1.218c-.266-.456-.975-.043-.708.415M81.718 86.76l.127.127c.374.374.955-.206.58-.58l-.126-.127c-.374-.374-.955.206-.58.58M82.23 88.623v.886c0 .529.822.53.822 0v-.886c0-.528-.821-.53-.821 0M82.337 92.668l.298 1c.15.505.943.29.791-.219l-.297-1c-.15-.505-.943-.29-.792.219M82.917 95.814l.225 1.02c.114.515.906.297.792-.219l-.226-1.019c-.114-.516-.905-.297-.791.218M83.73 99.688c.141.166.17.374.146.584-.024.22.206.41.41.41.243 0 .387-.189.411-.41.048-.431-.11-.839-.386-1.165-.143-.17-.433-.148-.58 0-.168.168-.143.41 0 .58M84.287 102.401l.255.632c.083.206.274.35.505.287.195-.054.37-.298.287-.505l-.256-.633c-.083-.205-.273-.35-.505-.286-.195.053-.37.298-.286.505M85.3 104.608c.529 0 .53-.821 0-.821-.528 0-.528.82 0 .82"/>
        <path fill="#FFF" d="M74.493 96.592l.127.38c.07.21.283.348.505.287.205-.057.357-.294.287-.505l-.127-.38c-.07-.21-.283-.348-.505-.287-.206.057-.358.294-.287.505M75.31 99.738l.127.38c.07.21.283.348.505.287.206-.057.357-.294.287-.505l-.127-.38c-.07-.21-.283-.347-.505-.287-.206.057-.357.294-.287.505M75.833 101.87l.367.64c.263.458.973.045.71-.415l-.368-.64c-.263-.458-.973-.045-.709.415M76.596 104.528l.259.503c.102.197.377.255.562.147.2-.117.249-.364.147-.562l-.26-.503c-.101-.197-.377-.255-.561-.147-.2.117-.25.364-.147.562M77.577 107.14c.528 0 .529-.821 0-.821s-.53.82 0 .82M56.153 100.951l-.254-.38c-.122-.184-.362-.264-.561-.147-.183.107-.271.376-.148.561l.254.38c.122.185.362.264.561.148.183-.107.271-.377.148-.562M54.668 99.025a3.244 3.244 0 0 0-.525-1.125c-.13-.179-.356-.268-.561-.148-.176.103-.28.382-.147.562.209.286.355.586.441.929.13.512.921.295.792-.218M53.4 96.239a2.144 2.144 0 0 0-.39-.877c-.134-.176-.354-.269-.562-.147-.174.101-.282.384-.147.562.159.21.257.422.307.68.043.218.303.343.505.287.227-.062.33-.287.287-.505M52.375 93.711l-.371-1.269c-.149-.506-.941-.29-.792.219l.372 1.268c.148.506.94.291.791-.218M51.281 90.659l-.263-.884c-.151-.505-.943-.29-.792.219l.263.883c.15.505.944.29.792-.218M50.444 87.89l-.196-1.023c-.042-.218-.303-.342-.505-.287-.228.063-.328.287-.287.505l.196 1.024c.042.218.304.342.505.287.228-.063.329-.287.287-.505M90.65 89.271c-.048-.294-.094-.59-.14-.884-.035-.22-.309-.34-.506-.287-.233.064-.321.285-.286.505l.14.884c.034.22.308.341.504.287.234-.064.322-.285.287-.505M90.523 86.597v-1.013c0-.528-.822-.529-.822 0v1.013c0 .528.822.53.822 0M90.36 84.166c.165-.5.027-1.034-.321-1.42-.355-.393-.934.189-.581.58.159.176.182.403.11.622-.166.503.627.718.792.218M89.945 81.206a.919.919 0 0 1-.063-.576c.045-.217-.064-.444-.287-.505-.204-.056-.46.069-.505.287-.089.422-.038.82.146 1.209.094.2.382.252.562.147.205-.12.241-.36.147-.562M89.818 78.547a.921.921 0 0 1-.063-.576c.045-.217-.064-.444-.287-.505-.203-.056-.46.069-.505.287-.088.422-.037.82.146 1.208.095.201.383.253.562.148.205-.12.242-.36.147-.562M89.138 75.289a.53.53 0 0 1-.14-.34.419.419 0 0 0-.412-.411c-.215 0-.42.187-.41.41.015.352.143.661.382.921.358.39.937-.191.58-.58M88.086 74.092c.528 0 .53-.82 0-.82-.528 0-.529.82 0 .82"/>
        <path fill="#050505" d="M51.779 60.237s-.028.223-.143.593c-.113.372-.33.887-.695 1.436-.727 1.11-2.066 2.259-3.812 2.765 0 0 .31-.842 1.064-1.796.376-.48.85-.987 1.434-1.477.587-.496 1.278-.968 2.152-1.521M62.793 54.92s.209.05.56.041c.347-.01.902-.044 1.52-.048 1.265-.016 2.83.003 4.664.33 0 0-.166.157-.496.36-.33.204-.83.453-1.478.611a5.395 5.395 0 0 1-3.6-.368c-.406-.204-.925-.474-1.17-.927M59.168 69.373l-.224-.06a5.377 5.377 0 0 0-.625-.114c-.537-.068-1.294-.058-2.204.084-.917.144-1.938.339-2.682.95-.788.603-1.384 1.77-2.07 2.956 0 0-.037-.319-.014-.88.038-.556.086-1.391.617-2.354.263-.473.692-.97 1.278-1.317.58-.347 1.262-.53 1.943-.583a6.239 6.239 0 0 1 2.094.188c.705.19 1.413.566 1.887 1.13M74.23 62.786l-.189-.136a4.72 4.72 0 0 0-2.597-.864c-.858-.021-1.787.203-2.605.849a4.852 4.852 0 0 0-1.781 2.972l-.088-.21a2.608 2.608 0 0 1-.158-.641c-.081-.57-.02-1.486.56-2.433.291-.465.708-.937 1.28-1.289a3.833 3.833 0 0 1 2.024-.579 3.972 3.972 0 0 1 2.14.611c.647.4 1.171 1.024 1.414 1.72"/>
        <path fill="#FFF" d="M58.608 82.626c2.85.635 5.85-.038 8.538-1.177 3.825-1.62 7.411-4.423 8.726-8.363a62.92 62.92 0 0 1-1.076 9.388c-.213 1.116-.483 2.279-1.23 3.135-1.18 1.355-3.206 1.563-4.994 1.384a16.784 16.784 0 0 1-9.67-4.37"/>
        <path fill="#63362F" d="M76.385 86.922s.013.26-.088.708a4.084 4.084 0 0 1-.875 1.715 4.24 4.24 0 0 1-2.406 1.413c-1.017.207-2.192.003-3.045-.65l.664-.102c.407-.068.958-.194 1.558-.398.605-.206 1.246-.479 1.934-.886.688-.415 1.455-.936 2.258-1.8"/>
        <path fill="#FFF" d="M108.788 71.89c-1.726.646-4.26-.96-4.397.877-.138 1.838 1.975 7.107 2.85 8.729.843 1.561 1.973 3.066 3.585 3.804 2.167.992 4.684 1.195 6.904.33 1.346-.524 2.779-2.018 3.453-3.295.417-.79.504-1.71.516-2.603.019-1.405-.143-2.861-.852-4.074-.827-1.415-2.291-2.325-3.743-3.086-1.204-.631-2.461-1.207-3.804-1.421-1.343-.214-2.795-.03-3.907.751"/>
        <path fill="#725148" d="M119.872 78.235c.89-.889.75-4 .24-5.15-.866-1.954-5.081-14.133-15.524-22.478-2.112-1.687-8.717-1.688-7.667-1.713-.912.237 6.861 22.6 7.47 24.826.665 2.435 3.815 6.538 6.143 7.512.855.358 1.801.42 2.728.44 1.204.023 2.433-.025 3.568-.43 1.135-.403 2.176-1.211 2.61-2.335"/>
        <path fill="#D7D7D6" d="M119.605 81.48l-.44.52c-.21.246-.67.206-.871-.026-.238-.277-.198-.607.025-.87l.441-.521c.21-.246.67-.207.871.025.238.277.198.608-.026.871M117.246 83.327l-.671.355c-.285.15-.69.045-.832-.256-.143-.302-.05-.67.256-.832l.671-.356c.285-.15.69-.044.832.256.143.302.05.671-.256.833M114.789 84.182l-.678.078c-.319.037-.673-.117-.734-.468-.054-.301.125-.694.468-.734l.677-.079c.319-.037.673.117.735.468.053.301-.126.695-.468.735M110.861 83.791l-.636-.374c-.279-.163-.383-.577-.2-.847a.628.628 0 0 1 .848-.2l.637.374c.278.163.383.578.2.848a.629.629 0 0 1-.849.199M108.216 82.153l-.349-.388c-.215-.24-.23-.65.026-.871.247-.213.64-.23.87.025l.349.389c.215.24.23.65-.026.87-.247.214-.64.231-.87-.025M106.586 79.392l-.119-.223c-.15-.285-.045-.69.256-.833.302-.143.67-.049.832.256l.119.224c.15.285.045.69-.256.832-.302.143-.67.05-.832-.256"/>
        <path fill="#725148" d="M101.724 52.438c-5.914-3.09-8.128-6.727-8.105-10.663.022-3.934-2.878-13.059-1.847-13.58 4.349-.331 3.376 3.999 4.962 8.686.223.658 1.11.774 1.5.199 3.6-5.3 13.092-14.804 15.169-16.695.605-.552 1.643-1.041 2.08-.104.127.275.126.59.024.876-1.624 4.526-8.257 9.37-7.025 11.473 1.844 3.145 12.265-11.632 14.489-8.297 1.33 2.417-10.905 11.385-10.957 11.75-.151 1.066.588 2.26 1.653 2.108 2.995-.426 13.592-6.712 13.274-3.695.861 1.685-12.546 6.352-12.07 8.735 1.124 2.164 10.548-2.186 10.64.793.248 2.224-9.636 2.645-14.45 4.923-2.178 1.03-6.65 4.372-8.923 3.575"/>
        <path fill="#FFF" d="M28.794 102.348c1.84.109 3.408 1.561 4.08 3.277.672 1.716.582 3.641.223 5.449-.346 1.74-.984 3.51-2.307 4.69-1.78 1.585-4.39 1.772-6.767 1.599-1.44-.105-2.984-.364-4.004-1.387-.631-.632-.984-1.486-1.259-2.336-.431-1.337-.705-2.777-.384-4.145.375-1.595 1.506-2.895 2.67-4.05.965-.958 1.997-1.878 3.218-2.477 1.22-.6 2.662-.851 3.955-.431"/>
        <path fill="#725148" d="M20.066 111.672c-1.112-.589-1.893-3.603-1.744-4.852.253-2.122.7-15.002 8.226-26.049 1.523-2.234 7.835-4.178 6.825-3.893.94-.042.088 23.618.162 25.926.08 2.522-1.724 7.37-3.662 8.986-.712.593-1.598.932-2.478 1.222-1.145.377-2.333.692-3.537.64-1.203-.052-2.436-.519-3.182-1.466"/>
        <path fill="#D7D7D6" d="M21.275 114.694l.575.367c.271.174.7.001.824-.28.146-.335.01-.638-.28-.825l-.575-.367c-.272-.174-.701 0-.825.28-.146.335-.01.639.28.825M24.073 115.766l.746.142c.317.06.673-.16.72-.49.048-.33-.15-.655-.49-.72l-.745-.142c-.317-.06-.673.16-.72.49-.048.33.15.655.49.72M26.674 115.86l.67-.124c.316-.058.609-.31.564-.663-.037-.303-.324-.627-.663-.565l-.67.124c-.316.059-.61.31-.565.664.038.303.324.627.664.564M30.312 114.332l.499-.544c.218-.239.196-.665-.06-.87a.628.628 0 0 0-.868.06l-.499.544c-.218.238-.196.665.06.87a.629.629 0 0 0 .868-.06M32.359 111.988l.22-.474c.134-.292.028-.69-.281-.824-.3-.131-.68-.033-.825.28l-.22.474c-.134.292-.028.689.281.824.3.132.68.033.825-.28M33.105 108.87l.048-.249c.06-.316-.16-.672-.49-.72-.33-.048-.655.15-.72.49l-.048.248c-.06.317.16.673.49.72.33.048.656-.15.72-.489"/>
        <path fill="#725148" d="M29.824 81.678c4.744-4.692 5.79-8.82 4.61-12.575-1.178-3.753-1.09-13.328-2.228-13.523-4.254.963-2.051 4.815-2.188 9.761-.02.695-.833 1.066-1.376.631-5-4.007-16.866-10.298-19.407-11.495-.741-.349-1.877-.511-2.018.513-.042.3.052.602.234.844 2.883 3.849 10.648 6.526 10.088 8.9-.837 3.547-15.144-7.51-16.288-3.669-.561 2.701 13.771 7.674 13.928 8.009.458.974.103 2.332-.96 2.5-2.987.473-14.964-2.418-13.773.372-.328 1.864 13.859 2.382 14.104 4.799-.437 2.399-10.724 1.013-9.936 3.888.417 2.198 9.988-.307 15.26.455 2.384.345 7.64 2.223 9.58.792"/>
        <path fill="#000" d="M106.306 52.443c-.178 2.264-2.945 3.995-5.005 2.908a5.296 5.296 0 0 1-1.247-.932c-1.43-.963-2.306-2.728-2.951-4.342a1.465 1.465 0 0 0-.636.048c.052 1.558.289 3.09.57 4.617 1.28 1.963 3.19 3.587 5.497 3.599 3.288.016 6.102-2.711 6.351-5.898.13-1.656-2.45-1.647-2.58 0"/>
        <g transform="translate(110.345 -.156)">
            <mask id="d" fill="#fff">
                <use xlink:href="#c"/>
            </mask>
            <path fill="#D7D7D6" d="M.023 1.518v8.771c0 1.66 2.58 1.663 2.58 0V1.52c0-1.66-2.58-1.663-2.58 0" mask="url(#d)"/>
        </g>
        <path fill="#D7D7D6" d="M135.56 14.181a21.703 21.703 0 0 0-4.525 5.274c-.872 1.418 1.359 2.715 2.228 1.301a19.549 19.549 0 0 1 4.12-4.75c1.273-1.07-.56-2.886-1.824-1.825M144.307 32.274l-5.926 1.83c-1.581.487-.907 2.979.686 2.487l5.926-1.83c1.581-.487.906-2.978-.686-2.487M143.723 54.574a18.84 18.84 0 0 0-6.269-.849c-1.655.055-1.663 2.635 0 2.58a16.603 16.603 0 0 1 5.583.756c1.588.496 2.268-1.994.686-2.487"/>
        <path fill="#643730" d="M76.192 72.95s-.346.548-1.021 1.466a27.517 27.517 0 0 1-3.123 3.58c-1.43 1.362-3.318 2.808-5.653 3.783-1.161.49-2.432.849-3.751 1.014-1.318.167-2.681.12-3.994-.14l.437-.007a16.596 16.596 0 0 0 5.564-1.072c1.742-.652 3.695-1.707 5.646-3.187 1.96-1.475 3.915-3.364 5.895-5.437"/>
        <path fill="#643730" d="M76.895 74.014s-.09-.024-.225-.066l-.507-.16a4.125 4.125 0 0 1-.62-.253 7.795 7.795 0 0 1-.768-.468s.063-.078.197-.168a1.254 1.254 0 0 1 1.47.083c.267.215.476.587.453 1.032M58.708 84.128s-.063-.066-.145-.19a1.63 1.63 0 0 1-.24-.56 1.33 1.33 0 0 1 .129-.92 1.13 1.13 0 0 1 .39-.41.837.837 0 0 1 .573-.123s-.044.098-.082.24c-.04.14-.056.318-.068.491-.016.182-.03.342-.103.573a3.297 3.297 0 0 1-.454.9"/>
    </g>
</svg>
