<svg xmlns="http://www.w3.org/2000/svg" xmlns:xlink="http://www.w3.org/1999/xlink" width="87" height="89" viewBox="0 0 87 89">
    <defs>
        <circle id="a" cx="38.22" cy="38.22" r="38.22"/>
        <path id="c" d="M.114.084h57.524v123.818H.114z"/>
        <path id="e" d="M.009.012H30.87v34.252H.01z"/>
        <path id="g" d="M.04.084h22.965v45.948H.041z"/>
        <path id="i" d="M0 0h75.378v61.576H0z"/>
        <path id="k" d="M.114.084h57.524v123.818H.114z"/>
        <path id="m" d="M.009.012H30.87v34.252H.01z"/>
        <path id="o" d="M.04.084h22.965v45.948H.041z"/>
    </defs>
    <g fill="none" fill-rule="evenodd">
        <g transform="translate(0 11.863)">
            <mask id="b" fill="#fff">
                <use xlink:href="#a"/>
            </mask>
            <use fill="#D8D8D8" fill-rule="nonzero" xlink:href="#a"/>
            <g mask="url(#b)">
                <g opacity=".231" style="mix-blend-mode:luminosity">
                    <path fill="#B5E8F7" d="M-17.725 40.867h48.377V8.431h-48.377z"/>
                    <path fill="#8F8F8F" d="M-17.725 8.43h48.377V7.273h-48.377z"/>
                    <path fill="#FFF" d="M30.652 13.45H13.137c-.462 0-.6-.647-.182-.848l.9-.431a2.928 2.928 0 0 1 1.934-.213l1.816.424c.52.121 1.06.098 1.569-.067l5.676-1.844a2.252 2.252 0 0 1 2.444.732l.484.59c.351.43.925.586 1.436.39l1.438-.55v1.818z"/>
                    <g>
                        <path fill="#D6D6D6" d="M8.375 73.288h78.928V71.27H8.375z"/>
                        <path fill="#595959" d="M11.434 105.243h1.184V73.288h-1.184zM83.06 105.243h1.184V73.288h-1.183z"/>
                        <path fill="#D6D6D6" d="M28.87 65.915c0 4.87 3.471 5.063 3.471 5.063H21.895s3.472-.192 3.472-5.063h3.502z"/>
                        <path fill="#8F8F8F" d="M36.255 66.238H17.982a.499.499 0 0 1-.5-.497v-12.76c0-.273.223-.496.5-.496h18.273c.276 0 .5.223.5.497v12.76a.499.499 0 0 1-.5.496"/>
                        <path fill="#000" d="M35.835 65.582H18.401a.226.226 0 0 1-.226-.225v-11.99c0-.125.101-.226.226-.226h17.434c.125 0 .227.101.227.225v11.99a.226.226 0 0 1-.227.226"/>
                        <path fill="#8F8F8F" d="M21.895 71.495h10.446v-.516H21.895z"/>
                        <path fill="#595959" d="M75.395 71.27H59.18v-7.19c0-.236.193-.427.43-.427h15.355c.237 0 .43.19.43.427v7.19z"/>
                        <path fill="#000" d="M60.379 65.671h13.817v-.7H60.38z"/>
                        <path fill="#D6D6D6" d="M70.734 70.274h1.39v-.65h-1.39z"/>
                        <path fill="#FF7900" d="M72.506 69.949c0 .18.146.325.327.325.181 0 .328-.146.328-.325a.326.326 0 0 0-.328-.325.326.326 0 0 0-.327.325"/>
                        <path fill="#FFF" d="M73.542 69.949c0 .18.146.325.327.325.18 0 .327-.146.327-.325a.326.326 0 0 0-.327-.325.326.326 0 0 0-.327.325"/>
                        <path fill="#8F8F8F" d="M72.318 63.653H62.256v-3.699a.37.37 0 0 1 .37-.367h9.322c.205 0 .37.164.37.367v3.699z"/>
                        <path fill="#595959" d="M21.528 75.373h4.26a.883.883 0 0 0 .884-.877.883.883 0 0 0-.884-.877h-4.26a.883.883 0 0 0-.883.877c0 .482.397.877.883.877M42.955 75.373h4.26a.883.883 0 0 0 .884-.877.883.883 0 0 0-.884-.877h-4.26a.883.883 0 0 0-.883.877c0 .482.397.877.883.877"/>
                        <path fill="#595959" d="M40.46 87.696H28.284c-2.554 0-4.625-2.055-4.625-4.591V62.33c0-1.69 1.38-3.06 3.084-3.06h15.26c1.703 0 3.083 1.37 3.083 3.06v20.775c0 2.536-2.07 4.591-4.624 4.591"/>
                        <path fill="#000" d="M27.222 83.87c-.138 0-.25-.032-.25-.072v-21.28c0-.04.112-.072.25-.072.139 0 .25.032.25.072v21.28c0 .04-.111.072-.25.072M30.886 83.87c-.139 0-.25-.032-.25-.072v-21.28c0-.04.111-.072.25-.072.138 0 .25.032.25.072v21.28c0 .04-.112.072-.25.072M34.55 83.87c-.14 0-.251-.032-.251-.072v-21.28c0-.04.112-.072.25-.072s.25.032.25.072v21.28c0 .04-.112.072-.25.072M38.212 83.87c-.138 0-.25-.032-.25-.072v-21.28c0-.04.112-.072.25-.072.139 0 .25.032.25.072v21.28c0 .04-.111.072-.25.072M41.876 83.87c-.139 0-.25-.032-.25-.072v-21.28c0-.04.111-.072.25-.072.138 0 .25.032.25.072v21.28c0 .04-.112.072-.25.072"/>
                    </g>
                    <g>
                        <path fill="#D6D6D6" d="M-17.386 105.916H8.102V64.42h-25.488z"/>
                        <path fill="#595959" d="M-15.551 83.198H6.267V67.043h-21.818v16.155zm-.15.15H6.417V66.893h-22.118v16.455z"/>
                        <path fill="#FF7900" d="M-1.662 59.345v3.704c0 .376.057.738.163 1.078.054.176.22.294.405.294h6.14c.185 0 .351-.118.405-.294.106-.34.163-.702.163-1.078v-3.704h-7.276z"/>
                        <path fill="#50BE87" d="M5.087 59.345c.948-.67 1.885-1.472 1.817-1.806-.07-.341-1.163-.074-2.272.34.835-.95 1.709-2.145 1.539-2.484-.173-.343-1.332.334-2.363 1.1.58-1.233 1.196-2.892.908-3.174-.276-.271-1.246.864-2.009 1.962-.065-1.407-.336-3.192-.73-3.19-.396-.002-.666 1.783-.731 3.19-.763-1.098-1.734-2.233-2.01-1.962-.287.282.329 1.94.909 3.174-1.031-.766-2.19-1.443-2.363-1.1-.17.339.704 1.533 1.54 2.485-1.11-.415-2.203-.682-2.273-.34-.069.333.869 1.136 1.817 1.805h6.22z"/>
                    </g>
                </g>
                <g transform="translate(29.28 8.294)">
                    <mask id="d" fill="#fff">
                        <use xlink:href="#c"/>
                    </mask>
                    <path fill="#4A4A47" d="M18.004 115.408a1.547 1.547 0 0 0-.198-.184c-.032.185-.062.371-.089.558.14.056.259.117.429.185.308.123.175.685-.137.561-.117-.046-.244-.105-.369-.158-.02.175-.04.349-.058.524l.02.01c.09.017.18.033.27.058.32.092.184.654-.136.562a2.334 2.334 0 0 0-.208-.046c-.035.408-.065.818-.093 1.228-.014.16-.022.315-.033.475-.14-.1-.29-.194-.445-.288l-.044-.021a4.845 4.845 0 0 0-.407-.219v-.003c-.08-.14-.197-.24-.359-.228a.067.067 0 0 0-.06.035c-.15-.072-.3-.135-.445-.188h-.006a.208.208 0 0 0-.01-.056c-.061-.221-.242-.496-.466-.44-.04.013-.06.053-.065.103a.385.385 0 0 0 .06.219c-.131-.04-.249-.075-.35-.103a10.95 10.95 0 0 1-.364-.066c-.093-.243-.224-.452-.413-.586-.175-.128-.339.047-.339.23h-.002c.237-1.9.896-4.32 1.572-6.72a21.22 21.22 0 0 0 3.081 2.23 12.867 12.867 0 0 0-.418 1.54c.167.114.305.219.443.376.232.267-.129.68-.361.412zm-5.589-17.775C9.681 93.945 7.3 90.016 6.274 84.718c-.64-3.934 0-8.01 1.148-11.797.599-1.775 1.644-6.368 3.456-7.292h.006a3.03 3.03 0 0 1 1.115.028c1.882 7.41 2.037 15.791 1.42 23.283-.227 2.88-.575 5.79-1.004 8.693zm11.596 14.246c-.243-.64-.703-1.285-1.26-1.688-.454-.343-.968-.524-1.48-.424l-.006.006c-.15-.128-.371-.247-.472-.4a7.194 7.194 0 0 1-.35-.558c-.26-.44-.492-.914-.769-1.379a47.168 47.168 0 0 0-1.405-2.11 68.923 68.923 0 0 0-1.2-1.647c.744-3.27 1.536-6.574 2.261-9.881.94-4.287 1.747-8.587 2.13-12.867.372-4.65.566-21.782.454-26.447l.251-.006c-.021-.783-.046-1.573-.076-2.347l-.676.022v-.35a.453.453 0 0 0-.902 0v.388l-1.18.043-2.382.09v-.34a.455.455 0 0 0-.906 0v.372l-2.113.078-1.674.066v-.219a.453.453 0 0 0-.902 0v.247l-2.012.074-1.105.04v-.14a.453.453 0 0 0-.902 0v.175l-.796.028-2.165.09-1.02.035H3.32v-.327a.453.453 0 0 0-.902 0v.365l-1.439.056c-.147.792-.3 1.573-.456 2.359-.096 1.026-.192 2.05-.29 3.076l.145.016c-.397 4.118-.23 8.83-.23 12.799 0 2.77-.052 5.937.101 9.092.189 3.807.684 7.61 1.939 10.714.257.646.53 1.305.826 1.972.358.824.743 1.657 1.154 2.496 1.823 3.73 4.125 7.58 6.761 10.859-.158.82-.322 1.635-.492 2.446a226.192 226.192 0 0 1-.785 3.71c-.486 2.218-1.006 4.483-1.684 6.596-.188.602-.831 1.276-1.058 1.847l.065-.008-.002.024c-.235 2.221.656 2.274 2.581 2.568 2.338.215 4.9.065 7.443-1.37a.567.567 0 0 0 .07-.04c-.002.046-.007.087-.013.133-.112 1.305.43 1.732 1.13 1.685.472-.025 1.022-.262 1.49-.59 1.72-1.232 2.616-3.422 3.382-5.535.7-1.887 1.788-3.856.954-5.894z" mask="url(#d)"/>
                    <path fill="#6A473F" d="M47.681 4.212c4.158.078 7.854-1.83 9.566-1.051 2.14.972-5.17 4.548-5.773 4.923-.377.235-5.68.108-5.7.466-.02.357-1.991 15.914-2.355 17.19-.364 1.276-2.654 3.1-3.71 2.701-1.057-.4-2.233-2.678-2.117-4.004.115-1.326 5.968-16.295 6.079-16.716.111-.421-1.13-2.619.562-3.994.723-.588 2.178-2.193 1.64-3.599 0 0 2.14-.574.977 2.392-.105.266-.38.374-.539.704-.353.731.544.972 1.37.988" mask="url(#d)"/>
                </g>
                <path fill="#5D3835" d="M77.756 13.88l-.441-.1c-.28-.062-.679-.16-1.155-.217-.474-.057-1.033-.05-1.578.16a2.016 2.016 0 0 0-.743.48c-.21.22-.377.509-.405.84 0 0-.01-.036-.019-.108a1.092 1.092 0 0 1 .012-.32c.045-.275.235-.685.66-.993.417-.31 1.043-.492 1.707-.428.665.06 1.324.338 1.962.687M85.798 13.516s-.012-.047-.052-.125a.777.777 0 0 0-.246-.274 1.02 1.02 0 0 0-.53-.183c-.221-.017-.474.025-.752.099a9.372 9.372 0 0 0-1.852.712c-.328.164-.645.363-.99.569-.341.2-.729.393-1.143.426l.125-.048c.08-.033.196-.088.335-.171.283-.162.624-.47 1.105-.817a5.96 5.96 0 0 1 1.87-.865c.373-.092.778-.193 1.22-.14.217.03.438.112.608.257.17.141.294.348.302.56"/>
                <path fill="#5D3835" d="M86.507 12.589c-.009.01.007-.24-.27-.465-.133-.109-.335-.2-.571-.224-.233-.025-.504.043-.782.17-.28.127-.569.32-.907.498a8.06 8.06 0 0 1-1.095.479c-.78.28-1.634.473-2.495.666 0 0 .178-.09.507-.232.329-.143.81-.33 1.394-.561.588-.232 1.26-.51 1.982-.909.368-.187.808-.397 1.306-.347.243.03.475.131.657.294.182.158.303.4.274.63"/>
                <path fill="#5D3835" d="M86.81 11.737l-.12-.072a1.79 1.79 0 0 0-.36-.149c-.317-.096-.806-.127-1.36.015-.56.135-1.172.454-1.898.712-.732.254-1.543.368-2.356.432 0 0 .175-.061.49-.16.314-.101.77-.234 1.312-.426.272-.096.558-.213.87-.348.312-.133.65-.281 1.027-.395.374-.115.8-.187 1.23-.143.426.041.87.21 1.164.534"/>
                <path fill="#5D3835" d="M80.775 15.382l-.043-.065a1.659 1.659 0 0 1-.11-.19 2.528 2.528 0 0 1-.235-.742 3.707 3.707 0 0 1 .005-1.089c.028-.196.07-.397.122-.599a.831.831 0 0 1 .137-.322.436.436 0 0 1 .15-.13.218.218 0 0 1 .208.002c0 .002-.032-.008-.084.005-.053.014-.104.064-.132.14a.65.65 0 0 0-.034.282c.004.122.005.26.003.41-.003.3-.023.65-.037 1.033-.012.383-.023.798.05 1.265"/>
                <path fill="#D3D3CC" d="M42.747 26.526s7.82-2.604 8.903-1.147c1.083 1.458 13.88 4.877 13.88 4.877l-1.173 6.275-13.55-1.7c-1.262-.158-1.636 1.987-1.724 3.261L51.027 60.3 33.252 71.09l-2.64-8.202.812-22.666-4.577 10.565-5.936-1.303s6.29-21.72 7.83-22.428c2.495-1.145 5.076-1.026 7.164-.648 0 0 .427-.546.614-.507 1.813.381 3.133 1.518 3.598 1.412 1.022-.235 2.63-.787 2.63-.787"/>
                <path fill="#1C1A19" d="M47.606 60.88l-14.964-.086.142 1.89 14.652.041.17-1.844"/>
                <path fill="#FFFFFE" d="M43.607 62.778l-3.208-.022a.182.182 0 0 1-.18-.184l.01-1.667c.001-.101.083-.182.184-.181l3.208.022c.1 0 .181.083.18.184l-.011 1.667c-.001.1-.083.182-.183.181"/>
                <path fill="#525350" d="M46.6 62.769l-.657-.005.013-1.903.656.005-.013 1.903M37.156 62.698l-.657-.004.014-1.903.656.004-.013 1.903"/>
                <path fill="#24AC79" d="M33.202 25.93l-1.653 17.355.102 13.471s4.3 5.819 6.302.502c1.025-2.72.73-20.46.73-20.46L35.71 26.274l-2.51-.344"/>
                <g transform="translate(19.028 25.196)">
                    <mask id="f" fill="#fff">
                        <use xlink:href="#e"/>
                    </mask>
                    <path fill="#24AC79" d="M25.425.77l-.06 2.525-.212 10.484s.357 17.13 1.085 19.023c1.434 3.727 4.633-.85 4.633-.85l-1.076-13.038L27.957.012 25.425.77" mask="url(#f)"/>
                    <path fill="#FFFFFE" d="M1.512 24.008l6.956 1.303c.539.12.681.752.65 1.304-.044.764-.161 1.374-.742 2.14-.781 1.031-5.442-.332-7.522-1.006a1.236 1.236 0 0 1-.836-1.386c.106-.614.21-.9.38-1.517.16-.578.53-.967 1.114-.838" mask="url(#f)"/>
                </g>
                <path fill="#FFFFFE" d="M68.718 30.564l-1.59 6.92c-.141.534-.776.65-1.325.596-.758-.076-1.36-.22-2.1-.834-.994-.827.56-5.443 1.318-7.5a1.23 1.23 0 0 1 1.415-.78c.608.133.887.25 1.495.446.57.185.94.571.787 1.152"/>
                <g transform="translate(21.078 -11.401)">
                    <mask id="h" fill="#fff">
                        <use xlink:href="#g"/>
                    </mask>
                    <path fill="#FFFFFE" d="M15.315 37.284l.336-1.939s.535-.081.641.168c.107.25 3.885 6.03 3.885 6.03s1.437-3.67 1.347-4.063l-1.058-2.686s.487-.667.798-.144c.31.522.918 1.892.918 1.892l.823 2.427-.605 6.147-1.268-3.139-1.498.311s-2.209 3.982-2.315 3.732c-.107-.25-2.004-8.736-2.004-8.736" mask="url(#h)"/>
                    <path fill="#0B0B09" d="M20.983 16.483s-.24-10.688-2.493-13.126C16.297.983 8.78-4.82.37 8.829A2.235 2.235 0 0 0 .35 11.13l7.665 13.073 12.97-7.72" mask="url(#h)"/>
                </g>
                <path fill="#592E2A" d="M40.558 19.228s1.152 5.142 2.045 6.85c.278.533-1.348 4.064-1.348 4.064l-3.942-4.09s.57-2.098-1.644-7.635c0 0 3.196 4.86 4.889.81"/>
                <path fill="#6A473F" d="M40.14-.825s7.17 14.905.73 22.06c0 0-3.906 1.427-10.44-6.686 0 0-1.47 2.339-3.834-3.467-2.022-4.966 1.94-1.289 1.94-1.289s.856-3.014.51-3.758c-.345-.744-1.672-3.486-1.672-3.486S35.722-2.913 40.14-.825"/>
                <path fill="#0B0B09" d="M41.504 2.955s-.124-.025-.308-.076c-.092-.024-.21-.02-.326-.04-.122.015-.248.01-.378.055-.513.125-1.112.695-1.857 1.349 0 0-.007-.12.032-.326.04-.205.124-.497.327-.81.203-.304.535-.672 1.082-.802.068-.014.137-.026.206-.035.069-.009.143.001.214.005.145 0 .284.055.417.107.131.053.24.157.346.24.095.104.175.22.245.333M30.491 6.124s.018-.126.079-.355c.068-.22.216-.553.567-.833.346-.287.912-.422 1.431-.317a2.378 2.378 0 0 1 1.357.8l-.343-.035c-.211-.021-.506-.054-.836-.07-.333-.015-.688-.012-1.045.079-.097.01-.177.063-.279.09-.095.039-.186.099-.296.147-.091.07-.2.138-.309.217-.098.088-.206.18-.326.277"/>
                <path fill="#592E2A" d="M40.385 12.241s-1.24 1.365-2.881 1.073c-1.133-.2.404.412.745.455.654.082 1.718-.296 2.136-1.528"/>
                <path fill="#FFFFFE" d="M39.377 8.886a1.891 1.891 0 0 1-.493-.89c-.236-.98.33-1.956 1.262-2.178.933-.222 1.88.392 2.117 1.373.236.98-.329 1.956-1.262 2.178-.6.143-1.205-.06-1.624-.483"/>
                <path fill="#0B0B09" d="M39.39 8.873s.061.061.19.155c.13.091.334.215.621.282.283.068.657.07 1.027-.098.368-.16.717-.502.88-.971a1.822 1.822 0 0 0-.169-1.532c-.286-.483-.854-.844-1.472-.821-.618.006-1.224.44-1.453 1.068-.24.62-.103 1.398.376 1.917 0 0-.061-.05-.16-.165a1.849 1.849 0 0 1-.332-.573 1.953 1.953 0 0 1-.072-1.054c.088-.406.34-.864.8-1.153a1.763 1.763 0 0 1 1.69-.09c.29.132.545.354.743.626.19.277.325.608.354.962.037.351-.027.721-.19 1.05a1.78 1.78 0 0 1-.766.788 1.673 1.673 0 0 1-1.099.163 1.754 1.754 0 0 1-.968-.554"/>
                <path fill="#0B0B09" d="M40.624 7.929c.076.54.475.931.89.873.417-.058.694-.543.618-1.084-.076-.54-.475-.931-.891-.873-.417.058-.693.543-.617 1.084"/>
                <path fill="#FFFFFE" d="M41.597 7.858c.014.178.173.285.355.24a.404.404 0 0 0 .304-.403c-.014-.178-.173-.285-.355-.24a.404.404 0 0 0-.304.403M32.312 10.88a1.89 1.89 0 0 1-.493-.89c-.236-.98.33-1.956 1.262-2.178.933-.223 1.88.392 2.117 1.373.236.98-.33 1.956-1.262 2.178-.6.143-1.205-.06-1.624-.483"/>
                <path fill="#0B0B09" d="M32.325 10.867s.061.06.19.154c.13.092.334.216.62.283a1.6 1.6 0 0 0 1.028-.098c.368-.16.717-.503.88-.972a1.822 1.822 0 0 0-.169-1.532c-.286-.482-.854-.843-1.472-.82-.618.006-1.224.439-1.453 1.068-.24.62-.103 1.397.376 1.917 0 0-.061-.05-.16-.165a1.847 1.847 0 0 1-.332-.573 1.953 1.953 0 0 1-.072-1.054c.088-.407.339-.864.8-1.153a1.764 1.764 0 0 1 1.69-.09c.29.132.545.354.743.625.19.278.325.609.354.962.037.352-.027.722-.19 1.051a1.78 1.78 0 0 1-.766.787 1.673 1.673 0 0 1-1.1.163 1.755 1.755 0 0 1-.967-.553"/>
                <path fill="#0B0B09" d="M33.559 9.922c.075.54.474.932.89.874.417-.058.693-.543.618-1.084-.076-.54-.475-.931-.891-.873-.417.058-.693.543-.617 1.083"/>
                <path fill="#FFFFFE" d="M34.532 9.852c.014.177.173.284.355.239a.404.404 0 0 0 .304-.403c-.014-.177-.173-.284-.355-.239a.404.404 0 0 0-.304.403M41.133 14.885a10.68 10.68 0 0 1-3.277.912c-.372.039-.697.056-.97.06l.036.044.134.159a5.87 5.87 0 0 0 1.285.023 6.402 6.402 0 0 0 1.945-.514c.344-.155.628-.32.861-.477-.003-.07-.01-.138-.014-.207"/>
                <path fill="#592E2A" d="M40.986 16.806s-.553.69-.74.813a1.452 1.452 0 0 1-.725.227c-.282.011-.81-.276-1.045-.471 0 0 1.723.037 2.51-.569"/>
                <path fill="#7C7D7A" d="M28.955 8.306l-.073.01c0 .002.125.95.413 1.96.143.505.328 1.025.56 1.452.232.426.511.763.862.889.358.126.845.184 1.394.184.753 0 1.621-.111 2.416-.323.795-.212 1.517-.524 1.978-.935.343-.308.462-.793.462-1.327 0-.753-.236-1.622-.47-2.305a12.828 12.828 0 0 0-.47-1.182l-.01-.023-.023-.012c-.007-.003-.74-.368-1.972-.368-1.263 0-3.05.383-5.11 1.921l-.035.026.005.043.073-.01.044.059c2.038-1.52 3.79-1.892 5.023-1.892.602 0 1.08.09 1.408.178a3.715 3.715 0 0 1 .468.16l.024.012.007.003.033-.066-.067.031s.015.03.04.087c.088.198.31.715.51 1.342.2.626.376 1.363.376 1.996 0 .515-.117.953-.413 1.217-.432.386-1.137.695-1.919.903a9.582 9.582 0 0 1-2.378.318c-.538 0-1.014-.059-1.345-.176-.293-.102-.56-.408-.783-.82-.336-.618-.576-1.46-.731-2.146a16.34 16.34 0 0 1-.224-1.216l-.073.01.044.059-.044-.059M44.055 3.29l-.05.055.02.018c.097.093.54.533.956 1.179.417.645.807 1.495.807 2.405 0 .463-.1.942-.349 1.422-.136.265-.412.532-.779.778-1.098.74-2.996 1.29-4.25 1.288-.12 0-.234-.005-.34-.015-.378-.035-.72-.294-1.017-.677-.448-.573-.788-1.415-1.013-2.111a13.706 13.706 0 0 1-.338-1.246l-.071.015.063.037.004-.007c.097-.155 1.8-2.811 6.361-3.067l-.004-.073-.05.054.05-.054-.004-.074c-2.384.133-4.005.917-5.029 1.669s-1.45 1.47-1.454 1.477l-.015.024.006.028c0 .003.201.99.608 2.001.204.506.46 1.018.77 1.417s.681.69 1.12.733c.11.01.229.016.353.016.863 0 1.995-.247 2.992-.635a6.988 6.988 0 0 0 1.34-.678c.378-.255.672-.533.827-.832.26-.502.365-1.006.365-1.49 0-1.016-.46-1.942-.915-2.614-.456-.673-.911-1.094-.914-1.096l-.023-.022-.03.002.003.074"/>
                <path fill="#876961" d="M32.108 12.654c-.537 0-1.011-.059-1.342-.176-.293-.102-.56-.408-.783-.82-.336-.618-.576-1.46-.731-2.146a16.34 16.34 0 0 1-.17-.866v-.002c.991-.723 2.14-1.294 3.315-1.6.338-.087.67-.12.999-.12.441 0 .875.059 1.304.117.43.058.856.115 1.281.115h.073c.108.259.255.636.39 1.064.2.626.377 1.363.377 1.996 0 .515-.117.953-.413 1.217-.432.386-1.137.695-1.919.903a9.582 9.582 0 0 1-2.377.318h-.004m.514-1.523a1.717 1.717 0 0 0 .989.32c.272 0 .543-.066.781-.194.336-.171.601-.46.766-.787.163-.329.227-.699.19-1.05a2.017 2.017 0 0 0-.354-.963 1.931 1.931 0 0 0-.743-.625 1.757 1.757 0 0 0-1.69.09c-.461.289-.712.746-.8 1.153-.088.415-.024.781.072 1.054.075.207.17.363.255.476a1.871 1.871 0 0 0 .534.526"/>
                <path fill="#FFFFFE" d="M33.506 11.347a1.6 1.6 0 0 1-.37-.043 1.742 1.742 0 0 1-.62-.283 1.735 1.735 0 0 1-.19-.154c.088.098.187.187.296.264a1.833 1.833 0 0 1-.534-.526 1.926 1.926 0 0 0 .237.262 1.888 1.888 0 0 1-.376-1.917c.229-.63.835-1.062 1.453-1.068l.055-.001c.596 0 1.14.353 1.417.821.295.484.335 1.069.17 1.532a1.656 1.656 0 0 1-.88.972c-.225.102-.451.14-.658.14m.752-2.513a.597.597 0 0 0-.082.006c-.417.058-.693.543-.617 1.083.07.505.423.88.809.88a.597.597 0 0 0 .082-.006c.416-.058.692-.543.617-1.084l-.006-.036c.04-.034.06-.074.055-.113-.006-.047-.049-.084-.112-.105-.134-.371-.429-.625-.746-.625"/>
                <path fill="#2B2C2A" d="M33.61 11.45a1.717 1.717 0 0 1-.99-.32 1.795 1.795 0 0 1-.295-.263s.061.06.19.154c.13.092.334.216.62.283a1.6 1.6 0 0 0 1.028-.098c.368-.16.717-.503.88-.972a1.822 1.822 0 0 0-.169-1.532c-.278-.468-.82-.821-1.417-.821h-.055c-.618.007-1.224.44-1.453 1.069-.24.62-.103 1.397.376 1.917 0 0-.061-.05-.16-.165a1.862 1.862 0 0 1-.332-.573 1.953 1.953 0 0 1-.072-1.054c.088-.407.339-.864.8-1.153a1.757 1.757 0 0 1 1.69-.09c.29.132.545.354.743.625.19.278.325.609.354.962.037.352-.027.722-.19 1.051a1.78 1.78 0 0 1-.766.787c-.238.128-.51.194-.781.194"/>
                <path fill="#2B2C2A" d="M34.368 10.801c-.386 0-.739-.374-.81-.879-.075-.54.201-1.025.618-1.083a.597.597 0 0 1 .082-.006c.317 0 .612.254.746.625a.409.409 0 0 0-.129-.02.525.525 0 0 0-.073.006c-.161.022-.282.112-.27.2.01.075.113.124.242.124a.525.525 0 0 0 .073-.005.427.427 0 0 0 .214-.087l.006.036c.075.54-.2 1.026-.617 1.084a.597.597 0 0 1-.082.005"/>
                <path fill="#FFFFFE" d="M34.804 10.101c-.145 0-.26-.1-.272-.25a.404.404 0 0 1 .387-.412.263.263 0 0 1 .272.25.367.367 0 0 1-.063.227.412.412 0 0 1-.241.175.337.337 0 0 1-.083.01"/>
                <path fill="#92938F" d="M32.111 12.728c-.544 0-1.025-.059-1.37-.18-1.034-.366-1.56-2.88-1.726-3.856a9.45 9.45 0 0 1 .066-.048v.002c.037.218.094.523.171.866.155.686.395 1.528.731 2.145.223.413.49.719.783.821.33.117.805.176 1.342.176h.003c.74 0 1.597-.11 2.378-.318.782-.208 1.487-.517 1.919-.903.296-.264.413-.702.413-1.217 0-.633-.176-1.37-.376-1.996a13.492 13.492 0 0 0-.39-1.064l.078-.002c.4.97 1.296 3.464.323 4.334-.892.798-2.854 1.24-4.345 1.24"/>
                <path fill="#FFFFFE" d="M43.324 9.82c-.278-2.045-.777-4.013-1.297-5.687 0-.024-.002-.047-.003-.071.355-.086.716-.156 1.076-.214.3.248.557.55.758.884.766 1.272 1.089 2.817.757 4.27.01.05.023.101.035.152-.37.248-.83.474-1.326.665"/>
                <path fill="#2B2C2A" d="M42.104 4.394l-.098-.312.083-.02c.004.113.01.222.015.332"/>
                <path fill="#876961" d="M40.415 10.435h-.005c-.12 0-.234-.005-.34-.015-.378-.035-.72-.294-1.017-.677-.448-.573-.788-1.415-1.013-2.111a13.706 13.706 0 0 1-.279-.987c.318-.252.502-.583.85-.904.937-.863 2.136-1.368 3.395-1.675l.021.067c.52 1.674 1.019 3.642 1.297 5.686-.972.376-2.08.616-2.91.616m-.728-1.298a1.715 1.715 0 0 0 .99.32c.272 0 .543-.065.781-.193.336-.172.601-.46.766-.787.163-.33.227-.7.19-1.051a2.017 2.017 0 0 0-.354-.962 1.93 1.93 0 0 0-.743-.625 1.757 1.757 0 0 0-1.69.09c-.46.288-.712.746-.8 1.152-.088.415-.024.782.072 1.054.075.207.17.363.255.476a1.855 1.855 0 0 0 .533.526"/>
                <path fill="#FFFFFE" d="M40.571 9.353a1.6 1.6 0 0 1-.37-.043 1.742 1.742 0 0 1-.62-.282c-.13-.094-.19-.155-.19-.155.087.098.187.187.295.264a1.818 1.818 0 0 1-.533-.526c.027.037.053.07.077.097.099.115.16.165.16.165a1.889 1.889 0 0 1-.376-1.917c.229-.629.835-1.062 1.453-1.068l.055-.001c.596 0 1.14.353 1.417.822.295.483.335 1.068.17 1.532a1.656 1.656 0 0 1-.88.97c-.225.103-.451.142-.658.142m.752-2.514a.597.597 0 0 0-.082.006c-.417.058-.693.543-.617 1.084.07.504.423.879.809.879a.597.597 0 0 0 .082-.006c.416-.058.693-.543.617-1.084a.985.985 0 0 0-.006-.036c.04-.034.061-.073.055-.113-.006-.047-.049-.084-.112-.105-.134-.37-.429-.625-.746-.625"/>
                <path fill="#2B2C2A" d="M40.676 9.457a1.715 1.715 0 0 1-.99-.32 1.787 1.787 0 0 1-.296-.264s.061.061.19.155c.13.091.334.215.621.282a1.6 1.6 0 0 0 1.027-.098c.368-.16.717-.502.88-.971a1.822 1.822 0 0 0-.169-1.532c-.278-.469-.82-.822-1.417-.822h-.055c-.618.007-1.224.44-1.453 1.07-.24.62-.103 1.397.376 1.916 0 0-.061-.05-.16-.165a1.862 1.862 0 0 1-.332-.573 1.953 1.953 0 0 1-.072-1.054c.088-.406.34-.864.8-1.153a1.757 1.757 0 0 1 1.69-.09c.29.132.545.354.743.626.19.277.325.608.354.962.037.351-.027.721-.19 1.05a1.78 1.78 0 0 1-.766.788c-.238.128-.51.193-.781.193"/>
                <path fill="#2B2C2A" d="M41.433 8.808c-.386 0-.739-.375-.81-.88-.075-.54.201-1.025.618-1.083a.597.597 0 0 1 .082-.006c.317 0 .612.254.746.625a.414.414 0 0 0-.129-.019.525.525 0 0 0-.073.005c-.161.023-.282.112-.27.2.01.075.113.124.242.124a.523.523 0 0 0 .073-.005.427.427 0 0 0 .214-.087.985.985 0 0 1 .006.036c.076.54-.2 1.026-.617 1.084a.597.597 0 0 1-.082.006"/>
                <path fill="#FFFFFE" d="M41.87 8.108c-.146 0-.26-.1-.273-.25a.404.404 0 0 1 .387-.413.263.263 0 0 1 .272.25.366.366 0 0 1-.063.227.412.412 0 0 1-.241.175.336.336 0 0 1-.083.01"/>
                <path fill="#92938F" d="M40.41 10.508c-.122 0-.238-.005-.347-.015-1.36-.13-2.142-2.884-2.365-3.8.021-.015.043-.031.063-.048l.025.102c.057.225.141.537.254.885.225.696.565 1.538 1.013 2.11.298.384.64.643 1.017.678.106.01.22.015.34.015h.005c.829 0 1.937-.24 2.91-.616a6.877 6.877 0 0 0 1.325-.665l.017.076c-1.12.74-2.996 1.278-4.257 1.278m5.429-3.185c.166-1.544-.846-2.948-1.416-3.605l.031-.003c.58.675 1.567 2.075 1.385 3.608"/>
                <path fill="#0B0B09" d="M28.604 9.013c1.09-.896 2.425-1.612 3.793-1.968.792-.206 1.554-.105 2.303-.004.934.125 1.848.251 2.78-.216.515-.259.692-.68 1.131-1.084 1.733-1.596 4.362-1.97 6.607-2.12.588-.04.544-.948-.045-.908-2.257.152-4.67.53-6.559 1.867-.44.312-.848.674-1.184 1.097-.082.102-.15.277-.248.36-.127.109-.02.042.06-.025.074-.06.124-.122-.048-.05-.827.344-1.277.256-2.076.066-.976-.233-2.05-.1-3.007.154-1.439.382-2.866 1.132-4.014 2.075-.45.369.052 1.13.507.756"/>
                <path fill="#DED2CB" d="M44.543 3.904l-.027-.046c.238-.03.472-.055.702-.077.25-.024.385-.27.414-.54-.018.29-.154.563-.418.588-.22.021-.444.046-.67.075"/>
                <path fill="#6E6864" d="M44.673 9.256l-.006-.026c.389-.256.687-.537.837-.827.188-.362.292-.724.335-1.08-.04.367-.145.74-.339 1.114-.148.288-.443.565-.827.82m-.193-5.47l-.053-.089.173-.023.052.09-.172.023"/>
                <path fill="#DED2CC" d="M44.65 9.154l-.035-.152c.332-1.453.01-2.998-.757-4.27a3.472 3.472 0 0 0-.758-.884c.415-.066.829-.117 1.237-.156.182.207.417.498.644.85.417.645.807 1.495.807 2.405 0 .463-.1.942-.349 1.422-.136.265-.412.532-.779.778l-.01.007"/>
                <path fill="#817B77" d="M44.667 9.23a4.793 4.793 0 0 0-.017-.076l.01-.007c.367-.246.643-.513.78-.778.248-.48.347-.959.348-1.422 0-.91-.39-1.76-.807-2.405a7.245 7.245 0 0 0-.644-.85l.09-.009.027.032-.031.003c.57.657 1.582 2.061 1.416 3.605a3.138 3.138 0 0 1-.335 1.08c-.15.29-.448.571-.837.827"/>
                <path fill="#0B0B09" d="M43.1 3.848a1.514 1.514 0 0 0-.017-.014 80.042 80.042 0 0 1-.262-.819 22.825 22.825 0 0 1 2.385-.27c.3 0 .446.256.426.496a.43.43 0 0 1-.414.38c-.23.015-.464.033-.702.054l-.09.008-.09.009c-.407.04-.821.09-1.236.156"/>
                <path fill="#6A473F" d="M20.977 52.737s4.26-3.18 7.648-5.043c3.387-1.864 6.009-4.495 6.009-4.495s.546-4.167 1.53-5.153c.983-.987 2.403-2.96 2.73-3.509.329-.548 1.093.987.438 1.974-.656.986-2.185 2.083-1.639 3.07.546.986 3.715.657 4.261.438.546-.22 5.9-2.083 6.555-1.206.656.877-2.95 1.645-2.95 1.645l-3.496 3.837s-5.463.439-5.79 1.096c-.328.658-8.74 9.758-10.38 10.745-1.638.987-5.6 2.697-6.296 1.568-.696-1.13.397-4.638 1.38-4.967"/>
                <path fill="#525350" d="M33.599 84.225c.415-2.3 1.948-6.591 3.986-9.15-2.202 2.232-3.53 6.621-3.986 9.15M39.48 73.7c.292-.32.618-.582.909-.655-.312-.053-.615.182-.91.655"/>
                <path fill="#B24F2D" d="M51.189 62.778h.005l.252-.007c-.022-.783-.047-1.572-.077-2.346l-.675.022v2.35l.495-.02"/>
                <path fill="#4A4A47" d="M50.694 62.796v.384a.453.453 0 0 1-.903 0v-.35l-.358.01-.757.031-.137.006c-.377 2.075.194 5.217.118 7.367-.085 2.814-.085 5.629-.085 8.45 0 5.435-.088 11.067-1.023 16.402-.908 4.918-2.143 9.738-2.838 14.74a138.34 138.34 0 0 1 1.638 2.137c.744-3.27 1.536-6.574 2.261-9.881.94-4.288 1.747-8.587 2.13-12.868.372-4.65.566-21.782.454-26.446h-.005l-.495.018"/>
                <path fill="#633121" d="M49.791 63.18c0 .661.903.661.903 0v-.384-2.35-.349a.453.453 0 0 0-.903 0v3.083"/>
                <path fill="#B24F2D" d="M48.539 62.877l.137-.006.757-.031.358-.01v-2.346l-1.18.044-2.382.09v2.347l2.31-.088"/>
                <path fill="#6A6A67" d="M41.23 73.764c.022.065.036.121.05.187 1.88 7.41 2.037 15.791 1.419 23.282-.227 2.88-.575 5.792-1.004 8.693.79 1.07 1.613 2.119 2.445 3.174.191.243.377.49.571.736.695-5.002 1.93-9.822 2.838-14.74.935-5.335 1.023-10.967 1.023-16.402 0-2.821 0-5.636.085-8.45.076-2.15-.495-5.292-.118-7.367l-2.31.088v.402a.454.454 0 0 1-.905 0V63l-2.048.075-1.74.065v.518a.453.453 0 0 1-.902 0v-.483l-1.946.075.019.68 1.848-.069.133 9.184c.29.05.504.254.542.72"/>
                <path fill="#633121" d="M45.324 63.367c0 .662.905.662.905 0v-.402-2.347-.34a.455.455 0 0 0-.905 0v3.089"/>
                <path fill="#B24F2D" d="M43.276 63.074l2.048-.075v-2.35l-2.114.079-1.673.065v2.346l1.739-.065"/>
                <path fill="#575754" d="M43.25 117.973c.078.075.16.15.236.222.347.33.695.649 1.053.948a21.248 21.248 0 0 0 2.318 1.754c.028-.315.06-.64.09-.974.54-.68 1.029-1.391 1.029-2.203 0-.162-.282-.62-.7-1.204-.41-.583-.96-1.288-1.499-1.928-.514-.618-1.014-1.183-1.378-1.526-.15-.143-.311-.287-.465-.437a40.06 40.06 0 0 1-2.83-2.939c-2.228-2.543-4.197-5.473-5.462-8.764a41.98 41.98 0 0 1-1.647-5.707c-.754-3.595-1.003-7.355-.396-10.99.456-2.529 1.784-6.918 3.986-9.15.593-.744 1.229-1.343 1.893-1.702h.002c.294-.24.597-.359.909-.331.105-.013.206-.014.299.002l-.133-9.184-.032-.605-1.835-.006-1.17.046v.584a.453.453 0 0 1-.903 0v-.552l-.725.028-1.602.06-1.589.055-.098.006v.403c0 .35-.249.512-.484.5-.59 3.228-1.209 8.939-1.692 14.034.002.221.008.443.024.664.511 6.116 0 12.43 1.108 18.447.224 1.226.47 2.477.738 3.722.358.824.744 1.657 1.154 2.496 1.823 3.729 4.126 7.58 6.762 10.858a35.758 35.758 0 0 0 3.04 3.373"/>
                <path fill="#633121" d="M40.634 63.657c0 .665.903.665.903 0v-.518-2.346-.218a.453.453 0 0 0-.903 0V63.657"/>
                <path fill="#B24F2D" d="M38.688 63.249l1.946-.075V60.82l-2.012.075-1.105.04v2.36l1.17-.047"/>
                <path fill="#633121" d="M36.615 63.879c0 .664.902.664.902 0v-.584-2.359-.14a.453.453 0 0 0-.902 0V63.88"/>
                <path fill="#B24F2D" d="M32.7 63.47l1.588-.056 1.602-.06.725-.027V60.97l-.796.028-2.165.09-1.02.035H32.6v2.352l.098-.006"/>
                <path fill="#633121" d="M31.699 63.879c0 .256.134.412.295.477.044.01.085.016.123.022.235.013.484-.15.484-.499v-.403-2.352-.328a.453.453 0 0 0-.902 0V63.88"/>
                <path fill="#4A4A47" d="M30.45 79.077a10.839 10.839 0 0 1-.025-.664c.483-5.095 1.101-10.806 1.692-14.035-.038-.006-.08-.012-.123-.022-.161-.065-.295-.221-.295-.477v-.368l-1.832.065h-.063c-.096 1.027-.192 2.05-.29 3.077l.145.015c-.396 4.119-.23 8.83-.23 12.8 0 2.77-.052 5.937.101 9.091.19 3.807.684 7.61 1.939 10.715.257.646.53 1.304.826 1.972a121.799 121.799 0 0 1-.738-3.722c-1.108-6.016-.597-12.331-1.108-18.447"/>
                <path fill="#B24F2D" d="M31.699 63.51v-2.349l-1.438.056c-.148.793-.301 1.573-.457 2.36h.063l1.832-.066"/>
                <path fill="#4A4A47" d="M44.14 109.1a127.367 127.367 0 0 1-2.445-3.174c-2.734-3.688-5.116-7.616-6.14-12.914-.64-3.935 0-8.01 1.147-11.797.6-1.776 1.644-6.369 3.457-7.292h.005a3.03 3.03 0 0 1 1.116.028 1.576 1.576 0 0 0-.05-.187c-.021-.094-.046-.184-.07-.278-.053-.053-.107-.094-.16-.134l.03-.053a1.684 1.684 0 0 0-.341-.188c-.1-.039-.2-.06-.3-.07-.291.037-.617.17-.91.332-.226.184-.448.44-.663.753a5.275 5.275 0 0 0-1.231.95c-2.038 2.558-3.57 6.849-3.986 9.15-.607 3.634-.358 7.394.396 10.989a41.98 41.98 0 0 0 1.647 5.707c1.265 3.291 3.234 6.221 5.463 8.764a40.06 40.06 0 0 0 2.83 2.94c.153.149.314.293.464.436.364.343.864.908 1.378 1.526.54.64 1.089 1.345 1.499 1.928.418.584.7 1.042.7 1.204 0 .812-.49 1.523-1.028 2.203-.03.334-.063.659-.09.974.248.168.508.328.762.477.416-1.185 1.023-2.284 1.953-3.232.156-.162.32-.322.5-.475a7.194 7.194 0 0 1-.35-.558c-.26-.44-.492-.914-.768-1.38a47.168 47.168 0 0 0-1.406-2.108 68.525 68.525 0 0 0-1.2-1.648 138.34 138.34 0 0 0-1.638-2.137c-.194-.247-.38-.493-.571-.736"/>
                <path fill="#4A4A47" d="M41.105 73.299l-.036.053c.063.04.13.08.193.134.03.094.06.184.086.278-.047-.466-.308-.67-.66-.72l.001.067c.137.044.273.107.416.188M39.48 73.373h-.002c-.664.36-1.3.958-1.893 1.703a5.275 5.275 0 0 1 1.231-.95c.215-.314.437-.569.664-.753"/>
                <path fill="#4A4A47" d="M41.047 73.087a1.092 1.092 0 0 0-.658-.01c.218.041.438.143.66.328l-.002-.318"/>
            </g>
        </g>
        <g transform="translate(13.802 -3)">
            <mask id="j" fill="#fff">
                <use xlink:href="#i"/>
            </mask>
            <g mask="url(#j)">
                <g transform="translate(15.479 23.157)">
                    <mask id="l" fill="#fff">
                        <use xlink:href="#k"/>
                    </mask>
                    <path fill="#4A4A47" d="M18.004 115.408a1.547 1.547 0 0 0-.198-.184c-.032.185-.062.371-.089.558.14.056.259.117.429.185.308.123.175.685-.137.561-.117-.046-.244-.105-.369-.158-.02.175-.04.349-.058.524l.02.01c.09.017.18.033.27.058.32.092.184.654-.136.562a2.334 2.334 0 0 0-.208-.046c-.035.408-.065.818-.093 1.228-.014.16-.022.315-.033.475-.14-.1-.29-.194-.445-.288l-.044-.021a4.845 4.845 0 0 0-.407-.219v-.003c-.08-.14-.197-.24-.359-.228a.067.067 0 0 0-.06.035c-.15-.072-.3-.135-.445-.188h-.006a.208.208 0 0 0-.01-.056c-.061-.221-.242-.496-.466-.44-.04.013-.06.053-.065.103a.385.385 0 0 0 .06.219c-.131-.04-.249-.075-.35-.103a10.95 10.95 0 0 1-.364-.066c-.093-.243-.224-.452-.413-.586-.175-.128-.339.047-.339.23h-.002c.237-1.9.896-4.32 1.572-6.72a21.22 21.22 0 0 0 3.081 2.23 12.867 12.867 0 0 0-.418 1.54c.167.114.305.219.443.376.232.267-.129.68-.361.412zm-5.589-17.775C9.681 93.945 7.3 90.016 6.274 84.718c-.64-3.934 0-8.01 1.148-11.797.599-1.775 1.644-6.368 3.456-7.292h.006a3.03 3.03 0 0 1 1.115.028c1.882 7.41 2.037 15.791 1.42 23.283-.227 2.88-.575 5.79-1.004 8.693zm11.596 14.246c-.243-.64-.703-1.285-1.26-1.688-.454-.343-.968-.524-1.48-.424l-.006.006c-.15-.128-.371-.247-.472-.4a7.194 7.194 0 0 1-.35-.558c-.26-.44-.492-.914-.769-1.379a47.168 47.168 0 0 0-1.405-2.11 68.923 68.923 0 0 0-1.2-1.647c.744-3.27 1.536-6.574 2.261-9.881.94-4.287 1.747-8.587 2.13-12.867.372-4.65.566-21.782.454-26.447l.251-.006c-.021-.783-.046-1.573-.076-2.347l-.676.022v-.35a.453.453 0 0 0-.902 0v.388l-1.18.043-2.382.09v-.34a.455.455 0 0 0-.906 0v.372l-2.113.078-1.674.066v-.219a.453.453 0 0 0-.902 0v.247l-2.012.074-1.105.04v-.14a.453.453 0 0 0-.902 0v.175l-.796.028-2.165.09-1.02.035H3.32v-.327a.453.453 0 0 0-.902 0v.365l-1.439.056c-.147.792-.3 1.573-.456 2.359-.096 1.026-.192 2.05-.29 3.076l.145.016c-.397 4.118-.23 8.83-.23 12.799 0 2.77-.052 5.937.101 9.092.189 3.807.684 7.61 1.939 10.714.257.646.53 1.305.826 1.972.358.824.743 1.657 1.154 2.496 1.823 3.73 4.125 7.58 6.761 10.859-.158.82-.322 1.635-.492 2.446a226.192 226.192 0 0 1-.785 3.71c-.486 2.218-1.006 4.483-1.684 6.596-.188.602-.831 1.276-1.058 1.847l.065-.008-.002.024c-.235 2.221.656 2.274 2.581 2.568 2.338.215 4.9.065 7.443-1.37a.567.567 0 0 0 .07-.04c-.002.046-.007.087-.013.133-.112 1.305.43 1.732 1.13 1.685.472-.025 1.022-.262 1.49-.59 1.72-1.232 2.616-3.422 3.382-5.535.7-1.887 1.788-3.856.954-5.894z" mask="url(#l)"/>
                    <path fill="#6A473F" d="M47.681 4.212c4.158.078 7.854-1.83 9.566-1.051 2.14.972-5.17 4.548-5.773 4.923-.377.235-5.68.108-5.7.466-.02.357-1.991 15.914-2.355 17.19-.364 1.276-2.654 3.1-3.71 2.701-1.057-.4-2.233-2.678-2.117-4.004.115-1.326 5.968-16.295 6.079-16.716.111-.421-1.13-2.619.562-3.994.723-.588 2.178-2.193 1.64-3.599 0 0 2.14-.574.977 2.392-.105.266-.38.374-.539.704-.353.731.544.972 1.37.988" mask="url(#l)"/>
                </g>
                <path fill="#5D3835" d="M63.954 28.744l-.441-.1c-.28-.063-.678-.161-1.154-.218-.474-.056-1.034-.05-1.579.16a2.016 2.016 0 0 0-.742.481c-.21.22-.377.508-.405.84 0 0-.01-.036-.02-.108a1.092 1.092 0 0 1 .013-.32c.045-.276.234-.685.66-.994.417-.31 1.042-.492 1.706-.428.665.06 1.324.338 1.962.687M71.996 28.38s-.011-.048-.051-.125a.777.777 0 0 0-.246-.275 1.02 1.02 0 0 0-.531-.182c-.22-.017-.474.024-.752.098a9.372 9.372 0 0 0-1.852.712c-.328.164-.645.363-.989.569-.342.2-.73.393-1.144.426l.125-.048c.08-.033.196-.088.335-.171.283-.161.624-.47 1.105-.816a5.96 5.96 0 0 1 1.871-.866c.373-.091.777-.193 1.22-.139.216.028.437.111.607.256.171.141.295.348.302.56"/>
                <path fill="#5D3835" d="M72.705 27.452c-.009.01.007-.24-.27-.464-.133-.11-.334-.2-.57-.225-.234-.025-.505.043-.782.171-.28.126-.57.318-.908.498a8.06 8.06 0 0 1-1.094.478c-.78.28-1.635.473-2.495.666 0 0 .178-.09.507-.232.328-.143.81-.33 1.394-.56.587-.233 1.259-.511 1.981-.91.369-.186.809-.397 1.307-.347.242.03.475.131.656.294.183.158.303.4.274.63"/>
                <path fill="#5D3835" d="M73.008 26.6l-.12-.072a1.79 1.79 0 0 0-.359-.149c-.318-.096-.806-.127-1.36.016-.56.134-1.173.453-1.899.711-.731.254-1.543.368-2.355.433 0 0 .174-.062.49-.161.313-.1.77-.234 1.312-.425.271-.097.558-.213.87-.349.311-.133.65-.28 1.027-.395.374-.115.799-.187 1.229-.142.426.04.87.21 1.165.534"/>
                <path fill="#5D3835" d="M66.974 30.245l-.043-.065a1.659 1.659 0 0 1-.11-.189 2.528 2.528 0 0 1-.236-.743 3.707 3.707 0 0 1 .005-1.088c.028-.197.07-.397.123-.6a.831.831 0 0 1 .137-.322.436.436 0 0 1 .149-.13.218.218 0 0 1 .209.002c0 .002-.033-.008-.085.006-.053.013-.104.063-.131.139a.65.65 0 0 0-.035.282c.005.122.006.26.004.41-.003.3-.024.65-.038 1.033-.012.383-.023.799.05 1.265"/>
                <path fill="#D3D3CC" d="M28.946 41.389s7.819-2.604 8.902-1.146c1.084 1.457 13.88 4.876 13.88 4.876l-1.173 6.275-13.549-1.7c-1.262-.157-1.637 1.988-1.724 3.261l1.944 22.208-17.776 10.79-2.64-8.202.812-22.665-4.577 10.564-5.936-1.303s6.29-21.72 7.83-22.428c2.495-1.145 5.076-1.026 7.164-.648 0 0 .427-.546.615-.506 1.812.38 3.133 1.518 3.597 1.411 1.023-.234 2.63-.787 2.63-.787"/>
                <path fill="#1C1A19" d="M33.804 75.744l-14.963-.087.141 1.89 14.652.041.17-1.844"/>
                <path fill="#FFFFFE" d="M29.805 77.641l-3.208-.022a.182.182 0 0 1-.18-.184l.011-1.667c0-.1.083-.182.183-.181l3.208.022c.1 0 .182.083.18.184l-.01 1.667c-.002.101-.084.182-.184.181"/>
                <path fill="#525350" d="M32.798 77.632l-.656-.004.013-1.904.656.005-.013 1.903M23.354 77.562l-.656-.005.013-1.903.656.005-.013 1.903"/>
                <path fill="#24AC79" d="M19.4 40.793l-1.653 17.355.102 13.472s4.3 5.818 6.303.5c1.024-2.72.73-20.459.73-20.459l-2.973-10.524-2.509-.344"/>
                <g transform="translate(5.226 40.06)">
                    <mask id="n" fill="#fff">
                        <use xlink:href="#m"/>
                    </mask>
                    <path fill="#24AC79" d="M25.425.77l-.06 2.525-.212 10.484s.357 17.13 1.085 19.023c1.434 3.727 4.633-.85 4.633-.85l-1.076-13.038L27.957.012 25.425.77" mask="url(#n)"/>
                    <path fill="#FFFFFE" d="M1.512 24.008l6.956 1.303c.539.12.681.752.65 1.304-.044.764-.161 1.374-.742 2.14-.781 1.031-5.442-.332-7.522-1.006a1.236 1.236 0 0 1-.836-1.386c.106-.614.21-.9.38-1.517.16-.578.53-.967 1.114-.838" mask="url(#n)"/>
                </g>
                <path fill="#FFFFFE" d="M54.917 45.427l-1.59 6.92c-.142.534-.777.65-1.325.596-.759-.076-1.361-.22-2.1-.834-.994-.827.56-5.442 1.318-7.5a1.23 1.23 0 0 1 1.415-.779c.607.132.886.248 1.494.446.57.184.941.57.788 1.15"/>
                <g transform="translate(7.277 3.462)">
                    <mask id="p" fill="#fff">
                        <use xlink:href="#o"/>
                    </mask>
                    <path fill="#FFFFFE" d="M15.315 37.284l.336-1.939s.535-.081.641.168c.107.25 3.885 6.03 3.885 6.03s1.437-3.67 1.347-4.063l-1.058-2.686s.487-.667.798-.144c.31.522.918 1.892.918 1.892l.823 2.427-.605 6.147-1.268-3.139-1.498.311s-2.209 3.982-2.315 3.732c-.107-.25-2.004-8.736-2.004-8.736" mask="url(#p)"/>
                    <path fill="#0B0B09" d="M20.983 16.483s-.24-10.688-2.493-13.126C16.297.983 8.78-4.82.37 8.829A2.235 2.235 0 0 0 .35 11.13l7.665 13.073 12.97-7.72" mask="url(#p)"/>
                </g>
                <path fill="#592E2A" d="M26.756 34.09s1.153 5.143 2.045 6.851c.278.533-1.348 4.064-1.348 4.064l-3.941-4.09s.569-2.098-1.644-7.635c0 0 3.196 4.86 4.888.81"/>
                <path fill="#6A473F" d="M26.338 14.039s7.17 14.904.73 22.06c0 0-3.905 1.426-10.44-6.687 0 0-1.469 2.339-3.833-3.467-2.023-4.966 1.939-1.288 1.939-1.288s.857-3.015.51-3.759c-.345-.744-1.671-3.486-1.671-3.486s8.348-5.461 12.765-3.373"/>
                <path fill="#0B0B09" d="M27.702 17.818s-.124-.025-.307-.076c-.093-.024-.21-.02-.326-.04-.123.015-.249.01-.378.055-.514.126-1.113.696-1.857 1.349 0 0-.008-.12.031-.326.04-.205.124-.496.328-.81.202-.304.534-.672 1.081-.802.068-.013.137-.025.206-.035.07-.009.144.001.215.005.144 0 .284.055.416.108s.241.156.347.239c.094.105.174.22.244.333M16.69 20.987s.017-.126.078-.354c.068-.22.216-.553.568-.834.346-.287.911-.422 1.43-.317a2.378 2.378 0 0 1 1.357.801l-.342-.036c-.212-.02-.506-.054-.837-.07-.333-.015-.688-.012-1.045.079-.097.01-.176.064-.278.09-.096.04-.186.099-.296.148-.092.07-.2.137-.31.216-.098.088-.206.18-.325.277"/>
                <path fill="#592E2A" d="M26.583 27.105s-1.239 1.364-2.88 1.072c-1.133-.2.404.412.745.455.654.082 1.717-.296 2.135-1.527"/>
                <path fill="#FFFFFE" d="M25.576 23.75a1.891 1.891 0 0 1-.493-.89c-.236-.981.329-1.957 1.261-2.179.933-.222 1.881.393 2.117 1.373.236.981-.328 1.956-1.261 2.179-.6.143-1.206-.06-1.624-.484"/>
                <path fill="#0B0B09" d="M25.589 23.736s.06.061.19.155c.129.092.333.215.62.282.284.068.658.07 1.028-.098.368-.16.717-.502.88-.971a1.822 1.822 0 0 0-.17-1.532c-.286-.483-.854-.843-1.472-.82-.618.006-1.224.439-1.453 1.068-.24.62-.103 1.397.377 1.916 0 0-.062-.05-.16-.164a1.849 1.849 0 0 1-.333-.573 1.953 1.953 0 0 1-.072-1.054c.088-.407.34-.865.8-1.154a1.763 1.763 0 0 1 1.69-.09c.29.133.545.355.744.626.189.278.325.608.354.962.036.352-.028.722-.19 1.051a1.78 1.78 0 0 1-.766.787 1.673 1.673 0 0 1-1.1.163 1.754 1.754 0 0 1-.967-.554"/>
                <path fill="#0B0B09" d="M26.822 22.792c.076.54.475.931.891.873.417-.058.693-.543.617-1.083-.075-.54-.474-.932-.89-.874-.417.058-.693.543-.618 1.084"/>
                <path fill="#FFFFFE" d="M27.796 22.722c.014.177.172.284.354.239a.404.404 0 0 0 .304-.403c-.014-.177-.172-.284-.354-.24a.404.404 0 0 0-.304.404M18.51 25.743a1.89 1.89 0 0 1-.492-.89c-.236-.98.329-1.956 1.261-2.178.933-.223 1.881.392 2.117 1.373.236.98-.329 1.956-1.262 2.178-.599.143-1.205-.06-1.624-.483"/>
                <path fill="#0B0B09" d="M18.524 25.73s.06.06.19.155c.129.091.333.215.62.282a1.6 1.6 0 0 0 1.027-.098c.369-.16.718-.502.88-.971a1.822 1.822 0 0 0-.168-1.532c-.287-.483-.855-.844-1.473-.821-.617.006-1.224.44-1.453 1.068-.24.62-.103 1.398.377 1.917 0 0-.062-.05-.16-.165a1.847 1.847 0 0 1-.333-.573 1.953 1.953 0 0 1-.072-1.054c.088-.407.34-.864.8-1.153a1.764 1.764 0 0 1 1.69-.09c.29.132.545.354.744.626.189.277.325.608.354.961.036.352-.028.722-.19 1.052a1.78 1.78 0 0 1-.766.786 1.673 1.673 0 0 1-1.1.163 1.755 1.755 0 0 1-.967-.553"/>
                <path fill="#0B0B09" d="M19.757 24.785c.076.54.475.932.891.874.417-.058.693-.543.617-1.084-.076-.54-.475-.931-.89-.873-.417.058-.694.543-.618 1.083"/>
                <path fill="#FFFFFE" d="M20.73 24.715c.015.177.173.284.355.24a.404.404 0 0 0 .304-.403c-.014-.178-.172-.285-.354-.24a.404.404 0 0 0-.304.403M27.332 29.748a10.68 10.68 0 0 1-3.277.912c-.373.04-.698.057-.97.06l.035.045.135.158a5.87 5.87 0 0 0 1.285.023 6.402 6.402 0 0 0 1.944-.514c.344-.154.628-.32.862-.476l-.014-.208"/>
                <path fill="#592E2A" d="M27.185 31.67s-.553.69-.741.812a1.452 1.452 0 0 1-.725.227c-.281.011-.809-.276-1.045-.471 0 0 1.723.037 2.51-.569"/>
                <path fill="#7C7D7A" d="M15.154 23.17l-.073.009c0 .002.125.951.412 1.96.144.505.328 1.026.56 1.452.232.426.512.763.863.889.357.126.844.184 1.394.184.752 0 1.62-.11 2.415-.323.795-.212 1.517-.523 1.978-.935.344-.308.462-.792.463-1.327 0-.753-.236-1.621-.47-2.305a12.828 12.828 0 0 0-.47-1.182l-.01-.023-.023-.012c-.007-.003-.74-.368-1.973-.368-1.262 0-3.049.384-5.11 1.921l-.035.026.006.043.073-.01.043.06c2.039-1.52 3.79-1.892 5.023-1.893.602 0 1.08.09 1.408.178a3.715 3.715 0 0 1 .469.16l.023.012.008.003.032-.066-.066.032.04.086c.088.198.31.715.51 1.342.199.626.375 1.364.375 1.996 0 .515-.117.954-.413 1.217-.431.387-1.137.695-1.918.903a9.582 9.582 0 0 1-2.378.319c-.539 0-1.014-.06-1.346-.177-.293-.102-.56-.408-.782-.82-.336-.617-.577-1.46-.732-2.146a16.34 16.34 0 0 1-.224-1.215l-.072.01.043.058-.043-.059M30.254 18.154l-.05.054.02.018c.096.093.539.533.956 1.179.417.646.806 1.496.806 2.405 0 .463-.1.942-.348 1.422-.137.265-.413.532-.78.778-1.098.74-2.996 1.29-4.25 1.288-.12 0-.233-.005-.34-.015-.377-.035-.719-.294-1.017-.677-.447-.573-.788-1.415-1.013-2.11a13.706 13.706 0 0 1-.337-1.247l-.072.015.063.037.004-.007c.098-.155 1.8-2.81 6.362-3.067l-.004-.073-.05.054.05-.054-.004-.074c-2.384.134-4.005.917-5.03 1.669-1.023.752-1.45 1.471-1.454 1.477l-.014.025.005.028c.001.002.202.99.609 2 .204.506.458 1.018.77 1.418.31.398.68.69 1.119.732.111.01.23.016.353.016.863 0 1.996-.247 2.992-.635a6.988 6.988 0 0 0 1.34-.678c.378-.255.672-.533.828-.832.26-.502.365-1.006.364-1.49 0-1.016-.46-1.941-.915-2.614-.456-.673-.911-1.094-.914-1.096l-.022-.021-.031.001.004.074"/>
                <path fill="#876961" d="M18.307 27.518c-.538 0-1.012-.06-1.343-.177-.293-.102-.56-.408-.782-.82-.336-.617-.577-1.46-.732-2.146a16.34 16.34 0 0 1-.17-.866v-.002c.991-.722 2.141-1.294 3.315-1.599.338-.088.67-.12 1-.12.44 0 .874.058 1.304.116.43.058.855.116 1.28.116l.074-.001c.107.259.254.636.39 1.064.2.626.376 1.364.376 1.996 0 .515-.117.954-.413 1.217-.431.387-1.137.695-1.918.903a9.582 9.582 0 0 1-2.378.319h-.003m.513-1.524a1.717 1.717 0 0 0 .99.32c.271 0 .543-.066.78-.194.337-.171.602-.46.766-.786.163-.33.227-.7.19-1.052a2.017 2.017 0 0 0-.353-.961 1.931 1.931 0 0 0-.743-.626 1.757 1.757 0 0 0-1.69.09c-.462.289-.713.746-.801 1.153-.088.415-.023.782.072 1.054.076.207.171.363.255.476a1.871 1.871 0 0 0 .534.526"/>
                <path fill="#FFFFFE" d="M19.705 26.21a1.6 1.6 0 0 1-.37-.043 1.742 1.742 0 0 1-.622-.282 1.735 1.735 0 0 1-.19-.155c.09.099.189.188.297.264a1.833 1.833 0 0 1-.534-.526 1.926 1.926 0 0 0 .238.262 1.888 1.888 0 0 1-.377-1.917c.229-.629.836-1.062 1.453-1.068l.055-.001c.597 0 1.14.353 1.418.822.295.483.334 1.068.169 1.532a1.656 1.656 0 0 1-.88.97c-.225.103-.451.142-.657.142m.751-2.514a.597.597 0 0 0-.082.006c-.416.058-.693.543-.617 1.083.07.505.424.88.81.88a.597.597 0 0 0 .081-.006c.417-.058.693-.543.617-1.084l-.005-.036c.04-.034.06-.073.055-.113-.007-.047-.05-.084-.112-.105-.134-.371-.43-.625-.747-.625"/>
                <path fill="#2B2C2A" d="M19.81 26.314a1.717 1.717 0 0 1-.99-.32 1.795 1.795 0 0 1-.296-.264s.06.06.19.155c.129.091.333.215.62.282a1.6 1.6 0 0 0 1.027-.098c.369-.16.718-.502.88-.971a1.822 1.822 0 0 0-.168-1.532c-.278-.469-.821-.822-1.418-.822H19.6c-.617.007-1.224.44-1.453 1.07-.24.62-.103 1.397.377 1.916 0 0-.062-.05-.16-.165a1.862 1.862 0 0 1-.332-.573 1.953 1.953 0 0 1-.073-1.054c.088-.407.34-.864.8-1.153a1.757 1.757 0 0 1 1.69-.09c.29.132.545.354.744.626.189.277.325.608.354.961.036.352-.028.722-.19 1.052a1.78 1.78 0 0 1-.766.786c-.238.128-.51.194-.782.194"/>
                <path fill="#2B2C2A" d="M20.566 25.665c-.385 0-.738-.375-.809-.88-.076-.54.2-1.025.617-1.083a.597.597 0 0 1 .082-.006c.318 0 .613.254.747.625a.409.409 0 0 0-.13-.019.525.525 0 0 0-.073.005c-.16.023-.282.112-.27.2.011.075.113.124.242.124a.525.525 0 0 0 .073-.005.427.427 0 0 0 .215-.087l.005.036c.076.54-.2 1.026-.617 1.084a.597.597 0 0 1-.082.006"/>
                <path fill="#FFFFFE" d="M21.003 24.965c-.145 0-.26-.1-.272-.25a.404.404 0 0 1 .386-.413.263.263 0 0 1 .272.25.367.367 0 0 1-.062.227.412.412 0 0 1-.242.175.337.337 0 0 1-.082.01"/>
                <path fill="#92938F" d="M18.31 27.591c-.544 0-1.026-.059-1.37-.18-1.035-.366-1.56-2.88-1.726-3.856a9.45 9.45 0 0 1 .066-.048v.002c.037.219.093.523.17.866.155.686.396 1.529.732 2.146.223.412.49.718.782.82.331.117.805.177 1.343.177h.003c.739 0 1.596-.11 2.378-.319.781-.208 1.487-.516 1.918-.903.296-.263.413-.702.413-1.217 0-.632-.176-1.37-.376-1.996a13.492 13.492 0 0 0-.39-1.064l.078-.002c.401.971 1.296 3.465.324 4.334-.893.798-2.854 1.24-4.345 1.24"/>
                <path fill="#FFFFFE" d="M29.523 24.683c-.279-2.045-.777-4.013-1.297-5.687l-.004-.07c.356-.087.716-.157 1.077-.215.3.248.556.55.757.885.767 1.272 1.09 2.817.757 4.269l.035.152c-.37.248-.83.474-1.325.666"/>
                <path fill="#2B2C2A" d="M28.302 19.257l-.097-.312.082-.02.015.332"/>
                <path fill="#876961" d="M26.613 25.298h-.005c-.12 0-.233-.005-.34-.015-.377-.035-.719-.294-1.017-.677-.447-.573-.788-1.415-1.013-2.11a13.706 13.706 0 0 1-.278-.988c.318-.252.501-.583.85-.904.937-.863 2.136-1.368 3.395-1.675l.02.067c.52 1.674 1.019 3.642 1.298 5.687-.973.375-2.081.615-2.91.615M25.884 24a1.715 1.715 0 0 0 .99.32c.272 0 .544-.065.782-.193.336-.172.6-.46.765-.787.163-.33.227-.7.19-1.051a2.017 2.017 0 0 0-.353-.962 1.93 1.93 0 0 0-.744-.625 1.757 1.757 0 0 0-1.69.09c-.46.288-.712.746-.8 1.153-.088.414-.023.781.072 1.054.076.207.171.362.255.475a1.855 1.855 0 0 0 .533.526"/>
                <path fill="#FFFFFE" d="M26.77 24.216a1.6 1.6 0 0 1-.37-.043 1.742 1.742 0 0 1-.621-.282c-.13-.094-.19-.155-.19-.155.088.099.187.187.295.264a1.818 1.818 0 0 1-.533-.526c.027.037.054.07.078.098.098.114.16.164.16.164a1.889 1.889 0 0 1-.377-1.916c.229-.63.835-1.062 1.453-1.069h.055c.597 0 1.14.353 1.418.821.295.483.334 1.069.169 1.532a1.656 1.656 0 0 1-.88.971c-.225.102-.451.141-.657.141m.751-2.513a.597.597 0 0 0-.082.005c-.416.058-.692.543-.617 1.084.07.504.424.879.81.879a.597.597 0 0 0 .081-.006c.417-.058.693-.543.617-1.083a.985.985 0 0 0-.005-.037c.04-.033.06-.073.055-.113-.007-.046-.05-.083-.112-.104-.134-.372-.43-.625-.747-.625"/>
                <path fill="#2B2C2A" d="M26.874 24.32a1.715 1.715 0 0 1-.99-.32 1.787 1.787 0 0 1-.295-.264s.06.061.19.155c.129.092.333.215.62.282a1.6 1.6 0 0 0 1.028-.098c.368-.16.717-.502.88-.971a1.822 1.822 0 0 0-.17-1.532c-.277-.468-.82-.822-1.417-.822l-.055.001c-.618.007-1.224.44-1.453 1.069-.24.62-.103 1.397.377 1.916 0 0-.062-.05-.16-.164a1.862 1.862 0 0 1-.333-.573 1.953 1.953 0 0 1-.072-1.054c.088-.407.34-.865.8-1.154a1.757 1.757 0 0 1 1.69-.09c.29.133.545.355.744.626.189.278.325.608.354.962.036.352-.028.722-.19 1.051a1.78 1.78 0 0 1-.766.787c-.238.128-.51.193-.782.193"/>
                <path fill="#2B2C2A" d="M27.631 23.671c-.385 0-.738-.375-.809-.88-.075-.54.2-1.025.617-1.083a.597.597 0 0 1 .082-.005c.318 0 .613.253.747.625a.414.414 0 0 0-.13-.02.525.525 0 0 0-.073.006c-.16.022-.282.112-.27.2.011.074.113.124.242.124a.523.523 0 0 0 .073-.006.427.427 0 0 0 .215-.087.985.985 0 0 1 .005.037c.076.54-.2 1.025-.617 1.083a.597.597 0 0 1-.082.006"/>
                <path fill="#FFFFFE" d="M28.068 22.971c-.145 0-.26-.1-.272-.25a.404.404 0 0 1 .386-.413.263.263 0 0 1 .272.25.366.366 0 0 1-.062.227.412.412 0 0 1-.242.176.336.336 0 0 1-.082.01"/>
                <path fill="#92938F" d="M26.608 25.371c-.122 0-.237-.005-.347-.015-1.359-.129-2.142-2.884-2.365-3.8.022-.015.043-.031.064-.048l.025.102c.056.225.14.537.253.885.225.696.566 1.538 1.013 2.111.298.383.64.642 1.017.677.107.01.22.015.34.015h.005c.829 0 1.937-.24 2.91-.615a6.877 6.877 0 0 0 1.325-.666l.017.077c-1.12.739-2.996 1.277-4.257 1.277m5.43-3.184c.166-1.545-.846-2.949-1.417-3.606l.032-.003c.579.676 1.566 2.076 1.384 3.609"/>
                <path fill="#0B0B09" d="M14.802 23.876c1.09-.895 2.425-1.612 3.793-1.968.793-.206 1.554-.105 2.304-.004.933.126 1.848.251 2.78-.216.515-.259.692-.68 1.13-1.084 1.733-1.595 4.362-1.969 6.608-2.12.588-.04.543-.948-.045-.908-2.258.152-4.67.53-6.56 1.867-.44.312-.848.675-1.184 1.097-.081.102-.15.277-.248.361-.127.108-.019.041.061-.026.073-.06.124-.122-.049-.05-.826.344-1.277.257-2.076.066-.976-.233-2.05-.1-3.007.155-1.438.381-2.866 1.131-4.014 2.074-.45.37.052 1.13.507.756"/>
                <path fill="#DED2CB" d="M30.742 18.767l-.027-.045c.237-.03.471-.056.702-.078.248-.024.384-.269.413-.54-.017.29-.154.563-.417.589-.22.02-.445.045-.671.074"/>
                <path fill="#6E6864" d="M30.87 24.12l-.005-.026c.39-.257.687-.537.838-.828.187-.362.292-.724.334-1.08-.04.367-.145.74-.338 1.114-.15.288-.444.566-.828.82m-.193-5.47l-.053-.088.173-.024.052.09-.172.023"/>
                <path fill="#DED2CC" d="M30.848 24.017l-.035-.152c.332-1.452.01-2.997-.757-4.27a3.472 3.472 0 0 0-.757-.884c.414-.066.828-.116 1.236-.156.182.207.417.498.645.85.417.646.806 1.496.806 2.405 0 .463-.1.942-.348 1.422-.137.265-.413.532-.78.778l-.01.007"/>
                <path fill="#817B77" d="M30.865 24.094a4.793 4.793 0 0 0-.017-.077l.01-.007c.367-.246.643-.513.78-.778.248-.48.348-.959.348-1.422 0-.91-.39-1.76-.806-2.405a7.245 7.245 0 0 0-.645-.85l.09-.008.028.031-.032.003c.57.657 1.583 2.061 1.416 3.606a3.138 3.138 0 0 1-.334 1.079c-.15.29-.449.571-.838.828"/>
                <path fill="#0B0B09" d="M29.299 18.711a1.514 1.514 0 0 0-.018-.014 80.042 80.042 0 0 1-.261-.819 22.825 22.825 0 0 1 2.385-.269c.3 0 .445.255.425.496a.43.43 0 0 1-.413.379c-.23.015-.465.033-.702.054l-.09.009-.09.008c-.408.04-.822.09-1.236.156"/>
                <path fill="#6A473F" d="M7.175 67.6s4.261-3.18 7.648-5.043c3.387-1.864 6.01-4.495 6.01-4.495s.546-4.167 1.529-5.153c.983-.987 2.403-2.96 2.731-3.509.328-.548 1.093.987.437 1.974-.655.987-2.185 2.083-1.638 3.07.546.986 3.714.658 4.26.438.547-.219 5.9-2.083 6.556-1.206.655.877-2.95 1.645-2.95 1.645l-3.496 3.837s-5.463.439-5.79 1.097c-.329.657-8.741 9.758-10.38 10.744-1.639.987-5.6 2.698-6.296 1.568-.697-1.13.396-4.638 1.38-4.967"/>
                <path fill="#525350" d="M19.797 99.089c.416-2.301 1.948-6.592 3.986-9.15-2.202 2.23-3.53 6.62-3.986 9.15M25.678 88.564c.292-.32.618-.583.91-.655-.312-.054-.616.181-.91.655"/>
                <path fill="#B24F2D" d="M37.387 77.64h.005l.252-.005c-.022-.784-.046-1.573-.076-2.347l-.676.022v2.35l.495-.02"/>
                <path fill="#4A4A47" d="M36.892 77.66v.383a.453.453 0 0 1-.902 0v-.35l-.358.01-.758.031-.137.007c-.377 2.074.195 5.217.118 7.366-.085 2.815-.085 5.629-.085 8.45 0 5.435-.087 11.067-1.022 16.402-.908 4.918-2.144 9.738-2.838 14.74a138.34 138.34 0 0 1 1.637 2.137c.744-3.27 1.537-6.574 2.262-9.881.94-4.287 1.747-8.587 2.13-12.868.371-4.649.566-21.782.453-26.446h-.005l-.495.019"/>
                <path fill="#633121" d="M35.99 78.043c0 .662.902.662.902 0v-.383-2.35-.35a.453.453 0 0 0-.902 0v3.084"/>
                <path fill="#B24F2D" d="M34.737 77.74l.137-.006.758-.03.358-.01v-2.347l-1.181.044-2.382.09v2.347l2.31-.087"/>
                <path fill="#6A6A67" d="M27.429 88.627c.022.065.035.122.049.187 1.881 7.41 2.037 15.791 1.419 23.283-.227 2.88-.574 5.79-1.003 8.693.79 1.07 1.613 2.118 2.444 3.173.191.243.377.49.572.736.694-5.002 1.93-9.822 2.838-14.74.935-5.335 1.022-10.967 1.022-16.402 0-2.821 0-5.635.085-8.45.077-2.15-.495-5.292-.118-7.366l-2.31.087v.402a.454.454 0 0 1-.905 0v-.368l-2.048.075-1.739.066v.518a.453.453 0 0 1-.902 0v-.484l-1.947.075.02.68 1.847-.068.133 9.183c.29.05.504.254.543.72"/>
                <path fill="#633121" d="M31.522 78.23c0 .662.905.662.905 0v-.402-2.346-.34a.455.455 0 0 0-.905 0v3.088"/>
                <path fill="#B24F2D" d="M29.474 77.937l2.048-.075v-2.35l-2.114.079-1.673.065v2.347l1.739-.066"/>
                <path fill="#575754" d="M29.45 132.836c.076.075.158.15.235.222.347.33.694.649 1.052.949a21.248 21.248 0 0 0 2.319 1.753c.027-.315.06-.64.09-.973.539-.68 1.028-1.392 1.028-2.203 0-.163-.281-.621-.7-1.205-.41-.583-.96-1.288-1.498-1.928-.514-.618-1.015-1.182-1.378-1.526-.15-.143-.312-.287-.465-.436a40.06 40.06 0 0 1-2.83-2.94c-2.228-2.543-4.197-5.472-5.463-8.764a41.98 41.98 0 0 1-1.646-5.707c-.755-3.594-1.003-7.354-.397-10.99.457-2.529 1.784-6.918 3.986-9.149.594-.745 1.23-1.344 1.893-1.702l.002-.001c.294-.24.598-.358.91-.331.105-.013.205-.014.298.002l-.133-9.183-.032-.606-1.835-.006-1.17.047v.583a.453.453 0 0 1-.903 0v-.552l-.724.028-1.602.06-1.59.055-.098.007v.402c0 .35-.248.512-.483.5-.591 3.229-1.21 8.939-1.693 14.034.003.221.008.443.025.665.51 6.115 0 12.43 1.107 18.446.224 1.226.47 2.477.738 3.722.358.824.744 1.657 1.154 2.496 1.824 3.729 4.126 7.58 6.762 10.859a35.758 35.758 0 0 0 3.04 3.372"/>
                <path fill="#633121" d="M26.833 78.52c0 .665.902.665.902 0v-.517-2.347-.218a.453.453 0 0 0-.902 0v3.083"/>
                <path fill="#B24F2D" d="M24.886 78.112l1.947-.075v-2.353l-2.013.075-1.104.04v2.36l1.17-.047"/>
                <path fill="#633121" d="M22.813 78.742c0 .665.903.665.903 0v-.583-2.36-.14a.453.453 0 0 0-.903 0V78.742"/>
                <path fill="#B24F2D" d="M18.898 78.333l1.589-.056 1.602-.06.724-.027v-2.356l-.795.028-2.166.09-1.02.035H18.8v2.353l.099-.007"/>
                <path fill="#633121" d="M17.897 78.742c0 .256.134.412.295.478.044.009.085.015.124.021.235.013.483-.15.483-.499v-.402-2.353-.328a.453.453 0 0 0-.902 0V78.742"/>
                <path fill="#4A4A47" d="M16.648 93.94a10.839 10.839 0 0 1-.025-.664c.484-5.095 1.102-10.805 1.693-14.035-.039-.006-.08-.012-.124-.021-.16-.066-.295-.222-.295-.478v-.368l-1.832.066h-.063c-.095 1.026-.191 2.05-.29 3.076l.145.016c-.396 4.118-.23 8.83-.23 12.798 0 2.771-.051 5.938.102 9.093.188 3.806.683 7.61 1.938 10.714.257.646.53 1.305.826 1.972a121.799 121.799 0 0 1-.738-3.722c-1.107-6.016-.596-12.331-1.107-18.446"/>
                <path fill="#B24F2D" d="M17.897 78.374v-2.35l-1.438.057c-.148.792-.3 1.572-.457 2.359h.063l1.832-.066"/>
                <path fill="#4A4A47" d="M30.338 123.963a127.367 127.367 0 0 1-2.444-3.173c-2.735-3.689-5.116-7.617-6.141-12.915-.64-3.934 0-8.01 1.148-11.797.599-1.775 1.643-6.368 3.456-7.292h.005a3.03 3.03 0 0 1 1.116.028 1.576 1.576 0 0 0-.05-.187c-.021-.094-.046-.184-.07-.278-.052-.053-.107-.093-.159-.134l.03-.053a1.684 1.684 0 0 0-.342-.187c-.1-.04-.2-.061-.3-.07-.291.036-.617.17-.909.33-.227.185-.448.44-.664.754a5.275 5.275 0 0 0-1.23.95c-2.039 2.558-3.571 6.849-3.987 9.15-.606 3.635-.358 7.395.397 10.99a41.98 41.98 0 0 0 1.646 5.706c1.266 3.292 3.235 6.221 5.463 8.764a40.06 40.06 0 0 0 2.83 2.94c.153.15.314.293.465.436.363.344.864.908 1.378 1.526.539.64 1.088 1.345 1.498 1.928.419.584.7 1.042.7 1.205 0 .811-.49 1.522-1.028 2.203-.03.333-.063.658-.09.973.249.169.509.328.763.478.415-1.186 1.022-2.284 1.952-3.233.156-.162.32-.321.5-.474a7.194 7.194 0 0 1-.35-.559c-.26-.44-.492-.914-.768-1.379a47.168 47.168 0 0 0-1.405-2.11 68.525 68.525 0 0 0-1.2-1.647 138.34 138.34 0 0 0-1.638-2.137c-.195-.246-.38-.493-.572-.736"/>
                <path fill="#4A4A47" d="M27.304 88.162l-.037.053c.063.04.13.081.193.134.03.094.06.184.087.278-.047-.466-.308-.67-.66-.72v.068c.137.044.274.106.417.187M25.678 88.236h-.002c-.664.36-1.3.958-1.893 1.703a5.275 5.275 0 0 1 1.231-.95c.216-.314.437-.569.664-.753"/>
                <path fill="#4A4A47" d="M27.246 87.95a1.092 1.092 0 0 0-.659-.01c.219.042.439.143.66.328l-.001-.317"/>
            </g>
        </g>
    </g>
</svg>
