<svg xmlns="http://www.w3.org/2000/svg" width="25" height="25" viewBox="0 0 25 25">
    <path fill-rule="evenodd" d="M11.925 21.894c-.012 0-.025 0-.037-.002l.037.002zM12.5 1.875C6.632 1.875 1.875 6.632 1.875 12.5S6.632 23.125 12.5 23.125 23.125 18.368 23.125 12.5 18.368 1.875 12.5 1.875zm0 20.008c-3.472 0-6.502-1.886-8.125-4.688v-3.192c0-.485-.393-.878-.878-.878H3.25c-.048-.005-.091-.032-.117-.074-.01-.182-.016-.366-.016-.551 0-4.96 3.848-9.02 8.72-9.36l-.007.009-.58.601c-.03 0-1.229-.021-1.25 0L8.75 5c-.021.021 0 .641 0 .671v.04c0 .298.241.539.539.539h1.336c.188 0 1.267-1.25 1.296-1.25h1.204c.287 0 .52.233.52.52v.21c0 .287-.233.52-.52.52h-.579c-.03 0-.058.012-.079.032L11.25 7.467c-.021.021.03.033 0 .033H9.08c-.211 0-.414.084-.564.234L7.103 9.146c-.146.147-.228.345-.228.552v2.053c0 .199.079.39.22.53.14.14.33.219.529.219h2.052c.208 0 .406.082.553.229l1.444 1.444c.13.13.202.305.202.488v3.127c0 .216.086.423.238.575l.766.765c.157.158.372.247.595.247h.496c.256 0 .498-.116.658-.316l2.06-2.576c.121-.15.187-.338.187-.531v-1.53c0-.03.012-.059.032-.08l.981-.98c.152-.152.237-.358.237-.572v-.605c0-.199-.079-.389-.219-.529l-2.248-2.249c-.021-.02-.033-.049-.033-.078 0 0 .004-.734.01-1.4.004-.395.483-.588.76-.307l2.09 2.113c.146.146.384.146.53 0L20 8.75l1.645 1.646c.158.69.238 1.396.238 2.104 0 5.182-4.201 9.383-9.383 9.383z"/>
</svg>
