<svg xmlns="http://www.w3.org/2000/svg" width="20" height="20" viewBox="0 0 20 20">
    <path fill-rule="evenodd" d="M6.99 6.369c-.538-.463-1.342-.432-1.843.07l-.543.544c-.49.49-.533 1.269-.1 1.81l4.344 5.433c.257.322.647.51 1.06.51.412 0 .802-.188 1.06-.51L19.654 3.36c.446-.556.386-1.362-.137-1.846s-1.331-.48-1.851.007L9.636 9.302 6.99 6.369zm11.797-1.088l-1.643 2.054c.32.856.483 1.763.482 2.677 0 4.218-3.42 7.638-7.638 7.638S2.35 14.23 2.35 10.012c0-4.219 3.42-7.638 7.638-7.638 1.618-.003 3.194.51 4.5 1.465l1.707-1.653C14.43.782 12.242.02 9.988.023 4.472.023 0 4.495 0 10.012 0 15.528 4.472 20 9.988 20c5.517 0 9.989-4.472 9.989-9.988.002-1.652-.407-3.278-1.19-4.731z"/>
</svg>
