<svg xmlns="http://www.w3.org/2000/svg" width="47" height="47" viewBox="0 0 47 47">
    <path fill="#FF7900" fill-rule="evenodd" d="M22.113 17.638v11.74c-.006 1.424-1.162 2.575-2.586 2.575-1.423 0-2.58-1.15-2.585-2.574v-5.505l-8.985 8.974c-1.01.999-2.638.994-3.643-.01s-1.011-2.63-.014-3.642l8.985-8.975H7.774c-.928.008-1.789-.482-2.255-1.285-.467-.802-.467-1.793 0-2.595.466-.803 1.327-1.293 2.255-1.285h11.753c1.427 0 2.585 1.155 2.586 2.582zm20.634.183l-8.985 8.975h5.511c.93-.01 1.792.48 2.26 1.283.467.803.467 1.796 0 2.599-.468.803-1.33 1.293-2.26 1.283H27.52c-1.427.001-2.585-1.155-2.586-2.583v-11.74c.006-1.423 1.162-2.574 2.586-2.574 1.423 0 2.58 1.15 2.585 2.574v5.505l8.985-8.974c1.01-1.006 2.643-1.005 3.65.002 1.01 1.007 1.012 2.64.007 3.65z"/>
</svg>
