<svg xmlns="http://www.w3.org/2000/svg" width="25" height="25" viewBox="0 0 25 25">
    <path fill-rule="evenodd" d="M21.926 9.222c-.31.11-.483.44-.394.758.228.82.343 1.67.343 2.522 0 6.03-5.694 10.732-12 9.02-2.759-.748-5.649-3.638-6.398-6.397-1.71-6.306 2.99-12 9.021-12 .857 0 1.71.116 2.535.347.319.09.652-.085.76-.399.056-.163.042-.342-.038-.494-.08-.153-.22-.265-.386-.312-.935-.26-1.9-.393-2.87-.392C5.704 1.875.4 8.25 2.24 15.345c.838 3.229 4.186 6.577 7.416 7.415 7.094 1.84 13.469-3.465 13.469-10.258 0-.966-.13-1.927-.389-2.858-.046-.167-.16-.307-.313-.387-.154-.08-.334-.093-.497-.035zM19.55 4.825c.345 0 .625.28.625.625s-.28.625-.625.625-.625-.28-.625-.625.28-.625.625-.625zM17.6 3.3c.345 0 .625.28.625.625s-.28.625-.625.625-.625-.28-.625-.625.28-.625.625-.625zm3.5 3.5c.345 0 .625.28.625.625s-.28.625-.625.625-.625-.28-.625-.625.28-.625.625-.625zm-9.421 6.569c-1.16-1.159-2.27-2.5-1.739-3.031 1.334-1.332 1.423-1.228.076-2.902-1.348-1.674-1.294-1.373-2.983.347-.888.955-.045 4.014 3.087 7.142 3.133 3.128 6.277 3.933 7.152 3.083 1.8-1.785 1.941-1.685.348-2.978-1.676-1.346-1.579-1.25-2.906.075-.531.53-1.875-.577-3.035-1.736z"/>
</svg>
