<svg xmlns="http://www.w3.org/2000/svg" width="47" height="47" viewBox="0 0 47 47">
    <path fill="#FF7900" fill-rule="evenodd" d="M5.875 24.675V39.95c0 1.298 1.052 2.35 2.35 2.35h14.1V24.675H5.875zm18.8 0V42.3h14.1c1.298 0 2.35-1.052 2.35-2.35V24.675h-16.45zM39.95 14.1h-9.259c.732-.044 1.544-.25 2.192-.62 1.457-.833 2.36-2.381 2.366-4.06.007-1.68-.882-3.234-2.333-4.08-1.45-.845-3.242-.853-4.7-.02-.765.439-1.324.996-1.726 1.713l-2.99 5.08-2.99-5.08c-.402-.716-.961-1.274-1.727-1.712-1.457-.833-3.249-.826-4.7.02-1.45.845-2.34 2.4-2.332 4.08.007 1.678.909 3.226 2.366 4.06.648.37 1.46.575 2.192.619H7.05c-1.298 0-2.35 1.052-2.35 2.35v5.875h17.625v-8.217h2.35v8.217H42.3V16.45c0-1.298-1.052-2.35-2.35-2.35zM14.41 8.234c.421-.732 1.2-1.183 2.044-1.184.408 0 .81.107 1.162.311.39.223.651.477.845.822l.012.022.012.02 2.08 3.533h-3.912l-.045.001c-.458 0-.99-.128-1.324-.319-1.125-.645-1.516-2.08-.873-3.206zm14.105-.009l.012-.02.012-.021c.194-.346.455-.6.845-.823.353-.204.754-.312 1.162-.311 1.066-.002 2 .715 2.275 1.745.274 1.03-.18 2.116-1.105 2.645-.334.191-.866.32-1.324.32l-.045-.001h-3.912l2.08-3.534zm4.361 6.406c.152 0 .152-.235 0-.235-.151 0-.151.235 0 .235z"/>
</svg>
