<svg xmlns="http://www.w3.org/2000/svg" width="47" height="47" viewBox="0 0 47 47">
    <path fill="#FF7900" fill-rule="evenodd" d="M32.902 3.525H14.098c-1.298 0-2.349 1.053-2.348 2.35v35.25c0 1.297 1.05 2.35 2.348 2.35h18.804c1.298 0 2.349-1.053 2.348-2.35V5.875c0-1.297-1.05-2.35-2.348-2.35zM21.737 4.7h3.526c.324 0 .587.263.587.587 0 .325-.263.588-.588.588h-3.524c-.325 0-.588-.263-.588-.588 0-.324.263-.587.588-.587zM23.5 42.3c-.649 0-1.175-.526-1.175-1.175s.526-1.175 1.175-1.175 1.175.526 1.175 1.175S24.149 42.3 23.5 42.3zm9.4-3.525H14.1V7.05h18.8v31.725zM3.525 11.75v8.225c1.298 0 2.35 1.052 2.35 2.35s-1.052 2.35-2.35 2.35V32.9h7.05V11.75h-7.05zm37.6 10.575c0-1.298 1.052-2.35 2.35-2.35V11.75h-7.05V32.9h7.05v-8.225c-1.298 0-2.35-1.052-2.35-2.35zM19.27 25.38h-.94V18.8h.94v6.58zm7.05 0h-.94V18.8h.94v6.58zm-1.41 0h-.47V18.8h.47v6.58zm-1.41 0h-.94V18.8h.94v6.58zm5.17 0h-1.88V18.8h1.88v6.58zm-7.05 0h-1.88V18.8h1.88v6.58zm-2.82 1.41v.94h-2.82v-2.82h.94v1.88h1.88zm12.22-1.88v2.82H28.2v-.94h1.88v-1.88h.94zm0-8.46v2.82h-.94v-1.88H28.2v-.94h2.82zm-12.22 0v.94h-1.88v1.88h-.94v-2.82h2.82z"/>
</svg>
