<svg xmlns="http://www.w3.org/2000/svg" width="25" height="25" viewBox="0 0 25 25">
    <path fill-rule="evenodd" d="M20.625 3.125H2.5V16.25c0 1.036.84 1.875 1.875 1.875h2.5v3.75l3.75-3.75H22.5V5c0-1.036-.84-1.875-1.875-1.875zm-2.5 3.75H6.875c-.345 0-.625.28-.625.625s.28.625.625.625h11.25c.345 0 .625-.28.625-.625s-.28-.625-.625-.625zm0 3.125H6.875c-.345 0-.625.28-.625.625s.28.625.625.625h11.25c.345 0 .625-.28.625-.625S18.47 10 18.125 10zM12.5 13.125H6.875c-.345 0-.625.28-.625.625s.28.625.625.625H12.5c.345 0 .625-.28.625-.625s-.28-.625-.625-.625z"/>
</svg>
