<svg xmlns="http://www.w3.org/2000/svg" width="47" height="47" viewBox="0 0 47 47">
    <g fill="none" fill-rule="evenodd">
        <path d="M0 0H47V47H0z"/>
        <path fill="#FF7900" d="M38.753 40.23l-11.35 3.04c-1.254.336-2.542-.408-2.878-1.661L20.57 26.854l2.27-.608 3.345 12.485 11.35-3.041-6.082-22.7-11.35 3.041 1.217 4.54-2.27.609-1.217-4.54c-.32-1.247.416-2.545 1.662-2.878l11.35-3.042c1.253-.336 2.548.431 2.884 1.685l6.684 24.946c.336 1.254-.408 2.543-1.661 2.878zm-6.588-1.885c-.626.168-.998.812-.83 1.44.167.626.812.998 1.439.83.626-.168.998-.812.83-1.439-.167-.627-.812-.999-1.439-.83zm-5.308-16.81c.18.1.31.27.363.468.054.198.024.41-.08.586l-2.86 4.488-.608-2.27-2.27.608c-2.27.608-3.835-.511-4.313-2.295-.277-1.034-.119-2.063.493-2.86l.216.804c.22.824.99 1.402 1.83 1.177l3.132-.839-.608-2.27 4.705 2.403zM21.995 9.467l-.615-2.293-11.35 3.041 6.083 22.7 4.54-1.217 1.216 4.54-4.54 1.217c-1.253.336-2.542-.408-2.878-1.662L7.767 10.846c-.336-1.253.402-2.565 1.655-2.9l11.35-3.042c1.254-.335 2.548.431 2.884 1.685l1.21 4.517-2.27.608-.601-2.247z"/>
    </g>
</svg>
