<svg width="105" height="55" viewBox="0 0 105 55" xmlns="http://www.w3.org/2000/svg" xmlns:xlink="http://www.w3.org/1999/xlink">
    <defs>
        <path d="M42.02 4.475H11.146c-3.752 0-6.792 3.148-6.792 7.03 0 3.883 3.04 7.03 6.792 7.03h14.475l-23.6 24.43c-1.735 1.772-2.42 4.37-1.794 6.809.625 2.438 2.465 4.343 4.82 4.99 2.357.648 4.867-.06 6.579-1.857l23.6-24.429v14.984c0 3.883 3.041 7.03 6.792 7.03 3.752 0 6.793-3.147 6.793-7.03V11.505c0-3.882-3.041-7.03-6.793-7.03zm60.99-2.416a6.63 6.63 0 0 0-9.604 0l-23.6 24.429V11.505c0-3.882-3.042-7.03-6.793-7.03-3.751 0-6.792 3.148-6.792 7.03v31.957c0 3.883 3.04 7.03 6.792 7.03h30.873c3.751 0 6.792-3.147 6.792-7.03 0-3.883-3.04-7.03-6.792-7.03H79.41l23.6-24.43c2.653-2.746 2.653-7.197 0-9.943z" id="np4yamuxya"/>
    </defs>
    <use fill="#FFF" fill-rule="nonzero" xlink:href="#np4yamuxya" style="mix-blend-mode:luminosity" opacity=".4"/>
</svg>
