<svg xmlns="http://www.w3.org/2000/svg" width="26" height="26" viewBox="0 0 26 26">
    <g fill="none" fill-rule="evenodd">
        <g fill="#000" fill-rule="nonzero">
            <g>
                <g>
                    <g>
                        <path d="M5.207 24.297c.492.328 1.005.417 1.538.266.533-.15.943-.464 1.23-.943.288-.478.35-.991.185-1.538-.355-1.176-.478-2.078-.369-2.707.164-.766.684-1.354 1.559-1.764.93-.41 2.365-.67 4.306-.779v3.2c0 .573.192 1.045.574 1.414.383.37.841.554 1.374.554.534 0 1.005-.191 1.415-.574l7.22-7.219c.382-.383.573-.848.573-1.394 0-.547-.191-1.012-.574-1.395L17.02 4.199c-.41-.383-.881-.574-1.415-.574-.533 0-.99.185-1.374.554-.382.369-.574.84-.574 1.415v3.322c-3.636.11-6.426.629-8.367 1.559-2.734 1.34-4.101 3.568-4.101 6.685 0 1.477.355 2.844 1.066 4.102.71 1.203 1.695 2.215 2.953 3.035zm1.066-1.64c-.875-.575-1.572-1.272-2.091-2.093-.684-1.011-1.026-2.146-1.026-3.404 0-1.805.643-3.213 1.928-4.224 1.066-.848 2.639-1.422 4.717-1.723 1.422-.246 3.363-.37 5.824-.37v-5.25l7.219 7.22-7.219 7.218v-5.25c-2.488.028-4.443.233-5.865.616-1.723.492-2.871 1.271-3.446 2.337-.683 1.204-.697 2.844-.04 4.922z" transform="translate(-15 -1042) translate(0 535) translate(15 505) translate(0 2)"/>
                    </g>
                </g>
            </g>
        </g>
    </g>
</svg>
