<svg xmlns="http://www.w3.org/2000/svg" width="26" height="26" viewBox="0 0 26 26">
    <g fill="none" fill-rule="evenodd">
        <g fill="#000" fill-rule="nonzero">
            <g>
                <g>
                    <g>
                        <g>
                            <path d="M14.574 7.749l-.483-.483c-.267-.267-.699-.267-.965 0l-5.86 5.86c-.266.267-.266.699 0 .965l.483.483c.267.267.699.267.965 0l5.86-5.86c.266-.267.266-.699 0-.965zM8.19 9.555c.754 0 1.365-.611 1.365-1.365S8.944 6.825 8.19 6.825s-1.365.611-1.365 1.365.611 1.365 1.365 1.365zm5.46 2.73c-.754 0-1.365.611-1.365 1.365s.611 1.365 1.365 1.365 1.365-.611 1.365-1.365-.611-1.365-1.365-1.365zm8.19-1.365c0-1.557-.802-2.918-1.992-3.698.29-1.404-.115-2.93-1.207-4.023-1.092-1.096-2.624-1.497-4.023-1.207C13.83.798 12.468 0 10.92 0S8.007.798 7.222 1.992c-1.404-.29-2.93.115-4.023 1.207-1.096 1.092-1.497 2.624-1.207 4.023C.793 8.01 0 9.376 0 10.92c0 1.548.798 2.913 1.992 3.698-.29 1.404.115 2.93 1.207 4.023 1.092 1.096 2.61 1.497 4.023 1.207.789 1.199 2.154 1.992 3.698 1.992 1.553 0 2.913-.802 3.698-1.992 1.412.29 2.93-.115 4.023-1.207 1.096-1.092 1.497-2.624 1.207-4.023 1.199-.789 1.992-2.154 1.992-3.698zm-4.62 2.615c.389.849 1.293 2.337-.03 3.66-1.194 1.194-2.358.618-3.66.03-.328.878-.737 2.567-2.61 2.567-1.932 0-2.333-1.825-2.61-2.567-.9.41-2.342 1.288-3.665-.035-1.365-1.365-.358-2.939-.03-3.66-.878-.328-2.568-.737-2.568-2.61 0-1.932 1.826-2.333 2.573-2.615-.389-.849-1.293-2.337.03-3.66 1.365-1.365 2.939-.358 3.66-.03.328-.878.737-2.568 2.61-2.568 1.932 0 2.333 1.826 2.61 2.577.85-.388 2.338-1.293 3.66.03 1.365 1.365.359 2.939.03 3.66.879.328 2.568.738 2.568 2.61 0 1.933-1.825 2.334-2.568 2.61z" transform="translate(-15 -862) translate(0 535) translate(15 325) translate(0 2) translate(2.08 2.08)"/>
                        </g>
                    </g>
                </g>
            </g>
        </g>
    </g>
</svg>
