<svg xmlns="http://www.w3.org/2000/svg" width="26" height="26" viewBox="0 0 26 26">
    <g fill="none" fill-rule="evenodd">
        <g fill="#000" fill-rule="nonzero">
            <g>
                <g>
                    <g>
                        <path d="M15.728 24.125c.423 0 .813-.123 1.168-.37l1.559-1.148 1.805 1.272c.246.191.526.267.84.225.315-.04.575-.17.78-.39.205-.218.307-.491.307-.82V4.357c0-.329-.102-.602-.307-.82-.205-.22-.458-.35-.759-.39-.3-.041-.588.034-.861.225l-1.805 1.272-1.559-1.149c-.355-.246-.745-.369-1.168-.369-.424 0-.8.123-1.128.37L13 4.642l-1.6-1.149c-.328-.246-.704-.369-1.128-.369-.423 0-.813.123-1.168.37l-1.56 1.148L5.74 3.37c-.246-.191-.526-.266-.84-.225-.315.04-.575.17-.78.39-.205.218-.308.491-.308.82v18.539c0 .328.103.601.308.82.205.219.458.348.759.39.3.04.588-.035.861-.226l1.805-1.272 1.559 1.149c.355.246.745.369 1.168.369.424 0 .8-.123 1.128-.37l1.6-1.148 1.6 1.149c.328.246.704.369 1.128.369zm.02-1.969L13 20.188l-2.748 1.968-2.707-1.968-1.764 1.23V5.791l1.764 1.272 2.707-1.97L13 7.064l2.748-1.97 2.748 1.97L20.22 5.79v15.627l-1.764-1.23-2.707 1.968zm2.174-9.843c.082 0 .157-.035.225-.103.069-.068.103-.144.103-.226v-1.312c0-.082-.034-.157-.103-.226-.068-.068-.143-.102-.225-.102H8.078c-.082 0-.157.034-.225.102-.069.069-.103.144-.103.226v1.312c0 .082.034.158.103.226.068.068.143.103.225.103h9.844zm0 4.593c.082 0 .157-.034.225-.102.069-.069.103-.144.103-.226v-1.312c0-.082-.034-.158-.103-.226-.068-.068-.143-.102-.225-.102H8.078c-.082 0-.157.034-.225.102-.069.068-.103.144-.103.226v1.312c0 .082.034.157.103.226.068.068.143.102.225.102h9.844z" transform="translate(-15 -742) translate(0 535) translate(15 205) translate(0 2)"/>
                    </g>
                </g>
            </g>
        </g>
    </g>
</svg>
