<svg xmlns="http://www.w3.org/2000/svg" width="26" height="26" viewBox="0 0 26 26">
    <g fill="none" fill-rule="evenodd">
        <g fill="#000" fill-rule="nonzero">
            <g>
                <g>
                    <g>
                        <g>
                            <path d="M16.38 7.644c1.809 0 3.276-1.467 3.276-3.276 0-1.809-1.467-3.276-3.276-3.276-1.809 0-3.276 1.467-3.276 3.276 0 1.809 1.467 3.276 3.276 3.276zm0-4.914c.904 0 1.638.734 1.638 1.638 0 .904-.734 1.638-1.638 1.638-.904 0-1.638-.734-1.638-1.638 0-.904.734-1.638 1.638-1.638zM9.285 8.326c-.406 0-.815.059-1.211.181-.485.147-.993.229-1.525.229-.533 0-1.041-.082-1.526-.229-.396-.12-.805-.18-1.211-.18-1.239 0-2.444.552-3.15 1.6C.246 10.555 0 11.309 0 12.121v1.529c0 .904.734 1.638 1.638 1.638h9.828c.904 0 1.638-.734 1.638-1.638v-1.529c0-.812-.246-1.566-.669-2.194-.706-1.048-1.91-1.6-3.15-1.6zm2.181 5.324H1.638v-1.529c0-.986.628-1.829 1.505-2.153.351-.13.737-.126 1.088 0 .755.27 1.536.406 2.321.406.785 0 1.563-.136 2.324-.406.351-.126.737-.13 1.088 0 .878.32 1.505 1.167 1.505 2.153v1.529h-.003zM6.552 7.644c2.112 0 3.822-1.71 3.822-3.822S8.664 0 6.552 0 2.73 1.71 2.73 3.822s1.71 3.822 3.822 3.822zm0-6.006c1.205 0 2.184.98 2.184 2.184 0 1.205-.98 2.184-2.184 2.184-1.205 0-2.184-.98-2.184-2.184 0-1.205.98-2.184 2.184-2.184zm14.732 8.091c-.59-.874-1.594-1.334-2.624-1.334-.95 0-1.188.341-2.28.341-1.092 0-1.33-.341-2.28-.341-.453 0-.894.102-1.303.276.198.202.385.41.546.645.16.239.293.492.41.75.112-.023.228-.037.347-.037.587 0 1.01.342 2.28.342 1.276 0 1.69-.342 2.28-.342.535 0 1.006.229 1.266.611.18.27.276.584.276.911v1.007h-6.006v1.092c0 .188-.02.369-.055.546h6.334c.754 0 1.365-.61 1.365-1.365v-1.273c0-.679-.205-1.307-.556-1.829z" transform="translate(-15 -802) translate(0 535) translate(15 265) translate(0 2) translate(2.08 5.2)"/>
                        </g>
                    </g>
                </g>
            </g>
        </g>
    </g>
</svg>
