<svg xmlns="http://www.w3.org/2000/svg" xmlns:xlink="http://www.w3.org/1999/xlink" width="120" height="82" viewBox="0 0 120 82">
    <defs>
        <path id="a" d="M0 .005h53.827v59.484H0z"/>
        <path id="c" d="M3.595.143C2.465.145.162.401.183 3.043c.01 1.426.01 11.99.01 13.417V30.686c.001.889.003 1.041 0 2.165-.001.59-.593 3.739 3.786 3.725 1.606-.005 15.052-.04 16.38-.03 3.142.02 3.059-2.186 3.056-2.72-.006-1.587-.003-27.106-.012-28.878-.004-.922-.012-1.1-.012-2.022C23.389.39 21.865.151 20.27.151c-1.898.001-2.759-.003-4.658-.004a9169 9169 0 0 0-8.337 0c-.614.002-1.184 0-1.752-.002L4.057.143h-.462z"/>
    </defs>
    <g fill="none" fill-rule="evenodd">
        <path fill="#B5E8F7" d="M9.413 31.512C11.59 29.867 51.665 1.39 56.303 10.07c4.637 8.679-49.466 31.398-.258 14.55s61.832-18.89 54.103-9.19c-7.729 9.7-14.427 20.677-5.668 20.677 8.76 0 20.354 9.19 13.14 13.785-7.214 4.595-17.777 8.68-12.109 11.998 5.668 3.318.258 6.637-2.576 8.168-2.834 1.532-59.257 10.722-73.169 9.445-13.912-1.276-34.78.256-21.383-6.892 13.396-7.148 24.99-17.869 15.458-14.806C14.308 60.87.654 56.53 10.444 49.381c9.79-7.147-26.021 1.022-1.03-17.869"/>
        <path fill="#8F8F8F" d="M90.37 35.796c-1.37-1.038-3.013-.988-4.9-.985-1.929.004-4.463-.03-6.39-.058-1.863-.028-3.841-.068-5.704-.056-1.658.01-4.465-.045-5.88.917-1.264.857-1.912 2.784-2.121 4.256-.422 2.98-.034 6-.004 8.992.039 3.688-.026 7.107-.074 10.795-.035 2.743-.035 6.36.064 9.102.085 2.322-.076 4.056.029 6.377.076 1.677-.35 3.808 1.256 5.081 1.005.797 2.613 1.084 3.838 1.185 1.943.16 3.895 0 5.84.044 2.27.053 4.533-.052 6.797-.197 1.99-.129 4.426.331 6.3-.35 2.126-.773 2.728-2.855 2.794-5.201.255-8.928-.23-17.926.132-26.796.1-2.446-.138-5.008-.258-7.496-.1-2.077.182-4.17-1.719-5.61"/>
        <path fill="#FFF" d="M88.02 38.962c-3.418.09-6.85-.14-10.264.004-2.586.11-5.257-.549-7.811.072-3.258.792-3.723 3.602-3.723 6.55v5.295L66.22 63.36v6.933c0 1.89-.616 4.18.338 5.939.114.21.244.388.388.538 1.11 1.16 3.025.659 4.597.66h19.324v-.028l.002-16.354c0-6.282.038-12.544.242-18.816.074-2.292-.691-3.332-3.09-3.27"/>
        <path fill="#000" d="M71.642 34.737c-.265-.146-.724-.28-1.554-.19a1.97 1.97 0 0 0-.818.263c0 .21-.045.47.219.63.207.126.778.211 1.044.207a2.08 2.08 0 0 0 .848-.166c.406-.175.23-.473.261-.744M87.456 75.785c-1.327-.01-14.773.026-16.38.03-4.378.014-3.786-3.134-3.785-3.725.003-1.124 0-1.276 0-2.164v-9.7-2.12-2.407c0-1.426 0-11.991-.01-13.417-.022-2.642 2.281-2.898 3.412-2.9 1.291-.002 2.39.006 3.68.005 2.78-.002 5.559-.001 8.338 0 1.899 0 2.76.004 4.658.004 1.594-.001 3.118.238 3.12 2.774 0 .922.008 1.1.012 2.022.009 1.772.006 27.291.012 28.879.002.534.085 2.74-3.057 2.719m-.255-39.622c-3.887.002-14.301-.091-17.409-.09-4.113.002-3.956 5.112-4.009 6.523-.02.513-.013 14.066-.006 23.897.004 5.538.007 9.895.006 10.076-.017 4.195 2.097 4.895 4.863 4.893l14.88-.008c6.222-.002 6.201-1.728 6.2-5.498 0-1.213.04-7.74.08-14.675.04-6.978.08-14.368.08-17.175 0-.376.014-.758.028-1.139.1-2.67.137-6.806-4.713-6.804"/>
        <path fill="#000" d="M82.683 37.169c-.893.013-1.337.065-2.002.043-.648-.021-2.444-.002-3.823.01-.319.002-3.508-.256-2.444.725.306.282 1.057.16 1.437.18.95.048 2.252.017 3.403.021 1.268.004 1.964.003 3.47 0 1.27-.004.974-.994-.041-.98"/>
        <path fill="#81C8A6" d="M67.128 70.53l-.003.23h.005a.85.85 0 0 1 .002-.174c.003-.018.004-.037.006-.055h-.01z"/>
        <path fill="#000" d="M82.254 77.853c-.58-.154-1.33-.172-1.851-.216-.479-.04-1.807-.005-2.827.017-.43.01-3.01-.14-1.956 1.306.251.345.884.38 1.211.423.703.092 1.665.034 2.517.04.937.01 1.452.006 2.564-.001.941-.006 1.584-1.239.342-1.569"/>
        <path fill="#5A5A5A" d="M58.993 6.673a2.193 2.193 0 0 0-3.078.026l-3.277 3.305a2.145 2.145 0 0 0 .027 3.05l4.715 4.59a2.193 2.193 0 0 0 3.078-.026l3.277-3.304a2.145 2.145 0 0 0-.027-3.05l-4.715-4.591zM56.25 18.784l-4.715-4.59a3.734 3.734 0 0 1-.047-5.31l3.277-3.304a3.818 3.818 0 0 1 5.358-.047l4.716 4.591a3.734 3.734 0 0 1 .046 5.31l-3.277 3.304a3.818 3.818 0 0 1-5.358.046z"/>
        <path fill="#000" d="M58.381 5.43a2.193 2.193 0 0 0-3.078.027l-3.277 3.305a2.145 2.145 0 0 0 .027 3.05l4.715 4.59a2.193 2.193 0 0 0 3.078-.026l3.277-3.305a2.145 2.145 0 0 0-.027-3.05l-4.715-4.59zm-2.744 12.112l-4.715-4.591a3.734 3.734 0 0 1-.046-5.31l3.277-3.304a3.818 3.818 0 0 1 5.358-.046l4.715 4.59a3.734 3.734 0 0 1 .047 5.31l-3.277 3.305a3.818 3.818 0 0 1-5.359.046z"/>
        <g transform="translate(12.083 .433)">
            <mask id="b" fill="#fff">
                <use xlink:href="#a"/>
            </mask>
            <path fill="#000" d="M52.8 18.162L35.07.9a3.17 3.17 0 0 0-4.453.039L.903 30.898a3.1 3.1 0 0 0 .039 4.413l23.913 23.283a3.17 3.17 0 0 0 4.453-.038l23.616-23.812a3.107 3.107 0 0 0 .903-2.207c-.026-4.058-.054-8.115-.084-12.172a3.107 3.107 0 0 0-.942-2.203" mask="url(#b)"/>
        </g>
        <path fill="#000" d="M62.277 28.236c.026-.041.018-.04.073-.088-.023.02.079-.049.1-.058-.066.028.131-.027.05-.015.022-.003.157.009.11 0 .213.041.434-.06.495-.28.055-.195-.067-.449-.281-.49-.492-.096-.98.098-1.243.528-.27.44.427.842.696.403"/>
        <path fill="#000" d="M58.258 29.155c2.432.014 4.864.033 7.296.064.656.008 1.313.017 1.969.03.243.006.853.139 1.078.036-.453.206-.788-.195-.315-.007.73.29-.648-.699-.043-.036.347.38.769.714 1.136 1.078.48.476.953.96 1.416 1.451.897.952 2.546.87 3.438-.03.956-.963.87-2.452-.03-3.406-1.31-1.39-2.793-3.281-4.725-3.73-1.106-.256-2.31-.181-3.438-.197a968.887 968.887 0 0 0-7.824-.071c-3.135-.019-3.09 4.8.042 4.818"/>
        <path fill="#FF7900" d="M60.852 16.54L46.56 2.624c-1-.973-2.744-.821-3.895.34L14.593 31.268c-1.151 1.16-1.274 2.891-.274 3.865l19.276 18.769c1 .973 2.744.821 3.896-.34L59.8 31.067c.551-.556.89-1.274.944-1.997.26-3.555.52-7.11.777-10.664.052-.726-.189-1.398-.67-1.866"/>
        <path fill="#FFF" d="M16.525 34.294c10.884-2.946 21.802-5.757 32.855-8.021 3.117-.64 6.242-1.24 9.374-1.805.857-.154 1.348-1.178 1.133-1.96-.244-.894-1.12-1.279-1.978-1.123-11.08 1.999-22.046 4.503-32.933 7.346-3.103.81-6.2 1.64-9.296 2.48-2.006.542-1.158 3.625.845 3.083"/>
        <path fill="#FFF" d="M41.824 5.621c-2.44 11.362-4.175 22.855-5.907 34.34l-1.504 9.977c-.129.853.264 1.715 1.168 1.941.78.195 1.83-.299 1.959-1.157 1.741-11.553 3.375-23.13 5.486-34.624a329.74 329.74 0 0 1 1.925-9.693c.43-2.006-2.693-2.803-3.127-.784"/>
        <path fill="#5A5A5A" d="M73.833 31.3c-.634.639-1.485.828-1.901.423-.417-.405-.24-1.252.394-1.891.634-.64 1.485-.83 1.902-.424.416.405.24 1.252-.395 1.891"/>
        <path fill="#FFF" d="M80.188 26.926a52.088 52.088 0 0 1 4.987-3.146c.757-.42-.054-1.48-.804-1.064a52.086 52.086 0 0 0-4.987 3.147c-.705.502.099 1.566.804 1.063M81.179 31.898a42.57 42.57 0 0 1 4.733.379c.863.118 1.068-1.188.203-1.307a42.631 42.631 0 0 0-4.733-.38c-.86-.02-1.074 1.286-.203 1.308M75.082 25.038l-.838-5.203c-.135-.837-1.482-.687-1.346.157l.838 5.203c.135.837 1.482.687 1.346-.157M77.647 25.412c-.018-.293.095-.552.301-.782.241-.269.175-.711-.101-.93-.295-.232-.712-.17-.953.1-.442.493-.633 1.12-.593 1.768.023.357.406.619.754.578.381-.044.615-.377.592-.734M80.743 29.602l1.698-.224c.862-.114.706-1.427-.16-1.313l-1.698.224c-.863.114-.707 1.427.16 1.313"/>
        <g transform="translate(67.098 39.24)">
            <mask id="d" fill="#fff">
                <use xlink:href="#c"/>
            </mask>
            <path fill="#FF7900" d="M26.808 19.287c-2.063-.618-4.167.765-6.315.949-2.67.228-5.335-1.414-7.938-.785-1.068.258-2.014.882-3.072 1.18-1.996.561-4.105-.09-6.125-.564-2.02-.474-4.33-.715-6.006.497v21.659H27.73l-.922-22.936z" mask="url(#d)"/>
        </g>
    </g>
</svg>
