<svg xmlns="http://www.w3.org/2000/svg" xmlns:xlink="http://www.w3.org/1999/xlink" width="120" height="84" viewBox="0 0 120 84">
    <defs>
        <path id="a" d="M.017.087h39.556v15.326H.017z"/>
        <path id="c" d="M.026.036h1.32v.46H.027z"/>
        <path id="e" d="M.025.04h1.172v1.334H.025z"/>
        <path id="g" d="M.016.137H1.05v.652H.016z"/>
        <path id="i" d="M13.912.146l-10.1 1.06C1.498 1.45-.178 3.505.066 5.798L1.94 23.32c.245 2.292 2.32 3.954 4.634 3.711l10.1-1.06c2.313-.243 3.99-2.299 3.745-4.591L18.545 3.858C18.316 1.714 16.488.123 14.36.123c-.148 0-.298.007-.448.023z"/>
    </defs>
    <g fill="none" fill-rule="evenodd">
        <path fill="#B5E8F7" d="M9.413 33.512C11.59 31.867 51.665 3.39 56.303 12.07c4.637 8.679-49.466 31.398-.258 14.55s61.832-18.89 54.103-9.19c-7.729 9.7-14.427 20.677-5.668 20.677 8.76 0 20.354 9.19 13.14 13.785-7.214 4.595-17.777 8.68-12.109 11.998 5.668 3.318.258 6.637-2.576 8.168-2.834 1.532-59.257 10.722-73.169 9.445-13.912-1.276-34.78.256-21.383-6.892 13.396-7.148 24.99-17.869 15.458-14.806C14.308 62.87.654 58.53 10.444 51.381c9.79-7.147-26.021 1.022-1.03-17.869"/>
        <path fill="#C2796C" d="M54.091 25.16c.107.043.428.177-.038-.017l.038.016"/>
        <path fill="#6FBBBB" d="M51.457 21.301c-.01.004-.024.006-.034.01l.064-.067a.281.281 0 0 0-.03.057M51.544 21.183l-.057.06a.214.214 0 0 1 .057-.06"/>
        <path fill="#141819" d="M56.102 21.316l.021-.014-.02.014zM56.123 21.302"/>
        <g fill="#FFF">
            <path d="M42.1 39.793c-.84-1.624-2.075-2.985-3.353-4.282-.401-.407.221-1.038.622-.63 1.327 1.347 2.623 2.774 3.496 4.46.26.505-.504.958-.765.452"/>
            <path d="M39.073 35.115h-.004a.132.132 0 0 0-.08.083c-.004.013-.008.027.022.057 1.462 1.484 2.603 2.796 3.417 4.371a.085.085 0 0 0 .018.025.158.158 0 0 0 .087-.058c.02-.028.022-.05.003-.085-.85-1.645-2.152-3.074-3.431-4.372-.018-.018-.026-.021-.032-.021m3.368 5.264h-.038a.744.744 0 0 1-.632-.42c-.772-1.493-1.873-2.756-3.288-4.193a.769.769 0 0 1-.205-.766.864.864 0 0 1 .609-.593.766.766 0 0 1 .746.218c1.32 1.34 2.664 2.818 3.56 4.55a.786.786 0 0 1-.037.81.872.872 0 0 1-.715.394M39.875 46.843c-1.4-1.002-3.055-1.619-4.382-2.725-.437-.364.087-1.077.527-.71 1.327 1.106 2.981 1.722 4.382 2.724.466.333-.061 1.044-.527.71"/>
            <path d="M35.757 43.67a.163.163 0 0 0-.057.088c-.007.035 0 .055.03.08.718.598 1.525 1.042 2.38 1.513.663.365 1.348.742 1.981 1.195.032.023.043.018.053.014a.132.132 0 0 0 .07-.093c0-.008.001-.018-.028-.039-.598-.428-1.265-.795-1.909-1.15-.848-.466-1.724-.948-2.495-1.59a.084.084 0 0 0-.025-.017m4.372 3.624a.805.805 0 0 1-.47-.156c-.598-.428-1.263-.794-1.907-1.149-.848-.467-1.725-.95-2.496-1.592-.397-.331-.357-.856-.089-1.172a.754.754 0 0 1 1.09-.098c.717.597 1.524 1.041 2.378 1.512.664.365 1.35.742 1.983 1.196.238.17.358.427.33.705a.86.86 0 0 1-.502.686.777.777 0 0 1-.317.068M36.547 51.854c-.55-.146-.382-1.012.174-.865.672.178 1.318.434 2.004.562.563.105.391.97-.174.865-.686-.128-1.332-.384-2.004-.562"/>
            <path d="M36.642 51.501c.266.07.528.152.781.232.41.128.795.249 1.197.324.04.008.047-.002.054-.01a.13.13 0 0 0 .023-.113c-.002-.008-.005-.017-.04-.023a11.101 11.101 0 0 1-1.285-.347 17.207 17.207 0 0 0-.746-.222c-.022-.006-.03-.004-.031-.004a.163.163 0 0 0-.014.104c.008.034.023.049.061.059m2.003 1.29a.889.889 0 0 1-.162-.015c-.445-.084-.87-.217-1.283-.346-.245-.077-.499-.157-.748-.223-.501-.132-.69-.624-.582-1.023a.75.75 0 0 1 .946-.548c.265.07.526.152.779.231.41.129.796.25 1.198.325a.765.765 0 0 1 .6.5.855.855 0 0 1-.159.831.766.766 0 0 1-.589.268"/>
        </g>
        <g fill="#FFF">
            <path d="M78.757 39.138c1.34-.805 2.609-1.718 3.949-2.523.491-.295.873.502.387.794-1.34.805-2.609 1.717-3.949 2.522-.491.296-.873-.502-.387-.793"/>
            <path d="M82.913 36.92a.178.178 0 0 0-.016.008c-.664.399-1.324.833-1.963 1.254-.644.424-1.31.862-1.986 1.268-.029.017-.048.038-.047.081 0 .043.02.08.036.096a57.572 57.572 0 0 1 3.965-2.53c.028-.018.047-.038.047-.082 0-.042-.02-.08-.036-.096zm-3.983 3.442a.708.708 0 0 1-.341-.088.853.853 0 0 1-.426-.726.816.816 0 0 1 .403-.723 56.523 56.523 0 0 0 1.96-1.253 57.484 57.484 0 0 1 1.988-1.27.737.737 0 0 1 .747-.03c.252.138.42.422.426.726a.816.816 0 0 1-.403.724c-.662.398-1.322.832-1.96 1.252-.645.424-1.312.863-1.988 1.27a.787.787 0 0 1-.406.118zM76.404 32.097c.84-1.1 1.859-2.06 2.89-2.981.427-.382.979.31.555.689-.977.873-1.935 1.778-2.732 2.82-.346.452-1.06-.074-.713-.528"/>
            <path d="M79.56 29.37c.003 0-.006.005-.019.017-1.143 1.022-2.063 1.911-2.843 2.93-.022.03-.018.039-.015.046a.132.132 0 0 0 .093.069c.012 0 .023.002.047-.029.82-1.072 1.82-2.013 2.779-2.87.029-.026.036-.045.026-.08-.013-.048-.052-.08-.067-.083m-2.776 3.793a.866.866 0 0 1-.782-.516.754.754 0 0 1 .107-.77c.862-1.128 1.92-2.124 2.937-3.033.332-.297.793-.271 1.096.061.279.306.337.828-.047 1.171-1.076.963-1.945 1.802-2.685 2.77a.779.779 0 0 1-.626.317M57.626 23.587c.054-1.497-.036-3 .098-4.494.051-.567.936-.476.885.091-.133 1.495-.044 2.997-.097 4.495-.02.568-.906.474-.886-.092M72.489 25.852a16.534 16.534 0 0 0 1.335-3.231c.16-.546.983-.207.824.334a16.538 16.538 0 0 1-1.336 3.23c-.27.496-1.096.167-.823-.333"/>
            <path d="M72.807 26.038a.14.14 0 0 0 .099.027c.045-.002.065-.023.081-.053a16.22 16.22 0 0 0 1.306-3.16c.01-.032.01-.06-.02-.094a.158.158 0 0 0-.09-.049 16.94 16.94 0 0 1-1.37 3.316.186.186 0 0 0-.006.013zm.092.759a.913.913 0 0 1-.427-.106c-.386-.206-.515-.632-.308-1.013a16.215 16.215 0 0 0 1.306-3.16c.122-.415.516-.628.937-.507.409.118.743.542.595 1.046a16.956 16.956 0 0 1-1.365 3.302.821.821 0 0 1-.738.438z"/>
        </g>
        <path fill="#714F47" d="M70.008 53.965c-1.479-.436-3.503-.236-4.798-1.082-3.84-2.51-7.555-5.203-10.869-8.24a479.329 479.329 0 0 1-2.067 3.569c-.825 1.406-1.777 2.749-2.617 4.147-.695 1.155-.5 2.313-1.506 3.37-1.285 1.347-3.707 1.633-4.802 3.011-.73.919-.496 2.019-.637 3.149-.648 5.203-8.856 10.515-2.633 15.183 2.479 1.859 5.546 3.035 8.404 4.19 2.31.933 4.792 1.026 6.025-1.379 1.05-2.048 1.158-4.267 2.958-5.939 1.619-1.503 3.971-1.904 5.576-3.338 2.287-2.044 4.132-4.967 5.69-7.58 1.386-2.325 3.092-4.935 2.964-7.755-.035-.767-.996-1.102-1.688-1.306"/>
        <g transform="translate(17.917 67.818)">
            <mask id="b" fill="#fff">
                <use xlink:href="#a"/>
            </mask>
            <path fill="#000" d="M39.41 11.188C39.048 10.558 23.023.203 20.995.09c-1.348-.076-2.682 2.01-3.29 2.731C15.242 5.74-8.57 34.071-9.152 39.924h31.318c5.873-5.338 14.504-22.114 16.988-26.809.46-.87.534-1.442.255-1.927" mask="url(#b)"/>
        </g>
        <path fill="#FF7900" d="M38.868 69.487a.47.47 0 0 0-.913-.217 3.282 3.282 0 0 1-.056.201c-.008.019-.034.087-.043.106a1.87 1.87 0 0 1-.09.158c-.133.217-.023.516.193.63.235.125.502.027.635-.19.131-.213.215-.446.274-.688M40.87 71.16a.458.458 0 0 0 .039-.533c-.13-.21-.433-.294-.646-.154a.614.614 0 0 0-.227.243.78.78 0 0 0-.037.098.458.458 0 0 0-.039.534c.13.21.432.295.646.154a.613.613 0 0 0 .227-.243.78.78 0 0 0 .037-.098M39.597 73.264l.01-.01-.002.002a.46.46 0 0 0 .077-.575c-.128-.208-.434-.298-.645-.154-.245.168-.334.42-.4.694a.47.47 0 0 0 .912.217 2.55 2.55 0 0 1 .048-.174M43.322 72.834c.136-.215.023-.517-.191-.63-.237-.126-.5-.025-.636.19-.158.25-.293.449-.48.673-.164.195-.174.477.021.658.179.165.5.173.664-.022.23-.274.432-.567.622-.87M41.643 74.45a.475.475 0 0 0-.572.37 1.19 1.19 0 0 1-.066.126l-.014.02a.771.771 0 0 1-.03.035.466.466 0 0 0-.124.616c.13.209.434.296.646.154.256-.172.43-.467.508-.76a.468.468 0 0 0-.348-.56M45.055 75.15v-.001c.021-.049.044-.096.066-.144.058-.125.116-.252.152-.385a.469.469 0 0 0-.913-.217 1.213 1.213 0 0 1-.014.046v.002c-.02.048-.044.096-.066.143a2.357 2.357 0 0 0-.151.385.469.469 0 0 0 .913.217.804.804 0 0 1 .013-.046M44.183 77.55c.133-.217.024-.516-.192-.63-.235-.125-.503-.027-.636.19a4 4 0 0 0-.463 1.094c-.149.582.764.799.913.217a3.11 3.11 0 0 1 .378-.872M47.538 76.553v-.001c.021-.05.044-.097.066-.144a2.36 2.36 0 0 0 .151-.385.469.469 0 0 0-.913-.218.576.576 0 0 1-.013.047v.001c-.021.049-.044.096-.066.144a2.346 2.346 0 0 0-.152.385.469.469 0 0 0 .914.217.576.576 0 0 1 .013-.046M46.305 79.377c.067-.245-.103-.503-.347-.561a.475.475 0 0 0-.566.343l-.01.037-.009.018c-.023.051-.05.1-.078.15-.062.11-.13.218-.198.326-.135.215-.022.516.192.63.236.125.5.024.636-.19.15-.239.305-.48.38-.753M49.262 77.88a.47.47 0 0 0-.913-.216l-.124.511a.47.47 0 0 0 .913.218l.124-.512zM48.344 81.485c.02-.038.04-.074.064-.111.056-.09.097-.192.125-.295.067-.244-.103-.503-.347-.56-.254-.061-.5.099-.566.343v.001c-.02.038-.042.074-.065.11-.056.091-.097.193-.125.295-.066.245.104.503.347.561.254.06.5-.099.567-.343v-.001z"/>
        <g transform="translate(46.107 82.735)">
            <mask id="d" fill="#fff">
                <use xlink:href="#c"/>
            </mask>
            <path fill="#FF7900" d="M1.343.492a.475.475 0 0 0-.48-.456C.618.041.388.258.405.511.407.56.408.605.407.653L.406.657C.399.697.388.735.377.773.407.673.317.85.34.836.326.852.313.867.298.882a.383.383 0 0 0-.013.014.468.468 0 0 0-.19.66c.13.212.43.293.645.154.417-.27.637-.727.603-1.218" mask="url(#d)"/>
        </g>
        <path fill="#FF7900" d="M52.753 78.147a.474.474 0 0 0-.48-.455c-.247.004-.474.221-.459.474a.7.7 0 0 1 .003.075v.003l-.005.022a.836.836 0 0 1-.019.07l-.001.005a.363.363 0 0 0-.008.018c-.051.114-.12.22-.186.325-.136.215-.023.516.192.63.236.125.5.025.635-.19.187-.297.35-.616.328-.977M51.34 81.066c.157-.58-.756-.795-.914-.217-.091.334-.335.626-.484.937a.47.47 0 0 0 .191.63c.218.115.526.038.636-.19.188-.39.455-.738.57-1.16M54.699 80.589c.161-.197.175-.475-.022-.658-.177-.164-.503-.176-.664.022-.3.367-.506.784-.705 1.21-.107.23-.043.505.192.63.216.114.528.04.636-.19.162-.347.318-.715.563-1.014M45.02 81.934a.762.762 0 0 0-.121-.343.476.476 0 0 0-.646-.154.468.468 0 0 0-.189.572.47.47 0 0 0 .349.553.475.475 0 0 0 .566-.343c.022-.092.049-.19.04-.285M36.375 71.454a.401.401 0 0 0-.479.29c-.02.083-.04.165-.066.245a.586.586 0 0 1-.024.049c-.157.126-.214.34-.103.52.109.175.368.252.547.13.262-.18.347-.467.419-.76a.398.398 0 0 0-.294-.474M37.734 75.159a.396.396 0 0 0-.772-.184l-.005.015c0-.002-.016.039-.024.052l-.014.023-.027.038a5.458 5.458 0 0 0-.27.376c-.116.18-.017.437.162.532.202.107.422.02.538-.16.12-.188.337-.412.412-.692M39.816 76.813c-.225-.119-.482-.025-.61.183-.066.107-.125.219-.188.329a.453.453 0 0 1-.162.18.449.449 0 0 0-.148.614c.125.203.413.28.619.147.33-.214.475-.527.673-.849.127-.207.023-.494-.184-.604M42.176 81.015c.013-.18-.098-.35-.188-.497a.448.448 0 1 0-.768.466l.022.035-.056.089c-.13.206-.022.495.184.604.226.12.48.024.61-.183.103-.164.182-.317.196-.514M32.52 80.623a.47.47 0 0 0-.913-.217 3.249 3.249 0 0 1-.055.201c-.009.019-.035.087-.044.106a1.935 1.935 0 0 1-.089.158c-.133.216-.024.515.192.63.235.124.502.026.636-.19.13-.213.215-.447.273-.688M34.522 82.297a.458.458 0 0 0 .04-.534c-.13-.21-.433-.295-.647-.154a.614.614 0 0 0-.227.243.803.803 0 0 0-.037.098.458.458 0 0 0-.039.534c.13.21.433.294.646.154a.612.612 0 0 0 .227-.243.79.79 0 0 0 .037-.098M39.5 80.633v-.001c.02-.049.043-.096.066-.144.058-.124.116-.252.151-.385a.469.469 0 0 0-.913-.217 1.213 1.213 0 0 1-.014.047c-.02.05-.044.097-.066.144a2.357 2.357 0 0 0-.15.386.469.469 0 0 0 .912.217.804.804 0 0 1 .014-.047"/>
        <g transform="translate(37.547 81.858)">
            <mask id="f" fill="#fff">
                <use xlink:href="#e"/>
            </mask>
            <path fill="#FF7900" d="M.965 1.145v-.001c.021-.049.044-.096.067-.144.058-.125.115-.252.151-.385A.47.47 0 0 0 .27.398a.953.953 0 0 1-.014.046v.001C.236.494.212.542.19.59A2.365 2.365 0 0 0 .04.974a.469.469 0 0 0 .913.217l.013-.046" mask="url(#f)"/>
        </g>
        <path fill="#FF7900" d="M35.66 80.467l.001-.001c.02-.048.044-.096.066-.144a2.38 2.38 0 0 0 .152-.385.47.47 0 0 0-.914-.217.996.996 0 0 1-.013.047c-.021.05-.044.097-.066.145a2.358 2.358 0 0 0-.152.385.469.469 0 0 0 .913.217l.014-.047M35.179 77.006c.02-.05.044-.097.066-.144a2.38 2.38 0 0 0 .151-.386.469.469 0 0 0-.913-.217.953.953 0 0 1-.013.047v.001c-.021.049-.044.096-.066.144a2.351 2.351 0 0 0-.152.385.469.469 0 0 0 .913.217.804.804 0 0 1 .014-.047M32.584 78.47c.021-.05.044-.097.066-.144.058-.125.116-.253.152-.386a.47.47 0 0 0-.347-.56.476.476 0 0 0-.566.343.953.953 0 0 1-.014.047v.001c-.02.049-.044.096-.066.144a2.368 2.368 0 0 0-.151.385.469.469 0 0 0 .913.217.701.701 0 0 1 .013-.047M33.793 75.073v-.002c.02-.048.043-.096.066-.143a2.38 2.38 0 0 0 .151-.386.47.47 0 0 0-.347-.56.476.476 0 0 0-.566.343 1.056 1.056 0 0 1-.014.047v.001c-.02.049-.043.097-.066.144a2.358 2.358 0 0 0-.15.385.469.469 0 0 0 .912.217l.014-.046"/>
        <g transform="translate(29.281 82.443)">
            <mask id="h" fill="#fff">
                <use xlink:href="#g"/>
            </mask>
            <path fill="#FF7900" d="M.746.147a.4.4 0 0 0-.479.291C.247.52.227.602.201.683A.542.542 0 0 1 .176.73c-.156.126-.213.34-.102.52.108.175.368.252.546.13.262-.18.348-.467.42-.76A.397.397 0 0 0 .746.148" mask="url(#h)"/>
        </g>
        <path fill="#714F47" d="M75.415 49.1c.398.04.802.192 1.195.484.182.135-3.351 6.274-4.91 4.985-1.98-1.639 1.754-5.664 3.715-5.469"/>
        <path fill="#714F47" d="M71.903 44.292c-.913.371-1.98 1.07-2.55.751-.82-.46 1.473-2.184 1.886-2.577.676-.642 1.456-1.236 2.09-1.924.402-.437.889-1.088.498-1.686-.41-.628-1.127-.075-1.593.205-2.295 1.376-4.406 3.06-6.527 4.681-1.133.866-2.32 1.708-3.474 2.535-.798.572-1.585 1.45-2.58 1.209-.728-.177-1.586-1.084-2.12-.065-.307.59-.448 1.333-.552 2.084-.093.667-.157 1.34-.285 1.913-.211.95-.093 1.908.033 2.86.14 1.06-.479 4.392-.479 4.392.455 1.533.37 2.923 2.167 3.109 1.525.158 3.295-.296 4.586-1.123.755-.484.888-1.079 1.855-.885.789.158 1.509.77 2.352.628.69-.117 1.176-1.169 1.55-1.695.935-1.316 3.668-3.935 2.941-5.675-.624-1.492-.937-1.537-.274-3.24.563-1.445 2.112-2.825 2.1-4.461-.012-1.447-.747-1.393-1.624-1.036M72.02 35.017a9.583 9.583 0 0 0-.664.923c-.435.691-.63 2.014-1.555 2.273-.984.275-1.46-1.52-1.62-2.201-.376-1.602 1.118-2.726 2.37-3.476 1.383-.828 2.643-.598 3.35.847-.66.311-1.338.966-1.88 1.634"/>
        <path fill="#714F47" d="M72.51 44.197l-.416.737c.013.167.405 2.15.534 2.098 1.085-.436 2.226-1.795 1.776-2.98-.2-.528-1.19-1.827-1.843-1.117-.325.353.148.904-.05 1.262"/>
        <path fill="#838080" d="M67.878 28.016c-1.201-.705-2.518-.51-4.035-.329-1.55.186-3.591.398-5.143.558-1.5.154-3.095.31-4.592.495-1.332.165-3.594.386-4.64 1.293-.933.809-1.269 2.42-1.294 3.623-.053 2.436.55 4.827.863 7.23.386 2.962.664 5.716.98 8.687.236 2.209.585 5.117.93 7.312.29 1.86.328 3.269.637 5.125.223 1.34.085 3.095 1.5 3.966.884.546 2.205.625 3.2.59 1.578-.055 3.13-.37 4.7-.517 1.83-.172 3.639-.47 5.446-.802 1.587-.291 3.59-.152 5.03-.877 1.636-.823 1.92-2.553 1.747-4.446-.656-7.202-1.913-14.391-2.476-21.558-.156-1.976-.594-4.013-.93-6.003-.281-1.66-.256-3.369-1.923-4.347"/>
        <path fill="#FFF" d="M66.294 30.784c-2.74.395-5.521.534-8.253.974-2.068.333-4.28.056-6.273.797-2.543.944-2.646 3.248-2.363 5.618l.51 4.257c.4 3.345.8 6.689 1.202 10.033l.667 5.574c.182 1.52-.092 3.419.844 4.743.112.159.234.29.364.397 1.004.828 2.496.243 3.76.094l10.146-1.192 5.392-.634a1.64 1.64 0 0 1-.003-.024l-1.574-13.15c-.605-5.05-1.178-10.089-1.62-15.15-.16-1.85-.876-2.614-2.799-2.337"/>
        <path fill="#1B2734" d="M52.718 28.936c-.227-.092-.61-.157-1.268-.006a1.588 1.588 0 0 0-.632.289c.02.168.008.381.236.486.179.081.646.096.86.067.259-.035.455-.09.666-.213.31-.18.14-.403.138-.623"/>
        <path fill="#000" d="M51.309 28.89c-.332.089-.573.439-.075.498.635.074.93-.325.707-.487-.1-.073-.305-.099-.632-.011M69.389 60.444c-1.069.118-11.876 1.418-13.167 1.574-3.52.425-3.347-2.162-3.403-2.637-.106-.904-.123-1.026-.209-1.74l-.935-7.8-.204-1.705-.232-1.935c-.137-1.146-1.155-9.64-1.301-10.786-.272-2.122 1.555-2.546 2.464-2.654 1.039-.124 1.922-.222 2.96-.345 2.234-.264 4.47-.527 6.704-.789 1.527-.179 2.219-.257 3.746-.437 1.28-.152 2.53-.103 2.775 1.936.089.74.113.883.205 1.624.177 1.424 2.634 21.942 2.792 23.219.054.428.333 2.194-2.195 2.475M65.365 28.61c-3.125.37-11.507 1.279-14.006 1.574-3.306.391-2.688 4.485-2.594 5.624.033.414 1.344 11.31 2.297 19.215.537 4.452.96 7.955.976 8.1.39 3.376 2.157 3.738 4.381 3.475l11.965-1.414c5.002-.59 4.818-1.977 4.454-5.007-.118-.976-.714-6.227-1.35-11.807-.64-5.615-1.32-11.56-1.59-13.817-.037-.303-.062-.611-.088-.919-.177-2.156-.545-5.485-4.445-5.024"/>
        <path fill="#000" d="M61.83 29.846c-.717.095-1.069.18-1.606.225-.523.044-1.965.229-3.073.369-.256.032-2.845.126-1.895.815.273.198.866.028 1.173.008.769-.051 1.812-.199 2.738-.305 1.02-.116 1.579-.183 2.79-.329 1.02-.122.687-.89-.128-.783"/>
        <path fill="#81C8A6" d="M52.538 58.142c.006.062.012.123.02.184h.003a.7.7 0 0 1-.015-.14v-.045l-.008.001"/>
        <path fill="#838080" d="M65.405 62.6c-.481-.07-1.086-.014-1.51 0-.388.013-1.453.167-2.27.282-.345.048-2.435.171-1.448 1.235.236.253.748.22 1.015.225.574.008 1.342-.13 2.028-.205.754-.082 1.167-.134 2.061-.244.757-.094 1.154-1.146.124-1.294"/>
        <path fill="#714F47" d="M68.997 38.05a2.557 2.557 0 0 1 .017-1.387c1.48.137 6.122.91 4.8 3.355-1.106 2.043-4.439-.505-4.817-1.967M69.494 43.196a2.559 2.559 0 0 1 .017-1.387c1.48.136 6.122.909 4.8 3.354-1.105 2.043-4.439-.505-4.817-1.967"/>
        <path fill="#66413E" d="M71.243 37.632c-.54.979-1.627-.26-2.016-.768-.153-.2-.47.035-.315.236.349.455.767.897 1.284 1.16.236.121.516.179.775.107.298-.083.492-.32.635-.578.122-.222-.241-.376-.363-.157M71.446 43.1c-.444.524-1.327-.192-1.66-.533-.176-.18-.493.054-.316.235.53.542 1.628 1.317 2.287.54.164-.193-.147-.435-.31-.242"/>
        <path fill="#714F47" d="M51.415 39.011c-.592 1.69-1.865 3.004-3.123 4.26-.953.953-2.474 1.806-3.232 2.94-.279 2.763-1.603 5.372-3.334 7.58a2.988 2.988 0 0 0-.203 1.254c.054 2.858.018 7.213.188 10.076 2.139 1.105 2.258 1.23 4.108 2.318.253-.159.375-1.59.618-1.767.744-.544 1.351-1.22 2.147-1.697.485-.29 1.17-.46 1.546-.902.96-1.125.323-3.47.265-4.809-.095-2.175.26-4.462-.001-6.618-.206-1.695-.026-2.942.964-4.454.09-.136.233-.257.386-.376.175-.136.363-.27.494-.421.573-.661.929-1.592 1.041-2.474.197-1.535-.017-4.33-1.864-4.91"/>
        <path fill="#66413E" d="M52.022 41.404c-.129.48-.462.866-.944 1.017-.454.142-.943-.044-1.244-.392-.164-.191-.481.043-.315.236.402.465 1.008.695 1.617.543.665-.167 1.105-.706 1.276-1.345.066-.244-.326-.3-.39-.059"/>
        <path fill="#FF7900" d="M64.435 58.296a4.137 4.137 0 0 1-5.813 0 4.046 4.046 0 0 1 0-5.76 4.137 4.137 0 0 1 5.813 0 4.046 4.046 0 0 1 0 5.76"/>
        <path fill="#D6D6D6" d="M55.134 43.942a.552.552 0 0 1-.547-.472.55.55 0 0 1 .471-.619l9.713-1.34a.55.55 0 0 1 .153 1.086l-9.713 1.34a.573.573 0 0 1-.077.005M55.257 46.622a.552.552 0 0 1-.547-.472.55.55 0 0 1 .471-.619l9.713-1.34a.553.553 0 0 1 .624.467.55.55 0 0 1-.471.619l-9.713 1.34a.573.573 0 0 1-.077.005"/>
        <path fill="#FFF" d="M60.21 52.589c.337-.01 1.064.967 1.088 1.19.023.223-.704.594-.713.743-.01.149 1.852 2.064 2.026 2.082.173.019.478-.804.713-.818.234-.014 1.219 1.013 1.275 1.19.057.177-.863 1.487-2.514.558-1.005-.567-2.38-1.975-2.621-3.225-.155-.803.613-1.716.745-1.72"/>
        <path fill="#FF7900" d="M62.594 36.694l.94-7.53c.02-.347-.215-.645-.493-.624l-7.927.592c-.277.02-.464.347-.394.685l2.083 7.315c.07.339-.117.665-.393.685l-1.4.105c-.389.029-.55.621-.263.964l5.202 6.221c.195.234.503.214.664-.043l4.343-6.934c.238-.38-.01-.95-.401-.921l-1.469.11c-.278.02-.512-.278-.492-.625M64.257 26.665l-10.1 1.06c-2.314.243-4.389-1.419-4.634-3.712L47.65 6.492c-.246-2.293 1.432-4.349 3.746-4.592L61.495.84c2.314-.243 4.389 1.419 4.634 3.712l1.873 17.521c.246 2.293-1.431 4.349-3.745 4.592"/>
        <g transform="translate(47.583 .694)">
            <mask id="j" fill="#fff">
                <use xlink:href="#i"/>
            </mask>
            <path fill="#000" d="M20.554 14.996C10.506 16.05 10.03 11.6-.018 12.656l1.85 17.297 20.096-2.11-1.374-12.847z" mask="url(#j)"/>
        </g>
    </g>
</svg>
