<svg xmlns="http://www.w3.org/2000/svg" width="26" height="26" viewBox="0 0 26 26">
    <g fill="none" fill-rule="evenodd">
        <g fill="#000" fill-rule="nonzero">
            <g>
                <g>
                    <g>
                        <path d="M21.531 24.125c.547 0 1.012-.191 1.395-.574.383-.383.574-.848.574-1.395V11.328c0-.219-.027-.424-.082-.615l-2.092-6.234c-.137-.41-.376-.739-.718-.985-.341-.246-.731-.369-1.169-.369H6.561c-.438 0-.828.123-1.17.37-.341.245-.58.573-.717.984l-2.051 6.234c-.082.191-.123.396-.123.615v10.828c0 .547.191 1.012.574 1.395.383.383.848.574 1.395.574H21.53zM21.408 11h-7.424V5.094h5.455L21.41 11zm-9.392 0H4.592L6.56 5.094h5.455V11zm9.515 11.156H4.47V12.97H21.53v9.187z" transform="translate(-15 -622) translate(0 535) translate(15 85) translate(0 2)"/>
                    </g>
                </g>
            </g>
        </g>
    </g>
</svg>
