<svg xmlns="http://www.w3.org/2000/svg" width="26" height="26" viewBox="0 0 26 26">
    <g fill="none" fill-rule="evenodd">
        <g fill="#000" fill-rule="nonzero">
            <g>
                <g>
                    <g>
                        <path d="M11.36 24.625c1.257 0 2.467-.24 3.63-.718 1.161-.478 2.194-1.169 3.096-2.071l.04-.041 1.395 1.394c.082.11.192.165.329.165.136 0 .246-.055.328-.165l1.066-1.025c.93-.957 1.648-2.044 2.153-3.26.506-1.217.76-2.482.76-3.795v-1.476c0-.137-.049-.253-.144-.349-.096-.096-.212-.143-.349-.143h-.82c0-1.286-.246-2.502-.739-3.65-.492-1.15-1.169-2.168-2.03-3.056-.861-.89-1.88-1.58-3.056-2.072-1.175-.492-2.406-.738-3.69-.738h-1.477c-.137 0-.253.048-.35.144-.095.095-.143.212-.143.348v1.477c-1.722 0-3.315.424-4.778 1.271-1.463.848-2.618 2.003-3.466 3.466-.847 1.463-1.271 3.056-1.271 4.778 0 1.723.424 3.316 1.271 4.779.848 1.463 2.003 2.618 3.466 3.466 1.463.847 3.056 1.271 4.778 1.271zm9.515-11.484h-7.547V5.594c1.367 0 2.625.342 3.774 1.025 1.148.684 2.064 1.6 2.748 2.748.683 1.149 1.025 2.406 1.025 3.774zm-9.516 9.515c-1.367 0-2.625-.342-3.773-1.025-1.149-.684-2.065-1.6-2.748-2.748-.684-1.149-1.026-2.406-1.026-3.774 0-1.367.342-2.625 1.026-3.773.683-1.148 1.6-2.064 2.748-2.748 1.148-.684 2.406-1.025 3.773-1.025v7.546l5.332 5.332c-.683.711-1.49 1.258-2.42 1.641-.93.383-1.9.574-2.912.574zm8.49-1.886l-5.66-5.66h7.998c0 1.038-.198 2.05-.594 3.035-.397.984-.978 1.859-1.743 2.625z" transform="translate(-15 -562) translate(0 535) translate(15 25) translate(0 2)"/>
                    </g>
                </g>
            </g>
        </g>
    </g>
</svg>
