<svg xmlns="http://www.w3.org/2000/svg" width="26" height="26" viewBox="0 0 26 26">
    <g fill="none" fill-rule="evenodd">
        <g fill="#000" fill-rule="nonzero">
            <g>
                <g>
                    <g>
                        <path d="M13.164 24.125c.547 0 1.012-.191 1.395-.574l8.367-8.367c.383-.383.574-.848.574-1.395s-.191-1.012-.574-1.394L14.23 3.699c-.382-.383-.847-.574-1.394-.574H4.469c-.547 0-1.012.191-1.395.574-.383.383-.574.848-.574 1.395v8.367c0 .547.191 1.012.574 1.394l8.696 8.696c.382.383.847.574 1.394.574zm0-1.969l-8.695-8.695V5.094h8.367l8.695 8.695-8.367 8.367zM8.406 11c.547 0 1.012-.191 1.395-.574.383-.383.574-.848.574-1.395s-.191-1.011-.574-1.394c-.383-.383-.848-.574-1.395-.574s-1.011.19-1.394.574c-.383.383-.575.847-.575 1.394 0 .547.192 1.012.575 1.395.383.383.847.574 1.394.574z" transform="translate(-15 -682) translate(0 535) translate(15 145) translate(0 2)"/>
                    </g>
                </g>
            </g>
        </g>
    </g>
</svg>
