<svg xmlns="http://www.w3.org/2000/svg" xmlns:xlink="http://www.w3.org/1999/xlink" width="120" height="82" viewBox="0 0 120 82">
    <defs>
        <path id="a" d="M.078.136h29.85v39.998H.077z"/>
        <path id="c" d="M.11.141h34.7v29.772H.11z"/>
    </defs>
    <g fill="none" fill-rule="evenodd">
        <path fill="#B5E8F7" d="M9.413 31.512C11.59 29.867 51.665 1.39 56.303 10.07c4.637 8.679-49.466 31.398-.258 14.55s61.832-18.89 54.103-9.19c-7.729 9.7-14.427 20.677-5.668 20.677 8.76 0 20.354 9.19 13.14 13.785-7.214 4.595-17.777 8.68-12.109 11.998 5.668 3.318.258 6.637-2.576 8.168-2.834 1.532-59.257 10.722-73.169 9.445-13.912-1.276-34.78.256-21.383-6.892 13.396-7.148 24.99-17.869 15.458-14.806C14.308 60.87.654 56.53 10.444 49.381c9.79-7.147-26.021 1.022-1.03-17.869"/>
        <path fill="#FFF" d="M81.9 28.657c1.422-.534 2.797-1.182 4.219-1.716.522-.196.744.632.228.826-1.422.533-2.797 1.182-4.219 1.715-.522.196-.744-.632-.228-.825"/>
        <path fill="#FFF" d="M86.262 27.268a.184.184 0 0 0-.017.005c-.704.264-1.412.564-2.096.853a56.12 56.12 0 0 1-2.122.863c-.03.011-.053.027-.06.069-.007.04.006.08.017.098a.172.172 0 0 0 .017-.005c.705-.265 1.412-.564 2.096-.853.691-.292 1.405-.594 2.123-.863.03-.012.052-.028.06-.07a.147.147 0 0 0-.018-.097m-4.288 2.599a.688.688 0 0 1-.437-.155.825.825 0 0 1-.277-.767.795.795 0 0 1 .513-.62c.704-.264 1.411-.563 2.095-.852.691-.292 1.406-.594 2.124-.864a.715.715 0 0 1 .718.102.825.825 0 0 1 .277.768.795.795 0 0 1-.514.62c-.703.264-1.41.563-2.095.852-.69.292-1.405.594-2.123.863a.799.799 0 0 1-.281.053M78.699 25.081c.949-.953 2.05-1.75 3.16-2.509.46-.314.903.421.447.733-1.051.719-2.089 1.47-2.988 2.372-.391.393-1.011-.202-.62-.596"/>
        <path fill="#FFF" d="M82.084 22.85c.002.001-.008.005-.022.015-1.23.84-2.229 1.582-3.108 2.466-.025.025-.023.033-.02.041a.128.128 0 0 0 .08.078c.01.002.022.005.049-.022.926-.93 2.008-1.71 3.04-2.415.03-.021.04-.04.035-.073-.007-.049-.04-.084-.054-.09m-3.057 3.311a.767.767 0 0 1-.193-.025.838.838 0 0 1-.591-.575.734.734 0 0 1 .2-.729c.974-.978 2.12-1.804 3.213-2.552a.733.733 0 0 1 1.047.196c.23.33.22.839-.194 1.121-1.002.685-2.052 1.442-2.936 2.33a.764.764 0 0 1-.546.234M74.024 21.797a16.126 16.126 0 0 0 1.945-2.788c.267-.485.974.006.71.486a16.136 16.136 0 0 1-1.944 2.788c-.36.415-1.074-.068-.71-.486"/>
        <path fill="#FFF" d="M74.287 22.039c.014.016.045.04.088.046.043.007.067-.008.089-.033a15.825 15.825 0 0 0 1.9-2.727c.017-.029.023-.056.001-.094a.15.15 0 0 0-.075-.064l-.007.012a16.531 16.531 0 0 1-1.987 2.85.147.147 0 0 0-.009.01m.11.758a.881.881 0 0 1-.565-.208.698.698 0 0 1-.08-1.023 15.81 15.81 0 0 0 1.902-2.727.712.712 0 0 1 .995-.288c.363.196.591.666.345 1.114a16.536 16.536 0 0 1-1.987 2.85.794.794 0 0 1-.61.282"/>
        <path fill="#714F47" d="M25.328 53.025l-.058-4.36c-.017-1.315-.019-2.69.685-3.893.688-1.177 2.164-2.901 3.239-3.86 1.379-1.23 2.27-1.812 3.002-3.372.232-.494.623-1.11 1.237-1.049.31.031.54.242.702.46.76 1.031.521 2.442-.212 3.543-.734 1.102-1.886 1.964-3.007 2.81-.545.41-1.506 2.549-1.46 3.113.19 2.387-.365 4.84-1.598 7.052"/>
        <g transform="translate(8.75 41.644)">
            <mask id="b" fill="#fff">
                <use xlink:href="#a"/>
            </mask>
            <path fill="#714F47" d="M28.946.465c-.687-1.354-3.81 1.887-6.133 2.21-1.666.23-4.244 4.178-5.333 5.471-1.088 1.292-1.295 3.302-1.58 4.952-.662 3.833-.543 7.913-1.948 11.589C13.278 26.448-3.9 52.447-1.754 53.11c1.854.573 9.734.545 11.448 1.576 1.042.627 1.565 1.315 2.454.2.57-.716 11.26-26.494 11.713-27.284.556-.972 1.018-1.762 1.798-2.588 1.927-2.044 3.516-4.7 4.036-7.425.535-2.803.283-4.452-2.236-6.814-1.537-1.442 2.436-8.44 1.487-10.311" mask="url(#b)"/>
        </g>
        <path fill="#62342D" d="M27.316 48.973l2.79-3.365c.243-.292-.178-.714-.423-.42l-2.79 3.365c-.243.293.178.715.423.42M29.588 49.77c1.377-1.251 2.518-2.59 3.22-4.32.637-1.569 2.516-1.585 3.54-2.79.248-.29-.174-.712-.423-.42-.937 1.103-2.68 1.17-3.434 2.474-.222.385-.34.822-.532 1.22a8.027 8.027 0 0 1-.717 1.189c-.595.825-1.325 1.544-2.077 2.228-.285.258.14.677.423.42"/>
        <path fill="#62342D" d="M32.893 50.9a30.07 30.07 0 0 1 1.229-3.64c.459-1.111.925-2.414 1.888-3.197.298-.242-.128-.66-.423-.419-.96.78-1.431 2.015-1.9 3.118a30.575 30.575 0 0 0-1.371 3.98c-.1.369.477.526.577.157"/>
        <path fill="#806059" d="M31.199 39.148s-.288 1.182.576.407c.864-.774 1.834-2.54 1.658-3.064-.177-.524-2.234 2.657-2.234 2.657"/>
        <g transform="translate(80.592 51.865)">
            <mask id="d" fill="#fff">
                <use xlink:href="#c"/>
            </mask>
            <path fill="#714F47" d="M2.825 1.77C3.075.278 3.327-.243 4.848.436c1.534.684 3.273.967 4.7 1.881s2.227 2.772 2.993 4.263c1.781 3.466 2.545 8.49 4.989 11.587 1.17 1.484 25.71 20.162 23.86 21.427-1.598 1.093-9.13 3.384-10.459 4.874-.806.904-1.1 1.716-2.283.913-.76-.517-18.693-21.986-19.361-22.608-.823-.764-1.5-1.382-2.493-1.942-2.453-1.384-3.083-5.209-4.397-7.658C1.047 10.652-.93 9.486.767 6.49c1.036-1.83 1.712-2.652 2.058-4.72" mask="url(#d)"/>
        </g>
        <path fill="#C2796C" d="M62.345 22.039c-.084.035-.34.142.03-.013l-.03.013"/>
        <path fill="#6FBBBB" d="M64.442 18.968l.027.008-.05-.053c.009.014.017.03.023.045M64.373 18.875l.045.048a.174.174 0 0 0-.045-.048"/>
        <path fill="#141819" d="M60.745 18.98l-.017-.011.017.011zM60.728 18.969"/>
        <path fill="#595959" d="M80.739 30.208c-2.451-.785-5.394-.748-8.77-.745-3.451.002-7.987-.023-11.436-.045-3.333-.02-6.874-.05-10.207-.042-2.968.008-7.99-.034-10.525.694-2.26.649-3.42 2.106-3.794 3.22-.755 2.254-.062 4.54-.006 6.804.068 2.79-.048 5.376-.133 8.166-.064 2.076-.064 4.813.115 6.887.15 1.757-.138 3.069.051 4.825.137 1.268-.626 2.881 2.248 3.844 1.798.603 4.676.82 6.869.897 3.478.121 6.97-.001 10.452.033 4.062.04 8.11-.04 12.163-.15 3.56-.096 7.92.252 11.273-.264 3.806-.585 4.882-2.16 5.002-3.935.455-6.755-.412-13.562.236-20.273.178-1.852-.248-3.79-.462-5.672-.18-1.572.325-3.154-3.076-4.244"/>
        <path fill="#000" d="M75.066 30.486c-6.956.001-25.593-.07-31.153-.069-7.36.002-7.08 3.868-7.175 4.936-.035.388-.023 10.641-.011 18.08.006 4.19.013 7.486.011 7.623-.032 3.174 3.752 3.703 8.702 3.702l26.631-.006c11.134-.002 11.097-1.307 11.094-4.16-.001-.918.07-5.856.143-11.103.072-5.279.145-10.87.142-12.994 0-.285.026-.574.05-.862.179-2.02.246-5.15-8.434-5.147"/>
        <path fill="#FFF" d="M81.112 59.05l.026-3.68.041-6.295h-.005l.016-2.514c.008-1.369.108-8.492.116-9.86.005-.711-.007-.85.004-1.56.031-1.958-2.72-2.163-5.599-2.183-3.43-.024-4.985-.039-8.415-.064l-15.064-.108c-2.334-.016-4.317-.037-6.65-.052-2.043-.013-6.17.063-6.197 1.687-.017 1.1-.146 9.764-.164 10.865-.019 1.166-.04 2.33-.06 3.495l-.127 7.49c-.01.685-.02 1.285-.04 2.152-.016.729-.47 2.392 6.802 2.443 2.902.02 27.195.165 29.594.19 5.677.056 5.719-1.594 5.722-2.006"/>
        <path fill="#9DAAC0" d="M45.37 60.27l-.006.009.006-.01"/>
        <path fill="#233143" d="M38.357 46.641l.034.036c-.012-.011-.023-.024-.034-.036zM38.529 46.533v-.01l-.003.009h.003zM56.833 46.315v-.01l-.003.009h.003z"/>
        <path fill="#714F47" d="M38.913 49.96c-2.378 1.696-1.937 5.264-5.344 6.1-.605.148-1.518-.02-2.11-.188-.71-.203-1.003-.836-1.447-1.367.181.217-.134 1.576-.17 1.877-.06.51-.148.982-.362 1.452-.394.87-.689 1.526-.642 2.52.087 1.87.892 4.113 2.611 5.093 2.543 1.45 4.525-.033 5.724-2.322.274-.523.447-1.073.578-1.635.283-1.217.38-2.507.739-3.7.549-1.829 1.044-4.009 1.935-5.687 1.163-2.19-.005-3.218-1.512-2.144M77.567 56.47c2.779.92 4.074 5.098 7.578 4.893.623-.036 1.31.065 1.824-.27.619-.403.708-1.094.972-1.731-.108.26.601 1.465.725 1.743.21.469.437.893.781 1.28.638.713 1.115 1.254 1.37 2.217.477 1.812 3.784 6.528 2.437 7.97-1.994 2.132-6.2.621-8.031-1.212-.418-.42-2.285-2.553-2.578-3.05-.634-1.08-1.42-2.986-2.049-4.064-1.428-2.45-4.708-5.483-5.637-6.64-.643-.8.847-1.72 2.608-1.136"/>
        <path fill="#806059" d="M75.48 56.771c.938.429 1.872 1 2.364 1.9.106.193.19.407.178.626-.014.22-.146.443-.358.508-.22.068-.451-.044-.648-.161a7.09 7.09 0 0 1-2.202-2.065c-.124-.18-.239-.422-.114-.6.11-.158.337-.164.53-.155M40.791 50.911l-.244.59c-.136.327-.275.66-.498.936-.224.276-.548.493-.905.506-.357.014-.732-.224-.795-.572-.048-.265.08-.527.21-.764.312-.568.594-1.072.97-1.602.149-.21.37-.469.578-.624a.537.537 0 0 1 .332-.117c.262.007.465.233.524.359.108.23-.094 1.09-.172 1.288"/>
        <path fill="#595959" d="M46.804 29.978h5.434c.928 0 .93-1.43 0-1.43h-5.434c-.929 0-.93 1.43 0 1.43M60.607 63.766c.929 0 .93-1.43 0-1.43-.928 0-.93 1.43 0 1.43"/>
        <path fill="#FF7900" d="M56.281 16.491c.5.544 1.152.795 1.954.76a3.602 3.602 0 0 0 1.497-.377c.44-.225.814-.514 1.128-.866.311-.353.547-.755.709-1.209.162-.453.23-.92.207-1.402-.04-.843-.332-1.515-.88-2.021-.547-.505-1.258-.738-2.131-.698a2.97 2.97 0 0 0-1.351.39 3.598 3.598 0 0 0-1.053.898c-.288.362-.512.771-.673 1.224a3.474 3.474 0 0 0-.211 1.33c.036.772.305 1.428.804 1.971zm8.96-1.59l-.12.91c-.045.339-.064.594-.056.761.026.53.244.785.657.766.316-.015.651-.138 1.005-.373.354-.231.684-.579.991-1.04.307-.46.553-1.056.738-1.787.184-.733.253-1.605.205-2.614-.06-1.3-.352-2.438-.873-3.415a7.06 7.06 0 0 0-2.123-2.434c-.895-.645-1.94-1.122-3.134-1.428-1.195-.306-2.484-.428-3.868-.364-1.53.071-2.902.382-4.118.932-1.215.551-2.238 1.297-3.07 2.241a9.398 9.398 0 0 0-1.871 3.287c-.415 1.25-.589 2.619-.519 4.111.074 1.565.401 2.955.982 4.17a8.891 8.891 0 0 0 2.353 3.055c.988.823 2.148 1.433 3.48 1.83 1.334.396 2.778.557 4.331.485 1.385-.065 2.656-.309 3.816-.736 1.16-.428 2.188-1 3.079-1.716l4.006-.185c-1.225 1.864-2.784 3.282-4.673 4.248-1.89.968-4.303 1.52-7.241 1.656-1.871.087-3.641-.169-5.312-.767a13.28 13.28 0 0 1-4.431-2.617 13.277 13.277 0 0 1-3.097-4.107c-.78-1.592-1.214-3.313-1.301-5.166-.088-1.852.182-3.608.81-5.265a13.506 13.506 0 0 1 2.695-4.393 13.649 13.649 0 0 1 4.164-3.067C54.352 1.104 56.09.673 57.96.588c1.796-.084 3.52.09 5.172.52 1.65.43 3.117 1.087 4.4 1.966a10.802 10.802 0 0 1 3.13 3.292c.804 1.314 1.246 2.8 1.324 4.46.072 1.516-.168 2.897-.718 4.139-.55 1.244-1.26 2.303-2.132 3.174a10.08 10.08 0 0 1-2.915 2.052c-1.072.496-2.094.767-3.065.81-.558.028-1.04-.09-1.44-.349-.403-.257-.651-.638-.747-1.14l-.146.007c-.391.5-.913.91-1.567 1.228-.655.32-1.395.5-2.22.539a5.375 5.375 0 0 1-2.19-.353 5.494 5.494 0 0 1-1.88-1.196 6.17 6.17 0 0 1-1.33-1.91c-.341-.744-.532-1.585-.576-2.524a9.066 9.066 0 0 1 .382-3.09 8.536 8.536 0 0 1 1.37-2.705 7.215 7.215 0 0 1 2.244-1.95c.89-.498 1.893-.774 3.01-.826.923-.042 1.775.095 2.557.406.78.314 1.494.842 2.136 1.583l.23-1.349 3.351-.155-1.1 7.683z"/>
        <path fill="#50BE87" d="M43.515 35.076c0 .654-.534 1.183-1.193 1.183-.66 0-1.194-.53-1.194-1.183s.534-1.183 1.194-1.183c.659 0 1.193.53 1.193 1.183"/>
        <path fill="#FFB400" d="M46.858 35.076c0 .654-.534 1.183-1.194 1.183-.659 0-1.193-.53-1.193-1.183s.534-1.183 1.193-1.183c.66 0 1.194.53 1.194 1.183"/>
        <path fill="#FF7900" d="M50.201 35.076c0 .654-.534 1.183-1.194 1.183-.66 0-1.194-.53-1.194-1.183s.535-1.183 1.194-1.183c.66 0 1.194.53 1.194 1.183"/>
        <path fill="#D6D6D6" d="M49.437 50.407h20.774v-10.22H49.437zM49.724 54.364a.535.535 0 0 1-.537-.528.534.534 0 0 1 .533-.536l20.2-.142h.004c.295 0 .535.236.537.528a.535.535 0 0 1-.533.536l-20.2.142h-.004M49.723 57.469a.535.535 0 0 1-.536-.517.534.534 0 0 1 .521-.547l20.2-.568a.535.535 0 0 1 .553.517.534.534 0 0 1-.522.547l-20.2.568h-.016"/>
        <path fill="#FFF" d="M41.293 23.918c-.495-1.701-1.418-3.225-2.392-4.696-.306-.462.405-.948.71-.486 1.013 1.528 1.98 3.126 2.496 4.894.153.528-.66.819-.814.288"/>
        <path fill="#FFF" d="M39.284 18.905h-.002a.129.129 0 0 0-.092.064c-.006.012-.012.024.01.058 1.115 1.683 1.956 3.142 2.437 4.793.005.017.01.025.012.027a.157.157 0 0 0 .094-.039c.025-.023.03-.043.02-.08-.475-1.628-1.323-3.095-2.45-4.797-.016-.024-.024-.026-.03-.026m2.372 5.65a.718.718 0 0 1-.706-.537c-.456-1.567-1.268-2.972-2.348-4.601a.746.746 0 0 1-.05-.768.842.842 0 0 1 .69-.453.74.74 0 0 1 .67.345c1.007 1.52 2.011 3.176 2.54 4.99a.764.764 0 0 1-.187.765.859.859 0 0 1-.609.258M36.606 27.063c-.827-1.445-2.035-2.652-2.755-4.16-.237-.497.516-.916.755-.416.72 1.508 1.928 2.714 2.754 4.16.275.48-.48.897-.754.416"/>
        <path fill="#FFF" d="M34.266 22.614a.16.16 0 0 0-.085.055c-.021.027-.023.048-.006.083.388.814.92 1.53 1.482 2.288.436.587.886 1.195 1.26 1.848.02.034.03.03.042.033a.13.13 0 0 0 .098-.053c.005-.008.01-.015-.008-.046-.353-.618-.792-1.208-1.215-1.78-.558-.75-1.134-1.527-1.552-2.403-.01-.02-.016-.025-.016-.025m2.693 5.017h-.006a.753.753 0 0 1-.659-.393c-.353-.617-.79-1.207-1.214-1.778-.558-.752-1.135-1.53-1.553-2.405-.215-.452.035-.899.4-1.07.396-.185.817-.037 1.002.35.389.814.92 1.53 1.482 2.287.436.588.887 1.196 1.261 1.85.14.246.142.521.003.755a.844.844 0 0 1-.716.404M30.756 30.856c-.427-.349.075-1.046.506-.694.52.427.986.912 1.539 1.3.454.319-.051 1.013-.506.694-.553-.388-1.018-.874-1.54-1.3"/>
        <path fill="#FFF" d="M30.984 30.583c.206.168.403.346.595.517.308.277.6.539.923.766.031.022.042.017.052.013a.128.128 0 0 0 .067-.09c0-.009.001-.018-.027-.037-.36-.253-.682-.542-.993-.822-.184-.165-.375-.337-.567-.494a.084.084 0 0 0-.025-.016.158.158 0 0 0-.055.086c-.007.033 0 .053.03.077m1.555 2.01a.783.783 0 0 1-.451-.148c-.359-.251-.68-.54-.99-.819-.186-.166-.377-.338-.57-.496-.388-.318-.354-.827-.096-1.136a.732.732 0 0 1 1.058-.105c.205.168.402.345.592.516.31.277.602.54.926.767a.734.734 0 0 1 .326.682.836.836 0 0 1-.48.67.756.756 0 0 1-.315.07"/>
    </g>
</svg>
