<svg width="20" height="20" viewBox="0 0 20 20" xmlns="http://www.w3.org/2000/svg" xmlns:xlink="http://www.w3.org/1999/xlink">
    <defs>
        <path id="7rc8pqskla" d="M0 0h20v17.751H0z"/>
    </defs>
    <g fill="none" fill-rule="evenodd">
        <g transform="translate(0 1)">
            <mask id="eo7iuzflob" fill="#fff">
                <use xlink:href="#7rc8pqskla"/>
            </mask>
            <path d="m11.145 5.348-.372 6.11c0 .413-.335.569-.75.569-.414 0-.748-.156-.749-.57l-.373-6.123a1.124 1.124 0 1 1 2.244.014m-1.122 10.036a1.124 1.124 0 1 1 0-2.247 1.124 1.124 0 0 1 0 2.247m9.674-.97L11.92 1.102a2.222 2.222 0 0 0-3.84 0L.322 14.382v.001l-.019.032a2.22 2.22 0 0 0 1.92 3.337h15.555a2.22 2.22 0 0 0 1.919-3.337" fill="#FC0" mask="url(#eo7iuzflob)"/>
        </g>
        <path d="M10.023 14.136a1.124 1.124 0 1 0 .001 2.248 1.124 1.124 0 0 0 0-2.248M10.023 5.142a1.124 1.124 0 0 0-1.122 1.192l.373 6.123c0 .415.336.57.75.57s.75-.155.75-.57l.371-6.108.003-.083c0-.62-.503-1.124-1.125-1.124" fill="#000"/>
    </g>
</svg>
