<svg xmlns="http://www.w3.org/2000/svg" width="26" height="26" viewBox="0 0 26 26">
    <g fill="none" fill-rule="evenodd">
        <g fill="#000" fill-rule="nonzero">
            <g>
                <g>
                    <g>
                        <g>
                            <path d="M20.332 7.176c1.652 0 2.99-1.338 2.99-2.99 0-1.652-1.338-2.99-2.99-2.99-1.652 0-2.99 1.338-2.99 2.99 0 1.652 1.338 2.99 2.99 2.99zm0-4.186c.658 0 1.196.538 1.196 1.196 0 .658-.538 1.196-1.196 1.196-.658 0-1.196-.538-1.196-1.196 0-.658.538-1.196 1.196-1.196zM3.588 7.176c1.652 0 2.99-1.338 2.99-2.99 0-1.652-1.338-2.99-2.99-2.99-1.652 0-2.99 1.338-2.99 2.99 0 1.652 1.338 2.99 2.99 2.99zm0-4.186c.658 0 1.196.538 1.196 1.196 0 .658-.538 1.196-1.196 1.196-.658 0-1.196-.538-1.196-1.196 0-.658.538-1.196 1.196-1.196zm14.815 7.882c-1.027-1.525-3.016-2.093-4.776-1.558-.53.16-1.088.25-1.67.25-.584 0-1.14-.09-1.671-.25-1.76-.535-3.75.03-4.777 1.558-.463.688-.732 1.514-.732 2.404v1.674c0 .99.803 1.794 1.794 1.794h10.764c.99 0 1.794-.804 1.794-1.794v-1.674c.007-.89-.262-1.716-.726-2.404zm-1.061 4.078H6.578v-1.674c0-1.36 1.091-2.475 2.444-2.512.953.396 1.94.598 2.938.598.998 0 1.985-.202 2.938-.598 1.353.037 2.444 1.147 2.444 2.512v1.674zm3.439-6.578h-.897c-.647 0-1.249.198-1.75.534.501.378.942.83 1.286 1.353.146-.052.299-.093.46-.093h.897c.74 0 1.345.605 1.345 1.345 0 .494.404.898.897.898.494 0 .897-.404.897-.898.004-1.73-1.405-3.139-3.136-3.139zm-8.821 0c2.314 0 4.186-1.872 4.186-4.186S14.274 0 11.96 0 7.774 1.872 7.774 4.186s1.872 4.186 4.186 4.186zm0-6.578c1.32 0 2.392 1.073 2.392 2.392 0 1.32-1.073 2.392-2.392 2.392-1.32 0-2.392-1.073-2.392-2.392 0-1.32 1.073-2.392 2.392-2.392zM5.786 8.906c-.501-.336-1.103-.534-1.75-.534H3.14C1.408 8.372 0 9.781 0 11.512c0 .493.404.896.897.896s.897-.403.897-.896c0-.74.605-1.346 1.345-1.346h.898c.164 0 .317.041.46.093.347-.523.788-.975 1.289-1.353z" transform="translate(-15 -982) translate(0 535) translate(15 445) translate(0 2) translate(1.04 4.16)"/>
                        </g>
                    </g>
                </g>
            </g>
        </g>
    </g>
</svg>
