<svg xmlns="http://www.w3.org/2000/svg" xmlns:xlink="http://www.w3.org/1999/xlink" width="120" height="81" viewBox="0 0 120 81">
    <defs>
        <path id="a" d="M.068.071h44.327v20.6H.068z"/>
        <path id="c" d="M11.793.302L2.827 2.999C.773 3.618-.387 5.77.237 7.804L5.005 23.36c.624 2.036 2.795 3.185 4.85 2.567l8.965-2.698c2.054-.618 3.214-2.77 2.59-4.805L16.642 2.868c-.51-1.663-2.05-2.734-3.718-2.734-.374 0-.755.054-1.131.168z"/>
    </defs>
    <g fill="none" fill-rule="evenodd">
        <path fill="#B5E8F7" d="M9.413 30.512C11.59 28.867 51.665.39 56.303 9.07c4.637 8.679-49.466 31.398-.258 14.55s61.832-18.89 54.103-9.19c-7.729 9.7-14.427 20.677-5.668 20.677 8.76 0 20.354 9.19 13.14 13.785-7.214 4.595-17.777 8.68-12.109 11.998 5.668 3.318.258 6.637-2.576 8.168-2.834 1.532-59.257 10.722-73.169 9.445-13.912-1.276-34.78.256-21.383-6.892 13.396-7.148 24.99-17.869 15.458-14.806C14.308 59.87.654 55.53 10.444 48.381c9.79-7.147-26.021 1.022-1.03-17.869"/>
        <path fill="#FFF" d="M56.032 80.347l1.074-.566c.51-.27.71-1.015.396-1.498a1.135 1.135 0 0 0-1.512-.393l-1.073.567c-.511.27-.711 1.014-.396 1.498.334.514.965.68 1.511.392"/>
        <path fill="#714F47" d="M36.988 44.135c1.715-.506 4.063-.274 5.565-1.256 4.453-2.91 8.762-6.034 12.605-9.555a563.136 563.136 0 0 0 2.398 4.138c.956 1.63 2.06 3.189 3.035 4.81.806 1.34.579 2.683 1.746 3.908 1.49 1.563 4.3 1.895 5.57 3.493.846 1.065.575 2.34.738 3.651.752 6.035 10.27 12.195 3.053 17.609-2.874 2.156-6.431 3.52-9.746 4.86-2.68 1.082-5.558 1.19-6.988-1.6-1.218-2.375-1.342-4.949-3.43-6.887-1.878-1.744-4.606-2.209-6.467-3.871-2.652-2.37-4.792-5.762-6.6-8.793-1.606-2.695-3.586-5.722-3.436-8.993.04-.89 1.155-1.278 1.957-1.514"/>
        <g transform="translate(51.438 60.23)">
            <mask id="b" fill="#fff">
                <use xlink:href="#a"/>
            </mask>
            <path fill="#FF7900" d="M.257 12.946C.677 12.215 19.262.206 21.614.074c1.563-.088 3.11 2.33 3.817 3.168 2.854 3.386 30.472 36.243 31.146 43.031H20.255C13.443 40.083 3.435 20.627.554 15.181c-.534-1.008-.62-1.672-.297-2.235" mask="url(#b)"/>
        </g>
        <path fill="#714F47" d="M30.718 38.493c-.463.046-.93.222-1.386.56-.212.157 3.886 7.277 5.695 5.782 2.296-1.9-2.036-6.568-4.31-6.342"/>
        <path fill="#714F47" d="M34.79 32.916c1.06.43 2.297 1.24 2.957.871.951-.532-1.707-2.533-2.186-2.988-.785-.745-1.69-1.433-2.424-2.232-.466-.507-1.032-1.262-.577-1.956.475-.727 1.306-.086 1.847.239 2.661 1.595 5.11 3.55 7.57 5.429 1.313 1.004 2.689 1.98 4.028 2.94.926.663 1.839 1.682 2.991 1.401.845-.205 1.84-1.256 2.459-.074.358.683.52 1.545.642 2.416.107.774.182 1.554.33 2.22.245 1.102.108 2.211-.039 3.316-.163 1.228.556 5.093.556 5.093-.528 1.778-.428 3.39-2.513 3.606-1.769.183-3.822-.343-5.318-1.302-.876-.561-1.03-1.251-2.152-1.027-.915.183-1.75.893-2.728.728-.801-.135-1.363-1.355-1.798-1.966-1.084-1.525-4.254-4.563-3.41-6.58.723-1.73 1.087-1.783.317-3.759-.652-1.675-2.45-3.276-2.435-5.174.013-1.678.866-1.615 1.884-1.201M34.654 22.16c.298.366.561.736.77 1.07.505.802.73 2.336 1.804 2.636 1.142.319 1.693-1.763 1.879-2.553.436-1.858-1.296-3.161-2.75-4.031-1.603-.96-3.064-.694-3.884.982.766.361 1.552 1.12 2.181 1.895"/>
        <path fill="#714F47" d="M34.086 32.806l.483.855c-.015.193-.47 2.493-.62 2.433-1.259-.506-2.581-2.082-2.06-3.455.233-.613 1.38-2.12 2.139-1.296.376.408-.173 1.048.058 1.463"/>
        <path fill="#000" d="M39.458 14.04c1.393-.818 2.92-.592 4.68-.381 1.798.215 4.165.461 5.965.646 1.74.179 3.59.359 5.325.574 1.545.192 4.168.448 5.382 1.5 1.081.938 1.47 2.806 1.501 4.202.06 2.824-.638 5.598-1.002 8.386-.447 3.434-.769 6.629-1.137 10.073-.273 2.563-.677 5.936-1.077 8.482-.338 2.155-.381 3.79-.74 5.943-.258 1.555-.098 3.589-1.738 4.6-1.026.632-2.558.724-3.712.684-1.83-.064-3.631-.428-5.451-.6-2.123-.2-4.22-.545-6.316-.93-1.84-.338-4.163-.176-5.834-1.017-1.897-.954-2.226-2.961-2.026-5.156.761-8.353 2.219-16.69 2.872-25.002.18-2.292.688-4.655 1.078-6.962.326-1.926.297-3.908 2.23-5.042"/>
        <path fill="#FFF" d="M41.796 14.577c3.178.458 6.404.62 9.571 1.13 2.4.385 4.967.068 7.28.928 2.949 1.095 2.564 6.436 2.235 9.185l-.59 4.937-1.394 11.636-.774 6.464c-.211 1.764-.265 6.302-1.351 7.838-.13.184-.271.336-.422.46-1.165.96-2.895.282-4.36.11-3.923-.461-7.872-.68-11.794-1.141-2.085-.245-3.538-.398-5.622-.643.001-.009-.603-.353-.602-.362.609-5.083 1.59-12.504 2.198-17.587.701-5.858 1.366-11.702 1.877-17.572.188-2.146 1.518-5.705 3.748-5.383"/>
        <path fill="#000" d="M46.967 15.254c2.592.304 5.079.103 7.67.41 1.204.143 2.229.256 3.433.4 1.054.125 3.277 1.122 2.962 3.583-.17 1.328-2.117 14.154-2.277 15.484l-.269 2.244-.237 1.977-1.084 9.046c-.1.828-.341 5.178-.464 6.226-.065.551.135 3.552-3.947 3.059a6243.31 6243.31 0 0 0-15.27-1.826c-2.933-.325-2.609-2.373-2.547-2.87.184-1.48 3.256-29.486 3.462-31.137.106-.86.902-3.999 1.005-4.858.284-2.365 1.629-2.926 3.114-2.75m-5.3 6.315c-.03.356-.06.714-.102 1.065-.314 2.617-1.102 9.513-1.844 16.024-.738 6.472-1.43 12.562-1.566 13.694-.423 3.515-.635 5.122 5.166 5.807l13.876 1.64c2.58.305 4.629-.115 5.08-4.03l1.133-9.394c1.105-9.167 2.625-21.805 2.664-22.285.109-1.322.826-6.07-3.01-6.523-2.896-.342-12.618-1.397-16.242-1.825-4.523-.535-4.95 3.326-5.155 5.827"/>
        <path fill="#000" d="M45.458 14.77c1.119.149 1.668.28 2.507.35.816.07 3.068.358 4.797.577.4.05 4.442.197 2.958 1.272-.426.31-1.35.044-1.83.013-1.2-.08-2.83-.31-4.276-.476-1.592-.182-2.465-.286-4.354-.513-1.595-.192-1.074-1.391.198-1.223"/>
        <path fill="#81C8A6" d="M57.25 48.98l-.023.213h-.004a.79.79 0 0 0 .016-.162l.001-.053.01.001"/>
        <path fill="#714F47" d="M38.16 25.678a2.97 2.97 0 0 0-.019-1.61c-1.716.16-7.1 1.055-5.566 3.891 1.281 2.37 5.147-.585 5.586-2.281M37.584 31.645a2.97 2.97 0 0 0-.02-1.61c-1.716.16-7.1 1.055-5.566 3.892 1.282 2.369 5.148-.586 5.586-2.282"/>
        <path fill="#66413E" d="M35.555 25.192c.627 1.135 1.887-.302 2.339-.89.178-.233.544.04.365.273-.405.528-.889 1.04-1.49 1.346-.273.14-.598.207-.898.123-.346-.095-.57-.37-.736-.67-.142-.258.28-.436.42-.182M35.32 31.534c.516.608 1.54-.223 1.927-.619.202-.207.57.063.365.274-.614.628-1.888 1.526-2.652.626-.19-.225.17-.505.36-.281"/>
        <path fill="#714F47" d="M58.552 26.792c.687 1.96 2.163 3.484 3.621 4.94 1.106 1.105 2.87 2.094 3.749 3.41.323 3.204 1.86 6.23 3.866 8.791.146.389.236.788.238 1.205 0 .082 0 .165-.002.249-.063 3.315-.022 8.365-.218 11.687-2.48 1.28-2.618 1.426-4.765 2.688-.293-.184-.435-1.845-.716-2.05-.863-.63-1.567-1.416-2.49-1.968-.562-.336-1.356-.534-1.794-1.046-1.114-1.305-.374-4.024-.306-5.577.11-2.523-.301-5.176.001-7.676.238-1.966.03-3.412-1.119-5.165-.103-.158-.27-.299-.447-.436-.203-.158-.42-.313-.573-.489-.664-.766-1.077-1.847-1.208-2.87-.227-1.78.02-5.02 2.163-5.693"/>
        <path fill="#66413E" d="M57.848 29.567c.149.557.535 1.004 1.094 1.179.527.165 1.094-.051 1.443-.455.191-.221.558.05.366.274-.466.54-1.17.807-1.876.63-.77-.193-1.282-.818-1.48-1.56-.076-.283.378-.347.453-.068"/>
        <path fill="#000" d="M54.352 76.531l.271-.27c.408-.407.44-1.148 0-1.548-.44-.4-1.127-.434-1.562 0l-.272.27c-.408.407-.44 1.147 0 1.548.44.4 1.128.434 1.563 0M56.31 75.338a3.076 3.076 0 0 0 1.603-1.196c.333-.47.101-1.237-.397-1.498-.566-.296-1.156-.11-1.511.393-.068.094-.05.072.052-.064a1.735 1.735 0 0 1-.188.186c.13-.094.16-.118.093-.07-.065.042-.132.08-.197.122-.106.051-.078.042.083-.028-.041.016-.083.03-.126.044-.548.178-.961.765-.771 1.347.177.542.77.955 1.359.764M60.237 73.184l.807-.553c.474-.325.737-.975.396-1.498-.304-.467-1.003-.741-1.512-.393l-.806.554c-.474.325-.737.974-.396 1.497.303.468 1.003.742 1.511.393M64.275 70.377c-.078.155-.096.196-.053.123.044-.071.018-.036-.078.104l-.126.099c-.174.062-.205.077-.094.047.562-.136.952-.795.772-1.347a1.13 1.13 0 0 0-1.36-.764c-.587.142-1.015.596-1.192 1.156-.174.546.204 1.218.771 1.346.602.136 1.174-.18 1.36-.764M67.159 68.748c-.027.036-.157.174-.05.08a13.01 13.01 0 0 0-.046.04c.081-.07-.198.056-.091.034.08-.017.236-.044-.078-.007.303-.036.556-.098.78-.32.193-.19.337-.502.325-.775-.025-.534-.49-1.168-1.105-1.095-.347.042-.639.096-.946.273-.296.17-.497.399-.697.665-.161.213-.18.6-.112.844.07.254.269.529.508.654.256.134.567.202.851.11.291-.093.48-.262.66-.503M70.306 67.122l1.095-.524c.522-.25.703-1.028.397-1.498-.345-.53-.954-.66-1.512-.393l-1.095.524c-.522.25-.702 1.028-.397 1.498.345.53.954.66 1.512.393M73.568 65.365l.815-.407c.517-.258.706-1.022.396-1.498-.34-.524-.958-.669-1.511-.392l-.815.406c-.518.258-.706 1.023-.397 1.498.341.524.958.669 1.512.393"/>
        <path fill="#000" d="M75.871 64.31c1.422 0 1.424-2.19 0-2.19-1.422 0-1.424 2.19 0 2.19"/>
        <path fill="#FFF" d="M59.793 77.879l.271-.27c.408-.407.44-1.148 0-1.549-.44-.4-1.127-.434-1.562 0l-.272.27c-.408.407-.44 1.148 0 1.549.44.4 1.128.434 1.563 0M62.55 76.28l.815-.404c.519-.256.706-1.023.397-1.498-.342-.525-.958-.667-1.512-.392l-.816.404c-.518.256-.705 1.023-.397 1.498.342.525.958.667 1.512.393M66.356 74.125l.693-.523c.239-.18.424-.355.507-.654.073-.262.04-.611-.11-.844-.293-.448-1.021-.764-1.513-.393l-.692.523c-.24.18-.425.356-.508.655-.073.262-.04.61.111.843.292.449 1.02.765 1.512.393M68.797 72.222l.687-.393c.5-.286.718-1.003.396-1.498-.326-.5-.976-.698-1.512-.392l-.687.392c-.5.286-.718 1.003-.396 1.498.326.5.976.699 1.512.393M71.92 70.46l1.534-.878c.5-.287.718-1.003.396-1.498-.325-.5-.976-.7-1.512-.393l-1.534.878c-.5.286-.719 1.003-.396 1.498.325.5.976.699 1.511.392"/>
        <path fill="#FFF" d="M75.192 68.589l.404-.275c.475-.324.736-.976.396-1.498-.305-.469-1.003-.74-1.512-.393l-.404.275c-.475.324-.736.976-.396 1.498.305.469 1.002.74 1.512.393M77.925 66.99l.272-.134c.518-.257.705-1.024.397-1.498-.342-.525-.958-.668-1.512-.393l-.272.135c-.519.256-.706 1.023-.397 1.498.342.525.958.667 1.512.392"/>
        <g>
            <path fill="#D6D6D6" d="M52.822 47.006a.738.738 0 0 1-.084-.005l-12.549-1.47a.708.708 0 0 1-.624-.784.712.712 0 0 1 .792-.619l12.548 1.47c.391.046.67.398.624.785a.71.71 0 0 1-.707.623M52.093 50.387a.739.739 0 0 1-.085-.005l-12.548-1.47a.708.708 0 0 1-.624-.785.71.71 0 0 1 .791-.619l12.549 1.471c.39.046.67.397.624.784a.71.71 0 0 1-.707.624M52.477 54.195a.738.738 0 0 1-.084-.005l-12.549-1.47a.708.708 0 0 1-.624-.785.71.71 0 0 1 .792-.618l12.548 1.47c.391.046.67.398.624.785a.71.71 0 0 1-.707.623M50.57 43.148l-7.532-1.03a2.093 2.093 0 0 1-1.8-2.355l1.03-7.402a2.106 2.106 0 0 1 2.378-1.785l7.53 1.03a2.093 2.093 0 0 1 1.801 2.355l-1.03 7.403a2.105 2.105 0 0 1-2.378 1.784"/>
            <path fill="#FFF" d="M70.21 37.207c1.546-1.218 3.402-2.01 4.859-3.343.48-.439-.157-1.226-.64-.784-1.457 1.334-3.313 2.124-4.86 3.343-.513.405.127 1.189.64.784"/>
            <path fill="#FFF" d="M74.738 33.369l-.022.018c-.847.775-1.822 1.372-2.765 1.95-.717.438-1.458.893-2.119 1.413-.032.026-.03.036-.03.046a.15.15 0 0 0 .085.102c.012.005.024.01.06-.018.699-.551 1.461-1.018 2.199-1.47.951-.582 1.85-1.133 2.637-1.853.033-.03.04-.054.03-.093a.157.157 0 0 0-.075-.095m-4.834 4.37a.895.895 0 0 1-.326-.063.985.985 0 0 1-.61-.756.866.866 0 0 1 .34-.824c.699-.552 1.462-1.019 2.2-1.47.95-.583 1.849-1.133 2.635-1.853.375-.343.9-.32 1.25.055.324.347.398.944-.038 1.343-.846.775-1.822 1.373-2.766 1.95-.716.44-1.457.893-2.117 1.413a.915.915 0 0 1-.568.205M74.33 41.794c.62-.196.382-1.176-.245-.98-.758.239-1.482.566-2.26.749-.637.15-.394 1.129.245.978.777-.182 1.501-.51 2.26-.747"/>
            <path fill="#FFF" d="M74.241 41.206l-.029.007c-.28.088-.564.192-.84.293-.464.17-.944.345-1.449.464-.04.009-.042.018-.045.028a.15.15 0 0 0 .032.128c.01.01.019.019.063.009.454-.107.89-.266 1.35-.434.284-.104.58-.212.88-.306.042-.013.059-.031.065-.07a.155.155 0 0 0-.027-.12m-2.302 1.77a.875.875 0 0 1-.643-.275.977.977 0 0 1-.227-.942.873.873 0 0 1 .66-.602c.455-.107.89-.266 1.351-.435.284-.103.578-.21.877-.305a.858.858 0 0 1 1.11.577c.144.45-.045 1.021-.61 1.2-.281.088-.567.192-.843.293-.463.169-.942.344-1.446.462a.99.99 0 0 1-.229.027M29.077 28.254c-1.32-1.455-3.018-2.541-4.231-4.096-.4-.512.36-1.183.762-.667 1.213 1.554 2.91 2.64 4.231 4.096.44.484-.324 1.151-.762.667"/>
            <path fill="#FFF" d="M25.25 23.722a.189.189 0 0 0-.085.084c-.017.037-.013.06.015.097.654.84 1.448 1.53 2.289 2.261.651.567 1.325 1.153 1.922 1.81v.001c.03.034.043.03.056.028a.151.151 0 0 0 .1-.087c.003-.009.006-.02-.022-.05-.564-.622-1.219-1.192-1.852-1.743-.833-.725-1.695-1.474-2.399-2.377a.095.095 0 0 0-.025-.024m4.184 5.119a.896.896 0 0 1-.67-.307c-.564-.622-1.218-1.191-1.851-1.742-.834-.725-1.696-1.475-2.4-2.378-.363-.466-.19-1.043.187-1.331.408-.312.93-.248 1.243.152.654.839 1.448 1.529 2.287 2.26.652.567 1.326 1.153 1.924 1.812a.864.864 0 0 1 .196.868.99.99 0 0 1-.916.666M25.333 33.666c-.62-.195-.382-1.176.245-.979.759.239 1.483.566 2.26.748.638.15.394 1.13-.245.979-.777-.182-1.5-.51-2.26-.748"/>
            <path fill="#FFF" d="M25.461 33.268c.3.094.595.202.88.306.46.168.895.327 1.35.433.044.01.053.001.062-.009a.15.15 0 0 0 .033-.128c-.003-.009-.006-.019-.046-.028-.505-.119-.985-.294-1.449-.464-.275-.1-.56-.204-.84-.292-.024-.008-.035-.007-.035-.007a.184.184 0 0 0-.021.118c.007.04.023.057.066.07m2.263 1.581a.991.991 0 0 1-.229-.027c-.503-.119-.983-.294-1.446-.463-.276-.1-.562-.205-.843-.293-.565-.178-.754-.75-.61-1.2a.858.858 0 0 1 1.11-.576c.299.094.593.201.877.305.46.168.896.328 1.352.434a.873.873 0 0 1 .659.603.977.977 0 0 1-.227.941.875.875 0 0 1-.643.276"/>
            <path fill="#FF7900" d="M50.34 34.822l1.687-7.22c.055-.334-.143-.647-.415-.655l-7.76-.224c-.27-.008-.486.29-.453.626l1.272 7.315c.034.336-.182.633-.452.625l-1.37-.039c-.381-.01-.598.548-.355.91l4.414 6.567c.165.247.466.258.649.025l4.93-6.298c.271-.345.088-.924-.295-.935l-1.437-.041c-.272-.008-.47-.32-.414-.656M44.601 23.76l-8.966 2.698c-2.054.619-4.225-.53-4.85-2.566L26.019 8.337c-.624-2.035.536-4.187 2.59-4.805L37.574.834c2.054-.618 4.225.531 4.85 2.566l4.767 15.556c.624 2.035-.536 4.186-2.59 4.805"/>
        </g>
        <g transform="translate(25.781 .533)">
            <mask id="d" fill="#fff">
                <use xlink:href="#c"/>
            </mask>
            <path fill="#000" d="M20.413 12.615c-8.92 2.684-10.13-1.266-19.05 1.418L6.069 29.39l17.84-5.368-3.496-11.406z" mask="url(#d)"/>
        </g>
        <g fill="#FF7900">
            <path d="M64.805 18.412c.262.591.732.982 1.408 1.175.471.133.921.169 1.351.104a3.39 3.39 0 0 0 1.183-.406c.358-.207.668-.475.931-.808.263-.331.452-.7.57-1.107.206-.712.153-1.352-.16-1.925-.31-.572-.835-.962-1.572-1.172a2.613 2.613 0 0 0-1.233-.052 3.189 3.189 0 0 0-1.13.454c-.341.22-.643.498-.905.83-.263.332-.447.68-.553 1.046-.189.651-.151 1.27.11 1.861zm7.897 1.17l-.358.724c-.134.27-.222.476-.263.617-.128.448-.02.72.33.82.266.074.58.065.94-.031.36-.094.733-.29 1.118-.589.385-.296.759-.724 1.12-1.28.36-.557.665-1.263.91-2.115.319-1.098.399-2.123.243-3.08a6.145 6.145 0 0 0-1.075-2.613c-.56-.785-1.293-1.472-2.2-2.059-.906-.587-1.943-1.046-3.11-1.378-1.292-.367-2.52-.49-3.687-.37a7.923 7.923 0 0 0-3.186 1.007 8.314 8.314 0 0 0-2.486 2.211c-.699.923-1.231 2.013-1.596 3.272-.381 1.321-.503 2.567-.365 3.739a7.744 7.744 0 0 0 1.09 3.192c.587.96 1.379 1.789 2.373 2.489.997.7 2.15 1.236 3.462 1.608 1.169.332 2.295.482 3.38.45a9.593 9.593 0 0 0 3.044-.57l3.381.96c-1.546 1.21-3.242 1.953-5.086 2.231-1.845.279-4.007.067-6.487-.638-1.579-.448-2.978-1.153-4.197-2.114a11.554 11.554 0 0 1-2.94-3.408 11.565 11.565 0 0 1-1.41-4.274c-.198-1.54-.07-3.09.382-4.655.452-1.563 1.174-2.947 2.165-4.15a11.95 11.95 0 0 1 3.484-2.9 12.056 12.056 0 0 1 4.329-1.391c1.554-.197 3.12-.072 4.7.377 1.516.43 2.9 1.055 4.15 1.87 1.249.817 2.283 1.771 3.099 2.86a9.403 9.403 0 0 1 1.669 3.605c.296 1.315.241 2.673-.164 4.074-.37 1.28-.96 2.36-1.77 3.24-.809.88-1.698 1.563-2.67 2.045a8.902 8.902 0 0 1-3.003.894c-1.032.114-1.958.055-2.777-.179-.472-.132-.838-.364-1.098-.69-.262-.327-.36-.712-.298-1.156l-.123-.035c-.467.307-1.016.502-1.65.585-.635.084-1.3.028-1.997-.17a4.691 4.691 0 0 1-1.72-.902 4.778 4.778 0 0 1-1.224-1.517 5.376 5.376 0 0 1-.564-1.958c-.072-.712.007-1.464.236-2.256a7.986 7.986 0 0 1 1.194-2.462 7.55 7.55 0 0 1 1.904-1.867 6.378 6.378 0 0 1 2.418-.995c.88-.168 1.792-.118 2.735.15a5.309 5.309 0 0 1 2.01 1.048c.56.478 1.002 1.116 1.326 1.91l.573-1.057 2.83.803-3.091 6.079zM51.798 1.988l-.586 7.945c-.077 1.042 1.561 1.037 1.638 0l.586-7.945c.077-1.043-1.561-1.038-1.638 0"/>
            <path d="M48.969 6.763a63.895 63.895 0 0 1 6.718.095c1.053.07 1.048-1.553 0-1.623a63.895 63.895 0 0 0-6.718-.095c-1.05.04-1.056 1.663 0 1.623"/>
        </g>
    </g>
</svg>
