<svg xmlns="http://www.w3.org/2000/svg" xmlns:xlink="http://www.w3.org/1999/xlink" width="341" height="338" viewBox="0 0 341 338">
    <defs>
        <path id="a" d="M.287.316H103.05v88.496H.287z"/>
        <path id="c" d="M0 .294h340.817V5.03H0z"/>
    </defs>
    <g fill="none" fill-rule="evenodd">
        <path fill="#FF7900" d="M34.438 3.667C37.818.87 42.392-.327 48.16.076l180.626 26.206c8.328 1.209 9.39 1.748 13.566 5.507 2.785 2.505 4.626 6.396 5.524 11.672l36.102 218.997c.863 5.005.129 9.248-2.203 12.73-2.331 3.481-6.126 6.002-11.386 7.562L24.684 318.604c-5.376.462-9.281-.435-11.715-2.69-2.435-2.254-3.758-6.2-3.969-11.836l20.038-288.18c.22-5.358 2.02-9.435 5.4-12.231z"/>
        <path fill="#55B57C" d="M163.697 318.171c.026-15.296.014-30.593.018-45.888 0-1.927.093-3.842.28-5.765.318-3.264 1.475-5.956 3.704-8.495 3.482-3.964 5.428-8.85 6.816-13.929 2.68-9.801 3.579-19.806 3.513-29.934-.012-1.868-.503-3.881.908-5.545 15.018 6.845 30.04 13.683 45.05 20.548 1.366.625 3.188.978 2.71 3.211.83 1.713.081 3.344-.324 4.96-3.987 15.925-7.916 31.866-11.953 47.777-.62 2.443-.683 4.85-.628 7.372.147 6.647.76 13.32-.344 19.952M112.055 313.403c.43-7.26-.696-14.47-.713-21.716-.005-1.969-.703-3.767-1.418-5.562-6.07-15.27-12.224-30.504-18.405-45.728-.621-1.529-1.675-3.024-1.046-4.848-1.708-5.075-1.722-5.096 2.812-7.925 10.83-6.758 21.58-13.652 33.029-19.353 1.004-.5 2.072-.872 3.11-1.302 1.623.997 1.806 2.797 2.41 4.352 5.818 15.012 11.81 29.939 20.645 43.518.866 1.33 1.632 2.806 2.866 3.781 4.099 3.244 4.843 7.77 4.848 12.5.014 15.4 1.463 30.752 1.437 46.152"/>
        <path fill="#FFF" d="M192.41 113.451a6.477 6.477 0 0 0-1.119-.97c-1.13-.615-2.347-.438-3.55-.388.084 8.794.267 17.59-.561 26.366l1.321.046 2.768-1.285c.44-.323.824-.681 1.165-1.065 3.288-7.564 3.272-15.133-.024-22.704" opacity=".5"/>
        <path fill="#FFF" d="M197.361 113.34c-1.691-.93-3.57-.673-5.38-.86.153.324.29.648.429.972 3.296 7.57 3.312 15.138.024 22.704-.155.354-.307.71-.476 1.065 3.81-.814 5.882-3.393 7.157-6.883 2.178-5.969.384-11.492-1.754-16.997" opacity=".5"/>
        <g transform="translate(100.588 30.942)">
            <mask id="b" fill="#fff">
                <use xlink:href="#a"/>
            </mask>
            <path fill="#000" d="M13.258 81.194c-4.03-13.432-7.926-26.905-12.15-40.277-1.78-5.638-.705-9.97 3.588-14.07 10.23-9.767 20.988-18.695 34.47-23.66 22.982-8.46 41.031 2.754 50.734 20.76 2.762 5.127 2.438 11.017 2.372 16.643-.134 11.225-1.557 22.345-3.614 33.373-.422 2.264.297 2.917 2.532 3.05 3.037.18 6.04.863 9.068 1.256 1.814.235 3.178.87 2.694 2.99-.46 2.013-1.967 1.808-3.51 1.36-.422-.122-.895-.076-1.344-.107-.447.33-.946.489-1.501.486-1.729-.275-3.483-.352-5.21-.646-1.182-.304-2.387-.404-3.605-.377-8.394-.692-15.965 1.561-22.82 6.38a5.18 5.18 0 0 1-1.084.301c-1.888.212-3.78.175-5.672.085a8.055 8.055 0 0 1-1.66-.266c-1.292-.387-2.626-.723-3.812-1.344-8.72-4.57-17.565-3.78-26.477-.719-.627.245-1.25.503-1.843.824-1.895 1.254-3.559.987-5.027-.742-1.18-1.387-2.658-2.396-4.312-3.122-1-.44-1.677-1.063-1.817-2.178" mask="url(#b)"/>
        </g>
        <path fill="#7C5346" d="M113.847 112.136c2.722 1.805 5.781 3.114 7.85 5.854.971 1.286 3.78-1.218 4.777-1.314 1.075 1.108-1.067 3.404-1.022 4.726.078 2.25-.09 4.504.156 6.75.542 4.93 2.684 8.549 7.906 9.636 5.482 1.328 10.92 2.583 16.656 1.231 3.51-.827 6.054-2.34 6.785-6.083 1.018-3.142.563-6.381.683-9.582.056-1.522-.303-3.14.874-4.447l6.186-.083c1.61 3.461.877 7.283 1.683 10.864 1.966 7.181 4.576 9.119 12.075 9.322 3.124.085 6.285-.59 9.377.351-1.269 8.463-2.771 16.864-6.036 24.85-3.38 8.268-8.039 15.592-15.203 21.134-.52.402-.9.99-1.344 1.49-.91.888-2.05.924-3.156.668-6.652-1.543-12.285-4.756-16.503-10.235a132.02 132.02 0 0 1-19.488-29.68c-.334-.698-.616-1.585-1.705-1.085-3.978 1.83-6.27-.826-7.624-3.619-4.06-8.376-5.624-17.347-5.16-26.67.089-1.79 1.85-2.527 2.233-4.078"/>
        <path fill="#B7EAD5" d="M213.446 312.434c-.978-5.493.022-11.078-.642-16.558-1.069-8.839 2.303-16.853 4.269-25.113 3.053-12.834 6.4-25.596 9.623-38.39 8.8 5.192 17.6 10.383 26.401 15.573-2.326 14.838-5.119 29.595-7.633 44.4"/>
        <path fill="#FFD200" d="M160.852 318.09c-.692-17.41-1.37-34.821-2.037-52.232-.048-1.245.039-2.433-1.1-3.38-4.81-4.012-7.802-9.396-10.668-14.784-6.963-13.094-13.063-26.58-17.623-40.724 2.538-1.23 5.122-2.237 8.032-1.684 3.322 10.688 6.65 21.373 10.825 31.77 2.7 6.72 5.49 13.416 9.523 19.463 2.59 3.884 4.206 3.699 6.552-.355 4.07-7.034 5.182-14.873 6.22-22.74.981-7.43.599-14.898.7-22.351.02-1.54-.365-3.21.971-4.484 2.578-.475 4.583.94 6.688 2.027-.006 9.96.034 19.924-1.999 29.743-1.764 8.514-4.432 16.592-10.714 23.057-2.063 2.122-1.337 5.154-1.372 7.76-.226 16.987-.278 33.979-.387 50.97"/>
        <path fill="#B8EBD6" d="M172.247 206.59c.108 13.014.438 26.042-2.77 38.82-1.163 4.63-2.61 9.147-5.386 13.092-2.097 2.977-3.387 3.01-5.812.239-2.792-3.19-4.599-6.995-6.35-10.79-5.977-12.966-10.48-26.47-14.54-40.134-.262-.88-.643-1.705.069-2.53l3.32-1.537c1.631.49 2.103 1.986 2.725 3.28 1.817 3.778 3.96 7.38 5.95 11.063 1.291 2.394 2.54 4.97 4.66 6.636 3.539 2.783 4.374 6.278 4.092 10.483-.22 3.268-.19 6.57.013 9.842.114 1.851-1.116 5.045 1.136 5.202 1.707.118.883-3.244.943-5.037.148-4.41.09-8.83.032-13.245-.033-2.462.587-4.557 2.044-6.635 3.258-4.65 4.314-10.148 5.37-15.607.295-1.533.262-3.204 1.727-4.265l2.777 1.122"/>
        <path fill="#7C5346" d="M165.21 192.261l.956 11.52c1.272 2.11.193 4.224-.158 6.255-.655 3.786-1.751 7.485-3.884 10.763-2.108 3.242-3.924 3.505-6.879.935-2.943-2.56-5.04-5.814-6.8-9.22-1.795-3.468-4.226-6.69-4.734-10.736 2.54-5.648 1.993-11.662 2.091-17.6 1.993.628 2.646 2.639 3.967 3.952 3.645 3.62 7.653 5.566 12.86 3.977.832-.254 1.763-.556 2.582.154"/>
        <path fill="#55B57C" d="M143.712 201.779c3.182 5.42 5.37 11.414 9.41 16.336 1.622 1.977 3.112 4.958 5.854 4.488 2.646-.452 3.361-3.657 4.299-6.033 1.618-4.104 2.277-8.446 2.89-12.788 1.103.562 2.205 1.122 3.306 1.686-.988 5.56-1.847 11.154-4.082 16.403-.267.626-.36 1.428-.811 1.852-4.302 4.027-3.321 9.26-3.345 14.264-.02 3.852-.038 7.706.011 11.557.02 1.548-.164 2.608-2.156 2.566-1.886-.037-1.886-1.135-1.884-2.468.017-5.777-.062-11.559.043-17.335.04-2.16-.411-3.66-2.24-5.189-4.439-3.71-6.624-9.097-9.371-14.028-1.708-3.063-3.243-6.223-4.858-9.34l2.934-1.971"/>
        <path fill="#6C382D" d="M165.21 192.261c-9.551 3.864-15.637-1.66-19.408-8.085l-.21-6.909c4.493 3.024 8.274 7.152 13.767 8.633 1.95.526 3.848 1.114 5.89.936l-.038 5.425"/>
        <path fill="#FE7900" d="M53.46 317.951c.339-.514.263-1.3.38-1.961"/>
        <path fill="#F8D304" d="M197.955 287.621c-3.509.001-7.02-.056-10.526.027-1.672.041-2.17-.683-2.126-2.232.039-1.396.215-2.455 1.985-2.447 7.13.03 14.26.025 21.391.013 1.962-.004 1.64 1.384 1.71 2.606.08 1.388-.392 2.078-1.908 2.052-3.507-.063-7.018-.02-10.526-.019"/>
        <path fill="#7C5346" d="M183.086 107.842c-6.86.005-13.065 1.922-18.604 6.066-2.319 1.734-4.78.835-7.016-.401-5.686-3.144-11.776-4.557-18.223-4.128-3.356.223-6.73.636-9.976 1.636-1.2.37-2.29.34-1.815-1.222 1.299-4.28-.408-8.231-1.077-12.294-.309-1.88-.584-3.82-1.272-5.576-1.068-2.727-.055-3.722 2.523-4.496 13.262-3.991 26.669-6.897 40.636-6.072 5.143.303 9.99 1.734 14.483 4.256 4.15 2.329 2.882 6.748 3.673 10.283.827 3.695.95 7.548 1.38 11.332-1.487.852-3.216-.15-4.712.616"/>
        <path fill="#8C695E" d="M125.892 116.904c8.89-3.533 17.782-4.686 26.722-.13 1.485.756 3.07 1.316 4.608 1.966 1.177.727 1.004 1.902.999 3.016-.02 3.923.231 7.861-.716 11.726-1.291 4.169-4.509 5.511-8.473 6.107-4.794.722-9.44-.125-14.125-.79-1.18-.388-2.29-.97-3.488-1.3-3.51-.965-5.24-3.585-5.702-6.873-.639-4.55-1.113-9.165.175-13.722M187.87 138.46c-4.12.653-8.183 1.044-12.387.142-5.972-1.28-7.708-2.805-8.758-8.915-1.784-3.545-1.65-7.33-1.398-11.132 6.837-5.242 14.572-7.272 23.102-6.461.317.474.631.974.683 1.539.722 8.018.836 16.02-.7 23.974-.063.33-.34.58-.542.852"/>
        <path fill="#7C5346" d="M183.086 107.842c1.443-1.173 3.148-.355 4.711-.616-1.43 1.285-3.138.428-4.711.616"/>
        <path fill="#6C392E" d="M155.142 145.293c5.904 1.89 11.175 2.038 16.336-.543-.206 3.602-3.147 4.296-7.247 5.232-3.485.795-7.002-1.073-9.09-4.69"/>
        <path fill="#6D3A2F" d="M174.26 158.235c-5.58 3.959-16.96 4.218-23.27-.254 8.248 1.669 15.76 1.905 23.27.254"/>
        <path fill="#6C392E" d="M168.343 167.465c-4.15 3.007-5.985 2.974-9.747-.158 3.37-.298 6.206-.387 9.747.158"/>
        <path fill="#000" d="M136 106.979c3.515-4.357 9.276-3.935 13.89 1.232-4.843-1.41-9.216-3.18-13.89-1.232M176.74 102.976c-3.14.836-5.379 2.853-6.63 5.813 3.533-1.626 6.787-3.668 10.788-3.692.986.004 1.973.007 2.957.012h-.002.004c.714-.12 1.547.424 2.294-.57-2.783-2.816-6.12-2.44-9.41-1.563"/>
        <path fill="#32312C" d="M143.708 129.847l-1.457-.19c-.171-.034-.342-.07-.514-.1-.666-.296-1.173-.773-1.595-1.356-1.124-2.237-1.149-4.466.06-6.685.539-.73 1.186-1.334 1.995-1.757.664-.285 1.367-.253 2.064-.25.888 0 1.656.303 2.315.893 1.723 2.547 1.693 6.404-.068 8.975-.86.598-1.783.81-2.8.47"/>
        <path fill="#F8F8F8" d="M146.26 128.956c.968-1.222 2.29-2.44-.498-3.154-.674-.173-.485-1.104.087-1.239 3.684-.864.817-2.404.429-3.683-.257-.326-.234-.63.067-.916 1.119-.342 2.087-.23 2.715.904 4.35 3.001 3.539 7.902-2.02 8.855-.718.212-.908-.117-.78-.767"/>
        <path fill="#45413C" d="M149.06 120.868l-2.742-.789c-.611-.035-1.219-.543-1.836-.015l-2.202.086c-.586.48-1.385.613-1.92 1.18-3.478 3.126-3.478 4.03-.003 7.172.533.561 1.315.72 1.914 1.177l-.02-.022c-1.825 1.24-4.877-.124-6.049-2.701-1.256-2.766-.049-5.433 3.235-7.146 3.676-1.917 8.102-1.43 9.623 1.058"/>
        <path fill="#8F8F8D" d="M146.26 128.956l.78.767c-1.078.946-2.192.886-3.332.124l2.551-.89"/>
        <path fill="#34332F" d="M177.036 128.467c-.724-.026-1.448-.053-2.174-.078-3.118-1.256-3.619-3.117-2.102-7.79.651-1.209 1.83-1.409 3.03-1.576.847-.09 1.606.174 2.325.591 1.614 1.699 2.376 5.963 1.338 7.773-.518.903-1.199 1.645-2.417 1.08"/>
        <path fill="#FAFAFA" d="M177.036 128.467c1.213-.983 3.98-1.618.766-3.58-.438-.267-.382-.893.103-1.09 3.66-1.476.415-2.502-.218-3.694-.163-.765.366-.988.927-1.185 1.652-.124 3.057.472 4.343 1.457 2.828 2.163 3.045 5.078.357 7.36-2.004 1.703-4.314 2.775-7.078 1.958-.479-.895 1-.513.8-1.226"/>
        <path fill="#48443F" d="M176.237 129.693c1.546-.298 3.173-.391 4.623-.947 1.939-.745 3.67-1.968 3.708-4.367.038-2.413-1.6-3.617-3.608-4.392-.832-.32-1.736-.455-2.606-.674-.914.018-1.842-.415-2.74.087-.704.256-1.405.512-2.11.767-.81.634-1.321 1.85-2.695 1.393-.8-1.086.335-1.38.837-1.744 2.522-1.842 5.393-2.16 8.351-1.475 4.254.985 6.678 4.211 5.647 7.334-1.125 3.413-5.585 5.318-9.407 4.018"/>
        <path fill="#F0F0EF" d="M170.808 121.56c.884-.494 1.504-1.497 2.697-1.393-.813 2.95-2.298 6.01 1.358 8.221-1.735 1.355-2.925-.084-3.841-1.056-1.633-1.729-1.466-3.796-.214-5.772"/>
        <path fill="#F0F0F0" d="M140.225 129.184c-4.508-3.017-4.53-5.51-.077-8.424.713-.194.914.113.75.772-1.23 2.283-1.346 4.552.091 6.8.112.613-.158.882-.764.852"/>
        <path fill="#A1A19F" d="M140.898 121.532l-.75-.772c.533-.827 1.366-.602 2.133-.61l-1.383 1.382"/>
        <path fill="#999997" d="M144.482 120.064c.618-.655 1.231-.78 1.836.015l-.04.801c-.599-.271-1.197-.544-1.796-.816"/>
        <path fill="#8C695E" d="M140.225 129.184c.255-.285.509-.57.764-.852.614.273 1.095.669 1.281 1.348-.745.098-1.513.289-2.045-.496"/>
        <path fill="#8F8F8D" d="M175.614 119.4c.89-.795 1.802-.828 2.74-.086-.223.262-.445.525-.668.79-.69-.235-1.38-.47-2.072-.704"/>
        <path fill="#8C695E" d="M153.79 124.825c0 3.904-4.358 7.07-9.733 7.07-5.375 0-9.732-3.166-9.732-7.07 0-3.904 4.357-7.07 9.732-7.07 5.375 0 9.732 3.166 9.732 7.07M187.806 124.825c0 3.904-4.358 7.07-9.732 7.07-5.377 0-9.732-3.166-9.732-7.07 0-3.904 4.355-7.07 9.732-7.07 5.374 0 9.732 3.166 9.732 7.07"/>
        <path fill="#FFF" d="M153.116 124.316s-2.348-4.67-7.649-4.839c-5.302-.166-8 3.847-8 5.269 0 1.42 1.79 4.932 7.824 4.932 6.035 0 7.825-3.701 7.825-5.362"/>
        <path fill="#000" d="M153.116 124.316c.045.85-.25 1.702-.687 2.446a6.26 6.26 0 0 1-1.784 1.915c-1.513.935-3.28 1.288-4.996 1.327-1.715.05-3.475-.186-5.078-.92-1.577-.733-3.013-2.07-3.401-3.913a2.152 2.152 0 0 1-.01-.742 3.33 3.33 0 0 1 .208-.673 5.71 5.71 0 0 1 .663-1.163 8.276 8.276 0 0 1 1.874-1.838 8.354 8.354 0 0 1 2.342-1.167c.412-.152.844-.224 1.271-.32.433-.043.865-.131 1.302-.119.87-.055 1.745.077 2.597.26a9.651 9.651 0 0 1 2.413 1.013 9.79 9.79 0 0 1 1.913 1.749 8.93 8.93 0 0 1 1.373 2.145m0 0c-.943-1.395-2.2-2.554-3.64-3.307a8.912 8.912 0 0 0-2.226-.94c-.788-.167-1.593-.294-2.41-.24-.406-.013-.806.072-1.209.11-.393.09-.794.156-1.175.295-.766.25-1.505.6-2.158 1.075a7.59 7.59 0 0 0-1.715 1.683 5.022 5.022 0 0 0-.586 1.023c-.08.177-.128.357-.166.53-.025.158-.025.33.01.513.127.736.565 1.443 1.085 2.025a6.1 6.1 0 0 0 1.935 1.384c1.466.674 3.131.907 4.77.857 1.637-.035 3.284-.376 4.652-1.224 1.403-.74 2.597-2.1 2.833-3.784"/>
        <path fill="#34332F" d="M148.749 125.914c0 1.87-1.676 3.387-3.745 3.387-2.068 0-3.745-1.517-3.745-3.387s1.677-3.387 3.745-3.387c2.069 0 3.745 1.516 3.745 3.387"/>
        <path fill="#FFF" d="M148.233 125.706c.45 0 .814.156.814.349 0 .193-.365.35-.814.35-.45 0-.814-.157-.814-.35 0-.193.364-.35.814-.35M169.863 124.316s2.463-4.67 8.028-4.839c5.564-.166 8.394 3.847 8.394 5.269 0 1.42-1.878 4.932-8.212 4.932-6.333 0-8.21-3.701-8.21-5.362"/>
        <path fill="#000" d="M169.863 124.316c.244 1.747 1.555 3.094 3.022 3.82 1.449.83 3.154 1.151 4.847 1.189 1.698.048 3.418-.18 4.956-.836a6.7 6.7 0 0 0 2.047-1.373c.56-.582 1.033-1.303 1.175-2.057a1.45 1.45 0 0 0 .01-.525c-.045-.177-.099-.36-.186-.541a4.963 4.963 0 0 0-.637-1.039 7.764 7.764 0 0 0-1.83-1.68 8.065 8.065 0 0 0-2.263-1.055c-.395-.14-.813-.196-1.222-.286-.419-.036-.832-.117-1.255-.105-.845-.051-1.678.076-2.5.237a9.874 9.874 0 0 0-2.324.925 10.391 10.391 0 0 0-3.84 3.326m0 0a9.007 9.007 0 0 1 1.476-2.174 10.408 10.408 0 0 1 2.023-1.747c.786-.445 1.636-.762 2.507-.992.882-.176 1.782-.308 2.677-.255.45-.013.894.073 1.342.112.438.097.886.158 1.314.308a8.8 8.8 0 0 1 2.443 1.14 8.486 8.486 0 0 1 1.991 1.831c.28.36.53.747.72 1.178.101.211.175.445.232.69.045.268.04.531-.009.771-.431 1.913-1.985 3.212-3.617 3.933-1.669.712-3.477.942-5.246.894-1.768-.04-3.583-.372-5.173-1.28-.755-.508-1.424-1.146-1.913-1.902-.476-.755-.811-1.627-.767-2.507"/>
        <path fill="#34332F" d="M181.531 125.914c0 1.87-1.677 3.387-3.745 3.387-2.069 0-3.745-1.517-3.745-3.387s1.676-3.387 3.745-3.387c2.068 0 3.745 1.516 3.745 3.387"/>
        <path fill="#FFF" d="M181.016 125.706c.448 0 .813.156.813.349 0 .193-.365.35-.813.35-.45 0-.814-.157-.814-.35 0-.193.363-.35.814-.35"/>
        <path fill="#91837E" d="M158.088 119.363a50.139 50.139 0 0 1 1.381 8.307c.092 1.421.09 2.872-.074 4.381a10.775 10.775 0 0 1-1.518 4.604c-.92 1.503-2.394 2.705-3.904 3.43-1.515.74-3.033 1.087-4.514 1.391-2.968.52-5.916.545-8.828.292-2.91-.28-5.788-.846-8.61-1.903-1.406-.524-2.811-1.169-4.167-2.12a9.344 9.344 0 0 1-1.968-1.774c-.298-.408-.608-.749-.823-1.305-.115-.256-.22-.515-.317-.773l-.127-.546c-1.293-5.703-.996-11.73 1.272-16.896-.098 2.795.052 5.511.5 8.151.372 2.642 1.11 5.185 2.014 7.601l.165.444a.926.926 0 0 1 .132.156c.022.103.228.244.35.377.302.276.71.582 1.206.839.968.522 2.104.994 3.31 1.334 2.391.728 4.965 1.178 7.532 1.41 2.567.243 5.164.277 7.649.007 1.228-.157 2.427-.372 3.445-.733 1.002-.387 1.813-.885 2.462-1.652 1.316-1.527 1.978-4.191 2.359-6.819.445-2.663.66-5.428 1.073-8.203M165.294 118.549c.608 5.717 2.359 11.116 4.965 15.664.229.314 1.25.903 2.386 1.197 1.15.322 2.433.534 3.735.653 2.615.249 5.332.216 8.01-.01 1.34-.099 2.671-.287 3.984-.5a30.44 30.44 0 0 0 1.946-.39l.953-.23c.254-.087.528-.137.77-.245 2.008-.715 3.615-2.405 4.632-4.686 1.033-2.26 1.548-4.946 1.643-7.668.135-2.743-.155-5.54-.748-8.372 1.588 2.434 2.594 5.262 3.133 8.203.483 2.944.538 6.073-.39 9.178-.47 1.54-1.201 3.081-2.284 4.442-1.078 1.363-2.524 2.518-4.157 3.237-.401.202-.822.327-1.236.488-.367.116-.737.24-1.106.336-.74.209-1.483.389-2.225.546-1.485.328-2.982.515-4.48.662-2.998.266-6.012.225-9.054-.221-1.52-.26-3.051-.576-4.598-1.187-.773-.31-1.555-.676-2.336-1.204-.768-.53-1.584-1.255-2.138-2.373-1.224-2.895-1.858-5.802-2.15-8.775-.202-2.96-.099-5.945.745-8.745"/>
        <path fill="#B8EBD6" d="M74.403 254.838l-42.154 49.4c-5.58 6.538-4.986 16.322 1.343 22.138a15.968 15.968 0 0 0 17.749 2.627c21.47-10.362 70.771-34.384 69.788-36.018-.744-1.236-11.818-20.36-20.744-35.783-5.523-9.545-18.824-10.752-25.982-2.364"/>
        <path fill="#7C5346" d="M150.351 301.558l-95.988 31.314c-8.792 2.87-18.248-1.934-21.116-10.726-2.869-8.793 1.934-18.248 10.727-21.116l95.989-31.315c8.792-2.87 18.246 1.934 21.116 10.727 2.868 8.794-1.934 18.248-10.728 21.116"/>
        <path fill="#B8EBD6" d="M249.294 254.838l42.155 49.4c5.58 6.538 4.986 16.322-1.343 22.138a15.968 15.968 0 0 1-17.75 2.627c-21.468-10.362-70.77-34.384-69.786-36.018.743-1.236 11.815-20.36 20.744-35.783 5.522-9.545 18.822-10.752 25.98-2.364"/>
        <path fill="#7C5346" d="M173.346 301.558l95.99 31.314c8.792 2.87 18.246-1.934 21.115-10.726 2.868-8.793-1.934-18.248-10.728-21.116l-95.987-31.315c-8.793-2.87-18.248 1.934-21.116 10.727-2.87 8.794 1.934 18.248 10.726 21.116"/>
        <path fill="#262626" d="M263.175 334.111H64.397a7.31 7.31 0 0 1 0-14.616h198.778a7.309 7.309 0 0 1 0 14.616"/>
        <path fill="#323232" d="M241.64 334.111H88.264c-6.37 0-11.536-5.164-11.536-11.535v-86.035c0-6.37 5.165-11.534 11.536-11.534H241.64c6.37 0 11.536 5.164 11.536 11.534v86.035c0 6.371-5.165 11.535-11.536 11.535"/>
        <path fill="#DBDBDB" d="M163.785 268.5c-6.098 0-11.058 4.96-11.058 11.059 0 6.098 4.96 11.058 11.058 11.058s11.059-4.96 11.059-11.058c0-6.1-4.96-11.06-11.059-11.06m0 24.45c-7.384 0-13.392-6.007-13.392-13.39 0-7.384 6.008-13.392 13.392-13.392 7.385 0 13.392 6.008 13.392 13.392 0 7.383-6.007 13.39-13.392 13.39"/>
        <g transform="translate(0 331.45)">
            <mask id="d" fill="#fff">
                <use xlink:href="#c"/>
            </mask>
            <path fill="#141414" d="M27.882 5.03c-1.04 0-1.883-1.062-1.883-2.368 0-1.308.844-2.368 1.883-2.368h267.054c1.04 0 1.881 1.06 1.881 2.368 0 1.306-.842 2.368-1.88 2.368H27.881z" mask="url(#d)"/>
        </g>
    </g>
</svg>
