<svg xmlns="http://www.w3.org/2000/svg" xmlns:xlink="http://www.w3.org/1999/xlink" width="330" height="228" viewBox="0 0 330 228">
    <defs>
        <path id="a" d="M6 0h318a6 6 0 0 1 6 6v222H0V6a6 6 0 0 1 6-6z"/>
        <path id="c" d="M0 175.217h269.778V0H0z"/>
    </defs>
    <g fill="none" fill-rule="evenodd">
        <mask id="b" fill="#fff">
            <use xlink:href="#a"/>
        </mask>
        <use fill="#A885D8" xlink:href="#a"/>
        <path fill="#7B5DA4" d="M-10 141h370v99H-10z" mask="url(#b)"/>
        <g mask="url(#b)">
            <g transform="translate(36 27)">
                <path fill="#F1F2F2" d="M205.749 132.235c-.513-.733-2.852-1.32-5.23-1.32H53.953c-2.378 0-4.716.587-5.23 1.32L21.92 168.902c-.795 1.135.888 6.315 3.77 6.315h203.094c2.883 0 4.565-5.18 3.77-6.315l-26.804-36.667z"/>
                <path fill="#D6D6D6" d="M205.749 132.235c-.513-.733-2.852-1.32-5.23-1.32H53.953c-2.378 0-4.716.587-5.23 1.32L21.92 168.902c-.795 1.135.888 2.069 3.77 2.069h203.094c2.883 0 4.565-.934 3.77-2.07l-26.804-36.666z"/>
                <path fill="#F1F2F2" d="M32.412 162.439l.156.114c-.509.696-.58 1.57-.189 2.34a2.203 2.203 0 0 0 2 1.227h185.714c.862 0 1.61-.458 2-1.227.391-.77.32-1.644-.189-2.34l-19.44-26.594a9.423 9.423 0 0 0-1.945-.194H53.953c-.887 0-1.576.115-1.944.194l-19.44 26.594-.157-.114zm187.681 4.068H34.38a2.618 2.618 0 0 1-2.345-1.44 2.618 2.618 0 0 1 .222-2.742l19.527-26.712.07-.016a9.732 9.732 0 0 1 2.1-.219H200.52c.986 0 1.739.138 2.1.22l.07.015.044.059 19.484 26.653c.587.804.672 1.855.221 2.743a2.618 2.618 0 0 1-2.345 1.44z"/>
                <path fill="#744600" d="M53.953 130.914c-.875 0-1.742.08-2.516.217.639.393 1.956.66 3.537.66h144.524c1.582 0 2.9-.267 3.537-.66a14.697 14.697 0 0 0-2.516-.217H53.953z"/>
                <path fill="#3F3C3A" d="M179.44 130.914H72.269l-.479.965c-.121.245.43.445 1.233.445H178.65c.802 0 1.36-.2 1.244-.445l-.454-.965z"/>
                <path fill="#302E2D" d="M87.065 138.073h7.49a.517.517 0 0 0 .5-.381l.385-1.42a.518.518 0 0 0-.5-.653h-7.38c-.22 0-.416.14-.489.347l-.494 1.42a.517.517 0 0 0 .488.687M79.47 138.988l-.637 1.577a.517.517 0 0 0 .48.711h7.708a.517.517 0 0 0 .492-.356l.516-1.577a.517.517 0 0 0-.492-.679h-7.588c-.21 0-.4.128-.48.324M108.286 141.276h7.794a.517.517 0 0 0 .516-.473l.136-1.577a.517.517 0 0 0-.515-.562h-7.674a.518.518 0 0 0-.51.434l-.258 1.578c-.051.314.192.6.51.6M77.67 138.073h7.45c.219 0 .414-.138.487-.345l.5-1.42a.518.518 0 0 0-.488-.689h-7.34a.518.518 0 0 0-.476.314l-.609 1.419a.517.517 0 0 0 .476.721M134.752 145.264h-8.192a.518.518 0 0 0-.517.511l-.022 1.934a.518.518 0 0 0 .517.523h8.34c.3 0 .536-.253.517-.55l-.127-1.935a.517.517 0 0 0-.516-.483M81.627 144.318l.639-1.749a.517.517 0 0 0-.486-.695h-7.813a.518.518 0 0 0-.474.308l-.773 1.749a.517.517 0 0 0 .473.726h7.948a.516.516 0 0 0 .486-.34M98.624 141.276h7.775a.518.518 0 0 0 .51-.432l.263-1.578a.518.518 0 0 0-.51-.602h-7.655a.518.518 0 0 0-.502.395l-.384 1.578c-.08.325.167.64.503.64M88.966 141.276h7.746a.518.518 0 0 0 .503-.393l.39-1.578a.518.518 0 0 0-.503-.64h-7.626a.518.518 0 0 0-.492.357l-.51 1.577a.518.518 0 0 0 .492.677M105.869 138.073h7.543a.518.518 0 0 0 .515-.46l.158-1.42a.517.517 0 0 0-.514-.574h-7.436a.517.517 0 0 0-.508.422l-.267 1.42a.518.518 0 0 0 .509.612M96.465 138.073h7.52a.518.518 0 0 0 .509-.42l.272-1.419a.518.518 0 0 0-.508-.615h-7.412a.518.518 0 0 0-.5.383l-.381 1.42c-.088.329.16.651.5.651M91.603 144.282l.499-1.748a.518.518 0 0 0-.498-.66h-7.855a.518.518 0 0 0-.487.342l-.633 1.748a.517.517 0 0 0 .487.694h7.99a.517.517 0 0 0 .497-.376M121.048 141.874h-7.927a.518.518 0 0 0-.513.455l-.212 1.749a.517.517 0 0 0 .513.58h8.061a.518.518 0 0 0 .517-.495l.078-1.749a.517.517 0 0 0-.517-.54M124.677 145.264h-8.19a.517.517 0 0 0-.516.47l-.177 1.934a.517.517 0 0 0 .516.564h8.339a.518.518 0 0 0 .517-.51l.028-1.934a.517.517 0 0 0-.517-.524M114.597 145.264h-8.18a.517.517 0 0 0-.51.43l-.331 1.933a.517.517 0 0 0 .51.605h8.327c.268 0 .49-.203.515-.468l.184-1.934a.518.518 0 0 0-.515-.566M130.854 141.874h-7.932a.518.518 0 0 0-.518.496l-.071 1.749a.517.517 0 0 0 .517.538h8.066a.517.517 0 0 0 .517-.535l-.062-1.749a.517.517 0 0 0-.517-.499M84.17 147.88l.649-1.934a.517.517 0 0 0-.49-.682h-8.091a.517.517 0 0 0-.479.32l-.796 1.934c-.14.34.11.714.478.714h8.239c.223 0 .42-.142.49-.353M111.238 141.874h-7.912a.518.518 0 0 0-.507.416l-.353 1.748c-.064.32.181.62.508.62h8.046c.26 0 .481-.195.514-.454l.218-1.749a.518.518 0 0 0-.514-.58M94.422 145.264h-8.128a.518.518 0 0 0-.492.354l-.64 1.934a.517.517 0 0 0 .49.68h8.277c.236 0 .443-.16.501-.39l.494-1.933a.517.517 0 0 0-.502-.645M101.423 141.874h-7.888a.517.517 0 0 0-.498.377L92.545 144a.517.517 0 0 0 .498.657h8.022a.517.517 0 0 0 .507-.413l.358-1.749a.518.518 0 0 0-.507-.62M104.512 145.264h-8.159a.518.518 0 0 0-.501.39l-.487 1.935a.517.517 0 0 0 .502.643h8.306c.252 0 .467-.18.51-.428l.338-1.934a.517.517 0 0 0-.51-.606M69.663 141.276h7.663c.21 0 .4-.127.48-.322l.642-1.577a.517.517 0 0 0-.48-.713h-7.542a.517.517 0 0 0-.466.292l-.763 1.578a.518.518 0 0 0 .466.742M162.659 144.657h7.992a.518.518 0 0 0 .487-.69l-.623-1.75a.518.518 0 0 0-.487-.343h-7.858a.518.518 0 0 0-.498.657l.489 1.748a.517.517 0 0 0 .498.378M181.048 143.933l-.763-1.748a.517.517 0 0 0-.474-.311h-7.817a.517.517 0 0 0-.487.693l.628 1.748a.518.518 0 0 0 .487.343h7.952a.517.517 0 0 0 .474-.725M173.449 138.664h-7.592c-.35 0-.6.34-.493.674l.5 1.577c.07.216.269.361.494.361h7.713a.518.518 0 0 0 .482-.707l-.623-1.577a.517.517 0 0 0-.481-.328M161.48 136.282l.415 1.42c.064.22.267.371.496.371h7.48c.36 0 .61-.359.486-.696l-.525-1.42a.518.518 0 0 0-.485-.338h-7.37a.518.518 0 0 0-.498.663M170.814 136.317l.53 1.42a.517.517 0 0 0 .484.337h7.438a.518.518 0 0 0 .472-.73l-.639-1.42a.517.517 0 0 0-.472-.305H171.3c-.361 0-.611.36-.485.698M182.973 138.664h-7.548a.517.517 0 0 0-.48.709l.627 1.577a.517.517 0 0 0 .48.326h7.67c.38 0 .63-.396.467-.74l-.75-1.576a.517.517 0 0 0-.466-.296M178.993 135.035h5.746a.517.517 0 0 0 .46-.752l-.228-.45a.517.517 0 0 0-.461-.282h-5.717a.518.518 0 0 0-.473.728l.2.45a.518.518 0 0 0 .473.306M75.79 133.55h-5.716a.518.518 0 0 0-.461.284l-.229.45a.518.518 0 0 0 .462.751h5.745c.205 0 .39-.12.473-.307l.2-.45a.518.518 0 0 0-.473-.727M115.277 138.073h7.557c.28 0 .509-.222.517-.501l.045-1.42a.518.518 0 0 0-.517-.533h-7.449c-.264 0-.486.2-.514.462l-.153 1.42a.517.517 0 0 0 .514.572M180.001 150.108h10.503a.517.517 0 0 0 .463-.747l-.111-.226a.518.518 0 0 0-.464-.288H179.91a.518.518 0 0 0-.48.71l.09.226a.518.518 0 0 0 .481.325M127.624 141.276h7.806c.3 0 .538-.255.516-.556l-.117-1.577a.517.517 0 0 0-.516-.479h-7.685a.517.517 0 0 0-.517.516l-.005 1.578c0 .286.232.518.518.518M124.213 136.122l-.04 1.42a.518.518 0 0 0 .517.531h7.56a.518.518 0 0 0 .518-.542l-.07-1.42a.518.518 0 0 0-.516-.492h-7.452c-.28 0-.51.223-.517.503M117.952 141.276h7.806c.284 0 .515-.23.517-.514l.01-1.577a.518.518 0 0 0-.518-.52h-7.684a.518.518 0 0 0-.516.474l-.13 1.577a.517.517 0 0 0 .515.56M133.518 136.164l.074 1.419c.014.275.241.49.517.49h7.554a.518.518 0 0 0 .513-.583l-.183-1.42a.518.518 0 0 0-.513-.451h-7.446a.518.518 0 0 0-.516.545M142.83 136.204l.189 1.42c.034.257.253.45.513.45h7.538a.517.517 0 0 0 .507-.624l-.297-1.42a.518.518 0 0 0-.507-.41h-7.43a.518.518 0 0 0-.512.584M152.151 136.244l.302 1.42c.051.239.262.41.506.41h7.514c.344 0 .593-.33.497-.662l-.41-1.42a.518.518 0 0 0-.498-.373h-7.404a.517.517 0 0 0-.507.625M146.982 141.276h7.777c.334 0 .58-.31.504-.635l-.37-1.578a.517.517 0 0 0-.503-.399h-7.657a.517.517 0 0 0-.51.598l.248 1.577c.039.252.256.437.51.437M137.3 141.276h7.797c.317 0 .56-.282.512-.596l-.244-1.577a.517.517 0 0 0-.511-.439h-7.676a.518.518 0 0 0-.516.558l.123 1.577c.02.27.245.477.515.477M156.668 141.276h7.75c.349 0 .598-.339.493-.672l-.496-1.578a.517.517 0 0 0-.494-.362h-7.628a.518.518 0 0 0-.504.637l.375 1.578a.518.518 0 0 0 .504.397M176.517 145.969l.754 1.934c.077.198.269.33.482.33h22.702a.517.517 0 0 0 .448-.777l-1.118-1.934a.518.518 0 0 0-.448-.259H177a.518.518 0 0 0-.483.706M71.646 144.35l.779-1.748a.517.517 0 0 0-.473-.728H57.096a.518.518 0 0 0-.448.259l-1.011 1.748c-.2.345.05.776.448.776h15.088c.205 0 .39-.12.473-.306M68.092 140.985l.77-1.577a.518.518 0 0 0-.466-.744h-9.444a.517.517 0 0 0-.448.259l-.912 1.577c-.2.345.05.776.448.776h9.587a.518.518 0 0 0 .465-.29M73.905 147.913l.803-1.933a.518.518 0 0 0-.478-.716H55.136a.518.518 0 0 0-.448.258l-1.119 1.934c-.2.345.05.776.448.776h19.41a.517.517 0 0 0 .478-.319M92.86 148.847h-8.402a.517.517 0 0 0-.49.353l-.829 2.458a.518.518 0 0 0 .49.683h8.591c.236 0 .442-.16.501-.387l.64-2.46a.518.518 0 0 0-.502-.647M82.478 148.847h-8.363a.516.516 0 0 0-.477.319l-1.026 2.458a.517.517 0 0 0 .478.717h8.551a.518.518 0 0 0 .49-.35l.837-2.46a.518.518 0 0 0-.49-.684M71.536 152.024l1.033-2.459a.517.517 0 0 0-.477-.718h-8.316a.517.517 0 0 0-.463.287l-1.223 2.459a.517.517 0 0 0 .464.748h8.505a.516.516 0 0 0 .477-.317M77.621 135.035h5.787a.517.517 0 0 0 .485-.335l.169-.45a.517.517 0 0 0-.485-.7H77.82a.517.517 0 0 0-.473.31l-.198.449c-.15.342.1.726.473.726M93.181 135.035h5.853c.24 0 .448-.164.504-.397l.108-.449a.518.518 0 0 0-.504-.638h-5.824a.517.517 0 0 0-.495.367l-.137.449a.518.518 0 0 0 .495.668M68.278 138.073h7.402a.517.517 0 0 0 .475-.312l.613-1.419a.518.518 0 0 0-.475-.723H69a.518.518 0 0 0-.46.283l-.723 1.42a.517.517 0 0 0 .461.751M59.893 138.073h6.343a.518.518 0 0 0 .461-.281l.727-1.42a.517.517 0 0 0-.46-.753h-6.25a.518.518 0 0 0-.448.258l-.821 1.42c-.2.345.05.776.448.776M85.4 135.035h5.823a.517.517 0 0 0 .494-.365l.139-.45a.518.518 0 0 0-.495-.67h-5.794a.517.517 0 0 0-.485.338l-.167.449a.518.518 0 0 0 .485.698M144.697 148.847H94.805a.518.518 0 0 0-.502.389l-.63 2.459a.518.518 0 0 0 .5.646h50.87a.518.518 0 0 0 .513-.59l-.346-2.459a.518.518 0 0 0-.513-.445M68.232 134.754l.23-.45a.517.517 0 0 0-.46-.753H61.91a.517.517 0 0 0-.448.258l-.26.45c-.2.345.05.776.448.776h6.121c.194 0 .372-.109.46-.281M61.703 148.847h-8.64a.517.517 0 0 0-.448.259l-1.422 2.458c-.2.345.05.777.448.777h8.831c.196 0 .375-.11.463-.286l1.23-2.458a.518.518 0 0 0-.462-.75M202.497 150.727H193.4a.518.518 0 0 0-.463.749l.288.578a.517.517 0 0 0 .464.287h9.142a.517.517 0 0 0 .448-.776l-.334-.58a.518.518 0 0 0-.448-.258M186.814 135.035h6.009a.518.518 0 0 0 .448-.776l-.26-.45a.517.517 0 0 0-.448-.258h-5.98a.518.518 0 0 0-.46.754l.23.449a.517.517 0 0 0 .46.281M165.4 148.847h-8.417a.517.517 0 0 0-.505.63l.552 2.46a.518.518 0 0 0 .504.404h8.606a.518.518 0 0 0 .495-.667l-.74-2.459a.518.518 0 0 0-.495-.368M155.05 148.847h-8.442a.517.517 0 0 0-.512.591l.354 2.46a.518.518 0 0 0 .512.443h8.632c.33 0 .577-.306.505-.63l-.543-2.458a.518.518 0 0 0-.505-.406M178.647 150.727h-10.712a.517.517 0 0 0-.495.669l.176.578a.518.518 0 0 0 .495.367h10.766a.517.517 0 0 0 .48-.71l-.23-.577a.517.517 0 0 0-.48-.327M191.322 150.727h-10.657a.517.517 0 0 0-.48.71l.232.58a.518.518 0 0 0 .48.324h10.712a.517.517 0 0 0 .464-.747l-.287-.578a.518.518 0 0 0-.464-.288M139.937 135.035h5.895c.32 0 .564-.288.51-.604l-.076-.449a.517.517 0 0 0-.51-.431h-5.866a.518.518 0 0 0-.515.571l.047.45c.028.263.25.463.515.463M176.236 147.528l-.747-1.933a.517.517 0 0 0-.483-.332h-8.103a.518.518 0 0 0-.495.67l.599 1.935a.517.517 0 0 0 .494.364h8.252a.517.517 0 0 0 .483-.704M166.036 147.563l-.592-1.934a.517.517 0 0 0-.495-.366h-8.14a.518.518 0 0 0-.504.634l.444 1.933a.517.517 0 0 0 .504.402h8.288a.518.518 0 0 0 .495-.669M181.348 142.6l.769 1.748c.082.188.268.31.473.31h15.798a.517.517 0 0 0 .448-.777l-1.012-1.748a.517.517 0 0 0-.447-.259H181.82a.517.517 0 0 0-.473.726M180.154 136.35l.643 1.42a.517.517 0 0 0 .472.303h13.31a.517.517 0 0 0 .449-.776l-.821-1.42a.518.518 0 0 0-.448-.258h-13.133a.518.518 0 0 0-.472.731M184.53 139.405l.754 1.577c.086.18.268.294.467.294h10.682a.517.517 0 0 0 .447-.776l-.912-1.578a.518.518 0 0 0-.448-.258h-10.523a.517.517 0 0 0-.467.74M145.616 147.64l-.282-1.934a.518.518 0 0 0-.512-.442h-8.184c-.3 0-.537.254-.516.553l.133 1.933a.518.518 0 0 0 .517.482h8.332c.316 0 .558-.28.512-.592M160.24 141.874h-7.889a.517.517 0 0 0-.507.619l.348 1.748c.048.242.26.416.507.416h8.025c.342 0 .59-.325.499-.655l-.483-1.748a.518.518 0 0 0-.5-.38M150.45 141.874h-7.913c-.31 0-.55.27-.514.579l.208 1.748c.03.26.251.456.514.456h8.047c.326 0 .57-.297.508-.616l-.342-1.749a.518.518 0 0 0-.508-.418M155.83 147.6l-.437-1.933a.518.518 0 0 0-.505-.403h-8.166a.518.518 0 0 0-.512.593l.289 1.934a.517.517 0 0 0 .511.441h8.315a.517.517 0 0 0 .504-.631M147.742 135.035h5.877c.335 0 .58-.312.504-.637l-.106-.45a.518.518 0 0 0-.504-.397h-5.849a.518.518 0 0 0-.51.606l.078.449c.043.248.258.43.51.43M116.544 135.035h5.905c.278 0 .507-.22.517-.5l.016-.448a.518.518 0 0 0-.517-.536h-5.877a.518.518 0 0 0-.514.466l-.045.45a.517.517 0 0 0 .515.568M124.338 135.035h5.909a.518.518 0 0 0 .517-.534l-.015-.45a.518.518 0 0 0-.517-.5h-5.88a.517.517 0 0 0-.517.5l-.014.45a.517.517 0 0 0 .517.534M108.753 135.035h5.894c.265 0 .488-.2.515-.464l.046-.45a.517.517 0 0 0-.514-.57h-5.866a.517.517 0 0 0-.51.432l-.075.449a.517.517 0 0 0 .51.603M132.136 135.035h5.905a.518.518 0 0 0 .515-.57l-.046-.448a.517.517 0 0 0-.515-.466h-5.875a.518.518 0 0 0-.518.536l.017.45c.01.278.238.498.517.498M140.654 141.874h-7.927a.518.518 0 0 0-.517.538l.068 1.748c.01.278.239.497.517.497h8.062c.309 0 .55-.269.514-.576l-.203-1.749a.518.518 0 0 0-.514-.458M155.55 135.035h5.853a.518.518 0 0 0 .495-.669l-.136-.449a.518.518 0 0 0-.496-.366h-5.824a.517.517 0 0 0-.503.638l.109.45a.517.517 0 0 0 .502.396M163.362 135.035h5.823c.36 0 .61-.36.485-.699l-.168-.449a.518.518 0 0 0-.485-.336h-5.794a.517.517 0 0 0-.495.67l.14.45a.517.517 0 0 0 .494.364M100.965 135.035h5.878a.517.517 0 0 0 .51-.43l.077-.45a.517.517 0 0 0-.51-.604h-5.849a.517.517 0 0 0-.503.398l-.106.45a.518.518 0 0 0 .503.636M171.176 135.035h5.787a.518.518 0 0 0 .473-.726l-.198-.45a.518.518 0 0 0-.473-.308h-5.758a.517.517 0 0 0-.484.7l.17.45a.517.517 0 0 0 .483.334"/>
                <path fill="#F1F2F2" d="M153.26 156.823c-.158-.44-1.306-.793-2.565-.793h-46.917c-1.26 0-2.408.353-2.565.793l-3.042 8.508c-.199.556.806 1.013 2.246 1.013h53.638c1.44 0 2.445-.457 2.246-1.013l-3.041-8.508zM54.982 131.917a3.92 3.92 0 0 1-3.915-3.915v-86.84c0-4.503 3.705-8.165 8.26-8.165H195.27c4.555 0 8.26 3.662 8.26 8.164v86.841a3.919 3.919 0 0 1-3.914 3.915H54.982z"/>
                <path fill="#D6D6D6" d="M195.27 33.514H59.327c-4.276 0-7.742 3.424-7.742 7.648v86.84a3.397 3.397 0 0 0 3.397 3.398h144.634a3.397 3.397 0 0 0 3.397-3.397V41.162c0-4.224-3.466-7.648-7.743-7.648"/>
                <path fill="#231F20" d="M126.878 36.091a1.132 1.132 0 1 0 0 2.265 1.132 1.132 0 0 0 0-2.265"/>
                <mask id="d" fill="#fff">
                    <use xlink:href="#c"/>
                </mask>
                <path fill="#939598" d="M57.757 129.582H196.84v-88.71H57.757z" mask="url(#d)"/>
                <path fill="#FFF" d="M58.016 129.323h138.566V41.13H58.016z" mask="url(#d)"/>
                <path fill="#FF7900" d="M57.647 49.914H196.95V41.13H57.647z" mask="url(#d)"/>
                <path fill="#FFF" d="M165.01 46.132h10.411v-1.22h-10.41zM151.307 46.132h10.41v-1.22h-10.41zM78.22 46.434h22.885v-2.21H78.22z" mask="url(#d)"/>
                <path fill="#E6E7E8" d="M80.293 110.972h60.214v-3.312H80.293zM80.293 100.226h60.214v-2.02H80.293zM80.293 90.126h47.005v-2.02H80.293zM80.293 80.026h60.214v-2.02H80.293z" mask="url(#d)"/>
                <path fill="#BDBDBD" d="M144.453 69.927h31.789v-2.02h-31.789zM80.293 69.927h60.214v-2.02H80.293z" mask="url(#d)"/>
                <path fill="#FF7900" d="M80 65.024h11.024V54H80z" mask="url(#d)"/>
                <path fill="#BDBDBD" d="M144.453 87.643h13.708V73.935h-13.708z" mask="url(#d)"/>
                <path fill="#E6E7E8" d="M162.534 87.643h13.708V73.935h-13.708zM144.453 106.07h13.708V92.362h-13.708z" mask="url(#d)"/>
                <path fill="#BDBDBD" d="M162.534 106.07h13.708V92.362h-13.708z" mask="url(#d)"/>
                <path fill="#D6D6D6" d="M115.87 172.71h22.732v-1.74H115.87z" mask="url(#d)"/>
                <path fill="#F1F2F2" d="M138.602 170.97H115.87l.259-1.22h22.213z" mask="url(#d)"/>
                <path fill="#B5E8F7" d="M180.5 27.877l-2.343.223-2.24-.213c-2.276-.217-4.57-.456-6.682.419l-.524.217 2.394 4.618h14.104l1.792-4.917c-2.062-.822-4.29-.557-6.501-.347" mask="url(#d)"/>
                <path fill="#000" d="M180.5 27.877l-2.343.223-2.24-.213c-2.276-.217-4.57-.456-6.682.419l-.524.217s2.971-1.618 9.446 3.517c6.03-5.922 8.844-3.816 8.844-3.816-2.062-.822-4.29-.557-6.501-.347" mask="url(#d)"/>
                <path fill="#62342D" d="M186.422 19.796s.69 5.897 0 6.67c-.692.773-4.858 3.004-4.858 3.004v-9.674h4.858zM169.86 19.796s-.45 5.903.186 6.865c.637.962 4.546 2.809 4.546 2.809v-9.674h-4.732z" mask="url(#d)"/>
                <path fill="#FF7900" d="M169.182 19.796l8.923 2.552 8.748-2.552-.476-2.69c-.237-1.342-1.197-2.407-2.446-2.716l-5.826-1.44-5.921 1.458c-1.216.3-2.162 1.317-2.43 2.614l-.572 2.774z" mask="url(#d)"/>
                <path fill="#FF7900" d="M184.232 27.813s-4.108 2.453-6.075 2.366c-1.967-.086-5.766-1.656-5.766-1.656V18.78h11.375l.466 9.034z" mask="url(#d)"/>
                <path fill="#62342D" d="M178.078 17.508a2.028 2.028 0 0 1-2.027-2.027v-1.406h4.055v1.406c0 1.12-.908 2.027-2.028 2.027M181.014 13.015h-5.774a.715.715 0 0 1-.715-.715v-.448c0-.395.32-.715.715-.715h6.18c.171 0 .31.138.31.309v.854c0 .395-.32.715-.716.715" mask="url(#d)"/>
                <path fill="#62342D" d="M176.05 15.697l.952.729c.667.38 1.485.38 2.152 0l.952-.683V14.66h-4.056v1.037z" mask="url(#d)"/>
                <path fill="#62342D" d="M180.454 15.174l-1.345.965a1.983 1.983 0 0 1-1.963 0l-1.268-.971a1.067 1.067 0 0 1-.408-.698l-.361-2.552c-.262-1.853 1.177-4.651 3.048-4.651h-.03c1.85 0 3.313 2.763 3.085 4.6l-.32 2.571a1.067 1.067 0 0 1-.438.736" mask="url(#d)"/>
                <path fill="#62342D" d="M176.663 9.49s1.41 1.065 4.432 1.17c.503-.384-.504-2.46-.504-2.46l-3.928 1.29z" mask="url(#d)"/>
                <path fill="#000" d="M180.943 6.72c-.367-.57-.999-.914-1.677-.914h-1.733c-1.018 0-2.003.438-2.628 1.24-.283.365-.477 1.316-.421 1.75l.215 1.69.438 1.768c.016.084.138.08.148-.005.075-.69.044-1.751.044-1.751s1.037-.722 1.334-1.008c1.021.327 2.536.609 3.613.609h.552s.083 1.255.204 2.112c.016.109.173.108.187-.001l.358-2.111c1.511-.654 1.204-2.28 1.204-2.28l-.84-.304a2 2 0 0 1-.998-.795" mask="url(#d)"/>
                <path fill="#B1B3B5" d="M184.146 30.3l1.084-1.902.137-.51H171.06l.138.51.89 1.772z" mask="url(#d)"/>
                <path fill="#B1B3B5" d="M185.367 27.888H171.06c0 .563.652 1.02 1.215 1.02h12.072a1.02 1.02 0 0 0 1.02-1.02" mask="url(#d)"/>
                <path fill="#FFF" d="M184.631 22.633h-12.949a.68.68 0 0 0-.67.784l.825 5.29c.096.61.62 1.06 1.238 1.06h10.164c.617 0 1.143-.45 1.238-1.06l.826-5.29a.68.68 0 0 0-.672-.784" mask="url(#d)"/>
                <path fill="#B1B3B5" d="M184.311 29.767v.07c0 .406-.33.736-.736.736h-10.831a.736.736 0 0 1-.737-.736v-.07h12.304" mask="url(#d)"/>
                <path fill="#8F8F8F" d="M184.631 22.828h-12.949a.68.68 0 0 0-.67.784l.923 5.918c.039.249.254.432.505.432h11.434a.511.511 0 0 0 .505-.432l.924-5.918a.68.68 0 0 0-.672-.784" mask="url(#d)"/>
                <path fill="#FFF" d="M178.939 26.618c0 .345-.35.624-.782.624-.432 0-.782-.28-.782-.624 0-.345.35-.625.782-.625.432 0 .782.28.782.625" mask="url(#d)"/>
                <path fill="#000" d="M182.146 41.018l-.522 1.95a.715.715 0 0 0 .259.755l2.114 1.601a7.79 7.79 0 0 0 2.69 1.315 1.21 1.21 0 0 0 1.128-.275.889.889 0 0 0 .04-1.274l-2.532-2.619-3.177-1.453z" mask="url(#d)"/>
                <path fill="#EEF0F0" d="M186.834 46.088a7.79 7.79 0 0 1-2.69-1.315l-2.496-1.892-.024.088a.715.715 0 0 0 .26.754l2.113 1.6a7.79 7.79 0 0 0 2.69 1.316 1.21 1.21 0 0 0 1.128-.275.886.886 0 0 0 .288-.716c-.04.06-.198.62-1.269.44" mask="url(#d)"/>
                <path fill="#B5E8F7" d="M187.002 28.223a1.585 1.585 0 0 0-1.942 1.122l-.423 1.583-2.834 10.588 1.025 1.029 3.162.091 2.833-10.587.123-.46a2.749 2.749 0 0 0-1.944-3.366" mask="url(#d)"/>
                <path fill="#000" d="M184.637 30.928l-2.834 10.588 1.025 1.029zM174.143 41.087l.516 1.953a.715.715 0 0 1-.26.753l-2.12 1.595a7.797 7.797 0 0 1-2.693 1.308c-.399.105-.824 0-1.128-.279a.889.889 0 0 1-.036-1.274l2.54-2.611 3.18-1.445z" mask="url(#d)"/>
                <path fill="#EEF0F0" d="M169.44 46.144a7.786 7.786 0 0 0 2.693-1.307l2.503-1.884.023.087a.714.714 0 0 1-.26.753l-2.12 1.595a7.79 7.79 0 0 1-2.693 1.308 1.21 1.21 0 0 1-1.128-.278.886.886 0 0 1-.285-.717c.039.059.196.62 1.267.443" mask="url(#d)"/>
                <path fill="#B5E8F7" d="M169.325 28.279a1.585 1.585 0 0 1 1.938 1.127l.42 1.585 2.801 10.596-1.027 1.026-3.163.082-2.802-10.596-.122-.46a2.75 2.75 0 0 1 1.955-3.36" mask="url(#d)"/>
                <path fill="#000" d="M171.682 30.99l2.803 10.597-1.028 1.025zM196.86 126.394a3.947 3.947 0 0 0-1.474.887l-.249.236a.208.208 0 0 0-.03.266c.206.314 3.222 3.475 3.785 4.28.563.807 1.586 1.527 2.038 1.096-1.777-3.463-2.09-4.686-2.09-4.686l-1.98-2.079z" mask="url(#d)"/>
                <path fill="#FFF" d="M199.208 132.045c-.507-.726-3.288-3.78-3.985-4.61l-.086.082a.209.209 0 0 0-.03.266c.206.314 3.222 3.475 3.785 4.28.504.722 1.376 1.374 1.878 1.194-.5-.085-1.153-.626-1.562-1.212" mask="url(#d)"/>
                <path fill="#A885D8" d="M208.984 119.296l-9.973 9.686s-.917.167-1.945-.725c-1.029-.892-1.186-1.68-1.186-1.68l7.811-8.959 2.097-1.745 3.196 3.423z" mask="url(#d)"/>
                <path fill="#000" d="M206.994 116.159s-10.868 8.915-9.928 12.099c-1.029-.893-1.186-1.681-1.186-1.681l7.811-8.96 2.097-1.744 1.206.286zM203.385 75.21c.322.153.968.109 1.276-.07.6-.352 2.008.208 2.44 1.407.13.363.137.787.063 1.212-.166.959-.732 1.797-1.507 2.385-2.082 1.578-2.188 3.845-3.543 3.779-2.23-.11-4.022-2.785-3.62-5.393.262-3.688 3.466-4 4.891-3.32" mask="url(#d)"/>
                <path fill="#714E46" d="M199.315 80.938l2.926 1.649-.022 1.295c-.013.715.106 1.042.716 1.405 0 0 2.896 2.404 1.115 3.44-2.513 1.463-6.1-3.565-6.1-3.565 1.155-2.058 1.365-4.224 1.365-4.224M207.054 90.436l.914 7.428.673 4.236.26 1.184-.18 1.23-.953-1.51s-1.943-8.978-1.944-9.212c-.002-.232-.365-3.776-.365-3.776l1.595.42z" mask="url(#d)"/>
                <path fill="#A885D8" d="M207.392 101.319l.376 1.685.953 1.51-.315 1.335 1.622 6.49c.328 1.307.523 2.645.584 3.992a3.148 3.148 0 0 1-1.159 2.584l-.47.381-2.967-.053-.08-2.727-5.13-13.905 6.586-1.292z" mask="url(#d)"/>
                <path fill="#000" d="M204.522 105.727l2.169 9.521a1.585 1.585 0 0 1-.415 1.463l-.324.33-5.146-14.43 3.716 3.116z" mask="url(#d)"/>
                <path fill="#FFF" d="M204.031 130.529c-.213.814 2.945 2.741 4.12 3.605.168.122.545.86-1.988.508-1.463-.203-3.805-1.588-3.9-1.719-.462-.627-.022-1.6-.022-1.6l1.79-.794z" mask="url(#d)"/>
                <path fill="#000" d="M204.383 130.074c-.212.814 1.692 2.665 3.433 3.795.49.317.474.379.237.509-.235.13-1.056.224-2.185-.047-1.687-.406-1.814-.891-3.579-1.746-.669-.325.39-1.904-.043-2.518-.434-.615 2.137.007 2.137.007" mask="url(#d)"/>
                <path fill="#A885D8" d="M206.235 101.69l-.06 3.032a1.933 1.933 0 0 1-.761 1.5 1.32 1.32 0 0 0-.509.883l-.548 10.646s.561 12.41.886 13.657c-.83.717-3.113.185-3.113.185l-1.291-6.105c-.324-1.653-.771-3.485-.661-5.165l.123-1.885-1.094-5.59c-.247-1.216-.553-2.626-.576-3.866l-.028-1.434a2.036 2.036 0 0 0-.167-.773 5.915 5.915 0 0 1-.486-2.355l.003-2.27 8.282-.46z" mask="url(#d)"/>
                <path fill="#000" d="M201.089 118.312c-1.318-5.964-.956-11.528-.956-11.528s3.509-.34 3.353-3.547l-5.482-1.09-.051.002-.003 2.27c-.001.81.164 1.613.486 2.356.106.245.163.507.168.773l.027 1.434c.023 1.24.328 2.65.576 3.866l1.094 5.59-.123 1.885c-.11 1.68.337 3.512.661 5.164l1.29 6.106s-1.977-8.095-1.04-13.281" mask="url(#d)"/>
                <path fill="#000" d="M200.236 103.5a62.226 62.226 0 0 1-.066 2.54s2.098.015 2.48-1.886c.382-1.9-2.414-.654-2.414-.654" mask="url(#d)"/>
                <path fill="#FFB4E6" d="M197.95 85.162s3.005 2.62 4.695 2.403c.793-.101 1.028-1.679.29-2.278.093.042 3.148 1.194 3.482 1.964.367.845.7 2.297.637 3.185-.123-.03-.554.314-.554.314.156.892.098 5.24.19 5.867.38 2.611 1.099 6.003 1.078 6.387-.356.465-3.719 3.05-9.82 2.342a.24.24 0 0 1-.208-.21c-.282-2.565-.16-4.581-.507-6.323-.427-2.145-1.321-3.747-1.321-3.747l-.662-1.444c-1.016-2.677-.875-3.804-.266-5.608.609-1.804 2.966-2.852 2.966-2.852" mask="url(#d)"/>
                <path fill="#AE572D" d="M200.858 84.853c.367.194 1.783.61 2.186.25h-.002a.933.933 0 0 1-.222-.155c-.464-.369-.612-.445-.601-1.066l.022-1.295-2.482-1.073c-.004.02-.723 2.372 1.1 3.339" mask="url(#d)"/>
                <path fill="#714E46" d="M200.45 80.11c.441-1.625 1.139-1.004 1.616-1.54 1.104-1.24 2.006.444 3.57 1.204 0 .128-.698 2.448-.854 2.78-1.04 2.226-.955 2.558-2.513 2.065-1.572-.498-2.574-1.537-2.777-2.642a190.04 190.04 0 0 1-.263-1.55c.295.047 1.055.296 1.221-.316" mask="url(#d)"/>
                <path fill="#000" d="M200.45 80.11s-.436 1.293.223 2.26c.66.97 1.657.582 2.28.4.625-.183 1.636.202 1.636.202s-.517 2.102-1.085 2.425c-.567.322-2.176-.656-2.945-1.314-.768-.657-1.2-2.268-.75-3.512.452-1.244.641-.46.641-.46" mask="url(#d)"/>
                <path fill="#714E46" d="M204.369 83.702l-.946-.304a.228.228 0 0 0-.14.433l.947.304h.004c.053-.147.101-.292.145-.428-.004 0-.007-.004-.01-.005M199.865 79.21c.164.167-.103 2.15-.337 2.141-.58-.023-.76-.996-.772-1.625-.015-.836.816-.814 1.109-.517M201.326 96l-1.843-3.916c-.924.745-3.28 1.495-4.076 1.47 0 0 3.942 5.611 4.763 5.427.82-.185 1.32.155 2.574-.044 1.254-.2 4.971-2.26 4.971-2.26l-.31-1.633-6.08.955z" mask="url(#d)"/>
                <path fill="#595959" d="M211.739 90.835l-4.167 1.536a.208.208 0 0 0-.122.266l.464 1.26 4.555-1.68-.464-1.26a.207.207 0 0 0-.266-.122" mask="url(#d)"/>
                <path fill="#FFF" d="M211.7 91.135a.145.145 0 0 0-.187-.085l-3.63 1.338a.145.145 0 0 0-.085.186l.304.824a.145.145 0 0 0 .186.086l3.63-1.339a.145.145 0 0 0 .085-.186l-.303-.824z" mask="url(#d)"/>
                <path fill="#B1B3B5" d="M212.47 92.217a.13.13 0 0 0-.167-.077l-4.312 1.59a.13.13 0 0 0-.076.166l.07.192a.13.13 0 0 0 .166.076l4.312-1.59a.129.129 0 0 0 .077-.166l-.07-.191z" mask="url(#d)"/>
                <path fill="#FFF" d="M212.065 92.38l-.378.14a.088.088 0 0 0-.052.113.087.087 0 0 0 .113.052l.378-.14a.088.088 0 1 0-.06-.165M211.11 92.734l-.9.331a.088.088 0 0 0-.052.113.087.087 0 0 0 .112.052l.9-.332a.088.088 0 1 0-.06-.164" mask="url(#d)"/>
                <path fill="#714E46" d="M211.47 92.943l-2.481.923a.44.44 0 0 1-.548-.6l.267-.568c.109-.455.021-.755-.318-.827l-1.065 1.72-.205 2.165-.036 1.15 1.398-.342c.962-.253 1.769-.972 1.769-.972.399-.161.35-.685.35-.685-.043-.074.148-.332.167-.416l.046-.205a.342.342 0 0 0-.108-.333s.777-.36.811-.486c.206-.346-.047-.524-.047-.524" mask="url(#d)"/>
                <path fill="#62342D" d="M175.28 119.035s-.72 4.778-1.155 5.98c-.436 1.203-2.675 4.889-2.675 4.889s-1.516.248-1.08-.397c.503-.745 1.878-4.8 1.878-4.8l.069-4.744 2.963-.928z" mask="url(#d)"/>
                <path fill="#62342D" d="M169.579 129.208l1.276.097.689.199s-.083.757-.505.931c-.422.174-3.52-.266-3.52-.266.407-.444 2.06-.96 2.06-.96" mask="url(#d)"/>
                <path fill="#000" d="M176.333 108.3c4.805.036 8.227 10.097 8.227 10.097a3.024 3.024 0 0 1-4.199-1.506c-1.035-2.468-4.754-7.018-4.831-7.348-.13-.554.203-1.003.803-1.243" mask="url(#d)"/>
                <path fill="#000" d="M184.56 118.397a3.026 3.026 0 0 1-.976.316c.27-3.043-4.31-10.506-7.25-10.413.179-.01.496-.135 1.018.003 4.693 1.24 7.208 10.094 7.208 10.094" mask="url(#d)"/>
                <path fill="#50BE87" d="M175.414 117.8c.99.493 4.412-.321 4.412-.321.961.184 1.847-.141 2.644.63.853.825.41 2.972.41 2.972l-.39.156-.314 2.95a1.343 1.343 0 0 0 1.124 1.468s1.95.711 2.718 1.47c.767.757-8.91 2.572-8.91 2.572s-.836-2.605-2.226-3.854c-1.39-1.25-1.733-4.445-1.733-4.445s-.305-.574-1.057-1.214c.27-2.426 2.333-2.878 3.322-2.384" mask="url(#d)"/>
                <path fill="#62342D" d="M175.069 117.638c.127.056.244.111.345.162l.006.003c.297.146.649-.064.685-.393l.06-.553 2.2-2.768s.048 3.049 1.46 3.39c-.406 1.547-1.048 2.54-1.656 3.524-1.31 2.118-3.267 1.948-3.505-.156-.119-1.05.37-2.92.405-3.209" mask="url(#d)"/>
                <path fill="#000" d="M178.77 116.326c-.509.658-1.245 1.399-1.872 1.842-1.024.725-1.477.546-1.868-.049l.032-.408.007-.072a7.738 7.738 0 0 1 .35.164c.298.146.65-.064.686-.393l.06-.552 2.274-1.9c.056.415.156.918.331 1.368" mask="url(#d)"/>
                <path fill="#0A6E31" d="M176.396 128.44c1.134-.555 3.752-1.389 5.492-1.918 1.504-.457 3.156-.19 4.385.791.601.48 1.089 1.107 1.18 1.906.244 2.123-1.3 3.787-1.3 3.787l-11.56-1.775-.51-1.412s.541-.51 2.313-1.379" mask="url(#d)"/>
                <path fill="#50BE87" d="M189.343 133.266c.528.009 3.058 1.251 4.32 1.831.509.234.809 1.08.803 1.323-.006.232-.65 1.083-2.083.417-1.433-.667-4.175-2.285-4.175-2.285l.138-.91s.16-.39.997-.376" mask="url(#d)"/>
                <path fill="#62342D" d="M189.008 133.376c.668.028 1.016.252 3.128 1.279.987.48.769 2.056-.274 1.616-1.824-.767-2.142-1.077-2.933-1.424-.476-.883-.819-1.51.079-1.471" mask="url(#d)"/>
                <path fill="#0A6E31" d="M176.897 131.744c3.707.092 12.687 1.582 12.687 1.582s.479.33.386 1.051c-.093.721-.622.762-.622.762-5.663-.303-7.571.728-10.989.528-3.807-.223-4.942-1.51-4.98-2.03-.036-.52-.513-1.993 3.518-1.893" mask="url(#d)"/>
                <path fill="#0A6E31" d="M189.584 133.326c.33.164.393.756.393.756-.088-.2-.326-.442-.467-.45-2.665-.133-9.9.285-12.858-.28-1.573-.302-2.396-.695-2.81-1.09.47-.325 1.365-.56 3.055-.518 3.707.092 12.356 1.418 12.687 1.582" mask="url(#d)"/>
                <path fill="#50BE87" d="M190.45 131.578c.529.009 3.181.964 4.13 1.976.655.699.731 1.419.659 1.666-.066.223-.505.74-1.938.073-1.433-.666-4.175-2.284-4.175-2.284l.138-.91s.35-.536 1.187-.521" mask="url(#d)"/>
                <path fill="#62342D" d="M189.926 131.832c.668.03 1.016.253 3.128 1.28.987.48.769 2.055-.275 1.616-1.823-.767-2.12-1.184-3.304-1.262-.74-.58-.447-1.672.45-1.634" mask="url(#d)"/>
                <path fill="#0A6E31" d="M178.943 129.438c3.382.53 5.162 1.984 10.82 2.38 0 0 .379.291.219.895-.127.477-.42.76-.42.76s-9.238.185-12.88-.512c-3.96-.758-3.182-2.097-3.035-2.596.146-.5 1.529-1.517 5.296-.927" mask="url(#d)"/>
                <path fill="#000" d="M178.5 129.383l-.354.283-2.192.557-.978-.074a.672.672 0 0 1-.572-.412c-.01-.022-.016-.045-.023-.068.72-.339 2.014-.58 4.118-.286" mask="url(#d)"/>
                <path fill="#B1B4B6" d="M176.572 134.247l-7.031 2.295-9.297-2.877 6.328-2.295z" mask="url(#d)"/>
                <path fill="#595959" d="M173.57 134.666l-4.147 1.454-7.598-2.455 3.648-1.335z" mask="url(#d)"/>
                <path fill="#C9CBCC" d="M158.976 126.834l8.34 2.236a.524.524 0 0 1 .368.36l2.05 7.049-.193.063-10.881-9.418a.255.255 0 0 1 .316-.29" mask="url(#d)"/>
                <path fill="#8F8F8F" d="M158.797 126.99l8.356 2.253a.522.522 0 0 1 .365.358l2.023 6.94-9.298-2.876-1.583-6.54a.112.112 0 0 1 .137-.135" mask="url(#d)"/>
                <path fill="#C9CBCC" d="M176.572 134.247a.918.918 0 0 1-.624.87l-6.167 2.088a.773.773 0 0 1-.481.005l-8.604-2.719a.648.648 0 0 1-.452-.618v-.208l9.297 2.877 7.031-2.295z" mask="url(#d)"/>
                <path fill="#FFFBFF" d="M163.945 131.786c.307.343.386.773.176.96-.21.188-.628.063-.935-.28-.307-.342-.386-.773-.177-.96.21-.188.629-.063.936.28" mask="url(#d)"/>
                <path fill="#62342D" d="M171.83 131.06a.914.914 0 0 1 .345-.372l1.67-1.002 4.86-3.02 1.14-5.59c.738.589 2.032.397 2.645.161-.218.847-1.547 6.032-2.663 7.107-.85.817-5.27 2.136-5.27 2.136l-.542.967-1.708 1.252-.876.278a.297.297 0 0 1-.355-.416l.753-1.5z" mask="url(#d)"/>
                <path fill="#FFD200" d="M176.203 108.209a.992.992 0 0 1 .76 1.179c-.116.536-.604-.13-1.14-.246-.536-.117-.915.362-.8-.173a.992.992 0 0 1 1.18-.76" mask="url(#d)"/>
                <path fill="#000" d="M177.28 109.807c1.293.594 2.124 2.077 1.902 3.58-.13.872-.725 1.94-.744 1.496-.005-.113-4.168 1.297-5.333.097-2.692-2.77.216-4.574.216-4.574s1.614-1.678 3.96-.6" mask="url(#d)"/>
                <path fill="#62342D" d="M178.533 114.81c-.055.39-.108.719-.147.878-.14.577-1.436 1.992-1.68 2.22-.558.524-1.145.115-1.145.115s-1.529-1.014-2.059-1.653c-.227-.275-.294-.914-.497-1.688-.015-.056-.115-.45.536-1.048.69-.632 1.563-1.231 1.917-2.014 1.542.8 1.687 2.043 2.294 1.822.067-.428-.332-1.342.422-1.189.386.078.706 1.443.194 1.802.097.225.143.455.153.681a.268.268 0 0 0 .012.074" mask="url(#d)"/>
                <path fill="#FF7900" d="M79.47 28.507l-3.749.74-6.993.217 1.13-3.687h8.176z" mask="url(#d)"/>
                <path fill="#000" d="M71.232 17.148h5.262V13.84h-5.262z" mask="url(#d)"/>
                <path fill="#000" d="M71.232 17.148h5.262V13.84h-5.262z" mask="url(#d)"/>
                <path fill="#B1B3B5" d="M79.612 28.849l.438-.352c.363-.29.609-.704.69-1.162H67.51l.004.018c.08.447.316.852.666 1.142l.28.233 11.152.12z" mask="url(#d)"/>
                <path fill="#62342D" d="M80.247 20.673l.622 4.985a1.752 1.752 0 0 1-.947 1.78l-3.158 1.597v-8.362h3.483z" mask="url(#d)"/>
                <path fill="#62342D" d="M80.247 20.912s-1.63 4.18-.288 4.66l-3.195 3.702v-8.362h3.483zM67.46 20.673l-.428 4.946a1.752 1.752 0 0 0 1.055 1.761l2.744 1.176v-7.883h-3.372z" mask="url(#d)"/>
                <path fill="#FF7900" d="M67.028 21.362l7.245 4.61 6.293-4.61-.401-1.283a4.017 4.017 0 0 0-3.08-3.105l-3.275-.713-3.272.725a4.019 4.019 0 0 0-3.035 2.973l-.475 1.403z" mask="url(#d)"/>
                <path fill="#62342D" d="M75.418 16.61v-1h-3.242v1.013l-.623.139v.79a2.245 2.245 0 0 0 4.489 0v-.805l-.624-.136z" mask="url(#d)"/>
                <path fill="#000" d="M70.367 10.837v6.465c0 1.145.68 2.182 1.73 2.638v-4.37l-.797-4.317-.933-.416z" mask="url(#d)"/>
                <path fill="#000" d="M70.367 14.158v3.144c0 1.145.68 2.181 1.73 2.638a8.585 8.585 0 0 1-1.56-4.124l-.17-1.658z" mask="url(#d)"/>
                <path fill="#62342D" d="M71.442 13.825a.713.713 0 0 1-.849-.544l-.078-.354a.713.713 0 0 1 .544-.85l.383 1.748zM75.418 16.61v-1h-3.242v1.013l-.022.005c.14.134.288.264.45.39 0 0 .67.486 1.193.486.524 0 1.206-.46 1.206-.46.18-.133.342-.272.495-.416l-.08-.017z" mask="url(#d)"/>
                <path fill="#62342D" d="M76.273 13.928c-.131 1.022-.674 1.745-1.503 2.357 0 0-.645.436-1.14.436-.495 0-1.128-.46-1.128-.46-.776-.6-1.289-1.276-1.43-2.245l-.299-2.44c-.11-.9.593-1.695 1.502-1.695h2.741c.897 0 1.597.777 1.504 1.669l-.247 2.378z" mask="url(#d)"/>
                <path fill="#000" d="M70.442 11.19l.447 1.577.11-.408a1.854 1.854 0 0 1 1.488-1.345c.77-.128 1.768-.406 2.493-1.01a4.77 4.77 0 0 1 1.18 3.473l-.435 6.463a4.143 4.143 0 0 0 1.794-2.778l.102-.624c.334-2.034.768-8.617-2.458-8.5 0 0-1.383-.947-3.199 0-1.192.62-1.83 2.066-1.522 3.153" mask="url(#d)"/>
                <path fill="#000" d="M70.442 11.19l.542 2.111c.15 0 .276-.108.301-.255.125-.732.147-1.82 1.202-2.032.765-.154 1.768-.406 2.493-1.01.239-.239.521-1.629.183-1.967 0 0-1.383-.946-3.199 0-1.192.621-1.83 2.067-1.522 3.154" mask="url(#d)"/>
                <path fill="#000" d="M74.98 10.004s.521-1.629.183-1.967c0 0-1.383-.947-3.2 0 0 0 1.29-.54 2.12.018.882.594.897 1.949.897 1.949" mask="url(#d)"/>
                <path fill="#2F2F51" d="M71.52 45.043s-2.007 2.699-2.202 3.022c-.195.323-.267 1.003.464 1.068.731.065 1.882.308 2.664-.957.783-1.266 1.05-1.878 1.02-2.39a7.365 7.365 0 0 0-.128-.983l-1.817.24z" mask="url(#d)"/>
                <path fill="#62342D" d="M71.62 44.597s-1.029 1.72-1.413 2.405c-.304.542-.5.83.369.907.869.078 1.465-.025 2.197-1.589.326-.695.512-1.862.512-1.862l-1.664.139z" mask="url(#d)"/>
                <path fill="#2F2F51" d="M81.945 39.785s2.282 1.241 2.574 1.43c.292.19 1.499 1.021.916 1.58-.489.468-1.927.594-3.087-.138-1.16-.732-1.53-1.034-1.714-1.469a6.797 6.797 0 0 1-.291-.867l1.602-.536z" mask="url(#d)"/>
                <path fill="#62342D" d="M81.682 39.456s1.318.918 1.914 1.33c.471.327 1.296.8.608 1.216-.69.416-1.54.346-2.78-.652-.55-.444-1.177-1.336-1.177-1.336l1.435-.558z" mask="url(#d)"/>
                <path fill="#2F2F51" d="M73.24 32.463l2.714.84a2.735 2.735 0 0 0 3.38-1.677c.181-.495.248-1.024.196-1.548l-.06-1.571-5.617.957-.612 3z" mask="url(#d)"/>
                <path fill="#4BB4E6" d="M73.24 32.463l2.714.84a2.735 2.735 0 0 0 3.38-1.677c.181-.495.248-1.024.196-1.548l-.06-1.571-5.617.957-.612 3z" mask="url(#d)"/>
                <path fill="#4BB4E6" d="M82.324 39.372L77.05 29.358a2.051 2.051 0 0 0-2.132-.83l-6.19.936-.37.702a1.806 1.806 0 0 0-.098 1.46 2.736 2.736 0 0 0 3.38 1.677l2.714-.84 5.742 8.25 2.228-1.34z" mask="url(#d)"/>
                <path fill="#000" d="M74.651 30.714c-1.679-.461-1.885 1.651-3.692 1.722-1.45.057-2.55-1.308-2.276-2.733l.045-.24-.37.703c-.237.451-.273.981-.098 1.46a2.736 2.736 0 0 0 3.38 1.677l2.714-.84 5.742 8.25.614-.369-4.787-8.6c-.275-.494-.726-.88-1.272-1.03" mask="url(#d)"/>
                <path fill="#4BB4E6" d="M73.654 45.197l-2.334-.471 1.242-11.603a1.639 1.639 0 0 1 3.213-.249c.544 2.037.338 3.874-.262 5.895l-1.86 6.428z" mask="url(#d)"/>
                <path fill="#FFF" d="M80.06 21.758H68.086a.628.628 0 0 0-.62.725l.763 4.893c.088.564.574.98 1.145.98h9.399c.57 0 1.056-.416 1.144-.98l.764-4.893a.628.628 0 0 0-.62-.725" mask="url(#d)"/>
                <path fill="#B1B3B5" d="M79.764 28.355v.065a.68.68 0 0 1-.68.68H69.067a.68.68 0 0 1-.68-.68v-.065h11.377" mask="url(#d)"/>
                <path fill="#8F8F8F" d="M80.06 21.938H68.086a.628.628 0 0 0-.62.725l.854 5.473c.036.23.234.4.467.4H79.36c.232 0 .43-.17.467-.4l.854-5.473a.628.628 0 0 0-.62-.725" mask="url(#d)"/>
                <path fill="#FFF" d="M74.796 25.443c0 .319-.324.577-.723.577-.4 0-.723-.258-.723-.577 0-.319.324-.577.723-.577.4 0 .723.258.723.577" mask="url(#d)"/>
                <path fill="#FF7900" d="M36.753 143.874s-1.079.733-3.019 1.768c-.424.226-.955.508-1.462.775-.703.372-.65.617-.553.957.038.134.098.255.147.352.33.65 2.443.59 3.137.386.694-.204 2.893-1.242 2.939-1.673.026-.24.284-1.32-.08-2.18-.288-.68-1.11-.385-1.11-.385" mask="url(#d)"/>
                <path fill="#EDEDE6" d="M37.942 146.44c-.046.43-2.245 1.468-2.94 1.672-.693.204-2.807.265-3.135-.386a2.142 2.142 0 0 1-.136-.312c.355.392 1.176.738 3.061.483 1.251-.314 2.287-1.202 3.215-1.893-.027.205-.057.36-.065.435" mask="url(#d)"/>
                <path fill="#000" d="M33.737 148.124c.398-.218 1.979-.964 2.555-2.103.439-.867.36-.877.36-.877s.438-.074.891.804c.061.161.228.22.44.218-.018.124-.036.22-.04.273-.047.431-2.246 1.469-2.94 1.673-.303.089-.876.15-1.452.138a1.37 1.37 0 0 1 .186-.126" mask="url(#d)"/>
                <path fill="#50BE87" d="M60.346 126.997l-.023 3.25a5.43 5.43 0 0 1-3.455 5.02l-8.534 3.599-10.283 7.891s-1.864-.215-2.65-2.211c0 0 8.472-7.781 9.3-8.363l8.341-6.21.22-2.53 7.084-.446z" mask="url(#d)"/>
                <path fill="#000" d="M41.888 143.813l-3.837 2.944s-.914-.106-1.731-.855l.645-2.788.075-.07a794.524 794.524 0 0 1 5.305-4.813l-.457 5.582zM48.185 133.59l4.857-3.618-4.567 3.513zM53.668 128.458l-.626 1.515.154-1.77z" mask="url(#d)"/>
                <path fill="#4BB4E6" d="M37.449 145.817l.768-2.348 1.983.3-.19 3.015-2.28.51z" mask="url(#d)"/>
                <path fill="#FF7900" d="M37.51 145.262a.252.252 0 0 0-.334.227c-.01.204-.041.474-.13.673-.607 1.2-2.273 1.986-2.692 2.216-.42.23-.68.636-.534.882.145.247.195 1.17 4.501-.365 1.396-.498 2.508-1.03 2.508-1.03s-.096-1.274-.312-2.17c-.555-.024-.808.398-1.335.657-.401.198-.72-.01-.816-.268-.268-.517-.609-.733-.857-.822" mask="url(#d)"/>
                <path fill="#FFF" d="M37.433 147.066a.174.174 0 0 1-.047-.007c-.331-.087-.702-.369-.718-.38a.18.18 0 0 1 .219-.287c.003.002.33.25.592.319a.18.18 0 0 1-.046.355M36.945 147.308a.168.168 0 0 1-.048-.007 1.422 1.422 0 0 1-.53-.266.18.18 0 0 1 .237-.271c.002.001.143.122.388.19a.18.18 0 0 1-.047.354M36.51 147.574a.18.18 0 0 1-.053-.008c-.312-.094-.409-.215-.436-.262a.18.18 0 0 1 .311-.182c-.002-.005.05.045.23.1a.18.18 0 0 1-.053.352M36.089 147.807a.18.18 0 0 1-.065-.012 1.01 1.01 0 0 1-.318-.194.18.18 0 0 1 .248-.261s.079.072.2.118a.18.18 0 0 1-.065.349" mask="url(#d)"/>
                <path fill="#EDEDE6" d="M33.82 149.263c.022.037.388.574 3.514-.48 1.993-.673 2.775-1.153 3.447-1.421.032.3.048.503.048.503s-1.111.533-2.508 1.03c-4.294 1.53-4.356.617-4.5.368" mask="url(#d)"/>
                <path fill="#50BE87" d="M51.781 127.436l-11.006 3.8c-.592.21-1.05.687-1.234 1.288l-2.159 12.405s.602.387 1.875.85a6.376 6.376 0 0 0 1.613.334l2.178-10.675 5.428-1.953 4.566-3.512.626-1.515-1.887-1.022z" mask="url(#d)"/>
                <path fill="#FFD200" d="M59.238 112.565l-4.25.515c-1.485.008-3.821.926-3.976 4.13-.03.625 1.532 3.92 1.532 3.92l-.178 3.015s-1.585 3.524-1.573 3.528c0 0 1.669.72 2.587 2.01.759 1.068 6.55 1.07 7.172.398.116-.125.024-2.76.236-3.38.921-2.7 2.763-6.76 2.763-6.76l.373-.142s.49-3.119.426-3.519c-.203-1.264-2.418-3.334-5.112-3.715" mask="url(#d)"/>
                <path fill="#000" d="M58.366 125.637c1.363-8.529 1.818-6.904 1.818-6.904l-.335 1.553.977 6.305-.008.039c-.123.218-.16 1.017-.18 1.792-.013.46-.302.868-.733 1.032l-2.855 1.082c-1.63-.048-3.288-.315-3.67-.852a4.982 4.982 0 0 0-.77-.84c2.946-1.719 5.25-2.899 5.756-3.207M52.71 107.044s-1.583-.372-1.42-2.062c.134-1.39 1.087-.998 1.087-.998s.426-.01 1.053-.532c1.745-1.456 4.109-1.268 5.653.387 1.545 1.656.122 5.871.193 6.864-2.049 2.39-6.567-3.659-6.567-3.659" mask="url(#d)"/>
                <path fill="#000" d="M54.537 104.641c-1.85.588-2.16-.658-2.16-.658s-.953-.39-1.087.999c-.163 1.69 1.419 2.062 1.419 2.062s.507.424 1.235.996l2.869-1.425s-.426-2.562-2.276-1.974" mask="url(#d)"/>
                <path fill="#FFB674" d="M54.406 106.658c.953-.514.862-.594 1.74-.698 1.11-.13 1.354 3.569 1.354 3.569l.527-.143s.095-1.688.11-1.67c.71-.684 1.236.662.644 1.39-.089 1.37-.024 1.639-.024 1.639l.959 2.135c.045.312-2.152 2.268-3.915 2.34-1.762.074-1.32-2.108-.812-2.14a.754.754 0 0 0 .67-.522l.005-.013-.022.011c-.51.215-.958.211-1.26-.253-.174-.27-1.013-1.762-1.127-2.03-.238-.563-.546-3.229-.546-3.229s.295.37 1.697-.386" mask="url(#d)"/>
                <path fill="#000" d="M54.558 113.79c.059-.384.24-.699.43-.71a.754.754 0 0 0 .672-.523l.004-.012-.022.011 2.513-1.273s-.955 2.831-3.597 2.507M53.261 107.11s.309 2.667.547 3.23c.113.267 1.005 2.08 1.18 2.35-.236-.02-.442-.136-.605-.387-.175-.27-1.014-1.762-1.127-2.03-.238-.563-.547-3.229-.547-3.229s.117.146.552.067" mask="url(#d)"/>
                <path fill="#B1B3B5" d="M56.717 131.859l-6.316 2.797-8.166-4.708 6.38-2.42z" mask="url(#d)"/>
                <path fill="#373638" d="M53.027 132.623l-2.837 1.25a.21.21 0 0 1-.188-.009l-6.394-3.564a.211.211 0 0 1 .039-.386l3.342-1.07a.212.212 0 0 1 .17.017l5.888 3.385a.212.212 0 0 1-.02.377" mask="url(#d)"/>
                <path fill="#E1E3E4" d="M50.401 134.656l6.316-2.797a.78.78 0 0 1-.458.617l-5.58 2.471a.713.713 0 0 1-.647-.036l-7.505-4.376a.596.596 0 0 1-.291-.587l8.165 4.708zM50.423 128.976l-1.265.607 2.233 1.239 1.252-.608z" mask="url(#d)"/>
                <path fill="#FFB674" d="M50.752 126.886l.447 1.402-.46 1.253s-.398-.073-.252-.562c.147-.489.005-.735.005-.735l-.546.564a.268.268 0 0 0-.076.191l.013.86a.473.473 0 0 1-.154.368.333.333 0 0 1-.306.079c-.035-.187-.112-1.336-.112-1.336l-.05 1.235a.33.33 0 0 1-.25.307l-.166.04-.124-.768-.03-.002a.41.41 0 0 1-.378-.356l-.048-.362-.111-.142a.408.408 0 0 1-.088-.263l.094-.677a.497.497 0 0 1 .156-.298l1.158-1.07 1.278.272z" mask="url(#d)"/>
                <path fill="#EDEDE6" d="M50.401 134.656l.124-.055-2.944-6.938a.571.571 0 0 0-.34-.324l-6.86-3.186a.427.427 0 0 0-.355.035l-.055.032 10.43 10.436z" mask="url(#d)"/>
                <path fill="#8F8F8F" d="M50.401 134.656l-2.942-6.737a.806.806 0 0 0-.473-.45l-6.887-3.267a.142.142 0 0 0-.18.186l2.317 5.56 8.165 4.708z" mask="url(#d)"/>
                <path fill="#FFF" d="M43.984 128.852c.032.346.353.756.717.916.364.16.633.01.601-.337-.032-.346-.353-.757-.717-.917-.364-.16-.633-.008-.6.338" mask="url(#d)"/>
                <path fill="#FFB674" d="M63.551 119.94c-.197 1.775-2.027 5.952-2.264 6.53-.158.351-.35.893-.386 1.275a.94.94 0 0 1-.566.761c-.342.155-1.18.92-2.167 1.167-2.047.511-4.408.571-4.408.571l-.833-1.075s4.7-2.17 5.436-2.85c.37-.343.538-.76.543-1.209.007-.64.46-3.25.943-4.823 0 0 2.229.176 3.702-.346M52.159 118.189s-.46-.383-1.147-.98c-.257 1.046-.173 1.77-.368 2.991-.205.975-.064 1.518-.314 2.515-.896 1.386-.98 4.208-.98 4.208s.862 1.088 1.38.167c.715-1.268 1.636-2.946 1.636-2.946l.178-3.014s-.53-1.745-.385-2.941" mask="url(#d)"/>
                <path fill="#000" d="M52.186 121.087s-.466-1.984-.411-3.222c.242.206.384.324.384.324-.145 1.196.385 2.942.385 2.942l-.178 3.013s-.92 1.678-1.636 2.946c.466-1.324 1.278-2.989 1.278-2.989l.178-3.014z" mask="url(#d)"/>
                <path fill="#FFB674" d="M52.927 129.169l-2.363.644a.653.653 0 0 0-.39.287l-.654 1.047a.073.073 0 0 0 .043.108.478.478 0 0 0 .495-.16l.482-.593.634-.127-.879.8-.615.941a.052.052 0 0 0 .016.073c.183.11.418.079.565-.076l.03.013c.197.091.43.045.578-.114l.51-.551.419-.2-.734.949a.454.454 0 0 0 .518-.05l.67-.571.553-.15.012-.003c.623-.172 1.11-.658 1.326-1.267l.122-.347-1.338-.653z" mask="url(#d)"/>
                <path fill="#FFF" d="M36.028 146.294a.17.17 0 0 1-.09-.025c-.686-.42-.966-1.064-1.017-1.346a.171.171 0 1 1 .336-.062c.034.185.254.746.86 1.116a.171.171 0 0 1-.09.317M35.446 146.475a.17.17 0 0 1-.102-.033c-.458-.34-.774-.773-.914-1.254a.17.17 0 1 1 .328-.096c.12.408.392.78.79 1.075a.171.171 0 0 1-.102.308M34.903 146.597a.17.17 0 0 1-.115-.045c-.541-.497-.62-.675-.794-1.065a.17.17 0 0 1 .087-.226.17.17 0 0 1 .226.087c.162.366.224.503.712.952a.17.17 0 0 1-.116.297M34.288 146.592a.17.17 0 0 1-.117-.046c-.328-.306-.459-.563-.545-.732l-.019-.037a.17.17 0 1 1 .304-.157l.02.038c.08.157.19.372.473.638a.171.171 0 0 1-.116.296" mask="url(#d)"/>
                <path fill="#212738" d="M96.018 129.188c.263.131 2.236 1.494 5.174 1.494s5.429-1.471 5.724-1.53c.283.426.532 1.027.532 1.027a.064.064 0 0 1-.008.066l-4.739 5.605c-1.07.225-2.438.036-2.438.036l-4.752-5.702a.066.066 0 0 1-.007-.073s.483-.938.514-.923" mask="url(#d)"/>
                <path fill="#232324" d="M95.742 130.461c.127-.237.26-.477.276-.47.263.132 2.236 1.495 5.174 1.495s5.429-1.472 5.724-1.53c.113.17.22.367.309.544l.215-.255a.065.065 0 0 0 .008-.066s-.249-.601-.532-1.026c-.295.058-2.786 1.53-5.724 1.53s-4.91-1.364-5.174-1.495c-.031-.016-.514.923-.514.923a.066.066 0 0 0 .007.073l.23.277z" mask="url(#d)"/>
                <path fill="#212738" d="M107.839 135.408c1.83-.883 5.834-3.263 7.52-6.825.235-.495-.352-2.588-2.273-1.911-1.189.418-7.366 2.505-8.364 3.829-1.613 2.138-1.688 4.086-2.02 5.349.906.391 4.222 0 5.137-.442M94.898 135.422c-1.83-.883-7.132-4.703-7.38-6.839-.062-.544-.593-2.213 1.686-2.141 1.189.418 7.832 2.836 8.952 4.059 1.404 1.532 1.865 4.184 2.02 5.35-.906.39-4.363.013-5.278-.429" mask="url(#d)"/>
                <path fill="#714E46" d="M107.068 134.412c-1.746-.077-3.643-.282-4.367-.442-2.08-.848-13.476-7.158-13.476-7.158-1.845-.489-2.342 1.123-1.784 2.105 1.453 2.557 2.818 4.025 7.976 4.708 1.535.203 4.437 1.068 6.011 1.655.106.36.477.765 1.337.85.458.046 3.062.979 4.272.872 2.018-.177 2.009-1.077 2.018-1.477.008-.4-.487-1.047-1.987-1.113" mask="url(#d)"/>
                <path fill="#085EBD" d="M107.068 134.412c-1.746-.077-3.643-.282-4.367-.442a6.155 6.155 0 0 1-.164-.07l-1.402 1.273.293.107c.106.36.477.765 1.337.85.458.046 3.062.979 4.272.872 2.018-.177 2.009-1.077 2.018-1.477.008-.4-.487-1.047-1.987-1.113" mask="url(#d)"/>
                <path fill="#D6D6D6" d="M107.037 137.003c2.017-.178 2.009-1.078 2.017-1.478.008-.353-.38-.9-1.507-1.067-.285.238-.709.969-.757 1.96-2.28.09-4.298-.712-5.357-1.126.11.357.482.754 1.333.838.457.046 3.06.979 4.271.873" mask="url(#d)"/>
                <path fill="#E1E3E4" d="M103.469 135.594a.187.187 0 0 1-.187-.186l-.001-.098a2.609 2.609 0 0 1 .39-1.39.188.188 0 1 1 .32.197c-.222.358-.338.77-.335 1.19v.098a.187.187 0 0 1-.186.189h-.001zM104.085 135.692a.187.187 0 0 1-.188-.186v-.098a2.608 2.608 0 0 1 .39-1.39.187.187 0 1 1 .32.197c-.223.358-.338.77-.336 1.19v.099a.187.187 0 0 1-.185.188h-.001zM104.708 135.772a.187.187 0 0 1-.187-.187l-.001-.097a2.607 2.607 0 0 1 .39-1.391.188.188 0 0 1 .32.197c-.222.358-.338.77-.335 1.191v.098a.187.187 0 0 1-.186.189h-.001zM105.237 135.832a.187.187 0 0 1-.188-.186v-.098a2.61 2.61 0 0 1 .39-1.391.187.187 0 1 1 .32.197c-.222.358-.338.77-.336 1.191v.098a.187.187 0 0 1-.185.189h-.001z" mask="url(#d)"/>
                <path fill="#000" d="M102.701 133.97c-.318-.13-.851-.393-1.526-.746-.48.265-1.044.582-1.182.644-.16.036-1.248.178-1.973.338 1.237.336 2.53.747 3.408 1.074a.94.94 0 0 0 .115.246c.918-.5 3.2-.837 4.106-1.201-1.265-.098-2.42-.239-2.948-.355" mask="url(#d)"/>
                <path fill="#595959" d="M89.204 126.442s6.246 3.618 10.336 5.794c0 .79-.102 1.615-.155 1.8-.142.326-1.02 1.46-1.402 1.916-1.472-.965-2.166-1.402-3.062-1.674-5.982-1.818-6.52-2.67-7.974-5.225-.558-.983.413-3.1 2.257-2.611" mask="url(#d)"/>
                <path fill="#000" d="M86.885 128.92c-.01-.023-.019-.046-.027-.07-.004-.014-.007-.029-.012-.043-.006-.022-.013-.044-.018-.068l-.01-.046-.012-.069-.005-.049-.007-.07-.002-.05-.001-.073.001-.05c0-.026.002-.051.004-.076l.005-.05a1.871 1.871 0 0 1 .063-.338l.013-.044c.008-.028.018-.057.028-.086l.014-.04c.01-.03.022-.06.034-.09l.016-.036.042-.093.016-.03c.016-.033.033-.065.051-.097l.014-.025a2.132 2.132 0 0 1 .154-.23c.039.066.077.135.116.207 1.664 3.129 10.224 6.13 12.023 6.732v.001c-.143.326-1.02 1.46-1.402 1.915-1.472-.965-2.167-1.401-3.063-1.674-5.981-1.818-6.52-2.67-7.973-5.226a.93.93 0 0 1-.049-.098c-.005-.01-.008-.023-.013-.034" mask="url(#d)"/>
                <path fill="#2A2A2B" d="M99.385 134.036c.007-.022.014-.053.02-.092-.922.216-2.338.53-3.568.546a6.862 6.862 0 0 0-.31.01c.656.284 1.328.713 2.456 1.452.383-.456 1.26-1.59 1.402-1.916" mask="url(#d)"/>
                <path fill="#714E46" d="M113.544 126.994s-11.591 6.59-13.545 7.053c-.788.177-2.93.435-4.472.454-1.502.019-1.69.727-1.682 1.127.01.4.84 1.296 1.457 1.375 1.907.243 4.202-.627 4.659-.673.952-.094 1.457-.78 1.514-1.163 1.466-.597 4.654-1.303 5.986-1.465 5.201-.631 6.523-2.383 7.976-4.939.558-.982-.05-2.257-1.893-1.769" mask="url(#d)"/>
                <path fill="#595959" d="M113.566 126.538s-6.246 3.618-10.336 5.795c0 .79.102 1.614.155 1.8.142.325 1.02 1.46 1.402 1.915 1.472-.964 2.166-1.401 3.062-1.673 5.982-1.818 6.52-2.67 7.974-5.226.558-.982-.413-3.1-2.257-2.61" mask="url(#d)"/>
                <path fill="#000" d="M115.885 129.017l.027-.071.012-.042c.006-.023.013-.045.018-.068l.01-.047.011-.068.006-.05.007-.07.002-.05a2.232 2.232 0 0 0-.004-.199l-.005-.05a1.872 1.872 0 0 0-.042-.253 2.242 2.242 0 0 0-.022-.085l-.012-.043a1.86 1.86 0 0 0-.028-.087l-.014-.04c-.01-.03-.023-.06-.035-.09l-.015-.036a2.818 2.818 0 0 0-.11-.22l-.013-.024a1.955 1.955 0 0 0-.154-.23 6.881 6.881 0 0 0-.116.207c-1.665 3.128-10.224 6.129-12.024 6.731v.001c.144.327 1.02 1.46 1.403 1.915 1.472-.964 2.167-1.4 3.063-1.673 5.98-1.819 6.52-2.67 7.973-5.226a.931.931 0 0 0 .049-.098l.013-.034" mask="url(#d)"/>
                <path fill="#2A2A2B" d="M101.192 130.682c-.342 0-.67-.019-.985-.052v.79c0 .111.09.2.2.2h1.57a.2.2 0 0 0 .2-.2v-.792c-.32.034-.65.054-.985.054" mask="url(#d)"/>
                <path fill="#D4D7D2" d="M101.97 130.629v.575a.118.118 0 0 1-.12.118h-1.316a.118.118 0 0 1-.119-.118v-.574h-.208v.79c0 .111.09.2.2.2h1.57a.2.2 0 0 0 .2-.2v-.791h-.208z" mask="url(#d)"/>
                <path fill="#000" d="M99.486 114.346c-.61-.283-1.621-1.459-1.94-3.945-.233-1.834-.47-3.913 1.772-4.298 1.407-.47 4.812-.849 5.433 1.522.3 2.784-.621 6.85-2.001 6.708-.05.882-1.538.652-1.915.752-.963.254-1.35-.739-1.35-.739" mask="url(#d)"/>
                <path fill="#8F8F8F" d="M94.107 128.862l1.824 1.696 10.41.03 1.865-1.726a1.18 1.18 0 0 0 .378-.865H93.73c0 .328.136.642.377.865" mask="url(#d)"/>
                <path fill="#84878A" d="M93.73 127.997l2.76 2.264h9.651l2.443-2.264z" mask="url(#d)"/>
                <path fill="#50BE87" d="M111.48 124.185c-.195-1.22-1.49-6.882-3.359-8.29-2.647-2.005-8.005-2.65-13.613-.171-1.942.962-2.852 7.315-3.106 8.695-.478 2.591 3.51 3.466 4.094 3.578 1.175.224 1.526-.361 1.695-.803.294-.764-2.145-2.077-2.295-2.916.642-3.151.182-3.023.007-4.345.19.897-.108 1.274.785 3.076.174.35.519 5.014.33 6.179-.074.457 11.01.432 10.898-.035-.27-1.13-.054-6.052.07-6.36.52-1.286.563-2.602.63-2.973-.12.755-.537.867 0 4.038-.634.604-2.235 2.805-1.968 3.578.155.448.674 1.121 1.351.56.513-.426 4.9-1.184 4.48-3.811" mask="url(#d)"/>
                <path fill="#714E46" d="M103.361 116.086a.795.795 0 0 0 .242-.696c-.08-.557-.202-1.609-.104-2.273.132-.885-4.515-.374-4.515-.374s-.025 1.723-.152 2.576a.8.8 0 0 0 .157.621c.377.47 1.162.912 2.163.987 1.038.078 1.812-.47 2.21-.841M104.464 110.574c.142 0 .3.119.329.257.1.466-.094 1.427-.334 1.642-.194.173-.517.232-.517.232l.522-2.131z" mask="url(#d)"/>
                <path fill="#000" d="M104.382 111.662c-.04.315-.115.419-.252.401-.137-.017-.217-.286-.178-.601.04-.315.182-.557.32-.54.136.017.149.425.11.74" mask="url(#d)"/>
                <path fill="#714E46" d="M97.92 110.574c-.141 0-.327.115-.362.251-.11.428-.01 1.24.3 1.535.187.18.443.255.443.255l-.381-2.041z" mask="url(#d)"/>
                <path fill="#000" d="M97.924 111.64c.04.315.112.44.25.423.137-.017.216-.286.177-.601-.039-.315-.182-.557-.32-.54-.137.017-.146.402-.107.717" mask="url(#d)"/>
                <path fill="#714E46" d="M103.675 109.766c.35.168.197 1.815.197 2.216 0 .157.172.083.258.082 0 .693-.081 1.599-.206 2.032-.109.379-1.758 1.617-2.732 1.617-.974 0-2.752-1.464-2.845-1.846-.132-.534-.112-.959-.174-1.803.134.018.243.023.243-.092 0-.173-.243-2.257.736-2.707.65.464 3.829.681 4.523.501" mask="url(#d)"/>
                <path fill="#000" d="M94.922 119.82c.005.02-.005.064-.026.123l.007-.01c.11.018-.107 1.274.785 3.076.066.133.157.893.234 1.847.504-1.014 1.376-1.415 2.664-1.574-.764-.117-2.898-.273-3.664-3.462M106.986 122.793c.519-1.286.563-2.602.63-2.973-.63 2.973-2.715 3.345-4.233 3.52.571.101 2.775.613 3.404 3.472.005-1.765.12-3.823.2-4.019" mask="url(#d)"/>
                <path fill="#8F8F8F" d="M96.486 130.753h9.342c.49 0 .888-.398.888-.888H95.598c0 .49.397.888.888.888" mask="url(#d)"/>
                <path fill="#84878A" d="M106.716 129.646H95.605l-1.686-6.177a.527.527 0 0 1 .509-.666h13.466c.347 0 .6.33.508.666l-1.686 6.177z" mask="url(#d)"/>
                <path fill="#8F8F8F" d="M106.716 129.864H95.605l-1.686-6.176a.527.527 0 0 1 .509-.666h13.466c.347 0 .6.33.508.666l-1.686 6.176z" mask="url(#d)"/>
                <path fill="#FFF" d="M102.142 127.098c0 .3-.464.542-1.037.542-.572 0-1.036-.243-1.036-.542 0-.3.464-.543 1.036-.543.573 0 1.037.243 1.037.543" mask="url(#d)"/>
                <path fill="#085EBD" d="M100.262 133.967c-.1.035-.189.063-.262.08-.789.177-2.931.435-4.472.454-1.502.019-1.691.727-1.683 1.127.009.4.84 1.296 1.457 1.375 1.907.243 4.201-.627 4.659-.673.952-.094 1.458-.78 1.514-1.163 0 0-.905.25-.713-.198a.723.723 0 0 0-.49-.976c-.029-.008-.036-.016-.01-.026" mask="url(#d)"/>
                <path fill="#D6D6D6" d="M95.912 136.587c.3-.881-.016-1.69-.227-2.09a23.29 23.29 0 0 1-.158.004c-1.501.019-1.69.727-1.682 1.127.01.4.84 1.296 1.457 1.375 1.907.243 4.202-.627 4.659-.673a1.875 1.875 0 0 0 1.062-.448c-1.282.34-5.133 1.307-5.111.705" mask="url(#d)"/>
                <path fill="#E1E3E4" d="M99.38 135.713a.187.187 0 0 1-.187-.189v-.097a2.238 2.238 0 0 0-.334-1.192.188.188 0 0 1 .319-.197c.259.418.394.9.39 1.39v.099a.187.187 0 0 1-.187.186M98.765 135.811h-.001a.187.187 0 0 1-.186-.188v-.098a2.238 2.238 0 0 0-.335-1.191.188.188 0 0 1 .32-.198c.258.419.393.9.39 1.391v.098a.187.187 0 0 1-.188.186M98.142 135.89h-.002a.187.187 0 0 1-.186-.188l.001-.098a2.238 2.238 0 0 0-.335-1.191.188.188 0 0 1 .319-.197c.259.418.394.899.39 1.39v.099a.187.187 0 0 1-.187.185M97.613 135.95h-.001a.187.187 0 0 1-.186-.188v-.097a2.236 2.236 0 0 0-.335-1.192.188.188 0 0 1 .32-.197c.258.418.393.899.39 1.391v.098a.187.187 0 0 1-.188.186" mask="url(#d)"/>
                <path fill="#085EBD" d="M115.575 29.65l-1.693 1.724 2.477.76 1.473-1.74z" mask="url(#d)"/>
                <path fill="#595959" d="M114.974 30.766c-.214-.031-1.154-1.098-1.154-1.098a.928.928 0 0 0-.534.84v.493l-2.693.993a.639.639 0 0 0 .06 1.216 7.925 7.925 0 0 0 2.23.249l4.347-.132a.823.823 0 0 0 .788-.95l-.132-.835a.5.5 0 0 0-.615-.408c-.388.097-.867.214-.975.232-.188.031-1.322-.6-1.322-.6" mask="url(#d)"/>
                <path fill="#FFD200" d="M110.654 33.21a.637.637 0 0 1-.413-.897c.77.55 1.719.79 2.658.665l5.107-.677.012.076a.823.823 0 0 1-.788.95l-4.348.132a7.927 7.927 0 0 1-2.228-.25" mask="url(#d)"/>
                <path fill="#E1E3E4" d="M113.775 31.732a.165.165 0 0 1-.118-.05l-.596-.6a.167.167 0 0 1 .236-.233l.596.6a.166.166 0 0 1-.118.283M113.163 31.858a.165.165 0 0 1-.118-.05l-.54-.544a.166.166 0 0 1 .235-.235l.541.545a.166.166 0 0 1-.118.284M112.557 32.004a.165.165 0 0 1-.118-.049l-.458-.46a.167.167 0 0 1 .236-.235l.458.461a.166.166 0 0 1-.118.283M111.969 32.066a.165.165 0 0 1-.118-.05l-.363-.365a.166.166 0 0 1 .236-.235l.363.366a.166.166 0 0 1-.118.284" mask="url(#d)"/>
                <path fill="#4BB4E6" d="M132.428 26.702c-5.468-4.922-9.158-8.402-11.24-5.87-2.72 2.98-6.397 8.99-6.397 8.99l3.198 2.312 5.126-6.827 5.832 5.534 7.815-.188.65-3.653s-2.436 1.995-4.984-.298" mask="url(#d)"/>
                <path fill="#000" d="M123.427 23.908c-2.719 2.978-7.053 7.058-7.053 7.058l1.615 1.168 5.126-6.827 5.832 5.534 7.815-.188s-11.142-.69-13.335-6.745" mask="url(#d)"/>
                <path fill="#FFD200" d="M119.643 33.295h3.847v-3.207h-5.006a1.294 1.294 0 0 0-1.077 2.007c.497.75 1.336 1.2 2.236 1.2" mask="url(#d)"/>
                <path fill="#595959" d="M120 33.232h3.695V30.15h-4.81a1.242 1.242 0 0 0-1.034 1.928A2.578 2.578 0 0 0 120 33.232" mask="url(#d)"/>
                <path fill="#E1E3E4" d="M119.557 32.3a.166.166 0 0 1-.166-.166v-1.137a.166.166 0 0 1 .332 0v1.137a.166.166 0 0 1-.166.166M120.34 32.52a.166.166 0 0 1-.166-.166V30.84a.167.167 0 0 1 .333 0v1.513a.166.166 0 0 1-.166.166M121 32.708a.166.166 0 0 1-.167-.166v-1.89a.166.166 0 1 1 .332 0v1.89a.166.166 0 0 1-.166.166M121.814 32.896a.166.166 0 0 1-.166-.166v-2.077a.166.166 0 0 1 .333 0v2.077a.166.166 0 0 1-.167.166M130.212 17.815a.166.166 0 0 1-.166-.166v-2.641a.166.166 0 1 1 .333 0v2.641a.166.166 0 0 1-.167.166" mask="url(#d)"/>
                <path fill="#E1E3E4" d="M129.66 18.654a.166.166 0 0 1-.165-.143c-.183-1.293.53-3.464.56-3.556a.166.166 0 1 1 .316.105c-.008.022-.72 2.188-.547 3.404a.166.166 0 0 1-.164.19" mask="url(#d)"/>
                <path fill="#714E46" d="M132.49 11.887l-1.84-1.618-.861-3.027-3.347-.945-2.464 3.694 1 1.184.932 1.599a.434.434 0 0 0 .509.24l.218-.06 1.028.852c.432.361 1.096.308 1.423-.15l.008-.01.133-.19 1.528 1.225 1.732-2.794z" mask="url(#d)"/>
                <path fill="#4BB4E6" d="M139.373 28.344v1.96c0 1.499-1.124 2.76-2.613 2.932l-5.148.595c-2.678.31-4.251.338-6.935.086l-1.182-.111a2.167 2.167 0 1 1 .203-4.325h.596c2.436 0 4.493-.187 6.9-.558l1.234-2.221 6.945 1.642z" mask="url(#d)"/>
                <path fill="#000" d="M133.567 29.272c-.601.068-6.924.58-9.756 1.33-.56.148-1.06.492-1.356.99-.648 1.091.006 2.145 6.481 2.469-1.345.061-2.587.013-4.259-.144l-1.115-.105c-1.217-.115-2.155-1.19-2.018-2.406a2.167 2.167 0 0 1 2.154-1.925h.596c2.436 0 4.493-.187 6.9-.558 0 0 3.036.274 2.373.349" mask="url(#d)"/>
                <path fill="#085EBD" d="M132.402 11.418c2.685.169 7.211 2.972 8.098 8.763.887 5.79-1.092 9.468-1.092 9.468s-4.623-.508-6.98-2.947c.307-2.695 3.161-3.197-1.022-7.615-.784-.829-1.243-1.93-1.19-3.069.128-2.733 1.58-4.656 2.186-4.6" mask="url(#d)"/>
                <path fill="#000" d="M131.402 10.645s-1.64-.256-1.742-.376l-.633-.743a.914.914 0 0 0-1.256-.13l.615.926-.384.328-1.268-1.48a.535.535 0 0 0-.811 0l-1.334 1.545h-.325a1.746 1.746 0 0 1-1.659-2.291l.557-1.694.627.502.595-.844a3.333 3.333 0 0 1 2.618-1.411l.316-.01a3.332 3.332 0 0 1 3.385 2.738c.149.824.309 1.645.55 2.447l.15.493z" mask="url(#d)"/>
                <path fill="#714E46" d="M129.723 12.092s.598.787.493 2.156l-.987-.792.494-1.364z" mask="url(#d)"/>
                <path fill="#FFD200" d="M130.254 15.533s1.198-3.3 5.874-2.03c.382.103.953.148 1.267-.03.34-.022.158-1.634-.938-1.633-.496 0 .254-.52-.597-.995-.986-.55-2.61-.517-3.762.424-1.152.94-2.795 3.897-1.844 4.264" mask="url(#d)"/>
                <path fill="#595959" d="M118.738 22.562l.002.003a.17.17 0 0 1 .145.061l4.172 4.927-1.708 1.77-5.322-6.57 2.71-.191z" mask="url(#d)"/>
                <path fill="#B1B4B6" d="M130.014 27.618l-.169 1.255h-8.623l1.662-1.546h6.875c.156 0 .276.137.255.29" mask="url(#d)"/>
                <path fill="#FFF" d="M119.153 23.163l-2.225.196 4.28 5.004 1.354-1.065z" mask="url(#d)"/>
                <path fill="#8F8F8F" d="M120.967 28.873h8.878c0 .44-.357.798-.797.798h-7.283a.798.798 0 0 1-.798-.798" mask="url(#d)"/>
                <path fill="#8F8F8F" d="M121.106 29.323l-5.225-6.227a.21.21 0 1 1 .327-.265l5.225 6.227-.327.265z" mask="url(#d)"/>
                <path fill="#595959" d="M122.456 28.657l.953-1.187h3.56l-.497 1.187z" mask="url(#d)"/>
                <path fill="#8F8F8F" d="M127.313 28.363h2.046l.07-.67h-1.928z" mask="url(#d)"/>
                <path fill="#E1E3E4" d="M119.153 23.163l-2.225.196.516.603 2.038-.4zM119.557 23.908l-1.53.388.291.353 1.427-.482zM119.917 24.355l-1.395.517.29.353 1.294-.612zM120.34 24.966l-1.125.576 1.04 1.227 1.038-.71z" mask="url(#d)"/>
                <path fill="#714E46" d="M128.053 25.542l-.717.467-1.554.168-1.428 1.622h.734l1.743.4 2.445-.729z" mask="url(#d)"/>
                <path fill="#FFC65F" d="M131.694 21.78l-4.005 3.574 1.073 1.972 5.782-3.853z" mask="url(#d)"/>
                <path fill="#F8AB7B" d="M127.156 26.953l-1.736-.424-1.345.673-.648 1.009c.25.09.53.02.708-.178l.354-.391-.078.718.36.368.882.13 2.535-.498-.258-1.46-.774.053z" mask="url(#d)"/>
                <path fill="#FFD200" d="M131.245 14.447c-1.211.09-1.534 2.54-1.211 3.711.23.84 1.11 5.956 1.11 5.956l-4.096 2.55s.136 1.855 1.273 2.06c1.137.204 6.556-2.382 6.573-3.652.018-1.27-.002-4.962-.46-7.008-.74-3.296-1.976-3.707-3.189-3.617" mask="url(#d)"/>
                <path fill="#FF7900" d="M199.637 9.97h8.73V4.466h-8.73z" mask="url(#d)"/>
                <path fill="#F1F2F2" d="M199.733 9.874h8.538V4.563h-8.538v5.31zm-.193.193h8.924V4.37h-8.924v5.697z" mask="url(#d)"/>
                <path fill="#FF7900" d="M199.637 9.836h8.73V4.332h-8.73z" mask="url(#d)"/>
                <path fill="#F1F2F2" d="M199.733 9.739h8.538v-5.31h-8.538v5.31zm-.193.193h8.924V4.235h-8.924v5.697z" mask="url(#d)"/>
                <path fill="#FF7900" d="M204.662 7.083l3.706 2.753" mask="url(#d)"/>
                <path fill="#F1F2F2" d="M208.368 9.932a.097.097 0 0 1-.058-.019l-3.705-2.752a.097.097 0 0 1-.02-.135.097.097 0 0 1 .135-.02l3.705 2.752a.097.097 0 0 1-.057.174" mask="url(#d)"/>
                <path fill="#FF7900" d="M203.131 6.962l-3.494 2.873" mask="url(#d)"/>
                <path fill="#F1F2F2" d="M199.637 9.932a.097.097 0 0 1-.062-.171l3.495-2.873a.097.097 0 1 1 .122.149l-3.494 2.873a.098.098 0 0 1-.061.022" mask="url(#d)"/>
                <path fill="#FF7900" d="M199.637 4.955l4.365 2.507" mask="url(#d)"/>
                <path fill="#F1F2F2" d="M204.002 7.56a.1.1 0 0 1-.048-.013l-4.365-2.509a.096.096 0 0 1-.036-.131.096.096 0 0 1 .132-.036l4.366 2.508a.097.097 0 0 1 .035.132.097.097 0 0 1-.084.048" mask="url(#d)"/>
                <path fill="#FF7900" d="M204.002 7.463l4.366-2.508" mask="url(#d)"/>
                <path fill="#F1F2F2" d="M204.002 7.56a.097.097 0 0 1-.084-.049.097.097 0 0 1 .036-.132l4.366-2.508a.097.097 0 0 1 .096.167l-4.365 2.509a.1.1 0 0 1-.049.012" mask="url(#d)"/>
                <path fill="#FF7900" d="M215.476 19.322h7.342v-4.629h-7.342z" mask="url(#d)"/>
                <path fill="#F1F2F2" d="M215.573 19.225h7.148V14.79h-7.148v4.435zm-.193.194h7.535v-4.822h-7.535v4.822z" mask="url(#d)"/>
                <path fill="#FF7900" d="M215.476 19.208h7.342V14.58h-7.342z" mask="url(#d)"/>
                <path fill="#F1F2F2" d="M215.573 19.112h7.148v-4.435h-7.148v4.435zm-.193.193h7.535v-4.822h-7.535v4.822z" mask="url(#d)"/>
                <path fill="#FF7900" d="M219.702 16.894l3.116 2.314" mask="url(#d)"/>
                <path fill="#F1F2F2" d="M222.818 19.305a.097.097 0 0 1-.058-.019l-3.116-2.314a.097.097 0 0 1 .115-.156l3.117 2.315a.097.097 0 0 1-.058.174" mask="url(#d)"/>
                <path fill="#FF7900" d="M218.414 16.792l-2.938 2.416" mask="url(#d)"/>
                <path fill="#F1F2F2" d="M215.476 19.305a.097.097 0 0 1-.062-.171l2.939-2.416a.096.096 0 0 1 .136.013.096.096 0 0 1-.013.136l-2.938 2.416a.098.098 0 0 1-.062.022" mask="url(#d)"/>
                <path fill="#FF7900" d="M215.476 15.104l3.67 2.109" mask="url(#d)"/>
                <path fill="#F1F2F2" d="M219.147 17.31a.1.1 0 0 1-.048-.013l-3.671-2.11a.097.097 0 0 1 .096-.167l3.671 2.109a.097.097 0 0 1 .036.132.097.097 0 0 1-.084.049" mask="url(#d)"/>
                <path fill="#FF7900" d="M219.147 17.213l3.67-2.11" mask="url(#d)"/>
                <path fill="#F1F2F2" d="M219.147 17.31a.097.097 0 0 1-.084-.049.097.097 0 0 1 .036-.132l3.671-2.109a.097.097 0 0 1 .096.168l-3.67 2.109a.1.1 0 0 1-.049.013" mask="url(#d)"/>
                <path fill="#FF7900" d="M208.068 14.347v7.902" mask="url(#d)"/>
                <path fill="#F1F2F2" d="M208.068 22.345a.097.097 0 0 1-.097-.096v-7.902a.097.097 0 0 1 .193 0v7.902a.097.097 0 0 1-.096.096" mask="url(#d)"/>
                <path fill="#FF7900" d="M210.187 25.03V16.87" mask="url(#d)"/>
                <path fill="#F1F2F2" d="M210.187 25.127a.097.097 0 0 1-.096-.097V16.87a.097.097 0 0 1 .193 0v8.159a.097.097 0 0 1-.097.097" mask="url(#d)"/>
                <path fill="#FF7900" d="M212.433 20.336v-6.454" mask="url(#d)"/>
                <path fill="#F1F2F2" d="M212.433 20.433a.097.097 0 0 1-.097-.097v-6.454a.097.097 0 0 1 .194 0v6.454a.097.097 0 0 1-.097.097" mask="url(#d)"/>
                <path fill="#FF7900" d="M105.672 8.046l-2.836-1.428 2.481-4.928 2.837 1.428z" mask="url(#d)"/>
                <path fill="#F1F2F2" d="M102.966 6.575l2.663 1.341 2.395-4.755-2.664-1.341-2.394 4.755zm2.706 1.568a.097.097 0 0 1-.043-.01l-2.837-1.429a.095.095 0 0 1-.048-.056.095.095 0 0 1 .005-.073l2.482-4.929a.097.097 0 0 1 .13-.043l2.836 1.429a.096.096 0 0 1 .043.13l-2.482 4.928a.097.097 0 0 1-.086.053z" mask="url(#d)"/>
                <path fill="#FF7900" d="M105.672 8.046l-2.836-1.428.253 3.026z" mask="url(#d)"/>
                <path fill="#F1F2F2" d="M102.946 6.782l.226 2.697 2.302-1.424-2.528-1.273zm.143 2.96a.096.096 0 0 1-.096-.089l-.254-3.027a.097.097 0 0 1 .14-.094l2.837 1.428a.097.097 0 0 1 .007.168l-2.583 1.598a.095.095 0 0 1-.05.015z" mask="url(#d)"/>
                <path fill="#FF7900" d="M104.186 8.966l-1.204-.607.107 1.285z" mask="url(#d)"/>
                <path fill="#F1F2F2" d="M103.092 8.523l.08.956.816-.505-.896-.45zm-.003 1.218a.097.097 0 0 1-.096-.088l-.108-1.286a.097.097 0 0 1 .14-.094l1.204.606a.096.096 0 0 1 .008.169l-1.097.678a.095.095 0 0 1-.05.015z" mask="url(#d)"/>
                <path fill="#FF7900" d="M105.662 1.005l2.837 1.428-.345.685-2.837-1.428z" mask="url(#d)"/>
                <path fill="#F1F2F2" d="M105.447 1.647l2.664 1.341.258-.512-2.664-1.341-.258.512zm2.707 1.568a.094.094 0 0 1-.043-.01l-2.837-1.429a.096.096 0 0 1-.043-.13l.345-.685a.095.095 0 0 1 .13-.043l2.836 1.429a.097.097 0 0 1 .043.13l-.345.685a.095.095 0 0 1-.086.053z" mask="url(#d)"/>
                <path fill="#FF7900" d="M105.662 1.005l2.837 1.428.457-.908L106.12.097z" mask="url(#d)"/>
                <path fill="#F1F2F2" d="M105.792.962l2.664 1.341.37-.735-2.664-1.341-.37.735zM108.5 2.53a.094.094 0 0 1-.043-.01l-2.837-1.429a.096.096 0 0 1-.043-.13l.457-.908a.095.095 0 0 1 .056-.048.095.095 0 0 1 .074.005L109 1.44a.096.096 0 0 1 .042.13l-.457.908a.095.095 0 0 1-.086.053z" mask="url(#d)"/>
                <path fill="#FF7900" d="M106.736 2.404l-2.482 4.928" mask="url(#d)"/>
                <path fill="#F1F2F2" d="M104.254 7.429a.097.097 0 0 1-.086-.14l2.481-4.929a.097.097 0 1 1 .173.087l-2.482 4.928a.096.096 0 0 1-.086.054" mask="url(#d)"/>
                <path fill="#FF7900" d="M104.945 9.564h7.237" mask="url(#d)"/>
                <path fill="#F1F2F2" d="M112.182 9.66h-7.237a.097.097 0 0 1 0-.193h7.237a.097.097 0 0 1 0 .193" mask="url(#d)"/>
                <path fill="#FF7900" d="M102.131 12.217h10.189" mask="url(#d)"/>
                <path fill="#F1F2F2" d="M112.32 12.313H102.13a.097.097 0 0 1 0-.193h10.188a.097.097 0 0 1 0 .193" mask="url(#d)"/>
                <path fill="#FF7900" d="M102.131 15.091h10.189" mask="url(#d)"/>
                <path fill="#F1F2F2" d="M112.32 15.188H102.13a.097.097 0 0 1 0-.193h10.188a.097.097 0 0 1 0 .193" mask="url(#d)"/>
                <path fill="#FF7900" d="M102.131 18.024h4.605" mask="url(#d)"/>
                <path fill="#F1F2F2" d="M106.736 18.12h-4.605a.097.097 0 0 1 0-.193h4.605a.097.097 0 0 1 0 .193" mask="url(#d)"/>
                <path fill="#FF7900" d="M107.868 8.038h6.47" mask="url(#d)"/>
                <path fill="#F1F2F2" d="M114.339 8.134h-6.47a.097.097 0 0 1 0-.193h6.47a.097.097 0 0 1 0 .193" mask="url(#d)"/>
                <path fill="#FF7900" d="M40.93 22.825h8.405" mask="url(#d)"/>
                <path fill="#F1F2F2" d="M49.335 22.922H40.93a.097.097 0 0 1 0-.193h8.404a.097.097 0 0 1 0 .193" mask="url(#d)"/>
                <path fill="#FF7900" d="M45.474 20.679h4.973" mask="url(#d)"/>
                <path fill="#F1F2F2" d="M50.447 20.775h-4.973a.096.096 0 1 1 0-.193h4.973a.097.097 0 0 1 0 .193" mask="url(#d)"/>
                <path fill="#FF7900" d="M34.376 2.039h4.973" mask="url(#d)"/>
                <path fill="#F1F2F2" d="M39.349 2.136h-4.973a.096.096 0 1 1 0-.194h4.973a.097.097 0 0 1 0 .194" mask="url(#d)"/>
                <path fill="#FF7900" d="M31.257 4.023h4.973" mask="url(#d)"/>
                <path fill="#F1F2F2" d="M36.23 4.12h-4.973a.096.096 0 1 1 0-.194h4.973a.097.097 0 0 1 0 .193" mask="url(#d)"/>
                <path fill="#FFF" d="M37.677 10.268v2.12h2.236v-2.12h1.214v5.524h-1.214v-2.383h-2.236v2.383h-1.215v-5.524zM44.276 11.792v.735h-.804v1.98c0 .186.03.31.092.372s.186.093.371.093a2.01 2.01 0 0 0 .34-.031v.851a2.664 2.664 0 0 1-.309.03 7.513 7.513 0 0 1-.332.009c-.17 0-.332-.012-.483-.035a1.141 1.141 0 0 1-.403-.136.712.712 0 0 1-.274-.286 1.019 1.019 0 0 1-.101-.487v-2.36h-.666v-.735h.666v-1.199h1.099v1.2h.804zM45.87 11.792v.542h.015a1.56 1.56 0 0 1 .523-.48c.203-.113.437-.17.7-.17.252 0 .483.05.692.147.209.098.367.27.476.518.118-.175.28-.33.484-.464.203-.134.444-.201.723-.201.211 0 .407.026.587.077.181.052.336.135.465.248.129.114.23.262.302.445.072.183.108.403.108.661v2.677h-1.099v-2.267c0-.134-.005-.26-.015-.379a.8.8 0 0 0-.085-.31.515.515 0 0 0-.205-.208.743.743 0 0 0-.368-.078c-.154 0-.28.03-.375.09a.645.645 0 0 0-.224.231.942.942 0 0 0-.109.325 2.472 2.472 0 0 0-.026.368v2.228h-1.1v-2.244c0-.118-.002-.236-.007-.352a.984.984 0 0 0-.066-.32.49.49 0 0 0-.193-.237c-.09-.059-.224-.089-.399-.089a.822.822 0 0 0-.204.035.678.678 0 0 0-.248.132.765.765 0 0 0-.205.278c-.057.121-.085.28-.085.476v2.321h-1.099v-4h1.037zM51.842 15.792h1.099v-5.524h-1.099z" mask="url(#d)"/>
                <path fill="#FF7900" d="M.097 62.264h8.27a2.83 2.83 0 0 1 3.117-.652l.626.257.095-.671a4.408 4.408 0 0 1 4.348-3.773c.741 0 1.475.19 2.121.547l.491.271.24-.507a5.486 5.486 0 0 1 4.936-3.126 5.464 5.464 0 0 1 5.39 6.314l-.097.622.63-.013.061-.003c.725 0 1.41.268 1.937.734h5.309" mask="url(#d)"/>
                <path fill="#F1F2F2" d="M37.571 62.36h-5.346l-.027-.024a2.825 2.825 0 0 0-1.873-.71l-.06.004-.745.015.116-.736a5.367 5.367 0 0 0-5.295-6.203 5.388 5.388 0 0 0-4.848 3.071l-.284.6-.581-.32a4.298 4.298 0 0 0-2.075-.535 4.312 4.312 0 0 0-4.253 3.69l-.112.793-.742-.304a2.729 2.729 0 0 0-1.042-.206c-.733 0-1.45.305-1.969.836l-.028.03H.097a.097.097 0 0 1 0-.194h8.229a2.962 2.962 0 0 1 2.078-.866c.384 0 .76.075 1.116.221l.512.21.077-.548a4.506 4.506 0 0 1 4.444-3.855 4.49 4.49 0 0 1 2.168.558l.401.222.196-.414a5.583 5.583 0 0 1 5.023-3.182 5.561 5.561 0 0 1 5.486 6.426l-.08.508.568-.013h.002c.735 0 1.433.26 1.98.733h5.274a.097.097 0 0 1 0 .193" mask="url(#d)"/>
                <path fill="#FF7900" d="M29.548 64.577h16.046" mask="url(#d)"/>
                <path fill="#F1F2F2" d="M45.594 64.673H29.548a.097.097 0 0 1 0-.193h16.046a.097.097 0 0 1 0 .193" mask="url(#d)"/>
                <path fill="#FF7900" d="M17.789 67.18h17.127" mask="url(#d)"/>
                <path fill="#F1F2F2" d="M34.916 67.276H17.79a.096.096 0 1 1 0-.193h17.127a.097.097 0 0 1 0 .193" mask="url(#d)"/>
                <path fill="#FF7900" d="M261.335 73.545h-5.72a2.451 2.451 0 0 0-2.15-1.274 3.499 3.499 0 0 0-5.82-3.88 4.257 4.257 0 0 0-6.601 3.932h-.02c-.897 0-1.678.494-2.09 1.222h-5.545" mask="url(#d)"/>
                <path fill="#F1F2F2" d="M261.335 73.642h-5.777l-.028-.05a2.357 2.357 0 0 0-2.065-1.225h-.176l.094-.148a3.392 3.392 0 0 0 .526-1.817A3.406 3.406 0 0 0 250.507 67c-1.105 0-2.146.54-2.784 1.447l-.054.077-.078-.053a4.133 4.133 0 0 0-3.49-.529 4.134 4.134 0 0 0-2.476 2.004 4.142 4.142 0 0 0-.486 2.368l.01.106h-.106c-.847 0-1.616.45-2.024 1.173l-.028.049h-5.602a.097.097 0 0 1 0-.193h5.49a2.502 2.502 0 0 1 2.059-1.22 4.333 4.333 0 0 1 .518-2.375 4.325 4.325 0 0 1 2.59-2.097 4.323 4.323 0 0 1 3.574.502 3.603 3.603 0 0 1 2.887-1.453 3.6 3.6 0 0 1 3.596 3.596c0 .626-.162 1.237-.47 1.777.845.057 1.611.53 2.038 1.27h5.664a.097.097 0 0 1 0 .193" mask="url(#d)"/>
                <path fill="#FF7900" d="M257.176 75.435h8.317" mask="url(#d)"/>
                <path fill="#F1F2F2" d="M265.493 75.531h-8.317a.096.096 0 1 1 0-.193h8.317a.097.097 0 0 1 0 .193" mask="url(#d)"/>
                <path fill="#FF7900" d="M237.84 75.435h7.024" mask="url(#d)"/>
                <path fill="#F1F2F2" d="M244.864 75.531h-7.023a.097.097 0 0 1 0-.193h7.023a.097.097 0 0 1 0 .193" mask="url(#d)"/>
                <path fill="#FF7900" d="M269.681 42.84h-11.004a3.743 3.743 0 0 0-3.65-2.921 3.86 3.86 0 0 0-.301.015c.042-.246.069-.498.069-.757a4.485 4.485 0 0 0-6.21-4.14 5.457 5.457 0 0 0-9.94-.815 6.111 6.111 0 0 0-7.374 5.136 3.488 3.488 0 0 0-.491-.039 3.52 3.52 0 0 0-3.1 1.852 2.575 2.575 0 0 0-4.428 1.669h-6.989" mask="url(#d)"/>
                <path fill="#F1F2F2" d="M269.681 42.937H258.6l-.017-.076a3.669 3.669 0 0 0-3.555-2.845c-.1 0-.197.007-.293.014l-.124.01.02-.122c.046-.266.068-.508.068-.74a4.393 4.393 0 0 0-6.076-4.051l-.095.04-.034-.098a5.367 5.367 0 0 0-5.057-3.591 5.365 5.365 0 0 0-4.706 2.79l-.035.064-.07-.016a6.053 6.053 0 0 0-1.3-.142c-2.994 0-5.555 2.234-5.958 5.196l-.013.097-.096-.014a3.383 3.383 0 0 0-.478-.037c-1.26 0-2.416.69-3.015 1.8l-.063.118-.092-.096a2.459 2.459 0 0 0-1.788-.764 2.473 2.473 0 0 0-2.474 2.37l-.004.093h-7.08a.097.097 0 0 1 0-.194h6.896a2.666 2.666 0 0 1 2.662-2.462c.69 0 1.337.259 1.836.732a3.616 3.616 0 0 1 3.122-1.79c.127 0 .26.008.41.026.457-3.01 3.077-5.268 6.135-5.268.424 0 .851.044 1.27.131a5.558 5.558 0 0 1 4.84-2.828c2.321 0 4.4 1.453 5.206 3.626a4.587 4.587 0 0 1 6.25 4.267c0 .208-.016.422-.05.652a3.815 3.815 0 0 1 3.912 2.914h10.928a.097.097 0 0 1 0 .194" mask="url(#d)"/>
                <path fill="#FF7900" d="M261.227 45.478h-15.884" mask="url(#d)"/>
                <path fill="#F1F2F2" d="M261.227 45.574h-15.884a.096.096 0 1 1 0-.193h15.884a.097.097 0 0 1 0 .193" mask="url(#d)"/>
                <path fill="#FF7900" d="M249.904 47.53h-2.24" mask="url(#d)"/>
                <path fill="#F1F2F2" d="M249.904 47.627h-2.24a.097.097 0 0 1 0-.193h2.24a.097.097 0 0 1 0 .193" mask="url(#d)"/>
                <path fill="#FF7900" d="M235.5 47.53h-12.32" mask="url(#d)"/>
                <path fill="#F1F2F2" d="M235.5 47.627h-12.32a.097.097 0 0 1 0-.193h12.32a.097.097 0 0 1 0 .193" mask="url(#d)"/>
                <path fill="#FFF" d="M152.78 22.481a1.873 1.873 0 0 0-.957-.766 1.894 1.894 0 0 0-.644-.11c-.41 0-.759.08-1.045.238a1.972 1.972 0 0 0-.696.638c-.178.267-.307.57-.389.91-.08.341-.121.693-.121 1.057 0 .348.04.687.121 1.015.082.33.21.625.39.888.177.263.41.474.695.633.286.158.635.237 1.045.237.557 0 .992-.17 1.305-.51.314-.34.505-.79.575-1.346h1.764a4.212 4.212 0 0 1-.36 1.404 3.363 3.363 0 0 1-.766 1.067 3.256 3.256 0 0 1-1.114.674 4.082 4.082 0 0 1-1.404.232c-.635 0-1.205-.11-1.712-.331a3.663 3.663 0 0 1-1.282-.911 4.033 4.033 0 0 1-.8-1.364 5.004 5.004 0 0 1-.28-1.688c0-.619.093-1.193.28-1.723a4.14 4.14 0 0 1 .8-1.387 3.666 3.666 0 0 1 1.282-.928c.507-.225 1.077-.337 1.712-.337.456 0 .888.066 1.294.197.406.132.77.324 1.09.575.321.251.587.563.795.934.21.371.34.797.395 1.276h-1.764c-.03-.208-.1-.4-.209-.574M157.277 27.065a.963.963 0 0 0 .284.313c.116.081.25.141.4.18.152.039.308.058.47.058.117 0 .239-.013.366-.04.128-.028.244-.07.348-.128a.791.791 0 0 0 .261-.232.61.61 0 0 0 .105-.366c0-.247-.164-.433-.493-.557-.33-.124-.787-.247-1.375-.371a8.134 8.134 0 0 1-.702-.192 2.4 2.4 0 0 1-.61-.29 1.41 1.41 0 0 1-.43-.452 1.282 1.282 0 0 1-.162-.668c0-.386.076-.704.227-.951.15-.248.35-.443.597-.586a2.62 2.62 0 0 1 .836-.302c.31-.058.627-.087.951-.087.325 0 .64.03.946.093.306.062.579.166.818.313.24.147.44.342.598.586.159.244.253.551.284.923h-1.566c-.024-.317-.143-.532-.36-.644a1.644 1.644 0 0 0-.766-.169c-.093 0-.193.006-.302.018a1.007 1.007 0 0 0-.296.075.61.61 0 0 0-.226.169.445.445 0 0 0-.093.295c0 .147.054.267.163.36.108.093.25.168.423.226.174.058.374.11.598.157.224.047.453.097.685.151.24.054.473.12.702.197.228.078.43.18.609.308.178.127.32.286.43.476.108.19.162.423.162.702 0 .394-.08.725-.238.992a1.904 1.904 0 0 1-.621.644 2.545 2.545 0 0 1-.876.342 5.106 5.106 0 0 1-2.025-.006 2.695 2.695 0 0 1-.888-.348 1.991 1.991 0 0 1-.638-.644c-.167-.267-.257-.601-.273-1.004h1.567c0 .178.037.331.11.459M163.508 27.065a.963.963 0 0 0 .285.313c.116.081.25.141.4.18.151.039.308.058.47.058.116 0 .238-.013.366-.04.127-.028.243-.07.348-.128a.791.791 0 0 0 .26-.232.61.61 0 0 0 .105-.366c0-.247-.164-.433-.493-.557-.329-.124-.787-.247-1.375-.371a8.134 8.134 0 0 1-.702-.192 2.4 2.4 0 0 1-.61-.29 1.41 1.41 0 0 1-.429-.452 1.282 1.282 0 0 1-.162-.668c0-.386.075-.704.226-.951.151-.248.35-.443.598-.586a2.62 2.62 0 0 1 .835-.302c.31-.058.627-.087.952-.087.325 0 .64.03.946.093.305.062.578.166.818.313s.439.342.597.586c.159.244.254.551.285.923h-1.567c-.023-.317-.143-.532-.36-.644a1.644 1.644 0 0 0-.766-.169c-.092 0-.193.006-.301.018a1.007 1.007 0 0 0-.296.075.61.61 0 0 0-.226.169.445.445 0 0 0-.093.295c0 .147.054.267.162.36.108.093.25.168.424.226.174.058.373.11.597.157.225.047.453.097.685.151.24.054.474.12.702.197.228.078.431.18.61.308.177.127.32.286.429.476.108.19.162.423.162.702 0 .394-.08.725-.238.992a1.904 1.904 0 0 1-.62.644 2.545 2.545 0 0 1-.877.342 5.106 5.106 0 0 1-2.025-.006 2.695 2.695 0 0 1-.887-.348 1.991 1.991 0 0 1-.639-.644c-.166-.267-.257-.601-.272-1.004h1.566c0 .178.037.331.11.459M5.45 85.436c-.044.27-.148.523-.309.759a1.868 1.868 0 0 1-.696.59c-.303.158-.712.236-1.228.236-.29 0-.57-.04-.841-.12a2.107 2.107 0 0 1-.726-.377 1.867 1.867 0 0 1-.512-.658c-.13-.268-.194-.591-.194-.972v-.6h1.374v.31c0 .168.012.322.038.464.026.142.071.263.136.363a.68.68 0 0 0 .266.237.96.96 0 0 0 .44.087c.2 0 .354-.036.464-.107a.611.611 0 0 0 .236-.275 1.14 1.14 0 0 0 .088-.368c.01-.132.014-.26.014-.382v-4.661h1.518v4.729c0 .226-.022.474-.067.745M9.822 84.42a.605.605 0 0 1-.218.12 2.17 2.17 0 0 1-.28.074c-.1.019-.205.035-.315.048-.109.013-.219.029-.328.048-.104.02-.205.045-.305.078a.905.905 0 0 0-.261.13.628.628 0 0 0-.179.208.668.668 0 0 0-.068.32c0 .122.023.225.068.309a.52.52 0 0 0 .184.198.774.774 0 0 0 .27.101c.103.02.21.03.32.03.27 0 .48-.045.628-.136a.904.904 0 0 0 .329-.324 1.04 1.04 0 0 0 .13-.382c.017-.129.025-.232.025-.31v-.512zM6.65 83.405c.02-.323.1-.59.242-.803.142-.213.322-.383.541-.512.22-.13.466-.221.74-.276.274-.055.55-.082.827-.082.251 0 .506.018.764.053s.493.105.706.208c.212.103.387.247.522.43.135.184.203.427.203.73v2.602c0 .226.013.441.039.648.025.206.07.36.135.464H9.976a1.903 1.903 0 0 1-.096-.484c-.22.226-.477.384-.774.474-.297.09-.6.135-.909.135-.239 0-.461-.029-.667-.087a1.527 1.527 0 0 1-.542-.27 1.252 1.252 0 0 1-.362-.465 1.569 1.569 0 0 1-.13-.667c0-.283.049-.517.15-.7.099-.184.228-.331.386-.44.158-.11.338-.193.542-.247.202-.055.407-.099.613-.131.207-.032.41-.058.61-.077.2-.02.377-.049.532-.087a.927.927 0 0 0 .367-.17c.09-.074.132-.182.126-.324a.728.728 0 0 0-.073-.352.534.534 0 0 0-.193-.204.757.757 0 0 0-.28-.096 2.27 2.27 0 0 0-.344-.025c-.27 0-.483.058-.638.174-.155.117-.245.31-.27.58H6.65zM13.496 86.867l-1.711-5h1.44l1.055 3.414h.019l1.054-3.414h1.364l-1.693 5zM20.401 84.42a.605.605 0 0 1-.217.12 2.17 2.17 0 0 1-.281.074c-.1.019-.205.035-.314.048-.11.013-.22.029-.329.048-.103.02-.205.045-.304.078a.905.905 0 0 0-.262.13.628.628 0 0 0-.179.208.668.668 0 0 0-.067.32c0 .122.022.225.067.309a.52.52 0 0 0 .184.198.774.774 0 0 0 .27.101c.104.02.21.03.32.03.27 0 .48-.045.629-.136a.904.904 0 0 0 .328-.324 1.04 1.04 0 0 0 .131-.382c.016-.129.024-.232.024-.31v-.512zm-3.172-1.015c.02-.323.1-.59.242-.803.142-.213.322-.383.542-.512.219-.13.465-.221.74-.276.273-.055.549-.082.826-.082.252 0 .506.018.764.053s.493.105.706.208c.213.103.387.247.522.43.136.184.203.427.203.73v2.602c0 .226.013.441.039.648.026.206.07.36.135.464h-1.392a1.903 1.903 0 0 1-.097-.484c-.22.226-.477.384-.773.474-.297.09-.6.135-.91.135-.238 0-.46-.029-.667-.087a1.527 1.527 0 0 1-.541-.27 1.252 1.252 0 0 1-.363-.465 1.569 1.569 0 0 1-.13-.667c0-.283.05-.517.15-.7.1-.184.228-.331.386-.44.158-.11.339-.193.542-.247.203-.055.408-.099.614-.131.206-.032.41-.058.61-.077.199-.02.376-.049.53-.087a.927.927 0 0 0 .368-.17c.09-.074.133-.182.126-.324a.728.728 0 0 0-.072-.352.534.534 0 0 0-.194-.204.757.757 0 0 0-.28-.096 2.27 2.27 0 0 0-.344-.025c-.27 0-.483.058-.638.174-.155.117-.245.31-.27.58h-1.374zM216.038 61.145c.14 0 .274-.01.403-.03a.929.929 0 0 0 .34-.12.655.655 0 0 0 .236-.252.886.886 0 0 0 .09-.425.886.886 0 0 0-.09-.426.658.658 0 0 0-.236-.251.943.943 0 0 0-.34-.12 2.558 2.558 0 0 0-.403-.031h-.943v1.655h.943zm.333-2.6c.346 0 .64.051.882.152.243.1.44.233.592.398.152.165.263.353.333.565a2.089 2.089 0 0 1 0 1.311c-.07.215-.181.404-.333.569a1.65 1.65 0 0 1-.592.398c-.242.1-.536.151-.882.151h-1.276v1.98h-1.215v-5.523h2.491zM220.023 58.546v2.081h.023c.14-.232.317-.401.534-.507.216-.105.428-.158.634-.158.294 0 .535.04.723.12.189.08.337.19.445.332.109.142.185.315.228.519.044.204.066.43.066.677v2.46h-1.098v-2.26c0-.33-.052-.576-.155-.738-.103-.162-.286-.244-.55-.244-.298 0-.515.09-.65.267-.133.178-.2.471-.2.878v2.097h-1.099v-5.524h1.099zM225.984 63.242a.885.885 0 0 0 .294-.282c.074-.117.127-.252.158-.407.031-.154.047-.311.047-.472 0-.16-.017-.317-.05-.471a1.258 1.258 0 0 0-.167-.414.932.932 0 0 0-.298-.294.834.834 0 0 0-.445-.113.848.848 0 0 0-.452.113.904.904 0 0 0-.294.29 1.208 1.208 0 0 0-.159.41c-.03.155-.046.315-.046.48 0 .16.016.317.05.471.033.155.088.29.162.407a.87.87 0 0 0 .298.282.874.874 0 0 0 .449.108.87.87 0 0 0 .453-.108zm-1.428-3.172v.51h.016c.134-.216.304-.373.51-.471.207-.098.434-.147.681-.147.315 0 .585.059.812.178.227.118.416.275.565.472.15.196.26.424.333.684.072.26.108.533.108.816 0 .268-.036.526-.108.774a1.97 1.97 0 0 1-.329.658c-.147.19-.33.343-.55.456-.219.113-.475.17-.769.17-.248 0-.476-.05-.685-.15-.209-.101-.38-.25-.514-.445h-.016v1.895h-1.098v-5.4h1.044zM224.515 94.813a1.507 1.507 0 0 1-.247.608c-.13.188-.315.345-.557.471-.243.127-.57.19-.983.19-.232 0-.456-.033-.673-.097a1.682 1.682 0 0 1-.58-.301 1.496 1.496 0 0 1-.41-.527 1.776 1.776 0 0 1-.155-.777v-.48h1.099v.248c0 .134.01.258.03.371.021.114.057.21.109.29.051.08.122.143.213.19.09.046.207.07.352.07.16 0 .283-.029.37-.086a.49.49 0 0 0 .19-.22.91.91 0 0 0 .07-.294c.008-.106.012-.208.012-.306v-3.729h1.214v3.784c0 .18-.018.379-.054.595M228.012 94a.49.49 0 0 1-.174.098c-.07.023-.144.042-.224.058-.08.015-.164.028-.252.038-.088.01-.175.023-.263.039a1.955 1.955 0 0 0-.244.062.724.724 0 0 0-.209.104.496.496 0 0 0-.143.167.532.532 0 0 0-.054.255c0 .098.018.18.054.247.036.068.085.12.147.16a.621.621 0 0 0 .217.08c.082.016.167.024.255.024.217 0 .384-.036.503-.109a.722.722 0 0 0 .263-.259.823.823 0 0 0 .105-.306c.012-.102.019-.185.019-.247V94zm-2.538-.811c.016-.258.08-.472.194-.643.113-.17.257-.306.433-.41.175-.103.373-.176.592-.22.22-.044.44-.066.661-.066.201 0 .405.014.612.043.206.028.394.084.564.166.17.082.31.197.418.344.108.147.163.342.163.584v2.081c0 .181.01.354.03.519a.93.93 0 0 0 .109.371h-1.114a1.57 1.57 0 0 1-.078-.387c-.175.181-.381.307-.619.38a2.48 2.48 0 0 1-.727.108c-.19 0-.368-.023-.534-.07a1.224 1.224 0 0 1-.433-.217 1.006 1.006 0 0 1-.29-.37 1.256 1.256 0 0 1-.104-.535c0-.227.04-.414.12-.56.08-.148.183-.265.309-.353.126-.087.27-.153.433-.197.163-.044.326-.078.491-.104.165-.026.328-.047.488-.062.16-.016.302-.039.425-.07a.744.744 0 0 0 .294-.135c.073-.06.106-.146.1-.26a.584.584 0 0 0-.057-.282.426.426 0 0 0-.155-.162.607.607 0 0 0-.224-.078 1.854 1.854 0 0 0-.275-.019c-.216 0-.387.047-.51.14-.124.092-.197.247-.217.464h-1.099zM230.952 95.958l-1.37-4h1.153l.843 2.731h.016l.843-2.73h1.09l-1.353 4zM236.475 94a.49.49 0 0 1-.174.098c-.07.023-.144.042-.224.058-.08.015-.164.028-.252.038-.087.01-.175.023-.263.039a1.955 1.955 0 0 0-.243.062.724.724 0 0 0-.21.104.496.496 0 0 0-.142.167.532.532 0 0 0-.054.255c0 .098.017.18.054.247.036.068.085.12.147.16a.621.621 0 0 0 .216.08c.083.016.168.024.256.024.216 0 .384-.036.503-.109a.722.722 0 0 0 .263-.259.823.823 0 0 0 .104-.306c.013-.102.02-.185.02-.247V94zm-2.537-.811c.015-.258.08-.472.193-.643.114-.17.258-.306.433-.41.176-.103.373-.176.592-.22.22-.044.44-.066.662-.066.2 0 .405.014.61.043.207.028.395.084.566.166.17.082.31.197.417.344.109.147.163.342.163.584v2.081c0 .181.01.354.03.519a.93.93 0 0 0 .11.371h-1.115a1.57 1.57 0 0 1-.077-.387c-.175.181-.382.307-.62.38a2.48 2.48 0 0 1-.726.108c-.191 0-.369-.023-.534-.07a1.224 1.224 0 0 1-.433-.217 1.006 1.006 0 0 1-.29-.37 1.256 1.256 0 0 1-.105-.535c0-.227.04-.414.12-.56.08-.148.183-.265.31-.353.126-.087.27-.153.433-.197.162-.044.326-.078.49-.104.166-.026.328-.047.488-.062.16-.016.302-.039.426-.07a.744.744 0 0 0 .294-.135c.072-.06.105-.146.1-.26a.584.584 0 0 0-.058-.282.426.426 0 0 0-.154-.162.607.607 0 0 0-.225-.078 1.854 1.854 0 0 0-.274-.019c-.217 0-.387.047-.511.14-.124.092-.196.247-.217.464h-1.098zM239.35 94.964a.64.64 0 0 0 .189.209.815.815 0 0 0 .267.12 1.25 1.25 0 0 0 .557.012.833.833 0 0 0 .232-.086.526.526 0 0 0 .174-.154.407.407 0 0 0 .07-.244c0-.165-.11-.289-.33-.371a6.576 6.576 0 0 0-.916-.248 5.294 5.294 0 0 1-.468-.128 1.591 1.591 0 0 1-.406-.193.939.939 0 0 1-.286-.302.854.854 0 0 1-.109-.445c0-.258.05-.469.151-.634.1-.165.234-.295.399-.39a1.74 1.74 0 0 1 .557-.202 3.434 3.434 0 0 1 1.265.004c.203.042.385.11.545.209.16.098.292.228.398.39.106.163.17.368.19.616h-1.044c-.016-.212-.096-.355-.24-.43a1.1 1.1 0 0 0-.51-.112c-.063 0-.13.004-.202.012a.665.665 0 0 0-.197.05.405.405 0 0 0-.151.112.296.296 0 0 0-.062.198c0 .097.036.177.108.24a.832.832 0 0 0 .283.15c.116.039.248.074.398.105.15.03.302.064.457.1.16.036.316.08.468.132.152.051.287.12.406.205a.99.99 0 0 1 .286.317.934.934 0 0 1 .108.468c0 .263-.053.484-.158.661a1.272 1.272 0 0 1-.414.43c-.17.108-.365.184-.584.228a3.417 3.417 0 0 1-1.35-.004 1.792 1.792 0 0 1-.592-.232 1.324 1.324 0 0 1-.426-.43 1.341 1.341 0 0 1-.181-.668h1.044a.6.6 0 0 0 .073.305M244.49 92.678a.773.773 0 0 0-.44.12.95.95 0 0 0-.291.31 1.342 1.342 0 0 0-.159.417 2.175 2.175 0 0 0 0 .894c.031.15.082.285.151.406.07.12.164.22.283.298a.775.775 0 0 0 .433.116c.263 0 .465-.074.607-.22.142-.148.23-.345.267-.593h1.06c-.072.532-.279.936-.619 1.215-.34.279-.776.418-1.307.418a2.19 2.19 0 0 1-.824-.151 1.823 1.823 0 0 1-1.049-1.068 2.244 2.244 0 0 1-.147-.824c0-.31.045-.597.136-.862a1.94 1.94 0 0 1 .398-.689 1.82 1.82 0 0 1 .642-.452c.253-.109.542-.163.867-.163.237 0 .465.031.685.093.218.062.415.156.587.282.173.127.314.284.422.472.108.189.17.411.186.67h-1.076c-.072-.46-.343-.689-.812-.689M248.064 91.959v.742h.016a1.352 1.352 0 0 1 .51-.615c.113-.074.235-.133.364-.174.129-.041.263-.062.402-.062.072 0 .152.013.24.039v1.021a2.049 2.049 0 0 0-.395-.039c-.2 0-.371.034-.51.101a.883.883 0 0 0-.337.275 1.105 1.105 0 0 0-.182.406 2.217 2.217 0 0 0-.054.503v1.802h-1.098v-4h1.044zM250.06 95.958h1.099v-4h-1.099v4zm0-4.618h1.099v-.905h-1.099v.905zM254.497 95.13a.885.885 0 0 0 .294-.282c.075-.116.128-.251.159-.406.03-.155.046-.312.046-.472 0-.16-.017-.317-.05-.472a1.258 1.258 0 0 0-.167-.414.932.932 0 0 0-.297-.294.834.834 0 0 0-.445-.112.848.848 0 0 0-.453.112.904.904 0 0 0-.294.29 1.208 1.208 0 0 0-.158.41c-.031.155-.047.315-.047.48 0 .16.017.317.05.472.034.155.088.29.163.406a.87.87 0 0 0 .298.282.874.874 0 0 0 .448.109.87.87 0 0 0 .453-.109zm-1.427-3.172v.511h.015c.134-.217.304-.374.51-.472.207-.098.434-.147.682-.147.314 0 .585.06.812.178.227.119.415.276.565.472.149.196.26.424.332.685.072.26.109.532.109.816 0 .268-.037.526-.109.773a1.97 1.97 0 0 1-.329.658c-.147.19-.33.343-.549.456-.22.114-.476.17-.77.17-.247 0-.475-.05-.684-.15-.21-.1-.38-.249-.515-.445h-.015v1.895h-1.099v-5.4h1.045zM258.949 91.959v.734h-.805v1.981c0 .186.031.31.093.371.062.062.186.093.372.093a2.01 2.01 0 0 0 .34-.03v.85a2.673 2.673 0 0 1-.31.031 7.516 7.516 0 0 1-.332.008c-.17 0-.332-.012-.484-.035a1.144 1.144 0 0 1-.402-.135.715.715 0 0 1-.275-.287 1.024 1.024 0 0 1-.1-.487v-2.36h-.665v-.734h.665v-1.2h1.098v1.2h.805zM22.142 40.935l-.942-3.554h-.021l-.901 3.554h-1.505l-1.68-5.295h1.536l.973 3.595h.02l.881-3.595h1.413l.902 3.585h.02l.973-3.585h1.495l-1.67 5.295zM30.478 40.935l-.942-3.554h-.02l-.902 3.554h-1.505l-1.68-5.295h1.536l.973 3.595h.02l.882-3.595h1.413l.9 3.585h.021l.974-3.585h1.495l-1.67 5.295zM38.815 40.935l-.943-3.554h-.02l-.902 3.554h-1.505l-1.68-5.295h1.537l.973 3.595h.02l.88-3.595h1.414l.901 3.585h.02l.974-3.585h1.495l-1.67 5.295z" mask="url(#d)"/>
            </g>
        </g>
    </g>
</svg>
