<svg xmlns="http://www.w3.org/2000/svg" xmlns:xlink="http://www.w3.org/1999/xlink" width="40" height="40" viewBox="0 0 40 40">
    <defs>
        <path id="a" d="M.067 19.942c0 10.948 8.935 19.823 19.958 19.823 11.022 0 19.958-8.875 19.958-19.823S31.047.12 20.025.12C9.002.119.067 8.994.067 19.942z"/>
        <path id="c" d="M8.406.07C4.335 2.772 1.32 6.92.108 11.776v9.575c2.156 8.636 10.012 15.036 19.373 15.036 7.371 0 13.81-3.97 17.266-9.874V6.614A19.98 19.98 0 0 0 30.556.07"/>
        <path id="e" d="M8.406.07C4.335 2.772 1.32 6.92.108 11.776v9.575c2.156 8.636 10.012 15.036 19.373 15.036 7.371 0 13.81-3.97 17.266-9.874V6.614A19.98 19.98 0 0 0 30.556.07"/>
        <path id="g" d="M8.406.07C4.335 2.772 1.32 6.92.108 11.776v9.575c2.156 8.636 10.012 15.036 19.373 15.036 7.371 0 13.81-3.97 17.266-9.874V6.614A19.98 19.98 0 0 0 30.556.07"/>
        <path id="i" d="M8.406.07C4.335 2.772 1.32 6.92.108 11.776v9.575c2.156 8.636 10.012 15.036 19.373 15.036 7.371 0 13.81-3.97 17.266-9.874V6.614A19.98 19.98 0 0 0 30.556.07"/>
        <path id="k" d="M8.406.07C4.335 2.772 1.32 6.92.108 11.776v9.575c2.156 8.636 10.012 15.036 19.373 15.036 7.371 0 13.81-3.97 17.266-9.874V6.614A19.98 19.98 0 0 0 30.556.07"/>
        <path id="m" d="M8.406.07C4.335 2.772 1.32 6.92.108 11.776v9.575c2.156 8.636 10.012 15.036 19.373 15.036 7.371 0 13.81-3.97 17.266-9.874V6.614A19.98 19.98 0 0 0 30.556.07"/>
        <path id="o" d="M8.406.07C4.335 2.772 1.32 6.92.108 11.776v9.575c2.156 8.636 10.012 15.036 19.373 15.036 7.371 0 13.81-3.97 17.266-9.874V6.614A19.98 19.98 0 0 0 30.556.07"/>
        <path id="q" d="M8.406.07C4.335 2.772 1.32 6.92.108 11.776v9.575c2.156 8.636 10.012 15.036 19.373 15.036 7.371 0 13.81-3.97 17.266-9.874V6.614A19.98 19.98 0 0 0 30.556.07"/>
        <path id="s" d="M8.406.07C4.335 2.772 1.32 6.92.108 11.776v9.575c2.156 8.636 10.012 15.036 19.373 15.036 7.371 0 13.81-3.97 17.266-9.874V6.614A19.98 19.98 0 0 0 30.556.07"/>
        <path id="u" d="M8.406.07C4.335 2.772 1.32 6.92.108 11.776v9.575c2.156 8.636 10.012 15.036 19.373 15.036 7.371 0 13.81-3.97 17.266-9.874V6.614A19.98 19.98 0 0 0 30.556.07"/>
        <path id="w" d="M8.406.07C4.335 2.772 1.32 6.92.108 11.776v9.575c2.156 8.636 10.012 15.036 19.373 15.036 7.371 0 13.81-3.97 17.266-9.874V6.614A19.98 19.98 0 0 0 30.556.07"/>
        <path id="y" d="M8.406.07C4.335 2.772 1.32 6.92.108 11.776v9.575c2.156 8.636 10.012 15.036 19.373 15.036 7.371 0 13.81-3.97 17.266-9.874V6.614A19.98 19.98 0 0 0 30.556.07"/>
        <path id="A" d="M8.406.07C4.335 2.772 1.32 6.92.108 11.776v9.575c2.156 8.636 10.012 15.036 19.373 15.036 7.371 0 13.81-3.97 17.266-9.874V6.614A19.98 19.98 0 0 0 30.556.07"/>
        <path id="C" d="M8.406.07C4.335 2.772 1.32 6.92.108 11.776v9.575c2.156 8.636 10.012 15.036 19.373 15.036 7.371 0 13.81-3.97 17.266-9.874V6.614A19.98 19.98 0 0 0 30.556.07"/>
        <path id="E" d="M8.406.07C4.335 2.772 1.32 6.92.108 11.776v9.575c2.156 8.636 10.012 15.036 19.373 15.036 7.371 0 13.81-3.97 17.266-9.874V6.614A19.98 19.98 0 0 0 30.556.07"/>
        <path id="G" d="M8.406.07C4.335 2.772 1.32 6.92.108 11.776v9.575c2.156 8.636 10.012 15.036 19.373 15.036 7.371 0 13.81-3.97 17.266-9.874V6.614A19.98 19.98 0 0 0 30.556.07"/>
        <path id="I" d="M8.406.07C4.335 2.772 1.32 6.92.108 11.776v9.575c2.156 8.636 10.012 15.036 19.373 15.036 7.371 0 13.81-3.97 17.266-9.874V6.614A19.98 19.98 0 0 0 30.556.07H8.406z"/>
        <path id="K" d="M8.406.07C4.335 2.772 1.32 6.92.108 11.776v9.575c2.156 8.636 10.012 15.036 19.373 15.036 7.371 0 13.81-3.97 17.266-9.874V6.614A19.98 19.98 0 0 0 30.556.07"/>
        <path id="M" d="M8.406.07C4.335 2.772 1.32 6.92.108 11.776v9.575c2.156 8.636 10.012 15.036 19.373 15.036 7.371 0 13.81-3.97 17.266-9.874V6.614A19.98 19.98 0 0 0 30.556.07"/>
        <path id="O" d="M8.406.07C4.335 2.772 1.32 6.92.108 11.776v9.575c2.156 8.636 10.012 15.036 19.373 15.036 7.371 0 13.81-3.97 17.266-9.874V6.614A19.98 19.98 0 0 0 30.556.07"/>
        <path id="Q" d="M8.406.07C4.335 2.772 1.32 6.92.108 11.776v9.575c2.156 8.636 10.012 15.036 19.373 15.036 7.371 0 13.81-3.97 17.266-9.874V6.614A19.98 19.98 0 0 0 30.556.07"/>
        <path id="S" d="M8.406.07C4.335 2.772 1.32 6.92.108 11.776v9.575c2.156 8.636 10.012 15.036 19.373 15.036 7.371 0 13.81-3.97 17.266-9.874V6.614A19.98 19.98 0 0 0 30.556.07"/>
        <path id="U" d="M8.406.07C4.335 2.772 1.32 6.92.108 11.776v9.575c2.156 8.636 10.012 15.036 19.373 15.036 7.371 0 13.81-3.97 17.266-9.874V6.614A19.98 19.98 0 0 0 30.556.07"/>
        <path id="W" d="M8.406.07C4.335 2.772 1.32 6.92.108 11.776v9.575c2.156 8.636 10.012 15.036 19.373 15.036 7.371 0 13.81-3.97 17.266-9.874V6.614A19.98 19.98 0 0 0 30.556.07H8.406z"/>
        <path id="Y" d="M8.406.07C4.335 2.772 1.32 6.92.108 11.776v9.575c2.156 8.636 10.012 15.036 19.373 15.036 7.371 0 13.81-3.97 17.266-9.874V6.614A19.98 19.98 0 0 0 30.556.07H8.406z"/>
        <path id="aa" d="M8.406.07C4.335 2.772 1.32 6.92.108 11.776v9.575c2.156 8.636 10.012 15.036 19.373 15.036 7.371 0 13.81-3.97 17.266-9.874V6.614A19.98 19.98 0 0 0 30.556.07H8.406z"/>
        <path id="ac" d="M8.406.07C4.335 2.772 1.32 6.92.108 11.776v9.575c2.156 8.636 10.012 15.036 19.373 15.036 7.371 0 13.81-3.97 17.266-9.874V6.614A19.98 19.98 0 0 0 30.556.07"/>
        <path id="ae" d="M8.406.07C4.335 2.772 1.32 6.92.108 11.776v9.575c2.156 8.636 10.012 15.036 19.373 15.036 7.371 0 13.81-3.97 17.266-9.874V6.614A19.98 19.98 0 0 0 30.556.07"/>
        <path id="ag" d="M8.406.07C4.335 2.772 1.32 6.92.108 11.776v9.575c2.156 8.636 10.012 15.036 19.373 15.036 7.371 0 13.81-3.97 17.266-9.874V6.614A19.98 19.98 0 0 0 30.556.07"/>
        <path id="ai" d="M8.406.07C4.335 2.772 1.32 6.92.108 11.776v9.575c2.156 8.636 10.012 15.036 19.373 15.036 7.371 0 13.81-3.97 17.266-9.874V6.614A19.98 19.98 0 0 0 30.556.07"/>
        <path id="ak" d="M8.406.07C4.335 2.772 1.32 6.92.108 11.776v9.575c2.156 8.636 10.012 15.036 19.373 15.036 7.371 0 13.81-3.97 17.266-9.874V6.614A19.98 19.98 0 0 0 30.556.07"/>
        <path id="am" d="M8.406.07C4.335 2.772 1.32 6.92.108 11.776v9.575c2.156 8.636 10.012 15.036 19.373 15.036 7.371 0 13.81-3.97 17.266-9.874V6.614A19.98 19.98 0 0 0 30.556.07"/>
        <path id="ao" d="M8.406.07C4.335 2.772 1.32 6.92.108 11.776v9.575c2.156 8.636 10.012 15.036 19.373 15.036 7.371 0 13.81-3.97 17.266-9.874V6.614A19.98 19.98 0 0 0 30.556.07H8.406z"/>
        <path id="aq" d="M8.406.07C4.335 2.772 1.32 6.92.108 11.776v9.575c2.156 8.636 10.012 15.036 19.373 15.036 7.371 0 13.81-3.97 17.266-9.874V6.614A19.98 19.98 0 0 0 30.556.07"/>
        <path id="as" d="M8.406.07C4.335 2.772 1.32 6.92.108 11.776v9.575c2.156 8.636 10.012 15.036 19.373 15.036 7.371 0 13.81-3.97 17.266-9.874V6.614A19.98 19.98 0 0 0 30.556.07"/>
        <path id="au" d="M8.406.07C4.335 2.772 1.32 6.92.108 11.776v9.575c2.156 8.636 10.012 15.036 19.373 15.036 7.371 0 13.81-3.97 17.266-9.874V6.614A19.98 19.98 0 0 0 30.556.07"/>
        <path id="aw" d="M8.406.07C4.335 2.772 1.32 6.92.108 11.776v9.575c2.156 8.636 10.012 15.036 19.373 15.036 7.371 0 13.81-3.97 17.266-9.874V6.614A19.98 19.98 0 0 0 30.556.07H8.406z"/>
        <path id="ay" d="M20.025 39.765c11.022 0 19.958-8.875 19.958-19.823S31.047.12 20.025.12C9.002.119.067 8.994.067 19.942s8.935 19.823 19.958 19.823z"/>
    </defs>
    <g fill="none" fill-rule="evenodd">
        <g transform="translate(0 .085)">
            <mask id="b" fill="#fff">
                <use xlink:href="#a"/>
            </mask>
            <path fill="#4BB4E6" d="M-2.295 44.934H44.94V-3.734H-2.295z" mask="url(#b)"/>
        </g>
        <g transform="translate(.544 3.463)">
            <mask id="d" fill="#fff">
                <use xlink:href="#c"/>
            </mask>
            <path fill="#FFF" d="M29.173 13.65c.61-.23 1.198-.508 1.807-.737.224-.084.319.271.098.354-.61.23-1.198.508-1.807.737-.224.084-.32-.271-.098-.354" mask="url(#d)"/>
            <mask id="f" fill="#fff">
                <use xlink:href="#e"/>
            </mask>
            <path fill="#FFF" d="M31.042 13.053a23.439 23.439 0 0 0-.905.369c-.296.125-.602.255-.91.37-.013.005-.022.012-.025.03a.064.064 0 0 0 .007.042.07.07 0 0 0 .007-.002c.302-.114.605-.242.898-.367.296-.125.602-.254.91-.37.013-.005.022-.012.025-.03a.064.064 0 0 0-.007-.042m-1.837 1.116a.294.294 0 0 1-.188-.066.355.355 0 0 1-.118-.33.341.341 0 0 1 .22-.266c.301-.113.604-.242.897-.366.296-.125.602-.255.91-.37a.306.306 0 0 1 .307.043c.093.075.14.205.119.33a.34.34 0 0 1-.22.266c-.301.113-.604.242-.897.366-.296.125-.602.255-.91.37a.342.342 0 0 1-.12.023" mask="url(#f)"/>
            <mask id="h" fill="#fff">
                <use xlink:href="#g"/>
            </mask>
            <path fill="#FFF" d="M27.802 12.114c.406-.41.878-.751 1.353-1.077.197-.135.387.18.192.314-.45.31-.895.632-1.28 1.02-.168.168-.433-.088-.265-.257" mask="url(#h)"/>
            <mask id="j" fill="#fff">
                <use xlink:href="#i"/>
            </mask>
            <path fill="#FFF" d="M29.252 11.156l-.01.006c-.526.361-.954.68-1.331 1.06-.01.01-.01.014-.009.017.004.014.02.03.035.033.004.002.01.003.02-.009.398-.4.861-.734 1.303-1.037.013-.009.017-.017.015-.031-.003-.021-.017-.036-.023-.039m-1.31 1.422a.36.36 0 0 1-.336-.258.315.315 0 0 1 .086-.313c.417-.42.908-.775 1.376-1.096a.314.314 0 0 1 .45.084.34.34 0 0 1-.084.482c-.43.294-.879.619-1.258 1a.326.326 0 0 1-.234.101" mask="url(#j)"/>
            <mask id="l" fill="#fff">
                <use xlink:href="#k"/>
            </mask>
            <path fill="#FFF" d="M25.8 10.704c.319-.37.597-.77.832-1.197.114-.209.418.002.305.208a6.929 6.929 0 0 1-.833 1.198c-.154.178-.46-.03-.305-.21" mask="url(#l)"/>
            <mask id="n" fill="#fff">
                <use xlink:href="#m"/>
            </mask>
            <path fill="#FFF" d="M25.912 10.808c.006.007.02.017.038.02.018.003.028-.004.037-.015.312-.36.586-.754.815-1.17.007-.013.01-.025 0-.04a.065.065 0 0 0-.032-.029l-.003.006c-.24.435-.526.847-.851 1.223a.053.053 0 0 0-.004.005m.047.325a.377.377 0 0 1-.242-.089.3.3 0 0 1-.034-.44c.311-.36.586-.754.815-1.17a.305.305 0 0 1 .426-.124.35.35 0 0 1 .147.478 7.11 7.11 0 0 1-.85 1.224.34.34 0 0 1-.262.121" mask="url(#n)"/>
            <mask id="p" fill="#fff">
                <use xlink:href="#o"/>
            </mask>
            <path fill="#725048" d="M4.94 24.114c-.01-.624-.017-1.248-.026-1.872-.007-.565-.008-1.156.294-1.672.295-.506.927-1.246 1.387-1.658.591-.528.973-.778 1.286-1.448.1-.212.267-.477.53-.45.133.013.232.103.3.198.327.442.224 1.048-.09 1.52-.314.474-.808.844-1.288 1.207-.233.177-.645 1.095-.626 1.337a5.366 5.366 0 0 1-.684 3.028" mask="url(#p)"/>
            <mask id="r" fill="#fff">
                <use xlink:href="#q"/>
            </mask>
            <path fill="#725048" d="M10.237 19.426c-.294-.581-1.632.81-2.627.949-.713.1-1.818 1.794-2.284 2.35-.466.555-.555 1.418-.677 2.126-.284 1.646-.233 3.398-.835 4.977-.288.756-7.647 11.92-6.728 12.205.795.246 4.17.234 4.904.677.447.269.67.565 1.051.086.245-.308 4.824-11.377 5.018-11.716.238-.418.436-.757.77-1.112.826-.877 1.506-2.017 1.73-3.188.228-1.204.12-1.912-.959-2.926-.658-.62 1.044-3.624.637-4.428" mask="url(#r)"/>
            <mask id="t" fill="#fff">
                <use xlink:href="#s"/>
            </mask>
            <path fill="#62342D" d="M5.79 22.374l1.196-1.445c.104-.126-.076-.307-.181-.18l-1.196 1.444c-.104.126.077.307.182.18" mask="url(#t)"/>
            <mask id="v" fill="#fff">
                <use xlink:href="#u"/>
            </mask>
            <path fill="#62342D" d="M6.764 22.716c.59-.537 1.079-1.112 1.38-1.855.272-.674 1.077-.68 1.516-1.198.106-.125-.075-.306-.181-.18-.402.473-1.148.502-1.471 1.062-.096.165-.146.353-.228.524-.087.179-.191.349-.307.51-.255.355-.568.663-.89.957-.122.111.06.29.181.18" mask="url(#v)"/>
            <mask id="x" fill="#fff">
                <use xlink:href="#w"/>
            </mask>
            <path fill="#62342D" d="M8.18 23.2c.143-.53.316-1.053.526-1.562.197-.477.397-1.037.81-1.373.127-.104-.056-.283-.182-.18-.412.335-.613.866-.814 1.34-.236.555-.43 1.126-.587 1.708-.043.159.204.226.247.068" mask="url(#x)"/>
            <mask id="z" fill="#fff">
                <use xlink:href="#y"/>
            </mask>
            <path fill="#80615A" d="M7.454 18.155s-.123.507.247.175c.37-.333.786-1.09.71-1.316-.075-.225-.957 1.14-.957 1.14" mask="url(#z)"/>
            <mask id="B" fill="#fff">
                <use xlink:href="#A"/>
            </mask>
            <path fill="#725048" d="M29.823 24.376c.107-.642.215-.865.867-.574.657.294 1.402.415 2.013.808.61.392.954 1.19 1.282 1.83.763 1.489 1.09 3.646 2.137 4.976.502.637 11.014 8.658 10.221 9.201-.685.47-3.911 1.454-4.48 2.093-.346.389-.472.737-.978.392-.326-.221-8.008-9.44-8.294-9.708-.352-.328-.643-.593-1.068-.834-1.05-.594-1.32-2.237-1.883-3.288-.58-1.082-1.426-1.583-.699-2.87.444-.785.734-1.139.882-2.026" mask="url(#B)"/>
            <mask id="D" fill="#fff">
                <use xlink:href="#C"/>
            </mask>
            <path fill="#C2796C" d="M20.796 10.808c-.036.015-.145.06.013-.006l-.013.006" mask="url(#D)"/>
            <mask id="F" fill="#fff">
                <use xlink:href="#E"/>
            </mask>
            <path fill="#6FBBBB" d="M21.695 9.49l.01.002-.02-.022a.104.104 0 0 1 .01.02" mask="url(#F)"/>
            <mask id="H" fill="#fff">
                <use xlink:href="#G"/>
            </mask>
            <path fill="#6FBBBB" d="M21.665 9.449l.02.02a.074.074 0 0 0-.02-.02" mask="url(#H)"/>
            <g>
                <mask id="J" fill="#fff">
                    <use xlink:href="#I"/>
                </mask>
                <path fill="#141819" d="M20.11 9.494l-.006-.005.007.005z" mask="url(#J)"/>
            </g>
            <g>
                <mask id="L" fill="#fff">
                    <use xlink:href="#K"/>
                </mask>
                <path fill="#141819" d="M20.127 9.505" mask="url(#L)"/>
            </g>
            <g>
                <mask id="N" fill="#fff">
                    <use xlink:href="#M"/>
                </mask>
                <path fill="#141819" d="M20.104 9.49" mask="url(#N)"/>
            </g>
            <g>
                <mask id="P" fill="#fff">
                    <use xlink:href="#O"/>
                </mask>
                <path fill="#595959" d="M28.676 14.316c-1.05-.338-2.31-.321-3.757-.32-1.479 0-3.422-.01-4.899-.02-1.428-.008-2.944-.021-4.373-.018-1.27.004-3.422-.014-4.508.298-.968.279-1.465.905-1.625 1.383-.324.968-.027 1.95-.003 2.922.03 1.198-.02 2.308-.057 3.507-.027.891-.027 2.066.05 2.957.064.754-.06 1.318.021 2.072.059.544-.268 1.237.963 1.65.77.26 2.003.353 2.943.386 1.49.052 2.985 0 4.477.014 1.74.017 3.474-.017 5.21-.064 1.525-.042 3.393.107 4.83-.114 1.63-.251 2.091-.927 2.142-1.69.195-2.9-.176-5.824.101-8.705.077-.795-.106-1.627-.198-2.436-.076-.675.14-1.354-1.317-1.822" mask="url(#P)"/>
            </g>
            <g>
                <mask id="R" fill="#fff">
                    <use xlink:href="#Q"/>
                </mask>
                <path fill="#000" d="M26.246 14.435c-2.98 0-10.964-.03-13.346-.03-3.153.001-3.033 1.661-3.073 2.12-.015.167-.01 4.57-.005 7.764.003 1.799.006 3.215.005 3.273-.014 1.363 1.607 1.59 3.728 1.59l11.408-.002c4.769-.001 4.753-.562 4.752-1.787 0-.394.03-2.515.061-4.768.031-2.267.062-4.668.061-5.58 0-.122.011-.246.022-.37.076-.867.105-2.21-3.613-2.21" mask="url(#R)"/>
            </g>
            <g>
                <mask id="T" fill="#fff">
                    <use xlink:href="#S"/>
                </mask>
                <path fill="#FFF" d="M28.835 26.7l.011-1.579.018-2.703h-.002l.007-1.08c.003-.588.046-3.647.05-4.234.002-.306-.003-.365.001-.67.014-.84-1.165-.929-2.398-.938-1.47-.01-2.136-.016-3.605-.027l-6.453-.046c-1-.007-1.85-.016-2.849-.022-.875-.006-2.643.026-2.654.724l-.07 4.666-.026 1.5-.055 3.216c-.004.295-.008.552-.016.924-.007.313-.202 1.028 2.913 1.05 1.243.008 11.65.07 12.677.081 2.432.025 2.45-.684 2.451-.861" mask="url(#T)"/>
            </g>
            <g>
                <mask id="V" fill="#fff">
                    <use xlink:href="#U"/>
                </mask>
                <path fill="#9DAAC0" d="M13.525 27.224l-.003.004.003-.004" mask="url(#V)"/>
            </g>
            <g>
                <mask id="X" fill="#fff">
                    <use xlink:href="#W"/>
                </mask>
                <path fill="#233143" d="M10.52 21.372l.015.016-.014-.016z" mask="url(#X)"/>
            </g>
            <g>
                <mask id="Z" fill="#fff">
                    <use xlink:href="#Y"/>
                </mask>
                <path fill="#233143" d="M10.594 21.326v-.004l-.001.003h.001z" mask="url(#Z)"/>
            </g>
            <g>
                <mask id="ab" fill="#fff">
                    <use xlink:href="#aa"/>
                </mask>
                <path fill="#233143" d="M18.435 21.232v-.004l-.001.004z" mask="url(#ab)"/>
            </g>
            <g>
                <mask id="ad" fill="#fff">
                    <use xlink:href="#ac"/>
                </mask>
                <path fill="#725048" d="M10.759 22.797c-1.019.729-.83 2.261-2.29 2.62-.259.064-.65-.008-.903-.08-.305-.088-.43-.36-.62-.588.077.093-.058.677-.073.806a2.034 2.034 0 0 1-.155.624c-.169.373-.295.655-.275 1.082.037.803.382 1.766 1.118 2.187 1.09.622 1.938-.014 2.452-.997.118-.225.192-.461.248-.702.121-.523.163-1.077.316-1.589.236-.786.448-1.722.83-2.442.498-.94-.003-1.382-.648-.92" mask="url(#ad)"/>
            </g>
            <g>
                <mask id="af" fill="#fff">
                    <use xlink:href="#ae"/>
                </mask>
                <path fill="#725048" d="M27.317 25.593c1.19.395 1.745 2.19 3.246 2.101.267-.015.561.028.781-.116.265-.173.304-.47.417-.743-.046.112.257.63.31.748.09.202.187.384.335.55.273.306.478.538.587.952.204.778 1.621 2.803 1.044 3.422-.854.916-2.656.267-3.44-.52-.18-.18-.98-1.096-1.105-1.31-.272-.463-.608-1.282-.878-1.745-.611-1.052-2.016-2.354-2.414-2.851-.276-.344.363-.739 1.117-.488" mask="url(#af)"/>
            </g>
            <g>
                <mask id="ah" fill="#fff">
                    <use xlink:href="#ag"/>
                </mask>
                <path fill="#80615A" d="M26.423 25.722c.402.184.802.43 1.013.816a.508.508 0 0 1 .076.269c-.006.094-.063.19-.153.218-.094.03-.194-.019-.278-.07a3.041 3.041 0 0 1-.944-.886c-.052-.077-.102-.18-.048-.258.047-.067.144-.07.227-.066" mask="url(#ah)"/>
            </g>
            <g>
                <mask id="aj" fill="#fff">
                    <use xlink:href="#ai"/>
                </mask>
                <path fill="#80615A" d="M11.563 23.206l-.105.253c-.057.14-.117.284-.213.402a.544.544 0 0 1-.387.218c-.153.005-.314-.097-.34-.246-.021-.114.033-.226.089-.328a6.74 6.74 0 0 1 .415-.688 1.28 1.28 0 0 1 .248-.268.229.229 0 0 1 .142-.05c.113.003.2.1.225.154.046.098-.04.468-.074.553" mask="url(#aj)"/>
            </g>
            <g>
                <mask id="al" fill="#fff">
                    <use xlink:href="#ak"/>
                </mask>
                <path fill="#595959" d="M14.139 14.217h2.327c.398 0 .399-.614 0-.614H14.14c-.398 0-.399.614 0 .614" mask="url(#al)"/>
            </g>
            <g>
                <mask id="an" fill="#fff">
                    <use xlink:href="#am"/>
                </mask>
                <path fill="#595959" d="M20.052 28.726c.398 0 .398-.614 0-.614s-.398.614 0 .614" mask="url(#an)"/>
            </g>
            <g>
                <mask id="ap" fill="#fff">
                    <use xlink:href="#ao"/>
                </mask>
                <path fill="#FF7900" d="M18.199 8.425c.214.234.493.342.836.326.24-.01.453-.064.642-.161a1.565 1.565 0 0 0 .787-.89c.069-.196.098-.396.089-.603-.017-.362-.143-.65-.378-.868-.234-.217-.538-.317-.913-.3-.208.01-.401.066-.578.167-.178.102-.328.23-.451.386s-.22.331-.288.526c-.07.195-.1.385-.09.571.014.331.13.613.344.846zm3.838-.683l-.052.391c-.019.146-.027.255-.023.327.01.228.104.337.28.33a.862.862 0 0 0 .431-.16c.152-.1.293-.25.425-.448.131-.197.237-.453.316-.767.079-.315.108-.69.088-1.123-.026-.558-.15-1.046-.374-1.466a3.03 3.03 0 0 0-.91-1.045 3.943 3.943 0 0 0-1.342-.614 5.606 5.606 0 0 0-1.657-.156 4.77 4.77 0 0 0-1.764.4c-.52.237-.959.557-1.315.963a4.035 4.035 0 0 0-.802 1.411 4.846 4.846 0 0 0-.222 1.766c.032.672.172 1.269.42 1.79.25.522.585.96 1.009 1.312.423.354.92.616 1.49.786.572.17 1.19.24 1.856.208a5.432 5.432 0 0 0 1.634-.316c.498-.184.938-.429 1.32-.737l1.715-.08a5.219 5.219 0 0 1-2.001 1.825c-.81.416-1.844.653-3.102.711a5.864 5.864 0 0 1-2.276-.33 5.688 5.688 0 0 1-1.898-1.123 5.702 5.702 0 0 1-1.327-1.764 5.584 5.584 0 0 1-.557-2.218 5.582 5.582 0 0 1 .347-2.26A5.803 5.803 0 0 1 14.9 3.467a5.846 5.846 0 0 1 1.783-1.317 5.68 5.68 0 0 1 2.234-.555c.77-.036 1.508.04 2.216.223a5.956 5.956 0 0 1 1.884.845c.55.379.997.85 1.341 1.413.345.565.534 1.203.567 1.916.031.65-.071 1.244-.307 1.777-.236.534-.54.989-.913 1.363-.374.375-.79.669-1.249.881-.46.213-.897.33-1.313.348a1.018 1.018 0 0 1-.617-.15.714.714 0 0 1-.32-.49l-.062.004a1.87 1.87 0 0 1-.672.527c-.28.138-.597.215-.95.231a2.354 2.354 0 0 1-1.744-.665 2.65 2.65 0 0 1-.57-.82 2.917 2.917 0 0 1-.247-1.084 3.903 3.903 0 0 1 .164-1.327 3.67 3.67 0 0 1 .587-1.161c.26-.344.58-.623.961-.837.382-.215.811-.333 1.29-.355a2.6 2.6 0 0 1 1.095.174c.334.135.64.362.915.68l.098-.58 1.436-.066-.47 3.3z" mask="url(#ap)"/>
            </g>
            <g>
                <mask id="ar" fill="#fff">
                    <use xlink:href="#aq"/>
                </mask>
                <path fill="#50BE87" d="M12.73 16.406a.51.51 0 0 1-.511.508.51.51 0 0 1-.512-.508.51.51 0 0 1 .512-.508.51.51 0 0 1 .511.508" mask="url(#ar)"/>
            </g>
            <g>
                <mask id="at" fill="#fff">
                    <use xlink:href="#as"/>
                </mask>
                <path fill="#FFB400" d="M14.162 16.406a.51.51 0 0 1-.511.508.51.51 0 0 1-.512-.508c0-.28.23-.508.512-.508a.51.51 0 0 1 .511.508" mask="url(#at)"/>
            </g>
            <g>
                <mask id="av" fill="#fff">
                    <use xlink:href="#au"/>
                </mask>
                <path fill="#FF7900" d="M15.594 16.406a.51.51 0 0 1-.511.508.51.51 0 0 1-.512-.508.51.51 0 0 1 .512-.508.51.51 0 0 1 .511.508" mask="url(#av)"/>
            </g>
            <mask id="ax" fill="#fff">
                <use xlink:href="#aw"/>
            </mask>
            <path fill="#D6D6D6" d="M15.267 22.99h8.899V18.6h-8.9zM15.39 24.689a.23.23 0 0 1-.23-.227.23.23 0 0 1 .228-.23l8.653-.061h.002a.23.23 0 0 1 .23.227.23.23 0 0 1-.229.23l-8.653.06h-.001M15.39 26.022a.23.23 0 0 1-.23-.222.23.23 0 0 1 .223-.235l8.653-.244a.229.229 0 0 1 .013.457l-8.653.244h-.006" mask="url(#ax)"/>
            <path fill="#FFF" d="M11.778 11.615c-.212-.73-.607-1.385-1.025-2.017-.13-.198.174-.407.305-.209.434.656.848 1.343 1.069 2.102.066.227-.283.352-.349.124" mask="url(#ax)"/>
            <path fill="#FFF" d="M10.918 9.462h-.001a.055.055 0 0 0-.04.027c-.002.006-.005.01.005.026.477.722.838 1.349 1.044 2.058.002.007.004.01.005.011a.07.07 0 0 0 .04-.016c.01-.01.013-.02.008-.035-.203-.699-.566-1.329-1.05-2.06-.006-.01-.01-.011-.011-.011m1.015 2.426a.308.308 0 0 1-.302-.23c-.195-.673-.543-1.277-1.006-1.976a.32.32 0 0 1-.022-.33.36.36 0 0 1 .296-.194.317.317 0 0 1 .287.148c.432.652.862 1.363 1.088 2.143.035.12.006.24-.08.328a.367.367 0 0 1-.26.11M9.77 12.965c-.354-.62-.871-1.139-1.18-1.786-.101-.213.221-.393.323-.179.309.648.826 1.166 1.18 1.787.118.206-.205.385-.323.178" mask="url(#ax)"/>
            <path fill="#FFF" d="M8.768 11.055a.069.069 0 0 0-.037.023c-.009.012-.01.02-.002.036.166.35.394.657.635.982.187.253.38.513.54.794.008.015.013.013.018.014.015 0 .034-.01.042-.023.002-.003.003-.006-.004-.02a7.899 7.899 0 0 0-.52-.763c-.24-.323-.486-.657-.665-1.033-.004-.008-.007-.01-.007-.01m1.154 2.154h-.003a.322.322 0 0 1-.282-.169 7.942 7.942 0 0 0-.52-.763c-.24-.323-.486-.657-.665-1.033a.342.342 0 0 1 .171-.46c.17-.079.35-.015.43.151.166.35.393.657.634.982.187.252.38.514.54.794.06.106.06.224.001.325a.361.361 0 0 1-.306.173M7.264 14.594c-.182-.15.033-.45.217-.298.223.183.423.392.66.558.194.137-.022.435-.217.298-.237-.167-.436-.375-.66-.558" mask="url(#ax)"/>
            <path fill="#FFF" d="M7.362 14.477c.088.072.173.148.255.222.132.119.257.231.395.329.014.01.018.007.023.005a.054.054 0 0 0 .028-.039c0-.003 0-.007-.011-.015-.154-.109-.292-.233-.426-.353a7.125 7.125 0 0 0-.253-.22.068.068 0 0 0-.024.038c-.003.014 0 .022.013.033m.666.863a.335.335 0 0 1-.193-.064c-.154-.108-.291-.232-.424-.351-.08-.072-.162-.146-.244-.213a.342.342 0 0 1-.041-.488.313.313 0 0 1 .453-.045 7.5 7.5 0 0 1 .254.221c.132.12.257.232.396.33.1.07.15.176.14.292a.358.358 0 0 1-.206.288.323.323 0 0 1-.135.03" mask="url(#ax)"/>
            <g mask="url(#ax)">
                <g transform="translate(-.544 -3.378)">
                    <mask id="az" fill="#fff">
                        <use xlink:href="#ay"/>
                    </mask>
                    <path fill="#FF7900" d="M20.916 20.981l.718-3.08c.023-.144-.06-.277-.177-.28l-3.304-.096c-.115-.004-.207.123-.193.267l.542 3.122c.014.143-.077.27-.192.267l-.584-.017c-.162-.005-.254.234-.15.389l1.878 2.802c.07.106.199.11.277.011l2.1-2.688c.114-.147.036-.394-.127-.399l-.612-.018c-.116-.003-.2-.136-.176-.28" mask="url(#az)"/>
                </g>
            </g>
        </g>
    </g>
</svg>
