<svg xmlns="http://www.w3.org/2000/svg" xmlns:xlink="http://www.w3.org/1999/xlink" width="40" height="41" viewBox="0 0 40 41">
    <defs>
        <path id="a" d="M0 .085h39.917V40.86H0z"/>
    </defs>
    <g fill="none" fill-rule="evenodd">
        <g transform="translate(0 .055)">
            <mask id="b" fill="#fff">
                <use xlink:href="#a"/>
            </mask>
            <path fill="#FFB400" d="M39.917 20.473c0 11.26-8.936 20.388-19.958 20.388-11.023 0-19.96-9.128-19.96-20.388C0 9.213 8.937.085 19.96.085c11.022 0 19.958 9.128 19.958 20.388" mask="url(#b)"/>
        </g>
        <path fill="#8F8F8F" d="M21.737 5.874c-.936-.3-1.806.055-2.815.432-1.03.385-2.393.87-3.43 1.238-1.001.355-2.067.727-3.062 1.104-.884.336-2.396.863-2.965 1.675-.507.724-.475 1.916-.298 2.77.36 1.726 1.16 3.315 1.765 4.96.745 2.025 1.382 3.923 2.082 5.967.52 1.52 1.23 3.515 1.823 5.007.501 1.264.755 2.252 1.268 3.512.37.909.561 2.17 1.67 2.552.694.24 1.611.078 2.286-.11 1.071-.298 2.083-.775 3.133-1.137 1.225-.423 2.414-.93 3.597-1.461 1.04-.466 2.433-.697 3.3-1.446.987-.85.9-2.117.474-3.424-1.618-4.974-3.645-9.84-5.195-14.804-.427-1.37-1.058-2.734-1.61-4.083-.463-1.126-.723-2.335-2.023-2.752"/>
        <path fill="#000" d="M11.511 9.015c-.17-.028-.442-.011-.869.204a1.123 1.123 0 0 0-.385.308c.04.115.067.268.24.304.136.028.458-.038.6-.094.17-.067.296-.139.42-.26.183-.177.03-.307-.006-.462"/>
        <path fill="#000" d="M10.539 9.214c-.213.117-.321.404.03.363.446-.052.584-.381.405-.46-.08-.034-.225-.019-.435.097"/>
        <path fill="#5A5A5A" d="M20.114 6.707c-2.08.774-7.668 2.794-9.33 3.413-2.2.819-1.112 3.606-.863 4.394.09.287 2.757 7.76 4.693 13.181l1.983 5.555c.815 2.318 2.083 2.283 3.563 1.732l7.959-2.964c3.327-1.239 2.977-2.186 2.235-4.265-.239-.67-1.5-4.277-2.841-8.11-1.35-3.856-2.78-7.94-3.332-9.487a18.325 18.325 0 0 1-.209-.634c-.471-1.492-1.264-3.78-3.858-2.815"/>
        <path fill="#000" d="M17.895 8.16c-.475.185-.702.302-1.063.422-.35.117-1.307.485-2.043.766-.17.064-1.926.556-1.164.886.219.095.597-.122.804-.187.517-.162 1.208-.438 1.824-.665.68-.25 1.051-.389 1.856-.69.679-.255.326-.742-.214-.532"/>
        <path fill="#5A5A5A" d="M19.618 31.64c-.69.34-1.29.533-2.081.547l-.754-.108c-.086 1.085.637 2.346 1.599 2.838.811.415 1.867-.014 2.625-.398.85-.431 1.772-.81 1.572-1.783-.126-.615-.022-1.48-.255-2.063-.031-.079-2.479.856-2.706.968"/>
        <path fill="#FFF" d="M29.34 26.857l-.948-2.685-1.623-4.594h-.001l-.649-1.834c-.353-.998-2.173-6.201-2.526-7.2-.183-.519-.223-.618-.404-1.138-.499-1.43-1.375-1.274-2.24-.969-1.032.364-1.5.526-2.532.889-1.51.531-3.021 1.063-4.531 1.596-.702.247-1.3.453-2.002.701-.613.217-1.827.731-1.413 1.918l2.772 7.938.89 2.555 1.907 5.473.548 1.573c.184.533.48 1.796 2.667 1.025.873-.307 8.172-2.902 8.895-3.15 1.712-.59 1.296-1.798 1.19-2.098"/>
        <path fill="#F3E0D7" d="M22.068 15.843l.019-.006a.378.378 0 0 1-.034.008c.005 0 .01 0 .015-.002"/>
        <path fill="#9DAAC0" d="M21.69 29.568l-.002.007.002-.007"/>
        <path fill="#233143" d="M14.292 22.524l.029.015-.03-.015zM14.373 22.416l-.002-.006v.006h.002zM16.906 18.747l.003-.011zM16.882 21.63l-.002-.005v.006zM22.936 18.758l.028.018a.508.508 0 0 1-.028-.018zM25.59 18.089l-.001-.007v.007h.001z"/>
        <path fill="#000" d="M25.57 31.021c-.34.043-.749.186-1.038.27-.266.077-.98.36-1.528.577-.23.09-1.653.538-.837 1.017.195.114.543.003.728-.043.396-.097.907-.319 1.37-.487.508-.184.786-.29 1.387-.517.509-.192.647-.91-.082-.817"/>
        <path fill="#FFF" d="M4.568 11.688l1.6.811c.461.234.868-.473.405-.708-.533-.27-1.067-.54-1.6-.812-.461-.234-.868.473-.405.709M3.88 16.741l2.002.383c.505.096.721-.694.213-.791l-2.002-.383c-.505-.096-.721.694-.213.791M4.39 21.771l1.994-.161c.512-.042.516-.862 0-.82l-1.995.161c-.512.042-.516.862 0 .82M7.705 7.23l.94 1.218c.135.174.427.143.568 0 .168-.172.135-.406 0-.58l-.94-1.217c-.135-.175-.428-.144-.568 0-.169.171-.135.405 0 .58M13.465 5.28l.264.682c.08.206.268.35.494.286.191-.053.36-.297.28-.504l-.264-.681c-.08-.206-.268-.35-.494-.286-.191.053-.36.297-.28.504M32.375 27.236l1.86.173c.515.048.512-.773 0-.82l-1.86-.173c-.515-.048-.511.772 0 .82M32.441 32.23l1.06.555c.458.241.865-.466.405-.708l-1.06-.555c-.458-.241-.865.466-.405.708"/>
        <path fill="#FFB400" d="M19.547 17.503l1.197 3.686c.226.694.41 1.884-1.157 2.393-.875.285-1.888.072-2.27-1.104l-.152-.468 1.045-.339.078.241c.169.52.416.857.96.68.611-.198.447-.703.325-1.08l-1.181-3.634 1.155-.375zm2.764 5.053l-1.75-5.383 1.155-.375 1.75 5.382-1.155.376z"/>
    </g>
</svg>
