<svg xmlns="http://www.w3.org/2000/svg" xmlns:xlink="http://www.w3.org/1999/xlink" width="40" height="42" viewBox="0 0 40 42">
    <defs>
        <path id="a" d="M0 .087h39.917v41.77H0z"/>
    </defs>
    <g fill="none" fill-rule="evenodd">
        <g transform="translate(0 .056)">
            <mask id="b" fill="#fff">
                <use xlink:href="#a"/>
            </mask>
            <path fill="#50BE87" d="M39.917 20.972c0 11.535-8.936 20.885-19.958 20.885-11.023 0-19.96-9.35-19.96-20.885C0 9.437 8.937.087 19.96.087c11.022 0 19.958 9.35 19.958 20.885" mask="url(#b)"/>
        </g>
        <path fill="#8F8F8F" d="M21.737 6.018c-.936-.308-1.806.055-2.815.442-1.03.394-2.393.891-3.43 1.268-1.001.364-2.067.745-3.062 1.13-.884.345-2.396.885-2.965 1.717-.507.742-.475 1.962-.298 2.837.36 1.769 1.16 3.396 1.765 5.08.745 2.076 1.382 4.02 2.082 6.114.52 1.557 1.23 3.6 1.823 5.13.501 1.294.755 2.306 1.268 3.596.37.932.561 2.223 1.67 2.615.694.245 1.611.08 2.286-.113 1.071-.305 2.083-.794 3.133-1.165 1.225-.432 2.414-.952 3.597-1.496 1.04-.478 2.433-.714 3.3-1.48.987-.871.9-2.17.474-3.509-1.618-5.096-3.645-10.08-5.195-15.165-.427-1.403-1.058-2.801-1.61-4.183-.463-1.153-.723-2.392-2.023-2.819"/>
        <path fill="#000" d="M11.511 9.235c-.17-.029-.442-.011-.869.209a1.128 1.128 0 0 0-.385.315c.04.118.067.274.24.312.136.029.458-.04.6-.096.17-.07.296-.142.42-.267.183-.182.03-.314-.006-.473"/>
        <path fill="#000" d="M10.539 9.439c-.213.12-.321.414.03.372.446-.053.584-.391.405-.471-.08-.036-.225-.02-.435.099"/>
        <path fill="#5A5A5A" d="M20.114 6.87c-2.08.794-7.668 2.862-9.33 3.496-2.2.84-1.112 3.694-.863 4.502.09.294 2.757 7.95 4.693 13.502l1.983 5.691c.815 2.374 2.083 2.339 3.563 1.774l7.959-3.036c3.327-1.269 2.977-2.24 2.235-4.369-.239-.686-1.5-4.381-2.841-8.308-1.35-3.95-2.78-8.133-3.332-9.719a19.097 19.097 0 0 1-.209-.649c-.471-1.529-1.264-3.873-3.858-2.883"/>
        <path fill="#000" d="M17.895 8.359c-.475.19-.702.309-1.063.433-.35.12-1.307.496-2.043.784-.17.066-1.926.57-1.164.908.219.097.597-.126.804-.192.517-.166 1.208-.449 1.824-.681.68-.256 1.051-.399 1.856-.707.679-.261.326-.76-.214-.545"/>
        <path fill="#5A5A5A" d="M19.618 32.413c-.69.346-1.29.545-2.081.56l-.754-.111c-.086 1.11.637 2.403 1.599 2.907.811.424 1.867-.014 2.625-.408.85-.442 1.772-.83 1.572-1.826-.126-.63-.022-1.517-.255-2.114-.031-.08-2.479.877-2.706.992"/>
        <path fill="#FFF" d="M29.34 27.512l-.948-2.75c-.54-1.569-1.082-3.138-1.623-4.706h-.001l-.649-1.88c-.353-1.022-2.173-6.352-2.526-7.375-.183-.531-.223-.633-.404-1.166-.499-1.465-1.375-1.305-2.24-.992-1.032.373-1.5.539-2.532.91l-4.531 1.635c-.702.254-1.3.464-2.002.719-.613.222-1.827.749-1.413 1.964l2.772 8.132.89 2.617 1.907 5.607c.175.512.328.961.548 1.611.184.546.48 1.84 2.667 1.05.873-.315 8.172-2.972 8.895-3.227 1.712-.604 1.296-1.841 1.19-2.15"/>
        <path fill="#F3E0D7" d="M22.068 16.23l.019-.006a.37.37 0 0 1-.034.008l.015-.003"/>
        <path fill="#9DAAC0" d="M21.69 30.289l-.002.007.002-.007"/>
        <path fill="#233143" d="M14.292 23.074l.029.015-.03-.016zM14.373 22.963l-.002-.006v.006h.002zM16.906 19.204l.003-.011zM16.882 22.158l-.002-.006v.006zM22.936 19.216l.028.018a.506.506 0 0 1-.028-.019zM25.59 18.53l-.001-.007v.007h.001z"/>
        <path fill="#000" d="M25.57 31.778c-.34.044-.749.19-1.038.276-.266.079-.98.37-1.528.591-.23.093-1.653.552-.837 1.042.195.117.543.003.728-.044.396-.1.907-.326 1.37-.498.508-.19.786-.297 1.387-.53.509-.197.647-.932-.082-.837"/>
        <path fill="#FFF" d="M4.568 11.973l1.6.831c.461.24.868-.484.405-.725l-1.6-.832c-.461-.24-.868.485-.405.726M3.88 17.15l2.002.391c.505.1.721-.71.213-.81-.667-.13-1.334-.26-2.002-.392-.505-.098-.721.711-.213.81M4.39 22.302l1.994-.165c.512-.043.516-.883 0-.84l-1.995.165c-.512.043-.516.883 0 .84M7.705 7.407l.94 1.247c.135.178.427.147.568 0 .168-.176.135-.416 0-.594l-.94-1.247c-.135-.179-.428-.147-.568 0-.169.176-.135.415 0 .594M13.465 5.41l.264.697c.08.211.268.359.494.294.191-.055.36-.305.28-.517l-.264-.698c-.08-.21-.268-.358-.494-.293-.191.055-.36.305-.28.517M32.375 27.9l1.86.177c.515.05.512-.791 0-.84l-1.86-.177c-.515-.05-.511.791 0 .84M32.441 33.016l1.06.569c.458.247.865-.478.405-.725l-1.06-.57c-.458-.246-.865.478-.405.726"/>
        <path fill="#50BE87" d="M16.167 25.208l-1.792-5.514 1.148-.373 3.393 2.987.015-.005-1.202-3.699 1.081-.351 1.792 5.514-1.155.375-3.384-2.982-.014.005 1.199 3.692-1.081.35zm4.524-3.494l1.118-.363c.238.734.876.843 1.493.642.405-.132.983-.456.8-1.02-.194-.594-1.013-.439-1.856-.404-.85.037-1.74-.024-2.076-1.059-.366-1.127.473-1.998 1.422-2.306 1.096-.356 2.266-.182 2.68 1.093l-1.118.363c-.252-.652-.756-.676-1.308-.497-.367.12-.741.42-.59.883.137.425.405.398 1.837.326.415-.024 1.675-.152 2.081 1.1.329 1.01-.183 2.014-1.61 2.477-1.162.378-2.446.13-2.873-1.235z"/>
    </g>
</svg>
