<svg xmlns="http://www.w3.org/2000/svg" width="150" height="150" viewBox="0 0 150 150">
    <g fill="none" fill-rule="evenodd">
        <path fill="#FEFEFE" d="M78.07 22.853a25.667 25.667 0 0 0-.578-3.317C74.746 8.644 66.668 1.872 56.417 1.872c-3.38 0-6.837.748-10.294 2.219-7.055 2.99-12.174 8.535-14.02 15.19-1.723 6.158-.547 12.545 3.278 18.032-13.754 11.487-22.51 28.762-22.51 48.08 0 34.577 28.024 62.596 62.594 62.596 34.575 0 62.589-28.019 62.589-62.596 0-33.697-26.625-61.18-59.983-62.54"/>
        <path stroke="#FEFEFE" stroke-width="1.547" d="M78.07 22.853a25.667 25.667 0 0 0-.578-3.317C74.746 8.644 66.668 1.872 56.417 1.872c-3.38 0-6.837.748-10.294 2.219-7.055 2.99-12.174 8.535-14.02 15.19-1.723 6.158-.547 12.545 3.278 18.032-13.754 11.487-22.51 28.762-22.51 48.08 0 34.577 28.024 62.596 62.594 62.596 34.575 0 62.589-28.019 62.589-62.596 0-33.697-26.625-61.18-59.983-62.54z"/>
        <path fill="#009F52" d="M81.882 27.283a41.182 41.182 0 0 1-1.496 6.79c25.631 2.652 45.94 24.61 45.94 50.88 0 28.052-23.123 51.174-51.148 51.174-28.05 0-51.175-23.122-51.175-51.174 0-15.278 6.905-29.074 17.705-38.485-1.964-1.306-3.864-2.72-5.613-4.408C24.427 52.686 17.07 67.942 17.07 84.953c0 32.1 26.01 58.105 58.109 58.105 32.07 0 58.095-26.005 58.095-58.105 0-29.8-22.478-54.344-51.391-57.67"/>
        <path fill="#025EA8" d="M73.145 20.63c-3.049-12.102-13.6-17.393-25.27-12.426C36.2 13.166 32.32 25.468 39.263 35.049c6.752 9.321 17.86 10.63 27.101 16.59 1.59-11.352 9.518-19.927 6.78-31.01"/>
        <path stroke="#FEFEFE" stroke-width="3.966" d="M73.145 20.63c-3.049-12.102-13.6-17.393-25.27-12.426C36.2 13.166 32.32 25.468 39.263 35.049c6.752 9.321 17.86 10.63 27.101 16.59 1.59-11.352 9.518-19.927 6.78-31.01"/>
        <path fill="#025EA8" d="M73.145 20.63c-3.049-12.102-13.6-17.393-25.27-12.426C36.2 13.166 32.32 25.468 39.263 35.049c6.752 9.321 17.86 10.63 27.101 16.59 1.59-11.352 9.518-19.927 6.78-31.01"/>
        <path fill="#EE832C" d="M96.816 89.905c-.034.072-.126.125-.235.152a.899.899 0 0 1-.302.073 7.738 7.738 0 0 1-.857.13 3.72 3.72 0 0 0-.786.182c-.247.068-.44.17-.593.32-.162.135-.234.335-.234.597 0 .17.036.31.106.442.058.121.138.223.25.325.11.084.232.157.384.21.133.044.288.065.445.065.245 0 .477-.026.707-.118.22-.06.41-.167.595-.312a1.6 1.6 0 0 0 .394-.53c.092-.196.155-.443.155-.697v-.84h-.029zm-3.223-1.583c.09-.23.252-.41.436-.558.186-.134.411-.242.653-.315.261-.065.547-.102.854-.102.232 0 .465.015.697.068.23.044.443.133.622.24.181.133.343.307.445.527.12.218.184.51.184.866v2.814c0 .264.118.392.384.392a.5.5 0 0 0 .206-.044v.547a3.692 3.692 0 0 1-.206.032c-.043.012-.135.012-.227.012a.812.812 0 0 1-.38-.075.425.425 0 0 1-.235-.177.85.85 0 0 1-.118-.295c-.007-.109-.017-.252-.017-.38h-.027c-.118.172-.227.32-.348.457a2.044 2.044 0 0 1-.404.339 1.726 1.726 0 0 1-.506.2 2.625 2.625 0 0 1-.663.078 2.95 2.95 0 0 1-.704-.09 1.829 1.829 0 0 1-.566-.282 1.506 1.506 0 0 1-.375-.477 1.585 1.585 0 0 1-.138-.692c0-.37.08-.663.25-.861.16-.22.38-.382.653-.489.276-.111.58-.191.91-.23.343-.036.68-.092 1.032-.13.148-.017.257-.025.366-.054a.476.476 0 0 0 .244-.108.452.452 0 0 0 .167-.201 1.212 1.212 0 0 0-.046-.888.782.782 0 0 0-.312-.339 1.11 1.11 0 0 0-.433-.167 2.316 2.316 0 0 0-.535-.053c-.418 0-.755.111-1.011.295-.254.2-.402.51-.402.948h-.646c.013-.312.088-.583.196-.808zM98.902 87.504l1.662 4.645h.015l1.655-4.645h.667l-1.993 5.296h-.68l-2.052-5.296zM107.207 89.068a1.682 1.682 0 0 0-.336-.588 1.493 1.493 0 0 0-.518-.435 1.575 1.575 0 0 0-.695-.155c-.27 0-.503.056-.706.155a1.372 1.372 0 0 0-.518.435c-.15.162-.276.373-.358.588a3.693 3.693 0 0 0-.167.724h3.43a2.38 2.38 0 0 0-.132-.724m-3.201 1.977c.068.252.17.486.32.677.14.204.321.358.532.489.232.128.481.191.8.191.48 0 .84-.118 1.104-.375.273-.237.455-.564.556-.975h.641c-.13.605-.382 1.065-.752 1.396-.365.324-.88.501-1.549.501-.416 0-.786-.094-1.093-.22a2.272 2.272 0 0 1-.74-.612 2.486 2.486 0 0 1-.419-.888 4.028 4.028 0 0 1 0-2.103c.087-.338.223-.638.419-.904.2-.262.447-.48.74-.63.307-.171.677-.244 1.093-.244.419 0 .787.087 1.096.259.298.165.535.394.724.663.186.278.326.61.406.958.075.356.116.73.104 1.1h-4.079c0 .23.03.465.097.717M112.095 88.222c-.244-.22-.57-.336-1.006-.336-.305 0-.571.078-.799.194-.237.123-.433.31-.588.515a2.29 2.29 0 0 0-.348.726c-.08.273-.114.547-.114.84 0 .273.034.551.114.807.073.279.194.52.348.731.155.218.351.382.588.51.228.129.494.194.799.194.2 0 .399-.031.573-.118.177-.06.33-.172.472-.296.128-.137.242-.295.334-.486.09-.186.152-.387.172-.61h.65c-.094.656-.336 1.15-.718 1.51-.392.358-.871.547-1.483.547-.395 0-.753-.092-1.07-.225a2.107 2.107 0 0 1-.779-.612 2.362 2.362 0 0 1-.486-.869c-.111-.35-.17-.699-.17-1.084 0-.384.059-.75.17-1.096.106-.338.273-.629.486-.892a2.47 2.47 0 0 1 .78-.605 2.544 2.544 0 0 1 1.069-.218c.573 0 1.047.157 1.451.45.387.303.634.762.7 1.355h-.644c-.094-.392-.256-.7-.5-.931M38.057 105.803c.23.854.59 1.619 1.074 2.3a5.503 5.503 0 0 0 1.877 1.65c.765.417 1.674.62 2.744.62 1.05 0 1.952-.203 2.722-.62a5.497 5.497 0 0 0 1.882-1.65 6.988 6.988 0 0 0 1.067-2.3c.227-.856.346-1.723.346-2.6s-.119-1.743-.346-2.602a6.966 6.966 0 0 0-1.067-2.3 5.379 5.379 0 0 0-1.882-1.643c-.77-.426-1.672-.627-2.722-.627-1.07 0-1.98.201-2.744.627a5.384 5.384 0 0 0-1.877 1.643 7.128 7.128 0 0 0-1.074 2.3 9.707 9.707 0 0 0-.34 2.601c0 .878.103 1.745.34 2.601m-2.134-6.022a8.605 8.605 0 0 1 1.572-2.922 7.656 7.656 0 0 1 2.616-2.025c1.038-.506 2.247-.76 3.64-.76 1.373 0 2.582.254 3.625.76 1.038.503 1.916 1.178 2.61 2.025.707.844 1.227 1.817 1.575 2.922a11 11 0 0 1 .53 3.421c0 1.19-.176 2.33-.53 3.426a8.49 8.49 0 0 1-1.575 2.923 7.564 7.564 0 0 1-2.61 2.008c-1.043.498-2.252.742-3.624.742-1.394 0-2.603-.244-3.641-.742a7.583 7.583 0 0 1-2.616-2.008 8.65 8.65 0 0 1-1.572-2.923 11.23 11.23 0 0 1-.525-3.426c0-1.193.176-2.334.525-3.42M56.46 99.299v2.663h.045c.501-1.026 1.118-1.785 1.849-2.276.733-.487 1.662-.716 2.782-.687v2.196c-.83 0-1.536.119-2.127.346-.585.23-1.054.562-1.41 1.01-.35.43-.617.964-.784 1.596-.162.627-.242 1.345-.242 2.158v5.606h-2.068V99.299h1.954zM69.48 105.822c-.428.097-.866.167-1.326.225-.46.05-.934.118-1.408.189-.464.072-.89.19-1.27.36-.373.16-.673.39-.917.692-.227.305-.346.711-.346 1.231 0 .344.07.63.208.871.13.235.322.421.532.574.223.143.48.249.78.307.309.075.609.1.916.1.69 0 1.268-.09 1.757-.274.488-.191.892-.426 1.195-.707.307-.287.535-.595.682-.924.148-.336.223-.655.223-.946v-2.126c-.262.193-.608.338-1.026.428m2.9 6.36c-.532 0-.96-.152-1.277-.454-.317-.296-.476-.792-.476-1.476-.576.684-1.227 1.18-1.984 1.476a6.572 6.572 0 0 1-2.453.454c-.574 0-1.108-.06-1.612-.176a3.995 3.995 0 0 1-1.335-.61 3.178 3.178 0 0 1-.895-1.103c-.223-.448-.334-.995-.334-1.624 0-.713.126-1.299.365-1.758a3.19 3.19 0 0 1 .97-1.109c.39-.283.854-.5 1.358-.653.522-.142 1.04-.263 1.58-.363a17.105 17.105 0 0 1 1.625-.251c.51-.063.956-.136 1.353-.254.384-.102.692-.25.921-.458.23-.208.341-.495.341-.89 0-.455-.08-.818-.251-1.096a1.872 1.872 0 0 0-.658-.641 2.696 2.696 0 0 0-.907-.288 6.508 6.508 0 0 0-.99-.072c-.88 0-1.606.164-2.194.5-.586.325-.903.96-.949 1.89h-2.076c.037-.782.196-1.442.494-1.974.29-.535.68-.975 1.171-1.304.484-.339 1.043-.576 1.684-.726a9.477 9.477 0 0 1 1.993-.22c.579 0 1.138.046 1.701.126.552.087 1.07.249 1.524.498.446.25.816.61 1.094 1.064.273.453.414 1.05.414 1.781v6.486c0 .491.034.852.082 1.077.063.23.25.336.578.336.182 0 .39-.038.636-.118v1.611c-.365.21-.856.32-1.492.32M77.75 99.299v2.003h.048c.859-1.532 2.23-2.303 4.098-2.303.835 0 1.52.12 2.073.346.552.232 1 .544 1.343.955.349.409.588.888.716 1.461.145.552.206 1.169.206 1.856v8.294h-2.066v-8.536c0-.786-.23-1.405-.685-1.855-.455-.458-1.079-.683-1.877-.683-.632 0-1.183.1-1.648.288-.46.199-.849.472-1.151.837-.317.351-.555.767-.704 1.253a5.222 5.222 0 0 0-.225 1.573v7.123h-2.079V99.299h1.95zM96.176 109.805c.486-.29.868-.663 1.166-1.117.292-.472.508-.995.65-1.585.138-.58.209-1.171.209-1.752 0-.554-.07-1.1-.206-1.638a4.52 4.52 0 0 0-.615-1.449 3.176 3.176 0 0 0-1.11-1.038c-.455-.261-1.007-.39-1.662-.39-.668 0-1.241.124-1.706.378-.47.254-.856.586-1.168 1.019-.293.416-.513.91-.656 1.459a7.562 7.562 0 0 0-.203 1.73c0 .57.06 1.139.176 1.712.11.566.298 1.082.583 1.554.276.454.64.827 1.099 1.117.45.283 1.023.424 1.708.424.677 0 1.265-.14 1.735-.424m2.649 5.664c-.939 1.028-2.42 1.541-4.435 1.541a8.318 8.318 0 0 1-1.79-.198 5.675 5.675 0 0 1-1.662-.627 3.9 3.9 0 0 1-1.23-1.147c-.321-.469-.505-1.05-.539-1.734h2.071c.02.375.136.684.353.95.213.262.501.467.808.637.315.16.663.278 1.036.358.37.065.735.101 1.07.101.694 0 1.267-.11 1.741-.353a3.37 3.37 0 0 0 1.164-.967c.307-.421.535-.917.672-1.505.143-.588.21-1.23.21-1.933v-.83h-.05c-.358.786-.9 1.36-1.628 1.727a5.073 5.073 0 0 1-2.3.545c-.95 0-1.762-.17-2.466-.513a5.103 5.103 0 0 1-1.754-1.382 5.996 5.996 0 0 1-1.065-2.02 8.412 8.412 0 0 1-.35-2.453c0-.75.101-1.517.285-2.306.203-.791.53-1.502.99-2.146a5.197 5.197 0 0 1 1.8-1.587c.747-.414 1.664-.627 2.75-.627.803 0 1.539.175 2.204.53.67.346 1.19.874 1.563 1.566h.022V99.3h1.945v11.54c0 2.062-.462 3.608-1.415 4.629M111.795 103.003a3.482 3.482 0 0 0-.755-1.127c-.317-.327-.696-.566-1.117-.765a3.786 3.786 0 0 0-1.433-.275c-.532 0-1.013.099-1.449.275-.43.199-.806.446-1.11.772a3.585 3.585 0 0 0-.738 1.14 4.255 4.255 0 0 0-.308 1.379h7.246a4.674 4.674 0 0 0-.336-1.399m.501 8.105c-.944.716-2.124 1.074-3.556 1.074-1.012 0-1.895-.164-2.625-.49a5.191 5.191 0 0 1-1.87-1.365c-.504-.583-.876-1.287-1.135-2.093-.254-.818-.392-1.703-.426-2.664 0-.955.152-1.838.443-2.637a6.173 6.173 0 0 1 1.226-2.078 5.816 5.816 0 0 1 1.878-1.36 5.79 5.79 0 0 1 2.38-.493c1.118 0 2.057.234 2.8.694.737.472 1.333 1.055 1.773 1.773.457.717.755 1.49.929 2.342.177.847.247 1.658.215 2.417h-9.443a4.704 4.704 0 0 0 .194 1.575c.143.494.38.937.704 1.312.32.384.738.694 1.244.921.505.228 1.096.337 1.78.337.88 0 1.597-.199 2.163-.61.559-.404.927-1.016 1.099-1.856h2.058c-.278 1.416-.88 2.487-1.831 3.201"/>
        <path fill="#025EA8" d="M106.64 71.748s2.799-.266 5.392.537c.073 0 .879-2.732.879-2.732h-6.271V63.95s3.934-.404 5.797.733c.549-.931 1.134-2.402 1.134-2.402H103.37l.464.733V74.14c.98.18 1.916.368 2.807.567v-2.96zM100.433 62.741l.462-.54h-3.534l.541.596v10.442c.869.106 1.709.225 2.531.343v-10.84zM88.764 67.469l3.861 5.19c1.307.11 2.586.254 3.825.396l-8.158-10.65H85.22l1.071 1.404v8.387c.837.049 1.674.107 2.497.165l-.024-4.892zM77.953 63.004c.067-.063 1.13 0 1.13 0s-1.329-1.392-1.733-3.075h-2.27s.736 2.204 2.873 3.075M61.199 71.015V64.01h1.67c1.736 0 3.205 1.32 3.205 3.47 0 1.664-1.672 3.464-3.68 3.464-.46 0-1.195.072-1.195.072m3.673 1c1.599-.673 4.139-1.999 4.139-5.207 0-2.656-2.54-4.406-5.54-4.406h-5.408l.407.605v9.552c2.088-.174 4.27-.322 6.513-.43-.07-.073-.104-.114-.111-.114M55.533 63.004l.465-.6H52.26l.409.6v10.144c.931-.114 1.914-.218 2.908-.32l-.044-9.824zM81.672 72.003c-.213.67-.421 1.352-.453 1.352-2.596-.813-5.402-.535-5.402-.535v5.667s3.873.404 7.398-.871l-.994 2.465h-9.745l.54-.598v-7.577c.328-.006.655-.01.983-.012l-.982.002V64.61l-.472-.73h10.208s-.603 1.454-1.13 2.392c-1.742-1.19-5.807-.725-5.807-.725v5.06h6.264s-.198.703-.406 1.397h-.002zM39.19 71.48h.603l2.79 3.371c.922-.203 1.88-.4 2.881-.593l-3.547-3.977 7.604-8.018H45.46l.395.537-6.204 7.07-.534.007V63.01l.474-.605h-3.743l.402.605v13.744a29.97 29.97 0 0 1 2.942-1.014v-4.26z"/>
        <path fill="#025EA8" d="M42.583 74.85l3.809 4.572v.801h4.403l-5.333-5.961M35.919 80.222h3.672l-.411-.607V75.74a30.378 30.378 0 0 0-2.93 1.012v2.864l-.331.607zM98.106 80.02l2.729-.061-.4-.677v-5.698c-.824-.119-1.664-.24-2.53-.346v1.708l-1.456-1.892c-1.237-.143-2.519-.28-3.825-.394l5.482 7.36zM103.304 80.08h9.742l1-2.464c-3.535 1.275-7.406.87-7.406.87v-3.783c-.89-.199-1.827-.38-2.806-.562v5.342l-.53.598zM85.957 80.222h3.269l-.397-.607-.041-7.258c-.82-.063-1.66-.111-2.497-.16v7.418l-.334.607zM58.132 80.222h3.666l-.39-.607V72.42h.462s1.846 2.298 3.82 4.459a76.796 76.796 0 0 0 3.516 3.542h2.397s-5.777-7.292-6.62-8.296c-2.244.111-4.424.264-6.512.433v7.057l-.339.607zM52.327 80.222H56l-.395-.607-.029-6.789c-.992.102-1.974.201-2.905.325v6.464l-.344.607z"/>
    </g>
</svg>
