<svg xmlns="http://www.w3.org/2000/svg" xmlns:xlink="http://www.w3.org/1999/xlink" width="130" height="160" viewBox="0 0 130 160">
    <defs>
        <linearGradient id="prefix__a" x1="50%" x2="50%" y1="0%" y2="100%">
            <stop offset="0%" stop-color="#D3B4FF"/>
            <stop offset="100%" stop-color="#A885D8"/>
        </linearGradient>
        <path id="prefix__b" d="M98.395 30.218c10.602 11.07 22.608 16.782 27.99 26.27 5.383 9.455 4.144 22.687.262 35.306-3.85 12.586-10.31 24.527-20.292 37.403-9.983 12.877-23.489 26.657-39.083 29.53-15.594 2.872-33.276-5.164-40.78-18.848-7.502-13.683-4.795-32.95-9.818-49.473C11.682 73.915-1.041 60.166.068 49.065c1.11-11.102 16.05-19.622 29.883-29.626C43.816 9.434 56.604-2.12 67.598.333c10.994 2.42 20.194 18.848 30.797 29.885"/>
    </defs>
    <g fill="none" fill-rule="evenodd">
        <use fill="url(#prefix__a)" xlink:href="#prefix__b"/>
        <use fill="#EEE" xlink:href="#prefix__b"/>
        <g fill-rule="nonzero">
            <path fill="#FF7900" d="M49.326 67.395c5.786 0 11.118-1.405 15.996-4.216 4.877-2.81 8.721-6.654 11.532-11.532 2.81-4.877 4.216-10.21 4.216-15.996 0-5.787-1.406-11.119-4.216-15.996-2.81-4.877-6.655-8.721-11.532-11.532-4.878-2.81-10.21-4.216-15.996-4.216-5.787 0-11.12 1.405-15.997 4.216-4.877 2.81-8.72 6.655-11.532 11.532-2.81 4.877-4.216 10.21-4.216 15.996 0 5.787 1.406 11.119 4.216 15.996 2.811 4.878 6.655 8.722 11.532 11.532 4.878 2.811 10.21 4.216 15.997 4.216z" transform="rotate(10 -35.522 191.016)"/>
            <path stroke="#000" d="M45.419 63.488c5.786 0 11.118-1.405 15.996-4.216 4.877-2.81 8.721-6.654 11.532-11.532 2.81-4.877 4.216-10.21 4.216-15.996 0-5.787-1.406-11.119-4.216-15.996-2.81-4.877-6.655-8.721-11.532-11.532C56.537 1.406 51.205 0 45.419 0c-5.787 0-11.12 1.405-15.996 4.216-4.878 2.81-8.722 6.655-11.533 11.532-2.81 4.877-4.216 10.21-4.216 15.996 0 5.787 1.406 11.119 4.216 15.996 2.811 4.878 6.655 8.722 11.533 11.532 4.877 2.811 10.209 4.216 15.996 4.216z" transform="rotate(10 -35.522 191.016)"/>
            <path fill="#FFF" d="M30.617 71.302c4.731 2.605 9.665 3.907 14.802 3.907 5.136 0 10.07-1.302 14.801-3.907h3.447c4.866 0 9.395 1.465 13.585 4.396 4.19 2.93 7.502 6.918 9.936 11.965 2.433 5.046 3.65 10.5 3.65 16.36v10.256c0 3.256-.947 6.023-2.84 8.302-1.892 2.28-4.19 3.419-6.893 3.419H9.733c-2.704 0-5.002-1.14-6.894-3.419C.946 120.302 0 117.535 0 114.28v-10.256c0-5.86 1.217-11.314 3.65-16.36 2.433-5.047 5.745-9.035 9.935-11.965 4.19-2.93 8.719-4.396 13.585-4.396zm14.216 16.352c-1.297 0-2.484.329-3.563.985-1.078.656-1.937 1.531-2.578 2.625-.587 1.002-.905 2.084-.954 3.244l-.007.318v4.828h-1.125c-.625 0-1.156.22-1.593.657-.39.389-.605.852-.648 1.389l-.009.204v7.5c0 .625.22 1.157.657 1.594.389.389.852.605 1.389.648l.204.008h16.5c.625 0 1.157-.218 1.594-.656.389-.389.605-.852.648-1.389l.008-.205v-7.5c0-.625-.218-1.156-.656-1.593-.389-.39-.852-.605-1.389-.648l-.205-.009H41.481v-4.828c0-.937.329-1.742.985-2.414.656-.672 1.445-1.008 2.367-1.008.922 0 1.719.329 2.39.985.616.601.95 1.321 1.001 2.159l.007.231v.75c0 .313.11.579.329.797.187.188.409.295.665.322l.131.006h1.5c.313 0 .579-.109.797-.328.188-.187.295-.41.322-.665l.006-.132v-.75c0-1.28-.32-2.468-.96-3.562-.641-1.094-1.508-1.961-2.602-2.602-1.094-.64-2.29-.96-3.586-.96z" transform="rotate(10 -35.522 191.016)"/>
            <path fill="#FF7900" d="M55.016 113.579c.625 0 1.157-.22 1.594-.657.437-.437.656-.968.656-1.593v-7.5c0-.625-.219-1.157-.656-1.594-.437-.438-.969-.656-1.594-.656H43.391V96.75c0-.937.328-1.742.985-2.414.656-.671 1.445-1.007 2.367-1.007.922 0 1.719.328 2.39.984.672.656 1.008 1.453 1.008 2.39v.75c0 .313.11.579.328.797.22.22.485.329.797.329h1.5c.313 0 .578-.11.797-.329.219-.218.328-.484.328-.796v-.75c0-1.282-.32-2.47-.96-3.563-.641-1.094-1.508-1.96-2.602-2.601-1.094-.641-2.29-.961-3.586-.961-1.297 0-2.485.328-3.563.984-1.078.656-1.937 1.531-2.578 2.625-.64 1.094-.96 2.281-.96 3.562v4.829h-1.126c-.625 0-1.156.218-1.593.656-.438.437-.657.969-.657 1.594v7.5c0 .625.22 1.156.657 1.593.437.438.968.657 1.593.657h16.5z" transform="rotate(10 -35.522 191.016)"/>
            <path stroke="#000" d="M30.617 71.302c4.731 2.605 9.665 3.907 14.802 3.907 5.136 0 10.07-1.302 14.801-3.907h3.447c4.866 0 9.395 1.465 13.585 4.396 4.19 2.93 7.502 6.918 9.936 11.965 2.433 5.046 3.65 10.5 3.65 16.36h0v10.256c0 3.256-.947 6.023-2.84 8.302-1.892 2.28-4.19 3.419-6.893 3.419h0H9.733c-2.704 0-5.002-1.14-6.894-3.419C.946 120.302 0 117.535 0 114.28h0v-10.256c0-5.86 1.217-11.314 3.65-16.36 2.433-5.047 5.745-9.035 9.935-11.965 4.19-2.93 8.719-4.396 13.585-4.396h0zm14.216 16.352c-1.297 0-2.484.329-3.563.985-1.078.656-1.937 1.531-2.578 2.625-.587 1.002-.905 2.084-.954 3.244l-.007.318v4.828h-1.125c-.625 0-1.156.22-1.593.657-.39.389-.605.852-.648 1.389l-.009.204v7.5c0 .625.22 1.157.657 1.594.389.389.852.605 1.389.648l.204.008h16.5c.625 0 1.157-.218 1.594-.656.389-.389.605-.852.648-1.389l.008-.205v-7.5c0-.625-.218-1.156-.656-1.593-.389-.39-.852-.605-1.389-.648l-.205-.009H41.481v-4.828c0-.937.329-1.742.985-2.414.656-.672 1.445-1.008 2.367-1.008.922 0 1.719.329 2.39.985.616.601.95 1.321 1.001 2.159l.007.231v.75c0 .313.11.579.329.797.187.188.409.295.665.322l.131.006h1.5c.313 0 .579-.109.797-.328.188-.187.295-.41.322-.665l.006-.132v-.75c0-1.28-.32-2.468-.96-3.562-.641-1.094-1.508-1.961-2.602-2.602-1.094-.64-2.29-.96-3.586-.96z" transform="rotate(10 -35.522 191.016)"/>
        </g>
    </g>
</svg>
