<svg xmlns="http://www.w3.org/2000/svg" width="22" height="22" viewBox="0 0 22 22">
    <g fill="none" fill-rule="evenodd">
        <path fill="#FF7900" d="M0 21.959h21.958V0H0z"/>
        <g fill="#FFF">
            <path d="M7.487 19.19c0 .205.13.397.363.397.252 0 .499-.105.745-.322v-.724c-.752.094-1.108.287-1.108.649zm1.127.642a1.8 1.8 0 0 1-1.01.304c-.57 0-.908-.38-.908-.888 0-.684.629-1.046 1.925-1.192v-.17c0-.223-.169-.351-.48-.351a.913.913 0 0 0-.745.35l-.544-.31c.285-.397.72-.596 1.302-.596.797 0 1.244.345 1.244.907L9.4 20.1h-.713l-.072-.269zM10.034 17.125l.666-.092.073.363c.376-.275.674-.422 1.05-.422.629 0 .953.334.953.994v2.129h-.804v-1.988c0-.375-.097-.544-.389-.544-.24 0-.48.111-.751.34v2.192h-.798v-2.972zM18.705 18.167c0-.409-.233-.649-.616-.649-.362 0-.59.234-.622.65h1.238zm-.603 1.988c-.9 0-1.438-.579-1.438-1.584 0-1.018.544-1.597 1.425-1.597.882 0 1.407.562 1.407 1.556 0 .052-.007.105-.007.158h-2.034c.006.578.246.87.719.87.304 0 .505-.122.693-.39l.59.326c-.26.433-.726.66-1.355.66zM2.703 17.643c-.6 0-.712.541-.712.933 0 .391.111.933.712.933.6 0 .711-.542.711-.933 0-.392-.111-.933-.711-.933m0 2.545c-.795 0-1.512-.507-1.512-1.612 0-1.106.717-1.613 1.512-1.613s1.512.507 1.512 1.613c0 1.105-.717 1.612-1.512 1.612M4.766 17.043h.765v.36c.145-.194.505-.423.842-.423.032 0 .071 0 .104.006v.754h-.04c-.349 0-.732.054-.854.326V20.1h-.817v-3.056zM16.179 17.032v2.894c0 .51-.039 1.351-1.495 1.36-.601.004-1.158-.236-1.27-.76l.794-.128c.034.15.126.3.576.3.417 0 .617-.2.617-.678v-.355l-.011-.011c-.128.227-.323.444-.79.444-.711 0-1.273-.494-1.273-1.527 0-1.022.578-1.594 1.229-1.595.609 0 .836.277.887.423l-.009-.001.066-.366h.679zm-1.434 2.41c.61-.004.661-.625.661-1.03 0-.477-.233-.866-.667-.866-.289 0-.611.21-.611.9 0 .377.027 1.001.617.997zM21.128 16.894h-.167v-.843h-.005l-.33.843h-.106l-.331-.843h-.005v.843h-.167v-1.01h.258l.301.767.297-.767h.255v1.01zm-1.317-.875h-.316v.875h-.166v-.875h-.317v-.135h.8v.135z"/>
        </g>
    </g>
</svg>
