<svg xmlns="http://www.w3.org/2000/svg" width="43" height="19" viewBox="0 0 43 19">
    <path fill="#FFF" fill-rule="evenodd" d="M0 9.207c.017-.041.037-.081.05-.124.128-.433.493-.737.944-.74 1.34-.008 2.679 0 4.018-.007.17 0 .179.105.207.22l.971 3.905c.014.056.032.11.09.169.068-.257.137-.513.2-.77.275-1.101.552-2.201.815-3.305.043-.18.12-.22.29-.22 1.28.007 2.56.003 3.842.005.65 0 1.083.434 1.084 1.09.003 1.165 0 2.329 0 3.492 0 1.606-.007 3.212.005 4.818.005.707-.477 1.192-1.146 1.156-.363-.019-.728-.003-1.092-.003-.279 0-.279 0-.279-.27v-5.799a20.247 20.247 0 0 0-.046-.003l-.404 1.774c-.313 1.377-.627 2.755-.936 4.133-.028.128-.09.167-.214.166a901.086 901.086 0 0 0-4.271.001c-.147 0-.196-.054-.228-.195-.433-1.928-.875-3.855-1.315-5.782-.007-.034-.022-.067-.078-.098v5.778c0 .294 0 .295-.303.295H1.132c-.588-.001-.914-.241-1.094-.801-.007-.024-.025-.045-.038-.067V9.207zM6.593 0c.254.049.512.082.76.15 1.72.467 2.832 1.603 3.473 3.224.476 1.205.528 2.451.238 3.711-.014.062-.094.155-.144.156-.819.01-1.637.006-2.453.006.09-.322.204-.627.258-.942.182-1.053-.001-2.035-.661-2.893-.982-1.276-2.657-1.275-3.617.017-.817 1.099-.909 2.314-.455 3.586l.087.232c-.844 0-1.662.003-2.48-.007-.05 0-.128-.096-.143-.158-.318-1.406-.217-2.777.399-4.087C2.502 1.62 3.52.641 5 .197c.302-.09.62-.133.93-.197h.662zm26.608 19c-.08-.02-.161-.041-.243-.058-.586-.125-.95-.486-1.098-1.058a4.214 4.214 0 0 1-.023-2.061c.252-1.05 1.007-1.38 1.95-1.327.168.009.337.039.498.085.617.175 1.023.677 1.085 1.374.029.327.002.66 0 .989-.002.136-.066.184-.208.183-.76-.007-1.52 0-2.28-.006-.174-.001-.24.03-.21.23.085.576.345.834.927.835.536.001 1.073-.026 1.659-.043 0 .181.01.374-.008.564-.004.046-.097.11-.157.12-.314.051-.63.087-.943.131-.057.008-.112.028-.169.042h-.78zm.366-2.572c.26 0 .52.004.78-.004.051-.001.144-.05.144-.078.004-.334-.002-.679-.281-.916-.516-.439-1.387-.128-1.518.533-.017.089-.025.18-.04.27-.022.137.02.204.174.198.247-.01.494-.003.741-.003zM20.64 19c-.095-.02-.188-.043-.283-.062-.59-.118-.977-.468-1.146-1.04a3.968 3.968 0 0 1-.009-2.283c.199-.676.671-1.034 1.361-1.09.314-.026.637-.027.948.016.67.093 1.084.503 1.252 1.147.19.729.188 1.464-.026 2.19-.187.63-.615.987-1.267 1.077-.057.007-.111.03-.167.045h-.663zm-.682-2.363c.023.286.029.482.055.674.08.604.288.855.812.9.673.06.948-.185 1.057-.67.107-.474.113-.954.037-1.433-.06-.379-.195-.713-.62-.802a1.935 1.935 0 0 0-.522-.021c-.355.024-.603.212-.687.56-.07.288-.099.586-.132.792zM40.926 19c-.022-.012-.044-.033-.067-.036-.63-.09-.82-.442-.853-1.027-.044-.784-.031-1.571-.044-2.357 0-.064-.006-.127-.01-.21h-.524v-.773h.534v-.893c0-.058.007-.118-.001-.175-.024-.158.049-.205.197-.198.188.009.377.006.565.001.117-.002.16.043.157.162-.006.298.007.598-.005.896-.007.167.056.212.213.208.324-.01.648-.003.984-.003v.768h-.784c-.41 0-.41 0-.41.41 0 .527-.002 1.053.002 1.58 0 .136.012.272.03.407.047.335.18.438.527.418.162-.01.324-.012.486-.026.122-.01.164.048.161.158v.04c0 .167.063.383-.018.49-.077.1-.304.085-.465.124-.031.007-.06.024-.09.036h-.585zm-23.76 0c-.08-.02-.161-.041-.243-.058-.564-.118-.925-.459-1.065-1.013a4.702 4.702 0 0 1-.001-2.368c.164-.628.614-.966 1.26-1.045.566-.069 1.11.028 1.683.137l-.032.71c-.301-.017-.583-.038-.865-.046a2.921 2.921 0 0 0-.485.017c-.38.052-.627.258-.703.648-.1.523-.107 1.046.017 1.564.09.377.308.574.697.599.34.02.686.003 1.028-.02.324-.022.337-.027.335.289-.003.526.1.4-.448.499-.17.031-.343.058-.514.087h-.664zm20.132 0c-.081-.02-.162-.041-.243-.058-.573-.121-.934-.472-1.07-1.033a4.758 4.758 0 0 1-.003-2.314c.165-.654.603-.996 1.272-1.08.565-.069 1.109.031 1.658.134 0 .18-.008.347.002.514.011.185-.081.213-.239.2-.284-.026-.57-.064-.853-.047-.742.047-.93.2-1.01.936-.045.42-.003.855.057 1.276.055.391.298.592.694.617a7.92 7.92 0 0 0 1.028-.02c.328-.023.335-.032.333.29-.002.528.096.398-.448.498-.171.032-.343.058-.515.087h-.663zm-18.763-6.363v-.317c0-.676.006-1.352-.003-2.028a4.263 4.263 0 0 0-.068-.676c-.07-.398-.26-.578-.666-.558-.292.015-.582.11-.864.196-.055.016-.103.152-.104.234-.008.851-.005 1.703-.005 2.554 0 .15-.003.3 0 .449.003.108-.044.15-.152.147a10.915 10.915 0 0 0-.604 0c-.118.004-.163-.042-.162-.158.004-.254 0-.507 0-.76 0-1.047.005-2.094-.003-3.14-.001-.186.055-.26.244-.243.141.012.286.01.428 0 .16-.01.272.022.24.252.088-.041.15-.067.21-.098.48-.247.98-.34 1.504-.169.15.049.294.137.417.237.094.076.157.081.258.031.452-.228.93-.354 1.441-.35.766.005 1.186.348 1.305 1.109.052.325.075.658.08.987.01.754.003 1.508.003 2.281h-.916v-.207c0-.728.005-1.456-.003-2.184a3.244 3.244 0 0 0-.064-.637c-.083-.39-.311-.572-.71-.533-.281.027-.557.114-.83.189-.048.013-.11.095-.11.145.006.44.03.882.036 1.323.007.572-.003 1.144.005 1.716.002.159-.045.22-.21.211-.22-.012-.44-.003-.697-.003zm8.328-.021V6.538h.903v1.929c.288-.075.546-.17.811-.203.555-.068 1.097-.029 1.516.412.252.266.329.61.382.96.09.602.096 1.205-.028 1.801-.165.79-.587 1.154-1.418 1.27-.542.075-1.68-.008-2.166-.091zm.907-2.08c0 .397.003.793-.003 1.188-.002.126.046.18.168.18.26 0 .52.02.778-.001.358-.03.66-.174.766-.553a3.282 3.282 0 0 0 .001-1.783c-.078-.286-.278-.491-.583-.49-.319 0-.638.065-.957.104-.132.016-.177.09-.174.227.01.376.003.752.004 1.129zm9.907.345h-2.66c-.089.52.185.981.673 1.024.297.027.596.032.894.026.317-.006.633-.037.967-.058v.681c-.3.046-.61.115-.922.134-.42.026-.845.052-1.26.007-.586-.064-.995-.4-1.16-.98-.223-.778-.236-1.564.008-2.339.227-.722.792-1.126 1.55-1.132.239-.002.483.005.715.053.67.141 1.107.604 1.186 1.301.047.414.009.837.009 1.283zm-.846-.727c-.044-.396.005-.818-.393-1.037-.354-.195-.75-.195-1.094.033-.347.232-.358.617-.367 1.004h1.854zm-10.432.404c-.056.319-.095.715-.2 1.093-.16.575-.556.918-1.15 1.032-.44.084-.878.081-1.313-.023-.557-.133-.899-.5-1.058-1.037a4.001 4.001 0 0 1-.057-2.06c.194-.84.66-1.244 1.519-1.311.3-.024.613-.007.91.046.725.13 1.095.625 1.232 1.313.056.285.073.578.117.947zm-.941.015c-.023-.283-.032-.478-.055-.67-.07-.562-.292-.825-.791-.881-.564-.064-.955.118-1.074.65a3.547 3.547 0 0 0 .025 1.716c.095.352.325.53.688.56.129.01.26.01.388 0 .356-.027.603-.21.685-.56.07-.294.1-.598.134-.815zm-1.987 4.034h.86l.048.227c.068-.03.13-.056.19-.085.398-.19.811-.309 1.26-.243.735.108 1.066.422 1.153 1.17.057.495.067.996.08 1.496.012.513-.002 1.027.005 1.54.002.134-.038.188-.175.183a6.051 6.051 0 0 0-.546 0c-.148.007-.202-.04-.201-.198.006-.76.008-1.522-.006-2.282a3.243 3.243 0 0 0-.102-.67c-.063-.266-.257-.394-.521-.423a2.114 2.114 0 0 0-.972.144c-.128.047-.176.112-.175.254.007.981-.001 1.963.008 2.945.001.179-.048.243-.227.23-.181-.012-.364-.005-.546-.002-.102.001-.154-.032-.154-.146.004-1.359.004-2.717.006-4.076 0-.013.006-.025.015-.064zm4.188 0h.878l.027.236.249-.117a2.2 2.2 0 0 1 1.4-.198c.495.094.805.393.903.877.073.36.116.731.125 1.099.02.727.001 1.455.01 2.183.001.165-.055.218-.214.208a3.786 3.786 0 0 0-.487 0c-.165.01-.21-.06-.21-.217.007-.61.01-1.222 0-1.832a7.537 7.537 0 0 0-.06-.912c-.061-.452-.302-.652-.76-.621-.249.017-.495.088-.741.14-.169.036-.231.133-.229.318.01.961 0 1.923.01 2.885 0 .189-.055.255-.242.24-.181-.014-.364-.005-.546-.004-.094.001-.14-.03-.14-.136.005-1.37.006-2.742.009-4.113 0-.005.005-.01.018-.035zm4.969-1.987V6.542h.902v6.078h-.902zm-.6.006h-.91c-.005-.068-.011-.124-.011-.18-.001-1.301.002-2.601-.005-3.902 0-.165.051-.218.21-.207.169.01.339.01.507 0 .16-.01.213.047.212.21-.007 1.02-.004 2.041-.004 3.062v1.017zm-.915-5.08V6.62h.899v.926h-.9z"/>
</svg>
