<svg xmlns="http://www.w3.org/2000/svg" xmlns:xlink="http://www.w3.org/1999/xlink" width="150" height="150" viewBox="0 0 150 150">
    <defs>
        <path id="a" d="M35 0C15.67 0 0 15.67 0 35s15.67 35 35 35 35-15.67 35-35S54.33 0 35 0zm16.596 56.058c-3.25 3.155-14.92.165-26.548-11.447C13.42 33 10.294 21.643 13.588 18.096c6.27-6.388 6.069-7.505 11.073-1.29 5.003 6.216 4.668 5.832-.28 10.775-1.972 1.969 2.14 6.951 6.452 11.253 4.311 4.302 9.294 8.415 11.267 6.447 4.926-4.92 4.564-5.276 10.788-.278 5.912 4.8 5.388 4.43-1.292 11.055z"/>
    </defs>
    <g fill="none" fill-rule="evenodd">
        <circle cx="75" cy="75" r="75" fill="#000"/>
        <use fill="#8F8F8F" fill-rule="nonzero" transform="translate(40 40)" xlink:href="#a"/>
    </g>
</svg>
