<svg xmlns="http://www.w3.org/2000/svg" xmlns:xlink="http://www.w3.org/1999/xlink" width="76" height="76" viewBox="0 0 76 76">
    <defs>
        <path id="a" d="M0 .155h75.841v75.584H0z"/>
        <path id="c" d="M37.92.155C16.979.155 0 17.075 0 37.947s16.978 37.792 37.92 37.792c20.9 0 37.851-16.849 37.921-37.66v-.264"/>
        <path id="e" d="M37.92.155C16.979.155 0 17.075 0 37.947s16.978 37.792 37.92 37.792c20.9 0 37.851-16.849 37.921-37.66v-.264"/>
        <path id="g" d="M37.92.155C16.979.155 0 17.075 0 37.947s16.978 37.792 37.92 37.792c20.9 0 37.851-16.849 37.921-37.66v-.264"/>
        <path id="i" d="M37.92.155C16.979.155 0 17.075 0 37.947s16.978 37.792 37.92 37.792c20.9 0 37.851-16.849 37.921-37.66v-.264"/>
        <path id="k" d="M37.92.155C16.979.155 0 17.075 0 37.947s16.978 37.792 37.92 37.792c20.9 0 37.851-16.849 37.921-37.66v-.264"/>
        <path id="m" d="M37.92.155C16.979.155 0 17.075 0 37.947s16.978 37.792 37.92 37.792c20.9 0 37.851-16.849 37.921-37.66v-.264"/>
        <path id="o" d="M37.92.155C16.979.155 0 17.075 0 37.947s16.978 37.792 37.92 37.792c20.9 0 37.851-16.849 37.921-37.66v-.264"/>
        <path id="q" d="M37.92.155C16.979.155 0 17.075 0 37.947s16.978 37.792 37.92 37.792c20.9 0 37.851-16.849 37.921-37.66v-.264"/>
        <path id="s" d="M37.92.155C16.979.155 0 17.075 0 37.947s16.978 37.792 37.92 37.792c20.9 0 37.851-16.849 37.921-37.66v-.264"/>
        <path id="u" d="M37.92.155C16.979.155 0 17.075 0 37.947s16.978 37.792 37.92 37.792c20.9 0 37.851-16.849 37.921-37.66v-.264"/>
        <path id="w" d="M37.92.155C16.979.155 0 17.075 0 37.947s16.978 37.792 37.92 37.792c20.9 0 37.851-16.849 37.921-37.66v-.264"/>
        <path id="y" d="M37.92.155C16.979.155 0 17.075 0 37.947s16.978 37.792 37.92 37.792c20.9 0 37.851-16.849 37.921-37.66v-.264"/>
        <path id="A" d="M37.92.155C16.979.155 0 17.075 0 37.947s16.978 37.792 37.92 37.792c20.9 0 37.851-16.849 37.921-37.66v-.264"/>
        <path id="C" d="M37.92.155C16.979.155 0 17.075 0 37.947s16.978 37.792 37.92 37.792c20.9 0 37.851-16.849 37.921-37.66v-.264"/>
        <path id="E" d="M37.92.155C16.979.155 0 17.075 0 37.947s16.978 37.792 37.92 37.792c20.9 0 37.851-16.849 37.921-37.66v-.264"/>
        <path id="G" d="M37.92.155C16.979.155 0 17.075 0 37.947s16.978 37.792 37.92 37.792c20.9 0 37.851-16.849 37.921-37.66v-.264"/>
        <path id="I" d="M37.92.155C16.979.155 0 17.075 0 37.947s16.978 37.792 37.92 37.792c20.9 0 37.851-16.849 37.921-37.66v-.264"/>
        <path id="K" d="M37.92.155C16.979.155 0 17.075 0 37.947s16.978 37.792 37.92 37.792c20.9 0 37.851-16.849 37.921-37.66v-.264"/>
        <path id="M" d="M37.92.155C16.979.155 0 17.075 0 37.947s16.978 37.792 37.92 37.792c20.9 0 37.851-16.849 37.921-37.66v-.264"/>
        <path id="O" d="M37.92.155C16.979.155 0 17.075 0 37.947s16.978 37.792 37.92 37.792c20.9 0 37.851-16.849 37.921-37.66v-.264"/>
        <path id="Q" d="M37.92.155C16.979.155 0 17.075 0 37.947s16.978 37.792 37.92 37.792c20.9 0 37.851-16.849 37.921-37.66v-.264"/>
        <path id="S" d="M37.92.155C16.979.155 0 17.075 0 37.947s16.978 37.792 37.92 37.792c20.9 0 37.851-16.849 37.921-37.66v-.264"/>
        <path id="U" d="M37.92.155C16.979.155 0 17.075 0 37.947s16.978 37.792 37.92 37.792c20.9 0 37.851-16.849 37.921-37.66v-.264"/>
        <path id="W" d="M37.92.155C16.979.155 0 17.075 0 37.947s16.978 37.792 37.92 37.792c20.9 0 37.851-16.849 37.921-37.66v-.264"/>
        <path id="Y" d="M37.92.155C16.979.155 0 17.075 0 37.947s16.978 37.792 37.92 37.792c20.9 0 37.851-16.849 37.921-37.66v-.264"/>
        <path id="aa" d="M37.92.155C16.979.155 0 17.075 0 37.947s16.978 37.792 37.92 37.792c20.9 0 37.851-16.849 37.921-37.66v-.264"/>
        <path id="ac" d="M37.92.155C16.979.155 0 17.075 0 37.947s16.978 37.792 37.92 37.792c20.9 0 37.851-16.849 37.921-37.66v-.264"/>
        <path id="ae" d="M37.92.155C16.979.155 0 17.075 0 37.947s16.978 37.792 37.92 37.792c20.9 0 37.851-16.849 37.921-37.66v-.264"/>
        <path id="ag" d="M37.92.155C16.979.155 0 17.075 0 37.947s16.978 37.792 37.92 37.792c20.9 0 37.851-16.849 37.921-37.66v-.264"/>
        <path id="ai" d="M37.92.155C16.979.155 0 17.075 0 37.947s16.978 37.792 37.92 37.792c20.9 0 37.851-16.849 37.921-37.66v-.264"/>
        <path id="ak" d="M37.92.155C16.979.155 0 17.075 0 37.947s16.978 37.792 37.92 37.792c20.9 0 37.851-16.849 37.921-37.66v-.264"/>
        <path id="am" d="M37.92.155C16.979.155 0 17.075 0 37.947s16.978 37.792 37.92 37.792c20.9 0 37.851-16.849 37.921-37.66v-.264"/>
        <path id="ao" d="M37.92.155C16.979.155 0 17.075 0 37.947s16.978 37.792 37.92 37.792c20.9 0 37.851-16.849 37.921-37.66v-.264"/>
        <path id="aq" d="M37.92.155C16.979.155 0 17.075 0 37.947s16.978 37.792 37.92 37.792c20.9 0 37.851-16.849 37.921-37.66v-.264"/>
        <path id="as" d="M37.92.155C16.979.155 0 17.075 0 37.947s16.978 37.792 37.92 37.792c20.9 0 37.851-16.849 37.921-37.66v-.264"/>
        <path id="au" d="M37.92.155C16.979.155 0 17.075 0 37.947s16.978 37.792 37.92 37.792c20.9 0 37.851-16.849 37.921-37.66v-.264"/>
        <path id="aw" d="M37.92.155C16.979.155 0 17.075 0 37.947s16.978 37.792 37.92 37.792c20.9 0 37.851-16.849 37.921-37.66v-.264"/>
        <path id="ay" d="M37.92.155C16.979.155 0 17.075 0 37.947s16.978 37.792 37.92 37.792c20.9 0 37.851-16.849 37.921-37.66v-.264"/>
        <path id="aA" d="M37.92.155C16.979.155 0 17.075 0 37.947s16.978 37.792 37.92 37.792c20.9 0 37.851-16.849 37.921-37.66v-.264"/>
        <path id="aC" d="M37.92.155C16.979.155 0 17.075 0 37.947s16.978 37.792 37.92 37.792c20.9 0 37.851-16.849 37.921-37.66v-.264"/>
        <path id="aE" d="M37.92.155C16.979.155 0 17.075 0 37.947s16.978 37.792 37.92 37.792c20.9 0 37.851-16.849 37.921-37.66v-.264"/>
        <path id="aG" d="M37.92.155C16.979.155 0 17.075 0 37.947s16.978 37.792 37.92 37.792c20.9 0 37.851-16.849 37.921-37.66v-.264"/>
        <path id="aI" d="M37.92.155C16.979.155 0 17.075 0 37.947s16.978 37.792 37.92 37.792c20.9 0 37.851-16.849 37.921-37.66v-.264"/>
        <path id="aK" d="M37.92.155C16.979.155 0 17.075 0 37.947s16.978 37.792 37.92 37.792c20.9 0 37.851-16.849 37.921-37.66v-.264"/>
        <path id="aM" d="M37.92.155C16.979.155 0 17.075 0 37.947s16.978 37.792 37.92 37.792c20.9 0 37.851-16.849 37.921-37.66v-.264"/>
        <path id="aO" d="M37.92.155C16.979.155 0 17.075 0 37.947s16.978 37.792 37.92 37.792c20.9 0 37.851-16.849 37.921-37.66v-.264"/>
        <path id="aQ" d="M37.92.155C16.979.155 0 17.075 0 37.947s16.978 37.792 37.92 37.792c20.9 0 37.851-16.849 37.921-37.66v-.264"/>
        <path id="aS" d="M37.92.155C16.979.155 0 17.075 0 37.947s16.978 37.792 37.92 37.792c20.9 0 37.851-16.849 37.921-37.66v-.264"/>
        <path id="aU" d="M37.92.155C16.979.155 0 17.075 0 37.947s16.978 37.792 37.92 37.792c20.9 0 37.851-16.849 37.921-37.66v-.264"/>
        <path id="aW" d="M37.92.155C16.979.155 0 17.075 0 37.947s16.978 37.792 37.92 37.792c20.9 0 37.851-16.849 37.921-37.66v-.264"/>
        <path id="aY" d="M37.92.155C16.979.155 0 17.075 0 37.947s16.978 37.792 37.92 37.792c20.9 0 37.851-16.849 37.921-37.66v-.264"/>
        <path id="ba" d="M37.92.155C16.979.155 0 17.075 0 37.947s16.978 37.792 37.92 37.792c20.9 0 37.851-16.849 37.921-37.66v-.264"/>
        <path id="bc" d="M37.92.155C16.979.155 0 17.075 0 37.947s16.978 37.792 37.92 37.792c20.9 0 37.851-16.849 37.921-37.66v-.264"/>
        <path id="be" d="M37.92.155C16.979.155 0 17.075 0 37.947s16.978 37.792 37.92 37.792c20.9 0 37.851-16.849 37.921-37.66v-.264"/>
        <path id="bg" d="M37.92.155C16.979.155 0 17.075 0 37.947s16.978 37.792 37.92 37.792c20.9 0 37.851-16.849 37.921-37.66v-.264"/>
        <path id="bi" d="M37.92.155C16.979.155 0 17.075 0 37.947s16.978 37.792 37.92 37.792c20.9 0 37.851-16.849 37.921-37.66v-.264"/>
        <path id="bk" d="M37.92.155C16.979.155 0 17.075 0 37.947s16.978 37.792 37.92 37.792c20.9 0 37.851-16.849 37.921-37.66v-.264"/>
        <path id="bm" d="M37.92.155C16.979.155 0 17.075 0 37.947s16.978 37.792 37.92 37.792c20.9 0 37.851-16.849 37.921-37.66v-.264"/>
        <path id="bo" d="M37.92.155C16.979.155 0 17.075 0 37.947s16.978 37.792 37.92 37.792c20.9 0 37.851-16.849 37.921-37.66v-.264"/>
        <path id="bq" d="M37.92.155C16.979.155 0 17.075 0 37.947s16.978 37.792 37.92 37.792c20.9 0 37.851-16.849 37.921-37.66v-.264"/>
        <path id="bs" d="M37.92.155C16.979.155 0 17.075 0 37.947s16.978 37.792 37.92 37.792c20.9 0 37.851-16.849 37.921-37.66v-.264"/>
        <path id="bu" d="M37.92.155C16.979.155 0 17.075 0 37.947s16.978 37.792 37.92 37.792c20.9 0 37.851-16.849 37.921-37.66v-.264"/>
        <path id="bw" d="M37.92.155C16.979.155 0 17.075 0 37.947s16.978 37.792 37.92 37.792c20.9 0 37.851-16.849 37.921-37.66v-.264"/>
        <path id="by" d="M37.92.155C16.979.155 0 17.075 0 37.947s16.978 37.792 37.92 37.792c20.9 0 37.851-16.849 37.921-37.66v-.264"/>
        <path id="bA" d="M0 .155h75.841v75.584H0z"/>
        <path id="bC" d="M37.92.155C16.979.155 0 17.075 0 37.947s16.978 37.792 37.92 37.792c20.9 0 37.851-16.849 37.921-37.66v-.264"/>
        <path id="bE" d="M37.92.155C16.979.155 0 17.075 0 37.947s16.978 37.792 37.92 37.792c20.9 0 37.851-16.849 37.921-37.66v-.264"/>
        <path id="bG" d="M37.92.155C16.979.155 0 17.075 0 37.947s16.978 37.792 37.92 37.792c20.9 0 37.851-16.849 37.921-37.66v-.264"/>
        <path id="bI" d="M37.92.155C16.979.155 0 17.075 0 37.947s16.978 37.792 37.92 37.792c20.9 0 37.851-16.849 37.921-37.66v-.264"/>
        <path id="bK" d="M37.92.155C16.979.155 0 17.075 0 37.947s16.978 37.792 37.92 37.792c20.9 0 37.851-16.849 37.921-37.66v-.264"/>
        <path id="bM" d="M37.92.155C16.979.155 0 17.075 0 37.947s16.978 37.792 37.92 37.792c20.9 0 37.851-16.849 37.921-37.66v-.264"/>
        <path id="bO" d="M37.92.155C16.979.155 0 17.075 0 37.947s16.978 37.792 37.92 37.792c20.9 0 37.851-16.849 37.921-37.66v-.264"/>
        <path id="bQ" d="M37.92.155C16.979.155 0 17.075 0 37.947s16.978 37.792 37.92 37.792c20.9 0 37.851-16.849 37.921-37.66v-.264"/>
        <path id="bS" d="M37.92.155C16.979.155 0 17.075 0 37.947s16.978 37.792 37.92 37.792c20.9 0 37.851-16.849 37.921-37.66v-.264"/>
        <path id="bU" d="M37.92.155C16.979.155 0 17.075 0 37.947s16.978 37.792 37.92 37.792c20.9 0 37.851-16.849 37.921-37.66v-.264"/>
        <path id="bW" d="M37.92.155C16.979.155 0 17.075 0 37.947s16.978 37.792 37.92 37.792c20.9 0 37.851-16.849 37.921-37.66v-.264"/>
        <path id="bY" d="M37.92.155C16.979.155 0 17.075 0 37.947s16.978 37.792 37.92 37.792c20.9 0 37.851-16.849 37.921-37.66v-.264"/>
        <path id="ca" d="M37.92.155C16.979.155 0 17.075 0 37.947s16.978 37.792 37.92 37.792c20.9 0 37.851-16.849 37.921-37.66v-.264"/>
        <path id="cc" d="M37.92.155C16.979.155 0 17.075 0 37.947s16.978 37.792 37.92 37.792c20.9 0 37.851-16.849 37.921-37.66v-.264c-.07-20.812-17.02-37.66-37.92-37.66z"/>
        <path id="ce" d="M37.92.155C16.979.155 0 17.075 0 37.947s16.978 37.792 37.92 37.792c20.9 0 37.851-16.849 37.921-37.66v-.264"/>
        <path id="cg" d="M37.92.155C16.979.155 0 17.075 0 37.947s16.978 37.792 37.92 37.792c20.9 0 37.851-16.849 37.921-37.66v-.264"/>
        <path id="ci" d="M37.92.155C16.979.155 0 17.075 0 37.947s16.978 37.792 37.92 37.792c20.9 0 37.851-16.849 37.921-37.66v-.264c-.07-20.812-17.02-37.66-37.92-37.66z"/>
        <path id="ck" d="M37.92.155C16.979.155 0 17.075 0 37.947s16.978 37.792 37.92 37.792c20.9 0 37.851-16.849 37.921-37.66v-.264c-.07-20.812-17.02-37.66-37.92-37.66z"/>
        <path id="cm" d="M37.92.155C16.979.155 0 17.075 0 37.947s16.978 37.792 37.92 37.792c20.9 0 37.851-16.849 37.921-37.66v-.264c-.07-20.812-17.02-37.66-37.92-37.66z"/>
        <path id="co" d="M37.92.155C16.979.155 0 17.075 0 37.947s16.978 37.792 37.92 37.792c20.9 0 37.851-16.849 37.921-37.66v-.264c-.07-20.812-17.02-37.66-37.92-37.66z"/>
        <path id="cq" d="M37.92.155C16.979.155 0 17.075 0 37.947s16.978 37.792 37.92 37.792c20.9 0 37.851-16.849 37.921-37.66v-.264c-.07-20.812-17.02-37.66-37.92-37.66z"/>
        <path id="cs" d="M37.92.155C16.979.155 0 17.075 0 37.947s16.978 37.792 37.92 37.792c20.9 0 37.851-16.849 37.921-37.66v-.264c-.07-20.812-17.02-37.66-37.92-37.66z"/>
        <path id="cu" d="M37.92.155C16.979.155 0 17.075 0 37.947s16.978 37.792 37.92 37.792c20.9 0 37.851-16.849 37.921-37.66v-.264c-.07-20.812-17.02-37.66-37.92-37.66z"/>
        <path id="cw" d="M37.92.155C16.979.155 0 17.075 0 37.947s16.978 37.792 37.92 37.792c20.9 0 37.851-16.849 37.921-37.66v-.264"/>
        <path id="cy" d="M37.92.155C16.979.155 0 17.075 0 37.947s16.978 37.792 37.92 37.792c20.9 0 37.851-16.849 37.921-37.66v-.264"/>
        <path id="cA" d="M37.92.155C16.979.155 0 17.075 0 37.947s16.978 37.792 37.92 37.792c20.9 0 37.851-16.849 37.921-37.66v-.264"/>
        <path id="cC" d="M37.92.155C16.979.155 0 17.075 0 37.947s16.978 37.792 37.92 37.792c20.9 0 37.851-16.849 37.921-37.66v-.264"/>
        <path id="cE" d="M37.92.155C16.979.155 0 17.075 0 37.947s16.978 37.792 37.92 37.792c20.9 0 37.851-16.849 37.921-37.66v-.264"/>
        <path id="cG" d="M37.92.155C16.979.155 0 17.075 0 37.947s16.978 37.792 37.92 37.792c20.9 0 37.851-16.849 37.921-37.66v-.264"/>
        <path id="cI" d="M37.92.155C16.979.155 0 17.075 0 37.947s16.978 37.792 37.92 37.792c20.9 0 37.851-16.849 37.921-37.66v-.264"/>
        <path id="cK" d="M37.92.155C16.979.155 0 17.075 0 37.947s16.978 37.792 37.92 37.792c20.9 0 37.851-16.849 37.921-37.66v-.264"/>
        <path id="cM" d="M37.92.155C16.979.155 0 17.075 0 37.947s16.978 37.792 37.92 37.792c20.9 0 37.851-16.849 37.921-37.66v-.264"/>
        <path id="cO" d="M37.92.155C16.979.155 0 17.075 0 37.947s16.978 37.792 37.92 37.792c20.9 0 37.851-16.849 37.921-37.66v-.264"/>
        <path id="cQ" d="M37.92.155C16.979.155 0 17.075 0 37.947s16.978 37.792 37.92 37.792c20.9 0 37.851-16.849 37.921-37.66v-.264"/>
        <path id="cS" d="M37.92.155C16.979.155 0 17.075 0 37.947s16.978 37.792 37.92 37.792c20.9 0 37.851-16.849 37.921-37.66v-.264"/>
        <path id="cU" d="M37.92.155C16.979.155 0 17.075 0 37.947s16.978 37.792 37.92 37.792c20.9 0 37.851-16.849 37.921-37.66v-.264"/>
        <path id="cW" d="M37.92.155C16.979.155 0 17.075 0 37.947s16.978 37.792 37.92 37.792c20.9 0 37.851-16.849 37.921-37.66v-.264"/>
        <path id="cY" d="M37.92.155C16.979.155 0 17.075 0 37.947s16.978 37.792 37.92 37.792c20.9 0 37.851-16.849 37.921-37.66v-.264"/>
        <path id="da" d="M37.92.155C16.979.155 0 17.075 0 37.947s16.978 37.792 37.92 37.792c20.9 0 37.851-16.849 37.921-37.66v-.264"/>
        <path id="dc" d="M37.92.155C16.979.155 0 17.075 0 37.947s16.978 37.792 37.92 37.792c20.9 0 37.851-16.849 37.921-37.66v-.264"/>
        <path id="de" d="M37.92.155C16.979.155 0 17.075 0 37.947s16.978 37.792 37.92 37.792c20.9 0 37.851-16.849 37.921-37.66v-.264"/>
        <path id="dg" d="M37.92.155C16.979.155 0 17.075 0 37.947s16.978 37.792 37.92 37.792c20.9 0 37.851-16.849 37.921-37.66v-.264"/>
        <path id="di" d="M37.92.155C16.979.155 0 17.075 0 37.947s16.978 37.792 37.92 37.792c20.9 0 37.851-16.849 37.921-37.66v-.264"/>
        <path id="dk" d="M37.92.155C16.979.155 0 17.075 0 37.947s16.978 37.792 37.92 37.792c20.9 0 37.851-16.849 37.921-37.66v-.264"/>
        <path id="dm" d="M37.92.155C16.979.155 0 17.075 0 37.947s16.978 37.792 37.92 37.792c20.9 0 37.851-16.849 37.921-37.66v-.264"/>
        <path id="do" d="M37.92.155C16.979.155 0 17.075 0 37.947s16.978 37.792 37.92 37.792c20.9 0 37.851-16.849 37.921-37.66v-.264"/>
        <path id="dq" d="M37.92.155C16.979.155 0 17.075 0 37.947s16.978 37.792 37.92 37.792c20.9 0 37.851-16.849 37.921-37.66v-.264"/>
        <path id="ds" d="M37.92.155C16.979.155 0 17.075 0 37.947s16.978 37.792 37.92 37.792c20.9 0 37.851-16.849 37.921-37.66v-.264"/>
        <path id="du" d="M37.92.155C16.979.155 0 17.075 0 37.947s16.978 37.792 37.92 37.792c20.9 0 37.851-16.849 37.921-37.66v-.264"/>
        <path id="dw" d="M37.92.155C16.979.155 0 17.075 0 37.947s16.978 37.792 37.92 37.792c20.9 0 37.851-16.849 37.921-37.66v-.264"/>
        <path id="dy" d="M37.92.155C16.979.155 0 17.075 0 37.947s16.978 37.792 37.92 37.792c20.9 0 37.851-16.849 37.921-37.66v-.264"/>
        <path id="dA" d="M37.92.155C16.979.155 0 17.075 0 37.947s16.978 37.792 37.92 37.792c20.9 0 37.851-16.849 37.921-37.66v-.264"/>
        <path id="dC" d="M37.92.155C16.979.155 0 17.075 0 37.947s16.978 37.792 37.92 37.792c20.9 0 37.851-16.849 37.921-37.66v-.264"/>
        <path id="dE" d="M37.92.155C16.979.155 0 17.075 0 37.947s16.978 37.792 37.92 37.792c20.9 0 37.851-16.849 37.921-37.66v-.264"/>
        <path id="dG" d="M37.92.155C16.979.155 0 17.075 0 37.947s16.978 37.792 37.92 37.792c20.9 0 37.851-16.849 37.921-37.66v-.264"/>
        <path id="dI" d="M37.92.155C16.979.155 0 17.075 0 37.947s16.978 37.792 37.92 37.792c20.9 0 37.851-16.849 37.921-37.66v-.264"/>
        <path id="dK" d="M37.92.155C16.979.155 0 17.075 0 37.947s16.978 37.792 37.92 37.792c20.9 0 37.851-16.849 37.921-37.66v-.264"/>
        <path id="dM" d="M37.92.155C16.979.155 0 17.075 0 37.947s16.978 37.792 37.92 37.792c20.9 0 37.851-16.849 37.921-37.66v-.264"/>
        <path id="dO" d="M37.92.155C16.979.155 0 17.075 0 37.947s16.978 37.792 37.92 37.792c20.9 0 37.851-16.849 37.921-37.66v-.264"/>
        <path id="dQ" d="M37.92.155C16.979.155 0 17.075 0 37.947s16.978 37.792 37.92 37.792c20.9 0 37.851-16.849 37.921-37.66v-.264c-.07-20.812-17.02-37.66-37.92-37.66z"/>
        <path id="dS" d="M37.92.155C16.979.155 0 17.075 0 37.947s16.978 37.792 37.92 37.792c20.9 0 37.851-16.849 37.921-37.66v-.264"/>
        <path id="dU" d="M37.92.155C16.979.155 0 17.075 0 37.947s16.978 37.792 37.92 37.792c20.9 0 37.851-16.849 37.921-37.66v-.264"/>
        <path id="dW" d="M37.92.155C16.979.155 0 17.075 0 37.947s16.978 37.792 37.92 37.792c20.9 0 37.851-16.849 37.921-37.66v-.264"/>
        <path id="dY" d="M37.92.155C16.979.155 0 17.075 0 37.947s16.978 37.792 37.92 37.792c20.9 0 37.851-16.849 37.921-37.66v-.264"/>
        <path id="ea" d="M37.92.155C16.979.155 0 17.075 0 37.947s16.978 37.792 37.92 37.792c20.9 0 37.851-16.849 37.921-37.66v-.264"/>
        <path id="ec" d="M37.92.155C16.979.155 0 17.075 0 37.947s16.978 37.792 37.92 37.792c20.9 0 37.851-16.849 37.921-37.66v-.264"/>
        <path id="ee" d="M37.92.155C16.979.155 0 17.075 0 37.947s16.978 37.792 37.92 37.792c20.9 0 37.851-16.849 37.921-37.66v-.264"/>
        <path id="eg" d="M37.92.155C16.979.155 0 17.075 0 37.947s16.978 37.792 37.92 37.792c20.9 0 37.851-16.849 37.921-37.66v-.264"/>
        <path id="ei" d="M37.92.155C16.979.155 0 17.075 0 37.947s16.978 37.792 37.92 37.792c20.9 0 37.851-16.849 37.921-37.66v-.264"/>
        <path id="ek" d="M37.92.155C16.979.155 0 17.075 0 37.947s16.978 37.792 37.92 37.792c20.9 0 37.851-16.849 37.921-37.66v-.264"/>
        <path id="em" d="M37.92.155C16.979.155 0 17.075 0 37.947s16.978 37.792 37.92 37.792c20.9 0 37.851-16.849 37.921-37.66v-.264"/>
        <path id="eo" d="M37.92.155C16.979.155 0 17.075 0 37.947s16.978 37.792 37.92 37.792c20.9 0 37.851-16.849 37.921-37.66v-.264"/>
        <path id="eq" d="M37.92.155C16.979.155 0 17.075 0 37.947s16.978 37.792 37.92 37.792c20.9 0 37.851-16.849 37.921-37.66v-.264"/>
        <path id="es" d="M37.92.155C16.979.155 0 17.075 0 37.947s16.978 37.792 37.92 37.792c20.9 0 37.851-16.849 37.921-37.66v-.264"/>
        <path id="eu" d="M37.92.155C16.979.155 0 17.075 0 37.947s16.978 37.792 37.92 37.792c20.9 0 37.851-16.849 37.921-37.66v-.264"/>
        <path id="ew" d="M37.92.155C16.979.155 0 17.075 0 37.947s16.978 37.792 37.92 37.792c20.9 0 37.851-16.849 37.921-37.66v-.264"/>
        <path id="ey" d="M37.92.155C16.979.155 0 17.075 0 37.947s16.978 37.792 37.92 37.792c20.9 0 37.851-16.849 37.921-37.66v-.264"/>
    </defs>
    <g fill="none" fill-rule="evenodd">
        <g transform="translate(0 .103)">
            <mask id="b" fill="#fff">
                <use xlink:href="#a"/>
            </mask>
            <path fill="#50BE87" d="M37.92.155c20.944 0 37.921 16.92 37.921 37.792s-16.977 37.792-37.92 37.792C16.977 75.739 0 58.819 0 37.947S16.977.155 37.92.155" mask="url(#b)"/>
        </g>
        <g transform="translate(0 .103)">
            <mask id="d" fill="#fff">
                <use xlink:href="#c"/>
            </mask>
            <path fill="#725048" d="M52.328 40.524c-1.813-.448-4.24-.022-5.745-.909-4.733-2.813-9.313-5.846-13.552-9.13-.703 1.466-1.56 3.152-2.296 4.432-.857 1.686-1.9 3.404-2.944 5.122-.583 1.062-.199 2.146-.78 3.208-.737 1.28-1.978 1.882-2.527 3.13-.396 1.029-.978 2.09-.967 3.24-.022.963-.044 1.926-.286 2.736-.572 2.211-1.176 4.236-2.78 6.053-1.142 1.16-1.966 3.032-2.67 4.499-1.164 2.123-3.262 4.41-1.066 5.943 3.328 2.486 7.776 4.774 11.653 6.011 2.877 1.03 5.744.91 7.15-2.024 1.1-2.495 1.012-5.166 3.143-7.267 1.79-1.85 4.558-2.528 6.349-4.378 2.625-2.572 4.68-6.195 6.207-9.533 1.406-2.934 3.34-6.152 2.934-9.534.175-1.182-1.043-1.544-1.823-1.599" mask="url(#d)"/>
        </g>
        <g transform="translate(0 .103)">
            <mask id="f" fill="#fff">
                <use xlink:href="#e"/>
            </mask>
            <path fill="#725048" d="M57.326 35.041c.406.12 1 .208 1.438.515.22.153-3.636 7.738-5.613 6.359-2.449-1.872 1.682-6.82 4.175-6.874" mask="url(#f)"/>
        </g>
        <g transform="translate(0 .103)">
            <mask id="h" fill="#fff">
                <use xlink:href="#g"/>
            </mask>
            <path fill="#725048" d="M52.659 29.338c-.495.47-2.197 1.729-2.856 1.269-1.066-.58 1.626-2.78 2.12-3.25.802-.91 1.637-1.632 2.439-2.54.494-.47.922-1.313.417-1.992-.505-.679-1.34.044-1.867.328-2.57 1.795-5.075 3.962-7.392 6.096-1.33 1.193-2.692 2.2-4.054 3.207-.835.722-1.79 1.85-2.977 1.674-.812-.24-1.943-1.193-2.493.054-.275.624-.483 1.62-.505 2.584l-.166 2.331c-.175 1.182.022 2.299.22 3.415.23 1.303-.232 5.222-.232 5.222.703 1.795.626 3.535 2.746 3.547 1.746.077 3.954-.503 5.47-1.729.834-.722.922-1.314 2.109-1.138.999.208 1.877.821 2.811.657.747-.131 1.264-1.565 1.725-2.222.89-1.5 1.966-3.032 2.604-4.87.395-1.03.977-2.091 1.186-3.087.21-.996.605-2.025.594-3.174-.01-1.15-.923-1.95-.933-3.098-.011-1.15 1.01-1.905.967-3.24-.066-.372-.165-.93-.571-1.051-.747.131-1.022.755-1.362 1.007" mask="url(#h)"/>
        </g>
        <g transform="translate(0 .103)">
            <mask id="j" fill="#fff">
                <use xlink:href="#i"/>
            </mask>
            <path fill="#725048" d="M52.276 18.468l-.77 1.094c-.428.843-.538 2.398-1.625 2.78-1.088.384-1.856-1.784-2.175-2.495-.516-1.828 1.154-3.273 2.516-4.28 1.549-1.04 3.109-.93 3.998.833-.527.284-1.33 1.192-1.944 2.068" mask="url(#j)"/>
        </g>
        <g transform="translate(0 .103)">
            <mask id="l" fill="#fff">
                <use xlink:href="#k"/>
            </mask>
            <path fill="#725048" d="M53.438 29.392l-.428.843c.033.186.648 2.573.834 2.54 1.242-.602 2.472-2.353 1.835-3.776-.286-.526-1.515-2.036-2.317-1.128-.308.438.384 1.084.076 1.521" mask="url(#l)"/>
        </g>
        <g transform="translate(0 .103)">
            <mask id="n" fill="#fff">
                <use xlink:href="#m"/>
            </mask>
            <path fill="#8F8F8F" d="M47.983 9.437c-1.472-.701-2.966-.438-4.833-.11l-6.162 1.083-5.415.951c-1.494.263-4.295.755-5.437 1.915-.989.941-1.406 2.933-1.33 4.455.12 2.857 1.021 5.769 1.515 8.56l1.844 10.421 1.547 8.746 1.087 6.141c.296 1.675.285 3.788 1.976 4.641 1.065.58 2.625.69 3.932.46 1.9-.141 3.734-.655 5.602-.984 2.24-.393 4.294-.754 6.502-1.334 1.834-.514 4.36-.383 5.91-1.422 1.921-1.105 2.12-3.251 1.724-5.484-1.327-8.593-3.248-17.273-4.356-25.713-.242-2.452-1.043-4.806-1.471-7.225-.362-2.047-.538-4.127-2.635-5.101" mask="url(#n)"/>
        </g>
        <g transform="translate(0 .103)">
            <mask id="p" fill="#fff">
                <use xlink:href="#o"/>
            </mask>
            <path fill="#595959" d="M30.046 11.438c-.373.065-.78-.055-1.526.076-.374.065-.528.284-.714.317.032.186.066.372.285.526.22.153.78.055.967.022.373-.066.56-.099.714-.318.373-.065.153-.218.274-.623" mask="url(#p)"/>
        </g>
        <g transform="translate(0 .103)">
            <mask id="r" fill="#fff">
                <use xlink:href="#q"/>
            </mask>
            <path fill="#242B37" d="M28.333 11.547c-.374.065-.681.503-.088.59.78.056 1.087-.382.835-.721l-.747.13" mask="url(#r)"/>
        </g>
        <g transform="translate(0 .103)">
            <mask id="t" fill="#fff">
                <use xlink:href="#s"/>
            </mask>
            <path fill="#8F8F8F" d="M29.827 11.284l-.34.252-.188.033-.373.065-.374.066.033.186-.033-.186-.186.033.186-.033.374-.066.373-.065.187-.033.34-.252s-.219-.153-.406-.12l-.373.065-.374.066-.373.066c-.187.032-.154.218-.34.251 0 0-.187.033-.154.22l.033.185.033.186.22.154s.186-.033.219.153l.186-.033-.033-.186.033.186.56-.098c.374-.066.56-.099.715-.318.186-.033.153-.219.153-.219l.154-.219c-.033-.186-.033-.186-.252-.339" mask="url(#t)"/>
        </g>
        <g transform="translate(0 .103)">
            <mask id="v" fill="#fff">
                <use xlink:href="#u"/>
            </mask>
            <path fill="#000" d="M45.06 10.334l-16.617 2.92c-3.922.69-2.88 5.495-2.802 7.016l4.05 22.89 1.711 9.676c.725 4.094 2.878 4.291 5.492 3.832l14.19-2.494c5.976-1.05 5.68-2.724 5.054-6.26L53.636 33.77a528132.81 528132.81 0 0 0-3.128-17.678c-.088-2.672-.78-6.58-5.447-5.759" mask="url(#v)"/>
        </g>
        <g transform="translate(0 .103)">
            <mask id="x" fill="#fff">
                <use xlink:href="#w"/>
            </mask>
            <path fill="#8F8F8F" d="M40.93 12.02l-1.867.327-3.734.657c-.373.065-3.394.404-2.109 1.138.406.12.967.022 1.34-.044l3.174-.558 3.361-.59c1.307-.23.77-1.095-.164-.93" mask="url(#x)"/>
        </g>
        <g transform="translate(0 .103)">
            <mask id="z" fill="#fff">
                <use xlink:href="#y"/>
            </mask>
            <path fill="#000" d="M37.026 50.888c-1.274.416-2.24.394-3.613.252l-1.22-.362c-.45 1.806.318 3.974 1.856 5.047 1.318.92 3.185.591 4.46.176 1.46-.449 3.14-.744 3.218-2.485.022-.963.352-2.364.154-3.48l-4.855.852" mask="url(#z)"/>
        </g>
        <g transform="translate(0 .103)">
            <mask id="B" fill="#fff">
                <use xlink:href="#A"/>
            </mask>
            <path fill="#FFF" d="M54.655 46.064l-.823-4.653-1.415-8.001-.56-3.164-2.206-12.468-.362-2.047c-.428-2.42-1.988-2.529-3.482-2.266l-4.481.787c-2.614.46-5.415.952-8.062 1.225l-3.548.623c-1.12.197-3.361.591-2.966 2.824l2.437 13.77.79 4.467 1.679 9.49.494 2.792c.164.93.34 3.01 4.107 2.54 1.494-.263 14.598-2.373 15.905-2.603 2.954-.711 2.56-2.944 2.493-3.316" mask="url(#B)"/>
        </g>
        <g transform="translate(0 .103)">
            <mask id="D" fill="#fff">
                <use xlink:href="#C"/>
            </mask>
            <path fill="#9FA8BE" d="M41.145 48.054c.033.186 0 0 0 0" mask="url(#D)"/>
        </g>
        <g transform="translate(0 .103)">
            <mask id="F" fill="#fff">
                <use xlink:href="#E"/>
            </mask>
            <path fill="#2B3445" d="M30.67 34.545c.186-.033.186-.033 0 0 .186-.033.186-.033 0 0" mask="url(#F)"/>
        </g>
        <g transform="translate(0 .103)">
            <mask id="H" fill="#fff">
                <use xlink:href="#G"/>
            </mask>
            <path fill="#725048" d="M29.133 23.686c-.604 2.025-2.021 3.81-3.472 5.407-1.142 1.16-2.845 2.419-3.58 3.7-.188 3.294-1.528 6.6-3.528 9.446-.12.404-.241.81-.176 1.182l.034.186c.251 3.601.317 7.235.756 10.804.395 2.233.482 4.904-.902 6.874 1.692-2.408 4.58-3.491 6.778-5.22.834-.723 1.45-1.598 2.504-2.167.527-.285 1.428-.635 1.703-1.26 1.11-1.346.209-4.257-.054-5.746-.274-2.638.011-5.374-.45-7.98-.362-2.047-.252-3.6.792-5.32.154-.218.34-.251.494-.47.154-.219.34-.252.495-.47.615-.876 1.01-1.905 1-3.055.23-1.959-.176-5.341-2.394-5.91" mask="url(#H)"/>
        </g>
        <g transform="translate(0 .103)">
            <mask id="J" fill="#fff">
                <use xlink:href="#I"/>
            </mask>
            <path fill="#725048" d="M48.914 22.32c-.099-.558-.197-1.116-.11-1.707 1.747.077 7.425.614 6.052 3.733-1.285 2.529-5.459-.383-5.942-2.025" mask="url(#J)"/>
        </g>
        <g transform="translate(0 .103)">
            <mask id="L" fill="#fff">
                <use xlink:href="#K"/>
            </mask>
            <path fill="#725048" d="M49.814 28.494c-.099-.558-.198-1.116-.11-1.707 1.747.077 7.425.614 6.052 3.733-1.286 2.529-5.46-.384-5.942-2.026" mask="url(#L)"/>
        </g>
        <g transform="translate(0 .103)">
            <mask id="N" fill="#fff">
                <use xlink:href="#M"/>
            </mask>
            <path fill="#714E46" d="M30.033 26.598c-.088.59-.582 1.062-1.11 1.346-.527.285-1.153.011-1.592-.295-.22-.154-.56.098-.34.251.472.493 1.284.734 2.031.603.714-.318 1.176-.975 1.418-1.785.12-.405-.473-.492-.407-.12" mask="url(#N)"/>
        </g>
        <g transform="translate(0 .103)">
            <mask id="P" fill="#fff">
                <use xlink:href="#O"/>
            </mask>
            <path fill="#714E46" d="M51.528 21.861c-.549 1.248-1.966-.23-2.438-.723-.22-.153-.56.099-.34.252.472.493.944.985 1.57 1.26.22.152.626.273.966.021.374-.065.495-.47.649-.69.154-.218-.253-.339-.407-.12" mask="url(#P)"/>
        </g>
        <g transform="translate(0 .103)">
            <mask id="R" fill="#fff">
                <use xlink:href="#Q"/>
            </mask>
            <path fill="#714E46" d="M52.428 28.035c-.461.657-1.56-.11-2.031-.602-.22-.154-.56.098-.341.251.692.646 2.01 1.566 2.778.472.187-.033-.065-.373-.406-.121" mask="url(#R)"/>
        </g>
        <g transform="translate(0 .103)">
            <mask id="T" fill="#fff">
                <use xlink:href="#S"/>
            </mask>
            <path fill="#D6D6D6" d="M47.164 51.601c-.593-.087-1.34.044-1.9.142l-2.801.493c-.374.065-3.02.339-1.67 1.444.253.34 1 .208 1.186.176l2.428-.427 2.427-.427c1.12-.196 1.703-1.258.33-1.4" mask="url(#T)"/>
        </g>
        <g transform="translate(0 .103)">
            <mask id="V" fill="#fff">
                <use xlink:href="#U"/>
            </mask>
            <path fill="#FF7900" d="M40.736 67.505c-.505-.678-20.438-12.142-22.931-12.087-1.527.076-3 2.637-3.801 3.546-1.385 1.97-3.977 4.728-4.548 6.939-1.33 4.455 3.59 7.236 7.006 9.13 4.074 2.354 9.555 1.774 14.102 1.36 3.427-.22 13.368-3.885 10.172-8.888" mask="url(#V)"/>
        </g>
        <g transform="translate(0 .103)">
            <mask id="X" fill="#fff">
                <use xlink:href="#W"/>
            </mask>
            <path fill="#000" d="M12.07 65.443c-.308.438-.429.843-.77 1.095-.46.657.418 1.27.88.613.307-.438.428-.843.768-1.094.308-.438-.57-1.051-.878-.614" mask="url(#X)"/>
        </g>
        <g transform="translate(0 .103)">
            <mask id="Z" fill="#fff">
                <use xlink:href="#Y"/>
            </mask>
            <path fill="#000" d="M14.838 61.503c-.34.252-.461.657-.582 1.062-.154.219.099.558.318.711.22.154.56-.098.714-.317 0 0-.033-.186.154-.219l.308-.438c.154-.219.088-.59-.132-.744-.253-.34-.626-.274-.78-.055" mask="url(#Z)"/>
        </g>
        <g transform="translate(0 .103)">
            <mask id="ab" fill="#fff">
                <use xlink:href="#aa"/>
            </mask>
            <path fill="#000" d="M17.145 58.22c-.186.032-.34.251-.307.437l-.154.22.033.185c-.154.22-.088.591.132.745.22.153.592.088.746-.131l.154-.22.154-.218s-.033-.186.154-.22c.153-.218.274-.623.055-.776-.44-.307-.813-.241-.967-.022" mask="url(#ab)"/>
        </g>
        <g transform="translate(0 .103)">
            <mask id="ad" fill="#fff">
                <use xlink:href="#ac"/>
            </mask>
            <path fill="#87B2D3" d="M14.167 69.68c-.22-.153-.56.098-.714.317 0 0 .033.186-.153.22l.032.185s-.187.033-.153.219c-.154.219-.275.624-.056.777.22.154.627.274.78.055.34-.252.648-.69.77-1.094-.034-.187-.286-.526-.506-.68" mask="url(#ad)"/>
        </g>
        <g transform="translate(0 .103)">
            <mask id="af" fill="#fff">
                <use xlink:href="#ae"/>
            </mask>
            <path fill="#000" d="M15.969 65.718c-.22-.154-.56.098-.714.317-.12.405-.429.843-.736 1.28-.154.22.099.559.318.712.22.154.56-.098.714-.317.121-.405.429-.843.736-1.28.121-.406-.098-.56-.318-.712" mask="url(#af)"/>
        </g>
        <g transform="translate(0 .103)">
            <mask id="ah" fill="#fff">
                <use xlink:href="#ag"/>
            </mask>
            <path fill="#000" d="M17.441 63.156c-.187.033-.34.252-.494.471-.187.033-.154.22-.154.22-.154.218-.088.59.132.743.22.154.593.088.747-.13l.153-.22c.154-.219.121-.405.088-.591.154-.219-.285-.525-.472-.493" mask="url(#ah)"/>
        </g>
        <g transform="translate(0 .103)">
            <mask id="aj" fill="#fff">
                <use xlink:href="#ai"/>
            </mask>
            <path fill="#000" d="M19.66 60.464c-.187.033-.187.033-.34.252l-.187.032c-.187.033-.34.252-.275.624.033.187.286.526.66.46.186-.033.186-.033.34-.252l.186-.032c.187-.033.34-.252.275-.624-.066-.372-.319-.712-.659-.46" mask="url(#aj)"/>
        </g>
        <g transform="translate(0 .103)">
            <mask id="al" fill="#fff">
                <use xlink:href="#ak"/>
            </mask>
            <path fill="#87B2D3" d="M15.66 72.68l-.154.218c-.186.033-.153.219-.307.438s-.088.591.132.744c.22.154.593.088.747-.13 0 0 .186-.034.153-.22.187-.033.154-.219.308-.438.154-.218.088-.59-.132-.744-.22-.153-.593-.088-.746.131" mask="url(#al)"/>
        </g>
        <g transform="translate(0 .103)">
            <mask id="an" fill="#fff">
                <use xlink:href="#am"/>
            </mask>
            <path fill="#000" d="M18.462 68.925c-.187.033-.34.252-.495.47 0 0 .033.187-.153.22-.154.219-.089.59.131.744.22.153.593.088.747-.131.154-.219.308-.438.242-.81.12-.405-.285-.526-.472-.493" mask="url(#an)"/>
        </g>
        <g transform="translate(0 .103)">
            <mask id="ap" fill="#fff">
                <use xlink:href="#ao"/>
            </mask>
            <path fill="#000" d="M21.78 63.737c-.22-.153-.56.099-.715.318 0 0 .033.186-.153.218l-.154.22s-.187.032-.154.218c-.154.22-.274.624-.055.777.22.154.626.274.78.055.34-.252.648-.69.769-1.094-.066-.373-.099-.558-.318-.712" mask="url(#ap)"/>
        </g>
        <g transform="translate(0 .103)">
            <mask id="ar" fill="#fff">
                <use xlink:href="#aq"/>
            </mask>
            <path fill="#87B2D3" d="M19.647 72.363c-.153.219-.46.656-.428.842-.154.22.099.559.318.712.22.153.56-.099.715-.318 0 0-.034-.186.153-.219l.308-.437c.153-.22.088-.591-.132-.745-.406-.12-.78-.054-.934.165" mask="url(#ar)"/>
        </g>
        <g transform="translate(0 .103)">
            <mask id="at" fill="#fff">
                <use xlink:href="#as"/>
            </mask>
            <path fill="#000" d="M21.669 68.554l-.275.623c-.153.22-.088.591.132.745.22.153.593.087.747-.131l.307-.438c.154-.22.088-.591-.131-.745-.253-.339-.626-.273-.78-.054" mask="url(#at)"/>
        </g>
        <g transform="translate(0 .103)">
            <mask id="av" fill="#fff">
                <use xlink:href="#au"/>
            </mask>
            <path fill="#000" d="M23.416 65.368l-.308.438c-.154.22-.088.591.132.745.22.153.593.087.747-.132l.307-.437c.154-.22.088-.591-.131-.745-.22-.153-.407-.12-.747.131" mask="url(#av)"/>
        </g>
        <g transform="translate(0 .103)">
            <mask id="ax" fill="#fff">
                <use xlink:href="#aw"/>
            </mask>
            <path fill="#000" d="M26.03 61.647c-.186.033-.527.285-.494.47 0 0-.154.22-.121.406.066.372.286.525.66.46.186-.033.526-.285.493-.471-.033-.186.121-.405.088-.591 0 0-.439-.307-.626-.274" mask="url(#ax)"/>
        </g>
        <g transform="translate(0 .103)">
            <mask id="az" fill="#fff">
                <use xlink:href="#ay"/>
            </mask>
            <path fill="#000" d="M23.186 60.804c-.747.131-.55 1.248.197 1.116.747-.131.55-1.248-.197-1.116" mask="url(#az)"/>
        </g>
        <g transform="translate(0 .103)">
            <mask id="aB" fill="#fff">
                <use xlink:href="#aA"/>
            </mask>
            <path fill="#000" d="M25.117 70.634c.033.186.033.186 0 0l-.153.219c-.187.033-.154.219-.308.438-.154.218-.088.59.132.744.22.153.593.087.747-.131 0 0 .187-.033.153-.22.187-.032.154-.218.308-.437.154-.22.088-.591-.132-.744-.22-.154-.406-.121-.747.13" mask="url(#aB)"/>
        </g>
        <g transform="translate(0 .103)">
            <mask id="aD" fill="#fff">
                <use xlink:href="#aC"/>
            </mask>
            <path fill="#000" d="M28.545 67.153c-.22-.153-.56.099-.714.318l-.154.219-.308.437c-.153.22.1.559.319.712.22.153.56-.099.714-.317l.154-.22.307-.437c.154-.219-.098-.558-.318-.712" mask="url(#aD)"/>
        </g>
        <g transform="translate(0 .103)">
            <mask id="aF" fill="#fff">
                <use xlink:href="#aE"/>
            </mask>
            <path fill="#000" d="M29.984 64.406c-.187.033-.187.033-.34.252l-.187.033c-.187.032-.34.251-.275.623.033.186.286.526.659.46.187-.032.187-.032.34-.251l.187-.033c.187-.033.34-.252.275-.624-.066-.372-.286-.526-.659-.46" mask="url(#aF)"/>
        </g>
        <g transform="translate(0 .103)">
            <mask id="aH" fill="#fff">
                <use xlink:href="#aG"/>
            </mask>
            <path fill="#87B2D3" d="M27.962 74.74c-.154.218-.495.47-.649.689-.153.218-.088.59.132.744.22.153.593.087.747-.131l.154-.22.186-.032s.187-.033.155-.219c.153-.219.274-.624.055-.777-.253-.34-.44-.307-.78-.055" mask="url(#aH)"/>
        </g>
        <g transform="translate(0 .103)">
            <mask id="aJ" fill="#fff">
                <use xlink:href="#aI"/>
            </mask>
            <path fill="#000" d="M29.642 71.182c-.153.219-.274.624-.428.842-.154.22.099.559.318.712.22.153.56-.099.715-.317-.034-.187.153-.22.12-.405 0 0-.033-.186.154-.22.154-.218.088-.59-.131-.744-.22-.153-.593-.087-.748.132" mask="url(#aJ)"/>
        </g>
        <g transform="translate(0 .103)">
            <mask id="aL" fill="#fff">
                <use xlink:href="#aK"/>
            </mask>
            <path fill="#000" d="M32.433 66.278c-.22-.153-.56.099-.714.317.033.187-.154.22-.12.406-.155.218-.276.624-.056.777.22.153.626.273.78.054.34-.251.461-.656.582-1.061-.187.033-.252-.34-.472-.493" mask="url(#aL)"/>
        </g>
        <g transform="translate(0 .103)">
            <mask id="aN" fill="#fff">
                <use xlink:href="#aM"/>
            </mask>
            <path fill="#000" d="M32.223 73.798c-.34.252-.68.504-.802.909-.153.219.1.558.319.711.22.153.56-.098.714-.317.186-.033.154-.219.34-.252.154-.219.275-.624.055-.777-.066-.372-.472-.493-.626-.274" mask="url(#aN)"/>
        </g>
        <g transform="translate(0 .103)">
            <mask id="aP" fill="#fff">
                <use xlink:href="#aO"/>
            </mask>
            <path fill="#000" d="M33.597 70.679c.033.186.033.186 0 0-.34.252-.495.47-.429.842.033.187.286.526.66.46.373-.065.526-.284.68-.503.154-.219.088-.591-.131-.744-.253-.34-.626-.274-.78-.055" mask="url(#aP)"/>
        </g>
        <g transform="translate(0 .103)">
            <mask id="aR" fill="#fff">
                <use xlink:href="#aQ"/>
            </mask>
            <path fill="#000" d="M35.222 67.899l-.307.437c-.154.22-.088.591.132.745.22.153.593.087.747-.132l.307-.437c.154-.22.088-.591-.131-.745-.22-.153-.593-.087-.748.132" mask="url(#aR)"/>
        </g>
        <g transform="translate(0 .103)">
            <mask id="aT" fill="#fff">
                <use xlink:href="#aS"/>
            </mask>
            <path fill="#000" d="M36.42 72.485c-.188.033-.341.252-.495.47 0 0 .033.187-.154.22-.154.218-.088.591.132.744.22.153.593.088.747-.131.153-.22.307-.438.241-.81.121-.405-.285-.526-.472-.493" mask="url(#aT)"/>
        </g>
        <g transform="translate(0 .103)">
            <mask id="aV" fill="#fff">
                <use xlink:href="#aU"/>
            </mask>
            <path fill="#000" d="M37.265 69.65s-.187.033 0 0c-.307.438-.242.81-.022.963.22.154.593.088.747-.13l.154-.22c.153-.219.088-.59-.132-.744-.22-.153-.593-.088-.747.131" mask="url(#aV)"/>
        </g>
        <g transform="translate(0 .103)">
            <mask id="aX" fill="#fff">
                <use xlink:href="#aW"/>
            </mask>
            <path fill="#87B2D3" d="M23.03 74.07s-.187.033 0 0l-.154.22c-.186.032-.153.218-.307.437s-.088.591.132.745c.219.153.593.087.746-.132 0 0 .187-.032.154-.219.187-.032.154-.218.308-.437.153-.22.088-.591-.132-.745-.44-.306-.626-.273-.747.132" mask="url(#aX)"/>
        </g>
        <g transform="translate(0 .103)">
            <mask id="aZ" fill="#fff">
                <use xlink:href="#aY"/>
            </mask>
            <path fill="#FFB327" d="M43.14 39.536l-.572-3.253a.348.348 0 0 0-.402-.28l-1.083.189a.347.347 0 0 0-.282.4l.29 1.64-1.19.208.153.865 1.189-.209.132.75a2.39 2.39 0 0 0-1.096 2.445 2.4 2.4 0 0 0 2.78 1.943 2.394 2.394 0 0 0 1.949-2.771 2.397 2.397 0 0 0-1.867-1.927" mask="url(#aZ)"/>
        </g>
        <path fill="#B7B7B7" d="M45.061 27.497s-.663-6.754-5.694-6.371c-5.031.382-4.1 5.123-4.1 5.123l.865-.196s-.957-3.369 2.413-4.206c3.431-.851 4.956 1.828 5.591 5.812l.925-.162z"/>
        <g transform="translate(0 .103)">
            <mask id="bb" fill="#fff">
                <use xlink:href="#ba"/>
            </mask>
            <path fill="#B7B7B7" d="M37.552 21.77c-.527.24-.954.573-1.28.998-.798 1.041-.79 2.39-.737 2.998l.226-.052c-.093-.542-.185-1.675.398-2.677.317-.545.783-.969 1.393-1.267m6.841 5.424l.318-.055c-.084-.542-.323-1.769-.899-2.952-.631-1.298-1.463-2.159-2.484-2.575.151.07.298.152.439.245 1.288.85 2.148 2.598 2.626 5.337m.722.508l-.925.161a.313.313 0 0 1-.363-.258c-.208-1.306-.505-2.399-.883-3.249-.405-.913-.918-1.58-1.523-1.978-.76-.502-1.676-.61-2.8-.33-.902.223-1.548.661-1.92 1.301-.653 1.122-.272 2.502-.268 2.516a.31.31 0 0 1-.232.39l-.863.196a.31.31 0 0 1-.377-.244c-.018-.09-.417-2.207.81-3.813.759-.994 1.96-1.56 3.572-1.682 2.197-.167 3.94.945 5.04 3.217a11.29 11.29 0 0 1 .99 3.435.312.312 0 0 1-.258.338" mask="url(#bb)"/>
        </g>
        <g transform="translate(0 .103)">
            <mask id="bd" fill="#fff">
                <use xlink:href="#bc"/>
            </mask>
            <path fill="#4E251C" d="M46.132 36.58l-8.702 1.523a1.89 1.89 0 0 1-2.182-1.526l-1.208-6.854a1.884 1.884 0 0 1 1.53-2.175l8.702-1.523a1.89 1.89 0 0 1 2.182 1.525l1.208 6.854a1.885 1.885 0 0 1-1.53 2.175" mask="url(#bd)"/>
        </g>
        <g transform="translate(0 .103)">
            <mask id="bf" fill="#fff">
                <use xlink:href="#be"/>
            </mask>
            <path fill="#CE4A37" d="M46.375 36.537l-8.273 1.448a1.89 1.89 0 0 1-2.183-1.525l-1.208-6.854a1.885 1.885 0 0 1 1.53-2.176l8.274-1.448a1.89 1.89 0 0 1 2.182 1.526l1.208 6.854a1.885 1.885 0 0 1-1.53 2.175" mask="url(#bf)"/>
        </g>
        <g transform="translate(0 .103)">
            <mask id="bh" fill="#fff">
                <use xlink:href="#bg"/>
            </mask>
            <path fill="#DC891A" d="M44.463 31.81a3.01 3.01 0 0 1-2.45 3.484 3.018 3.018 0 0 1-3.496-2.443 3.009 3.009 0 0 1 2.45-3.484 3.018 3.018 0 0 1 3.496 2.443" mask="url(#bh)"/>
        </g>
        <g transform="translate(0 .103)">
            <mask id="bj" fill="#fff">
                <use xlink:href="#bi"/>
            </mask>
            <path fill="#FFB327" d="M44.097 31.874a3.01 3.01 0 0 1-2.45 3.484 3.018 3.018 0 0 1-3.497-2.443 3.01 3.01 0 0 1 2.452-3.484 3.018 3.018 0 0 1 3.495 2.443" mask="url(#bj)"/>
        </g>
        <g transform="translate(0 .103)">
            <mask id="bl" fill="#fff">
                <use xlink:href="#bk"/>
            </mask>
            <path fill="#DC891A" d="M44.224 41.532a1.519 1.519 0 0 1-1.237 1.758 1.518 1.518 0 0 1-.527-2.99 1.522 1.522 0 0 1 1.764 1.232" mask="url(#bl)"/>
        </g>
        <g transform="translate(0 .103)">
            <mask id="bn" fill="#fff">
                <use xlink:href="#bm"/>
            </mask>
            <path fill="#F1F1F1" d="M44.04 41.564a1.519 1.519 0 0 1-1.238 1.758 1.518 1.518 0 1 1-.527-2.99 1.522 1.522 0 0 1 1.764 1.232" mask="url(#bn)"/>
        </g>
        <g transform="translate(0 .103)">
            <mask id="bp" fill="#fff">
                <use xlink:href="#bo"/>
            </mask>
            <path fill="#F1F1F1" d="M42.278 40.347a1.505 1.505 0 0 0-1.224 1.74 1.509 1.509 0 0 0 1.746 1.22 1.504 1.504 0 0 0 1.224-1.74 1.509 1.509 0 0 0-1.746-1.22m.527 2.99a1.54 1.54 0 0 1-1.782-1.245 1.536 1.536 0 0 1 1.25-1.776 1.54 1.54 0 0 1 1.782 1.245 1.536 1.536 0 0 1-1.25 1.776" mask="url(#bp)"/>
        </g>
        <g transform="translate(0 .103)">
            <mask id="br" fill="#fff">
                <use xlink:href="#bq"/>
            </mask>
            <path fill="#FFDD4D" d="M45.864 44.847a4.262 4.262 0 0 1-.985-.723c-.13-.13-.353.056-.22.187.31.306.655.566 1.039.772.162.087.33-.148.166-.236" mask="url(#br)"/>
        </g>
        <g transform="translate(0 .103)">
            <mask id="bt" fill="#fff">
                <use xlink:href="#bs"/>
            </mask>
            <path fill="#FFDD4D" d="M46.672 43.24a8.533 8.533 0 0 1-1.073-.267c-.177-.056-.279.214-.101.27.376.12.758.215 1.146.285.184.033.21-.254.028-.287" mask="url(#bt)"/>
        </g>
        <g transform="translate(0 .103)">
            <mask id="bv" fill="#fff">
                <use xlink:href="#bu"/>
            </mask>
            <path fill="#FFDD4D" d="M46.566 40.9l-1.017.23c-.18.04-.131.324.05.283l1.017-.229c.181-.04.132-.325-.05-.284" mask="url(#bv)"/>
        </g>
        <g transform="translate(0 .103)">
            <mask id="bx" fill="#fff">
                <use xlink:href="#bw"/>
            </mask>
            <path fill="#FFDD4D" d="M40.726 44.247c-.431.23-.82.526-1.152.885-.124.135.06.357.187.22.315-.34.68-.626 1.09-.845.162-.087.04-.349-.125-.26" mask="url(#bx)"/>
        </g>
        <g transform="translate(0 .103)">
            <mask id="bz" fill="#fff">
                <use xlink:href="#by"/>
            </mask>
            <path fill="#FFDD4D" d="M39.673 42.81c-.366.01-.73.046-1.092.11-.15.026-.11.258.04.232.34-.06.684-.098 1.03-.108.15-.005.174-.24.022-.235" mask="url(#bz)"/>
        </g>
        <path fill="#FFDD4D" d="M39.769 41.13c-.158-.1-.345-.152-.52-.215l-.593-.216c-.175-.064-.275.206-.1.27l.541.197c.165.06.357.105.506.2.156.1.323-.135.166-.236M45.526 39.112c-.368.23-.716.489-1.04.779-.137.123.049.344.188.22.305-.273.63-.521.976-.739.156-.097.034-.36-.124-.26M44.346 46.096l-.36-1.112c-.062-.189-.342-.055-.281.133l.36 1.112c.061.188.341.055.28-.133M42.257 45.099l-.037 1.092c-.007.198.302.228.31.03.011-.365.024-.729.036-1.093.007-.198-.302-.228-.31-.03"/>
        <g fill="#FFF">
            <path d="M13.487 18.69l3.03 1.5c.873.432 1.644-.875.767-1.309l-3.03-1.5c-.873-.432-1.644.874-.767 1.308M12.184 28.025l3.791.707c.956.178 1.366-1.282.404-1.46l-3.79-.707c-.957-.179-1.367 1.281-.405 1.46M13.149 37.318l3.778-.299c.968-.076.977-1.592 0-1.515l-3.778.3c-.969.076-.977 1.591 0 1.514M19.427 10.455l1.78 2.25c.255.32.81.265 1.076 0 .318-.318.255-.75 0-1.072l-1.781-2.249c-.255-.321-.809-.265-1.075 0-.318.318-.255.75 0 1.071M30.335 6.854l.499 1.258c.15.38.508.646.935.53.363-.1.682-.55.53-.932L31.8 6.45c-.15-.38-.508-.645-.935-.529-.363.1-.682.55-.53.932M61.025 51.5l3.523.32c.974.09.968-1.427 0-1.514l-3.523-.32c-.974-.089-.968 1.427 0 1.515M56.451 58.21l2.006 1.026c.869.445 1.639-.862.768-1.308l-2.006-1.027c-.87-.445-1.64.863-.768 1.309"/>
        </g>
        <g>
            <g transform="translate(0 .103)">
                <mask id="bB" fill="#fff">
                    <use xlink:href="#bA"/>
                </mask>
                <path fill="#50BE87" d="M37.92.155c20.944 0 37.921 16.92 37.921 37.792s-16.977 37.792-37.92 37.792C16.977 75.739 0 58.819 0 37.947S16.977.155 37.92.155" mask="url(#bB)"/>
            </g>
            <g transform="translate(0 .103)">
                <mask id="bD" fill="#fff">
                    <use xlink:href="#bC"/>
                </mask>
                <path fill="#725048" d="M52.328 40.524c-1.813-.448-4.24-.022-5.745-.909-4.733-2.813-9.313-5.846-13.552-9.13-.703 1.466-1.56 3.152-2.296 4.432-.857 1.686-1.9 3.404-2.944 5.122-.583 1.062-.199 2.146-.78 3.208-.737 1.28-1.978 1.882-2.527 3.13-.396 1.029-.978 2.09-.967 3.24-.022.963-.044 1.926-.286 2.736-.572 2.211-1.176 4.236-2.78 6.053-1.142 1.16-1.966 3.032-2.67 4.499-1.164 2.123-3.262 4.41-1.066 5.943 3.328 2.486 7.776 4.774 11.653 6.011 2.877 1.03 5.744.91 7.15-2.024 1.1-2.495 1.012-5.166 3.143-7.267 1.79-1.85 4.558-2.528 6.349-4.378 2.625-2.572 4.68-6.195 6.207-9.533 1.406-2.934 3.34-6.152 2.934-9.534.175-1.182-1.043-1.544-1.823-1.599" mask="url(#bD)"/>
            </g>
            <g transform="translate(0 .103)">
                <mask id="bF" fill="#fff">
                    <use xlink:href="#bE"/>
                </mask>
                <path fill="#725048" d="M57.326 35.041c.406.12 1 .208 1.438.515.22.153-3.636 7.738-5.613 6.359-2.449-1.872 1.682-6.82 4.175-6.874" mask="url(#bF)"/>
            </g>
            <g transform="translate(0 .103)">
                <mask id="bH" fill="#fff">
                    <use xlink:href="#bG"/>
                </mask>
                <path fill="#725048" d="M52.659 29.338c-.495.47-2.197 1.729-2.856 1.269-1.066-.58 1.626-2.78 2.12-3.25.802-.91 1.637-1.632 2.439-2.54.494-.47.922-1.313.417-1.992-.505-.679-1.34.044-1.867.328-2.57 1.795-5.075 3.962-7.392 6.096-1.33 1.193-2.692 2.2-4.054 3.207-.835.722-1.79 1.85-2.977 1.674-.812-.24-1.943-1.193-2.493.054-.275.624-.483 1.62-.505 2.584l-.166 2.331c-.175 1.182.022 2.299.22 3.415.23 1.303-.232 5.222-.232 5.222.703 1.795.626 3.535 2.746 3.547 1.746.077 3.954-.503 5.47-1.729.834-.722.922-1.314 2.109-1.138.999.208 1.877.821 2.811.657.747-.131 1.264-1.565 1.725-2.222.89-1.5 1.966-3.032 2.604-4.87.395-1.03.977-2.091 1.186-3.087.21-.996.605-2.025.594-3.174-.01-1.15-.923-1.95-.933-3.098-.011-1.15 1.01-1.905.967-3.24-.066-.372-.165-.93-.571-1.051-.747.131-1.022.755-1.362 1.007" mask="url(#bH)"/>
            </g>
            <g transform="translate(0 .103)">
                <mask id="bJ" fill="#fff">
                    <use xlink:href="#bI"/>
                </mask>
                <path fill="#725048" d="M52.276 18.468l-.77 1.094c-.428.843-.538 2.398-1.625 2.78-1.088.384-1.856-1.784-2.175-2.495-.516-1.828 1.154-3.273 2.516-4.28 1.549-1.04 3.109-.93 3.998.833-.527.284-1.33 1.192-1.944 2.068" mask="url(#bJ)"/>
            </g>
            <g transform="translate(0 .103)">
                <mask id="bL" fill="#fff">
                    <use xlink:href="#bK"/>
                </mask>
                <path fill="#725048" d="M53.438 29.392l-.428.843c.033.186.648 2.573.834 2.54 1.242-.602 2.472-2.353 1.835-3.776-.286-.526-1.515-2.036-2.317-1.128-.308.438.384 1.084.076 1.521" mask="url(#bL)"/>
            </g>
            <g transform="translate(0 .103)">
                <mask id="bN" fill="#fff">
                    <use xlink:href="#bM"/>
                </mask>
                <path fill="#8F8F8F" d="M47.983 9.437c-1.472-.701-2.966-.438-4.833-.11l-6.162 1.083-5.415.951c-1.494.263-4.295.755-5.437 1.915-.989.941-1.406 2.933-1.33 4.455.12 2.857 1.021 5.769 1.515 8.56l1.844 10.421 1.547 8.746 1.087 6.141c.296 1.675.285 3.788 1.976 4.641 1.065.58 2.625.69 3.932.46 1.9-.141 3.734-.655 5.602-.984 2.24-.393 4.294-.754 6.502-1.334 1.834-.514 4.36-.383 5.91-1.422 1.921-1.105 2.12-3.251 1.724-5.484-1.327-8.593-3.248-17.273-4.356-25.713-.242-2.452-1.043-4.806-1.471-7.225-.362-2.047-.538-4.127-2.635-5.101" mask="url(#bN)"/>
            </g>
            <g transform="translate(0 .103)">
                <mask id="bP" fill="#fff">
                    <use xlink:href="#bO"/>
                </mask>
                <path fill="#595959" d="M30.046 11.438c-.373.065-.78-.055-1.526.076-.374.065-.528.284-.714.317.032.186.066.372.285.526.22.153.78.055.967.022.373-.066.56-.099.714-.318.373-.065.153-.218.274-.623" mask="url(#bP)"/>
            </g>
            <g transform="translate(0 .103)">
                <mask id="bR" fill="#fff">
                    <use xlink:href="#bQ"/>
                </mask>
                <path fill="#242B37" d="M28.333 11.547c-.374.065-.681.503-.088.59.78.056 1.087-.382.835-.721l-.747.13" mask="url(#bR)"/>
            </g>
            <g transform="translate(0 .103)">
                <mask id="bT" fill="#fff">
                    <use xlink:href="#bS"/>
                </mask>
                <path fill="#8F8F8F" d="M29.827 11.284l-.34.252-.188.033-.373.065-.374.066.033.186-.033-.186-.186.033.186-.033.374-.066.373-.065.187-.033.34-.252s-.219-.153-.406-.12l-.373.065-.374.066-.373.066c-.187.032-.154.218-.34.251 0 0-.187.033-.154.22l.033.185.033.186.22.154s.186-.033.219.153l.186-.033-.033-.186.033.186.56-.098c.374-.066.56-.099.715-.318.186-.033.153-.219.153-.219l.154-.219c-.033-.186-.033-.186-.252-.339" mask="url(#bT)"/>
            </g>
            <g transform="translate(0 .103)">
                <mask id="bV" fill="#fff">
                    <use xlink:href="#bU"/>
                </mask>
                <path fill="#000" d="M45.06 10.334l-16.617 2.92c-3.922.69-2.88 5.495-2.802 7.016l4.05 22.89 1.711 9.676c.725 4.094 2.878 4.291 5.492 3.832l14.19-2.494c5.976-1.05 5.68-2.724 5.054-6.26L53.636 33.77a528132.81 528132.81 0 0 0-3.128-17.678c-.088-2.672-.78-6.58-5.447-5.759" mask="url(#bV)"/>
            </g>
            <g transform="translate(0 .103)">
                <mask id="bX" fill="#fff">
                    <use xlink:href="#bW"/>
                </mask>
                <path fill="#8F8F8F" d="M40.93 12.02l-1.867.327-3.734.657c-.373.065-3.394.404-2.109 1.138.406.12.967.022 1.34-.044l3.174-.558 3.361-.59c1.307-.23.77-1.095-.164-.93" mask="url(#bX)"/>
            </g>
            <g transform="translate(0 .103)">
                <mask id="bZ" fill="#fff">
                    <use xlink:href="#bY"/>
                </mask>
                <path fill="#000" d="M37.026 50.888c-1.274.416-2.24.394-3.613.252l-1.22-.362c-.45 1.806.318 3.974 1.856 5.047 1.318.92 3.185.591 4.46.176 1.46-.449 3.14-.744 3.218-2.485.022-.963.352-2.364.154-3.48l-4.855.852" mask="url(#bZ)"/>
            </g>
            <g transform="translate(0 .103)">
                <mask id="cb" fill="#fff">
                    <use xlink:href="#ca"/>
                </mask>
                <path fill="#FFF" d="M54.655 46.064l-.823-4.653-1.415-8.001-.56-3.164-2.206-12.468-.362-2.047c-.428-2.42-1.988-2.529-3.482-2.266l-4.481.787c-2.614.46-5.415.952-8.062 1.225l-3.548.623c-1.12.197-3.361.591-2.966 2.824l2.437 13.77.79 4.467 1.679 9.49.494 2.792c.164.93.34 3.01 4.107 2.54 1.494-.263 14.598-2.373 15.905-2.603 2.954-.711 2.56-2.944 2.493-3.316" mask="url(#cb)"/>
            </g>
            <g transform="translate(0 .103)">
                <mask id="cd" fill="#fff">
                    <use xlink:href="#cc"/>
                </mask>
            </g>
            <g transform="translate(0 .103)">
                <mask id="cf" fill="#fff">
                    <use xlink:href="#ce"/>
                </mask>
                <path fill="#9FA8BE" d="M41.145 48.054c.033.186 0 0 0 0" mask="url(#cf)"/>
            </g>
            <g transform="translate(0 .103)">
                <mask id="ch" fill="#fff">
                    <use xlink:href="#cg"/>
                </mask>
                <path fill="#2B3445" d="M30.67 34.545c.186-.033.186-.033 0 0 .186-.033.186-.033 0 0" mask="url(#ch)"/>
            </g>
            <g transform="translate(0 .103)">
                <mask id="cj" fill="#fff">
                    <use xlink:href="#ci"/>
                </mask>
            </g>
            <g transform="translate(0 .103)">
                <mask id="cl" fill="#fff">
                    <use xlink:href="#ck"/>
                </mask>
            </g>
            <g transform="translate(0 .103)">
                <mask id="cn" fill="#fff">
                    <use xlink:href="#cm"/>
                </mask>
            </g>
            <g transform="translate(0 .103)">
                <mask id="cp" fill="#fff">
                    <use xlink:href="#co"/>
                </mask>
            </g>
            <g transform="translate(0 .103)">
                <mask id="cr" fill="#fff">
                    <use xlink:href="#cq"/>
                </mask>
            </g>
            <g transform="translate(0 .103)">
                <mask id="ct" fill="#fff">
                    <use xlink:href="#cs"/>
                </mask>
            </g>
            <g transform="translate(0 .103)">
                <mask id="cv" fill="#fff">
                    <use xlink:href="#cu"/>
                </mask>
            </g>
            <g transform="translate(0 .103)">
                <mask id="cx" fill="#fff">
                    <use xlink:href="#cw"/>
                </mask>
                <path fill="#725048" d="M29.133 23.686c-.604 2.025-2.021 3.81-3.472 5.407-1.142 1.16-2.845 2.419-3.58 3.7-.188 3.294-1.528 6.6-3.528 9.446-.12.404-.241.81-.176 1.182l.034.186c.251 3.601.317 7.235.756 10.804.395 2.233.482 4.904-.902 6.874 1.692-2.408 4.58-3.491 6.778-5.22.834-.723 1.45-1.598 2.504-2.167.527-.285 1.428-.635 1.703-1.26 1.11-1.346.209-4.257-.054-5.746-.274-2.638.011-5.374-.45-7.98-.362-2.047-.252-3.6.792-5.32.154-.218.34-.251.494-.47.154-.219.34-.252.495-.47.615-.876 1.01-1.905 1-3.055.23-1.959-.176-5.341-2.394-5.91" mask="url(#cx)"/>
            </g>
            <g transform="translate(0 .103)">
                <mask id="cz" fill="#fff">
                    <use xlink:href="#cy"/>
                </mask>
                <path fill="#725048" d="M48.914 22.32c-.099-.558-.197-1.116-.11-1.707 1.747.077 7.425.614 6.052 3.733-1.285 2.529-5.459-.383-5.942-2.025" mask="url(#cz)"/>
            </g>
            <g transform="translate(0 .103)">
                <mask id="cB" fill="#fff">
                    <use xlink:href="#cA"/>
                </mask>
                <path fill="#725048" d="M49.814 28.494c-.099-.558-.198-1.116-.11-1.707 1.747.077 7.425.614 6.052 3.733-1.286 2.529-5.46-.384-5.942-2.026" mask="url(#cB)"/>
            </g>
            <g transform="translate(0 .103)">
                <mask id="cD" fill="#fff">
                    <use xlink:href="#cC"/>
                </mask>
                <path fill="#714E46" d="M30.033 26.598c-.088.59-.582 1.062-1.11 1.346-.527.285-1.153.011-1.592-.295-.22-.154-.56.098-.34.251.472.493 1.284.734 2.031.603.714-.318 1.176-.975 1.418-1.785.12-.405-.473-.492-.407-.12" mask="url(#cD)"/>
            </g>
            <g transform="translate(0 .103)">
                <mask id="cF" fill="#fff">
                    <use xlink:href="#cE"/>
                </mask>
                <path fill="#714E46" d="M51.528 21.861c-.549 1.248-1.966-.23-2.438-.723-.22-.153-.56.099-.34.252.472.493.944.985 1.57 1.26.22.152.626.273.966.021.374-.065.495-.47.649-.69.154-.218-.253-.339-.407-.12" mask="url(#cF)"/>
            </g>
            <g transform="translate(0 .103)">
                <mask id="cH" fill="#fff">
                    <use xlink:href="#cG"/>
                </mask>
                <path fill="#714E46" d="M52.428 28.035c-.461.657-1.56-.11-2.031-.602-.22-.154-.56.098-.341.251.692.646 2.01 1.566 2.778.472.187-.033-.065-.373-.406-.121" mask="url(#cH)"/>
            </g>
            <g transform="translate(0 .103)">
                <mask id="cJ" fill="#fff">
                    <use xlink:href="#cI"/>
                </mask>
                <path fill="#D6D6D6" d="M47.164 51.601c-.593-.087-1.34.044-1.9.142l-2.801.493c-.374.065-3.02.339-1.67 1.444.253.34 1 .208 1.186.176l2.428-.427 2.427-.427c1.12-.196 1.703-1.258.33-1.4" mask="url(#cJ)"/>
            </g>
            <g transform="translate(0 .103)">
                <mask id="cL" fill="#fff">
                    <use xlink:href="#cK"/>
                </mask>
                <path fill="#BBE0D1" d="M40.736 67.505c-.505-.678-20.438-12.142-22.931-12.087-1.527.076-3 2.637-3.801 3.546-1.385 1.97-3.977 4.728-4.548 6.939-1.33 4.455 3.59 7.236 7.006 9.13 4.074 2.354 9.555 1.774 14.102 1.36 3.427-.22 13.368-3.885 10.172-8.888" mask="url(#cL)"/>
            </g>
            <g transform="translate(0 .103)">
                <mask id="cN" fill="#fff">
                    <use xlink:href="#cM"/>
                </mask>
                <path fill="#50BE87" d="M12.07 65.443c-.308.438-.429.843-.77 1.095-.46.657.418 1.27.88.613.307-.438.428-.843.768-1.094.308-.438-.57-1.051-.878-.614" mask="url(#cN)"/>
            </g>
            <g transform="translate(0 .103)">
                <mask id="cP" fill="#fff">
                    <use xlink:href="#cO"/>
                </mask>
                <path fill="#50BE87" d="M14.838 61.503c-.34.252-.461.657-.582 1.062-.154.219.099.558.318.711.22.154.56-.098.714-.317 0 0-.033-.186.154-.219l.308-.438c.154-.219.088-.59-.132-.744-.253-.34-.626-.274-.78-.055" mask="url(#cP)"/>
            </g>
            <g transform="translate(0 .103)">
                <mask id="cR" fill="#fff">
                    <use xlink:href="#cQ"/>
                </mask>
                <path fill="#50BE87" d="M17.145 58.22c-.186.032-.34.251-.307.437l-.154.22.033.185c-.154.22-.088.591.132.745.22.153.592.088.746-.131l.154-.22.154-.218s-.033-.186.154-.22c.153-.218.274-.623.055-.776-.44-.307-.813-.241-.967-.022" mask="url(#cR)"/>
            </g>
            <g transform="translate(0 .103)">
                <mask id="cT" fill="#fff">
                    <use xlink:href="#cS"/>
                </mask>
                <path fill="#87B2D3" d="M14.167 69.68c-.22-.153-.56.098-.714.317 0 0 .033.186-.153.22l.032.185s-.187.033-.153.219c-.154.219-.275.624-.056.777.22.154.627.274.78.055.34-.252.648-.69.77-1.094-.034-.187-.286-.526-.506-.68" mask="url(#cT)"/>
            </g>
            <g transform="translate(0 .103)">
                <mask id="cV" fill="#fff">
                    <use xlink:href="#cU"/>
                </mask>
                <path fill="#50BE87" d="M15.969 65.718c-.22-.154-.56.098-.714.317-.12.405-.429.843-.736 1.28-.154.22.099.559.318.712.22.154.56-.098.714-.317.121-.405.429-.843.736-1.28.121-.406-.098-.56-.318-.712" mask="url(#cV)"/>
            </g>
            <g transform="translate(0 .103)">
                <mask id="cX" fill="#fff">
                    <use xlink:href="#cW"/>
                </mask>
                <path fill="#50BE87" d="M17.441 63.156c-.187.033-.34.252-.494.471-.187.033-.154.22-.154.22-.154.218-.088.59.132.743.22.154.593.088.747-.13l.153-.22c.154-.219.121-.405.088-.591.154-.219-.285-.525-.472-.493" mask="url(#cX)"/>
            </g>
            <g transform="translate(0 .103)">
                <mask id="cZ" fill="#fff">
                    <use xlink:href="#cY"/>
                </mask>
                <path fill="#50BE87" d="M19.66 60.464c-.187.033-.187.033-.34.252l-.187.032c-.187.033-.34.252-.275.624.033.187.286.526.66.46.186-.033.186-.033.34-.252l.186-.032c.187-.033.34-.252.275-.624-.066-.372-.319-.712-.659-.46" mask="url(#cZ)"/>
            </g>
            <g transform="translate(0 .103)">
                <mask id="db" fill="#fff">
                    <use xlink:href="#da"/>
                </mask>
                <path fill="#87B2D3" d="M15.66 72.68l-.154.218c-.186.033-.153.219-.307.438s-.088.591.132.744c.22.154.593.088.747-.13 0 0 .186-.034.153-.22.187-.033.154-.219.308-.438.154-.218.088-.59-.132-.744-.22-.153-.593-.088-.746.131" mask="url(#db)"/>
            </g>
            <g transform="translate(0 .103)">
                <mask id="dd" fill="#fff">
                    <use xlink:href="#dc"/>
                </mask>
                <path fill="#50BE87" d="M18.462 68.925c-.187.033-.34.252-.495.47 0 0 .033.187-.153.22-.154.219-.089.59.131.744.22.153.593.088.747-.131.154-.219.308-.438.242-.81.12-.405-.285-.526-.472-.493" mask="url(#dd)"/>
            </g>
            <g transform="translate(0 .103)">
                <mask id="df" fill="#fff">
                    <use xlink:href="#de"/>
                </mask>
                <path fill="#50BE87" d="M21.78 63.737c-.22-.153-.56.099-.715.318 0 0 .033.186-.153.218l-.154.22s-.187.032-.154.218c-.154.22-.274.624-.055.777.22.154.626.274.78.055.34-.252.648-.69.769-1.094-.066-.373-.099-.558-.318-.712" mask="url(#df)"/>
            </g>
            <g transform="translate(0 .103)">
                <mask id="dh" fill="#fff">
                    <use xlink:href="#dg"/>
                </mask>
                <path fill="#87B2D3" d="M19.647 72.363c-.153.219-.46.656-.428.842-.154.22.099.559.318.712.22.153.56-.099.715-.318 0 0-.034-.186.153-.219l.308-.437c.153-.22.088-.591-.132-.745-.406-.12-.78-.054-.934.165" mask="url(#dh)"/>
            </g>
            <g transform="translate(0 .103)">
                <mask id="dj" fill="#fff">
                    <use xlink:href="#di"/>
                </mask>
                <path fill="#50BE87" d="M21.669 68.554l-.275.623c-.153.22-.088.591.132.745.22.153.593.087.747-.131l.307-.438c.154-.22.088-.591-.131-.745-.253-.339-.626-.273-.78-.054" mask="url(#dj)"/>
            </g>
            <g transform="translate(0 .103)">
                <mask id="dl" fill="#fff">
                    <use xlink:href="#dk"/>
                </mask>
                <path fill="#50BE87" d="M23.416 65.368l-.308.438c-.154.22-.088.591.132.745.22.153.593.087.747-.132l.307-.437c.154-.22.088-.591-.131-.745-.22-.153-.407-.12-.747.131" mask="url(#dl)"/>
            </g>
            <g transform="translate(0 .103)">
                <mask id="dn" fill="#fff">
                    <use xlink:href="#dm"/>
                </mask>
                <path fill="#50BE87" d="M26.03 61.647c-.186.033-.527.285-.494.47 0 0-.154.22-.121.406.066.372.286.525.66.46.186-.033.526-.285.493-.471-.033-.186.121-.405.088-.591 0 0-.439-.307-.626-.274" mask="url(#dn)"/>
            </g>
            <g transform="translate(0 .103)">
                <mask id="dp" fill="#fff">
                    <use xlink:href="#do"/>
                </mask>
                <path fill="#50BE87" d="M23.186 60.804c-.747.131-.55 1.248.197 1.116.747-.131.55-1.248-.197-1.116" mask="url(#dp)"/>
            </g>
            <g transform="translate(0 .103)">
                <mask id="dr" fill="#fff">
                    <use xlink:href="#dq"/>
                </mask>
                <path fill="#50BE87" d="M25.117 70.634c.033.186.033.186 0 0l-.153.219c-.187.033-.154.219-.308.438-.154.218-.088.59.132.744.22.153.593.087.747-.131 0 0 .187-.033.153-.22.187-.032.154-.218.308-.437.154-.22.088-.591-.132-.744-.22-.154-.406-.121-.747.13" mask="url(#dr)"/>
            </g>
            <g transform="translate(0 .103)">
                <mask id="dt" fill="#fff">
                    <use xlink:href="#ds"/>
                </mask>
                <path fill="#50BE87" d="M28.545 67.153c-.22-.153-.56.099-.714.318l-.154.219-.308.437c-.153.22.1.559.319.712.22.153.56-.099.714-.317l.154-.22.307-.437c.154-.219-.098-.558-.318-.712" mask="url(#dt)"/>
            </g>
            <g transform="translate(0 .103)">
                <mask id="dv" fill="#fff">
                    <use xlink:href="#du"/>
                </mask>
                <path fill="#50BE87" d="M29.984 64.406c-.187.033-.187.033-.34.252l-.187.033c-.187.032-.34.251-.275.623.033.186.286.526.659.46.187-.032.187-.032.34-.251l.187-.033c.187-.033.34-.252.275-.624-.066-.372-.286-.526-.659-.46" mask="url(#dv)"/>
            </g>
            <g transform="translate(0 .103)">
                <mask id="dx" fill="#fff">
                    <use xlink:href="#dw"/>
                </mask>
                <path fill="#87B2D3" d="M27.962 74.74c-.154.218-.495.47-.649.689-.153.218-.088.59.132.744.22.153.593.087.747-.131l.154-.22.186-.032s.187-.033.155-.219c.153-.219.274-.624.055-.777-.253-.34-.44-.307-.78-.055" mask="url(#dx)"/>
            </g>
            <g transform="translate(0 .103)">
                <mask id="dz" fill="#fff">
                    <use xlink:href="#dy"/>
                </mask>
                <path fill="#50BE87" d="M29.642 71.182c-.153.219-.274.624-.428.842-.154.22.099.559.318.712.22.153.56-.099.715-.317-.034-.187.153-.22.12-.405 0 0-.033-.186.154-.22.154-.218.088-.59-.131-.744-.22-.153-.593-.087-.748.132" mask="url(#dz)"/>
            </g>
            <g transform="translate(0 .103)">
                <mask id="dB" fill="#fff">
                    <use xlink:href="#dA"/>
                </mask>
                <path fill="#50BE87" d="M32.433 66.278c-.22-.153-.56.099-.714.317.033.187-.154.22-.12.406-.155.218-.276.624-.056.777.22.153.626.273.78.054.34-.251.461-.656.582-1.061-.187.033-.252-.34-.472-.493" mask="url(#dB)"/>
            </g>
            <g transform="translate(0 .103)">
                <mask id="dD" fill="#fff">
                    <use xlink:href="#dC"/>
                </mask>
                <path fill="#50BE87" d="M32.223 73.798c-.34.252-.68.504-.802.909-.153.219.1.558.319.711.22.153.56-.098.714-.317.186-.033.154-.219.34-.252.154-.219.275-.624.055-.777-.066-.372-.472-.493-.626-.274" mask="url(#dD)"/>
            </g>
            <g transform="translate(0 .103)">
                <mask id="dF" fill="#fff">
                    <use xlink:href="#dE"/>
                </mask>
                <path fill="#50BE87" d="M33.597 70.679c.033.186.033.186 0 0-.34.252-.495.47-.429.842.033.187.286.526.66.46.373-.065.526-.284.68-.503.154-.219.088-.591-.131-.744-.253-.34-.626-.274-.78-.055" mask="url(#dF)"/>
            </g>
            <g transform="translate(0 .103)">
                <mask id="dH" fill="#fff">
                    <use xlink:href="#dG"/>
                </mask>
                <path fill="#50BE87" d="M35.222 67.899l-.307.437c-.154.22-.088.591.132.745.22.153.593.087.747-.132l.307-.437c.154-.22.088-.591-.131-.745-.22-.153-.593-.087-.748.132" mask="url(#dH)"/>
            </g>
            <g transform="translate(0 .103)">
                <mask id="dJ" fill="#fff">
                    <use xlink:href="#dI"/>
                </mask>
                <path fill="#50BE87" d="M36.42 72.485c-.188.033-.341.252-.495.47 0 0 .033.187-.154.22-.154.218-.088.591.132.744.22.153.593.088.747-.131.153-.22.307-.438.241-.81.121-.405-.285-.526-.472-.493" mask="url(#dJ)"/>
            </g>
            <g transform="translate(0 .103)">
                <mask id="dL" fill="#fff">
                    <use xlink:href="#dK"/>
                </mask>
                <path fill="#50BE87" d="M37.265 69.65s-.187.033 0 0c-.307.438-.242.81-.022.963.22.154.593.088.747-.13l.154-.22c.153-.219.088-.59-.132-.744-.22-.153-.593-.088-.747.131" mask="url(#dL)"/>
            </g>
            <g transform="translate(0 .103)">
                <mask id="dN" fill="#fff">
                    <use xlink:href="#dM"/>
                </mask>
                <path fill="#87B2D3" d="M23.03 74.07s-.187.033 0 0l-.154.22c-.186.032-.153.218-.307.437s-.088.591.132.745c.219.153.593.087.746-.132 0 0 .187-.032.154-.219.187-.032.154-.218.308-.437.153-.22.088-.591-.132-.745-.44-.306-.626-.273-.747.132" mask="url(#dN)"/>
            </g>
            <g transform="translate(0 .103)">
                <mask id="dP" fill="#fff">
                    <use xlink:href="#dO"/>
                </mask>
                <path fill="#FFB327" d="M43.14 39.536l-.572-3.253a.348.348 0 0 0-.402-.28l-1.083.189a.347.347 0 0 0-.282.4l.29 1.64-1.19.208.153.865 1.189-.209.132.75a2.39 2.39 0 0 0-1.096 2.445 2.4 2.4 0 0 0 2.78 1.943 2.394 2.394 0 0 0 1.949-2.771 2.397 2.397 0 0 0-1.867-1.927" mask="url(#dP)"/>
            </g>
            <g transform="translate(0 .103)">
                <mask id="dR" fill="#fff">
                    <use xlink:href="#dQ"/>
                </mask>
                <path fill="#B7B7B7" d="M45.061 27.394s-.663-6.754-5.694-6.371c-5.031.383-4.1 5.124-4.1 5.124l.865-.197s-.957-3.369 2.413-4.205c3.431-.852 4.956 1.827 5.591 5.811l.925-.162z" mask="url(#dR)"/>
            </g>
            <g transform="translate(0 .103)">
                <mask id="dT" fill="#fff">
                    <use xlink:href="#dS"/>
                </mask>
                <path fill="#B7B7B7" d="M37.552 21.77c-.527.24-.954.573-1.28.998-.798 1.041-.79 2.39-.737 2.998l.226-.052c-.093-.542-.185-1.675.398-2.677.317-.545.783-.969 1.393-1.267m6.841 5.424l.318-.055c-.084-.542-.323-1.769-.899-2.952-.631-1.298-1.463-2.159-2.484-2.575.151.07.298.152.439.245 1.288.85 2.148 2.598 2.626 5.337m.722.508l-.925.161a.313.313 0 0 1-.363-.258c-.208-1.306-.505-2.399-.883-3.249-.405-.913-.918-1.58-1.523-1.978-.76-.502-1.676-.61-2.8-.33-.902.223-1.548.661-1.92 1.301-.653 1.122-.272 2.502-.268 2.516a.31.31 0 0 1-.232.39l-.863.196a.31.31 0 0 1-.377-.244c-.018-.09-.417-2.207.81-3.813.759-.994 1.96-1.56 3.572-1.682 2.197-.167 3.94.945 5.04 3.217a11.29 11.29 0 0 1 .99 3.435.312.312 0 0 1-.258.338" mask="url(#dT)"/>
            </g>
            <g transform="translate(0 .103)">
                <mask id="dV" fill="#fff">
                    <use xlink:href="#dU"/>
                </mask>
                <path fill="#4E251C" d="M46.132 36.58l-8.702 1.523a1.89 1.89 0 0 1-2.182-1.526l-1.208-6.854a1.884 1.884 0 0 1 1.53-2.175l8.702-1.523a1.89 1.89 0 0 1 2.182 1.525l1.208 6.854a1.885 1.885 0 0 1-1.53 2.175" mask="url(#dV)"/>
            </g>
            <g transform="translate(0 .103)">
                <mask id="dX" fill="#fff">
                    <use xlink:href="#dW"/>
                </mask>
                <path fill="#CE4A37" d="M46.375 36.537l-8.273 1.448a1.89 1.89 0 0 1-2.183-1.525l-1.208-6.854a1.885 1.885 0 0 1 1.53-2.176l8.274-1.448a1.89 1.89 0 0 1 2.182 1.526l1.208 6.854a1.885 1.885 0 0 1-1.53 2.175" mask="url(#dX)"/>
            </g>
            <g transform="translate(0 .103)">
                <mask id="dZ" fill="#fff">
                    <use xlink:href="#dY"/>
                </mask>
                <path fill="#DC891A" d="M44.463 31.81a3.01 3.01 0 0 1-2.45 3.484 3.018 3.018 0 0 1-3.496-2.443 3.009 3.009 0 0 1 2.45-3.484 3.018 3.018 0 0 1 3.496 2.443" mask="url(#dZ)"/>
            </g>
            <g transform="translate(0 .103)">
                <mask id="eb" fill="#fff">
                    <use xlink:href="#ea"/>
                </mask>
                <path fill="#FFB327" d="M44.097 31.874a3.01 3.01 0 0 1-2.45 3.484 3.018 3.018 0 0 1-3.497-2.443 3.01 3.01 0 0 1 2.452-3.484 3.018 3.018 0 0 1 3.495 2.443" mask="url(#eb)"/>
            </g>
            <g transform="translate(0 .103)">
                <mask id="ed" fill="#fff">
                    <use xlink:href="#ec"/>
                </mask>
                <path fill="#DC891A" d="M44.224 41.532a1.519 1.519 0 0 1-1.237 1.758 1.518 1.518 0 0 1-.527-2.99 1.522 1.522 0 0 1 1.764 1.232" mask="url(#ed)"/>
            </g>
            <g transform="translate(0 .103)">
                <mask id="ef" fill="#fff">
                    <use xlink:href="#ee"/>
                </mask>
                <path fill="#F1F1F1" d="M44.04 41.564a1.519 1.519 0 0 1-1.238 1.758 1.518 1.518 0 1 1-.527-2.99 1.522 1.522 0 0 1 1.764 1.232" mask="url(#ef)"/>
            </g>
            <g transform="translate(0 .103)">
                <mask id="eh" fill="#fff">
                    <use xlink:href="#eg"/>
                </mask>
                <path fill="#F1F1F1" d="M42.278 40.347a1.505 1.505 0 0 0-1.224 1.74 1.509 1.509 0 0 0 1.746 1.22 1.504 1.504 0 0 0 1.224-1.74 1.509 1.509 0 0 0-1.746-1.22m.527 2.99a1.54 1.54 0 0 1-1.782-1.245 1.536 1.536 0 0 1 1.25-1.776 1.54 1.54 0 0 1 1.782 1.245 1.536 1.536 0 0 1-1.25 1.776" mask="url(#eh)"/>
            </g>
            <g transform="translate(0 .103)">
                <mask id="ej" fill="#fff">
                    <use xlink:href="#ei"/>
                </mask>
                <path fill="#FFDD4D" d="M45.864 44.847a4.262 4.262 0 0 1-.985-.723c-.13-.13-.353.056-.22.187.31.306.655.566 1.039.772.162.087.33-.148.166-.236" mask="url(#ej)"/>
            </g>
            <g transform="translate(0 .103)">
                <mask id="el" fill="#fff">
                    <use xlink:href="#ek"/>
                </mask>
                <path fill="#FFDD4D" d="M46.672 43.24a8.533 8.533 0 0 1-1.073-.267c-.177-.056-.279.214-.101.27.376.12.758.215 1.146.285.184.033.21-.254.028-.287" mask="url(#el)"/>
            </g>
            <g transform="translate(0 .103)">
                <mask id="en" fill="#fff">
                    <use xlink:href="#em"/>
                </mask>
                <path fill="#FFDD4D" d="M46.566 40.9l-1.017.23c-.18.04-.131.324.05.283l1.017-.229c.181-.04.132-.325-.05-.284" mask="url(#en)"/>
            </g>
            <g transform="translate(0 .103)">
                <mask id="ep" fill="#fff">
                    <use xlink:href="#eo"/>
                </mask>
                <path fill="#FFDD4D" d="M40.726 44.247c-.431.23-.82.526-1.152.885-.124.135.06.357.187.22.315-.34.68-.626 1.09-.845.162-.087.04-.349-.125-.26" mask="url(#ep)"/>
            </g>
            <g transform="translate(0 .103)">
                <mask id="er" fill="#fff">
                    <use xlink:href="#eq"/>
                </mask>
                <path fill="#FFDD4D" d="M39.673 42.81c-.366.01-.73.046-1.092.11-.15.026-.11.258.04.232.34-.06.684-.098 1.03-.108.15-.005.174-.24.022-.235" mask="url(#er)"/>
            </g>
            <g transform="translate(0 .103)">
                <mask id="et" fill="#fff">
                    <use xlink:href="#es"/>
                </mask>
                <path fill="#FFDD4D" d="M39.769 41.027c-.158-.1-.345-.152-.52-.215l-.593-.216c-.175-.064-.275.207-.1.27l.541.197c.165.06.357.105.506.2.156.1.323-.135.166-.236" mask="url(#et)"/>
            </g>
            <g transform="translate(0 .103)">
                <mask id="ev" fill="#fff">
                    <use xlink:href="#eu"/>
                </mask>
                <path fill="#FFDD4D" d="M45.526 39.009c-.368.23-.716.489-1.04.779-.137.123.049.344.188.22.305-.273.63-.521.976-.739.156-.097.034-.36-.124-.26" mask="url(#ev)"/>
            </g>
            <g transform="translate(0 .103)">
                <mask id="ex" fill="#fff">
                    <use xlink:href="#ew"/>
                </mask>
                <path fill="#FFDD4D" d="M44.346 45.993l-.36-1.112c-.062-.188-.342-.054-.281.133l.36 1.112c.061.189.341.055.28-.133" mask="url(#ex)"/>
            </g>
            <g transform="translate(0 .103)">
                <mask id="ez" fill="#fff">
                    <use xlink:href="#ey"/>
                </mask>
                <path fill="#FFDD4D" d="M42.257 44.996l-.037 1.092c-.007.198.302.229.31.03.011-.365.024-.729.036-1.093.007-.198-.302-.228-.31-.029" mask="url(#ez)"/>
            </g>
            <g fill="#FFF">
                <path d="M13.487 18.69l3.03 1.5c.873.432 1.644-.875.767-1.309l-3.03-1.5c-.873-.432-1.644.874-.767 1.308M12.184 28.025l3.791.707c.956.178 1.366-1.282.404-1.46l-3.79-.707c-.957-.179-1.367 1.281-.405 1.46M13.149 37.318l3.778-.299c.968-.076.977-1.592 0-1.515l-3.778.3c-.969.076-.977 1.591 0 1.514M19.427 10.455l1.78 2.25c.255.32.81.265 1.076 0 .318-.318.255-.75 0-1.072l-1.781-2.249c-.255-.321-.809-.265-1.075 0-.318.318-.255.75 0 1.071M30.335 6.854l.499 1.258c.15.38.508.646.935.53.363-.1.682-.55.53-.932L31.8 6.45c-.15-.38-.508-.645-.935-.529-.363.1-.682.55-.53.932M61.025 51.5l3.523.32c.974.09.968-1.427 0-1.514l-3.523-.32c-.974-.089-.968 1.427 0 1.515M56.451 58.21l2.006 1.026c.869.445 1.639-.862.768-1.308l-2.006-1.027c-.87-.445-1.64.863-.768 1.309"/>
            </g>
        </g>
    </g>
</svg>
