<svg xmlns="http://www.w3.org/2000/svg" xmlns:xlink="http://www.w3.org/1999/xlink" width="195" height="200" viewBox="0 0 195 200">
    <defs>
        <linearGradient id="a" x1="50%" x2="50%" y1="0%" y2="100%">
            <stop offset="0%" stop-color="#D3BBEE"/>
            <stop offset="100%" stop-color="#A885D8"/>
        </linearGradient>
        <path id="b" d="M156.454 29.203c7.279 5.22 3.62 25.545 3.21 40.91-.41 15.326 2.426 25.693 2.65 38.373.224 12.679-2.202 27.633-10.9 42.214-8.696 14.581-23.664 28.752-40.2 30.878-16.536 2.125-34.602-7.832-50.503-20.1-15.938-12.232-29.712-26.739-28.48-41.693 1.232-14.954 17.432-30.356 22.47-50.493 5.002-20.175-1.156-45.049 6.645-50.12 7.801-5.035 29.6 9.77 49.607 12.231 20.007 2.462 38.222-7.42 45.501-2.2z"/>
        <path id="c" d="M.198.064h56.297v74.85H.198z"/>
        <path id="e" d="M0 .039h44.408v22.314H0z"/>
        <path id="g" d="M.005.108H35.78V94.35H.005z"/>
    </defs>
    <g fill="none" fill-rule="evenodd">
        <g fill-rule="nonzero">
            <use fill="url(#a)" xlink:href="#b"/>
            <use fill="#FF7900" xlink:href="#b"/>
        </g>
        <path fill="#7B5145" d="M19.35 182.845c.534 15.048.957 21.988 4.284 31.907 3.544 10.57 22.341 34.821 35.303 42.501 1.268-5.512 1.133-7.722 2.4-13.233.204-.888.404-1.84.066-2.685-.384-.964-13.753-26.366-15.875-32.878-3.901-11.976-4.73-28.742-6.089-30.975-1.359-2.234-4.778-3.421-6.63-1.574"/>
        <path fill="#DFDEDE" d="M115.964 146.101l5.09 71.478s-21.193 17.356-64.262 10.99l-12.087-80.424s64.136-12.188 71.26-2.044"/>
        <path fill="#6B6B6B" d="M79.184 47.885l-.082.842c-.05.27-.007.61.013 1-.008.391.121.83.215 1.315a9.017 9.017 0 0 0 1.6 3.138 9.26 9.26 0 0 0 3.515 2.733c1.47.634 3.27.949 4.952.334.865-.242 1.633-.735 2.256-1.376.61-.658 1.057-1.504 1.298-2.458.495-1.913.295-4.122-.279-6.23a16.843 16.843 0 0 0-1.186-3.109c-.505-1-1.119-1.963-1.922-2.79l.177.133c.118.085.288.218.498.408a11 11 0 0 1 1.614 1.838 15.396 15.396 0 0 1 1.769 3.37c.508 1.381.932 3.028.908 4.896-.02.93-.142 1.923-.52 2.9-.37.971-.985 1.938-1.873 2.654-.43.374-.932.654-1.444.908l-.806.29-.408.141c-.14.034-.284.053-.427.08l-.864.137h-.879c-.296.015-.585-.041-.876-.09-.287-.058-.59-.07-.865-.174-1.148-.296-2.194-.88-3.146-1.573-.933-.725-1.721-1.623-2.364-2.611a9.512 9.512 0 0 1-1.22-3.293 7.678 7.678 0 0 1 .346-3.413"/>
        <path fill="#7B5145" d="M79.595 34.851A124.908 124.908 0 0 1 90.813 80.47c.021.413.034.853-.172 1.213-.237.413-.708.623-1.15.802a69.613 69.613 0 0 1-11.494 3.556l4.7 12.92a95.8 95.8 0 0 1-23.16 2.63c-.226-.002-.46-.007-.665-.104-.43-.203-6.154 2.146-6.266 1.685-2.428-9.98-2.234-21.858-5.425-31.62-.807-2.47-1.48-5.04-1.312-7.633.284-4.381 2.94-8.289 6.118-11.323 3.177-3.033 6.92-5.412 10.232-8.298 3.643-3.174 6.789-6.98 10.915-9.494"/>
        <path fill="#231F20" d="M91.619 44.634c-.001.018-.08-.215-.418-.258-.326-.055-.78.122-1.396.298a91.346 91.346 0 0 1-5.054 1.31c-4.194.96-9.81 1.947-15.498 2.047 0 0 2.823-.917 7.042-1.868 2.11-.476 4.568-.961 7.197-1.344a77.485 77.485 0 0 1 4.05-.484 67.093 67.093 0 0 1 2.08-.16c.355-.017.681-.046 1.062-.046.186.007.377.033.557.105.182.073.335.216.378.4M88.043 47.613s-.036.167-.165.408a2.579 2.579 0 0 1-.7.825c-.668.541-1.902.848-2.98.01 0 0 .508-.428 1.16-.78a4.05 4.05 0 0 1 1.13-.42c.432-.09.912-.096 1.555-.043"/>
        <path fill="#DFDEDE" d="M88.494 97.218a125.724 125.724 0 0 0-37.057 5.621l-1.173-3.912c-.237-.788-.459-1.697-.01-2.388.33-.511.941-.754 1.513-.963 8.13-2.97 16.708-5.371 25.333-4.655 4.284.355 8.989 2.74 11.394 6.297"/>
        <path fill="#63362F" d="M90.017 80.918c-1.727.73-3.7.227-5.504-.284-1.286-.364-2.58-.731-3.777-1.326-4.594-2.283-6.925-7.39-8.91-12.116a202.377 202.377 0 0 0 5.897 18.202 192.16 192.16 0 0 0 12.437-3.47"/>
        <g transform="rotate(-6 131.368 -202.212)">
            <mask id="d" fill="#fff">
                <use xlink:href="#c"/>
            </mask>
            <path fill="#000" d="M56.495 29.668A241.633 241.633 0 0 0 51.26 3.132c-.187-.729-2.53-2.844-3.433-2.939-4.411-.464-28.44.013-37.205 6.596C9.996 7.26.094 14.81.2 15.376 6.966 51.921 20.494 74.9 20.91 74.911c4.011.11 16.126-2.668 16.158-4.158.145-6.677-2.078-12.907-.683-19.438.6-2.81 1.578-5.938 4.165-7.194.986-.48 2.097-.62 3.186-.752l6.72-.82a25.99 25.99 0 0 1-1.892-7.342c-.062-.584-.097-1.205.177-1.724.218-.413.606-.708.997-.966a12.007 12.007 0 0 1 6.18-1.963" mask="url(#d)"/>
        </g>
        <path fill="#7B5145" d="M70.672 51.205c-.564-1.206-1.136-2.427-1.982-3.456-.847-1.027-2.011-1.86-3.333-2.03-1.322-.168-2.785.45-3.354 1.653-.444.941-.299 2.048-.073 3.063.803 3.604 2.484 6.946 4.235 10.197.402.747.876 1.55 1.676 1.835.745.264 1.597-.013 2.213-.508.616-.496 1.044-1.182 1.46-1.855"/>
        <path fill="#63362F" d="M65.377 53.794s-.095-.11-.253-.327a5.927 5.927 0 0 1-.596-1.006c-.199-.477-.446-1.075-.325-1.97.04-.218.098-.443.203-.668.082-.201.309-.535.55-.75.494-.47 1.302-.643 1.979-.279.17.093.333.21.48.357.074.073.144.152.21.236l.1.13.064.094c.16.241.273.471.372.686.203.44.379.92.513 1.429a8.277 8.277 0 0 1 .2 3.286s-.372-.538-.932-1.416l-.977-1.542-.577-.913a5.186 5.186 0 0 0-.279-.417l-.03-.04-.001.004-.005.002-.005.005c-.003.009.007-.011-.023-.028-.008-.002-.017-.008-.03-.003a.83.83 0 0 0-.11.126c-.077.105-.144.22-.201.362-.25.645-.257 1.623-.327 2.642M70.966 63.895c-.005.001.047.086.06.28.008.19-.053.51-.316.818a1.816 1.816 0 0 1-1.351.633c-.607.028-1.262-.223-1.799-.577a8.142 8.142 0 0 1-2.663-3.023c-.672-1.302-.992-2.9-.725-4.43l.56.9a36 36 0 0 0 1.475 2.15 46.627 46.627 0 0 0 2.178 2.697c.402.46.752.846 1.17 1.04.326.173 1.103.189 1.411-.488"/>
        <path fill="#2A2B2A" d="M51.66 78.681l.93 1.077c.322.373.858.504 1.278.195.374-.275.52-.902.195-1.278l-.929-1.076c-.322-.373-.858-.504-1.278-.195-.375.275-.52.902-.196 1.277M57.955 77.022l.781 1.136c.667.97 2.142-.112 1.474-1.082-.26-.38-.52-.758-.781-1.136-.667-.97-2.141.112-1.474 1.082M59.836 70.125c-.094.84.296 1.556 1.035 1.954.435.235 1.017-.03 1.21-.456.216-.478-.021-.974-.457-1.21.117.064.011-.002.009-.009.057.16.022-.115.007.02.055-.49-.247-.968-.752-1.051-.469-.077-.997.26-1.052.752M60.485 56.821l-.12.84c-.165 1.164 1.64 1.464 1.805.298l.12-.839c.166-1.164-1.639-1.464-1.805-.299M55.707 55.04l-.114.84c-.158 1.165 1.646 1.466 1.804.299l.114-.84c.158-1.165-1.646-1.466-1.804-.299M54.263 64.75l.086.819c.123 1.169 1.942.98 1.819-.191l-.086-.818c-.123-1.17-1.942-.98-1.82.19M59.455 62.965l.043.409c.122 1.169 1.941.98 1.818-.191l-.043-.41c-.123-1.169-1.942-.98-1.818.192M51.374 72.539l.273.59c.207.448.706.704 1.185.517.44-.172.727-.735.518-1.184-.09-.197-.182-.394-.273-.59-.207-.448-.706-.705-1.185-.518-.44.172-.726.735-.518 1.185M45.305 64.245c.098.638.382 1.16.86 1.59.368.33.988.234 1.287-.135.325-.401.233-.954-.135-1.285a.567.567 0 0 1-.193-.36c-.075-.489-.497-.867-1.005-.814-.474.05-.89.514-.814 1.004M49.73 55.098l.173 1.636c.123 1.169 1.942.98 1.819-.192l-.172-1.635c-.123-1.17-1.942-.98-1.82.191M38.984 55.194c.069.601.3 1.178.707 1.631.33.366.853.508 1.279.195.367-.27.528-.909.195-1.278-.205-.227-.33-.451-.362-.739-.133-1.168-1.952-.98-1.819.191M41.676 46.066c.25.318.437.714.423 1.114-.018.493.222.964.753 1.051.438.072 1.034-.256 1.052-.752.033-.914-.18-1.766-.754-2.495-.726-.923-2.204.154-1.474 1.082M44.895 57.104l.247.387c.266.416.9.474 1.279.195.42-.308.462-.86.195-1.277l-.247-.388c-.266-.415-.9-.473-1.279-.195-.42.309-.462.86-.195 1.278M52.653 41.561l.15 1.432c.123 1.169 1.942.98 1.82-.192l-.151-1.43c-.123-1.17-1.942-.98-1.819.19M49.367 47.695l.064.613c.123 1.17 1.942.98 1.819-.191l-.065-.613c-.123-1.17-1.942-.98-1.818.19M58.694 45.888l.086.818c.123 1.169 1.942.98 1.819-.192l-.086-.818c-.123-1.17-1.942-.98-1.819.192M43.954 71.002l.064.613c.123 1.17 1.943.98 1.82-.19l-.065-.614c-.123-1.17-1.942-.98-1.82.19M38.848 64.344l.248.387c.266.415.899.474 1.278.195.42-.308.463-.86.196-1.277l-.248-.387c-.267-.415-.9-.474-1.279-.196-.42.309-.463.861-.195 1.278M32.825 47.616l.521.977c.232.435.687.712 1.185.517.419-.164.752-.746.518-1.184l-.521-.977c-.232-.435-.687-.712-1.186-.517-.419.164-.751.746-.517 1.184M32.911 40.152l.453.366c.916.74 2.067-.68 1.15-1.42-.15-.123-.3-.245-.452-.367-.915-.74-2.067.68-1.15 1.42M25.619 33.08l.763 1.367c.241.43.916.462 1.28.196.437-.323.436-.846.195-1.278l-.764-1.367c-.24-.431-.916-.461-1.279-.195-.438.322-.437.845-.195 1.277M27.53 24.978l.086.818c.123 1.169 1.942.98 1.819-.192l-.086-.818c-.123-1.169-1.942-.98-1.82.192M35.975 22.643l.043.41c.122 1.168 1.941.98 1.818-.192l-.043-.41c-.123-1.168-1.942-.98-1.818.192M32.637 30.063l.291.796c.403 1.104 2.107.439 1.703-.668l-.29-.796c-.403-1.104-2.107-.44-1.704.668M39.164 31.027l.539 1.184c.204.449.708.704 1.185.517.442-.173.723-.734.518-1.185l-.538-1.183c-.204-.45-.708-.704-1.186-.518-.442.173-.723.734-.518 1.185M41.28 39.065l.453.366c.916.74 2.067-.679 1.15-1.42l-.452-.366c-.915-.74-2.067.68-1.15 1.42M46.68 34.803c.158.19.315.382.472.573.313.38.865.498 1.278.195.382-.28.51-.895.196-1.278l-.471-.572c-.313-.381-.865-.499-1.278-.196-.382.28-.511.895-.196 1.278M46.522 24.68l.331 1.206c.13.476.76.683 1.186.517.5-.196.648-.707.517-1.184l-.33-1.207c-.131-.476-.761-.683-1.186-.517-.5.196-.648.707-.518 1.185M46.197 18.312l.743 1.162c.266.416.9.473 1.278.195.42-.309.463-.86.196-1.278l-.743-1.162c-.266-.416-.9-.473-1.278-.195-.42.309-.463.86-.196 1.278M39.373 14.838c-.546.638-.42 1.555.194 2.091.888.775 2.037-.647 1.15-1.42.12.103.194.342.077.479.767-.895-.656-2.044-1.421-1.15M53.404 11.303l.086.818c.123 1.169 1.942.98 1.819-.192l-.086-.818c-.123-1.17-1.942-.98-1.819.192M53.604 18.69c-.082.664.136 1.19.6 1.66.346.352 1 .218 1.286-.135.34-.42.212-.933-.135-1.285.018.019.06.008.053.058.06-.49-.25-.969-.753-1.051-.472-.078-.99.26-1.051.752M53.273 27.055l.31 1.002c.147.471.75.687 1.186.516.488-.19.664-.71.518-1.184l-.311-1.001c-.146-.471-.75-.688-1.185-.517-.489.19-.665.712-.518 1.184M56.766 34.591l.485.561c.322.374.858.504 1.278.195.375-.275.52-.901.196-1.277l-.485-.56c-.322-.374-.858-.505-1.278-.196-.375.275-.52.902-.196 1.277M62.215 39.717c.417.161.758.425.934.77.224.44.693.71 1.186.517.425-.166.743-.742.517-1.184-.408-.8-1.034-1.44-1.884-1.768-.46-.178-.999-.01-1.21.456-.195.432-.005 1.031.457 1.21M65.47 31.58l.264.593c.2.451.71.703 1.185.517.446-.174.72-.731.518-1.184l-.264-.594c-.2-.45-.71-.702-1.186-.517-.444.174-.718.732-.517 1.185M61.703 25.36l.321.997c.152.47.746.689 1.186.517.484-.19.669-.713.517-1.184l-.321-.998c-.152-.47-.746-.69-1.186-.517-.484.19-.67.713-.517 1.184M61.206 16.52l.291.796c.405 1.104 2.109.439 1.704-.668l-.292-.796c-.404-1.104-2.108-.439-1.703.668M64.045 11.673l.454.364c.917.738 2.07-.682 1.15-1.42a124.61 124.61 0 0 0-.453-.365c-.918-.738-2.069.682-1.15 1.42M68.527 10.388c.366.496.892.708 1.498.693.495-.013.863-.541.814-1.004-.055-.524-.51-.826-1.005-.813.048-.002.133-.004.167.043-.7-.946-2.176.133-1.474 1.081M71.307 17.933l.538 1.184c.204.449.708.704 1.186.517.441-.173.722-.733.517-1.184l-.538-1.184c-.204-.449-.708-.704-1.185-.517-.443.173-.723.733-.518 1.184M66.47 20.32l.471.573c.313.38.865.499 1.278.195.382-.28.51-.894.196-1.277l-.47-.573c-.314-.381-.867-.499-1.28-.196-.381.281-.51.895-.195 1.278M73.67 25.76l.722.957c.707.939 2.184-.14 1.474-1.082l-.721-.958c-.707-.938-2.185.14-1.475 1.082M69.968 28.258c1.17-.123.982-1.941-.19-1.818-1.171.123-.982 1.94.19 1.818M76.724 33.083l.504.769c.27.413.896.476 1.279.196.415-.306.466-.864.195-1.278l-.504-.77c-.27-.412-.896-.475-1.278-.195-.416.307-.467.864-.196 1.278M71.287 35.226c-.652.82-.181 2.078.859 2.252 1.162.194 1.46-1.61.299-1.804.315.053.46.455.263.702.733-.921-.687-2.072-1.421-1.15M69.214 43.162l.303.791c.42 1.097 2.125.434 1.703-.667l-.303-.792c-.42-1.096-2.125-.433-1.703.668M72.124 48.454l.7.753c.336.361.849.511 1.279.195.363-.266.533-.914.196-1.277l-.7-.754c-.336-.36-.849-.51-1.279-.195-.363.267-.533.914-.196 1.278"/>
        <path fill="#231F20" d="M92.136 41.208c-3.306-.411-6.43.206-9.342 1.77.108.18.2.369.266.57.125.374.282.736.425 1.102.014-.006.028-.01.041-.018 2.557-1.449 5.399-1.983 8.31-1.62 1.167.144 1.469-1.658.3-1.804"/>
        <g transform="rotate(-6 1608.67 -34.653)">
            <mask id="f" fill="#fff">
                <use xlink:href="#e"/>
            </mask>
            <path fill="#EEE" d="M4.516.79L0 18.088s33.118 6.015 37.634 3.76C42.15 19.59 44.408.038 44.408.038L4.516.79z" mask="url(#f)"/>
        </g>
        <path fill="#D7D7D6" d="M43.433 105.312s-15.63 5.653-19.061 23.404c-3.433 17.752-8.088 45.461-8.088 45.461s32.539 7.166 38.49-1.02c5.951-8.187-8.243-63.108-11.341-67.845"/>
        <path fill="#54BB87" d="M110.244 113.504c-.374-7.019-2.141-14.745-8.989-16.358-4.743-1.118-13.904-.732-20.51-2.316-16.167-3.877-35.067 7.81-40.493 11.353-15.36 10.029-.681 21.926 7.02 73.974 1.997 13.488.974 31.601 2.397 38.268.86 4.028 2.87 9.104 6.977 8.747 0 0 59.318 3.448 63.527-17.973 2.914-14.826-2.072-37.24-2.947-62.625-.466-13.49-6.524-24.472-6.982-33.07"/>
        <path fill="#D7D7D6" d="M88.347 96.842a129.355 129.355 0 0 0-38.126 5.784L49.013 98.6c-.243-.811-.471-1.746-.01-2.457.34-.526.969-.776 1.558-.99 8.363-3.057 17.189-5.528 26.064-4.79 4.407.365 9.247 2.817 11.722 6.478M122.241 144.548c-7.454 1.878-6.535 14.603-7.956 15.122-4.635 1.691-11.334-6.755-18.84-25.938-1.932-4.937-3.886-25.874-.987-30.316 1.1-1.687 2.503-3.252 4.331-4.098 2.493-1.153 5.418-.819 8.07-.107 6.63 1.781 28.195 13.722 33.294 15.526 2.564.907 5.293 1.797 7.098 3.83 1.077 1.214 1.73 2.74 2.257 4.274a35.088 35.088 0 0 1 1.07 18.903c-.384 1.728-1.1 3.654-2.763 4.266-.668.246-1.398.237-2.11.22a187.54 187.54 0 0 1-23.093-1.975"/>
        <path fill="#8F8F8F" d="M141.594 48.36c3.897-.782 12.248-1.916 16.678-2.496 1.538-.201 2.89.872 2.88 2.283l-.265 37.603c-.008 1.2-1.012 2.216-2.322 2.354l-16.405 1.724c-1.512.159-2.818-.903-2.81-2.287l.196-36.866c.006-1.105.859-2.075 2.048-2.314"/>
        <path fill="#FFF" d="M140.696 48.203c3.734-.75 11.735-1.835 15.98-2.392 1.473-.193 2.768.835 2.759 2.188l-.254 36.029c-.008 1.149-.97 2.123-2.225 2.255l-15.718 1.652c-1.449.153-2.7-.866-2.693-2.191l.188-35.323c.006-1.058.823-1.989 1.963-2.218"/>
        <path fill="#C3C3C3" d="M156.768 46.019c-.021.002-.043.004-.064.008-4.372.572-12.26 1.645-15.966 2.389-1.03.207-1.782 1.05-1.788 2.006l-.188 35.323a1.87 1.87 0 0 0 .637 1.409c.476.43 1.138.637 1.816.565l15.718-1.652c1.15-.12 2.023-.998 2.031-2.04l.253-36.03a1.872 1.872 0 0 0-.655-1.43 2.333 2.333 0 0 0-1.794-.548m.21 40.48L141.26 88.15c-.8.084-1.585-.162-2.152-.675a2.3 2.3 0 0 1-.78-1.733l.188-35.323c.006-1.16.905-2.182 2.137-2.43 3.719-.747 11.617-1.82 15.994-2.394.814-.107 1.617.129 2.202.646.522.46.808 1.085.803 1.758l-.254 36.03c-.009 1.263-1.049 2.325-2.42 2.469"/>
        <g transform="rotate(-6 621.644 -1277.243)">
            <mask id="h" fill="#fff">
                <use xlink:href="#g"/>
            </mask>
            <path fill="#7B5145" d="M5.583 63.331c2.84 1.46 6.24 3.43 9.43 3.59 5.064.252 9.805-24.26 7.28-30.77-.893-2.3-3.676-3.364-5.222-5.289-1.88-2.34-1.91-5.415-4.387-8.603-.265-.342-2.205-2.143-2.144-2.57.071-.498 1.078-1.046 1.572-1.143 3.118-.612 4.811 5.95 9.405 5.624A234.045 234.045 0 0 1 24.262.108c6.28 3.32 6.143 27.321 6.712 30.682.299 1.763 14.78 65.788-8.027 63.499-8.022-.805-15.491-3.812-22.942-6.89l.57-1.64" mask="url(#h)"/>
        </g>
        <path fill="#FFF" d="M139.428 147.354c2.706 1 5.508 1.651 8.31 2.295 1.165-.15 2.267-.552 3.244-1.313 1.24-.968 2.079-2.4 2.673-3.893 1.998-5.018 1.465-10.729.431-16.063-.547-2.827-1.272-5.713-2.755-8.12-4.614-1.832-8.65-4.717-12.787-7.508l-.031.01c-.558.219-.88 1.084-.414 1.477l.456-.154c3.284 2.847 5.4 6.993 6.298 11.338.898 4.345.638 8.882-.27 13.218-.632 3.024-2.065 6.454-4.987 7.029-.502.099-1.115.166-1.332.649-.137.304-.047.595.147.853a2.83 2.83 0 0 1 1.017.182"/>
        <path fill="#C3C3C3" d="M145.613 47.65l-.065 1.352 7.136-1.06-.07-1.648z"/>
        <path fill="#FFF" d="M102.966 100.75l-.949 1.806c-.367.698.028 1.7.753 1.99.795.319 1.6-.006 1.993-.752l.948-1.805c.367-.699-.029-1.7-.753-1.991-.795-.319-1.6.006-1.992.752M99.787 110.375l.237 2.25c.082.782.85 1.46 1.655 1.338.807-.122 1.428-.815 1.34-1.653l-.236-2.25c-.082-.782-.85-1.46-1.655-1.339-.808.122-1.429.815-1.34 1.654M100.887 120.326l.74 1.628c.325.715 1.182 1.193 1.953.85.713-.316 1.201-1.182.852-1.95l-.74-1.627c-.325-.716-1.181-1.194-1.952-.852-.714.317-1.201 1.184-.853 1.95M103.486 127.843l1.937 2.06c.537.572 1.42.874 2.105.322.574-.461.9-1.49.323-2.104l-1.937-2.06c-.538-.572-1.42-.873-2.106-.322-.573.46-.899 1.49-.322 2.104M109.484 135.701l.681 1.065c.425.666 1.5.808 2.106.322.67-.538.776-1.393.322-2.104l-.681-1.065c-.425-.665-1.5-.808-2.106-.322-.67.538-.776 1.393-.322 2.104M113.63 143.256l.689 1.06c.43.662 1.497.81 2.105.322.666-.536.782-1.397.323-2.104l-.69-1.06c-.43-.662-1.496-.81-2.105-.322-.666.535-.782 1.396-.322 2.104M28.5 118.214l-.448 1.182c-.278.736-.035 1.676.753 1.992.718.287 1.696.034 1.993-.753l.447-1.182c.277-.736.034-1.676-.753-1.992-.717-.287-1.696-.034-1.993.753M30.274 128.65l.683 1.064c.426.664 1.499.809 2.105.322.669-.538.778-1.394.322-2.104l-.683-1.064c-.426-.664-1.499-.808-2.105-.321-.67.537-.778 1.393-.322 2.103M33.318 136.907l1.362 2.131c.425.665 1.5.808 2.106.321.67-.537.776-1.392.322-2.104l-1.362-2.13c-.425-.665-1.5-.808-2.106-.321-.67.538-.777 1.392-.322 2.103M36.369 145.299l.74 1.627c.325.716 1.18 1.194 1.952.851.714-.316 1.201-1.183.853-1.95l-.74-1.628c-.326-.715-1.182-1.193-1.953-.851-.713.317-1.201 1.183-.852 1.95"/>
        <path fill="#231F20" d="M46.49 104.802l.681 1.065c.425.665 1.5.808 2.106.322.67-.538.777-1.393.322-2.104l-.68-1.065c-.426-.665-1.502-.808-2.107-.321-.67.538-.776 1.392-.322 2.103M53.104 106.562l1.126-.119c.783-.082 1.461-.85 1.34-1.653-.121-.807-.815-1.427-1.655-1.34l-1.126.12c-.783.081-1.461.849-1.34 1.653.122.807.815 1.427 1.655 1.339M60.42 105.793l1.689-.178c.783-.082 1.461-.85 1.34-1.653-.121-.807-.815-1.428-1.655-1.34l-1.688.178c-.784.082-1.462.85-1.341 1.654.122.807.816 1.427 1.655 1.339M67.115 104.52l2.251-.236c.783-.082 1.461-.85 1.34-1.654-.121-.806-.815-1.427-1.655-1.339l-2.25.237c-.784.082-1.463.85-1.342 1.654.122.807.816 1.427 1.656 1.339M75.326 103.033l3.304-1.37c1.786-.741.697-3.548-1.1-2.802l-3.303 1.37c-1.787.74-.698 3.548 1.1 2.802M83.001 100.042l2.187-.812c.739-.275 1.179-1.217.853-1.951-.336-.756-1.161-1.146-1.952-.852l-2.187.813c-.739.274-1.179 1.217-.853 1.95.336.757 1.16 1.146 1.952.852"/>
        <path fill="#000" fill-rule="nonzero" d="M143.123 63.698l-.426-8.128 1.79-.094.346 6.625 3.965-.208.08 1.503-5.755.302zm6.973-.366l.201-2.27-.945.049-.054-1.024 1.082-.057.131-1.422-.945.05-.054-1.025 1.082-.057.201-2.27 1.106-.059-.201 2.27 1.105-.057.19-2.27 1.105-.058-.19 2.27.843-.044.054 1.024-.991.052-.12 1.422.843-.044.054 1.024-.992.052-.189 2.27-1.105.058.19-2.27-1.095.058-.2 2.27-1.106.058zm2.614-4.84l-1.093.058-.132 1.422 1.106-.058.12-1.422zM142.016 75.17l2.662-8.29 1.835-.096 3.468 7.969-1.857.097-.71-1.778-3.043.16-.543 1.843-1.812.095zm3.656-6.332l-.903 3.037 2.107-.11-1.181-2.929-.023.002zm4.844 5.887l-.426-8.128 1.618-.085.155 2.96.023-.001c.367-.625 1.082-.936 1.811-.974 1.174-.062 2.488.817 2.601 2.968.113 2.163-1.102 3.174-2.275 3.236-.866.045-1.598-.18-1.985-.81l-.023.002.04.751-1.539.08zm4.165-3.164c-.052-.99-.52-1.867-1.478-1.817-.957.05-1.332.972-1.28 1.962.052.979.52 1.856 1.477 1.806.958-.05 1.332-.972 1.28-1.95z"/>
    </g>
</svg>
