<svg xmlns="http://www.w3.org/2000/svg" xmlns:xlink="http://www.w3.org/1999/xlink" width="40" height="40" viewBox="0 0 40 40">
    <defs>
        <path id="a" d="M30.197 20a10.11 10.11 0 0 0-4.761-4.606c-3.782 3.178-9.34 3.178-13.121 0-3.55 1.65-5.816 5.176-5.815 9.05v8.89c0 2.454 2.015 4.444 4.5 4.444h9.675V22.222c0-1.227 1.007-2.222 2.25-2.222h7.272zm-11.322-4.444c4.35 0 7.875-3.483 7.875-7.778C26.75 3.482 23.224 0 18.875 0 14.525 0 11 3.482 11 7.778c0 4.295 3.526 7.778 7.875 7.778zm13.5 5.555h-9.45c-.621 0-1.125.498-1.125 1.111V38.89c0 .614.504 1.111 1.125 1.111h9.45c.621 0 1.125-.497 1.125-1.111V22.222c0-.613-.504-1.11-1.125-1.11zm-4.725 18a.894.894 0 0 1-.9-.889c0-.49.403-.889.9-.889s.9.398.9.89c0 .49-.403.888-.9.888zm4.05-2.667h-8.1V23.111h8.1v13.333z"/>
    </defs>
    <g fill="none" fill-rule="evenodd">
        <mask id="b" fill="#fff">
            <use xlink:href="#a"/>
        </mask>
        <g fill="#000" mask="url(#b)">
            <path d="M0 0h40v40H0z"/>
        </g>
    </g>
</svg>
