<svg xmlns="http://www.w3.org/2000/svg" xmlns:xlink="http://www.w3.org/1999/xlink" width="21" height="21" viewBox="0 0 21 21">
    <defs>
        <path id="a" d="M13.3 7.927c.013-2.964-2.4-5.39-5.372-5.397-2.96-.009-5.379 2.398-5.392 5.365-.013 2.964 2.403 5.39 5.373 5.399 2.961.008 5.38-2.4 5.392-5.367zM1.823 12.962a7.912 7.912 0 0 1 .373-10.52c2.745-2.89 7.27-3.257 10.464-.876 3.258 2.428 4.322 7.246 1.692 10.973.037.024.087.043.122.078l5.535 5.533c.35.35.35.696.002 1.045-.256.256-.526.501-.767.772-.35.393-.773.36-1.123.006-1.823-1.842-3.66-3.67-5.492-5.503-.035-.035-.06-.083-.09-.125-3.508 2.469-8.131 1.74-10.716-1.383z"/>
    </defs>
    <g fill="none" fill-rule="evenodd" transform="translate(.5 .25)">
        <mask id="b" fill="#fff">
            <use xlink:href="#a"/>
        </mask>
        <use fill="#666" xlink:href="#a"/>
        <g fill="#FFF" mask="url(#b)">
            <path d="M-4.5-5.25h30v30h-30z"/>
        </g>
    </g>
</svg>
