<svg xmlns="http://www.w3.org/2000/svg" xmlns:xlink="http://www.w3.org/1999/xlink" width="60" height="60" viewBox="0 0 60 60">
    <defs>
        <path id="a" d="M26.47 9.706h-.735C24.1 4.034 19.91 0 15 0 10.09 0 5.9 4.034 4.265 9.706h-.736A3.53 3.53 0 0 0 0 13.236v3.529a3.53 3.53 0 0 0 3.53 3.53h.735C5.9 25.964 10.09 30 15 30c4.91 0 9.1-4.034 10.735-9.706h.736A3.53 3.53 0 0 0 30 16.764v-3.529a3.53 3.53 0 0 0-3.53-3.53zm-2.58 10.588a15.338 15.338 0 0 1-.691 1.765h-5.703a2.647 2.647 0 1 0 0 1.765h4.719c-.162.244-.33.48-.506.71-.905 1.183-1.947 2.106-3.098 2.743-1.152.637-2.365.958-3.611.958s-2.461-.322-3.61-.958c-1.15-.636-2.194-1.56-3.1-2.742-.93-1.218-1.664-2.645-2.18-4.24A17.177 17.177 0 0 1 5.294 15c0-1.84.275-3.622.816-5.294.143-.442.303-.871.48-1.287.213-.503.739-.8 1.28-.723 1.368.195 3.823.944 7.13 3.562 4.005 3.172 8.259 2.298 9.571 1.544.09.729.135 1.463.135 2.198 0 1.84-.275 3.622-.816 5.294z"/>
    </defs>
    <g fill="none" fill-rule="evenodd">
        <circle cx="30" cy="30" r="30" fill="#FFF"/>
        <g transform="translate(15 15)">
            <mask id="b" fill="#fff">
                <use xlink:href="#a"/>
            </mask>
            <g fill="#FF7900" mask="url(#b)">
                <path d="M0 0h30v30H0z"/>
            </g>
        </g>
    </g>
</svg>
