<svg xmlns="http://www.w3.org/2000/svg" xmlns:xlink="http://www.w3.org/1999/xlink" width="76" height="76" viewBox="0 0 76 76">
    <defs>
        <path id="a" d="M0 .157h75.842v75.584H0z"/>
    </defs>
    <g fill="none" fill-rule="evenodd">
        <g transform="translate(0 .101)">
            <mask id="b" fill="#fff">
                <use xlink:href="#a"/>
            </mask>
            <path fill="#A885D8" d="M75.842 37.95c0 20.871-16.977 37.791-37.92 37.791C16.977 75.741 0 58.821 0 37.95S16.978.157 37.92.157c20.944 0 37.921 16.92 37.921 37.792" mask="url(#b)"/>
        </g>
        <path fill="#8F8F8F" d="M41.301 10.889c-1.78-.556-3.432.1-5.348.8a459.104 459.104 0 0 1-6.517 2.295c-1.903.659-3.93 1.348-5.818 2.046-1.681.622-4.554 1.6-5.635 3.105-.963 1.343-.903 3.552-.565 5.134.683 3.201 2.205 6.146 3.353 9.194 1.416 3.755 2.626 7.274 3.955 11.062.988 2.817 2.338 6.515 3.464 9.282.952 2.342 1.436 4.174 2.41 6.508.703 1.686 1.066 4.022 3.173 4.731 1.319.444 3.06.146 4.344-.203 2.035-.552 3.957-1.437 5.952-2.108 2.327-.783 4.587-1.724 6.835-2.708 1.973-.864 4.621-1.292 6.27-2.68 1.874-1.575 1.708-3.924.9-6.347-3.075-9.22-6.927-18.24-9.87-27.442-.813-2.538-2.01-5.069-3.062-7.568-.877-2.087-1.371-4.33-3.841-5.101"/>
        <path fill="#000" d="M21.871 16.71c-.324-.05-.84-.02-1.65.378-.313.154-.58.369-.734.571.079.214.13.497.457.564.258.052.87-.07 1.14-.174.325-.125.563-.257.8-.482.346-.329.056-.569-.013-.857"/>
        <path fill="#000" d="M20.024 17.08c-.404.217-.61.749.056.673h.001c.847-.096 1.109-.707.77-.852-.154-.065-.429-.036-.827.179"/>
        <path fill="#5A5A5A" d="M38.217 12.433c-3.95 1.434-14.57 5.178-17.727 6.325-4.18 1.519-2.113 6.685-1.64 8.147.172.532 5.239 14.384 8.916 24.432 2.071 5.66 3.702 10.113 3.768 10.298 1.549 4.296 3.958 4.23 6.77 3.21 3.063-1.114 12.058-4.381 15.121-5.494 6.322-2.297 5.657-4.053 4.248-7.906-.454-1.241-2.85-7.928-5.398-15.033-2.564-7.148-5.282-14.718-6.331-17.587-.141-.385-.27-.78-.397-1.175-.896-2.766-2.402-7.008-7.33-5.217"/>
        <path fill="#000" d="M34 15.126c-.903.343-1.334.559-2.019.783-.666.217-2.484.898-3.882 1.418-.322.12-3.66 1.032-2.212 1.643.416.176 1.134-.226 1.527-.346.984-.301 2.295-.812 3.467-1.233 1.29-.463 1.997-.72 3.525-1.28 1.29-.471.62-1.375-.406-.985"/>
        <path fill="#5A5A5A" d="M37.273 58.651c-1.309.627-2.45.987-3.954 1.013l-1.431-.2c-.164 2.01 1.21 4.348 3.038 5.26 1.541.769 3.547-.025 4.987-.738 1.617-.799 3.367-1.5 2.987-3.304-.24-1.14-.041-2.744-.484-3.825-.06-.146-4.71 1.587-5.143 1.794"/>
        <path fill="#FFF" d="M55.746 49.783l-1.801-4.977-3.083-8.514h-.003l-1.232-3.4c-.67-1.85-4.129-11.496-4.8-13.347-.348-.962-.423-1.146-.768-2.11-.948-2.65-2.612-2.36-4.257-1.795-1.96.674-2.85.975-4.81 1.647-2.87.985-5.74 1.97-8.609 2.958-1.333.459-2.47.84-3.802 1.3-1.167.403-3.474 1.356-2.687 3.555l5.268 14.715c.565 1.579 1.127 3.157 1.691 4.735l3.623 10.146c.333.928.624 1.74 1.04 2.916.35.988.914 3.33 5.069 1.9 1.658-.57 15.526-5.38 16.9-5.84 3.253-1.093 2.462-3.332 2.26-3.889"/>
        <path fill="#F3E0D7" d="M41.929 29.368l.036-.01a.733.733 0 0 1-.065.013c.01 0 .018-.001.029-.003"/>
        <path fill="#9DAAC0" d="M41.21 54.809l-.002.013a.06.06 0 0 0 .002-.013"/>
        <path fill="#233143" d="M27.154 41.752l.055.029-.055-.03v.001zM27.308 41.552c0-.005-.002-.008-.003-.011v.01h.003zM32.12 34.75l.008-.02h-.002zM32.077 40.096l-.005-.011.001.011zM43.579 34.771c.017.011.035.023.053.033a.968.968 0 0 1-.053-.033zM48.621 33.53c0-.004-.001-.008-.003-.011v.011h.003z"/>
        <path fill="#000" d="M48.584 57.503c-.646.08-1.424.343-1.974.499-.505.143-1.86.67-2.902 1.07-.438.169-3.142.998-1.59 1.885.37.211 1.032.006 1.382-.078.754-.18 1.725-.592 2.603-.903.966-.342 1.495-.537 2.637-.958.966-.357 1.228-1.687-.156-1.515"/>
        <path fill="#FFF" d="M8.679 21.665l3.04 1.505c.876.433 1.65-.877.77-1.313l-3.04-1.505c-.877-.434-1.65.877-.77 1.313M7.372 31.032l3.803.71c.96.178 1.37-1.286.406-1.466l-3.804-.71c-.96-.178-1.37 1.286-.405 1.466M8.34 40.357l3.79-.3c.972-.077.98-1.598 0-1.52l-3.79.3c-.973.077-.98 1.597 0 1.52M14.639 13.403l1.787 2.256c.255.323.811.266 1.078 0 .32-.318.256-.752 0-1.075-.595-.752-1.19-1.504-1.787-2.256-.255-.323-.811-.266-1.078 0-.32.318-.256.751 0 1.075M25.584 9.79c.167.42.334.84.5 1.262.152.381.511.648.939.53.364-.1.685-.55.532-.934l-.5-1.263c-.152-.382-.51-.648-.939-.53-.364.1-.685.55-.532.934M61.512 50.486l3.536.32c.977.09.97-1.431 0-1.52l-3.536-.32c-.977-.09-.971 1.432 0 1.52M61.638 59.743l2.013 1.03c.871.446 1.644-.865.77-1.313l-2.013-1.03c-.872-.446-1.644.865-.77 1.313"/>
    </g>
</svg>
