<svg xmlns="http://www.w3.org/2000/svg" xmlns:xlink="http://www.w3.org/1999/xlink" width="74" height="80" viewBox="0 0 74 80">
    <defs>
        <path id="a" d="M.003.072H20.15v39.415H.003z"/>
        <path id="c" d="M.105.129h29.536v11.157H.105z"/>
        <path id="e" d="M.02.023h29.536v10.956H.021z"/>
        <path id="g" d="M.152.019h36.489V20.94H.152z"/>
        <path id="i" d="M.03.076h35.755v19.946H.03z"/>
    </defs>
    <g fill="none" fill-rule="evenodd">
        <path fill="#FF7900" d="M10.461.835c.77-.637 1.813-.91 3.128-.818l41.16 5.965c1.898.275 2.14.397 3.091 1.253.635.57 1.054 1.455 1.259 2.656l8.226 49.84c.197 1.14.03 2.105-.501 2.898-.532.792-1.397 1.366-2.595 1.72l-55.99 8.16c-1.225.106-2.115-.098-2.67-.611-.555-.514-.856-1.411-.904-2.694L9.23 3.618c.05-1.22.46-2.147 1.23-2.783z"/>
        <path fill="#FFF" fill-rule="nonzero" d="M26.912 62.679l.097.396c.482-.73.787-1.588 1-2.423.656-2.58.525-5.284.565-7.922.045-2.996.072-6.085-.758-8.986-3.625 2.08-5.033 2.254-8.33 4.893C15.583 54.784 7.69 65.393 7.69 65.393l7.883 3.557 6.606-7.184c1.91-2.381 3.61-1.924 4.734.913zm19.204.2l-.096.397c-.483-.73-.787-1.589-1-2.424-.656-2.58-.525-5.283-.565-7.922-.045-2.995-.072-6.084.757-8.985 3.626 2.08 5.034 2.254 8.33 4.893 3.905 6.147 11.797 16.755 11.797 16.755l-7.452 3.562-7.036-7.188c-1.91-2.381-3.61-1.925-4.735.913z"/>
        <g transform="translate(26.053 38.93)">
            <mask id="b" fill="#fff">
                <use xlink:href="#a"/>
            </mask>
            <path fill="#FFF" d="M17.874 12.285c-.45-1.817-.58-3.659-.684-5.521-.057-1.022-.14-2.045-.193-3.068A38.72 38.72 0 0 1 12.252.222a1.347 1.347 0 0 1-.147-.15c-.528.092-1.865.28-3.263.3-1.39.883-2.794 1.76-4.22 2.602-.022.9-.103 1.8-.222 2.694-.236 1.764-.61 3.506-.97 5.248-.274 1.323-.501 2.657-.856 3.961-.476 1.754-1.179 3.866-2.57 5.18l1.009 19.811.409 11.753 15.524.49 3.203-34.194a21.914 21.914 0 0 1-2.275-5.632" mask="url(#b)"/>
        </g>
        <path fill="#58BC89" fill-rule="nonzero" d="M27.495 43.684l-2.392 15.48-.023 14.316s5.724 7.434 8.166 1.425c1.25-3.074.52-22.048.52-22.048L31.968 41.13a82.037 82.037 0 0 1-4.473 2.555m13.928-2.13l.004.717-.536 11.955s-.072 19.55.709 21.73c1.536 4.291 5.328-.839 5.328-.839l.39-15.736-1.891-15.352a48.283 48.283 0 0 1-4.004-2.474"/>
        <path fill="#FFF" d="M32.59 41.525l.861-2.337s.72.039.834.327c.115.288 2.445 6.252 2.445 6.252s2.294-3.242 2.202-3.692l-.445-3.019s1.054-.62 1.395-.015c.342.604.927 2.776.927 2.776l.23 1.025-1.345 8.84-2.096-4.24-1.294.1s-1.621 4.52-1.736 4.232c-.1-.251-1.442-6.526-1.842-8.25-.06-.262-.214-1.741-.136-1.999"/>
        <path fill="#62352E" d="M39.898 33.698s-.51 6.38-.495 8.145c.004.497-.982 2.262-1.706 3.487a.958.958 0 0 1-1.596.082l-2.533-3.441s.486-4.43.257-8.494c0 0 4.022 4.793 6.073.221"/>
        <path fill="#010101" fill-rule="nonzero" d="M41.687 42.513l-.029.15c-.037.197.1.419.305.448a.39.39 0 0 0 .448-.304l.029-.15c.038-.198-.1-.42-.305-.449a.39.39 0 0 0-.448.305m.114 3.747l-.173.903c-.092.485.66.629.753.144l.173-.904c.092-.484-.66-.628-.753-.143m-.205 5.415l-.172.904c-.093.484.66.628.753.143l.172-.903c.093-.484-.66-.629-.753-.144m-.05 2.657l-.173.903c-.093.485.66.63.752.144l.173-.903c.093-.485-.66-.63-.753-.144m.358-10.473l-.173.903c-.092.484.66.629.753.144l.173-.904c.092-.484-.66-.628-.753-.143m-.31 4.725l-.083 1.385c-.012.208.083.403.305.448.183.037.436-.098.449-.305l.083-1.385c.012-.208-.083-.403-.305-.448-.183-.037-.436.098-.449.305m-.318 8.463l.036.63c.011.201.21.377.413.352a.39.39 0 0 0 .351-.413l-.035-.63c-.012-.2-.211-.377-.413-.352a.39.39 0 0 0-.352.413m.52 3.212l.026 1.412c.009.493.773.431.764-.061l-.025-1.413c-.009-.493-.773-.43-.765.062m.091 3.554c.067.297.026.596-.069.881-.065.197.12.413.305.448.225.043.382-.107.448-.304.14-.422.135-.851.039-1.28-.046-.203-.311-.298-.49-.234-.214.076-.278.286-.233.489m.162 3.206l.053 1.263c.02.493.785.431.764-.061l-.053-1.263c-.02-.493-.784-.432-.764.061m.057 3.608l.156 1.446c.052.489.817.43.764-.062l-.155-1.445c-.053-.49-.818-.431-.765.061m.302 3.334l.129.961c.065.486.83.43.764-.062l-.129-.96c-.065-.487-.83-.43-.764.061m.745 2.437c.348.145.726.164 1.08.024a.391.391 0 0 0 .233-.49c-.067-.189-.296-.31-.489-.233a.623.623 0 0 1-.485.011c-.19-.08-.418-.019-.513.175-.087.177-.018.433.174.513m2.124-.564l.51-.215c.184-.078.314-.29.233-.49-.074-.182-.292-.316-.49-.232l-.509.215c-.184.077-.314.289-.233.489.074.183.291.316.489.233m1.02-1.469l.15.03c.197.037.42-.1.449-.305a.39.39 0 0 0-.305-.448l-.15-.03c-.197-.037-.419.1-.449.305a.39.39 0 0 0 .305.448M30.838 43.141l.26.995c.051.2.306.299.488.233.21-.073.286-.288.234-.489l-.259-.994c-.052-.201-.306-.299-.489-.234-.209.074-.286.288-.233.49m.798 3.264l.34 1.328c.122.478.844.22.722-.256l-.34-1.328c-.121-.477-.843-.22-.722.256m.535 2.847l.186.66c.056.2.303.3.49.233.205-.073.29-.289.233-.489l-.186-.66c-.056-.199-.304-.299-.49-.233-.205.073-.29.29-.233.49m.153 2.35l.186.66c.056.199.304.299.49.233.206-.073.29-.29.233-.49l-.186-.66c-.056-.199-.303-.299-.49-.233-.205.073-.29.29-.232.49m.098 2.419c.066.247.04.49-.035.73-.063.198.118.413.304.449.223.042.386-.106.449-.305.117-.372.105-.756.005-1.13-.054-.2-.305-.298-.49-.233-.207.073-.287.288-.233.489m.134 2.771l.1 1.112c.044.49.808.431.764-.062l-.1-1.111c-.044-.49-.809-.431-.764.061m.117 3.459l.157.81c.04.203.19.37.413.351.188-.015.39-.208.351-.412l-.157-.81c-.04-.204-.19-.37-.413-.352-.189.015-.391.209-.351.413m.134 2.374l.122.18c.113.165.366.225.533.101a.39.39 0 0 0 .101-.532l-.122-.18c-.112-.165-.366-.225-.532-.101a.39.39 0 0 0-.101.532m-.04 2.058l-.114.602c-.038.197.1.418.304.448a.39.39 0 0 0 .449-.305l.114-.602c.038-.197-.1-.418-.304-.448a.39.39 0 0 0-.448.305m-.504 4.272l-.173.904c-.092.484.66.629.753.143l.173-.903c.092-.484-.66-.629-.753-.144m-.416 2.994a.833.833 0 0 1-.193.61c-.315.38.262.884.578.503.275-.327.411-.749.38-1.175-.035-.491-.8-.432-.765.062m-.971 2.625s.006.101.008.064c.002-.042-.012.052-.015.062.017-.053-.006.007-.018.027-.035.055.055-.058-.022.029-.011.012-.04.042-.01.016 0 0-.08.054-.054.04.03-.016-.052.02-.062.022.06-.015-.045-.002-.055-.002-.207.002-.367.218-.352.413.018.219.206.353.413.351.547-.004 1.007-.544.93-1.083-.028-.205-.197-.369-.412-.352-.197.016-.38.207-.351.413m-1.812.303l-.545-.416c-.159-.122-.405-.132-.54.037-.123.153-.134.41.036.54l.545.417c.159.121.406.132.541-.037.123-.154.133-.41-.037-.54m-2.51-2.07l-.421-.24c-.175-.1-.434-.008-.513.174a.392.392 0 0 0 .174.513l.421.24c.175.099.434.007.514-.175a.392.392 0 0 0-.175-.513"/>
        <path fill="#D6D6D6" d="M8.836 63.477l7.036 4.025c.537.33.454 1.065.213 1.649-.334.806-.69 1.419-1.606 2.027-1.232.817-5.762-2.408-7.759-3.918a1.41 1.41 0 0 1-.383-1.808c.345-.622.564-.89.981-1.491.39-.564.935-.843 1.518-.484"/>
        <g transform="translate(2.29 67.132)">
            <mask id="d" fill="#fff">
                <use xlink:href="#c"/>
            </mask>
            <path fill="#725048" d="M4.43.129S-.229 6.699.125 9.084c.196 1.327 3.098 6.884 19.724-4.328 0 0 .47.564 3.541 1.033 3.542.54 2.312.639 2.312.639s-.246 1.377 1.82 1.328c1.37-.033 2.333-1.547 1.412-2.1 0 0 1.58-1.829.015-2.473 0 0-1.191-1.05-.935-2.213L19.75.675S11.33 4.181 8.972 4.669l1.174-.743L4.43.129z" mask="url(#d)"/>
        </g>
        <path fill="#D6D6D6" fill-rule="nonzero" d="M20.682 48.805l.459.614c.124.166.331.25.524.138.164-.096.262-.358.138-.525l-.46-.614c-.123-.165-.33-.25-.523-.137-.164.095-.263.357-.138.524m1.339 2.213c.087.36.276.689.543.946.354.343.897-.198.542-.541a1.214 1.214 0 0 1-.346-.608c-.115-.48-.855-.277-.739.203m.921 1.991l.449 1.23c.167.46.908.262.74-.203l-.45-1.23c-.167-.46-.908-.262-.739.203m.95 2.854l.46 1.073c.08.19.36.233.524.138.196-.115.219-.334.137-.525l-.46-1.073c-.082-.19-.362-.232-.524-.137-.197.115-.22.333-.138.524"/>
        <path fill="#505052" d="M24.655 58.317c.111.23.132.473.103.724-.024.206.193.383.383.383.227 0 .359-.176.383-.383a2 2 0 0 0-.207-1.111c-.09-.186-.356-.236-.524-.137-.19.11-.228.337-.138.524"/>
        <path fill="#D6D6D6" d="M64.192 63.678l-7.035 4.024c-.538.332-.454 1.066-.213 1.65.334.806.69 1.419 1.606 2.027 1.232.816 5.762-2.408 7.759-3.918a1.41 1.41 0 0 0 .383-1.808c-.345-.622-.565-.89-.981-1.491-.39-.564-.935-.843-1.519-.484"/>
        <g transform="translate(41.078 67.438)">
            <mask id="f" fill="#fff">
                <use xlink:href="#e"/>
            </mask>
            <path fill="#725048" d="M25.231.023s4.66 6.57 4.306 8.955c-.197 1.327-3.099 6.884-19.724-4.328 0 0-.47.564-3.542 1.033-3.541.541-2.312.64-2.312.64s.246 1.376-1.82 1.327C.77 7.617-.194 6.103.727 5.55c0 0-1.58-1.828-.014-2.473 0 0 1.19-1.05.935-2.213L9.91.57s8.422 3.506 10.779 3.994l-1.175-.743L25.23.023z" mask="url(#f)"/>
        </g>
        <path fill="#D6D6D6" fill-rule="nonzero" d="M52.347 49.006l-.46.614c-.123.166-.33.25-.524.138-.163-.096-.262-.358-.137-.525l.459-.614c.123-.165.331-.25.524-.137.163.095.262.357.138.524m-1.34 2.213c-.087.36-.275.689-.542.946-.355.343-.897-.198-.542-.542.172-.164.293-.375.346-.607.115-.48.854-.277.739.203m-.921 1.991l-.45 1.23c-.167.46-.908.262-.738-.203l.448-1.23c.168-.46.909-.262.74.203m-.95 2.854l-.46 1.073c-.081.19-.361.233-.524.137-.197-.115-.22-.333-.138-.524l.46-1.073c.082-.19.362-.232.525-.137.197.115.22.333.138.524"/>
        <path fill="#505052" d="M48.374 58.518c-.112.23-.132.473-.103.724.024.206-.193.383-.383.383-.227 0-.36-.176-.383-.383a2 2 0 0 1 .207-1.111c.09-.186.355-.236.524-.138.19.112.228.338.138.525"/>
        <path fill="#62352E" fill-rule="nonzero" d="M28.954 24.751c-.085-.882-1.029-1.519-1.912-1.448-.213.017-.434.072-.59.218-.207.191-.26.493-.281.773-.126 1.633.42 3.243 1.082 4.741.257.581.57 1.194 1.137 1.481.208.106.471.156.67.032.118-.074.195-.2.262-.323a5.46 5.46 0 0 0 .577-1.643l-.945-3.831m14.357.8c.161-.697.499-1.342.98-1.872.098-.108.21-.216.353-.25.124-.03.254 0 .372.045.472.185.808.627.968 1.107.16.48.166.999.136 1.504a11.47 11.47 0 0 1-1.107 4.278c-.139.29-.298.583-.553.78-.255.195-.63.27-.899.094-.291-.19-.36-.579-.401-.923l.15-4.763"/>
        <path fill="#030303" d="M28.322 26.825c-.283-3.72-2.282-15.526-1.808-16.431.76-1.455 6.356-4.937 9.989-4.937 3.17 0 9.692 3.217 9.989 3.927.24.573-1.566 15.229-2.292 18.657a76.679 76.679 0 0 0-11.78.038l-4.098-1.254"/>
        <path fill="#725048" d="M34.522 38.804c.639.723 2.712.755 3.455.14 4.091-3.384 6.284-9.34 6.284-9.97 0-2.046-.747-11.724-1.527-12.991-.239-.388-1.377-.027-2.881.335-1.12.27-2.444.54-3.749.498-2.654-.083-5.331-1.694-6.056-.833 0 0-1.872 10.263-1.58 11.822.089.47-.335 3.78 6.054 11"/>
        <path fill="#62352E" fill-rule="nonzero" d="M40.709 32.454l-.074-.107a4.349 4.349 0 0 0-.185-.249c-.158-.192-.323-.407-.584-.71 0 0 .046-.02.129-.028a.636.636 0 0 1 .339.069c.132.064.271.19.358.375a.81.81 0 0 1 .017.65m-8.253-.076c.006.007-.111-.146-.044-.397a.563.563 0 0 1 .242-.326.405.405 0 0 1 .44 0s-.116.136-.193.267a.878.878 0 0 1-.154.187c-.065.064-.163.12-.291.27m6.318 1.35l-.08.092c-.052.059-.128.148-.237.248a3.54 3.54 0 0 1-1.018.685 3.068 3.068 0 0 1-.799.219 2.862 2.862 0 0 1-.925-.031 3.032 3.032 0 0 1-1.718-1.019l.102.048a5.838 5.838 0 0 0 1.332.409c.436.076.949.102 1.512.002.563-.095 1.177-.32 1.83-.653m-4.878-9.048l-.274-.159c-.174-.099-.422-.246-.734-.349a1.81 1.81 0 0 0-.514-.09 4.645 4.645 0 0 0-.604.036c-.214.022-.432.05-.645.106a1.336 1.336 0 0 0-.593.307l.04-.066a.874.874 0 0 1 .146-.17c.143-.134.403-.279.743-.361a4.05 4.05 0 0 1 .556-.097c.202-.02.43-.025.664.032.232.056.454.166.655.31.202.142.383.315.56.5m8 .001l-.273-.159c-.174-.099-.422-.246-.734-.349a1.81 1.81 0 0 0-.513-.09 4.65 4.65 0 0 0-.605.036c-.213.022-.431.05-.645.106a1.336 1.336 0 0 0-.593.307l.04-.066a.885.885 0 0 1 .146-.17c.143-.134.404-.279.743-.361.17-.043.354-.075.556-.097.202-.02.43-.025.664.032.232.056.455.166.655.31.202.142.383.315.56.5m-5.949.98c.024-.167-.214-.222-.268-.063-.228.677-.493 1.46-.705 2.071-.278.804-.496 2.273-.19 2.579.307.306.978.927 2.324-.055.886-.647-.977-.273-1.386-.529-.262-.164.003-2.414.225-4.004"/>
        <g transform="translate(17.621 57.476)">
            <mask id="h" fill="#fff">
                <use xlink:href="#g"/>
            </mask>
            <path fill="#7E7B7C" d="M34.462 20.966H2.332a2.179 2.179 0 0 1-2.18-2.179V2.197c0-1.203.976-2.179 2.18-2.179h32.13c1.204 0 2.179.976 2.179 2.179v16.59a2.178 2.178 0 0 1-2.179 2.178" mask="url(#h)"/>
        </g>
        <g transform="translate(18.08 58.395)">
            <mask id="j" fill="#fff">
                <use xlink:href="#i"/>
            </mask>
            <path fill="#5A5A5A" d="M33.607 20.046H2.209a2.178 2.178 0 0 1-2.18-2.178V2.254c0-1.203.976-2.178 2.18-2.178h31.398c1.203 0 2.179.975 2.179 2.178v15.614a2.179 2.179 0 0 1-2.18 2.178" mask="url(#j)"/>
        </g>
        <path fill="#FFF" d="M39.788 68.105h-.23c0 .785-.379 1.501-1.01 2.03-.63.529-1.512.861-2.49.86-.979.001-1.86-.331-2.49-.86-.632-.529-1.01-1.245-1.011-2.03 0-.785.379-1.5 1.01-2.03.631-.528 1.512-.861 2.49-.86.979 0 1.86.332 2.49.86.632.53 1.01 1.245 1.011 2.03h.46c0-.938-.456-1.783-1.175-2.383-.72-.601-1.703-.967-2.785-.967-1.083 0-2.067.366-2.786.967-.719.6-1.175 1.445-1.175 2.383s.456 1.783 1.175 2.383c.72.601 1.703.967 2.786.968 1.082 0 2.066-.367 2.785-.968.719-.6 1.176-1.445 1.175-2.383h-.23z"/>
        <path fill="#62352E" d="M32.708 32.14c1.315.372 2.491.632 3.87.559 1.22-.066 2.569-.275 3.677-.8.112-.052.03-.214-.08-.19-.594.131-1.128.323-1.734.423-.666.108-1.326.209-2 .235-1.276.05-2.427-.211-3.656-.508-.182-.043-.258.23-.077.28"/>
        <path fill="#725048" fill-rule="nonzero" d="M44.64 28.096a11.92 11.92 0 0 1 .391-1.685c.052-.164.15-.744.367-.536.185.177.029.801.027 1.033 0 .099.143.142.19.051.174-.324.31-1.83-.394-1.598-.337.111-.426.68-.51.962a9.05 9.05 0 0 0-.333 1.737c-.014.148.237.184.261.036m-15.903-.417c-.201-.646-.35-1.32-.627-1.94-.131-.294-.35-.669-.713-.704-.95-.093-.47 1.683-.325 2.1.052.152.32.142.3-.04-.035-.308-.11-.609-.161-.915-.024-.142-.086-.32-.068-.462.061-.479.42-.385.622-.055.365.599.595 1.401.722 2.085.03.162.3.092.25-.069"/>
        <path fill="#848484" fill-rule="nonzero" d="M27.914 22.746l-.076-.013c0 .002-.197 1.145-.197 2.328 0 .497.035 1.002.135 1.435.1.432.265.797.543 1.007.395.295 1.028.547 1.757.73.728.182 1.55.292 2.316.292.717 0 1.384-.096 1.883-.326.234-.107.42-.29.565-.516.433-.68.533-1.768.535-2.689 0-.91-.103-1.655-.103-1.657l-.004-.026-.019-.019c-.008-.008-1.317-1.264-3.924-1.264-.968 0-2.114.173-3.437.646l-.042.015-.008.044.076.013.025.072c1.308-.467 2.436-.637 3.386-.637 1.278 0 2.234.307 2.87.614.25.12.489.26.714.42.076.055.15.114.22.176l.01.01.004.002.053-.055-.076.01.016.129c.028.249.085.833.085 1.507 0 .606-.046 1.284-.198 1.855a2.666 2.666 0 0 1-.313.751 1.195 1.195 0 0 1-.499.46c-.466.216-1.116.312-1.819.312a9.688 9.688 0 0 1-2.279-.288c-.716-.178-1.337-.43-1.702-.704-.23-.171-.39-.503-.486-.919-.096-.415-.13-.91-.13-1.4 0-.583.048-1.16.097-1.59.02-.172.042-.345.067-.517.018-.125.03-.195.03-.195l-.075-.013.025.072-.025-.072m16.204-.353l-.066.038.008.015c.087.156.794 1.486.793 2.932 0 .829-.229 1.691-.93 2.409-.26.266-.725.472-1.292.606-.567.135-1.234.2-1.9.2-1.003 0-2.004-.149-2.65-.42-.23-.096-.418-.279-.57-.524-.226-.368-.368-.874-.45-1.405a10.39 10.39 0 0 1-.107-1.56c0-.363.014-.727.042-1.089l.008-.088-.076-.007.051.057.004-.004c.088-.077 1.646-1.418 4.535-1.418.767 0 1.629.094 2.582.333l.018-.075-.066.038.066-.038.019-.074a10.784 10.784 0 0 0-2.619-.337c-3.033 0-4.634 1.453-4.642 1.461l-.021.02-.003.029c0 .002-.052.507-.052 1.192 0 .636.044 1.425.215 2.115.086.345.203.666.366.93.163.264.373.474.642.586.677.283 1.69.43 2.708.43.676 0 1.354-.065 1.936-.203.582-.139 1.069-.347 1.365-.648.735-.75.975-1.66.974-2.516-.001-1.594-.819-3.017-.821-3.023l-.016-.028-.032-.008-.019.074"/>
        <path fill="#FFF" d="M27.915 23.277l-.02.167.044.019-.024-.186"/>
        <path fill="#764F49" fill-rule="nonzero" d="M27.958 23.444l-.005.028a9.022 9.022 0 0 0-.159 1.59l.003.18c.225.142.39.332.51.497.086.12.166.242.24.365-.121-.73-.303-1.635-.517-2.641l-.072-.02m-.12 2.318c.029.236.085.47.169.7.155.416.413.746.787.918-.205-.551-.516-1.14-.956-1.618"/>
        <path fill="#242424" d="M28.967 22.5c-.333.087-.661.188-.985.303-.025.158-.047.316-.067.475l.024.185c.132 1.006.244 1.912.318 2.64.074.206.142.414.202.624.066-1.045.268-2.612.508-4.227"/>
        <path fill="#846760" fill-rule="nonzero" d="M31.325 22.18c-.692 0-1.477.09-2.358.32-.24 1.615-.442 3.182-.508 4.227.083.28.158.56.242.838.365.2.86.382 1.412.519a9.69 9.69 0 0 0 2.279.288h.004c.701 0 1.35-.097 1.815-.312.202-.093.366-.251.5-.46a2.68 2.68 0 0 0 .312-.751c.152-.571.198-1.25.198-1.855a13.777 13.777 0 0 0-.098-1.609 3.088 3.088 0 0 0-.214-.17 4.716 4.716 0 0 0-.714-.42c-.636-.306-1.592-.614-2.87-.614m-.794 2.35l.04-.065a.897.897 0 0 1 .146-.17c.142-.135.403-.279.743-.361.17-.043.353-.075.556-.097.082-.008.168-.014.258-.014.13 0 .267.012.406.046.232.056.454.166.655.31.202.142.383.315.56.5l-.274-.158c-.174-.099-.422-.246-.734-.349a1.815 1.815 0 0 0-.586-.09c-.167 0-.345.016-.532.036-.214.022-.432.05-.645.106a1.337 1.337 0 0 0-.593.307"/>
        <path fill="#764F49" d="M32.274 23.824c-.09 0-.176.006-.258.014a4.01 4.01 0 0 0-.556.097c-.34.082-.6.226-.743.362a.903.903 0 0 0-.147.169l-.039.066c.17-.162.38-.25.593-.307.213-.057.431-.084.645-.106a5.29 5.29 0 0 1 .604-.035c.187.004.357.04.514.09.312.102.56.25.734.348l.274.159a3.884 3.884 0 0 0-.56-.502 1.918 1.918 0 0 0-.655-.31 1.718 1.718 0 0 0-.406-.045"/>
        <path fill="#846760" d="M27.796 25.242c.003.175.011.35.025.519.271.478.462 1.067.589 1.618l.001.001c.084.063.181.125.29.185-.084-.277-.16-.559-.242-.838a9.915 9.915 0 0 0-.202-.623 5.779 5.779 0 0 0-.148-.365 1.72 1.72 0 0 0-.313-.497"/>
        <path fill="#949494" fill-rule="nonzero" d="M31.325 22.104c-.96 0-2.096.172-3.411.642 0 0-.664 3.86.451 4.696.76.569 2.51 1.007 4.027 1.007.71 0 1.368-.096 1.851-.32 1.515-.699.953-4.781.953-4.781s-1.29-1.244-3.871-1.244m-2.358.396c.88-.23 1.666-.32 2.358-.32 1.278 0 2.234.309 2.87.615.25.119.489.26.714.42.074.054.146.11.215.17l.012.101c.056.501.084 1.004.085 1.508 0 .606-.046 1.284-.198 1.855a2.675 2.675 0 0 1-.313.751 1.197 1.197 0 0 1-.499.46c-.465.215-1.114.312-1.815.312h-.004a9.703 9.703 0 0 1-2.28-.288c-.55-.138-1.046-.318-1.411-.52a2.443 2.443 0 0 1-.29-.184h-.001c-.23-.173-.39-.503-.485-.919a4.938 4.938 0 0 1-.104-.7 8.07 8.07 0 0 1-.027-.7c0-.583.049-1.16.098-1.59l.003-.027c.024-.214.053-.428.087-.641.324-.115.652-.216.985-.303"/>
        <path fill="#764F49" d="M44.783 24.553a95.067 95.067 0 0 1-.43 2.688c.092-.146.169-.296.233-.448.037-.158.079-.314.125-.47.03-.101.061-.239.104-.379.026-.189.038-.378.038-.566 0-.282-.027-.56-.07-.825"/>
        <path fill="#242424" d="M43.811 22.4c.183 1.85.322 3.722.395 5.056.053-.07.102-.142.148-.215.126-.711.273-1.635.429-2.688a7.147 7.147 0 0 0-.716-2.093c-.085-.021-.17-.042-.256-.06"/>
        <path fill="#846760" fill-rule="nonzero" d="M41.518 22.135c-2.77 0-4.318 1.234-4.517 1.402l-.005.058c-.028.363-.042.726-.043 1.09 0 .47.025 1.027.108 1.559.082.532.224 1.038.451 1.405.152.245.338.428.57.525.644.27 1.643.418 2.644.418h.005a8.46 8.46 0 0 0 1.9-.199c.567-.134 1.032-.34 1.292-.606.105-.108.199-.218.283-.33a122.56 122.56 0 0 0-.395-5.058 10.464 10.464 0 0 0-2.293-.264m-2.986 2.397l.04-.066a.884.884 0 0 1 .146-.17c.143-.134.404-.279.743-.361a4.04 4.04 0 0 1 .556-.097c.082-.008.169-.014.258-.014.13 0 .267.012.406.046.232.056.455.166.655.31.202.142.383.315.56.5l-.274-.158c-.174-.099-.422-.246-.734-.349a1.804 1.804 0 0 0-.586-.09c-.166 0-.345.016-.532.036-.213.022-.431.05-.645.106a1.34 1.34 0 0 0-.593.307"/>
        <path fill="#764F49" d="M40.275 23.824c-.09 0-.176.006-.258.014a4.005 4.005 0 0 0-.556.097c-.34.082-.6.226-.743.362a.907.907 0 0 0-.146.169l-.04.066c.17-.162.38-.25.593-.307.214-.057.432-.084.645-.106a5.299 5.299 0 0 1 .605-.035c.186.004.356.04.513.09.313.102.56.25.734.348l.274.159a3.895 3.895 0 0 0-.56-.502 1.92 1.92 0 0 0-.655-.31 1.718 1.718 0 0 0-.406-.045"/>
        <path fill="#846760" d="M44.815 25.944c-.043.14-.074.278-.104.379a8.743 8.743 0 0 0-.126.47 3.4 3.4 0 0 0 .23-.849"/>
        <path fill="#949494" fill-rule="nonzero" d="M41.518 22.058c-3.007 0-4.59 1.442-4.59 1.442s-.415 4.1 1.124 4.744c.661.277 1.668.425 2.679.425 1.342 0 2.69-.261 3.246-.829 2.057-2.101.141-5.447.141-5.447l-.066.038.066-.038c-.959-.24-1.826-.335-2.6-.335m-4.517 1.48c.2-.17 1.747-1.403 4.517-1.403a10.464 10.464 0 0 1 2.55.324c.09.165.54 1.031.715 2.094.043.266.07.543.07.825 0 .188-.012.377-.038.566-.04.292-.117.577-.23.849a3.097 3.097 0 0 1-.662.994c-.26.266-.725.472-1.292.606-.567.135-1.234.2-1.9.2h-.005c-1.001 0-2-.15-2.644-.42-.232-.096-.419-.279-.57-.524-.227-.368-.369-.874-.451-1.405a10.39 10.39 0 0 1-.107-1.56c0-.363.014-.726.042-1.089l.005-.058"/>
        <path fill="#030303" d="M27.358 23.333c1.332-.548 2.847-.848 4.285-.783 1.87.084 3.12 1.638 5.01 1.32.579-.098.879-.457 1.428-.72 2.169-1.04 4.839-.612 7.068-.082.584.139.816-.764.232-.903-2.242-.533-4.702-.891-6.945-.152a5.857 5.857 0 0 0-1.484.717c-.11.075-.23.227-.35.279-.3.129.431-.11.034-.07-.908.087-1.32-.136-2.039-.564-.878-.522-1.963-.717-2.971-.757-1.514-.06-3.13.244-4.532.82-.549.226-.292 1.124.264.895"/>
        <path fill="#030303" fill-rule="nonzero" d="M38.705 21.746c.613-.884 2.268-1.296 3.184-.638.301.216.589-.282.29-.496-1.194-.858-3.181-.293-3.97.844-.212.304.286.592.496.29m-8.475-.514c1.092-.628 2.333-.489 3.242.381.268.256.675-.15.407-.406-1.096-1.048-2.624-1.227-3.939-.471-.32.184-.031.68.29.496m3.424 4.51c-.238.046-.48.124-.724.123-.653.12-2.393-.278-2.57-.36-.167.101-.226.388 0 .513.964.528 2.684.617 3.6-.094.141-.11.184-.171.11-.291a2.647 2.647 0 0 1-.417.11"/>
        <path fill="#030303" fill-rule="nonzero" d="M31.433 26.52a.689.689 0 0 0 .607.43c.277.017.571-.007.794-.199.28-.24.17-.674-.178-.546-.093.034-.609.289-.677.137-.064-.143-.203-.234-.362-.184-.136.043-.248.221-.184.362m10.08-.934c-.473.351-2.49.243-2.765.177a3.32 3.32 0 0 1-.646-.22c-.098.128-.043.303.137.407.952.548 2.653.812 3.583.12.295-.218-.01-.706-.308-.484"/>
        <path fill="#030303" d="M39.253 26.492a.689.689 0 0 0 .59.45c.277.028.564-.006.802-.169.304-.209.194-.668-.158-.552-.095.03-.62.266-.682.113-.058-.146-.194-.242-.355-.198-.138.038-.256.212-.197.356"/>
        <path fill="#000" d="M.843 79.976h71.83a.841.841 0 0 0 .843-.84.841.841 0 0 0-.843-.84H.843a.841.841 0 0 0-.843.84c0 .464.377.84.843.84"/>
        <path fill="#FFF" fill-rule="nonzero" d="M7.074 66.169l.766.305c.193.076.421-.084.472-.267.06-.217-.075-.392-.268-.469l-.766-.305c-.192-.077-.421.083-.471.266-.06.218.074.393.267.47m1.441 1.182l1.073.763c.169.12.427.03.524-.137.113-.191.032-.401-.137-.522l-1.073-.763c-.168-.12-.426-.03-.524.137-.113.192-.032.402.137.522m2.357 1.485c.266.257.596.44.955.529.48.117.684-.619.204-.736a1.326 1.326 0 0 1-.617-.332c-.357-.34-.9.199-.542.54m1.923 1.438l.923.451c.185.091.414.05.524-.137.099-.168.05-.43-.138-.522l-.922-.45c-.186-.092-.415-.051-.525.136-.098.168-.048.43.138.522m53.236-3.983l-.766.306c-.192.076-.42-.084-.471-.267-.06-.217.074-.392.267-.47l.766-.304c.193-.077.421.083.472.266.06.217-.075.393-.268.47m-1.44 1.182l-1.074.763c-.168.12-.426.03-.524-.137-.113-.191-.031-.402.137-.522l1.073-.763c.169-.12.427-.03.524.137.113.192.032.402-.137.522m-2.356 1.485a2.11 2.11 0 0 1-.956.529c-.479.117-.683-.619-.204-.736.237-.058.441-.164.618-.333.356-.34.899.2.542.54m-1.924 1.439l-.923.45c-.185.092-.414.05-.524-.136-.098-.168-.049-.431.138-.522l.922-.451c.186-.091.415-.05.525.137.098.168.049.43-.138.522"/>
    </g>
</svg>
