<svg xmlns="http://www.w3.org/2000/svg" xmlns:xlink="http://www.w3.org/1999/xlink" width="76" height="76" viewBox="0 0 76 76">
    <defs>
        <path id="a" d="M0 .157h75.842v75.584H0z"/>
    </defs>
    <g fill="none" fill-rule="evenodd">
        <g transform="translate(0 .101)">
            <mask id="b" fill="#fff">
                <use xlink:href="#a"/>
            </mask>
            <path fill="#FAB431" d="M75.842 37.95c0 20.871-16.977 37.791-37.92 37.791C16.977 75.741 0 58.821 0 37.95S16.978.157 37.92.157c20.944 0 37.921 16.92 37.921 37.792" mask="url(#b)"/>
        </g>
        <path fill="#FFF" d="M23.057 16.566l23.78-3.435c.06-.009.121-.013.18-.013.346 0 .684.148.953.417.342.343.537.844.535 1.374l-.158 35.858c-.004.898-.572 1.657-1.32 1.765L22.884 56.02l.173-39.454z"/>
        <path fill="#62352E" d="M47.018 12.31c-.098 0-.198.007-.298.022l-24.47 3.535-.181 41.087 25.074-3.622c1.147-.166 2.009-1.262 2.014-2.562l.158-35.858c.007-1.453-1.043-2.602-2.297-2.602m0 1.616c.164 0 .295.097.377.18.192.19.3.482.299.8l-.158 35.857c-.002.544-.327.926-.625.97l-23.213 3.353.167-37.82 23.088-3.335a.47.47 0 0 1 .065-.005"/>
        <path fill="#62352E" d="M50.244 60.415L21.904 56.8V15.712l29.08 3.71c1.406.18 2.457 1.336 2.457 2.704v35.585c0 1.648-1.504 2.92-3.197 2.704"/>
        <path fill="#FFF" d="M44.822 44.151c-.828-.273-1.644-.5-2.443-.688.31-1.159.493-2.459.525-3.85l3.35.2a8.411 8.411 0 0 1-1.432 4.338zm-4.439 3.254c.714-.77 1.311-1.833 1.746-3.113.703.162 1.418.354 2.142.583a8.195 8.195 0 0 1-3.888 2.53zm-2.05.346c-.162.008-.326.01-.491.009v-4.122c1.07.084 2.208.23 3.391.463-.673 1.878-1.71 3.23-2.9 3.65zm-.491-8.443l4.194.252a15.324 15.324 0 0 1-.539 3.709 30.44 30.44 0 0 0-3.655-.515v-3.446zm0-4.067c1.16.039 2.398-.017 3.684-.215a16.17 16.17 0 0 1 .51 3.662l-4.194-.252V35.24zm0-5.257c.165.018.329.04.492.067 1.212.575 2.266 2.099 2.937 4.114a19.03 19.03 0 0 1-3.43.184v-4.365zm6.312 3.51c-.677.22-1.348.391-2.01.522-.436-1.353-1.039-2.507-1.76-3.372a9.665 9.665 0 0 1 3.77 2.85zm.55.753a9.35 9.35 0 0 1 1.55 4.694l-3.35-.201a17.316 17.316 0 0 0-.513-3.867c.759-.153 1.532-.36 2.313-.626zm-7.731.053c-1.278-.1-2.444-.31-3.445-.553.67-1.959 1.732-3.375 2.953-3.807.163-.007.327-.01.492-.008V34.3zm0 4.083l-4.194-.252c.033-1.266.208-2.465.493-3.538 1.068.267 2.32.496 3.701.6v3.19zm0 4.314a31.179 31.179 0 0 0-3.67.025c-.303-1.14-.49-2.401-.524-3.718l4.194.252v3.441zm0 5.01a9.113 9.113 0 0 1-.492-.067c-1.198-.568-2.242-2.062-2.914-4.043a31.11 31.11 0 0 1 3.406-.015v4.126zm-6.502-3.753a25.72 25.72 0 0 1 2.196-.29c.436 1.358 1.04 2.516 1.764 3.384a9.677 9.677 0 0 1-3.96-3.094zm-.543-.799a9.323 9.323 0 0 1-1.367-4.405l3.35.202a17.33 17.33 0 0 0 .507 3.841c-1.16.113-2.021.266-2.49.362zm.091-9.655c.497.218 1.317.544 2.384.857a16.585 16.585 0 0 0-.492 3.722l-3.35-.201a8.412 8.412 0 0 1 1.458-4.378zm4.412-3.214c-.734.792-1.345 1.897-1.782 3.228a20.425 20.425 0 0 1-2.088-.719 8.196 8.196 0 0 1 3.87-2.509zm4.137-1.07a3.437 3.437 0 0 0-1.16-.283c-.4-.024-.788.027-1.161.143-4.818.29-8.566 4.192-8.566 9.185 0 4.994 3.748 9.347 8.566 10.215a3.43 3.43 0 0 0 1.16.283c.4.024.787-.027 1.161-.144 4.818-.29 8.566-4.191 8.566-9.185 0-4.993-3.748-9.346-8.566-10.214zM60.262 20.486l3.005-1.33c.895-.396.12-1.706-.77-1.312l-3.005 1.33c-.895.396-.12 1.706.77 1.312M59.873 30.4a15.79 15.79 0 0 0 4.248-.272c.963-.19.555-1.656-.405-1.466a14.257 14.257 0 0 1-3.843.217c-.98-.072-.975 1.448 0 1.52M61.141 40.444l3.536.321c.977.09.971-1.432 0-1.52l-3.536-.32c-.977-.09-.97 1.431 0 1.52M61.268 49.701l2.012 1.03c.872.447 1.645-.864.77-1.312l-2.012-1.03c-.872-.447-1.645.865-.77 1.312"/>
    </g>
</svg>
