<svg xmlns="http://www.w3.org/2000/svg" xmlns:xlink="http://www.w3.org/1999/xlink" width="150" height="150" viewBox="0 0 150 150">
    <defs>
        <path id="a" d="M.079.17h42.734v70.262H.079z"/>
        <path id="c" d="M.051.139h52.546v26.914H.051z"/>
    </defs>
    <g fill="none" fill-rule="evenodd">
        <g transform="translate(0 68.04)">
            <mask id="b" fill="#fff">
                <use xlink:href="#a"/>
            </mask>
            <path fill="#714F47" d="M36.959.933c-1.416-2.382-5.852 1.377-7.969 3.536-2.135 2.177-4.884 3.803-6.685 6.301-1.801 2.497-1.917 6.191-2.22 9.237-.704 7.079 1.346 16.144-.722 23.031-.99 3.3-30.011 51.294-26.047 52.232 3.426.81 17.669-.247 20.902 1.416 1.963 1.01 2.999 2.2 4.46.053.94-1.38 16.95-49.78 17.666-51.28.88-1.844 1.615-3.343 2.918-4.951 3.222-3.975 1.743-10.908 2.333-15.948.607-5.183 3.17-8.472-1.689-12.46-2.965-2.435-.99-7.873-2.947-11.167" mask="url(#b)"/>
        </g>
        <path fill="#595959" d="M38.017 34.758c1.783-1.365 3.924-1.3 6.38-1.294 2.51.004 5.81-.04 8.318-.078 2.425-.036 5.001-.088 7.426-.072 2.159.013 5.812-.06 7.656 1.203 1.644 1.128 2.488 3.66 2.76 5.594.55 3.914.045 7.883.004 11.814-.049 4.845.035 9.337.097 14.183.047 3.605.047 8.357-.083 11.96-.11 3.051.1 5.33-.038 8.38-.1 2.202.456 5.002-1.635 6.675-1.308 1.046-3.401 1.424-4.997 1.557-2.53.21-5.07-.002-7.603.057-2.955.07-5.9-.067-8.848-.259-2.59-.168-5.762.436-8.2-.46-2.769-1.015-3.552-3.75-3.64-6.833-.33-11.73.3-23.553-.17-35.207-.131-3.215.18-6.58.335-9.85.13-2.729-.237-5.478 2.238-7.37"/>
        <path fill="#000" d="M62.398 33.366c.345-.191.942-.369 2.023-.25.417.045.807.179 1.065.346 0 .275.06.616-.284.828-.27.165-1.014.277-1.36.271-.42-.008-.744-.06-1.104-.217-.529-.231-.3-.623-.34-.978"/>
        <path fill="#595959" d="M64.64 33.025c.546.08.998.598.214.787h-.001c-.998.24-1.546-.346-1.222-.65.146-.137.47-.217 1.009-.137"/>
        <path fill="#000" d="M42.143 35.24c5.06.002 18.618-.12 22.663-.118 5.355.002 5.15 6.716 5.22 8.57.025.674.016 18.481.008 31.399-.005 7.276-.01 13-.009 13.238.024 5.513-2.729 6.431-6.33 6.43l-19.373-.01c-8.1-.004-8.072-2.272-8.07-7.224.001-1.596-.052-10.171-.104-19.283-.053-9.168-.106-18.878-.104-22.566 0-.495-.018-.997-.036-1.497-.13-3.508-.179-8.942 6.135-8.94"/>
        <path fill="#595959" d="M48.025 36.56c1.162.018 1.74.086 2.607.058.842-.028 3.18-.004 4.976.012.414.004 4.566-.336 3.181.954-.398.37-1.376.21-1.87.235-1.238.064-2.932.023-4.43.029-1.651.005-2.557.003-4.517-.002-1.654-.004-1.268-1.305.053-1.285"/>
        <path fill="#000" d="M62.302 87.306c1.739.172 3.179.112 4.89-.479l1.536-.816c1.016 2.215.428 5.433-1.263 7.22-1.425 1.507-4.023 1.432-5.945 1.216-2.16-.241-4.429-.317-4.744-2.52-.199-1.392-1.086-3.131-1.032-4.54.008-.191 5.983-.138 6.558-.08"/>
        <path fill="#FF7900" d="M37.745 84.846l-.018-6.39-.03-10.933h.003l-.012-4.367c-.005-2.376-.078-14.746-.084-17.122-.004-1.236.005-1.475-.003-2.711-.022-3.399 1.98-3.755 4.073-3.79 2.496-.042 3.627-.067 6.122-.111 3.653-.064 7.306-.127 10.959-.187 1.697-.028 3.14-.064 4.837-.09 1.486-.023 4.489.109 4.507 2.93.014 1.911.107 16.956.12 18.868.014 2.024.03 4.047.043 6.07h.001l.092 13.006c.008 1.19.014 2.231.029 3.737.012 1.266.342 4.155-4.948 4.243-2.11.036-19.783.287-21.528.33-4.13.099-4.16-2.768-4.163-3.483"/>
        <path fill="#9DAAC0" d="M56.261 84.565l.01.015c0 .002-.003-.004-.01-.015"/>
        <path fill="#233143" d="M66.767 63.96l-.051.056.05-.056zM66.51 63.797l-.001-.014.004.013-.004.001zM39.09 63.467l-.002-.014.005.013-.003.001z"/>
        <path fill="#8F8F8F" d="M49.035 90.658c.763-.175 1.752-.196 2.438-.245.63-.046 2.38-.006 3.725.02.565.01 3.966-.161 2.577 1.483-.332.393-1.165.432-1.597.481-.925.106-2.194.039-3.316.047-1.234.01-1.912.006-3.378-.002-1.24-.007-2.086-1.408-.45-1.784"/>
        <path fill="#FF7900" d="M28.896 111.493c-.043.022-.076.04 0 0M14.827 113.047c1.015-1.53 2.96-2.183 4.707-2.34 3.248-.296 6.572.689 9.576 1.817 2.114.793 4.38 1.642 6.156 3.07 1.706 1.372 3.069 3.274 3.721 5.37.4 1.283.659 2.718.159 4.013-.349.903-1.08 1.642-1.869 2.18-1.63 1.112-4.511 1.853-6.437 2.207-.154.028-.266.014-.35-.031.461-.9.773-1.87 1.03-2.848.138-.026.277-.052.414-.082l.2-.044.01-.002c.382-.114.766-.208 1.144-.334.342-.113.68-.238 1.011-.377a11.533 11.533 0 0 0 .761-.35c.039-.02.307-.178.16-.088.263-.161.523-.323.765-.516.075-.06.145-.123.217-.185.107-.124.204-.286.32-.396.023-.052.05-.103.072-.155l.033-.113c.012-.088.042-.27.04-.253 0-.007.01-.145.012-.15a6.055 6.055 0 0 0-.142-1.074l-.032-.127c-.034-.115-.066-.23-.103-.343a9.26 9.26 0 0 0-.507-1.263 13.853 13.853 0 0 0-.13-.257l-.047-.095a2.23 2.23 0 0 1-.055-.083 12.712 12.712 0 0 0-.78-1.123c-.376-.469-.476-.578-.887-.95-.718-.649-1.297-1.039-2.076-1.413-.999-.48-2.018-.922-3.048-1.333a39.667 39.667 0 0 0-3.169-1.118 37.255 37.255 0 0 0-.446-.126 25.905 25.905 0 0 0-1.168-.29 19.867 19.867 0 0 0-2.087-.358 15.146 15.146 0 0 0-.835-.072c-.042-.003-.227-.01-.299-.013h-.034l-.246.001a9.49 9.49 0 0 0-1.437.126c-.098.016-.195.037-.293.056l-.018.003c-.186.054-.37.108-.551.177-.152.058-.299.126-.446.193l-.008.004c-.049.03-.097.058-.144.09-.122.08-.239.166-.35.26l-.057.055c-.029.028-.057.056-.089.076l.05-.033c-.079.092-.145.191-.218.287-.02.04-.04.079-.059.12-.02.045-.036.092-.054.138l-.044.251c0-.03-.003-.06-.009-.09.007.034.006.074.006.114l-.005.025a1.004 1.004 0 0 0-.006.04c-.244.637-.351 1.326-.664 1.946-.167.33-.347.652-.528.974-.226-.068-.513-.325-.919-.915-.865-1.328-.785-2.946.082-4.253M26 114.743c-.045.022-.08.04 0 0"/>
        <path fill="#714F47" d="M79.326 91.399c2.119-.63 5.02-.342 6.876-1.566 5.501-3.629 10.825-7.524 15.574-11.916a712.367 712.367 0 0 0 2.962 5.161c1.183 2.033 2.546 3.976 3.751 5.997.996 1.672.715 3.346 2.157 4.875 1.841 1.949 5.313 2.362 6.882 4.355 1.045 1.328.71 2.92.912 4.553.929 7.525 12.69 15.207 3.772 21.958-3.551 2.69-7.946 4.39-12.041 6.06-3.31 1.35-6.867 1.485-8.634-1.993-1.506-2.963-1.659-6.172-4.238-8.59-2.32-2.174-5.691-2.754-7.99-4.827-3.278-2.956-5.922-7.185-8.155-10.964-1.985-3.362-4.431-7.136-4.247-11.215.05-1.11 1.428-1.593 2.419-1.888"/>
        <g transform="translate(97.213 111.42)">
            <mask id="d" fill="#fff">
                <use xlink:href="#c"/>
            </mask>
            <path fill="#50BE87" d="M.285 16.194C.805 15.282 23.767.307 26.673.142c1.931-.11 3.843 2.906 4.716 3.95 3.527 4.223 37.65 45.196 38.482 53.66H24.994C16.578 50.034 4.21 25.773.65 18.982c-.658-1.257-.765-2.085-.366-2.787" mask="url(#d)"/>
        </g>
        <path fill="#714F47" d="M71.578 84.363c-.571.058-1.15.277-1.712.7-.261.196 4.802 9.073 7.037 7.209 2.836-2.37-2.515-8.19-5.325-7.909"/>
        <path fill="#714F47" d="M76.61 77.409c1.31.537 2.838 1.547 3.653 1.086 1.176-.664-2.109-3.158-2.7-3.726-.97-.93-2.088-1.787-2.996-2.783-.575-.632-1.274-1.573-.713-2.439.588-.907 1.615-.107 2.283.297 3.288 1.99 6.313 4.427 9.352 6.77 1.624 1.253 3.323 2.47 4.978 3.666 1.144.828 2.272 2.098 3.696 1.748 1.044-.256 2.274-1.567 3.038-.093.442.852.643 1.928.793 3.014.133.965.225 1.937.407 2.767.303 1.374.134 2.758-.047 4.136-.202 1.532.687 6.351.687 6.351-.652 2.217-.53 4.227-3.106 4.496-2.185.229-4.722-.428-6.57-1.623-1.083-.7-1.274-1.56-2.659-1.28-1.13.228-2.162 1.113-3.371.907-.99-.169-1.684-1.69-2.221-2.451-1.34-1.903-5.256-5.69-4.214-8.206.894-2.158 1.343-2.224.392-4.687-.806-2.089-3.026-4.085-3.008-6.452.016-2.092 1.07-2.014 2.327-1.498M76.443 63.996c.367.457.693.919.952 1.334.622 1 .901 2.913 2.228 3.288 1.41.397 2.092-2.2 2.32-3.184.54-2.317-1.6-3.941-3.396-5.027-1.98-1.197-3.787-.864-4.8 1.225.947.45 1.918 1.398 2.696 2.364"/>
        <path fill="#714F47" d="M75.74 77.272l.597 1.066c-.019.24-.58 3.109-.766 3.034-1.555-.63-3.19-2.596-2.545-4.309.287-.764 1.705-2.643 2.642-1.616.465.51-.213 1.308.072 1.825"/>
        <path fill="#838080" d="M82.378 53.87c1.721-1.02 3.609-.737 5.782-.475 2.221.268 5.146.575 7.37.806 2.15.223 4.435.448 6.58.716 1.909.24 5.15.559 6.649 1.87 1.337 1.17 1.818 3.5 1.855 5.24.075 3.522-.789 6.982-1.238 10.457-.553 4.283-.95 8.267-1.404 12.562-.338 3.195-.838 7.402-1.331 10.576-.418 2.689-.472 4.727-.914 7.412-.32 1.938-.122 4.475-2.149 5.736-1.267.789-3.16.903-4.585.853-2.261-.08-4.487-.534-6.736-.748-2.622-.249-5.214-.68-7.803-1.16-2.275-.42-5.145-.22-7.21-1.268-2.343-1.19-2.749-3.693-2.501-6.43.94-10.416 2.74-20.813 3.547-31.177.223-2.859.851-5.805 1.333-8.682.402-2.402.366-4.873 2.755-6.288"/>
        <path fill="#FFF" d="M84.648 57.873c3.926.571 7.912.773 11.826 1.41 2.964.48 6.132.08 8.99 1.152 3.644 1.365 3.792 4.697 3.385 8.125l-.73 6.157-1.722 14.51-.957 8.06c-.26 2.2.133 4.945-1.21 6.86a2.93 2.93 0 0 1-.52.574c-1.44 1.197-3.578.352-5.388.137l-14.54-1.725-7.726-.917.004-.033 2.256-19.018c.867-7.305 1.688-14.592 2.32-21.912.231-2.676 1.256-3.78 4.012-3.38"/>
        <path fill="#1B2734" d="M104.102 55.2c.325-.132.873-.227 1.816-.008.364.084.696.243.906.418-.028.243-.012.552-.338.703-.256.118-.926.14-1.232.097-.37-.05-.652-.13-.954-.308-.443-.26-.2-.582-.198-.901"/>
        <path fill="#000" d="M106.121 55.134c.476.129.821.636.108.72h-.001c-.909.107-1.332-.47-1.013-.704.143-.106.438-.142.906-.016M77.067 97.189c.227-1.846 3.747-31.52 4.002-33.58.131-1.071.166-1.278.294-2.349.35-2.949 2.14-3.019 3.976-2.8 2.188.261 3.18.374 5.368.633 3.202.379 6.404.759 9.606 1.141 1.488.178 2.754.319 4.242.499 1.302.157 3.92.769 3.53 3.838-.209 1.656-1.667 13.941-1.864 15.6l-.333 2.798-.293 2.466h.001l-1.34 11.28c-.123 1.032-.147 1.21-.299 2.516-.08.687.168 4.43-4.876 3.814-1.85-.225-17.337-2.105-18.867-2.277-3.623-.405-3.223-2.96-3.147-3.58m2.543-35.19c-.037.444-.074.89-.126 1.327-.388 3.264-1.362 11.863-2.279 19.983-.911 8.07-1.766 15.665-1.934 17.076-.522 4.383-.785 6.388 6.383 7.242 3.473.413 13.67 1.63 17.144 2.045 3.187.38 5.72-.144 6.278-5.026.024-.21.63-5.276 1.399-11.715 1.365-11.431 3.244-27.19 3.292-27.789.134-1.648 1.02-7.568-3.718-8.134-3.58-.426-15.592-1.742-20.07-2.277-5.588-.665-6.115 4.149-6.37 7.267"/>
        <path fill="#000" d="M91.046 56.518c1.027.137 1.53.258 2.3.324.75.064 2.816.332 4.404.534.366.047 4.076.183 2.715 1.178-.392.287-1.24.041-1.68.012-1.102-.073-2.597-.287-3.924-.44a548.642 548.642 0 0 1-3.997-.476c-1.464-.178-.986-1.289.182-1.132"/>
        <path fill="#81C8A6" d="M104.36 97.44c-.009.09-.017.178-.027.266h-.006a1 1 0 0 0 .02-.202l.002-.065.011.001"/>
        <path fill="#838080" d="M85.923 103.886c.688-.1 1.556-.019 2.162.002.557.018 2.083.24 3.255.406.493.07 3.487.248 2.073 1.786-.338.367-1.071.32-1.454.326-.823.011-1.924-.188-2.906-.296-1.08-.119-1.673-.194-2.954-.353-1.084-.136-1.653-1.658-.176-1.871"/>
        <path fill="#714F47" d="M80.775 68.383a3.733 3.733 0 0 0-.025-2.007c-2.12.198-8.772 1.315-6.877 4.852 1.583 2.954 6.36-.73 6.902-2.845M80.062 75.824a3.733 3.733 0 0 0-.024-2.006c-2.121.197-8.773 1.315-6.877 4.851 1.583 2.955 6.36-.73 6.901-2.845"/>
        <path fill="#66413E" d="M77.555 67.778c.774 1.415 2.332-.377 2.89-1.111.22-.29.673.05.451.342-.5.657-1.098 1.296-1.84 1.678-.338.174-.74.257-1.11.153-.427-.12-.705-.462-.91-.836-.175-.321.346-.544.52-.226M77.265 75.685c.637.759 1.902-.277 2.38-.771.25-.259.706.079.452.341-.758.784-2.333 1.904-3.277.78-.235-.28.21-.63.445-.35"/>
        <path fill="#714F47" d="M105.97 69.772c.848 2.444 2.672 4.345 4.474 6.161 1.366 1.378 3.545 2.611 4.631 4.251.4 3.996 2.298 7.77 4.778 10.964.18.484.291.983.293 1.502 0 .102 0 .206-.002.31-.078 4.134-.026 10.432-.27 14.574-3.064 1.596-3.235 1.778-5.886 3.352-.363-.23-.538-2.3-.886-2.557-1.065-.786-1.936-1.764-3.077-2.454-.694-.418-1.675-.665-2.215-1.304-1.377-1.627-.463-5.018-.379-6.954.136-3.146-.372-6.454.002-9.572.294-2.451.036-4.254-1.382-6.441-.129-.197-.334-.372-.553-.544-.252-.197-.52-.39-.708-.61-.821-.955-1.331-2.302-1.493-3.577-.28-2.22.025-6.262 2.673-7.1"/>
        <path fill="#66413E" d="M105.1 73.233c.184.695.66 1.251 1.352 1.47.65.206 1.352-.063 1.782-.567.236-.276.69.063.452.342-.576.673-1.444 1.005-2.317.785-.953-.241-1.584-1.02-1.83-1.945-.093-.353.468-.433.56-.085"/>
        <path fill="#000" d="M66.06 27.92l-18.952-.835s4.61-16.966 31.608-14.773c9.1.74 21.413 10.958 23.116 28.01l4.387-.253-9.064 11.55-8.586-10.06 3.476-.309S85.748 13.963 73.4 13.747c-3.457-.06-6.496 4.387-7.34 14.174M100.78 131.797l.335-.337c.505-.507.545-1.43 0-1.93-.543-.5-1.392-.542-1.93 0l-.336.336c-.504.508-.544 1.432 0 1.931.544.5 1.393.541 1.931 0M103.2 130.31c.835-.275 1.477-.775 1.98-1.492.411-.586.125-1.543-.49-1.867-.7-.37-1.429-.137-1.868.49-.083.116-.062.09.065-.081a2.314 2.314 0 0 1-.232.232c.16-.118.198-.147.114-.086-.08.051-.163.1-.243.15-.13.065-.096.053.102-.034-.05.02-.102.039-.155.055-.677.222-1.188.954-.953 1.68.219.675.953 1.191 1.68.953M108.052 127.624l.996-.69c.586-.406.91-1.215.49-1.868-.375-.583-1.24-.925-1.868-.49l-.996.69c-.586.406-.91 1.215-.49 1.868.376.582 1.24.924 1.868.49M113.04 124.123c-.096.193-.117.245-.064.153.054-.088.022-.045-.097.13a64.15 64.15 0 0 0-.156.124c-.215.076-.254.096-.116.058.694-.169 1.177-.992.954-1.68-.233-.72-.936-1.134-1.68-.952-.725.177-1.254.743-1.473 1.441-.215.681.252 1.52.953 1.68.743.169 1.45-.225 1.68-.954M116.604 122.092c-.034.045-.194.217-.06.1-.079.068-.216.19-.058.05.1-.089-.245.069-.114.041.1-.021.292-.055-.096-.008.375-.045.688-.122.965-.4.237-.236.416-.625.4-.965-.03-.666-.606-1.457-1.365-1.365-.428.051-.788.12-1.169.34-.364.21-.613.497-.86.829-.199.265-.222.748-.139 1.052.088.317.332.66.628.816.317.167.7.251 1.052.137.36-.116.592-.326.816-.627M120.492 120.064l1.354-.654c.645-.312.867-1.282.49-1.868-.427-.661-1.179-.823-1.868-.49l-1.354.655c-.644.311-.867 1.281-.49 1.868.427.661 1.179.823 1.868.49M124.523 117.873c.335-.17.67-.338 1.007-.507.64-.322.872-1.275.49-1.868-.422-.654-1.185-.834-1.869-.49-.335.17-.67.338-1.006.507-.64.322-.872 1.275-.49 1.868.421.653 1.184.834 1.868.49"/>
        <path fill="#000" d="M127.368 116.557c1.757 0 1.76-2.73 0-2.73-1.757 0-1.76 2.73 0 2.73"/>
        <path fill="#FFF" d="M102.856 136.556l1.327-.706c.631-.336.878-1.265.49-1.868-.414-.642-1.193-.85-1.868-.49l-1.327.706c-.63.337-.878 1.265-.49 1.868.414.642 1.193.85 1.868.49M107.503 133.478l.335-.337c.504-.507.545-1.431 0-1.93-.543-.5-1.393-.542-1.93 0l-.336.336c-.504.507-.544 1.431 0 1.931s1.393.541 1.931 0M110.908 131.485l1.009-.504c.64-.32.871-1.276.49-1.868-.422-.655-1.184-.832-1.868-.49l-1.009.504c-.64.32-.871 1.276-.49 1.868.423.655 1.184.832 1.868.49M115.612 128.797l.856-.652c.295-.225.524-.443.627-.816.09-.327.05-.762-.138-1.052-.36-.56-1.26-.953-1.867-.49l-.856.652c-.295.225-.525.443-.627.816-.09.327-.05.762.137 1.052.36.56 1.26.953 1.868.49M118.627 126.423l.85-.489c.619-.356.887-1.25.49-1.868-.403-.624-1.206-.871-1.868-.49l-.85.49c-.619.356-.887 1.25-.49 1.868.403.625 1.206.87 1.868.49M122.486 124.226l1.896-1.095c.619-.357.888-1.25.49-1.867-.403-.625-1.206-.873-1.869-.49l-1.895 1.094c-.62.358-.888 1.25-.49 1.868.403.625 1.206.872 1.868.49"/>
        <path fill="#FFF" d="M126.529 121.894l.499-.344c.587-.404.91-1.216.49-1.868-.377-.584-1.239-.922-1.868-.49l-.5.344c-.587.404-.909 1.217-.489 1.868.376.584 1.239.922 1.868.49M129.906 119.9l.336-.168c.64-.32.872-1.276.49-1.868-.422-.655-1.183-.832-1.868-.49l-.336.169c-.64.32-.871 1.275-.49 1.867.422.655 1.184.833 1.868.49"/>
        <path fill="#F27930" d="M81.395 49.696l-4.5-4.89c-1.142-1.24-2.987.611-1.849 1.847l4.502 4.89c1.141 1.24 2.985-.611 1.847-1.847M85.384 42.575l-2.53-5.552c-.696-1.528-2.949-.201-2.256 1.32l2.53 5.55c.696 1.529 2.95.202 2.256-1.318M111.745 47.794l2.382-4.689c.76-1.496-1.494-2.82-2.256-1.319l-2.382 4.689c-.76 1.496 1.494 2.82 2.256 1.319M113.647 56.141a30.992 30.992 0 0 1 5.17-1.69c1.635-.39.942-2.91-.696-2.52-1.997.474-3.91 1.138-5.793 1.954-1.539.667-.21 2.919 1.32 2.256"/>
        <path fill="#714F47" d="M45.057 74.43c-4.081 3.4-3.49 11.373-9.544 13.332-1.075.348-2.167.973-3.258.74-1.313-.279-1.924-1.397-2.793-2.31.355.373-.041 2.894-.066 3.448-.043.938-.143 1.81-.468 2.695-.602 1.636-1.05 2.873-.838 4.682.398 3.401-2.052 13.617 1.183 15.186 4.783 2.322 10.88-3.024 12.754-7.354.428-.99 2.16-5.855 2.324-6.896.355-2.258.415-6.024.76-8.275.783-5.114 4.306-12.444 5.105-15.028.554-1.788-2.574-2.372-5.159-.22"/>
        <path fill="#806059" d="M48.78 73.57c-1.297 1.349-2.496 2.937-2.73 4.794-.05.399-.05.82.118 1.184.168.365.54.66.942.631.415-.029.733-.371.987-.702a12.896 12.896 0 0 0 2.346-4.969c.089-.387.123-.876-.206-1.098-.29-.196-.68-.057-.998.086"/>
    </g>
</svg>
