<svg xmlns="http://www.w3.org/2000/svg" xmlns:xlink="http://www.w3.org/1999/xlink" width="172" height="157" viewBox="0 0 172 157">
    <defs>
        <circle id="a" cx="72" cy="72" r="72"/>
        <path id="c" d="M0 .005h20.042v15.728H0z"/>
        <path id="e" d="M.042.221h30.826v32.564H.042z"/>
        <path id="g" d="M0 0h214v110H0z"/>
        <path id="i" d="M0 .005h20.042v15.728H0z"/>
        <path id="k" d="M.042.221h30.826v32.564H.042z"/>
    </defs>
    <g fill="none" fill-rule="evenodd">
        <g transform="translate(0 12.075)">
            <mask id="b" fill="#fff">
                <use xlink:href="#a"/>
            </mask>
            <use fill="#D8D8D8" fill-rule="nonzero" xlink:href="#a"/>
            <g mask="url(#b)">
                <g opacity=".231" style="mix-blend-mode:luminosity">
                    <path fill="#B5E8F7" d="M-36.48 77.194h91.378V15.925h-91.379z"/>
                    <path fill="#8F8F8F" d="M-36.48 15.925h91.378v-2.188h-91.379z"/>
                    <path fill="#FFF" d="M54.898 25.407H21.814c-.871 0-1.133-1.224-.343-1.603l1.7-.814a5.531 5.531 0 0 1 3.653-.402l3.43.8a5.522 5.522 0 0 0 2.963-.127L43.94 19.78c1.667-.542 3.487.003 4.616 1.382l.913 1.116a2.391 2.391 0 0 0 2.712.737l2.717-1.04v3.433z"/>
                    <g>
                        <path fill="#D6D6D6" d="M12.82 138.433h149.086v-3.811H12.82z"/>
                        <path fill="#595959" d="M18.598 198.793h2.235v-60.36h-2.235zM153.893 198.793h2.235v-60.36h-2.235z"/>
                        <path fill="#D6D6D6" d="M51.53 124.507c0 9.2 6.56 9.563 6.56 9.563H38.356s6.56-.363 6.56-9.563h6.614z"/>
                        <path fill="#8F8F8F" d="M65.481 125.116H30.966a.942.942 0 0 1-.946-.938v-24.101c0-.518.424-.939.946-.939H65.48c.522 0 .946.42.946.939v24.101a.942.942 0 0 1-.946.938"/>
                        <path fill="#000" d="M64.689 123.876H31.758a.426.426 0 0 1-.428-.424v-22.65c0-.234.192-.424.428-.424h32.931c.236 0 .428.19.428.425v22.649a.426.426 0 0 1-.428.424"/>
                        <path fill="#8F8F8F" d="M38.357 135.046H58.09v-.975H38.357z"/>
                        <path fill="#595959" d="M139.413 134.622h-30.629V121.04a.81.81 0 0 1 .813-.807H138.6a.81.81 0 0 1 .813.807v13.582z"/>
                        <path fill="#000" d="M111.048 124.046h26.1v-1.322h-26.1z"/>
                        <path fill="#D6D6D6" d="M130.608 132.74h2.628v-1.228h-2.628z"/>
                        <path fill="#FF7900" d="M133.956 132.126c0 .338.276.613.618.613a.616.616 0 0 0 .618-.613.616.616 0 0 0-.618-.614.616.616 0 0 0-.618.614"/>
                        <path fill="#FFF" d="M135.912 132.126c0 .338.277.613.618.613a.616.616 0 0 0 .619-.613.616.616 0 0 0-.619-.614.616.616 0 0 0-.618.614"/>
                        <path fill="#8F8F8F" d="M133.602 120.233h-19.006v-6.986c0-.384.313-.695.7-.695h17.606c.386 0 .7.311.7.695v6.986z"/>
                        <path fill="#595959" d="M37.665 142.372h8.046c.918 0 1.669-.746 1.669-1.657s-.75-1.657-1.669-1.657h-8.046c-.918 0-1.669.746-1.669 1.657s.75 1.657 1.669 1.657M78.138 142.372h8.047c.917 0 1.668-.746 1.668-1.657s-.75-1.657-1.668-1.657h-8.047c-.918 0-1.669.746-1.669 1.657s.751 1.657 1.67 1.657"/>
                        <path fill="#595959" d="M73.426 165.649H50.424c-4.825 0-8.736-3.883-8.736-8.673v-39.24c0-3.194 2.607-5.782 5.824-5.782h28.826c3.216 0 5.823 2.588 5.823 5.781v39.241c0 4.79-3.91 8.673-8.735 8.673"/>
                        <path fill="#000" d="M48.42 158.422c-.261 0-.472-.062-.472-.137V118.09c0-.076.21-.137.472-.137.261 0 .473.061.473.137v40.195c0 .075-.212.137-.473.137M55.34 158.422c-.262 0-.473-.062-.473-.137V118.09c0-.076.211-.137.473-.137.261 0 .472.061.472.137v40.195c0 .075-.211.137-.472.137M62.26 158.422c-.262 0-.473-.062-.473-.137V118.09c0-.076.211-.137.472-.137.262 0 .473.061.473.137v40.195c0 .075-.211.137-.473.137M69.179 158.422c-.261 0-.473-.062-.473-.137V118.09c0-.076.212-.137.473-.137s.472.061.472.137v40.195c0 .075-.21.137-.472.137M76.098 158.422c-.261 0-.472-.062-.472-.137V118.09c0-.076.21-.137.472-.137.261 0 .473.061.473.137v40.195c0 .075-.212.137-.473.137"/>
                    </g>
                    <g>
                        <path fill="#D6D6D6" d="M-35.84 200.063h48.143v-78.38H-35.84z"/>
                        <path fill="#595959" d="M-32.374 157.151h41.21v-30.514h-41.21v30.514zm-.283.284H9.12v-31.082h-41.777v31.082z"/>
                        <path fill="#FF7900" d="M-6.139 112.097v6.996c0 .71.108 1.393.308 2.036a.798.798 0 0 0 .764.555h11.6a.797.797 0 0 0 .764-.555c.2-.643.308-1.327.308-2.036v-6.996H-6.14z"/>
                        <path fill="#50BE87" d="M6.608 112.097c1.79-1.265 3.562-2.781 3.432-3.412-.133-.645-2.196-.14-4.292.643 1.578-1.797 3.229-4.053 2.908-4.693-.326-.648-2.515.632-4.463 2.078 1.096-2.33 2.258-5.462 1.715-5.996-.52-.512-2.354 1.632-3.795 3.706-.122-2.657-.634-6.029-1.38-6.025-.746-.004-1.258 3.368-1.38 6.025-1.44-2.074-3.274-4.218-3.795-3.706-.543.534.62 3.667 1.715 5.996-1.947-1.446-4.137-2.726-4.463-2.078-.32.64 1.33 2.896 2.908 4.693-2.095-.784-4.16-1.288-4.292-.643-.13.631 1.641 2.147 3.431 3.412H6.608z"/>
                    </g>
                </g>
                <path fill="#725048" d="M98.145 48.123s15.573 5.874 24.286 5.603c12.955-.403 20.862-3.042 20.862-3.042s3.093-8.93 5.713-10.656c2.62-1.728 3.97-3.348 4.943-4.406.972-1.06 1.232 2.42-.663 4.297-1.896 1.875-2.354 1.763-1.593 4.184.76 2.422 7.914 3.136 9.22 2.901 1.307-.234 9.181-2.51 10.233-.28 1.052 2.23-7.265 2.283-7.265 2.283l-5.94 5.868s-10.995.083-12.017 1.383c-1.023 1.3-15.332 14.835-37.696 11.406-4.264-.653-17.76-7.185-18.788-9.99-1.028-2.803 6.382-9.272 8.705-9.55"/>
                <path fill="#D6D6D6" d="M76.912 73.9a5.421 5.421 0 0 1-1.074-.767c-.27-.254-.6-.416-.937-.43-2.302-2.594-3.644-6.258-4.982-9.349a60.616 60.616 0 0 1-3.326-10.022c-1.51-6.34-2.116-12.845-2.657-19.328 21.227-.226 43.639 16.201 43.639 16.201L94.486 63.731l-13.826-6.61c-4.591-2.13-5.795-1.176-5.768 3.763l2.02 13.016z"/>
                <path fill="#F1F2F2" d="M97.023 66.345c-1.113-.396-2.263-.699-3.381-1.082-.147-.05-.571-.249-.784-.34a3.32 3.32 0 0 0-.293-.523 1.3 1.3 0 0 1 .271-.777l11.5-14.337c.702-.936 1.753-.913 2.741-.366 1.054.585 1.578.82 2.532 1.486.94.656 1.175 1.898.551 2.911-1.757 2.858-8.188 11.885-10.853 13.922a43.216 43.216 0 0 0-2.284-.894"/>
                <path fill="#D6D6D6" d="M109.523 52.204l-1.03.99c-.257.247-.727.174-.927-.058-.236-.277-.134-.629.125-.878l1.03-.989c.257-.248.727-.174.927.058.236.276.134.629-.125.877M107.981 54.957l-1.224 1.877c-.192.295-.664.344-.928.17-.304-.203-.31-.568-.117-.863l1.223-1.878c.193-.294.664-.344.928-.17.304.203.31.568.118.864M105.17 58.8c-.264.564-3.499 4.555-4.021 4.94-.691.51-1.494-.424-.802-.935.34-.252 3.433-4.043 3.606-4.415.35-.75 1.568-.342 1.217.41"/>
                <path fill="#4F4F51" d="M75.923 36.222l-.339 1.22c-.09.33-.368.6-.75.572-.323-.024-.65-.337-.558-.669l.339-1.22c.09-.33.369-.6.75-.571.323.023.65.336.558.668M75.207 40.4c.093.587.001 1.2-.26 1.764-.346.752-1.564.345-1.216-.408a1.9 1.9 0 0 0 .161-1.132c-.124-.782 1.19-1.007 1.315-.224M75.015 43.958l.075 2.114c.028.79-1.286 1.023-1.314.224l-.075-2.113c-.028-.79 1.286-1.024 1.314-.225M75.336 48.796l-.045 1.892c-.009.335-.429.595-.751.57-.39-.028-.566-.33-.558-.667l.045-1.892c.008-.336.429-.595.75-.572.39.03.567.332.559.67M75.694 52.92c-.03.414.094.784.303 1.13.17.283-.063.695-.367.83-.364.16-.688-.005-.86-.29-.322-.533-.43-1.14-.384-1.768.024-.336.417-.596.75-.571.376.028.583.331.558.668"/>
                <path fill="#D6D6D6" d="M42.708 82.33a5.45 5.45 0 0 0 .673-1.134c.144-.342.38-.624.684-.771 1.059-3.303.807-7.197.784-10.565a60.592 60.592 0 0 0-1.003-10.512c-1.176-6.41-3.249-12.606-5.37-18.757-19.087 6.322-32.8 33.348-32.8 33.348l15.34 7.26 10.841-11.877c3.341-3.802 5.476-4.244 7.445.285l3.406 12.724z"/>
                <path fill="#BFBFBF" d="M39.96 108.912c9.603-.165 31.122-1.466 40.571-2.86L74.367 61.36c-.328-.35-1.543-.87-1.857-1.23-1.893-2.18-3.518-4.559-4.793-7.087-1.368-2.714-2.196-5.563-2.987-8.451-.515-1.882-1.095-3.757-1.575-5.645-.393-1.544-.432-3.145-.794-4.69-1.642.713-2.955.343-2.955.343s-3.396.198-5.34.925c-.862.322-6.003 1.993-9.695 1.946-.024.006-.614.333-.882.487-.46.547-.974 1.355-.974 1.355a33.85 33.85 0 0 1-1.403-.05c-.164.086-.315.162-.474.245 2.505 7.26-.678 69.405-.678 69.405"/>
                <path fill="#50BE87" d="M51.91 56.4l-9.274-17.963c-1.897 1.049-3.846 2.026-5.808 2.982l1.153 29.721 1.078 22.476s15.854 9.923 18.08-.23c1.138-5.194-5.23-36.985-5.23-36.985M59.318 34.357l1.169 5.41 3 18.905s6.292 30.678 8.349 33.862c4.048 6.27 8.88-2.91 8.88-2.91l-4.492-24.792-11.02-31.253-5.886.778z"/>
                <path fill="#FFF" d="M45.01 41.617l.762-6.21s1.247-.154 1.54.263c.291.417 7.07-.065 7.07-.065s3.8-3.4 4.585-2.554c.785.846 1.794 9.3 1.794 9.3l1.708 12.245-4.833-5.705-2.455.43s-3.07 7.816-3.361 7.398c-.292-.417-6.81-15.102-6.81-15.102"/>
                <path fill="#62352E" d="M58.528 23.675s.153 10.223.293 14.504c.036 1.109-2.812 9.641-2.812 9.641l-9.124-6.172s-1.134-10.79-2.861-17.094c0 0 12.479 6.903 14.504-.88"/>
                <g transform="translate(3 70.62)">
                    <mask id="d" fill="#fff">
                        <use xlink:href="#c"/>
                    </mask>
                    <path fill="#F1F2F2" d="M16.749 13.994c.858-.812 1.788-1.553 2.657-2.355.113-.106.422-.458.58-.627-.001-.205.022-.403.056-.597a1.298 1.298 0 0 0-.562-.602L4.682.262c-1.02-.574-1.973-.127-2.656.772C1.298 1.994.914 2.42.31 3.414c-.597.98-.31 2.211.67 2.887 2.761 1.905 10.78 8.645 14.04 9.432a43.107 43.107 0 0 1 1.729-1.74" mask="url(#d)"/>
                </g>
                <path fill="#62352E" d="M42.848 11.283c.217-1.178-.883-2.337-2.17-2.555-.31-.052-.647-.057-.927.077-.366.177-.558.551-.696.908-.808 2.081-.649 4.368-.279 6.55.143.846.355 1.752 1.053 2.325.256.21.611.368.941.277.198-.056.355-.192.498-.33a7.373 7.373 0 0 0 1.455-1.936M63.012 17.355a5.9 5.9 0 0 1 2.117-2.092c.182-.106.384-.207.6-.202.188.004.363.088.514.19.601.405.91 1.1.954 1.78.044.681-.147 1.357-.384 2.004a15.155 15.155 0 0 1-3.222 5.18c-.31.328-.649.654-1.088.82-.438.166-1.001.13-1.318-.192-.343-.349-.29-.879-.218-1.342"/>
                <g transform="translate(41.108 -11.877)">
                    <mask id="f" fill="#fff">
                        <use xlink:href="#e"/>
                    </mask>
                    <path fill="#020202" d="M.042 25.638c1.025-4.94 4.723-20.525 5.501-21.735 1.344-2.09 4.933-5.217 14.652-2.813 9.922 2.454 10.92 8.245 10.632 10.27-.119.83-6.259 17.218-8.611 21.425a122.022 122.022 0 0 0-16.814-4.079" mask="url(#f)"/>
                </g>
                <path fill="#725048" d="M45.98 32.28c.81 1.068 2.652 1.683 4.003 1.268 5.673-1.743 12.533-11.05 12.775-11.87.787-2.663 2.558-12.702 1.933-14.624-.625-1.922-14.885-6.65-17.82-4.787 0 0-5.605 10.835-5.86 12.96-.345 2.866 2.044 13.196 4.97 17.053"/>
                <path fill="#62352E" d="M50.429 14.426l.122-.144c.08-.093.202-.226.34-.406.286-.353.668-.874 1.034-1.539.371-.662.718-1.472.966-2.378.126-.454.216-.932.28-1.425.036-.248.05-.498.071-.753.013-.254.02-.504-.06-.747 0 0 .039.045.093.144.056.1.12.258.167.468.087.418.178 1.04.103 1.805a6.45 6.45 0 0 1-.812 2.566 6.805 6.805 0 0 1-2.304 2.409"/>
                <path fill="#848484" d="M42.747 6.084c-.253.516-2.294 4.783-1.148 6.118 1.305 1.52 5.673 3.287 8.018 2.92 2.228-.348 3.033-5.309 3.104-5.772-.249-.343-2.922-3.764-9.974-3.266m6.206 9.278c-2.49 0-6.303-1.626-7.519-3.042-1.294-1.506 1.047-6.17 1.148-6.368l.026-.05.06-.005c3.951-.291 6.525.64 7.989 1.472 1.592.906 2.237 1.869 2.263 1.91l.02.028-.005.033c-.032.227-.805 5.585-3.283 5.971-.217.034-.452.05-.7.05M55.325 10.202c-.183.457-2.02 5.163-.239 6.423 1.983 1.402 6.793 2.456 8.487 1.544 3.455-1.86 2.379-6.421 2.256-6.893-5.805-2.932-10.072-1.258-10.504-1.074m6.421 8.489c-2.216 0-5.294-.857-6.788-1.915-1.987-1.405.096-6.463.185-6.678l.015-.034.035-.017c.045-.02 4.565-2.075 10.778 1.081l.04.02.01.04c.016.051 1.423 5.119-2.341 7.146-.461.248-1.143.357-1.934.357"/>
                <path fill="#FFF" d="M42.677 5.993s-2.43 4.79-1.16 6.269c1.269 1.477 5.689 3.334 8.117 2.955 2.43-.38 3.196-5.89 3.196-5.89s-2.56-3.893-10.153-3.334M65.92 11.212s1.446 5.026-2.294 7.04c-1.772.953-6.657-.173-8.604-1.551-1.947-1.378.22-6.569.22-6.569s4.442-2.088 10.678 1.08"/>
                <path fill="#020202" d="M41.659 6.561c2.11-.246 4.386-.104 6.411.483 2.636.766 3.822 3.226 6.637 3.474.863.076 1.43-.287 2.314-.437 3.492-.593 7.134.9 10.11 2.37.78.386 1.456-.708.677-1.093-2.991-1.48-6.362-2.808-9.844-2.631a9.365 9.365 0 0 0-2.392.412c-.187.06-.414.215-.607.24-.477.063.657.01.076-.08-1.328-.204-1.83-.638-2.69-1.447-1.053-.988-2.525-1.62-3.947-2.026-2.136-.609-4.556-.78-6.778-.52-.869.1-.848 1.358.033 1.255"/>
                <path fill="#62352E" d="M67.775 11.395a35.625 35.625 0 0 0-3.2-1.41c-.112.381-.222.764-.33 1.148a4.4 4.4 0 0 1 .258 1.62c-.055 2.05-.895 4.091-2.492 5.545-.044.113-.086.228-.132.34.693-.015 1.292-.123 1.715-.35 2.86-1.54 2.687-4.838 2.447-6.306.36.167.713.337 1.057.506.78.386 1.457-.708.677-1.093"/>
                <path fill="#000" d="M61.013 40.067v.245c0 .32.308.627.67.612.363-.015.67-.27.67-.612v-.245c0-.32-.308-.626-.67-.611-.363.015-.67.268-.67.611M62.086 44.227v1.468c0 .787 1.34.788 1.34 0v-1.468c0-.788-1.34-.789-1.34 0M62.844 49.615l.312 2.197c.047.33.274.608.67.612.327.002.718-.285.671-.612l-.312-2.197c-.047-.33-.275-.608-.67-.612-.327-.003-.717.284-.67.612M63.705 54.667l.558 3.667c.118.777 1.41.446 1.293-.325l-.558-3.667c-.118-.777-1.41-.446-1.293.325M65.074 62.98l.269.98c.085.31.485.527.824.427.353-.104.56-.42.469-.752l-.269-.98c-.085-.31-.485-.527-.825-.427-.352.105-.56.42-.468.753M67.022 67.862l.507 2.207c.176.77 1.47.445 1.293-.325l-.507-2.208c-.177-.77-1.47-.444-1.293.326M68.344 73.407c.211.446.239.927.17 1.402-.048.329.342.612.67.612.402 0 .623-.283.671-.612.102-.703-.047-1.374-.353-2.02-.144-.303-.632-.371-.918-.219-.343.183-.385.533-.24.837M69.674 78.387l.505 1.964c.197.766 1.49.442 1.293-.325l-.505-1.965c-.197-.766-1.49-.441-1.293.326M70.956 84.027l.741 2.22c.25.75 1.545.43 1.293-.326l-.74-2.22c-.252-.75-1.546-.43-1.294.326M72.569 89.164l.536 1.468c.271.743 1.567.425 1.293-.325l-.536-1.468c-.272-.743-1.567-.425-1.293.325M74.649 92.762c.645.124 1.301.04 1.862-.286.306-.177.429-.544.24-.837-.177-.277-.61-.397-.916-.22-.26.152-.539.219-.83.163-.354-.067-.725.095-.825.427a.613.613 0 0 0 .469.753M78.112 91.242l.805-.489c.291-.177.445-.548.24-.837-.187-.265-.604-.41-.916-.22l-.805.49c-.292.177-.445.548-.24.837.187.265.604.409.916.22M79.383 88.634h.268c.351 0 .687-.281.67-.611a.654.654 0 0 0-.67-.612h-.268c-.35 0-.687.281-.67.612a.655.655 0 0 0 .67.611M40.678 40.223l.566 1.458c.12.311.457.52.824.427.33-.083.59-.44.468-.752l-.566-1.458a.698.698 0 0 0-.824-.428c-.33.083-.59.44-.468.753M42.58 44.3l.77 1.482c.155.299.624.376.917.22.335-.179.397-.538.241-.837l-.77-1.483c-.156-.298-.625-.376-.918-.22-.335.18-.396.538-.24.838M45.023 49.18l1.019 1.98c.366.713 1.522.093 1.158-.617l-1.02-1.98c-.366-.712-1.522-.092-1.157.617M47.437 55.296l.536.98c.162.295.62.378.918.219.33-.176.402-.54.24-.837l-.536-.98c-.162-.294-.62-.377-.918-.219-.33.176-.402.541-.24.837M48.762 59.708c.195.367.23.755.18 1.156-.043.328.338.611.67.611.398 0 .628-.281.67-.61.08-.619-.067-1.219-.362-1.775-.157-.297-.622-.377-.917-.22-.333.179-.4.54-.24.838M50.013 65.194l.537 1.712c.236.756 1.53.435 1.292-.325l-.536-1.712c-.237-.756-1.531-.435-1.293.325M51.348 70.581c.18.408.358.816.536 1.224.135.307.448.521.825.427.32-.08.603-.444.469-.752l-.537-1.223c-.134-.307-.447-.522-.824-.428-.32.08-.604.444-.469.752M52.36 74.264c.088.082.178.164.268.245.248.226.703.244.948 0s.265-.623 0-.865l-.269-.244c-.248-.227-.703-.244-.948 0-.246.244-.265.623 0 .864M52.967 77.502v.979c0 .32.309.626.67.611.364-.015.671-.268.671-.611v-.979c0-.32-.308-.627-.67-.612-.363.015-.67.269-.67.612M53.504 84.353v1.467c0 .788 1.34.789 1.34 0v-1.467c0-.788-1.34-.789-1.34 0M53.772 89.17c.102.353.06.695-.132 1.014-.417.69.741 1.309 1.158.618a2.416 2.416 0 0 0 .267-1.957c-.221-.76-1.515-.437-1.293.326M52.964 93.578s.043.157.035.097c-.01-.065-.003.086-.005.102.012-.088-.008.014-.022.048-.042.097.075-.107-.028.052-.015.023-.057.078-.013.028 0 0-.119.109-.079.08.046-.034-.083.046-.1.052.099-.04-.077.01-.095.014a.613.613 0 0 0-.468.752c.102.338.469.492.825.428.938-.17 1.55-1.156 1.243-1.979a.698.698 0 0 0-.825-.427c-.334.084-.586.439-.468.753M49.95 94.595l-1.072-.49c-.313-.142-.74-.085-.917.22-.16.277-.095.684.24.837l1.073.49c.313.143.74.085.917-.22.16-.277.095-.684-.24-.837M44.959 92.1l-.803-.25c-.332-.102-.747.12-.824.428-.085.34.112.642.468.753l.803.25c.332.102.747-.12.824-.428.085-.34-.112-.642-.468-.752"/>
                <path fill="#D6D6D6" d="M4.114 75.645l1.341.49c.337.122.736-.135.825-.428.105-.348-.13-.629-.468-.752l-1.341-.49c-.337-.122-.736.134-.825.428-.105.348.13.629.468.752M6.636 77.54l1.877 1.224c.295.192.747.047.917-.22.198-.307.056-.644-.24-.836l-1.877-1.223c-.295-.193-.747-.048-.917.219-.198.307-.056.644.24.837M10.759 79.922c.47.41 1.04.705 1.673.847.838.188 1.195-.992.356-1.18a2.398 2.398 0 0 1-1.08-.533c-.624-.544-1.574.32-.949.866"/>
                <path fill="#4F4F51" d="M28.403 47.46l.803.98c.216.264.58.4.917.22.286-.153.459-.571.24-.838l-.802-.98c-.216-.264-.58-.4-.917-.219-.285.152-.459.57-.24.837M30.746 50.993c.151.575.483 1.099.949 1.51.62.548 1.57-.317.948-.865a1.907 1.907 0 0 1-.605-.97c-.202-.766-1.495-.442-1.292.325M32.357 54.171l.785 1.964c.292.734 1.589.417 1.293-.325l-.785-1.964c-.293-.734-1.59-.417-1.293.325M34.017 58.727l.805 1.712c.142.304.632.372.917.22.344-.184.384-.532.24-.837l-.804-1.713c-.143-.303-.633-.371-.918-.22-.344.185-.383.533-.24.838M35.353 62.644c.195.367.23.755.18 1.156-.043.329.338.612.67.612.397 0 .628-.283.67-.612.08-.618-.067-1.217-.362-1.774-.158-.297-.622-.376-.917-.219-.333.178-.4.539-.24.837"/>
                <path fill="#725048" d="M62.163 73.676c-.408-1.701-5.137.21-11.89-6.307-1.343-1.295-1.62-2.267-1.038-2.546 4.694-2.251 3.647-4.103 2.723-4.947-.31-.284-.79-.187-1.002.175-1.348 2.305-3.625 2.783-5.555 2.652-4.902-.334-6.302 3.763-7.13 4.287-.828.523-18.856 10.882-30.264 11.275-.535.018-1.171.499-1.848 1.28-.003.012-.002.023-.005.036C4.52 86.536 9.033 93.905 16.9 91.561c3.71-1.105 6.947-3.355 10.09-5.69 8.102-6.888 13.12-13.93 13.49-14.285.58-.559 8.11 3.995 9.095 4.188 1.57.307 13.375 1.18 12.588-2.098"/>
                <path fill="#000" d="M79.347 100.682s13.75 30.746-3.062 131.615l-11.108.3s-4.917-30.656-5.404-51.035c-.486-20.379-1.52-37.317-1.52-37.317s-3.004 24.775-6.285 44.823c-3.211 19.623-9.911 44.784-9.911 44.784H30.949s-5.223-104.033 8.469-130.81l39.93-2.36z"/>
                <path fill="#020202" d="M56.696 12.74c.766-.625 2.517-.449 3.36-.145.85.306 1.5 1 2.118 1.63.367.373.94-.201.575-.575-.961-.981-1.934-1.836-3.342-2.032-1.099-.152-2.39-.183-3.285.547-.406.331.172.903.574.575"/>
                <path fill="#020202" d="M61.474 12.457c-.54-.355-1.265-.255-1.744.158-.525.453-.614 1.206-.348 1.821.278.641.964 1.132 1.68.943.768-.202 1.064-.932 1.15-1.646.044-.363-.342-.677-.677-.677-.402 0-.633.312-.677.677-.012.098-.04.25-.11.328-.008.024.01.033.052.029a.158.158 0 0 1-.105-.076c-.035-.053-.07-.094-.09-.154-.032-.098-.028-.18.017-.231.066-.078.103-.046.169-.003.73.48 1.41-.692.683-1.169M45.724 9.727c1.273-.888 3.455.245 4.277 1.27.327.407.898-.171.574-.575-1.056-1.318-3.696-2.488-5.26-1.397-.427.297-.02 1.002.41.702"/>
                <path fill="#020202" d="M49.842 9.695c-1.217-.724-2.675.552-2.11 1.849.248.568.823.967 1.455.92.688-.051 1.234-.51 1.45-1.155.276-.828-1.032-1.184-1.307-.36-.075.225-.297.185-.357.072-.073-.14.05-.238.186-.157.75.448 1.432-.723.683-1.169"/>
                <path fill="#62352E" d="M49.34 18.009a3.95 3.95 0 0 0 3.314 1.258c.857-.093.866-1.449 0-1.354-.918.1-1.727-.18-2.357-.862-.593-.642-1.549.318-.958.958M45.09 20.897c2.313 2.315 7.478 3.213 10.688 2.43.824-.2.269-1.259-.55-1.059-2.568.627-7.22-.176-9.084-2.042-.571-.571-1.627.096-1.053.67M47.058 25.988c1.335.769 3.111.953 4.665.49.804-.24.454-1.245-.36-1.002-1.266.378-2.534.242-3.621-.384-.697-.402-1.373.5-.684.896"/>
                <path fill="#020202" d="M62.532 3.368c1.743 0 1.746-2.708 0-2.708-1.743 0-1.745 2.708 0 2.708"/>
                <path fill="#232322" d="M45.143 3.153a.456.456 0 0 1 .03-.247c.172-.396-.412-.74-.585-.342a1.29 1.29 0 0 0-.098.769c.068.43.721.247.653-.18M45.73 1.074c.003-.21.057-.377.168-.554.232-.37-.354-.71-.585-.342a1.698 1.698 0 0 0-.26.896c-.006.436.671.436.677 0M46.502-1.734c.129-.333.201-.67.24-1.025.049-.433-.629-.43-.676 0a3.357 3.357 0 0 1-.217.845c-.157.407.497.583.653.18M47.34-4.762l.344-.589c.221-.377-.364-.718-.584-.342l-.345.589c-.22.376.365.718.585.342M48.42-7.442l.439-.648c.245-.362-.341-.701-.585-.341l-.438.648c-.245.361.342.7.585.341M51.2-9.705l.503-.295c.376-.22.035-.806-.342-.585l-.503.295c-.375.22-.035.806.342.585M53.038-10.708l-.215.148c-.356.245-.018.832.342.584l.215-.147c.357-.246.018-.833-.342-.585M50.785-7.926c-.196.193-.356.41-.476.658-.19.39.394.734.584.341.098-.2.212-.363.371-.52.311-.306-.168-.784-.479-.479M48.713-4.598l-.21.676c-.128.417.525.596.654.18l.21-.676c.128-.417-.526-.595-.654-.18M48.086-1.53c.027.267.015.52-.049.78-.104.423.548.603.653.18.078-.316.107-.635.073-.96-.043-.429-.72-.433-.677 0M48.995 1.6c.072.025.145.05.217.073.414.139.592-.515.18-.653l-.217-.072c-.414-.139-.592.515-.18.653M50.695.626a1.186 1.186 0 0 1 .02-.69c.131-.416-.523-.594-.652-.179a1.874 1.874 0 0 0-.021 1.05c.11.42.763.242.653-.18M51.51-2.398a.9.9 0 0 1 .267-.557c.305-.312-.173-.79-.478-.479-.284.29-.43.634-.466 1.036-.04.434.638.431.677 0M53.12-5.2l.797-1.301c.229-.373-.357-.713-.585-.342l-.797 1.301c-.228.373.357.713.585.342M55.23-8.591l.145-.217c.242-.364-.344-.703-.585-.342l-.144.217c-.243.363.344.703.585.342M57.636-10.067l.293-.212c.35-.253.012-.84-.342-.584l-.293.211c-.35.253-.012.84.342.585M58.616-10.509l-.144.145c-.31.309.17.788.478.479l.145-.145c.308-.308-.17-.787-.479-.479M57.183-8.568l-.364.722c-.195.388.389.731.585.342l.364-.723c.195-.388-.389-.731-.585-.341M55.118-4.874c-.079.193-.2.355-.347.501-.31.308.17.787.479.479a2.35 2.35 0 0 0 .521-.8c.165-.404-.49-.579-.653-.18M53.222-1.312c.025.245.013.467-.052.706-.113.421.54.601.653.18.079-.292.107-.586.076-.886-.044-.43-.721-.434-.677 0M52.86 1.676l.144.362c.16.4.814.226.653-.18l-.144-.362c-.16-.4-.815-.225-.653.18M55.227 2.642c.436 0 .437-.677 0-.677-.436 0-.436.677 0 .677M56.286.206a.98.98 0 0 1 .265-.701c.296-.32-.182-.8-.479-.48a1.68 1.68 0 0 0-.463 1.181c.004.436.682.436.677 0M58.023-3.048a.608.608 0 0 1 .193-.484c.31-.307-.17-.786-.48-.479-.26.26-.398.594-.39.963.01.435.686.436.677 0M59.462-5.87c.02-.175.093-.327.19-.472.24-.365-.345-.705-.585-.342a1.814 1.814 0 0 0-.282.814c-.052.432.626.428.677 0M60.48-8.328a.753.753 0 0 1 .106-.334c.215-.38-.37-.72-.585-.341-.122.214-.181.43-.199.675-.03.434.647.433.677 0M61.503-9.568l.214.148c.359.25.697-.337.342-.584l-.214-.149c-.36-.249-.698.338-.342.585M62.266-8.4v.144c0 .436.677.436.677 0V-8.4c0-.436-.677-.437-.677 0M61.74-6.667c-.032.267-.105.53-.213.776-.174.395.409.74.584.342a3.84 3.84 0 0 0 .306-1.118c.052-.431-.625-.428-.677 0M60.549-3.064l-.35.944c-.153.41.501.586.652.18l.35-.944c.153-.409-.502-.586-.652-.18M59.234.134a1.878 1.878 0 0 1-.177.696c-.187.392.397.736.584.342.158-.333.247-.67.27-1.038.027-.435-.65-.434-.677 0M58.71 2.576l-.15.214c-.248.359.338.698.585.342l.15-.214c.248-.36-.338-.698-.586-.342M59.567 4.233H60c.436 0 .436-.677 0-.677h-.434c-.436 0-.436.677 0 .677M61.959 3.343a.85.85 0 0 1 .31-.313c.374-.223.034-.81-.341-.585a1.555 1.555 0 0 0-.554.556c-.222.377.363.717.585.342M63.26 1.752l.508-.867c.22-.377-.365-.718-.585-.342l-.508.867c-.22.377.365.718.585.342M64.603-1.602c.017-.177.077-.332.168-.484.224-.376-.362-.716-.585-.342a1.908 1.908 0 0 0-.26.826c-.04.434.637.43.677 0M65.318-5.273c.076-.192.103-.39.082-.596-.044-.43-.722-.434-.677 0a.81.81 0 0 1-.058.416c-.161.405.493.58.653.18M65.211-8.716l-.072-.145c-.195-.39-.78-.047-.584.342l.072.144c.194.39.779.048.584-.341M66.095-7.367l.148.723c.087.426.74.246.653-.18l-.148-.723c-.088-.426-.74-.246-.653.18M67.008-3.325l.135.87c.067.429.72.247.653-.18l-.135-.87c-.067-.429-.72-.247-.653.18M66.492-.077a.849.849 0 0 1-.286.776c-.325.293.155.77.479.479.35-.317.537-.784.484-1.255-.047-.429-.725-.434-.677 0M64.663 3.732a1.245 1.245 0 0 1-.571.655c-.38.216-.039.801.34.585.423-.241.716-.607.884-1.06.151-.41-.503-.587-.653-.18M63.256 5.535c.435 0 .436-.677 0-.677s-.437.677 0 .677M66.612 6.384l.431-.364c.334-.282-.147-.758-.478-.479l-.432.364c-.334.282.148.758.479.48M68.22 3.906l.624-1.206c.2-.387-.385-.73-.585-.342l-.623 1.206c-.2.387.384.73.584.342M69.751.505l.143-.93c.065-.426-.588-.61-.653-.179l-.143.93c-.065.426.587.61.653.18M70-2.34l-.069-.507c-.024-.183-.256-.279-.416-.237-.196.052-.26.236-.237.417l.068.507c.025.182.258.278.417.236.196-.052.26-.236.237-.416M69.118-5.173l-.216-.506c-.073-.17-.319-.204-.463-.122-.175.1-.193.296-.122.463l.217.507c.072.17.318.204.463.121.175-.1.192-.296.121-.463M68.174-6.398c.435 0 .436-.678 0-.678s-.437.678 0 .678M70.6-3.972l.286 1.013c.118.419.772.24.653-.18l-.286-1.013c-.118-.42-.772-.241-.653.18M70.802-.228c.013.413-.031.811-.136 1.211-.111.422.542.602.653.18.12-.455.174-.92.16-1.391-.012-.435-.69-.436-.677 0M68.991 5.03l-.256.663c-.157.406.497.583.653.18l.256-.664c.157-.407-.498-.583-.653-.18M67.417 7.784l-.141.363c-.158.406.496.582.653.18l.141-.363c.158-.406-.496-.582-.653-.18M66.18 9.627c0-.034-.018-.025-.055.029-.342.269.14.745.479.48.22-.173.269-.426.23-.69-.066-.429-.718-.246-.654.18"/>
                <path fill="#5A5A5A" d="M80.16 95.577c-.508-.212-1.11-.263-1.784-.076-12.536 3.479-25.465 4.316-38.332 2.592-.622-.083-1.135.022-1.545.251.01 1.694.03 3.392.008 5.087.41.34.92.583 1.537.666 13.35 1.79 26.868.801 39.87-2.806.149-.041.286-.093.417-.15a244.128 244.128 0 0 1-.171-5.564"/>
                <path fill="#D6D6D6" d="M67.364 97.86a3.256 3.256 0 0 0-1.658-.098c-2.771.533-5.56.727-8.369.683a2.668 2.668 0 0 0-1.062.195c-.3 2.06-.232 4.098.026 6.126.306.131.65.21 1.036.216 3.333.053 6.622-.285 9.907-.917.184-.036.359-.099.523-.183.286-2.085.468-4.285-.403-6.022"/>
                <path fill="#000" d="M45.972 99.046c-.371 2.046-.492 4.087-.313 6.162.124 1.431 2.294 1.445 2.17 0-.162-1.87-.1-3.717.234-5.563.257-1.416-1.832-2.023-2.091-.599M74.487 97.137l.745 6.251c.17 1.42 2.34 1.437 2.17 0-.25-2.083-.497-4.167-.745-6.251-.17-1.42-2.34-1.437-2.17 0"/>
                <path fill="#020202" d="M58.457 7.99c1.532-.856 3.739-.577 4.76.923.189.277.642.016.452-.264-1.185-1.742-3.68-2.115-5.476-1.112-.294.165-.031.617.264.453M47.204 4.502c.693-.29 1.724.04 2.415.284.851.3 1.562.794 2.007 1.597.163.294.615.03.452-.265-.454-.818-1.159-1.378-2.025-1.727-.836-.337-2.103-.763-2.988-.394-.306.128-.172.635.14.505M36.66 67.944c.088 1.986 1.353 3.876 3.157 4.713-.41.7-.864 1.374-1.358 2.017a16.485 16.485 0 0 1-1.219-.678c-.73-.447-1.44-.968-1.909-1.684-.714-1.093-.769-2.476-.8-3.781l1.333-.938"/>
                <path fill="#FFF" d="M37.924 71.259c-.26-.2-.63-.218-.937-.105-.307.114-.559.345-.76.603-.31.399-.522.91-.425 1.406.154.788 1.034 1.246 1.837 1.252.419.002.847-.09 1.192-.328.346-.236.597-.629.602-1.047.003-.277-.097-.543-.21-.796-.142-.319-.312-.633-.568-.87-.256-.237-.611-.388-.955-.33"/>
                <path fill="#020202" d="M38.056 71.033c-1.038-.608-2.127.324-2.444 1.322-.361 1.14.489 2.078 1.584 2.278 1 .182 2.298-.256 2.476-1.386.174-1.1-.81-2.527-1.972-2.464-.335.018-.337.542 0 .523.796-.043 1.495.971 1.471 1.734-.026.847-1.017 1.177-1.718 1.104-.642-.068-1.38-.467-1.413-1.194-.036-.799.896-1.966 1.752-1.465.291.17.555-.282.264-.452"/>
                <path fill="#5A5A5A" d="M40.084 106.754l-.398 1.273c-.1.322.405.46.505.139l.397-1.273c.1-.322-.404-.46-.504-.139M38.391 112.656l-.365 1.908c-.063.329.441.47.505.139l.365-1.908c.063-.33-.441-.47-.505-.14M37.113 118.418a6.23 6.23 0 0 1-.187 2.251c-.089.326.416.465.504.14.213-.786.284-1.58.206-2.39-.031-.333-.555-.337-.523 0M36.309 125.31l-.38 1.696c-.073.328.431.468.505.14l.38-1.697c.073-.328-.432-.468-.505-.139M34.98 132.676l-.361 1.91c-.063.328.441.47.504.138l.362-1.909c.062-.329-.443-.47-.505-.139M34.776 139.418a4.21 4.21 0 0 0-.163 2.046c.053.332.558.191.506-.139a3.65 3.65 0 0 1 .162-1.768c.108-.32-.398-.457-.505-.14M60.406 145.35c.385.304.636.7.738 1.18.07.329.575.19.505-.14a2.437 2.437 0 0 0-.873-1.41c-.261-.206-.634.162-.37.37"/>
            </g>
        </g>
        <g transform="translate(-35.93 -10)">
            <mask id="h" fill="#fff">
                <use xlink:href="#g"/>
            </mask>
            <g mask="url(#h)">
                <path fill="#725048" d="M134.075 70.198s15.573 5.874 24.286 5.603c12.955-.403 20.862-3.042 20.862-3.042s3.093-8.93 5.714-10.656c2.62-1.728 3.97-3.348 4.942-4.406.972-1.06 1.233 2.42-.663 4.297-1.896 1.875-2.353 1.763-1.593 4.184.76 2.422 7.914 3.136 9.22 2.902 1.307-.235 9.182-2.51 10.233-.28 1.053 2.23-7.264 2.282-7.264 2.282l-5.94 5.868s-10.996.083-12.018 1.383c-1.023 1.3-15.332 14.835-37.696 11.406-4.264-.653-17.76-7.185-18.788-9.99-1.028-2.803 6.382-9.272 8.705-9.55"/>
                <path fill="#BFBFBF" d="M112.843 95.975a5.421 5.421 0 0 1-1.075-.767c-.27-.254-.6-.416-.937-.43-2.301-2.594-3.644-6.258-4.981-9.349a60.616 60.616 0 0 1-3.326-10.022c-1.511-6.34-2.116-12.845-2.658-19.328 21.227-.226 43.64 16.201 43.64 16.201l-13.09 13.526-13.826-6.61c-4.59-2.13-5.795-1.176-5.767 3.763l2.02 13.016z"/>
                <path fill="#F1F2F2" d="M132.954 88.42c-1.114-.396-2.263-.699-3.382-1.082-.147-.05-.57-.249-.784-.34a3.32 3.32 0 0 0-.292-.523 1.3 1.3 0 0 1 .27-.777l11.5-14.337c.702-.936 1.754-.913 2.742-.366 1.053.585 1.577.82 2.532 1.486.94.656 1.174 1.898.55 2.911-1.756 2.858-8.188 11.885-10.853 13.922a43.216 43.216 0 0 0-2.283-.894"/>
                <path fill="#D6D6D6" d="M145.453 74.28l-1.03.989c-.257.247-.727.174-.926-.058-.237-.277-.134-.629.124-.878l1.03-.989c.258-.248.728-.174.927.058.237.276.134.629-.125.877M143.911 77.032l-1.224 1.877c-.192.295-.663.344-.927.17-.305-.203-.31-.568-.118-.863l1.224-1.878c.192-.294.664-.344.928-.17.304.203.31.568.117.864M141.1 80.874c-.264.565-3.499 4.556-4.021 4.941-.69.51-1.494-.424-.802-.935.341-.252 3.433-4.043 3.606-4.415.35-.75 1.568-.342 1.217.41"/>
                <path fill="#4F4F51" d="M111.854 58.297l-.34 1.22c-.09.33-.368.6-.75.572-.322-.024-.65-.337-.558-.669l.339-1.22c.091-.33.37-.6.75-.571.323.023.65.336.559.668M111.137 62.475c.094.587.001 1.2-.26 1.764-.345.752-1.563.345-1.216-.408a1.9 1.9 0 0 0 .162-1.132c-.124-.782 1.19-1.007 1.314-.224M110.945 66.033l.076 2.114c.027.79-1.287 1.023-1.315.224l-.075-2.113c-.028-.79 1.286-1.024 1.314-.225M111.266 70.871l-.045 1.892c-.008.335-.429.595-.75.57-.39-.028-.566-.33-.558-.667l.044-1.892c.009-.336.43-.595.751-.572.39.03.566.332.558.67M111.624 74.994c-.03.415.094.785.303 1.13.171.284-.063.696-.366.83-.364.16-.689-.004-.86-.288-.323-.534-.43-1.141-.385-1.77.024-.335.417-.595.75-.57.376.028.583.331.558.668"/>
                <path fill="#BFBFBF" d="M78.638 104.406a5.45 5.45 0 0 0 .674-1.135c.144-.342.38-.624.683-.771 1.059-3.303.808-7.197.784-10.565a60.592 60.592 0 0 0-1.003-10.512c-1.176-6.41-3.248-12.606-5.37-18.756-19.086 6.32-32.8 33.347-32.8 33.347l15.34 7.26 10.841-11.877c3.341-3.802 5.477-4.244 7.445.285l3.406 12.724z"/>
                <path fill="#BFBFBF" d="M75.89 130.987c9.603-.165 31.122-1.466 40.572-2.86l-6.165-44.693c-.327-.35-1.543-.87-1.857-1.23-1.893-2.18-3.518-4.559-4.793-7.087-1.368-2.714-2.195-5.563-2.987-8.451-.514-1.882-1.095-3.757-1.575-5.645-.393-1.544-.432-3.145-.794-4.69-1.641.713-2.954.343-2.954.343s-3.397.198-5.341.925c-.861.322-6.002 1.993-9.695 1.946-.023.006-.613.333-.882.487-.46.547-.973 1.355-.973 1.355a33.85 33.85 0 0 1-1.404-.05c-.164.086-.314.162-.474.245 2.505 7.26-.678 69.405-.678 69.405"/>
                <path fill="#50BE87" d="M87.84 78.476l-9.274-17.964c-1.896 1.049-3.846 2.026-5.807 2.982l1.153 29.721 1.077 22.476s15.855 9.923 18.08-.23c1.139-5.194-5.229-36.985-5.229-36.985M95.248 56.432l1.17 5.41 3 18.905s6.29 30.678 8.348 33.862c4.048 6.27 8.88-2.91 8.88-2.91l-4.492-24.792-11.019-31.253-5.887.778z"/>
                <path fill="#FFF" d="M80.94 63.692l.762-6.21s1.248-.154 1.54.263c.291.417 7.07-.065 7.07-.065s3.801-3.4 4.586-2.554c.784.846 1.794 9.3 1.794 9.3l1.707 12.245-4.832-5.705-2.456.43s-3.07 7.816-3.361 7.398c-.292-.417-6.81-15.102-6.81-15.102"/>
                <path fill="#62352E" d="M94.458 45.75s.154 10.223.293 14.504c.036 1.109-2.811 9.641-2.811 9.641l-9.125-6.172s-1.134-10.79-2.861-17.094c0 0 12.48 6.903 14.504-.88"/>
                <g transform="translate(38.93 92.695)">
                    <mask id="j" fill="#fff">
                        <use xlink:href="#i"/>
                    </mask>
                    <path fill="#F1F2F2" d="M16.749 13.994c.858-.812 1.788-1.553 2.657-2.355.113-.106.422-.458.58-.627-.001-.205.022-.403.056-.597a1.298 1.298 0 0 0-.562-.602L4.682.262c-1.02-.574-1.973-.127-2.656.772C1.298 1.994.914 2.42.31 3.414c-.597.98-.31 2.211.67 2.887 2.761 1.905 10.78 8.645 14.04 9.432a43.107 43.107 0 0 1 1.729-1.74" mask="url(#j)"/>
                </g>
                <path fill="#62352E" d="M78.778 33.358c.218-1.178-.883-2.337-2.17-2.555-.31-.052-.647-.057-.926.077-.367.177-.559.551-.697.908-.807 2.081-.648 4.368-.278 6.55.143.846.354 1.752 1.052 2.325.256.21.612.368.942.277.198-.056.355-.192.498-.33a7.373 7.373 0 0 0 1.454-1.936M98.943 39.43a5.9 5.9 0 0 1 2.116-2.092c.183-.106.384-.207.6-.202.189.004.363.088.514.19.601.405.91 1.1.954 1.78.045.681-.146 1.357-.383 2.004a15.155 15.155 0 0 1-3.222 5.18c-.31.328-.65.654-1.088.82-.44.166-1.002.13-1.319-.192-.342-.349-.29-.879-.218-1.342"/>
                <g transform="translate(77.038 10.198)">
                    <mask id="l" fill="#fff">
                        <use xlink:href="#k"/>
                    </mask>
                    <path fill="#020202" d="M.042 25.638c1.025-4.94 4.723-20.525 5.501-21.735 1.344-2.09 4.933-5.217 14.652-2.813 9.922 2.454 10.92 8.245 10.632 10.27-.119.83-6.259 17.218-8.611 21.425a122.022 122.022 0 0 0-16.814-4.079" mask="url(#l)"/>
                </g>
                <path fill="#725048" d="M81.91 54.355c.811 1.068 2.653 1.683 4.003 1.268 5.673-1.743 12.534-11.05 12.775-11.87.787-2.663 2.559-12.702 1.933-14.624-.625-1.922-14.885-6.65-17.82-4.787 0 0-5.604 10.835-5.86 12.96-.345 2.866 2.044 13.196 4.97 17.053"/>
                <path fill="#62352E" d="M86.359 36.5l.123-.143c.08-.093.202-.226.34-.406.285-.353.667-.874 1.033-1.539.372-.662.718-1.472.966-2.378.126-.454.216-.932.28-1.425.036-.248.051-.498.072-.753.013-.254.018-.504-.06-.747 0 0 .038.045.093.144.055.1.12.258.167.468.086.418.177 1.04.103 1.805a6.45 6.45 0 0 1-.812 2.566 6.805 6.805 0 0 1-2.305 2.409"/>
                <path fill="#848484" d="M78.678 28.159c-.254.516-2.295 4.783-1.148 6.118 1.305 1.52 5.672 3.287 8.017 2.92 2.228-.348 3.034-5.309 3.104-5.772-.248-.343-2.921-3.764-9.973-3.266m6.205 9.278c-2.49 0-6.303-1.626-7.519-3.042-1.294-1.506 1.048-6.17 1.148-6.368l.026-.05.061-.005c3.95-.291 6.525.64 7.988 1.472 1.592.906 2.237 1.869 2.264 1.91l.019.028-.005.033c-.032.227-.805 5.585-3.282 5.971-.218.034-.453.05-.7.05M91.256 32.277c-.184.457-2.02 5.163-.24 6.423 1.983 1.402 6.793 2.456 8.487 1.544 3.456-1.86 2.379-6.421 2.257-6.893-5.805-2.932-10.073-1.258-10.504-1.074m6.42 8.489c-2.216 0-5.294-.857-6.788-1.915-1.986-1.405.096-6.463.186-6.678l.014-.034.036-.017c.045-.02 4.564-2.075 10.778 1.081l.039.02.01.04c.016.051 1.424 5.119-2.34 7.146-.462.248-1.143.357-1.934.357"/>
                <path fill="#FFF" d="M78.607 28.068s-2.43 4.79-1.16 6.269c1.269 1.477 5.689 3.334 8.118 2.955 2.43-.38 3.195-5.89 3.195-5.89s-2.559-3.893-10.153-3.334M101.85 33.287s1.447 5.026-2.294 7.04c-1.772.953-6.656-.173-8.604-1.551-1.947-1.378.22-6.569.22-6.569s4.442-2.088 10.679 1.08" opacity=".13"/>
                <path fill="#020202" d="M77.59 28.636c2.11-.246 4.385-.104 6.41.483 2.636.766 3.822 3.226 6.637 3.474.864.076 1.43-.287 2.314-.437 3.493-.593 7.135.9 10.11 2.37.78.386 1.457-.708.677-1.093-2.99-1.48-6.362-2.808-9.844-2.631a9.365 9.365 0 0 0-2.391.412c-.187.06-.415.215-.608.24-.476.063.658.01.077-.08-1.329-.204-1.83-.638-2.691-1.447-1.052-.988-2.524-1.62-3.947-2.026-2.136-.609-4.556-.78-6.778-.52-.869.1-.847 1.358.033 1.255"/>
                <path fill="#62352E" d="M103.706 33.47a35.625 35.625 0 0 0-3.201-1.41c-.112.381-.221.764-.33 1.148a4.4 4.4 0 0 1 .259 1.62c-.055 2.05-.895 4.091-2.492 5.545-.045.113-.087.228-.133.34.693-.015 1.293-.123 1.715-.35 2.86-1.54 2.687-4.838 2.447-6.306.36.167.714.337 1.058.506.779.386 1.456-.708.677-1.093" opacity=".13"/>
                <path fill="#000" d="M96.943 62.142v.245c0 .32.308.627.67.612.364-.015.671-.27.671-.612v-.245c0-.32-.308-.626-.67-.611-.364.015-.67.268-.67.611M98.016 66.302v1.468c0 .787 1.34.788 1.34 0v-1.468c0-.788-1.34-.789-1.34 0M98.775 71.69l.312 2.197c.046.33.274.608.67.612.326.002.717-.285.67-.612l-.312-2.197c-.046-.33-.274-.608-.67-.612-.326-.003-.717.284-.67.612M99.635 76.742l.558 3.667c.118.777 1.41.446 1.293-.325l-.558-3.667c-.118-.777-1.41-.446-1.293.325M101.005 85.056l.268.979c.085.31.486.527.825.427.352-.104.559-.42.468-.752l-.268-.98c-.085-.31-.486-.527-.825-.427-.352.105-.56.42-.468.753M102.952 89.937c.17.735.338 1.471.507 2.207.177.77 1.47.445 1.293-.325l-.506-2.208c-.178-.77-1.47-.444-1.294.326M104.274 95.482c.212.446.24.927.17 1.402-.047.329.343.612.671.612.402 0 .623-.283.67-.612.102-.703-.047-1.374-.353-2.02-.144-.303-.632-.371-.918-.219-.342.183-.385.533-.24.837M105.604 100.462l.505 1.964c.197.766 1.49.442 1.293-.325l-.504-1.965c-.197-.766-1.49-.441-1.294.326M106.887 106.102l.74 2.22c.25.75 1.546.43 1.293-.326l-.74-2.22c-.251-.75-1.546-.43-1.293.326M108.499 111.239l.536 1.468c.272.743 1.567.425 1.293-.325l-.536-1.468c-.272-.743-1.567-.425-1.293.325M110.579 114.837c.645.124 1.301.04 1.863-.286.305-.177.428-.544.24-.837-.177-.277-.61-.397-.917-.22-.26.152-.538.219-.83.163-.354-.067-.724.095-.824.427a.613.613 0 0 0 .468.753M114.043 113.317l.805-.489c.29-.177.444-.548.24-.837-.187-.265-.605-.41-.917-.22l-.805.49c-.291.177-.445.548-.24.837.187.265.605.41.917.22M115.314 110.71h.268c.35 0 .686-.282.67-.612a.654.654 0 0 0-.67-.612h-.268c-.351 0-.687.281-.671.612a.655.655 0 0 0 .67.611M76.608 62.298l.566 1.458c.12.311.457.52.825.427.33-.083.59-.44.468-.752l-.566-1.458a.698.698 0 0 0-.825-.428c-.33.083-.59.44-.468.753M78.51 66.375l.77 1.482c.156.299.625.376.918.22.335-.179.396-.538.24-.837l-.77-1.483c-.156-.298-.624-.376-.918-.22-.335.18-.396.538-.24.838M80.953 71.255l1.02 1.98c.366.713 1.522.093 1.157-.617l-1.019-1.98c-.366-.712-1.523-.092-1.158.617M83.367 77.371c.18.327.358.653.536.98.163.295.62.378.918.219.33-.176.403-.54.24-.837l-.536-.98c-.162-.294-.619-.377-.917-.219-.33.176-.403.541-.24.837M84.692 81.783c.195.367.231.755.18 1.156-.042.328.338.611.67.611.398 0 .628-.281.67-.61.08-.619-.067-1.219-.362-1.775-.157-.297-.622-.377-.917-.22-.333.179-.399.54-.24.838M85.943 87.269l.537 1.712c.237.756 1.53.435 1.293-.325-.18-.57-.358-1.141-.537-1.712-.237-.756-1.53-.435-1.293.325M87.279 92.656l.536 1.224c.134.307.447.521.825.427.319-.08.603-.444.468-.752l-.537-1.223c-.134-.307-.447-.522-.824-.428-.32.08-.604.444-.468.752M88.29 96.34l.268.244c.248.226.703.244.948 0 .246-.244.265-.623 0-.865l-.268-.244c-.249-.227-.703-.244-.948 0-.246.244-.265.623 0 .864M88.898 99.577v.979c0 .32.308.626.67.611.364-.015.67-.268.67-.611v-.979c0-.32-.308-.627-.67-.612-.363.015-.67.269-.67.612M89.434 106.428v1.467c0 .788 1.34.789 1.34 0v-1.467c0-.788-1.34-.789-1.34 0M89.702 111.246c.103.352.061.694-.132 1.013-.416.69.741 1.309 1.158.618a2.416 2.416 0 0 0 .267-1.957c-.22-.76-1.515-.437-1.293.326M88.894 115.653s.044.157.035.097c-.009-.065-.002.086-.004.102.011-.088-.008.014-.023.048-.042.097.075-.107-.028.052-.015.023-.057.078-.013.028 0 0-.119.109-.078.08.046-.034-.084.046-.1.052.098-.04-.078.01-.095.014a.613.613 0 0 0-.469.752c.102.338.469.492.825.428.938-.17 1.55-1.156 1.243-1.979a.698.698 0 0 0-.825-.427c-.334.084-.585.439-.468.753M85.88 116.67l-1.072-.49c-.313-.142-.74-.085-.917.22-.16.277-.094.684.24.837l1.073.49c.313.143.741.085.918-.22.16-.277.094-.684-.241-.837M80.89 114.176l-.803-.25c-.332-.103-.748.118-.825.427-.085.34.112.642.468.753l.803.25c.332.102.748-.12.825-.428.085-.34-.113-.642-.469-.752"/>
                <path fill="#D6D6D6" d="M40.045 97.72l1.34.49c.337.122.737-.135.825-.428.105-.348-.13-.629-.468-.752l-1.34-.49c-.337-.122-.737.134-.825.428-.106.348.13.629.468.752M42.566 99.616l1.878 1.223c.294.192.746.047.917-.22.197-.307.055-.644-.24-.836l-1.878-1.223c-.295-.193-.746-.048-.917.219-.197.307-.055.644.24.837M46.69 101.997c.47.41 1.039.705 1.672.847.838.188 1.195-.992.356-1.18a2.398 2.398 0 0 1-1.08-.533c-.624-.544-1.573.32-.949.866"/>
                <path fill="#4F4F51" d="M64.334 69.535l.803.98c.216.264.58.4.917.22.285-.153.458-.571.24-.838l-.802-.98c-.216-.264-.58-.4-.917-.219-.286.152-.46.57-.241.837M66.676 73.068c.151.575.483 1.099.95 1.51.62.548 1.57-.317.947-.865a1.907 1.907 0 0 1-.604-.97c-.202-.766-1.495-.442-1.293.325M68.287 76.246l.785 1.964c.293.734 1.59.417 1.293-.325l-.785-1.964c-.293-.734-1.59-.417-1.293.325M69.947 80.802l.805 1.712c.143.304.632.372.917.22.344-.184.384-.532.24-.837l-.804-1.713c-.143-.303-.633-.371-.918-.22-.344.185-.383.533-.24.838M71.284 84.719c.194.367.23.755.179 1.156-.043.329.338.612.67.612.398 0 .628-.283.67-.612.08-.618-.067-1.217-.362-1.774-.157-.297-.622-.376-.917-.219-.333.178-.399.539-.24.837"/>
                <path fill="#725048" d="M98.094 95.75c-.409-1.7-5.137.21-11.89-6.306-1.343-1.295-1.62-2.267-1.039-2.546 4.695-2.251 3.647-4.103 2.724-4.947-.31-.284-.791-.187-1.003.175-1.347 2.305-3.625 2.783-5.555 2.652-4.901-.334-6.301 3.763-7.13 4.287-.828.523-18.856 10.882-30.264 11.275-.534.018-1.17.499-1.848 1.28-.002.012-.001.023-.005.036-1.633 6.955 2.88 14.324 10.746 11.98 3.71-1.105 6.947-3.355 10.09-5.69 8.103-6.888 13.12-13.93 13.49-14.285.58-.559 8.11 3.995 9.095 4.188 1.57.307 13.375 1.18 12.589-2.098"/>
                <path fill="#000" d="M115.278 122.757s13.749 30.746-3.063 131.615l-11.107.3s-4.918-30.656-5.404-51.035c-.486-20.379-1.521-37.317-1.521-37.317s-3.004 24.775-6.285 44.823c-3.21 19.623-9.911 44.784-9.911 44.784H66.879s-5.222-104.033 8.47-130.81l39.929-2.36z"/>
                <path fill="#020202" d="M92.627 34.815c.765-.625 2.516-.449 3.36-.145.85.306 1.5 1 2.117 1.63.367.373.941-.201.575-.575-.96-.981-1.933-1.836-3.342-2.032-1.099-.152-2.39-.183-3.285.547-.405.331.173.903.575.575"/>
                <path fill="#020202" d="M97.405 34.532c-.54-.355-1.266-.255-1.745.158-.524.453-.614 1.206-.347 1.821.278.641.963 1.132 1.68.943.767-.202 1.064-.932 1.15-1.646.044-.363-.343-.677-.677-.677-.403 0-.634.312-.677.677-.012.098-.04.25-.111.328-.008.024.01.033.052.029a.158.158 0 0 1-.104-.076c-.036-.053-.072-.094-.091-.154-.032-.098-.027-.18.017-.231.067-.078.103-.046.17-.003.73.48 1.409-.692.683-1.169M81.655 31.802c1.273-.888 3.454.245 4.276 1.27.327.407.899-.171.575-.575-1.057-1.318-3.697-2.488-5.261-1.397-.426.297-.02 1.002.41.702"/>
                <path fill="#020202" d="M85.773 31.77c-1.217-.724-2.675.552-2.11 1.849.247.568.822.967 1.454.92.688-.051 1.234-.51 1.45-1.155.276-.828-1.032-1.184-1.306-.36-.075.225-.298.185-.357.072-.074-.14.049-.238.185-.157.75.448 1.433-.723.684-1.169"/>
                <path fill="#62352E" d="M85.27 40.084a3.95 3.95 0 0 0 3.314 1.258c.857-.093.867-1.449 0-1.354-.918.1-1.727-.18-2.357-.862-.593-.642-1.549.318-.957.958M81.02 42.972c2.313 2.315 7.479 3.213 10.689 2.43.823-.2.268-1.259-.551-1.059-2.568.627-7.22-.176-9.084-2.042-.571-.571-1.627.097-1.053.67M82.989 48.063c1.334.769 3.11.953 4.665.49.803-.24.454-1.245-.36-1.002-1.267.378-2.535.242-3.622-.384-.697-.402-1.373.5-.683.896"/>
                <path fill="#020202" d="M98.463 25.443c1.742 0 1.745-2.708 0-2.708-1.743 0-1.746 2.708 0 2.708"/>
                <path fill="#232322" d="M81.073 25.228a.456.456 0 0 1 .03-.247c.172-.396-.411-.74-.585-.342a1.29 1.29 0 0 0-.098.769c.069.43.721.247.653-.18M81.66 23.149c.004-.21.058-.377.168-.554.233-.37-.353-.71-.584-.342a1.698 1.698 0 0 0-.26.896c-.007.436.67.436.677 0M82.432 20.341c.13-.333.202-.67.241-1.025.048-.433-.63-.43-.677 0a3.357 3.357 0 0 1-.217.845c-.157.407.498.583.653.18M83.27 17.313l.345-.589c.22-.377-.365-.718-.585-.342l-.344.589c-.221.376.364.718.584.342M84.351 14.633l.438-.648c.245-.362-.341-.701-.584-.341-.147.215-.292.431-.438.648-.245.361.34.7.584.341M87.13 12.37l.503-.295c.376-.22.036-.806-.341-.585l-.503.295c-.376.22-.035.806.341.585M88.969 11.367l-.215.148c-.357.245-.019.832.342.584l.214-.147c.357-.246.019-.833-.341-.585M86.715 14.15c-.195.192-.356.41-.476.657-.19.39.394.734.585.341.097-.2.212-.363.37-.52.312-.306-.168-.784-.479-.479M84.643 17.477l-.209.676c-.129.417.525.596.653.18l.21-.676c.128-.417-.525-.595-.654-.18M84.017 20.546c.026.266.015.519-.05.78-.104.422.549.602.654.18.077-.317.106-.636.073-.96-.044-.43-.721-.434-.677 0M84.926 23.676l.217.072c.414.139.591-.515.18-.653l-.217-.072c-.415-.139-.592.515-.18.653M86.626 22.701a1.186 1.186 0 0 1 .02-.69c.13-.416-.523-.594-.653-.179a1.874 1.874 0 0 0-.02 1.05c.11.42.763.242.653-.18M87.44 19.677a.9.9 0 0 1 .268-.557c.304-.312-.174-.79-.48-.479-.283.29-.429.634-.465 1.036-.04.434.638.431.677 0M89.05 16.875l.798-1.301c.228-.373-.357-.713-.585-.342l-.798 1.301c-.228.373.358.713.585.342M91.16 13.484l.145-.217c.243-.364-.343-.703-.584-.342l-.145.217c-.242.363.344.703.585.342M93.566 12.008l.293-.212c.35-.253.013-.84-.341-.584l-.293.211c-.35.253-.013.84.341.585M94.546 11.566l-.144.145c-.309.309.17.788.479.479l.144-.145c.309-.308-.17-.787-.479-.479M93.114 13.507l-.364.722c-.195.388.388.731.585.342l.363-.723c.196-.388-.388-.731-.584-.341M91.048 17.2c-.079.194-.2.356-.347.502-.309.308.17.787.48.479a2.35 2.35 0 0 0 .52-.8c.165-.404-.49-.579-.653-.18M89.152 20.763c.026.245.013.467-.052.706-.113.421.54.601.653.18.079-.292.107-.586.076-.886-.044-.43-.721-.434-.677 0M88.79 23.751l.144.362c.16.4.815.226.653-.18l-.144-.362c-.16-.4-.814-.225-.653.18M91.158 24.717c.436 0 .436-.677 0-.677s-.437.677 0 .677M92.217 22.281a.98.98 0 0 1 .264-.701c.296-.32-.182-.8-.479-.48a1.68 1.68 0 0 0-.462 1.181c.004.436.681.436.677 0M93.953 19.027a.608.608 0 0 1 .193-.484c.31-.307-.169-.786-.479-.479-.261.26-.4.594-.391.963.01.435.687.436.677 0M95.392 16.205c.021-.175.094-.327.19-.472.241-.365-.345-.705-.585-.342a1.814 1.814 0 0 0-.282.814c-.051.432.626.428.677 0M96.41 13.747a.753.753 0 0 1 .106-.334c.216-.38-.37-.72-.585-.341-.122.214-.181.43-.199.675-.03.434.647.433.678 0M97.433 12.507l.214.148c.359.25.698-.337.342-.584l-.214-.149c-.359-.249-.698.338-.342.585M98.196 13.675v.144c0 .436.677.436.677 0v-.144c0-.436-.677-.437-.677 0M97.67 15.408c-.031.267-.105.53-.213.776-.174.395.41.74.585.342a3.84 3.84 0 0 0 .306-1.118c.051-.431-.626-.428-.678 0M96.48 19.011l-.351.944c-.152.41.502.586.652.18l.351-.944c.152-.409-.503-.586-.653-.18M95.165 22.209a1.878 1.878 0 0 1-.178.696c-.186.392.397.736.585.342.158-.333.247-.67.27-1.038.026-.435-.65-.434-.677 0M94.64 24.651l-.149.214c-.249.359.338.698.585.342l.148-.214c.25-.36-.337-.698-.584-.342M95.497 26.308h.434c.436 0 .437-.677 0-.677h-.434c-.436 0-.436.677 0 .677M97.889 25.418a.85.85 0 0 1 .31-.313c.374-.223.034-.81-.341-.585a1.555 1.555 0 0 0-.554.556c-.222.377.363.717.585.342M99.19 23.827l.508-.867c.22-.377-.364-.718-.585-.342l-.507.867c-.22.377.364.718.584.342M100.533 20.473c.017-.177.077-.332.168-.484.224-.376-.361-.716-.585-.342a1.908 1.908 0 0 0-.26.826c-.04.434.638.43.677 0M101.248 16.802c.077-.192.104-.39.082-.596-.044-.43-.721-.434-.677 0a.81.81 0 0 1-.058.416c-.16.405.493.58.653.18M101.142 13.359l-.073-.145c-.195-.39-.779-.047-.584.342l.072.144c.195.39.78.048.585-.341M102.025 14.708l.148.723c.087.426.74.246.653-.18l-.148-.723c-.087-.426-.74-.246-.653.18M102.938 18.75l.136.87c.067.429.72.247.653-.18l-.136-.87c-.067-.429-.72-.247-.653.18M102.422 21.998a.849.849 0 0 1-.286.776c-.324.293.156.77.479.479.35-.317.537-.784.485-1.255-.048-.429-.725-.434-.678 0M100.593 25.807a1.245 1.245 0 0 1-.571.655c-.379.216-.038.801.341.585.423-.241.715-.607.883-1.06.152-.41-.503-.587-.653-.18M99.186 27.61c.435 0 .436-.677 0-.677s-.436.677 0 .677M102.542 28.46l.432-.365c.333-.282-.147-.758-.479-.479l-.432.364c-.333.282.148.758.48.48M104.15 25.981l.624-1.206c.2-.387-.384-.73-.584-.342l-.624 1.206c-.2.387.384.73.585.342M105.681 22.58l.143-.93c.065-.426-.587-.61-.653-.179l-.143.93c-.065.426.588.61.653.18M105.93 19.735l-.068-.507c-.025-.183-.257-.279-.417-.237-.196.052-.26.236-.236.417l.068.507c.024.182.257.278.417.236.196-.052.26-.236.236-.416M105.049 16.902l-.217-.506c-.072-.17-.319-.204-.463-.122-.175.1-.193.296-.121.463l.216.507c.072.17.318.204.463.121.175-.1.193-.296.122-.463M104.104 15.677c.436 0 .436-.678 0-.678s-.437.678 0 .678M106.53 18.103l.287 1.013c.118.419.771.24.653-.18l-.286-1.013c-.119-.42-.772-.241-.654.18M106.733 21.847c.012.413-.032.811-.137 1.211-.11.422.542.602.653.18.12-.455.175-.92.16-1.391-.012-.435-.689-.436-.676 0M104.921 27.104l-.255.664c-.157.406.497.583.652.18l.257-.664c.157-.407-.498-.583-.654-.18M103.347 29.859l-.141.363c-.158.406.497.582.653.18l.142-.363c.158-.406-.497-.582-.654-.18M102.11 31.702c0-.034-.018-.025-.055.029-.342.269.14.745.48.48.219-.173.268-.426.229-.69-.065-.429-.717-.246-.653.18"/>
                <path fill="#5A5A5A" d="M116.09 117.652c-.508-.212-1.109-.263-1.783-.076-12.537 3.479-25.466 4.316-38.333 2.592-.621-.083-1.134.022-1.544.251.01 1.694.03 3.392.007 5.087.41.34.92.583 1.537.666 13.35 1.79 26.869.801 39.87-2.806.15-.041.286-.093.417-.15a244.128 244.128 0 0 1-.17-5.564"/>
                <path fill="#D6D6D6" d="M103.294 119.935a3.256 3.256 0 0 0-1.658-.098c-2.771.533-5.559.727-8.368.683a2.668 2.668 0 0 0-1.063.195c-.3 2.06-.232 4.098.026 6.126.306.131.65.21 1.037.216 3.332.053 6.621-.285 9.906-.917.185-.036.359-.099.524-.183.285-2.085.468-4.285-.404-6.022"/>
                <path fill="#000" d="M81.902 121.121c-.37 2.046-.491 4.087-.312 6.162.123 1.431 2.293 1.445 2.169 0-.161-1.87-.1-3.717.235-5.563.257-1.416-1.833-2.023-2.092-.599M110.418 119.212l.744 6.251c.17 1.42 2.34 1.437 2.17 0l-.745-6.251c-.17-1.42-2.34-1.437-2.17 0"/>
                <path fill="#020202" d="M94.387 30.065c1.532-.856 3.74-.577 4.76.923.19.277.643.016.452-.264-1.185-1.742-3.68-2.115-5.476-1.112-.294.165-.03.617.264.453M83.135 26.577c.692-.29 1.723.04 2.415.284.85.3 1.561.794 2.006 1.597.163.294.616.03.452-.265-.454-.818-1.158-1.378-2.025-1.727-.836-.337-2.103-.763-2.988-.394-.306.128-.171.635.14.505M72.59 90.019c.088 1.986 1.354 3.876 3.157 4.713-.41.7-.863 1.374-1.357 2.017a16.485 16.485 0 0 1-1.22-.678c-.729-.447-1.44-.968-1.908-1.684-.715-1.093-.77-2.476-.8-3.781l1.332-.938"/>
                <path fill="#FFF" d="M73.854 93.334c-.26-.2-.629-.218-.936-.105-.308.114-.56.345-.76.603-.311.399-.522.91-.426 1.406.154.788 1.035 1.247 1.837 1.252.42.002.848-.09 1.193-.328.345-.236.596-.629.601-1.047.003-.277-.096-.543-.21-.796-.142-.319-.312-.633-.568-.87-.256-.237-.61-.388-.954-.33"/>
                <path fill="#020202" d="M73.986 93.108c-1.037-.608-2.127.324-2.443 1.322-.362 1.14.488 2.078 1.584 2.278.999.182 2.297-.256 2.476-1.386.173-1.1-.81-2.527-1.972-2.464-.335.018-.337.542 0 .523.795-.043 1.494.971 1.47 1.734-.026.847-1.016 1.177-1.718 1.104-.642-.068-1.379-.467-1.412-1.194-.037-.799.895-1.966 1.751-1.465.292.17.555-.282.264-.452"/>
                <path fill="#5A5A5A" d="M76.014 128.83l-.398 1.272c-.1.322.405.46.506.139l.397-1.273c.1-.322-.405-.46-.505-.139M74.322 134.73l-.366 1.909c-.062.329.442.47.505.139l.365-1.908c.063-.33-.441-.47-.504-.14M73.043 140.493a6.23 6.23 0 0 1-.187 2.251c-.088.326.417.465.505.14.212-.786.283-1.58.206-2.39-.032-.333-.556-.337-.524 0M72.24 147.385l-.38 1.696c-.074.328.43.469.504.14l.38-1.697c.073-.328-.431-.468-.505-.139M70.91 154.751l-.361 1.91c-.062.328.442.47.505.138l.361-1.909c.062-.329-.442-.47-.505-.139M70.706 161.493a4.21 4.21 0 0 0-.162 2.046c.053.332.557.191.505-.139a3.65 3.65 0 0 1 .162-1.768c.108-.32-.397-.457-.505-.14M96.337 167.425c.385.304.635.7.737 1.18.07.329.575.19.505-.14a2.437 2.437 0 0 0-.872-1.41c-.262-.206-.635.162-.37.37"/>
            </g>
        </g>
    </g>
</svg>
