<svg xmlns="http://www.w3.org/2000/svg" xmlns:xlink="http://www.w3.org/1999/xlink" width="76" height="76" viewBox="0 0 76 76">
    <defs>
        <path id="a" d="M0 .157h75.842v75.584H0z"/>
    </defs>
    <g fill="none" fill-rule="evenodd">
        <g transform="translate(0 .101)">
            <mask id="b" fill="#fff">
                <use xlink:href="#a"/>
            </mask>
            <path fill="#B5E8F7" d="M37.921 75.741C16.978 75.741 0 58.821 0 37.95S16.978.157 37.921.157c20.943 0 37.921 16.92 37.921 37.792s-16.978 37.792-37.92 37.792z" mask="url(#b)"/>
        </g>
        <path fill="#4BB4E6" d="M11.693 49.49c-.445-2.764-.024-4.704-.225-7.497-.089-1.226-.134-2.954-.156-4.336-.01-.689 20.31-4.651 25.358-5.234 2.287-.264 4.583-.529 6.884-.477 4.948.11 9.733 1.67 14.432 3.215 1.813.596 8.734 2.685 11.41 4.56.074 1.504.108 3.01.101 4.515 0 .228-.007.47-.132.66-.13.194-.359.295-.575.385a126.844 126.844 0 0 1-13.342 4.682c-5.216 1.51-10.523 2.683-15.832 3.823-1.401.301-2.813.601-4.246.643-1.403.04-2.8-.167-4.185-.395A138.656 138.656 0 0 1 11.9 49.422"/>
        <path fill="#085EBD" d="M11.308 37.582l.4 1.706L34.462 49.87l1.327-.053a285.43 285.43 0 0 0 21.982-4.904l11.624-5.193s.543 4.788-.032 5.174c-.574.386-19.449 8.577-34.111 10.084 0 0-21.616-3.616-23.884-6.026l-.061-11.371z"/>
        <path fill="#000" d="M33.261 34.577c3.49 2.279 7.397 3.834 11.273 5.373l10.483 4.163"/>
        <path fill="#000" d="M32.975 35.065c3.207 2.063 6.713 3.554 10.245 4.967 3.878 1.55 7.764 3.084 11.646 4.625.678.27.973-.823.302-1.089-3.753-1.49-7.508-2.976-11.259-4.471-3.573-1.424-7.119-2.92-10.362-5.008-.614-.395-1.183.583-.572.976M41.09 36.063l4.526-1.99s-2.668-1.418-3.268-1.052c-1.88 1.147-1.258 3.042-1.258 3.042"/>
        <path fill="#085EBD" d="M34.335 33.268c-.613-.584-.173-3.414.39-4.046.564-.632 8.242-1.85 10.097-1.83 1.514.017 19.178 7.282 20.465 8.38a6.814 6.814 0 0 1 2.35 5.337c-.017.475-.092.968-.363 1.359-.276.397-.72.64-1.154.856a26.433 26.433 0 0 1-4.776 1.83c-.507.14-1.038.266-1.556.173-.475-.085-.897-.346-1.306-.602-1.66-1.04-3.27-1.397-3.3-3.35-.015-.915-.146-2.909-.525-3.136-2.927-1.758-11.676-5.452-12.309-5.218-.632.234-1.625 2.476-1.197 2.996-2.52.205-4.72-1.176-6.816-2.749"/>
        <path fill="#4BB4E6" d="M36.112 29.648c4.98 1.45 10.014 2.897 14.725 5.096 3.832 1.789 8.231 4.317 9.643 8.568.228.687 1.324.392 1.093-.3-1.447-4.356-5.65-7.062-9.591-8.971-4.959-2.403-10.293-3.945-15.569-5.482-.701-.205-1 .885-.301 1.09M60.424 38.232a37.22 37.22 0 0 0 3.965-1.767"/>
        <path fill="#4BB4E6" d="M60.574 38.776c1.4-.534 2.768-1.14 4.102-1.823.648-.333.076-1.308-.573-.975a38.485 38.485 0 0 1-3.83 1.709c-.675.257-.382 1.35.301 1.09"/>
        <path fill="#000" d="M16.868 38.954s13.434 8.53 17.742 8.925c0 0 11.62-3.39 12.358-4.01.737-.622-17.686-8.531-18.196-8.587-.51-.057-12.415 3.22-11.904 3.672"/>
        <path fill="#B5E8F7" d="M34.213 40.721c1.029-.233 2.056-.473 3.08-.725l-3.689-1.788a306.776 306.776 0 0 1-3.315.682c1.321.583 2.629 1.195 3.924 1.831M29.137 39.125c-.853.178-1.704.367-2.546.588l-1.052.28 4.055 1.72c1.19-.24 2.376-.492 3.56-.754a106.214 106.214 0 0 0-4.017-1.834M24.477 40.274c-1.047.272-2.096.524-3.167.702a89.315 89.315 0 0 0 3.305 1.678c1.27-.225 2.538-.461 3.804-.709l-3.942-1.671M29.526 42.415c-1.286.257-2.574.504-3.864.737a82.663 82.663 0 0 0 4.544 1.975 49.44 49.44 0 0 1 2.963-1.16c-1.214-.52-2.428-1.037-3.643-1.552M37.729 42.528c1.03-.288 2.065-.56 3.105-.817-.863-.417-1.726-.836-2.588-1.254-1.024.257-2.05.502-3.079.74.86.433 1.714.876 2.562 1.331M34.133 41.435c-1.145.257-2.292.506-3.442.743 1.14.485 2.278.971 3.415 1.459.89-.3 1.787-.576 2.689-.84-.881-.465-1.768-.92-2.662-1.362M41.865 44.854c1.362-.442 2.562-.864 3.138-1.122l-3.22-1.56c-1.072.258-2.14.528-3.204.815 1.105.605 2.2 1.229 3.286 1.867M37.639 43.25a70.7 70.7 0 0 0-2.61.784c1.318.568 2.635 1.138 3.949 1.716.655-.193 1.345-.405 2.02-.618-1.11-.645-2.23-1.272-3.36-1.881M34.074 44.356c-1 .344-1.99.711-2.969 1.118 2.03.761 3.695 1.228 4.492 1.147.357-.037 1.254-.263 2.368-.578a602.313 602.313 0 0 0-3.89-1.687M28.883 38.281l.318.138c.826-.17 1.654-.33 2.478-.5l.93-.193-2.07-1.003c-.46-.223-.927-.448-1.43-.536a3.228 3.228 0 0 0-.51-.045c-1.077.27-2.155.542-3.23.826 1.173.46 2.402.84 3.514 1.313M24.299 37.255c-.185.05-.37.1-.554.152-.837.233-1.667.495-2.498.758 1.092.468 2.185.934 3.278 1.398.628-.165 1.255-.336 1.885-.504a41.263 41.263 0 0 1 1.634-.393c-1.217-.478-2.531-.876-3.745-1.41M20.263 38.475c-.717.224-1.436.44-2.16.632.631.415 1.42.885 2.317 1.384a.292.292 0 0 1 .175-.084c.967-.136 1.915-.339 2.856-.57-1.064-.452-2.126-.906-3.188-1.362"/>
        <path fill="#FFF" d="M12.998 28.539c-1.612.194-2.978 1.012-3.873 2.369-.406.615.584 1.186.988.575a4.046 4.046 0 0 1 2.885-1.804c.722-.087.73-1.228 0-1.14M6.746 29.926c.89-1.709 2.377-2.93 4.24-3.45.708-.198.407-1.298-.304-1.1a7.91 7.91 0 0 0-4.924 3.975c-.338.65.648 1.227.988.575M34.52 19.873c1.545-.45 3.215-.78 4.83-.594 1.435.164 2.847.881 4.193 1.378.69.255.99-.846.304-1.1-1.5-.553-3.05-1.33-4.663-1.446-1.663-.12-3.38.2-4.969.662-.705.206-.404 1.306.305 1.1M33.102 14.583c2.246-1.573 4.885-.895 7.327-.206.71.2 1.012-.9.304-1.1-2.73-.77-5.712-1.426-8.209.321-.598.419-.027 1.408.578.985M60.365 26.123a17.48 17.48 0 0 1 4.828 4.102c.466.568 1.271-.242.809-.806a18.338 18.338 0 0 0-5.06-4.28c-.639-.368-1.216.617-.577.984M64.355 22.403a4.363 4.363 0 0 1 2.183 2.083c.327.657 1.314.08.988-.575a5.333 5.333 0 0 0-2.594-2.492c-.666-.297-1.249.685-.577.984"/>
    </g>
</svg>
