<svg xmlns="http://www.w3.org/2000/svg" xmlns:xlink="http://www.w3.org/1999/xlink" width="77" height="81" viewBox="0 0 77 81">
    <defs>
        <path id="a" d="M.068.072h44.088V20.75H.068z"/>
        <path id="c" d="M11.73.303L2.811 3.01A3.866 3.866 0 0 0 .236 7.834L4.978 23.45A3.866 3.866 0 0 0 9.8 26.025l8.917-2.709a3.866 3.866 0 0 0 2.576-4.823L16.552 2.88A3.868 3.868 0 0 0 11.73.303z"/>
    </defs>
    <g fill="none" fill-rule="evenodd">
        <path fill="#FFF" d="M41.414 80.156l1.067-.568c.509-.27.707-1.018.395-1.504a1.123 1.123 0 0 0-1.504-.394l-1.068.569c-.508.27-.707 1.018-.394 1.503.333.517.96.684 1.504.394"/>
        <path fill="#D6D6D6" d="M74.5 42.077c0 20.547-16.657 37.204-37.204 37.204S.093 62.624.093 42.077c0-20.546 16.656-37.203 37.203-37.203 20.547 0 37.203 16.657 37.203 37.203"/>
        <path fill="#714F47" d="M22.472 43.806c1.706-.508 4.041-.275 5.535-1.26 4.429-2.922 8.714-6.057 12.537-9.593a566.597 566.597 0 0 0 2.385 4.155c.951 1.637 2.05 3.2 3.019 4.827.802 1.346.575 2.694 1.736 3.924 1.482 1.569 4.277 1.902 5.54 3.506.842 1.07.572 2.35.734 3.665.748 6.058 10.215 12.242 3.037 17.676-2.859 2.165-6.397 3.534-9.694 4.878-2.664 1.087-5.527 1.196-6.95-1.604-1.211-2.385-1.335-4.969-3.411-6.915-1.868-1.75-4.581-2.217-6.432-3.886-2.638-2.38-4.767-5.783-6.564-8.826-1.598-2.705-3.567-5.744-3.419-9.027.04-.894 1.15-1.283 1.947-1.52"/>
        <g transform="translate(36.844 59.963)">
            <mask id="b" fill="#fff">
                <use xlink:href="#a"/>
            </mask>
            <path fill="#FF7900" d="M.256 12.996C.674 12.26 19.158.207 21.497.074c1.555-.088 3.094 2.34 3.797 3.18 2.839 3.4 30.308 36.382 30.978 43.196H20.146C13.37 40.235 3.416 20.705.55 15.239c-.53-1.012-.617-1.679-.295-2.243" mask="url(#b)"/>
        </g>
        <path fill="#714F47" d="M16.236 38.142c-.46.047-.926.223-1.379.563-.21.158 3.865 7.304 5.665 5.803 2.283-1.907-2.025-6.593-4.286-6.366"/>
        <path fill="#714F47" d="M20.287 32.544c1.053.432 2.283 1.246 2.94.875.946-.535-1.698-2.543-2.175-3-.78-.748-1.68-1.439-2.41-2.24-.464-.51-1.026-1.267-.574-1.964.473-.73 1.3-.086 1.837.24 2.647 1.6 5.082 3.563 7.528 5.45 1.307 1.007 2.676 1.987 4.008 2.95.92.667 1.828 1.69 2.975 1.408.84-.206 1.83-1.262 2.445-.075.356.685.518 1.551.638 2.425.107.777.181 1.56.328 2.228.244 1.107.108 2.22-.038 3.33-.162 1.232.553 5.112.553 5.112-.525 1.785-.426 3.403-2.5 3.62-1.759.183-3.801-.345-5.29-1.307-.87-.564-1.024-1.256-2.139-1.031-.91.184-1.74.896-2.714.73-.796-.135-1.355-1.36-1.788-1.973-1.078-1.531-4.23-4.58-3.392-6.605.72-1.738 1.082-1.79.316-3.773-.649-1.682-2.436-3.289-2.421-5.194.012-1.684.86-1.621 1.873-1.206M20.151 21.747c.296.368.558.74.766 1.074.502.805.726 2.345 1.794 2.647 1.135.32 1.684-1.77 1.868-2.563.434-1.866-1.289-3.173-2.734-4.047-1.594-.964-3.048-.696-3.864.986.763.363 1.544 1.125 2.17 1.903"/>
        <path fill="#714F47" d="M19.586 32.434l.48.858c-.015.194-.467 2.503-.616 2.442-1.252-.507-2.568-2.09-2.049-3.468.231-.615 1.373-2.128 2.127-1.301.374.41-.172 1.052.058 1.47"/>
        <path fill="#000" d="M24.93 13.596c1.385-.821 2.904-.594 4.654-.382 1.788.215 4.142.463 5.932.648 1.731.18 3.57.36 5.297.577 1.536.192 4.146.45 5.352 1.505 1.076.942 1.464 2.817 1.493 4.218.06 2.835-.634 5.62-.996 8.418-.445 3.447-.765 6.654-1.13 10.112-.273 2.572-.675 5.958-1.072 8.514-.336 2.163-.38 3.805-.735 5.966-.257 1.56-.099 3.602-1.73 4.617-1.02.635-2.544.727-3.692.687-1.82-.064-3.611-.43-5.421-.602-2.112-.2-4.198-.548-6.282-.934-1.831-.339-4.141-.177-5.803-1.02-1.887-.959-2.213-2.973-2.014-5.177.756-8.385 2.206-16.754 2.856-25.097.179-2.301.684-4.672 1.072-6.989.324-1.933.295-3.922 2.218-5.061"/>
        <path fill="#FFF" d="M27.254 14.135c3.161.46 6.37.622 9.52 1.134 2.386.388 4.94.07 7.24.932 2.933 1.1 2.55 6.46 2.224 9.22l-.588 4.956-1.386 11.68-.77 6.49c-.21 1.77-.263 6.325-1.344 7.867a2.36 2.36 0 0 1-.42.462c-1.158.963-2.879.283-4.336.11-3.901-.463-7.83-.683-11.73-1.145-2.074-.246-3.519-.4-5.592-.645.001-.01-.6-.355-.598-.364.605-5.103 1.58-12.552 2.186-17.654.697-5.88 1.358-11.746 1.867-17.64.186-2.154 1.51-5.726 3.727-5.403"/>
        <path fill="#000" d="M32.397 14.815c2.578.305 5.052.104 7.629.411 1.197.144 2.217.257 3.414.401 1.049.127 3.26 1.127 2.947 3.598-.17 1.333-2.106 14.208-2.265 15.542l-.268 2.253-.235 1.985-1.079 9.08c-.099.831-.34 5.198-.461 6.25-.065.553.134 3.566-3.926 3.07-1.489-.181-13.955-1.694-15.188-1.832-2.916-.327-2.594-2.382-2.533-2.882.183-1.485 3.238-29.597 3.443-31.255.106-.863.897-4.014 1-4.877.283-2.373 1.62-2.937 3.098-2.76m-5.273 6.34c-.029.357-.058.716-.1 1.068-.313 2.628-1.097 9.55-1.835 16.086-.734 6.496-1.421 12.61-1.557 13.746-.42 3.528-.632 5.141 5.138 5.829l13.8 1.646c2.566.306 4.605-.116 5.055-4.045.019-.169.507-4.247 1.125-9.43 1.1-9.203 2.612-21.888 2.65-22.37.108-1.327.822-6.093-2.993-6.548-2.881-.343-12.55-1.403-16.155-1.833-4.498-.536-4.923 3.34-5.128 5.85"/>
        <path fill="#000" d="M30.897 14.33c1.112.148 1.658.28 2.493.351.811.07 3.05.359 4.771.578.397.051 4.418.198 2.942 1.278-.424.31-1.343.044-1.82.012-1.194-.08-2.814-.311-4.253-.477-1.583-.183-2.451-.288-4.33-.515-1.587-.193-1.069-1.397.197-1.228"/>
        <path fill="#81C8A6" d="M42.624 48.669l-.022.214h-.004a.8.8 0 0 0 .016-.163v-.052h.01"/>
        <path fill="#714F47" d="M23.638 25.278a3.007 3.007 0 0 0-.019-1.615c-1.707.16-7.062 1.059-5.536 3.906 1.274 2.378 5.12-.588 5.555-2.29M23.065 31.268c.135-.526.14-1.08-.02-1.615-1.707.159-7.061 1.059-5.536 3.906 1.275 2.378 5.12-.588 5.556-2.29"/>
        <path fill="#66413E" d="M21.047 24.791c.623 1.14 1.877-.303 2.326-.894.177-.234.542.04.364.275-.403.53-.885 1.043-1.482 1.35-.272.141-.595.208-.894.124-.344-.096-.567-.372-.732-.673-.14-.258.278-.437.418-.182M20.813 31.157c.513.61 1.532-.224 1.916-.621.202-.209.568.063.364.274-.61.631-1.878 1.533-2.638.629-.189-.226.17-.507.358-.282"/>
        <path fill="#714F47" d="M43.92 26.397c.683 1.967 2.15 3.497 3.601 4.96 1.1 1.108 2.854 2.101 3.729 3.421.321 3.217 1.85 6.255 3.846 8.826.144.39.234.79.236 1.209 0 .082 0 .166-.002.25-.063 3.327-.022 8.397-.217 11.73-2.467 1.286-2.604 1.432-4.739 2.7-.292-.185-.432-1.852-.712-2.059-.858-.632-1.559-1.42-2.478-1.975-.558-.337-1.348-.536-1.783-1.05-1.108-1.31-.372-4.04-.305-5.598.11-2.532-.3-5.196.001-7.705.237-1.973.03-3.425-1.112-5.185-.103-.159-.269-.3-.445-.438-.202-.158-.418-.314-.57-.49-.66-.77-1.071-1.854-1.201-2.88-.227-1.788.02-5.04 2.15-5.716"/>
        <path fill="#66413E" d="M43.22 29.183c.148.559.532 1.007 1.088 1.183.524.166 1.088-.051 1.435-.457.19-.222.555.051.364.275-.464.542-1.163.81-1.866.633-.767-.194-1.275-.822-1.472-1.566-.075-.284.376-.349.45-.068"/>
        <path fill="#000" d="M39.743 76.326l.27-.272c.405-.408.438-1.152 0-1.554-.438-.402-1.122-.435-1.555 0l-.27.271c-.406.409-.438 1.152 0 1.555.438.402 1.122.435 1.555 0M41.69 75.128c.672-.22 1.19-.623 1.594-1.2.331-.473.101-1.242-.394-1.504-.563-.297-1.15-.11-1.504.394-.067.095-.05.073.052-.064a1.736 1.736 0 0 1-.186.187c.128-.095.16-.119.092-.07-.065.041-.132.08-.196.122-.106.051-.078.042.082-.028-.04.016-.082.03-.125.044-.545.179-.956.768-.767 1.352.176.544.767.96 1.352.767M45.596 72.966l.802-.555c.472-.327.733-.979.394-1.504-.302-.469-.998-.744-1.503-.394l-.802.555c-.472.327-.733.978-.394 1.504.302.469.998.744 1.503.394M49.612 70.148c-.078.156-.095.197-.052.123.043-.07.018-.036-.078.105l-.126.1c-.173.061-.204.077-.093.047.559-.137.947-.799.768-1.352-.188-.58-.754-.914-1.352-.768-.584.143-1.01.598-1.187 1.16-.172.55.203 1.224.768 1.352.598.137 1.167-.18 1.352-.767M52.48 68.513c-.027.036-.156.175-.049.08l-.046.041c.08-.071-.197.055-.091.033.08-.017.235-.044-.078-.006.302-.037.554-.099.777-.322.191-.19.335-.504.322-.777-.024-.537-.487-1.173-1.099-1.1-.344.042-.634.097-.94.274-.294.17-.494.4-.694.668-.16.213-.178.602-.11.847.07.254.267.53.504.656.255.135.564.203.847.111.29-.093.476-.263.657-.505M55.61 66.88l1.09-.526c.519-.25.698-1.032.394-1.503-.343-.533-.949-.663-1.504-.395l-1.089.527c-.519.25-.698 1.032-.394 1.504.343.532.948.662 1.504.394M58.855 65.117l.81-.408c.515-.26.702-1.027.395-1.504-.34-.526-.954-.671-1.504-.394l-.81.408c-.515.259-.703 1.026-.395 1.503.34.526.953.672 1.504.395"/>
        <path fill="#000" d="M61.145 64.058c1.415 0 1.417-2.198 0-2.198-1.414 0-1.416 2.198 0 2.198"/>
        <path fill="#FFF" d="M45.154 77.679l.27-.272c.406-.408.438-1.152 0-1.554-.438-.402-1.121-.435-1.554 0l-.27.271c-.406.409-.438 1.152 0 1.555.438.401 1.121.435 1.554 0M47.896 76.074l.811-.406c.516-.257.702-1.027.394-1.503-.34-.527-.952-.67-1.503-.395l-.812.406c-.515.258-.701 1.028-.394 1.504.34.527.952.67 1.504.394M51.682 73.91l.689-.525c.237-.18.422-.356.505-.656.072-.263.04-.614-.111-.847-.29-.45-1.015-.767-1.504-.394l-.688.525c-.238.18-.423.356-.506.656-.072.263-.04.614.111.847.29.45 1.015.767 1.504.394M54.11 72l.683-.394c.498-.287.714-1.007.394-1.504-.324-.502-.97-.701-1.504-.394l-.683.394c-.499.287-.715 1.007-.394 1.504.324.502.97.701 1.503.394M57.215 70.23l1.526-.88c.498-.288.715-1.007.395-1.504-.324-.502-.971-.702-1.504-.394l-1.526.881c-.498.288-.715 1.007-.395 1.504.324.502.971.702 1.504.394"/>
        <path fill="#FFF" d="M60.47 68.353l.401-.276c.473-.325.733-.98.395-1.504-.304-.47-.997-.743-1.504-.394l-.402.276c-.473.326-.732.98-.394 1.504.303.47.997.743 1.504.394M63.188 66.749l.271-.136c.515-.257.701-1.027.394-1.503-.34-.527-.952-.67-1.504-.395l-.27.136c-.515.257-.702 1.027-.394 1.503.34.528.952.67 1.503.395"/>
        <g>
            <path fill="#D6D6D6" d="M38.221 46.688a.728.728 0 0 1-.084-.005l-12.48-1.476a.709.709 0 1 1 .166-1.408l12.48 1.476a.709.709 0 0 1-.082 1.413M37.495 50.082a.728.728 0 0 1-.084-.005L24.931 48.6a.709.709 0 1 1 .166-1.408l12.48 1.477a.709.709 0 0 1-.082 1.413M37.878 53.905a.728.728 0 0 1-.084-.005l-12.481-1.476a.709.709 0 1 1 .167-1.409l12.48 1.477a.709.709 0 0 1-.082 1.413M35.98 42.815l-7.49-1.034a2.097 2.097 0 0 1-1.791-2.364l1.025-7.43a2.097 2.097 0 0 1 2.365-1.791l7.49 1.033a2.098 2.098 0 0 1 1.79 2.365l-1.025 7.43a2.097 2.097 0 0 1-2.364 1.79"/>
            <path fill="#FFF" d="M55.514 32.707c1.538-1.223 3.385-2.017 4.834-3.355.476-.441-.157-1.23-.637-.787-1.449 1.338-3.295 2.132-4.833 3.355-.511.407.126 1.194.636.787"/>
            <path fill="#FFF" d="M60.019 28.854l-.023.02c-.841.776-1.811 1.376-2.75 1.956-.712.44-1.45.896-2.107 1.419-.032.026-.03.036-.029.046.006.04.045.087.083.102.013.005.025.01.06-.018.695-.553 1.454-1.022 2.187-1.475.946-.585 1.84-1.138 2.623-1.86.033-.031.04-.055.03-.094a.157.157 0 0 0-.074-.096m-4.809 4.387a.883.883 0 0 1-.324-.063.987.987 0 0 1-.606-.76.873.873 0 0 1 .337-.826c.696-.554 1.455-1.023 2.189-1.476.945-.585 1.839-1.137 2.62-1.86.373-.344.896-.32 1.244.056.322.348.396.947-.038 1.348-.842.778-1.812 1.378-2.75 1.958-.713.44-1.45.896-2.106 1.418a.904.904 0 0 1-.566.205M59.612 37.312c.618-.196.38-1.181-.243-.983-.754.239-1.474.567-2.247.75-.635.151-.393 1.134.243.983.773-.183 1.493-.511 2.247-.75"/>
            <path fill="#FFF" d="M59.525 36.721c-.002.002-.012.003-.03.008-.278.088-.561.193-.835.294-.462.17-.94.346-1.441.465-.04.01-.043.019-.045.028a.151.151 0 0 0 .032.129c.01.01.018.019.062.009.452-.107.885-.267 1.342-.435.284-.105.577-.213.876-.307.042-.014.059-.032.065-.071a.156.156 0 0 0-.026-.12m-2.29 1.777a.867.867 0 0 1-.64-.277.988.988 0 0 1-.225-.945.872.872 0 0 1 .655-.605c.453-.107.886-.267 1.345-.436.282-.104.575-.212.872-.306.484-.154.949.09 1.104.578.143.452-.045 1.026-.607 1.205-.28.088-.564.193-.838.294-.461.17-.938.346-1.439.464a.977.977 0 0 1-.227.028M14.604 27.865c-1.314-1.461-3.002-2.551-4.209-4.112-.397-.514.359-1.187.758-.67 1.207 1.56 2.896 2.65 4.209 4.112.436.485-.322 1.156-.758.67"/>
            <path fill="#FFF" d="M10.797 23.315a.188.188 0 0 0-.084.084c-.017.037-.013.062.014.098.652.842 1.441 1.535 2.277 2.27.648.568 1.318 1.157 1.912 1.817.03.034.043.03.056.028a.151.151 0 0 0 .099-.087c.003-.009.006-.02-.021-.05-.561-.625-1.213-1.197-1.843-1.75-.828-.727-1.685-1.48-2.386-2.385a.095.095 0 0 0-.024-.025m4.16 5.138a.888.888 0 0 1-.666-.308c-.56-.624-1.211-1.195-1.84-1.748-.83-.728-1.687-1.48-2.388-2.387-.36-.468-.188-1.047.187-1.337.406-.313.925-.249 1.235.153.652.842 1.44 1.535 2.276 2.269.648.569 1.319 1.158 1.913 1.82a.873.873 0 0 1 .195.87.987.987 0 0 1-.724.649.91.91 0 0 1-.187.02M10.88 33.297c-.617-.195-.38-1.18.244-.982.754.239 1.474.567 2.247.75.635.15.392 1.134-.243.983-.773-.183-1.493-.512-2.248-.75"/>
            <path fill="#FFF" d="M11.007 32.897c.299.095.592.203.876.308.457.168.89.328 1.342.435.044.01.053 0 .062-.01a.151.151 0 0 0 .032-.128c-.003-.01-.005-.019-.045-.028-.502-.12-.98-.295-1.441-.466-.274-.1-.557-.205-.836-.293-.024-.008-.034-.007-.034-.007a.187.187 0 0 0-.022.118c.007.04.024.058.066.071m2.251 1.587a.977.977 0 0 1-.227-.028c-.501-.119-.978-.294-1.439-.464-.274-.101-.558-.206-.838-.294-.562-.179-.75-.753-.607-1.205.156-.489.62-.732 1.104-.578.297.094.59.202.872.306.459.17.892.329 1.345.436a.871.871 0 0 1 .655.604.987.987 0 0 1-.226.946.866.866 0 0 1-.639.277"/>
            <path fill="#FF7900" d="M35.753 34.457l1.677-7.246c.055-.337-.142-.65-.412-.659l-7.72-.224c-.268-.008-.482.29-.45.628l1.266 7.342c.033.338-.18.637-.45.629l-1.363-.04c-.378-.01-.594.55-.352.914l4.39 6.592c.164.247.463.259.645.025l4.904-6.322c.27-.347.087-.927-.294-.938l-1.43-.042c-.27-.008-.466-.322-.411-.659M30.044 23.354l-8.917 2.708a3.866 3.866 0 0 1-4.824-2.576L11.561 7.871a3.866 3.866 0 0 1 2.577-4.823L23.055.34a3.866 3.866 0 0 1 4.823 2.576l4.742 15.615a3.867 3.867 0 0 1-2.576 4.823"/>
        </g>
        <g transform="translate(11.326 .037)">
            <mask id="d" fill="#fff">
                <use xlink:href="#c"/>
            </mask>
            <path fill="#000" d="M20.303 12.663c-8.872 2.695-10.076-1.27-18.948 1.424l4.681 15.414 17.744-5.388-3.477-11.45z" mask="url(#d)"/>
        </g>
        <g fill="#FF7900">
            <path d="M51.382 16.742c.26.593.728.985 1.401 1.179.469.134.916.17 1.344.104a3.22 3.22 0 0 0 2.102-1.218c.262-.332.45-.704.567-1.111.205-.715.152-1.357-.158-1.933-.31-.573-.832-.966-1.565-1.176a2.576 2.576 0 0 0-1.226-.053c-.41.082-.784.233-1.124.456-.34.222-.64.5-.9.833a3.084 3.084 0 0 0-.55 1.05c-.188.654-.15 1.276.11 1.87zm7.855 1.175l-.357.726a4.19 4.19 0 0 0-.26.62c-.129.449-.02.722.327.822.265.075.577.066.935-.03.358-.095.729-.293 1.113-.592.383-.298.754-.726 1.113-1.285.359-.56.661-1.268.906-2.123.316-1.102.396-2.132.24-3.092a6.2 6.2 0 0 0-1.068-2.623c-.558-.788-1.287-1.477-2.188-2.066-.902-.59-1.932-1.05-3.094-1.384-1.285-.368-2.507-.492-3.666-.372a7.83 7.83 0 0 0-3.17 1.012 8.295 8.295 0 0 0-2.472 2.22c-.695.926-1.225 2.02-1.587 3.284-.38 1.326-.501 2.577-.364 3.752a7.822 7.822 0 0 0 1.084 3.205c.585.963 1.372 1.796 2.361 2.498.991.703 2.139 1.241 3.443 1.615 1.163.332 2.282.484 3.362.451a9.463 9.463 0 0 0 3.027-.572l3.364.964c-1.539 1.214-3.226 1.96-5.06 2.24-1.834.28-3.985.066-6.451-.641-1.57-.45-2.962-1.158-4.174-2.123a11.569 11.569 0 0 1-4.327-7.71c-.197-1.546-.07-3.103.38-4.673.45-1.57 1.167-2.959 2.153-4.165a11.911 11.911 0 0 1 3.465-2.913c1.325-.733 2.76-1.2 4.306-1.396 1.545-.197 3.103-.071 4.674.379a14.948 14.948 0 0 1 4.128 1.877c1.242.82 2.27 1.778 3.082 2.87a9.479 9.479 0 0 1 1.66 3.62c.294 1.32.24 2.683-.162 4.09-.368 1.285-.955 2.37-1.76 3.251-.805.885-1.69 1.57-2.656 2.053a8.794 8.794 0 0 1-2.988.898c-1.026.114-1.947.055-2.762-.18-.469-.133-.833-.365-1.091-.693-.26-.327-.359-.714-.297-1.16l-.122-.035c-.465.308-1.011.504-1.642.587-.63.085-1.293.028-1.985-.17a4.788 4.788 0 0 1-2.928-2.428 5.434 5.434 0 0 1-.562-1.966c-.072-.715.007-1.47.235-2.265a8.048 8.048 0 0 1 1.187-2.471 7.542 7.542 0 0 1 1.894-1.874 6.311 6.311 0 0 1 2.405-1c.876-.167 1.782-.117 2.72.151.775.223 1.441.575 1.999 1.053.557.48.998 1.12 1.32 1.917l.57-1.062 2.813.807-3.073 6.102zM37.202 1.498l-.583 7.976c-.077 1.046 1.553 1.04 1.63 0l.583-7.976c.076-1.046-1.553-1.041-1.63 0"/>
            <path d="M34.388 6.291a62.968 62.968 0 0 1 6.682.096c1.047.07 1.043-1.559 0-1.629a62.968 62.968 0 0 0-6.682-.096c-1.045.04-1.05 1.67 0 1.63"/>
        </g>
    </g>
</svg>
