<svg xmlns="http://www.w3.org/2000/svg" xmlns:xlink="http://www.w3.org/1999/xlink" width="76" height="76" viewBox="0 0 76 76">
    <defs>
        <path id="a" d="M0 .157h75.842v75.584H0z"/>
    </defs>
    <g fill="none" fill-rule="evenodd">
        <g transform="translate(0 .101)">
            <mask id="b" fill="#fff">
                <use xlink:href="#a"/>
            </mask>
            <path fill="#B5E8F7" d="M75.842 37.95c0 20.871-16.977 37.791-37.92 37.791C16.977 75.741 0 58.821 0 37.95S16.978.157 37.92.157c20.944 0 37.921 16.92 37.921 37.792" mask="url(#b)"/>
        </g>
        <path fill="#FFF" d="M63.818 43.833l-42.9 14.76a2.837 2.837 0 0 1-3.604-1.748l-8.22-23.73a2.823 2.823 0 0 1 1.754-3.591l42.9-14.761a2.837 2.837 0 0 1 3.604 1.748l8.22 23.73a2.823 2.823 0 0 1-1.754 3.592"/>
        <path fill="#0A6E31" d="M52.515 22.045l-1.873.644-1.355-3.911 1.873-.645z"/>
        <path fill="#FAB431" d="M54.369 21.407l-1.873.645-1.355-3.912 1.873-.644z"/>
        <path fill="#D32E02" d="M56.215 20.772l-1.874.645-1.355-3.912 1.874-.645z"/>
        <path fill="#0A6E31" d="M52.585 19.18l.277.272.382-.073-.175.347.187.34-.384-.06-.266.283-.063-.382-.352-.166.346-.177z"/>
        <path stroke="#000" d="M12.217 37.66l44.36-15.263"/>
        <path fill="#0A6E31" d="M15.125 30.115a3.044 3.044 0 0 0-1.891 3.874 3.059 3.059 0 0 0 3.886 1.885A3.043 3.043 0 0 0 19.012 32a3.059 3.059 0 0 0-3.887-1.886m.553 1.595a1.36 1.36 0 1 1 .89 2.57 1.366 1.366 0 0 1-1.734-.842 1.36 1.36 0 0 1 .844-1.728"/>
        <path fill="#D32E02" d="M15.432 31.001a2.107 2.107 0 0 0-1.31 2.682 2.118 2.118 0 0 0 2.691 1.305 2.107 2.107 0 0 0 1.31-2.682 2.118 2.118 0 0 0-2.69-1.305m.306.886a1.172 1.172 0 1 1 .768 2.215 1.172 1.172 0 1 1-.768-2.215"/>
        <path fill="#C19372" d="M46.217 21.5l-24.624 8.472-.307-.886 24.625-8.472zM46.74 23.006l-24.626 8.472-.306-.886 24.624-8.472zM46.812 29.822l-20.09 6.913-.308-.886 20.091-6.913zM45.079 34.583L28.01 40.456l-.306-.886 17.068-5.873zM43.701 39.222L29.3 44.177l-.307-.886 14.401-4.955zM41.168 44.258l-10.58 3.64-.306-.886 10.578-3.64zM55.302 39.395l-8.267 2.844-.307-.886 8.267-2.844zM56.502 43.146L31.878 51.62l-.307-.886 24.625-8.473zM47.079 23.986l-24.625 8.472-.096-.276 24.625-8.473zM34.297 31.606l-7.956 2.738-.096-.277 7.956-2.738zM35.617 35.416l-7.957 2.737-.096-.276 7.957-2.738zM36.937 39.225l-7.957 2.738-.096-.277 7.957-2.737zM38.256 43.035L30.3 45.773l-.096-.277 7.957-2.738zM39.576 46.845l-7.956 2.737-.096-.276 7.956-2.738z"/>
        <path fill="#A7A3A0" d="M27.986 48.322s-2.385.271-3.378-.21c-.78-.378-1.049-2.056-1.13-2.763.339-.695.478-1.577.384-2.52.09.049.177.065.254.039.27-.093.318-.661.107-1.27-.211-.608-.6-1.026-.87-.933a.244.244 0 0 0-.068.038c-.824-2.004-2.058-3.326-4.225-2.58-2.274.782-2.341 2.545-1.735 4.617-.259.105-.302.665-.095 1.264.211.608.6 1.027.87.934a.266.266 0 0 0 .13-.102c.504.772 1.146 1.36 1.825 1.69.375.607 1.201 2.093.822 2.869-.483.99-2.529 2.243-2.529 2.243l-.619 1.128s4.573-1.116 5.721-1.51l.142-.051.142-.047c1.149-.396 5.438-2.33 5.438-2.33l-1.186-.506z"/>
        <path fill="#FFF" d="M8.422 19.851a9.086 9.086 0 0 0 2.43 1.884c.866.461 1.638-.85.77-1.312A7.824 7.824 0 0 1 9.5 18.777c-.663-.725-1.739.353-1.078 1.074M18.676 12.89l1.518 2.773c.47.86 1.788.093 1.317-.767l-1.518-2.774c-.47-.859-1.788-.092-1.317.768M31.486 6.66a22.158 22.158 0 0 0 1.585 4.98c.4.892 1.715.12 1.317-.767a20.545 20.545 0 0 1-1.43-4.617c-.182-.96-1.653-.553-1.472.404M44.127 5.7c.059 1.56-.117 3.069-.54 4.572-.264.943 1.207 1.346 1.472.404.457-1.627.657-3.288.593-4.977-.037-.975-1.562-.98-1.525 0M52.07 8.342l-.992 2.278c-.163.376-.111.815.274 1.04.322.188.878.106 1.043-.273l.991-2.278c.164-.376.112-.815-.273-1.04-.323-.188-.879-.106-1.043.273"/>
    </g>
</svg>
