<svg xmlns="http://www.w3.org/2000/svg" xmlns:xlink="http://www.w3.org/1999/xlink" width="312" height="262" viewBox="0 0 312 262">
    <defs>
        <path id="a" d="M0 .011h212.341v19.907H0z"/>
    </defs>
    <g fill="none" fill-rule="evenodd">
        <path d="M0 1h312v261H0z"/>
        <g opacity=".231" style="mix-blend-mode:luminosity">
            <path fill="#000" d="M195 240c-64.618 0-117-4.701-117-10.5S130.382 219 195 219c64.616 0 117 4.701 117 10.5S259.616 240 195 240" opacity=".083"/>
            <path fill="#D6D6D6" d="M76.69 136.504h234.942v-6.005H76.69z"/>
            <path fill="#595959" d="M85.797 231.623h3.523v-95.12h-3.523zM299.003 231.623h3.523v-95.12h-3.523z"/>
            <path fill="#D6D6D6" d="M137.694 114.559c0 14.497 10.336 15.07 10.336 15.07h-31.095s10.336-.573 10.336-15.07h10.423z"/>
            <path fill="#8F8F8F" d="M159.679 115.52h-54.393c-.822 0-1.49-.663-1.49-1.48V76.06c0-.816.668-1.479 1.49-1.479h54.393c.822 0 1.489.663 1.489 1.48v37.98c0 .816-.667 1.478-1.49 1.478"/>
            <path fill="#000" d="M158.43 113.565h-51.895a.671.671 0 0 1-.674-.669V77.204c0-.37.302-.669.674-.669h51.895c.372 0 .674.3.674.67v35.691c0 .37-.302.67-.674.67"/>
            <path fill="#8F8F8F" d="M116.935 130.514h31.095v-.884h-31.095z"/>
            <path fill="#595959" d="M276.184 130.499h-48.266v-21.404c0-.703.574-1.271 1.28-1.271h45.706c.707 0 1.28.568 1.28 1.271v21.404z"/>
            <path fill="#000" d="M231.486 113.832h41.13v-2.084h-41.13z"/>
            <path fill="#D6D6D6" d="M262.31 127.532h4.14v-1.935h-4.14z"/>
            <path fill="#FF7900" d="M267.585 126.565c0 .534.436.967.974.967a.97.97 0 0 0 .975-.967.97.97 0 0 0-.975-.968.971.971 0 0 0-.974.968"/>
            <path fill="#FFF" d="M270.668 126.565a.97.97 0 0 0 .974.967.97.97 0 0 0 .974-.967.97.97 0 0 0-.974-.968.97.97 0 0 0-.974.968"/>
            <path fill="#8F8F8F" d="M267.027 107.824h-29.951v-11.01c0-.604.494-1.094 1.102-1.094h27.747c.608 0 1.102.49 1.102 1.094v11.01z"/>
            <path fill="#595959" d="M155.634 231.623h-3.12c-.634 0-1.147-.51-1.147-1.138v-3.329c0-.629.513-1.138 1.147-1.138h3.12c.633 0 1.147.51 1.147 1.138v3.329c0 .629-.514 1.138-1.147 1.138"/>
            <path fill="#8F8F8F" d="M151.58 216.418h4.986V175.74h-4.985z"/>
            <path fill="#8F8F8F" d="M163.806 181.542h-19.464c-1.29 0-2.343-1.047-2.343-2.326 0-1.28 1.054-2.327 2.343-2.327h19.464a2.34 2.34 0 0 1 2.343 2.327 2.34 2.34 0 0 1-2.343 2.326"/>
            <path fill="#595959" d="M120.544 228.782c0 1.57-1.28 2.842-2.861 2.842a2.851 2.851 0 0 1-2.862-2.842 2.852 2.852 0 0 1 2.862-2.84 2.851 2.851 0 0 1 2.861 2.84M115.844 142.711h12.68c1.446 0 2.63-1.175 2.63-2.61 0-1.437-1.184-2.612-2.63-2.612h-12.68c-1.447 0-2.63 1.175-2.63 2.611 0 1.436 1.183 2.611 2.63 2.611M179.624 142.711h12.68c1.446 0 2.63-1.175 2.63-2.61 0-1.437-1.184-2.612-2.63-2.612h-12.68c-1.447 0-2.63 1.175-2.63 2.611 0 1.436 1.183 2.611 2.63 2.611"/>
            <path fill="#595959" d="M172.198 179.393H135.95c-7.603 0-13.767-6.119-13.767-13.667v-61.838c0-5.032 4.11-9.111 9.178-9.111h45.425c5.07 0 9.178 4.079 9.178 9.11v61.839c0 7.548-6.163 13.667-13.766 13.667"/>
            <path fill="#8F8F8F" d="M151.581 210.721l-33.898 14.464v2.478l33.898-11.245z"/>
            <path fill="#595959" d="M187.603 228.782a2.851 2.851 0 0 0 2.862 2.842 2.851 2.851 0 0 0 2.861-2.842 2.852 2.852 0 0 0-2.861-2.84 2.852 2.852 0 0 0-2.862 2.84"/>
            <path fill="#8F8F8F" d="M156.566 210.721l33.899 14.464v2.478l-33.899-11.245z"/>
            <path fill="#8F8F8F" d="M151.581 216.418l1.543 11.245h1.899l1.544-11.245z"/>
            <path fill="#000" d="M132.476 168.004c-.237 0-.428-.097-.428-.216v-63.34c0-.12.191-.217.428-.217s.429.096.429.216v63.341c0 .119-.192.216-.429.216M143.38 168.004c-.236 0-.428-.097-.428-.216v-63.34c0-.12.192-.217.429-.217.236 0 .428.096.428.216v63.341c0 .119-.192.216-.428.216M154.285 168.004c-.237 0-.428-.097-.428-.216v-63.34c0-.12.191-.217.428-.217s.428.096.428.216v63.341c0 .119-.191.216-.428.216M165.19 168.004c-.238 0-.43-.097-.43-.216v-63.34c0-.12.192-.217.43-.217.236 0 .428.096.428.216v63.341c0 .119-.192.216-.429.216M176.093 168.004c-.237 0-.428-.097-.428-.216v-63.34c0-.12.191-.217.428-.217s.428.096.428.216v63.341c0 .119-.191.216-.428.216"/>
            <g>
                <path fill="#D6D6D6" d="M.009 233.625h75.868V110.11H.01z"/>
                <path fill="#595959" d="M5.472 166.002h64.943v-48.087H5.472v48.087zm-.447.447h65.836v-48.981H5.025v48.981z"/>
                <path fill="#8F8F8F" d="M45.055 129.74H30.816c-.714 0-1.3-.586-1.3-1.302 0-.716.586-1.302 1.3-1.302h14.239c.715 0 1.3.586 1.3 1.302 0 .716-.585 1.302-1.3 1.302"/>
                <path fill="#595959" d="M5.472 222.071h64.943v-48.088H5.472v48.088zm-.447.447h65.836v-48.982H5.025v48.982z"/>
                <path fill="#8F8F8F" d="M45.055 185.809H30.816c-.714 0-1.3-.586-1.3-1.302 0-.716.586-1.302 1.3-1.302h14.239c.715 0 1.3.586 1.3 1.302 0 .716-.585 1.302-1.3 1.302"/>
                <path fill="#FF7900" d="M46.815 95.002v11.025c0 1.118.17 2.195.484 3.21.162.523.658.873 1.205.873h18.28c.547 0 1.042-.35 1.204-.874.315-1.014.485-2.091.485-3.209V95.002H46.815z"/>
                <path fill="#50BE87" d="M66.903 95.002c2.82-1.994 5.612-4.382 5.408-5.376-.21-1.017-3.462-.222-6.764 1.013 2.486-2.832 5.088-6.387 4.582-7.396-.513-1.02-3.964.996-7.033 3.275 1.727-3.671 3.56-8.608 2.703-9.449-.82-.807-3.71 2.572-5.98 5.84-.193-4.187-1-9.5-2.175-9.495-1.175-.005-1.982 5.308-2.175 9.495-2.27-3.268-5.16-6.647-5.981-5.84-.855.84.977 5.778 2.704 9.449-3.07-2.28-6.52-4.296-7.033-3.275-.506 1.01 2.095 4.564 4.582 7.396-3.302-1.235-6.555-2.03-6.764-1.013-.204.994 2.587 3.382 5.408 5.376h18.518z"/>
            </g>
        </g>
        <g transform="translate(54 241.903)">
            <mask id="b" fill="#fff">
                <use xlink:href="#a"/>
            </mask>
            <path fill="#D6D6D6" d="M212.342 9.965c0 5.497-47.535 9.953-106.171 9.953C47.534 19.918 0 15.462 0 9.965 0 4.467 47.534.01 106.17.01c58.637 0 106.172 4.456 106.172 9.954" mask="url(#b)"/>
        </g>
        <path fill="#BBE0D1" d="M114.941 178.24c4.613-2.705 11.353-8.43 16.226-10.636 3.082-1.395 4.2.573 7.346-.663-1.954-17.484-6.158-42.503-5.714-48.375l-17.125 2.684-29.84 31.704 18.42 32.526c3.596-2.362 6.968-5.059 10.687-7.24M182.69 126.85c-1.071 16.34-1.233 28.886-.807 38.594 10.243 7.055 21.232 12.864 32.326 18.5l2.754-49.62-27.997-15.186-8.269-.435c.645 2.72 2.177 5.357 1.994 8.147"/>
        <path fill="#BBE0D1" d="M179.475 191.727c-.308-2.942-.775-5.863-1.156-8.797-.906-6.977-1.643-13.989-2.081-21.011-.437-7.008-.459-14.038-.187-21.053.271-7.013.836-14.013 1.557-20.993.212-2.043.44-4.085.674-6.125l-20.772-9.814-9.81.648-14.187 8.003.474 2.629c1.534 8.557 3.012 17.127 4.172 25.744 1.165 8.655 2.004 17.361 2.263 26.094.224 7.535-.218 15.054-.296 22.586-.034 3.24-.121 6.493-.552 9.709a35.209 35.209 0 0 1-.526 3.025l3.632 18.528s30.995 1.764 39.506-2.31l-1.646-22.226c-.674-1.433-.9-3.055-1.065-4.637"/>
        <path fill="#FFF" d="M216.285 184.998l.678-50.674-4.356-2.601-8.21 47.139c3.935 2.091 7.907 4.121 11.888 6.136"/>
        <path fill="#010101" d="M170.537 61.283s5.203-22.368 1.487-28.562c-3.617-6.03-23.015-16.58-41.601.841-1.338 1.255-3.602 5.6-1.284 11.734l8.326 25.623 33.072-9.636z"/>
        <path fill="#62352E" d="M163.692 88.01s-.465 13.172 1.283 18.302c.284.833-3.034 7.361-4.38 12.11-.78 2.747-4.421 2.944-6.086.414l-10.35-14.14s2.82-11.971-2.794-28.731c0 0 12.634 21.781 22.327 12.044"/>
        <path fill="#725048" d="M169.423 48.034s7.99 34.585-10.22 46.286c0 0-10.534-.596-20.753-20.728 0 0-4.905 4.327-6.43-6.37-1.623-11.372 6.146-4.303 6.146-4.303s3.2-4.389 2.829-6.11c-.372-1.72-1.858-8.086-1.858-8.086s21.553-7.227 30.286-.689"/>
        <path fill="#808282" d="M139.78 61.096c-.112.864-.973 8.035 1.306 9.533 2.59 1.703 9.668 2.496 12.836.976 3.012-1.445 1.774-9.126 1.652-9.837-.517-.401-5.971-4.352-15.794-.672m8.875 11.592c-3.004-.082-6.178-.787-7.746-1.818-2.568-1.689-1.472-9.563-1.424-9.898l.012-.085.084-.032c5.494-2.077 9.61-1.774 12.096-1.153 2.705.675 4.087 1.83 4.144 1.88l.04.034.01.05c.064.35 1.536 8.596-1.81 10.2-1.328.637-3.326.879-5.406.822M159.694 61.943c-.042.75-.4 8.48 2.747 9.603 3.5 1.248 10.866.8 12.843-1.255 4.039-4.199.304-10.499-.095-11.141-9.68-1.916-14.97 2.343-15.495 2.793m7.077 10.57c-1.683-.047-3.273-.276-4.44-.692-3.505-1.25-2.967-9.6-2.943-9.955l.004-.056.042-.039c.055-.05 5.507-4.973 15.885-2.895l.065.013.035.053c.045.07 4.488 6.978.095 11.546-1.378 1.433-5.262 2.12-8.743 2.024"/>
        <path fill="#FFF" d="M139.639 60.991s-1.161 8.102 1.358 9.758c2.52 1.657 9.714 2.56 12.995.987 3.281-1.575 1.726-10.045 1.726-10.045s-5.52-4.692-16.08-.7M175.287 59.02s4.477 6.83.112 11.37c-2.067 2.15-9.574 2.52-13.012 1.294-3.44-1.226-2.844-9.808-2.844-9.808s5.33-4.942 15.744-2.856" opacity=".13"/>
        <path fill="#010101" d="M138.46 62.257c2.89-1.245 6.203-1.984 9.374-1.959 4.125.033 6.998 3.178 11.132 2.37 1.268-.248 1.9-1.02 3.088-1.61 4.695-2.334 10.605-1.645 15.555-.71 1.296.245 1.736-1.655.44-1.9-4.976-.94-10.422-1.5-15.3.212-1.14.4-2.236.922-3.212 1.608-.238.166-.488.49-.75.608-.65.293.941-.26.07-.15-1.993.253-2.916-.18-4.532-1.018-1.976-1.023-4.378-1.345-6.6-1.352-3.339-.01-6.873.747-9.915 2.057-1.19.512-.556 2.364.65 1.844"/>
        <path fill="#62352E" d="M178.02 58.516c-1.706-.323-3.467-.596-5.241-.751.023.61.051 1.223.081 1.837.518.689.904 1.47 1.148 2.288.906 3.054.689 6.426-.888 9.243-.01.185-.014.372-.026.558.981-.312 1.784-.721 2.276-1.233 3.338-3.47 1.506-8.279.46-10.35.593.096 1.179.2 1.75.308 1.296.245 1.736-1.656.44-1.9" opacity=".13"/>
        <path fill="#62352E" d="M161.168 105.858l-.06-.03c-.036-.366-.07-.746-.102-1.132l.162 1.162z"/>
        <path fill="#50BE87" d="M113.12 123.462s10.132 18.303 16.36 46.286l1.252 48.125 59.532-2.52-2.23-18.264a169.51 169.51 0 0 1 1.63-51.665l1.939-10.385c1.342-5.377 2.128-15.112-2.912-17.415l-22.406-10.236c-.775-.354-1.27.036-1.093.87 2.225 10.508-1.973 29.754-4.684 31.317-1.031.595-.325 8.697-.54 16.192-.027.903-1.346.95-1.437.052-.747-7.352-.412-15.48-1.34-16.022-6.033-3.52-13.847-31.51-14.659-33.08-.926-1.792-12.658 2.927-19.537 7.332-4.597 2.944-10.62 7.557-9.875 9.413"/>
        <path fill="#50BE87" d="M237.313 194.369c-9.75-3.787-35.804-.13-39.582 0-7.405.255-7.88-3.689-10.652-8.906l-53.64 1.793c-.979 4.892-3.124 15.795-15.126 13.66-6.993-1.245-33.884-12.494-43.805-9.186-9.922 3.307-19.028 24.6-11.812 32.6 59.52 65.993 170.977 13.628 177.23 5.024 6.498-8.944 14.24-28.439-2.613-34.985"/>
        <path fill="#FFF" d="M108.63 182.452l-18.674-33.44-6.83 6.181 20.015 31.004c1.879-1.175 3.684-2.46 5.49-3.745"/>
        <path fill="#FAB431" d="M183.136 155.547H168.86a1.728 1.728 0 0 1-1.728-1.728v-2.042c0-.954.774-1.728 1.728-1.728h14.276c.954 0 1.728.774 1.728 1.728v2.042c0 .954-.774 1.728-1.728 1.728"/>
        <path fill="#725048" d="M85.38 156.904s-8.944 6.544-8.072 30.756c.873 24.211 7.417 7.852 7.417 7.852s6.666-19.608 9.16-21.812c1.115-.984-5.67-16.142-8.506-16.796"/>
        <path fill="#D6D6D6" d="M216.048 179.031l2.815-40.06-1.9-4.647-7.002 47.448c.016.009.033.016.048.025 2.432 1.253 5.395-.108 6.04-2.766"/>
        <path fill="#725048" d="M231.105 72.167c-17.33-7.97-10.525 3.353-12.583 1.981-2.58-1.72-6.309-.43-6.022 9.751.108 3.852 5.787 7.459 6.675 8.087 1.747 6.732 2.793 29.364 3.238 39.025.65 14.113-6.114 8.866-6.114 8.866-.547 2.6-3.233 18.786-2.863 18.921 7.988 2.912 17.204 5.828 20.813 3.963 1.778-.918 3.252-2.361 4.082-4.182 5.643-12.392-5.196-48.255-9.202-60.475-.774-2.358-.609-4.933.517-7.145 2.879-5.664 6.377-16.53 1.46-18.792"/>
        <path fill="#725048" d="M215.402 78.259s3.613-26.484 7.718-23.838c3.602 2.32.494-.914-2.844 23.033 0 0-1.04 7.432-4.874.805M87.537 188.813c-1.313-.656-5.457-2.394-7.756-1.245-2.298 1.15-2.408-1.127-4.706.68-2.298 1.805-2.89-.145-4.038 1.99-1.15 2.134-2.2.636-3.022 1.949-.82 1.314-.656 8.537.165 10.179.82 1.641 3.776 6.238 4.76 7.059.986.82 1.807-1.806.986-4.105 0 0 1.477 4.597 3.119 4.105 1.641-.492.82-5.089.82-5.089s.493 3.448 2.627 3.119c2.135-.329.657-5.582.657-5.582s.657 4.943 2.627 4.104c2.199-.936-.019-5.335.54-8.566.487-2.82 1.645-5.437 1.645-5.437l2.996.744s-.107-3.248-1.42-3.905"/>
        <path fill="#62352E" d="M81.261 190.446s.1.396.16 1.128c.058.73.066 1.807-.215 3.096-.138.65-.366 1.31-.488 1.975a4.268 4.268 0 0 0-.07 1.009c.016.354.071.73.137 1.132a44.97 44.97 0 0 1 .591 5.33s-.562-1.194-1.192-3.497a32.623 32.623 0 0 1-.475-1.947 6.3 6.3 0 0 1-.134-1.227c-.001-.45.08-.916.207-1.352.262-.886.636-1.674.889-2.605a17.1 17.1 0 0 0 .59-3.042M76.082 190.98s.136.384.266 1.108c.125.72.234 1.793.076 3.103-.076.659-.242 1.338-.3 2.011-.03.34-.026.661.025 1.012.05.35.14.72.243 1.113.43 1.596.821 3.372 1.09 5.252 0 0-.671-1.137-1.516-3.37a33.148 33.148 0 0 1-.656-1.894 6.344 6.344 0 0 1-.25-1.209 4.916 4.916 0 0 1 .08-1.366c.178-.906.476-1.726.64-2.676.179-.944.294-1.973.302-3.085M72.322 191.974s.136.386.266 1.109c.125.72.234 1.793.076 3.103-.076.659-.241 1.338-.3 2.011-.03.34-.026.661.025 1.012.05.35.14.72.244 1.113.429 1.596.82 3.372 1.09 5.252 0 0-.672-1.137-1.517-3.37a33.674 33.674 0 0 1-.656-1.894 6.337 6.337 0 0 1-.249-1.209 4.913 4.913 0 0 1 .079-1.365c.178-.906.475-1.727.64-2.677.179-.944.295-1.972.302-3.085"/>
        <path fill="#50BE87" d="M158.108 121.522c-.08 0-.162-.002-.244-.007-1.587-.096-4.843-.797-9.854-7.758a116.98 116.98 0 0 1-4.687-7.054l.462-2.293c.04-.204.332-.246.44-.063 3.86 6.552 10.903 12.874 13.372 13.024 1.707.095 6.128-4.158 7.338-11.697.025-.16.244-.212.345-.08l1.44 1.88c-.49 3.466-3.193 14.048-8.612 14.048"/>
        <path fill="#50BE87" d="M161.545 136.981h-3.948l-4.798-18.373 9.595.371z"/>
        <path fill="#FAB431" d="M159.444 177.218l-5.803-34.881c-6.799-3.468-15.92-31.86-16.901-35.064l3.607-.96c.614-.203 3.172.174 3.354.754 3.823 12.219 11.133 31.306 15.44 32.513l.653.182.087 2.098.028-2.207.436-.258c.052-.033 7.39-5.544 6.239-31.824-.016-.35.365-.6.715-.465l4.382 1.052c1.218 24.714-5.542 32.16-7.19 33.607l-3.138 35.43-1.91.023z"/>
        <path fill="#725048" d="M104.805 249.956c-3.214-1.651-5.797-3.75-8.571-6.005-.57-.463-1.17-.952-1.795-1.434l-4.985-2.2a8.174 8.174 0 0 0-5.024-.516c-2.57.554-6.257 1.267-6.997.972-1.158-.464-6.023-.927-5.791 2.084.232 3.012 4.401 3.012 4.401 3.012s-3.938.463-2.548 3.011c.93 1.706 2.48 1.75 3.406 1.593-.785.28-1.772.895-.858 2.113.865 1.153 2.176 1.14 3.045.967-.841.32-1.85.923-.96 1.813.783.784 2.008.757 2.928.585-.67.337-1.213.979-.412 2.193.471.714 1.981.911 2.93.099.102-.087 4.863-.015 9.544-.582 4.933-.596 9.796-1.832 9.796-1.832l18.64-.792c-5.8-.779-11.439-2.353-16.749-5.081M221.25 240.772c-.74.296-4.43-.416-6.998-.97a8.175 8.175 0 0 0-5.025.515s-23.378 11.034-28.308 12.242a90.554 90.554 0 0 1-9.207 1.737l-.995.468 25.05 1.065s4.865 1.236 9.797 1.832c4.682.567 9.442.495 9.544.581.949.813 2.459.615 2.93-.098.802-1.214.259-1.856-.412-2.192.92.171 2.145.197 2.928-.586.89-.89-.119-1.494-.96-1.814.869.174 2.18.187 3.045-.965.914-1.22-.073-1.834-.858-2.114.926.156 2.476.113 3.406-1.593 1.39-2.548-2.548-3.011-2.548-3.011s4.17 0 4.401-3.012c.232-3.011-4.632-2.548-5.79-2.085"/>
        <path fill="#010101" d="M149.201 55.692c1.938-.037 3.522-.395 5.378-.676-.01 1.26-2.165 2.192-3.1 2.587-.318.134-.669.188-1.017.153-1.387-.135-4.64-.483-6.392-.603-.7-.048-1.157-.06-1.171-.008.435-1.625 4.406-1.417 6.302-1.453M167.62 55.66c1.531.196 2.6.13 2.31 1.703.052-.262-3.771.222-4.065.222-.512.002-.902-.06-1.193-.18-.87-.355-.895-1.204-.765-2.325-.106.979 1.26.282 3.714.58"/>
        <path fill="#DFB3A8" d="M145.788 67.066l-.006-.006.013.005z"/>
        <path fill="#010101" d="M148.213 61.4c1.347-.89 3.06-1.058 4.268-.418.756.4 1.973 1.478 1.655 4.19l-1.266-.124c.179-1.522-.19-2.608-1.03-3.055-.777-.41-1.935-.27-2.88.356-.988.653-1.442 1.644-1.212 2.647l-1.25.24c-.333-1.47.306-2.9 1.715-3.835M164.291 62.301c1.206-.798 2.743-.947 3.825-.374.677.36 1.77 1.324 1.483 3.755l-1.134-.11c.161-1.366-.17-2.34-.923-2.739-.695-.368-1.736-.243-2.58.318-.886.587-1.295 1.475-1.088 2.374l-1.12.215c-.3-1.317.274-2.6 1.537-3.439"/>
        <path fill="#010101" d="M149.681 61.76c.864.04 1.528.737 1.475 1.558-.053.815-.797 1.445-1.66 1.408-.866-.04-1.53-.733-1.47-1.555.045-.818.792-1.45 1.655-1.411M165.745 62.834c.805.058 1.393.675 1.324 1.375-.072.7-.782 1.216-1.584 1.157-.805-.06-1.395-.677-1.32-1.376.071-.7.782-1.218 1.58-1.156"/>
        <path fill="#62352E" d="M158.053 65.365c.765 1.384.824 3.068 1.505 4.513.224.472.64.872 1.074 1.24.573.492 1.177.928 1.386 1.42 1.309 3.022-3.04 2.713-4.413 1.103-1.035-1.216-2.463-8.249.448-8.276"/>
        <path fill="#F2DED5" d="M153.957 67.212l-.14-.032c.078.017.166.032.252.042a.859.859 0 0 1-.112-.01"/>
        <path fill="#62352E" d="M136.065 64.728c.198 1.729.432 3.48.562 5.213-1.888 1.474-1.986-2-1.86-4.176l1.298-1.037zM152.34 78.59a.568.568 0 0 0-.408.185c-.511.53-1.69 2.004-.67 2.562.56.308 1.078-.279.902-.722l.053-.135c.045-.1.1-.198.156-.292.098-.163.212-.312.337-.456-.34-.267-.463-.72-.37-1.142M165.913 77.88a.775.775 0 0 0-.403-.154c.377.476.355 1.193-.066 1.586.025.101.036.208.028.325-.024.315.306.584.63.584a.62.62 0 0 0 .63-.584c.05-.66-.26-1.341-.819-1.756M155.888 83.735c2.004.888 4.345.652 6.255-.323.711-.363.076-1.372-.636-1.008-1.49.76-3.4 1.024-4.982.323-.73-.323-1.369.683-.637 1.008"/>
        <path fill="#50BE87" d="M194.937 129.067l2.462 1.606c1.036.675 1.997-.982.968-1.654l-2.463-1.606c-1.036-.675-1.996.982-.967 1.654M201.492 132.552l2.47 1.313c1.089.579 2.057-1.074.967-1.654l-2.47-1.313c-1.088-.579-2.057 1.074-.967 1.654M207.982 135.613l1.105.505c.455.208 1.053.145 1.31-.344.223-.42.144-1.087-.343-1.31-.368-.168-.737-.336-1.104-.505-.455-.208-1.053-.144-1.31.344-.223.42-.144 1.088.342 1.31M193.838 137.803c.687.094 1.273.346 1.768.838.873.871 2.228-.483 1.354-1.354-.707-.705-1.62-1.195-2.613-1.331-.512-.07-1.028.123-1.178.668-.123.447.153 1.108.669 1.179M200.616 141.377l2.523 1.198c.466.22 1.033.129 1.31-.344.244-.417.126-1.088-.344-1.31l-2.522-1.197c-.467-.222-1.034-.13-1.31.343-.244.417-.126 1.087.343 1.31M207.209 144.494l1.087.543c.447.224 1.058.135 1.31-.342.23-.435.135-1.072-.344-1.311l-1.086-.544c-.448-.224-1.059-.134-1.311.344-.23.434-.135 1.07.344 1.31M191.47 144.708l1.88.863c.47.215 1.031.134 1.31-.343.241-.413.13-1.094-.343-1.31l-1.88-.863c-.47-.216-1.033-.134-1.311.343-.242.412-.13 1.094.343 1.31M198.5 148.864l1.903 1.087c1.072.612 2.038-1.042.967-1.653l-1.903-1.088c-1.072-.612-2.038 1.042-.967 1.654M205.01 152.144l1.09.813c.402.301 1.086.079 1.31-.343.265-.502.086-.99-.345-1.31l-1.088-.814c-.403-.3-1.087-.08-1.31.344-.265.501-.087.989.343 1.31M190.098 151.807l1.62.836c.46.238 1.04.12 1.31-.343.252-.43.118-1.073-.343-1.31l-1.62-.837c-.46-.237-1.04-.12-1.31.344-.251.429-.118 1.072.343 1.31M195.444 155c.761.302 1.46.756 2.065 1.306.91.828 2.268-.522 1.354-1.354a9.413 9.413 0 0 0-2.91-1.8c-.48-.19-1.05.21-1.178.67-.15.544.187.986.67 1.178M200.919 158.42l2.456 1.615c1.033.68 1.993-.978.967-1.653l-2.456-1.617c-1.033-.679-1.994.978-.967 1.654M189.279 158.619l1.64 1.074c.432.283 1.058.086 1.31-.344.272-.467.09-1.026-.343-1.31l-1.64-1.074c-.433-.283-1.06-.087-1.31.344-.274.466-.091 1.025.343 1.31M194.965 162.457l2.446 1.089c.472.21 1.03.136 1.31-.344.24-.408.132-1.099-.343-1.31l-2.446-1.088c-.472-.21-1.03-.137-1.31.343-.24.408-.132 1.1.343 1.31M201.227 165.702l2.202 1.313c1.06.633 2.025-1.022.966-1.654l-2.201-1.313c-1.061-.633-2.025 1.022-.967 1.654M187.9 165.171l1.36.816c.43.258 1.07.11 1.31-.344.244-.463.115-1.035-.344-1.31l-1.359-.815c-.43-.258-1.07-.11-1.31.343-.245.464-.115 1.035.343 1.31M193.055 168.18l1.63.817c.463.23 1.038.123 1.31-.344.249-.425.122-1.078-.343-1.31l-1.63-.816c-.463-.23-1.038-.123-1.31.344-.249.424-.121 1.078.343 1.31M199.58 171.708l1.634 1.081c.432.286 1.06.086 1.31-.343.274-.469.089-1.024-.343-1.31l-1.634-1.082c-.432-.286-1.06-.085-1.311.344-.274.468-.089 1.023.344 1.31M112.603 129.808l-1.629 1.09c-.43.287-.616.844-.343 1.31.249.426.878.632 1.31.343l1.63-1.09c.428-.287.615-.844.342-1.31-.25-.426-.878-.632-1.31-.343M106.921 135.01l-1.917 1.339c-.423.296-.62.837-.343 1.31.245.419.884.641 1.31.344l1.917-1.34c.423-.296.619-.838.343-1.31-.245-.42-.884-.642-1.31-.344M100.938 141.264a5.375 5.375 0 0 0-2.007 1.932c-.269.442-.097 1.053.344 1.311a.973.973 0 0 0 1.31-.344c.328-.54.738-.928 1.32-1.245.453-.249.598-.873.343-1.31-.268-.459-.855-.593-1.31-.344M96.648 146.272l-2.99 2.446c-.954.78.408 2.13 1.355 1.354l2.99-2.446c.954-.781-.408-2.129-1.355-1.354M97.077 156.955c.302-.4.769-.785 1.255-1.061.45-.256.603-.868.344-1.311a.972.972 0 0 0-1.31-.343c-.779.443-1.406 1.038-1.943 1.748-.312.413-.065 1.071.344 1.31.49.288.998.072 1.31-.343M102.253 152.068a5.836 5.836 0 0 1 1.824-1.82c1.039-.657.08-2.314-.967-1.653a8.015 8.015 0 0 0-2.511 2.506c-.662 1.044.994 2.006 1.654.967M108.05 146.802l1.946-2.135c.829-.91-.522-2.267-1.355-1.354l-1.946 2.135c-.829.909.522 2.267 1.354 1.354M113.429 141.592l1.73-2.093c.329-.399.39-.964 0-1.354-.34-.34-1.024-.4-1.355 0l-1.73 2.093c-.329.397-.39.963 0 1.354.34.339 1.024.4 1.355 0M100.945 164.165l1.653-1.883c.341-.388.383-.972 0-1.354-.348-.348-1.011-.39-1.354 0l-1.653 1.883c-.342.388-.383.971 0 1.354.347.348 1.01.39 1.354 0M106.118 158.466l1.606-1.923c.332-.396.39-.965 0-1.354-.34-.34-1.021-.399-1.354 0l-1.606 1.923c-.332.396-.39.965 0 1.354.34.341 1.02.399 1.354 0M112.287 152.326l.816-1.087c.302-.402.078-1.087-.343-1.31-.504-.266-.989-.086-1.31.344l-.816 1.087c-.302.402-.079 1.087.343 1.31.503.265.989.086 1.31-.344M116.227 148.184l1.112-1.062c.363-.346.375-1.01 0-1.354-.39-.358-.967-.37-1.355 0l-1.111 1.062c-.363.346-.375 1.01 0 1.354.39.357.966.37 1.354 0M119.174 144.607l.535-.552c.349-.36.385-1 0-1.353-.377-.347-.982-.385-1.355 0l-.535.551c-.35.36-.385 1.001 0 1.354.378.347.982.384 1.355 0M105.327 170.04a4.012 4.012 0 0 1 1.096-1.762c.892-.855-.464-2.207-1.354-1.355a5.992 5.992 0 0 0-1.589 2.608c-.358 1.181 1.49 1.687 1.847.509M108.943 164.88c.864-.504 1.456-1.256 1.832-2.174.19-.464-.206-1.072-.67-1.177-.556-.127-.973.17-1.177.668.048-.117-.026.045-.047.085a3.346 3.346 0 0 1-.232.375c.073-.098-.038.044-.066.075-.098.11-.204.213-.317.308.075-.063-.008.009-.04.03a4.375 4.375 0 0 1-.25.157.973.973 0 0 0-.343 1.31.97.97 0 0 0 1.31.344M114.566 160.11l2.193-1.882c.392-.336.346-1.007 0-1.353-.39-.39-.96-.338-1.354 0l-2.193 1.88c-.394.337-.347 1.008 0 1.354.389.39.96.338 1.354 0M120.014 154.687l1.613-1.38c.393-.336.346-1.008 0-1.354-.39-.39-.96-.338-1.354 0l-1.613 1.38c-.393.337-.346 1.009 0 1.354.39.39.96.338 1.354 0M123.432 151.239l.543-.816c.279-.417.096-1.078-.343-1.31-.482-.254-1.013-.102-1.31.344l-.544.815c-.278.419-.095 1.079.344 1.31.481.255 1.012.103 1.31-.343M108.333 176.168c.633-.635 1.268-1.269 1.902-1.903.873-.873-.481-2.228-1.354-1.354l-1.903 1.903c-.872.872.481 2.226 1.355 1.354M113.702 170.022c-.055.14.024-.049.037-.075.036-.07.074-.14.115-.206.011-.018.141-.212.087-.137-.048.066.107-.125.105-.123a2.789 2.789 0 0 1 .303-.286l.079-.053c.082-.047.16-.098.244-.143.455-.246.599-.875.344-1.31-.269-.46-.854-.591-1.31-.344-.88.476-1.49 1.246-1.851 2.168-.183.467.2 1.071.669 1.178.55.125.982-.17 1.178-.67M118.23 165.347l1.11-1.614c.294-.426.08-1.063-.343-1.311-.475-.277-1.016-.083-1.31.344l-1.111 1.614c-.294.426-.08 1.063.343 1.31.475.279 1.016.084 1.31-.343M122.867 160.2c.3-.677.687-1.192 1.26-1.664.399-.329.34-1.013 0-1.354-.396-.395-.954-.33-1.355 0a5.632 5.632 0 0 0-1.559 2.051c-.209.472-.138 1.029.344 1.31.407.239 1.1.132 1.31-.343M111.177 179.657l1.863-1.15c1.047-.647.086-2.304-.966-1.654l-1.864 1.151c-1.046.646-.086 2.304.967 1.653M117.302 173.993l1.088-1.087c.354-.355.38-1.004 0-1.354-.383-.352-.976-.379-1.355 0l-1.087 1.087c-.355.354-.381 1.004 0 1.354.382.35.976.378 1.354 0M122.264 169.511c.712-.537 1.306-1.164 1.75-1.942a.974.974 0 0 0-.343-1.31c-.445-.26-1.054-.107-1.311.344a3.941 3.941 0 0 1-.764.99c-.065.062-.13.121-.199.18-.014.012-.166.135-.1.084-.411.311-.625.827-.342 1.31.237.406.895.658 1.31.344M126.643 164.794l.559-.805c.286-.412.09-1.08-.344-1.31-.489-.257-1.004-.097-1.31.344l-.56.805c-.286.412-.089 1.081.345 1.31.488.259 1.004.097 1.31-.344"/>
        <path fill="#FCD182" d="M139.788 108.83c-.259.908-.12 1.91.456 2.694.405.551 1.23.85 1.886.459.593-.354.929-1.157.495-1.747-.045-.062-.233-.44-.127-.16-.039-.1-.058-.205-.093-.305.086.244.015.024.008-.08.01-.15.005-.142-.018.024a1.93 1.93 0 0 1 .053-.206c.184-.645-.232-1.416-.963-1.57-.723-.153-1.499.2-1.697.891M141.937 116.657l.375 1.702c.146.655 1.02 1.094 1.697.891.749-.225 1.118-.868.962-1.57l-.376-1.701c-.145-.656-1.02-1.095-1.696-.892-.75.225-1.118.868-.962 1.57M144.339 124.094l1.095 2.047c.33.618 1.275.789 1.886.458.68-.368.827-1.127.495-1.747l-1.095-2.046c-.33-.618-1.276-.79-1.887-.458-.68.368-.826 1.126-.494 1.746M147.069 130.428l1.103 1.702c.37.573 1.255.835 1.887.458.62-.371.891-1.134.493-1.746l-1.102-1.703c-.371-.573-1.256-.835-1.886-.458-.622.37-.892 1.134-.495 1.747M150.095 135.868c.375 1.046 1.075 1.888 2.067 2.495.603.369 1.552.129 1.886-.458.365-.64.15-1.353-.494-1.747a5.129 5.129 0 0 1-.19-.12c.229.153.019.002-.027-.037a3.235 3.235 0 0 1-.162-.15c-.042-.042-.209-.237-.041-.027a3.245 3.245 0 0 1-.248-.356c-.017-.03-.159-.293-.08-.133.077.155-.05-.141-.052-.145-.227-.633-.962-1.112-1.696-.892-.68.204-1.206.892-.963 1.57M154.917 142.1l1.838 1.021c.62.344 1.541.147 1.887-.457a1.248 1.248 0 0 0-.495-1.747l-1.838-1.022c-.62-.344-1.542-.147-1.887.458a1.249 1.249 0 0 0 .495 1.747M161.59 141.75c.245-.34 2.05-1.604 2.295-1.944"/>
        <path fill="#FCD182" d="M162.781 142.395c-.029.036-.275.265-.106.138.033-.025.063-.06.094-.087.088-.082.182-.158.276-.235.246-.203.5-.398.75-.595.464-.363.922-.709 1.28-1.166.44-.557.104-1.423-.494-1.747-.697-.377-1.447-.101-1.886.459.029-.038.275-.265.106-.139-.034.025-.063.06-.094.087a6.02 6.02 0 0 1-.276.235c-.246.203-.5.398-.75.595-.464.363-.922.709-1.28 1.166-.44.558-.103 1.423.494 1.747.697.378 1.447.101 1.886-.458M166.685 135.977l.735-1.702c.27-.622-.292-1.43-.962-1.571-.797-.168-1.408.226-1.696.891l-.735 1.703c-.269.622.292 1.43.962 1.57.797.169 1.409-.225 1.696-.891M169.442 128.476c.041.244.013-.221.023-.28-.035.225.045-.095.063-.147-.069.203.068-.12.083-.148.092-.125.097-.14.019-.045a2.29 2.29 0 0 1 .185-.18 1.228 1.228 0 0 0 0-1.806c-.531-.492-1.416-.485-1.949 0-.97.883-1.29 2.065-1.083 3.285.112.662 1.043 1.087 1.696.892.777-.233 1.083-.861.963-1.57M169.845 120.957c-.034-.137-.034-.104 0 .101a1.323 1.323 0 0 1-.01-.162c-.026-.237-.083.264-.007.018.01-.04.021-.08.036-.117.033-.092.013-.054-.06.116-.043-.006.364-.444.027-.078.467-.508.579-1.314 0-1.806-.514-.436-1.45-.542-1.95 0-.678.738-.959 1.655-.695 2.607.18.647.996 1.101 1.695.892.722-.217 1.156-.878.964-1.571M170.46 114.95v-2.043c0-.668-.635-1.308-1.38-1.276-.747.03-1.378.56-1.378 1.276v2.043c0 .668.634 1.308 1.378 1.277.747-.031 1.38-.561 1.38-1.277M170.032 108.534l-.37-.68c-.324-.599-1.287-.816-1.886-.459-.66.394-.841 1.107-.495 1.747l.37.68c.324.599 1.287.816 1.886.458.66-.394.842-1.107.495-1.746M158.094 144.913v2.043c0 .668.635 1.308 1.38 1.277.746-.031 1.378-.561 1.378-1.277v-2.043c0-.668-.635-1.308-1.379-1.277-.747.032-1.379.561-1.379 1.277M158.094 151.947v1.703c0 .668.635 1.308 1.38 1.276.746-.03 1.378-.56 1.378-1.276v-1.703c0-.668-.635-1.308-1.379-1.277-.747.031-1.379.561-1.379 1.277M158.094 158.24v2.384c0 1.643 2.758 1.646 2.758 0v-2.383c0-1.643-2.758-1.646-2.758 0M158.483 165.319v1.702c0 .668.634 1.308 1.378 1.277.748-.032 1.38-.562 1.38-1.277v-1.702c0-.669-.635-1.308-1.38-1.277-.747.03-1.378.561-1.378 1.277M158.483 170.79v2.383c0 1.644 2.757 1.647 2.757 0v-2.383c0-1.643-2.757-1.646-2.757 0"/>
        <path fill="#010101" d="M129.8 38.212v.305c0 .611.538 1.196 1.168 1.168.633-.028 1.167-.513 1.167-1.168v-.305c0-.61-.536-1.195-1.167-1.167-.633.028-1.168.512-1.168 1.167M130.835 41.876l.438 1.387c.184.582.82 1.015 1.437.816.583-.19 1.012-.813.815-1.437l-.439-1.387c-.183-.581-.82-1.015-1.436-.815-.583.189-1.013.812-.815 1.436"/>
        <path fill="#FCD182" d="M130.362 189.577c.455.225.909.452 1.363.678.598.297 1.41.18 1.747-.458.305-.578.18-1.43-.458-1.747-.454-.227-.909-.452-1.364-.678-.597-.297-1.41-.18-1.746.458-.305.578-.18 1.429.458 1.747M136.784 191.815h1.703c.668 0 1.308-.587 1.276-1.277-.03-.691-.56-1.277-1.276-1.277h-1.703c-.668 0-1.308.587-1.276 1.277.03.692.56 1.277 1.276 1.277M143.253 192.156h3.405c1.643 0 1.646-2.554 0-2.554h-3.405c-1.643 0-1.646 2.554 0 2.554M152.446 192.496h1.703c.668 0 1.308-.587 1.277-1.277-.031-.691-.561-1.277-1.277-1.277h-1.703c-.668 0-1.308.588-1.276 1.277.03.692.56 1.277 1.276 1.277M161.306 191.743c1.151.22 2.322.175 3.418-.264.64-.256 1.09-.852.892-1.57-.167-.608-.927-1.15-1.57-.892-.666.267-1.348.4-2.061.264-.677-.13-1.378.19-1.57.891-.172.624.21 1.44.89 1.57M169.81 191.082l2.042-.342c.66-.11 1.089-.961.892-1.57-.231-.714-.863-1.011-1.571-.892l-2.043.342c-.66.11-1.088.961-.891 1.57.23.714.862 1.01 1.57.892M175.223 189.938l1.361-.68c.6-.3.815-1.194.458-1.748-.394-.612-1.106-.778-1.746-.457l-1.362.68c-.599.3-.815 1.194-.458 1.748.395.612 1.106.778 1.747.457M181.362 188.257l1.363-.678c.6-.298.815-1.194.458-1.747-.395-.613-1.105-.777-1.746-.458l-1.364.678c-.6.298-.814 1.194-.458 1.747.396.613 1.105.777 1.747.458M185.778 186.193l.68-.34c.6-.3.816-1.194.458-1.747-.394-.613-1.106-.779-1.746-.458l-.681.34c-.599.3-.815 1.194-.458 1.747.395.612 1.107.778 1.747.458M63.58 221.437c1.643 0 1.646-2.553 0-2.553-1.644 0-1.647 2.553 0 2.553M70.718 219.992l2.384-.68c.663-.188 1.075-.901.892-1.57-.182-.663-.905-1.08-1.571-.891-.795.225-1.59.452-2.384.678-.663.189-1.076.902-.892 1.57.182.663.905 1.082 1.57.893M77.88 219.395h3.405c1.643 0 1.646-2.554 0-2.554H77.88c-1.643 0-1.646 2.554 0 2.554M88.763 220.457c1.362.222 2.726.442 4.088.663.68.11 1.374-.176 1.571-.891.167-.61-.207-1.46-.892-1.57l-4.088-.664c-.68-.11-1.374.176-1.57.892-.168.609.206 1.46.89 1.57M103.774 222.654a9.239 9.239 0 0 0 4.75 1.408c1.644.037 1.644-2.516 0-2.554-1.26-.029-2.396-.39-3.46-1.059-1.396-.877-2.68 1.332-1.29 2.205M112.978 225.024a11.619 11.619 0 0 0 4.06 1.461c.681.106 1.374-.173 1.571-.891.167-.606-.206-1.464-.891-1.571a9.703 9.703 0 0 1-3.451-1.204c-1.423-.83-2.71 1.377-1.29 2.205M124.193 228.185c1.534.53 3.138.779 4.76.754 1.642-.026 1.647-2.58 0-2.554-1.413.022-2.746-.2-4.081-.662-1.556-.538-2.225 1.927-.679 2.462M137.464 230.298l4.773.637c.689.092 1.27-.652 1.277-1.277.007-.765-.596-1.185-1.277-1.276l-4.773-.637c-.69-.092-1.27.652-1.277 1.277-.008.765.596 1.185 1.277 1.276M154.495 231.577c1.508.208 2.964.159 4.439-.245 1.583-.434.911-2.898-.68-2.463-1.001.275-2.044.388-3.08.246-.682-.094-1.37.165-1.57.892-.164.596.203 1.475.89 1.57M166.051 231.546l2.736-.627c.673-.154 1.069-.926.892-1.57-.19-.69-.896-1.047-1.57-.892l-2.737.627c-.672.154-1.069.927-.891 1.57.19.69.896 1.047 1.57.892M175.615 229.969l5.435-1.414c1.59-.413.916-2.876-.679-2.462l-5.434 1.413c-1.59.413-.916 2.877.678 2.463M186.498 227.537l3.042-.771c1.592-.404.917-2.867-.68-2.463l-3.04.772c-1.592.404-.918 2.867.678 2.462M196.676 225.045l2.442-.857c.65-.228 1.083-.873.891-1.57-.173-.631-.917-1.122-1.57-.892-.814.286-1.628.57-2.441.857-.651.228-1.084.873-.892 1.57.173.631.917 1.121 1.57.892M206.21 222.63l2.068-.966c.625-.292.783-1.19.458-1.747-.375-.64-1.12-.75-1.747-.458l-2.068.966c-.626.292-.784 1.191-.459 1.747.375.64 1.12.75 1.747.458M214.732 218.906l2.74-1.329c.62-.3.787-1.185.458-1.746-.37-.634-1.124-.76-1.747-.458l-2.74 1.328c-.62.3-.787 1.185-.458 1.747.37.634 1.124.76 1.747.458M225.607 213.417l2.045-1.018c.617-.307.79-1.18.458-1.747-.368-.629-1.128-.766-1.747-.458l-2.045 1.018c-.617.308-.79 1.18-.458 1.747.368.628 1.128.766 1.747.458M233.425 210.666c.44-.209.964-.248 1.416-.152.674.144 1.38-.2 1.57-.892.175-.635-.213-1.426-.891-1.57-1.183-.252-2.295-.107-3.384.41-.623.295-.785 1.188-.458 1.746.373.638 1.12.754 1.747.458M240.303 211.214c.073-.024.146-.043.22-.057-.152.019-.152.024 0 .015.151.01.151.005 0-.013a1.825 1.825 0 0 1 .23.057c.067.036.132.074.194.118-.207-.148.11.142.15.192.417.525 1.375.469 1.805 0 .512-.557.446-1.245 0-1.806-.756-.95-2.132-1.309-3.277-.968-.64.19-1.108.905-.892 1.57.21.648.884 1.096 1.57.892M243.871 213.518l.68.681c.473.474 1.34.508 1.806 0 .468-.51.504-1.3 0-1.805l-.68-.682c-.473-.474-1.34-.508-1.806 0-.468.51-.504 1.3 0 1.806"/>
        <path fill="#010101" d="M63.968 216.698c1.643 0 1.647-2.554 0-2.554-1.643 0-1.646 2.554 0 2.554M130.245 194.768c19.136 4.865 39.498 3.526 57.805-3.89 1.503-.61.846-3.081-.68-2.463-17.903 7.254-37.718 8.652-56.447 3.89-1.593-.405-2.272 2.057-.678 2.463M69.295 215.086c.15-.109.303-.208.47-.293.188-.097-.014-.023.208-.076.135-.032.267-.077.405-.092-.17.02.3.012.351.015.668.032 1.307-.61 1.277-1.277-.032-.719-.561-1.243-1.277-1.277a4.344 4.344 0 0 0-2.723.795c-.558.405-.83 1.11-.458 1.748.322.55 1.185.864 1.747.457M75.837 213.947h2.384c1.643 0 1.646-2.554 0-2.554h-2.384c-1.643 0-1.646 2.554 0 2.554M82.644 213.933l2.72.366c.683.091 1.371-.164 1.57-.892.164-.594-.203-1.478-.891-1.57l-2.72-.367c-.683-.092-1.371.164-1.571.892-.163.595.204 1.478.892 1.57M91.505 215.3c.925-.141 1.854-.05 2.752.191 1.588.429 2.266-2.034.679-2.462-1.367-.369-2.717-.404-4.11-.191-.682.105-1.059.962-.891 1.57.2.73.886.997 1.57.892M99.756 216.324c.757.868 1.876 1.13 2.975.966.663-.1 1.087-.969.892-1.57-.234-.724-.86-.999-1.57-.892.465-.07-.395-.003.072.002-.036 0-.408-.098-.238-.048a1.941 1.941 0 0 1-.208-.123c.246.152-.06-.075-.117-.14-.44-.506-1.36-.485-1.806 0-.494.538-.469 1.265 0 1.805M108.863 219.36l4.088.67c.68.11 1.375-.178 1.57-.893.168-.61-.206-1.458-.891-1.57l-4.088-.67c-.68-.11-1.374.178-1.57.893-.168.61.207 1.458.891 1.57M118.433 221.266c1.137.702 2.384 1.072 3.712 1.176.687.054 1.276-.626 1.276-1.277 0-.736-.586-1.223-1.276-1.277-.876-.068-1.68-.368-2.424-.826-1.402-.867-2.686 1.342-1.288 2.204M127.605 224.057l3.72.8c1.602.344 2.287-2.116.678-2.462l-3.72-.8c-1.602-.345-2.287 2.116-.678 2.462M136.106 226.22a8.666 8.666 0 0 1 3.41.256c1.584.447 2.26-2.016.679-2.462a10.567 10.567 0 0 0-4.09-.347c-.685.078-1.276.53-1.276 1.277 0 .628.587 1.355 1.277 1.277M148.701 226.885h3.405c1.643 0 1.646-2.553 0-2.553h-3.405c-1.643 0-1.646 2.553 0 2.553M160.284 226.938l3.395-.42c.685-.084 1.277-.526 1.277-1.276 0-.625-.588-1.363-1.277-1.277l-3.395.42c-.684.084-1.276.526-1.276 1.276 0 .625.587 1.362 1.276 1.277M171.474 225.683c.725-.423 1.577-.656 2.422-.535.682.099 1.372-.168 1.571-.892.165-.6-.205-1.471-.892-1.57-1.55-.223-3.025-.004-4.39.792-1.42.827-.136 3.035 1.289 2.205M180.712 224.139l4.088-1.011c1.594-.395.92-2.858-.679-2.463l-4.088 1.012c-1.595.394-.92 2.857.679 2.462M191.545 220.543c.81-.425 1.62-.85 2.429-1.277.61-.32.795-1.17.458-1.746-.362-.619-1.135-.78-1.747-.458l-2.428 1.276c-.61.321-.796 1.17-.459 1.747.362.618 1.135.78 1.747.458M198.704 217.493l2.75-1.308c.623-.296.785-1.188.458-1.746-.373-.638-1.122-.756-1.747-.459l-2.75 1.308c-.622.296-.785 1.188-.458 1.747.373.637 1.122.755 1.747.458M206.231 215.232l3.044-1.08c.65-.23 1.084-.871.892-1.57-.173-.63-.918-1.124-1.57-.893l-3.045 1.08c-.65.231-1.083.872-.891 1.571.173.629.917 1.123 1.57.892M215.05 211.716a10.209 10.209 0 0 1 3.114-1.544c1.573-.464.903-2.929-.679-2.463a12.32 12.32 0 0 0-3.724 1.802c-.56.402-.83 1.112-.458 1.748.323.552 1.184.862 1.747.457M224.24 207.616l2.769-1.265c.626-.287.78-1.194.457-1.747-.377-.644-1.117-.746-1.747-.458l-2.768 1.265c-.627.287-.781 1.194-.458 1.747.377.644 1.118.745 1.747.458M231.44 205.435h2.723c1.644 0 1.646-2.554 0-2.554h-2.724c-1.643 0-1.646 2.554 0 2.554M239.548 206.134c.1-.094.082-.083-.057.033.121-.067.098-.063-.072.013.054-.02.11-.036.168-.049-.181.018-.222.024-.123.019.323-.019-.187-.072.051-.005.132.044.111.032-.063-.034.117.073.103.055-.043-.052.516.423 1.307.544 1.806 0 .429-.467.552-1.354 0-1.805-1.034-.845-2.484-.893-3.473.075-.478.467-.504 1.342 0 1.805.515.472 1.296.5 1.806 0M243.765 207.933l1.686 1.048c.568.353 1.431.14 1.747-.459.33-.625.149-1.369-.458-1.746l-1.686-1.048c-.568-.353-1.43-.14-1.746.458-.331.626-.149 1.37.457 1.747M86.893 154.567c.11.078.086.06-.07-.056.04.034.079.07.116.106.028.027.262.268.108.108-.145-.15.048.086.075.133.026.046.05.092.072.14-.074-.186-.087-.214-.039-.086.23.625.876 1.116 1.571.892.613-.199 1.138-.9.892-1.57a3.81 3.81 0 0 0-1.436-1.872c-.547-.387-1.444-.116-1.747.458-.347.656-.126 1.334.458 1.747M89.079 157.438c.366.963 1.052 1.665 2.04 1.984.637.205 1.423-.24 1.572-.892.16-.7-.211-1.351-.892-1.57-.165-.054.056.023.095.05-.049-.034-.113-.056-.166-.086-.043-.026-.083-.055-.125-.081-.116-.07.222.214.056.034-.033-.036-.07-.072-.103-.107-.131-.134.066.049.06.082-.002.014-.259-.575-.075-.093-.121-.318-.282-.585-.587-.763-.273-.16-.677-.228-.984-.128-.606.196-1.146.902-.891 1.57M92.418 162.678c.115 1.059.586 1.89 1.46 2.509.547.387 1.444.116 1.747-.458.346-.657.125-1.334-.458-1.747.296.21.002-.017-.061-.074-.09-.103-.077-.083.04.063a2.163 2.163 0 0 1-.171-.29c.07.176.082.2.035.07-.021-.09-.08-.464-.038-.073-.038-.349-.117-.646-.374-.903-.222-.222-.585-.388-.903-.374-.63.028-1.354.565-1.277 1.277M95.322 168.957l.847 1.111c.21.276.415.491.763.587.306.084.713.046.984-.129.524-.337.89-1.178.458-1.747l-.847-1.11c-.21-.277-.414-.491-.763-.588-.306-.084-.713-.046-.984.13-.523.336-.891 1.178-.458 1.746M98.196 173.653l1.111 2.518c.279.631 1.2.778 1.747.458.65-.38.737-1.114.458-1.747l-1.11-2.518c-.28-.631-1.2-.778-1.748-.458-.65.38-.738 1.114-.458 1.747M100.748 180.057l.802 1.417c.33.581 1.174.828 1.748.458.587-.379.81-1.124.458-1.747l-.804-1.417c-.329-.581-1.172-.829-1.746-.458-.588.379-.81 1.125-.458 1.747M102.916 185.684l.555.842c.367.557 1.145.846 1.747.458.556-.358.85-1.15.458-1.747l-.555-.841c-.367-.557-1.146-.846-1.747-.458-.555.358-.851 1.15-.458 1.746M213.558 134.915l-.28.558c-.3.596-.178 1.411.458 1.747.579.306 1.427.18 1.747-.458l.28-.559c.299-.596.178-1.41-.458-1.746-.58-.307-1.427-.18-1.747.458M211.733 139.764v1.397c0 .669.588 1.308 1.277 1.277.692-.03 1.277-.56 1.277-1.277v-1.397c0-.668-.587-1.308-1.277-1.277-.691.031-1.277.562-1.277 1.277M211.454 145.912v1.117c0 .668.587 1.308 1.277 1.277.692-.03 1.277-.56 1.277-1.277v-1.117c0-.668-.588-1.308-1.277-1.277-.692.031-1.277.561-1.277 1.277M210.92 152.126c.015.055.03.112.039.168-.023-.196-.03-.223-.022-.08v.087c-.011.142-.007.114.014-.082a2.138 2.138 0 0 0-.07.25c.076-.17.083-.193.02-.07-.028.051-.06.1-.093.147-.377.553-.123 1.44.458 1.746.647.343 1.345.133 1.747-.457.47-.692.58-1.589.369-2.388-.171-.646-.92-1.103-1.57-.892-.665.215-1.075.88-.893 1.57M209.219 158.766v1.397c0 .668.587 1.308 1.277 1.277.691-.03 1.276-.56 1.276-1.277v-1.397c0-.668-.587-1.308-1.276-1.277-.692.031-1.277.561-1.277 1.277M208.375 165.194c.016.132.03.264.032.398.002.067-.014.426-.006.361a2.996 2.996 0 0 1-.063.288c-.013.046-.141.425-.07.26-.263.612-.203 1.398.458 1.747.549.29 1.465.197 1.746-.458.356-.829.565-1.689.457-2.596-.078-.661-.531-1.31-1.277-1.277-.624.028-1.36.566-1.277 1.277M207.7 170.964c-.463.705-.568 1.577-.373 2.388.156.65.93 1.099 1.57.891.676-.218 1.06-.874.892-1.57-.065-.272-.021.235-.01-.023a1.7 1.7 0 0 1 .003-.184c-.029.172-.033.21-.015.112.011-.037.082-.345.03-.154-.047.175.076-.122.107-.17.368-.56.13-1.437-.457-1.748-.639-.337-1.355-.14-1.748.458M206.493 177.12c-.572.637-.847 1.54-.554 2.373.223.628.883 1.114 1.571.892.62-.2 1.13-.896.892-1.571a.706.706 0 0 1-.035-.108c-.025-.099-.02-.047.013.152a.934.934 0 0 1-.003-.113c.004-.102-.004-.052-.025.15l.017-.074c.043-.13.027-.098-.047.092l.037-.066c.075-.112.055-.085-.06.078.445-.497.526-1.322 0-1.806-.487-.447-1.33-.53-1.806 0M168.122 156.271a91.99 91.99 0 0 0 15.65.146c1.629-.123 1.642-2.678 0-2.554a91.99 91.99 0 0 1-15.65-.146c-1.635-.154-1.624 2.4 0 2.554"/>
        <path fill="#62352E" d="M216.68 74.82c2.644-1.008 5.59-.424 7.638 1.562.427.413.997.949 1.143 1.52.417 1.635-.674 1.79-1.71 1.741-1.567-.074-3.326-.738-4.856-1.077-.694-.154-1.131.785-.492 1.167 2.31 1.38 3.707 3.48 4.152 6.117.137.809 1.367.466 1.231-.339-.502-2.971-2.16-5.341-4.739-6.88l-.491 1.166c1.618.36 3.235.726 4.856 1.077.797.173 1.831.526 2.65.208 1.544-.598 1.22-2.37.643-3.563-1.813-3.757-6.565-5.379-10.363-3.93-.76.29-.431 1.525.339 1.231M152.402 80.33c2.683-.023 5.364-.122 8.04-.332 1.94-.153 3.877-.238 5.612-1.196.33-.18.036-.686-.294-.504-2.106 1.162-4.75 1.096-7.102 1.241-2.084.129-4.17.19-6.256.207-.376.003-.376.587 0 .583"/>
        <path fill="#404041" d="M129.482 37.337a.924.924 0 0 1-.056.593c-.134.285-.08.63.21.798.253.148.664.077.798-.21.226-.48.29-.971.173-1.491-.069-.308-.424-.49-.718-.408-.317.087-.477.41-.407.718M129.62 42.07l.29.742c.113.294.391.497.717.408.281-.077.523-.423.408-.719l-.288-.741c-.115-.294-.392-.498-.718-.408-.28.077-.523.423-.408.718M131.102 46.207l.43 1.04c.121.29.388.499.719.408.275-.076.529-.426.408-.718l-.431-1.04c-.12-.291-.387-.499-.718-.408-.275.076-.53.425-.408.718M132.894 51.52l.595 1.476c.118.292.389.498.718.408.277-.076.526-.424.407-.718l-.594-1.477c-.118-.292-.39-.498-.718-.407-.278.076-.526.423-.408.718M135.03 57.269l.441.74c.385.645 1.395.058 1.009-.59-.147-.246-.295-.493-.441-.74-.385-.645-1.395-.058-1.009.59M138.767 57.867v-.295c0-.752-1.167-.753-1.167 0v.295c0 .752 1.167.753 1.167 0M137.817 53.73l-.241-1.192c-.063-.31-.43-.487-.718-.408-.322.089-.47.408-.408.718l.241 1.193c.062.31.43.488.718.408.322-.088.47-.408.408-.718M136.53 47.368l-.296-.887c-.1-.299-.402-.494-.718-.408-.292.08-.507.418-.407.719l.295.886c.1.299.402.495.718.408.292-.08.508-.418.408-.718M134.728 40.871l-.28-1.48c-.06-.31-.433-.487-.719-.408-.325.09-.467.407-.408.718l.281 1.48c.059.31.432.487.718.408.325-.09.467-.407.408-.718M134.15 35.557l.15-.591c.182-.729-.944-1.04-1.127-.31l-.148.59c-.184.73.943 1.04 1.125.31M137.446 29.138l-.296.148c-.282.14-.361.539-.21.798.169.287.516.352.799.21l.296-.148c.282-.14.36-.54.209-.799-.168-.287-.515-.35-.798-.209M136.713 32.893v1.183c0 .75 1.168.752 1.168 0v-1.183c0-.751-1.168-.753-1.168 0M137.313 38.075l.433 1.924c.164.733 1.29.423 1.125-.31l-.432-1.924c-.164-.733-1.29-.423-1.126.31M138.546 42.944c.078.535.275 1.049.563 1.506.399.635 1.41.05 1.007-.59-.24-.382-.379-.778-.444-1.226-.046-.312-.441-.484-.718-.408-.335.092-.453.405-.408.718M142.617 46.63c.751 0 .753-1.168 0-1.168-.752 0-.753 1.167 0 1.167M144.028 42.941l-.265-1.483c-.055-.31-.434-.485-.718-.408-.327.09-.463.407-.408.719l.265 1.482c.055.311.434.487.718.409.328-.09.464-.407.408-.719M142.291 37.024l-.277-.893c-.222-.715-1.35-.41-1.126.31l.278.893c.221.716 1.348.41 1.125-.31M141.723 32.598v-.887c0-.751-1.168-.752-1.168 0v.887c0 .751 1.168.752 1.168 0M142.905 29.051v-.148c0-.75-1.167-.752-1.167 0v.148c0 .751 1.167.753 1.167 0M146.156 27.472l.295-.148c.281-.141.36-.54.21-.799-.169-.287-.517-.351-.8-.21l-.295.149c-.282.141-.36.539-.21.799.168.286.517.351.8.21M145.837 29.025l-.377 1.203c-.225.719.901 1.026 1.126.31l.377-1.202c.226-.719-.901-1.026-1.126-.31M145.292 33.042c-.069.75-.013 1.49.144 2.227.158.734 1.283.423 1.126-.31a6.351 6.351 0 0 1-.103-1.917c.07-.748-1.099-.744-1.167 0M146.264 38.797l.734 1.48c.335.672 1.342.082 1.009-.59l-.734-1.48c-.335-.673-1.342-.082-1.01.59M147.865 42.654l1.027 1.336c.191.25.502.383.798.21.246-.144.403-.548.21-.8l-1.027-1.336c-.191-.25-.502-.382-.798-.21-.246.145-.403.548-.21.8M153.398 44.13l-.296-.295c-.532-.532-1.358.294-.826.826.1.098.197.197.296.296.532.531 1.358-.294.826-.826M152.212 41.156l-.33-1.173c-.202-.722-1.329-.415-1.125.311l.33 1.173c.202.722 1.328.415 1.125-.31M151.374 37.191a2.932 2.932 0 0 1-.319-1.195c-.037-.748-1.204-.753-1.167 0 .031.631.19 1.222.478 1.785.342.669 1.35.079 1.008-.59M150.737 33.337v-1.035c0-.751-1.167-.752-1.167 0v1.035c0 .75 1.167.752 1.167 0M150.835 27.856a3.364 3.364 0 0 1-.268-1.02c-.03-.313-.246-.583-.583-.583-.292 0-.616.268-.585.583.057.568.196 1.088.427 1.61.128.288.549.356.8.209.296-.174.337-.51.209-.799M152.232 25.93c.114-.026.16-.014.293.07.266.17.644.055.798-.21a.594.594 0 0 0-.209-.798 1.543 1.543 0 0 0-1.192-.189c-.308.07-.488.425-.408.719.087.316.41.478.718.408M153.926 27.43c.173.279.244.557.231.883-.012.315.277.583.584.583a.593.593 0 0 0 .584-.583 2.605 2.605 0 0 0-.39-1.472c-.396-.638-1.406-.052-1.009.589M154.77 31.717l.278 1.924c.046.31.442.485.719.407.335-.093.453-.403.408-.718l-.28-1.923c-.044-.311-.44-.485-.717-.408-.335.094-.453.404-.408.718M155.31 37.33c.06.49.118.982.179 1.473.037.313.24.584.583.584.286 0 .622-.269.584-.584l-.179-1.474c-.037-.312-.241-.584-.583-.584-.286 0-.622.27-.584.584M155.929 41.918c.056.303.017.597-.075.888-.23.717.898 1.025 1.126.31.158-.496.17-1 .075-1.508-.058-.31-.433-.487-.718-.408-.326.09-.465.407-.408.718M146.311 45.742c.751 0 .753-1.167 0-1.167-.751 0-.753 1.167 0 1.167M135.967 43.526c.751 0 .753-1.168 0-1.168-.751 0-.753 1.168 0 1.168M131.774 34.02l.296-.295c.532-.532-.294-1.358-.826-.825l-.295.295c-.532.532.293 1.358.825.826M160.852 44.86l.443-.59c.19-.253.041-.653-.21-.799-.297-.175-.607-.043-.797.21l-.445.59c-.19.253-.04.653.21.8.299.174.609.043.799-.21M161.662 40.864a2.705 2.705 0 0 1 .113-1.174c.218-.72-.908-1.028-1.126-.31-.18.593-.2 1.185-.112 1.794.045.312.441.484.718.408.335-.092.453-.405.407-.718M161.335 36.437l-.278-1.334c-.064-.309-.428-.487-.718-.408-.32.089-.472.409-.408.718l.278 1.334c.064.309.428.488.718.408.32-.088.472-.409.408-.718M160.645 31.995l-.154-1.033c-.047-.313-.44-.484-.718-.408-.334.092-.455.405-.408.718l.154 1.033c.046.312.44.485.718.408.334-.091.455-.405.408-.718M159.37 27.43l-.296-.443c-.174-.262-.515-.375-.798-.21-.26.153-.385.536-.21.8l.296.443c.174.262.515.375.799.21.26-.153.385-.536.209-.8M158.133 25.497c.752 0 .753-1.167 0-1.167-.751 0-.753 1.167 0 1.167M162.27 27.561c.074.002.085-.001.034-.01a.433.433 0 0 1 .049.015c-.07-.066.039.076-.002.01.398.635 1.408.05 1.008-.59-.235-.375-.637-.616-1.089-.592-.315.016-.584.256-.584.583 0 .304.268.6.584.584M163.481 29.945l.296.887c.1.299.402.494.718.408.292-.08.508-.418.408-.719l-.296-.886c-.1-.3-.402-.495-.718-.408-.292.08-.508.418-.408.718M164.519 33.787l.165.883c.058.31.433.486.718.408.326-.09.467-.408.408-.718l-.165-.884c-.058-.31-.433-.486-.718-.407-.325.089-.466.407-.408.718M164.79 37.77v1.182c0 .751 1.168.752 1.168 0V37.77c0-.751-1.167-.753-1.167 0M164.655 42.508a.83.83 0 0 1-.133.615c-.194.249-.243.583 0 .826.201.201.631.25.825 0 .404-.52.559-1.1.433-1.751-.06-.31-.43-.487-.717-.408-.325.089-.468.408-.408.718M167.56 46.162l.591-.739c.197-.245.24-.585 0-.825-.204-.204-.627-.248-.825 0l-.591.74c-.197.245-.24.584 0 .824.204.204.627.248.825 0M168.766 42.942v-.887c0-.751-1.168-.752-1.168 0v.887c0 .751 1.168.753 1.168 0M169.504 37.917v-1.33c0-.75-1.167-.752-1.167 0v1.33c0 .752 1.167.753 1.167 0M169.325 33.333l-.436-1.185c-.108-.295-.396-.496-.718-.408-.285.079-.517.422-.408.719l.436 1.185c.11.295.396.496.718.407.285-.078.517-.42.408-.718M167.584 29.347v-.148c0-.751-1.168-.753-1.168 0v.148c0 .75 1.168.752 1.168 0M170.338 32.745l.296.59c.14.282.539.362.798.21.287-.168.351-.515.21-.799-.1-.197-.197-.394-.296-.59-.14-.283-.54-.362-.799-.21-.287.168-.35.516-.21.799M170.86 36.892l.18 1.326c.042.312.443.483.718.407.337-.093.45-.404.408-.718l-.18-1.326c-.043-.312-.444-.483-.719-.407-.337.092-.45.404-.407.718M171.302 41.77c.058.305 0 .594-.114.879-.117.292.127.64.407.717.333.092.601-.113.718-.407.193-.482.212-.995.115-1.5-.06-.31-.432-.486-.718-.407-.325.089-.467.407-.408.718M170.933 45.9a2.986 2.986 0 0 0-.388 1.327c-.019.315.282.584.584.584.332 0 .565-.268.584-.584a1.67 1.67 0 0 1 .229-.737c.373-.653-.635-1.242-1.01-.59M170.85 50.33v1.035c0 .751 1.167.753 1.167 0v-1.034c0-.751-1.168-.753-1.168 0"/>
        <path stroke="#000" d="M45 1.864h122.92l-2.882 12L180.239 1h86.074"/>
    </g>
</svg>
