<svg xmlns="http://www.w3.org/2000/svg" xmlns:xlink="http://www.w3.org/1999/xlink" width="54" height="54" viewBox="0 0 54 54">
    <defs>
        <circle id="a" cx="25" cy="25" r="25"/>
        <path id="c" d="M0 .004h14.191V11.14H0z"/>
        <path id="e" d="M.03.157h21.827v23.058H.03z"/>
        <path id="g" d="M.222.285H10.72v2.087H.222z"/>
    </defs>
    <g fill="none" fill-rule="evenodd">
        <circle cx="25" cy="25" r="25" fill="#FFF" transform="translate(2 2)"/>
        <g transform="translate(2 2)">
            <mask id="b" fill="#fff">
                <use xlink:href="#a"/>
            </mask>
            <circle cx="25" cy="25" r="26" stroke="#FAFAFA" stroke-width="2"/>
            <g mask="url(#b)">
                <path fill="#EEEEEA" d="M26.753 199.738c-17.368 0-31.447-2.621-31.447-5.854 0-3.232 14.08-5.853 31.447-5.853 17.367 0 31.446 2.62 31.446 5.853 0 3.233-14.08 5.854-31.446 5.854"/>
                <path fill="#725048" d="M54.704 48.292S65.73 52.452 71.9 52.26c9.173-.286 14.772-2.155 14.772-2.155s2.19-6.322 4.045-7.545c1.856-1.223 2.811-2.37 3.5-3.12.689-.75.873 1.714-.47 3.043-1.342 1.328-1.666 1.248-1.127 2.963.538 1.715 5.603 2.22 6.529 2.054.925-.166 6.5-1.777 7.245-.198.746 1.579-5.144 1.616-5.144 1.616l-4.206 4.155s-7.786.059-8.51.98c-.723.92-10.856 10.504-26.691 8.076-3.02-.463-12.576-5.088-13.304-7.074-.728-1.985 4.52-6.566 6.164-6.763"/>
                <path fill="#BFBFBF" d="M39.67 66.544a3.839 3.839 0 0 1-.761-.543 1.047 1.047 0 0 0-.664-.304c-1.63-1.837-2.58-4.431-3.527-6.62a42.921 42.921 0 0 1-2.355-7.096c-1.07-4.49-1.498-9.096-1.882-13.686 15.03-.16 30.9 11.471 30.9 11.471l-9.268 9.578-9.79-4.68c-3.25-1.508-4.103-.833-4.084 2.664l1.43 9.216z"/>
                <path fill="#F1F2F2" d="M53.91 61.195c-.788-.28-1.603-.495-2.395-.766-.103-.036-.404-.177-.554-.24a2.351 2.351 0 0 0-.208-.371.92.92 0 0 1 .192-.55l8.143-10.152c.497-.663 1.242-.647 1.941-.26.746.414 1.117.582 1.793 1.053.666.464.832 1.343.39 2.061-1.244 2.023-5.798 8.416-7.685 9.858a30.6 30.6 0 0 0-1.617-.633"/>
                <path fill="#D6D6D6" d="M62.76 51.182l-.728.7c-.183.176-.515.124-.657-.04-.167-.196-.095-.446.089-.622l.729-.7c.182-.176.515-.124.656.04.168.197.095.446-.088.622M61.669 53.131l-.867 1.329c-.136.209-.47.244-.656.12-.216-.143-.22-.402-.084-.61l.867-1.33c.136-.208.47-.244.657-.12.215.143.22.402.083.611M59.678 55.852c-.187.4-2.477 3.226-2.847 3.498-.489.362-1.058-.3-.568-.662.242-.178 2.431-2.862 2.554-3.126.248-.53 1.11-.242.861.29"/>
                <path fill="#4F4F51" d="M38.97 39.865l-.24.864c-.065.234-.262.425-.532.405-.229-.017-.46-.239-.395-.474l.24-.864c.064-.233.261-.425.531-.404.229.017.46.238.395.473M38.462 42.823c.066.416 0 .85-.184 1.25-.245.532-1.107.244-.86-.29.122-.265.157-.525.113-.8-.088-.554.843-.714.931-.16M38.326 45.343l.054 1.496c.02.56-.911.725-.931.16l-.053-1.497c-.02-.56.91-.725.93-.16M38.553 48.769c-.01.446-.02.893-.032 1.34-.005.237-.303.42-.531.404-.276-.02-.4-.235-.395-.474l.032-1.34c.006-.237.303-.42.531-.404.276.02.401.235.395.474M38.807 51.688c-.021.294.067.556.215.8.12.201-.045.493-.26.589-.258.113-.488-.004-.61-.205-.228-.378-.303-.808-.271-1.253.017-.237.295-.422.53-.404.267.02.413.235.396.473"/>
                <path fill="#725048" d="M9.232 182.058l-1.1 8.755h5.907l-.96-9.66zM31.746 186.637l1.373-4.679-.824-5.132h6.044l-.55 4.529 3.16 6.037-5.495.755z"/>
                <path fill="#000" d="M39.23 182.367s1.813 5.182 6.542 6.758c4.729 1.577 4.446 1.526 4.662 2.728.217 1.201-.021 1.502-.021 1.502s-5.424 2.012-10.318-.527c-3.769-1.955-5.14-1.794-6.61-1.897-.727-.05-2.469.222-2.38-1.433.084-1.54.082-4.197 1.269-5.78l4.097 2.178s-1.143-1.727-.82-2.478c.322-.75 1.56-1.426 3.58-1.051M13.886 187.854s-.242-2.221-1.095-2.71c-.594-.338-2.248-.155-3.203-.01-.423.063-.765.341-.866.71-.117.427-.28 1.016-.421 1.522-.26.922-2.869 4.392-3.615 4.988-.746.597-1.043 2.592-.356 3.129 1.505 1.174 6.296 1.182 9.452-.336 0 0 .574-1.546.529-2.63-.046-1.085.097-.885.102-1.265.006-.38.566-1.475-.527-3.398"/>
                <path fill="#5A5A5A" d="M45.488 194.822c2.639 0 5.038-.887 5.174-.938.333-.125.492-.464.354-.756-.137-.292-.52-.428-.852-.303-.04.015-4.061 1.494-7.029.499-1.654-.555-2.746-1.046-3.624-1.44-.839-.378-1.502-.676-2.252-.842-.56-.124-1.367-.198-2.222-.277-1.05-.097-2.807-.258-3.15-.531a.718.718 0 0 0-.924.047.53.53 0 0 0 .042.814c.61.484 1.932.637 3.88.817.808.074 1.57.144 2.04.248.61.135 1.185.393 1.981.752.905.407 2.031.913 3.751 1.49.912.306 1.887.42 2.831.42"/>
                <path fill="#BFBFBF" d="M15.45 72.514c.188-.252.356-.517.477-.803.102-.243.27-.442.484-.547.75-2.338.572-5.095.555-7.48a42.905 42.905 0 0 0-.71-7.444c-.833-4.538-2.3-8.926-3.803-13.28-13.515 4.475-23.225 23.612-23.225 23.612L.09 71.712l7.677-8.41c2.365-2.691 3.877-3.005 5.271.203l2.412 9.01z"/>
                <path fill="#BFBFBF" d="M13.504 91.336c6.8-.117 22.037-1.038 28.728-2.025l-4.365-31.646c-.232-.248-1.092-.616-1.315-.872a24.524 24.524 0 0 1-3.394-5.018c-.968-1.921-1.554-3.939-2.114-5.984-.365-1.332-.776-2.66-1.116-3.997-.278-1.093-.306-2.227-.562-3.32-1.162.504-2.092.242-2.092.242s-2.405.14-3.782.655c-.61.228-4.25 1.411-6.865 1.378a21.41 21.41 0 0 0-.624.345c-.326.387-.69.96-.69.96a23.969 23.969 0 0 1-.993-.037l-.336.174c1.774 5.142-.48 49.145-.48 49.145"/>
                <path fill="#50BE87" d="M21.966 54.154l-6.567-12.72a89.857 89.857 0 0 1-4.112 2.111l.816 21.045.763 15.915s11.226 7.026 12.802-.163c.806-3.678-3.702-26.188-3.702-26.188M27.211 38.545l.828 3.83 2.125 13.386s4.454 21.723 5.911 23.978c2.866 4.44 6.288-2.06 6.288-2.06l-3.18-17.555-7.803-22.13-4.169.55z"/>
                <path fill="#FFF" d="M17.08 43.686l.54-4.398s.883-.11 1.09.186c.206.296 5.006-.046 5.006-.046s2.691-2.407 3.247-1.808 1.27 6.585 1.27 6.585l1.21 8.67-3.422-4.039-1.74.305s-2.173 5.534-2.38 5.238c-.206-.296-4.821-10.693-4.821-10.693"/>
                <path fill="#62352E" d="M26.652 30.98s.109 7.24.207 10.27c.026.786-1.99 6.828-1.99 6.828l-6.461-4.371s-.803-7.64-2.026-12.104c0 0 8.836 4.888 10.27-.622"/>
                <g transform="translate(-12.667 64.222)">
                    <mask id="d" fill="#fff">
                        <use xlink:href="#c"/>
                    </mask>
                    <path fill="#F1F2F2" d="M11.86 9.909c.607-.575 1.266-1.1 1.881-1.668.08-.074.299-.324.41-.444 0-.145.016-.285.04-.422a.92.92 0 0 0-.397-.426L3.316.185C2.593-.22 1.918.095 1.435.732c-.516.68-.788.982-1.216 1.686-.422.694-.219 1.565.475 2.044 1.955 1.348 7.633 6.12 9.942 6.678.396-.42.802-.832 1.224-1.231" mask="url(#d)"/>
                </g>
                <path fill="#62352E" d="M15.55 22.206c.153-.834-.626-1.655-1.538-1.809-.22-.037-.458-.04-.655.055-.26.125-.396.39-.494.642-.572 1.474-.459 3.093-.197 4.638.101.6.251 1.241.745 1.647.182.149.433.26.667.196.14-.04.251-.136.353-.233.42-.403.77-.868 1.03-1.371M29.827 26.506c.35-.6.872-1.115 1.499-1.481.13-.076.272-.147.425-.144a.691.691 0 0 1 .364.135c.425.287.645.778.675 1.26.032.483-.103.961-.271 1.42a10.731 10.731 0 0 1-2.282 3.667c-.22.233-.46.463-.77.58-.31.118-.71.093-.934-.135-.242-.247-.206-.623-.154-.95"/>
                <g transform="translate(14.317 5.807)">
                    <mask id="f" fill="#fff">
                        <use xlink:href="#e"/>
                    </mask>
                    <path fill="#020202" d="M.03 18.154C.756 14.655 3.374 3.62 3.925 2.764 4.877 1.284 7.418-.93 14.3.772c7.025 1.738 7.733 5.838 7.528 7.272-.084.588-4.432 12.192-6.097 15.17a86.402 86.402 0 0 0-11.906-2.888" mask="url(#f)"/>
                </g>
                <path fill="#725048" d="M17.767 37.074c.574.756 1.878 1.192 2.834.898 4.017-1.234 8.875-7.825 9.046-8.405.557-1.886 1.812-8.994 1.369-10.355-.443-1.361-10.54-4.71-12.619-3.39 0 0-3.968 7.672-4.15 9.177-.243 2.03 1.449 9.344 3.52 12.075"/>
                <path fill="#62352E" d="M20.917 24.431l.087-.101c.057-.066.143-.16.24-.288a7.51 7.51 0 0 0 .732-1.09c.263-.468.509-1.042.684-1.684.09-.32.153-.66.2-1.009.024-.175.035-.352.05-.533.008-.18.013-.357-.043-.529 0 0 .027.032.066.103.039.07.084.182.118.331.061.296.125.736.073 1.278a4.568 4.568 0 0 1-.575 1.817 4.819 4.819 0 0 1-1.632 1.705"/>
                <path fill="#848484" d="M15.478 18.525c-.18.365-1.625 3.387-.813 4.332.924 1.076 4.017 2.327 5.677 2.068 1.578-.247 2.148-3.76 2.198-4.088-.176-.243-2.069-2.665-7.062-2.312m4.394 6.57c-1.763 0-4.463-1.152-5.324-2.154-.916-1.067.742-4.37.813-4.51l.018-.036.043-.003c2.797-.206 4.62.454 5.657 1.043 1.127.641 1.583 1.323 1.602 1.352l.014.02-.004.023c-.022.161-.57 3.955-2.324 4.229a3.23 3.23 0 0 1-.495.035M24.384 21.44c-.13.325-1.43 3.656-.17 4.549 1.405.993 4.81 1.739 6.01 1.093 2.447-1.317 1.685-4.547 1.598-4.88-4.11-2.077-7.132-.891-7.438-.761m4.547 6.01c-1.57 0-3.75-.606-4.807-1.355-1.407-.995.068-4.577.131-4.729l.01-.024.026-.012c.032-.015 3.232-1.47 7.631.766l.028.014.008.028c.01.036 1.008 3.625-1.658 5.06-.327.176-.809.253-1.37.253"/>
                <path fill="#FFF" d="M15.428 18.46s-1.72 3.393-.822 4.439c.899 1.046 4.029 2.361 5.749 2.093 1.72-.269 2.262-4.17 2.262-4.17s-1.812-2.757-7.189-2.362M31.886 22.156s1.024 3.558-1.624 4.984c-1.255.676-4.714-.122-6.093-1.098-1.378-.975.156-4.65.156-4.65s3.145-1.48 7.561.764"/>
                <path fill="#020202" d="M14.707 18.863c1.494-.175 3.106-.074 4.54.342 1.866.542 2.706 2.284 4.7 2.46.61.053 1.011-.204 1.638-.31 2.473-.42 5.052.637 7.159 1.678.551.273 1.03-.501.48-.774-2.119-1.047-4.506-1.988-6.972-1.863-.575.03-1.149.117-1.693.292-.132.042-.294.152-.43.17-.337.045.466.007.054-.057-.94-.144-1.296-.451-1.905-1.024-.745-.7-1.788-1.148-2.795-1.435-1.512-.431-3.226-.552-4.8-.369-.614.072-.6.963.024.89"/>
                <path fill="#62352E" d="M33.2 22.285a25.225 25.225 0 0 0-2.266-.998c-.08.27-.157.541-.234.813.134.368.194.758.183 1.147-.039 1.451-.634 2.897-1.764 3.927l-.094.24c.49-.01.915-.087 1.214-.247 2.025-1.09 1.903-3.426 1.733-4.466.255.118.505.239.748.359.552.273 1.032-.502.48-.775"/>
                <path fill="#000" d="M28.412 42.588v.173c0 .227.218.444.474.433.257-.01.475-.19.475-.433v-.173c0-.227-.219-.444-.475-.433-.257.01-.474.19-.474.433M29.171 45.533v1.04c0 .557.95.558.95 0v-1.04c0-.557-.95-.558-.95 0M29.708 49.348l.221 1.556c.033.234.194.43.475.433.23.002.507-.201.475-.433l-.221-1.556c-.034-.233-.195-.43-.475-.432-.231-.003-.508.2-.475.432M30.317 52.926l.396 2.597c.083.55.998.315.915-.23l-.395-2.597c-.083-.55-.999-.316-.916.23M31.287 58.813l.19.693c.06.22.344.373.584.302.25-.073.396-.297.332-.532l-.19-.693c-.06-.22-.344-.374-.584-.303-.25.074-.396.297-.332.533M32.666 62.269l.36 1.563c.124.545 1.04.315.915-.23l-.359-1.564c-.125-.545-1.04-.314-.916.23M33.602 66.196c.15.315.17.656.121.992-.034.233.242.434.475.434.284 0 .44-.2.475-.434.072-.498-.034-.973-.25-1.43-.103-.214-.448-.263-.65-.155-.243.13-.273.377-.17.593M34.544 69.721l.358 1.391c.14.543 1.055.313.915-.23l-.357-1.391c-.14-.542-1.055-.313-.916.23M35.452 73.715l.525 1.572c.177.532 1.094.305.915-.23l-.524-1.572c-.178-.532-1.095-.305-.916.23M36.594 77.353l.38 1.039c.192.526 1.11.301.915-.23l-.38-1.04c-.192-.526-1.109-.3-.915.23M38.067 79.9c.457.088.921.03 1.319-.202.216-.126.303-.385.17-.593a.507.507 0 0 0-.65-.155.833.833 0 0 1-.587.115c-.25-.048-.513.067-.584.303a.434.434 0 0 0 .332.532M40.52 78.824l.57-.346c.205-.126.314-.388.17-.593-.133-.187-.429-.29-.65-.155l-.57.346c-.206.126-.315.388-.17.593.133.188.429.29.65.155M41.42 76.978h.19c.248 0 .485-.2.474-.434a.463.463 0 0 0-.475-.432h-.19c-.248 0-.486.199-.475.432a.464.464 0 0 0 .475.434M14.012 42.698l.401 1.033c.086.22.324.367.584.302.234-.058.418-.311.332-.533l-.401-1.032a.494.494 0 0 0-.584-.303c-.234.059-.418.311-.332.533M15.359 45.585l.546 1.05c.11.211.442.266.65.155.236-.126.28-.38.17-.593l-.546-1.05c-.11-.21-.442-.266-.65-.155-.237.127-.28.38-.17.593M17.09 49.04l.72 1.403c.26.504 1.079.065.82-.437l-.72-1.403c-.26-.504-1.08-.065-.82.438M18.799 53.372l.38.692c.114.21.438.269.649.156.233-.125.285-.383.17-.593l-.38-.693c-.114-.209-.438-.268-.65-.155-.233.124-.284.383-.17.593M19.737 56.495c.138.26.163.535.127.819-.03.232.24.433.475.433.281 0 .444-.2.474-.433.057-.438-.047-.862-.256-1.256-.112-.21-.44-.267-.65-.156-.235.126-.282.382-.17.593M20.622 60.38l.38 1.212c.168.536 1.084.308.916-.23l-.38-1.212c-.168-.536-1.084-.308-.916.23M21.568 64.195l.38.866c.095.217.317.37.584.303.226-.057.427-.315.331-.533-.126-.29-.253-.578-.38-.866-.094-.218-.316-.37-.583-.303-.227.057-.428.314-.332.533M22.284 66.802l.19.174c.176.16.498.172.671 0 .174-.173.188-.442 0-.613l-.19-.173c-.176-.16-.498-.173-.671 0-.174.173-.188.441 0 .612M22.715 69.095v.693c0 .226.218.444.474.433.258-.01.475-.19.475-.433v-.693c0-.227-.218-.444-.475-.433-.257.01-.474.19-.474.433M23.094 73.946v1.04c0 .557.95.558.95 0v-1.04c0-.558-.95-.559-.95 0M23.284 77.357a.87.87 0 0 1-.093.718c-.295.489.525.927.82.438a1.71 1.71 0 0 0 .189-1.386c-.157-.538-1.073-.31-.916.23M22.712 80.478s.03.111.025.07c-.007-.047-.002.06-.003.071.008-.062-.006.01-.016.034-.03.069.053-.076-.02.037-.01.016-.04.055-.01.02 0 0-.083.077-.055.056.033-.024-.059.033-.07.037.07-.028-.056.008-.068.01a.434.434 0 0 0-.332.533c.072.239.332.348.584.302.664-.12 1.098-.818.88-1.4a.494.494 0 0 0-.584-.303c-.236.06-.414.31-.331.533M20.578 81.199l-.759-.347c-.222-.102-.525-.06-.65.155-.113.197-.066.484.17.593l.76.346c.222.102.525.061.65-.155.113-.196.067-.484-.17-.592M17.044 79.432l-.568-.177c-.236-.073-.53.084-.584.303-.06.24.08.454.331.533l.569.176c.235.073.529-.084.583-.302.06-.24-.079-.455-.331-.533"/>
                <path fill="#D6D6D6" d="M-11.878 67.78l.95.346c.238.087.521-.094.584-.302.074-.247-.093-.445-.332-.533a1222.3 1222.3 0 0 0-.95-.346c-.237-.087-.52.095-.583.302-.075.247.092.446.331.533M-10.092 69.122c.443.29.886.578 1.33.867.208.136.528.033.649-.156.14-.217.039-.456-.17-.592l-1.33-.866c-.209-.137-.528-.034-.65.155-.139.217-.038.456.17.592M-7.173 70.808c.333.29.736.5 1.185.6.593.133.846-.702.252-.835a1.698 1.698 0 0 1-.765-.377c-.442-.386-1.114.226-.672.612"/>
                <path fill="#4F4F51" d="M5.321 47.822l.569.695c.153.187.41.282.649.155.202-.108.325-.404.17-.593l-.568-.694c-.153-.187-.41-.283-.65-.155-.202.108-.324.404-.17.592M6.98 50.324c.107.408.342.778.672 1.07.44.387 1.111-.225.671-.613a1.35 1.35 0 0 1-.428-.687c-.143-.542-1.059-.312-.915.23M8.12 52.575l.556 1.39c.208.52 1.126.296.916-.23l-.556-1.39c-.207-.52-1.125-.296-.915.23M9.296 55.8l.57 1.213c.1.215.448.263.65.155.243-.13.271-.376.17-.592l-.57-1.213c-.101-.215-.448-.263-.65-.155-.244.13-.272.377-.17.593M10.242 58.574c.138.26.164.535.127.819-.03.232.24.433.475.433.281 0 .445-.2.475-.433.056-.438-.048-.862-.257-1.256-.112-.21-.44-.267-.65-.155-.235.125-.282.38-.17.592"/>
                <path fill="#5A5A5A" d="M14.68 182.708H7.493a.596.596 0 0 1-.596-.596v-2.379c0-.329.266-.596.596-.596h7.187c.329 0 .596.267.596.596v2.38c0 .329-.267.595-.596.595M38.73 181.221h-6.964a.707.707 0 0 1-.707-.707v-2.156c0-.391.316-.708.707-.708h6.964c.391 0 .708.317.708.708v2.156c0 .391-.317.707-.708.707"/>
                <path fill="#725048" d="M29.226 66.386c-.29-1.205-3.637.148-8.42-4.466-.95-.917-1.146-1.606-.735-1.803 3.325-1.594 2.583-2.905 1.93-3.503-.22-.2-.56-.132-.71.124-.955 1.632-2.568 1.97-3.934 1.878-3.471-.236-4.462 2.665-5.049 3.035-.586.371-13.351 7.706-21.43 7.984-.378.013-.829.354-1.308.906l-.003.026c-1.157 4.925 2.038 10.142 7.609 8.483 2.627-.782 4.919-2.376 7.144-4.03 5.738-4.876 9.29-9.863 9.552-10.114.41-.396 5.743 2.829 6.44 2.965 1.112.217 9.471.836 8.914-1.485"/>
                <path fill="#000" d="M41.394 85.509s9.735 21.77-2.169 93.195l-7.865.212s-3.482-21.707-3.826-36.137c-.344-14.43-1.077-26.424-1.077-26.424s-2.127 17.542-4.45 31.738c-2.274 13.895-7.018 31.711-7.018 31.711H7.124S3.426 106.14 13.12 87.18l28.274-1.671z"/>
                <path fill="#020202" d="M25.355 23.238c.542-.443 1.782-.318 2.38-.103.601.217 1.062.708 1.499 1.154.26.265.666-.142.407-.407-.68-.695-1.37-1.3-2.367-1.439-.778-.108-1.692-.13-2.326.388-.287.234.122.64.407.407"/>
                <path fill="#020202" d="M28.738 23.038c-.382-.252-.896-.181-1.235.111-.371.32-.435.854-.246 1.29.197.454.682.801 1.19.667.543-.143.753-.66.814-1.165.031-.257-.243-.48-.48-.48-.285 0-.448.222-.48.48-.007.07-.028.177-.077.232-.006.017.007.024.037.02a.112.112 0 0 1-.074-.053c-.025-.037-.05-.066-.065-.11-.022-.069-.019-.126.013-.163.047-.055.072-.032.12-.002.516.34.997-.49.483-.827M17.586 21.104c.901-.628 2.446.174 3.028.9.232.288.636-.121.407-.408-.748-.933-2.618-1.761-3.726-.989-.301.21-.014.71.29.497"/>
                <path fill="#020202" d="M20.502 21.082c-.862-.513-1.894.39-1.495 1.309.176.402.583.684 1.03.651.488-.036.874-.36 1.027-.817.196-.587-.73-.839-.925-.255-.053.159-.21.13-.253.05-.052-.098.035-.168.132-.11.531.316 1.014-.512.484-.828"/>
                <path fill="#62352E" d="M20.146 26.968a2.797 2.797 0 0 0 2.347.892c.606-.067.613-1.026 0-.96-.65.072-1.223-.127-1.67-.61-.42-.454-1.096.226-.677.678M17.137 29.013c1.637 1.64 5.295 2.276 7.568 1.721.583-.142.19-.89-.39-.75-1.818.444-5.112-.124-6.432-1.445-.405-.405-1.152.068-.746.474M18.53 32.619c.945.544 2.203.675 3.304.346.569-.17.321-.881-.255-.71-.897.269-1.795.172-2.565-.271-.493-.285-.972.354-.483.635"/>
                <path fill="#020202" d="M29.487 16.602c1.234 0 1.236-1.918 0-1.918-1.234 0-1.236 1.918 0 1.918"/>
                <path fill="#232322" d="M17.174 16.45a.323.323 0 0 1 .022-.175c.121-.28-.292-.525-.415-.242a.914.914 0 0 0-.07.544c.05.304.511.175.463-.128M17.59 14.977a.719.719 0 0 1 .119-.392c.164-.262-.25-.503-.414-.242-.122.194-.181.406-.184.634-.005.309.475.31.48 0M18.137 12.99c.09-.237.142-.476.17-.727.034-.306-.446-.304-.48 0a2.377 2.377 0 0 1-.153.599c-.111.288.352.412.463.127M18.73 10.845l.244-.417c.156-.267-.258-.509-.414-.242l-.244.417c-.156.266.258.508.414.242M19.495 8.947l.31-.458c.174-.257-.241-.497-.414-.242l-.31.458c-.173.257.242.497.414.242M21.463 7.345l.356-.21c.266-.155.025-.57-.242-.413l-.356.209c-.266.156-.025.57.242.414M22.765 6.635l-.152.104c-.253.174-.013.59.242.414l.152-.104c.252-.174.013-.59-.242-.414M21.17 8.605c-.14.136-.253.29-.338.465-.134.276.28.52.414.242.07-.141.15-.257.262-.368.22-.217-.118-.556-.339-.34M19.702 10.961l-.148.479c-.091.295.371.422.462.127l.149-.478c.09-.296-.372-.422-.463-.128M19.258 13.134c.02.189.011.367-.034.552-.074.3.388.427.462.127.055-.224.075-.45.052-.679-.031-.304-.51-.307-.48 0M19.902 15.35l.154.052c.293.098.419-.365.127-.463l-.153-.05c-.294-.1-.42.364-.128.461M21.106 14.66a.84.84 0 0 1 .014-.488c.092-.295-.37-.421-.462-.127-.077.246-.08.493-.015.743.078.298.54.172.463-.128M21.682 12.519a.637.637 0 0 1 .19-.394c.216-.221-.123-.56-.34-.34-.2.206-.303.45-.33.734-.027.307.453.305.48 0M22.822 10.535l.565-.921c.162-.264-.253-.505-.414-.242l-.565.92c-.161.265.253.506.414.243M24.317 8.133l.102-.153c.172-.258-.243-.498-.414-.242l-.102.153c-.172.258.244.498.414.242M26.02 7.089l.208-.15c.248-.18.009-.596-.242-.414l-.208.15c-.248.179-.009.595.242.414M26.714 6.776l-.102.102c-.219.219.12.558.339.34l.103-.103c.218-.219-.121-.558-.34-.34M25.7 8.15l-.258.511c-.138.275.275.518.414.242l.258-.511c.138-.275-.275-.518-.414-.242M24.237 10.765a1.067 1.067 0 0 1-.245.355c-.22.219.12.557.339.34.166-.166.28-.351.369-.567.116-.286-.347-.41-.463-.128M22.895 13.288c.018.174.009.33-.037.5-.08.298.382.426.462.127.056-.206.076-.415.054-.627-.03-.304-.51-.308-.48 0M22.638 15.404l.102.256c.113.283.577.16.463-.127l-.102-.257c-.113-.283-.577-.16-.463.128M24.315 16.088c.309 0 .309-.48 0-.48s-.31.48 0 .48M25.065 14.363a.695.695 0 0 1 .187-.497c.21-.226-.129-.566-.34-.34a1.19 1.19 0 0 0-.327.837c.003.308.483.309.48 0M26.294 12.058a.43.43 0 0 1 .137-.342c.22-.218-.12-.556-.34-.34a.915.915 0 0 0-.276.682c.006.308.486.31.48 0M27.313 10.06a.766.766 0 0 1 .135-.334c.17-.258-.245-.499-.414-.242a1.284 1.284 0 0 0-.2.576c-.037.306.443.303.48 0M28.034 8.32a.533.533 0 0 1 .075-.236c.153-.27-.262-.511-.414-.242a1.091 1.091 0 0 0-.14.478c-.023.307.457.306.479 0M28.758 7.442l.152.105c.254.176.494-.24.242-.414L29 7.028c-.254-.177-.494.239-.242.414M29.299 8.269v.102c0 .309.48.309.48 0v-.102c0-.31-.48-.31-.48 0M28.926 9.496a1.944 1.944 0 0 1-.15.55c-.124.28.29.524.413.242.114-.258.183-.512.217-.792.037-.306-.443-.303-.48 0M28.083 12.047l-.248.669c-.108.29.355.415.462.127l.248-.668c.108-.29-.356-.415-.462-.128M27.152 14.312a1.33 1.33 0 0 1-.126.493c-.132.277.282.52.414.242a1.96 1.96 0 0 0 .191-.735c.02-.308-.46-.308-.479 0M26.78 16.04l-.105.152c-.176.254.24.494.414.242l.105-.151c.177-.254-.239-.494-.414-.242M27.388 17.214h.307c.308 0 .309-.48 0-.48h-.307c-.31 0-.31.48 0 .48M29.081 16.584a.603.603 0 0 1 .22-.222c.265-.158.024-.573-.242-.414a1.101 1.101 0 0 0-.392.394c-.157.266.257.508.414.242M30.003 15.457l.36-.613c.155-.267-.259-.509-.415-.243l-.36.614c-.156.267.259.509.415.242M30.954 13.082a.806.806 0 0 1 .118-.343c.159-.265-.256-.507-.414-.241a1.35 1.35 0 0 0-.184.584c-.028.307.451.305.48 0M31.46 10.483a.876.876 0 0 0 .058-.422c-.031-.304-.51-.307-.48 0 .012.11 0 .193-.04.295-.115.286.349.41.462.127M31.384 8.045l-.051-.102c-.138-.276-.552-.034-.414.242l.051.102c.138.276.552.033.414-.242M32.01 9l.105.512c.061.302.524.174.462-.127l-.105-.512c-.062-.302-.524-.174-.462.127M32.656 11.863l.096.615c.048.304.51.175.463-.127l-.096-.616c-.048-.304-.51-.175-.463.128M32.291 14.162c.025.22-.037.4-.203.55-.23.207.11.545.34.339.248-.224.38-.555.343-.889-.034-.303-.514-.307-.48 0M30.996 16.86a.881.881 0 0 1-.405.463c-.268.153-.027.567.242.414.3-.17.507-.43.626-.75.107-.29-.357-.415-.463-.128M30 18.136c.308 0 .308-.48 0-.48-.31 0-.31.48 0 .48M32.376 18.737l.305-.258c.237-.199-.104-.536-.338-.339l-.306.258c-.236.2.104.537.339.34M33.515 16.983l.441-.855c.142-.273-.272-.516-.413-.242l-.442.855c-.141.273.272.516.414.242M34.599 14.575l.1-.659c.047-.302-.415-.431-.462-.127l-.1.658c-.047.302.415.432.462.128M34.775 12.56l-.048-.36c-.018-.129-.182-.196-.295-.167-.14.037-.185.167-.168.295l.048.36c.018.128.183.196.296.167.138-.037.184-.168.167-.295M34.15 10.554l-.152-.359c-.052-.12-.226-.144-.328-.086-.124.07-.137.21-.086.328.05.12.102.24.153.359.05.12.225.144.328.086.124-.07.136-.21.086-.328M33.482 9.686c.308 0 .309-.48 0-.48s-.31.48 0 .48M35.2 11.404l.203.718c.083.296.546.17.462-.128l-.202-.717c-.084-.297-.547-.171-.463.127M35.343 14.055a2.99 2.99 0 0 1-.096.858c-.079.299.383.426.462.128.085-.323.124-.652.114-.986-.01-.307-.489-.309-.48 0M34.06 17.778l-.18.47c-.112.288.352.413.462.127l.181-.47c.112-.288-.352-.412-.462-.127M32.946 19.729a91.84 91.84 0 0 1-.1.257c-.112.287.352.412.463.127l.1-.257c.112-.288-.352-.412-.463-.127M32.07 21.033c0-.024-.013-.017-.039.021-.242.19.1.528.34.34.155-.123.19-.302.162-.488-.046-.304-.508-.175-.462.127"/>
                <path fill="#5A5A5A" d="M41.97 81.894c-.36-.15-.786-.186-1.264-.054-8.877 2.463-18.031 3.056-27.142 1.835-.44-.059-.804.016-1.094.178.007 1.2.021 2.402.005 3.602.29.241.652.413 1.089.472 9.453 1.266 19.025.567 28.231-1.987a2.3 2.3 0 0 0 .295-.106 172.864 172.864 0 0 1-.12-3.94"/>
                <path fill="#D6D6D6" d="M32.908 83.51a2.306 2.306 0 0 0-1.173-.07c-1.963.378-3.937.516-5.926.484a1.889 1.889 0 0 0-.752.138c-.213 1.46-.165 2.903.018 4.338.216.093.46.149.734.153 2.36.037 4.689-.202 7.014-.65.131-.024.255-.07.371-.129.202-1.476.332-3.034-.286-4.264"/>
                <path fill="#000" d="M17.761 84.35a16.387 16.387 0 0 0-.221 4.363c.087 1.014 1.624 1.024 1.536 0a14.795 14.795 0 0 1 .166-3.939c.182-1.003-1.297-1.433-1.48-.424M37.953 82.998l.527 4.427c.12 1.005 1.657 1.017 1.536 0l-.527-4.427c-.12-1.005-1.657-1.017-1.536 0"/>
                <path fill="#020202" d="M26.602 19.874c1.084-.606 2.647-.408 3.37.654.134.196.455.011.32-.187-.84-1.233-2.605-1.498-3.878-.787-.208.116-.021.437.188.32M18.634 17.405c.49-.205 1.22.028 1.71.2.602.213 1.106.563 1.42 1.131.116.209.436.022.32-.187-.32-.58-.82-.976-1.433-1.223-.592-.238-1.49-.54-2.116-.279-.217.09-.121.45.099.358M11.168 62.327c.062 1.406.958 2.745 2.235 3.337-.29.496-.612.973-.961 1.429a11.673 11.673 0 0 1-.864-.48c-.516-.317-1.02-.686-1.351-1.193-.506-.774-.545-1.753-.567-2.678.315-.22.63-.442.944-.663"/>
                <path fill="#FFF" d="M12.062 64.674c-.184-.141-.445-.154-.663-.074-.217.081-.395.244-.538.427-.22.282-.37.645-.301.996.11.558.732.882 1.3.886.297.002.6-.064.845-.232.245-.167.422-.445.426-.742.002-.195-.068-.384-.148-.563-.101-.226-.222-.448-.403-.616-.181-.168-.432-.275-.676-.233"/>
                <path fill="#020202" d="M12.156 64.514c-.735-.43-1.506.23-1.73.936-.256.808.346 1.472 1.121 1.614.708.129 1.627-.182 1.754-.982.122-.778-.574-1.79-1.397-1.745-.237.013-.238.384 0 .37.563-.03 1.058.688 1.042 1.228-.019.6-.72.834-1.217.782-.455-.048-.976-.33-1-.845-.026-.566.634-1.393 1.24-1.038.206.12.393-.2.187-.32"/>
                <g transform="translate(3.346 194.396)">
                    <mask id="h" fill="#fff">
                        <use xlink:href="#g"/>
                    </mask>
                    <path fill="#5A5A5A" d="M.47 1.385c1.34.933 2.899 1.064 4.493.955 1.787-.123 3.828-.285 5.47-1.038.649-.298.084-1.257-.562-.96-1.46.67-3.327.777-4.908.886-1.405.096-2.74.027-3.932-.803-.59-.41-1.146.554-.562.96" mask="url(#h)"/>
                </g>
                <path fill="#5A5A5A" d="M13.592 89.808l-.282.901c-.07.228.287.326.358.099l.281-.902c.071-.228-.286-.325-.357-.098M12.393 93.987l-.258 1.35c-.045.234.312.334.357.1l.259-1.352c.044-.233-.313-.333-.358-.098M11.488 98.067c.052.542.01 1.069-.132 1.594-.063.23.295.33.357.099.15-.556.2-1.12.146-1.693-.023-.235-.394-.238-.37 0M10.919 102.947l-.27 1.201c-.051.232.306.332.358.099l.27-1.201c.051-.232-.306-.332-.358-.099M9.978 108.163l-.256 1.352c-.044.233.313.333.357.098l.256-1.351c.044-.233-.313-.333-.357-.1M9.833 112.937c-.16.474-.193.956-.115 1.449.038.234.395.135.358-.099a2.584 2.584 0 0 1 .115-1.252c.076-.226-.282-.324-.358-.098M9.364 118.066l-.208 1.801c-.028.237.343.235.37 0l.209-1.801c.027-.237-.344-.235-.371 0M9.242 123.296c.071.69.037 1.367-.11 2.044-.051.233.306.332.357.099.154-.71.198-1.42.124-2.143-.025-.235-.395-.237-.37 0M8.539 129.075a2.777 2.777 0 0 0-.028 1.435c.056.232.414.134.357-.098-.1-.417-.09-.826.028-1.238.066-.23-.292-.328-.357-.099M8.753 133.538l-.262 1.945c-.032.234.325.334.357.099l.263-1.946c.031-.233-.326-.334-.358-.098M8.495 138.672l.19 1.637c.027.234.398.237.37 0l-.19-1.637c-.026-.234-.397-.237-.37 0M8.685 144.596l-.26 1.5c-.04.233.316.333.357.098l.26-1.5c.04-.232-.317-.333-.357-.098M8.06 149.368a4.84 4.84 0 0 0-.147 1.692c.021.236.392.238.37 0a4.543 4.543 0 0 1 .135-1.594c.061-.23-.296-.329-.358-.098M7.626 153.795c.141.677.181 1.353.129 2.042-.019.238.352.237.37 0a7.596 7.596 0 0 0-.141-2.14c-.049-.234-.406-.135-.358.098M8.264 158.493a3.373 3.373 0 0 0-.121 1.738c.043.234.4.135.357-.099a2.986 2.986 0 0 1 .121-1.54c.078-.226-.28-.324-.357-.099M8.272 163.52c.284.466.358.989.215 1.515-.063.231.294.33.357.099a2.272 2.272 0 0 0-.252-1.802c-.123-.203-.444-.017-.32.188M8.327 168.92l-.272 1.944c-.032.233.325.334.358.099l.271-1.945c.033-.233-.324-.334-.357-.098M8.066 174.05a3.673 3.673 0 0 0 .14 1.545c.07.227.427.13.357-.099a3.423 3.423 0 0 1-.126-1.446c.029-.236-.342-.233-.37 0M27.982 117.137c.273.216.45.495.522.835.05.234.407.135.358-.098a1.725 1.725 0 0 0-.618-.999c-.185-.146-.45.115-.262.262M28.788 120.514c.13.673.186 1.349.176 2.035-.004.238.367.238.37 0a10.45 10.45 0 0 0-.189-2.134c-.045-.234-.402-.135-.357.099M29.406 126.131v1.344c0 .238.37.239.37 0v-1.344c0-.238-.37-.239-.37 0M29.525 131.715a8.747 8.747 0 0 1 .32 3.223c-.02.237.35.236.37 0a9.018 9.018 0 0 0-.332-3.322c-.067-.228-.425-.13-.358.1M29.865 137.673c.235.664.33 1.34.287 2.043-.015.238.356.237.37 0a5.356 5.356 0 0 0-.3-2.141c-.079-.224-.437-.127-.357.098M30.636 143.931c.239 0 .24-.37 0-.37-.238 0-.239.37 0 .37M30.299 146.38c-.152.454-.2.921-.14 1.396.029.233.4.236.37 0a2.864 2.864 0 0 1 .128-1.297c.076-.227-.282-.324-.358-.098M30.61 151.258c.215.666.312 1.342.29 2.042-.007.238.363.238.37 0a6.237 6.237 0 0 0-.304-2.14c-.073-.226-.43-.13-.357.098M30.59 156.488c.162.824.211 1.647.153 2.484-.017.238.354.237.37 0 .061-.87.003-1.727-.167-2.583-.046-.234-.403-.135-.357.099M31.197 163.003v2.388c0 .239.371.24.371 0v-2.388c0-.239-.37-.24-.37 0M31.347 169.273v2.388c0 .238.37.239.37 0v-2.388c0-.239-.37-.24-.37 0M31.535 174.243l.145.896c.039.235.396.135.358-.099l-.145-.896c-.039-.235-.396-.135-.358.099M32.366 177.428l-.146.897c-.037.233.32.333.358.098l.145-.896c.038-.233-.32-.334-.357-.099"/>
            </g>
        </g>
    </g>
</svg>
