<svg xmlns="http://www.w3.org/2000/svg" xmlns:xlink="http://www.w3.org/1999/xlink" width="76" height="76" viewBox="0 0 76 76">
    <defs>
        <path id="a" d="M0 .157h75.842v75.584H0z"/>
    </defs>
    <g fill="none" fill-rule="evenodd">
        <g transform="translate(0 .101)">
            <mask id="b" fill="#fff">
                <use xlink:href="#a"/>
            </mask>
            <path fill="#50BE87" d="M75.842 37.95c0 20.871-16.978 37.791-37.92 37.791C16.977 75.741 0 58.821 0 37.95S16.978.157 37.92.157c20.943 0 37.921 16.92 37.921 37.792" mask="url(#b)"/>
        </g>
        <path fill="#725048" d="M30.728 39.218c-.271-1.632-.546-2.2-2.197-1.46-1.665.748-3.552 1.057-5.101 2.055-1.549.997-2.418 3.027-3.25 4.655-1.933 3.784-3.137 8.076-5.79 11.457-1.27 1.62-2.267 2.74-.259 4.12 1.736 1.194 3.66 1.804 5.102 3.43.875.988 1.195 1.874 2.478.997.825-.564 1.277-1.644 2.003-2.323.892-.835 1.628-1.51 2.705-2.12 2.663-1.512 5.174-3.77 6.6-6.445 1.466-2.75 1.786-5.942-.057-9.214-1.125-1.997-1.859-2.896-2.234-5.152"/>
        <path fill="#9CAAC1" d="M41.266 52.262l-.006.009.006-.009"/>
        <path fill="#FFF" d="M61.367 62.747c-1.166.92-29.496 1.139-30.41.228-1.006-1.003-4.576-50.7-4.002-51.271.863-.86 30.525-2.165 31.44-1.368 1.313 1.146 4.082 51.535 2.972 52.41"/>
        <path fill="#BBE0D1" d="M25.43 64.064c-.21-.457-11.54-9.299-13.011-9.538-.978-.16-2.135 1.151-2.642 1.593-.573.499-1.723 1.8-3.107 3.398 5.72 7.802 10.501 10.078 13.856 12.14 1.14-1.491 4.196-5.83 4.548-6.303.412-.554.517-.938.356-1.29"/>
        <path fill="#725048" d="M36.522 44.063c-3.017 1.006-3.72 4.868-7.525 4.644-.675-.04-1.567-.507-2.125-.873-.671-.44-.769-1.195-1.056-1.89.118.284-.652 1.6-.787 1.902-.228.512-.473.976-.847 1.397-.692.78-1.21 1.37-1.487 2.422-.518 1.978-.412 4.575 1.05 6.149 2.165 2.328 4.701 1.42 6.689-.582.454-.458.813-.975 1.131-1.52.69-1.177 1.21-2.49 1.97-3.62 1.165-1.73 3.11-3.376 3.857-5.307.403-1.043 1.041-3.358-.87-2.722"/>
        <path fill="#62352E" d="M37.096 46.455c-.124-.142-.172-.195-.21-.258-.229.407-.752.495-1.164.258-.53-.303-.277-.862.03-1.242l-.078-.03a3.026 3.026 0 0 1-.318-.172c-.219.272-.381.583-.387.933-.007.353.203.657.501.854.546.36 1.337.236 1.715-.26a.6.6 0 0 1-.09-.083"/>
        <path fill="#6CBBBB" d="M26.663 29.15c.005-.01.008-.023.013-.032l-.112.07a1.04 1.04 0 0 1 .1-.038M26.564 29.189a.279.279 0 0 0-.076.048l.076-.048z"/>
        <path fill="#50BE87" d="M9.866 58.92c-.156-.091-.383-.043-.47.122a1.524 1.524 0 0 1-.093.154c-.041.062-.034.049-.082.105-.072.084-.15.163-.228.242a.344.344 0 0 0 0 .483.347.347 0 0 0 .485 0c.192-.192.384-.397.51-.639a.346.346 0 0 0-.122-.467M11.993 56.694a.347.347 0 0 0-.485 0l-.343.342a.344.344 0 0 0 0 .483.347.347 0 0 0 .485 0l.343-.341a.344.344 0 0 0 0-.484M11.307 60.34a.347.347 0 0 0-.485 0c-.066.069-.122.146-.179.222l-.005.007a.994.994 0 0 1-.034.039.333.333 0 0 0-.226.316c0 .176.157.354.343.342a.553.553 0 0 0 .39-.2c.05-.056.094-.117.14-.178 0-.002.003-.004.004-.006a.345.345 0 0 0 .052-.542M13.25 57.834a.347.347 0 0 0-.484 0 2.96 2.96 0 0 1-.128.12.867.867 0 0 1-.02.013.342.342 0 0 0-.296.336c0 .179.156.352.343.342.246-.013.419-.162.585-.328a.344.344 0 0 0 0-.483M12.038 62.224c-.155-.09-.384-.043-.47.122-.025.05-.052.098-.081.145-.008.014-.06.084-.062.088a2.415 2.415 0 0 1-.146.154.344.344 0 0 0 0 .483.347.347 0 0 0 .485 0c.157-.156.295-.327.397-.525.085-.165.045-.37-.123-.467M13.867 60.059c-.154-.09-.384-.043-.47.123a1.571 1.571 0 0 1-.098.165l-.026.028a.69.69 0 0 1-.049.046l-.004.003a1.28 1.28 0 0 1-.157.09c-.166.085-.213.315-.122.468.098.168.302.207.469.123.256-.13.45-.323.58-.579.085-.165.045-.369-.123-.467M15.537 58.517a.347.347 0 0 0-.485 0 2.686 2.686 0 0 1-.128.121l-.02.013a.342.342 0 0 0-.295.336c0 .179.155.352.342.342.246-.014.42-.163.586-.328a.344.344 0 0 0 0-.484M13.638 63.477c-.154-.09-.384-.043-.47.123a1.709 1.709 0 0 1-.072.13l-.02.029-.013.015-.006.006a.343.343 0 0 0-.278.334c0 .181.156.348.343.342.31-.011.509-.256.64-.511.084-.167.044-.37-.124-.468M15.925 61.198c-.155-.09-.384-.043-.47.123a1.56 1.56 0 0 1-.064.115l-.017.025-.023.023-.006.003-.006.002c-.012.001-.033.004-.045.004a.346.346 0 0 0-.342.342c0 .184.155.345.342.342.353-.007.598-.207.754-.511.085-.166.045-.37-.123-.468M17.366 59.543a.347.347 0 0 0-.485 0l-.229.228a.344.344 0 0 0 0 .483.347.347 0 0 0 .485 0l.23-.228a.344.344 0 0 0 0-.483M15.88 64.556a.347.347 0 0 0-.485 0l-.343.341a.344.344 0 0 0 0 .484.347.347 0 0 0 .485 0l.343-.342a.344.344 0 0 0 0-.483M17.983 61.654c-.156-.09-.383-.042-.47.123a1.018 1.018 0 0 1-.448.447c-.166.086-.214.312-.123.467.097.166.303.209.469.123.29-.151.544-.404.695-.692.086-.166.044-.37-.123-.468M16.909 66.265a.347.347 0 0 0-.485 0c-.058.06-.107.128-.163.19a.7.7 0 0 1-.046.045l-.003.002a.046.046 0 0 1-.009.005.346.346 0 0 0-.337.341c0 .181.156.349.343.342a.76.76 0 0 0 .49-.205c.08-.07.136-.161.21-.237a.345.345 0 0 0 0-.483M19.126 64.16c-.157-.09-.382-.041-.47.123-.005.011-.05.075-.05.08l-.02.018c.007-.008-.042.032-.05.036a.528.528 0 0 0-.025.013.583.583 0 0 1-.036.013l-.034.007c.011-.004-.05.006-.06.006a.346.346 0 0 0-.343.342c0 .183.156.345.343.341a.993.993 0 0 0 .868-.51.346.346 0 0 0-.123-.468M20.668 61.38a.343.343 0 0 0-.337.292l-.017.027c-.037.043-.078.083-.117.122a.344.344 0 0 0 0 .484.347.347 0 0 0 .485 0c.166-.166.315-.339.329-.584.01-.186-.164-.342-.343-.342M18.43 68.345c0-.181-.155-.35-.342-.342-.437.016-.679.392-.686.797a.345.345 0 0 0 .343.342c.19 0 .34-.156.343-.342a.653.653 0 0 1 .004-.058.797.797 0 0 1 .017-.053l.002-.003v-.002h.006a.344.344 0 0 0 .314-.34M19.858 69.91c0-.182-.156-.35-.343-.342-.437.016-.678.392-.686.797a.345.345 0 0 0 .343.342c.19 0 .34-.156.343-.342 0-.015 0-.03.002-.045l.003-.013a.602.602 0 0 1 .013-.047l.003-.006.002-.003.001-.002h.005a.345.345 0 0 0 .314-.34M14.47 66.246c0-.18-.157-.348-.343-.341-.437.016-.679.391-.686.797a.345.345 0 0 0 .342.342c.19 0 .34-.156.344-.342l.001-.045.003-.014a.676.676 0 0 1 .013-.047l.004-.005.001-.003.002-.002h.005a.344.344 0 0 0 .313-.34M9.866 61.445c0-.18-.156-.349-.343-.341-.437.016-.678.391-.686.797a.345.345 0 0 0 .343.342c.19 0 .34-.156.343-.342l.002-.045.003-.014a.602.602 0 0 1 .013-.047c0-.002.002-.003.003-.005l.002-.003.001-.002h.006a.345.345 0 0 0 .313-.34M8.26 59.276c0-.181-.156-.349-.342-.342-.437.016-.679.392-.687.798a.345.345 0 0 0 .343.341c.19 0 .34-.155.343-.341l.002-.046.003-.013a.797.797 0 0 1 .016-.053l.002-.003.001-.002h.006a.344.344 0 0 0 .313-.34M10.294 56.893c0-.181-.156-.349-.342-.342-.437.016-.679.392-.686.798a.345.345 0 0 0 .342.341c.19 0 .34-.155.344-.341l.001-.046.003-.013a.797.797 0 0 1 .016-.053l.002-.003.002-.001h.005a.345.345 0 0 0 .313-.34M19.996 66.72a.347.347 0 0 0-.485 0l-.343.342a.344.344 0 0 0 0 .484.347.347 0 0 0 .485 0l.343-.342a.344.344 0 0 0 0-.483M21.683 63.644c-.264.263-.563.536-.74.867-.207.389.385.734.593.345.15-.28.409-.506.632-.728.313-.312-.172-.796-.485-.484M21.024 68.316a.347.347 0 0 0-.484 0 1.165 1.165 0 0 0-.28.412c-.047.127-.05.266-.05.399 0 .441.686.44.686 0 0-.038 0-.076.002-.115v-.009c.002-.008.004-.035.007-.047l.006-.015a.796.796 0 0 1 .026-.046l.009-.012c.025-.03.052-.057.078-.084a.344.344 0 0 0 0-.483M22.544 64.967c-.23.442-.572.811-.8 1.253-.203.391.389.737.592.345.228-.442.571-.811.8-1.253.202-.391-.39-.737-.592-.345"/>
        <path fill="#FF7900" d="M33.627 17.462l-4.333.32-.32-4.317 4.332-.32z"/>
        <path fill="#D6D6D6" d="M53.604 21.065l-20.72 1.322-.039-.617 20.72-1.322zM53.74 22.68l-20.72 1.321-.04-.617 20.72-1.321zM57.607 30.366l-25.735 1.641-.04-.617 25.735-1.642zM57.607 32.317l-25.735 1.641-.04-.617L57.568 31.7zM57.81 34.2l-25.735 1.642-.04-.617 25.735-1.642zM57.81 39.112l-25.735 1.641-.04-.617 25.735-1.642zM57.81 40.86l-25.735 1.642-.04-.617 25.735-1.642zM59.085 52.304l-25.734 1.641-.04-.617 25.735-1.642zM58.357 56.162l-11.53.735-.04-.617 11.53-.736z"/>
        <path fill="#FFF" d="M15.15 15.501l3.04 1.505c.876.434 1.65-.877.769-1.313l-3.04-1.505c-.876-.433-1.65.877-.77 1.313M13.842 24.869l3.804.709c.959.179 1.37-1.286.405-1.466l-3.804-.709c-.959-.179-1.37 1.286-.405 1.466M14.81 34.193l3.79-.3c.973-.077.98-1.598 0-1.52l-3.79.3c-.973.077-.98 1.598 0 1.52M21.11 7.239l1.786 2.256c.256.323.812.267 1.079 0 .32-.318.256-.751 0-1.075l-1.787-2.256c-.256-.322-.812-.266-1.079 0-.32.319-.256.752 0 1.075M32.054 3.625l.501 1.263c.151.381.51.648.938.53.365-.099.685-.55.533-.934l-.501-1.263c-.151-.381-.51-.648-.938-.53-.365.1-.685.55-.533.934"/>
    </g>
</svg>
