<svg xmlns="http://www.w3.org/2000/svg" xmlns:xlink="http://www.w3.org/1999/xlink" width="187" height="213" viewBox="0 0 187 213">
    <defs>
        <path id="a" d="M0 .33h154.918v178.68H0z"/>
        <path id="c" d="M.167.41h112.066v85.41H.167z"/>
    </defs>
    <g fill="none" fill-rule="evenodd">
        <path fill="#AFAFAF" d="M77.499 126.241c.581.234 1.01.881.512 1.412-.317.337-.92.376-1.353.326-.722-.082-1.317-.588-.826-1.292.33-.474 1.078-.682 1.667-.446"/>
        <g transform="rotate(13 100.83 32.677)">
            <mask id="b" fill="#fff">
                <use xlink:href="#a"/>
            </mask>
            <path fill="#FFF" d="M0 40.739L97.768.329l57.15 138.272-97.768 40.41z" mask="url(#b)"/>
        </g>
        <path fill="#AFAFAF" d="M13.236 30.168l84.087-14.005 1.107 6.644-84.087 14.006zM15.384 43.062L99.47 29.057l.296 1.773-84.088 14.005zM15.915 46.254l84.087-14.005.296 1.773L16.21 48.026zM16.446 49.445l84.088-14.005.296 1.774-84.088 14.005zM16.978 52.637l84.088-14.005.295 1.774L17.273 54.41zM17.51 55.829l84.087-14.005.296 1.773-84.088 14.005zM18.042 59.02l53.536-8.916.295 1.773-53.536 8.917zM19.104 65.404L103.192 51.4l.296 1.773L19.4 67.177zM19.636 68.596l84.088-14.005.296 1.773L19.932 70.37zM20.168 71.788l84.087-14.005.296 1.773-84.088 14.005zM20.7 74.98l84.087-14.006.296 1.774-84.088 14.005zM21.231 78.171l84.087-14.005.296 1.774-84.088 14.005zM21.762 81.363l84.088-14.005.296 1.773-84.088 14.005zM22.294 84.555l84.088-14.005.296 1.773L22.59 86.328zM22.826 87.747l84.087-14.005.296 1.772L23.121 89.52zM23.358 90.938l84.087-14.005.296 1.774-84.088 14.005zM23.889 94.13l38.905-6.48.295 1.773-38.905 6.48zM24.952 100.513l84.088-14.005.296 1.774-84.088 14.005zM25.484 103.706L109.57 89.7l.296 1.774-84.088 14.004zM26.016 106.897l84.087-14.005.296 1.774L26.31 108.67zM26.547 110.089l84.087-14.005.296 1.773-84.088 14.005zM27.078 113.28l58.182-9.69.296 1.773-58.182 9.69zM28.142 119.664l84.087-14.005.296 1.773-84.088 14.005zM28.673 122.856l84.088-14.005.295 1.773-84.088 14.005zM29.205 126.048l84.087-14.005.296 1.773L29.5 127.821zM29.736 129.24l24.042-4.005.295 1.774-24.041 4.004zM78.141 137.697l.245-1.06c-2.34.307-4.599.741-6.555 1.335-2.555.775-4.608 1.83-5.691 3.242a.509.509 0 0 0 .805.62c.943-1.228 2.818-2.173 5.18-2.89 1.793-.544 3.86-.95 6.016-1.247zm-15.443-6.241a.51.51 0 0 1-.052-1.019c.514-.027 2.392-1.206 4.475-2.642 3.036-2.095 6.41-4.692 6.776-5.175.233-.318.547-.302.784-.052a.51.51 0 0 1-.009.71l-.033.036c-.135.46-.408 1.094-.746 1.876a819.606 819.606 0 0 0-3.039 7.107c.932-1.418 1.815-2.536 2.302-2.535.444.001.692.285.691.92 0 .296-.178.862-.377 1.5-.268.856-.59 1.869-.588 1.87.079.07.065-.335.597-.933l.014-.014c0-.001.625-.866 1.173-1.618.27-.372.521-.718.663-.917.412-.574.725-.713 1.028-.496.359.257.195.64-.042 1.21-.329.783-.917 2.186-.76 2.719.013.04.109.04.344-.029.256-.076.891-.664 1.361-1.097.454-.42.806-.744 1.142-.622.158.057.267.14.32.253.201-.085.414-.117.633-.07l-.228.99c-.034-.007-.075.006-.12.032l.11.012-.315 1.362c-.104-.106-.163-.259-.188-.448-.024-.19.014-.401.07-.615a8.627 8.627 0 0 0-.492.676c-.2.297-.32.482-.71.331-.232-.09-.344-.23-.339-.435-.345.285-.688.527-.954.605-.945.282-1.422-.029-1.608-.655-.078-.262-.073-.59-.018-.943l-.26.353a.588.588 0 0 1-.063.091c-1.026 1.153-1.652 1.357-2.032 1.019-.492-.437-.068-1.792.289-2.934.071-.23.14-.447.195-.635-.892 1.199-2.712 4.424-3.687 6.15-.24.425-.442.785-.63 1.036a.51.51 0 0 1-.667.366c-.321-.115-.43-.346-.297-.698 1.252-3.357 4.098-9.95 5.548-13.309l.028-.061a105.348 105.348 0 0 1-5.286 3.904c-2.215 1.528-4.277 2.785-5.003 2.824zm16.657.982c.045.01.09.023.136.04.402.149.448.447.382.803.27-.233.583-.418.94-.418 1.191 0 3.12.09 5.002.236 1.637.127 3.256.298 4.351.49 1.096.191 3.257.75 4.983 1.55 1.221.565 2.247 1.268 2.618 2.09a.508.508 0 0 1-.03.472.502.502 0 0 1-.228.2v.001l-.028.011a.5.5 0 0 1-.275.023 4.709 4.709 0 0 1-.287-.031c-1.576-.198-8.688-1.09-14.61-.644a68.316 68.316 0 0 0-4.168.436l.245-1.06a70.234 70.234 0 0 1 3.847-.392c5.13-.386 11.117.213 13.761.522a8.634 8.634 0 0 0-1.27-.704c-1.64-.76-3.694-1.29-4.736-1.473-1.044-.183-2.631-.349-4.252-.474-1.872-.145-3.769-.235-4.925-.236-.143 0-.437.319-.667.567-.252.273-.46.5-.742.536-.28.037-.474-.02-.6-.15l.315-1.361c.11.01.17.014.023-.04l-.013-.004.228-.99z"/>
        <path fill="#725048" d="M86.161 123.034c2.19-1.617 4.415-2.918 6.283-5.523 1.868-2.605 6.84-14.046 11.608-14.283 4.768-.237 9.167 7.697 10.71 9.44 1.54 1.743 2.614 2.892 4.416 3.532 1.801.64 3.518 2.477 8.04 2.899 4.523.42 11.461 3.06 12.77 12.935 1.308 9.875 1.735 14.293 3.99 19.93 2.253 5.638 4.944 16.716 5.782 19.548.837 2.83 8.107 10.062 12.129 14.737 4.022 4.674-32.047 17.543-36.094 12.29-4.046-5.254-7.568-10.223-12.484-13.46-4.916-3.238-17.607-11.945-23.36-18.013-5.754-6.068-14.416-15.527-16.291-17.904-1.877-2.377-1.047-4.528.442-6.434 1.488-1.907 1.843-3.185 4.58-3.848 2.735-.662 2.98-1.32 3.51-2.504.53-1.183 1.808-1.708 2.817-1.273 1.008.435 2.722 1.533 3.44 3.96.718 2.426.839 4.45 1.856 5.909 1.018 1.457 3.219 3.446 5.86 2.957 2.641-.488 3.4-1.885 5.673-4.61 2.272-2.724 3.004-7.192 3.309-9.628.305-2.436-.361-7.663-.41-8.822-.05-1.158-.574-1.442-1.622-2.012-1.048-.57-4.62 3.712-7.211 5.358-2.592 1.646-5.298 1.42-7.869 1.154-7.201-.744-4.083-4.704-1.874-6.335"/>
        <path stroke="#000" stroke-width=".254" d="M91.064 138.398l.754.41c.384.209.492.279.626-.012-1.685-2.578.156-5.43 2.613-5.662.107-.257-.013-.336-.452-.525l-.714-.31c-2.456.233-4.511 3.52-2.827 6.099z"/>
        <path fill="#5E433D" d="M88.44900000000001 139.06300000000002c.442 1.492.657 2.831.995 3.981-.375-1.242-.607-2.67-.995-3.981m13.46-15.84c-1.567 1.04-4.061 3.757-6.005 4.992 1.787-1.135 4.387-3.933 6.006-4.992m3.457 8.716c.321-3.18-.078-6.427-.088-7.406-.009-.978-.648-2.191-2.6-3.577-1.953-1.386-2.628-6.513-2.374-8.972.255-2.459-.691-.918-.817 1.503-.125 2.421.714 5.257 1.262 6.637s-1.24 4.087-3.165 5.638c-1.925 1.55-4.528 2.94-5.94 3.207-2.705.509-4.606.22-7.697-1.15a12.152 12.152 0 0 0 2.645 1.331c-.784-.163-1.392-.379-1.85-.633l1.178 7.08a6.066 6.066 0 0 1 2.256 2.714c-.712-1.65-2-2.724-3.403-3.227 2.08 2.101.482 3.782-.824 3.61-1.305-.17 4.115 1.587 4.262 3.506.147 1.92-3.887 2.973-.813 3.887 3.074.913 5.949 2.663 8.392 2.298 2.441-.365 9.422-3.221 9.576-16.446"/>
        <path fill="#000" d="M81.462 132.84c.643.391 43.69 23.62 43.69 23.62 3.93 1.661 8.117-6.2 3.151-8.426l-44.339-19.865c-2.645-1.186-5.26 2.999-2.502 4.672"/>
        <path fill="#0D1D24" d="M76.882 128.102l2.037 1.776c1.18 1.028 2.599-1.748 1.182-2.114l-2.755-.71c-.61-.157-1.02.564-.464 1.048"/>
        <path fill="#BFBFBF" d="M122.458 154.756c.143-.159-.314-.716-.605-.334l-.997 1.313s-3.955-1.186-6.52-3.061c-2.565-1.876-6.168-5.383-7.058-5.863-.888-.48-2.843-.427-2.896.212-.054.64.69 1.044 1.686 1.13.996.087 2.435.736 3.551 1.93 1.116 1.195 2.452 2.083 4.259 3.385 1.806 1.302 6.931 4.568 8.108 4.913 1.176.346 1.619-.194 2.862-2.086l-.447-.241c-.5.721-1.472 1.771-1.472 1.771s-.626-.127-1-.57c-.374-.444-.555-1.291-.555-1.291l1.084-1.208zM81.263 133.06l10.555 5.748c.384.21.493.279.626-.012-1.685-2.578.156-5.43 2.613-5.662.107-.257-.013-.335-.452-.526l-11.031-4.769c-2.877-1.244-5.536 3.464-2.31 5.22"/>
        <path fill="#BFBFBF" d="M122.554 155.057l2.598 1.402c3.93 1.662 8.117-6.2 3.151-8.425l-2.066-.926c-1.51-.421-3.391.67-4.397 2.639-1.07 2.094-.756 4.41.683 5.281l.03.029z"/>
        <path fill="#000" d="M128.682 148.918c1.38.705 1.708 2.824.732 4.734-.975 1.908-2.884 2.884-4.264 2.18-1.381-.707-1.708-2.825-.732-4.735.974-1.909 2.885-2.884 4.264-2.179"/>
        <path fill="#AB826D" d="M121.98 193.593c-.815-2.336 17.38-19.073 27.78-22.082 10.398-3.008-20.054 39.96-27.78 22.082"/>
        <g transform="rotate(13 -640.374 603.361)">
            <mask id="d" fill="#fff">
                <use xlink:href="#c"/>
            </mask>
            <path fill="#FF7900" d="M.345 30.016C.908 28.554 31.448 1.358 35.697.468c2.826-.591 6.316 3.432 7.836 4.778 6.142 5.444 65.59 58.29 68.7 70.59L46.037 85.82C31.906 76.305 8.267 43.27 1.506 34.045.254 32.338-.087 31.14.346 30.015" mask="url(#d)"/>
        </g>
        <path fill="#000" d="M117.3 195.44l.537-.463c.808-.696.974-2.066.222-2.872-.751-.804-2.009-.965-2.871-.222l-.538.463c-.808.696-.974 2.066-.222 2.872.751.804 2.009.965 2.872.222M121.069 193.505c1.274-.311 2.287-.981 3.117-1.99.68-.825.364-2.28-.514-2.834-.998-.63-2.11-.367-2.834.513-.138.165-.103.127.105-.112a3.116 3.116 0 0 1-.371.32c.252-.157.312-.196.18-.117-.125.068-.254.13-.38.197-.202.08-.149.067.156-.039a3.269 3.269 0 0 1-.236.063c-1.033.253-1.877 1.282-1.611 2.388.247 1.03 1.28 1.883 2.388 1.611M128.595 190.069l1.561-.912c.918-.535 1.494-1.702.943-2.721-.491-.91-1.737-1.518-2.721-.944l-1.561.912c-.919.536-1.494 1.703-.944 2.721.491.91 1.738 1.519 2.722.944M136.417 185.436c-.166.277-.203.35-.114.22.091-.124.039-.064-.159.184l-.245.165c-.33.089-.389.114-.18.074 1.053-.172 1.863-1.34 1.611-2.388-.263-1.099-1.26-1.796-2.387-1.612-1.1.18-1.952.96-2.359 1.975-.397.988.2 2.289 1.225 2.607 1.086.337 2.182-.166 2.608-1.225M141.95 182.826c-.055.063-.312.3-.102.14-.123.094-.342.26-.09.07.159-.12-.372.074-.174.047.151-.02.44-.048-.142-.022.563-.025 1.037-.103 1.482-.484.38-.325.69-.882.705-1.39.033-.994-.733-2.237-1.873-2.187-.643.027-1.186.087-1.778.37-.567.273-.968.669-1.376 1.135-.325.372-.415 1.087-.325 1.548.093.482.417 1.02.839 1.286.452.286 1.013.455 1.549.326.548-.131.917-.418 1.285-.84M147.967 180.257l2.088-.817c.995-.39 1.438-1.807.944-2.722-.559-1.033-1.659-1.36-2.722-.943l-2.088.817c-.995.39-1.438 1.807-.944 2.722.558 1.033 1.658 1.36 2.722.943M154.213 177.462l1.556-.639c.988-.404 1.444-1.795.944-2.721-.552-1.02-1.666-1.377-2.722-.944l-1.556.638c-.988.406-1.444 1.796-.944 2.722.552 1.02 1.666 1.377 2.722.944"/>
        <path fill="#000" d="M158.597 175.832c2.613.202 2.932-3.859.314-4.06-2.613-.203-2.932 3.857-.314 4.06"/>
        <path fill="#FFF" d="M127.105 198.713l.537-.463c.808-.696.975-2.066.222-2.872-.751-.804-2.009-.965-2.87-.222l-.538.463c-.81.696-.975 2.066-.223 2.872.751.805 2.009.965 2.872.222M132.4 196.14l1.556-.634c.99-.402 1.444-1.797.944-2.722-.552-1.022-1.664-1.373-2.721-.943l-1.558.634c-.99.403-1.443 1.798-.944 2.721.553 1.023 1.664 1.375 2.722.944M139.704 192.684l1.348-.872c.464-.3.83-.599 1.027-1.141.171-.476.16-1.128-.084-1.58-.472-.874-1.765-1.563-2.722-.944-.45.29-.898.581-1.347.872-.466.3-.832.598-1.027 1.14-.172.476-.162 1.129.083 1.581.472.874 1.765 1.562 2.722.944M144.462 189.5l1.319-.63c.962-.459 1.464-1.757.943-2.721-.527-.975-1.693-1.435-2.722-.943l-1.319.63c-.961.459-1.463 1.758-.943 2.72.527.977 1.693 1.436 2.722.945M150.453 186.676l2.945-1.41c.962-.46 1.466-1.757.944-2.721-.526-.975-1.693-1.436-2.721-.944l-2.946 1.41c-.962.46-1.464 1.758-.944 2.722.527.975 1.694 1.436 2.722.943"/>
        <path fill="#FFF" d="M156.734 183.672l.782-.453c.92-.533 1.493-1.704.943-2.722-.492-.912-1.736-1.515-2.721-.943l-.782.453c-.92.534-1.493 1.705-.944 2.722.493.912 1.737 1.515 2.722.943M161.987 181.096l.519-.211c.989-.402 1.443-1.798.943-2.722-.552-1.022-1.664-1.374-2.722-.943l-.519.21c-.989.404-1.442 1.799-.943 2.722.552 1.023 1.664 1.375 2.722.944"/>
        <path fill="#000" d="M37.9 143.174l-4.611.838a.95.95 0 1 0 .34 1.872l2.351-.427-3.095 4.472a.95.95 0 1 0 1.564 1.083l3.095-4.473.428 2.351a.951.951 0 1 0 1.872-.34l-.839-4.61a.951.951 0 0 0-1.106-.766"/>
        <path fill="#F60" d="M41.887 149.145l4.61-.838a.952.952 0 0 0-.34-1.872l-2.351.427 3.095-4.471a.951.951 0 1 0-1.564-1.084l-3.096 4.472-.428-2.35a.952.952 0 0 0-1.871.34l.838 4.61a.95.95 0 0 0 1.107.766"/>
        <path fill="#FFF" d="M150.27 106.142l-6.318 4.48c-1.82 1.292-.012 4.267 1.818 2.97l6.316-4.481c1.821-1.292.013-4.267-1.817-2.97M132.784 93.367l-5.536 6.879c-1.396 1.735 1.115 4.148 2.52 2.402l5.535-6.878c1.396-1.735-1.115-4.148-2.519-2.403M160.502 127.071l-6.48 1.149c-.926.164-1.413 1.343-1.165 2.168.298.988 1.24 1.329 2.17 1.164l6.48-1.149c.926-.164 1.412-1.342 1.164-2.167-.298-.988-1.24-1.33-2.169-1.165M155.977 152.987l-3.087-.36c-.933-.109-1.858.324-2.083 1.312-.193.84.372 1.973 1.31 2.083l3.088.36c.933.11 1.858-.324 2.084-1.31.191-.842-.373-1.975-1.312-2.085M39.357 169.179l-4.463 6.76c-1.235 1.868 1.84 3.503 3.066 1.646l4.464-6.76c1.233-1.868-1.841-3.503-3.067-1.646M16.646 151.412l-4.25 2.93c-1.842 1.269-.03 4.242 1.816 2.969l4.25-2.93c1.842-1.27.03-4.243-1.816-2.97M19.642 170.493L16.05 174.2c-1.556 1.606.804 4.165 2.364 2.555l3.592-3.709c1.556-1.606-.804-4.165-2.364-2.554"/>
    </g>
</svg>
