<svg xmlns="http://www.w3.org/2000/svg" xmlns:xlink="http://www.w3.org/1999/xlink" width="330" height="228" viewBox="0 0 330 228">
    <defs>
        <path id="a" d="M6 0h318a6 6 0 0 1 6 6v222H0V6a6 6 0 0 1 6-6z"/>
        <path id="c" d="M0 .243h148.708v187.58H0z"/>
        <path id="e" d="M.464.415h181.093v174.727H.464z"/>
    </defs>
    <g fill="none" fill-rule="evenodd">
        <mask id="b" fill="#fff">
            <use xlink:href="#a"/>
        </mask>
        <use fill="#FFB400" xlink:href="#a"/>
        <g mask="url(#b)">
            <path fill="#714F47" d="M29.5 198.557c.07-1.637-1.007-2.727-2.074-3.402 1.329-6.38-.13-22.423-1.056-30.954-3.015 7.173-6.284 14.242-8.895 21.578 2.338 5.553 4.309 9.49 4.309 9.49-1.157 1.837-3.564 5.735-4.639 6.796-3.231 3.19-6.615 6.72-8.521 9.263-1.422 1.895-3.13 5.336-3.478 7.184-.733 3.895 1.386 5.495 2.561 4.192 1.734-1.92 6.486-7.417 6.486-7.417-2.11 3.787-4.297 9.94-2.867 10.799.438.262 1.653-1.308 3.8-5.61 6.392-12.804 11.815-16.314 11.815-16.314s.575 3.158.665 5.856c.062 1.885 2.089 1.827 2.514 1.523.915-.65-.759-9.787-.62-12.984"/>
            <path fill="#FFD200" d="M49.666 187.003l-68.25 106.773 13.148 8.88c5.48 3.456 27.113-17.76 35.697-25.24a23.522 23.522 0 0 0 3.163-3.357l29.4-38.052c1.27-1.001 1.083-1.508.4-.109l-45.971 79.987s10.036 11.89 17.62 6.868c44.41-29.417 68.049-84.433 76.319-104.487 1.862-4.515 1.92-8.61-2.25-11.153-13.55-8.26-43.334-24.677-59.276-20.11"/>
            <g transform="rotate(25 -89.611 157.551)">
                <mask id="d" fill="#fff">
                    <use xlink:href="#c"/>
                </mask>
                <path fill="#000" d="M148.702 32.524l.006-.003s-5.469-10.584-4.52-21.262C145.138.58 127.46-.22 120.441.396c-6.009.526-46.893 20.997-46.893 20.997l-17.459 4.732-26.91 10.758C20.43 42.231 1.245 53.153.015 96.187c-.639 22.37 20.323 49.88 22.755 51.687 5.2 3.864 8.112.38 11.254-5.33l-2.37-38.201c1.778-7.996 11.209-16.37 11.479-14.703 2.663 16.391-.051 43.724-6.023 83.227-1.306 8.646 34.874 15.92 43.553 14.85l37.155-5.565c6.546-.806 6.214-52.016 3.036-90.171-2.015-24.193 6.638-47.649 27.85-59.457" mask="url(#d)"/>
            </g>
            <path fill="#3F403F" d="M246.67 180.821a5.622 5.622 0 1 1-10.192-4.752 5.622 5.622 0 0 1 10.191 4.752M168.5 47.939l27.691-11.617M168.99 49.29l27.693-11.617c1.702-.715.727-3.42-.983-2.702l-27.693 11.617c-1.702.715-.727 3.419.984 2.702"/>
            <path fill="#FFD200" d="M123.175 117.74c.751-3.396 6.265-11.564 5.054-14.777l-9.336.338c-.005.031-2.577 8.274-3.695 10.654-.696 1.482-7.888 2.676-10.03 3.243-1.42.696-10.82-15.054-10.52-17.452l-5.383-.266c-1.158.834-.86 7.024-.921 7.4a7.305 7.305 0 0 0 .047 1.787c.064.317.159.65.288 1.002.321.875.697 1.73 1.094 2.575 4.162 5.977 9.128 15.03 12.738 17.743.966-.101 1.921-.497 2.81-1.045 2.922-1.799 17.795-10.937 17.854-11.202"/>
            <path fill="#FFD200" d="M98.19 125.069l-9.36 50.042 8.747 1.583 11.163-50.699zM113.365 147.12l-.464 5.274 15.88 3.41 1.255-5.902z"/>
            <path fill="#000" d="M104.355 132.186a2.035 2.035 0 1 1-3.69-1.72 2.035 2.035 0 0 1 3.69 1.72M101.953 144.294a2.035 2.035 0 1 1-3.69-1.72 2.035 2.035 0 0 1 3.69 1.72M99.634 155.69a2.036 2.036 0 1 1-3.69-1.72 2.036 2.036 0 0 1 3.69 1.72M97.096 166.486a2.036 2.036 0 1 1-3.691-1.72 2.036 2.036 0 0 1 3.69 1.72"/>
            <path fill="#62342D" d="M114.74 114.789c5.076-2.187 6.724-7.317 9.568-11.568.683-2.118 1.384-4.227 2.023-6.366.795-2.662 1.492-5.369 1.93-8.191.42-2.71 1.208-6.899-.567-9.234-3.14 2.218-4.154 5.895-6.817 8.48-3.228 3.136-8.532 5.46-13.095 4.58-2.003-.386-3.577-1.734-5.456-2.439-.942-.354-6.33-1.161-6.474-2.29.585 4.563-.281 8.628-2.844 12.318 1.52 6.363 6.966 13.049 11.529 17.802 3.754-.244 6.697-1.581 10.203-3.092"/>
            <path fill="#714E46" d="M133.722 69.839c-2.152-.608-4.571 2.9-6.452.91-.986-1.045.207-3.268.305-4.458.494-5.938 1.154-12.295-1.052-17.986-1.674-4.324-5.845-3.864-9.134-2.36-3.605 1.652-8.655.206-11.593 3.3-.84.888-.624 1.629-.488 2.628a67.727 67.727 0 0 1-3.31-.04c-.858-.033-1.677-.237-2.49-.444-.771-.196-1.538-.394-2.332-.453-1.608-.116-1.581.936-2.049 2.39a46.58 46.58 0 0 0-.952 3.465c-1.208 5.073-2.072 9.718-2.042 14.917.03 5.34.645 10.881 2.393 15.953.474 1.378 1.02 3.134 1.722 4.904 1.654 4.17 3.539 7.082 8.129 7.705 3.746.508 7.33-.963 10.8-2.172 4.2-1.464 8.721-3.676 11.299-7.475 2.168-3.195 2.649-7.559 6.598-9.237 4.394-1.867 6.473-9.899.648-11.547"/>
            <path fill="#000" d="M114.23 61.454c-1.522-.125-2.746-.641-4.192-1.069-.088 1.93.312 3.746 2.575 3.672.367-.011 3.863-.452 5.565-.552.555-.033.916-.029.923.036-.237-2.07-3.378-1.966-4.872-2.087M96.75 61.268c-1.624.601-2.797.765-2.143 2.706-.109-.323 4.14-.587 4.46-.653.555-.115.961-.285 1.253-.505.867-.652.71-1.742.329-3.144.074.288-3.583 1.48-3.899 1.596"/>
            <path fill="#E1B6AB" d="M119.994 74.556l.005-.01-.013.01z"/>
            <path fill="#E4BEB2" d="M127.588 68.686l.026-.071a.138.138 0 0 1-.026.071"/>
            <path fill="#FFF" d="M98.94 89.253c.804-.3 14.469 3.55 15.159 3.947-1.948-3.567-5.735-5.17-7.84-5.876-3.866-1.298-8.332-.313-7.536 1.857l.217.072"/>
            <path fill="#000" d="M139.45 56.165c2.177-2.511 4.78-10.221-1.471-8.814 1.419-3.544 3.994-9.794-1.841-11.02-.458-.096-5.074.373-5.13.57 2.446-8.475-12.436-8.495-14.978-2.199.974-2.028.588-4.484-.394-6.46-1.719-3.461-3.446-1.32-6.494.028-4.914 2.176-8.615 4.173-10.967 8.608-5.045-9.344-16.123 5.722-8.93 13.178 3.004 3.114 7.863 4.607 12.04 5.16 2.709.359 6.012-.13 8.518-1.22 1.523-.665 2.341-1.976 4.034-2.433 3.062-.827 7.24.076 10.085 1.368 2.715 1.236 2.138 2.15 2.447 5.212.644 6.382-.972 13.042-.5 19.36.39-.218.784-.43 1.182-.636.737-.423 1.494-.81 2.293-1.123.535-1.39.848-2.447 2.207-3.431 2.7-1.954 15.566-13.698 7.898-16.148"/>
            <path fill="#000" d="M129.023 62.071c-.542-2.223.743-4.673 0-6.922-1.388-4.182-9.643-6.031-13.488-4.836-2.773.861-4.989 2.22-7.952 2.367-3.849.19-7.866-.328-11.485-1.73-3.452-1.34-6.545-3.486-8.782-6.593-.762 10.273 16.21 14.118 23.582 10.929 1.804-.782 2.657-2.798 4.62-3.487 2.226-.78 4.75.011 6.882.738 1.081.368 2.21.845 2.996 1.69.868.93 1.047 1.837 1.036 3.071-.061 7.246.114 14.686-1.22 21.812-.111.598 3.156-1.34 3.514-2.03 1.332-2.565 1.425-4.229 3.696-6.301 1.195-1.09 2.649-2.125 2.895-3.837.863-5.992-5.545-1.812-6.294-4.87"/>
            <path fill="#62342D" d="M103.971 67.004c-.856 1.933-.758 4.197-1.502 6.198-.246.659-.751 1.236-1.28 1.774-.704.715-1.45 1.364-1.677 2.044-1.404 4.185 4.283 3.326 5.917 1.03 1.233-1.734 2.373-11.302-1.458-11.046"/>
            <path fill="#000" d="M117.541 68.309c-1.352-1.04-3.108-1.28-4.37-.597-.79.427-2.078 1.598-1.843 4.65l1.306-.101c-.13-1.713.28-2.92 1.16-3.396.814-.438 2-.246 2.948.483.994.765 1.427 1.89 1.158 3.008l1.275.306c.393-1.636-.217-3.263-1.634-4.353M98.712 68.236c-1.007-.773-2.314-.952-3.253-.444-.587.318-1.546 1.19-1.372 3.46l.975-.075c-.1-1.274.207-2.172.862-2.526.605-.327 1.486-.184 2.192.359.74.569 1.062 1.407.862 2.238l.948.228c.294-1.218-.16-2.43-1.214-3.24"/>
            <path fill="#323030" d="M94.726 38.088a1.2 1.2 0 0 1-.1-.054c-.085-.057-.167-.119-.25-.18a5.032 5.032 0 0 0-.707-.456c-.458-.229-1.035 0-1.246.453-.22.473-.003 1.017.454 1.246.033.016.067.035.1.053.084.058.166.12.25.18.224.166.456.332.707.457.457.229 1.034 0 1.246-.453.22-.473.003-1.018-.454-1.246M102.623 40.588l-2.427-1.132c-1.096-.51-1.888 1.189-.793 1.7l2.428 1.132c1.096.51 1.888-1.189.792-1.7M92.064 45.91l-.03-.015c-.007-.005-.011-.01-.02-.015-.047-.036-.09-.077-.132-.118.047.044-.088-.095-.103-.113-.055-.065-.107-.133-.16-.2-.318-.4-.864-.541-1.305-.237-.4.275-.555.905-.237 1.304.344.434.693.838 1.194 1.093.456.232 1.036-.003 1.246-.454.222-.475.002-1.013-.453-1.245M98.678 48.206l-.971-.453a.946.946 0 0 0-1.247.453.946.946 0 0 0 .454 1.246l.971.453a.946.946 0 0 0 1.246-.454.946.946 0 0 0-.453-1.245M104.681 48.55l-.017.006c-.079.013-.158.02-.238.026-.181.016-.364.019-.547.023-.51.014-.892.537-.846 1.02.05.534.509.861 1.02.848.429-.012.859-.024 1.27-.161.484-.161.73-.732.56-1.202-.178-.49-.717-.721-1.202-.56M103.601 44.106a1.281 1.281 0 0 0-.054.017l-.077.01-.07.002-.012-.002c-.251-.022-.497-.05-.75-.047-.511.003-.892.545-.847 1.02.05.526.484.829.977.844h-.005l.126.012c.104.011.208.024.314.03.365.024.69-.008 1.04-.125.484-.16.73-.731.56-1.201-.178-.49-.717-.721-1.202-.56M91.523 40.732l-.81-.377a.946.946 0 0 0-1.245.453.946.946 0 0 0 .454 1.246l.808.377a.945.945 0 0 0 1.246-.453.946.946 0 0 0-.453-1.246M110.49 39.078c-.31.049-.62.112-.929.169-.13.024-.262.046-.394.065l-.026.003c-.027-.007-.053-.018-.08-.023-.535-.09-.955.274-1.08.769-.107.414.172.887.554 1.048.26.11.532.107.806.07.443-.058.88-.164 1.322-.234.504-.08.897-.487.847-1.02-.045-.485-.515-.926-1.02-.847M110.957 29.734c-1.477-.15-3.072.202-3.53 1.794-.142.492.309 1.003.769 1.08.545.093.94-.277 1.08-.768-.025.089.084-.076.014-.015.148-.128.128-.102.317-.17.272-.1.693-.107 1.037-.072.508.052.99-.24 1.081-.768.081-.479-.26-1.03-.768-1.08M115.956 37.348l-.971-.453a.947.947 0 0 0-1.246.453.947.947 0 0 0 .453 1.247l.971.453a.946.946 0 0 0 1.246-.454.946.946 0 0 0-.453-1.246M122.805 33.646c-.924-.4-1.915-.178-2.62.523-.363.36-.26 1.011.106 1.321.414.353.96.254 1.322-.106-.139.137-.009.025.068-.033l.016-.007c.017-.006.05-.014.08-.022.045-.002.109-.001.143-.002l.06.01.033.015c.469.203 1.025.02 1.246-.454.21-.452.015-1.042-.454-1.245M120.111 43.226l-1.133-.528a.947.947 0 0 0-1.246.453.947.947 0 0 0 .454 1.246l1.133.529a.946.946 0 0 0 1.245-.454.946.946 0 0 0-.453-1.246M125.718 47.848l-.043-.042a3.365 3.365 0 0 1-.106-.138c-.074-.098-.14-.202-.21-.303a5.074 5.074 0 0 0-.634-.768c-.363-.36-1.01-.26-1.322.106-.35.411-.257.962.106 1.321.017.019.031.032.043.043.036.045.072.091.107.138.074.098.141.202.21.303.186.277.395.532.633.768.363.36 1.01.26 1.322-.106.35-.412.256-.963-.106-1.322M132.458 40.154c-.508-.458-1.14-.765-1.755-1.052-1.095-.511-1.888 1.188-.792 1.7.498.232.95.436 1.331.78.9.812 2.11-.62 1.216-1.428M129.367 45.77a.946.946 0 0 0-1.245.453.946.946 0 0 0 .453 1.245c.056.027.11.057.164.087.005.01.014.018.02.028l-.004-.006c.237.36.677.543 1.108.387.464-.169.758-.73.56-1.202-.2-.483-.593-.777-1.056-.993M135.048 43.475c-.397-.455-.928-.632-1.526-.553-.505.067-.895.497-.847 1.02.043.454.44.84.897.85.004.054.008.11.01.165.02.51.532.892 1.02.846.529-.05.867-.51.847-1.02-.017-.444-.099-.96-.401-1.308M137.869 50.234a.946.946 0 0 0-1.202-.56.946.946 0 0 0-.56 1.2l.259.713a.946.946 0 0 0 1.201.56.947.947 0 0 0 .56-1.202l-.258-.711M137.683 57.064c-.054.345-.362.755-.763 1.015-1.018.658.056 2.196 1.068 1.542.758-.49 1.403-1.34 1.544-2.244.187-1.193-1.662-1.51-1.849-.313M131.722 59.189c-.161-.485-.731-.732-1.201-.56-.49.178-.722.717-.56 1.202l.006.018c.012.078.02.157.026.236.015.182.018.365.023.547.013.51.537.892 1.02.846.533-.05.86-.509.847-1.02-.011-.428-.024-.858-.161-1.27M129.754 65.793c-.534.05-.861.51-.847 1.02l.004.212v.06l-.005.058a2.37 2.37 0 0 1-.05.303l-.004.01c-.02.054-.042.106-.066.159a.949.949 0 0 0 .454 1.246c.456.212 1.039.013 1.246-.454.254-.575.304-1.145.288-1.767-.014-.51-.538-.892-1.02-.847M134.29 65.046c-.492-.083-1.012.262-1.08.769-.059.421-.184.69-.47 1.004-.343.379-.273.999.106 1.322.399.338.98.272 1.322-.106a3.532 3.532 0 0 0 .89-1.909c.07-.505-.253-.993-.768-1.08M128.158 71.748c-.54.05-.85.51-.846 1.02v.003c-.004.05-.01.1-.016.15-.014.127-.039.252-.064.376-.006.03-.07.278-.065.272-.036.11-.08.218-.127.324a.948.948 0 0 0 .454 1.246c.457.213 1.038.014 1.245-.453a5.08 5.08 0 0 0 .44-2.09c-.003-.512-.545-.892-1.02-.848M138.906 62.771a.98.98 0 0 0-.973-.388.93.93 0 0 0-.446-.076c-.523.048-.874.51-.847 1.02.013.232.082.442.2.642.163.272.422.379.709.468.19.059.47-.002.646-.08a2.2 2.2 0 0 0 .474-.281c.403-.314.54-.867.237-1.305M113.658 48.043c-.281-.409-.896-.544-1.304-.238-.021.017-.044.032-.066.047-.024.01-.048.017-.072.025-.174.028-.351.03-.527.036-.51.014-.892.536-.846 1.02.05.533.51.861 1.02.847.55-.015 1.106-.093 1.559-.433.408-.306.535-.873.236-1.304M120.152 47.777a.946.946 0 0 0-1.243.454.947.947 0 0 0 .454 1.247c.42.195.832.241 1.278.096.486-.158.73-.734.56-1.202-.16-.441-.608-.666-1.05-.595M105.052 53.382c-.297-.029-.596-.033-.894-.039-.114-.002-.146-.006-.297-.022a2.344 2.344 0 0 1-.196-.034l-.056-.024c-.472-.196-1.023-.023-1.245.454-.21.45-.019 1.048.453 1.246.629.263 1.339.212 1.923.269.508.05.99-.239 1.08-.77.081-.476-.26-1.03-.768-1.08M97.405 51.356l-.647-.302a.947.947 0 0 0-1.246.453.947.947 0 0 0 .453 1.246l.648.302a.946.946 0 0 0 1.246-.453.946.946 0 0 0-.454-1.246M111.09 52.13c-.065.022-.13.04-.196.06.003-.008-.208.032-.255.035-.07.006-.141.005-.211.005 0-.005-.251-.02-.296-.025-.507-.056-.991.242-1.08.768-.082.482.26 1.025.768 1.081.659.073 1.28.058 1.911-.163.483-.168.733-.726.56-1.201a.948.948 0 0 0-1.2-.56M92.634 49.168a2.98 2.98 0 0 1-.49-.091l-.026-.01c-.21-.073-.412-.172-.614-.266a.946.946 0 0 0-1.246.453.947.947 0 0 0 .453 1.246c.517.24 1.042.444 1.611.517.506.066.992-.25 1.08-.768.083-.489-.261-1.015-.768-1.081M125.389 52.189l-1.942-.905c-1.096-.511-1.888 1.188-.792 1.7l1.941.904c1.096.511 1.888-1.188.793-1.699"/>
            <path fill="#62342D" d="M111.867 103.408c.16.004.347.003.553-.004 2.118-.07 6.405-.612 7.229 1.129.64 1.35-.038 3.338.437 4.86.975-1.193 1.834-2.493 2.698-3.833.523-1.654.894-3.369 1.216-4.324 1.284-3.816 3.14-7.29 3.519-11.386-1.095 1.027-2.495 3.019-3.96 4.28-2.153 1.85-5.626 2.904-8.202 3.967-3.669 1.513-7.704 2.463-11.69 2.155 1.899 2.838 5.087 3.063 8.2 3.156M136.08 71.853c-2.296-4.727-8.86 8.07-9.831 7.212-.676-1.84-.283-4.912-.446-6.93-.224-2.764.083-5.637.36-8.386.335-3.32.894-7.989-2.333-10.03-2.95-1.866-8.053-2.422-10.766.063-.479.438-.98.82-1.501 1.15-5.272 3.34-10.76 1.028-16.296.317 2.283 3.666 10.476 4.839 14.225 3.576 2.115-.712 3.593-1.627 5.772-1.594 3.195.047 7.723.104 8.841 3.594 1.183 3.69.107 8.187-.421 11.902-.338 2.369-1.008 5.48 1.49 6.887 3.238 1.824 4.107-2.815 7.098-2.892 1.183-.03 3.052 1.028 3.991-.1.791-.948.286-3.802-.183-4.769"/>
            <path fill="#62342D" d="M131.97 74.222c-.235 1.308-.342 2.67-.495 4l1.846-.243c.658-1.53 1.329-4.089-1.351-3.757"/>
            <path fill="#252627" d="M99.494 43.83c-1.66-1.271-3.795-1.766-5.807-1.112-1.153.375-.508 2.136.64 1.762 1.356-.44 2.836-.076 3.95.778.958.734 2.176-.692 1.217-1.427M110.516 33.862c-2.298-.984-5.088-.33-6.643 1.651-.746.95.681 2.166 1.428 1.216 1.035-1.319 2.866-1.835 4.423-1.168 1.11.475 1.905-1.222.792-1.7M116.393 45.025c-1.718-.743-3.686-.915-5.532-.666-1.193.162-1.028 2.03.174 1.868 1.52-.205 3.145-.117 4.566.497 1.107.479 1.903-1.22.792-1.7M126.318 39.9c-.92-.428-1.81-.737-2.837-.739-.51 0-.89.549-.846 1.022.05.543.509.846 1.02.846.671 0 1.277.294 1.87.57 1.098.511 1.89-1.188.793-1.699M133.631 51.802c-.243-1.169-2.115-1.012-1.867.173.366 1.759.666 3.535 1.267 5.234.404 1.14 2.166.498 1.762-.642-.549-1.55-.828-3.16-1.162-4.765"/>
            <path fill="#FDD230" d="M123.836 73.631c-.579 1.856-2.021 5.751-8.458 5.184-6.438-.567-6.867-4.286-7.358-7.591-.492-3.305 2.49-3.716 2.49-3.716 8.432-1.561 13.557 1.974 13.557 1.974.606.36.347 2.29-.231 4.15m-21.317-3.21c-1.417 3.027-2.89 6.467-9.22 5.174-6.33-1.294-6.6-5.44-6.623-7.387-.023-1.941.279-3.869.963-4.038 0 0 5.918-1.924 13.557 1.976 0 0 2.742 1.247 1.323 4.275m6.255-4.713s-1.105 1.732-2.967 1.411c-1.873-.224-2.432-2.196-2.432-2.196C93.018 59.979 83.9 62.73 83.9 62.73l-.24 1.655c.004 1.395 1.313 2.235 1.313 2.235-.15 3.508.043 9.546 8.53 10.786 8.485 1.24 9.135-3.931 9.938-5.557.802-1.627 1.873-1.32 1.873-1.32s1.114.013 1.416 1.8c.304 1.787-.548 6.93 7.938 8.163 8.486 1.238 10.398-4.496 11.253-7.9 0 0 1.5-.43 1.896-1.763l.243-1.661s-7.953-5.24-19.285-3.46"/>
            <path fill="#000" d="M123.836 73.631c-.579 1.855-2.021 5.752-8.457 5.184-6.439-.566-6.868-4.285-7.36-7.591-.49-3.305 2.492-3.716 2.492-3.716 8.432-1.56 13.556 1.974 13.556 1.974.606.36.348 2.29-.23 4.15m-21.317-3.21c-1.418 3.028-2.892 6.468-9.221 5.174-6.329-1.294-6.6-5.44-6.624-7.386-.022-1.943.28-3.87.964-4.039 0 0 5.919-1.924 13.557 1.976 0 0 2.742 1.247 1.324 4.274"/>
            <path fill="#62352D" d="M140.956 106.075l22.116.499 77.852-59.786L272.61 89.3l17.255-.328 3.93 12.265s-24.259 11.856-30.21 15.3c-5.95 3.445-78.077 24.642-78.077 24.642l-27.501-6.19s-22.734-14.365-17.052-28.914"/>
            <g transform="rotate(25 95.531 373.331)">
                <mask id="f" fill="#fff">
                    <use xlink:href="#e"/>
                </mask>
                <path fill="#595A5A" d="M179.51 100.434L65.871 1.868a5.94 5.94 0 0 0-8.362.576L1.933 65.972a5.94 5.94 0 0 0 .562 8.384l113.667 99.32a5.94 5.94 0 0 0 8.402-.59l55.548-64.281a5.941 5.941 0 0 0-.603-8.371" mask="url(#f)"/>
            </g>
            <path fill="#8F8F8F" d="M287.913 158.266L226.58 20.91a5.94 5.94 0 0 0-7.823-3.012L141.54 51.985a5.94 5.94 0 0 0-3.033 7.837l61.041 138.051a5.94 5.94 0 0 0 7.865 3.017l77.51-34.782a5.94 5.94 0 0 0 2.991-7.842"/>
            <path fill="#FFF" d="M275.239 148.26L224.153 33.854a4.947 4.947 0 0 0-6.515-2.509l-64.315 28.392a4.948 4.948 0 0 0-2.527 6.527l50.843 114.983a4.946 4.946 0 0 0 6.55 2.513l64.557-28.971a4.947 4.947 0 0 0 2.493-6.53"/>
            <path fill="#FC0" d="M187.941 119.847c6.535 14.015 23.195 20.078 37.21 13.543s20.079-23.195 13.543-37.21c-6.535-14.015-23.195-20.078-37.21-13.543s-20.078 23.195-13.543 37.21z"/>
            <path fill="#000" d="M212.526 111.401l-5.126-9.316c-.994-1.817-1.681-3.134-2.062-3.95-.518-1.11-.63-2.113-.339-3.007.292-.893.913-1.562 1.863-2.005 1.151-.536 2.106-.497 2.866.118.76.615 1.488 1.672 2.187 3.171.412.883.783 1.802 1.114 2.756l3.751 10.298c.456 1.222.676 2.218.662 2.99-.015.773-.376 1.325-1.086 1.656-.722.337-1.366.266-1.931-.212-.565-.477-1.198-1.31-1.899-2.499zm8.388 12.17a3.485 3.485 0 0 1-2.508.203c-.855-.244-1.505-.842-1.948-1.792a3.182 3.182 0 0 1-.114-2.525c.31-.853.888-1.477 1.73-1.87.844-.393 1.699-.437 2.566-.133a3.146 3.146 0 0 1 1.88 1.701c.437.937.48 1.813.127 2.63a3.391 3.391 0 0 1-1.733 1.785z"/>
            <path fill="#714F47" d="M230.477 59.397l-.603-.89c-3.04-4.492-1.853-10.655 2.64-13.696l10.26-6.945c4.492-3.04 10.656-1.853 13.697 2.64l.602.89c3.04 4.49 1.853 10.655-2.64 13.696l-10.26 6.944c-4.492 3.041-10.656 1.853-13.696-2.639"/>
            <path fill="#91766F" d="M241.664 43.801l-.15-.054-.004-.002c-.297-.112-.59-.125-.807.022l-4.907 3.32c-.617.418-.647 1.459-.068 2.315l5.552 8.202c.579.855 1.556 1.214 2.173.796l4.8-3.249c.414-.28.435-.973.046-1.549l-6.635-9.8z"/>
            <path fill="#714F47" d="M243.525 77.28l-.602-.89c-3.042-4.492-1.854-10.655 2.638-13.696l10.261-6.945c4.493-3.04 10.656-1.853 13.697 2.64l.602.89c3.04 4.492 1.854 10.655-2.639 13.696l-10.26 6.944c-4.493 3.041-10.657 1.854-13.697-2.639"/>
            <path fill="#91766F" d="M254.712 61.684l-.149-.054-.005-.002c-.297-.111-.59-.125-.807.022l-4.907 3.322c-.617.416-.647 1.458-.068 2.313l5.552 8.202c.579.856 1.556 1.214 2.173.796l4.8-3.248c.414-.281.435-.974.046-1.549l-6.635-9.802z"/>
            <path fill="#714F47" d="M254.835 93.546l-.602-.89c-3.041-4.492-1.854-10.655 2.639-13.696l10.26-6.946c4.492-3.04 10.656-1.853 13.697 2.64l.602.89c3.041 4.492 1.853 10.655-2.64 13.696l-10.26 6.945c-4.492 3.041-10.655 1.853-13.696-2.639"/>
            <path fill="#91766F" d="M266.022 77.95l-.149-.054-.004-.003c-.297-.11-.591-.124-.808.023l-4.907 3.32c-.617.418-.647 1.459-.068 2.315l5.552 8.201c.579.856 1.556 1.214 2.173.797l4.8-3.249c.414-.28.435-.974.046-1.549l-6.635-9.8z"/>
            <path fill="#714F47" d="M276.612 102.586l-.602-.889c-3.041-4.493-1.853-10.656 2.639-13.697l10.26-6.945c4.493-3.04 10.657-1.853 13.698 2.64l.602.89c3.04 4.491 1.853 10.655-2.64 13.696l-10.26 6.945c-4.492 3.04-10.656 1.853-13.697-2.64"/>
            <path fill="#91766F" d="M287.8 86.99l-.15-.054-.004-.002c-.297-.111-.591-.125-.808.022l-4.907 3.321c-.616.417-.647 1.458-.068 2.314l5.552 8.202c.579.856 1.557 1.214 2.173.796l4.8-3.249c.415-.28.435-.973.046-1.548l-6.635-9.801z"/>
            <path fill="#714F47" d="M169.097 137.11l-.676.836c-3.416 4.214-9.659 4.868-13.872 1.453l-18.17-14.726c-4.216-3.415-4.87-9.658-1.454-13.873l.676-.835c3.415-4.214 9.658-4.868 13.873-1.453l18.17 14.726c4.215 3.416 4.869 9.658 1.453 13.873"/>
            <path fill="#91766F" d="M148.679 129.116l.016.179.001.005c.031.36.169.697.445.922l6.256 5.068c.786.637 1.96.502 2.61-.3l6.237-7.696c.65-.802.539-1.98-.247-2.616l-6.119-4.959a1.245 1.245 0 0 0-1.748.201l-7.451 9.196z"/>
            <path fill="#FFD200" d="M16.524 196.26c.121.416.233.835.332 1.257 4.073 1.986 9.545.79 13.253-2.942l-13.585 1.684z"/>
            <path fill="#FFD200" d="M31.549 190.825c-.02-.008-.041-.018-.062-.025-3.868 5.084-10.611 4.633-16.248 2.082 1.442 2.959 2.018 6.03 2.354 9.19 1.553.364 3.175.46 4.535.384 2.577-.146 4.945-.98 7.086-2.249.703-3.142 1.612-6.24 2.335-9.382"/>
        </g>
    </g>
</svg>
