<svg xmlns="http://www.w3.org/2000/svg" xmlns:xlink="http://www.w3.org/1999/xlink" width="16" height="20" viewBox="0 0 16 20">
    <defs>
        <path id="a" d="M8 20a2 2 0 0 0 2-2H6a2 2 0 0 0 2 2zm7.92-3.858l-1.178-1.975V8.545c0-3.162-2.153-5.858-5.056-6.626V1.7C9.686.761 8.93 0 8 0c-.93 0-1.686.761-1.686 1.7v.215C3.404 2.669 1.258 5.33 1.258 8.5v5.667L.08 16.142a.57.57 0 0 0-.007.57c.1.178.286.288.488.288h14.878c.202 0 .389-.11.488-.288a.57.57 0 0 0-.007-.57z"/>
    </defs>
    <use fill="#333" fill-rule="nonzero" xlink:href="#a"/>
</svg>
