<svg xmlns="http://www.w3.org/2000/svg" xmlns:xlink="http://www.w3.org/1999/xlink" width="20" height="24" viewBox="0 0 20 24">
    <defs>
        <path id="a" d="M9.986 24c1.534 0 2.777-1.228 2.777-2.743H7.21C7.21 22.772 8.453 24 9.986 24zm9.787-4.467l-1.456-2.39V10.34c0-3.827-2.66-7.09-6.248-8.019v-.265C12.07.921 11.137 0 9.986 0c-1.15 0-2.082.921-2.082 2.057v.26c-3.595.913-6.249 4.134-6.249 7.969v6.857L.2 19.533a.678.678 0 0 0-.009.69.696.696 0 0 0 .604.348h18.383c.25 0 .48-.133.604-.348a.678.678 0 0 0-.01-.69z"/>
    </defs>
    <g fill="none" fill-rule="evenodd">
        <mask id="b" fill="#fff">
            <use xlink:href="#a"/>
        </mask>
        <g fill="#FF7900" mask="url(#b)">
            <path d="M-2 0h24v24H-2z"/>
        </g>
    </g>
</svg>
