<svg xmlns="http://www.w3.org/2000/svg" xmlns:xlink="http://www.w3.org/1999/xlink" width="366" height="287" viewBox="0 0 366 287">
    <defs>
        <filter id="a" width="108.3%" height="108%" x="-4.2%" y="-4%" filterUnits="objectBoundingBox">
            <feOffset dy="2" in="SourceAlpha" result="shadowOffsetOuter1"/>
            <feGaussianBlur in="shadowOffsetOuter1" result="shadowBlurOuter1" stdDeviation="4"/>
            <feColorMatrix in="shadowBlurOuter1" result="shadowMatrixOuter1" values="0 0 0 0 0 0 0 0 0 0 0 0 0 0 0 0 0 0 0.05 0"/>
            <feMerge>
                <feMergeNode in="shadowMatrixOuter1"/>
                <feMergeNode in="SourceGraphic"/>
            </feMerge>
        </filter>
        <path id="b" d="M6 0h338a6 6 0 0 1 6 6v264.667H0V6a6 6 0 0 1 6-6z"/>
        <filter id="c" width="180.5%" height="153.8%" x="-40.3%" y="-26.8%" filterUnits="objectBoundingBox">
            <feOffset dx="10" dy="22" in="SourceAlpha" result="shadowOffsetOuter1"/>
            <feGaussianBlur in="shadowOffsetOuter1" result="shadowBlurOuter1" stdDeviation="17.5"/>
            <feColorMatrix in="shadowBlurOuter1" result="shadowMatrixOuter1" values="0 0 0 0 0 0 0 0 0 0 0 0 0 0 0 0 0 0 0.5 0"/>
            <feMerge>
                <feMergeNode in="shadowMatrixOuter1"/>
                <feMergeNode in="SourceGraphic"/>
            </feMerge>
        </filter>
        <path id="e" d="M0 .372h271.488v407.83H0z"/>
        <path id="g" d="M0 408.628h271.488V.798H0z"/>
    </defs>
    <g fill="none" fill-rule="evenodd" filter="url(#a)" transform="translate(8 6)">
        <mask id="d" fill="#fff">
            <use xlink:href="#b"/>
        </mask>
        <use fill="#A885D8" xlink:href="#b"/>
        <g filter="url(#c)" mask="url(#d)">
            <g transform="translate(39 -163)">
                <g transform="translate(0 .426)">
                    <mask id="f" fill="#fff">
                        <use xlink:href="#e"/>
                    </mask>
                    <path fill="#FFF" d="M249.909 408.202H21.579c-11.87 0-21.58-9.71-21.58-21.58V21.953C0 10.081 9.71.371 21.58.371h228.33c11.868 0 21.579 9.71 21.579 21.58v364.67c0 11.87-9.71 21.58-21.58 21.58" mask="url(#f)"/>
                </g>
                <mask id="h" fill="#fff">
                    <use xlink:href="#g"/>
                </mask>
                <path fill="#EFBC92" d="M29.948 303.973h210.395V121.838H29.948z" mask="url(#h)"/>
                <path fill="#000" d="M31.55 314.915l3.38 5.206h.018v-5.206h.809v6.418h-.935l-3.354-5.152h-.018v5.152h-.809v-6.418zM37.393 316.253a.85.85 0 0 0 .23.59c.153.171.358.257.615.257s.464-.086.615-.257a.85.85 0 0 0 .23-.59.821.821 0 0 0-.243-.597.807.807 0 0 0-.602-.248.801.801 0 0 0-.606.248.825.825 0 0 0-.24.597m.846-1.294c.36 0 .665.13.917.386.252.26.377.563.377.908 0 .367-.127.675-.38.923-.256.248-.56.374-.914.374-.365 0-.673-.124-.921-.369a1.248 1.248 0 0 1-.374-.928c0-.358.126-.663.378-.917.251-.25.557-.377.917-.377M43.669 319.05c0 .51.131.923.395 1.24a1.29 1.29 0 0 0 1.043.478c.437 0 .784-.162 1.038-.482.255-.32.383-.744.383-1.273 0-.525-.128-.951-.383-1.275-.254-.324-.619-.485-1.092-.485-.444 0-.785.16-1.025.482-.239.318-.36.757-.36 1.316zm3.596-4.135v6.42h-.764v-.63h-.018a1.2 1.2 0 0 1-.57.549c-.26.126-.565.189-.914.189-.641 0-1.158-.225-1.551-.675-.392-.45-.588-1.04-.588-1.771 0-.732.19-1.318.571-1.759.38-.44.894-.66 1.542-.66.305 0 .598.063.875.187.28.128.491.306.635.54h.018v-2.39h.764zM51.671 318.564a1.404 1.404 0 0 0-.41-.938 1.273 1.273 0 0 0-.938-.372c-.355 0-.655.116-.9.354-.246.237-.386.555-.422.956h2.67zm-1.294-1.985c.658 0 1.174.236 1.546.709.37.474.558 1.093.558 1.86v.09H49v.055c0 .45.128.807.387 1.075.257.266.611.401 1.06.401.666 0 1.067-.304 1.205-.908h.756c-.103.521-.328.913-.675 1.181-.349.267-.786.401-1.312.401-.732 0-1.286-.24-1.664-.72-.377-.479-.566-1.062-.566-1.745 0-.689.207-1.262.62-1.717.414-.455.935-.682 1.565-.682zM57.317 316.578c.63 0 1.095.12 1.398.364.303.242.469.607.5 1.093h-.765v-.01a.747.747 0 0 0-.329-.576c-.194-.132-.444-.196-.75-.196-.305 0-.546.05-.724.152a.483.483 0 0 0-.265.441c0 .174.078.313.234.417.155.106.392.194.71.266l.72.162c.45.1.79.252 1.025.455.233.2.35.477.35.831 0 .46-.178.822-.53 1.079-.355.257-.836.387-1.448.387-.593 0-1.064-.132-1.411-.392-.35-.261-.535-.655-.558-1.182h.764c.011.288.126.509.342.665.216.155.518.234.908.234.748 0 1.124-.232 1.124-.694a.55.55 0 0 0-.275-.484c-.182-.12-.574-.242-1.173-.368-.57-.115-.976-.274-1.222-.477-.247-.203-.369-.485-.369-.847 0-.394.156-.714.471-.956.315-.243.74-.364 1.273-.364M63.52 314.752l-1.177 1.288h-.576l.774-1.288h.98zm-.026 3.812a1.403 1.403 0 0 0-.408-.938 1.28 1.28 0 0 0-.941-.373c-.352 0-.653.117-.9.355-.244.237-.386.555-.422.956h2.67zm-1.295-1.985c.66 0 1.174.236 1.546.708.373.475.558 1.096.558 1.862v.09h-3.48v.054c0 .45.13.809.387 1.075.257.266.611.4 1.06.4.666 0 1.067-.303 1.206-.907h.755c-.103.521-.327.915-.674 1.181-.347.266-.786.401-1.313.401-.732 0-1.286-.24-1.663-.72-.378-.48-.567-1.062-.567-1.743 0-.69.207-1.265.62-1.718a2.025 2.025 0 0 1 1.565-.683zM67.513 316.578v.81c-.575 0-1 .15-1.273.453-.272.304-.408.775-.408 1.417v2.077h-.764v-4.649h.719v.978h.018c.354-.724.886-1.086 1.6-1.086h.108zM68.134 321.334h.764v-4.649h-.764v4.649zm0-5.485h.764v-.935h-.764v.935zM73.313 318.564a1.404 1.404 0 0 0-.41-.938 1.273 1.273 0 0 0-.939-.372c-.354 0-.655.116-.9.354-.245.237-.386.555-.422.956h2.67zm-1.295-1.985c.658 0 1.174.236 1.546.709.37.474.558 1.093.558 1.86v.09h-3.48v.055c0 .45.128.807.387 1.075.257.266.611.401 1.06.401.666 0 1.067-.304 1.206-.908h.755c-.103.521-.327.913-.674 1.181-.35.267-.786.401-1.313.401-.732 0-1.286-.24-1.663-.72-.378-.479-.567-1.062-.567-1.745 0-.689.207-1.262.62-1.717.414-.455.936-.682 1.565-.682zM35.343 348.244v-9.797h-3.798v-2.308a7.373 7.373 0 0 0 1.543-.12 4.064 4.064 0 0 0 1.338-.495c.396-.238.73-.55 1.003-.941.274-.387.454-.869.54-1.444h2.438v15.105h-3.064zM45.507 342.191c.028.611.118 1.201.27 1.77.15.568.391 1.053.722 1.456.331.403.806.604 1.424.604.633 0 1.119-.201 1.457-.604.338-.403.583-.888.734-1.456a8.406 8.406 0 0 0 .27-1.77 34.05 34.05 0 0 0 .043-1.564c0-.26-.004-.572-.011-.94a10.519 10.519 0 0 0-.302-2.287 3.53 3.53 0 0 0-.421-1.024 2.315 2.315 0 0 0-.712-.734c-.288-.187-.64-.28-1.058-.28-.417 0-.766.093-1.046.28-.28.187-.51.431-.69.734a3.98 3.98 0 0 0-.421 1.025c-.101.38-.173.766-.216 1.154-.043.388-.069.766-.076 1.133a34.05 34.05 0 0 0 .032 2.503m-2.664-5.265c.294-1 .694-1.802 1.197-2.406.504-.604 1.09-1.036 1.759-1.295a5.836 5.836 0 0 1 2.125-.388c.763 0 1.479.129 2.148.388.668.259 1.258.69 1.769 1.295.51.604.914 1.406 1.208 2.406.295 1 .443 2.233.443 3.7 0 1.511-.148 2.773-.443 3.788-.294 1.014-.697 1.823-1.208 2.427-.51.605-1.1 1.036-1.77 1.295a5.895 5.895 0 0 1-2.147.387 5.835 5.835 0 0 1-2.125-.387c-.669-.259-1.255-.69-1.759-1.295-.503-.604-.903-1.413-1.197-2.427-.295-1.015-.443-2.277-.443-3.787 0-1.468.148-2.701.443-3.701M57.505 342.191c.029.611.119 1.201.27 1.77.151.568.392 1.053.723 1.456.33.403.805.604 1.424.604.633 0 1.119-.201 1.457-.604.338-.403.582-.888.733-1.456a8.406 8.406 0 0 0 .27-1.77 34.05 34.05 0 0 0 .043-1.564c0-.26-.003-.572-.01-.94a10.519 10.519 0 0 0-.302-2.287 3.53 3.53 0 0 0-.421-1.024 2.315 2.315 0 0 0-.713-.734c-.287-.187-.64-.28-1.057-.28-.417 0-.766.093-1.047.28-.28.187-.51.431-.69.734a3.98 3.98 0 0 0-.42 1.025c-.102.38-.173.766-.217 1.154-.043.388-.068.766-.075 1.133-.007.367-.011.68-.011.939 0 .431.014.953.043 1.564m-2.665-5.265c.295-1 .694-1.802 1.198-2.406.503-.604 1.09-1.036 1.759-1.295a5.836 5.836 0 0 1 2.125-.388c.762 0 1.478.129 2.147.388.67.259 1.259.69 1.77 1.295.51.604.913 1.406 1.208 2.406.295 1 .442 2.233.442 3.7 0 1.511-.147 2.773-.442 3.788-.295 1.014-.698 1.823-1.208 2.427-.511.605-1.1 1.036-1.77 1.295a5.895 5.895 0 0 1-2.147.387 5.835 5.835 0 0 1-2.125-.387c-.67-.259-1.256-.69-1.76-1.295-.503-.604-.902-1.413-1.197-2.427-.295-1.015-.442-2.277-.442-3.787 0-1.468.147-2.701.442-3.701M69.503 342.191c.029.611.118 1.201.27 1.77.15.568.391 1.053.722 1.456.331.403.806.604 1.425.604.633 0 1.118-.201 1.456-.604.338-.403.583-.888.734-1.456a8.406 8.406 0 0 0 .27-1.77 34.05 34.05 0 0 0 .043-1.564c0-.26-.004-.572-.011-.94a10.519 10.519 0 0 0-.302-2.287 3.53 3.53 0 0 0-.421-1.024 2.315 2.315 0 0 0-.712-.734c-.288-.187-.64-.28-1.057-.28-.418 0-.766.093-1.047.28-.28.187-.51.431-.69.734a3.98 3.98 0 0 0-.421 1.025c-.101.38-.173.766-.216 1.154-.043.388-.068.766-.076 1.133a34.05 34.05 0 0 0 .032 2.503m-2.664-5.265c.295-1 .694-1.802 1.197-2.406.504-.604 1.09-1.036 1.759-1.295a5.836 5.836 0 0 1 2.126-.388c.762 0 1.478.129 2.147.388.669.259 1.258.69 1.77 1.295.51.604.913 1.406 1.208 2.406.294 1 .442 2.233.442 3.7 0 1.511-.148 2.773-.442 3.788-.295 1.014-.698 1.823-1.209 2.427-.51.605-1.1 1.036-1.77 1.295a5.895 5.895 0 0 1-2.146.387 5.835 5.835 0 0 1-2.126-.387c-.669-.259-1.255-.69-1.759-1.295-.503-.604-.902-1.413-1.197-2.427-.295-1.015-.443-2.277-.443-3.787 0-1.468.148-2.701.443-3.701M81.5 342.191c.03.611.12 1.201.27 1.77.151.568.392 1.053.723 1.456.331.403.806.604 1.424.604.633 0 1.119-.201 1.457-.604.338-.403.583-.888.734-1.456a8.406 8.406 0 0 0 .27-1.77 34.05 34.05 0 0 0 .042-1.564c0-.26-.003-.572-.01-.94a10.519 10.519 0 0 0-.302-2.287 3.53 3.53 0 0 0-.421-1.024 2.315 2.315 0 0 0-.712-.734c-.288-.187-.64-.28-1.058-.28-.417 0-.766.093-1.046.28-.28.187-.511.431-.69.734a3.98 3.98 0 0 0-.422 1.025c-.1.38-.172.766-.215 1.154-.044.388-.069.766-.076 1.133a34.05 34.05 0 0 0 .032 2.503m-2.665-5.265c.295-1 .695-1.802 1.198-2.406.504-.604 1.09-1.036 1.759-1.295a5.836 5.836 0 0 1 2.125-.388c.763 0 1.478.129 2.147.388.67.259 1.26.69 1.77 1.295.51.604.913 1.406 1.208 2.406.295 1 .443 2.233.443 3.7 0 1.511-.148 2.773-.443 3.788-.295 1.014-.697 1.823-1.208 2.427-.51.605-1.1 1.036-1.77 1.295a5.895 5.895 0 0 1-2.147.387 5.835 5.835 0 0 1-2.125-.387c-.67-.259-1.255-.69-1.759-1.295-.503-.604-.903-1.413-1.198-2.427-.294-1.015-.442-2.277-.442-3.787 0-1.468.148-2.701.442-3.701M95.332 348.244v-9.797h-3.798v-2.308a7.373 7.373 0 0 0 1.543-.12 4.064 4.064 0 0 0 1.338-.495c.396-.238.73-.55 1.004-.941.273-.387.453-.869.54-1.444h2.438v15.105h-3.065zM107.33 348.244v-9.797h-3.798v-2.308a7.373 7.373 0 0 0 1.543-.12 4.064 4.064 0 0 0 1.338-.495c.396-.238.73-.55 1.003-.941.274-.387.454-.869.54-1.444h2.438v15.105h-3.064zM118.487 335.664l-.604 3.43.043.044c.418-.417.864-.716 1.338-.896.475-.18 1.015-.27 1.619-.27.748 0 1.41.137 1.985.41a4.36 4.36 0 0 1 1.457 1.101c.395.46.697 1.003.906 1.63.209.625.313 1.29.313 1.995 0 .777-.151 1.5-.453 2.169a5.53 5.53 0 0 1-1.22 1.737 5.396 5.396 0 0 1-1.78 1.131 5.488 5.488 0 0 1-2.158.378 7.508 7.508 0 0 1-2.104-.29 5.253 5.253 0 0 1-1.78-.895 4.47 4.47 0 0 1-1.24-1.5c-.31-.597-.474-1.293-.486-2.082h3.064c.072.69.33 1.239.777 1.65.446.41 1.014.615 1.705.615a2.36 2.36 0 0 0 1.09-.248c.323-.165.596-.38.82-.647.222-.266.395-.575.517-.928a3.458 3.458 0 0 0 .01-2.19 2.595 2.595 0 0 0-.517-.908 2.45 2.45 0 0 0-.82-.603 2.636 2.636 0 0 0-1.1-.217c-.547 0-.993.099-1.338.291-.346.196-.67.502-.971.919h-2.763l1.49-8.351h8.437v2.525h-6.237zM132.837 340.746a2.16 2.16 0 0 0 .755-.617 2.67 2.67 0 0 0 .453-.894c.1-.338.151-.696.151-1.07a3.35 3.35 0 0 0-.162-1.023 2.898 2.898 0 0 0-.475-.908 2.36 2.36 0 0 0-.766-.635 2.2 2.2 0 0 0-1.035-.237c-.36 0-.684.079-.971.237a2.38 2.38 0 0 0-.734.624 2.74 2.74 0 0 0-.453.887c-.101.33-.151.669-.151 1.014 0 .36.046.708.14 1.047.093.338.234.638.42.906.188.264.429.482.724.645.295.168.636.25 1.025.25.417 0 .776-.075 1.079-.226m-2.59 4.929c.36.376.806.563 1.338.563.561 0 1.021-.162 1.381-.488.36-.322.647-.717.863-1.185.216-.467.37-.967.464-1.5a13.9 13.9 0 0 0 .184-1.424l-.044-.043c-.417.604-.906 1.036-1.467 1.293-.561.26-1.208.39-1.942.39-.647 0-1.28-.14-1.899-.42a4.752 4.752 0 0 1-1.575-1.133 4.373 4.373 0 0 1-.885-1.576 5.894 5.894 0 0 1-.28-1.79c0-.78.125-1.5.377-2.17a5.16 5.16 0 0 1 1.08-1.747 5.135 5.135 0 0 1 1.671-1.176c.648-.288 1.367-.432 2.158-.432 1.151 0 2.097.227 2.838.678a5.226 5.226 0 0 1 1.78 1.793c.446.74.755 1.579.928 2.514.173.935.26 1.877.26 2.825 0 .937-.109 1.87-.325 2.807a8.199 8.199 0 0 1-1.035 2.535 5.728 5.728 0 0 1-1.835 1.835c-.748.465-1.661.7-2.74.7-.648 0-1.252-.09-1.813-.269a4.395 4.395 0 0 1-1.489-.809 4.356 4.356 0 0 1-1.057-1.316 5.2 5.2 0 0 1-.54-1.77h2.914c.1.504.33.943.69 1.315M139.03 336.538a5.6 5.6 0 0 1 1.035-1.942 4.696 4.696 0 0 1 1.737-1.297c.698-.309 1.5-.464 2.406-.464.69 0 1.349.11 1.975.324a5.09 5.09 0 0 1 1.65.93c.475.4.853.899 1.133 1.489.281.59.421 1.25.421 1.983 0 .763-.122 1.417-.367 1.964a5.167 5.167 0 0 1-.97 1.458c-.403.425-.86.81-1.37 1.153-.512.347-1.026.689-1.544 1.027-.518.338-1.021.7-1.51 1.088-.49.39-.921.843-1.295 1.361h7.143v2.633h-11.092c0-.88.126-1.64.378-2.29a6.136 6.136 0 0 1 1.025-1.737 9.04 9.04 0 0 1 1.521-1.413 66.158 66.158 0 0 1 1.845-1.315 30 30 0 0 1 1.057-.703 7.022 7.022 0 0 0 1.025-.786c.31-.287.569-.61.777-.97.209-.36.313-.77.313-1.232 0-.732-.212-1.304-.637-1.716-.424-.408-.967-.615-1.629-.615-.446 0-.823.106-1.133.313-.309.209-.557.484-.744.82-.187.34-.32.714-.4 1.122-.078.412-.118.817-.118 1.221h-2.935a7.242 7.242 0 0 1 .302-2.406M154.33 338.717c.46.337 1 .506 1.619.506.647 0 1.187-.17 1.618-.506.432-.338.648-.83.648-1.478 0-.203-.03-.422-.087-.658a1.818 1.818 0 0 0-.334-.68 1.894 1.894 0 0 0-.69-.54c-.296-.143-.68-.215-1.155-.215-.302 0-.594.047-.874.14-.28.094-.529.227-.745.398a1.792 1.792 0 0 0-.507.649 2.09 2.09 0 0 0-.183.906c0 .648.23 1.14.69 1.478m-.82 6.01c.144.317.335.586.572.81.238.222.522.395.853.517a3.006 3.006 0 0 0 2.06 0 2.56 2.56 0 0 0 .82-.518c.238-.223.421-.492.55-.809a2.71 2.71 0 0 0 .195-1.036c0-.361-.07-.687-.205-.982a2.372 2.372 0 0 0-.561-.766 2.505 2.505 0 0 0-.82-.496 2.855 2.855 0 0 0-1.004-.173c-.748 0-1.38.204-1.899.615-.518.409-.776 1.002-.776 1.78 0 .39.071.742.215 1.058m-2.2-9.561a4.133 4.133 0 0 1 1.175-1.293 5.208 5.208 0 0 1 1.63-.777 6.58 6.58 0 0 1 1.834-.26c.935 0 1.726.145 2.373.433.648.287 1.17.634 1.565 1.046.395.408.68.847.852 1.315.173.47.26.888.26 1.262 0 .748-.184 1.405-.551 1.964-.367.563-.917.964-1.65 1.21v.041c.905.204 1.601.632 2.092 1.284.488.657.734 1.459.734 2.406 0 .806-.162 1.506-.486 2.094a4.436 4.436 0 0 1-1.283 1.469 5.786 5.786 0 0 1-1.813.874 7.543 7.543 0 0 1-2.072.29c-.733 0-1.442-.09-2.125-.269a5.504 5.504 0 0 1-1.834-.852 4.399 4.399 0 0 1-1.295-1.467c-.324-.59-.486-1.295-.486-2.115 0-.964.248-1.77.745-2.419.496-.645 1.197-1.077 2.104-1.295v-.04c-.734-.202-1.288-.584-1.662-1.146-.374-.56-.56-1.214-.56-1.964 0-.674.15-1.273.452-1.791M168.593 336.979l-3.906 5.244h3.971v-5.244h-.065zm-6.322 7.768v-2.803l6.56-8.806h2.74v9.085h2.007v2.524h-2.007v3.498h-2.913v-3.498h-6.387zM179.9 339.246a3.33 3.33 0 0 0 1.047-.25c.324-.135.59-.333.799-.593.208-.257.313-.605.313-1.034 0-.648-.216-1.146-.648-1.49a2.316 2.316 0 0 0-1.489-.517c-.776 0-1.363.253-1.758.766-.398.51-.587 1.153-.572 1.931h-2.913a6.431 6.431 0 0 1 .42-2.127 4.89 4.89 0 0 1 1.058-1.65 4.68 4.68 0 0 1 1.63-1.067c.632-.252 1.337-.378 2.114-.378.604 0 1.208.088 1.812.27a5.16 5.16 0 0 1 1.63.81c.482.357.874.796 1.176 1.315.302.518.453 1.115.453 1.791 0 .734-.176 1.38-.529 1.943-.352.559-.881.942-1.586 1.141v.045c.833.186 1.49.59 1.964 1.209.475.618.712 1.36.712 2.222 0 .792-.155 1.497-.464 2.115a4.619 4.619 0 0 1-1.24 1.554 5.494 5.494 0 0 1-1.792.948 6.859 6.859 0 0 1-2.115.323c-.848 0-1.622-.12-2.32-.365-.699-.246-1.292-.6-1.78-1.07a4.705 4.705 0 0 1-1.133-1.715c-.266-.676-.392-1.452-.377-2.33h2.913c.014.404.08.789.194 1.155.115.367.28.684.497.948.215.268.485.48.809.638.323.159.708.238 1.154.238.69 0 1.273-.214 1.748-.637.475-.424.712-1.005.712-1.739 0-.573-.111-1.012-.334-1.314a1.918 1.918 0 0 0-.853-.658 3.472 3.472 0 0 0-1.133-.238c-.41-.021-.802-.034-1.176-.034v-2.156c.331.029.684.029 1.058 0M192.826 340.746a2.16 2.16 0 0 0 .755-.617 2.67 2.67 0 0 0 .453-.894c.1-.338.151-.696.151-1.07a3.35 3.35 0 0 0-.162-1.023 2.898 2.898 0 0 0-.474-.908 2.36 2.36 0 0 0-.766-.635 2.2 2.2 0 0 0-1.036-.237c-.36 0-.684.079-.971.237a2.38 2.38 0 0 0-.734.624 2.74 2.74 0 0 0-.453.887c-.1.33-.151.669-.151 1.014 0 .36.047.708.14 1.047.094.338.234.638.42.906.188.264.429.482.724.645.295.168.636.25 1.025.25.417 0 .777-.075 1.079-.226m-2.59 4.929c.36.376.806.563 1.338.563.561 0 1.022-.162 1.381-.488.36-.322.648-.717.863-1.185.216-.467.37-.967.464-1.5a13.9 13.9 0 0 0 .184-1.424l-.043-.043c-.418.604-.907 1.036-1.468 1.293-.56.26-1.208.39-1.942.39-.647 0-1.28-.14-1.899-.42a4.752 4.752 0 0 1-1.575-1.133 4.373 4.373 0 0 1-.885-1.576 5.894 5.894 0 0 1-.28-1.79c0-.78.125-1.5.377-2.17a5.16 5.16 0 0 1 1.08-1.747 5.135 5.135 0 0 1 1.672-1.176c.647-.288 1.366-.432 2.157-.432 1.151 0 2.097.227 2.838.678a5.226 5.226 0 0 1 1.78 1.793c.446.74.756 1.579.928 2.514.173.935.26 1.877.26 2.825 0 .937-.109 1.87-.325 2.807a8.199 8.199 0 0 1-1.035 2.535 5.728 5.728 0 0 1-1.835 1.835c-.748.465-1.661.7-2.74.7-.647 0-1.252-.09-1.813-.269a4.395 4.395 0 0 1-1.489-.809 4.356 4.356 0 0 1-1.057-1.316 5.2 5.2 0 0 1-.54-1.77h2.914c.1.504.33.943.69 1.315" mask="url(#h)"/>
                <path fill="#FF7900" d="M212.117 387.46h28.226v-28.225h-28.226z" mask="url(#h)"/>
                <path fill="#FFF" d="M221.74 383.9c0 .263.168.51.468.51.324 0 .64-.134.957-.413v-.931c-.966.122-1.424.368-1.424.834zm1.45.827c-.4.261-.832.39-1.3.39-.732 0-1.165-.489-1.165-1.141 0-.88.807-1.345 2.474-1.534v-.22c0-.284-.217-.45-.617-.45-.399 0-.724.159-.958.45l-.7-.395c.367-.511.925-.768 1.675-.768 1.025 0 1.6.442 1.6 1.163 0 0-.002 2.842 0 2.849h-.917l-.092-.344zM225.016 381.247l.856-.12.093.467c.482-.353.867-.54 1.35-.54.808 0 1.224.428 1.224 1.277v2.735h-1.033v-2.555c0-.48-.125-.7-.5-.7-.307 0-.616.144-.965.437v2.818h-1.025v-3.82zM236.161 382.586c0-.526-.3-.834-.791-.834-.466 0-.757.3-.8.834h1.591zm-.775 2.556c-1.156 0-1.849-.745-1.849-2.038 0-1.307.7-2.051 1.833-2.051s1.807.72 1.807 2c0 .068-.007.134-.007.202h-2.617c.01.743.317 1.119.927 1.119.39 0 .647-.158.89-.502l.759.42c-.335.557-.934.85-1.743.85zM215.59 381.912c-.77 0-.913.696-.913 1.2 0 .501.143 1.199.914 1.199s.915-.698.915-1.2c0-.503-.144-1.199-.915-1.199m0 3.271c-1.021 0-1.944-.65-1.944-2.071 0-1.423.923-2.074 1.944-2.074s1.944.651 1.944 2.074c0 1.42-.923 2.071-1.944 2.071M218.244 381.141h.981v.462c.187-.25.651-.543 1.085-.543.041 0 .091 0 .133.007v.97h-.05c-.45 0-.943.07-1.101.419v2.614h-1.048v-3.929zM232.914 381.127v3.719c0 .658-.05 1.737-1.922 1.75-.774.005-1.487-.304-1.631-.979l1.02-.165c.042.194.161.387.738.387.538 0 .795-.256.795-.87v-.458l-.014-.014c-.166.291-.414.57-1.014.57-.916 0-1.639-.635-1.639-1.962 0-1.314.745-2.048 1.581-2.05.782-.002 1.075.355 1.14.545l-.01-.003.084-.47h.872zm-1.843 3.099c.784-.006.85-.804.85-1.326 0-.613-.3-1.113-.857-1.113-.373 0-.786.272-.786 1.156 0 .486.034 1.29.793 1.283zM239.275 380.95h-.214v-1.086h-.007l-.424 1.086h-.137l-.424-1.086h-.007v1.086h-.214v-1.298h.33l.387.985.381-.985h.33v1.298zm-1.692-1.126h-.406v1.126h-.214v-1.126h-.406v-.172h1.026v.172z" mask="url(#h)"/>
                <path fill="#008F8D" d="M68.667 385.461h.167c-.066 1.247-.618 1.87-1.793 1.87-.5 0-.897-.133-1.188-.395-.288-.266-.482-.66-.57-1.178-.736.518-1.403.912-2.009 1.178-.608.262-1.146.396-1.624.396-.61 0-1.136-.173-1.573-.52a1.672 1.672 0 0 1-.664-1.376c0-.746.376-1.395 1.11-1.95.737-.562 1.755-1.101 3.055-1.634l1.705-.688v-.436c0-.618-.04-1.066-.12-1.341-.082-.279-.296-.725-.636-.946-.34-.216-.787-.33-1.343-.33-1.108 0-1.726.57-1.856 1.3-.113.744-.419 1.118-.908 1.118-.44 0-.66-.209-.66-.635 0-.414.293-.856.889-1.33.593-.477 1.515-.713 2.776-.713.93 0 1.653.142 2.167.432.51.287.854.613 1.016.987.167.369.248.931.248 1.689v3.592c0 .837.007 1.389.115 1.617.131.264.372.354.676.354.495 0 .898-.354 1.02-1.06zm-3.384-3.787l-1.2.482c-1.895.755-2.837 1.71-2.837 2.852 0 .457.12.822.361 1.099.243.275.557.516.946.516.345 0 .746-.076 1.201-.302.455-.225.964-.46 1.529-.92v-3.727zM81.105 386.907c-.978 0-1.715-.394-2.211-1.178-.499-.783-.745-1.96-.745-3.521 0-.209.014-.529.049-.959h6.245c-.032-.829-.374-1.607-1.018-2.323-.644-.718-1.554-1.077-2.73-1.077-1.253 0-2.289.464-3.121 1.395-.835.932-1.25 2.097-1.25 3.501 0 .991.216 1.835.645 2.532a4.572 4.572 0 0 0 1.664 1.612 4.334 4.334 0 0 0 2.147.571c.822 0 1.577-.206 2.271-.622.696-.41 1.16-.983 1.392-1.715H84.2c-.56 1.187-1.759 1.784-3.095 1.784m-.483-8.717c1.697 0 1.947 1.506 1.947 2.144 0 .133-.007.282-.03.543h-4.31c.253-1.737 1.057-2.687 2.393-2.687M87.79 372.115c-.225.106-.646.333-1.244.439a9.43 9.43 0 0 1-1.577.154v.123c.654 0 1.06.122 1.237.37.167.243.251 1.06.251 2v11.924h1.569v-15.01h-.236zM57.06 379.403c-.13-.437-.42-.797-.869-1.092-.451-.304-1.03-.45-1.737-.45-.615 0-1.208.153-1.773.468-.572.306-1.273.962-1.636 1.61-.025-.795-.124-1.62-.295-2.077h-.297c-.843.246-1.667.534-2.467.622v.135c.521 0 .881.059 1.075.169.196.113.308.501.351.72.04.224.058.859.058 1.9v5.716h1.575v-6.639c.424-.636.874-1.113 1.352-1.43.475-.314.975-.474 1.5-.474.458 0 .836.117 1.133.347.298.232.48.496.552.802.065.298.097.8.097 1.505v5.89h1.577v-5.823c0-.835-.067-1.466-.196-1.9M75.134 378.599h-2.635v5.421c0 .833.033 1.387.106 1.678.067.284.191.586.423.757.228.176.507.277.77.277.512 0 1.2-.38 1.579-.976l.154.091c-.225.48-.564.934-1.025 1.24-.417.27-.899.33-1.34.33-.517 0-.97-.156-1.364-.464-.392-.31-.639-.676-.734-1.088-.097-.413-.14-1.145-.14-2.183v-5.084H69.63v-.408c1.779 0 2.525-1.98 2.525-2.832h.343v2.832h2.635M30.081 386.971h-.133v-2.656h.133c.495 1.721 1.81 2.392 3.086 2.392 1.365 0 1.782-1.028 1.782-1.43 0-.472-.142-.859-.432-1.165-.293-.298-.868-.661-1.728-1.082-.903-.443-1.552-.883-1.944-1.313-.392-.419-.588-.944-.588-1.563 0-.59.13-1.068.552-1.605.423-.531 1.243-.885 2.007-.885 1.01 0 1.82.521 2.419 1.208.162-.16.273-.541.352-.935h.14v2.501h-.145c-.17-.933-1.28-2.35-2.694-2.35-1.248 0-1.65 1.147-1.65 1.505 0 .39.149.637.447.923.288.288.843.62 1.665.992 1.237.563 1.977.932 2.408 1.63.432.694.435 1.066.435 1.566 0 .777-.676 2.63-3.017 2.63a3.576 3.576 0 0 1-2.681-1.247s-.378.516-.414.884M37.88 382.52c0-1.362.46-2.494 1.376-3.417.921-.908 2.043-1.37 3.381-1.37 1.345 0 2.482.462 3.397 1.377.915.92 1.372 2.056 1.372 3.41 0 1.498-.464 2.68-1.395 3.539-.932.854-2.054 1.284-3.374 1.284-1.313 0-2.438-.437-3.364-1.311-.926-.872-1.392-2.047-1.392-3.512m1.83.054c0 1.575.258 2.68.775 3.312.51.631 1.23.946 2.158.946.95 0 1.678-.315 2.176-.946.507-.631.757-1.737.757-3.312 0-1.561-.244-2.67-.748-3.334-.5-.664-1.232-.995-2.185-.995-.946 0-1.674.331-2.18.984-.5.665-.753 1.78-.753 3.345" mask="url(#h)"/>
            </g>
        </g>
        <path fill="#FF7900" fill-rule="nonzero" d="M46 179H11.5v-2H46v-6l14 7-14 7v-6z"/>
    </g>
</svg>
