<svg xmlns="http://www.w3.org/2000/svg" xmlns:xlink="http://www.w3.org/1999/xlink" width="150" height="150" viewBox="0 0 150 150">
    <defs>
        <path id="a" d="M37.8.085L4.2.08a4.214 4.214 0 0 0-2.967 1.18A4.03 4.03 0 0 0 0 4.152v61.62c0 2.268 1.878 4.147 4.196 4.147l33.608.005c2.32-.003 4.198-1.843 4.196-4.112V4.152C42 1.883 40.115.085 37.8.085zM17.85 2.139h6.3c.58 0 1.05.46 1.05 1.027s-.47 1.027-1.05 1.027h-6.3c-.58 0-1.05-.46-1.05-1.027 0-.568.47-1.027 1.05-1.027zM21 67.825c-1.16 0-2.1-.92-2.1-2.054s.94-2.054 2.1-2.054c1.16 0 2.1.92 2.1 2.054 0 1.135-.94 2.054-2.1 2.054zm-16.8-6.12L4.19 6.24l33.61.006.005 55.457H4.2zm10.332-31.028c1.701-.003 3.078-1.353 3.077-3.017-.002-1.663-1.381-3.011-3.083-3.01-1.7 0-3.08 1.35-3.08 3.013.001.8.326 1.567.905 2.132a3.118 3.118 0 0 0 2.181.882zm13.026 0c1.701-.003 3.078-1.353 3.077-3.017-.002-1.663-1.382-3.011-3.083-3.01-1.7 0-3.08 1.35-3.08 3.013.001 1.664 1.38 3.012 3.08 3.014h.006zm1.882 5.969c-.963.033-1.665.866-2.05 1.322-1.59 1.932-3.78 2.98-6.348 3.027-2.568-.047-4.758-1.095-6.348-3.027-.384-.455-1.087-1.289-2.05-1.322-1.501-.05-2.228.977-2.228 2.18 0 .538.137 1.074.473 1.452 2.464 3.248 5.978 5.012 10.116 5.076h.076c4.137-.068 7.65-1.828 10.116-5.076.336-.378.473-.914.473-1.453-.002-1.202-.729-2.23-2.23-2.18z"/>
    </defs>
    <g fill="none" fill-rule="evenodd">
        <circle cx="75" cy="75" r="75" fill="#000"/>
        <use fill="#8F8F8F" fill-rule="nonzero" transform="translate(54 40)" xlink:href="#a"/>
    </g>
</svg>
