<?xml version="1.0" encoding="UTF-8"?>
<svg width="350px" height="271px" viewBox="0 0 350 271" version="1.1" xmlns="http://www.w3.org/2000/svg" xmlns:xlink="http://www.w3.org/1999/xlink">
    <!-- Generator: Sketch 53 (72520) - https://sketchapp.com -->
    <title>Illustrations/NumeroSerie</title>
    <desc>Created with Sketch.</desc>
    <defs>
        <path d="M6,0 L344,0 C347.313708,-6.08718376e-16 350,2.6862915 350,6 L350,271 L0,271 L0,6 C-4.05812251e-16,2.6862915 2.6862915,6.08718376e-16 6,0 Z" id="path-1"></path>
        <filter x="-40.3%" y="-26.7%" width="180.5%" height="153.4%" filterUnits="objectBoundingBox" id="filter-3">
            <feOffset dx="10" dy="22" in="SourceAlpha" result="shadowOffsetOuter1"></feOffset>
            <feGaussianBlur stdDeviation="17.5" in="shadowOffsetOuter1" result="shadowBlurOuter1"></feGaussianBlur>
            <feColorMatrix values="0 0 0 0 0   0 0 0 0 0   0 0 0 0 0  0 0 0 0.5 0" type="matrix" in="shadowBlurOuter1" result="shadowMatrixOuter1"></feColorMatrix>
            <feMerge>
                <feMergeNode in="shadowMatrixOuter1"></feMergeNode>
                <feMergeNode in="SourceGraphic"></feMergeNode>
            </feMerge>
        </filter>
        <polygon id="path-4" points="0 0.372236842 271.487614 0.372236842 271.487614 408.201754 0 408.201754"></polygon>
        <polygon id="path-6" points="0 408.627763 271.488333 408.627763 271.488333 0.798245614 0 0.798245614"></polygon>
    </defs>
    <g id="Illustrations/NumeroSerie" stroke="none" stroke-width="1" fill="none" fill-rule="evenodd">
        <g>
            <mask id="mask-2" fill="white">
                <use xlink:href="#path-1"></use>
            </mask>
            <use id="Component/CardOption/Image" fill="#A885D8" xlink:href="#path-1"></use>
            <g id="Group-69" filter="url(#filter-3)" mask="url(#mask-2)">
                <g transform="translate(39.000000, -163.000000)">
                    <g id="Group-3" stroke="none" stroke-width="1" fill="none" fill-rule="evenodd" transform="translate(0.000000, 0.426009)">
                        <mask id="mask-5" fill="white">
                            <use xlink:href="#path-4"></use>
                        </mask>
                        <g id="Clip-2"></g>
                        <path d="M249.908667,408.201754 L21.5782281,408.201754 C9.70980702,408.201754 -0.000719298246,398.491228 -0.000719298246,386.622807 L-0.000719298246,21.9511842 C-0.000719298246,10.0827632 9.70980702,0.372236842 21.5782281,0.372236842 L249.908667,0.372236842 C261.777088,0.372236842 271.487614,10.0827632 271.487614,21.9511842 L271.487614,386.622807 C271.487614,398.491228 261.777088,408.201754 249.908667,408.201754" id="Fill-1" fill="#FFFFFF" mask="url(#mask-5)"></path>
                    </g>
                    <mask id="mask-7" fill="white">
                        <use xlink:href="#path-6"></use>
                    </mask>
                    <g id="Clip-5" stroke="none" fill="none"></g>
                    <polygon id="Fill-7" stroke="none" fill="#EFBC92" fill-rule="evenodd" mask="url(#mask-7)" points="29.9479825 303.973465 240.342719 303.973465 240.342719 121.838158 29.9479825 121.838158"></polygon>
                    <polygon id="Fill-16" stroke="none" fill="#000000" fill-rule="evenodd" mask="url(#mask-7)" points="31.5491404 314.91525 34.9298421 320.121171 34.9478246 320.121171 34.9478246 314.91525 35.7570351 314.91525 35.7570351 321.333189 34.8219474 321.333189 31.4682193 316.181215 31.4502368 316.181215 31.4502368 321.333189 30.6410263 321.333189 30.6410263 314.91525"></polygon>
                    <path d="M37.3925395,316.253325 C37.3925395,316.476307 37.4680658,316.672316 37.6227149,316.843149 C37.7755658,317.013982 37.9805658,317.100298 38.2377149,317.100298 C38.494864,317.100298 38.7016623,317.013982 38.8527149,316.843149 C39.007364,316.672316 39.0828904,316.476307 39.0828904,316.253325 C39.0828904,316.019553 39.0019693,315.821746 38.8401272,315.656307 C38.6782851,315.490868 38.4786798,315.408149 38.2377149,315.408149 C37.9913553,315.408149 37.7899518,315.490868 37.6317061,315.656307 C37.4716623,315.821746 37.3925395,316.019553 37.3925395,316.253325 M38.2377149,314.958588 C38.597364,314.958588 38.9030658,315.08986 39.1548202,315.345211 C39.4065746,315.604158 39.5324518,315.908061 39.5324518,316.253325 C39.5324518,316.620167 39.4047763,316.927667 39.1512237,317.175825 C38.8958728,317.423982 38.5919693,317.54986 38.2377149,317.54986 C37.8726711,317.54986 37.5651711,317.425781 37.3170132,317.181219 C37.067057,316.93486 36.9429781,316.625561 36.9429781,316.253325 C36.9429781,315.895474 37.0688553,315.589772 37.3206096,315.336219 C37.572364,315.086263 37.8780658,314.958588 38.2377149,314.958588" id="Fill-17" stroke="none" fill="#000000" fill-rule="evenodd" mask="url(#mask-7)"></path>
                    <path d="M43.6687763,319.050855 C43.6687763,319.559759 43.8000482,319.973355 44.0643904,320.289846 C44.3287325,320.608136 44.6757939,320.76818 45.1073728,320.76818 C45.5443465,320.76818 45.8914079,320.606338 46.1449605,320.28625 C46.4003114,319.966162 46.5279868,319.541776 46.5279868,319.013092 C46.5279868,318.488004 46.4003114,318.06182 46.1449605,317.738136 C45.8914079,317.414452 45.526364,317.25261 45.0534254,317.25261 C44.6092588,317.25261 44.2675921,317.412654 44.0284254,317.734539 C43.7892588,318.052829 43.6687763,318.491601 43.6687763,319.050855 L43.6687763,319.050855 Z M47.2652675,314.91489 L47.2652675,321.334627 L46.5010132,321.334627 L46.5010132,320.705241 L46.4830307,320.705241 C46.3643465,320.944408 46.1737325,321.126031 45.9129868,321.253706 C45.6522412,321.379583 45.3483377,321.442522 44.9994781,321.442522 C44.3575044,321.442522 43.8414079,321.217741 43.4475921,320.76818 C43.0555746,320.318618 42.8595658,319.728794 42.8595658,318.996908 C42.8595658,318.265022 43.0501798,317.678794 43.4314079,317.238224 C43.8108377,316.797654 44.325136,316.578268 44.9725044,316.578268 C45.2782061,316.578268 45.5713202,316.641206 45.84825,316.765285 C46.1287763,316.892961 46.3391711,317.070987 46.4830307,317.304759 L46.5010132,317.304759 L46.5010132,314.91489 L47.2652675,314.91489 Z" id="Fill-18" stroke="none" fill="#000000" fill-rule="evenodd" mask="url(#mask-7)"></path>
                    <path d="M51.6713289,318.56443 C51.6461535,318.186798 51.5112851,317.873904 51.2613289,317.625746 C51.0131711,317.377588 50.7002763,317.253509 50.3226447,317.253509 C49.9683904,317.253509 49.6680833,317.370395 49.4235219,317.607763 C49.1771623,317.845132 49.0368991,318.163421 49.0009342,318.56443 L51.6713289,318.56443 Z M50.3765921,316.579167 C51.03475,316.579167 51.5508465,316.814737 51.9230833,317.287675 C52.2935219,317.762412 52.4805395,318.381009 52.4805395,319.14886 L52.4805395,319.238772 L49.0009342,319.238772 L49.0009342,319.292719 C49.0009342,319.742281 49.1286096,320.100132 49.387557,320.36807 C49.6447061,320.634211 49.9989605,320.769079 50.4485219,320.769079 C51.1138728,320.769079 51.5148816,320.465175 51.6533465,319.860965 L52.4086096,319.860965 C52.3061096,320.382456 52.0813289,320.774474 51.7342675,321.042412 C51.3854079,321.308553 50.9484342,321.443421 50.4215482,321.443421 C49.6896623,321.443421 49.1358026,321.202456 48.7581711,320.722325 C48.3805395,320.243991 48.1917237,319.66136 48.1917237,318.978026 C48.1917237,318.289298 48.3985219,317.715658 48.8121184,317.260702 C49.2257149,316.805746 49.7472061,316.579167 50.3765921,316.579167 L50.3765921,316.579167 Z" id="Fill-19" stroke="none" fill="#000000" fill-rule="evenodd" mask="url(#mask-7)"></path>
                    <path d="M57.3172807,316.578268 C57.9466667,316.578268 58.4124123,316.69875 58.7145175,316.941513 C59.0184211,317.184276 59.1838596,317.54932 59.2144298,318.034846 L58.4501754,318.034846 L58.4501754,318.025855 C58.4267982,317.774101 58.3171053,317.583487 58.1210965,317.448618 C57.926886,317.317346 57.6769298,317.25261 57.3712281,317.25261 C57.0655263,317.25261 56.8245614,317.302961 56.6465351,317.405461 C56.470307,317.507961 56.382193,317.653618 56.382193,317.846031 C56.382193,318.020461 56.4595175,318.158925 56.6159649,318.263224 C56.770614,318.36932 57.0079825,318.457434 57.3262719,318.529364 L58.0455702,318.691206 C58.4951316,318.791908 58.8367982,318.942961 59.0705702,319.146162 C59.3043421,319.345768 59.4212281,319.622697 59.4212281,319.976952 C59.4212281,320.437303 59.2432018,320.79875 58.8907456,321.055899 C58.5364912,321.313048 58.0545614,321.442522 57.4431579,321.442522 C56.8497368,321.442522 56.3785965,321.31125 56.0315351,321.050504 C55.6826754,320.789759 55.4974561,320.395943 55.4740789,319.869057 L56.2383333,319.869057 C56.2491228,320.156776 56.3642105,320.377961 56.58,320.534408 C56.7957895,320.689057 57.0978947,320.76818 57.488114,320.76818 C58.2361842,320.76818 58.6120175,320.536206 58.6120175,320.074057 C58.6120175,319.870855 58.520307,319.709013 58.336886,319.590329 C58.1552632,319.469846 57.7632456,319.347566 57.1644298,319.221689 C56.594386,319.106601 56.1879825,318.948355 55.9416228,318.745154 C55.6952632,318.541952 55.5729825,318.259627 55.5729825,317.89818 C55.5729825,317.504364 55.7294298,317.184276 56.0441228,316.941513 C56.3588158,316.69875 56.7832018,316.578268 57.3172807,316.578268" id="Fill-20" stroke="none" fill="#000000" fill-rule="evenodd" mask="url(#mask-7)"></path>
                    <path d="M63.5206886,314.751969 L62.3428377,316.039513 L61.7673991,316.039513 L62.5406447,314.751969 L63.5206886,314.751969 Z M63.4937149,318.56425 C63.4703377,318.186618 63.3336711,317.873724 63.0855132,317.625566 C62.835557,317.377408 62.5226623,317.253329 62.1450307,317.253329 C61.7925746,317.253329 61.4922675,317.370215 61.2459079,317.607583 C61.0013465,317.844952 60.8592851,318.163241 60.8233202,318.56425 L63.4937149,318.56425 Z M62.1989781,316.578987 C62.8589342,316.578987 63.3732325,316.814557 63.7454693,317.287496 C64.1177061,317.762232 64.3029254,318.382627 64.3029254,319.14868 L64.3029254,319.238592 L60.8233202,319.238592 L60.8233202,319.292539 C60.8233202,319.742101 60.9527939,320.10175 61.209943,320.36789 C61.4670921,320.634031 61.8213465,320.768899 62.2709079,320.768899 C62.9362588,320.768899 63.3372675,320.464996 63.4757325,319.860785 L64.2309956,319.860785 C64.1284956,320.382276 63.9037149,320.776092 63.5566535,321.042232 C63.2095921,321.308373 62.7708202,321.443241 62.2439342,321.443241 C61.5120482,321.443241 60.9581886,321.202276 60.580557,320.722145 C60.2029254,320.243811 60.0141096,319.66118 60.0141096,318.979645 C60.0141096,318.289118 60.2209079,317.715478 60.6345044,317.26232 C61.0481009,316.807364 61.5695921,316.578987 62.1989781,316.578987 L62.1989781,316.578987 Z" id="Fill-21" stroke="none" fill="#000000" fill-rule="evenodd" mask="url(#mask-7)"></path>
                    <path d="M67.5131535,316.578268 L67.5131535,317.387478 C66.9377149,317.387478 66.5133289,317.538531 66.2399956,317.840636 C65.9684605,318.144539 65.8317939,318.61568 65.8317939,319.257654 L65.8317939,321.334627 L65.0675395,321.334627 L65.0675395,316.686162 L65.7868377,316.686162 L65.7868377,317.664408 L65.8048202,317.664408 C66.1590746,316.939715 66.6913553,316.578268 67.4052588,316.578268 L67.5131535,316.578268 Z" id="Fill-22" stroke="none" fill="#000000" fill-rule="evenodd" mask="url(#mask-7)"></path>
                    <path d="M68.1337281,321.333728 L68.8979825,321.333728 L68.8979825,316.685263 L68.1337281,316.685263 L68.1337281,321.333728 Z M68.1337281,315.849079 L68.8979825,315.849079 L68.8979825,314.913991 L68.1337281,314.913991 L68.1337281,315.849079 Z" id="Fill-23" stroke="none" fill="#000000" fill-rule="evenodd" mask="url(#mask-7)"></path>
                    <path d="M73.3126754,318.56443 C73.2875,318.186798 73.1526316,317.873904 72.9026754,317.625746 C72.6545175,317.377588 72.3416228,317.253509 71.9639912,317.253509 C71.6097368,317.253509 71.3094298,317.370395 71.0648684,317.607763 C70.8185088,317.845132 70.6782456,318.163421 70.6422807,318.56443 L73.3126754,318.56443 Z M72.0179386,316.579167 C72.6760965,316.579167 73.192193,316.814737 73.5644298,317.287675 C73.9348684,317.762412 74.121886,318.381009 74.121886,319.14886 L74.121886,319.238772 L70.6422807,319.238772 L70.6422807,319.292719 C70.6422807,319.742281 70.7699561,320.100132 71.0289035,320.36807 C71.2860526,320.634211 71.640307,320.769079 72.0898684,320.769079 C72.7552193,320.769079 73.1562281,320.465175 73.294693,319.860965 L74.0499561,319.860965 C73.9474561,320.382456 73.7226754,320.774474 73.375614,321.042412 C73.0267544,321.308553 72.5897807,321.443421 72.0628947,321.443421 C71.3310088,321.443421 70.7771491,321.202456 70.3995175,320.722325 C70.021886,320.243991 69.8330702,319.66136 69.8330702,318.978026 C69.8330702,318.289298 70.0398684,317.715658 70.4534649,317.260702 C70.8670614,316.805746 71.3885526,316.579167 72.0179386,316.579167 L72.0179386,316.579167 Z" id="Fill-24" stroke="none" fill="#000000" fill-rule="evenodd" mask="url(#mask-7)"></path>
                    <path d="M35.3430789,348.244294 L35.3430789,338.447452 L31.5451842,338.447452 L31.5451842,336.138504 C32.0774649,336.151092 32.5917632,336.113329 33.0880789,336.01982 C33.5843947,335.924513 34.0303596,335.760873 34.4259737,335.523504 C34.8215877,335.286136 35.1560614,334.973241 35.4293947,334.583022 C35.7027281,334.196399 35.8825526,333.714469 35.9688684,333.139031 L38.4072895,333.139031 L38.4072895,348.244294 L35.3430789,348.244294 Z" id="Fill-25" stroke="none" fill="#000000" fill-rule="evenodd" mask="url(#mask-7)"></path>
                    <path d="M45.5065833,342.191039 C45.5353553,342.802443 45.6252675,343.392268 45.7763202,343.960513 C45.9273728,344.528759 46.1683377,345.014285 46.4992149,345.417092 C46.8300921,345.819899 47.3048289,346.021303 47.9234254,346.021303 C48.5564079,346.021303 49.0419342,345.819899 49.3800044,345.417092 C49.7180746,345.014285 49.962636,344.528759 50.1136886,343.960513 C50.2647412,343.392268 50.3546535,342.802443 50.3834254,342.191039 C50.4121974,341.579636 50.4265833,341.058145 50.4265833,340.626566 C50.4265833,340.367618 50.4229868,340.054724 50.4157939,339.687882 C50.4086009,339.321039 50.3798289,338.943408 50.3294781,338.554987 C50.2791272,338.166566 50.2071974,337.781741 50.1136886,337.400513 C50.0201798,337.019285 49.8799167,336.677618 49.6928991,336.375513 C49.5058816,336.073408 49.2685132,335.828846 48.9807939,335.641829 C48.6930746,335.454811 48.3406184,335.361303 47.9234254,335.361303 C47.5062325,335.361303 47.1573728,335.454811 46.8768465,335.641829 C46.5963202,335.828846 46.3661447,336.073408 46.1863202,336.375513 C46.0064956,336.677618 45.8662325,337.019285 45.7655307,337.400513 C45.6648289,337.781741 45.5928991,338.166566 45.5497412,338.554987 C45.5065833,338.943408 45.4814079,339.321039 45.4742149,339.687882 C45.4670219,340.054724 45.4634254,340.367618 45.4634254,340.626566 C45.4634254,341.058145 45.4778114,341.579636 45.5065833,342.191039 M42.8415833,336.925776 C43.1364956,335.925952 43.5357061,335.123934 44.0392149,334.519724 C44.5427237,333.915513 45.1289518,333.483934 45.7978991,333.224987 C46.4668465,332.966039 47.1753553,332.836566 47.9234254,332.836566 C48.6858816,332.836566 49.4015833,332.966039 50.0705307,333.224987 C50.7394781,333.483934 51.3293026,333.915513 51.8400044,334.519724 C52.3507061,335.123934 52.7535132,335.925952 53.0484254,336.925776 C53.3433377,337.925601 53.4907939,339.159197 53.4907939,340.626566 C53.4907939,342.137092 53.3433377,343.399461 53.0484254,344.413671 C52.7535132,345.427882 52.3507061,346.237092 51.8400044,346.841303 C51.3293026,347.445513 50.7394781,347.877092 50.0705307,348.136039 C49.4015833,348.394987 48.6858816,348.522662 47.9234254,348.522662 C47.1753553,348.522662 46.4668465,348.394987 45.7978991,348.136039 C45.1289518,347.877092 44.5427237,347.445513 44.0392149,346.841303 C43.5357061,346.237092 43.1364956,345.427882 42.8415833,344.413671 C42.5466711,343.399461 42.3992149,342.137092 42.3992149,340.626566 C42.3992149,339.159197 42.5466711,337.925601 42.8415833,336.925776" id="Fill-26" stroke="none" fill="#000000" fill-rule="evenodd" mask="url(#mask-7)"></path>
                    <path d="M57.5051974,342.191039 C57.5339693,342.802443 57.6238816,343.392268 57.7749342,343.960513 C57.9259868,344.528759 58.1669518,345.014285 58.4978289,345.417092 C58.8287061,345.819899 59.303443,346.021303 59.9220395,346.021303 C60.5550219,346.021303 61.0405482,345.819899 61.3786184,345.417092 C61.7166886,345.014285 61.96125,344.528759 62.1123026,343.960513 C62.2633553,343.392268 62.3532675,342.802443 62.3820395,342.191039 C62.4108114,341.579636 62.4251974,341.058145 62.4251974,340.626566 C62.4251974,340.367618 62.4216009,340.054724 62.4144079,339.687882 C62.4072149,339.321039 62.378443,338.943408 62.3280921,338.554987 C62.2777412,338.166566 62.2058114,337.781741 62.1123026,337.400513 C62.0187939,337.019285 61.8785307,336.677618 61.6915132,336.375513 C61.5044956,336.073408 61.2671272,335.828846 60.9794079,335.641829 C60.6916886,335.454811 60.3392325,335.361303 59.9220395,335.361303 C59.5048465,335.361303 59.1559868,335.454811 58.8754605,335.641829 C58.5949342,335.828846 58.3647588,336.073408 58.1849342,336.375513 C58.0051096,336.677618 57.8648465,337.019285 57.7641447,337.400513 C57.663443,337.781741 57.5915132,338.166566 57.5483553,338.554987 C57.5051974,338.943408 57.4800219,339.321039 57.4728289,339.687882 C57.465636,340.054724 57.4620395,340.367618 57.4620395,340.626566 C57.4620395,341.058145 57.4764254,341.579636 57.5051974,342.191039 M54.8401974,336.925776 C55.1351096,335.925952 55.5343202,335.123934 56.0378289,334.519724 C56.5413377,333.915513 57.1275658,333.483934 57.7965132,333.224987 C58.4654605,332.966039 59.1739693,332.836566 59.9220395,332.836566 C60.6844956,332.836566 61.4001974,332.966039 62.0691447,333.224987 C62.7380921,333.483934 63.3279167,333.915513 63.8386184,334.519724 C64.3493202,335.123934 64.7521272,335.925952 65.0470395,336.925776 C65.3419518,337.925601 65.4894079,339.159197 65.4894079,340.626566 C65.4894079,342.137092 65.3419518,343.399461 65.0470395,344.413671 C64.7521272,345.427882 64.3493202,346.237092 63.8386184,346.841303 C63.3279167,347.445513 62.7380921,347.877092 62.0691447,348.136039 C61.4001974,348.394987 60.6844956,348.522662 59.9220395,348.522662 C59.1739693,348.522662 58.4654605,348.394987 57.7965132,348.136039 C57.1275658,347.877092 56.5413377,347.445513 56.0378289,346.841303 C55.5343202,346.237092 55.1351096,345.427882 54.8401974,344.413671 C54.5452851,343.399461 54.3978289,342.137092 54.3978289,340.626566 C54.3978289,339.159197 54.5452851,337.925601 54.8401974,336.925776" id="Fill-27" stroke="none" fill="#000000" fill-rule="evenodd" mask="url(#mask-7)"></path>
                    <path d="M69.5027325,342.191039 C69.5315044,342.802443 69.6214167,343.392268 69.7724693,343.960513 C69.9235219,344.528759 70.1644868,345.014285 70.495364,345.417092 C70.8262412,345.819899 71.3009781,346.021303 71.9195746,346.021303 C72.552557,346.021303 73.0380833,345.819899 73.3761535,345.417092 C73.7142237,345.014285 73.9587851,344.528759 74.1098377,343.960513 C74.2608904,343.392268 74.3508026,342.802443 74.3795746,342.191039 C74.4083465,341.579636 74.4227325,341.058145 74.4227325,340.626566 C74.4227325,340.367618 74.419136,340.054724 74.411943,339.687882 C74.40475,339.321039 74.3759781,338.943408 74.3256272,338.554987 C74.2752763,338.166566 74.2033465,337.781741 74.1098377,337.400513 C74.0163289,337.019285 73.8760658,336.677618 73.6890482,336.375513 C73.5020307,336.073408 73.2646623,335.828846 72.976943,335.641829 C72.6892237,335.454811 72.3367675,335.361303 71.9195746,335.361303 C71.5023816,335.361303 71.1535219,335.454811 70.8729956,335.641829 C70.5924693,335.828846 70.3622939,336.073408 70.1824693,336.375513 C70.0026447,336.677618 69.8623816,337.019285 69.7616798,337.400513 C69.6609781,337.781741 69.5890482,338.166566 69.5458904,338.554987 C69.5027325,338.943408 69.477557,339.321039 69.470364,339.687882 C69.4631711,340.054724 69.4595746,340.367618 69.4595746,340.626566 C69.4595746,341.058145 69.4739605,341.579636 69.5027325,342.191039 M66.8377325,336.925776 C67.1326447,335.925952 67.5318553,335.123934 68.035364,334.519724 C68.5388728,333.915513 69.1251009,333.483934 69.7940482,333.224987 C70.4629956,332.966039 71.1715044,332.836566 71.9195746,332.836566 C72.6820307,332.836566 73.3977325,332.966039 74.0666798,333.224987 C74.7356272,333.483934 75.3254518,333.915513 75.8361535,334.519724 C76.3468553,335.123934 76.7496623,335.925952 77.0445746,336.925776 C77.3394868,337.925601 77.486943,339.159197 77.486943,340.626566 C77.486943,342.137092 77.3394868,343.399461 77.0445746,344.413671 C76.7496623,345.427882 76.3468553,346.237092 75.8361535,346.841303 C75.3254518,347.445513 74.7356272,347.877092 74.0666798,348.136039 C73.3977325,348.394987 72.6820307,348.522662 71.9195746,348.522662 C71.1715044,348.522662 70.4629956,348.394987 69.7940482,348.136039 C69.1251009,347.877092 68.5388728,347.445513 68.035364,346.841303 C67.5318553,346.237092 67.1326447,345.427882 66.8377325,344.413671 C66.5428202,343.399461 66.395364,342.137092 66.395364,340.626566 C66.395364,339.159197 66.5428202,337.925601 66.8377325,336.925776" id="Fill-28" stroke="none" fill="#000000" fill-rule="evenodd" mask="url(#mask-7)"></path>
                    <path d="M81.5004474,342.191039 C81.5292193,342.802443 81.6191316,343.392268 81.7701842,343.960513 C81.9212368,344.528759 82.1622018,345.014285 82.4930789,345.417092 C82.8239561,345.819899 83.298693,346.021303 83.9172895,346.021303 C84.5502719,346.021303 85.0357982,345.819899 85.3738684,345.417092 C85.7119386,345.014285 85.9565,344.528759 86.1075526,343.960513 C86.2586053,343.392268 86.3485175,342.802443 86.3772895,342.191039 C86.4060614,341.579636 86.4204474,341.058145 86.4204474,340.626566 C86.4204474,340.367618 86.4168509,340.054724 86.4096579,339.687882 C86.4024649,339.321039 86.373693,338.943408 86.3233421,338.554987 C86.2729912,338.166566 86.2010614,337.781741 86.1075526,337.400513 C86.0140439,337.019285 85.8737807,336.677618 85.6867632,336.375513 C85.4997456,336.073408 85.2623772,335.828846 84.9746579,335.641829 C84.6869386,335.454811 84.3344825,335.361303 83.9172895,335.361303 C83.5000965,335.361303 83.1512368,335.454811 82.8707105,335.641829 C82.5901842,335.828846 82.3600088,336.073408 82.1801842,336.375513 C82.0003596,336.677618 81.8600965,337.019285 81.7593947,337.400513 C81.658693,337.781741 81.5867632,338.166566 81.5436053,338.554987 C81.5004474,338.943408 81.4752719,339.321039 81.4680789,339.687882 C81.460886,340.054724 81.4572895,340.367618 81.4572895,340.626566 C81.4572895,341.058145 81.4716754,341.579636 81.5004474,342.191039 M78.8354474,336.925776 C79.1303596,335.925952 79.5295702,335.123934 80.0330789,334.519724 C80.5365877,333.915513 81.1228158,333.483934 81.7917632,333.224987 C82.4607105,332.966039 83.1692193,332.836566 83.9172895,332.836566 C84.6797456,332.836566 85.3954474,332.966039 86.0643947,333.224987 C86.7333421,333.483934 87.3231667,333.915513 87.8338684,334.519724 C88.3445702,335.123934 88.7473772,335.925952 89.0422895,336.925776 C89.3372018,337.925601 89.4846579,339.159197 89.4846579,340.626566 C89.4846579,342.137092 89.3372018,343.399461 89.0422895,344.413671 C88.7473772,345.427882 88.3445702,346.237092 87.8338684,346.841303 C87.3231667,347.445513 86.7333421,347.877092 86.0643947,348.136039 C85.3954474,348.394987 84.6797456,348.522662 83.9172895,348.522662 C83.1692193,348.522662 82.4607105,348.394987 81.7917632,348.136039 C81.1228158,347.877092 80.5365877,347.445513 80.0330789,346.841303 C79.5295702,346.237092 79.1303596,345.427882 78.8354474,344.413671 C78.5405351,343.399461 78.3930789,342.137092 78.3930789,340.626566 C78.3930789,339.159197 78.5405351,337.925601 78.8354474,336.925776" id="Fill-29" stroke="none" fill="#000000" fill-rule="evenodd" mask="url(#mask-7)"></path>
                    <path d="M95.3323728,348.244294 L95.3323728,338.447452 L91.5344781,338.447452 L91.5344781,336.138504 C92.0667588,336.151092 92.581057,336.113329 93.0773728,336.01982 C93.5736886,335.924513 94.0196535,335.760873 94.4152675,335.523504 C94.8108816,335.286136 95.1453553,334.973241 95.4186886,334.583022 C95.6920219,334.196399 95.8718465,333.714469 95.9581623,333.139031 L98.3965833,333.139031 L98.3965833,348.244294 L95.3323728,348.244294 Z" id="Fill-30" stroke="none" fill="#000000" fill-rule="evenodd" mask="url(#mask-7)"></path>
                    <path d="M107.330088,348.244294 L107.330088,338.447452 L103.532193,338.447452 L103.532193,336.138504 C104.064474,336.151092 104.578772,336.113329 105.075088,336.01982 C105.571404,335.924513 106.017368,335.760873 106.412982,335.523504 C106.808596,335.286136 107.14307,334.973241 107.416404,334.583022 C107.689737,334.196399 107.869561,333.714469 107.955877,333.139031 L110.394298,333.139031 L110.394298,348.244294 L107.330088,348.244294 Z" id="Fill-31" stroke="none" fill="#000000" fill-rule="evenodd" mask="url(#mask-7)"></path>
                    <path d="M118.487482,335.663588 L117.883272,339.09464 L117.92643,339.137798 C118.343623,338.720605 118.789588,338.422096 119.264325,338.242272 C119.739061,338.062447 120.278535,337.972535 120.882746,337.972535 C121.630816,337.972535 122.29257,338.109202 122.868009,338.382535 C123.443447,338.655868 123.928974,339.022711 124.324588,339.483061 C124.720202,339.943412 125.022307,340.486482 125.230904,341.112272 C125.4395,341.738061 125.543798,342.403412 125.543798,343.108325 C125.543798,343.885167 125.392746,344.608061 125.09064,345.277009 C124.788535,345.945956 124.382132,346.524991 123.87143,347.014114 C123.35893,347.503237 122.767307,347.880868 122.091167,348.145211 C121.413228,348.413149 120.695728,348.539026 119.933272,348.522842 C119.199588,348.522842 118.498272,348.427535 117.829325,348.233325 C117.160377,348.039114 116.566956,347.740605 116.049061,347.337798 C115.531167,346.934991 115.115772,346.435079 114.808272,345.838061 C114.498974,345.241044 114.335333,344.545123 114.322746,343.755693 L117.386956,343.755693 C117.458886,344.446219 117.717833,344.994684 118.163798,345.406482 C118.609763,345.816482 119.178009,346.021482 119.868535,346.021482 C120.271342,346.021482 120.634588,345.938763 120.958272,345.773325 C121.281956,345.607886 121.555289,345.392096 121.778272,345.125956 C122.001254,344.859816 122.173886,344.550518 122.296167,344.198061 C122.418447,343.845605 122.479588,343.48236 122.479588,343.108325 C122.479588,342.719904 122.422044,342.353061 122.306956,342.007798 C122.191868,341.662535 122.019237,341.36043 121.789061,341.099684 C121.558886,340.842535 121.285553,340.641132 120.969061,340.497272 C120.65257,340.353412 120.285728,340.279684 119.868535,340.279684 C119.321868,340.279684 118.875904,340.378588 118.53064,340.571 C118.185377,340.767009 117.861693,341.072711 117.559588,341.489904 L114.797482,341.489904 L116.28643,333.138851 L124.723798,333.138851 L124.723798,335.663588 L118.487482,335.663588 Z" id="Fill-32" stroke="none" fill="#000000" fill-rule="evenodd" mask="url(#mask-7)"></path>
                    <path d="M132.836583,340.745789 C133.138689,340.594737 133.390443,340.389737 133.591846,340.128991 C133.79325,339.871842 133.944303,339.573333 134.045004,339.235263 C134.145706,338.897193 134.196057,338.539342 134.196057,338.165307 C134.196057,337.821842 134.14211,337.480175 134.034215,337.142105 C133.92632,336.804035 133.768075,336.50193 133.559478,336.233991 C133.350882,335.969649 133.095531,335.757456 132.793425,335.599211 C132.49132,335.440965 132.146057,335.361842 131.757636,335.361842 C131.397987,335.361842 131.074303,335.440965 130.786583,335.599211 C130.498864,335.757456 130.254303,335.966053 130.052899,336.223202 C129.851496,336.483947 129.700443,336.77886 129.599741,337.109737 C129.499039,337.440614 129.448689,337.778684 129.448689,338.123947 C129.448689,338.483596 129.495443,338.832456 129.588952,339.170526 C129.682461,339.508596 129.822724,339.808904 130.009741,340.076842 C130.196759,340.341184 130.437724,340.558772 130.732636,340.722412 C131.027548,340.889649 131.369215,340.972368 131.757636,340.972368 C132.174829,340.972368 132.534478,340.896842 132.836583,340.745789 M130.24711,345.674781 C130.606759,346.050614 131.052724,346.237632 131.585004,346.237632 C132.146057,346.237632 132.606408,346.075789 132.966057,345.750307 C133.325706,345.428421 133.613425,345.032807 133.829215,344.565263 C134.045004,344.097719 134.199654,343.597807 134.293162,343.065526 C134.386671,342.533246 134.447811,342.056711 134.476583,341.641316 L134.433425,341.598158 C134.016232,342.202368 133.52711,342.633947 132.966057,342.891096 C132.405004,343.151842 131.757636,343.281316 131.023952,343.281316 C130.376583,343.281316 129.743601,343.141053 129.125004,342.860526 C128.506408,342.58 127.98132,342.202368 127.549741,341.727632 C127.146934,341.267281 126.852022,340.742193 126.665004,340.152368 C126.477987,339.562544 126.384478,338.965526 126.384478,338.361316 C126.384478,337.582675 126.510355,336.861579 126.76211,336.192632 C127.013864,335.523684 127.373513,334.939254 127.841057,334.444737 C128.308601,333.948421 128.866057,333.556404 129.513425,333.268684 C130.160794,332.980965 130.880092,332.837105 131.67132,332.837105 C132.822197,332.837105 133.768075,333.063684 134.508952,333.515044 C135.249829,333.968202 135.84325,334.565219 136.289215,335.307895 C136.73518,336.048772 137.044478,336.886754 137.21711,337.821842 C137.389741,338.75693 137.476057,339.699211 137.476057,340.646886 C137.476057,341.583772 137.368162,342.517061 137.152373,343.453947 C136.936583,344.387237 136.59132,345.234211 136.116583,345.989474 C135.641846,346.744737 135.030443,347.35614 134.282373,347.823684 C133.534303,348.28943 132.620794,348.523202 131.541846,348.523202 C130.894478,348.523202 130.290268,348.433289 129.729215,348.255263 C129.168162,348.075439 128.671846,347.805702 128.240268,347.446053 C127.808689,347.084605 127.456232,346.645833 127.182899,346.129737 C126.909566,345.611842 126.729741,345.022018 126.643425,344.360263 L129.556583,344.360263 C129.657285,344.863772 129.887461,345.302544 130.24711,345.674781" id="Fill-33" stroke="none" fill="#000000" fill-rule="evenodd" mask="url(#mask-7)"></path>
                    <path d="M139.029382,336.538075 C139.259557,335.797197 139.60482,335.149829 140.065171,334.595969 C140.525522,334.040311 141.104557,333.610531 141.802276,333.299434 C142.499996,332.990136 143.302013,332.835487 144.208329,332.835487 C144.898855,332.835487 145.557013,332.94518 146.182803,333.159171 C146.808592,333.374961 147.358855,333.686057 147.833592,334.088864 C148.308329,334.489873 148.685961,334.987987 148.966487,335.577811 C149.247013,336.167636 149.387276,336.827592 149.387276,337.561276 C149.387276,338.323732 149.264996,338.978294 149.020434,339.524961 C148.775873,340.073425 148.452189,340.557154 148.049382,340.983338 C147.646575,341.407724 147.18982,341.792548 146.679118,342.136013 C146.168417,342.483075 145.654118,342.824741 145.136224,343.162811 C144.618329,343.500882 144.11482,343.862329 143.625697,344.25075 C143.136575,344.640969 142.704996,345.094127 142.330961,345.612022 L149.473592,345.612022 L149.473592,348.244654 L138.382013,348.244654 C138.382013,347.365311 138.50789,346.604654 138.759645,345.955487 C139.011399,345.309917 139.353066,344.730882 139.784645,344.218382 C140.216224,343.70768 140.723329,343.238338 141.305961,342.804961 C141.888592,342.373382 142.503592,341.936408 143.150961,341.490443 C143.481838,341.260268 143.834294,341.024697 144.208329,340.787329 C144.582364,340.549961 144.924031,340.289215 145.233329,340.001496 C145.542627,339.713776 145.801575,339.390092 146.010171,339.030443 C146.218768,338.670794 146.323066,338.260794 146.323066,337.798645 C146.323066,337.066759 146.110873,336.494917 145.686487,336.083118 C145.262101,335.674917 144.719031,335.468118 144.057276,335.468118 C143.611311,335.468118 143.23368,335.574215 142.924382,335.781013 C142.615083,335.98961 142.366925,336.264741 142.179908,336.601013 C141.99289,336.940882 141.85982,337.314917 141.780697,337.723118 C141.701575,338.134917 141.662013,338.539522 141.662013,338.944127 L138.727276,338.944127 C138.698504,338.079171 138.799206,337.278952 139.029382,336.538075" id="Fill-34" stroke="none" fill="#000000" fill-rule="evenodd" mask="url(#mask-7)"></path>
                    <path d="M154.330294,338.717368 C154.790645,339.05364 155.330118,339.222675 155.948715,339.222675 C156.596083,339.222675 157.135557,339.05364 157.567136,338.717368 C157.998715,338.379298 158.214504,337.886579 158.214504,337.239211 C158.214504,337.036009 158.185732,336.816623 158.128189,336.581053 C158.070645,336.343684 157.959154,336.117105 157.793715,335.901316 C157.626478,335.683728 157.398101,335.505702 157.103189,335.361842 C156.808276,335.217982 156.423452,335.146053 155.948715,335.146053 C155.64661,335.146053 155.355294,335.192807 155.074768,335.286316 C154.794241,335.379825 154.546083,335.512895 154.330294,335.683728 C154.114504,335.85636 153.945469,336.072149 153.823189,336.332895 C153.700908,336.590044 153.639768,336.892149 153.639768,337.239211 C153.639768,337.886579 153.869943,338.379298 154.330294,338.717368 M153.510294,344.727105 C153.654154,345.043596 153.844768,345.313333 154.082136,345.536316 C154.319504,345.759298 154.603627,345.93193 154.934504,346.054211 C155.265382,346.174693 155.610645,346.237632 155.970294,346.237632 C156.344329,346.237632 156.685996,346.174693 156.995294,346.054211 C157.304592,345.93193 157.577925,345.759298 157.815294,345.536316 C158.052662,345.313333 158.236083,345.043596 158.365557,344.727105 C158.495031,344.410614 158.559768,344.065351 158.559768,343.691316 C158.559768,343.329868 158.489636,343.004386 158.354768,342.709474 C158.218101,342.414561 158.031083,342.159211 157.793715,341.943421 C157.556346,341.727632 157.283013,341.562193 156.973715,341.447105 C156.664417,341.332018 156.329943,341.274474 155.970294,341.274474 C155.222224,341.274474 154.589241,341.477675 154.071346,341.889474 C153.553452,342.297675 153.294504,342.891096 153.294504,343.669737 C153.294504,344.058158 153.366434,344.410614 153.510294,344.727105 M151.309241,335.165833 C151.611346,334.647939 152.003364,334.218158 152.485294,333.872895 C152.967224,333.525833 153.510294,333.268684 154.114504,333.096053 C154.718715,332.921623 155.330118,332.835307 155.948715,332.835307 C156.883803,332.835307 157.675031,332.980965 158.322399,333.268684 C158.969768,333.556404 159.491259,333.903465 159.886873,334.315263 C160.282487,334.723465 160.56661,335.162237 160.739241,335.629781 C160.911873,336.099123 160.998189,336.518114 160.998189,336.892149 C160.998189,337.640219 160.814768,338.296579 160.447925,338.855833 C160.081083,339.418684 159.53082,339.819693 158.797136,340.066053 L158.797136,340.107412 C159.703452,340.310614 160.399373,340.738596 160.890294,341.39136 C161.377618,342.047719 161.623978,342.849737 161.623978,343.797412 C161.623978,344.603026 161.462136,345.302544 161.138452,345.89057 C160.814768,346.480395 160.386785,346.971316 159.854504,347.359737 C159.322224,347.74636 158.716215,348.039474 158.041873,348.233684 C157.363934,348.426096 156.675206,348.523202 155.970294,348.523202 C155.23661,348.523202 154.528101,348.433289 153.844768,348.255263 C153.161434,348.075439 152.550031,347.791316 152.010557,347.402895 C151.471083,347.012675 151.039504,346.525351 150.71582,345.935526 C150.392136,345.345702 150.230294,344.640789 150.230294,343.820789 C150.230294,342.85693 150.478452,342.051316 150.974768,341.402149 C151.471083,340.756579 152.172399,340.325 153.078715,340.107412 L153.078715,340.066053 C152.345031,339.864649 151.791171,339.483421 151.417136,338.92057 C151.043101,338.361316 150.856083,337.706754 150.856083,336.956886 C150.856083,336.282544 151.007136,335.683728 151.309241,335.165833" id="Fill-35" stroke="none" fill="#000000" fill-rule="evenodd" mask="url(#mask-7)"></path>
                    <path d="M168.593259,336.978825 L164.687469,342.222509 L168.657996,342.222509 L168.657996,336.978825 L168.593259,336.978825 Z M162.270627,344.747246 L162.270627,341.943781 L168.830627,333.137772 L171.571154,333.137772 L171.571154,342.222509 L173.577996,342.222509 L173.577996,344.747246 L171.571154,344.747246 L171.571154,348.244833 L168.657996,348.244833 L168.657996,344.747246 L162.270627,344.747246 Z" id="Fill-36" stroke="none" fill="#000000" fill-rule="evenodd" mask="url(#mask-7)"></path>
                    <path d="M179.900807,339.246053 C180.274842,339.215482 180.623702,339.134561 180.947386,338.996096 C181.27107,338.861228 181.537211,338.663421 181.745807,338.402675 C181.954404,338.145526 182.058702,337.798465 182.058702,337.368684 C182.058702,336.721316 181.842912,336.223202 181.411333,335.879737 C180.979754,335.534474 180.483439,335.361842 179.922386,335.361842 C179.145544,335.361842 178.559316,335.615395 178.163702,336.127895 C177.766289,336.638596 177.577474,337.28057 177.59186,338.059211 L174.678702,338.059211 C174.707474,337.28057 174.847737,336.57386 175.099491,335.931886 C175.351246,335.293509 175.703702,334.743246 176.15686,334.281096 C176.610018,333.820746 177.153088,333.466491 177.78607,333.214737 C178.419053,332.962982 179.123965,332.837105 179.900807,332.837105 C180.505018,332.837105 181.109228,332.925219 181.713439,333.106842 C182.317649,333.286667 182.860719,333.556404 183.342649,333.916053 C183.824579,334.273904 184.216596,334.712675 184.518702,335.232368 C184.820807,335.750263 184.97186,336.347281 184.97186,337.023421 C184.97186,337.757105 184.795632,338.402675 184.443175,338.965526 C184.090719,339.524781 183.562035,339.907807 182.857123,340.107412 L182.857123,340.152368 C183.689711,340.337588 184.34607,340.742193 184.820807,341.360789 C185.295544,341.979386 185.532912,342.720263 185.532912,343.583421 C185.532912,344.374649 185.378263,345.079561 185.068965,345.698158 C184.759667,346.316754 184.34607,346.834649 183.828175,347.251842 C183.310281,347.669035 182.711465,347.983728 182.037123,348.199518 C181.360982,348.417105 180.65607,348.523202 179.922386,348.523202 C179.073614,348.523202 178.300368,348.402719 177.602649,348.158158 C176.903132,347.911798 176.309711,347.557544 175.822386,347.088202 C175.333263,346.622456 174.955632,346.050614 174.689491,345.372675 C174.423351,344.696535 174.297474,343.921491 174.31186,343.042149 L177.225018,343.042149 C177.239404,343.446754 177.30414,343.831579 177.419228,344.198421 C177.534316,344.565263 177.699754,344.881754 177.915544,345.146096 C178.131333,345.414035 178.40107,345.626228 178.724754,345.784474 C179.048439,345.942719 179.433263,346.021842 179.879228,346.021842 C180.569754,346.021842 181.152386,345.807851 181.627123,345.385263 C182.10186,344.960877 182.339228,344.380044 182.339228,343.64636 C182.339228,343.072719 182.227737,342.633947 182.004754,342.331842 C181.781772,342.029737 181.497649,341.810351 181.152386,341.673684 C180.807123,341.535219 180.429491,341.456096 180.019491,341.436316 C179.609491,341.414737 179.217474,341.402149 178.843439,341.402149 L178.843439,339.246053 C179.174316,339.274825 179.526772,339.274825 179.900807,339.246053" id="Fill-37" stroke="none" fill="#000000" fill-rule="evenodd" mask="url(#mask-7)"></path>
                    <path d="M192.825697,340.745789 C193.127803,340.594737 193.379557,340.389737 193.580961,340.128991 C193.782364,339.871842 193.933417,339.573333 194.034118,339.235263 C194.13482,338.897193 194.185171,338.539342 194.185171,338.165307 C194.185171,337.821842 194.131224,337.480175 194.023329,337.142105 C193.915434,336.804035 193.757189,336.50193 193.548592,336.233991 C193.339996,335.969649 193.084645,335.757456 192.782539,335.599211 C192.480434,335.440965 192.135171,335.361842 191.74675,335.361842 C191.387101,335.361842 191.063417,335.440965 190.775697,335.599211 C190.487978,335.757456 190.243417,335.966053 190.042013,336.223202 C189.84061,336.483947 189.689557,336.77886 189.588855,337.109737 C189.488154,337.440614 189.437803,337.778684 189.437803,338.123947 C189.437803,338.483596 189.484557,338.832456 189.578066,339.170526 C189.671575,339.508596 189.811838,339.808904 189.998855,340.076842 C190.185873,340.341184 190.426838,340.558772 190.72175,340.722412 C191.016662,340.889649 191.358329,340.972368 191.74675,340.972368 C192.163943,340.972368 192.523592,340.896842 192.825697,340.745789 M190.236224,345.674781 C190.595873,346.050614 191.041838,346.237632 191.574118,346.237632 C192.135171,346.237632 192.595522,346.075789 192.955171,345.750307 C193.31482,345.428421 193.602539,345.032807 193.818329,344.565263 C194.034118,344.097719 194.188768,343.597807 194.282276,343.065526 C194.375785,342.533246 194.436925,342.056711 194.465697,341.641316 L194.422539,341.598158 C194.005346,342.202368 193.516224,342.633947 192.955171,342.891096 C192.394118,343.151842 191.74675,343.281316 191.013066,343.281316 C190.365697,343.281316 189.732715,343.141053 189.114118,342.860526 C188.495522,342.58 187.970434,342.202368 187.538855,341.727632 C187.136048,341.267281 186.841136,340.742193 186.654118,340.152368 C186.467101,339.562544 186.373592,338.965526 186.373592,338.361316 C186.373592,337.582675 186.499469,336.861579 186.751224,336.192632 C187.002978,335.523684 187.362627,334.939254 187.830171,334.444737 C188.297715,333.948421 188.855171,333.556404 189.502539,333.268684 C190.149908,332.980965 190.869206,332.837105 191.660434,332.837105 C192.811311,332.837105 193.757189,333.063684 194.498066,333.515044 C195.238943,333.968202 195.832364,334.565219 196.278329,335.307895 C196.724294,336.048772 197.033592,336.886754 197.206224,337.821842 C197.378855,338.75693 197.465171,339.699211 197.465171,340.646886 C197.465171,341.583772 197.357276,342.517061 197.141487,343.453947 C196.925697,344.387237 196.580434,345.234211 196.105697,345.989474 C195.630961,346.744737 195.019557,347.35614 194.271487,347.823684 C193.523417,348.28943 192.609908,348.523202 191.530961,348.523202 C190.883592,348.523202 190.279382,348.433289 189.718329,348.255263 C189.157276,348.075439 188.660961,347.805702 188.229382,347.446053 C187.797803,347.084605 187.445346,346.645833 187.172013,346.129737 C186.89868,345.611842 186.718855,345.022018 186.632539,344.360263 L189.545697,344.360263 C189.646399,344.863772 189.876575,345.302544 190.236224,345.674781" id="Fill-38" stroke="none" fill="#000000" fill-rule="evenodd" mask="url(#mask-7)"></path>
                    <polygon id="Fill-39" stroke="none" fill="#FF7900" fill-rule="evenodd" mask="url(#mask-7)" points="212.117456 387.460614 240.342719 387.460614 240.342719 359.235351 212.117456 359.235351"></polygon>
                    <path d="M221.740768,383.900088 C221.740768,384.162632 221.908004,384.410789 222.208311,384.410789 C222.531996,384.410789 222.848487,384.275921 223.164978,383.997193 L223.164978,383.065702 C222.19932,383.187982 221.740768,383.434342 221.740768,383.900088 L221.740768,383.900088 Z M223.190154,384.727281 C222.789145,384.988026 222.357566,385.1175 221.890022,385.1175 C221.158136,385.1175 220.724759,384.628377 220.724759,383.975614 C220.724759,383.096272 221.532171,382.630526 223.199145,382.441711 L223.199145,382.222325 C223.199145,381.938202 222.981557,381.772763 222.582346,381.772763 C222.183136,381.772763 221.857654,381.931009 221.623882,382.222325 L220.924364,381.826711 C221.291206,381.316009 221.848662,381.05886 222.598531,381.05886 C223.623531,381.05886 224.198969,381.501228 224.198969,382.222325 C224.198969,382.222325 224.197171,385.063553 224.198969,385.070746 L223.281864,385.070746 L223.190154,384.727281 Z" id="Fill-40" stroke="none" fill="#FFFFFF" fill-rule="evenodd" mask="url(#mask-7)"></path>
                    <path d="M225.015912,381.246596 L225.871877,381.127912 L225.965386,381.593658 C226.447316,381.241202 226.83214,381.054184 227.31407,381.054184 C228.123281,381.054184 228.538675,381.482167 228.538675,382.330939 L228.538675,385.06607 L227.506482,385.06607 L227.506482,382.510763 C227.506482,382.030632 227.380605,381.811246 227.00657,381.811246 C226.69907,381.811246 226.389772,381.955105 226.040912,382.248219 L226.040912,385.06607 L225.015912,385.06607 L225.015912,381.246596 Z" id="Fill-41" stroke="none" fill="#FFFFFF" fill-rule="evenodd" mask="url(#mask-7)"></path>
                    <path d="M236.161079,382.586469 C236.161079,382.059583 235.860772,381.752083 235.369851,381.752083 C234.904105,381.752083 234.612789,382.05239 234.569632,382.586469 L236.161079,382.586469 Z M235.386035,385.141776 C234.229763,385.141776 233.537439,384.397303 233.537439,383.104364 C233.537439,381.797039 234.236956,381.052566 235.369851,381.052566 C236.502746,381.052566 237.177088,381.773662 237.177088,383.052215 C237.177088,383.120548 237.169895,383.187083 237.169895,383.255417 L234.553447,383.255417 C234.562439,383.998092 234.869939,384.373925 235.479544,384.373925 C235.869763,384.373925 236.126912,384.21568 236.369675,383.872215 L237.128535,384.291206 C236.794061,384.848662 236.195246,385.141776 235.386035,385.141776 L235.386035,385.141776 Z" id="Fill-42" stroke="none" fill="#FFFFFF" fill-rule="evenodd" mask="url(#mask-7)"></path>
                    <path d="M215.590947,381.912127 C214.8195,381.912127 214.677439,382.608048 214.677439,383.111557 C214.677439,383.613268 214.8195,384.310987 215.590947,384.310987 C216.362395,384.310987 216.506254,383.613268 216.506254,383.111557 C216.506254,382.608048 216.362395,381.912127 215.590947,381.912127 M215.590947,385.183136 C214.569544,385.183136 213.647044,384.532171 213.647044,383.111557 C213.647044,381.689145 214.569544,381.03818 215.590947,381.03818 C216.612351,381.03818 217.534851,381.689145 217.534851,383.111557 C217.534851,384.532171 216.612351,385.183136 215.590947,385.183136" id="Fill-43" stroke="none" fill="#FFFFFF" fill-rule="evenodd" mask="url(#mask-7)"></path>
                    <path d="M218.243539,381.141219 L219.225382,381.141219 L219.225382,381.603368 C219.412399,381.353412 219.876346,381.060298 220.309724,381.060298 C220.351083,381.060298 220.401434,381.060298 220.442794,381.067491 L220.442794,382.036746 L220.392443,382.036746 C219.942882,382.036746 219.450162,382.106877 219.291917,382.455737 L219.291917,385.070386 L218.243539,385.070386 L218.243539,381.141219 Z" id="Fill-44" stroke="none" fill="#FFFFFF" fill-rule="evenodd" mask="url(#mask-7)"></path>
                    <path d="M232.913987,381.127193 L232.913987,384.845965 C232.913987,385.504123 232.863636,386.58307 230.991662,386.595658 C230.218417,386.601053 229.504513,386.291754 229.360654,385.617412 L230.380259,385.451974 C230.423417,385.646184 230.542101,385.838596 231.119338,385.838596 C231.657013,385.838596 231.914162,385.583246 231.914162,384.968246 L231.914162,384.511491 L231.899776,384.497105 C231.734338,384.788421 231.48618,385.067149 230.885566,385.067149 C229.970259,385.067149 229.247364,384.432368 229.247364,383.105263 C229.247364,381.790746 229.991838,381.057061 230.828022,381.055263 C231.610259,381.053465 231.903373,381.409518 231.96811,381.600132 L231.95732,381.596535 L232.041838,381.127193 L232.913987,381.127193 Z M231.070785,384.22557 C231.85482,384.220175 231.921355,383.421754 231.921355,382.900263 C231.921355,382.287061 231.621048,381.787149 231.063592,381.787149 C230.691355,381.787149 230.277759,382.058684 230.277759,382.943421 C230.277759,383.428947 230.311925,384.232763 231.070785,384.22557 L231.070785,384.22557 Z" id="Fill-45" stroke="none" fill="#FFFFFF" fill-rule="evenodd" mask="url(#mask-7)"></path>
                    <path d="M239.275461,380.949886 L239.061469,380.949886 L239.061469,379.863746 L239.054276,379.863746 L238.62989,380.949886 L238.493224,380.949886 L238.068838,379.863746 L238.061645,379.863746 L238.061645,380.949886 L237.847654,380.949886 L237.847654,379.651553 L238.178531,379.651553 L238.565154,380.636991 L238.946382,379.651553 L239.275461,379.651553 L239.275461,380.949886 Z M237.583311,379.824184 L237.176908,379.824184 L237.176908,380.949886 L236.962917,380.949886 L236.962917,379.824184 L236.556513,379.824184 L236.556513,379.651553 L237.583311,379.651553 L237.583311,379.824184 Z" id="Fill-46" stroke="none" fill="#FFFFFF" fill-rule="evenodd" mask="url(#mask-7)"></path>
                    <path d="M68.6669079,385.461325 L68.8341447,385.461325 C68.7676096,386.707509 68.2155482,387.3315 67.0412939,387.3315 C66.5413816,387.3315 66.1439693,387.19843 65.8526535,386.935886 C65.5649342,386.669746 65.3707237,386.27593 65.2826096,385.758035 C64.5471272,386.27593 63.8799781,386.669746 63.2739693,386.935886 C62.6661623,387.19843 62.1284868,387.3315 61.6501535,387.3315 C61.0405482,387.3315 60.5136623,387.158868 60.0766886,386.811807 C59.6361184,386.461149 59.413136,386.006193 59.413136,385.436149 C59.413136,384.689877 59.7889693,384.040711 60.5226535,383.486851 C61.2599342,382.924 62.2777412,382.384526 63.5778728,381.852246 L65.2826096,381.163518 L65.2826096,380.728342 C65.2826096,380.109746 65.2430482,379.661982 65.1621272,379.386851 C65.0812061,379.108123 64.8672149,378.662158 64.5273465,378.440974 C64.1874781,378.225184 63.7397149,378.110096 63.184057,378.110096 C62.0763377,378.110096 61.4577412,378.68014 61.3282675,379.410228 C61.2149781,380.154702 60.9092763,380.528737 60.4201535,380.528737 C59.9795833,380.528737 59.7601974,380.32014 59.7601974,379.893956 C59.7601974,379.48036 60.0533114,379.037991 60.6485307,378.563254 C61.2419518,378.086719 62.1644518,377.851149 63.4250219,377.851149 C64.3547149,377.851149 65.0776096,377.993211 65.5919079,378.282728 C66.1026096,378.570447 66.4460746,378.89593 66.6079167,379.269965 C66.7751535,379.638605 66.8560746,380.201456 66.8560746,380.958518 L66.8560746,384.551412 C66.8560746,385.387596 66.8632675,385.939658 66.9711623,386.168035 C67.1024342,386.432377 67.3433991,386.522289 67.6473026,386.522289 C68.1418202,386.522289 68.5446272,386.168035 68.6669079,385.461325 L68.6669079,385.461325 Z M65.2826096,381.674219 L64.0831798,382.156149 C62.1878289,382.911412 61.2455482,383.866281 61.2455482,385.008167 C61.2455482,385.464921 61.3660307,385.829965 61.6069956,386.106895 C61.8497588,386.382026 62.1644518,386.622991 62.5528728,386.622991 C62.898136,386.622991 63.2991447,386.547465 63.7541009,386.320886 C64.209057,386.096105 64.7179605,385.860535 65.2826096,385.400184 L65.2826096,381.674219 Z" id="Fill-47" stroke="none" fill="#008F8D" fill-rule="evenodd" mask="url(#mask-7)"></path>
                    <path d="M81.1053728,386.906575 C80.1271272,386.906575 79.3898465,386.512759 78.8935307,385.728724 C78.3954167,384.946487 78.149057,383.768636 78.149057,382.207759 C78.149057,381.999162 78.163443,381.679075 78.1976096,381.249294 L84.4429167,381.249294 C84.4105482,380.420303 84.0688816,379.641662 83.4251096,378.925961 C82.7813377,378.208461 81.8714254,377.848811 80.6953728,377.848811 C79.4419956,377.848811 78.4062061,378.312759 77.5736184,379.24425 C76.7392325,380.175741 76.3238377,381.341004 76.3238377,382.745434 C76.3238377,383.736268 76.5396272,384.579645 76.9694079,385.277364 C77.4009868,385.969689 77.9530482,386.509162 78.6327851,386.888592 C79.3053289,387.266224 80.0246272,387.460434 80.7798904,387.460434 C81.6016886,387.460434 82.3569518,387.253636 83.0510746,386.838241 C83.7469956,386.428241 84.210943,385.854601 84.4429167,385.122715 L84.2001535,385.122715 C83.6408991,386.309557 82.4414693,386.906575 81.1053728,386.906575 M80.6216447,378.190478 C82.3191886,378.190478 82.5691447,379.69561 82.5691447,380.333987 C82.5691447,380.467057 82.5619518,380.616311 82.5385746,380.877057 L78.2281798,380.877057 C78.4817325,379.139952 79.2855482,378.190478 80.6216447,378.190478" id="Fill-48" stroke="none" fill="#008F8D" fill-rule="evenodd" mask="url(#mask-7)"></path>
                    <path d="M87.7899912,372.114925 C87.5652105,372.221022 87.1444211,372.447601 86.5456053,372.553697 C85.943193,372.657996 85.4127105,372.708346 84.9685439,372.708346 L84.9685439,372.830627 C85.6231053,372.830627 86.0295088,372.952908 86.2057368,373.201066 C86.3729737,373.443829 86.4574912,374.260232 86.4574912,375.200715 L86.4574912,387.124882 L88.0255614,387.124882 L88.0255614,372.114925 L87.7899912,372.114925 Z" id="Fill-49" stroke="none" fill="#008F8D" fill-rule="evenodd" mask="url(#mask-7)"></path>
                    <path d="M57.0599518,379.402675 C56.9304781,378.965702 56.6391623,378.606053 56.1913991,378.31114 C55.7400395,378.007237 55.1610044,377.861579 54.4542939,377.861579 C53.8392939,377.861579 53.2458728,378.01443 52.6812237,378.329123 C52.1093816,378.634825 51.4080658,379.291184 51.0448202,379.938553 C51.0196447,379.143728 50.9207412,378.318333 50.7499079,377.861579 L50.4531974,377.861579 C49.6098202,378.107939 48.7862237,378.395658 47.9860044,378.483772 L47.9860044,378.61864 C48.5074956,378.61864 48.8671447,378.677982 49.0613553,378.787675 C49.257364,378.900965 49.3688553,379.289386 49.4120132,379.508772 C49.4515746,379.731754 49.469557,380.366535 49.469557,381.407719 L49.469557,387.124342 L51.0448202,387.124342 L51.0448202,380.485219 C51.4692061,379.84864 51.9187675,379.372105 52.3971009,379.055614 C52.8718377,378.740921 53.37175,378.580877 53.8968377,378.580877 C54.3553904,378.580877 54.7330219,378.697763 55.0297325,378.927939 C55.3282412,379.159912 55.509864,379.424254 55.5817939,379.729956 C55.6465307,380.028465 55.6788991,380.530175 55.6788991,381.235088 L55.6788991,387.124342 L57.2559605,387.124342 L57.2559605,381.301623 C57.2559605,380.467237 57.1894254,379.836053 57.0599518,379.402675" id="Fill-50" stroke="none" fill="#008F8D" fill-rule="evenodd" mask="url(#mask-7)"></path>
                    <path d="M75.1337588,378.5985 L72.4993289,378.5985 L72.4993289,384.020211 C72.4993289,384.852798 72.5316974,385.406658 72.6054254,385.697974 C72.6719605,385.982096 72.7960395,386.284202 73.0280132,386.455035 C73.2563904,386.631263 73.5351184,386.731965 73.7976623,386.731965 C74.3101623,386.731965 74.9970921,386.352535 75.3765219,385.755518 L75.5311711,385.847228 C75.3063904,386.32736 74.9665219,386.780518 74.5061711,387.086219 C74.0889781,387.357754 73.6070482,387.417096 73.1664781,387.417096 C72.6485833,387.417096 72.1954254,387.260649 71.8016096,386.953149 C71.4095921,386.643851 71.1632325,386.277009 71.0679254,385.865211 C70.9708202,385.451614 70.9276623,384.719728 70.9276623,383.68214 L70.9276623,378.5985 L69.6311272,378.5985 L69.6311272,378.190298 C71.4095921,378.190298 72.155864,376.21043 72.155864,375.358061 L72.4993289,375.358061 L72.4993289,378.190298 L75.1337588,378.190298" id="Fill-51" stroke="none" fill="#008F8D" fill-rule="evenodd" mask="url(#mask-7)"></path>
                    <path d="M30.0810526,386.971491 L29.9479825,386.971491 L29.9479825,384.315482 L30.0810526,384.315482 C30.5755702,386.036404 31.8900877,386.707149 33.1668421,386.707149 C34.5317105,386.707149 34.9489035,385.678553 34.9489035,385.277544 C34.9489035,384.804605 34.8068421,384.417982 34.5173246,384.112281 C34.2242105,383.813772 33.6487719,383.450526 32.7892105,383.029737 C31.8864912,382.587368 31.2373246,382.146798 30.845307,381.717018 C30.4532895,381.298026 30.2572807,380.772939 30.2572807,380.154342 C30.2572807,379.564518 30.3867544,379.086184 30.8093421,378.548509 C31.2319298,378.018026 32.0519298,377.663772 32.8161842,377.663772 C33.8267982,377.663772 34.6360088,378.185263 35.2348246,378.872193 C35.3966667,378.712149 35.5081579,378.330921 35.5872807,377.937105 L35.7275439,377.937105 L35.7275439,380.438465 L35.581886,380.438465 C35.4110526,379.505175 34.3015351,378.088158 32.888114,378.088158 C31.6401316,378.088158 31.2373246,379.235439 31.2373246,379.593289 C31.2373246,379.983509 31.3865789,380.229868 31.6850877,380.515789 C31.972807,380.803509 32.5284649,381.136184 33.3502632,381.508421 C34.5874561,382.071272 35.3265351,382.439912 35.758114,383.137632 C36.189693,383.831754 36.1932895,384.203991 36.1932895,384.703904 C36.1932895,385.480746 35.5171491,387.334737 33.1758333,387.334737 C32.4007895,387.334737 31.3020614,387.032632 30.4946491,386.086754 C30.4946491,386.086754 30.1170175,386.602851 30.0810526,386.971491" id="Fill-52" stroke="none" fill="#008F8D" fill-rule="evenodd" mask="url(#mask-7)"></path>
                    <path d="M37.8807632,382.519754 C37.8807632,381.158482 38.3393158,380.025588 39.2564211,379.103088 C40.1771228,378.194974 41.2992281,377.732825 42.6371228,377.732825 C43.9822105,377.732825 45.1187018,378.194974 46.0340088,379.110281 C46.9493158,380.029184 47.4060702,381.165675 47.4060702,382.519754 C47.4060702,384.017693 46.9421228,385.200939 46.0106316,386.058702 C45.0791404,386.912868 43.9570351,387.342649 42.6371228,387.342649 C41.3244035,387.342649 40.1987018,386.905675 39.2726053,386.031728 C38.3465088,385.159579 37.8807632,383.985325 37.8807632,382.519754 M39.7113772,382.573702 C39.7113772,384.148965 39.9685263,385.254886 40.4864211,385.88607 C40.9953246,386.517254 41.7164211,386.831947 42.6443158,386.831947 C43.5937895,386.831947 44.3220789,386.517254 44.820193,385.88607 C45.3272982,385.254886 45.5772544,384.148965 45.5772544,382.573702 C45.5772544,381.012825 45.332693,379.903307 44.8291842,379.239754 C44.3292719,378.576202 43.597386,378.245325 42.6443158,378.245325 C41.6984386,378.245325 40.9701491,378.576202 40.4648421,379.228965 C39.9649298,379.894316 39.7113772,381.009228 39.7113772,382.573702" id="Fill-53" stroke="none" fill="#008F8D" fill-rule="evenodd" mask="url(#mask-7)"></path>
                </g>
            </g>
            <path id="Line" d="M46,179 L12.5,179 L11.5,179 L11.5,177 L12.5,177 L46,177 L46,171 L60,178 L46,185 L46,179 Z" fill="#FF7900" fill-rule="nonzero"></path>
        </g>
    </g>
</svg>