<svg width="375" height="70" viewBox="0 0 375 70" xmlns="http://www.w3.org/2000/svg" xmlns:xlink="http://www.w3.org/1999/xlink">
    <defs>
        <path id="nrm2xqoama" d="M.587.25h120.334v37H.587z"/>
        <path id="axcqqpvf0c" d="M21.089 0 0 5.665l12.793 47.746 28.305-7.604L28.824 0z"/>
    </defs>
    <g style="mix-blend-mode:multiply" fill="none" fill-rule="evenodd">
        <path fill="#FFF" d="M0 70h375V0H0z"/>
        <path d="M36.142 8.4s-3.546 1.97-2.063 7.671c1.482 5.702-1.299 9.382-9.789 12.628-8.489 3.247-16.002 16.655-7.312 23.118 8.691 6.462 24.261 2.984 28.84 2.546 4.576-.437 12.063-1.67 21.13 3.791 9.067 5.461 22.785 9.805 36.445 4.965 13.661-4.84 30.544-3.51 51.662 1.477 21.117 4.99 37.371-1.942 37.371-1.942s16.193-7.38 37.065-2.462c20.873 4.918 36.197 6.135 52.205.58 16.01-5.555 33.202-1.08 36.265-.54 3.061.54 33.14 5.044 41.772-4.813 8.631-9.858-11.498-9.539-11.04-17.487.46-7.949 10.014-25.778-4.589-28.859-14.602-3.08-43.533 10.11-64.016 6.086-20.484-4.023-16.233-12.009-49.53-7.422-33.298 4.586-46.019 9.222-60.33 7.271-14.312-1.95-29.695-16.47-58.197-7.135-6.7 2.194-36.094 4.772-55.425-1.139C49.29 4.497 38.392 4.992 36.142 8.4" fill="#FFCC9E"/>
        <path d="M309.18 10.408c11.525.17 22.512-5.896 34.027-5.419 3.166.13 6.45.826 8.898 2.84 2.447 2.014 3.79 5.605 2.468 8.485M13.967 32.43c.221-2.813 2.913-4.778 5.56-5.758 2.644-.98 5.561-1.42 7.838-3.085 2.105-1.538 3.443-4.078 3.523-6.684M188.817 66.946c8.828-4.22 18.897-5.208 28.668-4.675 9.77.534 19.395 2.513 29.072 3.96" stroke="#FF7900" stroke-width="2" stroke-linecap="round" stroke-linejoin="round"/>
        <g transform="translate(130 14.89)">
            <mask id="ol744yw5rb" fill="#fff">
                <use xlink:href="#nrm2xqoama"/>
            </mask>
            <path d="M124.588 42.75c0 23.472-29.997 42.5-67 42.5s-67-19.028-67-42.5 29.997-42.5 67-42.5 67 19.028 67 42.5z" stroke="#FFF" stroke-width="1.5" stroke-linecap="round" stroke-dasharray="6.006,6.006" mask="url(#ol744yw5rb)"/>
        </g>
        <g>
            <path d="M323.702 17.166c2.562 0 4.674 2.184 4.674 4.745 0-2.56 2.112-4.745 4.674-4.745-2.562 0-4.674-2.184-4.674-4.745 0 2.561-2.112 4.745-4.674 4.745z" stroke="#FFB4E6"/>
            <path d="M157.87 40.5c2.561 0 4.673 2.184 4.673 4.745 0-2.561 2.112-4.745 4.674-4.745-2.562 0-4.674-2.184-4.674-4.745 0 2.56-2.112 4.745-4.674 4.745zM90.414 55.307c2.562 0 4.674 2.184 4.674 4.745 0-2.561 2.112-4.745 4.674-4.745-2.562 0-4.674-2.184-4.674-4.746 0 2.562-2.112 4.746-4.674 4.746zM85.667 9.625l2.18 2.182M89.42 13.379l2.182 2.182M85.667 15.56l2.18-2.181M89.42 11.807l2.182-2.182M289.152 50.538l2.18 2.182M292.906 54.292l2.182 2.182M289.152 56.474l2.18-2.182M292.906 52.72l2.182-2.182M203.318 43.872l2.183 2.18M207.073 47.625l2.18 2.182M203.318 49.807l2.183-2.182M207.073 46.053l2.18-2.181" stroke="#FFF"/>
            <path d="M143.158 21.639c.876-.695 1.753-1.39 2.63-2.083.53-.42.438-1.33 0-1.77-.523-.523-1.237-.42-1.768 0l-2.63 2.084c-.53.42-.44 1.33 0 1.768.523.523 1.237.421 1.768 0M137.3 18.522l1.182-3.696c.49-1.536-1.922-2.194-2.41-.665l-1.182 3.696c-.491 1.537 1.922 2.194 2.41.665M145.841 32.944l3.58-.387c.67-.073 1.25-.523 1.25-1.25 0-.62-.575-1.323-1.25-1.25l-3.58.387c-.67.072-1.25.522-1.25 1.25 0 .62.575 1.323 1.25 1.25" fill="#FFF"/>
            <path d="M343.231 51.307c2.792 0 5.095 2.38 5.095 5.172 0-2.792 2.302-5.172 5.094-5.172-2.792 0-5.094-2.38-5.094-5.172 0 2.792-2.303 5.172-5.095 5.172zM32.662 20.807c2.674 0 4.88 2.279 4.88 4.954 0-2.675 2.204-4.954 4.88-4.954-2.676 0-4.88-2.28-4.88-4.954 0 2.674-2.206 4.954-4.88 4.954z" stroke="#FFB4E6"/>
            <path stroke="#57C799" d="m23.61 44.667 2.277 2.277M27.529 48.586l2.277 2.277M23.61 50.863l2.277-2.277M27.529 46.944l2.277-2.277"/>
            <path stroke="#FFD200" d="m352.502 24.388 2.277 2.277M356.42 28.307l2.278 2.277M352.502 30.584l2.277-2.277M356.42 26.665l2.278-2.277"/>
            <path d="m139.797 57.778-26.214 7.024a2.055 2.055 0 0 1-2.51-1.448L98.548 16.602a2.055 2.055 0 0 1 1.449-2.51L126.21 7.07a2.054 2.054 0 0 1 2.508 1.448l12.527 46.752a2.054 2.054 0 0 1-1.448 2.508" fill="#FFF"/>
            <path d="m139.797 57.778-26.214 7.024a2.055 2.055 0 0 1-2.51-1.448L98.548 16.602a2.055 2.055 0 0 1 1.449-2.51L126.21 7.07a2.054 2.054 0 0 1 2.508 1.448l12.527 46.752a2.054 2.054 0 0 1-1.448 2.508z" stroke="#000" stroke-width="1.5" stroke-linecap="round" stroke-linejoin="round"/>
            <path d="m139.797 57.778-26.214 7.024a2.055 2.055 0 0 1-2.51-1.448L98.548 16.602a2.055 2.055 0 0 1 1.449-2.51L126.21 7.07a2.054 2.054 0 0 1 2.508 1.448l12.527 46.752a2.054 2.054 0 0 1-1.448 2.508z" stroke="#000" stroke-width="2"/>
            <path fill="#000" d="m137.648 45.635-28.276 7.577 3.128 11.673 28.276-7.576z"/>
            <path d="M128.457 55.033a3.326 3.326 0 1 1-6.426 1.72 3.326 3.326 0 0 1 6.425-1.72" fill="#FFF"/>
            <path d="M128.457 55.033a3.326 3.326 0 1 1-6.426 1.72 3.326 3.326 0 0 1 6.425-1.72z" stroke="#FFF" stroke-width=".5"/>
        </g>
        <g>
            <path d="M280.352 18.015h-22.987v29.748a5.42 5.42 0 0 1-5.408 5.409h-5.409a5.42 5.42 0 0 1-5.409-5.41V18.016h-1.352a4.058 4.058 0 0 0-4.056 4.057v32.452a4.058 4.058 0 0 0 4.056 4.056h40.565a4.058 4.058 0 0 0 4.057-4.056V22.072a4.058 4.058 0 0 0-4.057-4.057z" fill="#FF7900" fill-rule="nonzero"/>
            <path d="M241.14 16.285h-1.353A5.788 5.788 0 0 0 234 22.072v32.452a5.788 5.788 0 0 0 5.787 5.787h40.565a5.788 5.788 0 0 0 5.787-5.787V22.072a5.788 5.788 0 0 0-5.787-5.787h-22.987a1.73 1.73 0 0 0-1.73 1.73v29.748a3.688 3.688 0 0 1-3.678 3.678h-5.409a3.688 3.688 0 0 1-3.678-3.678V18.015a1.73 1.73 0 0 0-1.73-1.73zm0 1.73v29.748a5.42 5.42 0 0 0 5.21 5.405l.198.004h5.409a5.42 5.42 0 0 0 5.405-5.211l.003-.198V18.015h22.987a4.058 4.058 0 0 1 4.052 3.871l.005.186v32.452a4.058 4.058 0 0 1-3.871 4.052l-.186.004h-40.565a4.058 4.058 0 0 1-4.052-3.87l-.004-.186V22.072a4.058 4.058 0 0 1 3.87-4.052l.186-.005h1.352z" fill="#000" fill-rule="nonzero"/>
            <path d="M246.548 50.467h5.409a2.71 2.71 0 0 0 2.704-2.704V18.015a2.71 2.71 0 0 0-2.704-2.704h-5.409a2.711 2.711 0 0 0-2.704 2.704v29.748a2.712 2.712 0 0 0 2.704 2.704z" fill="#000"/>
            <path d="M268.183 51.82c0 .75-.602 1.352-1.352 1.352h-2.705c-.75 0-1.352-.603-1.352-1.353v-2.704c0-.75.602-1.352 1.352-1.352h2.705c.75 0 1.352.602 1.352 1.352v2.704zM268.183 41.002c0 .75-.602 1.352-1.352 1.352h-2.705c-.752 0-1.352-.6-1.352-1.352v-2.704c0-.752.6-1.352 1.352-1.352h2.705c.752 0 1.352.6 1.352 1.352v2.704zM279 51.82c0 .75-.602 1.352-1.352 1.352h-2.704c-.75 0-1.353-.603-1.353-1.353v-2.704c0-.75.602-1.352 1.353-1.352h2.704c.75 0 1.352.602 1.352 1.352v2.704zM279 41.002c0 .75-.602 1.352-1.352 1.352h-2.704c-.753 0-1.353-.6-1.353-1.352v-2.704c0-.752.6-1.352 1.353-1.352h2.704c.752 0 1.352.6 1.352 1.352v2.704z" fill="#000" fill-rule="nonzero"/>
            <path fill="#FFF" fill-rule="nonzero" d="M279 31.537h-16.226v-8.113H279z"/>
            <path d="M279 21.693h-16.226a1.73 1.73 0 0 0-1.73 1.731v8.113c0 .956.774 1.73 1.73 1.73H279a1.73 1.73 0 0 0 1.73-1.73v-8.113a1.73 1.73 0 0 0-1.73-1.73zm0 1.731v8.113h-16.226v-8.113H279z" fill="#000" fill-rule="nonzero"/>
        </g>
    </g>
</svg>
