<svg xmlns="http://www.w3.org/2000/svg" xmlns:xlink="http://www.w3.org/1999/xlink" width="24" height="24" viewBox="0 0 24 24">
    <defs>
        <path id="a" d="M23.606 17.331l-6.5-6.169-1.644-1.558a.328.328 0 0 1-.038-.037l-.014-.013a.395.395 0 0 1 .006-.525.378.378 0 0 1 .514-.043l.006-.006 2.826 2.682a1.527 1.527 0 0 0 2.185-.077 1.593 1.593 0 0 0-.076-2.223L18.045 6.68l-2.261-2.146a7.63 7.63 0 0 0-7.11-1.89L6.135.234a.845.845 0 0 0-1.225.063L.262 5.365a.879.879 0 0 0 .042 1.231L2.88 9.04a7.937 7.937 0 0 0 2.362 6.995l2.826 2.682 4.238 4.02c.471.413 1.179.373 1.603-.09a1.195 1.195 0 0 0-.023-1.634l-4.239-4.022.002-.002a.395.395 0 0 1 .118-.687.38.38 0 0 1 .404.12l.005-.005 1.13 1.071 6.5 6.169c.303.287.733.389 1.13.265.396-.123.697-.452.79-.862.094-.41-.036-.84-.338-1.128l-6.5-6.169v-.002h-.002a.395.395 0 0 1 .15-.66.38.38 0 0 1 .374.088l.002.002v-.001l7.63 7.242a1.145 1.145 0 0 0 1.639-.058 1.194 1.194 0 0 0-.057-1.667l-7.63-7.242.002-.003a.396.396 0 0 1-.018-.553.38.38 0 0 1 .543-.02l6.504 6.167c.47.431 1.192.4 1.624-.071a1.195 1.195 0 0 0-.043-1.654zM12.89 10.099L9.21 14.226l-3.682-4.127a2.659 2.659 0 0 1 .06-3.685 2.549 2.549 0 0 1 3.622.005 2.549 2.549 0 0 1 3.62-.005 2.659 2.659 0 0 1 .061 3.685z"/>
    </defs>
    <g fill="none" fill-rule="evenodd">
        <mask id="b" fill="#fff">
            <use xlink:href="#a"/>
        </mask>
        <g fill="#FF7900" mask="url(#b)">
            <path d="M0 0h24v24H0z"/>
        </g>
    </g>
</svg>
