<svg xmlns="http://www.w3.org/2000/svg" xmlns:xlink="http://www.w3.org/1999/xlink" width="40" height="40" viewBox="0 0 40 40">
    <defs>
        <path id="a" d="M16.01 11.206H4.271c-1.426 0-2.582 1.2-2.582 2.68 0 1.48 1.156 2.68 2.582 2.68h5.504L.803 25.876a2.749 2.749 0 0 0-.682 2.595c.238.93.938 1.656 1.833 1.903a2.52 2.52 0 0 0 2.5-.708l8.973-9.312v5.712c0 1.48 1.156 2.68 2.582 2.68s2.583-1.2 2.583-2.68V13.886c0-1.48-1.157-2.68-2.583-2.68zm23.187-.921a2.516 2.516 0 0 0-3.652 0l-8.972 9.312v-5.711c0-1.48-1.156-2.68-2.582-2.68s-2.583 1.2-2.583 2.68v12.18c0 1.48 1.157 2.68 2.583 2.68h11.737c1.426 0 2.582-1.2 2.582-2.68 0-1.48-1.156-2.68-2.582-2.68h-5.504l8.973-9.311a2.752 2.752 0 0 0 0-3.79z"/>
    </defs>
    <g fill="none" fill-rule="evenodd">
        <mask id="b" fill="#fff">
            <use xlink:href="#a"/>
        </mask>
        <g fill="#000" mask="url(#b)">
            <path d="M0 0h40v40H0z"/>
        </g>
    </g>
</svg>
