<svg xmlns="http://www.w3.org/2000/svg" xmlns:xlink="http://www.w3.org/1999/xlink" width="20" height="20" viewBox="0 0 20 20">
    <defs>
        <path id="a" d="M19.614 7.304a.588.588 0 1 0-1.133.315 8.82 8.82 0 0 1 .324 2.37c0 5.67-5.353 10.09-11.281 8.481-2.594-.705-5.312-3.42-6.015-6.015C-.099 6.528 4.32 1.175 9.99 1.175c.806 0 1.608.11 2.383.326A.588.588 0 1 0 12.688.37 9.997 9.997 0 0 0 9.99 0C3.604 0-1.383 5.993.347 12.662c.787 3.036 3.935 6.184 6.971 6.971 6.669 1.73 12.662-3.257 12.662-9.643 0-.908-.122-1.812-.366-2.686zM16.62 3.948a.588.588 0 1 0 0-1.175.588.588 0 0 0 0 1.175zm-1.833-1.433a.588.588 0 1 0 0-1.175.588.588 0 0 0 0 1.175zm3.29 3.29a.588.588 0 1 0 0-1.175.588.588 0 0 0 0 1.175zm-6.003 6.632c-.5.498-1.763-.543-2.853-1.632-1.091-1.09-2.134-2.35-1.635-2.85 1.254-1.25 1.338-1.154.07-2.728-1.266-1.573-1.215-1.29-2.803.327-.835.898-.042 3.773 2.902 6.714 2.945 2.94 5.9 3.697 6.724 2.898 1.692-1.678 1.825-1.584.326-2.8-1.575-1.265-1.483-1.175-2.73.071z"/>
    </defs>
    <g fill="none" fill-rule="evenodd">
        <mask id="b" fill="#fff">
            <use xlink:href="#a"/>
        </mask>
        <g fill="#000" mask="url(#b)">
            <path d="M0 0h20v20H0z"/>
        </g>
    </g>
</svg>
