<svg xmlns="http://www.w3.org/2000/svg" xmlns:xlink="http://www.w3.org/1999/xlink" width="30" height="30" viewBox="0 0 30 30">
    <defs>
        <path id="a" d="M29.422 10.956a.881.881 0 0 0-1.144-.597.881.881 0 0 0-.556 1.07c.322 1.157.486 2.354.485 3.556 0 8.504-8.03 15.133-16.921 12.72-3.891-1.058-7.967-5.131-9.022-9.022-2.412-8.891 4.216-16.92 12.72-16.92 1.209-.001 2.411.163 3.574.489a.881.881 0 1 0 .473-1.698A14.995 14.995 0 0 0 14.986 0C5.405 0-2.075 8.99.52 18.993c1.181 4.554 5.903 9.276 10.457 10.457C20.98 32.045 29.97 24.564 29.97 14.985a14.996 14.996 0 0 0-.548-4.03zm-4.493-5.034a.881.881 0 1 0 0-1.762.881.881 0 0 0 0 1.762zm-2.75-2.15a.881.881 0 1 0 0-1.763.881.881 0 0 0 0 1.763zm4.935 4.935a.881.881 0 1 0 0-1.762.881.881 0 0 0 0 1.762zm-9.004 9.949c-.75.747-2.644-.814-4.28-2.449-1.636-1.634-3.2-3.525-2.452-4.274 1.88-1.877 2.006-1.73.106-4.092-1.9-2.36-1.824-1.936-4.206.49-1.253 1.347-.063 5.66 4.354 10.07 4.416 4.412 8.85 5.546 10.085 4.348 2.538-2.516 2.737-2.376.49-4.2-2.364-1.897-2.226-1.762-4.097.107z"/>
    </defs>
    <g fill="none" fill-rule="evenodd">
        <mask id="b" fill="#fff">
            <use xlink:href="#a"/>
        </mask>
        <g fill="#FFF" mask="url(#b)">
            <path d="M0 0h30v30H0z"/>
        </g>
    </g>
</svg>
