<svg xmlns="http://www.w3.org/2000/svg" xmlns:xlink="http://www.w3.org/1999/xlink" width="24" height="24" viewBox="0 0 24 24">
    <defs>
        <path id="a" d="M.969 0h24v24h-24z"/>
        <path id="b" d="M24.574 17.33l-6.5-6.168-1.643-1.559c-.007-.005-.014-.01-.02-.017a.34.34 0 0 1-.018-.019l-.014-.014a.395.395 0 0 1 .006-.524.378.378 0 0 1 .514-.043l.005-.006 2.827 2.682a1.527 1.527 0 0 0 2.184-.077 1.593 1.593 0 0 0-.076-2.223L19.013 6.68l-2.26-2.146a7.63 7.63 0 0 0-7.11-1.89L7.104.234a.845.845 0 0 0-1.226.062L1.23 5.366a.879.879 0 0 0 .043 1.23L3.849 9.04a7.937 7.937 0 0 0 2.361 6.995l2.827 2.682 4.237 4.02c.472.412 1.18.373 1.604-.09a1.195 1.195 0 0 0-.023-1.634l-4.239-4.022.002-.002a.395.395 0 0 1 .118-.687.38.38 0 0 1 .403.12l.006-.005 1.13 1.071 6.5 6.169c.303.287.733.388 1.13.265.395-.123.697-.452.79-.862.093-.41-.036-.841-.339-1.129l-6.5-6.168v-.002h-.002a.395.395 0 0 1 .15-.66.38.38 0 0 1 .375.088l.002.002v-.001l7.63 7.242a1.145 1.145 0 0 0 1.639-.058 1.194 1.194 0 0 0-.057-1.667l-7.63-7.242.002-.003a.396.396 0 0 1-.019-.553.38.38 0 0 1 .544-.02l6.504 6.167c.47.431 1.192.4 1.624-.071a1.195 1.195 0 0 0-.043-1.654zM13.86 10.099l-3.682 4.127-3.681-4.127a2.659 2.659 0 0 1 .06-3.684 2.549 2.549 0 0 1 3.621.005 2.549 2.549 0 0 1 3.622-.005 2.659 2.659 0 0 1 .06 3.684z"/>
    </defs>
    <g fill="none" fill-rule="evenodd" transform="translate(-.969)">
        <use fill="#CD3C14" fill-rule="nonzero" xlink:href="#b"/>
    </g>
</svg>
