<svg xmlns="http://www.w3.org/2000/svg" xmlns:xlink="http://www.w3.org/1999/xlink" width="40" height="40" viewBox="0 0 40 40">
    <defs>
        <path id="a" d="M0 .107h14.243V19.26H0z"/>
        <path id="c" d="M.337.065h8.631V14H.337z"/>
    </defs>
    <g fill="none" fill-rule="evenodd">
        <g transform="translate(0 17.964)">
            <mask id="b" fill="#fff">
                <use xlink:href="#a"/>
            </mask>
            <path fill="#000" d="M0 8.588V19.26h12.366V8.588a10.863 10.863 0 0 1 1.767-5.955c.035-.054.073-.107.11-.161A10.8 10.8 0 0 1 5.429.107a9.321 9.321 0 0 0-5.43 8.48" mask="url(#b)"/>
        </g>
        <path fill="#000" d="M18.375 15.646a9.369 9.369 0 0 1 0-9.764A7.706 7.706 0 0 0 8.98 3.785a7.775 7.775 0 0 0-4.146 8.724 7.736 7.736 0 0 0 7.532 6.02 7.699 7.699 0 0 0 6.01-2.883M34.007 10.764c0-4.288-3.461-7.764-7.73-7.764-4.267 0-7.728 3.476-7.728 7.764s3.46 7.764 7.729 7.764c4.268 0 7.729-3.476 7.729-7.764"/>
        <g transform="translate(31 23.964)">
            <mask id="d" fill="#fff">
                <use xlink:href="#c"/>
            </mask>
            <path fill="#000" d="M1.665 1.54H7.64v9.837H1.665V1.54zm2.324 11.148a.66.66 0 0 1 .664-.655c.366 0 .663.293.663.655a.66.66 0 0 1-.663.657.66.66 0 0 1-.664-.657zM.337.885V13.18c0 .452.372.819.83.819H8.139c.458 0 .83-.367.83-.82V.886a.826.826 0 0 0-.83-.82H1.167a.826.826 0 0 0-.83.82z" mask="url(#d)"/>
        </g>
        <path fill="#000" d="M19.341 18.132a10.783 10.783 0 0 0 13.874 0c2.255 1.033 3.94 2.913 4.794 5.156h-6.502a.825.825 0 0 0-.83.82v13.116H13.911V26.611a9.318 9.318 0 0 1 5.43-8.48"/>
    </g>
</svg>
