<svg xmlns="http://www.w3.org/2000/svg" xmlns:xlink="http://www.w3.org/1999/xlink" width="160" height="160" viewBox="0 0 160 160">
    <defs>
        <path id="a" d="M.097 79.88c0 44.091 35.742 79.834 79.833 79.834 44.09 0 79.833-35.743 79.833-79.833C159.763 35.79 124.02.048 79.93.048 35.839.048.097 35.79.097 79.88z"/>
    </defs>
    <g fill="none" fill-rule="evenodd">
        <g>
            <mask id="b" fill="#fff">
                <use xlink:href="#a"/>
            </mask>
            <path fill="#FAB431" d="M-9.35 180.53H179.59V-15.466H-9.35z" mask="url(#b)"/>
            <path fill="#AFAFAF" d="M70.483 75.404c.57.09 1.088.58.75 1.16-.213.366-.744.526-1.144.57-.664.077-1.301-.253-1.007-.986.198-.493.825-.834 1.401-.744" mask="url(#b)"/>
            <path fill="#FFF" d="M-20.68-5.837l89.898-37.156 52.55 127.141-89.899 37.157z" mask="url(#b)"/>
            <path fill="#AFAFAF" d="M-6.964 2.621l72.44-29.94 2.366 5.723-72.44 29.94zM-2.373 13.729l72.44-29.941.632 1.528-72.441 29.94zM-1.237 16.478l72.44-29.94.632 1.527-72.44 29.941zM-.1 19.228l72.44-29.94.632 1.527L.53 20.755zM1.036 21.978l72.44-29.941.632 1.528-72.44 29.94zM2.172 24.727l72.44-29.94.633 1.527-72.44 29.94zM3.309 27.477l46.12-19.062.632 1.527-46.12 19.063zM5.582 32.976l72.44-29.94.632 1.527-72.44 29.94zM6.718 35.726l72.44-29.94.632 1.527-72.44 29.94zM7.855 38.476l72.44-29.941.632 1.528-72.441 29.94zM8.991 41.225l72.44-29.94.633 1.527-72.441 29.94zM10.128 43.975l72.44-29.94.632 1.527-72.441 29.94zM11.264 46.725l72.44-29.94.633 1.527-72.441 29.94zM12.4 49.474l72.441-29.94.632 1.527-72.44 29.94zM13.537 52.224l72.44-29.94.632 1.527-72.44 29.94zM14.674 54.974l72.44-29.94.632 1.526-72.44 29.94zM15.81 57.723l33.516-13.852.632 1.527L16.44 59.25zM18.083 63.223l72.44-29.941.632 1.528-72.44 29.94zM19.22 65.972l72.44-29.94.632 1.527L19.85 67.5zM20.356 68.722l72.44-29.94.632 1.527-72.44 29.94zM21.492 71.472l72.44-29.941.633 1.528-72.441 29.94zM22.629 74.221l50.123-20.716.631 1.527L23.261 75.75zM24.902 79.72l72.44-29.94.632 1.527-72.44 29.94zM26.039 82.47l72.44-29.94.632 1.527-72.441 29.94zM27.175 85.22l72.44-29.94.632 1.527-72.44 29.94zM28.311 87.97l20.711-8.56.632 1.527-20.712 8.56zM73.428 85.535v-1c-2.033.759-3.966 1.615-5.597 2.552-2.128 1.222-3.75 2.592-4.428 4.082a.467.467 0 1 0 .85.388c.59-1.295 2.075-2.53 4.044-3.661 1.494-.858 3.26-1.65 5.131-2.361zm-15.127-2.397a.469.469 0 0 1-.257-.902c.455-.13 1.894-1.576 3.463-3.294 2.286-2.504 4.772-5.529 5-6.037.143-.334.428-.384.692-.209a.47.47 0 0 1 .139.638l-.023.04c-.025.44-.139 1.063-.28 1.833-.32 1.755-.805 4.408-1.252 6.997.54-1.463 1.101-2.647 1.537-2.747.398-.09.679.111.81.682.06.265.02.808-.028 1.42-.062.823-.142 1.797-.14 1.798.085.046-.01-.314.342-.96l.01-.016.716-1.691c.165-.39.319-.751.405-.959.25-.6.502-.788.818-.657.375.156.308.533.212 1.093-.132.77-.369 2.148-.117 2.593.02.033.105.014.301-.097.214-.121.662-.779.993-1.265.32-.469.568-.832.895-.793.154.019.267.071.338.16a.962.962 0 0 1 .553-.193v.934c-.031.001-.065.02-.1.054l.1-.012v1.285c-.115-.073-.199-.198-.26-.362-.062-.165-.071-.363-.066-.566-.125.248-.24.548-.3.708-.118.308-.187.498-.568.443v-.001c-.226-.032-.356-.134-.393-.319-.25.327-.508.614-.73.74-.789.448-1.28.268-1.576-.255-.124-.218-.187-.512-.211-.84l-.16.37a.559.559 0 0 1-.039.094c-.68 1.245-1.198 1.558-1.61 1.333-.53-.29-.43-1.592-.347-2.689.017-.219.033-.429.044-.608-.552 1.258-1.516 4.524-2.032 6.273-.127.43-.233.794-.35 1.058a.468.468 0 0 1-.522.465c-.311-.036-.456-.22-.41-.563.427-3.267 1.613-9.762 2.217-13.071l.013-.061a97.141 97.141 0 0 1-3.929 4.59c-1.668 1.828-3.255 3.38-3.898 3.566zm15.127-2.566a.89.89 0 0 1 .13.008c.39.05.494.308.508.64.195-.265.436-.495.756-.57 1.068-.245 2.813-.563 4.53-.822 1.494-.224 2.98-.407 4-.462 1.021-.055 3.074 0 4.785.358 1.211.255 2.276.673 2.778 1.333a.466.466 0 0 1-.092.656l-.022.015a.465.465 0 0 1-.243.077c-.073.012-.158.021-.263.032-1.452.149-8.01.82-13.223 2.445a62.816 62.816 0 0 0-3.644 1.253v-1a64.574 64.574 0 0 1 3.366-1.147c4.517-1.407 10.004-2.11 12.437-2.379-.37-.148-.81-.27-1.284-.368-1.626-.341-3.576-.393-4.548-.34-.973.052-2.43.232-3.907.454-1.706.258-3.425.57-4.461.808-.128.03-.325.375-.48.646-.169.296-.31.542-.554.634-.243.09-.43.08-.569-.01v-1.285c.102-.014.156-.023.013-.041h-.013v-.935z" mask="url(#b)"/>
            <path fill="#725048" d="M77.58 70.739c1.628-1.902 3.352-3.528 4.487-6.249 1.135-2.72 3.224-13.998 7.446-15.197 4.223-1.199 9.805 5 11.548 6.243 1.742 1.242 2.94 2.05 4.687 2.25 1.746.201 3.664 1.492 7.804.935 4.139-.558 10.9.37 14.115 8.948 3.215 8.577 4.512 12.446 7.698 17.031 3.185 4.584 7.887 13.954 9.223 16.317 1.336 2.363 9.346 7.338 13.915 10.694 4.57 3.357-25.083 22.347-29.796 18.477-4.711-3.87-8.894-7.594-13.969-9.477-5.073-1.884-18.245-7.059-24.654-11.306-6.41-4.246-16.127-10.93-18.3-12.67-2.173-1.743-1.874-3.842-.935-5.858.94-2.015.994-3.234 3.308-4.393 2.314-1.16 2.397-1.8 2.627-2.97.23-1.17 1.267-1.905 2.26-1.723.994.18 2.757.81 3.902 2.836 1.145 2.025 1.672 3.813 2.885 4.909 1.214 1.096 3.596 2.422 5.861 1.439 2.266-.984 2.657-2.393 4.13-5.305 1.473-2.91 1.203-7.065.973-9.31-.23-2.246-1.909-6.791-2.193-7.819-.283-1.027-.812-1.174-1.868-1.468-1.057-.293-3.371 4.282-5.353 6.293-1.981 2.01-4.452 2.368-6.81 2.662-6.607.822-4.633-3.37-2.99-5.29" mask="url(#b)"/>
            <path stroke="#000" stroke-width=".254" d="M85.152 83.49l.76.212c.387.107.498.147.558-.14-2.043-1.963-.983-4.899 1.17-5.614.043-.253-.08-.298-.513-.377l-.704-.13c-2.153.716-3.314 4.087-1.271 6.048z" mask="url(#b)"/>
            <path fill="#5E433D" d="M82.555 84.02zm.391.606c.704 1.246 1.175 2.401 1.714 3.362-.592-1.035-1.095-2.267-1.714-3.362zM91.73 67.65c-1.189 1.257-2.862 4.208-4.348 5.716 1.367-1.387 3.117-4.432 4.348-5.716zm4.9 7.094c-.37-2.915-1.399-5.741-1.61-6.616-.21-.875-1.033-1.83-3.069-2.668-2.036-.837-3.702-5.292-3.983-7.547-.28-2.256-.81-.678-.42 1.516.388 2.195 1.726 4.562 2.503 5.685.776 1.124-.267 3.918-1.67 5.706-1.404 1.788-3.45 3.57-4.66 4.102-2.317 1.015-4.08 1.15-7.132.562.916.343 1.8.548 2.644.645-.735.016-1.325-.051-1.787-.185v.001l2.52 6.099a5.58 5.58 0 0 1 2.582 1.965c-.98-1.33-2.355-2.027-3.716-2.187 2.297 1.452 1.213 3.288.009 3.405-1.206.116 4.014.57 4.543 2.26.529 1.69-2.868 3.467.075 3.65 2.943.182 5.88 1.156 7.994.323 2.112-.832 7.776-4.835 5.177-16.716z" mask="url(#b)"/>
            <path fill="#000" d="M75.4 80.497c.656.216 44.028 12.123 44.028 12.123 3.865.677 5.99-7.233 1.08-8.2l-43.834-8.627c-2.615-.514-4.092 3.776-1.275 4.704" mask="url(#b)"/>
            <path fill="#0D1D24" d="M70.315 77.199l2.193 1.17c1.27.677 1.967-2.104.622-2.139l-2.616-.066c-.578-.015-.797.716-.199 1.035" mask="url(#b)"/>
            <path fill="#BFBFBF" d="M116.662 91.652c.095-.172-.43-.577-.611-.174l-.622 1.383s-3.789-.246-6.475-1.395c-2.685-1.15-6.639-3.546-7.535-3.793-.896-.246-2.636.206-2.552.79.085.584.834.792 1.744.663.91-.127 2.335.156 3.581.995 1.247.84 2.628 1.358 4.516 2.152 1.888.793 7.155 2.66 8.28 2.725 1.126.066 1.412-.51 2.133-2.461l-.45-.125c-.298.75-.952 1.892-.952 1.892s-.587.016-1.014-.304c-.427-.32-.765-1.042-.765-1.042l.722-1.306zM75.266 80.734l10.646 2.967c.387.108.499.148.558-.14-2.043-1.961-.983-4.898 1.17-5.613.043-.253-.08-.298-.513-.377l-10.87-1.992c-2.836-.52-4.243 4.25-.99 5.155" mask="url(#b)"/>
            <path fill="#BFBFBF" d="M116.81 91.901l2.619.72c3.863.675 5.989-7.234 1.08-8.2l-2.044-.403c-1.439-.065-2.899 1.302-3.393 3.273-.526 2.098.235 4.109 1.705 4.591l.033.02z" mask="url(#b)"/>
            <path fill="#000" d="M121.031 85.134c1.382.347 2.114 2.178 1.635 4.09-.48 1.911-1.988 3.18-3.37 2.834-1.383-.346-2.115-2.177-1.635-4.089.479-1.912 1.988-3.181 3.37-2.835" mask="url(#b)"/>
            <path fill="#AB826D" d="M124.266 126.546c-1.212-1.923 11.627-20.683 20.322-25.53 8.694-4.846-9.7 39.95-20.322 25.53" mask="url(#b)"/>
            <path fill="#FF7900" d="M115.147 124.168c.518-1.344 28.6-26.351 32.507-27.17 2.598-.543 5.807 3.156 7.205 4.394 5.647 5.006 60.31 53.597 63.17 64.907l-60.868 9.18c-12.994-8.748-34.73-39.124-40.946-47.606-1.15-1.571-1.465-2.673-1.068-3.705" mask="url(#b)"/>
            <path fill="#000" d="M120.456 129.17l.385-.527c.58-.79.446-2.052-.395-2.618-.84-.566-2-.45-2.618.394l-.386.526c-.58.79-.445 2.053.395 2.62.839.565 2 .448 2.619-.396M123.432 126.656c1.077-.543 1.846-1.352 2.381-2.427.438-.88-.146-2.119-1.046-2.434-1.024-.358-1.966.108-2.433 1.046-.09.176-.066.135.07-.121a2.857 2.857 0 0 1-.266.363c.193-.194.24-.241.138-.142-.099.086-.201.169-.3.255-.164.113-.12.091.132-.067a3.161 3.161 0 0 1-.199.105c-.873.44-1.416 1.537-.95 2.473.435.872 1.536 1.421 2.473.95M129.464 122.021l1.21-1.14c.712-.67.987-1.834.283-2.634-.628-.713-1.87-1-2.634-.282l-1.21 1.14c-.711.67-.986 1.835-.282 2.634.628.713 1.871 1 2.633.282M135.514 116.252c-.09.282-.11.356-.057.221.057-.13.022-.065-.103.197l-.187.2c-.276.147-.324.181-.144.102.906-.372 1.391-1.586.95-2.473-.465-.93-1.502-1.348-2.474-.95-.948.39-1.55 1.265-1.705 2.257-.15.968.653 2.01 1.637 2.083 1.043.077 1.92-.6 2.083-1.637M139.932 112.769c-.036.068-.218.333-.062.147l-.067.08c.117-.14-.318.144-.146.08.131-.05.385-.135-.132.008.5-.138.908-.306 1.228-.74.272-.37.435-.933.345-1.39-.178-.898-1.12-1.853-2.131-1.574-.57.158-1.045.324-1.516.7-.452.362-.73.8-1 1.302-.214.4-.146 1.06.03 1.455.183.412.585.828 1.017.978.465.162 1.002.198 1.456-.029.463-.23.735-.563.978-1.017M144.791 109.223l1.702-1.164c.81-.554.915-1.916.283-2.634-.715-.81-1.768-.875-2.635-.282l-1.7 1.164c-.812.555-.916 1.916-.283 2.634.714.81 1.766.876 2.633.282M149.81 105.427l1.261-.895c.801-.567.923-1.906.283-2.632-.705-.8-1.777-.89-2.634-.283l-1.262.894c-.801.567-.922 1.907-.283 2.633.706.8 1.778.889 2.634.283" mask="url(#b)"/>
            <path fill="#000" d="M153.4 103.06c2.382-.36 1.828-4.064-.558-3.704-2.384.36-1.83 4.064.558 3.703" mask="url(#b)"/>
            <path fill="#FFF" d="M129.918 130.073l.385-.526c.58-.79.446-2.052-.395-2.618-.84-.566-1.999-.45-2.618.395l-.386.526c-.58.79-.446 2.052.395 2.618.84.566 2 .45 2.619-.395M134.129 126.673l1.264-.89c.803-.565.921-1.909.282-2.633-.706-.802-1.774-.887-2.633-.282l-1.265.89c-.803.564-.92 1.908-.282 2.633.706.802 1.775.886 2.634.282M139.958 122.066l1.028-1.06c.354-.366.62-.708.684-1.235.055-.461-.09-1.044-.402-1.398-.604-.686-1.905-1.036-2.634-.283l-1.027 1.06c-.355.365-.621.708-.684 1.235-.055.462.089 1.043.402 1.398.603.685 1.904 1.035 2.633.283M143.563 118.23l1.051-.837c.767-.611.948-1.879.282-2.634-.674-.765-1.813-.936-2.634-.282l-1.05.837c-.767.61-.949 1.878-.283 2.633.674.765 1.813.936 2.634.283M148.346 114.46l2.347-1.872c.767-.611.95-1.878.283-2.634-.673-.765-1.814-.936-2.634-.283l-2.347 1.873c-.767.611-.948 1.878-.283 2.633.674.765 1.815.936 2.634.283" mask="url(#b)"/>
            <path fill="#FFF" d="M153.353 110.47l.606-.569c.714-.667.985-1.836.283-2.634-.63-.714-1.87-.998-2.634-.281l-.607.568c-.714.667-.985 1.836-.282 2.633.63.715 1.869.998 2.634.283M157.526 107.075l.42-.297c.804-.565.922-1.909.283-2.634-.706-.801-1.775-.886-2.634-.282l-.42.297c-.804.565-.922 1.909-.283 2.633.707.802 1.775.887 2.634.283" mask="url(#b)"/>
            <path fill="#000" d="M38.507 98.765l-3.957 1.705a.875.875 0 0 0 .692 1.607l2.017-.87-1.848 4.647a.875.875 0 1 0 1.626.647l1.848-4.646.87 2.017a.875.875 0 1 0 1.606-.693l-1.705-3.956a.874.874 0 0 0-1.15-.458" mask="url(#b)"/>
            <path fill="#F60" d="M43.314 103.29l3.957-1.704a.875.875 0 0 0-.692-1.607l-2.017.87 1.848-4.647a.874.874 0 1 0-1.626-.647l-1.848 4.647-.87-2.018a.876.876 0 0 0-1.606.693l1.705 3.957a.874.874 0 0 0 1.15.457" mask="url(#b)"/>
            <path fill="#FFF" d="M131.523 42.344l-4.732 5.32c-1.365 1.535.872 3.826 2.242 2.285l4.732-5.32c1.365-1.535-.87-3.826-2.242-2.285M113.215 34.515l-3.536 7.308c-.893 1.843 1.856 3.486 2.754 1.632l3.537-7.307c.892-1.844-1.857-3.487-2.755-1.633M145.02 58.979l-5.568 2.37c-.795.338-.988 1.495-.594 2.183.47.823 1.386.934 2.184.594l5.567-2.37c.797-.338.989-1.495.595-2.183-.471-.823-1.385-.934-2.183-.594M146.328 83.134l-2.842.316c-.858.095-1.597.674-1.595 1.606.002.792.742 1.691 1.606 1.595l2.841-.315c.858-.096 1.597-.675 1.595-1.606-.002-.793-.742-1.692-1.605-1.596M45.192 121.763l-2.6 6.98c-.72 1.929 2.373 2.758 3.087.84l2.6-6.979c.72-1.93-2.373-2.758-3.087-.84M21.17 110.542l-3.203 3.504c-1.387 1.519.85 3.808 2.242 2.285l3.202-3.504c1.387-1.518-.85-3.808-2.242-2.285M27.8 127.018l-2.451 4.066c-1.061 1.76 1.582 3.565 2.647 1.799l2.451-4.065c1.062-1.762-1.582-3.566-2.647-1.8" mask="url(#b)"/>
        </g>
        <g transform="translate(120 11)">
            <circle cx="20" cy="20" r="20" fill="#32C832"/>
            <path fill="#FFF" fill-rule="nonzero" d="M11.76 16.202L8 19.963l9.303 9.303a1 1 0 0 0 1.44-.026l14.505-15.621L29.35 10 17.895 22.337l-6.134-6.135z"/>
        </g>
    </g>
</svg>
