<svg xmlns="http://www.w3.org/2000/svg" xmlns:xlink="http://www.w3.org/1999/xlink" width="76" height="76" viewBox="0 0 76 76">
    <defs>
        <path id="a" d="M.046 37.943c0 20.943 16.977 37.921 37.92 37.921 20.944 0 37.921-16.978 37.921-37.92C75.887 17 58.91.022 37.967.022 17.023.023.046 17 .046 37.943z"/>
    </defs>
    <g fill="none" fill-rule="evenodd">
        <mask id="b" fill="#fff">
            <use xlink:href="#a"/>
        </mask>
        <path fill="#FAB431" d="M-4.44 85.752h89.745V-7.346H-4.441z" mask="url(#b)"/>
        <path fill="#AFAFAF" d="M33.48 35.817c.27.042.516.275.356.55-.102.175-.354.25-.544.272-.315.036-.618-.12-.478-.469.094-.234.392-.396.666-.353" mask="url(#b)"/>
        <path fill="#FFF" d="M-9.823-2.773l42.701-17.649L57.84 39.97 15.138 57.62z" mask="url(#b)"/>
        <path fill="#AFAFAF" d="M-3.308 1.245l34.409-14.222 1.124 2.719-34.41 14.222zM-1.127 6.521L33.282-7.7l.3.726L-.828 7.247zM-.588 7.827l34.41-14.222.3.726L-.288 8.553zM-.048 9.133l34.41-14.221.3.725L.252 9.859zM.492 10.44l34.41-14.222.3.725L.791 11.165zM1.032 11.745L35.44-2.476l.3.725-34.41 14.222zM1.572 13.052l21.907-9.055.3.725-21.907 9.055zM2.651 15.664l34.41-14.222.3.726L2.95 16.389zM3.191 16.97l34.41-14.222.3.726L3.49 17.695zM3.731 18.276l34.41-14.222.3.726L4.03 19.002zM4.27 19.582L38.68 5.36l.3.726L4.57 20.307zM4.81 20.888L39.22 6.666l.3.726L5.11 21.614zM5.35 22.194L39.76 7.972l.3.726L5.65 22.92zM5.89 23.5L40.3 9.278l.3.726L6.19 24.226zM6.43 24.806l34.41-14.221.3.725L6.73 25.532zM6.97 26.113L41.38 11.89l.3.725L7.27 26.838zM7.51 27.419l15.92-6.58.3.725-15.92 6.58zM8.59 30.03L42.998 15.81l.3.726-34.41 14.221zM9.13 31.337l34.408-14.222.3.726L9.43 32.062zM9.67 32.643L44.077 18.42l.3.726L9.97 33.369zM10.209 33.95l34.409-14.223.3.726-34.41 14.222zM10.749 35.255l23.808-9.84.3.725-23.808 9.84zM11.828 37.867l34.41-14.222.3.726-34.41 14.222zM12.368 39.173l34.41-14.222.3.726L12.668 39.9zM12.908 40.48l34.41-14.222.3.725-34.41 14.222zM13.448 41.786l9.838-4.066.3.725-9.838 4.066zM34.878 40.63v-.476c-.965.36-1.884.767-2.658 1.212-1.011.58-1.781 1.232-2.104 1.94a.222.222 0 1 0 .404.183c.28-.615.986-1.201 1.92-1.738.71-.408 1.55-.784 2.438-1.122zm-7.185-1.14a.223.223 0 0 1-.122-.428c.216-.062.9-.748 1.645-1.564 1.086-1.19 2.267-2.627 2.375-2.868.068-.159.203-.183.329-.1.1.067.129.202.065.303l-.01.02c-.012.208-.066.505-.133.87-.152.834-.383 2.094-.595 3.324.257-.695.523-1.258.73-1.305.19-.043.323.053.385.324.029.126.009.384-.013.675-.03.39-.068.853-.067.854.04.022-.005-.15.163-.456l.004-.008.34-.803c.079-.185.152-.357.192-.456.12-.285.24-.374.389-.312.178.074.146.254.101.52-.063.365-.175 1.02-.056 1.23.01.017.05.008.143-.045.102-.058.315-.37.472-.6.152-.224.27-.396.425-.378.073.01.127.034.16.076a.457.457 0 0 1 .263-.091v.443c-.015.001-.03.01-.047.026l.047-.006v.61a.336.336 0 0 1-.123-.171.73.73 0 0 1-.032-.27c-.059.119-.114.261-.142.337-.056.146-.089.237-.27.21-.107-.015-.169-.063-.187-.151-.119.155-.24.291-.346.351-.375.213-.608.127-.749-.121a.966.966 0 0 1-.1-.4l-.076.177a.265.265 0 0 1-.018.045c-.323.59-.57.74-.765.633-.252-.138-.205-.756-.165-1.278.008-.104.016-.203.02-.289-.261.598-.72 2.15-.964 2.98-.06.204-.111.377-.167.503 0 .008 0 .017-.002.025a.222.222 0 0 1-.246.196c-.148-.017-.216-.105-.195-.268.203-1.552.767-4.637 1.054-6.209l.006-.029a46.142 46.142 0 0 1-1.866 2.181c-.793.868-1.547 1.606-1.852 1.693zm7.185-1.218c.02 0 .04 0 .062.003.186.024.235.147.242.305.092-.126.206-.236.359-.27a32.009 32.009 0 0 1 2.151-.392c.71-.106 1.415-.193 1.9-.219.485-.026 1.46 0 2.273.17.575.12 1.081.32 1.32.633a.222.222 0 0 1-.044.311l-.01.008a.22.22 0 0 1-.116.037c-.034.005-.075.01-.125.014-.69.071-3.805.39-6.281 1.162-.583.182-1.167.38-1.73.595v-.475a30.673 30.673 0 0 1 1.598-.545c2.146-.668 4.752-1.002 5.908-1.13a3.75 3.75 0 0 0-.61-.175 9.496 9.496 0 0 0-2.16-.161c-.463.025-1.154.11-1.856.216-.81.122-1.627.27-2.12.384-.06.014-.154.178-.227.306-.08.141-.147.258-.264.301-.115.043-.203.038-.27-.004v-.61c.049-.007.074-.012.006-.02h-.006v-.444z" mask="url(#b)"/>
        <path fill="#725048" d="M36.85 33.6c.774-.902 1.593-1.675 2.132-2.967.539-1.292 1.531-6.65 3.537-7.219 2.006-.57 4.657 2.375 5.485 2.966.827.59 1.396.973 2.226 1.068.83.096 1.74.71 3.707.444 1.966-.265 5.178.177 6.705 4.25 1.527 4.075 2.143 5.913 3.656 8.09 1.513 2.178 3.747 6.629 4.381 7.75.635 1.123 4.44 3.487 6.61 5.08 2.171 1.595-11.915 10.615-14.153 8.777-2.238-1.838-4.225-3.607-6.635-4.501-2.41-.895-8.667-3.353-11.711-5.37-3.045-2.018-7.66-5.192-8.692-6.02-1.033-.827-.89-1.824-.445-2.781.447-.958.472-1.537 1.571-2.087 1.1-.551 1.14-.856 1.248-1.411.11-.556.602-.905 1.074-.818.472.085 1.31.384 1.853 1.347.544.961.794 1.81 1.37 2.332.577.52 1.709 1.15 2.785.683 1.076-.467 1.262-1.137 1.961-2.52.7-1.382.572-3.355.463-4.422-.11-1.067-.907-3.226-1.042-3.714s-.386-.558-.888-.697c-.502-.14-1.6 2.033-2.542 2.989-.941.955-2.115 1.125-3.235 1.264-3.138.39-2.2-1.6-1.42-2.512" mask="url(#b)"/>
        <path stroke="#000" stroke-width=".254" d="M40.447 39.657l.36.101c.185.051.238.07.266-.066a1.58 1.58 0 0 1 .556-2.667c.02-.12-.038-.141-.244-.179l-.334-.061c-1.023.34-1.574 1.94-.604 2.872z" mask="url(#b)"/>
        <path fill="#5E433D" d="M39.214 39.91zm.185.287c.335.592.558 1.14.815 1.597-.282-.491-.52-1.076-.815-1.597zm4.172-8.063c-.564.597-1.359 1.998-2.065 2.715.65-.659 1.48-2.105 2.065-2.715zm2.328 3.37c-.176-1.385-.665-2.728-.765-3.143-.1-.416-.49-.87-1.458-1.267-.967-.398-1.758-2.514-1.892-3.585-.133-1.072-.384-.323-.2.72.185 1.042.82 2.167 1.19 2.7.369.534-.127 1.861-.794 2.71-.667.85-1.638 1.696-2.213 1.949-1.1.482-1.938.546-3.388.267.435.163.855.26 1.256.306a2.88 2.88 0 0 1-.849-.087l1.197 2.897c.388.144.85.418 1.227.933a2.552 2.552 0 0 0-1.765-1.039c1.091.69.576 1.562.004 1.618-.573.055 1.907.271 2.158 1.073.251.803-1.363 1.647.035 1.734 1.398.086 2.794.549 3.798.154 1.003-.396 3.693-2.297 2.459-7.94z" mask="url(#b)"/>
        <path fill="#000" d="M35.815 38.236c.312.103 20.913 5.759 20.913 5.759 1.836.321 2.845-3.436.513-3.895l-20.82-4.098c-1.243-.245-1.944 1.793-.606 2.234" mask="url(#b)"/>
        <path fill="#0D1D24" d="M33.4 36.67l1.041.555c.604.322.934-1 .296-1.016l-1.243-.031c-.274-.007-.378.34-.094.491" mask="url(#b)"/>
        <path fill="#BFBFBF" d="M55.414 43.535c.046-.082-.203-.274-.29-.083l-.295.657s-1.8-.117-3.076-.663c-1.275-.546-3.153-1.684-3.579-1.801-.425-.117-1.252.097-1.212.375.04.277.396.376.828.315.433-.06 1.11.074 1.701.472.593.4 1.249.646 2.145 1.022.897.377 3.399 1.264 3.934 1.295.534.032.67-.242 1.013-1.17l-.214-.058a9.178 9.178 0 0 1-.453.898s-.278.008-.481-.144c-.203-.152-.363-.495-.363-.495l.342-.62zM35.752 38.349l5.056 1.41c.184.05.237.07.265-.068a1.58 1.58 0 0 1 .556-2.666c.02-.12-.038-.141-.244-.179l-5.163-.946c-1.347-.247-2.015 2.018-.47 2.449" mask="url(#b)"/>
        <path fill="#BFBFBF" d="M55.485 43.653l1.244.342c1.835.32 2.844-3.436.512-3.895l-.97-.191c-.683-.031-1.377.618-1.612 1.554-.25.997.112 1.952.81 2.181l.016.01z" mask="url(#b)"/>
        <path fill="#000" d="M57.49 40.439c.656.164 1.004 1.034.776 1.942-.227.908-.944 1.511-1.6 1.347-.657-.165-1.005-1.035-.777-1.943.227-.908.944-1.51 1.6-1.346" mask="url(#b)"/>
        <path fill="#AB826D" d="M59.026 60.11c-.576-.914 5.523-9.825 9.653-12.127 4.13-2.302-4.608 18.976-9.653 12.126" mask="url(#b)"/>
        <path fill="#FF7900" d="M54.695 58.98c.246-.639 13.585-12.517 15.44-12.906 1.235-.258 2.76 1.5 3.423 2.087 2.682 2.378 28.647 25.459 30.006 30.831l-28.913 4.36C68.48 79.198 58.155 64.77 55.201 60.74c-.546-.746-.695-1.269-.506-1.76" mask="url(#b)"/>
        <path fill="#000" d="M57.216 61.355l.184-.25c.275-.375.211-.974-.188-1.243-.399-.27-.95-.214-1.244.187-.06.084-.122.167-.183.25-.276.375-.212.975.188 1.244.398.269.95.213 1.243-.188M58.63 60.162a2.478 2.478 0 0 0 1.131-1.153c.208-.418-.069-1.007-.497-1.156-.486-.17-.934.05-1.156.497a.81.81 0 0 0 .034-.058 1.357 1.357 0 0 1-.126.172c.091-.092.113-.114.065-.067-.047.04-.096.08-.142.121-.078.054-.057.043.062-.032a1.502 1.502 0 0 1-.094.05c-.415.21-.673.73-.451 1.175.206.414.73.675 1.174.45M61.496 57.96l.575-.541c.337-.319.468-.872.133-1.251-.298-.34-.888-.475-1.25-.134l-.575.54c-.338.32-.469.872-.134 1.252.298.339.888.475 1.25.134M64.37 55.22c-.044.134-.053.169-.028.105.027-.062.01-.031-.049.093l-.088.095c-.132.07-.155.086-.07.049.431-.177.662-.754.452-1.175a.908.908 0 0 0-1.175-.451c-.45.185-.736.6-.81 1.072-.071.46.31.954.778.99a.91.91 0 0 0 .99-.778M66.468 53.565c-.018.032-.104.158-.03.07l-.032.038c.056-.066-.15.068-.069.038.063-.024.183-.064-.063.004.237-.066.432-.145.584-.351a.906.906 0 0 0 .163-.661c-.084-.426-.532-.88-1.012-.747-.27.075-.496.154-.72.332-.215.172-.347.38-.474.618-.102.19-.07.504.013.691a.905.905 0 0 0 .484.465c.22.077.476.094.691-.013.22-.11.35-.268.465-.484M68.776 51.881l.808-.553c.385-.263.435-.91.134-1.251-.339-.385-.839-.416-1.25-.134l-.809.553c-.385.263-.434.91-.134 1.251.34.385.84.416 1.25.134M71.16 50.078l.599-.425c.38-.27.438-.906.134-1.25-.335-.38-.844-.423-1.251-.135l-.6.425c-.38.269-.437.906-.134 1.25.335.38.845.423 1.251.135" mask="url(#b)"/>
        <path fill="#000" d="M72.865 48.953c1.132-.17.868-1.93-.265-1.759-1.132.17-.87 1.93.265 1.76" mask="url(#b)"/>
        <path fill="#FFF" d="M61.71 61.785l.184-.25c.276-.376.212-.975-.188-1.244-.399-.268-.95-.213-1.243.188l-.184.25c-.275.375-.211.974.188 1.243.399.27.95.214 1.244-.187M63.711 60.17l.6-.423c.382-.268.438-.907.135-1.25-.336-.382-.843-.422-1.251-.135l-.6.423c-.382.268-.438.906-.135 1.25.336.381.843.422 1.251.135M66.48 57.981l.488-.503c.168-.174.295-.336.325-.587a.91.91 0 0 0-.19-.664c-.288-.325-.906-.492-1.252-.134l-.488.503c-.168.174-.295.336-.325.587a.908.908 0 0 0 .191.664c.287.325.905.492 1.251.134M68.192 56.159l.5-.398c.364-.29.45-.892.134-1.25-.32-.364-.862-.445-1.251-.135l-.5.398c-.364.29-.45.892-.134 1.25.32.364.862.445 1.251.135M70.464 54.368l1.115-.889c.365-.29.451-.892.135-1.251-.32-.363-.862-.445-1.251-.134l-1.116.89c-.364.29-.45.891-.134 1.25.32.363.862.445 1.251.134" mask="url(#b)"/>
        <path fill="#FFF" d="M72.842 52.473l.289-.27c.339-.317.468-.872.134-1.25-.3-.34-.888-.475-1.251-.135l-.289.27c-.339.317-.467.872-.134 1.25.3.34.888.475 1.251.135M74.825 50.86l.2-.14c.381-.269.437-.907.134-1.252-.336-.38-.843-.42-1.251-.133l-.2.14c-.382.269-.438.907-.134 1.251.335.381.843.421 1.25.134" mask="url(#b)"/>
        <path fill="#000" d="M18.29 46.914l-1.879.81a.416.416 0 0 0 .329.763l.958-.413-.878 2.207a.415.415 0 1 0 .772.307l.878-2.207.413.958a.416.416 0 1 0 .764-.329l-.81-1.88a.415.415 0 0 0-.546-.216" mask="url(#b)"/>
        <path fill="#F60" d="M20.574 49.063l1.88-.81a.416.416 0 0 0-.329-.763l-.958.413.878-2.207a.415.415 0 1 0-.772-.308l-.878 2.208-.413-.958a.416.416 0 0 0-.764.328l.81 1.88c.09.21.336.308.546.217" mask="url(#b)"/>
        <path fill="#FFF" d="M62.474 20.113l-2.248 2.528c-.648.728.414 1.817 1.065 1.085l2.248-2.527c.648-.73-.414-1.817-1.065-1.086M53.777 16.395l-1.68 3.471c-.424.876.882 1.656 1.309.775l1.68-3.47c.423-.877-.882-1.657-1.309-.776M68.885 28.015L66.24 29.14c-.378.161-.47.71-.283 1.038.224.39.659.443 1.038.282l2.644-1.125c.379-.162.47-.71.283-1.038-.224-.39-.658-.443-1.037-.282M69.506 39.489l-1.35.15c-.408.045-.759.32-.758.762.001.377.353.804.763.758l1.35-.15c.407-.045.758-.32.757-.762 0-.377-.352-.804-.762-.758M21.466 57.838l-1.235 3.315c-.342.916 1.127 1.31 1.467.4l1.235-3.316c.341-.916-1.128-1.31-1.467-.4M10.055 52.507l-1.52 1.665c-.66.721.403 1.809 1.064 1.085l1.521-1.664c.66-.721-.404-1.809-1.065-1.086M13.205 60.333l-1.164 1.932c-.504.836.751 1.693 1.257.854l1.164-1.93c.505-.837-.751-1.694-1.257-.856" mask="url(#b)"/>
    </g>
</svg>
