<svg xmlns="http://www.w3.org/2000/svg" width="100" height="100" viewBox="0 0 100 100">
    <g fill="none" fill-rule="evenodd">
        <path fill="#32C832" d="M0 50c0 27.614 22.386 50 50 50s50-22.386 50-50S77.614 0 50 0 0 22.386 0 50z"/>
        <path fill="#FFF" d="M77.15 28.235c0-2.599-2.097-4.706-4.682-4.706a4.65 4.65 0 0 0-3.2 1.274L41.573 51.763l-9.124-10.16a4.648 4.648 0 0 0-3.046-1.134 4.652 4.652 0 0 0-3.31 1.38l-1.873 1.881a4.704 4.704 0 0 0-1.37 3.327c0 1.113.384 2.134 1.026 2.94l14.978 18.824h.001a4.66 4.66 0 0 0 7.31 0l29.957-37.647a4.699 4.699 0 0 0 1.026-2.94"/>
    </g>
</svg>
