<svg xmlns="http://www.w3.org/2000/svg" xmlns:xlink="http://www.w3.org/1999/xlink" width="80" height="80" viewBox="0 0 80 80">
    <defs>
        <path id="a" d="M.293.147H.44v.146H.293z"/>
        <path id="c" d="M.293.147H.44v.146H.293z"/>
        <path id="e" d="M.293.147H.44v.146H.293z"/>
        <path id="g" d="M.293.147H.44v.146H.293z"/>
        <path id="i" d="M.293.147H.44v.146H.293z"/>
        <path id="k" d="M.293.147H.44v.146H.293z"/>
        <path id="m" d="M.293.147H.44v.146H.293z"/>
        <path id="o" d="M.293.147H.44v.146H.293z"/>
    </defs>
    <g fill="none" fill-rule="evenodd">
        <path fill="#B5E8F7" d="M16.592 23.34c-5.676.827-11.048 3.56-15.08 7.646-.389.389-.786.852-.866 1.411-.21 1.562 1.92 2.167 3.488 2.197 2.661.022 5.29.056 7.94.046-.393 3.292-3.77 5.192-6.594 6.857C2.655 43.162-.423 45.98.44 49.132c.597 2.224 2.989 3.546 5.286 3.736 2.298.19 4.55-.524 6.807-1.027 2.246-.535 4.677-.853 6.793.003A48.72 48.72 0 0 0 9.489 68.16c-.48 1.307-.902 2.77-.487 4.104.633 2.033 2.911 3.043 5.004 3.449 4.482.845 9.127.003 13.569-1.012a151.034 151.034 0 0 0 33.963-12.327c3.733-1.89 7.461-3.989 10.354-7.023.562-.593 1.11-1.323 1.036-2.11-.128-1.616-2.366-1.933-4.002-1.762a30.175 30.175 0 0 0 10.385-12.092c.338-.725.65-1.617.252-2.32-.298-.529-.915-.764-1.466-.917-5.23-1.35-10.347 2.67-15.726 2.858-.766.032-1.828-.36-1.639-1.101.086-.35.47-.56.821-.759 5.954-2.98 11.107-7.58 14.772-13.158 1.433-2.184 2.705-4.91 1.775-7.367-.762-2.092-2.985-3.44-5.212-3.727-2.226-.286-4.461.28-6.597 1.022.647-1.721 2.377-2.705 3.688-3.96 1.3-1.287 2.174-3.55.868-4.808-.713-.696-1.778-.803-2.747-.84-13.852-.547-26.788 6.284-38.952 12.904.795-.537 1.252-1.517 1.12-2.46-5.968.51-11.8 2.563-16.755 5.958-.619.437-1.258.917-1.417 1.647-.159.73.518 1.616 1.205 1.366"/>
        <path fill="#725048" d="M53.867 41.27c-1.759-.437-4.114-.022-5.574-.886-4.594-2.74-9.038-5.692-13.151-8.89-.683 1.428-1.514 3.069-2.229 4.316-.831 1.641-1.844 3.314-2.857 4.988-.565 1.033-.192 2.089-.757 3.122-.714 1.247-1.918 1.833-2.452 3.048-.383 1.002-.949 2.036-.938 3.155-.022.938-.043 1.876-.278 2.665-.554 2.152-1.14 4.124-2.697 5.893-1.109 1.13-1.908 2.952-2.59 4.38-1.13 2.068-3.167 4.295-1.035 5.788 3.229 2.42 7.545 4.648 11.308 5.853 2.792 1.002 5.574.885 6.938-1.971 1.067-2.43.982-5.03 3.05-7.077 1.737-1.8 4.423-2.461 6.16-4.262 2.548-2.505 4.542-6.032 6.024-9.283 1.365-2.856 3.24-5.99 2.847-9.283.17-1.15-1.012-1.503-1.769-1.556"/>
        <path fill="#725048" d="M58.717 35.93c.395.118.97.203 1.396.502.214.15-3.529 7.535-5.447 6.192-2.376-1.823 1.632-6.64 4.051-6.693"/>
        <path fill="#725048" d="M54.188 30.377c-.48.458-2.132 1.684-2.771 1.236-1.034-.565 1.578-2.707 2.057-3.165.779-.885 1.589-1.588 2.367-2.473.48-.458.895-1.279.405-1.94-.49-.66-1.3.043-1.812.32-2.494 1.748-4.924 3.858-7.174 5.936-1.29 1.161-2.611 2.142-3.933 3.122-.81.704-1.737 1.801-2.889 1.63-.788-.234-1.886-1.161-2.42.053-.266.608-.468 1.578-.49 2.516l-.16 2.27c-.17 1.15.021 2.238.213 3.325.223 1.269-.225 5.084-.225 5.084.682 1.749.607 3.443 2.664 3.454 1.695.075 3.837-.49 5.308-1.683.81-.704.896-1.28 2.047-1.109.97.203 1.822.8 2.729.64.724-.127 1.225-1.524 1.673-2.163.864-1.46 1.908-2.952 2.527-4.743.384-1.001.949-2.035 1.151-3.005.203-.97.587-1.972.576-3.091-.01-1.12-.895-1.897-.905-3.016-.01-1.12.98-1.855.938-3.155-.064-.363-.16-.906-.554-1.023-.725.128-.991.735-1.322.98M53.817 19.793l-.747 1.066c-.415.82-.522 2.334-1.577 2.707-1.056.373-1.801-1.738-2.11-2.43-.501-1.78 1.12-3.187 2.441-4.168 1.503-1.012 3.016-.905 3.88.811-.512.277-1.29 1.162-1.887 2.014"/>
        <path fill="#725048" d="M54.945 30.43l-.416.821c.032.181.629 2.505.81 2.473 1.204-.586 2.398-2.291 1.78-3.677-.277-.512-1.47-1.983-2.248-1.098-.299.426.373 1.055.074 1.481"/>
        <path fill="#8F8F8F" d="M49.65 11c-1.428-.683-2.877-.427-4.689-.108l-5.98 1.055-5.254.926c-1.45.256-4.168.735-5.277 1.865-.959.916-1.364 2.856-1.29 4.338.117 2.781.99 5.617 1.47 8.334l1.79 10.147c.446 2.537 1.053 5.98 1.501 8.516l1.054 5.98c.288 1.63.277 3.688 1.918 4.52 1.034.565 2.547.671 3.816.448 1.843-.139 3.624-.64 5.436-.959 2.174-.383 4.167-.735 6.31-1.3 1.78-.5 4.23-.372 5.734-1.384 1.865-1.077 2.057-3.165 1.674-5.34-1.289-8.367-3.153-16.819-4.228-25.037-.234-2.387-1.012-4.679-1.427-7.034-.352-1.994-.522-4.019-2.558-4.967"/>
        <path fill="#595959" d="M32.245 12.947c-.362.065-.757-.053-1.481.075-.363.064-.512.277-.693.31.032.18.064.362.277.51.213.15.757.054.938.022.362-.064.543-.096.693-.309.362-.064.149-.213.266-.608"/>
        <path fill="#242B37" d="M30.582 13.054c-.362.064-.66.49-.085.575.757.054 1.055-.373.81-.703l-.725.128"/>
        <path fill="#8F8F8F" d="M32.032 12.798l-.33.245-.182.032s-.18.033-.362.064l-.362.064.032.181-.032-.18-.182.031.182-.032.362-.064.362-.064.181-.032.331-.245s-.213-.15-.394-.117l-.363.064-.362.064-.363.064c-.18.032-.149.213-.33.245 0 0-.181.032-.15.213l.033.181.032.182.213.148s.181-.031.213.15l.181-.032-.032-.181.032.181.544-.096c.362-.064.544-.096.693-.309.18-.032.149-.213.149-.213l.149-.213c-.032-.181-.032-.181-.245-.33"/>
        <path fill="#000" d="M46.815 11.873L30.69 14.717c-3.805.67-2.793 5.35-2.719 6.831l3.93 22.287c.926 5.255 1.63 9.241 1.661 9.423.703 3.986 2.792 4.178 5.329 3.73l13.77-2.427c5.799-1.023 5.511-2.654 4.904-6.096l-2.428-13.771-2.843-16.127-.192-1.087c-.085-2.6-.756-6.406-5.286-5.607"/>
        <path fill="#8F8F8F" d="M42.807 13.514l-1.811.32-3.624.639c-.363.063-3.294.393-2.047 1.108.394.117.938.021 1.3-.043l3.08-.543 3.262-.575c1.269-.224.747-1.066-.16-.906"/>
        <path fill="#000" d="M39.018 51.361c-1.236.405-2.174.384-3.506.245l-1.183-.352c-.437 1.759.309 3.869 1.8 4.913 1.28.896 3.091.577 4.328.172 1.417-.437 3.048-.725 3.123-2.42.021-.937.341-2.301.15-3.389l-4.712.831"/>
        <path fill="#FFF" d="M56.126 46.663l-.8-4.53-1.373-7.791-.543-3.08-2.14-12.14-.352-1.994c-.415-2.355-1.929-2.462-3.379-2.206l-4.348.766c-2.537.448-5.255.927-7.824 1.193l-3.442.607c-1.087.192-3.262.575-2.878 2.75a187209.21 187209.21 0 0 0 4.76 26.998l.48 2.718c.16.905.33 2.93 3.985 2.473 1.45-.256 14.166-2.311 15.434-2.535 2.867-.692 2.484-2.866 2.42-3.229"/>
        <g transform="translate(0 78.78)">
            <mask id="b" fill="#fff">
                <use xlink:href="#a"/>
            </mask>
        </g>
        <path fill="#9FA8BE" d="M43.016 48.601c.032.181 0 0 0 0"/>
        <path fill="#D6D6D6" d="M42.95 25.131c-.142 1.565-.877 2.498-1.882 3.652-1.01 1.042-2.292 2.304-3.688 1.942-1.398-.361-2.678-.396-3.69-1.366-1.005-.867-1.74-2.67-1.881-4.183-.142-1.28.37-2.038 1.381-3.195 1.005-1.038 2.51-2.475 4.19-2.398 1.679.08 3.185-.16 4.19.821 1.011.856 1.522 2.933 1.38 4.727"/>
        <path fill="#2B3445" d="M32.85 35.447c.18-.031.18-.031 0 0 .18-.031.18-.031 0 0"/>
        <g transform="translate(0 78.78)">
            <mask id="d" fill="#fff">
                <use xlink:href="#c"/>
            </mask>
        </g>
        <g transform="translate(0 78.78)">
            <mask id="f" fill="#fff">
                <use xlink:href="#e"/>
            </mask>
        </g>
        <g transform="translate(0 78.78)">
            <mask id="h" fill="#fff">
                <use xlink:href="#g"/>
            </mask>
        </g>
        <g transform="translate(0 78.78)">
            <mask id="j" fill="#fff">
                <use xlink:href="#i"/>
            </mask>
        </g>
        <g transform="translate(0 78.78)">
            <mask id="l" fill="#fff">
                <use xlink:href="#k"/>
            </mask>
        </g>
        <g transform="translate(0 78.78)">
            <mask id="n" fill="#fff">
                <use xlink:href="#m"/>
            </mask>
        </g>
        <g transform="translate(0 78.78)">
            <mask id="p" fill="#fff">
                <use xlink:href="#o"/>
            </mask>
        </g>
        <path fill="#D6D6D6" d="M49.296 31.24c-.544.095-15.22 2.683-15.764 2.78-.181.031-.181.031-.33.244-.15.214-.118.395-.086.576l.096.543.064.363c.213.15.394.117.607.266l.182-.031c.18-.033.18-.033.362-.064l14.858-2.62c.362-.064.544-.096.874-.341.181-.032.181-.032.15-.213l-.097-.544c-.064-.362-.16-.906-.372-1.055l-.544.096M46.641 35.257L34.14 37.462c-.181.032-.181.032-.33.245-.15.213-.118.394-.086.576l.096.543.064.363c.213.15.394.117.607.266l.182-.032.362-.064 11.597-2.044c.362-.064.543-.097.873-.341.182-.032.182-.032.15-.214l-.096-.543c-.064-.363-.16-.906-.373-1.055l-.544.095M43.955 39.094l-9.241 1.63c-.181.031-.181.031-.33.244-.15.214-.118.395-.086.576l.096.544.064.362c.213.15.394.118.607.267l.182-.032.362-.064 8.335-1.47c.362-.064.544-.096.874-.34.181-.033.181-.033.15-.214l-.097-.544c-.064-.362-.16-.906-.372-1.055-.15.213-.363.064-.544.096M41.205 42.568l-5.799 1.023c-.18.032-.18.032-.33.245-.15.213-.117.394-.086.575l.097.544.063.362c.214.15.395.118.608.267l.181-.032.363-.064 4.892-.863c.362-.063.543-.096.874-.34.18-.033.18-.033.15-.214l-.097-.543c-.064-.363-.16-.906-.373-1.056-.33.246-.511.277-.543.096"/>
        <path fill="#725048" d="M31.359 24.874c-.587 1.972-1.962 3.709-3.369 5.265-1.109 1.13-2.76 2.355-3.475 3.602-.182 3.208-1.482 6.426-3.423 9.198-.117.394-.234.788-.17 1.15l.032.182c.244 3.506.308 7.045.734 10.52.383 2.174.468 4.775-.875 6.693 1.642-2.345 4.445-3.4 6.577-5.083.81-.703 1.407-1.556 2.43-2.11.511-.277 1.386-.618 1.652-1.226 1.077-1.31.203-4.146-.052-5.595-.267-2.569.01-5.233-.436-7.77-.352-1.993-.245-3.507.768-5.18.149-.213.33-.245.48-.458.149-.213.33-.245.48-.459.596-.852.98-1.854.97-2.973.224-1.908-.17-5.201-2.323-5.756M50.555 23.544c-.096-.543-.192-1.087-.107-1.662 1.695.075 7.205.598 5.872 3.635-1.247 2.462-5.296-.374-5.765-1.973M51.428 29.556c-.096-.544-.192-1.087-.107-1.663 1.695.075 7.205.598 5.873 3.635-1.248 2.462-5.297-.373-5.766-1.972"/>
        <path fill="#714E46" d="M32.232 27.71c-.085.575-.565 1.033-1.076 1.31-.512.277-1.12.01-1.546-.288-.213-.15-.543.096-.33.245.458.48 1.247.715 1.972.587.692-.31 1.14-.949 1.375-1.737.117-.395-.458-.48-.395-.118M53.091 23.097c-.533 1.215-1.907-.224-2.366-.703-.213-.15-.543.095-.33.245.458.48.917.959 1.524 1.225.213.15.607.267.938.022.362-.064.48-.458.629-.672.149-.213-.245-.33-.395-.117M53.965 29.109c-.448.64-1.514-.107-1.972-.587-.213-.15-.544.096-.33.245.67.629 1.95 1.525 2.696.459.181-.032-.064-.363-.394-.117"/>
        <path fill="#D6D6D6" d="M48.856 52.055c-.576-.085-1.3.043-1.844.139l-2.718.479c-.362.064-2.931.33-1.62 1.407.245.33.97.202 1.151.17l2.356-.415 2.355-.416c1.087-.191 1.652-1.225.32-1.364"/>
        <path fill="#FF7900" d="M42.619 67.54c-.49-.66-19.834-11.822-22.253-11.769-1.482.075-2.91 2.568-3.688 3.453-1.344 1.918-3.86 4.604-4.414 6.757-1.29 4.338 3.484 7.045 6.799 8.89 3.954 2.292 9.272 1.727 13.685 1.323 3.325-.212 12.972-3.782 9.87-8.653"/>
        <path fill="#000" d="M14.8 65.533c-.298.427-.415.821-.745 1.066-.448.64.404 1.236.852.597.299-.426.416-.82.747-1.066.298-.426-.555-1.023-.853-.597M17.487 61.697c-.33.245-.448.64-.565 1.033-.15.214.096.544.31.694.212.148.543-.097.692-.31 0 0-.032-.18.15-.213l.298-.426c.15-.213.085-.576-.128-.725-.245-.33-.608-.267-.757-.053M19.726 58.5a.396.396 0 0 0-.299.426l-.149.213.032.181c-.149.213-.085.576.128.725.213.15.575.085.725-.128l.15-.213.148-.213s-.032-.181.15-.213c.149-.214.266-.608.053-.757-.426-.298-.789-.235-.938-.022M16.836 69.658c-.213-.149-.544.096-.693.31 0 0 .032.18-.15.212l.033.181s-.181.033-.15.214c-.149.213-.266.607-.053.756.213.15.608.267.757.054.33-.245.629-.671.746-1.066-.032-.18-.277-.511-.49-.66M18.584 65.8c-.213-.15-.543.096-.692.31-.118.394-.416.82-.715 1.246-.149.213.096.544.31.693.213.15.543-.096.692-.309.117-.394.416-.82.714-1.247.118-.394-.095-.544-.309-.693M20.013 63.306c-.181.032-.33.246-.48.459-.18.032-.149.213-.149.213-.15.213-.085.576.128.725.213.149.576.085.725-.128l.149-.213c.15-.213.117-.395.085-.576.15-.213-.277-.511-.458-.48M22.166 60.685c-.18.032-.18.032-.33.245l-.181.032c-.181.032-.33.245-.267.607.032.182.277.512.64.448.18-.032.18-.032.33-.245l.181-.032c.181-.032.33-.245.267-.608-.064-.362-.31-.692-.64-.447M18.285 72.579l-.15.213c-.18.032-.149.213-.298.427-.149.212-.085.575.128.724.213.15.576.086.725-.127 0 0 .181-.033.15-.214.18-.032.148-.213.298-.426.149-.213.085-.576-.128-.725-.213-.15-.575-.085-.725.128M21.004 68.924c-.182.031-.331.245-.48.458 0 0 .032.181-.15.213-.149.213-.085.575.128.725.213.149.576.085.725-.128.15-.213.299-.426.235-.789.117-.394-.277-.511-.458-.48M24.223 63.872c-.213-.15-.544.096-.693.309 0 0 .032.181-.15.213l-.148.213s-.181.032-.15.213c-.149.213-.266.608-.053.757.213.15.608.267.757.054.33-.246.629-.672.746-1.066-.064-.363-.096-.544-.309-.693M22.154 72.27c-.149.214-.448.64-.416.821-.149.213.096.543.31.693.213.15.543-.096.692-.31 0 0-.032-.18.15-.212l.298-.426c.15-.214.085-.576-.128-.725-.394-.118-.757-.054-.906.16M24.116 68.562l-.267.607c-.149.213-.085.576.128.725.213.15.575.085.725-.128L25 69.34c.15-.213.086-.576-.128-.725-.245-.33-.607-.267-.756-.053M25.81 65.46l-.298.426c-.149.214-.085.576.128.725.213.15.576.086.725-.128l.298-.426c.15-.213.086-.575-.127-.725-.213-.149-.395-.117-.725.128M28.348 61.837c-.181.031-.512.277-.48.458 0 0-.149.213-.117.394.064.363.277.512.64.448.18-.032.511-.277.48-.458-.033-.181.116-.395.085-.576 0 0-.427-.298-.608-.266M25.588 61.016c-.725.128-.533 1.215.191 1.087.725-.128.533-1.215-.191-1.087M27.462 70.587c.032.181.032.181 0 0l-.149.213c-.181.032-.15.214-.299.427s-.085.575.128.724c.213.15.576.086.725-.127 0 0 .181-.032.15-.214.18-.032.149-.213.298-.426.15-.213.085-.575-.128-.725-.213-.149-.394-.117-.725.128M30.788 67.198c-.213-.15-.543.096-.693.31l-.15.212-.297.427c-.15.213.095.543.308.693.214.149.544-.097.693-.31l.15-.213.298-.426c.15-.213-.096-.544-.309-.693M32.185 64.523c-.181.032-.181.032-.33.245l-.182.032c-.181.032-.33.245-.267.608.032.18.278.511.64.448.181-.033.181-.033.33-.246l.181-.031c.182-.033.331-.246.267-.608-.064-.363-.277-.512-.64-.448M30.222 74.584c-.15.214-.48.458-.629.672-.15.213-.085.575.128.725.213.149.576.085.725-.128l.149-.213.181-.032s.181-.032.15-.213c.149-.214.266-.608.053-.757-.245-.33-.427-.299-.757-.054M31.853 71.12c-.149.214-.266.608-.415.821-.15.213.095.544.308.693.214.15.544-.096.693-.309-.031-.181.15-.213.118-.394 0 0-.032-.182.149-.214.15-.212.085-.575-.128-.724-.213-.15-.575-.085-.725.128M34.561 66.346c-.213-.15-.543.096-.693.31.032.18-.149.212-.117.393-.15.214-.266.608-.053.757.213.15.607.267.756.054.33-.246.448-.64.566-1.034-.182.032-.246-.33-.459-.48M34.358 73.668c-.33.245-.661.49-.779.885-.149.213.096.543.31.693.213.149.543-.096.692-.31.181-.031.15-.212.33-.244.15-.213.267-.608.054-.757-.064-.362-.458-.48-.607-.267M35.69 70.63c.032.182.032.182 0 0-.33.246-.48.459-.415.822.032.18.277.511.639.447.363-.064.512-.277.66-.49.15-.213.086-.576-.127-.724-.245-.331-.607-.267-.757-.054M37.268 67.924l-.298.426c-.15.213-.086.576.127.725.214.15.576.085.725-.128l.299-.426c.15-.213.085-.576-.128-.725-.213-.149-.576-.085-.725.128M38.43 72.39c-.182.032-.331.245-.48.458 0 0 .032.181-.15.213-.149.214-.085.576.128.725.213.15.576.086.725-.128.15-.213.299-.426.235-.788.117-.395-.278-.512-.459-.48M39.25 69.63s-.18.031 0 0c-.298.426-.234.788-.021.937.213.15.576.086.725-.127l.149-.213c.15-.214.085-.576-.128-.725-.213-.15-.575-.086-.725.128M25.437 73.934s-.181.031 0 0l-.15.213c-.18.032-.149.213-.298.426-.15.213-.085.576.128.725.213.149.575.085.725-.128 0 0 .18-.032.149-.213.18-.032.149-.213.298-.426.15-.213.086-.576-.128-.725-.426-.299-.607-.267-.724.128"/>
        <path fill="#FFF" d="M16.176 19.909l2.94 1.46c.848.421 1.596-.85.744-1.274l-2.939-1.46c-.848-.421-1.596.851-.745 1.274M14.912 29l3.679.687c.927.174 1.325-1.248.392-1.422l-3.679-.688c-.928-.174-1.326 1.247-.392 1.422M15.848 38.048l3.666-.292c.94-.074.948-1.55 0-1.475l-3.666.291c-.94.075-.948 1.551 0 1.476M21.94 11.891l1.728 2.19c.247.313.785.258 1.043 0 .31-.31.248-.73 0-1.043l-1.728-2.19c-.247-.313-.784-.258-1.043 0-.31.31-.248.73 0 1.043M32.525 8.385l.484 1.225c.147.37.494.629.908.515.352-.097.662-.535.515-.907l-.485-1.226c-.146-.37-.493-.628-.907-.515-.352.097-.663.535-.515.908M62.307 51.857l3.42.312c.944.086.938-1.39 0-1.475l-3.42-.312c-.945-.086-.94 1.39 0 1.475M57.869 58.39l1.946 1c.843.432 1.59-.84.745-1.275l-1.947-1c-.843-.432-1.59.84-.744 1.275"/>
    </g>
</svg>
