<svg xmlns="http://www.w3.org/2000/svg" xmlns:xlink="http://www.w3.org/1999/xlink" width="76" height="76" viewBox="0 0 76 76">
    <defs>
        <path id="a" d="M.127 37.89c0 20.802 16.977 37.664 37.92 37.664s37.92-16.862 37.92-37.664C75.968 17.088 58.99.226 38.048.226S.127 17.088.127 37.89z"/>
        <path id="c" d="M15.97.133C8.237 5.267 2.51 13.149.207 22.375v18.192c4.096 16.408 19.021 28.568 36.807 28.568a37.953 37.953 0 0 0 32.806-18.76V12.567A37.962 37.962 0 0 0 58.055.133"/>
        <path id="e" d="M15.97.133C8.237 5.267 2.51 13.149.207 22.375v18.192c4.096 16.408 19.021 28.568 36.807 28.568a37.953 37.953 0 0 0 32.806-18.76V12.567A37.962 37.962 0 0 0 58.055.133"/>
        <path id="g" d="M15.97.133C8.237 5.267 2.51 13.149.207 22.375v18.192c4.096 16.408 19.021 28.568 36.807 28.568a37.953 37.953 0 0 0 32.806-18.76V12.567A37.962 37.962 0 0 0 58.055.133"/>
        <path id="i" d="M15.97.133C8.237 5.267 2.51 13.149.207 22.375v18.192c4.096 16.408 19.021 28.568 36.807 28.568a37.953 37.953 0 0 0 32.806-18.76V12.567A37.962 37.962 0 0 0 58.055.133"/>
        <path id="k" d="M15.97.133C8.237 5.267 2.51 13.149.207 22.375v18.192c4.096 16.408 19.021 28.568 36.807 28.568a37.953 37.953 0 0 0 32.806-18.76V12.567A37.962 37.962 0 0 0 58.055.133"/>
        <path id="m" d="M15.97.133C8.237 5.267 2.51 13.149.207 22.375v18.192c4.096 16.408 19.021 28.568 36.807 28.568a37.953 37.953 0 0 0 32.806-18.76V12.567A37.962 37.962 0 0 0 58.055.133"/>
        <path id="o" d="M15.97.133C8.237 5.267 2.51 13.149.207 22.375v18.192c4.096 16.408 19.021 28.568 36.807 28.568a37.953 37.953 0 0 0 32.806-18.76V12.567A37.962 37.962 0 0 0 58.055.133"/>
        <path id="q" d="M15.97.133C8.237 5.267 2.51 13.149.207 22.375v18.192c4.096 16.408 19.021 28.568 36.807 28.568a37.953 37.953 0 0 0 32.806-18.76V12.567A37.962 37.962 0 0 0 58.055.133"/>
        <path id="s" d="M15.97.133C8.237 5.267 2.51 13.149.207 22.375v18.192c4.096 16.408 19.021 28.568 36.807 28.568a37.953 37.953 0 0 0 32.806-18.76V12.567A37.962 37.962 0 0 0 58.055.133"/>
        <path id="u" d="M15.97.133C8.237 5.267 2.51 13.149.207 22.375v18.192c4.096 16.408 19.021 28.568 36.807 28.568a37.953 37.953 0 0 0 32.806-18.76V12.567A37.962 37.962 0 0 0 58.055.133"/>
        <path id="w" d="M15.97.133C8.237 5.267 2.51 13.149.207 22.375v18.192c4.096 16.408 19.021 28.568 36.807 28.568a37.953 37.953 0 0 0 32.806-18.76V12.567A37.962 37.962 0 0 0 58.055.133"/>
        <path id="y" d="M15.97.133C8.237 5.267 2.51 13.149.207 22.375v18.192c4.096 16.408 19.021 28.568 36.807 28.568a37.953 37.953 0 0 0 32.806-18.76V12.567A37.962 37.962 0 0 0 58.055.133"/>
        <path id="A" d="M15.97.133C8.237 5.267 2.51 13.149.207 22.375v18.192c4.096 16.408 19.021 28.568 36.807 28.568a37.953 37.953 0 0 0 32.806-18.76V12.567A37.962 37.962 0 0 0 58.055.133"/>
        <path id="C" d="M15.97.133C8.237 5.267 2.51 13.149.207 22.375v18.192c4.096 16.408 19.021 28.568 36.807 28.568a37.953 37.953 0 0 0 32.806-18.76V12.567A37.962 37.962 0 0 0 58.055.133"/>
        <path id="E" d="M15.97.133C8.237 5.267 2.51 13.149.207 22.375v18.192c4.096 16.408 19.021 28.568 36.807 28.568a37.953 37.953 0 0 0 32.806-18.76V12.567A37.962 37.962 0 0 0 58.055.133"/>
        <path id="G" d="M15.97.133C8.237 5.267 2.51 13.149.207 22.375v18.192c4.096 16.408 19.021 28.568 36.807 28.568a37.953 37.953 0 0 0 32.806-18.76V12.567A37.962 37.962 0 0 0 58.055.133"/>
        <path id="I" d="M15.97.133C8.237 5.267 2.51 13.149.207 22.375v18.192c4.096 16.408 19.021 28.568 36.807 28.568a37.953 37.953 0 0 0 32.806-18.76V12.567A37.962 37.962 0 0 0 58.055.133H15.971z"/>
        <path id="K" d="M15.97.133C8.237 5.267 2.51 13.149.207 22.375v18.192c4.096 16.408 19.021 28.568 36.807 28.568a37.953 37.953 0 0 0 32.806-18.76V12.567A37.962 37.962 0 0 0 58.055.133"/>
        <path id="M" d="M15.97.133C8.237 5.267 2.51 13.149.207 22.375v18.192c4.096 16.408 19.021 28.568 36.807 28.568a37.953 37.953 0 0 0 32.806-18.76V12.567A37.962 37.962 0 0 0 58.055.133"/>
        <path id="O" d="M15.97.133C8.237 5.267 2.51 13.149.207 22.375v18.192c4.096 16.408 19.021 28.568 36.807 28.568a37.953 37.953 0 0 0 32.806-18.76V12.567A37.962 37.962 0 0 0 58.055.133"/>
        <path id="Q" d="M15.97.133C8.237 5.267 2.51 13.149.207 22.375v18.192c4.096 16.408 19.021 28.568 36.807 28.568a37.953 37.953 0 0 0 32.806-18.76V12.567A37.962 37.962 0 0 0 58.055.133"/>
        <path id="S" d="M15.97.133C8.237 5.267 2.51 13.149.207 22.375v18.192c4.096 16.408 19.021 28.568 36.807 28.568a37.953 37.953 0 0 0 32.806-18.76V12.567A37.962 37.962 0 0 0 58.055.133"/>
        <path id="U" d="M15.97.133C8.237 5.267 2.51 13.149.207 22.375v18.192c4.096 16.408 19.021 28.568 36.807 28.568a37.953 37.953 0 0 0 32.806-18.76V12.567A37.962 37.962 0 0 0 58.055.133"/>
        <path id="W" d="M15.97.133C8.237 5.267 2.51 13.149.207 22.375v18.192c4.096 16.408 19.021 28.568 36.807 28.568a37.953 37.953 0 0 0 32.806-18.76V12.567A37.962 37.962 0 0 0 58.055.133H15.971z"/>
        <path id="Y" d="M15.97.133C8.237 5.267 2.51 13.149.207 22.375v18.192c4.096 16.408 19.021 28.568 36.807 28.568a37.953 37.953 0 0 0 32.806-18.76V12.567A37.962 37.962 0 0 0 58.055.133H15.971z"/>
        <path id="aa" d="M15.97.133C8.237 5.267 2.51 13.149.207 22.375v18.192c4.096 16.408 19.021 28.568 36.807 28.568a37.953 37.953 0 0 0 32.806-18.76V12.567A37.962 37.962 0 0 0 58.055.133H15.971z"/>
        <path id="ac" d="M15.97.133C8.237 5.267 2.51 13.149.207 22.375v18.192c4.096 16.408 19.021 28.568 36.807 28.568a37.953 37.953 0 0 0 32.806-18.76V12.567A37.962 37.962 0 0 0 58.055.133"/>
        <path id="ae" d="M15.97.133C8.237 5.267 2.51 13.149.207 22.375v18.192c4.096 16.408 19.021 28.568 36.807 28.568a37.953 37.953 0 0 0 32.806-18.76V12.567A37.962 37.962 0 0 0 58.055.133"/>
        <path id="ag" d="M15.97.133C8.237 5.267 2.51 13.149.207 22.375v18.192c4.096 16.408 19.021 28.568 36.807 28.568a37.953 37.953 0 0 0 32.806-18.76V12.567A37.962 37.962 0 0 0 58.055.133"/>
        <path id="ai" d="M15.97.133C8.237 5.267 2.51 13.149.207 22.375v18.192c4.096 16.408 19.021 28.568 36.807 28.568a37.953 37.953 0 0 0 32.806-18.76V12.567A37.962 37.962 0 0 0 58.055.133"/>
        <path id="ak" d="M15.97.133C8.237 5.267 2.51 13.149.207 22.375v18.192c4.096 16.408 19.021 28.568 36.807 28.568a37.953 37.953 0 0 0 32.806-18.76V12.567A37.962 37.962 0 0 0 58.055.133"/>
        <path id="am" d="M15.97.133C8.237 5.267 2.51 13.149.207 22.375v18.192c4.096 16.408 19.021 28.568 36.807 28.568a37.953 37.953 0 0 0 32.806-18.76V12.567A37.962 37.962 0 0 0 58.055.133"/>
        <path id="ao" d="M15.97.133C8.237 5.267 2.51 13.149.207 22.375v18.192c4.096 16.408 19.021 28.568 36.807 28.568a37.953 37.953 0 0 0 32.806-18.76V12.567A37.962 37.962 0 0 0 58.055.133H15.971z"/>
        <path id="aq" d="M15.97.133C8.237 5.267 2.51 13.149.207 22.375v18.192c4.096 16.408 19.021 28.568 36.807 28.568a37.953 37.953 0 0 0 32.806-18.76V12.567A37.962 37.962 0 0 0 58.055.133"/>
        <path id="as" d="M15.97.133C8.237 5.267 2.51 13.149.207 22.375v18.192c4.096 16.408 19.021 28.568 36.807 28.568a37.953 37.953 0 0 0 32.806-18.76V12.567A37.962 37.962 0 0 0 58.055.133"/>
        <path id="au" d="M15.97.133C8.237 5.267 2.51 13.149.207 22.375v18.192c4.096 16.408 19.021 28.568 36.807 28.568a37.953 37.953 0 0 0 32.806-18.76V12.567A37.962 37.962 0 0 0 58.055.133"/>
        <path id="aw" d="M15.97.133C8.237 5.267 2.51 13.149.207 22.375v18.192c4.096 16.408 19.021 28.568 36.807 28.568a37.953 37.953 0 0 0 32.806-18.76V12.567A37.962 37.962 0 0 0 58.055.133H15.971z"/>
        <path id="ay" d="M.127 37.89c0 20.802 16.977 37.664 37.92 37.664s37.92-16.862 37.92-37.664C75.968 17.088 58.99.226 38.048.226S.127 17.088.127 37.89"/>
    </defs>
    <g fill="none" fill-rule="evenodd">
        <g transform="translate(0 .162)">
            <mask id="b" fill="#fff">
                <use xlink:href="#a"/>
            </mask>
            <path fill="#FAB431" d="M-4.36 85.375h89.745V-7.094H-4.36z" mask="url(#b)"/>
        </g>
        <g transform="translate(1.034 6.58)">
            <mask id="d" fill="#fff">
                <use xlink:href="#c"/>
            </mask>
            <path fill="#FFF" d="M55.429 25.934c1.157-.435 2.276-.964 3.433-1.4.425-.16.606.516.186.674-1.158.435-2.276.964-3.434 1.4-.425.16-.605-.516-.185-.674" mask="url(#d)"/>
            <mask id="f" fill="#fff">
                <use xlink:href="#e"/>
            </mask>
            <path fill="#FFF" d="M58.98 24.801a44.533 44.533 0 0 0-1.72.7c-.563.238-1.144.484-1.728.704-.025.01-.043.023-.049.056a.121.121 0 0 0 .014.08.132.132 0 0 0 .014-.004c.573-.216 1.149-.46 1.706-.696.562-.238 1.143-.484 1.728-.704.025-.01.042-.022.048-.056a.121.121 0 0 0-.014-.08m-3.49 2.12a.558.558 0 0 1-.356-.126.674.674 0 0 1-.225-.626.648.648 0 0 1 .417-.505c.573-.216 1.15-.46 1.706-.696.562-.238 1.144-.484 1.728-.704a.582.582 0 0 1 .585.083.674.674 0 0 1 .225.626.648.648 0 0 1-.418.506c-.573.215-1.148.46-1.705.695-.562.238-1.144.485-1.728.705a.649.649 0 0 1-.229.043" mask="url(#f)"/>
            <mask id="h" fill="#fff">
                <use xlink:href="#g"/>
            </mask>
            <path fill="#FFF" d="M52.823 23.017c.772-.778 1.67-1.428 2.572-2.047.374-.256.735.344.364.598-.856.586-1.7 1.199-2.432 1.935-.318.321-.823-.165-.504-.486" mask="url(#h)"/>
            <mask id="j" fill="#fff">
                <use xlink:href="#i"/>
            </mask>
            <path fill="#FFF" d="M55.578 21.197c.002 0-.006.004-.017.011-1.001.686-1.815 1.291-2.53 2.012-.02.02-.019.028-.017.034a.105.105 0 0 0 .066.064c.009.002.018.004.04-.018.754-.759 1.634-1.396 2.474-1.97.025-.018.032-.033.029-.06-.006-.04-.033-.069-.045-.073m-2.487 2.701a.683.683 0 0 1-.639-.49.6.6 0 0 1 .164-.594c.792-.798 1.724-1.472 2.614-2.082.29-.2.65-.133.852.16.187.268.18.684-.157.914-.816.56-1.67 1.176-2.39 1.9a.62.62 0 0 1-.444.192" mask="url(#j)"/>
            <mask id="l" fill="#fff">
                <use xlink:href="#k"/>
            </mask>
            <path fill="#FFF" d="M49.019 20.337a13.147 13.147 0 0 0 1.582-2.275c.217-.395.794.006.578.397a13.165 13.165 0 0 1-1.582 2.275c-.292.338-.874-.055-.578-.397" mask="url(#l)"/>
            <mask id="n" fill="#fff">
                <use xlink:href="#m"/>
            </mask>
            <path fill="#FFF" d="M49.233 20.535c.01.013.036.032.071.037.035.006.054-.006.072-.026a12.908 12.908 0 0 0 1.548-2.226c.013-.023.018-.045 0-.076a.123.123 0 0 0-.06-.053l-.007.01c-.455.828-.999 1.61-1.617 2.325a.1.1 0 0 0-.007.009m.09.618a.716.716 0 0 1-.46-.17.57.57 0 0 1-.066-.834 12.898 12.898 0 0 0 1.548-2.225c.165-.301.506-.4.81-.235.295.16.481.544.28.909a13.509 13.509 0 0 1-1.617 2.325.646.646 0 0 1-.496.23" mask="url(#n)"/>
            <mask id="p" fill="#fff">
                <use xlink:href="#o"/>
            </mask>
            <path fill="#725048" d="M9.384 45.816l-.046-3.557c-.014-1.073-.016-2.195.557-3.177.56-.96 1.762-2.367 2.636-3.149 1.122-1.003 1.847-1.478 2.444-2.751.188-.403.507-.906 1.006-.856.252.026.44.197.572.376.619.84.424 1.992-.173 2.89-.597.899-1.535 1.602-2.448 2.292-.443.336-1.225 2.08-1.188 2.54.155 1.948-.297 3.95-1.3 5.754" mask="url(#p)"/>
            <mask id="r" fill="#fff">
                <use xlink:href="#q"/>
            </mask>
            <path fill="#725048" d="M19.45 36.91c-.558-1.105-3.1 1.54-4.99 1.802-1.357.189-3.455 3.41-4.341 4.465-.886 1.054-1.055 2.694-1.286 4.04-.54 3.127-.442 6.456-1.586 9.455C6.7 58.11-7.283 79.322-5.536 79.863c1.509.468 7.922.445 9.318 1.286.847.511 1.274 1.073 1.997.163.464-.584 9.165-21.616 9.533-22.26.452-.794.829-1.438 1.463-2.112 1.57-1.667 2.862-3.834 3.285-6.058.436-2.287.23-3.633-1.82-5.56-1.25-1.176 1.983-6.885 1.21-8.412" mask="url(#r)"/>
            <mask id="t" fill="#fff">
                <use xlink:href="#s"/>
            </mask>
            <path fill="#62342D" d="M11.002 42.51l2.271-2.745c.198-.239-.145-.584-.344-.342l-2.271 2.744c-.198.24.145.584.344.343" mask="url(#t)"/>
            <mask id="v" fill="#fff">
                <use xlink:href="#u"/>
            </mask>
            <path fill="#62342D" d="M12.852 43.16c1.12-1.02 2.05-2.113 2.62-3.524.519-1.28 2.049-1.293 2.882-2.276.201-.237-.142-.581-.344-.343-.763.9-2.182.954-2.795 2.018-.181.314-.277.67-.434.996-.164.34-.362.663-.583.97-.484.673-1.079 1.26-1.69 1.817-.232.211.113.553.344.342" mask="url(#v)"/>
            <mask id="x" fill="#fff">
                <use xlink:href="#w"/>
            </mask>
            <path fill="#62342D" d="M15.542 44.081c.272-1.009.601-2.002 1-2.969.374-.906.753-1.97 1.537-2.608.242-.197-.104-.538-.345-.342-.781.637-1.165 1.644-1.546 2.544a25.025 25.025 0 0 0-1.116 3.247c-.081.301.389.43.47.128" mask="url(#x)"/>
            <mask id="z" fill="#fff">
                <use xlink:href="#y"/>
            </mask>
            <path fill="#80615A" d="M14.163 34.494s-.235.964.468.332c.704-.632 1.494-2.072 1.35-2.5-.143-.427-1.818 2.168-1.818 2.168" mask="url(#z)"/>
            <mask id="B" fill="#fff">
                <use xlink:href="#A"/>
            </mask>
            <path fill="#725048" d="M56.663 46.314c.204-1.22.41-1.644 1.647-1.09 1.249.559 2.664.789 3.825 1.535 1.161.746 1.813 2.262 2.436 3.478 1.45 2.828 2.072 6.927 4.06 9.454.954 1.21 20.927 16.45 19.421 17.482-1.3.892-7.432 2.761-8.513 3.976-.656.738-.896 1.4-1.858.745-.618-.421-15.214-17.938-15.759-18.445-.669-.623-1.22-1.128-2.028-1.585-1.997-1.129-2.51-4.25-3.579-6.248-1.1-2.056-2.708-3.007-1.326-5.452.843-1.492 1.393-2.164 1.674-3.85" mask="url(#B)"/>
            <mask id="D" fill="#fff">
                <use xlink:href="#C"/>
            </mask>
            <path fill="#C2796C" d="M39.513 20.535c-.069.028-.277.115.025-.01l-.025.01" mask="url(#D)"/>
            <mask id="F" fill="#fff">
                <use xlink:href="#E"/>
            </mask>
            <path fill="#6FBBBB" d="M41.22 18.03l.021.006-.04-.044a.198.198 0 0 1 .019.038" mask="url(#F)"/>
            <mask id="H" fill="#fff">
                <use xlink:href="#G"/>
            </mask>
            <path fill="#6FBBBB" d="M41.164 17.953l.036.04a.14.14 0 0 0-.036-.04" mask="url(#H)"/>
            <g>
                <mask id="J" fill="#fff">
                    <use xlink:href="#I"/>
                </mask>
                <path fill="#141819" d="M38.21 18.039l-.013-.01.014.01z" mask="url(#J)"/>
            </g>
            <g>
                <mask id="L" fill="#fff">
                    <use xlink:href="#K"/>
                </mask>
                <path fill="#141819" d="M38.24 18.06" mask="url(#L)"/>
            </g>
            <g>
                <mask id="N" fill="#fff">
                    <use xlink:href="#M"/>
                </mask>
                <path fill="#141819" d="M38.197 18.03" mask="url(#N)"/>
            </g>
            <g>
                <mask id="P" fill="#fff">
                    <use xlink:href="#O"/>
                </mask>
                <path fill="#595959" d="M54.484 27.2c-1.995-.641-4.39-.61-7.138-.608-2.81.002-6.501-.02-9.307-.037-2.714-.017-5.595-.04-8.309-.034-2.415.007-6.503-.027-8.566.566-1.839.53-2.784 1.719-3.088 2.628-.615 1.839-.05 3.703-.004 5.55.055 2.277-.04 4.387-.109 6.663-.052 1.694-.052 3.927.094 5.62.123 1.433-.113 2.503.041 3.936.112 1.035-.51 2.35 1.83 3.136 1.463.492 3.806.67 5.59.732 2.83.099 5.673 0 8.508.027 3.306.033 6.6-.032 9.9-.122 2.897-.079 6.445.205 9.174-.215 3.098-.478 3.974-1.763 4.07-3.211.371-5.511-.334-11.066.193-16.541.146-1.51-.201-3.091-.376-4.627-.146-1.283.265-2.574-2.503-3.463" mask="url(#P)"/>
            </g>
            <g>
                <mask id="R" fill="#fff">
                    <use xlink:href="#Q"/>
                </mask>
                <path fill="#000" d="M49.867 27.426c-5.662.001-20.83-.056-25.356-.055-5.991 0-5.763 3.155-5.84 4.026-.028.317-.019 8.683-.01 14.752.006 3.418.012 6.108.01 6.22-.026 2.59 3.054 3.02 7.083 3.02l21.675-.005c9.062-.001 9.031-1.067 9.03-3.394-.002-.749.057-4.778.115-9.059.06-4.307.119-8.87.117-10.602 0-.232.02-.468.04-.703.145-1.648.2-4.201-6.864-4.2" mask="url(#R)"/>
            </g>
            <g>
                <mask id="T" fill="#fff">
                    <use xlink:href="#S"/>
                </mask>
                <path fill="#FFF" d="M54.787 50.732l.021-3.002.034-5.137h-.004l.013-2.051c.006-1.117.088-6.928.094-8.045.005-.58-.006-.693.003-1.273.026-1.597-2.213-1.765-4.557-1.781-2.792-.02-4.057-.031-6.849-.052-4.087-.03-8.174-.06-12.26-.088-1.9-.013-3.514-.03-5.413-.042-1.663-.01-5.022.051-5.043 1.376-.015.898-.12 7.967-.134 8.865-.015.95-.033 1.901-.048 2.852h-.001l-.103 6.11c-.009.559-.016 1.048-.032 1.756-.014.594-.382 1.952 5.535 1.993 2.362.017 22.135.135 24.087.155 4.62.047 4.655-1.3 4.657-1.636" mask="url(#T)"/>
            </g>
            <g>
                <mask id="V" fill="#fff">
                    <use xlink:href="#U"/>
                </mask>
                <path fill="#9DAAC0" d="M25.697 51.726l-.005.008.005-.008" mask="url(#V)"/>
            </g>
            <g>
                <mask id="X" fill="#fff">
                    <use xlink:href="#W"/>
                </mask>
                <path fill="#233143" d="M19.989 40.607l.028.03-.028-.03z" mask="url(#X)"/>
            </g>
            <g>
                <mask id="Z" fill="#fff">
                    <use xlink:href="#Y"/>
                </mask>
                <path fill="#233143" d="M20.129 40.52v-.009l-.002.007.002.001z" mask="url(#Z)"/>
            </g>
            <g>
                <mask id="ab" fill="#fff">
                    <use xlink:href="#aa"/>
                </mask>
                <path fill="#233143" d="M35.026 40.341l.001-.008-.002.007.001.001z" mask="url(#ab)"/>
            </g>
            <g>
                <mask id="ad" fill="#fff">
                    <use xlink:href="#ac"/>
                </mask>
                <path fill="#725048" d="M20.442 43.315c-1.936 1.384-1.577 4.295-4.35 4.977-.492.121-1.235-.016-1.717-.153-.579-.166-.817-.683-1.178-1.116.147.177-.11 1.286-.138 1.532-.049.416-.121.8-.295 1.184-.321.71-.56 1.246-.523 2.057.07 1.526.727 3.355 2.126 4.155 2.07 1.183 3.682-.027 4.658-1.894a5.55 5.55 0 0 0 .47-1.334c.23-.993.31-2.045.602-3.019.447-1.493.85-3.271 1.575-4.64.947-1.787-.004-2.626-1.23-1.75" mask="url(#ad)"/>
            </g>
            <g>
                <mask id="af" fill="#fff">
                    <use xlink:href="#ae"/>
                </mask>
                <path fill="#725048" d="M51.902 48.626c2.262.752 3.316 4.16 6.168 3.993.507-.03 1.066.053 1.485-.22.503-.33.576-.893.79-1.413-.087.213.49 1.196.59 1.422.172.383.356.729.636 1.044.52.582.908 1.024 1.115 1.81.388 1.478 3.08 5.326 1.984 6.502-1.623 1.74-5.046.507-6.537-.989-.34-.342-1.86-2.083-2.097-2.489-.517-.88-1.157-2.435-1.669-3.315-1.162-1.998-3.832-4.473-4.588-5.417-.523-.654.69-1.403 2.123-.928" mask="url(#af)"/>
            </g>
            <g>
                <mask id="ah" fill="#fff">
                    <use xlink:href="#ag"/>
                </mask>
                <path fill="#80615A" d="M50.204 48.872c.763.35 1.523.816 1.924 1.55.086.157.155.332.144.511-.01.18-.119.362-.29.415-.18.055-.368-.036-.529-.132a5.779 5.779 0 0 1-1.792-1.685c-.1-.146-.194-.343-.093-.49.09-.128.275-.133.432-.125" mask="url(#ah)"/>
            </g>
            <g>
                <mask id="aj" fill="#fff">
                    <use xlink:href="#ai"/>
                </mask>
                <path fill="#80615A" d="M21.97 44.091l-.199.481c-.11.268-.223.539-.405.764-.182.226-.446.403-.736.414-.291.01-.596-.184-.647-.468-.04-.216.065-.43.17-.623.254-.464.484-.875.79-1.307a2.43 2.43 0 0 1 .47-.509.435.435 0 0 1 .27-.096c.214.006.379.19.427.293.088.187-.077.89-.14 1.051" mask="url(#aj)"/>
            </g>
            <g>
                <mask id="al" fill="#fff">
                    <use xlink:href="#ak"/>
                </mask>
                <path fill="#595959" d="M26.864 27.012h4.422c.756 0 .757-1.166 0-1.166h-4.422c-.756 0-.757 1.166 0 1.166" mask="url(#al)"/>
            </g>
            <g>
                <mask id="an" fill="#fff">
                    <use xlink:href="#am"/>
                </mask>
                <path fill="#595959" d="M38.099 54.58c.755 0 .757-1.167 0-1.167-.756 0-.757 1.166 0 1.166" mask="url(#an)"/>
            </g>
            <g>
                <mask id="ap" fill="#fff">
                    <use xlink:href="#ao"/>
                </mask>
                <path fill="#FF7900" d="M34.578 16.008c.407.444.937.65 1.59.62.454-.021.86-.123 1.218-.307s.663-.42.918-.707c.253-.287.446-.616.577-.986.132-.37.187-.751.17-1.144-.033-.688-.272-1.236-.718-1.65-.445-.411-1.023-.601-1.735-.568a2.417 2.417 0 0 0-1.099.317 2.937 2.937 0 0 0-.856.734 3.441 3.441 0 0 0-.548.998c-.131.37-.189.732-.172 1.085.029.63.248 1.165.655 1.608zm7.293-1.298l-.099.743a3.829 3.829 0 0 0-.045.621c.02.433.198.641.535.625.256-.012.53-.113.817-.304.288-.189.557-.472.807-.849.25-.374.45-.861.6-1.458.15-.597.206-1.31.167-2.133-.049-1.06-.286-1.988-.71-2.785a5.756 5.756 0 0 0-1.728-1.986c-.728-.527-1.578-.916-2.55-1.166-.974-.25-2.023-.349-3.149-.296-1.245.058-2.362.311-3.351.76a7.301 7.301 0 0 0-2.5 1.829 7.667 7.667 0 0 0-1.522 2.68c-.338 1.02-.48 2.137-.422 3.355.06 1.277.326 2.411.799 3.402a7.253 7.253 0 0 0 1.915 2.493c.804.672 1.748 1.17 2.832 1.492 1.086.324 2.26.456 3.526.397 1.127-.053 2.161-.252 3.105-.6a8.848 8.848 0 0 0 2.506-1.4l3.26-.152c-.997 1.522-2.265 2.678-3.803 3.466-1.538.79-3.502 1.24-5.894 1.352-1.522.07-2.963-.138-4.323-.626a10.806 10.806 0 0 1-3.606-2.135 10.833 10.833 0 0 1-2.52-3.352 10.61 10.61 0 0 1-1.06-4.214 10.605 10.605 0 0 1 .66-4.296 11.026 11.026 0 0 1 2.193-3.585A11.107 11.107 0 0 1 31.7 4.086a10.793 10.793 0 0 1 4.244-1.053 14.032 14.032 0 0 1 4.21.424c1.343.351 2.538.887 3.581 1.605a8.804 8.804 0 0 1 2.548 2.685c.654 1.072 1.014 2.285 1.077 3.64.059 1.236-.136 2.363-.584 3.376-.448 1.015-1.025 1.879-1.735 2.59-.71.712-1.5 1.27-2.372 1.674-.873.405-1.705.626-2.496.662-.454.022-.845-.075-1.171-.285-.328-.21-.53-.522-.609-.93l-.118.005c-.319.408-.743.742-1.276 1.002a4.532 4.532 0 0 1-1.806.44 4.473 4.473 0 0 1-3.313-1.263 5.036 5.036 0 0 1-1.083-1.56c-.277-.607-.433-1.293-.469-2.059a7.416 7.416 0 0 1 .312-2.522c.249-.82.62-1.553 1.114-2.206a5.882 5.882 0 0 1 1.827-1.59c.725-.408 1.54-.633 2.45-.675a4.94 4.94 0 0 1 2.08.331c.636.256 1.217.688 1.74 1.292l.186-1.1 2.728-.127-.894 6.268z" mask="url(#ap)"/>
            </g>
            <g>
                <mask id="ar" fill="#fff">
                    <use xlink:href="#aq"/>
                </mask>
                <path fill="#50BE87" d="M24.187 31.172a.968.968 0 0 1-.971.965.968.968 0 0 1-.972-.965c0-.533.435-.965.972-.965.536 0 .971.432.971.965" mask="url(#ar)"/>
            </g>
            <g>
                <mask id="at" fill="#fff">
                    <use xlink:href="#as"/>
                </mask>
                <path fill="#FFB400" d="M26.908 31.172a.969.969 0 0 1-.971.965.969.969 0 0 1-.972-.965c0-.533.435-.965.972-.965.536 0 .971.432.971.965" mask="url(#at)"/>
            </g>
            <g>
                <mask id="av" fill="#fff">
                    <use xlink:href="#au"/>
                </mask>
                <path fill="#FF7900" d="M29.629 31.172a.968.968 0 0 1-.972.965.968.968 0 0 1-.972-.965c0-.533.435-.965.972-.965.537 0 .972.432.972.965" mask="url(#av)"/>
            </g>
            <mask id="ax" fill="#fff">
                <use xlink:href="#aw"/>
            </mask>
            <path fill="#D6D6D6" d="M29.007 43.68h16.908v-8.339H29.007zM29.24 46.909a.435.435 0 0 1-.437-.432.435.435 0 0 1 .434-.437l16.441-.115h.004c.24 0 .435.192.437.43a.436.436 0 0 1-.434.438l-16.442.115h-.003M29.24 49.442a.436.436 0 0 1-.437-.422.435.435 0 0 1 .425-.446l16.441-.464a.435.435 0 0 1 .025.868l-16.441.463h-.013" mask="url(#ax)"/>
            <path fill="#FFF" d="M22.379 22.068c-.404-1.388-1.154-2.631-1.947-3.832-.25-.376.33-.773.578-.396.824 1.246 1.611 2.55 2.03 3.993.126.43-.536.668-.661.235" mask="url(#ax)"/>
            <path fill="#FFF" d="M20.743 17.977h-.001a.105.105 0 0 0-.075.053c-.005.01-.01.02.008.048.908 1.372 1.592 2.563 1.984 3.91.004.014.008.02.01.022a.132.132 0 0 0 .076-.032c.02-.019.024-.035.016-.065-.386-1.328-1.077-2.525-1.994-3.914-.013-.02-.02-.022-.024-.022m1.93 4.61a.585.585 0 0 1-.575-.439c-.37-1.277-1.032-2.424-1.91-3.753a.61.61 0 0 1-.042-.626.685.685 0 0 1 .562-.37.603.603 0 0 1 .546.282c.82 1.24 1.637 2.59 2.067 4.071a.624.624 0 0 1-.152.624.698.698 0 0 1-.496.211M18.563 24.634c-.673-1.18-1.656-2.164-2.242-3.394-.192-.405.42-.747.615-.34.586 1.23 1.569 2.215 2.242 3.395.224.392-.391.731-.615.339" mask="url(#ax)"/>
            <path fill="#FFF" d="M16.66 21.004a.131.131 0 0 0-.07.044c-.017.023-.018.04-.005.068.316.664.748 1.249 1.206 1.867.355.48.722.975 1.026 1.508.016.028.025.024.034.027.029 0 .066-.02.08-.044.004-.005.007-.012-.007-.037-.287-.504-.644-.986-.989-1.452-.453-.612-.923-1.246-1.263-1.96a.066.066 0 0 0-.013-.021m2.192 4.093h-.005a.612.612 0 0 1-.536-.32c-.288-.504-.644-.985-.988-1.45-.454-.614-.924-1.248-1.264-1.964-.175-.368.028-.732.326-.872a.594.594 0 0 1 .815.286c.316.664.748 1.247 1.206 1.865.355.48.722.976 1.026 1.51.115.2.116.425.003.616a.687.687 0 0 1-.583.33M13.802 27.729c-.347-.285.062-.854.412-.566.424.347.803.743 1.253 1.06.37.26-.042.827-.412.566-.45-.317-.829-.713-1.253-1.06" mask="url(#ax)"/>
            <path fill="#FFF" d="M13.988 27.506c.167.137.328.282.484.422.251.226.488.44.751.625.026.018.035.014.043.01a.103.103 0 0 0 .054-.074c0-.007.001-.014-.022-.03-.292-.205-.554-.442-.808-.67-.15-.135-.305-.275-.462-.403a.067.067 0 0 0-.02-.013.13.13 0 0 0-.044.07c-.006.027 0 .043.024.063m1.266 1.64a.637.637 0 0 1-.368-.12c-.291-.206-.553-.441-.806-.67-.15-.135-.306-.275-.464-.404-.315-.26-.287-.675-.077-.927a.595.595 0 0 1 .86-.086c.168.137.328.282.483.421.252.227.49.44.753.627a.6.6 0 0 1 .266.555.68.68 0 0 1-.391.547.615.615 0 0 1-.256.057" mask="url(#ax)"/>
        </g>
        <g transform="translate(0 .162)">
            <mask id="az" fill="#fff">
                <use xlink:href="#ay"/>
            </mask>
            <path fill="#FF7900" d="M39.74 39.865l1.364-5.855c.045-.271-.115-.525-.335-.532l-6.278-.18c-.219-.007-.393.234-.366.507l1.03 5.931c.026.273-.148.514-.367.508l-1.109-.032c-.307-.01-.483.444-.286.738l3.57 5.325c.134.2.378.21.525.02l3.99-5.107c.218-.28.07-.749-.24-.758l-1.163-.034c-.22-.006-.38-.26-.335-.531" mask="url(#az)"/>
        </g>
    </g>
</svg>
