<svg xmlns="http://www.w3.org/2000/svg" xmlns:xlink="http://www.w3.org/1999/xlink" width="85" height="76" viewBox="0 0 85 76">
    <defs>
        <path id="a" d="M.273.243h26.609V43.86H.273z"/>
        <path id="c" d="M.224.07H20.62v32.466H.224z"/>
        <path id="e" d="M.273 92.591h92.414V.177H.273z"/>
    </defs>
    <g fill="none" fill-rule="evenodd">
        <g transform="translate(-7 -3.834)">
            <path fill="#FFF" d="M73.584 34.663c1.536-.582 3.021-1.29 4.558-1.87.564-.215.804.688.247.899-1.537.582-3.022 1.29-4.559 1.871-.564.214-.804-.69-.246-.9"/>
            <path fill="#FFF" d="M78.297 33.148a58.892 58.892 0 0 0-2.283.936c-.746.318-1.518.647-2.293.941-.033.013-.057.03-.065.075a.163.163 0 0 0 .019.107.174.174 0 0 0 .018-.006c.761-.288 1.525-.614 2.265-.93.746-.318 1.518-.647 2.293-.94.034-.013.057-.03.065-.076a.163.163 0 0 0-.019-.107m-4.633 2.834a.738.738 0 0 1-.473-.168.905.905 0 0 1-.299-.837.865.865 0 0 1 .555-.676c.76-.288 1.525-.614 2.264-.929.746-.318 1.518-.648 2.294-.942a.768.768 0 0 1 .776.111c.234.192.351.52.299.837a.864.864 0 0 1-.555.676c-.76.288-1.524.614-2.263.93a60.53 60.53 0 0 1-2.295.941.856.856 0 0 1-.303.057M70.125 30.764c1.025-1.04 2.216-1.909 3.414-2.736.497-.343.976.46.483.799-1.136.784-2.257 1.602-3.228 2.587-.423.429-1.092-.221-.67-.65"/>
            <path fill="#FFF" d="M73.782 28.331c.003.001-.007.005-.022.015-1.33.917-2.41 1.726-3.36 2.69-.027.027-.024.037-.022.045a.14.14 0 0 0 .088.085c.011.003.023.005.052-.024 1.001-1.014 2.17-1.865 3.285-2.633.033-.024.043-.044.038-.08-.007-.053-.044-.092-.059-.098m-3.302 3.61a.83.83 0 0 1-.21-.027.91.91 0 0 1-.638-.627.805.805 0 0 1 .217-.795c1.052-1.066 2.29-1.967 3.47-2.783.387-.266.863-.177 1.133.214.247.359.237.914-.21 1.223-1.083.746-2.217 1.571-3.173 2.54a.82.82 0 0 1-.59.256M65.074 27.182a17.575 17.575 0 0 0 2.101-3.04c.288-.529 1.053.007.768.53a17.6 17.6 0 0 1-2.1 3.04c-.39.452-1.161-.073-.769-.53"/>
            <path fill="#FFF" d="M65.359 27.446a.162.162 0 0 0 .094.05c.046.008.072-.008.096-.035a17.255 17.255 0 0 0 2.054-2.974c.018-.032.024-.061 0-.103a.163.163 0 0 0-.08-.07l-.009.013a17.986 17.986 0 0 1-2.146 3.107.134.134 0 0 0-.01.012m.12.827a.947.947 0 0 1-.611-.227.766.766 0 0 1-.087-1.116 17.243 17.243 0 0 0 2.055-2.974.766.766 0 0 1 1.075-.314c.392.214.639.727.372 1.216a18.058 18.058 0 0 1-2.146 3.107.855.855 0 0 1-.659.308"/>
            <path fill="#725048" d="M12.458 61.236l-.062-4.754c-.018-1.434-.02-2.933.74-4.246.743-1.283 2.339-3.163 3.5-4.209 1.49-1.34 2.452-1.976 3.243-3.677.25-.539.673-1.21 1.337-1.144.334.034.583.264.758.503.822 1.123.563 2.662-.229 3.863-.793 1.2-2.038 2.14-3.25 3.063-.587.448-1.626 2.78-1.577 3.396.206 2.602-.394 5.278-1.726 7.69"/>
            <g transform="translate(0 48.73)">
                <mask id="b" fill="#fff">
                    <use xlink:href="#a"/>
                </mask>
                <path fill="#725048" d="M25.822.602C25.08-.874 21.705 2.66 19.195 3.01c-1.8.252-4.586 4.557-5.762 5.967-1.176 1.41-1.4 3.601-1.707 5.4-.716 4.18-.587 8.629-2.105 12.638-.728 1.92-19.289 30.272-16.97 30.996 2.003.625 10.517.594 12.37 1.719 1.125.683 1.69 1.433 2.65.218.617-.782 12.167-28.892 12.656-29.754.6-1.06 1.1-1.92 1.943-2.821 2.083-2.229 3.8-5.125 4.36-8.097.58-3.057.307-4.856-2.415-7.431-1.661-1.572 2.632-9.203 1.607-11.244" mask="url(#b)"/>
            </g>
            <path fill="#62342D" d="M14.606 56.817l3.015-3.668c.262-.32-.193-.78-.457-.458l-3.015 3.668c-.263.32.193.78.457.458M17.061 57.687c1.488-1.365 2.721-2.825 3.48-4.711.688-1.71 2.718-1.728 3.825-3.042.267-.317-.189-.777-.457-.458-1.013 1.202-2.897 1.274-3.71 2.698-.241.419-.368.896-.576 1.33a8.783 8.783 0 0 1-.774 1.296c-.643.9-1.433 1.684-2.245 2.43-.308.282.15.738.457.457"/>
            <path fill="#62342D" d="M20.633 58.918a32.957 32.957 0 0 1 1.327-3.969c.496-1.211 1-2.632 2.04-3.486.322-.263-.138-.719-.457-.457-1.038.851-1.546 2.198-2.053 3.4a33.603 33.603 0 0 0-1.481 4.34c-.108.403.516.574.624.172"/>
            <path fill="#80615A" d="M18.802 46.103s-.312 1.29.622.445c.934-.845 1.982-2.77 1.792-3.342-.19-.571-2.414 2.897-2.414 2.897"/>
            <g transform="translate(72.066 60.055)">
                <mask id="d" fill="#fff">
                    <use xlink:href="#c"/>
                </mask>
                <path fill="#725048" d="M3.156 1.847C3.426.217 3.7-.35 5.343.39 7 1.137 8.879 1.444 10.42 2.44c1.541.998 2.406 3.024 3.233 4.65 1.925 3.78 2.75 9.258 5.39 12.636 1.266 1.618 27.781 21.986 25.783 23.366-1.728 1.192-9.867 3.69-11.302 5.314-.872.987-1.19 1.872-2.466.996-.822-.563-20.199-23.975-20.921-24.653-.888-.834-1.621-1.507-2.693-2.118-2.65-1.51-3.331-5.68-4.75-8.352C1.234 11.532-.902 10.26.932 6.992c1.12-1.994 1.85-2.892 2.223-5.145" mask="url(#d)"/>
            </g>
            <path fill="#C2796C" d="M52.455 27.446l.033-.014-.033.014"/>
            <path fill="#6FBBBB" d="M54.72 24.098l.03.008-.055-.058c.01.016.019.032.026.05M54.646 23.995l.049.053a.186.186 0 0 0-.049-.053"/>
            <path fill="#141819" d="M50.726 24.11l-.018-.012.018.012zM50.708 24.098"/>
            <path fill="#595959" d="M72.33 36.354c-2.65-.856-5.829-.815-9.477-.812-3.729.003-8.63-.025-12.355-.049-3.602-.022-7.428-.055-11.03-.046-3.206.01-8.633-.037-11.372.757-2.441.707-3.695 2.297-4.1 3.512-.816 2.458-.066 4.95-.005 7.419.073 3.042-.052 5.862-.144 8.905-.07 2.264-.07 5.248.124 7.51.163 1.916-.15 3.347.055 5.262.148 1.383-.677 3.142 2.43 4.192 1.942.657 5.051.894 7.42.978 3.758.132 7.531-.001 11.294.036 4.39.044 8.763-.043 13.142-.163 3.847-.106 8.558.274 12.18-.288 4.113-.639 5.276-2.356 5.405-4.291.491-7.367-.445-14.79.255-22.108.193-2.02-.267-4.132-.5-6.185-.193-1.714.352-3.44-3.323-4.629"/>
            <path fill="#000" d="M66.2 36.657c-7.516.002-27.653-.075-33.661-.074-7.953.001-7.65 4.217-7.753 5.382-.037.423-.024 11.604-.012 19.716.008 4.569.015 8.164.013 8.313-.035 3.461 4.053 4.038 9.402 4.037l28.775-.006c12.03-.002 11.99-1.427 11.986-4.536-.001-1.002.077-6.387.155-12.109.078-5.757.157-11.854.154-14.17 0-.31.027-.626.055-.94.191-2.202.264-5.615-9.114-5.613"/>
            <path fill="#FFF" d="M72.732 67.807l.028-4.013.045-6.865H72.8l.018-2.742c.008-1.492.117-9.26.125-10.752.006-.776-.008-.927.004-1.702.034-2.135-2.939-2.358-6.05-2.38-3.706-.026-5.386-.042-9.092-.07-5.426-.04-10.851-.08-16.277-.117-2.52-.018-4.664-.04-7.185-.057-2.207-.014-6.667.069-6.695 1.84-.02 1.2-.158 10.648-.178 11.848-.02 1.27-.043 2.541-.064 3.811-.039 2.295-.132 7.782-.137 8.167-.012.748-.022 1.402-.043 2.347-.018.795-.508 2.61 7.349 2.665 3.135.022 29.384.18 31.976.206 6.133.063 6.179-1.737 6.182-2.186"/>
            <path fill="#9DAAC0" d="M34.113 69.136l-.006.01c0 .002.002-.002.006-.01"/>
            <path fill="#233143" d="M26.536 54.275l.037.04-.036-.04zM26.722 54.157v-.011l-.003.01h.003zM46.499 53.919l.001-.01-.004.008.003.002z"/>
            <path fill="#725048" d="M27.137 57.893c-2.569 1.85-2.093 5.741-5.774 6.653-.654.161-1.64-.021-2.28-.205-.768-.221-1.084-.912-1.563-1.491.195.236-.146 1.719-.184 2.047-.064.556-.16 1.07-.391 1.583-.426.948-.745 1.665-.695 2.75.095 2.039.965 4.484 2.822 5.553 2.748 1.58 4.889-.036 6.184-2.533.297-.57.484-1.17.625-1.782.306-1.328.412-2.734.799-4.035.593-1.995 1.128-4.372 2.09-6.202 1.257-2.388-.005-3.51-1.633-2.338M68.902 64.992c3.003 1.005 4.402 5.56 8.188 5.337.673-.04 1.415.071 1.971-.294.668-.44.765-1.193 1.05-1.888-.116.284.65 1.598.784 1.9.226.512.471.974.843 1.395.69.779 1.205 1.369 1.48 2.42.516 1.974 4.09 7.118 2.633 8.69-2.153 2.325-6.698.677-8.677-1.322-.452-.457-2.468-2.783-2.785-3.326-.686-1.177-1.535-3.256-2.214-4.431-1.543-2.671-5.087-5.98-6.091-7.241-.695-.873.916-1.875 2.818-1.24"/>
            <path fill="#80615A" d="M66.647 65.321c1.013.468 2.023 1.09 2.555 2.072.114.21.206.443.191.683-.014.24-.157.483-.386.554-.237.074-.488-.048-.7-.176a7.693 7.693 0 0 1-2.38-2.252c-.133-.195-.258-.46-.123-.654.118-.172.365-.179.573-.168M29.167 58.931l-.265.643c-.146.357-.297.72-.538 1.021-.241.302-.591.538-.977.553-.387.014-.791-.245-.86-.625-.051-.289.087-.575.227-.833.337-.62.642-1.17 1.047-1.747.162-.23.4-.511.626-.68a.575.575 0 0 1 .358-.129c.284.009.503.255.567.392.117.25-.102 1.188-.185 1.405"/>
            <path fill="#595959" d="M35.662 36.103h5.872c1.003 0 1.005-1.559 0-1.559h-5.872c-1.003 0-1.004 1.56 0 1.56M50.577 72.949c1.004 0 1.006-1.56 0-1.56-1.003 0-1.004 1.56 0 1.56"/>
            <path fill="#FF7900" d="M45.903 21.396c.54.593 1.245.868 2.11.828.604-.028 1.143-.163 1.619-.41a4.15 4.15 0 0 0 1.218-.945 3.98 3.98 0 0 0 .765-1.318c.176-.494.25-1.004.226-1.529-.044-.919-.36-1.652-.952-2.204-.591-.55-1.359-.805-2.303-.76a3.193 3.193 0 0 0-1.46.424 3.907 3.907 0 0 0-1.137.98 4.61 4.61 0 0 0-.726 1.335c-.175.495-.251.977-.23 1.45.04.841.33 1.557.87 2.15zm9.682-1.735l-.13.994c-.05.37-.07.647-.06.83.027.578.262.856.709.835.341-.017.703-.151 1.086-.407.382-.252.739-.631 1.07-1.135.332-.5.598-1.15.798-1.948.199-.799.273-1.75.221-2.85-.065-1.419-.38-2.659-.943-3.724a7.678 7.678 0 0 0-2.294-2.654c-.966-.704-2.095-1.224-3.386-1.558-1.292-.334-2.684-.466-4.18-.397-1.653.078-3.136.417-4.449 1.016-1.313.602-2.418 1.415-3.318 2.445a10.266 10.266 0 0 0-2.02 3.583c-.45 1.363-.637 2.856-.561 4.484.08 1.706.433 3.222 1.06 4.547.627 1.325 1.475 2.436 2.543 3.331 1.067.898 2.32 1.564 3.76 1.995 1.442.433 3.001.609 4.68.53 1.496-.07 2.87-.337 4.123-.803 1.254-.467 2.364-1.09 3.327-1.87l4.328-.203c-1.324 2.034-3.007 3.58-5.049 4.633-2.042 1.055-4.65 1.658-7.824 1.806-2.021.095-3.934-.184-5.74-.836a14.326 14.326 0 0 1-4.788-2.854 14.471 14.471 0 0 1-3.345-4.48c-.843-1.735-1.312-3.612-1.406-5.633-.095-2.02.197-3.934.875-5.74a14.754 14.754 0 0 1 2.912-4.792 14.753 14.753 0 0 1 4.498-3.344c1.736-.845 3.614-1.315 5.635-1.408 1.942-.091 3.805.099 5.589.566 1.782.47 3.369 1.186 4.754 2.146a11.735 11.735 0 0 1 3.382 3.589c.87 1.433 1.346 3.053 1.43 4.863.078 1.654-.18 3.16-.775 4.513-.594 1.357-1.361 2.512-2.303 3.462a10.888 10.888 0 0 1-3.15 2.238c-1.159.541-2.263.836-3.312.884-.603.03-1.122-.099-1.556-.38-.435-.282-.703-.697-.807-1.244l-.158.007c-.422.546-.986.993-1.693 1.34-.707.349-1.507.545-2.398.587a5.76 5.76 0 0 1-2.366-.385 5.933 5.933 0 0 1-2.032-1.304 6.732 6.732 0 0 1-1.438-2.083c-.367-.812-.574-1.728-.622-2.752a9.976 9.976 0 0 1 .413-3.37 9.342 9.342 0 0 1 1.48-2.95 7.825 7.825 0 0 1 2.425-2.125c.962-.545 2.045-.845 3.252-.902.998-.046 1.919.103 2.763.443.844.342 1.615.918 2.308 1.727l.248-1.472 3.622-.17-1.188 8.38z"/>
            <path fill="#50BE87" d="M32.11 41.663a1.29 1.29 0 1 1-2.58 0 1.29 1.29 0 0 1 2.58 0"/>
            <path fill="#FFB400" d="M35.722 41.663a1.29 1.29 0 1 1-2.58 0 1.29 1.29 0 0 1 2.58 0"/>
            <path fill="#FF7900" d="M39.333 41.663a1.29 1.29 0 1 1-2.58 0 1.29 1.29 0 0 1 2.58 0"/>
            <mask id="f" fill="#fff">
                <use xlink:href="#e"/>
            </mask>
            <path fill="#D6D6D6" d="M38.508 58.381h22.445V47.236H38.508zM38.817 62.697a.58.58 0 0 1-.004-1.16l21.827-.156h.004a.58.58 0 0 1 .004 1.161l-21.826.154h-.005M38.817 66.082a.58.58 0 0 1-.016-1.16l21.826-.62a.58.58 0 0 1 .033 1.16l-21.826.62h-.017" mask="url(#f)"/>
            <path fill="#FFF" d="M29.709 29.496c-.536-1.856-1.532-3.518-2.585-5.122-.33-.503.438-1.033.768-.53 1.094 1.666 2.139 3.409 2.696 5.337.166.576-.713.893-.88.315" mask="url(#f)"/>
            <path fill="#FFF" d="M27.538 24.028h-.003a.14.14 0 0 0-.099.07c-.006.013-.013.027.011.064 1.205 1.835 2.114 3.426 2.633 5.227.006.018.011.027.013.029a.174.174 0 0 0 .102-.043c.027-.025.032-.047.02-.087-.512-1.775-1.428-3.375-2.647-5.231-.017-.026-.025-.029-.03-.029M30.1 30.19a.779.779 0 0 1-.763-.586c-.493-1.707-1.37-3.24-2.537-5.017a.82.82 0 0 1-.055-.836.91.91 0 0 1 .746-.494.799.799 0 0 1 .725.376c1.087 1.657 2.172 3.463 2.743 5.441a.838.838 0 0 1-.202.834.924.924 0 0 1-.657.282M24.644 32.925c-.894-1.576-2.199-2.892-2.977-4.536-.256-.542.558-.999.816-.454.778 1.644 2.083 2.96 2.976 4.536.297.524-.519.978-.815.454" mask="url(#f)"/>
            <path fill="#FFF" d="M22.116 28.073a.174.174 0 0 0-.093.06c-.022.03-.024.053-.006.09.42.888.994 1.669 1.602 2.496.47.64.957 1.303 1.362 2.015.02.037.032.033.045.037a.14.14 0 0 0 .106-.06c.004-.007.01-.015-.01-.049-.381-.673-.855-1.318-1.312-1.94-.603-.82-1.225-1.667-1.677-2.622a.088.088 0 0 0-.017-.027m2.91 5.472h-.007a.812.812 0 0 1-.712-.43c-.382-.672-.854-1.315-1.312-1.938-.603-.82-1.226-1.667-1.677-2.623-.233-.492.037-.98.432-1.167.427-.201.883-.04 1.083.382.42.888.993 1.668 1.6 2.494.471.641.959 1.304 1.363 2.018a.805.805 0 0 1 .003.823.91.91 0 0 1-.773.44M18.323 37.062c-.46-.381.081-1.142.547-.757.562.464 1.065.994 1.662 1.417.492.347-.054 1.105-.546.756-.598-.423-1.1-.952-1.663-1.416" mask="url(#f)"/>
            <path fill="#FFF" d="M18.57 36.763c.222.184.436.377.642.565.333.302.648.587.997.835.035.024.046.019.057.013a.138.138 0 0 0 .072-.098c0-.01.002-.019-.029-.04-.388-.275-.736-.59-1.073-.896-.199-.18-.405-.367-.613-.539a.089.089 0 0 0-.027-.017.174.174 0 0 0-.058.094c-.008.036 0 .057.031.083m1.68 2.192a.842.842 0 0 1-.487-.16c-.387-.275-.734-.59-1.07-.894-.2-.181-.407-.369-.616-.541-.419-.347-.381-.902-.103-1.24.301-.364.782-.412 1.143-.114.222.183.435.376.64.563.334.303.65.589 1 .837.251.178.38.449.353.743a.91.91 0 0 1-.52.73.811.811 0 0 1-.34.076" mask="url(#f)"/>
        </g>
        <path fill="#FF7900" d="M44.384 40.868l1.81-7.824c.06-.364-.152-.703-.444-.711l-8.335-.243c-.29-.008-.521.314-.486.679l1.367 7.927c.035.365-.196.688-.486.68l-1.472-.044c-.409-.012-.642.594-.38.987l4.74 7.118c.177.267.5.28.696.027l5.296-6.827c.29-.374.094-1-.317-1.013l-1.544-.045c-.292-.008-.504-.347-.445-.71"/>
    </g>
</svg>
