<svg xmlns="http://www.w3.org/2000/svg" xmlns:xlink="http://www.w3.org/1999/xlink" width="176" height="175" viewBox="0 0 176 175">
    <defs>
        <filter id="a" width="111.4%" height="109.9%" x="-5.7%" y="-4.9%" filterUnits="objectBoundingBox">
            <feOffset dy="2" in="SourceAlpha" result="shadowOffsetOuter1"/>
            <feGaussianBlur in="shadowOffsetOuter1" result="shadowBlurOuter1" stdDeviation="4"/>
            <feColorMatrix in="shadowBlurOuter1" result="shadowMatrixOuter1" values="0 0 0 0 0 0 0 0 0 0 0 0 0 0 0 0 0 0 0.05 0"/>
            <feMerge>
                <feMergeNode in="shadowMatrixOuter1"/>
                <feMergeNode in="SourceGraphic"/>
            </feMerge>
        </filter>
        <path id="b" d="M.267 79.769c0 43.792 35.742 79.293 79.833 79.293 44.09 0 79.832-35.5 79.832-79.293C159.932 35.976 124.19.475 80.1.475 36.009.475.267 35.975.267 79.77z"/>
        <path id="d" d="M33.623.28C17.339 11.087 5.283 27.681.433 47.104v38.3c8.624 34.541 40.046 60.143 77.49 60.143a79.9 79.9 0 0 0 69.064-39.495V26.457A79.92 79.92 0 0 0 122.222.279"/>
        <path id="f" d="M33.623.28C17.339 11.087 5.283 27.681.433 47.104v38.3c8.624 34.541 40.046 60.143 77.49 60.143a79.9 79.9 0 0 0 69.064-39.495V26.457A79.92 79.92 0 0 0 122.222.279"/>
        <path id="h" d="M33.623.28C17.339 11.087 5.283 27.681.433 47.104v38.3c8.624 34.541 40.046 60.143 77.49 60.143a79.9 79.9 0 0 0 69.064-39.495V26.457A79.92 79.92 0 0 0 122.222.279"/>
        <path id="j" d="M33.623.28C17.339 11.087 5.283 27.681.433 47.104v38.3c8.624 34.541 40.046 60.143 77.49 60.143a79.9 79.9 0 0 0 69.064-39.495V26.457A79.92 79.92 0 0 0 122.222.279"/>
        <path id="l" d="M33.623.28C17.339 11.087 5.283 27.681.433 47.104v38.3c8.624 34.541 40.046 60.143 77.49 60.143a79.9 79.9 0 0 0 69.064-39.495V26.457A79.92 79.92 0 0 0 122.222.279"/>
        <path id="n" d="M33.623.28C17.339 11.087 5.283 27.681.433 47.104v38.3c8.624 34.541 40.046 60.143 77.49 60.143a79.9 79.9 0 0 0 69.064-39.495V26.457A79.92 79.92 0 0 0 122.222.279"/>
        <path id="p" d="M33.623.28C17.339 11.087 5.283 27.681.433 47.104v38.3c8.624 34.541 40.046 60.143 77.49 60.143a79.9 79.9 0 0 0 69.064-39.495V26.457A79.92 79.92 0 0 0 122.222.279"/>
        <path id="r" d="M33.623.28C17.339 11.087 5.283 27.681.433 47.104v38.3c8.624 34.541 40.046 60.143 77.49 60.143a79.9 79.9 0 0 0 69.064-39.495V26.457A79.92 79.92 0 0 0 122.222.279"/>
        <path id="t" d="M33.623.28C17.339 11.087 5.283 27.681.433 47.104v38.3c8.624 34.541 40.046 60.143 77.49 60.143a79.9 79.9 0 0 0 69.064-39.495V26.457A79.92 79.92 0 0 0 122.222.279"/>
        <path id="v" d="M33.623.28C17.339 11.087 5.283 27.681.433 47.104v38.3c8.624 34.541 40.046 60.143 77.49 60.143a79.9 79.9 0 0 0 69.064-39.495V26.457A79.92 79.92 0 0 0 122.222.279"/>
        <path id="x" d="M33.623.28C17.339 11.087 5.283 27.681.433 47.104v38.3c8.624 34.541 40.046 60.143 77.49 60.143a79.9 79.9 0 0 0 69.064-39.495V26.457A79.92 79.92 0 0 0 122.222.279"/>
        <path id="z" d="M33.623.28C17.339 11.087 5.283 27.681.433 47.104v38.3c8.624 34.541 40.046 60.143 77.49 60.143a79.9 79.9 0 0 0 69.064-39.495V26.457A79.92 79.92 0 0 0 122.222.279"/>
        <path id="B" d="M33.623.28C17.339 11.087 5.283 27.681.433 47.104v38.3c8.624 34.541 40.046 60.143 77.49 60.143a79.9 79.9 0 0 0 69.064-39.495V26.457A79.92 79.92 0 0 0 122.222.279"/>
        <path id="D" d="M33.623.28C17.339 11.087 5.283 27.681.433 47.104v38.3c8.624 34.541 40.046 60.143 77.49 60.143a79.9 79.9 0 0 0 69.064-39.495V26.457A79.92 79.92 0 0 0 122.222.279"/>
        <path id="F" d="M33.623.28C17.339 11.087 5.283 27.681.433 47.104v38.3c8.624 34.541 40.046 60.143 77.49 60.143a79.9 79.9 0 0 0 69.064-39.495V26.457A79.92 79.92 0 0 0 122.222.279"/>
        <path id="H" d="M33.623.28C17.339 11.087 5.283 27.681.433 47.104v38.3c8.624 34.541 40.046 60.143 77.49 60.143a79.9 79.9 0 0 0 69.064-39.495V26.457A79.92 79.92 0 0 0 122.222.279"/>
        <path id="J" d="M33.623.28C17.339 11.087 5.283 27.681.433 47.104v38.3c8.624 34.541 40.046 60.143 77.49 60.143a79.9 79.9 0 0 0 69.064-39.495V26.457A79.92 79.92 0 0 0 122.222.279h-88.6z"/>
        <path id="L" d="M33.623.28C17.339 11.087 5.283 27.681.433 47.104v38.3c8.624 34.541 40.046 60.143 77.49 60.143a79.9 79.9 0 0 0 69.064-39.495V26.457A79.92 79.92 0 0 0 122.222.279"/>
        <path id="N" d="M33.623.28C17.339 11.087 5.283 27.681.433 47.104v38.3c8.624 34.541 40.046 60.143 77.49 60.143a79.9 79.9 0 0 0 69.064-39.495V26.457A79.92 79.92 0 0 0 122.222.279"/>
        <path id="P" d="M33.623.28C17.339 11.087 5.283 27.681.433 47.104v38.3c8.624 34.541 40.046 60.143 77.49 60.143a79.9 79.9 0 0 0 69.064-39.495V26.457A79.92 79.92 0 0 0 122.222.279"/>
        <path id="R" d="M33.623.28C17.339 11.087 5.283 27.681.433 47.104v38.3c8.624 34.541 40.046 60.143 77.49 60.143a79.9 79.9 0 0 0 69.064-39.495V26.457A79.92 79.92 0 0 0 122.222.279"/>
        <path id="T" d="M33.623.28C17.339 11.087 5.283 27.681.433 47.104v38.3c8.624 34.541 40.046 60.143 77.49 60.143a79.9 79.9 0 0 0 69.064-39.495V26.457A79.92 79.92 0 0 0 122.222.279"/>
        <path id="V" d="M33.623.28C17.339 11.087 5.283 27.681.433 47.104v38.3c8.624 34.541 40.046 60.143 77.49 60.143a79.9 79.9 0 0 0 69.064-39.495V26.457A79.92 79.92 0 0 0 122.222.279"/>
        <path id="X" d="M33.623.28C17.339 11.087 5.283 27.681.433 47.104v38.3c8.624 34.541 40.046 60.143 77.49 60.143a79.9 79.9 0 0 0 69.064-39.495V26.457A79.92 79.92 0 0 0 122.222.279h-88.6z"/>
        <path id="Z" d="M33.623.28C17.339 11.087 5.283 27.681.433 47.104v38.3c8.624 34.541 40.046 60.143 77.49 60.143a79.9 79.9 0 0 0 69.064-39.495V26.457A79.92 79.92 0 0 0 122.222.279h-88.6z"/>
        <path id="ab" d="M33.623.28C17.339 11.087 5.283 27.681.433 47.104v38.3c8.624 34.541 40.046 60.143 77.49 60.143a79.9 79.9 0 0 0 69.064-39.495V26.457A79.92 79.92 0 0 0 122.222.279h-88.6z"/>
        <path id="ad" d="M33.623.28C17.339 11.087 5.283 27.681.433 47.104v38.3c8.624 34.541 40.046 60.143 77.49 60.143a79.9 79.9 0 0 0 69.064-39.495V26.457A79.92 79.92 0 0 0 122.222.279"/>
        <path id="af" d="M33.623.28C17.339 11.087 5.283 27.681.433 47.104v38.3c8.624 34.541 40.046 60.143 77.49 60.143a79.9 79.9 0 0 0 69.064-39.495V26.457A79.92 79.92 0 0 0 122.222.279"/>
        <path id="ah" d="M33.623.28C17.339 11.087 5.283 27.681.433 47.104v38.3c8.624 34.541 40.046 60.143 77.49 60.143a79.9 79.9 0 0 0 69.064-39.495V26.457A79.92 79.92 0 0 0 122.222.279"/>
        <path id="aj" d="M33.623.28C17.339 11.087 5.283 27.681.433 47.104v38.3c8.624 34.541 40.046 60.143 77.49 60.143a79.9 79.9 0 0 0 69.064-39.495V26.457A79.92 79.92 0 0 0 122.222.279"/>
        <path id="al" d="M33.623.28C17.339 11.087 5.283 27.681.433 47.104v38.3c8.624 34.541 40.046 60.143 77.49 60.143a79.9 79.9 0 0 0 69.064-39.495V26.457A79.92 79.92 0 0 0 122.222.279"/>
        <path id="an" d="M33.623.28C17.339 11.087 5.283 27.681.433 47.104v38.3c8.624 34.541 40.046 60.143 77.49 60.143a79.9 79.9 0 0 0 69.064-39.495V26.457A79.92 79.92 0 0 0 122.222.279"/>
        <path id="ap" d="M33.623.28C17.339 11.087 5.283 27.681.433 47.104v38.3c8.624 34.541 40.046 60.143 77.49 60.143a79.9 79.9 0 0 0 69.064-39.495V26.457A79.92 79.92 0 0 0 122.222.279h-88.6z"/>
        <path id="ar" d="M33.623.28C17.339 11.087 5.283 27.681.433 47.104v38.3c8.624 34.541 40.046 60.143 77.49 60.143a79.9 79.9 0 0 0 69.064-39.495V26.457A79.92 79.92 0 0 0 122.222.279"/>
        <path id="at" d="M33.623.28C17.339 11.087 5.283 27.681.433 47.104v38.3c8.624 34.541 40.046 60.143 77.49 60.143a79.9 79.9 0 0 0 69.064-39.495V26.457A79.92 79.92 0 0 0 122.222.279"/>
        <path id="av" d="M33.623.28C17.339 11.087 5.283 27.681.433 47.104v38.3c8.624 34.541 40.046 60.143 77.49 60.143a79.9 79.9 0 0 0 69.064-39.495V26.457A79.92 79.92 0 0 0 122.222.279"/>
        <path id="ax" d="M33.623.28C17.339 11.087 5.283 27.681.433 47.104v38.3c8.624 34.541 40.046 60.143 77.49 60.143a79.9 79.9 0 0 0 69.064-39.495V26.457A79.92 79.92 0 0 0 122.222.279h-88.6z"/>
        <path id="az" d="M80.1 159.062c44.09 0 79.832-35.5 79.832-79.293C159.932 35.976 124.19.475 80.1.475 36.009.475.267 35.975.267 79.77c0 43.792 35.742 79.293 79.833 79.293z"/>
    </defs>
    <g fill="none" fill-rule="evenodd" filter="url(#a)" transform="translate(-87 -35)">
        <g transform="translate(95 40.34)">
            <mask id="c" fill="#fff">
                <use xlink:href="#b"/>
            </mask>
            <path fill="#FAB431" d="M-9.179 179.737H179.76V-14.935H-9.18z" mask="url(#c)"/>
        </g>
        <g transform="translate(97.177 53.854)">
            <mask id="e" fill="#fff">
                <use xlink:href="#d"/>
            </mask>
            <path fill="#FFF" d="M116.692 54.599c2.436-.916 4.792-2.031 7.228-2.947.896-.337 1.276 1.085.392 1.417-2.437.917-4.792 2.03-7.23 2.948-.894.336-1.274-1.086-.39-1.418" mask="url(#e)"/>
            <mask id="g" fill="#fff">
                <use xlink:href="#f"/>
            </mask>
            <path fill="#FFF" d="M124.167 52.213a.324.324 0 0 0-.03.009c-1.206.453-2.418.967-3.59 1.465-1.184.5-2.408 1.02-3.638 1.482-.052.02-.09.047-.102.118-.012.07.01.139.03.169a.278.278 0 0 0 .029-.01c1.206-.453 2.418-.968 3.592-1.464 1.183-.501 2.406-1.02 3.636-1.482.053-.02.09-.048.102-.119a.256.256 0 0 0-.029-.168m-7.348 4.464c-.274 0-.533-.09-.75-.266-.37-.3-.556-.818-.474-1.318.08-.49.41-.887.88-1.064a94.574 94.574 0 0 0 3.59-1.464c1.184-.502 2.408-1.02 3.638-1.483.442-.166.89-.102 1.23.174.371.302.558.82.475 1.32-.08.49-.41.887-.88 1.064-1.206.453-2.417.967-3.59 1.463a96.364 96.364 0 0 1-3.638 1.484c-.161.06-.323.09-.481.09" mask="url(#g)"/>
            <mask id="i" fill="#fff">
                <use xlink:href="#h"/>
            </mask>
            <path fill="#FFF" d="M111.207 48.457c1.625-1.638 3.514-3.006 5.415-4.31.787-.54 1.546.724.765 1.259-1.8 1.234-3.579 2.524-5.12 4.075-.67.675-1.731-.349-1.06-1.024" mask="url(#i)"/>
            <mask id="k" fill="#fff">
                <use xlink:href="#j"/>
            </mask>
            <path fill="#FFF" d="M117.007 44.625c.003.001-.012.008-.036.024-2.108 1.445-3.82 2.718-5.327 4.236-.044.043-.04.058-.036.072.016.055.081.117.14.133.018.005.036.009.082-.037 1.588-1.598 3.442-2.938 5.21-4.148.052-.037.068-.069.06-.126-.012-.084-.07-.145-.093-.154m-5.237 5.687c-.11 0-.22-.014-.332-.043a1.438 1.438 0 0 1-1.013-.988c-.124-.45 0-.906.345-1.252 1.667-1.68 3.63-3.1 5.503-4.384.613-.42 1.368-.279 1.795.337.393.565.377 1.44-.332 1.926-1.717 1.176-3.515 2.475-5.032 4-.262.265-.59.404-.934.404" mask="url(#k)"/>
            <mask id="m" fill="#fff">
                <use xlink:href="#l"/>
            </mask>
            <path fill="#FFF" d="M103.197 42.815a27.678 27.678 0 0 0 3.332-4.789c.457-.832 1.67.012 1.217.836a27.716 27.716 0 0 1-3.331 4.789c-.616.711-1.84-.117-1.218-.836" mask="url(#m)"/>
            <mask id="o" fill="#fff">
                <use xlink:href="#n"/>
            </mask>
            <path fill="#FFF" d="M103.648 43.231a.257.257 0 0 0 .15.08c.073.012.114-.014.152-.057a27.174 27.174 0 0 0 3.257-4.685c.028-.049.039-.095.001-.16a.258.258 0 0 0-.128-.111l-.013.02a28.325 28.325 0 0 1-3.405 4.895.212.212 0 0 0-.014.018m.189 1.302c-.357 0-.706-.133-.969-.357-.551-.472-.61-1.21-.137-1.757a27.155 27.155 0 0 0 3.259-4.685c.348-.633 1.066-.841 1.705-.494.622.336 1.012 1.145.59 1.914a28.44 28.44 0 0 1-3.404 4.894 1.36 1.36 0 0 1-1.044.485" mask="url(#o)"/>
            <mask id="q" fill="#fff">
                <use xlink:href="#p"/>
            </mask>
            <path fill="#725048" d="M19.756 96.455l-.098-7.488c-.029-2.26-.033-4.621 1.173-6.689 1.179-2.02 3.71-4.983 5.55-6.63 2.363-2.111 3.89-3.112 5.145-5.792.396-.848 1.067-1.906 2.119-1.8.53.053.925.414 1.203.79 1.304 1.77.893 4.194-.364 6.086-1.257 1.89-3.232 3.372-5.153 4.824-.932.706-2.58 4.38-2.502 5.349.328 4.099-.624 8.315-2.736 12.112" mask="url(#q)"/>
            <mask id="s" fill="#fff">
                <use xlink:href="#r"/>
            </mask>
            <path fill="#725048" d="M40.949 77.704c-1.176-2.325-6.528 3.242-10.508 3.795-2.855.398-7.273 7.179-9.138 9.4-1.865 2.22-2.22 5.672-2.708 8.505-1.134 6.583-.93 13.592-3.338 19.906-1.154 3.026-30.589 47.683-26.912 48.823 3.177.985 16.679.936 19.617 2.707 1.784 1.076 2.682 2.258 4.203.344.979-1.231 19.296-45.508 20.07-46.866.953-1.669 1.745-3.025 3.081-4.444 3.303-3.51 6.025-8.072 6.916-12.754.917-4.814.486-7.648-3.83-11.704-2.635-2.477 4.173-14.497 2.547-17.712" mask="url(#s)"/>
            <mask id="u" fill="#fff">
                <use xlink:href="#t"/>
            </mask>
            <path fill="#62342D" d="M23.163 89.494l4.781-5.778c.416-.503-.305-1.229-.725-.721l-4.781 5.778c-.417.503.305 1.228.725.721" mask="url(#u)"/>
            <mask id="w" fill="#fff">
                <use xlink:href="#v"/>
            </mask>
            <path fill="#62342D" d="M27.057 90.864c2.358-2.15 4.314-4.45 5.517-7.42 1.091-2.695 4.312-2.723 6.067-4.792.423-.5-.3-1.223-.726-.721-1.605 1.893-4.593 2.007-5.884 4.249-.381.66-.582 1.411-.912 2.096a13.815 13.815 0 0 1-1.228 2.041c-1.02 1.418-2.272 2.652-3.56 3.827-.488.444.24 1.163.726.72" mask="url(#w)"/>
            <mask id="y" fill="#fff">
                <use xlink:href="#x"/>
            </mask>
            <path fill="#62342D" d="M32.72 92.803a51.667 51.667 0 0 1 2.105-6.251c.787-1.908 1.585-4.146 3.235-5.49.511-.416-.219-1.134-.725-.721-1.645 1.34-2.452 3.461-3.256 5.356a52.685 52.685 0 0 0-2.349 6.835c-.171.635.819.905.99.27" mask="url(#y)"/>
            <mask id="A" fill="#fff">
                <use xlink:href="#z"/>
            </mask>
            <path fill="#80615A" d="M29.816 72.618s-.493 2.031.987.7c1.481-1.33 3.144-4.361 2.841-5.263-.302-.9-3.828 4.563-3.828 4.563" mask="url(#A)"/>
            <mask id="C" fill="#fff">
                <use xlink:href="#B"/>
            </mask>
            <path fill="#725048" d="M119.291 97.503c.428-2.566.861-3.46 3.468-2.294 2.628 1.176 5.607 1.66 8.052 3.23 2.444 1.57 3.816 4.763 5.129 7.324 3.052 5.952 4.36 14.582 8.548 19.902 2.006 2.548 44.055 34.631 40.886 36.804-2.74 1.878-15.647 5.813-17.923 8.371-1.382 1.554-1.886 2.949-3.911 1.569-1.303-.887-32.031-37.764-33.177-38.832-1.408-1.313-2.57-2.374-4.27-3.336-4.204-2.378-5.284-8.947-7.535-13.155-2.315-4.327-5.701-6.33-2.793-11.477 1.775-3.142 2.934-4.556 3.526-8.106" mask="url(#C)"/>
            <mask id="E" fill="#fff">
                <use xlink:href="#D"/>
            </mask>
            <path fill="#C2796C" d="M83.185 43.231c-.145.06-.582.243.053-.022l-.053.022" mask="url(#E)"/>
            <mask id="G" fill="#fff">
                <use xlink:href="#F"/>
            </mask>
            <path fill="#6FBBBB" d="M86.778 37.957c.014.005.033.009.046.013l-.087-.092c.017.025.03.051.041.08" mask="url(#G)"/>
            <mask id="I" fill="#fff">
                <use xlink:href="#H"/>
            </mask>
            <path fill="#6FBBBB" d="M86.66 37.796l.077.083a.294.294 0 0 0-.077-.083" mask="url(#I)"/>
            <g>
                <mask id="K" fill="#fff">
                    <use xlink:href="#J"/>
                </mask>
                <path fill="#141819" d="M80.444 37.977l-.03-.02.03.02z" mask="url(#K)"/>
            </g>
            <g>
                <mask id="M" fill="#fff">
                    <use xlink:href="#L"/>
                </mask>
                <path fill="#141819" d="M80.506 38.02" mask="url(#M)"/>
            </g>
            <g>
                <mask id="O" fill="#fff">
                    <use xlink:href="#N"/>
                </mask>
                <path fill="#141819" d="M80.414 37.957" mask="url(#O)"/>
            </g>
            <g>
                <mask id="Q" fill="#fff">
                    <use xlink:href="#P"/>
                </mask>
                <path fill="#595959" d="M114.702 57.262c-4.2-1.349-9.242-1.284-15.027-1.28-5.914.005-13.686-.04-19.594-.076-5.712-.036-11.779-.087-17.491-.072-5.085.014-13.69-.058-18.034 1.191-3.872 1.115-5.86 3.619-6.5 5.532-1.296 3.872-.106 7.797-.01 11.686.116 4.792-.083 9.235-.23 14.027-.109 3.566-.109 8.266.198 11.83.259 3.018-.236 5.271.088 8.287.234 2.179-1.074 4.949 3.852 6.603 3.08 1.035 8.011 1.41 11.769 1.54 5.959.209 11.942-.001 17.91.057 6.96.07 13.896-.067 20.841-.257 6.1-.165 13.57.432 19.315-.453 6.522-1.006 8.367-3.71 8.57-6.76.78-11.602-.704-23.295.406-34.822.306-3.18-.424-6.508-.792-9.742-.307-2.7.557-5.419-5.27-7.29" mask="url(#Q)"/>
            </g>
            <g>
                <mask id="S" fill="#fff">
                    <use xlink:href="#R"/>
                </mask>
                <path fill="#000" d="M104.983 57.74c-11.92.002-43.853-.12-53.381-.118-12.613.003-12.132 6.644-12.295 8.478-.06.666-.039 18.279-.019 31.055.012 7.197.023 12.86.02 13.094-.055 5.452 6.428 6.36 14.91 6.359l45.633-.01c19.077-.003 19.013-2.246 19.008-7.145-.002-1.577.122-10.06.245-19.072.124-9.068.249-18.672.245-22.32 0-.488.043-.985.087-1.48.303-3.47.42-8.845-14.453-8.841" mask="url(#S)"/>
            </g>
            <g>
                <mask id="U" fill="#fff">
                    <use xlink:href="#T"/>
                </mask>
                <path fill="#FFF" d="M115.342 106.804l.044-6.32.071-10.814h-.009l.027-4.319c.014-2.35.186-14.585.2-16.935.008-1.222-.013-1.46.006-2.682.053-3.362-4.66-3.714-9.594-3.749-5.878-.04-8.541-.066-14.42-.109-8.604-.063-17.208-.126-25.812-.185-3.997-.028-7.396-.063-11.395-.089-3.5-.023-10.572.108-10.616 2.897-.03 1.89-.251 16.772-.283 18.663-.031 2.002-.068 4.002-.1 6.003h-.002c-.06 3.615-.208 12.258-.217 12.864-.019 1.177-.034 2.208-.068 3.697-.028 1.252-.804 4.109 11.654 4.197 4.972.035 46.6.283 50.71.325 9.726.098 9.798-2.737 9.804-3.444" mask="url(#U)"/>
            </g>
            <g>
                <mask id="W" fill="#fff">
                    <use xlink:href="#V"/>
                </mask>
                <path fill="#9DAAC0" d="M54.098 108.898l-.01.016c0 .002.003-.004.01-.016" mask="url(#W)"/>
            </g>
            <g>
                <mask id="Y" fill="#fff">
                    <use xlink:href="#X"/>
                </mask>
                <path fill="#233143" d="M42.082 85.49l.058.062c-.02-.02-.038-.042-.057-.063z" mask="url(#Y)"/>
            </g>
            <g>
                <mask id="aa" fill="#fff">
                    <use xlink:href="#Z"/>
                </mask>
                <path fill="#233143" d="M42.376 85.303l.001-.016-.005.015.004.001z" mask="url(#aa)"/>
            </g>
            <g>
                <mask id="ac" fill="#fff">
                    <use xlink:href="#ab"/>
                </mask>
                <path fill="#233143" d="M73.74 84.929l.002-.017-.006.015.004.002z" mask="url(#ac)"/>
            </g>
            <g>
                <mask id="ae" fill="#fff">
                    <use xlink:href="#ad"/>
                </mask>
                <path fill="#725048" d="M43.036 91.189c-4.075 2.914-3.32 9.043-9.158 10.479-1.037.254-2.6-.033-3.614-.323-1.22-.349-1.721-1.437-2.48-2.349.31.373-.23 2.708-.292 3.225-.102.875-.255 1.686-.62 2.493-.676 1.494-1.18 2.622-1.102 4.33.15 3.213 1.53 7.064 4.476 8.748 4.356 2.49 7.752-.057 9.807-3.989.47-.898.767-1.843.99-2.807.485-2.092.653-4.306 1.267-6.356.941-3.142 1.789-6.886 3.315-9.769 1.993-3.762-.009-5.528-2.59-3.682" mask="url(#ae)"/>
            </g>
            <g>
                <mask id="ag" fill="#fff">
                    <use xlink:href="#af"/>
                </mask>
                <path fill="#725048" d="M109.267 102.371c4.762 1.582 6.981 8.758 12.986 8.407 1.066-.063 2.243.111 3.125-.465 1.06-.692 1.213-1.879 1.666-2.974-.185.448 1.03 2.518 1.242 2.994.36.806.747 1.534 1.338 2.198 1.092 1.226 1.91 2.155 2.346 3.81.818 3.11 6.486 11.212 4.176 13.689-3.415 3.662-10.623 1.067-13.76-2.083-.717-.72-3.915-4.384-4.416-5.24-1.089-1.853-2.435-5.127-3.512-6.979-2.447-4.206-8.068-9.417-9.66-11.404-1.101-1.376 1.453-2.954 4.469-1.953" mask="url(#ag)"/>
            </g>
            <g>
                <mask id="ai" fill="#fff">
                    <use xlink:href="#ah"/>
                </mask>
                <path fill="#80615A" d="M105.692 102.889c1.606.737 3.208 1.717 4.05 3.263.182.331.327.699.305 1.075-.023.378-.25.762-.613.874-.376.116-.774-.075-1.111-.277a12.166 12.166 0 0 1-3.774-3.547c-.21-.309-.408-.724-.194-1.031.187-.27.578-.281.908-.265" mask="url(#ai)"/>
            </g>
            <g>
                <mask id="ak" fill="#fff">
                    <use xlink:href="#aj"/>
                </mask>
                <path fill="#80615A" d="M46.253 92.824l-.42 1.012c-.23.563-.47 1.135-.852 1.61-.383.474-.938.846-1.55.869-.613.022-1.254-.386-1.362-.984-.083-.455.137-.905.36-1.311.534-.977 1.016-1.842 1.66-2.752.256-.363.635-.806.992-1.072a.916.916 0 0 1 .568-.202c.45.013.797.401.899.617.185.394-.163 1.871-.295 2.213" mask="url(#ak)"/>
            </g>
            <g>
                <mask id="am" fill="#fff">
                    <use xlink:href="#al"/>
                </mask>
                <path fill="#595959" d="M56.555 56.867h9.31c1.592 0 1.594-2.455 0-2.455h-9.31c-1.59 0-1.594 2.455 0 2.455" mask="url(#am)"/>
            </g>
            <g>
                <mask id="ao" fill="#fff">
                    <use xlink:href="#an"/>
                </mask>
                <path fill="#595959" d="M80.208 114.903c1.59 0 1.594-2.455 0-2.455-1.591 0-1.594 2.455 0 2.455" mask="url(#ao)"/>
            </g>
            <g>
                <mask id="aq" fill="#fff">
                    <use xlink:href="#ap"/>
                </mask>
                <path fill="#FF7900" d="M72.795 33.702c.857.933 1.974 1.366 3.347 1.304.956-.044 1.811-.258 2.566-.647a6.576 6.576 0 0 0 1.932-1.487 6.26 6.26 0 0 0 1.214-2.076 6.235 6.235 0 0 0 .357-2.408c-.069-1.449-.57-2.603-1.51-3.473-.936-.867-2.154-1.267-3.652-1.198a5.09 5.09 0 0 0-2.314.669c-.71.408-1.312.92-1.803 1.544a7.245 7.245 0 0 0-1.153 2.102c-.276.78-.398 1.54-.363 2.285.062 1.325.523 2.451 1.379 3.385zm15.354-2.733c-.062.46-.13.98-.207 1.565-.077.582-.11 1.02-.096 1.307.044.91.417 1.349 1.126 1.315.54-.026 1.115-.237 1.722-.64.606-.398 1.172-.994 1.698-1.787.525-.789.947-1.813 1.264-3.07.315-1.258.433-2.756.351-4.49-.104-2.233-.603-4.186-1.495-5.865a12.118 12.118 0 0 0-3.638-4.18c-1.533-1.108-3.323-1.928-5.37-2.454-2.05-.525-4.257-.734-6.628-.625-2.622.123-4.974.656-7.056 1.6-2.082.948-3.834 2.229-5.261 3.851-1.425 1.619-2.493 3.5-3.206 5.645-.712 2.146-1.009 4.498-.889 7.062.127 2.687.688 5.075 1.683 7.162.993 2.087 2.339 3.837 4.032 5.247 1.692 1.414 3.68 2.463 5.963 3.143 2.285.68 4.759.958 7.421.835 2.373-.112 4.551-.532 6.539-1.265 1.988-.736 3.748-1.716 5.275-2.948l6.864-.318c-2.1 3.203-4.77 5.638-8.007 7.298-3.237 1.662-7.373 2.611-12.408 2.844-3.205.15-6.239-.29-9.1-1.317-2.865-1.027-5.397-2.525-7.594-4.495-2.2-1.968-3.968-4.32-5.306-7.055-1.337-2.734-2.081-5.69-2.229-8.874-.151-3.181.312-6.197 1.387-9.043 1.075-2.846 2.616-5.36 4.618-7.547 2.004-2.18 4.382-3.94 7.134-5.267 2.753-1.33 5.73-2.07 8.936-2.218 3.08-.143 6.033.156 8.862.892 2.827.74 5.343 1.868 7.54 3.38a18.536 18.536 0 0 1 5.363 5.653c1.378 2.257 2.135 4.81 2.269 7.66.123 2.606-.287 4.977-1.23 7.11-.943 2.137-2.159 3.956-3.652 5.452-1.495 1.499-3.159 2.675-4.995 3.525-1.838.852-3.589 1.317-5.254 1.393-.955.046-1.78-.156-2.466-.6-.69-.443-1.116-1.098-1.281-1.959l-.25.011c-.67.86-1.563 1.564-2.685 2.11-1.121.55-2.39.86-3.802.925a9.189 9.189 0 0 1-3.753-.605 9.417 9.417 0 0 1-3.223-2.055c-.939-.908-1.7-2.005-2.28-3.281-.582-1.278-.91-2.722-.986-4.334a15.613 15.613 0 0 1 .656-5.31 14.677 14.677 0 0 1 2.346-4.644 12.383 12.383 0 0 1 3.846-3.35c1.525-.856 3.243-1.33 5.157-1.419 1.582-.072 3.043.163 4.381.697 1.339.54 2.56 1.447 3.661 2.72l.393-2.318 5.743-.266-1.883 13.197z" mask="url(#aq)"/>
            </g>
            <g>
                <mask id="as" fill="#fff">
                    <use xlink:href="#ar"/>
                </mask>
                <path fill="#50BE87" d="M50.92 65.625a2.039 2.039 0 0 1-2.045 2.032c-1.13 0-2.046-.91-2.046-2.032 0-1.122.916-2.032 2.046-2.032s2.046.91 2.046 2.032" mask="url(#as)"/>
            </g>
            <g>
                <mask id="au" fill="#fff">
                    <use xlink:href="#at"/>
                </mask>
                <path fill="#FFB400" d="M56.649 65.625a2.04 2.04 0 0 1-2.046 2.032 2.04 2.04 0 0 1-2.046-2.032 2.04 2.04 0 0 1 2.046-2.032c1.13 0 2.046.91 2.046 2.032" mask="url(#au)"/>
            </g>
            <g>
                <mask id="aw" fill="#fff">
                    <use xlink:href="#av"/>
                </mask>
                <path fill="#FF7900" d="M62.376 65.625a2.039 2.039 0 0 1-2.045 2.032c-1.13 0-2.046-.91-2.046-2.032 0-1.122.916-2.032 2.046-2.032s2.045.91 2.045 2.032" mask="url(#aw)"/>
            </g>
            <mask id="ay" fill="#fff">
                <use xlink:href="#ax"/>
            </mask>
            <path fill="#D6D6D6" d="M61.068 91.958h35.594V74.402H61.068zM61.558 98.755a.917.917 0 0 1-.92-.908.917.917 0 0 1 .914-.92l34.613-.244h.007c.504 0 .916.405.92.908a.917.917 0 0 1-.914.92l-34.613.244h-.007M61.558 104.088a.917.917 0 0 1-.92-.888.917.917 0 0 1 .894-.94l34.613-.975a.918.918 0 0 1 .946.888.916.916 0 0 1-.894.94l-34.612.974h-.027" mask="url(#ay)"/>
            <path fill="#FFF" d="M47.113 46.46c-.85-2.924-2.43-5.541-4.1-8.068-.523-.792.695-1.627 1.22-.835 1.734 2.625 3.39 5.37 4.274 8.406.264.908-1.13 1.407-1.394.497" mask="url(#ay)"/>
            <path fill="#FFF" d="M43.67 37.847h-.003a.22.22 0 0 0-.158.11c-.01.021-.021.042.018.101 1.91 2.89 3.352 5.397 4.176 8.233a.145.145 0 0 0 .02.046.277.277 0 0 0 .162-.067c.042-.04.05-.075.032-.138-.812-2.796-2.266-5.316-4.198-8.24-.027-.04-.04-.045-.049-.045m4.063 9.705c-.106 0-.21-.013-.313-.038-.438-.107-.764-.43-.897-.886-.78-2.688-2.173-5.103-4.022-7.901a1.283 1.283 0 0 1-.088-1.318c.225-.445.69-.75 1.184-.778a1.27 1.27 0 0 1 1.148.592c1.725 2.61 3.446 5.455 4.351 8.571.14.48.023.96-.32 1.314a1.47 1.47 0 0 1-1.043.444M39.08 51.861c-1.416-2.483-3.486-4.556-4.72-7.145-.405-.853.885-1.573 1.294-.715 1.234 2.59 3.303 4.662 4.72 7.145.471.826-.823 1.54-1.293.715" mask="url(#ay)"/>
            <path fill="#FFF" d="M35.072 44.219a.276.276 0 0 0-.146.093c-.036.048-.038.084-.01.143.666 1.399 1.575 2.628 2.54 3.93.746 1.01 1.518 2.053 2.16 3.176.032.057.05.05.07.057.061 0 .14-.043.17-.093.006-.012.014-.025-.016-.078-.605-1.061-1.356-2.076-2.082-3.057-.955-1.29-1.943-2.625-2.659-4.128-.016-.033-.027-.043-.027-.043m4.614 8.618h-.01a1.288 1.288 0 0 1-1.129-.676c-.605-1.06-1.355-2.073-2.08-3.053-.956-1.292-1.945-2.627-2.66-4.132-.37-.775.058-1.543.685-1.838.677-.317 1.4-.064 1.717.602.666 1.398 1.575 2.627 2.538 3.928.747 1.01 1.52 2.054 2.161 3.178.241.422.243.895.005 1.297-.25.422-.73.694-1.227.694M29.057 58.376c-.73-.599.13-1.797.868-1.191.891.731 1.69 1.565 2.636 2.231.779.548-.087 1.741-.866 1.192-.948-.666-1.745-1.5-2.638-2.232" mask="url(#ay)"/>
            <path fill="#FFF" d="M29.448 57.907c.353.289.692.594 1.02.889.528.476 1.027.925 1.581 1.315.054.038.073.03.09.022a.218.218 0 0 0 .114-.156c.001-.014.003-.029-.046-.063-.616-.433-1.168-.93-1.701-1.41a28.5 28.5 0 0 0-.972-.85.141.141 0 0 0-.043-.027.273.273 0 0 0-.093.148c-.013.057 0 .09.05.132m2.665 3.453c-.268 0-.534-.086-.773-.254-.615-.432-1.165-.928-1.698-1.407-.317-.286-.644-.581-.976-.852-.664-.546-.605-1.421-.164-1.952.478-.574 1.24-.65 1.814-.18.35.288.688.592 1.015.886.53.476 1.03.927 1.585 1.318.398.28.602.707.559 1.17a1.433 1.433 0 0 1-.823 1.151c-.175.08-.358.12-.54.12" mask="url(#ay)"/>
            <g mask="url(#ay)">
                <g transform="translate(-2.177 -13.514)">
                    <mask id="aA" fill="#fff">
                        <use xlink:href="#az"/>
                    </mask>
                    <path fill="#FF7900" d="M83.664 83.926L86.535 71.6c.094-.573-.242-1.107-.705-1.12l-13.218-.382c-.46-.013-.826.495-.77 1.069l2.167 12.487c.056.574-.31 1.082-.77 1.07l-2.336-.068c-.647-.02-1.017.935-.603 1.554l7.517 11.21c.282.421.795.44 1.106.043l8.397-10.752c.46-.59.15-1.577-.503-1.596l-2.448-.07c-.463-.014-.8-.548-.705-1.12" mask="url(#aA)"/>
                </g>
            </g>
        </g>
        <g transform="translate(215 51)">
            <circle cx="20" cy="20" r="20" fill="#32C832"/>
            <path fill="#FFF" fill-rule="nonzero" d="M11.76 16.202L8 19.963l9.303 9.303a1 1 0 0 0 1.44-.026l14.505-15.621L29.35 10 17.895 22.337l-6.134-6.135z"/>
        </g>
    </g>
</svg>
