<svg xmlns="http://www.w3.org/2000/svg" xmlns:xlink="http://www.w3.org/1999/xlink" width="375" height="70" viewBox="0 0 375 70">
    <defs>
        <path id="prefix__a" d="M0 0H375V70H0z"/>
        <path id="prefix__c" d="M0.263 0.198L8.028 0.198 8.028 7.754 0.263 7.754z"/>
        <path id="prefix__e" d="M13.633.047L.108 2.25l2.729 5.466 13.05-2.126 3.57 21.916 3.84 7.69-5.103-31.327c-.364-2.236-2.11-3.866-4.02-3.866-.18 0-.36.015-.54.044"/>
        <path id="prefix__h" d="M0 0.232L30.607 0.232 30.607 59.306 0 59.306z"/>
        <linearGradient id="prefix__f" x1="40.682%" x2="72.6%" y1="-.304%" y2="69.461%">
            <stop offset="0%" stop-color="#515151"/>
            <stop offset="100%" stop-color="#101010"/>
        </linearGradient>
    </defs>
    <g fill="none" fill-rule="evenodd">
        <mask id="prefix__b" fill="#fff">
            <use xlink:href="#prefix__a"/>
        </mask>
        <use fill="#B5E8F7" xlink:href="#prefix__a"/>
        <path stroke="#FFF" stroke-dasharray="0 5" stroke-linecap="round" stroke-linejoin="round" stroke-width="2" d="M-14 10c31.333 38.667 58.333 46.667 81 24 10.667-24.667 33.333-27 68-7 52 30 77 38 113 11s70-51 88-19c12 21.333 27.667 28.333 47 21" mask="url(#prefix__b)"/>
        <g style="mix-blend-mode:overlay" mask="url(#prefix__b)">
            <g>
                <path stroke="#000" d="M302.395 24.448c-1.602-3.668-5.89-5.347-9.577-3.754l-.6.259-.261-.598c-1.602-3.666-5.891-5.347-9.577-3.754-3.687 1.594-5.377 5.858-3.775 9.523l.26.598L284.667 40l13.353-5.77.6-.259c3.688-1.593 5.377-5.856 3.775-9.523M140.179 50.995c-3.291-1.298-7.01.319-8.308 3.61l-.211.535-.537-.21c-3.291-1.298-7.012.319-8.309 3.61-1.296 3.291.32 7.01 3.61 8.308l.537.212 11.918 4.698 4.7-11.92.21-.535c1.298-3.291-.319-7.01-3.61-8.308" transform="translate(-1 -5)"/>
                <path stroke="#000" d="M348.613 58.28c-1.025-2.292-3.77-3.342-6.13-2.346l-.383.162-.168-.374c-1.025-2.291-3.77-3.342-6.13-2.346-2.358.996-3.44 3.66-2.415 5.952l.167.374L337.267 68l8.546-3.606.384-.162c2.36-.995 3.441-3.66 2.416-5.952M37.486 12.829c-2.743-1.082-5.843.266-6.925 3.01l-.176.445-.448-.176c-2.743-1.08-5.844.267-6.925 3.01-1.08 2.743.266 5.844 3.01 6.925l.446.177 9.935 3.916L40.32 20.2l.176-.446c1.082-2.743-.266-5.843-3.01-6.925" transform="translate(-1 -5)"/>
                <g>
                    <path stroke="#000" d="M.134 10.943L6.261 16.452 8.097 14.409 1.971 8.9zM4.38 7.42h0s-.723-2.355-.787-3.548c-.055-1.04-1.219-2.286-1.518-2.59-.039-.039-.04-.101-.002-.143.535-.594 1.452-.644 2.047-.108l2.43 2.186 1.918-2.133C9.1.382 10.18.324 10.882.955L14.99 4.65c.702.631.759 1.711.127 2.413L10.14 12.6c-.26.29-.705.313-.995.053L4.433 8.415c-.29-.26-.313-.705-.053-.994" transform="translate(-1 -5) rotate(30 -12.043 208.004)"/>
                </g>
                <g>
                    <path stroke="#000" d="M.397 18.218L11.169 26.972 14.397 23.726 3.626 14.972zM7.3 11.683h0S6.112 7.878 6.007 5.95c-.09-1.679-2.003-3.692-2.494-4.182-.064-.064-.065-.165-.004-.232.88-.96 2.385-1.04 3.363-.175l3.993 3.53 3.151-3.445C15.053.312 16.828.22 17.981 1.24l6.75 5.968c1.153 1.02 1.247 2.765.21 3.899l-8.179 8.943c-.426.468-1.159.506-1.634.086l-7.742-6.846c-.475-.42-.514-1.139-.086-1.606" transform="translate(-1 -5) rotate(60 -31.662 45.374)"/>
                </g>
                <g>
                    <path stroke="#000" d="M.027 14.538L8.491 21.834 11.027 19.129 2.565 11.834zM5.364 10.12h0S4.328 6.896 4.237 5.26c-.08-1.423-1.746-3.13-2.174-3.545-.056-.054-.056-.14-.004-.196.767-.815 2.08-.882 2.932-.15l3.48 2.994 2.747-2.921c.904-.961 2.451-1.04 3.457-.176l5.884 5.06c1.005.864 1.087 2.344.183 3.305l-7.13 7.582c-.371.396-1.01.429-1.424.072l-6.749-5.803c-.414-.356-.448-.966-.075-1.361" transform="translate(-1 -5) rotate(30 43.994 572.16)"/>
                </g>
                <g>
                    <path stroke="#000" d="M.34 16.245L10.342 25 13.34 21.754 3.338 13zM6.729 11.292h0S5.538 7.497 5.433 5.575c-.09-1.675-2.008-3.683-2.5-4.172-.064-.063-.065-.164-.004-.23C3.81.212 5.32.134 6.3.996l4.003 3.522 3.159-3.437c1.04-1.13 2.819-1.223 3.975-.207l6.767 5.953c1.156 1.017 1.25 2.757.21 3.888l-8.199 8.92c-.427.466-1.162.504-1.638.085l-7.761-6.827c-.476-.419-.516-1.136-.087-1.602" transform="translate(-1 -5) rotate(30 92.804 347.286)"/>
                </g>
            </g>
        </g>
        <g mask="url(#prefix__b)">
            <g>
                <path fill="#FF7900" stroke="#FFF" d="M43.112 33.337C37.76 44.64 24.26 49.463 12.958 44.111 1.656 38.761-3.168 25.261 2.184 13.958 7.534 2.655 21.034-2.168 32.338 3.183c11.3 5.351 16.126 18.852 10.774 30.154" transform="translate(164 27)"/>
                <path fill="#FFF" d="M20.585 12.985c-1.229-.582-2.703-.056-3.285 1.174l-5.5 11.617c-.582 1.229-.056 2.703 1.174 3.285l11.617 5.5c1.23.582 2.702.056 3.285-1.174l5.5-11.617c.582-1.23.056-2.702-1.174-3.285l-11.617-5.5zm2.774 24.178l-11.617-5.501c-2.664-1.261-3.804-4.454-2.544-7.118L14.7 12.927c1.261-2.664 4.454-3.804 7.118-2.544l11.617 5.5c2.664 1.262 3.804 4.456 2.544 7.119l-5.5 11.617c-1.262 2.664-4.456 3.804-7.119 2.544z" transform="translate(164 27)"/>
                <path fill="#FFF" d="M23.828 21.154c-1.444-.684-3.175-.065-3.858 1.38-.684 1.443-.065 3.174 1.38 3.857 1.442.684 3.173.065 3.857-1.379.684-1.443.065-3.174-1.379-3.858m-3.71 7.838c-2.879-1.362-4.112-4.813-2.749-7.69 1.362-2.879 4.813-4.112 7.691-2.749s4.111 4.813 2.748 7.691c-1.363 2.878-4.813 4.111-7.69 2.748M31.458 21.338c-.312.658-1.098.94-1.757.628-.658-.312-.939-1.099-.628-1.757.312-.659 1.099-.939 1.757-.628.659.312.94 1.098.628 1.757" transform="translate(164 27)"/>
            </g>
        </g>
        <g mask="url(#prefix__b)">
            <g>
                <path fill="#FF7900" stroke="#FFF" d="M29.415 9.294c3.633 7.715.325 16.915-7.39 20.55-7.715 3.634-16.915.325-20.55-7.39-3.634-7.715-.325-16.916 7.39-20.55 7.715-3.633 16.915-.325 20.55 7.39" transform="translate(113 6)"/>
                <path fill="#FFF" d="M16.917 4.955l1.527 3.278-3.088 1.47c-.768.367-1.099 1.295-.737 2.072l1.523 3.272 4.322-2.057 1.526 3.277-4.32 2.057 5.3 11.378-3.241 1.544-5.3-11.378-4 1.905-1.527-3.277 4-1.906-1.524-3.27c-1.204-2.585-.104-5.677 2.451-6.894l3.088-1.47z" transform="translate(113 6)"/>
            </g>
        </g>
        <g mask="url(#prefix__b)">
            <g>
                <path fill="#FF7900" stroke="#FFF" d="M41.97 35.233c-6.854 10.575-20.984 13.592-31.56 6.736C-.165 35.115-3.181 20.985 3.673 10.41 10.528-.165 24.657-3.18 35.232 3.672c10.576 6.855 13.592 20.985 6.738 31.56" transform="translate(227 15)"/>
                <path fill="#FFF" d="M10.412 15.477s1.163 5.45 6.648 5.483c5.486.034 8.096-4.536 13.444-4.288 6.75.312 8.01 9.905-1.446 13.78-12.036 4.93-20.58-2.504-18.646-14.975" transform="translate(227 15)"/>
                <path fill="#FFF" d="M33.446 24.447l4.237 2.747c.495.32.398.962-.146.974l-5.794.118 1.703-3.839zM26.418 20.886s-5.743-4.075-8.112-8.431c-.383-.703-1.407-.662-1.727.072-.914 2.09-1.823 5.735.44 9.489 3.478 5.777 9.4-1.13 9.4-1.13" transform="translate(227 15)"/>
            </g>
        </g>
        <g mask="url(#prefix__b)">
            <g>
                <g>
                    <path fill="#7D4D44" d="M38.911 26.573c-.282.851-.023 2.037.573 2.635 0 0 1.894 1.894 5.659-.894 3.767-2.788 2.23-5.526 1.415-5.6l-4.694-.427c-.813-.075-1.711.56-1.997 1.412l-.956 2.874z" transform="rotate(-10 80.176 -163.966) translate(3.433 .309)"/>
                    <g transform="rotate(-10 80.176 -163.966) translate(3.433 .309) translate(43.075 30.277)">
                        <mask id="prefix__d" fill="#fff">
                            <use xlink:href="#prefix__c"/>
                        </mask>
                        <path fill="#7D4D44" d="M.379 4.626C.095 5.477.352 6.662.95 7.26c0 0 1.578 1.58 4.949-.914C9.27 3.85 7.827 1.395 7.01 1.32L3.123.967C2.308.893 1.1-.358.817.493L.379 4.626z" mask="url(#prefix__d)"/>
                    </g>
                    <path fill="#7D4D44" d="M43.14 42.927c-.282.85-.026 2.036.573 2.634 0 0 1.252 1.252 4.207-.936 2.957-2.187 1.606-4.35.79-4.424l-3.042-.276c-.816-.074-1.715.56-1.997 1.413l-.53 1.589z" transform="rotate(-10 80.176 -163.966) translate(3.433 .309)"/>
                    <path fill="#623A33" d="M30.59 38.624s2.606 29.526-7.81 38.658c-6.83 5.988-5.37-5.968-5.37-5.968l-5.927-28.111 19.107-4.58z" transform="rotate(-10 80.176 -163.966) translate(3.433 .309)"/>
                    <path fill="#623A33" d="M3.915 74.52L.228 40.87C.004 38.6.67 35.084 1.707 33.053L5.822 18.38c1.037-2.03 4.648-3.92 6.51-5.235l4.005.408c1.864-1.314 3.57-.532 3.793 1.737l1.29 13.153c.221 2.268-.086 5.924-.684 8.124l-2.87 10.552c-.597 2.2-.963 5.862-.81 8.136l.532 7.951c.15 2.274-1.46 4.817-3.583 5.65l-10.09 5.666z" transform="rotate(-10 80.176 -163.966) translate(3.433 .309)"/>
                    <path fill="#101010" d="M47.68 50.756c.398 2.444-1.001 4.727-3.112 5.07l-22.83 3.718c-2.109.344-4.162-1.375-4.56-3.82L9.54 8.837c-.399-2.445 1.003-4.728 3.112-5.071L35.483.047c2.111-.344 4.162 1.376 4.56 3.822l7.637 46.887z" transform="rotate(-10 80.176 -163.966) translate(3.433 .309)"/>
                </g>
                <g transform="rotate(-10 80.176 -163.966) translate(25.283 .309)">
                    <mask id="prefix__g" fill="#fff">
                        <use xlink:href="#prefix__e"/>
                    </mask>
                    <path fill="url(#prefix__f)" d="M13.633.047L.108 2.25l2.729 5.466 13.05-2.126 3.57 21.916 3.84 7.69-5.103-31.327c-.364-2.236-2.11-3.866-4.02-3.866-.18 0-.36.015-.54.044" mask="url(#prefix__g)"/>
                </g>
                <g>
                    <path fill="#FFF" d="M48.38 47.358L22.918 51.505 15.708 7.24 41.17 3.093z" transform="rotate(-10 80.176 -163.966) translate(0 2.806)"/>
                    <path fill="#FF7900" d="M33.458 12.908c.045-.004.098-.012.14.006.013.005.093.082.06.096-.035.015-.094.01-.107.057-.006.023.011.047 0 .072-.007.018-.041.031-.043.051-.002.051.074.002.088.038.014.04-.103.096-.097.159.006.051.011.101.073.075.073-.03.113-.106.179-.147.02-.013.068-.017.082-.03.072-.066.186-.031.271-.056.077-.022.115-.116.09-.191-.013-.039-.028-.032-.068-.032-.084.002-.104-.025-.152-.086-.052-.068-.156-.09-.221-.144-.026-.022-.056-.054-.053-.09.002-.037.069-.1-.003-.117-.039-.01-.075.016-.113.016-.053 0-.024-.053-.062-.067-.03-.012-.093.02-.117.034-.039.022-.082.055-.1.097-.024.056.008.072.025.118.045.116.084-.016.128.141zM28.38 23.064c-.197-.16-.297-.412-.264-.665-.131.063-.278.086-.422.065.012.157.041.31.04.47-.002.208-.077.405-.122.606-.013.059-.032.134-.01.193.036.093.14.09.104.21-.027.087-.076.168-.114.25-.022.044-.04.093-.032.144.007.037.035.067.036.105.002.052-.039.094-.041.145-.003.063.042.134.075.185.142.212.638.522.903.394.097-.047.13-.22.107-.314-.034-.13-.1-.047-.196-.064-.176-.032.064-.426.034-.536-.013-.046-.057-.079-.067-.129-.026-.135.203-.41.31-.476.11-.069.182-.17.27-.258-.224-.065-.432-.176-.61-.325zm1.377-12.975c-4.637.734-7.8 5.089-7.066 9.725.735 4.637 5.089 7.8 9.725 7.066 4.637-.735 7.8-5.089 7.066-9.725-.734-4.637-5.088-7.8-9.725-7.066zm7.699 4.727c-.055-.01-.111-.013-.167-.007-.105.015-.185-.02-.287-.03-.078-.009-.172-.04-.25-.032-.1.01-.18.071-.19.172-.003.04 0 .088-.037.114-.063.043-.152-.01-.22-.012-.053.001-.107-.003-.16-.012-.024-.006-.046-.016-.066-.03-.016-.011-.039-.05-.055-.055-.084-.026-.173-.034-.26-.022-.08.009-.156.006-.229-.032-.118-.062.004-.109-.03-.198-.005-.013-.044-.046-.043-.056.013-.15-.14-.09-.246-.047-.204.053-.476.022-.641.132-.074.015-.147.037-.216.067.023.013.046.027.067.043l1.018.74c.7.51.927 1.452.538 2.226.007.003.012.008.018.013.093.085.047.29.07.4.035.173.09.25.21.374.192.196.426.394.426.69-.001.251-.217.447-.083.7.117.22.306.334.404.582.081.204.14.249.272.391.145.157.422.884.724.42.073-.038.142-.012.215-.007-.977 2.435-3.173 4.313-5.947 4.752-4.194.664-8.148-2.208-8.812-6.403-.077-.484-.107-.975-.09-1.466.107.06.222.034.345.076.033.044.058.036.118.032.122.028.248.08.373.06.154-.065.203-.136.326-.02.112.103.357.122.5.126.082.003.155-.013.228.03.064.04.108.108.164.157.114.099.226.165.379.178.103.008.211 0 .316.008l.173-.237c-.287-.001-.519-.173-.758-.312-.134-.077-.268-.152-.422-.178.003 0-.012-.394-.085-.44-.186-.113-.327.221-.456.298-.312.186-.547-.041-.627-.356-.186-.737.943-1.09 1.477-.798.054.03.259.25.314.223.09-.044-.024-.33-.03-.392-.018-.187-.019-.27.146-.406.093-.076.148-.179.182-.293.022-.074.028-.14.07-.196-.154-.205-.19-.477-.093-.715.097-.239.311-.41.565-.45l.553-.087-.035-.016-.038-.014c-.052-.02-.107-.031-.163-.032-.013 0-.025.004-.037.004-.006 0-.026 0-.018-.008.006-.004.013-.006.02-.007l.031-.01c.021-.008.043-.014.065-.019.076-.014.155-.005.233-.001.038.002.076.002.115 0 .02 0 .04-.004.059-.012.014-.006.055 0 .05-.013-.01-.013-.043-.02-.037-.042.004-.014.024-.024.035-.032.015-.01.03-.02.047-.027.072-.036.14-.076.216-.107.035-.014.072-.025.11-.032l.048-.005c.014 0 .039-.005.051.003.015.01.002.029-.004.04-.01.016-.018.033-.024.05-.019.051-.029.105-.028.16v.01l.567-.09c-.073-.056-.215-.084-.271-.158-.07-.091-.047-.225-.14-.31-.098-.09-.232-.068-.347-.114-.164-.066-.27-.227-.43-.298-.241-.108-.324.051-.558.07-.144.01-.24-.083-.36-.145-.268-.137-.586-.166-.86-.01-.033.02.173.438.183.463.12.284-.084.124-.17.319-.036.081.071.134.05.2-.09.282-.332-.111-.497-.181-.093-.04-.182-.035-.273-.036.24-.35.509-.68.803-.986.09-.009.203-.07.287-.072.215-.005.417.079.627.11.044.007.353-.016.325-.029-.057-.026-.285-.04-.124-.085.074.004.261.037.281-.042.089-.093.136-.098.266-.119.11-.106.218-.189.217-.337-.047-.074-.018-.14-.05-.203-.172-.017-.156-.104-.153-.213-.05-.048-.348-.1-.413-.07.195-.132.397-.254.606-.368.201.04.425.135.407.308.069 0 .145-.006.207-.041.013-.008.024-.031.041-.031.02 0 .032.03.042.043l.014.02.052-.018c.017-.004.034-.006.051-.006.032-.002.063.005.09.02.01.007.047.024.041.04-.005.012-.03.015-.041.017l-.038.008-.063.02c-.019.007-.038.012-.057.014-.027.023.07.011.103.022.027.008.058.007.083.018.045.02-.038.05-.05.058-.026.017-.05.036-.074.056-.031.024-.058.053-.079.086-.016.027-.025.057-.023.088.004.037.018.072.04.102.032.042.067.082.105.118l.015.014c.206.183.664.42.948.34.313-.086.223-.487.508-.649.285-.162.588-.291.894-.407.085-.035.167-.075.247-.118.114-.057.23-.106.35-.149.02-.007.042-.012.062-.018.007-.002.055-.019.032-.028-.017-.004-.035-.006-.053-.004h-.059c-.037.003-.073 0-.109-.008-.009-.003-.026-.003-.025-.015 0-.015.023-.016.034-.016.042-.004.084-.016.126-.022.044-.006.088-.015.131-.028.02-.006.042-.01.062-.018.01-.004.026-.003.023-.018-.006-.02-.019-.039-.036-.051-.008-.006-.019-.009-.026-.015-.012-.01-.008-.018-.003-.031.009-.02.015-.04.019-.06 0-.024 0-.047-.002-.07 0-.053.092-.077.128-.09.049-.02.13-.058.138-.118.01-.067-.063-.083-.072-.14-.007-.041.061-.054.088-.073.023-.017.048-.015.069-.05l-.004-.007c1.083.093 2.133.415 3.081.944-.202.148-.422.467.05.573.195.044.289-.297.501-.09.044.043.094.107.064.17-.018.04-.08.101-.129.077-.062-.029-.008-.167-.116-.167-.076.002-.144.048-.174.117-.038.088.106.182.067.268-.052.113-.232.06-.32.118-.18.115-.317.324-.508.45-.087.056-.2.065-.297.093-.064.018-.17.043-.196.113-.031.083.22.142.27.165.134.065.208.163.088.29-.15.157-.504-.045-.673.109-.008.007-.016.016-.022.026l.002.001c.195.164.293.418.256.67.136-.061.286-.08.433-.054l.005-.005c.026-.019.057-.03.077-.056.033-.043.007-.102.015-.151.009-.05.043-.082.071-.122.02-.027.031-.063.055-.086.039-.037.1-.036.145-.065.072-.048.013-.141.075-.198.043-.04.104-.03.157-.023.145.02.221-.077.351-.109.013-.003.032-.029.045-.037.04-.024.1-.037.142-.011.035.021.052.064.082.09.046.042.114.055.17.08.062.028.1.031.165.038.07.008.139.062.207.084.054.017.138.041.148.108.016.116-.183.116-.25.13-.024.005-.124.027-.128.054-.007.04.175.074.202.074.077.001.1-.057.144-.109.037-.044.09-.076.115-.13.02-.045-.015-.084-.016-.128-.001-.037.029-.042.035-.072.012-.057-.114-.085-.15-.093-.034-.006-.068-.01-.103-.012-.021 0-.068.009-.087 0-.07-.033-.09-.1-.16-.14-.24-.074-.08-.248.041-.135.157-.018.221.14.395.126.098.09.188.019.268.141.038.17.072.162.242.245.058.029.065.216.171.168.034-.015.068-.064.093-.091.014-.015.05-.04.057-.06.024-.06-.079-.049-.104-.08-.116-.144.1-.225.21-.237.106-.011.134.118.167.19.018.043.046.08.081.11.021.015.044.027.07.035.04.013.08.012.119.03.028.018.058.03.09.035.096.147.187.296.273.45h-.005c-.119.025-.217.116-.346.095zm-2.312 1.07l-1.017-.738-1.212 1.667-1.853 2.55-2.226 3.065c.08.059.433.202.905.172.5-.016 5.09-.763 5.09-.763l-1.782-1.295 2.155-2.966c.486-.67.404-1.354-.06-1.692zm-8.13 5.218l1.014.737 1.21-1.667 1.854-2.55 2.226-3.065c-.081-.058-.431-.201-.904-.172-.5.016-5.088.764-5.088.764l1.78 1.293-2.156 2.967c-.487.67-.4 1.355.063 1.693z" transform="rotate(-10 80.176 -163.966) translate(0 2.806)"/>
                    <g fill="#000" opacity=".1">
                        <path d="M17 2.325c-.032.011-.065.02-.1.027L1.995 5.52c-.464.098-.92-.2-1.02-.665-.097-.465.199-.92.664-1.02L16.544.666c.465-.099.921.199 1.02.664.091.431-.158.856-.564.994M17 7.215c-.032.011-.065.02-.1.028L1.995 10.41c-.464.098-.92-.199-1.02-.664-.098-.465.198-.923.664-1.021l14.906-3.168c.465-.098.921.199 1.02.664.091.432-.158.856-.564.994M18.874 11.164c-.032.01-.064.02-.098.027L4.061 14.322c-.459.098-.909-.196-1.006-.656-.097-.46.194-.913.654-1.01l14.715-3.131c.459-.098.91.196 1.007.656.09.426-.156.846-.557.983" transform="rotate(-10 80.176 -163.966) translate(0 2.806) translate(24.306 29.001)"/>
                    </g>
                    <path fill="#101010" d="M32.405.834c.063.386-.157.744-.491.798L24.809 2.79c-.334.054-.656-.215-.719-.601-.063-.388.156-.745.49-.8L31.687.232c.334-.054.656.215.719.602" transform="rotate(-10 80.176 -163.966) translate(0 2.806)"/>
                    <path fill="#000" d="M24.612 1.58c-.229.037-.377.296-.332.577.046.281.27.48.498.442l7.105-1.157c.228-.037.377-.296.331-.577-.045-.281-.269-.48-.497-.443L24.612 1.58zm7.333.243L24.839 2.98c-.437.071-.86-.27-.94-.76-.079-.492.213-.95.65-1.02L31.656.041c.438-.071.86.27.94.761.08.49-.212.948-.65 1.02z" transform="rotate(-10 80.176 -163.966) translate(0 2.806)"/>
                    <g transform="rotate(-10 80.176 -163.966) translate(0 2.806) translate(0 25.907)">
                        <mask id="prefix__i" fill="#fff">
                            <use xlink:href="#prefix__h"/>
                        </mask>
                        <path fill="#7D4D44" d="M30.445 2.2c-.003-.008-.008-.014-.011-.02-.05-.101-.106-.197-.176-.285-.016-.023-.038-.04-.057-.06-.06-.07-.12-.138-.19-.198-.043-.034-.093-.06-.138-.09-.056-.038-.109-.08-.168-.11-.077-.04-.162-.067-.246-.095-.039-.013-.074-.032-.114-.043-.127-.034-.262-.055-.403-.063l-2.34-.123c-.198-.01-.422-.028-.656-.048l-.102-.01c-.24-.022-.49-.047-.746-.077v.001c-.915-.105-1.897-.253-2.593-.4 0 0-3.756-.787-4.828.01-3.824 2.851-9.992 12.02-9.992 12.02-.637.944-1.277 2.643-1.423 3.773L3.48 37.974 0 49.456c3.628 8.468 9.68 11.25 17.788 9.21.734-1.746 1.414-3.322 1.898-4.347 1.346-2.848 4.368-3.172 6.08-4.972.169-.136.324-.288.447-.469 0 0 .822-1.204.675-8.379-.348-17.188-8.434-22.563-8.434-22.563-.95-.631-1.405-2.023-1.013-3.094l1.845-5.028c.392-1.07 1.646-1.983 2.783-2.029 0 0 4.636-.187 6.456-1.83 1.83-1.654 2.037-2.586 2.037-2.586.004-.016.003-.03.005-.046h.002l.003-.041c.022-.123.036-.243.035-.36l-.001-.006c-.004-.258-.059-.5-.161-.717" mask="url(#prefix__i)"/>
                    </g>
                    <path fill="#AF7D5D" d="M26.094 28.268c1.087.163 3.136-.04 3.136-.04s.829.095-.27-1.082l-.018-.002-2.34-.123c-.198-.01-.422-.029-.656-.05l-.102-.008c-.24-.022-.49-.048-.746-.078v.002l-.449-.057c.263.553.75 1.334 1.445 1.438" transform="rotate(-10 80.176 -163.966) translate(0 2.806)"/>
                </g>
            </g>
        </g>
        <g mask="url(#prefix__b)">
            <g>
                <path fill="#FF7900" stroke="#FFF" d="M18.3 46.79C5.8 44.108-2.162 31.802.52 19.3 3.2 6.8 15.509-1.162 28.009 1.52 40.508 4.2 48.47 16.506 45.79 29.01 43.11 41.51 30.8 49.47 18.3 46.79" transform="translate(307 -6)"/>
                <path fill="#FFF" d="M33.754 21.953L22.67 35.405c-.975 1.182-3.282.687-3.686-.79L14.39 17.8c-.327-1.198.898-2.184 2.331-1.877L32.4 19.285c1.432.307 2.145 1.71 1.355 2.668" transform="translate(307 -6)"/>
            </g>
        </g>
    </g>
</svg>
