<svg xmlns="http://www.w3.org/2000/svg" xmlns:xlink="http://www.w3.org/1999/xlink" width="81" height="81" viewBox="0 0 81 81">
    <defs>
        <circle id="a" cx="40.5" cy="40.5" r="40.5"/>
        <path id="c" d="M0 0h50v93H0z"/>
        <path id="e" d="M1 0h42v62H1z"/>
    </defs>
    <g fill="none" fill-rule="evenodd">
        <mask id="b" fill="#fff">
            <use xlink:href="#a"/>
        </mask>
        <use fill="#EEE" fill-rule="nonzero" xlink:href="#a"/>
        <g mask="url(#b)">
            <g transform="translate(-5 26)">
                <mask id="d" fill="#fff">
                    <use xlink:href="#c"/>
                </mask>
                <path fill="#714E46" d="M21.7 1.846c.3-1.21 5.014-5.915 9.725 6.865 4.709 12.782 2.939 14.043 3.58 19.311.64 5.269 14.884 12.323 14.884 12.323s.83.518-2.053 3.55c-2.879 3.034-5.88 7.055-10.652 17.134C32.155 71.656 20.492 93 20.492 93H0v-6.999s23.78-40.96 23.788-44.195c.006-3.236.489-6.116 1.368-14.66.545-5.29.815-4.785-.446-13.347C23.456 5.3 21.186 3.942 21.7 1.846" mask="url(#d)"/>
            </g>
            <g transform="translate(20 10)">
                <mask id="f" fill="#fff">
                    <use xlink:href="#e"/>
                </mask>
                <path fill="#000" d="M11.535 58.173c.584 2.652 3.26 4.312 5.968 3.7l21.536-4.854c2.71-.61 4.433-3.26 3.846-5.916L32.466 3.83C31.88 1.178 29.208-.483 26.498.126L4.964 4.98c-2.713.613-4.437 3.264-3.849 5.923l10.42 47.27z" mask="url(#f)"/>
            </g>
            <path fill="#707070" d="M48.94 63.955a2.506 2.506 0 0 1-1.901 2.985 2.497 2.497 0 0 1-2.978-1.898 2.498 2.498 0 0 1 1.891-2.981 2.505 2.505 0 0 1 2.988 1.894M38.99 15.42a.555.555 0 0 1-.4.65l-3.953.916c-.283.068-.559-.12-.626-.413-.057-.29.117-.58.398-.644l3.956-.915a.525.525 0 0 1 .624.406M32.988 16.39a.5.5 0 1 1-.976.219.5.5 0 0 1 .976-.218"/>
            <path fill="#714E46" d="M20.521 52.88c.446-4.13.446-7.94-.446-13.229-1.419-8.396-3.51-9.77-2.995-11.848.298-1.198 4.792-5.785 9.682 6.805 2.266 5.838 2.2 23.175 3.18 28.78.616 3.533-3.869.196-3.958-.07-.091-.267-5.463-10.439-5.463-10.439"/>
            <path fill="#FF7900" d="M58 56.548L48.662 15l-5.868 1.295-5.902 1.305L24 20.45 33.34 62l5.42-1.199 1.306-.287v.002z"/>
            <path fill="#FFF" d="M48.964 43.86a9.402 9.402 0 0 1-2.535 2.56 9.145 9.145 0 0 1-3.42 1.415 9.051 9.051 0 0 1-3.69-.051 9.201 9.201 0 0 1-3.27-1.443 9.382 9.382 0 0 1-2.502-2.593 9.562 9.562 0 0 1-1.385-3.497A9.837 9.837 0 0 1 32 38.493c.078.008.16.009.245.036.043.054.072.042.146.036.151.03.308.092.461.062.187-.089.244-.18.4-.038.141.125.443.142.62.142.1 0 .19-.023.28.029.08.046.138.132.209.191.143.12.283.198.472.21.127.007.26-.008.39 0l.203-.305c-.353.008-.644-.198-.944-.365-.166-.092-.334-.182-.525-.209.004 0-.027-.495-.12-.549-.232-.137-.394.29-.55.39-.377.245-.674-.032-.782-.424-.256-.921 1.12-1.405 1.788-1.058.067.034.326.305.393.27.11-.06-.04-.414-.05-.493-.03-.235-.033-.338.164-.515a.723.723 0 0 0 .214-.375c.024-.095.03-.179.08-.25a.94.94 0 0 1-.18-.757.915.915 0 0 1 .719-.724l.678-.13c-.015-.006-.03-.014-.045-.018l-.047-.016a.535.535 0 0 0-.201-.034c-.016 0-.031.006-.047.006-.007 0-.031 0-.022-.01.005-.006.02-.008.026-.01a.534.534 0 0 0 .037-.014c.026-.01.053-.019.079-.025.094-.021.19-.013.287-.01.046 0 .094 0 .14-.005a.219.219 0 0 0 .073-.015c.018-.01.067-.003.06-.02-.012-.017-.051-.024-.045-.05.004-.018.028-.033.041-.043.017-.014.037-.024.057-.035.087-.05.17-.102.261-.142a.686.686 0 0 1 .135-.045.395.395 0 0 1 .059-.007c.018-.001.047-.008.064.002.017.011.003.035-.004.049a.562.562 0 0 0-.057.266v.013l.694-.133c-.091-.068-.268-.1-.339-.19-.089-.112-.065-.28-.183-.385-.124-.11-.288-.077-.43-.13-.204-.077-.34-.275-.54-.36-.3-.127-.397.076-.683.107-.178.02-.298-.095-.447-.167a1.119 1.119 0 0 0-.877-.069c.086-.1.174-.199.265-.295l.014-.001c.265-.013.516.085.774.117.055.007.434-.033.4-.049-.073-.03-.353-.041-.158-.103.092.003.323.037.346-.062.105-.12.164-.129.323-.16.13-.136.26-.245.254-.43-.06-.092-.026-.176-.069-.256-.21-.013-.194-.124-.194-.26a.555.555 0 0 0-.204-.067l.05-.035c.204-.14.412-.268.624-.388.154.061.272.159.262.304a.483.483 0 0 0 .253-.06c.017-.01.029-.04.05-.04.026 0 .04.037.053.053.007.008.013.015.018.024l.064-.024a.398.398 0 0 1 .063-.01.196.196 0 0 1 .11.024c.013.007.059.027.052.047-.005.016-.037.02-.05.023-.015.004-.031.007-.046.012l-.077.027c-.024.008-.046.018-.07.02-.032.03.088.012.128.023.034.01.071.007.103.02.055.024-.045.064-.06.075-.03.023-.06.048-.09.073a.42.42 0 0 0-.092.11.202.202 0 0 0-.027.113c.004.047.028.09.054.126.038.054.086.1.133.145l.018.017c.26.223.832.505 1.18.394.38-.12.254-.621.6-.835a7.682 7.682 0 0 1 1.086-.544c.103-.044.202-.103.299-.157.138-.079.28-.139.425-.2.026-.01.051-.016.076-.025.007-.003.067-.026.038-.035-.02-.007-.045-.004-.065-.004-.024 0-.049 0-.073.002-.045.002-.09.005-.134-.006-.01-.004-.032-.004-.032-.02 0-.018.028-.019.041-.02.052-.006.104-.023.155-.032.054-.01.109-.02.16-.04.026-.008.051-.014.075-.025.013-.004.033-.005.029-.023a.12.12 0 0 0-.047-.063c-.01-.007-.023-.01-.033-.019-.014-.011-.01-.022-.004-.038.008-.025.019-.05.021-.077.002-.028-.003-.059-.004-.087-.003-.066.11-.1.153-.119.06-.026.159-.076.167-.152.01-.082-.073-.1-.092-.165a9.182 9.182 0 0 1 1.615.21 9.151 9.151 0 0 1 2.251.824c-.174.207-.25.49.219.584.18.035.281-.19.431-.21.087.055.172.11.256.169.02.037.03.078.01.12-.02.052-.093.13-.155.103-.078-.035-.015-.21-.148-.208a.244.244 0 0 0-.21.156c-.043.11.136.224.09.334-.058.144-.281.084-.388.159-.216.151-.379.42-.609.584-.105.075-.243.09-.361.128-.08.024-.209.06-.238.149-.036.105.276.17.338.199.166.076.261.196.118.36-.18.204-.62-.038-.824.162a.155.155 0 0 0-.025.034h.002c.228.185.38.497.339.835a.857.857 0 0 1 .529-.084l.007-.007c.031-.024.069-.04.092-.074.04-.054.005-.127.014-.19.01-.064.05-.104.082-.155.024-.035.037-.08.065-.11.047-.048.123-.05.177-.088.086-.063.01-.178.084-.251.052-.052.128-.042.194-.034.178.019.268-.106.427-.15.016-.005.038-.038.054-.049.049-.032.12-.05.174-.018.043.025.065.078.104.11.059.05.143.065.212.094.078.033.124.036.204.042.087.008.174.072.259.099.066.018.17.046.184.13.024.144-.22.152-.303.172-.03.007-.15.04-.155.073-.008.05.218.086.251.086.096-.002.122-.075.174-.143.043-.056.108-.099.135-.168.024-.057-.02-.105-.023-.16-.003-.047.034-.053.04-.092.014-.072-.143-.103-.187-.11a.757.757 0 0 0-.126-.012c-.028-.001-.084.012-.109.002-.088-.038-.113-.122-.2-.17-.298-.084-.107-.31.045-.17.193-.03.277.166.49.142.123.111.233.018.335.168.051.212.093.202.305.3.073.035.089.269.217.207.041-.022.08-.085.111-.12.016-.02.06-.052.068-.077.027-.078-.098-.058-.13-.097-.149-.176.114-.286.25-.305a.118.118 0 0 1 .104.034c.013.016.025.033.04.05.028.048.048.106.068.15.024.052.057.1.104.133a.27.27 0 0 0 .065.035 9.417 9.417 0 0 1 .46.706c-.08.04-.16.077-.256.065a.685.685 0 0 0-.206-.005c-.128.024-.229-.018-.353-.028-.097-.007-.214-.042-.31-.03-.122.015-.22.097-.226.223-.003.05.003.111-.043.145-.076.056-.187-.007-.27-.008-.066 0-.133.006-.198-.008a.277.277 0 0 1-.083-.035c-.02-.014-.048-.062-.069-.067a.733.733 0 0 0-.32-.02.454.454 0 0 1-.283-.032c-.147-.073.001-.136-.043-.246-.007-.018-.056-.057-.056-.069.01-.19-.174-.11-.304-.05-.248.072-.584.044-.783.188-.089.022-.18.05-.264.091.03.016.057.033.085.052l1.277.894c.89.625 1.186 1.81.74 2.78.009.005.016.01.023.016.117.104.068.364.1.5.05.216.12.312.272.464.242.239.538.48.547.852.008.315-.25.57-.077.884.152.272.388.409.518.717.106.252.18.306.348.481.183.192.55 1.096.905.502A.223.223 0 0 1 50 41.82a9.523 9.523 0 0 1-1.036 2.039zM34.078 33.61a8.37 8.37 0 0 1 .564-.61c.059.127.208.358.218.375.155.281-.098.128-.195.324-.041.082.091.131.067.198-.099.283-.407-.101-.609-.167a.607.607 0 0 0-.123-.024l.078-.096zm17.74 2.951c-1.071-5.697-6.558-9.448-12.256-8.379-5.698 1.07-9.45 6.558-8.38 12.256 1.071 5.698 6.558 9.45 12.256 8.38 5.698-1.071 9.45-6.557 8.38-12.257zM45.149 35l-1.289 1.836-2.212 3.15L39 43.758c.023.016.044.032.067.046l.021.014c.014.01.029.019.044.027l.025.014.04.022.025.012a.723.723 0 0 0 .04.02l.024.01.043.015.02.008a.776.776 0 0 0 .07.021c.02.004.038.01.056.012l.021.004a.498.498 0 0 0 .041.007l.025.003a.44.44 0 0 0 .038.004l.025.001a.48.48 0 0 0 .063.002l.043-.001.02-.001a1.274 1.274 0 0 0 .073-.007l.051-.007c.007 0 .016-.003.024-.004a.622.622 0 0 0 .038-.007c.007 0 .014-.003.021-.004l.03-.006c.008 0 .016.002.023 0l.077-.015 6.666-1.219-2.441-1.619 2.41-3.435.052-.073a1.233 1.233 0 0 0-.335-1.743L45.15 35zm-7.308 7l2.308-3.293.562-.802s3.302-4.679 3.289-4.69l-.064-.044-.02-.014a1.012 1.012 0 0 1-.067-.04c-.015-.006-.03-.014-.044-.021l-.02-.01a1.61 1.61 0 0 0-.061-.026l-.004-.001-.058-.02-.019-.005-.042-.01-.021-.005a.77.77 0 0 0-.042-.008l-.02-.002a.6.6 0 0 0-.06-.007h-.005L43.399 33h-.02l-.042.001a.156.156 0 0 0-.021.002c-.015 0-.029.002-.043.003-.006.001-.01.007-.017.007-.02.002-.04.01-.059.013h-.007c-.016.005-.035.002-.053.005-.031.005-.064.01-.095.017l-.022.005c-.033.008-.064.018-.097.023l-6.662 1.22 2.43 1.573-1.426 2.03-1.036 1.476c-.24.342-.287.765-.161 1.135.085.248.248.472.484.63l1.124.75.165.11zm-.125 1a1.368 1.368 0 0 1-.6.082c.025.169.073.333.078.503.006.225-.093.44-.15.658-.016.063-.039.144-.005.207.055.099.204.094.156.223-.035.094-.101.182-.153.271-.027.05-.052.103-.038.158.01.04.051.07.056.11.005.057-.052.104-.054.158 0 .068.066.143.114.196.211.225.93.543 1.3.397.137-.052.178-.24.14-.341-.052-.138-.143-.048-.28-.064-.252-.028.073-.459.025-.576-.02-.05-.084-.084-.1-.136-.043-.146.272-.448.421-.522.154-.079.253-.19.374-.287a2.761 2.761 0 0 1-.882-.33c-.297-.174-.438-.443-.402-.707zm6.467-11.586c.048-.006.106-.016.154.002.014.005.102.082.068.098-.039.018-.102.014-.116.062-.005.026.015.05.004.077-.008.02-.045.034-.046.056-.001.053.08-.001.096.037.018.04-.109.104-.1.169.008.053.015.105.082.077.078-.034.12-.116.19-.16.022-.014.074-.02.088-.034.078-.071.203-.039.296-.067.082-.025.121-.125.09-.203-.014-.04-.03-.033-.074-.031-.091.004-.114-.024-.168-.087-.06-.069-.173-.09-.246-.144-.03-.022-.064-.056-.062-.093.003-.04.073-.106-.005-.123-.043-.01-.082.02-.124.02-.057.003-.027-.054-.069-.068-.033-.011-.1.025-.127.04a.255.255 0 0 0-.106.104c-.024.06.01.076.031.124.053.12.091-.02.144.144z"/>
            <path fill="#714E46" d="M58.93 36.198c.335 1.52-.573 3.042-2.027 3.39l-5.597 1.34c-1.455.348-2.905-.604-3.237-2.126-.334-1.52.574-3.038 2.028-3.388l5.595-1.342c1.453-.35 2.907.602 3.239 2.126M60.934 47.158c.32 1.495-.55 2.986-1.939 3.332l-5.836 1.438c-1.388.345-2.776-.59-3.093-2.082-.318-1.497.551-2.992 1.94-3.333l5.835-1.443c1.39-.341 2.775.592 3.093 2.088"/>
            <path fill="#714E46" d="M62.93 51.963c.338 1.359-.588 2.714-2.07 3.028l-4.487.944c-1.484.313-2.963-.537-3.302-1.895-.343-1.36.584-2.72 2.07-3.029l4.487-.947c1.481-.311 2.96.54 3.303 1.9M59.928 41.158c.347 1.494-.6 2.985-2.115 3.33l-6.37 1.441c-1.516.343-3.025-.591-3.37-2.087-.351-1.493.595-2.986 2.111-3.329l6.37-1.443c1.515-.341 3.025.594 3.374 2.088"/>
        </g>
    </g>
</svg>
