<svg xmlns="http://www.w3.org/2000/svg" xmlns:xlink="http://www.w3.org/1999/xlink" width="51" height="49" viewBox="0 0 51 49">
    <defs>
        <circle id="a" cx="23.256" cy="23.256" r="23.256"/>
        <path id="c" d="M.004 0H35.74v34.48H.004z"/>
        <path id="e" d="M.009.085h35.736v34.48H.01z"/>
        <path id="g" d="M0 102.326h55.72V.085H0z"/>
        <path id="h" d="M.011 6.34l7.493 6.04 5.037-6.249L5.05.091"/>
        <path id="j" d="M.011 6.34l7.493 6.04 5.037-6.249L5.05.091"/>
        <path id="l" d="M.011 6.34l7.493 6.04 5.037-6.249L5.05.091"/>
        <path id="n" d="M.011 6.34l7.493 6.04 5.037-6.249L5.05.091z"/>
        <path id="p" d="M.011 6.34l7.493 6.04 5.037-6.249L5.05.091z"/>
        <path id="r" d="M.011 6.34l7.493 6.04 5.037-6.249L5.05.091z"/>
        <path id="t" d="M.011 6.34l7.493 6.04 5.037-6.249L5.05.091z"/>
        <path id="v" d="M.011 6.34l7.493 6.04 5.037-6.249L5.05.091z"/>
        <path id="x" d="M.011 6.34l7.493 6.04 5.037-6.249L5.05.091"/>
        <path id="z" d="M.011 6.34l7.493 6.04 5.037-6.249L5.05.091z"/>
        <path id="B" d="M.011 6.34l7.493 6.04 5.037-6.249L5.05.091z"/>
        <path id="D" d="M.011 6.34l7.493 6.04 5.037-6.249L5.05.091z"/>
        <path id="F" d="M0 0h60v36.279H0z"/>
        <path id="H" d="M.004 0H35.74v34.48H.004z"/>
        <path id="J" d="M.009.085h35.736v34.48H.01z"/>
        <path id="L" d="M0 102.326h55.72V.085H0z"/>
        <path id="M" d="M.011 6.34l7.493 6.04 5.037-6.249L5.05.091"/>
        <path id="O" d="M.011 6.34l7.493 6.04 5.037-6.249L5.05.091"/>
        <path id="Q" d="M.011 6.34l7.493 6.04 5.037-6.249L5.05.091"/>
        <path id="S" d="M.011 6.34l7.493 6.04 5.037-6.249L5.05.091z"/>
        <path id="U" d="M.011 6.34l7.493 6.04 5.037-6.249L5.05.091z"/>
        <path id="W" d="M.011 6.34l7.493 6.04 5.037-6.249L5.05.091z"/>
        <path id="Y" d="M.011 6.34l7.493 6.04 5.037-6.249L5.05.091z"/>
        <path id="aa" d="M.011 6.34l7.493 6.04 5.037-6.249L5.05.091z"/>
        <path id="ac" d="M.011 6.34l7.493 6.04 5.037-6.249L5.05.091"/>
        <path id="ae" d="M.011 6.34l7.493 6.04 5.037-6.249L5.05.091z"/>
        <path id="ag" d="M.011 6.34l7.493 6.04 5.037-6.249L5.05.091z"/>
        <path id="ai" d="M.011 6.34l7.493 6.04 5.037-6.249L5.05.091z"/>
    </defs>
    <g fill="none" fill-rule="evenodd">
        <g transform="translate(.581 2.186)">
            <mask id="b" fill="#fff">
                <use xlink:href="#a"/>
            </mask>
            <use fill="#FF7900" fill-rule="nonzero" xlink:href="#a"/>
            <g mask="url(#b)">
                <path fill="#8F8F8F" d="M36.295 39.731c0 .002-.002.003-.003.004l.003-.004z"/>
                <path fill="#3F403F" d="M44.137 25.456a1.11 1.11 0 1 1-2.218 0 1.11 1.11 0 0 1 2.218 0"/>
                <path fill="#714F47" d="M6.12 36.76c-.056-.495-2.845-.515-2.845-.515s-.815 5.962-1.068 8.01c-.353.242-1.094.76-1.372.869-.835.325-1.724.7-2.269 1.01-.406.233-.984.723-1.192 1.03-.438.649-.179 1.104.136.96.464-.212 1.755-.836 1.755-.836-.678.52-1.556 1.464-1.364 1.732.059.082.402-.108 1.127-.719 2.16-1.82 3.417-2.031 3.417-2.031s-.143.617-.337 1.113c-.137.346.235.494.336.473.217-.047.628-1.833.903-2.401.166-.341-.014-.67-.183-.879.605-1.479 3.005-7.383 2.956-7.816"/>
                <path fill="#FFD200" d="M11.858 41.688l-2.64 24.788 3.54.563 3.763-17.845c.115-.285.539-.2.535.108l-1.24 18.14s1.615.325 2.977-.242c1.361-.567 4.183-26.647 4.183-26.647s-8.509-1.702-11.118 1.135"/>
                <path fill="#000" d="M15.655 55.293l5.712-.885c2.009-.248 2.088-13.212 1.817-15.218-1.495-11.092.6-9.532.348-11.836 0 0-2.245-5.468-4.946-5.183l-3.388.32-4.539 1.344-3.305 2.661C4.978 28.43 6.99 32.75 6.99 32.75s3.918 7.497 1.826 21.336c-.258 1.706 5.126 1.418 6.839 1.207"/>
                <path fill="#62352D" d="M9 20.738c.823 1.678 1.786 4.887 1.863 4.99.076.1 1.522.966 2.364 1.6.211.159.606.054.76-.203.542-.905.485-1.245 1.19-2.544-.232-.86-1.317-4.19-1.783-5.379a9.523 9.523 0 0 1-3.43 1.485M5.823 17.961c-.203-.448-.813-.613-1.265-.417a.537.537 0 0 0-.27.221c-.075.137-.048.305-.01.457.228.88.805 1.628 1.422 2.296.24.26.515.524.864.574.128.018.275-.003.357-.104a.46.46 0 0 0 .08-.217c.054-.319.057-.647.007-.967M13.508 15.8c-.041-.393.02-.797.178-1.16a.413.413 0 0 1 .14-.195.348.348 0 0 1 .204-.043c.281.012.537.184.708.408.17.223.266.494.341.765.221.793.285 1.63.189 2.447-.021.178-.052.36-.15.509-.1.149-.283.255-.456.211-.187-.047-.293-.239-.377-.412"/>
                <path fill="#020202" d="M5.864 19.164c-.818-1.903-2.207-5.007-2.229-5.574-.043-1.124.078-3.189 3.378-4.686 2.045-.928 5.025.045 5.631 1.232.157.307 1.543 4.88 1.779 6.812a42.57 42.57 0 0 0-6.181 2.139"/>
                <path fill="#714F47" d="M12.824 13.405c-.408-.77-.272-.4-1.165-1.478-.263-.316-1.848-.05-3.365.381-1.531.436-3.049 1.098-3.293 1.727 0 0 .217.903.184 1.614-.068 1.464.466 3.435.733 3.907.131.231.633.95 1.329 1.838.504.41 1.886 1.65 4.274 2.39a5.51 5.51 0 0 0 .624-.09c.436-.098.894-.332 1.274-.615.616-1.231 1.11-2.508 1.251-3.912-.058-.882-.154-1.568-.246-1.836-.234-.684-.887-2.58-1.6-3.926"/>
                <path fill="#62352D" d="M8.038 16.548s-.008-.012-.027-.033a.51.51 0 0 0-.094-.08.801.801 0 0 0-.492-.118 1.07 1.07 0 0 0-.36.082 1.61 1.61 0 0 0-.343.209c-.218.174-.483.353-.58.587l.004-.038a.45.45 0 0 1 .035-.11c.041-.097.147-.232.309-.377.08-.073.168-.153.285-.231.114-.078.266-.154.443-.187.173-.034.363-.029.516.026.154.053.267.153.304.27M12.72 15.02s-.006-.013-.021-.034a.273.273 0 0 0-.09-.073 1.423 1.423 0 0 0-.465-.122 1.218 1.218 0 0 0-.746.165c-.126.075-.23.185-.317.308-.044.061-.087.126-.13.19-.04.062-.077.128-.059.182.002.002-.047-.04 0-.155.023-.056.054-.12.095-.198.041-.077.096-.168.185-.261.179-.194.525-.346.837-.342.156 0 .301.033.429.086.122.053.265.122.282.254M9.215 18.748a2.215 2.215 0 0 0 2.151-.785c.09.337.006.716-.219.982-.08.096-.177.177-.28.247-.18.122-.385.213-.6.233a1.036 1.036 0 0 1-1.036-.638M9.265 18.225l.005-.075c.004-.049.011-.12.013-.21a4.64 4.64 0 0 0-.52-2.304c-.045-.092-.098-.181-.15-.273a.913.913 0 0 0-.191-.242s.022.007.062.03c.04.022.096.062.16.124.123.125.294.318.448.595.154.275.288.635.337 1.048.05.41.008.876-.164 1.307"/>
                <path fill="#020202" d="M7.457 14.566l-.051.016a.574.574 0 0 0-.06.02l-.037.013-.04.018a1.96 1.96 0 0 0-.419.265c-.16.126-.34.29-.54.47s-.43.372-.677.57c0 0 0-.077.033-.207s.098-.311.222-.508c.124-.196.309-.412.581-.573.136-.08.296-.143.47-.17a.99.99 0 0 1 .267 0 .748.748 0 0 1 .251.086M9.86 13.969l.055-.025a.73.73 0 0 1 .065-.028l.04-.016.048-.016c.13-.045.319-.083.548-.106.23-.023.504-.031.808-.045.305-.011.64-.036.999-.069 0 0-.06-.055-.188-.124a2.112 2.112 0 0 0-.574-.207 2.197 2.197 0 0 0-.92 0 1.613 1.613 0 0 0-.518.21 1.118 1.118 0 0 0-.221.188.748.748 0 0 0-.142.238M11.521 23.785s1.03.65 1.28.563c.31-.105.24-.311.621-1.129.02-.043.033-.112-.003-.14-.493-.384-1.946.603-1.898.706"/>
                <path fill="#FDD230" d="M13.841 15.405c.06.443.138 1.397-1.26 1.904-1.399.509-1.85-.226-2.275-.868-.424-.642.159-1.018.159-1.018 1.607-1.146 3.02-.907 3.02-.907.162.016.296.444.356.889m-4.76 1.404c-.002.77.025 1.631-1.421 1.977-1.447.346-1.907-.493-2.101-.897-.194-.403-.319-.834-.192-.936 0 0 1.048-.978 3.021-.907 0 0 .694-.007.693.763m.846-1.592s-.062.469-.482.583c-.412.136-.721-.222-.721-.222-2.642-.024-4.278 1.438-4.278 1.438l.111.369c.137.29.492.338.492.338.31.747.938 1.988 2.83 1.421 1.89-.567 1.523-1.71 1.533-2.127.009-.417.262-.457.262-.457s.234-.106.47.237c.238.344.56 1.5 2.451.932 1.892-.568 1.733-1.95 1.58-2.744 0 0 .271-.236.224-.552l-.11-.37s-2.17-.32-4.362 1.154"/>
                <path fill="#000" d="M13.841 15.404c.06.444.138 1.397-1.26 1.905-1.399.508-1.85-.226-2.275-.868-.424-.642.159-1.018.159-1.018 1.607-1.146 3.02-.907 3.02-.907.162.016.296.444.356.888m-4.76 1.405c-.002.77.026 1.631-1.421 1.977-1.447.346-1.907-.493-2.101-.897-.194-.403-.319-.834-.192-.936 0 0 1.048-.978 3.021-.907 0 0 .694-.007.693.763"/>
                <path fill="#FFF" d="M8.753 20.503s2.46.241 3.765-.777c0 0-.069 3.664-3.765.777"/>
                <path fill="#62352D" d="M12.579 21.614l-.007.058a.925.925 0 0 1-.039.165c-.045.138-.15.333-.351.503a1.211 1.211 0 0 1-.845.282 1.153 1.153 0 0 1-.484-.144 1.863 1.863 0 0 1-.391-.294s.078 0 .21.012c.131.01.316.037.514.035.193-.005.406-.04.641-.129.118-.044.24-.1.367-.177.126-.078.258-.175.385-.31"/>
                <path fill="#020202" d="M3.727 13.72s-1.751-1.533-.939-1.651c.813-.118-.266-1.401.595-1.377.861.026.26-1.42 1.155-1.141.895.28.547-1.36 1.3-1.031.752.329 1.041-1.316 1.732-.7.69.616 1.057-1.428 1.607-.444.55.985 1.253-.855 1.803.13.55.984 1.223-.633 1.456.514.232 1.146 1.335-.457 1.092 1.012-.243 1.469-.82 3.052-.61 3.353.21.302-1.563-1.917-2.09-1.896-.525.02-4.215 1.23-4.215 1.23l-2.886 2z"/>
                <path fill="#000" d="M17.184 22.506s4.935-4.058 6.32-4.179c1.386-.121 4.874.037 4.687 2.144-.187 2.107.944 4.91.944 4.91s-9.562 5.179-9.758 5.446c-.196.267-3.165-7.17-2.193-8.32"/>
                <path fill="#62352D" d="M18.997 20.904l3.997-1.755 8.938-17.185 9.212 4.96 3.059-1.497 1.726 1.866s-3.35 4.143-4.127 5.255c-.777 1.113-11.91 10.919-11.91 10.919l-5.434 1.187s-5.264-.674-5.461-3.75"/>
                <g transform="translate(14.397 -1.1)">
                    <mask id="d" fill="#fff">
                        <use xlink:href="#c"/>
                    </mask>
                    <path fill="#595A5A" d="M35.336 19.738L12.911.287a1.172 1.172 0 0 0-1.65.114L.294 12.937a1.172 1.172 0 0 0 .11 1.654l22.431 19.6c.49.427 1.233.375 1.658-.116l10.962-12.686c.423-.489.37-1.228-.119-1.651" mask="url(#d)"/>
                </g>
                <g transform="translate(14.292 -1.84)">
                    <mask id="f" fill="#fff">
                        <use xlink:href="#e"/>
                    </mask>
                    <path fill="#8F8F8F" d="M35.341 19.822L12.916.372a1.172 1.172 0 0 0-1.65.113L.299 13.02a1.172 1.172 0 0 0 .11 1.655l22.431 19.6c.49.427 1.233.375 1.658-.117L35.46 21.474c.423-.49.37-1.228-.119-1.652" mask="url(#f)"/>
                </g>
                <path fill="#000" d="M46.563 17.313l-18.678-16.2a.976.976 0 0 0-1.374.094L17.376 11.65a.976.976 0 0 0 .092 1.378L36.151 29.35a.976.976 0 0 0 1.38-.097l9.13-10.565a.976.976 0 0 0-.098-1.376"/>
                <path fill="#714F47" d="M31.331 5.22l-.614-.368a1.7 1.7 0 0 1-.584-2.324l1.515-2.53a1.7 1.7 0 0 1 2.324-.584l.614.368a1.7 1.7 0 0 1 .584 2.324l-1.515 2.53a1.7 1.7 0 0 1-2.324.584"/>
                <path fill="#91766F" d="M31.815 1.368l-.031.003h-.001c-.063.005-.116.027-.143.07l-.6 1.004c-.076.126.006.315.18.42l1.677 1.004c.175.104.38.087.455-.04l.588-.98c.05-.085-.004-.211-.121-.281l-2.004-1.2z"/>
                <path fill="#714F47" d="M35.156 7.33l-.614-.368a1.7 1.7 0 0 1-.584-2.324l1.515-2.53a1.7 1.7 0 0 1 2.324-.584l.614.368a1.7 1.7 0 0 1 .584 2.324l-1.515 2.53a1.7 1.7 0 0 1-2.324.584"/>
                <path fill="#91766F" d="M35.64 3.478l-.031.003h-.001c-.063.005-.116.027-.143.071l-.6 1.003c-.076.126.006.315.18.42l1.677 1.004c.175.104.38.087.455-.039l.588-.981c.05-.085-.003-.21-.12-.281l-2.005-1.2z"/>
                <path fill="#714F47" d="M38.536 9.296l-.615-.368a1.7 1.7 0 0 1-.583-2.324l1.514-2.53a1.7 1.7 0 0 1 2.324-.584l.615.368a1.7 1.7 0 0 1 .583 2.324l-1.515 2.53a1.7 1.7 0 0 1-2.323.584"/>
                <path fill="#91766F" d="M39.02 5.444l-.032.003c-.063.005-.117.027-.144.07l-.6 1.004c-.076.126.006.315.18.42l1.678 1.004c.175.104.38.087.455-.04l.587-.98c.051-.085-.003-.211-.12-.281l-2.005-1.2z"/>
                <path fill="#714F47" d="M43.184 9.096l-.614-.367a1.7 1.7 0 0 1-.584-2.324l1.515-2.53a1.7 1.7 0 0 1 2.324-.584l.615.368a1.7 1.7 0 0 1 .583 2.324l-1.515 2.53a1.7 1.7 0 0 1-2.324.583"/>
                <path fill="#91766F" d="M43.668 5.245l-.031.002h-.001c-.063.005-.116.027-.143.072l-.6 1.003c-.076.126.006.315.18.42l1.677 1.003c.175.105.38.087.456-.039l.587-.98c.05-.086-.003-.211-.12-.282l-2.005-1.2z"/>
                <path fill="#714F47" d="M26.68 23.863l-.174.695a1.7 1.7 0 0 1-2.054 1.234l-4.967-1.24a1.7 1.7 0 0 1-1.234-2.055l.174-.695a1.7 1.7 0 0 1 2.054-1.233l4.967 1.24a1.7 1.7 0 0 1 1.234 2.054"/>
                <path fill="#91766F" d="M22.3 24.381l.018.03v.002c.036.061.089.11.157.127l1.541.385a.368.368 0 0 0 .442-.271l.474-1.897a.368.368 0 0 0-.263-.447l-1.507-.377a.245.245 0 0 0-.296.182l-.566 2.266z"/>
                <path fill="#3F403F" d="M19.075 8.21l3.983-4.388M19.275 8.41l3.984-4.387c.245-.27-.155-.672-.401-.401l-3.984 4.387c-.245.27.155.672.401.401"/>
                <path fill="#000" d="M6.412 27.732S4.108 32.216 2.988 35.7a1.804 1.804 0 0 0 .638 1.994c1.035.778 1.923.795 3.444-1.03l3.313-3.805-3.971-5.126z"/>
                <path fill="#FFD200" d="M16.011 24.316c-.148-.67-.454-1.313-.939-1.787l-.491.144c.002.006.468 1.27.467 1.789-.001.323-.748 2.174-1.084 2.454-.196.243-1.725-.35-2.15-.623-.401-.257-.756-.42-1.051-.832-.037-.052-.316-.903-.463-1.357l-.437.372c-.137.246-.245.503-.246.737.005.077.017.15.038.223.037.109.091.214.157.316.038.051.083.103.135.155.13.13.27.251.41.37 1.243.721 2.887 1.926 3.759 2.11.164-.099.302-.249.415-.42.372-.566.662-1.223.94-1.839a8.573 8.573 0 0 0 .57-1.657 3.278 3.278 0 0 0-.03-.155M4.232 36.541a3.485 3.485 0 0 1-1.038-1.457c-.072.208-.14.413-.206.615a1.804 1.804 0 0 0 .638 1.994c.937.705 1.754.785 3.03-.56-.87.145-1.724-.027-2.424-.592"/>
                <path fill="#FFD200" d="M12.933 27.868l2.5 9.73 1.695-.446-2.231-9.998zM17.485 30.546l.357.982 3.125-.714-.268-1.16z"/>
                <path fill="#000" d="M14.629 28.627a.402.402 0 1 1-.804 0 .402.402 0 0 1 .804 0M15.209 30.992a.402.402 0 1 1-.803 0 .402.402 0 0 1 .803 0M15.745 33.224a.402.402 0 1 1-.804 0 .402.402 0 0 1 .804 0M16.191 35.367a.402.402 0 1 1-.803 0 .402.402 0 0 1 .803 0"/>
                <g>
                    <g transform="translate(24.968 8.732)">
                        <mask id="i" fill="#fff">
                            <use xlink:href="#h"/>
                        </mask>
                        <path fill="#FFF" d="M2.384 4.035L.88 5.901a.486.486 0 1 0 .756.61l.767-.952.293 2.763a.485.485 0 1 0 .967-.105l-.294-2.763.95.765a.486.486 0 0 0 .61-.757l-1.862-1.5a.486.486 0 0 0-.683.073" mask="url(#i)"/>
                    </g>
                    <g transform="translate(24.968 8.732)">
                        <mask id="k" fill="#fff">
                            <use xlink:href="#j"/>
                        </mask>
                        <path fill="#FF7900" d="M5.918 5.01L7.42 3.143a.486.486 0 1 0-.756-.61l-.766.951L5.605.722a.485.485 0 1 0-.967.105l.294 2.763-.949-.765a.486.486 0 0 0-.61.757l1.861 1.501a.486.486 0 0 0 .684-.074" mask="url(#k)"/>
                    </g>
                    <g transform="translate(24.968 8.732)">
                        <mask id="m" fill="#fff">
                            <use xlink:href="#l"/>
                        </mask>
                        <path fill="#FFF" d="M4.542 8.9c.337-.417.845-.412 1.245-.09.387.313.5.809.164 1.226-.336.417-.844.412-1.233.099-.399-.322-.512-.818-.176-1.235m1.16.935c.215-.266.07-.548-.154-.729-.236-.19-.543-.272-.757-.006-.215.266-.07.549.166.739.224.18.531.262.746-.004" mask="url(#m)"/>
                    </g>
                    <g transform="translate(24.968 8.732)">
                        <mask id="o" fill="#fff">
                            <use xlink:href="#n"/>
                        </mask>
                        <path fill="#FFF" d="M5.58 8.437l.206-.255.181.146.003-.004a.443.443 0 0 1 .044-.479.257.257 0 0 1 .056-.05l.25.2a.644.644 0 0 0-.088.088c-.158.197-.072.379.1.517l.439.354-.216.268-.974-.785z" mask="url(#o)"/>
                    </g>
                    <g transform="translate(24.968 8.732)">
                        <mask id="q" fill="#fff">
                            <use xlink:href="#p"/>
                        </mask>
                        <path fill="#FFF" d="M6.425 8.003c-.238-.217-.133-.503.044-.722.156-.194.388-.393.622-.205l.507.409c.088.07.184.133.244.14l-.22.272a.504.504 0 0 1-.109-.057.575.575 0 0 1-.144.425c-.15.185-.36.258-.56.097-.22-.177-.14-.386-.028-.57.108-.184.237-.333.128-.42-.115-.093-.196-.028-.272.067-.082.102-.094.201.004.296l-.216.268zm.697-.46c.003.077-.072.173-.123.268-.05.097-.083.195.015.274.1.08.187.023.257-.064.169-.21.009-.35-.05-.398l-.1-.08z" mask="url(#q)"/>
                    </g>
                    <g transform="translate(24.968 8.732)">
                        <mask id="s" fill="#fff">
                            <use xlink:href="#r"/>
                        </mask>
                        <path fill="#FFF" d="M6.967 6.717l.205-.255.136.11.004-.006a.447.447 0 0 1 .079-.429c.23-.285.447-.227.689-.033l.599.483-.216.268-.55-.444c-.16-.129-.278-.145-.378-.02-.117.145-.087.272.111.432l.51.411-.215.268-.974-.785z" mask="url(#s)"/>
                    </g>
                    <g transform="translate(24.968 8.732)">
                        <mask id="u" fill="#fff">
                            <use xlink:href="#t"/>
                        </mask>
                        <path fill="#FFF" d="M9.486 5.458c.16.13.386.404.024.853-.156.193-.427.345-.66.179l.215-.266c.12.056.218.002.295-.093.12-.149.073-.299-.068-.41l-.128-.102-.003.003c.054.14.009.297-.085.414-.236.293-.559.238-.826.023-.253-.204-.365-.534-.145-.808.104-.128.226-.192.39-.165l.004-.003-.13-.105.205-.255.912.735zm-.642-.098c-.159-.127-.344-.186-.484-.013-.122.151-.043.324.102.44.14.113.335.183.467.019.123-.153.054-.333-.085-.446z" mask="url(#u)"/>
                    </g>
                    <g transform="translate(24.968 8.732)">
                        <mask id="w" fill="#fff">
                            <use xlink:href="#v"/>
                        </mask>
                        <path fill="#FFF" d="M9.432 4.788c.176.13.32.109.44-.04.087-.108.09-.248.044-.313l.19-.236c.17.26.138.5-.04.72-.248.308-.613.329-.914.086-.292-.236-.351-.617-.113-.913.268-.332.676-.268.96-.007l-.567.703zm.182-.572c-.155-.085-.274-.084-.38.046-.136.17-.044.325.029.39l.351-.436z" mask="url(#w)"/>
                    </g>
                </g>
                <path fill="#FFF" d="M31.618 18.717l.685 1.044-.003.004-1.18-.43-.335.416 1.345 1.084.223-.277-.943-.76.003-.005 1.21.43.184-.228-.687-1.098.003-.004.953.768.223-.277-1.344-1.084z"/>
                <g>
                    <g transform="translate(24.968 8.732)">
                        <mask id="y" fill="#fff">
                            <use xlink:href="#x"/>
                        </mask>
                        <path fill="#FFF" d="M7.832 9.224c.248-.307.611-.342.922-.091.31.249.353.611.105.919-.247.306-.61.34-.919.09-.31-.25-.354-.612-.108-.918m.825.665c.148-.183.036-.364-.119-.488-.156-.126-.356-.197-.504-.014-.146.18-.034.362.122.488.155.124.355.195.501.014" mask="url(#y)"/>
                    </g>
                    <g transform="translate(24.968 8.732)">
                        <mask id="A" fill="#fff">
                            <use xlink:href="#z"/>
                        </mask>
                        <path fill="#FFF" d="M8.36 8.625l.205-.255.135.11.005-.007a.447.447 0 0 1 .078-.428c.23-.285.448-.228.689-.034l.599.483-.216.268-.55-.443c-.16-.13-.277-.146-.378-.021-.117.145-.086.273.112.432l.51.412-.216.268-.974-.785z" mask="url(#A)"/>
                    </g>
                    <g transform="translate(24.968 8.732)">
                        <mask id="C" fill="#fff">
                            <use xlink:href="#B"/>
                        </mask>
                        <path fill="#FFF" d="M9.948 7.783c.176.13.32.108.44-.04.087-.108.09-.248.044-.314l.19-.236c.17.261.138.5-.04.721-.248.308-.613.328-.914.086-.292-.236-.351-.617-.113-.913.268-.332.676-.268.96-.008l-.567.704zm.182-.573c-.156-.084-.274-.083-.38.047-.136.17-.044.325.028.39l.352-.437z" mask="url(#C)"/>
                    </g>
                    <g transform="translate(24.968 8.732)">
                        <mask id="E" fill="#fff">
                            <use xlink:href="#D"/>
                        </mask>
                        <path fill="#FFF" d="M11.52 6.947c.11.185.099.329-.05.514a2.023 2.023 0 0 1-.142.156l-.22-.177c.044-.048.095-.095.135-.15.065-.1-.006-.207-.108-.24l-1.19-.392.23-.287.846.317.003-.004-.495-.751.223-.277.768 1.29z" mask="url(#E)"/>
                    </g>
                </g>
            </g>
        </g>
        <g transform="translate(-5 -2)">
            <mask id="G" fill="#fff">
                <use xlink:href="#F"/>
            </mask>
            <g mask="url(#G)">
                <path fill="#8F8F8F" d="M41.877 43.917l-.003.004.003-.004z"/>
                <path fill="#3F403F" d="M49.719 29.642a1.11 1.11 0 1 1-2.219 0 1.11 1.11 0 0 1 2.219 0"/>
                <path fill="#714F47" d="M11.701 40.946c-.056-.495-2.844-.515-2.844-.515s-.816 5.962-1.069 8.01c-.353.242-1.094.76-1.372.869-.835.325-1.724.7-2.268 1.01-.406.233-.985.723-1.192 1.03-.438.649-.18 1.104.136.96.464-.212 1.755-.836 1.755-.836-.679.52-1.556 1.464-1.365 1.732.06.082.402-.108 1.128-.719 2.16-1.82 3.417-2.031 3.417-2.031s-.143.617-.338 1.113c-.136.346.236.494.336.473.217-.047.629-1.833.904-2.401.165-.341-.014-.67-.184-.879.605-1.479 3.005-7.383 2.956-7.816"/>
                <path fill="#FFD200" d="M17.44 45.874L14.8 70.662l3.54.563 3.762-17.845c.115-.285.54-.2.535.108l-1.24 18.14s1.616.325 2.977-.242c1.361-.567 4.184-26.647 4.184-26.647s-8.51-1.702-11.119 1.135"/>
                <path fill="#000" d="M21.236 59.479l5.713-.885c2.008-.248 2.087-13.212 1.817-15.218-1.496-11.092.599-9.532.347-11.836 0 0-2.245-5.468-4.945-5.183l-3.389.32-4.539 1.344-3.304 2.661c-2.377 1.933-.364 6.254-.364 6.254s3.917 7.497 1.825 21.336c-.257 1.706 5.127 1.418 6.84 1.207"/>
                <path fill="#62352D" d="M14.582 24.924c.823 1.678 1.785 4.887 1.862 4.99.077.1 1.522.966 2.364 1.6.212.16.606.054.76-.203.543-.905.486-1.245 1.19-2.544-.232-.86-1.317-4.19-1.782-5.378a9.523 9.523 0 0 1-3.431 1.484M11.404 22.147c-.203-.448-.813-.613-1.264-.417a.537.537 0 0 0-.271.221c-.074.137-.048.306-.009.457.228.88.804 1.628 1.422 2.296.24.26.514.525.863.574.129.018.276-.003.357-.104a.46.46 0 0 0 .08-.217c.054-.319.057-.647.008-.967M19.089 19.986c-.04-.393.021-.797.178-1.16a.413.413 0 0 1 .14-.195.348.348 0 0 1 .205-.043c.28.012.536.184.707.408.17.224.267.494.342.765.22.794.285 1.63.188 2.447-.021.178-.052.36-.15.509-.099.149-.283.255-.456.211-.187-.047-.293-.239-.377-.412"/>
                <path fill="#020202" d="M11.446 23.35c-.818-1.903-2.208-5.007-2.23-5.573-.043-1.124.078-3.19 3.378-4.687 2.045-.928 5.026.045 5.632 1.232.156.307 1.543 4.88 1.778 6.812a42.57 42.57 0 0 0-6.18 2.139"/>
                <path fill="#714F47" d="M18.405 17.591c-.408-.77-.272-.4-1.165-1.478-.262-.316-1.848-.05-3.365.381-1.531.436-3.049 1.098-3.293 1.727 0 0 .218.903.185 1.614-.068 1.464.466 3.435.733 3.907.13.231.633.95 1.328 1.838.505.41 1.886 1.65 4.275 2.391a5.51 5.51 0 0 0 .624-.092c.435-.097.893-.331 1.273-.614.616-1.231 1.111-2.508 1.252-3.912-.059-.882-.155-1.568-.247-1.836-.234-.684-.887-2.58-1.6-3.926"/>
                <path fill="#62352D" d="M13.62 20.734l-.027-.033a.51.51 0 0 0-.095-.08.801.801 0 0 0-.492-.118 1.07 1.07 0 0 0-.36.082 1.61 1.61 0 0 0-.343.209c-.218.174-.483.353-.579.587l.004-.038a.45.45 0 0 1 .034-.11c.041-.097.147-.232.31-.377.08-.073.168-.153.284-.231.114-.078.267-.154.443-.187.173-.034.363-.029.517.026.153.053.267.153.304.27M18.301 19.206s-.005-.013-.02-.034a.273.273 0 0 0-.091-.072 1.423 1.423 0 0 0-.465-.123 1.218 1.218 0 0 0-.745.165c-.126.076-.23.185-.318.308-.044.061-.087.126-.129.19-.04.062-.078.128-.06.182.003.002-.047-.04.001-.155.022-.056.053-.12.094-.198.042-.077.096-.167.185-.261.18-.194.525-.346.837-.342.156 0 .301.033.43.086.121.053.264.122.281.254M14.796 22.934a2.215 2.215 0 0 0 2.152-.785c.09.337.005.716-.22.982-.08.096-.177.177-.28.247-.18.122-.384.213-.6.233a1.036 1.036 0 0 1-1.036-.638M14.847 22.411l.005-.075c.003-.049.01-.12.013-.21a4.64 4.64 0 0 0-.52-2.304c-.046-.092-.099-.181-.151-.273a.913.913 0 0 0-.191-.242s.023.007.062.03c.04.022.097.062.16.124.123.125.295.318.448.595.155.275.288.635.338 1.048.05.41.007.876-.164 1.307"/>
                <path fill="#020202" d="M13.039 18.752l-.052.016a.574.574 0 0 0-.06.02l-.036.013-.04.018a1.96 1.96 0 0 0-.42.265c-.16.126-.339.29-.54.47-.2.18-.429.372-.677.57 0 0 0-.076.034-.207.033-.13.097-.311.221-.508.124-.196.309-.411.582-.573.135-.08.295-.143.47-.169a.99.99 0 0 1 .267 0 .748.748 0 0 1 .25.085M15.441 18.155l.055-.025a.73.73 0 0 1 .065-.028l.04-.016.048-.016c.13-.045.32-.083.549-.106.23-.023.503-.031.808-.045.304-.011.64-.036.998-.069 0 0-.06-.055-.187-.124a2.112 2.112 0 0 0-.574-.207 2.197 2.197 0 0 0-.92 0 1.613 1.613 0 0 0-.519.21 1.118 1.118 0 0 0-.22.188.748.748 0 0 0-.143.238M17.103 27.971s1.03.65 1.28.564c.309-.106.238-.312.62-1.13.02-.043.034-.112-.003-.14-.493-.384-1.946.603-1.897.706"/>
                <path fill="#FDD230" d="M19.422 19.59c.06.444.138 1.398-1.26 1.905-1.399.509-1.85-.226-2.274-.868-.424-.642.158-1.018.158-1.018 1.607-1.146 3.021-.907 3.021-.907.162.016.295.444.355.889m-4.76 1.404c-.001.77.026 1.631-1.42 1.977-1.448.346-1.907-.493-2.102-.897-.194-.403-.318-.834-.192-.936 0 0 1.048-.978 3.022-.907 0 0 .693-.007.692.763m.847-1.592s-.062.469-.482.583c-.413.136-.722-.222-.722-.222-2.642-.023-4.277 1.438-4.277 1.438l.11.369c.137.29.492.338.492.338.31.747.938 1.988 2.83 1.421 1.891-.567 1.524-1.709 1.533-2.126.009-.418.262-.458.262-.458s.234-.106.471.238c.238.343.56 1.499 2.45.93 1.892-.567 1.733-1.95 1.58-2.743 0 0 .271-.236.224-.552l-.11-.37s-2.17-.32-4.361 1.154"/>
                <path fill="#000" d="M19.423 19.59c.06.444.137 1.397-1.26 1.905-1.4.509-1.851-.226-2.275-.868-.424-.642.158-1.018.158-1.018 1.608-1.146 3.021-.907 3.021-.907.162.016.295.444.356.889m-4.761 1.404c-.001.77.026 1.631-1.42 1.977-1.447.346-1.907-.493-2.102-.897-.194-.403-.318-.834-.192-.936 0 0 1.048-.978 3.022-.907 0 0 .693-.007.692.763"/>
                <path fill="#FFF" d="M14.334 24.69s2.46.24 3.766-.778c0 0-.07 3.664-3.766.777"/>
                <path fill="#62352D" d="M18.16 25.8l-.007.059a.925.925 0 0 1-.038.164c-.045.138-.15.333-.352.503a1.211 1.211 0 0 1-.845.282 1.153 1.153 0 0 1-.483-.144 1.863 1.863 0 0 1-.392-.294s.079 0 .21.012c.132.01.317.037.514.035.193-.005.406-.04.642-.128.117-.045.24-.102.366-.178.127-.078.258-.174.385-.31"/>
                <path fill="#020202" d="M9.308 17.906s-1.75-1.533-.938-1.651c.812-.118-.267-1.401.595-1.376.86.025.26-1.422 1.155-1.142s.547-1.36 1.299-1.031c.752.329 1.042-1.316 1.732-.7.691.616 1.057-1.428 1.608-.444.55.985 1.252-.855 1.803.13.55.984 1.222-.633 1.455.514.232 1.146 1.336-.457 1.093 1.012-.244 1.469-.82 3.052-.611 3.354.21.3-1.563-1.917-2.089-1.897-.526.02-4.216 1.23-4.216 1.23l-2.886 2z"/>
                <path fill="#000" d="M22.765 26.692s4.936-4.058 6.321-4.179c1.385-.121 4.874.037 4.686 2.144-.187 2.107.944 4.91.944 4.91s-9.561 5.179-9.757 5.446c-.196.267-3.166-7.169-2.194-8.32"/>
                <path fill="#62352D" d="M24.578 25.09l3.998-1.755L37.513 6.15l9.213 4.96 3.058-1.497 1.726 1.866s-3.35 4.143-4.127 5.255c-.777 1.113-11.909 10.919-11.909 10.919L30.04 28.84s-5.264-.674-5.462-3.75"/>
                <g transform="translate(19.979 3.087)">
                    <mask id="I" fill="#fff">
                        <use xlink:href="#H"/>
                    </mask>
                    <path fill="#595A5A" d="M35.336 19.738L12.911.287a1.172 1.172 0 0 0-1.65.114L.294 12.937a1.172 1.172 0 0 0 .11 1.654l22.431 19.6c.49.427 1.233.375 1.658-.116l10.962-12.686c.423-.489.37-1.228-.119-1.651" mask="url(#I)"/>
                </g>
                <g transform="translate(19.873 2.347)">
                    <mask id="K" fill="#fff">
                        <use xlink:href="#J"/>
                    </mask>
                    <path fill="#8F8F8F" d="M35.341 19.822L12.916.372a1.172 1.172 0 0 0-1.65.113L.299 13.02a1.172 1.172 0 0 0 .11 1.655l22.431 19.6c.49.427 1.233.375 1.658-.117L35.46 21.474c.423-.49.37-1.228-.119-1.652" mask="url(#K)"/>
                </g>
                <path fill="#000" d="M52.144 21.5L33.467 5.298a.976.976 0 0 0-1.375.094l-9.135 10.442a.976.976 0 0 0 .093 1.378l18.682 16.324a.976.976 0 0 0 1.381-.097l9.13-10.565a.976.976 0 0 0-.099-1.376"/>
                <path fill="#714F47" d="M36.913 9.406l-.615-.368a1.7 1.7 0 0 1-.583-2.324l1.514-2.53a1.7 1.7 0 0 1 2.324-.584l.615.368a1.7 1.7 0 0 1 .583 2.324l-1.514 2.53a1.7 1.7 0 0 1-2.324.584"/>
                <path fill="#91766F" d="M37.396 5.554l-.03.003h-.002c-.062.005-.116.027-.142.07l-.601 1.004c-.075.126.006.315.18.42l1.678 1.004c.175.104.38.087.455-.04l.587-.98c.051-.085-.003-.211-.12-.281l-2.005-1.2z"/>
                <path fill="#714F47" d="M40.738 11.516l-.615-.368a1.7 1.7 0 0 1-.583-2.324l1.514-2.53a1.7 1.7 0 0 1 2.324-.584l.615.368a1.7 1.7 0 0 1 .583 2.324l-1.514 2.53a1.7 1.7 0 0 1-2.324.584"/>
                <path fill="#91766F" d="M41.221 7.664l-.03.003h-.002c-.062.005-.116.027-.142.071l-.6 1.003c-.076.126.005.315.18.42l1.677 1.004c.175.104.38.087.455-.039l.587-.981c.051-.085-.003-.21-.12-.281l-2.005-1.2z"/>
                <path fill="#714F47" d="M44.117 13.482l-.615-.368a1.7 1.7 0 0 1-.583-2.324l1.515-2.53a1.7 1.7 0 0 1 2.324-.584l.614.368a1.7 1.7 0 0 1 .584 2.324l-1.515 2.53a1.7 1.7 0 0 1-2.324.584"/>
                <path fill="#91766F" d="M44.6 9.63l-.03.003h-.001c-.063.005-.116.027-.143.071l-.6 1.003c-.076.126.005.315.18.42l1.677 1.004c.175.104.38.087.455-.04l.588-.98c.05-.085-.004-.21-.121-.281L44.6 9.63z"/>
                <path fill="#714F47" d="M48.766 13.283l-.615-.368a1.7 1.7 0 0 1-.583-2.324l1.515-2.53a1.7 1.7 0 0 1 2.323-.584l.615.368a1.7 1.7 0 0 1 .583 2.324l-1.514 2.53a1.7 1.7 0 0 1-2.324.584"/>
                <path fill="#91766F" d="M49.25 9.43l-.032.003c-.063.005-.117.027-.143.072l-.6 1.003c-.076.126.005.315.18.42l1.677 1.003c.175.105.38.087.455-.039l.587-.98c.051-.086-.003-.211-.12-.282l-2.004-1.2z"/>
                <path fill="#714F47" d="M32.26 28.05l-.173.694a1.7 1.7 0 0 1-2.054 1.234l-4.967-1.24a1.7 1.7 0 0 1-1.233-2.055l.173-.695a1.7 1.7 0 0 1 2.055-1.233l4.967 1.24a1.7 1.7 0 0 1 1.233 2.054"/>
                <path fill="#91766F" d="M27.881 28.567l.018.03v.002c.036.061.09.11.157.127l1.542.385a.368.368 0 0 0 .442-.271l.473-1.897a.368.368 0 0 0-.262-.447l-1.508-.377a.245.245 0 0 0-.296.182l-.566 2.266z"/>
                <path fill="#3F403F" d="M24.656 12.396l3.984-4.387M24.857 12.596L28.84 8.21c.245-.27-.155-.672-.4-.401l-3.985 4.387c-.244.27.156.672.402.401"/>
                <path fill="#000" d="M11.993 31.919S9.69 36.402 8.57 39.885a1.804 1.804 0 0 0 .637 1.994c1.035.778 1.924.795 3.445-1.03l3.312-3.805-3.97-5.125z"/>
                <path fill="#FFD200" d="M21.593 28.502c-.149-.67-.455-1.313-.94-1.787l-.49.144c.001.006.467 1.27.466 1.789 0 .323-.748 2.174-1.084 2.454-.195.243-1.724-.35-2.15-.623-.4-.257-.756-.42-1.05-.832-.038-.052-.317-.903-.463-1.357l-.438.372c-.137.246-.245.503-.245.737.005.077.017.15.037.223.037.109.091.214.157.316.039.051.083.103.136.155.13.13.268.251.41.37 1.243.721 2.886 1.926 3.758 2.11.164-.098.302-.249.415-.42.373-.566.662-1.223.94-1.839a8.573 8.573 0 0 0 .57-1.657 3.278 3.278 0 0 0-.03-.155M9.813 40.727a3.485 3.485 0 0 1-1.037-1.457c-.072.208-.141.413-.206.615a1.804 1.804 0 0 0 .637 1.994c.937.705 1.754.785 3.03-.56-.869.145-1.723-.027-2.424-.592"/>
                <path fill="#FFD200" d="M18.514 32.054l2.5 9.73 1.696-.446-2.232-9.998zM23.067 34.732l.357.982L26.548 35l-.267-1.16z"/>
                <path fill="#000" d="M20.21 32.813a.402.402 0 1 1-.803 0 .402.402 0 0 1 .803 0M20.79 35.178a.402.402 0 1 1-.803 0 .402.402 0 0 1 .803 0M21.326 37.41a.402.402 0 1 1-.803 0 .402.402 0 0 1 .803 0M21.772 39.553a.402.402 0 1 1-.803 0 .402.402 0 0 1 .803 0"/>
                <g>
                    <g transform="translate(30.55 12.918)">
                        <mask id="N" fill="#fff">
                            <use xlink:href="#M"/>
                        </mask>
                        <path fill="#FFF" d="M2.384 4.035L.88 5.901a.486.486 0 1 0 .756.61l.767-.952.293 2.763a.485.485 0 1 0 .967-.105l-.294-2.763.95.765a.486.486 0 0 0 .61-.757l-1.862-1.5a.486.486 0 0 0-.683.073" mask="url(#N)"/>
                    </g>
                    <g transform="translate(30.55 12.918)">
                        <mask id="P" fill="#fff">
                            <use xlink:href="#O"/>
                        </mask>
                        <path fill="#FF7900" d="M5.918 5.01L7.42 3.143a.486.486 0 1 0-.756-.61l-.766.951L5.605.722a.485.485 0 1 0-.967.105l.294 2.763-.949-.765a.486.486 0 0 0-.61.757l1.861 1.501a.486.486 0 0 0 .684-.074" mask="url(#P)"/>
                    </g>
                    <g transform="translate(30.55 12.918)">
                        <mask id="R" fill="#fff">
                            <use xlink:href="#Q"/>
                        </mask>
                        <path fill="#FFF" d="M4.542 8.9c.337-.417.845-.412 1.245-.09.387.313.5.809.164 1.226-.336.417-.844.412-1.233.099-.399-.322-.512-.818-.176-1.235m1.16.935c.215-.266.07-.548-.154-.729-.236-.19-.543-.272-.757-.006-.215.266-.07.549.166.739.224.18.531.262.746-.004" mask="url(#R)"/>
                    </g>
                    <g transform="translate(30.55 12.918)">
                        <mask id="T" fill="#fff">
                            <use xlink:href="#S"/>
                        </mask>
                        <path fill="#FFF" d="M5.58 8.437l.206-.255.181.146.003-.004a.443.443 0 0 1 .044-.479.257.257 0 0 1 .056-.05l.25.2a.644.644 0 0 0-.088.088c-.158.197-.072.379.1.517l.439.354-.216.268-.974-.785z" mask="url(#T)"/>
                    </g>
                    <g transform="translate(30.55 12.918)">
                        <mask id="V" fill="#fff">
                            <use xlink:href="#U"/>
                        </mask>
                        <path fill="#FFF" d="M6.425 8.003c-.238-.217-.133-.503.044-.722.156-.194.388-.393.622-.205l.507.409c.088.07.184.133.244.14l-.22.272a.504.504 0 0 1-.109-.057.575.575 0 0 1-.144.425c-.15.185-.36.258-.56.097-.22-.177-.14-.386-.028-.57.108-.184.237-.333.128-.42-.115-.093-.196-.028-.272.067-.082.102-.094.201.004.296l-.216.268zm.697-.46c.003.077-.072.173-.123.268-.05.097-.083.195.015.274.1.08.187.023.257-.064.169-.21.009-.35-.05-.398l-.1-.08z" mask="url(#V)"/>
                    </g>
                    <g transform="translate(30.55 12.918)">
                        <mask id="X" fill="#fff">
                            <use xlink:href="#W"/>
                        </mask>
                        <path fill="#FFF" d="M6.967 6.717l.205-.255.136.11.004-.006a.447.447 0 0 1 .079-.429c.23-.285.447-.227.689-.033l.599.483-.216.268-.55-.444c-.16-.129-.278-.145-.378-.02-.117.145-.087.272.111.432l.51.411-.215.268-.974-.785z" mask="url(#X)"/>
                    </g>
                    <g transform="translate(30.55 12.918)">
                        <mask id="Z" fill="#fff">
                            <use xlink:href="#Y"/>
                        </mask>
                        <path fill="#FFF" d="M9.486 5.458c.16.13.386.404.024.853-.156.193-.427.345-.66.179l.215-.266c.12.056.218.002.295-.093.12-.149.073-.299-.068-.41l-.128-.102-.003.003c.054.14.009.297-.085.414-.236.293-.559.238-.826.023-.253-.204-.365-.534-.145-.808.104-.128.226-.192.39-.165l.004-.003-.13-.105.205-.255.912.735zm-.642-.098c-.159-.127-.344-.186-.484-.013-.122.151-.043.324.102.44.14.113.335.183.467.019.123-.153.054-.333-.085-.446z" mask="url(#Z)"/>
                    </g>
                    <g transform="translate(30.55 12.918)">
                        <mask id="ab" fill="#fff">
                            <use xlink:href="#aa"/>
                        </mask>
                        <path fill="#FFF" d="M9.432 4.788c.176.13.32.109.44-.04.087-.108.09-.248.044-.313l.19-.236c.17.26.138.5-.04.72-.248.308-.613.329-.914.086-.292-.236-.351-.617-.113-.913.268-.332.676-.268.96-.007l-.567.703zm.182-.572c-.155-.085-.274-.084-.38.046-.136.17-.044.325.029.39l.351-.436z" mask="url(#ab)"/>
                    </g>
                </g>
                <path fill="#FFF" d="M37.2 22.903l.684 1.044-.003.004-1.179-.43-.336.416 1.345 1.084.224-.277-.944-.76.003-.004 1.21.43.184-.228-.687-1.099.003-.004.953.768.224-.277-1.345-1.084z"/>
                <g>
                    <g transform="translate(30.55 12.918)">
                        <mask id="ad" fill="#fff">
                            <use xlink:href="#ac"/>
                        </mask>
                        <path fill="#FFF" d="M7.832 9.224c.248-.307.611-.342.922-.091.31.249.353.611.105.919-.247.306-.61.34-.919.09-.31-.25-.354-.612-.108-.918m.825.665c.148-.183.036-.364-.119-.488-.156-.126-.356-.197-.504-.014-.146.18-.034.362.122.488.155.124.355.195.501.014" mask="url(#ad)"/>
                    </g>
                    <g transform="translate(30.55 12.918)">
                        <mask id="af" fill="#fff">
                            <use xlink:href="#ae"/>
                        </mask>
                        <path fill="#FFF" d="M8.36 8.625l.205-.255.135.11.005-.007a.447.447 0 0 1 .078-.428c.23-.285.448-.228.689-.034l.599.483-.216.268-.55-.443c-.16-.13-.277-.146-.378-.021-.117.145-.086.273.112.432l.51.412-.216.268-.974-.785z" mask="url(#af)"/>
                    </g>
                    <g transform="translate(30.55 12.918)">
                        <mask id="ah" fill="#fff">
                            <use xlink:href="#ag"/>
                        </mask>
                        <path fill="#FFF" d="M9.948 7.783c.176.13.32.108.44-.04.087-.108.09-.248.044-.314l.19-.236c.17.261.138.5-.04.721-.248.308-.613.328-.914.086-.292-.236-.351-.617-.113-.913.268-.332.676-.268.96-.008l-.567.704zm.182-.573c-.156-.084-.274-.083-.38.047-.136.17-.044.325.028.39l.352-.437z" mask="url(#ah)"/>
                    </g>
                    <g transform="translate(30.55 12.918)">
                        <mask id="aj" fill="#fff">
                            <use xlink:href="#ai"/>
                        </mask>
                        <path fill="#FFF" d="M11.52 6.947c.11.185.099.329-.05.514a2.023 2.023 0 0 1-.142.156l-.22-.177c.044-.048.095-.095.135-.15.065-.1-.006-.207-.108-.24l-1.19-.392.23-.287.846.317.003-.004-.495-.751.223-.277.768 1.29z" mask="url(#aj)"/>
                    </g>
                </g>
            </g>
        </g>
    </g>
</svg>
