<svg xmlns="http://www.w3.org/2000/svg" xmlns:xlink="http://www.w3.org/1999/xlink" width="153" height="147" viewBox="0 0 153 147">
    <defs>
        <circle id="a" cx="87.833" cy="83.833" r="70.833"/>
        <path id="c" d="M.012 0h108.847v105.021H.012z"/>
        <path id="e" d="M.026.258h108.848v105.02H.026z"/>
        <path id="g" d="M0 311.667h169.711V.257H0z"/>
        <path id="h" d="M.034 19.312l22.822 18.396 15.343-19.034L15.378.278"/>
        <path id="j" d="M.034 19.312l22.822 18.396 15.343-19.034L15.378.278"/>
        <path id="l" d="M.034 19.312l22.822 18.396 15.343-19.034L15.378.278"/>
        <path id="n" d="M.034 19.312l22.822 18.396 15.343-19.034L15.378.278z"/>
        <path id="p" d="M.034 19.312l22.822 18.396 15.343-19.034L15.378.278z"/>
        <path id="r" d="M.034 19.312l22.822 18.396 15.343-19.034L15.378.278z"/>
        <path id="t" d="M.034 19.312l22.822 18.396 15.343-19.034L15.378.278z"/>
        <path id="v" d="M.034 19.312l22.822 18.396 15.343-19.034L15.378.278z"/>
        <path id="x" d="M.034 19.312l22.822 18.396 15.343-19.034L15.378.278"/>
        <path id="z" d="M.034 19.312l22.822 18.396 15.343-19.034L15.378.278z"/>
        <path id="B" d="M.034 19.312l22.822 18.396 15.343-19.034L15.378.278z"/>
        <path id="D" d="M.034 19.312l22.822 18.396 15.343-19.034L15.378.278z"/>
        <path id="F" d="M0 0h182.75v110.5H0z"/>
        <path id="H" d="M.012 0h108.847v105.021H.012z"/>
        <path id="J" d="M.026.258h108.848v105.02H.026z"/>
        <path id="L" d="M.034 19.312l22.822 18.396 15.343-19.034L15.378.278"/>
        <path id="N" d="M.034 19.312l22.822 18.396 15.343-19.034L15.378.278"/>
        <path id="P" d="M.034 19.312l22.822 18.396 15.343-19.034L15.378.278"/>
        <path id="R" d="M.034 19.312l22.822 18.396 15.343-19.034L15.378.278z"/>
        <path id="T" d="M.034 19.312l22.822 18.396 15.343-19.034L15.378.278z"/>
        <path id="V" d="M.034 19.312l22.822 18.396 15.343-19.034L15.378.278z"/>
        <path id="X" d="M.034 19.312l22.822 18.396 15.343-19.034L15.378.278z"/>
        <path id="Z" d="M.034 19.312l22.822 18.396 15.343-19.034L15.378.278z"/>
        <path id="ab" d="M.034 19.312l22.822 18.396 15.343-19.034L15.378.278"/>
        <path id="ad" d="M.034 19.312l22.822 18.396 15.343-19.034L15.378.278z"/>
        <path id="af" d="M.034 19.312l22.822 18.396 15.343-19.034L15.378.278z"/>
        <path id="ah" d="M.034 19.312l22.822 18.396 15.343-19.034L15.378.278z"/>
    </defs>
    <g fill="none" fill-rule="evenodd" transform="translate(-16.833 -7.667)">
        <mask id="b" fill="#fff">
            <use xlink:href="#a"/>
        </mask>
        <use fill="#FF7900" fill-rule="nonzero" xlink:href="#a"/>
        <g mask="url(#b)">
            <path fill="#8F8F8F" d="M127.55 134.015l-.01.012.01-.012z"/>
            <path fill="#3F403F" d="M151.435 90.536a3.38 3.38 0 1 1-6.758 0 3.38 3.38 0 0 1 6.758 0"/>
            <path fill="#714F47" d="M35.64 124.965c-.17-1.508-8.664-1.568-8.664-1.568s-2.484 18.157-3.255 24.397c-1.075.738-3.332 2.316-4.178 2.645-2.544.99-5.252 2.13-6.91 3.08-1.236.708-2.999 2.199-3.631 3.136-1.333 1.974-.545 3.361.414 2.923 1.415-.647 5.346-2.547 5.346-2.547-2.066 1.586-4.74 4.46-4.155 5.276.18.249 1.224-.328 3.434-2.19 6.578-5.542 10.408-6.186 10.408-6.186s-.436 1.88-1.03 3.389c-.415 1.055.718 1.506 1.025 1.44.66-.14 1.914-5.582 2.751-7.312.504-1.04-.042-2.041-.558-2.676 1.841-4.505 9.152-22.488 9.003-23.807"/>
            <path fill="#FFD200" d="M53.117 139.974l-8.04 75.5 10.783 1.716 11.46-54.352c.35-.868 1.642-.609 1.629.327l-3.777 55.25s4.92.993 9.067-.735 12.744-81.161 12.744-81.161-25.918-5.184-33.867 3.455"/>
            <path fill="#000" d="M64.682 181.412l17.399-2.696c6.118-.754 6.358-40.24 5.534-46.35-4.554-33.783 1.825-29.033 1.06-36.05 0 0-6.839-16.654-15.065-15.786l-10.32.976-13.825 4.093L39.4 93.703c-7.238 5.887-1.108 19.05-1.108 19.05s11.932 22.833 5.56 64.983c-.785 5.197 15.614 4.319 20.83 3.676"/>
            <path fill="#62352D" d="M44.414 76.164c2.506 5.112 5.438 14.885 5.673 15.197.232.308 4.635 2.943 7.199 4.874.644.486 1.847.167 2.317-.618 1.651-2.756 1.477-3.792 3.622-7.747-.706-2.618-4.01-12.764-5.428-16.382-3.06 2.143-6.746 3.737-10.45 4.52M34.736 67.707c-.62-1.365-2.478-1.868-3.852-1.27-.332.144-.655.353-.826.672-.225.418-.144.93-.025 1.39.693 2.684 2.448 4.961 4.33 6.996.729.79 1.565 1.597 2.63 1.747.39.055.839-.008 1.087-.315.15-.185.203-.427.243-.66a9.247 9.247 0 0 0 .023-2.947M58.142 61.124a7.103 7.103 0 0 1 .542-3.532c.099-.228.22-.461.428-.595.182-.116.407-.14.621-.13.856.037 1.636.56 2.155 1.242.52.68.812 1.506 1.041 2.33.672 2.417.868 4.964.573 7.453-.063.54-.157 1.097-.457 1.55-.3.453-.86.777-1.387.644-.57-.143-.892-.729-1.148-1.257"/>
            <path fill="#020202" d="M34.861 71.372c-2.491-5.798-6.723-15.251-6.789-16.978-.131-3.423.237-9.714 10.288-14.274 6.229-2.826 15.306.136 17.152 3.753.477.936 4.7 14.865 5.417 20.749a129.66 129.66 0 0 0-18.826 6.513"/>
            <path fill="#714F47" d="M56.06 53.83c-1.243-2.344-.829-1.22-3.55-4.501-.799-.965-5.628-.156-10.25 1.16-4.662 1.328-9.285 3.342-10.028 5.26 0 0 .662 2.749.561 4.914-.207 4.46 1.42 10.465 2.233 11.901.4.704 1.928 2.895 4.047 5.599 1.537 1.25 5.744 5.023 13.02 7.282.635-.068 1.272-.138 1.9-.279 1.327-.297 2.72-1.01 3.879-1.872 1.876-3.75 3.384-7.639 3.81-11.916-.178-2.684-.47-4.775-.749-5.592-.713-2.083-2.701-7.857-4.874-11.956"/>
            <path fill="#62352D" d="M41.483 63.403s-.025-.036-.082-.1a1.552 1.552 0 0 0-.288-.246c-.275-.188-.79-.399-1.5-.358-.349.017-.733.095-1.094.248-.364.153-.707.38-1.046.638-.663.53-1.47 1.076-1.764 1.788l.011-.116c.014-.076.038-.191.105-.337.126-.294.45-.705.942-1.147.244-.22.513-.465.868-.704a3.63 3.63 0 0 1 1.349-.569c.527-.102 1.105-.086 1.574.08.467.161.812.465.925.823M55.743 58.75s-.017-.04-.065-.104a.83.83 0 0 0-.276-.222c-.286-.145-.781-.304-1.414-.374a3.71 3.71 0 0 0-2.27.503c-.385.23-.7.565-.968.939-.134.186-.265.383-.393.577-.121.19-.236.39-.18.555.005.007-.145-.12 0-.472.068-.169.163-.367.287-.604.126-.234.292-.509.564-.795.545-.59 1.599-1.052 2.549-1.04.475.001.917.1 1.307.262.371.161.806.371.859.774M45.067 70.103c2.398.505 5.043-.46 6.553-2.39a3.371 3.371 0 0 1-.667 2.991c-.246.291-.54.539-.856.753-.546.37-1.17.646-1.826.71-1.321.128-2.677-.708-3.156-1.946M45.22 68.51l.016-.228c.011-.148.034-.364.039-.64.023-.55.02-1.336-.098-2.263a14.132 14.132 0 0 0-1.484-4.756c-.14-.28-.302-.55-.461-.83-.165-.272-.336-.536-.581-.738 0 0 .068.022.19.09s.293.192.487.38c.375.38.896.968 1.363 1.813a8.662 8.662 0 0 1 1.03 3.19c.15 1.252.021 2.669-.5 3.982"/>
            <path fill="#020202" d="M39.714 57.365l-.158.048c-.05.013-.112.035-.182.062l-.112.04-.123.055c-.345.147-.786.42-1.274.805-.49.386-1.034.886-1.647 1.432a45.037 45.037 0 0 1-2.062 1.74s0-.236.102-.632c.102-.395.298-.95.676-1.55a5.283 5.283 0 0 1 1.77-1.743 3.969 3.969 0 0 1 1.432-.515c.267-.035.542-.04.813-.002.271.043.535.13.765.26M47.032 55.547l.168-.076c.051-.026.118-.054.197-.084l.124-.05.143-.048c.399-.138.972-.254 1.672-.322.701-.07 1.534-.096 2.46-.138.928-.035 1.951-.11 3.042-.21 0 0-.182-.167-.571-.378a6.434 6.434 0 0 0-1.749-.63 6.692 6.692 0 0 0-2.803.002 4.912 4.912 0 0 0-1.578.64c-.247.162-.479.353-.673.57a2.279 2.279 0 0 0-.432.724M52.092 85.445s3.138 1.977 3.9 1.716c.94-.322.726-.95 1.89-3.44.06-.13.101-.34-.01-.427-1.502-1.169-5.927 1.837-5.78 2.151"/>
            <path fill="#FDD230" d="M59.158 59.92c.182 1.35.42 4.255-3.84 5.801-4.26 1.548-5.635-.688-6.926-2.644-1.293-1.955.481-3.1.481-3.1 4.897-3.491 9.202-2.763 9.202-2.763.492.05.9 1.352 1.083 2.706m-14.5 4.277c-.004 2.345.079 4.969-4.328 6.022-4.406 1.054-5.806-1.501-6.399-2.731-.59-1.228-.97-2.543-.584-2.853 0 0 3.191-2.977 9.203-2.762 0 0 2.112-.02 2.108 2.324m2.579-4.849s-.19 1.429-1.468 1.777c-1.257.412-2.197-.676-2.197-.676-8.048-.073-13.03 4.38-13.03 4.38l.339 1.122c.416.886 1.497 1.032 1.497 1.032.944 2.274 2.857 6.054 8.618 4.327 5.76-1.727 4.642-5.206 4.67-6.478.028-1.271.8-1.393.8-1.393s.711-.322 1.433.723c.723 1.046 1.706 4.568 7.465 2.837 5.76-1.728 5.276-5.94 4.81-8.357 0 0 .826-.718.683-1.683l-.338-1.127s-6.607-.973-13.282 3.516"/>
            <path fill="#000" d="M59.158 59.92c.182 1.35.42 4.254-3.84 5.801-4.26 1.548-5.634-.688-6.926-2.644-1.292-1.955.482-3.1.482-3.1 4.896-3.491 9.2-2.763 9.2-2.763.493.05.9 1.352 1.084 2.705m-14.5 4.278c-.004 2.345.079 4.969-4.328 6.022-4.406 1.054-5.806-1.501-6.399-2.731-.59-1.228-.97-2.543-.584-2.853 0 0 3.192-2.977 9.202-2.762 0 0 2.113-.02 2.109 2.324"/>
            <path fill="#FFF" d="M43.66 75.45s7.491.734 11.469-2.369c0 0-.211 11.161-11.47 2.369"/>
            <path fill="#62352D" d="M55.312 78.834l-.02.177c-.012.118-.052.285-.117.5-.137.421-.459 1.014-1.07 1.532a3.69 3.69 0 0 1-2.576.859 3.513 3.513 0 0 1-1.472-.437 5.676 5.676 0 0 1-1.192-.897s.239 0 .64.038c.4.032.963.112 1.564.106a5.902 5.902 0 0 0 1.955-.392 6.713 6.713 0 0 0 1.117-.541 5.47 5.47 0 0 0 1.171-.945"/>
            <path fill="#020202" d="M28.35 54.788s-5.332-4.668-2.857-5.028c2.474-.36-.812-4.268 1.812-4.193 2.623.077.79-4.329 3.517-3.476 2.727.852 1.667-4.143 3.958-3.141 2.29 1.001 3.173-4.009 5.277-2.132 2.104 1.878 3.22-4.349 4.895-1.35 1.676 2.997 3.816-2.606 5.492.392 1.675 2.998 3.724-1.925 4.433 1.567.708 3.492 4.068-1.393 3.328 3.082-.742 4.475-2.5 9.298-1.86 10.215.638.918-4.76-5.839-6.362-5.777-1.602.062-12.841 3.747-12.841 3.747l-8.791 6.094z"/>
            <path fill="#000" d="M69.338 81.55S84.372 69.19 88.591 68.82c4.22-.37 14.845.112 14.274 6.53-.57 6.418 2.876 14.954 2.876 14.954S76.617 106.08 76.02 106.893c-.597.814-9.642-21.835-6.682-25.343"/>
            <path fill="#62352D" d="M74.862 76.671l12.174-5.346 27.223-52.344 28.06 15.11 9.316-4.562 5.256 5.683s-10.203 12.62-12.57 16.008c-2.366 3.388-36.272 33.257-36.272 33.257L91.496 88.09S75.463 86.04 74.862 76.67"/>
            <g transform="translate(60.852 9.652)">
                <mask id="d" fill="#fff">
                    <use xlink:href="#c"/>
                </mask>
                <path fill="#595A5A" d="M107.628 60.117L39.326.874a3.57 3.57 0 0 0-5.026.346L.895 39.404a3.57 3.57 0 0 0 .338 5.039l68.32 59.697a3.57 3.57 0 0 0 5.05-.355L107.99 65.15a3.57 3.57 0 0 0-.362-5.032" mask="url(#d)"/>
            </g>
            <g transform="translate(60.53 7.398)">
                <mask id="f" fill="#fff">
                    <use xlink:href="#e"/>
                </mask>
                <path fill="#8F8F8F" d="M107.643 60.374L39.34 1.131a3.57 3.57 0 0 0-5.027.346L.91 39.66a3.57 3.57 0 0 0 .338 5.039l68.32 59.697a3.57 3.57 0 0 0 5.05-.355l33.387-38.636a3.57 3.57 0 0 0-.362-5.032" mask="url(#f)"/>
            </g>
            <path fill="#000" d="M158.822 65.733L101.933 16.39a2.974 2.974 0 0 0-4.186.288L69.924 48.48a2.973 2.973 0 0 0 .282 4.198l56.903 49.721a2.974 2.974 0 0 0 4.206-.295l27.809-32.18a2.974 2.974 0 0 0-.302-4.19"/>
            <path fill="#714F47" d="M112.43 28.898l-1.872-1.12c-2.435-1.458-3.235-4.643-1.777-7.078l4.614-7.708c1.457-2.435 4.642-3.234 7.078-1.777l1.871 1.121c2.436 1.458 3.236 4.643 1.778 7.078l-4.614 7.707c-1.458 2.436-4.643 3.235-7.078 1.777"/>
            <path fill="#91766F" d="M113.903 17.167l-.095.008h-.003c-.19.015-.354.082-.434.217l-1.83 3.056c-.23.384.019.958.551 1.277l5.108 3.058c.533.319 1.156.265 1.386-.118l1.79-2.99c.154-.257-.011-.64-.369-.854l-6.104-3.654z"/>
            <path fill="#714F47" d="M124.08 35.326l-1.871-1.12c-2.436-1.459-3.236-4.644-1.778-7.08l4.614-7.706c1.458-2.435 4.643-3.235 7.078-1.777l1.872 1.12c2.435 1.458 3.235 4.643 1.777 7.078l-4.614 7.708c-1.458 2.435-4.643 3.234-7.078 1.777"/>
            <path fill="#91766F" d="M125.554 23.594l-.095.008h-.003c-.19.015-.354.082-.435.217l-1.829 3.056c-.23.384.018.959.55 1.278l5.108 3.057c.533.32 1.157.266 1.386-.118l1.79-2.989c.154-.258-.01-.64-.368-.855l-6.104-3.654z"/>
            <path fill="#714F47" d="M134.373 41.313l-1.872-1.12c-2.435-1.458-3.235-4.643-1.777-7.078l4.614-7.707c1.458-2.436 4.643-3.236 7.078-1.778l1.872 1.12c2.435 1.459 3.235 4.644 1.777 7.079l-4.614 7.707c-1.458 2.436-4.643 3.235-7.078 1.777"/>
            <path fill="#91766F" d="M135.846 29.581l-.094.008h-.004c-.19.016-.353.083-.434.218l-1.83 3.055c-.23.384.019.96.551 1.278l5.108 3.058c.533.319 1.157.265 1.386-.118l1.79-2.99c.154-.257-.011-.64-.369-.855l-6.104-3.654z"/>
            <path fill="#714F47" d="M148.532 40.706l-1.871-1.12c-2.436-1.458-3.236-4.643-1.778-7.079l4.614-7.707c1.458-2.435 4.643-3.234 7.078-1.777l1.872 1.12c2.435 1.458 3.235 4.644 1.777 7.079l-4.614 7.707c-1.457 2.435-4.643 3.235-7.078 1.777"/>
            <path fill="#91766F" d="M150.006 28.975l-.095.007h-.003c-.19.015-.354.082-.435.218l-1.829 3.055c-.23.384.018.96.55 1.278l5.108 3.058c.533.319 1.157.265 1.387-.118l1.789-2.99c.155-.258-.01-.64-.368-.854l-6.104-3.654z"/>
            <path fill="#714F47" d="M98.261 85.684l-.528 2.117c-.688 2.753-3.503 4.444-6.257 3.756l-15.129-3.778c-2.754-.688-4.444-3.503-3.756-6.257l.528-2.116c.688-2.754 3.503-4.445 6.257-3.757l15.129 3.778c2.754.688 4.444 3.503 3.756 6.257"/>
            <path fill="#91766F" d="M84.922 87.26l.055.094a.78.78 0 0 0 .478.392l4.695 1.172a1.12 1.12 0 0 0 1.346-.827l1.442-5.776a1.12 1.12 0 0 0-.799-1.363l-4.593-1.147a.747.747 0 0 0-.9.554l-1.724 6.902z"/>
            <path fill="#3F403F" d="M75.098 38.006l12.134-13.363M75.71 38.617l12.133-13.363c.746-.822-.472-2.047-1.222-1.222L74.487 37.395c-.746.821.473 2.047 1.222 1.222"/>
            <path fill="#000" d="M36.529 97.469s-7.017 13.655-10.427 24.264a5.496 5.496 0 0 0 1.94 6.074c3.153 2.37 5.86 2.42 10.492-3.136l10.09-11.591-12.095-15.611z"/>
            <path fill="#FFD200" d="M65.768 87.061c-.453-2.04-1.385-3.999-2.86-5.442l-1.497.438c.006.02 1.426 3.87 1.421 5.45-.002.983-2.277 6.623-3.3 7.476-.596.74-5.253-1.068-6.549-1.898-1.221-.783-2.303-1.28-3.201-2.535-.113-.158-.963-2.75-1.41-4.133l-1.33 1.134c-.42.75-.748 1.53-.749 2.244.015.233.051.458.113.68.114.33.279.65.48.96.116.157.252.314.412.473.397.395.818.765 1.25 1.125 3.785 2.199 8.79 5.868 11.446 6.43.5-.3.92-.76 1.265-1.283 1.135-1.722 2.015-3.721 2.863-5.598.734-1.625 1.35-3.306 1.738-5.047a9.985 9.985 0 0 0-.092-.474M29.89 124.299c-1.443-1.163-2.49-2.724-3.16-4.438-.22.632-.43 1.257-.628 1.872a5.496 5.496 0 0 0 1.94 6.074c2.855 2.145 5.345 2.39 9.228-1.708-2.644.442-5.246-.08-7.38-1.8"/>
            <path fill="#FFD200" d="M56.39 97.881l7.614 29.638 5.166-1.36-6.798-30.453zM70.258 106.038l1.087 2.991 9.517-2.175-.816-3.535z"/>
            <path fill="#000" d="M61.557 100.192a1.224 1.224 0 1 1-2.447 0 1.224 1.224 0 0 1 2.447 0M63.324 107.398a1.224 1.224 0 1 1-2.447 0 1.224 1.224 0 0 1 2.447 0M64.955 114.195a1.224 1.224 0 1 1-2.447 0 1.224 1.224 0 0 1 2.447 0M66.315 120.721a1.224 1.224 0 1 1-2.447 0 1.224 1.224 0 0 1 2.447 0"/>
            <g>
                <g transform="translate(93.05 39.595)">
                    <mask id="i" fill="#fff">
                        <use xlink:href="#h"/>
                    </mask>
                    <path fill="#FFF" d="M7.26 12.29l-4.58 5.682a1.48 1.48 0 0 0 2.303 1.856l2.335-2.897.895 8.416c.087.813.816 1.4 1.629 1.313a1.484 1.484 0 0 0 1.315-1.632l-.896-8.415 2.892 2.33a1.48 1.48 0 0 0 2.081-.225 1.48 1.48 0 0 0-.221-2.082l-5.671-4.571a1.48 1.48 0 0 0-2.082.225" mask="url(#i)"/>
                </g>
                <g transform="translate(93.05 39.595)">
                    <mask id="k" fill="#fff">
                        <use xlink:href="#j"/>
                    </mask>
                    <path fill="#FF7900" d="M18.024 15.257l4.58-5.682a1.48 1.48 0 0 0-2.303-1.856l-2.335 2.897-.895-8.416A1.478 1.478 0 0 0 15.443.888a1.484 1.484 0 0 0-1.316 1.63l.896 8.416-2.892-2.33a1.48 1.48 0 0 0-1.86 2.307l5.672 4.571a1.48 1.48 0 0 0 2.08-.225" mask="url(#k)"/>
                </g>
                <g transform="translate(93.05 39.595)">
                    <mask id="m" fill="#fff">
                        <use xlink:href="#l"/>
                    </mask>
                    <path fill="#FFF" d="M13.835 27.108c1.024-1.27 2.573-1.255 3.79-.274 1.181.952 1.526 2.463.502 3.733s-2.573 1.255-3.755.302c-1.216-.98-1.56-2.49-.537-3.761m3.534 2.849c.653-.81.21-1.67-.472-2.221-.717-.578-1.651-.828-2.304-.018-.654.81-.211 1.67.506 2.249.683.55 1.617.8 2.27-.01" mask="url(#m)"/>
                </g>
                <g transform="translate(93.05 39.595)">
                    <mask id="o" fill="#fff">
                        <use xlink:href="#n"/>
                    </mask>
                    <path fill="#FFF" d="M16.998 25.696l.626-.776.55.445.01-.012c-.252-.45-.186-1.06.133-1.457a.782.782 0 0 1 .173-.155l.757.61a1.96 1.96 0 0 0-.265.27c-.482.598-.218 1.152.304 1.572l1.336 1.078-.657.817-2.967-2.392z" mask="url(#o)"/>
                </g>
                <g transform="translate(93.05 39.595)">
                    <mask id="q" fill="#fff">
                        <use xlink:href="#p"/>
                    </mask>
                    <path fill="#FFF" d="M19.569 24.375c-.726-.661-.404-1.53.134-2.197.477-.592 1.183-1.199 1.895-.626l1.543 1.245c.27.217.562.406.743.428l-.667.828a1.534 1.534 0 0 1-.333-.174c.06.476-.148.934-.44 1.296-.454.563-1.096.785-1.704.295-.671-.54-.424-1.176-.085-1.738.328-.56.72-1.012.388-1.28-.35-.282-.596-.082-.828.205-.25.31-.286.614.012.901l-.658.817zm2.122-1.4c.01.235-.216.527-.374.816-.153.295-.252.595.046.835.304.245.569.07.782-.195.514-.638.028-1.068-.15-1.211l-.304-.245z" mask="url(#q)"/>
                </g>
                <g transform="translate(93.05 39.595)">
                    <mask id="s" fill="#fff">
                        <use xlink:href="#r"/>
                    </mask>
                    <path fill="#FFF" d="M21.22 20.46l.626-.777.413.333.013-.017c-.166-.475-.039-.96.24-1.306.699-.868 1.363-.693 2.097-.101l1.824 1.47-.657.817-1.676-1.35c-.487-.394-.844-.444-1.15-.065-.357.443-.263.831.34 1.317l1.554 1.253-.658.816-2.966-2.39z" mask="url(#s)"/>
                </g>
                <g transform="translate(93.05 39.595)">
                    <mask id="u" fill="#fff">
                        <use xlink:href="#t"/>
                    </mask>
                    <path fill="#FFF" d="M28.893 16.624c.487.393 1.174 1.232.071 2.6-.472.586-1.299 1.048-2.008.543l.653-.811c.364.17.667.007.899-.281.366-.454.223-.91-.206-1.247l-.39-.315-.01.012c.166.428.028.904-.26 1.26-.717.892-1.7.726-2.515.07-.769-.62-1.112-1.628-.44-2.461.315-.391.688-.584 1.19-.502l.01-.011-.397-.32.626-.775 2.777 2.238zm-1.957-.297c-.482-.388-1.047-.568-1.473-.04-.37.46-.131.985.31 1.341.425.343 1.02.556 1.423.056.375-.465.165-1.015-.26-1.357z" mask="url(#u)"/>
                </g>
                <g transform="translate(93.05 39.595)">
                    <mask id="w" fill="#fff">
                        <use xlink:href="#v"/>
                    </mask>
                    <path fill="#FFF" d="M28.729 14.585c.535.393.974.33 1.34-.124.264-.328.276-.754.134-.954l.58-.719c.514.795.419 1.524-.124 2.196-.755.937-1.865 1-2.783.26-.89-.717-1.07-1.878-.343-2.78.815-1.012 2.058-.816 2.924-.023l-1.728 2.144zm.554-1.744c-.474-.258-.836-.256-1.155.14-.417.518-.136.991.084 1.188l1.07-1.328z" mask="url(#w)"/>
                </g>
            </g>
            <path fill="#FFF" d="M113.304 70.009l2.085 3.179-.01.011-3.59-1.31-1.024 1.27 4.096 3.302.682-.845-2.875-2.317.01-.011 3.685 1.31.56-.695-2.092-3.346.01-.012 2.903 2.34.68-.844-4.096-3.302z"/>
            <g>
                <g transform="translate(93.05 39.595)">
                    <mask id="y" fill="#fff">
                        <use xlink:href="#x"/>
                    </mask>
                    <path fill="#FFF" d="M23.856 28.095c.755-.937 1.861-1.04 2.808-.277.941.758 1.074 1.86.319 2.798-.75.931-1.857 1.035-2.798.277-.946-.763-1.08-1.866-.329-2.798m2.513 2.026c.45-.557.108-1.108-.363-1.488-.476-.383-1.086-.6-1.536-.043-.445.552-.103 1.103.373 1.487.47.379 1.081.596 1.526.044" mask="url(#y)"/>
                </g>
                <g transform="translate(93.05 39.595)">
                    <mask id="A" fill="#fff">
                        <use xlink:href="#z"/>
                    </mask>
                    <path fill="#FFF" d="M25.46 26.269l.627-.776.413.333.013-.017c-.166-.475-.039-.961.239-1.306.7-.868 1.364-.694 2.098-.101l1.824 1.47-.658.816-1.675-1.35c-.488-.393-.844-.444-1.15-.064-.357.442-.263.83.34 1.317l1.554 1.253-.658.816-2.966-2.391z" mask="url(#A)"/>
                </g>
                <g transform="translate(93.05 39.595)">
                    <mask id="C" fill="#fff">
                        <use xlink:href="#B"/>
                    </mask>
                    <path fill="#FFF" d="M30.3 23.706c.535.394.974.33 1.34-.124.264-.328.277-.754.135-.954l.579-.718c.514.794.42 1.523-.123 2.196-.755.936-1.866.999-2.784.26-.89-.718-1.07-1.878-.343-2.781.815-1.011 2.059-.816 2.924-.023L30.3 23.706zm.554-1.744c-.473-.258-.835-.256-1.155.141-.417.517-.136.99.085 1.187l1.07-1.328z" mask="url(#C)"/>
                </g>
                <g transform="translate(93.05 39.595)">
                    <mask id="E" fill="#fff">
                        <use xlink:href="#D"/>
                    </mask>
                    <path fill="#FFF" d="M35.088 21.16c.333.561.3 1-.153 1.564-.135.166-.28.324-.432.477l-.671-.541c.136-.147.289-.289.413-.454.198-.305-.02-.633-.33-.73l-3.625-1.197.704-.874 2.573.964.01-.011-1.508-2.287.681-.845 2.338 3.933z" mask="url(#E)"/>
                </g>
            </g>
        </g>
        <g transform="translate(0 .25)">
            <mask id="G" fill="#fff">
                <use xlink:href="#F"/>
            </mask>
            <g mask="url(#G)">
                <path fill="#8F8F8F" d="M127.55 133.765l-.01.012.01-.012z"/>
                <path fill="#3F403F" d="M151.435 90.286a3.38 3.38 0 1 1-6.758 0 3.38 3.38 0 0 1 6.758 0"/>
                <path fill="#714F47" d="M35.64 124.715c-.17-1.508-8.664-1.568-8.664-1.568s-2.484 18.157-3.255 24.397c-1.075.738-3.332 2.316-4.178 2.645-2.544.99-5.252 2.13-6.91 3.08-1.236.708-2.999 2.199-3.631 3.136-1.333 1.974-.545 3.361.414 2.923 1.415-.647 5.346-2.547 5.346-2.547-2.066 1.586-4.74 4.46-4.155 5.276.18.249 1.224-.328 3.434-2.19 6.578-5.542 10.408-6.186 10.408-6.186s-.436 1.88-1.03 3.389c-.415 1.055.718 1.506 1.025 1.44.66-.14 1.914-5.582 2.751-7.312.504-1.04-.042-2.041-.558-2.676 1.841-4.505 9.152-22.488 9.003-23.807"/>
                <path fill="#FFD200" d="M53.117 139.724l-8.04 75.5 10.783 1.716 11.46-54.352c.35-.868 1.642-.609 1.629.327l-3.777 55.25s4.92.993 9.067-.735 12.744-81.161 12.744-81.161-25.918-5.184-33.867 3.455"/>
                <path fill="#000" d="M64.682 181.162l17.399-2.696c6.118-.754 6.358-40.24 5.534-46.35-4.554-33.783 1.825-29.033 1.06-36.05 0 0-6.839-16.654-15.065-15.786l-10.32.976-13.825 4.093L39.4 93.453c-7.238 5.887-1.108 19.05-1.108 19.05s11.932 22.833 5.56 64.983c-.785 5.197 15.614 4.319 20.83 3.676"/>
                <path fill="#62352D" d="M44.414 75.914c2.506 5.112 5.438 14.885 5.673 15.197.232.308 4.635 2.943 7.199 4.874.644.486 1.847.167 2.317-.618 1.651-2.756 1.477-3.792 3.622-7.747-.706-2.618-4.01-12.764-5.428-16.382-3.06 2.143-6.746 3.737-10.45 4.52M34.736 67.457c-.62-1.365-2.478-1.868-3.852-1.27-.332.144-.655.353-.826.672-.225.418-.144.93-.025 1.39.693 2.684 2.448 4.961 4.33 6.996.729.79 1.565 1.597 2.63 1.747.39.055.839-.008 1.087-.315.15-.185.203-.427.243-.66a9.247 9.247 0 0 0 .023-2.947M58.142 60.874a7.103 7.103 0 0 1 .542-3.532c.099-.228.22-.461.428-.595.182-.116.407-.14.621-.13.856.037 1.636.56 2.155 1.242.52.68.812 1.506 1.041 2.33.672 2.417.868 4.964.573 7.453-.063.54-.157 1.097-.457 1.55-.3.453-.86.777-1.387.644-.57-.143-.892-.729-1.148-1.257"/>
                <path fill="#020202" d="M34.861 71.122c-2.491-5.798-6.723-15.251-6.789-16.978-.131-3.423.237-9.714 10.288-14.274 6.229-2.826 15.306.136 17.152 3.753.477.936 4.7 14.865 5.417 20.749a129.66 129.66 0 0 0-18.826 6.513"/>
                <path fill="#714F47" d="M56.06 53.58c-1.243-2.344-.829-1.22-3.55-4.501-.799-.965-5.628-.156-10.25 1.16-4.662 1.328-9.285 3.342-10.028 5.26 0 0 .662 2.749.561 4.914-.207 4.46 1.42 10.465 2.233 11.901.4.704 1.928 2.895 4.047 5.599 1.537 1.25 5.744 5.023 13.02 7.282.635-.068 1.272-.138 1.9-.279 1.327-.297 2.72-1.01 3.879-1.872 1.876-3.75 3.384-7.639 3.81-11.916-.178-2.684-.47-4.775-.749-5.592-.713-2.083-2.701-7.857-4.874-11.956"/>
                <path fill="#62352D" d="M41.483 63.153s-.025-.036-.082-.1a1.552 1.552 0 0 0-.288-.246c-.275-.188-.79-.399-1.5-.358-.349.017-.733.095-1.094.248-.364.153-.707.38-1.046.638-.663.53-1.47 1.076-1.764 1.788l.011-.116c.014-.076.038-.191.105-.337.126-.294.45-.705.942-1.147.244-.22.513-.465.868-.704a3.63 3.63 0 0 1 1.349-.569c.527-.102 1.105-.086 1.574.08.467.161.812.465.925.823M55.743 58.5s-.017-.04-.065-.104a.83.83 0 0 0-.276-.222c-.286-.145-.781-.304-1.414-.374a3.71 3.71 0 0 0-2.27.503c-.385.23-.7.565-.968.939-.134.186-.265.383-.393.577-.121.19-.236.39-.18.555.005.007-.145-.12 0-.472.068-.169.163-.367.287-.604.126-.234.292-.509.564-.795.545-.59 1.599-1.052 2.549-1.04.475.001.917.1 1.307.262.371.161.806.371.859.774M45.067 69.853c2.398.505 5.043-.46 6.553-2.39a3.371 3.371 0 0 1-.667 2.991c-.246.291-.54.539-.856.753-.546.37-1.17.646-1.826.71-1.321.128-2.677-.708-3.156-1.946M45.22 68.26l.016-.228c.011-.148.034-.364.039-.64.023-.55.02-1.336-.098-2.263a14.132 14.132 0 0 0-1.484-4.756c-.14-.28-.302-.55-.461-.83-.165-.272-.336-.536-.581-.738 0 0 .068.022.19.09s.293.192.487.38c.375.38.896.968 1.363 1.813a8.662 8.662 0 0 1 1.03 3.19c.15 1.252.021 2.669-.5 3.982"/>
                <path fill="#020202" d="M39.714 57.115l-.158.048c-.05.013-.112.035-.182.062l-.112.04-.123.055c-.345.147-.786.42-1.274.805-.49.386-1.034.886-1.647 1.432a45.037 45.037 0 0 1-2.062 1.74s0-.236.102-.632c.102-.395.298-.95.676-1.55a5.283 5.283 0 0 1 1.77-1.743 3.969 3.969 0 0 1 1.432-.515c.267-.035.542-.04.813-.002.271.043.535.13.765.26M47.032 55.297l.168-.076c.051-.026.118-.054.197-.084l.124-.05.143-.048c.399-.138.972-.254 1.672-.322.701-.07 1.534-.096 2.46-.138.928-.035 1.951-.11 3.042-.21 0 0-.182-.167-.571-.378a6.434 6.434 0 0 0-1.749-.63 6.692 6.692 0 0 0-2.803.002 4.912 4.912 0 0 0-1.578.64c-.247.162-.479.353-.673.57a2.279 2.279 0 0 0-.432.724M52.092 85.195s3.138 1.977 3.9 1.716c.94-.322.726-.95 1.89-3.44.06-.13.101-.34-.01-.427-1.502-1.169-5.927 1.837-5.78 2.151"/>
                <path fill="#FDD230" d="M59.158 59.67c.182 1.35.42 4.255-3.84 5.801-4.26 1.548-5.635-.688-6.926-2.644-1.293-1.955.481-3.1.481-3.1 4.897-3.491 9.202-2.763 9.202-2.763.492.05.9 1.352 1.083 2.706m-14.5 4.277c-.004 2.345.079 4.969-4.328 6.022-4.406 1.054-5.806-1.501-6.399-2.731-.59-1.228-.97-2.543-.584-2.853 0 0 3.191-2.977 9.203-2.762 0 0 2.112-.02 2.108 2.324m2.579-4.849s-.19 1.429-1.468 1.777c-1.257.412-2.197-.676-2.197-.676-8.048-.073-13.03 4.38-13.03 4.38l.339 1.122c.416.886 1.497 1.032 1.497 1.032.944 2.274 2.857 6.054 8.618 4.327 5.76-1.727 4.642-5.206 4.67-6.478.028-1.271.8-1.393.8-1.393s.711-.322 1.433.723c.723 1.046 1.706 4.568 7.465 2.837 5.76-1.728 5.276-5.94 4.81-8.357 0 0 .826-.718.683-1.683l-.338-1.127s-6.607-.973-13.282 3.516"/>
                <path fill="#000" d="M59.158 59.67c.182 1.35.42 4.254-3.84 5.801-4.26 1.548-5.634-.688-6.926-2.644-1.292-1.955.482-3.1.482-3.1 4.896-3.491 9.2-2.763 9.2-2.763.493.05.9 1.352 1.084 2.705m-14.5 4.278c-.004 2.345.079 4.969-4.328 6.022-4.406 1.054-5.806-1.501-6.399-2.731-.59-1.228-.97-2.543-.584-2.853 0 0 3.192-2.977 9.202-2.762 0 0 2.113-.02 2.109 2.324"/>
                <path fill="#FFF" d="M43.66 75.2s7.491.734 11.469-2.369c0 0-.211 11.161-11.47 2.369"/>
                <path fill="#62352D" d="M55.312 78.584l-.02.177c-.012.118-.052.285-.117.5-.137.421-.459 1.014-1.07 1.532a3.69 3.69 0 0 1-2.576.859 3.513 3.513 0 0 1-1.472-.437 5.676 5.676 0 0 1-1.192-.897s.239 0 .64.038c.4.032.963.112 1.564.106a5.902 5.902 0 0 0 1.955-.392 6.713 6.713 0 0 0 1.117-.541 5.47 5.47 0 0 0 1.171-.945"/>
                <path fill="#020202" d="M28.35 54.538s-5.332-4.668-2.857-5.028c2.474-.36-.812-4.268 1.812-4.193 2.623.077.79-4.329 3.517-3.476 2.727.852 1.667-4.143 3.958-3.141 2.29 1.001 3.173-4.009 5.277-2.132 2.104 1.878 3.22-4.349 4.895-1.35 1.676 2.997 3.816-2.606 5.492.392 1.675 2.998 3.724-1.925 4.433 1.567.708 3.492 4.068-1.393 3.328 3.082-.742 4.475-2.5 9.298-1.86 10.215.638.918-4.76-5.839-6.362-5.777-1.602.062-12.841 3.747-12.841 3.747l-8.791 6.094z"/>
                <path fill="#000" d="M69.338 81.3S84.372 68.94 88.591 68.57c4.22-.37 14.845.112 14.274 6.53-.57 6.418 2.876 14.954 2.876 14.954S76.617 105.83 76.02 106.643c-.597.814-9.642-21.835-6.682-25.343"/>
                <path fill="#62352D" d="M74.862 76.421l12.174-5.346 27.223-52.344 28.06 15.11 9.316-4.562 5.256 5.683s-10.203 12.62-12.57 16.008c-2.366 3.388-36.272 33.257-36.272 33.257L91.496 87.84S75.463 85.79 74.862 76.42"/>
                <g transform="translate(60.852 9.402)">
                    <mask id="I" fill="#fff">
                        <use xlink:href="#H"/>
                    </mask>
                    <path fill="#595A5A" d="M107.628 60.117L39.326.874a3.57 3.57 0 0 0-5.026.346L.895 39.404a3.57 3.57 0 0 0 .338 5.039l68.32 59.697a3.57 3.57 0 0 0 5.05-.355L107.99 65.15a3.57 3.57 0 0 0-.362-5.032" mask="url(#I)"/>
                </g>
                <g transform="translate(60.53 7.148)">
                    <mask id="K" fill="#fff">
                        <use xlink:href="#J"/>
                    </mask>
                    <path fill="#8F8F8F" d="M107.643 60.374L39.34 1.131a3.57 3.57 0 0 0-5.027.346L.91 39.66a3.57 3.57 0 0 0 .338 5.039l68.32 59.697a3.57 3.57 0 0 0 5.05-.355l33.387-38.636a3.57 3.57 0 0 0-.362-5.032" mask="url(#K)"/>
                </g>
                <path fill="#000" d="M158.822 65.483L101.933 16.14a2.974 2.974 0 0 0-4.186.288L69.924 48.23a2.973 2.973 0 0 0 .282 4.198l56.903 49.721a2.974 2.974 0 0 0 4.206-.295l27.809-32.18a2.974 2.974 0 0 0-.302-4.19"/>
                <path fill="#714F47" d="M112.43 28.648l-1.872-1.12c-2.435-1.458-3.235-4.643-1.777-7.078l4.614-7.708c1.457-2.435 4.642-3.234 7.078-1.777l1.871 1.121c2.436 1.458 3.236 4.643 1.778 7.078l-4.614 7.707c-1.458 2.436-4.643 3.235-7.078 1.777"/>
                <path fill="#91766F" d="M113.903 16.917l-.095.008h-.003c-.19.015-.354.082-.434.217l-1.83 3.056c-.23.384.019.958.551 1.277l5.108 3.058c.533.319 1.156.265 1.386-.118l1.79-2.99c.154-.257-.011-.64-.369-.854l-6.104-3.654z"/>
                <path fill="#714F47" d="M124.08 35.076l-1.871-1.12c-2.436-1.459-3.236-4.644-1.778-7.08l4.614-7.706c1.458-2.435 4.643-3.235 7.078-1.777l1.872 1.12c2.435 1.458 3.235 4.643 1.777 7.078l-4.614 7.708c-1.458 2.435-4.643 3.234-7.078 1.777"/>
                <path fill="#91766F" d="M125.554 23.344l-.095.008h-.003c-.19.015-.354.082-.435.217l-1.829 3.056c-.23.384.018.959.55 1.278l5.108 3.057c.533.32 1.157.266 1.386-.118l1.79-2.989c.154-.258-.01-.64-.368-.855l-6.104-3.654z"/>
                <path fill="#714F47" d="M134.373 41.063l-1.872-1.12c-2.435-1.458-3.235-4.643-1.777-7.078l4.614-7.707c1.458-2.436 4.643-3.236 7.078-1.778l1.872 1.12c2.435 1.459 3.235 4.644 1.777 7.079l-4.614 7.707c-1.458 2.436-4.643 3.235-7.078 1.777"/>
                <path fill="#91766F" d="M135.846 29.331l-.094.008h-.004c-.19.016-.353.083-.434.218l-1.83 3.055c-.23.384.019.96.551 1.278l5.108 3.058c.533.319 1.157.265 1.386-.118l1.79-2.99c.154-.257-.011-.64-.369-.855l-6.104-3.654z"/>
                <path fill="#714F47" d="M148.532 40.456l-1.871-1.12c-2.436-1.458-3.236-4.643-1.778-7.079l4.614-7.707c1.458-2.435 4.643-3.234 7.078-1.777l1.872 1.12c2.435 1.458 3.235 4.644 1.777 7.079l-4.614 7.707c-1.457 2.435-4.643 3.235-7.078 1.777"/>
                <path fill="#91766F" d="M150.006 28.725l-.095.007h-.003c-.19.015-.354.082-.435.218l-1.829 3.055c-.23.384.018.96.55 1.278l5.108 3.058c.533.319 1.157.265 1.387-.118l1.789-2.99c.155-.258-.01-.64-.368-.854l-6.104-3.654z"/>
                <path fill="#714F47" d="M98.261 85.434l-.528 2.117c-.688 2.753-3.503 4.444-6.257 3.756l-15.129-3.778c-2.754-.688-4.444-3.503-3.756-6.257l.528-2.116c.688-2.754 3.503-4.445 6.257-3.757l15.129 3.778c2.754.688 4.444 3.503 3.756 6.257"/>
                <path fill="#91766F" d="M84.922 87.01l.055.094a.78.78 0 0 0 .478.392l4.695 1.172a1.12 1.12 0 0 0 1.346-.827l1.442-5.776a1.12 1.12 0 0 0-.799-1.363l-4.593-1.147a.747.747 0 0 0-.9.554l-1.724 6.902z"/>
                <path fill="#3F403F" d="M75.098 37.756l12.134-13.363M75.71 38.367l12.133-13.363c.746-.822-.472-2.047-1.222-1.222L74.487 37.145c-.746.821.473 2.047 1.222 1.222"/>
                <path fill="#000" d="M36.529 97.219s-7.017 13.655-10.427 24.264a5.496 5.496 0 0 0 1.94 6.074c3.153 2.37 5.86 2.42 10.492-3.136l10.09-11.591-12.095-15.611z"/>
                <path fill="#FFD200" d="M65.768 86.811c-.453-2.04-1.385-3.999-2.86-5.442l-1.497.438c.006.02 1.426 3.87 1.421 5.45-.002.983-2.277 6.623-3.3 7.476-.596.74-5.253-1.068-6.549-1.898-1.221-.783-2.303-1.28-3.201-2.535-.113-.158-.963-2.75-1.41-4.133l-1.33 1.134c-.42.75-.748 1.53-.749 2.244.015.233.051.458.113.68.114.33.279.65.48.96.116.157.252.314.412.473.397.395.818.765 1.25 1.125 3.785 2.199 8.79 5.868 11.446 6.43.5-.3.92-.76 1.265-1.283 1.135-1.722 2.015-3.721 2.863-5.598.734-1.625 1.35-3.306 1.738-5.047a9.985 9.985 0 0 0-.092-.474M29.89 124.049c-1.443-1.163-2.49-2.724-3.16-4.438-.22.632-.43 1.257-.628 1.872a5.496 5.496 0 0 0 1.94 6.074c2.855 2.145 5.345 2.39 9.228-1.708-2.644.442-5.246-.08-7.38-1.8"/>
                <path fill="#FFD200" d="M56.39 97.631l7.614 29.638 5.166-1.36-6.798-30.453zM70.258 105.788l1.087 2.991 9.517-2.175-.816-3.535z"/>
                <path fill="#000" d="M61.557 99.942a1.224 1.224 0 1 1-2.447 0 1.224 1.224 0 0 1 2.447 0M63.324 107.148a1.224 1.224 0 1 1-2.447 0 1.224 1.224 0 0 1 2.447 0M64.955 113.945a1.224 1.224 0 1 1-2.447 0 1.224 1.224 0 0 1 2.447 0M66.315 120.471a1.224 1.224 0 1 1-2.447 0 1.224 1.224 0 0 1 2.447 0"/>
                <g>
                    <g transform="translate(93.05 39.345)">
                        <mask id="M" fill="#fff">
                            <use xlink:href="#L"/>
                        </mask>
                        <path fill="#FFF" d="M7.26 12.29l-4.58 5.682a1.48 1.48 0 0 0 2.303 1.856l2.335-2.897.895 8.416c.087.813.816 1.4 1.629 1.313a1.484 1.484 0 0 0 1.315-1.632l-.896-8.415 2.892 2.33a1.48 1.48 0 0 0 2.081-.225 1.48 1.48 0 0 0-.221-2.082l-5.671-4.571a1.48 1.48 0 0 0-2.082.225" mask="url(#M)"/>
                    </g>
                    <g transform="translate(93.05 39.345)">
                        <mask id="O" fill="#fff">
                            <use xlink:href="#N"/>
                        </mask>
                        <path fill="#FF7900" d="M18.024 15.257l4.58-5.682a1.48 1.48 0 0 0-2.303-1.856l-2.335 2.897-.895-8.416A1.478 1.478 0 0 0 15.443.888a1.484 1.484 0 0 0-1.316 1.63l.896 8.416-2.892-2.33a1.48 1.48 0 0 0-1.86 2.307l5.672 4.571a1.48 1.48 0 0 0 2.08-.225" mask="url(#O)"/>
                    </g>
                    <g transform="translate(93.05 39.345)">
                        <mask id="Q" fill="#fff">
                            <use xlink:href="#P"/>
                        </mask>
                        <path fill="#FFF" d="M13.835 27.108c1.024-1.27 2.573-1.255 3.79-.274 1.181.952 1.526 2.463.502 3.733s-2.573 1.255-3.755.302c-1.216-.98-1.56-2.49-.537-3.761m3.534 2.849c.653-.81.21-1.67-.472-2.221-.717-.578-1.651-.828-2.304-.018-.654.81-.211 1.67.506 2.249.683.55 1.617.8 2.27-.01" mask="url(#Q)"/>
                    </g>
                    <g transform="translate(93.05 39.345)">
                        <mask id="S" fill="#fff">
                            <use xlink:href="#R"/>
                        </mask>
                        <path fill="#FFF" d="M16.998 25.696l.626-.776.55.445.01-.012c-.252-.45-.186-1.06.133-1.457a.782.782 0 0 1 .173-.155l.757.61a1.96 1.96 0 0 0-.265.27c-.482.598-.218 1.152.304 1.572l1.336 1.078-.657.817-2.967-2.392z" mask="url(#S)"/>
                    </g>
                    <g transform="translate(93.05 39.345)">
                        <mask id="U" fill="#fff">
                            <use xlink:href="#T"/>
                        </mask>
                        <path fill="#FFF" d="M19.569 24.375c-.726-.661-.404-1.53.134-2.197.477-.592 1.183-1.199 1.895-.626l1.543 1.245c.27.217.562.406.743.428l-.667.828a1.534 1.534 0 0 1-.333-.174c.06.476-.148.934-.44 1.296-.454.563-1.096.785-1.704.295-.671-.54-.424-1.176-.085-1.738.328-.56.72-1.012.388-1.28-.35-.282-.596-.082-.828.205-.25.31-.286.614.012.901l-.658.817zm2.122-1.4c.01.235-.216.527-.374.816-.153.295-.252.595.046.835.304.245.569.07.782-.195.514-.638.028-1.068-.15-1.211l-.304-.245z" mask="url(#U)"/>
                    </g>
                    <g transform="translate(93.05 39.345)">
                        <mask id="W" fill="#fff">
                            <use xlink:href="#V"/>
                        </mask>
                        <path fill="#FFF" d="M21.22 20.46l.626-.777.413.333.013-.017c-.166-.475-.039-.96.24-1.306.699-.868 1.363-.693 2.097-.101l1.824 1.47-.657.817-1.676-1.35c-.487-.394-.844-.444-1.15-.065-.357.443-.263.831.34 1.317l1.554 1.253-.658.816-2.966-2.39z" mask="url(#W)"/>
                    </g>
                    <g transform="translate(93.05 39.345)">
                        <mask id="Y" fill="#fff">
                            <use xlink:href="#X"/>
                        </mask>
                        <path fill="#FFF" d="M28.893 16.624c.487.393 1.174 1.232.071 2.6-.472.586-1.299 1.048-2.008.543l.653-.811c.364.17.667.007.899-.281.366-.454.223-.91-.206-1.247l-.39-.315-.01.012c.166.428.028.904-.26 1.26-.717.892-1.7.726-2.515.07-.769-.62-1.112-1.628-.44-2.461.315-.391.688-.584 1.19-.502l.01-.011-.397-.32.626-.775 2.777 2.238zm-1.957-.297c-.482-.388-1.047-.568-1.473-.04-.37.46-.131.985.31 1.341.425.343 1.02.556 1.423.056.375-.465.165-1.015-.26-1.357z" mask="url(#Y)"/>
                    </g>
                    <g transform="translate(93.05 39.345)">
                        <mask id="aa" fill="#fff">
                            <use xlink:href="#Z"/>
                        </mask>
                        <path fill="#FFF" d="M28.729 14.585c.535.393.974.33 1.34-.124.264-.328.276-.754.134-.954l.58-.719c.514.795.419 1.524-.124 2.196-.755.937-1.865 1-2.783.26-.89-.717-1.07-1.878-.343-2.78.815-1.012 2.058-.816 2.924-.023l-1.728 2.144zm.554-1.744c-.474-.258-.836-.256-1.155.14-.417.518-.136.991.084 1.188l1.07-1.328z" mask="url(#aa)"/>
                    </g>
                </g>
                <path fill="#FFF" d="M113.304 69.759l2.085 3.179-.01.011-3.59-1.31-1.024 1.27 4.096 3.302.682-.845-2.875-2.317.01-.011 3.685 1.31.56-.695-2.092-3.346.01-.012 2.903 2.34.68-.844-4.096-3.302z"/>
                <g>
                    <g transform="translate(93.05 39.345)">
                        <mask id="ac" fill="#fff">
                            <use xlink:href="#ab"/>
                        </mask>
                        <path fill="#FFF" d="M23.856 28.095c.755-.937 1.861-1.04 2.808-.277.941.758 1.074 1.86.319 2.798-.75.931-1.857 1.035-2.798.277-.946-.763-1.08-1.866-.329-2.798m2.513 2.026c.45-.557.108-1.108-.363-1.488-.476-.383-1.086-.6-1.536-.043-.445.552-.103 1.103.373 1.487.47.379 1.081.596 1.526.044" mask="url(#ac)"/>
                    </g>
                    <g transform="translate(93.05 39.345)">
                        <mask id="ae" fill="#fff">
                            <use xlink:href="#ad"/>
                        </mask>
                        <path fill="#FFF" d="M25.46 26.269l.627-.776.413.333.013-.017c-.166-.475-.039-.961.239-1.306.7-.868 1.364-.694 2.098-.101l1.824 1.47-.658.816-1.675-1.35c-.488-.393-.844-.444-1.15-.064-.357.442-.263.83.34 1.317l1.554 1.253-.658.816-2.966-2.391z" mask="url(#ae)"/>
                    </g>
                    <g transform="translate(93.05 39.345)">
                        <mask id="ag" fill="#fff">
                            <use xlink:href="#af"/>
                        </mask>
                        <path fill="#FFF" d="M30.3 23.706c.535.394.974.33 1.34-.124.264-.328.277-.754.135-.954l.579-.718c.514.794.42 1.523-.123 2.196-.755.936-1.866.999-2.784.26-.89-.718-1.07-1.878-.343-2.781.815-1.011 2.059-.816 2.924-.023L30.3 23.706zm.554-1.744c-.473-.258-.835-.256-1.155.141-.417.517-.136.99.085 1.187l1.07-1.328z" mask="url(#ag)"/>
                    </g>
                    <g transform="translate(93.05 39.345)">
                        <mask id="ai" fill="#fff">
                            <use xlink:href="#ah"/>
                        </mask>
                        <path fill="#FFF" d="M35.088 21.16c.333.561.3 1-.153 1.564-.135.166-.28.324-.432.477l-.671-.541c.136-.147.289-.289.413-.454.198-.305-.02-.633-.33-.73l-3.625-1.197.704-.874 2.573.964.01-.011-1.508-2.287.681-.845 2.338 3.933z" mask="url(#ai)"/>
                    </g>
                </g>
            </g>
        </g>
    </g>
</svg>
