<svg xmlns="http://www.w3.org/2000/svg" xmlns:xlink="http://www.w3.org/1999/xlink" width="50" height="50" viewBox="0 0 50 50">
    <defs>
        <circle id="a" cx="25" cy="25" r="25"/>
        <path id="c" d="M0 .282h31.043v57.475H0z"/>
        <path id="e" d="M.469.08h25.948v37.876H.469z"/>
    </defs>
    <g fill="none" fill-rule="evenodd">
        <mask id="b" fill="#fff">
            <use xlink:href="#a"/>
        </mask>
        <use fill="#EEE" fill-rule="nonzero" xlink:href="#a"/>
        <g mask="url(#b)">
            <g transform="translate(-3.125 15.936)">
                <mask id="d" fill="#fff">
                    <use xlink:href="#c"/>
                </mask>
                <path fill="#714E46" d="M13.473 1.422c.186-.747 3.113-3.655 6.038 4.243 2.923 7.9 1.824 8.679 2.223 11.935.397 3.256 9.24 7.615 9.24 7.615s.516.32-1.274 2.194c-1.787 1.875-3.651 4.36-6.613 10.59-3.123 6.567-10.364 19.758-10.364 19.758H0v-4.325s14.765-25.314 14.77-27.314c.003-2 .303-3.78.849-9.06.338-3.269.506-2.957-.277-8.248-.779-5.253-2.188-6.092-1.869-7.388" mask="url(#d)"/>
            </g>
            <g transform="translate(12.444 5.891)">
                <mask id="f" fill="#fff">
                    <use xlink:href="#e"/>
                </mask>
                <path fill="#000" d="M6.977 35.618c.361 1.62 2.015 2.634 3.687 2.26l13.305-2.965c1.675-.373 2.74-1.991 2.377-3.614L19.909 2.42C19.546.8 17.896-.215 16.22.157L2.918 3.122C1.24 3.497.177 5.116.54 6.74l6.437 28.878z" mask="url(#f)"/>
            </g>
            <path fill="#707070" d="M30.56 39.225a1.58 1.58 0 0 1-1.2 1.882 1.573 1.573 0 0 1-1.875-1.196 1.574 1.574 0 1 1 3.074-.686M23.916 9.257a.3.3 0 0 1-.225.353l-2.233.496a.297.297 0 0 1-.354-.224.296.296 0 0 1 .225-.35l2.235-.496a.297.297 0 0 1 .352.22M20.38 10.062a.386.386 0 1 1-.754.168.386.386 0 0 1 .753-.168"/>
            <path fill="#714E46" d="M12.503 32.994c.279-2.575.279-4.951-.278-8.249-.884-5.235-2.188-6.092-1.867-7.387.186-.747 2.988-3.607 6.036 4.243 1.412 3.64 1.372 14.45 1.982 17.946.385 2.202-2.411.121-2.467-.045-.057-.166-3.406-6.508-3.406-6.508"/>
            <path fill="#FF7900" d="M36.144 35.403L30.358 9.446l-3.637.809-3.657.815-7.989 1.781 5.787 25.958 3.36-.749.808-.18v.002z"/>
            <path fill="#FFF" d="M30.26 27.003a5.62 5.62 0 0 1-3.614 2.36 5.615 5.615 0 0 1-4.224-.887 5.627 5.627 0 0 1-2.458-4.658c.047.004.097.005.149.02.026.033.043.026.088.022.092.018.187.055.28.037.114-.053.148-.106.243-.023.085.075.269.085.376.085.061 0 .115-.014.17.017.05.027.084.078.127.113.087.071.172.118.286.125.078.004.158-.005.237 0l.124-.181c-.215.005-.391-.118-.573-.217a.948.948 0 0 0-.319-.124c.002 0-.017-.294-.073-.326-.141-.08-.24.172-.333.232-.23.145-.41-.019-.476-.252-.155-.547.68-.834 1.086-.628.04.02.198.18.238.16.067-.035-.024-.245-.03-.292-.018-.14-.02-.201.1-.306a.427.427 0 0 0 .13-.223c.014-.056.017-.106.048-.148a.548.548 0 0 1 .327-.879l.412-.077c-.01-.004-.018-.008-.028-.01a.398.398 0 0 0-.028-.01.331.331 0 0 0-.122-.021c-.01 0-.02.004-.028.004-.005 0-.02 0-.014-.006.003-.004.012-.005.016-.006l.022-.009.048-.014c.057-.013.116-.008.174-.006.028 0 .057 0 .086-.003a.136.136 0 0 0 .044-.01c.01-.005.04-.001.036-.01-.007-.01-.031-.015-.028-.031.003-.01.018-.019.026-.025.01-.008.022-.014.034-.021.053-.029.103-.06.159-.084a.423.423 0 0 1 .117-.031c.011 0 .03-.005.039.001.01.007.002.021-.002.029a.327.327 0 0 0-.034.158v.008l.42-.08c-.055-.04-.162-.058-.205-.112-.054-.066-.04-.166-.111-.229-.075-.064-.175-.045-.262-.077-.123-.046-.206-.163-.327-.213-.183-.075-.24.045-.415.064-.108.011-.18-.057-.271-.1a.693.693 0 0 0-.533-.04 4.81 4.81 0 0 1 .161-.176h.009c.16-.009.313.05.47.069.033.004.263-.02.242-.029-.044-.018-.214-.025-.095-.061.056.001.196.022.21-.037.063-.071.1-.077.196-.095.079-.08.158-.146.154-.256-.036-.054-.016-.104-.042-.151-.128-.008-.118-.074-.118-.155a.342.342 0 0 0-.123-.04l.03-.02c.124-.083.25-.16.378-.23.094.036.166.094.16.18a.299.299 0 0 0 .153-.035c.01-.006.018-.024.03-.024.016 0 .025.021.033.031.004.005.008.009.01.014l.04-.014a.247.247 0 0 1 .038-.006c.022 0 .046.002.067.014.008.004.035.016.031.028-.003.01-.022.012-.03.014l-.028.007-.047.016c-.014.005-.028.01-.043.011-.019.019.054.008.078.014.02.007.044.005.063.013.033.014-.027.037-.037.044a.923.923 0 0 0-.054.043.251.251 0 0 0-.056.066.118.118 0 0 0-.016.067.15.15 0 0 0 .032.074.63.63 0 0 0 .08.086c.004.004.008.008.012.01.158.133.505.3.716.235.23-.072.155-.37.364-.496.21-.127.433-.23.66-.323.062-.026.122-.061.181-.093.084-.047.17-.083.258-.12.016-.005.031-.008.046-.014.005-.002.04-.015.023-.02-.012-.005-.027-.003-.04-.003l-.044.001c-.027.001-.054.003-.08-.004-.007-.002-.02-.002-.02-.01 0-.012.017-.012.025-.013.031-.004.063-.014.094-.02.033-.005.066-.011.097-.022l.046-.016c.007-.002.02-.003.017-.013a.072.072 0 0 0-.028-.038c-.007-.004-.015-.006-.02-.01-.01-.008-.007-.014-.003-.024.005-.014.011-.03.013-.045l-.003-.052c-.002-.04.067-.06.093-.07.037-.016.097-.045.102-.091.005-.049-.045-.06-.056-.098a5.635 5.635 0 0 1 2.347.614c-.107.123-.153.29.132.347.109.02.171-.113.262-.124.052.032.104.065.155.1.012.021.018.046.007.071-.013.03-.057.077-.095.061-.047-.02-.01-.125-.09-.124a.148.148 0 0 0-.128.093c-.025.065.083.133.056.198-.036.086-.171.05-.236.094-.131.09-.23.25-.37.347-.063.045-.147.054-.219.076-.048.015-.127.036-.144.088-.022.063.167.102.205.118.1.046.159.117.071.214-.109.122-.376-.022-.5.096a.092.092 0 0 0-.015.02l.001.001c.139.11.23.295.206.495a.528.528 0 0 1 .321-.05c.002 0 .003-.003.005-.004.019-.014.041-.023.055-.043.024-.032.004-.076.01-.113.005-.038.03-.062.049-.092.014-.021.022-.048.04-.066.028-.028.074-.029.106-.052.053-.037.006-.105.051-.15.032-.03.078-.024.118-.019.109.011.163-.063.26-.089.01-.003.023-.023.032-.029.03-.019.073-.03.106-.01.026.014.04.045.063.064.036.03.087.039.128.056.048.02.076.022.125.025.053.005.105.043.157.059.04.011.103.028.111.077.015.086-.134.09-.183.102-.018.004-.092.024-.095.043-.004.03.133.052.153.052.058-.002.074-.045.105-.085.027-.034.066-.059.083-.1.014-.034-.013-.062-.015-.095-.001-.028.02-.032.025-.054.008-.043-.087-.062-.114-.066a.47.47 0 0 0-.077-.007c-.016 0-.05.007-.065.001-.054-.022-.07-.072-.122-.1-.181-.05-.065-.184.027-.102.117-.017.168.099.298.085.075.066.141.01.203.1.031.126.057.12.185.177.044.021.054.16.132.123.025-.013.049-.05.067-.071.01-.011.037-.03.042-.046.016-.046-.06-.034-.08-.057-.09-.104.07-.17.153-.181a.072.072 0 0 1 .063.02l.024.03c.017.028.029.063.041.089.014.03.035.059.063.078.012.01.026.016.04.021a5.585 5.585 0 0 1 .28.42c-.05.023-.099.045-.156.038a.425.425 0 0 0-.125-.003c-.078.015-.14-.01-.215-.016-.059-.005-.13-.025-.187-.018-.075.009-.134.057-.138.132-.002.03.002.066-.026.086-.046.033-.114-.004-.164-.005-.04 0-.08.004-.12-.005a.17.17 0 0 1-.05-.02c-.012-.008-.03-.037-.042-.04a.454.454 0 0 0-.195-.012.281.281 0 0 1-.171-.019c-.09-.043 0-.08-.027-.146-.004-.01-.033-.034-.033-.04.006-.113-.106-.066-.185-.03-.15.042-.355.026-.475.111a.85.85 0 0 0-.16.054l.05.031.776.53c.54.372.72 1.076.45 1.65l.013.01c.071.062.042.216.06.298.031.128.074.185.166.274.147.143.327.285.332.507.005.187-.152.338-.047.524.093.162.236.243.315.426.064.15.11.182.211.286.11.113.334.65.55.297a.137.137 0 0 1 .045-.015c-.159.425-.37.83-.63 1.21zm-9.31-6.367c.108-.158.224-.31.347-.456.036.095.127.268.134.28.095.211-.06.096-.12.243-.026.061.056.098.04.148-.06.212-.25-.075-.374-.125a.315.315 0 0 0-.075-.018l.048-.072zm10.937 2.003a6.393 6.393 0 1 0-12.565 2.363 6.393 6.393 0 0 0 12.565-2.363zm-4.177-1.18c-.052.078-.359.526-.774 1.132l-1.329 1.944-1.59 2.327c.013.01.026.02.04.028l.012.009a.238.238 0 0 0 .027.016l.015.01.024.013.015.007.024.012.014.007a.605.605 0 0 1 .038.014.457.457 0 0 0 .043.013l.033.007.013.003a.292.292 0 0 0 .04.006.258.258 0 0 0 .022.002h.015a.281.281 0 0 0 .038.002h.026l.011-.001a.746.746 0 0 0 .037-.003l.008-.001.03-.005.014-.002.023-.004.013-.003.019-.004c.004 0 .009.002.013 0l.046-.009 4.005-.752-1.467-.999 1.448-2.119.031-.045a.773.773 0 0 0-.201-1.075l-.776-.53zm-4.49 4.86l1.388-2.03.338-.495s1.985-2.884 1.977-2.891l-.038-.028-.013-.008a.605.605 0 0 1-.026-.016l-.014-.008-.026-.014-.012-.006-.037-.016h-.002c-.012-.005-.023-.01-.035-.013l-.011-.003-.025-.006-.013-.003a.453.453 0 0 0-.026-.005l-.011-.001a.353.353 0 0 0-.036-.005h-.004a.6.6 0 0 0-.032-.001H26.525l-.013.002-.026.002c-.004 0-.006.004-.01.004-.012.001-.024.006-.035.008h-.005c-.01.003-.02.001-.032.003l-.057.01-.013.004-.058.014-4.005.752 1.46.97-.857 1.251-.623.91a.796.796 0 0 0-.097.7c.051.153.15.29.291.388l.676.462.1.069zm.237.508a.574.574 0 0 1-.317.057c.013.118.038.233.04.352.004.156-.048.306-.078.459-.009.044-.02.1-.003.144.029.07.108.066.082.157-.018.065-.053.127-.08.19a.19.19 0 0 0-.02.11c.005.027.027.048.029.077.002.039-.028.072-.028.11 0 .047.034.1.06.137.111.157.49.379.687.277.072-.037.094-.168.074-.238-.028-.097-.076-.034-.149-.045-.132-.02.04-.32.014-.402-.01-.036-.044-.059-.053-.096-.023-.101.144-.312.223-.364.08-.055.133-.133.197-.2a1.262 1.262 0 0 1-.466-.232.55.55 0 0 1-.212-.493zm3.81-7.25c.034-.004.074-.011.107.002.01.003.07.059.047.07-.027.013-.07.01-.08.045-.004.018.01.035.002.055-.005.014-.03.024-.031.04-.001.038.055-.001.066.026.012.03-.075.074-.07.121.006.038.011.076.058.055.053-.024.082-.083.13-.115.016-.01.052-.013.061-.024.054-.05.14-.027.204-.048.057-.017.084-.09.063-.145-.01-.03-.022-.024-.052-.022-.063.003-.079-.017-.116-.062-.04-.05-.119-.064-.17-.104-.02-.015-.043-.04-.042-.066.002-.029.05-.076-.003-.088-.03-.007-.057.013-.086.015-.04 0-.018-.04-.047-.05-.023-.008-.07.018-.088.029a.18.18 0 0 0-.073.075c-.016.042.008.054.022.088.036.086.062-.014.099.104z"/>
            <path fill="#714E46" d="M36.414 21.986a1.63 1.63 0 0 1-1.224 1.954l-3.377.772a1.631 1.631 0 0 1-.73-3.178l3.376-.773a1.63 1.63 0 0 1 1.955 1.225M37.91 28.876a1.631 1.631 0 0 1-1.224 1.954L33 31.674a1.63 1.63 0 1 1-.729-3.177l3.686-.846a1.63 1.63 0 0 1 1.953 1.225M38.515 32.243c.2.877-.348 1.75-1.225 1.953l-2.655.61a1.63 1.63 0 1 1-.729-3.178l2.655-.61c.876-.202 1.751.348 1.954 1.225M37.307 25.396a1.732 1.732 0 0 1-1.3 2.073l-3.912.898a1.727 1.727 0 0 1-2.07-1.3 1.727 1.727 0 0 1 1.296-2.073l3.913-.898c.93-.213 1.859.37 2.073 1.3"/>
        </g>
    </g>
</svg>
