<svg xmlns="http://www.w3.org/2000/svg" xmlns:xlink="http://www.w3.org/1999/xlink" width="16" height="10" viewBox="0 0 16 10">
    <defs>
        <path id="a" d="M6.404 4.482H1.709c-.57 0-1.033.48-1.033 1.072 0 .592.462 1.072 1.033 1.072H3.91L.321 10.351a1.1 1.1 0 0 0-.273 1.038c.096.372.375.662.734.76.358.1.74-.008 1-.282l3.589-3.725v2.285c0 .592.462 1.072 1.033 1.072.57 0 1.033-.48 1.033-1.072V5.554c0-.592-.463-1.072-1.033-1.072zm9.275-.368a1.006 1.006 0 0 0-1.461 0l-3.589 3.725V5.554c0-.592-.462-1.072-1.033-1.072-.57 0-1.033.48-1.033 1.072v4.873c0 .592.463 1.072 1.033 1.072h4.695c.57 0 1.033-.48 1.033-1.072 0-.592-.462-1.072-1.033-1.072H12.09l3.589-3.725a1.1 1.1 0 0 0 0-1.516z"/>
    </defs>
    <g fill="none" fill-rule="evenodd" transform="translate(0 -3)">
        <mask id="b" fill="#fff">
            <use xlink:href="#a"/>
        </mask>
        <g fill="#FF7900" mask="url(#b)">
            <path d="M0 0h16v16H0z"/>
        </g>
    </g>
</svg>
