<svg xmlns="http://www.w3.org/2000/svg" xmlns:xlink="http://www.w3.org/1999/xlink" width="16" height="16" viewBox="0 0 16 16">
    <defs>
        <path id="a" d="M14.5.4H0v10.64c0 .84.672 1.52 1.5 1.52h2v3.04l3-3.04H16V1.92C16 1.08 15.328.4 14.5.4zm-3 10.133h-7a.998.998 0 0 1-.867-.508 1.025 1.025 0 0 1 .003-1.016l.009-.014L7.136 2.93A.998.998 0 0 1 8 2.427c.356 0 .684.191.864.502l3.5 6.08c.18.314.181.701.003 1.016a.998.998 0 0 1-.867.508zm-3.25-6.08h-.5a.252.252 0 0 0-.25.254v1.266L7.8 8h.4l.3-2.027V4.707a.252.252 0 0 0-.25-.254zM7.5 9.52h1V8.507h-1V9.52z"/>
    </defs>
    <g fill="none" fill-rule="evenodd">
        <mask id="b" fill="#fff">
            <use xlink:href="#a"/>
        </mask>
        <g fill="#FF7900" mask="url(#b)">
            <path d="M0 0h16v16H0z"/>
        </g>
    </g>
</svg>
