<svg xmlns="http://www.w3.org/2000/svg" xmlns:xlink="http://www.w3.org/1999/xlink" width="40" height="40" viewBox="0 0 40 40">
    <defs>
        <path id="a" d="M28.081 9.412H35.5L25.962 0v7.059c0 1.3.949 2.353 2.119 2.353zm-15.44 11.28a1.636 1.636 0 0 0-.588-.204 4.327 4.327 0 0 0-.685-.064h-1.193v2.823h1.193c.229.003.458-.013.685-.047.207-.03.407-.1.587-.204a1.12 1.12 0 0 0 .407-.428c.103-.185.154-.427.154-.725 0-.299-.051-.54-.154-.725a1.121 1.121 0 0 0-.407-.426zm9.43.72a2.043 2.043 0 0 0-.847-.626 2.889 2.889 0 0 0-.763-.188 4.656 4.656 0 0 0-.556-.033h-1.383v5.93h1.774c.3 0 .597-.047.881-.142.29-.099.55-.264.763-.481.24-.251.422-.55.534-.876.134-.36.2-.8.2-1.318a5.416 5.416 0 0 0-.14-1.285 2.548 2.548 0 0 0-.462-.981zm1.506-14.353V0H4.5V37.647C4.5 38.947 5.568 40 6.885 40H35.5V11.765h-7.154c-2.634 0-4.77-2.107-4.77-4.706zm-8.527 15.9c-.117.36-.312.69-.572.968a2.85 2.85 0 0 1-1.021.678c-.42.171-.92.242-1.517.242h-1.765V28.235H8.077v-9.408h3.855c.597 0 1.104.086 1.523.257.386.15.735.383 1.021.68.26.277.454.605.573.963a3.55 3.55 0 0 1 0 2.233l.001-.002zm9.452 2.417a4.16 4.16 0 0 1-.808 1.502c-.368.427-.829.767-1.348.995-.54.242-1.173.363-1.903.362h-4.02v-9.408h4.02a4.972 4.972 0 0 1 1.717.29c.518.186.987.483 1.375.87.387.386.69.87.906 1.45.217.579.326 1.26.327 2.042a6.438 6.438 0 0 1-.266 1.897zm7.421-4.811H28.06v2.164h3.243v1.6H28.06v3.906h-2.098v-9.408h5.961v1.738z"/>
    </defs>
    <g fill="none" fill-rule="evenodd">
        <mask id="b" fill="#fff">
            <use xlink:href="#a"/>
        </mask>
        <g fill="#000" mask="url(#b)">
            <path d="M0 0h40v40H0z"/>
        </g>
    </g>
</svg>
