<svg xmlns="http://www.w3.org/2000/svg" xmlns:xlink="http://www.w3.org/1999/xlink" width="14" height="16" viewBox="0 0 14 16">
    <defs>
        <path id="a" d="M11.232 3.765H14.2L10.385 0v2.824c0 .52.38.94.847.94zM5.056 8.277a.654.654 0 0 0-.235-.082 1.73 1.73 0 0 0-.274-.026H4.07V9.3h.477c.092 0 .183-.005.274-.019a.651.651 0 0 0 .235-.082.448.448 0 0 0 .163-.171.595.595 0 0 0 .061-.29c0-.12-.02-.216-.061-.29a.448.448 0 0 0-.163-.17zm3.773.288a.817.817 0 0 0-.34-.25 1.155 1.155 0 0 0-.305-.076 1.862 1.862 0 0 0-.222-.013h-.553v2.372h.71c.12 0 .238-.019.352-.057a.777.777 0 0 0 .305-.192c.096-.1.169-.22.214-.35.053-.145.08-.32.08-.528a2.166 2.166 0 0 0-.056-.514 1.02 1.02 0 0 0-.185-.392zm.602-5.741V0H1.8V15.059c0 .52.427.941.954.941H14.2V4.706h-2.862c-1.053 0-1.907-.843-1.907-1.882zm-3.41 6.36a1.037 1.037 0 0 1-.23.387 1.14 1.14 0 0 1-.408.271 1.603 1.603 0 0 1-.607.097H4.07v1.356h-.84V7.53h1.543c.238 0 .441.034.609.103.155.06.294.153.409.272.103.11.181.242.228.385.097.29.097.603 0 .893h.001zm3.78.966c-.065.22-.175.425-.323.601-.148.171-.332.307-.54.398-.215.097-.469.145-.761.145H6.569V7.531h1.608c.234-.002.467.037.687.116a1.494 1.494 0 0 1 .912.927c.087.232.13.505.131.817.003.257-.033.513-.106.76zm2.968-1.924h-1.545v.866h1.297v.64h-1.297v1.562h-.84V7.531h2.385v.695z"/>
    </defs>
    <g fill="none" fill-rule="evenodd" transform="translate(-1)">
        <mask id="b" fill="#fff">
            <use xlink:href="#a"/>
        </mask>
        <g fill="#FF7900" mask="url(#b)">
            <path d="M0 0h16v16H0z"/>
        </g>
    </g>
</svg>
