<svg xmlns="http://www.w3.org/2000/svg" xmlns:xlink="http://www.w3.org/1999/xlink" width="341" height="338" viewBox="0 0 341 338">
    <defs>
        <path id="a" d="M0 0h341v338H0z"/>
        <path id="c" d="M.444 2.679h214.088v211.852H.444z"/>
        <path id="e" d="M0 411.413h216.949V.998H0z"/>
    </defs>
    <g fill="none" fill-rule="evenodd">
        <mask id="b" fill="#fff">
            <use xlink:href="#a"/>
        </mask>
        <g mask="url(#b)">
            <g transform="translate(67 5)">
                <g transform="translate(0 196.883)">
                    <mask id="d" fill="#fff">
                        <use xlink:href="#c"/>
                    </mask>
                    <path fill="#704F45" d="M190.845 70.171C174.75 57.21 134.083 56.311 132.29 22.35c-.442-9.833-.894-19.67-.894-19.67H82.24s-.447 9.39-.894 19.67C79.11 56.763 38.885 57.652 22.79 70.17 8.047 81.791 1.79 98.771.444 138.101c4.47 42.911 40.676 76.431 84.476 76.431h129.612c0-11.173-1.34-50.057-1.34-63.912 0-48.274-6.258-67.935-22.347-80.449" mask="url(#d)"/>
                </g>
                <path fill="#000" d="M147.49 242.022c-.45-.893-8.938 16.537-41.118 16.537-31.732 0-40.671-16.983-41.118-16.537-32.18 11.625-59.89 27.71-65.253 45.588v38.437c0 8.492 1.34 16.537 3.575 24.582 11.174 5.814 26.817 4.022 30.392 4.022v39.782c14.302 10.722 28.604 16.98 50.951 16.98h94.304c0-6.705-.447-30.388 0-56.762 4.023 0 25.476 2.682 36.202-8.492 0 0-.893-33.073-1.787-53.186-.447-19.665-30.844-37.99-66.147-50.95M144.361 73.08c9.386-2.681 18.325-15.195 9.386-27.71-8.939-12.514-15.196 10.727-15.196 10.727s4.022 12.514 5.81 16.983"/>
                <path fill="#704F45" d="M133.633 53.416c18.329 15.196 18.329 44.694 19.223 67.04.442 21.9 5.81 63.466 0 70.17-5.815 6.704-43.805 42.906-91.627 4.47-6.704-7.599-13.408-28.158-16.532-37.544-8.94 7.151-24.582 2.235-25.927-21.006-.89-13.408 14.753-20.559 21.457-4.916-4.027-34.861-1.345-69.276 12.957-75.98 14.302-7.15 39.777-31.285 80.449-2.234"/>
                <path fill="#000" d="M35.309 64.142C21.9 54.309 8.045 72.187 16.09 92.746c8.045 20.559 12.515 29.498 14.302 30.392 12.515 4.469 10.28 13.408 12.515 11.62 2.681-1.788 13.855-11.173 8.491-62.124 14.302 1.34 19.219-3.129 19.219-3.129 24.134-7.151 42.459 2.235 53.185-6.704 29.052 4.022 50.952-46.035 14.303-42.46.446-25.028-25.923-23.24-35.309-8.938-13.408-7.598-44.247 4.47-47.822 20.56-3.576 16.089-21.9 8.938-19.665 32.179"/>
                <path fill="#C29473" d="M83.13 136.547c-.447 0-1.341-.447-1.341-.894-2.235-6.704-5.81-8.492-8.492-7.598-2.235.447-4.022 2.681-4.022 5.363 0 .894-.447 1.788-1.341 1.788-.894 0-1.788-.447-1.788-1.34-.447-4.023 2.235-8.046 6.257-8.94 4.023-.894 8.939 1.341 12.068 9.833.446.894 0 1.788-.894 1.788h-.447"/>
                <path fill="#FF7800" d="M54.973 33.75C37.99 39.115 18.324 48.5 31.286 124.48c-10.28 0-10.28 29.944 6.257 31.285 16.09 1.34 8.492-32.18 0-30.839-7.598-64.806 8.492-80.449 11.62-81.343 3.129-2.234 5.81-9.832 5.81-9.832"/>
                <path fill="#C29473" d="M107.711 167.832c-.447 0-.894-.447-1.34-.893-.443-.894-.443-1.788.446-2.235 7.151-4.47 4.47-16.537 1.346-29.051-1.792-6.257-3.133-12.961-3.58-18.772 0-.893.447-1.34 1.345-1.787.89 0 1.336.447 1.783 1.34 0 5.364 1.788 11.62 3.576 17.878 3.128 13.408 6.704 26.816-2.682 32.627-.442.893-.442.893-.894.893M61.678 112.41h-.894c-.894-.447-.894-1.34-.894-2.234 1.788-3.129 7.15-7.151 13.855-8.045.894 0 1.788.447 1.788 1.34 0 .894-.447 1.788-1.341 1.788-5.363.894-10.28 4.023-11.62 6.704 0 .447-.448.447-.894.447M127.824 130.288c-.894 0-1.784-.894-1.341-1.788.894-8.939 5.363-12.067 9.385-12.514 4.023 0 7.598 2.681 8.492 7.15 0 .895-.442 1.789-1.34 1.789-.894 0-1.788-.447-1.788-1.341-.447-2.682-2.682-4.47-5.364-4.47-2.681 0-5.81 2.682-6.257 9.833 0 .894-.894 1.34-1.787 1.34M143.021 102.132c-.451 0-.894 0-1.34-.447-1.788-2.235-7.598-4.023-12.962-3.576-.894 0-1.792-.447-1.792-1.34 0-.895.451-1.789 1.345-1.789 6.704-.893 12.962 1.788 15.643 4.47.447.447.447 1.788 0 2.235 0 0-.447.447-.894.447M104.137 183.028c-5.81 0-12.068-3.576-16.984-9.833-.894-.447-.894-1.34 0-1.788.447-.446 1.788-.446 2.235.447 3.575 4.47 9.385 8.94 15.196 8.492 3.575 0 7.15-2.234 9.832-5.81.447-.894 1.341-.894 2.235-.447.894.447.894 1.34.447 2.235-4.022 4.47-8.045 6.704-12.961 6.704"/>
                <path fill="#000" d="M63.912 186.602c-20.559 0-23.688-10.726-29.498-38.436 0-.894.447-1.788 1.341-1.788.894 0 1.788.447 1.788 1.34 6.257 30.84 8.939 38.438 34.414 35.756.894 0 1.788.447 1.788 1.34 0 .895-.447 1.788-1.34 1.788-3.13-.446-5.811 0-8.493 0"/>
                <path fill="#000" d="M79.555 183.028c.447 2.235-1.34 4.47-4.022 4.47-2.235.446-4.47-1.342-4.47-4.023-.447-2.235 1.341-4.47 4.023-4.47 2.234 0 4.47 1.788 4.47 4.023"/>
                <path fill="#D6D6D6" d="M33.966 359.121c-.446 0-1.34-.447-1.34-1.34 0-21.454-2.235-45.588-3.576-49.164-.447-.447 0-1.34.447-1.34.447-.448 1.34 0 1.34.446 1.789 4.47 4.023 29.498 4.023 50.057.447.447 0 1.341-.894 1.341M105.926 268.394c-6.704 0-12.067-.894-16.983-2.235-14.754-3.576-25.476-11.174-29.051-16.537-.447-.447-.447-1.34.447-1.792.442-.442 1.34-.442 1.787.451 7.151 10.28 41.566 28.158 79.555 8.488.447-.443 1.341 0 1.341.451.443.447 0 1.341-.451 1.341-13.85 7.598-25.923 9.833-36.645 9.833M145.701 255.88c-.447 0-.447 0-.894-.451-.447-.443-.447-1.337 0-1.783l5.815-5.364c.442-.451 1.336-.451 1.783 0 .452.443.452 1.341 0 1.784l-5.81 5.363c-.442 0-.894.451-.894.451M179.222 385.492c-.447 0-1.341-.45-1.341-1.345V365.38c-.443-30.839-.443-56.761.894-60.336 0-.452.898-.894 1.34-.894.447 0 .894.894.894 1.34-1.336 3.571-.894 37.092-.894 59.439v18.776c0 1.336-.442 1.787-.893 1.787"/>
                <path fill="#D6D6D6" d="M178.776 322.921c-.893 0-1.34-.451-1.34-1.345.447-3.124 1.787-10.28 4.916-11.616.442-.447 1.34 0 1.34.442.448.452 0 1.346-.446 1.346-1.341.447-3.129 5.358-3.576 9.385 0 1.337-.447 1.788-.894 1.788"/>
                <mask id="f" fill="#fff">
                    <use xlink:href="#e"/>
                </mask>
                <path fill="#FF7800" d="M150.618 323.366h16.984v-16.983h-16.984z" mask="url(#f)"/>
                <path fill="#FFF" d="M152.406 320.685h13.408v-2.235h-13.408zM49.61 272.863c.446 2.235 1.34 4.47 1.787 6.704" mask="url(#f)"/>
                <path fill="#FFF" d="M48.717 273.308c.447 2.235 1.34 4.47 1.788 6.704.446 1.341 2.234.894 2.234-.447-.447-2.234-1.34-4.47-1.788-6.704-.893-1.336-2.681-.894-2.234.447M53.186 287.166c.894 2.235 1.341 4.47 1.341 6.253" mask="url(#f)"/>
                <path fill="#FFF" d="M52.291 287.611c.894 1.788 1.341 4.023.894 6.257 0 1.341 2.235 1.341 2.235 0 0-2.234-.447-4.47-1.34-6.704-.448-1.34-2.236-.894-1.789.447M55.868 298.785c.447 3.575.447 6.704.894 10.28" mask="url(#f)"/>
                <path fill="#FFF" d="M54.973 298.785c.447 3.575.447 6.704.894 10.28 0 1.34 2.235 1.34 2.235 0-.447-3.576-.447-6.705-.894-10.28-.447-1.341-2.681-1.341-2.235 0M57.656 317.107v9.39M56.76 317.107v9.39c0 1.337 2.235 1.337 2.235 0v-9.39c-.446-1.34-2.234-1.34-2.234 0M65.252 270.628c.894 1.784 1.341 3.129 2.235 4.917" mask="url(#f)"/>
                <path fill="#FFF" d="M64.36 271.523c.894 1.783 1.34 3.124 2.234 4.916.447 1.337 2.235 0 1.788-.898-.894-1.783-1.34-3.128-2.235-4.912-.447-1.792-2.234-.451-1.787.894M69.722 282.247c0 1.34.446 3.129.446 4.47" mask="url(#f)"/>
                <path fill="#FFF" d="M68.829 282.247c0 1.34.447 3.129.447 4.47 0 1.34 2.235 1.34 2.235 0 0-1.341-.447-3.13-.447-4.47-.447-1.34-2.682-1.34-2.235 0M70.616 294.315c0 2.235.447 4.47.447 6.257" mask="url(#f)"/>
                <path fill="#FFF" d="M69.722 294.315c0 2.235.446 4.47.446 6.257 0 1.341 2.235 1.341 2.235 0 0-2.234-.447-4.47-.447-6.257-.447-1.34-2.234-1.34-2.234 0M72.404 311.748v3.575c0 1.34 2.234 1.34 2.234 0v-3.575c0-1.346-2.234-1.346-2.234 0M71.956 322.921v4.018c0 1.34 2.235 1.34 2.235 0v-4.018c0-1.345-2.235-1.345-2.235 0M80.895 272.863c.447 2.235 1.34 4.47 1.788 6.704" mask="url(#f)"/>
                <path fill="#FFF" d="M79.555 273.308c.447 2.235 1.34 4.47 1.788 6.704.447 1.341 2.235.894 2.235-.447-.447-2.234-1.341-4.47-1.788-6.704-.447-1.336-2.235-.894-2.235.447M84.472 287.166c.894 2.235 1.34 4.47 1.34 6.253" mask="url(#f)"/>
                <path fill="#FFF" d="M83.577 287.611c.894 1.788 1.34 4.023.894 6.257 0 1.341 2.235 1.341 2.235 0 0-2.234-.447-4.47-1.341-6.704-.447-1.34-2.235-.894-1.788.447M87.154 298.785c.447 3.575.447 6.704.894 10.28" mask="url(#f)"/>
                <path fill="#FFF" d="M86.26 298.785c.446 3.575.446 6.704.893 10.28 0 1.34 2.235 1.34 2.235 0-.447-3.576-.447-6.705-.894-10.28-.447-1.341-2.682-1.341-2.235 0M88.941 317.107v9.39M87.6 317.107v9.39c0 1.337 2.234 1.337 2.234 0v-9.39c0-1.34-2.235-1.34-2.235 0M96.538 270.628c.894 1.784 1.34 3.129 2.235 4.917" mask="url(#f)"/>
                <path fill="#FFF" d="M95.645 271.523c.894 1.783 1.341 3.124 2.235 4.916.447 1.337 2.235 0 1.788-.898-.894-1.783-1.341-3.128-2.235-4.912-.447-1.792-2.235-.451-1.788.894M101.007 282.247c0 1.34.447 3.129.447 4.47" mask="url(#f)"/>
                <path fill="#FFF" d="M100.115 282.247c0 1.34.447 3.129.447 4.47 0 1.34 2.234 1.34 2.234 0 0-1.341-.447-3.13-.447-4.47-.447-1.34-2.681-1.34-2.234 0M101.902 294.315c0 2.235.447 4.47.447 6.257" mask="url(#f)"/>
                <path fill="#FFF" d="M101.007 294.315c0 2.235.447 4.47.447 6.257 0 1.341 2.235 1.341 2.235 0 0-2.234-.447-4.47-.447-6.257-.447-1.34-2.235-1.34-2.235 0M103.69 311.748v3.575c0 1.34 2.234 1.34 2.234 0v-3.575c0-1.346-2.235-1.346-2.235 0M103.242 322.921v4.018c0 1.34 2.235 1.34 2.235 0v-4.018c0-1.345-2.235-1.345-2.235 0M144.806 272.863c-.447 2.235-1.34 4.47-1.783 6.704" mask="url(#f)"/>
                <path fill="#FFF" d="M143.916 272.863c-.451 2.235-1.345 4.47-1.788 6.704-.447 1.34 1.788 1.783 2.235.447.442-2.235 1.336-4.47 1.788-6.704.447-1.34-1.788-1.788-2.235-.447M141.232 287.166c-.894 2.235-1.341 4.47-1.341 6.253" mask="url(#f)"/>
                <path fill="#FFF" d="M140.337 286.716c-.89 2.235-1.34 4.47-1.34 6.704 0 1.341 2.234 1.341 2.234 0 0-2.234.451-4.018.894-6.252.898-.899-1.337-1.346-1.788-.452M138.552 298.785c-.451 3.575-.451 6.704-.894 10.28" mask="url(#f)"/>
                <path fill="#FFF" d="M137.657 298.785c-.447 3.575-.447 6.704-.894 10.28 0 1.34 1.788 1.34 2.235 0 .447-3.576.447-6.705.894-10.28 0-1.341-2.235-1.341-2.235 0M167.603 264.819c-.451 2.235-1.34 4.47-1.788 6.704" mask="url(#f)"/>
                <path fill="#FFF" d="M166.263 264.37c-.451 2.234-1.345 4.469-1.788 6.703-.447 1.341 1.788 1.788 2.235.452.442-2.235 1.336-4.47 1.788-6.704.447-1.345-1.788-1.792-2.235-.452M163.579 278.672c-.894 2.235-1.341 4.47-1.341 6.257" mask="url(#f)"/>
                <path fill="#FFF" d="M162.684 278.672c-.89 2.235-1.34 4.47-1.34 6.704 0 1.341 2.234 1.341 2.234 0 0-2.234.451-4.022.894-6.257.898-1.34-1.337-1.787-1.788-.447M161.344 290.74c-.447 3.576-.447 6.705-.894 10.28" mask="url(#f)"/>
                <path fill="#FFF" d="M160.004 290.74c-.447 3.576-.447 6.705-.894 10.28 0 1.341 1.788 1.341 2.235 0 .447-3.575.447-6.704.894-10.28 0-1.34-2.235-1.34-2.235 0M136.762 317.107v9.39M135.868 317.107v9.39c0 1.337 2.234 1.337 2.234 0v-9.39c0-1.34-2.234-1.34-2.234 0M174.307 298.785c-.451 3.575-.451 6.704-.894 10.28" mask="url(#f)"/>
                <path fill="#FFF" d="M172.967 298.785c-.451 3.575-.451 6.704-.894 10.28 0 1.34 1.784 1.34 2.235 0 .442-3.576.442-6.705.894-10.28 0-1.341-2.235-1.341-2.235 0M172.517 317.107v9.39M171.178 317.107v9.39c0 1.337 2.234 1.337 2.234 0v-9.39c0-1.34-2.234-1.34-2.234 0M129.164 270.628c-.89 1.784-1.341 3.129-2.235 4.917" mask="url(#f)"/>
                <path fill="#FFF" d="M128.273 270.179c-.894 1.787-1.345 3.128-2.234 4.92-.452 1.337 1.34 2.235 1.783.894.898-1.792 1.34-3.128 2.235-4.92.45-.894-1.337-2.235-1.784-.894M124.694 282.247c0 1.34-.447 3.129-.447 4.47" mask="url(#f)"/>
                <path fill="#FFF" d="M123.804 282.247c0 1.34-.452 3.129-.452 4.47 0 1.34 1.793 1.34 2.235 0 0-1.341.452-3.13.452-4.47 0-1.34-2.235-1.34-2.235 0M123.804 294.315c0 2.235-.452 4.47-.452 6.257" mask="url(#f)"/>
                <path fill="#FFF" d="M122.91 294.315c0 2.235-.452 4.47-.452 6.257 0 1.341 2.234 1.341 2.234 0 0-2.234.452-4.47.452-6.257 0-1.34-2.235-1.34-2.235 0M120.225 311.748v3.575c0 1.34 2.234 1.34 2.234 0v-3.575c-.447-1.346-2.234-1.346-2.234 0M120.225 322.921v4.018c0 1.34 2.234 1.34 2.234 0v-4.018c0-1.345-2.234-1.345-2.234 0" mask="url(#f)"/>
            </g>
        </g>
        <path fill="#FFF" fill-rule="nonzero" d="M274.666 122.634c-6.305.235-12.461 1.614-18.693 2.449-1.976.263-1.883 3.367.117 3.102 6.227-.836 12.386-2.209 18.69-2.444 2.017-.076 1.902-3.183-.114-3.107m3.915 21.028l-16.26.505c-2.02.058-1.906 3.169.11 3.106l16.262-.51c2.019-.057 1.904-3.164-.112-3.101m-7.544 28.437c-3.818-1.715-7.798-2.96-11.8-4.145-1.942-.577-2.649 2.45-.723 3.02 3.746 1.113 7.474 2.25 11.04 3.856 1.838.827 3.325-1.902 1.483-2.73m-3.378 25.243c-4.51-3.006-8.764-6.376-13.277-9.383-1.656-1.106-3.095 1.594-1.456 2.684 4.513 3.007 8.767 6.377 13.28 9.385 1.653 1.104 3.091-1.596 1.453-2.686m-14.832 21.881c-3.662-2.697-7.277-5.513-10.38-8.855-1.351-1.456-3.624.59-2.273 2.047 3.274 3.53 7.114 6.516 10.979 9.367 1.606 1.18 3.263-1.384 1.674-2.559M41.811 70.624c4.85 1.73 9.907 2.726 14.827 4.196 1.873.559.82 3.394-1.039 2.842-4.924-1.468-9.983-2.467-14.827-4.196-1.84-.656-.796-3.496 1.04-2.838m-8.244 28.877c6.573-.501 13.058.155 19.458 1.744 1.887.469.827 3.31-1.046 2.846a56.401 56.401 0 0 0-17.882-1.604c-1.924.144-2.47-2.84-.53-2.986m-2.905 25.15c5.998-1.007 12.09-.893 18.144-1.316 1.92-.13 2.467 2.854.528 2.99-6.051.42-12.146.31-18.145 1.317-1.914.32-2.446-2.67-.527-2.991m.505 20.862l15.556-2.71c1.929-.338 2.455 2.649.526 2.987l-15.555 2.71c-1.926.337-2.454-2.654-.527-2.987m13.07 25.659c3.246-2.384 6.746-4.347 10.281-6.262 1.718-.93 3 1.821 1.3 2.744-3.304 1.789-6.59 3.609-9.624 5.835-1.567 1.147-3.527-1.168-1.957-2.317m5.75 23.655c4-3.497 7.706-7.314 11.708-10.807 1.468-1.288 3.215 1.2 1.76 2.469-3.997 3.492-7.705 7.314-11.706 10.807-1.47 1.284-3.214-1.205-1.762-2.47m17.235 19.78c3.216-3.096 6.37-6.293 8.957-9.948 1.13-1.588 3.605.156 2.477 1.751-2.73 3.857-6.08 7.25-9.476 10.517-1.407 1.351-3.352-.979-1.958-2.32"/>
    </g>
</svg>
