<svg xmlns="http://www.w3.org/2000/svg" width="12" height="12" viewBox="0 0 12 12">
    <path fill="#FF7900" fill-rule="nonzero" d="M5.905 12c.746 0 1.46-.135 2.143-.405a5.874 5.874 0 0 0 1.81-1.119.238.238 0 0 0 .094-.202c0-.087-.023-.155-.071-.203l-.81-.81a.284.284 0 0 0-.202-.094.332.332 0 0 0-.202.071 3.948 3.948 0 0 1-1.262.774 4.155 4.155 0 0 1-1.5.274 4.124 4.124 0 0 1-2.107-.56 4.128 4.128 0 0 1-1.524-1.524 4.124 4.124 0 0 1-.56-2.107c0-.762.187-1.464.56-2.107a4.128 4.128 0 0 1 1.524-1.524 4.124 4.124 0 0 1 2.107-.56c.714 0 1.377.167 1.988.5A4.147 4.147 0 0 1 9.38 3.763l-2.405-.12a.306.306 0 0 0-.226.084.276.276 0 0 0-.083.203v1.119c0 .079.027.146.083.202a.276.276 0 0 0 .202.083h4.762c.08 0 .147-.027.203-.083A.276.276 0 0 0 12 5.048V.286a.276.276 0 0 0-.083-.203.276.276 0 0 0-.203-.083h-1.119a.276.276 0 0 0-.202.083.306.306 0 0 0-.083.227l.095 1.952a5.89 5.89 0 0 0-2-1.524 5.81 5.81 0 0 0-2.5-.548 5.724 5.724 0 0 0-2.953.798A5.967 5.967 0 0 0 .798 3.143 5.746 5.746 0 0 0 0 6.107C0 7.18.266 8.163.798 9.06a5.996 5.996 0 0 0 2.154 2.142A5.724 5.724 0 0 0 5.905 12z"/>
</svg>
