<svg xmlns="http://www.w3.org/2000/svg" xmlns:xlink="http://www.w3.org/1999/xlink" width="50" height="50" viewBox="0 0 50 50">
    <defs>
        <circle id="a" cx="25" cy="25" r="25"/>
        <path id="c" d="M0 0h50v40.123H0z"/>
        <path id="e" d="M0 0h29.63v55.556H0z"/>
        <path id="g" d="M0 0h14.815v58.025H0z"/>
    </defs>
    <g fill="none" fill-rule="evenodd">
        <mask id="b" fill="#fff">
            <use xlink:href="#a"/>
        </mask>
        <use fill="#EEE" fill-rule="nonzero" xlink:href="#a"/>
        <g mask="url(#b)">
            <g transform="translate(-3.704 6.79)">
                <mask id="d" fill="#fff">
                    <use xlink:href="#c"/>
                </mask>
                <path fill="#000" d="M49.957 29.101a1.856 1.856 0 0 1-1.42 2.21L8.276 40.08a1.857 1.857 0 0 1-2.213-1.42L.043 11.02a1.857 1.857 0 0 1 1.423-2.21L41.726.043a1.856 1.856 0 0 1 2.21 1.418l6.02 27.64z" mask="url(#d)"/>
            </g>
            <path fill="#707070" d="M40.722 21.641a1.539 1.539 0 0 1 1.835 1.178 1.544 1.544 0 0 1-3.015.659 1.543 1.543 0 0 1 1.18-1.837"/>
            <path fill="#469751" d="M41.347 36.718l-5.68-26.224L25.31 12.76l-.001.002L.617 18.17l5.694 26.273 35.047-7.676z"/>
            <path fill="#FFF" d="M30.503 24.505a.58.58 0 1 0-1.12.311c.212.764.32 1.552.32 2.344 0 5.606-5.293 9.975-11.153 8.384-2.565-.697-5.252-3.381-5.947-5.946-1.59-5.86 2.78-11.152 8.385-11.152.796 0 1.588.108 2.355.322a.58.58 0 1 0 .312-1.12 9.883 9.883 0 0 0-2.667-.364c-6.314 0-11.245 5.925-9.534 12.518.778 3.002 3.89 6.114 6.892 6.893 6.593 1.71 12.518-3.22 12.518-9.535 0-.897-.12-1.79-.361-2.655m-2.725-3.517a.617.617 0 1 0 0-1.235.617.617 0 0 0 0 1.235m-1.852-1.235a.617.617 0 1 0 0-1.234.617.617 0 0 0 0 1.234m3.086 3.087a.617.617 0 1 0 0-1.235.617.617 0 0 0 0 1.235m-6.175 6.895c-.49.49-1.732-.535-2.804-1.608-1.072-1.073-2.097-2.315-1.607-2.806 1.232-1.233 1.315-1.137.07-2.687-1.245-1.55-1.196-1.272-2.757.321-.82.885-.04 3.717 2.853 6.613 2.894 2.896 5.8 3.641 6.609 2.855 1.663-1.653 1.793-1.56.32-2.758-1.548-1.246-1.458-1.157-2.684.07"/>
            <g transform="translate(27.16 25.926)">
                <mask id="f" fill="#fff">
                    <use xlink:href="#e"/>
                </mask>
                <path fill="#C19372" d="M29.63 55.55c-.094-.717-6.724-25.429-7.375-29.797-.176-1.177-.497-2.406-.342-3.472.328-2.246.353-2.561.396-5.08.045-2.557.028-6.678-1.321-7.03-1.349-.354-1.773.822-2.456.853-.933.04-.88-1.405-2.14-1.327-1.504.097-1.342 1.41-2.322 1.456-.795.037-.787-1.293-2.162-1.24-1.507.058-1.177 1.522-2.598 1.744-.723.111-.838-.438-3.22-4.967C4.232 3.157 2.707-.655.6.096c-1.741.913.565 4.987 3.64 12.063.653 1.506 1.343 3.028 1.15 3.166-1.317.98-1.185 3.09-.3 4.36 1.052 1.509 3.904 5.191 5.056 6.75 1.113 1.505 6.875 25.287 7.768 29.115 0 .018 11.724-.013 11.716 0" mask="url(#f)"/>
            </g>
            <g transform="translate(-6.173 23.457)">
                <mask id="h" fill="#fff">
                    <use xlink:href="#g"/>
                </mask>
                <path fill="#C19372" d="M11.088 5.92c-.86.179-.492 6.035-1.463 9.736-.585 2.226-1.19 2.418-1.994 1.852-.079-.056-3.037-14.693-3.037-14.693S3.157-1.13 1.56.32c-.754.684.885 7.256.755 14.028-.13 6.773-.146 13.35-.46 20.043C1.541 41.08.13 55.04 0 58.025h10.612s1.725-29.399 2.185-31.035c.614-2.187 1.137-3.411 1.569-6.59.53-3.94.532-4.403.307-6.923-.295-3.316-1.088-8.073-3.585-7.558" mask="url(#h)"/>
            </g>
        </g>
    </g>
</svg>
