<svg xmlns="http://www.w3.org/2000/svg" xmlns:xlink="http://www.w3.org/1999/xlink" width="375" height="70" viewBox="0 0 375 70">
    <defs>
        <path id="prefix__a" d="M0 0H375V70H0z"/>
        <path id="prefix__c" d="M0.526 106.3L84.671 84.755 84.671 0.744 27 0.744z"/>
        <path id="prefix__d" d="M0 3.285l1.307 30.409s9.976-6.958 27.4-1.172c17.436 5.783 22.873-.983 22.873-.983L50.277 1.126s-6.393 4.896-22.053.947C7.274-3.217 0 3.285 0 3.285"/>
        <path id="prefix__e" d="M25.225 3.717c2.723 4.974 1.997 17.036-2.178 36.184l-11.703.208L0 41.249 5.12 7.15C15.8-.113 22.502-1.257 25.225 3.717z"/>
        <path id="prefix__g" d="M0 3.285l1.307 30.409s9.976-6.958 27.4-1.172c17.436 5.783 22.873-.983 22.873-.983L50.277 1.126s-6.393 4.896-22.053.947C7.274-3.217 0 3.285 0 3.285"/>
        <path id="prefix__h" d="M0.263 0.198L8.028 0.198 8.028 7.754 0.263 7.754z"/>
        <path id="prefix__j" d="M13.633.047L.108 2.25l2.729 5.466 13.05-2.126 3.57 21.916 3.84 7.69-5.103-31.327c-.364-2.236-2.11-3.866-4.02-3.866-.18 0-.36.015-.54.044"/>
        <path id="prefix__m" d="M15.262 4.242h-6.19c-.68 0-1.232.549-1.239 1.213v2.424h1.238V5.455h6.19v12.12h-6.19V10.91H7.833v7.879c0 .67.555 1.212 1.238 1.212h6.19c.685 0 1.239-.543 1.239-1.212V5.467c0-.67-.554-1.225-1.238-1.225zm-3.095 15.152c-.342 0-.62-.271-.62-.606 0-.335.278-.606.62-.606.342 0 .619.271.619.606 0 .335-.277.606-.62.606zM4.738 1.212h6.19v2.424h1.239V1.224c0-.67-.555-1.224-1.238-1.224h-6.19C4.053 0 3.5.555 3.5 1.224v13.321c0 .67.554 1.213 1.238 1.213h2.476v-2.425H4.738V1.213zm7.02 8.45c.077-.075.12-.176.12-.282 0-.106-.043-.208-.12-.282L9.69 7.273v1.212H7.982c-.458 0-.77-.391-.77-.83v-.43c-.421.314-.642.807-.642 1.359 0 .952.644 1.719 1.882 1.719H9.69v1.212l2.067-1.854z"/>
        <path id="prefix__o" d="M7 0.232L37.607 0.232 37.607 59.306 0.931 99.461z"/>
        <linearGradient id="prefix__k" x1="40.682%" x2="72.6%" y1="-.304%" y2="69.461%">
            <stop offset="0%" stop-color="#515151"/>
            <stop offset="100%" stop-color="#101010"/>
        </linearGradient>
    </defs>
    <g fill="none" fill-rule="evenodd">
        <mask id="prefix__b" fill="#fff">
            <use xlink:href="#prefix__a"/>
        </mask>
        <use fill="#DCF0FA" xlink:href="#prefix__a"/>
        <path stroke="#FFF" stroke-dasharray="0 5" stroke-linecap="round" stroke-linejoin="round" stroke-width="2" d="M-14 10c31.333 38.667 58.333 46.667 81 24 10.667-24.667 33.333-27 68-7 52 30 77 38 113 11s54-43 72-11c12 21.333 33 26 63 14" mask="url(#prefix__b)"/>
        <g style="mix-blend-mode:overlay" mask="url(#prefix__b)">
            <g>
                <path stroke="#000" d="M183.395 54.448c-1.602-3.668-5.89-5.347-9.577-3.754l-.6.259-.261-.598c-1.602-3.666-5.891-5.347-9.577-3.754-3.687 1.594-5.377 5.858-3.775 9.523l.26.598L165.667 70l13.353-5.77.6-.259c3.688-1.593 5.377-5.856 3.775-9.523M140.179 80.995c-3.291-1.298-7.01.319-8.308 3.61l-.211.535-.537-.21c-3.291-1.298-7.012.319-8.309 3.61-1.296 3.291.32 7.01 3.61 8.308l.537.212 11.918 4.698 4.7-11.92.21-.535c1.298-3.291-.319-7.01-3.61-8.308" transform="translate(-1 -35)"/>
                <path stroke="#000" d="M367.613 55.28c-1.025-2.292-3.77-3.342-6.13-2.346l-.383.162-.168-.374c-1.025-2.291-3.77-3.342-6.13-2.346-2.358.996-3.44 3.66-2.415 5.952l.167.374L356.267 65l8.546-3.606.384-.162c2.36-.995 3.441-3.66 2.416-5.952M37.486 42.829c-2.743-1.082-5.843.266-6.925 3.01l-.176.445-.448-.176c-2.743-1.08-5.844.267-6.925 3.01-1.08 2.743.266 5.844 3.01 6.925l.446.177 9.935 3.916L40.32 50.2l.176-.446c1.082-2.743-.266-5.843-3.01-6.925" transform="translate(-1 -35)"/>
                <g>
                    <path stroke="#000" d="M.134 10.943L6.261 16.452 8.097 14.409 1.971 8.9zM4.38 7.42h0s-.723-2.355-.787-3.548c-.055-1.04-1.219-2.286-1.518-2.59-.039-.039-.04-.101-.002-.143.535-.594 1.452-.644 2.047-.108l2.43 2.186 1.918-2.133C9.1.382 10.18.324 10.882.955L14.99 4.65c.702.631.759 1.711.127 2.413L10.14 12.6c-.26.29-.705.313-.995.053L4.433 8.415c-.29-.26-.313-.705-.053-.994" transform="translate(-1 -35) rotate(30 -68.024 223.004)"/>
                </g>
                <g>
                    <path stroke="#000" d="M.397 18.218L11.169 26.972 14.397 23.726 3.626 14.972zM7.3 11.683h0S6.112 7.878 6.007 5.95c-.09-1.679-2.003-3.692-2.494-4.182-.064-.064-.065-.165-.004-.232.88-.96 2.385-1.04 3.363-.175l3.993 3.53 3.151-3.445C15.053.312 16.828.22 17.981 1.24l6.75 5.968c1.153 1.02 1.247 2.765.21 3.899l-8.179 8.943c-.426.468-1.159.506-1.634.086l-7.742-6.846c-.475-.42-.514-1.139-.086-1.606" transform="translate(-1 -35) rotate(60 -57.643 60.374)"/>
                </g>
                <g>
                    <path stroke="#000" d="M.027 14.538L8.491 21.834 11.027 19.129 2.565 11.834zM5.364 10.12h0S4.328 6.896 4.237 5.26c-.08-1.423-1.746-3.13-2.174-3.545-.056-.054-.056-.14-.004-.196.767-.815 2.08-.882 2.932-.15l3.48 2.994 2.747-2.921c.904-.961 2.451-1.04 3.457-.176l5.884 5.06c1.005.864 1.087 2.344.183 3.305l-7.13 7.582c-.371.396-1.01.429-1.424.072l-6.749-5.803c-.414-.356-.448-.966-.075-1.361" transform="translate(-1 -35) rotate(30 6.673 582.16)"/>
                </g>
            </g>
        </g>
        <g mask="url(#prefix__b)">
            <g>
                <path fill="#FF7900" stroke="#FFF" d="M43.112 32.337C37.76 43.64 24.26 48.463 12.958 43.111 1.656 37.761-3.168 24.261 2.184 12.958 7.534 1.655 21.034-3.168 32.338 2.183c11.3 5.351 16.126 18.852 10.774 30.154" transform="translate(297 4.295)"/>
                <path fill="#FFF" d="M24.104 19.317l-3.747 6.49c-.458.785-1.464 1.052-2.251.598-.787-.454-1.059-1.46-.608-2.248l1.757-3.044-7.83 2.094c-.878.23-1.776-.292-2.01-1.168-.236-.876.28-1.777 1.154-2.018l7.83-2.094-3.046-1.758c-.515-.292-.835-.838-.836-1.43-.002-.593.314-1.14.828-1.435.514-.295 1.146-.291 1.657.01l6.497 3.75c.789.455 1.06 1.464.605 2.253zm11.348 6.686l-7.831 2.094 3.046 1.759c.517.291.837.837.84 1.43.002.594-.315 1.142-.83 1.437-.514.295-1.148.29-1.658-.012l-6.497-3.75c-.79-.456-1.06-1.465-.605-2.254l3.746-6.49c.458-.785 1.464-1.052 2.251-.598.788.455 1.06 1.46.608 2.249l-1.757 3.043 7.831-2.094c.88-.234 1.782.288 2.018 1.167.235.878-.284 1.782-1.162 2.02z" transform="translate(297 4.295)"/>
            </g>
        </g>
        <g mask="url(#prefix__b)">
            <g>
                <path fill="#FF7900" stroke="#FFF" d="M29.415 8.865c3.633 7.715.325 16.915-7.39 20.55-7.715 3.634-16.915.325-20.549-7.39-3.634-7.715-.326-16.916 7.39-20.55 7.714-3.633 16.914-.325 20.549 7.39" transform="translate(40 26)"/>
                <path fill="#FFF" d="M21.5 20.5c-.002.552-.448.998-1 1h-1c-.276 0-.5.224-.5.5s.224.5.5.5h1.008c1.096 0 1.992-.896 1.992-1.992V19.5c0-.276-.224-.5-.5-.5s-.5.224-.5.5v1zm-1-12c.552.002.998.448 1 1v1c0 .276.224.5.5.5s.5-.224.5-.5V9.492c0-1.096-.896-1.992-1.992-1.992H19.5c-.276 0-.5.224-.5.5s.224.5.5.5h1zm-11 13c-.552-.002-.998-.448-1-1v-1c0-.276-.224-.5-.5-.5s-.5.224-.5.5v1.008c0 1.096.896 1.992 1.992 1.992H10.5c.276 0 .5-.224.5-.5s-.224-.5-.5-.5h-1zm-1-12c.002-.552.448-.998 1-1h1c.276 0 .5-.224.5-.5s-.224-.5-.5-.5H9.492C8.396 7.5 7.5 8.396 7.5 9.492V10.5c0 .276.224.5.5.5s.5-.224.5-.5v-1zm1.87 9.5h-.33v-8h.33v8zm4.795 0h-.33v-8h.33v8zm.85 0h-.33v-8h.33v8zm1.885 0h-.33v-8h.33v8zm1.89 0h-.33v-8h.33v8zm-7.53 0h-.33v-8h.33v8zm.682 0h-.502v-8h.502v8zm1.71 0h-.502v-8h.502v8zm4.28 0h-.502v-8h.502v8zm-5.642 0h-.16v-8h.16v8zm.68 0h-.16v-8h.16v8zm2.39 0h-.16v-8h.16v8zm.69 0h-.16v-8h.16v8zm2.22 0h-.16v-8h.16v8zm-8.54 0h-.16v-8h.16v8zm.5 0h-.16v-8h.16v8z" transform="translate(40 26)"/>
            </g>
        </g>
        <g mask="url(#prefix__b)">
            <g transform="scale(-1 1) rotate(21 -113.398 -851.473)">
                <path fill="#5A3129" d="M52.935 37.432L62.195 39.233 60.395 48.494 50.7 51.144z"/>
                <g transform="rotate(2 -329.341 1228.08)">
                    <use fill="#50BE87" xlink:href="#prefix__d"/>
                    <use fill="#000" fill-opacity=".1" xlink:href="#prefix__d"/>
                    <path fill="#6BDEA5" d="M42.224 31.109c-3.585.151-7.83-.578-12.635-2.172-5.474-1.815-10.819-2.638-15.89-2.405-3.876.16-7.026.913-9.352 1.725L3.368 5.502c1.451-.665 4.14-1.551 8.389-1.739 4.572-.19 9.89.457 15.8 1.944 4.887 1.245 9.427 1.78 13.502 1.599 2.495-.102 4.548-.465 6.164-.907l1.001 23.244c-1.026.568-2.94 1.333-6 1.466"/>
                    <path fill="#50BE87" d="M34.06 17.442c.2 4.55-3.34 8.42-7.903 8.611-4.553.193-8.412-3.341-8.607-7.9-.197-4.56 3.345-8.425 7.904-8.613 4.555-.199 8.41 3.34 8.605 7.902"/>
                </g>
                <path fill="#7D4D44" d="M62.175 30.78c-.243 1.137-.847 4.914-.916 6.123-.359 6.226-3.96 10.263-5.681 11.043-2.37 1.073-2.045-4.209-2.09-4.428-.231-1.206-.62-24.371-.62-24.371l-.348-5.12c-1.279-.44-2.453-.063-3.16.141-3.654 1.06-3.367 5.112-5.195 8.372-1.321 2.352-7.786 9.109-8.65 12.935-.742 3.285.15 20.522-.41 24.11-.654 4.198-22.723 35.251-22.723 35.251l28.403-10.081S47.601 73.327 52.78 70.99c2.114-.955 5.893-4.967 7.867-8.072 3.612-5.683 10.119-14.906 10.33-22.088.045-1.577-.774-6.57-.511-8.675.163-.867-.13-8.696-2.565-9.057-3.669-.542-5.086 4.723-5.725 7.683z"/>
                <path fill="#AF7D5D" d="M67.847 23.709c-2.314-.153-2.416 2.071-2.416 2.071s-.364 2.086.188 2.695c.433.476 1.818.272 3.47.28 1.417.006 1.287.351 1.287.351-.175-1.777-.559-3.876-1.295-5.067l-1.234-.33z"/>
                <g transform="translate(33.83 7.801)">
                    <mask id="prefix__f" fill="#fff">
                        <use xlink:href="#prefix__e"/>
                    </mask>
                    <g mask="url(#prefix__f)">
                        <g>
                            <g transform="rotate(2 -122.798 255.128)">
                                <use fill="#50BE87" xlink:href="#prefix__g"/>
                                <use fill="#000" fill-opacity=".1" xlink:href="#prefix__g"/>
                            </g>
                            <path fill="#6BDEA5" d="M42.224 31.109c-3.585.151-7.83-.578-12.635-2.172-5.474-1.815-10.819-2.638-15.89-2.405-3.876.16-7.026.913-9.352 1.725L3.368 5.502c1.451-.665 4.14-1.551 8.389-1.739 4.572-.19 9.89.457 15.8 1.944 4.887 1.245 9.427 1.78 13.502 1.599 2.495-.102 4.548-.465 6.164-.907l1.001 23.244c-1.026.568-2.94 1.333-6 1.466" transform="rotate(2 -122.798 255.128)"/>
                            <path fill="#50BE87" d="M34.06 17.442c.2 4.55-3.34 8.42-7.903 8.611-4.553.193-8.412-3.341-8.607-7.9-.197-4.56 3.345-8.425 7.904-8.613 4.555-.199 8.41 3.34 8.605 7.902" transform="rotate(2 -122.798 255.128)"/>
                        </g>
                    </g>
                </g>
            </g>
        </g>
        <g mask="url(#prefix__b)">
            <g>
                <g>
                    <path fill="#7D4D44" d="M38.911 26.573c-.282.851-.023 2.037.573 2.635 0 0 1.894 1.894 5.659-.894 3.767-2.788 2.23-5.526 1.415-5.6l-4.694-.427c-.813-.075-1.711.56-1.997 1.412l-.956 2.874z" transform="rotate(30 67.369 170.755) translate(10.433 .309)"/>
                    <g transform="rotate(30 67.369 170.755) translate(10.433 .309) translate(43.075 30.277)">
                        <mask id="prefix__i" fill="#fff">
                            <use xlink:href="#prefix__h"/>
                        </mask>
                        <path fill="#7D4D44" d="M.379 4.626C.095 5.477.352 6.662.95 7.26c0 0 1.578 1.58 4.949-.914C9.27 3.85 7.827 1.395 7.01 1.32L3.123.967C2.308.893 1.1-.358.817.493L.379 4.626z" mask="url(#prefix__i)"/>
                    </g>
                    <path fill="#7D4D44" d="M43.14 42.927c-.282.85-.026 2.036.573 2.634 0 0 1.252 1.252 4.207-.936 2.957-2.187 1.606-4.35.79-4.424l-3.042-.276c-.816-.074-1.715.56-1.997 1.413l-.53 1.589z" transform="rotate(30 67.369 170.755) translate(10.433 .309)"/>
                    <path fill="#623A33" d="M30.59 38.624s2.606 29.526-7.81 38.658c-6.83 5.988-5.37-5.968-5.37-5.968l-5.927-28.111 19.107-4.58z" transform="rotate(30 67.369 170.755) translate(10.433 .309)"/>
                    <path fill="#623A33" d="M3.915 74.52L.228 40.87C.004 38.6.67 35.084 1.707 33.053L5.822 18.38c1.037-2.03 4.648-3.92 6.51-5.235l4.005.408c1.864-1.314 3.57-.532 3.793 1.737l1.29 13.153c.221 2.268-.086 5.924-.684 8.124l-2.87 10.552c-.597 2.2-.963 5.862-.81 8.136l.532 7.951c.15 2.274-1.46 4.817-3.583 5.65l-10.09 5.666z" transform="rotate(30 67.369 170.755) translate(10.433 .309)"/>
                    <path fill="#101010" d="M47.68 50.756c.398 2.444-1.001 4.727-3.112 5.07l-22.83 3.718c-2.109.344-4.162-1.375-4.56-3.82L9.54 8.837c-.399-2.445 1.003-4.728 3.112-5.071L35.483.047c2.111-.344 4.162 1.376 4.56 3.822l7.637 46.887z" transform="rotate(30 67.369 170.755) translate(10.433 .309)"/>
                </g>
                <g transform="rotate(30 67.369 170.755) translate(32.283 .309)">
                    <mask id="prefix__l" fill="#fff">
                        <use xlink:href="#prefix__j"/>
                    </mask>
                    <path fill="url(#prefix__k)" d="M13.633.047L.108 2.25l2.729 5.466 13.05-2.126 3.57 21.916 3.84 7.69-5.103-31.327c-.364-2.236-2.11-3.866-4.02-3.866-.18 0-.36.015-.54.044" mask="url(#prefix__l)"/>
                </g>
                <g>
                    <path fill="#FFF" d="M55.38 47.358L29.918 51.505 22.708 7.24 48.17 3.093z" transform="rotate(30 67.369 170.755) translate(0 2.806)"/>
                    <g transform="rotate(30 67.369 170.755) translate(0 2.806) rotate(-9 77.946 -164.195)">
                        <mask id="prefix__n" fill="#fff">
                            <use xlink:href="#prefix__m"/>
                        </mask>
                        <g fill="#FF7900" mask="url(#prefix__n)">
                            <path d="M0 0H20V20H0z"/>
                        </g>
                    </g>
                    <g fill="#000" opacity=".1">
                        <path d="M17 2.325c-.032.011-.065.02-.1.027L1.995 5.52c-.464.098-.92-.2-1.02-.665-.097-.465.199-.92.664-1.02L16.544.666c.465-.099.921.199 1.02.664.091.431-.158.856-.564.994M17 7.215c-.032.011-.065.02-.1.028L1.995 10.41c-.464.098-.92-.199-1.02-.664-.098-.465.198-.923.664-1.021l14.906-3.168c.465-.098.921.199 1.02.664.091.432-.158.856-.564.994M18.874 11.164c-.032.01-.064.02-.098.027L4.061 14.322c-.459.098-.909-.196-1.006-.656-.097-.46.194-.913.654-1.01l14.715-3.131c.459-.098.91.196 1.007.656.09.426-.156.846-.557.983" transform="rotate(30 67.369 170.755) translate(0 2.806) translate(31.306 29.001)"/>
                    </g>
                    <path fill="#101010" d="M39.405.834c.063.386-.157.744-.491.798L31.809 2.79c-.334.054-.656-.215-.719-.601-.063-.388.156-.745.49-.8L38.687.232c.334-.054.656.215.719.602" transform="rotate(30 67.369 170.755) translate(0 2.806)"/>
                    <path fill="#000" d="M31.612 1.58c-.229.037-.377.296-.332.577.046.281.27.48.498.442l7.105-1.157c.228-.037.377-.296.331-.577-.045-.281-.269-.48-.497-.443L31.612 1.58zm7.333.243L31.839 2.98c-.437.071-.86-.27-.94-.76-.079-.492.213-.95.65-1.02L38.656.041c.438-.071.86.27.94.761.08.49-.212.948-.65 1.02z" transform="rotate(30 67.369 170.755) translate(0 2.806)"/>
                    <g transform="rotate(30 67.369 170.755) translate(0 2.806) translate(0 25.907)">
                        <mask id="prefix__p" fill="#fff">
                            <use xlink:href="#prefix__o"/>
                        </mask>
                        <path fill="#7D4D44" d="M37.434 2.18c-.05-.101-.106-.197-.176-.285-.016-.023-.038-.04-.057-.06-.06-.07-.12-.138-.19-.198-.043-.034-.093-.06-.138-.09-.056-.038-.109-.08-.168-.11-.077-.04-.162-.067-.246-.095-.039-.013-.074-.032-.114-.043-.127-.034-.262-.055-.403-.063l-2.34-.123c-.198-.01-.422-.028-.656-.048l-.102-.01c-.24-.022-.49-.047-.746-.077C31.183.874 30.2.726 29.505.579c0 0-3.756-.787-4.828.01-3.824 2.851-9.992 12.02-9.992 12.02-.637.944-1.277 2.643-1.423 3.773L10.48 37.974l-6.498 70.565C7.61 117.006 15.162 81.45 23.27 79.41c.735-1.746 4.43-22.679 4.913-23.703 1.347-2.848 2.872-4.561 4.584-6.361.169-.136.324-.288.447-.469 0 0 .822-1.204.675-8.379-.348-17.188-8.434-22.563-8.434-22.563-.95-.631-1.405-2.023-1.013-3.094l1.845-5.028c.392-1.07 1.646-1.983 2.783-2.029 0 0 4.636-.187 6.456-1.83 1.83-1.654 2.037-2.586 2.037-2.586.004-.016.003-.03.005-.046h.002l.003-.041c.022-.123.035-.243.035-.36l-.001-.006c-.004-.258-.059-.5-.161-.717l-.011-.02z" mask="url(#prefix__p)"/>
                    </g>
                    <path fill="#AF7D5D" d="M33.094 28.268c1.087.163 3.136-.04 3.136-.04s.829.095-.27-1.082l-.018-.002-2.34-.123c-.198-.01-.422-.029-.656-.05l-.102-.008c-.24-.022-.49-.048-.746-.078v.002l-.449-.057c.263.553.75 1.334 1.445 1.438" transform="rotate(30 67.369 170.755) translate(0 2.806)"/>
                </g>
            </g>
        </g>
    </g>
</svg>
