<svg xmlns="http://www.w3.org/2000/svg" xmlns:xlink="http://www.w3.org/1999/xlink" width="77" height="84" viewBox="0 0 77 84">
    <defs>
        <path id="a" d="M.016.085h38.287v14.972H.016z"/>
        <path id="c" d="M.025.035h1.278v.45H.025z"/>
        <path id="e" d="M.024.04H1.16v1.302H.024z"/>
        <path id="g" d="M.016.133h1v.638h-1z"/>
        <path id="i" d="M13.465.143L3.69 1.179A4.078 4.078 0 0 0 .064 5.664L1.878 22.78a4.078 4.078 0 0 0 4.485 3.626l9.775-1.036a4.078 4.078 0 0 0 3.626-4.485L17.95 3.769A4.079 4.079 0 0 0 13.9.119a4.13 4.13 0 0 0-.435.024z"/>
        <path id="k" d="M6.404 4.482H1.709c-.57 0-1.033.48-1.033 1.072 0 .592.462 1.072 1.033 1.072H3.91L.321 10.351a1.1 1.1 0 0 0-.273 1.038c.096.372.375.662.734.76.358.1.74-.008 1-.282l3.589-3.725v2.285c0 .592.462 1.072 1.033 1.072.57 0 1.033-.48 1.033-1.072V5.554c0-.592-.463-1.072-1.033-1.072zm9.275-.368a1.006 1.006 0 0 0-1.461 0l-3.589 3.725V5.554c0-.592-.462-1.072-1.033-1.072-.57 0-1.033.48-1.033 1.072v4.873c0 .592.463 1.072 1.033 1.072h4.695c.57 0 1.033-.48 1.033-1.072 0-.592-.462-1.072-1.033-1.072H12.09l3.589-3.725a1.1 1.1 0 0 0 0-1.516z"/>
    </defs>
    <g fill="none" fill-rule="evenodd">
        <path fill="#D6D6D6" d="M74.337 42.817c0 20.474-16.597 37.072-37.072 37.072C16.791 79.889.193 63.29.193 42.817c0-20.475 16.598-37.073 37.072-37.073 20.475 0 37.072 16.598 37.072 37.073"/>
        <path fill="#C2796C" d="M30.094 24.446c.103.043.413.174-.037-.016l.037.016"/>
        <path fill="#6FBBBB" d="M27.544 20.677l-.033.009.062-.065a.276.276 0 0 0-.03.056M27.627 20.562l-.054.059a.208.208 0 0 1 .054-.06"/>
        <path fill="#141819" d="M32.04 20.691l.02-.014-.02.014zM32.06 20.677"/>
        <path fill="#FFF" d="M20.907 25.432c-.813-1.587-2.009-2.916-3.246-4.183-.388-.398.214-1.013.602-.616 1.285 1.316 2.54 2.71 3.384 4.358.252.493-.487.935-.74.44"/>
        <path fill="#FFF" d="M17.977 20.862h-.004a.128.128 0 0 0-.078.082c-.003.012-.007.026.022.055 1.415 1.45 2.52 2.731 3.308 4.27a.083.083 0 0 0 .016.024.153.153 0 0 0 .085-.056c.02-.028.02-.049.003-.083-.824-1.608-2.083-3.003-3.321-4.271-.017-.018-.025-.021-.03-.021m3.259 5.143H21.2a.72.72 0 0 1-.611-.41c-.748-1.46-1.813-2.693-3.184-4.097a.756.756 0 0 1-.197-.748.84.84 0 0 1 .589-.58.737.737 0 0 1 .722.214c1.277 1.308 2.579 2.752 3.446 4.445.134.26.12.549-.036.79a.842.842 0 0 1-.692.386M18.753 32.319c-1.355-.98-2.956-1.581-4.24-2.662-.424-.356.083-1.052.509-.694 1.285 1.08 2.885 1.682 4.241 2.662.451.325-.06 1.019-.51.694"/>
        <path fill="#FFF" d="M14.767 29.22a.16.16 0 0 0-.054.086c-.008.033 0 .053.029.078.694.583 1.475 1.018 2.303 1.478.641.356 1.305.724 1.918 1.167.03.022.041.018.051.013a.128.128 0 0 0 .067-.09c0-.008.002-.017-.027-.038-.579-.418-1.224-.777-1.848-1.123-.82-.456-1.668-.927-2.414-1.555a.081.081 0 0 0-.025-.016m4.232 3.54a.774.774 0 0 1-.455-.152c-.578-.418-1.223-.776-1.846-1.122-.82-.456-1.67-.928-2.416-1.555-.384-.324-.345-.837-.086-1.145.281-.334.725-.374 1.056-.096.693.583 1.474 1.017 2.301 1.477.642.356 1.306.725 1.92 1.168.23.166.346.418.318.69a.84.84 0 0 1-.485.669.746.746 0 0 1-.307.067M15.532 37.214c-.533-.142-.37-.989.168-.845.65.174 1.276.424 1.94.55.545.102.379.947-.168.844-.664-.125-1.29-.376-1.94-.549"/>
        <path fill="#FFF" d="M15.624 36.87c.257.068.51.148.756.225.396.126.77.244 1.158.317.038.008.046-.001.053-.01a.129.129 0 0 0 .022-.11c-.002-.008-.005-.016-.04-.023a10.667 10.667 0 0 1-1.243-.338 16.54 16.54 0 0 0-.722-.217c-.02-.006-.03-.004-.03-.004a.16.16 0 0 0-.013.101c.007.034.022.048.059.058m1.94 1.26a.853.853 0 0 1-.158-.015c-.43-.081-.843-.211-1.242-.338-.237-.075-.483-.153-.724-.217-.485-.13-.667-.61-.563-1 .112-.421.497-.646.915-.535.257.068.51.148.754.226.396.125.771.244 1.16.317.28.053.491.23.581.488a.84.84 0 0 1-.154.813.739.739 0 0 1-.57.261M53.967 34.068c1.297-.787 2.525-1.678 3.822-2.464.476-.29.846.49.375.775-1.296.786-2.525 1.678-3.822 2.464-.476.288-.845-.49-.375-.775"/>
        <path fill="#FFF" d="M57.99 31.9a.172.172 0 0 0-.016.01c-.642.388-1.281.813-1.9 1.224-.623.414-1.267.842-1.922 1.239-.028.017-.046.037-.046.079s.02.079.035.094a55.66 55.66 0 0 1 3.838-2.472c.028-.017.046-.037.046-.08a.15.15 0 0 0-.035-.093zm-3.856 3.363a.68.68 0 0 1-.33-.085.834.834 0 0 1-.412-.71.799.799 0 0 1 .39-.706c.642-.389 1.28-.813 1.898-1.223.624-.415 1.269-.844 1.924-1.24a.708.708 0 0 1 .723-.03.835.835 0 0 1 .412.709.798.798 0 0 1-.39.706c-.641.39-1.28.814-1.897 1.224-.624.414-1.27.843-1.925 1.24a.757.757 0 0 1-.393.115zM51.69 27.19c.814-1.074 1.799-2.012 2.797-2.913.413-.373.947.304.537.674-.945.853-1.873 1.736-2.644 2.754-.335.443-1.026-.072-.69-.515"/>
        <path fill="#FFF" d="M54.745 24.526c.003 0-.006.005-.019.017-1.106.998-1.997 1.867-2.751 2.863-.022.028-.018.037-.015.044a.128.128 0 0 0 .09.067c.011.001.022.002.045-.028.794-1.047 1.762-1.966 2.69-2.803.028-.026.035-.045.026-.078-.013-.048-.051-.079-.066-.082m-2.686 3.706a.84.84 0 0 1-.757-.504.743.743 0 0 1 .103-.754c.835-1.101 1.86-2.074 2.843-2.962.321-.29.768-.265 1.061.06.27.299.326.808-.045 1.144-1.043.94-1.883 1.76-2.6 2.705a.752.752 0 0 1-.605.31M33.515 18.877c.052-1.463-.035-2.93.095-4.39.049-.554.905-.465.856.09-.13 1.459-.042 2.927-.094 4.39-.02.555-.877.463-.857-.09M47.9 21.09c.541-1.005.974-2.062 1.293-3.157.155-.533.95-.202.797.326a16.24 16.24 0 0 1-1.293 3.156c-.26.484-1.06.163-.797-.326"/>
        <path fill="#FFF" d="M48.209 21.27a.134.134 0 0 0 .095.028c.044-.003.063-.023.079-.052.528-.98.953-2.019 1.264-3.086.01-.032.01-.06-.02-.093a.152.152 0 0 0-.087-.047 16.633 16.633 0 0 1-1.326 3.239.183.183 0 0 0-.005.012zm.089.742a.877.877 0 0 1-.414-.103.706.706 0 0 1-.298-.99c.527-.98.953-2.018 1.264-3.086a.707.707 0 0 1 .907-.496c.396.116.72.53.576 1.022a16.65 16.65 0 0 1-1.321 3.226.794.794 0 0 1-.714.427z"/>
        <path fill="#714F47" d="M45.499 52.585c-1.431-.426-3.39-.23-4.644-1.058-3.716-2.451-7.312-5.082-10.52-8.048a469.324 469.324 0 0 1-2 3.486c-.8 1.373-1.72 2.685-2.534 4.05-.673 1.13-.483 2.26-1.457 3.293-1.244 1.316-3.588 1.595-4.648 2.942-.707.897-.48 1.971-.616 3.075-.628 5.083-8.572 10.272-2.549 14.832 2.4 1.816 5.368 2.965 8.134 4.093 2.236.912 4.638 1.003 5.832-1.347 1.017-2 1.12-4.168 2.862-5.801 1.568-1.47 3.844-1.86 5.397-3.261 2.214-1.997 4-4.853 5.508-7.406 1.341-2.27 2.993-4.82 2.869-7.575-.034-.75-.965-1.076-1.634-1.275"/>
        <g transform="translate(-4.92 66.118)">
            <mask id="b" fill="#fff">
                <use xlink:href="#a"/>
            </mask>
            <path fill="#000" d="M38.145 10.93C37.795 10.312 22.285.197 20.321.086c-1.304-.074-2.596 1.963-3.185 2.668C14.754 5.607-8.295 33.283-8.857 39h30.312c5.685-5.214 14.039-21.602 16.443-26.188.445-.85.517-1.409.247-1.883" mask="url(#b)"/>
        </g>
        <path fill="#FF7900" d="M15.359 67.748a.459.459 0 0 0-.336-.548.459.459 0 0 0-.548.335 3.23 3.23 0 0 1-.054.197c-.008.018-.033.085-.042.104a1.832 1.832 0 0 1-.086.154c-.13.211-.023.504.186.615.227.122.486.026.615-.185a2.32 2.32 0 0 0 .265-.672M17.296 69.383a.45.45 0 0 0 .038-.522c-.126-.205-.419-.287-.625-.15a.598.598 0 0 0-.22.238.767.767 0 0 0-.035.095.45.45 0 0 0-.038.522c.125.205.418.287.625.15a.597.597 0 0 0 .22-.237.767.767 0 0 0 .035-.096M16.065 71.438l.01-.011-.003.002a.452.452 0 0 0 .075-.562c-.124-.202-.42-.29-.625-.15-.236.164-.323.41-.388.678a.459.459 0 0 0 .336.549c.24.057.49-.095.548-.336a2.51 2.51 0 0 1 .047-.17M19.67 71.017c.131-.21.022-.505-.186-.616-.229-.122-.484-.024-.615.186a5.55 5.55 0 0 1-.465.658c-.158.19-.167.465.021.642.173.162.485.17.643-.021a7.67 7.67 0 0 0 .602-.849M18.045 72.597a.46.46 0 0 0-.554.36c-.019.043-.04.083-.064.123l-.013.02a.751.751 0 0 1-.03.034.458.458 0 0 0-.119.602c.125.204.42.289.625.15.247-.167.416-.456.491-.741a.458.458 0 0 0-.336-.548M21.347 73.28v-.002c.02-.047.043-.094.064-.14.057-.122.113-.246.147-.376a.458.458 0 0 0-.336-.548.46.46 0 0 0-.548.336l-.013.045v.001c-.02.048-.043.094-.064.14a2.316 2.316 0 0 0-.146.377.458.458 0 0 0 .335.548.46.46 0 0 0 .548-.336.791.791 0 0 1 .013-.046M20.503 75.623c.129-.21.023-.503-.186-.615-.227-.122-.487-.025-.616.186-.2.328-.353.697-.448 1.069-.144.568.74.78.884.212.077-.303.2-.58.366-.852M23.75 74.65v-.001c.02-.048.043-.094.064-.14.057-.123.113-.247.147-.377a.458.458 0 0 0-.336-.548.46.46 0 0 0-.548.336.566.566 0 0 1-.013.045v.002c-.02.047-.043.093-.064.14a2.305 2.305 0 0 0-.146.376c-.064.24.099.491.335.548a.46.46 0 0 0 .548-.336.566.566 0 0 1 .013-.045M22.557 77.408a.458.458 0 0 0-.336-.548.46.46 0 0 0-.548.336l-.01.036-.008.017c-.022.05-.05.099-.076.147-.06.108-.126.213-.191.318-.131.21-.022.504.186.615.228.123.484.025.615-.185.145-.233.296-.468.368-.736M25.42 75.947a.459.459 0 0 0-.336-.548.459.459 0 0 0-.548.336l-.12.5c-.058.24.095.49.335.548.241.058.49-.095.548-.336l.12-.5zM24.53 79.468c.02-.037.04-.073.062-.108.055-.089.094-.188.121-.288a.458.458 0 0 0-.335-.548.46.46 0 0 0-.548.336c-.02.038-.04.073-.063.109a1.087 1.087 0 0 0-.12.287c-.065.24.1.492.335.548a.46.46 0 0 0 .548-.335v-.001z"/>
        <g transform="translate(22.366 80.69)">
            <mask id="d" fill="#fff">
                <use xlink:href="#c"/>
            </mask>
            <path fill="#FF7900" d="M1.3.48C1.283.233 1.092.03.836.035.598.04.374.252.391.5c.003.047.004.092.003.139L.393.642C.387.68.376.718.365.755.393.657.307.83.328.817.315.832.303.847.288.861a.373.373 0 0 0-.012.014.46.46 0 0 0-.185.645.458.458 0 0 0 .625.15c.404-.263.617-.71.584-1.19" mask="url(#d)"/>
        </g>
        <path fill="#FF7900" d="M28.798 76.207a.46.46 0 0 0-.464-.445c-.24.005-.459.217-.445.464a.691.691 0 0 1 .003.073v.003l-.005.021a.822.822 0 0 1-.018.068l-.001.006a.356.356 0 0 0-.008.018c-.05.11-.116.214-.18.317-.131.21-.022.504.186.615.229.122.484.025.615-.185.18-.29.338-.602.317-.955M27.43 79.06c.153-.568-.732-.778-.884-.213-.089.326-.324.611-.47.915a.461.461 0 0 0 .187.615c.21.113.508.038.615-.186.182-.38.44-.72.552-1.132M30.681 78.592c.156-.192.17-.464-.02-.642-.172-.16-.487-.172-.643.021-.291.359-.49.766-.683 1.183-.103.224-.042.493.186.615.209.112.512.04.616-.186.157-.339.308-.698.544-.99M21.313 79.907a.749.749 0 0 0-.117-.336.459.459 0 0 0-.625-.15.459.459 0 0 0-.183.56.459.459 0 0 0 .337.54.46.46 0 0 0 .548-.336c.022-.09.048-.186.04-.278M12.946 69.67a.388.388 0 0 0-.464.283c-.02.08-.04.16-.064.24a.574.574 0 0 1-.023.046c-.152.123-.207.332-.1.508.106.172.357.246.53.127.253-.175.336-.455.405-.741a.389.389 0 0 0-.284-.464M14.261 73.288a.387.387 0 0 0-.284-.463.389.389 0 0 0-.463.284l-.005.015-.023.05-.014.023-.025.037c-.091.12-.181.24-.262.367-.113.176-.017.427.157.52.195.104.408.02.52-.157.117-.183.327-.402.4-.676M16.276 74.904c-.218-.116-.467-.025-.59.178-.064.106-.121.215-.182.322a.441.441 0 0 1-.156.177.44.44 0 0 0-.144.599c.12.198.4.274.599.144.32-.21.46-.515.651-.83.123-.202.023-.483-.178-.59M18.56 79.008c.013-.174-.094-.342-.181-.484a.44.44 0 0 0-.6-.144.44.44 0 0 0-.143.6l.02.032-.054.087c-.125.202-.021.484.178.59.22.118.465.024.59-.178.1-.16.177-.31.19-.503M9.215 78.626a.459.459 0 0 0-.336-.548.459.459 0 0 0-.548.336 3.197 3.197 0 0 1-.054.196c-.008.018-.033.085-.042.104a1.895 1.895 0 0 1-.086.154c-.13.212-.023.504.186.616.227.121.486.025.615-.186.127-.208.208-.436.265-.672M11.152 80.26a.45.45 0 0 0 .038-.52c-.126-.206-.418-.288-.625-.151a.598.598 0 0 0-.22.238.789.789 0 0 0-.035.095.45.45 0 0 0-.038.522c.126.205.418.287.625.15a.596.596 0 0 0 .22-.237.776.776 0 0 0 .035-.096M15.97 78.636v-.002c.02-.047.043-.093.064-.14.056-.122.112-.246.147-.376a.458.458 0 0 0-.336-.548.46.46 0 0 0-.548.336l-.013.045v.002c-.02.047-.043.094-.064.14a2.316 2.316 0 0 0-.147.376.458.458 0 0 0 .336.548.46.46 0 0 0 .548-.336.791.791 0 0 1 .013-.045"/>
        <g transform="translate(14.08 79.832)">
            <mask id="f" fill="#fff">
                <use xlink:href="#e"/>
            </mask>
            <path fill="#FF7900" d="M.934 1.118c.02-.048.043-.095.065-.141C1.054.855 1.11.73 1.145.6A.458.458 0 0 0 .81.052a.46.46 0 0 0-.548.336.937.937 0 0 1-.013.046v.001C.228.482.206.53.184.575a2.323 2.323 0 0 0-.146.377c-.063.24.099.49.336.548a.46.46 0 0 0 .548-.336l.012-.046" mask="url(#f)"/>
        </g>
        <path fill="#FF7900" d="M12.255 78.474v-.001c.02-.048.042-.094.064-.14.056-.122.112-.247.146-.377a.458.458 0 0 0-.336-.548.46.46 0 0 0-.548.336.98.98 0 0 1-.013.046c-.02.048-.042.095-.064.14a2.316 2.316 0 0 0-.146.377.458.458 0 0 0 .336.548.46.46 0 0 0 .548-.336c.003-.015.008-.03.013-.045M11.788 75.093v-.001c.02-.047.042-.094.064-.14.056-.122.112-.247.147-.377a.458.458 0 0 0-.336-.548.46.46 0 0 0-.548.336.937.937 0 0 1-.013.046c-.02.048-.043.095-.064.141a2.31 2.31 0 0 0-.147.376.458.458 0 0 0 .336.548.46.46 0 0 0 .548-.336.791.791 0 0 1 .013-.045M9.277 76.523v-.001c.02-.047.042-.094.064-.14.056-.122.112-.247.146-.377a.459.459 0 0 0-.335-.548.46.46 0 0 0-.549.336.937.937 0 0 1-.013.046c-.02.048-.042.095-.064.141a2.326 2.326 0 0 0-.146.376.458.458 0 0 0 .336.548.46.46 0 0 0 .548-.335.69.69 0 0 1 .013-.046M10.446 73.204v-.001c.02-.047.043-.094.064-.14.057-.122.113-.247.147-.377a.459.459 0 0 0-.336-.548.46.46 0 0 0-.548.336l-.013.046c-.02.048-.043.095-.064.141a2.316 2.316 0 0 0-.146.376.458.458 0 0 0 .335.548.46.46 0 0 0 .548-.335l.013-.046"/>
        <g transform="translate(6.08 80.403)">
            <mask id="h" fill="#fff">
                <use xlink:href="#g"/>
            </mask>
            <path fill="#FF7900" d="M.722.144a.388.388 0 0 0-.464.284C.24.508.22.588.194.667a.532.532 0 0 1-.023.047c-.152.123-.207.332-.1.508.106.171.357.246.53.127.253-.176.336-.456.405-.742A.388.388 0 0 0 .722.144" mask="url(#h)"/>
        </g>
        <path fill="#714F47" d="M50.732 47.833c.386.039.777.187 1.157.472.176.132-3.243 6.129-4.753 4.87-1.916-1.601 1.698-5.533 3.596-5.342"/>
        <path fill="#714F47" d="M47.333 43.135c-.883.363-1.916 1.045-2.467.734-.794-.448 1.425-2.133 1.825-2.517.654-.627 1.41-1.207 2.022-1.88.39-.427.86-1.062.482-1.647-.397-.613-1.09-.072-1.542.2-2.22 1.344-4.264 2.99-6.317 4.574-1.096.845-2.245 1.667-3.362 2.476-.773.559-1.535 1.417-2.497 1.18-.705-.172-1.535-1.058-2.051-.062-.299.575-.435 1.302-.536 2.035-.09.652-.152 1.309-.275 1.87-.205.928-.09 1.862.032 2.793.136 1.034-.464 4.29-.464 4.29.44 1.497.357 2.855 2.097 3.037 1.476.154 3.19-.29 4.439-1.097.73-.472.86-1.054 1.795-.865.764.155 1.46.752 2.277.613.669-.113 1.138-1.14 1.5-1.655.906-1.285 3.55-3.844 2.847-5.543-.604-1.458-.907-1.502-.266-3.166.545-1.41 2.045-2.76 2.033-4.358-.011-1.413-.723-1.36-1.572-1.012M47.447 34.075a9.36 9.36 0 0 0-.643.902c-.42.675-.61 1.967-1.506 2.22-.952.268-1.412-1.485-1.567-2.15-.364-1.565 1.081-2.663 2.294-3.396 1.338-.808 2.558-.584 3.242.828-.64.304-1.295.944-1.82 1.596"/>
        <path fill="#714F47" d="M47.92 43.043l-.402.72c.013.162.392 2.1.517 2.049 1.05-.426 2.154-1.753 1.72-2.91-.195-.516-1.152-1.786-1.785-1.092-.314.344.144.883-.05 1.233"/>
        <path fill="#838080" d="M43.438 27.236c-1.163-.689-2.438-.498-3.906-.32-1.5.18-3.476.388-4.978.543-1.452.151-2.996.303-4.444.484-1.29.162-3.479.377-4.491 1.263-.903.79-1.228 2.364-1.253 3.54-.051 2.379.532 4.715.836 7.063.373 2.893.642 5.584.948 8.485.229 2.158.566 5 .9 7.143.282 1.816.318 3.193.617 5.007.215 1.31.082 3.023 1.451 3.874.856.533 2.134.61 3.097.576 1.528-.053 3.031-.36 4.55-.505 1.771-.168 3.522-.46 5.27-.783 1.537-.285 3.475-.148 4.87-.857 1.583-.804 1.857-2.494 1.69-4.343-.635-7.036-1.851-14.058-2.396-21.059-.15-1.93-.575-3.92-.9-5.864-.272-1.622-.248-3.291-1.861-4.247"/>
        <path fill="#FFF" d="M41.905 29.94c-2.653.386-5.344.522-7.988.951-2.003.326-4.143.055-6.073.779-2.461.922-2.56 3.173-2.286 5.489l.493 4.158 1.163 9.8.646 5.445c.176 1.486-.09 3.34.817 4.634.109.155.227.283.352.387.972.809 2.417.238 3.64.093l9.82-1.165 5.219-.62a175740.995 175740.995 0 0 0-1.527-12.868c-.585-4.933-1.14-9.856-1.567-14.8-.156-1.808-.848-2.554-2.71-2.283"/>
        <path fill="#1B2734" d="M28.764 28.135c-.22-.09-.59-.154-1.227-.006a1.53 1.53 0 0 0-.612.282c.02.165.008.373.229.475.173.08.625.094.832.066.25-.035.44-.089.645-.209.3-.175.134-.393.133-.608"/>
        <path fill="#000" d="M27.4 28.09c-.321.087-.554.429-.072.486.614.072.9-.317.685-.476-.097-.07-.296-.096-.613-.01M44.9 58.914c-1.035.115-11.495 1.385-12.745 1.537-3.406.416-3.24-2.112-3.293-2.576-.103-.882-.119-1.002-.202-1.7l-.905-7.618-.197-1.666-.225-1.89c-.133-1.12-1.118-9.418-1.26-10.537-.262-2.073 1.506-2.487 2.386-2.593 1.005-.121 1.86-.216 2.865-.336 2.162-.259 4.325-.515 6.488-.771 1.478-.175 2.148-.251 3.626-.427 1.24-.148 2.448-.1 2.686 1.89.086.724.109.864.198 1.587.172 1.391 2.55 21.435 2.703 22.682.051.419.322 2.144-2.125 2.418m-3.895-31.097c-3.025.361-11.138 1.25-13.556 1.538-3.2.382-2.602 4.38-2.511 5.494.032.405 1.301 11.049 2.223 18.77l.945 7.913c.378 3.297 2.088 3.651 4.24 3.395l11.58-1.382c4.842-.576 4.665-1.93 4.312-4.891-.114-.953-.69-6.083-1.306-11.534-.62-5.484-1.277-11.293-1.54-13.497-.035-.296-.06-.597-.084-.897-.172-2.107-.528-5.359-4.303-4.909"/>
        <path fill="#000" d="M37.583 29.024c-.694.093-1.034.175-1.554.22-.506.043-1.902.223-2.974.36-.248.032-2.754.123-1.834.796.264.193.837.028 1.135.008.744-.05 1.754-.194 2.65-.298.987-.113 1.528-.179 2.7-.32.988-.12.665-.871-.123-.766"/>
        <path fill="#81C8A6" d="M28.59 56.665l.018.18h.004a.69.69 0 0 1-.014-.136v-.044h-.008"/>
        <path fill="#838080" d="M41.043 61.02c-.465-.068-1.05-.013-1.46 0-.376.013-1.407.163-2.198.275-.334.048-2.356.168-1.401 1.206.228.248.723.217.982.22.556.008 1.3-.127 1.963-.2.73-.08 1.13-.13 1.995-.238.732-.092 1.117-1.12.12-1.264"/>
        <path fill="#714F47" d="M44.52 37.039a2.52 2.52 0 0 1 .017-1.355c1.432.133 5.925.888 4.645 3.277-1.07 1.995-4.296-.494-4.662-1.922M45.002 42.065a2.522 2.522 0 0 1 .016-1.355c1.433.133 5.926.888 4.646 3.277-1.07 1.995-4.296-.494-4.662-1.922"/>
        <path fill="#66413E" d="M46.695 36.63c-.523.956-1.575-.255-1.952-.75-.148-.197-.454.033-.305.23.338.444.742.876 1.243 1.134.228.118.5.174.75.104.289-.081.476-.313.615-.565.118-.217-.234-.368-.351-.153M46.891 41.971c-.43.512-1.285-.187-1.608-.52-.169-.176-.476.052-.305.23.513.529 1.576 1.285 2.214.527.158-.19-.143-.426-.3-.237"/>
        <path fill="#714F47" d="M27.503 37.977c-.573 1.65-1.805 2.935-3.022 4.162-.923.93-2.395 1.763-3.129 2.87-.27 2.7-1.552 5.25-3.227 7.406a2.942 2.942 0 0 0-.196 1.224c.052 2.793.017 7.046.182 9.844 2.07 1.079 2.185 1.201 3.976 2.264.245-.155.363-1.553.598-1.727.72-.53 1.308-1.192 2.078-1.657.469-.283 1.132-.45 1.497-.881.93-1.099.312-3.39.255-4.698-.091-2.124.252-4.359 0-6.465-.2-1.655-.025-2.873.933-4.35.087-.133.226-.251.373-.367.17-.134.351-.264.479-.412.554-.646.899-1.556 1.008-2.417.19-1.5-.017-4.23-1.805-4.796"/>
        <path fill="#66413E" d="M28.09 40.315c-.124.469-.446.845-.913.993-.44.139-.913-.043-1.204-.383-.16-.187-.466.042-.305.23.389.455.975.68 1.565.53.643-.162 1.07-.689 1.235-1.313.064-.238-.315-.292-.378-.057"/>
        <path fill="#FF7900" d="M40.105 56.815a3.978 3.978 0 1 1-5.626-5.625 3.978 3.978 0 0 1 5.626 5.625"/>
        <path fill="#D6D6D6" d="M31.103 42.794a.535.535 0 0 1-.074-1.066l9.401-1.309a.536.536 0 0 1 .148 1.06l-9.4 1.31a.55.55 0 0 1-.075.005M31.222 45.412a.535.535 0 0 1-.074-1.066l9.401-1.309a.536.536 0 0 1 .148 1.06l-9.4 1.31a.55.55 0 0 1-.075.005"/>
        <path fill="#FFF" d="M36.015 51.24c.327-.008 1.03.945 1.053 1.163.023.218-.68.58-.69.726-.009.145 1.793 2.016 1.961 2.034.168.018.463-.785.69-.799.227-.014 1.18.99 1.235 1.162.055.173-.835 1.453-2.433.545-.973-.553-2.305-1.93-2.538-3.15-.15-.785.594-1.677.722-1.68"/>
        <path fill="#FF7900" d="M38.323 35.713l.91-7.355c.02-.34-.208-.63-.477-.61l-7.673.578c-.267.02-.448.339-.38.67l2.015 7.145c.068.331-.113.65-.38.67l-1.356.102c-.376.028-.532.607-.254.942l5.035 6.077c.189.228.487.209.642-.042l4.204-6.774c.231-.372-.01-.929-.388-.9l-1.421.107c-.27.02-.497-.27-.477-.61M39.932 25.916l-9.775 1.036a4.078 4.078 0 0 1-4.485-3.626L23.858 6.21a4.078 4.078 0 0 1 3.626-4.485L37.26.689a4.078 4.078 0 0 1 4.486 3.626l1.813 17.116a4.078 4.078 0 0 1-3.626 4.485"/>
        <g transform="translate(23.794 .546)">
            <mask id="j" fill="#fff">
                <use xlink:href="#i"/>
            </mask>
            <path fill="#000" d="M19.894 14.649c-9.725 1.03-10.186-3.316-19.911-2.286l1.79 16.897 19.45-2.06-1.329-12.551z" mask="url(#j)"/>
        </g>
        <g transform="translate(49 56)">
            <circle cx="13" cy="13" r="13" fill="#FF7900" stroke="#FFF" stroke-width="3"/>
            <g transform="translate(5 5)">
                <mask id="l" fill="#fff">
                    <use xlink:href="#k"/>
                </mask>
                <g fill="#FFF" mask="url(#l)">
                    <path d="M0 0h16v16H0z"/>
                </g>
            </g>
        </g>
    </g>
</svg>
