<svg xmlns="http://www.w3.org/2000/svg" xmlns:xlink="http://www.w3.org/1999/xlink" width="84" height="75" viewBox="0 0 84 75">
    <defs>
        <path id="a" d="M.234.069h41.324v34.1H.234z"/>
    </defs>
    <g fill="none" fill-rule="evenodd">
        <path fill="#725048" d="M49.961 42.678c1.3-.15 2.961.317 4.169-.206 3.58-1.55 7.083-3.273 10.302-5.344.416 1.165.84 2.341 1.197 3.312.48 1.307 1.075 2.58 1.57 3.882.408 1.076.072 2.023.756 3.062.872 1.325 2.853 1.923 3.563 3.246.473.882.114 1.774.064 2.748-.232 4.482 5.833 10.168-.058 13.186-2.346 1.202-5.083 1.742-7.642 2.295-2.068.447-4.155.16-4.827-2.05-.573-1.881-.333-3.768-1.587-5.442-1.13-1.506-3.035-2.19-4.162-3.635-1.607-2.06-2.713-4.796-3.626-7.228-.811-2.164-1.85-4.615-1.323-6.974.144-.641.996-.781 1.604-.852"/>
        <g transform="rotate(10 -291.92 360.272)">
            <mask id="b" fill="#fff">
                <use xlink:href="#a"/>
            </mask>
            <path fill="#50BE87" d="M.373 9.571C.68 9.031 14.27.168 15.99.071c1.143-.065 2.274 1.72 2.791 2.338 2.087 2.499 22.284 26.75 22.776 31.76H14.997c-4.981-4.57-12.3-18.93-14.408-22.949C.2 10.476.136 9.986.373 9.571" mask="url(#b)"/>
        </g>
        <path fill="#725048" d="M46.169 37.781a2.017 2.017 0 0 0-1.07.232c-.173.087 1.866 5.782 3.36 4.925 1.897-1.09-.624-5.032-2.29-5.157"/>
        <path fill="#725048" d="M49.816 34.245c.708.447 1.495 1.193 2.018 1.009.753-.266-.905-2.058-1.192-2.45-.469-.641-1.033-1.256-1.46-1.93-.27-.428-.58-1.048-.164-1.495.436-.468.952.104 1.3.408 1.712 1.497 3.224 3.229 4.755 4.907.818.897 1.683 1.78 2.525 2.649.581.6 1.108 1.456 1.974 1.398.635-.041 1.487-.68 1.78.258.17.542.177 1.19.153 1.838-.022.576-.068 1.153-.047 1.655.035.833-.205 1.622-.453 2.406-.274.872-.252 3.773-.252 3.773-.608 1.225-.743 2.41-2.272 2.3-1.298-.09-2.709-.734-3.663-1.62-.56-.52-.582-1.04-1.418-1.02-.683.017-1.375.427-2.058.183-.56-.2-.809-1.158-1.043-1.658-.585-1.246-2.479-3.857-1.613-5.216.743-1.165 1.012-1.158.71-2.691-.254-1.3-1.344-2.692-1.09-4.07.225-1.218.83-1.064 1.51-.634M51.097 26.41c.167.304.31.606.418.875.26.647.226 1.79.96 2.146.782.376 1.446-1.067 1.68-1.618.553-1.295-.527-2.462-1.463-3.28-1.031-.9-2.118-.892-2.923.222.505.36.974 1.012 1.328 1.654"/>
        <path fill="#725048" d="M49.323 34.076l.238.683c-.035.138-.657 1.752-.758 1.689-.841-.527-1.592-1.841-1.04-2.773.245-.416 1.265-1.366 1.706-.67.218.344-.259.74-.146 1.071"/>
        <path fill="#838080" d="M55.597 21.118c1.108-.418 2.18-.06 3.42.317 1.266.385 2.94.864 4.212 1.227 1.23.351 2.54.717 3.762 1.094 1.088.336 2.944.855 3.683 1.773.659.82.7 2.227.543 3.245-.318 2.06-1.178 3.988-1.796 5.968-.763 2.44-1.404 4.72-2.11 7.178-.526 1.827-1.25 4.227-1.863 6.027-.52 1.524-.76 2.707-1.294 4.227-.386 1.097-.532 2.595-1.842 3.122-.82.33-1.935.201-2.76.026-1.31-.279-2.561-.773-3.85-1.128-1.503-.415-2.969-.933-4.429-1.478-1.282-.48-2.976-.657-4.072-1.48-1.244-.935-1.222-2.435-.797-4.006 1.618-5.974 3.736-11.85 5.272-17.807.424-1.643 1.093-3.296 1.67-4.924.48-1.358.713-2.802 2.251-3.381"/>
        <path fill="#FFB400" d="M56.509 23.684c2.23.736 4.532 1.264 6.748 2.037 1.678.585 3.566.677 5.122 1.596 1.983 1.17 1.727 3.127 1.137 5.084l-1.058 3.513-2.495 8.28-1.386 4.6c-.378 1.256-.43 2.896-1.41 3.875-.117.117-.238.21-.362.28-.963.55-2.122-.162-3.155-.474l-8.297-2.5-4.41-1.328.006-.019 3.27-10.853c1.256-4.168 2.484-8.331 3.604-12.533.41-1.536 1.12-2.074 2.686-1.558"/>
        <path fill="#1B2734" d="M68.123 24.126c.203-.044.532-.043 1.06.181.203.087.38.213.484.337-.041.14-.063.32-.27.375-.16.043-.553-.014-.727-.07a1.419 1.419 0 0 1-.525-.278c-.231-.196-.056-.36-.022-.545"/>
        <path fill="#000" d="M69.307 24.295c.263.123.413.454-.012.43-.541-.03-.729-.41-.518-.514.094-.047.27-.038.53.084M48.05 45.82c.321-1.051 5.423-17.986 5.783-19.16.187-.611.229-.728.413-1.34.508-1.682 1.558-1.539 2.606-1.223 1.248.377 1.814.545 3.063.92 1.827.55 3.655 1.101 5.481 1.653.85.257 1.573.47 2.422.727.743.225 2.206.851 1.664 2.6-.293.944-2.405 7.955-2.69 8.9l-.482 1.598-.424 1.407-1.94 6.437c-.178.589-.21.69-.433 1.436-.117.392-.357 2.599-3.234 1.722-1.055-.321-9.888-3.009-10.763-3.266-2.07-.609-1.575-2.056-1.466-2.41m5.098-20.25c-.067.254-.134.511-.21.76-.561 1.863-2.012 6.775-3.381 11.413-1.36 4.61-2.64 8.95-2.883 9.755C45.92 50 45.56 51.14 49.65 52.376l9.783 2.954c1.818.548 3.348.504 4.176-2.284.035-.12.91-3.01 2.019-6.685 1.97-6.523 4.685-15.514 4.775-15.859.247-.947 1.372-4.307-1.332-5.123-2.042-.617-8.908-2.618-11.464-3.39-3.188-.962-3.99 1.79-4.459 3.581"/>
        <path fill="#000" d="M60.377 23.552c.585.185.866.308 1.308.425.43.115 1.607.483 2.511.764.21.065 2.358.525 1.462.966-.258.126-.727-.103-.98-.166-.636-.156-1.485-.434-2.243-.66a351.9 351.9 0 0 1-2.28-.688c-.835-.254-.442-.852.222-.641"/>
        <path fill="#81C8A6" d="M63.932 48.773l-.044.152-.003-.001a.618.618 0 0 0 .033-.115l.007-.038.007.002"/>
        <path fill="#838080" d="M52.523 50.635c.411.012.909.149 1.26.223.323.068 1.189.355 1.855.571.28.092 2.007.503 1.025 1.255-.234.179-.657.076-.881.04-.48-.078-1.101-.308-1.663-.471-.618-.18-.955-.285-1.686-.51-.617-.19-.793-1.136.09-1.108"/>
        <path fill="#725048" d="M53.171 29.412c.164-.364.24-.765.192-1.172-1.256-.103-5.248-.135-4.507 2.121.619 1.885 3.782.228 4.315-.949M51.991 33.676c.165-.364.24-.765.192-1.172-1.256-.103-5.248-.135-4.507 2.121.619 1.885 3.782.228 4.315-.95"/>
        <path fill="#66413E" d="M51.357 28.728c.305.905 1.398.02 1.798-.35.158-.147.387.098.228.245-.359.332-.773.643-1.245.79-.215.066-.457.074-.663-.025-.237-.114-.363-.342-.444-.581-.07-.205.257-.282.326-.079M50.375 33.307c.293.508 1.137.034 1.467-.204.172-.125.403.118.228.245-.523.38-1.556.87-1.99.118-.108-.187.187-.345.295-.159"/>
        <path fill="#725048" d="M67.713 32.811c.244 1.512 1.112 2.807 1.975 4.05.655.945 1.798 1.887 2.263 2.955-.178 2.37.54 4.765 1.658 6.881a2.584 2.584 0 0 1-.017 1.086c-.47 2.402-1.087 6.078-1.654 8.467-1.951.616-2.07.704-3.776 1.35-.188-.172-.077-1.397-.254-1.582-.54-.568-.947-1.228-1.54-1.747-.362-.315-.909-.56-1.158-.988-.635-1.09.246-2.972.494-4.092.402-1.82.446-3.8.984-5.579.424-1.399.459-2.476-.143-3.896a1.455 1.455 0 0 0-.267-.374c-.126-.14-.262-.28-.35-.428-.38-.641-.539-1.48-.502-2.239.065-1.323.658-3.647 2.287-3.864"/>
        <path fill="#66413E" d="M66.85 34.74c.037.423.258.796.638.995.358.187.794.102 1.097-.148.166-.136.396.108.228.246-.404.333-.945.438-1.43.22-.531-.239-.82-.758-.867-1.322-.019-.215.317-.204.335.008"/>
        <path fill="#000" d="M58.314 68.43c.077-.053.154-.108.23-.162.346-.243.464-.778.199-1.125-.266-.347-.756-.459-1.126-.198l-.23.161c-.346.244-.464.779-.198 1.126.265.347.756.458 1.125.198M59.877 67.812c.515-.074.941-.3 1.308-.666.3-.3.232-.886-.094-1.139-.37-.287-.819-.226-1.139.094a.738.738 0 0 0 .046-.04 1.288 1.288 0 0 1-.16.111 1.05 1.05 0 0 0 .077-.039c-.052.022-.106.041-.158.063-.082.024-.061.021.064-.01a1.263 1.263 0 0 1-.096.017c-.418.06-.791.434-.729.88.058.417.433.793.881.729M62.982 66.745l.651-.3c.384-.176.656-.615.478-1.038-.16-.378-.628-.667-1.039-.478l-.651.3c-.383.176-.656.615-.478 1.039.16.378.628.666 1.039.477M66.25 65.217c-.077.103-.095.13-.054.083.04-.046.017-.024-.07.066l-.104.056c-.133.022-.157.03-.073.022.422-.027.787-.457.728-.88a.825.825 0 0 0-.88-.73c-.442.03-.808.305-1.008.69-.195.375-.01.911.383 1.076a.826.826 0 0 0 1.077-.383M68.535 64.4c-.024.022-.135.106-.046.051l-.039.024c.068-.041-.15.015-.07.012.06-.002.176-.002-.055-.014.223.012.414 0 .604-.134a.82.82 0 0 0 .332-.522c.051-.391-.203-.911-.655-.936-.255-.014-.472-.011-.717.078-.234.086-.408.227-.587.395-.143.135-.206.413-.188.6a.824.824 0 0 0 .282.54c.167.13.382.218.599.188.221-.031.378-.13.54-.282M71.01 63.617c.285-.08.57-.16.856-.242.407-.115.637-.658.477-1.038-.18-.43-.602-.601-1.038-.478l-.856.243c-.408.115-.638.657-.478 1.038.18.43.603.601 1.039.477M73.584 62.754l.64-.192c.405-.121.638-.653.477-1.038-.179-.424-.605-.608-1.039-.478l-.639.192c-.405.122-.64.654-.477 1.039.178.424.604.608 1.038.477"/>
        <path fill="#000" d="M75.378 62.28c1.024.18 1.306-1.41.28-1.592-1.024-.18-1.306 1.41-.28 1.592"/>
        <path fill="#FFF" d="M59.035 71.417l.846-.275c.403-.131.642-.647.477-1.038a.826.826 0 0 0-1.038-.478l-.846.275c-.402.132-.642.648-.477 1.039a.826.826 0 0 0 1.038.477M62.06 70.1l.23-.16c.346-.245.464-.78.198-1.126-.265-.347-.756-.46-1.125-.199l-.23.162c-.346.244-.464.778-.198 1.125.265.347.756.46 1.125.199M64.25 69.29l.64-.191c.405-.12.638-.654.477-1.038-.179-.425-.604-.607-1.038-.478l-.64.19c-.406.121-.64.655-.478 1.039.179.425.605.606 1.039.477M67.268 68.206l.566-.292c.194-.101.35-.205.449-.411a.825.825 0 0 0 .028-.628c-.153-.363-.637-.685-1.038-.477l-.566.292c-.196.1-.351.204-.45.411a.826.826 0 0 0-.028.628c.153.363.637.684 1.039.477M69.27 67.132l.544-.198c.398-.144.646-.637.478-1.038-.17-.406-.614-.632-1.039-.477l-.545.197c-.397.145-.646.638-.477 1.039.17.405.613.632 1.038.477M71.744 66.248l1.217-.443c.398-.145.646-.638.478-1.039-.17-.405-.613-.632-1.038-.477l-1.218.443c-.397.145-.646.638-.477 1.039.17.405.613.632 1.038.477"/>
        <path fill="#FFF" d="M74.34 65.304c.109-.05.217-.1.327-.149.383-.175.655-.615.477-1.038-.16-.38-.627-.665-1.038-.478l-.327.15c-.384.174-.655.615-.477 1.038.16.379.627.665 1.038.477M76.514 64.49l.213-.064c.406-.121.639-.655.477-1.039-.178-.425-.604-.606-1.038-.477l-.213.064c-.406.12-.64.654-.478 1.038.179.425.604.606 1.039.477"/>
        <path fill="#725048" d="M13.739 26.914c-.58-1.534-3.553.202-5.008 1.242-1.468 1.05-3.238 1.715-4.545 2.986-1.306 1.27-1.753 3.411-2.243 5.155-1.137 4.054-.875 9.549-2.787 13.35-.917 1.822-22.765 26.814-20.55 27.768 1.913.824 10.323 1.672 12.037 2.973 1.04.79 1.522 1.59 2.595.49.69-.709 14.996-27.273 15.567-28.074.702-.985 1.284-1.783 2.21-2.586 2.285-1.986 2.136-6.179 2.998-9.056.886-2.959 2.718-4.612.296-7.437-1.478-1.723.232-4.69-.57-6.81"/>
        <path fill="#595959" d="M17.872 7.08c1.18-.613 2.42-.355 3.852-.1 1.463.261 3.39.574 4.856.81 1.418.229 2.924.463 4.336.721 1.257.23 3.394.563 4.339 1.489.842.826 1.074 2.388 1.034 3.544-.082 2.338-.784 4.6-1.212 6.886-.527 2.82-.94 5.446-1.4 8.277-.344 2.106-.833 4.876-1.279 6.963-.378 1.767-.49 3.116-.883 4.88-.284 1.273-.248 2.963-1.64 3.723-.869.475-2.128.48-3.072.394-1.496-.137-2.954-.522-4.437-.748-1.73-.263-3.432-.646-5.131-1.06-1.492-.365-3.403-.338-4.733-1.111-1.509-.877-1.685-2.551-1.418-4.357 1.012-6.872 2.595-13.698 3.518-20.54.255-1.886.781-3.816 1.209-5.706.356-1.577.424-3.217 2.061-4.066"/>
        <path fill="#000" d="M32.226 8.774c.22-.076.588-.118 1.205.062.238.07.452.187.585.31-.028.161-.028.366-.25.454-.174.069-.62.058-.82.019a1.593 1.593 0 0 1-.622-.24c-.285-.19-.11-.394-.098-.605"/>
        <path fill="#595959" d="M33.568 8.805c.31.103.52.452.044.482-.607.037-.866-.362-.646-.505.1-.065.296-.078.602.023"/>
        <path fill="#000" d="M20.228 7.784c2.95.522 10.864 1.843 13.222 2.26 3.12.552 2.311 4.445 2.16 5.533-.053.395-1.889 10.773-3.221 18.301l-1.366 7.716c-.553 3.216-2.251 3.468-4.35 3.097l-11.291-1.997c-4.72-.835-4.472-2.153-3.961-5.04.164-.93 1.014-5.934 1.92-11.25.912-5.349 1.879-11.014 2.26-13.164.05-.288.091-.582.132-.876.285-2.058.815-5.23 4.495-4.58"/>
        <path fill="#595959" d="M23.52 9.159c.676.13 1.006.229 1.514.3.494.072 1.854.326 2.9.52.24.044 2.695.273 1.755.882-.27.176-.823-.019-1.114-.055-.728-.09-1.711-.287-2.586-.439-.962-.166-1.49-.26-2.632-.464-.963-.173-.605-.892.163-.744"/>
        <path fill="#000" d="M26.626 40.204c.997.28 1.842.392 2.9.224l.98-.319c.364 1.396-.31 3.211-1.479 4.08-.985.731-2.492.42-3.59.097-1.234-.363-2.55-.64-2.506-1.957.027-.832-.312-1.936-.135-2.752.024-.11 3.502.535 3.83.627"/>
        <path fill="#FFF" d="M12.566 36.246l.646-3.726 1.106-6.376h.002l.442-2.546c.24-1.385 1.47-8.603 1.71-9.989.126-.72.155-.859.278-1.58.336-1.984 1.539-1.986 2.763-1.79 1.46.232 2.12.333 3.58.564 2.136.338 4.271.676 6.407 1.017.992.158 1.837.286 2.829.445.868.14 2.604.525 2.326 2.17l-1.87 11.01-.599 3.543-1.282 7.59c-.118.695-.221 1.303-.367 2.182-.124.74-.229 2.457-3.32 1.964-1.235-.196-11.561-1.866-12.583-2.02-2.417-.367-2.14-2.041-2.068-2.458"/>
        <path fill="#9DAAC0" d="M23.387 37.986l.004.009a.053.053 0 0 1-.004-.01"/>
        <path fill="#233143" d="M31.628 27.056l-.035.027.035-.028zM31.495 26.934l.001-.009.001.009h-.002zM15.547 23.923v-.008l.002.008h-.002z"/>
        <path fill="#8F8F8F" d="M18.549 40.794c.463-.024 1.041.066 1.446.108.373.038 1.389.241 2.17.394.328.064 2.328.314 1.349 1.13-.234.195-.723.132-.98.116-.55-.034-1.283-.203-1.937-.313-.721-.122-1.116-.194-1.97-.349-.721-.131-1.07-1.035-.078-1.086"/>
        <path fill="#FF7900" d="M4.67 50.869c-.028.008-.05.014 0 0M2.647 52.465c-.028.009-.05.016 0 0"/>
        <path fill="#725048" d="M17.898 30.927c-2.728 1.562-3.203 6.27-6.933 6.79-.662.092-1.363.344-1.975.097-.737-.299-.977-1.013-1.39-1.634.168.254-.322 1.682-.393 2.002-.122.542-.27 1.04-.55 1.523-.519.892-.907 1.567-.97 2.643-.117 2.023-2.595 7.726-.871 8.973 2.55 1.845 6.653-.645 8.19-2.976.351-.532 1.861-3.19 2.064-3.78.439-1.28.86-3.469 1.293-4.745.982-2.9 3.789-6.811 4.52-8.235.506-.985-1.257-1.647-2.985-.658"/>
        <path fill="#80615A" d="M20.157 30.808c-.895.653-1.757 1.455-2.084 2.514-.07.227-.114.472-.053.702.06.23.247.44.484.465.245.025.465-.142.648-.308a7.638 7.638 0 0 0 1.878-2.656c.091-.216.161-.497-.008-.66-.148-.145-.39-.104-.59-.053"/>
        <path fill="#000" d="M58.855 32.95L52.3 39.506a1.38 1.38 0 0 0 .619 2.308l8.953 2.399a1.38 1.38 0 0 0 1.69-1.69l-2.4-8.953a1.38 1.38 0 0 0-2.307-.618"/>
        <path fill="#FFB400" d="M57.679 39.667l1.143.307-.295 1.105-1.144-.306.296-1.106zm1.182-4.52l1.198.32-.383 1.43-1.014 2.546-.57-.153.387-2.715.382-1.429z"/>
        <path fill="#000" d="M41.252 7.821l-8.983.18S33.934-.159 46.76.06c4.324.073 10.453 4.53 11.774 12.538l2.066-.253-3.933 5.733-4.364-4.493 1.634-.252S50.134.627 44.292.9c-1.636.076-2.938 2.27-3.04 6.921"/>
        <path fill="#FFF" d="M49.16 17.649l-2.276-2.176c-.577-.55-1.392.38-.817.93l2.276 2.175c.577.551 1.393-.38.817-.93M50.83 14.162l-1.364-2.547c-.376-.702-1.4-.006-1.027.691l1.364 2.548c.376.7 1.4.006 1.027-.692M63.448 15.83l.983-2.289c.314-.73-.791-1.287-1.106-.554l-.984 2.288c-.314.73.792 1.287 1.107.555M64.6 19.718a14.687 14.687 0 0 1 2.391-.956c.762-.234.358-1.404-.404-1.17-.93.284-1.814.657-2.68 1.1-.707.36-.01 1.385.692 1.026"/>
        <path fill="#000" d="M22.759 22.18l-4.261-.66a.876.876 0 1 0-.269 1.73l2.173.337-4.04 2.956a.876.876 0 0 0 1.034 1.413L21.436 25l-.337 2.173a.876.876 0 1 0 1.73.268l.66-4.261a.876.876 0 0 0-.73-1"/>
        <path fill="#F60" d="M24.426 28.574l4.26.66a.875.875 0 1 0 .27-1.73l-2.174-.337 4.04-2.955a.876.876 0 0 0-1.034-1.413l-4.04 2.955.337-2.172a.876.876 0 0 0-1.73-.268l-.66 4.261a.875.875 0 0 0 .73 1"/>
        <path fill="#FFF" d="M29.397 68.591l1.835-3.702c.53-1.067-1.072-2.008-1.604-.936l-1.836 3.702c-.529 1.068 1.073 2.008 1.605.936M40.842 70.175l.862-4.631c.218-1.169-1.572-1.668-1.79-.493-.289 1.544-.576 3.088-.863 4.631-.218 1.169 1.571 1.668 1.79.493M52.231 68.99l-.37-4.616c-.094-1.183-1.952-1.192-1.856.001l.37 4.615c.094 1.184 1.952 1.192 1.856 0M19.298 61.342l2.756-2.177c.393-.311.324-.988-.002-1.313-.389-.39-.918-.312-1.313 0l-2.754 2.178c-.394.311-.325.988 0 1.313.39.389.919.311 1.313 0M16.24 52.963l1.542-.61c.466-.185.792-.623.648-1.144-.122-.443-.674-.833-1.143-.647l-1.541.61c-.466.185-.792.623-.648 1.143.122.444.674.834 1.142.648"/>
    </g>
</svg>
