<svg xmlns="http://www.w3.org/2000/svg" xmlns:xlink="http://www.w3.org/1999/xlink" width="176" height="175" viewBox="0 0 176 175">
    <defs>
        <filter id="a" width="111.4%" height="109.4%" x="-5.7%" y="-4.7%" filterUnits="objectBoundingBox">
            <feOffset dy="2" in="SourceAlpha" result="shadowOffsetOuter1"/>
            <feGaussianBlur in="shadowOffsetOuter1" result="shadowBlurOuter1" stdDeviation="4"/>
            <feColorMatrix in="shadowBlurOuter1" result="shadowMatrixOuter1" values="0 0 0 0 0 0 0 0 0 0 0 0 0 0 0 0 0 0 0.05 0"/>
            <feMerge>
                <feMergeNode in="shadowMatrixOuter1"/>
                <feMergeNode in="SourceGraphic"/>
            </feMerge>
        </filter>
        <path id="b" d="M.453 79.725c0 43.793 35.621 79.294 79.563 79.294 43.94 0 79.561-35.501 79.561-79.294 0-43.792-35.62-79.293-79.561-79.293C36.074.432.453 35.933.453 79.725z"/>
        <path id="d" d="M.115 56.528v46.395c6.739 21.983 22.809 39.913 43.605 49.2h64.997c20.796-9.287 36.865-27.215 43.604-49.198v-46.4C142.366 24.054 112.061.433 76.22.433 40.377.432 10.07 24.055.115 56.528"/>
        <path id="f" d="M.115 56.528v46.395c6.739 21.983 22.809 39.913 43.605 49.2h64.997c20.796-9.287 36.865-27.215 43.604-49.198v-46.4C142.366 24.054 112.061.433 76.22.433 40.377.432 10.07 24.055.115 56.528"/>
        <path id="h" d="M.115 56.528v46.395c6.739 21.983 22.809 39.913 43.605 49.2h64.997c20.796-9.287 36.865-27.215 43.604-49.198v-46.4C142.366 24.054 112.061.433 76.22.433 40.377.432 10.07 24.055.115 56.528"/>
        <path id="j" d="M.115 56.528v46.395c6.739 21.983 22.809 39.913 43.605 49.2h64.997c20.796-9.287 36.865-27.215 43.604-49.198v-46.4C142.366 24.054 112.061.433 76.22.433 40.377.432 10.07 24.055.115 56.528"/>
        <path id="l" d="M.115 56.528v46.395c6.739 21.983 22.809 39.913 43.605 49.2h64.997c20.796-9.287 36.865-27.215 43.604-49.198v-46.4C142.366 24.054 112.061.433 76.22.433 40.377.432 10.07 24.055.115 56.528"/>
        <path id="n" d="M.115 56.528v46.395c6.739 21.983 22.809 39.913 43.605 49.2h64.997c20.796-9.287 36.865-27.215 43.604-49.198v-46.4C142.366 24.054 112.061.433 76.22.433 40.377.432 10.07 24.055.115 56.528"/>
        <path id="p" d="M.115 56.528v46.395c6.739 21.983 22.809 39.913 43.605 49.2h64.997c20.796-9.287 36.865-27.215 43.604-49.198v-46.4C142.366 24.054 112.061.433 76.22.433 40.377.432 10.07 24.055.115 56.528"/>
        <path id="r" d="M.115 56.528v46.395c6.739 21.983 22.809 39.913 43.605 49.2h64.997c20.796-9.287 36.865-27.215 43.604-49.198v-46.4C142.366 24.054 112.061.433 76.22.433 40.377.432 10.07 24.055.115 56.528"/>
        <path id="t" d="M.115 56.528v46.395c6.739 21.983 22.809 39.913 43.605 49.2h64.997c20.796-9.287 36.865-27.215 43.604-49.198v-46.4C142.366 24.054 112.061.433 76.22.433 40.377.432 10.07 24.055.115 56.528"/>
        <path id="v" d="M.115 56.528v46.395c6.739 21.983 22.809 39.913 43.605 49.2h64.997c20.796-9.287 36.865-27.215 43.604-49.198v-46.4C142.366 24.054 112.061.433 76.22.433 40.377.432 10.07 24.055.115 56.528"/>
        <path id="x" d="M.115 56.528v46.395c6.739 21.983 22.809 39.913 43.605 49.2h64.997c20.796-9.287 36.865-27.215 43.604-49.198v-46.4C142.366 24.054 112.061.433 76.22.433 40.377.432 10.07 24.055.115 56.528"/>
        <path id="z" d="M.115 56.528v46.395c6.739 21.983 22.809 39.913 43.605 49.2h64.997c20.796-9.287 36.865-27.215 43.604-49.198v-46.4C142.366 24.054 112.061.433 76.22.433 40.377.432 10.07 24.055.115 56.528"/>
        <path id="B" d="M.115 56.528v46.395c6.739 21.983 22.809 39.913 43.605 49.2h64.997c20.796-9.287 36.865-27.215 43.604-49.198v-46.4C142.366 24.054 112.061.433 76.22.433 40.377.432 10.07 24.055.115 56.528"/>
        <path id="D" d="M.115 56.528v46.395c6.739 21.983 22.809 39.913 43.605 49.2h64.997c20.796-9.287 36.865-27.215 43.604-49.198v-46.4C142.366 24.054 112.061.433 76.22.433 40.377.432 10.07 24.055.115 56.528"/>
        <path id="F" d="M.115 56.528v46.395c6.739 21.983 22.809 39.913 43.605 49.2h64.997c20.796-9.287 36.865-27.215 43.604-49.198v-46.4C142.366 24.054 112.061.433 76.22.433 40.377.432 10.07 24.055.115 56.528"/>
        <path id="H" d="M.115 56.528v46.395c6.739 21.983 22.809 39.913 43.605 49.2h64.997c20.796-9.287 36.865-27.215 43.604-49.198v-46.4C142.366 24.054 112.061.433 76.22.433 40.377.432 10.07 24.055.115 56.528"/>
        <path id="J" d="M.115 56.528v46.395c6.739 21.983 22.809 39.913 43.605 49.2h64.997c20.796-9.287 36.865-27.215 43.604-49.198v-46.4C142.366 24.054 112.061.433 76.22.433 40.377.432 10.07 24.055.115 56.528"/>
        <path id="L" d="M.115 56.528v46.395c6.739 21.983 22.809 39.913 43.605 49.2h64.997c20.796-9.287 36.865-27.215 43.604-49.198v-46.4C142.366 24.054 112.061.433 76.22.433 40.377.432 10.07 24.055.115 56.528"/>
        <path id="N" d="M.115 56.528v46.395c6.739 21.983 22.809 39.913 43.605 49.2h64.997c20.796-9.287 36.865-27.215 43.604-49.198v-46.4C142.366 24.054 112.061.433 76.22.433 40.377.432 10.07 24.055.115 56.528"/>
        <path id="P" d="M.115 56.528v46.395c6.739 21.983 22.809 39.913 43.605 49.2h64.997c20.796-9.287 36.865-27.215 43.604-49.198v-46.4C142.366 24.054 112.061.433 76.22.433 40.377.432 10.07 24.055.115 56.528"/>
        <path id="R" d="M.115 56.528v46.395c6.739 21.983 22.809 39.913 43.605 49.2h64.997c20.796-9.287 36.865-27.215 43.604-49.198v-46.4C142.366 24.054 112.061.433 76.22.433 40.377.432 10.07 24.055.115 56.528"/>
        <path id="T" d="M.115 56.528v46.395c6.739 21.983 22.809 39.913 43.605 49.2h64.997c20.796-9.287 36.865-27.215 43.604-49.198v-46.4C142.366 24.054 112.061.433 76.22.433 40.377.432 10.07 24.055.115 56.528"/>
        <path id="V" d="M.115 56.528v46.395c6.739 21.983 22.809 39.913 43.605 49.2h64.997c20.796-9.287 36.865-27.215 43.604-49.198v-46.4C142.366 24.054 112.061.433 76.22.433 40.377.432 10.07 24.055.115 56.528"/>
        <path id="X" d="M.115 56.528v46.395c6.739 21.983 22.809 39.913 43.605 49.2h64.997c20.796-9.287 36.865-27.215 43.604-49.198v-46.4C142.366 24.054 112.061.433 76.22.433 40.377.432 10.07 24.055.115 56.528"/>
        <path id="Z" d="M.115 56.528v46.395c6.739 21.983 22.809 39.913 43.605 49.2h64.997c20.796-9.287 36.865-27.215 43.604-49.198v-46.4C142.366 24.054 112.061.433 76.22.433 40.377.432 10.07 24.055.115 56.528"/>
        <path id="ab" d="M.115 56.528v46.395c6.739 21.983 22.809 39.913 43.605 49.2h64.997c20.796-9.287 36.865-27.215 43.604-49.198v-46.4C142.366 24.054 112.061.433 76.22.433 40.377.432 10.07 24.055.115 56.528"/>
        <path id="ad" d="M.115 56.528v46.395c6.739 21.983 22.809 39.913 43.605 49.2h64.997c20.796-9.287 36.865-27.215 43.604-49.198v-46.4C142.366 24.054 112.061.433 76.22.433 40.377.432 10.07 24.055.115 56.528"/>
        <path id="af" d="M.115 56.528v46.395c6.739 21.983 22.809 39.913 43.605 49.2h64.997c20.796-9.287 36.865-27.215 43.604-49.198v-46.4C142.366 24.054 112.061.433 76.22.433 40.377.432 10.07 24.055.115 56.528"/>
        <path id="ah" d="M.115 56.528v46.395c6.739 21.983 22.809 39.913 43.605 49.2h64.997c20.796-9.287 36.865-27.215 43.604-49.198v-46.4C142.366 24.054 112.061.433 76.22.433 40.377.432 10.07 24.055.115 56.528"/>
        <path id="aj" d="M.115 56.528v46.395c6.739 21.983 22.809 39.913 43.605 49.2h64.997c20.796-9.287 36.865-27.215 43.604-49.198v-46.4C142.366 24.054 112.061.433 76.22.433 40.377.432 10.07 24.055.115 56.528"/>
        <path id="al" d="M.115 56.528v46.395c6.739 21.983 22.809 39.913 43.605 49.2h64.997c20.796-9.287 36.865-27.215 43.604-49.198v-46.4C142.366 24.054 112.061.433 76.22.433 40.377.432 10.07 24.055.115 56.528"/>
        <path id="an" d="M.115 56.528v46.395c6.739 21.983 22.809 39.913 43.605 49.2h64.997c20.796-9.287 36.865-27.215 43.604-49.198v-46.4C142.366 24.054 112.061.433 76.22.433 40.377.432 10.07 24.055.115 56.528"/>
        <path id="ap" d="M.115 56.528v46.395c6.739 21.983 22.809 39.913 43.605 49.2h64.997c20.796-9.287 36.865-27.215 43.604-49.198v-46.4C142.366 24.054 112.061.433 76.22.433 40.377.432 10.07 24.055.115 56.528"/>
        <path id="ar" d="M.115 56.528v46.395c6.739 21.983 22.809 39.913 43.605 49.2h64.997c20.796-9.287 36.865-27.215 43.604-49.198v-46.4C142.366 24.054 112.061.433 76.22.433 40.377.432 10.07 24.055.115 56.528"/>
        <path id="at" d="M.115 56.528v46.395c6.739 21.983 22.809 39.913 43.605 49.2h64.997c20.796-9.287 36.865-27.215 43.604-49.198v-46.4C142.366 24.054 112.061.433 76.22.433 40.377.432 10.07 24.055.115 56.528"/>
        <path id="av" d="M.115 56.528v46.395c6.739 21.983 22.809 39.913 43.605 49.2h64.997c20.796-9.287 36.865-27.215 43.604-49.198v-46.4C142.366 24.054 112.061.433 76.22.433 40.377.432 10.07 24.055.115 56.528"/>
        <path id="ax" d="M.115 56.528v46.395c6.739 21.983 22.809 39.913 43.605 49.2h64.997c20.796-9.287 36.865-27.215 43.604-49.198v-46.4C142.366 24.054 112.061.433 76.22.433 40.377.432 10.07 24.055.115 56.528"/>
        <path id="az" d="M.115 56.528v46.395c6.739 21.983 22.809 39.913 43.605 49.2h64.997c20.796-9.287 36.865-27.215 43.604-49.198v-46.4C142.366 24.054 112.061.433 76.22.433 40.377.432 10.07 24.055.115 56.528"/>
        <path id="aB" d="M.115 56.528v46.395c6.739 21.983 22.809 39.913 43.605 49.2h64.997c20.796-9.287 36.865-27.215 43.604-49.198v-46.4C142.366 24.054 112.061.433 76.22.433 40.377.432 10.07 24.055.115 56.528"/>
        <path id="aD" d="M.115 56.528v46.395c6.739 21.983 22.809 39.913 43.605 49.2h64.997c20.796-9.287 36.865-27.215 43.604-49.198v-46.4C142.366 24.054 112.061.433 76.22.433 40.377.432 10.07 24.055.115 56.528"/>
        <path id="aF" d="M.115 56.528v46.395c6.739 21.983 22.809 39.913 43.605 49.2h64.997c20.796-9.287 36.865-27.215 43.604-49.198v-46.4C142.366 24.054 112.061.433 76.22.433 40.377.432 10.07 24.055.115 56.528"/>
        <path id="aH" d="M.115 56.528v46.395c6.739 21.983 22.809 39.913 43.605 49.2h64.997c20.796-9.287 36.865-27.215 43.604-49.198v-46.4C142.366 24.054 112.061.433 76.22.433 40.377.432 10.07 24.055.115 56.528"/>
        <path id="aJ" d="M.115 56.528v46.395c6.739 21.983 22.809 39.913 43.605 49.2h64.997c20.796-9.287 36.865-27.215 43.604-49.198v-46.4C142.366 24.054 112.061.433 76.22.433 40.377.432 10.07 24.055.115 56.528"/>
        <path id="aL" d="M.115 56.528v46.395c6.739 21.983 22.809 39.913 43.605 49.2h64.997c20.796-9.287 36.865-27.215 43.604-49.198v-46.4C142.366 24.054 112.061.433 76.22.433 40.377.432 10.07 24.055.115 56.528"/>
        <path id="aN" d="M.115 56.528v46.395c6.739 21.983 22.809 39.913 43.605 49.2h64.997c20.796-9.287 36.865-27.215 43.604-49.198v-46.4C142.366 24.054 112.061.433 76.22.433 40.377.432 10.07 24.055.115 56.528"/>
        <path id="aP" d="M.115 56.528v46.395c6.739 21.983 22.809 39.913 43.605 49.2h64.997c20.796-9.287 36.865-27.215 43.604-49.198v-46.4C142.366 24.054 112.061.433 76.22.433 40.377.432 10.07 24.055.115 56.528z"/>
        <path id="aR" d="M.115 56.528v46.395c6.739 21.983 22.809 39.913 43.605 49.2h64.997c20.796-9.287 36.865-27.215 43.604-49.198v-46.4C142.366 24.054 112.061.433 76.22.433 40.377.432 10.07 24.055.115 56.528z"/>
        <path id="aT" d="M.115 56.528v46.395c6.739 21.983 22.809 39.913 43.605 49.2h64.997c20.796-9.287 36.865-27.215 43.604-49.198v-46.4C142.366 24.054 112.061.433 76.22.433 40.377.432 10.07 24.055.115 56.528z"/>
        <path id="aV" d="M.115 56.528v46.395c6.739 21.983 22.809 39.913 43.605 49.2h64.997c20.796-9.287 36.865-27.215 43.604-49.198v-46.4C142.366 24.054 112.061.433 76.22.433 40.377.432 10.07 24.055.115 56.528"/>
        <path id="aX" d="M.115 56.528v46.395c6.739 21.983 22.809 39.913 43.605 49.2h64.997c20.796-9.287 36.865-27.215 43.604-49.198v-46.4C142.366 24.054 112.061.433 76.22.433 40.377.432 10.07 24.055.115 56.528"/>
        <path id="aZ" d="M.115 56.528v46.395c6.739 21.983 22.809 39.913 43.605 49.2h64.997c20.796-9.287 36.865-27.215 43.604-49.198v-46.4C142.366 24.054 112.061.433 76.22.433 40.377.432 10.07 24.055.115 56.528"/>
        <path id="bb" d="M.115 56.528v46.395c6.739 21.983 22.809 39.913 43.605 49.2h64.997c20.796-9.287 36.865-27.215 43.604-49.198v-46.4C142.366 24.054 112.061.433 76.22.433 40.377.432 10.07 24.055.115 56.528"/>
        <path id="bd" d="M.115 56.528v46.395c6.739 21.983 22.809 39.913 43.605 49.2h64.997c20.796-9.287 36.865-27.215 43.604-49.198v-46.4C142.366 24.054 112.061.433 76.22.433 40.377.432 10.07 24.055.115 56.528"/>
        <path id="bf" d="M.115 56.528v46.395c6.739 21.983 22.809 39.913 43.605 49.2h64.997c20.796-9.287 36.865-27.215 43.604-49.198v-46.4C142.366 24.054 112.061.433 76.22.433 40.377.432 10.07 24.055.115 56.528"/>
        <path id="bh" d="M.453 79.725c0 43.793 35.621 79.294 79.563 79.294 43.94 0 79.561-35.501 79.561-79.294 0-43.792-35.62-79.293-79.561-79.293C36.074.432.453 35.933.453 79.725z"/>
        <path id="bj" d="M.115 56.528v46.395c6.739 21.983 22.809 39.913 43.605 49.2h64.997c20.796-9.287 36.865-27.215 43.604-49.198v-46.4C142.366 24.054 112.061.433 76.22.433 40.377.432 10.07 24.055.115 56.528"/>
        <path id="bl" d="M.115 56.528v46.395c6.739 21.983 22.809 39.913 43.605 49.2h64.997c20.796-9.287 36.865-27.215 43.604-49.198v-46.4C142.366 24.054 112.061.433 76.22.433 40.377.432 10.07 24.055.115 56.528"/>
        <path id="bn" d="M.115 56.528v46.395c6.739 21.983 22.809 39.913 43.605 49.2h64.997c20.796-9.287 36.865-27.215 43.604-49.198v-46.4C142.366 24.054 112.061.433 76.22.433 40.377.432 10.07 24.055.115 56.528"/>
        <path id="bp" d="M.115 56.528v46.395c6.739 21.983 22.809 39.913 43.605 49.2h64.997c20.796-9.287 36.865-27.215 43.604-49.198v-46.4C142.366 24.054 112.061.433 76.22.433 40.377.432 10.07 24.055.115 56.528"/>
        <path id="br" d="M.115 56.528v46.395c6.739 21.983 22.809 39.913 43.605 49.2h64.997c20.796-9.287 36.865-27.215 43.604-49.198v-46.4C142.366 24.054 112.061.433 76.22.433 40.377.432 10.07 24.055.115 56.528"/>
        <path id="bt" d="M.115 56.528v46.395c6.739 21.983 22.809 39.913 43.605 49.2h64.997c20.796-9.287 36.865-27.215 43.604-49.198v-46.4C142.366 24.054 112.061.433 76.22.433 40.377.432 10.07 24.055.115 56.528"/>
        <path id="bv" d="M.115 56.528v46.395c6.739 21.983 22.809 39.913 43.605 49.2h64.997c20.796-9.287 36.865-27.215 43.604-49.198v-46.4C142.366 24.054 112.061.433 76.22.433 40.377.432 10.07 24.055.115 56.528"/>
        <path id="bx" d="M.115 56.528v46.395c6.739 21.983 22.809 39.913 43.605 49.2h64.997c20.796-9.287 36.865-27.215 43.604-49.198v-46.4C142.366 24.054 112.061.433 76.22.433 40.377.432 10.07 24.055.115 56.528"/>
        <path id="bz" d="M.115 56.528v46.395c6.739 21.983 22.809 39.913 43.605 49.2h64.997c20.796-9.287 36.865-27.215 43.604-49.198v-46.4C142.366 24.054 112.061.433 76.22.433 40.377.432 10.07 24.055.115 56.528"/>
        <path id="bB" d="M.115 56.528v46.395c6.739 21.983 22.809 39.913 43.605 49.2h64.997c20.796-9.287 36.865-27.215 43.604-49.198v-46.4C142.366 24.054 112.061.433 76.22.433 40.377.432 10.07 24.055.115 56.528"/>
        <path id="bD" d="M.115 56.528v46.395c6.739 21.983 22.809 39.913 43.605 49.2h64.997c20.796-9.287 36.865-27.215 43.604-49.198v-46.4C142.366 24.054 112.061.433 76.22.433 40.377.432 10.07 24.055.115 56.528"/>
        <path id="bF" d="M.115 56.528v46.395c6.739 21.983 22.809 39.913 43.605 49.2h64.997c20.796-9.287 36.865-27.215 43.604-49.198v-46.4C142.366 24.054 112.061.433 76.22.433 40.377.432 10.07 24.055.115 56.528"/>
        <path id="bH" d="M.115 56.528v46.395c6.739 21.983 22.809 39.913 43.605 49.2h64.997c20.796-9.287 36.865-27.215 43.604-49.198v-46.4C142.366 24.054 112.061.433 76.22.433 40.377.432 10.07 24.055.115 56.528"/>
        <path id="bJ" d="M.115 56.528v46.395c6.739 21.983 22.809 39.913 43.605 49.2h64.997c20.796-9.287 36.865-27.215 43.604-49.198v-46.4C142.366 24.054 112.061.433 76.22.433 40.377.432 10.07 24.055.115 56.528"/>
        <path id="bL" d="M.115 56.528v46.395c6.739 21.983 22.809 39.913 43.605 49.2h64.997c20.796-9.287 36.865-27.215 43.604-49.198v-46.4C142.366 24.054 112.061.433 76.22.433 40.377.432 10.07 24.055.115 56.528"/>
        <path id="bN" d="M.115 56.528v46.395c6.739 21.983 22.809 39.913 43.605 49.2h64.997c20.796-9.287 36.865-27.215 43.604-49.198v-46.4C142.366 24.054 112.061.433 76.22.433 40.377.432 10.07 24.055.115 56.528"/>
        <path id="bP" d="M.115 56.528v46.395c6.739 21.983 22.809 39.913 43.605 49.2h64.997c20.796-9.287 36.865-27.215 43.604-49.198v-46.4C142.366 24.054 112.061.433 76.22.433 40.377.432 10.07 24.055.115 56.528"/>
        <path id="bR" d="M.115 56.528v46.395c6.739 21.983 22.809 39.913 43.605 49.2h64.997c20.796-9.287 36.865-27.215 43.604-49.198v-46.4C142.366 24.054 112.061.433 76.22.433 40.377.432 10.07 24.055.115 56.528"/>
        <path id="bT" d="M.115 56.528v46.395c6.739 21.983 22.809 39.913 43.605 49.2h64.997c20.796-9.287 36.865-27.215 43.604-49.198v-46.4C142.366 24.054 112.061.433 76.22.433 40.377.432 10.07 24.055.115 56.528"/>
        <path id="bV" d="M.115 56.528v46.395c6.739 21.983 22.809 39.913 43.605 49.2h64.997c20.796-9.287 36.865-27.215 43.604-49.198v-46.4C142.366 24.054 112.061.433 76.22.433 40.377.432 10.07 24.055.115 56.528"/>
        <path id="bX" d="M.115 56.528v46.395c6.739 21.983 22.809 39.913 43.605 49.2h64.997c20.796-9.287 36.865-27.215 43.604-49.198v-46.4C142.366 24.054 112.061.433 76.22.433 40.377.432 10.07 24.055.115 56.528"/>
        <path id="bZ" d="M.115 56.528v46.395c6.739 21.983 22.809 39.913 43.605 49.2h64.997c20.796-9.287 36.865-27.215 43.604-49.198v-46.4C142.366 24.054 112.061.433 76.22.433 40.377.432 10.07 24.055.115 56.528"/>
        <path id="cb" d="M.115 56.528v46.395c6.739 21.983 22.809 39.913 43.605 49.2h64.997c20.796-9.287 36.865-27.215 43.604-49.198v-46.4C142.366 24.054 112.061.433 76.22.433 40.377.432 10.07 24.055.115 56.528"/>
        <path id="cd" d="M.115 56.528v46.395c6.739 21.983 22.809 39.913 43.605 49.2h64.997c20.796-9.287 36.865-27.215 43.604-49.198v-46.4C142.366 24.054 112.061.433 76.22.433 40.377.432 10.07 24.055.115 56.528"/>
        <path id="cf" d="M.115 56.528v46.395c6.739 21.983 22.809 39.913 43.605 49.2h64.997c20.796-9.287 36.865-27.215 43.604-49.198v-46.4C142.366 24.054 112.061.433 76.22.433 40.377.432 10.07 24.055.115 56.528"/>
        <path id="ch" d="M.115 56.528v46.395c6.739 21.983 22.809 39.913 43.605 49.2h64.997c20.796-9.287 36.865-27.215 43.604-49.198v-46.4C142.366 24.054 112.061.433 76.22.433 40.377.432 10.07 24.055.115 56.528"/>
        <path id="cj" d="M.115 56.528v46.395c6.739 21.983 22.809 39.913 43.605 49.2h64.997c20.796-9.287 36.865-27.215 43.604-49.198v-46.4C142.366 24.054 112.061.433 76.22.433 40.377.432 10.07 24.055.115 56.528"/>
        <path id="cl" d="M.115 56.528v46.395c6.739 21.983 22.809 39.913 43.605 49.2h64.997c20.796-9.287 36.865-27.215 43.604-49.198v-46.4C142.366 24.054 112.061.433 76.22.433 40.377.432 10.07 24.055.115 56.528"/>
        <path id="cn" d="M.115 56.528v46.395c6.739 21.983 22.809 39.913 43.605 49.2h64.997c20.796-9.287 36.865-27.215 43.604-49.198v-46.4C142.366 24.054 112.061.433 76.22.433 40.377.432 10.07 24.055.115 56.528"/>
        <path id="cp" d="M.115 56.528v46.395c6.739 21.983 22.809 39.913 43.605 49.2h64.997c20.796-9.287 36.865-27.215 43.604-49.198v-46.4C142.366 24.054 112.061.433 76.22.433 40.377.432 10.07 24.055.115 56.528"/>
        <path id="cr" d="M.115 56.528v46.395c6.739 21.983 22.809 39.913 43.605 49.2h64.997c20.796-9.287 36.865-27.215 43.604-49.198v-46.4C142.366 24.054 112.061.433 76.22.433 40.377.432 10.07 24.055.115 56.528"/>
        <path id="ct" d="M.115 56.528v46.395c6.739 21.983 22.809 39.913 43.605 49.2h64.997c20.796-9.287 36.865-27.215 43.604-49.198v-46.4C142.366 24.054 112.061.433 76.22.433 40.377.432 10.07 24.055.115 56.528"/>
        <path id="cv" d="M.115 56.528v46.395c6.739 21.983 22.809 39.913 43.605 49.2h64.997c20.796-9.287 36.865-27.215 43.604-49.198v-46.4C142.366 24.054 112.061.433 76.22.433 40.377.432 10.07 24.055.115 56.528"/>
        <path id="cx" d="M.115 56.528v46.395c6.739 21.983 22.809 39.913 43.605 49.2h64.997c20.796-9.287 36.865-27.215 43.604-49.198v-46.4C142.366 24.054 112.061.433 76.22.433 40.377.432 10.07 24.055.115 56.528"/>
        <path id="cz" d="M.115 56.528v46.395c6.739 21.983 22.809 39.913 43.605 49.2h64.997c20.796-9.287 36.865-27.215 43.604-49.198v-46.4C142.366 24.054 112.061.433 76.22.433 40.377.432 10.07 24.055.115 56.528"/>
        <path id="cB" d="M.115 56.528v46.395c6.739 21.983 22.809 39.913 43.605 49.2h64.997c20.796-9.287 36.865-27.215 43.604-49.198v-46.4C142.366 24.054 112.061.433 76.22.433 40.377.432 10.07 24.055.115 56.528"/>
        <path id="cD" d="M.115 56.528v46.395c6.739 21.983 22.809 39.913 43.605 49.2h64.997c20.796-9.287 36.865-27.215 43.604-49.198v-46.4C142.366 24.054 112.061.433 76.22.433 40.377.432 10.07 24.055.115 56.528"/>
        <path id="cF" d="M.115 56.528v46.395c6.739 21.983 22.809 39.913 43.605 49.2h64.997c20.796-9.287 36.865-27.215 43.604-49.198v-46.4C142.366 24.054 112.061.433 76.22.433 40.377.432 10.07 24.055.115 56.528"/>
        <path id="cH" d="M.115 56.528v46.395c6.739 21.983 22.809 39.913 43.605 49.2h64.997c20.796-9.287 36.865-27.215 43.604-49.198v-46.4C142.366 24.054 112.061.433 76.22.433 40.377.432 10.07 24.055.115 56.528"/>
        <path id="cJ" d="M.115 56.528v46.395c6.739 21.983 22.809 39.913 43.605 49.2h64.997c20.796-9.287 36.865-27.215 43.604-49.198v-46.4C142.366 24.054 112.061.433 76.22.433 40.377.432 10.07 24.055.115 56.528"/>
        <path id="cL" d="M.115 56.528v46.395c6.739 21.983 22.809 39.913 43.605 49.2h64.997c20.796-9.287 36.865-27.215 43.604-49.198v-46.4C142.366 24.054 112.061.433 76.22.433 40.377.432 10.07 24.055.115 56.528"/>
        <path id="cN" d="M.115 56.528v46.395c6.739 21.983 22.809 39.913 43.605 49.2h64.997c20.796-9.287 36.865-27.215 43.604-49.198v-46.4C142.366 24.054 112.061.433 76.22.433 40.377.432 10.07 24.055.115 56.528"/>
        <path id="cP" d="M.115 56.528v46.395c6.739 21.983 22.809 39.913 43.605 49.2h64.997c20.796-9.287 36.865-27.215 43.604-49.198v-46.4C142.366 24.054 112.061.433 76.22.433 40.377.432 10.07 24.055.115 56.528"/>
        <path id="cR" d="M.115 56.528v46.395c6.739 21.983 22.809 39.913 43.605 49.2h64.997c20.796-9.287 36.865-27.215 43.604-49.198v-46.4C142.366 24.054 112.061.433 76.22.433 40.377.432 10.07 24.055.115 56.528"/>
        <path id="cT" d="M.115 56.528v46.395c6.739 21.983 22.809 39.913 43.605 49.2h64.997c20.796-9.287 36.865-27.215 43.604-49.198v-46.4C142.366 24.054 112.061.433 76.22.433 40.377.432 10.07 24.055.115 56.528"/>
        <path id="cV" d="M.115 56.528v46.395c6.739 21.983 22.809 39.913 43.605 49.2h64.997c20.796-9.287 36.865-27.215 43.604-49.198v-46.4C142.366 24.054 112.061.433 76.22.433 40.377.432 10.07 24.055.115 56.528z"/>
        <path id="cX" d="M.115 56.528v46.395c6.739 21.983 22.809 39.913 43.605 49.2h64.997c20.796-9.287 36.865-27.215 43.604-49.198v-46.4C142.366 24.054 112.061.433 76.22.433 40.377.432 10.07 24.055.115 56.528z"/>
        <path id="cZ" d="M.115 56.528v46.395c6.739 21.983 22.809 39.913 43.605 49.2h64.997c20.796-9.287 36.865-27.215 43.604-49.198v-46.4C142.366 24.054 112.061.433 76.22.433 40.377.432 10.07 24.055.115 56.528z"/>
        <path id="db" d="M.115 56.528v46.395c6.739 21.983 22.809 39.913 43.605 49.2h64.997c20.796-9.287 36.865-27.215 43.604-49.198v-46.4C142.366 24.054 112.061.433 76.22.433 40.377.432 10.07 24.055.115 56.528"/>
        <path id="dd" d="M.115 56.528v46.395c6.739 21.983 22.809 39.913 43.605 49.2h64.997c20.796-9.287 36.865-27.215 43.604-49.198v-46.4C142.366 24.054 112.061.433 76.22.433 40.377.432 10.07 24.055.115 56.528"/>
        <path id="df" d="M.115 56.528v46.395c6.739 21.983 22.809 39.913 43.605 49.2h64.997c20.796-9.287 36.865-27.215 43.604-49.198v-46.4C142.366 24.054 112.061.433 76.22.433 40.377.432 10.07 24.055.115 56.528"/>
        <path id="dh" d="M.115 56.528v46.395c6.739 21.983 22.809 39.913 43.605 49.2h64.997c20.796-9.287 36.865-27.215 43.604-49.198v-46.4C142.366 24.054 112.061.433 76.22.433 40.377.432 10.07 24.055.115 56.528"/>
        <path id="dj" d="M.115 56.528v46.395c6.739 21.983 22.809 39.913 43.605 49.2h64.997c20.796-9.287 36.865-27.215 43.604-49.198v-46.4C142.366 24.054 112.061.433 76.22.433 40.377.432 10.07 24.055.115 56.528"/>
    </defs>
    <g fill="none" fill-rule="evenodd" filter="url(#a)" transform="translate(-87 -35)">
        <g transform="translate(95 40.464)">
            <mask id="c" fill="#fff">
                <use xlink:href="#b"/>
            </mask>
            <path fill="#FF7900" d="M-3.637 173.686h169.9V-12.897h-169.9z" mask="url(#c)"/>
        </g>
        <g transform="translate(98.797 40.464)">
            <mask id="e" fill="#fff">
                <use xlink:href="#d"/>
            </mask>
            <path fill="#725048" d="M96.067 91.585c2.154-.64 5.103-.347 6.989-1.587 5.593-3.676 11.004-7.622 15.832-12.071a708.725 708.725 0 0 0 3.011 5.228c1.202 2.06 2.588 4.028 3.813 6.076 1.012 1.693.726 3.39 2.193 4.938 1.87 1.975 5.4 2.393 6.995 4.412 1.063 1.346.722 2.958.928 4.613.944 7.624 12.899 15.407 3.834 22.246-3.61 2.724-8.078 4.447-12.24 6.139-3.366 1.368-6.982 1.504-8.777-2.02-1.53-3.001-1.687-6.252-4.308-8.702-2.36-2.202-5.785-2.79-8.122-4.89-3.333-2.995-6.02-7.278-8.29-11.107-2.018-3.406-4.505-7.23-4.317-11.362.052-1.124 1.452-1.614 2.459-1.913" mask="url(#e)"/>
        </g>
        <g transform="translate(98.797 40.464)">
            <mask id="g" fill="#fff">
                <use xlink:href="#f"/>
            </mask>
            <path fill="#50BE87" d="M114.538 128.275c.528-.924 23.87-16.095 26.825-16.263 1.963-.11 3.906 2.945 4.794 4.003 3.585 4.277 38.272 45.787 39.118 54.363h-45.62c-8.554-7.82-21.126-32.4-24.744-39.28-.67-1.274-.779-2.113-.373-2.823" mask="url(#g)"/>
        </g>
        <g transform="translate(98.797 40.464)">
            <mask id="i" fill="#fff">
                <use xlink:href="#h"/>
            </mask>
            <path fill="#725048" d="M88.191 84.457c-.58.059-1.169.281-1.74.709-.266.198 4.88 9.192 7.153 7.303 2.883-2.4-2.557-8.297-5.413-8.012" mask="url(#i)"/>
        </g>
        <g transform="translate(98.797 40.464)">
            <mask id="k" fill="#fff">
                <use xlink:href="#j"/>
            </mask>
            <path fill="#725048" d="M93.307 77.412c1.33.544 2.883 1.567 3.713 1.1 1.195-.672-2.144-3.2-2.746-3.775-.985-.94-2.122-1.81-3.045-2.82-.585-.64-1.295-1.593-.725-2.47.598-.92 1.641-.109 2.32.301 3.343 2.015 6.418 4.484 9.508 6.858 1.65 1.27 3.378 2.502 5.06 3.714 1.163.839 2.31 2.126 3.757 1.772 1.061-.26 2.311-1.588 3.088-.095.449.863.654 1.953.806 3.053.135.978.228 1.963.414 2.803.308 1.393.136 2.796-.048 4.191-.205 1.552.698 6.434.698 6.434-.663 2.246-.538 4.283-3.157 4.555-2.221.232-4.8-.434-6.679-1.644-1.1-.71-1.294-1.58-2.702-1.297-1.15.23-2.198 1.127-3.427.92-1.006-.172-1.713-1.713-2.258-2.484-1.362-1.928-5.343-5.765-4.283-8.314.909-2.186 1.365-2.252.399-4.748-.82-2.116-3.077-4.138-3.059-6.536.017-2.12 1.088-2.041 2.366-1.518" mask="url(#k)"/>
        </g>
        <g transform="translate(98.797 40.464)">
            <mask id="m" fill="#fff">
                <use xlink:href="#l"/>
            </mask>
            <path fill="#725048" d="M93.136 63.823c.373.463.704.93.967 1.351.633 1.014.917 2.952 2.266 3.332 1.433.401 2.126-2.228 2.358-3.226.548-2.347-1.627-3.993-3.452-5.093-2.014-1.213-3.85-.876-4.88 1.24.963.458 1.95 1.417 2.74 2.396" mask="url(#m)"/>
        </g>
        <g transform="translate(98.797 40.464)">
            <mask id="o" fill="#fff">
                <use xlink:href="#n"/>
            </mask>
            <path fill="#725048" d="M92.422 77.273l.607 1.08c-.02.243-.59 3.15-.779 3.074-1.58-.64-3.242-2.63-2.587-4.366.291-.773 1.732-2.678 2.685-1.637.473.516-.216 1.325.074 1.85" mask="url(#o)"/>
        </g>
        <g transform="translate(98.797 40.464)">
            <mask id="q" fill="#fff">
                <use xlink:href="#p"/>
            </mask>
            <path fill="#838080" d="M99.17 53.565c1.75-1.033 3.668-.747 5.877-.481 2.258.271 5.23.582 7.491.816 2.186.226 4.51.453 6.689.725 1.941.242 5.235.566 6.759 1.895 1.359 1.186 1.848 3.545 1.886 5.309.076 3.568-.802 7.072-1.258 10.594-.563 4.338-.966 8.374-1.428 12.726-.344 3.237-.852 7.498-1.353 10.714-.425 2.724-.48 4.79-.929 7.51-.325 1.963-.125 4.533-2.184 5.81-1.289.8-3.212.915-4.662.865-2.298-.081-4.56-.542-6.847-.758-2.665-.252-5.3-.69-7.932-1.175-2.312-.427-5.23-.223-7.328-1.285-2.383-1.206-2.795-3.741-2.544-6.514.956-10.553 2.786-21.086 3.607-31.586.227-2.896.865-5.88 1.355-8.795.409-2.433.372-4.937 2.8-6.37" mask="url(#q)"/>
        </g>
        <g transform="translate(98.797 40.464)">
            <mask id="s" fill="#fff">
                <use xlink:href="#r"/>
            </mask>
            <path fill="#FFF" d="M101.476 57.62c3.992.578 8.043.783 12.022 1.428 3.013.487 6.234.081 9.139 1.167 3.704 1.383 3.854 4.76 3.44 8.232l-.742 6.237-1.75 14.7-.972 8.167c-.266 2.228.134 5.01-1.23 6.95-.164.231-.34.423-.53.58-1.463 1.214-3.637.357-5.476.14a73114.403 73114.403 0 0 0-22.634-2.678c0-.011.003-.022.004-.033l2.293-19.267c.882-7.4 1.716-14.783 2.359-22.2.234-2.71 1.276-3.828 4.077-3.423" mask="url(#s)"/>
        </g>
        <g transform="translate(98.797 40.464)">
            <mask id="u" fill="#fff">
                <use xlink:href="#t"/>
            </mask>
            <path fill="#1B2734" d="M121.252 54.913c.33-.135.888-.23 1.847-.01.37.086.707.247.92.424-.028.247-.012.56-.344.712-.26.12-.94.141-1.251.099-.377-.051-.664-.133-.97-.312-.451-.263-.204-.59-.202-.913" mask="url(#u)"/>
        </g>
        <g transform="translate(98.797 40.464)">
            <mask id="w" fill="#fff">
                <use xlink:href="#v"/>
            </mask>
            <path fill="#000" d="M123.305 54.845c.483.13.834.644.11.73h-.002c-.924.108-1.354-.476-1.03-.714.146-.107.445-.144.922-.016" mask="url(#w)"/>
        </g>
        <g transform="translate(98.797 40.464)">
            <mask id="y" fill="#fff">
                <use xlink:href="#x"/>
            </mask>
            <path fill="#000" d="M93.77 97.45c.231-1.87 3.81-31.932 4.068-34.019.134-1.085.17-1.294.299-2.38.357-2.987 2.176-3.058 4.043-2.836 2.223.264 3.232.379 5.455.64 3.256.385 6.511.77 9.765 1.157 1.512.18 2.8.323 4.313.505 1.323.159 3.984.78 3.589 3.889-.214 1.678-1.695 14.124-1.896 15.804l-.337 2.835c-.1.833-.2 1.665-.298 2.498l-1.362 11.428c-.125 1.046-.15 1.224-.304 2.549-.081.695.17 4.487-4.956 3.864-1.881-.229-17.623-2.133-19.18-2.307-3.683-.41-3.276-2.998-3.198-3.626m2.584-35.653c-.037.45-.074.903-.127 1.346-.395 3.307-1.385 12.018-2.317 20.244-.926 8.175-1.795 15.87-1.967 17.3-.53 4.44-.797 6.47 6.489 7.336l17.428 2.072c3.239.384 5.814-.146 6.381-5.09l1.422-11.87c1.388-11.581 3.298-27.546 3.347-28.152.136-1.67 1.037-7.669-3.78-8.241-3.64-.432-15.849-1.765-20.402-2.307-5.68-.675-6.216 4.203-6.474 7.362" mask="url(#y)"/>
        </g>
        <g transform="translate(98.797 40.464)">
            <mask id="A" fill="#fff">
                <use xlink:href="#z"/>
            </mask>
            <path fill="#000" d="M107.98 56.247c1.044.14 1.556.262 2.34.328.76.066 2.861.336 4.475.541.372.048 4.143.185 2.76 1.194-.398.29-1.26.042-1.709.012-1.12-.074-2.639-.29-3.988-.446-1.485-.17-2.3-.269-4.063-.482-1.488-.18-1.001-1.305.185-1.147" mask="url(#A)"/>
        </g>
        <g transform="translate(98.797 40.464)">
            <mask id="C" fill="#fff">
                <use xlink:href="#B"/>
            </mask>
            <path fill="#81C8A6" d="M121.515 97.706l-.029.269h-.005a1.05 1.05 0 0 0 .021-.205v-.066l.013.002" mask="url(#C)"/>
        </g>
        <g transform="translate(98.797 40.464)">
            <mask id="E" fill="#fff">
                <use xlink:href="#D"/>
            </mask>
            <path fill="#838080" d="M102.772 104.235c.7-.1 1.582-.019 2.198.002.567.019 2.117.244 3.308.412.502.071 3.546.251 2.109 1.81-.344.371-1.09.324-1.479.33-.836.011-1.955-.191-2.953-.3-1.099-.121-1.701-.196-3.003-.358-1.102-.138-1.681-1.68-.18-1.896" mask="url(#E)"/>
        </g>
        <g transform="translate(98.797 40.464)">
            <mask id="G" fill="#fff">
                <use xlink:href="#F"/>
            </mask>
            <path fill="#725048" d="M97.54 68.268a3.78 3.78 0 0 0-.025-2.033c-2.156.2-8.918 1.332-6.991 4.915 1.609 2.993 6.465-.74 7.016-2.882" mask="url(#G)"/>
        </g>
        <g transform="translate(98.797 40.464)">
            <mask id="I" fill="#fff">
                <use xlink:href="#H"/>
            </mask>
            <path fill="#725048" d="M96.815 75.806c.17-.662.177-1.36-.024-2.032-2.157.199-8.918 1.331-6.992 4.915 1.61 2.993 6.466-.74 7.016-2.883" mask="url(#I)"/>
        </g>
        <g transform="translate(98.797 40.464)">
            <mask id="K" fill="#fff">
                <use xlink:href="#J"/>
            </mask>
            <path fill="#66413E" d="M94.267 67.654c.786 1.434 2.37-.382 2.937-1.125.224-.294.684.05.46.346-.509.666-1.118 1.313-1.871 1.7-.344.177-.752.262-1.13.156-.434-.12-.716-.469-.924-.847-.178-.326.352-.551.528-.23" mask="url(#K)"/>
        </g>
        <g transform="translate(98.797 40.464)">
            <mask id="M" fill="#fff">
                <use xlink:href="#L"/>
            </mask>
            <path fill="#66413E" d="M93.972 75.665c.647.768 1.933-.28 2.42-.78.254-.263.716.079.459.345-.771.794-2.372 1.928-3.331.79-.24-.283.214-.637.452-.355" mask="url(#M)"/>
        </g>
        <g transform="translate(98.797 40.464)">
            <mask id="O" fill="#fff">
                <use xlink:href="#N"/>
            </mask>
            <path fill="#725048" d="M123.15 69.675c.863 2.475 2.717 4.401 4.549 6.241 1.389 1.397 3.604 2.646 4.708 4.307.406 4.049 2.336 7.872 4.856 11.107.183.49.296.996.299 1.522l-.003.314c-.079 4.189-.027 10.569-.273 14.765-3.116 1.617-3.29 1.802-5.985 3.396-.368-.233-.546-2.33-.9-2.59-1.083-.796-1.968-1.788-3.128-2.486-.705-.425-1.702-.675-2.251-1.322-1.4-1.648-.47-5.083-.386-7.045.138-3.187-.378-6.539.002-9.697.299-2.484.037-4.31-1.405-6.525-.13-.2-.34-.377-.562-.551-.255-.2-.528-.396-.72-.618-.835-.968-1.352-2.333-1.517-3.625-.285-2.249.025-6.343 2.716-7.193" mask="url(#O)"/>
        </g>
        <g transform="translate(98.797 40.464)">
            <mask id="Q" fill="#fff">
                <use xlink:href="#P"/>
            </mask>
            <path fill="#66413E" d="M122.266 73.181c.187.704.672 1.268 1.374 1.49.662.208 1.375-.065 1.812-.575.24-.28.702.064.46.346-.585.682-1.468 1.019-2.355.795-.968-.244-1.61-1.033-1.86-1.97-.095-.357.476-.439.57-.086" mask="url(#Q)"/>
        </g>
        <g transform="translate(98.797 40.464)">
            <mask id="S" fill="#fff">
                <use xlink:href="#R"/>
            </mask>
            <path fill="#000" d="M117.875 132.512l.341-.341c.513-.514.553-1.45 0-1.956s-1.415-.549-1.962 0l-.34.341c-.513.514-.555 1.45 0 1.956.551.506 1.414.548 1.961 0" mask="url(#S)"/>
        </g>
        <g transform="translate(98.797 40.464)">
            <mask id="U" fill="#fff">
                <use xlink:href="#T"/>
            </mask>
            <path fill="#000" d="M120.335 131.005c.849-.278 1.502-.784 2.013-1.511.418-.594.127-1.563-.498-1.892-.711-.375-1.453-.138-1.899.496-.084.119-.063.092.066-.081a2.42 2.42 0 0 1-.236.235c.163-.12.202-.148.117-.088-.082.053-.166.101-.248.153-.133.065-.098.054.104-.034-.052.02-.104.039-.157.054-.689.226-1.208.968-.97 1.702.223.685.969 1.207 1.708.966" mask="url(#U)"/>
        </g>
        <g transform="translate(98.797 40.464)">
            <mask id="W" fill="#fff">
                <use xlink:href="#V"/>
            </mask>
            <path fill="#000" d="M125.267 128.284l1.013-.699c.596-.411.926-1.231.498-1.892-.382-.59-1.26-.936-1.899-.496l-1.012.698c-.596.412-.926 1.232-.498 1.893.381.59 1.26.936 1.898.496" mask="url(#W)"/>
        </g>
        <g transform="translate(98.797 40.464)">
            <mask id="Y" fill="#fff">
                <use xlink:href="#X"/>
            </mask>
            <path fill="#000" d="M130.338 124.737c-.098.196-.12.248-.065.156.055-.09.022-.046-.098.131l-.16.126c-.218.077-.257.097-.117.06.706-.173 1.196-1.006.97-1.702-.238-.73-.952-1.15-1.708-.966-.737.18-1.275.752-1.499 1.46-.217.69.257 1.54.97 1.701.756.172 1.474-.227 1.707-.966" mask="url(#Y)"/>
        </g>
        <g transform="translate(98.797 40.464)">
            <mask id="aa" fill="#fff">
                <use xlink:href="#Z"/>
            </mask>
            <path fill="#000" d="M133.96 122.68c-.033.046-.196.22-.061.1l-.059.052c.103-.09-.248.07-.115.041.102-.02.297-.055-.097-.007.38-.046.699-.125.98-.405.242-.24.423-.634.407-.979-.03-.675-.615-1.476-1.387-1.382-.436.052-.802.12-1.189.343-.37.215-.623.504-.875.841-.202.269-.225.757-.14 1.066.089.32.337.668.638.826.322.17.712.255 1.07.14.365-.118.6-.332.829-.636" mask="url(#aa)"/>
        </g>
        <g transform="translate(98.797 40.464)">
            <mask id="ac" fill="#fff">
                <use xlink:href="#ab"/>
            </mask>
            <path fill="#000" d="M137.914 120.626l1.375-.664c.655-.315.882-1.298.498-1.892-.433-.67-1.198-.834-1.899-.496l-1.375.663c-.655.316-.882 1.298-.498 1.893.433.67 1.198.834 1.899.496" mask="url(#ac)"/>
        </g>
        <g transform="translate(98.797 40.464)">
            <mask id="ae" fill="#fff">
                <use xlink:href="#ad"/>
            </mask>
            <path fill="#000" d="M142.01 118.406l1.025-.514c.649-.326.885-1.292.497-1.892-.428-.663-1.204-.846-1.898-.497l-1.024.514c-.65.326-.887 1.292-.498 1.892.428.662 1.204.846 1.899.497" mask="url(#ae)"/>
        </g>
        <g transform="translate(98.797 40.464)">
            <mask id="ag" fill="#fff">
                <use xlink:href="#af"/>
            </mask>
            <path fill="#000" d="M144.903 117.073c1.786 0 1.79-2.767 0-2.767-1.786 0-1.789 2.767 0 2.767" mask="url(#ag)"/>
        </g>
        <g transform="translate(98.797 40.464)">
            <mask id="ai" fill="#fff">
                <use xlink:href="#ah"/>
            </mask>
            <path fill="#FFF" d="M119.986 137.333l1.348-.715c.642-.34.893-1.282.498-1.892a1.42 1.42 0 0 0-1.899-.497l-1.348.716c-.642.34-.893 1.281-.498 1.892.42.65 1.212.86 1.899.496" mask="url(#ai)"/>
        </g>
        <g transform="translate(98.797 40.464)">
            <mask id="ak" fill="#fff">
                <use xlink:href="#aj"/>
            </mask>
            <path fill="#FFF" d="M124.71 134.215l.34-.341c.512-.514.554-1.45 0-1.957-.553-.505-1.415-.548-1.963 0l-.34.342c-.513.514-.554 1.45 0 1.956.553.506 1.415.548 1.963 0" mask="url(#ak)"/>
        </g>
        <g transform="translate(98.797 40.464)">
            <mask id="am" fill="#fff">
                <use xlink:href="#al"/>
            </mask>
            <path fill="#FFF" d="M128.171 132.196l1.026-.51c.65-.326.885-1.294.498-1.893-.43-.664-1.203-.843-1.9-.496l-1.025.51c-.65.324-.886 1.293-.498 1.892.43.664 1.203.844 1.9.497" mask="url(#am)"/>
        </g>
        <g transform="translate(98.797 40.464)">
            <mask id="ao" fill="#fff">
                <use xlink:href="#an"/>
            </mask>
            <path fill="#FFF" d="M132.953 129.473l.87-.661c.3-.228.533-.449.637-.827.092-.33.05-.772-.14-1.066-.366-.566-1.28-.965-1.898-.496l-.87.661c-.3.228-.533.449-.638.827-.092.331-.05.772.14 1.066.367.566 1.281.965 1.899.496" mask="url(#ao)"/>
        </g>
        <g transform="translate(98.797 40.464)">
            <mask id="aq" fill="#fff">
                <use xlink:href="#ap"/>
            </mask>
            <path fill="#FFF" d="M136.018 127.068l.863-.496c.629-.36.902-1.267.498-1.892-.41-.633-1.226-.883-1.9-.496l-.862.495c-.63.362-.903 1.268-.498 1.893.41.633 1.225.883 1.899.496" mask="url(#aq)"/>
        </g>
        <g transform="translate(98.797 40.464)">
            <mask id="as" fill="#fff">
                <use xlink:href="#ar"/>
            </mask>
            <path fill="#FFF" d="M139.94 124.842l1.927-1.11c.63-.362.903-1.266.498-1.892-.409-.632-1.226-.883-1.899-.496l-1.927 1.11c-.629.361-.902 1.266-.498 1.892.41.632 1.226.883 1.9.496" mask="url(#as)"/>
        </g>
        <g transform="translate(98.797 40.464)">
            <mask id="au" fill="#fff">
                <use xlink:href="#at"/>
            </mask>
            <path fill="#FFF" d="M144.05 122.48l.507-.35c.597-.408.925-1.232.498-1.892-.383-.591-1.26-.935-1.899-.496l-.507.348c-.597.41-.925 1.233-.498 1.893.383.591 1.259.934 1.899.496" mask="url(#au)"/>
        </g>
        <g transform="translate(98.797 40.464)">
            <mask id="aw" fill="#fff">
                <use xlink:href="#av"/>
            </mask>
            <path fill="#FFF" d="M147.483 120.46l.342-.17c.65-.325.885-1.294.498-1.893-.43-.663-1.203-.843-1.9-.496l-.34.17c-.652.324-.887 1.293-.499 1.892.43.663 1.203.843 1.899.496" mask="url(#aw)"/>
        </g>
        <g transform="translate(98.797 40.464)">
            <mask id="ay" fill="#fff">
                <use xlink:href="#ax"/>
            </mask>
            <path fill="#725048" d="M30.098 75.777c-1.438-2.413-5.949 1.396-8.1 3.582-2.171 2.206-4.965 3.854-6.796 6.384-1.831 2.53-1.95 6.272-2.257 9.357-.715 7.172 1.368 16.357-.733 23.334-1.008 3.344-30.508 51.965-26.478 52.916 3.483.82 17.96-.25 21.247 1.435 1.996 1.023 3.049 2.228 4.535.053.955-1.399 17.23-50.432 17.958-51.952.894-1.868 1.64-3.387 2.965-5.015 3.275-4.027 1.773-11.051 2.372-16.157.617-5.251 3.222-8.583-1.717-12.624-3.014-2.466-1.007-7.975-2.996-11.313" mask="url(#ay)"/>
        </g>
        <g transform="translate(98.797 40.464)">
            <mask id="aA" fill="#fff">
                <use xlink:href="#az"/>
            </mask>
            <path fill="#595959" d="M31.174 41.113c1.812-1.382 3.988-1.316 6.485-1.31 2.552.003 5.906-.041 8.456-.08 2.465-.036 5.083-.089 7.549-.073 2.194.014 5.907-.06 7.782 1.22 1.671 1.141 2.53 3.706 2.805 5.666.56 3.966.046 7.986.005 11.97-.05 4.908.036 9.459.099 14.368.047 3.652.047 8.467-.085 12.117-.112 3.09.101 5.398-.039 8.488-.1 2.232.464 5.07-1.662 6.764-1.329 1.06-3.457 1.443-5.079 1.578-2.572.213-5.153-.003-7.73.057-3.003.071-5.996-.068-8.993-.262-2.633-.171-5.857.441-8.337-.466-2.813-1.03-3.61-3.8-3.698-6.923-.337-11.884.305-23.861-.175-35.669-.132-3.256.183-6.666.342-9.978.132-2.765-.24-5.55 2.275-7.467" mask="url(#aA)"/>
        </g>
        <g transform="translate(98.797 40.464)">
            <mask id="aC" fill="#fff">
                <use xlink:href="#aB"/>
            </mask>
            <path fill="#000" d="M55.958 39.703c.35-.194.958-.374 2.056-.254.423.047.82.182 1.083.351 0 .279.06.624-.29.838-.273.169-1.03.282-1.381.276-.427-.007-.757-.061-1.123-.22-.537-.234-.304-.63-.345-.99" mask="url(#aC)"/>
        </g>
        <g transform="translate(98.797 40.464)">
            <mask id="aE" fill="#fff">
                <use xlink:href="#aD"/>
            </mask>
            <path fill="#595959" d="M58.236 39.357c.556.081 1.016.607.218.799-1.015.242-1.572-.352-1.243-.66.149-.138.477-.219 1.025-.139" mask="url(#aE)"/>
        </g>
        <g transform="translate(98.797 40.464)">
            <mask id="aG" fill="#fff">
                <use xlink:href="#aF"/>
            </mask>
            <path fill="#000" d="M35.368 41.602c5.144.002 18.926-.123 23.038-.12 5.443.002 5.235 6.804 5.305 8.683.026.682.017 18.722.009 31.809-.005 7.372-.01 13.171-.009 13.411.024 5.586-2.774 6.517-6.434 6.514l-19.694-.01c-8.233-.003-8.205-2.3-8.203-7.318 0-1.617-.053-10.304-.106-19.535-.054-9.288-.108-19.125-.106-22.862 0-.5-.018-1.01-.037-1.516-.131-3.554-.181-9.06 6.237-9.056" mask="url(#aG)"/>
        </g>
        <g transform="translate(98.797 40.464)">
            <mask id="aI" fill="#fff">
                <use xlink:href="#aH"/>
            </mask>
            <path fill="#595959" d="M41.347 42.94c1.182.018 1.769.086 2.65.058.856-.028 3.234-.004 5.059.012.42.004 4.641-.34 3.233.966-.404.376-1.399.213-1.901.239-1.258.065-2.98.023-4.504.028a687.14 687.14 0 0 1-4.59 0c-1.682-.005-1.29-1.323.053-1.303" mask="url(#aI)"/>
        </g>
        <g transform="translate(98.797 40.464)">
            <mask id="aK" fill="#fff">
                <use xlink:href="#aJ"/>
            </mask>
            <path fill="#000" d="M55.86 94.35c1.768.174 3.232.112 4.972-.485l1.561-.828c1.032 2.244.435 5.505-1.284 7.316-1.449 1.526-4.09 1.45-6.044 1.231-2.195-.244-4.502-.321-4.822-2.554-.203-1.41-1.105-3.171-1.05-4.6.008-.192 6.083-.138 6.667-.08" mask="url(#aK)"/>
        </g>
        <g transform="translate(98.797 40.464)">
            <mask id="aM" fill="#fff">
                <use xlink:href="#aL"/>
            </mask>
            <path fill="#FFF" d="M30.898 91.857l-.02-6.474-.03-11.075h.004l-.012-4.425c-.006-2.407-.08-14.939-.086-17.346-.004-1.252.005-1.495-.003-2.746-.022-3.444 2.011-3.805 4.14-3.84 2.537-.042 3.687-.068 6.223-.113 3.714-.064 7.427-.128 11.14-.19 1.725-.027 3.193-.064 4.918-.09 1.51-.023 4.562.11 4.582 2.967l.121 19.117.044 6.148.095 13.176c.007 1.206.014 2.262.029 3.787.011 1.283.347 4.21-5.03 4.298-2.146.037-20.11.291-21.884.334-4.198.1-4.23-2.803-4.231-3.528" mask="url(#aM)"/>
        </g>
        <g transform="translate(98.797 40.464)">
            <mask id="aO" fill="#fff">
                <use xlink:href="#aN"/>
            </mask>
            <path fill="#9DAAC0" d="M49.72 91.573l.009.014c0 .003-.003-.003-.01-.014" mask="url(#aO)"/>
        </g>
        <g transform="translate(98.797 40.464)">
            <mask id="aQ" fill="#fff">
                <use xlink:href="#aP"/>
            </mask>
            <path fill="#233143" d="M60.399 70.698c-.018.02-.034.039-.052.057l.051-.057z" mask="url(#aQ)"/>
        </g>
        <g transform="translate(98.797 40.464)">
            <mask id="aS" fill="#fff">
                <use xlink:href="#aR"/>
            </mask>
            <path fill="#233143" d="M60.137 70.533v-.015l.004.013-.004.002z" mask="url(#aS)"/>
        </g>
        <g transform="translate(98.797 40.464)">
            <mask id="aU" fill="#fff">
                <use xlink:href="#aT"/>
            </mask>
            <path fill="#233143" d="M32.264 70.199a.598.598 0 0 0-.001-.015l.004.013-.003.002z" mask="url(#aU)"/>
        </g>
        <g transform="translate(98.797 40.464)">
            <mask id="aW" fill="#fff">
                <use xlink:href="#aV"/>
            </mask>
            <path fill="#8F8F8F" d="M42.373 97.746c.777-.178 1.782-.199 2.479-.25.641-.045 2.42-.005 3.786.02.575.012 4.032-.162 2.62 1.504-.337.398-1.184.438-1.622.487-.942.107-2.231.04-3.371.048-1.256.01-1.945.006-3.434-.002-1.26-.007-2.121-1.427-.458-1.807" mask="url(#aW)"/>
        </g>
        <g transform="translate(98.797 40.464)">
            <mask id="aY" fill="#fff">
                <use xlink:href="#aX"/>
            </mask>
            <path fill="#FF7900" d="M21.901 118.854c-.043.021-.077.04 0 0" mask="url(#aY)"/>
        </g>
        <g transform="translate(98.797 40.464)">
            <mask id="ba" fill="#fff">
                <use xlink:href="#aZ"/>
            </mask>
            <path fill="#50BE87" d="M7.6 120.428c1.032-1.551 3.01-2.212 4.784-2.372 3.303-.298 6.682.698 9.736 1.842 2.149.803 4.452 1.664 6.258 3.11 1.733 1.39 3.118 3.317 3.782 5.44.405 1.3.67 2.754.16 4.065-.353.916-1.097 1.665-1.899 2.209-1.657 1.127-4.585 1.878-6.543 2.236-.157.029-.27.014-.355-.031.468-.912.786-1.894 1.046-2.885.14-.027.281-.054.421-.083l.203-.045.01-.003c.388-.115.78-.21 1.164-.338a14.199 14.199 0 0 0 1.584-.63c.073-.034.145-.07.217-.106.039-.02.311-.18.163-.089.267-.163.53-.328.777-.523.076-.06.147-.124.221-.187.109-.126.207-.29.325-.402.023-.052.05-.103.073-.156l.033-.115c.013-.09.044-.273.041-.256.002-.008.01-.147.013-.152a6.092 6.092 0 0 0-.177-1.217c-.036-.116-.068-.233-.104-.348a9.423 9.423 0 0 0-.516-1.279 11.705 11.705 0 0 0-.18-.357 1.493 1.493 0 0 1-.056-.084 12.93 12.93 0 0 0-.794-1.137c-.381-.475-.483-.587-.9-.963-.73-.657-1.32-1.052-2.11-1.431a50.274 50.274 0 0 0-3.1-1.351 40.398 40.398 0 0 0-2.743-.985c-.088-.028-.174-.056-.262-.082l-.216-.066-.205-.059-.248-.069a26.25 26.25 0 0 0-1.188-.293c-.7-.156-1.408-.282-2.122-.363a16.516 16.516 0 0 0-.848-.073l-.304-.013h-.034l-.25.001a9.66 9.66 0 0 0-1.462.128c-.099.017-.198.037-.297.056l-.018.003c-.189.055-.377.11-.56.18-.155.058-.304.127-.454.196l-.008.003a3.817 3.817 0 0 0-.502.355c-.02.017-.038.037-.058.056-.03.028-.058.056-.09.077l.05-.033c-.08.093-.147.193-.221.29l-.06.121c-.02.046-.037.094-.055.14l-.045.255a.54.54 0 0 0-.009-.092c.007.035.006.076.006.116l-.005.026-.006.04c-.248.645-.357 1.343-.676 1.97-.17.335-.352.662-.536.988-.23-.069-.521-.329-.933-.926-.88-1.347-.799-2.986.082-4.31" mask="url(#ba)"/>
        </g>
        <g transform="translate(98.797 40.464)">
            <mask id="bc" fill="#fff">
                <use xlink:href="#bb"/>
            </mask>
            <path fill="#FF7900" d="M18.958 122.146c-.045.023-.08.041 0 0" mask="url(#bc)"/>
        </g>
        <g transform="translate(98.797 40.464)">
            <mask id="be" fill="#fff">
                <use xlink:href="#bd"/>
            </mask>
            <path fill="#725048" d="M38.33 81.306c-4.148 3.443-3.548 11.52-9.701 13.506-1.093.352-2.204.986-3.313.75-1.335-.283-1.955-1.416-2.84-2.34.362.377-.04 2.93-.066 3.492-.044.95-.145 1.834-.475 2.73-.612 1.658-1.067 2.91-.852 4.743.404 3.446-2.086 13.797 1.202 15.386 4.862 2.352 11.061-3.064 12.965-7.451.435-1.003 2.196-5.931 2.363-6.987.361-2.287.421-6.102.772-8.382.796-5.182 4.377-12.608 5.19-15.225.562-1.812-2.617-2.403-5.245-.222" mask="url(#be)"/>
        </g>
        <g transform="translate(98.797 40.464)">
            <mask id="bg" fill="#fff">
                <use xlink:href="#bf"/>
            </mask>
            <path fill="#80615A" d="M42.115 80.434c-1.32 1.366-2.538 2.975-2.775 4.856-.05.404-.051.83.12 1.2.17.37.549.668.957.64.422-.03.745-.377 1.004-.712a13.058 13.058 0 0 0 2.384-5.034c.09-.393.125-.887-.21-1.113-.294-.198-.69-.057-1.015.088" mask="url(#bg)"/>
        </g>
        <g>
            <path fill="#FFB400" d="M207.005 113.008l-9.132 12.996c-1.046 1.489-.082 3.548 1.734 3.707l15.86 1.383c1.817.158 3.124-1.703 2.354-3.35l-6.728-14.38c-.771-1.647-3.042-1.845-4.088-.356"/>
            <path fill="#000" d="M207.019 124.68l2.026.176-.171 1.952-2.026-.178.171-1.95zm.652-7.973l2.12.185-.22 2.523-.957 4.594-1.01-.088-.154-4.691.221-2.523zM169.737 75.879l-15.142 2.973s.383-14.248 22.144-17.693c7.336-1.16 19.032 4.53 23.656 17.636l3.419-1.04-4.944 10.834-8.72-6.278 2.688-.91s-10.223-20.289-20.024-18.094c-2.745.615-4.292 4.7-3.077 12.572"/>
            <path fill="#FFF" d="M186.043 90.095l-4.497-2.99c-1.141-.76-2.243 1.053-1.106 1.809l4.498 2.99c1.14.758 2.243-1.054 1.105-1.81M187.828 83.72c-1.023-1.295-2.045-2.591-3.067-3.888-.845-1.07-2.37.406-1.53 1.471l3.067 3.889c.844 1.07 2.37-.406 1.53-1.472M209.667 82.782l.981-4.15c.313-1.324-1.723-1.936-2.037-.607l-.98 4.15c-.314 1.324 1.722 1.935 2.036.607M212.775 88.993a25.192 25.192 0 0 1 3.76-2.322c1.219-.62.187-2.472-1.033-1.852a28.257 28.257 0 0 0-4.203 2.65c-1.089.82.395 2.339 1.476 1.524"/>
        </g>
        <g>
            <g transform="translate(95 40.464)">
                <mask id="bi" fill="#fff">
                    <use xlink:href="#bh"/>
                </mask>
                <path fill="#FF7900" d="M-3.637 173.686h169.9V-12.897h-169.9z" mask="url(#bi)"/>
            </g>
            <g transform="translate(98.797 40.464)">
                <mask id="bk" fill="#fff">
                    <use xlink:href="#bj"/>
                </mask>
                <path fill="#725048" d="M96.067 91.585c2.154-.64 5.103-.347 6.989-1.587 5.593-3.676 11.004-7.622 15.832-12.071a708.725 708.725 0 0 0 3.011 5.228c1.202 2.06 2.588 4.028 3.813 6.076 1.012 1.693.726 3.39 2.193 4.938 1.87 1.975 5.4 2.393 6.995 4.412 1.063 1.346.722 2.958.928 4.613.944 7.624 12.899 15.407 3.834 22.246-3.61 2.724-8.078 4.447-12.24 6.139-3.366 1.368-6.982 1.504-8.777-2.02-1.53-3.001-1.687-6.252-4.308-8.702-2.36-2.202-5.785-2.79-8.122-4.89-3.333-2.995-6.02-7.278-8.29-11.107-2.018-3.406-4.505-7.23-4.317-11.362.052-1.124 1.452-1.614 2.459-1.913" mask="url(#bk)"/>
            </g>
            <g transform="translate(98.797 40.464)">
                <mask id="bm" fill="#fff">
                    <use xlink:href="#bl"/>
                </mask>
                <path fill="#50BE87" d="M114.538 128.275c.528-.924 23.87-16.095 26.825-16.263 1.963-.11 3.906 2.945 4.794 4.003 3.585 4.277 38.272 45.787 39.118 54.363h-45.62c-8.554-7.82-21.126-32.4-24.744-39.28-.67-1.274-.779-2.113-.373-2.823" mask="url(#bm)"/>
            </g>
            <g transform="translate(98.797 40.464)">
                <mask id="bo" fill="#fff">
                    <use xlink:href="#bn"/>
                </mask>
                <path fill="#725048" d="M88.191 84.457c-.58.059-1.169.281-1.74.709-.266.198 4.88 9.192 7.153 7.303 2.883-2.4-2.557-8.297-5.413-8.012" mask="url(#bo)"/>
            </g>
            <g transform="translate(98.797 40.464)">
                <mask id="bq" fill="#fff">
                    <use xlink:href="#bp"/>
                </mask>
                <path fill="#725048" d="M93.307 77.412c1.33.544 2.883 1.567 3.713 1.1 1.195-.672-2.144-3.2-2.746-3.775-.985-.94-2.122-1.81-3.045-2.82-.585-.64-1.295-1.593-.725-2.47.598-.92 1.641-.109 2.32.301 3.343 2.015 6.418 4.484 9.508 6.858 1.65 1.27 3.378 2.502 5.06 3.714 1.163.839 2.31 2.126 3.757 1.772 1.061-.26 2.311-1.588 3.088-.095.449.863.654 1.953.806 3.053.135.978.228 1.963.414 2.803.308 1.393.136 2.796-.048 4.191-.205 1.552.698 6.434.698 6.434-.663 2.246-.538 4.283-3.157 4.555-2.221.232-4.8-.434-6.679-1.644-1.1-.71-1.294-1.58-2.702-1.297-1.15.23-2.198 1.127-3.427.92-1.006-.172-1.713-1.713-2.258-2.484-1.362-1.928-5.343-5.765-4.283-8.314.909-2.186 1.365-2.252.399-4.748-.82-2.116-3.077-4.138-3.059-6.536.017-2.12 1.088-2.041 2.366-1.518" mask="url(#bq)"/>
            </g>
            <g transform="translate(98.797 40.464)">
                <mask id="bs" fill="#fff">
                    <use xlink:href="#br"/>
                </mask>
                <path fill="#725048" d="M93.136 63.823c.373.463.704.93.967 1.351.633 1.014.917 2.952 2.266 3.332 1.433.401 2.126-2.228 2.358-3.226.548-2.347-1.627-3.993-3.452-5.093-2.014-1.213-3.85-.876-4.88 1.24.963.458 1.95 1.417 2.74 2.396" mask="url(#bs)"/>
            </g>
            <g transform="translate(98.797 40.464)">
                <mask id="bu" fill="#fff">
                    <use xlink:href="#bt"/>
                </mask>
                <path fill="#725048" d="M92.422 77.273l.607 1.08c-.02.243-.59 3.15-.779 3.074-1.58-.64-3.242-2.63-2.587-4.366.291-.773 1.732-2.678 2.685-1.637.473.516-.216 1.325.074 1.85" mask="url(#bu)"/>
            </g>
            <g transform="translate(98.797 40.464)">
                <mask id="bw" fill="#fff">
                    <use xlink:href="#bv"/>
                </mask>
                <path fill="#838080" d="M99.17 53.565c1.75-1.033 3.668-.747 5.877-.481 2.258.271 5.23.582 7.491.816 2.186.226 4.51.453 6.689.725 1.941.242 5.235.566 6.759 1.895 1.359 1.186 1.848 3.545 1.886 5.309.076 3.568-.802 7.072-1.258 10.594-.563 4.338-.966 8.374-1.428 12.726-.344 3.237-.852 7.498-1.353 10.714-.425 2.724-.48 4.79-.929 7.51-.325 1.963-.125 4.533-2.184 5.81-1.289.8-3.212.915-4.662.865-2.298-.081-4.56-.542-6.847-.758-2.665-.252-5.3-.69-7.932-1.175-2.312-.427-5.23-.223-7.328-1.285-2.383-1.206-2.795-3.741-2.544-6.514.956-10.553 2.786-21.086 3.607-31.586.227-2.896.865-5.88 1.355-8.795.409-2.433.372-4.937 2.8-6.37" mask="url(#bw)"/>
            </g>
            <g transform="translate(98.797 40.464)">
                <mask id="by" fill="#fff">
                    <use xlink:href="#bx"/>
                </mask>
                <path fill="#FFB400" d="M101.476 57.62c3.992.578 8.043.783 12.022 1.428 3.013.487 6.234.081 9.139 1.167 3.704 1.383 3.854 4.76 3.44 8.232l-.742 6.237-1.75 14.7-.972 8.167c-.266 2.228.134 5.01-1.23 6.95-.164.231-.34.423-.53.58-1.463 1.214-3.637.357-5.476.14a73114.403 73114.403 0 0 0-22.634-2.678c0-.011.003-.022.004-.033l2.293-19.267c.882-7.4 1.716-14.783 2.359-22.2.234-2.71 1.276-3.828 4.077-3.423" mask="url(#by)"/>
            </g>
            <g transform="translate(98.797 40.464)">
                <mask id="bA" fill="#fff">
                    <use xlink:href="#bz"/>
                </mask>
                <path fill="#1B2734" d="M121.252 54.913c.33-.135.888-.23 1.847-.01.37.086.707.247.92.424-.028.247-.012.56-.344.712-.26.12-.94.141-1.251.099-.377-.051-.664-.133-.97-.312-.451-.263-.204-.59-.202-.913" mask="url(#bA)"/>
            </g>
            <g transform="translate(98.797 40.464)">
                <mask id="bC" fill="#fff">
                    <use xlink:href="#bB"/>
                </mask>
                <path fill="#000" d="M123.305 54.845c.483.13.834.644.11.73h-.002c-.924.108-1.354-.476-1.03-.714.146-.107.445-.144.922-.016" mask="url(#bC)"/>
            </g>
            <g transform="translate(98.797 40.464)">
                <mask id="bE" fill="#fff">
                    <use xlink:href="#bD"/>
                </mask>
                <path fill="#000" d="M93.77 97.45c.231-1.87 3.81-31.932 4.068-34.019.134-1.085.17-1.294.299-2.38.357-2.987 2.176-3.058 4.043-2.836 2.223.264 3.232.379 5.455.64 3.256.385 6.511.77 9.765 1.157 1.512.18 2.8.323 4.313.505 1.323.159 3.984.78 3.589 3.889-.214 1.678-1.695 14.124-1.896 15.804l-.337 2.835c-.1.833-.2 1.665-.298 2.498l-1.362 11.428c-.125 1.046-.15 1.224-.304 2.549-.081.695.17 4.487-4.956 3.864-1.881-.229-17.623-2.133-19.18-2.307-3.683-.41-3.276-2.998-3.198-3.626m2.584-35.653c-.037.45-.074.903-.127 1.346-.395 3.307-1.385 12.018-2.317 20.244-.926 8.175-1.795 15.87-1.967 17.3-.53 4.44-.797 6.47 6.489 7.336l17.428 2.072c3.239.384 5.814-.146 6.381-5.09l1.422-11.87c1.388-11.581 3.298-27.546 3.347-28.152.136-1.67 1.037-7.669-3.78-8.241-3.64-.432-15.849-1.765-20.402-2.307-5.68-.675-6.216 4.203-6.474 7.362" mask="url(#bE)"/>
            </g>
            <g transform="translate(98.797 40.464)">
                <mask id="bG" fill="#fff">
                    <use xlink:href="#bF"/>
                </mask>
                <path fill="#000" d="M107.98 56.247c1.044.14 1.556.262 2.34.328.76.066 2.861.336 4.475.541.372.048 4.143.185 2.76 1.194-.398.29-1.26.042-1.709.012-1.12-.074-2.639-.29-3.988-.446-1.485-.17-2.3-.269-4.063-.482-1.488-.18-1.001-1.305.185-1.147" mask="url(#bG)"/>
            </g>
            <g transform="translate(98.797 40.464)">
                <mask id="bI" fill="#fff">
                    <use xlink:href="#bH"/>
                </mask>
                <path fill="#81C8A6" d="M121.515 97.706l-.029.269h-.005a1.05 1.05 0 0 0 .021-.205v-.066l.013.002" mask="url(#bI)"/>
            </g>
            <g transform="translate(98.797 40.464)">
                <mask id="bK" fill="#fff">
                    <use xlink:href="#bJ"/>
                </mask>
                <path fill="#838080" d="M102.772 104.235c.7-.1 1.582-.019 2.198.002.567.019 2.117.244 3.308.412.502.071 3.546.251 2.109 1.81-.344.371-1.09.324-1.479.33-.836.011-1.955-.191-2.953-.3-1.099-.121-1.701-.196-3.003-.358-1.102-.138-1.681-1.68-.18-1.896" mask="url(#bK)"/>
            </g>
            <g transform="translate(98.797 40.464)">
                <mask id="bM" fill="#fff">
                    <use xlink:href="#bL"/>
                </mask>
                <path fill="#725048" d="M97.54 68.268a3.78 3.78 0 0 0-.025-2.033c-2.156.2-8.918 1.332-6.991 4.915 1.609 2.993 6.465-.74 7.016-2.882" mask="url(#bM)"/>
            </g>
            <g transform="translate(98.797 40.464)">
                <mask id="bO" fill="#fff">
                    <use xlink:href="#bN"/>
                </mask>
                <path fill="#725048" d="M96.815 75.806c.17-.662.177-1.36-.024-2.032-2.157.199-8.918 1.331-6.992 4.915 1.61 2.993 6.466-.74 7.016-2.883" mask="url(#bO)"/>
            </g>
            <g transform="translate(98.797 40.464)">
                <mask id="bQ" fill="#fff">
                    <use xlink:href="#bP"/>
                </mask>
                <path fill="#66413E" d="M94.267 67.654c.786 1.434 2.37-.382 2.937-1.125.224-.294.684.05.46.346-.509.666-1.118 1.313-1.871 1.7-.344.177-.752.262-1.13.156-.434-.12-.716-.469-.924-.847-.178-.326.352-.551.528-.23" mask="url(#bQ)"/>
            </g>
            <g transform="translate(98.797 40.464)">
                <mask id="bS" fill="#fff">
                    <use xlink:href="#bR"/>
                </mask>
                <path fill="#66413E" d="M93.972 75.665c.647.768 1.933-.28 2.42-.78.254-.263.716.079.459.345-.771.794-2.372 1.928-3.331.79-.24-.283.214-.637.452-.355" mask="url(#bS)"/>
            </g>
            <g transform="translate(98.797 40.464)">
                <mask id="bU" fill="#fff">
                    <use xlink:href="#bT"/>
                </mask>
                <path fill="#725048" d="M123.15 69.675c.863 2.475 2.717 4.401 4.549 6.241 1.389 1.397 3.604 2.646 4.708 4.307.406 4.049 2.336 7.872 4.856 11.107.183.49.296.996.299 1.522l-.003.314c-.079 4.189-.027 10.569-.273 14.765-3.116 1.617-3.29 1.802-5.985 3.396-.368-.233-.546-2.33-.9-2.59-1.083-.796-1.968-1.788-3.128-2.486-.705-.425-1.702-.675-2.251-1.322-1.4-1.648-.47-5.083-.386-7.045.138-3.187-.378-6.539.002-9.697.299-2.484.037-4.31-1.405-6.525-.13-.2-.34-.377-.562-.551-.255-.2-.528-.396-.72-.618-.835-.968-1.352-2.333-1.517-3.625-.285-2.249.025-6.343 2.716-7.193" mask="url(#bU)"/>
            </g>
            <g transform="translate(98.797 40.464)">
                <mask id="bW" fill="#fff">
                    <use xlink:href="#bV"/>
                </mask>
                <path fill="#66413E" d="M122.266 73.181c.187.704.672 1.268 1.374 1.49.662.208 1.375-.065 1.812-.575.24-.28.702.064.46.346-.585.682-1.468 1.019-2.355.795-.968-.244-1.61-1.033-1.86-1.97-.095-.357.476-.439.57-.086" mask="url(#bW)"/>
            </g>
            <g transform="translate(98.797 40.464)">
                <mask id="bY" fill="#fff">
                    <use xlink:href="#bX"/>
                </mask>
                <path fill="#000" d="M117.875 132.512l.341-.341c.513-.514.553-1.45 0-1.956s-1.415-.549-1.962 0l-.34.341c-.513.514-.555 1.45 0 1.956.551.506 1.414.548 1.961 0" mask="url(#bY)"/>
            </g>
            <g transform="translate(98.797 40.464)">
                <mask id="ca" fill="#fff">
                    <use xlink:href="#bZ"/>
                </mask>
                <path fill="#000" d="M120.335 131.005c.849-.278 1.502-.784 2.013-1.511.418-.594.127-1.563-.498-1.892-.711-.375-1.453-.138-1.899.496-.084.119-.063.092.066-.081a2.42 2.42 0 0 1-.236.235c.163-.12.202-.148.117-.088-.082.053-.166.101-.248.153-.133.065-.098.054.104-.034-.052.02-.104.039-.157.054-.689.226-1.208.968-.97 1.702.223.685.969 1.207 1.708.966" mask="url(#ca)"/>
            </g>
            <g transform="translate(98.797 40.464)">
                <mask id="cc" fill="#fff">
                    <use xlink:href="#cb"/>
                </mask>
                <path fill="#000" d="M125.267 128.284l1.013-.699c.596-.411.926-1.231.498-1.892-.382-.59-1.26-.936-1.899-.496l-1.012.698c-.596.412-.926 1.232-.498 1.893.381.59 1.26.936 1.898.496" mask="url(#cc)"/>
            </g>
            <g transform="translate(98.797 40.464)">
                <mask id="ce" fill="#fff">
                    <use xlink:href="#cd"/>
                </mask>
                <path fill="#000" d="M130.338 124.737c-.098.196-.12.248-.065.156.055-.09.022-.046-.098.131l-.16.126c-.218.077-.257.097-.117.06.706-.173 1.196-1.006.97-1.702-.238-.73-.952-1.15-1.708-.966-.737.18-1.275.752-1.499 1.46-.217.69.257 1.54.97 1.701.756.172 1.474-.227 1.707-.966" mask="url(#ce)"/>
            </g>
            <g transform="translate(98.797 40.464)">
                <mask id="cg" fill="#fff">
                    <use xlink:href="#cf"/>
                </mask>
                <path fill="#000" d="M133.96 122.68c-.033.046-.196.22-.061.1l-.059.052c.103-.09-.248.07-.115.041.102-.02.297-.055-.097-.007.38-.046.699-.125.98-.405.242-.24.423-.634.407-.979-.03-.675-.615-1.476-1.387-1.382-.436.052-.802.12-1.189.343-.37.215-.623.504-.875.841-.202.269-.225.757-.14 1.066.089.32.337.668.638.826.322.17.712.255 1.07.14.365-.118.6-.332.829-.636" mask="url(#cg)"/>
            </g>
            <g transform="translate(98.797 40.464)">
                <mask id="ci" fill="#fff">
                    <use xlink:href="#ch"/>
                </mask>
                <path fill="#000" d="M137.914 120.626l1.375-.664c.655-.315.882-1.298.498-1.892-.433-.67-1.198-.834-1.899-.496l-1.375.663c-.655.316-.882 1.298-.498 1.893.433.67 1.198.834 1.899.496" mask="url(#ci)"/>
            </g>
            <g transform="translate(98.797 40.464)">
                <mask id="ck" fill="#fff">
                    <use xlink:href="#cj"/>
                </mask>
                <path fill="#000" d="M142.01 118.406l1.025-.514c.649-.326.885-1.292.497-1.892-.428-.663-1.204-.846-1.898-.497l-1.024.514c-.65.326-.887 1.292-.498 1.892.428.662 1.204.846 1.899.497" mask="url(#ck)"/>
            </g>
            <g transform="translate(98.797 40.464)">
                <mask id="cm" fill="#fff">
                    <use xlink:href="#cl"/>
                </mask>
                <path fill="#000" d="M144.903 117.073c1.786 0 1.79-2.767 0-2.767-1.786 0-1.789 2.767 0 2.767" mask="url(#cm)"/>
            </g>
            <g transform="translate(98.797 40.464)">
                <mask id="co" fill="#fff">
                    <use xlink:href="#cn"/>
                </mask>
                <path fill="#FFF" d="M119.986 137.333l1.348-.715c.642-.34.893-1.282.498-1.892a1.42 1.42 0 0 0-1.899-.497l-1.348.716c-.642.34-.893 1.281-.498 1.892.42.65 1.212.86 1.899.496" mask="url(#co)"/>
            </g>
            <g transform="translate(98.797 40.464)">
                <mask id="cq" fill="#fff">
                    <use xlink:href="#cp"/>
                </mask>
                <path fill="#FFF" d="M124.71 134.215l.34-.341c.512-.514.554-1.45 0-1.957-.553-.505-1.415-.548-1.963 0l-.34.342c-.513.514-.554 1.45 0 1.956.553.506 1.415.548 1.963 0" mask="url(#cq)"/>
            </g>
            <g transform="translate(98.797 40.464)">
                <mask id="cs" fill="#fff">
                    <use xlink:href="#cr"/>
                </mask>
                <path fill="#FFF" d="M128.171 132.196l1.026-.51c.65-.326.885-1.294.498-1.893-.43-.664-1.203-.843-1.9-.496l-1.025.51c-.65.324-.886 1.293-.498 1.892.43.664 1.203.844 1.9.497" mask="url(#cs)"/>
            </g>
            <g transform="translate(98.797 40.464)">
                <mask id="cu" fill="#fff">
                    <use xlink:href="#ct"/>
                </mask>
                <path fill="#FFF" d="M132.953 129.473l.87-.661c.3-.228.533-.449.637-.827.092-.33.05-.772-.14-1.066-.366-.566-1.28-.965-1.898-.496l-.87.661c-.3.228-.533.449-.638.827-.092.331-.05.772.14 1.066.367.566 1.281.965 1.899.496" mask="url(#cu)"/>
            </g>
            <g transform="translate(98.797 40.464)">
                <mask id="cw" fill="#fff">
                    <use xlink:href="#cv"/>
                </mask>
                <path fill="#FFF" d="M136.018 127.068l.863-.496c.629-.36.902-1.267.498-1.892-.41-.633-1.226-.883-1.9-.496l-.862.495c-.63.362-.903 1.268-.498 1.893.41.633 1.225.883 1.899.496" mask="url(#cw)"/>
            </g>
            <g transform="translate(98.797 40.464)">
                <mask id="cy" fill="#fff">
                    <use xlink:href="#cx"/>
                </mask>
                <path fill="#FFF" d="M139.94 124.842l1.927-1.11c.63-.362.903-1.266.498-1.892-.409-.632-1.226-.883-1.899-.496l-1.927 1.11c-.629.361-.902 1.266-.498 1.892.41.632 1.226.883 1.9.496" mask="url(#cy)"/>
            </g>
            <g transform="translate(98.797 40.464)">
                <mask id="cA" fill="#fff">
                    <use xlink:href="#cz"/>
                </mask>
                <path fill="#FFF" d="M144.05 122.48l.507-.35c.597-.408.925-1.232.498-1.892-.383-.591-1.26-.935-1.899-.496l-.507.348c-.597.41-.925 1.233-.498 1.893.383.591 1.259.934 1.899.496" mask="url(#cA)"/>
            </g>
            <g transform="translate(98.797 40.464)">
                <mask id="cC" fill="#fff">
                    <use xlink:href="#cB"/>
                </mask>
                <path fill="#FFF" d="M147.483 120.46l.342-.17c.65-.325.885-1.294.498-1.893-.43-.663-1.203-.843-1.9-.496l-.34.17c-.652.324-.887 1.293-.499 1.892.43.663 1.203.843 1.899.496" mask="url(#cC)"/>
            </g>
            <g transform="translate(98.797 40.464)">
                <mask id="cE" fill="#fff">
                    <use xlink:href="#cD"/>
                </mask>
                <path fill="#725048" d="M30.098 75.777c-1.438-2.413-5.949 1.396-8.1 3.582-2.171 2.206-4.965 3.854-6.796 6.384-1.831 2.53-1.95 6.272-2.257 9.357-.715 7.172 1.368 16.357-.733 23.334-1.008 3.344-30.508 51.965-26.478 52.916 3.483.82 17.96-.25 21.247 1.435 1.996 1.023 3.049 2.228 4.535.053.955-1.399 17.23-50.432 17.958-51.952.894-1.868 1.64-3.387 2.965-5.015 3.275-4.027 1.773-11.051 2.372-16.157.617-5.251 3.222-8.583-1.717-12.624-3.014-2.466-1.007-7.975-2.996-11.313" mask="url(#cE)"/>
            </g>
            <g transform="translate(98.797 40.464)">
                <mask id="cG" fill="#fff">
                    <use xlink:href="#cF"/>
                </mask>
                <path fill="#595959" d="M31.174 41.113c1.812-1.382 3.988-1.316 6.485-1.31 2.552.003 5.906-.041 8.456-.08 2.465-.036 5.083-.089 7.549-.073 2.194.014 5.907-.06 7.782 1.22 1.671 1.141 2.53 3.706 2.805 5.666.56 3.966.046 7.986.005 11.97-.05 4.908.036 9.459.099 14.368.047 3.652.047 8.467-.085 12.117-.112 3.09.101 5.398-.039 8.488-.1 2.232.464 5.07-1.662 6.764-1.329 1.06-3.457 1.443-5.079 1.578-2.572.213-5.153-.003-7.73.057-3.003.071-5.996-.068-8.993-.262-2.633-.171-5.857.441-8.337-.466-2.813-1.03-3.61-3.8-3.698-6.923-.337-11.884.305-23.861-.175-35.669-.132-3.256.183-6.666.342-9.978.132-2.765-.24-5.55 2.275-7.467" mask="url(#cG)"/>
            </g>
            <g transform="translate(98.797 40.464)">
                <mask id="cI" fill="#fff">
                    <use xlink:href="#cH"/>
                </mask>
                <path fill="#000" d="M55.958 39.703c.35-.194.958-.374 2.056-.254.423.047.82.182 1.083.351 0 .279.06.624-.29.838-.273.169-1.03.282-1.381.276-.427-.007-.757-.061-1.123-.22-.537-.234-.304-.63-.345-.99" mask="url(#cI)"/>
            </g>
            <g transform="translate(98.797 40.464)">
                <mask id="cK" fill="#fff">
                    <use xlink:href="#cJ"/>
                </mask>
                <path fill="#595959" d="M58.236 39.357c.556.081 1.016.607.218.799-1.015.242-1.572-.352-1.243-.66.149-.138.477-.219 1.025-.139" mask="url(#cK)"/>
            </g>
            <g transform="translate(98.797 40.464)">
                <mask id="cM" fill="#fff">
                    <use xlink:href="#cL"/>
                </mask>
                <path fill="#000" d="M35.368 41.602c5.144.002 18.926-.123 23.038-.12 5.443.002 5.235 6.804 5.305 8.683.026.682.017 18.722.009 31.809-.005 7.372-.01 13.171-.009 13.411.024 5.586-2.774 6.517-6.434 6.514l-19.694-.01c-8.233-.003-8.205-2.3-8.203-7.318 0-1.617-.053-10.304-.106-19.535-.054-9.288-.108-19.125-.106-22.862 0-.5-.018-1.01-.037-1.516-.131-3.554-.181-9.06 6.237-9.056" mask="url(#cM)"/>
            </g>
            <g transform="translate(98.797 40.464)">
                <mask id="cO" fill="#fff">
                    <use xlink:href="#cN"/>
                </mask>
                <path fill="#595959" d="M41.347 42.94c1.182.018 1.769.086 2.65.058.856-.028 3.234-.004 5.059.012.42.004 4.641-.34 3.233.966-.404.376-1.399.213-1.901.239-1.258.065-2.98.023-4.504.028a687.14 687.14 0 0 1-4.59 0c-1.682-.005-1.29-1.323.053-1.303" mask="url(#cO)"/>
            </g>
            <g transform="translate(98.797 40.464)">
                <mask id="cQ" fill="#fff">
                    <use xlink:href="#cP"/>
                </mask>
                <path fill="#000" d="M55.86 94.35c1.768.174 3.232.112 4.972-.485l1.561-.828c1.032 2.244.435 5.505-1.284 7.316-1.449 1.526-4.09 1.45-6.044 1.231-2.195-.244-4.502-.321-4.822-2.554-.203-1.41-1.105-3.171-1.05-4.6.008-.192 6.083-.138 6.667-.08" mask="url(#cQ)"/>
            </g>
            <g transform="translate(98.797 40.464)">
                <mask id="cS" fill="#fff">
                    <use xlink:href="#cR"/>
                </mask>
                <path fill="#FFF" d="M30.898 91.857l-.02-6.474-.03-11.075h.004l-.012-4.425c-.006-2.407-.08-14.939-.086-17.346-.004-1.252.005-1.495-.003-2.746-.022-3.444 2.011-3.805 4.14-3.84 2.537-.042 3.687-.068 6.223-.113 3.714-.064 7.427-.128 11.14-.19 1.725-.027 3.193-.064 4.918-.09 1.51-.023 4.562.11 4.582 2.967l.121 19.117.044 6.148.095 13.176c.007 1.206.014 2.262.029 3.787.011 1.283.347 4.21-5.03 4.298-2.146.037-20.11.291-21.884.334-4.198.1-4.23-2.803-4.231-3.528" mask="url(#cS)"/>
            </g>
            <g transform="translate(98.797 40.464)">
                <mask id="cU" fill="#fff">
                    <use xlink:href="#cT"/>
                </mask>
                <path fill="#9DAAC0" d="M49.72 91.573l.009.014c0 .003-.003-.003-.01-.014" mask="url(#cU)"/>
            </g>
            <g transform="translate(98.797 40.464)">
                <mask id="cW" fill="#fff">
                    <use xlink:href="#cV"/>
                </mask>
                <path fill="#233143" d="M60.399 70.698c-.018.02-.034.039-.052.057l.051-.057z" mask="url(#cW)"/>
            </g>
            <g transform="translate(98.797 40.464)">
                <mask id="cY" fill="#fff">
                    <use xlink:href="#cX"/>
                </mask>
                <path fill="#233143" d="M60.137 70.533v-.015l.004.013-.004.002z" mask="url(#cY)"/>
            </g>
            <g transform="translate(98.797 40.464)">
                <mask id="da" fill="#fff">
                    <use xlink:href="#cZ"/>
                </mask>
                <path fill="#233143" d="M32.264 70.199a.598.598 0 0 0-.001-.015l.004.013-.003.002z" mask="url(#da)"/>
            </g>
            <g transform="translate(98.797 40.464)">
                <mask id="dc" fill="#fff">
                    <use xlink:href="#db"/>
                </mask>
                <path fill="#8F8F8F" d="M42.373 97.746c.777-.178 1.782-.199 2.479-.25.641-.045 2.42-.005 3.786.02.575.012 4.032-.162 2.62 1.504-.337.398-1.184.438-1.622.487-.942.107-2.231.04-3.371.048-1.256.01-1.945.006-3.434-.002-1.26-.007-2.121-1.427-.458-1.807" mask="url(#dc)"/>
            </g>
            <g transform="translate(98.797 40.464)">
                <mask id="de" fill="#fff">
                    <use xlink:href="#dd"/>
                </mask>
                <path fill="#FF7900" d="M21.901 118.854c-.043.021-.077.04 0 0" mask="url(#de)"/>
            </g>
            <g transform="translate(98.797 40.464)">
                <mask id="dg" fill="#fff">
                    <use xlink:href="#df"/>
                </mask>
                <path fill="#FF7900" d="M18.958 122.146c-.045.023-.08.041 0 0" mask="url(#dg)"/>
            </g>
            <g transform="translate(98.797 40.464)">
                <mask id="di" fill="#fff">
                    <use xlink:href="#dh"/>
                </mask>
                <path fill="#725048" d="M38.33 81.306c-4.148 3.443-3.548 11.52-9.701 13.506-1.093.352-2.204.986-3.313.75-1.335-.283-1.955-1.416-2.84-2.34.362.377-.04 2.93-.066 3.492-.044.95-.145 1.834-.475 2.73-.612 1.658-1.067 2.91-.852 4.743.404 3.446-2.086 13.797 1.202 15.386 4.862 2.352 11.061-3.064 12.965-7.451.435-1.003 2.196-5.931 2.363-6.987.361-2.287.421-6.102.772-8.382.796-5.182 4.377-12.608 5.19-15.225.562-1.812-2.617-2.403-5.245-.222" mask="url(#di)"/>
            </g>
            <g transform="translate(98.797 40.464)">
                <mask id="dk" fill="#fff">
                    <use xlink:href="#dj"/>
                </mask>
                <path fill="#80615A" d="M42.115 80.434c-1.32 1.366-2.538 2.975-2.775 4.856-.05.404-.051.83.12 1.2.17.37.549.668.957.64.422-.03.745-.377 1.004-.712a13.058 13.058 0 0 0 2.384-5.034c.09-.393.125-.887-.21-1.113-.294-.198-.69-.057-1.015.088" mask="url(#dk)"/>
            </g>
            <g>
                <path fill="#000" d="M207.005 113.008l-9.132 12.996c-1.046 1.489-.082 3.548 1.734 3.707l15.86 1.383c1.817.158 3.124-1.703 2.354-3.35l-6.728-14.38c-.771-1.647-3.042-1.845-4.088-.356"/>
                <path fill="#FFB400" d="M207.019 124.68l2.026.176-.171 1.952-2.026-.178.171-1.95zm.652-7.973l2.12.185-.22 2.523-.957 4.594-1.01-.088-.154-4.691.221-2.523z"/>
                <path fill="#000" d="M169.737 75.879l-15.142 2.973s.383-14.248 22.144-17.693c7.336-1.16 19.032 4.53 23.656 17.636l3.419-1.04-4.944 10.834-8.72-6.278 2.688-.91s-10.223-20.289-20.024-18.094c-2.745.615-4.292 4.7-3.077 12.572"/>
                <path fill="#FFF" d="M186.043 90.095l-4.497-2.99c-1.141-.76-2.243 1.053-1.106 1.809l4.498 2.99c1.14.758 2.243-1.054 1.105-1.81M187.828 83.72c-1.023-1.295-2.045-2.591-3.067-3.888-.845-1.07-2.37.406-1.53 1.471l3.067 3.889c.844 1.07 2.37-.406 1.53-1.472M209.667 82.782l.981-4.15c.313-1.324-1.723-1.936-2.037-.607l-.98 4.15c-.314 1.324 1.722 1.935 2.036.607M212.775 88.993a25.192 25.192 0 0 1 3.76-2.322c1.219-.62.187-2.472-1.033-1.852a28.257 28.257 0 0 0-4.203 2.65c-1.089.82.395 2.339 1.476 1.524"/>
                <path fill="#000" d="M142.739 105.581l-7.404.154a1.5 1.5 0 0 0-1.473 1.529 1.501 1.501 0 0 0 1.535 1.467l3.775-.078-5.95 6.182a1.496 1.496 0 0 0 .043 2.12c.6.572 1.552.552 2.126-.045l5.952-6.182.078 3.762a1.501 1.501 0 0 0 1.534 1.467 1.5 1.5 0 0 0 1.472-1.53l-.153-7.379a1.501 1.501 0 0 0-1.535-1.467"/>
                <path fill="#F60" d="M147.466 115.864l7.404-.154a1.501 1.501 0 0 0 1.472-1.529 1.502 1.502 0 0 0-1.534-1.467l-3.776.078 5.951-6.183a1.495 1.495 0 0 0-.044-2.118 1.507 1.507 0 0 0-2.126.044l-5.95 6.182-.079-3.762a1.502 1.502 0 0 0-1.535-1.467 1.5 1.5 0 0 0-1.472 1.53l.154 7.379a1.501 1.501 0 0 0 1.535 1.467"/>
            </g>
        </g>
        <g transform="translate(215 51)">
            <circle cx="20" cy="20" r="20" fill="#32C832"/>
            <path fill="#FFF" fill-rule="nonzero" d="M11.76 16.202L8 19.963l9.303 9.303a1 1 0 0 0 1.44-.026l14.505-15.621L29.35 10 17.895 22.337l-6.134-6.135z"/>
        </g>
    </g>
</svg>
