<svg xmlns="http://www.w3.org/2000/svg" xmlns:xlink="http://www.w3.org/1999/xlink" width="24" height="24" viewBox="0 0 24 24">
    <defs>
        <path id="a" d="M20.918 3.51A12.125 12.125 0 0 0 12.378 0a12.125 12.125 0 0 0-8.54 3.51 11.92 11.92 0 0 0 0 16.95 12.125 12.125 0 0 0 8.54 3.51c3.203 0 6.275-1.262 8.54-3.51l-3.203-3.178a7.59 7.59 0 0 1-8.226 1.624 7.49 7.49 0 0 1-4.66-6.92 7.49 7.49 0 0 1 4.66-6.921 7.59 7.59 0 0 1 8.226 1.624l-3.07 3.049h7.545c.834 0 1.51-.67 1.51-1.498V.75l-2.782 2.76z"/>
    </defs>
    <g fill="none" fill-rule="evenodd">
        <path fill="#FF7900" d="M0 0h24v24H0z"/>
        <mask id="b" fill="#fff">
            <use xlink:href="#a"/>
        </mask>
        <g fill="#FFF" mask="url(#b)">
            <path d="M0 0h24v24H0z"/>
        </g>
    </g>
</svg>
