<svg xmlns="http://www.w3.org/2000/svg" xmlns:xlink="http://www.w3.org/1999/xlink" width="76" height="76" viewBox="0 0 76 76">
    <defs>
        <path id="a" d="M.14 37.91C.14 58.78 17.118 75.7 38.06 75.7c20.943 0 37.921-16.92 37.921-37.792S59.003.117 38.061.117C17.117.117.14 17.037.14 37.91z"/>
        <path id="c" d="M5.973 5.307l-5.84 36.74c1.168.108 2.351.163 3.547.163 20.794 0 37.68-16.68 37.918-37.348L12.853.325a6.055 6.055 0 0 0-.948-.075C9 .25 6.442 2.355 5.973 5.307"/>
        <path id="e" d="M5.973 5.307l-5.84 36.74c1.168.108 2.351.163 3.547.163 20.794 0 37.68-16.68 37.918-37.348L12.853.325a6.055 6.055 0 0 0-.948-.075C9 .25 6.442 2.355 5.973 5.307z"/>
        <path id="g" d="M.14 37.91C.14 58.78 17.118 75.7 38.06 75.7c20.943 0 37.921-16.92 37.921-37.792S59.003.117 38.061.117C17.117.117.14 17.037.14 37.91z"/>
        <path id="i" d="M.14 37.91C.14 58.78 17.118 75.7 38.06 75.7c20.943 0 37.921-16.92 37.921-37.792S59.003.117 38.061.117C17.117.117.14 17.037.14 37.91z"/>
        <path id="k" d="M.14 37.91C.14 58.78 17.118 75.7 38.06 75.7c20.943 0 37.921-16.92 37.921-37.792S59.003.117 38.061.117C17.117.117.14 17.037.14 37.91z"/>
        <path id="m" d="M.14 37.91C.14 58.78 17.118 75.7 38.06 75.7c20.943 0 37.921-16.92 37.921-37.792S59.003.117 38.061.117C17.117.117.14 17.037.14 37.91z"/>
        <path id="o" d="M.14 37.91C.14 58.78 17.118 75.7 38.06 75.7c20.943 0 37.921-16.92 37.921-37.792S59.003.117 38.061.117C17.117.117.14 17.037.14 37.91z"/>
        <path id="q" d="M.14 37.91C.14 58.78 17.118 75.7 38.06 75.7c20.943 0 37.921-16.92 37.921-37.792S59.003.117 38.061.117C17.117.117.14 17.037.14 37.91"/>
        <path id="s" d="M.14 37.91C.14 58.78 17.118 75.7 38.06 75.7c20.943 0 37.921-16.92 37.921-37.792S59.003.117 38.061.117C17.117.117.14 17.037.14 37.91"/>
        <path id="u" d="M.14 37.91C.14 58.78 17.118 75.7 38.06 75.7c20.943 0 37.921-16.92 37.921-37.792S59.003.117 38.061.117C17.117.117.14 17.037.14 37.91z"/>
        <path id="w" d="M.14 37.91C.14 58.78 17.118 75.7 38.06 75.7c20.943 0 37.921-16.92 37.921-37.792S59.003.117 38.061.117C17.117.117.14 17.037.14 37.91z"/>
        <path id="y" d="M.14 37.91C.14 58.78 17.118 75.7 38.06 75.7c20.943 0 37.921-16.92 37.921-37.792S59.003.117 38.061.117C17.117.117.14 17.037.14 37.91"/>
        <path id="A" d="M.14 37.91C.14 58.78 17.118 75.7 38.06 75.7c20.943 0 37.921-16.92 37.921-37.792S59.003.117 38.061.117C17.117.117.14 17.037.14 37.91"/>
        <path id="C" d="M.14 37.91C.14 58.78 17.118 75.7 38.06 75.7c20.943 0 37.921-16.92 37.921-37.792S59.003.117 38.061.117C17.117.117.14 17.037.14 37.91"/>
        <path id="E" d="M.14 37.91C.14 58.78 17.118 75.7 38.06 75.7c20.943 0 37.921-16.92 37.921-37.792S59.003.117 38.061.117C17.117.117.14 17.037.14 37.91z"/>
        <path id="G" d="M.14 37.91C.14 58.78 17.118 75.7 38.06 75.7c20.943 0 37.921-16.92 37.921-37.792S59.003.117 38.061.117C17.117.117.14 17.037.14 37.91"/>
        <path id="I" d="M.14 37.91C.14 58.78 17.118 75.7 38.06 75.7c20.943 0 37.921-16.92 37.921-37.792S59.003.117 38.061.117C17.117.117.14 17.037.14 37.91"/>
        <path id="K" d="M2.2 6.711L.14 21.321a19.813 19.813 0 0 0 5.34 4.457c9.513 5.45 21.657 2.182 27.126-7.299a19.675 19.675 0 0 0 2.008-14.834L10.735.301A7.608 7.608 0 0 0 9.674.226C5.967.227 2.73 2.948 2.199 6.711"/>
        <path id="M" d="M2.2 6.711L.14 21.321a19.813 19.813 0 0 0 5.34 4.457c9.513 5.45 21.657 2.182 27.126-7.299a19.675 19.675 0 0 0 2.008-14.834L10.735.301A7.608 7.608 0 0 0 9.674.226C5.967.227 2.73 2.948 2.199 6.711z"/>
        <path id="O" d="M2.81 10.08C-2.66 19.56.62 31.662 10.132 37.112c9.513 5.45 21.657 2.183 27.126-7.298 5.468-9.48 2.19-21.584-7.324-27.034A19.824 19.824 0 0 0 20.053.144c-6.88 0-13.569 3.565-17.244 9.935z"/>
        <path id="Q" d="M2.81 10.08C-2.66 19.56.62 31.662 10.132 37.112c9.513 5.45 21.657 2.183 27.126-7.298 5.468-9.48 2.19-21.584-7.324-27.034A19.824 19.824 0 0 0 20.053.144c-6.88 0-13.569 3.565-17.244 9.935z"/>
        <path id="S" d="M2.81 10.08C-2.66 19.56.62 31.662 10.132 37.112c9.513 5.45 21.657 2.183 27.126-7.298 5.468-9.48 2.19-21.584-7.324-27.034A19.824 19.824 0 0 0 20.053.144c-6.88 0-13.569 3.565-17.244 9.935z"/>
        <path id="U" d="M2.81 10.08C-2.66 19.56.62 31.662 10.132 37.112c9.513 5.45 21.657 2.183 27.126-7.298 5.468-9.48 2.19-21.584-7.324-27.034A19.824 19.824 0 0 0 20.053.144c-6.88 0-13.569 3.565-17.244 9.935z"/>
        <path id="W" d="M2.81 10.08C-2.66 19.56.62 31.662 10.132 37.112c9.513 5.45 21.657 2.183 27.126-7.298 5.468-9.48 2.19-21.584-7.324-27.034A19.824 19.824 0 0 0 20.053.144c-6.88 0-13.569 3.565-17.244 9.935z"/>
        <path id="Y" d="M2.81 10.08C-2.66 19.56.62 31.662 10.132 37.112c9.513 5.45 21.657 2.183 27.126-7.298 5.468-9.48 2.19-21.584-7.324-27.034A19.824 19.824 0 0 0 20.053.144c-6.88 0-13.569 3.565-17.244 9.935"/>
        <path id="aa" d="M2.81 10.08C-2.66 19.56.62 31.662 10.132 37.112c9.513 5.45 21.657 2.183 27.126-7.298 5.468-9.48 2.19-21.584-7.324-27.034A19.824 19.824 0 0 0 20.053.144c-6.88 0-13.569 3.565-17.244 9.935"/>
        <path id="ac" d="M2.81 10.08C-2.66 19.56.62 31.662 10.132 37.112c9.513 5.45 21.657 2.183 27.126-7.298 5.468-9.48 2.19-21.584-7.324-27.034A19.824 19.824 0 0 0 20.053.144c-6.88 0-13.569 3.565-17.244 9.935z"/>
        <path id="ae" d="M2.81 10.08C-2.66 19.56.62 31.662 10.132 37.112c9.513 5.45 21.657 2.183 27.126-7.298 5.468-9.48 2.19-21.584-7.324-27.034A19.824 19.824 0 0 0 20.053.144c-6.88 0-13.569 3.565-17.244 9.935z"/>
        <path id="ag" d="M2.81 10.08C-2.66 19.56.62 31.662 10.132 37.112c9.513 5.45 21.657 2.183 27.126-7.298 5.468-9.48 2.19-21.584-7.324-27.034A19.824 19.824 0 0 0 20.053.144c-6.88 0-13.569 3.565-17.244 9.935z"/>
        <path id="ai" d="M2.81 10.08C-2.66 19.56.62 31.662 10.132 37.112c9.513 5.45 21.657 2.183 27.126-7.298 5.468-9.48 2.19-21.584-7.324-27.034A19.824 19.824 0 0 0 20.053.144c-6.88 0-13.569 3.565-17.244 9.935z"/>
        <path id="ak" d="M2.81 10.08C-2.66 19.56.62 31.662 10.132 37.112c9.513 5.45 21.657 2.183 27.126-7.298 5.468-9.48 2.19-21.584-7.324-27.034A19.824 19.824 0 0 0 20.053.144c-6.88 0-13.569 3.565-17.244 9.935z"/>
        <path id="am" d="M2.81 10.08C-2.66 19.56.62 31.662 10.132 37.112c9.513 5.45 21.657 2.183 27.126-7.298 5.468-9.48 2.19-21.584-7.324-27.034A19.824 19.824 0 0 0 20.053.144c-6.88 0-13.569 3.565-17.244 9.935z"/>
        <path id="ao" d="M.14 37.91C.14 58.78 17.118 75.7 38.06 75.7c20.943 0 37.921-16.92 37.921-37.792S59.003.117 38.061.117C17.117.117.14 17.037.14 37.91"/>
        <path id="aq" d="M.14 37.91C.14 58.78 17.118 75.7 38.06 75.7c20.943 0 37.921-16.92 37.921-37.792S59.003.117 38.061.117C17.117.117.14 17.037.14 37.91"/>
        <path id="as" d="M.14 37.91C.14 58.78 17.118 75.7 38.06 75.7c20.943 0 37.921-16.92 37.921-37.792S59.003.117 38.061.117C17.117.117.14 17.037.14 37.91"/>
    </defs>
    <g fill="none" fill-rule="evenodd">
        <g transform="translate(0 .052)">
            <mask id="b" fill="#fff">
                <use xlink:href="#a"/>
            </mask>
            <path fill="#A885D8" d="M-1.81 82.692h80.977V-6.235H-1.81z" mask="url(#b)"/>
            <path fill="#FFF" d="M70.24 32.087l-2.52 2.475c-.697.684.468 1.658 1.16.978l2.52-2.475c.697-.684-.468-1.658-1.16-.978M68.052 24.275l-2.082.863c-.902.374-.397 1.804.507 1.429l2.082-.864c.901-.374.397-1.804-.507-1.428M4.552 43.002c1.101-.24 2.203-.478 3.305-.717.953-.207.735-1.707-.222-1.5l-3.305.718c-.953.206-.735 1.707.222 1.499M9.392 51.1l3.401-1.81c.859-.457.263-1.852-.6-1.393L8.79 49.708c-.858.457-.262 1.851.6 1.392M15.974 57.751l2.761-2.587c.708-.663-.236-1.851-.95-1.182l-2.761 2.587c-.708.663.236 1.852.95 1.182M4.022 32.875l2.8.645c.4.092.798-.297.84-.67.049-.446-.272-.744-.673-.836l-2.8-.645c-.4-.092-.798.296-.84.67-.049.446.271.743.673.836M10.275 23.267l1.18.671c.355.203.801.188 1.06-.17.222-.303.189-.854-.17-1.057-.392-.224-.785-.448-1.179-.671-.356-.203-.802-.188-1.061.17-.221.303-.188.853.17 1.057" mask="url(#b)"/>
        </g>
        <g transform="translate(34.381 33.544)">
            <mask id="d" fill="#fff">
                <use xlink:href="#c"/>
            </mask>
            <path fill="#FF7900" d="M31.72 70.346l-29.076-4.59c-3.382-.534-5.69-3.7-5.154-7.07L5.943 5.491C6.48 2.12 9.656-.18 13.038.354l29.076 4.59c3.383.534 5.69 3.7 5.155 7.07L38.815 65.21c-.535 3.371-3.712 5.67-7.094 5.137" mask="url(#d)"/>
        </g>
        <g transform="translate(34.381 33.544)">
            <mask id="f" fill="#fff">
                <use xlink:href="#e"/>
            </mask>
            <path fill="#000" d="M-3.957 29.435s12.276-.692 24.824 7.65c12.97 8.622 46.052-5.893 46.052-5.893S50.307 76.897 48.533 76.774c-1.773-.123-53.875-5.772-53.875-5.772l1.385-41.567z" mask="url(#f)"/>
        </g>
        <g transform="translate(0 .052)">
            <mask id="h" fill="#fff">
                <use xlink:href="#g"/>
            </mask>
            <path fill="#FFF" d="M75.059 52.477l-30.627-4.835.857-5.397 30.628 4.835z" mask="url(#h)"/>
        </g>
        <g transform="translate(0 .052)">
            <mask id="j" fill="#fff">
                <use xlink:href="#i"/>
            </mask>
            <path fill="#000" d="M47.003 45.552l-1.589.987 1.079-1.482.569 1.74-1.214-1.418 1.931.278-1.814-.764 1.964-.17-1.921-.326 1.565-1.007-1.055 1.512-.533-1.765 1.167 1.45-1.926-.293 1.814.769-1.962.172 1.925.317zm1.36-1.898l-1.774.919 1.872.714-2.001.102 1.4 1.42-1.388-1.28-.355 1.891.25-1.907-1.717.79 1.772-.92-1.871-.713 2-.103-1.4-1.42 1.391 1.277.352-1.891-.251 1.907 1.72-.786z" mask="url(#j)"/>
        </g>
        <g transform="translate(0 .052)">
            <mask id="l" fill="#fff">
                <use xlink:href="#k"/>
            </mask>
            <path fill="#000" d="M46.978 45.525l1.674 1.005-.624-1.86 1.186 1.554-.77-1.778 1.56 1.116-1.678-.892 1.91-.16-1.839.483 1.2-1.439-.796 1.727-.357-1.856.915 1.593-1.788-.673.954 1.427-.206-1.952-.93 1.728 1.49-.786-1.532-1.187 1.454 1.21.351-1.89-.203 1.927 1.508-1.197-1.545 1.133 1.902.325-1.905-.3 1.333 1.388-1.398-1.347.687 1.816-.983-1.662.728 1.787-1.039-1.632.79 1.761-1.224-1.482.755-.14.286 1.991 1.277-1.677-1.484.927 1 1.36-.93-2.066-1.394 1.723 1.225-.856z" mask="url(#l)"/>
        </g>
        <g transform="translate(0 .052)">
            <mask id="n" fill="#fff">
                <use xlink:href="#m"/>
            </mask>
            <path fill="#000" d="M51.642 44.693l-1.13 1.501.747-1.754.163 1.899-.614-1.77 1.527 1.114-1.758-.743 1.908-.15-1.794.574 1.115-1.508-.734 1.76-.155-1.9.586 1.784-1.518-1.111 1.765.736-1.9.173 1.792-.605zm-.237 1.325l-1.136 1.498.778-1.74.2 1.895-.615-1.775 1.57 1.04-1.769-.744 1.915-.16-1.807.515 1.12-1.515-.772 1.743-.195-1.895.596 1.785-1.56-1.047 1.772.743-1.913.161 1.816-.504zm-2.033-.88l1.457 1.242-1.263-1.13 1.588-.47-1.822.562 1.885-.415-1.91-.254 1.87.39-1.133-1.536 1.011 1.624.39-1.893-.215 1.92 1.465-1.233-1.553 1.114 1.899.204-1.895-.347 1.665.974-1.531-1.121 1.34.951-1.571.668 1.79-.698-1.821.628 1.905.306-1.889-.34 1.111 1.562-1.068-1.6-.429 1.893.19-1.928-1.524 1.16L50.9 46.29l-1.903-.285 1.906.298-1.531-1.165z" mask="url(#n)"/>
        </g>
        <g transform="translate(0 .052)">
            <mask id="p" fill="#fff">
                <use xlink:href="#o"/>
            </mask>
            <path fill="#000" d="M55.454 45.55l-1.793-.833 1.145 1.576-1.701-.984 1.328 1.446-1.842-.661 1.597 1.135-1.921-.376.975 1.573-.287-1.948-1.216 1.485 1.915-.956-1.122-1.774 1.747.935-.626-.045-.305-1.988-1.336 1.68 1.457-.934-.99-1.378.959 2.07 1.527-1.684-1.038 1.828z" mask="url(#p)"/>
        </g>
        <g transform="translate(0 .052)">
            <mask id="r" fill="#fff">
                <use xlink:href="#q"/>
            </mask>
            <path fill="#000" d="M55.772 47.313c.112-.18.337-.354.674-.522.293-.146.485-.254.575-.322a.603.603 0 0 0 .245-.388.465.465 0 0 0-.054-.321c-.055-.092-.146-.148-.273-.169-.174-.027-.302.02-.386.138a.97.97 0 0 0-.12.345l-.555-.087c.048-.245.125-.437.229-.576.198-.265.492-.367.881-.305.308.049.539.172.694.37.155.2.21.438.166.717a.922.922 0 0 1-.284.541c-.102.097-.26.199-.474.304l-.255.126c-.16.078-.269.136-.329.173a.647.647 0 0 0-.158.137l1.268.2-.08.501-1.989-.314c.038-.207.113-.39.225-.548" mask="url(#r)"/>
        </g>
        <g transform="translate(0 .052)">
            <mask id="t" fill="#fff">
                <use xlink:href="#s"/>
            </mask>
            <path fill="#000" d="M58.84 46.508c.054.077.14.124.255.143.116.018.212-.001.286-.058a.361.361 0 0 0 .136-.242.37.37 0 0 0-.053-.284.366.366 0 0 0-.254-.14.37.37 0 0 0-.286.055.366.366 0 0 0-.14.253.358.358 0 0 0 .056.273m-.246 1.312c.062.09.158.146.29.166.13.02.239-.002.326-.069a.47.47 0 0 0 .163-.314c.024-.147.004-.266-.06-.354a.413.413 0 0 0-.286-.163.415.415 0 0 0-.324.066c-.088.065-.144.171-.167.319a.47.47 0 0 0 .058.35m-.477-.83a.708.708 0 0 1 .371-.246c-.126-.115-.201-.23-.226-.346a.846.846 0 0 1-.015-.315.718.718 0 0 1 .325-.5c.182-.123.419-.162.71-.116.29.046.503.156.639.33a.717.717 0 0 1 .153.575.85.85 0 0 1-.111.295c-.06.102-.166.181-.319.24a.816.816 0 0 1 .274.368.913.913 0 0 1 .038.458.834.834 0 0 1-.37.58c-.208.142-.475.187-.8.136-.325-.051-.557-.176-.697-.373a.867.867 0 0 1-.152-.662.901.901 0 0 1 .18-.423" mask="url(#t)"/>
        </g>
        <g transform="translate(0 .052)">
            <mask id="v" fill="#fff">
                <use xlink:href="#u"/>
            </mask>
            <path fill="#000" d="M61.411 47.691l.199-1.247-.924 1.133.725.114zm.817.586l-.328-.052-.1.623-.559-.088.1-.623-1.15-.182.079-.497 1.347-1.588.64.1-.287 1.81.329.052-.07.445z" mask="url(#v)"/>
        </g>
        <g transform="translate(0 .052)">
            <mask id="x" fill="#fff">
                <use xlink:href="#w"/>
            </mask>
            <path fill="#000" d="M64.813 46.85c-.1.071-.242.202-.429.393-.187.19-.35.392-.49.605-.11.167-.218.375-.325.624-.107.25-.173.457-.2.624l-.593-.094c.1-.516.357-1.03.771-1.538.265-.315.48-.53.643-.644l-1.448-.228.09-.51 2.051.323-.07.446z" mask="url(#x)"/>
        </g>
        <g transform="translate(0 .052)">
            <mask id="z" fill="#fff">
                <use xlink:href="#y"/>
            </mask>
            <path fill="#000" d="M66.284 48.828c.097-.156.293-.308.587-.454.255-.127.421-.22.5-.28a.524.524 0 0 0 .213-.337.404.404 0 0 0-.047-.28.317.317 0 0 0-.237-.146c-.152-.024-.263.016-.336.12a.846.846 0 0 0-.105.3l-.483-.076c.042-.214.109-.38.2-.502.172-.23.428-.319.767-.265.267.042.469.15.603.322.135.173.183.38.144.624a.8.8 0 0 1-.246.47 1.693 1.693 0 0 1-.413.265l-.222.11a3.974 3.974 0 0 0-.286.15.568.568 0 0 0-.138.12l1.104.173-.07.437-1.73-.273c.033-.18.098-.34.195-.478" mask="url(#z)"/>
        </g>
        <g transform="translate(0 .052)">
            <mask id="B" fill="#fff">
                <use xlink:href="#A"/>
            </mask>
            <path fill="#000" d="M68.954 48.128a.316.316 0 0 0 .221.124c.102.016.185 0 .25-.05a.313.313 0 0 0 .118-.211.32.32 0 0 0-.046-.247c-.046-.065-.12-.105-.222-.121a.322.322 0 0 0-.248.047.318.318 0 0 0-.122.22.31.31 0 0 0 .05.238m-.215 1.142a.353.353 0 0 0 .252.144.355.355 0 0 0 .283-.06.409.409 0 0 0 .143-.273c.02-.129.004-.231-.052-.308a.36.36 0 0 0-.25-.142.36.36 0 0 0-.282.058c-.076.056-.124.148-.145.277a.407.407 0 0 0 .051.304m-.415-.721a.615.615 0 0 1 .323-.215.595.595 0 0 1-.21-.575.624.624 0 0 1 .282-.435c.16-.107.365-.141.618-.101.253.04.438.135.557.286a.624.624 0 0 1 .133.502.74.74 0 0 1-.097.256.516.516 0 0 1-.277.208.71.71 0 0 1 .238.321.794.794 0 0 1 .034.4.727.727 0 0 1-.323.503c-.181.124-.413.163-.696.119-.283-.045-.485-.153-.607-.325a.754.754 0 0 1-.132-.576.783.783 0 0 1 .157-.368" mask="url(#B)"/>
        </g>
        <g transform="translate(0 .052)">
            <mask id="D" fill="#fff">
                <use xlink:href="#C"/>
            </mask>
            <path fill="#000" d="M70.94 48.441a.316.316 0 0 0 .221.124c.102.016.185 0 .25-.05a.313.313 0 0 0 .118-.21.32.32 0 0 0-.046-.247c-.046-.065-.12-.106-.222-.122a.322.322 0 0 0-.248.047.318.318 0 0 0-.122.22.31.31 0 0 0 .05.238m-.215 1.142a.353.353 0 0 0 .252.145.355.355 0 0 0 .283-.06.409.409 0 0 0 .143-.274c.02-.128.003-.23-.052-.308a.36.36 0 0 0-.25-.142.36.36 0 0 0-.282.058c-.076.056-.124.149-.145.278a.407.407 0 0 0 .051.303m-.415-.72a.615.615 0 0 1 .323-.215.595.595 0 0 1-.21-.575.624.624 0 0 1 .282-.436c.16-.107.365-.14.618-.1.253.04.438.135.557.286a.624.624 0 0 1 .133.501.74.74 0 0 1-.097.256.516.516 0 0 1-.277.209.71.71 0 0 1 .238.32.794.794 0 0 1 .034.4.727.727 0 0 1-.323.503c-.181.124-.413.164-.696.12-.283-.045-.485-.154-.607-.325a.754.754 0 0 1-.132-.576.783.783 0 0 1 .157-.369" mask="url(#D)"/>
        </g>
        <g transform="translate(0 .052)">
            <mask id="F" fill="#fff">
                <use xlink:href="#E"/>
            </mask>
            <path fill="#000" d="M73.178 49.471l.172-1.085-.803.986.63.1zm.71.51l-.285-.045-.087.542-.486-.077.086-.542-1-.158.068-.433 1.172-1.382.558.088-.25 1.574.286.045-.062.388z" mask="url(#F)"/>
        </g>
        <g transform="translate(0 .052)">
            <mask id="H" fill="#fff">
                <use xlink:href="#G"/>
            </mask>
            <path fill="#D9C2F0" d="M7.119 89.64a3.687 3.687 0 0 1-1.367-5.043l16.471-28.556 6.427 3.682L12.18 88.28a3.713 3.713 0 0 1-5.061 1.362" mask="url(#H)"/>
        </g>
        <g transform="translate(0 .052)">
            <mask id="J" fill="#fff">
                <use xlink:href="#I"/>
            </mask>
            <path fill="#492191" d="M56.13 44.242c-5.469 9.48-17.614 12.748-27.126 7.298-9.513-5.45-12.792-17.553-7.324-27.034 5.469-9.48 17.613-12.748 27.126-7.298 9.513 5.45 12.792 17.553 7.323 27.034m-4.725-31.537c-12.009-6.88-27.34-2.755-34.242 9.213-6.183 10.719-3.507 24.092 5.747 31.71a1.948 1.948 0 0 0-2.167.91 1.935 1.935 0 0 0 .717 2.648l6.748 3.866a1.95 1.95 0 0 0 2.657-.715c.47-.815.28-1.827-.404-2.424 11.215 4.011 24.042-.427 30.188-11.082 6.903-11.968 2.764-27.247-9.244-34.126" mask="url(#J)"/>
        </g>
        <g>
            <g transform="translate(23.524 25.815)">
                <mask id="L" fill="#fff">
                    <use xlink:href="#K"/>
                </mask>
                <path fill="#FF7900" d="M35.983 87.87L-.652 82.739c-4.262-.597-7.232-4.525-6.633-8.772L2.167 6.943c.599-4.247 4.54-7.207 8.801-6.61l36.636 5.132c4.262.597 7.231 4.524 6.632 8.772L44.785 81.26c-.6 4.248-4.54 7.207-8.802 6.61" mask="url(#L)"/>
            </g>
            <g transform="translate(23.524 25.815)">
                <mask id="N" fill="#fff">
                    <use xlink:href="#M"/>
                </mask>
                <path fill="#000" d="M-9.746 37.245s15.409-1.138 31.36 9.07c16.486 10.55 57.735-8.412 57.735-8.412S59.481 95.695 57.25 95.58c-2.23-.116-67.821-6.076-67.821-6.076l.825-52.26z" mask="url(#N)"/>
            </g>
        </g>
        <g>
            <g transform="translate(18.87 14.48)">
                <mask id="P" fill="#fff">
                    <use xlink:href="#O"/>
                </mask>
                <path fill="#FFF" d="M50.761 34.475l-38.59-5.405.959-6.8 38.59 5.404z" mask="url(#P)"/>
            </g>
            <g transform="translate(18.87 14.48)">
                <mask id="R" fill="#fff">
                    <use xlink:href="#Q"/>
                </mask>
                <path fill="#000" d="M15.111 26.426l-1.547 1.07 1.106-1.476.658 1.72-1.202-1.442 1.966.15-1.809-.832 1.971-.305-1.93-.394 1.524-1.086-1.081 1.505-.622-1.746 1.154 1.474-1.961-.165 1.809.838-1.97.306 1.934.383zm1.681-2.362l-1.73 1.094 1.874.83-2.03.281 1.359 1.527-1.507-1.19-.439 1.903.105-1.95-1.778.73 1.728-1.094-1.874-.828 2.031-.283-1.36-1.527 1.51 1.186.437-1.903-.106 1.95 1.78-.726z" mask="url(#R)"/>
            </g>
            <g transform="translate(18.87 14.48)">
                <mask id="T" fill="#fff">
                    <use xlink:href="#S"/>
                </mask>
                <path fill="#000" d="M15.534 26.485l1.767.897-.562-1.907 1.288 1.493-.729-1.809 1.62 1.044-1.674-.919 1.906-.235-1.844.474 1.143-1.489-.805 1.728-.445-1.846.9 1.61-1.818-.598.968 1.457-.311-1.958-.972 1.733 1.496-.889-1.516-1.232 1.574 1.112.444-1.905-.07 1.958 1.566-1.158-1.482 1.246 1.911.388-1.933-.19 1.31 1.428-1.479-1.278.655 1.839-1.044-1.628.727 1.791-1.11-1.591.78 1.77-1.272-1.444.735-.134.484 2.01 1.41-1.677-1.477 1.018 1.015 1.405-1.223-2.084-1.619 1.71 1.23-.95z" mask="url(#T)"/>
            </g>
            <g transform="translate(18.87 14.48)">
                <mask id="V" fill="#fff">
                    <use xlink:href="#U"/>
                </mask>
                <path fill="#000" d="M20.966 25.352l-1.073 1.545.752-1.756.234 1.895-.61-1.775 1.57 1.06-1.76-.748 1.905-.219-1.798.57 1.059-1.552-.74 1.763-.226-1.898.582 1.789L19.3 24.97l1.766.74-1.896.244 1.796-.603zm-.27 1.667l-1.076 1.546.789-1.74.276 1.89-.607-1.783 1.618.975-1.77-.757 1.912-.24-1.815.503 1.06-1.562-.783 1.743-.27-1.891.586 1.793-1.605-.982 1.771.756-1.91.242 1.824-.493zm-2.176-1.056l1.521 1.177-1.23-1.132 1.543-.538-1.835.546 1.87-.488-1.912-.26 1.902.283-1.104-1.573 1.127 1.573.451-1.9-.09 1.95 1.517-1.202-1.496 1.21 1.907.248-1.911-.274 1.665.981-1.586-1.056 1.311.953-1.516.736 1.807-.677-1.797.717 1.909.333-1.924-.223 1.075 1.608-1.194-1.541-.502 1.9.056-1.96-1.584 1.122 1.528-1.19-1.911-.34 1.926.207-1.523-1.19z" mask="url(#V)"/>
            </g>
            <g transform="translate(18.87 14.48)">
                <mask id="X" fill="#fff">
                    <use xlink:href="#W"/>
                </mask>
                <path fill="#000" d="M25.74 26.122l-1.863-.753 1.12 1.61-1.783-.88 1.295 1.505-1.898-.55 1.58 1.19-1.956-.263.983 1.638-.397-1.954-1.266 1.495 1.969-1.2-1.033-1.942 1.84.817-.542-.114-.526-2.009-1.493 1.677 1.451-1.025-1.003-1.426 1.258 2.09 1.762-1.674-1.07 1.85z" mask="url(#X)"/>
            </g>
            <g transform="translate(18.87 14.48)">
                <mask id="Z" fill="#fff">
                    <use xlink:href="#Y"/>
                </mask>
                <path fill="#000" d="M26.413 28.408c.137-.229.415-.452.836-.67.365-.19.603-.33.715-.419a.757.757 0 0 0 .299-.492.582.582 0 0 0-.075-.402c-.071-.115-.187-.183-.347-.206-.218-.03-.379.03-.48.182-.06.088-.107.233-.145.436l-.7-.098c.056-.308.148-.551.276-.728.244-.337.61-.471 1.1-.403.388.055.681.205.88.45.2.247.274.546.224.898-.038.27-.152.499-.344.686-.126.124-.322.255-.589.392l-.317.163a5.633 5.633 0 0 0-.41.225.822.822 0 0 0-.196.175l1.599.224-.09.632-2.506-.352c.043-.26.133-.491.27-.693" mask="url(#Z)"/>
            </g>
            <g transform="translate(18.87 14.48)">
                <mask id="ab" fill="#fff">
                    <use xlink:href="#aa"/>
                </mask>
                <path fill="#000" d="M30.25 27.33c.07.094.178.152.323.173a.453.453 0 0 0 .359-.079.454.454 0 0 0 .166-.307.465.465 0 0 0-.073-.355c-.068-.093-.176-.15-.323-.17a.466.466 0 0 0-.358.074.461.461 0 0 0-.17.322.45.45 0 0 0 .077.341m-.28 1.654c.08.112.201.18.366.203.165.023.301-.008.409-.094.107-.086.174-.219.199-.398.026-.186-.001-.334-.083-.444a.52.52 0 0 0-.365-.198.522.522 0 0 0-.405.09c-.109.083-.176.218-.202.404-.026.18.001.325.08.437m-.617-1.03a.89.89 0 0 1 .46-.318c-.16-.142-.258-.286-.291-.43a1.07 1.07 0 0 1-.026-.395.902.902 0 0 1 .397-.635c.226-.16.523-.213.89-.162.365.051.635.184.81.4a.9.9 0 0 1 .205.72 1.076 1.076 0 0 1-.133.373c-.073.129-.204.231-.395.307.167.126.284.279.352.457.067.18.087.371.058.576a1.05 1.05 0 0 1-.453.735c-.258.184-.592.247-1.002.19-.41-.058-.704-.209-.884-.454a1.088 1.088 0 0 1-.205-.828c.028-.204.1-.383.217-.536" mask="url(#ab)"/>
            </g>
            <g transform="translate(18.87 14.48)">
                <mask id="ad" fill="#fff">
                    <use xlink:href="#ac"/>
                </mask>
                <path fill="#000" d="M33.507 28.76l.222-1.571-1.135 1.443.913.128zm1.04.718l-.414-.058-.111.785-.704-.098.11-.785-1.449-.203.088-.627 1.658-2.026.808.113-.321 2.28.414.058-.08.56z" mask="url(#ad)"/>
            </g>
            <g transform="translate(18.87 14.48)">
                <mask id="af" fill="#fff">
                    <use xlink:href="#ae"/>
                </mask>
                <path fill="#000" d="M37.763 27.63c-.123.09-.3.257-.53.501-.23.245-.431.502-.601.772a5.018 5.018 0 0 0-.396.791 3.446 3.446 0 0 0-.237.788l-.748-.105c.115-.65.426-1.3.935-1.95.326-.4.59-.675.794-.822l-1.824-.256.1-.643 2.586.362-.08.562z" mask="url(#af)"/>
            </g>
            <g transform="translate(18.87 14.48)">
                <mask id="ah" fill="#fff">
                    <use xlink:href="#ag"/>
                </mask>
                <path fill="#000" d="M39.342 29.885l1.212-.059.22-.979.857-.089-.745-.207.063-.738-.162.728-.486-.19-.754.59.738-.729.71-.931.425.988.85.601-.926.282-.083.932-.616-.513.014.834-.44.204 1.643-.488-.3.504-2.232.419z" mask="url(#ah)"/>
            </g>
            <g transform="translate(18.87 14.48)">
                <mask id="aj" fill="#fff">
                    <use xlink:href="#ai"/>
                </mask>
                <path fill="#000" d="M43.293 28.926l-.07.734.134-.722.741.072-.727-.141.068-.732-.14.725-.738-.067.732.13zm-.24 1.444l-.034.755.175-.735.771-.008-.736-.218.032-.757-.18.737-.767.007.739.22zm-1.134-.906h1.061L42 29.12l.704-.376-.234-.907.936.526 1.044-.249-.475.807.573.556-1.034.044 1.02.311-.662.58.187.992-1.035-.5-1.12.188.487-.888-.472-.74z" mask="url(#aj)"/>
            </g>
            <g transform="translate(18.87 14.48)">
                <mask id="al" fill="#fff">
                    <use xlink:href="#ak"/>
                </mask>
                <path fill="#000" d="M45.796 29.276l-.07.734.134-.722.74.073-.727-.142.068-.732-.14.725-.737-.067.732.131zm-.24 1.445l-.035.754.175-.734.771-.008-.736-.218.032-.758-.179.737-.768.008.74.219zm-1.135-.907h1.062l-.98-.344.703-.376-.233-.907.935.527 1.045-.25-.476.808.573.555-1.034.045 1.02.31-.661.58.186.992-1.035-.5-1.12.188.487-.887-.472-.74z" mask="url(#al)"/>
            </g>
            <g transform="translate(18.87 14.48)">
                <mask id="an" fill="#fff">
                    <use xlink:href="#am"/>
                </mask>
                <path fill="#000" d="M48.04 30.512l.535-1.505-.699 1.765.164-.26zm1.46 1.11l-.926-.524.443 1.18-.544-.572-.431-.182-.848-.787-.425-.433 1.979-1.27.838-.266-1.012 2.072 1.034-.175-.108.957z" mask="url(#an)"/>
            </g>
        </g>
        <g>
            <g transform="translate(0 .052)">
                <mask id="ap" fill="#fff">
                    <use xlink:href="#ao"/>
                </mask>
                <path fill="#FFF" d="M24.667 26.217l-.897-.513c4.798-8.317 15.49-11.194 23.835-6.413l-.516.894c-7.85-4.498-17.909-1.792-22.422 6.032" mask="url(#ap)"/>
            </g>
            <g transform="translate(0 .052)">
                <mask id="ar" fill="#fff">
                    <use xlink:href="#aq"/>
                </mask>
                <path fill="#FFF" d="M26.912 16.246l-.568-.86a23.067 23.067 0 0 1 13.96-3.713L40.24 12.7a22.04 22.04 0 0 0-13.329 3.545" mask="url(#ar)"/>
            </g>
            <g transform="translate(0 .052)">
                <mask id="at" fill="#fff">
                    <use xlink:href="#as"/>
                </mask>
                <path fill="#FFF" d="M56.13 44.242c-5.469 9.48-17.614 12.748-27.126 7.298-9.513-5.45-12.792-17.553-7.324-27.034 5.469-9.48 17.613-12.748 27.126-7.298 9.513 5.45 12.792 17.553 7.323 27.034" mask="url(#at)" opacity=".3"/>
            </g>
        </g>
    </g>
</svg>
