<svg xmlns="http://www.w3.org/2000/svg" xmlns:xlink="http://www.w3.org/1999/xlink" width="375" height="329" viewBox="0 0 375 329">
    <defs>
        <path id="a" d="M0 0h375v288H0z"/>
        <path id="c" d="M0 .238h83.916v15.389H0z"/>
        <path id="e" d="M0 .07h25.28v4.531H0z"/>
        <path id="g" d="M0 .07h25.28v4.531H0z"/>
        <path id="i" d="M0 .1h35.814v6.418H0z"/>
        <path id="k" d="M.794.459h43.85v61.96H.793z"/>
        <path id="m" d="M.794.459h43.85v61.96H.793z"/>
        <path id="o" d="M0 .06h21.837v3.914H0z"/>
        <path id="q" d="M.358.207h19.787v27.96H.358z"/>
        <path id="s" d="M.392.226h21.622V30.78H.392z"/>
        <path id="u" d="M0 .1h35.814v6.418H0z"/>
        <path id="w" d="M.139.08h7.672v10.842H.14z"/>
        <path id="y" d="M.393.227h21.723v30.695H.393z"/>
        <path id="A" d="M.393.227h21.723v30.695H.393z"/>
        <path id="C" d="M.139.08h7.672v10.842H.14z"/>
        <path id="E" d="M.285.165h15.75v22.253H.284z"/>
        <path id="G" d="M0 .07h25.28v4.531H0z"/>
        <path id="I" d="M.478.753h34.374V24.62H.478z"/>
        <path id="K" d="M.163.34h6.508V6H.163z"/>
        <path id="M" d="M.163.34h6.508V6H.163z"/>
        <path id="O" d="M.196.088h1.918v.847H.196z"/>
        <path id="Q" d="M.077.174h1.185v.694H.077z"/>
        <path id="S" d="M.868.725h.817v.868H.868z"/>
        <path id="U" d="M4.184 2.092h2.092v2.092H4.184z"/>
        <path id="W" d="M4.184 2.092h2.092v2.092H4.184z"/>
        <path id="Y" d="M4.184 2.092h2.092v2.092H4.184z"/>
        <path id="aa" d="M0 .603h195.64v189.864H0z"/>
        <path id="ac" d="M4.184 2.092h2.092v2.092H4.184z"/>
    </defs>
    <g fill="none" fill-rule="evenodd">
        <g>
            <mask id="b" fill="#fff">
                <use xlink:href="#a"/>
            </mask>
            <use fill="#222" xlink:href="#a"/>
            <g mask="url(#b)" opacity=".2" style="mix-blend-mode:luminosity">
                <path fill="#FF7900" d="M218.833 21.673c-11.828 16.21 15.744 29.39 15.744 29.39 9.806-17.93-3.919-45.6-15.744-29.39m7.832 17.313c-2.865-2.596-4.664-5.192-5.2-7.51-.316-1.367-.48-3.536 1.746-6.588 1.52-2.08 2.828-2.356 4.41-2.065 1.963.358 3.67 3.883 4.67 9.153.714 3.756.609 7.587-.263 11.06-1.702-1.092-3.604-2.461-5.363-4.05"/>
                <path fill="#FF7900" d="M232.267 50.307s18.375 24.191 32.596 9.31c14.218-14.879-16.335-22.505-32.596-9.31m28.677 5.561c-2.675 2.803-4.866 3.052-6.276 3-2.397-.092-5.279-1.388-8.331-3.745-1.871-1.45-3.546-3.084-4.91-4.57 3.318-1.531 7.114-2.37 10.973-2.377 5.416-.008 9.204 1.019 9.884 2.907.546 1.517.487 2.878-1.34 4.785"/>
                <path fill="#FFF" d="M238.086 55.763c-1.77 2.115-5.44 1.96-8.191-.346-2.75-2.306-3.545-5.889-1.773-8.004"/>
                <path fill="#FF7900" d="M218.254 128.78l41.015-48.949a1.086 1.086 0 0 0-.134-1.528l-56.556-47.387a1.086 1.086 0 0 0-1.53.134L160.034 80l58.22 48.78z"/>
                <g transform="rotate(40 68.187 289.39)">
                    <mask id="d" fill="#fff">
                        <use xlink:href="#c"/>
                    </mask>
                    <path fill="#FFD203" d="M83.916 14.075c0 .822-.652 1.493-1.46 1.493l-80.988.059c-.809.001-1.46-.669-1.46-1.491L0 1.792C-.002.965.65.297 1.457.296L82.446.238c.807-.001 1.461.667 1.462 1.493l.008 12.344z" mask="url(#d)"/>
                </g>
                <path fill="#FF7900" d="M236.76 53.64l-9.63 11.493-6.89-5.774 9.63-11.492zM334.705 14.952c-1.71 5.88 7.38 6.712 7.38 6.712.967-6.157-5.672-12.592-7.38-6.712m3.94 4.107c-1.067-.436-1.833-.986-2.217-1.59-.226-.357-.489-.958-.168-2.065.22-.755.561-.973 1.036-1.057.589-.107 1.423.717 2.233 2.115a7.88 7.88 0 0 1 1.033 3.182 12.13 12.13 0 0 1-1.916-.585"/>
                <path fill="#FF7900" d="M341.546 21.517s7.634 4.907 10.098-.7c2.462-5.607-6.89-4.642-10.098.7m8.614-1.352c-.463 1.056-1.052 1.348-1.453 1.476-.682.217-1.623.147-2.72-.203a12.117 12.117 0 0 1-1.847-.781 7.889 7.889 0 0 1 2.835-1.778c1.518-.552 2.686-.649 3.07-.19.309.37.432.757.115 1.476"/>
                <path fill="#FFF" d="M343.673 22.271c-.307.847-1.393 1.23-2.425.855-1.031-.375-1.618-1.365-1.31-2.212"/>
                <path fill="#FF7900" d="M345.478 45.099l6.586-18.137a.328.328 0 0 0-.195-.42l-20.925-7.6a.328.328 0 0 0-.42.197l-6.587 18.137 21.54 7.823z"/>
                <g transform="rotate(20 116.41 944.303)">
                    <mask id="f" fill="#fff">
                        <use xlink:href="#e"/>
                    </mask>
                    <path fill="#FFD203" d="M25.28 4.144a.44.44 0 0 1-.44.44L.442 4.6a.439.439 0 0 1-.44-.439L0 .528c0-.244.196-.44.439-.44L24.837.07a.44.44 0 0 1 .44.44l.003 3.634z" mask="url(#f)"/>
                </g>
                <path fill="#FF7900" d="M343.183 21.969l-1.557 4.286-2.676-.972 1.557-4.286zM39.082 240.874c-1.71 5.88 7.38 6.711 7.38 6.711.967-6.156-5.672-12.591-7.38-6.711m3.94 4.107c-1.066-.437-1.833-.986-2.216-1.59-.227-.357-.49-.958-.169-2.065.22-.755.562-.973 1.036-1.058.59-.106 1.424.718 2.233 2.115a7.88 7.88 0 0 1 1.034 3.183 12.13 12.13 0 0 1-1.917-.585"/>
                <path fill="#FF7900" d="M45.923 247.439s7.635 4.907 10.098-.7c2.463-5.607-6.89-4.642-10.098.7m8.614-1.352c-.463 1.055-1.052 1.347-1.453 1.476-.682.217-1.623.147-2.72-.203a12.117 12.117 0 0 1-1.847-.781 7.889 7.889 0 0 1 2.835-1.778c1.518-.552 2.686-.649 3.07-.19.31.37.432.756.115 1.476"/>
                <path fill="#FFF" d="M48.05 248.193c-.307.846-1.393 1.23-2.424.854-1.032-.374-1.619-1.364-1.311-2.211"/>
                <path fill="#FF7900" d="M49.855 271.02l6.587-18.136a.328.328 0 0 0-.196-.42l-20.925-7.6a.328.328 0 0 0-.42.197l-6.586 18.137 21.54 7.822z"/>
                <g transform="rotate(20 -672.034 218.984)">
                    <mask id="h" fill="#fff">
                        <use xlink:href="#g"/>
                    </mask>
                    <path fill="#FFD203" d="M25.28 4.144a.44.44 0 0 1-.44.44L.442 4.6a.439.439 0 0 1-.44-.439L0 .528c0-.244.196-.44.439-.44L24.837.07a.44.44 0 0 1 .44.44l.003 3.634z" mask="url(#h)"/>
                </g>
                <path fill="#FF7900" d="M47.56 247.89l-1.556 4.287-2.676-.972 1.556-4.286z"/>
                <g>
                    <path fill="#FF7900" d="M305.373 147.127c-2.421 8.331 10.455 9.508 10.455 9.508 1.37-8.721-8.035-17.838-10.455-9.508m5.583 5.818c-1.512-.618-2.598-1.396-3.141-2.253-.32-.504-.693-1.356-.238-2.925.312-1.069.795-1.377 1.467-1.498.835-.15 2.017 1.017 3.163 2.997a11.163 11.163 0 0 1 1.464 4.509 17.185 17.185 0 0 1-2.715-.83"/>
                    <path fill="#FF7900" d="M315.065 156.428s10.815 6.95 14.305-.992c3.489-7.943-9.76-6.576-14.305.992m12.203-1.916c-.656 1.496-1.49 1.91-2.058 2.091-.966.308-2.3.209-3.855-.288a17.166 17.166 0 0 1-2.615-1.106 11.176 11.176 0 0 1 4.015-2.519c2.152-.782 3.806-.919 4.35-.268.438.524.612 1.071.163 2.09"/>
                    <path fill="#FFF" d="M318.079 157.496c-.435 1.2-1.974 1.741-3.436 1.21-1.46-.53-2.292-1.933-1.857-3.132"/>
                    <path fill="#FF7900" d="M320.635 189.835l9.33-25.694a.465.465 0 0 0-.276-.595l-29.643-10.765a.465.465 0 0 0-.595.278l-9.332 25.694 30.516 11.082z"/>
                    <g transform="rotate(20 -276.617 922.102)">
                        <mask id="j" fill="#fff">
                            <use xlink:href="#i"/>
                        </mask>
                        <path fill="#FFD203" d="M35.814 5.87a.623.623 0 0 1-.623.624L.627 6.518a.622.622 0 0 1-.624-.622L0 .748C0 .403.277.124.622.124L35.186.099c.345 0 .624.278.624.623l.004 5.149z" mask="url(#j)"/>
                    </g>
                    <path fill="#FF7900" d="M317.384 157.067l-2.205 6.073-3.791-1.377 2.205-6.072z"/>
                </g>
                <g>
                    <path fill="#A885D8" d="M94.424 147.182a1.4 1.4 0 0 0 1.78.867l20.456-7.445-10.952-30.092-21.75 7.916 10.466 28.754zM125.07 137.543l20.456-7.445a1.4 1.4 0 0 0 .807-1.809l-10.466-28.754-21.75 7.916 10.953 30.092zM76.9 108.86l2.539 6.974a1.4 1.4 0 0 0 1.78.867l23.613-8.595-3.512-9.65-23.612 8.595a1.398 1.398 0 0 0-.808 1.809M133.343 86.802l-23.613 8.594 3.512 9.65 23.613-8.595a1.4 1.4 0 0 0 .807-1.809l-2.538-6.974a1.398 1.398 0 0 0-1.781-.866"/>
                    <g transform="rotate(-20 289.159 -177.563)">
                        <mask id="l" fill="#fff">
                            <use xlink:href="#k"/>
                        </mask>
                        <path fill="#FF7900" d="M44.089 9.63a5.673 5.673 0 0 0-.71-6.015C41.181.58 36.007-.818 31.812 1.943c-4.141 2.726-7.33 7.18-9.093 10.037-1.765-2.861-4.952-7.315-9.093-10.037C9.434-.817 4.26.581 2.058 3.615a5.673 5.673 0 0 0-.71 6.016c2.335 4.826 11.528 7.576 19.65 7.924v44.863h3.442V17.555c8.121-.344 17.314-3.098 19.649-7.924zM4.429 8.04c-.251-.524-.406-1.206.383-2.292v.004A4.771 4.771 0 0 1 8.66 4.009a5.64 5.64 0 0 1 3.119.94c3.585 2.359 6.457 6.4 8.046 8.974-7.218-.553-14.034-3.066-15.397-5.884zm36.584 0c-1.363 2.817-8.179 5.327-15.397 5.88 1.589-2.575 4.46-6.612 8.046-8.975l-.004.003a5.64 5.64 0 0 1 3.12-.94 4.771 4.771 0 0 1 3.847 1.744c.789 1.086.638 1.767.384 2.287h.004z" mask="url(#l)"/>
                    </g>
                </g>
                <g>
                    <path fill="#FFF" d="M284.927 255.584a1.4 1.4 0 0 0 .14 1.976l16.675 13.992 20.584-24.531-17.73-14.878-19.67 23.44zM308.598 277.305l16.676 13.992a1.4 1.4 0 0 0 1.97-.205l19.669-23.44-17.73-14.879-20.585 24.532zM309.353 221.247l-4.77 5.685a1.4 1.4 0 0 0 .14 1.976l19.249 16.152 6.6-7.867-19.249-16.152a1.398 1.398 0 0 0-1.97.206M356.677 259.098l-19.249-16.152-6.6 7.866 19.249 16.152a1.4 1.4 0 0 0 1.97-.205l4.77-5.685a1.398 1.398 0 0 0-.14-1.976"/>
                    <g transform="rotate(40 -127.302 556.438)">
                        <mask id="n" fill="#fff">
                            <use xlink:href="#m"/>
                        </mask>
                        <path fill="#FF7900" d="M44.089 9.63a5.673 5.673 0 0 0-.71-6.015C41.181.58 36.007-.818 31.812 1.943c-4.141 2.726-7.33 7.18-9.093 10.037-1.765-2.861-4.952-7.315-9.093-10.037C9.434-.817 4.26.581 2.058 3.615a5.673 5.673 0 0 0-.71 6.016c2.335 4.826 11.528 7.576 19.65 7.924v44.863h3.442V17.555c8.121-.344 17.314-3.098 19.649-7.924zM4.429 8.04c-.251-.524-.406-1.206.383-2.292v.004A4.771 4.771 0 0 1 8.66 4.009a5.64 5.64 0 0 1 3.119.94c3.585 2.359 6.457 6.4 8.046 8.974-7.218-.553-14.034-3.066-15.397-5.884zm36.584 0c-1.363 2.817-8.179 5.327-15.397 5.88 1.589-2.575 4.46-6.612 8.046-8.975l-.004.003a5.64 5.64 0 0 1 3.12-.94 4.771 4.771 0 0 1 3.847 1.744c.789 1.086.638 1.767.384 2.287h.004z" mask="url(#n)"/>
                    </g>
                </g>
                <g>
                    <path fill="#FF7900" d="M134.732 38.597c1.262 5.137 8.42 1.833 8.42 1.833-1.936-5.023-9.681-6.97-8.42-1.833m4.722 1.37c-.987.135-1.798.055-2.345-.232-.323-.169-.78-.505-1.018-1.472-.161-.66 0-.97.318-1.238.395-.334 1.375-.078 2.584.618a6.806 6.806 0 0 1 2.148 1.934c-.497.157-1.082.307-1.687.39"/>
                    <path fill="#FF7900" d="M142.685 40.554s7.83.373 7.252-4.885c-.58-5.258-7.159-.497-7.252 4.885m5.86-4.732c.11.99-.205 1.462-.45 1.731-.415.458-1.15.811-2.122 1.024-.597.129-1.198.19-1.718.213a6.814 6.814 0 0 1 1.352-2.555c.898-1.068 1.73-1.645 2.215-1.467.39.143.65.379.723 1.054"/>
                    <path fill="#FFF" d="M144.603 40.199c.135.766-.512 1.521-1.445 1.686-.934.166-1.8-.321-1.936-1.088"/>
                    <path fill="#FF7900" d="M155.811 56.496l-2.906-16.412a.283.283 0 0 0-.327-.23l-18.935 3.353a.283.283 0 0 0-.23.328l2.906 16.412 19.492-3.451z"/>
                    <g transform="rotate(-10 307.62 -734.1)">
                        <mask id="p" fill="#fff">
                            <use xlink:href="#o"/>
                        </mask>
                        <path fill="#FFD203" d="M21.837 3.58c0 .209-.17.38-.38.38L.382 3.974a.38.38 0 0 1-.38-.379L0 .455c0-.21.169-.38.379-.38L21.454.06c.21 0 .38.17.38.38l.003 3.14z" mask="url(#p)"/>
                    </g>
                    <path fill="#FF7900" d="M144.105 40.184l.687 3.88-2.422.428-.686-3.879z"/>
                </g>
                <g>
                    <path fill="#A885D8" d="M343.371 114.896a.632.632 0 0 0-.245.86l4.911 8.506 12.515-7.225-5.223-9.045-11.958 6.904zM350.056 127.76l4.912 8.507c.18.3.567.397.867.217l11.958-6.904-5.222-9.045-12.515 7.225zM359.029 104.106l-2.9 1.674a.632.632 0 0 0-.246.86l5.67 9.82 4.012-2.317-5.67-9.82a.631.631 0 0 0-.866-.217M373.254 127.46l-5.67-9.82-4.013 2.317 5.67 9.82c.18.3.569.396.867.217l2.9-1.675a.631.631 0 0 0 .246-.859"/>
                    <g transform="rotate(60 94.913 370.494)">
                        <mask id="r" fill="#fff">
                            <use xlink:href="#q"/>
                        </mask>
                        <path fill="#FF7900" d="M19.895 4.346a2.56 2.56 0 0 0-.32-2.715c-.992-1.369-3.327-2-5.22-.754-1.868 1.23-3.307 3.24-4.103 4.529-.796-1.291-2.235-3.301-4.103-4.53C4.257-.368 1.922.263.929 1.632a2.56 2.56 0 0 0-.32 2.715C1.662 6.524 5.81 7.765 9.475 7.922v20.244h1.554V7.922c3.665-.156 7.813-1.398 8.866-3.576zM1.998 3.628c-.113-.236-.182-.544.173-1.034v.001a2.153 2.153 0 0 1 1.737-.786c.501 0 .99.147 1.407.424 1.618 1.065 2.914 2.888 3.631 4.05-3.257-.25-6.333-1.384-6.948-2.655zm16.51 0c-.616 1.271-3.691 2.404-6.949 2.653.717-1.162 2.013-2.983 3.631-4.05l-.002.002a2.545 2.545 0 0 1 1.408-.424c.67-.023 1.31.269 1.736.786.356.49.288.798.174 1.033h.001z" mask="url(#r)"/>
                    </g>
                </g>
                <g>
                    <path fill="#4BB4E6" d="M90.71 55.608a.69.69 0 0 0 .972.102l8.223-6.9-10.15-12.097-8.743 7.336 9.699 11.56zM103.286 45.973l8.223-6.9a.69.69 0 0 0 .069-.974l-9.7-11.56-8.742 7.337 10.15 12.097zM76.128 40.806l2.352 2.803a.69.69 0 0 0 .971.102l9.492-7.965-3.254-3.879-9.492 7.965a.69.69 0 0 0-.07.974M98.561 21.065L89.07 29.03l3.255 3.88 9.492-7.966a.69.69 0 0 0 .07-.974l-2.353-2.803a.69.69 0 0 0-.972-.102"/>
                    <g transform="rotate(-40 79.22 -85.09)">
                        <mask id="t" fill="#fff">
                            <use xlink:href="#s"/>
                        </mask>
                        <path fill="#FF7900" d="M21.74 4.75a2.798 2.798 0 0 0-.35-2.968C20.308.287 17.757-.403 15.688.958c-2.042 1.344-3.614 3.54-4.484 4.95C10.333 4.495 8.76 2.3 6.719.957 4.652-.403 2.101.287 1.015 1.782a2.798 2.798 0 0 0-.35 2.967c1.151 2.38 5.684 3.736 9.69 3.908v22.122h1.697V8.657c4.005-.17 8.538-1.528 9.689-3.908zM2.185 3.963c-.124-.258-.2-.594.189-1.13v.002a2.353 2.353 0 0 1 1.897-.86c.548 0 1.082.162 1.538.464 1.768 1.163 3.185 3.156 3.968 4.426-3.56-.273-6.92-1.512-7.592-2.902zm18.04 0c-.672 1.39-4.033 2.627-7.593 2.9.784-1.27 2.2-3.26 3.968-4.426l-.002.002c.457-.302.99-.463 1.539-.463a2.353 2.353 0 0 1 1.897.86c.389.535.315.87.19 1.127h.001z" mask="url(#t)"/>
                    </g>
                </g>
                <g>
                    <path fill="#FF7900" d="M17.17 21.264c-2.421 8.331 10.455 9.508 10.455 9.508 1.37-8.721-8.035-17.838-10.455-9.508m5.583 5.818c-1.512-.618-2.599-1.396-3.141-2.253-.32-.504-.694-1.356-.239-2.925.312-1.069.795-1.377 1.468-1.498.834-.15 2.016 1.017 3.163 2.997a11.163 11.163 0 0 1 1.464 4.509 17.185 17.185 0 0 1-2.715-.83"/>
                    <path fill="#FF7900" d="M26.861 30.565s10.816 6.95 14.306-.992c3.488-7.943-9.76-6.576-14.306.992m12.204-1.916c-.656 1.496-1.49 1.91-2.059 2.091-.966.308-2.299.208-3.854-.288a17.166 17.166 0 0 1-2.615-1.106 11.176 11.176 0 0 1 4.015-2.519c2.151-.782 3.806-.919 4.35-.268.438.524.612 1.071.163 2.09"/>
                    <path fill="#FFF" d="M29.875 31.633c-.435 1.2-1.974 1.741-3.435 1.21-1.461-.53-2.293-1.933-1.857-3.132"/>
                    <path fill="#FF7900" d="M32.431 63.972l9.332-25.694a.465.465 0 0 0-.277-.595L11.842 26.918a.465.465 0 0 0-.595.278L1.916 52.89 32.43 63.972z"/>
                    <g transform="rotate(20 -63.816 41.93)">
                        <mask id="v" fill="#fff">
                            <use xlink:href="#u"/>
                        </mask>
                        <path fill="#FFD203" d="M35.814 5.87a.623.623 0 0 1-.623.624L.627 6.518a.622.622 0 0 1-.624-.622L0 .748C0 .403.277.124.622.124L35.186.099c.345 0 .624.278.624.623l.004 5.149z" mask="url(#v)"/>
                    </g>
                    <path fill="#FF7900" d="M29.18 31.204l-2.205 6.073-3.79-1.377 2.205-6.072z"/>
                </g>
                <g>
                    <path fill="#4BB4E6" d="M304.275 132.666c.086.105.24.121.345.036l2.918-2.449-3.602-4.292-3.102 2.603 3.441 4.102zM308.738 129.247l2.917-2.448a.245.245 0 0 0 .025-.346l-3.442-4.102-3.102 2.604 3.602 4.292zM299.1 127.413l.835.995c.085.105.24.121.345.036l3.368-2.826-1.155-1.376-3.368 2.826a.245.245 0 0 0-.024.345M307.061 120.409l-3.368 2.826 1.155 1.376 3.368-2.826a.245.245 0 0 0 .024-.346l-.834-.994a.245.245 0 0 0-.345-.036"/>
                    <g transform="rotate(-40 319.296 -347.504)">
                        <mask id="x" fill="#fff">
                            <use xlink:href="#w"/>
                        </mask>
                        <path fill="#FF7900" d="M7.714 1.685A.993.993 0 0 0 7.59.632C7.206.102 6.3-.143 5.566.34c-.724.477-1.282 1.256-1.59 1.756-.31-.5-.867-1.28-1.592-1.756C1.651-.143.745.102.36.632a.993.993 0 0 0-.124 1.053c.408.845 2.017 1.326 3.438 1.387v7.85h.602v-7.85c1.421-.06 3.03-.542 3.438-1.387zm-6.94-.278c-.043-.092-.07-.211.068-.401a.835.835 0 0 1 .673-.305c.195 0 .384.058.546.165.627.413 1.13 1.12 1.408 1.57C2.206 2.34 1.013 1.9.775 1.406zm6.402 0c-.238.493-1.43.932-2.694 1.029.278-.451.78-1.157 1.408-1.57A.987.987 0 0 1 6.434.7a.835.835 0 0 1 .673.305c.138.19.112.31.068.4z" mask="url(#x)"/>
                    </g>
                </g>
                <g>
                    <path fill="#4BB4E6" d="M295.088 99.365a.693.693 0 0 0 .943.27l9.34-5.392-7.933-13.739-9.93 5.733 7.58 13.128zM309.21 92.026l9.34-5.392a.693.693 0 0 0 .238-.952l-7.58-13.128-9.93 5.733 7.932 13.74zM283.242 82.176l1.838 3.184a.694.694 0 0 0 .944.27l10.78-6.224L294.261 75l-10.78 6.224a.693.693 0 0 0-.239.952M308.881 66.56l-10.78 6.223 2.543 4.406 10.78-6.224a.694.694 0 0 0 .239-.952l-1.839-3.184a.693.693 0 0 0-.943-.27"/>
                    <g transform="rotate(-30 275.363 -490.382)">
                        <mask id="z" fill="#fff">
                            <use xlink:href="#y"/>
                        </mask>
                        <path fill="#FF7900" d="M21.841 4.771a2.81 2.81 0 0 0-.351-2.98C20.4.288 17.838-.405 15.76.963c-2.052 1.35-3.631 3.556-4.505 4.972C10.38 4.517 8.8 2.31 6.75.963 4.673-.405 2.11.288 1.02 1.79a2.81 2.81 0 0 0-.352 2.98c1.157 2.391 5.71 3.753 9.734 3.926v22.225h1.705V8.697c4.024-.17 8.578-1.535 9.734-3.926zM2.194 3.983c-.124-.26-.2-.598.19-1.135v.001a2.364 2.364 0 0 1 1.906-.863c.55 0 1.087.162 1.545.465 1.776 1.17 3.2 3.17 3.986 4.446C6.245 6.624 2.87 5.38 2.194 3.983zm18.124 0c-.676 1.396-4.052 2.639-7.628 2.913.787-1.276 2.21-3.276 3.986-4.446l-.002.001a2.794 2.794 0 0 1 1.545-.465 2.364 2.364 0 0 1 1.907.863c.39.538.316.876.19 1.134h.002z" mask="url(#z)"/>
                    </g>
                </g>
                <g>
                    <path fill="#4BB4E6" d="M90.088 203.365a.693.693 0 0 0 .943.27l9.34-5.392-7.933-13.739-9.93 5.733 7.58 13.128zM104.21 196.026l9.34-5.392a.693.693 0 0 0 .238-.952l-7.58-13.128-9.93 5.733 7.932 13.74zM78.242 186.176l1.838 3.184a.694.694 0 0 0 .944.27l10.78-6.224L89.261 179l-10.78 6.224a.693.693 0 0 0-.239.952M103.881 170.56l-10.78 6.223 2.543 4.406 10.78-6.224a.694.694 0 0 0 .239-.952l-1.839-3.184a.693.693 0 0 0-.943-.27"/>
                    <g transform="rotate(-30 366.93 -55.847)">
                        <mask id="B" fill="#fff">
                            <use xlink:href="#A"/>
                        </mask>
                        <path fill="#FF7900" d="M21.841 4.771a2.81 2.81 0 0 0-.351-2.98C20.4.288 17.838-.405 15.76.963c-2.052 1.35-3.631 3.556-4.505 4.972C10.38 4.517 8.8 2.31 6.75.963 4.673-.405 2.11.288 1.02 1.79a2.81 2.81 0 0 0-.352 2.98c1.157 2.391 5.71 3.753 9.734 3.926v22.225h1.705V8.697c4.024-.17 8.578-1.535 9.734-3.926zM2.194 3.983c-.124-.26-.2-.598.19-1.135v.001a2.364 2.364 0 0 1 1.906-.863c.55 0 1.087.162 1.545.465 1.776 1.17 3.2 3.17 3.986 4.446C6.245 6.624 2.87 5.38 2.194 3.983zm18.124 0c-.676 1.396-4.052 2.639-7.628 2.913.787-1.276 2.21-3.276 3.986-4.446l-.002.001a2.794 2.794 0 0 1 1.545-.465 2.364 2.364 0 0 1 1.907.863c.39.538.316.876.19 1.134h.002z" mask="url(#B)"/>
                    </g>
                </g>
                <g>
                    <path fill="#FFF" d="M36.954 109.828a.245.245 0 0 0 .194.287l3.751.661.973-5.518-3.988-.703-.93 5.273zM42.442 111.048l3.75.661c.135.021.26-.07.281-.203l.93-5.273-3.988-.703-.973 5.518zM37.652 102.487l-.226 1.28a.245.245 0 0 0 .194.286l4.33.764.312-1.77-4.33-.763a.245.245 0 0 0-.28.203M48.134 104.083l-4.33-.764-.312 1.77 4.33.763c.134.021.26-.07.28-.203l.226-1.28a.245.245 0 0 0-.194-.286"/>
                    <g transform="rotate(10 -548.625 276.346)">
                        <mask id="D" fill="#fff">
                            <use xlink:href="#C"/>
                        </mask>
                        <path fill="#FF7900" d="M7.714 1.685A.993.993 0 0 0 7.59.632C7.206.102 6.3-.143 5.566.34c-.724.477-1.282 1.256-1.59 1.756-.31-.5-.867-1.28-1.592-1.756C1.651-.143.745.102.36.632a.993.993 0 0 0-.124 1.053c.408.845 2.017 1.326 3.438 1.387v7.85h.602v-7.85c1.421-.06 3.03-.542 3.438-1.387zm-6.94-.278c-.043-.092-.07-.211.068-.401a.835.835 0 0 1 .673-.305c.195 0 .384.058.546.165.627.413 1.13 1.12 1.408 1.57C2.206 2.34 1.013 1.9.775 1.406zm6.402 0c-.238.493-1.43.932-2.694 1.029.278-.451.78-1.157 1.408-1.57A.987.987 0 0 1 6.434.7a.835.835 0 0 1 .673.305c.138.19.112.31.068.4z" mask="url(#D)"/>
                    </g>
                </g>
                <g>
                    <path fill="#FFF" d="M164.339 186.357a.503.503 0 0 0 .398.59l7.7 1.357 1.997-11.326-8.187-1.444-1.908 10.823zM175.602 188.863l7.7 1.357a.503.503 0 0 0 .576-.417l1.908-10.824-8.186-1.443-1.998 11.327zM165.77 171.29l-.462 2.625a.503.503 0 0 0 .398.59l8.888 1.567.64-3.632-8.888-1.567a.502.502 0 0 0-.576.418M187.288 174.565l-8.888-1.567-.64 3.632 8.887 1.567a.503.503 0 0 0 .576-.417l.463-2.625a.502.502 0 0 0-.398-.59"/>
                    <g transform="rotate(10 -858.55 1053.395)">
                        <mask id="F" fill="#fff">
                            <use xlink:href="#E"/>
                        </mask>
                        <path fill="#FF7900" d="M15.835 3.459c.339-.71.24-1.55-.255-2.16-.79-1.09-2.648-1.593-4.155-.601-1.487.979-2.632 2.578-3.265 3.605C7.526 3.275 6.38 1.675 4.894.698c-1.506-.992-3.364-.49-4.155.6A2.038 2.038 0 0 0 .484 3.46c.839 1.733 4.14 2.721 7.058 2.846v16.113h1.236V6.305c2.917-.124 6.219-1.113 7.057-2.846zM1.59 2.887c-.09-.188-.145-.433.138-.823v.002A1.714 1.714 0 0 1 3.11 1.44c.4 0 .788.117 1.12.337 1.288.848 2.32 2.299 2.89 3.224-2.592-.199-5.04-1.102-5.53-2.114zm13.14 0C14.24 3.9 11.793 4.801 9.2 5c.57-.924 1.602-2.374 2.89-3.223l-.001.001c.332-.22.72-.337 1.12-.337a1.714 1.714 0 0 1 1.382.626c.283.39.23.634.138.821h.001z" mask="url(#F)"/>
                    </g>
                </g>
                <g>
                    <path fill="#FF7900" d="M26.987 160.475c1.46 5.948 9.747 2.123 9.747 2.123-2.24-5.815-11.207-8.07-9.747-2.123m5.467 1.586c-1.143.156-2.081.064-2.715-.268-.374-.196-.903-.585-1.178-1.704-.187-.764 0-1.123.368-1.434.457-.386 1.591-.09 2.991.716a7.88 7.88 0 0 1 2.487 2.24 12.13 12.13 0 0 1-1.953.45"/>
                    <path fill="#FF7900" d="M36.195 162.74s9.065.432 8.394-5.655c-.67-6.087-8.287-.575-8.394 5.655m6.784-5.478c.126 1.146-.238 1.693-.52 2.005-.483.53-1.333.939-2.459 1.184-.69.15-1.386.22-1.989.247a7.889 7.889 0 0 1 1.566-2.957c1.04-1.237 2.002-1.905 2.565-1.699.452.166.751.439.837 1.22"/>
                    <path fill="#FFF" d="M38.414 162.33c.157.886-.592 1.76-1.673 1.952-1.08.191-2.084-.373-2.24-1.26"/>
                    <path fill="#FF7900" d="M51.39 181.197l-3.364-19a.328.328 0 0 0-.379-.267l-21.92 3.882a.328.328 0 0 0-.266.38l3.364 19 22.565-3.995z"/>
                    <g transform="rotate(-10 953.386 -54.779)">
                        <mask id="H" fill="#fff">
                            <use xlink:href="#G"/>
                        </mask>
                        <path fill="#FFD203" d="M25.28 4.144a.44.44 0 0 1-.44.44L.442 4.6a.439.439 0 0 1-.44-.439L0 .528c0-.244.196-.44.439-.44L24.837.07a.44.44 0 0 1 .44.44l.003 3.634z" mask="url(#H)"/>
                    </g>
                    <path fill="#FF7900" d="M37.838 162.313l.795 4.49-2.803.497-.795-4.49z"/>
                </g>
            </g>
        </g>
        <path fill="#D6D6D6" d="M308.325 219.615c-1.26 0-2.093.837-2.093 2.092v2.093c-.422.836-.422 2.092.419 2.929.837.418 2.092.418 2.929-.419.837-1.255.837-2.51.837-4.184 0-1.255-1.26-2.51-2.092-2.51"/>
        <path fill="#FFF" d="M248.486 148.902c-5.017-2.51-8.787-3.766-14.645-3.766-6.694-.418-13.808-2.929-20.498-1.255-2.515.418-5.026 1.673-7.532 2.092-2.929.418-6.276.418-9.628.837-7.946.418-26.775.837-28.867 11.297-2.092 12.971 7.109 26.361 8.787 38.914 1.674 12.97.833 25.524.833 38.495 0 12.553-.833 23.013 10.042 31.8 8.787 7.113 20.925 10.46 31.8 10.042 10.46-.418 22.6-.418 30.968-8.368 5.854-5.858 5.017-9.624 4.184-17.156-.837-8.786 1.255-17.155 1.255-25.942.415-12.971 2.092-25.942 2.93-38.913.414-4.603.832-9.624.832-14.645.423-9.624-1.255-18.83-10.46-23.432"/>
        <path fill="#BDBDBD" d="M250.586 192.837l6.468 38.703v-6.903-15.063c0-6.233.596-10.07 1.786-11.508l-8.254-5.229z"/>
        <path fill="#C8C6C6" d="M231.123 177.247c3.9 12.734 8.643 21.704 14.226 26.908 5.584 5.204 8.949 13.008 10.096 23.411l2.247-8.786-.8-18.26-25.77-23.273z"/>
        <path fill="#714E46" d="M215.433 135.513c-.422-3.347-.422-5.02-.837-7.95-.836-7.113-1.255-14.226-.836-21.758-1.674 3.348-4.603 9.624-5.858 13.39-1.26 4.603-4.603 9.624-9.206 10.042-5.02.418-11.297-5.858-12.553 2.092-.836 4.184-1.255 15.482.419 19.248 2.51 5.858 10.042 5.02 14.645 4.602 4.184-.418 8.368-1.673 11.711-3.765 2.093-1.256 4.185-2.93 5.026-5.021 1.25-2.511.837-3.766-.841-5.44-.833-1.255-1.251-3.347-1.67-5.44"/>
        <path fill="#714E46" d="M200.367 96.599c-4.184-.837-7.945-.419-12.13.836-2.514.837-5.858.419-7.117 2.93-1.674 3.347-2.092 8.368-1.674 12.134.423 5.02 1.255 12.553 4.184 16.737 1.256 1.674 2.515 3.347 3.766 5.02 1.26 2.093 2.933 4.185 5.444 5.022 7.109 1.674 12.971-6.276 16.733-11.297 2.092-2.93 1.255-5.858 1.678-9.624.414-4.184 1.67-8.369 0-12.135-2.092-5.02-6.277-8.787-10.884-9.623"/>
        <path fill="#000" d="M199.95 108.733c-1.255.418-2.51 0-3.765 0 .418 1.673 1.255 2.929 2.929 2.51.418 0 2.929-1.255 4.602-1.674.419 0 .837-.418.837 0-.837-1.673-3.347-.836-4.602-.836M184.051 109.99c-1.255 0-2.51-.42-2.51 1.254 0-.418 3.347.837 3.347.837h1.255c.837-.418 1.256-1.255 1.674-2.092h-3.766z"/>
        <path fill="#664640" d="M191.582 115.009c-.837 1.255-.418 3.347-1.255 4.603 0 .418-.419.836-1.255 1.255-.419.418-1.256.837-1.256 1.674-1.255 3.347 3.766 2.51 5.021.836 1.256-1.255 2.093-8.368-1.255-8.368M199.95 126.307c0-.837-.836-.418-.418 0l.419 1.674c0 .837.837.418.418 0l-.418-1.674z"/>
        <g transform="translate(175.975 77.418)">
            <mask id="J" fill="#fff">
                <use xlink:href="#I"/>
            </mask>
            <path fill="#000" d="M31.928 2.025c.418.837.832 2.092.418 2.929 0-.419-3.347-2.51-3.77-2.93C25.65.77 21.886.352 18.952 1.189c-2.925.837-5.017 3.766-7.946 4.184-.837 0-3.347-1.674-4.184-.837C5.148 6.21 8.077 7.883 8.914 8.72c-1.255-.419-6.695 0-7.532.836-2.092 1.674.837 1.674.419 2.93C1.8 13.74.127 13.74.546 15.832c.418 5.44 12.552 7.531 16.318 7.531 1.251 0 2.51-.418 3.766 0 1.255.419 1.67 1.256 2.929 1.256 3.347-.837 5.44-4.185 6.276-7.113 1.256-3.348 4.603-6.277 5.017-10.461 0-1.674-.832-6.277-2.924-5.021" mask="url(#J)"/>
        </g>
        <path fill="#000" d="M187.817 92.414c-.837-.836-2.51-3.347-4.185-3.347-.418 0-.836 0-1.255.418-1.255.837-.418 3.348-2.092 3.766-1.674.419-3.766-2.929-4.603 0-.418 1.256 1.256 4.184 2.093 5.021 2.51 2.93 6.694 4.185 10.46 5.021 3.348.419 17.156-.418 14.645-6.276-5.858 1.255-11.297 0-15.063-4.603"/>
        <path fill="#000" d="M210.411 86.138c-2.929 0-4.184 5.858-5.02 7.532-.838 1.673-2.093 2.929-2.511 4.602-.837 2.51-.419 2.51 1.673 3.766 3.766 2.092 4.185 7.113 4.185 10.88 1.673-.42 4.184-5.022 6.276-4.185 1.674.837.837 4.603 0 5.858 6.276-6.276 5.021-18.83 0-25.524-1.255-.837-2.929-2.929-4.603-2.929"/>
        <path fill="#595959" d="M186.602 85.286c.127.235.182.495.168.75l-.001.011c-.257-.254-.402-.645-.473-.989a1.759 1.759 0 0 1-.026-.163c.134.105.244.23.332.391m-2.244 4.622c.078.086.154.238.14.306-.007.04-.008.039-.054.081a.477.477 0 0 1-.162.06c-.333.077-.721-.102-.992-.282-.343-.227-.573-.595-.7-.994.647.083 1.329.34 1.768.829m4.597-8.547c-.378.04-.728.1-1.078.253a3.757 3.757 0 0 0-1.015.663 3.47 3.47 0 0 0-1.063 1.778 2.27 2.27 0 0 0-1.243-.04c-.5.129-.945.44-1.3.806-.786.81-1.233 1.956-1.32 3.07-.016.204-.016.41.003.613-.94.029-1.861.38-2.333 1.215-.276.488-.376 1.08-.196 1.617.174.522.567.925 1.008 1.239.957.68 2.262.979 3.426.908.528-.034 1.084-.15 1.525-.457.283-.196.014-.662-.272-.463-.837.58-2.114.446-3.083.165-.525-.151-1.061-.394-1.475-.733a2.12 2.12 0 0 1-.479-.532 1.4 1.4 0 0 1-.2-.588c-.042-.515.228-1.085.671-1.405.432-.31.967-.42 1.495-.425.16.643.516 1.223 1.12 1.572.564.326 1.784.532 1.891-.39.05-.433-.373-.803-.676-1.035-.264-.204-.58-.343-.894-.453a4.22 4.22 0 0 0-.988-.215 3.862 3.862 0 0 1 .045-1.018c.174-1.006.692-2.076 1.517-2.657.395-.278.795-.404 1.266-.36.064.007.211.04.312.07.037.01.07.022.103.033-.013.353.054.713.18 1.04.138.348.343.72.658.939a.45.45 0 0 0 .652-.151c.136-.235.108-.54.068-.795-.098-.605-.47-1.059-.981-1.351.022-.117.052-.232.088-.343.272-.843 1.002-1.565 1.828-1.878.359-.135.759-.175 1.141-.182.16-.003.336.006.482.077.153.075.21.213.24.377.065.34.585.196.52-.143-.152-.808-.96-.894-1.643-.821M208.69 92.603c.26.054.496.18.682.354l.008.008c-.36.032-.753-.107-1.062-.274a1.758 1.758 0 0 1-.142-.085 1.25 1.25 0 0 1 .514-.003m2.098 4.69c.115-.004.281.035.325.089.025.032.023.032.026.094a.477.477 0 0 1-.058.163c-.155.304-.542.486-.853.578-.395.117-.824.057-1.212-.103.48-.442 1.115-.798 1.772-.821m-3.593-9.016c-.213.316-.39.623-.5.989a3.757 3.757 0 0 0-.143 1.204 3.47 3.47 0 0 0 .678 1.957 2.27 2.27 0 0 0-.83.927c-.223.466-.27 1.005-.218 1.513.116 1.123.706 2.202 1.504 2.984.146.144.303.276.471.393-.581.738-.904 1.67-.569 2.568.197.525.586.982 1.113 1.19.512.201 1.073.16 1.597.024 1.136-.297 2.204-1.104 2.898-2.042.313-.425.582-.926.63-1.46.032-.343-.498-.438-.53-.09-.093 1.014-1.017 1.906-1.855 2.467-.453.305-.983.56-1.51.66a2.12 2.12 0 0 1-.715.024 1.4 1.4 0 0 1-.578-.224c-.422-.3-.686-.873-.645-1.418.04-.53.299-1.011.635-1.418.595.29 1.268.39 1.923.153.613-.223 1.555-1.025.917-1.7-.299-.317-.855-.23-1.226-.148-.327.072-.636.224-.923.394a4.22 4.22 0 0 0-.8.619 3.862 3.862 0 0 1-.75-.689c-.66-.78-1.146-1.864-1.06-2.87.04-.48.2-.868.538-1.2.046-.046.166-.138.254-.195.03-.022.062-.04.091-.057.262.237.58.416.913.529.355.119.771.2 1.142.1a.45.45 0 0 0 .303-.597c-.092-.254-.344-.43-.565-.562-.526-.314-1.113-.321-1.666-.117a2.779 2.779 0 0 1-.206-.288c-.47-.75-.554-1.774-.264-2.607.128-.362.355-.694.595-.992.1-.124.22-.253.369-.319.156-.07.298-.024.443.057.302.17.525-.321.225-.49-.717-.402-1.303.162-1.686.731"/>
        <path fill="#595959" d="M212.817 88.534c-.253.084-.52.093-.768.035-.003 0-.007-.001-.01-.003.295-.208.705-.284 1.056-.294.055-.002.11 0 .165.003-.127.113-.27.2-.443.259m-4.162-3.012c-.098.06-.261.11-.326.085-.038-.015-.036-.016-.07-.068a.477.477 0 0 1-.031-.17c-.018-.341.226-.693.45-.928.283-.298.685-.461 1.1-.517-.194.623-.566 1.25-1.123 1.598m7.619 6.011c.026-.38.027-.735-.062-1.106a3.757 3.757 0 0 0-.477-1.114 3.47 3.47 0 0 0-1.566-1.356 2.27 2.27 0 0 0 .255-1.218c-.04-.515-.269-1.006-.568-1.42-.661-.914-1.712-1.553-2.794-1.832a3.637 3.637 0 0 0-.605-.104c.135-.93-.051-1.9-.79-2.509-.433-.356-.999-.557-1.56-.473-.543.08-1.009.397-1.394.777-.836.825-1.357 2.058-1.49 3.217-.058.525-.04 1.093.185 1.58.144.313.65.13.504-.187-.426-.925-.072-2.16.373-3.065.24-.49.572-.977.978-1.325a2.12 2.12 0 0 1 .607-.379 1.4 1.4 0 0 1 .613-.095c.515.048 1.03.413 1.267.905.231.479.247 1.025.16 1.546-.662.045-1.294.296-1.743.83-.42.499-.834 1.664.057 1.93.416.125.855-.229 1.135-.486.247-.225.438-.512.602-.802.159-.282.29-.6.383-.936.34.027.682.108.995.221.96.346 1.924 1.042 2.353 1.956.205.437.26.852.134 1.308a2.132 2.132 0 0 1-.122.296c-.017.034-.034.065-.051.095a2.622 2.622 0 0 0-1.055-.002c-.367.075-.768.212-1.039.485a.45.45 0 0 0 .036.668c.207.174.512.2.77.204.613.01 1.125-.278 1.501-.731.111.042.22.091.323.147.783.414 1.366 1.258 1.532 2.125.07.378.04.778-.02 1.156-.024.158-.064.33-.159.46-.1.14-.246.171-.413.173-.346.004-.294.541.051.537.822-.01 1.047-.792 1.094-1.476M191.372 96.264c-.01.024-.022.047-.035.072.02-.467.094-.931.205-1.385.054-.216.117-.432.205-.638-.004.012.033-.065.041-.079a.68.68 0 0 1 .047-.074l.014-.014c.024-.027.05-.052.076-.077.032-.034.067-.065.103-.097-.003.067-.01.134-.018.2l-.001.008c-.002.004-.003.012-.005.022l-.013.08a6.693 6.693 0 0 1-.127.55 11.69 11.69 0 0 1-.465 1.37l-.025.056c0 .002 0 .004-.002.006m-5.031 2.086c.02-.252.075-.5.146-.725.099-.31.261-.596.485-.845.05-.056.103-.106.161-.154.014.07.013.15.007.25a1.848 1.848 0 0 1-.089.426c-.106.341-.32.625-.563.894a3.889 3.889 0 0 1-.147.154m8.046-7.271c-.079.313-.118.632-.194.946l-.129.538a41.926 41.926 0 0 1-.415 1.604 18.568 18.568 0 0 1-.606 1.822c-.196.492-.426.99-.765 1.413.017-.021-.058.065-.077.084-.033.036-.069.07-.105.102-.09.08-.077.074-.198.134l-.032.014-.032.01a.972.972 0 0 1-.058.013h-.003a.6.6 0 0 1-.085 0c-.008 0-.028-.002-.037-.004l-.016-.003a.017.017 0 0 0-.008-.004c-.008-.004-.015-.01-.023-.013.007.003-.022-.02-.03-.026-.006-.004-.022-.022-.028-.028-.007-.011-.015-.02-.021-.032-.065-.096-.069-.118-.108-.248-.007-.028-.016-.055-.022-.084.118-.184.232-.37.345-.557.21-.351.344-.74.473-1.123.131-.39.89-2.454-.167-2.292-.217.033-.408.23-.55.372a1.483 1.483 0 0 0-.327.522c-.205.51-.296 1.068-.36 1.607-.037.306-.087.867-.016 1.375-.275.42-.57.83-.9 1.212-.473.546-1.052 1.1-1.773 1.35-.593.205-1.259.167-1.583-.39a1.437 1.437 0 0 1-.145-.357c.273-.206.509-.466.692-.687.425-.518.715-1.174.605-1.837-.04-.24-.232-.47-.513-.46-.364.013-.628.36-.82.608-.415.538-.59 1.25-.583 1.904 0 .07.004.14.01.209a1.106 1.106 0 0 1-.29.093c.051-.009-.104-.008-.079 0a.704.704 0 0 1-.062-.015c-.004 0-.006 0-.008-.002l-.016-.008c-.048-.023-.044-.021-.1-.084a.806.806 0 0 1-.104-.262 1.722 1.722 0 0 1-.019-.515c.033-.448.178-.894.312-1.322.278-.887.657-1.752 1.22-2.515.222-.302.484-.577.779-.82.275-.228-.13-.602-.403-.377-.734.607-1.247 1.41-1.633 2.242-.393.847-.725 1.772-.835 2.691-.064.539.02 1.375.73 1.502.215.039.423.008.62-.065.124.366.348.694.707.908.645.386 1.515.19 2.14-.127.723-.364 1.29-.961 1.784-1.562.169-.204.328-.417.48-.633.159.267.412.432.808.385.485-.057.818-.414 1.075-.774.338-.475.566-1.023.772-1.559.324-.84.567-1.708.787-2.576.083-.327.161-.655.239-.983.025-.107.051-.214.078-.32.071-.283.101-.572.171-.855.083-.333-.467-.474-.55-.141M217.116 100.623c.016.022.03.043.044.067a7.17 7.17 0 0 1-1.096-.87 4.198 4.198 0 0 1-.45-.497c.008.01-.04-.06-.048-.075a.68.68 0 0 1-.04-.078l-.005-.02a1.319 1.319 0 0 1-.03-.103c-.013-.045-.022-.091-.032-.138.056.036.111.076.164.116l.007.005.017.015.063.051c.043.036.084.074.126.112.099.088.193.18.286.273a11.69 11.69 0 0 1 .954 1.088c.013.016.024.033.036.05l.004.004m-.71 5.4a3.25 3.25 0 0 1-.553-.488 2.302 2.302 0 0 1-.49-.843 1.327 1.327 0 0 1-.053-.217.976.976 0 0 1 .22.12c.12.079.225.182.325.29.242.262.381.59.492.934.022.066.041.134.06.204m-2.274-10.603c.232.224.489.417.722.64l.402.381c.4.38.796.765 1.182 1.162.445.458.877.932 1.274 1.436.329.415.644.863.842 1.368-.01-.024.027.083.034.11.014.046.025.094.036.142.024.117.025.102.016.238l-.004.035-.007.032a.972.972 0 0 1-.017.057l-.001.003a.6.6 0 0 1-.042.073c-.006.007-.017.023-.024.03-.004.006-.008.008-.01.012a.017.017 0 0 0-.008.005l-.022.013c.006-.004-.028.01-.038.014a.363.363 0 0 1-.038.01c-.013 0-.025.003-.038.003-.115.007-.137 0-.269-.032-.028-.007-.056-.013-.083-.022a25.48 25.48 0 0 0-.31-.577c-.2-.357-.47-.668-.736-.971-.273-.31-1.68-1.998-2.07-1.002-.079.204-.004.469.048.662.06.215.157.375.29.545.339.433.776.79 1.21 1.115.247.185.707.509 1.183.702.227.447.434.907.6 1.384.237.684.427 1.461.282 2.211-.118.617-.484 1.174-1.128 1.176-.13 0-.258-.019-.382-.053a4.227 4.227 0 0 0-.25-.943c-.235-.627-.659-1.206-1.288-1.442-.228-.086-.523-.034-.655.214-.17.322-.002.724.117 1.013.258.63.787 1.136 1.358 1.458.06.035.123.066.186.095a1.106 1.106 0 0 1-.064.297c.017-.047-.06.087-.04.07a.704.704 0 0 1-.045.047l-.005.005-.015.01c-.044.03-.04.028-.123.044a.806.806 0 0 1-.279-.04 1.722 1.722 0 0 1-.455-.242c-.372-.252-.686-.6-.99-.931-.629-.684-1.188-1.445-1.568-2.313a4.643 4.643 0 0 1-.32-1.085c-.06-.352-.586-.19-.528.16.16.94.597 1.785 1.125 2.536.537.763 1.173 1.514 1.914 2.068.434.325 1.2.67 1.665.118.141-.166.218-.361.254-.568.378.075.774.045 1.14-.159.657-.365.921-1.217.959-1.916.046-.809-.187-1.599-.46-2.327a10.319 10.319 0 0 0-.308-.731c.31-.005.58-.142.737-.508.193-.448.05-.915-.133-1.318-.243-.53-.603-1.001-.964-1.448-.566-.7-1.196-1.345-1.838-1.97a62.46 62.46 0 0 0-.732-.698c-.079-.075-.159-.151-.237-.228-.21-.203-.445-.373-.655-.575-.247-.238-.644.167-.397.405M195.267 82.645c-.2-.428-.344-.988-.202-1.459.655.653.98 1.639 1.06 2.574-.386-.256-.669-.711-.858-1.115m-2.31 4.737a2.623 2.623 0 0 1-.054.375 2.859 2.859 0 0 1-.852-.477c-.554-.429-1.041-1.068-1.167-1.783-.054-.302.01-.62.165-.88.03-.052.042-.061.088-.107a.31.31 0 0 0 .055-.036c.012-.005.025-.008.037-.011-.014.004.032-.005.043-.005l.044.003c.025.005.05.012.075.02.055.017.042.014.108.05.052.029.101.063.149.098.094.068.203.178.294.274.204.217.38.46.54.712.141.22.271.453.376.695l.003.007.006.015a.65.65 0 0 1 .027.092c.022.095.04.193.052.289.028.222.028.447.011.669m-4.451 2.301c-.451-.172-.85-.463-.842-.962 0-.066 0-.05.022-.124-.002.006.044-.076.023-.049.056-.071.075-.077.18-.106.176-.05.442-.014.657.035a4.036 4.036 0 0 1 1.073.425 2.054 2.054 0 0 1 .204.132l.004.003c.3.25.432.577.476.931-.607.014-1.226-.066-1.797-.285m6.603-9.17c-.12-.094-.289-.012-.363.1-.44.661-.263 1.54.026 2.223.263.622.74 1.28 1.37 1.547-.028.994-.327 2.017-1.004 2.724a2.434 2.434 0 0 1-1.383.717c-.115.02-.227.027-.337.024.036-.17.06-.343.073-.517.028-.377.012-.833-.129-1.187-.1-.25-.226-.486-.365-.714-.309-.51-.696-1.046-1.206-1.358-.217-.133-.476-.202-.725-.132-.277.08-.464.338-.573.598-.304.723-.102 1.498.297 2.135.404.643 1.009 1.195 1.688 1.507.086.04.174.073.261.102a3.04 3.04 0 0 1-.917 1.215 2.576 2.576 0 0 1-.469.302c.017-.01-.08.03-.098.036-.058.02-.117.035-.176.05-.085.02-.168.034-.251.046a2.007 2.007 0 0 0-.382-1.008c-.342-.456-.884-.692-1.4-.87-.468-.16-1.107-.317-1.557-.026-.488.315-.423 1.062-.117 1.485.357.494.958.728 1.52.86.46.108.944.157 1.42.145-.02.306-.074.613-.116.894-.022.147.034.294.185.337.127.036.304-.043.326-.192.053-.353.114-.718.133-1.078.219-.026.439-.066.645-.147.363-.14.692-.404.97-.678a3.46 3.46 0 0 0 .808-1.268 2.74 2.74 0 0 0 1.07-.14c1.126-.371 1.846-1.422 2.155-2.56.477-1.768.089-4.01-1.379-5.171"/>
        <path fill="#595959" d="M201.92 82.448c-.07-.345-.03-.71.193-.98.073.35.02.697-.193.98m-3.953-.53c-.08.156-.15.256-.288.388l-.011.012a2.628 2.628 0 0 1 .61-1.582l-.002.031a3.067 3.067 0 0 1-.309 1.15m6.195-.476c-.425-.445-1.122-.813-1.765-.712a2.67 2.67 0 0 0-1.255-1.15c-.732-.312-1.682-.216-2.376.118-.176-.817-.671-1.658-1.649-1.434-.74.17-1.275.88-1.624 1.479-.34.58-.68 1.4-.432 2.074.12.325.639.144.519-.181a.86.86 0 0 1-.045-.294c-.001-.107.027-.27.055-.399a3.49 3.49 0 0 1 .363-.895c.273-.496.7-1.077 1.27-1.26a.714.714 0 0 1 .256-.023c.124.015.136.022.257.093-.041-.025.06.047.08.064.016.013.031.029.047.044a1.122 1.122 0 0 1 .197.294c.113.232.177.485.209.743a2.923 2.923 0 0 0-.97 1.344c-.16.456-.215.935-.18 1.417.011.134.16.267.304.242 1.154-.21 1.423-1.685 1.42-2.623-.002-.035-.001-.073-.003-.111a2.61 2.61 0 0 1 1.44-.337 1.987 1.987 0 0 1 1.617.992c-.454.318-.606.936-.55 1.463.026.22.091.439.186.64.073.154.269.233.42.129.709-.488.859-1.23.656-1.925.397 0 .863.29 1.111.523.457.427.65 1.063.713 1.652a3.883 3.883 0 0 1-.237 1.826c-.124.318.378.551.503.232.497-1.262.474-2.97-.537-4.025"/>
        <g transform="matrix(-1 0 0 1 205.361 87.417)">
            <mask id="L" fill="#fff">
                <use xlink:href="#K"/>
            </mask>
            <path fill="#595959" d="M4.23 3.751c-.067.22-.184.478-.306.64-.14.183-.277.29-.454.34a.539.539 0 0 1-.229.014c-.113-.024-.133-.042-.19-.106.042.048-.022-.065-.022-.048-.01-.033-.02-.094-.021-.082a.912.912 0 0 1 0-.138c.003-.056.006-.065.026-.146.119-.505.503-.997.922-1.304.147-.109.298-.19.453-.243A4.05 4.05 0 0 1 4.23 3.75m1.22-1.524a1.519 1.519 0 0 0-.534-.146c-.074-.77-.37-1.513-1.14-1.697C3.08.218 2.34.549 1.76.918c-.584.373-1.148.88-1.506 1.487-.02.038-.04.075-.058.113-.156.306.298.579.453.27.295-.587.84-1.056 1.376-1.406.48-.312 1.21-.685 1.785-.428.194.087.278.198.387.418a2.437 2.437 0 0 1 .191.755 2.02 2.02 0 0 0-.638.288A3.156 3.156 0 0 0 2.6 3.851c-.18.449-.196 1.052.271 1.322.465.27 1.04.038 1.371-.337.372-.423.55-1.005.634-1.557.03-.198.052-.421.058-.654.14.021.278.07.416.154.514.315.797.991.795 1.582 0 .267-.078.559-.234.748-.193.237-.473.338-.792.353-.336.016-.338.553 0 .537.584-.027 1.132-.297 1.386-.857.232-.513.203-1.118.018-1.64-.19-.536-.558-1.032-1.073-1.275" mask="url(#L)"/>
        </g>
        <g transform="translate(195.813 92.625)">
            <mask id="N" fill="#fff">
                <use xlink:href="#M"/>
            </mask>
            <path fill="#595959" d="M4.23 3.751c-.067.22-.184.478-.306.64-.14.183-.277.29-.454.34a.539.539 0 0 1-.229.014c-.113-.024-.133-.042-.19-.106.042.048-.022-.065-.022-.048-.01-.033-.02-.094-.021-.082a.912.912 0 0 1 0-.138c.003-.056.006-.065.026-.146.119-.505.503-.997.922-1.304.147-.109.298-.19.453-.243A4.05 4.05 0 0 1 4.23 3.75m1.22-1.524a1.519 1.519 0 0 0-.534-.146c-.074-.77-.37-1.513-1.14-1.697C3.08.218 2.34.549 1.76.918c-.584.373-1.148.88-1.506 1.487-.02.038-.04.075-.058.113-.156.306.298.579.453.27.295-.587.84-1.056 1.376-1.406.48-.312 1.21-.685 1.785-.428.194.087.278.198.387.418a2.437 2.437 0 0 1 .191.755 2.02 2.02 0 0 0-.638.288A3.156 3.156 0 0 0 2.6 3.851c-.18.449-.196 1.052.271 1.322.465.27 1.04.038 1.371-.337.372-.423.55-1.005.634-1.557.03-.198.052-.421.058-.654.14.021.278.07.416.154.514.315.797.991.795 1.582 0 .267-.078.559-.234.748-.193.237-.473.338-.792.353-.336.016-.338.553 0 .537.584-.027 1.132-.297 1.386-.857.232-.513.203-1.118.018-1.64-.19-.536-.558-1.032-1.073-1.275" mask="url(#N)"/>
        </g>
        <path fill="#595959" d="M183.43 89.414c.082-.263-.362-.374-.444-.112-.067.212-.018.42.085.615.054.104.213.13.315.076.114-.061.136-.185.082-.29a.364.364 0 0 1-.038-.289M183.374 86.63c-.101-.06-.26-.03-.315.083a.925.925 0 0 0-.093.422c0 .126.105.23.23.23.126 0 .231-.104.231-.23 0-.033 0-.067.002-.101.002-.001.008-.038.011-.049a.603.603 0 0 0 .008-.021l.009-.02c.055-.112.031-.247-.083-.314M205.929 89.546c-.284-.277-.65-.513-1.041-.753-.14-.087-.383-.081-.484-.018-.12.076-.06.186.08.272.295.181.6.368.815.578.1.1.273.173.462.15.155-.02.27-.13.168-.229M211.416 95.644c.102-.085.09-.25-.064-.33a2.81 2.81 0 0 0-1.296-.316c-.427-.007-.328.46.099.468.28.005.55.051.796.18.154.08.348.094.465-.002M214.432 97.488c-.125-.181-.22-.37-.379-.526-.087-.086-.242-.062-.317.026-.084.098-.061.23.026.315.123.121.202.296.302.442.165.239.532-.019.368-.257M216.746 100.676c-.093-.188-.185-.381-.314-.552-.17-.228-.542.008-.372.235.107.142.18.3.257.456a.247.247 0 0 0 .297.129c.112-.037.183-.162.132-.268"/>
        <g transform="rotate(100 65.878 143.515)">
            <mask id="P" fill="#fff">
                <use xlink:href="#O"/>
            </mask>
            <path fill="#595959" d="M1.892.468C1.428.403 1.017.232.583.1.428.052.247.15.207.26.16.392.267.495.421.543c.434.134.842.304 1.308.368.387.053.552-.39.163-.443" mask="url(#P)"/>
        </g>
        <path fill="#595959" d="M212.9 98.697a1.394 1.394 0 0 0-.2-.354c-.083-.117-.17-.232-.313-.275-.117-.035-.24.072-.26.182-.023.131.065.225.182.26a.173.173 0 0 1-.082-.036l.016.014.005.004.005.006c.036.043.07.09.1.135a1.747 1.747 0 0 1 .1.159c.01.02.018.04.025.06.038.117.178.174.29.134a.228.228 0 0 0 .133-.289M210.795 97.133l-.199-.285a.232.232 0 0 0-.32-.056.231.231 0 0 0-.056.32l.198.285a.233.233 0 0 0 .32.056.233.233 0 0 0 .057-.32M178.174 87.468c-.164.13-.34.238-.504.368-.203.161-.014.56.191.397.164-.13.34-.237.504-.368.202-.162.013-.56-.191-.397M180.082 85.73c-.107-.107-.218-.028-.286.125-.152.342-.294.692-.445 1.033-.069.153-.015.392.074.48.107.106.218.027.286-.125.15-.342.294-.692.445-1.033.069-.153.015-.393-.074-.48M183.186 82.358l-.246.245a.232.232 0 0 0 0 .325.233.233 0 0 0 .326 0l.245-.245a.233.233 0 0 0 0-.325.231.231 0 0 0-.325 0M179.137 92.892a1.337 1.337 0 0 1-.454-.114c-.232-.092-.331.351-.1.443.178.072.365.127.554.132.244.006.243-.454 0-.46M183.505 93.827a1.677 1.677 0 0 1-.397-.222c-.096-.068-.232-.02-.288.083a.247.247 0 0 0 .075.315c.157.113.32.202.499.268.108.04.229-.045.258-.16a.237.237 0 0 0-.147-.284M183.035 96.327c-.066.393-.07.795-.07 1.196 0 .414.46.414.46 0 0-.343-.003-.69.054-1.025.067-.403-.376-.574-.444-.17M183.572 100.68c-.189-.209-.327-.5-.411-.866-.039-.167-.123-.285-.23-.232-.089.044-.168.24-.13.409.124.532.306.957.582 1.263.206.226.392-.349.189-.574"/>
        <g transform="translate(185.396 101.306)">
            <mask id="R" fill="#fff">
                <use xlink:href="#Q"/>
            </mask>
            <path fill="#595959" d="M1.04.408C.811.408.586.406.363.354.076.287-.048.732.24.8c.264.06.53.07.798.07.297 0 .297-.461 0-.461" mask="url(#R)"/>
        </g>
        <path fill="#595959" d="M191.037 100.53c-.352.078-.686.183-1.047.245-.445.076-.256.52.189.444.36-.061.696-.167 1.048-.245.432-.097.246-.542-.19-.445M187.566 93.543a.232.232 0 0 0-.23.23v.308c0 .125.104.23.23.23s.23-.105.23-.23v-.308a.232.232 0 0 0-.23-.23M188.664 97.381a.227.227 0 0 1-.149-.063.39.39 0 0 1-.099-.192c-.07-.282-.48-.162-.408.12.084.33.328.577.656.587.273.009.272-.444 0-.452M189.193 94.454c-.132.176-.211.37-.217.582-.005.258.455.257.461 0a.656.656 0 0 1 .153-.38c.162-.218-.237-.418-.397-.202M192.207 90.972c-.106-.062-.255-.028-.315.082l-.01.016-.024.033c-.022.024-.047.045-.073.067a.264.264 0 0 0-.017.012l-.056.037c-.034.022-.07.042-.106.06-.11.056-.143.21-.082.314.066.113.203.14.315.083.172-.089.356-.216.45-.39a.234.234 0 0 0-.082-.314M195.58 88.345c-.208.069-.42.18-.578.366-.175.205.089.53.264.325.111-.13.268-.2.414-.247.232-.076.133-.52-.1-.444M199.066 87.56a1.223 1.223 0 0 0-.538.155c-.11.056-.141.212-.081.315.066.113.199.138.31.083a.642.642 0 0 1 .309-.092c.291-.006.292-.466 0-.46M201.796 87.74c-.176-.13-.37-.21-.582-.215-.258-.006-.257.454 0 .46a.656.656 0 0 1 .38.153c.218.162.418-.237.202-.397M182.609 91.125c-.152 0-.306.002-.453-.053-.233-.088-.332.357-.1.444.178.067.368.07.553.07.244 0 .244-.46 0-.46M185.969 90.167a.661.661 0 0 1-.38.153c-.258.006-.258.466 0 .46a1.02 1.02 0 0 0 .582-.215c.216-.16.015-.56-.202-.398M185.163 87.667a.232.232 0 0 0-.23-.23.232.232 0 0 0-.23.23c0 .171.02.328.093.485.053.113.214.141.314.082.116-.068.136-.201.083-.315-.037-.078-.03-.153-.03-.252M188.453 83.138c-.403.074-.78.202-1.151.33-.385.133-.047.53.338.397.322-.11.64-.22.99-.284.417-.076.24-.52-.177-.443M188.552 84.864c-.154.115-.293.253-.448.368a.247.247 0 0 0-.076.315c.056.102.194.153.288.082.154-.115.294-.253.449-.368a.248.248 0 0 0 .075-.315c-.056-.102-.193-.153-.288-.082M191.929 80.565a2.33 2.33 0 0 0-.436 1.35c-.006.392.454.39.46 0 .006-.357.115-.665.301-.92.206-.283-.12-.713-.325-.43M198.06 80.565c-.161-.216-.56-.016-.398.203.1.136.163.28.223.433.093.245.537.14.443-.106a2.154 2.154 0 0 0-.269-.53M194.36 82.218c-.115-.039-.245.043-.275.147-.035.118.041.22.156.26a.446.446 0 0 1 .261.303c.077.26.51.15.433-.114a.89.89 0 0 0-.575-.596M204.348 81.675c-.163-.067-.31-.178-.473-.245-.101-.042-.216.046-.243.16a.242.242 0 0 0 .138.284c.163.067.31.178.473.245.1.042.215-.046.243-.16a.24.24 0 0 0-.138-.284M205.93 83.186c-.054-.11-.213-.138-.314-.08-.115.066-.137.196-.083.308-.014-.03.016.045.018.053.009.03.016.061.023.092.017.074.035.148.059.22.038.116.157.191.282.157.118-.031.2-.16.161-.276-.052-.159-.072-.322-.146-.474M198.166 85.793c-.21.005-.383.108-.53.252a.232.232 0 0 0 0 .325c.089.09.235.087.325 0a.435.435 0 0 1 .137-.102.244.244 0 0 1 .027-.009c.008-.003.016-.003.023-.005l.018-.001a.233.233 0 0 0 .23-.23.232.232 0 0 0-.23-.23M197.298 98.814c-.21.005-.383.108-.53.252a.232.232 0 0 0 0 .325c.089.09.235.087.325 0a.435.435 0 0 1 .137-.102.244.244 0 0 1 .027-.01l.022-.004.019-.001a.233.233 0 0 0 .23-.23.232.232 0 0 0-.23-.23M195.562 93.605c-.21.006-.383.109-.53.252a.232.232 0 0 0 0 .326c.089.09.234.087.325 0a.435.435 0 0 1 .137-.103.244.244 0 0 1 .027-.008l.022-.006h.019a.233.233 0 0 0 .23-.23.232.232 0 0 0-.23-.23M205.978 95.342c-.209.005-.383.108-.53.251a.232.232 0 0 0 0 .326c.09.09.235.087.325 0a.435.435 0 0 1 .138-.103.244.244 0 0 1 .026-.008c.008-.003.016-.004.023-.005l.018-.001a.233.233 0 0 0 .231-.23.232.232 0 0 0-.23-.23M211.187 99.682c-.21.005-.383.108-.53.252a.232.232 0 0 0 0 .325c.089.09.234.087.325 0a.435.435 0 0 1 .137-.102.244.244 0 0 1 .027-.009c.008-.003.015-.003.022-.005l.019-.001a.233.233 0 0 0 .23-.23.232.232 0 0 0-.23-.23M209.45 106.626c-.209.005-.382.109-.53.252a.232.232 0 0 0 0 .326c.09.089.235.086.326 0a.435.435 0 0 1 .137-.103.244.244 0 0 1 .027-.009l.022-.005h.018a.233.233 0 0 0 .231-.23.232.232 0 0 0-.23-.23M214.659 102.286c-.21.005-.383.109-.53.252a.232.232 0 0 0 0 .325c.089.09.235.087.325 0a.435.435 0 0 1 .137-.102.244.244 0 0 1 .027-.009l.023-.005h.018a.233.233 0 0 0 .23-.231.232.232 0 0 0-.23-.23M212.923 91.87c-.21.005-.383.108-.53.251a.232.232 0 0 0 0 .326c.089.089.235.086.325 0a.435.435 0 0 1 .137-.103.244.244 0 0 1 .027-.009l.022-.005h.019a.233.233 0 0 0 .23-.23.232.232 0 0 0-.23-.23M211.187 94.474c-.21.005-.383.108-.53.251a.232.232 0 0 0 0 .326c.089.09.234.087.325 0a.435.435 0 0 1 .137-.103.244.244 0 0 1 .027-.008l.022-.006h.019a.233.233 0 0 0 .23-.23.232.232 0 0 0-.23-.23M217.263 94.474c-.21.005-.383.108-.53.251a.232.232 0 0 0 0 .326c.089.09.235.087.325 0a.435.435 0 0 1 .137-.103.244.244 0 0 1 .027-.008l.023-.006h.018a.233.233 0 0 0 .23-.23.232.232 0 0 0-.23-.23M202.506 97.946c-.21.005-.383.108-.53.251a.232.232 0 0 0 0 .326c.09.09.235.087.325 0a.435.435 0 0 1 .137-.102.244.244 0 0 1 .027-.01l.023-.004.018-.001a.233.233 0 0 0 .23-.23.232.232 0 0 0-.23-.23M200.817 85.943c-.094 0-.23.016-.3-.054-.2-.2-.498.124-.298.324.169.17.38.19.598.19.272 0 .272-.46 0-.46M188.394 91.098l-.035.035a.11.11 0 0 1-.01.009l-.002.001-.013.007-.004.001a.458.458 0 0 0-.018.003.232.232 0 0 0-.23.23c0 .123.104.233.23.23a.578.578 0 0 0 .408-.19.233.233 0 0 0 0-.326.233.233 0 0 0-.326 0M195.378 84.056a.233.233 0 0 0-.23.23v.184c0 .126.105.23.23.23.126 0 .23-.104.23-.23v-.184a.233.233 0 0 0-.23-.23M199.792 79.71c-.136-.24-.533-.029-.398.212.075.132.168.256.223.396a.237.237 0 0 0 .282.147c.116-.03.202-.15.162-.258-.069-.177-.177-.332-.27-.497M193.45 99.736c-.209.36-.489.702-.865.871-.167.074-.285.23-.232.433.044.166.242.322.409.246.548-.245.953-.66 1.263-1.194.225-.388-.35-.741-.574-.356M205.172 88.293c-.127-.034-.242.041-.283.156a.69.69 0 0 1-.104.183.645.645 0 0 1-.068.06s-.069.03-.036.019c-.118.041-.196.15-.16.275.03.11.164.198.282.156.273-.097.436-.315.53-.574.04-.115-.047-.244-.161-.275M183.995 84.943c-.072.172-.174.334-.246.506-.097.232.348.33.445.101.072-.172.172-.334.244-.506.098-.232-.347-.33-.443-.1M179.767 95.387a5.75 5.75 0 0 0-.448 2.114c-.004.444.44.443.445 0 .005-.622.17-1.251.387-1.767.156-.372-.228-.716-.384-.347"/>
        <g transform="translate(175.847 92.625)">
            <mask id="T" fill="#fff">
                <use xlink:href="#S"/>
            </mask>
            <path fill="#595959" d="M1.452.95c-.023-.018-.05-.033-.074-.049L1.353.885C1.349.881 1.32.859 1.313.851a.263.263 0 0 0-.369 0 .261.261 0 0 0 0 .37c.055.052.117.097.182.138a.26.26 0 0 0 .248.183c.137 0 .265-.119.26-.261a.413.413 0 0 0-.182-.33" mask="url(#T)"/>
        </g>
        <path fill="#714E46" d="M215.012 108.316c-3.761-2.93-5.017 6.276-4.184 8.368.423 1.256 3.766-2.51 4.184-2.929.837-1.255 1.674-4.184 0-5.44"/>
        <path fill="#664640" d="M214.179 110.825c-.423.837-.423 1.255-.837 2.092h.837c.418-.419 1.255-1.674 0-2.092M184.051 126.307v1.256c0 .418.419.418.419 0v-1.256c.418-.418-.419-.418-.419 0"/>
        <g transform="translate(63 324.289)">
            <mask id="V" fill="#fff">
                <use xlink:href="#U"/>
            </mask>
        </g>
        <path fill="#D6D6D6" d="M185.306 232.168c-.837 0-1.674.837-1.674 1.674v.418c0 .419-.418.837-.837 1.255-.418.837-.418 2.093.837 2.511.837.418 2.092.418 2.51-.837.419-1.255 1.256-2.092 1.256-3.347-.419-.837-1.255-1.674-2.092-1.674M186.562 218.78c-.837 0-1.673.837-1.673 1.673v2.511c0 .837.836 1.674 1.673 1.674.837 0 1.674-.837 1.674-1.674v-2.51c.418-.837-.418-1.674-1.674-1.674M184.051 202.043c-.837.418-1.255 1.673-.837 2.51.419.837.419 1.256.419 2.092 0 .837.837 1.674 1.674 1.674.836 0 1.673-.837 1.673-1.674 0-1.255 0-2.929-.837-4.184 0-.837-1.255-.837-2.092-.418M181.96 186.56c-.838.837-.838 1.674 0 2.51v.838c0 .836.836 1.673 1.673 1.673.837 0 1.674-.837 1.674-1.673 0-1.256 0-2.511-1.256-3.348-.418-.418-1.673-.418-2.092 0M178.194 167.312c-1.255-2.092-4.184 0-2.93 1.674.838 1.255 1.256 2.929 2.093 4.602.837 2.093 4.184 1.256 3.347-.836-.837-1.674-1.255-3.766-2.51-5.44M185.725 161.455s-.419 0 0 0c-.419-.837-.419-1.256-.419-1.256-.418-.837-1.255-1.255-2.51-1.255-.837 0-1.674.837-1.674 1.674s.418 1.255 1.255 1.673v.419c0 .418.419.837.419.837.418.837 1.673 1.255 2.51.837.419-.837.837-1.674.419-2.93 0 .419 0 0 0 0M189.49 171.915c-.418-1.255-.837-1.673-1.674-1.673s-1.673.836-1.673 1.673c0 .419 0 .837.418 1.255v.837c0 .837.837 1.674 1.674 1.674s1.673-.837 1.673-1.674c0-.418 0-1.255-.418-1.673.418 0 0 0 0-.419M191.163 183.214c-.837 0-1.673.836-1.673 1.673 0 .837.418 1.256.836 1.674v.418c0 .837.837 1.674 1.674 1.674s1.674-.837 1.674-1.674c0-.836-.419-1.255-.419-2.092 0-1.255-.836-1.673-2.092-1.673M192.839 195.347c-.837.837-.837 1.674 0 2.511v.837c0 .837.837 1.674 1.673 1.674.837 0 1.67-.837 1.67-1.674 0-1.255 0-2.51-1.251-3.348-.419-.418-1.674-.418-2.092 0M195.35 209.155c-.837 0-1.674.837-1.674 1.673v2.092c0 .837.837 1.674 1.674 1.674.832 0 1.67-.837 1.67-1.674v-2.092c.422-.836-.415-1.673-1.67-1.673M194.512 224.637c-.837 0-1.674.837-1.674 1.674v2.092c0 .837.837 1.674 1.674 1.674s1.67-.837 1.67-1.674v-2.092c0-.837-.833-1.674-1.67-1.674M194.512 237.609c-.837-.419-2.092-.419-2.51.837-.419 1.255-1.256 2.092-1.256 3.347 0 .837.837 1.674 1.674 1.674s1.67-.837 1.67-1.674c0-.418.422-.837.84-1.255.419-1.255.419-2.51-.418-2.93M202.88 243.466c-.836 0-1.673.837-1.673 1.674v.419c-.419.418-.841 1.255-.419 2.092.419.836 1.256 1.255 1.67 1.255.84 0 1.678-.837 2.092-1.674v-2.092c0-.837-.833-1.674-1.67-1.674M203.297 231.751c-.837 1.256-1.255 2.51-1.255 3.766 0 .837.837 1.674 1.678 1.674.833 0 1.67-.837 1.67-1.674v-1.674c.422-.836.422-1.673 0-2.51 0-.419-1.256-.419-2.093.418M205.81 212.922c-.837 0-1.673.837-1.673 1.674v2.092c0 .837.836 1.674 1.673 1.674.833 0 1.67-.837 1.67-1.674v-2.092c0-.837-.837-1.674-1.67-1.674M215.85 208.32c-.837 0-1.67.836-1.67 1.673 0 .837.415 2.092.415 2.929 0 .837.837 1.673 1.678 1.673.832 0 1.67-.836 1.67-1.673 0-.837-.42-2.092-.42-2.93 0-.836-.836-1.673-1.673-1.673M215.85 224.637c-.837 0-1.67.837-1.67 1.674v2.51c0 .837.833 1.674 1.67 1.674s1.674-.837 1.674-1.674v-2.51c0-.837-.837-1.674-1.674-1.674M212.92 240.958c0 1.255 0 2.51-.418 3.761-.837 2.092 2.933 3.348 3.347.841.423-1.678.423-2.933.423-4.602 0-2.515-3.352-2.515-3.352 0"/>
        <path fill="#000" d="M202.88 113.336c-1.255-.837-2.514-.837-3.765-.419-.841.419-1.674 1.256-1.256 3.766h1.256c0-1.255 0-2.51.836-2.929.837-.418 1.674-.418 2.507.419.84.418 1.26 1.673.84 2.51h1.252c0-1.255-.833-2.51-1.67-3.347M187.398 114.173c-.837-.837-2.51-.837-3.348-.418-.418.418-1.673 1.255-1.255 3.347h.837c0-1.255 0-2.092.837-2.51.418-.419 1.255-.419 2.092.418.837.419 1.255 1.255.837 2.092h.837c.418-.837 0-2.092-.837-2.929"/>
        <path fill="#FFF" d="M186.979 126.307c1.255 3.766 1.674 5.021 2.929 5.021 3.766 0 7.113-2.51 7.532-5.44-1.256.42-10.043.838-10.461.42"/>
        <path fill="#A44C57" d="M187.817 128.4c.418 1.255 1.255 2.928 1.673 2.928 1.256 0 3.348 0 5.022-.836 1.255-.837 2.51-2.511 2.51-2.511-1.674.418-7.95.418-9.205.418"/>
        <path fill="#B65F67" d="M192.42 129.237c-1.255 0-2.93 1.255-2.93 2.092 0 .419 2.511 0 2.511 0 1.256-.418 2.088-.837 3.348-1.674-.419-.418-2.092-.418-2.93-.418"/>
        <g transform="translate(63 324.289)">
            <mask id="X" fill="#fff">
                <use xlink:href="#W"/>
            </mask>
        </g>
        <g transform="translate(63 324.289)">
            <mask id="Z" fill="#fff">
                <use xlink:href="#Y"/>
            </mask>
        </g>
        <path fill="#D6D6D6" d="M225.056 249.743c-.837-.419-2.092-.419-2.51.837-.837 1.255-.837 2.929-.837 4.602 0 2.51 3.766 2.51 3.766 0v-1.673c0-.419 0-.837.418-1.256 0-1.255 0-2.092-.837-2.51M223.802 232.168v3.766c0 2.51 3.761 2.51 3.761 0v-3.766c-.414-2.51-3.761-2.51-3.761 0M225.473 214.595c-2.51 0-2.51 3.766 0 3.766 2.515 0 2.515-3.766 0-3.766M236.771 213.339c-.837-.419-2.092-.419-2.51.837-.419.837-.419 2.092.84 2.51h.415c-.414.837 0 1.674.837 2.51.84.42 2.092.42 2.51-.836.423-.837.423-2.092.423-2.929-.841-.837-1.678-1.674-2.515-2.092M234.68 234.26c-.838 0-1.67.837-1.67 1.674v3.347c0 .837.832 1.678 1.67 1.678.836 0 1.673-.84 1.673-1.678v-2.929c.418-1.255-.419-2.092-1.674-2.092M243.469 230.914v4.184c0 2.51 3.761 2.51 3.761 0v-4.184c-.414-2.093-3.761-2.093-3.761 0"/>
        <path fill="#085EBD" d="M218.78 141.79c-2.93 5.858-9.206 7.95-15.482 9.205-3.347.837-7.532.837-10.879-.418-1.674-.419-3.347-1.256-4.184-2.51-1.256-1.674-2.51-2.093-4.185 0 .837 2.51 3.766 5.857 6.695 7.112 5.858 2.93 17.156 1.256 23.432-1.673 2.092-1.256 4.184-2.93 5.44-4.603.837-.837 2.51-4.184 1.673-5.021-.418-.837-2.092-2.51-2.51-2.092"/>
        <path fill="#D6D6D6" d="M189.909 150.575c-2.51.419-2.092 3.766.418 3.766 2.51 0 2.092-3.766-.418-3.766M199.113 153.086c0-.418-.418-.837-.837-.837-.418-.837-1.255-.837-1.674-.837-.836 0-1.673.837-1.673 2.092 0 .837.422 1.256.837 1.256.418.418.836.837 1.677.837.833 0 1.67-.837 1.67-2.093v-.418zM206.644 153.505c0-.419-.419-.419-.419-.837v-.418c0-.837-.836-1.256-1.673-1.256-.833 0-1.67.837-1.67 1.674 0 1.255.414 2.092.837 2.929.414.837 1.67.837 2.506.418.841-.836.841-1.673.419-2.51M211.666 149.74h-.419c-.837 0-1.673.836-1.673 2.092 0 .836.836 1.673 2.092 1.673h.422c.833 0 1.67-.837 1.67-2.092 0-1.255-.837-1.673-2.092-1.673M219.197 145.974c-.419-.837-1.256-1.674-2.093-1.255-.832 0-1.67.837-1.67 2.092 0 .418 0 .837.415 1.255 0 .419.423.419.837.837.841.837 2.092.418 2.51-.418.837-.419.837-1.674 0-2.51"/>
        <path fill="#085EBD" d="M248.907 264.804c-16.318 7.114-38.08 1.674-54.395-2.092-2.092-.418-17.155-6.695-15.482-9.2-5.44 9.623 1.674 15.058 10.042 17.569 11.716 3.351 23.846 6.699 36.4 7.113 9.627 0 20.506-1.255 29.289-5.44 5.444-2.506 2.933-7.95 1.678-12.552-2.51 2.092-5.021 3.347-7.532 4.602"/>
        <path fill="#D6D6D6" d="M244.302 267.317c-.833 0-1.67.837-1.67 1.67v1.259c0 .419 0 .833-.422 1.256-.418.837 0 1.67 1.26 2.092.832.418 2.092 0 2.092-1.255.414-.837.414-2.093.414-2.93 0-1.255-.837-2.092-1.674-2.092M235.934 268.155c-.833-.422-2.093 0-2.093 1.255a5.793 5.793 0 0 0 0 3.762c0 .837 1.26 1.678 2.093 1.26.836 0 1.673-1.26 1.259-2.093V270.666c0-1.256-.423-2.51-1.26-2.51M224.218 269.41c-.418.836-.418 1.67-.418 2.51 0 .837 1.255 1.674 2.092 1.251.841 0 1.674-1.25 1.255-2.092v-.414c.419-.837 0-1.678-.414-2.092-.84 0-1.678 0-2.515.837M220.455 266.48c-.837-.419-2.092 0-2.092 1.255 0 .418-.423.837-.423 1.674v1.255c-.414.837 0 1.674 1.256 2.092.837.419 2.092 0 2.092-1.255 0-.419.422-.837.422-1.674v-1.255c0-.837-.422-1.674-1.255-2.092M209.995 266.48c-.837 0-1.674 1.255-1.26 2.092v.418c-.414.837 0 1.674.423 2.092.837.419 2.092.419 2.506-.418.423-.837.423-1.674.423-2.51-.423-1.256-1.26-1.674-2.092-1.674M200.788 267.317c-.422.837-.422 2.093-.422 2.93 0 .832 1.26 1.673 2.092 1.255.84 0 1.678-1.256 1.26-2.092v-.837c.418-.837 0-1.678-.838-2.092-.422-.419-1.673 0-2.092.836M195.35 263.133c-.837 0-1.674.837-1.674 1.67l-.418 3.351c0 .833.832 1.674 1.669 1.674.841 0 1.678-.841 1.678-1.674l.414-3.351c0-.415-.837-1.251-1.67-1.67"/>
        <g transform="translate(67.184 138.006)">
            <mask id="ab" fill="#fff">
                <use xlink:href="#aa"/>
            </mask>
            <path fill="#FF7900" d="M154.942 134.333c-.418 2.093-.837 4.603-1.255 6.695-1.255 15.482 21.758 51.885-8.369 45.609-22.176-4.607-25.942-38.918-52.303-21.759-8.368 5.44-41.006 36.822-49.374 21.336-5.858-11.298.837-22.59 3.766-33.051 5.02-17.997 2.929-29.29-13.39-37.24C21.883 109.646 2.635 104.62.125 88.725-1.55 79.101 13.933 75.754 20.628 74.08c11.715-2.933 28.452-5.025 38.076-13.394 8.787-7.109 12.553-20.08 16.319-30.54 6.695-18.411 23.432-46.027 38.495-16.738 15.9 30.964 10.46 55.233 48.123 57.739 25.52 1.678 51.462 10.46 18.407 31.382-10.88 7.532-21.34 18.415-25.106 31.804" mask="url(#ab)"/>
        </g>
        <path fill="#714E46" d="M130.492 270.247c0-.422-.419-.837-.837-.837-.419 0-.419-.422-.837-.422-4.184-1.255-13.39 4.607-13.39-2.925-1.673 1.67-2.929 3.762-3.766 5.854-1.673 3.77-2.092 7.954-.836 12.138 2.092 6.277 5.858 5.44 10.879 3.348 3.347-1.256 7.95-7.955 8.787-11.716V271.08c.418-.414 0-.414 0-.833"/>
        <path fill="#664640" d="M130.075 269.41c-.419 0-.419 0 0 0l-.419-.423c-3.765 3.352-9.623 5.025-16.737 5.444v2.092c7.114-.419 12.972-2.51 17.156-5.858-.419-.419-.419-.837 0-1.255M130.075 275.686c-4.184 3.347-9.206 5.44-17.156 6.276v-2.092c7.95-.837 14.227-3.347 17.993-7.113-.419 1.674-.419 1.674-.837 2.929M120.869 283.634c3.765-1.67 7.531-3.762 7.95-4.603-.419 1.678-2.092 3.347-3.348 4.184-1.255.841-2.51 1.255-3.347 1.678-.837.414-8.369 2.092-8.369 1.67v-2.093c-.418.423 6.277-.836 7.114-.836"/>
        <path fill="#714E46" d="M265.644 275.686c-1.255-3.766-2.929-7.532-7.113-8.791-7.954-2.092-14.645 2.933-22.176 4.607-3.348.837-6.7.837-10.461 1.67-3.766.84-7.532.84-11.298.84-1.678 0-5.02-1.255-6.276 0-1.678.837-1.255 3.766-.837 5.436 0 .422 0 .84.419.84.832 2.93 4.184 5.436 7.109 7.114 5.862 3.347 12.552 3.347 18.829 2.929 4.607-.423 9.21-1.255 13.394-2.515 2.929-.833 6.276-1.67 9.205-2.506 2.506-.419 4.598 0 7.113-1.256 4.603-2.092 3.348-5.02 2.092-8.368"/>
        <path fill="#664640" d="M207.902 274.432v1.67c3.762 2.514 9.202 3.77 15.478 3.346v-1.669c-6.69.414-11.716-.837-15.478-3.347M207.902 279.033c.419 1.255.419 1.255 1.256 2.092 4.184 2.51 8.782 3.347 15.9 2.929v-2.092c-7.532.836-13.394-.419-17.156-2.93M227.986 286.147c0 .418-6.699.836-7.113.418-4.184-.418-7.955-1.674-8.369-2.092.837 1.251 2.507 2.51 4.185 2.929 1.255.414 2.506.837 3.347.837.837 0 8.368 0 8.368-.423l-.418-1.67z"/>
        <path fill="#085EBD" d="M309.996 204.554c-5.021-17.993-23.85-35.985-38.914-46.446-7.95-5.44-16.737-12.97-26.36-7.531-3.344 2.092-6.695 5.02-9.206 8.368-2.929 4.185-4.599 9.206-5.021 13.808-1.67 19.248 26.36 28.872 35.989 43.098 9.62 14.227-2.515 30.545-10.884 42.261-.836.837-9.623 8.783-9.623 8.783 2.51 1.26 5.862 8.368 7.113 10.883-.419-.422-.837-1.255-.837-1.674 1.678 3.766 2.929 7.528 2.092 11.712 5.862.841 13.808-2.506 18.415-4.184 17.57-7.946 34.307-28.867 38.073-46.441 2.51-10.88 2.092-22.177-.837-32.637"/>
        <path fill="#085EBD" d="M257.693 286.147c-1.256-6.277-3.348-16.737-7.532-22.177-.837-.837-5.44 2.925-6.277 3.766-1.255 2.092 0 4.603.419 6.695.837 3.766 1.26 7.95 3.352 11.293 2.924 4.607 6.69 2.933 10.038.423.422 0 .422 0 0 0"/>
        <path fill="#D6D6D6" d="M266.899 271.502c-.419 0-.837.418-1.256.418-.836.419-1.255.837-1.673 1.251-.837.841-.837 2.092 0 2.933.837.837 2.092.419 2.929-.418.418 0 .837-.423.837-.423 1.255-.414 1.673-1.67 1.255-2.506.418-.837-.837-1.678-2.092-1.255M281.127 263.133c-.837-.837-2.092-.837-2.93.419-.836.836-1.254 1.25-2.091 1.673-1.256.419-1.678 1.67-1.256 2.51.419 1.252 1.67 1.675 2.511 1.252 1.674-.414 2.929-1.67 4.184-2.925.415-.837.415-2.51-.418-2.929M289.074 249.743c-1.255-.419-2.092.418-2.51 1.673v.419l-.419.418c-.832.837-.832 2.092 0 2.93.837.836 2.093.836 2.93-.42.422-.418.836-.836.836-1.254.419-.419.419-.837.837-1.674.419-.837-.837-2.092-1.674-2.092M251 163.128l-2.515-1.674c-.833-.418-2.092-.418-2.925.419-.419.836-.419 2.092.418 2.929l2.507 1.673c.84.419 2.092.419 2.933-.418.837-1.255.837-2.51-.419-2.93M263.131 170.242l-2.092-1.255c-.833-.419-2.092-.419-2.925.418-.422.837-.422 2.092.415 2.93l2.092 1.254c.84.419 2.092.419 2.933-.418.837-1.255.414-2.51-.423-2.93M273.175 179.865l-.418-.419h-.419c-.418-.836-1.255-1.673-2.51-1.255-1.256.419-1.674 1.255-1.674 2.51.418 1.256 1.255 2.093 2.51 2.93.837.418 2.093.418 2.93-.419.836-1.673.418-2.929-.419-3.347M286.145 193.674l-.833-.418c-.837-.419-2.092-.419-2.929.418-.423.837-.423 2.092.414 2.93l.837.418c.841.418 2.092.418 2.933-.419.837-1.255.414-2.51-.422-2.929M294.934 210.411c-.837-.418-2.092-.418-2.929.419-.418.836-.418 2.092.414 2.929h.423c.418.836 1.255 1.673 2.51 1.673 1.252-.418 1.674-1.255 1.674-2.51-.422-1.256-.837-2.092-2.092-2.51M299.118 230.076c0-.418 0-.418 0 0v-1.674c0-1.255-1.255-1.673-2.514-1.673-1.251.418-1.67 1.255-1.67 2.51v1.674c0 1.255 1.255 1.673 2.51 1.673 1.252-.418 2.093-1.673 1.674-2.51M297.864 239.282c-.423-1.255-1.26-1.674-2.515-1.674-1.25.419-1.67 1.256-1.67 2.511-.422.837 0 2.092.833 2.51.837.419 2.092.419 2.93-.418.422-.418.422-.837.422-1.674.418-.418 0-.836 0-1.255M279.035 275.686c-.423-.837-1.674-1.255-2.515-.837-.414.414-1.251.837-1.67 1.255l-.422.419c-.837.418-1.67 1.255-1.251 2.51.414.837 1.25 1.674 2.506 1.674.837 0 1.26-.418 1.678-.837l.414-.422.423-.415s.414-.418.414 0c.423-1.255.841-2.092.423-3.347M293.68 261.458c-.423-.837-1.674-1.255-2.515-.837-1.251.837-2.092 2.092-2.93 3.352-.413.832-.413 2.092.424 2.924.836.419 2.092.419 2.929-.418.418-.837.832-1.255 1.669-1.674.423-1.255.841-2.51.423-3.347M303.303 243.05c-1.256 0-2.093.832-2.093 2.092 0 .832-.422 1.255-1.255 2.092-.418.833-.418 2.092.419 2.925.836.422 2.092.422 2.929-.415.836-1.255 1.67-2.51 1.67-4.184.422-1.255-.415-2.51-1.67-2.51M304.974 201.205c-.833-.418-2.092-.418-2.925.418-.423.419-.423 1.256-.837 1.674 0 .837.414 1.674 1.251 2.092.841.837 2.092.419 2.933-.418.415-.419.415-.837.415-1.674.422-.418 0-1.674-.837-2.092M294.934 188.233a9.879 9.879 0 0 0-3.347-3.765c-2.092-1.256-4.185 2.092-2.092 3.347.832.837 1.673 1.255 2.092 2.51.418.837 1.673 1.256 2.51.837.837-.836 1.256-2.092.837-2.929M281.127 174.426c-1.26-1.674-2.515-3.766-4.184-5.02-2.093-1.675-4.185 2.091-2.093 3.346 1.256.837 2.093 2.093 2.511 3.348 1.674 2.51 5.021.418 3.766-1.674M265.223 161.455c-.832-.419-2.092-.419-2.924.418-.423.837-.423 2.092.414 2.929h.841c.414.837 1.25 1.674 2.506 1.255.837-.418 1.678-1.255 1.678-2.51-.423-.837-1.255-1.674-2.515-2.092"/>
        <path fill="#664640" d="M230.495 269.41c-1.67-.837-2.93-1.674-4.603-2.515-.418-.414-1.25-.833-1.674-1.251-.836 1.673-1.255 3.343-1.669 4.602.833 1.256 2.092 2.093 2.925 2.925-.833.423-1.256.423-2.092.841 6.694 1.251 13.39-.84 19.666-1.255-3.762-.418-8.369-1.255-12.553-3.347"/>
        <path fill="#D6D6D6" d="M261.46 258.949c-.837-.837-2.092-.423-2.929.418l-.418.419c-.419 0-.419.418-.837.418h-.423c-1.25.414-1.67 1.674-1.25 2.507.418.84 1.673 1.677 2.51 1.26 1.255-.42 2.51-1.26 3.347-2.093.837-.837.837-2.092 0-2.929M271.92 247.234c-.836-.423-2.514 0-2.928.833-.419.836-1.256 1.677-1.678 2.514-.833.837-.833 2.092 0 2.93.84.832 2.092.832 2.933-.423.837-1.251 2.092-2.092 2.51-3.762.419-.423 0-1.674-.836-2.092M276.105 232.168c-1.255 0-2.092 1.255-2.092 2.092v.837c-.837.837-.837 2.092 0 2.929.837.837 2.092.837 2.929-.418.832-.837 1.255-2.511 1.255-3.766 0-1.256-.837-2.092-2.092-1.674M284.473 240.12c0-.423.419-.423.419-.837.837-.837.837-2.092 0-2.929-.841-.837-2.092-.837-2.933.418-.833.837-1.67 2.093-1.67 3.348s1.255 2.092 2.092 2.092c1.256 0 2.092-.837 2.092-2.092M279.451 248.905c-.836-.837-2.092-.837-2.928.423-.837 1.25-2.093 2.092-2.511 3.761-.418 1.256.418 2.092 1.674 2.515 1.255.414 2.092-.423 2.51-1.678v-.414c.419-.423.837-.841 1.255-1.26 1.256-1.255.837-2.51 0-3.347M267.315 261.458c-1.255.422-2.51 1.255-3.761 2.515-.841.832-.841 2.092 0 2.924.837.837 2.092.837 2.929-.418l.414-.414.418-.423.423-.418h.414c1.26-.419 1.678-1.674 1.26-2.51.418-1.256-.837-1.675-2.097-1.256M279.035 219.199c-.423-1.256-1.26-1.674-2.515-1.674-1.251.418-1.67 1.255-1.67 2.51l.419 1.674c.414 1.255 1.251 1.674 2.506 1.674 1.26-.419 1.678-1.255 1.678-2.51l-.418-1.674zM290.75 225.475c-.423-.418-.837-.837-.837-1.255-.418-1.256-1.255-1.674-2.51-1.674-1.26.418-1.674 1.255-1.674 2.51 0 .837.414 1.256.837 1.674l.418.419v.418c.418.837 1.674 1.255 2.51.837 1.256-.837 1.674-2.092 1.256-2.93M242.63 183.632l-3.347-2.092c-2.092-1.255-4.184 2.092-2.092 3.348l3.348 2.092c2.092 1.255 4.602-2.092 2.092-3.348M255.184 192.836l-3.766-2.51c-2.092-1.255-4.184 2.092-2.092 3.347l3.766 2.51c2.092 1.675 4.184-1.673 2.092-3.347M265.223 200.786l-2.51-1.674c-.837-.418-2.092-.418-2.93.419-.413.837-.413 2.092.423 2.929l2.507 1.674c.84.418 2.092.418 2.933-.419.837-1.255.414-2.51-.423-2.929M273.175 208.32l-1.255-.838c-.837-.418-2.092-.418-2.93.419-.418.836-.418 2.092.42 2.929l1.255.836c.836.419 2.092.419 2.929-.418.836-.837.418-2.092-.419-2.929M244.302 172.753c-.418-.419-.833-.419-1.255-.837-.414-.418-.837-.837-.837-.837-.418-.837-1.67-1.255-2.51-.837-.837.419-1.674 1.674-.837 2.51.836 1.675 2.514 2.511 3.77 3.348 1.67 1.674 3.761-1.673 1.67-3.347M256.855 179.03c-1.255-.838-2.51-1.674-4.184-1.256-1.256 0-1.67 1.255-1.67 2.51.414.837 1.251 1.674 2.092 1.674h.414c.423 0 .837.419 1.256.837.837.419 2.092.419 2.929-.418 0-1.674 0-2.93-.837-3.348M266.899 187.398l-2.092-1.255c-.837-.419-2.093-.419-2.93.418-.418.837-.418 2.092.42 2.929l2.091 1.255c.837.419 2.092.419 2.93-.418.836-.837.418-2.092-.42-2.93M276.522 196.602l-.837-.419c-.833-.418-2.092-.418-2.925.419-.423.837-.423 2.092.414 2.929l.837.418c.841.419 2.092.419 2.933-.418.833-1.255.833-2.51-.422-2.93M286.145 208.32c-.419-.42-.833-.838-1.256-1.256-.836-.419-2.092-.419-2.929.418-.418.837-.418 2.092.423 2.51.414 1.256 1.251 1.674 2.506 1.674 1.256-.418 1.678-1.255 1.678-2.51-.422 0-.422-.419-.422-.837"/>
        <path fill="#FFF" d="M81.118 217.942c-1.673 0-3.347.418-4.184 2.092-.418.837-.418 2.092.837 2.51.837.42 2.092.42 2.51-.836h.837c.837 0 1.674-.837 1.674-1.674 0-1.255-.837-2.092-1.674-2.092M94.09 214.177h-2.51c-.838 0-1.674.836-1.674 1.673 0 .837.836 1.674 1.673 1.674h2.51c.838 0 1.675-.837 1.675-1.674s-.837-1.673-1.674-1.673M111.246 210.83c-.419-.837-1.674-1.255-2.51-.837-.42 0-.838.419-1.256.419-.837 0-1.255.418-1.674.836-.837.419-1.255 1.674-.837 2.511.419.837 1.674 1.255 2.51.837.42 0 .838-.419 1.256-.419.837 0 1.255-.418 1.674-.836.837-.419 1.255-1.674.837-2.511M123.798 206.646c-.836-.837-2.092-.837-2.51 0h-.419c-.836 0-1.673.837-1.673 1.673 0 .837.837 1.674 1.673 1.674 1.256 0 2.093-.418 2.93-1.255.836 0 .836-1.255 0-2.092M136.351 197.02c-.418 0-.837.42-1.255.42-.837 0-1.674.836-1.674 1.673 0 .837.837 1.674 1.674 1.674.418 0 1.255 0 1.674-.419.837-.418 1.255-1.255 1.255-2.092.418-.418-.418-1.255-1.674-1.255M144.3 182.376c-.836 0-1.673.837-1.673 1.674 0 0 0 .418-.418.418-.837.837-.837 2.092 0 2.51.837.837 2.092.837 2.51 0 .837-.836 1.674-2.092 1.674-3.347 0-.418-.837-1.255-2.092-1.255M151.832 166.895c-.837-.418-2.092-.418-2.51.837-.42 1.255-1.256 2.092-1.256 3.766 0 .837.837 1.674 1.674 1.674 1.255 0 1.673-.837 1.673-1.674v-.418c.419-.419.419-.837.837-1.256.837-1.673.419-2.51-.418-2.929M155.597 150.158c-.837 0-1.674.837-1.674 1.674l-.418.418c-.837.837-.837 2.093 0 2.511.837.837 2.092.837 2.51 0 .837-.837 1.674-2.092 1.674-3.347 0-.419-.837-1.256-2.092-1.256M166.058 142.207h-1.674c-.837.418-1.674 1.255-1.674 2.092 0 .837.837 1.673 1.674 1.673.418 0 .837 0 1.255-.418h.419c.837 0 1.673-.837 1.673-1.674s-.836-1.673-1.673-1.673M176.518 151.413c-.418-1.255-1.673-2.092-2.092-3.348-.418-.836-1.673-1.255-2.51-.836-.837.418-1.256 1.673-.837 2.51.418 1.255 1.674 2.092 2.092 3.347.418.837 1.674 1.256 2.51.837 1.256-.418 1.674-1.673.837-2.51M181.96 165.639v-.837c0-.837-.838-1.674-1.675-1.674-.836 0-2.092.837-1.673 1.674 0 .418 0 1.255.418 1.674v.837c0 .836.837 1.673 1.674 1.673s2.092-.837 1.674-1.673c0-.419 0-1.256-.419-1.674M185.725 180.284c-.419-.837-.419-1.256-.419-2.092 0-.837-.837-1.674-1.674-1.674-.836 0-1.673.837-1.673 1.674 0 1.673 0 2.929.837 4.184.418.837 1.673 1.255 2.51.837.837-.837.837-2.092.419-2.93M192.42 193.674l-1.674-3.347c-.418-.837-1.674-1.256-2.51-.837-.837.418-1.256 1.674-.837 2.51l1.673 3.348c.419.837 1.674 1.255 2.511.837.837-.419 1.255-1.674.837-2.51M200.788 203.716c-.422 0-.422-.418-.837-.418 0 0-.418 0-.418-.419-.418 0-.418-.418-.837-.837-.837-.837-2.092-.837-2.515 0-.832.837-.832 2.092 0 2.51.842.838 1.678 1.256 2.515 2.093.837.418 2.092.418 2.51-.837.838-.418.42-1.674-.418-2.092M215.85 210.411c-.837 0-1.255-.418-2.092-.418h-.837s-.833-.419-.418 0c-.837-.419-2.093-.419-2.507.837-.422.836-.422 2.092.833 2.51 1.26.837 2.929.837 4.184 1.255 2.092.419 3.352-3.347.837-4.184M229.657 212.503h-2.925c-.836 0-1.677.837-1.677 1.674s.84 1.674 1.677 1.674h3.348c.837 0 1.67-.837 1.67-1.674s-.833-1.674-2.093-1.674M247.232 215.431h-3.348c-.836 0-1.673.837-1.673 1.674s.837 1.673 1.673 1.673h3.348c.837 0 1.674-.836 1.674-1.673 0-.837-.837-1.674-1.674-1.674M256.855 219.615c-.833-.837-2.092-.837-2.51 0-.838.837-.838 1.674 0 2.51 0 0-.415.42 0 .42-.415.836-.415 2.091.84 2.51.837.418 2.092.418 2.507-.837.422-1.255.422-3.347-.837-4.603M74.842 224.637c-.837 0-1.674.837-1.674 1.674v2.092c0 .837.837 1.674 1.674 1.674s1.674-.837 1.674-1.674v-2.092c0-.837-.837-1.674-1.674-1.674M81.956 235.936c0-.419-.418-.419-.418-.837-.837-.837-2.093-.837-2.511 0-.837.837-.837 2.092 0 2.51 0 .419.418.419.418.837.419.837.837.837 1.674.837s1.674-.837 1.674-1.674-.419-1.255-.837-1.673M97.436 244.304c-1.255-1.255-2.929-2.092-4.602-2.092-.837 0-1.674.837-1.674 1.67 0 1.259.837 1.677 1.674 1.677h.418c.419.415.837.415 1.255.837.837.837 2.093.837 2.511 0 1.255 0 1.255-1.255.418-2.092"/>
        <g transform="translate(63 324.289)">
            <mask id="ad" fill="#fff">
                <use xlink:href="#ac"/>
            </mask>
        </g>
        <path fill="#FFF" d="M110.408 250.16c-.837-.833-2.092-1.256-3.347-1.256-.837 0-1.674.837-1.674 1.678 0 .837.837 1.67 1.674 1.67h1.255c.837.422 1.674.422 2.51 0 .419 0 .419-1.256-.418-2.092M118.777 259.366c-.837-1.256-1.674-2.51-3.348-2.51-.837 0-1.674.84-1.674 1.673 0 .837.419 1.674 1.256 1.674l.418.418c.419.837 1.674 1.26 2.51.837.838-.419 1.256-1.255.838-2.092M116.684 292.423c-.418 1.67-.418 3.347-.418 4.603 0 2.51 3.766 2.51 3.766 0 0-1.256 0-2.51.418-3.766.837-2.092-2.929-3.352-3.766-.837M115.43 304.555c-1.255 0-1.674.837-1.674 1.674 0 .84-.418 2.092-.418 3.347 0 .837.837 1.678 1.674 1.678 1.255 0 1.673-.841 1.673-1.678s.419-2.092.419-3.347c.418-.837-.419-1.674-1.674-1.674M119.614 320.875c-.418 0-.418-.418-.837-.418 0 0-.418 0-.418-.419-.418 0-.418-.418-.837-.837-.837-.836-2.092-.836-2.51 0-.837.837-.837 2.093 0 2.511.836.837 1.673 1.255 2.51 2.092.837.419 2.092.419 2.51-.837.837-.418.42-1.673-.418-2.092M133.421 315.015c-.836-.832-2.092-.832-2.51 0-.419.423-.837.837-1.255 1.26h-.419c-.418 0-.418.414-.837.414-.837.419-1.255 1.678-.837 2.51.419.838 1.674 1.26 2.511.838 1.255-.415 2.092-1.67 2.929-2.507 1.255-.422 1.255-1.678.418-2.515M146.812 302.463c-1.674 1.26-3.348 2.514-5.021 3.766-1.674 1.677.837 4.184 2.51 2.51l5.021-3.762c2.093-1.677-.836-4.184-2.51-2.514M158.527 294.932c-.837-.837-2.092-.837-2.51 0l-.419.422c-.418.415-.837.833-1.255 1.252-.837.84-.837 2.092 0 2.51.837.837 2.092.837 2.51 0l.419-.418c.418-.419.837-.837 1.255-1.251.837-.841.837-2.093 0-2.515M170.242 289.076h-2.092c-.837 0-1.674.833-1.674 1.67 0 .841.837 1.678 1.674 1.678h2.092c.837 0 1.674-.837 1.674-1.678.418-.837-.837-1.67-1.674-1.67M181.96 291.169c-1.256-1.26-2.093-1.674-3.767-1.674-.836 0-1.673.837-1.673 1.674 0 .832.837 1.67 1.673 1.67l.419.422c.837.832 2.092.832 2.51 0 1.256-.423 1.256-1.674.837-2.092M191.582 301.208c-.837-1.67-2.092-2.51-3.766-2.51-.837 0-1.673.84-1.673 1.673 0 .837.836 1.674 1.673 1.674l.419.419c.418.836 1.673 1.259 2.51.836 1.256 0 1.674-1.255.837-2.092M200.788 308.74c-.422-.834-.837-1.256-1.673-1.256-.841 0-2.092.837-1.674 1.678 0 1.67 1.255 2.929 2.925 2.929.84 0 1.678-.837 1.678-1.678 0-.414-.419-1.251-1.256-1.674M209.995 314.599h-1.674c-.841 0-1.678.837-1.678 1.673 0 .837.837 1.674 1.678 1.674h1.674c.832 0 1.67-.837 1.67-1.674.422-.836-.838-1.673-1.67-1.673M219.617 312.923c-.836 0-1.673.837-1.673 1.674-.419.418-.419.841-.419 1.255v.837c0 .419.419.841.837 1.255.419 0 .419.423.833.423.422 0 .84 0 .84-.423.42 0 .42-.414.838-.836.414-.833.414-1.67.414-2.093.423-1.255-.414-2.092-1.67-2.092M219.197 300.37c-.833-.832-2.093-.832-2.511 0-.837.837-.837 2.093 0 2.515v.415c0 .836.841 1.677 1.678 1.677.833 0 1.67-.84 1.67-1.677.422-1.256 0-2.093-.837-2.93M220.455 263.55c0-.837-.837-1.67-1.674-1.67-.84 0-1.677.415-1.677 1.252 0 0 0 .418-.415.418-.418.423-.418.837-.418 1.255 0 .837.833 1.674 1.67 1.674.84 0 1.677-.414 1.677-1.255 0 0 0-.419.415-.419.422-.418.422-.832.422-1.255M230.495 251.835c-.837-.837-2.092-.837-2.51 0l-.42.418c-.832 0-1.673.837-1.673 1.674s.841 2.092 1.674 1.674c1.26 0 2.092-.837 2.929-1.674.837 0 .837-1.255 0-2.092M238.026 238.444c-.833.837-1.67 1.674-2.925 2.515-.837.414-1.26 1.67-.837 2.507.414.836 1.67 1.255 2.506.836 1.256-.836 2.515-2.092 3.77-2.929 2.093-2.092-.422-4.602-2.514-2.929M250.162 232.168c-.837-.837-2.092-.837-2.51 0l-.42.418c-.836.837-.836 2.093 0 2.511.838.837 2.093.837 2.511 0l.419-.418c.418-.837.418-2.093 0-2.51"/>
    </g>
</svg>
