<svg xmlns="http://www.w3.org/2000/svg" xmlns:xlink="http://www.w3.org/1999/xlink" width="120" height="78" viewBox="0 0 120 78">
    <defs>
        <path id="a" d="M.148.23h10.627v7.311H.148z"/>
        <path id="c" d="M.05.104h2.012v1.734H.051z"/>
        <path id="e" d="M.05.104h2.012v1.734H.051z"/>
        <path id="g" d="M.06.027h.594v.26H.06z"/>
        <path id="i" d="M.024.053H.39v.213H.024z"/>
        <path id="k" d="M.268.222h.253v.266H.268z"/>
        <path id="m" d="M1.294.64h.646v.642h-.646z"/>
        <path id="o" d="M1.294.64h.646v.642h-.646z"/>
        <path id="q" d="M1.294.64h.646v.642h-.646z"/>
        <path id="s" d="M0 .185h60.483v58.158H0z"/>
        <path id="u" d="M1.294.64h.646v.642h-.646z"/>
    </defs>
    <g fill="none" fill-rule="evenodd">
        <path fill="#B5E8F7" d="M9.413 28.512C11.59 26.867 51.665-1.61 56.303 7.07c4.637 8.679-49.466 31.398-.258 14.55s61.832-18.89 54.103-9.19c-7.729 9.7-14.427 20.677-5.668 20.677 8.76 0 20.354 9.19 13.14 13.785-7.214 4.595-17.777 8.68-12.109 11.998 5.668 3.318.258 6.637-2.576 8.168-2.834 1.532-59.257 10.722-73.169 9.445-13.912-1.276-34.78.256-21.383-6.892 13.396-7.148 24.99-17.869 15.458-14.806C14.308 57.87.654 53.53 10.444 46.381c9.79-7.147-26.021 1.022-1.03-17.869"/>
        <path fill="#D6D6D6" d="M97.093 44.245c-.39 0-.647.256-.647.64v.642c-.13.256-.13.64.13.897.258.128.646.128.905-.128.258-.385.258-.77.258-1.282 0-.384-.389-.769-.646-.769"/>
        <path fill="#FFF" d="M78.594 22.584c-1.551-.769-2.717-1.153-4.528-1.153-2.07-.128-4.269-.897-6.337-.385-.778.128-1.554.513-2.329.641-.905.128-1.94.128-2.976.256-2.457.129-8.278.257-8.924 3.461-.647 3.973 2.197 8.075 2.716 11.92.517 3.973.257 7.818.257 11.792 0 3.845-.257 7.049 3.105 9.74 2.717 2.18 6.47 3.205 9.831 3.077 3.234-.128 6.987-.128 9.574-2.564 1.81-1.794 1.55-2.948 1.294-5.255-.26-2.691.388-5.255.388-7.946.128-3.974.646-7.947.905-11.92.128-1.41.258-2.948.258-4.486.13-2.948-.389-5.768-3.234-7.178"/>
        <path fill="#BDBDBD" d="M79.243 36.042l2 11.856v-2.115-4.614c0-1.91.183-3.084.552-3.525l-2.552-1.602z"/>
        <path fill="#C8C6C6" d="M73.226 31.267c1.206 3.9 2.672 6.648 4.398 8.242 1.726 1.594 2.766 3.985 3.12 7.172l.695-2.692-.247-5.593-7.966-7.129z"/>
        <path fill="#714E46" d="M68.375 18.483c-.13-1.025-.13-1.538-.259-2.435-.258-2.179-.388-4.358-.258-6.665-.518 1.026-1.423 2.948-1.811 4.102-.39 1.41-1.423 2.948-2.846 3.076-1.552.128-3.493-1.795-3.88.64-.26 1.282-.389 4.743.128 5.896.777 1.795 3.105 1.538 4.528 1.41 1.294-.128 2.587-.512 3.62-1.153.647-.385 1.294-.897 1.554-1.538.387-.77.259-1.154-.26-1.667-.257-.384-.387-1.025-.516-1.666"/>
        <path fill="#714E46" d="M63.717 6.563c-1.293-.256-2.456-.128-3.75.256-.777.257-1.81.129-2.2.898-.517 1.025-.647 2.563-.517 3.716.13 1.539.388 3.846 1.293 5.127.388.513.778 1.026 1.164 1.538.39.641.907 1.282 1.683 1.538 2.198.513 4.01-1.922 5.173-3.46.647-.897.388-1.795.52-2.948.127-1.282.515-2.564 0-3.717-.648-1.538-1.941-2.692-3.366-2.948"/>
        <path fill="#000" d="M63.589 10.28c-.388.128-.776 0-1.165 0 .13.513.389.897.906.769.13 0 .905-.385 1.423-.513.13 0 .259-.128.259 0-.26-.513-1.035-.256-1.423-.256M58.673 10.665c-.388 0-.776-.128-.776.384 0-.128 1.035.257 1.035.257h.388c.259-.129.388-.385.518-.641h-1.165z"/>
        <path fill="#664640" d="M61.001 12.202c-.258.385-.129 1.026-.388 1.41 0 .128-.129.257-.388.385-.129.128-.388.256-.388.512-.388 1.026 1.164.77 1.553.257.388-.385.646-2.564-.389-2.564M63.589 15.663c0-.256-.26-.128-.13 0l.13.513c0 .256.258.128.129 0l-.13-.513z"/>
        <g transform="translate(56.176 .688)">
            <mask id="b" fill="#fff">
                <use xlink:href="#a"/>
            </mask>
            <path fill="#000" d="M9.87.62c.13.257.258.641.13.897C10 1.39 8.965.748 8.834.62 7.93.236 6.766.108 5.86.364 4.955.62 4.31 1.517 3.403 1.646c-.26 0-1.035-.513-1.294-.257-.517.513.388 1.026.647 1.282-.388-.128-2.07 0-2.329.256-.646.513.26.513.13.897 0 .385-.518.385-.388 1.026.129 1.666 3.88 2.307 5.045 2.307.386 0 .776-.128 1.164 0 .388.128.516.384.905.384 1.035-.256 1.682-1.281 1.94-2.178.389-1.026 1.424-1.923 1.552-3.205 0-.512-.258-1.922-.905-1.538" mask="url(#b)"/>
        </g>
        <path fill="#000" d="M59.837 5.281c-.258-.256-.776-1.025-1.293-1.025-.13 0-.259 0-.388.128-.388.256-.13 1.025-.647 1.154-.517.128-1.164-.898-1.423 0-.13.384.388 1.281.647 1.538.776.897 2.07 1.281 3.234 1.538 1.035.128 5.303-.128 4.527-1.923-1.81.385-3.492 0-4.657-1.41"/>
        <path fill="#000" d="M66.823 3.359c-.906 0-1.294 1.794-1.553 2.307-.258.513-.646.897-.776 1.41-.259.769-.13.769.518 1.153 1.164.641 1.293 2.18 1.293 3.333.518-.129 1.294-1.538 1.94-1.282.518.256.26 1.41 0 1.794 1.94-1.922 1.553-5.767 0-7.818-.388-.256-.905-.897-1.422-.897"/>
        <path fill="#595959" d="M59.462 3.098c.04.072.056.152.052.23v.003a.607.607 0 0 1-.155-.353c.042.032.076.07.103.12m-.694 1.415c.024.027.048.073.044.094-.003.013-.003.012-.017.025a.148.148 0 0 1-.05.018c-.103.024-.223-.03-.307-.086a.564.564 0 0 1-.216-.304c.2.025.41.104.546.253m1.421-2.618c-.117.013-.225.031-.333.078-.116.05-.22.12-.314.203a1.06 1.06 0 0 0-.328.545.708.708 0 0 0-.385-.013.882.882 0 0 0-.401.247 1.531 1.531 0 0 0-.408 1.129c-.29.008-.575.116-.721.372a.612.612 0 0 0-.06.495.79.79 0 0 0 .31.38c.297.208.7.3 1.06.278a.934.934 0 0 0 .472-.14c.087-.06.004-.203-.084-.142-.26.177-.654.136-.954.05a1.299 1.299 0 0 1-.456-.224.652.652 0 0 1-.147-.163.426.426 0 0 1-.062-.18.502.502 0 0 1 .207-.43.799.799 0 0 1 .462-.13c.05.196.16.374.346.48.175.1.552.164.585-.119.016-.132-.115-.246-.209-.317a.99.99 0 0 0-.276-.139 1.315 1.315 0 0 0-.306-.065 1.172 1.172 0 0 1 .014-.312c.054-.308.214-.636.47-.814a.562.562 0 0 1 .39-.11c.02.002.066.012.097.021l.032.01a.796.796 0 0 0 .056.319c.042.106.105.22.203.287a.14.14 0 0 0 .202-.046c.041-.072.033-.165.02-.243a.58.58 0 0 0-.303-.414.845.845 0 0 1 .027-.105.963.963 0 0 1 .565-.576c.111-.04.235-.053.353-.055.05-.001.104.002.15.023.047.023.064.066.074.116.02.104.18.06.16-.044-.047-.247-.297-.274-.508-.252M66.295 5.336c.08.016.152.054.21.107 0 .001 0 .002.002.003a.607.607 0 0 1-.37-.109.384.384 0 0 1 .158-.001m.638 1.44c.036 0 .087.011.1.028.008.01.008.01.008.029 0 .011-.01.035-.018.05-.048.094-.167.15-.263.18a.564.564 0 0 1-.372-.03c.148-.137.344-.248.545-.256m-1.091-2.772a1.104 1.104 0 0 0-.155.306c-.037.12-.05.245-.046.37.006.218.077.43.205.602a.708.708 0 0 0-.256.287.882.882 0 0 0-.07.466 1.531 1.531 0 0 0 .603 1.038c-.18.228-.28.515-.178.791.06.162.178.302.34.365a.79.79 0 0 0 .491.005c.35-.093.68-.343.894-.632a.934.934 0 0 0 .196-.451c.01-.106-.153-.134-.163-.027-.03.312-.315.588-.574.762-.14.095-.303.174-.465.205a.652.652 0 0 1-.22.009.426.426 0 0 1-.177-.068.502.502 0 0 1-.197-.436.799.799 0 0 1 .198-.438c.182.09.39.119.59.045.19-.07.48-.318.285-.525-.091-.097-.262-.07-.377-.044a.99.99 0 0 0-.284.123c-.086.051-.17.116-.247.191a1.172 1.172 0 0 1-.23-.21c-.201-.24-.35-.573-.322-.883a.562.562 0 0 1 .168-.37.664.664 0 0 1 .078-.06l.028-.019c.08.073.178.128.28.162.11.036.237.061.351.03a.14.14 0 0 0 .094-.185c-.028-.078-.105-.132-.173-.172a.58.58 0 0 0-.512-.034.845.845 0 0 1-.063-.088.963.963 0 0 1-.077-.803c.04-.112.11-.214.184-.306a.332.332 0 0 1 .114-.099c.048-.021.092-.008.136.017.093.052.162-.1.07-.151-.22-.123-.401.052-.52.227"/>
        <path fill="#595959" d="M67.56 4.097a.428.428 0 0 1-.235.011h-.003a.607.607 0 0 1 .374-.091.384.384 0 0 1-.136.08m-1.273-.929c-.03.02-.08.034-.1.027-.012-.005-.011-.005-.022-.021a.148.148 0 0 1-.01-.053c-.005-.105.07-.214.14-.287a.564.564 0 0 1 .337-.16c-.06.193-.175.386-.345.494m2.331 1.855a1.104 1.104 0 0 0-.018-.342 1.162 1.162 0 0 0-.146-.344 1.06 1.06 0 0 0-.48-.419.708.708 0 0 0 .08-.376.882.882 0 0 0-.174-.439 1.531 1.531 0 0 0-1.04-.597c.042-.287-.015-.587-.241-.775a.612.612 0 0 0-.478-.145.79.79 0 0 0-.427.24c-.257.256-.417.638-.458.996a.934.934 0 0 0 .056.488c.043.097.199.04.154-.058-.13-.286-.021-.667.116-.947.073-.152.175-.303.3-.41a.652.652 0 0 1 .186-.118.426.426 0 0 1 .188-.03.502.502 0 0 1 .388.28c.07.147.075.316.048.477a.745.745 0 0 0-.534.257c-.129.155-.257.515.016.597.128.038.262-.071.348-.15a.99.99 0 0 0 .185-.249c.049-.087.09-.186.118-.29.104.009.209.034.305.068.294.107.589.322.72.604.062.135.079.263.04.404a.664.664 0 0 1-.038.092l-.015.03a.796.796 0 0 0-.323-.001.622.622 0 0 0-.319.15.14.14 0 0 0 .01.207c.064.053.158.061.237.062a.58.58 0 0 0 .46-.226.845.845 0 0 1 .099.045c.24.127.418.388.468.656.021.117.012.24-.006.357a.332.332 0 0 1-.05.143c-.03.043-.075.053-.126.053-.106.002-.09.168.015.166.252-.003.321-.245.336-.456M60.937 6.46a.335.335 0 0 1-.011.022c.006-.142.029-.285.063-.424.017-.066.036-.132.064-.195l.012-.024a.208.208 0 0 1 .015-.023l.004-.004a.406.406 0 0 1 .023-.024l.032-.03a.754.754 0 0 1-.005.062v.002l-.002.007a4.2 4.2 0 0 1-.014.075 3.557 3.557 0 0 1-.173.537l-.008.018v.002m-1.556.638a.988.988 0 0 1 .045-.221.704.704 0 0 1 .2-.306.296.296 0 0 1 .002.076.561.561 0 0 1-.027.13.748.748 0 0 1-.174.274l-.046.047m2.488-2.227c-.025.096-.037.194-.06.29l-.04.165c-.04.164-.082.328-.128.491a5.651 5.651 0 0 1-.188.558c-.06.151-.132.303-.236.433l-.024.026a.503.503 0 0 1-.033.031c-.027.024-.023.023-.06.041-.003 0-.008.003-.01.004l-.01.003a.303.303 0 0 1-.018.004h-.039l-.005-.002-.003-.001-.007-.004c.002 0-.007-.006-.01-.008a.112.112 0 0 1-.008-.009l-.006-.01c-.02-.029-.022-.035-.033-.075l-.007-.026.106-.17a1.75 1.75 0 0 0 .146-.344c.041-.12.276-.752-.051-.703-.067.01-.126.07-.17.114a.454.454 0 0 0-.101.16 1.922 1.922 0 0 0-.112.493 1.727 1.727 0 0 0-.005.42 3.443 3.443 0 0 1-.277.372c-.147.167-.326.337-.549.413-.183.063-.389.052-.49-.119a.438.438 0 0 1-.044-.11 1.3 1.3 0 0 0 .214-.21c.131-.158.22-.36.187-.562-.012-.074-.072-.145-.159-.142-.112.004-.194.11-.253.187a.944.944 0 0 0-.177.647.287.287 0 0 1-.09.029c.016-.003-.032-.003-.024 0a.22.22 0 0 1-.02-.005h-.002l-.005-.003c-.015-.007-.014-.007-.03-.026a.246.246 0 0 1-.033-.08.523.523 0 0 1-.006-.158c.01-.137.055-.274.097-.405.085-.272.203-.536.377-.77.068-.093.15-.177.24-.251.086-.07-.04-.185-.124-.116a1.924 1.924 0 0 0-.505.687c-.121.26-.224.543-.258.824-.02.165.006.421.226.46.066.012.13.003.191-.02a.504.504 0 0 0 .219.279c.2.118.468.058.661-.04.224-.111.4-.294.552-.478.052-.062.101-.128.148-.194.05.082.128.132.25.118.15-.017.253-.127.333-.237.104-.146.174-.313.238-.477.1-.258.175-.524.243-.79.026-.1.05-.2.074-.3l.024-.099c.022-.086.032-.175.053-.261.026-.102-.144-.146-.17-.044M68.894 7.792a.335.335 0 0 1 .013.02 2.178 2.178 0 0 1-.335-.267 1.277 1.277 0 0 1-.138-.153l-.014-.022a.208.208 0 0 1-.013-.025l-.001-.005a.406.406 0 0 1-.009-.032l-.01-.043a.754.754 0 0 1 .05.036l.002.001.006.005a4.2 4.2 0 0 1 .019.015l.039.035a3.557 3.557 0 0 1 .379.418l.01.015.002.002m-.225 1.666a.988.988 0 0 1-.17-.15.704.704 0 0 1-.164-.326c.02.007.041.02.067.037a.561.561 0 0 1 .1.089c.074.08.116.181.15.287l.017.063m-.685-3.267c.071.068.15.128.221.196l.123.117c.123.117.244.235.362.357.136.14.268.286.39.441.1.128.196.266.256.421l.01.034a.503.503 0 0 1 .011.044c.007.036.008.032.005.073l-.001.011-.003.01a.303.303 0 0 1-.005.019.187.187 0 0 1-.013.022l-.008.01-.003.003-.002.002-.007.004-.012.004a.112.112 0 0 1-.011.003l-.012.001c-.035.003-.042 0-.083-.01-.008-.001-.017-.003-.025-.006a1.75 1.75 0 0 0-.32-.476c-.083-.095-.513-.614-.633-.307-.025.063-.002.145.013.204a.454.454 0 0 0 .088.168c.104.133.238.243.371.343.075.056.216.156.362.215.07.137.132.279.183.426.071.21.129.45.084.681-.038.19-.15.363-.348.365a.438.438 0 0 1-.118-.016 1.3 1.3 0 0 0-.075-.29c-.071-.194-.2-.372-.394-.444-.07-.026-.16-.01-.201.067-.053.1-.002.223.035.312a.944.944 0 0 0 .472.477.287.287 0 0 1-.02.092c.005-.015-.019.027-.013.021a.22.22 0 0 1-.013.015l-.002.002-.005.003c-.013.01-.012.008-.038.014a.246.246 0 0 1-.085-.013.523.523 0 0 1-.14-.074c-.113-.077-.21-.184-.302-.286a2.578 2.578 0 0 1-.479-.711 1.428 1.428 0 0 1-.097-.334c-.018-.11-.18-.058-.162.05.048.29.181.55.342.78.164.235.358.466.585.636.133.1.368.205.511.034a.364.364 0 0 0 .079-.175.504.504 0 0 0 .35-.05c.202-.114.285-.377.297-.593.015-.25-.055-.493-.138-.717a3.164 3.164 0 0 0-.094-.225c.095-.002.178-.045.227-.158.06-.138.017-.282-.04-.406a2.142 2.142 0 0 0-.293-.445 6.891 6.891 0 0 0-.562-.606 18.987 18.987 0 0 0-.224-.214l-.073-.07c-.064-.063-.136-.115-.2-.177-.076-.073-.198.052-.123.126M62.14 2.289c-.061-.131-.106-.303-.062-.447.203.2.303.502.328.788-.12-.078-.207-.218-.265-.341m-.714 1.45a.797.797 0 0 1-.017.116.886.886 0 0 1-.264-.147c-.17-.13-.321-.327-.36-.546a.393.393 0 0 1 .05-.27c.01-.015.014-.018.028-.032l.017-.01.011-.004.014-.002.013.001a.312.312 0 0 1 .023.006c.017.005.013.004.034.016.016.008.031.019.046.03.029.02.063.054.09.083.064.067.118.141.168.218.043.068.084.14.116.213v.003c.002 0 .002.002.003.004l.008.028a.867.867 0 0 1 .02.294m-1.377.705c-.139-.053-.262-.142-.26-.295 0-.02 0-.016.007-.038 0 .002.013-.023.007-.015.017-.022.023-.024.056-.033a.473.473 0 0 1 .203.011 1.256 1.256 0 0 1 .396.172.42.42 0 0 1 .147.285c-.188.004-.38-.02-.556-.087m2.042-2.809c-.037-.03-.09-.004-.112.03-.137.203-.082.472.008.681.081.19.229.392.423.474-.008.305-.1.618-.31.835a.755.755 0 0 1-.532.227 1.18 1.18 0 0 0 .023-.159.855.855 0 0 0-.04-.363 1.472 1.472 0 0 0-.113-.22c-.096-.156-.215-.32-.373-.415a.286.286 0 0 0-.224-.04c-.086.024-.144.103-.177.183-.094.221-.032.459.092.654.124.197.312.366.521.461a.813.813 0 0 0 .081.031.932.932 0 0 1-.428.465c.005-.003-.025.01-.03.011a.662.662 0 0 1-.133.03.611.611 0 0 0-.118-.31c-.106-.139-.273-.211-.433-.266-.144-.049-.342-.097-.481-.008-.15.097-.13.326-.036.455.11.151.296.223.47.263.142.034.292.049.439.045-.006.094-.023.188-.036.274-.007.045.01.09.057.103.04.011.094-.013.1-.059.017-.108.036-.22.042-.33a.811.811 0 0 0 .2-.045.919.919 0 0 0 .3-.207c.111-.11.195-.243.25-.389a.855.855 0 0 0 .33-.043c.348-.114.57-.435.666-.784.147-.541.028-1.228-.426-1.584"/>
        <path fill="#595959" d="M64.198 2.23a.352.352 0 0 1 .059-.3.36.36 0 0 1-.06.3m-1.221-.165a.402.402 0 0 1-.089.119l-.004.003a.799.799 0 0 1 .188-.484v.01a.931.931 0 0 1-.095.352m1.914-.143c-.131-.137-.347-.25-.546-.219a.826.826 0 0 0-.388-.353c-.227-.096-.52-.067-.735.035-.054-.25-.208-.508-.51-.44-.228.051-.393.269-.501.452-.105.177-.21.429-.133.635.038.1.198.045.16-.055a.262.262 0 0 1-.013-.09c0-.033.008-.083.017-.122a1.06 1.06 0 0 1 .111-.274c.084-.152.216-.33.392-.386a.222.222 0 0 1 .08-.007c.038.005.041.007.079.029-.013-.008.019.014.025.02l.014.013a.345.345 0 0 1 .061.09.708.708 0 0 1 .065.228.892.892 0 0 0-.3.412c-.049.139-.065.286-.054.433.003.042.05.082.094.075.357-.064.44-.516.437-.803v-.034a.81.81 0 0 1 .444-.103.617.617 0 0 1 .5.305c-.14.097-.186.286-.168.448a.633.633 0 0 0 .057.196c.023.047.083.072.13.04a.504.504 0 0 0 .202-.59c.123 0 .267.09.344.161.141.131.201.326.22.507.022.187-.002.384-.072.56-.038.097.118.168.156.07.153-.386.145-.91-.168-1.233"/>
        <g transform="matrix(-1 0 0 1 65.261 3.75)">
            <mask id="d" fill="#fff">
                <use xlink:href="#c"/>
            </mask>
            <path fill="#595959" d="M1.308 1.149a.688.688 0 0 1-.095.196.26.26 0 0 1-.14.104.168.168 0 0 1-.071.004c-.035-.007-.041-.012-.059-.032.013.015-.007-.02-.007-.015L.93 1.381a.277.277 0 0 1 0-.042c0-.017.002-.02.008-.045a.746.746 0 0 1 .285-.4.519.519 0 0 1 .14-.074 1.23 1.23 0 0 1-.055.329m.377-.467A.473.473 0 0 0 1.52.637c-.023-.235-.115-.463-.352-.52C.952.068.723.169.544.282.364.395.19.551.08.737A.62.62 0 0 0 .06.77C.012.865.153.95.2.854.293.674.46.53.627.424.774.327 1 .213 1.178.291c.06.027.086.061.12.128a.741.741 0 0 1 .059.231.627.627 0 0 0-.198.089.968.968 0 0 0-.355.44c-.056.137-.06.322.084.405.143.082.321.011.423-.104.115-.13.17-.307.196-.477.01-.06.016-.129.018-.2a.352.352 0 0 1 .13.047c.158.097.245.304.245.485a.372.372 0 0 1-.073.229.32.32 0 0 1-.244.108c-.104.005-.105.17 0 .165.18-.009.35-.092.428-.263a.675.675 0 0 0 .006-.502.675.675 0 0 0-.332-.39" mask="url(#d)"/>
        </g>
        <g transform="translate(62.31 5.346)">
            <mask id="f" fill="#fff">
                <use xlink:href="#e"/>
            </mask>
            <path fill="#595959" d="M1.308 1.149a.688.688 0 0 1-.095.196.26.26 0 0 1-.14.104.168.168 0 0 1-.071.004c-.035-.007-.041-.012-.059-.032.013.015-.007-.02-.007-.015L.93 1.381a.277.277 0 0 1 0-.042c0-.017.002-.02.008-.045a.746.746 0 0 1 .285-.4.519.519 0 0 1 .14-.074 1.23 1.23 0 0 1-.055.329m.377-.467A.473.473 0 0 0 1.52.637c-.023-.235-.115-.463-.352-.52C.952.068.723.169.544.282.364.395.19.551.08.737A.62.62 0 0 0 .06.77C.012.865.153.95.2.854.293.674.46.53.627.424.774.327 1 .213 1.178.291c.06.027.086.061.12.128a.741.741 0 0 1 .059.231.627.627 0 0 0-.198.089.968.968 0 0 0-.355.44c-.056.137-.06.322.084.405.143.082.321.011.423-.104.115-.13.17-.307.196-.477.01-.06.016-.129.018-.2a.352.352 0 0 1 .13.047c.158.097.245.304.245.485a.372.372 0 0 1-.073.229.32.32 0 0 1-.244.108c-.104.005-.105.17 0 .165.18-.009.35-.092.428-.263a.675.675 0 0 0 .006-.502.675.675 0 0 0-.332-.39" mask="url(#f)"/>
        </g>
        <path fill="#595959" d="M58.481 4.362c.026-.08-.112-.114-.137-.034a.238.238 0 0 0 .026.188c.017.032.066.04.098.024.035-.02.042-.057.025-.09a.11.11 0 0 1-.012-.088M58.464 3.51c-.031-.019-.08-.01-.097.025a.281.281 0 0 0-.03.13c0 .038.033.07.072.07a.071.071 0 0 0 .071-.07v-.032l.004-.015.003-.006.003-.006c.016-.035.01-.076-.026-.096M65.448 4.378a1.823 1.823 0 0 0-.32-.233c-.042-.027-.116-.025-.147-.006-.037.024-.019.058.024.084.09.057.184.114.25.18.031.03.084.053.142.046.047-.006.082-.04.051-.07M67.132 6.266c.032-.026.028-.078-.02-.102a.857.857 0 0 0-.397-.098c-.13-.003-.1.142.03.144a.535.535 0 0 1 .245.056c.047.025.107.03.142 0M68.057 6.837c-.038-.056-.067-.114-.116-.163-.027-.026-.074-.019-.097.008-.026.03-.019.071.008.098.038.037.062.091.093.136.05.074.163-.005.112-.079M68.768 7.823c-.029-.058-.057-.117-.096-.17-.053-.07-.167.002-.114.072.033.044.055.093.079.141a.076.076 0 0 0 .09.04c.035-.01.057-.05.04-.083"/>
        <g transform="rotate(100 31.021 33.455)">
            <mask id="h" fill="#fff">
                <use xlink:href="#g"/>
            </mask>
            <path fill="#595959" d="M.585.143C.442.123.315.071.18.031.132.016.076.046.064.08.05.12.082.152.13.166.264.207.39.26.535.28c.12.016.17-.12.05-.136" mask="url(#h)"/>
        </g>
        <path fill="#595959" d="M67.589 7.21a.434.434 0 0 0-.062-.11c-.025-.036-.052-.071-.096-.085-.036-.01-.074.023-.08.057-.006.04.02.07.056.08a.053.053 0 0 1-.025-.011.063.063 0 0 1 .005.004l.002.002.001.001a.55.55 0 0 1 .057.083l.005.008a.12.12 0 0 1 .007.019c.012.036.055.054.09.041a.07.07 0 0 0 .04-.089M66.943 6.726l-.061-.088a.07.07 0 0 0-.098-.018.072.072 0 0 0-.017.099l.06.088c.023.032.067.04.099.018a.072.072 0 0 0 .017-.1M56.856 3.766c-.05.04-.105.073-.155.113-.063.05-.005.172.059.122.05-.04.104-.073.155-.113.063-.05.004-.172-.059-.122M57.446 3.234c-.033-.033-.067-.009-.088.038-.047.105-.091.212-.138.317-.021.046-.005.12.023.147.033.032.067.008.089-.039.046-.104.09-.212.137-.316.021-.047.005-.12-.023-.147M58.406 2.2l-.076.076a.07.07 0 0 0 0 .1.072.072 0 0 0 .1 0l.076-.076a.07.07 0 0 0 0-.1.072.072 0 0 0-.1 0M57.154 5.428a.417.417 0 0 1-.14-.035c-.072-.029-.103.107-.031.136a.502.502 0 0 0 .171.04c.075.002.075-.14 0-.141M58.505 5.714a.52.52 0 0 1-.123-.068c-.03-.021-.072-.006-.09.025a.075.075 0 0 0 .024.097.638.638 0 0 0 .154.082c.034.012.07-.014.08-.05a.073.073 0 0 0-.045-.086M58.36 6.48c-.021.12-.022.243-.022.366 0 .127.142.127.142 0 0-.105-.001-.21.016-.314.021-.123-.116-.175-.137-.052M58.525 7.813a.583.583 0 0 1-.127-.265c-.012-.051-.038-.087-.07-.071-.028.013-.053.074-.041.125a.85.85 0 0 0 .18.387c.063.07.121-.107.058-.176"/>
        <g transform="translate(59.089 8.005)">
            <mask id="j" fill="#fff">
                <use xlink:href="#i"/>
            </mask>
            <path fill="#595959" d="M.321.125c-.07 0-.14 0-.209-.017C.023.088-.015.224.075.245c.081.018.163.02.246.02.092 0 .092-.14 0-.14" mask="url(#j)"/>
        </g>
        <path fill="#595959" d="M60.833 7.767c-.109.024-.212.056-.324.075-.137.024-.079.16.059.136.111-.018.215-.05.324-.075.133-.03.076-.166-.06-.136M59.76 5.627a.071.071 0 0 0-.071.07v.095c0 .038.032.07.07.07a.071.071 0 0 0 .072-.07v-.094a.071.071 0 0 0-.071-.07M60.1 6.803a.07.07 0 0 1-.047-.02.119.119 0 0 1-.03-.059c-.022-.086-.149-.05-.126.037.026.101.1.177.202.18.085.003.084-.136 0-.138M60.263 5.906a.308.308 0 0 0-.067.178c-.002.08.14.08.142 0a.2.2 0 0 1 .048-.116c.05-.067-.074-.128-.123-.062M61.195 4.84c-.033-.02-.08-.01-.098.025l-.003.004-.007.01c-.007.008-.015.014-.023.021l-.005.004-.017.011a.356.356 0 0 1-.033.018c-.034.018-.044.065-.026.097.02.034.063.043.098.025a.324.324 0 0 0 .14-.12.071.071 0 0 0-.026-.096M62.238 4.035a.393.393 0 0 0-.18.112c-.053.063.028.162.082.1a.277.277 0 0 1 .128-.076c.072-.023.042-.16-.03-.136M63.315 3.794a.38.38 0 0 0-.166.048c-.034.017-.044.065-.025.096.02.035.061.043.096.026a.2.2 0 0 1 .095-.029c.09-.001.09-.142 0-.14M64.16 3.85a.316.316 0 0 0-.18-.066c-.08-.002-.08.139 0 .14.043.002.08.02.117.047.067.05.129-.072.062-.121M58.227 4.886c-.047 0-.094 0-.14-.016-.072-.027-.102.11-.03.136.054.02.113.021.17.021.076 0 .076-.14 0-.14M59.266 4.593a.206.206 0 0 1-.117.047c-.08.002-.08.143 0 .14a.317.317 0 0 0 .18-.065c.066-.05.004-.172-.063-.122M59.017 3.827a.071.071 0 0 0-.142 0c0 .053.006.1.029.149.016.034.066.043.097.025.035-.02.042-.062.025-.097-.011-.024-.009-.046-.009-.077M60.034 2.44a2.48 2.48 0 0 0-.356.1c-.119.041-.014.163.105.123.1-.034.198-.068.306-.087.129-.024.074-.16-.055-.136M60.065 2.968c-.048.036-.09.078-.139.113a.075.075 0 0 0-.023.097c.017.031.06.046.089.025.048-.035.09-.078.138-.113a.076.076 0 0 0 .024-.096c-.017-.032-.06-.047-.09-.026M61.109 1.652a.71.71 0 0 0-.135.413c-.002.12.14.12.142 0a.48.48 0 0 1 .093-.282c.064-.086-.037-.218-.1-.131M63.004 1.652c-.05-.067-.173-.005-.123.062.031.041.05.086.069.132.029.075.166.043.137-.032a.658.658 0 0 0-.083-.162M61.86 2.158c-.035-.012-.075.013-.085.045-.01.036.013.068.049.08a.136.136 0 0 1 .08.093c.024.08.158.045.134-.035a.274.274 0 0 0-.178-.183M64.948 1.992c-.05-.02-.096-.055-.146-.076-.031-.012-.067.015-.075.05-.01.039.011.074.042.087.05.02.096.054.147.075.03.013.066-.015.075-.05a.074.074 0 0 0-.043-.086M65.437 2.455c-.016-.034-.066-.043-.097-.025-.036.02-.042.06-.026.094l.006.017.007.028c.005.023.011.045.018.067a.072.072 0 0 0 .088.048c.036-.01.061-.049.05-.084-.017-.049-.023-.099-.046-.145M63.037 3.253a.245.245 0 0 0-.164.077.07.07 0 0 0 0 .1.073.073 0 0 0 .1 0 .134.134 0 0 1 .043-.031.076.076 0 0 1 .008-.003l.007-.002h.006a.072.072 0 0 0 .071-.07.071.071 0 0 0-.071-.07M62.768 7.242a.245.245 0 0 0-.163.077.07.07 0 0 0 0 .1.073.073 0 0 0 .1 0 .134.134 0 0 1 .043-.032.076.076 0 0 1 .008-.003l.007-.001h.005a.072.072 0 0 0 .072-.071.071.071 0 0 0-.072-.07M62.232 5.646a.245.245 0 0 0-.164.077.07.07 0 0 0 0 .1.073.073 0 0 0 .1 0 .134.134 0 0 1 .043-.031.076.076 0 0 1 .008-.003l.007-.002h.006a.072.072 0 0 0 .071-.07.071.071 0 0 0-.071-.07M65.452 6.178a.245.245 0 0 0-.164.077.07.07 0 0 0 0 .1.073.073 0 0 0 .1 0 .134.134 0 0 1 .043-.032.076.076 0 0 1 .008-.002l.007-.002h.006a.072.072 0 0 0 .071-.07.071.071 0 0 0-.07-.071M67.062 7.507a.245.245 0 0 0-.164.078.07.07 0 0 0 0 .1.073.073 0 0 0 .1 0 .134.134 0 0 1 .043-.032.076.076 0 0 1 .009-.003l.007-.001h.005a.072.072 0 0 0 .072-.071.071.071 0 0 0-.072-.07M66.526 9.635a.245.245 0 0 0-.164.077.07.07 0 0 0 0 .1.073.073 0 0 0 .1 0 .134.134 0 0 1 .043-.032.076.076 0 0 1 .008-.003l.007-.001h.006a.072.072 0 0 0 .07-.07.071.071 0 0 0-.07-.071M68.136 8.305a.245.245 0 0 0-.164.077.07.07 0 0 0 0 .1.073.073 0 0 0 .1 0 .134.134 0 0 1 .043-.031.076.076 0 0 1 .008-.003l.007-.002h.006a.072.072 0 0 0 .071-.07.071.071 0 0 0-.071-.07M67.599 5.114a.245.245 0 0 0-.164.077.07.07 0 0 0 0 .1.073.073 0 0 0 .1 0 .134.134 0 0 1 .043-.031.076.076 0 0 1 .008-.003l.007-.001h.006a.072.072 0 0 0 .071-.071.071.071 0 0 0-.071-.07M67.062 5.912a.245.245 0 0 0-.164.077.07.07 0 0 0 0 .1.073.073 0 0 0 .1 0 .134.134 0 0 1 .043-.031.076.076 0 0 1 .009-.003l.007-.002h.005a.072.072 0 0 0 .072-.07.071.071 0 0 0-.072-.07M68.94 5.912a.245.245 0 0 0-.163.077.07.07 0 0 0 0 .1.073.073 0 0 0 .1 0 .134.134 0 0 1 .043-.031.076.076 0 0 1 .008-.003l.007-.002h.006a.072.072 0 0 0 .071-.07.071.071 0 0 0-.071-.07M64.379 6.976a.245.245 0 0 0-.164.077.07.07 0 0 0 0 .1.073.073 0 0 0 .1 0 .134.134 0 0 1 .043-.032.076.076 0 0 1 .008-.003l.007-.001h.006a.072.072 0 0 0 .071-.07.071.071 0 0 0-.071-.071M63.857 3.3c-.03 0-.071.004-.093-.018-.062-.061-.154.038-.092.1.052.052.117.058.185.058.083 0 .083-.14 0-.14M60.016 4.878l-.011.01c0 .002-.002.003-.003.003v.001l-.005.002-.007.001a.071.071 0 0 0-.07.07c0 .038.032.072.07.071a.18.18 0 0 0 .127-.058.07.07 0 0 0 0-.1.072.072 0 0 0-.101 0M62.175 2.721a.072.072 0 0 0-.071.07v.057c0 .039.032.07.071.07a.071.071 0 0 0 .071-.07v-.056a.072.072 0 0 0-.071-.07M63.54 1.39c-.042-.074-.165-.009-.123.065.023.04.051.078.069.121a.074.074 0 0 0 .087.045c.035-.01.062-.046.05-.079-.022-.054-.055-.102-.084-.152M61.58 7.524a.626.626 0 0 1-.268.267c-.052.023-.088.07-.072.133.013.05.075.098.126.075a.85.85 0 0 0 .39-.366c.07-.119-.108-.227-.177-.109M65.203 4.019c-.04-.01-.075.013-.088.048a.21.21 0 0 1-.028.05c0 .002-.002.003-.004.006a.199.199 0 0 1-.02.018l-.012.006c-.036.013-.06.046-.05.084.01.034.051.06.088.048a.272.272 0 0 0 .163-.176c.013-.035-.014-.075-.05-.084M58.656 2.993c-.022.052-.054.102-.076.155-.03.07.108.1.137.03.023-.052.054-.102.076-.154.03-.071-.107-.102-.137-.031M57.349 6.192c-.08.188-.136.421-.139.647 0 .136.136.136.138 0 .001-.19.052-.383.12-.54.048-.115-.07-.22-.12-.107"/>
        <g transform="translate(56.137 5.346)">
            <mask id="l" fill="#fff">
                <use xlink:href="#k"/>
            </mask>
            <path fill="#595959" d="M.449.291C.442.285.434.281.426.276L.418.271.406.261a.082.082 0 0 0-.114 0 .08.08 0 0 0 0 .113.34.34 0 0 0 .056.042.08.08 0 0 0 .077.056c.042 0 .082-.036.08-.08A.126.126 0 0 0 .45.291" mask="url(#l)"/>
        </g>
        <path fill="#714E46" d="M68.245 10.152c-1.163-.897-1.551 1.923-1.294 2.564.131.384 1.165-.77 1.294-.898.259-.384.517-1.281 0-1.666"/>
        <path fill="#664640" d="M67.987 10.92c-.13.257-.13.385-.258.642h.258c.13-.129.388-.513 0-.641M58.673 15.663v.385c0 .128.13.128.13 0v-.385c.129-.128-.13-.128-.13 0"/>
        <g transform="translate(21.25 76.308)">
            <mask id="n" fill="#fff">
                <use xlink:href="#m"/>
            </mask>
        </g>
        <path fill="#D6D6D6" d="M59.061 48.09c-.259 0-.517.256-.517.513v.128c0 .128-.13.256-.259.385-.13.256-.13.64.259.769.258.128.646.128.776-.257.13-.384.388-.64.388-1.025-.13-.257-.388-.513-.647-.513M59.45 43.99c-.26 0-.518.255-.518.512v.769c0 .256.259.512.518.512.258 0 .517-.256.517-.512v-.77c.13-.256-.13-.512-.517-.512M58.673 38.862c-.258.128-.388.513-.258.77.129.256.129.384.129.64s.259.513.517.513c.26 0 .518-.257.518-.513 0-.384 0-.897-.259-1.282 0-.256-.388-.256-.647-.128M58.027 34.12c-.26.256-.26.512 0 .769v.256c0 .256.258.513.517.513s.517-.257.517-.513c0-.384 0-.769-.388-1.025-.129-.128-.517-.128-.646 0M56.862 28.224c-.388-.641-1.293 0-.905.512.259.385.388.898.647 1.41.258.641 1.293.385 1.035-.256-.26-.513-.388-1.154-.777-1.666M59.19 26.43s-.129 0 0 0c-.129-.257-.129-.385-.129-.385-.13-.256-.388-.385-.776-.385-.259 0-.517.257-.517.513s.13.385.388.513v.128c0 .128.13.256.13.256.128.257.517.385.775.257.13-.257.259-.513.13-.898 0 .129 0 0 0 0M60.355 29.634c-.13-.385-.259-.513-.518-.513-.258 0-.517.256-.517.513 0 .128 0 .256.13.384v.257c0 .256.258.512.517.512.258 0 .517-.256.517-.512 0-.129 0-.385-.13-.513.13 0 0 0 0-.128M60.872 33.095c-.259 0-.517.256-.517.512 0 .257.129.385.258.513v.128c0 .256.259.513.518.513.258 0 .517-.257.517-.513s-.13-.384-.13-.64c0-.385-.258-.513-.646-.513M61.39 36.811c-.259.257-.259.513 0 .77v.256c0 .256.259.512.517.512.26 0 .517-.256.517-.512 0-.385 0-.77-.387-1.026-.13-.128-.518-.128-.647 0M62.166 41.04c-.258 0-.517.257-.517.513v.641c0 .257.259.513.517.513s.516-.256.516-.513v-.64c.131-.257-.128-.513-.516-.513M61.907 45.783c-.258 0-.517.257-.517.513v.64c0 .257.259.514.517.514.259 0 .516-.257.516-.513v-.641c0-.256-.257-.513-.516-.513M61.907 49.757c-.258-.128-.647-.128-.776.256-.13.385-.388.64-.388 1.025 0 .257.259.513.517.513.26 0 .517-.256.517-.513 0-.128.13-.256.26-.384.129-.385.129-.77-.13-.897M64.494 51.551c-.258 0-.517.256-.517.513v.128c-.13.128-.26.384-.13.64.13.257.389.385.517.385.26 0 .518-.256.647-.512v-.641c0-.257-.258-.513-.517-.513M64.623 47.962c-.258.385-.388.77-.388 1.154 0 .256.259.513.519.513.257 0 .516-.257.516-.513v-.513a.803.803 0 0 0 0-.769c0-.128-.388-.128-.647.128M65.4 42.195c-.259 0-.517.256-.517.512v.641c0 .257.258.513.517.513.258 0 .516-.256.516-.513v-.64c0-.257-.258-.513-.516-.513M68.504 40.785c-.259 0-.516.256-.516.512 0 .257.128.641.128.898 0 .256.259.512.519.512.257 0 .516-.256.516-.512 0-.257-.13-.641-.13-.898 0-.256-.258-.512-.517-.512M68.504 45.783c-.259 0-.516.257-.516.513v.769c0 .256.257.513.516.513s.517-.257.517-.513v-.769c0-.256-.258-.513-.517-.513M67.598 50.782c0 .385 0 .77-.13 1.153-.258.64.908 1.025 1.036.257.13-.514.13-.898.13-1.41 0-.77-1.036-.77-1.036 0"/>
        <path fill="#000" d="M64.494 11.69c-.388-.257-.777-.257-1.164-.128-.26.128-.517.384-.388 1.153h.388c0-.384 0-.769.259-.897s.517-.128.775.128c.26.128.39.513.26.77h.387c0-.385-.258-.77-.517-1.026M59.708 11.946c-.259-.256-.776-.256-1.035-.128-.13.128-.517.385-.388 1.026h.259c0-.385 0-.641.258-.77.13-.128.388-.128.647.129.259.128.388.384.259.64h.259c.129-.256 0-.64-.26-.897"/>
        <path fill="#FFF" d="M59.578 15.663c.389 1.154.518 1.538.906 1.538 1.164 0 2.199-.769 2.328-1.666-.388.128-3.104.256-3.234.128"/>
        <path fill="#A44C57" d="M59.837 16.304c.13.385.388.897.518.897.388 0 1.035 0 1.552-.256.388-.256.776-.77.776-.77-.517.13-2.458.13-2.846.13"/>
        <path fill="#B65F67" d="M61.26 16.56c-.388 0-.905.385-.905.642 0 .128.776 0 .776 0a3.907 3.907 0 0 0 1.035-.513c-.13-.128-.647-.128-.906-.128"/>
        <g transform="translate(21.25 76.308)">
            <mask id="p" fill="#fff">
                <use xlink:href="#o"/>
            </mask>
        </g>
        <g transform="translate(21.25 76.308)">
            <mask id="r" fill="#fff">
                <use xlink:href="#q"/>
            </mask>
        </g>
        <path fill="#D6D6D6" d="M71.35 53.474c-.259-.129-.647-.129-.776.256-.259.384-.259.897-.259 1.41 0 .769 1.164.769 1.164 0v-.513c0-.128 0-.256.13-.384 0-.385 0-.641-.259-.77M70.962 48.09v1.154c0 .769 1.163.769 1.163 0V48.09c-.128-.769-1.163-.769-1.163 0M71.479 42.707c-.776 0-.776 1.154 0 1.154.777 0 .777-1.154 0-1.154M74.972 42.322c-.259-.128-.647-.128-.776.257-.13.256-.13.64.26.769h.128c-.128.256 0 .513.258.769.26.128.647.128.777-.256.13-.257.13-.641.13-.898-.26-.256-.518-.512-.777-.64M74.325 48.731c-.259 0-.516.256-.516.513v1.025c0 .256.257.514.516.514s.517-.258.517-.514v-.897c.13-.385-.129-.641-.517-.641M77.042 47.706v1.282c0 .769 1.163.769 1.163 0v-1.282c-.128-.641-1.163-.641-1.163 0"/>
        <path fill="#085EBD" d="M69.41 20.406c-.906 1.794-2.846 2.435-4.786 2.82-1.035.256-2.329.256-3.364-.129-.517-.128-1.035-.384-1.293-.769-.388-.512-.777-.64-1.294 0 .259.77 1.164 1.795 2.07 2.18 1.81.896 5.303.384 7.244-.513.647-.385 1.293-.898 1.681-1.41.26-.257.777-1.282.518-1.538-.13-.257-.647-.77-.776-.641"/>
        <path fill="#D6D6D6" d="M60.484 23.097c-.776.128-.647 1.153.13 1.153.776 0 .646-1.153-.13-1.153M63.33 23.866c0-.128-.13-.256-.259-.256-.13-.257-.388-.257-.517-.257-.26 0-.518.257-.518.641 0 .257.13.385.259.385.13.128.259.256.519.256.257 0 .516-.256.516-.64v-.129zM65.658 23.994c0-.128-.13-.128-.13-.256v-.128c0-.257-.258-.385-.517-.385-.257 0-.516.257-.516.513 0 .385.128.64.259.897.128.257.516.257.774.128.26-.256.26-.512.13-.769M67.21 22.84h-.129c-.259 0-.517.257-.517.642 0 .256.258.512.646.512h.131c.257 0 .516-.256.516-.64 0-.385-.259-.513-.647-.513M69.539 21.688c-.13-.257-.389-.513-.647-.385-.258 0-.516.256-.516.64 0 .129 0 .257.128.385 0 .129.13.129.258.257.26.256.647.128.777-.128.258-.129.258-.513 0-.77"/>
        <path fill="#085EBD" d="M78.724 58.087c-5.045 2.18-11.773.513-16.817-.64-.647-.129-5.303-2.051-4.786-2.82-1.682 2.949.517 4.614 3.105 5.383 3.622 1.026 7.372 2.052 11.252 2.179 2.977 0 6.34-.385 9.055-1.667 1.683-.767.907-2.435.52-3.845-.777.641-1.553 1.026-2.33 1.41"/>
        <path fill="#D6D6D6" d="M77.3 58.857c-.257 0-.516.256-.516.511v.386c0 .128 0 .255-.13.385-.13.256 0 .511.389.64.257.129.646 0 .646-.384.128-.256.128-.64.128-.897 0-.385-.258-.641-.517-.641M74.713 59.114c-.258-.13-.647 0-.647.384a1.76 1.76 0 0 0 0 1.152c0 .257.39.514.647.386.259 0 .517-.386.39-.64v-.513c0-.385-.131-.77-.39-.77M71.091 59.498c-.13.256-.13.511-.13.769 0 .256.389.513.648.383.26 0 .517-.383.388-.64v-.128c.129-.256 0-.514-.128-.64-.26 0-.52 0-.778.256M69.928 58.6c-.259-.128-.647 0-.647.385 0 .128-.13.256-.13.513v.384c-.129.256 0 .513.387.64.259.13.647 0 .647-.384 0-.128.13-.256.13-.512v-.385a.706.706 0 0 0-.387-.64M66.694 58.6c-.259 0-.518.385-.39.641v.128c-.128.257 0 .513.131.641.259.128.647.128.775-.128.13-.256.13-.513.13-.769-.13-.384-.389-.513-.646-.513M63.848 58.857c-.131.256-.131.64-.131.897 0 .255.39.513.647.385.26 0 .518-.385.39-.641v-.257c.128-.256 0-.513-.26-.64-.13-.129-.517 0-.646.256M62.166 57.575c-.258 0-.517.257-.517.512l-.13 1.026c0 .255.258.513.517.513.26 0 .518-.258.518-.513l.128-1.026c0-.127-.258-.384-.516-.512"/>
        <g transform="translate(22.544 19.247)">
            <mask id="t" fill="#fff">
                <use xlink:href="#s"/>
            </mask>
            <path fill="#FF7900" d="M47.9 41.149c-.129.64-.258 1.41-.387 2.05-.388 4.743 6.726 15.893-2.587 13.97-6.856-1.41-8.02-11.92-16.17-6.664-2.587 1.666-12.677 11.279-15.264 6.535-1.811-3.46.258-6.92 1.164-10.124 1.552-5.512.905-8.972-4.14-11.407C6.766 33.586.815 32.047.04 27.178c-.518-2.948 4.268-3.973 6.338-4.486 3.622-.899 8.796-1.54 11.772-4.103 2.716-2.177 3.88-6.15 5.045-9.355 2.07-5.64 7.244-14.099 11.9-5.127 4.916 9.485 3.234 16.919 14.878 17.686 7.89.514 15.91 3.205 5.69 9.613-3.363 2.307-6.597 5.641-7.761 9.743" mask="url(#t)"/>
        </g>
        <path fill="#714E46" d="M42.115 59.754c0-.129-.13-.256-.259-.256s-.129-.13-.258-.13c-1.294-.384-4.14 1.412-4.14-.895-.517.511-.905 1.152-1.164 1.793-.517 1.155-.647 2.436-.259 3.718.647 1.923 1.811 1.666 3.364 1.025 1.035-.384 2.457-2.436 2.716-3.588v-1.412c.13-.126 0-.126 0-.255"/>
        <path fill="#664640" d="M41.986 59.498c-.129 0-.129 0 0 0l-.129-.13c-1.164 1.027-2.975 1.54-5.174 1.668v.64c2.199-.127 4.01-.768 5.303-1.794-.129-.128-.129-.256 0-.384M41.986 61.42c-1.293 1.026-2.845 1.667-5.303 1.923v-.64c2.458-.257 4.398-1.026 5.562-2.18-.13.513-.13.513-.259.897M39.14 63.855c1.164-.512 2.329-1.152 2.458-1.41-.13.514-.647 1.025-1.035 1.282-.388.257-.776.384-1.035.514-.258.127-2.587.64-2.587.511v-.64c-.13.129 1.94-.257 2.2-.257"/>
        <path fill="#714E46" d="M83.898 61.42c-.388-1.153-.906-2.307-2.2-2.692-2.458-.641-4.527.898-6.855 1.41-1.035.257-2.071.257-3.234.512-1.164.258-2.328.258-3.493.258-.518 0-1.552-.385-1.94 0-.519.256-.388 1.153-.259 1.665 0 .13 0 .257.13.257.257.897 1.293 1.665 2.197 2.18 1.813 1.025 3.881 1.025 5.822.896 1.424-.13 2.847-.384 4.14-.77.906-.255 1.94-.511 2.846-.768.775-.128 1.422 0 2.2-.384 1.422-.641 1.034-1.538.646-2.564"/>
        <path fill="#664640" d="M66.047 61.036v.512c1.163.77 2.845 1.154 4.785 1.025v-.512c-2.069.127-3.622-.256-4.785-1.025M66.047 62.445c.13.385.13.385.388.641 1.294.77 2.715 1.026 4.916.898v-.641c-2.329.256-4.141-.128-5.304-.898M72.256 64.625c0 .128-2.071.256-2.2.128-1.293-.128-2.458-.513-2.586-.641.258.383.774.769 1.293.897.388.127.775.257 1.035.257.259 0 2.587 0 2.587-.13l-.13-.511z"/>
        <path fill="#085EBD" d="M97.61 39.631c-1.553-5.51-7.374-11.022-12.03-14.227-2.459-1.666-5.175-3.973-8.15-2.307-1.034.641-2.07 1.538-2.846 2.564a8.91 8.91 0 0 0-1.553 4.23c-.516 5.895 8.15 8.843 11.126 13.201 2.974 4.358-.777 9.356-3.364 12.945-.259.257-2.975 2.69-2.975 2.69.776.386 1.812 2.564 2.199 3.334-.13-.13-.259-.384-.259-.512.519 1.153.906 2.305.647 3.587 1.812.258 4.269-.768 5.693-1.282 5.432-2.434 10.606-8.842 11.77-14.225.776-3.333.647-6.793-.259-9.998"/>
        <path fill="#085EBD" d="M81.44 64.625c-.388-1.923-1.035-5.127-2.329-6.793-.258-.257-1.681.896-1.94 1.153-.388.641 0 1.41.13 2.05.258 1.154.389 2.436 1.035 3.46.905 1.411 2.069.899 3.104.13.13 0 .13 0 0 0"/>
        <path fill="#D6D6D6" d="M84.286 60.139c-.13 0-.259.128-.388.128-.259.128-.388.256-.518.383a.617.617 0 0 0 0 .899c.259.256.647.128.906-.129.13 0 .259-.13.259-.13.388-.126.517-.51.388-.767.129-.256-.26-.514-.647-.384M88.684 57.575c-.258-.256-.646-.256-.905.128-.259.257-.388.384-.647.513-.388.128-.519.512-.388.77.13.382.516.512.776.382.518-.127.906-.511 1.294-.896.128-.256.128-.769-.13-.897M91.141 53.474c-.388-.129-.646.128-.776.512v.128l-.129.129a.618.618 0 0 0 0 .897c.259.256.647.256.905-.128.131-.129.26-.257.26-.385.129-.128.129-.256.258-.513.13-.256-.259-.64-.518-.64M79.37 26.942l-.777-.513c-.257-.128-.647-.128-.904.128-.13.257-.13.641.13.898l.774.512c.26.129.647.129.907-.128.259-.384.259-.769-.13-.897M83.121 29.121l-.647-.384c-.257-.129-.646-.129-.904.128-.13.256-.13.64.128.897l.647.385c.26.128.647.128.907-.129.258-.384.128-.769-.13-.897M86.226 32.069l-.13-.128h-.129c-.129-.257-.388-.513-.776-.385s-.517.385-.517.77c.13.384.388.64.776.896.259.129.647.129.906-.128.258-.512.129-.897-.13-1.025M90.236 36.299l-.258-.128c-.258-.129-.646-.129-.905.128-.13.256-.13.64.128.897l.259.128c.26.128.646.128.906-.128.26-.384.128-.769-.13-.897M92.953 41.426c-.259-.129-.647-.129-.905.128-.13.256-.13.64.128.897h.13c.13.256.388.513.776.513.387-.128.518-.385.518-.77-.13-.384-.259-.64-.647-.768M94.247 47.45c0-.129 0-.129 0 0v-.513c0-.385-.388-.513-.778-.513-.387.128-.516.384-.516.769v.513c0 .384.388.512.776.512.387-.128.647-.512.518-.769M93.859 50.27c-.13-.385-.39-.513-.778-.513-.386.128-.516.384-.516.769-.13.256 0 .64.258.769.258.128.646.128.905-.129.13-.128.13-.256.13-.512.13-.128 0-.257 0-.385M88.038 61.42c-.131-.256-.518-.384-.778-.256-.128.127-.387.256-.516.385l-.13.128c-.26.128-.517.384-.387.769.128.256.386.512.775.512.258 0 .389-.128.518-.256l.128-.13.131-.126s.128-.128.128 0c.13-.385.26-.641.13-1.026M92.565 57.062c-.13-.256-.517-.384-.777-.256-.387.256-.647.64-.906 1.026-.128.255-.128.641.13.896.26.128.648.128.906-.128.13-.256.258-.384.517-.513.13-.384.26-.769.13-1.025M95.54 51.423c-.388 0-.647.255-.647.641 0 .255-.13.385-.388.641-.13.255-.13.64.13.896.258.13.646.13.905-.127.259-.384.516-.769.516-1.282.13-.384-.128-.769-.516-.769M96.057 38.606c-.258-.129-.647-.129-.904.128-.131.128-.131.384-.26.512 0 .257.129.513.388.641.26.257.646.129.906-.128.129-.128.129-.256.129-.513.13-.128 0-.512-.26-.64M92.953 34.632a3.036 3.036 0 0 0-1.035-1.153c-.647-.385-1.293.64-.647 1.025.258.256.518.385.647.77.13.255.518.384.776.255.259-.256.388-.64.259-.897M88.684 30.403c-.389-.513-.777-1.154-1.293-1.538-.647-.513-1.294.64-.647 1.025.388.257.647.641.776 1.026.518.769 1.553.128 1.164-.513M83.768 26.43c-.258-.129-.647-.129-.904.128-.131.256-.131.64.128.897h.26c.128.256.387.512.775.384.258-.128.518-.384.518-.769a1.325 1.325 0 0 0-.777-.64"/>
        <path fill="#664640" d="M73.031 59.498c-.516-.257-.905-.513-1.422-.77-.13-.127-.387-.256-.518-.384-.259.513-.388 1.024-.516 1.41.257.385.647.641.904.896-.257.13-.388.13-.647.258 2.07.383 4.14-.258 6.08-.385-1.163-.128-2.587-.384-3.88-1.025"/>
        <path fill="#D6D6D6" d="M82.604 56.294c-.258-.257-.646-.13-.905.128l-.13.128c-.129 0-.129.128-.258.128h-.13c-.388.127-.517.513-.388.768.13.257.518.514.777.386a2.837 2.837 0 0 0 1.034-.641.616.616 0 0 0 0-.897M85.838 52.705c-.258-.13-.777 0-.905.255-.13.256-.388.514-.519.77a.618.618 0 0 0 0 .898c.26.255.647.255.907-.13.259-.383.647-.64.776-1.152.13-.13 0-.513-.259-.641M87.132 48.09c-.388 0-.647.385-.647.641v.256a.616.616 0 0 0 0 .898c.259.256.647.256.906-.129.257-.256.388-.769.388-1.153 0-.385-.259-.641-.647-.513M89.72 50.526c0-.13.128-.13.128-.256a.616.616 0 0 0 0-.898c-.26-.256-.646-.256-.906.129-.258.256-.516.64-.516 1.025 0 .384.388.64.646.64.388 0 .647-.256.647-.64M88.167 53.217c-.26-.256-.647-.256-.906.13-.259.383-.647.64-.776 1.152-.13.384.13.64.517.77.388.127.647-.13.776-.514v-.127l.389-.386c.388-.384.258-.769 0-1.025M84.415 57.062c-.388.13-.776.385-1.163.77a.612.612 0 0 0 0 .896c.258.257.647.257.905-.128l.128-.127.13-.13.13-.127h.128c.39-.129.52-.513.39-.77.13-.384-.259-.512-.648-.384M88.038 44.117c-.131-.384-.39-.512-.778-.512-.387.128-.516.384-.516.769l.13.512c.128.385.386.513.774.513.39-.128.519-.384.519-.769l-.13-.513zM91.66 46.04c-.131-.128-.26-.256-.26-.385-.129-.384-.387-.512-.775-.512-.39.128-.518.384-.518.769 0 .256.128.384.259.512l.13.129v.128c.129.256.517.384.775.256.388-.256.518-.64.388-.897M76.783 33.223l-1.035-.641c-.646-.384-1.293.64-.646 1.025l1.035.641c.646.385 1.422-.64.646-1.025M80.664 36.042l-1.164-.769c-.647-.384-1.294.641-.647 1.026l1.164.769c.647.512 1.294-.513.647-1.026M83.768 38.477l-.776-.512c-.259-.129-.647-.129-.906.128-.128.256-.128.64.13.897l.776.513c.26.128.647.128.907-.128.258-.385.128-.77-.131-.898M86.226 40.785l-.388-.257c-.259-.128-.647-.128-.905.129-.13.256-.13.64.129.897l.388.256c.259.128.647.128.906-.128.258-.256.129-.64-.13-.897M77.3 29.89c-.13-.128-.257-.128-.388-.256-.128-.128-.259-.256-.259-.256-.13-.257-.516-.385-.776-.257-.259.128-.517.513-.259.77.26.512.778.768 1.166 1.025.516.512 1.163-.513.516-1.026M81.18 31.813c-.387-.256-.775-.513-1.293-.385-.388 0-.516.385-.516.77.128.256.387.512.647.512h.128c.13 0 .259.128.388.256.259.129.647.129.905-.128 0-.512 0-.897-.258-1.025M84.286 34.376l-.647-.384c-.259-.128-.647-.128-.905.128-.13.256-.13.64.129.897l.647.385c.258.128.646.128.905-.129.259-.256.13-.64-.13-.897M87.26 37.196l-.258-.129c-.257-.128-.647-.128-.904.129-.13.256-.13.64.128.897l.259.128c.26.128.646.128.906-.128.258-.385.258-.77-.13-.897M90.236 40.785l-.388-.385c-.26-.128-.647-.128-.906.128-.13.257-.13.641.13.77.129.384.388.512.776.512.388-.128.518-.384.518-.769-.13 0-.13-.128-.13-.256"/>
        <path fill="#FFF" d="M26.851 43.732c-.517 0-1.035.129-1.293.641-.13.257-.13.641.258.77.26.128.647.128.777-.257h.258c.259 0 .518-.256.518-.513 0-.384-.259-.64-.518-.64M30.862 42.58h-.777c-.258 0-.517.255-.517.512 0 .256.259.512.517.512h.777c.258 0 .517-.256.517-.512 0-.257-.259-.513-.517-.513M36.165 41.554c-.13-.256-.517-.385-.776-.256-.13 0-.259.128-.388.128-.259 0-.388.128-.517.256-.26.128-.388.513-.26.77.13.255.518.384.777.255.13 0 .259-.128.388-.128.259 0 .388-.128.518-.256.258-.128.388-.513.258-.769M40.046 40.272c-.259-.256-.647-.256-.776 0h-.13c-.258 0-.517.257-.517.513s.259.513.518.513c.388 0 .646-.129.905-.385.259 0 .259-.384 0-.64M43.927 37.324c-.13 0-.259.128-.388.128-.26 0-.518.256-.518.513 0 .256.259.512.518.512.129 0 .388 0 .517-.128a.704.704 0 0 0 .388-.64c.13-.129-.13-.385-.517-.385M46.384 32.838c-.258 0-.517.256-.517.513 0 0 0 .128-.13.128-.258.256-.258.64 0 .769.26.256.647.256.777 0 .258-.256.517-.641.517-1.026 0-.128-.259-.384-.647-.384M48.713 28.096c-.26-.128-.647-.128-.777.256-.129.385-.388.641-.388 1.154 0 .256.26.513.518.513.388 0 .517-.257.517-.513v-.128c.13-.128.13-.257.259-.385.259-.512.13-.769-.13-.897M49.877 22.97c-.26 0-.518.256-.518.512l-.13.128c-.258.256-.258.64 0 .77.26.255.648.255.777 0 .259-.257.517-.642.517-1.026 0-.128-.258-.385-.646-.385M53.11 20.533h-.517c-.259.129-.517.385-.517.641 0 .257.258.513.517.513.13 0 .259 0 .388-.128h.13c.258 0 .517-.257.517-.513s-.259-.513-.517-.513M56.345 23.353c-.13-.384-.518-.64-.647-1.025-.13-.256-.518-.384-.776-.256-.26.128-.388.512-.26.769.13.384.518.64.648 1.025.129.257.517.385.776.257.388-.129.517-.513.259-.77M58.027 27.711v-.256c0-.257-.26-.513-.518-.513-.259 0-.647.256-.517.513 0 .128 0 .384.129.512v.257c0 .256.259.513.517.513.26 0 .647-.257.518-.513 0-.128 0-.385-.13-.513M59.19 32.197c-.129-.256-.129-.384-.129-.64 0-.257-.258-.513-.517-.513s-.518.256-.518.512c0 .513 0 .897.26 1.282.128.256.517.384.775.256.259-.256.259-.64.13-.897M61.26 36.299l-.517-1.026c-.13-.256-.517-.384-.776-.256s-.388.513-.259.77l.518 1.025c.129.256.517.384.776.256.258-.128.388-.513.258-.77M63.848 39.375c-.131 0-.131-.128-.26-.128 0 0-.128 0-.128-.129-.13 0-.13-.128-.26-.256-.258-.256-.646-.256-.777 0-.257.256-.257.641 0 .77.26.255.52.384.778.64.259.128.647.128.776-.256.259-.129.13-.513-.13-.641M68.504 41.426c-.259 0-.388-.129-.647-.129h-.259s-.257-.128-.129 0c-.259-.128-.647-.128-.775.257-.13.256-.13.64.258.769.389.256.905.256 1.293.384.647.129 1.036-1.025.259-1.281M72.772 42.067h-.904c-.258 0-.518.256-.518.512 0 .257.26.513.518.513h1.035c.259 0 .516-.256.516-.513 0-.256-.257-.512-.647-.512M78.206 42.963H77.17c-.259 0-.518.257-.518.513s.26.513.518.513h1.035c.258 0 .517-.257.517-.513s-.259-.513-.517-.513M81.18 44.245c-.257-.256-.646-.256-.775 0-.26.256-.26.513 0 .769 0 0-.128.128 0 .128-.128.257-.128.641.26.77.258.127.646.127.774-.257.131-.385.131-1.025-.258-1.41M24.91 45.783c-.258 0-.516.257-.516.513v.64c0 .257.258.514.517.514s.517-.257.517-.513v-.641c0-.256-.258-.513-.517-.513M27.11 49.244c0-.128-.13-.128-.13-.256-.258-.256-.646-.256-.775 0-.259.256-.259.64 0 .769 0 .128.13.128.13.256.128.257.258.257.517.257.258 0 .517-.257.517-.513s-.13-.385-.259-.513M31.896 51.808c-.388-.385-.905-.641-1.423-.641-.259 0-.517.256-.517.511 0 .386.258.514.517.514h.13c.129.127.258.127.388.256.258.257.646.257.776 0 .388 0 .388-.384.13-.64"/>
        <g transform="translate(21.25 76.308)">
            <mask id="v" fill="#fff">
                <use xlink:href="#u"/>
            </mask>
        </g>
        <path fill="#FFF" d="M35.906 53.601c-.258-.255-.646-.384-1.035-.384-.258 0-.517.256-.517.514 0 .256.259.511.517.511h.389c.258.13.517.13.776 0 .129 0 .129-.384-.13-.64M38.493 56.421c-.258-.384-.517-.769-1.034-.769-.26 0-.518.258-.518.513 0 .256.13.513.388.513l.13.128c.129.256.517.386.776.256.258-.128.388-.384.258-.64M37.847 66.547c-.13.512-.13 1.026-.13 1.41 0 .77 1.165.77 1.165 0 0-.384 0-.769.129-1.153.259-.641-.906-1.027-1.164-.257M37.459 70.263c-.388 0-.518.257-.518.513 0 .258-.129.64-.129 1.025 0 .257.259.514.518.514.388 0 .517-.257.517-.514 0-.256.13-.64.13-1.025.129-.256-.13-.513-.518-.513M38.752 75.263c-.129 0-.129-.129-.258-.129 0 0-.13 0-.13-.128-.129 0-.129-.128-.258-.256-.26-.256-.647-.256-.776 0-.26.256-.26.64 0 .769.258.256.517.384.776.64.258.129.646.129.776-.256.259-.128.13-.512-.13-.64M43.021 73.468c-.259-.255-.647-.255-.776 0l-.388.385h-.13c-.129 0-.129.127-.258.127-.259.128-.388.514-.259.77.13.256.517.385.776.256.388-.127.647-.512.906-.768.388-.13.388-.514.129-.77M47.16 69.623c-.517.385-1.034.77-1.552 1.153-.517.514.26 1.282.777.77l1.552-1.153c.647-.514-.259-1.282-.776-.77M50.782 67.316c-.258-.257-.646-.257-.776 0l-.13.13-.387.382c-.259.258-.259.641 0 .77.259.256.647.256.776 0l.13-.129.387-.383c.26-.258.26-.64 0-.77M54.404 65.522h-.647c-.258 0-.517.255-.517.511 0 .258.259.514.517.514h.647c.259 0 .518-.256.518-.514.129-.256-.26-.51-.518-.51M58.027 66.163c-.389-.386-.647-.513-1.165-.513-.258 0-.517.257-.517.513 0 .255.259.511.517.511l.13.13c.258.255.646.255.776 0 .388-.13.388-.513.259-.641M61.001 69.238c-.258-.511-.646-.769-1.164-.769-.258 0-.517.258-.517.513 0 .256.259.513.517.513l.13.128c.129.256.517.386.776.256.388 0 .517-.384.258-.64M63.848 71.545c-.131-.255-.26-.384-.518-.384-.26 0-.647.256-.517.514a.88.88 0 0 0 .904.897c.26 0 .519-.257.519-.514 0-.127-.13-.383-.388-.513M66.694 73.34h-.518c-.26 0-.518.256-.518.513 0 .256.258.512.518.512h.518c.257 0 .516-.256.516-.512.13-.257-.259-.513-.516-.513M69.669 72.827c-.259 0-.518.256-.518.512-.13.129-.13.258-.13.385v.256c0 .128.13.258.26.385.129 0 .129.13.257.13.13 0 .26 0 .26-.13.13 0 .13-.127.259-.257a1.39 1.39 0 0 0 .128-.64c.13-.385-.128-.641-.516-.641M69.539 68.982c-.258-.255-.647-.255-.777 0-.258.256-.258.64 0 .77v.127c0 .256.26.514.52.514.257 0 .515-.258.515-.514.13-.385 0-.641-.258-.897M69.928 57.703c0-.256-.259-.511-.518-.511-.26 0-.518.126-.518.383 0 0 0 .128-.129.128-.129.13-.129.256-.129.384 0 .257.258.513.516.513.26 0 .519-.127.519-.384 0 0 0-.129.128-.129.13-.128.13-.255.13-.384M73.031 54.114c-.258-.256-.646-.256-.776 0l-.129.129c-.257 0-.517.256-.517.512 0 .257.26.641.517.513.39 0 .647-.256.905-.513.26 0 .26-.384 0-.64M75.36 50.013c-.258.256-.516.512-.905.77-.258.127-.389.511-.258.768.128.256.516.384.775.256.388-.256.777-.64 1.165-.897.647-.641-.13-1.41-.777-.897M79.112 48.09c-.26-.256-.647-.256-.777 0l-.129.128c-.259.257-.259.641 0 .77.259.256.647.256.776 0l.13-.129c.129-.256.129-.64 0-.769"/>
    </g>
</svg>
