<svg xmlns="http://www.w3.org/2000/svg" xmlns:xlink="http://www.w3.org/1999/xlink" width="24" height="24" viewBox="0 0 24 24">
    <defs>
        <path id="a" d="M.375 11.25c0 .415.336.75.75.75h4.5V6.382H.375v4.869zm6 .75h4.5a.75.75 0 0 0 .75-.75V6.383h-5.25V12zm4.875-8.989H8.295c.234-.014.493-.08.7-.197A1.498 1.498 0 1 0 7.505.213c-.244.14-.422.317-.55.546L6 2.378 5.046.758a1.413 1.413 0 0 0-.551-.545 1.502 1.502 0 0 0-2.262 1.303c.005.54.3 1.036.772 1.298.207.118.466.183.7.197H.75a.75.75 0 0 0-.75.75v1.872h5.625v-2.62h.75v2.62H12V3.76a.75.75 0 0 0-.75-.749zm-7.428-.746H3.8a.931.931 0 0 1-.422-.102A.749.749 0 0 1 3.75.764c.13 0 .258.034.371.1a.676.676 0 0 1 .27.261l.004.007.004.007.664 1.126H3.822zm4.363 0H6.937L7.6 1.139l.004-.007.004-.007a.669.669 0 0 1 .27-.262.75.75 0 0 1 .744 1.3.931.931 0 0 1-.423.102h-.014z"/>
    </defs>
    <g fill="none" fill-rule="evenodd">
        <circle cx="12" cy="12" r="12" fill="#FF7900"/>
        <g transform="translate(6 6)">
            <mask id="b" fill="#fff">
                <use xlink:href="#a"/>
            </mask>
            <g fill="#FFF" mask="url(#b)">
                <path d="M0 0h12v12H0z"/>
            </g>
        </g>
    </g>
</svg>
