<svg xmlns="http://www.w3.org/2000/svg" xmlns:xlink="http://www.w3.org/1999/xlink" width="288" height="218" viewBox="0 0 288 218">
    <defs>
        <path id="a" d="M.355.559h25.504v17.708H.355z"/>
        <path id="c" d="M.121.252H4.95v4.2H.121z"/>
        <path id="e" d="M.121.252H4.95v4.2H.121z"/>
        <path id="g" d="M.145.065H1.57v.63H.145z"/>
        <path id="i" d="M.057.129h.88v.515h-.88z"/>
        <path id="k" d="M.644.538h.606v.644H.644z"/>
        <path id="m" d="M3.105 1.552h1.552v1.553H3.105z"/>
        <path id="o" d="M3.105 1.552h1.552v1.553H3.105z"/>
        <path id="q" d="M3.105 1.552h1.552v1.553H3.105z"/>
        <path id="s" d="M0 .447h145.158V141.32H0z"/>
        <path id="u" d="M3.105 1.552h1.552v1.553H3.105z"/>
    </defs>
    <g fill="none" fill-rule="evenodd">
        <path fill="#B5E8F7" d="M22.591 95.708c5.226-3.987 101.406-72.963 112.535-51.94 11.13 21.024-118.718 76.054-.618 35.245 118.1-40.81 148.398-45.756 129.848-22.26-18.55 23.497-34.626 50.085-13.603 50.085 21.023 0 48.847 22.26 31.535 33.389-17.313 11.13-42.665 21.023-29.062 29.061 13.603 8.039.618 16.077-6.183 19.787-6.802 3.71-142.215 25.97-175.604 22.878-33.39-3.092-83.474.618-51.32-16.695 32.152-17.313 59.977-43.283 37.098-35.863-22.877 7.42-55.648-3.091-32.152-20.404 23.496-17.314-62.451 2.473-2.474-43.283"/>
        <g transform="translate(189)">
            <circle cx="35" cy="35" r="35" fill="#32C832"/>
            <path fill="#FFF" fill-rule="nonzero" d="M20.581 28.354L14 34.936l16.83 16.83a1 1 0 0 0 1.44-.026l25.913-27.907-6.82-6.333-20.047 21.589-10.735-10.735z"/>
        </g>
        <g>
            <path fill="#D6D6D6" d="M233.022 133.816c-.934 0-1.552.62-1.552 1.552v1.552c-.313.621-.313 1.553.31 2.173.622.311 1.553.311 2.174-.31.62-.931.62-1.863.62-3.105 0-.93-.934-1.862-1.552-1.862"/>
            <path fill="#FFF" d="M188.625 81.349c-3.723-1.863-6.52-2.794-10.866-2.794-4.968-.31-10.246-2.174-15.21-.932-1.866.31-3.728 1.242-5.588 1.553-2.173.31-4.657.31-7.144.62-5.895.31-19.866.621-21.418 8.383-1.552 9.624 5.275 19.559 6.52 28.872 1.241 9.625.617 18.938.617 28.562 0 9.314-.617 17.076 7.451 23.595 6.52 5.278 15.526 7.762 23.595 7.451 7.762-.31 16.768-.31 22.977-6.209 4.343-4.346 3.722-7.14 3.105-12.729-.621-6.52.931-12.728.931-19.248.307-9.624 1.552-19.248 2.173-28.873.308-3.415.618-7.14.618-10.866.314-7.14-.931-13.97-7.761-17.385"/>
            <path fill="#BDBDBD" d="M190.182 113.947l4.8 28.717v-5.122-11.176c0-4.625.442-7.472 1.325-8.539l-6.125-3.88z"/>
            <path fill="#C8C6C6" d="M175.741 102.38c2.895 9.448 6.414 16.103 10.556 19.965 4.143 3.861 6.64 9.651 7.49 17.37l1.668-6.52-.593-13.548-19.12-17.267z"/>
            <path fill="#714E46" d="M164.1 71.415c-.313-2.484-.313-3.725-.62-5.899-.622-5.277-.932-10.555-.622-16.143-1.241 2.483-3.415 7.14-4.346 9.934-.934 3.415-3.415 7.14-6.83 7.451-3.725.31-8.382-4.346-9.314 1.552-.62 3.105-.931 11.487.31 14.281 1.863 4.347 7.452 3.726 10.867 3.416 3.104-.311 6.209-1.242 8.69-2.795 1.552-.931 3.104-2.173 3.728-3.725.928-1.863.621-2.794-.624-4.036-.618-.931-.928-2.484-1.239-4.036"/>
            <path fill="#714E46" d="M152.922 42.542c-3.105-.621-5.896-.31-9 .62-1.866.621-4.347.31-5.281 2.174-1.242 2.483-1.552 6.209-1.242 9.003.314 3.725.931 9.314 3.105 12.418.931 1.242 1.866 2.484 2.794 3.726.934 1.552 2.176 3.104 4.039 3.725 5.275 1.242 9.624-4.657 12.415-8.382 1.552-2.173.931-4.347 1.245-7.14.307-3.105 1.239-6.21 0-9.004-1.552-3.725-4.657-6.52-8.075-7.14"/>
            <path fill="#000" d="M152.613 51.544c-.932.31-1.863 0-2.794 0 .31 1.242.931 2.174 2.173 1.863.31 0 2.173-.931 3.415-1.242.31 0 .62-.31.62 0-.62-1.241-2.483-.62-3.414-.62M140.816 52.477c-.931 0-1.863-.31-1.863.931 0-.31 2.484.621 2.484.621h.931c.621-.31.932-.931 1.242-1.552h-2.794z"/>
            <path fill="#664640" d="M146.404 56.201c-.621.932-.31 2.484-.932 3.415 0 .31-.31.621-.931.932-.31.31-.932.62-.932 1.242-.93 2.483 2.795 1.862 3.726.62.931-.93 1.552-6.209-.931-6.209M152.613 64.584c0-.62-.621-.31-.31 0l.31 1.242c0 .621.62.31.31 0l-.31-1.242z"/>
            <g transform="translate(134.824 28.31)">
                <mask id="b" fill="#fff">
                    <use xlink:href="#a"/>
                </mask>
                <path fill="#000" d="M23.69 1.502c.31.621.617 1.553.31 2.174 0-.311-2.484-1.863-2.798-2.174-2.17-.931-4.964-1.242-7.14-.62-2.17.62-3.723 2.794-5.896 3.104-.62 0-2.483-1.242-3.104-.621-1.242 1.242.931 2.484 1.552 3.105-.931-.31-4.967 0-5.588.62-1.553 1.242.62 1.242.31 2.174 0 .931-1.242.931-.931 2.483.31 4.036 9.314 5.589 12.108 5.589.928 0 1.862-.31 2.794 0 .931.31 1.239.931 2.173.931 2.484-.62 4.036-3.105 4.657-5.278.931-2.483 3.415-4.657 3.722-7.761 0-1.242-.618-4.657-2.17-3.726" mask="url(#b)"/>
            </g>
            <path fill="#000" d="M143.61 39.437c-.621-.621-1.863-2.484-3.105-2.484-.31 0-.62 0-.931.31-.932.622-.31 2.484-1.552 2.795-1.242.31-2.795-2.173-3.415 0-.31.931.93 3.104 1.552 3.725 1.863 2.174 4.967 3.105 7.761 3.726 2.484.31 12.729-.31 10.866-4.657-4.346.931-8.382 0-11.176-3.415"/>
            <path fill="#000" d="M160.374 34.78c-2.173 0-3.104 4.346-3.725 5.588s-1.553 2.174-1.863 3.415c-.621 1.863-.31 1.863 1.242 2.794 2.794 1.553 3.104 5.278 3.104 8.072 1.242-.31 3.105-3.725 4.657-3.104 1.242.62.621 3.415 0 4.346 4.657-4.657 3.726-13.97 0-18.938-.931-.62-2.173-2.173-3.415-2.173"/>
            <path fill="#595959" d="M142.708 34.148c.095.174.136.367.125.556v.009c-.191-.19-.299-.479-.352-.734a1.305 1.305 0 0 1-.019-.121c.1.078.182.17.246.29m-1.664 3.429c.057.064.114.177.104.227-.006.03-.007.029-.04.06a.354.354 0 0 1-.12.045c-.248.057-.536-.076-.737-.21-.254-.168-.425-.44-.52-.737.48.062.987.253 1.313.615m3.41-6.341c-.28.03-.54.074-.8.187-.277.12-.528.29-.752.492-.39.35-.67.813-.79 1.32a1.684 1.684 0 0 0-.922-.03c-.371.096-.7.326-.964.598-.583.601-.915 1.451-.979 2.277-.012.152-.012.305.001.456-.696.021-1.38.282-1.73.901-.205.362-.28.8-.146 1.2.13.387.42.686.748.919.71.504 1.679.726 2.543.674.39-.025.804-.112 1.13-.339.21-.145.011-.492-.201-.344-.621.43-1.569.331-2.288.123-.39-.113-.787-.292-1.094-.545a1.573 1.573 0 0 1-.355-.394 1.039 1.039 0 0 1-.149-.436c-.03-.382.17-.805.498-1.042.32-.23.718-.313 1.11-.316.118.477.382.907.83 1.166.419.243 1.324.395 1.403-.29.038-.32-.277-.595-.501-.767a2.366 2.366 0 0 0-.664-.336 3.131 3.131 0 0 0-.733-.16 2.865 2.865 0 0 1 .034-.755c.129-.747.513-1.54 1.125-1.971.293-.207.59-.3.94-.267.047.005.156.029.231.051l.076.025c-.01.262.04.529.135.771.102.259.253.535.487.697.168.117.384.06.484-.112.1-.174.08-.4.05-.59-.072-.448-.348-.785-.728-1.002.017-.087.039-.172.066-.255.202-.625.744-1.16 1.356-1.393.267-.1.563-.13.847-.135a.79.79 0 0 1 .357.058c.114.055.156.158.18.279.047.253.432.145.385-.106-.113-.6-.714-.663-1.22-.61M159.097 39.577a1.045 1.045 0 0 1 .512.268c-.267.025-.559-.08-.788-.203-.036-.019-.071-.04-.105-.063a.927.927 0 0 1 .38-.002m1.557 3.48c.086-.003.21.026.242.066.019.024.017.023.02.07a.354.354 0 0 1-.044.12c-.115.226-.402.361-.633.43-.293.086-.611.042-.9-.077.357-.328.828-.592 1.315-.61m-2.665-6.689a2.63 2.63 0 0 0-.37.734c-.087.29-.118.592-.107.893.017.523.19 1.036.503 1.452a1.684 1.684 0 0 0-.616.688c-.165.346-.2.746-.161 1.123.085.833.523 1.633 1.115 2.214.108.106.225.205.35.291-.432.548-.671 1.24-.423 1.906.146.39.435.728.826.882.38.15.797.12 1.185.018.843-.22 1.636-.819 2.15-1.514.233-.316.432-.688.468-1.084.024-.255-.37-.325-.393-.067-.07.753-.755 1.414-1.377 1.831-.336.226-.73.415-1.12.489a1.573 1.573 0 0 1-.53.018 1.039 1.039 0 0 1-.43-.166c-.313-.222-.508-.647-.478-1.052.029-.393.221-.75.471-1.052.442.216.94.29 1.427.113.455-.165 1.154-.76.68-1.261-.221-.235-.634-.17-.91-.11a2.366 2.366 0 0 0-.684.293c-.207.122-.41.278-.593.459a2.865 2.865 0 0 1-.557-.511c-.49-.58-.85-1.383-.787-2.13.03-.357.15-.644.4-.89.033-.034.122-.102.188-.145.023-.016.046-.03.068-.043.194.176.43.31.676.393.264.088.573.15.848.074a.333.333 0 0 0 .225-.442c-.069-.189-.255-.32-.42-.417-.39-.233-.825-.239-1.235-.087a2.062 2.062 0 0 1-.153-.214c-.35-.557-.411-1.316-.196-1.935.095-.268.263-.514.441-.735a.79.79 0 0 1 .274-.237c.116-.051.221-.018.329.043.224.126.39-.239.166-.364-.531-.299-.966.12-1.25.542"/>
            <path fill="#595959" d="M162.159 36.558c-.188.062-.385.069-.57.026l-.008-.002c.22-.155.524-.211.784-.219.04-.001.082 0 .123.003a.927.927 0 0 1-.33.192m-3.087-2.235c-.073.045-.194.081-.242.063-.028-.011-.027-.012-.052-.05a.354.354 0 0 1-.023-.127c-.013-.253.168-.513.334-.688.21-.221.508-.342.817-.384-.144.463-.42.928-.834 1.186m5.653 4.46a2.63 2.63 0 0 0-.046-.82 2.787 2.787 0 0 0-.354-.827 2.574 2.574 0 0 0-1.162-1.006c.144-.278.213-.586.19-.904-.03-.382-.2-.746-.422-1.053-.49-.68-1.27-1.153-2.073-1.36a2.698 2.698 0 0 0-.449-.077c.1-.69-.038-1.41-.587-1.862-.32-.264-.74-.413-1.156-.35-.403.06-.75.294-1.035.576-.62.612-1.007 1.527-1.105 2.387-.043.39-.03.81.137 1.172.107.232.482.096.374-.138-.316-.687-.054-1.603.276-2.275.178-.364.425-.724.726-.983.144-.124.288-.216.45-.281.148-.058.318-.084.456-.07.382.035.763.306.94.67.171.356.183.762.118 1.148-.49.034-.96.22-1.293.615-.311.37-.619 1.236.042 1.433.31.093.635-.17.842-.36.184-.168.326-.38.447-.596.118-.209.215-.446.285-.694.251.02.505.08.737.164.713.257 1.428.773 1.746 1.45.153.325.193.633.1.972-.013.046-.056.15-.09.22l-.039.07a1.945 1.945 0 0 0-.782-.002c-.273.056-.57.157-.771.36a.333.333 0 0 0 .026.496c.154.129.38.148.572.151.454.007.834-.206 1.114-.542.082.03.162.067.239.108.581.308 1.014.934 1.137 1.578.052.28.03.577-.015.857a.79.79 0 0 1-.118.342c-.075.103-.183.126-.306.128-.257.003-.218.401.037.398.61-.007.777-.587.812-1.095M146.248 42.293a.814.814 0 0 1-.027.053c.016-.346.07-.69.153-1.027.04-.16.087-.32.152-.474-.003.01.024-.047.03-.058a.505.505 0 0 1 .036-.055l.01-.01a.979.979 0 0 1 .056-.058c.024-.025.05-.048.076-.072-.002.05-.007.1-.013.15l-.001.005-.003.016-.01.06a4.966 4.966 0 0 1-.094.408 8.674 8.674 0 0 1-.345 1.016l-.019.042-.001.004m-3.733 1.548c.014-.187.055-.372.108-.538.074-.23.194-.442.36-.627a.985.985 0 0 1 .12-.114c.01.051.01.111.004.185a1.371 1.371 0 0 1-.065.317c-.079.253-.238.463-.418.663a2.885 2.885 0 0 1-.11.114m5.97-5.395c-.058.232-.087.469-.143.702-.033.133-.064.266-.096.4-.096.398-.196.794-.308 1.19-.129.456-.273.909-.45 1.35-.145.366-.316.735-.567 1.05.012-.016-.043.048-.057.062a1.211 1.211 0 0 1-.078.076c-.067.059-.057.054-.147.099l-.024.01-.023.008a.721.721 0 0 1-.046.01.445.445 0 0 1-.063 0l-.028-.004-.01-.002a.012.012 0 0 0-.007-.003l-.017-.01-.023-.019-.02-.02-.016-.024c-.048-.071-.051-.088-.08-.184-.005-.021-.012-.041-.016-.062.087-.137.172-.275.256-.414.155-.26.255-.55.35-.833.098-.29.661-1.82-.123-1.7-.161.024-.303.17-.408.275a1.1 1.1 0 0 0-.243.388c-.152.379-.22.793-.267 1.192-.027.227-.065.643-.012 1.02a8.335 8.335 0 0 1-.667.9c-.352.405-.781.816-1.316 1.001-.44.153-.934.124-1.174-.289a1.066 1.066 0 0 1-.108-.265c.203-.153.377-.346.513-.51.316-.384.53-.87.449-1.363-.03-.178-.172-.349-.38-.341-.271.01-.466.267-.608.45-.31.4-.438.928-.434 1.414 0 .051.004.103.008.155a.82.82 0 0 1-.215.07c.038-.008-.077-.007-.059-.001a.522.522 0 0 1-.046-.011l-.006-.002-.012-.006c-.036-.017-.032-.015-.074-.062a.598.598 0 0 1-.077-.194 1.278 1.278 0 0 1-.014-.382c.024-.333.132-.664.231-.982.206-.658.488-1.3.905-1.865.165-.224.36-.428.578-.61.205-.168-.095-.446-.299-.278-.544.45-.925 1.045-1.211 1.663-.292.628-.538 1.315-.62 1.997-.047.4.016 1.02.542 1.114.16.029.314.006.46-.048.092.27.258.514.524.674.48.286 1.124.14 1.588-.095.537-.27.958-.713 1.324-1.159.125-.151.243-.31.356-.47.118.199.306.32.6.287.36-.043.607-.308.797-.575.25-.353.42-.76.573-1.156.24-.624.42-1.268.584-1.912.061-.243.12-.486.177-.73l.058-.237c.053-.21.075-.424.127-.634.061-.247-.346-.352-.408-.105M165.35 45.528a.814.814 0 0 1 .032.049 5.32 5.32 0 0 1-.813-.645 3.114 3.114 0 0 1-.335-.37c.006.008-.03-.044-.035-.055a.505.505 0 0 1-.03-.058l-.004-.014a.979.979 0 0 1-.022-.077c-.01-.033-.016-.068-.024-.102.042.027.083.056.122.086l.005.004.013.01.046.039a4.966 4.966 0 0 1 .306.285 8.674 8.674 0 0 1 .708.807c.01.012.018.025.027.037l.003.004m-.527 4.006a2.411 2.411 0 0 1-.41-.362 1.708 1.708 0 0 1-.364-.626.985.985 0 0 1-.039-.16c.05.017.101.047.163.088.089.06.167.135.241.215.18.195.283.438.366.694.015.048.03.1.043.151m-1.687-7.867c.172.167.363.31.536.475l.299.283c.297.282.59.567.876.862.33.34.651.691.946 1.065.244.308.478.64.624 1.015-.007-.018.02.062.026.081.01.035.019.07.026.106.018.087.019.076.013.177a.38.38 0 0 1-.003.026l-.005.023a.721.721 0 0 1-.014.042v.003a.445.445 0 0 1-.032.054l-.017.023-.007.008a.012.012 0 0 0-.006.004l-.017.01c.004-.003-.02.007-.028.01l-.028.007-.028.002c-.086.006-.102 0-.2-.023l-.062-.016a18.906 18.906 0 0 0-.23-.429c-.148-.265-.348-.495-.546-.72-.202-.23-1.247-1.483-1.535-.744-.06.152-.003.349.035.491a1.1 1.1 0 0 0 .215.405c.251.321.576.586.898.828.183.137.525.377.878.52.168.332.322.673.445 1.027.175.507.317 1.085.21 1.64-.089.458-.36.872-.838.873-.096 0-.191-.014-.284-.04-.03-.251-.11-.499-.185-.698-.174-.466-.488-.895-.955-1.07-.17-.064-.388-.026-.486.158-.127.24-.002.537.087.752.191.467.584.843 1.007 1.082.044.025.091.049.138.07a.82.82 0 0 1-.047.22c.012-.035-.045.065-.03.052a.522.522 0 0 1-.033.035l-.004.004-.011.007c-.033.023-.03.02-.092.033a.598.598 0 0 1-.207-.03 1.278 1.278 0 0 1-.337-.179c-.276-.187-.509-.446-.734-.691-.467-.507-.882-1.072-1.164-1.716a3.445 3.445 0 0 1-.238-.805c-.044-.262-.434-.14-.391.119.118.696.443 1.324.835 1.881.398.566.87 1.123 1.42 1.534.321.242.89.497 1.235.088a.867.867 0 0 0 .188-.421c.281.055.575.033.846-.118.487-.271.684-.903.712-1.422.034-.6-.139-1.186-.342-1.726a7.656 7.656 0 0 0-.228-.543c.23-.003.43-.105.547-.377.143-.332.037-.68-.099-.978-.18-.393-.447-.743-.715-1.074-.42-.52-.887-.998-1.364-1.462-.179-.174-.36-.346-.543-.518l-.176-.169c-.156-.15-.33-.277-.486-.427-.183-.176-.478.124-.295.301M149.138 32.188c-.148-.317-.255-.732-.15-1.082.486.484.727 1.216.786 1.91-.286-.19-.496-.528-.636-.828m-1.714 3.515c-.007.094-.02.187-.04.278a2.12 2.12 0 0 1-.632-.354c-.412-.318-.773-.792-.866-1.323a.96.96 0 0 1 .122-.653c.023-.038.031-.045.065-.079 0 .001.05-.028.041-.026.009-.004.019-.007.028-.009-.01.003.023-.004.031-.004l.033.003c.019.003.037.009.056.014.04.013.03.01.08.038.038.021.075.046.11.073.07.05.151.131.219.203.151.16.282.34.4.528.105.164.201.336.28.516 0 .002 0 .003.002.005l.004.011a.482.482 0 0 1 .02.069c.016.07.03.142.039.213.02.165.02.332.008.497m-3.303 1.708c-.335-.128-.63-.344-.625-.715 0-.049 0-.037.016-.092-.001.005.033-.056.018-.036.041-.053.055-.057.134-.079.13-.036.327-.01.487.026a2.995 2.995 0 0 1 .796.316 1.524 1.524 0 0 1 .154.1c.223.186.32.428.353.691-.45.01-.91-.049-1.333-.211m4.9-6.804c-.09-.07-.215-.01-.27.074-.327.49-.195 1.142.02 1.649.195.461.549.95 1.016 1.148-.02.737-.242 1.496-.745 2.021-.277.29-.631.466-1.026.532-.085.015-.168.02-.25.018.027-.126.044-.255.054-.383.02-.28.009-.619-.096-.881a3.578 3.578 0 0 0-.27-.53c-.23-.38-.517-.776-.895-1.008a.681.681 0 0 0-.538-.098c-.206.06-.345.251-.426.444-.225.537-.075 1.111.22 1.584.3.477.75.887 1.253 1.119.064.029.13.053.194.075-.148.354-.385.67-.68.902a1.911 1.911 0 0 1-.348.223c.012-.006-.06.023-.073.027a1.578 1.578 0 0 1-.317.072 1.49 1.49 0 0 0-.283-.748c-.254-.34-.656-.514-1.04-.646-.347-.12-.82-.235-1.155-.02-.362.234-.314.789-.087 1.102.265.367.711.54 1.128.638.342.08.7.117 1.054.108-.015.227-.055.455-.086.663-.016.11.025.219.137.25.095.028.226-.031.242-.142.04-.262.085-.532.099-.8.162-.02.326-.049.479-.109.269-.104.513-.3.719-.503.268-.264.47-.588.6-.94.264.02.531-.018.793-.104.836-.276 1.37-1.056 1.6-1.9.353-1.312.065-2.975-1.023-3.837"/>
            <path fill="#595959" d="M154.074 32.042c-.052-.256-.023-.526.143-.727a.88.88 0 0 1-.143.727m-2.933-.394a.978.978 0 0 1-.213.29l-.009.007a1.95 1.95 0 0 1 .453-1.173l-.002.023a2.276 2.276 0 0 1-.23.853m4.598-.353c-.316-.33-.833-.603-1.31-.528a1.98 1.98 0 0 0-.932-.854c-.542-.23-1.247-.16-1.763.088-.13-.606-.497-1.23-1.223-1.064-.549.126-.945.654-1.205 1.097-.252.43-.505 1.04-.32 1.54.089.24.474.106.385-.135a.638.638 0 0 1-.034-.218c0-.08.02-.2.041-.296a2.59 2.59 0 0 1 .27-.664c.202-.368.518-.8.942-.935a.53.53 0 0 1 .19-.017c.092.011.1.016.19.069-.03-.019.046.035.06.047l.035.033c-.017-.016.02.022.021.024.06.07.095.13.125.194.084.172.132.36.155.552-.333.255-.58.604-.72.997a2.587 2.587 0 0 0-.133 1.05c.008.1.118.199.226.18.856-.155 1.055-1.25 1.052-1.945 0-.027 0-.055-.002-.083.316-.184.691-.269 1.069-.25.51.026.948.31 1.2.736-.337.236-.45.694-.408 1.086.019.162.067.325.138.475.054.114.2.172.311.095.526-.362.637-.912.487-1.428.295 0 .64.215.824.388.34.316.483.789.53 1.225.049.454-.008.931-.176 1.356-.092.236.28.409.373.171.369-.936.352-2.203-.398-2.986"/>
            <g transform="matrix(-1 0 0 1 156.627 35.729)">
                <mask id="d" fill="#fff">
                    <use xlink:href="#c"/>
                </mask>
                <path fill="#595959" d="M3.139 2.783c-.05.163-.137.355-.228.474a.625.625 0 0 1-.336.253.4.4 0 0 1-.17.01c-.084-.017-.099-.03-.14-.078.03.035-.018-.048-.018-.036-.006-.024-.014-.07-.015-.06a.677.677 0 0 1 0-.103c.002-.041.004-.048.019-.108.088-.375.373-.74.685-.968.108-.08.22-.141.335-.18-.008.27-.053.54-.132.796m.904-1.13a1.127 1.127 0 0 0-.396-.109C3.593.973 3.373.421 2.802.284 2.286.162 1.736.408 1.306.682.872.958.454 1.334.189 1.785c-.016.027-.03.055-.044.083-.115.228.222.43.336.2.22-.435.624-.783 1.021-1.042.356-.232.898-.51 1.325-.318.144.064.206.147.287.31a1.808 1.808 0 0 1 .142.56c-.164.04-.325.114-.474.214-.38.255-.68.637-.853 1.066-.133.332-.145.78.201.98.346.2.772.029 1.018-.25.276-.313.408-.745.47-1.155.023-.147.038-.313.043-.485a.84.84 0 0 1 .309.114c.381.233.59.735.59 1.174 0 .198-.059.414-.174.555-.143.176-.351.25-.588.261-.25.012-.25.41 0 .4.434-.021.84-.222 1.029-.637.172-.38.15-.829.013-1.217-.142-.397-.414-.765-.797-.946" mask="url(#d)"/>
            </g>
            <g transform="translate(149.542 39.593)">
                <mask id="f" fill="#fff">
                    <use xlink:href="#e"/>
                </mask>
                <path fill="#595959" d="M3.139 2.783c-.05.163-.137.355-.228.474a.625.625 0 0 1-.336.253.4.4 0 0 1-.17.01c-.084-.017-.099-.03-.14-.078.03.035-.018-.048-.018-.036-.006-.024-.014-.07-.015-.06a.677.677 0 0 1 0-.103c.002-.041.004-.048.019-.108.088-.375.373-.74.685-.968.108-.08.22-.141.335-.18-.008.27-.053.54-.132.796m.904-1.13a1.127 1.127 0 0 0-.396-.109C3.593.973 3.373.421 2.802.284 2.286.162 1.736.408 1.306.682.872.958.454 1.334.189 1.785c-.016.027-.03.055-.044.083-.115.228.222.43.336.2.22-.435.624-.783 1.021-1.042.356-.232.898-.51 1.325-.318.144.064.206.147.287.31a1.808 1.808 0 0 1 .142.56c-.164.04-.325.114-.474.214-.38.255-.68.637-.853 1.066-.133.332-.145.78.201.98.346.2.772.029 1.018-.25.276-.313.408-.745.47-1.155.023-.147.038-.313.043-.485a.84.84 0 0 1 .309.114c.381.233.59.735.59 1.174 0 .198-.059.414-.174.555-.143.176-.351.25-.588.261-.25.012-.25.41 0 .4.434-.021.84-.222 1.029-.637.172-.38.15-.829.013-1.217-.142-.397-.414-.765-.797-.946" mask="url(#f)"/>
            </g>
            <path fill="#595959" d="M140.355 37.211c.061-.195-.269-.277-.33-.083-.05.157-.013.311.063.456.04.077.159.097.234.057.085-.046.101-.138.061-.216a.27.27 0 0 1-.028-.214M140.314 35.145c-.076-.044-.194-.022-.234.061a.686.686 0 0 0-.069.314c0 .094.078.17.17.17a.172.172 0 0 0 .172-.17l.001-.075c.002 0 .006-.029.009-.036l.005-.016.007-.015c.04-.083.023-.183-.061-.233M157.048 37.309c-.21-.206-.482-.381-.772-.56-.103-.063-.284-.06-.359-.012-.089.056-.044.137.06.201.218.135.445.273.604.43a.424.424 0 0 0 .343.11c.115-.015.2-.095.124-.17M161.12 41.833c.076-.063.067-.186-.048-.245a2.085 2.085 0 0 0-.962-.234c-.316-.005-.243.342.074.347.208.004.408.038.59.133.115.06.259.07.346-.001M163.357 43.202c-.092-.135-.163-.275-.28-.39-.066-.064-.18-.047-.236.018-.062.073-.045.17.02.234.09.09.15.22.223.328.122.177.395-.014.273-.19M165.074 45.567c-.069-.14-.137-.283-.233-.41-.125-.169-.402.006-.276.175.08.105.134.222.191.338.039.078.13.125.22.096.083-.027.136-.12.098-.2"/>
            <g transform="rotate(100 63.23 93.704)">
                <mask id="h" fill="#fff">
                    <use xlink:href="#g"/>
                </mask>
                <path fill="#595959" d="M1.404.347C1.06.299.754.172.433.074.318.039.183.11.153.194c-.035.097.045.174.16.21.322.098.624.224.97.272.287.04.41-.289.121-.329" mask="url(#h)"/>
            </g>
            <path fill="#595959" d="M162.221 44.098a1.034 1.034 0 0 0-.149-.263c-.061-.086-.126-.171-.232-.203-.087-.026-.178.053-.193.135-.017.097.048.167.135.193a.128.128 0 0 1-.06-.027l.011.01.004.004.003.003a1.317 1.317 0 0 1 .139.2.284.284 0 0 1 .03.064c.027.086.13.129.214.099a.169.169 0 0 0 .098-.215M160.66 42.938l-.149-.211a.172.172 0 0 0-.237-.042.171.171 0 0 0-.042.238l.147.21a.173.173 0 0 0 .238.043.173.173 0 0 0 .042-.238M136.455 35.767c-.121.097-.252.176-.373.273-.151.12-.011.416.141.295.122-.097.252-.177.374-.273.15-.12.01-.416-.142-.295M137.87 34.477c-.078-.079-.16-.02-.212.093-.112.254-.218.514-.33.767-.05.113-.01.29.056.356.079.078.161.02.212-.093.111-.253.218-.513.33-.767.05-.113.011-.291-.055-.356M140.174 31.975l-.183.182a.172.172 0 0 0 0 .241.173.173 0 0 0 .242 0l.182-.181a.173.173 0 0 0 0-.242.171.171 0 0 0-.241 0M137.17 39.792a.992.992 0 0 1-.337-.085c-.172-.069-.246.26-.074.329.132.053.27.094.41.097.182.005.181-.337 0-.341M140.411 40.485a1.244 1.244 0 0 1-.295-.165c-.071-.05-.172-.015-.214.062a.183.183 0 0 0 .056.233c.117.085.238.15.37.2.08.03.17-.034.192-.12a.176.176 0 0 0-.109-.21M140.062 42.34c-.049.292-.052.59-.052.887 0 .307.342.307.342 0 0-.254-.003-.511.04-.76.05-.3-.28-.426-.33-.127M140.46 45.57c-.14-.155-.242-.37-.305-.643-.028-.123-.09-.21-.17-.172-.066.033-.125.179-.096.304.091.394.227.71.431.937.153.167.291-.26.14-.427"/>
            <g transform="translate(141.814 46.034)">
                <mask id="j" fill="#fff">
                    <use xlink:href="#i"/>
                </mask>
                <path fill="#595959" d="M.771.303A2.18 2.18 0 0 1 .27.263c-.214-.05-.305.28-.09.33C.373.638.57.644.77.644c.22 0 .22-.341 0-.341" mask="url(#j)"/>
            </g>
            <path fill="#595959" d="M145.999 45.458c-.26.059-.509.137-.776.182-.331.057-.19.386.14.33.267-.046.516-.124.777-.182.32-.072.183-.402-.141-.33M143.424 40.275a.172.172 0 0 0-.17.17v.228c0 .093.076.171.17.171.093 0 .17-.078.17-.17v-.229a.172.172 0 0 0-.17-.17M144.238 43.122a.168.168 0 0 1-.11-.046.289.289 0 0 1-.073-.143c-.053-.21-.356-.12-.303.089.062.245.243.428.486.436.203.006.202-.33 0-.336M144.63 40.95a.75.75 0 0 0-.16.432c-.004.192.338.191.342 0a.487.487 0 0 1 .114-.282c.12-.162-.176-.31-.295-.15M146.867 38.366c-.078-.045-.19-.02-.234.062l-.007.011-.018.025c-.016.018-.035.033-.054.05a.196.196 0 0 0-.013.008l-.041.028a.851.851 0 0 1-.079.044c-.082.042-.106.157-.06.234.048.083.15.103.233.06.128-.065.264-.159.334-.288a.174.174 0 0 0-.06-.234M149.37 36.418a.94.94 0 0 0-.429.271c-.13.152.066.393.196.241a.664.664 0 0 1 .307-.183c.172-.056.099-.386-.074-.33M151.956 35.836a.908.908 0 0 0-.399.114c-.082.041-.105.157-.06.234.049.084.148.102.23.061a.477.477 0 0 1 .23-.068c.215-.004.216-.345 0-.341M153.982 35.97a.754.754 0 0 0-.432-.16c-.191-.005-.19.336 0 .34a.487.487 0 0 1 .282.114c.162.12.31-.176.15-.295M139.746 38.48c-.113 0-.227.002-.336-.039-.173-.065-.247.265-.075.33.132.049.273.05.41.05.182 0 .182-.34 0-.34M142.239 37.77a.49.49 0 0 1-.282.113c-.191.005-.191.346 0 .342a.757.757 0 0 0 .432-.16c.16-.12.011-.416-.15-.295M141.64 35.915a.172.172 0 0 0-.17-.17.172.172 0 0 0-.17.17.82.82 0 0 0 .068.36c.04.083.159.104.234.06.085-.05.1-.15.06-.233-.026-.058-.021-.114-.021-.187M144.082 32.554c-.3.055-.578.15-.854.245-.286.098-.035.393.25.295a4.99 4.99 0 0 1 .736-.21c.309-.057.177-.387-.132-.33M144.155 33.835c-.114.085-.217.188-.332.273a.184.184 0 0 0-.056.233c.04.076.143.114.213.062.115-.086.218-.188.333-.273.07-.053.1-.15.056-.234-.041-.076-.143-.114-.214-.061M146.66 30.645c-.2.275-.317.618-.323 1.001-.004.291.337.29.342 0a1.17 1.17 0 0 1 .223-.682c.153-.21-.089-.53-.241-.319M151.21 30.645c-.12-.16-.415-.012-.296.15.075.101.122.21.166.322.069.181.399.104.33-.079a1.598 1.598 0 0 0-.2-.393M148.465 31.872c-.085-.03-.182.032-.205.109-.025.087.031.163.117.192a.33.33 0 0 1 .194.225c.056.194.378.111.32-.084a.66.66 0 0 0-.426-.442M155.875 31.469c-.12-.05-.23-.132-.35-.182-.076-.031-.16.034-.18.119a.18.18 0 0 0 .102.21c.12.05.23.132.35.182.075.031.16-.034.18-.12a.179.179 0 0 0-.102-.21M157.05 32.59c-.04-.082-.159-.103-.234-.06-.085.05-.102.146-.062.229-.01-.022.013.033.014.04l.017.067c.013.056.026.11.043.164a.173.173 0 0 0 .21.116c.087-.023.148-.118.12-.205-.039-.117-.054-.238-.109-.351M151.288 34.524a.585.585 0 0 0-.393.187.172.172 0 0 0 0 .241.173.173 0 0 0 .241 0 .323.323 0 0 1 .102-.076.181.181 0 0 1 .02-.006l.017-.004h.013a.173.173 0 0 0 .172-.171.172.172 0 0 0-.172-.17M150.644 44.185a.585.585 0 0 0-.393.187.172.172 0 0 0 0 .241.173.173 0 0 0 .241 0 .323.323 0 0 1 .102-.076.181.181 0 0 1 .02-.006l.017-.004h.013a.173.173 0 0 0 .172-.171.172.172 0 0 0-.172-.17M149.356 40.32a.585.585 0 0 0-.393.187.172.172 0 0 0 0 .242.173.173 0 0 0 .241 0 .323.323 0 0 1 .102-.076.181.181 0 0 1 .02-.006l.017-.004.013-.001a.173.173 0 0 0 .172-.17.172.172 0 0 0-.172-.171M157.085 41.609a.585.585 0 0 0-.394.187.172.172 0 0 0 0 .241.173.173 0 0 0 .242 0 .323.323 0 0 1 .102-.076.181.181 0 0 1 .02-.006l.016-.004h.014a.173.173 0 0 0 .171-.172.172.172 0 0 0-.171-.17M160.95 44.83a.585.585 0 0 0-.394.186.172.172 0 0 0 0 .241.173.173 0 0 0 .241 0 .323.323 0 0 1 .102-.076.181.181 0 0 1 .02-.006l.017-.004h.013a.173.173 0 0 0 .172-.171.172.172 0 0 0-.172-.17M159.661 49.982a.585.585 0 0 0-.393.186.172.172 0 0 0 0 .242.173.173 0 0 0 .241 0 .323.323 0 0 1 .102-.076.181.181 0 0 1 .02-.006l.017-.004h.013a.173.173 0 0 0 .172-.172.172.172 0 0 0-.172-.17M163.526 46.761a.585.585 0 0 0-.394.187.172.172 0 0 0 0 .242.173.173 0 0 0 .242 0 .323.323 0 0 1 .101-.076.181.181 0 0 1 .02-.007l.017-.004h.014a.173.173 0 0 0 .171-.171.172.172 0 0 0-.171-.17M162.238 39.033a.585.585 0 0 0-.394.186.172.172 0 0 0 0 .242.173.173 0 0 0 .242 0 .323.323 0 0 1 .101-.076.181.181 0 0 1 .02-.007l.017-.003.014-.001a.173.173 0 0 0 .17-.17.172.172 0 0 0-.17-.171M160.95 40.965a.585.585 0 0 0-.394.187.172.172 0 0 0 0 .241.173.173 0 0 0 .241 0 .323.323 0 0 1 .102-.076.181.181 0 0 1 .02-.006l.017-.004h.013a.173.173 0 0 0 .172-.172.172.172 0 0 0-.172-.17M165.458 40.965a.585.585 0 0 0-.394.187.172.172 0 0 0 0 .241.173.173 0 0 0 .242 0 .323.323 0 0 1 .102-.076.181.181 0 0 1 .02-.006l.016-.004h.014a.173.173 0 0 0 .171-.172.172.172 0 0 0-.171-.17M154.509 43.541a.585.585 0 0 0-.394.187.172.172 0 0 0 0 .241.173.173 0 0 0 .242 0 .323.323 0 0 1 .102-.076.181.181 0 0 1 .02-.006l.016-.004h.014a.173.173 0 0 0 .171-.171.172.172 0 0 0-.171-.171M153.256 34.636c-.07 0-.17.011-.223-.04-.148-.15-.37.091-.22.24.124.126.28.141.443.141.201 0 .201-.341 0-.341M144.038 38.46a.498.498 0 0 1-.034.033h-.001c-.003.003-.006.004-.01.006h-.002a.34.34 0 0 0-.014.003.172.172 0 0 0-.17.17c0 .092.077.173.17.171a.43.43 0 0 0 .303-.141.173.173 0 0 0 0-.242.173.173 0 0 0-.242 0M149.22 33.236a.173.173 0 0 0-.17.17v.137c0 .093.077.17.17.17a.172.172 0 0 0 .171-.17v-.137a.173.173 0 0 0-.171-.17M152.495 30.01c-.1-.178-.395-.02-.295.158.055.098.124.19.165.294.031.08.116.132.21.109.085-.022.15-.112.12-.192-.051-.13-.131-.246-.2-.368M147.79 44.87c-.155.266-.363.52-.642.646-.124.055-.212.17-.172.321.032.123.18.238.303.182.407-.181.707-.49.937-.886.167-.287-.26-.55-.426-.264M156.486 36.38c-.094-.027-.179.03-.21.115a.512.512 0 0 1-.076.136.479.479 0 0 1-.051.044s-.05.022-.026.014c-.088.03-.146.111-.12.204.023.082.123.147.21.116.203-.072.324-.234.393-.426.03-.086-.035-.181-.12-.204M140.774 33.893c-.053.128-.129.249-.182.376-.072.172.258.245.33.075.053-.128.128-.248.181-.376.072-.172-.257-.245-.329-.075M137.637 41.643a4.267 4.267 0 0 0-.332 1.568c-.003.33.326.328.33 0a3.55 3.55 0 0 1 .287-1.311c.116-.276-.169-.531-.285-.257"/>
            <g transform="translate(134.729 39.593)">
                <mask id="l" fill="#fff">
                    <use xlink:href="#k"/>
                </mask>
                <path fill="#595959" d="M1.077.705C1.06.69 1.041.68 1.023.669 1.016.665 1.01.66 1.003.657 1.002.653.98.637.974.632a.195.195 0 0 0-.272 0 .194.194 0 0 0 0 .273c.04.04.087.073.135.103a.193.193 0 0 0 .183.136c.102 0 .197-.088.194-.194a.306.306 0 0 0-.136-.245" mask="url(#l)"/>
            </g>
            <path fill="#714E46" d="M163.788 51.235c-2.791-2.173-3.722 4.657-3.105 6.21.314.93 2.795-1.863 3.105-2.174.62-.931 1.242-3.104 0-4.036"/>
            <path fill="#664640" d="M163.17 53.097c-.314.62-.314.931-.621 1.552h.62c.311-.31.932-1.242 0-1.552M140.816 64.584v.932c0 .31.31.31.31 0v-.932c.31-.31-.31-.31-.31 0"/>
            <g transform="translate(51 211.48)">
                <mask id="n" fill="#fff">
                    <use xlink:href="#m"/>
                </mask>
            </g>
            <path fill="#D6D6D6" d="M141.747 143.13c-.621 0-1.242.62-1.242 1.241v.31c0 .311-.31.622-.621.932-.31.621-.31 1.552.62 1.863.622.31 1.553.31 1.864-.621.31-.931.931-1.552.931-2.484-.31-.62-.931-1.242-1.552-1.242M142.679 133.196c-.62 0-1.242.62-1.242 1.242v1.862c0 .621.621 1.242 1.242 1.242s1.242-.62 1.242-1.242v-1.862c.31-.621-.31-1.242-1.242-1.242M140.816 120.777c-.62.31-.931 1.242-.62 1.863.31.621.31.932.31 1.552 0 .621.62 1.242 1.241 1.242.621 0 1.242-.62 1.242-1.242 0-.93 0-2.173-.62-3.104 0-.621-.932-.621-1.553-.31M139.264 109.29c-.621.62-.621 1.242 0 1.863v.62c0 .621.62 1.242 1.242 1.242.62 0 1.241-.62 1.241-1.241 0-.932 0-1.863-.931-2.484-.31-.31-1.242-.31-1.552 0M136.47 95.009c-.931-1.553-3.105 0-2.173 1.241.62.932.931 2.174 1.552 3.415.62 1.553 3.105.932 2.484-.62-.621-1.242-.932-2.795-1.863-4.036M142.058 90.662s-.311 0 0 0c-.311-.62-.311-.93-.311-.93-.31-.622-.931-.932-1.863-.932-.62 0-1.242.62-1.242 1.242 0 .62.31.93.932 1.241v.31c0 .311.31.622.31.622.31.62 1.242.931 1.863.62.31-.62.621-1.241.31-2.173 0 .31 0 0 0 0M144.851 98.424c-.31-.931-.62-1.242-1.242-1.242-.62 0-1.241.621-1.241 1.242 0 .31 0 .62.31.931v.621c0 .621.621 1.242 1.242 1.242.62 0 1.242-.62 1.242-1.242 0-.31 0-.931-.31-1.242.31 0 0 0 0-.31M146.093 106.807c-.621 0-1.242.62-1.242 1.242 0 .62.31.931.62 1.242v.31c0 .62.622 1.242 1.243 1.242.62 0 1.242-.621 1.242-1.242s-.31-.931-.31-1.552c0-.932-.622-1.242-1.553-1.242M147.336 115.81c-.621.62-.621 1.242 0 1.863v.62c0 .621.62 1.242 1.242 1.242.62 0 1.238-.62 1.238-1.242 0-.93 0-1.862-.928-2.483-.31-.31-1.242-.31-1.552 0M149.199 126.054c-.621 0-1.242.621-1.242 1.242v1.552c0 .621.621 1.242 1.242 1.242.618 0 1.239-.62 1.239-1.242v-1.552c.313-.62-.308-1.242-1.239-1.242M148.577 137.542c-.62 0-1.241.62-1.241 1.242v1.552c0 .62.62 1.242 1.241 1.242.621 0 1.24-.621 1.24-1.242v-1.552c0-.621-.619-1.242-1.24-1.242M148.577 147.166c-.62-.31-1.552-.31-1.862.621-.31.932-.932 1.553-.932 2.484 0 .62.621 1.242 1.242 1.242s1.239-.621 1.239-1.242c0-.31.313-.621.624-.931.31-.932.31-1.863-.31-2.174M154.787 151.512c-.621 0-1.242.621-1.242 1.242v.31c-.31.311-.624.932-.31 1.553.31.62.93.931 1.238.931.624 0 1.245-.62 1.552-1.241v-1.553c0-.62-.618-1.242-1.238-1.242M155.096 142.82c-.621.932-.932 1.863-.932 2.794 0 .621.621 1.242 1.245 1.242.618 0 1.24-.62 1.24-1.242v-1.241c.313-.621.313-1.242 0-1.863 0-.31-.932-.31-1.553.31M156.96 128.85c-.62 0-1.241.62-1.241 1.241v1.553c0 .62.62 1.242 1.241 1.242.618 0 1.24-.621 1.24-1.242v-1.553c0-.62-.622-1.241-1.24-1.241M164.41 125.434c-.621 0-1.24.621-1.24 1.242s.308 1.552.308 2.173.621 1.242 1.245 1.242c.618 0 1.239-.62 1.239-1.242 0-.62-.31-1.552-.31-2.173 0-.62-.622-1.242-1.242-1.242M164.41 137.542c-.621 0-1.24.62-1.24 1.242v1.862c0 .621.619 1.242 1.24 1.242.62 0 1.241-.62 1.241-1.242v-1.862c0-.621-.62-1.242-1.241-1.242M162.236 149.65c0 .932 0 1.864-.31 2.792-.622 1.552 2.176 2.484 2.483.624.313-1.245.313-2.176.313-3.415 0-1.866-2.486-1.866-2.486 0"/>
            <path fill="#000" d="M154.787 54.96c-.932-.621-1.866-.621-2.795-.31-.624.31-1.241.93-.93 2.793h.93c0-.93 0-1.862.621-2.173.621-.31 1.242-.31 1.86.31.624.311.934 1.243.624 1.863h.928c0-.93-.618-1.862-1.238-2.483M143.299 55.581c-.62-.62-1.863-.62-2.484-.31-.31.31-1.241.931-.931 2.484h.62c0-.932 0-1.553.622-1.863.31-.31.931-.31 1.552.31.621.31.931.932.621 1.553h.62c.311-.621 0-1.553-.62-2.174"/>
            <path fill="#FFF" d="M142.988 64.584c.932 2.794 1.242 3.726 2.173 3.726 2.795 0 5.278-1.863 5.589-4.036-.932.31-7.451.62-7.762.31"/>
            <path fill="#A44C57" d="M143.61 66.137c.31.931.931 2.173 1.242 2.173.931 0 2.483 0 3.725-.621.931-.621 1.863-1.863 1.863-1.863-1.242.31-5.899.31-6.83.31"/>
            <path fill="#B65F67" d="M147.025 66.758c-.931 0-2.173.932-2.173 1.552 0 .31 1.863 0 1.863 0 .931-.31 1.549-.62 2.483-1.241-.31-.31-1.552-.31-2.173-.31"/>
            <g transform="translate(51 211.48)">
                <mask id="p" fill="#fff">
                    <use xlink:href="#o"/>
                </mask>
            </g>
            <g transform="translate(51 211.48)">
                <mask id="r" fill="#fff">
                    <use xlink:href="#q"/>
                </mask>
            </g>
            <path fill="#D6D6D6" d="M171.24 156.17c-.62-.311-1.552-.311-1.863.62-.62.932-.62 2.173-.62 3.415 0 1.863 2.794 1.863 2.794 0v-1.242c0-.31 0-.62.31-.931 0-.931 0-1.552-.62-1.863M170.31 143.13v2.794c0 1.862 2.79 1.862 2.79 0v-2.795c-.307-1.862-2.79-1.862-2.79 0M171.55 130.091c-1.863 0-1.863 2.794 0 2.794 1.865 0 1.865-2.794 0-2.794M179.932 129.159c-.62-.31-1.552-.31-1.862.62-.31.622-.31 1.553.624 1.864H179c-.307.62 0 1.241.62 1.862.625.31 1.553.31 1.864-.62.313-.622.313-1.553.313-2.174-.624-.62-1.245-1.242-1.866-1.552M178.38 144.682c-.62 0-1.239.62-1.239 1.242v2.483c0 .621.618 1.245 1.24 1.245.62 0 1.24-.624 1.24-1.245v-2.173c.311-.931-.31-1.552-1.24-1.552M184.902 142.199v3.104c0 1.863 2.79 1.863 2.79 0V142.2c-.307-1.553-2.79-1.553-2.79 0"/>
            <path fill="#085EBD" d="M166.583 76.072c-2.173 4.346-6.83 5.899-11.487 6.83-2.483.62-5.588.62-8.071-.31-1.242-.311-2.484-.932-3.105-1.863-.931-1.242-1.863-1.553-3.105 0 .621 1.862 2.794 4.346 4.968 5.278 4.346 2.173 12.728.93 17.385-1.242 1.553-.932 3.105-2.174 4.036-3.415.621-.621 1.863-3.105 1.242-3.726-.31-.62-1.552-1.863-1.863-1.552"/>
            <path fill="#D6D6D6" d="M145.162 82.59c-1.863.31-1.552 2.794.31 2.794 1.863 0 1.553-2.794-.31-2.794M151.991 84.453c0-.31-.31-.62-.62-.62-.311-.622-.932-.622-1.243-.622-.62 0-1.241.621-1.241 1.553 0 .62.313.931.62.931.311.31.621.621 1.245.621.618 0 1.24-.62 1.24-1.552v-.31zM157.579 84.764c0-.31-.31-.31-.31-.62v-.311c0-.621-.622-.932-1.242-.932-.618 0-1.24.621-1.24 1.242 0 .932.308 1.552.622 2.173.307.621 1.238.621 1.86.31.623-.62.623-1.241.31-1.862M161.305 81.97h-.31c-.621 0-1.242.621-1.242 1.553 0 .62.62 1.241 1.552 1.241h.313c.618 0 1.24-.62 1.24-1.552 0-.931-.622-1.242-1.553-1.242M166.893 79.176c-.31-.62-.932-1.241-1.553-.93-.618 0-1.238.62-1.238 1.551 0 .31 0 .621.307.932 0 .31.313.31.62.62.625.622 1.553.311 1.864-.31.62-.31.62-1.242 0-1.863"/>
            <path fill="#085EBD" d="M188.937 167.345c-12.108 5.277-28.255 1.241-40.36-1.553-1.552-.31-12.728-4.967-11.487-6.827-4.035 7.14 1.242 11.174 7.451 13.036 8.693 2.487 17.693 4.97 27.007 5.278 7.144 0 15.216-.931 21.732-4.036 4.04-1.86 2.177-5.898 1.245-9.314-1.863 1.553-3.725 2.484-5.588 3.416"/>
            <path fill="#D6D6D6" d="M185.52 169.21c-.618 0-1.239.62-1.239 1.238V171.382c0 .31 0 .618-.313.932-.31.62 0 1.238.934 1.552.618.31 1.552 0 1.552-.931.308-.621.308-1.553.308-2.174 0-.931-.621-1.552-1.242-1.552M179.31 169.83c-.617-.313-1.551 0-1.551.932-.31.931-.31 1.86 0 2.791 0 .621.934 1.245 1.552.935.62 0 1.242-.935.934-1.553v-1.242c0-.931-.313-1.862-.934-1.862M170.619 170.761c-.31.621-.31 1.24-.31 1.863 0 .621.93 1.242 1.551.928.625 0 1.242-.928.932-1.552v-.307c.31-.621 0-1.245-.307-1.553-.625 0-1.245 0-1.866.621M167.826 168.588c-.62-.31-1.552 0-1.552.931 0 .31-.313.62-.313 1.242v.931c-.308.621 0 1.242.93 1.552.622.31 1.553 0 1.553-.93 0-.311.314-.622.314-1.243v-.931c0-.621-.314-1.242-.932-1.552M160.065 168.588c-.62 0-1.242.931-.935 1.552v.31c-.307.621 0 1.242.314 1.553.621.31 1.552.31 1.86-.31.313-.622.313-1.243.313-1.864-.313-.931-.934-1.241-1.552-1.241M153.234 169.21c-.313.62-.313 1.551-.313 2.172 0 .618.934 1.242 1.552.932.624 0 1.245-.932.934-1.553v-.62c.31-.621 0-1.245-.62-1.553-.314-.31-1.242 0-1.553.621M149.199 166.105c-.621 0-1.242.62-1.242 1.238l-.31 2.487c0 .618.617 1.242 1.238 1.242.624 0 1.245-.624 1.245-1.242l.308-2.487c0-.307-.621-.928-1.239-1.238"/>
            <g transform="translate(54.105 73.264)">
                <mask id="t" fill="#fff">
                    <use xlink:href="#s"/>
                </mask>
                <path fill="#FF7900" d="M114.962 99.67c-.31 1.553-.621 3.416-.932 4.968-.93 11.487 16.144 38.497-6.209 33.84-16.454-3.418-19.248-28.876-38.807-16.144-6.21 4.036-30.425 27.32-36.634 15.83-4.346-8.382.621-16.761 2.794-24.523 3.726-13.352 2.173-21.732-9.934-27.63C16.236 81.354 1.955 77.625.093 65.83c-1.242-7.14 10.245-9.624 15.212-10.866 8.693-2.176 21.111-3.729 28.252-9.938 6.52-5.274 9.313-14.899 12.107-22.66 4.968-13.66 17.386-34.15 28.563-12.418 11.797 22.973 7.76 40.98 35.705 42.84 18.935 1.245 38.183 7.761 13.657 23.284-8.072 5.588-15.833 13.663-18.627 23.598" mask="url(#t)"/>
            </g>
            <path fill="#714E46" d="M101.076 171.383c0-.314-.31-.621-.62-.621s-.31-.314-.621-.314c-3.105-.93-9.935 3.419-9.935-2.17-1.242 1.24-2.173 2.791-2.794 4.344-1.242 2.797-1.552 5.901-.621 9.006 1.552 4.657 4.346 4.036 8.072 2.484 2.484-.932 5.899-5.902 6.52-8.693V172c.31-.308 0-.308 0-.618"/>
            <path fill="#664640" d="M100.767 170.761c-.31 0-.31 0 0 0l-.31-.313c-2.794 2.487-7.14 3.728-12.418 4.039v1.552c5.277-.31 9.624-1.863 12.728-4.346-.31-.31-.31-.621 0-.932M100.767 175.418c-3.104 2.484-6.83 4.036-12.728 4.657v-1.552c5.898-.621 10.555-2.484 13.35-5.278-.311 1.242-.311 1.242-.622 2.173M93.937 181.315c2.794-1.239 5.588-2.79 5.898-3.415-.31 1.245-1.552 2.484-2.483 3.105-.932.624-1.863.931-2.484 1.245-.621.307-6.21 1.552-6.21 1.238v-1.552c-.31.314 4.658-.62 5.279-.62"/>
            <path fill="#714E46" d="M201.355 175.418c-.931-2.794-2.173-5.588-5.278-6.522-5.901-1.553-10.866 2.176-16.454 3.418-2.483.62-4.97.62-7.761 1.238-2.794.624-5.589.624-8.383.624-1.245 0-3.725-.93-4.656 0-1.245.621-.932 2.795-.621 4.033 0 .314 0 .624.31.624.618 2.174 3.105 4.033 5.275 5.278 4.35 2.484 9.313 2.484 13.97 2.173 3.418-.313 6.833-.931 9.938-1.866 2.173-.617 4.657-1.238 6.83-1.86 1.86-.31 3.412 0 5.278-.93 3.415-1.553 2.484-3.726 1.552-6.21"/>
            <path fill="#664640" d="M158.513 174.488v1.238c2.79 1.866 6.827 2.797 11.484 2.484v-1.239c-4.965.308-8.693-.62-11.484-2.483M158.513 177.901c.31.932.31.932.931 1.553 3.105 1.862 6.517 2.483 11.797 2.173v-1.552c-5.588.62-9.937-.31-12.728-2.174M173.414 183.18c0 .31-4.97.62-5.278.31-3.104-.31-5.902-1.242-6.209-1.552.621.928 1.86 1.863 3.105 2.173.931.307 1.86.621 2.483.621.621 0 6.21 0 6.21-.314l-.311-1.238z"/>
            <path fill="#085EBD" d="M234.262 122.64c-3.725-13.35-17.696-26.699-28.872-34.46-5.899-4.036-12.418-9.624-19.559-5.589-2.48 1.553-4.967 3.726-6.83 6.21-2.173 3.104-3.412 6.83-3.725 10.245-1.24 14.28 19.558 21.421 26.702 31.977 7.137 10.555-1.866 22.663-8.075 31.356-.62.621-7.14 6.517-7.14 6.517 1.862.934 4.349 6.209 5.277 8.075-.31-.314-.62-.932-.62-1.242 1.244 2.794 2.173 5.585 1.552 8.69 4.35.623 10.245-1.86 13.663-3.105 13.036-5.896 25.454-21.419 28.248-34.458 1.863-8.072 1.553-16.454-.62-24.216"/>
            <path fill="#085EBD" d="M195.455 183.18c-.931-4.657-2.483-12.419-5.588-16.455-.62-.62-4.036 2.17-4.657 2.795-.931 1.552 0 3.415.31 4.967.622 2.794.935 5.899 2.487 8.38 2.17 3.417 4.965 2.175 7.448.313.314 0 .314 0 0 0"/>
            <path fill="#D6D6D6" d="M202.286 172.314c-.31 0-.621.31-.931.31-.621.31-.932.621-1.242.928-.621.624-.621 1.553 0 2.177.62.62 1.552.31 2.173-.31.31 0 .62-.314.62-.314.932-.308 1.243-1.239.932-1.86.31-.62-.62-1.245-1.552-.931M212.843 166.105c-.621-.621-1.553-.621-2.173.31-.621.62-.932.928-1.553 1.242-.931.31-1.245 1.239-.931 1.863.31.928 1.239 1.241 1.863.928 1.241-.308 2.173-1.239 3.104-2.17.308-.621.308-1.863-.31-2.173M218.74 156.17c-.932-.311-1.553.31-1.863 1.241v.31l-.31.311c-.618.62-.618 1.552 0 2.173.62.621 1.552.621 2.173-.31.313-.31.62-.621.62-.932.31-.31.31-.62.621-1.241.31-.621-.62-1.553-1.241-1.553M190.49 91.904l-1.867-1.242c-.617-.31-1.552-.31-2.17.31-.31.621-.31 1.553.31 2.174l1.86 1.242c.624.31 1.553.31 2.177-.31.62-.932.62-1.864-.31-2.174M199.49 97.182l-1.552-.931c-.618-.31-1.552-.31-2.17.31-.313.621-.313 1.553.308 2.174l1.552.931c.624.31 1.552.31 2.176-.31.621-.932.308-1.863-.313-2.174M206.943 104.322l-.31-.31h-.311c-.31-.621-.931-1.242-1.863-.932-.931.31-1.242.932-1.242 1.863.31.932.932 1.552 1.863 2.173.621.31 1.552.31 2.173-.31.621-1.242.31-2.173-.31-2.484M216.566 114.568l-.618-.31c-.621-.31-1.552-.31-2.173.31-.314.621-.314 1.553.307 2.173l.621.31c.624.311 1.552.311 2.176-.31.621-.93.308-1.862-.313-2.173M223.087 126.987c-.62-.31-1.552-.31-2.173.31-.31.621-.31 1.552.307 2.173h.314c.31.621.931 1.242 1.863 1.242.928-.31 1.242-.931 1.242-1.863-.314-.931-.621-1.552-1.553-1.862M226.192 141.577c0-.31 0-.31 0 0v-1.242c0-.931-.932-1.242-1.866-1.242-.928.311-1.239.932-1.239 1.863v1.242c0 .931.932 1.242 1.863 1.242.928-.31 1.552-1.242 1.242-1.863M225.261 148.408c-.314-.932-.934-1.242-1.866-1.242-.928.31-1.239.931-1.239 1.863-.313.62 0 1.552.618 1.863.621.31 1.553.31 2.173-.311.314-.31.314-.62.314-1.242.31-.31 0-.62 0-.931M211.29 175.418c-.313-.62-1.241-.931-1.865-.62-.308.307-.929.62-1.24.93l-.313.311c-.62.31-1.238.932-.928 1.863.307.62.928 1.242 1.86 1.242.62 0 .934-.31 1.245-.621l.307-.314.314-.307s.307-.31.307 0c.313-.931.624-1.552.313-2.484M222.156 164.861c-.313-.62-1.241-.93-1.865-.62-.929.62-1.553 1.552-2.174 2.486-.307.618-.307 1.553.314 2.17.62.31 1.552.31 2.173-.31.31-.621.618-.931 1.239-1.242.313-.931.624-1.863.313-2.484M229.296 151.203c-.931 0-1.552.618-1.552 1.552 0 .618-.313.932-.931 1.553-.31.618-.31 1.552.31 2.17.621.313 1.552.313 2.173-.307.621-.932 1.24-1.863 1.24-3.105.313-.931-.308-1.863-1.24-1.863M230.536 120.156c-.617-.31-1.552-.31-2.17.31-.313.31-.313.932-.62 1.242 0 .621.307 1.242.928 1.552.624.621 1.552.31 2.176-.31.307-.31.307-.62.307-1.242.314-.31 0-1.242-.62-1.552M223.087 110.531a7.33 7.33 0 0 0-2.483-2.794c-1.553-.931-3.105 1.553-1.553 2.484.618.62 1.242.931 1.553 1.863.31.62 1.241.931 1.862.62.621-.62.932-1.552.621-2.173M212.843 100.287c-.935-1.242-1.866-2.794-3.105-3.726-1.552-1.241-3.104 1.553-1.552 2.484.931.621 1.552 1.552 1.863 2.484 1.241 1.863 3.725.31 2.794-1.242M201.043 90.662c-.618-.31-1.552-.31-2.17.31-.314.622-.314 1.553.307 2.174h.624c.308.621.928 1.242 1.86.931.62-.31 1.245-.93 1.245-1.862-.314-.621-.932-1.242-1.866-1.553"/>
            <path fill="#664640" d="M175.276 170.761c-1.24-.62-2.174-1.241-3.416-1.865-.31-.308-.928-.618-1.241-.929-.621 1.242-.932 2.48-1.24 3.415.619.932 1.553 1.553 2.171 2.17-.618.314-.931.314-1.552.624 4.967.929 9.934-.624 14.591-.93-2.79-.311-6.209-.932-9.313-2.485"/>
            <path fill="#D6D6D6" d="M198.25 163c-.62-.62-1.552-.314-2.173.31l-.31.31c-.31 0-.31.311-.621.311h-.314c-.928.308-1.238 1.242-.928 1.86.31.624 1.242 1.245 1.863.934.931-.31 1.863-.934 2.484-1.552.62-.62.62-1.552 0-2.173M206.012 154.308c-.62-.314-1.866 0-2.173.618-.31.62-.932 1.245-1.245 1.865-.618.621-.618 1.553 0 2.174.624.617 1.552.617 2.176-.314.621-.928 1.553-1.552 1.863-2.79.31-.314 0-1.243-.62-1.553M209.117 143.13c-.932 0-1.553.93-1.553 1.552v.62c-.62.622-.62 1.553 0 2.174.621.62 1.553.62 2.174-.31.617-.622.93-1.863.93-2.795 0-.931-.62-1.552-1.551-1.242M215.326 149.03c0-.314.31-.314.31-.622.621-.62.621-1.552 0-2.173-.624-.62-1.552-.62-2.176.31-.618.622-1.239 1.553-1.239 2.484 0 .932.932 1.553 1.552 1.553.932 0 1.553-.621 1.553-1.553M211.6 155.548c-.621-.621-1.553-.621-2.174.313-.62.929-1.552 1.553-1.862 2.791-.31.932.31 1.553 1.242 1.866.93.308 1.552-.313 1.862-1.245v-.307c.31-.314.621-.624.932-.935.931-.931.62-1.862 0-2.483M202.595 164.861c-.931.314-1.863.932-2.79 1.866-.625.618-.625 1.553 0 2.17.62.621 1.551.621 2.172-.31l.308-.307.31-.314.314-.31h.307c.935-.31 1.245-1.242.935-1.863.31-.932-.621-1.242-1.556-.932M211.29 133.507c-.313-.932-.934-1.242-1.865-1.242-.929.31-1.24.931-1.24 1.862l.311 1.242c.308.932.929 1.242 1.86 1.242.934-.31 1.245-.931 1.245-1.863l-.31-1.241zM219.983 138.163c-.314-.31-.621-.62-.621-.931-.31-.931-.932-1.242-1.863-1.242-.934.31-1.242.932-1.242 1.863 0 .62.308.931.621 1.242l.31.31v.31c.311.622 1.242.932 1.863.622.932-.621 1.242-1.553.932-2.174M184.28 107.118l-2.484-1.553c-1.552-.931-3.104 1.553-1.552 2.484l2.484 1.552c1.552.932 3.415-1.552 1.552-2.483M193.594 113.947l-2.794-1.863c-1.553-.931-3.105 1.552-1.553 2.484l2.794 1.862c1.553 1.242 3.105-1.241 1.553-2.483M201.043 119.845l-1.863-1.242c-.62-.31-1.552-.31-2.173.31-.307.622-.307 1.553.313 2.174l1.86 1.242c.624.31 1.552.31 2.176-.31.621-.932.308-1.863-.313-2.174M206.943 125.434l-.932-.62c-.62-.311-1.552-.311-2.173.31-.31.62-.31 1.552.31 2.173l.932.621c.621.31 1.552.31 2.173-.31.621-.621.31-1.553-.31-2.174M185.52 99.045c-.31-.31-.618-.31-.931-.62-.308-.311-.621-.621-.621-.621-.31-.621-1.239-.932-1.863-.621-.62.31-1.242 1.241-.62 1.862.62 1.242 1.865 1.863 2.796 2.484 1.239 1.242 2.791-1.242 1.239-2.484M194.834 103.702c-.932-.62-1.863-1.242-3.105-.931-.931 0-1.239.931-1.239 1.863.308.62.929 1.241 1.553 1.241h.307c.314 0 .621.31.931.621.621.31 1.553.31 2.174-.31 0-1.242 0-2.173-.621-2.484M202.286 109.911l-1.552-.931c-.621-.31-1.553-.31-2.174.31-.31.621-.31 1.553.31 2.174l1.553.931c.621.31 1.552.31 2.173-.31.621-.621.31-1.553-.31-2.174M209.426 116.74l-.621-.31c-.618-.31-1.552-.31-2.17.31-.314.621-.314 1.553.307 2.174l.621.31c.624.31 1.552.31 2.176-.31.618-.932.618-1.863-.313-2.173M216.566 125.434c-.31-.31-.618-.62-.932-.931-.62-.31-1.552-.31-2.173.31-.31.621-.31 1.553.314 1.863.307.931.928 1.242 1.86 1.242.93-.31 1.244-.931 1.244-1.863-.313 0-.313-.31-.313-.62"/>
            <path fill="#FFF" d="M64.443 132.574c-1.242 0-2.484.31-3.104 1.552-.31.621-.31 1.553.62 1.863.621.31 1.553.31 1.863-.62h.621c.621 0 1.242-.622 1.242-1.243 0-.93-.621-1.552-1.242-1.552M74.068 129.78h-1.863c-.621 0-1.242.621-1.242 1.242s.621 1.242 1.242 1.242h1.863c.62 0 1.241-.62 1.241-1.242 0-.62-.62-1.242-1.241-1.242M86.797 127.297c-.31-.62-1.242-.931-1.863-.62-.31 0-.621.31-.931.31-.621 0-.932.31-1.242.62-.621.311-.932 1.243-.621 1.864.31.62 1.242.93 1.863.62.31 0 .62-.31.93-.31.622 0 .932-.31 1.243-.62.62-.311.931-1.243.62-1.864M96.11 124.193c-.62-.621-1.552-.621-1.862 0h-.31c-.622 0-1.243.62-1.243 1.242 0 .62.621 1.241 1.242 1.241.932 0 1.552-.31 2.173-.93.621 0 .621-.932 0-1.553M105.424 117.051c-.31 0-.62.31-.931.31-.621 0-1.242.622-1.242 1.243 0 .62.62 1.241 1.242 1.241.31 0 .931 0 1.242-.31.62-.31.931-.931.931-1.552.31-.31-.31-.932-1.242-.932M111.323 106.185c-.621 0-1.242.621-1.242 1.242 0 0 0 .31-.31.31-.622.622-.622 1.553 0 1.863.62.621 1.552.621 1.862 0 .62-.62 1.242-1.552 1.242-2.483 0-.31-.621-.932-1.552-.932M116.91 94.7c-.62-.311-1.552-.311-1.863.62-.31.932-.931 1.553-.931 2.794 0 .621.62 1.242 1.242 1.242.931 0 1.242-.62 1.242-1.242v-.31c.31-.31.31-.621.62-.931.622-1.242.311-1.863-.31-2.174M119.704 82.281c-.621 0-1.242.62-1.242 1.242l-.31.31c-.621.621-.621 1.553 0 1.863.62.621 1.552.621 1.862 0 .621-.62 1.242-1.552 1.242-2.484 0-.31-.62-.931-1.552-.931M127.465 76.381h-1.241c-.621.31-1.242.931-1.242 1.552s.62 1.242 1.242 1.242c.31 0 .62 0 .93-.31h.311c.621 0 1.242-.621 1.242-1.242s-.62-1.242-1.242-1.242M135.227 83.212c-.31-.932-1.242-1.553-1.552-2.484-.31-.62-1.242-.931-1.863-.62-.621.31-.932 1.241-.621 1.862.31.931 1.242 1.552 1.552 2.484.31.62 1.242.931 1.863.62.931-.31 1.242-1.241.62-1.862M139.264 93.767v-.62c0-.622-.621-1.243-1.242-1.243s-1.552.621-1.242 1.242c0 .31 0 .931.31 1.242v.62c0 .622.621 1.243 1.242 1.243s1.553-.621 1.242-1.242c0-.31 0-.932-.31-1.242M142.058 104.633c-.311-.62-.311-.931-.311-1.552s-.62-1.242-1.242-1.242c-.62 0-1.242.62-1.242 1.242 0 1.242 0 2.173.621 3.104.31.621 1.242.932 1.863.621.621-.62.621-1.552.31-2.173M147.025 114.568l-1.242-2.483c-.31-.621-1.242-.932-1.862-.621-.621.31-.932 1.242-.621 1.862l1.241 2.484c.31.621 1.242.931 1.863.621.621-.31.932-1.242.621-1.863M153.234 122.019c-.313 0-.313-.31-.62-.31 0 0-.311 0-.311-.311-.31 0-.31-.31-.621-.62-.62-.622-1.552-.622-1.866 0-.618.62-.618 1.551 0 1.862.624.62 1.245.931 1.866 1.552.62.31 1.552.31 1.863-.62.62-.311.31-1.243-.31-1.553M164.41 126.987c-.621 0-.932-.31-1.553-.31h-.62s-.619-.311-.311 0c-.621-.311-1.552-.311-1.86.62-.313.621-.313 1.552.618 1.863.934.62 2.173.62 3.105.931 1.552.31 2.486-2.484.62-3.104M174.654 128.539h-2.17c-.621 0-1.245.62-1.245 1.242 0 .62.624 1.242 1.245 1.242h2.484c.62 0 1.238-.621 1.238-1.242s-.618-1.242-1.552-1.242M187.694 130.711h-2.484c-.62 0-1.242.621-1.242 1.242 0 .62.621 1.242 1.242 1.242h2.484c.62 0 1.242-.621 1.242-1.242 0-.62-.621-1.242-1.242-1.242M194.834 133.816c-.618-.621-1.553-.621-1.863 0-.62.62-.62 1.242 0 1.862 0 0-.307.31 0 .31-.307.622-.307 1.553.624 1.864.62.31 1.552.31 1.86-.621.313-.932.313-2.484-.621-3.415M59.786 137.542c-.62 0-1.242.62-1.242 1.242v1.552c0 .62.621 1.242 1.242 1.242s1.242-.621 1.242-1.242v-1.552c0-.621-.62-1.242-1.242-1.242M65.065 145.925c0-.31-.31-.31-.31-.621-.622-.621-1.553-.621-1.864 0-.62.62-.62 1.552 0 1.863 0 .31.31.31.31.62.311.621.622.621 1.243.621.62 0 1.242-.62 1.242-1.241 0-.621-.31-.932-.621-1.242M76.55 152.134c-.93-.931-2.173-1.552-3.414-1.552-.621 0-1.242.62-1.242 1.238 0 .935.62 1.245 1.242 1.245h.31c.31.308.621.308.931.621.621.621 1.553.621 1.863 0 .932 0 .932-.931.31-1.552"/>
            <g transform="translate(51 211.48)">
                <mask id="v" fill="#fff">
                    <use xlink:href="#u"/>
                </mask>
            </g>
            <path fill="#FFF" d="M86.175 156.478c-.62-.617-1.552-.93-2.484-.93-.62 0-1.241.62-1.241 1.244 0 .621.62 1.239 1.241 1.239h.931c.622.313 1.243.313 1.864 0 .31 0 .31-.932-.31-1.553M92.384 163.31c-.62-.932-1.242-1.864-2.483-1.864-.621 0-1.242.624-1.242 1.242 0 .621.31 1.242.931 1.242l.31.31c.311.621 1.242.935 1.863.621.621-.31.932-.93.621-1.552M90.832 187.837c-.31 1.238-.31 2.483-.31 3.415 0 1.862 2.794 1.862 2.794 0 0-.932 0-1.863.31-2.795.621-1.552-2.173-2.486-2.794-.62M89.901 196.838c-.931 0-1.242.62-1.242 1.242 0 .624-.31 1.552-.31 2.483 0 .621.62 1.245 1.242 1.245.931 0 1.242-.624 1.242-1.245 0-.62.31-1.552.31-2.483.31-.621-.31-1.242-1.242-1.242M93.006 208.947c-.31 0-.31-.31-.621-.31 0 0-.31 0-.31-.31-.311 0-.311-.311-.621-.622-.621-.62-1.553-.62-1.863 0-.621.621-.621 1.553 0 1.863.62.62 1.242.931 1.863 1.552.62.31 1.552.31 1.862-.62.621-.311.31-1.242-.31-1.553M103.25 204.6c-.62-.618-1.552-.618-1.862 0-.31.313-.621.62-.932.934h-.31c-.31 0-.31.307-.621.307-.621.31-.932 1.245-.621 1.863.31.62 1.242.934 1.863.62.931-.306 1.552-1.238 2.173-1.859.931-.313.931-1.245.31-1.866M113.186 195.286c-1.242.934-2.484 1.866-3.726 2.794-1.242 1.245.621 3.104 1.863 1.863l3.725-2.791c1.553-1.245-.62-3.105-1.862-1.866M121.878 189.698c-.621-.62-1.553-.62-1.863 0l-.31.314c-.31.307-.621.617-.932.928-.62.624-.62 1.552 0 1.863.621.62 1.552.62 1.863 0l.31-.31c.31-.311.621-.622.932-.93.62-.623.62-1.551 0-1.865M130.57 185.354h-1.552c-.621 0-1.242.617-1.242 1.238 0 .624.62 1.245 1.242 1.245h1.552c.62 0 1.242-.62 1.242-1.245.31-.62-.621-1.238-1.242-1.238M139.264 186.906c-.932-.935-1.553-1.242-2.794-1.242-.621 0-1.242.62-1.242 1.242 0 .618.62 1.239 1.242 1.239l.31.313c.62.618 1.552.618 1.863 0 .931-.313.931-1.242.62-1.552M146.404 194.355c-.621-1.239-1.553-1.863-2.795-1.863-.62 0-1.241.624-1.241 1.242 0 .62.62 1.242 1.241 1.242l.31.31c.311.621 1.243.935 1.864.621.931 0 1.242-.931.62-1.552M153.234 199.943c-.313-.618-.62-.932-1.242-.932-.624 0-1.552.621-1.241 1.245 0 1.239.931 2.173 2.17 2.173.624 0 1.245-.62 1.245-1.245 0-.307-.31-.928-.932-1.241M160.065 204.29h-1.242c-.624 0-1.245.621-1.245 1.242 0 .62.621 1.242 1.245 1.242h1.242c.618 0 1.239-.621 1.239-1.242.313-.62-.621-1.242-1.239-1.242M167.205 203.047c-.621 0-1.242.621-1.242 1.242-.31.31-.31.624-.31.931v.621c0 .31.31.624.62.932.311 0 .311.313.618.313.314 0 .624 0 .624-.313.31 0 .31-.308.621-.621.308-.618.308-1.239.308-1.553.313-.931-.308-1.552-1.24-1.552M166.893 193.733c-.618-.617-1.553-.617-1.863 0-.621.621-.621 1.553 0 1.866v.308c0 .62.624 1.245 1.245 1.245.618 0 1.238-.624 1.238-1.245.314-.932 0-1.553-.62-2.174M167.826 166.414c0-.621-.62-1.239-1.241-1.239-.624 0-1.245.307-1.245.928 0 0 0 .31-.308.31-.31.314-.31.622-.31.932 0 .621.618 1.242 1.239 1.242.624 0 1.244-.307 1.244-.931 0 0 0-.31.308-.31.313-.311.313-.619.313-.932M175.276 157.722c-.621-.621-1.553-.621-1.863 0l-.31.31c-.618 0-1.243.62-1.243 1.242 0 .62.625 1.552 1.242 1.242.935 0 1.553-.621 2.174-1.242.62 0 .62-.932 0-1.552M180.863 147.786c-.618.621-1.239 1.242-2.17 1.866-.62.308-.934 1.239-.62 1.86.306.62 1.238.931 1.859.62.931-.62 1.866-1.552 2.797-2.172 1.552-1.553-.314-3.416-1.866-2.174M189.868 143.13c-.621-.621-1.553-.621-1.863 0l-.31.31c-.621.62-.621 1.552 0 1.863.62.62 1.552.62 1.862 0l.31-.31c.311-.622.311-1.553 0-1.864"/>
        </g>
    </g>
</svg>
