<svg xmlns="http://www.w3.org/2000/svg" xmlns:xlink="http://www.w3.org/1999/xlink" width="375" height="96" viewBox="0 0 375 96">
    <defs>
        <path id="a" d="M0 0h375v80H0z"/>
        <path id="c" d="M0 .238h83.916v15.389H0z"/>
        <path id="e" d="M0 .07h25.28v4.531H0z"/>
        <path id="g" d="M.794.459h43.85v61.96H.793z"/>
        <path id="i" d="M0 .06h21.837v3.914H0z"/>
        <path id="k" d="M.392.226h21.622V30.78H.392z"/>
        <path id="m" d="M0 .1h35.814v6.418H0z"/>
        <path id="o" d="M.393.227h21.723v30.695H.393z"/>
        <path id="q" d="M.153.241h11v7.637h-11z"/>
        <path id="s" d="M.052.109h2.083v1.81H.052z"/>
        <path id="u" d="M.052.109h2.083v1.81H.052z"/>
        <path id="w" d="M.063.028h.614V.3H.063z"/>
        <path id="y" d="M.025.056h.379v.222h-.38z"/>
        <path id="A" d="M.278.232h.261V.51H.278z"/>
        <path id="C" d="M1.339.67h.67v.669h-.67z"/>
        <path id="E" d="M1.339.67h.67v.669h-.67z"/>
        <path id="G" d="M1.339.67h.67v.669h-.67z"/>
        <path id="I" d="M0 .193h62.605v60.756H0z"/>
        <path id="K" d="M1.339.67h.67v.669h-.67z"/>
    </defs>
    <g fill="none" fill-rule="evenodd">
        <g>
            <mask id="b" fill="#fff">
                <use xlink:href="#a"/>
            </mask>
            <use fill="#222" xlink:href="#a"/>
            <g mask="url(#b)" opacity=".2" style="mix-blend-mode:luminosity">
                <path fill="#FF7900" d="M218.833 21.673c-11.828 16.21 15.744 29.39 15.744 29.39 9.806-17.93-3.919-45.6-15.744-29.39m7.832 17.313c-2.865-2.596-4.664-5.192-5.2-7.51-.316-1.367-.48-3.536 1.746-6.588 1.52-2.08 2.828-2.356 4.41-2.065 1.963.358 3.67 3.883 4.67 9.153.714 3.756.609 7.587-.263 11.06-1.702-1.092-3.604-2.461-5.363-4.05"/>
                <path fill="#FF7900" d="M232.267 50.307s18.375 24.191 32.596 9.31c14.218-14.879-16.335-22.505-32.596-9.31m28.677 5.561c-2.675 2.803-4.866 3.052-6.276 3-2.397-.092-5.279-1.388-8.331-3.745-1.871-1.45-3.546-3.084-4.91-4.57 3.318-1.531 7.114-2.37 10.973-2.377 5.416-.008 9.204 1.019 9.884 2.907.546 1.517.487 2.878-1.34 4.785"/>
                <path fill="#FFF" d="M238.086 55.763c-1.77 2.115-5.44 1.96-8.191-.346-2.75-2.306-3.545-5.889-1.773-8.004"/>
                <path fill="#FF7900" d="M218.254 128.78l41.015-48.949a1.086 1.086 0 0 0-.134-1.528l-56.556-47.387a1.086 1.086 0 0 0-1.53.134L160.034 80l58.22 48.78z"/>
                <g transform="rotate(40 68.187 289.39)">
                    <mask id="d" fill="#fff">
                        <use xlink:href="#c"/>
                    </mask>
                    <path fill="#FFD203" d="M83.916 14.075c0 .822-.652 1.493-1.46 1.493l-80.988.059c-.809.001-1.46-.669-1.46-1.491L0 1.792C-.002.965.65.297 1.457.296L82.446.238c.807-.001 1.461.667 1.462 1.493l.008 12.344z" mask="url(#d)"/>
                </g>
                <path fill="#FF7900" d="M236.76 53.64l-9.63 11.493-6.89-5.774 9.63-11.492zM334.705 14.952c-1.71 5.88 7.38 6.712 7.38 6.712.967-6.157-5.672-12.592-7.38-6.712m3.94 4.107c-1.067-.436-1.833-.986-2.217-1.59-.226-.357-.489-.958-.168-2.065.22-.755.561-.973 1.036-1.057.589-.107 1.423.717 2.233 2.115a7.88 7.88 0 0 1 1.033 3.182 12.13 12.13 0 0 1-1.916-.585"/>
                <path fill="#FF7900" d="M341.546 21.517s7.634 4.907 10.098-.7c2.462-5.607-6.89-4.642-10.098.7m8.614-1.352c-.463 1.056-1.052 1.348-1.453 1.476-.682.217-1.623.147-2.72-.203a12.117 12.117 0 0 1-1.847-.781 7.889 7.889 0 0 1 2.835-1.778c1.518-.552 2.686-.649 3.07-.19.309.37.432.757.115 1.476"/>
                <path fill="#FFF" d="M343.673 22.271c-.307.847-1.393 1.23-2.425.855-1.031-.375-1.618-1.365-1.31-2.212"/>
                <path fill="#FF7900" d="M345.478 45.099l6.586-18.137a.328.328 0 0 0-.195-.42l-20.925-7.6a.328.328 0 0 0-.42.197l-6.587 18.137 21.54 7.823z"/>
                <g transform="rotate(20 116.41 944.303)">
                    <mask id="f" fill="#fff">
                        <use xlink:href="#e"/>
                    </mask>
                    <path fill="#FFD203" d="M25.28 4.144a.44.44 0 0 1-.44.44L.442 4.6a.439.439 0 0 1-.44-.439L0 .528c0-.244.196-.44.439-.44L24.837.07a.44.44 0 0 1 .44.44l.003 3.634z" mask="url(#f)"/>
                </g>
                <path fill="#FF7900" d="M343.183 21.969l-1.557 4.286-2.676-.972 1.557-4.286z"/>
                <g>
                    <path fill="#A885D8" d="M133.343 86.802l-23.613 8.594 3.512 9.65 23.613-8.595a1.4 1.4 0 0 0 .807-1.809l-2.538-6.974a1.398 1.398 0 0 0-1.781-.866"/>
                    <g transform="rotate(-20 289.159 -177.563)">
                        <mask id="h" fill="#fff">
                            <use xlink:href="#g"/>
                        </mask>
                        <path fill="#FF7900" d="M44.089 9.63a5.673 5.673 0 0 0-.71-6.015C41.181.58 36.007-.818 31.812 1.943c-4.141 2.726-7.33 7.18-9.093 10.037-1.765-2.861-4.952-7.315-9.093-10.037C9.434-.817 4.26.581 2.058 3.615a5.673 5.673 0 0 0-.71 6.016c2.335 4.826 11.528 7.576 19.65 7.924v44.863h3.442V17.555c8.121-.344 17.314-3.098 19.649-7.924zM4.429 8.04c-.251-.524-.406-1.206.383-2.292v.004A4.771 4.771 0 0 1 8.66 4.009a5.64 5.64 0 0 1 3.119.94c3.585 2.359 6.457 6.4 8.046 8.974-7.218-.553-14.034-3.066-15.397-5.884zm36.584 0c-1.363 2.817-8.179 5.327-15.397 5.88 1.589-2.575 4.46-6.612 8.046-8.975l-.004.003a5.64 5.64 0 0 1 3.12-.94 4.771 4.771 0 0 1 3.847 1.744c.789 1.086.638 1.767.384 2.287h.004z" mask="url(#h)"/>
                    </g>
                </g>
                <g>
                    <path fill="#FF7900" d="M134.732 38.597c1.262 5.137 8.42 1.833 8.42 1.833-1.936-5.023-9.681-6.97-8.42-1.833m4.722 1.37c-.987.135-1.798.055-2.345-.232-.323-.169-.78-.505-1.018-1.472-.161-.66 0-.97.318-1.238.395-.334 1.375-.078 2.584.618a6.806 6.806 0 0 1 2.148 1.934c-.497.157-1.082.307-1.687.39"/>
                    <path fill="#FF7900" d="M142.685 40.554s7.83.373 7.252-4.885c-.58-5.258-7.159-.497-7.252 4.885m5.86-4.732c.11.99-.205 1.462-.45 1.731-.415.458-1.15.811-2.122 1.024-.597.129-1.198.19-1.718.213a6.814 6.814 0 0 1 1.352-2.555c.898-1.068 1.73-1.645 2.215-1.467.39.143.65.379.723 1.054"/>
                    <path fill="#FFF" d="M144.603 40.199c.135.766-.512 1.521-1.445 1.686-.934.166-1.8-.321-1.936-1.088"/>
                    <path fill="#FF7900" d="M155.811 56.496l-2.906-16.412a.283.283 0 0 0-.327-.23l-18.935 3.353a.283.283 0 0 0-.23.328l2.906 16.412 19.492-3.451z"/>
                    <g transform="rotate(-10 307.62 -734.1)">
                        <mask id="j" fill="#fff">
                            <use xlink:href="#i"/>
                        </mask>
                        <path fill="#FFD203" d="M21.837 3.58c0 .209-.17.38-.38.38L.382 3.974a.38.38 0 0 1-.38-.379L0 .455c0-.21.169-.38.379-.38L21.454.06c.21 0 .38.17.38.38l.003 3.14z" mask="url(#j)"/>
                    </g>
                    <path fill="#FF7900" d="M144.105 40.184l.687 3.88-2.422.428-.686-3.879z"/>
                </g>
                <g>
                    <path fill="#4BB4E6" d="M90.71 55.608a.69.69 0 0 0 .972.102l8.223-6.9-10.15-12.097-8.743 7.336 9.699 11.56zM103.286 45.973l8.223-6.9a.69.69 0 0 0 .069-.974l-9.7-11.56-8.742 7.337 10.15 12.097zM76.128 40.806l2.352 2.803a.69.69 0 0 0 .971.102l9.492-7.965-3.254-3.879-9.492 7.965a.69.69 0 0 0-.07.974M98.561 21.065L89.07 29.03l3.255 3.88 9.492-7.966a.69.69 0 0 0 .07-.974l-2.353-2.803a.69.69 0 0 0-.972-.102"/>
                    <g transform="rotate(-40 79.22 -85.09)">
                        <mask id="l" fill="#fff">
                            <use xlink:href="#k"/>
                        </mask>
                        <path fill="#FF7900" d="M21.74 4.75a2.798 2.798 0 0 0-.35-2.968C20.308.287 17.757-.403 15.688.958c-2.042 1.344-3.614 3.54-4.484 4.95C10.333 4.495 8.76 2.3 6.719.957 4.652-.403 2.101.287 1.015 1.782a2.798 2.798 0 0 0-.35 2.967c1.151 2.38 5.684 3.736 9.69 3.908v22.122h1.697V8.657c4.005-.17 8.538-1.528 9.689-3.908zM2.185 3.963c-.124-.258-.2-.594.189-1.13v.002a2.353 2.353 0 0 1 1.897-.86c.548 0 1.082.162 1.538.464 1.768 1.163 3.185 3.156 3.968 4.426-3.56-.273-6.92-1.512-7.592-2.902zm18.04 0c-.672 1.39-4.033 2.627-7.593 2.9.784-1.27 2.2-3.26 3.968-4.426l-.002.002c.457-.302.99-.463 1.539-.463a2.353 2.353 0 0 1 1.897.86c.389.535.315.87.19 1.127h.001z" mask="url(#l)"/>
                    </g>
                </g>
                <g>
                    <path fill="#FF7900" d="M17.17 21.264c-2.421 8.331 10.455 9.508 10.455 9.508 1.37-8.721-8.035-17.838-10.455-9.508m5.583 5.818c-1.512-.618-2.599-1.396-3.141-2.253-.32-.504-.694-1.356-.239-2.925.312-1.069.795-1.377 1.468-1.498.834-.15 2.016 1.017 3.163 2.997a11.163 11.163 0 0 1 1.464 4.509 17.185 17.185 0 0 1-2.715-.83"/>
                    <path fill="#FF7900" d="M26.861 30.565s10.816 6.95 14.306-.992c3.488-7.943-9.76-6.576-14.306.992m12.204-1.916c-.656 1.496-1.49 1.91-2.059 2.091-.966.308-2.299.208-3.854-.288a17.166 17.166 0 0 1-2.615-1.106 11.176 11.176 0 0 1 4.015-2.519c2.151-.782 3.806-.919 4.35-.268.438.524.612 1.071.163 2.09"/>
                    <path fill="#FFF" d="M29.875 31.633c-.435 1.2-1.974 1.741-3.435 1.21-1.461-.53-2.293-1.933-1.857-3.132"/>
                    <path fill="#FF7900" d="M32.431 63.972l9.332-25.694a.465.465 0 0 0-.277-.595L11.842 26.918a.465.465 0 0 0-.595.278L1.916 52.89 32.43 63.972z"/>
                    <g transform="rotate(20 -63.816 41.93)">
                        <mask id="n" fill="#fff">
                            <use xlink:href="#m"/>
                        </mask>
                        <path fill="#FFD203" d="M35.814 5.87a.623.623 0 0 1-.623.624L.627 6.518a.622.622 0 0 1-.624-.622L0 .748C0 .403.277.124.622.124L35.186.099c.345 0 .624.278.624.623l.004 5.149z" mask="url(#n)"/>
                    </g>
                    <path fill="#FF7900" d="M29.18 31.204l-2.205 6.073-3.79-1.377 2.205-6.072z"/>
                </g>
                <g>
                    <path fill="#4BB4E6" d="M295.088 99.365a.693.693 0 0 0 .943.27l9.34-5.392-7.933-13.739-9.93 5.733 7.58 13.128zM309.21 92.026l9.34-5.392a.693.693 0 0 0 .238-.952l-7.58-13.128-9.93 5.733 7.932 13.74zM283.242 82.176l1.838 3.184a.694.694 0 0 0 .944.27l10.78-6.224L294.261 75l-10.78 6.224a.693.693 0 0 0-.239.952M308.881 66.56l-10.78 6.223 2.543 4.406 10.78-6.224a.694.694 0 0 0 .239-.952l-1.839-3.184a.693.693 0 0 0-.943-.27"/>
                    <g transform="rotate(-30 275.363 -490.382)">
                        <mask id="p" fill="#fff">
                            <use xlink:href="#o"/>
                        </mask>
                        <path fill="#FF7900" d="M21.841 4.771a2.81 2.81 0 0 0-.351-2.98C20.4.288 17.838-.405 15.76.963c-2.052 1.35-3.631 3.556-4.505 4.972C10.38 4.517 8.8 2.31 6.75.963 4.673-.405 2.11.288 1.02 1.79a2.81 2.81 0 0 0-.352 2.98c1.157 2.391 5.71 3.753 9.734 3.926v22.225h1.705V8.697c4.024-.17 8.578-1.535 9.734-3.926zM2.194 3.983c-.124-.26-.2-.598.19-1.135v.001a2.364 2.364 0 0 1 1.906-.863c.55 0 1.087.162 1.545.465 1.776 1.17 3.2 3.17 3.986 4.446C6.245 6.624 2.87 5.38 2.194 3.983zm18.124 0c-.676 1.396-4.052 2.639-7.628 2.913.787-1.276 2.21-3.276 3.986-4.446l-.002.001a2.794 2.794 0 0 1 1.545-.465 2.364 2.364 0 0 1 1.907.863c.39.538.316.876.19 1.134h.002z" mask="url(#p)"/>
                    </g>
                </g>
            </g>
        </g>
        <path fill="#D6D6D6" d="M353.504 60.637c-.403 0-.67.268-.67.67v.669c-.135.268-.135.67.134.937.268.134.67.134.938-.134.267-.401.267-.803.267-1.339 0-.401-.403-.803-.67-.803"/>
        <path fill="#FFF" d="M334.356 38.009c-1.606-.804-2.812-1.205-4.687-1.205-2.142-.134-4.418-.938-6.56-.402-.804.134-1.607.535-2.41.67-.937.133-2.008.133-3.08.267-2.543.134-8.568.268-9.238 3.615-.67 4.151 2.275 8.436 2.812 12.453.536 4.15.266 8.167.266 12.318 0 4.017-.266 7.364 3.214 10.176 2.812 2.276 6.696 3.348 10.176 3.214 3.347-.134 7.232-.134 9.91-2.678 1.873-1.875 1.605-3.08 1.339-5.49-.268-2.812.401-5.49.401-8.302.133-4.15.67-8.301.938-12.452.132-1.473.266-3.08.266-4.686.135-3.08-.402-6.026-3.347-7.498"/>
        <path fill="#BDBDBD" d="M335.027 52.068l2.07 12.385v-2.21-4.82c0-1.994.19-3.221.572-3.682l-2.642-1.673z"/>
        <path fill="#C8C6C6" d="M328.8 47.08c1.248 4.074 2.765 6.944 4.552 8.61 1.786 1.665 2.863 4.162 3.23 7.491l.72-2.811-.256-5.844-8.247-7.447z"/>
        <path fill="#714E46" d="M323.779 33.724c-.136-1.07-.136-1.606-.268-2.544-.268-2.276-.402-4.552-.268-6.962-.536 1.07-1.473 3.08-1.874 4.284-.404 1.473-1.473 3.08-2.946 3.214-1.607.134-3.615-1.875-4.017.67-.268 1.338-.402 4.954.134 6.159.803 1.874 3.213 1.606 4.686 1.472 1.34-.133 2.678-.535 3.748-1.205.67-.401 1.339-.937 1.608-1.606.4-.804.268-1.205-.27-1.741-.266-.402-.4-1.071-.533-1.74"/>
        <path fill="#714E46" d="M318.958 21.272c-1.34-.268-2.543-.134-3.882.267-.805.268-1.875.134-2.278.938-.535 1.07-.67 2.678-.535 3.883.135 1.606.401 4.017 1.339 5.355l1.205 1.607c.403.67.938 1.34 1.742 1.607 2.275.536 4.15-2.008 5.354-3.615.67-.937.402-1.875.537-3.08.133-1.339.534-2.678 0-3.883-.67-1.607-2.008-2.812-3.482-3.08"/>
        <path fill="#000" d="M318.824 25.154c-.401.134-.803 0-1.205 0 .134.536.402.938.937.804.134 0 .938-.402 1.473-.536.134 0 .268-.134.268 0-.268-.535-1.071-.268-1.473-.268M313.736 25.557c-.401 0-.803-.134-.803.401 0-.134 1.071.268 1.071.268h.402c.268-.134.402-.402.535-.67h-1.205z"/>
        <path fill="#664640" d="M316.146 27.163c-.268.402-.134 1.071-.401 1.473 0 .134-.134.268-.402.401-.134.134-.402.268-.402.536-.401 1.071 1.205.803 1.607.268.402-.402.67-2.678-.402-2.678M318.824 30.778c0-.267-.268-.134-.134 0l.134.536c0 .268.268.134.134 0l-.134-.536z"/>
        <g transform="translate(311.152 15.134)">
            <mask id="r" fill="#fff">
                <use xlink:href="#q"/>
            </mask>
            <path fill="#000" d="M10.217.648c.134.268.266.67.134.937 0-.134-1.071-.803-1.207-.937C8.208.246 7.004.112 6.064.38 5.13.648 4.46 1.585 3.523 1.72c-.268 0-1.071-.536-1.339-.269-.536.536.402 1.071.67 1.34-.402-.135-2.143 0-2.41.267-.67.536.267.536.133.937 0 .402-.535.402-.401 1.071.133 1.741 4.016 2.41 5.222 2.41.4 0 .803-.133 1.205 0 .401.135.534.402.937.402 1.071-.267 1.74-1.339 2.008-2.276.402-1.071 1.473-2.008 1.606-3.347 0-.536-.267-2.009-.936-1.607" mask="url(#r)"/>
        </g>
        <path fill="#000" d="M314.941 19.933c-.267-.268-.803-1.072-1.339-1.072-.134 0-.267 0-.401.134-.402.268-.134 1.071-.67 1.205-.535.134-1.205-.937-1.473 0-.134.402.402 1.34.67 1.607.803.937 2.142 1.34 3.347 1.607 1.071.134 5.49-.134 4.687-2.009-1.875.402-3.616 0-4.82-1.472"/>
        <path fill="#000" d="M322.172 17.924c-.938 0-1.34 1.875-1.607 2.41-.268.536-.67.938-.804 1.473-.267.804-.133.804.536 1.205 1.205.67 1.339 2.276 1.339 3.482.536-.134 1.339-1.607 2.008-1.34.536.268.268 1.473 0 1.875 2.009-2.008 1.607-6.025 0-8.168-.401-.267-.937-.937-1.472-.937"/>
        <path fill="#595959" d="M314.553 17.652a.45.45 0 0 1 .053.24v.003a.636.636 0 0 1-.16-.369.4.4 0 0 1 .107.126m-.718 1.478c.024.028.049.077.045.098-.003.013-.003.013-.018.026a.153.153 0 0 1-.052.02c-.106.024-.23-.033-.317-.09a.589.589 0 0 1-.224-.319c.207.027.425.11.566.265m1.47-2.734a1.134 1.134 0 0 0-.344.08c-.12.052-.228.126-.325.213a1.11 1.11 0 0 0-.34.568.726.726 0 0 0-.398-.012.912.912 0 0 0-.416.258 1.607 1.607 0 0 0-.422 1.178c-.3.01-.595.122-.746.389a.645.645 0 0 0-.063.518.825.825 0 0 0 .323.396c.306.217.724.313 1.096.29a.96.96 0 0 0 .488-.146c.09-.062.005-.212-.087-.148-.268.186-.677.143-.987.053a1.34 1.34 0 0 1-.472-.235.679.679 0 0 1-.153-.17.448.448 0 0 1-.064-.188.527.527 0 0 1 .215-.45c.138-.099.31-.134.478-.136a.778.778 0 0 0 .359.503c.18.105.57.17.605-.125.016-.138-.12-.256-.216-.33a1.02 1.02 0 0 0-.287-.146 1.35 1.35 0 0 0-.316-.068c-.01-.109-.004-.221.015-.326.055-.322.221-.664.485-.85a.577.577 0 0 1 .405-.115c.02.002.068.012.1.022l.033.01a.839.839 0 0 0 .058.333.65.65 0 0 0 .21.3c.073.05.166.026.209-.048.043-.075.034-.172.021-.254a.605.605 0 0 0-.313-.432.89.89 0 0 1 .028-.11c.087-.27.32-.5.585-.601.115-.043.243-.056.365-.058a.34.34 0 0 1 .154.024c.05.025.067.069.077.12.02.11.187.064.167-.045-.05-.258-.308-.286-.526-.262M321.62 19.993a.45.45 0 0 1 .222.116.636.636 0 0 1-.386-.115.4.4 0 0 1 .165 0m.671 1.5c.037-.002.09.011.104.028.008.01.008.01.009.03 0 .012-.011.037-.019.052-.05.098-.173.156-.273.186a.589.589 0 0 1-.388-.033c.154-.142.357-.256.567-.263m-1.15-2.885c-.068.1-.125.199-.16.316-.037.125-.05.255-.045.385.007.226.082.447.217.627a.726.726 0 0 0-.266.296.912.912 0 0 0-.07.484 1.607 1.607 0 0 0 .632 1.081c-.186.236-.29.535-.182.822a.645.645 0 0 0 .356.38.825.825 0 0 0 .511.008c.364-.095.706-.353.928-.653a.96.96 0 0 0 .201-.468c.01-.11-.16-.14-.17-.028-.03.324-.325.61-.593.79a1.34 1.34 0 0 1-.483.21.679.679 0 0 1-.229.008.448.448 0 0 1-.185-.072.527.527 0 0 1-.206-.453.821.821 0 0 1 .203-.454c.19.093.406.125.615.049.197-.071.498-.328.294-.544-.096-.102-.274-.074-.393-.047a1.02 1.02 0 0 0-.295.126 1.35 1.35 0 0 0-.256.198 1.236 1.236 0 0 1-.24-.22c-.21-.25-.367-.597-.34-.92a.577.577 0 0 1 .173-.383.682.682 0 0 1 .081-.063l.03-.018a.839.839 0 0 0 .291.17.65.65 0 0 0 .366.032.144.144 0 0 0 .097-.191c-.03-.082-.11-.138-.18-.18a.605.605 0 0 0-.534-.038.89.89 0 0 1-.066-.092 1.002 1.002 0 0 1-.084-.834c.04-.116.113-.222.19-.318a.34.34 0 0 1 .118-.102c.05-.022.096-.007.142.019.097.054.168-.103.072-.157-.23-.129-.417.052-.54.234"/>
        <path fill="#595959" d="M322.941 18.69a.45.45 0 0 1-.249.011.636.636 0 0 1 .391-.093.4.4 0 0 1-.142.083m-1.331-.964c-.032.02-.084.035-.105.027-.012-.005-.011-.005-.022-.022a.153.153 0 0 1-.01-.054c-.006-.11.072-.222.144-.297a.589.589 0 0 1 .352-.165c-.062.199-.181.4-.36.511m2.439 1.924a1.134 1.134 0 0 0-.02-.354 1.202 1.202 0 0 0-.153-.357 1.11 1.11 0 0 0-.5-.434.726.726 0 0 0 .08-.39.912.912 0 0 0-.181-.454 1.607 1.607 0 0 0-1.088-.62c.044-.297-.016-.607-.253-.802a.645.645 0 0 0-.499-.152.825.825 0 0 0-.446.249c-.267.264-.434.659-.476 1.03a.96.96 0 0 0 .059.505c.046.1.208.041.16-.06-.135-.296-.022-.69.12-.98a1.34 1.34 0 0 1 .313-.425.679.679 0 0 1 .194-.12.448.448 0 0 1 .197-.031c.164.015.33.132.405.29a.821.821 0 0 1 .051.494.778.778 0 0 0-.557.265c-.135.16-.267.533.018.618.133.04.273-.073.363-.155a1.02 1.02 0 0 0 .193-.257c.05-.09.092-.192.122-.3.109.01.218.035.318.071.308.111.616.334.753.626.066.14.084.273.043.419a.682.682 0 0 1-.039.094l-.016.031a.839.839 0 0 0-.338 0 .65.65 0 0 0-.332.154.144.144 0 0 0 .011.214c.067.056.164.064.247.066a.605.605 0 0 0 .48-.234.89.89 0 0 1 .103.046c.251.133.438.403.49.68.023.121.013.25-.006.37a.34.34 0 0 1-.05.148c-.033.044-.08.055-.133.055-.11.001-.094.173.017.172.263-.003.335-.254.35-.472M316.08 21.165a.35.35 0 0 1-.012.022c.006-.149.03-.297.065-.443.018-.069.038-.138.066-.204l.013-.025a.218.218 0 0 1 .015-.024l.005-.004c.007-.009.016-.017.024-.025l.033-.031a.795.795 0 0 1-.006.064v.003l-.002.007-.004.025a2.142 2.142 0 0 1-.04.176 3.74 3.74 0 0 1-.15.439l-.007.018v.002m-1.611.667c.006-.08.024-.16.047-.232a.737.737 0 0 1 .207-.32.312.312 0 0 1 .002.08.591.591 0 0 1-.029.137.782.782 0 0 1-.18.286l-.047.049m2.575-2.327c-.025.1-.038.202-.062.303l-.041.172c-.042.172-.085.343-.133.513a5.942 5.942 0 0 1-.194.583 1.745 1.745 0 0 1-.245.453c.005-.007-.018.02-.025.027a.522.522 0 0 1-.033.032c-.029.026-.025.024-.064.043l-.01.004-.01.004a.311.311 0 0 1-.019.004h-.028l-.012-.001-.005-.001-.002-.002-.008-.004-.01-.008-.008-.01-.007-.01c-.02-.03-.022-.037-.034-.079l-.008-.026a1.837 1.837 0 0 0 .262-.538c.042-.125.285-.785-.053-.734-.07.01-.131.074-.176.12a.474.474 0 0 0-.105.167 2.023 2.023 0 0 0-.115.514 1.82 1.82 0 0 0-.005.44 3.595 3.595 0 0 1-.288.388c-.152.174-.337.352-.568.432-.19.065-.402.053-.506-.125a.46.46 0 0 1-.046-.115c.087-.065.162-.149.22-.22.137-.165.23-.375.194-.587-.012-.077-.074-.15-.164-.147-.116.004-.2.115-.262.194a.993.993 0 0 0-.183.676.295.295 0 0 1-.093.03c.016-.003-.033-.002-.026 0a.225.225 0 0 1-.02-.005h-.002l-.005-.003c-.016-.007-.014-.007-.032-.027a.258.258 0 0 1-.033-.084.551.551 0 0 1-.006-.164c.01-.144.057-.287.1-.424.088-.283.21-.56.39-.804.07-.097.155-.185.25-.263.087-.073-.042-.192-.13-.12-.235.194-.399.45-.523.717-.125.271-.231.567-.266.861-.021.173.006.44.233.48a.374.374 0 0 0 .198-.02c.04.117.112.222.227.29.206.124.484.061.684-.04.232-.117.413-.308.571-.5.054-.065.105-.133.154-.202.05.085.132.138.258.123.156-.018.262-.133.344-.248.109-.152.181-.327.248-.499.103-.269.18-.546.251-.824.027-.105.052-.21.077-.315l.025-.102c.023-.09.032-.183.055-.274.026-.106-.15-.151-.176-.045M324.317 22.56a.35.35 0 0 1 .014.02 2.294 2.294 0 0 1-.35-.278 1.343 1.343 0 0 1-.145-.159l-.015-.024a.218.218 0 0 1-.013-.025l-.001-.006a.422.422 0 0 1-.01-.033l-.01-.044a.795.795 0 0 1 .052.037l.002.002.006.004.02.017.04.035a3.741 3.741 0 0 1 .397.436l.012.016.001.001m-.227 1.728a1.04 1.04 0 0 1-.177-.156.737.737 0 0 1-.174-.339c.022.007.044.02.07.038a.591.591 0 0 1 .105.093.782.782 0 0 1 .157.3l.02.064m-.728-3.393c.074.072.156.134.23.205l.13.122c.127.122.254.245.377.372.143.147.281.298.408.46.105.132.206.276.27.437-.004-.008.008.027.01.035.005.015.009.03.012.046.008.037.008.033.005.076l-.001.011-.002.01a.311.311 0 0 1-.006.019.192.192 0 0 1-.014.024l-.007.01-.003.003-.003.002-.007.004-.012.005-.012.003h-.012c-.037.003-.044 0-.087-.01l-.026-.006a1.837 1.837 0 0 0-.335-.496c-.087-.099-.538-.64-.662-.32-.026.065-.001.15.015.211.019.07.05.12.093.175.108.138.248.253.387.357.08.059.226.162.379.224.072.143.139.29.192.443.075.219.136.468.09.708-.038.197-.155.375-.361.376a.46.46 0 0 1-.123-.017 1.352 1.352 0 0 0-.08-.302c-.075-.2-.21-.385-.411-.461-.073-.028-.168-.011-.21.068-.055.103 0 .232.037.325a.993.993 0 0 0 .494.496.295.295 0 0 1-.02.096c.005-.016-.02.027-.013.022a.225.225 0 0 1-.014.015l-.002.002-.005.003c-.014.01-.013.009-.04.014a.258.258 0 0 1-.088-.013.551.551 0 0 1-.146-.077c-.119-.081-.22-.193-.317-.298a2.704 2.704 0 0 1-.501-.74 1.486 1.486 0 0 1-.103-.348c-.02-.113-.187-.06-.169.052.051.3.191.57.36.811.172.244.375.484.612.662.14.104.385.214.533.038a.374.374 0 0 0 .082-.182.526.526 0 0 0 .364-.051c.21-.117.295-.39.307-.613.015-.26-.06-.512-.147-.745a3.302 3.302 0 0 0-.099-.234.245.245 0 0 0 .237-.162c.061-.144.016-.293-.043-.422a2.246 2.246 0 0 0-.308-.463 7.249 7.249 0 0 0-.589-.63c-.077-.076-.155-.15-.234-.224l-.076-.073c-.067-.065-.142-.12-.21-.184-.078-.076-.206.053-.126.13M317.326 16.806c-.064-.137-.11-.316-.065-.466.21.209.314.524.339.823-.123-.082-.214-.227-.274-.357m-.74 1.516a.84.84 0 0 1-.017.12.915.915 0 0 1-.273-.152c-.177-.138-.333-.342-.373-.571a.414.414 0 0 1 .053-.282c.01-.016.013-.02.028-.034a.1.1 0 0 0 .017-.011l.012-.004.014-.002.014.001.024.007c.018.005.014.004.035.016a.46.46 0 0 1 .047.031c.03.022.065.057.094.088.066.07.122.147.173.228.045.07.087.145.12.222l.002.002.001.005.01.03a.913.913 0 0 1 .02.306m-1.425.737c-.145-.056-.272-.149-.27-.308 0-.022 0-.017.007-.04 0 .002.014-.024.008-.016.018-.022.024-.024.058-.034a.485.485 0 0 1 .21.012 1.292 1.292 0 0 1 .41.179c.096.08.138.185.152.298a1.516 1.516 0 0 1-.575-.091m2.113-2.935c-.038-.03-.092-.004-.116.032-.141.212-.084.493.008.711.084.2.237.41.439.496-.01.318-.105.645-.322.871a.779.779 0 0 1-.55.237c.011-.054.019-.11.023-.165a.901.901 0 0 0-.041-.38 1.543 1.543 0 0 0-.117-.229c-.099-.163-.223-.334-.386-.434a.294.294 0 0 0-.232-.042c-.089.025-.148.108-.183.191-.098.232-.033.48.095.683.13.206.323.383.54.483a.837.837 0 0 0 .084.032.973.973 0 0 1-.444.486c.005-.003-.026.01-.031.011a.68.68 0 0 1-.137.031.642.642 0 0 0-.122-.323c-.11-.146-.283-.221-.448-.278-.15-.051-.355-.101-.499-.009-.156.101-.135.34-.037.476.114.158.306.233.486.275.148.035.302.05.455.046-.007.098-.024.196-.037.286-.007.048.01.095.059.108.04.012.097-.013.104-.061.017-.113.037-.23.043-.345a.833.833 0 0 0 .206-.047.95.95 0 0 0 .31-.217c.116-.114.203-.254.26-.406a.877.877 0 0 0 .341-.044c.361-.12.591-.456.69-.82.153-.565.028-1.283-.441-1.655"/>
        <path fill="#595959" d="M319.454 16.743a.37.37 0 0 1 .062-.313.38.38 0 0 1-.062.313m-1.265-.17a.422.422 0 0 1-.095.129.84.84 0 0 1 .195-.506v.01a.982.982 0 0 1-.1.368m1.983-.153c-.136-.142-.36-.26-.565-.228a.854.854 0 0 0-.402-.368c-.234-.1-.538-.069-.76.038-.056-.261-.215-.53-.528-.459-.236.054-.407.282-.52.473-.108.186-.217.448-.137.664.038.104.204.046.166-.058a.275.275 0 0 1-.015-.094c0-.034.009-.086.018-.127.023-.101.066-.197.116-.287.087-.159.224-.345.406-.403a.228.228 0 0 1 .082-.008c.04.005.044.008.083.03-.014-.008.019.015.025.02l.015.015.01.01c.025.03.04.056.053.084a.743.743 0 0 1 .067.238.935.935 0 0 0-.31.43c-.052.146-.069.299-.058.453.004.043.051.086.098.077.369-.066.455-.539.454-.839l-.001-.035a.835.835 0 0 1 .46-.108c.22.011.41.133.518.317-.145.102-.194.3-.176.469.008.07.03.14.06.205.023.049.086.074.134.04.227-.156.275-.393.21-.615.127 0 .276.093.355.167.147.136.208.34.229.528.02.196-.004.402-.076.585-.04.102.12.176.16.074.16-.404.152-.95-.171-1.288"/>
        <g transform="matrix(-1 0 0 1 320.556 18.333)">
            <mask id="t" fill="#fff">
                <use xlink:href="#s"/>
            </mask>
            <path fill="#595959" d="M1.354 1.2a.722.722 0 0 1-.098.205.27.27 0 0 1-.145.109.172.172 0 0 1-.074.004c-.036-.007-.042-.013-.06-.033.013.015-.008-.021-.008-.016l-.006-.026a.292.292 0 0 1 0-.044c0-.018.001-.021.008-.047a.78.78 0 0 1 .295-.417.535.535 0 0 1 .145-.078 1.296 1.296 0 0 1-.057.343m.39-.487a.486.486 0 0 0-.171-.047C1.55.42 1.455.182 1.209.123.986.07.749.176.563.293.376.414.196.576.081.77a.65.65 0 0 0-.018.036C.013.904.158.99.208.892.302.704.477.554.648.442c.153-.1.387-.22.571-.137.062.028.09.064.124.134a.78.78 0 0 1 .061.242.647.647 0 0 0-.204.092 1.01 1.01 0 0 0-.368.46c-.057.143-.063.336.087.422.149.087.332.013.438-.108.12-.135.177-.321.203-.498.01-.063.017-.134.019-.209.045.007.089.023.133.05.165.1.255.316.254.505a.392.392 0 0 1-.075.24.33.33 0 0 1-.253.113c-.107.005-.108.177 0 .172.187-.009.362-.095.444-.275a.712.712 0 0 0 .005-.524.704.704 0 0 0-.343-.408" mask="url(#t)"/>
        </g>
        <g transform="translate(317.5 20)">
            <mask id="v" fill="#fff">
                <use xlink:href="#u"/>
            </mask>
            <path fill="#595959" d="M1.354 1.2a.722.722 0 0 1-.098.205.27.27 0 0 1-.145.109.172.172 0 0 1-.074.004c-.036-.007-.042-.013-.06-.033.013.015-.008-.021-.008-.016l-.006-.026a.292.292 0 0 1 0-.044c0-.018.001-.021.008-.047a.78.78 0 0 1 .295-.417.535.535 0 0 1 .145-.078 1.296 1.296 0 0 1-.057.343m.39-.487a.486.486 0 0 0-.171-.047C1.55.42 1.455.182 1.209.123.986.07.749.176.563.293.376.414.196.576.081.77a.65.65 0 0 0-.018.036C.013.904.158.99.208.892.302.704.477.554.648.442c.153-.1.387-.22.571-.137.062.028.09.064.124.134a.78.78 0 0 1 .061.242.647.647 0 0 0-.204.092 1.01 1.01 0 0 0-.368.46c-.057.143-.063.336.087.422.149.087.332.013.438-.108.12-.135.177-.321.203-.498.01-.063.017-.134.019-.209.045.007.089.023.133.05.165.1.255.316.254.505a.392.392 0 0 1-.075.24.33.33 0 0 1-.253.113c-.107.005-.108.177 0 .172.187-.009.362-.095.444-.275a.712.712 0 0 0 .005-.524.704.704 0 0 0-.343-.408" mask="url(#v)"/>
        </g>
        <path fill="#595959" d="M313.538 18.973c.026-.085-.116-.12-.142-.036a.251.251 0 0 0 .027.197c.017.033.068.041.1.024.037-.02.044-.06.027-.093a.116.116 0 0 1-.012-.092M313.52 18.082c-.033-.02-.084-.01-.101.026a.296.296 0 0 0-.03.135c0 .04.034.074.074.074.04 0 .074-.033.074-.074v-.032l.004-.016.002-.007.003-.006c.018-.036.01-.079-.026-.1M320.737 19.015a1.895 1.895 0 0 0-.333-.241c-.045-.028-.122-.026-.155-.006-.038.024-.019.06.026.087.094.058.192.118.26.185a.183.183 0 0 0 .148.048c.05-.007.087-.041.054-.073M322.493 20.966c.033-.027.03-.08-.02-.106a.9.9 0 0 0-.415-.1c-.137-.003-.105.147.031.15.09 0 .176.016.255.057.05.025.112.03.15-.001M323.458 21.556c-.04-.058-.07-.118-.121-.168-.028-.028-.078-.02-.101.008-.027.032-.02.074.008.101.04.039.064.095.096.141.053.077.17-.006.118-.082M324.199 22.576c-.03-.06-.06-.122-.1-.176-.055-.073-.174.002-.12.075.035.045.058.096.083.146a.08.08 0 0 0 .095.041c.035-.012.058-.052.042-.086"/>
        <g transform="rotate(100 152.545 148.023)">
            <mask id="x" fill="#fff">
                <use xlink:href="#w"/>
            </mask>
            <path fill="#595959" d="M.606.15C.457.13.326.074.186.032.138.017.08.048.067.083c-.015.042.02.076.069.09.139.044.27.098.418.119C.677.309.73.167.606.15" mask="url(#x)"/>
        </g>
        <path fill="#595959" d="M322.968 21.943a.446.446 0 0 0-.064-.113c-.027-.038-.055-.074-.1-.088-.038-.011-.077.023-.083.058-.008.042.02.072.058.083a.055.055 0 0 1-.026-.011l.005.004.001.002.002.001a.568.568 0 0 1 .064.094.123.123 0 0 1 .008.02c.012.037.057.055.093.042a.073.073 0 0 0 .042-.092M322.295 21.443l-.064-.092a.074.074 0 0 0-.103-.018.074.074 0 0 0-.018.103l.064.091c.023.033.07.041.102.018a.074.074 0 0 0 .019-.102M311.856 18.35c-.053.042-.11.076-.161.117-.065.052-.005.18.06.128.053-.042.11-.076.162-.118.064-.052.004-.18-.061-.127M312.466 17.793c-.034-.034-.07-.009-.091.04-.049.11-.094.222-.143.331-.022.05-.005.126.024.154.034.034.07.008.092-.04.048-.11.094-.222.142-.33.022-.05.005-.127-.024-.155M313.46 16.714l-.08.079a.074.074 0 0 0 0 .104.074.074 0 0 0 .105 0l.079-.078a.074.074 0 0 0 0-.105.074.074 0 0 0-.105 0M312.164 20.086a.428.428 0 0 1-.146-.037c-.074-.03-.105.112-.032.142.058.023.117.04.178.042.078.002.078-.145 0-.147M313.562 20.385a.537.537 0 0 1-.128-.071c-.03-.022-.074-.007-.092.026a.08.08 0 0 0 .025.1c.05.037.102.066.159.087.035.013.073-.015.083-.052a.076.076 0 0 0-.047-.09M313.411 21.185a2.311 2.311 0 0 0-.022.382c0 .133.147.133.147 0 0-.11 0-.22.017-.328.022-.129-.12-.183-.142-.054M313.583 22.577a.612.612 0 0 1-.132-.276c-.012-.054-.039-.092-.073-.075-.028.014-.054.077-.041.131.039.17.097.306.186.404.065.073.125-.111.06-.184"/>
        <g transform="translate(314.167 22.778)">
            <mask id="z" fill="#fff">
                <use xlink:href="#y"/>
            </mask>
            <path fill="#595959" d="M.333.13A.94.94 0 0 1 .116.114C.024.092-.015.234.077.256c.084.019.17.022.256.022.095 0 .095-.147 0-.147" mask="url(#z)"/>
        </g>
        <path fill="#595959" d="M315.972 22.53c-.113.025-.22.058-.335.078-.143.024-.082.166.06.142.116-.02.223-.053.336-.078.138-.031.078-.174-.061-.143M314.861 20.294a.074.074 0 0 0-.074.074v.098c0 .04.034.073.074.073.04 0 .074-.033.074-.073v-.098a.074.074 0 0 0-.074-.074M315.212 21.522a.073.073 0 0 1-.047-.02.125.125 0 0 1-.032-.062c-.023-.09-.153-.052-.13.039.027.105.104.184.21.188.087.002.086-.142 0-.145M315.382 20.585a.324.324 0 0 0-.07.186c-.001.083.146.083.148 0a.21.21 0 0 1 .049-.12c.051-.07-.076-.135-.127-.066M316.346 19.47c-.034-.019-.081-.008-.1.027l-.004.005-.007.01c-.007.009-.015.015-.024.022l-.005.004-.018.012a.367.367 0 0 1-.034.02c-.036.017-.046.067-.026.1.02.036.065.045.1.026a.336.336 0 0 0 .145-.124.075.075 0 0 0-.027-.101M317.426 18.63a.406.406 0 0 0-.185.117c-.056.066.028.17.084.105a.286.286 0 0 1 .133-.08c.074-.024.042-.166-.032-.142M318.541 18.38a.391.391 0 0 0-.172.049c-.035.018-.045.068-.026.1.021.037.064.045.1.027a.206.206 0 0 1 .098-.03c.093-.001.094-.148 0-.147M319.415 18.437a.325.325 0 0 0-.186-.069c-.083-.002-.083.145 0 .147a.21.21 0 0 1 .12.05c.07.05.135-.077.066-.128M313.275 19.52c-.049 0-.098 0-.145-.017-.075-.028-.106.114-.032.142a.497.497 0 0 0 .177.022c.078 0 .078-.147 0-.147M314.35 19.214a.212.212 0 0 1-.121.048c-.083.002-.083.15 0 .148a.326.326 0 0 0 .186-.07c.069-.05.005-.178-.065-.126M314.092 18.414a.074.074 0 0 0-.073-.074.074.074 0 0 0-.074.074c0 .054.006.104.03.155.017.036.068.045.1.026.037-.022.044-.065.027-.1-.012-.026-.01-.05-.01-.081M315.145 16.964c-.129.024-.25.065-.368.106-.124.042-.015.17.108.127.103-.036.205-.07.317-.09.133-.025.076-.167-.057-.143M315.177 17.516c-.05.037-.094.082-.144.118a.08.08 0 0 0-.024.101c.018.033.062.049.092.026.05-.037.094-.08.144-.117a.08.08 0 0 0 .024-.101c-.018-.033-.062-.05-.092-.027M316.257 16.14a.745.745 0 0 0-.14.433c-.001.125.146.125.148 0a.505.505 0 0 1 .096-.295c.066-.09-.038-.228-.104-.137M318.219 16.14c-.051-.068-.179-.004-.127.066a.58.58 0 0 1 .071.138c.03.079.172.045.142-.034a.69.69 0 0 0-.086-.17M317.035 16.67c-.036-.013-.078.014-.088.047-.01.038.013.07.05.083a.143.143 0 0 1 .084.097c.024.083.163.048.138-.036a.285.285 0 0 0-.184-.191M320.231 16.496c-.052-.021-.099-.057-.151-.079-.032-.013-.07.015-.078.052-.01.04.012.077.044.09.052.022.1.058.152.079.032.014.069-.015.077-.051a.077.077 0 0 0-.044-.09M320.738 16.98c-.018-.036-.069-.045-.1-.026-.038.021-.045.063-.028.098l.006.017.008.03a.754.754 0 0 0 .018.07c.013.038.051.061.091.05.037-.01.064-.05.051-.088-.016-.05-.023-.103-.046-.151M318.253 17.814a.252.252 0 0 0-.17.08.074.074 0 0 0 0 .104.075.075 0 0 0 .104 0 .14.14 0 0 1 .044-.032.078.078 0 0 1 .009-.003l.007-.002h.006a.075.075 0 0 0 .074-.074.074.074 0 0 0-.074-.073M317.975 21.98a.252.252 0 0 0-.17.081.074.074 0 0 0 0 .104.075.075 0 0 0 .105 0 .14.14 0 0 1 .044-.033.078.078 0 0 1 .008-.002l.007-.002h.006a.075.075 0 0 0 .074-.074.074.074 0 0 0-.074-.074M317.42 20.314a.252.252 0 0 0-.17.08.074.074 0 0 0 0 .104.075.075 0 0 0 .104 0 .14.14 0 0 1 .044-.032.078.078 0 0 1 .009-.003l.007-.002h.006a.075.075 0 0 0 .074-.074.074.074 0 0 0-.074-.073M320.753 20.87a.252.252 0 0 0-.17.08.074.074 0 0 0 0 .104.075.075 0 0 0 .104 0 .14.14 0 0 1 .044-.033.078.078 0 0 1 .009-.003l.007-.001h.006a.075.075 0 0 0 .074-.074.074.074 0 0 0-.074-.074M322.42 22.258a.252.252 0 0 0-.17.08.074.074 0 0 0 0 .105.075.075 0 0 0 .104 0 .14.14 0 0 1 .044-.033.078.078 0 0 1 .009-.003l.007-.001h.006a.075.075 0 0 0 .074-.074.074.074 0 0 0-.074-.074M321.864 24.48a.252.252 0 0 0-.17.081.074.074 0 0 0 0 .104.075.075 0 0 0 .105 0 .14.14 0 0 1 .043-.033.078.078 0 0 1 .01-.002l.006-.002h.006a.075.075 0 0 0 .074-.074.074.074 0 0 0-.074-.074M323.53 23.092a.252.252 0 0 0-.169.08.074.074 0 0 0 0 .104.075.075 0 0 0 .104 0 .14.14 0 0 1 .044-.033.078.078 0 0 1 .009-.002l.007-.002h.006a.075.075 0 0 0 .074-.074.074.074 0 0 0-.074-.073M322.975 19.758a.252.252 0 0 0-.17.08.074.074 0 0 0 0 .105.075.075 0 0 0 .105 0 .14.14 0 0 1 .044-.033.078.078 0 0 1 .008-.003l.007-.001h.006a.075.075 0 0 0 .074-.074.074.074 0 0 0-.074-.074M322.42 20.592a.252.252 0 0 0-.17.08.074.074 0 0 0 0 .104.075.075 0 0 0 .104 0 .14.14 0 0 1 .044-.033.078.078 0 0 1 .009-.002l.007-.002h.006a.075.075 0 0 0 .074-.074.074.074 0 0 0-.074-.073M324.364 20.592a.252.252 0 0 0-.17.08.074.074 0 0 0 0 .104.075.075 0 0 0 .105 0 .14.14 0 0 1 .043-.033.078.078 0 0 1 .01-.002l.006-.002h.006a.075.075 0 0 0 .074-.074.074.074 0 0 0-.074-.073M319.642 21.703a.252.252 0 0 0-.17.08.074.074 0 0 0 0 .104.075.075 0 0 0 .104 0 .14.14 0 0 1 .044-.032.078.078 0 0 1 .009-.003l.007-.002h.006a.075.075 0 0 0 .074-.074.074.074 0 0 0-.074-.073M319.102 17.862c-.03 0-.074.005-.097-.018-.064-.064-.16.04-.095.104.054.054.121.061.192.061.086 0 .086-.147 0-.147M315.126 19.511l-.011.012-.004.002-.004.003h-.001l-.006.001a.074.074 0 0 0-.074.074c0 .04.034.074.074.073a.185.185 0 0 0 .13-.06.074.074 0 0 0 0-.105.074.074 0 0 0-.104 0M317.361 17.258a.074.074 0 0 0-.074.074v.059c0 .04.034.073.074.073.04 0 .074-.033.074-.073v-.06a.075.075 0 0 0-.074-.073M318.773 15.867c-.043-.077-.17-.009-.127.068.024.042.054.082.071.127.014.034.05.057.09.047.038-.01.065-.048.052-.083-.022-.056-.056-.106-.086-.159M316.744 22.275a.65.65 0 0 1-.277.28c-.053.023-.09.073-.074.138.014.053.077.103.13.078a.884.884 0 0 0 .405-.382c.072-.124-.112-.237-.184-.114M320.495 18.614c-.04-.011-.077.013-.09.05a.221.221 0 0 1-.034.058.207.207 0 0 1-.022.02l-.011.005c-.038.014-.063.049-.051.089.01.035.052.063.09.05.087-.032.14-.101.17-.184.012-.037-.015-.078-.052-.088M313.718 17.542c-.023.055-.055.107-.078.162-.031.074.111.105.142.032.023-.055.055-.107.078-.162.031-.074-.11-.106-.142-.032M312.366 20.884a1.84 1.84 0 0 0-.144.676c-.001.142.14.142.142 0 .002-.199.055-.4.124-.565.05-.12-.073-.23-.122-.111"/>
        <g transform="translate(311.111 20)">
            <mask id="B" fill="#fff">
                <use xlink:href="#A"/>
            </mask>
            <path fill="#595959" d="M.465.304L.44.288.433.283.42.273a.084.084 0 0 0-.118 0 .084.084 0 0 0 0 .117.352.352 0 0 0 .058.045.083.083 0 0 0 .08.058C.484.493.525.455.523.41A.132.132 0 0 0 .465.304" mask="url(#B)"/>
        </g>
        <path fill="#714E46" d="M323.644 25.021c-1.204-.937-1.605 2.008-1.339 2.678.135.402 1.205-.803 1.339-.937.268-.402.536-1.34 0-1.74"/>
        <path fill="#664640" d="M323.377 25.824c-.135.268-.135.402-.268.67h.268c.134-.135.402-.536 0-.67M313.736 30.778v.402c0 .134.134.134.134 0v-.402c.134-.134-.134-.134-.134 0"/>
        <g transform="translate(275 94.132)">
            <mask id="D" fill="#fff">
                <use xlink:href="#C"/>
            </mask>
        </g>
        <path fill="#D6D6D6" d="M314.138 64.654c-.268 0-.536.268-.536.535v.134c0 .134-.134.268-.268.402-.133.268-.133.67.268.803.268.134.67.134.804-.267.134-.402.401-.67.401-1.072-.134-.267-.401-.535-.67-.535M314.54 60.37c-.268 0-.536.267-.536.535v.803c0 .268.268.536.536.536s.536-.268.536-.536v-.803c.133-.268-.134-.535-.536-.535M313.736 55.014c-.267.134-.401.535-.267.803s.134.402.134.67c0 .267.267.535.535.535s.536-.268.536-.535c0-.402 0-.938-.268-1.34 0-.267-.402-.267-.67-.133M313.067 50.06c-.268.267-.268.535 0 .803v.267c0 .268.268.536.536.536.267 0 .535-.268.535-.536 0-.401 0-.803-.402-1.07-.133-.135-.535-.135-.67 0M311.862 43.9c-.402-.67-1.339 0-.937.535.268.402.401.938.67 1.473.267.67 1.338.402 1.07-.267-.267-.536-.401-1.206-.803-1.741M314.272 42.025s-.134 0 0 0c-.134-.267-.134-.401-.134-.401-.134-.268-.402-.402-.803-.402-.268 0-.536.268-.536.536 0 .267.134.401.402.535v.134c0 .134.134.268.134.268.133.268.535.402.803.268.134-.268.268-.536.134-.938 0 .134 0 0 0 0M315.477 45.373c-.134-.402-.268-.536-.536-.536s-.535.268-.535.536c0 .134 0 .268.134.402v.267c0 .268.267.536.535.536s.536-.268.536-.536c0-.134 0-.401-.134-.535.134 0 0 0 0-.134M316.012 48.988c-.268 0-.535.268-.535.536s.134.402.267.536v.133c0 .268.268.536.536.536s.536-.268.536-.536c0-.267-.134-.401-.134-.67 0-.4-.268-.535-.67-.535M316.548 52.871c-.267.268-.267.536 0 .804v.267c0 .268.268.536.536.536s.534-.268.534-.536c0-.401 0-.803-.4-1.07-.134-.135-.536-.135-.67 0M317.352 57.29c-.268 0-.536.267-.536.535v.67c0 .267.268.535.536.535.266 0 .534-.268.534-.535v-.67c.135-.268-.132-.536-.534-.536M317.084 62.244c-.268 0-.536.268-.536.536v.669c0 .268.268.536.536.536s.534-.268.534-.536v-.67c0-.267-.266-.535-.534-.535M317.084 66.395c-.268-.134-.67-.134-.804.268-.133.401-.401.67-.401 1.07 0 .269.268.536.535.536.268 0 .535-.267.535-.535 0-.134.135-.268.269-.402.134-.402.134-.803-.134-.937M319.762 68.27c-.268 0-.536.267-.536.535v.134c-.134.134-.269.401-.134.67.134.267.402.4.535.4.269 0 .536-.267.669-.535v-.67c0-.267-.266-.535-.534-.535M319.895 64.52c-.268.402-.402.804-.402 1.205 0 .268.268.536.537.536.267 0 .535-.268.535-.536v-.535a.846.846 0 0 0 0-.803c0-.134-.402-.134-.67.133M320.7 58.495c-.269 0-.536.268-.536.536v.67c0 .267.267.535.535.535.267 0 .535-.268.535-.536v-.67c0-.267-.268-.535-.535-.535M323.912 57.022c-.268 0-.534.268-.534.536 0 .267.132.67.132.937 0 .268.268.536.537.536.267 0 .534-.268.534-.536s-.133-.67-.133-.937c0-.268-.268-.536-.536-.536M323.912 62.244c-.268 0-.534.268-.534.536v.803c0 .268.266.535.534.535s.536-.267.536-.535v-.803c0-.268-.268-.536-.536-.536M322.974 67.466c0 .402 0 .804-.133 1.204-.268.67.938 1.071 1.07.27.136-.538.136-.94.136-1.474 0-.804-1.073-.804-1.073 0"/>
        <path fill="#000" d="M319.762 26.627c-.402-.267-.805-.267-1.205-.133-.27.133-.536.401-.402 1.205h.402c0-.402 0-.804.267-.938.268-.134.536-.134.803.134.269.134.403.536.269.804h.4c0-.402-.266-.804-.534-1.072M314.807 26.895c-.267-.267-.803-.267-1.07-.133-.135.133-.536.401-.403 1.07h.268c0-.4 0-.669.268-.803.134-.134.402-.134.67.134.267.134.401.402.267.67h.268c.134-.268 0-.67-.268-.938"/>
        <path fill="#FFF" d="M314.673 30.778c.402 1.205.536 1.607.938 1.607 1.205 0 2.276-.803 2.41-1.74-.402.133-3.214.267-3.348.133"/>
        <path fill="#A44C57" d="M314.941 31.448c.134.401.402.937.536.937.402 0 1.071 0 1.607-.268.401-.268.803-.803.803-.803-.536.134-2.544.134-2.946.134"/>
        <path fill="#B65F67" d="M316.414 31.716c-.401 0-.937.402-.937.67 0 .133.803 0 .803 0a4.029 4.029 0 0 0 1.072-.536c-.134-.134-.67-.134-.938-.134"/>
        <g transform="translate(275 94.132)">
            <mask id="F" fill="#fff">
                <use xlink:href="#E"/>
            </mask>
        </g>
        <g transform="translate(275 94.132)">
            <mask id="H" fill="#fff">
                <use xlink:href="#G"/>
            </mask>
        </g>
        <path fill="#D6D6D6" d="M326.858 70.278c-.268-.134-.67-.134-.803.267-.268.402-.268.938-.268 1.473 0 .804 1.205.804 1.205 0v-.535c0-.134 0-.268.134-.402 0-.402 0-.67-.268-.803M326.457 64.654v1.205c0 .803 1.203.803 1.203 0v-1.205c-.132-.804-1.203-.804-1.203 0M326.991 59.03c-.803 0-.803 1.206 0 1.206.805 0 .805-1.205 0-1.205M330.607 58.628c-.268-.133-.67-.133-.804.268-.133.268-.133.67.27.804h.132c-.132.267 0 .535.268.803.269.134.67.134.803-.268.136-.268.136-.67.136-.937-.27-.268-.537-.536-.805-.67M329.937 65.323c-.267 0-.534.268-.534.536v1.071c0 .268.267.537.534.537.268 0 .536-.27.536-.537v-.937c.134-.402-.134-.67-.536-.67M332.75 64.252v1.34c0 .803 1.204.803 1.204 0v-1.34c-.133-.67-1.204-.67-1.204 0"/>
        <path fill="#085EBD" d="M324.85 35.733c-.938 1.874-2.946 2.544-4.955 2.945-1.07.268-2.41.268-3.48-.133-.537-.134-1.072-.402-1.34-.804-.402-.535-.803-.67-1.339 0 .268.804 1.205 1.875 2.142 2.276 1.875.938 5.49.402 7.499-.535.67-.402 1.339-.937 1.74-1.473.268-.268.804-1.339.536-1.607-.134-.268-.67-.803-.803-.67"/>
        <path fill="#D6D6D6" d="M315.61 38.544c-.803.134-.669 1.205.135 1.205.803 0 .67-1.205-.134-1.205M318.556 39.348a.288.288 0 0 0-.268-.268c-.134-.268-.401-.268-.535-.268-.268 0-.536.268-.536.67 0 .267.135.401.268.401.134.134.268.268.537.268.266 0 .534-.268.534-.67v-.133zM320.966 39.482c0-.134-.134-.134-.134-.268v-.134c0-.268-.268-.402-.535-.402s-.535.268-.535.536c0 .401.133.67.268.937.133.268.534.268.802.134.27-.268.27-.536.134-.803M322.573 38.277h-.134c-.268 0-.535.267-.535.67 0 .267.267.535.669.535h.135c.267 0 .535-.268.535-.67 0-.401-.268-.535-.67-.535M324.983 37.072c-.134-.268-.402-.536-.67-.402-.266 0-.534.268-.534.67 0 .133 0 .267.133.401 0 .134.135.134.268.268.269.268.669.134.803-.134.268-.134.268-.535 0-.803"/>
        <path fill="#085EBD" d="M334.49 75.097c-5.222 2.277-12.186.536-17.406-.67-.67-.133-5.49-2.141-4.954-2.943-1.741 3.08.535 4.818 3.213 5.622 3.75 1.072 7.63 2.144 11.648 2.276 3.08 0 6.562-.402 9.373-1.74 1.742-.803.938-2.545.536-4.017-.803.669-1.606 1.07-2.41 1.472"/>
        <path fill="#D6D6D6" d="M333.017 75.902c-.267 0-.535.267-.535.534v.403c0 .134 0 .266-.135.402-.134.267 0 .534.403.669.267.134.67 0 .67-.402.132-.267.132-.67.132-.937 0-.402-.268-.67-.535-.67M330.339 76.17c-.267-.136-.67 0-.67.401a1.854 1.854 0 0 0 0 1.204c0 .268.403.537.67.403.268 0 .535-.403.403-.67v-.535c0-.402-.135-.803-.403-.803M326.59 76.571c-.134.268-.134.534-.134.803 0 .268.402.536.67.4.269 0 .535-.4.401-.669v-.132c.134-.268 0-.537-.132-.67-.27 0-.537 0-.805.268M325.386 75.634c-.268-.134-.67 0-.67.401 0 .134-.135.268-.135.536v.401c-.133.268 0 .536.402.67.267.134.67 0 .67-.402 0-.134.134-.268.134-.535v-.402a.739.739 0 0 0-.401-.67M322.038 75.634c-.268 0-.535.401-.403.669v.134c-.132.268 0 .535.135.67.268.133.67.133.802-.135.136-.267.136-.535.136-.803-.136-.402-.403-.535-.67-.535M319.092 75.902c-.135.267-.135.67-.135.937 0 .266.403.535.67.402.269 0 .536-.402.403-.67v-.268c.133-.268 0-.537-.268-.67-.135-.133-.536 0-.67.269M317.352 74.563c-.268 0-.536.267-.536.534l-.134 1.072c0 .267.267.536.535.536.269 0 .537-.27.537-.536l.132-1.072c0-.133-.268-.4-.534-.534"/>
        <g transform="translate(276.339 34.522)">
            <mask id="J" fill="#fff">
                <use xlink:href="#I"/>
            </mask>
            <path fill="#FF7900" d="M49.581 42.987c-.133.67-.267 1.473-.401 2.142-.402 4.954 6.962 16.603-2.678 14.595C39.405 58.25 38.2 47.27 29.765 52.76c-2.678 1.74-13.122 11.783-15.8 6.827-1.874-3.615.268-7.229 1.205-10.576 1.607-5.759.937-9.373-4.285-11.917C7.003 35.087.843 33.48.04 28.392c-.536-3.08 4.418-4.15 6.56-4.686 3.75-.939 9.106-1.608 12.185-4.286 2.812-2.275 4.017-6.426 5.222-9.773C26.15 3.755 31.505-5.082 36.326 4.29c5.088 9.908 3.347 17.674 15.4 18.476 8.165.537 16.467 3.347 5.89 10.042-3.482 2.41-6.83 5.893-8.035 10.178" mask="url(#J)"/>
        </g>
        <path fill="#714E46" d="M296.597 76.84a.287.287 0 0 0-.267-.269c-.134 0-.134-.135-.268-.135-1.34-.402-4.285 1.474-4.285-.936-.536.534-.937 1.204-1.205 1.873-.536 1.207-.67 2.546-.268 3.885.67 2.008 1.875 1.74 3.481 1.07 1.072-.4 2.545-2.544 2.812-3.748V77.106c.134-.133 0-.133 0-.267"/>
        <path fill="#664640" d="M296.464 76.571c-.134 0-.134 0 0 0l-.134-.135c-1.205 1.072-3.08 1.608-5.356 1.742v.67c2.276-.135 4.151-.804 5.49-1.875-.134-.134-.134-.268 0-.402M296.464 78.58c-1.339 1.07-2.946 1.74-5.49 2.008v-.67c2.544-.267 4.553-1.07 5.758-2.276-.134.536-.134.536-.268.938M293.518 81.123c1.205-.535 2.41-1.204 2.544-1.473-.134.537-.67 1.071-1.071 1.339-.402.269-.804.402-1.071.537-.268.132-2.678.67-2.678.534v-.67c-.134.136 2.008-.267 2.276-.267"/>
        <path fill="#714E46" d="M339.846 78.58c-.402-1.206-.937-2.41-2.276-2.814-2.545-.67-4.686.939-7.097 1.475-1.07.267-2.143.267-3.347.534-1.205.269-2.41.269-3.615.269-.537 0-1.607-.402-2.009 0-.537.268-.401 1.205-.267 1.74 0 .134 0 .268.134.268.266.938 1.338 1.74 2.274 2.277 1.876 1.07 4.017 1.07 6.026.937 1.474-.135 2.947-.402 4.286-.805.937-.266 2.008-.534 2.945-.802.802-.134 1.472 0 2.277-.402 1.473-.669 1.07-1.606.67-2.677"/>
        <path fill="#664640" d="M321.369 78.178v.534c1.203.805 2.944 1.207 4.953 1.072v-.535c-2.141.133-3.75-.268-4.953-1.07M321.369 79.65c.134.402.134.402.401.67 1.34.803 2.81 1.071 5.089.937v-.67c-2.41.268-4.287-.133-5.49-.937M327.796 81.927c0 .134-2.144.268-2.277.134-1.339-.134-2.545-.536-2.678-.67.268.4.802.804 1.34.938.401.132.801.267 1.07.267.268 0 2.678 0 2.678-.135l-.133-.534z"/>
        <path fill="#085EBD" d="M354.039 55.817c-1.607-5.757-7.632-11.515-12.453-14.862-2.544-1.741-5.356-4.151-8.435-2.41-1.07.669-2.143 1.606-2.946 2.677-.937 1.34-1.471 2.946-1.607 4.42-.534 6.158 8.436 9.238 11.517 13.79 3.078 4.553-.805 9.775-3.483 13.524-.268.268-3.08 2.81-3.08 2.81.804.403 1.876 2.678 2.277 3.483-.134-.135-.268-.402-.268-.536.537 1.205.937 2.41.67 3.748 1.875.27 4.418-.802 5.892-1.339 5.623-2.542 10.978-9.237 12.183-14.86.804-3.482.67-7.097-.267-10.445"/>
        <path fill="#085EBD" d="M337.302 81.927c-.402-2.009-1.072-5.356-2.41-7.097-.268-.267-1.741.936-2.009 1.205-.402.67 0 1.473.134 2.143.268 1.205.403 2.544 1.072 3.614.936 1.474 2.141.938 3.213.135.135 0 .135 0 0 0"/>
        <path fill="#D6D6D6" d="M340.248 77.24c-.134 0-.268.134-.402.134-.268.134-.402.268-.536.4a.649.649 0 0 0 0 .94c.268.267.67.133.938-.134.133 0 .267-.136.267-.136.402-.132.536-.534.402-.802.134-.268-.268-.537-.67-.401M344.8 74.563c-.267-.268-.669-.268-.937.134-.267.267-.401.4-.67.535-.4.134-.536.534-.4.803.133.4.533.536.803.4.535-.132.937-.533 1.338-.935.133-.268.133-.803-.133-.937M347.344 70.278c-.402-.134-.67.134-.804.535v.134l-.133.134a.65.65 0 0 0 0 .937c.267.268.669.268.937-.134.135-.133.268-.267.268-.401.134-.134.134-.268.267-.536.134-.268-.267-.67-.535-.67M335.16 42.56l-.805-.535c-.266-.134-.67-.134-.936.134-.134.268-.134.67.134.938l.802.535c.27.134.67.134.939-.134.267-.401.267-.803-.134-.937M339.042 44.837l-.67-.401c-.266-.134-.669-.134-.935.134-.136.267-.136.67.132.937l.67.402c.269.133.67.133.938-.134.268-.402.133-.804-.135-.938M342.256 47.917l-.134-.134h-.134c-.134-.268-.401-.536-.803-.402s-.536.402-.536.804c.134.401.402.669.804.937.267.134.67.134.937-.134.268-.536.134-.937-.134-1.071M346.406 52.336l-.266-.134c-.268-.134-.67-.134-.937.134-.136.268-.136.67.132.937l.268.134c.269.134.67.134.939-.134.267-.402.132-.803-.136-.937M349.219 57.692c-.268-.134-.67-.134-.937.133-.134.268-.134.67.132.938h.135c.134.268.402.535.804.535.4-.134.535-.401.535-.803-.135-.402-.267-.67-.67-.803M350.558 63.984c0-.134 0-.134 0 0v-.535c0-.402-.402-.536-.805-.536-.4.134-.534.402-.534.804v.535c0 .402.402.536.803.536.4-.134.67-.536.536-.804M350.156 66.93c-.135-.401-.403-.535-.804-.535-.4.134-.535.401-.535.803-.135.268 0 .67.267.803.268.134.67.134.937-.133.135-.134.135-.268.135-.536.134-.134 0-.268 0-.402M344.131 78.58c-.135-.268-.535-.402-.805-.268-.132.132-.4.268-.534.401l-.135.134c-.268.134-.534.402-.4.804.132.267.4.535.802.535.267 0 .403-.134.537-.268l.132-.135.135-.132s.133-.134.133 0c.135-.402.269-.67.135-1.071M348.817 74.027c-.135-.268-.535-.402-.804-.268-.4.268-.67.67-.938 1.072-.132.267-.132.67.136.936.268.134.67.134.937-.134.134-.268.266-.401.534-.535.135-.402.27-.804.135-1.071M351.897 68.136c-.402 0-.67.266-.67.67 0 .266-.135.401-.401.669-.134.266-.134.67.134.936.267.135.669.135.937-.133.268-.401.534-.803.534-1.339.135-.401-.132-.803-.534-.803M352.432 54.746c-.267-.134-.67-.134-.936.133-.136.134-.136.402-.268.536 0 .268.132.536.4.67.27.267.67.133.939-.134.132-.134.132-.268.132-.536.136-.134 0-.536-.267-.67M349.219 50.595a3.161 3.161 0 0 0-1.071-1.205c-.67-.402-1.34.67-.67 1.07.267.269.536.402.67.804.134.268.535.402.803.268.268-.268.402-.67.268-.937M344.8 46.176c-.402-.535-.804-1.205-1.338-1.606-.67-.536-1.34.67-.67 1.07.402.269.67.67.804 1.072.535.803 1.606.134 1.205-.536M339.711 42.025c-.266-.133-.669-.133-.935.134-.136.268-.136.67.132.938h.269c.133.267.4.535.802.401.268-.134.537-.401.537-.803a1.374 1.374 0 0 0-.805-.67"/>
        <path fill="#664640" d="M328.598 76.571c-.534-.268-.937-.536-1.472-.805-.134-.132-.4-.266-.536-.4-.268.536-.402 1.07-.534 1.473.266.402.67.67.936.936-.267.135-.402.135-.67.269 2.142.4 4.285-.27 6.293-.402-1.203-.134-2.678-.401-4.017-1.07"/>
        <path fill="#D6D6D6" d="M338.507 73.224c-.268-.268-.67-.136-.937.134l-.134.133c-.134 0-.134.134-.268.134h-.135c-.4.133-.534.536-.4.802.134.27.535.537.803.403a2.933 2.933 0 0 0 1.071-.67.647.647 0 0 0 0-.936M341.855 69.475c-.268-.135-.805 0-.938.266-.134.268-.401.537-.537.805a.65.65 0 0 0 0 .937c.27.267.67.267.939-.135.268-.4.67-.67.803-1.204.134-.135 0-.535-.267-.67M343.194 64.654c-.402 0-.67.401-.67.67v.267a.647.647 0 0 0 0 .937c.268.268.67.268.937-.134.267-.267.402-.803.402-1.205 0-.401-.268-.67-.67-.535M345.872 67.198c0-.135.133-.135.133-.267a.647.647 0 0 0 0-.938c-.269-.268-.67-.268-.938.134-.267.268-.534.67-.534 1.071 0 .402.401.67.669.67.402 0 .67-.268.67-.67M344.264 70.01c-.267-.268-.669-.268-.937.135-.268.4-.67.67-.803 1.204-.134.401.134.67.535.804.402.133.67-.135.804-.537v-.132l.401-.403c.402-.402.268-.804 0-1.071M340.381 74.027c-.402.135-.803.401-1.204.804a.643.643 0 0 0 0 .936c.268.268.67.268.938-.134l.132-.132.134-.136.135-.133h.133c.403-.134.537-.536.403-.804.134-.401-.268-.535-.671-.401M344.131 60.504c-.135-.402-.403-.536-.805-.536-.4.134-.534.402-.534.803l.134.536c.133.402.4.535.802.535.403-.133.537-.401.537-.803l-.134-.535zM347.88 62.512c-.135-.134-.268-.268-.268-.402-.134-.401-.402-.535-.803-.535-.403.134-.536.401-.536.803 0 .268.133.402.268.536l.134.134v.133c.134.268.535.402.803.268.402-.268.536-.67.402-.937M332.482 49.122l-1.071-.67c-.67-.4-1.34.67-.67 1.072l1.071.67c.67.401 1.473-.67.67-1.072M336.499 52.068l-1.205-.804c-.67-.401-1.34.67-.67 1.071l1.205.804c.67.535 1.34-.536.67-1.071M339.711 54.612l-.803-.536c-.268-.134-.67-.134-.937.134-.133.268-.133.67.135.937l.802.536c.27.134.67.134.939-.134.268-.402.132-.804-.136-.937M342.256 57.022l-.402-.268c-.267-.134-.67-.134-.937.134-.134.268-.134.67.134.937l.402.268c.267.134.67.134.937-.134.268-.267.134-.67-.134-.937M333.017 45.64c-.134-.133-.267-.133-.402-.267l-.268-.268c-.134-.267-.534-.401-.803-.267-.268.133-.536.535-.268.803.268.536.805.803 1.206 1.071.535.536 1.204-.535.535-1.071M337.034 47.65c-.402-.268-.804-.536-1.34-.402-.401 0-.534.401-.534.803.133.268.4.536.67.536h.132c.136 0 .268.134.402.267.268.134.67.134.937-.133 0-.536 0-.938-.267-1.072M340.248 50.327l-.67-.401c-.268-.134-.67-.134-.937.134-.134.267-.134.669.134.937l.67.401c.267.134.669.134.936-.133.268-.268.134-.67-.133-.938M343.327 53.273l-.268-.134c-.266-.134-.67-.134-.936.134-.135.267-.135.67.133.937l.268.134c.269.134.669.134.938-.134.267-.402.267-.803-.135-.937M346.406 57.022l-.401-.402c-.268-.133-.67-.133-.938.134-.134.268-.134.67.136.804.132.401.4.535.802.535.401-.134.537-.401.537-.803-.136 0-.136-.134-.136-.268"/>
        <path fill="#FFF" d="M280.798 60.101c-.536 0-1.071.134-1.34.67-.133.268-.133.67.269.803.267.134.67.134.803-.267h.268c.268 0 .535-.268.535-.536 0-.402-.267-.67-.535-.67M284.949 58.897h-.804c-.267 0-.535.267-.535.535s.268.536.535.536h.804c.268 0 .535-.268.535-.536s-.267-.535-.535-.535M290.439 57.826c-.134-.268-.536-.402-.804-.268-.134 0-.268.134-.401.134-.268 0-.402.134-.536.268-.268.133-.402.535-.268.803s.536.402.804.268c.133 0 .267-.134.401-.134.268 0 .402-.134.536-.268.268-.134.402-.536.268-.803M294.456 56.487c-.268-.268-.67-.268-.804 0h-.134c-.268 0-.535.267-.535.535s.267.536.535.536c.402 0 .67-.134.938-.402.267 0 .267-.402 0-.67M298.472 53.407c-.133 0-.267.134-.401.134-.268 0-.536.267-.536.535s.268.536.536.536c.134 0 .401 0 .535-.134a.736.736 0 0 0 .402-.67c.134-.134-.134-.401-.536-.401M301.016 48.72c-.268 0-.535.268-.535.536 0 0 0 .134-.134.134-.268.268-.268.67 0 .803.268.268.67.268.803 0 .268-.268.536-.67.536-1.071 0-.134-.268-.402-.67-.402M303.426 43.767c-.268-.134-.67-.134-.803.267-.134.402-.402.67-.402 1.205 0 .268.268.536.536.536.401 0 .535-.268.535-.536v-.134c.134-.133.134-.267.268-.401.268-.536.134-.804-.134-.937M304.631 38.41c-.268 0-.536.268-.536.536l-.133.134c-.268.268-.268.67 0 .804.267.267.67.267.803 0 .268-.268.536-.67.536-1.072 0-.134-.268-.401-.67-.401M307.978 35.866h-.535c-.268.134-.536.402-.536.67 0 .267.268.535.536.535.134 0 .268 0 .402-.134h.133c.268 0 .536-.268.536-.535 0-.268-.268-.536-.536-.536M311.326 38.812c-.134-.402-.536-.67-.67-1.071-.133-.268-.535-.402-.803-.268s-.402.536-.268.804c.134.401.536.669.67 1.07.134.268.535.402.803.268.402-.133.536-.535.268-.803M313.067 43.364v-.267c0-.268-.268-.536-.536-.536-.267 0-.67.268-.535.536 0 .134 0 .401.134.535v.268c0 .268.267.536.535.536s.67-.268.536-.536c0-.134 0-.402-.134-.536M314.272 48.05c-.134-.267-.134-.4-.134-.669 0-.267-.268-.535-.536-.535-.267 0-.535.268-.535.535 0 .536 0 .938.268 1.34.133.267.535.401.803.267.268-.268.268-.67.134-.937M316.414 52.336l-.535-1.071c-.134-.268-.536-.402-.804-.268-.267.134-.401.535-.267.803l.535 1.071c.134.268.536.402.804.268.267-.134.401-.535.267-.803M319.092 55.55c-.135 0-.135-.135-.268-.135 0 0-.133 0-.133-.134-.134 0-.134-.134-.268-.267-.268-.268-.67-.268-.805 0-.266.267-.266.669 0 .803.27.268.537.402.805.67.268.133.67.133.803-.268.268-.134.134-.536-.134-.67M323.912 57.692c-.268 0-.402-.134-.67-.134h-.267s-.267-.134-.134 0c-.268-.134-.67-.134-.802.267-.135.268-.135.67.266.804.403.268.938.268 1.34.402.669.133 1.072-1.072.267-1.34M328.33 58.361h-.936c-.267 0-.537.268-.537.536 0 .267.27.535.537.535h1.072c.267 0 .534-.268.534-.535 0-.268-.267-.536-.67-.536M333.954 59.298h-1.071c-.268 0-.536.268-.536.536 0 .267.268.535.536.535h1.071c.268 0 .536-.268.536-.535 0-.268-.268-.536-.536-.536M337.034 60.637c-.267-.268-.67-.268-.804 0-.268.268-.268.535 0 .803 0 0-.132.134 0 .134-.132.268-.132.67.27.804.267.133.669.133.801-.268.136-.402.136-1.071-.267-1.473M278.79 62.244c-.268 0-.536.268-.536.536v.669c0 .268.268.536.535.536.268 0 .536-.268.536-.536v-.67c0-.267-.268-.535-.536-.535M281.066 65.86c0-.135-.134-.135-.134-.268-.268-.268-.67-.268-.803 0-.268.267-.268.67 0 .803 0 .134.134.134.134.268.133.268.267.268.535.268s.536-.268.536-.536-.134-.402-.268-.536M286.02 68.537c-.402-.401-.938-.67-1.473-.67-.268 0-.536.269-.536.535 0 .403.268.537.536.537h.134c.134.133.267.133.401.268.268.268.67.268.804 0 .401 0 .401-.402.134-.67"/>
        <g transform="translate(275 94.132)">
            <mask id="L" fill="#fff">
                <use xlink:href="#K"/>
            </mask>
        </g>
        <path fill="#FFF" d="M290.17 70.411c-.267-.266-.669-.402-1.07-.402-.268 0-.536.268-.536.537 0 .268.268.535.535.535h.402a.846.846 0 0 0 .803 0c.134 0 .134-.402-.133-.67M292.848 73.357c-.267-.402-.535-.803-1.07-.803-.268 0-.536.269-.536.535 0 .268.134.536.401.536l.134.134c.134.268.536.403.804.268.267-.134.401-.402.267-.67M292.179 83.935c-.134.535-.134 1.072-.134 1.473 0 .804 1.205.804 1.205 0 0-.401 0-.803.134-1.205.268-.67-.937-1.072-1.205-.268M291.778 87.818c-.402 0-.536.267-.536.535 0 .27-.134.67-.134 1.071 0 .268.268.537.536.537.401 0 .535-.269.535-.537 0-.267.134-.67.134-1.07.134-.269-.134-.536-.535-.536M293.117 93.04c-.134 0-.134-.134-.268-.134 0 0-.134 0-.134-.134-.134 0-.134-.134-.268-.268-.268-.267-.67-.267-.803 0-.268.268-.268.67 0 .804.267.268.535.402.803.67.268.133.67.133.803-.268.268-.134.134-.536-.133-.67M297.535 91.165c-.268-.267-.67-.267-.804 0l-.401.403h-.134c-.134 0-.134.133-.268.133-.268.133-.402.536-.268.803.134.268.536.403.804.268.401-.133.67-.535.937-.802.402-.136.402-.537.134-.805M301.82 87.148c-.536.403-1.071.805-1.607 1.205-.536.537.268 1.34.803.804l1.607-1.204c.67-.537-.268-1.34-.803-.805M305.569 84.738c-.268-.268-.67-.268-.804 0l-.134.135-.401.4c-.268.27-.268.67 0 .804.267.268.67.268.803 0l.134-.134.402-.4c.267-.27.267-.67 0-.805M309.317 82.864h-.669c-.268 0-.536.267-.536.535 0 .269.268.537.536.537h.67c.267 0 .535-.268.535-.537.134-.268-.268-.535-.536-.535M313.067 83.534c-.402-.403-.67-.536-1.205-.536-.268 0-.536.268-.536.536 0 .266.268.534.536.534l.134.135c.268.267.67.267.803 0 .402-.135.402-.535.268-.67M316.146 86.747c-.268-.535-.67-.804-1.205-.804-.268 0-.535.27-.535.536 0 .268.267.535.535.535l.134.134c.134.268.536.403.803.268.402 0 .536-.402.268-.67M319.092 89.157c-.135-.267-.268-.402-.535-.402-.27 0-.67.268-.536.537 0 .534.402.937.936.937.27 0 .537-.268.537-.537 0-.132-.134-.4-.402-.535M322.038 91.032h-.535c-.27 0-.537.267-.537.535s.268.536.537.536h.535c.267 0 .534-.268.534-.536.136-.268-.267-.535-.534-.535M325.118 90.495c-.268 0-.536.268-.536.536-.134.134-.134.27-.134.402v.268c0 .133.134.269.268.401.134 0 .134.135.266.135.136 0 .27 0 .27-.135.133 0 .133-.132.267-.268.133-.266.133-.534.133-.669.135-.402-.133-.67-.534-.67M324.983 86.479c-.267-.267-.67-.267-.803 0-.268.267-.268.67 0 .804v.133c0 .268.269.537.536.537s.535-.27.535-.537c.135-.402 0-.67-.268-.937M325.386 74.696c0-.268-.268-.534-.536-.534-.27 0-.537.132-.537.4 0 0 0 .134-.132.134-.134.135-.134.268-.134.402 0 .267.266.535.534.535.27 0 .537-.132.537-.401 0 0 0-.134.132-.134.136-.134.136-.267.136-.402M328.598 70.947c-.267-.268-.67-.268-.803 0l-.134.134c-.266 0-.535.268-.535.536 0 .267.269.67.535.535.403 0 .67-.268.937-.535.268 0 .268-.402 0-.67M331.008 66.662c-.266.268-.534.536-.936.805-.268.132-.403.534-.268.802.133.268.535.402.803.268.401-.268.804-.67 1.206-.938.67-.669-.135-1.472-.805-.937M334.892 64.654c-.268-.268-.67-.268-.804 0l-.134.134c-.267.267-.267.67 0 .803.268.268.67.268.804 0l.134-.134c.134-.268.134-.67 0-.803"/>
    </g>
</svg>
