<svg xmlns="http://www.w3.org/2000/svg" xmlns:xlink="http://www.w3.org/1999/xlink" width="80" height="80" viewBox="0 0 80 80">
    <defs>
        <path id="a" d="M34.71.239C16.113 1.253 1.106 16.187 0 34.9v4.425c1.105 18.53 15.836 33.371 34.25 34.57h5.064c19.15-1.291 34.343-17.24 34.343-36.783C73.657 17.385 58.28 1.345 38.854.24"/>
        <path id="c" d="M34.71.239C16.113 1.253 1.106 16.187 0 34.9v4.425c1.105 18.53 15.836 33.371 34.25 34.57h5.064c19.15-1.291 34.343-17.24 34.343-36.783C73.657 17.385 58.28 1.345 38.854.24"/>
        <path id="e" d="M34.71.239C16.113 1.253 1.106 16.187 0 34.9v4.425c1.105 18.53 15.836 33.371 34.25 34.57h5.064c19.15-1.291 34.343-17.24 34.343-36.783C73.657 17.385 58.28 1.345 38.854.24"/>
        <path id="g" d="M34.71.239C16.113 1.253 1.106 16.187 0 34.9v4.425c1.105 18.53 15.836 33.371 34.25 34.57h5.064c19.15-1.291 34.343-17.24 34.343-36.783C73.657 17.385 58.28 1.345 38.854.24"/>
        <path id="i" d="M34.71.239C16.113 1.253 1.106 16.187 0 34.9v4.425c1.105 18.53 15.836 33.371 34.25 34.57h5.064c19.15-1.291 34.343-17.24 34.343-36.783C73.657 17.385 58.28 1.345 38.854.24"/>
        <path id="k" d="M34.71.239C16.113 1.253 1.106 16.187 0 34.9v4.425c1.105 18.53 15.836 33.371 34.25 34.57h5.064c19.15-1.291 34.343-17.24 34.343-36.783C73.657 17.385 58.28 1.345 38.854.24"/>
        <path id="m" d="M34.71.239C16.113 1.253 1.106 16.187 0 34.9v4.425c1.105 18.53 15.836 33.371 34.25 34.57h5.064c19.15-1.291 34.343-17.24 34.343-36.783C73.657 17.385 58.28 1.345 38.854.24"/>
        <path id="o" d="M34.71.239C16.113 1.253 1.106 16.187 0 34.9v4.425c1.105 18.53 15.836 33.371 34.25 34.57h5.064c19.15-1.291 34.343-17.24 34.343-36.783C73.657 17.385 58.28 1.345 38.854.24"/>
        <path id="q" d="M34.71.239C16.113 1.253 1.106 16.187 0 34.9v4.425c1.105 18.53 15.836 33.371 34.25 34.57h5.064c19.15-1.291 34.343-17.24 34.343-36.783C73.657 17.385 58.28 1.345 38.854.24"/>
        <path id="s" d="M34.71.239C16.113 1.253 1.106 16.187 0 34.9v4.425c1.105 18.53 15.836 33.371 34.25 34.57h5.064c19.15-1.291 34.343-17.24 34.343-36.783C73.657 17.385 58.28 1.345 38.854.24"/>
        <path id="u" d="M34.71.239C16.113 1.253 1.106 16.187 0 34.9v4.425c1.105 18.53 15.836 33.371 34.25 34.57h5.064c19.15-1.291 34.343-17.24 34.343-36.783C73.657 17.385 58.28 1.345 38.854.24"/>
        <path id="w" d="M34.71.239C16.113 1.253 1.106 16.187 0 34.9v4.425c1.105 18.53 15.836 33.371 34.25 34.57h5.064c19.15-1.291 34.343-17.24 34.343-36.783C73.657 17.385 58.28 1.345 38.854.24"/>
        <path id="y" d="M34.71.239C16.113 1.253 1.106 16.187 0 34.9v4.425c1.105 18.53 15.836 33.371 34.25 34.57h5.064c19.15-1.291 34.343-17.24 34.343-36.783C73.657 17.385 58.28 1.345 38.854.24"/>
        <path id="A" d="M34.71.239C16.113 1.253 1.106 16.187 0 34.9v4.425c1.105 18.53 15.836 33.371 34.25 34.57h5.064c19.15-1.291 34.343-17.24 34.343-36.783C73.657 17.385 58.28 1.345 38.854.24"/>
        <path id="C" d="M34.71.239C16.113 1.253 1.106 16.187 0 34.9v4.425c1.105 18.53 15.836 33.371 34.25 34.57h5.064c19.15-1.291 34.343-17.24 34.343-36.783C73.657 17.385 58.28 1.345 38.854.24"/>
        <path id="E" d="M34.71.239C16.113 1.253 1.106 16.187 0 34.9v4.425c1.105 18.53 15.836 33.371 34.25 34.57h5.064c19.15-1.291 34.343-17.24 34.343-36.783C73.657 17.385 58.28 1.345 38.854.24"/>
        <path id="G" d="M34.71.239C16.113 1.253 1.106 16.187 0 34.9v4.425c1.105 18.53 15.836 33.371 34.25 34.57h5.064c19.15-1.291 34.343-17.24 34.343-36.783C73.657 17.385 58.28 1.345 38.854.24"/>
        <path id="I" d="M34.71.239C16.113 1.253 1.106 16.187 0 34.9v4.425c1.105 18.53 15.836 33.371 34.25 34.57h5.064c19.15-1.291 34.343-17.24 34.343-36.783C73.657 17.385 58.28 1.345 38.854.24"/>
        <path id="K" d="M34.71.239C16.113 1.253 1.106 16.187 0 34.9v4.425c1.105 18.53 15.836 33.371 34.25 34.57h5.064c19.15-1.291 34.343-17.24 34.343-36.783C73.657 17.385 58.28 1.345 38.854.24"/>
        <path id="M" d="M34.71.239C16.113 1.253 1.106 16.187 0 34.9v4.425c1.105 18.53 15.836 33.371 34.25 34.57h5.064c19.15-1.291 34.343-17.24 34.343-36.783C73.657 17.385 58.28 1.345 38.854.24"/>
        <path id="O" d="M34.71.239C16.113 1.253 1.106 16.187 0 34.9v4.425c1.105 18.53 15.836 33.371 34.25 34.57h5.064c19.15-1.291 34.343-17.24 34.343-36.783C73.657 17.385 58.28 1.345 38.854.24H34.71z"/>
    </defs>
    <g fill="none" fill-rule="evenodd">
        <path fill="#B8EBD6" d="M16.609 23.507c-5.681.829-11.058 3.564-15.093 7.653-.389.39-.787.853-.866 1.413-.21 1.563 1.922 2.167 3.49 2.199 2.664.021 5.296.055 7.947.045-.394 3.294-3.772 5.197-6.6 6.863C2.66 43.346-.42 46.167.445 49.321c.597 2.226 2.99 3.55 5.29 3.739 2.3.19 4.553-.524 6.812-1.028 2.248-.535 4.681-.854 6.799.004A48.76 48.76 0 0 0 9.5 68.364c-.48 1.307-.903 2.771-.488 4.107.634 2.034 2.914 3.046 5.009 3.451 4.485.846 9.134.003 13.58-1.013a151.136 151.136 0 0 0 33.99-12.336c3.737-1.89 7.468-3.992 10.364-7.029.562-.594 1.11-1.324 1.036-2.112-.128-1.617-2.368-1.934-4.005-1.763A30.2 30.2 0 0 0 79.38 39.567c.338-.725.65-1.618.252-2.323-.298-.528-.915-.764-1.466-.917-5.236-1.351-10.356 2.672-15.74 2.86-.767.032-1.83-.36-1.64-1.101.086-.35.47-.56.822-.76 5.959-2.983 11.116-7.586 14.783-13.169 1.435-2.186 2.707-4.915 1.777-7.372-.762-2.095-2.988-3.445-5.216-3.73-2.228-.287-4.465.279-6.602 1.021.648-1.722 2.378-2.706 3.69-3.963 1.302-1.288 2.177-3.553.869-4.811-.713-.697-1.78-.804-2.749-.841-13.864-.547-26.81 6.289-38.984 12.915.796-.538 1.253-1.518 1.122-2.462-5.974.51-11.812 2.564-16.77 5.962-.62.438-1.259.919-1.418 1.65-.159.73.518 1.616 1.206 1.366"/>
        <g transform="translate(0 .208)">
            <mask id="b" fill="#fff">
                <use xlink:href="#a"/>
            </mask>
            <path fill="#704F45" d="M55.61 54.076c-3.314-2.674-11.692-2.858-12.06-9.864l-.185-4.056H33.237s-.092 1.936-.184 4.056c-.46 7.098-8.746 7.283-12.061 9.864-3.038 2.397-4.327 5.9-4.604 14.012.921 8.85 8.38 15.764 17.402 15.764h26.7c0-2.305-.276-10.325-.276-13.183 0-9.956-1.289-14.012-4.603-16.593" mask="url(#b)"/>
            <mask id="d" fill="#fff">
                <use xlink:href="#c"/>
            </mask>
            <path fill="#000" d="M46.68 48.913c-.092-.184-1.842 3.411-8.47 3.411-6.538 0-8.38-3.503-8.471-3.41-6.63 2.396-12.338 5.715-13.443 9.402v7.928c0 1.752.277 3.411.737 5.07 2.302 1.199 5.524.83 6.261.83v8.205c2.946 2.212 5.892 3.503 10.496 3.503h19.427c0-1.383-.092-6.269 0-11.708.828 0 5.248.553 7.457-1.751 0 0-.184-6.822-.368-10.97-.092-4.057-6.353-7.837-13.626-10.51" mask="url(#d)"/>
            <mask id="f" fill="#fff">
                <use xlink:href="#e"/>
            </mask>
            <path fill="#000" d="M46.035 14.067c1.934-.553 3.775-3.135 1.934-5.716-1.842-2.581-3.13 2.213-3.13 2.213s.828 2.581 1.196 3.503" mask="url(#f)"/>
            <mask id="h" fill="#fff">
                <use xlink:href="#g"/>
            </mask>
            <path fill="#704F45" d="M43.826 10.01c3.774 3.135 3.774 9.22 3.959 13.829.092 4.517 1.196 13.09 0 14.473-1.197 1.383-9.023 8.85-18.875.922-1.38-1.568-2.762-5.808-3.407-7.744-1.841 1.475-5.063.46-5.34-4.333-.184-2.766 3.039-4.24 4.42-1.014-.829-7.19-.276-14.289 2.67-15.672 2.946-1.474 8.194-6.453 16.573-.46" mask="url(#h)"/>
            <mask id="j" fill="#fff">
                <use xlink:href="#i"/>
            </mask>
            <path fill="#000" d="M23.57 12.223c-2.762-2.028-5.616 1.66-3.96 5.9 1.658 4.24 2.579 6.084 2.947 6.268 2.578.923 2.118 2.766 2.578 2.397.553-.368 2.855-2.304 1.75-12.813 2.946.276 3.959-.646 3.959-.646 4.971-1.475 8.746.461 10.956-1.383 5.985.83 10.496-9.495 2.946-8.757.092-5.163-5.34-4.794-7.273-1.844-2.763-1.567-9.115.922-9.852 4.24-.736 3.32-4.511 1.844-4.051 6.638" mask="url(#j)"/>
            <mask id="l" fill="#fff">
                <use xlink:href="#k"/>
            </mask>
            <path fill="#C29473" d="M33.422 27.157c-.093 0-.277-.092-.277-.184-.46-1.383-1.197-1.752-1.749-1.567-.46.092-.829.553-.829 1.106 0 .184-.092.368-.276.368-.184 0-.368-.091-.368-.276-.092-.83.46-1.66 1.289-1.844.829-.184 1.841.277 2.486 2.029.092.184 0 .368-.184.368h-.092" mask="url(#l)"/>
            <mask id="n" fill="#fff">
                <use xlink:href="#m"/>
            </mask>
            <path fill="#FF7800" d="M27.621 5.954c-3.498 1.106-7.55 3.043-4.88 18.714-2.117 0-2.117 6.177 1.29 6.453 3.314.277 1.749-6.637 0-6.36-1.566-13.368 1.749-16.594 2.393-16.779.645-.46 1.197-2.028 1.197-2.028" mask="url(#n)"/>
            <mask id="p" fill="#fff">
                <use xlink:href="#o"/>
            </mask>
            <path fill="#C29473" d="M29.002 22.18h-.184c-.184-.093-.184-.278-.184-.462.368-.645 1.473-1.475 2.854-1.66.184 0 .368.093.368.277 0 .185-.092.369-.276.369-1.105.185-2.117.83-2.394 1.383 0 .092-.092.092-.184.092" mask="url(#p)"/>
            <mask id="r" fill="#fff">
                <use xlink:href="#q"/>
            </mask>
            <path fill="#C29473" d="M42.629 25.867c-.184 0-.369-.185-.277-.37.184-1.843 1.105-2.488 1.934-2.58.829 0 1.565.553 1.75 1.474 0 .185-.093.37-.277.37-.184 0-.368-.093-.368-.277-.092-.553-.553-.922-1.105-.922-.552 0-1.197.553-1.29 2.028 0 .184-.183.277-.367.277" mask="url(#r)"/>
            <mask id="t" fill="#fff">
                <use xlink:href="#s"/>
            </mask>
            <path fill="#C29473" d="M45.76 20.059c-.093 0-.185 0-.277-.092-.368-.461-1.565-.83-2.67-.738-.184 0-.369-.092-.369-.276 0-.185.093-.37.277-.37 1.38-.183 2.67.37 3.222.923.092.092.092.368 0 .46 0 0-.092.093-.184.093" mask="url(#t)"/>
            <mask id="v" fill="#fff">
                <use xlink:href="#u"/>
            </mask>
            <path fill="#C29473" d="M37.749 36.745c-1.197 0-2.486-.738-3.499-2.029-.184-.092-.184-.276 0-.368.092-.092.369-.092.46.092.737.922 1.934 1.844 3.131 1.752.737 0 1.473-.461 2.026-1.199.092-.184.276-.184.46-.092s.184.276.092.46c-.829.923-1.657 1.384-2.67 1.384" mask="url(#v)"/>
            <mask id="x" fill="#fff">
                <use xlink:href="#w"/>
            </mask>
            <path fill="#000" d="M29.463 37.482c-4.236 0-4.88-2.212-6.077-7.928 0-.184.092-.369.276-.369.184 0 .369.093.369.277 1.288 6.36 1.84 7.928 7.089 7.375.184 0 .368.092.368.277 0 .184-.092.368-.276.368-.645-.092-1.197 0-1.75 0" mask="url(#x)"/>
            <mask id="z" fill="#fff">
                <use xlink:href="#y"/>
            </mask>
            <path fill="#000" d="M32.685 36.745c.092.46-.276.921-.829.921-.46.093-.92-.276-.92-.829-.092-.461.276-.922.828-.922.46 0 .921.369.921.83" mask="url(#z)"/>
            <mask id="B" fill="#fff">
                <use xlink:href="#A"/>
            </mask>
            <path fill="#D6D6D6" d="M23.294 73.066c-.092 0-.276-.092-.276-.277 0-4.424-.46-9.403-.737-10.14-.092-.092 0-.277.092-.277.092-.092.276 0 .276.093.369.921.829 6.084.829 10.324.092.093 0 .277-.184.277" mask="url(#B)"/>
            <mask id="D" fill="#fff">
                <use xlink:href="#C"/>
            </mask>
            <path fill="#D6D6D6" d="M38.117 54.352a12.87 12.87 0 0 1-3.498-.46c-3.039-.738-5.248-2.305-5.985-3.412-.092-.092-.092-.276.092-.368.092-.093.276-.093.368.092 1.474 2.12 8.563 5.808 16.389 1.751.092-.092.276 0 .276.093.092.092 0 .276-.092.276-2.854 1.567-5.34 2.028-7.55 2.028" mask="url(#D)"/>
            <mask id="F" fill="#fff">
                <use xlink:href="#E"/>
            </mask>
            <path fill="#D6D6D6" d="M46.311 51.77c-.092 0-.092 0-.184-.091a.28.28 0 0 1 0-.37l1.197-1.105a.28.28 0 0 1 .368 0 .28.28 0 0 1 0 .369l-1.196 1.106c-.092 0-.185.092-.185.092" mask="url(#F)"/>
            <mask id="H" fill="#fff">
                <use xlink:href="#G"/>
            </mask>
            <path fill="#D6D6D6" d="M53.217 78.505c-.092 0-.276-.092-.276-.277v-3.871c-.093-6.361-.093-11.708.184-12.446 0-.092.184-.184.276-.184.092 0 .184.184.184.277-.276.737-.184 7.651-.184 12.26v3.872c0 .277-.092.369-.184.369" mask="url(#H)"/>
            <mask id="J" fill="#fff">
                <use xlink:href="#I"/>
            </mask>
            <path fill="#D6D6D6" d="M53.125 65.599c-.184 0-.276-.092-.276-.277.092-.645.368-2.12 1.012-2.396.092-.093.276 0 .276.092.093.092 0 .276-.092.276-.276.092-.644 1.107-.736 1.936 0 .277-.092.369-.184.369" mask="url(#J)"/>
            <mask id="L" fill="#fff">
                <use xlink:href="#K"/>
            </mask>
            <path fill="#D6D6D6" d="M20.9 70.946c-2.21 0-3.315-.461-4.143-1.014-.092-.092-.184-.185-.092-.37.092-.091.184-.183.368-.091 1.013.553 2.302 1.106 5.248.922.092 0 .276.092.276.184s-.092.277-.184.277c-.552 0-1.013.092-1.473.092" mask="url(#L)"/>
            <mask id="N" fill="#fff">
                <use xlink:href="#M"/>
            </mask>
            <path fill="#D6D6D6" d="M55.426 70.946h-1.104c-.093 0-.184-.092-.184-.277 0-.092.091-.184.276-.184 3.59.276 5.248-.83 6.076-1.383h.092c.092-.092.276 0 .369.092.092.092 0 .277-.093.369h-.091c-.83.369-2.394 1.383-5.34 1.383" mask="url(#N)"/>
            <mask id="P" fill="#fff">
                <use xlink:href="#O"/>
            </mask>
            <path fill="#FF7800" d="M47.324 65.691h3.499v-3.503h-3.499z" mask="url(#P)"/>
            <path fill="#FFF" d="M47.692 65.138h2.763v-.461h-2.763zM26.516 55.274c.092.461.276.922.369 1.383" mask="url(#P)"/>
            <path fill="#FFF" d="M26.332 55.366c.092.461.276.922.368 1.383.093.277.46.184.46-.092-.091-.461-.276-.922-.367-1.383-.185-.277-.553-.184-.46.092M27.253 58.224c.184.461.276.922.276 1.29" mask="url(#P)"/>
            <path fill="#FFF" d="M27.069 58.316c.184.369.276.83.184 1.29 0 .277.46.277.46 0 0-.46-.092-.921-.276-1.382-.092-.277-.46-.184-.368.092M27.805 60.621c.092.737.092 1.383.185 2.12" mask="url(#P)"/>
            <path fill="#FFF" d="M27.621 60.621c.092.737.092 1.383.184 2.12 0 .277.46.277.46 0-.092-.737-.092-1.383-.183-2.12-.093-.277-.553-.277-.46 0M28.174 64.4v1.937M27.99 64.4v1.937c0 .276.46.276.46 0V64.4c-.092-.277-.46-.277-.46 0M28.266 68.457c0 .645.092 1.29.092 1.936" mask="url(#P)"/>
            <path fill="#FFF" d="M28.082 68.457c0 .645.092 1.29.092 1.936 0 .276.46.276.46 0 0-.646-.092-1.291-.092-1.936-.092-.277-.46-.277-.46 0M28.266 72.605c0 .461-.093.922-.093 1.383" mask="url(#P)"/>
            <path fill="#FFF" d="M28.082 72.605c0 .461-.093.922-.093 1.383 0 .277.46.277.46 0 0-.461.093-.922.093-1.383 0-.277-.46-.277-.46 0M29.739 54.813c.184.369.276.645.46 1.014" mask="url(#P)"/>
            <path fill="#FFF" d="M29.555 54.997c.184.37.276.646.46 1.015.092.276.46 0 .368-.185-.184-.369-.276-.645-.46-1.014-.092-.368-.46-.092-.368.184M30.66 57.21c0 .277.092.645.092.922" mask="url(#P)"/>
            <path fill="#FFF" d="M30.475 57.21c0 .277.092.645.092.922 0 .276.46.276.46 0 0-.277-.091-.645-.091-.922-.092-.277-.553-.277-.46 0M30.844 59.7c0 .46.092.92.092 1.29" mask="url(#P)"/>
            <path fill="#FFF" d="M30.66 59.7c0 .46.092.92.092 1.29 0 .276.46.276.46 0 0-.461-.092-.922-.092-1.29-.092-.278-.46-.278-.46 0M31.212 63.294v.738c0 .276.46.276.46 0v-.738c0-.276-.46-.276-.46 0M31.12 65.599v.83c0 .276.46.276.46 0v-.83c0-.277-.46-.277-.46 0M31.028 68.641v1.106c0 .277.46.277.46 0v-1.106c0-.276-.46-.276-.46 0M31.488 71.776c0 .368-.092.737-.092 1.106" mask="url(#P)"/>
            <path fill="#FFF" d="M31.304 71.776c0 .368-.092.737-.092 1.106 0 .276.46.276.46 0 0-.37.092-.738.092-1.106 0-.277-.46-.277-.46 0M32.961 55.274c.092.461.276.922.369 1.383" mask="url(#P)"/>
            <path fill="#FFF" d="M32.685 55.366c.092.461.276.922.368 1.383.093.277.46.184.46-.092-.091-.461-.276-.922-.367-1.383-.093-.277-.46-.184-.46.092M33.698 58.224c.184.461.276.922.276 1.29" mask="url(#P)"/>
            <path fill="#FFF" d="M33.514 58.316c.184.369.276.83.184 1.29 0 .277.46.277.46 0 0-.46-.092-.921-.276-1.382-.092-.277-.46-.184-.368.092M34.25 60.621c.092.737.092 1.383.185 2.12" mask="url(#P)"/>
            <path fill="#FFF" d="M34.066 60.621c.092.737.092 1.383.184 2.12 0 .277.46.277.46 0-.091-.737-.091-1.383-.184-2.12-.092-.277-.552-.277-.46 0M34.618 64.4v1.937M34.342 64.4v1.937c0 .276.46.276.46 0V64.4c0-.277-.46-.277-.46 0M34.71 68.457c0 .645.093 1.29.093 1.936" mask="url(#P)"/>
            <path fill="#FFF" d="M34.526 68.457c0 .645.093 1.29.093 1.936 0 .276.46.276.46 0 0-.646-.092-1.291-.092-1.936-.092-.277-.46-.277-.46 0M34.71 72.605c0 .461-.092.922-.092 1.383" mask="url(#P)"/>
            <path fill="#FFF" d="M34.526 72.605c0 .461-.092.922-.092 1.383 0 .277.46.277.46 0 0-.461.093-.922.093-1.383 0-.277-.46-.277-.46 0M36.184 54.813c.184.369.276.645.46 1.014" mask="url(#P)"/>
            <path fill="#FFF" d="M36 54.997c.184.37.276.646.46 1.015.092.276.46 0 .368-.185-.184-.369-.276-.645-.46-1.014-.092-.368-.46-.092-.368.184M37.104 57.21c0 .277.093.645.093.922" mask="url(#P)"/>
            <path fill="#FFF" d="M36.92 57.21c0 .277.092.645.092.922 0 .276.46.276.46 0 0-.277-.091-.645-.091-.922-.092-.277-.553-.277-.46 0M37.289 59.7c0 .46.092.92.092 1.29" mask="url(#P)"/>
            <path fill="#FFF" d="M37.104 59.7c0 .46.093.92.093 1.29 0 .276.46.276.46 0 0-.461-.092-.922-.092-1.29-.092-.278-.46-.278-.46 0M37.657 63.294v.738c0 .276.46.276.46 0v-.738c0-.276-.46-.276-.46 0M37.565 65.599v.83c0 .276.46.276.46 0v-.83c0-.277-.46-.277-.46 0M37.473 68.641v1.106c0 .277.46.277.46 0v-1.106c0-.276-.46-.276-.46 0M37.933 71.776c0 .368-.092.737-.092 1.106" mask="url(#P)"/>
            <path fill="#FFF" d="M37.749 71.776c0 .368-.092.737-.092 1.106 0 .276.46.276.46 0 0-.37.092-.738.092-1.106 0-.277-.46-.277-.46 0M46.127 55.274c-.092.461-.276.922-.368 1.383" mask="url(#P)"/>
            <path fill="#FFF" d="M45.943 55.274c-.092.461-.276.922-.368 1.383-.092.277.368.368.46.092.092-.46.276-.922.369-1.382.092-.277-.369-.37-.46-.093M45.39 58.224c-.184.461-.275.922-.275 1.29" mask="url(#P)"/>
            <path fill="#FFF" d="M45.207 58.132a3.706 3.706 0 0 0-.277 1.383c0 .276.46.276.46 0 0-.462.093-.83.185-1.29.184-.185-.276-.278-.368-.093M44.838 60.621c-.092.737-.092 1.383-.184 2.12" mask="url(#P)"/>
            <path fill="#FFF" d="M44.654 60.621c-.092.737-.092 1.383-.184 2.12 0 .277.368.277.46 0 .092-.737.092-1.383.185-2.12 0-.277-.46-.277-.46 0M50.823 53.615c-.092.46-.276.921-.368 1.382" mask="url(#P)"/>
            <path fill="#FFF" d="M50.547 53.523c-.092.46-.276.921-.369 1.382-.092.277.369.369.46.093.093-.461.277-.923.369-1.383.092-.277-.368-.37-.46-.092M49.994 56.473c-.184.46-.276.921-.276 1.29" mask="url(#P)"/>
            <path fill="#FFF" d="M49.81 56.473a3.706 3.706 0 0 0-.276 1.382c0 .277.46.277.46 0 0-.46.092-.83.184-1.29.185-.277-.276-.37-.368-.092M49.534 58.962c-.092.737-.092 1.382-.184 2.12" mask="url(#P)"/>
            <path fill="#FFF" d="M49.258 58.962c-.092.737-.092 1.382-.185 2.12 0 .276.369.276.46 0 .093-.738.093-1.383.185-2.12 0-.277-.46-.277-.46 0M44.47 64.4v1.937M44.286 64.4v1.937c0 .276.46.276.46 0V64.4c0-.277-.46-.277-.46 0M44.378 68.457c0 .645-.092 1.29-.092 1.936" mask="url(#P)"/>
            <path fill="#FFF" d="M44.194 68.457c0 .645-.092 1.29-.092 1.936 0 .276.46.276.46 0 0-.646.092-1.291.092-1.936 0-.277-.46-.277-.46 0M44.378 72.605c0 .461.092.922.092 1.383" mask="url(#P)"/>
            <path fill="#FFF" d="M44.194 72.605c0 .461.092.922.092 1.383 0 .277.46.277.46 0 0-.461-.092-.922-.092-1.383-.092-.277-.46-.277-.46 0M48.429 68.457c0 .645-.092 1.29-.092 1.936" mask="url(#P)"/>
            <path fill="#FFF" d="M48.153 68.457c0 .645-.092 1.29-.092 1.936 0 .276.46.276.46 0 0-.646.092-1.291.092-1.936 0-.277-.46-.277-.46 0M48.429 72.605c0 .461.092.922.092 1.383" mask="url(#P)"/>
            <path fill="#FFF" d="M48.153 72.605c0 .461.092.922.092 1.383 0 .277.46.277.46 0 0-.461-.092-.922-.092-1.383 0-.277-.46-.277-.46 0M52.204 60.621c-.092.737-.092 1.383-.184 2.12" mask="url(#P)"/>
            <path fill="#FFF" d="M51.928 60.621c-.092.737-.092 1.383-.184 2.12 0 .277.368.277.46 0 .092-.737.092-1.383.184-2.12 0-.277-.46-.277-.46 0M51.836 64.4v1.937M51.56 64.4v1.937c0 .276.46.276.46 0V64.4c0-.277-.46-.277-.46 0M51.652 68.457c0 .645-.093 1.29-.093 1.936" mask="url(#P)"/>
            <path fill="#FFF" d="M51.467 68.457c0 .645-.092 1.29-.092 1.936 0 .276.46.276.46 0 0-.646.093-1.291.093-1.936 0-.277-.46-.277-.46 0M51.652 72.605c0 .461.092.922.092 1.383" mask="url(#P)"/>
            <path fill="#FFF" d="M51.467 72.605c0 .461.093.922.093 1.383 0 .277.46.277.46 0 0-.461-.092-.922-.092-1.383 0-.277-.46-.277-.46 0M42.905 54.813c-.184.369-.276.645-.46 1.014" mask="url(#P)"/>
            <path fill="#FFF" d="M42.72 54.72c-.184.37-.275.646-.46 1.015-.092.276.276.461.369.184.184-.368.276-.645.46-1.014.092-.184-.276-.46-.368-.184M41.984 57.21c0 .277-.092.645-.092.922" mask="url(#P)"/>
            <path fill="#FFF" d="M41.8 57.21c0 .277-.092.645-.092.922 0 .276.368.276.46 0 0-.277.092-.645.092-.922s-.46-.277-.46 0M41.8 59.7c0 .46-.092.92-.092 1.29" mask="url(#P)"/>
            <path fill="#FFF" d="M41.616 59.7c0 .46-.092.92-.092 1.29 0 .276.46.276.46 0 0-.461.092-.922.092-1.29 0-.278-.46-.278-.46 0M41.063 63.294v.738c0 .276.46.276.46 0v-.738c-.091-.276-.46-.276-.46 0M41.063 65.599v.83c0 .276.46.276.46 0v-.83c0-.277-.46-.277-.46 0M41.156 68.641v1.106c0 .277.46.277.46 0v-1.106c0-.276-.46-.276-.46 0M41.156 71.776c0 .368.092.737.092 1.106" mask="url(#P)"/>
        </g>
        <g fill="#FFF">
            <path d="M40.971 71.984c0 .368.093.737.093 1.106 0 .276.46.276.46 0 0-.37-.092-.738-.092-1.106-.092-.277-.46-.277-.46 0M52.07 18.98c1.27-1.009 2.795-1.665 3.991-2.77.394-.364-.128-1.016-.525-.65-1.196 1.106-2.72 1.76-3.99 2.771-.423.336.103.986.525.65"/>
            <path d="M55.79 15.8c0 .001-.008.005-.019.015-.695.642-1.495 1.137-2.27 1.615-.589.364-1.198.74-1.74 1.172-.027.021-.026.03-.024.038a.125.125 0 0 0 .069.085c.01.004.02.008.049-.015.574-.457 1.2-.844 1.806-1.218.781-.483 1.52-.94 2.165-1.536.028-.026.034-.045.025-.077a.13.13 0 0 0-.061-.08m-3.97 3.623a.735.735 0 0 1-.268-.052.816.816 0 0 1-.5-.627.721.721 0 0 1 .278-.683c.574-.457 1.2-.845 1.807-1.219.78-.483 1.518-.939 2.164-1.535.308-.285.74-.266 1.027.045.266.288.327.783-.031 1.114-.695.642-1.497 1.137-2.272 1.616-.588.364-1.197.74-1.738 1.17a.747.747 0 0 1-.467.17M52.787 24.923c.51-.161.314-.974-.2-.81-.624.196-1.218.468-1.856.619-.524.124-.324.936.2.811.638-.151 1.233-.422 1.856-.62"/>
            <path d="M52.715 24.436l-.024.006c-.23.073-.464.16-.69.243-.381.14-.776.286-1.19.384-.033.008-.035.016-.038.023a.124.124 0 0 0 .027.106c.008.009.015.016.052.008.373-.088.73-.22 1.108-.36.234-.085.476-.175.722-.253.036-.011.05-.026.055-.059a.13.13 0 0 0-.022-.098m-1.89 1.467a.715.715 0 0 1-.529-.229.815.815 0 0 1-.186-.78.718.718 0 0 1 .541-.5c.374-.088.732-.22 1.11-.36.233-.086.475-.175.72-.252.4-.128.784.074.912.477.118.374-.037.848-.5.995h-.001c-.231.073-.466.16-.693.243-.38.14-.773.285-1.187.383a.807.807 0 0 1-.188.023M22.138 35.583c-1.596-.29-3.25-.15-4.826-.56-.52-.135-.366-.957.156-.82 1.577.41 3.23.268 4.826.56.531.096.374.917-.156.82"/>
            <path d="M17.353 34.534a.155.155 0 0 0-.012.097c.007.033.022.047.058.057.851.221 1.717.275 2.634.332.71.045 1.445.09 2.167.222.037.007.044-.001.05-.01a.125.125 0 0 0 .021-.107c-.002-.007-.005-.016-.039-.022-.682-.124-1.396-.169-2.087-.212-.91-.057-1.848-.116-2.764-.353-.02-.006-.028-.004-.028-.004m5.313 1.255a.733.733 0 0 1-.59.135c-.682-.124-1.396-.169-2.086-.212-.91-.057-1.85-.115-2.766-.354-.471-.123-.651-.588-.553-.967.107-.41.479-.63.885-.524.85.22 1.716.275 2.632.332.711.045 1.446.09 2.169.223a.72.72 0 0 1 .567.47.815.815 0 0 1-.258.897M22.45 41.012c-.503.184-.845-.579-.338-.764.614-.225 1.25-.375 1.847-.645.49-.222.83.542.338.765-.597.27-1.234.42-1.847.644"/>
            <path d="M22.33 40.687c.243-.089.49-.166.727-.241.384-.121.747-.236 1.097-.394.034-.015.035-.026.036-.038a.124.124 0 0 0-.044-.1c-.006-.004-.013-.01-.044.005a10.27 10.27 0 0 1-1.176.424c-.23.072-.468.147-.694.23-.02.007-.026.013-.026.013 0 .007.01.055.045.088.025.022.045.026.08.013m2.271-.1a.826.826 0 0 1-.162.096c-.388.176-.788.302-1.175.424-.23.072-.468.147-.696.23-.457.168-.87-.112-1.004-.48-.146-.397.034-.79.428-.935.242-.088.488-.166.725-.24.385-.122.748-.236 1.098-.395a.72.72 0 0 1 .734.064.816.816 0 0 1 .33.731.717.717 0 0 1-.278.504"/>
        </g>
    </g>
</svg>
