<svg width="16" height="13" viewBox="0 0 16 13" xmlns="http://www.w3.org/2000/svg">
    <path d="M7.645 3.51A2.61 2.61 0 0 1 10.5 6.125a2.626 2.626 0 0 1-2.625 2.626 2.61 2.61 0 0 1-2.614-2.855c0-1.639 1.867-2.384 2.384-2.384zm5.496-1.306c1.28 1.187 2.136 2.584 2.54 3.585a.87.87 0 0 1 0 .672c-.404.976-1.26 2.374-2.54 3.585-1.287 1.198-3.057 2.204-5.266 2.204-2.21 0-3.979-1.006-5.266-2.204C1.33 8.835.474 7.438.067 6.461a.874.874 0 0 1 0-.672C.474 4.788 1.33 3.39 2.61 2.204 3.896 1.007 5.666 0 7.875 0c2.21 0 3.979 1.007 5.266 2.204zm-5.266-.017a3.939 3.939 0 0 0 0 7.876 3.939 3.939 0 0 0 0-7.876z" fill="#FFF" fill-rule="nonzero"/>
</svg>
