<svg xmlns="http://www.w3.org/2000/svg" xmlns:xlink="http://www.w3.org/1999/xlink" width="60" height="60" viewBox="0 0 60 60">
    <defs>
        <path id="a" d="M23.107 19.389a5.437 5.437 0 0 0-3.4 1.184l-7.502-4.495a5.222 5.222 0 0 0 0-2.192l7.501-4.494a5.464 5.464 0 0 0 6.935-.129 5.205 5.205 0 0 0 1.047-6.723C26.32.347 23.542-.56 21.107.39c-2.435.949-3.818 3.48-3.276 5.994L10.33 10.88c-2.2-1.754-5.409-1.537-7.343.495a5.213 5.213 0 0 0 0 7.217c1.934 2.032 5.143 2.248 7.343.495l7.5 4.494c-.473 2.191.513 4.437 2.46 5.607a5.48 5.48 0 0 0 6.211-.401c1.775-1.41 2.451-3.763 1.689-5.875-.763-2.11-2.799-3.522-5.083-3.522z"/>
    </defs>
    <g fill="none" fill-rule="evenodd">
        <circle cx="30" cy="30" r="30" fill="#FFF"/>
        <g transform="translate(15 15)">
            <mask id="b" fill="#fff">
                <use xlink:href="#a"/>
            </mask>
            <g fill="#FF7900" mask="url(#b)">
                <path d="M0 0h30v30H0z"/>
            </g>
        </g>
    </g>
</svg>
