<svg xmlns="http://www.w3.org/2000/svg" width="87" height="72" viewBox="0 0 87 72">
    <g fill="none" fill-rule="evenodd">
        <path fill="#FFB400" d="M10.985 33.582l50.743-18.469 32.15 88.331-50.743 18.47z"/>
        <path fill="#FFF" fill-rule="nonzero" d="M.675 25.722l22.751 62.51c2.092 5.746 8.464 8.717 14.21 6.626L79.31 79.69c5.746-2.091 8.718-8.464 6.626-14.21l-18.96-52.092L38.557.135 7.3 11.511c-5.746 2.092-8.718 8.464-6.626 14.21zm47.84 17.983l-10.419 3.792-3.792-10.419 10.419-3.792 3.792 10.419zm15.627-5.688l-10.418 3.792-3.792-10.419 5.209-1.896a5.538 5.538 0 0 1 7.105 3.314l1.896 5.209zm-2.834 24.628l10.418-3.792 1.896 5.21a5.538 5.538 0 0 1-3.313 7.105l-5.21 1.896-3.791-10.419zM45.68 68.333L56.1 64.541 59.89 74.96l-10.418 3.792-3.792-10.419zm-15.627 5.688L40.47 70.23l3.792 10.419-5.21 1.896a5.538 5.538 0 0 1-7.104-3.314l-1.896-5.209zm-5.688-15.627l41.673-15.168 3.792 10.418-41.673 15.168-3.792-10.418zm-3.792-10.419a5.538 5.538 0 0 1 3.313-7.105l5.21-1.896 3.791 10.419-10.418 3.792-1.896-5.21z"/>
        <path fill="#FF7900" d="M16.077 33.462l13.87-5.048-5.049-13.869-13.869 5.048z"/>
        <path fill="#FFF" d="M17.337 30.76l9.907-3.606-.721-1.981-9.907 3.606z"/>
    </g>
</svg>
