<svg xmlns="http://www.w3.org/2000/svg" xmlns:xlink="http://www.w3.org/1999/xlink" width="24" height="24" viewBox="0 0 24 24">
    <defs>
        <path id="a" d="M12.688.35H0v9.31c0 .735.588 1.33 1.313 1.33h1.75v2.66l2.624-2.66H14V1.68c0-.735-.588-1.33-1.313-1.33zM7 8.33H3.062a.44.44 0 0 1-.437-.443.44.44 0 0 1 .438-.444H7a.44.44 0 0 1 .438.444A.44.44 0 0 1 7 8.33zm3.938-2.217H3.061a.44.44 0 0 1-.437-.443.44.44 0 0 1 .438-.443h7.874a.44.44 0 0 1 .438.443.44.44 0 0 1-.438.443zm0-2.216H3.061a.44.44 0 0 1-.437-.444.44.44 0 0 1 .438-.443h7.874a.44.44 0 0 1 .438.443.44.44 0 0 1-.438.444z"/>
    </defs>
    <g fill="none" fill-rule="evenodd">
        <circle cx="12" cy="12" r="12" fill="#FF7900"/>
        <g transform="translate(5 5)">
            <mask id="b" fill="#fff">
                <use xlink:href="#a"/>
            </mask>
            <g fill="#FFF" mask="url(#b)">
                <path d="M0 0h14v14H0z"/>
            </g>
        </g>
    </g>
</svg>
