<svg xmlns="http://www.w3.org/2000/svg" xmlns:xlink="http://www.w3.org/1999/xlink" width="95" height="95" viewBox="0 0 95 95">
    <defs>
        <circle id="prefix__a" cx="47.5" cy="47.5" r="47.5"/>
        <path id="prefix__c" d="M0.013 0.049L3.475 0.049 3.475 17.043 0.013 17.043z"/>
    </defs>
    <g fill="none" fill-rule="evenodd">
        <mask id="prefix__b" fill="#fff">
            <use xlink:href="#prefix__a"/>
        </mask>
        <use fill="#FFF" xlink:href="#prefix__a"/>
        <g mask="url(#prefix__b)">
            <g>
                <path fill="#00908E" d="M43.84 15.22h.188c-.075 1.412-.7 2.117-2.029 2.117-.565 0-1.016-.15-1.345-.447-.326-.301-.547-.747-.647-1.335-.83.588-1.587 1.034-2.274 1.335-.687.297-1.296.447-1.84.447-.687 0-1.284-.194-1.78-.588-.5-.397-.75-.914-.75-1.558 0-.843.424-1.579 1.255-2.206.835-.638 1.988-1.248 3.46-1.851l1.929-.779v-.494c0-.7-.045-1.207-.136-1.52-.092-.315-.333-.82-.719-1.07-.384-.245-.891-.374-1.52-.374-1.255 0-1.954.645-2.101 1.47-.128.844-.475 1.268-1.029 1.268-.498 0-.747-.238-.747-.718 0-.47.332-.97 1.006-1.508.672-.539 1.716-.807 3.144-.807 1.052 0 1.871.161 2.452.489.58.327.968.695 1.152 1.118.188.418.28 1.055.28 1.912v4.068c0 .947.008 1.571.131 1.83.149.3.422.403.765.403.56 0 1.016-.403 1.154-1.202zm-3.833-4.289l-1.357.547c-2.146.855-3.214 1.935-3.214 3.228 0 .519.138.932.41 1.246.275.309.63.582 1.072.582.39 0 .844-.082 1.36-.342.515-.254 1.09-.52 1.729-1.041v-4.22zM57.923 16.857c-1.107 0-1.94-.447-2.504-1.335-.564-.885-.842-2.22-.842-3.986 0-.237.016-.6.054-1.084h7.072c-.037-.942-.424-1.821-1.153-2.633-.728-.812-1.76-1.22-3.09-1.22-1.42 0-2.593.527-3.536 1.582-.945 1.055-1.415 2.374-1.415 3.963 0 1.124.246 2.077.731 2.867.489.786 1.114 1.397 1.882 1.826.763.427 1.577.645 2.434.645.93 0 1.785-.233 2.57-.703.789-.463 1.314-1.113 1.577-1.943h-.275c-.633 1.345-1.992 2.02-3.505 2.02m-.547-9.868c1.923 0 2.206 1.704 2.206 2.427 0 .15-.01.319-.035.615h-4.88c.286-1.968 1.196-3.042 2.709-3.042" transform="translate(14.615 38.365)"/>
                <g transform="translate(14.615 38.365) translate(62.285 .06)">
                    <mask id="prefix__d" fill="#fff">
                        <use xlink:href="#prefix__c"/>
                    </mask>
                    <path fill="#00908E" d="M3.208.049c-.256.12-.732.374-1.41.497C1.116.663.516.72.013.72v.14c.741 0 1.202.137 1.4.417.191.275.285 1.201.285 2.265v13.501h1.777V.049h-.267z" mask="url(#prefix__d)"/>
                </g>
                <path fill="#00908E" d="M30.697 8.36c-.146-.494-.477-.902-.984-1.237-.51-.344-1.166-.509-1.965-.509-.697 0-1.368.173-2.008.53-.649.347-1.442 1.092-1.854 1.822-.027-.897-.14-1.832-.333-2.352h-.335c-.955.28-1.888.607-2.795.706v.153c.591 0 1 .066 1.219.19.221.129.347.567.396.816.045.253.066.973.066 2.152v6.472h1.782V9.585c.48-.72.99-1.258 1.532-1.62.537-.354 1.103-.536 1.697-.536.52 0 .948.133 1.283.394.338.263.545.56.625.907.075.339.112.908.112 1.704v6.67h1.784v-6.595c0-.944-.075-1.658-.222-2.149M51.162 7.448H48.18v6.139c0 .942.035 1.571.118 1.902.078.32.217.663.478.857.26.2.575.314.873.314.581 0 1.359-.43 1.788-1.105l.174.103c-.254.542-.638 1.055-1.16 1.401-.47.309-1.017.375-1.516.375-.587 0-1.1-.177-1.545-.524-.445-.353-.723-.767-.832-1.233-.11-.47-.158-1.296-.158-2.472V7.449h-1.469v-.461c2.014 0 2.86-2.243 2.86-3.208h.389v3.208h2.982M.15 16.93H0v-3.006h.15C.71 15.87 2.2 16.63 3.644 16.63c1.545 0 2.017-1.164 2.017-1.618 0-.535-.16-.974-.487-1.319-.333-.338-.984-.75-1.957-1.227-1.022-.502-1.757-.999-2.201-1.485C.57 10.505.35 9.91.35 9.211c0-.668.147-1.208.625-1.817.478-.602 1.407-1.002 2.272-1.002 1.145 0 2.06.59 2.738 1.368.183-.18.31-.614.399-1.061h.16v2.835h-.165c-.193-1.06-1.45-2.663-3.052-2.663-1.411 0-1.867 1.3-1.867 1.705 0 .443.167.72.505 1.045.328.325.957.702 1.888 1.122 1.399.64 2.237 1.057 2.724 1.846.49.786.495 1.206.495 1.773 0 .88-.766 2.979-3.417 2.979-.879 0-2.122-.341-3.035-1.413 0 0-.43.585-.47 1.001M8.981 11.89c0-1.542.52-2.824 1.557-3.87 1.044-1.029 2.314-1.55 3.83-1.55 1.522 0 2.808.521 3.844 1.558 1.038 1.042 1.554 2.328 1.554 3.862 0 1.696-.524 3.035-1.578 4.005-1.056.97-2.326 1.454-3.82 1.454-1.489 0-2.762-.493-3.811-1.482-1.049-.99-1.576-2.317-1.576-3.977m2.073.061c0 1.783.291 3.037.877 3.75.578.714 1.394 1.071 2.444 1.071 1.075 0 1.9-.357 2.464-1.071.574-.713.858-1.967.858-3.75 0-1.767-.28-3.024-.849-3.777-.566-.751-1.394-1.125-2.473-1.125-1.072 0-1.895.374-2.468 1.115-.566.752-.853 2.015-.853 3.787" transform="translate(14.615 38.365)"/>
            </g>
        </g>
    </g>
</svg>
