<svg xmlns="http://www.w3.org/2000/svg" width="25" height="25" viewBox="0 0 25 25">
    <path fill="#000" fill-rule="nonzero" d="M8.44 19.195l-2.79 2.953a.51.51 0 0 1-.369.164.51.51 0 0 1-.369-.164l-2.789-2.953c-.137-.136-.164-.307-.082-.512a.45.45 0 0 1 .451-.308h1.805V4.43c0-.137.048-.253.143-.349a.475.475 0 0 1 .35-.143h.983c.137 0 .253.047.35.143a.475.475 0 0 1 .143.349v13.945H8.07a.45.45 0 0 1 .451.308c.082.205.055.376-.082.512zM22.507 8.203H11.68a.475.475 0 0 1-.349-.143.475.475 0 0 1-.144-.349v-.984c0-.137.048-.253.144-.349a.475.475 0 0 1 .349-.144h10.828c.136 0 .253.048.348.144a.475.475 0 0 1 .144.349v.984a.475.475 0 0 1-.144.349.475.475 0 0 1-.348.143zm-11.32 3.445v-.984c0-.137.047-.253.143-.349a.475.475 0 0 1 .349-.143h8.203c.136 0 .253.048.348.143a.475.475 0 0 1 .144.35v.983a.475.475 0 0 1-.144.35.475.475 0 0 1-.348.143H11.68a.475.475 0 0 1-.349-.144.475.475 0 0 1-.144-.349zm0 7.875v-.984c0-.137.047-.253.143-.349a.475.475 0 0 1 .349-.143h2.953c.137 0 .253.048.348.143a.475.475 0 0 1 .144.35v.983a.475.475 0 0 1-.144.35.475.475 0 0 1-.348.143H11.68a.475.475 0 0 1-.349-.144.475.475 0 0 1-.144-.349zm0-3.937v-.984c0-.137.047-.253.143-.35a.475.475 0 0 1 .349-.143h5.578c.136 0 .253.048.348.144a.475.475 0 0 1 .144.349v.984a.475.475 0 0 1-.144.349.475.475 0 0 1-.348.143H11.68a.475.475 0 0 1-.349-.143.475.475 0 0 1-.144-.349z"/>
</svg>
