<svg xmlns="http://www.w3.org/2000/svg" xmlns:xlink="http://www.w3.org/1999/xlink" width="288" height="218" viewBox="0 0 288 218">
    <defs>
        <path id="a" d="M0 .011h129.186v144.085H0z"/>
        <path id="c" d="M8.629.347C5.915.352.389.971.439 7.371c.026 3.453.024 29.043.025 32.498V74.33c.002 2.15.007 2.52 0 5.241-.003 1.43-1.424 9.057 9.085 9.023 3.856-.011 36.125-.096 39.312-.073 7.54.05 7.341-5.294 7.336-6.587-.015-3.846-.008-65.658-.03-69.95-.009-2.233-.03-2.666-.03-4.898C56.135.945 52.475.365 48.652.367c-4.557.002-6.622-.008-11.18-.01-6.67-.002-13.34-.003-20.01.001C15.99.36 14.62.356 13.258.352 12.1.35 10.947.346 9.737.346L8.628.347z"/>
    </defs>
    <g fill="none" fill-rule="evenodd">
        <path fill="#B5E8F7" d="M22.591 95.708c5.226-3.987 101.406-72.963 112.535-51.94 11.13 21.024-118.718 76.054-.618 35.245 118.1-40.81 148.398-45.756 129.848-22.26-18.55 23.497-34.626 50.085-13.603 50.085 21.023 0 48.847 22.26 31.535 33.389-17.313 11.13-42.665 21.023-29.062 29.061 13.603 8.039.618 16.077-6.183 19.787-6.802 3.71-142.215 25.97-175.604 22.878-33.39-3.092-83.474.618-51.32-16.695 32.152-17.313 59.977-43.283 37.098-35.863-22.877 7.42-55.648-3.091-32.152-20.404 23.496-17.314-62.451 2.473-2.474-43.283"/>
        <path fill="#8F8F8F" d="M216.888 106.085c-3.286-2.515-7.232-2.395-11.76-2.387-4.628.01-10.711-.073-15.336-.142-4.47-.067-9.22-.162-13.69-.134-3.98.025-10.715-.11-14.114 2.22-3.03 2.077-4.587 6.744-5.088 10.31-1.013 7.217-.082 14.534-.009 21.782.092 8.931-.063 17.212-.178 26.146-.085 6.645-.085 15.407.154 22.048.203 5.624-.184 9.825.069 15.447.183 4.06-.84 9.223 3.015 12.307 2.41 1.93 6.27 2.625 9.211 2.87 4.664.389 9.347-.003 14.018.107 5.447.129 10.876-.126 16.311-.479 4.775-.31 10.621.804 15.117-.846 5.105-1.873 6.55-6.915 6.709-12.599.61-21.625-.553-43.42.316-64.905.24-5.926-.331-12.13-.619-18.158-.241-5.031.436-10.099-4.126-13.587"/>
        <path fill="#FFF" d="M211.25 113.753c-8.205.215-16.44-.341-24.635.01-6.207.266-12.617-1.33-18.748.174-7.818 1.917-8.934 8.725-8.935 15.866l-.001 12.824c0 10.075-.002 20.148-.003 30.223l-.002 16.792c0 4.581-1.477 10.124.813 14.386.274.51.586.94.93 1.305 2.664 2.81 7.262 1.595 11.034 1.595l30.284.003c5.365 0 10.73 0 16.095.002v-.07l.004-39.614c.001-15.215.092-30.385.58-45.576.177-5.553-1.658-8.07-7.416-7.92"/>
        <path fill="#000" d="M171.942 103.52c-.636-.354-1.739-.682-3.73-.463-.768.084-1.488.33-1.963.638 0 .507-.11 1.137.524 1.527.496.305 1.868.511 2.506.5.774-.014 1.372-.11 2.036-.4.974-.426.552-1.148.627-1.803M209.895 202.945c-3.186-.022-35.456.063-39.31.074-10.51.034-9.09-7.593-9.086-9.023.006-2.722.001-3.091 0-5.241l-.001-23.497h.001v-5.137-5.829c-.001-3.454 0-29.044-.027-32.498-.05-6.399 5.478-7.018 8.19-7.023 3.1-.005 5.736.014 8.835.011 6.669-.005 13.339-.004 20.01-.002 4.557.003 6.622.013 11.179.01 3.824-.002 7.483.579 7.486 6.721 0 2.232.02 2.665.03 4.897.02 4.293.014 66.105.03 69.951.005 1.293.204 6.637-7.337 6.586m-.613-95.972c-9.33.005-34.323-.221-41.78-.218-9.871.005-9.495 12.383-9.622 15.8-.047 1.243-.031 34.07-.015 57.884.008 13.414.017 23.968.015 24.406-.042 10.162 5.031 11.856 11.67 11.852l35.715-.018c14.931-.006 14.88-4.188 14.877-13.318-.002-2.94.095-18.75.191-35.547.098-16.902.195-34.803.193-41.603 0-.91.034-1.836.067-2.757.238-6.468.33-16.486-11.31-16.481"/>
        <path fill="#000" d="M198.438 109.408c-2.143.032-3.207.158-4.805.106-1.553-.051-5.864-.006-9.174.022-.764.007-8.418-.619-5.865 1.759.734.683 2.537.386 3.449.434 2.28.117 5.404.043 8.167.052 3.043.01 4.712.006 8.326-.002 3.05-.009 2.339-2.407-.098-2.37"/>
        <path fill="#81C8A6" d="M161.108 190.22c-.004.184-.006.368-.008.552h.011a2.076 2.076 0 0 1 .007-.418l.014-.135h-.024z"/>
        <path fill="#000" d="M197.409 207.956c-1.391-.373-3.193-.418-4.442-.524-1.15-.098-4.337-.013-6.785.042-1.03.024-7.225-.342-4.695 3.163.604.835 2.122.918 2.908 1.023 1.687.224 3.996.082 6.04.1 2.25.02 3.484.012 6.154-.005 2.26-.014 3.8-3 .82-3.8"/>
        <path fill="#5A5A5A" d="M141.584 35.54a5.23 5.23 0 0 0-7.387.065l-7.866 8.004a5.23 5.23 0 0 0 .065 7.388l11.316 11.12a5.23 5.23 0 0 0 7.387-.064l7.865-8.005a5.23 5.23 0 0 0-.064-7.387l-11.316-11.12zM135 64.878l-11.316-11.12c-3.576-3.514-3.626-9.283-.112-12.86l7.866-8.004c3.514-3.576 9.283-3.627 12.86-.112l11.316 11.12c3.576 3.514 3.626 9.283.112 12.86l-7.865 8.004c-3.515 3.576-9.284 3.627-12.86.112z"/>
        <path fill="#000" d="M140.115 32.532a5.23 5.23 0 0 0-7.388.064l-7.865 8.005a5.23 5.23 0 0 0 .064 7.387l11.316 11.12a5.23 5.23 0 0 0 7.388-.065l7.865-8.003a5.23 5.23 0 0 0-.064-7.388l-11.316-11.12zm-6.585 29.336l-11.316-11.12c-3.576-3.515-3.627-9.283-.113-12.86l7.866-8.004c3.514-3.576 9.283-3.627 12.86-.112l11.316 11.12c3.576 3.514 3.627 9.283.112 12.86l-7.865 8.004c-3.515 3.576-9.284 3.627-12.86.112z"/>
        <g transform="translate(29 20.426)">
            <mask id="b" fill="#fff">
                <use xlink:href="#a"/>
            </mask>
            <path fill="#000" d="M126.721 43.993L84.17 2.178a7.558 7.558 0 0 0-10.687.094L2.167 74.843a7.559 7.559 0 0 0 .093 10.688l57.392 56.398a7.557 7.557 0 0 0 10.688-.094l56.678-57.677a7.56 7.56 0 0 0 2.167-5.347c-.062-9.827-.13-19.654-.203-29.482a7.559 7.559 0 0 0-2.26-5.336" mask="url(#b)"/>
        </g>
        <path fill="#000" d="M149.466 87.771c.06-.1.042-.097.175-.212-.057.05.188-.118.24-.14-.159.067.314-.067.117-.037.055-.008.378.021.264-.001.513.1 1.045-.145 1.19-.676.131-.474-.16-1.09-.675-1.19-1.18-.23-2.351.24-2.982 1.28-.647 1.067 1.025 2.04 1.67.976"/>
        <path fill="#000" d="M139.82 89.997c5.837.035 11.674.08 17.51.155 1.575.02 3.15.042 4.725.075.583.013 2.047.334 2.587.086-1.086.499-1.89-.473-.756-.018 1.75.702-1.554-1.692-.102-.087.833.921 1.845 1.73 2.726 2.612a141.526 141.526 0 0 1 3.398 3.515c2.153 2.305 6.11 2.107 8.252-.072 2.294-2.335 2.088-5.94-.072-8.253-3.143-3.365-6.704-7.946-11.34-9.032-2.655-.622-5.543-.44-8.251-.48-6.26-.088-12.52-.134-18.779-.17-7.524-.046-7.415 11.624.102 11.67"/>
        <path fill="#FF7900" d="M146.045 59.44l-34.3-33.706c-2.4-2.358-6.587-1.99-9.35.822l-67.37 68.559c-2.765 2.813-3.06 7.004-.66 9.363l46.263 45.461c2.4 2.359 6.586 1.99 9.35-.822l53.544-54.488c1.323-1.347 2.138-3.086 2.265-4.837.626-8.61 1.248-17.22 1.865-25.83.126-1.76-.452-3.386-1.607-4.521"/>
        <path fill="#FFF" d="M39.66 102.445c26.122-7.137 52.326-13.945 78.85-19.43a963.675 963.675 0 0 1 22.499-4.37c2.058-.374 3.235-2.853 2.72-4.749-.586-2.164-2.686-3.096-4.748-2.72-26.59 4.842-52.909 10.909-79.04 17.795a2534.373 2534.373 0 0 0-22.31 6.005c-4.813 1.315-2.778 8.783 2.03 7.47"/>
        <path fill="#FFF" d="M100.378 32.993c-5.858 27.522-10.021 55.359-14.177 83.178l-3.61 24.169c-.308 2.064.635 4.153 2.804 4.701 1.872.473 4.39-.725 4.7-2.803 4.18-27.983 8.1-56.026 13.167-83.866a805.26 805.26 0 0 1 4.62-23.48c1.035-4.859-6.462-6.79-7.504-1.899"/>
        <path fill="#5A5A5A" d="M177.2 95.192c-1.521 1.548-3.565 2.008-4.564 1.026-1-.982-.576-3.033.946-4.582 1.522-1.549 3.565-2.008 4.565-1.026.999.982.575 3.033-.947 4.582"/>
        <path fill="#FFF" d="M192.45 84.6a124.85 124.85 0 0 1 11.97-7.622c1.818-1.018-.13-3.585-1.93-2.577a124.846 124.846 0 0 0-11.969 7.622c-1.692 1.217.238 3.795 1.93 2.576M194.83 96.64c3.804.094 7.59.4 11.36.92 2.07.286 2.562-2.879.486-3.165-3.77-.52-7.555-.826-11.36-.92-2.064-.05-2.576 3.114-.486 3.166M180.197 80.025l-2.011-12.602c-.323-2.028-3.556-1.664-3.23.38l2.011 12.602c.324 2.028 3.557 1.664 3.23-.38M186.354 80.93c-.044-.71.227-1.336.721-1.893.579-.65.42-1.723-.243-2.251-.708-.563-1.708-.413-2.287.24-1.061 1.194-1.518 2.715-1.421 4.284.053.863.972 1.497 1.808 1.4.915-.107 1.475-.914 1.422-1.78M193.784 91.08l4.074-.543c2.07-.275 1.696-3.456-.385-3.18l-4.074.543c-2.07.276-1.697 3.457.385 3.18"/>
        <g transform="translate(161.034 114.424)">
            <mask id="d" fill="#fff">
                <use xlink:href="#c"/>
            </mask>
            <path fill="#FF7900" d="M64.34 46.718c-4.952-1.499-10.003 1.853-15.158 2.298-6.408.554-12.802-3.426-19.051-1.9-2.563.625-4.833 2.135-7.37 2.856-4.792 1.36-9.854-.219-14.701-1.366C3.213 47.46-2.331 46.874-6.355 49.81v52.464h72.907L64.34 46.718z" mask="url(#d)"/>
        </g>
        <g transform="translate(189)">
            <circle cx="35" cy="35" r="35" fill="#CD3C14"/>
            <g fill="#FFF">
                <path d="M20.187 14l34.648 34.648-6.187 6.187L14 20.187z"/>
                <path d="M48.648 14L14 48.648l6.187 6.187 34.648-34.648z"/>
            </g>
        </g>
    </g>
</svg>
