<svg xmlns="http://www.w3.org/2000/svg" xmlns:xlink="http://www.w3.org/1999/xlink" width="46" height="49" viewBox="0 0 46 49">
    <defs>
        <path id="a" d="M11.115 21.695c-5.768 0-10.447-4.68-10.447-10.447C.668 5.476 5.347.797 11.115.797c5.772 0 10.45 4.679 10.45 10.451 0 5.768-4.678 10.447-10.45 10.447"/>
        <path id="c" d="M0 .186h20.507v37.968H0z"/>
        <path id="e" d="M.31.053h17.14v25.02H.31z"/>
        <path id="g" d="M0 0h29.29v35.148H0z"/>
        <path id="i" d="M0 .186h20.507v37.968H0z"/>
        <path id="k" d="M.31.053h17.14v25.02H.31z"/>
    </defs>
    <g fill="none" fill-rule="evenodd">
        <path fill="#595959" d="M24.957 3.564v10.243a11.561 11.561 0 0 0-4.025 0V3.564h4.025zM24.993 38.324V48.47h-4.025V38.324a11.549 11.549 0 0 0 4.026 0M10.49 26.014c0 .672.057 1.325.168 1.964H.47v-4.025h10.206a11.196 11.196 0 0 0-.185 2.061M45.412 23.953v4.025H34.87c.111-.639.167-1.292.167-1.964 0-.704-.06-1.394-.185-2.061h10.561z"/>
        <path fill="#FF7900" d="M22.835 36.443c-5.768 0-10.447-4.68-10.447-10.447 0-5.772 4.68-10.45 10.447-10.45 5.772 0 10.451 4.678 10.451 10.45 0 5.768-4.679 10.447-10.451 10.447m0-31.637c-11.698 0-21.185 9.488-21.185 21.19 0 11.698 9.487 21.185 21.185 21.185 11.702 0 21.19-9.487 21.19-21.185 0-11.702-9.488-21.19-21.19-21.19"/>
        <path fill="#FDCC00" d="M18.736 35.608l-7.866 7.867a21.304 21.304 0 0 1-5.518-5.513l7.871-7.871a10.474 10.474 0 0 0 5.513 5.517M40.32 14.025l-7.867 7.866a10.506 10.506 0 0 0-5.517-5.513l7.87-7.866a21.216 21.216 0 0 1 5.514 5.513M18.736 16.378a10.49 10.49 0 0 0-5.513 5.517L5.357 14.03a21.097 21.097 0 0 1 5.513-5.517l7.866 7.866zM40.32 37.962a21.073 21.073 0 0 1-5.513 5.512l-7.871-7.866a10.505 10.505 0 0 0 5.517-5.513l7.867 7.867z"/>
        <path fill="#4BB4E6" d="M22.837 3.666C10.525 3.666.51 13.682.51 25.994s10.016 22.328 22.328 22.328 22.328-10.016 22.328-22.328S35.15 3.666 22.837 3.666m0 45.165C10.245 48.831 0 38.586 0 25.994S10.245 3.157 22.837 3.157c12.593 0 22.837 10.245 22.837 22.837S35.43 48.831 22.837 48.831"/>
        <g>
            <g transform="translate(11.716 14.746)">
                <mask id="b" fill="#fff">
                    <use xlink:href="#a"/>
                </mask>
                <g mask="url(#b)">
                    <g transform="translate(-.984 -7.706)">
                        <mask id="d" fill="#fff">
                            <use xlink:href="#c"/>
                        </mask>
                        <path fill="#835F45" d="M8.9.94c.123-.494 2.057-2.415 3.989 2.802 1.931 5.219 1.205 5.733 1.468 7.884.263 2.151 6.105 5.031 6.105 5.031s.34.212-.842 1.45c-1.18 1.238-2.412 2.88-4.369 6.995-2.063 4.338-6.846 13.052-6.846 13.052H0v-2.857s9.754-16.722 9.757-18.043c.002-1.322.2-2.497.56-5.986.224-2.159.335-1.953-.182-5.448C9.62 2.35 8.69 1.795 8.9.94" mask="url(#d)"/>
                    </g>
                    <g transform="translate(9.301 -14.342)">
                        <mask id="f" fill="#fff">
                            <use xlink:href="#e"/>
                        </mask>
                        <path fill="#000" d="M4.61 23.53c.238 1.07 1.33 1.74 2.435 1.492l8.79-1.959c1.105-.246 1.809-1.315 1.57-2.387L13.151 1.599c-.24-1.07-1.33-1.741-2.436-1.495L1.928 2.063C.82 2.31.117 3.38.357 4.453l4.252 19.076z" mask="url(#f)"/>
                    </g>
                    <path fill="#FDCC00" d="M21.268 7.679a1.04 1.04 0 1 1-1.244-.789 1.043 1.043 0 0 1 1.244.789M16.88-12.119a.199.199 0 0 1-.15.234l-1.475.328a.196.196 0 0 1-.234-.148.196.196 0 0 1 .15-.231l1.476-.328a.196.196 0 0 1 .232.145M14.543-11.587a.255.255 0 1 1-.498.111.255.255 0 0 1 .498-.11"/>
                    <path fill="#714E46" d="M9.34 3.562c.184-1.7.184-3.27-.184-5.449-.584-3.458-1.445-4.024-1.233-4.88.123-.493 1.974-2.383 3.987 2.803.933 2.405.906 9.546 1.31 11.855.254 1.455-1.593.08-1.63-.03-.038-.109-2.25-4.299-2.25-4.299"/>
                    <path fill="#FF7900" d="M24.957 5.153l-3.822-17.147-2.403.535-2.416.538-5.277 1.177 3.823 17.148 2.22-.495.534-.119v.001z"/>
                    <path fill="#FFF" d="M21.07-.395a3.712 3.712 0 0 1-2.387 1.559 3.71 3.71 0 0 1-2.79-.586A3.717 3.717 0 0 1 14.268-2.5c.03.003.064.004.098.014.017.021.029.017.058.014.06.012.124.037.185.025.075-.035.098-.07.16-.015.057.049.178.055.249.055.04 0 .076-.008.113.012.032.018.055.052.083.075a.318.318 0 0 0 .19.082c.05.003.104-.003.156 0l.081-.12c-.141.004-.258-.077-.378-.142a.626.626 0 0 0-.21-.082c.001 0-.012-.195-.049-.216-.093-.053-.158.114-.22.153-.152.096-.27-.012-.314-.166-.102-.361.45-.551.717-.415.027.013.13.12.158.106.044-.023-.017-.162-.02-.193-.012-.092-.014-.133.065-.203a.282.282 0 0 0 .086-.147c.01-.037.012-.07.032-.097a.362.362 0 0 1 .216-.581l.272-.051c-.006-.003-.012-.006-.018-.007l-.019-.007a.219.219 0 0 0-.08-.013l-.019.002c-.003 0-.013 0-.009-.004.002-.002.008-.002.01-.003a.217.217 0 0 0 .015-.006l.032-.01c.038-.008.076-.005.115-.004l.056-.001a.09.09 0 0 0 .03-.007c.007-.003.026 0 .024-.007-.005-.007-.021-.01-.019-.02.002-.007.012-.013.017-.017l.023-.014c.035-.019.068-.04.105-.055a.28.28 0 0 1 .077-.02c.007-.001.02-.004.026 0 .007.005.001.014-.002.02l-.011.025a.216.216 0 0 0-.012.079v.005l.279-.052c-.037-.027-.108-.04-.136-.075-.036-.044-.026-.11-.074-.15-.05-.044-.115-.03-.172-.052-.082-.03-.136-.108-.216-.14-.121-.05-.16.029-.275.041-.07.008-.119-.037-.179-.066a.458.458 0 0 0-.352-.026c.035-.04.07-.078.107-.116h.006c.106-.006.206.033.31.045a.646.646 0 0 0 .16-.019c-.029-.012-.141-.016-.063-.04.037 0 .13.014.139-.025.042-.046.065-.05.13-.062.052-.054.104-.097.101-.17-.024-.035-.01-.068-.027-.1-.085-.005-.078-.048-.078-.102a.226.226 0 0 0-.082-.026c.007-.004.013-.01.02-.013.082-.055.165-.105.25-.152.062.024.11.062.105.119a.197.197 0 0 0 .101-.023c.007-.005.012-.016.02-.016.01 0 .017.014.022.02l.007.01.026-.01a.163.163 0 0 1 .025-.004.08.08 0 0 1 .044.01c.005.003.024.01.02.018-.001.006-.014.008-.019.01-.006 0-.013.002-.019.004l-.03.01c-.01.004-.019.008-.029.008-.012.012.036.005.052.01.013.003.028.002.041.008.022.009-.018.024-.024.029a.61.61 0 0 0-.036.028.166.166 0 0 0-.037.044.078.078 0 0 0-.01.044.1.1 0 0 0 .02.05c.016.02.035.038.054.056l.007.007c.105.087.334.198.473.154.153-.047.103-.244.241-.327.139-.084.286-.153.436-.213.041-.018.08-.041.12-.062.055-.031.112-.055.17-.079l.03-.01c.003 0 .027-.01.016-.013-.008-.003-.018-.002-.026-.002l-.03.001c-.017 0-.036.002-.053-.002-.005-.002-.013-.002-.013-.008 0-.007.011-.007.016-.008.021-.002.042-.009.063-.012.021-.005.043-.009.064-.016l.03-.01c.005-.002.013-.002.011-.009a.047.047 0 0 0-.018-.025l-.014-.007c-.006-.005-.004-.009-.001-.015.003-.01.007-.02.008-.03l-.002-.034c0-.026.045-.04.062-.047.024-.01.064-.03.067-.06.003-.032-.03-.04-.037-.064a3.723 3.723 0 0 1 1.55.405c-.07.081-.1.192.088.23.072.013.113-.076.173-.083l.102.066c.008.015.012.03.005.048-.009.02-.038.05-.063.04-.031-.014-.006-.083-.06-.082a.097.097 0 0 0-.084.061c-.017.043.055.088.037.131-.024.057-.113.033-.156.062-.087.06-.152.165-.244.23-.042.029-.097.035-.145.05-.032.01-.084.023-.095.058-.015.041.11.067.135.078.067.03.105.077.047.141-.071.08-.248-.015-.33.064a.06.06 0 0 0-.01.013.364.364 0 0 1 .137.328.349.349 0 0 1 .212-.033l.003-.003c.012-.01.027-.016.037-.03.016-.02.002-.049.005-.073.004-.026.02-.041.033-.061.01-.014.015-.032.026-.044.02-.018.05-.019.071-.034.035-.025.004-.07.034-.099.02-.02.051-.016.078-.013.071.008.107-.041.17-.059.007-.002.016-.015.023-.019.02-.012.048-.02.07-.007.017.01.026.03.041.043.024.02.057.026.085.037.031.013.05.014.082.017.035.003.07.028.104.038.026.008.068.019.074.051.01.057-.089.06-.122.068-.012.002-.06.015-.062.028-.003.02.087.034.1.034.039 0 .05-.03.07-.056.018-.022.044-.039.055-.066.009-.022-.009-.04-.01-.063-.001-.018.014-.02.016-.035.006-.029-.057-.041-.075-.044a.31.31 0 0 0-.05-.004c-.011 0-.034.004-.044 0-.035-.015-.045-.048-.08-.066-.12-.033-.043-.122.018-.067.077-.012.11.065.196.056.05.043.094.007.135.066.02.083.037.079.122.117.03.014.036.106.087.081.016-.008.032-.033.044-.047.007-.007.024-.02.028-.03.01-.03-.04-.023-.053-.038-.059-.069.046-.112.101-.12a.048.048 0 0 1 .041.014l.016.02c.012.018.02.041.028.058.01.02.023.04.041.052a.11.11 0 0 0 .027.014 3.69 3.69 0 0 1 .184.277c-.032.016-.064.03-.103.025a.28.28 0 0 0-.082-.001c-.052.009-.092-.008-.142-.011-.039-.003-.086-.017-.124-.012-.049.006-.088.038-.09.087-.002.02 0 .044-.018.057-.03.022-.075-.003-.108-.003-.027 0-.053.002-.08-.003a.112.112 0 0 1-.033-.014c-.007-.005-.02-.024-.027-.026a.3.3 0 0 0-.13-.008.186.186 0 0 1-.112-.012c-.06-.03 0-.054-.018-.097-.002-.007-.022-.022-.022-.027.004-.074-.07-.043-.122-.02-.1.029-.234.018-.314.074a.562.562 0 0 0-.106.036.36.36 0 0 1 .034.02l.513.35c.357.246.475.71.297 1.09l.008.007c.047.04.028.143.04.196.02.085.049.123.11.182.097.094.215.188.219.334.003.124-.1.224-.03.347.06.107.155.16.207.28.042.1.072.121.14.19.073.075.22.43.362.196a.09.09 0 0 1 .03-.01 3.704 3.704 0 0 1-.415.8zm-6.15-4.206c.071-.105.148-.205.229-.302.024.063.084.177.088.186.063.139-.04.063-.079.16-.016.04.037.065.027.098-.04.14-.165-.05-.247-.083a.208.208 0 0 0-.05-.012l.032-.047zm7.225 1.323a4.223 4.223 0 1 0-8.3 1.56 4.223 4.223 0 0 0 8.3-1.56zm-2.759-.78l-.511.748-.878 1.284-1.051 1.537.026.019.009.006a29249514666.02 29249514666.02 0 0 1 .027.017l.016.009.01.005.016.007.009.005a.4.4 0 0 1 .025.01.302.302 0 0 0 .028.008l.022.005.009.001.016.003.01.001a.17.17 0 0 0 .015.002h.025l.01.001h.024l.025-.003a.02.02 0 0 1 .005 0l.02-.003.01-.002.014-.003.009-.002c.004 0 .008 0 .012-.002h.01l.03-.006 2.645-.497-.969-.66.957-1.4.02-.03a.51.51 0 0 0-.133-.71l-.512-.35zM16.42-.848l.916-1.34.224-.327s1.311-1.906 1.306-1.91c-.009-.007-.017-.013-.026-.018l-.008-.006a.4.4 0 0 1-.017-.01c-.003-.003-.006-.004-.01-.006l-.017-.009-.007-.004a.63.63 0 0 0-.025-.01h-.001c-.008-.004-.015-.007-.023-.009l-.008-.002-.016-.004-.009-.002a.3.3 0 0 0-.017-.003l-.007-.001a.233.233 0 0 0-.024-.003h-.048a.06.06 0 0 0-.009 0l-.017.002-.006.002-.024.006h-.003c-.006.002-.014 0-.02.002l-.039.007c-.003 0-.005 0-.008.002l-.039.009-2.646.497.966.64-.567.827-.412.601a.526.526 0 0 0-.063.463.5.5 0 0 0 .192.256l.446.306.066.045zm.156.336a.387.387 0 0 1-.21.038c.01.078.026.154.028.232.002.104-.033.203-.052.304-.006.029-.014.066-.002.095.019.046.07.044.054.103-.012.044-.035.085-.053.126a.126.126 0 0 0-.014.072c.004.019.018.033.02.051.002.026-.018.048-.019.073 0 .031.023.066.04.09.074.104.324.251.454.184.047-.024.062-.11.049-.158-.019-.063-.05-.022-.098-.029-.088-.013.025-.212.009-.266-.007-.023-.03-.039-.035-.063-.015-.067.095-.206.147-.24.053-.037.088-.088.13-.133a.834.834 0 0 1-.308-.153.364.364 0 0 1-.14-.326zM19.093-5.3c.022-.002.049-.007.07.001.007.003.047.04.032.047-.018.008-.047.006-.053.03-.003.011.006.023.001.035-.003.01-.02.017-.02.027-.001.025.036 0 .043.017.008.02-.05.05-.045.08.003.025.007.05.037.037.035-.016.055-.055.087-.076.01-.007.033-.01.04-.016.035-.034.092-.018.134-.032.038-.011.056-.059.042-.096-.007-.019-.015-.015-.034-.015-.042.002-.052-.01-.077-.04-.027-.033-.079-.043-.112-.069-.013-.01-.029-.026-.028-.044.001-.018.033-.05-.002-.058-.02-.004-.038.01-.057.01-.026 0-.012-.026-.031-.033-.015-.005-.046.012-.058.02a.118.118 0 0 0-.048.049c-.011.028.005.035.014.058.024.057.042-.01.065.068z"/>
                    <path fill="#714E46" d="M25.135-3.71a1.077 1.077 0 0 1-.808 1.291l-2.23.51a1.078 1.078 0 0 1-.483-2.1l2.23-.51c.58-.133 1.159.23 1.291.81M26.124.842a1.078 1.078 0 0 1-.809 1.291l-2.435.557A1.077 1.077 0 1 1 22.4.592l2.435-.56c.58-.132 1.158.23 1.29.81M26.524 3.066a1.08 1.08 0 0 1-.81 1.29l-1.754.403a1.076 1.076 0 1 1-.481-2.099l1.754-.404a1.08 1.08 0 0 1 1.29.81M25.726-1.457a1.144 1.144 0 0 1-.859 1.37l-2.585.593a1.14 1.14 0 0 1-1.368-.859 1.141 1.141 0 0 1 .857-1.37l2.585-.593a1.145 1.145 0 0 1 1.37.86"/>
                </g>
            </g>
            <g transform="translate(12.888 -4)">
                <mask id="h" fill="#fff">
                    <use xlink:href="#g"/>
                </mask>
                <g mask="url(#h)">
                    <g transform="translate(-2.156 11.04)">
                        <mask id="j" fill="#fff">
                            <use xlink:href="#i"/>
                        </mask>
                        <path fill="#835F45" d="M8.9.94c.123-.494 2.057-2.415 3.989 2.802 1.931 5.219 1.205 5.733 1.468 7.884.263 2.151 6.105 5.031 6.105 5.031s.34.212-.842 1.45c-1.18 1.238-2.412 2.88-4.369 6.995-2.063 4.338-6.846 13.052-6.846 13.052H0v-2.857s9.754-16.722 9.757-18.043c.002-1.322.2-2.497.56-5.986.224-2.159.335-1.953-.182-5.448C9.62 2.35 8.69 1.795 8.9.94" mask="url(#j)"/>
                    </g>
                    <g transform="translate(8.13 4.404)">
                        <mask id="l" fill="#fff">
                            <use xlink:href="#k"/>
                        </mask>
                        <path fill="#000" d="M4.61 23.53c.238 1.07 1.33 1.74 2.435 1.492l8.79-1.959c1.105-.246 1.809-1.315 1.57-2.387L13.151 1.599c-.24-1.07-1.33-1.741-2.436-1.495L1.928 2.063C.82 2.31.117 3.38.357 4.453l4.252 19.076z" mask="url(#l)"/>
                    </g>
                    <path fill="#FDCC00" d="M20.096 26.424a1.04 1.04 0 1 1-1.244-.789 1.043 1.043 0 0 1 1.244.79M15.708 6.627a.199.199 0 0 1-.149.233l-1.475.328a.196.196 0 0 1-.234-.148.196.196 0 0 1 .149-.23l1.476-.329a.196.196 0 0 1 .233.146M13.371 7.159a.255.255 0 1 1-.497.111.255.255 0 0 1 .497-.111"/>
                    <path fill="#835F45" d="M8.169 22.308c.183-1.701.183-3.27-.184-5.45C7.4 13.4 6.54 12.835 6.75 11.979c.123-.493 1.974-2.382 3.988 2.804.933 2.404.906 9.545 1.31 11.855.253 1.454-1.594.08-1.63-.03-.038-.11-2.25-4.3-2.25-4.3"/>
                    <path fill="#333" d="M23.785 23.899L19.963 6.752l-2.402.534-2.416.539-5.278 1.177 3.824 17.147 2.219-.495.534-.118z"/>
                    <path fill="#835F45" d="M23.964 15.036a1.077 1.077 0 0 1-.809 1.29l-2.23.51a1.078 1.078 0 0 1-.483-2.099l2.23-.51c.58-.134 1.16.229 1.292.809M24.952 19.587a1.078 1.078 0 0 1-.809 1.292l-2.434.557a1.077 1.077 0 1 1-.482-2.099l2.435-.559c.58-.132 1.158.23 1.29.81M25.352 21.812a1.08 1.08 0 0 1-.81 1.29l-1.753.403a1.076 1.076 0 1 1-.482-2.1l1.754-.403a1.08 1.08 0 0 1 1.291.81M24.554 17.289a1.144 1.144 0 0 1-.859 1.37l-2.584.593a1.14 1.14 0 0 1-1.368-.859 1.141 1.141 0 0 1 .856-1.37l2.585-.593a1.145 1.145 0 0 1 1.37.859"/>
                </g>
            </g>
        </g>
    </g>
</svg>
