<svg xmlns="http://www.w3.org/2000/svg" width="42" height="42" viewBox="0 0 42 42">
    <g fill="none" fill-rule="evenodd" transform="translate(1 1)">
        <circle cx="20" cy="20" r="20" stroke="#FFB400" stroke-width="2"/>
        <path fill="#FFB400" fill-rule="nonzero" d="M15.45 9.86c.76 0 1.36.207 1.8.62.44.413.66.97.66 1.67 0 .707-.22 1.265-.66 1.675-.44.41-1.037.615-1.79.615h-1.67V17h-1.57V9.86h3.23zm-.41 3.36c.453 0 .792-.083 1.015-.25.223-.167.335-.44.335-.82 0-.367-.108-.637-.325-.81-.217-.173-.555-.26-1.015-.26h-1.26v2.14h1.25zm5.64-1.53c1.507.007 2.26.497 2.26 1.47v2.74c0 .507.06.873.18 1.1h-1.44a2.08 2.08 0 0 1-.1-.5c-.42.427-1 .64-1.74.64-.54 0-.968-.137-1.285-.41-.317-.273-.475-.653-.475-1.14 0-.473.15-.84.45-1.1.276-.246.754-.411 1.435-.495l.235-.025c.573-.06.937-.135 1.09-.225a.448.448 0 0 0 .23-.415c0-.233-.07-.407-.21-.52-.14-.113-.373-.17-.7-.17-.3 0-.527.062-.68.185-.153.123-.243.322-.27.595h-1.42c.033-.567.267-.997.7-1.29.433-.293 1.013-.44 1.74-.44zm-1.18 3.84c0 .44.29.66.87.66.76-.007 1.143-.397 1.15-1.17v-.55c-.1.1-.331.175-.696.229l-.164.021c-.4.047-.693.128-.88.245-.187.117-.28.305-.28.565zm6.46-3.84c.693 0 1.235.14 1.625.42.39.28.608.69.655 1.23h-1.35c-.02-.247-.11-.425-.27-.535-.16-.11-.393-.165-.7-.165-.267 0-.465.04-.595.12-.13.08-.195.2-.195.36 0 .12.043.22.13.3.087.08.218.15.395.21.118.04.244.076.378.107l.207.043c.647.127 1.103.257 1.37.39.267.133.462.293.585.48.123.187.185.417.185.69 0 .58-.212 1.025-.635 1.335-.423.31-.998.465-1.725.465-.76 0-1.352-.163-1.775-.49-.423-.327-.642-.77-.655-1.33h1.35c0 .267.103.478.31.635.207.157.467.235.78.235.267 0 .488-.058.665-.175a.55.55 0 0 0 .265-.485.403.403 0 0 0-.165-.33 1.546 1.546 0 0 0-.465-.23 6.273 6.273 0 0 0-.547-.147l-.383-.083a4.376 4.376 0 0 1-.89-.27 1.436 1.436 0 0 1-.595-.445 1.098 1.098 0 0 1-.205-.675c0-.34.082-.637.245-.89.163-.253.413-.445.75-.575.337-.13.755-.195 1.255-.195zM7.895 19.86v1.17h-1.42v-1.17h1.42zm0 1.97V27h-1.42v-5.17h1.42zm3.89-.14c.66 0 1.138.167 1.435.5.297.333.445.863.445 1.59V27h-1.42v-2.93c0-.427-.068-.743-.205-.95-.137-.207-.372-.31-.705-.31-.387 0-.667.117-.84.35-.173.233-.26.617-.26 1.15V27h-1.42v-5.17h1.35v.72h.03c.353-.573.883-.86 1.59-.86zm4.88 0c.693 0 1.235.14 1.625.42.39.28.608.69.655 1.23h-1.35c-.02-.247-.11-.425-.27-.535-.16-.11-.393-.165-.7-.165-.267 0-.465.04-.595.12-.13.08-.195.2-.195.36 0 .12.043.22.13.3.087.08.218.15.395.21.118.04.244.076.378.107l.207.043c.647.127 1.103.257 1.37.39.267.133.462.293.585.48.123.187.185.417.185.69 0 .58-.212 1.025-.635 1.335-.423.31-.998.465-1.725.465-.76 0-1.352-.163-1.775-.49-.423-.327-.642-.77-.655-1.33h1.35c0 .267.103.478.31.635.207.157.467.235.78.235.267 0 .488-.058.665-.175a.55.55 0 0 0 .265-.485.403.403 0 0 0-.165-.33 1.546 1.546 0 0 0-.465-.23 6.273 6.273 0 0 0-.547-.147l-.383-.083a4.376 4.376 0 0 1-.89-.27 1.436 1.436 0 0 1-.595-.445 1.098 1.098 0 0 1-.205-.675c0-.34.082-.637.245-.89.163-.253.413-.445.75-.575.337-.13.755-.195 1.255-.195zm5.53 0c.7 0 1.27.178 1.71.535.44.357.68.832.72 1.425h-1.39c-.093-.593-.443-.89-1.05-.89-.373 0-.668.153-.885.46-.217.307-.325.713-.325 1.22 0 .487.103.88.31 1.18.207.3.497.45.87.45.647 0 1.023-.35 1.13-1.05h1.37c-.093.687-.358 1.212-.795 1.575-.437.363-1.002.545-1.695.545-.767 0-1.393-.245-1.88-.735-.487-.49-.73-1.128-.73-1.915 0-.853.24-1.533.72-2.04.48-.507 1.12-.76 1.92-.76zm6.08 0c.12 0 .223.017.31.05v1.32a2.405 2.405 0 0 0-.51-.05c-.933 0-1.4.553-1.4 1.66V27h-1.42v-5.17h1.35v.96h.02c.14-.333.362-.6.665-.8.303-.2.632-.3.985-.3zm2.13-1.83v1.17h-1.42v-1.17h1.42zm0 1.97V27h-1.42v-5.17h1.42zm2.72-1.55v1.55h1.04v.95h-1.04v2.56c0 .24.04.4.12.48.08.08.24.12.48.12.173 0 .32-.013.44-.04v1.11c-.2.033-.48.05-.84.05-.547 0-.953-.093-1.22-.28-.267-.187-.4-.51-.4-.97v-3.03h-.86v-.95h.86v-1.55h1.42z"/>
    </g>
</svg>
