<svg id="OBJECTS" xmlns="http://www.w3.org/2000/svg" xmlns:xlink="http://www.w3.org/1999/xlink" viewBox="0 0 500 500"><defs><style>.cls-1,.cls-22{fill:none;}.cls-2{fill:#ffe900;}.cls-3{opacity:0.57;}.cls-19,.cls-21,.cls-4,.cls-6,.cls-8{fill:#fff;}.cls-5{fill:#6ac5f0;}.cls-6{stroke:#00acbe;}.cls-19,.cls-21,.cls-22,.cls-23,.cls-6{stroke-miterlimit:10;}.cls-23,.cls-7{fill:#ef7d00;}.cls-8{font-size:11px;font-family:HelveticaNeue-Bold, Helvetica Neue;font-weight:700;}.cls-9{fill:#00acbe;}.cls-10{fill:#00abbe;}.cls-11{fill:#00b6eb;}.cls-12{fill:#1d1d1b;}.cls-13{clip-path:url(#clip-path);}.cls-14{clip-path:url(#clip-path-2);}.cls-15{fill:#85cedf;}.cls-16{fill:#bbdecf;}.cls-17{fill:#3fb498;}.cls-18{fill:#b1dee8;}.cls-19,.cls-21,.cls-22,.cls-23{stroke:#1d1d1b;}.cls-20{fill:#e9530d;}.cls-21{stroke-width:3px;}.cls-23{stroke-width:1.5px;}.cls-24{fill:#dadada;}</style><clipPath id="clip-path"><circle class="cls-1" cx="393.06" cy="355.66" r="54.58" transform="translate(-71.7 100.73) rotate(-13.39)"/></clipPath><clipPath id="clip-path-2"><circle class="cls-1" cx="241.89" cy="251" r="221.62"/></clipPath></defs><circle class="cls-2" cx="242.1" cy="250.7" r="221.62"/><g class="cls-3"><path class="cls-4" d="M326.41,57.3a6.76,6.76,0,1,1-9.56,0A6.77,6.77,0,0,1,326.41,57.3Z"/><path class="cls-4" d="M326.41,78.89a6.76,6.76,0,1,1-9.56,0A6.77,6.77,0,0,1,326.41,78.89Z"/><path class="cls-4" d="M326.41,100.47a6.76,6.76,0,1,1-9.56,0A6.77,6.77,0,0,1,326.41,100.47Z"/><path class="cls-4" d="M326.41,122.06a6.76,6.76,0,1,1-9.56,0A6.77,6.77,0,0,1,326.41,122.06Z"/><path class="cls-4" d="M326.41,143.64a6.76,6.76,0,1,1-9.56,0A6.77,6.77,0,0,1,326.41,143.64Z"/><path class="cls-4" d="M347.77,57.3a6.76,6.76,0,1,1-9.56,0A6.77,6.77,0,0,1,347.77,57.3Z"/><path class="cls-4" d="M347.77,78.89a6.76,6.76,0,1,1-9.56,0A6.77,6.77,0,0,1,347.77,78.89Z"/><path class="cls-4" d="M347.77,100.47a6.76,6.76,0,1,1-9.56,0A6.77,6.77,0,0,1,347.77,100.47Z"/><path class="cls-4" d="M347.77,122.06a6.76,6.76,0,1,1-9.56,0A6.77,6.77,0,0,1,347.77,122.06Z"/><path class="cls-4" d="M347.77,143.64a6.76,6.76,0,1,1-9.56,0A6.77,6.77,0,0,1,347.77,143.64Z"/><path class="cls-4" d="M369.51,57.3a6.76,6.76,0,1,1-9.56,0A6.77,6.77,0,0,1,369.51,57.3Z"/><path class="cls-4" d="M369.51,78.89a6.76,6.76,0,1,1-9.56,0A6.77,6.77,0,0,1,369.51,78.89Z"/><path class="cls-4" d="M369.51,100.47a6.76,6.76,0,1,1-9.56,0A6.77,6.77,0,0,1,369.51,100.47Z"/><path class="cls-4" d="M369.51,122.06a6.76,6.76,0,1,1-9.56,0A6.77,6.77,0,0,1,369.51,122.06Z"/><path class="cls-4" d="M369.51,143.64a6.76,6.76,0,1,1-9.56,0A6.77,6.77,0,0,1,369.51,143.64Z"/><path class="cls-4" d="M390.87,57.3a6.77,6.77,0,1,1-9.57,0A6.77,6.77,0,0,1,390.87,57.3Z"/><path class="cls-4" d="M390.87,78.89a6.77,6.77,0,1,1-9.57,0A6.77,6.77,0,0,1,390.87,78.89Z"/><path class="cls-4" d="M390.87,100.47a6.77,6.77,0,1,1-9.57,0A6.77,6.77,0,0,1,390.87,100.47Z"/><path class="cls-4" d="M390.87,122.06a6.77,6.77,0,1,1-9.57,0A6.77,6.77,0,0,1,390.87,122.06Z"/><path class="cls-4" d="M390.87,143.64a6.77,6.77,0,1,1-9.57,0A6.77,6.77,0,0,1,390.87,143.64Z"/><path class="cls-4" d="M411.53,57.3a6.76,6.76,0,1,1-9.56,0A6.77,6.77,0,0,1,411.53,57.3Z"/><path class="cls-4" d="M411.53,78.89a6.76,6.76,0,1,1-9.56,0A6.77,6.77,0,0,1,411.53,78.89Z"/><path class="cls-4" d="M411.53,100.47a6.76,6.76,0,1,1-9.56,0A6.77,6.77,0,0,1,411.53,100.47Z"/><path class="cls-4" d="M411.53,122.06a6.76,6.76,0,1,1-9.56,0A6.77,6.77,0,0,1,411.53,122.06Z"/><path class="cls-4" d="M411.53,143.64a6.76,6.76,0,1,1-9.56,0A6.77,6.77,0,0,1,411.53,143.64Z"/></g><path class="cls-4" d="M119,92.22h8.42a1.37,1.37,0,0,1,1.36,1.37V102a1.37,1.37,0,0,0,1.37,1.37h.21a1.37,1.37,0,0,0,1.37-1.37V93.59a1.37,1.37,0,0,1,1.37-1.37h8.41a1.36,1.36,0,0,0,1.37-1.36v-.21a1.37,1.37,0,0,0-1.37-1.37h-8.41a1.37,1.37,0,0,1-1.37-1.37V79.49a1.36,1.36,0,0,0-1.37-1.36h-.21a1.37,1.37,0,0,0-1.37,1.36v8.42a1.36,1.36,0,0,1-1.36,1.37H119a1.37,1.37,0,0,0-1.37,1.37v.21A1.36,1.36,0,0,0,119,92.22Z"/><path class="cls-4" d="M142.69,107.33h5.14a.83.83,0,0,1,.83.83v5.13a.84.84,0,0,0,.83.84h.13a.85.85,0,0,0,.84-.84v-5.13a.83.83,0,0,1,.83-.83h5.13a.85.85,0,0,0,.84-.84v-.13a.84.84,0,0,0-.84-.83h-5.13a.83.83,0,0,1-.83-.83V99.56a.84.84,0,0,0-.84-.83h-.13a.83.83,0,0,0-.83.83v5.14a.83.83,0,0,1-.83.83h-5.14a.83.83,0,0,0-.83.83v.13A.84.84,0,0,0,142.69,107.33Z"/><ellipse class="cls-5" cx="81.02" cy="91.77" rx="19.48" ry="19.49"/><path class="cls-5" d="M98,57.61a5.1,5.1,0,1,1-7.21,0A5.09,5.09,0,0,1,98,57.61Z"/><rect class="cls-6" x="231.62" y="108.81" width="245.11" height="173.06" rx="15.32"/><path class="cls-7" d="M461,108.81H247.31a15.51,15.51,0,0,0-15.69,15.32V131h245.1v-6.89A15.51,15.51,0,0,0,461,108.81Z"/><path class="cls-4" d="M453.31,119.57a2.59,2.59,0,1,1-2.59-2.59A2.59,2.59,0,0,1,453.31,119.57Z"/><circle class="cls-4" cx="462.29" cy="119.57" r="2.59"/><path class="cls-4" d="M442.55,119.57A2.6,2.6,0,1,1,440,117,2.59,2.59,0,0,1,442.55,119.57Z"/><text class="cls-8" transform="translate(334.09 123.56)">Agenda</text><rect class="cls-4" x="243.36" y="145.57" width="222.13" height="122.55"/><path class="cls-9" d="M465.74,268.38H243.11V145.32H465.74Zm-222.13-.5H465.24V145.82H243.61Z"/><rect class="cls-10" x="243.36" y="174.94" width="221.62" height="0.5"/><rect class="cls-10" x="243.36" y="205.58" width="221.62" height="0.5"/><rect class="cls-10" x="243.36" y="237.77" width="221.62" height="0.5"/><rect class="cls-9" x="272.94" y="145.57" width="0.5" height="122.04"/><rect class="cls-9" x="306.09" y="145.57" width="0.5" height="122.04"/><rect class="cls-9" x="337.75" y="145.57" width="0.5" height="122.04"/><rect class="cls-9" x="369.94" y="145.57" width="0.5" height="122.04"/><rect class="cls-9" x="402.15" y="145.57" width="0.5" height="122.04"/><rect class="cls-9" x="433.88" y="145.57" width="0.5" height="122.04"/><rect class="cls-7" x="337.83" y="174.68" width="32.68" height="31.15"/><path class="cls-7" d="M249.91,150h2.21v7.77h-1.46v-6.38h-1.6Z"/><path class="cls-7" d="M279.74,153H278.3a2.84,2.84,0,0,1,.79-2,2.54,2.54,0,0,1,1.87-.72,2.51,2.51,0,0,1,1.25.3,2.32,2.32,0,0,1,.87.86,2.26,2.26,0,0,1,.33,1.14,3.4,3.4,0,0,1-.4,1.49,7.92,7.92,0,0,1-1.44,1.89l-.87.92h2.77v1.37h-5.38v-.71l2.4-2.45a7,7,0,0,0,1.16-1.42,2.12,2.12,0,0,0,.29-1,1,1,0,0,0-.3-.74,1,1,0,0,0-.77-.29,1,1,0,0,0-.79.35A1.47,1.47,0,0,0,279.74,153Z"/><path class="cls-7" d="M314.59,152.19h-1.42a2.3,2.3,0,0,1,2.39-2.11,2.24,2.24,0,0,1,1.61.61,1.89,1.89,0,0,1,.64,1.44,1.65,1.65,0,0,1-.28.94,2,2,0,0,1-.82.7,2.11,2.11,0,0,1,1.11.73,2,2,0,0,1,.4,1.24,2.31,2.31,0,0,1-.78,1.77,2.7,2.7,0,0,1-2,.73,2.56,2.56,0,0,1-1.84-.68,2.71,2.71,0,0,1-.79-1.87h1.47a1.44,1.44,0,0,0,.42.9,1.29,1.29,0,0,0,1.68,0,1.11,1.11,0,0,0,.34-.81,1.13,1.13,0,0,0-.46-.9,2.19,2.19,0,0,0-1.33-.37V153.2a2.29,2.29,0,0,0,.8-.17.89.89,0,0,0,.4-.34.77.77,0,0,0,.15-.46.67.67,0,0,0-.22-.52.81.81,0,0,0-.58-.21.92.92,0,0,0-.58.19A1,1,0,0,0,314.59,152.19Z"/><path class="cls-7" d="M347,150.3h1.48v5h.69v1.37h-.69v1.59H347v-1.59h-3.39V155.3Zm0,5v-2.61l-1.78,2.61Z"/><path class="cls-7" d="M377.47,150.54h3.64v1.36h-2.54l-.32,1.42.26-.06.25,0a2.33,2.33,0,0,1,1.75.72,2.54,2.54,0,0,1,.7,1.85,2.58,2.58,0,0,1-.77,1.91,2.55,2.55,0,0,1-1.88.78,2.6,2.6,0,0,1-2.65-2.11h1.56a1.28,1.28,0,0,0,.47.55,1.18,1.18,0,0,0,1.48-.16,1.26,1.26,0,0,0,.35-.91,1.28,1.28,0,0,0-.32-.89,1,1,0,0,0-.78-.34,1.07,1.07,0,0,0-.48.12,1.81,1.81,0,0,0-.46.36l-1.2-.27Z"/><path class="cls-7" d="M411.79,150.58l1.26.63-1.36,2.64a2.27,2.27,0,0,1,1.68.71,2.42,2.42,0,0,1,.69,1.76,2.43,2.43,0,0,1-4.17,1.69,2.34,2.34,0,0,1-.7-1.68,2.29,2.29,0,0,1,.11-.72,7.61,7.61,0,0,1,.5-1.12Zm-.18,4.67a.89.89,0,0,0-.69.3,1,1,0,0,0-.28.75,1,1,0,0,0,.29.75.89.89,0,0,0,.68.31,1,1,0,0,0,.71-.3,1.11,1.11,0,0,0,0-1.51A1,1,0,0,0,411.61,155.25Z"/><path class="cls-7" d="M439.63,150.44h5.1v.78l-3.51,7.19L440,157.8l2.92-6h-3.26Z"/><path class="cls-7" d="M253.46,183a2.39,2.39,0,0,1,1.1,2,2.34,2.34,0,0,1-.34,1.24,2.13,2.13,0,0,1-.9.86,3.15,3.15,0,0,1-1.44.29,3.27,3.27,0,0,1-1.49-.28,2.06,2.06,0,0,1-.89-.84,2.58,2.58,0,0,1-.07-2.39,2.92,2.92,0,0,1,.8-.9,2.47,2.47,0,0,1-.52-.75,2,2,0,0,1-.18-.84,2.21,2.21,0,0,1,.29-1.11,2,2,0,0,1,.83-.77,2.53,2.53,0,0,1,1.22-.28,2.47,2.47,0,0,1,1.2.28,2.12,2.12,0,0,1,.81.79,2.2,2.2,0,0,1,.3,1.11,1.77,1.77,0,0,1-.16.77A2.86,2.86,0,0,1,253.46,183Zm-1.58.79a1.28,1.28,0,0,0-.9.33,1,1,0,0,0-.37.77,1.06,1.06,0,0,0,.35.8,1.46,1.46,0,0,0,1.8,0,1.09,1.09,0,0,0,0-1.59A1.21,1.21,0,0,0,251.88,183.8Zm-.06-3.11a.82.82,0,0,0-.84.85.89.89,0,0,0,.25.63.86.86,0,0,0,.61.25.81.81,0,0,0,.62-.25.88.88,0,0,0,.24-.64.82.82,0,0,0-.24-.61A.87.87,0,0,0,251.82,180.69Z"/><path class="cls-7" d="M281,187.6l-1.26-.62,1.36-2.65a2.26,2.26,0,0,1-1.68-.7,2.45,2.45,0,0,1-.7-1.76,2.34,2.34,0,0,1,.71-1.72,2.45,2.45,0,0,1,4.17,1.7,2.57,2.57,0,0,1-.11.72,7.17,7.17,0,0,1-.5,1.12Zm.18-4.67a.89.89,0,0,0,.69-.3,1,1,0,0,0,.28-.74,1.09,1.09,0,0,0-.29-.76.93.93,0,0,0-.68-.3.94.94,0,0,0-.71.3,1,1,0,0,0-.3.76,1,1,0,0,0,.29.74A1,1,0,0,0,281.13,182.93Z"/><path class="cls-7" d="M313.89,179.69h2.21v7.77h-1.47v-6.38H313Z"/><path class="cls-7" d="M321.17,179.5a2.61,2.61,0,0,1,1.47.41,2.66,2.66,0,0,1,.95,1.28,6.85,6.85,0,0,1,.34,2.39,7,7,0,0,1-.34,2.41,2.76,2.76,0,0,1-.92,1.26,2.48,2.48,0,0,1-1.45.41,2.39,2.39,0,0,1-2.41-1.65,6.33,6.33,0,0,1-.34-2.36,5.62,5.62,0,0,1,.66-3.1A2.35,2.35,0,0,1,321.17,179.5Zm0,1.4a1,1,0,0,0-.67.24,1.58,1.58,0,0,0-.44.83,7.38,7.38,0,0,0-.15,1.72,4.05,4.05,0,0,0,.35,2,1,1,0,0,0,.91.56.94.94,0,0,0,.85-.53,4.38,4.38,0,0,0,.39-2.15,4.51,4.51,0,0,0-.35-2.12A1,1,0,0,0,321.21,180.9Z"/><path class="cls-4" d="M344.21,179.13h2.21v7.77H345v-6.38h-1.6Z"/><path class="cls-4" d="M350.27,179.13h2.21v7.77H351v-6.38h-1.6Z"/><path class="cls-7" d="M376.14,179.35h2.22v7.77h-1.47v-6.38h-1.6Z"/><path class="cls-7" d="M382.31,181.85h-1.44a2.84,2.84,0,0,1,.79-2,2.54,2.54,0,0,1,1.87-.72,2.51,2.51,0,0,1,1.25.3,2.32,2.32,0,0,1,.87.86,2.27,2.27,0,0,1,.33,1.15,3.47,3.47,0,0,1-.4,1.49,7.9,7.9,0,0,1-1.44,1.88l-.87.92H386v1.37h-5.38v-.71l2.4-2.45a7,7,0,0,0,1.16-1.42,2.12,2.12,0,0,0,.29-1,1,1,0,0,0-.3-.74,1,1,0,0,0-.77-.29,1,1,0,0,0-.79.35A1.47,1.47,0,0,0,382.31,181.85Z"/><path class="cls-7" d="M409.5,179.36h2.21v7.77h-1.46v-6.38h-1.61Z"/><path class="cls-7" d="M415.83,181.28h-1.42a2.32,2.32,0,0,1,2.4-2.12,2.26,2.26,0,0,1,1.6.61,1.9,1.9,0,0,1,.65,1.44,1.68,1.68,0,0,1-.28.95,2.09,2.09,0,0,1-.82.69,2.06,2.06,0,0,1,1.1.74,2,2,0,0,1,.4,1.24,2.34,2.34,0,0,1-.77,1.77,2.76,2.76,0,0,1-2,.73,2.55,2.55,0,0,1-1.85-.69,2.74,2.74,0,0,1-.78-1.86h1.46a1.52,1.52,0,0,0,.42.89,1.18,1.18,0,0,0,.83.3,1.13,1.13,0,0,0,.85-.34,1.07,1.07,0,0,0,.34-.81,1.1,1.1,0,0,0-.45-.89,2.19,2.19,0,0,0-1.33-.38v-1.26a2.47,2.47,0,0,0,.79-.17,1,1,0,0,0,.41-.34.81.81,0,0,0,.15-.46.7.7,0,0,0-.23-.53.79.79,0,0,0-.58-.21.92.92,0,0,0-.57.2A1,1,0,0,0,415.83,181.28Z"/><path class="cls-7" d="M440.7,179.63h2.22v7.77h-1.47V181h-1.6Z"/><path class="cls-7" d="M448.57,179.43H450v5h.7v1.37H450v1.6H448.6v-1.6h-3.4v-1.37Zm0,5v-2.6l-1.78,2.6Z"/><path class="cls-7" d="M249.74,210.07H252v7.77h-1.47v-6.38h-1.6Z"/><path class="cls-7" d="M255.83,210.07h3.64v1.37h-2.54l-.31,1.41.26-.06h.24a2.37,2.37,0,0,1,1.76.72,2.55,2.55,0,0,1,.69,1.84,2.6,2.6,0,0,1-.77,1.92,2.55,2.55,0,0,1-1.88.78,2.67,2.67,0,0,1-1.71-.57,2.63,2.63,0,0,1-.93-1.55h1.55a1.38,1.38,0,0,0,.47.56,1.22,1.22,0,0,0,.65.18,1.07,1.07,0,0,0,.83-.35,1.36,1.36,0,0,0,0-1.79,1,1,0,0,0-.78-.35,1,1,0,0,0-.47.12,1.69,1.69,0,0,0-.47.37l-1.2-.27Z"/><path class="cls-7" d="M278.54,210.27h2.22V218h-1.47v-6.38h-1.6Z"/><path class="cls-7" d="M286,210.08l1.26.63-1.36,2.64a2.26,2.26,0,0,1,1.68.7,2.44,2.44,0,0,1,.69,1.76,2.3,2.3,0,0,1-.71,1.72,2.44,2.44,0,0,1-4.16-1.7,2.25,2.25,0,0,1,.11-.72A6.52,6.52,0,0,1,284,214Zm-.18,4.67a.92.92,0,0,0-.7.3,1,1,0,0,0-.28.74,1.06,1.06,0,0,0,.3.76.91.91,0,0,0,.68.3,1,1,0,0,0,.71-.3,1,1,0,0,0,.3-.76,1,1,0,0,0-.29-.74A1,1,0,0,0,285.78,214.75Z"/><path class="cls-7" d="M313.26,210.14h2.21v7.77H314v-6.38h-1.6Z"/><path class="cls-7" d="M318.19,210.14h5.09v.78l-3.5,7.19-1.25-.61,2.92-6h-3.26Z"/><path class="cls-7" d="M344.08,210.05h2.21v7.77h-1.47v-6.38h-1.6Z"/><path class="cls-7" d="M353,213.61a2.39,2.39,0,0,1,1.1,2,2.34,2.34,0,0,1-.34,1.24,2.13,2.13,0,0,1-.9.86,3.15,3.15,0,0,1-1.44.29,3.27,3.27,0,0,1-1.49-.28,2.06,2.06,0,0,1-.89-.84,2.58,2.58,0,0,1-.07-2.39,2.92,2.92,0,0,1,.8-.9,2.47,2.47,0,0,1-.52-.75,2,2,0,0,1-.18-.84,2.19,2.19,0,0,1,.29-1.11,2,2,0,0,1,.83-.77,2.53,2.53,0,0,1,1.22-.28,2.47,2.47,0,0,1,1.2.28,2,2,0,0,1,.81.79,2.18,2.18,0,0,1,.3,1.11,1.8,1.8,0,0,1-.16.77A2.86,2.86,0,0,1,353,213.61Zm-1.58.79a1.28,1.28,0,0,0-.9.33,1,1,0,0,0-.37.77,1.08,1.08,0,0,0,.35.8,1.46,1.46,0,0,0,1.8,0,1.09,1.09,0,0,0,0-1.59A1.21,1.21,0,0,0,351.4,214.4Zm-.06-3.12a.81.81,0,0,0-.6.24.88.88,0,0,0,1.24,1.25.89.89,0,0,0,.24-.64.82.82,0,0,0-.24-.61A.88.88,0,0,0,351.34,211.28Z"/><path class="cls-7" d="M375.92,210.22h2.21V218h-1.47V211.6h-1.6Z"/><path class="cls-7" d="M383.12,218.18l-1.26-.62,1.36-2.65a2.25,2.25,0,0,1-1.68-.71,2.4,2.4,0,0,1-.69-1.75,2.43,2.43,0,0,1,4.17-1.7,2.35,2.35,0,0,1,.7,1.68,2.55,2.55,0,0,1-.1.72,8.89,8.89,0,0,1-.5,1.12Zm.18-4.67a.92.92,0,0,0,.7-.3,1.08,1.08,0,0,0,.28-.74,1,1,0,0,0-.3-.76.92.92,0,0,0-.68-.31.93.93,0,0,0-.71.31,1,1,0,0,0-.29.75,1,1,0,0,0,.28.75A1,1,0,0,0,383.3,213.51Z"/><path class="cls-7" d="M409.78,212.86h-1.44a2.84,2.84,0,0,1,.79-2,2.56,2.56,0,0,1,1.88-.72,2.65,2.65,0,0,1,1.25.29,2.45,2.45,0,0,1,1.19,2,3.3,3.3,0,0,1-.4,1.49,7.9,7.9,0,0,1-1.44,1.88l-.87.92h2.77v1.37h-5.38v-.71l2.4-2.45a7,7,0,0,0,1.16-1.42,2.09,2.09,0,0,0,.29-1,1,1,0,0,0-.3-.75,1.06,1.06,0,0,0-.77-.29,1,1,0,0,0-.79.35A1.53,1.53,0,0,0,409.78,212.86Z"/><path class="cls-7" d="M417,210.16a2.61,2.61,0,0,1,1.47.41,2.72,2.72,0,0,1,.95,1.28,6.88,6.88,0,0,1,.33,2.39,6.74,6.74,0,0,1-.34,2.41,2.68,2.68,0,0,1-.91,1.26,2.49,2.49,0,0,1-1.46.41,2.57,2.57,0,0,1-1.47-.41,2.65,2.65,0,0,1-.94-1.24,6.62,6.62,0,0,1-.33-2.36,5.62,5.62,0,0,1,.66-3.1A2.35,2.35,0,0,1,417,210.16Zm0,1.4a1,1,0,0,0-.67.24,1.58,1.58,0,0,0-.44.83,7.38,7.38,0,0,0-.15,1.72,4.05,4.05,0,0,0,.35,2,1,1,0,0,0,.91.56,1,1,0,0,0,.85-.53,4.4,4.4,0,0,0,.38-2.15,4.54,4.54,0,0,0-.34-2.12A1,1,0,0,0,417,211.56Z"/><path class="cls-7" d="M441,212.58h-1.44a2.84,2.84,0,0,1,.79-2,2.79,2.79,0,0,1,3.13-.42,2.22,2.22,0,0,1,.86.86,2.26,2.26,0,0,1,.33,1.14,3.38,3.38,0,0,1-.39,1.49,8.29,8.29,0,0,1-1.45,1.89l-.87.92h2.77v1.37h-5.38v-.71l2.4-2.45a7,7,0,0,0,1.16-1.42,2.12,2.12,0,0,0,.29-1,1,1,0,0,0-.3-.74,1,1,0,0,0-.77-.3,1,1,0,0,0-.79.36A1.5,1.5,0,0,0,441,212.58Z"/><path class="cls-7" d="M447,210.08h2.21v7.77h-1.47v-6.38h-1.6Z"/><path class="cls-7" d="M250.47,244.44H249a2.89,2.89,0,0,1,.79-2,2.58,2.58,0,0,1,1.88-.72,2.54,2.54,0,0,1,1.25.3,2.24,2.24,0,0,1,.87.86,2.29,2.29,0,0,1,.32,1.14,3.41,3.41,0,0,1-.39,1.49,8.12,8.12,0,0,1-1.44,1.89l-.87.92h2.77v1.37h-5.39V249l2.41-2.45a7.34,7.34,0,0,0,1.16-1.42,2.1,2.1,0,0,0,.28-1,1,1,0,0,0-.29-.74,1,1,0,0,0-.77-.3,1,1,0,0,0-.8.36A1.43,1.43,0,0,0,250.47,244.44Z"/><path class="cls-7" d="M256.53,244.44h-1.45a2.89,2.89,0,0,1,.79-2,2.58,2.58,0,0,1,1.88-.72,2.54,2.54,0,0,1,1.25.3,2.24,2.24,0,0,1,.87.86,2.29,2.29,0,0,1,.32,1.14,3.41,3.41,0,0,1-.39,1.49,8.12,8.12,0,0,1-1.44,1.89l-.87.92h2.76v1.37h-5.38V249l2.41-2.45a7.34,7.34,0,0,0,1.16-1.42,2.1,2.1,0,0,0,.28-1,1,1,0,0,0-.3-.74,1,1,0,0,0-.76-.3,1,1,0,0,0-.8.36A1.43,1.43,0,0,0,256.53,244.44Z"/><path class="cls-7" d="M314,244.55H312.6a2.84,2.84,0,0,1,.79-2,2.79,2.79,0,0,1,3.13-.42,2.16,2.16,0,0,1,.86.86,2.2,2.2,0,0,1,.33,1.14,3.41,3.41,0,0,1-.39,1.49,8.73,8.73,0,0,1-1.44,1.89l-.88.92h2.77v1.36h-5.38v-.7l2.4-2.45a7,7,0,0,0,1.16-1.42,2.12,2.12,0,0,0,.29-1,1,1,0,0,0-.3-.74,1,1,0,0,0-.77-.3,1,1,0,0,0-.79.36A1.48,1.48,0,0,0,314,244.55Z"/><path class="cls-7" d="M321.8,241.85h1.48v5H324v1.37h-.69v1.59h-1.45v-1.59h-3.39v-1.37Zm0,5v-2.6l-1.78,2.6Z"/><path class="cls-7" d="M345.21,244.54h-1.44a2.84,2.84,0,0,1,.79-2,2.56,2.56,0,0,1,1.88-.72,2.65,2.65,0,0,1,1.25.29,2.45,2.45,0,0,1,1.19,2,3.3,3.3,0,0,1-.4,1.49,7.9,7.9,0,0,1-1.44,1.88l-.87.92h2.77v1.37h-5.38v-.71l2.4-2.45a6.71,6.71,0,0,0,1.16-1.42,2.09,2.09,0,0,0,.29-1,1,1,0,0,0-.3-.75,1.06,1.06,0,0,0-.77-.29,1,1,0,0,0-.79.35A1.53,1.53,0,0,0,345.21,244.54Z"/><path class="cls-7" d="M351.19,242h3.64v1.37H352.3l-.32,1.41.26-.06h.24a2.37,2.37,0,0,1,1.76.72,2.55,2.55,0,0,1,.7,1.84,2.61,2.61,0,0,1-.78,1.92,2.54,2.54,0,0,1-1.88.78,2.6,2.6,0,0,1-2.64-2.12h1.55a1.38,1.38,0,0,0,.47.56,1.22,1.22,0,0,0,.65.18,1.11,1.11,0,0,0,.84-.35,1.3,1.3,0,0,0,.34-.91,1.25,1.25,0,0,0-.32-.88,1,1,0,0,0-1.25-.23,1.53,1.53,0,0,0-.46.37l-1.21-.27Z"/><path class="cls-7" d="M377.85,244.37h-1.44a2.84,2.84,0,0,1,.79-2,2.79,2.79,0,0,1,3.13-.42,2.22,2.22,0,0,1,.86.86,2.26,2.26,0,0,1,.33,1.14,3.41,3.41,0,0,1-.39,1.49,8.29,8.29,0,0,1-1.45,1.89l-.87.92h2.77v1.37H376.2v-.71l2.4-2.45a7,7,0,0,0,1.16-1.42,2.12,2.12,0,0,0,.29-1,1,1,0,0,0-.3-.74,1,1,0,0,0-.77-.3,1,1,0,0,0-.79.36A1.5,1.5,0,0,0,377.85,244.37Z"/><path class="cls-7" d="M385.16,241.67l1.26.63-1.36,2.64a2.27,2.27,0,0,1,1.68.71,2.42,2.42,0,0,1,.69,1.76,2.43,2.43,0,0,1-4.17,1.69,2.35,2.35,0,0,1-.7-1.68,2.57,2.57,0,0,1,.11-.72,7.17,7.17,0,0,1,.5-1.12Zm-.18,4.67a.89.89,0,0,0-.69.3,1,1,0,0,0-.28.75,1,1,0,0,0,.29.75.9.9,0,0,0,.68.31.94.94,0,0,0,.71-.3,1.11,1.11,0,0,0,0-1.51A1,1,0,0,0,385,246.34Z"/><path class="cls-7" d="M410.39,244.48h-1.45a2.89,2.89,0,0,1,.79-2,2.58,2.58,0,0,1,1.88-.72,2.54,2.54,0,0,1,1.25.3,2.18,2.18,0,0,1,.87.86,2.29,2.29,0,0,1,.32,1.14,3.41,3.41,0,0,1-.39,1.49,8.12,8.12,0,0,1-1.44,1.89l-.87.91h2.77v1.37h-5.39V249l2.41-2.45a7.35,7.35,0,0,0,1.16-1.41,2.1,2.1,0,0,0,.28-1,1.05,1.05,0,0,0-.29-.75,1.08,1.08,0,0,0-.77-.29,1.06,1.06,0,0,0-.8.35A1.47,1.47,0,0,0,410.39,244.48Z"/><path class="cls-7" d="M415.21,242h5.1v.78l-3.51,7.19-1.25-.61,2.92-6h-3.26Z"/><path class="cls-7" d="M441.39,244.73H440a2.84,2.84,0,0,1,.79-2,2.79,2.79,0,0,1,3.13-.42,2.16,2.16,0,0,1,.86.86,2.23,2.23,0,0,1,.33,1.14,3.41,3.41,0,0,1-.39,1.49,8.73,8.73,0,0,1-1.44,1.89l-.88.92h2.77V250h-5.38v-.7l2.4-2.45a6.64,6.64,0,0,0,1.16-1.42,2.12,2.12,0,0,0,.29-1,1,1,0,0,0-.3-.74,1,1,0,0,0-.77-.3,1,1,0,0,0-.79.36A1.48,1.48,0,0,0,441.39,244.73Z"/><path class="cls-7" d="M450.19,245.78a2.52,2.52,0,0,1,.82.87,2.39,2.39,0,0,1,.28,1.15A2.42,2.42,0,0,1,451,249a2.25,2.25,0,0,1-.9.86,3.22,3.22,0,0,1-1.45.29,3.3,3.3,0,0,1-1.49-.28,2.06,2.06,0,0,1-.89-.84,2.45,2.45,0,0,1-.33-1.27,2.35,2.35,0,0,1,.27-1.12,2.69,2.69,0,0,1,.8-.9,2.46,2.46,0,0,1-.53-.75,2,2,0,0,1-.18-.84,2.1,2.1,0,0,1,.3-1.11,2,2,0,0,1,.82-.77,2.53,2.53,0,0,1,1.22-.28,2.47,2.47,0,0,1,1.2.28,2.12,2.12,0,0,1,.81.79,2.18,2.18,0,0,1,.3,1.11,2,2,0,0,1-.15.77A3.16,3.16,0,0,1,450.19,245.78Zm-1.58.79a1.28,1.28,0,0,0-.9.33,1,1,0,0,0-.36.77,1.07,1.07,0,0,0,.34.8,1.46,1.46,0,0,0,1.8,0,1,1,0,0,0,.34-.79,1,1,0,0,0-.35-.8A1.21,1.21,0,0,0,448.61,246.57Zm-.06-3.11a.81.81,0,0,0-.6.23.84.84,0,0,0-.23.62.85.85,0,0,0,.25.63.83.83,0,0,0,.61.25.79.79,0,0,0,.61-.25.88.88,0,0,0,.24-.64.82.82,0,0,0-.24-.61A.85.85,0,0,0,448.55,243.46Z"/><path class="cls-4" d="M141.28,245.4c.41.31,27.6,8,34.46,13.44s-19.86,2.85-19.86,2.85L143.74,253l-3.3-7.4"/><path class="cls-5" d="M213.18,169.74l2.66,8.67c.47,1.53,2.89.88,2.41-.67l-2.66-8.66c-.48-1.54-2.89-.88-2.41.66Z"/><path class="cls-11" d="M176.89,262.68a42,42,0,0,1,9.78,11.8c.47.85,1.77.09,1.3-.75a43.15,43.15,0,0,0-10-12.11c-.73-.62-1.8.44-1.06,1.06Z"/><path class="cls-11" d="M206.1,310a262.65,262.65,0,0,0,24-22.49c.66-.7-.4-1.76-1.06-1.06A262.65,262.65,0,0,1,205,309c-.75.61.32,1.67,1.06,1.06Z"/><path class="cls-11" d="M246.4,271.58c2.54-4.1,7.16-5.7,11.47-7.14.91-.31.52-1.75-.4-1.45-4.72,1.58-9.59,3.35-12.37,7.83-.51.82.79,1.58,1.3.76Z"/><path class="cls-11" d="M171.77,305.79q7.17,10.35,14.85,20.34,3.18,4.14,6.46,8.22c1.87,2.32,3.32,4.66,6.23,5.58.92.29,1.32-1.16.4-1.45-3.21-1-5.33-4.89-7.31-7.38q-3.72-4.67-7.32-9.43-6.18-8.19-12-16.64c-.54-.79-1.85,0-1.29.76Z"/><path class="cls-11" d="M114.62,232.41a73.91,73.91,0,0,1-1.06,10.39c-.16.95,1.29,1.35,1.45.4a76.48,76.48,0,0,0,1.11-10.79.75.75,0,0,0-1.5,0Z"/><path class="cls-6" d="M236.3,41A52.68,52.68,0,0,0,190.84,131a1.84,1.84,0,0,0,1.23,1.11l.05,0-11.05,26.6a1.62,1.62,0,0,0,2.53,1.79l25.32-18.33A52.72,52.72,0,1,0,236.3,41Z"/><circle class="cls-12" cx="227.51" cy="92.72" r="33.7" transform="translate(-15.35 55.59) rotate(-13.48)"/><circle class="cls-7" cx="227.51" cy="92.72" r="30.92" transform="translate(-9.23 158.38) rotate(-37.67)"/><path class="cls-12" d="M230.71,72.89c.24,3.7.33,7.39.42,11.09s.1,7.39.07,11.08v.49h-.49c-2.77,0-5.54,0-8.31-.14-1.39,0-2.77-.07-4.16-.13s-2.77-.12-4.15-.22c1.38-.09,2.77-.14,4.15-.21s2.77-.09,4.16-.13c2.77-.09,5.54-.13,8.31-.14l-.48.48c0-3.69,0-7.39.06-11.08S230.48,76.59,230.71,72.89Z"/><polygon class="cls-5" points="164.03 77.66 164.38 74.83 164.85 74.94 164.03 77.66"/><path class="cls-5" d="M165.65,69a49.57,49.57,0,0,1,2-5.64l1.71.81c-.92,1.7-1.72,3.46-2.47,5.25Z"/><path class="cls-5" d="M170.27,58a46.19,46.19,0,0,1,3.27-5l2.1,1.61q-1.78,2.25-3.38,4.65Z"/><polygon class="cls-5" points="177.36 48.31 181.69 44.11 183.63 46.35 179.45 50.29 177.36 48.31"/><polygon class="cls-5" points="186.42 40.39 191.49 37.16 192.95 39.65 188.14 42.8 186.42 40.39"/><path class="cls-5" d="M196.84,34.45c1.85-.76,3.71-1.5,5.56-2.22l.84,2.18q-2.61,1.26-5.25,2.44Z"/><path class="cls-5" d="M208.11,30.51c1.95-.41,3.88-.84,5.82-1.22l.29,1.25c-1.86.63-3.71,1.19-5.56,1.78Z"/><polygon class="cls-5" points="219.83 28.55 222.68 28.38 219.91 29.04 219.83 28.55"/><polygon class="cls-5" points="429.03 390.07 427.6 392.52 427.32 392.33 429.03 390.07"/><polygon class="cls-5" points="424.64 397.22 421.49 401.79 420.42 400.95 423.92 396.69 424.64 397.22"/><polygon class="cls-5" points="418.15 406.24 414.65 410.57 413.1 409.19 416.81 405.12 418.15 406.24"/><polygon class="cls-5" points="410.99 414.76 407.19 418.83 405.38 417.01 409.29 413.16 410.99 414.76"/><polygon class="cls-5" points="403.23 422.76 399.16 426.57 397.26 424.41 401.37 420.77 403.23 422.76"/><polygon class="cls-5" points="394.94 430.21 390.61 433.73 388.78 431.38 393.07 427.96 394.94 430.21"/><polygon class="cls-5" points="386.16 437.09 381.59 440.29 379.94 437.88 384.4 434.69 386.16 437.09"/><polygon class="cls-5" points="376.93 443.35 372.14 446.22 370.75 443.88 375.38 440.93 376.93 443.35"/><polygon class="cls-5" points="367.27 448.93 362.3 451.44 361.23 449.36 366.03 446.68 367.27 448.93"/><polygon class="cls-5" points="357.23 453.77 352.08 455.88 351.4 454.27 356.35 451.88 357.23 453.77"/><polygon class="cls-5" points="346.85 457.78 341.55 459.45 341.26 458.59 346.36 456.51 346.85 457.78"/><polygon class="cls-5" points="336.17 460.85 333.4 461.46 336.08 460.53 336.17 460.85"/><g class="cls-13"><rect class="cls-4" x="269.7" y="328.22" width="148.59" height="5.9" transform="translate(-131.18 378.22) rotate(-49.57)"/><rect class="cls-4" x="283.82" y="334.94" width="148.59" height="5.9" transform="translate(-131.33 391.33) rotate(-49.57)"/><rect class="cls-4" x="297.94" y="341.65" width="148.59" height="5.9" transform="translate(-131.48 404.44) rotate(-49.57)"/><rect class="cls-4" x="312.06" y="348.37" width="148.59" height="5.9" transform="translate(-131.63 417.54) rotate(-49.57)"/><rect class="cls-4" x="326.18" y="355.08" width="148.59" height="5.9" transform="translate(-131.78 430.65) rotate(-49.57)"/><rect class="cls-4" x="340.3" y="361.8" width="148.59" height="5.9" transform="translate(-131.93 443.76) rotate(-49.57)"/><rect class="cls-4" x="354.42" y="368.51" width="148.59" height="5.9" transform="translate(-132.07 456.87) rotate(-49.57)"/><rect class="cls-4" x="368.54" y="375.23" width="148.59" height="5.9" transform="translate(-132.22 469.97) rotate(-49.57)"/></g><path class="cls-5" d="M420.76,349.86c-15.24.08-27.52,13.43-27.44,29.81s27.88,59.74,27.88,59.74,27.37-43.62,27.29-60S436,349.79,420.76,349.86Zm.21,43.45a15.1,15.1,0,1,1,14.76-15.17A15,15,0,0,1,421,393.31Z"/><path class="cls-4" d="M366.55,387.45a20,20,0,0,1,.36,27.9,20.16,20.16,0,0,1-14.12,6.22,20.36,20.36,0,0,1-7.82-1.45,20,20,0,0,1-11.06-11.07,19.93,19.93,0,0,1,4.75-21.95,20,20,0,0,1,27.89.35Zm0,0a19.48,19.48,0,0,0-6.33-4.19,19.05,19.05,0,1,0,10.51,10.53A19.44,19.44,0,0,0,366.55,387.45Z"/><g class="cls-14"><path class="cls-15" d="M167.47,308.64c-1-17.94-1.89-37.05,7.37-53.18,4.31-7.51,9.92-14.18,13.69-22a73.53,73.53,0,0,0,6.72-24.1c.06-.64-.94-.63-1,0a71.4,71.4,0,0,1-7.95,26.28c-4.17,7.77-10,14.5-14,22.4-7.77,15.58-6.79,33.74-5.86,50.62,0,.64,1,.64,1,0Z"/><path class="cls-5" d="M192.82,219.22c-1.45-7.17-2.75-15.26,1-21.26a6.13,6.13,0,0,1,2.93-2.71,2.94,2.94,0,0,1,3.51,1.15,5,5,0,0,1,.51,2.69c-.13,7.53-4.23,14.09-8.18,20.16"/><path class="cls-5" d="M189.17,229.33a25.61,25.61,0,0,1,8.69-7.05c1.78-.88,3.79-1.54,5.69-1a4.33,4.33,0,0,1,3,4.83c-.5,2-2.52,2.88-4.32,3.41a49.42,49.42,0,0,1-13.44,2"/><path class="cls-5" d="M184.47,239.23a28.42,28.42,0,0,0-1.66-17.36c-.67-1.75-1.55-3.54-3.05-4.47s-3.76-.56-4.4,1.17a5.6,5.6,0,0,0,.42,3.77c2.15,5.93,5.33,13.15,8.09,18.78"/><path class="cls-5" d="M177,250.67A17.47,17.47,0,0,1,192.43,244a6.5,6.5,0,0,1,4.21,1.76c1.09,1.18,1.45,3.31.41,4.51a4.13,4.13,0,0,1-2.76,1.1,56.39,56.39,0,0,1-17-.48"/><path class="cls-5" d="M174.25,254.56a36.19,36.19,0,0,0-4.18-19.2c-.31-.58-.7-1.19-1.29-1.34-1.28-.33-1.93,1.59-1.93,3,0,6.54,3.29,14.55,6.88,19.83"/><path class="cls-5" d="M170.81,264.25a10,10,0,0,1,10.88-2c1.19.52,2.47,1.66,2.2,3a2.92,2.92,0,0,1-2.1,1.91c-3.42,1.28-8.56.21-12.11-.72"/><path class="cls-16" d="M201.82,491.81A165.32,165.32,0,0,1,270.27,484,265.34,265.34,0,0,0,213,478.76a353.44,353.44,0,0,1,91-24.38,427.24,427.24,0,0,0-78,7.93,940.36,940.36,0,0,1,92.39-43.81,327.07,327.07,0,0,0-88.94,27.72,402.66,402.66,0,0,1,97-62.17c-39.05,7.25-75.87,22.54-107,44.45l-23.47-5.43-24.2,57.3Z"/><path class="cls-17" d="M139,452.1c7.49-5.27,17.12-8.77,26.38-5.93,10.21,3.14,20,13.6,29.5,10,4.78-1.82,7.58-7.44,6.3-12.66A12.92,12.92,0,0,0,189.44,434c2.06-6.9,11-8.45,18.28-7.56s15.28,3,21.5-.39,6.13-15.71-1.19-16.65c-2.74-.36-5.84,1-8-1.23a4.17,4.17,0,0,1-.37-5.18c1.8-2.68,5.08-3.05,8.13-3.32L251,397.56c6.09-.56,12.68-1.34,16.76-5.67S271,378.41,265,376.41c-4.29-1.43-10.2.77-12.49-3.21-2.08-3.61,2-7.18,5.64-8.55,9.24-3.46,19.46-4.36,28.64-8,9.89-3.89,19-12.27,18-23.64a12.5,12.5,0,0,0-3.3-7.61c-5-5.25-12.21-3.25-17.83-.67a113.53,113.53,0,0,0-28.51,18.78c-3.6,3.26-9.51-1.14-7.68-5.71l.05-.13c1.77-4.39,1.75-11.39-3.26-12.34a5.48,5.48,0,0,0-3.92.82c-13,8.15-6.92,28-11.58,42.36-1.2,3.72-3.35,7.27-6.82,9s-8.41.95-10.82-2.41c-2.71-3.77-3.94-11-8-9.94-1.73.44-12.25-9.36-12.27-7.54-.09,10.69,7.26,32.64,3.26,42.23-2.3,5.52-5.85,11.23-11.76,12.36s-13.26-5.83-10.28-11c-2.2-2.07-5.86-.91-7.38,1.46s-1.56,5.44-1.83,8.31a43.84,43.84,0,0,1-20.27,33.09"/><path class="cls-18" d="M165.51,331.27c3.5-13.19,7.36-27,16.43-36.77,4.87-5.22,10.94-8.88,16.19-13.64A58.13,58.13,0,0,0,212,261.38"/><path class="cls-18" d="M208.05,268.54c.69-5.91,1.73-12.51,6.11-16.22a5,5,0,0,1,3-1.36,2.42,2.42,0,0,1,2.44,1.78,4.23,4.23,0,0,1-.28,2.21c-2,5.8-6.84,9.85-11.42,13.55"/><path class="cls-18" d="M202.68,275.45a21,21,0,0,1,8.51-3.27,6.47,6.47,0,0,1,4.65.68,3.53,3.53,0,0,1,1.13,4.51c-.88,1.4-2.68,1.59-4.21,1.55a40.34,40.34,0,0,1-10.91-1.83"/><path class="cls-18" d="M196.55,281.93a23.17,23.17,0,0,0,3.09-13.86,7.11,7.11,0,0,0-1.24-4.23,2.44,2.44,0,0,0-3.7-.2,4.57,4.57,0,0,0-.62,3,163.41,163.41,0,0,0,1.53,16.58"/><path class="cls-18" d="M187.92,288.92a14.25,14.25,0,0,1,13.61-1.33,5.31,5.31,0,0,1,2.81,2.43,2.93,2.93,0,0,1-.82,3.59,3.34,3.34,0,0,1-2.41.16A46.24,46.24,0,0,1,188,289.1"/><path class="cls-18" d="M184.78,291.22a29.47,29.47,0,0,0,1.59-15.91,2,2,0,0,0-.66-1.37c-.9-.57-1.89.75-2.26,1.86-1.68,5.05-1.11,12.09.34,17.09"/><path class="cls-18" d="M179.66,297.87A8.15,8.15,0,0,1,188.6,299c.79.7,1.5,1.91.94,2.9a2.36,2.36,0,0,1-2.1.95c-3,.12-6.68-2-9.2-3.61"/><polygon class="cls-19" points="56.91 294.23 53.41 334.24 45.38 356.26 56.91 375.31 72.11 340.01 79.45 304.88 56.91 294.23"/><path class="cls-12" d="M80.6,402.85A170.07,170.07,0,0,0,72.71,421c-3.3,9.24-9.93,59.51-9.93,59.51l136.65-.39,3.07-.15s-4.19-62.2-21.93-82.48L131,400.13l-5.66-21.8-3.26,22.28Z"/><path class="cls-4" d="M112.25,243.89s-32.39,9.79-40.78,14.68l8.86,49.17-11.19,96.7,53.33-.12,3.73-22.8,5.42,22.92h57.29l-20.27-97.17,7.1-47.43-34.47-13.08Z"/><path class="cls-19" d="M285.93,271.9a13.51,13.51,0,0,0-4.49-.56l-12-.14c-.18,0-.16-.25,0-.28l15.82-2.71c1-.37,1.42-1.27.41-1.63-3-.72-10-.71-16.08-.26-.14,0-7.47-1.14-7.36-1.23l8.25-4.55c2.8-3.42.15-4.9-.35-4.79-1.41.32-5.12,3.7-9.76,5.36-2.87,1-9.49,3.17-11.68,5.37-3,3-7.57,8.21-11.55,12-8,7.05-27,25.12-33.65,30.23-1.79,1.7-11.19-16.85-11.7-18-10.95,8.15-16.68,10.9-22.6,15.15,5,10.45,25.48,38.8,29.69,37.52s7.67-4.23,11-7.09c20.16-17.28,38.71-50.26,38.71-50.26v0c1.12-1.46,2.32-2.53,3.73-2.44,7.36.48,15.22,1.17,22.77.19,1.49-.2,3.9-.53,4.12-1.79.28-1.58-10.17-1.17-10.17-1.17-.17,0-.11-.27.06-.27a47.85,47.85,0,0,0,13.83-2.1c.89-.28,1.19-1,.58-1.56a4.69,4.69,0,0,0-2.84-.65c-4.57.06-11.6.3-11.64,0s5.47-1.09,13.23-2.09A7.62,7.62,0,0,0,286,273,.62.62,0,0,0,285.93,271.9Z"/><path class="cls-20" d="M239.79,272.43c-6,3.17-2.87,13.82.15,18,1.67,2.3,4.55,5.05,7.69,4.13,3.47-1,3.78-6.79,3.52-9.83-.16-1.87-2.94,0-2.78,1.93.08.88.34,3.36-.31,3.93a3.37,3.37,0,0,1-4.47-.38,13.8,13.8,0,0,1-3-4.73c-1-2.48-2.41-8.85.72-10.5,1.67-.89.17-3.42-1.5-2.54Z"/><path class="cls-20" d="M234.21,276.37c-4.85,6.46-2.86,16.11,2.68,21.61s11.31-1,10.16-8.54c-.12-.79-2.3,1.55-2.38,3.43-.18,4.24-4,5.57-7,1.42a19.31,19.31,0,0,1-2.56-5,12,12,0,0,1,1.66-11.41c1.13-1.51-1.43-3-2.55-1.47Z"/><path class="cls-12" d="M248.55,277.53C248,274,251.27,272,254.37,272a17.84,17.84,0,0,1,6.67,1.72c.75.29,1.08-.92.34-1.21-3.33-1.32-7.09-2.62-10.57-1a5.82,5.82,0,0,0-3.46,6.39c.13.79,1.33.45,1.2-.34Z"/><path class="cls-4" d="M141.28,246.4c-1-7-.83-14.69-.73-22.94.06-6.05-10.19-8.64-14.93-9.35-3.12-.46-6,2.19-7.47,5.59s-5.45-.45-5.05,3.5a110.41,110.41,0,0,1-.7,23.56,125.58,125.58,0,0,0-15.54,2.81c-.63.15-1.28.23-1.92.37,17,15.13,50.38,36.26,74.88,7.7C164.68,256.45,146.4,248.3,141.28,246.4Z"/><path class="cls-12" d="M191.21,190c.68-3.68,1.09-8.15-1.82-10.51,6.2-5.51,3.62-17.57-4.29-20.07,5.79-6.4.71-18.72-7.91-19.18,0-7.55-8.71-13.67-15.82-11.16a8.58,8.58,0,0,0-13.92-9.57A9.78,9.78,0,0,0,128.08,121c-4.75-6-15.75-5.1-19.4,1.67-3-2.49-7.9-1-10.34,2.08s-3.06,7.15-3.6,11c-.57-2.11-3.49-2.77-5.44-1.78s-8.58,5.73-4.83,11.52c1,1.58-3.82,1.36-6,5.35-1.23,2.2-2.49,4.52-2.57,7s1.45,5.28,3.94,5.69a9.63,9.63,0,0,0-.65,18.6c-2.55-.48-4.9,2.84-4.26,5.53.68,2.88,3.29,4.83,5.72,6.53a8.08,8.08,0,0,0,8.64,13.37c-1.06,2.9.8,6.07,3.49,7.71.06,5.63,7.54,12.07,12.27,9-1.12,2.55,6.49,6,9.2,6.69l-2.71-12.66a1.18,1.18,0,0,1,2.27-.09l26.68,8.1c.34.07-.14-.23,0,0l6.06-11a1.18,1.18,0,0,1,2.3.49l-8,14.29c1.4.23,4.2,1.78,7.34,2,3.61.23,7.92-1.4,9.21-5.95,6,3.84,15.34-2.53,13.94-9.54,7.15.94,12.45-9.6,7.42-14.77,2.87,1.86,6.94.4,9.07-2.28S190.59,193.4,191.21,190Z"/><path class="cls-21" d="M121.08,149.51a28.77,28.77,0,0,0-10,3.49c-6.85,3.95-11.73,10.51-14.86,18.24a44.36,44.36,0,0,0-2.12,6.89c0,.1-.05.21-.07.32-4.48,20.86,15.36,56.32,34.83,53.91,12.79-1.58,31.13-22.13,28.64-42.24C155,169.39,141.82,146.2,121.08,149.51Z"/><path class="cls-4" d="M99.22,199.21c.44,20.57,15.78,36.54,29.14,35.92s28-18,27.57-38.56-16-33.73-29.37-33.11S98.79,178.64,99.22,199.21Z"/><path class="cls-22" d="M99.22,199.21c.44,20.57,15.78,36.54,29.14,35.92s28-18,27.57-38.56-16-33.73-29.37-33.11S98.79,178.64,99.22,199.21Z"/><path class="cls-12" d="M138.61,195.24c0,1.9,1,3.36,2.24,3.26s2.32-1.71,2.35-3.6-1-3.35-2.24-3.26S138.64,193.35,138.61,195.24Z"/><path class="cls-12" d="M112.19,195.66c.32,1.87,1.57,3.12,2.8,2.79s2-2.1,1.64-4-1.57-3.12-2.8-2.79S111.87,193.8,112.19,195.66Z"/><path class="cls-12" d="M138.31,186.92a8.13,8.13,0,0,1,10-1.75c1.14.59,2.15-1.14,1-1.73a10.14,10.14,0,0,0-12.37,2.07c-.88.93.53,2.35,1.41,1.41Z"/><path class="cls-12" d="M119.47,185.51a10.15,10.15,0,0,0-12.38-2.07c-1.14.59-.13,2.32,1,1.73a8.13,8.13,0,0,1,10,1.75c.88.94,2.29-.48,1.41-1.41Z"/><path class="cls-12" d="M123.27,193a15.4,15.4,0,0,1,.66,10.49.63.63,0,0,0,1.21.33,16.79,16.79,0,0,0-.79-11.45c-.32-.73-1.4-.1-1.08.63Z"/><path class="cls-12" d="M122.85,209a12.91,12.91,0,0,0,7.63.4.63.63,0,0,0-.34-1.21,11.66,11.66,0,0,1-7-.4c-.75-.27-1.08.93-.33,1.21Z"/><path class="cls-4" d="M117,216.72c6.12,2.87,15.12,2.75,21-.71a11.91,11.91,0,0,1-10.28,7.45A11.77,11.77,0,0,1,117,216.72"/><path class="cls-12" d="M116.7,217.26a25,25,0,0,0,21.61-.71l-.86-.85c-4.13,8.79-15.18,9.34-19.89.7-.39-.7-1.47-.07-1.08.63,5.13,9.4,17.5,9,22-.7a.63.63,0,0,0-.85-.86,23.64,23.64,0,0,1-20.35.71c-.73-.32-1.37.76-.63,1.08Z"/><path class="cls-12" d="M123.42,227.05a8,8,0,0,0,8.13-.08.63.63,0,0,0-.63-1.08,6.69,6.69,0,0,1-6.87.08.63.63,0,0,0-.63,1.08Z"/><path class="cls-12" d="M120.26,145.82S97.49,147,90.81,173.18c-2.34,9.18-2.87,20.72-2.59,31.83.1,3.58,4.4,5.07,6.36,2.22,8.29-12,23.48-20.25,32.42-32.61,2.17-3,3.86-7.51,5.67-11.93,3.79,14.51,16.44,20.68,28.07,28.4,3.7,2.07,5.07,7.45,6.92,10.95C163.57,176.82,153.08,142.22,120.26,145.82Z"/><path class="cls-23" d="M120.26,145.81c-10.64.47-17.77,4-22.52,8.78L72.4,123.1s-3.87,13.36-9,14.69-11.26-4-9.49,2.82a138.9,138.9,0,0,0,5.53,15.72l32.76,6.33-.12.25L53.33,173.6A10.71,10.71,0,0,1,58,181.87c.39,5.74-3,13.91-3,13.91l6.73,6.28,27.07-26.94A50,50,0,0,0,89,187.18s32.41-65.93,73.45,2.11C162.4,189.29,163.86,143.9,120.26,145.81Z"/><path class="cls-5" d="M71,126.44c5.25,4.25,8.5,10,12.37,15.43,3.55,5,8.65,8.7,11.94,13.83.69,1.08,2.42.08,1.72-1-3.58-5.58-9-9.62-12.83-15.11-3.6-5.21-6.8-10.52-11.79-14.56-1-.8-2.41.61-1.41,1.42Z"/><path class="cls-5" d="M91.61,164.17c-6.37,1.72-12.37,4.47-18.69,6.26-5.38,1.52-11,1.2-16.08,3.65-1.16.56-.14,2.29,1,1.73,5.43-2.6,11.69-2.13,17.37-4s11.14-4.14,16.92-5.7a1,1,0,0,0-.53-1.93Z"/><path class="cls-5" d="M97.83,159.09a30.74,30.74,0,0,1,23.71-10.2c9.34.3,22.75,2,26.75,11.94.47,1.18,2.41.66,1.92-.53-4.05-10.09-15.23-12-24.92-13.12-11-1.22-21.32,2.32-28.87,10.5-.88.94.53,2.36,1.41,1.41Z"/><path class="cls-5" d="M127.37,126.22c-6.35-3.07-13.91-2.77-17.73,3.86l1.57-.2c-3.92-3.13-9.35-4.58-12.06.77a20.48,20.48,0,0,0-1.09,3.76c-.27.94.09.87-.62,1.9-1.15,1.64-.53.45-2.08,1.05-2.86,1.1-4.7,1.71-6.42,4.46-.68,1.09,1,2.09,1.73,1,2.56-4.09,6.65-1.62,8.82-4.76.42-.61.52-3.38.59-3.73,1-4.84,5.85-6.13,9.72-3a1,1,0,0,0,1.57-.2c3.27-5.68,9.65-5.72,15-3.15,1.15.56,2.17-1.16,1-1.72Z"/><path class="cls-5" d="M131.93,126a6.16,6.16,0,0,1,4.69-5.48,5,5,0,0,1,5.69,3.9c.26,1.26,2.19.73,1.93-.53a7,7,0,0,0-7.9-5.37c-3.68.62-6,4-6.41,7.48-.16,1.28,1.85,1.27,2,0Z"/><path class="cls-5" d="M148.61,126.25a4.82,4.82,0,0,1,7.84,3.27c.19,1.27,2.11.73,1.93-.53a6.78,6.78,0,0,0-10.77-4.47c-1,.76,0,2.49,1,1.73Z"/><path class="cls-5" d="M78.53,186.06a5.43,5.43,0,0,0,.61,4.38c.27.4,1.59,1.26,1.74,1.61.59,1.34-.46,2.87-.85,4.06-1.31,4-1,8.28,2.77,10.66,1.1.68,2.1-1.05,1-1.73-2.85-1.78-2.86-4.82-2.08-7.72.4-1.5,2-3.33,1.76-4.91-.39-2.42-3.78-2.38-3-5.81.28-1.26-1.65-1.8-1.92-.54Z"/><path class="cls-19" d="M98,192.49A10,10,0,0,0,96.39,189,3.42,3.42,0,0,0,93,187.67a3.28,3.28,0,0,0-2.14,2.12,8.08,8.08,0,0,0-.34,3.1,27.53,27.53,0,0,0,2.76,10.82,6.66,6.66,0,0,0,1.88,2.55,2.67,2.67,0,0,0,3,.23A4.15,4.15,0,0,0,99.35,205"/><path class="cls-19" d="M155.54,189.69a10.3,10.3,0,0,1,1.55-3.46,3.44,3.44,0,0,1,3.35-1.36,3.3,3.3,0,0,1,2.14,2.12,7.72,7.72,0,0,1,.34,3.1,27.36,27.36,0,0,1-2.76,10.83,6.56,6.56,0,0,1-1.88,2.55,2.71,2.71,0,0,1-3,.23,4.05,4.05,0,0,1-1.14-1.5"/><circle class="cls-7" cx="96.4" cy="204.63" r="2.38"/><circle class="cls-7" cx="155.67" cy="203.45" r="2.38"/><path class="cls-7" d="M141,248.81c1.6,17.63-8.93,33.43-19.17,44.95-1.53,1.72-1.66,4.38-1.15,6.65l.19.84a5,5,0,0,0,4.76,3.75l.94.06c2.14.12,3.83-1.72,4.86-3.61,4.76-8.73,10.07-16.61,12.78-26.64,2.52-9.29,2-17.35-1.22-26.42a1,1,0,0,0-2,.42Z"/><path class="cls-7" d="M106.14,245.17c-6.65,8.92-5.64,17.22-3.12,27.84,2.92,12.36,7,26.53,15.31,35.65,3.68,4,8.33-1.58,6.22-6.19-2.21-4.83-5.33-9.13-7.67-13.9a140.87,140.87,0,0,1-6.7-15c-3.18-9.08-5.63-17.09-1.1-26.06,1-2-1.63-4.11-2.94-2.36Z"/><path class="cls-7" d="M141.27,246.76c2.77,21.6-3.05,44.85-18.42,57.6-5.12,4.23.35,13.85,5.5,9.58,18.27-15.15,25.05-43,17.26-68.1-.82-2.64-6.24-1.5-4.34.92Z"/><path class="cls-7" d="M139.16,383.52a8.28,8.28,0,0,0,.82,2.07,67.92,67.92,0,0,1,11.2-8.44c-4-11-8.65-21.78-11.93-33.09-3.43-11.82-7.51-23.38-10.84-35.23a1.31,1.31,0,0,0-2.56.54c1.68,12.32,3.06,24.56,5.71,36.69C134.29,358.53,136,371.15,139.16,383.52Z"/><path class="cls-7" d="M125.62,352.06a8.55,8.55,0,0,0,1.49-2.94,70.87,70.87,0,0,0,2.27-22.9c-.41-7.52-2.62-14.74-4.7-21.86-1-3.35-5.31-2.37-5.19,1.1.46,13.53-2.66,27.23-4.63,40.46a10.43,10.43,0,0,0-.1,2A46.49,46.49,0,0,1,125.62,352.06Z"/><path class="cls-7" d="M110.63,243c-9.43,3-5.66,15.26-4,22.8a106.23,106.23,0,0,0,5.74,17.8c2.32,5.63,4.8,12.32,8.82,16.62,4.31,4.62,12.47-.76,9.88-7.46-1.9-4.89-5.11-9-7.57-13.6-2.31-4.27-4.29-8.71-6.2-13.22a72.44,72.44,0,0,1-4.58-13.29c-.81-3.89,0-4.09-.07-8.05a1.61,1.61,0,0,0-2-1.6Z"/><path class="cls-7" d="M141.08,358.16a3.52,3.52,0,0,0,1.2.25c1.67-5.48,3.28-11,4.44-16.66-.34-.75-.7-1.52-1.06-2.33-2-4.45-4-8.86-5.82-13.45-1.67-4.34-3.16-8.79-5-13.05-2-4.75-4.55-9.1-6.35-14a1.6,1.6,0,0,0-3.13.66c.33,5,0,10,.53,14.94a124.69,124.69,0,0,0,3,15.6c1.16,4.92,2.3,9.86,3.64,14.73.66,2.41,1.34,4.88,2.22,7.2C136,355.51,138.11,356.94,141.08,358.16Z"/><path class="cls-24" d="M134.94,275.17a82.27,82.27,0,0,1-5.1,8.35,6,6,0,0,1,.61.13c2.46-1.09,5.52-.86,7.28,1.5l1.56,2c.94-1.86,1.83-3.76,2.63-5.73C139.56,279.43,137.22,277.34,134.94,275.17Z"/><path class="cls-24" d="M145.86,264.7a42.28,42.28,0,0,0-.37-8.85l-.15-.14c-1.23-1.18-2.51-2.43-3.85-3.58a43,43,0,0,1-.85,7.51C142.35,261.38,144.09,263.06,145.86,264.7Z"/><path class="cls-24" d="M108.18,267.21a55.23,55.23,0,0,1-1.85-9.82,19.08,19.08,0,0,0-4.91,7.48h0c.35,2.4.83,4.78,1.36,7.1Z"/><path class="cls-24" d="M118.33,291.3c-.5-.9-1-1.81-1.45-2.73-1-2-1.94-3.95-2.89-5.95l-6.65,5.84a80.31,80.31,0,0,0,4,9.76C113.67,295.88,116,293.55,118.33,291.3Z"/><path class="cls-24" d="M150.1,268.5a64.45,64.45,0,0,0-.1-8.45c-1.56-1.42-3.11-2.86-4.66-4.34-.6-.57-1.21-1.17-1.84-1.76a70.93,70.93,0,0,1-.28,8.25C145.47,264.38,147.77,266.47,150.1,268.5Z"/><path class="cls-24" d="M122.09,312.85c1.44,2.06,3.88,3.06,6.26,1.09a55.75,55.75,0,0,0,4.69-4.41A29.69,29.69,0,0,1,122.09,312.85Z"/><path class="cls-24" d="M137.73,285.15c2.05,2.72,4.15,5.39,6.36,7.91a65,65,0,0,0,2.87-7.37q-3.77-3.09-7.43-6.32-1,2.75-2.15,5.37A4.71,4.71,0,0,1,137.73,285.15Z"/><path class="cls-24" d="M131.12,318q-1-3.33-2-6.67a29.12,29.12,0,0,1-2.9.84q.47,3.54.94,7.06A31.33,31.33,0,0,0,131.12,318Z"/><path class="cls-24" d="M137.72,339q-.93-3.06-1.89-6.11a49.49,49.49,0,0,1-6.4,1.91q.6,3.68,1.32,7.35A59.87,59.87,0,0,0,137.72,339Z"/><path class="cls-24" d="M137.8,377.76q.64,2.89,1.36,5.76a8.28,8.28,0,0,0,.82,2.07,67.92,67.92,0,0,1,11.2-8.44c-1.16-3.19-2.38-6.37-3.59-9.54A62.35,62.35,0,0,1,137.8,377.76Z"/><path class="cls-24" d="M128.44,318.84c-.43-2.31-1-4.6-1.59-6.88a41.16,41.16,0,0,1-7.46,1.15c-.13,2.42-.35,4.85-.62,7.27A48.52,48.52,0,0,0,128.44,318.84Z"/><path class="cls-24" d="M128.51,342.94a71.42,71.42,0,0,0,.88-8.16,96,96,0,0,1-13,1.8c-.53,3.13-1.05,6.25-1.51,9.34,0,.23,0,.44-.06.66A109.34,109.34,0,0,0,128.51,342.94Z"/><path class="cls-24" d="M107.17,268.1q4.06-3.57,8.07-7.22a54,54,0,0,1-2.51-8.2c0-.15,0-.3-.08-.45L111,253.45a40.14,40.14,0,0,0-5.93,5.23c.5,2.71,1.11,5.22,1.54,7.15C106.81,266.6,107,267.35,107.17,268.1Z"/><path class="cls-24" d="M125.3,285a8.12,8.12,0,0,1,1.17-.8c-1-1.65-2-3.29-3-5-.62-1.14-1.21-2.3-1.78-3.46-3.06,2.77-6.14,5.49-9.23,8.21,1.21,2.94,2.47,6.15,4,9.14C119.33,290.27,122.25,287.54,125.3,285Z"/><path class="cls-24" d="M126.57,319.31a25.42,25.42,0,0,0,9.3-3.9c-.33-.83-.66-1.67-1-2.49-.51-1.2-1.06-2.36-1.61-3.52a26.36,26.36,0,0,1-7.51,2.83c0,.77.1,1.55.17,2.31Q126.17,316.94,126.57,319.31Z"/><path class="cls-24" d="M143.74,335.15c-.75-1.67-1.49-3.34-2.21-5a40.73,40.73,0,0,1-11.6,4.53c.56,2.38,1.15,4.74,1.75,7.1A52.09,52.09,0,0,0,143.74,335.15Z"/><path class="cls-5" d="M136.4,281a18.44,18.44,0,0,0-2.35-1.4,5.36,5.36,0,0,1-1.16-.78c-.35.58-.7,1.17-1.06,1.74a32.24,32.24,0,0,1,4.24,2.21A17.26,17.26,0,0,0,136.4,281Z"/><path class="cls-5" d="M140.45,284.32c-.64-.63-1.3-1.22-2-1.79-.1.52-.22,1-.35,1.53q1,.69,2,1.41C140.2,285.08,140.32,284.7,140.45,284.32Z"/><path class="cls-5" d="M143.87,256.63c-.85-.67-1.7-1.37-2.51-2.12q-.11,1.32-.3,2.64a8.47,8.47,0,0,1,2.18.49C143.44,257.3,143.65,257,143.87,256.63Z"/><path class="cls-5" d="M101.68,266.48c.14.79.28,1.59.44,2.38,1.79-1.52,3.55-3.09,5.31-4.65-.11-.5-.22-1-.32-1.52A62,62,0,0,1,101.68,266.48Z"/><path class="cls-5" d="M115,289.15q.75-.73,1.47-1.5c-.23-.49-.47-1-.71-1.47-.5.44-1,.86-1.52,1.27C114.45,288,114.7,288.59,115,289.15Z"/><path class="cls-5" d="M112.27,288.94c-1.26.92-2.54,1.78-3.82,2.56.31.79.62,1.58,1,2.36a38.6,38.6,0,0,0,3.75-3C112.85,290.23,112.55,289.59,112.27,288.94Z"/><path class="cls-5" d="M145.85,258.09l-.38.58a36.61,36.61,0,0,1,4.62,2.92c0-.25,0-.51,0-.76Q147.92,259.52,145.85,258.09Z"/><path class="cls-5" d="M140.44,284.32c-.64-.62-1.29-1.23-2-1.8-.1.52-.22,1-.35,1.55q1,.68,2,1.41C140.19,285.09,140.31,284.7,140.44,284.32Z"/><path class="cls-5" d="M142.32,286.25c-.08.26-.16.52-.23.78q1.71,1.38,3.38,2.8l.06-.15C144.45,288.53,143.39,287.37,142.32,286.25Z"/><path class="cls-5" d="M129.27,314.65c-.86.28-1.73.54-2.62.74.07.46.13.92.19,1.38.93-.21,1.85-.47,2.76-.77Z"/><path class="cls-5" d="M136,335.14a54.57,54.57,0,0,1-6.11,2.52l.24,1.32c2.1-.73,4.19-1.51,6.28-2.3C136.31,336.16,136.18,335.65,136,335.14Z"/><path class="cls-5" d="M142.86,377.26q-2.21,1.67-4.42,3.3c.24,1,.47,2,.72,3l.06.17a54.28,54.28,0,0,0,4.8-3.35C143.62,379.32,143.24,378.29,142.86,377.26Z"/><path class="cls-5" d="M149.35,372.24c-1.49,1.19-3,2.36-4.52,3.52q.54,1.49,1.11,3a29.35,29.35,0,0,0,4-4.33c.05-.07.11-.13.16-.19C149.84,373.55,149.6,372.89,149.35,372.24Z"/><path class="cls-5" d="M125.05,317.1c1-.16,2-.35,2.91-.59-.1-.45-.2-.91-.31-1.36-.86.23-1.73.41-2.61.57C125.05,316.18,125.05,316.64,125.05,317.1Z"/><path class="cls-5" d="M122.71,316.05c-1.18.13-2.37.22-3.55.24,0,.49-.09,1-.14,1.46q1.86-.12,3.69-.33Z"/><path class="cls-5" d="M121.33,339.69a34,34,0,0,1-5.52.28c-.19,1.15-.37,2.3-.55,3.44,2-.47,4-1,6-1.58C121.24,341.12,121.27,340.4,121.33,339.69Z"/><path class="cls-5" d="M123.75,339.31c-.08.61-.13,1.21-.15,1.82,1.81-.55,3.6-1.13,5.39-1.74.06-.49.12-1,.17-1.47A45.21,45.21,0,0,1,123.75,339.31Z"/><path class="cls-5" d="M111.3,260.88c1-.83,2-1.65,3.06-2.43-.22-.63-.42-1.26-.61-1.89-1,1.06-2,2.07-3,3Q111,260.24,111.3,260.88Z"/><path class="cls-5" d="M108.86,261.25c-.9.77-1.81,1.51-2.76,2.22.13.55.25,1.09.37,1.6,1-.87,2-1.73,2.93-2.58C109.23,262.08,109.05,261.66,108.86,261.25Z"/><path class="cls-5" d="M120.23,283.37c.28-.33.56-.65.84-1a7,7,0,0,1,3-2.18c-.19-.33-.39-.67-.57-1s-.48-.93-.72-1.39a31.7,31.7,0,0,1-3.19,4.43Z"/><path class="cls-5" d="M115,289.14c1.24-1.22,2.43-2.5,3.59-3.82l-.67-1.2a41.26,41.26,0,0,1-3.68,3.33C114.45,288,114.7,288.59,115,289.14Z"/><path class="cls-5" d="M131.82,315.18a22.22,22.22,0,0,0,3.24-1.75c-.07-.17-.13-.35-.2-.51l-.31-.69a24.69,24.69,0,0,1-3.06,1.59Z"/><path class="cls-5" d="M129.27,314.66a27.67,27.67,0,0,1-3.24.88l.18,1.36a28.72,28.72,0,0,0,3.4-.87C129.49,315.57,129.38,315.12,129.27,314.66Z"/><path class="cls-5" d="M138.65,335.82l4.59-1.81-1-2.26c-1.33.81-2.69,1.57-4.06,2.3C138.35,334.64,138.5,335.23,138.65,335.82Z"/><path class="cls-5" d="M136,335.14a56.78,56.78,0,0,1-5.42,2.3c.1.42.21.84.31,1.27,1.85-.65,3.68-1.34,5.51-2C136.31,336.16,136.18,335.65,136,335.14Z"/><path class="cls-4" d="M173.61,258.05l28.14,25.86s-22.37,21.27-36.18,23.83C165.57,307.74,163.83,256.83,173.61,258.05Z"/><path class="cls-4" d="M72.29,258.05,44.15,283.91s22.37,21.27,36.18,23.83C80.33,307.74,82.07,256.83,72.29,258.05Z"/><path class="cls-12" d="M140.14,230.85q.48,6.75.59,13.51a.63.63,0,0,0,1.25,0q-.1-6.77-.59-13.51c-.06-.8-1.31-.81-1.25,0Z"/><path class="cls-12" d="M112.84,229.69q-.77,6.63-1.46,13.26c-.08.8,1.17.79,1.25,0q.69-6.63,1.46-13.26c.09-.8-1.16-.79-1.25,0Z"/><path class="cls-5" d="M128.87,162.29C122.74,175.61,112,185.42,101.16,195c-.73.65.34,1.7,1.06,1.06,10.9-9.63,21.76-19.55,27.95-33,.4-.88-.89-1.64-1.3-.76Z"/></g><path class="cls-12" d="M44.13,284.66A155,155,0,0,0,63,299.72a73.32,73.32,0,0,0,10.39,5.71c1.19.53,5.85,1.73,6,2.1.42,1-.43,3.75-.54,4.77L77.74,322l-6.17,54.83-1.66,14.66c-.08.8,1.17.79,1.25,0l9.48-84.15a.63.63,0,0,0-.46-.6C66.57,302.23,55.51,293.24,45,283.77c-.59-.54-1.48.35-.88.89Z"/><path class="cls-12" d="M201.14,283.85a141.92,141.92,0,0,1-32.31,22.37.65.65,0,0,0-.29.71L181.92,372c2.06,10,3.82,20.17,6.19,30.12.55,2.32.95,1.71-1.78,1.71H131.62a.63.63,0,0,0,0,1.25h57.29a.64.64,0,0,0,.62-.62c.45-3.77-1.38-8.33-2.13-12l-5.82-28.33-11.23-54.61a7.78,7.78,0,0,1-.51-2.47c.24-.85,5.12-2.63,6.45-3.39A142,142,0,0,0,202,284.74c.59-.55-.29-1.43-.88-.89Z"/><path class="cls-12" d="M44.8,284.61C53.07,276.6,61,267.77,70,260.5c5.2-4.23,11.69-6.22,18-8.3,5.77-1.91,11.54-3.78,17.31-5.67.76-.25.44-1.45-.33-1.2-6.08,2-12.16,3.95-18.23,6-5.57,1.86-11.4,3.66-16.17,7.19-9.66,7.15-18,16.88-26.58,25.24-.58.56.3,1.44.88.88Z"/><path class="cls-12" d="M105.46,246.48a5.6,5.6,0,0,1,2.83-1.76c.79-.29,2.54-1.32,3.33-1s1.08-.91.34-1.2a2.2,2.2,0,0,0-1.7.17c-.9.32-1.79.64-2.67,1a6.51,6.51,0,0,0-3.21,2.2c-.47.65.61,1.28,1.08.63Z"/><path class="cls-12" d="M141.78,245a4.47,4.47,0,0,1,4.36,1.93c.45.66,1.53,0,1.08-.63a5.75,5.75,0,0,0-5.77-2.5c-.8.12-.46,1.33.33,1.2Z"/><path class="cls-12" d="M146.05,247.35c10.67,4,21.69,6.06,30.45,13.89,8.48,7.59,16.78,15.4,25.16,23.1.6.54,1.48-.34.89-.89-9.12-8.37-17.93-17.4-27.56-25.17-8.26-6.65-18.93-8.48-28.61-12.14-.75-.28-1.08.93-.33,1.21Z"/><path class="cls-12" d="M114.49,259.51a26,26,0,0,0,25.83,1.74c.73-.34.09-1.42-.63-1.08a24.73,24.73,0,0,1-24.57-1.74c-.67-.45-1.3.64-.63,1.08Z"/></svg>