<?xml version="1.0" encoding="UTF-8"?>
<svg viewBox="0 0 150 150" xmlns="http://www.w3.org/2000/svg">
<g fill-rule="evenodd">
<path d="m139.12 74.102c0 36.445-29.544 65.99-65.99 65.99-36.444 0-65.989-29.545-65.989-65.99s29.545-65.99 65.99-65.99 65.99 29.545 65.99 65.99" fill="#D6D6D6"/>
<path d="M60.246 115.455a11.719 11.719 0 0 1-.217-.079c-.822 1.23-1.988 4.751-2.277 5.734-.264.899-.49 2.155-.335 3.088.237 1.419.96 1.328 1.405.105.266-.726 1.684-8.755 1.424-8.848" fill="#FFF"/>
<path d="M19.034 43.377l.002.164c.164.071.334.183.507.344l-.509-.508z" fill="#E5B393"/>
<path d="M43.58 70.477c-.747-.051-1.909.284-1.909.284l-.115 1.038c.26 1.216 4.248.82 4.68.34.025-.328.115-1.263.073-1.595-.958-.038-1.775-.002-2.728-.067" fill="#FFF"/>
<path d="M44.07 70.182c-.864.022-2.173.193-2.248.481-.145.559 1.735.544 2.133.537.568-.012 2.114-.032 2.271-.532.14-.45-1.43-.503-2.156-.486" fill="#FFF"/>
<path d="M54.275 130.52c-.017.007-.033.012-.05.017-.047.095-.094.192-.142.286a1.5 1.5 0 0 1-.187.283c.345.322.794.556 1.206.761.01-.034.018-.07.027-.104a3.245 3.245 0 0 1-.124-.266c-.406-.055-.73-.432-.73-.976" fill="#D6D6D6"/>
<path d="M101.62 128.355l-.2.002-16.686.134a67085.706 67085.706 0 0 0-22.337.179 9.547 9.547 0 0 1-.045 3.51l16.5-.191a115416.996 115416.996 0 0 1 22.692-.264 17.26 17.26 0 0 1-.014-2.336c.02-.296.041-.658.09-1.034" fill="#F27930"/>
<path d="M108.314 108.878c-2.212-.502-5.272-.534-5.982-.555-3.986-.125-35.215.015-37.293 1.04-2.392 1.181-3.84 3.794-4.94 6.108-2.241 4.708-3.77 9.8-5.542 14.673-.07.191-.148.39-.23.597 1.326.002 2.797.43 3.759 1.317 2.046-5.565 4.705-13.202 5.957-15.342 1.688-2.887 3.842-4.079 6.782-4.342 3.112-.277 28.632.021 37.51-.748 1.51-.13 1.479-.78 1.479-1.295 0-.755-.156-1.148-1.5-1.453M32.553 46.088a9150.04 9150.04 0 0 0-2.38-3.386c-.358 1.107-1.088 2.147-1.714 3.021-.088.123-.18.249-.273.375l2.033 2.87c1.926 2.72 9.603 13.925 11.993 17.33.102-.284.328-.529.712-.67.88-.324 1.8-.485 2.733-.566l-.412-.585c-2.149-3.058-10.543-15.33-12.692-18.389" fill="#F27930"/>
<path d="M49.045 61.054l.004.023-.001-.023h-.003z" fill="#D6B287"/>
<path d="M43.487 68.388c.074-.077.143-.152.213-.223-.09.073-.163.148-.213.223M43.7 68.165c.012-.011.026-.022.04-.032.953-.99 4.071-4.292-.04.032" fill="#7EB08A"/>
<path d="M43.487 68.388c-.009.014.09-.087.253-.255a.888.888 0 0 0-.04.032c-.07.071-.14.146-.213.223" fill="#7EB08A"/>
<path d="M13.23 38.357c-2.073 2.022 0 0-.41 1.013-.817 2.021.742 3.043.742 3.043C17.707 43.64 28.25 45.51 28.25 45.51l.31-4.403c-.406-.03-13.99-2.448-15.33-2.749" fill="#F27930"/>
<path d="M25.679 46.058c2.398 4.395 7.601.89 5.956-3.768-1.815-4.096-8.49-.876-5.956 3.768M8.35 40.901c1.508 5.202 7.821 2.713 7.17-2.591-.963-4.75-8.764-2.904-7.17 2.591" fill="#7EB08A"/>
<path d="M55.877 131.549c1.176-1.278.408-3.257-1.138-3.252-1.573.006-2.546 1.916-1.736 3.294.686 1.168 1.947.964 2.874-.042" fill="#ECF5F9"/>
<path d="M62.048 137.779c6.572-7.056 2.118-18.134-6.614-18.198-8.882-.065-14.264 10.528-9.611 18.258 3.942 6.553 11.053 5.492 16.225-.06" fill="#54BB87"/>
<path d="M58.477 133.829c3.285-3.569 1.14-9.09-3.175-9.076-4.392.015-7.107 5.347-4.847 9.193 1.916 3.26 5.436 2.69 8.022-.117"/>
<path d="M55.877 131.549c1.176-1.278.408-3.257-1.138-3.252-1.573.006-2.546 1.916-1.736 3.294.686 1.168 1.947.964 2.874-.042" fill="#ECF5F9"/>
<path d="M57.237 122.109a.805.805 0 0 0-1.119-.502c-.402-.12-.87.1-1.07.53-.217.466-.047 1.02.375 1.217.048.022.094.045.144.062.24.083.286.081.54.08.184 0 .39-.104.565-.178.452-.19.71-.741.565-1.21M62.564 125.844c-.182-.535-.529-.864-1.008-1.087-.421-.198-.956.028-1.173.494-.218.467-.047 1.02.374 1.217.044.02.087.041.129.063.007.006.014.011.02.018.16.46.633.7 1.093.506.443-.187.722-.748.565-1.21M62.322 132.41c.203-.473.058-1.016-.375-1.218-.41-.191-.97.022-1.173.495-.228.53-.273 1.152-.487 1.65-.203.472-.058 1.014.375 1.216.411.192.97-.022 1.174-.495.227-.53.273-1.152.486-1.649M57.326 137.994c-.027-.522-.442-.839-.917-.801a8.285 8.285 0 0 0-2.444.586c-1.075.438-.544 2.16.53 1.721a6.718 6.718 0 0 1 2.006-.464c.475-.038.849-.561.825-1.042" fill="#BBE0D1"/>
<path d="M115.34 136.217c5.562-6.272 1.678-15.747-5.78-15.583-7.59.168-12.11 9.47-8.08 16.044 3.415 5.572 9.481 4.474 13.86-.46" fill="#54BB87"/>
<path d="M112.223 133.25c2.671-3.011.806-7.56-2.776-7.482-3.643.081-5.814 4.547-3.878 7.704 1.639 2.675 4.552 2.148 6.654-.222"/>
<path d="M110.724 131.448c1.153-1.3.348-3.264-1.198-3.229-1.573.034-2.51 1.962-1.674 3.325.707 1.155 1.964.927 2.872-.096" fill="#ECF5F9"/>
<path d="M106.293 124.03c-.433-.191-.945.052-1.164.518-.01.024-.023.046-.034.07l-.02.026-.005.007c-.017.016-.058.056-.083.076l-.024.016-.015.008c-.08.043-.164.08-.248.116-.448.2-.695.754-.542 1.22a.805.805 0 0 0 1.104.49c.626-.277 1.116-.672 1.428-1.336.22-.466.021-1.024-.397-1.21M112.842 123.732c-.037-.53-.456-.822-.93-.785a4.095 4.095 0 0 1-.158.011H111.712c-.107 0-.214-.005-.32-.002-.306.004-.568.034-.865.158-.453.187-.693.763-.543 1.22.155.471.645.674 1.094.494a.624.624 0 0 1 .075-.017c.022-.003.045-.005.067-.006.272.003.544.004.818-.017.473-.037.837-.584.804-1.056M115.975 127.083a1.189 1.189 0 0 1-.031-.11v-.001l-.004-.022c-.019-.115-.032-.231-.047-.347a5.264 5.264 0 0 0-.161-.867.804.804 0 0 0-1.105-.49c-.455.201-.685.75-.542 1.22.012.036.023.073.031.11v.001l.004.022c.019.115.032.231.047.347.037.292.076.59.161.867a.804.804 0 0 0 1.105.49c.455-.201.685-.75.542-1.22M114.866 131.249c-.426-.189-.955.046-1.164.516l-.575 1.295c-.21.47-.029 1.022.397 1.21.426.19.955-.046 1.164-.516l.575-1.295c.21-.471.028-1.021-.397-1.21M109.414 136.579c-.664-.265-1.365-.226-2.082-.164-.473.041-.837.58-.804 1.057.036.526.457.825.931.784.395-.034.841-.09 1.188.05.433.172.95-.035 1.164-.518.204-.458.036-1.037-.397-1.21M103.41 133.905a5.236 5.236 0 0 1-.219-2.122c.056-.506-.202-.969-.693-1.03-.44-.053-.961.314-1.016.82a7.488 7.488 0 0 0 .282 3.063c.348 1.112 1.994.38 1.647-.73M51.3 122.638a.953.953 0 0 0-1.336 0l-.85.85a.954.954 0 0 0 0 1.336.953.953 0 0 0 1.335 0l.85-.85a.954.954 0 0 0 0-1.336M47.333 127.455c-.356-.356-.982-.374-1.336 0-.437.463-.716 1.045-.998 1.608-.23.46-.126 1.02.34 1.293.421.246 1.061.12 1.291-.34.13-.258.26-.517.4-.77.063-.112.13-.222.2-.33.017-.024.03-.04.038-.053.022-.024.042-.049.065-.072.353-.374.371-.964 0-1.336M47.333 133.122c-.355-.373-.979-.357-1.336 0a.953.953 0 0 0-.012 1.32c.007.042.014.093.015.121.005.12.004.24.004.36 0 .515.43.945.944.945.515 0 .945-.43.945-.945 0-.677-.073-1.29-.56-1.8M51.3 137.656a3.16 3.16 0 0 0-2.085-.843c-.515-.015-.944.44-.944.944 0 .526.43.93.944.944.052.002.08.002.095 0l.05.01a2.135 2.135 0 0 1 .28.079c.067.032.134.068.199.107.027.016.054.035.08.053.007.008.02.02.045.042.374.353.964.371 1.336 0 .356-.356.374-.983 0-1.336" fill="#BBE0D1"/>
<path d="M80.978 119.433l.063-.026h-.002c-.02.01-.04.018-.06.026M81.04 119.407c.168-.067.652-.266 0 0" fill="#B1786A"/>
<path d="M142.536 70.455c-2.375.457-4.8.562-7.192.893-.909.126-.614 1.517.291 1.391 2.393-.33 4.817-.435 7.193-.892.9-.175.61-1.566-.292-1.392" fill="#FFF"/>
<path d="M142.688 70.755a.53.53 0 0 0-.092.009c-1.461.282-2.958.433-4.406.579-.921.093-1.874.189-2.803.317-.248.034-.288.206-.279.344.012.166.134.428.414.428a.553.553 0 0 0 .07-.004c.94-.13 1.899-.227 2.825-.321 1.435-.144 2.917-.294 4.35-.57.29-.056.3-.296.29-.397-.013-.134-.106-.385-.37-.385m-7.165 2.308c-.632 0-1.009-.523-1.042-1.016-.037-.532.293-.938.82-1.011a77.38 77.38 0 0 1 2.826-.32c1.434-.145 2.917-.294 4.35-.57.072-.014.143-.022.212-.022.594 0 .951.481.997.956.05.533-.277.975-.798 1.076-1.461.282-2.959.433-4.406.578-.921.093-1.874.189-2.803.318-.052.007-.105.01-.156.01M39.157 100.647c-.485.448-1.114.296-1.46-.075-.337-.36-.435-.955.03-1.396 2.401-2.271 4.009-5.246 5.564-8.123l.488-.902c.057-.105.128-.197.21-.273.348-.32.894-.325 1.3-.01.41.321.522.842.274 1.295l-.428.79c-1.659 3.063-3.373 6.23-5.967 8.684l-.01.01zM31.009 91.842c-.528.207-1.054.38-1.563.518-.63.17-1.135-.243-1.292-.72-.182-.552.09-1.075.647-1.226.47-.127.957-.288 1.445-.479 1.783-.696 3.461-1.729 5.084-2.728l.185-.114c.058-.036.119-.066.18-.09.569-.222 1.103.115 1.316.544.235.472.091.976-.358 1.253l-.208.127c-1.727 1.065-3.513 2.165-5.436 2.915M30.238 78.994c-.052.02-.106.036-.162.049-.724.163-1.455.363-2.163.557-.713.196-1.451.4-2.19.565-.634.142-1.13-.29-1.276-.767-.152-.496.06-.966.517-1.144.051-.02.106-.037.162-.05.723-.162 1.453-.362 2.16-.556.714-.196 1.453-.4 2.193-.565.633-.142 1.13.29 1.276.767.152.495-.061.966-.517 1.144M138.18 83.332c-.062 0-.126-.006-.19-.017a26.583 26.583 0 0 0-5.55-.376c-.557.022-.953-.361-.964-.918-.01-.535.375-1.104 1.036-1.129 1.9-.072 3.815.058 5.682.384.639.111.929.68.885 1.182-.045.515-.415.874-.9.874M135.44 60.93c-1.879.111-3.737.42-5.552.921-.875.242-.651 1.647.232 1.403a26.773 26.773 0 0 1 5.553-.922c.916-.055.673-1.456-.233-1.402" fill="#FFF"/>
<path d="M135.49 61.244h-.031c-1.85.11-3.697.417-5.487.91-.295.082-.339.364-.318.516.007.05.051.297.269.297a.429.429 0 0 0 .114-.017 27.17 27.17 0 0 1 5.617-.932c.193-.012.287-.115.282-.307-.006-.181-.131-.467-.445-.467m-5.568 2.353c-.459 0-.826-.346-.893-.842-.063-.461.153-1.036.774-1.208a27.235 27.235 0 0 1 5.618-.932c.697-.04 1.127.528 1.144 1.077.016.53-.344.923-.874.954-1.852.11-3.698.417-5.488.911-.095.026-.19.04-.281.04" fill="#FFF"/>
<path d="m107.73 106.47l-21.644-2.753 5.842-52.824 24.717 3.143z" fill="#FFF6B6"/>
<path d="M111.924 81.913l-23.212-1.976.188-4.015 23.651 3.4zM91.261 50.55c-.966-2.144 1.98-6.402 3.082-6.145 2.342.548 7.639 8.152 7.639 8.152s-9.926-.244-10.721-2.007m3.001-10.418c-3.696-.117-7.069 9.137-5.169 11.499 1.824 2.267 14.815 1.417 14.815 1.417s-6.4-12.814-9.646-12.916M116.082 49.22c-1.425 1.503-10.338 3.064-10.338 3.064s4.078-8.421 6.378-9.172c1.819-.593 4.667 5.362 3.96 6.108m-4.995-9.475c-3.196.57-7.179 13.303-7.179 13.303s11.872-.937 13.937-3.134c1.694-1.803-3.117-10.819-6.758-10.169" fill="#FF8AD4"/>
<path d="M98.833 105.392l-1.81-.23 5.362-52.938 3.66.465z" fill="#FF8AD4"/>
<path d="M102.645 81.128l-.485-.046.447-3.19.522.067zM99.445 80.72l-.28-.019.437-3.24.3.038zM105.613 55.85l-1.01-1.817-1.17-.122-1.347 1.49.192-2.331 3.78-.23z" fill="#930C36"/>
<path d="M105.14 51.934c.06.819-.483 1.525-1.212 1.578-.73.053-1.369-.567-1.429-1.386-.059-.819.484-1.525 1.213-1.579.73-.052 1.369.568 1.428 1.387" fill="#FF8AD4"/>
<path d="M109.99 65.835l-2.28 2.119L104.9 52.64l.423-.043zM94.94 61.165l2.064 2.217 6.72-10.912-.214-.48z" fill="#FF8AD4"/>
<path d="M118.408 89.922H91.28L89.26 64.935h31.65z" fill="#54BB87"/>
<path d="M121.99 61.52l-34.538-.638.588 8.662 33.28-.84z" fill="#54BB87"/>
<path d="M94.269 57.498c-.694-2.245 2.094-6.347 3.021-6.004 1.971.728 6.033 8.83 6.033 8.83s-8.484-.979-9.054-2.826m3.218-10.345c-3.157-.39-6.621 8.746-5.142 11.282 1.42 2.434 12.597 2.53 12.597 2.53s-4.682-13.47-7.455-13.812M115.603 57.98c-1.313 1.42-9.043 2.345-9.043 2.345s4.017-8.24 6.033-8.831c1.594-.468 3.661 5.782 3.01 6.487m-3.687-9.979c-2.772.343-6.974 12.963-6.974 12.963s10.222-.075 12.127-2.151c1.563-1.703-1.995-11.202-5.153-10.812" fill="#F27930"/>
<path d="M106.066 59.926c0 .834-.51 1.511-1.137 1.511s-1.136-.677-1.136-1.511c0-.835.509-1.512 1.136-1.512.628 0 1.137.677 1.137 1.512" fill="#F27930"/>
<path d="M95.228 74.33l-1.089-.278-.847.74-.072-1.123-.965-.576 1.045-.415.25-1.096.718.865 1.12-.1-.601.95zM100.266 79.232l-.907-.6-1.008.407.29-1.048-.698-.833 1.086-.048.577-.922.38 1.019 1.056.263-.851.677zM95.302 83.874l-1.307-.204-.908.96-.21-1.305-1.194-.567 1.176-.603.17-1.311.938.933 1.299-.244-.597 1.18zM101.29 87.937l-.888-.55-.957.42.25-1.016-.696-.78 1.043-.078.527-.902.396.968 1.02.223-.797.675zM114.993 87.615l-1.251-.452-1.082.774.044-1.33-1.071-.788 1.278-.37.42-1.262.746 1.1 1.33.01-.816 1.05zM109.714 81.982l-.86-.658-1.028.335.36-1.02-.636-.875 1.081.027.635-.876.309 1.037 1.03.334-.892.614zM112.202 73.557l-1.274-.369-1.026.84-.042-1.325-1.116-.716 1.247-.45.336-1.283.814 1.047 1.324-.076-.745 1.097zM117.156 79.044l-.885-.712-1.089.326.403-1.061-.646-.935 1.134.055.689-.903.298 1.096 1.072.376-.95.622z" fill="#F2F96E"/>
<path d="M106.947 89.922h-2.272l-.882-28.727 4.025.05z" fill="#759930"/>
<path d="M107.581 69.05l-.737.02.237-7.826.828.015z" fill="#BBE0D1"/>
<path d="M120.45 69.544l-30.717 1.224-.1-1.264 30.899-.78z" fill="#BBE0D1"/>
<path d="M106.21 89.922h-2.272l-.882-28.727 4.026.05z" fill="#F27930"/>
<path d="M76.822 84.741l-20.883 6.682L40.62 51.958l26.397-8.446z" fill="#FAB431"/>
<path d="M68.95 51.697l-25.16 8.306-.301-.734 25.208-8.76z" fill="#CE5605"/>
<path d="M70.253 57.116l-24.439 8.222-.446-1.15 24.55-8.484zM71.442 62.116l-23.805 7.919-.32-.825 23.86-8.206zM72.752 67.627l-23.155 7.458-.4-1.03 23.338-7.34zM75.055 77.31L53.3 84.625l-.424-1.093 22.01-6.932zM76.232 82.274l-21.107 7.053-.403-1.04 21.342-6.73zM51.11 78.98l.327.844 22.463-7.37-.205-.86z" fill="#FFF6B6"/>
<path d="m69.505 50.32l-26.935 9.575-3.312-8.385 28.069-9.49z" fill="#F27930"/>
<path d="M68.214 87.496l-1.907.61L51.88 47.27l3.439-1.101z" fill="#D6D6D6"/>
<path d="M54.885 46.51l-2.465.79-1.34-2.536 3.187-1.32z" fill="#D6D6D6"/>
<path d="M42.421 45.833c-2.24-2.61-1.152-6.48 1.124-6.503 1.998-.02 8.212 6.975 8.212 6.975s-8.051 1.025-9.336-.472m.63-10.142c-2.962.524-4.558 7.697-1.763 11.908 1.603 2.413 12.127-1.129 12.127-1.129s-7.762-11.238-10.363-10.779" fill="#D6D6D6"/>
<path d="M61.997 39.57c-.178 1.964-7.328 5.803-7.328 5.803s.998-9.303 2.638-10.446c1.866-1.302 4.999 1.216 4.69 4.643m-6.4-7.892c-2.386 1.136-2.182 14.792-2.182 14.792s10.625-3.226 10.529-6.12c-.168-5.052-5.632-9.966-8.348-8.672" fill="#D6D6D6"/>
<path d="m112.05 55.214l-20.436-6.176 4.032-21.972 25.834 7.806z" fill="#4EB3E3"/>
<path d="M116.59 45.735L92.53 39.48l.612-2.367 24.034 7.091zM110.338 31.255l-2.412-.728.325-2.775 3.285.703z" fill="#FFD200"/>
<path d="M97.599 23.327c-.355-3.331 5.772-2.603 7.61-1.365 1.614 1.087 2.735 7.4 2.735 7.4s-10.141-4.126-10.345-6.035m9.224-4.555c-2.665-1.217-11.024.424-11.108 5.345-.048 2.82 13.467 6.294 13.467 6.294s-.019-10.571-2.36-11.639M119.875 29.617c-1.227 1.477-9.082.606-9.082.606s5.07-6.757 7.016-6.768c2.216-.014 4.206 3.585 2.066 6.162m-1.643-9.713c-2.54-.406-9.05 10.507-9.05 10.507s10.302 3.282 11.824.907c2.655-4.144.118-10.951-2.774-11.414M103.627 52.668l-1.867-.564 5.372-22.135 3.366 1.017z" fill="#FFD200"/>
<path d="M121.42 67.256L65.558 53.882l5.18-23.86 56.237 15.035z" fill="#FF8AD4"/>
<path d="M75 29.179c-.2-1.163 2.177-3.632 2.88-3.449 1.489.387 3.708 6.187 3.708 6.187S75.218 30.443 75 29.18m3.64-6.857c-2.304-.481-5.64 5.453-5.467 7.322.172 1.846 9.559 2.807 9.559 2.807s-2.068-9.706-4.091-10.129M91.849 33.471c-.786 1.007-7.064-.943-7.064-.943s4.782-3.863 6.274-3.495c.704.173 1.506 3.52.79 4.438m-.412-7.509c-1.963-.653-7.908 6.453-7.908 6.453s7.836 3.66 9.16 2.372c1.445-1.406.984-8.082-1.252-8.825" fill="#492191"/>
<path d="M83.831 31.004s-2.092-4.73-1.374-5.896c.517-.84 4.329-.573 4.395.32.083 1.106-3.02 5.576-3.02 5.576m4.906-6.155c-.76-1.728-6.128-3.5-7.449-1.864-1.16 1.436 2.05 9.026 2.05 9.026s6.042-5.699 5.399-7.162" fill="#492191"/>
<path d="M73.153 32.416a.693.693 0 0 1-.848.492.693.693 0 0 1-.515-.833.692.692 0 0 1 .847-.492.693.693 0 0 1 .516.833M79.468 33.997a.693.693 0 0 1-.847.491.693.693 0 0 1-.516-.832.693.693 0 0 1 .848-.492.693.693 0 0 1 .515.833M85.784 35.578a.693.693 0 0 1-.847.491.693.693 0 0 1-.516-.832.693.693 0 0 1 .847-.492.693.693 0 0 1 .516.833M92.1 37.158a.693.693 0 0 1-.848.492.693.693 0 0 1-.516-.833.693.693 0 0 1 .847-.491.693.693 0 0 1 .516.832M98.415 38.74a.693.693 0 0 1-.848.49.693.693 0 0 1-.515-.832.692.692 0 0 1 .847-.491.693.693 0 0 1 .516.832M104.73 40.32a.693.693 0 0 1-.847.492.693.693 0 0 1-.516-.833.692.692 0 0 1 .848-.491.693.693 0 0 1 .515.832M111.046 41.901a.693.693 0 0 1-.847.492.693.693 0 0 1-.516-.833.693.693 0 0 1 .847-.492.693.693 0 0 1 .516.833M117.361 43.482a.693.693 0 0 1-.847.491.693.693 0 0 1-.516-.832.693.693 0 0 1 .847-.492.693.693 0 0 1 .516.833M123.677 45.063a.693.693 0 0 1-.848.491.693.693 0 0 1-.515-.833.693.693 0 0 1 .847-.491.693.693 0 0 1 .516.833M76.079 36.745a.693.693 0 0 1-.847.491.693.693 0 0 1-.516-.833.693.693 0 0 1 .847-.491.693.693 0 0 1 .516.833M82.394 38.325a.693.693 0 0 1-.847.492.693.693 0 0 1-.516-.833.693.693 0 0 1 .848-.491.693.693 0 0 1 .515.832M88.71 39.906a.693.693 0 0 1-.847.492.693.693 0 0 1-.516-.833.693.693 0 0 1 .847-.491.693.693 0 0 1 .516.832M95.025 41.487a.693.693 0 0 1-.847.492.693.693 0 0 1-.516-.833.692.692 0 0 1 .848-.491.693.693 0 0 1 .515.832M101.34 43.068a.693.693 0 0 1-.847.491.693.693 0 0 1-.515-.832.693.693 0 0 1 .847-.492.693.693 0 0 1 .516.833M107.656 44.649a.693.693 0 0 1-.847.491.693.693 0 0 1-.516-.833.693.693 0 0 1 .848-.491.693.693 0 0 1 .515.833M113.972 46.23a.693.693 0 0 1-.847.491.693.693 0 0 1-.516-.833.693.693 0 0 1 .847-.491.693.693 0 0 1 .516.832M120.287 47.81a.693.693 0 0 1-.847.492.693.693 0 0 1-.516-.833.693.693 0 0 1 .848-.491.693.693 0 0 1 .515.832M72.14 39.355a.693.693 0 0 1-.847.491.693.693 0 0 1-.516-.832.692.692 0 0 1 .847-.492.693.693 0 0 1 .516.833M78.456 40.936a.693.693 0 0 1-.848.491.693.693 0 0 1-.515-.832.693.693 0 0 1 .847-.492.693.693 0 0 1 .516.833M84.771 42.516a.693.693 0 0 1-.847.492.693.693 0 0 1-.516-.833.693.693 0 0 1 .847-.491.693.693 0 0 1 .516.832M91.087 44.097a.693.693 0 0 1-.848.492.693.693 0 0 1-.515-.833.692.692 0 0 1 .847-.491.693.693 0 0 1 .516.832M97.402 45.678a.693.693 0 0 1-.847.492.693.693 0 0 1-.516-.833.693.693 0 0 1 .848-.491.693.693 0 0 1 .515.832M103.718 47.259a.693.693 0 0 1-.847.492.693.693 0 0 1-.516-.833.693.693 0 0 1 .847-.492.693.693 0 0 1 .516.833M110.033 48.84a.693.693 0 0 1-.847.491.693.693 0 0 1-.516-.833.693.693 0 0 1 .847-.49.693.693 0 0 1 .516.832M116.349 50.42a.693.693 0 0 1-.848.492.693.693 0 0 1-.515-.833.693.693 0 0 1 .847-.491.693.693 0 0 1 .516.833M122.664 52.001a.693.693 0 0 1-.847.492.693.693 0 0 1-.516-.833.692.692 0 0 1 .848-.491.693.693 0 0 1 .515.832M74.785 43.613a.693.693 0 0 1-.848.492.693.693 0 0 1-.516-.833.693.693 0 0 1 .848-.492.693.693 0 0 1 .516.833M81.1 45.194a.693.693 0 0 1-.847.491.693.693 0 0 1-.516-.833.692.692 0 0 1 .847-.49.693.693 0 0 1 .516.832M87.415 46.775a.693.693 0 0 1-.847.491.693.693 0 0 1-.516-.833.692.692 0 0 1 .848-.491.693.693 0 0 1 .515.833M93.73 48.355a.693.693 0 0 1-.846.492.693.693 0 0 1-.516-.833.693.693 0 0 1 .847-.491.693.693 0 0 1 .516.832M100.046 49.936a.693.693 0 0 1-.847.492.693.693 0 0 1-.516-.833.693.693 0 0 1 .848-.492.693.693 0 0 1 .515.833M106.362 51.517a.693.693 0 0 1-.847.491.693.693 0 0 1-.516-.832.693.693 0 0 1 .847-.492.693.693 0 0 1 .516.833M112.678 53.098a.693.693 0 0 1-.848.491.693.693 0 0 1-.516-.832.692.692 0 0 1 .848-.492.693.693 0 0 1 .516.833M118.993 54.679a.693.693 0 0 1-.847.491.693.693 0 0 1-.516-.833.692.692 0 0 1 .847-.49.693.693 0 0 1 .516.832M71.395 46.36a.693.693 0 0 1-.847.492.693.693 0 0 1-.516-.833.692.692 0 0 1 .847-.491.693.693 0 0 1 .516.833M77.71 47.941a.693.693 0 0 1-.847.492.693.693 0 0 1-.516-.833.692.692 0 0 1 .848-.491.693.693 0 0 1 .516.832M84.026 49.522a.693.693 0 0 1-.847.492.693.693 0 0 1-.516-.833.693.693 0 0 1 .847-.491.693.693 0 0 1 .516.832M90.341 51.103a.693.693 0 0 1-.847.492.693.693 0 0 1-.516-.833.693.693 0 0 1 .848-.492.693.693 0 0 1 .515.833M96.657 52.684a.693.693 0 0 1-.847.491.693.693 0 0 1-.516-.832.692.692 0 0 1 .847-.492.693.693 0 0 1 .516.833M102.973 54.265a.693.693 0 0 1-.848.491.693.693 0 0 1-.515-.833.692.692 0 0 1 .847-.49.693.693 0 0 1 .516.832M109.288 55.846a.693.693 0 0 1-.847.491.693.693 0 0 1-.516-.833.693.693 0 0 1 .847-.491.693.693 0 0 1 .516.833M115.604 57.426a.693.693 0 0 1-.848.492.693.693 0 0 1-.516-.833.693.693 0 0 1 .848-.491.693.693 0 0 1 .516.832M121.919 59.007a.693.693 0 0 1-.847.492.693.693 0 0 1-.516-.833.693.693 0 0 1 .847-.491.693.693 0 0 1 .516.832M73.772 50.552a.693.693 0 0 1-.847.491.693.693 0 0 1-.516-.833.692.692 0 0 1 .847-.49.693.693 0 0 1 .516.832M80.087 52.133a.693.693 0 0 1-.847.491.693.693 0 0 1-.516-.833.692.692 0 0 1 .848-.491.693.693 0 0 1 .515.833M86.403 53.713a.693.693 0 0 1-.847.492.693.693 0 0 1-.516-.833.693.693 0 0 1 .847-.491.693.693 0 0 1 .516.832M92.718 55.294a.693.693 0 0 1-.847.492.693.693 0 0 1-.516-.833.693.693 0 0 1 .848-.492.693.693 0 0 1 .515.833M99.034 56.875a.693.693 0 0 1-.847.491.693.693 0 0 1-.516-.832.692.692 0 0 1 .847-.492.693.693 0 0 1 .516.833M105.35 58.456a.693.693 0 0 1-.848.491.693.693 0 0 1-.516-.832.692.692 0 0 1 .848-.492.693.693 0 0 1 .515.833M111.665 60.037a.693.693 0 0 1-.847.491.693.693 0 0 1-.516-.833.693.693 0 0 1 .847-.491.693.693 0 0 1 .516.833M117.98 61.617a.693.693 0 0 1-.847.492.693.693 0 0 1-.516-.833.693.693 0 0 1 .848-.491.693.693 0 0 1 .515.832M71.555 53.593a.693.693 0 0 1-.848.491.693.693 0 0 1-.516-.833.693.693 0 0 1 .848-.49.693.693 0 0 1 .516.832M77.87 55.174a.693.693 0 0 1-.847.491.693.693 0 0 1-.516-.833.692.692 0 0 1 .847-.491.693.693 0 0 1 .516.833M84.186 56.754a.693.693 0 0 1-.848.492.693.693 0 0 1-.515-.833.692.692 0 0 1 .847-.491.693.693 0 0 1 .516.832M90.501 58.335a.693.693 0 0 1-.847.492.693.693 0 0 1-.516-.833.693.693 0 0 1 .847-.491.693.693 0 0 1 .516.832M96.817 59.916a.693.693 0 0 1-.848.492.693.693 0 0 1-.516-.833.693.693 0 0 1 .848-.492.693.693 0 0 1 .516.833M103.132 61.497a.693.693 0 0 1-.847.491.693.693 0 0 1-.516-.832.693.693 0 0 1 .847-.492.693.693 0 0 1 .516.833M109.448 63.078a.693.693 0 0 1-.847.491.693.693 0 0 1-.516-.833.692.692 0 0 1 .847-.49.693.693 0 0 1 .516.832M115.763 64.659a.693.693 0 0 1-.847.491.693.693 0 0 1-.516-.833.692.692 0 0 1 .847-.49.693.693 0 0 1 .516.832M125.244 49.057a.693.693 0 0 0 .515.832l.012.002.331-1.322c-.004 0-.007-.003-.011-.004a.693.693 0 0 0-.847.492M68.473 42.039a.676.676 0 0 0-.196-.654l-.245 1.128a.677.677 0 0 0 .44-.474M67.46 48.977a.693.693 0 0 0-.646-.852l-.285 1.314c.027.01.054.023.084.03a.693.693 0 0 0 .847-.492M120.72 65.905a.693.693 0 0 0 .515.833.709.709 0 0 0 .318.004l.297-1.183a.712.712 0 0 0-.283-.146.693.693 0 0 0-.848.492" fill="#FFE8F7"/>
<path d="M78.505 57.066l-2.854-.657 5.615-24.453 3.791.948z" fill="#492191"/>
<path d="M122.87 61.626L66.538 47.971l.674-3.86 56.046 15.964zM84.627 32.333c-.184.734-.909 1.185-1.62 1.007-.712-.178-1.14-.917-.956-1.652.184-.733.91-1.184 1.621-1.006.711.178 1.139.917.955 1.651" fill="#492191"/>
<path d="M86.861 79.718H58.386l-3.39-32.058h34.322z" fill="#F27930"/>
<path d="M57.841 43.46c-1.838-3.078 1.204-6.336 4.19-5.684 2.622.572 7.82 8.883 7.82 8.883s-10.956-1.435-12.01-3.199m5.068-9.196c-4.094-.393-9.182 5.77-7.288 10.494 1.085 2.707 16.33 2.545 16.33 2.545s-5.448-12.694-9.042-13.04" fill="#FFB533"/>
<path d="M86.06 43.46c-1.054 1.764-12.011 3.2-12.011 3.2s5.198-8.312 7.82-8.884c2.986-.652 6.029 2.606 4.19 5.684m-5.067-9.196c-3.594.345-9.042 13.04-9.042 13.04s15.244.16 16.33-2.546c1.893-4.723-3.195-10.887-7.288-10.494" fill="#FFB533"/>
<path d="M73.408 46.258c0 .84-.66 1.52-1.474 1.52-.813 0-1.473-.68-1.473-1.52s.66-1.52 1.473-1.52c.814 0 1.474.68 1.474 1.52" fill="#FFB533"/>
<path d="M81.242 57.098c0 .742-.707 1.344-1.58 1.344-.872 0-1.579-.602-1.579-1.344 0-.742.707-1.343 1.58-1.343.872 0 1.579.601 1.579 1.343M85.956 51.095c0 .812-.675 1.47-1.509 1.47-.833 0-1.508-.658-1.508-1.47 0-.811.675-1.469 1.508-1.469.834 0 1.51.658 1.51 1.47M81.62 69.804c0 .937-.793 1.697-1.769 1.697-.976 0-1.768-.76-1.768-1.697 0-.938.792-1.698 1.768-1.698s1.768.76 1.768 1.698M78.838 75.508a1.367 1.367 0 1 1-2.735 0 1.367 1.367 0 0 1 2.735 0M86.192 76.475c0 .65-.644 1.178-1.438 1.178-.794 0-1.438-.527-1.438-1.178 0-.65.644-1.178 1.438-1.178.794 0 1.438.527 1.438 1.178M87.292 68.778c-1.07 0-1.935.892-1.935 1.992s.866 1.992 1.935 1.992c.014 0 .027-.004.041-.004l.303-3.944a1.897 1.897 0 0 0-.344-.036M66.74 75.742c0 .742-.707 1.344-1.58 1.344-.872 0-1.578-.602-1.578-1.344 0-.742.706-1.343 1.579-1.343.872 0 1.58.601 1.58 1.343M68.356 69.74c0 .81-.676 1.469-1.509 1.469-.833 0-1.508-.658-1.508-1.47 0-.811.675-1.469 1.508-1.469s1.509.658 1.509 1.47M61.001 52.013c0 .985-.844 1.784-1.885 1.784-1.042 0-1.886-.799-1.886-1.784s.844-1.784 1.886-1.784c1.041 0 1.885.8 1.885 1.784M62.705 59.438c0 .55-.565.997-1.26.997-.697 0-1.26-.446-1.26-.997 0-.55.563-.996 1.26-.996.695 0 1.26.446 1.26.996M61.253 68.27a1.08 1.08 0 0 1-1.069 1.092 1.08 1.08 0 0 1-1.068-1.092 1.08 1.08 0 0 1 1.068-1.092c.59 0 1.069.489 1.069 1.092M67.877 54.224c0 .72-.568 1.303-1.27 1.303-.7 0-1.268-.584-1.268-1.303 0-.72.568-1.303 1.269-1.303.7 0 1.269.583 1.269 1.303" fill="#FFF"/>
<path d="M74.581 79.718h-2.847L70.615 47.61l4.914.05z" fill="#AA1B2D"/>
<path d="M87.874 65.8L57 66.61l-.423-4.505 31.602.413z" fill="#AA1B2D"/>
<path d="m73.972 79.718h-3.18l-1.187-32.161h4.974z" fill="#FFB533"/>
<path d="M88.058 65.051l-31.257.705-.388-4.234 31.968.44z" fill="#FFB533"/>
<path d="M75.006 65.346l-.763.017.068-3.594.8.011zM69.884 65.461h.381l-.138-3.75h-.523z" fill="#DD6605"/>
<path d="m105.56 104.4l-45.294-1.919-0.604-15.116 47.883 2.028z" fill="#4EB3E3"/>
<path d="M65.463 102.702l-1.26-.053.355-8.417 1.261.054zM71.717 102.967l-1.26-.053.356-8.417 1.26.054zM73.81 103.056l-.756-.032.357-8.417.756.032zM78.93 103.273l-1.26-.054.356-8.416 1.26.053zM67.632 102.794l-.757-.032.357-8.417.756.033zM81.466 103.38l-.757-.032.357-8.416.756.032zM87.541 103.638l-1.261-.054.357-8.417 1.26.054zM93.795 103.903l-1.26-.054.356-8.417 1.26.054zM95.888 103.991l-.756-.032.356-8.417.757.032zM101.008 104.208l-1.26-.053.356-8.417 1.26.053zM89.71 103.73l-.757-.033.357-8.416.756.032zM103.544 104.316l-.757-.032.357-8.417.756.032z" fill="#FFF"/>
<path d="m106.54 96.926l-46.572-1.936-0.042-1.059 46.687 2.445z" fill="#155E82"/>
<path d="M108.674 88.742l-50.09-2.5.126 7.685 49.107 2.56z" fill="#B5E8F7"/>
<path d="M74.523 85.265c-1.256-1.737.386-3.836 2.198-3.605 1.59.204 5.122 4.88 5.122 4.88s-6.6-.28-7.32-1.275m2.536-5.742c-2.458-.02-5.165 3.918-3.79 6.63.788 1.556 9.857.662 9.857.662s-3.909-7.275-6.067-7.292M92.658 86.1c-.83.905-7.418.417-7.418.417s4.05-4.235 5.654-4.253c1.827-.02 3.213 2.256 1.764 3.835m-1.852-5.997c-2.146-.234-6.873 6.538-6.873 6.538s8.904 1.941 9.868.488c1.68-2.535-.551-6.76-2.995-7.026" fill="#F7422F"/>
<path d="M83.937 85.322s-2.705-4.226-2.23-5.4c.54-1.339 3.085-1.666 4.113-.135.588.878-1.883 5.535-1.883 5.535m3.19-6.06c-1.846-1.987-6.465-1.629-7.46.073-.875 1.495 3.985 6.977 3.985 6.977s4.534-5.91 3.476-7.05" fill="#F7422F"/>
<path d="M84.516 103.51l-1.45-.062-.194-15.994 2.687.134z" fill="#155E82"/>
<path d="M83.873 103.482l-1.45-.061-.194-15.994 2.691.08z" fill="#F7422F"/>
<path d="M85.951 86.41c-.037.9-1.08 1.588-2.327 1.535-1.247-.053-2.227-.826-2.19-1.727.04-.901 1.081-1.589 2.328-1.536 1.248.053 2.228.826 2.19 1.727" fill="#F7422F"/>
<path d="M87.908 95.612c-.749-.058-1.91.32-1.91.32l-.115 1.164c.26 1.366 4.248.92 4.679.382.026-.369.116-1.417.074-1.79-.958-.043-1.775-.003-2.728-.076" fill="#FFF"/>
<path d="M88.397 95.281c-.865.024-2.173.218-2.249.541-.145.627 1.736.61 2.134.602.568-.014 2.114-.036 2.27-.597.142-.506-1.43-.565-2.155-.546M99.031 97.454c-.704-.055-1.796.3-1.796.3l-.109 1.096c.245 1.285 3.997.866 4.402.358.025-.346.11-1.332.07-1.683-.902-.04-1.67-.002-2.567-.071" fill="#FFF"/>
<path d="M99.491 97.142c-.813.023-2.043.205-2.115.51-.137.588 1.633.573 2.007.565.535-.012 1.989-.033 2.137-.561.132-.476-1.345-.532-2.029-.514M109.338 95.631c-.748-.058-1.91.32-1.91.32l-.114 1.164c.26 1.365 4.247.92 4.679.382.026-.37.115-1.416.074-1.79-.959-.043-1.775-.003-2.729-.076" fill="#FFF"/>
<path d="M109.827 95.3c-.864.024-2.172.218-2.248.541-.145.626 1.736.61 2.133.602.569-.014 2.114-.036 2.271-.597.141-.506-1.43-.565-2.156-.546M65.816 96.17c-.748-.058-1.91.318-1.91.318l-.114 1.165c.26 1.366 4.247.92 4.678.381.026-.368.116-1.415.074-1.788-.958-.043-1.775-.003-2.728-.076" fill="#FFF"/>
<path d="M66.305 95.84c-.864.022-2.172.215-2.248.54-.145.625 1.736.609 2.133.6.569-.012 2.114-.034 2.271-.595.14-.507-1.43-.566-2.156-.546M76.966 95.826c-.749-.058-1.91.319-1.91.319l-.115 1.164c.26 1.366 4.248.921 4.679.382.026-.369.116-1.416.073-1.79-.958-.042-1.774-.002-2.727-.075" fill="#FFF"/>
<path d="M77.455 95.496c-.865.023-2.172.216-2.248.54-.146.626 1.735.61 2.133.6.568-.012 2.114-.033 2.27-.595.142-.507-1.43-.565-2.155-.545M108.63 76.664c-.429.316.147 1.067.576.579.394-.448-.257-.92-.576-.58M105.526 76.185c-.428.315.148 1.065.577.578.393-.447-.26-.918-.577-.578M106.115 79.277c-.432.318.15 1.076.582.584.397-.451-.26-.927-.582-.584" fill="#FFF"/>
<path d="M115.561 88.005c0 .031 0 .064.003.097a4.356 4.356 0 0 1 .017-.355c-.013.095-.019.168-.02.217v.041" fill="#B37E8E"/>
<path d="M73.35 78.519a.103.103 0 0 0-.154.09c0 .037.02.073.053.092.326.183.51.414.567.703a.104.104 0 1 0 .204-.04c-.07-.353-.288-.63-.67-.845" fill="#779073"/>
<path d="M56.554 86.045l.004.02-.001-.02h-.003z" fill="#D6B287"/>
<path d="M88.18 70.8c-.066-.003-.127-.004-.185-.005-1.1-.016-2.756.237-3.288 1.363-.386.822-.44 2.85 2.732 2.85 1.917 0 4.43-.444 3.267-3.263-.31-.75-1.703-.912-2.526-.945" fill="#524543"/>
<path d="M86.266 72.862c-.94.454-2.04.614-3.148.457l25.844 24.848c1.068-.062 2.137-.116 3.206-.173L86.266 72.862zM73.443 69.718c-.886.68-1.996 1.06-3.164.955-.076-.007-.15-.016-.225-.025l30.274 33.063c1.511.189 3.02.397 4.525.626l-31.41-34.619zM99.524 73.612a4.615 4.615 0 0 1-1.006.108 47.903 47.903 0 0 1-2.888-.093l19.186 18.446a18.05 18.05 0 0 1 1.42-2.245L99.524 73.612zM52.683 64.824c-.294.686-.686 1.342-1.04 1.922a24.89 24.89 0 0 1-.23.37l37.066 38.467c1.611.111 3.221.245 4.829.402l-39.339-41.2-1.286.04M113.208 73.871c-.35.084-.715.13-1.09.132-.833.004-1.696.035-2.57.055l11.249 10.814c.29-.646.584-1.287.886-1.917.092-.197.187-.392.281-.589l-8.756-8.495zM41.221 65.558c2.074 3.115 3.6 6.601 5.12 10.073l27.01 28.95c1.59.19 3.18.4 4.763.632L41.462 65.568c-.08-.004-.16-.008-.241-.01" fill="#5A5A5A"/>
<path d="M61.483 99.64c.1.066.188.15.256.257.251.395.443.789.642 1.21.114.24.2.407.377.586l32.126-30.888c-1.358.105-2.714.23-4.068.374l-29.333 28.46zM100.943 72.673l-34.971 34.994c1.64-.154 3.282-.284 4.925-.393l34.778-34.483c-1.578.077-3.16.046-4.732-.118M82.83 102.947c1.387-.129 2.776-.237 4.165-.327l30.988-30.328a18.926 18.926 0 0 1-3.18-.923l-31.972 31.578zM66.746 69.676L49.88 86.542c.592.926 1.202 1.84 1.82 2.75l18.966-18.794c-1.346-.138-2.666-.35-3.92-.822M99.16 103.929l24.901-25.636a81.095 81.095 0 0 0 1.777-4.666c.25-.734.494-1.486.717-2.25L94.7 104.473c1.484-.201 2.972-.381 4.46-.543M79.846 70.964c-.499.005-.998.01-1.497.012L53.632 94.96c.468.76.925 1.529 1.367 2.307l25.78-24.787c-.064-.097-.13-.191-.191-.286a13.775 13.775 0 0 1-.742-1.23" fill="#5A5A5A"/>
<path d="M130.113 75.726c-.942 1.956-4.008 4.202-4.863 5.09-5.558 5.78-9.466 10.81-11.851 18.356-1.145 3.622-3.792 9.82-6.327 3.264-1.078-2.787-.424-4.85.942-7.564 2.36-4.688 5.975-9.94 9.499-13.913 1.551-1.75 9.534-10.66 12.514-7.249.496.57.444 1.271.086 2.016M54.895 69.502l-8.988 8.45c.163.211.31.44.434.686.368.72.712 1.453 1.086 2.17l11.736-10.933a36.712 36.712 0 0 1-4.268-.373" fill="#5A5A5A"/>
<path d="M122.257 76.567c-.413.024-.767.045-1.036.065-8.744.659-17.886-.296-26.672-.537-10.787-.296-21.673-1.36-32.316-3.585-4.16-.87-7.693-2.036-11.91-2.553-4.365-.534-12.624-1.307-11.172-7.624.255-1.11 8.379.174 9.258.386 5.362 1.294 10.924 2.96 16.373 3.83 17.977 2.867 36.376 5.249 54.471 4.11 2.185-.137 13.453-1.29 11.688 3.412-.734 1.956-5.98 2.33-8.684 2.496M59.826 101.083c0 2.512 1.87 5.9 4.73 7.277 2.657 1.28 43.35 1.274 45.644-1.04 1.456-1.466 2.11-4.759 2.548-6.739-12.42 3.13-44.278 3.222-52.922.502" fill="#5A5A5A"/>
<path d="M38.065 67.48c-2.799-4.06-5.162-8.478-6.843-12.621-1.278-3.15-1.343-11.03-5.038-12.18-4.963-1.545-1.19 13.864-.644 15.427 2.156 6.176 5.567 12.126 9.86 17.074 2.14 2.466 11.947 16.19 16.42 9.938 1.321-1.852.205-1.664-1.014-3.048-2.307-2.618-5.512-3.802-7.524-6.71-1.742-2.517-3.43-5.29-5.217-7.88" fill="#5A5A5A"/>
</g>
</svg>
