<svg xmlns="http://www.w3.org/2000/svg" xmlns:xlink="http://www.w3.org/1999/xlink" width="40" height="40" viewBox="0 0 40 40">
    <defs>
        <path id="a" d="M36.25 1H0v26.6c0 2.099 1.679 3.8 3.75 3.8h5V39l7.5-7.6H40V4.8C40 2.701 38.321 1 36.25 1zm-7.5 25.333h-17.5a2.494 2.494 0 0 1-2.167-1.271 2.563 2.563 0 0 1 .008-2.538l.02-.036 8.73-15.164A2.494 2.494 0 0 1 20 6.067c.889 0 1.71.479 2.159 1.257l8.75 15.2c.45.783.454 1.751.008 2.538a2.494 2.494 0 0 1-2.167 1.271zm-8.125-15.2h-1.25a.63.63 0 0 0-.625.634v3.166L19.5 20h1l.75-5.067v-3.166a.63.63 0 0 0-.625-.634zM18.75 23.8h2.5v-2.533h-2.5V23.8z"/>
    </defs>
    <g fill="none" fill-rule="evenodd">
        <mask id="b" fill="#fff">
            <use xlink:href="#a"/>
        </mask>
        <g fill="#000" mask="url(#b)">
            <path d="M0 0h40v40H0z"/>
        </g>
    </g>
</svg>
