<svg xmlns="http://www.w3.org/2000/svg" xmlns:xlink="http://www.w3.org/1999/xlink" width="50" height="50" viewBox="0 0 50 50">
    <defs>
        <circle id="a" cx="25" cy="25" r="25"/>
        <path id="c" d="M0 0h3.086v6.79H0z"/>
        <path id="e" d="M0 0h22.84v37.654H0z"/>
        <path id="g" d="M0 0h33.333v45.062H0z"/>
    </defs>
    <g fill="none" fill-rule="evenodd">
        <mask id="b" fill="#fff">
            <use xlink:href="#a"/>
        </mask>
        <use fill="#EEE" fill-rule="nonzero" xlink:href="#a"/>
        <g mask="url(#b)">
            <g transform="translate(30.247 4.938)">
                <mask id="d" fill="#fff">
                    <use xlink:href="#c"/>
                </mask>
                <path fill="#707070" d="M2.92 5.34c-.037.84-.719 1.487-1.526 1.449C.59 6.75-.035 6.04.001 5.2L.17 1.45C.204.612.887-.037 1.694 0c.805.038 1.428.75 1.39 1.59L2.92 5.34z" mask="url(#d)"/>
            </g>
            <g transform="translate(14.815 8.642)">
                <mask id="f" fill="#fff">
                    <use xlink:href="#e"/>
                </mask>
                <path fill="#000" d="M19.326.707L11.585.356 3.847.004C1.815-.088.093 1.466 0 3.477l1.112 29.89c-.092 2.009 1.48 3.714 3.51 3.807l5.248.238 5.247.238c2.032.093 3.754-1.463 3.846-3.474l3.873-29.662c.09-2.01-1.479-3.715-3.51-3.807" mask="url(#f)"/>
            </g>
            <path fill="#707070" d="M22.218 33.434c-.033.655-.666 1.161-1.412 1.133l-.999-.041c-.745-.03-1.322-.585-1.287-1.24l.002-.054c.034-.654.666-1.161 1.413-1.132l.999.042c.744.03 1.321.585 1.287 1.24l-.003.052zM27.157 33.435c-.034.655-.667 1.162-1.412 1.132l-1-.04c-.744-.031-1.32-.585-1.287-1.241l.004-.055c.033-.653.665-1.16 1.41-1.131l1 .041c.745.03 1.322.585 1.287 1.24l-.002.054zM31.478 34.052c-.035.656-.667 1.162-1.412 1.132l-1-.04c-.744-.03-1.322-.586-1.287-1.24l.002-.054c.034-.656.667-1.164 1.412-1.133l1 .04c.745.03 1.322.587 1.287 1.242l-.002.053zM22.22 29.448c-.036.819-.669 1.452-1.413 1.415l-.999-.05c-.746-.04-1.323-.734-1.288-1.552l.003-.066c.033-.82.665-1.453 1.411-1.416l1 .05c.746.04 1.322.732 1.287 1.552l-.001.067zM27.157 29.447c-.035.82-.667 1.453-1.412 1.416l-.999-.05c-.746-.038-1.322-.733-1.288-1.552l.003-.066c.034-.82.666-1.453 1.411-1.416l1 .053c.746.036 1.32.73 1.287 1.549l-.002.066zM32.094 30.065c-.035.82-.666 1.453-1.411 1.415l-.999-.051c-.744-.036-1.322-.73-1.287-1.55l.004-.067c.033-.819.665-1.452 1.41-1.415l.999.05c.745.038 1.32.733 1.287 1.552l-.003.066zM22.218 37.756c-.033.655-.666 1.162-1.412 1.132l-1-.041c-.744-.031-1.32-.586-1.286-1.24l.002-.054c.035-.655.666-1.163 1.412-1.132l.999.04c.745.03 1.323.585 1.288 1.242l-.003.053zM27.156 37.756c-.034.655-.666 1.16-1.412 1.132l-.998-.042c-.744-.03-1.322-.585-1.288-1.24l.004-.053c.033-.656.666-1.163 1.41-1.132l1 .04c.745.032 1.32.586 1.287 1.24l-.003.055zM31.477 38.373c-.034.655-.667 1.163-1.412 1.132l-.999-.04c-.745-.03-1.322-.585-1.287-1.242l.003-.052c.033-.656.666-1.162 1.412-1.133l.998.04c.746.031 1.322.586 1.288 1.241l-.003.054zM21.6 42.077c-.028.656-.555 1.162-1.174 1.132l-.833-.04c-.62-.03-1.102-.586-1.073-1.24l.003-.053c.027-.656.555-1.163 1.175-1.134l.832.041c.621.031 1.103.587 1.074 1.24l-.003.054zM25.924 42.077c-.03.654-.556 1.161-1.178 1.132l-.832-.04c-.621-.031-1.102-.586-1.073-1.242l.002-.052c.028-.657.556-1.162 1.176-1.133l.833.04c.62.03 1.101.586 1.073 1.242l-.001.053zM30.861 42.077c-.03.654-.556 1.161-1.176 1.132l-.833-.04c-.622-.03-1.103-.586-1.073-1.241l.001-.053c.029-.657.556-1.163 1.177-1.133l.833.04c.62.03 1.1.586 1.073 1.241l-.002.054z"/>
            <g transform="translate(-6.173 22.84)">
                <mask id="h" fill="#fff">
                    <use xlink:href="#g"/>
                </mask>
                <path fill="#714E46" d="M21.879 0s-4.554 4.822-5.566 6.236c-.522.727-1.013 2.003-1.508 4.667-.86 4.634-1.661 9.586-1.917 10.217C12.633 21.75 0 45.062 0 45.062h14.65s6.18-19.288 7.2-20.677c1.022-1.388 2.598-2.996 3.827-5.426 1.42-2.812 1.59-3.615 3.788-6.428 2.919-3.74 3.995-4.124 3.857-5.348-.247-2.212-3.574-1.168-6.453 1.233-2.463 2.052-3.547 3.547-4.553 3.656L21.88 0z" mask="url(#h)"/>
            </g>
            <path fill="#FF7900" d="M33.343 13.026l-6.467-.297-8.31-.383a.635.635 0 0 0-.665.609l.421 11.713a.636.636 0 0 0 .605.666l3.01.14 9.809.451a.635.635 0 0 0 .662-.608l1.542-11.624a.64.64 0 0 0-.607-.667"/>
            <path fill="#FFF" d="M24.952 20.73c-.804-.804-1.02-1.59-.792-1.836.433-.443.42-.52.765-.09.346.43.323.404-.02.747-.136.136.15.481.447.78.298.297.643.582.779.446.34-.341.316-.366.746-.02.409.333.373.307-.09.766-.224.219-1.031.012-1.835-.792zm5.295-2.135l-3.486-.61-1.452-3.17-1.453 3.17-3.486.61 2.615 2.438-.872 3.658 3.196-1.829 3.195 1.83-.871-3.659 2.614-2.438z"/>
        </g>
    </g>
</svg>
