<svg xmlns="http://www.w3.org/2000/svg" xmlns:xlink="http://www.w3.org/1999/xlink" width="81" height="81" viewBox="0 0 81 81">
    <defs>
        <circle id="a" cx="40.5" cy="40.5" r="40.5"/>
        <path id="c" d="M0 0h5v11H0z"/>
        <path id="e" d="M0 0h37v61H0z"/>
        <path id="g" d="M0 0h54v73H0z"/>
    </defs>
    <g fill="none" fill-rule="evenodd">
        <mask id="b" fill="#fff">
            <use xlink:href="#a"/>
        </mask>
        <use fill="#EEE" fill-rule="nonzero" xlink:href="#a"/>
        <g mask="url(#b)">
            <g transform="translate(49 8)">
                <mask id="d" fill="#fff">
                    <use xlink:href="#c"/>
                </mask>
                <path fill="#707070" d="M4.73 8.65c-.06 1.36-1.164 2.41-2.471 2.347C.954 10.935-.056 9.785.002 8.425L.274 2.35C.331.992 1.437-.06 2.744.003c1.305.06 2.314 1.213 2.253 2.573L4.73 8.651z" mask="url(#d)"/>
            </g>
            <g transform="translate(24 14)">
                <mask id="f" fill="#fff">
                    <use xlink:href="#e"/>
                </mask>
                <path fill="#000" d="M31.308 1.145L18.768.577 6.232.007C2.94-.144.151 2.375 0 5.631l1.802 48.422c-.149 3.254 2.396 6.018 5.685 6.168l8.502.385 8.501.387c3.29.149 6.081-2.37 6.23-5.629l6.274-48.052c.147-3.256-2.395-6.018-5.686-6.168" mask="url(#f)"/>
            </g>
            <path fill="#707070" d="M35.994 54.163c-.055 1.061-1.08 1.882-2.288 1.835l-1.619-.066c-1.207-.047-2.14-.947-2.085-2.009l.003-.088c.056-1.06 1.08-1.88 2.29-1.833l1.618.067c1.206.05 2.14.948 2.085 2.009l-.004.085zM43.994 54.164c-.055 1.061-1.08 1.883-2.287 1.834l-1.619-.065c-1.207-.05-2.14-.948-2.086-2.01l.006-.088c.054-1.059 1.078-1.88 2.285-1.833l1.619.067c1.207.048 2.142.947 2.086 2.009l-.004.086zM50.994 55.164c-.056 1.063-1.08 1.883-2.287 1.834l-1.619-.065c-1.207-.05-2.142-.95-2.086-2.01l.004-.085c.054-1.063 1.08-1.886 2.287-1.836l1.62.065c1.206.048 2.141.95 2.085 2.01l-.004.087zM35.996 47.705c-.057 1.327-1.083 2.353-2.289 2.292l-1.618-.081c-1.209-.063-2.144-1.188-2.087-2.513l.005-.107c.054-1.329 1.078-2.354 2.287-2.293l1.618.08c1.21.064 2.143 1.186 2.085 2.514l-.001.108zM43.995 47.704c-.057 1.328-1.08 2.353-2.288 2.294l-1.618-.082c-1.21-.06-2.142-1.186-2.087-2.513l.005-.107c.056-1.328 1.08-2.354 2.286-2.293l1.62.084c1.208.06 2.139 1.185 2.085 2.51l-.003.107zM51.992 48.705c-.057 1.327-1.078 2.354-2.286 2.292l-1.618-.082c-1.205-.058-2.141-1.183-2.086-2.512l.008-.108c.053-1.326 1.077-2.351 2.285-2.293l1.617.083c1.206.06 2.14 1.186 2.086 2.513l-.006.107zM35.994 61.164c-.055 1.061-1.08 1.883-2.288 1.834l-1.62-.067c-1.206-.05-2.14-.948-2.084-2.009l.004-.087c.057-1.06 1.08-1.884 2.288-1.833l1.617.065c1.207.047 2.143.947 2.087 2.011l-.004.086zM43.992 61.165c-.055 1.061-1.078 1.88-2.287 1.833l-1.617-.067c-1.204-.05-2.142-.947-2.086-2.009l.007-.085c.054-1.064 1.078-1.884 2.284-1.835l1.62.065c1.206.051 2.14.95 2.085 2.01l-.006.088zM50.992 62.164c-.055 1.06-1.079 1.884-2.286 1.834l-1.619-.065c-1.207-.049-2.141-.948-2.085-2.012l.004-.084c.055-1.063 1.08-1.882 2.288-1.835l1.617.065c1.208.05 2.141.95 2.087 2.01l-.006.087zM34.993 68.165c-.046 1.062-.9 1.883-1.904 1.833l-1.348-.063c-1.006-.05-1.785-.951-1.739-2.01l.005-.086c.044-1.063.9-1.884 1.904-1.837l1.347.066c1.007.051 1.787.951 1.74 2.01l-.005.087zM41.997 68.165c-.048 1.06-.901 1.881-1.909 1.833l-1.348-.065c-1.006-.05-1.784-.95-1.738-2.01l.003-.085c.047-1.064.9-1.883 1.905-1.836l1.35.066c1.006.047 1.784.948 1.738 2.01l-.001.087zM49.995 68.164c-.048 1.06-.9 1.882-1.905 1.834l-1.35-.065c-1.008-.049-1.786-.95-1.738-2.01l.002-.086c.046-1.063.9-1.883 1.906-1.835l1.35.065c1.005.05 1.783.95 1.738 2.01l-.003.087z"/>
            <g transform="translate(-10 37)">
                <mask id="h" fill="#fff">
                    <use xlink:href="#g"/>
                </mask>
                <path fill="#714E46" d="M35.444 0s-7.378 7.811-9.017 10.102c-.846 1.179-1.641 3.245-2.443 7.56-1.395 7.509-2.691 15.53-3.105 16.552C20.466 35.235 0 73 0 73h23.734s10.011-31.247 11.664-33.496c1.654-2.249 4.208-4.853 6.199-8.79 2.301-4.555 2.576-5.857 6.136-10.414 4.728-6.058 6.473-6.681 6.248-8.663-.4-3.584-5.789-1.892-10.454 1.997-3.99 3.324-5.745 5.746-7.375 5.923L35.444 0z" mask="url(#h)"/>
            </g>
            <path fill="#FF7900" d="M54.015 21.102l-10.476-.48-13.464-.62a1.03 1.03 0 0 0-1.075.985l.682 18.975a1.03 1.03 0 0 0 .98 1.08l4.877.224L51.428 42a1.029 1.029 0 0 0 1.074-.986l2.497-18.83a1.038 1.038 0 0 0-.984-1.081"/>
            <path fill="#FFF" d="M40.422 33.584c-1.302-1.304-1.653-2.578-1.284-2.976.703-.717.68-.843 1.24-.145.56.697.524.654-.03 1.21-.222.22.24.78.722 1.262.483.483 1.041.944 1.262.723.552-.552.512-.592 1.208-.03.663.538.604.496-.144 1.24-.364.354-1.671.019-2.974-1.284zM49 30.124l-5.647-.988L41 24l-2.353 5.136-5.647.987 4.235 3.951L35.824 40 41 37.037 46.177 40l-1.412-5.926L49 30.124z"/>
        </g>
    </g>
</svg>
