<svg xmlns="http://www.w3.org/2000/svg" xmlns:xlink="http://www.w3.org/1999/xlink" width="288" height="218" viewBox="0 0 288 218">
    <defs>
        <path id="a" d="M.073.253h61.35V104.89H.073z"/>
        <path id="c" d="M.076.207h75.496v40.08H.076z"/>
        <path id="e" d="M7.95 4.698L.75 21.24a7.484 7.484 0 0 0 3.876 9.85l28.967 12.605a7.484 7.484 0 0 0 9.849-3.877l7.199-16.542a7.484 7.484 0 0 0-3.877-9.85L17.8.822a7.462 7.462 0 0 0-2.983-.623 7.488 7.488 0 0 0-6.867 4.5z"/>
        <path id="g" d="M21.28 3.148L3.28 20.927C-.843 25-.883 31.646 3.191 35.769l31.13 31.516c4.074 4.124 10.72 4.165 14.843.091l17.999-17.78c4.123-4.073 4.164-10.718.09-14.842L36.124 3.24A10.463 10.463 0 0 0 28.654.12c-2.665 0-5.33 1.008-7.376 3.029z"/>
    </defs>
    <g fill="none" fill-rule="evenodd">
        <path fill="#B5E8F7" d="M22.591 95.708c5.226-3.987 101.406-72.963 112.535-51.94 11.13 21.024-118.718 76.054-.618 35.245 118.1-40.81 148.398-45.756 129.848-22.26-18.55 23.497-34.626 50.085-13.603 50.085 21.023 0 48.847 22.26 31.535 33.389-17.313 11.13-42.665 21.023-29.062 29.061 13.603 8.039.618 16.077-6.183 19.787-6.802 3.71-142.215 25.97-175.604 22.878-33.39-3.092-83.474.618-51.32-16.695 32.152-17.313 59.977-43.283 37.098-35.863-22.877 7.42-55.648-3.091-32.152-20.404 23.496-17.314-62.451 2.473-2.474-43.283"/>
        <g transform="translate(24 111.72)">
            <mask id="b" fill="#fff">
                <use xlink:href="#a"/>
            </mask>
            <path fill="#714F47" d="M52.705 1.39c-2.108-3.548-8.715 2.05-11.867 5.265-3.18 3.242-7.273 5.664-9.956 9.384-2.683 3.718-2.855 9.22-3.306 13.755-1.048 10.543 2.004 24.044-1.075 34.3-1.475 4.914-44.694 76.388-38.79 77.784 5.103 1.207 26.312-.367 31.127 2.11 2.924 1.504 4.467 3.276 6.644.078 1.4-2.056 25.242-74.133 26.308-76.367 1.31-2.747 2.404-4.979 4.345-7.374 4.798-5.919 2.596-16.244 3.475-23.749.903-7.719 4.72-12.617-2.515-18.558-4.416-3.625-1.476-11.723-4.39-16.629" mask="url(#b)"/>
        </g>
        <path fill="#595959" d="M78.28 62.154c2.656-2.032 5.844-1.934 9.502-1.927 3.739.007 8.652-.06 12.388-.115 3.611-.054 7.447-.132 11.059-.109 3.214.02 8.655-.088 11.401 1.793 2.449 1.679 3.706 5.449 4.11 8.33.82 5.83.067 11.74.007 17.594-.074 7.216.052 13.906.144 21.122.07 5.368.07 12.446-.124 17.811-.164 4.544.15 7.937-.056 12.479-.148 3.28.678 7.45-2.435 9.94-1.948 1.56-5.065 2.122-7.441 2.32-3.768.314-7.55-.003-11.324.086-4.4.104-8.785-.101-13.177-.387-3.856-.25-8.58.65-12.212-.684-4.123-1.513-5.289-5.585-5.419-10.177-.493-17.47.447-35.075-.255-52.431-.194-4.788.268-9.8.5-14.669.195-4.064-.352-8.158 3.333-10.976"/>
        <path fill="#000" d="M114.59 60.081c.513-.284 1.403-.549 3.013-.373.62.068 1.202.267 1.585.516 0 .41.09.918-.423 1.233-.401.246-1.509.414-2.024.404-.626-.011-1.108-.089-1.645-.324-.787-.343-.446-.926-.506-1.456"/>
        <path fill="#595959" d="M117.928 59.573c.814.12 1.487.892.32 1.173h-.002c-1.486.357-2.302-.516-1.82-.968.218-.204.7-.323 1.502-.205"/>
        <path fill="#000" d="M84.426 62.872c7.536.004 27.726-.18 33.75-.176 7.974.004 7.67 10.002 7.773 12.764.038 1.003.025 27.522.013 46.759-.008 10.836-.015 19.361-.013 19.714.034 8.211-4.064 9.579-9.427 9.576l-28.851-.015c-12.062-.005-12.022-3.382-12.019-10.758.002-2.376-.076-15.147-.154-28.717-.08-13.652-.158-28.113-.155-33.606 0-.736-.027-1.483-.055-2.228-.192-5.225-.265-13.317 9.138-13.313"/>
        <path fill="#595959" d="M93.185 64.839c1.731.026 2.59.127 3.882.086 1.254-.042 4.737-.006 7.412.018.616.005 6.8-.501 4.736 1.42-.593.552-2.049.312-2.786.35-1.842.096-4.365.035-6.597.043a999.49 999.49 0 0 1-6.725-.002c-2.464-.007-1.89-1.944.078-1.915"/>
        <path fill="#000" d="M114.446 140.41c2.59.257 4.735.167 7.284-.712l2.287-1.217c1.513 3.3.638 8.092-1.88 10.754-2.124 2.244-5.992 2.131-8.855 1.81-3.215-.359-6.595-.472-7.064-3.753-.297-2.073-1.618-4.663-1.538-6.762.012-.284 8.91-.204 9.766-.12"/>
        <path fill="#FFF" d="M77.876 136.746l-.027-9.515-.045-16.282h.005l-.017-6.503c-.009-3.538-.118-21.96-.126-25.499-.006-1.84.008-2.197-.004-4.037-.034-5.062 2.947-5.593 6.066-5.644 3.716-.063 5.4-.1 9.117-.166 5.44-.095 10.88-.19 16.32-.279 2.527-.041 4.675-.094 7.204-.133 2.212-.034 6.684.162 6.712 4.362.019 2.847.158 25.253.178 28.1.02 3.014.044 6.026.064 9.04h.001l.138 19.368c.01 1.772.02 3.323.042 5.566.018 1.885.509 6.187-7.368 6.318-3.144.053-29.462.428-32.06.49-6.151.149-6.196-4.12-6.2-5.186"/>
        <path fill="#9DAAC0" d="M105.45 136.329l.014.021-.013-.021"/>
        <path fill="#233143" d="M121.096 105.644c-.025.027-.05.056-.076.082l.076-.083zM120.713 105.4l-.001-.021.006.02-.005.002zM79.878 104.91l-.002-.022.008.019-.006.002z"/>
        <path fill="#8F8F8F" d="M94.689 145.403c1.136-.261 2.61-.292 3.631-.366.94-.068 3.545-.009 5.547.03.842.015 5.906-.24 3.838 2.21-.494.584-1.735.642-2.378.715-1.378.158-3.267.058-4.938.07-1.839.014-2.848.009-5.03-.003-1.847-.01-3.108-2.097-.67-2.656"/>
        <path fill="#FF7900" d="M64.697 176.431c-.064.032-.113.058 0 0M43.746 178.745c1.512-2.28 4.409-3.25 7.009-3.486 4.838-.44 9.788 1.027 14.262 2.706 3.148 1.182 6.524 2.446 9.168 4.573 2.54 2.043 4.569 4.875 5.54 7.998.595 1.91.981 4.046.237 5.974-.52 1.346-1.609 2.447-2.783 3.247-2.429 1.657-6.718 2.76-9.587 3.287-.23.042-.396.02-.52-.046.686-1.34 1.151-2.785 1.533-4.24.206-.04.412-.079.617-.123.1-.021.198-.045.297-.066l.016-.003c.568-.169 1.14-.31 1.704-.497a21.2 21.2 0 0 0 1.506-.561 17.175 17.175 0 0 0 1.133-.522c.057-.029.456-.265.238-.13.392-.24.778-.483 1.139-.77.11-.088.216-.182.323-.274.16-.185.304-.427.477-.59.033-.078.073-.153.106-.231l.05-.168c.018-.132.063-.402.059-.377.002-.011.015-.216.019-.223a5.789 5.789 0 0 0-.032-.487 9.017 9.017 0 0 0-.179-1.113c-.012-.049-.041-.165-.05-.19-.05-.17-.098-.341-.152-.51a13.791 13.791 0 0 0-.755-1.881c-.062-.128-.127-.255-.193-.382-.038-.074-.059-.118-.07-.143a3.32 3.32 0 0 1-.083-.123c-.366-.575-.736-1.139-1.162-1.672-.559-.699-.708-.861-1.32-1.415-1.07-.967-1.932-1.547-3.091-2.104a73.182 73.182 0 0 0-4.54-1.986 59.073 59.073 0 0 0-4.403-1.569c.026.008-.201-.06-.316-.096a55.472 55.472 0 0 0-.665-.188 38.577 38.577 0 0 0-1.739-.431 29.587 29.587 0 0 0-3.109-.533 22.525 22.525 0 0 0-1.243-.108c-.062-.004-.338-.014-.445-.019h-.05c-.123 0-.245 0-.367.002-.717.012-1.433.067-2.14.187-.146.025-.29.055-.436.083l-.027.005c-.276.08-.551.162-.82.264-.228.086-.445.187-.665.288l-.012.005c-.072.044-.144.087-.215.133-.18.12-.354.25-.52.39-.028.023-.057.052-.085.08-.043.042-.086.084-.132.114l.074-.049c-.118.137-.217.285-.325.426-.03.06-.06.119-.087.18-.03.066-.054.136-.08.205l-.066.375a.811.811 0 0 0-.014-.136c.01.052.009.111.008.17a1.252 1.252 0 0 0-.015.097c-.364.95-.523 1.975-.99 2.898a39.16 39.16 0 0 1-.785 1.451c-.338-.102-.764-.484-1.369-1.362-1.288-1.979-1.169-4.388.122-6.334M60.385 181.271c-.067.033-.118.06 0 0"/>
        <path fill="#714F47" d="M151.475 146.506c3.155-.94 7.476-.51 10.239-2.332 8.193-5.405 16.122-11.205 23.193-17.745 1.54 2.704 3.104 5.435 4.412 7.685 1.761 3.028 3.792 5.921 5.586 8.931 1.483 2.49 1.064 4.983 3.213 7.26 2.741 2.902 7.91 3.517 10.248 6.486 1.557 1.978 1.058 4.347 1.358 6.78 1.384 11.207 18.898 22.647 5.618 32.701-5.289 4.005-11.834 6.537-17.933 9.024-4.93 2.011-10.226 2.212-12.857-2.969-2.242-4.412-2.47-9.191-6.312-12.79-3.455-3.24-8.475-4.102-11.9-7.19-4.88-4.402-8.818-10.7-12.143-16.328-2.956-5.006-6.599-10.627-6.324-16.701.074-1.653 2.126-2.373 3.602-2.812"/>
        <g transform="translate(178.112 176.323)">
            <mask id="d" fill="#fff">
                <use xlink:href="#c"/>
            </mask>
            <path fill="#50BE87" d="M.424 24.116C1.198 22.758 35.394.457 39.722.211c2.876-.162 5.724 4.328 7.023 5.883 5.253 6.29 56.07 67.307 57.31 79.913H37.222C24.688 74.51 6.27 38.379.97 28.267c-.981-1.872-1.14-3.105-.546-4.15" mask="url(#d)"/>
        </g>
        <path fill="#714F47" d="M139.937 136.028c-.852.087-1.712.412-2.55 1.041-.39.292 7.15 13.513 10.479 10.737 4.224-3.529-3.745-12.198-7.93-11.778"/>
        <path fill="#714F47" d="M147.431 125.672c1.948.799 4.225 2.303 5.44 1.617 1.75-.988-3.142-4.704-4.023-5.55-1.443-1.383-3.109-2.66-4.46-4.144-.858-.94-1.897-2.343-1.062-3.632.875-1.351 2.404-.16 3.4.443 4.897 2.962 9.4 6.592 13.927 10.082 2.418 1.865 4.949 3.677 7.413 5.46 1.704 1.232 3.384 3.124 5.504 2.603 1.555-.381 3.387-2.334 4.524-.139.658 1.268.958 2.87 1.18 4.488.199 1.437.336 2.885.608 4.12.451 2.048.199 4.109-.071 6.16-.3 2.281 1.023 9.46 1.023 9.46-.97 3.3-.788 6.294-4.625 6.694-3.254.34-7.032-.637-9.785-2.417-1.612-1.042-1.896-2.323-3.958-1.907-1.684.34-3.22 1.658-5.022 1.352-1.473-.251-2.508-2.516-3.307-3.65-1.995-2.834-7.828-8.475-6.275-12.222 1.33-3.213 2-3.31.584-6.98-1.2-3.11-4.507-6.083-4.48-9.608.023-3.115 1.592-3 3.465-2.23M147.18 105.696c.549.681 1.032 1.369 1.418 1.987.927 1.49 1.343 4.338 3.319 4.897 2.1.59 3.115-3.275 3.456-4.741.802-3.451-2.385-5.87-5.059-7.488-2.95-1.782-5.64-1.287-7.148 1.825 1.41.671 2.856 2.081 4.014 3.52"/>
        <path fill="#714F47" d="M146.135 125.468l.888 1.587c-.028.358-.864 4.63-1.14 4.518-2.316-.939-4.75-3.866-3.79-6.416.427-1.138 2.539-3.937 3.934-2.407.692.759-.317 1.947.108 2.718"/>
        <path fill="#838080" d="M156.02 90.617c2.563-1.519 5.374-1.098 8.61-.708 3.308.4 7.664.857 10.977 1.2 3.201.333 6.604.667 9.798 1.067 2.843.356 7.67.832 9.902 2.785 1.99 1.743 2.707 5.212 2.762 7.804.112 5.245-1.174 10.397-1.843 15.572-.824 6.378-1.415 12.311-2.091 18.708-.504 4.758-1.248 11.023-1.982 15.75-.623 4.004-.703 7.04-1.361 11.038-.476 2.887-.183 6.665-3.2 8.542-1.888 1.175-4.706 1.345-6.83 1.27-3.366-.118-6.681-.795-10.03-1.114-3.906-.37-7.765-1.013-11.621-1.726-3.388-.627-7.662-.327-10.736-1.89-3.49-1.771-4.095-5.499-3.726-9.576 1.4-15.511 4.081-30.995 5.284-46.43.331-4.256 1.266-8.643 1.984-12.928.6-3.577.546-7.257 4.103-9.364"/>
        <path fill="#FFF" d="M159.4 96.578c5.847.85 11.782 1.152 17.611 2.098 4.415.717 9.133.12 13.388 1.717 5.427 2.034 5.647 6.996 5.042 12.1l-1.088 9.17-2.564 21.607-1.424 12.006c-.389 3.274.197 7.363-1.802 10.216-.24.34-.5.622-.776.853-2.143 1.783-5.327.524-8.024.204l-21.651-2.569-11.507-1.365a567291.908 567291.908 0 0 1 3.366-28.371c1.29-10.879 2.513-21.73 3.455-32.632.344-3.986 1.87-5.63 5.974-5.034"/>
        <path fill="#1B2734" d="M188.371 92.599c.485-.199 1.3-.34 2.706-.014.542.125 1.036.362 1.349.623-.043.362-.018.822-.504 1.046-.38.176-1.38.208-1.834.146-.552-.076-.971-.196-1.422-.46-.66-.386-.297-.867-.295-1.341"/>
        <path fill="#000" d="M191.379 92.5c.708.19 1.223.945.16 1.071h-.002c-1.353.16-1.983-.699-1.508-1.048.214-.157.652-.212 1.35-.024M148.11 155.128c.338-2.748 5.581-46.94 5.96-50.008.196-1.595.248-1.903.437-3.498.524-4.391 3.19-4.495 5.923-4.17 3.257.389 4.735.557 7.993.942 4.769.565 9.538 1.131 14.305 1.7 2.216.266 4.102.475 6.318.742 1.938.234 5.838 1.146 5.258 5.717-.312 2.467-2.484 20.762-2.777 23.232l-.495 4.166-.436 3.673-1.995 16.799c-.183 1.537-.219 1.8-.445 3.747-.119 1.022.25 6.596-7.261 5.68-2.755-.336-25.819-3.136-28.099-3.391-5.395-.604-4.799-4.407-4.685-5.33m3.786-52.409c-.055.662-.109 1.327-.186 1.978-.58 4.86-2.03 17.667-3.395 29.759-1.357 12.017-2.63 23.328-2.88 25.43-.778 6.527-1.17 9.512 9.505 10.784 5.173.616 20.36 2.428 25.532 3.046 4.746.565 8.517-.215 9.35-7.484.035-.313.938-7.858 2.082-17.447 2.033-17.024 4.831-40.492 4.903-41.384.2-2.454 1.52-11.271-5.537-12.113-5.332-.636-23.22-2.596-29.888-3.391-8.322-.992-9.108 6.178-9.486 10.822"/>
        <path fill="#000" d="M168.928 94.56c1.53.204 2.28.385 3.427.483 1.114.095 4.192.493 6.556.795.546.07 6.071.272 4.044 1.755-.583.426-1.847.06-2.503.017-1.64-.109-3.866-.428-5.843-.656-2.176-.25-3.37-.395-5.952-.708-2.18-.265-1.468-1.92.27-1.686"/>
        <path fill="#81C8A6" d="M188.756 155.503c-.013.132-.026.264-.041.396l-.008-.001c.02-.094.03-.193.03-.3l.002-.097.017.002"/>
        <path fill="#838080" d="M161.298 165.101c1.026-.148 2.318-.027 3.22.003.83.028 3.102.36 4.848.606.734.105 5.193.37 3.087 2.66-.502.546-1.595.476-2.166.485-1.225.017-2.864-.281-4.327-.442-1.609-.176-2.491-.287-4.399-.525-1.614-.202-2.462-2.468-.263-2.787"/>
        <path fill="#714F47" d="M153.632 112.23c.25-.973.26-2-.036-2.988-3.158.294-13.065 1.958-10.242 7.225 2.358 4.4 9.471-1.088 10.278-4.237M152.57 123.311c.25-.973.261-2-.034-2.988-3.16.294-13.066 1.958-10.243 7.225 2.357 4.4 9.472-1.087 10.278-4.237"/>
        <path fill="#66413E" d="M148.838 111.328c1.152 2.108 3.472-.56 4.303-1.654.327-.432 1.002.075.672.509-.744.979-1.636 1.93-2.74 2.5-.503.259-1.102.383-1.655.228-.635-.178-1.048-.689-1.353-1.246-.261-.478.515-.81.773-.337M148.405 123.104c.949 1.13 2.833-.413 3.545-1.148.373-.385 1.051.118.673.508-1.13 1.167-3.475 2.835-4.88 1.162-.35-.417.314-.938.662-.522"/>
        <path fill="#714F47" d="M191.153 114.299c1.263 3.639 3.98 6.47 6.663 9.175 2.035 2.052 5.28 3.888 6.897 6.33.595 5.952 3.422 11.572 7.115 16.328.267.72.434 1.463.437 2.237.001.152-.001.307-.004.462-.116 6.156-.038 15.534-.4 21.703-4.565 2.378-4.818 2.649-8.767 4.992-.54-.342-.8-3.425-1.319-3.807-1.586-1.17-2.883-2.628-4.582-3.654-1.034-.624-2.494-.992-3.3-1.943-2.05-2.423-.688-7.473-.564-10.357.202-4.685-.554-9.611.003-14.254.438-3.65.054-6.336-2.059-9.592-.19-.294-.497-.554-.823-.81-.374-.294-.774-.581-1.054-.908-1.223-1.423-1.982-3.43-2.223-5.328-.418-3.307.037-9.325 3.98-10.574"/>
        <path fill="#66413E" d="M189.858 119.453c.274 1.034.984 1.863 2.013 2.189.97.306 2.013-.095 2.654-.845.352-.41 1.028.094.674.51-.858 1.001-2.152 1.497-3.452 1.168-1.418-.358-2.358-1.52-2.723-2.895-.14-.526.696-.646.834-.127"/>
        <path fill="#FF7900" d="M131.72 51.972l-28.226-1.245s6.866-25.265 47.072-21.999c13.553 1.102 31.888 16.318 34.425 41.713l6.533-.377-13.497 17.2-12.788-14.98 5.178-.46s-9.38-40.638-27.767-40.96c-5.149-.09-9.674 6.534-10.93 21.108"/>
        <path fill="#000" d="M183.425 206.668l.499-.502c.75-.755.81-2.13 0-2.875-.81-.744-2.074-.806-2.875 0l-.5.502c-.75.755-.81 2.131 0 2.875.81.744 2.074.806 2.876 0M187.027 204.453c1.245-.409 2.2-1.154 2.95-2.221.612-.874.187-2.298-.73-2.782-1.041-.55-2.128-.203-2.781.73-.125.174-.093.134.096-.12a3.447 3.447 0 0 1-.345.346c.238-.176.295-.219.17-.13-.12.077-.243.149-.363.226-.194.095-.143.078.153-.051-.076.03-.153.057-.23.08-1.01.331-1.77 1.422-1.42 2.502.325 1.006 1.418 1.775 2.5 1.42M194.254 200.453l1.484-1.028c.872-.604 1.356-1.81.73-2.781-.56-.868-1.848-1.377-2.783-.73l-1.483 1.028c-.873.604-1.356 1.81-.73 2.781.56.868 1.847 1.377 2.782.73M201.683 195.239c-.143.288-.176.365-.096.229.08-.132.033-.068-.144.194l-.232.183c-.32.114-.378.143-.173.087 1.034-.252 1.752-1.477 1.42-2.5-.347-1.074-1.393-1.69-2.501-1.42-1.08.263-1.868 1.106-2.195 2.146-.32 1.015.376 2.263 1.42 2.5 1.107.253 2.16-.332 2.5-1.419M206.99 192.215c-.05.067-.288.322-.09.147l-.086.076c.15-.132-.364.103-.169.061.15-.031.435-.081-.144-.011.559-.068 1.025-.183 1.438-.596.353-.352.618-.931.596-1.437-.045-.992-.903-2.17-2.034-2.034-.637.077-1.174.179-1.74.506-.543.315-.913.74-1.283 1.235-.295.396-.33 1.114-.205 1.567.13.472.495.983.935 1.215.471.25 1.043.375 1.567.205.535-.173.88-.487 1.215-.934M212.78 189.195l2.016-.974c.96-.464 1.292-1.91.73-2.782-.636-.985-1.755-1.226-2.782-.73l-2.015.975c-.96.464-1.293 1.909-.73 2.782.635.985 1.755 1.225 2.782.73M218.783 185.932l1.5-.755c.952-.48 1.298-1.9.729-2.783-.627-.973-1.764-1.241-2.782-.729l-1.5.755c-.952.48-1.298 1.899-.729 2.782.627.973 1.764 1.242 2.782.73"/>
        <path fill="#000" d="M223.02 183.972c2.617 0 2.621-4.066 0-4.066-2.616 0-2.62 4.066 0 4.066"/>
        <path fill="#FFF" d="M186.517 213.755l1.975-1.052c.94-.5 1.308-1.884.729-2.782-.616-.955-1.776-1.265-2.781-.729-.66.35-1.317.701-1.976 1.052-.94.5-1.308 1.884-.73 2.782.617.955 1.777 1.265 2.783.729M193.437 209.171l.498-.502c.752-.755.812-2.131 0-2.875-.809-.744-2.073-.806-2.874 0l-.5.502c-.75.755-.81 2.13 0 2.875.81.744 2.074.806 2.876 0M198.508 206.203l1.502-.751c.953-.476 1.297-1.9.729-2.782-.628-.975-1.762-1.239-2.782-.73l-1.501.752c-.954.476-1.298 1.9-.73 2.781.629.976 1.762 1.24 2.782.73M205.513 202.2l1.274-.971c.44-.335.781-.66.935-1.215.133-.487.073-1.135-.206-1.567-.537-.833-1.877-1.42-2.781-.73l-1.274.972c-.44.335-.782.66-.935 1.215-.134.487-.073 1.135.205 1.567.537.833 1.877 1.419 2.782.729M210.003 198.665l1.265-.728c.922-.531 1.322-1.863.729-2.782-.6-.93-1.795-1.298-2.781-.73l-1.265.729c-.922.531-1.322 1.863-.73 2.782.6.93 1.796 1.297 2.782.73M215.75 195.393l2.823-1.63c.921-.533 1.322-1.863.73-2.782-.6-.93-1.797-1.299-2.783-.73-.94.544-1.882 1.087-2.823 1.63-.921.533-1.322 1.863-.73 2.782.6.93 1.797 1.299 2.782.73"/>
        <path fill="#FFF" d="M221.77 191.92l.743-.512c.875-.602 1.355-1.812.73-2.782-.56-.87-1.845-1.374-2.782-.73l-.743.512c-.875.601-1.355 1.812-.73 2.782.561.87 1.845 1.374 2.782.73M226.8 188.95l.5-.25c.954-.476 1.298-1.9.73-2.782-.629-.975-1.762-1.24-2.782-.729l-.5.25c-.954.477-1.298 1.9-.73 2.782.629.975 1.762 1.24 2.782.73M153.556 86.4l-6.703-7.282c-1.7-1.847-4.446.91-2.752 2.751l6.704 7.283c1.7 1.847 4.446-.91 2.751-2.751M161.497 81.795l-3.768-8.267c-1.037-2.276-4.392-.3-3.36 1.965l3.767 8.267c1.038 2.276 4.393.3 3.36-1.965M200.755 90.568l3.546-6.983c1.132-2.228-2.224-4.2-3.36-1.964l-3.547 6.982c-1.132 2.229 2.225 4.2 3.36 1.965M203.587 99c2.484-1.077 5.065-1.894 7.697-2.52 2.436-.578 1.405-4.332-1.034-3.752-2.974.707-5.824 1.696-8.628 2.91-2.292.994-.312 4.348 1.965 3.361"/>
        <path fill="#714F47" d="M88.765 121.236c-6.077 5.062-5.198 16.936-14.213 19.854-1.6.518-3.228 1.449-4.853 1.103-1.955-.417-2.864-2.082-4.16-3.44.53.554-.06 4.308-.097 5.134-.064 1.396-.213 2.695-.697 4.013-.896 2.437-1.562 4.278-1.247 6.972.593 5.065-3.056 20.28 1.76 22.616 7.123 3.457 16.205-4.504 18.995-10.952.637-1.474 3.217-8.72 3.461-10.27.529-3.362.618-8.97 1.131-12.323 1.167-7.616 6.413-18.532 7.604-22.38.823-2.663-3.835-3.533-7.684-.327"/>
        <path fill="#806059" d="M94.31 119.954c-1.933 2.009-3.718 4.374-4.065 7.14-.075.594-.076 1.22.175 1.764.25.543.805.981 1.402.94.619-.044 1.092-.554 1.47-1.046a19.206 19.206 0 0 0 3.494-7.4c.132-.577.183-1.305-.307-1.636-.432-.292-1.012-.085-1.487.129"/>
        <path fill="#FF7900" d="M136.13 98.025l-7.198 16.543a7.485 7.485 0 0 1-9.85 3.876L90.116 105.84a7.483 7.483 0 0 1-3.876-9.85l7.199-16.542a7.484 7.484 0 0 1 9.85-3.876l28.965 12.605a7.485 7.485 0 0 1 3.877 9.85"/>
        <g transform="translate(85.489 74.75)">
            <mask id="f" fill="#fff">
                <use xlink:href="#e"/>
            </mask>
            <path fill="#000" d="M36.928 7.571c-7.161 16.458-14.517 13.257-21.68 29.715L43.845 49.73l14.323-32.916-21.239-9.243z" mask="url(#f)"/>
        </g>
        <path fill="#FF7900" d="M184.175 138.745l-17.999 17.78c-4.124 4.073-10.77 4.033-14.843-.091l-31.13-31.516c-4.075-4.124-4.034-10.769.09-14.843l17.999-17.779c4.123-4.073 10.769-4.033 14.842.091l31.131 31.515c4.074 4.124 4.033 10.77-.09 14.843"/>
        <g transform="translate(117.012 89.148)">
            <mask id="h" fill="#fff">
                <use xlink:href="#g"/>
            </mask>
            <path fill="#000" d="M57.503 22.002C39.596 39.69 31.69 31.688 13.785 49.375l30.732 31.111L80.329 45.11 57.503 22.002z" mask="url(#h)"/>
        </g>
        <g transform="translate(189)">
            <circle cx="35" cy="35" r="35" fill="#CD3C14"/>
            <g fill="#FFF">
                <path d="M20.187 14l34.648 34.648-6.187 6.187L14 20.187z"/>
                <path d="M48.648 14L14 48.648l6.187 6.187 34.648-34.648z"/>
            </g>
        </g>
    </g>
</svg>
