<svg xmlns="http://www.w3.org/2000/svg" xmlns:xlink="http://www.w3.org/1999/xlink" width="251" height="189" viewBox="0 0 251 189">
    <defs>
        <path id="a" d="M.064.22h53.468v91.198H.064z"/>
        <path id="c" d="M.067.18h65.796v34.933H.067z"/>
    </defs>
    <g fill="none" fill-rule="evenodd">
        <path fill="#B5E8F7" d="M19.69 83.415c4.553-3.474 88.377-63.591 98.076-45.268 9.7 18.323-103.466 66.285-.539 30.718 102.928-35.568 129.333-39.88 113.167-19.401-16.167 20.478-30.178 43.651-11.856 43.651 18.322 0 42.572 19.401 27.484 29.101-15.09 9.7-37.184 18.323-25.328 25.329 11.855 7.006.539 14.012-5.389 17.245-5.928 3.234-123.944 22.634-153.044 19.94-29.1-2.695-72.75.538-44.727-14.551 28.021-15.09 52.272-37.724 32.333-31.256-19.94 6.466-48.5-2.695-28.022-17.784 20.477-15.09-54.428 2.155-2.156-37.724"/>
        <g transform="translate(164.719)">
            <circle cx="30.5" cy="30.5" r="30.5" fill="#32C832"/>
            <path fill="#FFF" fill-rule="nonzero" d="M17.935 24.709L12.2 30.444l14.572 14.572a1 1 0 0 0 1.44-.026l22.49-24.221-5.943-5.519-17.47 18.813-9.354-9.354z"/>
        </g>
        <g transform="translate(20.917 97.371)">
            <mask id="b" fill="#fff">
                <use xlink:href="#a"/>
            </mask>
            <path fill="#714F47" d="M45.934 1.211c-1.837-3.092-7.595 1.788-10.343 4.59-2.771 2.825-6.338 4.936-8.677 8.178-2.337 3.24-2.487 8.036-2.88 11.988-.914 9.189 1.746 20.956-.937 29.894-1.286 4.284-38.953 66.577-33.807 67.794 4.447 1.052 22.932-.32 27.128 1.839 2.548 1.311 3.893 2.855 5.79.068 1.22-1.792 22-64.611 22.929-66.558 1.142-2.394 2.095-4.34 3.786-6.427 4.182-5.159 2.263-14.158 3.029-20.699.787-6.727 4.113-10.997-2.193-16.174-3.848-3.16-1.285-10.217-3.825-14.493" mask="url(#b)"/>
        </g>
        <path fill="#595959" d="M68.224 54.17c2.314-1.77 5.093-1.685 8.28-1.679 3.259.006 7.541-.052 10.797-.1 3.147-.047 6.49-.115 9.638-.095 2.801.018 7.543-.076 9.937 1.563 2.133 1.463 3.229 4.75 3.582 7.26.713 5.08.058 10.232.005 15.335-.064 6.288.046 12.119.126 18.409.06 4.678.06 10.846-.108 15.523-.143 3.96.13 6.917-.049 10.875-.129 2.86.591 6.494-2.122 8.665-1.698 1.358-4.415 1.849-6.485 2.021-3.284.274-6.58-.002-9.869.075-3.836.09-7.657-.088-11.484-.337-3.361-.219-7.478.566-10.643-.596-3.593-1.32-4.61-4.868-4.723-8.87-.43-15.226.39-30.57-.223-45.697-.169-4.173.234-8.54.436-12.785.17-3.542-.307-7.11 2.905-9.566"/>
        <path fill="#000" d="M99.868 52.365c.448-.249 1.223-.48 2.626-.326.54.06 1.048.233 1.382.45 0 .357.077.8-.369 1.074-.35.215-1.315.36-1.764.353-.545-.01-.966-.078-1.434-.282-.686-.3-.388-.808-.441-1.27"/>
        <path fill="#595959" d="M102.777 51.921c.71.105 1.296.778.28 1.023h-.002c-1.296.311-2.007-.45-1.586-.844.19-.178.609-.281 1.308-.179"/>
        <path fill="#000" d="M73.58 54.797c6.568.003 24.163-.156 29.414-.154 6.95.004 6.684 8.718 6.774 11.124.033.875.022 23.988.011 40.754-.006 9.444-.013 16.875-.011 17.182.03 7.157-3.542 8.348-8.216 8.346l-25.145-.013c-10.512-.005-10.477-2.948-10.474-9.376.001-2.07-.067-13.202-.135-25.028-.068-11.9-.137-24.503-.135-29.29 0-.641-.023-1.293-.047-1.942-.168-4.554-.232-11.607 7.963-11.603"/>
        <path fill="#595959" d="M81.213 56.511c1.51.023 2.258.111 3.384.075 1.093-.037 4.128-.005 6.459.015.537.005 5.926-.436 4.128 1.238-.517.481-1.786.273-2.428.306-1.605.083-3.804.03-5.75.037-2.141.007-3.317.004-5.861-.002-2.147-.006-1.647-1.694.068-1.669"/>
        <path fill="#000" d="M99.743 122.376c2.258.224 4.126.145 6.348-.621l1.993-1.06c1.319 2.875.556 7.052-1.639 9.372-1.85 1.956-5.221 1.858-7.717 1.578-2.802-.313-5.747-.412-6.156-3.271-.259-1.807-1.41-4.064-1.34-5.894.01-.247 7.766-.178 8.511-.104"/>
        <path fill="#FFF" d="M67.871 119.183l-.024-8.294-.039-14.19h.005l-.016-5.669c-.007-3.083-.102-19.139-.109-22.223-.005-1.604.007-1.915-.004-3.519-.029-4.411 2.569-4.874 5.287-4.919 3.239-.054 4.707-.087 7.946-.144 4.74-.083 9.482-.165 14.223-.243 2.203-.037 4.075-.083 6.278-.117 1.929-.03 5.826.142 5.85 3.802.017 2.482.138 22.01.156 24.491.017 2.627.038 5.253.056 7.879a354711.943 354711.943 0 0 0 .157 21.731c.016 1.644.444 5.393-6.421 5.508-2.74.046-25.678.372-27.942.427-5.36.129-5.4-3.592-5.403-4.52"/>
        <path fill="#9DAAC0" d="M91.903 118.819l.012.018c0 .003-.003-.005-.012-.018"/>
        <path fill="#233143" d="M105.539 92.075c-.023.024-.044.049-.067.072l.066-.073zM105.204 91.863v-.02l.005.018-.005.002zM69.616 91.435l-.002-.02.007.018-.005.002z"/>
        <path fill="#8F8F8F" d="M82.524 126.727c.99-.228 2.274-.254 3.165-.319.818-.06 3.09-.007 4.834.026.734.014 5.147-.209 3.345 1.926-.43.51-1.512.56-2.072.624-1.202.137-2.848.05-4.304.06a287.57 287.57 0 0 1-4.384-.002c-1.61-.008-2.709-1.827-.584-2.315"/>
        <path fill="#FF7900" d="M56.385 153.77c-.055.028-.098.05 0 0M38.126 155.787c1.318-1.987 3.842-2.833 6.108-3.039 4.217-.382 8.53.895 12.43 2.36 2.744 1.03 5.686 2.131 7.99 3.985 2.213 1.78 3.982 4.249 4.83 6.97.517 1.665.854 3.527.205 5.208-.452 1.172-1.402 2.132-2.425 2.83-2.117 1.443-5.856 2.405-8.355 2.864-.2.036-.346.018-.453-.04.597-1.168 1.003-2.427 1.335-3.696.18-.034.36-.068.538-.107.086-.018.172-.039.259-.057l.014-.003c.495-.147.994-.27 1.484-.433.444-.147.882-.309 1.313-.49a14.967 14.967 0 0 0 .987-.454c.05-.025.398-.231.208-.114.341-.21.678-.42.993-.67.096-.077.188-.16.282-.24.138-.16.264-.371.415-.513.029-.068.063-.134.093-.202l.043-.146c.016-.115.055-.35.051-.328.002-.01.013-.189.017-.195a7.86 7.86 0 0 0-.184-1.394c-.01-.043-.036-.145-.043-.166-.044-.149-.085-.298-.133-.445a12.02 12.02 0 0 0-.658-1.64 16.086 16.086 0 0 0-.168-.332l-.062-.124a2.894 2.894 0 0 1-.071-.108 16.5 16.5 0 0 0-1.014-1.457c-.486-.61-.616-.75-1.15-1.233-.932-.843-1.683-1.349-2.694-1.834a63.78 63.78 0 0 0-3.956-1.73 51.483 51.483 0 0 0-3.838-1.368l-.275-.084a48.405 48.405 0 0 0-.58-.164 33.62 33.62 0 0 0-1.515-.376c-.895-.2-1.798-.36-2.71-.464a19.63 19.63 0 0 0-1.083-.094l-.387-.017h-.045c-.106 0-.213 0-.32.002-.624.01-1.249.058-1.865.163-.127.022-.253.048-.38.072l-.023.005c-.24.07-.48.14-.715.23-.198.074-.388.163-.58.25l-.01.005c-.062.038-.125.076-.187.116a4.728 4.728 0 0 0-.453.34c-.025.02-.05.045-.074.07-.038.036-.075.073-.116.099l.065-.043c-.102.12-.189.248-.283.372-.026.052-.052.103-.076.156-.026.058-.047.12-.07.18-.02.108-.04.216-.057.325a.707.707 0 0 0-.012-.118c.009.046.007.097.007.149l-.006.032a.91.91 0 0 0-.007.052c-.318.827-.457 1.722-.863 2.526-.217.428-.45.846-.685 1.264-.294-.088-.666-.421-1.192-1.187-1.123-1.724-1.02-3.824.106-5.52M52.627 157.988c-.058.029-.103.053 0 0"/>
        <path fill="#714F47" d="M132.015 127.688c2.75-.818 6.515-.443 8.923-2.032 7.14-4.71 14.05-9.766 20.214-15.466a924.63 924.63 0 0 0 3.845 6.699c1.535 2.639 3.304 5.16 4.868 7.784 1.293 2.17.928 4.343 2.8 6.326 2.39 2.53 6.895 3.066 8.932 5.653 1.357 1.724.922 3.79 1.183 5.91 1.206 9.768 16.47 19.738 4.897 28.5-4.61 3.49-10.314 5.698-15.63 7.866-4.296 1.753-8.912 1.927-11.205-2.588-1.954-3.845-2.153-8.01-5.5-11.148-3.012-2.823-7.387-3.575-10.371-6.266-4.254-3.836-7.686-9.325-10.584-14.23-2.577-4.363-5.75-9.263-5.512-14.557.065-1.44 1.853-2.068 3.14-2.45"/>
        <g transform="translate(155.23 153.676)">
            <mask id="d" fill="#fff">
                <use xlink:href="#c"/>
            </mask>
            <path fill="#50BE87" d="M.37 21.019C1.043 19.835 30.846.399 34.618.184c2.507-.142 4.988 3.772 6.12 5.128 4.578 5.48 48.868 58.662 49.948 69.648H32.44C21.516 64.94 5.465 33.45.845 24.636-.01 23.005-.148 21.93.37 21.019" mask="url(#d)"/>
        </g>
        <path fill="#714F47" d="M121.959 118.557c-.742.075-1.492.359-2.223.907-.339.255 6.232 11.777 9.133 9.358 3.682-3.076-3.264-10.631-6.91-10.265"/>
        <path fill="#714F47" d="M128.49 109.53c1.698.697 3.682 2.008 4.74 1.41 1.527-.862-2.737-4.1-3.505-4.837-1.257-1.205-2.709-2.32-3.887-3.612-.747-.82-1.653-2.042-.926-3.165.764-1.178 2.096-.14 2.963.386 4.268 2.581 8.194 5.745 12.138 8.787 2.108 1.625 4.314 3.204 6.461 4.758 1.485 1.074 2.95 2.723 4.797 2.27 1.355-.333 2.952-2.035 3.943-.122.573 1.105.835 2.502 1.029 3.911.172 1.253.292 2.515.529 3.592.393 1.784.174 3.58-.062 5.369-.26 1.987.892 8.243.892 8.243-.846 2.878-.687 5.487-4.03 5.835-2.837.297-6.13-.555-8.529-2.106-1.404-.908-1.652-2.025-3.45-1.662-1.467.296-2.806 1.445-4.376 1.178-1.284-.22-2.186-2.193-2.882-3.182-1.74-2.47-6.822-7.386-5.47-10.651 1.16-2.8 1.744-2.886.51-6.083-1.046-2.711-3.928-5.302-3.905-8.374.02-2.716 1.388-2.615 3.02-1.945M128.272 92.12c.478.594.9 1.193 1.235 1.732.808 1.299 1.17 3.781 2.893 4.268 1.83.515 2.715-2.855 3.012-4.132.7-3.008-2.078-5.117-4.409-6.526-2.57-1.553-4.915-1.122-6.23 1.59 1.23.585 2.49 1.815 3.499 3.068"/>
        <path fill="#714F47" d="M127.36 109.353l.775 1.383c-.025.312-.753 4.035-.994 3.938-2.019-.819-4.14-3.37-3.303-5.593.372-.991 2.213-3.43 3.429-2.097.603.661-.277 1.697.094 2.369"/>
        <path fill="#838080" d="M135.976 78.978c2.233-1.323 4.683-.957 7.504-.617 2.883.348 6.679.747 9.566 1.047 2.79.289 5.756.58 8.54.929 2.477.31 6.684.725 8.63 2.427 1.734 1.52 2.359 4.542 2.407 6.802.097 4.571-1.024 9.061-1.606 13.572-.718 5.559-1.234 10.73-1.823 16.305-.439 4.147-1.087 9.607-1.727 13.727-.543 3.49-.613 6.135-1.187 9.62-.414 2.516-.159 5.809-2.789 7.445-1.645 1.024-4.101 1.172-5.951 1.107-2.935-.102-5.824-.693-8.743-.97-3.403-.324-6.766-.884-10.128-1.505-2.952-.547-6.677-.286-9.356-1.647-3.042-1.544-3.569-4.793-3.248-8.346 1.22-13.52 3.557-27.015 4.605-40.466.29-3.71 1.104-7.534 1.73-11.269.522-3.117.475-6.325 3.576-8.16"/>
        <path fill="#FFF" d="M138.921 84.174c5.097.741 10.27 1.003 15.35 1.828 3.847.625 7.959.105 11.667 1.496 4.73 1.773 4.922 6.098 4.394 10.547l-.948 7.991-2.234 18.833-1.242 10.463c-.339 2.854.172 6.418-1.57 8.904a3.802 3.802 0 0 1-.677.744c-1.867 1.554-4.642.456-6.992.177-6.29-.745-12.58-1.492-18.87-2.239l-10.029-1.19a494373.128 494373.128 0 0 1 2.934-24.727c1.125-9.48 2.19-18.94 3.01-28.44.3-3.474 1.63-4.907 5.207-4.387"/>
        <path fill="#1B2734" d="M164.17 80.705c.423-.173 1.134-.295 2.359-.012.472.11.903.316 1.176.543-.038.316-.016.716-.44.912-.331.154-1.202.181-1.598.127-.481-.066-.847-.17-1.24-.4-.574-.337-.258-.756-.256-1.17"/>
        <path fill="#000" d="M166.792 80.619c.617.166 1.066.824.14.934h-.002c-1.18.139-1.728-.61-1.315-.914.187-.137.569-.184 1.177-.02M129.083 135.203c.294-2.395 4.863-40.911 5.193-43.584.17-1.39.216-1.659.382-3.05.455-3.827 2.779-3.917 5.16-3.633 2.84.338 4.127.485 6.967.82 4.157.493 8.313.986 12.468 1.482 1.931.232 3.574.414 5.506.647 1.69.204 5.087.999 4.583 4.982-.273 2.15-2.165 18.096-2.42 20.248a10288.07 10288.07 0 0 1-.812 6.833l-1.739 14.64c-.16 1.34-.19 1.57-.387 3.266-.104.892.217 5.749-6.33 4.95-2.4-.292-22.5-2.732-24.488-2.954-4.702-.527-4.182-3.842-4.083-4.647m3.3-45.676c-.048.577-.096 1.156-.163 1.723-.505 4.237-1.769 15.398-2.958 25.937-1.183 10.474-2.292 20.332-2.511 22.164-.678 5.688-1.019 8.29 8.284 9.399l22.252 2.654c4.137.493 7.423-.186 8.149-6.522.03-.273.817-6.848 1.815-15.206 1.772-14.837 4.21-35.291 4.273-36.069.174-2.139 1.324-9.823-4.826-10.557-4.647-.554-20.236-2.262-26.049-2.955-7.252-.865-7.937 5.384-8.267 9.432"/>
        <path fill="#000" d="M147.225 82.414c1.334.179 1.987.336 2.987.422.971.083 3.654.43 5.714.692.476.061 5.291.237 3.524 1.53-.508.372-1.61.053-2.181.015-1.43-.095-3.37-.373-5.092-.572a712.058 712.058 0 0 1-5.187-.617c-1.9-.23-1.28-1.672.235-1.47"/>
        <path fill="#81C8A6" d="M164.506 135.53l-.036.345h-.007c.017-.082.027-.169.027-.262l.001-.085.015.002"/>
        <path fill="#838080" d="M140.576 143.896c.894-.13 2.02-.024 2.806.002.723.025 2.704.313 4.225.528.64.091 4.526.322 2.69 2.318-.437.476-1.39.416-1.887.423-1.067.015-2.496-.245-3.771-.385-1.402-.153-2.171-.25-3.834-.458-1.407-.176-2.146-2.15-.229-2.428"/>
        <path fill="#714F47" d="M133.895 97.815a4.846 4.846 0 0 0-.032-2.604c-2.752.256-11.386 1.706-8.926 6.297 2.055 3.834 8.254-.948 8.958-3.693M132.97 107.473a4.85 4.85 0 0 0-.031-2.604c-2.753.256-11.387 1.707-8.927 6.297 2.055 3.835 8.255-.948 8.958-3.693"/>
        <path fill="#66413E" d="M129.716 97.03c1.005 1.837 3.027-.49 3.75-1.442.286-.377.874.064.587.443-.65.853-1.426 1.682-2.389 2.178-.438.226-.96.335-1.442.2-.554-.156-.914-.6-1.179-1.086-.228-.417.448-.706.673-.294M129.34 107.293c.826.984 2.468-.36 3.088-1.001.325-.336.917.102.587.443-.984 1.017-3.028 2.47-4.253 1.013-.305-.364.273-.818.577-.455"/>
        <path fill="#714F47" d="M166.595 99.618c1.101 3.172 3.468 5.639 5.807 7.997 1.774 1.788 4.602 3.389 6.011 5.517.519 5.187 2.983 10.085 6.201 14.23.233.629.378 1.276.381 1.95 0 .133-.001.268-.004.403-.1 5.366-.033 13.54-.349 18.916-3.977 2.072-4.199 2.308-7.64 4.35-.47-.298-.698-2.985-1.15-3.318-1.382-1.02-2.512-2.29-3.993-3.185-.9-.543-2.174-.864-2.875-1.693-1.787-2.111-.6-6.513-.492-9.026.176-4.083-.483-8.377.002-12.424.382-3.182.047-5.522-1.794-8.36-.166-.256-.433-.483-.717-.706-.327-.256-.675-.506-.92-.791-1.065-1.24-1.726-2.989-1.936-4.644-.365-2.882.032-8.127 3.468-9.216"/>
        <path fill="#66413E" d="M165.466 104.11c.239.902.858 1.624 1.755 1.908.845.267 1.754-.082 2.313-.736.307-.358.896.082.587.443-.748.874-1.875 1.306-3.008 1.02-1.236-.313-2.056-1.325-2.374-2.524-.121-.459.607-.563.727-.11"/>
        <path fill="#FF7900" d="M114.797 45.297l-24.599-1.085s5.984-22.02 41.024-19.174c11.812.96 27.792 14.223 30.003 36.356l5.694-.329-11.764 14.99L144.011 63l4.512-.4s-8.174-35.419-24.2-35.699c-4.487-.078-8.43 5.694-9.526 18.397"/>
        <path fill="#000" d="M159.86 180.124l.435-.438c.654-.658.707-1.857 0-2.506-.706-.648-1.808-.702-2.506 0l-.435.437c-.655.659-.707 1.858 0 2.507.706.648 1.807.702 2.506 0M163 178.193c1.084-.356 1.917-1.005 2.57-1.936.534-.761.163-2.003-.636-2.424-.907-.48-1.854-.177-2.424.635-.108.152-.08.117.084-.104a3.004 3.004 0 0 1-.3.302c.207-.154.256-.19.148-.113-.105.067-.213.13-.316.197-.17.083-.126.068.132-.045-.066.026-.133.05-.2.07-.88.289-1.543 1.239-1.238 2.18.284.877 1.237 1.547 2.18 1.238M169.298 174.707l1.293-.896c.76-.526 1.182-1.577.636-2.424-.488-.757-1.61-1.2-2.425-.636-.43.299-.862.597-1.293.895-.76.527-1.182 1.578-.635 2.425.487.756 1.61 1.2 2.424.636M175.772 170.162c-.125.252-.153.318-.084.2.071-.115.03-.059-.125.169l-.202.16c-.28.1-.33.125-.15.076.9-.22 1.526-1.288 1.237-2.18-.303-.935-1.214-1.473-2.18-1.237-.942.23-1.628.964-1.913 1.87-.278.885.328 1.973 1.237 2.18.965.22 1.882-.29 2.18-1.238M180.397 167.527c-.043.058-.25.28-.079.128-.1.09-.28.248-.074.066.13-.115-.317.09-.147.054.13-.028.379-.072-.125-.01.487-.06.892-.16 1.253-.52.307-.307.539-.811.519-1.252-.039-.865-.787-1.892-1.772-1.773-.556.068-1.023.156-1.517.441-.473.275-.796.646-1.118 1.077-.257.344-.287.97-.179 1.365.114.412.431.857.815 1.06.41.217.909.326 1.365.178.467-.15.768-.424 1.06-.814M185.444 164.895l1.757-.85c.837-.404 1.126-1.663.636-2.424-.554-.859-1.53-1.068-2.425-.635l-1.756.849c-.837.404-1.127 1.663-.636 2.424.553.859 1.53 1.068 2.424.636M190.675 162.05l1.307-.658c.83-.417 1.132-1.654.636-2.424-.547-.848-1.537-1.083-2.424-.636l-1.307.658c-.83.418-1.132 1.655-.636 2.424.547.848 1.537 1.083 2.424.636"/>
        <path fill="#000" d="M194.368 160.343c2.281 0 2.284-3.545 0-3.545-2.28 0-2.284 3.545 0 3.545"/>
        <path fill="#FFF" d="M162.554 186.3l1.722-.916c.82-.436 1.14-1.643.635-2.425-.537-.833-1.547-1.102-2.424-.636l-1.721.917c-.82.437-1.14 1.642-.636 2.425.537.832 1.548 1.102 2.424.635M168.585 182.305l.435-.437c.655-.658.707-1.858 0-2.507-.705-.647-1.807-.702-2.505 0l-.436.438c-.654.658-.706 1.857 0 2.506.706.648 1.808.702 2.506 0M173.005 179.718l1.309-.654c.831-.416 1.13-1.657.636-2.425-.548-.85-1.536-1.08-2.425-.636l-1.308.655c-.832.415-1.131 1.656-.636 2.424.548.85 1.536 1.08 2.424.636M179.11 176.23l1.11-.847c.384-.292.681-.575.815-1.06.117-.424.064-.988-.179-1.365-.468-.726-1.636-1.236-2.424-.636l-1.11.847c-.383.292-.682.575-.815 1.06-.117.423-.064.988.179 1.365.468.726 1.636 1.236 2.424.635M183.024 173.149l1.102-.635c.803-.463 1.152-1.624.635-2.425-.522-.81-1.564-1.13-2.424-.636l-1.102.635c-.804.463-1.152 1.624-.635 2.425.522.81 1.564 1.13 2.424.636M188.031 170.297l2.462-1.421c.802-.464 1.152-1.624.635-2.425-.522-.81-1.565-1.132-2.425-.636l-2.46 1.421c-.803.464-1.152 1.623-.636 2.425.523.81 1.565 1.131 2.424.636"/>
        <path fill="#FFF" d="M193.279 167.27l.648-.447c.762-.524 1.18-1.579.636-2.424-.49-.758-1.608-1.198-2.425-.636l-.648.446c-.762.524-1.18 1.58-.635 2.424.488.758 1.607 1.198 2.424.636M197.662 164.681l.437-.218c.83-.415 1.13-1.656.635-2.424-.547-.85-1.535-1.08-2.424-.636l-.436.219c-.831.415-1.131 1.656-.636 2.424.548.85 1.536 1.08 2.424.635M133.829 75.303l-5.843-6.347c-1.481-1.61-3.875.793-2.398 2.398a51692.7 51692.7 0 0 0 5.842 6.347c1.482 1.61 3.875-.793 2.399-2.398M140.749 71.29l-3.284-7.206c-.904-1.983-3.828-.262-2.928 1.712l3.283 7.206c.904 1.983 3.828.261 2.929-1.713M174.963 78.935l3.091-6.086c.986-1.942-1.939-3.66-2.928-1.711l-3.092 6.085c-.986 1.942 1.94 3.66 2.93 1.712M177.431 86.284c2.166-.939 4.415-1.65 6.71-2.195 2.122-.505 1.223-3.776-.903-3.271-2.592.616-5.075 1.478-7.519 2.537-1.997.866-.272 3.788 1.712 2.929"/>
        <path fill="#714F47" d="M77.361 105.664c-5.297 4.413-4.53 14.761-12.387 17.304-1.395.452-2.813 1.263-4.23.962-1.703-.364-2.495-1.815-3.624-2.999.46.484-.053 3.755-.085 4.475-.056 1.217-.186 2.349-.608 3.497-.78 2.124-1.361 3.73-1.087 6.077.517 4.415-2.663 17.675 1.535 19.712 6.207 3.012 14.122-3.926 16.554-9.546.555-1.285 2.804-7.6 3.017-8.951.46-2.93.538-7.818.985-10.74 1.017-6.638 5.59-16.152 6.627-19.506.718-2.32-3.342-3.079-6.697-.285"/>
        <path fill="#806059" d="M82.194 104.547c-1.684 1.75-3.24 3.812-3.543 6.223-.065.517-.066 1.063.153 1.537.218.474.7.856 1.221.82.54-.038.952-.483 1.282-.912a16.739 16.739 0 0 0 3.044-6.45c.116-.503.16-1.137-.267-1.425-.376-.255-.881-.074-1.296.112"/>
        <g>
            <path fill="#000" d="M85.294 81.774H74.566a2.178 2.178 0 0 0 0 4.356h5.47l-8.804 8.804a2.178 2.178 0 0 0 3.08 3.08l8.803-8.804v5.47a2.178 2.178 0 1 0 4.356 0V83.951a2.178 2.178 0 0 0-2.177-2.178"/>
            <path fill="#F27930" d="M91.226 93.576h10.727a2.178 2.178 0 0 0 0-4.356h-5.47l8.805-8.805a2.178 2.178 0 0 0-3.08-3.08l-8.804 8.805v-5.47a2.178 2.178 0 0 0-4.356 0v10.728c0 1.203.975 2.178 2.178 2.178"/>
        </g>
        <g>
            <path fill="#000" d="M147.073 105.811h-8.111a1.647 1.647 0 0 0 0 3.294h4.135l-6.656 6.657a1.647 1.647 0 0 0 2.328 2.328l6.657-6.656v4.135a1.647 1.647 0 1 0 3.294 0v-8.111c0-.91-.738-1.647-1.647-1.647"/>
            <path fill="#F27930" d="M151.558 114.734h8.111a1.647 1.647 0 0 0 0-3.293h-4.135l6.657-6.657a1.647 1.647 0 0 0-2.33-2.33l-6.656 6.658v-4.136a1.647 1.647 0 0 0-3.293 0v8.111c0 .91.737 1.647 1.646 1.647"/>
        </g>
    </g>
</svg>
