<svg xmlns="http://www.w3.org/2000/svg" xmlns:xlink="http://www.w3.org/1999/xlink" width="120" height="90" viewBox="0 0 120 90">
    <defs>
        <path id="a" d="M.03.104h25.563v43.2H.03z"/>
        <path id="c" d="M.032.085h31.456v16.547H.032z"/>
    </defs>
    <g fill="none" fill-rule="evenodd">
        <path fill="#B5E8F7" d="M9.413 39.512C11.59 37.867 51.665 9.39 56.303 18.07c4.637 8.679-49.466 31.398-.258 14.55s61.832-18.89 54.103-9.19c-7.729 9.7-14.427 20.677-5.668 20.677 8.76 0 20.354 9.19 13.14 13.785-7.214 4.595-17.777 8.68-12.109 11.998 5.668 3.318.258 6.637-2.576 8.168-2.834 1.532-59.257 10.722-73.169 9.445-13.912-1.276-34.78.256-21.383-6.892 13.396-7.148 24.99-17.869 15.458-14.806C14.308 68.87.654 64.53 10.444 57.381c9.79-7.147-26.021 1.022-1.03-17.869"/>
        <g transform="translate(10 46.123)">
            <mask id="b" fill="#fff">
                <use xlink:href="#a"/>
            </mask>
            <path fill="#714F47" d="M21.96.574c-.878-1.465-3.63.847-4.944 2.174-1.325 1.338-3.03 2.338-4.149 3.874-1.117 1.535-1.189 3.806-1.377 5.678-.437 4.353.835 9.927-.448 14.16C10.428 28.49-7.58 57.998-5.12 58.575c2.126.498 10.963-.152 12.97.87 1.218.622 1.86 1.353 2.768.033.583-.849 10.517-30.606 10.961-31.528.546-1.134 1.002-2.055 1.81-3.044 2-2.444 1.082-6.706 1.448-9.805.377-3.187 1.967-5.209-1.048-7.661-1.84-1.497-.614-4.84-1.829-6.865" mask="url(#b)"/>
        </g>
        <path fill="#595959" d="M32.617 25.66c1.106-.839 2.435-.799 3.959-.796 1.558.003 3.605-.024 5.162-.047 1.504-.022 3.103-.055 4.607-.045 1.34.008 3.607-.036 4.75.74 1.021.693 1.545 2.25 1.713 3.439.342 2.407.028 4.847.003 7.264-.03 2.979.022 5.74.06 8.72.03 2.216.03 5.138-.051 7.353-.069 1.876.062 3.276-.024 5.152-.061 1.354.283 3.075-1.014 4.104-.812.643-2.11.876-3.1.957-1.57.13-3.147 0-4.719.036-1.834.043-3.66-.042-5.49-.16-1.607-.103-3.575.268-5.089-.282-1.718-.625-2.204-2.306-2.258-4.202-.205-7.212.186-14.48-.106-21.646-.08-1.976.112-4.045.208-6.056.082-1.678-.146-3.368 1.389-4.531"/>
        <path fill="#000" d="M47.746 24.804c.214-.117.585-.227 1.255-.154.259.028.5.11.66.213 0 .17.038.38-.176.51-.167.1-.628.17-.843.166a1.68 1.68 0 0 1-.685-.134c-.328-.142-.186-.382-.211-.6"/>
        <path fill="#595959" d="M49.137 24.594c.339.05.62.369.133.485-.62.147-.96-.213-.759-.4.09-.084.291-.133.626-.085"/>
        <path fill="#000" d="M35.177 25.956c3.14.002 11.553-.074 14.063-.072 3.322.001 3.196 4.13 3.239 5.269.015.414.01 11.362.005 19.304-.003 4.474-.006 7.994-.005 8.14.014 3.39-1.694 3.954-3.928 3.952-2.436 0-9.586-.004-12.022-.006-5.025-.002-5.008-1.396-5.007-4.441 0-.98-.032-6.253-.065-11.855a3374.95 3374.95 0 0 1-.064-13.875c0-.303-.011-.612-.023-.92-.08-2.156-.11-5.498 3.807-5.496"/>
        <path fill="#595959" d="M38.827 26.768c.721.011 1.08.053 1.618.036.522-.017 1.973-.003 3.088.007.257.002 2.833-.206 1.973.587-.247.227-.853.129-1.16.144-.768.04-1.82.014-2.75.018-1.023.003-1.585.002-2.802-.001-1.026-.003-.787-.803.033-.79"/>
        <path fill="#000" d="M47.686 57.968c1.08.106 1.973.068 3.035-.295l.953-.502c.63 1.362.265 3.34-.784 4.44-.884.926-2.496.88-3.69.747-1.339-.148-2.747-.195-2.943-1.55-.123-.855-.674-1.924-.64-2.791.005-.117 3.713-.084 4.069-.05"/>
        <path fill="#FFF" d="M32.448 56.455l-.011-3.928-.019-6.722h.002l-.007-2.685c-.003-1.46-.049-9.066-.052-10.527-.002-.76.003-.907-.002-1.667-.014-2.09 1.228-2.309 2.527-2.33 1.55-.026 2.25-.041 3.8-.068 2.266-.04 4.532-.079 6.8-.116 1.052-.017 1.948-.039 3-.055.923-.014 2.786.067 2.798 1.801l.074 11.601.027 3.732a166393.558 166393.558 0 0 0 .075 10.294c.007.779.212 2.555-3.07 2.609-1.31.022-12.276.176-13.359.202-2.562.061-2.581-1.701-2.583-2.141"/>
        <path fill="#9DAAC0" d="M43.938 56.283l.005.008c0 .002-.001-.002-.005-.008"/>
        <path fill="#233143" d="M50.457 43.614c-.01.012-.021.024-.032.034l.032-.034zM50.297 43.514v-.009l.002.008-.002.001zM33.283 43.311l-.001-.009.003.008-.002.001z"/>
        <path fill="#8F8F8F" d="M39.454 60.029c.473-.108 1.087-.12 1.513-.151.39-.029 1.477-.004 2.311.012.35.006 2.46-.099 1.599.912-.206.242-.723.265-.99.296-.575.065-1.362.023-2.058.028-.766.006-1.187.004-2.096 0-.77-.005-1.295-.866-.28-1.097"/>
        <path fill="#FF7900" d="M26.957 72.839c-.027.013-.047.023 0 0M18.227 73.794c.63-.941 1.838-1.342 2.92-1.44 2.017-.18 4.08.424 5.943 1.118 1.312.488 2.719 1.01 3.82 1.888 1.058.843 1.904 2.012 2.309 3.301.248.79.409 1.671.098 2.467-.216.556-.67 1.01-1.159 1.34-1.012.684-2.8 1.14-3.994 1.357-.096.018-.166.01-.217-.019.286-.553.48-1.15.638-1.75.086-.016.172-.032.258-.05.04-.01.082-.02.123-.028l.007-.001c.237-.07.475-.128.71-.205a8.886 8.886 0 0 0 .967-.383 6.28 6.28 0 0 0 .132-.064c.024-.012.19-.11.1-.054.163-.1.324-.2.474-.318.046-.036.09-.075.135-.113.066-.077.126-.176.198-.244.014-.032.03-.063.045-.095l.02-.07.025-.155c0-.005.006-.09.008-.092 0-.067-.007-.135-.013-.201a3.691 3.691 0 0 0-.075-.46l-.02-.078c-.022-.07-.041-.141-.064-.21a5.66 5.66 0 0 0-.395-.935l-.03-.059a7.815 7.815 0 0 0-.519-.741 3.731 3.731 0 0 0-.549-.584 5.011 5.011 0 0 0-1.288-.869 30.64 30.64 0 0 0-1.891-.82 24.763 24.763 0 0 0-1.967-.687 16.197 16.197 0 0 0-1.002-.256c-.427-.094-.86-.17-1.295-.22a9.47 9.47 0 0 0-.518-.044l-.185-.008h-.174a5.941 5.941 0 0 0-.892.078c-.06.01-.12.023-.181.034l-.011.002c-.116.033-.23.067-.342.11-.095.035-.186.076-.277.118l-.005.002-.09.055c-.075.05-.147.103-.216.16l-.036.034c-.018.017-.036.035-.055.047l.03-.02c-.048.056-.09.117-.134.176l-.037.074c-.012.027-.022.056-.033.085l-.028.154a.332.332 0 0 0-.005-.056c.004.022.003.046.003.07l-.003.016a.427.427 0 0 0-.003.025c-.152.391-.218.815-.413 1.196-.103.203-.215.401-.327.6-.14-.043-.318-.2-.57-.563-.537-.817-.487-1.812.05-2.615M25.16 74.837c-.027.013-.049.025 0 0"/>
        <path fill="#714F47" d="M63.115 60.484c1.314-.388 3.115-.21 4.266-.963 3.414-2.23 6.717-4.626 9.664-7.326a436.976 436.976 0 0 0 1.838 3.173c.734 1.25 1.58 2.445 2.327 3.687.618 1.028.444 2.058 1.34 2.997 1.141 1.198 3.295 1.453 4.27 2.678.648.817.44 1.795.565 2.8.576 4.626 7.874 9.349 2.34 13.5-2.203 1.653-4.93 2.698-7.471 3.725-2.054.83-4.261.913-5.357-1.225-.935-1.822-1.03-3.795-2.63-5.281-1.44-1.337-3.532-1.693-4.958-2.968-2.034-1.817-3.675-4.417-5.06-6.741-1.232-2.067-2.75-4.388-2.635-6.895.03-.682.885-.98 1.5-1.161"/>
        <g transform="translate(74.213 72.794)">
            <mask id="d" fill="#fff">
                <use xlink:href="#c"/>
            </mask>
            <path fill="#50BE87" d="M.177 9.956C.499 9.396 14.747.19 16.55.087c1.198-.067 2.385 1.787 2.926 2.429 2.189 2.596 23.363 27.787 23.88 32.991H15.508C10.287 30.761 2.613 15.845.404 11.67c-.409-.773-.475-1.282-.227-1.714" mask="url(#d)"/>
        </g>
        <path fill="#714F47" d="M58.307 56.158c-.355.036-.713.17-1.063.43-.162.12 2.98 5.579 4.367 4.433 1.76-1.457-1.56-5.036-3.304-4.863"/>
        <path fill="#714F47" d="M61.43 51.883c.811.33 1.76.95 2.266.668.73-.409-1.309-1.942-1.676-2.292-.601-.57-1.295-1.098-1.858-1.71-.358-.389-.79-.968-.443-1.5.365-.558 1.002-.066 1.416.183 2.041 1.223 3.918 2.721 5.804 4.162 1.007.77 2.062 1.518 3.089 2.254.71.509 1.41 1.29 2.293 1.075.648-.158 1.411-.964 1.885-.057.274.523.399 1.185.492 1.852.082.594.14 1.192.253 1.701.188.846.083 1.697-.03 2.544-.125.941.427 3.905.427 3.905-.405 1.362-.329 2.598-1.928 2.763-1.355.141-2.93-.262-4.077-.997-.671-.43-.79-.96-1.649-.788-.702.14-1.342.685-2.092.558-.614-.103-1.045-1.038-1.378-1.507-.832-1.17-3.262-3.498-2.615-5.045.555-1.327.833-1.367.244-2.882-.5-1.284-1.879-2.511-1.867-3.966.01-1.287.663-1.239 1.444-.921M61.325 43.636c.229.281.43.565.59.82.387.615.56 1.791 1.384 2.022.875.244 1.298-1.352 1.44-1.957.334-1.425-.994-2.424-2.108-3.092-1.229-.735-2.35-.53-2.978.754.587.277 1.19.86 1.672 1.453"/>
        <path fill="#714F47" d="M60.89 51.799l.37.655c-.012.148-.36 1.911-.475 1.865-.966-.387-1.98-1.596-1.58-2.649.178-.47 1.058-1.625 1.64-.993.288.313-.133.803.045 1.122"/>
        <path fill="#838080" d="M65.008 37.41c1.068-.626 2.24-.453 3.588-.291 1.378.164 3.193.353 4.573.495 1.334.137 2.752.275 4.083.44 1.185.147 3.196.344 4.126 1.15.83.72 1.128 2.152 1.15 3.222.047 2.165-.488 4.292-.767 6.429-.343 2.633-.59 5.082-.872 7.723-.21 1.965-.52 4.55-.825 6.503-.26 1.653-.293 2.906-.567 4.556-.199 1.192-.076 2.752-1.334 3.527-.786.485-1.96.555-2.845.524-1.403-.048-2.784-.328-4.18-.46-1.627-.152-3.235-.418-4.842-.712-1.411-.26-3.192-.135-4.473-.78-1.454-.732-1.706-2.27-1.553-3.954.583-6.404 1.7-12.796 2.202-19.168.138-1.757.528-3.569.827-5.338.25-1.476.227-2.995 1.71-3.865"/>
        <path fill="#FFF" d="M66.417 39.872c2.436.35 4.909.475 7.338.866 1.84.296 3.805.05 5.578.709 2.261.84 2.353 2.888 2.1 4.995l-.453 3.786-1.068 8.92-.593 4.957c-.162 1.352.082 3.04-.751 4.217-.1.141-.208.257-.324.353-.892.736-2.219.216-3.343.084l-9.021-1.06c-1.598-.189-3.196-.377-4.795-.564l.003-.021 1.4-11.692c.538-4.491 1.047-8.972 1.44-13.472.143-1.646.779-2.324 2.489-2.078"/>
        <path fill="#1B2734" d="M78.488 38.229c.202-.082.542-.14 1.127-.006.226.052.432.15.563.257-.018.15-.008.34-.21.432-.16.073-.575.086-.765.06a1.497 1.497 0 0 1-.592-.19c-.275-.159-.124-.357-.123-.553"/>
        <path fill="#000" d="M79.741 38.188c.295.079.51.39.067.442-.565.066-.827-.288-.63-.433.09-.064.272-.087.563-.01M61.713 64.044c.14-1.135 2.325-19.38 2.483-20.646.081-.658.103-.785.182-1.444.218-1.813 1.329-1.856 2.468-1.721 1.357.16 1.973.23 3.33.389 1.987.233 3.974.466 5.96.701.924.11 1.71.196 2.633.307.808.096 2.432.473 2.191 2.36-.13 1.018-1.035 8.571-1.157 9.59l-.206 1.721-.182 1.516-.831 6.936c-.077.634-.091.743-.186 1.546-.05.423.104 2.723-3.025 2.345a4960.747 4960.747 0 0 0-11.708-1.4c-2.248-.249-2-1.819-1.952-2.2m1.577-21.637c-.022.274-.045.548-.077.817-.242 2.007-.846 7.294-1.415 12.286-.565 4.961-1.095 9.63-1.2 10.498-.324 2.695-.487 3.928 3.96 4.452l10.64 1.258c1.977.233 3.548-.089 3.895-3.09.014-.129.39-3.244.868-7.202.847-7.029 2.013-16.717 2.043-17.086.083-1.013.632-4.653-2.308-5-2.221-.263-9.674-1.072-12.453-1.4-3.468-.41-3.795 2.55-3.953 4.467"/>
        <path fill="#000" d="M70.387 39.038c.637.085.95.16 1.427.2.465.04 1.747.204 2.732.328.228.029 2.53.112 1.685.725-.243.176-.77.025-1.043.007-.683-.045-1.61-.177-2.434-.271a343.46 343.46 0 0 1-2.48-.292c-.908-.11-.612-.793.113-.697"/>
        <path fill="#81C8A6" d="M78.648 64.198c-.005.055-.01.11-.017.164h-.003a.61.61 0 0 0 .013-.124v-.04h.007"/>
        <path fill="#838080" d="M67.208 68.161c.427-.061.965-.011 1.341.001.346.012 1.293.149 2.02.25.306.044 2.164.153 1.287 1.098-.21.226-.665.197-.903.2-.51.008-1.193-.115-1.803-.182-.67-.072-1.038-.118-1.833-.216-.672-.084-1.026-1.02-.11-1.15"/>
        <path fill="#714F47" d="M64.013 46.333a2.275 2.275 0 0 0-.015-1.233c-1.316.121-5.443.808-4.267 2.983.982 1.816 3.946-.45 4.282-1.75M63.571 50.908a2.277 2.277 0 0 0-.015-1.233c-1.316.121-5.443.808-4.267 2.983.982 1.816 3.946-.45 4.282-1.75"/>
        <path fill="#66413E" d="M62.016 45.961c.48.87 1.447-.231 1.793-.683.136-.178.417.031.28.21-.31.404-.682.797-1.142 1.032-.21.107-.459.159-.69.094-.264-.073-.436-.284-.563-.514-.11-.197.214-.334.322-.139M61.836 50.823c.395.466 1.18-.17 1.476-.474.156-.16.439.048.281.21-.47.481-1.448 1.17-2.033.48-.146-.173.13-.388.276-.216"/>
        <path fill="#714F47" d="M79.647 47.188c.527 1.502 1.658 2.67 2.776 3.787.848.848 2.2 1.606 2.874 2.614.248 2.457 1.426 4.777 2.965 6.74a2.66 2.66 0 0 1 .18 1.115c-.048 2.542-.016 6.413-.167 8.96-1.901.982-2.007 1.093-3.653 2.06-.225-.14-.333-1.413-.549-1.57-.661-.484-1.201-1.086-1.91-1.51-.43-.257-1.039-.409-1.374-.802-.854-1-.287-3.085-.235-4.275.084-1.934-.231-3.968 0-5.885.183-1.507.023-2.616-.857-3.96a1.522 1.522 0 0 0-.343-.334c-.156-.122-.322-.24-.44-.375-.508-.588-.825-1.416-.925-2.2-.174-1.365.015-3.85 1.658-4.365"/>
        <path fill="#66413E" d="M79.107 49.315c.115.427.41.77.84.904.403.127.838-.039 1.105-.349.147-.17.428.04.28.21-.357.414-.896.619-1.437.483-.591-.148-.983-.627-1.135-1.195-.058-.217.29-.267.347-.053"/>
        <path fill="#FF7900" d="M54.883 21.456l-11.76-.513s2.86-10.431 19.613-9.083c5.647.455 13.287 6.737 14.344 17.221l2.722-.155-5.624 7.1-5.328-6.184 2.157-.19s-3.908-16.777-11.57-16.91c-2.145-.037-4.03 2.697-4.554 8.714"/>
        <path fill="#000" d="M76.427 85.322l.208-.208c.313-.311.338-.88 0-1.187-.337-.307-.864-.332-1.198 0l-.208.208c-.313.311-.338.88 0 1.187.337.307.864.332 1.198 0M77.928 84.407a2.358 2.358 0 0 0 1.229-.917c.255-.36.078-.948-.304-1.148-.434-.228-.887-.084-1.159.3a.81.81 0 0 0 .04-.049 1.428 1.428 0 0 1-.144.143c.1-.072.123-.09.071-.053-.05.032-.101.061-.15.093-.082.04-.06.032.063-.021a1.36 1.36 0 0 1-.096.033c-.42.137-.738.587-.592 1.033.136.415.591.733 1.042.586M80.94 82.756l.617-.424c.364-.25.565-.748.304-1.149-.233-.358-.77-.568-1.159-.3l-.618.423c-.364.25-.565.747-.304 1.149.233.358.77.568 1.16.3M84.035 80.603c-.06.12-.074.15-.04.095.033-.055.013-.028-.06.08l-.097.076c-.134.047-.158.059-.072.036.43-.105.73-.61.592-1.033a.866.866 0 0 0-1.043-.586c-.45.109-.778.457-.914.886-.133.419.156.934.591 1.032a.866.866 0 0 0 1.043-.586M86.246 79.355c-.021.027-.12.133-.038.06l-.036.032c.063-.055-.151.042-.07.025.062-.013.181-.034-.06-.005.233-.028.427-.075.6-.245a.849.849 0 0 0 .248-.594c-.02-.41-.376-.896-.848-.84-.265.032-.489.074-.725.21-.226.13-.38.305-.534.51-.123.163-.138.46-.086.646a.857.857 0 0 0 .39.502c.196.103.434.154.652.084.223-.071.368-.2.507-.385M88.659 78.108l.84-.402c.4-.192.538-.788.303-1.149-.264-.406-.73-.506-1.159-.3l-.84.402c-.4.191-.538.788-.303 1.148.264.407.73.506 1.159.301M91.16 76.76l.624-.311c.397-.198.541-.784.304-1.149-.261-.401-.735-.512-1.159-.3l-.625.311c-.396.198-.54.784-.304 1.148.262.402.735.513 1.16.302"/>
        <path fill="#000" d="M92.925 75.952c1.09 0 1.092-1.68 0-1.68-1.09 0-1.092 1.68 0 1.68"/>
        <path fill="#FFF" d="M77.715 88.247l.823-.434c.392-.206.545-.778.304-1.148a.87.87 0 0 0-1.159-.301l-.823.434c-.392.207-.545.778-.304 1.148a.87.87 0 0 0 1.16.301M80.599 86.355l.207-.207c.313-.312.338-.88 0-1.187-.337-.307-.864-.333-1.197 0l-.209.207c-.312.312-.337.88 0 1.187.338.307.865.333 1.199 0M82.712 85.13l.625-.31c.398-.197.541-.785.304-1.149-.262-.402-.734-.511-1.159-.3-.208.102-.417.206-.625.31-.398.196-.541.784-.304 1.147.261.403.734.512 1.159.302M85.63 83.477l.531-.401c.183-.138.326-.272.39-.502a.852.852 0 0 0-.086-.646c-.224-.344-.782-.586-1.159-.302l-.53.402c-.184.138-.326.272-.39.501a.85.85 0 0 0 .085.647c.224.344.782.586 1.16.301M87.501 82.018l.527-.301c.384-.22.551-.769.304-1.148-.25-.384-.748-.536-1.159-.302l-.527.301c-.384.22-.55.77-.304 1.149.25.384.748.535 1.16.3M89.896 80.667l1.176-.673c.384-.22.551-.77.304-1.149-.25-.384-.748-.536-1.16-.3l-1.176.672c-.383.22-.55.77-.303 1.149.25.384.748.536 1.159.3"/>
        <path fill="#FFF" d="M92.404 79.233l.31-.211c.364-.249.565-.748.304-1.149-.234-.359-.769-.567-1.16-.301l-.309.211c-.364.248-.564.748-.304 1.149.234.359.769.567 1.16.3M94.5 78.007l.209-.103c.397-.197.54-.785.303-1.149-.261-.402-.734-.511-1.159-.3l-.208.103c-.397.196-.54.784-.304 1.148.262.403.734.512 1.159.301M63.982 35.67l-2.793-3.007c-.709-.762-1.853.376-1.147 1.136l2.793 3.007c.708.762 1.853-.376 1.147-1.136M67.29 33.769l-1.57-3.413c-.432-.94-1.83-.124-1.4.81l1.57 3.414c.432.94 1.83.124 1.4-.811M83.648 37.39l1.477-2.882c.472-.92-.926-1.734-1.4-.811l-1.477 2.882c-.472.92.927 1.734 1.4.811M84.828 40.871a19.357 19.357 0 0 1 3.207-1.04c1.015-.238.585-1.788-.431-1.549-1.24.292-2.427.7-3.595 1.202-.955.41-.13 1.794.819 1.387"/>
        <path fill="#714F47" d="M36.985 50.052c-2.532 2.09-2.165 6.992-5.922 8.196-.667.214-1.345.598-2.022.456-.814-.173-1.193-.86-1.733-1.42.22.228-.025 1.778-.04 2.119-.027.576-.09 1.113-.29 1.657-.374 1.006-.652 1.766-.52 2.878.246 2.091-1.274 8.372.733 9.337 2.968 1.427 6.752-1.86 7.914-4.522.266-.608 1.341-3.6 1.443-4.24.22-1.387.257-3.703.47-5.087.487-3.144 2.673-7.65 3.169-9.24.343-1.099-1.598-1.458-3.202-.134"/>
        <path fill="#806059" d="M39.296 49.522c-.805.83-1.55 1.806-1.694 2.948-.031.245-.031.503.073.728.104.225.335.405.584.388.258-.018.455-.229.613-.432a7.897 7.897 0 0 0 1.455-3.055c.055-.238.077-.538-.128-.675-.18-.12-.42-.035-.619.053"/>
        <g>
            <path fill="#000" d="M40.778 38.735h-5.129c-.575 0-1.041.462-1.041 1.032 0 .57.466 1.031 1.041 1.031h2.615l-4.21 4.17a1.025 1.025 0 0 0 0 1.46 1.048 1.048 0 0 0 1.473 0l4.21-4.17v2.59c0 .57.466 1.032 1.04 1.032.576 0 1.042-.462 1.042-1.032v-5.081c0-.57-.466-1.032-1.041-1.032"/>
            <path fill="#F27930" d="M43.614 44.325h5.129c.575 0 1.04-.461 1.04-1.031 0-.57-.465-1.032-1.04-1.032h-2.615l4.209-4.17a1.025 1.025 0 0 0 0-1.46 1.048 1.048 0 0 0-1.473 0l-4.209 4.171v-2.59c0-.57-.466-1.032-1.041-1.032s-1.041.462-1.041 1.031v5.082c0 .57.466 1.031 1.041 1.031"/>
        </g>
        <g>
            <path fill="#000" d="M70.314 50.121h-3.878a.784.784 0 0 0-.787.78c0 .43.352.78.787.78h1.977l-3.182 3.153a.775.775 0 0 0 0 1.103.792.792 0 0 0 1.113 0l3.182-3.153v1.96c0 .43.353.78.788.78.435 0 .787-.35.787-.78V50.9c0-.43-.352-.78-.787-.78"/>
            <path fill="#F27930" d="M72.458 54.348h3.878c.435 0 .787-.35.787-.78 0-.431-.352-.78-.787-.78h-1.977l3.182-3.154a.775.775 0 0 0 0-1.103.792.792 0 0 0-1.113 0l-3.183 3.154v-1.96c0-.43-.352-.78-.787-.78a.784.784 0 0 0-.787.78v3.843c0 .43.352.78.787.78"/>
        </g>
    </g>
</svg>
