<svg xmlns="http://www.w3.org/2000/svg" xmlns:xlink="http://www.w3.org/1999/xlink" width="43" height="41" viewBox="0 0 43 41">
    <defs>
        <circle id="a" cx="23.998" cy="22.905" r="19.353"/>
        <path id="c" d="M.003 0h29.74v28.694H.003z"/>
        <path id="e" d="M.007.07h29.74v28.695H.007z"/>
        <path id="g" d="M0 85.155h46.37V.07H0z"/>
        <path id="h" d="M.01 5.277l6.235 5.026 4.192-5.2L4.202.075"/>
        <path id="j" d="M.01 5.277l6.235 5.026 4.192-5.2L4.202.075"/>
        <path id="l" d="M.01 5.277l6.235 5.026 4.192-5.2L4.202.075"/>
        <path id="n" d="M.01 5.277l6.235 5.026 4.192-5.2L4.202.075z"/>
        <path id="p" d="M.01 5.277l6.235 5.026 4.192-5.2L4.202.075z"/>
        <path id="r" d="M.01 5.277l6.235 5.026 4.192-5.2L4.202.075z"/>
        <path id="t" d="M.01 5.277l6.235 5.026 4.192-5.2L4.202.075z"/>
        <path id="v" d="M.01 5.277l6.235 5.026 4.192-5.2L4.202.075z"/>
        <path id="x" d="M.01 5.277l6.235 5.026 4.192-5.2L4.202.075"/>
        <path id="z" d="M.01 5.277l6.235 5.026 4.192-5.2L4.202.075z"/>
        <path id="B" d="M.01 5.277l6.235 5.026 4.192-5.2L4.202.075z"/>
        <path id="D" d="M.01 5.277l6.235 5.026 4.192-5.2L4.202.075z"/>
        <path id="F" d="M0 0h49.932v30.191H0z"/>
        <path id="H" d="M.003 0h29.74v28.694H.003z"/>
        <path id="J" d="M.007.07h29.74v28.695H.007z"/>
        <path id="L" d="M0 85.155h46.37V.07H0z"/>
        <path id="M" d="M.01 5.277l6.235 5.026 4.192-5.2L4.202.075"/>
        <path id="O" d="M.01 5.277l6.235 5.026 4.192-5.2L4.202.075"/>
        <path id="Q" d="M.01 5.277l6.235 5.026 4.192-5.2L4.202.075"/>
        <path id="S" d="M.01 5.277l6.235 5.026 4.192-5.2L4.202.075z"/>
        <path id="U" d="M.01 5.277l6.235 5.026 4.192-5.2L4.202.075z"/>
        <path id="W" d="M.01 5.277l6.235 5.026 4.192-5.2L4.202.075z"/>
        <path id="Y" d="M.01 5.277l6.235 5.026 4.192-5.2L4.202.075z"/>
        <path id="aa" d="M.01 5.277l6.235 5.026 4.192-5.2L4.202.075z"/>
        <path id="ac" d="M.01 5.277l6.235 5.026 4.192-5.2L4.202.075"/>
        <path id="ae" d="M.01 5.277l6.235 5.026 4.192-5.2L4.202.075z"/>
        <path id="ag" d="M.01 5.277l6.235 5.026 4.192-5.2L4.202.075z"/>
        <path id="ai" d="M.01 5.277l6.235 5.026 4.192-5.2L4.202.075z"/>
    </defs>
    <g fill="none" fill-rule="evenodd" transform="translate(-4 -2)">
        <mask id="b" fill="#fff">
            <use xlink:href="#a"/>
        </mask>
        <use fill="#FF7900" fill-rule="nonzero" xlink:href="#a"/>
        <g mask="url(#b)">
            <path fill="#8F8F8F" d="M34.869 36.634l-.004.005.004-.005z"/>
            <path fill="#3F403F" d="M41.376 24.736a.923.923 0 1 1-1.847 0 .923.923 0 0 1 1.847 0"/>
            <path fill="#714F47" d="M9.738 34.144c-.047-.413-2.367-.43-2.367-.43s-.68 4.962-.89 6.667c-.294.201-.91.633-1.141.723-.695.27-1.435.582-1.888.841-.338.193-.82.6-.992.857-.365.54-.15.918.113.799.386-.177 1.46-.696 1.46-.696-.564.433-1.295 1.218-1.135 1.441.049.068.334-.09.938-.598 1.798-1.514 2.844-1.69 2.844-1.69s-.12.513-.281.926c-.114.288.196.411.28.393.18-.038.523-1.525.751-1.998.138-.284-.011-.557-.152-.73.503-1.232 2.5-6.145 2.46-6.505"/>
            <path fill="#FFD200" d="M14.513 38.244l-2.197 20.629 2.946.468 3.132-14.85c.095-.237.448-.166.444.09l-1.031 15.095s1.344.272 2.477-.2c1.133-.473 3.482-22.176 3.482-22.176s-7.082-1.416-9.253.944"/>
            <path fill="#000" d="M17.673 49.566l4.754-.736c1.671-.207 1.737-10.995 1.512-12.664-1.245-9.23.498-7.933.289-9.85 0 0-1.868-4.55-4.116-4.313l-2.82.266-3.777 1.119-2.75 2.214c-1.978 1.608-.303 5.205-.303 5.205s3.26 6.238 1.52 17.755c-.215 1.42 4.266 1.18 5.69 1.004"/>
            <path fill="#62352D" d="M12.135 20.81c.685 1.397 1.486 4.067 1.55 4.152.063.084 1.266.804 1.967 1.332.176.132.505.045.633-.17.451-.752.404-1.035.99-2.116-.193-.715-1.096-3.487-1.484-4.476a7.925 7.925 0 0 1-2.855 1.235M9.49 18.5c-.169-.374-.676-.511-1.052-.348a.447.447 0 0 0-.225.184c-.062.114-.04.254-.007.38.19.733.669 1.355 1.183 1.911.199.216.427.436.718.477.107.015.23-.002.297-.086a.383.383 0 0 0 .067-.18c.045-.266.047-.539.006-.805M15.886 16.7a1.94 1.94 0 0 1 .148-.964.344.344 0 0 1 .117-.163.29.29 0 0 1 .17-.036c.233.01.446.154.588.34.142.186.222.411.285.637.183.66.237 1.356.156 2.036-.017.147-.043.3-.125.423-.082.124-.235.213-.379.176-.155-.039-.243-.199-.313-.343"/>
            <path fill="#020202" d="M9.525 19.5c-.68-1.584-1.837-4.166-1.855-4.638-.036-.936.065-2.654 2.81-3.9 1.703-.772 4.183.037 4.687 1.025.13.256 1.284 4.062 1.48 5.67a35.426 35.426 0 0 0-5.143 1.779"/>
            <path fill="#714F47" d="M15.317 14.708c-.34-.64-.227-.334-.97-1.23-.218-.264-1.538-.043-2.8.317-1.274.363-2.537.913-2.74 1.437 0 0 .18.751.153 1.343-.057 1.218.388 2.859.61 3.251.109.193.527.791 1.106 1.53.42.341 1.57 1.372 3.557 1.99.173-.019.348-.038.52-.077.362-.08.742-.276 1.059-.511.513-1.025.925-2.087 1.041-3.256-.048-.733-.128-1.305-.205-1.528-.195-.569-.738-2.146-1.331-3.266"/>
            <path fill="#62352D" d="M11.334 17.323l-.022-.027a.424.424 0 0 0-.079-.067.667.667 0 0 0-.41-.098.891.891 0 0 0-.299.068 1.34 1.34 0 0 0-.286.174c-.18.145-.401.294-.481.489 0 0 0-.012.003-.032a.375.375 0 0 1 .028-.092c.035-.08.123-.193.258-.314.066-.06.14-.127.237-.192a.992.992 0 0 1 .368-.155.85.85 0 0 1 .43.021c.128.044.222.127.253.225M15.23 16.052s-.004-.011-.017-.028a.227.227 0 0 0-.076-.061 1.184 1.184 0 0 0-.386-.102 1.014 1.014 0 0 0-.62.137.909.909 0 0 0-.265.257c-.037.05-.072.104-.107.157-.033.052-.065.107-.05.152.002.002-.04-.033 0-.129.02-.046.045-.1.079-.165a.968.968 0 0 1 .154-.217c.149-.162.437-.288.697-.284.13 0 .25.027.357.071.101.044.22.102.234.212M12.313 19.154a1.844 1.844 0 0 0 1.79-.653.921.921 0 0 1-.181.817c-.068.08-.148.147-.234.206a1.09 1.09 0 0 1-.5.194.863.863 0 0 1-.862-.532M12.355 18.719l.005-.063c.003-.04.009-.1.01-.175a3.861 3.861 0 0 0-.432-1.918c-.038-.076-.083-.15-.126-.226a.76.76 0 0 0-.159-.202s.019.006.052.025c.033.018.08.052.133.104.103.104.245.264.373.495.129.229.24.528.28.872.042.342.007.729-.136 1.088"/>
            <path fill="#020202" d="M10.85 15.674l-.042.013a.477.477 0 0 0-.05.017l-.03.01-.034.016a1.63 1.63 0 0 0-.348.22c-.134.105-.283.241-.45.39-.167.151-.357.31-.564.476 0 0 0-.064.028-.173a1.499 1.499 0 0 1 .668-.9c.113-.066.247-.119.392-.14a.824.824 0 0 1 .222 0 .622.622 0 0 1 .209.07M12.85 15.177l.046-.021a.608.608 0 0 1 .054-.023l.034-.014.039-.013c.109-.037.266-.069.457-.088.191-.019.419-.026.672-.037.254-.01.533-.03.83-.058 0 0-.049-.045-.155-.103a1.828 1.828 0 0 0-1.244-.172 1.342 1.342 0 0 0-.43.175.93.93 0 0 0-.185.156.623.623 0 0 0-.118.198M14.233 23.346s.857.54 1.065.469c.257-.088.199-.26.517-.94.016-.036.027-.093-.003-.117-.41-.32-1.62.502-1.58.588"/>
            <path fill="#FDD230" d="M16.163 16.372c.05.369.115 1.162-1.049 1.585-1.164.423-1.54-.188-1.892-.723-.353-.534.131-.847.131-.847 1.338-.954 2.514-.755 2.514-.755.135.014.246.37.296.74m-3.961 1.168c-.001.64.021 1.358-1.183 1.646-1.204.287-1.586-.41-1.748-.747-.161-.335-.265-.694-.16-.78 0 0 .872-.813 2.515-.754 0 0 .577-.005.576.635m.704-1.325s-.051.39-.4.486c-.344.112-.601-.185-.601-.185-2.199-.02-3.56 1.197-3.56 1.197l.092.306c.114.242.41.282.41.282.257.622.78 1.655 2.354 1.183s1.268-1.423 1.276-1.77c.008-.348.218-.381.218-.381s.195-.088.392.198c.198.286.466 1.248 2.04.775s1.441-1.623 1.314-2.284c0 0 .226-.196.187-.46l-.093-.307s-1.805-.266-3.629.96"/>
            <path fill="#000" d="M16.163 16.371c.05.37.115 1.163-1.049 1.586-1.164.423-1.54-.189-1.892-.723-.353-.534.131-.847.131-.847 1.338-.954 2.514-.755 2.514-.755.135.014.246.37.296.74m-3.961 1.168c-.001.64.021 1.358-1.183 1.646-1.204.287-1.586-.41-1.748-.747-.161-.335-.265-.694-.16-.78 0 0 .872-.813 2.515-.754 0 0 .577-.005.576.635"/>
            <path fill="#FFF" d="M11.929 20.615s2.047.2 3.134-.647c0 0-.058 3.05-3.134.647"/>
            <path fill="#62352D" d="M15.113 21.54l-.006.048a.77.77 0 0 1-.032.136.95.95 0 0 1-.292.419c-.165.14-.419.253-.704.235a.96.96 0 0 1-.402-.12 1.55 1.55 0 0 1-.326-.245s.065 0 .175.01c.11.01.263.031.427.03.161-.005.338-.034.534-.108.098-.036.2-.084.306-.148.105-.064.214-.144.32-.258"/>
            <path fill="#020202" d="M7.746 14.97s-1.457-1.276-.78-1.374c.675-.099-.223-1.167.494-1.146.717.021.216-1.183.961-.95.745.233.456-1.132 1.082-.858.626.274.867-1.095 1.441-.582.575.513.88-1.189 1.338-.37.458.82 1.043-.711 1.5.108.458.819 1.018-.526 1.212.428.193.954 1.111-.38.909.842-.203 1.223-.683 2.54-.508 2.791.174.25-1.3-1.595-1.738-1.578-.438.016-3.509 1.023-3.509 1.023L7.746 14.97z"/>
            <path fill="#000" d="M18.945 22.281s4.107-3.376 5.26-3.477c1.153-.101 4.056.03 3.9 1.784-.156 1.753.786 4.085.786 4.085s-7.957 4.31-8.12 4.533c-.164.222-2.635-5.966-1.826-6.925"/>
            <path fill="#62352D" d="M20.454 20.948l3.326-1.46 7.438-14.302 7.667 4.128 2.545-1.246 1.436 1.553s-2.787 3.448-3.434 4.374c-.646.925-9.91 9.086-9.91 9.086l-4.523.987s-4.38-.56-4.545-3.12"/>
            <g transform="translate(16.626 2.637)">
                <mask id="d" fill="#fff">
                    <use xlink:href="#c"/>
                </mask>
                <path fill="#595A5A" d="M29.407 16.425L10.745.24A.976.976 0 0 0 9.37.333L.245 10.766a.975.975 0 0 0 .092 1.377l18.666 16.31a.976.976 0 0 0 1.38-.096L29.506 17.8a.975.975 0 0 0-.1-1.375" mask="url(#d)"/>
            </g>
            <g transform="translate(16.538 2.021)">
                <mask id="f" fill="#fff">
                    <use xlink:href="#e"/>
                </mask>
                <path fill="#8F8F8F" d="M29.41 16.496L10.75.309a.975.975 0 0 0-1.373.095L.249 10.836a.975.975 0 0 0 .092 1.377l18.666 16.31a.976.976 0 0 0 1.38-.096L29.51 17.87a.975.975 0 0 0-.1-1.374" mask="url(#f)"/>
            </g>
            <path fill="#000" d="M43.394 17.96L27.851 4.478a.813.813 0 0 0-1.144.079l-7.602 8.689a.812.812 0 0 0 .077 1.147l15.547 13.585c.34.296.855.26 1.15-.08l7.597-8.793a.812.812 0 0 0-.082-1.145"/>
            <path fill="#714F47" d="M30.718 7.896l-.51-.306a1.414 1.414 0 0 1-.486-1.934l1.26-2.106a1.414 1.414 0 0 1 1.934-.486l.511.306c.666.399.884 1.269.486 1.934l-1.26 2.106a1.414 1.414 0 0 1-1.935.486"/>
            <path fill="#91766F" d="M31.121 4.69l-.026.003c-.053.004-.097.022-.12.059l-.5.835c-.062.105.006.262.151.349l1.396.835c.145.087.316.073.379-.032l.488-.817c.043-.07-.002-.175-.1-.233L31.12 4.69z"/>
            <path fill="#714F47" d="M33.902 9.652l-.512-.306a1.414 1.414 0 0 1-.485-1.934l1.26-2.106A1.414 1.414 0 0 1 36.1 4.82l.512.307c.665.398.884 1.268.485 1.933l-1.26 2.106a1.414 1.414 0 0 1-1.934.486"/>
            <path fill="#91766F" d="M34.304 6.446l-.026.003c-.053.004-.097.022-.12.059l-.499.835c-.063.105.005.262.15.349l1.396.835c.146.087.316.073.379-.032l.489-.817c.042-.07-.003-.175-.101-.233l-1.668-.999z"/>
            <path fill="#714F47" d="M36.714 11.288l-.511-.306a1.414 1.414 0 0 1-.486-1.934l1.26-2.106a1.414 1.414 0 0 1 1.934-.486l.512.306c.665.399.884 1.27.485 1.934l-1.26 2.106a1.414 1.414 0 0 1-1.934.486"/>
            <path fill="#91766F" d="M37.116 8.082l-.025.003h-.001c-.052.004-.097.022-.119.059l-.5.835c-.063.105.005.262.15.349l1.396.835c.146.087.316.073.379-.032l.489-.817c.042-.07-.003-.175-.1-.233l-1.669-.999z"/>
            <path fill="#714F47" d="M40.583 11.122l-.512-.306a1.414 1.414 0 0 1-.485-1.934l1.26-2.106a1.414 1.414 0 0 1 1.934-.486l.512.307c.665.398.883 1.268.485 1.934l-1.26 2.105a1.414 1.414 0 0 1-1.934.486"/>
            <path fill="#91766F" d="M40.985 7.917l-.026.002c-.053.004-.097.022-.12.059l-.5.835c-.062.105.006.262.151.349l1.396.835c.145.088.316.073.379-.032l.489-.817c.042-.07-.003-.175-.101-.233l-1.668-.998z"/>
            <path fill="#714F47" d="M26.847 23.41l-.144.58a1.414 1.414 0 0 1-1.71 1.026l-4.133-1.033a1.414 1.414 0 0 1-1.026-1.71l.144-.577a1.414 1.414 0 0 1 1.71-1.027l4.133 1.032a1.414 1.414 0 0 1 1.026 1.71"/>
            <path fill="#91766F" d="M23.203 23.842l.015.025v.001c.03.051.074.092.13.106l1.283.32a.306.306 0 0 0 .368-.226l.394-1.578a.306.306 0 0 0-.218-.372l-1.255-.313a.204.204 0 0 0-.246.15l-.471 1.887z"/>
            <path fill="#3F403F" d="M20.519 10.384l3.315-3.651M20.686 10.551L24 6.9c.204-.225-.13-.56-.334-.334l-3.315 3.651c-.204.225.129.56.334.334"/>
            <path fill="#000" d="M9.98 26.63s-1.917 3.732-2.848 6.63c-.196.61.018 1.275.53 1.66.861.647 1.601.661 2.867-.857l2.756-3.167-3.304-4.265z"/>
            <path fill="#FFD200" d="M17.97 23.787c-.124-.557-.379-1.092-.782-1.487l-.409.12c.002.005.39 1.057.388 1.489 0 .269-.622 1.81-.901 2.043-.163.202-1.436-.292-1.79-.52-.333-.213-.629-.348-.874-.692-.031-.043-.264-.751-.385-1.129l-.364.31c-.115.205-.204.418-.205.613a.89.89 0 0 0 .031.186c.031.09.076.178.131.262.032.043.07.086.113.13.108.108.224.209.341.307 1.035.6 2.402 1.603 3.128 1.757.136-.083.251-.208.345-.35.31-.471.551-1.018.783-1.53.2-.444.368-.904.474-1.38a2.728 2.728 0 0 0-.025-.129M8.167 33.961a2.9 2.9 0 0 1-.864-1.212c-.06.173-.117.343-.171.511-.196.61.018 1.275.53 1.66.78.586 1.46.653 2.521-.467-.722.121-1.433-.022-2.016-.492"/>
            <path fill="#FFD200" d="M15.407 26.743l2.08 8.098 1.412-.371-1.857-8.32zM19.196 28.972l.297.817 2.6-.594-.222-.966z"/>
            <path fill="#000" d="M16.819 27.375a.334.334 0 1 1-.669 0 .334.334 0 0 1 .669 0M17.302 29.344a.334.334 0 1 1-.669 0 .334.334 0 0 1 .669 0M17.747 31.2a.334.334 0 1 1-.668.001.334.334 0 0 1 .668 0M18.119 32.984a.334.334 0 1 1-.669 0 .334.334 0 0 1 .669 0"/>
            <g>
                <g transform="translate(25.423 10.818)">
                    <mask id="i" fill="#fff">
                        <use xlink:href="#h"/>
                    </mask>
                    <path fill="#FFF" d="M1.984 3.358L.732 4.91a.404.404 0 1 0 .63.508l.637-.792.245 2.3a.404.404 0 1 0 .804-.088L2.804 4.54l.79.637a.405.405 0 0 0 .508-.63l-1.55-1.25a.404.404 0 0 0-.568.062" mask="url(#i)"/>
                </g>
                <g transform="translate(25.423 10.818)">
                    <mask id="k" fill="#fff">
                        <use xlink:href="#j"/>
                    </mask>
                    <path fill="#FF7900" d="M4.925 4.169l1.251-1.553a.404.404 0 1 0-.63-.507L4.91 2.9 4.664.601a.404.404 0 1 0-.804.087l.245 2.3-.79-.637a.405.405 0 0 0-.509.63l1.55 1.25c.174.14.428.112.569-.062" mask="url(#k)"/>
                </g>
                <g transform="translate(25.423 10.818)">
                    <mask id="m" fill="#fff">
                        <use xlink:href="#l"/>
                    </mask>
                    <path fill="#FFF" d="M3.78 7.407c.28-.348.703-.343 1.036-.075.322.26.416.673.137 1.02-.28.347-.703.342-1.026.082-.333-.268-.427-.68-.147-1.027m.966.778c.178-.222.057-.456-.13-.607-.195-.158-.45-.226-.629-.005-.178.222-.058.457.138.615.187.15.442.218.62-.003" mask="url(#m)"/>
                </g>
                <g transform="translate(25.423 10.818)">
                    <mask id="o" fill="#fff">
                        <use xlink:href="#n"/>
                    </mask>
                    <path fill="#FFF" d="M4.644 7.02l.171-.211.15.121.003-.003a.369.369 0 0 1 .037-.398.214.214 0 0 1 .047-.042l.207.166a.536.536 0 0 0-.073.074c-.131.163-.06.315.083.43l.366.294-.18.223-.81-.653z" mask="url(#o)"/>
                </g>
                <g transform="translate(25.423 10.818)">
                    <mask id="q" fill="#fff">
                        <use xlink:href="#p"/>
                    </mask>
                    <path fill="#FFF" d="M5.347 6.69c-.199-.188-.11-.434.036-.622.13-.168.324-.34.518-.177l.422.352a.53.53 0 0 0 .203.121l-.183.234a.414.414 0 0 1-.09-.049.507.507 0 0 1-.12.367c-.125.159-.3.222-.466.083-.184-.153-.116-.333-.024-.491.09-.159.197-.287.106-.363-.095-.08-.162-.023-.226.058-.068.088-.078.174.004.255l-.18.231zm.58-.397c.002.067-.06.15-.103.231-.041.084-.069.168.013.236.083.07.155.02.214-.055.14-.18.007-.302-.041-.342l-.083-.07z" mask="url(#q)"/>
                </g>
                <g transform="translate(25.423 10.818)">
                    <mask id="s" fill="#fff">
                        <use xlink:href="#r"/>
                    </mask>
                    <path fill="#FFF" d="M5.798 5.59l.17-.212.114.09.003-.004a.372.372 0 0 1 .066-.357c.19-.237.372-.189.573-.027l.498.402-.18.223-.457-.37c-.133-.107-.231-.12-.315-.017-.097.12-.071.227.093.36l.425.342-.18.223-.81-.653z" mask="url(#s)"/>
                </g>
                <g transform="translate(25.423 10.818)">
                    <mask id="u" fill="#fff">
                        <use xlink:href="#t"/>
                    </mask>
                    <path fill="#FFF" d="M7.894 4.542c.133.108.321.337.02.71-.13.16-.355.287-.55.149l.18-.222c.099.047.182.002.245-.077.1-.124.06-.248-.056-.34l-.107-.086-.003.003c.046.117.008.247-.07.344-.197.244-.465.198-.688.02-.21-.17-.303-.445-.12-.673.086-.107.188-.16.325-.137l.003-.003-.108-.087.17-.212.76.611zm-.534-.081c-.132-.106-.286-.155-.403-.01-.101.125-.036.268.085.365.116.094.278.152.389.016.102-.127.045-.278-.071-.371z" mask="url(#u)"/>
                </g>
                <g transform="translate(25.423 10.818)">
                    <mask id="w" fill="#fff">
                        <use xlink:href="#v"/>
                    </mask>
                    <path fill="#FFF" d="M7.909 4.101c.166.124.301.104.415-.04.081-.102.085-.236.041-.299l.18-.226c.159.25.13.479-.038.69-.234.295-.578.315-.862.082-.275-.225-.331-.59-.106-.874.252-.318.637-.257.905-.007l-.535.674zm.171-.549c-.146-.08-.258-.08-.357.045-.129.162-.042.311.026.373l.331-.418z" mask="url(#w)"/>
                </g>
            </g>
            <path fill="#FFF" d="M30.957 19.128l.57.869-.003.003-.98-.358-.28.347 1.119.902.186-.23-.785-.634.002-.003 1.007.358.153-.19-.571-.914.002-.003.793.64.186-.232-1.119-.902z"/>
            <g>
                <g transform="translate(25.423 10.818)">
                    <mask id="y" fill="#fff">
                        <use xlink:href="#x"/>
                    </mask>
                    <path fill="#FFF" d="M6.533 7.702c.23-.287.568-.318.857-.085.287.232.327.57.097.856-.229.285-.566.317-.853.085-.289-.234-.33-.57-.1-.856m.766.62c.137-.17.033-.34-.11-.455-.146-.118-.332-.184-.47-.014-.135.17-.03.338.114.455.144.116.33.183.466.014" mask="url(#y)"/>
                </g>
                <g transform="translate(25.423 10.818)">
                    <mask id="A" fill="#fff">
                        <use xlink:href="#z"/>
                    </mask>
                    <path fill="#FFF" d="M6.957 7.177l.17-.212.113.091.004-.004a.372.372 0 0 1 .065-.357c.192-.237.373-.19.574-.028l.498.402-.18.223-.458-.37c-.133-.106-.23-.12-.314-.017-.097.121-.072.227.093.36l.425.343-.18.223-.81-.654z" mask="url(#A)"/>
                </g>
                <g transform="translate(25.423 10.818)">
                    <mask id="C" fill="#fff">
                        <use xlink:href="#B"/>
                    </mask>
                    <path fill="#FFF" d="M8.338 6.593c.166.124.302.104.415-.039.082-.103.086-.237.042-.3l.179-.226c.16.25.13.48-.038.69-.234.295-.578.315-.862.082-.275-.225-.33-.59-.106-.874.253-.318.637-.257.905-.007l-.535.674zm.172-.548c-.147-.082-.259-.08-.358.044-.129.163-.042.311.027.373l.33-.417z" mask="url(#C)"/>
                </g>
                <g transform="translate(25.423 10.818)">
                    <mask id="E" fill="#fff">
                        <use xlink:href="#D"/>
                    </mask>
                    <path fill="#FFF" d="M9.587 5.781c.09.154.082.274-.042.428a1.684 1.684 0 0 1-.118.13l-.183-.148c.037-.04.079-.079.113-.124.054-.083-.006-.173-.09-.2l-.991-.326.192-.24.703.264.003-.003-.412-.625.186-.23.639 1.074z" mask="url(#E)"/>
                </g>
            </g>
        </g>
        <g transform="translate(0 .068)">
            <mask id="G" fill="#fff">
                <use xlink:href="#F"/>
            </mask>
            <g mask="url(#G)">
                <path fill="#8F8F8F" d="M34.869 36.566l-.004.004.004-.004z"/>
                <path fill="#3F403F" d="M41.376 24.668a.923.923 0 1 1-1.847 0 .923.923 0 0 1 1.847 0"/>
                <path fill="#714F47" d="M9.738 34.075c-.047-.412-2.367-.428-2.367-.428s-.68 4.96-.89 6.666c-.294.201-.91.632-1.141.722-.695.27-1.435.582-1.888.842-.338.193-.82.6-.992.857-.365.54-.15.918.113.798.386-.176 1.46-.696 1.46-.696-.564.434-1.295 1.219-1.135 1.442.049.068.334-.09.938-.599 1.798-1.514 2.844-1.69 2.844-1.69s-.12.514-.281.926c-.114.289.196.412.28.394.18-.039.523-1.525.751-1.998.138-.284-.011-.558-.152-.731.503-1.231 2.5-6.144 2.46-6.505"/>
                <path fill="#FFD200" d="M14.513 38.176l-2.197 20.629 2.946.468 3.132-14.85c.095-.237.448-.166.444.09l-1.031 15.095s1.344.271 2.477-.2c1.133-.473 3.482-22.176 3.482-22.176s-7.082-1.416-9.253.944"/>
                <path fill="#000" d="M17.673 49.498l4.754-.737c1.671-.206 1.737-10.994 1.512-12.664-1.245-9.23.498-7.932.289-9.85 0 0-1.868-4.55-4.116-4.313l-2.82.267-3.777 1.118-2.75 2.215c-1.978 1.608-.303 5.204-.303 5.204s3.26 6.24 1.52 17.755c-.215 1.42 4.266 1.18 5.69 1.005"/>
                <path fill="#62352D" d="M12.135 20.742c.685 1.396 1.486 4.067 1.55 4.152.063.084 1.266.804 1.967 1.331.176.133.505.046.633-.168.451-.753.404-1.036.99-2.117-.193-.715-1.096-3.487-1.484-4.476a7.925 7.925 0 0 1-2.855 1.235M9.49 18.43c-.169-.372-.676-.51-1.052-.346a.447.447 0 0 0-.225.184c-.062.114-.04.254-.007.38.19.733.669 1.355 1.183 1.91.199.216.427.437.718.478.107.015.23-.002.297-.086a.383.383 0 0 0 .067-.18c.045-.266.047-.54.006-.805M15.886 16.632a1.94 1.94 0 0 1 .148-.965.344.344 0 0 1 .117-.162.29.29 0 0 1 .17-.036c.233.01.446.153.588.34.142.185.222.41.285.636.183.66.237 1.356.156 2.037-.017.147-.043.3-.125.423-.082.124-.235.212-.379.176-.155-.04-.243-.2-.313-.344"/>
                <path fill="#020202" d="M9.525 19.432c-.68-1.584-1.837-4.167-1.855-4.638-.036-.936.065-2.655 2.81-3.9 1.703-.773 4.183.037 4.687 1.025.13.256 1.284 4.061 1.48 5.669a35.426 35.426 0 0 0-5.143 1.78"/>
                <path fill="#714F47" d="M15.317 14.64c-.34-.641-.227-.334-.97-1.23-.218-.264-1.538-.043-2.8.316-1.274.363-2.537.914-2.74 1.438 0 0 .18.75.153 1.342-.057 1.219.388 2.86.61 3.252.109.192.527.791 1.106 1.53.42.341 1.57 1.372 3.557 1.99.173-.02.348-.038.52-.077.362-.081.742-.276 1.059-.511.513-1.025.925-2.088 1.041-3.256-.048-.733-.128-1.305-.205-1.528-.195-.57-.738-2.147-1.331-3.267"/>
                <path fill="#62352D" d="M11.334 17.255l-.022-.027a.424.424 0 0 0-.079-.068.667.667 0 0 0-.41-.098.891.891 0 0 0-.299.068 1.34 1.34 0 0 0-.286.175c-.18.145-.401.294-.481.488 0 0 0-.011.003-.031a.375.375 0 0 1 .028-.093c.035-.08.123-.192.258-.313.066-.06.14-.127.237-.192a.992.992 0 0 1 .368-.156.85.85 0 0 1 .43.022c.128.044.222.127.253.225M15.23 15.983s-.004-.01-.017-.028a.227.227 0 0 0-.076-.06 1.184 1.184 0 0 0-.386-.103 1.014 1.014 0 0 0-.62.138.909.909 0 0 0-.265.256c-.037.051-.072.105-.107.158-.033.052-.065.107-.05.152.002.002-.04-.033 0-.13.02-.046.045-.1.079-.164a.968.968 0 0 1 .154-.217c.149-.162.437-.288.697-.285.13 0 .25.028.357.072.101.044.22.101.234.211M12.313 19.086a1.844 1.844 0 0 0 1.79-.653.921.921 0 0 1-.181.817c-.068.08-.148.147-.234.205a1.09 1.09 0 0 1-.5.194.863.863 0 0 1-.862-.531M12.355 18.65l.005-.062c.003-.04.009-.1.01-.175a3.861 3.861 0 0 0-.432-1.918c-.038-.076-.083-.15-.126-.226a.76.76 0 0 0-.159-.202s.019.006.052.025c.033.018.08.052.133.104.103.103.245.264.373.495.129.228.24.528.28.871.042.342.007.73-.136 1.088"/>
                <path fill="#020202" d="M10.85 15.605l-.042.013a.477.477 0 0 0-.05.017l-.03.011-.034.015a1.63 1.63 0 0 0-.348.22c-.134.106-.283.242-.45.391-.167.151-.357.31-.564.476 0 0 0-.065.028-.173a1.499 1.499 0 0 1 .668-.9c.113-.066.247-.12.392-.14a.824.824 0 0 1 .222 0 .622.622 0 0 1 .209.07M12.85 15.109l.046-.021a.608.608 0 0 1 .054-.023l.034-.014.039-.013c.109-.038.266-.07.457-.088.191-.02.419-.026.672-.038.254-.01.533-.03.83-.057 0 0-.049-.046-.155-.103a1.828 1.828 0 0 0-1.244-.172 1.342 1.342 0 0 0-.43.175.93.93 0 0 0-.185.156.623.623 0 0 0-.118.198M14.233 23.277s.857.54 1.065.47c.257-.089.199-.26.517-.94.016-.036.027-.094-.003-.117-.41-.32-1.62.502-1.58.587"/>
                <path fill="#FDD230" d="M16.163 16.303c.05.37.115 1.163-1.049 1.585-1.164.423-1.54-.188-1.892-.722-.353-.534.131-.847.131-.847 1.338-.954 2.514-.755 2.514-.755.135.013.246.37.296.74m-3.961 1.168c-.001.64.021 1.357-1.183 1.645-1.204.288-1.586-.41-1.748-.746-.161-.335-.265-.695-.16-.78 0 0 .872-.813 2.515-.754 0 0 .577-.006.576.635m.704-1.325s-.051.39-.4.485c-.344.113-.601-.184-.601-.184-2.199-.02-3.56 1.196-3.56 1.196l.092.307c.114.242.41.282.41.282.257.621.78 1.654 2.354 1.182s1.268-1.422 1.276-1.77c.008-.347.218-.38.218-.38s.195-.088.392.197c.198.286.466 1.248 2.04.775 1.574-.472 1.441-1.622 1.314-2.283 0 0 .226-.196.187-.46l-.093-.308s-1.805-.265-3.629.961"/>
                <path fill="#000" d="M16.163 16.303c.05.37.115 1.163-1.049 1.585-1.164.423-1.54-.188-1.892-.722-.353-.534.131-.847.131-.847 1.338-.954 2.514-.755 2.514-.755.135.013.246.37.296.74m-3.961 1.168c-.001.64.021 1.357-1.183 1.645-1.204.288-1.586-.41-1.748-.746-.161-.335-.265-.695-.16-.78 0 0 .872-.813 2.515-.754 0 0 .577-.006.576.635"/>
                <path fill="#FFF" d="M11.929 20.546s2.047.201 3.134-.647c0 0-.058 3.05-3.134.647"/>
                <path fill="#62352D" d="M15.113 21.47l-.006.05a.77.77 0 0 1-.032.136.95.95 0 0 1-.292.419c-.165.14-.419.252-.704.234a.96.96 0 0 1-.402-.12 1.55 1.55 0 0 1-.326-.244s.065 0 .175.01c.11.009.263.03.427.03.161-.005.338-.034.534-.108.098-.037.2-.084.306-.148.105-.064.214-.145.32-.258"/>
                <path fill="#020202" d="M7.746 14.901s-1.457-1.275-.78-1.374c.675-.098-.223-1.166.494-1.145.717.02.216-1.183.961-.95.745.233.456-1.132 1.082-.858.626.273.867-1.096 1.441-.583.575.513.88-1.188 1.338-.369.458.82 1.043-.712 1.5.108.458.819 1.018-.526 1.212.428.193.954 1.111-.38.909.842-.203 1.222-.683 2.54-.508 2.79.174.252-1.3-1.595-1.738-1.578-.438.017-3.509 1.024-3.509 1.024l-2.402 1.665z"/>
                <path fill="#000" d="M18.945 22.213s4.107-3.377 5.26-3.478c1.153-.1 4.056.03 3.9 1.784-.156 1.754.786 4.086.786 4.086s-7.957 4.31-8.12 4.533c-.164.222-2.635-5.966-1.826-6.925"/>
                <path fill="#62352D" d="M20.454 20.88l3.326-1.46 7.438-14.302 7.667 4.128L41.43 8l1.436 1.552s-2.787 3.449-3.434 4.374c-.646.926-9.91 9.087-9.91 9.087L24.999 24s-4.38-.56-4.545-3.12"/>
                <g transform="translate(16.626 2.569)">
                    <mask id="I" fill="#fff">
                        <use xlink:href="#H"/>
                    </mask>
                    <path fill="#595A5A" d="M29.407 16.425L10.745.24A.976.976 0 0 0 9.37.333L.245 10.766a.975.975 0 0 0 .092 1.377l18.666 16.31a.976.976 0 0 0 1.38-.096L29.506 17.8a.975.975 0 0 0-.1-1.375" mask="url(#I)"/>
                </g>
                <g transform="translate(16.538 1.953)">
                    <mask id="K" fill="#fff">
                        <use xlink:href="#J"/>
                    </mask>
                    <path fill="#8F8F8F" d="M29.41 16.496L10.75.309a.975.975 0 0 0-1.373.095L.249 10.836a.975.975 0 0 0 .092 1.377l18.666 16.31a.976.976 0 0 0 1.38-.096L29.51 17.87a.975.975 0 0 0-.1-1.374" mask="url(#K)"/>
                </g>
                <path fill="#000" d="M43.394 17.892L27.851 4.409a.813.813 0 0 0-1.144.08l-7.602 8.689a.812.812 0 0 0 .077 1.146L34.729 27.91c.34.296.855.26 1.15-.081l7.597-8.792a.812.812 0 0 0-.082-1.145"/>
                <path fill="#714F47" d="M30.718 7.827l-.51-.306a1.414 1.414 0 0 1-.486-1.934l1.26-2.105a1.414 1.414 0 0 1 1.934-.486l.511.306c.666.398.884 1.269.486 1.934l-1.26 2.106a1.414 1.414 0 0 1-1.935.485"/>
                <path fill="#91766F" d="M31.121 4.622l-.026.002c-.053.004-.097.023-.12.06l-.5.834c-.062.105.006.262.151.35l1.396.835c.145.087.316.073.379-.032l.488-.817c.043-.07-.002-.175-.1-.234l-1.668-.998z"/>
                <path fill="#714F47" d="M33.902 9.584l-.512-.307a1.414 1.414 0 0 1-.485-1.934l1.26-2.105a1.414 1.414 0 0 1 1.934-.486l.512.306c.665.399.884 1.269.485 1.934l-1.26 2.106a1.414 1.414 0 0 1-1.934.486"/>
                <path fill="#91766F" d="M34.304 6.378l-.026.002c-.053.004-.097.023-.12.06l-.499.835c-.063.104.005.262.15.349l1.396.835c.146.087.316.073.379-.032l.489-.817c.042-.07-.003-.175-.101-.234l-1.668-.998z"/>
                <path fill="#714F47" d="M36.714 11.22l-.511-.307a1.414 1.414 0 0 1-.486-1.934l1.26-2.105a1.414 1.414 0 0 1 1.934-.486l.512.306c.665.399.884 1.269.485 1.934l-1.26 2.106a1.414 1.414 0 0 1-1.934.486"/>
                <path fill="#91766F" d="M37.116 8.014l-.025.002h-.001c-.052.004-.097.023-.119.06l-.5.834c-.063.105.005.263.15.35l1.396.835c.146.087.316.073.379-.032l.489-.817c.042-.07-.003-.175-.1-.234l-1.669-.998z"/>
                <path fill="#714F47" d="M40.583 11.054l-.512-.307a1.414 1.414 0 0 1-.485-1.934l1.26-2.105a1.414 1.414 0 0 1 1.934-.486l.512.306c.665.399.883 1.269.485 1.934l-1.26 2.106a1.414 1.414 0 0 1-1.934.486"/>
                <path fill="#91766F" d="M40.985 7.848l-.026.002c-.053.004-.097.023-.12.06l-.5.835c-.062.105.006.262.151.349l1.396.835c.145.087.316.073.379-.032l.489-.817c.042-.07-.003-.175-.101-.233l-1.668-.999z"/>
                <path fill="#714F47" d="M26.847 23.343l-.144.578a1.414 1.414 0 0 1-1.71 1.026l-4.133-1.032a1.414 1.414 0 0 1-1.026-1.71l.144-.578a1.414 1.414 0 0 1 1.71-1.026l4.133 1.032a1.414 1.414 0 0 1 1.026 1.71"/>
                <path fill="#91766F" d="M23.203 23.773l.015.026c.03.052.074.093.13.107l1.283.32A.306.306 0 0 0 25 24l.394-1.578a.306.306 0 0 0-.218-.372l-1.255-.314a.204.204 0 0 0-.246.152l-.471 1.885z"/>
                <path fill="#3F403F" d="M20.519 10.316l3.315-3.651M20.686 10.483L24 6.832c.204-.225-.13-.56-.334-.334l-3.315 3.65c-.204.225.129.56.334.335"/>
                <path fill="#000" d="M9.98 26.562s-1.917 3.731-2.848 6.63c-.196.61.018 1.275.53 1.66.861.647 1.601.661 2.867-.857l2.756-3.167-3.304-4.266z"/>
                <path fill="#FFD200" d="M17.97 23.719c-.124-.558-.379-1.093-.782-1.487l-.409.12c.002.005.39 1.057.388 1.489 0 .268-.622 1.81-.901 2.042-.163.202-1.436-.291-1.79-.518-.333-.214-.629-.35-.874-.693-.031-.043-.264-.751-.385-1.129l-.364.31c-.115.204-.204.418-.205.613a.89.89 0 0 0 .031.185c.031.09.076.178.131.263.032.043.07.086.113.13.108.107.224.208.341.306 1.035.601 2.402 1.604 3.128 1.757.136-.082.251-.207.345-.35.31-.47.551-1.017.783-1.53.2-.444.368-.903.474-1.379a2.728 2.728 0 0 0-.025-.13M8.167 33.893a2.9 2.9 0 0 1-.864-1.212c-.06.172-.117.343-.171.51-.196.61.018 1.276.53 1.66.78.587 1.46.654 2.521-.466-.722.12-1.433-.022-2.016-.492"/>
                <path fill="#FFD200" d="M15.407 26.675l2.08 8.098L18.9 34.4l-1.857-8.32zM19.196 28.904l.297.817 2.6-.594-.222-.966z"/>
                <path fill="#000" d="M16.819 27.307a.334.334 0 1 1-.669 0 .334.334 0 0 1 .669 0M17.302 29.275a.334.334 0 1 1-.669 0 .334.334 0 0 1 .669 0M17.747 31.133a.334.334 0 1 1-.668 0 .334.334 0 0 1 .668 0M18.119 32.916a.334.334 0 1 1-.669 0 .334.334 0 0 1 .669 0"/>
                <g>
                    <g transform="translate(25.423 10.75)">
                        <mask id="N" fill="#fff">
                            <use xlink:href="#M"/>
                        </mask>
                        <path fill="#FFF" d="M1.984 3.358L.732 4.91a.404.404 0 1 0 .63.508l.637-.792.245 2.3a.404.404 0 1 0 .804-.088L2.804 4.54l.79.637a.405.405 0 0 0 .508-.63l-1.55-1.25a.404.404 0 0 0-.568.062" mask="url(#N)"/>
                    </g>
                    <g transform="translate(25.423 10.75)">
                        <mask id="P" fill="#fff">
                            <use xlink:href="#O"/>
                        </mask>
                        <path fill="#FF7900" d="M4.925 4.169l1.251-1.553a.404.404 0 1 0-.63-.507L4.91 2.9 4.664.601a.404.404 0 1 0-.804.087l.245 2.3-.79-.637a.405.405 0 0 0-.509.63l1.55 1.25c.174.14.428.112.569-.062" mask="url(#P)"/>
                    </g>
                    <g transform="translate(25.423 10.75)">
                        <mask id="R" fill="#fff">
                            <use xlink:href="#Q"/>
                        </mask>
                        <path fill="#FFF" d="M3.78 7.407c.28-.348.703-.343 1.036-.075.322.26.416.673.137 1.02-.28.347-.703.342-1.026.082-.333-.268-.427-.68-.147-1.027m.966.778c.178-.222.057-.456-.13-.607-.195-.158-.45-.226-.629-.005-.178.222-.058.457.138.615.187.15.442.218.62-.003" mask="url(#R)"/>
                    </g>
                    <g transform="translate(25.423 10.75)">
                        <mask id="T" fill="#fff">
                            <use xlink:href="#S"/>
                        </mask>
                        <path fill="#FFF" d="M4.644 7.02l.171-.211.15.121.003-.003a.369.369 0 0 1 .037-.398.214.214 0 0 1 .047-.042l.207.166a.536.536 0 0 0-.073.074c-.131.163-.06.315.083.43l.366.294-.18.223-.81-.653z" mask="url(#T)"/>
                    </g>
                    <g transform="translate(25.423 10.75)">
                        <mask id="V" fill="#fff">
                            <use xlink:href="#U"/>
                        </mask>
                        <path fill="#FFF" d="M5.347 6.69c-.199-.188-.11-.434.036-.622.13-.168.324-.34.518-.177l.422.352a.53.53 0 0 0 .203.121l-.183.234a.414.414 0 0 1-.09-.049.507.507 0 0 1-.12.367c-.125.159-.3.222-.466.083-.184-.153-.116-.333-.024-.491.09-.159.197-.287.106-.363-.095-.08-.162-.023-.226.058-.068.088-.078.174.004.255l-.18.231zm.58-.397c.002.067-.06.15-.103.231-.041.084-.069.168.013.236.083.07.155.02.214-.055.14-.18.007-.302-.041-.342l-.083-.07z" mask="url(#V)"/>
                    </g>
                    <g transform="translate(25.423 10.75)">
                        <mask id="X" fill="#fff">
                            <use xlink:href="#W"/>
                        </mask>
                        <path fill="#FFF" d="M5.798 5.59l.17-.212.114.09.003-.004a.372.372 0 0 1 .066-.357c.19-.237.372-.189.573-.027l.498.402-.18.223-.457-.37c-.133-.107-.231-.12-.315-.017-.097.12-.071.227.093.36l.425.342-.18.223-.81-.653z" mask="url(#X)"/>
                    </g>
                    <g transform="translate(25.423 10.75)">
                        <mask id="Z" fill="#fff">
                            <use xlink:href="#Y"/>
                        </mask>
                        <path fill="#FFF" d="M7.894 4.542c.133.108.321.337.02.71-.13.16-.355.287-.55.149l.18-.222c.099.047.182.002.245-.077.1-.124.06-.248-.056-.34l-.107-.086-.003.003c.046.117.008.247-.07.344-.197.244-.465.198-.688.02-.21-.17-.303-.445-.12-.673.086-.107.188-.16.325-.137l.003-.003-.108-.087.17-.212.76.611zm-.534-.081c-.132-.106-.286-.155-.403-.01-.101.125-.036.268.085.365.116.094.278.152.389.016.102-.127.045-.278-.071-.371z" mask="url(#Z)"/>
                    </g>
                    <g transform="translate(25.423 10.75)">
                        <mask id="ab" fill="#fff">
                            <use xlink:href="#aa"/>
                        </mask>
                        <path fill="#FFF" d="M7.909 4.101c.166.124.301.104.415-.04.081-.102.085-.236.041-.299l.18-.226c.159.25.13.479-.038.69-.234.295-.578.315-.862.082-.275-.225-.331-.59-.106-.874.252-.318.637-.257.905-.007l-.535.674zm.171-.549c-.146-.08-.258-.08-.357.045-.129.162-.042.311.026.373l.331-.418z" mask="url(#ab)"/>
                    </g>
                </g>
                <path fill="#FFF" d="M30.957 19.06l.57.868-.003.004-.98-.359-.28.347 1.119.903.186-.231-.785-.633.002-.003 1.007.358.153-.19-.571-.914.002-.004.793.64.186-.231-1.119-.902z"/>
                <g>
                    <g transform="translate(25.423 10.75)">
                        <mask id="ad" fill="#fff">
                            <use xlink:href="#ac"/>
                        </mask>
                        <path fill="#FFF" d="M6.533 7.702c.23-.287.568-.318.857-.085.287.232.327.57.097.856-.229.285-.566.317-.853.085-.289-.234-.33-.57-.1-.856m.766.62c.137-.17.033-.34-.11-.455-.146-.118-.332-.184-.47-.014-.135.17-.03.338.114.455.144.116.33.183.466.014" mask="url(#ad)"/>
                    </g>
                    <g transform="translate(25.423 10.75)">
                        <mask id="af" fill="#fff">
                            <use xlink:href="#ae"/>
                        </mask>
                        <path fill="#FFF" d="M6.957 7.177l.17-.212.113.091.004-.004a.372.372 0 0 1 .065-.357c.192-.237.373-.19.574-.028l.498.402-.18.223-.458-.37c-.133-.106-.23-.12-.314-.017-.097.121-.072.227.093.36l.425.343-.18.223-.81-.654z" mask="url(#af)"/>
                    </g>
                    <g transform="translate(25.423 10.75)">
                        <mask id="ah" fill="#fff">
                            <use xlink:href="#ag"/>
                        </mask>
                        <path fill="#FFF" d="M8.338 6.593c.166.124.302.104.415-.039.082-.103.086-.237.042-.3l.179-.226c.16.25.13.48-.038.69-.234.295-.578.315-.862.082-.275-.225-.33-.59-.106-.874.253-.318.637-.257.905-.007l-.535.674zm.172-.548c-.147-.082-.259-.08-.358.044-.129.163-.042.311.027.373l.33-.417z" mask="url(#ah)"/>
                    </g>
                    <g transform="translate(25.423 10.75)">
                        <mask id="aj" fill="#fff">
                            <use xlink:href="#ai"/>
                        </mask>
                        <path fill="#FFF" d="M9.587 5.781c.09.154.082.274-.042.428a1.684 1.684 0 0 1-.118.13l-.183-.148c.037-.04.079-.079.113-.124.054-.083-.006-.173-.09-.2l-.991-.326.192-.24.703.264.003-.003-.412-.625.186-.23.639 1.074z" mask="url(#aj)"/>
                    </g>
                </g>
            </g>
        </g>
    </g>
</svg>
