<svg xmlns="http://www.w3.org/2000/svg" xmlns:xlink="http://www.w3.org/1999/xlink" width="150" height="150" viewBox="0 0 150 150">
    <defs>
        <path id="a" d="M.048.165h40.01v68.241H.048z"/>
        <path id="c" d="M.05.135h49.236v26.14H.05z"/>
        <path id="e" d="M5.185 3.064L.49 13.852a4.88 4.88 0 0 0 2.528 6.424l18.89 8.22a4.881 4.881 0 0 0 6.424-2.527l4.695-10.789A4.881 4.881 0 0 0 30.5 8.757L11.609.536a4.884 4.884 0 0 0-6.424 2.528z"/>
        <path id="g" d="M13.878 2.053L2.14 13.648a6.845 6.845 0 0 0-.06 9.68l20.304 20.554a6.845 6.845 0 0 0 9.68.059l11.738-11.595a6.845 6.845 0 0 0 .06-9.68L23.557 2.112a6.823 6.823 0 0 0-4.87-2.034 6.823 6.823 0 0 0-4.81 1.975z"/>
    </defs>
    <g fill="none" fill-rule="evenodd">
        <path fill="#D6D6D6" d="M138.01 73.976c0 36.376-29.489 65.864-65.864 65.864-36.376 0-65.864-29.488-65.864-65.864C6.282 37.6 35.77 8.112 72.146 8.112c36.375 0 65.864 29.488 65.864 65.864"/>
        <g transform="translate(0 73.85)">
            <mask id="b" fill="#fff">
                <use xlink:href="#a"/>
            </mask>
            <path fill="#714F47" d="M34.373.906c-1.375-2.313-5.684 1.338-7.74 3.434-2.074 2.115-4.743 3.694-6.493 6.12-1.75 2.425-1.861 6.013-2.155 8.971-.684 6.875 1.306 15.68-.701 22.37-.963 3.204-29.149 49.818-25.298 50.728 3.327.787 17.16-.24 20.3 1.376 1.907.981 2.913 2.136 4.333.05.913-1.34 16.462-48.347 17.157-49.803.855-1.792 1.568-3.248 2.834-4.81 3.129-3.86 1.693-10.593 2.266-15.488.589-5.034 3.078-8.229-1.64-12.103-2.88-2.364-.963-7.645-2.863-10.845" mask="url(#b)"/>
        </g>
        <path fill="#595959" d="M35.4 41.524c1.732-1.325 3.811-1.261 6.197-1.257 2.438.005 5.643-.038 8.08-.075 2.354-.035 4.856-.085 7.211-.07 2.097.013 5.645-.058 7.436 1.169 1.597 1.095 2.417 3.554 2.68 5.432.535 3.802.044 7.657.005 11.475-.048 4.706.034 9.069.094 13.775.045 3.5.045 8.117-.08 11.616-.108 2.963.096 5.176-.037 8.138-.097 2.14.442 4.859-1.589 6.484-1.27 1.016-3.303 1.383-4.853 1.512-2.457.205-4.924-.002-7.384.056-2.87.068-5.73-.066-8.594-.252-2.515-.164-5.596.424-7.965-.446-2.688-.987-3.449-3.643-3.534-6.638-.321-11.393.292-22.875-.166-34.194-.127-3.122.175-6.39.326-9.566.127-2.65-.23-5.32 2.173-7.159"/>
        <path fill="#000" d="M59.08 40.173c.335-.186.916-.359 1.965-.244.405.045.784.174 1.034.337 0 .267.058.598-.276.804-.261.16-.984.27-1.32.263-.408-.007-.722-.057-1.073-.21-.513-.225-.29-.605-.33-.95"/>
        <path fill="#595959" d="M61.257 39.841c.531.078.97.582.209.765h-.001c-.97.233-1.502-.336-1.187-.631.142-.133.456-.21.98-.134"/>
        <path fill="#000" d="M39.408 41.993c4.915.002 18.082-.117 22.011-.115 5.2.002 5.002 6.523 5.07 8.324.024.654.016 17.95.008 30.495-.005 7.067-.01 12.627-.009 12.857.023 5.355-2.65 6.247-6.148 6.245l-18.816-.01c-7.866-.003-7.84-2.205-7.838-7.016.001-1.549-.05-9.878-.1-18.728-.052-8.904-.103-18.334-.101-21.917 0-.48-.018-.967-.036-1.453-.126-3.407-.173-8.685 5.96-8.682"/>
        <path fill="#595959" d="M45.12 43.275c1.13.017 1.69.083 2.532.056.819-.027 3.09-.003 4.834.012.402.003 4.435-.326 3.09.926-.387.36-1.337.204-1.818.229-1.201.062-2.847.022-4.302.027-1.603.006-2.483.004-4.387 0-1.606-.005-1.232-1.269.052-1.25"/>
        <path fill="#000" d="M58.987 92.561c1.689.168 3.087.108 4.75-.465l1.492-.793c.986 2.151.415 5.277-1.227 7.013-1.385 1.464-3.907 1.39-5.775 1.181-2.097-.234-4.3-.308-4.607-2.448-.193-1.352-1.055-3.041-1.002-4.41.007-.185 5.81-.133 6.369-.078"/>
        <path fill="#FFF" d="M35.137 90.171l-.018-6.205-.03-10.619h.004l-.012-4.241c-.005-2.308-.076-14.322-.081-16.63-.004-1.2.005-1.433-.003-2.633-.022-3.3 1.922-3.647 3.956-3.68 2.424-.042 3.522-.066 5.946-.109 3.547-.061 7.095-.123 10.643-.181 1.648-.028 3.05-.062 4.698-.088 1.443-.022 4.36.106 4.378 2.845.012 1.857.103 16.47.116 18.327l.042 5.895a265466.959 265466.959 0 0 0 .118 16.261c.012 1.23.332 4.036-4.805 4.121-2.05.035-19.215.28-20.91.32-4.01.096-4.04-2.688-4.042-3.383"/>
        <path fill="#9DAAC0" d="M53.12 89.9l.009.013c0 .002-.003-.004-.009-.014"/>
        <path fill="#233143" d="M63.323 69.887c-.016.018-.032.037-.05.054.018-.017.034-.036.05-.054zM63.073 69.729v-.015l.004.013-.004.002zM36.442 69.408l-.001-.014.005.013-.004.001z"/>
        <path fill="#8F8F8F" d="M46.101 95.817c.741-.17 1.702-.19 2.369-.239.612-.044 2.312-.005 3.617.02.55.01 3.852-.156 2.503 1.44-.322.382-1.131.42-1.55.468-.9.103-2.131.037-3.22.045-1.2.01-1.859.006-3.282-.002-1.204-.006-2.027-1.367-.437-1.732"/>
        <path fill="#FF7900" d="M26.542 116.053c-.042.02-.074.038 0 0M12.878 117.562c.986-1.487 2.875-2.12 4.57-2.274 3.156-.286 6.384.67 9.302 1.765 2.053.771 4.255 1.596 5.98 2.983 1.655 1.332 2.98 3.18 3.613 5.215.387 1.246.64 2.64.154 3.897-.339.878-1.05 1.596-1.815 2.117-1.584 1.08-4.382 1.8-6.252 2.144-.15.027-.259.014-.339-.03.447-.874.75-1.816 1-2.766.134-.025.268-.05.402-.08l.193-.042.01-.003c.371-.11.745-.202 1.112-.323.332-.11.66-.232.982-.366a11.2 11.2 0 0 0 .739-.34c.037-.02.298-.174.155-.086a7.35 7.35 0 0 0 .743-.502c.072-.057.14-.119.211-.178.104-.121.198-.279.31-.385.022-.05.048-.1.07-.151l.033-.11c.011-.086.04-.262.038-.245.001-.008.01-.14.012-.146a5.88 5.88 0 0 0-.138-1.043l-.031-.124c-.033-.111-.064-.223-.1-.333a8.994 8.994 0 0 0-.492-1.227c-.04-.083-.083-.166-.126-.249-.025-.048-.038-.076-.046-.093a2.165 2.165 0 0 1-.054-.08c-.238-.375-.48-.743-.758-1.09-.364-.456-.461-.562-.86-.923-.698-.63-1.26-1.01-2.017-1.372-.97-.467-1.96-.896-2.96-1.295a38.526 38.526 0 0 0-3.078-1.086 36.206 36.206 0 0 0-.434-.123 25.16 25.16 0 0 0-1.134-.281c-.669-.15-1.345-.27-2.027-.348a14.69 14.69 0 0 0-.81-.07c-.041-.003-.221-.01-.29-.013h-.034c-.08 0-.16 0-.24.002a9.216 9.216 0 0 0-1.395.122c-.095.016-.19.036-.284.054l-.018.003c-.18.052-.36.106-.535.172-.148.056-.29.122-.433.188l-.008.003c-.047.029-.094.057-.14.087a3.538 3.538 0 0 0-.34.254c-.018.015-.036.034-.055.052-.028.028-.056.055-.086.075l.048-.032c-.076.089-.141.185-.212.278-.019.039-.039.077-.056.117-.02.043-.036.089-.053.134-.014.081-.03.162-.043.244a.53.53 0 0 0-.009-.089c.007.034.006.073.006.112l-.005.024a.68.68 0 0 0-.005.039c-.238.619-.342 1.288-.646 1.89-.162.32-.337.633-.512.946-.22-.066-.498-.315-.893-.888-.84-1.29-.762-2.862.08-4.131M23.73 119.21c-.044.02-.078.039 0 0"/>
        <path fill="#714F47" d="M83.136 96.536c2.057-.612 4.875-.332 6.677-1.52 5.344-3.525 10.515-7.308 15.126-11.573a691.936 691.936 0 0 0 2.878 5.012c1.149 1.975 2.473 3.861 3.643 5.825.967 1.623.694 3.25 2.095 4.734 1.788 1.893 5.16 2.294 6.684 4.23 1.015 1.29.69 2.835.885 4.422.903 7.309 12.325 14.77 3.664 21.327-3.449 2.611-7.717 4.263-11.695 5.885-3.215 1.312-6.67 1.442-8.385-1.936-1.463-2.878-1.612-5.995-4.117-8.342-2.253-2.112-5.527-2.675-7.76-4.689-3.183-2.87-5.752-6.978-7.92-10.649-1.928-3.264-4.303-6.93-4.124-10.892.048-1.078 1.386-1.547 2.349-1.834"/>
        <g transform="translate(100.508 115.982)">
            <mask id="d" fill="#fff">
                <use xlink:href="#c"/>
            </mask>
            <path fill="#50BE87" d="M.276 15.728C.781 14.842 23.083.298 25.906.138c1.876-.106 3.733 2.822 4.58 3.837C33.911 8.076 67.054 47.87 67.862 56.09H24.275C16.1 48.594 4.089 25.03.633 18.435c-.64-1.221-.744-2.025-.357-2.707" mask="url(#d)"/>
        </g>
        <path fill="#714F47" d="M75.61 89.703c-.554.057-1.116.27-1.662.68-.254.19 4.663 8.812 6.834 7.001 2.755-2.301-2.443-7.955-5.171-7.68"/>
        <path fill="#714F47" d="M80.499 82.949c1.27.521 2.755 1.502 3.547 1.055 1.142-.645-2.049-3.068-2.624-3.62-.94-.902-2.027-1.735-2.908-2.702-.56-.614-1.238-1.528-.693-2.369.571-.881 1.568-.104 2.217.289 3.194 1.931 6.132 4.299 9.083 6.575 1.577 1.216 3.228 2.398 4.835 3.56 1.111.804 2.207 2.038 3.59 1.698 1.014-.248 2.208-1.522 2.95-.09.43.827.625 1.872.77 2.926.13.938.219 1.882.396 2.688.294 1.335.13 2.68-.046 4.018-.196 1.487.667 6.168.667 6.168-.633 2.153-.514 4.105-3.016 4.366-2.122.222-4.586-.415-6.382-1.576-1.05-.68-1.236-1.515-2.581-1.243-1.099.221-2.1 1.08-3.275.881-.961-.164-1.636-1.64-2.157-2.38-1.301-1.849-5.105-5.528-4.093-7.971.869-2.096 1.305-2.16.382-4.552-.783-2.029-2.94-3.967-2.923-6.266.016-2.032 1.04-1.957 2.26-1.455M80.335 69.921c.358.445.673.893.925 1.296.604.972.875 2.83 2.164 3.194 1.37.385 2.032-2.136 2.254-3.092.523-2.25-1.555-3.829-3.3-4.883-1.923-1.163-3.677-.84-4.66 1.19.919.437 1.862 1.357 2.617 2.295"/>
        <path fill="#714F47" d="M79.653 82.816l.58 1.035c-.019.234-.564 3.02-.744 2.947-1.51-.613-3.098-2.522-2.472-4.185.279-.742 1.656-2.568 2.566-1.57.451.495-.207 1.27.07 1.773"/>
        <path fill="#838080" d="M86.1 60.087c1.672-.99 3.505-.716 5.616-.461 2.157.26 4.997.558 7.158.782 2.088.217 4.307.435 6.39.696 1.854.232 5.002.542 6.458 1.816 1.298 1.137 1.766 3.4 1.802 5.09.072 3.42-.766 6.78-1.202 10.156-.538 4.159-.924 8.029-1.365 12.2-.328 3.103-.813 7.189-1.292 10.272-.406 2.611-.458 4.591-.888 7.199-.31 1.882-.119 4.346-2.087 5.57-1.23.767-3.069.878-4.454.83-2.195-.078-4.357-.52-6.541-.728-2.547-.241-5.064-.66-7.58-1.125-2.208-.41-4.996-.214-7.001-1.232-2.276-1.156-2.67-3.587-2.43-6.246.913-10.116 2.662-20.214 3.446-30.28.216-2.776.826-5.638 1.294-8.432.39-2.332.356-4.733 2.676-6.107"/>
        <path fill="#FFF" d="M88.304 63.975c3.814.555 7.684.75 11.486 1.368 2.88.468 5.956.079 8.731 1.12 3.54 1.326 3.683 4.562 3.288 7.892l-.71 5.98-1.671 14.091-.93 7.83c-.253 2.136.13 4.802-1.174 6.662a2.845 2.845 0 0 1-.507.557c-1.397 1.163-3.474.342-5.232.133l-14.121-1.675-7.504-.89a369806.915 369806.915 0 0 1 2.195-18.503c.842-7.095 1.64-14.173 2.253-21.282.225-2.6 1.22-3.672 3.896-3.283"/>
        <path fill="#1B2734" d="M107.199 61.38c.316-.13.848-.222 1.764-.01.354.082.676.237.88.407-.028.236-.012.536-.329.682-.248.115-.9.136-1.196.095-.36-.05-.633-.127-.927-.3-.43-.252-.194-.565-.192-.875"/>
        <path fill="#000" d="M109.16 61.315c.462.124.798.617.105.699h-.001c-.883.104-1.294-.456-.985-.684.14-.102.426-.138.881-.015M80.942 102.16c.22-1.793 3.64-30.614 3.886-32.614.128-1.04.162-1.241.286-2.282.34-2.863 2.08-2.931 3.862-2.719 2.124.254 3.088.363 5.213.614 3.11.369 6.22.738 9.33 1.109 1.445.173 2.674.31 4.12.484 1.264.153 3.807.747 3.43 3.728-.205 1.609-1.62 13.54-1.812 15.151l-.323 2.718-.285 2.395c-.365 3.078-1.24 10.439-1.3 10.956-.12 1.002-.143 1.174-.29 2.443-.078.667.162 4.302-4.736 3.704a7696.522 7696.522 0 0 0-18.325-2.21c-3.52-.395-3.13-2.875-3.056-3.477m2.469-34.18c-.035.432-.071.866-.122 1.29-.377 3.17-1.323 11.522-2.213 19.408-.885 7.838-1.715 15.214-1.88 16.585-.506 4.257-.761 6.204 6.2 7.033l16.652 1.987c3.095.368 5.554-.14 6.097-4.881.023-.204.612-5.125 1.358-11.378 1.326-11.103 3.151-26.408 3.198-26.99.13-1.6.99-7.351-3.612-7.9-3.476-.414-15.142-1.693-19.492-2.211-5.427-.647-5.94 4.029-6.186 7.057"/>
        <path fill="#000" d="M94.518 62.658c.998.134 1.487.251 2.235.316.727.062 2.734.322 4.276.518.356.045 3.96.177 2.637 1.145-.38.278-1.204.04-1.632.011-1.07-.071-2.522-.28-3.81-.428a532.863 532.863 0 0 1-3.882-.462c-1.422-.173-.958-1.251.176-1.1"/>
        <path fill="#81C8A6" d="M107.45 102.404l-.027.258h-.006a.971.971 0 0 0 .02-.196l.001-.063h.012"/>
        <path fill="#838080" d="M89.542 108.664c.67-.097 1.512-.018 2.1.002.541.018 2.023.234 3.162.395.479.068 3.387.24 2.013 1.734-.327.357-1.04.311-1.412.317-.8.01-1.868-.183-2.822-.288-1.05-.115-1.625-.188-2.869-.343-1.053-.132-1.606-1.61-.172-1.817"/>
        <path fill="#714F47" d="M84.543 74.182a3.626 3.626 0 0 0-.024-1.948c-2.06.192-8.52 1.277-6.68 4.712 1.538 2.869 6.177-.71 6.704-2.764M83.85 81.41a3.628 3.628 0 0 0-.022-1.95c-2.06.192-8.521 1.278-6.68 4.713 1.537 2.87 6.177-.71 6.702-2.764"/>
        <path fill="#66413E" d="M81.416 73.594c.752 1.375 2.265-.365 2.807-1.078.213-.282.653.048.438.332-.486.638-1.067 1.258-1.787 1.63-.328.169-.719.25-1.08.148-.414-.116-.683-.448-.882-.812-.17-.312.336-.528.504-.22M81.134 81.275c.619.736 1.847-.27 2.312-.75.243-.25.685.077.439.332-.737.761-2.267 1.85-3.183.758-.229-.272.204-.612.432-.34"/>
        <path fill="#714F47" d="M109.013 75.532c.824 2.373 2.595 4.22 4.345 5.983 1.328 1.339 3.444 2.537 4.499 4.13.387 3.88 2.231 7.546 4.64 10.648.174.47.282.954.285 1.459l-.003.3c-.075 4.016-.025 10.132-.261 14.155-2.977 1.55-3.142 1.727-5.718 3.256-.352-.223-.522-2.234-.86-2.483-1.034-.764-1.88-1.714-2.988-2.384-.674-.406-1.627-.646-2.152-1.267-1.337-1.58-.45-4.873-.368-6.754.132-3.055-.361-6.268.002-9.296.285-2.381.035-4.132-1.343-6.256-.124-.192-.324-.361-.536-.528-.245-.191-.505-.379-.688-.592-.797-.928-1.293-2.237-1.45-3.475-.273-2.156.024-6.081 2.596-6.896"/>
        <path fill="#66413E" d="M108.168 78.893c.179.675.642 1.215 1.313 1.428.632.2 1.313-.062 1.73-.551.23-.268.671.061.44.332-.56.653-1.403.976-2.25.762-.926-.234-1.539-.99-1.777-1.888-.09-.343.454-.421.544-.083"/>
        <path fill="#FF7900" d="M70.252 34.884l-18.408-.812s4.478-16.477 30.699-14.347c8.839.718 20.797 10.642 22.451 27.204l4.26-.246-8.802 11.217-8.34-9.77 3.377-.3S89.372 21.328 77.38 21.118c-3.358-.059-6.309 4.26-7.128 13.766"/>
        <path fill="#000" d="M103.973 135.773l.325-.328c.49-.492.53-1.39 0-1.875-.528-.485-1.352-.525-1.875 0-.108.11-.217.218-.326.327-.49.493-.528 1.39 0 1.876.529.485 1.353.525 1.876 0M106.322 134.328c.812-.267 1.435-.752 1.924-1.449.4-.57.122-1.498-.476-1.814-.68-.359-1.388-.132-1.814.476-.081.114-.06.088.062-.078a2.248 2.248 0 0 1-.224.226c.155-.115.192-.143.11-.085-.077.05-.158.097-.236.147-.127.063-.094.051.1-.033-.05.02-.1.037-.15.053-.659.215-1.155.926-.927 1.63.212.657.926 1.158 1.631.927M111.035 131.72l.968-.67c.57-.395.884-1.181.476-1.815-.365-.566-1.205-.898-1.815-.476l-.967.67c-.57.394-.885 1.18-.476 1.814.365.566 1.205.898 1.814.476M115.88 128.319c-.093.188-.114.238-.063.15.053-.087.022-.045-.093.126l-.152.12c-.209.074-.246.093-.112.056.674-.164 1.142-.963.926-1.631-.227-.7-.909-1.102-1.632-.926-.704.172-1.218.722-1.431 1.4-.208.662.245 1.476.926 1.63.722.165 1.408-.216 1.631-.925M119.341 126.347c-.032.043-.188.21-.059.096-.076.067-.21.185-.056.05.098-.087-.237.066-.11.04.098-.021.284-.054-.093-.008.364-.045.668-.12.937-.389.23-.23.404-.607.389-.937-.03-.647-.589-1.416-1.326-1.326-.416.05-.766.116-1.135.33-.355.205-.596.483-.837.805-.192.258-.215.726-.134 1.022.085.308.323.64.61.792.307.163.68.244 1.022.134.349-.113.574-.317.792-.61M123.118 124.377l1.314-.635c.626-.303.843-1.245.476-1.814-.414-.643-1.144-.8-1.814-.476l-1.314.635c-.627.303-.843 1.245-.476 1.815.414.642 1.144.799 1.814.475M127.032 122.249l.978-.493c.621-.312.847-1.238.476-1.814-.409-.635-1.15-.81-1.814-.476l-.978.493c-.621.312-.847 1.238-.476 1.814.41.634 1.15.81 1.814.476"/>
        <path fill="#000" d="M129.796 120.97c1.707 0 1.71-2.651 0-2.651-1.706 0-1.71 2.652 0 2.652"/>
        <path fill="#FFF" d="M105.99 140.395l1.287-.686c.613-.327.853-1.23.476-1.815-.402-.623-1.158-.825-1.814-.475l-1.288.686c-.613.326-.854 1.228-.476 1.814a1.355 1.355 0 0 0 1.814.476M110.502 137.405l.325-.327c.49-.493.53-1.39 0-1.876-.527-.484-1.352-.525-1.874 0l-.326.328c-.49.492-.529 1.39 0 1.875.528.485 1.353.526 1.875 0M113.81 135.47l.979-.49c.622-.311.846-1.24.476-1.815-.41-.635-1.15-.808-1.815-.475l-.979.49c-.622.31-.846 1.239-.476 1.813.41.637 1.15.809 1.815.476M118.378 132.859l.83-.634c.288-.218.51-.43.61-.792.088-.318.048-.74-.133-1.022-.35-.543-1.225-.925-1.815-.476l-.83.634c-.287.218-.51.43-.61.792-.087.318-.048.74.134 1.022.35.543 1.224.925 1.814.476M121.306 130.553l.825-.475c.601-.346.862-1.214.476-1.814-.391-.607-1.171-.846-1.814-.476l-.825.476c-.601.346-.862 1.214-.475 1.814.39.607 1.17.846 1.813.475M125.054 128.42l1.842-1.064c.6-.347.862-1.215.475-1.814-.39-.606-1.171-.847-1.814-.476l-1.841 1.063c-.601.347-.863 1.215-.476 1.814.39.607 1.171.847 1.814.476"/>
        <path fill="#FFF" d="M128.98 126.154l.485-.334c.57-.392.884-1.181.476-1.814-.366-.567-1.203-.896-1.814-.476l-.485.334c-.57.392-.883 1.182-.476 1.814.366.567 1.204.896 1.814.476M132.26 124.218l.327-.164c.622-.31.846-1.239.476-1.814-.41-.636-1.15-.808-1.814-.475l-.326.163c-.623.31-.847 1.24-.476 1.814.41.636 1.149.808 1.814.476M85.145 56.033l-4.371-4.75c-1.109-1.204-2.9.594-1.795 1.795l4.372 4.75c1.108 1.204 2.9-.595 1.794-1.795M89.02 49.116l-2.458-5.391c-.676-1.484-2.864-.196-2.191 1.281l2.457 5.392c.676 1.484 2.865.195 2.192-1.282M114.623 54.185l2.312-4.553c.739-1.454-1.45-2.74-2.19-1.281l-2.314 4.553c-.738 1.454 1.45 2.74 2.192 1.281M116.47 62.293a30.1 30.1 0 0 1 5.02-1.643c1.588-.377.916-2.825-.675-2.447-1.94.46-3.798 1.106-5.627 1.898-1.494.648-.203 2.835 1.282 2.192"/>
        <path fill="#714F47" d="M42.238 80.056c-3.964 3.302-3.39 11.046-9.27 12.948-1.043.338-2.104.945-3.164.72-1.275-.272-1.868-1.358-2.713-2.244.345.362-.04 2.81-.063 3.348-.042.91-.14 1.758-.455 2.617-.584 1.59-1.019 2.79-.814 4.548.387 3.303-1.993 13.225 1.149 14.75 4.645 2.254 10.568-2.938 12.387-7.144.416-.96 2.099-5.686 2.258-6.697.345-2.193.403-5.85.737-8.037.762-4.967 4.183-12.086 4.96-14.596.536-1.736-2.501-2.304-5.012-.213"/>
        <path fill="#806059" d="M45.855 79.22c-1.261 1.31-2.425 2.853-2.652 4.656-.048.388-.05.796.114 1.15.164.355.525.64.915.614.403-.029.712-.362.959-.682a12.525 12.525 0 0 0 2.278-4.827c.086-.376.12-.85-.2-1.066-.282-.19-.66-.056-.97.084"/>
        <path fill="#FF7900" d="M73.129 64.919l-4.695 10.788a4.881 4.881 0 0 1-6.424 2.528l-18.89-8.22a4.88 4.88 0 0 1-2.529-6.424l4.695-10.789a4.881 4.881 0 0 1 6.424-2.528l18.89 8.221a4.881 4.881 0 0 1 2.529 6.424"/>
        <g transform="translate(40.102 49.739)">
            <mask id="f" fill="#fff">
                <use xlink:href="#e"/>
            </mask>
            <path fill="#000" d="M24.084 4.938c-4.671 10.733-9.468 8.646-14.14 19.379l18.65 8.116 9.341-21.467-13.851-6.028z" mask="url(#f)"/>
        </g>
        <path fill="#FF7900" d="M104.462 91.475L92.724 103.07a6.845 6.845 0 0 1-9.68-.059L62.74 82.457a6.845 6.845 0 0 1 .06-9.68l11.738-11.595a6.845 6.845 0 0 1 9.68.06l20.303 20.553a6.845 6.845 0 0 1-.06 9.68"/>
        <g transform="translate(60.66 59.13)">
            <mask id="h" fill="#fff">
                <use xlink:href="#g"/>
            </mask>
            <path fill="#000" d="M37.502 14.349C25.824 25.885 20.668 20.666 8.99 32.201l20.043 20.29L52.389 29.42 37.502 14.349z" mask="url(#h)"/>
        </g>
    </g>
</svg>
