<svg xmlns="http://www.w3.org/2000/svg" xmlns:xlink="http://www.w3.org/1999/xlink" width="76" height="76" viewBox="0 0 76 76">
    <defs>
        <path id="a" d="M0 .158h75.841v75.584H0z"/>
    </defs>
    <g fill="none" fill-rule="evenodd">
        <g transform="translate(0 .1)">
            <mask id="b" fill="#fff">
                <use xlink:href="#a"/>
            </mask>
            <path fill="#4BB4E6" d="M64.548 51.721l-3.523-.32c-.968-.087-.974-1.603 0-1.515l3.523.32c.968.088.974 1.604 0 1.515m-6.09 7.416L56.45 58.11c-.87-.446-.101-1.753.768-1.308l2.005 1.027c.872.446.102 1.753-.767 1.308m-20.17 7.038L16.31 53.53a2.97 2.97 0 0 1-1.092-4.065l22.39-38.65a2.991 2.991 0 0 1 4.079-1.09l3.2 1.842a6.86 6.86 0 0 1 5.368-3.407c3.757-.311 7.087 2.498 7.399 6.242l.08.955-2.562.216-.08-.959a4.234 4.234 0 0 0-1.507-2.899 4.263 4.263 0 0 0-6.026.5c-.17.199-.316.412-.445.633l10.085 5.804.018.065.79-.066.001.007.854-.071a2.568 2.568 0 0 1 2.775 2.34l1.276 15.319-4.034.334-16.514 28.506a2.991 2.991 0 0 1-4.078 1.09M13.149 35.703l3.778-.3c.977-.076.968 1.44 0 1.516l-3.778.299c-.977.077-.969-1.438 0-1.515m-.56-9.239l3.79.707c.962.18.552 1.639-.404 1.46l-3.79-.706c-.962-.18-.553-1.639.404-1.46m1.665-9.184l3.03 1.5c.877.434.106 1.74-.767 1.308l-3.03-1.5c-.877-.434-.106-1.74.767-1.308m5.173-7.997c.266-.266.82-.322 1.075 0l1.78 2.248c.256.323.32.754 0 1.072-.265.265-.82.321-1.074 0l-1.781-2.249c-.255-.322-.319-.754 0-1.071m11.438-3.462c.427-.117.784.149.935.529l.5 1.258c.152.383-.168.833-.531.932-.426.117-.784-.149-.935-.529l-.5-1.258c-.151-.383.168-.832.531-.932M37.921.158C16.978.158 0 17.078 0 37.95s16.978 37.792 37.92 37.792c20.944 0 37.921-16.92 37.921-37.792S58.864.158 37.921.158" mask="url(#b)"/>
        </g>
        <path fill="#FFF" d="M13.487 18.69l3.03 1.5c.873.432 1.644-.874.767-1.309l-3.03-1.5c-.873-.432-1.644.874-.767 1.309M16.38 27.271l-3.791-.706c-.957-.179-1.366 1.281-.405 1.46l3.791.707c.957.178 1.366-1.281.404-1.46M16.927 35.504l-3.778.3c-.969.076-.977 1.592 0 1.514l3.778-.299c.968-.076.977-1.592 0-1.515M21.208 12.704c.254.322.808.266 1.075 0 .318-.317.255-.749 0-1.071l-1.781-2.249c-.255-.321-.809-.265-1.075 0-.319.318-.255.75 0 1.071l1.78 2.25M30.834 8.112c.15.38.509.646.935.53.363-.1.683-.55.53-.932L31.8 6.452c-.15-.38-.508-.646-.935-.53-.363.1-.682.55-.53.932.166.42.332.84.499 1.258M64.548 50.306l-3.523-.32c-.974-.088-.968 1.427 0 1.515l3.523.32c.974.088.968-1.427 0-1.515M59.224 57.928l-2.005-1.026c-.87-.445-1.64.862-.768 1.308l2.006 1.026c.87.445 1.639-.862.767-1.308"/>
        <path fill="#FAB431" d="M47.99 49.526l-6.464-3.72-3.732 6.442 6.464 3.72zM18.55 49.764a1.485 1.485 0 0 0 .546 2.032l5.17 2.976L28 48.33l-6.464-3.72-2.986 5.154zM32.687 59.617l-.664-.382 3.732-6.442-6.464-3.72-3.731 6.442zM29.745 30.439l-2.986 5.153 6.464 3.72 3.732-6.442-5.17-2.976a1.496 1.496 0 0 0-2.04.545"/>
        <path fill="#FAB431" d="M42.287 35.938l-4.04-2.324-3.731 6.441-.269.464-.477.824-7.757-4.462-3.732 6.441 14.22 8.182 7.93-13.688a2.568 2.568 0 0 1-2.144-1.878M51.721 43.084a1.485 1.485 0 0 0-.546-2.032l-5.171-2.976-3.732 6.442 6.464 3.72 2.985-5.154zM38.487 62.954c.714.41 1.627.167 2.039-.545l2.985-5.153-6.463-3.72-3.732 6.442 5.17 2.976z"/>
        <path fill="#FFF" d="M33.223 39.311l-6.464-3.719 2.986-5.153a1.495 1.495 0 0 1 2.04-.545l5.17 2.976-3.732 6.441zM28 48.33l-3.732 6.442-5.171-2.976a1.485 1.485 0 0 1-.547-2.032l2.986-5.153 6.464 3.719zm7.756 4.463l-3.732 6.442.664.382-7.127-4.102 3.731-6.441 6.464 3.719zm1.293.744l6.463 3.719-2.985 5.153a1.496 1.496 0 0 1-2.04.545l-5.17-2.975 3.732-6.442zm4.478-7.73l6.464 3.719-3.732 6.442-6.464-3.72 3.732-6.442zm4.478-7.73l5.171 2.975c.714.41.959 1.32.546 2.032l-2.985 5.153-6.464-3.719 3.732-6.441zm-1.023-.247c-.187.015-.37.01-.55-.014l-7.93 13.688-14.22-8.182 3.732-6.442 7.756 4.464.478-.825.269-.464 3.732-6.442 4.039 2.325a2.554 2.554 0 0 1-.08-.45L40.93 20.17l3.416-.282-.355-4.255a6.763 6.763 0 0 1 .896-3.967l-3.2-1.841a2.991 2.991 0 0 0-4.079 1.09l-22.39 38.65a2.97 2.97 0 0 0 1.092 4.064l21.977 12.645a2.99 2.99 0 0 0 4.078-1.089L58.879 36.68 44.98 37.83z"/>
        <path fill="#FFF" d="M46.553 15.42l.354 4.256 6.01-.498.303-.025 2.227-.184v-.003l1.77-.15-.017-.065-10.086-5.803a4.203 4.203 0 0 0-.56 2.473M50.682 28.463l-.078 4.617 3.415-.283-.84-4.54a2.558 2.558 0 0 0 1.127-2.339 2.568 2.568 0 0 0-2.774-2.34 2.565 2.565 0 0 0-2.35 2.764c.08.959.68 1.75 1.5 2.121"/>
        <path fill="#FF7900" d="M51.532 23.577a2.568 2.568 0 0 1 2.774 2.341c.08.959-.38 1.837-1.128 2.338l.841 4.541-3.415.283.078-4.617a2.561 2.561 0 0 1-1.5-2.12 2.565 2.565 0 0 1 2.35-2.766m-7.54-7.944l.354 4.255-3.416.282 1.277 15.319a2.568 2.568 0 0 0 2.775 2.341l13.897-1.15 4.034-.334-1.276-15.319a2.568 2.568 0 0 0-2.775-2.34l-.854.07v-.007l-.791.067-1.77.149v.003l-2.227.184-.303.026-6.01.497-.354-4.256a4.206 4.206 0 0 1 .56-2.472c.13-.222.277-.435.446-.634a4.256 4.256 0 0 1 2.909-1.502 4.26 4.26 0 0 1 3.117 1.003 4.233 4.233 0 0 1 1.507 2.899l.08.958 2.561-.215-.08-.955c-.311-3.745-3.64-6.554-7.397-6.243a6.861 6.861 0 0 0-5.37 3.408 6.763 6.763 0 0 0-.895 3.966"/>
    </g>
</svg>
