<svg xmlns="http://www.w3.org/2000/svg" xmlns:xlink="http://www.w3.org/1999/xlink" width="90" height="77" viewBox="0 0 90 77">
    <defs>
        <path id="a" d="M0 .206h98.793v98.458H0z"/>
    </defs>
    <g fill="none" fill-rule="evenodd">
        <g transform="translate(-9 .13)">
            <mask id="b" fill="#fff">
                <use xlink:href="#a"/>
            </mask>
            <path fill="#4BB4E6" d="M84.083 67.374l-4.59-.417c-1.26-.114-1.268-2.089 0-1.973l4.59.416c1.26.115 1.269 2.09 0 1.974m-7.935 9.66l-2.613-1.338c-1.135-.58-.132-2.283 1-1.704l2.613 1.338c1.135.58.132 2.283-1 1.704m-26.274 9.168L21.246 69.73a3.869 3.869 0 0 1-1.423-5.295L48.99 14.087a3.897 3.897 0 0 1 5.313-1.418l4.168 2.399a8.937 8.937 0 0 1 6.993-4.439c4.894-.405 9.231 3.254 9.638 8.132l.103 1.244-3.336.28-.104-1.248a5.516 5.516 0 0 0-1.963-3.776 5.554 5.554 0 0 0-7.85.65c-.221.26-.412.537-.58.826l13.138 7.56.023.085 1.03-.087v.009l1.113-.092a3.345 3.345 0 0 1 3.614 3.05l1.663 19.953-5.256.435-21.51 37.133a3.897 3.897 0 0 1-5.313 1.419M17.128 46.509l4.921-.39c1.273-.1 1.262 1.874 0 1.974l-4.921.39c-1.272.1-1.262-1.874 0-1.974m-.73-12.035l4.938.921c1.253.234.72 2.135-.526 1.903l-4.938-.92c-1.253-.234-.72-2.136.526-1.904m2.17-11.962l3.946 1.954c1.143.566.139 2.267-.999 1.704l-3.946-1.954c-1.142-.566-.138-2.267 1-1.704m6.737-10.417c.347-.346 1.069-.42 1.4 0l2.32 2.929c.333.42.415.982 0 1.396-.347.345-1.069.418-1.4 0l-2.32-2.93c-.332-.42-.415-.982 0-1.395m14.9-4.51c.556-.152 1.021.194 1.218.69l.65 1.638c.198.499-.218 1.085-.691 1.214-.555.152-1.021-.194-1.218-.69l-.65-1.638c-.198-.498.218-1.084.691-1.214m9.19-7.379C22.117.206 0 22.246 0 49.436c0 27.188 22.116 49.228 49.397 49.228 27.28 0 49.396-22.04 49.396-49.229C98.793 22.247 76.678.206 49.397.206" mask="url(#b)"/>
        </g>
        <path fill="#FFF" d="M8.569 24.346l3.946 1.953c1.138.564 2.142-1.138 1-1.704l-3.947-1.954c-1.137-.563-2.142 1.139-.999 1.705M12.336 35.525l-4.938-.921c-1.245-.232-1.779 1.67-.526 1.903l4.938.92c1.246.233 1.78-1.669.526-1.902M13.05 46.25l-4.922.388c-1.262.1-1.273 2.075 0 1.974l4.921-.39c1.262-.1 1.273-2.074 0-1.973M18.626 16.549c.331.419 1.053.346 1.4 0 .415-.414.333-.976 0-1.395l-2.32-2.93c-.331-.418-1.053-.346-1.4 0-.415.414-.332.976 0 1.396l2.32 2.929M31.165 10.568c.197.495.663.84 1.218.689.473-.13.89-.716.692-1.214l-.65-1.639c-.197-.495-.664-.841-1.219-.69-.473.13-.89.716-.691 1.215l.65 1.639M75.083 65.53l-4.59-.417c-1.268-.115-1.26 1.86 0 1.974l4.59.417c1.269.115 1.26-1.86 0-1.974M68.148 75.46l-2.613-1.338c-1.132-.58-2.135 1.123-1 1.704l2.613 1.337c1.132.58 2.135-1.123 1-1.704"/>
        <path fill="#FAB431" d="M53.513 64.514l-8.42-4.845-4.861 8.391 8.42 4.845zM15.163 64.824a1.934 1.934 0 0 0 .712 2.648l6.736 3.875 4.861-8.39-8.42-4.846-3.889 6.713zM33.58 77.659l-.866-.498 4.861-8.391-8.42-4.845-4.86 8.391zM29.746 39.65l-3.888 6.713 8.42 4.845 4.86-8.391-6.735-3.876a1.949 1.949 0 0 0-2.657.71"/>
        <path fill="#FAB431" d="M46.084 46.813l-5.261-3.027-4.862 8.39-.35.605-.622 1.074-10.103-5.813-4.862 8.39 18.524 10.66 10.33-17.832a3.345 3.345 0 0 1-2.794-2.447M58.374 56.123a1.934 1.934 0 0 0-.712-2.648L50.926 49.6l-4.86 8.39 8.419 4.845 3.889-6.712zM41.134 82.005c.93.536 2.12.218 2.656-.709l3.89-6.713-8.42-4.844-4.862 8.39 6.736 3.876z"/>
        <path fill="#FFF" d="M34.278 51.208l-8.42-4.845 3.889-6.712a1.948 1.948 0 0 1 2.656-.71l6.736 3.876-4.861 8.391zm-6.806 11.748l-4.861 8.391-6.736-3.876a1.934 1.934 0 0 1-.712-2.647l3.889-6.713 8.42 4.845zm10.104 5.814l-4.862 8.391.866.497-9.285-5.342 4.86-8.391 8.42 4.845zm1.684.969l8.42 4.844-3.89 6.713a1.948 1.948 0 0 1-2.656.71l-6.736-3.876 4.862-8.391zm5.833-10.07l8.42 4.845-4.861 8.391-8.42-4.845 4.86-8.391zm5.833-10.07l6.736 3.877c.93.534 1.249 1.72.712 2.647l-3.889 6.712-8.42-4.844 4.861-8.391zm-1.332-.321c-.244.02-.483.012-.716-.018L38.548 67.09 20.024 56.433l4.861-8.391 10.104 5.813.622-1.074.35-.604 4.862-8.391 5.261 3.027a3.326 3.326 0 0 1-.105-.585l-1.662-19.953 4.449-.369-.462-5.542a8.81 8.81 0 0 1 1.167-5.167l-4.169-2.399a3.896 3.896 0 0 0-5.312 1.42L10.823 64.564a3.868 3.868 0 0 0 1.423 5.294l28.628 16.472a3.896 3.896 0 0 0 5.312-1.418L67.698 47.78l-18.104 1.498z"/>
        <path fill="#FFF" d="M51.641 20.087l.462 5.543 7.828-.648.395-.032 2.9-.24v-.005l2.307-.194-.023-.085-13.138-7.56a5.475 5.475 0 0 0-.73 3.221M57.02 37.077l-.102 6.014 4.45-.369-1.096-5.914a3.333 3.333 0 0 0 1.47-3.046 3.346 3.346 0 0 0-3.615-3.05 3.34 3.34 0 0 0-3.06 3.603 3.337 3.337 0 0 0 1.953 2.762"/>
        <path fill="#FF7900" d="M58.127 30.713a3.345 3.345 0 0 1 3.614 3.049 3.332 3.332 0 0 1-1.47 3.046l1.096 5.915-4.449.368.102-6.014a3.337 3.337 0 0 1-1.953-2.763 3.34 3.34 0 0 1 3.06-3.601m-9.823-10.35l.462 5.543-4.45.368 1.664 19.954a3.345 3.345 0 0 0 3.614 3.05l18.104-1.498 5.254-.435-1.662-19.954a3.345 3.345 0 0 0-3.614-3.05l-1.113.092v-.008l-1.03.086-2.307.195v.004l-2.9.24-.395.033-7.828.647-.462-5.543a5.478 5.478 0 0 1 .73-3.22c.168-.29.36-.567.581-.827a5.544 5.544 0 0 1 3.79-1.956 5.55 5.55 0 0 1 4.06 1.306 5.513 5.513 0 0 1 1.962 3.777l.104 1.248 3.337-.28-.103-1.245c-.407-4.877-4.744-8.536-9.638-8.131a8.938 8.938 0 0 0-6.993 4.438 8.81 8.81 0 0 0-1.167 5.167"/>
    </g>
</svg>
