<svg xmlns="http://www.w3.org/2000/svg" xmlns:xlink="http://www.w3.org/1999/xlink" width="880" height="180" viewBox="0 0 880 180">
    <defs>
        <path id="a" d="M0 0h880v180H0z"/>
        <path id="c" d="M.174.222h46.572v46.79H.174z"/>
        <path id="e" d="M0 .27h323.51v332.911H0z"/>
    </defs>
    <g fill="none" fill-rule="evenodd">
        <mask id="b" fill="#fff">
            <use xlink:href="#a"/>
        </mask>
        <use fill="#B5E8F7" xlink:href="#a"/>
        <g mask="url(#b)">
            <path fill="#595959" d="M739.992 115.605c1.042-37.311-49.998-41.215-82.936-41.163-49.746.08-95.204 2.398-144.954 1.264-30.977-.706-76.463-.99-92.487 28.046-8.793 15.937-20.51 82.474 13.985 83.034 28.817.463 57.206.344 86.498-.02 27.685-.342 55.394-1.695 83.02-2.154 23.714-.394 47.414-.86 71.118-1.242 19.32-.313 43.625 1.856 62.093-3.771 9.689-2.95 3.444-56.133 3.663-63.994"/>
            <path fill="#D77467" d="M464.359 170.45c-.747 0-.747 1.16 0 1.16s.747-1.16 0-1.16"/>
            <path fill="#D6D6D6" d="M716.589 167.915c-56.19 1.81-257.621-1.274-281.139 2.65-30.705 5.125-32.017 50.746 26.631 54.215 38.252 2.263 197.16.491 230.01.054 59.138-.786 45.023-57.58 24.498-56.919"/>
            <path fill="#D6D6D6" d="M440.178 156.49c-7.986-2.338-21.52-1.967-25.518 5.68-4.766 9.118-9.406 19.146-13.235 28.744l.953-1.084c.962 6.257-1.47 16.256 7.438 19.12 5.2 1.672 10.593.7 15.884.294 2.708-.207 5.494-.497 8.2-.032 1.628.28 8.757-2.17 10.507-2.673 3.925-1.132 6.75-24.522 8.217-29.472 2.795-9.435 2.36-16.244-12.446-20.577"/>
            <path fill="#D0B33A" d="M418.863 172.64c-8.46 1.422-15.53 5.937-17.47 16.678-1.697 9.404-1.795 19.548 5.682 25.275 5.49 4.204 13.416 6.477 19.827 4.797 7.89-2.066 17.199-7.076 18.704-17.083 2.795-18.591-10.972-32.318-26.743-29.667"/>
            <path fill="#D6D6D6" d="M418.863 172.64c-8.46 1.422-15.53 5.937-17.47 16.678-1.697 9.404-1.795 19.548 5.682 25.275 5.49 4.204 13.416 6.477 19.827 4.797 7.89-2.066 17.199-7.076 18.704-17.083 2.795-18.591-10.972-32.318-26.743-29.667M715.127 148.904c-14.978 3.695-15.705 10.48-13.318 20.024 1.254 5.01 6.521 35.654 10.395 36.953 1.726.578 5.296-3.824 6.935-4.034 2.724-.348 5.495.06 8.19.384 5.27.631 10.617 1.834 15.882.387 9.023-2.48 7.022-12.574 8.252-18.785l.905 1.125c-3.414-9.754-7.62-19.972-11.99-29.285-3.667-7.812-17.171-8.763-25.25-6.769"/>
            <g transform="translate(708.849 172.544)">
                <mask id="d" fill="#fff">
                    <use xlink:href="#c"/>
                </mask>
                <path fill="#D6D6D6" d="M29.591.487c-37.644-4.702-41.559 54.96 2.296 45.507 3.938-.85 7.103-3.017 9.485-5.932 9.31-11.396 7.221-37.2-11.78-39.575" mask="url(#d)"/>
            </g>
            <path fill="#FFF6B6" d="M421.167 111.038c-.904.98-1.25 2.746-.327 3.826.385.452 1.145.395 1.54 0 .39-.391.39-.938.122-1.372a.947.947 0 0 1-.013-.056l-.003-.036c-.007-.109 0-.218.007-.326-.01.162.066-.23.08-.279-.042.075-.032.054.03-.064a.637.637 0 0 0 .04-.089.722.722 0 0 0 .063-.064c.95-1.03-.586-2.574-1.54-1.54M434.125 94.537c-.819.438-1.295 1.22-1.698 2.023-.265.531-.145 1.176.392 1.49.486.286 1.223.14 1.49-.39.146-.294.295-.585.475-.86l.032-.045c.05-.06.105-.119.16-.175l.058-.051c.061-.04.125-.077.19-.112.523-.28.681-.992.39-1.489-.307-.527-.965-.67-1.49-.391M439.784 127.696c-.524.548-.938 1.309-.973 2.077-.026.593.515 1.088 1.09 1.088.583 0 1.013-.45 1.076-1.004a.96.96 0 0 0 .024-.075l.007-.021c.015-.036.04-.1.055-.127.047-.095.102-.185.158-.274l.01-.014c.007-.006.065-.081.092-.11.41-.429.427-1.113 0-1.54-.412-.413-1.13-.43-1.54 0M483.55 97.32c-.023.023-.049.047-.074.069a3.097 3.097 0 0 1-.323.192c-.026.014-.052.026-.079.038l-.005.002a2.463 2.463 0 0 1-.126.04l-.024.007c-.55.068-.994.496-.994 1.075 0 .574.496 1.116 1.09 1.09.767-.035 1.528-.45 2.075-.973.43-.41.412-1.127 0-1.54-.426-.427-1.11-.41-1.54 0M533.314 98.634c-.781 0-1.488.085-2.077.645-.429.41-.411 1.129 0 1.54.422.423 1.093.409 1.523.014.048-.007.105-.015.138-.017.139-.006.278-.005.416-.005.594 0 1.088-.494 1.088-1.088 0-.593-.494-1.089-1.088-1.089M547.069 98.347c-.778.247-1.512.287-2.324.288-1.405 0-1.405 2.178 0 2.177.991 0 1.953-.063 2.903-.366 1.333-.424.762-2.527-.58-2.1M441.823 138.194c-.598-.164-1.15.2-1.34.761-.287.847-.665 1.667-.691 2.575-.041 1.406 2.137 1.402 2.177 0 .012-.134.008-.152-.01-.058a3.24 3.24 0 0 1 .048-.236c.037-.17.094-.336.15-.503.133-.402.29-.798.426-1.199.191-.563-.214-1.189-.76-1.34M445.01 131.615l-.98.98a1.1 1.1 0 0 0 0 1.54c.419.42 1.12.42 1.54 0l.979-.98a1.1 1.1 0 0 0 0-1.54 1.1 1.1 0 0 0-1.54 0M450.679 125.744c-.257 0-.539-.002-.778.094-.099.041-.233.082-.328.151-.238.172-.254.191-.428.427-.152.207-.2.494-.208.743-.023.594.513 1.09 1.088 1.09.314 0 .585-.133.78-.34.536-.065.962-.526.962-1.076 0-.593-.494-1.089-1.088-1.089M490.526 109.086c-1.237 0-2.43.1-3.383.973-1.037.95.506 2.486 1.54 1.54.462-.424 1.265-.335 1.843-.335 1.404-.002 1.404-2.179 0-2.178M496.732 108.76h-1.306a1.1 1.1 0 0 0-1.09 1.088c0 .594.496 1.089 1.09 1.089h1.306c.594 0 1.089-.495 1.089-1.089 0-.593-.495-1.088-1.089-1.088M491.468 98.568a.197.197 0 0 0-.022.005c.057-.063-.043-.006-.035.007-.084.017-.185.036-.17.037-.237.02-.477.018-.715.018-.593 0-1.088.494-1.088 1.088 0 .593.495 1.09 1.088 1.089.866 0 1.725-.042 2.403-.645.444-.395.401-1.139 0-1.54-.412-.413-1.022-.394-1.461-.059M446.643 142.067c-.74.783-.971 1.677-.973 2.73 0 .594.496 1.089 1.09 1.089a1.1 1.1 0 0 0 1.088-1.089c0-.109.001-.218.004-.327 0-.04.038-.363.023-.296.05-.264.105-.353.307-.567.964-1.02-.573-2.562-1.539-1.54M452.849 134.555a2.16 2.16 0 0 1-.102.093l-.003.003a.226.226 0 0 0-.02.014c-.112.08-.229.156-.343.233a6.059 6.059 0 0 0-.84.637c-.429.41-.411 1.127 0 1.54.428.426 1.112.41 1.54 0 .033-.033.067-.063.102-.093l.002-.002.021-.016c.112-.08.228-.156.344-.232.29-.195.585-.395.838-.638.43-.41.412-1.127 0-1.54-.426-.426-1.11-.409-1.54 0M538.866 107.453c-1.786.024-3.504.36-5.122 1.129-1.267.602-.162 2.48 1.1 1.88 1.258-.6 2.637-.813 4.022-.831 1.403-.02 1.405-2.196 0-2.178M553.854 107.166c-1.32-.385-2.876-.137-4.106.436-1.272.592-.165 2.468 1.099 1.88.581-.27 1.683-.434 2.428-.217 1.351.394 1.924-1.708.579-2.1M456.008 142.877c-.956.511-1.495 1.505-1.519 2.573-.014.593.506 1.089 1.089 1.089.604 0 1.075-.496 1.089-1.09 0-.038.003-.078.005-.119l.007-.032c.013-.059.03-.115.048-.172l.002-.007a.695.695 0 0 0 .034-.058l.057-.09c.011-.01.026-.028.046-.05a.556.556 0 0 0 .062-.06c.059-.037.12-.072.18-.104.522-.279.681-.993.39-1.49-.308-.526-.966-.67-1.49-.39M461.457 138.156c-.673 0-1.253.175-1.75.645-.43.407-.41 1.13 0 1.54.428.428 1.11.407 1.54 0l.003-.003c.069-.003.138-.005.207-.005a1.1 1.1 0 0 0 1.088-1.088c0-.594-.494-1.09-1.088-1.089M535.637 116.964c-.777.248-1.511.287-2.324.288-1.404 0-1.404 2.178 0 2.177.991 0 1.954-.063 2.902-.365 1.335-.425.764-2.527-.578-2.1M549.971 117.905h-1.306a1.1 1.1 0 0 0-1.09 1.089c0 .594.496 1.088 1.09 1.088h1.306c.594 0 1.089-.494 1.089-1.088 0-.594-.495-1.089-1.089-1.089M547.359 127.05h-1.307c-.594 0-1.089.495-1.089 1.089 0 .593.495 1.089 1.089 1.089h1.307c.593 0 1.088-.496 1.088-1.089 0-.594-.495-1.089-1.088-1.089M551.931 134.563h-1.96a1.1 1.1 0 0 0-1.09 1.088 1.1 1.1 0 0 0 1.09 1.09h1.96c.594 0 1.089-.496 1.089-1.09 0-.593-.495-1.088-1.089-1.088M551.277 142.075c-.756 0-1.497.119-2.076.645-.438.4-.404 1.135 0 1.54.409.41 1.024.397 1.46.06a.135.135 0 0 0 .014-.008c.042-.014.083-.026.126-.035.027-.002.151-.018.197-.02.093-.004.187-.004.28-.004.593-.001 1.088-.495 1.088-1.09a1.1 1.1 0 0 0-1.089-1.088M456.768 129.656l-.004.003a5.71 5.71 0 0 1-.207.004c-.593 0-1.087.495-1.087 1.09 0 .592.494 1.089 1.087 1.088.675 0 1.254-.175 1.75-.646.432-.408.411-1.13 0-1.54-.428-.428-1.108-.406-1.539 0"/>
            <path fill="#D5876B" d="M413.954 140.837c3.73 1.875-3.503-2.27 0 0"/>
            <path fill="#E0DFE5" d="M568.047 167.75c.634.144 1.266.286 1.906.427a39.279 39.279 0 0 1-3.229-1.45c.443.34.883.681 1.323 1.022"/>
            <path fill="#FFF" d="M484.859 128.786l.017-.009c-.058.005-.042.007-.017.009"/>
            <path fill="#FFF" d="M484.877 128.787c.027-.001.05-.003-.005-.01l.005.01z"/>
            <path fill="#FFF" d="M484.859 128.786l.014.004v-.012z"/>
            <path fill="#D7B6A8" d="M490.581 128.65h.005-.006z"/>
            <path fill="#E0DFE5" d="M476.234 124.443l.078-.036-.016.006-.062.03"/>
            <path fill="#FFF6B6" d="M731.61 174.776c-.95.337-1.67.956-2.548 1.417-.525.274-.679.995-.39 1.488.31.53.964.666 1.49.39.695-.363 1.28-.93 2.025-1.195.56-.199.927-.736.762-1.34-.15-.54-.78-.959-1.34-.76"/>
            <path fill="#FF7900" d="M470.501 161.499c-7.697 6.144-17.31 11.686-26.394 13.199-15.488 2.58-26.965-13.89-35.922-24.08-6.52-7.417-11.59-14.651-4.185-23 7.958-8.968 17.368-16.688 26.246-24.709 8.88-8.024 18.943-17.667 31.414-18.738 17.597-1.51 29.627 14.771 36.66 28.737 3.592 7.133 5.858 13.971 1.066 21.055-5.865 8.669-15.631 15.32-23.139 22.516a84.792 84.792 0 0 1-5.746 5.02"/>
            <path fill="#D6D6D6" d="M744.446 125.232c-.77-.881-2.494-.872-3.51-.704.39.665 1.06 1.121 1.415 1.803.48.919.253 2.123.09 3.145-.377 2.303-.93 4.565-1.464 6.83-.699 2.948-1.92 5.895-4.247 7.631-1.05.784-3.37.516-4.12 1.56-1.096 1.527.417 2.67 1.919 2.983 5.595 1.162 7.887-4.162 9.279-8.52.346-1.095.75-2.204 1.107-3.323.247-.787.461-1.616.627-2.431.368-1.8.486-3.659.243-5.476-.162-1.205-.575-2.625-1.339-3.498"/>
            <path fill="#085EBD" d="M739.93 125.19c-.764.678-1.513 1.752-2.089 2.633-.805 1.231-3.973 6.16-5.03 7.279-.928.984-2.823 1.974-3.649 3.044-1.134 1.473.136 2.38.182 4.012.042 1.449-.117 3.451-1.838 3.326.34.421 1.02.579 1.472.915 1.243.927 1.996 1.74 3.571 2.01 1.226.211 2.54.207 3.766-.068 1.513-.344 2.713-1.543 3.523-3.039.816-1.499 1.449-3.08 2.066-4.69.3-.778.537-1.604.81-2.392.436-1.26.882-2.555 1.172-3.865.555-2.482.566-5.183-.365-7.52-.626-1.574-2.17-2.909-3.592-1.645"/>
            <path fill="#FFF" d="M734.591 134.537c-.546-.015-.376 1.022-.319 1.401.14.908.507 5.505 1.07 4.676.555-.821.1-3.18-.054-4.044-.07-.402-.262-2.02-.697-2.033"/>
            <path fill="#FFF" d="M734.595 136.327c-.302-.205-1.478-1.075-1.73-.845-.32.29.458.821.74 1.02.675.47 3.91 3.041 3.683 2.234-.225-.8-2.036-1.97-2.693-2.409M732.57 137.822c-.339-.223-1.657-1.183-1.96-.873-.381.393.491.97.81 1.187.756.515 4.377 3.376 4.154 2.398-.226-.967-2.265-2.234-3.003-2.712"/>
            <path fill="#FFF" d="M733.214 136.068c-.54-.093-.527.954-.525 1.337 0 .919-.32 5.521.362 4.785.67-.73.57-3.131.549-4.008-.007-.409.04-2.039-.386-2.114"/>
            <path fill="#714E46" d="M729.553 138.005c-1.796.351-17.68 1.57-21.14 1.401-7.04-.347-14.867.472-22.03.662-1.48.039-2.823.354-3.81 1.157-2.43 1.975.998 10.467 3.641 11.855 5.01 2.627 13.221.246 18.562-.824 3.905-.78 22.453-2.683 25.748-4.962 3.883-2.686-.011-9.476-.971-9.29"/>
            <path fill="#FF7900" d="M726.45 134.324c-6.595-1.935-62.246-2.998-76.88-2.653-5.657.132-3.444.463-3.516 7.206-.025 2.439.759 5.206 1.925 7.826 1.075 2.413 2.475 4.7 3.863 6.49 5.275 6.795 18.455 5.523 26.493 5.961 10.68.58 21.965-1.89 32.618-3.597 6.053-.97 12.05-1.532 16.364-3.885 1.468-3.158 1.457-4.364 1.422-7.787a21.968 21.968 0 0 0-2.29-9.56"/>
            <path fill="#FF7900" d="M661.496 140.419c-1.263-2.489 2.18-5.512-.999-7.311-7.676-4.345-25.335 1.384-34.303 3.493-11.8 2.774-23.38 6.03-35.028 9.128-9.188 2.445-18.368 4.908-27.552 7.362a20.924 20.924 0 0 1 1.905 2.604c3.354 5.439 5.1 12.69 4.21 18.864-.789 5.473-.82 11.326-2.036 16.765.638.17.993.359 1.567.608 3.61-2.854 14.786-3.61 19.768-4.762 7.17-1.66 20.67-.251 17.698-9.96 8.244-3.875 46.523-16.341 55.948-20.5 7.126-3.147-4.496-.232.589-5.247 5.362-5.289.598-6.38-1.767-11.044"/>
            <path fill="#D6D6D6" d="M751.493 152.05c-.763-.805-2.405-.723-3.366-.52.392.614 1.044 1.02 1.406 1.651.488.855.314 2.01.188 2.987-.279 2.206-.731 4.378-1.165 6.552-.567 2.832-1.632 5.685-3.79 7.432-1.08.874-5.672 1.251-4.22 3.587 1.326 2.137 6.875.556 7.993-1.232a25.374 25.374 0 0 0 2.833-6.432c.296-1.055.643-2.126.945-3.205.21-.758.386-1.554.518-2.335.29-1.727.34-3.5.049-5.215-.193-1.138-.636-2.471-1.39-3.27"/>
            <path fill="#085EBD" d="M746.745 151.715c-.734.694-1.44 1.774-1.98 2.657-.756 1.236-3.729 6.18-4.739 7.318-.885.998-2.733 2.045-3.516 3.123-1.075 1.485.22 2.317.324 3.909.093 1.412.006 3.372-1.71 3.324.355.395 1.033.52 1.493.83 1.27.851 2.044 1.613 3.622 1.81 1.224.154 2.53.095 3.736-.226 1.49-.4 2.64-1.618 3.393-3.113.754-1.498 1.327-3.068 1.886-4.663.268-.773.475-1.588.719-2.371.388-1.246.785-2.53 1.028-3.82.463-2.447.379-5.083-.63-7.324-.679-1.51-2.26-2.746-3.626-1.454"/>
            <path fill="#FFF" d="M742.233 160.95c-.465.089-.132.916-.012 1.222.287.726 1.448 4.475 1.771 3.682.318-.785-.504-2.658-.794-3.346-.133-.323-.594-1.629-.965-1.558"/>
            <path fill="#FFF" d="M742.319 162.505c-.295-.113-1.45-.616-1.623-.38-.215.302.54.597.817.709.658.266 3.87 1.799 3.529 1.17-.337-.622-2.087-1.255-2.723-1.499M740.888 164.332c-.309-.163-1.511-.878-1.754-.592-.302.362.494.786.783.945.69.38 4.016 2.534 3.755 1.722-.263-.804-2.112-1.725-2.784-2.075"/>
            <path fill="#FFF" d="M741.275 162.506c-.472-.039-.386.849-.357 1.173.065.779.111 4.703.65 4.028.525-.67.27-2.697.19-3.439-.036-.344-.11-1.73-.483-1.762"/>
            <path fill="#714E46" d="M736.467 164.376c-.708-.025-15.067 2.09-18.143 2.051-6.256-.081-13.164.96-19.51 1.386-1.312.09-2.49.431-3.335 1.22-2.075 1.94 1.303 9.793 3.704 11.003 4.547 2.293 11.734-.229 16.427-1.418 3.432-.869 19.806-3.3 22.636-5.553 3.339-2.658 3.373-8.512-1.78-8.689"/>
            <path fill="#FF7900" d="M698.2 159.3c-12.919-.082-26.109-.602-38.982 1.283-.55.08-1.098.165-1.646.254-5.301.865-7.804 2.046-9.827 6.94-3.44 8.319-.549 14.213 9.292 16.123 10.478 2.034 22.376 2.802 33.356 2.643 13.076-.191 29.157-4.094 41.71-8.815a30.507 30.507 0 0 0 2.686-1.15c.53-1.319.933-2.681 1.249-4.005.821-3.449 1.27-8.326.07-12.237-.313-.314-28.359-.973-37.907-1.035"/>
            <path fill="#FF7900" d="M667.149 176.584c.407-5.166 2.249-7.032.878-11.939 0 0-10.489-3.876-12.758-3.363-16.915 3.832-34.377 5.804-51.548 8.115-6.564.884-13.19 2.012-19.801 2.485-1.484.107-19.531 5.493-19.37 3.903-.44 4.374-3.696 9.575-5.86 13.338-1.96 3.41-7.004 7.253-6.85 11.463.405 11.094 20.51 12.532 30.308 12.59 13.91.084 30.34-6.72 43.317-10.802 11.951-3.761 33.147-13.334 44.952-17.145 8.776-2.834-3.705-3.107-3.268-8.645"/>
            <path fill="#FF7900" d="M587.9 146.091c-3.645 1.037-7.256 2.203-10.91 3.207-6.493 1.782-13.066 4.102-19.751 5.232-4.563.771-8.854 3.008-13.5 3.732l-.015.003c-4.023.679-5.473 3.459-5.198 7.662.472 7.182 14.928 6.225 19.595 5.41.176-.032.351-.061.526-.088 4.473-.695 8.933.739 13.297 1.498 2.116.366 4.295.643 6.442.399 1-.112 1.666-.419 2.548-.823.922-.422 1.666-.392 2.658-.555-.476-2.007.727-4.005 2.066-5.438.765-.818 1.682-1.579 2.715-2.031.16-.07 2.532-.706 2.481-.333.24-1.766.908-3.194.972-5.042.059-1.735.01-3.471.09-5.205.137-2.996.523-6.95 3.574-8.448 1.753-.862-5.864.328-7.59.82"/>
            <path fill="#FF7900" d="M598.662 171.015c.107-.239-17.61 1.89-19.199 1.83a16.227 16.227 0 0 1-3.607-.524c-4.652-1.25-7.627-4.621-9.81-9.48-3.49 1.06-6.948 1.517-10.435 1.712.577 2.688.809 5.455.823 8.198.023 4.14-.093 8.239-.848 12.32a28.783 28.783 0 0 1-.908 3.565c-.502 5.195-1.07 10.385-1.412 15.595a6.189 6.189 0 0 1-.4 1.817c3.436 1.03 6.898 1.977 10.458 2.434 5.824.746 9.61-1.663 14.82-2.168 4.94-.479 21.431 3.227 20.953-5.936-.444-8.524-4.58-20.025-.435-29.363"/>
            <path fill="#714E46" d="M481.205 127.056c-3.769-2.346-15.274-14.748-16.642-17.714-1.292-2.8-1.832-1.403-5.365-1.207-1.817.1-4.18.613-5.888 1.287-3.32 1.309-12.863 6.929-11.234 11.603.585 1.68 2.987 3.514 4.005 4.966 2.215 3.162 16.647 19.422 11.656 22.666 2.519-1.383 5.158-.874 7.882-1.581 3.003-.78 6.043-2.21 8.577-4.001 2.707-1.911 5.065-4.772 6.542-7.727.76-1.522 1.349-3.56 1.775-5.185.238-.91.471-1.357.544-1.635.127-.48-.225-.46-1.852-1.472M452.618 87.895c-2.8 4.75.141 8.927 4.963 10.37 3.334 1 4.765-1.942 7.332-3.973 3.741-2.958 9.246-4.403 14.195-4.618-.963.042.042-17.116.737-17.379-10.135 1.642-16.821 5.59-23.068 10.863-1.671 1.412-3.121 2.978-4.16 4.737"/>
            <path fill="#4BB4E6" d="M538.279 159.71c-1.11-3.55-8.807-6.632-11.723-8.617a58.845 58.845 0 0 1-4.73-3.59c-2.375-1.998-5.547-4.008-7.097-6.737 2.213 2.126 5.33 3.6 7.225 5.995 6.913-14.087 3.584-34.233-3.484-47.656-4.417-8.388-8.843-14.443-16.622-19.849-7.636-5.305-16.704-7.187-26.013-6.913.01 6.774 1.187 15.652-.92 22.095.376-1.151 5.84 1.494 6.394 1.868 2.078 1.404 3.701 3.455 4.882 5.647 2.347 4.357 2.988 10.36 1.704 15.137-.702 2.606-2.798 4.216-3.346 6.894-.58 2.826.288 5.402-.96 8.317-2.376 5.544-8.115 9.361-14.117 9.575a28.438 28.438 0 0 1-3.373 1.816c-5.275 2.388-11.055 4.528-17.006 5.972.528 1.122 1.118 2.197 1.657 3.19 1.576 2.901 3.234 5.766 4.85 8.644 3.387 6.034 7.377 12.43 12.817 16.92.832-.388 1.65-.717 2.442-.927 3.5-.926-1.137-3.1 1.972-4.199 7.76-2.743 18.72-1.432 23.629 5.549 3.673 5.22 19.568 15.474 25.26 8.52 5.067-6.192 9.032-12.841 12.825-19.799 1.015-1.861 4.45-5.56 3.734-7.852"/>
            <path fill="#C19372" d="M448.48 117.385c.019.099.052.267.003.058.298 2.757 5.195 1.109 4.629-1.256-.71-2.97-4.94-.586-4.632 1.198"/>
            <path fill="#B5E8F7" d="M553.73 171.613a142.35 142.35 0 0 0-.185-2.787c-.368-4.786-.095-12.49-3.208-16.294-3.096-3.782-8.346-1.513-12.437-2.43-5.692-1.277-10.202-4.195-15.252-6.873-9.169-4.864-31.468-23.228-34.753-26.14-.776 1.495-2.946 4.097-4.103 5.286-.445.457-2.496 2.054-3.038 2.339-.292 1.914 1.183 2.646 1.312 4.603.12 1.8-.414 3.87-1.059 5.529-1.36 3.499-4.07 6.419-7.755 7.446-1.331.372-2.838.282-4.301.22-1.05.224-2.124.354-3.181.447-2.647.234-5.576.218-8.168.685-2.956.534-6.145 3.17-8.761 5.229-2.053 1.616-2.842 3.76-4.425 5.639-1.399 1.66-3.671 2.443-2.916 5.101.287 1.01 2.28 3.346 2.897 4.456 1.167 2.102 2.455 4.137 3.601 6.257 5.628 10.418 14.193 17.407 24.676 23.189 18.509 10.209 54.554 20.297 74.986 13.963 8.167-2.533 7.64-9.228 7.025-16.267-.571-6.525-.58-13.079-.955-19.598"/>
            <path fill="#FFF" d="M479.173 124.444c-.318.034-.636.057-.954.062 4.04 6.198-1.313 12.462-5.804 14.79-4.768 2.472-9.57 4.333-15.41 1.808a6.62 6.62 0 0 1-.173.653l-.774 1.57-.08.149c1.158 1.186 10.922 6.954 21.238-1.386 8.585-6.937 5.726-15.123 4.503-18.024-.863.115-1.706.285-2.546.378M559.327 155.1c-1.779-6.77-3.503-4.979-9.72-4.228 1.052 4.504 2.55 9.27 2.738 13.909.25 6.24.155 12.363-.327 18.602-.332 4.298-.447 8.617-1.094 12.885-.21 1.372-2.218 11.952-4.158 11.909 5.723.13 9.758-1.61 11.469-6.784 3.25-9.834 4.048-20.525 3.391-30.829-.329-5.175-.98-10.444-2.3-15.464"/>
            <path fill="#4BB4E6" d="M533.172 175.806c-3.652-3.97-7.227-8.405-9.608-13.358-3.438 2.484-7.343 4.29-11.479 5.063-5.16.964-10.601 1.782-15.799 1.136-9.76-1.215-17.411-8.843-25.249-14.055a222.182 222.182 0 0 1-4.943-3.406c-6.758-4.755-10.403-6.152-18.101-2.61-5.519 2.54-8.969 7.354-8.771 13.637.317 10.077 8.119 19.103 14.674 25.803 6.875 7.026 15.001 13.095 23.96 17.096 10.18 4.548 18.879 3.69 29.698 2.83 7.903-.63 15.455-2.794 22.417-6.906 6.434-3.8 11.11-8.14 15.78-14.111-4.614-3.164-8.826-7.038-12.58-11.119"/>
            <path fill="#4BB4E6" d="M475.09 151.643c-.6-.585-1.306-1.048-1.904-1.632-.425-.415-1.138-.38-1.54.045a1.1 1.1 0 0 0 .047 1.539c.598.584 1.305 1.047 1.904 1.632.424.414 1.136.38 1.538-.046.413-.437.378-1.125-.045-1.538M481.934 155.558c-.622-.302-1.283-.514-1.905-.815-.532-.26-1.183-.1-1.475.438-.273.505-.094 1.216.44 1.476.621.302 1.282.513 1.904.815.533.26 1.185.1 1.475-.439.272-.505.094-1.216-.44-1.475M489.006 159.91c-.706-.353-1.397-.646-2.195-.673-.593-.022-1.065.574-1.043 1.133.026.625.541 1.02 1.134 1.04-.191-.005.172.034.176.034-.016-.003.243.08.228.068.227.092.445.204.664.312.53.266 1.187.096 1.475-.438.275-.51.092-1.211-.439-1.476M496.875 163.589c.193.006-.174-.027-.176-.027-.156-.03-.311-.073-.466-.111a4.755 4.755 0 0 0-.99-.134c-.593-.021-1.065.575-1.041 1.133.025.625.54 1.02 1.133 1.041-.194-.006.173.027.173.027.16.029.314.073.469.111.325.08.654.123.99.134.592.02 1.064-.574 1.041-1.133-.026-.625-.54-1.021-1.133-1.041M505.852 164.948h-.545c-.593 0-1.064.56-1.041 1.134.026.61.54 1.041 1.133 1.041h.544c.594 0 1.065-.56 1.042-1.132-.026-.612-.54-1.043-1.133-1.043M480.734 147.832l-.012-.01-.036-.005.035.003c-.026-.026-.052-.05-.076-.076a2.086 2.086 0 0 1-.09-.103c-.096-.12-.19-.24-.297-.35-.412-.428-1.146-.371-1.54.045-.42.446-.364 1.112.047 1.538.03.033.061.066.09.1.131.16.26.324.41.465.388.365.857.527 1.38.547.593.022 1.065-.576 1.042-1.134-.023-.56-.44-.933-.953-1.02"/>
            <path fill="#4BB4E6" d="M480.721 147.82h.002c.022.003.026.002-.002 0M490.365 152.463c-.734-.25-1.442-.566-2.176-.816-.563-.192-1.182.281-1.305.815-.144.623.255 1.114.815 1.305.734.25 1.442.567 2.176.816.563.192 1.182-.282 1.306-.815.144-.622-.254-1.114-.816-1.305M498.527 156.646c-.773-.375-1.604-.65-2.467-.674-.594-.016-1.066.573-1.043 1.133.026.623.541 1.025 1.134 1.041.021 0 .039 0 .053.002l.078.013c.16.025.315.068.47.11.325.09.415.132.739.29.533.258 1.184.099 1.475-.44.273-.504.095-1.217-.439-1.475M505.871 159.094a6.014 6.014 0 0 0-.926-.338l-.24-.072-.023-.011c-.442-.347-1.082-.333-1.481.088-.398.422-.396 1.144.046 1.538.289.258.592.386.956.504.113.036.229.066.341.098.04.011.079.024.119.037-.09-.027.148.06.172.07.536.253 1.183.104 1.475-.44.27-.499.097-1.22-.439-1.474M514.032 162.903a6.017 6.017 0 0 0-.926-.34c-.08-.022-.16-.046-.24-.07l-.023-.012c-.442-.347-1.083-.333-1.481.089-.398.421-.397 1.143.046 1.537.289.258.592.386.956.504.113.037.228.067.341.1.04.01.079.023.118.035-.089-.027.15.06.173.07.536.254 1.182.104 1.475-.438.27-.5.097-1.222-.44-1.475M487.646 143.59a3.734 3.734 0 0 1-.322-.195c-.01-.01-.037-.03-.084-.065-.062-.05-.122-.102-.182-.153-.285-.247-.55-.517-.815-.782-.42-.42-1.14-.377-1.54.045-.416.44-.373 1.12.047 1.538.566.565 1.146 1.148 1.86 1.525a1.1 1.1 0 0 0 1.475-.439c.28-.518.085-1.198-.44-1.475M495.806 148.213c-.65-.333-1.253-.754-1.904-1.087-.527-.27-1.188-.091-1.475.439-.277.513-.087 1.205.44 1.475.65.333 1.253.754 1.904 1.088.528.27 1.188.09 1.475-.44.277-.513.089-1.205-.44-1.475M504.783 152.566a5.929 5.929 0 0 0-.926-.338l-.24-.072-.023-.012c-.442-.347-1.083-.333-1.481.089-.398.421-.396 1.143.046 1.537.289.258.592.386.956.504.113.037.229.067.341.1.04.01.079.023.118.036-.089-.027.15.059.173.07.536.253 1.182.104 1.475-.44.27-.499.097-1.22-.439-1.474M513.74 156.516l-.04-.001a3.486 3.486 0 0 1-.568-.136c-.03-.014-.061-.026-.09-.04a1.622 1.622 0 0 1-.146-.075 1.101 1.101 0 0 0-1.534.049c-.401.426-.393 1.14.046 1.538.636.579 1.584.82 2.424.84.593.014 1.065-.572 1.041-1.133-.025-.622-.54-1.028-1.133-1.042M518.909 158.692h-.816c-.593 0-1.065.56-1.041 1.133.024.61.54 1.042 1.132 1.042h.817c.593 0 1.064-.56 1.041-1.133-.025-.611-.54-1.042-1.133-1.042M488.715 136.115l-.06-.001a1.083 1.083 0 0 0-.756-.272 1.1 1.1 0 0 0-1.042 1.134c.009.242.077.464.201.67.185.303.47.455.791.565.295.1.647.078.957.078.593 0 1.065-.56 1.042-1.133-.026-.61-.541-1.041-1.133-1.041M497.167 141.413c-.633-.41-1.409-.686-1.947-1.194-1.024-.967-2.513.62-1.494 1.583.7.66 1.608 1.008 2.405 1.525.498.323 1.21.052 1.475-.439.3-.553.058-1.152-.44-1.475M505.58 146.45c.121.005-.165-.037-.254-.056l-.048-.022c-.096-.043-.188-.097-.28-.149-.256-.146-.496-.32-.759-.458a1.1 1.1 0 0 0-1.474.44c-.28.516-.086 1.2.439 1.474.324.17.62.387.943.561.479.257.986.368 1.524.386.593.02 1.065-.575 1.042-1.133-.026-.625-.541-1.022-1.133-1.042M515.373 151.348l-.006-.001c-.007 0-.012-.003-.021-.004a.374.374 0 0 1-.025-.007l-.05-.046a.076.076 0 0 1-.01-.013c-.036-.052-.068-.108-.1-.163-.065-.111-.122-.229-.18-.344-.266-.53-1.033-.638-1.5-.345-.538.335-.61.969-.346 1.498.186.371.394.717.698 1.006.445.426 1.033.579 1.63.593.594.015 1.065-.57 1.042-1.133-.025-.621-.54-1.027-1.132-1.041M521.9 154.068h-.271c-.593 0-1.065.56-1.042 1.133.025.61.54 1.041 1.134 1.041h.272c.593 0 1.064-.56 1.041-1.133-.025-.61-.54-1.041-1.133-1.041M489.235 128.25c-.143-.139-.305-.255-.453-.387-.012-.01-.022-.023-.034-.035a1.098 1.098 0 0 0-1.121-.963 1.1 1.1 0 0 0-1.043 1.134c.02.53.254.944.593 1.334.165.19.384.326.565.5.427.412 1.135.38 1.538-.045a1.1 1.1 0 0 0-.045-1.539M496.483 133.633c-.661-.964-1.493-1.475-2.581-1.844-.564-.19-1.182.281-1.306.816-.143.621.254 1.114.816 1.304.482.164.91.417 1.227.877.335.488.98.67 1.499.346.486-.304.681-1.01.345-1.5M503.276 137.764l-.024-.012c.187.01.07.007-.029-.013-.033-.016-.067-.03-.101-.048a2.144 2.144 0 0 1-.194-.112 2.165 2.165 0 0 1-.092-.081 1.1 1.1 0 0 0-1.54.045 1.1 1.1 0 0 0 .046 1.539c.504.48 1.186.808 1.881.839.593.027 1.065-.58 1.041-1.134-.023-.577-.459-.944-.988-1.023M514.576 144.133l-1.633-.816c-.529-.265-1.186-.095-1.475.44-.274.508-.09 1.21.44 1.475l1.633.815c.53.266 1.187.095 1.475-.439.274-.509.09-1.21-.44-1.475M522.989 149.443c-.53-.01-1.008-.165-1.384-.52-1.022-.966-2.512.622-1.493 1.584.814.767 1.868 1.09 2.969 1.111.593.012 1.064-.569 1.041-1.133-.025-.62-.54-1.03-1.133-1.042M493.902 125.091a11.93 11.93 0 0 1-.725-.386c-.027-.016-.246-.163-.252-.161a4.826 4.826 0 0 1-.426-.375c-.426-.414-1.136-.38-1.539.045a1.1 1.1 0 0 0 .046 1.538c.545.53 1.186.916 1.86 1.254.531.265 1.188.095 1.476-.44.274-.508.09-1.21-.44-1.475M500.703 130.804a12.181 12.181 0 0 1-.726-.386c-.027-.017-.245-.163-.251-.162a4.8 4.8 0 0 1-.426-.374c-.426-.415-1.137-.38-1.539.044a1.1 1.1 0 0 0 .046 1.539c.544.53 1.185.916 1.86 1.253.53.266 1.187.095 1.475-.44.275-.508.092-1.209-.44-1.474M516.48 140.869a3.787 3.787 0 0 1-.293-.167c-.141-.463-.588-.8-1.086-.78a1.101 1.101 0 0 0-1.043 1.134c.03.828.706 1.381 1.387 1.727.528.27 1.188.092 1.475-.44.276-.51.089-1.205-.44-1.474M526.253 145.907h-1.632c-.593 0-1.065.56-1.041 1.133.026.61.54 1.042 1.133 1.042h1.631c.594 0 1.066-.56 1.043-1.133-.026-.611-.54-1.042-1.134-1.042"/>
            <path fill="#87ACCB" d="M493.763 96.91c-.251-.539-1.043-.631-1.498-.346-.55.343-.597.962-.347 1.5.042.09.077.32.086.401.025.232.02.467.02.7.001.592.56 1.065 1.135 1.04.61-.024 1.041-.54 1.04-1.132 0-.773-.108-1.458-.436-2.163M491.182 85.649a3.713 3.713 0 0 1-.302-.182c-.026-.025-.215-.167-.25-.197a9.465 9.465 0 0 1-.58-.545c-.42-.42-1.14-.375-1.538.046-.415.44-.373 1.12.046 1.538.475.476.988.941 1.589 1.254a1.1 1.1 0 0 0 1.475-.44c.278-.516.086-1.2-.44-1.474M507.774 123.9c-.613-.14-1.125.251-1.304.815-.257.805-.299 1.628-.3 2.468 0 .593.56 1.065 1.134 1.042.61-.026 1.04-.541 1.04-1.134.001-.69.033-1.216.246-1.885.18-.567-.274-1.18-.816-1.305"/>
            <path fill="#714E46" d="M469.694 108.604c-1.334-3.743-3.543-7.234-5.996-10.339-2.39-3.023-5.037-5.311-8.084-7.688a33.643 33.643 0 0 0-2.155-1.565c-.943-.625-1.414-1.247-2.291-.435-.432.401-.784.87-1.14 1.34-.375.497-.755.994-1.237 1.41-.58.5-1.226 1.034-1.896 1.555-.383-.642-.6-1.17-1.498-1.295-3.13-.432-5.385 2.742-8.236 3.454-2.6.65-5.227 2.314-4.194 5.592 1.356 4.315 4.68 7.688 7.714 10.895.607.644 2.325 1.379 2.238 2.44-.168 2.023-3.19 1.11-4.155 2.459-2.607 3.648 2.31 7.335 5.718 6.382 3.061-.856 5.358 1.446 8.093 2.293 3.249 1.005 6.89.194 9.998-.901 2.567-.907 5.321-1.713 7.254-3.743 2.368-2.483 2.111-5.04 1.139-8.218-.412-1.35-.91-2.618-1.272-3.636"/>
            <path fill="#000" d="M445.645 103.058c-.808.761-2.674 2.154-1.853 3.462-.026-.04.182-.21.517-.448 1.032-.73 3.258-2.092 3.476-2.254 1.344-1.005.736-2.242-.208-3.318-.64.916-1.11 1.78-1.932 2.558"/>
            <path fill="#62342D" d="M441.806 118.152c-1.704 1.047-.133 2.219.957 2.8l1.18-.714c-.705-.699-1.396-1.437-2.137-2.086"/>
            <path fill="#000" d="M456.201 94.018c-.236.079-2.906 1.082-2.996.88.43.989.842 1.691 1.645 1.667.27-.007.585-.096.96-.288.216-.109 2.797-1.922 2.884-1.684-.52-1.426-1.274-.978-2.493-.575"/>
            <path fill="#D4B3A7" d="M448.891 112.804l.004-.003-.01.002z"/>
            <path fill="#D9BCB0" d="M441.782 112.921a.108.108 0 0 1-.05-.03l.05.03z"/>
            <path fill="#FFF" d="M455.221 115.669l-.12.128c2.25 2.47 8.201 2.415 10.316.112 1.151-1.253 2.757-3.856-.287-8.071-.143.585-8.665 7.95-9.909 7.83"/>
            <path fill="#000" d="M451.778 77.949c-1.273-.031-1.324 2.24-2.536 3.085-.607-.41-1.01-1.513-1.501-2.338-.294-.495-.619-.89-1.037-.974-1.387-.28-2.36 3.642-2.615 4.648-1.98-4.604-3.877.245-4.974 2.35-1.41 2.709-2.015 5.052-4.531 7.009-3.175 2.468-7.52 5.14-8.146 9.481-.722 5.014 4.847 10.904 8.799 13.193 1.05.608 1.834 1.66 2.912 2.207 1.675.85 2.087-.234 3.504-.147 1.77.11 3.816 3.676 5.522 1.6-2.598-4.25-7.014-7.482-9.774-11.725-1.232-1.892-1.983-2.153-.999-4.095 1.032-2.033 3.008-4.45 5.14-5.368 1.178-.508 2.25-.13 3.427-.443 1.935-.515 4.049-1.737 5.434-3.174 2.136-2.216 4.228-5.281 4.513-8.429.153-1.688-.907-6.825-3.138-6.88"/>
            <path fill="#62342D" d="M461.886 104.754c-.447-.289-1.178-.319-1.916-.408-.556-.067-1.116-.167-1.563-.434-1.356-.814-2.347-2.17-3.738-2.891-2.334 1.624 2.753 6.634 4.27 7.066 2.006.573 5.695-1.561 2.947-3.333"/>
            <path fill="#000" d="M450.32 105.22c-1.154-.014-2.314.813-2.888 2.059-.602 1.305-.427 2.692.464 3.71l.795-.695c-.61-.697-.723-1.659-.3-2.575.401-.872 1.173-1.453 1.916-1.445.805.01 1.548.715 2.096 1.984l.968-.418c-.973-2.259-2.33-2.611-3.05-2.62M461.23 97.462c-.846-.147-1.8.323-2.37 1.17-.598.89-.636 1.931-.1 2.787l.666-.417c-.365-.585-.334-1.306.087-1.93.4-.595 1.037-.93 1.582-.836.592.104 1.054.711 1.305 1.71l.764-.193c-.448-1.777-1.403-2.198-1.933-2.29"/>
            <path fill="#FFF" d="M516.778 91.208c-1.62-1.168-4.476-1.852-7.238-2.514-1.25-.298-2.43-.581-3.208-.853-.882-.308-1.848.195-2.16 1.12-.314.925.146 1.925 1.026 2.232.933.325 2.188.626 3.518.945 2.228.534 3.458.894 6.102 1.99.202.084.374.216.574.263.654.154 1.37-.114 1.784-.73.542-.808.363-1.906-.398-2.453M513.982 110.466c-1.25.1-2.185.092-3.48.082-1.68-.013-3.77-.03-7.528.18-1.08.06-1.91.995-1.855 2.088.048.957.759 1.718 1.66 1.854.128.019.26.025.396.018 3.635-.203 5.656-.188 7.28-.174 1.342.01 2.402.02 3.82-.094a1.985 1.985 0 0 0 1.806-2.133c-.082-1.092-1.021-1.908-2.1-1.82M515.482 121.69c-1.186.347-2.099.54-3.363.806-1.642.347-3.686.778-7.287 1.75-1.043.28-1.618 1.224-1.286 2.108.269.713 1.046 1.168 1.886 1.169.2 0 .403-.026.603-.08a115.24 115.24 0 0 1 7.043-1.69c1.312-.277 2.348-.496 3.698-.891 1.034-.302 1.584-1.258 1.226-2.134-.358-.876-1.485-1.342-2.52-1.039M520.373 132.664c-1.404 1.548-4.022 2.864-6.555 4.135-1.144.575-2.224 1.118-2.93 1.565-.8.506-1.759.194-2.148-.693-.39-.887-.06-2.015.737-2.519.846-.534 1.995-1.112 3.215-1.725 2.041-1.026 3.161-1.659 5.536-3.354.183-.13.33-.303.514-.394a1.409 1.409 0 0 1 1.754.373c.592.715.537 1.885-.123 2.612"/>
            <path fill="#87ACCB" d="M465.516 157.866l-.001-.002c-.022-.001-.026 0 .001.002"/>
            <path fill="#FFF" d="M405.172 138.883l-.816-.816c-.262-.263-.713-.235-.961.029-.26.275-.234.7.028.96l.816.816c.262.263.713.235.962-.028a.689.689 0 0 0-.029-.961M408.32 143.064l-.025-.016c.012-.004-.01-.013-.02-.013l-.055-.036a4.263 4.263 0 0 1-.328-.308c-.262-.262-.712-.235-.961.028-.26.276-.233.701.028.962.378.377.757.699 1.311.73.372.02.666-.366.652-.709-.015-.358-.279-.582-.602-.638M412.789 148.132l-.816-.816c-.263-.263-.713-.236-.961.028-.26.276-.234.7.028.961l.815.816c.263.263.713.235.962-.028a.688.688 0 0 0-.028-.961M416.325 153.844l-.05-.053c.026.025-.068-.092-.073-.1-.067-.093-.13-.19-.194-.285a4.635 4.635 0 0 0-.5-.65c-.256-.269-.716-.23-.96.028-.265.28-.228.695.028.962.017.017.033.036.048.053-.024-.025.07.092.075.1.067.093.13.19.194.285.152.228.31.452.5.65.256.268.716.23.96-.029.265-.28.228-.694-.028-.961M420.507 159.183c-.225-.24-.55-.341-.869-.356-.37-.016-.665.363-.651.71.015.338.255.562.557.629.058.329.354.58.695.565a.687.687 0 0 0 .651-.708c-.015-.33-.16-.604-.383-.84M425.573 164.453l-.05-.054c.027.026-.067-.09-.072-.099-.067-.093-.13-.19-.195-.285a4.635 4.635 0 0 0-.498-.65c-.257-.269-.718-.23-.962.028-.264.28-.227.694.029.962a.987.987 0 0 1 .048.053c-.024-.025.069.091.074.099.068.094.13.191.195.286.152.228.31.452.499.65.256.268.716.23.961-.029.264-.28.228-.694-.029-.96M431.688 167.886l-1.633-.816c-.784-.392-1.431.804-.647 1.196l1.632.817c.784.392 1.431-.805.648-1.197M407.477 134.972c-.545-.273-1.049-.557-1.489-.985-.631-.614-1.56.379-.933.99.52.506 1.13.868 1.775 1.19.784.394 1.431-.803.647-1.195M412.918 139.595c-.578-.304-1.032-.8-1.49-1.257-.622-.621-1.551.372-.932.991.54.54 1.092 1.104 1.775 1.463.776.41 1.422-.788.647-1.197M417.141 144.324l-1.36-1.361c-.622-.621-1.552.372-.933.99l1.36 1.36c.622.622 1.551-.371.933-.99M420.86 150.6c-.266-.78-.667-1.375-1.413-1.756-.782-.398-1.43.8-.648 1.196.093.048.183.1.272.157.02.016.066.047.076.057.028.023.052.051.078.077.008.012.063.076.072.09.036.052.066.108.098.163a.532.532 0 0 0 .025.044l.024.059c.045.104.081.211.118.318.282.828 1.583.429 1.298-.404M424.214 156.565l-.195-.199-.077-.084a3.967 3.967 0 0 1-.06-.071 3.623 3.623 0 0 1-.375-.6c-.168-.33-.642-.4-.936-.217-.335.21-.386.607-.217.937.238.464.56.857.927 1.223.261.263.712.235.96-.028a.688.688 0 0 0-.027-.961M428.315 160.873c-.165-.19-.385-.326-.566-.5a.685.685 0 0 0-.961.028.688.688 0 0 0 .028.962c.143.138.306.253.453.387.024.021.046.044.068.068.01.013.052.062.064.079.003.007.005.008.008.013l.008.023.003.009v.043c.014.37.34.666.708.65a.688.688 0 0 0 .651-.708c-.016-.416-.196-.747-.464-1.054M409.11 130.619l-1.633-.816c-.784-.392-1.431.804-.647 1.196l1.632.816c.784.392 1.432-.804.648-1.196M415.509 135.346c-.451-.45-.934-.893-1.503-1.19-.778-.408-1.424.79-.647 1.196.468.244.847.614 1.216.985.623.622 1.552-.372.934-.99M425.14 148.538c-.445-.655-1.016-1.263-1.288-2.017-.295-.824-1.595-.424-1.298.404.316.882.914 1.57 1.432 2.334.493.724 1.648.006 1.153-.72M429.22 154.251l-.816-1.633c-.166-.332-.645-.398-.937-.216-.336.211-.382.606-.217.937l.817 1.633c.166.331.645.398.937.216.337-.21.382-.607.216-.937M434.278 163.365c-.54-.54-1.091-1.104-1.775-1.464-.777-.41-1.422.789-.647 1.197.578.304 1.032.8 1.49 1.256.621.622 1.551-.371.932-.989M437.048 167.533h-.273c-.37 0-.665.35-.65.708.015.381.338.652.708.652h.272c.371 0 .666-.35.65-.71-.015-.382-.338-.65-.707-.65M436.182 158.469c-.508-.497-1.122-.865-1.632-1.361-.63-.613-1.56.379-.933.99.51.496 1.123.865 1.632 1.36.63.613 1.561-.379.933-.99M412.516 127.458c-.494-.45-1.185-.632-1.775-.92-.787-.384-1.435.812-.647 1.197.27.132.549.247.825.367.148.064.294.132.438.205.05.025.099.053.147.081l.044.024a.409.409 0 0 0 .035.036c.65.592 1.582-.4.933-.99M417.796 131.401c-.308-.457-.649-.938-1.135-1.219-.527-.301-1.12-.065-1.4.44-.357.64.416 1.192.93.914.174.175.313.382.45.585.49.727 1.646.008 1.155-.72M423.235 137.113a3.876 3.876 0 0 0-1.613-1.598c-.778-.406-1.423.79-.646 1.197.48.25.857.643 1.106 1.122.172.33.641.4.938.216.332-.207.388-.609.215-.937M428.294 143.236c-.377-.378-.757-.7-1.311-.73-.37-.02-.666.366-.651.709.015.357.279.581.6.637l.027.016c-.013.005.01.014.02.014l.055.035c.115.095.221.203.327.308.262.262.712.235.961-.028a.688.688 0 0 0-.028-.961M416.869 123.65c-.732-.69-1.68-.982-2.671-1.001-.877-.017-.817 1.342.057 1.359.626.012 1.22.197 1.68.631.641.604 1.572-.388.934-.99M423.126 128.274c-.64-.638-1.298-1.227-2.048-1.735-.307-.209-.76-.028-.921.274-.19.351-.033.714.274.922.648.44 1.21.978 1.761 1.529.622.622 1.552-.372.934-.99M438.902 148.404l-.815-.816c-.263-.263-.713-.235-.961.028-.261.276-.235.7.028.962l.816.815c.262.263.712.235.961-.028a.688.688 0 0 0-.029-.961M419.447 119.194c-.564-.273-1.093-.353-1.713-.353-.371 0-.666.35-.65.708.015.381.337.65.707.651l.265.001c.054 0 .106.003.159.006a.837.837 0 0 1 .039.004c.223.029.346.083.545.18.333.162.74.061.922-.275.17-.315.058-.76-.274-.922M423.941 122.833c-.442-.442-.924-.954-1.583-1-.37-.026-.665.37-.65.708.013.335.24.544.53.62h.001c.043.02.084.046.123.072.005.003.007.003.01.006l.025.019c.046.036.09.075.136.113.165.142.322.298.475.453.263.262.713.235.962-.028a.69.69 0 0 0-.029-.963M429.24 128.17c-.546-.368-1.071-.802-1.38-1.394-.172-.328-.64-.4-.937-.216-.333.208-.388.61-.217.937.417.8 1.153 1.375 1.886 1.87.307.208.759.027.922-.275.19-.35.032-.714-.275-.921M435.367 133.987c-.495-.506-.863-1.122-1.504-1.464-.775-.414-1.42.784-.647 1.197.466.249.821.852 1.217 1.256.616.63 1.545-.365.934-.99M440.263 140.243l-1.088-1.087c-.263-.263-.713-.236-.962.028a.688.688 0 0 0 .029.96l1.088 1.089c.262.263.712.235.96-.028a.688.688 0 0 0-.027-.962M443.085 143.405c-.226-.24-.55-.34-.87-.355-.37-.016-.664.364-.65.71.014.338.255.562.557.629.057.328.354.58.695.565a.686.686 0 0 0 .651-.708c-.015-.33-.16-.605-.383-.84M424.07 116.202c-.52-.266-1.065-.578-1.49-.985-.633-.61-1.563.383-.931.99.503.484 1.155.875 1.775 1.192.78.398 1.428-.799.647-1.197M429.382 122.018c-.768-.78-1.413-1.65-2.32-2.28-.304-.212-.76-.024-.92.274-.192.355-.03.712.274.923.791.55 1.363 1.392 2.033 2.073.617.627 1.546-.367.933-.99M435.749 127.592a9.211 9.211 0 0 0-2.43-2.413c-.306-.21-.758-.027-.921.274-.19.352-.032.713.274.922a7.44 7.44 0 0 1 1.923 1.939c.494.722 1.65.004 1.154-.722M440.535 132.899c-.54-.567-.815-1.332-1.36-1.905-.607-.637-1.535.359-.933.99.54.567.815 1.332 1.36 1.904.606.638 1.535-.357.933-.99M444.472 138.236a1.2 1.2 0 0 1-.438-.406c-.156-.224-.275-.473-.397-.717-.166-.332-.645-.398-.937-.216-.336.21-.382.606-.215.938.32.64.687 1.248 1.34 1.597.775.414 1.42-.783.647-1.196M448.151 142.963a14.493 14.493 0 0 1-.271-.282l-.06-.07a3.71 3.71 0 0 1-.374-.6c-.17-.332-.643-.402-.937-.217-.335.208-.385.607-.217.937.237.462.56.855.926 1.222.262.263.713.235.961-.028a.687.687 0 0 0-.028-.962M427.316 112.631c-.393-.734-1.153-1.116-1.966-1.135-.37-.009-.666.356-.65.709.015.388.338.642.707.65.125.003.295.05.43.123.129.069.229.194.326.374.174.328.638.403.937.217.33-.207.39-.61.216-.938M432.374 117.393c-.636-.62-1.386-.973-2.217-1.256-.352-.119-.74.176-.816.51-.09.389.158.697.51.816.602.204 1.133.474 1.59.92.63.614 1.56-.379.933-.99M438.197 123.512a3.886 3.886 0 0 0-1.613-1.598c-.778-.406-1.424.79-.648 1.197.481.25.857.643 1.107 1.122.172.329.641.402.937.216.333-.207.388-.609.217-.937M442.983 130.178c-.585-.599-1.048-1.305-1.632-1.904-.615-.63-1.544.365-.933.99.584.6 1.047 1.305 1.632 1.904.614.63 1.543-.364.933-.99M447.063 135.619c-.494-.505-.862-1.121-1.502-1.464-.775-.414-1.42.784-.648 1.197.466.248.822.851 1.218 1.256.614.63 1.543-.365.932-.99M450.693 140.335l-.093-.091c-.263-.263-.713-.236-.961.028-.26.275-.234.7.028.961.126.127.255.255.415.34.193.107.41.117.624.117.37 0 .666-.35.65-.71-.015-.365-.312-.625-.663-.645M432.374 147.587c-.065-.065-.13-.13-.194-.197l-.078-.085a3.966 3.966 0 0 1-.06-.07 3.623 3.623 0 0 1-.374-.6c-.169-.332-.643-.401-.936-.217-.336.209-.386.607-.217.937.237.463.56.856.926 1.222.262.264.712.235.961-.028a.688.688 0 0 0-.028-.962M466.753 99.63c-.008-.005-.017-.01-.025-.017-.025-.006-.026 0 .025.018"/>
            <path fill="#FFF" d="M468.01 98.896c-.053-.052-.11-.096-.167-.141a.615.615 0 0 0-.25-.235c-.127-.064-.262-.141-.402-.176-.338-.085-.761.146-.816.51-.034.23.005.504.206.656.048.037.098.07.147.104a.22.22 0 0 1 .045.017c.012.006.023.012.036.017a1.328 1.328 0 0 1-.056-.017c.022.014.042.03.064.045s.046.03.069.047c.067.05.13.104.19.163.266.258.71.237.961-.028a.688.688 0 0 0-.028-.962M471.274 105.696c.082.091-.078-.13-.094-.159a3.526 3.526 0 0 1-.173-.355c-.145-.329-.282-.66-.44-.984-.163-.332-.648-.397-.936-.216-.34.212-.38.605-.217.938.291.595.472 1.267.926 1.766.25.274.722.225.962-.029.269-.284.22-.687-.028-.96M476.28 113.72a2.956 2.956 0 0 0-1.341-1.326.688.688 0 0 0-.922.274c-.173.32-.056.754.275.922.11.057.22.117.325.184l.014.01c.007.004.012.01.024.02.042.032.082.07.12.106.024.022.045.046.067.07.007.012.058.073.069.087.082.117.15.245.215.373.17.331.644.4.937.217.336-.21.385-.607.217-.937M480.25 118.481c-.374-.353-.81-.456-1.311-.456-.37-.001-.667.35-.651.708.016.382.338.65.708.65.046 0 .091 0 .136.002h.01a.507.507 0 0 1 .035.006l.056.014.029.017c.019.016.038.031.055.049.269.254.708.24.961-.028a.687.687 0 0 0-.028-.962M480.107 110.217c-.58-.306-1.051-.781-1.632-1.088-.777-.409-1.422.788-.648 1.197.582.306 1.052.781 1.633 1.087.776.41 1.422-.787.647-1.196M484.602 115.761l-1.36-1.36c-.622-.622-1.552.371-.932.99.452.454.905.906 1.36 1.36.622.622 1.55-.371.932-.99M474.376 98.214c-.544-.79-1.71-2.019-2.705-1.193-.285.236-.215.73.03.96.204.193.45.216.675.135.077.038.156.085.211.129.25.193.458.43.635.69.496.721 1.652.003 1.154-.72M480.107 102.6c-.708-.472-1.43-.956-1.923-1.665-.499-.72-1.655-.002-1.153.72.634.913 1.516 1.533 2.43 2.142.73.488 1.368-.714.646-1.196M484.08 107.284c-.166-.19-.385-.325-.566-.5a.685.685 0 0 0-.96.029.687.687 0 0 0 .027.961c.142.138.305.253.452.387.025.021.046.045.068.068.011.013.053.063.064.08l.01.013c0 .007.003.012.006.023l.003.008v.043c.014.37.34.666.708.651a.688.688 0 0 0 .652-.709c-.016-.417-.197-.746-.464-1.054M486.507 111.68a42.22 42.22 0 0 1-.272-.271c-.263-.263-.713-.235-.962.028-.26.276-.233.7.029.962l.272.272c.261.262.712.235.96-.03a.688.688 0 0 0-.027-.96M479.816 99.574c-.296-.566-.75-1.045-1.198-1.495-.621-.622-1.551.372-.933.99.374.374.732.754.977 1.226.172.329.642.402.938.216.333-.207.388-.608.216-.937M475.082 104.608l-.816-.815c-.263-.264-.714-.236-.961.028a.687.687 0 0 0 .028.96l.816.817c.262.263.712.234.96-.029a.688.688 0 0 0-.027-.96M420.677 139.699c-.373-.354-.81-.457-1.311-.457-.37 0-.666.35-.651.71.016.38.338.65.708.65l.136.001h.006c.017.003.028.003.04.006.018.003.036.008.055.013l.03.017.054.05c.27.255.708.24.961-.029a.686.686 0 0 0-.028-.961"/>
            <path fill="#B5E8F7" d="M558.097 179.501c-1.093-.02-2.17-.252-3.264-.272-.877-.016-.817 1.344.057 1.36 1.094.02 2.17.252 3.264.272.877.016.817-1.343-.057-1.36M558.64 175.149h-3.263c-.877 0-.82 1.36.057 1.36h3.264c.878 0 .82-1.36-.057-1.36M558.467 167.835c-.744.23-1.501.241-2.274.241-.878.001-.819 1.361.057 1.36.89 0 1.766-.037 2.622-.303.838-.259.436-1.558-.405-1.298M465.4 144.458l-.817-1.632c-.166-.332-.646-.399-.937-.216-.336.21-.382.605-.216.936l.815 1.632c.167.332.646.4.937.217.338-.21.383-.606.217-.937M470.73 143.507c-.424-.423-.709-.699-.979-1.225-.168-.331-.642-.4-.936-.217-.335.21-.386.607-.217.937.296.58.742 1.04 1.198 1.495.622.622 1.552-.371.933-.99M476.442 141.06c-.54-.54-1.092-1.104-1.775-1.465-.777-.41-1.423.788-.648 1.197.578.304 1.033.8 1.49 1.257.622.622 1.551-.372.933-.99M479.564 136.876l-1.633-.816c-.785-.393-1.431.803-.647 1.196l1.632.816c.784.393 1.43-.804.648-1.196M481.739 131.707c-.638-.297-1.289-.352-1.984-.353-.877 0-.82 1.358.057 1.359.439 0 .875.002 1.28.19.793.37 1.443-.826.647-1.196M482.698 128.274c-.418-.4-1-.703-1.583-.729-.37-.016-.665.363-.65.709.015.393.337.634.708.65-.216-.01-.006.01.05.026.006.001.007.002.01.004a2.345 2.345 0 0 1 .388.206l.016.011c.045.036.087.074.129.113.267.256.708.24.96-.029a.687.687 0 0 0-.028-.96"/>
            <path fill="#FFF" d="M478.312 90.17c-.114-2.085-.032-4.183-.096-6.27-.12-3.969-.261-7.937-.455-11.89-1.298-.175-3.698.68-4.828 1.25-.28.141-.51.291-.704.448.553 3.226.582 6.573.754 9.81.208 3.896 1.339 7.702 1.448 11.601 1.187.606 3.253.478 4.418.616.137-1.822-.437-3.741-.537-5.566M427.478 134.077c-.107-.103-.231-.188-.348-.282a2.206 2.206 0 0 1-.178-.164l-.003-.003a1.172 1.172 0 0 1-.086-.141c-.173-.329-.64-.402-.938-.217-.33.207-.39.61-.216.937.111.212.277.397.458.553.122.106.26.195.378.307a.686.686 0 0 0 .961-.029.687.687 0 0 0-.028-.96M430.6 138.326a2.583 2.583 0 0 1-.204-.115.862.862 0 0 1-.072-.064c-.014-.012-.026-.027-.038-.04a1.824 1.824 0 0 1-.159-.268c-.168-.33-.643-.4-.937-.217-.334.21-.385.608-.217.938.219.427.552.746.979.963.33.167.743.057.922-.275.173-.32.055-.754-.274-.922M434.951 143.585c-.011-.005-.021-.013-.033-.019-.007-.006-.066-.046-.083-.063l-.026-.026c0-.004-.053-.065-.065-.083-.104-.15-.184-.315-.264-.478-.166-.332-.646-.399-.937-.216-.337.21-.383.606-.217.937.231.463.508.894.978 1.144a.686.686 0 0 0 .922-.274.685.685 0 0 0-.275-.922M436.727 153.663a469.11 469.11 0 0 1-.908-.907c-.261-.263-.712-.235-.96.029a.69.69 0 0 0 .027.962l.908.905c.261.263.712.235.961-.028a.689.689 0 0 0-.028-.961"/>
            <g transform="translate(373 -9.443)">
                <mask id="f" fill="#fff">
                    <use xlink:href="#e"/>
                </mask>
                <path fill="#FF7900" d="M321.292.404C309.114 5.7 302.814 19.37 290.19 23.762c-16.031 5.58-32.241-3.837-48.087-5.476-11.103-1.148-24.18 2.3-27.386 14.414-1.429 5.395-.626 11.145.545 16.51 1.26 5.766 4.732 12.862 3.51 18.796-1.672 8.138-15.697 9.202-22.126 8.016-6.826-1.261-12.557-5.36-19.51-6.49-11.239-1.828-24.827-.302-31.03 10.64-6.15 10.85 2.288 20.754 12.102 25.005 11.669 5.055 29.198 4.157 33.952 18.641 4.495 13.69-5.348 27.108-18.763 29.836-14.961 3.043-29.016-5.219-37.56-17.085-7.873-10.93-10.195-24.056-15.837-36.032-5.322-11.3-14.456-18.763-27.032-20.32-12.865-1.594-27.223 1.962-37.851 9.39-10.394 7.26-16.172 18.47-17.138 31.012-2.358 30.661 21.106 54.265 36.344 78.25 15.18 23.892 26.837 55.771 10.112 82.078-16.082 25.294-50.605 20.601-72.845 37.038-4.738 3.502-8.64 7.803-11.408 13.012-.873 1.645 1.625 3.11 2.5 1.462 13.937-26.229 50.109-21.89 71.973-37.212 21.67-15.185 24.529-44.839 16.782-68.28-4.59-13.89-12.277-26.51-20.55-38.48-8.906-12.883-18.898-25.314-25.015-39.863-5.613-13.35-7.662-29.494-1.082-42.907C51.4 92.24 66.075 85.119 80.415 83.226c14.964-1.976 28.785 2.797 36.029 16.636 6.115 11.681 8.129 24.95 15.465 36.093 6.789 10.31 16.934 18.777 29.411 20.734 11.05 1.732 23.424-1.578 30.048-11.111 5.747-8.27 6.591-20.463.414-28.737-8.093-10.843-23.167-9.588-34.265-15.166-6.486-3.26-12.392-9.428-10.12-17.255 2.08-7.16 9.676-11.5 16.65-12.382 6.886-.872 14.478-.091 20.886 2.656 6.572 2.816 12.441 5.315 19.8 4.474 4.941-.565 11.772-2.248 15.066-6.344 3.278-4.078 1.982-9.828.792-14.437-3.15-12.19-8.584-29.647 6.942-35.737 14.672-5.754 30.915 3.353 45.5 5.218 6.557.839 13.445.618 19.617-1.965 5.734-2.398 10.273-6.665 14.627-10.978 4.7-4.655 9.315-9.342 15.476-12.02 1.704-.742.232-3.237-1.461-2.5" mask="url(#f)"/>
            </g>
            <path fill="#714E46" d="M542.746 120.058c2.173.684 4.503.888 6.654.86 1.871-.024 4.132-.138 6.011-1.026a78.457 78.457 0 0 0-.064-4.584c-.237-5.414-.588-11.75-3.418-16.205-1.067-1.684-2.95-3.79-4.72-4.213a6.197 6.197 0 0 0-.576-.108c-1.116-.156-2.707-.088-3.128 1.127-.698 2.02 1.755 5.31.364 16.105-.335 2.606-.686 5.41-1.123 8.044"/>
            <path fill="#62342D" d="M544.486 96.42l-.072.094c2.033 1.604 3.459 4.23 4.36 8.025l1.003-.272c-.884-3.717-2.48-6.283-4.429-8.05-.355.138-.498.134-.862.202M541.805 98.922l-.073.093c2.034 1.604 3.46 4.232 4.361 8.027l1.003-.272c-.885-3.719-2.48-6.283-4.43-8.05-.354.137-.498.134-.861.202"/>
            <path fill="#4BB4E6" d="M547.238 87.05c-1.325-3.286-2.868-6.499-4.343-9.72a279.78 279.78 0 0 0-2.774-5.93c-.79-1.625-3.552-4.345-5.29-2.306 1.285 1.35 2.095 3.768 2.839 5.484 1.113 2.57 1.948 5.242 2.97 7.848 1.736 4.428 2.92 7.714 2.484 12.65-.325 3.682-.95 7.344-1.473 10.995-1.125 7.854-2.278 15.703-3.369 23.564-.286 2.062-1.32 4.504-.776 6.59.401 1.54 1.197 1.424 2.146.443 1.682-1.738 1.545-4.364 2.169-6.538.773-2.697 3.057-17.342 3.741-21.913a4273.27 4273.27 0 0 1 1.966-12.842c.84-5.421.389-6.64-.29-8.325"/>
            <path fill="#000" d="M545.405 88.924c-.336-1.28-4.76-11.306-7.156-16.194-.391-.798-2.563-5.702-3.978-3.631-.621.908-.478 3.441-.653 4.554-1.431 15.073-4.434 37.032-5.28 43.036 1.529 3.026 3.263 6.028 4.445 9.001 1.605 4.036 3.353 7.756 5.297 11.574.196-1.688.428-3.371.673-5.052 1.331-9.163 2.996-18.277 4.595-27.397.725-4.13 1.372-6.832 1.802-10.99.092-.887.457-4.13.255-4.901"/>
            <path fill="#FFF" d="M541.672 89.813c-.3-1.006-3.046-6.462-4.495-10.04-.814-2.012-1.436-2.097-1.925-1.243-.277.486-2.44 18.71-4.529 34.445-.704 5.298.313 5.31.667 6.102a162.831 162.831 0 0 0 2.622 5.575 96.396 96.396 0 0 0 1.796 2.421c1.633-5.93 5.482-27.485 6.21-31.072.505-2.489.626-2.91-.346-6.188"/>
            <path fill="#714E46" d="M554.714 108.32c-.254-1.25-6.867 6.935-7.673 7.266-1.24.507-6.863-3.01-6.513-1.722 1.451 5.342-.858 13.518-1.797 18.808-1.538 8.648-3.993 16.61-9.352 23.835a33.83 33.83 0 0 1-6.102 6.31c2.355 5.01 6.075 9.493 9.828 13.405 3.524 3.675 7.382 7.17 11.623 10.046a71.327 71.327 0 0 0 2.258-3.159c2.439-3.62 4.77-7.345 6.153-11.514 2.108-6.358 3.49-12.974 4.17-19.634.343-3.36.359-6.69.421-10.06.034-1.81-.317-20.304-3.016-33.58"/>
            <path fill="#714E46" d="M546.925 109.793a1.559 1.559 0 0 1-.13.093 7.178 7.178 0 0 1-.596.33l.003-.02c-2.588-.093-3.422-2.241-4.676-4.096-.524-.773-1.432-1.898-2.357-2.19-1.36-.431-1.03.77-.79 1.77.494 2.051.284 4.387 1.302 6.307.093.176.184.35.272.522.01.148.055.311.146.492a70.55 70.55 0 0 1 1.257 2.615c.06.16.118.321.174.481l.093.116c.82 1.853 1.536 3.718 1.85 5.096.907 3.997 3.688.696 4.612-1.288 1.397-3.004.93-7.606-1.16-10.228"/>
            <path fill="#62342D" d="M550.07 106.452l-.095-.054c-1.067 1.634-2.98 2.896-5.821 3.846.066.019.126.023.176.001.472-.203 1.008-.145 1.292.34.01.017.016.037.024.054 2.169-.918 3.688-2.121 4.729-3.478-.175-.288-.191-.408-.304-.709"/>
            <path fill="#FFF" d="M538.923 175.097c2.827 2.971 6.416 5.623 9.912 7.035-.38-.153-1.864 6.686-5.413 5.189-3.258-1.375-6.568-5.411-9.03-8.012-3.416-3.608-5.94-7.929-8.822-11.948-1.283-1.79-2.504-2.889-1.832-5.165.16-.544 3.07-4.067 3.378-3.476 2.443 4.675 6.004 8.615 8.962 12.904a28.734 28.734 0 0 0 2.845 3.473"/>
            <path fill="#FF7900" d="M499.061 115.375c8.118 19.2 26.263 36.547 48.69 31.495 9.215-2.074 16.826-8.29 19.883-17.315 2.865-8.463 1.41-18.076-4.94-24.55-1.306-1.333-3.353.715-2.047 2.046 6.192 6.313 6.93 16.026 3.35 23.892-3.83 8.415-12.407 13.113-21.399 13.785-19.64 1.465-33.973-14.11-41.038-30.814-.723-1.71-3.217-.237-2.499 1.46"/>
            <path fill="#B5E8F7" d="M444.831 168.477c-.453-.932-.77-1.923-1.223-2.856-.261-.535-1.037-.636-1.5-.346-.543.339-.606.967-.347 1.499.454.931.771 1.924 1.225 2.857.26.533 1.035.634 1.498.345.543-.338.606-.966.347-1.5M449.32 176.638l-1.225-2.449c-.265-.531-1.032-.637-1.5-.346-.537.336-.61.97-.345 1.5l1.224 2.448c.265.53 1.032.637 1.499.345.538-.336.611-.968.346-1.498M445.732 160.272c-.278-.607-.266-1.297-.545-1.904-.246-.538-.742-.91-1.363-.715-.511.159-.963.821-.714 1.361.278.608.265 1.3.544 1.905.246.539.742.91 1.363.715.511-.16.963-.822.715-1.362M449.019 166.983a2.244 2.244 0 0 1-.58-.605c-.167-.25-.201-.388-.21-.66-.047-1.402-2.222-1.312-2.176.091.045 1.333.88 2.359 1.93 3.088.488.34 1.217.038 1.475-.439.306-.566.048-1.137-.44-1.475M453.776 174.164l-.816-1.632c-.266-.531-1.032-.638-1.5-.347-.538.338-.61.97-.346 1.5l.817 1.633c.265.53 1.032.637 1.5.345.537-.336.61-.969.345-1.499M457.68 179.934l-.325-.329c-.053-.056-.106-.112-.157-.17.01.01-.141-.167-.15-.17a2.682 2.682 0 0 1-.436-.768c-.197-.557-.779-.897-1.362-.715-.55.171-.914.803-.716 1.363.337.947.953 1.67 1.653 2.372.42.42 1.14.375 1.539-.046.417-.44.373-1.119-.046-1.537M448.975 156.267a.992.992 0 0 0-.298-.19 1.116 1.116 0 0 0-1.038-.65 1.09 1.09 0 0 0-.423.074c-.298.134-.234.093-.49.306-.147.126-.223.345-.28.52-.142.437.096.902.4 1.2.372.368.91.602 1.429.619.593.022 1.064-.575 1.041-1.133a1.093 1.093 0 0 0-.34-.746M453.348 164.08c-.307-.91-.724-1.794-1.609-2.265a1.1 1.1 0 0 0-1.476.44 1.1 1.1 0 0 0 .44 1.474l.038.022c.028.019.083.057.109.08l.019.021c.033.048.067.095.097.143l.086.152.014.028.024.06c.068.16.125.327.18.493.19.56.787.895 1.363.714.555-.173.905-.8.715-1.362M457.434 169.901c.03.033-.051-.062-.083-.104-.068-.094-.13-.19-.194-.286a5.24 5.24 0 0 0-.565-.73c-.41-.43-1.147-.37-1.538.045-.414.437-.363 1.077.02 1.506-.03-.034.051.062.082.103.068.095.13.192.194.287.17.256.352.507.565.73.41.43 1.148.369 1.538-.045.414-.438.364-1.077-.019-1.506M462.53 175.528c-.468-.354-.976-.503-1.562-.515-.592-.01-1.065.568-1.04 1.133.024.603.512 1.005 1.084 1.038-.04-.003-.01 0 .038.005.126.482.585.837 1.098.815a1.1 1.1 0 0 0 1.042-1.133c-.02-.508-.247-1.032-.66-1.343M453.056 153.547l-.325-.328c-.053-.056-.106-.112-.158-.17.01.01-.141-.167-.149-.17a2.662 2.662 0 0 1-.436-.768c-.198-.557-.78-.897-1.363-.715-.55.171-.914.803-.715 1.363.337.946.953 1.67 1.652 2.372.42.42 1.141.375 1.54-.046.416-.44.372-1.119-.046-1.538M457.706 161.468c.03.034-.052-.061-.083-.104-.067-.094-.13-.19-.194-.286a5.304 5.304 0 0 0-.565-.73c-.41-.43-1.147-.37-1.539.045-.412.437-.363 1.078.02 1.506-.03-.034.052.062.083.104.067.094.13.19.194.286.17.256.352.508.565.73.41.43 1.148.37 1.538-.045.413-.437.364-1.077-.019-1.506M464.252 169.975a3.756 3.756 0 0 1-.243-.144l-.03-.024a2.226 2.226 0 0 1-.181-.172 2.6 2.6 0 0 1-.065-.101v-.008a1.1 1.1 0 0 0-1.133-1.041 1.1 1.1 0 0 0-1.041 1.133c.045 1.008.8 1.823 1.657 2.272a1.1 1.1 0 0 0 1.475-.44c.279-.516.086-1.2-.44-1.475M469.693 174.327a11.93 11.93 0 0 1-.726-.386c-.027-.016-.245-.162-.251-.161a4.705 4.705 0 0 1-.427-.375c-.425-.414-1.136-.38-1.539.044a1.102 1.102 0 0 0 .046 1.54c.545.53 1.186.915 1.861 1.252.53.267 1.187.095 1.475-.439.275-.509.09-1.21-.44-1.475M476.722 179.118c-.278-.255-.555-.363-.901-.492-.043-.016-.086-.03-.13-.044a1.812 1.812 0 0 1-.104-.044l-.002-.001a1.097 1.097 0 0 0-1.49.08c-.402.427-.392 1.14.046 1.54.278.253.555.362.9.49.044.017.087.03.13.045.027.01.076.03.105.044l.001.001c.44.36 1.092.34 1.49-.082.402-.425.392-1.14-.045-1.537M528.134 179.934c-.419-.397-1.017-.364-1.443-.031a2.476 2.476 0 0 1-.333.194 2.47 2.47 0 0 0-.58.425c-.43.41-.366 1.15.046 1.54.419.395 1.017.363 1.444.029a2.47 2.47 0 0 1 .332-.194c.216-.108.404-.26.58-.426.43-.408.366-1.148-.046-1.537M459.628 153.925a1.706 1.706 0 0 1-.093-.052l-.007-.006-.02-.02c-.007-.013-.057-.073-.081-.11a1.058 1.058 0 0 1-.033-.099c0-.003 0-.004-.002-.005-.005-.052-.01-.104-.01-.156-.014-.593-.55-1.066-1.134-1.041-.601.024-1.055.54-1.042 1.132a2.63 2.63 0 0 0 1.386 2.272c.523.28 1.192.084 1.475-.44.28-.52.084-1.195-.439-1.475M464.829 161.259a2.352 2.352 0 0 1-.195-.333 2.447 2.447 0 0 0-.426-.579c-.407-.43-1.149-.367-1.537.046-.396.418-.364 1.016-.031 1.443.075.105.136.218.194.334.109.215.26.403.426.578.408.431 1.149.366 1.538-.046.395-.419.363-1.015.03-1.443M471.28 168.78a1.039 1.039 0 0 0-.572-.272l-.001-.001.027.003c-.018-.003-.035-.01-.052-.015a8.454 8.454 0 0 0-.174-.08 2.035 2.035 0 0 0-.835-.203c-.593-.031-1.064.585-1.042 1.134.013.282.136.553.341.746.171.162.362.238.574.273h.001l-.028-.002c.019.003.035.01.053.014l.174.082c.297.137.51.183.834.2.593.033 1.065-.584 1.043-1.133a1.096 1.096 0 0 0-.342-.745M479.513 173.93c.042.002.01 0-.037-.006a1.103 1.103 0 0 0-1.098-.815 1.1 1.1 0 0 0-1.042 1.133c.02.508.246 1.032.659 1.343.469.355.977.504 1.562.515.594.011 1.066-.568 1.042-1.133-.025-.602-.514-1.005-1.086-1.037M488.19 178.136a6.027 6.027 0 0 0-.926-.34c-.081-.021-.16-.046-.24-.07l-.022-.012c-.444-.347-1.084-.333-1.482.089-.399.422-.396 1.143.046 1.537.288.259.592.386.957.504.112.037.227.067.34.1.04.01.078.023.118.035-.09-.026.149.06.174.071.536.253 1.182.103 1.475-.439.27-.5.096-1.222-.44-1.475M496.06 179.91c-.324.004-.646.046-.968.077-.144.012-.288.024-.43.034-.414-.19-.949-.132-1.253.23-.36.427-.506 1.228.025 1.615.361.262.685.344 1.126.339.533-.006 1.06-.113 1.59-.12.593-.008 1.066-.554 1.042-1.133-.025-.605-.54-1.051-1.133-1.042M506.668 179.91h-2.448c-1.403 0-1.31 2.175.09 2.175h2.45c1.403 0 1.309-2.175-.092-2.175M517.701 177.972c-.34-.543-.966-.604-1.499-.346.191-.092-.068.024-.093.034-.041.016-.188.05-.218.06-.172.017-.347.014-.518.014-.594 0-1.066.56-1.042 1.133.026.61.54 1.042 1.133 1.042.24 0 .478-.001.716-.04.434-.073.779-.205 1.175-.398.535-.258.635-1.036.346-1.499M524.097 174.056c-.51-.276-1.187-.09-1.465.423-.552.052-.979.578-.957 1.124.026.61.541 1.042 1.134 1.041.345 0 .63-.09.938-.232.35-.163.618-.552.789-.881a1.1 1.1 0 0 0-.44-1.475M467.473 156.811a2.033 2.033 0 0 1-.09-.1c-.132-.16-.26-.323-.41-.465-.388-.364-.857-.527-1.38-.547-.594-.021-1.065.578-1.042 1.134.023.562.44.933.953 1.021l.01.01c.01 0 .024.003.038.004a.903.903 0 0 1-.036-.002c.027.025.053.051.078.077l.089.101c.095.12.19.241.297.351.412.428 1.145.37 1.538-.045.421-.447.366-1.113-.045-1.539M475.132 163.072c-.862-.299-1.685-.76-2.447-1.258-.497-.325-1.211-.05-1.475.44-.3.555-.057 1.15.44 1.475a13.58 13.58 0 0 0 2.992 1.463c.562.194 1.183-.284 1.305-.816.144-.623-.254-1.11-.815-1.304M483.022 168.343c-.774-.375-1.604-.65-2.468-.674-.593-.017-1.065.572-1.042 1.133.026.624.541 1.025 1.133 1.041l.053.001.079.014c.16.025.315.068.47.111.325.09.416.132.74.288.532.26 1.184.1 1.474-.44.272-.503.094-1.215-.44-1.474M490.367 172.15a17.908 17.908 0 0 1-.74-.383 4.828 4.828 0 0 1-.227-.137c-.013-.013-.134-.1-.165-.13a1.099 1.099 0 0 0-1.539.046 1.1 1.1 0 0 0 .046 1.539c.453.428 1.036.705 1.588.98.53.266 1.187.095 1.475-.438.275-.51.092-1.21-.438-1.476M499.045 173.43a3.25 3.25 0 0 1-.837.154c-.16.008-.13.008-.282-.016.009.002-.358-.12-.215-.056-.54-.244-1.179-.11-1.475.439-.267.494-.102 1.23.44 1.475.971.438 2.012.394 3.017.082 1.338-.417.695-2.496-.648-2.078M509.388 171.477h-2.176c-.593 0-1.065.56-1.042 1.133.026.61.54 1.042 1.133 1.042h2.176c.594 0 1.066-.56 1.042-1.133-.025-.61-.54-1.042-1.133-1.042M517.157 170.628c-.34-.543-.966-.604-1.499-.347a4.327 4.327 0 0 1-1.646.38c-1.402.03-1.312 2.206.092 2.175.958-.02 1.851-.295 2.707-.709.535-.259.635-1.036.346-1.499M523.034 168.983c-.024-.588-.54-1.074-1.133-1.043-.314.018-.576.131-.845.258-.034.014-.068.024-.103.035-.528.094-.933.56-.91 1.113.025.586.542 1.073 1.133 1.041.315-.016.577-.13.845-.257a.949.949 0 0 1 .103-.035c.528-.094.933-.56.91-1.112"/>
            <path fill="#595959" d="M529.068 78.71c-1.205.026-2.387.308-3.594.328-1.402.021-1.404 2.2 0 2.177 1.207-.02 2.389-.301 3.594-.327 1.401-.029 1.404-2.207 0-2.177M556.503 80.344c-.387 0-.773-.007-1.159-.03-.272-.016-.801-.102-.904-.148-.54-.246-1.167-.16-1.49.39-.276.472-.15 1.245.392 1.49.99.45 2.088.475 3.161.475 1.405.001 1.405-2.176 0-2.177M568.916 79.69h-3.267c-1.404 0-1.404 2.178 0 2.178h3.267c1.403 0 1.403-2.178 0-2.178M581 80.017h-1.306c-.594 0-1.089.496-1.089 1.089 0 .594.495 1.088 1.089 1.088H581c.593 0 1.087-.494 1.087-1.088 0-.593-.494-1.089-1.087-1.089M595.045 78.71h-4.9c-1.404 0-1.404 2.178 0 2.178h4.9c1.403 0 1.403-2.177 0-2.177M607.456 79.364h-2.612c-1.404 0-1.404 2.177 0 2.177h2.612c1.405 0 1.405-2.177 0-2.177M620.521 78.71h-1.633c-.593 0-1.088.495-1.088 1.09a1.1 1.1 0 0 0 1.088 1.088h1.633c.594 0 1.089-.495 1.089-1.089s-.495-1.088-1.089-1.088M631.953 78.71c-.98 0-1.934.063-2.836.476-.54.247-.668 1.016-.39 1.49.321.549.95.637 1.488.39.46-.21 1.183-.177 1.738-.178 1.403 0 1.404-2.178 0-2.177M647.957 78.384h-2.94c-1.403 0-1.403 2.178 0 2.178h2.94c1.404 0 1.404-2.178 0-2.178M662.982 79.037h-3.593c-1.404 0-1.404 2.177 0 2.177h3.593c1.404 0 1.404-2.177 0-2.177M677.026 79.69h-3.92c-1.404 0-1.404 2.178 0 2.178h3.92c1.405 0 1.405-2.178 0-2.178M690.314 81.472c-.81-.378-1.621-.474-2.509-.475a1.1 1.1 0 0 0-1.09 1.088 1.1 1.1 0 0 0 1.09 1.09c.486 0 .965-.03 1.41.178.538.25 1.17.156 1.49-.392.278-.474.147-1.239-.391-1.489M702.176 84.59a1.866 1.866 0 0 1-.024-.002 2.481 2.481 0 0 1-.228-.067c-.143-.045-.287-.122-.463-.212-.345-.176-.678-.374-1.022-.55-.528-.271-1.177-.143-1.489.39-.288.49-.137 1.22.39 1.49.907.464 1.786 1.078 2.836 1.128.593.029 1.089-.517 1.089-1.089 0-.614-.496-1.06-1.089-1.088M712.59 88.221c-1.358-.359-1.935 1.742-.578 2.1 1.172.31 2.235.835 3.112 1.68 1.011.974 2.552-.563 1.54-1.54-1.142-1.1-2.544-1.836-4.073-2.24M725.327 97.214c-.266-.531-1.004-.676-1.49-.39-.537.314-.656.958-.39 1.49l.979 1.958c.265.531 1.003.676 1.49.39.536-.313.656-.958.39-1.488l-.98-1.96zM732.661 109.195c-.02-.593-.48-1.089-1.089-1.089-.578 0-1.11.496-1.089 1.089.031.912.402 1.707.802 2.51.265.53 1.004.675 1.49.39.536-.315.655-.959.39-1.49-.22-.443-.487-.934-.504-1.41M561.403 86.876c-1.09 0-2.18.04-3.229.365-1.337.415-.766 2.517.58 2.1.872-.27 1.742-.287 2.649-.287 1.404-.001 1.404-2.178 0-2.178M574.69 88.658c-.722-.372-1.34-.777-2.182-.802-.593-.017-1.089.509-1.089 1.089 0 .606.496 1.07 1.089 1.09h.082l.044.009c.045.012.09.027.134.043l.05.024c.264.132.511.292.774.427.528.272 1.178.141 1.49-.39.286-.491.136-1.22-.391-1.49M585.9 86.55h-3.594c-1.403 0-1.403 2.177 0 2.177h3.593c1.404 0 1.404-2.177 0-2.177M601.8 87.025c-.902-.413-1.856-.475-2.836-.475-1.405-.001-1.404 2.176 0 2.177.555 0 1.278-.032 1.737.178.54.247 1.168.159 1.49-.39.277-.474.149-1.243-.391-1.49M612.578 86.371c-.901-.412-1.856-.474-2.835-.474-1.405-.002-1.404 2.176 0 2.177.555 0 1.278-.032 1.736.178.54.247 1.168.159 1.49-.39.278-.474.149-1.243-.39-1.49M623.787 86.223h-2.286c-1.404 0-1.404 2.177 0 2.177h2.286c1.405 0 1.405-2.177 0-2.177M636.236 86.262c-1.197.277-2.407.287-3.63.288-1.404 0-1.404 2.178 0 2.177 1.418-.001 2.822-.044 4.209-.365 1.368-.317.787-2.416-.58-2.1M648.937 85.57h-1.633c-.593 0-1.088.494-1.088 1.088a1.1 1.1 0 0 0 1.088 1.089h1.633c.594 0 1.088-.496 1.088-1.089 0-.594-.494-1.088-1.088-1.088M661.675 85.896h-1.96a1.1 1.1 0 0 0-1.088 1.09c0 .593.495 1.088 1.088 1.088h1.96c.594 0 1.089-.495 1.089-1.089 0-.593-.495-1.089-1.089-1.089M678.043 86.588c-1.196.277-2.406.287-3.63.288-1.404.001-1.404 2.178 0 2.177 1.418 0 2.822-.044 4.21-.365 1.367-.316.787-2.416-.58-2.1M691.397 87.856h-2.286c-1.404 0-1.404 2.178 0 2.178h2.286c1.405 0 1.405-2.178 0-2.178M702.176 91.775c-1.405-.024-1.402 2.154 0 2.178.662.011 1.04.197 1.516.66 1.006.98 2.547-.557 1.54-1.539-.856-.835-1.855-1.278-3.056-1.299M717.423 99.436a3.03 3.03 0 0 1-.206-.12c-.008-.007-.014-.011-.02-.018a3.176 3.176 0 0 1-.351-.372c-.035-.042-.15-.19-.062-.075l-.187-.243a3.852 3.852 0 0 0-.26-.308c-.412-.427-1.125-.414-1.54 0a1.102 1.102 0 0 0 0 1.54c.039.039.074.079.11.12.035.04.141.177.11.137.11.143.219.286.334.423.267.321.605.602.974.797.525.277 1.18.137 1.49-.392.289-.494.133-1.212-.392-1.489M725.156 106.792c-.97-1.019-2.506.523-1.54 1.54.195.206.294.418.368.651.122.382.21.773.332 1.155.182.564.749.923 1.34.76.552-.152.942-.774.76-1.339-.325-1.007-.504-1.971-1.26-2.767M560.75 97.328h-1.96a1.1 1.1 0 0 0-1.09 1.089c0 .594.496 1.088 1.09 1.088h1.96c.593 0 1.088-.494 1.088-1.088 0-.593-.495-1.089-1.088-1.089M576.754 96.348h-1.96a1.1 1.1 0 0 0-1.088 1.089c0 .594.495 1.088 1.088 1.088h1.96c.594 0 1.088-.494 1.088-1.088 0-.593-.494-1.089-1.088-1.089M593.412 96.021h-3.267c-1.403 0-1.403 2.178 0 2.178h3.267c1.404 0 1.404-2.178 0-2.178M609.639 96.497c-.912-.43-1.843-.475-2.837-.476-1.403 0-1.403 2.177 0 2.178.626 0 1.29-.033 1.738.178.536.253 1.17.155 1.49-.39.28-.478.146-1.237-.391-1.49M626.727 96.675c-.625 0-1.29.033-1.737-.178-.536-.253-1.17-.156-1.49.39-.279.478-.146 1.237.391 1.49.91.429 1.843.475 2.836.475 1.404 0 1.404-2.177 0-2.177M640.772 95.695c-1.525 0-3.044.017-4.536.365-1.367.32-.787 2.419.58 2.1 1.299-.303 2.628-.287 3.956-.288 1.403 0 1.403-2.177 0-2.177M658.083 95.368c-.882.028-1.731.309-2.614.327-1.402.03-1.404 2.207 0 2.177.884-.019 1.736-.3 2.614-.326 1.4-.043 1.404-2.22 0-2.178M670.82 96.021h-2.286c-1.404 0-1.404 2.178 0 2.178h2.286c1.404 0 1.404-2.178 0-2.178M685.742 96.497c-.903-.414-1.857-.475-2.837-.476-1.404 0-1.404 2.177 0 2.178.555 0 1.278-.032 1.737.178.54.247 1.168.159 1.49-.39.278-.474.149-1.243-.39-1.49M700.87 99.614h-1.634a1.1 1.1 0 0 0-1.089 1.089 1.1 1.1 0 0 0 1.09 1.09h1.633a1.1 1.1 0 0 0 1.088-1.09 1.1 1.1 0 0 0-1.088-1.089M710.485 104.08c-.14-.121-.29-.234-.437-.346l-.079-.062a2.297 2.297 0 0 1-.164-.146 1.102 1.102 0 0 0-1.54 0c-.414.414-.427 1.127 0 1.54.082.079.17.15.26.22.105.084.21.165.318.247l-.06-.046.108.087c.114.092.22.19.321.295.015.016.048.053.072.083.043.065.081.13.117.2.277.524.995.68 1.49.39.528-.309.668-.964.391-1.49a3.409 3.409 0 0 0-.797-.973M717.2 109.086c-.593-.02-1.088.512-1.088 1.089 0 .451.272.819.654.987a1.1 1.1 0 0 0 1.088 1.081c.585 0 1.099-.495 1.088-1.088-.01-.571-.169-1.06-.522-1.505-.292-.366-.763-.548-1.22-.564M580.02 104.514h-3.266c-1.405 0-1.405 2.177 0 2.177h3.266c1.405 0 1.405-2.177 0-2.177M595.371 104.187h-3.593c-1.403 0-1.403 2.177 0 2.177h3.593c1.404 0 1.404-2.177 0-2.177M611.086 103.9c-1.419.267-2.844.286-4.284.287-1.403 0-1.403 2.178 0 2.177 1.64 0 3.249-.06 4.863-.365 1.379-.26.793-2.359-.579-2.1M627.054 104.187h-2.613c-1.405 0-1.405 2.177 0 2.177h2.613c1.404 0 1.404-2.177 0-2.177M643.058 102.88h-3.594c-1.403 0-1.403 2.178 0 2.178h3.594c1.404 0 1.404-2.177 0-2.177M658.083 103.86h-2.94c-1.404 0-1.404 2.178 0 2.178h2.94c1.404 0 1.404-2.177 0-2.177M674.124 104.552c-.89.256-1.837-.05-2.687-.326-1.34-.436-1.909 1.666-.58 2.1 1.23.4 2.57.692 3.846.327 1.347-.387.774-2.489-.58-2.1M689.988 105.969c-.811-.378-1.622-.475-2.51-.476-.593 0-1.089.496-1.089 1.09a1.1 1.1 0 0 0 1.089 1.088c.486 0 .966-.029 1.41.178.538.25 1.17.157 1.49-.39.279-.476.147-1.24-.39-1.49M703.272 109.405c-.965-1.023-2.502.52-1.54 1.54.55.581.78 1.39 1.027 2.132.443 1.326 2.546.757 2.1-.579-.372-1.114-.765-2.223-1.587-3.093M564.669 116.598h-1.96c-.594 0-1.089.496-1.089 1.089 0 .594.495 1.09 1.09 1.09h1.959c.594 0 1.088-.496 1.088-1.09 0-.593-.494-1.089-1.088-1.089M585.9 115.945c-.64 0-1.462.095-2.064-.178-.54-.244-1.166-.16-1.49.39-.276.472-.15 1.246.392 1.49 1.006.456 2.073.475 3.161.475 1.405.001 1.404-2.176 0-2.177M604.086 115.767c-.902-.414-1.856-.475-2.836-.475-1.404 0-1.404 2.177 0 2.177.556.001 1.278-.032 1.737.178.54.248 1.168.16 1.49-.39.277-.473.149-1.243-.391-1.49M615.948 116.598h-1.633a1.1 1.1 0 0 0-1.089 1.089 1.1 1.1 0 0 0 1.09 1.09h1.632c.594 0 1.089-.496 1.089-1.09 0-.593-.495-1.089-1.089-1.089M631.3 115.618h-1.96a1.1 1.1 0 0 0-1.09 1.089 1.1 1.1 0 0 0 1.09 1.09h1.96c.593 0 1.088-.496 1.088-1.09 0-.593-.495-1.089-1.088-1.089M647.63 114.312h-2.612c-1.404 0-1.404 2.177 0 2.177h2.613c1.404 0 1.404-2.177 0-2.177M668.534 113.332h-2.613c-1.404 0-1.404 2.178 0 2.178h2.613c1.404 0 1.404-2.178 0-2.178M559.77 127.05h-1.96c-.593 0-1.089.495-1.089 1.089a1.1 1.1 0 0 0 1.09 1.089h1.958c.594 0 1.089-.496 1.089-1.089 0-.594-.495-1.089-1.089-1.089M574.794 126.07h-1.959a1.1 1.1 0 0 0-1.09 1.09c0 .593.496 1.088 1.09 1.088h1.96c.593 0 1.088-.495 1.088-1.089 0-.593-.495-1.089-1.089-1.089M590.799 126.397h-2.287c-1.404 0-1.404 2.177 0 2.177h2.287c1.403 0 1.403-2.177 0-2.177M610.396 125.09h-1.306a1.1 1.1 0 0 0-1.09 1.09c0 .593.496 1.088 1.09 1.088h1.306c.594 0 1.088-.495 1.088-1.089 0-.593-.494-1.088-1.088-1.088M621.827 123.784a1.1 1.1 0 0 0-1.088 1.088 1.1 1.1 0 0 0 1.088 1.09c.062 0 .122 0 .183.003l.033.009c.43.402 1.108.422 1.534-.005.411-.41.432-1.132 0-1.54-.496-.47-1.076-.644-1.75-.645M538.213 135.215h-1.96a1.1 1.1 0 0 0-1.089 1.09 1.1 1.1 0 0 0 1.09 1.089h1.96c.592 0 1.087-.496 1.087-1.09 0-.592-.495-1.089-1.088-1.089M569.65 135.18c-.609.19-1.56.352-2.1.11-.541-.242-1.166-.16-1.49.391-.275.47-.15 1.247.391 1.49 1.18.529 2.557.487 3.779.11 1.336-.414.766-2.516-.58-2.1M585.283 133.622c-1.095.26-2.182.287-3.303.287-1.404.001-1.404 2.178 0 2.178 1.313-.001 2.599-.062 3.882-.365 1.367-.325.787-2.425-.58-2.1M565.649 140.768c-.33.01-.66.063-.976.16-.116.036-.232.076-.349.113-.06.018-.12.034-.182.048l-.029.007a1.096 1.096 0 0 0-.097 0c-.593.017-1.089.482-1.089 1.088 0 .58.496 1.106 1.089 1.088.331-.009.659-.062.976-.16.116-.035.231-.076.348-.112.06-.017.12-.034.184-.047l.028-.007h.097c.594-.018 1.088-.483 1.088-1.089 0-.58-.494-1.106-1.088-1.089M576.754 140.441h-1.96a1.1 1.1 0 0 0-1.088 1.089 1.1 1.1 0 0 0 1.088 1.09h1.96c.594 0 1.088-.496 1.088-1.09a1.1 1.1 0 0 0-1.088-1.089"/>
            <path fill="#B5E8F7" d="M516.437 103.767c-.414-.426-1.145-.371-1.538.046-.421.446-.367 1.113.045 1.538.38.392.725.871.747 1.43.054 1.401 2.229 1.313 2.175-.091-.044-1.14-.654-2.125-1.43-2.923M519.45 117.02c-.279-.606-.266-1.297-.544-1.904-.247-.538-.742-.909-1.364-.715-.51.16-.962.822-.714 1.363.278.606.265 1.298.543 1.904.247.538.743.91 1.363.715.512-.16.964-.822.715-1.363M517.567 126.077c-.61-.141-1.13.249-1.305.815-.274.887-.298 1.818-.298 2.739-.001 1.403 2.173 1.31 2.174-.092 0-.743.023-1.442.244-2.157.177-.568-.27-1.18-.815-1.305M523.306 134.707c.015-.593-.57-1.064-1.133-1.041-.61.026-1.011.523-1.038 1.103-.009.05-.018.097-.03.146l-.024.079c-.126.31-.205.551-.221.894-.028.593.58 1.064 1.133 1.041.562-.024.925-.434 1.018-.941v-.002c-.005.052 0 .048.01-.017a.282.282 0 0 1 .008-.027l.04-.1c.148-.388.227-.713.237-1.135M523.142 125.472a1.826 1.826 0 0 1-.086-.402c-.025-.231-.022-.466-.022-.7 0-.592-.559-1.065-1.133-1.041-.61.026-1.042.541-1.042 1.133.001.774.11 1.459.437 2.163.25.539 1.042.632 1.5.346.548-.342.596-.962.346-1.499"/>
            <path fill="#FFF" d="M514.559 101.482a61.323 61.323 0 0 1-2.8-.528c-2.152-.442-4.38-.9-8.777-1.07-.997-.038-1.833.727-1.865 1.709a1.798 1.798 0 0 0 1.464 1.815c.091.018.186.023.28.032 5.557.503 6.082.566 8.182.998.904.185 1.839.378 2.96.556.985.157 1.909-.501 2.062-1.471.154-.97-.517-1.882-1.506-2.041M565.982 180.507c3.584 4.103 5.665 8.943 6.403 14.322.36 2.625 4.347 1.508 3.989-1.1-.836-6.083-3.439-11.534-7.467-16.147-1.755-2.008-4.67.927-2.925 2.925M634.8 180.603a4.59 4.59 0 0 1 1.854-1.035c1.275-.37.733-2.366-.55-1.994a6.91 6.91 0 0 0-2.766 1.567c-.983.902.483 2.361 1.462 1.462M644.892 176.736c1.028-.262 2.056-.526 3.085-.79 1.288-.328.742-2.324-.55-1.993l-3.085.79c-1.289.329-.742 2.323.55 1.993M654.656 174.44l2.058-.271c.553-.073 1.034-.424 1.034-1.034 0-.502-.477-1.108-1.034-1.034l-2.058.27c-.554.074-1.034.424-1.034 1.034 0 .503.476 1.108 1.034 1.034M665.475 173.46l4.124-.461c1.308-.146 1.323-2.215 0-2.068l-4.124.46c-1.309.147-1.324 2.217 0 2.069M675.242 172.865c.918.193 1.762.083 2.612-.306.507-.232.633-.967.37-1.415-.305-.522-.904-.604-1.414-.371a1.668 1.668 0 0 1-1.018.098c-.546-.115-1.119.16-1.273.722-.141.513.174 1.156.723 1.272M684.524 172.131c1.568.125 3.108.029 4.656-.244 1.309-.23.753-2.223-.55-1.994-1.362.24-2.73.281-4.106.17-1.327-.105-1.32 1.963 0 2.068M694.565 171.873c1.22.134 2.432.036 3.625-.253 1.293-.314.745-2.308-.55-1.995a8.785 8.785 0 0 1-3.075.18c-.557-.06-1.034.52-1.034 1.034 0 .61.475.974 1.034 1.034M705.89 171.376h3.347c1.33 0 1.332-2.068 0-2.068h-3.347c-1.33 0-1.333 2.068 0 2.068M611.652 160.118l1.562-.737c.505-.238.635-.963.371-1.414-.303-.518-.908-.61-1.415-.37l-1.562.735c-.505.239-.634.963-.37 1.415.302.518.908.61 1.414.37M619.147 157.684c.514-.174 1.027-.349 1.542-.522.529-.18.877-.712.722-1.273-.142-.515-.74-.901-1.272-.722l-1.542.522c-.53.18-.877.712-.722 1.272.142.516.74.902 1.272.723M626.896 155.692c.43-.17.86-.341 1.288-.513.519-.206.882-.69.723-1.271-.135-.494-.75-.93-1.272-.722-.43.171-.86.341-1.289.513-.518.206-.88.69-.722 1.271.136.494.75.93 1.272.722M634.322 153.61a5.281 5.281 0 0 0 2.585-.646c.492-.264.646-.945.371-1.414-.29-.498-.92-.637-1.415-.37-.486.26-.99.37-1.541.362-1.331-.018-1.332 2.05 0 2.068M643.59 151.81h.257c1.33 0 1.333-2.067 0-2.067h-.258c-1.33 0-1.332 2.068 0 2.068M654.684 148.706l1.544-.514c.53-.177.876-.713.723-1.273-.143-.517-.74-.899-1.272-.722l-1.545.515c-.53.176-.876.713-.722 1.272.142.517.74.9 1.272.722M664.956 146.651l2.832-.258c.556-.051 1.034-.44 1.034-1.034 0-.52-.475-1.085-1.034-1.035l-2.832.259c-.556.051-1.034.44-1.034 1.034 0 .52.474 1.085 1.034 1.034M676.27 146.863c.976.161 1.937.127 2.878-.2.526-.185.877-.709.722-1.272-.14-.512-.743-.907-1.273-.722-.575.2-1.169.301-1.777.2-.55-.09-1.113.145-1.272.723-.136.495.168 1.18.722 1.271M688.641 146.92h4.119c1.33 0 1.333-2.068 0-2.068h-4.119c-1.33 0-1.333 2.068 0 2.068M703.315 147.177l2.317-.257c.555-.062 1.034-.431 1.034-1.034 0-.512-.475-1.096-1.034-1.034l-2.317.257c-.555.062-1.034.43-1.034 1.034 0 .511.476 1.096 1.034 1.034M520.587 82.418c-1.174-.656-2.272-1.482-3.363-2.284-.937-.689-1.997-1.47-3.473-2.475-.689-.47-1.616-.216-2.072.566-.454.783-.265 1.798.423 2.268 1.435.977 2.473 1.742 3.391 2.417 1.06.78 2.124 1.558 3.247 2.232.804.483 1.557 1.518 2.58 1.485.121-.003.239-.025.351-.06.707-.227 1.195-1.047 1.072-1.88-.202-1.374-1.199-1.736-2.156-2.27"/>
            <path fill="#000" d="M520.986 34.607l-10.705 3.884a2.312 2.312 0 1 0 1.578 4.347l5.457-1.98-5.597 11.974a2.313 2.313 0 0 0 4.19 1.958l5.597-11.974 1.98 5.458a2.312 2.312 0 1 0 4.347-1.577l-3.884-10.705a2.312 2.312 0 0 0-2.963-1.385"/>
            <path fill="#FF7900" d="M532.969 47.292l10.705-3.885a2.311 2.311 0 1 0-1.578-4.346l-5.457 1.98 5.597-11.975a2.312 2.312 0 0 0-4.189-1.958l-5.598 11.975-1.98-5.458a2.313 2.313 0 0 0-4.347 1.578l3.885 10.705a2.313 2.313 0 0 0 2.962 1.384"/>
            <path fill="#000" d="M551.613 30.247l4.765-2.773c2.3-1.339.22-4.915-2.088-3.571l-4.764 2.772c-2.3 1.338-.22 4.915 2.087 3.572M541.947 17.949l.842-3.747c.244-1.088-.332-2.237-1.445-2.544-1.038-.285-2.297.35-2.544 1.445l-.84 3.746c-.246 1.089.33 2.238 1.443 2.544 1.04.285 2.298-.35 2.544-1.444M523.202 17.897l-1.98-3.032c-.59-.905-1.858-1.368-2.828-.742-.904.582-1.376 1.86-.743 2.83l1.98 3.03c.59.906 1.859 1.37 2.83.743.903-.582 1.374-1.86.741-2.83"/>
        </g>
    </g>
</svg>
