<svg xmlns="http://www.w3.org/2000/svg" width="16" height="13" viewBox="0 0 16 13">
    <path fill="#FFF" fill-rule="evenodd" d="M7.906 4H8c.542 0 1.01.198 1.406.594C9.802 4.99 10 5.458 10 6v.125L7.906 4zm-2.875.531c-.25.5-.375.99-.375 1.469 0 .917.328 1.703.985 2.36.656.656 1.442.984 2.359.984.48 0 .969-.125 1.469-.375L8.438 7.938A1.836 1.836 0 0 1 8 8c-.542 0-1.01-.198-1.406-.594A1.922 1.922 0 0 1 6 6c0-.125.02-.27.063-.438L5.03 4.532zM1.344.844L2.187 0 14 11.813l-.844.843a238.58 238.58 0 0 0-.984-.969c-.552-.541-.974-.958-1.266-1.25A7.45 7.45 0 0 1 8 11c-1.646 0-3.135-.458-4.469-1.375A7.688 7.688 0 0 1 .656 6c.521-1.292 1.354-2.396 2.5-3.313-.25-.25-.599-.604-1.047-1.062L1.344.844zM8 2.656c-.417 0-.823.084-1.219.25L5.344 1.47C6.156 1.156 7.042 1 8 1c1.646 0 3.13.458 4.453 1.375A7.72 7.72 0 0 1 15.313 6a8.148 8.148 0 0 1-2.282 3.156L11.094 7.22c.166-.396.25-.802.25-1.219 0-.917-.328-1.703-.985-2.36-.656-.656-1.442-.984-2.359-.984z"/>
</svg>
