<svg xmlns="http://www.w3.org/2000/svg" width="20" height="17" viewBox="0 0 20 17">
    <path fill="#FFF" fill-rule="evenodd" d="M9.883 5.5H10c.677 0 1.263.247 1.758.742.495.495.742 1.08.742 1.758v.156L9.883 5.5zm-3.594.664C5.977 6.79 5.82 7.401 5.82 8c0 1.146.41 2.129 1.23 2.95.821.82 1.804 1.23 2.95 1.23.599 0 1.21-.157 1.836-.47l-1.29-1.288c-.207.052-.39.078-.546.078-.677 0-1.263-.247-1.758-.742C7.747 9.263 7.5 8.678 7.5 8c0-.156.026-.339.078-.547L6.29 6.164zm-4.61-4.61L2.735.5 17.5 15.266l-1.055 1.054c-.13-.13-.54-.534-1.23-1.21-.69-.678-1.218-1.199-1.582-1.563-1.12.469-2.33.703-3.633.703-2.057 0-3.92-.573-5.586-1.719A9.61 9.61 0 0 1 .82 8c.651-1.615 1.693-2.995 3.125-4.14A173.3 173.3 0 0 1 2.637 2.53c-.56-.573-.88-.898-.957-.976zM10 3.82a3.89 3.89 0 0 0-1.523.313L6.68 2.336c1.015-.39 2.122-.586 3.32-.586 2.057 0 3.913.573 5.566 1.719A9.65 9.65 0 0 1 19.141 8a10.184 10.184 0 0 1-2.852 3.945l-2.422-2.422A3.89 3.89 0 0 0 14.18 8c0-1.146-.41-2.129-1.23-2.95-.821-.82-1.804-1.23-2.95-1.23z"/>
</svg>
