<svg xmlns="http://www.w3.org/2000/svg" width="24" height="24" viewBox="0 0 24 24">
    <g fill="none" fill-rule="evenodd">
        <path fill="#FF7900" d="M0 0h24v24H0z"/>
        <path fill="#FFF" fill-rule="nonzero" d="M11.86 9H12c.813 0 1.516.297 2.11.89.593.594.89 1.297.89 2.11v.188L11.86 9zm-4.313.797c-.375.75-.563 1.484-.563 2.203 0 1.375.493 2.555 1.477 3.54.984.983 2.164 1.476 3.539 1.476.719 0 1.453-.188 2.203-.563l-1.547-1.547c-.25.063-.468.094-.656.094-.813 0-1.516-.297-2.11-.89C9.298 13.515 9 12.812 9 12c0-.188.031-.406.094-.656L7.547 9.797zM2.016 4.266L3.28 3 21 20.719l-1.266 1.265c-.156-.156-.648-.64-1.476-1.453-.828-.812-1.461-1.437-1.899-1.875-1.343.563-2.796.844-4.359.844-2.469 0-4.703-.687-6.703-2.063-2-1.375-3.438-3.187-4.313-5.437.782-1.938 2.032-3.594 3.75-4.969-.375-.375-.898-.906-1.57-1.593a286.984 286.984 0 0 0-1.148-1.172zM12 6.984c-.625 0-1.234.125-1.828.375L8.016 5.203C9.234 4.734 10.562 4.5 12 4.5c2.469 0 4.695.687 6.68 2.063A11.58 11.58 0 0 1 22.969 12a12.221 12.221 0 0 1-3.422 4.734l-2.906-2.906c.25-.594.375-1.203.375-1.828 0-1.375-.493-2.555-1.477-3.54-.984-.983-2.164-1.476-3.539-1.476z"/>
    </g>
</svg>
