<svg xmlns="http://www.w3.org/2000/svg" width="15" height="14" viewBox="0 0 15 14">
    <g fill="none" fill-rule="evenodd">
        <path fill="#FC0" d="M.504 6.93a7 7 0 1 0 14 0 7 7 0 0 0-14 0z"/>
        <path fill="#000" d="M6.966 7.615L6.79 4.962c-.033-.516-.05-.887-.05-1.113 0-.306.08-.545.241-.717a.828.828 0 0 1 .634-.257c.318 0 .53.11.637.33.107.22.16.536.16.949 0 .244-.012.491-.038.742l-.238 2.73c-.026.325-.082.574-.166.747a.435.435 0 0 1-.421.26c-.2 0-.338-.083-.416-.251-.077-.168-.132-.424-.166-.767zm.615 3.643a.871.871 0 0 1-.59-.219c-.168-.145-.252-.35-.252-.611 0-.23.08-.424.241-.585.16-.16.357-.24.59-.24a.82.82 0 0 1 .595.24c.164.161.247.356.247.585 0 .258-.084.461-.25.609a.848.848 0 0 1-.581.221z"/>
    </g>
</svg>
