<svg xmlns="http://www.w3.org/2000/svg" xmlns:xlink="http://www.w3.org/1999/xlink" width="341" height="338" viewBox="0 0 341 338">
    <defs>
        <path id="a" d="M.487.336h177.956v153.736H.482z"/>
        <path id="c" d="M.184.033H81.57V68.53H.184z"/>
        <path id="e" d="M.02.43H75.6v85.813H.024z"/>
        <path id="g" d="M1.124 1.223h3.79v4.111h-3.79z"/>
        <path id="i" d="M2.153 1.36h2.015V4.71H2.153z"/>
        <path id="k" d="M1.072 2.162H4.73v2.02H1.072z"/>
        <path id="m" d="M0 0h118.567v119.491H0z"/>
    </defs>
    <g fill="none" fill-rule="evenodd">
        <path fill="#FFF" fill-rule="nonzero" d="M74.025.424C78.776 4.36 84.063 7.554 89 11.226c1.88 1.397-.469 4.157-2.335 2.775-4.943-3.672-10.23-6.87-14.976-10.802-1.804-1.493.536-4.264 2.335-2.77m-21.12 29.138c7.608 2.13 14.641 5.526 21.197 9.94 1.933 1.3-.426 4.065-2.345 2.774a67.587 67.587 0 0 0-19.478-9.134c-2.225-.627-1.618-4.211.626-3.58m-13.579 27.13c7.168 1.324 13.981 3.95 20.972 5.954 2.215.64 1.607 4.225-.632 3.584-6.985-2.009-13.804-4.63-20.971-5.954-2.287-.424-1.66-4.009.631-3.585m-7.98 23.699l18.626 3.324c2.311.41 1.68 3.99-.631 3.58l-18.627-3.324c-2.306-.41-1.675-3.994.632-3.58m4.2 34.25c4.632-1.354 9.379-2.13 14.144-2.838 2.316-.342 2.632 3.281.34 3.623-4.455.66-8.9 1.363-13.23 2.626-2.234.65-3.493-2.76-1.253-3.411m-3.22 28.993c5.937-2.298 11.674-5.078 17.612-7.37 2.182-.849 3.13 2.668.971 3.502-5.933 2.293-11.674 5.078-17.612 7.37-2.182.844-3.125-2.673-.972-3.502m11.302 29.336c4.89-2.168 9.751-4.476 14.163-7.53 1.923-1.325 3.995 1.652 2.071 2.987-4.655 3.223-9.818 5.67-14.98 7.959-2.14.944-3.374-2.476-1.254-3.416"/>
        <g transform="translate(1.888 182.218)">
            <mask id="b" fill="#fff">
                <use xlink:href="#a"/>
            </mask>
            <path fill="#724F47" d="M177.754 62.436c1.18-1.475.554-6.512.222-8.348-.222-1.226-3.143-3.5-3.827-5.105-1.215-2.86-1.654-6.008-2.507-8.988-2.771-9.733-6.44-21.596-12.725-30.723-2.313-3.365-4.979-6.345-8.098-8.714-2.005-1.534-6.121 5.59-7.336 6.45-5.379 3.83-7.196 2.105-13.621 3.076-18.678 2.802-27.956 16.111-38.045 30.339-4.902 6.911-52.085 41.11-91.33 69.92l46.966 59.725c33.427-29.435 61.77-62.94 96.908-90.357 3.99-3.11 30.366-13.482 33.393-17.27" mask="url(#b)"/>
        </g>
        <path fill="#F5B596" fill-rule="nonzero" d="M170.887 242.642c.544-.173 1.06-.365 1.57-.558.418-.36.836-.74 1.264-1.14l-2.834 1.698zm-17.937-49.766a40.934 40.934 0 0 0 1.94-.703 52.94 52.94 0 0 0 1.53-1.458l-3.47 2.165v-.004z"/>
        <path fill="#DFA289" d="M129.776 210.8l1.973.462a9.871 9.871 0 0 0-1.624-.496 2.45 2.45 0 0 0-.35.033"/>
        <g transform="translate(1.888 267.19)">
            <mask id="d" fill="#fff">
                <use xlink:href="#c"/>
            </mask>
            <path fill="#492191" d="M76.39 51.185c-5.547-21.876-24-24.746-35.934-42.015L35.416.24C18.574-2.01-9.281 15.04-18.794 21.35l42.47 102.852c18.535-14.767 30.518-27.33 46.496-44.076C88.46 60.958 80.15 66 76.39 51.185" mask="url(#d)"/>
        </g>
        <g transform="translate(23.603 250.196)">
            <mask id="f" fill="#fff">
                <use xlink:href="#e"/>
            </mask>
            <path fill="#111425" d="M68.767 58.447c-4.853-5.694-9.324-11.562-13.838-17.54-4.553-6.018-8.865-12.224-13.365-18.275-3.401-4.584-7.727-8.792-10.824-13.54-2.24-3.432-3.547-6.805-7.887-8.33C16.127-1.602 3.18 9.212.692 15.133c-2.923 6.963 4.374 14.564 7.713 19.737a342.269 342.269 0 0 0 29.598 39.183c4.268 4.889 11.12 16.648 19.302 15.625 7.383-.926 15.483-9.617 17.748-16.213 2.182-6.336-2.589-10.675-6.29-15.018" mask="url(#f)"/>
        </g>
        <g transform="translate(.944 282.296)">
            <mask id="h" fill="#fff">
                <use xlink:href="#g"/>
            </mask>
            <path fill="#F1F2F2" d="M3.366 1.298c-1.26.472-2.327 1.204-3.375 2.02-1.143.898.245 2.668 1.392 1.77.902-.707 1.766-1.311 2.851-1.713 1.36-.51.487-2.582-.868-2.077" mask="url(#h)"/>
        </g>
        <path fill="#F1F2F2" d="M16.006 280.076c-.08-.566-.67-1.104-1.27-.963-1.133.265-2.04.831-2.946 1.54-1.142.896.246 2.667 1.388 1.77.567-.444 1.147-.912 1.865-1.081.595-.142 1.048-.614.963-1.266"/>
        <g transform="translate(0 291.737)">
            <mask id="j" fill="#fff">
                <use xlink:href="#i"/>
            </mask>
            <path fill="#F1F2F2" d="M3.824 1.79c-.553-.482-1.605-.567-2.304-.19L-.543 2.71c-.703.377-.83 1.095-.278 1.576.552.487 1.6.572 2.303.19L3.541 3.37c.708-.383.835-1.1.283-1.577" mask="url(#j)"/>
        </g>
        <path fill="#F1F2F2" fill-rule="nonzero" d="M14.218 286.552l-2.905 2.278c-1.172.922.251 2.74 1.423 1.823l2.905-2.283c1.172-.921-.252-2.74-1.423-1.818m.88 8.993a1.16 1.16 0 0 0-1.616-.194l-1.453 1.139a1.164 1.164 0 0 0-.193 1.624 1.16 1.16 0 0 0 1.617.194l1.452-1.14c.498-.396.584-1.12.194-1.623m8.269-8.542l-1.816 1.425c-1.171.921.252 2.74 1.424 1.818l1.82-1.425c1.167-.921-.256-2.74-1.428-1.818m.552-4.543c.513-.363.566-1.148.193-1.624-.377-.484-1.016-.543-1.515-.252a.988.988 0 0 0-.039.015l-.067.024-.296.063a2.787 2.787 0 0 0-1.075.446c-.518.364-.57 1.15-.193 1.624.373.485 1.012.543 1.515.257l.039-.02.063-.024.3-.063a2.787 2.787 0 0 0 1.075-.446M6.365 307.984l-1.816 1.425c-1.172.921.252 2.74 1.423 1.818l1.816-1.425c1.172-.921-.252-2.739-1.423-1.818m11.639-6.491a1.16 1.16 0 0 0-1.622-.194l-1.09.853a1.164 1.164 0 0 0-.193 1.624 1.16 1.16 0 0 0 1.617.194l1.09-.853c.497-.397.583-1.121.193-1.624m10.046-6.845l.01-.068.01-.03.019-.043.038-.058.03-.034.028-.024c.073-.068.155-.131.238-.194.494-.397.58-1.117.193-1.62a1.16 1.16 0 0 0-1.617-.198 3.016 3.016 0 0 0-1.24 1.988 1.163 1.163 0 0 0 1.008 1.29c.63.068 1.2-.38 1.283-1.01m-16.8 19.198a1.16 1.16 0 0 0-1.617-.199l-1.453 1.14c-.499.395-.587 1.12-.198 1.624a1.16 1.16 0 0 0 1.622.193l1.452-1.139c.495-.396.581-1.117.194-1.619m9.121-7.456l-1.815 1.425c-1.172.921.251 2.74 1.423 1.818l1.816-1.425c1.171-.921-.252-2.739-1.424-1.818m9.252-5.793c-.92-1.173-2.735.252-1.82 1.425.92 1.173 2.735-.252 1.82-1.425M7.575 327.879a1.16 1.16 0 0 0-1.617-.194c-.08.064-.16.127-.242.19l-.29.193c-.092.05-.186.095-.281.136-.015 0-.02 0-.03.01-.096.005-.26-.005-.048.01a1.172 1.172 0 0 0-1.283 1.008c-.072.606.383 1.24 1.007 1.285.998.077 1.83-.417 2.59-1.014.498-.397.584-1.12.194-1.624m20.446-13.307l.067.01c.63.053 1.21-.373 1.288-1.008a1.163 1.163 0 0 0-1.007-1.29 3.009 3.009 0 0 0-2.227.727 1.164 1.164 0 0 0-.194 1.624 1.16 1.16 0 0 0 1.617.194 6.41 6.41 0 0 1 .3-.208c.052-.018.104-.034.156-.049m-9.102 6.327c-.083-.577-.693-1.14-1.308-.99-1.438.35-2.59 1.251-3.742 2.153-1.172.921.252 2.734 1.423 1.818.775-.61 1.646-1.44 2.639-1.682.61-.146 1.075-.63.988-1.3m15.497-13.791l-1.815 1.425c-1.167.92.256 2.734 1.428 1.818l1.815-1.425c1.172-.922-.251-2.74-1.423-1.818m-20.436 24.84l-2.542 1.997c-1.171.921.252 2.739 1.424 1.818l2.542-1.997c1.171-.921-.252-2.735-1.424-1.818m11.184-8.188c-.288.231-.585.451-.89.66-.081.03-.16.067-.233.11-.073.04-.218.049-.126.049-.63-.034-1.21.359-1.283 1.013-.073.596.377 1.246 1.007 1.285 1.162.073 2.077-.616 2.953-1.3 1.167-.92-.256-2.738-1.428-1.817m12.723-7.345a1.16 1.16 0 0 0-1.617-.198l-1.452 1.139c-.5.395-.588 1.12-.199 1.624a1.16 1.16 0 0 0 1.622.194l1.453-1.14c.497-.396.584-1.12.193-1.623m8.202-5.26c-.92-1.174-2.736.252-1.82 1.425.92 1.173 2.735-.252 1.82-1.425m3.752 7.039a1.16 1.16 0 0 0-1.622-.194l-1.09.853a1.164 1.164 0 0 0-.193 1.624 1.16 1.16 0 0 0 1.617.194l1.09-.853c.497-.397.584-1.121.193-1.624m-7.533 7.974c1.142-.95-.281-2.773-1.428-1.818-.843.698-1.419 1.663-2.257 2.361-1.142.95.276 2.768 1.424 1.818.842-.703 1.418-1.663 2.256-2.36m-10.87 5.594l-2.904 2.278c-1.172.921.252 2.744 1.423 1.823l2.905-2.279c1.172-.92-.252-2.739-1.423-1.822m18.426-.073a1.16 1.16 0 0 0-1.621-.194l-1.627 1.275a1.164 1.164 0 0 0-.194 1.62 1.16 1.16 0 0 0 1.617.193l1.627-1.27c.498-.397.584-1.121.194-1.624m5.412-3.951c.514-.364.567-1.144.194-1.624-.378-.485-1.017-.543-1.515-.252l-.04.014-.067.025-.295.063a2.777 2.777 0 0 0-1.075.446c-.518.363-.571 1.149-.198 1.624.377.484 1.016.547 1.515.257l.039-.02a1.15 1.15 0 0 0 .067-.024l.296-.063c.387-.07.755-.222 1.08-.446"/>
        <g transform="translate(52.872 332.335)">
            <mask id="l" fill="#fff">
                <use xlink:href="#k"/>
            </mask>
            <path fill="#F1F2F2" d="M4.494 2.592a1.133 1.133 0 0 0-1.577-.19l-1.416 1.11a1.133 1.133 0 0 0-.189 1.577 1.133 1.133 0 0 0 1.577.189l1.416-1.11c.48-.385.563-1.083.19-1.572" mask="url(#l)"/>
        </g>
        <path fill="#F1F2F2" fill-rule="nonzero" d="M29.697 266.899c.12-.106.244-.212.373-.314.49-.394.574-1.11.192-1.61a1.144 1.144 0 0 0-1.6-.197c-.335.265-.67.55-.929.892a1.613 1.613 0 0 0-.062 1.932c.35.52 1.14.564 1.604.193.275-.213.432-.547.422-.896m5.477-5.123c.397-.776 1.211-1.34 1.877-1.865 1.159-.915-.25-2.722-1.408-1.807-1.02.805-1.987 1.653-2.59 2.824-.287.56.105 1.282.642 1.494.622.246 1.197-.092 1.484-.646m7.737-7.368a1.144 1.144 0 0 0-1.604-.193l-1.077.849a1.162 1.162 0 0 0-.192 1.614 1.144 1.144 0 0 0 1.6.193l1.077-.849a1.162 1.162 0 0 0 .191-1.614M32.363 271.94l.01-.067.01-.03a.76.76 0 0 0 .019-.043l.038-.057.029-.034.024-.024.24-.193c.488-.394.574-1.11.19-1.61a1.144 1.144 0 0 0-1.599-.197 3 3 0 0 0-1.225 1.976c-.074.63.37 1.201.996 1.281a1.155 1.155 0 0 0 1.268-1.002m7.254-6.433c.23-.222.484-.414.738-.612a1.162 1.162 0 0 0 .191-1.614 1.144 1.144 0 0 0-1.6-.193c-.971.766-2.192 1.773-1.35 3.108.336.53 1.15.554 1.6.193.274-.208.43-.537.421-.882m9.476-8.38a1.144 1.144 0 0 0-1.604-.198c-.08.064-.16.127-.24.188-.043.03-.263.174-.282.193-.092.05-.186.095-.283.135l-.028.01c-.091.004-.259-.005-.048.01-.618-.049-1.188.36-1.264 1.002-.072.602.373 1.233.99 1.281.987.073 1.815-.419 2.562-1.012.49-.394.575-1.11.192-1.609m3.14 3.653l-1.795 1.416c-1.158.916.25 2.723 1.408 1.807l1.795-1.416c1.16-.916-.248-2.723-1.407-1.807m-5.583 5.864a1.144 1.144 0 0 0-1.604-.193l-1.436 1.133a1.162 1.162 0 0 0-.192 1.61 1.144 1.144 0 0 0 1.6.192l1.436-1.132c.49-.393.578-1.11.196-1.61m-6.708 4.42l-1.8 1.416c-1.159.915.254 2.723 1.412 1.807l1.796-1.417c1.158-.915-.25-2.722-1.408-1.807m-3.586 5.45a1.144 1.144 0 0 0-1.6-.193l-1.436 1.133a1.162 1.162 0 0 0-.191 1.614 1.144 1.144 0 0 0 1.599.193l1.436-1.132a1.162 1.162 0 0 0 .192-1.615m2.46 3.899a1.144 1.144 0 0 0-1.603-.193l-1.437 1.132a1.162 1.162 0 0 0-.191 1.615 1.144 1.144 0 0 0 1.6.192l1.436-1.132a1.162 1.162 0 0 0 .191-1.614m7.11-5.022a1.144 1.144 0 0 0-1.604-.192l-1.436 1.132a1.162 1.162 0 0 0-.192 1.61 1.144 1.144 0 0 0 1.6.192l1.436-1.127a1.162 1.162 0 0 0 .196-1.615m7.11-5.026a1.144 1.144 0 0 0-1.604-.192l-1.436 1.132a1.162 1.162 0 0 0-.191 1.614 1.144 1.144 0 0 0 1.599.193l1.436-1.132a1.162 1.162 0 0 0 .192-1.615m3.955-3.117a1.144 1.144 0 0 0-1.604-.193l-.36.284a1.162 1.162 0 0 0-.191 1.61 1.144 1.144 0 0 0 1.6.192l.358-.28a1.162 1.162 0 0 0 .192-1.613m1.498 3.782l-1.795 1.417c-1.159.916.249 2.723 1.408 1.807l1.795-1.417c1.159-.915-.249-2.722-1.408-1.807m-6.11 4.82l-2.154 1.7c-1.154.916.254 2.723 1.413 1.807l2.154-1.7c1.159-.916-.249-2.723-1.407-1.808m-7.388 4.665l-1.8 1.417c-1.154.915.253 2.717 1.412 1.807l1.795-1.417c1.16-.916-.253-2.723-1.407-1.807m-4.587 5.657a1.144 1.144 0 0 0-1.6-.193l-.358.28a1.162 1.162 0 0 0-.192 1.614 1.144 1.144 0 0 0 1.6.193l.358-.28a1.162 1.162 0 0 0 .192-1.614m1.858 3.499l-2.155 1.7c-1.159.916.249 2.723 1.408 1.808l2.154-1.701c1.159-.916-.249-2.723-1.407-1.807m8.35-4.544a1.144 1.144 0 0 0-1.604-.193l-1.436 1.127a1.162 1.162 0 0 0-.192 1.615 1.144 1.144 0 0 0 1.6.192l1.436-1.132a1.162 1.162 0 0 0 .191-1.614m8.47-5.513a1.144 1.144 0 0 0-1.6-.193l-1.436 1.133a1.162 1.162 0 0 0-.196 1.614 1.144 1.144 0 0 0 1.604.193l1.437-1.133a1.162 1.162 0 0 0 .191-1.614M64.381 276a1.144 1.144 0 0 0-1.604-.192l-.718.563a1.162 1.162 0 0 0-.192 1.615 1.144 1.144 0 0 0 1.6.193l.717-.564a1.162 1.162 0 0 0 .192-1.615m3.586 5.345a1.144 1.144 0 0 0-1.604-.193l-.718.564a1.162 1.162 0 0 0-.192 1.614 1.144 1.144 0 0 0 1.604.193l.719-.564a1.162 1.162 0 0 0 .191-1.614m-6.67 4.096a1.144 1.144 0 0 0-1.603-.193l-1.437 1.132a1.162 1.162 0 0 0-.191 1.615 1.144 1.144 0 0 0 1.599.192l1.436-1.132a1.162 1.162 0 0 0 .192-1.614m-7.742 4.949a1.144 1.144 0 0 0-1.604-.193l-.36.28a1.162 1.162 0 0 0-.191 1.609c.39.494 1.102.582 1.6.197l.358-.284c.49-.394.575-1.11.192-1.61m-7.106 5.022a1.144 1.144 0 0 0-1.599-.193l-.718.564a1.162 1.162 0 0 0-.196 1.614 1.144 1.144 0 0 0 1.604.193l.718-.564a1.162 1.162 0 0 0 .191-1.614m5.018 4.207a1.144 1.144 0 0 0-1.599-.193l-1.436 1.132a1.162 1.162 0 0 0-.192 1.615 1.144 1.144 0 0 0 1.6.192l1.436-1.132a1.162 1.162 0 0 0 .191-1.614m6.751-4.737a1.144 1.144 0 0 0-1.604-.193l-1.436 1.128a1.162 1.162 0 0 0-.192 1.614 1.144 1.144 0 0 0 1.6.193l1.436-1.133c.49-.394.574-1.11.191-1.61m6.9-3.368c.23-.221.488-.414.737-.612a1.162 1.162 0 0 0 .192-1.614 1.144 1.144 0 0 0-1.6-.193c-.971.766-2.192 1.774-1.35 3.108.336.53 1.15.555 1.604.193.273-.208.429-.537.417-.882m6.885-5.753a1.144 1.144 0 0 0-1.604-.193l-.718.564a1.162 1.162 0 0 0-.192 1.614 1.144 1.144 0 0 0 1.6.193l.718-.564a1.162 1.162 0 0 0 .191-1.614m4.022 4.418a1.144 1.144 0 0 0-1.599-.192l-.718.564a1.162 1.162 0 0 0-.192 1.609 1.144 1.144 0 0 0 1.6.193l.718-.564c.489-.394.574-1.11.191-1.61m-7.708 4.622l-1.796 1.417c-1.159.915.249 2.722 1.408 1.807l1.795-1.417c1.159-.916-.249-2.723-1.407-1.807m-4.865 5.296a1.144 1.144 0 0 0-1.6-.193l-1.436 1.132a1.162 1.162 0 0 0-.196 1.615 1.144 1.144 0 0 0 1.604.192l1.436-1.132a1.162 1.162 0 0 0 .192-1.614m-7.105 5.026a1.144 1.144 0 0 0-1.604-.193l-1.437 1.132a1.162 1.162 0 0 0-.191 1.61c.39.494 1.102.582 1.599.197l1.436-1.132a1.162 1.162 0 0 0 .192-1.614m.948 5.676a1.144 1.144 0 0 0-1.604-.192l-1.437 1.132a1.162 1.162 0 0 0-.191 1.614 1.144 1.144 0 0 0 1.6.193l1.435-1.132a1.162 1.162 0 0 0 .192-1.615m7.828-5.59a1.144 1.144 0 0 0-1.599-.192l-1.436 1.132a1.162 1.162 0 0 0-.197 1.61 1.144 1.144 0 0 0 1.6.192l1.436-1.127a1.162 1.162 0 0 0 .196-1.615m7.47-5.305a1.144 1.144 0 0 0-1.604-.198l-1.078.853a1.162 1.162 0 0 0-.191 1.61 1.144 1.144 0 0 0 1.599.193l1.077-.849c.49-.394.575-1.11.192-1.61m4.673-3.685c-.91-1.167-2.705.25-1.796 1.416.91 1.166 2.706-.25 1.796-1.416m-16.02 19.646a1.144 1.144 0 0 0-1.6-.198l-1.082.849a1.162 1.162 0 0 0-.191 1.614 1.144 1.144 0 0 0 1.603.193l1.078-.849c.489-.394.574-1.11.191-1.609m6.033-4.178a1.144 1.144 0 0 0-1.604-.193l-1.077.848a1.162 1.162 0 0 0-.192 1.615 1.144 1.144 0 0 0 1.6.192l1.077-.848a1.162 1.162 0 0 0 .191-1.614m7.187-5.667a1.144 1.144 0 0 0-1.599-.193l-.718.564a1.162 1.162 0 0 0-.197 1.614 1.144 1.144 0 0 0 1.604.193l.719-.564a1.162 1.162 0 0 0 .191-1.614m4.908-2.838l.005-.068.014-.029.014-.043.043-.058.024-.029.03-.029.239-.192c.489-.395.574-1.11.191-1.61a1.144 1.144 0 0 0-1.604-.193 2.995 2.995 0 0 0-1.226 1.976c-.07.628.373 1.197.996 1.277a1.155 1.155 0 0 0 1.274-1.002m6.464 2.915c.507-.405.943-.964.656-1.662-.316-.752-1.102-.815-1.753-.56a6.895 6.895 0 0 0-1.67.902 1.162 1.162 0 0 0-.192 1.614c.383.496 1.1.574 1.599.193.037-.027.076-.053.115-.077l.024-.015.325-.178c.316.06.642-.02.896-.217m-5.554 2.92a1.144 1.144 0 0 0-1.604-.192l-1.437 1.132a1.162 1.162 0 0 0-.191 1.614 1.144 1.144 0 0 0 1.604.193l1.436-1.132a1.162 1.162 0 0 0 .192-1.615m-6.66 6.718c.478-.376.598-1.137.191-1.614-.36-.425-.895-.709-1.465-.584a2.77 2.77 0 0 0-1.135.593 1.162 1.162 0 0 0-.191 1.614 1.144 1.144 0 0 0 1.599.193l.014-.005c.341.096.708.023.986-.197m-6.995 4.057a1.144 1.144 0 0 0-1.599-.192l-.36.28a1.162 1.162 0 0 0-.19 1.609c.39.493 1.101.581 1.599.197l.359-.284c.489-.394.574-1.11.191-1.61m3.946 5.06a1.144 1.144 0 0 0-1.6-.193l-1.077.848a1.162 1.162 0 0 0-.191 1.61c.39.494 1.101.582 1.599.198l1.077-.849a1.162 1.162 0 0 0 .192-1.614m6.75-4.742a1.144 1.144 0 0 0-1.603-.192l-1.078.848a1.162 1.162 0 0 0-.191 1.614 1.144 1.144 0 0 0 1.599.193l1.077-.848a1.162 1.162 0 0 0 .192-1.615m6.392-4.457c-.91-1.166-2.705.25-1.796 1.417.91 1.166 2.705-.25 1.796-1.417m5.468-4.896a1.144 1.144 0 0 0-1.604-.193l-1.437 1.133a1.162 1.162 0 0 0-.191 1.61c.39.493 1.102.581 1.599.197l1.436-1.133a1.162 1.162 0 0 0 .192-1.614m-15.46 19.781l.08-.033a.681.681 0 0 0 .049-.015l.086-.02c.608-.134 1.068-.635.977-1.295-.077-.579-.68-1.114-1.284-.979a3.474 3.474 0 0 0-1.953 1.036c-.603.66-.421 1.644.053 2.304.364.506 1.125.568 1.604.193.355-.283.508-.751.387-1.19m8.35-6.578a1.144 1.144 0 0 0-1.603-.193l-1.437 1.132a1.162 1.162 0 0 0-.191 1.61 1.144 1.144 0 0 0 1.599.193l1.436-1.128a1.162 1.162 0 0 0 .192-1.614m8.187-5.875a1.144 1.144 0 0 0-1.599-.192l-1.436 1.132a1.162 1.162 0 0 0-.197 1.61 1.144 1.144 0 0 0 1.604.192l1.437-1.127a1.162 1.162 0 0 0 .191-1.615m-10.744 16.36c.508-.361.56-1.142.192-1.614-.374-.482-1.006-.54-1.499-.25l-.038.014a.577.577 0 0 0-.067.024l-.292.063c-.382.07-.744.222-1.063.443-.513.361-.565 1.142-.192 1.614.369.482 1 .545 1.494.256l.038-.02a.849.849 0 0 0 .067-.024l.297-.062a2.753 2.753 0 0 0 1.063-.444m7.862-5.912a1.144 1.144 0 0 0-1.6-.193l-1.436 1.132a1.162 1.162 0 0 0-.196 1.61 1.144 1.144 0 0 0 1.604.193l1.436-1.128a1.162 1.162 0 0 0 .192-1.614m6.65-6.703l.01-.01a1.162 1.162 0 0 0 .192-1.614 1.144 1.144 0 0 0-1.6-.193c-.253.198-.536.42-.699.704-.188.302-.28.655-.263 1.011.03.3.147.585.335.82.364.51 1.125.573 1.6.197.279-.219.437-.559.426-.915"/>
        <path fill="#EF6351" d="M143.044 183.297c-16.687 16.72-4.603 23.443 11.067 8.794-.62.241-1.24.483-1.908.705l3.41-2.167c-.505.511-1.006.999-1.502 1.462 23.027-9.17 13.047-32.965-11.067-8.794"/>
        <path fill="#FFF" fill-rule="nonzero" d="M299.15 261.044c-2.61-6.42-6.347-12.258-9.55-18.377-1.015-1.941-4.184-.68-3.16 1.286 3.203 6.114 6.935 11.957 9.547 18.377.836 2.053 4 .767 3.164-1.286m-20.237 11.943l-6.632-16.597c-.817-2.062-3.986-.776-3.164 1.281l6.637 16.597c.817 2.062 3.982.776 3.16-1.281m-32.193 2.897c.337-4.586.125-9.162-.154-13.738-.135-2.223-3.525-1.815-3.39.388.26 4.285.485 8.56.168 12.845-.164 2.208 3.212 2.718 3.376.505m-27.33 5.998c1.409-5.785 3.29-11.443 4.698-17.232.52-2.126-2.808-2.597-3.318-.495-1.41 5.789-3.29 11.447-4.698 17.237-.52 2.12 2.808 2.591 3.318.49m-28.162-7.09c1.409-4.795 2.957-9.584 5.242-14.044.995-1.941-1.972-3.518-2.968-1.577-2.414 4.707-4.054 9.793-5.545 14.854-.615 2.101 2.655 2.849 3.27.767"/>
        <path fill="#01E675" d="M284.527 198.298c5.188-.473 9.011-5.062 8.54-10.251L279.299 36.584a9.437 9.437 0 0 0-10.25-8.545l-151.466 13.77a9.436 9.436 0 0 0-8.544 10.25l13.763 151.463a9.437 9.437 0 0 0 10.25 8.545l151.466-13.769h.01z"/>
        <g transform="rotate(-6 723.015 -1283.01)">
            <mask id="n" fill="#fff">
                <use xlink:href="#m"/>
            </mask>
            <path fill="#FFF" d="M87.65 71.433c-1.459-.8-8.626-4.668-9.97-5.215-1.344-.545-2.324-.83-3.372.621-1.047 1.447-4.02 4.687-4.922 5.647-.904.959-1.775 1.049-3.235.248-1.455-.797-6.186-2.547-11.671-7.82-4.269-4.104-7.068-9.08-7.88-10.598-.813-1.52-.006-2.294.765-3.006.694-.642 1.552-1.682 2.328-2.52.773-.839 1.046-1.449 1.578-2.422.532-.973.318-1.85-.027-2.607-.344-.756-3.042-8.18-4.168-11.2-1.127-3.02-2.382-2.571-3.25-2.606-.866-.03-1.852-.192-2.843-.228-.99-.038-2.615.274-4.031 1.709-1.417 1.435-5.39 4.886-5.664 12.198-.274 7.309 4.784 14.573 5.49 15.59.706 1.02 9.66 16.867 24.539 23.385 14.882 6.514 14.96 4.528 17.691 4.382 2.732-.144 8.925-3.267 10.294-6.687 1.369-3.422 1.479-6.396 1.13-7.03-.348-.634-1.323-1.044-2.781-1.841m-27.293 35.229a48.181 48.181 0 0 1-26.657-8.012l-18.621 5.96 6.052-17.992c-5.8-7.99-9.227-17.805-9.227-28.411 0-26.72 21.737-48.458 48.453-48.458 26.722 0 48.457 21.738 48.457 48.458 0 26.718-21.735 48.455-48.457 48.455M60.358 0C28.214 0 2.154 26.059 2.154 58.207c0 10.996 3.052 21.282 8.351 30.056L0 119.49l32.226-10.317a57.97 57.97 0 0 0 28.132 7.24c32.15 0 58.209-26.062 58.209-58.207C118.567 26.059 92.508 0 60.358 0" mask="url(#n)"/>
        </g>
        <path fill="#724F47" d="M133.675 206.745c.852-2.27 7.24-5.387 10.534-7.022 6.769-3.343 20.374-1.443 21.014-12.409.02-.365-11.578-.197-12.44-.433-6.6-1.813-11.805-6.32-19.089-5.511-10.794 1.202-17.452 9.523-23.075 18.002-10.67 16.083-23.755 27.775-4.362 45.344 5.623 5.098 12.83 1.938 19.094-1.977 6.735-4.208 5.57-9.095 7.072-16.713 1.107-5.646-.323-15.083 1.252-19.286"/>
        <path fill="#FF8AD4" d="M154.284 191.494c2.92.928 6.05 1.176 9.168 1.095.997-1.221 1.643-2.773 1.771-4.794.02-.34-11.867-.181-12.75-.408a36.185 36.185 0 0 1-4.244-1.393c.849 2.524 2.768 4.451 6.055 5.5"/>
        <path fill="#FFF" d="M133.465 210.613c.812-3.952 2.591-7.095 7.514-8.704 6.349-2.08 14.588-1.51 20.067-5.61 1.296-.968 2.292-2.127 3.007-3.564.808-1.624.334-4.513 1.17-5.796-8.2 12.598-20.173 6.663-31.014 13.087-6.416 3.804-4.497 11.435-4.618 17.447-.101 5.293 1.504 9.174-1.455 14.237-2.514 4.283-6.707 7.66-11.063 9.988 5.265-.833 10.913-3.022 13.461-8.057 2.355-4.661 1.528-9.758 2.002-14.669.29-2.989.411-5.84.929-8.359"/>
        <path fill="#724F47" fill-rule="nonzero" d="M167.844 231.748c4.48-.72 4.895-5.31 1.925-7.444-1.329-.21-2.62-.608-3.83-1.183a2.392 2.392 0 0 1-1.259-1.25c-1.543.053-2.796.54-3.73 1.458-2.132 2.106-1.808 4.922.934 8.396 2.008.24 4.015.336 5.96.023m21.773 7.142c-1.127-5.13-8.403-10-12.451-12.357.575 3.038-.31 6.252-3.26 8.49-1.912 1.453-4.137 2.087-6.483 2.276.75.677 1.49 1.326 2.225 1.94 5.684 4.766 10.338 7.18 13.83 7.18 2.085 0 3.822-.852 5.026-2.451 1.127-1.505 1.514-3.261 1.113-5.078"/>
        <path fill="#FFF" fill-rule="nonzero" d="M164.598 219.983c-2.614 0-4.222 1.085-5.114 1.986-1.011 1.036-3.1 3.923-.71 8.458 1.03 1.947 2.585 3.648 3.668 4.752 2.004 2.048 3.87 3.822 5.72 5.417 5.997 5.186 10.806 7.711 14.704 7.711 2.6 0 4.77-1.099 6.278-3.18a7.967 7.967 0 0 0 1.379-6.492c-1.312-6.16-9.427-11.606-14.146-14.305l-.238-.135c-2.38-1.368-7.338-4.212-11.54-4.212m0 3.311c3.473 0 8.253 2.824 10.161 3.914 3.674 2.1 16.159 9.88 11.741 15.967a4.256 4.256 0 0 1-3.635 1.821c-3.707 0-8.66-3.523-12.576-6.91a91.12 91.12 0 0 1-5.515-5.225c-1.784-1.832-5.52-5.957-2.963-8.56.706-.722 1.68-1.012 2.786-1.012"/>
        <path fill="#724F47" fill-rule="nonzero" d="M167.832 217.344a2.77 2.77 0 0 1 1.352 0c.875.201 1.697.526 2.461.942a4.867 4.867 0 1 0 1.19-9.523l-.177-.08a11.366 11.366 0 0 0-.803-.03c-3.153 0-5.208 1.54-5.623 4.227-.249 1.582.253 3.097 1.022 4.45.193-.014.387-.008.578.02m35.07 12.075c-.831-5.378-7.73-10.575-12.967-13.797a14.36 14.36 0 0 1-8.089-1.008c-.11.994-.382 2.007-.822 3.04a9.678 9.678 0 0 1-4.978 5.158c.826 1.587 1.256 3.356 1.185 5.096a224.49 224.49 0 0 0 8.762 7.156c2.447 1.922 5.084 3.796 8.123 3.796 2.193 0 4.276-.966 6.364-2.954 1.959-1.855 2.795-4.102 2.422-6.487"/>
        <path fill="#FFF" fill-rule="nonzero" d="M171.7 206.765c-4.043 0-6.786 2.13-7.338 5.696-.648 4.191 2.651 7.8 4.426 9.741l.112.122c2.012 2.207 4.363 4.478 7.183 6.937a228.847 228.847 0 0 0 8.9 7.287c2.588 2.038 5.645 4.206 9.249 4.206 2.665 0 5.146-1.13 7.589-3.454 3.018-2.877 3.27-5.967 2.95-8.048-.609-3.93-3.7-7.908-9.46-12.163a72.65 72.65 0 0 0-10.478-6.355c-3.72-1.81-9.016-3.969-13.137-3.969m0 3.328c4.038 0 9.848 2.741 11.686 3.639 4.373 2.13 24.548 13.162 16.156 21.152-1.91 1.814-3.638 2.542-5.306 2.542-2.419 0-4.712-1.538-7.198-3.493a226.665 226.665 0 0 1-8.775-7.18 85.487 85.487 0 0 1-6.917-6.68c-1.485-1.63-4.111-4.43-3.7-7.098.329-2.134 1.954-2.882 4.054-2.882"/>
        <path fill="#724F47" fill-rule="nonzero" d="M209.848 229.222c-3.91 0-7.694-2.687-10.204-4.709a205.943 205.943 0 0 0-4.087-3.181l-1.86-1.433c-2.65-2.045-5.43-4.273-7.8-6.688-2.356-2.395-5.14-5.955-5.035-9.342.048-1.51.673-2.856 1.828-3.89 1.26-1.136 2.933-1.71 4.962-1.71 4.683 0 10.444 3.132 13.214 4.637l.153.081c1.188.642 5.362 3 9.339 6.281 4.481 3.704 7.044 7.225 7.616 10.473.419 2.39-.255 4.657-1.947 6.564-1.717 1.935-3.799 2.917-6.184 2.917h.005zm-26.51 17.195c-3.471 0-8.097-2.443-13.752-7.263-1.822-1.557-3.673-3.286-5.66-5.29-4.548-4.598-5.548-8.24-2.98-10.822.98-.987 2.322-1.485 3.98-1.485 3.8 0 8.54 2.683 10.82 3.972l.24.134c3.636 2.05 12.228 7.435 13.455 13.132.394 1.84.014 3.617-1.106 5.14a5.97 5.97 0 0 1-4.996 2.482z"/>
        <path fill="#724F47" d="M194.116 238.866c-3.038 0-5.675-1.874-8.121-3.796a224.5 224.5 0 0 1-8.729-7.123 85.302 85.302 0 0 1-6.966-6.711l-.105-.12c-1.672-1.826-4.481-4.89-3.965-8.236.42-2.687 2.47-4.226 5.628-4.226 3.76 0 8.743 2.036 12.259 3.747 1.787.87 17.505 8.73 18.785 17.019.373 2.39-.463 4.637-2.422 6.492-2.088 1.988-4.17 2.954-6.364 2.954"/>
        <path fill="#724F47" fill-rule="nonzero" d="M209.847 229.224c-3.91 0-7.694-2.688-10.204-4.71a205.956 205.956 0 0 0-4.087-3.181l-1.861-1.433c-2.65-2.046-8.314-6.109-10.685-8.523-2.356-2.396-2.255-4.12-2.15-7.503.048-1.514.674-2.86 1.828-3.895 1.26-1.136 2.933-1.71 4.962-1.71 4.684 0 10.445 3.133 13.215 4.637l.154.081c1.187.642 5.361 3 9.338 6.282 4.482 3.703 7.045 7.225 7.617 10.473.419 2.39-.255 4.657-1.947 6.564-1.717 1.935-3.8 2.918-6.184 2.918h.004zm-42.052 2.342c4.453-.728 4.866-5.375 1.914-7.536a13.77 13.77 0 0 1-3.809-1.198 2.4 2.4 0 0 1-1.25-1.265c-1.534.053-2.78.547-3.707 1.476-2.121 2.132-1.799 4.983.928 8.5 1.995.244 3.99.34 5.924.023zm21.644 7.23c-1.12-5.193-8.353-10.123-12.378-12.51.573 3.077-.307 6.33-3.24 8.596-1.9 1.47-4.112 2.113-6.444 2.304a78.853 78.853 0 0 0 2.212 1.965c5.65 4.825 10.276 7.268 13.748 7.268 2.072 0 3.799-.862 4.996-2.482 1.12-1.523 1.505-3.3 1.106-5.14zm-21.682-20.97a2.799 2.799 0 0 1 1.36 0c.88.2 1.708.527 2.477.943a4.888 4.888 0 0 0 4.646-4.267 4.877 4.877 0 0 0-3.449-5.277l-.178-.081c-.269-.019-.538-.029-.808-.029-3.173 0-5.241 1.543-5.66 4.236-.25 1.585.255 3.104 1.03 4.46.194-.014.389-.008.582.02v-.005z"/>
        <path fill="#724F47" d="M202.9 230.251c-.844-5.444-7.855-10.705-13.177-13.967a14.643 14.643 0 0 1-8.22-1.021c-.111 1.006-.388 2.032-.835 3.078a9.815 9.815 0 0 1-5.06 5.222c.84 1.607 1.278 3.397 1.205 5.16a227.96 227.96 0 0 0 8.905 7.244c2.486 1.946 5.166 3.843 8.254 3.843 2.229 0 4.345-.978 6.467-2.99 1.991-1.879 2.84-4.153 2.462-6.569"/>
        <path fill="#FF8AD4" fill-rule="nonzero" d="M167.691 233.177c4.52-.727 6.628-5.608 3.626-7.746-1.81-.817-6.847-2.989-7.052-3.483-1.552.052-2.82.542-3.758 1.463-2.147 2.115-2.845 3.564-.073 7.048 2.02.237 5.29 3.031 7.257 2.718m3.212-12.911c9.34 3.701 10.136-5.983 1.63-10.559-.059-.033-.122-.052-.181-.08a12.28 12.28 0 0 0-.82-.03c-3.221 0-5.32 1.53-5.744 4.201-.25 1.573-.278 2.405.507 3.754.196-.019 3.827 2.3 4.608 2.714"/>
        <path fill="#724F47" d="M217.972 219.754c-.578-3.313-3.169-6.905-7.704-10.682a63.075 63.075 0 0 0-9.43-6.402l-.16-.088-.982-.537c.627 2.443.32 5.16-1.293 7.92a12.454 12.454 0 0 1-9.576 6.202c1.507 1.31 3.077 2.56 4.603 3.748l1.881 1.461c1.449 1.114 2.81 2.17 4.132 3.245 2.532 2.062 6.363 4.804 10.31 4.804 2.41 0 4.515-1.002 6.256-2.981 1.71-1.94 2.386-4.252 1.963-6.695"/>
        <path fill="#FF8AD4" d="M194.751 209.748c2.65-3.896-2.98-9.148-6.853-10.564-.445-.163.48-.59.202-.877a11.356 11.356 0 0 0-.92-.039c-2.028 0-3.69.576-4.946 1.713a5.375 5.375 0 0 0-1.821 3.9c-.058 1.87-.374 2.465.771 4.221 3.633 2.154 10.989 5.44 13.567 1.646"/>
        <path fill="#FFF" d="M219.835 219.04c-1.532-8.621-15.11-16.32-17.816-17.776l-.144-.08c-3.12-1.68-8.922-4.804-14.031-4.804-2.456 0-4.502.713-6.077 2.116-1.492 1.332-2.316 3.072-2.378 5.027-.077 2.53 1.16 5.055 2.744 7.229.153-.07.31-.13.472-.176.203-.053-.298-.181-.096-.233-2.022-2.545-2.095-5.83.067-8.77 3.568-4.85 10.771-2.264 15.25-.39 5.777 2.411 11.685 6.04 15.768 10.815 2.745 3.21 6.308 8.355 3.419 12.355a7.365 7.365 0 0 1-.515.76c.005.619-1.07 1.109-1.628 1.684-3.072 3.139-7.27 1.46-11.156 0-.038.228.655 1.574.592 1.812-.024.095-.794-.937-.828-.856 1.81.88 4.531 2.616 6.587 2.616 2.84 0 5.412-1.19 7.43-3.448 2.041-2.273 2.85-4.998 2.34-7.88"/>
    </g>
</svg>
